<svg viewBox="0 0 188 100" fill="none" xmlns="http://www.w3.org/2000/svg">
<path d="M152.05 97.5108H188V90.8064H159.685V57.5323H152.05V97.5108ZM98.3689 97.5108H138.875V90.8064H98.3689V97.5108ZM67.594 91.4194C58.4815 91.4194 53.6809 85.6882 53.6809 77.6452C53.6809 69.7204 58.4815 63.629 67.594 63.629C76.7064 63.629 81.6265 69.7204 81.6265 77.6452C81.6265 85.7097 76.701 91.4194 67.594 91.4194ZM67.7134 98C80.0245 98 89.5062 89.5914 89.5062 77.6452C89.5062 65.6989 80.0245 57.043 67.594 57.043C55.1635 57.043 45.8012 65.6989 45.8012 77.5215C45.8012 89.5914 55.4024 98 67.7134 98ZM19.0829 97.8763C30.6554 97.8763 37.4273 92.5 37.4273 84.7151C37.4273 68.9893 10.0954 75.8172 10.0954 68.0161C10.0954 65.457 13.1745 63.7473 18.4693 63.7473C23.5643 63.7795 28.535 65.3082 32.7516 68.1398L36.0751 62.1452C30.4111 58.9731 25.4855 57.1452 19.4522 57.0215C9.851 56.7796 2.46004 60.9247 2.46004 68.7258C2.46004 83.9624 30.0418 77.5 30.0418 85.3011C30.0418 88.3495 25.9797 91.2742 18.4693 91.2742C12.311 91.2742 8.74318 89.3226 4.30643 85.5484L0 90.9247C3.80138 95.1936 10.9588 97.871 19.0829 97.871M118.685 84.8333C132.228 84.8333 138.875 74.6183 138.875 64.2312V0H131.343V62.9032C131.343 72.6505 127.406 78.2581 118.788 78.2581C110.539 78.2581 105.982 73.0161 105.982 62.6667V0H98.3689V63.7581C98.3689 74.2419 104.886 84.8495 118.685 84.8495" fill="#24292E"/>
</svg>
