<svg id="Слой_1" data-name="Слой 1" xmlns="http://www.w3.org/2000/svg" xmlns:xlink="http://www.w3.org/1999/xlink" viewBox="0 0 455.81 561.83"><defs><clipPath id="clip-path"><polygon points="0 0.07 0 561.76 233.86 561.76 233.86 447.45 444.95 447.45 444.95 441.5 455.81 441.5 455.81 0.07 0 0.07" fill="none"/></clipPath></defs><polygon points="223.83 439.69 223.83 551.78 47.66 551.78 47.66 561.76 233.86 561.76 233.86 447.45 413.67 447.45 413.67 439.69 223.83 439.69" fill="#fff"/><polygon points="6.82 42.44 6.82 333.77 47.66 333.77 47.66 557.25 228.16 557.25 228.16 443.63 413.67 443.63 413.67 226.61 413.67 226.61 413.67 42.44 6.82 42.44" fill="#fff"/><rect y="42.44" width="6.82" height="291.33" fill="#fff"/><g clip-path="url(#clip-path)"><line x1="-394.91" y1="42.44" x2="414.16" y2="42.44" fill="none" stroke="#003a50" stroke-miterlimit="10"/><line x1="-416.35" y1="23.95" x2="436.62" y2="23.95" fill="none" stroke="#003a50" stroke-miterlimit="10"/><line x1="413.67" y1="41.97" x2="413.67" y2="1139.11" fill="none" stroke="#003a50" stroke-miterlimit="10"/><line x1="431.6" y1="19.49" x2="431.6" y2="1139.11" fill="none" stroke="#003a50" stroke-miterlimit="10"/></g><rect x="420.73" y="139.86" width="4.55" height="71.84" fill="#fff"/><rect x="420.73" y="139.86" width="4.55" height="71.84" fill="none" stroke="#003a50" stroke-miterlimit="10"/><line x1="423.01" y1="211.7" x2="423.01" y2="139.86" fill="none" stroke="#003a50" stroke-miterlimit="10"/><rect x="420.73" y="207.16" width="4.55" height="4.54" fill="#fff"/><rect x="420.73" y="207.16" width="4.55" height="4.54" fill="none" stroke="#003a50" stroke-miterlimit="10"/><rect x="420.73" y="139.86" width="4.55" height="4.54" fill="#fff"/><rect x="420.73" y="139.86" width="4.55" height="4.54" fill="none" stroke="#003a50" stroke-miterlimit="10"/><rect x="420.73" y="175.78" width="4.55" height="4.54" fill="#fff"/><rect x="420.73" y="175.78" width="4.55" height="4.54" fill="none" stroke="#003a50" stroke-miterlimit="10"/><rect x="24.91" y="30.52" width="70.84" height="4.55" fill="#fff"/><rect x="24.91" y="30.52" width="70.84" height="4.55" fill="none" stroke="#003a50" stroke-miterlimit="10"/><line x1="24.91" y1="32.79" x2="95.75" y2="32.79" fill="none" stroke="#003a50" stroke-miterlimit="10"/><rect x="24.91" y="30.52" width="4.48" height="4.55" fill="#fff"/><rect x="24.91" y="30.52" width="4.48" height="4.55" fill="none" stroke="#003a50" stroke-miterlimit="10"/><rect x="91.28" y="30.52" width="4.48" height="4.55" fill="#fff"/><rect x="91.28" y="30.52" width="4.48" height="4.55" fill="none" stroke="#003a50" stroke-miterlimit="10"/><rect x="55.86" y="30.52" width="4.48" height="4.55" fill="#fff"/><rect x="55.86" y="30.52" width="4.48" height="4.55" fill="none" stroke="#003a50" stroke-miterlimit="10"/><rect x="420.73" y="298.87" width="4.55" height="71.33" fill="#fff"/><rect x="420.73" y="298.87" width="4.55" height="71.33" fill="none" stroke="#003a50" stroke-miterlimit="10"/><line x1="423.01" y1="370.2" x2="423.01" y2="298.87" fill="none" stroke="#003a50" stroke-miterlimit="10"/><rect x="420.73" y="365.69" width="4.55" height="4.51" fill="#fff"/><rect x="420.73" y="365.69" width="4.55" height="4.51" fill="none" stroke="#003a50" stroke-miterlimit="10"/><rect x="420.73" y="298.87" width="4.55" height="4.51" fill="#fff"/><rect x="420.73" y="298.87" width="4.55" height="4.51" fill="none" stroke="#003a50" stroke-miterlimit="10"/><rect x="420.73" y="334.53" width="4.55" height="4.51" fill="#fff"/><rect x="420.73" y="334.53" width="4.55" height="4.51" fill="none" stroke="#003a50" stroke-miterlimit="10"/><rect x="183.75" y="30.52" width="57" height="4.55" fill="#fff"/><rect x="183.75" y="30.52" width="57" height="4.55" fill="none" stroke="#003a50" stroke-miterlimit="10"/><line x1="183.75" y1="32.79" x2="240.75" y2="32.79" fill="none" stroke="#003a50" stroke-miterlimit="10"/><rect x="183.75" y="30.52" width="4.5" height="4.55" fill="#fff"/><rect x="183.75" y="30.52" width="4.5" height="4.55" fill="none" stroke="#003a50" stroke-miterlimit="10"/><rect x="236.25" y="30.52" width="4.5" height="4.55" fill="#fff"/><rect x="236.25" y="30.52" width="4.5" height="4.55" fill="none" stroke="#003a50" stroke-miterlimit="10"/><rect x="207.75" y="30.52" width="4.51" height="4.55" fill="#fff"/><rect x="207.75" y="30.52" width="4.5" height="4.55" fill="none" stroke="#003a50" stroke-miterlimit="10"/><rect x="328.7" y="30.56" width="96.59" height="4.55" fill="#fff"/><rect x="328.7" y="30.56" width="96.59" height="4.55" fill="none" stroke="#003a50" stroke-miterlimit="10"/><line x1="328.7" y1="32.84" x2="425.29" y2="32.84" fill="none" stroke="#003a50" stroke-miterlimit="10"/><rect x="328.7" y="30.56" width="4.55" height="4.55" fill="#fff"/><rect x="328.7" y="30.56" width="4.55" height="4.55" fill="none" stroke="#003a50" stroke-miterlimit="10"/><rect x="358.26" y="30.56" width="4.55" height="4.55" fill="#fff"/><rect x="358.26" y="30.56" width="4.55" height="4.55" fill="none" stroke="#003a50" stroke-miterlimit="10"/><rect x="391.3" y="30.56" width="4.55" height="4.55" fill="#fff"/><rect x="391.3" y="30.56" width="4.55" height="4.55" fill="none" stroke="#003a50" stroke-miterlimit="10"/><rect x="420.73" y="30.56" width="4.55" height="94.9" fill="#fff"/><rect x="420.73" y="30.56" width="4.55" height="94.9" fill="none" stroke="#003a50" stroke-miterlimit="10"/><line x1="423.01" y1="125.46" x2="423.01" y2="30.56" fill="none" stroke="#003a50" stroke-miterlimit="10"/><rect x="420.73" y="120.91" width="4.55" height="4.55" fill="#fff"/><rect x="420.73" y="120.91" width="4.55" height="4.55" fill="none" stroke="#003a50" stroke-miterlimit="10"/><rect x="420.73" y="30.56" width="4.55" height="4.55" fill="#fff"/><rect x="420.73" y="30.56" width="4.55" height="4.55" fill="none" stroke="#003a50" stroke-miterlimit="10"/><rect x="420.73" y="92.56" width="4.55" height="4.55" fill="#fff"/><rect x="420.73" y="92.56" width="4.55" height="4.55" fill="none" stroke="#003a50" stroke-miterlimit="10"/><rect x="420.73" y="60.16" width="4.55" height="4.55" fill="#fff"/><rect x="420.73" y="60.16" width="4.55" height="4.55" fill="none" stroke="#003a50" stroke-miterlimit="10"/><g clip-path="url(#clip-path)"><path d="M194,351.38a1,1,0,0,0-1-1,10.74,10.74,0,0,1,0-21.48,1,1,0,0,0,0-2,12.7,12.7,0,1,0,0,25.4A1,1,0,0,0,194,351.38Z" fill="none" stroke="#003a50" stroke-miterlimit="10"/><path d="M235.42,328a1,1,0,0,0,1,1,10.74,10.74,0,1,1,0,21.47,1,1,0,1,0,0,2,12.7,12.7,0,1,0,0-25.39A1,1,0,0,0,235.42,328Z" fill="none" stroke="#003a50" stroke-miterlimit="10"/><path d="M194,318.81a1,1,0,0,0-1-1,10.74,10.74,0,0,1,0-21.48,1,1,0,1,0,0-2,12.7,12.7,0,1,0,0,25.39A1,1,0,0,0,194,318.81Z" fill="none" stroke="#003a50" stroke-miterlimit="10"/><path d="M235.42,295.38a1,1,0,0,0,1,1,10.74,10.74,0,1,1,0,21.47,1,1,0,0,0,0,2,12.7,12.7,0,1,0,0-25.39A1,1,0,0,0,235.42,295.38Z" fill="none" stroke="#003a50" stroke-miterlimit="10"/><path d="M204.72,277.23a1,1,0,0,0,1-1,10.74,10.74,0,0,1,21.48,0,1,1,0,1,0,2,0,12.7,12.7,0,0,0-25.4,0A1,1,0,0,0,204.72,277.23Z" fill="none" stroke="#003a50" stroke-miterlimit="10"/><path d="M228.16,365.69a1,1,0,0,0-1,1,10.74,10.74,0,0,1-21.48,0,1,1,0,1,0-1.95,0,12.7,12.7,0,1,0,25.39,0A1,1,0,0,0,228.16,365.69Z" fill="none" stroke="#003a50" stroke-miterlimit="10"/><path d="M183.69,339.65a9.88,9.88,0,0,0,9.84,9.87h4.56a18.55,18.55,0,0,1-.63-4.78V329.81h-3.93A9.87,9.87,0,0,0,183.69,339.65Z" fill="none" stroke="#003a50" stroke-miterlimit="10"/><path d="M234.8,349.52h1.07a9.86,9.86,0,1,0,0-19.71h-.44v14.93A20,20,0,0,1,234.8,349.52Z" fill="none" stroke="#003a50" stroke-miterlimit="10"/><path d="M183.69,307.08a9.89,9.89,0,0,0,9.84,9.88h3.93V298.22c0-.32,0-.66.06-1h-4A9.85,9.85,0,0,0,183.69,307.08Z" fill="none" stroke="#003a50" stroke-miterlimit="10"/><path d="M235.37,297.24c0,.32.06.66.06,1V317h.44a9.86,9.86,0,1,0,0-19.72Z" fill="none" stroke="#003a50" stroke-miterlimit="10"/><path d="M206.57,360.93v5.22a9.86,9.86,0,1,0,19.72,0v-5.22a18.76,18.76,0,0,1-9.84,2.8A19,19,0,0,1,206.57,360.93Z" fill="none" stroke="#003a50" stroke-miterlimit="10"/><path d="M206.57,276.78V282a19,19,0,0,1,9.88-2.8,18.76,18.76,0,0,1,9.84,2.8v-5.25a9.86,9.86,0,1,0-19.72,0Z" fill="none" stroke="#003a50" stroke-miterlimit="10"/><path d="M197.46,298.22v46.52a18.55,18.55,0,0,0,.63,4.78,19,19,0,0,0,18.36,14.21,18.72,18.72,0,0,0,9.84-2.79,19.09,19.09,0,0,0,8.52-11.42,20.46,20.46,0,0,0,.62-4.78V298.22c0-.32,0-.66-.06-1a18.95,18.95,0,0,0-37.85,0C197.49,297.56,197.46,297.9,197.46,298.22Z" fill="none" stroke="#003a50" stroke-miterlimit="10"/><rect x="-35.25" y="226.11" width="34.75" height="81.24" fill="none" stroke="#003a50" stroke-miterlimit="10"/><path d="M126.1,455.26h15.8a2.32,2.32,0,0,1,2.31,2.31v15.28a2.32,2.32,0,0,1-2.31,2.31H126.1a2.31,2.31,0,0,1-2.3-2.31V457.57A2.31,2.31,0,0,1,126.1,455.26Z" fill="none" stroke="#003a50" stroke-miterlimit="10"/><path d="M132.44,465.21a1.56,1.56,0,1,1,1.56,1.56A1.56,1.56,0,0,1,132.44,465.21Z" fill="none" stroke="#003a50" stroke-miterlimit="10"/></g><rect x="121.36" y="438.78" width="22.8" height="52.87" fill="none" stroke="#003a50" stroke-miterlimit="10"/><rect x="105.63" y="300.77" width="29.29" height="27.2" fill="none" stroke="#003a50" stroke-miterlimit="10"/><rect x="105.63" y="273.46" width="29.29" height="27.2" fill="none" stroke="#003a50" stroke-miterlimit="10"/><rect x="215.55" y="52.63" width="34.08" height="76.16" fill="none" stroke="#003a50" stroke-miterlimit="10"/><g clip-path="url(#clip-path)"><path d="M219.77,68.34v44.74a12.59,12.59,0,0,0,12.8,12.36h0a12.58,12.58,0,0,0,12.8-12.36V68.34A12.58,12.58,0,0,0,232.61,56h0A12.59,12.59,0,0,0,219.77,68.34Z" fill="none" stroke="#003a50" stroke-miterlimit="10"/><ellipse cx="232.59" cy="68.07" rx="1.86" ry="1.79" fill="none" stroke="#003a50" stroke-miterlimit="10"/><path d="M179.41,104.2H156.2V85.86h23.21a9.17,9.17,0,1,1,0,18.34Z" fill="none" stroke="#003a50" stroke-miterlimit="10"/></g><line x1="165.23" y1="85.86" x2="165.23" y2="104.2" fill="none" stroke="#003a50" stroke-miterlimit="10"/><g clip-path="url(#clip-path)"><path d="M172.85,73h-15.8a2.3,2.3,0,0,1-2.3-2.31V55.42a2.3,2.3,0,0,1,2.3-2.3h15.8a2.3,2.3,0,0,1,2.3,2.3V70.7A2.3,2.3,0,0,1,172.85,73Z" fill="none" stroke="#003a50" stroke-miterlimit="10"/><path d="M166.51,63.06A1.56,1.56,0,1,1,165,61.51,1.56,1.56,0,0,1,166.51,63.06Z" fill="none" stroke="#003a50" stroke-miterlimit="10"/></g><rect x="226.29" y="235.66" width="192.62" height="13.62" fill="none" stroke="#003a50" stroke-miterlimit="10"/><polygon points="303.58 242.91 337.94 240.09 372.47 242.91 372.47 244.88 303.58 244.88 303.58 242.91" fill="none" stroke="#003a50" stroke-miterlimit="10"/><g clip-path="url(#clip-path)"><rect x="-44.65" y="61.04" width="45.5" height="98.82" fill="none" stroke="#003a50" stroke-miterlimit="10"/></g><rect x="106.11" y="42.44" width="45.5" height="98.82" fill="none" stroke="#003a50" stroke-miterlimit="10"/><g clip-path="url(#clip-path)"><path d="M143.56,50.88h-29a2.1,2.1,0,0,0-2.1,2.1V111.5h33.26V53A2.1,2.1,0,0,0,143.56,50.88Z" fill="none" stroke="#003a50" stroke-miterlimit="10"/></g><rect x="112.41" y="99.45" width="33.26" height="12.04" fill="none" stroke="#003a50" stroke-miterlimit="10"/><g clip-path="url(#clip-path)"><path d="M143.81,134.53H114.56a2.2,2.2,0,0,1-2.2-2.21V116.84a2.19,2.19,0,0,1,2.2-2.2h29.25a2.2,2.2,0,0,1,2.2,2.2v15.48A2.21,2.21,0,0,1,143.81,134.53Z" fill="none" stroke="#003a50" stroke-miterlimit="10"/><rect x="233.31" y="446.28" width="27.05" height="137.43" fill="none" stroke="#003a50" stroke-miterlimit="10"/><path d="M237.14,565.67a.79.79,0,0,1-.71-.45.81.81,0,0,1,.36-1.07,22.91,22.91,0,0,1,20.09,0,.8.8,0,0,1,.36,1.07.79.79,0,0,1-1.06.36,21.3,21.3,0,0,0-18.69,0A.73.73,0,0,1,237.14,565.67Z" fill="none" stroke="#003a50" stroke-miterlimit="10"/><path d="M237.14,561.24a.78.78,0,0,1-.71-.44.82.82,0,0,1,.36-1.08,22.91,22.91,0,0,1,20.09,0,.8.8,0,0,1,.36,1.07.79.79,0,0,1-1.06.37,21.3,21.3,0,0,0-18.69,0A.72.72,0,0,1,237.14,561.24Z" fill="none" stroke="#003a50" stroke-miterlimit="10"/><path d="M237.14,556.81a.78.78,0,0,1-.71-.44.8.8,0,0,1,.36-1.07,22.91,22.91,0,0,1,20.09,0,.8.8,0,0,1,.36,1.07.79.79,0,0,1-1.06.36,21.3,21.3,0,0,0-18.69,0A.72.72,0,0,1,237.14,556.81Z" fill="none" stroke="#003a50" stroke-miterlimit="10"/><path d="M237.14,552.39a.78.78,0,0,1-.71-.44.82.82,0,0,1,.36-1.08,22.91,22.91,0,0,1,20.09,0,.8.8,0,0,1,.36,1.07.79.79,0,0,1-1.06.37,21.3,21.3,0,0,0-18.69,0A.72.72,0,0,1,237.14,552.39Z" fill="none" stroke="#003a50" stroke-miterlimit="10"/><path d="M237.14,548a.78.78,0,0,1-.71-.44.8.8,0,0,1,.36-1.07,22.91,22.91,0,0,1,20.09,0,.8.8,0,0,1,.36,1.07.79.79,0,0,1-1.06.36,21.3,21.3,0,0,0-18.69,0A.72.72,0,0,1,237.14,548Z" fill="none" stroke="#003a50" stroke-miterlimit="10"/><line x1="246.83" y1="583.7" x2="246.83" y2="442.44" fill="none" stroke="#003a50" stroke-miterlimit="10"/></g><rect x="14.28" y="138.44" width="27.05" height="82.72" fill="none" stroke="#003a50" stroke-miterlimit="10"/><g clip-path="url(#clip-path)"><path d="M18.11,207.55a.79.79,0,0,1-.35-1.51,22.88,22.88,0,0,1,20.08,0,.8.8,0,0,1-.7,1.43,21.27,21.27,0,0,0-18.68,0A.74.74,0,0,1,18.11,207.55Z" fill="none" stroke="#003a50" stroke-miterlimit="10"/><path d="M18.11,203.13a.81.81,0,0,1-.72-.45.79.79,0,0,1,.37-1.06,22.8,22.8,0,0,1,20.08,0,.79.79,0,0,1-.7,1.42,21.27,21.27,0,0,0-18.68,0A.76.76,0,0,1,18.11,203.13Z" fill="none" stroke="#003a50" stroke-miterlimit="10"/><path d="M18.11,198.7a.79.79,0,0,1-.35-1.51,22.88,22.88,0,0,1,20.08,0,.78.78,0,0,1,.36,1.06.79.79,0,0,1-1.06.37,21.27,21.27,0,0,0-18.68,0A.74.74,0,0,1,18.11,198.7Z" fill="none" stroke="#003a50" stroke-miterlimit="10"/><path d="M18.11,194.28a.8.8,0,0,1-.35-1.52,22.88,22.88,0,0,1,20.08,0,.79.79,0,0,1,.36,1.07.78.78,0,0,1-1.06.36,21.27,21.27,0,0,0-18.68,0A.76.76,0,0,1,18.11,194.28Z" fill="none" stroke="#003a50" stroke-miterlimit="10"/><path d="M18.11,189.85a.79.79,0,0,1-.35-1.51,22.88,22.88,0,0,1,20.08,0,.78.78,0,0,1,.36,1.06.79.79,0,0,1-1.06.37,21.27,21.27,0,0,0-18.68,0A.74.74,0,0,1,18.11,189.85Z" fill="none" stroke="#003a50" stroke-miterlimit="10"/><path d="M18.11,185.43a.8.8,0,0,1-.35-1.52,22.88,22.88,0,0,1,20.08,0,.8.8,0,0,1-.7,1.43,21.27,21.27,0,0,0-18.68,0A.76.76,0,0,1,18.11,185.43Z" fill="none" stroke="#003a50" stroke-miterlimit="10"/><path d="M18.11,212a.8.8,0,0,1-.72-.44.81.81,0,0,1,.37-1.08,22.88,22.88,0,0,1,20.08,0,.8.8,0,0,1-.7,1.44,21.27,21.27,0,0,0-18.68,0A.74.74,0,0,1,18.11,212Z" fill="none" stroke="#003a50" stroke-miterlimit="10"/><path d="M18.11,216.4a.79.79,0,0,1-.35-1.51,22.88,22.88,0,0,1,20.08,0,.8.8,0,0,1-.7,1.43,21.27,21.27,0,0,0-18.68,0A.74.74,0,0,1,18.11,216.4Z" fill="none" stroke="#003a50" stroke-miterlimit="10"/></g><line x1="27.8" y1="221.17" x2="27.8" y2="138.44" fill="none" stroke="#003a50" stroke-miterlimit="10"/><rect x="14.55" y="223.3" width="27.05" height="59.34" fill="none" stroke="#003a50" stroke-miterlimit="10"/><g clip-path="url(#clip-path)"><path d="M18.39,269a.79.79,0,0,1-.35-1.51,22.88,22.88,0,0,1,20.08,0,.78.78,0,0,1,.36,1.06.79.79,0,0,1-1.06.37,21.27,21.27,0,0,0-18.68,0A.74.74,0,0,1,18.39,269Z" fill="none" stroke="#003a50" stroke-miterlimit="10"/><path d="M18.39,264.61a.8.8,0,0,1-.35-1.52,22.88,22.88,0,0,1,20.08,0,.79.79,0,0,1,.36,1.07.78.78,0,0,1-1.06.36,21.27,21.27,0,0,0-18.68,0A.76.76,0,0,1,18.39,264.61Z" fill="none" stroke="#003a50" stroke-miterlimit="10"/><path d="M18.39,260.18a.79.79,0,0,1-.35-1.51,22.88,22.88,0,0,1,20.08,0,.78.78,0,0,1,.36,1.06.79.79,0,0,1-1.06.37,21.27,21.27,0,0,0-18.68,0A.74.74,0,0,1,18.39,260.18Z" fill="none" stroke="#003a50" stroke-miterlimit="10"/><path d="M18.39,255.76a.8.8,0,0,1-.35-1.52,22.88,22.88,0,0,1,20.08,0,.8.8,0,0,1-.7,1.43,21.27,21.27,0,0,0-18.68,0A.76.76,0,0,1,18.39,255.76Z" fill="none" stroke="#003a50" stroke-miterlimit="10"/><path d="M18.39,251.33a.8.8,0,0,1-.72-.44.81.81,0,0,1,.37-1.08,22.88,22.88,0,0,1,20.08,0,.8.8,0,0,1-.7,1.44,21.27,21.27,0,0,0-18.68,0A.74.74,0,0,1,18.39,251.33Z" fill="none" stroke="#003a50" stroke-miterlimit="10"/><path d="M18.39,246.91a.8.8,0,0,1-.35-1.52,22.88,22.88,0,0,1,20.08,0,.8.8,0,0,1-.7,1.43,21.27,21.27,0,0,0-18.68,0A.76.76,0,0,1,18.39,246.91Z" fill="none" stroke="#003a50" stroke-miterlimit="10"/><path d="M18.39,273.46a.81.81,0,0,1-.72-.45A.79.79,0,0,1,18,272a22.8,22.8,0,0,1,20.08,0,.79.79,0,0,1-.7,1.42,21.27,21.27,0,0,0-18.68,0A.76.76,0,0,1,18.39,273.46Z" fill="none" stroke="#003a50" stroke-miterlimit="10"/><path d="M18.39,277.88a.79.79,0,0,1-.35-1.51,22.88,22.88,0,0,1,20.08,0,.8.8,0,0,1-.7,1.43,21.27,21.27,0,0,0-18.68,0A.74.74,0,0,1,18.39,277.88Z" fill="none" stroke="#003a50" stroke-miterlimit="10"/></g><line x1="28.08" y1="282.64" x2="28.08" y2="223.3" fill="none" stroke="#003a50" stroke-miterlimit="10"/><rect x="75.89" y="222.03" width="27.05" height="60.61" fill="none" stroke="#003a50" stroke-miterlimit="10"/><g clip-path="url(#clip-path)"><path d="M79.72,269a.79.79,0,0,1-.35-1.51,22.91,22.91,0,0,1,20.09,0,.8.8,0,0,1,.36,1.06.81.81,0,0,1-1.07.37,21.27,21.27,0,0,0-18.68,0A.72.72,0,0,1,79.72,269Z" fill="none" stroke="#003a50" stroke-miterlimit="10"/><path d="M79.72,264.61a.8.8,0,0,1-.35-1.52,22.91,22.91,0,0,1,20.09,0,.81.81,0,0,1,.36,1.07.79.79,0,0,1-1.07.36,21.27,21.27,0,0,0-18.68,0A.73.73,0,0,1,79.72,264.61Z" fill="none" stroke="#003a50" stroke-miterlimit="10"/><path d="M79.72,260.18a.79.79,0,0,1-.35-1.51,22.91,22.91,0,0,1,20.09,0,.8.8,0,0,1,.36,1.06.81.81,0,0,1-1.07.37,21.27,21.27,0,0,0-18.68,0A.72.72,0,0,1,79.72,260.18Z" fill="none" stroke="#003a50" stroke-miterlimit="10"/><path d="M79.72,255.76a.8.8,0,0,1-.35-1.52,22.91,22.91,0,0,1,20.09,0,.8.8,0,0,1-.71,1.43,21.27,21.27,0,0,0-18.68,0A.73.73,0,0,1,79.72,255.76Z" fill="none" stroke="#003a50" stroke-miterlimit="10"/><path d="M79.72,251.33a.8.8,0,0,1-.72-.44.81.81,0,0,1,.37-1.08,22.91,22.91,0,0,1,20.09,0,.8.8,0,0,1-.71,1.44,21.27,21.27,0,0,0-18.68,0A.72.72,0,0,1,79.72,251.33Z" fill="none" stroke="#003a50" stroke-miterlimit="10"/><path d="M79.72,246.91a.8.8,0,0,1-.35-1.52,22.91,22.91,0,0,1,20.09,0,.8.8,0,0,1-.71,1.43,21.27,21.27,0,0,0-18.68,0A.73.73,0,0,1,79.72,246.91Z" fill="none" stroke="#003a50" stroke-miterlimit="10"/><path d="M79.72,273.46A.81.81,0,0,1,79,273a.79.79,0,0,1,.37-1.06,22.82,22.82,0,0,1,20.09,0,.79.79,0,1,1-.71,1.42,21.27,21.27,0,0,0-18.68,0A.73.73,0,0,1,79.72,273.46Z" fill="none" stroke="#003a50" stroke-miterlimit="10"/><path d="M79.72,277.88a.79.79,0,0,1-.35-1.51,22.91,22.91,0,0,1,20.09,0,.8.8,0,0,1-.71,1.43,21.27,21.27,0,0,0-18.68,0A.72.72,0,0,1,79.72,277.88Z" fill="none" stroke="#003a50" stroke-miterlimit="10"/></g><line x1="89.41" y1="282.64" x2="89.41" y2="222.03" fill="none" stroke="#003a50" stroke-miterlimit="10"/><rect x="197.58" y="457.94" width="21.94" height="90.61" fill="none" stroke="#003a50" stroke-miterlimit="10"/><g clip-path="url(#clip-path)"><path d="M200.69,537.51a.65.65,0,0,1-.29-1.23,18.61,18.61,0,0,1,16.3,0,.66.66,0,0,1,.3.87.65.65,0,0,1-.87.29,17.27,17.27,0,0,0-15.15,0A.62.62,0,0,1,200.69,537.51Z" fill="none" stroke="#003a50" stroke-miterlimit="10"/><path d="M200.69,533.92a.65.65,0,0,1-.29-1.23,18.61,18.61,0,0,1,16.3,0,.66.66,0,0,1,.3.87.65.65,0,0,1-.87.29,17.27,17.27,0,0,0-15.15,0A.62.62,0,0,1,200.69,533.92Z" fill="none" stroke="#003a50" stroke-miterlimit="10"/><path d="M200.69,530.33a.65.65,0,0,1-.29-1.23,18.61,18.61,0,0,1,16.3,0,.66.66,0,0,1,.3.87.65.65,0,0,1-.87.29,17.27,17.27,0,0,0-15.15,0A.62.62,0,0,1,200.69,530.33Z" fill="none" stroke="#003a50" stroke-miterlimit="10"/><path d="M200.69,526.74a.65.65,0,0,1-.29-1.23,18.61,18.61,0,0,1,16.3,0,.66.66,0,0,1,.3.87.65.65,0,0,1-.87.29,17.27,17.27,0,0,0-15.15,0A.62.62,0,0,1,200.69,526.74Z" fill="none" stroke="#003a50" stroke-miterlimit="10"/><path d="M200.69,523.15a.64.64,0,0,1-.58-.36.66.66,0,0,1,.29-.87,18.61,18.61,0,0,1,16.3,0,.66.66,0,0,1,.3.87.65.65,0,0,1-.87.29,17.27,17.27,0,0,0-15.15,0A.62.62,0,0,1,200.69,523.15Z" fill="none" stroke="#003a50" stroke-miterlimit="10"/><path d="M200.69,519.56a.65.65,0,0,1-.29-1.23,18.61,18.61,0,0,1,16.3,0,.66.66,0,0,1,.3.87.65.65,0,0,1-.87.29,17.27,17.27,0,0,0-15.15,0A.62.62,0,0,1,200.69,519.56Z" fill="none" stroke="#003a50" stroke-miterlimit="10"/><path d="M200.69,541.1a.65.65,0,0,1-.29-1.23,18.61,18.61,0,0,1,16.3,0,.66.66,0,0,1,.3.87.65.65,0,0,1-.87.29A17.27,17.27,0,0,0,201,541,.62.62,0,0,1,200.69,541.1Z" fill="none" stroke="#003a50" stroke-miterlimit="10"/><path d="M200.69,544.69a.65.65,0,0,1-.29-1.23,18.61,18.61,0,0,1,16.3,0,.66.66,0,0,1,.3.87.65.65,0,0,1-.87.29,17.27,17.27,0,0,0-15.15,0A.62.62,0,0,1,200.69,544.69Z" fill="none" stroke="#003a50" stroke-miterlimit="10"/></g><line x1="208.55" y1="548.55" x2="208.55" y2="455.07" fill="none" stroke="#003a50" stroke-miterlimit="10"/><rect x="155.81" y="136.74" width="25.44" height="84.62" fill="none" stroke="#003a50" stroke-miterlimit="10"/><g clip-path="url(#clip-path)"><path d="M159.41,207.75a.75.75,0,0,1-.67-.45.82.82,0,0,1,.34-1.07,20.39,20.39,0,0,1,18.89,0,.81.81,0,0,1,.34,1.07.72.72,0,0,1-1,.36,18.94,18.94,0,0,0-17.57,0A.68.68,0,0,1,159.41,207.75Z" fill="none" stroke="#003a50" stroke-miterlimit="10"/><path d="M159.41,203.32a.74.74,0,0,1-.67-.44.83.83,0,0,1,.34-1.08,20.39,20.39,0,0,1,18.89,0,.81.81,0,0,1,.34,1.07.73.73,0,0,1-1,.37,18.94,18.94,0,0,0-17.57,0A.67.67,0,0,1,159.41,203.32Z" fill="none" stroke="#003a50" stroke-miterlimit="10"/><path d="M159.41,198.89a.74.74,0,0,1-.67-.44.82.82,0,0,1,.34-1.07,20.39,20.39,0,0,1,18.89,0,.81.81,0,0,1,.34,1.07.72.72,0,0,1-1,.36,18.94,18.94,0,0,0-17.57,0A.67.67,0,0,1,159.41,198.89Z" fill="none" stroke="#003a50" stroke-miterlimit="10"/><path d="M159.41,194.47a.75.75,0,0,1-.67-.45.8.8,0,0,1,.34-1.06A20.31,20.31,0,0,1,178,193a.79.79,0,0,1,.34,1.06.72.72,0,0,1-1,.36,18.94,18.94,0,0,0-17.57,0A.68.68,0,0,1,159.41,194.47Z" fill="none" stroke="#003a50" stroke-miterlimit="10"/><path d="M159.41,190a.74.74,0,0,1-.67-.44.82.82,0,0,1,.34-1.07,20.39,20.39,0,0,1,18.89,0,.8.8,0,0,1,.34,1.06.73.73,0,0,1-1,.37,18.94,18.94,0,0,0-17.57,0A.67.67,0,0,1,159.41,190Z" fill="none" stroke="#003a50" stroke-miterlimit="10"/><path d="M159.41,185.62a.75.75,0,0,1-.67-.45.82.82,0,0,1,.34-1.07,20.39,20.39,0,0,1,18.89,0,.81.81,0,0,1,.34,1.07.72.72,0,0,1-1,.36,18.94,18.94,0,0,0-17.57,0A.68.68,0,0,1,159.41,185.62Z" fill="none" stroke="#003a50" stroke-miterlimit="10"/><path d="M159.41,212.17a.74.74,0,0,1-.67-.44.82.82,0,0,1,.34-1.07,20.39,20.39,0,0,1,18.89,0,.8.8,0,0,1,.34,1.06.73.73,0,0,1-1,.37,18.94,18.94,0,0,0-17.57,0A.67.67,0,0,1,159.41,212.17Z" fill="none" stroke="#003a50" stroke-miterlimit="10"/><path d="M159.41,216.6a.75.75,0,0,1-.67-.45.82.82,0,0,1,.34-1.07,20.39,20.39,0,0,1,18.89,0,.81.81,0,0,1,.34,1.07.72.72,0,0,1-1,.36,18.94,18.94,0,0,0-17.57,0A.68.68,0,0,1,159.41,216.6Z" fill="none" stroke="#003a50" stroke-miterlimit="10"/></g><line x1="168.53" y1="221.36" x2="168.53" y2="136.05" fill="none" stroke="#003a50" stroke-miterlimit="10"/><rect x="14.28" y="282.65" width="87.74" height="24.36" fill="none" stroke="#003a50" stroke-miterlimit="10"/><g clip-path="url(#clip-path)"><path d="M71.74,304.31a.73.73,0,0,0,.4.65.72.72,0,0,0,1-.33,20.62,20.62,0,0,0,0-18.09.72.72,0,0,0-1.29.63,19.13,19.13,0,0,1,0,16.83A.7.7,0,0,0,71.74,304.31Z" fill="none" stroke="#003a50" stroke-miterlimit="10"/><path d="M75.72,304.31a.72.72,0,0,0,1.37.32,20.62,20.62,0,0,0,0-18.09.72.72,0,0,0-1-.33.71.71,0,0,0-.33,1,19.22,19.22,0,0,1,0,16.83A.71.71,0,0,0,75.72,304.31Z" fill="none" stroke="#003a50" stroke-miterlimit="10"/><path d="M79.71,304.31a.73.73,0,0,0,.4.65.72.72,0,0,0,1-.33,20.53,20.53,0,0,0,0-18.09.72.72,0,0,0-1-.33.71.71,0,0,0-.32,1,19.22,19.22,0,0,1,0,16.83A.6.6,0,0,0,79.71,304.31Z" fill="none" stroke="#003a50" stroke-miterlimit="10"/><path d="M83.7,304.31a.73.73,0,0,0,.4.65.72.72,0,0,0,1-.33,20.62,20.62,0,0,0,0-18.09.72.72,0,0,0-1.29.63,19.13,19.13,0,0,1,0,16.83A.7.7,0,0,0,83.7,304.31Z" fill="none" stroke="#003a50" stroke-miterlimit="10"/><path d="M87.68,304.31a.72.72,0,0,0,1.37.32,20.62,20.62,0,0,0,0-18.09.72.72,0,0,0-1-.33.71.71,0,0,0-.33,1,19.22,19.22,0,0,1,0,16.83A.71.71,0,0,0,87.68,304.31Z" fill="none" stroke="#003a50" stroke-miterlimit="10"/><path d="M91.67,304.31a.73.73,0,0,0,.4.65.72.72,0,0,0,1-.33,20.53,20.53,0,0,0,0-18.09.72.72,0,0,0-1-.33.71.71,0,0,0-.32,1,19.22,19.22,0,0,1,0,16.83A.6.6,0,0,0,91.67,304.31Z" fill="none" stroke="#003a50" stroke-miterlimit="10"/><path d="M67.75,304.31a.72.72,0,0,0,1.37.32,20.62,20.62,0,0,0,0-18.09.72.72,0,0,0-1-.33.71.71,0,0,0-.33,1,19.22,19.22,0,0,1,0,16.83A.71.71,0,0,0,67.75,304.31Z" fill="none" stroke="#003a50" stroke-miterlimit="10"/><path d="M63.77,304.31a.72.72,0,0,0,1.36.32,20.62,20.62,0,0,0,0-18.09.72.72,0,0,0-1.29.63,19.13,19.13,0,0,1,0,16.83A.7.7,0,0,0,63.77,304.31Z" fill="none" stroke="#003a50" stroke-miterlimit="10"/></g><line x1="12.42" y1="295.58" x2="102.01" y2="295.58" fill="none" stroke="#003a50" stroke-miterlimit="10"/><g clip-path="url(#clip-path)"><rect x="79.08" y="561.24" width="65.11" height="26.99" fill="none" stroke="#003a50" stroke-miterlimit="10"/></g><rect x="144.92" y="521.5" width="27.07" height="27.53" fill="none" stroke="#003a50" stroke-miterlimit="10"/><g clip-path="url(#clip-path)"><path d="M149.69,544.68a.73.73,0,0,0,.4.65.72.72,0,0,0,1-.33,20.53,20.53,0,0,0,0-18.09.72.72,0,0,0-1-.33.71.71,0,0,0-.32,1,19.22,19.22,0,0,1,0,16.83A.6.6,0,0,0,149.69,544.68Z" fill="none" stroke="#003a50" stroke-miterlimit="10"/><path d="M153.68,544.68A.72.72,0,0,0,155,545a20.62,20.62,0,0,0,0-18.09.72.72,0,0,0-1.29.63,19.13,19.13,0,0,1,0,16.83A.7.7,0,0,0,153.68,544.68Z" fill="none" stroke="#003a50" stroke-miterlimit="10"/><path d="M157.66,544.68A.72.72,0,0,0,159,545a20.62,20.62,0,0,0,0-18.09.72.72,0,0,0-1-.33.71.71,0,0,0-.33,1,19.22,19.22,0,0,1,0,16.83A.71.71,0,0,0,157.66,544.68Z" fill="none" stroke="#003a50" stroke-miterlimit="10"/><path d="M161.65,544.68a.73.73,0,0,0,.4.65.72.72,0,0,0,1-.33,20.62,20.62,0,0,0,0-18.09.72.72,0,0,0-1.29.63,19.13,19.13,0,0,1,0,16.83A.7.7,0,0,0,161.65,544.68Z" fill="none" stroke="#003a50" stroke-miterlimit="10"/></g><line x1="145.67" y1="535.95" x2="171.99" y2="535.95" fill="none" stroke="#003a50" stroke-miterlimit="10"/><g clip-path="url(#clip-path)"><rect x="-81.42" y="196.96" width="81.75" height="24.36" fill="none" stroke="#003a50" stroke-miterlimit="10"/><line x1="-81.42" y1="209.9" x2="0.33" y2="209.9" fill="none" stroke="#003a50" stroke-miterlimit="10"/><path d="M85.12,453.69H61.91V472H85.12a9.17,9.17,0,1,0,0-18.34Z" fill="none" stroke="#003a50" stroke-miterlimit="10"/></g><line x1="70.94" y1="472.03" x2="70.94" y2="453.69" fill="none" stroke="#003a50" stroke-miterlimit="10"/><rect x="81.71" y="491.7" width="61.52" height="35" fill="none" stroke="#003a50" stroke-miterlimit="10"/><g clip-path="url(#clip-path)"><path d="M98.24,511.24a2,2,0,1,0-2-2A2,2,0,0,0,98.24,511.24Z" fill="none" stroke="#003a50" stroke-miterlimit="10"/></g><rect x="264.92" y="204.4" width="18.91" height="18.91" fill="none" stroke="#003a50" stroke-miterlimit="10"/><g clip-path="url(#clip-path)"><path d="M279.79,208.43a7.67,7.67,0,1,0,0,10.84A7.67,7.67,0,0,0,279.79,208.43Z" fill="none" stroke="#003a50" stroke-miterlimit="10"/><path d="M280.31,209c-1.41.14-2.84-.41-4.22,1-2,2,.12,4.19-1.91,6.22s-4.19-.12-6.22,1.91" fill="none" stroke="#003a50" stroke-miterlimit="10"/></g><rect x="379.39" y="204.4" width="18.91" height="18.91" fill="none" stroke="#003a50" stroke-miterlimit="10"/><g clip-path="url(#clip-path)"><path d="M394.27,208.43a7.67,7.67,0,1,0,0,10.84A7.67,7.67,0,0,0,394.27,208.43Z" fill="none" stroke="#003a50" stroke-miterlimit="10"/><path d="M394.79,209c-1.41.14-2.84-.41-4.22,1-2,2,.12,4.19-1.92,6.22s-4.18-.12-6.22,1.91" fill="none" stroke="#003a50" stroke-miterlimit="10"/></g><rect x="289.1" y="128.76" width="85.08" height="94.54" fill="none" stroke="#003a50" stroke-miterlimit="10"/><g clip-path="url(#clip-path)"><path d="M365.85,136.88H297.44a1.74,1.74,0,0,0-1.74,1.74V195h71.88v-56.4A1.73,1.73,0,0,0,365.85,136.88Z" fill="none" stroke="#003a50" stroke-miterlimit="10"/><path d="M329.27,198H297.14a1.65,1.65,0,0,0-1.65,1.65v15.78a1.65,1.65,0,0,0,1.65,1.65h32.13a1.65,1.65,0,0,0,1.65-1.65V199.68A1.65,1.65,0,0,0,329.27,198Z" fill="none" stroke="#003a50" stroke-miterlimit="10"/><rect x="332.36" y="198.03" width="35.44" height="19.08" rx="1.65" fill="none" stroke="#003a50" stroke-miterlimit="10"/></g><line x1="367.8" y1="183.47" x2="295.49" y2="183.47" fill="none" stroke="#003a50" stroke-miterlimit="10"/><rect x="290.74" y="95" width="81.75" height="13.62" fill="none" stroke="#003a50" stroke-miterlimit="10"/><polygon points="366.06 102.25 331.69 99.42 297.17 102.25 297.17 104.22 366.06 104.22 366.06 102.25" fill="none" stroke="#003a50" stroke-miterlimit="10"/><rect x="252.22" y="42.81" width="76.45" height="27.05" fill="none" stroke="#003a50" stroke-miterlimit="10"/><g clip-path="url(#clip-path)"><path d="M265.83,46.64a.78.78,0,0,1,.44-.71.8.8,0,0,1,1.08.36,22.91,22.91,0,0,1,0,20.09.81.81,0,0,1-1.07.36.8.8,0,0,1-.37-1.07,21.27,21.27,0,0,0,0-18.68A.72.72,0,0,1,265.83,46.64Z" fill="none" stroke="#003a50" stroke-miterlimit="10"/><path d="M270.25,46.64a.8.8,0,0,1,1.52-.35,22.91,22.91,0,0,1,0,20.09.81.81,0,0,1-1.07.36.8.8,0,0,1-.36-1.07,21.27,21.27,0,0,0,0-18.68A.73.73,0,0,1,270.25,46.64Z" fill="none" stroke="#003a50" stroke-miterlimit="10"/><path d="M274.68,46.64a.78.78,0,0,1,.44-.71.8.8,0,0,1,1.08.36,22.91,22.91,0,0,1,0,20.09.81.81,0,0,1-1.07.36.8.8,0,0,1-.37-1.07,21.27,21.27,0,0,0,0-18.68A.72.72,0,0,1,274.68,46.64Z" fill="none" stroke="#003a50" stroke-miterlimit="10"/><path d="M279.11,46.64a.8.8,0,0,1,1.51-.35,22.91,22.91,0,0,1,0,20.09.8.8,0,0,1-1.07.36.8.8,0,0,1-.36-1.07,21.27,21.27,0,0,0,0-18.68A.72.72,0,0,1,279.11,46.64Z" fill="none" stroke="#003a50" stroke-miterlimit="10"/><path d="M283.53,46.64a.8.8,0,0,1,1.52-.35,22.91,22.91,0,0,1,0,20.09.81.81,0,0,1-1.07.36.79.79,0,0,1-.36-1.07,21.27,21.27,0,0,0,0-18.68A.73.73,0,0,1,283.53,46.64Z" fill="none" stroke="#003a50" stroke-miterlimit="10"/><path d="M288,46.64a.8.8,0,0,1,1.51-.35,22.91,22.91,0,0,1,0,20.09.8.8,0,0,1-1.07.36.8.8,0,0,1-.36-1.07A21.27,21.27,0,0,0,288,47,.72.72,0,0,1,288,46.64Z" fill="none" stroke="#003a50" stroke-miterlimit="10"/><path d="M261.4,46.64a.8.8,0,0,1,1.52-.35,22.91,22.91,0,0,1,0,20.09.81.81,0,0,1-1.07.36.8.8,0,0,1-.36-1.07,21.27,21.27,0,0,0,0-18.68A.73.73,0,0,1,261.4,46.64Z" fill="none" stroke="#003a50" stroke-miterlimit="10"/><path d="M257,46.64a.8.8,0,0,1,1.51-.35,22.91,22.91,0,0,1,0,20.09.8.8,0,0,1-1.43-.71,21.27,21.27,0,0,0,0-18.68A.72.72,0,0,1,257,46.64Z" fill="none" stroke="#003a50" stroke-miterlimit="10"/></g><line x1="252.22" y1="56.33" x2="328.67" y2="56.33" fill="none" stroke="#003a50" stroke-miterlimit="10"/><g clip-path="url(#clip-path)"><rect x="391.05" y="447.13" width="18.91" height="18.91" fill="none" stroke="#003a50" stroke-miterlimit="10"/><path d="M395.08,462a7.67,7.67,0,1,0,0-10.84A7.65,7.65,0,0,0,395.08,462Z" fill="none" stroke="#003a50" stroke-miterlimit="10"/><path d="M394.56,461.43c1.41-.14,2.84.4,4.22-1,2-2-.12-4.18,1.91-6.21s4.19.11,6.22-1.92" fill="none" stroke="#003a50" stroke-miterlimit="10"/><rect x="276.57" y="447.13" width="18.91" height="18.91" fill="none" stroke="#003a50" stroke-miterlimit="10"/><path d="M280.6,462a7.67,7.67,0,1,0,0-10.84A7.65,7.65,0,0,0,280.6,462Z" fill="none" stroke="#003a50" stroke-miterlimit="10"/><path d="M280.08,461.43c1.41-.14,2.84.4,4.22-1,2-2-.12-4.18,1.92-6.21s4.18.11,6.22-1.92" fill="none" stroke="#003a50" stroke-miterlimit="10"/><rect x="300.68" y="447.13" width="85.08" height="94.54" fill="none" stroke="#003a50" stroke-miterlimit="10"/><path d="M309,533.55h68.41a1.74,1.74,0,0,0,1.74-1.74v-56.4H307.28v56.4A1.74,1.74,0,0,0,309,533.55Z" fill="none" stroke="#003a50" stroke-miterlimit="10"/><path d="M345.6,472.4h32.13a1.65,1.65,0,0,0,1.65-1.65V455a1.65,1.65,0,0,0-1.65-1.65H345.6A1.65,1.65,0,0,0,344,455v15.78A1.65,1.65,0,0,0,345.6,472.4Z" fill="none" stroke="#003a50" stroke-miterlimit="10"/><path d="M308.72,472.4h32.13a1.65,1.65,0,0,0,1.65-1.65V455a1.65,1.65,0,0,0-1.65-1.65H308.72a1.65,1.65,0,0,0-1.65,1.65v15.78A1.65,1.65,0,0,0,308.72,472.4Z" fill="none" stroke="#003a50" stroke-miterlimit="10"/><path d="M185.15,528.54a3.4,3.4,0,0,0,3.13-2.1h1.93l5.09,3L193,533.25l-2.66-1.46v11.83H179.24V531.79l-2.66,1.46-2.31-3.77,5.14-3H182A3.45,3.45,0,0,0,185.15,528.54Z" fill="none" stroke="#003a50" stroke-miterlimit="10"/></g><rect x="171.99" y="521.5" width="25.59" height="27.05" fill="none" stroke="#003a50" stroke-miterlimit="10"/><g clip-path="url(#clip-path)"><rect x="144.28" y="561.55" width="28.13" height="26.68" fill="none" stroke="#003a50" stroke-miterlimit="10"/><path d="M338.06,316.59v31h34.56V314.92H339.74A1.67,1.67,0,0,0,338.06,316.59Z" fill="none" stroke="#003a50" stroke-miterlimit="10"/><path d="M303.43,316.42v31.15H338V316.42a1.5,1.5,0,0,0-1.5-1.5H304.93A1.5,1.5,0,0,0,303.43,316.42Z" fill="none" stroke="#003a50" stroke-miterlimit="10"/><path d="M372.62,314.92a2.35,2.35,0,0,1,2.51-2.14h3.19a2.35,2.35,0,0,1,2.51,2.14v36.39H295.22V315.24a2.35,2.35,0,0,1,2.51-2.14h3.19a2.35,2.35,0,0,1,2.51,2.14v32.33h69.19Z" fill="none" stroke="#003a50" stroke-miterlimit="10"/></g><rect x="303.43" y="340.59" width="69.19" height="6.98" fill="none" stroke="#003a50" stroke-miterlimit="10"/><rect x="247.35" y="408.6" width="26.65" height="26.69" fill="none" stroke="#003a50" stroke-miterlimit="10"/><g clip-path="url(#clip-path)"><path d="M264.07,421.33v-8.67h-6.75v8.67a2.78,2.78,0,0,0,2.77,2.78h1.2A2.79,2.79,0,0,0,264.07,421.33Z" fill="none" stroke="#003a50" stroke-miterlimit="10"/></g><polyline points="257.97 432.39 260.69 432.39 263.42 432.39" fill="none" stroke="#003a50" stroke-miterlimit="10"/><line x1="260.69" y1="424.11" x2="260.69" y2="432.39" fill="none" stroke="#003a50" stroke-miterlimit="10"/><rect x="343.47" y="408.58" width="26.12" height="26.12" fill="none" stroke="#003a50" stroke-miterlimit="10"/><g clip-path="url(#clip-path)"><circle cx="362.49" cy="427.48" r="3.56" fill="none" stroke="#003a50" stroke-miterlimit="10"/><circle cx="350.6" cy="427.48" r="3.56" fill="none" stroke="#003a50" stroke-miterlimit="10"/><circle cx="362.49" cy="415.89" r="3.56" fill="none" stroke="#003a50" stroke-miterlimit="10"/><circle cx="350.6" cy="415.89" r="3.56" fill="none" stroke="#003a50" stroke-miterlimit="10"/></g><polyline points="309.15 431.4 304.48 431.4 299.81 431.4" fill="none" stroke="#003a50" stroke-miterlimit="10"/><line x1="304.47" y1="422.04" x2="304.47" y2="431.4" fill="none" stroke="#003a50" stroke-miterlimit="10"/><g clip-path="url(#clip-path)"><rect x="294.16" y="412.5" width="20.66" height="14.9" rx="3.24" fill="none" stroke="#003a50" stroke-miterlimit="10"/><path d="M304.47,420.87a1.67,1.67,0,1,1-1.67,1.67A1.66,1.66,0,0,1,304.47,420.87Z" fill="none" stroke="#003a50" stroke-miterlimit="10"/></g><rect x="220.61" y="408.58" width="26.74" height="26.74" fill="none" stroke="#003a50" stroke-miterlimit="10"/><line x1="241.83" y1="421.95" x2="226.13" y2="421.95" fill="none" stroke="#003a50" stroke-miterlimit="10"/><line x1="233.98" y1="414.1" x2="233.98" y2="429.8" fill="none" stroke="#003a50" stroke-miterlimit="10"/><line x1="239.53" y1="416.4" x2="228.44" y2="427.49" fill="none" stroke="#003a50" stroke-miterlimit="10"/><line x1="228.43" y1="416.4" x2="239.53" y2="427.49" fill="none" stroke="#003a50" stroke-miterlimit="10"/><rect x="220.61" y="408.58" width="198.3" height="29.62" fill="none" stroke="#003a50" stroke-miterlimit="10"/><g clip-path="url(#clip-path)"><rect x="198.92" y="561.14" width="30.83" height="27.09" fill="none" stroke="#003a50" stroke-miterlimit="10"/><rect x="172.41" y="561.72" width="26.51" height="26.51" fill="none" stroke="#003a50" stroke-miterlimit="10"/><path d="M64.56,45.75h0a1,1,0,0,0-1-1H10.86a1,1,0,1,0,0,1.93H63.59A1,1,0,0,0,64.56,45.75Z" fill="none" stroke="#003a50" stroke-miterlimit="10"/><path d="M28.75,66.73a10.23,10.23,0,0,0,16.19,11,.79.79,0,0,0-1-1.24,8.63,8.63,0,0,1-13.5-9.8Z" fill="none" stroke="#003a50" stroke-miterlimit="10"/><rect x="8.12" y="43.17" width="58.2" height="23.56" rx="2.29" fill="none" stroke="#003a50" stroke-miterlimit="10"/><path d="M56.86,55.84a3.81,3.81,0,1,1,5.39,0A3.79,3.79,0,0,1,56.86,55.84Z" fill="none" stroke="#003a50" stroke-miterlimit="10"/><path d="M57.14,56.1c.07-.7-.2-1.42.49-2.1,1-1,2.08.06,3.09-1s-.06-2.08,1-3.09" fill="none" stroke="#003a50" stroke-miterlimit="10"/><path d="M32,66.73a7.36,7.36,0,1,0,13.57,0Z" fill="none" stroke="#003a50" stroke-miterlimit="10"/></g><rect x="57.21" y="332.54" width="52.15" height="24.36" fill="none" stroke="#003a50" stroke-miterlimit="10"/><g clip-path="url(#clip-path)"><path d="M79.09,354.21a.72.72,0,0,0,1.36.32,20.55,20.55,0,0,0,0-18.1.72.72,0,0,0-1-.33.71.71,0,0,0-.32,1,19.22,19.22,0,0,1,0,16.83A.61.61,0,0,0,79.09,354.21Z" fill="none" stroke="#003a50" stroke-miterlimit="10"/><path d="M83.08,354.21a.7.7,0,0,0,.4.64.71.71,0,0,0,1-.32,20.64,20.64,0,0,0,0-18.1.72.72,0,0,0-1.29.63,19.13,19.13,0,0,1,0,16.83A.71.71,0,0,0,83.08,354.21Z" fill="none" stroke="#003a50" stroke-miterlimit="10"/><path d="M87.06,354.21a.72.72,0,0,0,.4.64.73.73,0,0,0,1-.32,20.64,20.64,0,0,0,0-18.1.72.72,0,0,0-1-.33.71.71,0,0,0-.33,1,19.22,19.22,0,0,1,0,16.83A.72.72,0,0,0,87.06,354.21Z" fill="none" stroke="#003a50" stroke-miterlimit="10"/><path d="M91.05,354.21a.72.72,0,0,0,1.36.32,20.55,20.55,0,0,0,0-18.1.72.72,0,0,0-1-.33.71.71,0,0,0-.32,1,19.22,19.22,0,0,1,0,16.83A.61.61,0,0,0,91.05,354.21Z" fill="none" stroke="#003a50" stroke-miterlimit="10"/><path d="M95,354.21a.7.7,0,0,0,.4.64.71.71,0,0,0,1-.32,20.64,20.64,0,0,0,0-18.1.72.72,0,1,0-1.29.63,19.13,19.13,0,0,1,0,16.83A.71.71,0,0,0,95,354.21Z" fill="none" stroke="#003a50" stroke-miterlimit="10"/><path d="M99,354.21a.72.72,0,0,0,.4.64.73.73,0,0,0,1-.32,20.64,20.64,0,0,0,0-18.1.72.72,0,0,0-1-.33.71.71,0,0,0-.33,1,19.22,19.22,0,0,1,0,16.83A.72.72,0,0,0,99,354.21Z" fill="none" stroke="#003a50" stroke-miterlimit="10"/><path d="M75.1,354.21a.72.72,0,0,0,.4.64.73.73,0,0,0,1-.32,20.64,20.64,0,0,0,0-18.1.72.72,0,0,0-1-.33.71.71,0,0,0-.33,1,19.22,19.22,0,0,1,0,16.83A.72.72,0,0,0,75.1,354.21Z" fill="none" stroke="#003a50" stroke-miterlimit="10"/><path d="M71.12,354.21a.72.72,0,0,0,1.36.32,20.64,20.64,0,0,0,0-18.1.72.72,0,1,0-1.29.63,19.13,19.13,0,0,1,0,16.83A.71.71,0,0,0,71.12,354.21Z" fill="none" stroke="#003a50" stroke-miterlimit="10"/></g><line x1="57.21" y1="345.48" x2="109.36" y2="345.48" fill="none" stroke="#003a50" stroke-miterlimit="10"/><rect x="109.57" y="331.94" width="27.53" height="38.04" fill="none" stroke="#003a50" stroke-miterlimit="10"/><g clip-path="url(#clip-path)"><path d="M113.92,341.35a.71.71,0,0,0-.64.4.73.73,0,0,0,.32,1,20.64,20.64,0,0,0,18.1,0,.72.72,0,0,0,.32-1,.71.71,0,0,0-1-.33,19.2,19.2,0,0,1-16.82,0A.72.72,0,0,0,113.92,341.35Z" fill="none" stroke="#003a50" stroke-miterlimit="10"/><path d="M113.92,345.34a.72.72,0,0,0-.32,1.36,20.55,20.55,0,0,0,18.1,0,.71.71,0,0,0,.32-1,.7.7,0,0,0-1-.32,19.2,19.2,0,0,1-16.82,0A.61.61,0,0,0,113.92,345.34Z" fill="none" stroke="#003a50" stroke-miterlimit="10"/><path d="M113.92,349.33a.69.69,0,0,0-.64.4.71.71,0,0,0,.32,1,20.64,20.64,0,0,0,18.1,0,.72.72,0,0,0-.64-1.29,19.11,19.11,0,0,1-16.82,0A.71.71,0,0,0,113.92,349.33Z" fill="none" stroke="#003a50" stroke-miterlimit="10"/><path d="M113.92,353.31a.71.71,0,0,0-.64.4.73.73,0,0,0,.32,1,20.64,20.64,0,0,0,18.1,0,.72.72,0,0,0,.32-1,.71.71,0,0,0-1-.33,19.2,19.2,0,0,1-16.82,0A.72.72,0,0,0,113.92,353.31Z" fill="none" stroke="#003a50" stroke-miterlimit="10"/><path d="M113.92,357.3a.72.72,0,0,0-.32,1.36,20.55,20.55,0,0,0,18.1,0,.71.71,0,0,0,.32-1,.7.7,0,0,0-1-.32,19.2,19.2,0,0,1-16.82,0A.61.61,0,0,0,113.92,357.3Z" fill="none" stroke="#003a50" stroke-miterlimit="10"/><path d="M113.92,361.29a.69.69,0,0,0-.64.4.71.71,0,0,0,.32,1,20.64,20.64,0,0,0,18.1,0,.72.72,0,0,0-.64-1.29,19.11,19.11,0,0,1-16.82,0A.71.71,0,0,0,113.92,361.29Z" fill="none" stroke="#003a50" stroke-miterlimit="10"/></g><line x1="122.65" y1="332.69" x2="122.65" y2="369.98" fill="none" stroke="#003a50" stroke-miterlimit="10"/><g clip-path="url(#clip-path)"><path d="M111.13,223.3v-2.69c0-18.68,16.35-33.83,36.52-33.83V223.3" fill="none" stroke="#003a50" stroke-miterlimit="10" stroke-width="1.6"/><path d="M219.86,223.3v-2.69c0-18.68-16.35-33.83-36.52-33.83V223.3" fill="none" stroke="#003a50" stroke-miterlimit="10" stroke-width="1.6"/><path d="M219.86,135.77v2.3c0,16-14,28.89-31.2,28.89V135.77" fill="none" stroke="#003a50" stroke-miterlimit="10" stroke-width="1.6"/><path d="M117.71,435.5v-2.29c0-16-14-28.9-31.19-28.9V435.5" fill="none" stroke="#003a50" stroke-miterlimit="10" stroke-width="1.6"/><path d="M299.92,586v-2.69c0-18.68-16.34-33.81-36.5-33.81V586" fill="none" stroke="#003a50" stroke-miterlimit="10" stroke-width="1.6"/><path d="M50.05,421.2H47c-21.41,0-38.76-18.73-38.76-41.84H50.05" fill="none" stroke="#003a50" stroke-miterlimit="10" stroke-width="1.6"/></g><line x1="196.41" y1="429.64" x2="161.69" y2="429.64" fill="none" stroke="#003a50" stroke-miterlimit="10" stroke-width="1.6"/><line x1="84.31" y1="216.86" x2="49.58" y2="216.86" fill="none" stroke="#003a50" stroke-miterlimit="10" stroke-width="1.6"/><rect x="71.67" y="308.33" width="5.75" height="22.95" fill="#003a50"/><rect x="136.16" y="327.08" width="5.75" height="43.45" fill="#003a50"/><rect x="101.5" y="223.3" width="5.75" height="107.97" fill="#003a50"/><rect x="150.91" y="32.11" width="5.75" height="192.5" fill="#003a50"/><rect y="220.86" width="45" height="5.75" fill="#003a50"/><rect x="74.67" y="220.86" width="37.27" height="5.75" fill="#003a50"/><rect x="146.76" y="220.86" width="37.36" height="5.75" fill="#003a50"/><rect x="153.35" y="132.69" width="36.21" height="5.75" fill="#003a50"/><rect x="219.03" y="132.69" width="33.7" height="5.75" fill="#003a50"/><rect x="153.35" y="114.03" width="19.55" height="5.75" fill="#003a50"/><rect x="167.14" y="114.03" width="5.75" height="19.55" fill="#003a50"/><rect x="246.98" y="37.28" width="5.75" height="101.17" fill="#003a50"/><rect x="53.92" y="327.08" width="88" height="5.75" fill="#003a50"/><rect x="59.42" y="433.94" width="27.86" height="5.75" fill="#003a50"/><rect x="59.42" y="484.78" width="23.33" height="5.75" fill="#003a50"/><rect x="80.58" y="526.06" width="62.65" height="5.75" fill="#003a50"/><rect x="47.66" y="501.84" width="5.75" height="51.35" fill="#003a50"/><rect x="77" y="484.78" width="5.75" height="23.33" fill="#003a50"/><rect x="75.23" y="557.25" width="5.75" height="4.51" fill="#003a50"/><rect x="200.5" y="452.19" width="23.33" height="5.75" fill="#003a50"/><rect x="200.5" y="434.61" width="5.75" height="23.33" fill="#003a50"/><rect x="228.17" y="556.04" width="5.69" height="5.72" fill="#003a50"/><rect x="141.33" y="436.93" width="5.75" height="114.84" fill="#003a50"/><rect x="116.83" y="433.94" width="38.21" height="5.75" fill="#003a50"/><rect x="184.92" y="433.94" width="38.21" height="5.75" fill="#003a50"/><rect y="306.49" width="103.42" height="5.75" fill="#003a50"/><rect x="431.18" y="1.61" width="23" height="23" fill="#003a50"/><g clip-path="url(#clip-path)"><rect x="431.18" y="1.61" width="23" height="23" fill="none" stroke="#003a50" stroke-miterlimit="10" stroke-width="2.09"/></g><rect x="413.67" y="125.94" width="40.51" height="13.42" fill="#003a50"/><g clip-path="url(#clip-path)"><rect x="413.67" y="125.94" width="40.51" height="13.42" fill="none" stroke="#003a50" stroke-miterlimit="10" stroke-width="2.09"/></g><rect x="413.67" y="212.19" width="40.51" height="13.42" fill="#003a50"/><g clip-path="url(#clip-path)"><rect x="413.67" y="212.19" width="40.51" height="13.42" fill="none" stroke="#003a50" stroke-miterlimit="10" stroke-width="2.09"/></g><rect x="413.67" y="284.94" width="40.51" height="13.42" fill="#003a50"/><g clip-path="url(#clip-path)"><rect x="413.67" y="284.94" width="40.51" height="13.42" fill="none" stroke="#003a50" stroke-miterlimit="10" stroke-width="2.09"/></g><rect x="413.67" y="370.69" width="40.51" height="13.41" fill="#003a50"/><g clip-path="url(#clip-path)"><rect x="413.67" y="370.69" width="40.51" height="13.42" fill="none" stroke="#003a50" stroke-miterlimit="10" stroke-width="2.09"/></g><rect x="413.67" y="443.44" width="31.28" height="4" fill="#003a50"/><g clip-path="url(#clip-path)"><rect x="413.67" y="443.44" width="40.51" height="13.42" fill="none" stroke="#003a50" stroke-miterlimit="10" stroke-width="2.09"/></g><rect x="413.67" y="212.19" width="30.25" height="86.17" fill="#003a50"/><rect x="413.67" y="212.19" width="30.25" height="86.17" fill="none" stroke="#003a50" stroke-miterlimit="10" stroke-width="2.09"/><rect x="413.67" y="370.69" width="30.25" height="76.76" fill="#003a50"/><g clip-path="url(#clip-path)"><rect x="413.67" y="370.69" width="30.25" height="86.17" fill="none" stroke="#003a50" stroke-miterlimit="10" stroke-width="2.09"/></g><rect x="47.67" y="327.08" width="14.75" height="53.02" fill="#003a50"/><rect x="47.67" y="420.37" width="14.75" height="93.74" fill="#003a50"/><rect x="47.67" y="548.28" width="14.75" height="13.48" fill="#003a50"/><polygon points="219.16 433.94 219.16 561.76 233.86 561.76 233.86 447.45 233.91 447.45 233.91 433.94 219.16 433.94" fill="#003a50"/><rect x="52.55" y="548.28" width="181.31" height="13.48" fill="#003a50"/><rect x="52.54" y="504.29" width="30.21" height="9.82" fill="#003a50"/><rect x="72.42" y="510.44" width="10.33" height="42.74" fill="#003a50"/><polygon points="219.17 433.94 219.16 447.86 233.86 447.86 233.86 447.45 427.91 447.45 427.92 433.94 219.17 433.94" fill="#003a50"/><rect x="219.17" y="222.29" width="208.74" height="13.92" fill="#003a50"/><rect y="327.08" width="55.75" height="15.03" fill="#003a50"/><rect y="32.11" width="14.85" height="301.67" fill="#003a50"/><rect x="11.58" y="1.61" width="12.84" height="40.83" fill="#003a50"/><g clip-path="url(#clip-path)"><rect x="11.58" y="1.61" width="12.84" height="40.83" fill="none" stroke="#003a50" stroke-miterlimit="10" stroke-width="2.09"/></g><rect x="96.25" y="1.61" width="12.84" height="40.83" fill="#003a50"/><g clip-path="url(#clip-path)"><rect x="96.25" y="1.61" width="12.84" height="40.83" fill="none" stroke="#003a50" stroke-miterlimit="10" stroke-width="2.09"/></g><rect x="170.41" y="1.61" width="12.84" height="40.83" fill="#003a50"/><g clip-path="url(#clip-path)"><rect x="170.41" y="1.61" width="12.84" height="40.83" fill="none" stroke="#003a50" stroke-miterlimit="10" stroke-width="2.09"/></g><rect x="241.25" y="1.61" width="12.84" height="40.83" fill="#003a50"/><g clip-path="url(#clip-path)"><rect x="241.25" y="1.61" width="12.84" height="40.83" fill="none" stroke="#003a50" stroke-miterlimit="10" stroke-width="2.09"/></g><rect x="315.41" y="1.61" width="12.84" height="40.83" fill="#003a50"/><g clip-path="url(#clip-path)"><rect x="315.41" y="1.61" width="12.84" height="40.83" fill="none" stroke="#003a50" stroke-miterlimit="10" stroke-width="2.09"/></g><rect y="13.36" width="24.42" height="29.08" fill="#003a50"/><g clip-path="url(#clip-path)"><rect x="-62.59" y="13.36" width="87" height="29.08" fill="none" stroke="#003a50" stroke-miterlimit="10" stroke-width="2.09"/></g><rect x="96.25" y="13.36" width="87" height="29.08" fill="#003a50"/><rect x="96.25" y="13.36" width="87" height="29.08" fill="none" stroke="#003a50" stroke-miterlimit="10" stroke-width="2.09"/><rect x="241.25" y="13.36" width="87" height="29.08" fill="#003a50"/><rect x="241.25" y="13.36" width="87" height="29.08" fill="none" stroke="#003a50" stroke-miterlimit="10" stroke-width="2.09"/><g clip-path="url(#clip-path)"><path d="M94.94,476.89H89.12v-1.84H98v1.84l-4.53,2.65v.07h1.28a3.9,3.9,0,0,1,2.79,1,3.5,3.5,0,0,1,1.06,2.67,3.35,3.35,0,0,1-1.33,2.82,7,7,0,0,1-7.24,0,3.36,3.36,0,0,1-1.33-2.86v-.32h2.11v.32c0,1.37.94,2,2.84,2s2.84-.67,2.84-2-1-2-2.84-2H90.36v-1.67L94.94,477Z" fill="#003a50"/><path d="M100.68,486.83a1,1,0,0,1-.33-.81,1,1,0,0,1,.33-.81,1.44,1.44,0,0,1,1.73,0,1,1,0,0,1,.33.81,1,1,0,0,1-.33.81,1.44,1.44,0,0,1-1.73,0Z" fill="#003a50"/><path d="M106.08,485.42a7.37,7.37,0,0,1,0-8.83,5.69,5.69,0,0,1,8.13,0,7.33,7.33,0,0,1,0,8.83,5.71,5.71,0,0,1-8.13,0Zm6.53-1.38a5.75,5.75,0,0,0,0-6.08,3.16,3.16,0,0,0-4.91,0,5.64,5.64,0,0,0,0,6.08,2.86,2.86,0,0,0,2.45,1.18A2.89,2.89,0,0,0,112.61,484Z" fill="#003a50"/><path d="M166.73,476.89h-5.82v-1.84h8.86v1.84l-4.53,2.65v.07h1.28a3.9,3.9,0,0,1,2.79,1,3.5,3.5,0,0,1,1.06,2.67,3.35,3.35,0,0,1-1.33,2.82,7,7,0,0,1-7.24,0,3.36,3.36,0,0,1-1.33-2.86v-.32h2.11v.32c0,1.37.94,2,2.84,2s2.84-.67,2.84-2-.95-2-2.84-2h-3.27v-1.67l4.58-2.68Z" fill="#003a50"/><path d="M172.47,486.83a1,1,0,0,1-.33-.81,1,1,0,0,1,.33-.81,1.27,1.27,0,0,1,.87-.29,1.24,1.24,0,0,1,.86.29,1,1,0,0,1,.33.81,1,1,0,0,1-.33.81,1.2,1.2,0,0,1-.86.29A1.22,1.22,0,0,1,172.47,486.83Z" fill="#003a50"/><path d="M179.58,487h-2.35l5.41-10h-6.92v-1.88H185v1.88Z" fill="#003a50"/><path d="M89.72,377.12H83.9v-1.84h8.86v1.84l-4.53,2.65v.07h1.28a3.9,3.9,0,0,1,2.79,1,3.53,3.53,0,0,1,1.06,2.67A3.35,3.35,0,0,1,92,386.34a7,7,0,0,1-7.25,0,3.37,3.37,0,0,1-1.32-2.85v-.33h2.11v.33c0,1.36.94,2,2.84,2s2.84-.67,2.84-2-1-2-2.84-2H85.14v-1.67l4.58-2.68Z" fill="#003a50"/><path d="M95.46,387.06a1.15,1.15,0,0,1,0-1.61,1.4,1.4,0,0,1,1.73,0,1.15,1.15,0,0,1,0,1.61,1.4,1.4,0,0,1-1.73,0Z" fill="#003a50"/><path d="M99.59,383.84h2.21s0,.07,0,.18a2.71,2.71,0,0,0,.23.43,2.14,2.14,0,0,0,.41.49,2.31,2.31,0,0,0,.75.42,3.21,3.21,0,0,0,1,.16,2.68,2.68,0,0,0,2.25-1.06,4.4,4.4,0,0,0,.8-2.71h-.06a2.24,2.24,0,0,1-.44.47,2.52,2.52,0,0,1-.59.39,3.8,3.8,0,0,1-1,.33,5.43,5.43,0,0,1-1.22.13,4.92,4.92,0,0,1-3.36-1.13,3.71,3.71,0,0,1,0-5.72,5.49,5.49,0,0,1,3.6-1.1,4.81,4.81,0,0,1,3.87,1.54,6.4,6.4,0,0,1,1.32,4.27v.41a6.72,6.72,0,0,1-1.37,4.31,4.69,4.69,0,0,1-3.89,1.71,5.9,5.9,0,0,1-2.16-.38,3.85,3.85,0,0,1-1.48-.94A3.33,3.33,0,0,1,99.59,383.84Zm2.78-3.16a3.19,3.19,0,0,0,2,.59,3.23,3.23,0,0,0,2-.59,1.86,1.86,0,0,0,.78-1.57,1.89,1.89,0,0,0-.77-1.58,3.22,3.22,0,0,0-2-.58,3.16,3.16,0,0,0-2,.58,1.88,1.88,0,0,0-.78,1.58A1.85,1.85,0,0,0,102.37,380.68Z" fill="#003a50"/><path d="M51.45,258H45.63v-1.84h8.86V258L50,260.65v.07h1.28a3.86,3.86,0,0,1,2.79,1,3.5,3.5,0,0,1,1.06,2.67,3.35,3.35,0,0,1-1.33,2.82,5.89,5.89,0,0,1-3.62,1,5.85,5.85,0,0,1-3.62-1,3.36,3.36,0,0,1-1.33-2.86V264H47.3v.32c0,1.36.94,2,2.84,2s2.84-.67,2.84-2-.95-2-2.84-2H46.87v-1.67l4.58-2.68Z" fill="#003a50"/><path d="M57.19,267.93a1,1,0,0,1-.33-.8,1,1,0,0,1,.33-.81,1.4,1.4,0,0,1,1.73,0,1,1,0,0,1,.33.81,1,1,0,0,1-.33.8,1.4,1.4,0,0,1-1.73,0Z" fill="#003a50"/><path d="M66.47,260.09a5,5,0,0,1,3.34,1.06,4.16,4.16,0,0,1,0,6,5.39,5.39,0,0,1-3.55,1.08,5.79,5.79,0,0,1-3.56-1,3.16,3.16,0,0,1-1.29-2.68h2.11a1.53,1.53,0,0,0,.71,1.33,3.48,3.48,0,0,0,2,.49,3.07,3.07,0,0,0,2-.58,2.33,2.33,0,0,0,0-3.38,3.25,3.25,0,0,0-2.07-.59,3.6,3.6,0,0,0-1.92.42,1.93,1.93,0,0,0-.7.64l-.05.12H61.37v-6.87h8.88V258H63.48v3h.05a2.22,2.22,0,0,1,.4-.31,4.24,4.24,0,0,1,2.54-.56Z" fill="#003a50"/><path d="M343.1,293.39h-9.93v-1.56a2.74,2.74,0,0,1,.58-1.74,4,4,0,0,1,1.44-1.2c.5-.25,1.13-.54,1.87-.86l1.88-.78a4.07,4.07,0,0,0,1.44-.91A1.77,1.77,0,0,0,341,285q0-1.89-2.67-1.89t-2.67,2.16v.41h-2.11v-.41a3.62,3.62,0,0,1,1.26-3,5.38,5.38,0,0,1,3.51-1,5.66,5.66,0,0,1,3.52,1,3.3,3.3,0,0,1,1.27,2.75,3.14,3.14,0,0,1-.56,1.83,4.29,4.29,0,0,1-1.4,1.31c-.6.34-1.21.65-1.84.93s-1.23.52-1.82.74a5.18,5.18,0,0,0-1.41.75,1.23,1.23,0,0,0-.56,1h7.62Z" fill="#003a50"/><path d="M353.87,292.63a6.43,6.43,0,0,1-3.68.93,6.5,6.5,0,0,1-3.69-.94,3,3,0,0,1-1.37-2.56,2.7,2.7,0,0,1,.26-1.16,2.32,2.32,0,0,1,.66-.86,4,4,0,0,1,1.39-.77l.26-.07v-.09a2.91,2.91,0,0,1-.76-.29,2.68,2.68,0,0,1-.67-.44,2.2,2.2,0,0,1-.54-.75,2.41,2.41,0,0,1-.22-1,2.83,2.83,0,0,1,1.25-2.39,7,7,0,0,1,6.85,0,2.84,2.84,0,0,1,1.25,2.39,2.43,2.43,0,0,1-.22,1,2,2,0,0,1-.55.74,3.54,3.54,0,0,1-1.2.68l-.22.05v.09l.28.07a5.42,5.42,0,0,1,.62.27,3.79,3.79,0,0,1,.77.5,2.72,2.72,0,0,1,.62.83,2.63,2.63,0,0,1,.27,1.19A3,3,0,0,1,353.87,292.63Zm-5.79-1.36a3.83,3.83,0,0,0,2.1.49,3.9,3.9,0,0,0,2.11-.48,1.6,1.6,0,0,0,0-2.69,4.95,4.95,0,0,0-4.21,0,1.58,1.58,0,0,0,0,2.68Zm-.36-6.52a1.37,1.37,0,0,0,.64,1.2,4.09,4.09,0,0,0,3.65,0,1.43,1.43,0,0,0,0-2.4,4,4,0,0,0-3.62,0A1.39,1.39,0,0,0,347.72,284.75Z" fill="#003a50"/><path d="M357.34,293.26a1,1,0,0,1-.32-.81,1.06,1.06,0,0,1,.32-.8,1.41,1.41,0,0,1,1.74,0,1.06,1.06,0,0,1,.32.8,1,1,0,0,1-.32.81,1.41,1.41,0,0,1-1.74,0Z" fill="#003a50"/><path d="M369.67,293.39h-2.1v-2.65h-7V288.9l6.29-7.42h2.79v7.42h1.6v1.84h-1.6Zm-2.1-4.49v-5.32h-.07L363,288.85v0Z" fill="#003a50"/><path d="M337.18,551.56l-2.48,2v-2.24l2.73-2.27h1.86v11.91h-2.11Z" fill="#003a50"/><path d="M351.68,560.91h-9.93v-1.56a2.79,2.79,0,0,1,.58-1.75,4.11,4.11,0,0,1,1.45-1.19c.49-.26,1.12-.54,1.86-.87l1.88-.77a4.21,4.21,0,0,0,1.45-.91,1.8,1.8,0,0,0,.57-1.3q0-1.89-2.67-1.89t-2.67,2.16v.41h-2.11v-.41a3.6,3.6,0,0,1,1.26-3,5.39,5.39,0,0,1,3.52-1,5.65,5.65,0,0,1,3.51,1,3.27,3.27,0,0,1,1.27,2.75,3.17,3.17,0,0,1-.56,1.83,4.16,4.16,0,0,1-1.4,1.3,16.7,16.7,0,0,1-1.84.93c-.62.28-1.23.53-1.82.75a5.18,5.18,0,0,0-1.41.75,1.23,1.23,0,0,0-.56,1h7.62Z" fill="#003a50"/><path d="M353.78,560.78a1.17,1.17,0,0,1,0-1.61,1.25,1.25,0,0,1,.88-.3,1.23,1.23,0,0,1,.86.3,1.17,1.17,0,0,1,0,1.61,1.23,1.23,0,0,1-.86.3A1.25,1.25,0,0,1,353.78,560.78Z" fill="#003a50"/><path d="M359.19,559.37a7.33,7.33,0,0,1,0-8.83,5.69,5.69,0,0,1,8.13,0,7.33,7.33,0,0,1,0,8.83,5.69,5.69,0,0,1-8.13,0Zm6.53-1.38a5.73,5.73,0,0,0,0-6.07,3.15,3.15,0,0,0-4.92,0,5.67,5.67,0,0,0,0,6.07,2.87,2.87,0,0,0,2.46,1.18A2.91,2.91,0,0,0,365.72,558Z" fill="#003a50"/><path d="M72,155.54l-2.48,2v-2.25L72.24,153H74.1V164.9H72Z" fill="#003a50"/><path d="M78.62,155.54l-2.48,2v-2.25L78.87,153h1.86V164.9H78.62Z" fill="#003a50"/><path d="M83.26,164.76a1,1,0,0,1-.33-.8,1,1,0,0,1,.33-.81,1.4,1.4,0,0,1,1.73,0,1,1,0,0,1,.32.81,1,1,0,0,1-.32.8,1.4,1.4,0,0,1-1.73,0Z" fill="#003a50"/><path d="M87.39,161.55H89.6s0,.07,0,.18a2.71,2.71,0,0,0,.23.43,2.37,2.37,0,0,0,.41.49,2.2,2.2,0,0,0,.75.41,3.21,3.21,0,0,0,1,.17,2.68,2.68,0,0,0,2.25-1.07,4.35,4.35,0,0,0,.8-2.7h-.06a2.24,2.24,0,0,1-.44.46,2.92,2.92,0,0,1-.59.4,3.47,3.47,0,0,1-1,.32,5.43,5.43,0,0,1-1.22.14,5,5,0,0,1-3.36-1.13,3.71,3.71,0,0,1,0-5.72,5.49,5.49,0,0,1,3.6-1.11A4.81,4.81,0,0,1,96,154.37a6.35,6.35,0,0,1,1.32,4.26V159A6.7,6.7,0,0,1,96,163.35a4.69,4.69,0,0,1-3.89,1.71,5.9,5.9,0,0,1-2.16-.37,3.86,3.86,0,0,1-1.48-.95A3.33,3.33,0,0,1,87.39,161.55Zm2.78-3.16a3.19,3.19,0,0,0,2,.58,3.25,3.25,0,0,0,2-.58,1.87,1.87,0,0,0,.78-1.57,1.89,1.89,0,0,0-.77-1.58,3.22,3.22,0,0,0-2-.58,3.14,3.14,0,0,0-2,.58,2,2,0,0,0,0,3.15Z" fill="#003a50"/><path d="M337.68,66.13l-2.49,2V65.84l2.73-2.26h1.87v11.9h-2.11Z" fill="#003a50"/><path d="M348.5,65.42h-5.82V63.58h8.86v1.84L347,68.07v.07h1.28a3.86,3.86,0,0,1,2.79,1,3.52,3.52,0,0,1,1.05,2.66,3.33,3.33,0,0,1-1.33,2.83,7,7,0,0,1-7.24,0,3.39,3.39,0,0,1-1.33-2.86v-.32h2.11v.32c0,1.36.95,2,2.84,2s2.84-.67,2.84-2-.94-2-2.84-2h-3.26V68.17l4.57-2.68Z" fill="#003a50"/><path d="M354.24,75.35a1,1,0,0,1-.32-.8,1.07,1.07,0,0,1,.32-.81,1.25,1.25,0,0,1,.88-.3,1.23,1.23,0,0,1,.86.3,1.07,1.07,0,0,1,.32.81,1,1,0,0,1-.32.8,1.23,1.23,0,0,1-.86.3A1.25,1.25,0,0,1,354.24,75.35Z" fill="#003a50"/><path d="M358.38,72.14h2.21s0,.07,0,.18a3.22,3.22,0,0,0,.23.43,2.09,2.09,0,0,0,.41.48,2,2,0,0,0,.75.42,3.21,3.21,0,0,0,1.05.17,2.67,2.67,0,0,0,2.24-1.07,4.29,4.29,0,0,0,.81-2.7h-.06a2.24,2.24,0,0,1-.44.46,2.73,2.73,0,0,1-.6.4,3.61,3.61,0,0,1-.95.32,5.43,5.43,0,0,1-1.22.14,5,5,0,0,1-3.37-1.13,3.74,3.74,0,0,1,0-5.73,5.59,5.59,0,0,1,3.61-1.1A4.81,4.81,0,0,1,367,65a6.4,6.4,0,0,1,1.32,4.27v.41A6.7,6.7,0,0,1,367,73.94a4.71,4.71,0,0,1-3.89,1.71,6,6,0,0,1-2.17-.37,3.82,3.82,0,0,1-1.47-1A3.33,3.33,0,0,1,358.38,72.14ZM361.15,69a3.6,3.6,0,0,0,4,0,1.85,1.85,0,0,0,.78-1.57,1.89,1.89,0,0,0-.77-1.57,3.24,3.24,0,0,0-2-.59,3.17,3.17,0,0,0-2,.59,1.85,1.85,0,0,0-.78,1.57A1.87,1.87,0,0,0,361.15,69Z" fill="#003a50"/><path d="M190.68,118h-5.82v-1.85h8.86V118l-4.53,2.65v.06h1.28a3.87,3.87,0,0,1,2.79,1,3.52,3.52,0,0,1,1.05,2.66,3.35,3.35,0,0,1-1.32,2.83,7,7,0,0,1-7.25,0,3.39,3.39,0,0,1-1.32-2.86v-.32h2.1v.32c0,1.36.95,2,2.85,2s2.84-.66,2.84-2-1-2-2.84-2H186.1v-1.67l4.58-2.69Z" fill="#003a50"/><path d="M196.42,127.94a1,1,0,0,1-.33-.8,1,1,0,0,1,.33-.81,1.4,1.4,0,0,1,1.73,0,1,1,0,0,1,.33.81,1,1,0,0,1-.33.8,1.4,1.4,0,0,1-1.73,0Z" fill="#003a50"/><path d="M200.55,124.73h2.21s0,.07,0,.18a3.22,3.22,0,0,0,.23.43,2.09,2.09,0,0,0,.41.48,2,2,0,0,0,.75.42,3.21,3.21,0,0,0,1.05.16,2.68,2.68,0,0,0,2.25-1.06,4.36,4.36,0,0,0,.8-2.71h-.06a2,2,0,0,1-.44.47,2.92,2.92,0,0,1-.59.4,3.83,3.83,0,0,1-1,.32A5.43,5.43,0,0,1,205,124a4.94,4.94,0,0,1-3.36-1.12,3.72,3.72,0,0,1,.05-5.73,5.55,5.55,0,0,1,3.6-1.1,4.81,4.81,0,0,1,3.87,1.54,6.4,6.4,0,0,1,1.32,4.27v.41a6.7,6.7,0,0,1-1.37,4.31,4.69,4.69,0,0,1-3.89,1.71,5.9,5.9,0,0,1-2.16-.37,3.86,3.86,0,0,1-1.48-1A3.33,3.33,0,0,1,200.55,124.73Zm2.78-3.17a3.13,3.13,0,0,0,2,.59,3.19,3.19,0,0,0,2-.59,1.85,1.85,0,0,0,.78-1.57,1.88,1.88,0,0,0-.77-1.57,3.22,3.22,0,0,0-2-.59,3.14,3.14,0,0,0-2,.59,2,2,0,0,0,0,3.14Z" fill="#003a50"/><path d="M221.32,181.55h-2.11V178.9h-7v-1.85l6.29-7.41h2.79v7.41h1.6v1.85h-1.6Zm-2.11-4.5v-5.32h-.06L214.67,177v.05Z" fill="#003a50"/><path d="M224.6,181.41a1,1,0,0,1-.32-.8,1.07,1.07,0,0,1,.32-.81,1.25,1.25,0,0,1,.88-.3,1.22,1.22,0,0,1,.86.3,1,1,0,0,1,.32.81,1,1,0,0,1-.32.8,1.22,1.22,0,0,1-.86.3A1.25,1.25,0,0,1,224.6,181.41Z" fill="#003a50"/><path d="M230,180a7.34,7.34,0,0,1,0-8.84,5.71,5.71,0,0,1,8.13,0,7.34,7.34,0,0,1,0,8.84,5.71,5.71,0,0,1-8.13,0Zm6.53-1.39a5,5,0,0,0,.87-3,5,5,0,0,0-.87-3,3.15,3.15,0,0,0-4.92,0,5,5,0,0,0-.88,3,5,5,0,0,0,.88,3,2.85,2.85,0,0,0,2.46,1.19A2.89,2.89,0,0,0,236.54,178.62Z" fill="#003a50"/></g></svg>