<svg id="Слой_1" data-name="Слой 1" xmlns="http://www.w3.org/2000/svg" xmlns:xlink="http://www.w3.org/1999/xlink" viewBox="0 0 455.81 561.83"><defs><clipPath id="clip-path"><polygon points="0 0.07 0 561.76 233.86 561.76 233.86 447.45 455.81 447.45 455.81 0.07 0 0.07" fill="none"/></clipPath></defs><polygon points="223.83 439.69 223.83 551.78 47.66 551.78 47.66 561.76 233.86 561.76 233.86 447.45 443.92 447.45 443.92 439.69 223.83 439.69" fill="#fff"/><polygon points="6.82 13.11 6.82 333.77 47.67 333.77 47.67 557.25 228.17 557.25 228.17 443.63 445.25 443.63 442.68 13.11 6.82 13.11" fill="#fff"/><rect y="13.11" width="6.82" height="320.66" fill="#fff"/><g clip-path="url(#clip-path)"><line x1="-424.96" y1="13.36" x2="443.92" y2="13.36" fill="none" stroke="#003a50" stroke-miterlimit="10"/><line x1="443.92" y1="13.11" x2="443.92" y2="1139.11" fill="none" stroke="#003a50" stroke-miterlimit="10"/><polyline points="454.18 1128.22 454.18 24.61 431.18 1.61 -410.44 1.61 -433.44 24.61 -433.44 1370.74 -313.83 1370.74 -313.83 2495.86" fill="none" stroke="#003a50" stroke-miterlimit="10"/></g><rect x="184.11" y="30.52" width="56.21" height="4.55" fill="#fff"/><rect x="184.11" y="30.52" width="56.21" height="4.55" fill="none" stroke="#003a50" stroke-miterlimit="10"/><line x1="240.31" y1="32.79" x2="184.11" y2="32.79" fill="none" stroke="#003a50" stroke-miterlimit="10"/><rect x="235.87" y="30.52" width="4.44" height="4.55" fill="#fff"/><rect x="235.87" y="30.52" width="4.44" height="4.55" fill="none" stroke="#003a50" stroke-miterlimit="10"/><rect x="184.11" y="30.52" width="4.44" height="4.55" fill="#fff"/><rect x="184.11" y="30.52" width="4.44" height="4.55" fill="none" stroke="#003a50" stroke-miterlimit="10"/><rect x="219.24" y="30.52" width="4.44" height="4.55" fill="#fff"/><rect x="219.24" y="30.52" width="4.44" height="4.55" fill="none" stroke="#003a50" stroke-miterlimit="10"/><g clip-path="url(#clip-path)"><path d="M219.24,35.07V37.6c0,17.6-13.74,28.92-30.69,28.92V35.07" fill="none" stroke="#003a50" stroke-miterlimit="10"/></g><rect x="420.73" y="140.56" width="4.55" height="70.43" fill="#fff"/><rect x="420.73" y="140.56" width="4.55" height="70.43" fill="none" stroke="#003a50" stroke-miterlimit="10"/><line x1="423.01" y1="210.99" x2="423.01" y2="140.56" fill="none" stroke="#003a50" stroke-miterlimit="10"/><rect x="420.73" y="206.54" width="4.55" height="4.45" fill="#fff"/><rect x="420.73" y="206.54" width="4.55" height="4.45" fill="none" stroke="#003a50" stroke-miterlimit="10"/><rect x="420.73" y="140.56" width="4.55" height="4.45" fill="#fff"/><rect x="420.73" y="140.56" width="4.55" height="4.45" fill="none" stroke="#003a50" stroke-miterlimit="10"/><rect x="420.73" y="175.77" width="4.55" height="4.45" fill="#fff"/><rect x="420.73" y="175.77" width="4.55" height="4.45" fill="none" stroke="#003a50" stroke-miterlimit="10"/><g clip-path="url(#clip-path)"><path d="M420.73,175.77H418.2c-17.6,0-28.92-13.77-28.92-30.76h31.45" fill="none" stroke="#003a50" stroke-miterlimit="10"/></g><rect x="420.73" y="299.57" width="4.55" height="69.92" fill="#fff"/><rect x="420.73" y="299.57" width="4.55" height="69.92" fill="none" stroke="#003a50" stroke-miterlimit="10"/><line x1="423.01" y1="299.57" x2="423.01" y2="369.49" fill="none" stroke="#003a50" stroke-miterlimit="10"/><rect x="420.73" y="299.57" width="4.55" height="4.42" fill="#fff"/><rect x="420.73" y="299.57" width="4.55" height="4.42" fill="none" stroke="#003a50" stroke-miterlimit="10"/><rect x="420.73" y="365.07" width="4.55" height="4.42" fill="#fff"/><rect x="420.73" y="365.07" width="4.55" height="4.42" fill="none" stroke="#003a50" stroke-miterlimit="10"/><rect x="420.73" y="330.11" width="4.55" height="4.42" fill="#fff"/><rect x="420.73" y="330.11" width="4.55" height="4.42" fill="none" stroke="#003a50" stroke-miterlimit="10"/><g clip-path="url(#clip-path)"><path d="M420.73,334.53H418.2c-17.6,0-28.92,13.67-28.92,30.54h31.45" fill="none" stroke="#003a50" stroke-miterlimit="10"/><path d="M420.73,493.15H418.2c-17.6,0-28.92,13.67-28.92,30.54h31.45" fill="none" stroke="#003a50" stroke-miterlimit="10"/></g><rect x="25.35" y="30.52" width="69.92" height="4.55" fill="#fff"/><rect x="25.35" y="30.52" width="69.92" height="4.55" fill="none" stroke="#003a50" stroke-miterlimit="10"/><line x1="25.35" y1="32.79" x2="95.26" y2="32.79" fill="none" stroke="#003a50" stroke-miterlimit="10"/><rect x="25.35" y="30.52" width="4.42" height="4.55" fill="#fff"/><rect x="25.35" y="30.52" width="4.42" height="4.55" fill="none" stroke="#003a50" stroke-miterlimit="10"/><rect x="90.84" y="30.52" width="4.42" height="4.55" fill="#fff"/><rect x="90.84" y="30.52" width="4.42" height="4.55" fill="none" stroke="#003a50" stroke-miterlimit="10"/><rect x="55.89" y="30.52" width="4.42" height="4.55" fill="#fff"/><rect x="55.89" y="30.52" width="4.42" height="4.55" fill="none" stroke="#003a50" stroke-miterlimit="10"/><g clip-path="url(#clip-path)"><path d="M60.31,35.07V37.6c0,17.6,13.67,28.92,30.53,28.92V35.07" fill="none" stroke="#003a50" stroke-miterlimit="10"/></g><rect x="328.7" y="30.56" width="96.59" height="4.55" fill="#fff"/><rect x="328.7" y="30.56" width="96.59" height="4.55" fill="none" stroke="#003a50" stroke-miterlimit="10"/><line x1="328.7" y1="32.84" x2="425.29" y2="32.84" fill="none" stroke="#003a50" stroke-miterlimit="10"/><rect x="328.7" y="30.56" width="4.55" height="4.55" fill="#fff"/><rect x="328.7" y="30.56" width="4.55" height="4.55" fill="none" stroke="#003a50" stroke-miterlimit="10"/><rect x="364.9" y="30.56" width="4.55" height="4.55" fill="#fff"/><rect x="364.9" y="30.56" width="4.55" height="4.55" fill="none" stroke="#003a50" stroke-miterlimit="10"/><rect x="392.82" y="30.56" width="4.55" height="4.55" fill="#fff"/><rect x="392.82" y="30.56" width="4.55" height="4.55" fill="none" stroke="#003a50" stroke-miterlimit="10"/><rect x="420.73" y="30.56" width="4.55" height="94.9" fill="#fff"/><rect x="420.73" y="30.56" width="4.55" height="94.9" fill="none" stroke="#003a50" stroke-miterlimit="10"/><line x1="423.01" y1="125.46" x2="423.01" y2="30.56" fill="none" stroke="#003a50" stroke-miterlimit="10"/><rect x="420.73" y="120.91" width="4.55" height="4.55" fill="#fff"/><rect x="420.73" y="120.91" width="4.55" height="4.55" fill="none" stroke="#003a50" stroke-miterlimit="10"/><rect x="420.73" y="30.56" width="4.55" height="4.55" fill="#fff"/><rect x="420.73" y="30.56" width="4.55" height="4.55" fill="none" stroke="#003a50" stroke-miterlimit="10"/><rect x="420.73" y="85.13" width="4.55" height="4.55" fill="#fff"/><rect x="420.73" y="85.13" width="4.55" height="4.55" fill="none" stroke="#003a50" stroke-miterlimit="10"/><rect x="420.73" y="57.84" width="4.55" height="4.55" fill="#fff"/><rect x="420.73" y="57.84" width="4.55" height="4.55" fill="none" stroke="#003a50" stroke-miterlimit="10"/><g clip-path="url(#clip-path)"><path d="M420.73,89.45h-2.54c-17.6,0-28.92,14.08-28.92,31.45h31.46" fill="none" stroke="#003a50" stroke-miterlimit="10"/><path d="M364.7,35.11v2.54c0,17.6-14.08,28.92-31.45,28.92V35.11" fill="none" stroke="#003a50" stroke-miterlimit="10"/><path d="M194,351.38a1,1,0,0,0-1-1,10.74,10.74,0,0,1,0-21.48,1,1,0,0,0,0-2,12.7,12.7,0,1,0,0,25.4A1,1,0,0,0,194,351.38Z" fill="none" stroke="#003a50" stroke-miterlimit="10"/><path d="M235.42,328a1,1,0,0,0,1,1,10.74,10.74,0,1,1,0,21.47,1,1,0,1,0,0,2,12.7,12.7,0,1,0,0-25.39A1,1,0,0,0,235.42,328Z" fill="none" stroke="#003a50" stroke-miterlimit="10"/><path d="M194,318.81a1,1,0,0,0-1-1,10.74,10.74,0,0,1,0-21.48,1,1,0,1,0,0-2,12.7,12.7,0,1,0,0,25.39A1,1,0,0,0,194,318.81Z" fill="none" stroke="#003a50" stroke-miterlimit="10"/><path d="M235.42,295.38a1,1,0,0,0,1,1,10.74,10.74,0,1,1,0,21.47,1,1,0,0,0,0,2,12.7,12.7,0,1,0,0-25.39A1,1,0,0,0,235.42,295.38Z" fill="none" stroke="#003a50" stroke-miterlimit="10"/><path d="M204.72,277.23a1,1,0,0,0,1-1,10.74,10.74,0,0,1,21.48,0,1,1,0,1,0,2,0,12.7,12.7,0,0,0-25.4,0A1,1,0,0,0,204.72,277.23Z" fill="none" stroke="#003a50" stroke-miterlimit="10"/><path d="M228.16,365.69a1,1,0,0,0-1,1,10.74,10.74,0,0,1-21.48,0,1,1,0,1,0-1.95,0,12.7,12.7,0,1,0,25.39,0A1,1,0,0,0,228.16,365.69Z" fill="none" stroke="#003a50" stroke-miterlimit="10"/><path d="M183.69,339.65a9.88,9.88,0,0,0,9.84,9.87h4.56a18.55,18.55,0,0,1-.63-4.78V329.81h-3.93A9.87,9.87,0,0,0,183.69,339.65Z" fill="none" stroke="#003a50" stroke-miterlimit="10"/><path d="M234.8,349.52h1.07a9.86,9.86,0,1,0,0-19.71h-.44v14.93A20,20,0,0,1,234.8,349.52Z" fill="none" stroke="#003a50" stroke-miterlimit="10"/><path d="M183.69,307.08a9.89,9.89,0,0,0,9.84,9.88h3.93V298.22c0-.32,0-.66.06-1h-4A9.85,9.85,0,0,0,183.69,307.08Z" fill="none" stroke="#003a50" stroke-miterlimit="10"/><path d="M235.37,297.24c0,.32.06.66.06,1V317h.44a9.86,9.86,0,1,0,0-19.72Z" fill="none" stroke="#003a50" stroke-miterlimit="10"/><path d="M206.57,360.93v5.22a9.86,9.86,0,1,0,19.72,0v-5.22a18.76,18.76,0,0,1-9.84,2.8A19,19,0,0,1,206.57,360.93Z" fill="none" stroke="#003a50" stroke-miterlimit="10"/><path d="M206.57,276.78V282a19,19,0,0,1,9.88-2.8,18.76,18.76,0,0,1,9.84,2.8v-5.25a9.86,9.86,0,1,0-19.72,0Z" fill="none" stroke="#003a50" stroke-miterlimit="10"/><path d="M197.46,298.22v46.52a18.55,18.55,0,0,0,.63,4.78,19,19,0,0,0,18.36,14.21,18.72,18.72,0,0,0,9.84-2.79,19.09,19.09,0,0,0,8.52-11.42,20.46,20.46,0,0,0,.62-4.78V298.22c0-.32,0-.66-.06-1a18.95,18.95,0,0,0-37.85,0C197.49,297.56,197.46,297.9,197.46,298.22Z" fill="none" stroke="#003a50" stroke-miterlimit="10"/><rect x="-35.25" y="226.11" width="34.75" height="81.24" fill="none" stroke="#003a50" stroke-miterlimit="10"/><path d="M126.1,455.26h15.8a2.32,2.32,0,0,1,2.31,2.31v15.28a2.32,2.32,0,0,1-2.31,2.31H126.1a2.31,2.31,0,0,1-2.3-2.31V457.57A2.31,2.31,0,0,1,126.1,455.26Z" fill="none" stroke="#003a50" stroke-miterlimit="10"/><path d="M132.44,465.21a1.56,1.56,0,1,1,1.56,1.56A1.56,1.56,0,0,1,132.44,465.21Z" fill="none" stroke="#003a50" stroke-miterlimit="10"/></g><rect x="121.36" y="438.78" width="22.8" height="52.87" fill="none" stroke="#003a50" stroke-miterlimit="10"/><rect x="105.63" y="300.77" width="29.29" height="27.2" fill="none" stroke="#003a50" stroke-miterlimit="10"/><rect x="105.63" y="273.46" width="29.29" height="27.2" fill="none" stroke="#003a50" stroke-miterlimit="10"/><rect x="215.55" y="52.63" width="34.08" height="76.16" fill="none" stroke="#003a50" stroke-miterlimit="10"/><g clip-path="url(#clip-path)"><path d="M219.77,68.34v44.74a12.59,12.59,0,0,0,12.8,12.36h0a12.58,12.58,0,0,0,12.8-12.36V68.34A12.58,12.58,0,0,0,232.61,56h0A12.59,12.59,0,0,0,219.77,68.34Z" fill="none" stroke="#003a50" stroke-miterlimit="10"/><ellipse cx="232.59" cy="68.07" rx="1.86" ry="1.79" fill="none" stroke="#003a50" stroke-miterlimit="10"/><path d="M179.41,104.2H156.2V85.86h23.21a9.17,9.17,0,1,1,0,18.34Z" fill="none" stroke="#003a50" stroke-miterlimit="10"/></g><line x1="165.23" y1="85.86" x2="165.23" y2="104.2" fill="none" stroke="#003a50" stroke-miterlimit="10"/><g clip-path="url(#clip-path)"><path d="M172.85,73h-15.8a2.3,2.3,0,0,1-2.3-2.31V55.42a2.3,2.3,0,0,1,2.3-2.3h15.8a2.3,2.3,0,0,1,2.3,2.3V70.7A2.3,2.3,0,0,1,172.85,73Z" fill="none" stroke="#003a50" stroke-miterlimit="10"/><path d="M166.51,63.06A1.56,1.56,0,1,1,165,61.51,1.56,1.56,0,0,1,166.51,63.06Z" fill="none" stroke="#003a50" stroke-miterlimit="10"/></g><rect x="226.29" y="235.66" width="192.62" height="13.62" fill="none" stroke="#003a50" stroke-miterlimit="10"/><polygon points="303.58 242.91 337.94 240.09 372.47 242.91 372.47 244.88 303.58 244.88 303.58 242.91" fill="none" stroke="#003a50" stroke-miterlimit="10"/><g clip-path="url(#clip-path)"><rect x="-44.65" y="61.04" width="45.5" height="98.82" fill="none" stroke="#003a50" stroke-miterlimit="10"/></g><rect x="106.11" y="42.44" width="45.5" height="98.82" fill="none" stroke="#003a50" stroke-miterlimit="10"/><g clip-path="url(#clip-path)"><path d="M143.56,50.88h-29a2.1,2.1,0,0,0-2.1,2.1V111.5h33.26V53A2.1,2.1,0,0,0,143.56,50.88Z" fill="none" stroke="#003a50" stroke-miterlimit="10"/></g><rect x="112.41" y="99.45" width="33.26" height="12.04" fill="none" stroke="#003a50" stroke-miterlimit="10"/><g clip-path="url(#clip-path)"><path d="M143.81,134.53H114.56a2.2,2.2,0,0,1-2.2-2.21V116.84a2.19,2.19,0,0,1,2.2-2.2h29.25a2.2,2.2,0,0,1,2.2,2.2v15.48A2.21,2.21,0,0,1,143.81,134.53Z" fill="none" stroke="#003a50" stroke-miterlimit="10"/><rect x="233.31" y="446.28" width="27.05" height="137.43" fill="none" stroke="#003a50" stroke-miterlimit="10"/><path d="M237.14,565.67a.79.79,0,0,1-.71-.45.81.81,0,0,1,.36-1.07,22.91,22.91,0,0,1,20.09,0,.8.8,0,0,1,.36,1.07.79.79,0,0,1-1.06.36,21.3,21.3,0,0,0-18.69,0A.73.73,0,0,1,237.14,565.67Z" fill="none" stroke="#003a50" stroke-miterlimit="10"/><path d="M237.14,561.24a.78.78,0,0,1-.71-.44.82.82,0,0,1,.36-1.08,22.91,22.91,0,0,1,20.09,0,.8.8,0,0,1,.36,1.07.79.79,0,0,1-1.06.37,21.3,21.3,0,0,0-18.69,0A.72.72,0,0,1,237.14,561.24Z" fill="none" stroke="#003a50" stroke-miterlimit="10"/><path d="M237.14,556.81a.78.78,0,0,1-.71-.44.8.8,0,0,1,.36-1.07,22.91,22.91,0,0,1,20.09,0,.8.8,0,0,1,.36,1.07.79.79,0,0,1-1.06.36,21.3,21.3,0,0,0-18.69,0A.72.72,0,0,1,237.14,556.81Z" fill="none" stroke="#003a50" stroke-miterlimit="10"/><path d="M237.14,552.39a.78.78,0,0,1-.71-.44.82.82,0,0,1,.36-1.08,22.91,22.91,0,0,1,20.09,0,.8.8,0,0,1,.36,1.07.79.79,0,0,1-1.06.37,21.3,21.3,0,0,0-18.69,0A.72.72,0,0,1,237.14,552.39Z" fill="none" stroke="#003a50" stroke-miterlimit="10"/><path d="M237.14,548a.78.78,0,0,1-.71-.44.8.8,0,0,1,.36-1.07,22.91,22.91,0,0,1,20.09,0,.8.8,0,0,1,.36,1.07.79.79,0,0,1-1.06.36,21.3,21.3,0,0,0-18.69,0A.72.72,0,0,1,237.14,548Z" fill="none" stroke="#003a50" stroke-miterlimit="10"/><line x1="246.83" y1="583.7" x2="246.83" y2="442.44" fill="none" stroke="#003a50" stroke-miterlimit="10"/></g><rect x="14.28" y="138.44" width="27.05" height="82.72" fill="none" stroke="#003a50" stroke-miterlimit="10"/><g clip-path="url(#clip-path)"><path d="M18.11,207.55a.79.79,0,0,1-.35-1.51,22.88,22.88,0,0,1,20.08,0,.8.8,0,0,1-.7,1.43,21.27,21.27,0,0,0-18.68,0A.74.74,0,0,1,18.11,207.55Z" fill="none" stroke="#003a50" stroke-miterlimit="10"/><path d="M18.11,203.13a.81.81,0,0,1-.72-.45.79.79,0,0,1,.37-1.06,22.8,22.8,0,0,1,20.08,0,.79.79,0,0,1-.7,1.42,21.27,21.27,0,0,0-18.68,0A.76.76,0,0,1,18.11,203.13Z" fill="none" stroke="#003a50" stroke-miterlimit="10"/><path d="M18.11,198.7a.79.79,0,0,1-.35-1.51,22.88,22.88,0,0,1,20.08,0,.78.78,0,0,1,.36,1.06.79.79,0,0,1-1.06.37,21.27,21.27,0,0,0-18.68,0A.74.74,0,0,1,18.11,198.7Z" fill="none" stroke="#003a50" stroke-miterlimit="10"/><path d="M18.11,194.28a.8.8,0,0,1-.35-1.52,22.88,22.88,0,0,1,20.08,0,.79.79,0,0,1,.36,1.07.78.78,0,0,1-1.06.36,21.27,21.27,0,0,0-18.68,0A.76.76,0,0,1,18.11,194.28Z" fill="none" stroke="#003a50" stroke-miterlimit="10"/><path d="M18.11,189.85a.79.79,0,0,1-.35-1.51,22.88,22.88,0,0,1,20.08,0,.78.78,0,0,1,.36,1.06.79.79,0,0,1-1.06.37,21.27,21.27,0,0,0-18.68,0A.74.74,0,0,1,18.11,189.85Z" fill="none" stroke="#003a50" stroke-miterlimit="10"/><path d="M18.11,185.43a.8.8,0,0,1-.35-1.52,22.88,22.88,0,0,1,20.08,0,.8.8,0,0,1-.7,1.43,21.27,21.27,0,0,0-18.68,0A.76.76,0,0,1,18.11,185.43Z" fill="none" stroke="#003a50" stroke-miterlimit="10"/><path d="M18.11,212a.8.8,0,0,1-.72-.44.81.81,0,0,1,.37-1.08,22.88,22.88,0,0,1,20.08,0,.8.8,0,0,1-.7,1.44,21.27,21.27,0,0,0-18.68,0A.74.74,0,0,1,18.11,212Z" fill="none" stroke="#003a50" stroke-miterlimit="10"/><path d="M18.11,216.4a.79.79,0,0,1-.35-1.51,22.88,22.88,0,0,1,20.08,0,.8.8,0,0,1-.7,1.43,21.27,21.27,0,0,0-18.68,0A.74.74,0,0,1,18.11,216.4Z" fill="none" stroke="#003a50" stroke-miterlimit="10"/></g><line x1="27.8" y1="221.17" x2="27.8" y2="138.44" fill="none" stroke="#003a50" stroke-miterlimit="10"/><rect x="14.55" y="223.3" width="27.05" height="59.34" fill="none" stroke="#003a50" stroke-miterlimit="10"/><g clip-path="url(#clip-path)"><path d="M18.39,269a.79.79,0,0,1-.35-1.51,22.88,22.88,0,0,1,20.08,0,.78.78,0,0,1,.36,1.06.79.79,0,0,1-1.06.37,21.27,21.27,0,0,0-18.68,0A.74.74,0,0,1,18.39,269Z" fill="none" stroke="#003a50" stroke-miterlimit="10"/><path d="M18.39,264.61a.8.8,0,0,1-.35-1.52,22.88,22.88,0,0,1,20.08,0,.79.79,0,0,1,.36,1.07.78.78,0,0,1-1.06.36,21.27,21.27,0,0,0-18.68,0A.76.76,0,0,1,18.39,264.61Z" fill="none" stroke="#003a50" stroke-miterlimit="10"/><path d="M18.39,260.18a.79.79,0,0,1-.35-1.51,22.88,22.88,0,0,1,20.08,0,.78.78,0,0,1,.36,1.06.79.79,0,0,1-1.06.37,21.27,21.27,0,0,0-18.68,0A.74.74,0,0,1,18.39,260.18Z" fill="none" stroke="#003a50" stroke-miterlimit="10"/><path d="M18.39,255.76a.8.8,0,0,1-.35-1.52,22.88,22.88,0,0,1,20.08,0,.8.8,0,0,1-.7,1.43,21.27,21.27,0,0,0-18.68,0A.76.76,0,0,1,18.39,255.76Z" fill="none" stroke="#003a50" stroke-miterlimit="10"/><path d="M18.39,251.33a.8.8,0,0,1-.72-.44.81.81,0,0,1,.37-1.08,22.88,22.88,0,0,1,20.08,0,.8.8,0,0,1-.7,1.44,21.27,21.27,0,0,0-18.68,0A.74.74,0,0,1,18.39,251.33Z" fill="none" stroke="#003a50" stroke-miterlimit="10"/><path d="M18.39,246.91a.8.8,0,0,1-.35-1.52,22.88,22.88,0,0,1,20.08,0,.8.8,0,0,1-.7,1.43,21.27,21.27,0,0,0-18.68,0A.76.76,0,0,1,18.39,246.91Z" fill="none" stroke="#003a50" stroke-miterlimit="10"/><path d="M18.39,273.46a.81.81,0,0,1-.72-.45A.79.79,0,0,1,18,272a22.8,22.8,0,0,1,20.08,0,.79.79,0,0,1-.7,1.42,21.27,21.27,0,0,0-18.68,0A.76.76,0,0,1,18.39,273.46Z" fill="none" stroke="#003a50" stroke-miterlimit="10"/><path d="M18.39,277.88a.79.79,0,0,1-.35-1.51,22.88,22.88,0,0,1,20.08,0,.8.8,0,0,1-.7,1.43,21.27,21.27,0,0,0-18.68,0A.74.74,0,0,1,18.39,277.88Z" fill="none" stroke="#003a50" stroke-miterlimit="10"/></g><line x1="28.08" y1="282.64" x2="28.08" y2="223.3" fill="none" stroke="#003a50" stroke-miterlimit="10"/><rect x="75.89" y="222.03" width="27.05" height="60.61" fill="none" stroke="#003a50" stroke-miterlimit="10"/><g clip-path="url(#clip-path)"><path d="M79.72,269a.79.79,0,0,1-.35-1.51,22.91,22.91,0,0,1,20.09,0,.8.8,0,0,1,.36,1.06.81.81,0,0,1-1.07.37,21.27,21.27,0,0,0-18.68,0A.72.72,0,0,1,79.72,269Z" fill="none" stroke="#003a50" stroke-miterlimit="10"/><path d="M79.72,264.61a.8.8,0,0,1-.35-1.52,22.91,22.91,0,0,1,20.09,0,.81.81,0,0,1,.36,1.07.79.79,0,0,1-1.07.36,21.27,21.27,0,0,0-18.68,0A.73.73,0,0,1,79.72,264.61Z" fill="none" stroke="#003a50" stroke-miterlimit="10"/><path d="M79.72,260.18a.79.79,0,0,1-.35-1.51,22.91,22.91,0,0,1,20.09,0,.8.8,0,0,1,.36,1.06.81.81,0,0,1-1.07.37,21.27,21.27,0,0,0-18.68,0A.72.72,0,0,1,79.72,260.18Z" fill="none" stroke="#003a50" stroke-miterlimit="10"/><path d="M79.72,255.76a.8.8,0,0,1-.35-1.52,22.91,22.91,0,0,1,20.09,0,.8.8,0,0,1-.71,1.43,21.27,21.27,0,0,0-18.68,0A.73.73,0,0,1,79.72,255.76Z" fill="none" stroke="#003a50" stroke-miterlimit="10"/><path d="M79.72,251.33a.8.8,0,0,1-.72-.44.81.81,0,0,1,.37-1.08,22.91,22.91,0,0,1,20.09,0,.8.8,0,0,1-.71,1.44,21.27,21.27,0,0,0-18.68,0A.72.72,0,0,1,79.72,251.33Z" fill="none" stroke="#003a50" stroke-miterlimit="10"/><path d="M79.72,246.91a.8.8,0,0,1-.35-1.52,22.91,22.91,0,0,1,20.09,0,.8.8,0,0,1-.71,1.43,21.27,21.27,0,0,0-18.68,0A.73.73,0,0,1,79.72,246.91Z" fill="none" stroke="#003a50" stroke-miterlimit="10"/><path d="M79.72,273.46A.81.81,0,0,1,79,273a.79.79,0,0,1,.37-1.06,22.82,22.82,0,0,1,20.09,0,.79.79,0,1,1-.71,1.42,21.27,21.27,0,0,0-18.68,0A.73.73,0,0,1,79.72,273.46Z" fill="none" stroke="#003a50" stroke-miterlimit="10"/><path d="M79.72,277.88a.79.79,0,0,1-.35-1.51,22.91,22.91,0,0,1,20.09,0,.8.8,0,0,1-.71,1.43,21.27,21.27,0,0,0-18.68,0A.72.72,0,0,1,79.72,277.88Z" fill="none" stroke="#003a50" stroke-miterlimit="10"/></g><line x1="89.41" y1="282.64" x2="89.41" y2="222.03" fill="none" stroke="#003a50" stroke-miterlimit="10"/><rect x="197.58" y="457.94" width="21.94" height="90.61" fill="none" stroke="#003a50" stroke-miterlimit="10"/><g clip-path="url(#clip-path)"><path d="M200.69,537.51a.65.65,0,0,1-.29-1.23,18.61,18.61,0,0,1,16.3,0,.66.66,0,0,1,.3.87.65.65,0,0,1-.87.29,17.27,17.27,0,0,0-15.15,0A.62.62,0,0,1,200.69,537.51Z" fill="none" stroke="#003a50" stroke-miterlimit="10"/><path d="M200.69,533.92a.65.65,0,0,1-.29-1.23,18.61,18.61,0,0,1,16.3,0,.66.66,0,0,1,.3.87.65.65,0,0,1-.87.29,17.27,17.27,0,0,0-15.15,0A.62.62,0,0,1,200.69,533.92Z" fill="none" stroke="#003a50" stroke-miterlimit="10"/><path d="M200.69,530.33a.65.65,0,0,1-.29-1.23,18.61,18.61,0,0,1,16.3,0,.66.66,0,0,1,.3.87.65.65,0,0,1-.87.29,17.27,17.27,0,0,0-15.15,0A.62.62,0,0,1,200.69,530.33Z" fill="none" stroke="#003a50" stroke-miterlimit="10"/><path d="M200.69,526.74a.65.65,0,0,1-.29-1.23,18.61,18.61,0,0,1,16.3,0,.66.66,0,0,1,.3.87.65.65,0,0,1-.87.29,17.27,17.27,0,0,0-15.15,0A.62.62,0,0,1,200.69,526.74Z" fill="none" stroke="#003a50" stroke-miterlimit="10"/><path d="M200.69,523.15a.64.64,0,0,1-.58-.36.66.66,0,0,1,.29-.87,18.61,18.61,0,0,1,16.3,0,.66.66,0,0,1,.3.87.65.65,0,0,1-.87.29,17.27,17.27,0,0,0-15.15,0A.62.62,0,0,1,200.69,523.15Z" fill="none" stroke="#003a50" stroke-miterlimit="10"/><path d="M200.69,519.56a.65.65,0,0,1-.29-1.23,18.61,18.61,0,0,1,16.3,0,.66.66,0,0,1,.3.87.65.65,0,0,1-.87.29,17.27,17.27,0,0,0-15.15,0A.62.62,0,0,1,200.69,519.56Z" fill="none" stroke="#003a50" stroke-miterlimit="10"/><path d="M200.69,541.1a.65.65,0,0,1-.29-1.23,18.61,18.61,0,0,1,16.3,0,.66.66,0,0,1,.3.87.65.65,0,0,1-.87.29A17.27,17.27,0,0,0,201,541,.62.62,0,0,1,200.69,541.1Z" fill="none" stroke="#003a50" stroke-miterlimit="10"/><path d="M200.69,544.69a.65.65,0,0,1-.29-1.23,18.61,18.61,0,0,1,16.3,0,.66.66,0,0,1,.3.87.65.65,0,0,1-.87.29,17.27,17.27,0,0,0-15.15,0A.62.62,0,0,1,200.69,544.69Z" fill="none" stroke="#003a50" stroke-miterlimit="10"/></g><line x1="208.55" y1="548.55" x2="208.55" y2="455.07" fill="none" stroke="#003a50" stroke-miterlimit="10"/><rect x="155.81" y="136.74" width="25.44" height="84.62" fill="none" stroke="#003a50" stroke-miterlimit="10"/><g clip-path="url(#clip-path)"><path d="M159.41,207.75a.75.75,0,0,1-.67-.45.82.82,0,0,1,.34-1.07,20.39,20.39,0,0,1,18.89,0,.81.81,0,0,1,.34,1.07.72.72,0,0,1-1,.36,18.94,18.94,0,0,0-17.57,0A.68.68,0,0,1,159.41,207.75Z" fill="none" stroke="#003a50" stroke-miterlimit="10"/><path d="M159.41,203.32a.74.74,0,0,1-.67-.44.83.83,0,0,1,.34-1.08,20.39,20.39,0,0,1,18.89,0,.81.81,0,0,1,.34,1.07.73.73,0,0,1-1,.37,18.94,18.94,0,0,0-17.57,0A.67.67,0,0,1,159.41,203.32Z" fill="none" stroke="#003a50" stroke-miterlimit="10"/><path d="M159.41,198.89a.74.74,0,0,1-.67-.44.82.82,0,0,1,.34-1.07,20.39,20.39,0,0,1,18.89,0,.81.81,0,0,1,.34,1.07.72.72,0,0,1-1,.36,18.94,18.94,0,0,0-17.57,0A.67.67,0,0,1,159.41,198.89Z" fill="none" stroke="#003a50" stroke-miterlimit="10"/><path d="M159.41,194.47a.75.75,0,0,1-.67-.45.8.8,0,0,1,.34-1.06A20.31,20.31,0,0,1,178,193a.79.79,0,0,1,.34,1.06.72.72,0,0,1-1,.36,18.94,18.94,0,0,0-17.57,0A.68.68,0,0,1,159.41,194.47Z" fill="none" stroke="#003a50" stroke-miterlimit="10"/><path d="M159.41,190a.74.74,0,0,1-.67-.44.82.82,0,0,1,.34-1.07,20.39,20.39,0,0,1,18.89,0,.8.8,0,0,1,.34,1.06.73.73,0,0,1-1,.37,18.94,18.94,0,0,0-17.57,0A.67.67,0,0,1,159.41,190Z" fill="none" stroke="#003a50" stroke-miterlimit="10"/><path d="M159.41,185.62a.75.75,0,0,1-.67-.45.82.82,0,0,1,.34-1.07,20.39,20.39,0,0,1,18.89,0,.81.81,0,0,1,.34,1.07.72.72,0,0,1-1,.36,18.94,18.94,0,0,0-17.57,0A.68.68,0,0,1,159.41,185.62Z" fill="none" stroke="#003a50" stroke-miterlimit="10"/><path d="M159.41,212.17a.74.74,0,0,1-.67-.44.82.82,0,0,1,.34-1.07,20.39,20.39,0,0,1,18.89,0,.8.8,0,0,1,.34,1.06.73.73,0,0,1-1,.37,18.94,18.94,0,0,0-17.57,0A.67.67,0,0,1,159.41,212.17Z" fill="none" stroke="#003a50" stroke-miterlimit="10"/><path d="M159.41,216.6a.75.75,0,0,1-.67-.45.82.82,0,0,1,.34-1.07,20.39,20.39,0,0,1,18.89,0,.81.81,0,0,1,.34,1.07.72.72,0,0,1-1,.36,18.94,18.94,0,0,0-17.57,0A.68.68,0,0,1,159.41,216.6Z" fill="none" stroke="#003a50" stroke-miterlimit="10"/></g><line x1="168.53" y1="221.36" x2="168.53" y2="136.05" fill="none" stroke="#003a50" stroke-miterlimit="10"/><rect x="14.28" y="282.65" width="87.74" height="24.36" fill="none" stroke="#003a50" stroke-miterlimit="10"/><g clip-path="url(#clip-path)"><path d="M71.74,304.31a.73.73,0,0,0,.4.65.72.72,0,0,0,1-.33,20.62,20.62,0,0,0,0-18.09.72.72,0,0,0-1.29.63,19.13,19.13,0,0,1,0,16.83A.7.7,0,0,0,71.74,304.31Z" fill="none" stroke="#003a50" stroke-miterlimit="10"/><path d="M75.72,304.31a.72.72,0,0,0,1.37.32,20.62,20.62,0,0,0,0-18.09.72.72,0,0,0-1-.33.71.71,0,0,0-.33,1,19.22,19.22,0,0,1,0,16.83A.71.71,0,0,0,75.72,304.31Z" fill="none" stroke="#003a50" stroke-miterlimit="10"/><path d="M79.71,304.31a.73.73,0,0,0,.4.65.72.72,0,0,0,1-.33,20.53,20.53,0,0,0,0-18.09.72.72,0,0,0-1-.33.71.71,0,0,0-.32,1,19.22,19.22,0,0,1,0,16.83A.6.6,0,0,0,79.71,304.31Z" fill="none" stroke="#003a50" stroke-miterlimit="10"/><path d="M83.7,304.31a.73.73,0,0,0,.4.65.72.72,0,0,0,1-.33,20.62,20.62,0,0,0,0-18.09.72.72,0,0,0-1.29.63,19.13,19.13,0,0,1,0,16.83A.7.7,0,0,0,83.7,304.31Z" fill="none" stroke="#003a50" stroke-miterlimit="10"/><path d="M87.68,304.31a.72.72,0,0,0,1.37.32,20.62,20.62,0,0,0,0-18.09.72.72,0,0,0-1-.33.71.71,0,0,0-.33,1,19.22,19.22,0,0,1,0,16.83A.71.71,0,0,0,87.68,304.31Z" fill="none" stroke="#003a50" stroke-miterlimit="10"/><path d="M91.67,304.31a.73.73,0,0,0,.4.65.72.72,0,0,0,1-.33,20.53,20.53,0,0,0,0-18.09.72.72,0,0,0-1-.33.71.71,0,0,0-.32,1,19.22,19.22,0,0,1,0,16.83A.6.6,0,0,0,91.67,304.31Z" fill="none" stroke="#003a50" stroke-miterlimit="10"/><path d="M67.75,304.31a.72.72,0,0,0,1.37.32,20.62,20.62,0,0,0,0-18.09.72.72,0,0,0-1-.33.71.71,0,0,0-.33,1,19.22,19.22,0,0,1,0,16.83A.71.71,0,0,0,67.75,304.31Z" fill="none" stroke="#003a50" stroke-miterlimit="10"/><path d="M63.77,304.31a.72.72,0,0,0,1.36.32,20.62,20.62,0,0,0,0-18.09.72.72,0,0,0-1.29.63,19.13,19.13,0,0,1,0,16.83A.7.7,0,0,0,63.77,304.31Z" fill="none" stroke="#003a50" stroke-miterlimit="10"/></g><line x1="12.42" y1="295.58" x2="102.01" y2="295.58" fill="none" stroke="#003a50" stroke-miterlimit="10"/><g clip-path="url(#clip-path)"><rect x="79.08" y="561.24" width="65.11" height="26.99" fill="none" stroke="#003a50" stroke-miterlimit="10"/></g><rect x="144.92" y="521.5" width="27.07" height="27.53" fill="none" stroke="#003a50" stroke-miterlimit="10"/><g clip-path="url(#clip-path)"><path d="M149.69,544.68a.73.73,0,0,0,.4.65.72.72,0,0,0,1-.33,20.53,20.53,0,0,0,0-18.09.72.72,0,0,0-1-.33.71.71,0,0,0-.32,1,19.22,19.22,0,0,1,0,16.83A.6.6,0,0,0,149.69,544.68Z" fill="none" stroke="#003a50" stroke-miterlimit="10"/><path d="M153.68,544.68A.72.72,0,0,0,155,545a20.62,20.62,0,0,0,0-18.09.72.72,0,0,0-1.29.63,19.13,19.13,0,0,1,0,16.83A.7.7,0,0,0,153.68,544.68Z" fill="none" stroke="#003a50" stroke-miterlimit="10"/><path d="M157.66,544.68A.72.72,0,0,0,159,545a20.62,20.62,0,0,0,0-18.09.72.72,0,0,0-1-.33.71.71,0,0,0-.33,1,19.22,19.22,0,0,1,0,16.83A.71.71,0,0,0,157.66,544.68Z" fill="none" stroke="#003a50" stroke-miterlimit="10"/><path d="M161.65,544.68a.73.73,0,0,0,.4.65.72.72,0,0,0,1-.33,20.62,20.62,0,0,0,0-18.09.72.72,0,0,0-1.29.63,19.13,19.13,0,0,1,0,16.83A.7.7,0,0,0,161.65,544.68Z" fill="none" stroke="#003a50" stroke-miterlimit="10"/></g><line x1="145.67" y1="535.95" x2="171.99" y2="535.95" fill="none" stroke="#003a50" stroke-miterlimit="10"/><g clip-path="url(#clip-path)"><rect x="-81.42" y="196.96" width="81.75" height="24.36" fill="none" stroke="#003a50" stroke-miterlimit="10"/><line x1="-81.42" y1="209.9" x2="0.33" y2="209.9" fill="none" stroke="#003a50" stroke-miterlimit="10"/><path d="M85.12,453.69H61.91V472H85.12a9.17,9.17,0,1,0,0-18.34Z" fill="none" stroke="#003a50" stroke-miterlimit="10"/></g><line x1="70.94" y1="472.03" x2="70.94" y2="453.69" fill="none" stroke="#003a50" stroke-miterlimit="10"/><rect x="81.71" y="491.7" width="61.52" height="35" fill="none" stroke="#003a50" stroke-miterlimit="10"/><g clip-path="url(#clip-path)"><path d="M98.24,511.24a2,2,0,1,0-2-2A2,2,0,0,0,98.24,511.24Z" fill="none" stroke="#003a50" stroke-miterlimit="10"/><rect x="391.05" y="447.13" width="18.91" height="18.91" fill="none" stroke="#003a50" stroke-miterlimit="10"/><path d="M395.08,462a7.67,7.67,0,1,0,0-10.84A7.65,7.65,0,0,0,395.08,462Z" fill="none" stroke="#003a50" stroke-miterlimit="10"/><path d="M394.56,461.43c1.41-.14,2.84.4,4.22-1,2-2-.12-4.18,1.91-6.21s4.19.11,6.22-1.92" fill="none" stroke="#003a50" stroke-miterlimit="10"/><rect x="276.57" y="447.13" width="18.91" height="18.91" fill="none" stroke="#003a50" stroke-miterlimit="10"/><path d="M280.6,462a7.67,7.67,0,1,0,0-10.84A7.65,7.65,0,0,0,280.6,462Z" fill="none" stroke="#003a50" stroke-miterlimit="10"/><path d="M280.08,461.43c1.41-.14,2.84.4,4.22-1,2-2-.12-4.18,1.92-6.21s4.18.11,6.22-1.92" fill="none" stroke="#003a50" stroke-miterlimit="10"/><rect x="300.68" y="447.13" width="85.08" height="94.54" fill="none" stroke="#003a50" stroke-miterlimit="10"/><path d="M309,533.55h68.41a1.74,1.74,0,0,0,1.74-1.74v-56.4H307.28v56.4A1.74,1.74,0,0,0,309,533.55Z" fill="none" stroke="#003a50" stroke-miterlimit="10"/><path d="M345.6,472.4h32.13a1.65,1.65,0,0,0,1.65-1.65V455a1.65,1.65,0,0,0-1.65-1.65H345.6A1.65,1.65,0,0,0,344,455v15.78A1.65,1.65,0,0,0,345.6,472.4Z" fill="none" stroke="#003a50" stroke-miterlimit="10"/><path d="M308.72,472.4h32.13a1.65,1.65,0,0,0,1.65-1.65V455a1.65,1.65,0,0,0-1.65-1.65H308.72a1.65,1.65,0,0,0-1.65,1.65v15.78A1.65,1.65,0,0,0,308.72,472.4Z" fill="none" stroke="#003a50" stroke-miterlimit="10"/><path d="M185.15,528.54a3.4,3.4,0,0,0,3.13-2.1h1.93l5.09,3L193,533.25l-2.66-1.46v11.83H179.24V531.79l-2.66,1.46-2.31-3.77,5.14-3H182A3.45,3.45,0,0,0,185.15,528.54Z" fill="none" stroke="#003a50" stroke-miterlimit="10"/></g><rect x="171.99" y="521.5" width="25.59" height="27.05" fill="none" stroke="#003a50" stroke-miterlimit="10"/><g clip-path="url(#clip-path)"><rect x="144.28" y="561.55" width="28.13" height="26.68" fill="none" stroke="#003a50" stroke-miterlimit="10"/><path d="M338.06,316.59v31h34.56V314.92H339.74A1.67,1.67,0,0,0,338.06,316.59Z" fill="none" stroke="#003a50" stroke-miterlimit="10"/><path d="M303.43,316.42v31.15H338V316.42a1.5,1.5,0,0,0-1.5-1.5H304.93A1.5,1.5,0,0,0,303.43,316.42Z" fill="none" stroke="#003a50" stroke-miterlimit="10"/><path d="M372.62,314.92a2.35,2.35,0,0,1,2.51-2.14h3.19a2.35,2.35,0,0,1,2.51,2.14v36.39H295.22V315.24a2.35,2.35,0,0,1,2.51-2.14h3.19a2.35,2.35,0,0,1,2.51,2.14v32.33h69.19Z" fill="none" stroke="#003a50" stroke-miterlimit="10"/></g><rect x="303.43" y="340.59" width="69.19" height="6.98" fill="none" stroke="#003a50" stroke-miterlimit="10"/><rect x="247.35" y="408.6" width="26.65" height="26.69" fill="none" stroke="#003a50" stroke-miterlimit="10"/><g clip-path="url(#clip-path)"><path d="M264.07,421.33v-8.67h-6.75v8.67a2.78,2.78,0,0,0,2.77,2.78h1.2A2.79,2.79,0,0,0,264.07,421.33Z" fill="none" stroke="#003a50" stroke-miterlimit="10"/></g><polyline points="257.97 432.39 260.69 432.39 263.42 432.39" fill="none" stroke="#003a50" stroke-miterlimit="10"/><line x1="260.69" y1="424.11" x2="260.69" y2="432.39" fill="none" stroke="#003a50" stroke-miterlimit="10"/><rect x="343.47" y="408.58" width="26.12" height="26.12" fill="none" stroke="#003a50" stroke-miterlimit="10"/><g clip-path="url(#clip-path)"><circle cx="362.49" cy="427.48" r="3.56" fill="none" stroke="#003a50" stroke-miterlimit="10"/><circle cx="350.6" cy="427.48" r="3.56" fill="none" stroke="#003a50" stroke-miterlimit="10"/><circle cx="362.49" cy="415.89" r="3.56" fill="none" stroke="#003a50" stroke-miterlimit="10"/><circle cx="350.6" cy="415.89" r="3.56" fill="none" stroke="#003a50" stroke-miterlimit="10"/></g><polyline points="309.15 431.4 304.48 431.4 299.81 431.4" fill="none" stroke="#003a50" stroke-miterlimit="10"/><line x1="304.47" y1="422.04" x2="304.47" y2="431.4" fill="none" stroke="#003a50" stroke-miterlimit="10"/><g clip-path="url(#clip-path)"><rect x="294.16" y="412.5" width="20.66" height="14.9" rx="3.24" fill="none" stroke="#003a50" stroke-miterlimit="10"/><path d="M304.47,420.87a1.67,1.67,0,1,1-1.67,1.67A1.66,1.66,0,0,1,304.47,420.87Z" fill="none" stroke="#003a50" stroke-miterlimit="10"/></g><rect x="220.61" y="408.58" width="26.74" height="26.74" fill="none" stroke="#003a50" stroke-miterlimit="10"/><line x1="241.83" y1="421.95" x2="226.13" y2="421.95" fill="none" stroke="#003a50" stroke-miterlimit="10"/><line x1="233.98" y1="414.1" x2="233.98" y2="429.8" fill="none" stroke="#003a50" stroke-miterlimit="10"/><line x1="239.53" y1="416.4" x2="228.44" y2="427.49" fill="none" stroke="#003a50" stroke-miterlimit="10"/><line x1="228.43" y1="416.4" x2="239.53" y2="427.49" fill="none" stroke="#003a50" stroke-miterlimit="10"/><rect x="220.61" y="408.58" width="198.3" height="29.62" fill="none" stroke="#003a50" stroke-miterlimit="10"/><g clip-path="url(#clip-path)"><rect x="198.92" y="561.14" width="30.83" height="27.09" fill="none" stroke="#003a50" stroke-miterlimit="10"/><rect x="172.41" y="561.72" width="26.51" height="26.51" fill="none" stroke="#003a50" stroke-miterlimit="10"/></g><rect x="57.21" y="332.54" width="52.15" height="24.36" fill="none" stroke="#003a50" stroke-miterlimit="10"/><g clip-path="url(#clip-path)"><path d="M79.09,354.21a.72.72,0,0,0,1.36.32,20.55,20.55,0,0,0,0-18.1.72.72,0,0,0-1-.33.71.71,0,0,0-.32,1,19.22,19.22,0,0,1,0,16.83A.61.61,0,0,0,79.09,354.21Z" fill="none" stroke="#003a50" stroke-miterlimit="10"/><path d="M83.08,354.21a.7.7,0,0,0,.4.64.71.71,0,0,0,1-.32,20.64,20.64,0,0,0,0-18.1.72.72,0,0,0-1.29.63,19.13,19.13,0,0,1,0,16.83A.71.71,0,0,0,83.08,354.21Z" fill="none" stroke="#003a50" stroke-miterlimit="10"/><path d="M87.06,354.21a.72.72,0,0,0,.4.64.73.73,0,0,0,1-.32,20.64,20.64,0,0,0,0-18.1.72.72,0,0,0-1-.33.71.71,0,0,0-.33,1,19.22,19.22,0,0,1,0,16.83A.72.72,0,0,0,87.06,354.21Z" fill="none" stroke="#003a50" stroke-miterlimit="10"/><path d="M91.05,354.21a.72.72,0,0,0,1.36.32,20.55,20.55,0,0,0,0-18.1.72.72,0,0,0-1-.33.71.71,0,0,0-.32,1,19.22,19.22,0,0,1,0,16.83A.61.61,0,0,0,91.05,354.21Z" fill="none" stroke="#003a50" stroke-miterlimit="10"/><path d="M95,354.21a.7.7,0,0,0,.4.64.71.71,0,0,0,1-.32,20.64,20.64,0,0,0,0-18.1.72.72,0,1,0-1.29.63,19.13,19.13,0,0,1,0,16.83A.71.71,0,0,0,95,354.21Z" fill="none" stroke="#003a50" stroke-miterlimit="10"/><path d="M99,354.21a.72.72,0,0,0,.4.64.73.73,0,0,0,1-.32,20.64,20.64,0,0,0,0-18.1.72.72,0,0,0-1-.33.71.71,0,0,0-.33,1,19.22,19.22,0,0,1,0,16.83A.72.72,0,0,0,99,354.21Z" fill="none" stroke="#003a50" stroke-miterlimit="10"/><path d="M75.1,354.21a.72.72,0,0,0,.4.64.73.73,0,0,0,1-.32,20.64,20.64,0,0,0,0-18.1.72.72,0,0,0-1-.33.71.71,0,0,0-.33,1,19.22,19.22,0,0,1,0,16.83A.72.72,0,0,0,75.1,354.21Z" fill="none" stroke="#003a50" stroke-miterlimit="10"/><path d="M71.12,354.21a.72.72,0,0,0,1.36.32,20.64,20.64,0,0,0,0-18.1.72.72,0,1,0-1.29.63,19.13,19.13,0,0,1,0,16.83A.71.71,0,0,0,71.12,354.21Z" fill="none" stroke="#003a50" stroke-miterlimit="10"/></g><line x1="57.21" y1="345.48" x2="109.36" y2="345.48" fill="none" stroke="#003a50" stroke-miterlimit="10"/><rect x="109.57" y="331.94" width="27.53" height="38.04" fill="none" stroke="#003a50" stroke-miterlimit="10"/><g clip-path="url(#clip-path)"><path d="M113.92,341.35a.71.71,0,0,0-.64.4.73.73,0,0,0,.32,1,20.64,20.64,0,0,0,18.1,0,.72.72,0,0,0,.32-1,.71.71,0,0,0-1-.33,19.2,19.2,0,0,1-16.82,0A.72.72,0,0,0,113.92,341.35Z" fill="none" stroke="#003a50" stroke-miterlimit="10"/><path d="M113.92,345.34a.72.72,0,0,0-.32,1.36,20.55,20.55,0,0,0,18.1,0,.71.71,0,0,0,.32-1,.7.7,0,0,0-1-.32,19.2,19.2,0,0,1-16.82,0A.61.61,0,0,0,113.92,345.34Z" fill="none" stroke="#003a50" stroke-miterlimit="10"/><path d="M113.92,349.33a.69.69,0,0,0-.64.4.71.71,0,0,0,.32,1,20.64,20.64,0,0,0,18.1,0,.72.72,0,0,0-.64-1.29,19.11,19.11,0,0,1-16.82,0A.71.71,0,0,0,113.92,349.33Z" fill="none" stroke="#003a50" stroke-miterlimit="10"/><path d="M113.92,353.31a.71.71,0,0,0-.64.4.73.73,0,0,0,.32,1,20.64,20.64,0,0,0,18.1,0,.72.72,0,0,0,.32-1,.71.71,0,0,0-1-.33,19.2,19.2,0,0,1-16.82,0A.72.72,0,0,0,113.92,353.31Z" fill="none" stroke="#003a50" stroke-miterlimit="10"/><path d="M113.92,357.3a.72.72,0,0,0-.32,1.36,20.55,20.55,0,0,0,18.1,0,.71.71,0,0,0,.32-1,.7.7,0,0,0-1-.32,19.2,19.2,0,0,1-16.82,0A.61.61,0,0,0,113.92,357.3Z" fill="none" stroke="#003a50" stroke-miterlimit="10"/><path d="M113.92,361.29a.69.69,0,0,0-.64.4.71.71,0,0,0,.32,1,20.64,20.64,0,0,0,18.1,0,.72.72,0,0,0-.64-1.29,19.11,19.11,0,0,1-16.82,0A.71.71,0,0,0,113.92,361.29Z" fill="none" stroke="#003a50" stroke-miterlimit="10"/></g><line x1="122.65" y1="332.69" x2="122.65" y2="369.98" fill="none" stroke="#003a50" stroke-miterlimit="10"/><rect x="290.74" y="95" width="81.75" height="13.62" fill="none" stroke="#003a50" stroke-miterlimit="10"/><polygon points="366.06 102.25 331.69 99.42 297.17 102.25 297.17 104.22 366.06 104.22 366.06 102.25" fill="none" stroke="#003a50" stroke-miterlimit="10"/><rect x="252.22" y="42.81" width="76.45" height="27.05" fill="none" stroke="#003a50" stroke-miterlimit="10"/><g clip-path="url(#clip-path)"><path d="M265.83,46.64a.78.78,0,0,1,.44-.71.8.8,0,0,1,1.08.36,22.91,22.91,0,0,1,0,20.09.81.81,0,0,1-1.07.36.8.8,0,0,1-.37-1.07,21.27,21.27,0,0,0,0-18.68A.72.72,0,0,1,265.83,46.64Z" fill="none" stroke="#003a50" stroke-miterlimit="10"/><path d="M270.25,46.64a.8.8,0,0,1,1.52-.35,22.91,22.91,0,0,1,0,20.09.81.81,0,0,1-1.07.36.8.8,0,0,1-.36-1.07,21.27,21.27,0,0,0,0-18.68A.73.73,0,0,1,270.25,46.64Z" fill="none" stroke="#003a50" stroke-miterlimit="10"/><path d="M274.68,46.64a.78.78,0,0,1,.44-.71.8.8,0,0,1,1.08.36,22.91,22.91,0,0,1,0,20.09.81.81,0,0,1-1.07.36.8.8,0,0,1-.37-1.07,21.27,21.27,0,0,0,0-18.68A.72.72,0,0,1,274.68,46.64Z" fill="none" stroke="#003a50" stroke-miterlimit="10"/><path d="M279.11,46.64a.8.8,0,0,1,1.51-.35,22.91,22.91,0,0,1,0,20.09.8.8,0,0,1-1.07.36.8.8,0,0,1-.36-1.07,21.27,21.27,0,0,0,0-18.68A.72.72,0,0,1,279.11,46.64Z" fill="none" stroke="#003a50" stroke-miterlimit="10"/><path d="M283.53,46.64a.8.8,0,0,1,1.52-.35,22.91,22.91,0,0,1,0,20.09.81.81,0,0,1-1.07.36.79.79,0,0,1-.36-1.07,21.27,21.27,0,0,0,0-18.68A.73.73,0,0,1,283.53,46.64Z" fill="none" stroke="#003a50" stroke-miterlimit="10"/><path d="M288,46.64a.8.8,0,0,1,1.51-.35,22.91,22.91,0,0,1,0,20.09.8.8,0,0,1-1.07.36.8.8,0,0,1-.36-1.07A21.27,21.27,0,0,0,288,47,.72.72,0,0,1,288,46.64Z" fill="none" stroke="#003a50" stroke-miterlimit="10"/><path d="M261.4,46.64a.8.8,0,0,1,1.52-.35,22.91,22.91,0,0,1,0,20.09.81.81,0,0,1-1.07.36.8.8,0,0,1-.36-1.07,21.27,21.27,0,0,0,0-18.68A.73.73,0,0,1,261.4,46.64Z" fill="none" stroke="#003a50" stroke-miterlimit="10"/><path d="M257,46.64a.8.8,0,0,1,1.51-.35,22.91,22.91,0,0,1,0,20.09.8.8,0,0,1-1.43-.71,21.27,21.27,0,0,0,0-18.68A.72.72,0,0,1,257,46.64Z" fill="none" stroke="#003a50" stroke-miterlimit="10"/></g><line x1="252.22" y1="56.33" x2="328.67" y2="56.33" fill="none" stroke="#003a50" stroke-miterlimit="10"/><g clip-path="url(#clip-path)"><path d="M17.43,49.44h0a1,1,0,0,0-1,1v52.74a1,1,0,0,0,1.93,0V50.41A1,1,0,0,0,17.43,49.44Z" fill="none" stroke="#003a50" stroke-miterlimit="10"/><path d="M38.42,85.25a10.23,10.23,0,0,0,11-16.19.79.79,0,1,0-1.23,1,8.63,8.63,0,0,1-9.8,13.5Z" fill="none" stroke="#003a50" stroke-miterlimit="10"/><rect x="14.85" y="47.67" width="23.56" height="58.2" rx="2.29" fill="none" stroke="#003a50" stroke-miterlimit="10"/><path d="M27.52,57.15a3.81,3.81,0,1,1,0-5.4A3.81,3.81,0,0,1,27.52,57.15Z" fill="none" stroke="#003a50" stroke-miterlimit="10"/><path d="M27.78,56.86c-.7-.07-1.42.2-2.1-.48-1-1,.06-2.09-1-3.1s-2.08.06-3.09-1" fill="none" stroke="#003a50" stroke-miterlimit="10"/><path d="M38.42,82a7.36,7.36,0,1,0,0-13.56Z" fill="none" stroke="#003a50" stroke-miterlimit="10"/></g><rect x="264.92" y="204.4" width="18.91" height="18.91" fill="none" stroke="#003a50" stroke-miterlimit="10"/><g clip-path="url(#clip-path)"><path d="M279.79,208.43a7.67,7.67,0,1,0,0,10.84A7.67,7.67,0,0,0,279.79,208.43Z" fill="none" stroke="#003a50" stroke-miterlimit="10"/><path d="M280.31,209c-1.41.14-2.84-.41-4.22,1-2,2,.12,4.19-1.91,6.22s-4.19-.12-6.22,1.91" fill="none" stroke="#003a50" stroke-miterlimit="10"/></g><rect x="289.1" y="128.76" width="85.08" height="94.54" fill="none" stroke="#003a50" stroke-miterlimit="10"/><g clip-path="url(#clip-path)"><path d="M365.85,136.88H297.44a1.74,1.74,0,0,0-1.74,1.74V195h71.88v-56.4A1.73,1.73,0,0,0,365.85,136.88Z" fill="none" stroke="#003a50" stroke-miterlimit="10"/><path d="M329.27,198H297.14a1.65,1.65,0,0,0-1.65,1.65v15.78a1.65,1.65,0,0,0,1.65,1.65h32.13a1.65,1.65,0,0,0,1.65-1.65V199.68A1.65,1.65,0,0,0,329.27,198Z" fill="none" stroke="#003a50" stroke-miterlimit="10"/><rect x="332.36" y="198.03" width="35.44" height="19.08" rx="1.65" fill="none" stroke="#003a50" stroke-miterlimit="10"/></g><line x1="367.8" y1="183.47" x2="295.49" y2="183.47" fill="none" stroke="#003a50" stroke-miterlimit="10"/><g clip-path="url(#clip-path)"><path d="M111.13,223.3v-2.69c0-18.68,16.35-33.83,36.52-33.83V223.3" fill="none" stroke="#003a50" stroke-miterlimit="10" stroke-width="1.6"/><path d="M219.86,223.3v-2.69c0-18.68-16.35-33.83-36.52-33.83V223.3" fill="none" stroke="#003a50" stroke-miterlimit="10" stroke-width="1.6"/><path d="M219.86,135.77v2.3c0,16-14,28.89-31.2,28.89V135.77" fill="none" stroke="#003a50" stroke-miterlimit="10" stroke-width="1.6"/><path d="M117.71,435.5v-2.29c0-16-14-28.9-31.19-28.9V435.5" fill="none" stroke="#003a50" stroke-miterlimit="10" stroke-width="1.6"/><path d="M299.92,586v-2.69c0-18.68-16.34-33.81-36.5-33.81V586" fill="none" stroke="#003a50" stroke-miterlimit="10" stroke-width="1.6"/><path d="M50.05,421.2H47c-21.41,0-38.76-18.73-38.76-41.84H50.05" fill="none" stroke="#003a50" stroke-miterlimit="10" stroke-width="1.6"/></g><line x1="196.41" y1="429.64" x2="161.69" y2="429.64" fill="none" stroke="#003a50" stroke-miterlimit="10" stroke-width="1.6"/><line x1="84.31" y1="216.86" x2="49.58" y2="216.86" fill="none" stroke="#003a50" stroke-miterlimit="10" stroke-width="1.6"/><rect x="71.67" y="308.33" width="5.75" height="22.95" fill="#003a50"/><rect x="136.16" y="327.08" width="5.75" height="43.45" fill="#003a50"/><rect x="101.5" y="223.3" width="5.75" height="107.97" fill="#003a50"/><rect x="150.91" y="32.11" width="5.75" height="192.5" fill="#003a50"/><rect y="220.86" width="45" height="5.75" fill="#003a50"/><rect x="74.67" y="220.86" width="37.27" height="5.75" fill="#003a50"/><rect x="146.76" y="220.86" width="37.36" height="5.75" fill="#003a50"/><rect x="153.35" y="132.69" width="36.21" height="5.75" fill="#003a50"/><rect x="219.03" y="132.69" width="33.7" height="5.75" fill="#003a50"/><rect x="153.35" y="114.03" width="19.55" height="5.75" fill="#003a50"/><rect x="167.14" y="114.03" width="5.75" height="19.55" fill="#003a50"/><rect x="246.98" y="37.28" width="5.75" height="101.17" fill="#003a50"/><rect x="53.92" y="327.08" width="88" height="5.75" fill="#003a50"/><rect x="59.42" y="433.94" width="27.86" height="5.75" fill="#003a50"/><rect x="59.42" y="484.78" width="23.33" height="5.75" fill="#003a50"/><rect x="80.58" y="526.06" width="62.65" height="5.75" fill="#003a50"/><rect x="47.66" y="501.84" width="5.75" height="51.35" fill="#003a50"/><rect x="77" y="484.78" width="5.75" height="23.33" fill="#003a50"/><rect x="75.23" y="557.25" width="5.75" height="4.51" fill="#003a50"/><rect x="200.5" y="452.19" width="23.33" height="5.75" fill="#003a50"/><rect x="200.5" y="434.61" width="5.75" height="23.33" fill="#003a50"/><rect x="228.17" y="556.04" width="5.69" height="5.72" fill="#003a50"/><rect x="141.33" y="436.93" width="5.75" height="114.84" fill="#003a50"/><rect x="116.83" y="433.94" width="38.21" height="5.75" fill="#003a50"/><rect x="184.92" y="433.94" width="38.21" height="5.75" fill="#003a50"/><rect y="306.49" width="103.42" height="5.75" fill="#003a50"/><rect x="431.18" y="1.61" width="23" height="23" fill="#003a50"/><g clip-path="url(#clip-path)"><rect x="431.18" y="1.61" width="23" height="23" fill="none" stroke="#003a50" stroke-miterlimit="10" stroke-width="2.09"/></g><rect x="413.67" y="125.94" width="40.51" height="13.42" fill="#003a50"/><g clip-path="url(#clip-path)"><rect x="413.67" y="125.94" width="40.51" height="13.42" fill="none" stroke="#003a50" stroke-miterlimit="10" stroke-width="2.09"/></g><rect x="413.67" y="212.19" width="40.51" height="13.42" fill="#003a50"/><g clip-path="url(#clip-path)"><rect x="413.67" y="212.19" width="40.51" height="13.42" fill="none" stroke="#003a50" stroke-miterlimit="10" stroke-width="2.09"/></g><rect x="413.67" y="284.94" width="40.51" height="13.42" fill="#003a50"/><g clip-path="url(#clip-path)"><rect x="413.67" y="284.94" width="40.51" height="13.42" fill="none" stroke="#003a50" stroke-miterlimit="10" stroke-width="2.09"/></g><rect x="413.67" y="370.69" width="40.51" height="13.41" fill="#003a50"/><g clip-path="url(#clip-path)"><rect x="413.67" y="370.69" width="40.51" height="13.42" fill="none" stroke="#003a50" stroke-miterlimit="10" stroke-width="2.09"/></g><rect x="413.67" y="443.44" width="40.51" height="4" fill="#003a50"/><g clip-path="url(#clip-path)"><rect x="413.67" y="443.44" width="40.51" height="13.42" fill="none" stroke="#003a50" stroke-miterlimit="10" stroke-width="2.09"/></g><rect x="413.67" y="212.19" width="30.25" height="86.17" fill="#003a50"/><rect x="413.67" y="212.19" width="30.25" height="86.17" fill="none" stroke="#003a50" stroke-miterlimit="10" stroke-width="2.09"/><rect x="413.67" y="370.69" width="30.25" height="76.76" fill="#003a50"/><g clip-path="url(#clip-path)"><rect x="413.67" y="370.69" width="30.25" height="86.17" fill="none" stroke="#003a50" stroke-miterlimit="10" stroke-width="2.09"/></g><rect x="47.67" y="327.08" width="14.75" height="53.02" fill="#003a50"/><rect x="47.67" y="420.37" width="14.75" height="93.74" fill="#003a50"/><rect x="47.67" y="548.28" width="14.75" height="13.48" fill="#003a50"/><polygon points="219.16 433.94 219.16 561.76 233.86 561.76 233.86 447.45 233.91 447.45 233.91 433.94 219.16 433.94" fill="#003a50"/><rect x="52.55" y="548.28" width="181.31" height="13.48" fill="#003a50"/><rect x="52.54" y="504.29" width="30.21" height="9.82" fill="#003a50"/><rect x="72.42" y="510.44" width="10.33" height="42.74" fill="#003a50"/><polygon points="219.17 433.94 219.16 447.86 233.86 447.86 233.86 447.45 427.91 447.45 427.92 433.94 219.17 433.94" fill="#003a50"/><rect x="219.17" y="222.29" width="208.74" height="13.92" fill="#003a50"/><rect y="327.08" width="55.75" height="15.03" fill="#003a50"/><rect y="32.11" width="14.85" height="301.67" fill="#003a50"/><rect x="11.58" y="1.61" width="12.84" height="40.83" fill="#003a50"/><g clip-path="url(#clip-path)"><rect x="11.58" y="1.61" width="12.84" height="40.83" fill="none" stroke="#003a50" stroke-miterlimit="10" stroke-width="2.09"/></g><rect x="96.25" y="1.61" width="12.84" height="40.83" fill="#003a50"/><g clip-path="url(#clip-path)"><rect x="96.25" y="1.61" width="12.84" height="40.83" fill="none" stroke="#003a50" stroke-miterlimit="10" stroke-width="2.09"/></g><rect x="170.41" y="1.61" width="12.84" height="40.83" fill="#003a50"/><g clip-path="url(#clip-path)"><rect x="170.41" y="1.61" width="12.84" height="40.83" fill="none" stroke="#003a50" stroke-miterlimit="10" stroke-width="2.09"/></g><rect x="241.25" y="1.61" width="12.84" height="40.83" fill="#003a50"/><g clip-path="url(#clip-path)"><rect x="241.25" y="1.61" width="12.84" height="40.83" fill="none" stroke="#003a50" stroke-miterlimit="10" stroke-width="2.09"/></g><rect x="315.41" y="1.61" width="12.84" height="40.83" fill="#003a50"/><g clip-path="url(#clip-path)"><rect x="315.41" y="1.61" width="12.84" height="40.83" fill="none" stroke="#003a50" stroke-miterlimit="10" stroke-width="2.09"/></g><rect y="13.36" width="24.42" height="29.08" fill="#003a50"/><g clip-path="url(#clip-path)"><rect x="-62.59" y="13.36" width="87" height="29.08" fill="none" stroke="#003a50" stroke-miterlimit="10" stroke-width="2.09"/></g><rect x="96.25" y="13.36" width="87" height="29.08" fill="#003a50"/><rect x="96.25" y="13.36" width="87" height="29.08" fill="none" stroke="#003a50" stroke-miterlimit="10" stroke-width="2.09"/><rect x="241.25" y="13.36" width="87" height="29.08" fill="#003a50"/><rect x="241.25" y="13.36" width="87" height="29.08" fill="none" stroke="#003a50" stroke-miterlimit="10" stroke-width="2.09"/><g clip-path="url(#clip-path)"><path d="M94.91,476.89H89.09v-1.84H98v1.84l-4.52,2.65v.07H94.7a3.87,3.87,0,0,1,2.79,1,3.5,3.5,0,0,1,1.06,2.67,3.32,3.32,0,0,1-1.33,2.82,7,7,0,0,1-7.24,0,3.36,3.36,0,0,1-1.33-2.86v-.32h2.11v.32c0,1.37.95,2,2.84,2s2.84-.67,2.84-2-1-2-2.84-2H90.34v-1.67L94.91,477Z" fill="#003a50"/><path d="M100.65,486.83a1,1,0,0,1-.32-.81,1,1,0,0,1,.32-.81,1.45,1.45,0,0,1,1.74,0,1.07,1.07,0,0,1,.32.81,1,1,0,0,1-.32.81,1.45,1.45,0,0,1-1.74,0Z" fill="#003a50"/><path d="M106.06,485.42a7.33,7.33,0,0,1,0-8.83,5.69,5.69,0,0,1,8.13,0,7.33,7.33,0,0,1,0,8.83,5.71,5.71,0,0,1-8.13,0Zm6.52-1.38a5.69,5.69,0,0,0,0-6.08,3.16,3.16,0,0,0-4.91,0,5.69,5.69,0,0,0,0,6.08,3.14,3.14,0,0,0,4.91,0Z" fill="#003a50"/><path d="M166.7,476.89h-5.82v-1.84h8.86v1.84l-4.52,2.65v.07h1.27a3.91,3.91,0,0,1,2.8,1,3.52,3.52,0,0,1,1.05,2.67,3.32,3.32,0,0,1-1.33,2.82,7,7,0,0,1-7.24,0,3.36,3.36,0,0,1-1.33-2.86v-.32h2.11v.32c0,1.37.95,2,2.84,2s2.84-.67,2.84-2-.95-2-2.84-2h-3.26v-1.67L166.7,477Z" fill="#003a50"/><path d="M172.44,486.83a1,1,0,0,1-.32-.81,1,1,0,0,1,.32-.81,1.45,1.45,0,0,1,1.74,0,1.07,1.07,0,0,1,.32.81,1,1,0,0,1-.32.81,1.45,1.45,0,0,1-1.74,0Z" fill="#003a50"/><path d="M179.55,487H177.2l5.41-10h-6.92v-1.88H185v1.88Z" fill="#003a50"/><path d="M89.69,377.12H83.87v-1.84h8.86v1.84l-4.53,2.65v.07h1.28a3.9,3.9,0,0,1,2.79,1,3.5,3.5,0,0,1,1.06,2.67A3.35,3.35,0,0,1,92,386.34a6.93,6.93,0,0,1-7.24,0,3.35,3.35,0,0,1-1.33-2.85v-.33h2.11v.33c0,1.36.94,2,2.84,2s2.84-.67,2.84-2-1-2-2.84-2H85.11v-1.67l4.58-2.68Z" fill="#003a50"/><path d="M95.43,387.06a1.15,1.15,0,0,1,0-1.61,1.23,1.23,0,0,1,.87-.3,1.2,1.2,0,0,1,.86.3,1.15,1.15,0,0,1,0,1.61,1.2,1.2,0,0,1-.86.3A1.23,1.23,0,0,1,95.43,387.06Z" fill="#003a50"/><path d="M99.56,383.84h2.21s0,.07,0,.18a2.71,2.71,0,0,0,.23.43,2.43,2.43,0,0,0,.41.49,2.36,2.36,0,0,0,.76.42,3.13,3.13,0,0,0,1.05.16,2.66,2.66,0,0,0,2.24-1.06,4.34,4.34,0,0,0,.8-2.71h0a2.55,2.55,0,0,1-.44.47,2.8,2.8,0,0,1-.6.39,3.86,3.86,0,0,1-.95.33,5.58,5.58,0,0,1-1.23.13,4.92,4.92,0,0,1-3.36-1.13,3.73,3.73,0,0,1,0-5.72,5.49,5.49,0,0,1,3.6-1.1,4.81,4.81,0,0,1,3.87,1.54,6.4,6.4,0,0,1,1.32,4.27v.41a6.66,6.66,0,0,1-1.37,4.31,4.69,4.69,0,0,1-3.88,1.71,5.91,5.91,0,0,1-2.17-.38,3.85,3.85,0,0,1-1.48-.94A3.33,3.33,0,0,1,99.56,383.84Zm2.78-3.16a3.58,3.58,0,0,0,3.94,0,2,2,0,0,0,0-3.15,3.21,3.21,0,0,0-2-.58,3.17,3.17,0,0,0-2,.58,1.88,1.88,0,0,0-.78,1.58A1.85,1.85,0,0,0,102.34,380.68Z" fill="#003a50"/><path d="M51.42,258H45.6v-1.84h8.86V258l-4.52,2.65v.07h1.27a3.83,3.83,0,0,1,2.79,1,3.49,3.49,0,0,1,1.06,2.66,3.33,3.33,0,0,1-1.33,2.83,5.89,5.89,0,0,1-3.62,1,5.85,5.85,0,0,1-3.62-1,3.36,3.36,0,0,1-1.33-2.86V264h2.11v.32c0,1.36.95,2,2.84,2s2.84-.67,2.84-2-1-2-2.84-2H46.85v-1.67l4.57-2.68Z" fill="#003a50"/><path d="M57.16,267.93a1,1,0,0,1-.32-.8,1,1,0,0,1,.32-.81,1.41,1.41,0,0,1,1.74,0,1.07,1.07,0,0,1,.32.81,1,1,0,0,1-.32.8,1.41,1.41,0,0,1-1.74,0Z" fill="#003a50"/><path d="M66.44,260.08a5,5,0,0,1,3.34,1.07,4.16,4.16,0,0,1,0,6,5.38,5.38,0,0,1-3.54,1.08,5.8,5.8,0,0,1-3.57-1,3.15,3.15,0,0,1-1.28-2.68h2.11a1.53,1.53,0,0,0,.7,1.33,3.57,3.57,0,0,0,2,.49,3.11,3.11,0,0,0,2-.58,2.06,2.06,0,0,0,.7-1.68,2,2,0,0,0-.74-1.7,3.25,3.25,0,0,0-2.07-.59,3.6,3.6,0,0,0-1.92.42,2,2,0,0,0-.7.64l0,.12H61.35v-6.87h8.87V258H63.46v3h0a2.22,2.22,0,0,1,.4-.31,4,4,0,0,1,.55-.27A5.63,5.63,0,0,1,66.44,260.08Z" fill="#003a50"/><path d="M342.87,293.39h-9.93v-1.56a2.79,2.79,0,0,1,.58-1.75,4.08,4.08,0,0,1,1.44-1.19c.5-.26,1.12-.54,1.87-.86s1.32-.56,1.88-.78a4.07,4.07,0,0,0,1.44-.91,1.81,1.81,0,0,0,.58-1.3q0-1.89-2.67-1.89t-2.67,2.16v.41h-2.11v-.41a3.62,3.62,0,0,1,1.26-3,5.34,5.34,0,0,1,3.51-1,5.61,5.61,0,0,1,3.51,1,3.27,3.27,0,0,1,1.27,2.75,3.16,3.16,0,0,1-.55,1.83,4.25,4.25,0,0,1-1.4,1.3,18.74,18.74,0,0,1-1.84.94c-.63.27-1.24.52-1.83.74a5.26,5.26,0,0,0-1.4.75,1.22,1.22,0,0,0-.57,1h7.63Z" fill="#003a50"/><path d="M353.64,292.63a7.73,7.73,0,0,1-7.37,0,3,3,0,0,1-1.37-2.56,2.7,2.7,0,0,1,.26-1.16,2.32,2.32,0,0,1,.66-.86,4,4,0,0,1,1.39-.77l.26-.07v-.09a3.11,3.11,0,0,1-.77-.29,2.61,2.61,0,0,1-.66-.44,2.2,2.2,0,0,1-.54-.75,2.45,2.45,0,0,1-.22-1,2.81,2.81,0,0,1,1.25-2.39,7,7,0,0,1,6.85,0,2.84,2.84,0,0,1,1.25,2.39,2.62,2.62,0,0,1-.22,1,1.88,1.88,0,0,1-.56.74,3.59,3.59,0,0,1-1.19.68l-.23.05v.09l.29.07a6.35,6.35,0,0,1,.62.27,3.79,3.79,0,0,1,.77.5,3,3,0,0,1,.62.82,2.71,2.71,0,0,1,.27,1.2A3,3,0,0,1,353.64,292.63Zm-5.79-1.36a4.88,4.88,0,0,0,4.2,0,1.59,1.59,0,0,0,0-2.69,4.93,4.93,0,0,0-4.2,0,1.58,1.58,0,0,0,0,2.68Zm-.36-6.52a1.37,1.37,0,0,0,.64,1.2,3.24,3.24,0,0,0,1.82.43,3.2,3.2,0,0,0,1.82-.43,1.43,1.43,0,0,0,0-2.4,4,4,0,0,0-3.62,0A1.35,1.35,0,0,0,347.49,284.75Z" fill="#003a50"/><path d="M357.11,293.26a1.17,1.17,0,0,1,0-1.61,1.41,1.41,0,0,1,1.74,0,1.17,1.17,0,0,1,0,1.61,1.41,1.41,0,0,1-1.74,0Z" fill="#003a50"/><path d="M369.69,292.63a7.71,7.71,0,0,1-7.36,0,2.94,2.94,0,0,1-1.37-2.56,2.69,2.69,0,0,1,.25-1.16,2.32,2.32,0,0,1,.66-.86,4.11,4.11,0,0,1,1.39-.77l.26-.07v-.09a2.91,2.91,0,0,1-.76-.29,2.68,2.68,0,0,1-.67-.44,2.2,2.2,0,0,1-.54-.75,2.45,2.45,0,0,1-.22-1,2.83,2.83,0,0,1,1.25-2.39,7,7,0,0,1,6.85,0,2.84,2.84,0,0,1,1.25,2.39,2.46,2.46,0,0,1-.22,1,2,2,0,0,1-.55.74,3.72,3.72,0,0,1-1.2.68l-.22.05v.09l.28.07a5.42,5.42,0,0,1,.62.27,4.19,4.19,0,0,1,.78.5,3,3,0,0,1,.61.82,2.71,2.71,0,0,1,.27,1.2A3,3,0,0,1,369.69,292.63Zm-5.79-1.36a3.84,3.84,0,0,0,2.1.48,3.91,3.91,0,0,0,2.11-.47,1.6,1.6,0,0,0,0-2.69,4.95,4.95,0,0,0-4.21,0,1.58,1.58,0,0,0,0,2.68Zm-.36-6.52a1.37,1.37,0,0,0,.64,1.2,4.09,4.09,0,0,0,3.65,0,1.43,1.43,0,0,0,0-2.4,4,4,0,0,0-3.62,0A1.38,1.38,0,0,0,363.54,284.75Z" fill="#003a50"/><path d="M337.85,551.56l-2.48,2v-2.24L338.1,549H340v11.91h-2.11Z" fill="#003a50"/><path d="M352.35,560.91h-9.93v-1.56a2.79,2.79,0,0,1,.58-1.75,4.11,4.11,0,0,1,1.45-1.19c.49-.26,1.12-.54,1.86-.87l1.88-.77a4.21,4.21,0,0,0,1.45-.91,1.8,1.8,0,0,0,.57-1.3q0-1.89-2.67-1.89t-2.67,2.16v.41h-2.11v-.41a3.6,3.6,0,0,1,1.26-3,5.39,5.39,0,0,1,3.52-1,5.65,5.65,0,0,1,3.51,1,3.27,3.27,0,0,1,1.27,2.75,3.17,3.17,0,0,1-.56,1.83,4.16,4.16,0,0,1-1.4,1.3,16.7,16.7,0,0,1-1.84.93c-.62.28-1.23.53-1.82.75a5.18,5.18,0,0,0-1.41.75,1.23,1.23,0,0,0-.56,1h7.62Z" fill="#003a50"/><path d="M354.45,560.78a1.17,1.17,0,0,1,0-1.61,1.25,1.25,0,0,1,.88-.3,1.23,1.23,0,0,1,.86.3,1.17,1.17,0,0,1,0,1.61,1.23,1.23,0,0,1-.86.3A1.25,1.25,0,0,1,354.45,560.78Z" fill="#003a50"/><path d="M364.56,550.84h-5.82V549h8.86v1.84l-4.53,2.65v.07h1.28a3.9,3.9,0,0,1,2.79,1,3.5,3.5,0,0,1,1.06,2.67,3.35,3.35,0,0,1-1.33,2.82,6.93,6.93,0,0,1-7.24,0,3.35,3.35,0,0,1-1.33-2.85v-.33h2.11v.33c0,1.36.94,2,2.84,2s2.84-.67,2.84-2-.95-2-2.84-2H360v-1.67l4.58-2.68Z" fill="#003a50"/><path d="M69.52,155.54l-2.49,2v-2.25L69.77,153h1.86V164.9H69.52Z" fill="#003a50"/><path d="M84,164.9H74.08v-1.57a2.77,2.77,0,0,1,.59-1.74,4,4,0,0,1,1.44-1.2c.5-.25,1.12-.54,1.87-.86s1.32-.56,1.88-.77a4.09,4.09,0,0,0,1.44-.92,1.78,1.78,0,0,0,.57-1.3c0-1.26-.88-1.88-2.66-1.88s-2.68.72-2.68,2.15v.41h-2.1v-.41a3.62,3.62,0,0,1,1.26-3,5.34,5.34,0,0,1,3.51-1,5.61,5.61,0,0,1,3.51,1A3.29,3.29,0,0,1,84,156.54a3.17,3.17,0,0,1-.55,1.84,4.39,4.39,0,0,1-1.41,1.3c-.59.34-1.21.65-1.83.93s-1.24.53-1.83.75a5.55,5.55,0,0,0-1.4.74,1.25,1.25,0,0,0-.57,1H84Z" fill="#003a50"/><path d="M86.12,164.76a1,1,0,0,1-.33-.8,1,1,0,0,1,.33-.81,1.23,1.23,0,0,1,.87-.3,1.2,1.2,0,0,1,.86.3,1,1,0,0,1,.33.81,1,1,0,0,1-.33.8,1.2,1.2,0,0,1-.86.3A1.23,1.23,0,0,1,86.12,164.76Z" fill="#003a50"/><path d="M99.9,164.9H90v-1.57a2.77,2.77,0,0,1,.59-1.74,4,4,0,0,1,1.44-1.2c.5-.25,1.12-.54,1.87-.86s1.32-.56,1.88-.77a4.09,4.09,0,0,0,1.44-.92,1.78,1.78,0,0,0,.57-1.3c0-1.26-.88-1.88-2.66-1.88s-2.68.72-2.68,2.15v.41H90.3v-.41a3.62,3.62,0,0,1,1.27-3,5.34,5.34,0,0,1,3.51-1,5.63,5.63,0,0,1,3.51,1,3.29,3.29,0,0,1,1.27,2.75,3.17,3.17,0,0,1-.55,1.84,4.39,4.39,0,0,1-1.41,1.3c-.59.34-1.21.65-1.83.93s-1.24.53-1.83.75a5.55,5.55,0,0,0-1.4.74,1.25,1.25,0,0,0-.57,1H99.9Z" fill="#003a50"/><path d="M193.22,128.09h-2.11v-2.65h-7V123.6l6.29-7.42h2.8v7.42h1.59v1.84h-1.59Zm-2.11-4.49v-5.33H191l-4.48,5.28v0Z" fill="#003a50"/><path d="M196.5,128a1.15,1.15,0,0,1,0-1.61,1.4,1.4,0,0,1,1.73,0,1.15,1.15,0,0,1,0,1.61,1.4,1.4,0,0,1-1.73,0Z" fill="#003a50"/><path d="M210.27,128.09h-9.93v-1.56a2.74,2.74,0,0,1,.58-1.74,4,4,0,0,1,1.45-1.2c.5-.26,1.12-.54,1.87-.86s1.32-.56,1.87-.78a4.21,4.21,0,0,0,1.45-.91,1.8,1.8,0,0,0,.57-1.3q0-1.89-2.67-1.89T202.79,120v.41h-2.11V120a3.65,3.65,0,0,1,1.26-3,5.45,5.45,0,0,1,3.52-1,5.65,5.65,0,0,1,3.51,1,3.27,3.27,0,0,1,1.27,2.75,3.17,3.17,0,0,1-.56,1.83,4.16,4.16,0,0,1-1.4,1.3,18.74,18.74,0,0,1-1.84.94c-.62.27-1.23.52-1.82.74a5.18,5.18,0,0,0-1.41.75,1.23,1.23,0,0,0-.56,1h7.62Z" fill="#003a50"/><path d="M221.31,181.56H219.2v-2.65h-7v-1.84l6.29-7.42h2.79v7.42h1.6v1.84h-1.6Zm-2.11-4.49v-5.32h-.06L214.66,177v0Z" fill="#003a50"/><path d="M224.59,181.43a1,1,0,0,1-.32-.81,1.06,1.06,0,0,1,.32-.8,1.41,1.41,0,0,1,1.74,0,1.06,1.06,0,0,1,.32.8,1,1,0,0,1-.32.81,1.41,1.41,0,0,1-1.74,0Z" fill="#003a50"/><path d="M230,180a7.34,7.34,0,0,1,0-8.84,5.71,5.71,0,0,1,8.13,0,7.34,7.34,0,0,1,0,8.84,5.71,5.71,0,0,1-8.13,0Zm6.53-1.39a5.73,5.73,0,0,0,0-6.07,3.15,3.15,0,0,0-4.92,0,5.67,5.67,0,0,0,0,6.07,2.88,2.88,0,0,0,2.46,1.19A2.91,2.91,0,0,0,236.53,178.64Z" fill="#003a50"/><path d="M67.69,25.55a4.55,4.55,0,0,1-1-3.12,4.57,4.57,0,0,1,1-3.12,4,4,0,0,1,5.73,0,4.56,4.56,0,0,1,1,3.12,4.54,4.54,0,0,1-1,3.12,4,4,0,0,1-5.73,0Zm4.6-1a3.52,3.52,0,0,0,.62-2.14,3.5,3.5,0,0,0-.62-2.14,2.21,2.21,0,0,0-3.47,0,3.5,3.5,0,0,0-.62,2.14,3.52,3.52,0,0,0,.62,2.14,2.21,2.21,0,0,0,3.47,0Z" fill="#003a50"/><path d="M76,26.54a.73.73,0,0,1-.23-.57A.75.75,0,0,1,76,25.4a1,1,0,0,1,1.23,0,.74.74,0,0,1,.22.57.72.72,0,0,1-.22.57,1,1,0,0,1-1.23,0Z" fill="#003a50"/><path d="M85.62,20.6H84.06s0-.05,0-.13a1.85,1.85,0,0,0-.16-.31,1.49,1.49,0,0,0-.27-.35,1.32,1.32,0,0,0-.5-.29,2,2,0,0,0-.71-.11,1.78,1.78,0,0,0-1.52.72,3.12,3.12,0,0,0-.54,1.9h0a1.28,1.28,0,0,1,.31-.31,3.28,3.28,0,0,1,.43-.26,3.14,3.14,0,0,1,.67-.21,4.12,4.12,0,0,1,.86-.09,3.57,3.57,0,0,1,2.38.78,2.49,2.49,0,0,1,.92,2,2.52,2.52,0,0,1-1,2,3.92,3.92,0,0,1-2.55.78,3.41,3.41,0,0,1-2.73-1.09,4.5,4.5,0,0,1-.93-3v-.29a4.83,4.83,0,0,1,.93-3,3.2,3.2,0,0,1,2.69-1.21,3.93,3.93,0,0,1,1.5.27,2.61,2.61,0,0,1,1,.66A2.44,2.44,0,0,1,85.62,20.6Zm-1.77,2.22a2.58,2.58,0,0,0-2.79,0,1.3,1.3,0,0,0-.55,1.11A1.32,1.32,0,0,0,81.06,25a2.28,2.28,0,0,0,1.4.41,2.32,2.32,0,0,0,1.4-.41,1.34,1.34,0,0,0,.54-1.11A1.3,1.3,0,0,0,83.85,22.82Z" fill="#003a50"/><path d="M217.9,25.55a4.59,4.59,0,0,1-1-3.12,4.61,4.61,0,0,1,1-3.12,4,4,0,0,1,5.74,0,4.61,4.61,0,0,1,1,3.12,4.59,4.59,0,0,1-1,3.12,4,4,0,0,1-5.74,0Zm4.61-1a3.52,3.52,0,0,0,.61-2.14,3.5,3.5,0,0,0-.61-2.14,2.05,2.05,0,0,0-1.74-.84,2,2,0,0,0-1.73.84,3.44,3.44,0,0,0-.62,2.14,3.46,3.46,0,0,0,.62,2.14,2,2,0,0,0,1.73.84A2.05,2.05,0,0,0,222.51,24.57Z" fill="#003a50"/><path d="M226.23,26.54A.7.7,0,0,1,226,26a.71.71,0,0,1,.23-.57,1,1,0,0,1,1.22,0,.75.75,0,0,1,.23.57.73.73,0,0,1-.23.57,1,1,0,0,1-1.22,0Z" fill="#003a50"/><path d="M234.93,26.63h-1.49V24.76h-4.92v-1.3L233,18.23h2v5.23h1.12v1.3h-1.12Zm-1.49-3.17V19.71h-.05l-3.16,3.72v0Z" fill="#003a50"/><path d="M343.32,20l-1.76,1.38V19.83l1.93-1.6h1.31v8.4h-1.48Z" fill="#003a50"/><path d="M346.59,26.54a.7.7,0,0,1-.23-.57.71.71,0,0,1,.23-.57,1,1,0,0,1,1.22,0A.75.75,0,0,1,348,26a.73.73,0,0,1-.23.57,1,1,0,0,1-1.22,0Z" fill="#003a50"/><path d="M356.2,20.6h-1.56a.37.37,0,0,0,0-.13,2.73,2.73,0,0,0-.15-.31,2.33,2.33,0,0,0-.27-.35,1.37,1.37,0,0,0-.51-.29,2,2,0,0,0-.71-.11,1.76,1.76,0,0,0-1.51.72,3.12,3.12,0,0,0-.54,1.9h0a1.12,1.12,0,0,1,.31-.31,2.73,2.73,0,0,1,.43-.26,3,3,0,0,1,.67-.21,4,4,0,0,1,.85-.09,3.55,3.55,0,0,1,2.38.78,2.46,2.46,0,0,1,.92,2,2.52,2.52,0,0,1-1,2,3.87,3.87,0,0,1-2.54.78,3.38,3.38,0,0,1-2.73-1.09,4.5,4.5,0,0,1-.93-3v-.29a4.83,4.83,0,0,1,.93-3A3.16,3.16,0,0,1,353,18.11a3.86,3.86,0,0,1,1.5.27,2.73,2.73,0,0,1,1,.66A2.44,2.44,0,0,1,356.2,20.6Zm-1.77,2.22a2.26,2.26,0,0,0-1.4-.41,2.21,2.21,0,0,0-1.39.41,1.3,1.3,0,0,0-.55,1.11,1.34,1.34,0,0,0,.54,1.11,2.6,2.6,0,0,0,2.8,0,1.35,1.35,0,0,0,.55-1.11A1.32,1.32,0,0,0,354.43,22.82Z" fill="#003a50"/><path d="M438.29,202.72a5.2,5.2,0,0,1-6.24,0,3.63,3.63,0,0,1-1.2-2.88,3.59,3.59,0,0,1,1.2-2.86,5.2,5.2,0,0,1,6.24,0,3.59,3.59,0,0,1,1.2,2.86A3.63,3.63,0,0,1,438.29,202.72Zm-1-4.61a4,4,0,0,0-4.28,0,2.21,2.21,0,0,0,0,3.47,3.48,3.48,0,0,0,2.14.62,3.52,3.52,0,0,0,2.14-.62,2.21,2.21,0,0,0,0-3.47Z" fill="#003a50"/><path d="M439.28,194.39a.73.73,0,0,1-.57.23.75.75,0,0,1-.57-.23,1,1,0,0,1,0-1.23.74.74,0,0,1,.57-.22.72.72,0,0,1,.57.22,1,1,0,0,1,0,1.23Z" fill="#003a50"/><path d="M433.34,184.78v1.56s0,0-.13,0a1.2,1.2,0,0,0-.31.15,1.49,1.49,0,0,0-.35.27,1.32,1.32,0,0,0-.29.5,2,2,0,0,0-.11.71,1.78,1.78,0,0,0,.72,1.52,3.12,3.12,0,0,0,1.9.54v0a1.28,1.28,0,0,1-.31-.31,3.28,3.28,0,0,1-.26-.43,3.14,3.14,0,0,1-.21-.67,4.12,4.12,0,0,1-.09-.86,3.57,3.57,0,0,1,.78-2.38,2.49,2.49,0,0,1,2-.92,2.52,2.52,0,0,1,2,1,3.92,3.92,0,0,1,.78,2.55,3.41,3.41,0,0,1-1.09,2.73,4.5,4.5,0,0,1-3,.93h-.29a4.83,4.83,0,0,1-3-.93,3.18,3.18,0,0,1-1.21-2.69,3.93,3.93,0,0,1,.27-1.5,2.69,2.69,0,0,1,.66-1A2.44,2.44,0,0,1,433.34,184.78Zm2.22,1.77a2.58,2.58,0,0,0,0,2.79,1.3,1.3,0,0,0,1.11.55,1.32,1.32,0,0,0,1.11-.55,2.28,2.28,0,0,0,.41-1.4,2.32,2.32,0,0,0-.41-1.4,1.34,1.34,0,0,0-1.11-.54A1.3,1.3,0,0,0,435.56,186.55Z" fill="#003a50"/><path d="M438.29,362.05a5.2,5.2,0,0,1-6.24,0,4,4,0,0,1,0-5.73,5.16,5.16,0,0,1,6.24,0,4,4,0,0,1,0,5.73Zm-1-4.6a4,4,0,0,0-4.28,0,2.2,2.2,0,0,0,0,3.46,3.42,3.42,0,0,0,2.14.63,3.46,3.46,0,0,0,2.14-.63,2.2,2.2,0,0,0,0-3.46Z" fill="#003a50"/><path d="M439.28,353.73a.72.72,0,0,1-.57.22.74.74,0,0,1-.57-.22.9.9,0,0,1-.21-.62.87.87,0,0,1,.21-.61.75.75,0,0,1,.57-.23.73.73,0,0,1,.57.23.87.87,0,0,1,.21.61A.9.9,0,0,1,439.28,353.73Z" fill="#003a50"/><path d="M433.34,344.12v1.55l-.13,0-.31.15a1.87,1.87,0,0,0-.35.28,1.25,1.25,0,0,0-.29.5,2,2,0,0,0-.11.71,1.79,1.79,0,0,0,.72,1.52,3.12,3.12,0,0,0,1.9.54v0a1,1,0,0,1-.31-.31,3.19,3.19,0,0,1-.26-.42A3.33,3.33,0,0,1,434,348a4.12,4.12,0,0,1-.09-.86,3.57,3.57,0,0,1,.78-2.38,2.46,2.46,0,0,1,2-.92,2.52,2.52,0,0,1,2,1,3.89,3.89,0,0,1,.78,2.54A3.41,3.41,0,0,1,438.4,350a4.5,4.5,0,0,1-3,.93h-.29a4.83,4.83,0,0,1-3-.93,3.16,3.16,0,0,1-1.21-2.68,3.93,3.93,0,0,1,.27-1.5,2.61,2.61,0,0,1,.66-1A2.39,2.39,0,0,1,433.34,344.12Zm2.22,1.77a2.56,2.56,0,0,0,0,2.78,1.3,1.3,0,0,0,1.11.56,1.35,1.35,0,0,0,1.11-.55,2.6,2.6,0,0,0,0-2.8,1.35,1.35,0,0,0-1.11-.55A1.3,1.3,0,0,0,435.56,345.89Z" fill="#003a50"/><path d="M438.29,520.15a5.2,5.2,0,0,1-6.24,0,4,4,0,0,1,0-5.74,5.2,5.2,0,0,1,6.24,0,4,4,0,0,1,0,5.74Zm-1-4.6a4,4,0,0,0-4.28,0,2.2,2.2,0,0,0,0,3.46,3.42,3.42,0,0,0,2.14.63,3.46,3.46,0,0,0,2.14-.63,2.2,2.2,0,0,0,0-3.46Z" fill="#003a50"/><path d="M439.28,511.83a.72.72,0,0,1-.57.22.74.74,0,0,1-.57-.22.9.9,0,0,1-.21-.62.87.87,0,0,1,.21-.61.75.75,0,0,1,.57-.23.73.73,0,0,1,.57.23.87.87,0,0,1,.21.61A.9.9,0,0,1,439.28,511.83Z" fill="#003a50"/><path d="M433.34,502.22v1.55l-.13,0-.31.15a1.87,1.87,0,0,0-.35.28,1.25,1.25,0,0,0-.29.5,2,2,0,0,0-.11.71,1.79,1.79,0,0,0,.72,1.52,3.12,3.12,0,0,0,1.9.53v0a1,1,0,0,1-.31-.31,3.19,3.19,0,0,1-.26-.42A3.25,3.25,0,0,1,434,506a4,4,0,0,1-.09-.85,3.55,3.55,0,0,1,.78-2.38,2.46,2.46,0,0,1,2-.92,2.52,2.52,0,0,1,2,1,3.89,3.89,0,0,1,.78,2.54,3.41,3.41,0,0,1-1.09,2.73,4.5,4.5,0,0,1-3,.93h-.29a4.83,4.83,0,0,1-3-.93,3.16,3.16,0,0,1-1.21-2.68,3.93,3.93,0,0,1,.27-1.5,2.73,2.73,0,0,1,.66-1A2.42,2.42,0,0,1,433.34,502.22Zm2.22,1.77a2.56,2.56,0,0,0,0,2.78,1.3,1.3,0,0,0,1.11.56,1.35,1.35,0,0,0,1.11-.55,2.6,2.6,0,0,0,0-2.8,1.35,1.35,0,0,0-1.11-.55A1.3,1.3,0,0,0,435.56,504Z" fill="#003a50"/><path d="M337.17,71.83l-2.48,2V71.54l2.73-2.26h1.86V81.19h-2.11Z" fill="#003a50"/><path d="M347.18,73.2a5,5,0,0,1,3.33,1.07,4.16,4.16,0,0,1,0,6,5.38,5.38,0,0,1-3.54,1.08,5.8,5.8,0,0,1-3.57-1,3.18,3.18,0,0,1-1.28-2.68h2.11a1.53,1.53,0,0,0,.7,1.33,3.61,3.61,0,0,0,2,.49,3.11,3.11,0,0,0,2-.58,2.06,2.06,0,0,0,.7-1.68,2,2,0,0,0-.74-1.7,3.25,3.25,0,0,0-2.07-.59,3.6,3.6,0,0,0-1.92.42,1.87,1.87,0,0,0-.69.64l-.05.12h-2.11V69.28H351v1.84h-6.76v3h.05a1.83,1.83,0,0,1,.39-.31,4,4,0,0,1,.55-.27A5.66,5.66,0,0,1,347.18,73.2Z" fill="#003a50"/><path d="M353.88,81.05a1,1,0,0,1-.33-.8,1,1,0,0,1,.33-.81,1.4,1.4,0,0,1,1.73,0,1,1,0,0,1,.33.81,1,1,0,0,1-.33.8,1.4,1.4,0,0,1-1.73,0Z" fill="#003a50"/><path d="M359.28,79.65a7.38,7.38,0,0,1,0-8.84,5.71,5.71,0,0,1,8.13,0,7.34,7.34,0,0,1,0,8.84,5.71,5.71,0,0,1-8.13,0Zm6.53-1.39a5,5,0,0,0,.87-3,5,5,0,0,0-.87-3,3.14,3.14,0,0,0-4.91,0,4.94,4.94,0,0,0-.89,3,4.89,4.89,0,0,0,.89,3,2.87,2.87,0,0,0,2.45,1.19A2.9,2.9,0,0,0,365.81,78.26Z" fill="#003a50"/></g></svg>