<svg id="Слой_1" data-name="Слой 1" xmlns="http://www.w3.org/2000/svg" xmlns:xlink="http://www.w3.org/1999/xlink" viewBox="0 0 434.55 477.07"><defs><clipPath id="clip-path"><polygon points="0.04 0 0.04 477.07 292.96 477.07 292.96 310.2 434.52 310.2 434.52 0 0.04 0" fill="none"/></clipPath></defs><rect x="41.54" width="351.32" height="7.24" fill="#fff"/><polygon points="41.54 5.4 41.54 469.65 287.85 469.65 287.85 302.83 392.85 302.83 392.85 5.4 41.54 5.4" fill="#fff"/><g clip-path="url(#clip-path)"><line x1="23.93" y1="-843.16" x2="23.93" y2="497.96" fill="none" stroke="#003a50" stroke-miterlimit="10"/><line x1="40.55" y1="-820.21" x2="40.55" y2="497.96" fill="none" stroke="#003a50" stroke-miterlimit="10"/><line x1="142.44" y1="473.33" x2="142.44" y2="1678.21" fill="none" stroke="#003a50" stroke-miterlimit="10"/><line x1="161.98" y1="473.33" x2="161.98" y2="1678.21" fill="none" stroke="#003a50" stroke-miterlimit="10"/></g><rect x="29.47" y="61.04" width="4.55" height="69.92" fill="#fff"/><rect x="29.47" y="61.04" width="4.55" height="69.92" fill="none" stroke="#003a50" stroke-miterlimit="10"/><line x1="31.74" y1="130.97" x2="31.74" y2="61.04" fill="none" stroke="#003a50" stroke-miterlimit="10"/><rect x="29.47" y="126.55" width="4.55" height="4.42" fill="#fff"/><rect x="29.47" y="126.55" width="4.55" height="4.42" fill="none" stroke="#003a50" stroke-miterlimit="10"/><rect x="29.47" y="61.04" width="4.55" height="4.42" fill="#fff"/><rect x="29.47" y="61.04" width="4.55" height="4.42" fill="none" stroke="#003a50" stroke-miterlimit="10"/><rect x="29.47" y="96.01" width="4.55" height="4.42" fill="#fff"/><rect x="29.47" y="96.01" width="4.55" height="4.42" fill="none" stroke="#003a50" stroke-miterlimit="10"/><rect x="29.47" y="219.71" width="4.55" height="69.94" fill="#fff"/><rect x="29.47" y="219.71" width="4.55" height="69.94" fill="none" stroke="#003a50" stroke-miterlimit="10"/><line x1="31.74" y1="289.65" x2="31.74" y2="219.71" fill="none" stroke="#003a50" stroke-miterlimit="10"/><rect x="29.47" y="285.23" width="4.55" height="4.42" fill="#fff"/><rect x="29.47" y="285.23" width="4.55" height="4.42" fill="none" stroke="#003a50" stroke-miterlimit="10"/><rect x="29.47" y="219.71" width="4.55" height="4.42" fill="#fff"/><rect x="29.47" y="219.71" width="4.55" height="4.42" fill="none" stroke="#003a50" stroke-miterlimit="10"/><rect x="29.47" y="254.68" width="4.55" height="4.42" fill="#fff"/><rect x="29.47" y="254.68" width="4.55" height="4.42" fill="none" stroke="#003a50" stroke-miterlimit="10"/><rect x="29.47" y="378.37" width="4.55" height="69.21" fill="#fff"/><rect x="29.47" y="378.37" width="4.55" height="69.21" fill="none" stroke="#003a50" stroke-miterlimit="10"/><line x1="31.74" y1="447.59" x2="31.74" y2="378.37" fill="none" stroke="#003a50" stroke-miterlimit="10"/><rect x="29.47" y="443.21" width="4.55" height="4.38" fill="#fff"/><rect x="29.47" y="443.21" width="4.55" height="4.38" fill="none" stroke="#003a50" stroke-miterlimit="10"/><rect x="29.47" y="378.37" width="4.55" height="4.38" fill="#fff"/><rect x="29.47" y="378.37" width="4.55" height="4.38" fill="none" stroke="#003a50" stroke-miterlimit="10"/><rect x="29.47" y="412.98" width="4.55" height="4.38" fill="#fff"/><rect x="29.47" y="412.98" width="4.55" height="4.38" fill="none" stroke="#003a50" stroke-miterlimit="10"/><rect x="191.48" y="423.6" width="86.85" height="38.86" fill="none" stroke="#003a50" stroke-miterlimit="10"/><g clip-path="url(#clip-path)"><path d="M260.41,457.64h-51a14.35,14.35,0,0,1-14.1-14.59v0a14.36,14.36,0,0,1,14.1-14.6h51a14.36,14.36,0,0,1,14.1,14.6v0A14.35,14.35,0,0,1,260.41,457.64Z" fill="none" stroke="#003a50" stroke-miterlimit="10"/><ellipse cx="260.72" cy="443.03" rx="2.04" ry="2.12" fill="none" stroke="#003a50" stroke-miterlimit="10"/><path d="M255.12,410.12h23.2V391.78h-23.2a9.17,9.17,0,1,0,0,18.34Z" fill="none" stroke="#003a50" stroke-miterlimit="10"/></g><line x1="269.29" y1="391.79" x2="269.29" y2="410.13" fill="none" stroke="#003a50" stroke-miterlimit="10"/><g clip-path="url(#clip-path)"><path d="M316.49,250.88v23.21h18.34V250.88a9.17,9.17,0,1,0-18.34,0Z" fill="none" stroke="#003a50" stroke-miterlimit="10"/></g><line x1="334.83" y1="265.06" x2="316.49" y2="265.06" fill="none" stroke="#003a50" stroke-miterlimit="10"/><g clip-path="url(#clip-path)"><path d="M207.32,377.9h-15.8a2.3,2.3,0,0,0-2.3,2.3v15.28a2.31,2.31,0,0,0,2.3,2.31h15.8a2.31,2.31,0,0,0,2.3-2.31V380.2A2.3,2.3,0,0,0,207.32,377.9Z" fill="none" stroke="#003a50" stroke-miterlimit="10"/><path d="M201,387.84a1.56,1.56,0,1,0-1.56,1.56A1.55,1.55,0,0,0,201,387.84Z" fill="none" stroke="#003a50" stroke-miterlimit="10"/><path d="M207.32,401h-15.8a2.31,2.31,0,0,0-2.31,2.3v15.28a2.32,2.32,0,0,0,2.31,2.31h15.8a2.31,2.31,0,0,0,2.3-2.31V403.27A2.3,2.3,0,0,0,207.32,401Z" fill="none" stroke="#003a50" stroke-miterlimit="10"/><path d="M201,410.91a1.56,1.56,0,1,0-1.56,1.56A1.55,1.55,0,0,0,201,410.91Z" fill="none" stroke="#003a50" stroke-miterlimit="10"/></g><rect x="191.03" y="372.92" width="20.25" height="50.68" fill="none" stroke="#003a50" stroke-miterlimit="10"/><g clip-path="url(#clip-path)"><path d="M425.58,492.45v-15.8a2.3,2.3,0,0,0-2.3-2.3H408a2.31,2.31,0,0,0-2.31,2.3v15.8a2.31,2.31,0,0,0,2.31,2.3h15.28A2.3,2.3,0,0,0,425.58,492.45Z" fill="none" stroke="#003a50" stroke-miterlimit="10"/><path d="M402.52,492.45v-15.8a2.31,2.31,0,0,0-2.31-2.3H384.93a2.31,2.31,0,0,0-2.31,2.3v15.8a2.31,2.31,0,0,0,2.31,2.3h15.28A2.31,2.31,0,0,0,402.52,492.45Z" fill="none" stroke="#003a50" stroke-miterlimit="10"/><path d="M300.15,217.59h-15.8a2.31,2.31,0,0,0-2.31,2.3v15.28a2.32,2.32,0,0,0,2.31,2.31h15.8a2.31,2.31,0,0,0,2.3-2.31V219.89A2.3,2.3,0,0,0,300.15,217.59Z" fill="none" stroke="#003a50" stroke-miterlimit="10"/><path d="M293.81,227.53a1.56,1.56,0,1,0-1.56,1.56A1.55,1.55,0,0,0,293.81,227.53Z" fill="none" stroke="#003a50" stroke-miterlimit="10"/></g><rect x="283.85" y="204.88" width="20.25" height="70.48" fill="none" stroke="#003a50" stroke-miterlimit="10"/><rect x="40.52" y="308.58" width="161.57" height="13.62" fill="none" stroke="#003a50" stroke-miterlimit="10"/><polygon points="78.87 315.83 113.23 313 147.76 315.83 147.76 317.8 78.87 317.8 78.87 315.83" fill="none" stroke="#003a50" stroke-miterlimit="10"/><rect x="47.79" y="131.98" width="154.24" height="13.62" fill="none" stroke="#003a50" stroke-miterlimit="10"/><polygon points="62.53 138.35 96.9 141.18 131.42 138.35 131.42 136.39 62.53 136.39 62.53 138.35" fill="none" stroke="#003a50" stroke-miterlimit="10"/><rect x="89.61" y="257.6" width="98.82" height="45.5" fill="none" stroke="#003a50" stroke-miterlimit="10"/><g clip-path="url(#clip-path)"><path d="M98.05,265.65V294.7a2.1,2.1,0,0,0,2.1,2.11h58.52V263.55H100.15A2.1,2.1,0,0,0,98.05,265.65Z" fill="none" stroke="#003a50" stroke-miterlimit="10"/></g><rect x="146.62" y="263.55" width="12.04" height="33.26" fill="none" stroke="#003a50" stroke-miterlimit="10"/><g clip-path="url(#clip-path)"><rect x="161.81" y="263.2" width="19.89" height="33.65" rx="2.2" fill="none" stroke="#003a50" stroke-miterlimit="10"/></g><rect x="41.73" y="151.13" width="101.44" height="26.08" fill="none" stroke="#003a50" stroke-miterlimit="10"/><g clip-path="url(#clip-path)"><path d="M54.85,154.82a.75.75,0,0,1,.43-.68.77.77,0,0,1,1,.34,22.06,22.06,0,0,1,0,19.37.77.77,0,1,1-1.38-.68,20.44,20.44,0,0,0,0-18A.81.81,0,0,1,54.85,154.82Z" fill="none" stroke="#003a50" stroke-miterlimit="10"/><path d="M59.12,154.82a.75.75,0,0,1,.43-.68.77.77,0,0,1,1,.34,22.06,22.06,0,0,1,0,19.37.77.77,0,1,1-1.38-.68,20.53,20.53,0,0,0,0-18A.68.68,0,0,1,59.12,154.82Z" fill="none" stroke="#003a50" stroke-miterlimit="10"/><path d="M63.39,154.82a.75.75,0,0,1,.42-.68.77.77,0,0,1,1,.34,22.06,22.06,0,0,1,0,19.37.77.77,0,0,1-1,.35.76.76,0,0,1-.35-1,20.53,20.53,0,0,0,0-18A.68.68,0,0,1,63.39,154.82Z" fill="none" stroke="#003a50" stroke-miterlimit="10"/><path d="M67.65,154.82a.75.75,0,0,1,.43-.68.77.77,0,0,1,1,.34,22.06,22.06,0,0,1,0,19.37.77.77,0,1,1-1.38-.68,20.44,20.44,0,0,0,0-18A.81.81,0,0,1,67.65,154.82Z" fill="none" stroke="#003a50" stroke-miterlimit="10"/><path d="M71.92,154.82a.75.75,0,0,1,.43-.68.77.77,0,0,1,1,.34,22.06,22.06,0,0,1,0,19.37.77.77,0,1,1-1.38-.68,20.53,20.53,0,0,0,0-18A.68.68,0,0,1,71.92,154.82Z" fill="none" stroke="#003a50" stroke-miterlimit="10"/><path d="M76.19,154.82a.75.75,0,0,1,.42-.68.77.77,0,0,1,1,.34,22.06,22.06,0,0,1,0,19.37.77.77,0,0,1-1,.35.76.76,0,0,1-.35-1,20.53,20.53,0,0,0,0-18A.68.68,0,0,1,76.19,154.82Z" fill="none" stroke="#003a50" stroke-miterlimit="10"/><path d="M50.58,154.82a.75.75,0,0,1,.43-.68.76.76,0,0,1,1,.34,22.06,22.06,0,0,1,0,19.37.75.75,0,0,1-1,.35.77.77,0,0,1-.36-1,20.44,20.44,0,0,0,0-18A.81.81,0,0,1,50.58,154.82Z" fill="none" stroke="#003a50" stroke-miterlimit="10"/><path d="M46.32,154.82a.75.75,0,0,1,.43-.68.77.77,0,0,1,1,.34,22.06,22.06,0,0,1,0,19.37.77.77,0,1,1-1.38-.68,20.53,20.53,0,0,0,0-18A.68.68,0,0,1,46.32,154.82Z" fill="none" stroke="#003a50" stroke-miterlimit="10"/></g><line x1="41.73" y1="164.17" x2="143.17" y2="164.17" fill="none" stroke="#003a50" stroke-miterlimit="10"/><rect x="287.63" y="118.91" width="90.47" height="27.05" fill="none" stroke="#003a50" stroke-miterlimit="10"/><g clip-path="url(#clip-path)"><path d="M301.25,122.74a.8.8,0,0,1,1.51-.35,22.91,22.91,0,0,1,0,20.09.8.8,0,0,1-1.43-.71,21.27,21.27,0,0,0,0-18.68A.72.72,0,0,1,301.25,122.74Z" fill="none" stroke="#003a50" stroke-miterlimit="10"/><path d="M305.67,122.74a.8.8,0,0,1,1.52-.35,22.91,22.91,0,0,1,0,20.09.81.81,0,0,1-1.07.36.8.8,0,0,1-.36-1.07,21.27,21.27,0,0,0,0-18.68A.73.73,0,0,1,305.67,122.74Z" fill="none" stroke="#003a50" stroke-miterlimit="10"/><path d="M310.1,122.74a.8.8,0,0,1,1.51-.35,22.91,22.91,0,0,1,0,20.09.8.8,0,0,1-1.43-.71,21.27,21.27,0,0,0,0-18.68A.72.72,0,0,1,310.1,122.74Z" fill="none" stroke="#003a50" stroke-miterlimit="10"/><path d="M314.52,122.74a.8.8,0,0,1,1.52-.35,22.91,22.91,0,0,1,0,20.09.81.81,0,0,1-1.07.36.8.8,0,0,1-.36-1.07,21.27,21.27,0,0,0,0-18.68A.73.73,0,0,1,314.52,122.74Z" fill="none" stroke="#003a50" stroke-miterlimit="10"/><path d="M319,122.74a.78.78,0,0,1,.44-.71.8.8,0,0,1,1.08.36,22.91,22.91,0,0,1,0,20.09.81.81,0,0,1-1.07.36.8.8,0,0,1-.37-1.07,21.27,21.27,0,0,0,0-18.68A.72.72,0,0,1,319,122.74Z" fill="none" stroke="#003a50" stroke-miterlimit="10"/><path d="M323.38,122.74a.8.8,0,0,1,1.51-.35,22.91,22.91,0,0,1,0,20.09.8.8,0,0,1-1.07.36.8.8,0,0,1-.36-1.07,21.27,21.27,0,0,0,0-18.68A.72.72,0,0,1,323.38,122.74Z" fill="none" stroke="#003a50" stroke-miterlimit="10"/><path d="M296.82,122.74a.8.8,0,0,1,1.52-.35,22.91,22.91,0,0,1,0,20.09.81.81,0,0,1-1.07.36.79.79,0,0,1-.36-1.07,21.27,21.27,0,0,0,0-18.68A.73.73,0,0,1,296.82,122.74Z" fill="none" stroke="#003a50" stroke-miterlimit="10"/><path d="M292.4,122.74a.8.8,0,0,1,1.51-.35,22.91,22.91,0,0,1,0,20.09.8.8,0,0,1-1.07.36.8.8,0,0,1-.36-1.07,21.27,21.27,0,0,0,0-18.68A.72.72,0,0,1,292.4,122.74Z" fill="none" stroke="#003a50" stroke-miterlimit="10"/></g><line x1="287.64" y1="132.43" x2="378.1" y2="132.43" fill="none" stroke="#003a50" stroke-miterlimit="10"/><rect x="252.24" y="286.64" width="26.08" height="80.53" fill="none" stroke="#003a50" stroke-miterlimit="10"/><g clip-path="url(#clip-path)"><path d="M274.63,354.05a.75.75,0,0,0,.68-.43.76.76,0,0,0-.34-1,22.06,22.06,0,0,0-19.37,0,.75.75,0,0,0-.35,1,.77.77,0,0,0,1,.36,20.53,20.53,0,0,1,18,0A.77.77,0,0,0,274.63,354.05Z" fill="none" stroke="#003a50" stroke-miterlimit="10"/><path d="M274.63,349.78a.75.75,0,0,0,.68-.43.77.77,0,0,0-.34-1,22.06,22.06,0,0,0-19.37,0,.77.77,0,0,0,.68,1.38,20.53,20.53,0,0,1,18,0A.66.66,0,0,0,274.63,349.78Z" fill="none" stroke="#003a50" stroke-miterlimit="10"/><path d="M274.63,345.51a.75.75,0,0,0,.68-.42.77.77,0,0,0-.34-1,22.06,22.06,0,0,0-19.37,0,.77.77,0,0,0-.35,1,.76.76,0,0,0,1,.35,20.53,20.53,0,0,1,18,0A.66.66,0,0,0,274.63,345.51Z" fill="none" stroke="#003a50" stroke-miterlimit="10"/><path d="M274.63,341.25a.75.75,0,0,0,.68-.43.76.76,0,0,0-.34-1,22.06,22.06,0,0,0-19.37,0,.75.75,0,0,0-.35,1,.77.77,0,0,0,1,.36,20.53,20.53,0,0,1,18,0A.77.77,0,0,0,274.63,341.25Z" fill="none" stroke="#003a50" stroke-miterlimit="10"/><path d="M274.63,337a.75.75,0,0,0,.68-.43.77.77,0,0,0-.34-1,22.06,22.06,0,0,0-19.37,0,.77.77,0,0,0,.68,1.38,20.53,20.53,0,0,1,18,0A.66.66,0,0,0,274.63,337Z" fill="none" stroke="#003a50" stroke-miterlimit="10"/><path d="M274.63,332.71a.75.75,0,0,0,.68-.43.77.77,0,0,0-.34-1,22.06,22.06,0,0,0-19.37,0,.77.77,0,1,0,.68,1.38,20.53,20.53,0,0,1,18,0A.66.66,0,0,0,274.63,332.71Z" fill="none" stroke="#003a50" stroke-miterlimit="10"/><path d="M274.63,358.31a.75.75,0,0,0,.68-.42.77.77,0,0,0-.34-1,22.06,22.06,0,0,0-19.37,0,.77.77,0,0,0-.35,1,.76.76,0,0,0,1,.35,20.53,20.53,0,0,1,18,0A.66.66,0,0,0,274.63,358.31Z" fill="none" stroke="#003a50" stroke-miterlimit="10"/><path d="M274.63,362.58a.75.75,0,0,0,.68-.43.77.77,0,0,0-.34-1,22.06,22.06,0,0,0-19.37,0,.77.77,0,0,0,.68,1.38,20.53,20.53,0,0,1,18,0A.66.66,0,0,0,274.63,362.58Z" fill="none" stroke="#003a50" stroke-miterlimit="10"/></g><line x1="265.28" y1="367.17" x2="265.28" y2="286.64" fill="none" stroke="#003a50" stroke-miterlimit="10"/><g clip-path="url(#clip-path)"><rect x="299.41" y="-25.82" width="59.3" height="26.08" fill="none" stroke="#003a50" stroke-miterlimit="10"/></g><rect x="252.24" y="206.12" width="26.08" height="80.53" fill="none" stroke="#003a50" stroke-miterlimit="10"/><g clip-path="url(#clip-path)"><path d="M274.63,273.52a.75.75,0,0,0,.68-.43.77.77,0,0,0-.34-1,22.06,22.06,0,0,0-19.37,0,.77.77,0,1,0,.68,1.38,20.44,20.44,0,0,1,18,0A.77.77,0,0,0,274.63,273.52Z" fill="none" stroke="#003a50" stroke-miterlimit="10"/><path d="M274.63,269.25a.75.75,0,0,0,.68-.43.77.77,0,0,0-.34-1,22.06,22.06,0,0,0-19.37,0,.77.77,0,1,0,.68,1.38,20.53,20.53,0,0,1,18,0A.66.66,0,0,0,274.63,269.25Z" fill="none" stroke="#003a50" stroke-miterlimit="10"/><path d="M274.63,265a.75.75,0,0,0,.68-.43.76.76,0,0,0-.34-1,22.06,22.06,0,0,0-19.37,0,.75.75,0,0,0-.35,1,.77.77,0,0,0,1,.36,20.53,20.53,0,0,1,18,0A.77.77,0,0,0,274.63,265Z" fill="none" stroke="#003a50" stroke-miterlimit="10"/><path d="M274.63,260.72a.75.75,0,0,0,.68-.43.77.77,0,0,0-.34-1,22.06,22.06,0,0,0-19.37,0,.77.77,0,1,0,.68,1.38,20.44,20.44,0,0,1,18,0A.77.77,0,0,0,274.63,260.72Z" fill="none" stroke="#003a50" stroke-miterlimit="10"/><path d="M274.63,256.45a.75.75,0,0,0,.68-.43.77.77,0,0,0-.34-1,22.06,22.06,0,0,0-19.37,0,.77.77,0,1,0,.68,1.38,20.53,20.53,0,0,1,18,0A.66.66,0,0,0,274.63,256.45Z" fill="none" stroke="#003a50" stroke-miterlimit="10"/><path d="M274.63,252.18a.75.75,0,0,0,.68-.42.77.77,0,0,0-.34-1,22.06,22.06,0,0,0-19.37,0,.77.77,0,0,0-.35,1,.76.76,0,0,0,1,.35,20.53,20.53,0,0,1,18,0A.66.66,0,0,0,274.63,252.18Z" fill="none" stroke="#003a50" stroke-miterlimit="10"/><path d="M274.63,277.79a.75.75,0,0,0,.68-.43.76.76,0,0,0-.34-1,22.06,22.06,0,0,0-19.37,0,.75.75,0,0,0-.35,1,.77.77,0,0,0,1,.36,20.44,20.44,0,0,1,18,0A.77.77,0,0,0,274.63,277.79Z" fill="none" stroke="#003a50" stroke-miterlimit="10"/><path d="M274.63,282.05a.75.75,0,0,0,.68-.43.77.77,0,0,0-.34-1,22.06,22.06,0,0,0-19.37,0,.77.77,0,0,0,.68,1.38,20.53,20.53,0,0,1,18,0A.66.66,0,0,0,274.63,282.05Z" fill="none" stroke="#003a50" stroke-miterlimit="10"/></g><line x1="265.28" y1="286.64" x2="265.28" y2="206.11" fill="none" stroke="#003a50" stroke-miterlimit="10"/><rect x="343.1" y="206.12" width="35" height="67.89" fill="none" stroke="#003a50" stroke-miterlimit="10"/><g clip-path="url(#clip-path)"><path d="M362.64,257.47a2,2,0,1,0-2,2A2,2,0,0,0,362.64,257.47Z" fill="none" stroke="#003a50" stroke-miterlimit="10"/></g><rect x="43.95" y="442.79" width="19.66" height="19.66" fill="none" stroke="#003a50" stroke-miterlimit="10"/><g clip-path="url(#clip-path)"><path d="M59.42,447a8,8,0,1,0,0,11.27A8,8,0,0,0,59.42,447Z" fill="none" stroke="#003a50" stroke-miterlimit="10"/><path d="M60,447.59c-1.47.14-3-.42-4.39,1-2.12,2.12.12,4.36-2,6.47s-4.35-.12-6.46,2" fill="none" stroke="#003a50" stroke-miterlimit="10"/></g><rect x="163.02" y="442.79" width="19.66" height="19.66" fill="none" stroke="#003a50" stroke-miterlimit="10"/><g clip-path="url(#clip-path)"><path d="M178.49,447a8,8,0,1,0,0,11.27A8,8,0,0,0,178.49,447Z" fill="none" stroke="#003a50" stroke-miterlimit="10"/><path d="M179,447.59c-1.47.14-3-.42-4.39,1-2.11,2.12.12,4.36-2,6.47s-4.36-.12-6.47,2" fill="none" stroke="#003a50" stroke-miterlimit="10"/></g><rect x="69.1" y="364.13" width="88.5" height="98.33" fill="none" stroke="#003a50" stroke-miterlimit="10"/><g clip-path="url(#clip-path)"><path d="M148.93,372.57H77.77A1.82,1.82,0,0,0,76,374.38V433h74.78V374.38A1.81,1.81,0,0,0,148.93,372.57Z" fill="none" stroke="#003a50" stroke-miterlimit="10"/><path d="M110.88,436.17H77.46a1.72,1.72,0,0,0-1.71,1.72V454.3A1.71,1.71,0,0,0,77.46,456h33.42a1.72,1.72,0,0,0,1.72-1.72V437.89A1.73,1.73,0,0,0,110.88,436.17Z" fill="none" stroke="#003a50" stroke-miterlimit="10"/><path d="M149.24,436.17H115.82a1.73,1.73,0,0,0-1.72,1.72V454.3a1.72,1.72,0,0,0,1.72,1.72h33.42A1.72,1.72,0,0,0,151,454.3V437.89A1.73,1.73,0,0,0,149.24,436.17Z" fill="none" stroke="#003a50" stroke-miterlimit="10"/></g><line x1="150.96" y1="421.03" x2="75.74" y2="421.03" fill="none" stroke="#003a50" stroke-miterlimit="10"/><g clip-path="url(#clip-path)"><rect x="280.92" y="476.74" width="18.91" height="18.91" fill="none" stroke="#003a50" stroke-miterlimit="10"/><rect x="166.44" y="476.74" width="18.91" height="18.91" fill="none" stroke="#003a50" stroke-miterlimit="10"/><rect x="190.56" y="476.74" width="85.08" height="94.54" fill="none" stroke="#003a50" stroke-miterlimit="10"/><path d="M275.2,125.94a3.4,3.4,0,0,0,3.13-2.1h1.93l5.09,3L283,130.66l-2.65-1.46V141h-11.1V129.2l-2.66,1.46-2.31-3.77,5.14-3H272A3.45,3.45,0,0,0,275.2,125.94Z" fill="none" stroke="#003a50" stroke-miterlimit="10"/></g><rect x="262.04" y="118.9" width="25.59" height="27.05" fill="none" stroke="#003a50" stroke-miterlimit="10"/><g clip-path="url(#clip-path)"><path d="M224.34,60.36a.94.94,0,0,0-.72,1.14,10.41,10.41,0,1,1-20.29,4.65.95.95,0,0,0-1.85.43,12.31,12.31,0,0,0,24-5.51A1,1,0,0,0,224.34,60.36Z" fill="none" stroke="#003a50" stroke-miterlimit="10"/><path d="M182.68,67.7a.94.94,0,0,0-1.32-.25,10.41,10.41,0,1,1-11.72-17.2,1,1,0,0,0-1.07-1.58A12.31,12.31,0,0,0,182.43,69,1,1,0,0,0,182.68,67.7Z" fill="none" stroke="#003a50" stroke-miterlimit="10"/><path d="M180.79,31.9a.94.94,0,0,0,1-.89,10.41,10.41,0,0,1,20.78,1.23,1,1,0,0,0,1.9.12A12.31,12.31,0,1,0,179.9,30.9.94.94,0,0,0,180.79,31.9Z" fill="none" stroke="#003a50" stroke-miterlimit="10"/><path d="M213.62,72.9a9.57,9.57,0,0,0,9.06-11.68l-1.54-6.71a2.67,2.67,0,0,0-3.2-2l-10.15,2.32a18,18,0,0,1-4.53,7.13l.72,3.17A9.81,9.81,0,0,0,213.62,72.9Z" fill="none" stroke="#003a50" stroke-miterlimit="10"/><path d="M181.3,66.47l1.75-1.21a18,18,0,0,1-10.3-16.09l-1.9,1.29a9.8,9.8,0,0,0-3.75,11.81A9.59,9.59,0,0,0,181.3,66.47Z" fill="none" stroke="#003a50" stroke-miterlimit="10"/><path d="M201.56,34.55l.1-1.48a9.79,9.79,0,0,0-7-10.18,9.56,9.56,0,0,0-12,8.67L182.54,33a18.05,18.05,0,0,1,12.56-1.46A17.78,17.78,0,0,1,201.56,34.55Z" fill="none" stroke="#003a50" stroke-miterlimit="10"/><path d="M203.26,61.94a18,18,0,0,0,4.53-7.13,12,12,0,0,0,.45-1.51,18,18,0,0,0-6.68-18.75,17.6,17.6,0,0,0-6.46-3,18,18,0,0,0-21.84,13.14,16.69,16.69,0,0,0-.51,4.52,18,18,0,0,0,10.3,16.1,16.72,16.72,0,0,0,3.38,1.21A18,18,0,0,0,203.26,61.94Z" fill="none" stroke="#003a50" stroke-miterlimit="10"/><path d="M97,48.71v-31H62.42V50.38H95.31A1.67,1.67,0,0,0,97,48.71Z" fill="none" stroke="#003a50" stroke-miterlimit="10"/><path d="M131.61,48.88V17.73H97.05V48.88a1.5,1.5,0,0,0,1.5,1.5h31.56A1.5,1.5,0,0,0,131.61,48.88Z" fill="none" stroke="#003a50" stroke-miterlimit="10"/><path d="M62.42,50.38a2.34,2.34,0,0,1-2.51,2.13H56.72a2.35,2.35,0,0,1-2.51-2.13V14h85.62V50.06a2.36,2.36,0,0,1-2.52,2.14h-3.18a2.36,2.36,0,0,1-2.52-2.14V17.72H62.42Z" fill="none" stroke="#003a50" stroke-miterlimit="10"/></g><rect x="62.42" y="17.72" width="69.19" height="6.98" fill="none" stroke="#003a50" stroke-miterlimit="10"/><g clip-path="url(#clip-path)"><path d="M133.31-36a2.36,2.36,0,0,1,2.52-2.14H139A2.36,2.36,0,0,1,141.53-36V.34H55.91V-35.73a2.35,2.35,0,0,1,2.52-2.14h3.18a2.35,2.35,0,0,1,2.51,2.14V-3.4h69.19Z" fill="none" stroke="#003a50" stroke-miterlimit="10"/></g><rect x="331.45" y="59.94" width="26.65" height="26.69" fill="none" stroke="#003a50" stroke-miterlimit="10"/><g clip-path="url(#clip-path)"><path d="M341.39,72.66V64h6.74v8.67a2.77,2.77,0,0,1-2.77,2.78h-1.19A2.77,2.77,0,0,1,341.39,72.66Z" fill="none" stroke="#003a50" stroke-miterlimit="10"/></g><polyline points="347.49 83.72 344.76 83.72 342.03 83.72" fill="none" stroke="#003a50" stroke-miterlimit="10"/><line x1="344.76" y1="75.44" x2="344.76" y2="83.72" fill="none" stroke="#003a50" stroke-miterlimit="10"/><rect x="293.48" y="13.54" width="27.06" height="27.06" fill="none" stroke="#003a50" stroke-miterlimit="10"/><g clip-path="url(#clip-path)"><circle cx="300.83" cy="33.12" r="3.69" transform="translate(-1.42 48.61) rotate(-9.22)" fill="none" stroke="#003a50" stroke-miterlimit="10"/><circle cx="313.14" cy="33.12" r="3.69" transform="translate(-1.26 50.59) rotate(-9.22)" fill="none" stroke="#003a50" stroke-miterlimit="10"/><circle cx="300.83" cy="21.12" r="3.69" transform="translate(0.5 48.46) rotate(-9.22)" fill="none" stroke="#003a50" stroke-miterlimit="10"/><circle cx="313.14" cy="21.12" r="3.69" transform="translate(0.66 50.43) rotate(-9.22)" fill="none" stroke="#003a50" stroke-miterlimit="10"/></g><polyline points="299.99 109.44 304.66 109.44 309.33 109.44" fill="none" stroke="#003a50" stroke-miterlimit="10"/><line x1="304.68" y1="100.08" x2="304.68" y2="109.44" fill="none" stroke="#003a50" stroke-miterlimit="10"/><g clip-path="url(#clip-path)"><path d="M294.31,93.78v8.42a3.24,3.24,0,0,0,3.24,3.24h14.19A3.24,3.24,0,0,0,315,102.2V93.78a3.24,3.24,0,0,0-3.24-3.24H297.55A3.24,3.24,0,0,0,294.31,93.78Z" fill="none" stroke="#003a50" stroke-miterlimit="10"/><path d="M304.68,98.92a1.67,1.67,0,1,0,0,3.33,1.67,1.67,0,0,0,0-3.33Z" fill="none" stroke="#003a50" stroke-miterlimit="10"/></g><rect x="256.79" y="86.62" width="26.24" height="26.74" fill="none" stroke="#003a50" stroke-miterlimit="10"/><line x1="262.21" y1="99.99" x2="277.61" y2="99.99" fill="none" stroke="#003a50" stroke-miterlimit="10"/><line x1="269.91" y1="92.15" x2="269.91" y2="107.83" fill="none" stroke="#003a50" stroke-miterlimit="10"/><line x1="264.47" y1="94.44" x2="275.35" y2="105.54" fill="none" stroke="#003a50" stroke-miterlimit="10"/><line x1="275.35" y1="94.44" x2="264.47" y2="105.54" fill="none" stroke="#003a50" stroke-miterlimit="10"/><rect x="256.79" y="86.62" width="74.66" height="29.62" fill="none" stroke="#003a50" stroke-miterlimit="10"/><rect x="256.29" y="10.98" width="75.16" height="29.62" fill="none" stroke="#003a50" stroke-miterlimit="10"/><rect x="331.45" y="10.98" width="28.24" height="105.26" fill="none" stroke="#003a50" stroke-miterlimit="10"/><g clip-path="url(#clip-path)"><rect x="243.75" y="-27.08" width="26.69" height="28.24" fill="none" stroke="#003a50" stroke-miterlimit="10"/><rect x="202.35" y="-27.08" width="27.5" height="28.24" fill="none" stroke="#003a50" stroke-miterlimit="10"/><rect x="270.47" y="-54.94" width="27.09" height="64.53" fill="none" stroke="#003a50" stroke-miterlimit="10"/><rect x="187.6" y="-27.08" width="82.84" height="28.24" fill="none" stroke="#003a50" stroke-miterlimit="10"/><path d="M44.11,246.67h0a1,1,0,0,0-1,1v52.73a1,1,0,0,0,1.94,0V247.64A1,1,0,0,0,44.11,246.67Z" fill="none" stroke="#003a50" stroke-miterlimit="10"/><path d="M65.1,282.48a10.23,10.23,0,0,0,11-16.19.77.77,0,0,0-1.11-.12.79.79,0,0,0-.12,1.11,8.63,8.63,0,0,1-9.8,13.5Z" fill="none" stroke="#003a50" stroke-miterlimit="10"/><rect x="41.54" y="244.9" width="23.56" height="58.2" rx="2.29" fill="none" stroke="#003a50" stroke-miterlimit="10"/><path d="M54.21,254.37a3.81,3.81,0,1,1,0-5.39A3.8,3.8,0,0,1,54.21,254.37Z" fill="none" stroke="#003a50" stroke-miterlimit="10"/><path d="M54.47,254.09c-.71-.07-1.42.2-2.1-.49-1-1,.06-2.08-1-3.09s-2.08.06-3.1-1" fill="none" stroke="#003a50" stroke-miterlimit="10"/><path d="M65.1,279.22a7.36,7.36,0,1,0,0-13.57Z" fill="none" stroke="#003a50" stroke-miterlimit="10"/><path d="M391,375.14h3.08c21.41,0,38.76-18.74,38.76-41.85H391" fill="none" stroke="#003a50" stroke-miterlimit="10" stroke-width="1.6"/><path d="M218.89,370.52v-2.24c0-15.59,13.64-28.22,30.46-28.22v30.46" fill="none" stroke="#003a50" stroke-miterlimit="10" stroke-width="1.6"/><path d="M309.14,202v-2.24c0-15.59,13.64-28.22,30.46-28.22V202" fill="none" stroke="#003a50" stroke-miterlimit="10" stroke-width="1.6"/><path d="M210.26,203.9v2.68c0,18.64,16.31,33.74,36.43,33.74V203.9" fill="none" stroke="#003a50" stroke-miterlimit="10" stroke-width="1.6"/><path d="M200.6,194.13h-2.68c-18.64,0-33.74-16.31-33.74-36.42H200.6" fill="none" stroke="#003a50" stroke-miterlimit="10" stroke-width="1.6"/><path d="M391,194.23h3.08c21.41,0,38.76-18.74,38.76-41.85H391" fill="none" stroke="#003a50" stroke-miterlimit="10" stroke-width="1.6"/></g><rect x="185.73" y="368.58" width="5.75" height="99.04" fill="#003a50"/><rect x="196.79" y="193.25" width="5.75" height="99.04" fill="#003a50"/><rect x="278.32" y="202.02" width="5.75" height="94.94" fill="#003a50"/><rect x="316.49" y="275.36" width="5.75" height="27.48" fill="#003a50"/><rect x="196.79" y="145.38" width="5.75" height="13.09" fill="#003a50"/><rect x="256.29" y="113.36" width="5.75" height="33.1" fill="#003a50"/><rect x="358.04" width="5.75" height="116.24" fill="#003a50"/><rect x="296.54" width="5.75" height="10.46" fill="#003a50"/><rect x="197.79" y="200.36" width="13.37" height="5.75" fill="#003a50"/><rect x="245.79" y="200.36" width="64.1" height="5.75" fill="#003a50"/><rect x="256.29" y="113.36" width="125.81" height="5.75" fill="#003a50"/><rect x="360.92" y="95.3" width="19.31" height="5.75" fill="#003a50"/><rect x="281.2" y="274" width="101.15" height="5.75" fill="#003a50"/><rect x="338.85" y="200.36" width="46.62" height="5.75" fill="#003a50"/><rect x="37.1" y="145.38" width="165.44" height="5.75" fill="#003a50"/><rect x="185.73" y="367.17" width="33.97" height="5.75" fill="#003a50"/><rect x="37.85" y="302.83" width="164.69" height="5.75" fill="#003a50"/><rect x="248.56" y="367.17" width="33.97" height="5.75" fill="#003a50"/><rect x="35.02" y="462.46" width="257.94" height="14.61" fill="#003a50"/><polygon points="278.32 295.46 278.32 467.63 292.96 467.63 292.96 310.2 293.07 310.2 293.07 295.46 278.32 295.46" fill="#003a50"/><rect x="378.1" y="194.23" width="14.75" height="115.97" fill="#003a50"/><rect x="378.1" width="14.75" height="152.38" fill="#003a50"/><rect x="383.73" y="298.34" width="9.12" height="11.86" fill="#003a50"/><rect x="188.43" y="239.59" width="14.11" height="68.82" fill="#003a50"/><polygon points="278.32 295.46 278.32 310.21 292.96 310.21 292.96 310.19 392.85 310.19 392.85 295.46 278.32 295.46" fill="#003a50"/><rect x="35.02" width="351.33" height="14.62" fill="#003a50"/><rect x="13.1" y="290.13" width="27.42" height="87.78" fill="#003a50"/><rect x="13.1" y="290.12" width="27.42" height="87.78" fill="none" stroke="#003a50" stroke-miterlimit="10" stroke-width="2.09"/><rect x="13.1" y="131.46" width="27.42" height="87.78" fill="#003a50"/><rect x="13.1" y="131.46" width="27.42" height="87.78" fill="none" stroke="#003a50" stroke-miterlimit="10" stroke-width="2.09"/><rect x="13.1" width="27.42" height="60.57" fill="#003a50"/><g clip-path="url(#clip-path)"><rect x="13.1" y="-27.21" width="27.42" height="87.78" fill="none" stroke="#003a50" stroke-miterlimit="10" stroke-width="2.09"/></g><rect x="11.69" y="290.13" width="28.83" height="87.78" fill="#003a50"/><rect x="11.69" y="290.12" width="28.83" height="87.78" fill="none" stroke="#003a50" stroke-miterlimit="10" stroke-width="2.09"/><rect x="1.49" y="364.79" width="39.03" height="13.11" fill="#003a50"/><g clip-path="url(#clip-path)"><rect x="1.49" y="364.79" width="39.03" height="13.11" fill="none" stroke="#003a50" stroke-miterlimit="10" stroke-width="2.09"/></g><rect x="1.49" y="290.13" width="39.03" height="14.21" fill="#003a50"/><g clip-path="url(#clip-path)"><rect x="1.49" y="290.12" width="39.03" height="14.21" fill="none" stroke="#003a50" stroke-miterlimit="10" stroke-width="2.09"/></g><rect x="1.49" y="205.02" width="39.03" height="14.21" fill="#003a50"/><g clip-path="url(#clip-path)"><rect x="1.49" y="205.02" width="39.03" height="14.21" fill="none" stroke="#003a50" stroke-miterlimit="10" stroke-width="2.09"/></g><rect x="1.49" y="131.46" width="39.03" height="14.21" fill="#003a50"/><g clip-path="url(#clip-path)"><rect x="1.49" y="131.46" width="39.03" height="14.21" fill="none" stroke="#003a50" stroke-miterlimit="10" stroke-width="2.09"/></g><rect x="1.49" y="46.36" width="39.03" height="14.21" fill="#003a50"/><g clip-path="url(#clip-path)"><rect x="1.49" y="46.36" width="39.03" height="14.21" fill="none" stroke="#003a50" stroke-miterlimit="10" stroke-width="2.09"/></g><rect x="11.69" y="131.46" width="28.83" height="87.78" fill="#003a50"/><rect x="11.69" y="131.46" width="28.83" height="87.78" fill="none" stroke="#003a50" stroke-miterlimit="10" stroke-width="2.09"/><rect x="11.69" width="28.83" height="60.57" fill="#003a50"/><g clip-path="url(#clip-path)"><rect x="11.69" y="-27.21" width="28.83" height="87.78" fill="none" stroke="#003a50" stroke-miterlimit="10" stroke-width="2.09"/></g><rect x="9.98" y="463.64" width="134.54" height="13.43" fill="#003a50"/><g clip-path="url(#clip-path)"><rect x="9.98" y="463.64" width="134.54" height="35.94" fill="none" stroke="#003a50" stroke-miterlimit="10" stroke-width="2.09"/></g><rect x="9.98" y="448.08" width="30.54" height="28.99" fill="#003a50"/><g clip-path="url(#clip-path)"><rect x="9.98" y="448.08" width="30.54" height="43.16" fill="none" stroke="#003a50" stroke-miterlimit="10" stroke-width="2.09"/></g><rect x="121.1" y="469.66" width="40.88" height="7.41" fill="#003a50"/><g clip-path="url(#clip-path)"><rect x="121.1" y="469.66" width="40.88" height="56.64" fill="none" stroke="#003a50" stroke-miterlimit="10" stroke-width="2.09"/><path d="M101.85,340.43l-2.48,2v-2.25l2.73-2.26H104v11.9h-2.11Z" fill="#003a50"/><path d="M108.48,340.43l-2.49,2v-2.25l2.74-2.26h1.86v11.9h-2.11Z" fill="#003a50"/><path d="M113.11,349.65a1,1,0,0,1-.32-.8,1.07,1.07,0,0,1,.32-.81,1.41,1.41,0,0,1,1.74,0,1.07,1.07,0,0,1,.32.81,1,1,0,0,1-.32.8,1.41,1.41,0,0,1-1.74,0Z" fill="#003a50"/><path d="M123.22,339.72H117.4v-1.84h8.86v1.84l-4.53,2.65v.07H123a3.86,3.86,0,0,1,2.79,1,3.52,3.52,0,0,1,1.06,2.66,3.35,3.35,0,0,1-1.33,2.83,7,7,0,0,1-7.25,0,3.38,3.38,0,0,1-1.32-2.86v-.32h2.11v.32c0,1.36.94,2,2.84,2s2.84-.67,2.84-2-1-2-2.84-2h-3.27v-1.67l4.58-2.68Z" fill="#003a50"/><path d="M230.75,379.35h-5.82V377.5h8.86v1.85L229.27,382v.06h1.28a3.87,3.87,0,0,1,2.79,1,3.5,3.5,0,0,1,1,2.66,3.34,3.34,0,0,1-1.33,2.83,7,7,0,0,1-7.24,0,3.4,3.4,0,0,1-1.33-2.86v-.32h2.11v.32c0,1.36,1,2,2.84,2s2.84-.66,2.84-2-.94-2-2.84-2h-3.26V382.1l4.57-2.69Z" fill="#003a50"/><path d="M236.49,389.28a1,1,0,0,1-.32-.81,1.06,1.06,0,0,1,.32-.8,1.25,1.25,0,0,1,.88-.3,1.23,1.23,0,0,1,.86.3,1.06,1.06,0,0,1,.32.8,1,1,0,0,1-.32.81,1.23,1.23,0,0,1-.86.3A1.25,1.25,0,0,1,236.49,389.28Z" fill="#003a50"/><path d="M240.63,386.07h2.21s0,.07,0,.17a2.72,2.72,0,0,0,.23.44,2.09,2.09,0,0,0,.41.48,2,2,0,0,0,.75.42,3.21,3.21,0,0,0,1,.16,2.66,2.66,0,0,0,2.24-1.06,4.32,4.32,0,0,0,.81-2.71h-.06a2,2,0,0,1-.44.47,2.73,2.73,0,0,1-.6.4,4,4,0,0,1-1,.32,5.43,5.43,0,0,1-1.22.13,4.92,4.92,0,0,1-3.37-1.13,3.73,3.73,0,0,1,.05-5.72,5.59,5.59,0,0,1,3.61-1.1,4.81,4.81,0,0,1,3.87,1.54,6.4,6.4,0,0,1,1.32,4.27v.41a6.7,6.7,0,0,1-1.37,4.31,4.71,4.71,0,0,1-3.89,1.71,6,6,0,0,1-2.17-.38,3.7,3.7,0,0,1-1.47-.94A3.33,3.33,0,0,1,240.63,386.07Zm2.77-3.17a3.6,3.6,0,0,0,3.95,0,1.86,1.86,0,0,0,.78-1.57,1.91,1.91,0,0,0-.77-1.58,3.3,3.3,0,0,0-2-.58,3.23,3.23,0,0,0-2,.58,1.9,1.9,0,0,0-.78,1.58A1.87,1.87,0,0,0,243.4,382.9Z" fill="#003a50"/><path d="M225.15,288.42h-2.21s0-.06,0-.17a1.85,1.85,0,0,0-.21-.44,2.4,2.4,0,0,0-.39-.5,1.67,1.67,0,0,0-.71-.41,2.93,2.93,0,0,0-1-.16,2.52,2.52,0,0,0-2.15,1,4.44,4.44,0,0,0-.76,2.69h.06a1.49,1.49,0,0,1,.44-.43,3.9,3.9,0,0,1,.6-.37,4,4,0,0,1,.95-.3,5.56,5.56,0,0,1,1.22-.13,5,5,0,0,1,3.37,1.11,3.52,3.52,0,0,1,1.31,2.8,3.6,3.6,0,0,1-1.37,2.91,5.55,5.55,0,0,1-3.6,1.1,4.81,4.81,0,0,1-3.87-1.54,6.38,6.38,0,0,1-1.32-4.27v-.41a6.85,6.85,0,0,1,1.32-4.31,4.52,4.52,0,0,1,3.8-1.71,5.66,5.66,0,0,1,2.13.37,4,4,0,0,1,1.44.94A3.45,3.45,0,0,1,225.15,288.42Zm-2.51,3.15a3.65,3.65,0,0,0-3.95,0,1.86,1.86,0,0,0-.78,1.58,1.89,1.89,0,0,0,.77,1.57,3.63,3.63,0,0,0,4,0,2,2,0,0,0,0-3.15Z" fill="#003a50"/><path d="M227.8,296.84a1,1,0,0,1-.32-.8,1,1,0,0,1,.32-.81,1.41,1.41,0,0,1,1.74,0,1.07,1.07,0,0,1,.32.81,1,1,0,0,1-.32.8,1.41,1.41,0,0,1-1.74,0Z" fill="#003a50"/><path d="M233.71,287.62l-2.49,1.95v-2.24l2.73-2.26h1.86V297h-2.1Z" fill="#003a50"/><path d="M319.08,217.48h-5.82v-1.84h8.86v1.84l-4.53,2.65v.07h1.28a3.9,3.9,0,0,1,2.79,1,3.52,3.52,0,0,1,1,2.67,3.34,3.34,0,0,1-1.32,2.82,7,7,0,0,1-7.25,0,3.38,3.38,0,0,1-1.32-2.86v-.32h2.1v.32c0,1.37.95,2,2.84,2s2.85-.67,2.85-2-.95-2-2.85-2H314.5v-1.67l4.58-2.68Z" fill="#003a50"/><path d="M324.82,227.41a1,1,0,0,1-.33-.8,1,1,0,0,1,.33-.81,1.4,1.4,0,0,1,1.73,0,1,1,0,0,1,.33.81,1,1,0,0,1-.33.8,1.4,1.4,0,0,1-1.73,0Z" fill="#003a50"/><path d="M334.92,217.48H329.1v-1.84H338v1.84l-4.52,2.65v.07h1.27a3.91,3.91,0,0,1,2.8,1,3.52,3.52,0,0,1,1.05,2.67,3.32,3.32,0,0,1-1.33,2.82,7,7,0,0,1-7.24,0,3.36,3.36,0,0,1-1.33-2.86v-.32h2.11v.32c0,1.37,1,2,2.84,2s2.84-.67,2.84-2-.95-2-2.84-2h-3.26v-1.67l4.57-2.68Z" fill="#003a50"/><path d="M265,170.13h-2.21s0-.06,0-.17a1.69,1.69,0,0,0-.21-.44,2.4,2.4,0,0,0-.39-.5,1.67,1.67,0,0,0-.71-.41,3,3,0,0,0-1-.17,2.53,2.53,0,0,0-2.15,1,4.44,4.44,0,0,0-.76,2.69h.06a1.5,1.5,0,0,1,.44-.44,4.76,4.76,0,0,1,.6-.36,4,4,0,0,1,.95-.3,5.49,5.49,0,0,1,1.22-.13,5,5,0,0,1,3.37,1.11,3.52,3.52,0,0,1,1.31,2.8,3.6,3.6,0,0,1-1.37,2.91,5.55,5.55,0,0,1-3.6,1.1,4.81,4.81,0,0,1-3.87-1.54,6.38,6.38,0,0,1-1.32-4.27v-.41a6.85,6.85,0,0,1,1.32-4.31,4.52,4.52,0,0,1,3.8-1.71,5.66,5.66,0,0,1,2.13.37,4,4,0,0,1,1.44.94A3.45,3.45,0,0,1,265,170.13Zm-2.51,3.15a3.65,3.65,0,0,0-3.95,0,1.86,1.86,0,0,0-.78,1.58,1.89,1.89,0,0,0,.77,1.57,3.69,3.69,0,0,0,4,0,2,2,0,0,0,0-3.15Z" fill="#003a50"/><path d="M267.6,178.55a1,1,0,0,1-.32-.8,1,1,0,0,1,.32-.81,1.24,1.24,0,0,1,.87-.3,1.2,1.2,0,0,1,.86.3,1,1,0,0,1,.33.81,1,1,0,0,1-.33.8,1.2,1.2,0,0,1-.86.3A1.24,1.24,0,0,1,267.6,178.55Z" fill="#003a50"/><path d="M281.38,178.68h-9.94v-1.56a2.75,2.75,0,0,1,.59-1.74,4,4,0,0,1,1.44-1.2c.5-.25,1.12-.54,1.87-.86s1.32-.56,1.88-.77a4.09,4.09,0,0,0,1.44-.92,1.78,1.78,0,0,0,.57-1.3c0-1.26-.88-1.89-2.66-1.89s-2.68.72-2.68,2.16V171h-2.1v-.41a3.62,3.62,0,0,1,1.26-3,5.34,5.34,0,0,1,3.51-1,5.63,5.63,0,0,1,3.51,1,3.29,3.29,0,0,1,1.27,2.75,3.11,3.11,0,0,1-.55,1.83,4.31,4.31,0,0,1-1.41,1.31c-.59.34-1.21.65-1.83.93s-1.24.52-1.83.75a5.55,5.55,0,0,0-1.4.74,1.25,1.25,0,0,0-.57,1h7.63Z" fill="#003a50"/><path d="M101.82,212.74l-2.49,1.95v-2.24l2.73-2.27h1.87v11.91h-2.11Z" fill="#003a50"/><path d="M108.44,212.74,106,214.69v-2.24l2.73-2.27h1.86v11.91h-2.11Z" fill="#003a50"/><path d="M113.08,222a1,1,0,0,1-.33-.81,1,1,0,0,1,.33-.81,1.44,1.44,0,0,1,1.73,0,1,1,0,0,1,.33.81,1,1,0,0,1-.33.81,1.44,1.44,0,0,1-1.73,0Z" fill="#003a50"/><path d="M123.18,212h-5.82v-1.84h8.86V212l-4.52,2.65v.07H123a3.9,3.9,0,0,1,2.79,1,3.52,3.52,0,0,1,1,2.67,3.32,3.32,0,0,1-1.33,2.82,7,7,0,0,1-7.24,0,3.36,3.36,0,0,1-1.33-2.86v-.32H119v.32c0,1.37,1,2,2.84,2s2.84-.67,2.84-2-.94-2-2.84-2h-3.26v-1.67l4.57-2.68Z" fill="#003a50"/><path d="M137.72,98.46l-2.48,2V98.17L138,95.9h1.86v11.91h-2.11Z" fill="#003a50"/><path d="M151,107.05a6.4,6.4,0,0,1-3.68.93,6.49,6.49,0,0,1-3.68-.94,2.94,2.94,0,0,1-1.37-2.56,2.69,2.69,0,0,1,.25-1.16,2.55,2.55,0,0,1,.66-.86,4.05,4.05,0,0,1,1.4-.77l.25-.07v-.09a3.05,3.05,0,0,1-.76-.29,2.88,2.88,0,0,1-.67-.44,2.06,2.06,0,0,1-.53-.75,2.42,2.42,0,0,1-.23-1,2.82,2.82,0,0,1,1.26-2.39,5.81,5.81,0,0,1,3.42-.89,5.91,5.91,0,0,1,3.43.89A2.83,2.83,0,0,1,152,99a2.43,2.43,0,0,1-.22,1,1.87,1.87,0,0,1-.55.74,3.54,3.54,0,0,1-1.2.68l-.22,0v.09l.28.07a5.42,5.42,0,0,1,.62.27,4.19,4.19,0,0,1,.78.5,2.88,2.88,0,0,1,.61.83,2.64,2.64,0,0,1,.28,1.19A3,3,0,0,1,151,107.05Zm-5.78-1.36a3.79,3.79,0,0,0,2.1.49,3.89,3.89,0,0,0,2.1-.48,1.59,1.59,0,0,0,0-2.69,3.89,3.89,0,0,0-2.1-.47,3.85,3.85,0,0,0-2.1.47,1.58,1.58,0,0,0,0,2.68Zm-.37-6.52a1.37,1.37,0,0,0,.64,1.2,4.09,4.09,0,0,0,3.65,0,1.37,1.37,0,0,0,.64-1.2,1.39,1.39,0,0,0-.65-1.2,4,4,0,0,0-3.62,0A1.38,1.38,0,0,0,144.87,99.17Z" fill="#003a50"/><path d="M154.5,107.68a1,1,0,0,1-.33-.81,1,1,0,0,1,.33-.8,1.4,1.4,0,0,1,1.73,0,1,1,0,0,1,.32.8,1,1,0,0,1-.32.81,1.4,1.4,0,0,1-1.73,0Z" fill="#003a50"/><path d="M161.6,107.81h-2.35l5.42-10h-6.93V95.9H167v1.88Z" fill="#003a50"/></g></svg>