<svg id="Слой_1" data-name="Слой 1" xmlns="http://www.w3.org/2000/svg" xmlns:xlink="http://www.w3.org/1999/xlink" viewBox="0 0 407.62 312.95"><defs><clipPath id="clip-path"><polygon points="0 0.11 0 312.84 235.13 312.84 235.13 199.13 364.88 199.13 364.88 153.69 407.62 153.69 407.62 0.11 0 0.11" fill="none"/></clipPath></defs><rect x="41.07" y="0.11" width="295.08" height="2.65" fill="#fff"/><polygon points="41.35 5.28 41.35 309.49 232.15 309.49 232.15 193.17 364.88 193.17 364.88 153.69 364.98 153.69 364.98 5.28 41.35 5.28" fill="#fff"/><polygon points="227.56 193.63 227.56 201.32 227.56 305.76 41.36 305.76 41.36 312.84 235.13 312.84 235.13 199.13 359.23 199.13 359.23 193.63 227.56 193.63" fill="#fff"/><g clip-path="url(#clip-path)"><line x1="21.82" y1="-471.45" x2="21.82" y2="733.42" fill="none" stroke="#003a50" stroke-miterlimit="10"/><line x1="41.36" y1="-471.45" x2="41.36" y2="733.42" fill="none" stroke="#003a50" stroke-miterlimit="10"/></g><rect x="29.04" y="217.25" width="4.55" height="71.66" fill="#fff"/><rect x="29.04" y="217.25" width="4.55" height="71.66" fill="none" stroke="#003a50" stroke-miterlimit="10"/><line x1="31.32" y1="217.25" x2="31.32" y2="288.92" fill="none" stroke="#003a50" stroke-miterlimit="10"/><rect x="29.04" y="217.25" width="4.55" height="4.53" fill="#fff"/><rect x="29.04" y="217.25" width="4.55" height="4.53" fill="none" stroke="#003a50" stroke-miterlimit="10"/><rect x="29.04" y="284.39" width="4.55" height="4.53" fill="#fff"/><rect x="29.04" y="284.39" width="4.55" height="4.53" fill="none" stroke="#003a50" stroke-miterlimit="10"/><rect x="29.04" y="248.55" width="4.55" height="4.53" fill="#fff"/><rect x="29.04" y="248.55" width="4.55" height="4.53" fill="none" stroke="#003a50" stroke-miterlimit="10"/><rect x="29.04" y="58.46" width="4.55" height="71.66" fill="#fff"/><rect x="29.04" y="58.46" width="4.55" height="71.66" fill="none" stroke="#003a50" stroke-miterlimit="10"/><line x1="31.32" y1="58.46" x2="31.32" y2="130.12" fill="none" stroke="#003a50" stroke-miterlimit="10"/><rect x="29.04" y="58.46" width="4.55" height="4.53" fill="#fff"/><rect x="29.04" y="58.46" width="4.55" height="4.53" fill="none" stroke="#003a50" stroke-miterlimit="10"/><rect x="29.04" y="125.59" width="4.55" height="4.53" fill="#fff"/><rect x="29.04" y="125.59" width="4.55" height="4.53" fill="none" stroke="#003a50" stroke-miterlimit="10"/><rect x="29.04" y="89.76" width="4.55" height="4.53" fill="#fff"/><rect x="29.04" y="89.76" width="4.55" height="4.53" fill="none" stroke="#003a50" stroke-miterlimit="10"/><rect x="252.27" y="9.96" width="79.44" height="35.55" fill="none" stroke="#003a50" stroke-miterlimit="10"/><g clip-path="url(#clip-path)"><path d="M268.66,14.37h46.67a13.14,13.14,0,0,1,12.9,13.35v0a13.14,13.14,0,0,1-12.9,13.35H268.66a13.14,13.14,0,0,1-12.9-13.35v0A13.14,13.14,0,0,1,268.66,14.37Z" fill="none" stroke="#003a50" stroke-miterlimit="10"/><path d="M270.24,27.74a1.87,1.87,0,1,1-1.86-1.94A1.89,1.89,0,0,1,270.24,27.74Z" fill="none" stroke="#003a50" stroke-miterlimit="10"/><rect x="234.57" y="215.23" width="41.31" height="92.33" fill="none" stroke="#003a50" stroke-miterlimit="10"/><path d="M270.77,234.28v54.23a15.27,15.27,0,0,1-15.52,15h0a15.27,15.27,0,0,1-15.52-15V234.28a15.26,15.26,0,0,1,15.52-15h0A15.26,15.26,0,0,1,270.77,234.28Z" fill="none" stroke="#003a50" stroke-miterlimit="10"/><ellipse cx="255.23" cy="233.95" rx="2.25" ry="2.17" fill="none" stroke="#003a50" stroke-miterlimit="10"/><path d="M307.82,80.59H331V62.25H307.82a9.17,9.17,0,1,0,0,18.34Z" fill="none" stroke="#003a50" stroke-miterlimit="10"/></g><line x1="322" y1="62.26" x2="322" y2="80.6" fill="none" stroke="#003a50" stroke-miterlimit="10"/><g clip-path="url(#clip-path)"><path d="M328.37,286.89h23.2V268.55h-23.2a9.17,9.17,0,1,0,0,18.34Z" fill="none" stroke="#003a50" stroke-miterlimit="10"/><path d="M332.06,233.9V218.11a2.3,2.3,0,0,0-2.3-2.31H314.48a2.31,2.31,0,0,0-2.31,2.31V233.9a2.32,2.32,0,0,0,2.31,2.31h15.28A2.31,2.31,0,0,0,332.06,233.9Z" fill="none" stroke="#003a50" stroke-miterlimit="10"/><path d="M322.12,227.56a1.56,1.56,0,1,0-1.56-1.55A1.55,1.55,0,0,0,322.12,227.56Z" fill="none" stroke="#003a50" stroke-miterlimit="10"/><path d="M309,233.9V218.11a2.31,2.31,0,0,0-2.31-2.31H291.41a2.31,2.31,0,0,0-2.31,2.31V233.9a2.32,2.32,0,0,0,2.31,2.31h15.28A2.32,2.32,0,0,0,309,233.9Z" fill="none" stroke="#003a50" stroke-miterlimit="10"/><path d="M299.05,227.56a1.56,1.56,0,1,0-1.56-1.55A1.55,1.55,0,0,0,299.05,227.56Z" fill="none" stroke="#003a50" stroke-miterlimit="10"/></g><rect x="195.91" y="189.8" width="26.08" height="109.58" fill="none" stroke="#003a50" stroke-miterlimit="10"/><g clip-path="url(#clip-path)"><path d="M199.61,286.26a.77.77,0,0,1-.34-1.46,22,22,0,0,1,19.36,0,.75.75,0,0,1,.35,1,.77.77,0,0,1-1,.36,20.53,20.53,0,0,0-18,0A.76.76,0,0,1,199.61,286.26Z" fill="none" stroke="#003a50" stroke-miterlimit="10"/><path d="M199.61,282a.76.76,0,0,1-.69-.43.77.77,0,0,1,.35-1,22,22,0,0,1,19.36,0,.77.77,0,0,1-.68,1.38,20.44,20.44,0,0,0-18,0A.76.76,0,0,1,199.61,282Z" fill="none" stroke="#003a50" stroke-miterlimit="10"/><path d="M199.61,277.72a.76.76,0,0,1-.69-.43.77.77,0,0,1,.35-1,22,22,0,0,1,19.36,0,.77.77,0,1,1-.68,1.38,20.53,20.53,0,0,0-18,0A.64.64,0,0,1,199.61,277.72Z" fill="none" stroke="#003a50" stroke-miterlimit="10"/><path d="M199.61,273.45a.77.77,0,0,1-.69-.42.78.78,0,0,1,.35-1,22,22,0,0,1,19.36,0,.77.77,0,0,1,.35,1,.76.76,0,0,1-1,.35,20.53,20.53,0,0,0-18,0A.64.64,0,0,1,199.61,273.45Z" fill="none" stroke="#003a50" stroke-miterlimit="10"/><path d="M199.61,269.19a.76.76,0,0,1-.69-.43.77.77,0,0,1,.35-1,22,22,0,0,1,19.36,0,.77.77,0,1,1-.68,1.38,20.44,20.44,0,0,0-18,0A.76.76,0,0,1,199.61,269.19Z" fill="none" stroke="#003a50" stroke-miterlimit="10"/><path d="M199.61,264.92a.76.76,0,0,1-.69-.43.77.77,0,0,1,.35-1,22,22,0,0,1,19.36,0,.77.77,0,1,1-.68,1.38,20.53,20.53,0,0,0-18,0A.64.64,0,0,1,199.61,264.92Z" fill="none" stroke="#003a50" stroke-miterlimit="10"/><path d="M199.61,290.52a.76.76,0,0,1-.69-.43.77.77,0,0,1,.35-1,22,22,0,0,1,19.36,0,.77.77,0,1,1-.68,1.38,20.53,20.53,0,0,0-18,0A.64.64,0,0,1,199.61,290.52Z" fill="none" stroke="#003a50" stroke-miterlimit="10"/><path d="M199.61,294.79a.76.76,0,0,1-.69-.43.77.77,0,0,1,.35-1,22,22,0,0,1,19.36,0,.77.77,0,1,1-.68,1.38,20.53,20.53,0,0,0-18,0A.64.64,0,0,1,199.61,294.79Z" fill="none" stroke="#003a50" stroke-miterlimit="10"/></g><line x1="208.95" y1="299.38" x2="208.95" y2="189.8" fill="none" stroke="#003a50" stroke-miterlimit="10"/><rect x="247.23" y="157.53" width="104.63" height="28.64" fill="none" stroke="#003a50" stroke-miterlimit="10"/><g clip-path="url(#clip-path)"><path d="M260.84,161.59a.83.83,0,0,1,.44-.75.79.79,0,0,1,1.08.38,25.51,25.51,0,0,1,0,21.26.79.79,0,0,1-1.07.39.87.87,0,0,1-.37-1.13,23.72,23.72,0,0,0,0-19.78A.8.8,0,0,1,260.84,161.59Z" fill="none" stroke="#003a50" stroke-miterlimit="10"/><path d="M265.27,161.59a.83.83,0,0,1,.44-.75.77.77,0,0,1,1.07.38,25.51,25.51,0,0,1,0,21.26.78.78,0,0,1-1.07.39.87.87,0,0,1-.36-1.13,23.72,23.72,0,0,0,0-19.78A.8.8,0,0,1,265.27,161.59Z" fill="none" stroke="#003a50" stroke-miterlimit="10"/><path d="M269.69,161.59a.84.84,0,0,1,.45-.75.77.77,0,0,1,1.07.38,25.51,25.51,0,0,1,0,21.26.79.79,0,0,1-1.07.39.86.86,0,0,1-.36-1.13,23.72,23.72,0,0,0,0-19.78A.81.81,0,0,1,269.69,161.59Z" fill="none" stroke="#003a50" stroke-miterlimit="10"/><path d="M274.12,161.59a.83.83,0,0,1,.44-.75.77.77,0,0,1,1.07.38,25.51,25.51,0,0,1,0,21.26.78.78,0,0,1-1.06.39.87.87,0,0,1-.37-1.13,23.72,23.72,0,0,0,0-19.78A.8.8,0,0,1,274.12,161.59Z" fill="none" stroke="#003a50" stroke-miterlimit="10"/><path d="M278.54,161.59a.84.84,0,0,1,.45-.75.77.77,0,0,1,1.07.38,25.51,25.51,0,0,1,0,21.26.79.79,0,0,1-1.07.39.87.87,0,0,1-.36-1.13,23.72,23.72,0,0,0,0-19.78A.81.81,0,0,1,278.54,161.59Z" fill="none" stroke="#003a50" stroke-miterlimit="10"/><path d="M283,161.59a.83.83,0,0,1,.44-.75.77.77,0,0,1,1.07.38,25.51,25.51,0,0,1,0,21.26.78.78,0,0,1-1.06.39.87.87,0,0,1-.37-1.13,23.72,23.72,0,0,0,0-19.78A.8.8,0,0,1,283,161.59Z" fill="none" stroke="#003a50" stroke-miterlimit="10"/><path d="M256.41,161.59a.84.84,0,0,1,.45-.75.77.77,0,0,1,1.07.38,25.51,25.51,0,0,1,0,21.26.79.79,0,0,1-1.07.39.87.87,0,0,1-.36-1.13,23.72,23.72,0,0,0,0-19.78A.81.81,0,0,1,256.41,161.59Z" fill="none" stroke="#003a50" stroke-miterlimit="10"/><path d="M252,161.59a.83.83,0,0,1,.44-.75.79.79,0,0,1,1.08.38,25.51,25.51,0,0,1,0,21.26.79.79,0,0,1-1.07.39.87.87,0,0,1-.37-1.13,23.72,23.72,0,0,0,0-19.78A.8.8,0,0,1,252,161.59Z" fill="none" stroke="#003a50" stroke-miterlimit="10"/></g><line x1="247.23" y1="171.85" x2="353.31" y2="171.85" fill="none" stroke="#003a50" stroke-miterlimit="10"/><rect x="51.83" y="280.78" width="18.91" height="18.91" fill="none" stroke="#003a50" stroke-miterlimit="10"/><g clip-path="url(#clip-path)"><path d="M66.7,284.81a7.67,7.67,0,1,0,0,10.84A7.67,7.67,0,0,0,66.7,284.81Z" fill="none" stroke="#003a50" stroke-miterlimit="10"/><path d="M67.22,285.39c-1.41.14-2.84-.41-4.22,1-2,2,.12,4.19-1.91,6.22s-4.19-.12-6.22,1.92" fill="none" stroke="#003a50" stroke-miterlimit="10"/></g><rect x="166.31" y="280.78" width="18.91" height="18.91" fill="none" stroke="#003a50" stroke-miterlimit="10"/><g clip-path="url(#clip-path)"><path d="M181.18,284.81a7.67,7.67,0,1,0,0,10.84A7.67,7.67,0,0,0,181.18,284.81Z" fill="none" stroke="#003a50" stroke-miterlimit="10"/><path d="M181.7,285.39c-1.41.14-2.84-.41-4.22,1-2,2,.12,4.19-1.91,6.22s-4.19-.12-6.22,1.92" fill="none" stroke="#003a50" stroke-miterlimit="10"/></g><rect x="76.01" y="205.15" width="85.08" height="94.54" fill="none" stroke="#003a50" stroke-miterlimit="10"/><g clip-path="url(#clip-path)"><path d="M152.76,213.27H84.35A1.73,1.73,0,0,0,82.61,215v56.4H154.5V215A1.73,1.73,0,0,0,152.76,213.27Z" fill="none" stroke="#003a50" stroke-miterlimit="10"/><path d="M116.18,274.41H84.05a1.65,1.65,0,0,0-1.65,1.66v15.77a1.65,1.65,0,0,0,1.65,1.65h32.13a1.65,1.65,0,0,0,1.65-1.65V276.07A1.65,1.65,0,0,0,116.18,274.41Z" fill="none" stroke="#003a50" stroke-miterlimit="10"/><rect x="119.28" y="274.41" width="35.44" height="19.08" rx="1.65" fill="none" stroke="#003a50" stroke-miterlimit="10"/></g><line x1="154.71" y1="259.85" x2="82.4" y2="259.85" fill="none" stroke="#003a50" stroke-miterlimit="10"/><g clip-path="url(#clip-path)"><rect x="166.89" y="312.21" width="18.91" height="18.91" fill="none" stroke="#003a50" stroke-miterlimit="10"/><rect x="52.41" y="312.21" width="18.91" height="18.91" fill="none" stroke="#003a50" stroke-miterlimit="10"/><rect x="76.53" y="312.21" width="85.08" height="94.54" fill="none" stroke="#003a50" stroke-miterlimit="10"/><path d="M269.46,71.64h-15.8a2.31,2.31,0,0,1-2.31-2.3V54.06a2.32,2.32,0,0,1,2.31-2.31h15.8a2.31,2.31,0,0,1,2.3,2.31V69.34A2.3,2.3,0,0,1,269.46,71.64Z" fill="none" stroke="#003a50" stroke-miterlimit="10"/><path d="M263.12,61.7a1.56,1.56,0,1,1-1.56-1.56A1.55,1.55,0,0,1,263.12,61.7Z" fill="none" stroke="#003a50" stroke-miterlimit="10"/></g><rect x="253.17" y="45.51" width="20.25" height="31.18" fill="none" stroke="#003a50" stroke-miterlimit="10"/><g clip-path="url(#clip-path)"><path d="M263,82.25a2.68,2.68,0,0,1-2.47-1.66H259L255,83l1.83,3,2.1-1.15v9.36h8.78V84.83l2.1,1.15,1.83-3-4.06-2.41h-2A2.72,2.72,0,0,1,263,82.25Z" fill="none" stroke="#003a50" stroke-miterlimit="10"/></g><rect x="253.17" y="76.69" width="20.25" height="21.4" fill="none" stroke="#003a50" stroke-miterlimit="10"/><g clip-path="url(#clip-path)"><path d="M191.76,106.82a1,1,0,0,0-.71,1.14,10.41,10.41,0,0,1-20.3,4.65.94.94,0,0,0-1.13-.71,1,1,0,0,0-.72,1.14,12.31,12.31,0,0,0,24-5.51A1,1,0,0,0,191.76,106.82Z" fill="none" stroke="#003a50" stroke-miterlimit="10"/><path d="M150.1,114.16a1,1,0,0,0-1.32-.26,10.41,10.41,0,0,1-11.72-17.2,1,1,0,0,0,.25-1.32,1,1,0,0,0-1.32-.25,12.31,12.31,0,0,0,13.86,20.35A.94.94,0,0,0,150.1,114.16Z" fill="none" stroke="#003a50" stroke-miterlimit="10"/><path d="M148.21,78.36a.94.94,0,0,0,1-.89A10.41,10.41,0,0,1,170,78.7a1,1,0,0,0,1.9.12,12.31,12.31,0,1,0-24.57-1.46A1,1,0,0,0,148.21,78.36Z" fill="none" stroke="#003a50" stroke-miterlimit="10"/><path d="M181,119.36a9.57,9.57,0,0,0,9.06-11.68L188.56,101a2.66,2.66,0,0,0-3.2-2l-10.15,2.32a18,18,0,0,1-4.53,7.13l.72,3.17A9.81,9.81,0,0,0,181,119.36Z" fill="none" stroke="#003a50" stroke-miterlimit="10"/><path d="M148.72,112.93l1.75-1.21a18,18,0,0,1-10.3-16.09l-1.9,1.29a9.8,9.8,0,0,0-3.74,11.81A9.58,9.58,0,0,0,148.72,112.93Z" fill="none" stroke="#003a50" stroke-miterlimit="10"/><path d="M169,81l.09-1.48a9.79,9.79,0,0,0-7-10.18,9.56,9.56,0,0,0-12,8.67L150,79.41A18,18,0,0,1,169,81Z" fill="none" stroke="#003a50" stroke-miterlimit="10"/><path d="M170.68,108.4a18,18,0,0,0,4.53-7.13,12,12,0,0,0,.45-1.51A18,18,0,0,0,169,81,17.72,17.72,0,0,0,162.52,78,18,18,0,0,0,140.69,91.1a16.32,16.32,0,0,0-.52,4.52,18,18,0,0,0,10.3,16.1,16.94,16.94,0,0,0,3.38,1.21A18,18,0,0,0,170.68,108.4Z" fill="none" stroke="#003a50" stroke-miterlimit="10"/></g><rect x="54.25" y="144.01" width="81.75" height="13.62" fill="none" stroke="#003a50" stroke-miterlimit="10"/><polygon points="60.67 150.38 95.04 153.21 129.57 150.38 129.57 148.41 60.67 148.41 60.67 150.38" fill="none" stroke="#003a50" stroke-miterlimit="10"/><rect x="54.25" y="162.46" width="81.75" height="13.62" fill="none" stroke="#003a50" stroke-miterlimit="10"/><polygon points="129.57 169.71 95.21 166.88 60.68 169.71 60.68 171.67 129.57 171.67 129.57 169.71" fill="none" stroke="#003a50" stroke-miterlimit="10"/><g clip-path="url(#clip-path)"><path d="M95.09,44.67v-31H60.53V46.35H93.41A1.68,1.68,0,0,0,95.09,44.67Z" fill="none" stroke="#003a50" stroke-miterlimit="10"/><path d="M129.72,44.84V13.69H95.16V44.84a1.5,1.5,0,0,0,1.5,1.5h31.56A1.5,1.5,0,0,0,129.72,44.84Z" fill="none" stroke="#003a50" stroke-miterlimit="10"/><path d="M60.53,46.34A2.35,2.35,0,0,1,58,48.48H54.83a2.35,2.35,0,0,1-2.51-2.14V10h85.61V46a2.35,2.35,0,0,1-2.51,2.14h-3.19A2.35,2.35,0,0,1,129.72,46V13.69H60.53Z" fill="none" stroke="#003a50" stroke-miterlimit="10"/></g><rect x="60.53" y="13.69" width="69.19" height="6.98" fill="none" stroke="#003a50" stroke-miterlimit="10"/><g clip-path="url(#clip-path)"><path d="M129.72-36a2.35,2.35,0,0,1,2.51-2.14h3.19A2.35,2.35,0,0,1,137.93-36V.38H52.31V-35.69a2.36,2.36,0,0,1,2.52-2.14H58a2.36,2.36,0,0,1,2.52,2.14V-3.36h69.19Z" fill="none" stroke="#003a50" stroke-miterlimit="10"/></g><rect x="221.15" y="76.07" width="26.65" height="26.69" fill="none" stroke="#003a50" stroke-miterlimit="10"/><g clip-path="url(#clip-path)"><path d="M231.08,88.79V80.13h6.75v8.66a2.77,2.77,0,0,1-2.77,2.78h-1.2A2.78,2.78,0,0,1,231.08,88.79Z" fill="none" stroke="#003a50" stroke-miterlimit="10"/></g><polyline points="237.19 99.86 234.46 99.86 231.73 99.86" fill="none" stroke="#003a50" stroke-miterlimit="10"/><line x1="234.46" y1="91.57" x2="234.46" y2="99.86" fill="none" stroke="#003a50" stroke-miterlimit="10"/><rect x="180.78" y="10.29" width="28.61" height="28.61" fill="none" stroke="#003a50" stroke-miterlimit="10"/><g clip-path="url(#clip-path)"><circle cx="188.55" cy="30.99" r="3.9" transform="matrix(0.99, -0.16, 0.16, 0.99, -2.53, 30.6)" fill="none" stroke="#003a50" stroke-miterlimit="10"/><circle cx="201.57" cy="30.99" r="3.9" transform="matrix(0.99, -0.16, 0.16, 0.99, -2.36, 32.69)" fill="none" stroke="#003a50" stroke-miterlimit="10"/><circle cx="188.55" cy="18.31" r="3.9" transform="matrix(0.99, -0.16, 0.16, 0.99, -0.5, 30.44)" fill="none" stroke="#003a50" stroke-miterlimit="10"/><circle cx="201.57" cy="18.31" r="3.9" transform="matrix(0.99, -0.16, 0.16, 0.99, -0.33, 32.52)" fill="none" stroke="#003a50" stroke-miterlimit="10"/></g><polyline points="243.61 60.12 243.61 55.45 243.61 50.78" fill="none" stroke="#003a50" stroke-miterlimit="10"/><line x1="234.25" y1="55.43" x2="243.61" y2="55.43" fill="none" stroke="#003a50" stroke-miterlimit="10"/><g clip-path="url(#clip-path)"><rect x="224.71" y="45.13" width="14.9" height="20.66" rx="3.24" fill="none" stroke="#003a50" stroke-miterlimit="10"/><path d="M233.08,55.43a1.67,1.67,0,1,0,1.67-1.66A1.67,1.67,0,0,0,233.08,55.43Z" fill="none" stroke="#003a50" stroke-miterlimit="10"/></g><rect x="199.25" y="157.53" width="28.12" height="28.12" fill="none" stroke="#003a50" stroke-miterlimit="10"/><line x1="205.06" y1="171.59" x2="221.56" y2="171.59" fill="none" stroke="#003a50" stroke-miterlimit="10"/><line x1="213.31" y1="163.34" x2="213.31" y2="179.84" fill="none" stroke="#003a50" stroke-miterlimit="10"/><line x1="207.48" y1="165.76" x2="219.14" y2="177.42" fill="none" stroke="#003a50" stroke-miterlimit="10"/><line x1="219.15" y1="165.76" x2="207.48" y2="177.42" fill="none" stroke="#003a50" stroke-miterlimit="10"/><rect x="199.94" y="157.53" width="47.28" height="31.2" fill="none" stroke="#003a50" stroke-miterlimit="10"/><rect x="168.45" y="9.29" width="81.65" height="29.62" fill="none" stroke="#003a50" stroke-miterlimit="10"/><rect x="221.15" y="9.97" width="28.24" height="92.79" fill="none" stroke="#003a50" stroke-miterlimit="10"/><g clip-path="url(#clip-path)"><rect x="262.74" y="-27.16" width="27.5" height="27.5" fill="none" stroke="#003a50" stroke-miterlimit="10"/><rect x="249.23" y="-27.16" width="54.56" height="27.5" fill="none" stroke="#003a50" stroke-miterlimit="10"/><rect x="303.81" y="-100.5" width="28.24" height="100.9" fill="none" stroke="#003a50" stroke-miterlimit="10"/><path d="M278.24,312.43v2.24c0,15.59,13.64,28.22,30.47,28.22V312.43" fill="none" stroke="#003a50" stroke-miterlimit="10" stroke-width="1.6"/><path d="M276.76,103.27v2.25c0,15.58,13.64,28.22,30.47,28.22V103.27" fill="none" stroke="#003a50" stroke-miterlimit="10" stroke-width="1.6"/><path d="M152.07,161v2.68c0,18.64,16.3,33.74,36.42,33.74V161" fill="none" stroke="#003a50" stroke-miterlimit="10" stroke-width="1.6"/><path d="M363.29,110.19h3.08c21.41,0,38.76,18.74,38.76,41.85H363.29" fill="none" stroke="#003a50" stroke-miterlimit="10" stroke-width="1.6"/><path d="M421.24,204.44v-3.08c0-21.41-18.73-38.76-41.84-38.76v41.84" fill="none" stroke="#003a50" stroke-miterlimit="10" stroke-width="1.6"/></g><rect x="330.39" y="0.11" width="5.75" height="101.4" fill="#003a50"/><rect x="247.23" y="2.75" width="5.75" height="100.52" fill="#003a50"/><rect x="247.23" y="97.52" width="30.32" height="5.75" fill="#003a50"/><rect x="195.07" y="185.13" width="30.32" height="5.75" fill="#003a50"/><rect x="229.73" y="306.97" width="5.4" height="5.75" fill="#003a50"/><rect x="229.73" y="212.36" width="5.4" height="5.75" fill="#003a50"/><rect x="195.07" y="157.04" width="5.75" height="30.32" fill="#003a50"/><rect x="187.67" y="157.04" width="13.16" height="5.75" fill="#003a50"/><rect x="34.02" y="157.04" width="118.87" height="5.75" fill="#003a50"/><rect x="306.42" y="97.52" width="52.25" height="5.75" fill="#003a50"/><rect x="331.73" y="0.11" width="8.5" height="2.64" fill="#003a50"/><rect x="12.42" y="289.42" width="28.64" height="23.42" fill="#003a50"/><g clip-path="url(#clip-path)"><rect x="12.42" y="289.42" width="28.64" height="86.25" fill="none" stroke="#003a50" stroke-miterlimit="10" stroke-width="2.09"/></g><rect x="0.94" y="131.84" width="40.12" height="86.25" fill="#003a50"/><g clip-path="url(#clip-path)"><rect x="0.95" y="131.84" width="40.12" height="86.25" fill="none" stroke="#003a50" stroke-miterlimit="10" stroke-width="2.09"/></g><rect x="12.42" y="0.11" width="28.64" height="57.98" fill="#003a50"/><g clip-path="url(#clip-path)"><rect x="12.42" y="-28.16" width="28.64" height="86.25" fill="none" stroke="#003a50" stroke-miterlimit="10" stroke-width="2.09"/></g><rect x="34.81" y="0.11" width="330.17" height="10.73" fill="#003a50"/><rect x="351.07" y="0.11" width="13.92" height="1.56" fill="#003a50"/><rect x="351.07" y="0.34" width="13.92" height="110.59" fill="#003a50"/><rect x="221.47" y="185.14" width="134.26" height="13.92" fill="#003a50"/><polygon points="221.47 185.13 221.47 312.72 235.13 312.72 235.13 199.13 235.39 199.13 235.39 185.13 221.47 185.13" fill="#003a50"/><rect x="34.02" y="298.8" width="201.12" height="13.92" fill="#003a50"/><polygon points="351.07 151.17 351.07 199.13 364.88 199.13 364.88 153.69 364.98 153.69 364.98 151.17 351.07 151.17" fill="#003a50"/><rect x="1.39" y="34.84" width="28.64" height="23.25" fill="#003a50"/><g clip-path="url(#clip-path)"><rect x="1.39" y="34.84" width="28.64" height="23.25" fill="none" stroke="#003a50" stroke-miterlimit="10" stroke-width="2.09"/><path d="M100.83,184.29l-2.48,2V184l2.73-2.27h1.86v11.91h-2.11Z" fill="#003a50"/><path d="M107.46,184.29l-2.49,2V184l2.74-2.27h1.86v11.91h-2.11Z" fill="#003a50"/><path d="M112.09,193.5a1,1,0,0,1-.32-.8,1.07,1.07,0,0,1,.32-.81,1.41,1.41,0,0,1,1.74,0,1.07,1.07,0,0,1,.32.81,1,1,0,0,1-.32.8,1.41,1.41,0,0,1-1.74,0Z" fill="#003a50"/><path d="M125.71,185.08H123.5s0-.06,0-.17a1.85,1.85,0,0,0-.21-.44,2.69,2.69,0,0,0-.39-.5,1.77,1.77,0,0,0-.71-.41,2.93,2.93,0,0,0-1-.16,2.51,2.51,0,0,0-2.15,1,4.39,4.39,0,0,0-.76,2.68h.06a1.49,1.49,0,0,1,.44-.43,3.9,3.9,0,0,1,.6-.37,5.11,5.11,0,0,1,1-.3,5.56,5.56,0,0,1,1.22-.13,5,5,0,0,1,3.37,1.11,3.52,3.52,0,0,1,1.31,2.8,3.57,3.57,0,0,1-1.37,2.91,5.49,5.49,0,0,1-3.6,1.1,4.81,4.81,0,0,1-3.87-1.54A6.36,6.36,0,0,1,116,188v-.41a6.85,6.85,0,0,1,1.32-4.31,4.52,4.52,0,0,1,3.8-1.71,5.66,5.66,0,0,1,2.13.38,3.82,3.82,0,0,1,1.44.93A3.45,3.45,0,0,1,125.71,185.08Zm-2.51,3.15a3.65,3.65,0,0,0-4,0,2,2,0,0,0,0,3.15,3.63,3.63,0,0,0,4,0,2,2,0,0,0,0-3.15Z" fill="#003a50"/><path d="M77.75,88.75l-2.48,2V88.46L78,86.19h1.86V98.1H77.75Z" fill="#003a50"/><path d="M87.76,90.12a5,5,0,0,1,3.34,1.07,4.17,4.17,0,0,1,0,6,5.38,5.38,0,0,1-3.54,1.08,5.75,5.75,0,0,1-3.56-1,3.16,3.16,0,0,1-1.29-2.68h2.11a1.54,1.54,0,0,0,.7,1.33,3.62,3.62,0,0,0,2,.48,3.17,3.17,0,0,0,2-.57,2.36,2.36,0,0,0,0-3.39,3.29,3.29,0,0,0-2.07-.58,3.6,3.6,0,0,0-1.92.42,1.87,1.87,0,0,0-.69.64l0,.12H82.66V86.19h8.88V88H84.77V91h0a2.31,2.31,0,0,1,.4-.3,3,3,0,0,1,.54-.27A5.66,5.66,0,0,1,87.76,90.12Z" fill="#003a50"/><path d="M94.46,98a1,1,0,0,1-.32-.81,1,1,0,0,1,.32-.8,1.23,1.23,0,0,1,.87-.3,1.2,1.2,0,0,1,.86.3,1,1,0,0,1,.33.8,1,1,0,0,1-.33.81,1.2,1.2,0,0,1-.86.3A1.23,1.23,0,0,1,94.46,98Z" fill="#003a50"/><path d="M106.79,98.1h-2.11V95.45h-7V93.61L104,86.19h2.79v7.42h1.6v1.84h-1.6Zm-2.11-4.49V88.29h-.06l-4.48,5.27v0Z" fill="#003a50"/><path d="M283.75,82.54h-5.82V80.7h8.86v1.84l-4.52,2.65v.07h1.27a3.87,3.87,0,0,1,2.79,1,3.5,3.5,0,0,1,1.06,2.67,3.32,3.32,0,0,1-1.33,2.82,6.93,6.93,0,0,1-7.24,0,3.35,3.35,0,0,1-1.33-2.85v-.33h2.11v.33c0,1.36.95,2,2.84,2s2.84-.67,2.84-2-.95-2-2.84-2h-3.26V85.29l4.57-2.68Z" fill="#003a50"/><path d="M289.49,92.48a1.17,1.17,0,0,1,0-1.61,1.41,1.41,0,0,1,1.74,0,1.17,1.17,0,0,1,0,1.61,1.41,1.41,0,0,1-1.74,0Z" fill="#003a50"/><path d="M301.82,92.61h-2.11V90h-7V88.12L299,80.7h2.79v7.42h1.6V90h-1.6Zm-2.11-4.49V82.79h-.06l-4.48,5.28v.05Z" fill="#003a50"/><path d="M295.48,255.12a5,5,0,0,1,3.34,1.06,4.18,4.18,0,0,1,0,6,5.39,5.39,0,0,1-3.55,1.08,5.79,5.79,0,0,1-3.56-1,3.15,3.15,0,0,1-1.29-2.68h2.11a1.55,1.55,0,0,0,.7,1.33,3.53,3.53,0,0,0,2,.49,3.15,3.15,0,0,0,2-.57,2.06,2.06,0,0,0,.7-1.69,2,2,0,0,0-.73-1.7,3.25,3.25,0,0,0-2.07-.58,3.61,3.61,0,0,0-1.92.41,1.93,1.93,0,0,0-.7.64l-.05.13h-2.11v-6.88h8.88V253h-6.77v3h.05a2.22,2.22,0,0,1,.4-.31,3.94,3.94,0,0,1,.55-.26A5.6,5.6,0,0,1,295.48,255.12Z" fill="#003a50"/><path d="M302.18,263a1,1,0,0,1-.32-.8,1.07,1.07,0,0,1,.32-.81,1.25,1.25,0,0,1,.88-.3,1.22,1.22,0,0,1,.86.3,1.07,1.07,0,0,1,.32.81,1,1,0,0,1-.32.8,1.22,1.22,0,0,1-.86.3A1.25,1.25,0,0,1,302.18,263Z" fill="#003a50"/><path d="M307.59,261.56a7.33,7.33,0,0,1,0-8.83,5.69,5.69,0,0,1,8.13,0,7.33,7.33,0,0,1,0,8.83,5.71,5.71,0,0,1-8.13,0Zm6.53-1.39a5,5,0,0,0,.87-3,5,5,0,0,0-.87-3,3.15,3.15,0,0,0-4.92,0,4.94,4.94,0,0,0-.88,3,4.89,4.89,0,0,0,.88,3,2.85,2.85,0,0,0,2.46,1.19A2.89,2.89,0,0,0,314.12,260.17Z" fill="#003a50"/><path d="M393.54,253.75l-2.49,1.95v-2.24l2.74-2.27h1.86V263.1h-2.11Z" fill="#003a50"/><path d="M400.17,253.75l-2.49,1.95v-2.24l2.73-2.27h1.86V263.1h-2.1Z" fill="#003a50"/><path d="M404.8,263a1,1,0,0,1-.33-.8,1,1,0,0,1,.33-.81,1.23,1.23,0,0,1,.87-.3,1.2,1.2,0,0,1,.86.3,1,1,0,0,1,.33.81,1,1,0,0,1-.33.8,1.2,1.2,0,0,1-.86.3A1.23,1.23,0,0,1,404.8,263Z" fill="#003a50"/><path d="M328.8,139.87h-2.11v-2.64h-7v-1.85L326,128h2.79v7.41h1.6v1.85h-1.6Zm-2.11-4.49v-5.32h-.06l-4.48,5.27v0Z" fill="#003a50"/><path d="M332.08,139.74a1,1,0,0,1-.32-.8,1.07,1.07,0,0,1,.32-.81,1.25,1.25,0,0,1,.88-.3,1.22,1.22,0,0,1,.86.3,1,1,0,0,1,.32.81,1,1,0,0,1-.32.8,1.22,1.22,0,0,1-.86.3A1.25,1.25,0,0,1,332.08,139.74Z" fill="#003a50"/><path d="M338,130.52l-2.48,2v-2.25l2.73-2.26h1.86v11.9H338Z" fill="#003a50"/></g></svg>