<svg id="Слой_1" data-name="Слой 1" xmlns="http://www.w3.org/2000/svg" xmlns:xlink="http://www.w3.org/1999/xlink" viewBox="0 0 407.62 312.95"><defs><clipPath id="clip-path"><polygon points="0 0.11 0 312.84 235.13 312.84 235.13 199.13 364.88 199.13 364.88 153.69 407.62 153.69 407.62 0.11 0 0.11" fill="none"/></clipPath></defs><rect x="11.91" y="0.11" width="324.24" height="2.65" fill="#fff"/><polygon points="11.4 5.28 11.4 309.49 232.15 309.49 232.15 193.17 364.88 193.17 364.88 153.69 364.98 153.69 364.98 5.28 11.4 5.28" fill="#fff"/><polygon points="227.56 193.63 227.56 201.32 227.56 305.76 11.4 305.76 11.4 312.84 235.13 312.84 235.13 199.13 359.23 199.13 359.23 193.63 227.56 193.63" fill="#fff"/><g clip-path="url(#clip-path)"><line x1="11.4" y1="-471.45" x2="11.4" y2="723.91" fill="none" stroke="#003a50" stroke-miterlimit="10"/><polyline points="768.49 -679.22 768.49 -1782.83 745.49 -1805.83 -96.13 -1805.83 -119.13 -1782.83 -119.13 -436.7 0.48 -436.7 0.48 688.42" fill="none" stroke="#003a50" stroke-miterlimit="10"/><polyline points="0.07 734.61 1082.73 734.61 1082.73 710.47 1082.73 -679.22 775.83 -679.22" fill="none" stroke="#003a50" stroke-miterlimit="10"/></g><rect x="29.04" y="58.59" width="4.55" height="72.71" fill="#fff"/><rect x="29.04" y="58.59" width="4.55" height="72.72" fill="none" stroke="#003a50" stroke-miterlimit="10"/><line x1="31.32" y1="58.59" x2="31.32" y2="131.31" fill="none" stroke="#003a50" stroke-miterlimit="10"/><rect x="29.04" y="58.59" width="4.55" height="4.6" fill="#fff"/><rect x="29.04" y="58.59" width="4.55" height="4.6" fill="none" stroke="#003a50" stroke-miterlimit="10"/><rect x="29.04" y="126.71" width="4.55" height="4.6" fill="#fff"/><rect x="29.04" y="126.71" width="4.55" height="4.6" fill="none" stroke="#003a50" stroke-miterlimit="10"/><rect x="29.04" y="90.36" width="4.55" height="4.6" fill="#fff"/><rect x="29.04" y="90.36" width="4.55" height="4.6" fill="none" stroke="#003a50" stroke-miterlimit="10"/><g clip-path="url(#clip-path)"><path d="M33.59,95h2.53C53.73,95,65,109.17,65,126.71H33.59" fill="none" stroke="#003a50" stroke-miterlimit="10"/></g><rect x="29.04" y="219.39" width="4.55" height="68.7" fill="#fff"/><rect x="29.04" y="219.39" width="4.55" height="68.7" fill="none" stroke="#003a50" stroke-miterlimit="10"/><line x1="31.32" y1="288.09" x2="31.32" y2="219.39" fill="none" stroke="#003a50" stroke-miterlimit="10"/><rect x="29.04" y="283.74" width="4.55" height="4.34" fill="#fff"/><rect x="29.04" y="283.74" width="4.55" height="4.34" fill="none" stroke="#003a50" stroke-miterlimit="10"/><rect x="29.04" y="219.39" width="4.55" height="4.34" fill="#fff"/><rect x="29.04" y="219.39" width="4.55" height="4.34" fill="none" stroke="#003a50" stroke-miterlimit="10"/><rect x="29.04" y="253.74" width="4.55" height="4.34" fill="#fff"/><rect x="29.04" y="253.74" width="4.55" height="4.34" fill="none" stroke="#003a50" stroke-miterlimit="10"/><g clip-path="url(#clip-path)"><path d="M33.59,253.74h2.53c17.61,0,28.92-13.43,28.92-30H33.59" fill="none" stroke="#003a50" stroke-miterlimit="10"/></g><rect x="252.27" y="9.96" width="79.44" height="35.55" fill="none" stroke="#003a50" stroke-miterlimit="10"/><g clip-path="url(#clip-path)"><path d="M268.66,14.37h46.67a13.14,13.14,0,0,1,12.9,13.35v0a13.14,13.14,0,0,1-12.9,13.35H268.66a13.14,13.14,0,0,1-12.9-13.35v0A13.14,13.14,0,0,1,268.66,14.37Z" fill="none" stroke="#003a50" stroke-miterlimit="10"/><path d="M270.24,27.74a1.87,1.87,0,1,1-1.86-1.94A1.89,1.89,0,0,1,270.24,27.74Z" fill="none" stroke="#003a50" stroke-miterlimit="10"/><rect x="234.57" y="215.23" width="41.31" height="92.33" fill="none" stroke="#003a50" stroke-miterlimit="10"/><path d="M270.77,234.28v54.23a15.27,15.27,0,0,1-15.52,15h0a15.27,15.27,0,0,1-15.52-15V234.28a15.26,15.26,0,0,1,15.52-15h0A15.26,15.26,0,0,1,270.77,234.28Z" fill="none" stroke="#003a50" stroke-miterlimit="10"/><ellipse cx="255.23" cy="233.95" rx="2.25" ry="2.17" fill="none" stroke="#003a50" stroke-miterlimit="10"/><path d="M307.82,80.59H331V62.25H307.82a9.17,9.17,0,1,0,0,18.34Z" fill="none" stroke="#003a50" stroke-miterlimit="10"/></g><line x1="322" y1="62.26" x2="322" y2="80.6" fill="none" stroke="#003a50" stroke-miterlimit="10"/><g clip-path="url(#clip-path)"><path d="M328.37,286.89h23.2V268.55h-23.2a9.17,9.17,0,1,0,0,18.34Z" fill="none" stroke="#003a50" stroke-miterlimit="10"/><path d="M332.06,233.9V218.11a2.3,2.3,0,0,0-2.3-2.31H314.48a2.31,2.31,0,0,0-2.31,2.31V233.9a2.32,2.32,0,0,0,2.31,2.31h15.28A2.31,2.31,0,0,0,332.06,233.9Z" fill="none" stroke="#003a50" stroke-miterlimit="10"/><path d="M322.12,227.56a1.56,1.56,0,1,0-1.56-1.55A1.55,1.55,0,0,0,322.12,227.56Z" fill="none" stroke="#003a50" stroke-miterlimit="10"/><path d="M309,233.9V218.11a2.31,2.31,0,0,0-2.31-2.31H291.41a2.31,2.31,0,0,0-2.31,2.31V233.9a2.32,2.32,0,0,0,2.31,2.31h15.28A2.32,2.32,0,0,0,309,233.9Z" fill="none" stroke="#003a50" stroke-miterlimit="10"/><path d="M299.05,227.56a1.56,1.56,0,1,0-1.56-1.55A1.55,1.55,0,0,0,299.05,227.56Z" fill="none" stroke="#003a50" stroke-miterlimit="10"/></g><rect x="195.91" y="189.8" width="26.08" height="109.58" fill="none" stroke="#003a50" stroke-miterlimit="10"/><g clip-path="url(#clip-path)"><path d="M199.61,286.26a.77.77,0,0,1-.34-1.46,22,22,0,0,1,19.36,0,.75.75,0,0,1,.35,1,.77.77,0,0,1-1,.36,20.53,20.53,0,0,0-18,0A.76.76,0,0,1,199.61,286.26Z" fill="none" stroke="#003a50" stroke-miterlimit="10"/><path d="M199.61,282a.76.76,0,0,1-.69-.43.77.77,0,0,1,.35-1,22,22,0,0,1,19.36,0,.77.77,0,0,1-.68,1.38,20.44,20.44,0,0,0-18,0A.76.76,0,0,1,199.61,282Z" fill="none" stroke="#003a50" stroke-miterlimit="10"/><path d="M199.61,277.72a.76.76,0,0,1-.69-.43.77.77,0,0,1,.35-1,22,22,0,0,1,19.36,0,.77.77,0,1,1-.68,1.38,20.53,20.53,0,0,0-18,0A.64.64,0,0,1,199.61,277.72Z" fill="none" stroke="#003a50" stroke-miterlimit="10"/><path d="M199.61,273.45a.77.77,0,0,1-.69-.42.78.78,0,0,1,.35-1,22,22,0,0,1,19.36,0,.77.77,0,0,1,.35,1,.76.76,0,0,1-1,.35,20.53,20.53,0,0,0-18,0A.64.64,0,0,1,199.61,273.45Z" fill="none" stroke="#003a50" stroke-miterlimit="10"/><path d="M199.61,269.19a.76.76,0,0,1-.69-.43.77.77,0,0,1,.35-1,22,22,0,0,1,19.36,0,.77.77,0,1,1-.68,1.38,20.44,20.44,0,0,0-18,0A.76.76,0,0,1,199.61,269.19Z" fill="none" stroke="#003a50" stroke-miterlimit="10"/><path d="M199.61,264.92a.76.76,0,0,1-.69-.43.77.77,0,0,1,.35-1,22,22,0,0,1,19.36,0,.77.77,0,1,1-.68,1.38,20.53,20.53,0,0,0-18,0A.64.64,0,0,1,199.61,264.92Z" fill="none" stroke="#003a50" stroke-miterlimit="10"/><path d="M199.61,290.52a.76.76,0,0,1-.69-.43.77.77,0,0,1,.35-1,22,22,0,0,1,19.36,0,.77.77,0,1,1-.68,1.38,20.53,20.53,0,0,0-18,0A.64.64,0,0,1,199.61,290.52Z" fill="none" stroke="#003a50" stroke-miterlimit="10"/><path d="M199.61,294.79a.76.76,0,0,1-.69-.43.77.77,0,0,1,.35-1,22,22,0,0,1,19.36,0,.77.77,0,1,1-.68,1.38,20.53,20.53,0,0,0-18,0A.64.64,0,0,1,199.61,294.79Z" fill="none" stroke="#003a50" stroke-miterlimit="10"/></g><line x1="208.95" y1="299.38" x2="208.95" y2="189.8" fill="none" stroke="#003a50" stroke-miterlimit="10"/><rect x="247.23" y="157.53" width="104.63" height="28.64" fill="none" stroke="#003a50" stroke-miterlimit="10"/><g clip-path="url(#clip-path)"><path d="M260.84,161.59a.83.83,0,0,1,.44-.75.79.79,0,0,1,1.08.38,25.51,25.51,0,0,1,0,21.26.79.79,0,0,1-1.07.39.87.87,0,0,1-.37-1.13,23.72,23.72,0,0,0,0-19.78A.8.8,0,0,1,260.84,161.59Z" fill="none" stroke="#003a50" stroke-miterlimit="10"/><path d="M265.27,161.59a.83.83,0,0,1,.44-.75.77.77,0,0,1,1.07.38,25.51,25.51,0,0,1,0,21.26.78.78,0,0,1-1.07.39.87.87,0,0,1-.36-1.13,23.72,23.72,0,0,0,0-19.78A.8.8,0,0,1,265.27,161.59Z" fill="none" stroke="#003a50" stroke-miterlimit="10"/><path d="M269.69,161.59a.84.84,0,0,1,.45-.75.77.77,0,0,1,1.07.38,25.51,25.51,0,0,1,0,21.26.79.79,0,0,1-1.07.39.86.86,0,0,1-.36-1.13,23.72,23.72,0,0,0,0-19.78A.81.81,0,0,1,269.69,161.59Z" fill="none" stroke="#003a50" stroke-miterlimit="10"/><path d="M274.12,161.59a.83.83,0,0,1,.44-.75.77.77,0,0,1,1.07.38,25.51,25.51,0,0,1,0,21.26.78.78,0,0,1-1.06.39.87.87,0,0,1-.37-1.13,23.72,23.72,0,0,0,0-19.78A.8.8,0,0,1,274.12,161.59Z" fill="none" stroke="#003a50" stroke-miterlimit="10"/><path d="M278.54,161.59a.84.84,0,0,1,.45-.75.77.77,0,0,1,1.07.38,25.51,25.51,0,0,1,0,21.26.79.79,0,0,1-1.07.39.87.87,0,0,1-.36-1.13,23.72,23.72,0,0,0,0-19.78A.81.81,0,0,1,278.54,161.59Z" fill="none" stroke="#003a50" stroke-miterlimit="10"/><path d="M283,161.59a.83.83,0,0,1,.44-.75.77.77,0,0,1,1.07.38,25.51,25.51,0,0,1,0,21.26.78.78,0,0,1-1.06.39.87.87,0,0,1-.37-1.13,23.72,23.72,0,0,0,0-19.78A.8.8,0,0,1,283,161.59Z" fill="none" stroke="#003a50" stroke-miterlimit="10"/><path d="M256.41,161.59a.84.84,0,0,1,.45-.75.77.77,0,0,1,1.07.38,25.51,25.51,0,0,1,0,21.26.79.79,0,0,1-1.07.39.87.87,0,0,1-.36-1.13,23.72,23.72,0,0,0,0-19.78A.81.81,0,0,1,256.41,161.59Z" fill="none" stroke="#003a50" stroke-miterlimit="10"/><path d="M252,161.59a.83.83,0,0,1,.44-.75.79.79,0,0,1,1.08.38,25.51,25.51,0,0,1,0,21.26.79.79,0,0,1-1.07.39.87.87,0,0,1-.37-1.13,23.72,23.72,0,0,0,0-19.78A.8.8,0,0,1,252,161.59Z" fill="none" stroke="#003a50" stroke-miterlimit="10"/></g><line x1="247.23" y1="171.85" x2="353.31" y2="171.85" fill="none" stroke="#003a50" stroke-miterlimit="10"/><g clip-path="url(#clip-path)"><rect x="166.89" y="312.21" width="18.91" height="18.91" fill="none" stroke="#003a50" stroke-miterlimit="10"/><rect x="52.41" y="312.21" width="18.91" height="18.91" fill="none" stroke="#003a50" stroke-miterlimit="10"/><rect x="76.53" y="312.21" width="85.08" height="94.54" fill="none" stroke="#003a50" stroke-miterlimit="10"/><path d="M269.46,71.64h-15.8a2.31,2.31,0,0,1-2.31-2.3V54.06a2.32,2.32,0,0,1,2.31-2.31h15.8a2.31,2.31,0,0,1,2.3,2.31V69.34A2.3,2.3,0,0,1,269.46,71.64Z" fill="none" stroke="#003a50" stroke-miterlimit="10"/><path d="M263.12,61.7a1.56,1.56,0,1,1-1.56-1.56A1.55,1.55,0,0,1,263.12,61.7Z" fill="none" stroke="#003a50" stroke-miterlimit="10"/></g><rect x="253.17" y="45.51" width="20.25" height="31.18" fill="none" stroke="#003a50" stroke-miterlimit="10"/><g clip-path="url(#clip-path)"><path d="M263,82.25a2.68,2.68,0,0,1-2.47-1.66H259L255,83l1.83,3,2.1-1.15v9.36h8.78V84.83l2.1,1.15,1.83-3-4.06-2.41h-2A2.72,2.72,0,0,1,263,82.25Z" fill="none" stroke="#003a50" stroke-miterlimit="10"/></g><rect x="253.17" y="76.69" width="20.25" height="21.4" fill="none" stroke="#003a50" stroke-miterlimit="10"/><g clip-path="url(#clip-path)"><path d="M191.76,106.82a1,1,0,0,0-.71,1.14,10.41,10.41,0,0,1-20.3,4.65.94.94,0,0,0-1.13-.71,1,1,0,0,0-.72,1.14,12.31,12.31,0,0,0,24-5.51A1,1,0,0,0,191.76,106.82Z" fill="none" stroke="#003a50" stroke-miterlimit="10"/><path d="M150.1,114.16a1,1,0,0,0-1.32-.26,10.41,10.41,0,0,1-11.72-17.2,1,1,0,0,0,.25-1.32,1,1,0,0,0-1.32-.25,12.31,12.31,0,0,0,13.86,20.35A.94.94,0,0,0,150.1,114.16Z" fill="none" stroke="#003a50" stroke-miterlimit="10"/><path d="M148.21,78.36a.94.94,0,0,0,1-.89A10.41,10.41,0,0,1,170,78.7a1,1,0,0,0,1.9.12,12.31,12.31,0,1,0-24.57-1.46A1,1,0,0,0,148.21,78.36Z" fill="none" stroke="#003a50" stroke-miterlimit="10"/><path d="M181,119.36a9.57,9.57,0,0,0,9.06-11.68L188.56,101a2.66,2.66,0,0,0-3.2-2l-10.15,2.32a18,18,0,0,1-4.53,7.13l.72,3.17A9.81,9.81,0,0,0,181,119.36Z" fill="none" stroke="#003a50" stroke-miterlimit="10"/><path d="M148.72,112.93l1.75-1.21a18,18,0,0,1-10.3-16.09l-1.9,1.29a9.8,9.8,0,0,0-3.74,11.81A9.58,9.58,0,0,0,148.72,112.93Z" fill="none" stroke="#003a50" stroke-miterlimit="10"/><path d="M169,81l.09-1.48a9.79,9.79,0,0,0-7-10.18,9.56,9.56,0,0,0-12,8.67L150,79.41A18,18,0,0,1,169,81Z" fill="none" stroke="#003a50" stroke-miterlimit="10"/><path d="M170.68,108.4a18,18,0,0,0,4.53-7.13,12,12,0,0,0,.45-1.51A18,18,0,0,0,169,81,17.72,17.72,0,0,0,162.52,78,18,18,0,0,0,140.69,91.1a16.32,16.32,0,0,0-.52,4.52,18,18,0,0,0,10.3,16.1,16.94,16.94,0,0,0,3.38,1.21A18,18,0,0,0,170.68,108.4Z" fill="none" stroke="#003a50" stroke-miterlimit="10"/><path d="M149-36a2.35,2.35,0,0,1,2.51-2.14h3.19A2.35,2.35,0,0,1,157.2-36V.38H71.59V-35.69a2.35,2.35,0,0,1,2.51-2.14h3.19a2.35,2.35,0,0,1,2.51,2.14V-3.36H149Z" fill="none" stroke="#003a50" stroke-miterlimit="10"/></g><rect x="54.25" y="144.01" width="81.75" height="13.62" fill="none" stroke="#003a50" stroke-miterlimit="10"/><polygon points="60.67 150.38 95.04 153.21 129.57 150.38 129.57 148.41 60.67 148.41 60.67 150.38" fill="none" stroke="#003a50" stroke-miterlimit="10"/><rect x="54.25" y="162.46" width="81.75" height="13.62" fill="none" stroke="#003a50" stroke-miterlimit="10"/><polygon points="129.57 169.71 95.21 166.88 60.68 169.71 60.68 171.67 129.57 171.67 129.57 169.71" fill="none" stroke="#003a50" stroke-miterlimit="10"/><g clip-path="url(#clip-path)"><path d="M95.09,44.67v-31H60.53V46.35H93.41A1.68,1.68,0,0,0,95.09,44.67Z" fill="none" stroke="#003a50" stroke-miterlimit="10"/><path d="M129.72,44.84V13.69H95.16V44.84a1.5,1.5,0,0,0,1.5,1.5h31.56A1.5,1.5,0,0,0,129.72,44.84Z" fill="none" stroke="#003a50" stroke-miterlimit="10"/><path d="M60.53,46.34A2.35,2.35,0,0,1,58,48.48H54.83a2.35,2.35,0,0,1-2.51-2.14V10h85.61V46a2.35,2.35,0,0,1-2.51,2.14h-3.19A2.35,2.35,0,0,1,129.72,46V13.69H60.53Z" fill="none" stroke="#003a50" stroke-miterlimit="10"/></g><rect x="60.53" y="13.69" width="69.19" height="6.98" fill="none" stroke="#003a50" stroke-miterlimit="10"/><rect x="221.15" y="76.07" width="26.65" height="26.69" fill="none" stroke="#003a50" stroke-miterlimit="10"/><g clip-path="url(#clip-path)"><path d="M231.08,88.79V80.13h6.75v8.66a2.77,2.77,0,0,1-2.77,2.78h-1.2A2.78,2.78,0,0,1,231.08,88.79Z" fill="none" stroke="#003a50" stroke-miterlimit="10"/></g><polyline points="237.19 99.86 234.46 99.86 231.73 99.86" fill="none" stroke="#003a50" stroke-miterlimit="10"/><line x1="234.46" y1="91.57" x2="234.46" y2="99.86" fill="none" stroke="#003a50" stroke-miterlimit="10"/><rect x="180.78" y="10.29" width="28.61" height="28.61" fill="none" stroke="#003a50" stroke-miterlimit="10"/><g clip-path="url(#clip-path)"><circle cx="188.55" cy="30.99" r="3.9" transform="matrix(0.99, -0.16, 0.16, 0.99, -2.53, 30.6)" fill="none" stroke="#003a50" stroke-miterlimit="10"/><circle cx="201.57" cy="30.99" r="3.9" transform="matrix(0.99, -0.16, 0.16, 0.99, -2.36, 32.69)" fill="none" stroke="#003a50" stroke-miterlimit="10"/><circle cx="188.55" cy="18.31" r="3.9" transform="matrix(0.99, -0.16, 0.16, 0.99, -0.5, 30.44)" fill="none" stroke="#003a50" stroke-miterlimit="10"/><circle cx="201.57" cy="18.31" r="3.9" transform="matrix(0.99, -0.16, 0.16, 0.99, -0.33, 32.52)" fill="none" stroke="#003a50" stroke-miterlimit="10"/></g><polyline points="243.61 60.12 243.61 55.45 243.61 50.78" fill="none" stroke="#003a50" stroke-miterlimit="10"/><line x1="234.25" y1="55.43" x2="243.61" y2="55.43" fill="none" stroke="#003a50" stroke-miterlimit="10"/><g clip-path="url(#clip-path)"><rect x="224.71" y="45.13" width="14.9" height="20.66" rx="3.24" fill="none" stroke="#003a50" stroke-miterlimit="10"/><path d="M233.08,55.43a1.67,1.67,0,1,0,1.67-1.66A1.67,1.67,0,0,0,233.08,55.43Z" fill="none" stroke="#003a50" stroke-miterlimit="10"/></g><rect x="199.25" y="157.53" width="28.12" height="28.12" fill="none" stroke="#003a50" stroke-miterlimit="10"/><line x1="205.06" y1="171.59" x2="221.56" y2="171.59" fill="none" stroke="#003a50" stroke-miterlimit="10"/><line x1="213.31" y1="163.34" x2="213.31" y2="179.84" fill="none" stroke="#003a50" stroke-miterlimit="10"/><line x1="207.48" y1="165.76" x2="219.14" y2="177.42" fill="none" stroke="#003a50" stroke-miterlimit="10"/><line x1="219.15" y1="165.76" x2="207.48" y2="177.42" fill="none" stroke="#003a50" stroke-miterlimit="10"/><rect x="199.94" y="157.53" width="47.28" height="31.2" fill="none" stroke="#003a50" stroke-miterlimit="10"/><rect x="168.45" y="9.29" width="81.65" height="29.62" fill="none" stroke="#003a50" stroke-miterlimit="10"/><rect x="221.15" y="9.97" width="28.24" height="92.79" fill="none" stroke="#003a50" stroke-miterlimit="10"/><g clip-path="url(#clip-path)"><rect x="262.74" y="-27.16" width="27.5" height="27.5" fill="none" stroke="#003a50" stroke-miterlimit="10"/><rect x="249.23" y="-27.16" width="54.56" height="27.5" fill="none" stroke="#003a50" stroke-miterlimit="10"/><rect x="303.81" y="-100.5" width="28.24" height="100.9" fill="none" stroke="#003a50" stroke-miterlimit="10"/></g><rect x="166.31" y="280.78" width="18.91" height="18.91" fill="none" stroke="#003a50" stroke-miterlimit="10"/><g clip-path="url(#clip-path)"><path d="M181.18,284.81a7.67,7.67,0,1,0,0,10.84A7.67,7.67,0,0,0,181.18,284.81Z" fill="none" stroke="#003a50" stroke-miterlimit="10"/><path d="M181.7,285.39c-1.41.14-2.84-.41-4.22,1-2,2,.12,4.19-1.91,6.22s-4.19-.12-6.22,1.92" fill="none" stroke="#003a50" stroke-miterlimit="10"/></g><rect x="76.01" y="205.15" width="85.08" height="94.54" fill="none" stroke="#003a50" stroke-miterlimit="10"/><g clip-path="url(#clip-path)"><path d="M152.76,213.27H84.35A1.73,1.73,0,0,0,82.61,215v56.4H154.5V215A1.73,1.73,0,0,0,152.76,213.27Z" fill="none" stroke="#003a50" stroke-miterlimit="10"/><path d="M116.18,274.41H84.05a1.65,1.65,0,0,0-1.65,1.66v15.77a1.65,1.65,0,0,0,1.65,1.65h32.13a1.65,1.65,0,0,0,1.65-1.65V276.07A1.65,1.65,0,0,0,116.18,274.41Z" fill="none" stroke="#003a50" stroke-miterlimit="10"/><rect x="119.28" y="274.41" width="35.44" height="19.08" rx="1.65" fill="none" stroke="#003a50" stroke-miterlimit="10"/></g><line x1="154.71" y1="259.85" x2="82.4" y2="259.85" fill="none" stroke="#003a50" stroke-miterlimit="10"/><g clip-path="url(#clip-path)"><path d="M278.24,312.43v2.25c0,15.58,13.64,28.22,30.47,28.22V312.43" fill="none" stroke="#003a50" stroke-miterlimit="10" stroke-width="1.6"/><path d="M276.76,103.27v2.25c0,15.59,13.64,28.22,30.47,28.22V103.27" fill="none" stroke="#003a50" stroke-miterlimit="10" stroke-width="1.6"/><path d="M152.07,161v2.68c0,18.64,16.3,33.74,36.42,33.74V161" fill="none" stroke="#003a50" stroke-miterlimit="10" stroke-width="1.6"/><path d="M363.29,110.19h3.08c21.41,0,38.76,18.74,38.76,41.85H363.29" fill="none" stroke="#003a50" stroke-miterlimit="10" stroke-width="1.6"/><path d="M421.24,204.44v-3.08c0-21.41-18.73-38.76-41.84-38.76v41.84" fill="none" stroke="#003a50" stroke-miterlimit="10" stroke-width="1.6"/></g><rect x="330.39" y="0.11" width="5.75" height="101.4" fill="#003a50"/><rect x="247.23" y="2.76" width="5.75" height="100.52" fill="#003a50"/><rect x="247.23" y="97.52" width="30.32" height="5.75" fill="#003a50"/><rect x="195.07" y="185.13" width="30.32" height="5.75" fill="#003a50"/><rect x="229.73" y="306.97" width="5.4" height="5.75" fill="#003a50"/><rect x="229.73" y="212.36" width="5.4" height="5.75" fill="#003a50"/><rect x="331.73" y="0.11" width="8.5" height="2.65" fill="#003a50"/><rect x="195.07" y="157.04" width="5.75" height="30.32" fill="#003a50"/><rect x="187.67" y="157.04" width="13.16" height="5.75" fill="#003a50"/><rect x="34.02" y="157.04" width="118.87" height="5.75" fill="#003a50"/><rect x="306.42" y="97.52" width="52.25" height="5.75" fill="#003a50"/><rect x="12.42" y="289.42" width="28.64" height="23.42" fill="#003a50"/><g clip-path="url(#clip-path)"><rect x="12.42" y="289.42" width="28.64" height="86.25" fill="none" stroke="#003a50" stroke-miterlimit="10" stroke-width="2.09"/></g><polygon points="10.23 131.84 0.95 218.09 41.07 218.09 41.07 131.84 10.23 131.84" fill="#003a50"/><g clip-path="url(#clip-path)"><polygon points="41.07 131.84 41.07 218.09 0.95 218.09 10.23 131.84 41.07 131.84" fill="none" stroke="#003a50" stroke-miterlimit="10" stroke-width="2.09"/></g><rect x="12.42" y="0.11" width="28.64" height="57.98" fill="#003a50"/><g clip-path="url(#clip-path)"><rect x="12.42" y="-28.16" width="28.64" height="86.25" fill="none" stroke="#003a50" stroke-miterlimit="10" stroke-width="2.09"/></g><rect x="34.81" y="0.11" width="330.17" height="10.73" fill="#003a50"/><rect x="351.07" y="0.11" width="13.92" height="2.65" fill="#003a50"/><rect x="351.07" y="0.34" width="13.92" height="110.58" fill="#003a50"/><rect x="221.47" y="185.14" width="134.26" height="13.92" fill="#003a50"/><polygon points="221.47 185.13 221.47 312.72 235.13 312.72 235.13 199.13 235.39 199.13 235.39 185.13 221.47 185.13" fill="#003a50"/><rect x="34.02" y="298.8" width="201.12" height="13.92" fill="#003a50"/><polygon points="351.07 151.17 351.07 199.13 364.88 199.13 364.88 153.69 364.98 153.69 364.98 151.17 351.07 151.17" fill="#003a50"/><rect x="1.39" y="34.84" width="28.64" height="23.25" fill="#003a50"/><g clip-path="url(#clip-path)"><rect x="1.39" y="34.84" width="28.64" height="23.25" fill="none" stroke="#003a50" stroke-miterlimit="10" stroke-width="2.09"/><path d="M97.71,184.29l-2.49,2V184L98,181.73h1.86v11.91H97.71Z" fill="#003a50"/><path d="M112.21,193.64h-9.94v-1.56a2.75,2.75,0,0,1,.59-1.74,4,4,0,0,1,1.44-1.2c.5-.25,1.12-.54,1.87-.86s1.32-.56,1.88-.78a4.07,4.07,0,0,0,1.44-.91,1.8,1.8,0,0,0,.57-1.3c0-1.26-.88-1.89-2.66-1.89s-2.68.72-2.68,2.16V186h-2.11v-.41a3.62,3.62,0,0,1,1.27-3,5.34,5.34,0,0,1,3.51-1,5.63,5.63,0,0,1,3.51,1,3.27,3.27,0,0,1,1.27,2.75,3.14,3.14,0,0,1-.55,1.83,4.42,4.42,0,0,1-1.41,1.31c-.59.34-1.21.65-1.83.93s-1.24.52-1.83.74a5.26,5.26,0,0,0-1.4.75,1.22,1.22,0,0,0-.57,1h7.63Z" fill="#003a50"/><path d="M114.31,193.51a1.15,1.15,0,0,1,0-1.61,1.4,1.4,0,0,1,1.73,0,1.15,1.15,0,0,1,0,1.61,1.4,1.4,0,0,1-1.73,0Z" fill="#003a50"/><path d="M119.71,192.11a7.38,7.38,0,0,1,0-8.84,5.71,5.71,0,0,1,8.13,0,7.34,7.34,0,0,1,0,8.84,5.71,5.71,0,0,1-8.13,0Zm6.53-1.39a5.73,5.73,0,0,0,0-6.07,3.14,3.14,0,0,0-4.91,0,5.62,5.62,0,0,0,0,6.07,2.87,2.87,0,0,0,2.45,1.19A2.9,2.9,0,0,0,126.24,190.72Z" fill="#003a50"/><path d="M78.57,88.77l-2.48,2V88.48l2.73-2.26h1.86v11.9H78.57Z" fill="#003a50"/><path d="M88.58,90.14a5,5,0,0,1,3.34,1.07,4.18,4.18,0,0,1,0,6,5.39,5.39,0,0,1-3.55,1.08,5.77,5.77,0,0,1-3.56-1,3.16,3.16,0,0,1-1.29-2.68h2.11a1.54,1.54,0,0,0,.7,1.33,3.62,3.62,0,0,0,2,.48,3.15,3.15,0,0,0,2-.57,2,2,0,0,0,.7-1.68,2.05,2.05,0,0,0-.73-1.71,3.31,3.31,0,0,0-2.07-.58,3.55,3.55,0,0,0-1.92.42,1.84,1.84,0,0,0-.7.64l0,.12H83.48V86.22h8.88v1.84H85.59v3h0a2.77,2.77,0,0,1,.4-.3,3.11,3.11,0,0,1,.55-.27A5.6,5.6,0,0,1,88.58,90.14Z" fill="#003a50"/><path d="M95.28,98a1,1,0,0,1-.32-.8,1.07,1.07,0,0,1,.32-.81,1.41,1.41,0,0,1,1.74,0,1.07,1.07,0,0,1,.32.81A1,1,0,0,1,97,98a1.41,1.41,0,0,1-1.74,0Z" fill="#003a50"/><path d="M102.39,98.12H100l5.42-10H98.53V86.22h9.28v1.87Z" fill="#003a50"/><path d="M283.76,82.57h-5.82V80.72h8.86v1.85l-4.53,2.64v.07h1.28a3.9,3.9,0,0,1,2.79,1A3.53,3.53,0,0,1,287.4,89a3.35,3.35,0,0,1-1.33,2.82,6.93,6.93,0,0,1-7.24,0,3.35,3.35,0,0,1-1.33-2.85V88.6h2.11v.33c0,1.36.94,2,2.84,2s2.84-.67,2.84-2-1-2-2.84-2h-3.27V85.31l4.58-2.68Z" fill="#003a50"/><path d="M289.5,92.5a1.15,1.15,0,0,1,0-1.61,1.4,1.4,0,0,1,1.73,0,1.15,1.15,0,0,1,0,1.61,1.4,1.4,0,0,1-1.73,0Z" fill="#003a50"/><path d="M301.83,92.63h-2.11V90h-7V88.14L299,80.72h2.79v7.42h1.59V90h-1.59Zm-2.11-4.49V82.81h-.07l-4.47,5.28v0Z" fill="#003a50"/><path d="M295.49,255.14a5,5,0,0,1,3.34,1.06,4.19,4.19,0,0,1,0,6,5.41,5.41,0,0,1-3.55,1.07,5.75,5.75,0,0,1-3.56-1,3.15,3.15,0,0,1-1.29-2.68h2.11a1.51,1.51,0,0,0,.7,1.33,3.53,3.53,0,0,0,2,.49,3.17,3.17,0,0,0,2-.57,2.06,2.06,0,0,0,.7-1.69,2,2,0,0,0-.73-1.7,3.26,3.26,0,0,0-2.08-.58,3.64,3.64,0,0,0-1.91.41,1.92,1.92,0,0,0-.7.64l-.05.13h-2.11v-6.88h8.88v1.84H292.5v3h.05a1.91,1.91,0,0,1,.4-.31,3.47,3.47,0,0,1,.55-.26A5.6,5.6,0,0,1,295.49,255.14Z" fill="#003a50"/><path d="M302.19,263a1,1,0,0,1-.32-.81,1,1,0,0,1,.32-.81,1.45,1.45,0,0,1,1.74,0,1.07,1.07,0,0,1,.32.81,1,1,0,0,1-.32.81,1.45,1.45,0,0,1-1.74,0Z" fill="#003a50"/><path d="M307.6,261.58a7.33,7.33,0,0,1,0-8.83,5.69,5.69,0,0,1,8.13,0,7.33,7.33,0,0,1,0,8.83,5.71,5.71,0,0,1-8.13,0Zm6.52-1.38a5.69,5.69,0,0,0,0-6.08,3.16,3.16,0,0,0-4.91,0,5.69,5.69,0,0,0,0,6.08,3.14,3.14,0,0,0,4.91,0Z" fill="#003a50"/><path d="M393.53,253.77,391,255.72v-2.24l2.74-2.27h1.86v11.91h-2.11Z" fill="#003a50"/><path d="M400.15,253.77l-2.48,1.95v-2.24l2.73-2.27h1.86v11.91h-2.11Z" fill="#003a50"/><path d="M404.79,263a1,1,0,0,1-.33-.81,1,1,0,0,1,.33-.81,1.44,1.44,0,0,1,1.73,0,1,1,0,0,1,.33.81,1,1,0,0,1-.33.81,1.44,1.44,0,0,1-1.73,0Z" fill="#003a50"/><path d="M328.79,139.9h-2.11v-2.65h-7V135.4L326,128h2.79v7.41h1.6v1.85h-1.6Zm-2.11-4.5v-5.32h-.06l-4.48,5.27v.05Z" fill="#003a50"/><path d="M332.07,139.76a1,1,0,0,1-.32-.8,1.07,1.07,0,0,1,.32-.81,1.25,1.25,0,0,1,.88-.3,1.23,1.23,0,0,1,.86.3,1.07,1.07,0,0,1,.32.81,1,1,0,0,1-.32.8,1.23,1.23,0,0,1-.86.3A1.25,1.25,0,0,1,332.07,139.76Z" fill="#003a50"/><path d="M338,130.54l-2.49,2v-2.25l2.74-2.26h1.86V139.9H338Z" fill="#003a50"/><path d="M24.19,118.61a4.53,4.53,0,0,1-3.12,1,4.57,4.57,0,0,1-3.12-1,4,4,0,0,1,0-5.73,4.56,4.56,0,0,1,3.12-1,4.53,4.53,0,0,1,3.12,1,4,4,0,0,1,0,5.73Zm-1-4.6a3.52,3.52,0,0,0-2.14-.62,3.5,3.5,0,0,0-2.14.62,2.21,2.21,0,0,0,0,3.47,3.5,3.5,0,0,0,2.14.62,3.52,3.52,0,0,0,2.14-.62,2.21,2.21,0,0,0,0-3.47Z" fill="#003a50"/><path d="M25.18,110.29a.72.72,0,0,1-.57.23.75.75,0,0,1-.57-.23,1,1,0,0,1,0-1.23.74.74,0,0,1,.57-.22.71.71,0,0,1,.57.22,1,1,0,0,1,0,1.23Z" fill="#003a50"/><path d="M19.24,100.68v1.56s0,0-.13,0a2.34,2.34,0,0,0-.31.16,1.49,1.49,0,0,0-.35.27,1.32,1.32,0,0,0-.29.5,2.3,2.3,0,0,0-.11.71,1.78,1.78,0,0,0,.72,1.52,3.12,3.12,0,0,0,1.9.54v0a1.49,1.49,0,0,1-.31-.31,3.28,3.28,0,0,1-.26-.43,3.14,3.14,0,0,1-.21-.67,4.12,4.12,0,0,1-.09-.86,3.57,3.57,0,0,1,.78-2.38,2.49,2.49,0,0,1,2-.92,2.52,2.52,0,0,1,2.05,1,3.91,3.91,0,0,1,.78,2.54,3.41,3.41,0,0,1-1.09,2.74,4.5,4.5,0,0,1-3,.93H21a4.83,4.83,0,0,1-3-.93,3.2,3.2,0,0,1-1.21-2.69,3.93,3.93,0,0,1,.27-1.5,2.61,2.61,0,0,1,.66-1A2.44,2.44,0,0,1,19.24,100.68Zm2.22,1.77a2.58,2.58,0,0,0,0,2.79,1.4,1.4,0,0,0,2.22,0,2.22,2.22,0,0,0,.41-1.4,2.26,2.26,0,0,0-.41-1.4,1.32,1.32,0,0,0-1.11-.54A1.3,1.3,0,0,0,21.46,102.45Z" fill="#003a50"/><path d="M24.27,279.65a4.53,4.53,0,0,1-3.12,1.05A4.56,4.56,0,0,1,18,279.65a4,4,0,0,1,0-5.73,4.56,4.56,0,0,1,3.11-1.05,4.53,4.53,0,0,1,3.12,1.05,4,4,0,0,1,0,5.73Zm-1-4.6a3.48,3.48,0,0,0-2.14-.62,3.52,3.52,0,0,0-2.14.62,2.23,2.23,0,0,0,0,3.47,3.5,3.5,0,0,0,2.14.62,3.48,3.48,0,0,0,2.14-.62,2.21,2.21,0,0,0,0-3.47Z" fill="#003a50"/><path d="M25.26,271.33a.72.72,0,0,1-.57.23.78.78,0,0,1-.57-.23,1,1,0,0,1,0-1.23.78.78,0,0,1,.57-.23.72.72,0,0,1,.57.23,1,1,0,0,1,0,1.23Z" fill="#003a50"/><path d="M19.32,261.72v1.56l-.12,0a1.85,1.85,0,0,0-.31.16,1.31,1.31,0,0,0-.35.27,1.2,1.2,0,0,0-.29.5,2,2,0,0,0-.12.71,1.76,1.76,0,0,0,.73,1.52,3.11,3.11,0,0,0,1.89.54v0a1.27,1.27,0,0,1-.3-.31,2.46,2.46,0,0,1-.26-.43,3.09,3.09,0,0,1-.22-.67,4.12,4.12,0,0,1-.09-.86,3.53,3.53,0,0,1,.79-2.38,2.62,2.62,0,0,1,4,0,3.91,3.91,0,0,1,.78,2.54,3.38,3.38,0,0,1-1.09,2.73,4.43,4.43,0,0,1-3,.94h-.29a4.79,4.79,0,0,1-3-.94,3.18,3.18,0,0,1-1.2-2.68,3.93,3.93,0,0,1,.26-1.5,2.61,2.61,0,0,1,.66-1A2.39,2.39,0,0,1,19.32,261.72Zm2.22,1.77a2.58,2.58,0,0,0,0,2.79,1.33,1.33,0,0,0,1.11.55,1.3,1.3,0,0,0,1.11-.55,2.22,2.22,0,0,0,.42-1.4,2.26,2.26,0,0,0-.42-1.4,1.4,1.4,0,0,0-2.22,0Z" fill="#003a50"/></g></svg>