<svg id="Слой_1" data-name="Слой 1" xmlns="http://www.w3.org/2000/svg" xmlns:xlink="http://www.w3.org/1999/xlink" viewBox="0 0 401.39 481.89"><defs><clipPath id="clip-path"><polygon points="0 0.14 0 159.31 40.68 159.31 40.68 390.33 142.56 390.33 142.56 481.75 401.39 481.75 401.39 0.14 0 0.14" fill="none"/></clipPath></defs><polygon points="40.68 376.47 40.68 390.33 142.56 390.33 142.56 481.75 360.01 481.75 360.01 472.83 148.34 472.83 148.34 376.47 40.68 376.47" fill="#fff"/><polygon points="40.76 6.46 40.76 383.43 150.76 383.43 150.76 475.12 360.22 475.12 360.22 6.46 40.76 6.46" fill="#fff"/><rect x="40.76" y="0.14" width="319.46" height="9.07" fill="#fff"/><g clip-path="url(#clip-path)"><line x1="360.22" y1="-488.5" x2="360.22" y2="902.08" fill="none" stroke="#003a50" stroke-miterlimit="10"/><line x1="380.72" y1="-488.5" x2="380.72" y2="902.08" fill="none" stroke="#003a50" stroke-miterlimit="10"/></g><rect x="367.84" y="70.87" width="4.55" height="68.15" fill="#fff"/><rect x="367.84" y="70.86" width="4.55" height="68.16" fill="none" stroke="#003a50" stroke-miterlimit="10"/><line x1="370.11" y1="70.86" x2="370.11" y2="139.02" fill="none" stroke="#003a50" stroke-miterlimit="10"/><rect x="367.84" y="70.87" width="4.55" height="4.31" fill="#fff"/><rect x="367.84" y="70.86" width="4.55" height="4.31" fill="none" stroke="#003a50" stroke-miterlimit="10"/><rect x="367.84" y="134.71" width="4.55" height="4.31" fill="#fff"/><rect x="367.84" y="134.71" width="4.55" height="4.31" fill="none" stroke="#003a50" stroke-miterlimit="10"/><rect x="367.84" y="100.63" width="4.55" height="4.31" fill="#fff"/><rect x="367.84" y="100.63" width="4.55" height="4.31" fill="none" stroke="#003a50" stroke-miterlimit="10"/><rect x="367.84" y="227.77" width="4.55" height="69.83" fill="#fff"/><rect x="367.84" y="227.77" width="4.55" height="69.83" fill="none" stroke="#003a50" stroke-miterlimit="10"/><line x1="370.11" y1="227.77" x2="370.11" y2="297.61" fill="none" stroke="#003a50" stroke-miterlimit="10"/><rect x="367.84" y="227.77" width="4.55" height="4.42" fill="#fff"/><rect x="367.84" y="227.77" width="4.55" height="4.42" fill="none" stroke="#003a50" stroke-miterlimit="10"/><rect x="367.84" y="293.19" width="4.55" height="4.42" fill="#fff"/><rect x="367.84" y="293.19" width="4.55" height="4.42" fill="none" stroke="#003a50" stroke-miterlimit="10"/><rect x="367.84" y="258.27" width="4.55" height="4.41" fill="#fff"/><rect x="367.84" y="258.27" width="4.55" height="4.42" fill="none" stroke="#003a50" stroke-miterlimit="10"/><rect x="367.84" y="386.4" width="4.55" height="69.86" fill="#fff"/><rect x="367.84" y="386.4" width="4.55" height="69.86" fill="none" stroke="#003a50" stroke-miterlimit="10"/><line x1="370.11" y1="386.4" x2="370.11" y2="456.26" fill="none" stroke="#003a50" stroke-miterlimit="10"/><rect x="367.84" y="386.4" width="4.55" height="4.42" fill="#fff"/><rect x="367.84" y="386.4" width="4.55" height="4.42" fill="none" stroke="#003a50" stroke-miterlimit="10"/><rect x="367.84" y="451.85" width="4.55" height="4.41" fill="#fff"/><rect x="367.84" y="451.84" width="4.55" height="4.42" fill="none" stroke="#003a50" stroke-miterlimit="10"/><rect x="367.84" y="416.91" width="4.55" height="4.42" fill="#fff"/><rect x="367.84" y="416.91" width="4.55" height="4.42" fill="none" stroke="#003a50" stroke-miterlimit="10"/><rect x="54.26" y="295.63" width="35.55" height="81.92" fill="none" stroke="#003a50" stroke-miterlimit="10"/><g clip-path="url(#clip-path)"><path d="M85.4,312v46.67a13.14,13.14,0,0,1-13.35,12.9h0a13.14,13.14,0,0,1-13.35-12.9V312A13.13,13.13,0,0,1,72,299.12h0A13.13,13.13,0,0,1,85.4,312Z" fill="none" stroke="#003a50" stroke-miterlimit="10"/><path d="M72,313.6A1.87,1.87,0,1,1,74,311.74,1.9,1.9,0,0,1,72,313.6Z" fill="none" stroke="#003a50" stroke-miterlimit="10"/><rect x="53.88" y="410.92" width="89.25" height="35.55" fill="none" stroke="#003a50" stroke-miterlimit="10"/><path d="M127.46,442.47H79.37a13.53,13.53,0,0,1-13.3-13.76v0a13.53,13.53,0,0,1,13.3-13.76h48.09a13.53,13.53,0,0,1,13.29,13.76v0A13.53,13.53,0,0,1,127.46,442.47Z" fill="none" stroke="#003a50" stroke-miterlimit="10"/><path d="M125.16,428.69a1.87,1.87,0,1,1,1.87,1.94A1.91,1.91,0,0,1,125.16,428.69Z" fill="none" stroke="#003a50" stroke-miterlimit="10"/><path d="M120.33,481.33h23.21V463H120.33a9.17,9.17,0,0,0,0,18.34Z" fill="none" stroke="#003a50" stroke-miterlimit="10"/><path d="M130.6,318.26V295.05H112.26v23.21a9.17,9.17,0,1,0,18.34,0Z" fill="none" stroke="#003a50" stroke-miterlimit="10"/></g><line x1="112.26" y1="304.08" x2="130.6" y2="304.08" fill="none" stroke="#003a50" stroke-miterlimit="10"/><g clip-path="url(#clip-path)"><path d="M115.33,268v23.21h18.34V268a9.17,9.17,0,1,0-18.34,0Z" fill="none" stroke="#003a50" stroke-miterlimit="10"/></g><line x1="133.67" y1="282.21" x2="115.33" y2="282.21" fill="none" stroke="#003a50" stroke-miterlimit="10"/><rect x="183.08" y="381.42" width="33.93" height="17.9" fill="none" stroke="#003a50" stroke-miterlimit="10"/><rect x="183.08" y="450.01" width="33.93" height="17.9" fill="none" stroke="#003a50" stroke-miterlimit="10"/><g clip-path="url(#clip-path)"><path d="M70.48,449.5H54.68a2.31,2.31,0,0,0-2.31,2.3v15.28a2.31,2.31,0,0,0,2.31,2.31h15.8a2.3,2.3,0,0,0,2.3-2.31V451.8A2.3,2.3,0,0,0,70.48,449.5Z" fill="none" stroke="#003a50" stroke-miterlimit="10"/><path d="M64.14,459.45A1.56,1.56,0,1,0,62.58,461,1.56,1.56,0,0,0,64.14,459.45Z" fill="none" stroke="#003a50" stroke-miterlimit="10"/><path d="M70.48,471.61H54.68a2.31,2.31,0,0,0-2.31,2.3v15.28a2.32,2.32,0,0,0,2.31,2.31h15.8a2.31,2.31,0,0,0,2.3-2.31V473.91A2.3,2.3,0,0,0,70.48,471.61Z" fill="none" stroke="#003a50" stroke-miterlimit="10"/><path d="M64.14,481.55a1.56,1.56,0,1,0-1.56,1.56A1.55,1.55,0,0,0,64.14,481.55Z" fill="none" stroke="#003a50" stroke-miterlimit="10"/><path d="M100.13,360.59v15.8a2.31,2.31,0,0,0,2.3,2.31h15.28a2.32,2.32,0,0,0,2.31-2.31v-15.8a2.31,2.31,0,0,0-2.31-2.3H102.43A2.3,2.3,0,0,0,100.13,360.59Z" fill="none" stroke="#003a50" stroke-miterlimit="10"/><path d="M110.07,366.93a1.56,1.56,0,1,0,1.56,1.56A1.55,1.55,0,0,0,110.07,366.93Z" fill="none" stroke="#003a50" stroke-miterlimit="10"/><path d="M122.23,360.59v15.8a2.32,2.32,0,0,0,2.31,2.31h15.28a2.32,2.32,0,0,0,2.31-2.31v-15.8a2.31,2.31,0,0,0-2.31-2.3H124.54A2.31,2.31,0,0,0,122.23,360.59Z" fill="none" stroke="#003a50" stroke-miterlimit="10"/><path d="M132.18,366.93a1.56,1.56,0,1,0,1.56,1.56A1.56,1.56,0,0,0,132.18,366.93Z" fill="none" stroke="#003a50" stroke-miterlimit="10"/></g><rect x="89.8" y="356.63" width="61.7" height="20.25" fill="none" stroke="#003a50" stroke-miterlimit="10"/><g clip-path="url(#clip-path)"><rect x="146.45" y="480.38" width="64.38" height="18.8" fill="none" stroke="#003a50" stroke-miterlimit="10"/><path d="M92.47,240.28H76.68a2.3,2.3,0,0,0-2.31,2.3v15.28a2.31,2.31,0,0,0,2.31,2.31H92.47a2.32,2.32,0,0,0,2.31-2.31V242.58A2.31,2.31,0,0,0,92.47,240.28Z" fill="none" stroke="#003a50" stroke-miterlimit="10"/><path d="M86.13,250.22a1.56,1.56,0,1,0-1.56,1.56A1.55,1.55,0,0,0,86.13,250.22Z" fill="none" stroke="#003a50" stroke-miterlimit="10"/></g><rect x="76.18" y="229.96" width="20.25" height="61.7" fill="none" stroke="#003a50" stroke-miterlimit="10"/><rect x="252.7" y="325.86" width="81.75" height="13.62" fill="none" stroke="#003a50" stroke-miterlimit="10"/><polygon points="328.02 333.11 293.65 330.28 259.12 333.11 259.12 335.07 328.02 335.07 328.02 333.11" fill="none" stroke="#003a50" stroke-miterlimit="10"/><rect x="207.32" y="150.28" width="143.31" height="13.62" fill="none" stroke="#003a50" stroke-miterlimit="10"/><polygon points="267.75 156.66 302.11 159.49 336.64 156.66 336.64 154.69 267.75 154.69 267.75 156.66" fill="none" stroke="#003a50" stroke-miterlimit="10"/><rect x="211.73" y="275.83" width="98.82" height="45.5" fill="none" stroke="#003a50" stroke-miterlimit="10"/><g clip-path="url(#clip-path)"><path d="M302.11,313.28v-29a2.1,2.1,0,0,0-2.1-2.1H241.49v33.25H300A2.1,2.1,0,0,0,302.11,313.28Z" fill="none" stroke="#003a50" stroke-miterlimit="10"/></g><rect x="241.49" y="282.13" width="12.04" height="33.26" fill="none" stroke="#003a50" stroke-miterlimit="10"/><g clip-path="url(#clip-path)"><rect x="218.46" y="282.08" width="19.89" height="33.65" rx="2.2" fill="none" stroke="#003a50" stroke-miterlimit="10"/></g><rect x="210.83" y="169.5" width="155.61" height="27.05" fill="none" stroke="#003a50" stroke-miterlimit="10"/><g clip-path="url(#clip-path)"><path d="M224.44,173.34A.8.8,0,0,1,226,173a22.91,22.91,0,0,1,0,20.09.8.8,0,0,1-1.07.36.78.78,0,0,1-.36-1.06,21.3,21.3,0,0,0,0-18.69A.69.69,0,0,1,224.44,173.34Z" fill="none" stroke="#003a50" stroke-miterlimit="10"/><path d="M228.87,173.34a.8.8,0,0,1,1.51-.36,22.91,22.91,0,0,1,0,20.09.8.8,0,0,1-1.43-.7,21.3,21.3,0,0,0,0-18.69A.68.68,0,0,1,228.87,173.34Z" fill="none" stroke="#003a50" stroke-miterlimit="10"/><path d="M233.29,173.34a.8.8,0,0,1,1.52-.36,22.91,22.91,0,0,1,0,20.09.8.8,0,0,1-1.07.36.78.78,0,0,1-.36-1.06,21.3,21.3,0,0,0,0-18.69A.69.69,0,0,1,233.29,173.34Z" fill="none" stroke="#003a50" stroke-miterlimit="10"/><path d="M237.72,173.34a.8.8,0,0,1,1.51-.36,22.91,22.91,0,0,1,0,20.09.8.8,0,0,1-1.43-.7,21.3,21.3,0,0,0,0-18.69A.68.68,0,0,1,237.72,173.34Z" fill="none" stroke="#003a50" stroke-miterlimit="10"/><path d="M242.14,173.34a.8.8,0,0,1,1.52-.36,22.91,22.91,0,0,1,0,20.09.8.8,0,0,1-1.07.36.79.79,0,0,1-.36-1.06,21.3,21.3,0,0,0,0-18.69A.69.69,0,0,1,242.14,173.34Z" fill="none" stroke="#003a50" stroke-miterlimit="10"/><path d="M246.57,173.34a.8.8,0,0,1,.44-.72.82.82,0,0,1,1.08.36,22.91,22.91,0,0,1,0,20.09.8.8,0,0,1-1.07.36.79.79,0,0,1-.37-1.06,21.3,21.3,0,0,0,0-18.69A.68.68,0,0,1,246.57,173.34Z" fill="none" stroke="#003a50" stroke-miterlimit="10"/><path d="M220,173.34a.8.8,0,0,1,1.51-.36,22.91,22.91,0,0,1,0,20.09.8.8,0,0,1-1.07.36.79.79,0,0,1-.36-1.06,21.3,21.3,0,0,0,0-18.69A.68.68,0,0,1,220,173.34Z" fill="none" stroke="#003a50" stroke-miterlimit="10"/><path d="M215.59,173.34a.8.8,0,0,1,.44-.72.82.82,0,0,1,1.08.36,22.91,22.91,0,0,1,0,20.09.8.8,0,0,1-1.07.36.79.79,0,0,1-.37-1.06,21.3,21.3,0,0,0,0-18.69A.68.68,0,0,1,215.59,173.34Z" fill="none" stroke="#003a50" stroke-miterlimit="10"/></g><line x1="210.83" y1="183.03" x2="366.44" y2="183.03" fill="none" stroke="#003a50" stroke-miterlimit="10"/><rect x="76.06" y="194.96" width="75.45" height="35" fill="none" stroke="#003a50" stroke-miterlimit="10"/><g clip-path="url(#clip-path)"><path d="M92.59,214.49a2,2,0,1,0-2-2A2,2,0,0,0,92.59,214.49Z" fill="none" stroke="#003a50" stroke-miterlimit="10"/></g><rect x="226.19" y="450" width="18.91" height="18.91" fill="none" stroke="#003a50" stroke-miterlimit="10"/><g clip-path="url(#clip-path)"><path d="M241.06,454a7.67,7.67,0,1,0,0,10.84A7.67,7.67,0,0,0,241.06,454Z" fill="none" stroke="#003a50" stroke-miterlimit="10"/><path d="M241.58,454.62c-1.41.14-2.84-.41-4.22,1-2,2,.12,4.19-1.91,6.22s-4.19-.12-6.22,1.91" fill="none" stroke="#003a50" stroke-miterlimit="10"/></g><rect x="340.66" y="450" width="18.91" height="18.91" fill="none" stroke="#003a50" stroke-miterlimit="10"/><g clip-path="url(#clip-path)"><path d="M355.54,454a7.67,7.67,0,1,0,0,10.84A7.67,7.67,0,0,0,355.54,454Z" fill="none" stroke="#003a50" stroke-miterlimit="10"/><path d="M356.06,454.62c-1.41.14-2.84-.41-4.22,1-2,2,.12,4.19-1.91,6.22s-4.19-.12-6.22,1.91" fill="none" stroke="#003a50" stroke-miterlimit="10"/></g><rect x="250.37" y="374.37" width="85.08" height="94.54" fill="none" stroke="#003a50" stroke-miterlimit="10"/><g clip-path="url(#clip-path)"><path d="M327.12,382.49H258.71a1.74,1.74,0,0,0-1.74,1.74v56.4h71.89v-56.4A1.74,1.74,0,0,0,327.12,382.49Z" fill="none" stroke="#003a50" stroke-miterlimit="10"/><path d="M290.54,443.64H258.41a1.65,1.65,0,0,0-1.65,1.65v15.78a1.65,1.65,0,0,0,1.65,1.65h32.13a1.65,1.65,0,0,0,1.65-1.65V445.29A1.65,1.65,0,0,0,290.54,443.64Z" fill="none" stroke="#003a50" stroke-miterlimit="10"/><rect x="293.64" y="443.64" width="35.44" height="19.08" rx="1.65" fill="none" stroke="#003a50" stroke-miterlimit="10"/></g><line x1="329.07" y1="429.08" x2="256.76" y2="429.08" fill="none" stroke="#003a50" stroke-miterlimit="10"/><rect x="77.11" y="163.88" width="48.9" height="27.05" fill="none" stroke="#003a50" stroke-miterlimit="10"/><g clip-path="url(#clip-path)"><path d="M90.72,167.71a.8.8,0,0,1,1.52-.35,22.91,22.91,0,0,1,0,20.09.81.81,0,0,1-1.07.36.79.79,0,0,1-.36-1.07,21.27,21.27,0,0,0,0-18.68A.73.73,0,0,1,90.72,167.71Z" fill="none" stroke="#003a50" stroke-miterlimit="10"/><path d="M95.15,167.71a.8.8,0,0,1,1.51-.35,22.91,22.91,0,0,1,0,20.09.8.8,0,0,1-1.43-.71,21.27,21.27,0,0,0,0-18.68A.72.72,0,0,1,95.15,167.71Z" fill="none" stroke="#003a50" stroke-miterlimit="10"/><path d="M99.57,167.71a.8.8,0,0,1,1.52-.35,22.91,22.91,0,0,1,0,20.09.81.81,0,0,1-1.07.36.8.8,0,0,1-.36-1.07,21.27,21.27,0,0,0,0-18.68A.73.73,0,0,1,99.57,167.71Z" fill="none" stroke="#003a50" stroke-miterlimit="10"/><path d="M104,167.71a.8.8,0,0,1,1.51-.35,22.91,22.91,0,0,1,0,20.09.8.8,0,0,1-1.43-.71,21.27,21.27,0,0,0,0-18.68A.72.72,0,0,1,104,167.71Z" fill="none" stroke="#003a50" stroke-miterlimit="10"/><path d="M108.42,167.71a.8.8,0,0,1,1.52-.35,22.91,22.91,0,0,1,0,20.09.81.81,0,0,1-1.07.36.8.8,0,0,1-.36-1.07,21.27,21.27,0,0,0,0-18.68A.73.73,0,0,1,108.42,167.71Z" fill="none" stroke="#003a50" stroke-miterlimit="10"/><path d="M112.85,167.71a.78.78,0,0,1,.44-.71.8.8,0,0,1,1.08.36,22.91,22.91,0,0,1,0,20.09.81.81,0,0,1-1.07.36.8.8,0,0,1-.37-1.07,21.27,21.27,0,0,0,0-18.68A.72.72,0,0,1,112.85,167.71Z" fill="none" stroke="#003a50" stroke-miterlimit="10"/><path d="M86.3,167.71a.8.8,0,0,1,1.51-.35,22.91,22.91,0,0,1,0,20.09.8.8,0,0,1-1.07.36.8.8,0,0,1-.36-1.07,21.27,21.27,0,0,0,0-18.68A.72.72,0,0,1,86.3,167.71Z" fill="none" stroke="#003a50" stroke-miterlimit="10"/><path d="M81.87,167.71a.78.78,0,0,1,.44-.71.8.8,0,0,1,1.08.36,22.91,22.91,0,0,1,0,20.09.81.81,0,0,1-1.07.36.8.8,0,0,1-.37-1.07,21.27,21.27,0,0,0,0-18.68A.72.72,0,0,1,81.87,167.71Z" fill="none" stroke="#003a50" stroke-miterlimit="10"/></g><line x1="77.11" y1="177.4" x2="126.01" y2="177.4" fill="none" stroke="#003a50" stroke-miterlimit="10"/><rect x="156.03" y="381.16" width="27.05" height="87.64" fill="none" stroke="#003a50" stroke-miterlimit="10"/><g clip-path="url(#clip-path)"><path d="M159.86,455.19a.79.79,0,0,1-.71-.45.81.81,0,0,1,.36-1.07,22.91,22.91,0,0,1,20.09,0,.8.8,0,0,1,.36,1.07.79.79,0,0,1-1.06.36,21.3,21.3,0,0,0-18.69,0A.73.73,0,0,1,159.86,455.19Z" fill="none" stroke="#003a50" stroke-miterlimit="10"/><path d="M159.86,450.76a.78.78,0,0,1-.71-.44.82.82,0,0,1,.36-1.08,22.91,22.91,0,0,1,20.09,0,.8.8,0,0,1,.36,1.07.79.79,0,0,1-1.06.37,21.3,21.3,0,0,0-18.69,0A.72.72,0,0,1,159.86,450.76Z" fill="none" stroke="#003a50" stroke-miterlimit="10"/><path d="M159.86,446.34a.79.79,0,0,1-.71-.45.81.81,0,0,1,.36-1.07,22.91,22.91,0,0,1,20.09,0,.8.8,0,0,1,.36,1.07.79.79,0,0,1-1.06.36,21.3,21.3,0,0,0-18.69,0A.73.73,0,0,1,159.86,446.34Z" fill="none" stroke="#003a50" stroke-miterlimit="10"/><path d="M159.86,441.91a.78.78,0,0,1-.71-.44.82.82,0,0,1,.36-1.08,22.91,22.91,0,0,1,20.09,0,.8.8,0,0,1,.36,1.07.79.79,0,0,1-1.06.37,21.3,21.3,0,0,0-18.69,0A.72.72,0,0,1,159.86,441.91Z" fill="none" stroke="#003a50" stroke-miterlimit="10"/><path d="M159.86,437.48a.78.78,0,0,1-.71-.44.8.8,0,0,1,.36-1.07,22.91,22.91,0,0,1,20.09,0A.8.8,0,0,1,180,437a.79.79,0,0,1-1.06.36,21.3,21.3,0,0,0-18.69,0A.72.72,0,0,1,159.86,437.48Z" fill="none" stroke="#003a50" stroke-miterlimit="10"/><path d="M159.86,433.06a.79.79,0,0,1-.71-.45.81.81,0,0,1,.36-1.07,22.91,22.91,0,0,1,20.09,0,.8.8,0,0,1,.36,1.07.78.78,0,0,1-1.06.36,21.3,21.3,0,0,0-18.69,0A.73.73,0,0,1,159.86,433.06Z" fill="none" stroke="#003a50" stroke-miterlimit="10"/><path d="M159.86,459.61a.78.78,0,0,1-.71-.44.8.8,0,0,1,.36-1.07,22.91,22.91,0,0,1,20.09,0,.8.8,0,0,1-.7,1.43,21.3,21.3,0,0,0-18.69,0A.72.72,0,0,1,159.86,459.61Z" fill="none" stroke="#003a50" stroke-miterlimit="10"/><path d="M159.86,464a.79.79,0,0,1-.71-.45.81.81,0,0,1,.36-1.07,22.91,22.91,0,0,1,20.09,0,.8.8,0,0,1,.36,1.07.78.78,0,0,1-1.06.36,21.3,21.3,0,0,0-18.69,0A.73.73,0,0,1,159.86,464Z" fill="none" stroke="#003a50" stroke-miterlimit="10"/></g><line x1="169.55" y1="468.8" x2="169.55" y2="381.16" fill="none" stroke="#003a50" stroke-miterlimit="10"/><g clip-path="url(#clip-path)"><path d="M138.9,170.77a3.32,3.32,0,0,0,3.07-2.05h1.89l5,3-2.26,3.69L144,174v11.59H133.11V174l-2.6,1.43-2.27-3.69,5-3h2.52A3.37,3.37,0,0,0,138.9,170.77Z" fill="none" stroke="#003a50" stroke-miterlimit="10"/></g><rect x="126.01" y="163.88" width="25.08" height="26.51" fill="none" stroke="#003a50" stroke-miterlimit="10"/><g clip-path="url(#clip-path)"><path d="M258.12,110.73a1,1,0,0,0-.71,1.14,10.41,10.41,0,1,1-20.29,4.65.95.95,0,1,0-1.85.43,12.31,12.31,0,0,0,24-5.51A1,1,0,0,0,258.12,110.73Z" fill="none" stroke="#003a50" stroke-miterlimit="10"/><path d="M216.47,118.07a.94.94,0,0,0-1.32-.25,10.41,10.41,0,0,1-11.72-17.2,1,1,0,0,0,.24-1.32.94.94,0,0,0-1.32-.25,12.31,12.31,0,1,0,13.86,20.34A1,1,0,0,0,216.47,118.07Z" fill="none" stroke="#003a50" stroke-miterlimit="10"/><path d="M214.58,82.28a1,1,0,0,0,1-.9,10.41,10.41,0,1,1,20.78,1.24,1,1,0,0,0,1.9.11,12.31,12.31,0,1,0-24.58-1.46A1,1,0,0,0,214.58,82.28Z" fill="none" stroke="#003a50" stroke-miterlimit="10"/><path d="M247.4,123.28a9.58,9.58,0,0,0,9.06-11.69l-1.54-6.71a2.66,2.66,0,0,0-3.2-2l-10.15,2.32a17.86,17.86,0,0,1-4.53,7.13l.73,3.17A9.81,9.81,0,0,0,247.4,123.28Z" fill="none" stroke="#003a50" stroke-miterlimit="10"/><path d="M215.09,116.84l1.75-1.21a18,18,0,0,1-10.3-16.09l-1.9,1.29a9.8,9.8,0,0,0-3.75,11.81A9.59,9.59,0,0,0,215.09,116.84Z" fill="none" stroke="#003a50" stroke-miterlimit="10"/><path d="M235.35,84.92l.09-1.48a9.78,9.78,0,0,0-7-10.18,9.55,9.55,0,0,0-12,8.67l-.1,1.39a18,18,0,0,1,12.57-1.45A17.68,17.68,0,0,1,235.35,84.92Z" fill="none" stroke="#003a50" stroke-miterlimit="10"/><path d="M237,112.31a17.88,17.88,0,0,0,4.54-7.13,12.38,12.38,0,0,0,.45-1.5,18,18,0,0,0-6.68-18.76,17.68,17.68,0,0,0-6.46-3A18,18,0,0,0,207.05,95a16.81,16.81,0,0,0-.51,4.53,18,18,0,0,0,10.3,16.1,17.33,17.33,0,0,0,3.38,1.2A18,18,0,0,0,237,112.31Z" fill="none" stroke="#003a50" stroke-miterlimit="10"/><path d="M302.16,48.19v-31H267.6V49.86h32.88A1.68,1.68,0,0,0,302.16,48.19Z" fill="none" stroke="#003a50" stroke-miterlimit="10"/><path d="M336.79,48.36V17.21H302.23V48.36a1.5,1.5,0,0,0,1.5,1.5h31.56A1.5,1.5,0,0,0,336.79,48.36Z" fill="none" stroke="#003a50" stroke-miterlimit="10"/><path d="M267.6,49.86A2.35,2.35,0,0,1,265.09,52H261.9a2.34,2.34,0,0,1-2.51-2.13V13.46H345V49.54a2.35,2.35,0,0,1-2.51,2.14H339.3a2.35,2.35,0,0,1-2.51-2.14V17.2H267.6Z" fill="none" stroke="#003a50" stroke-miterlimit="10"/></g><rect x="267.6" y="17.2" width="69.19" height="6.98" fill="none" stroke="#003a50" stroke-miterlimit="10"/><g clip-path="url(#clip-path)"><path d="M336.79-35.84A2.35,2.35,0,0,1,339.3-38h3.19A2.35,2.35,0,0,1,345-35.84V.55H259.38V-35.52a2.36,2.36,0,0,1,2.52-2.14h3.18a2.36,2.36,0,0,1,2.52,2.14V-3.18h69.19Z" fill="none" stroke="#003a50" stroke-miterlimit="10"/></g><rect x="54.42" y="50.95" width="26.69" height="28.24" fill="none" stroke="#003a50" stroke-miterlimit="10"/><g clip-path="url(#clip-path)"><path d="M65,64.54V55.87h6.75v8.67a2.78,2.78,0,0,1-2.77,2.78h-1.2A2.79,2.79,0,0,1,65,64.54Z" fill="none" stroke="#003a50" stroke-miterlimit="10"/></g><polyline points="71.06 75.6 68.34 75.6 65.61 75.6" fill="none" stroke="#003a50" stroke-miterlimit="10"/><line x1="68.34" y1="67.32" x2="68.34" y2="75.6" fill="none" stroke="#003a50" stroke-miterlimit="10"/><rect x="135.28" y="13.48" width="27.5" height="28.24" fill="none" stroke="#003a50" stroke-miterlimit="10"/><g clip-path="url(#clip-path)"><circle cx="142.75" cy="34.12" r="3.75" transform="matrix(0.96, -0.29, 0.29, 0.96, -3.76, 42.83)" fill="none" stroke="#003a50" stroke-miterlimit="10"/><circle cx="155.27" cy="34.12" r="3.75" transform="matrix(0.96, -0.29, 0.29, 0.96, -3.22, 46.46)" fill="none" stroke="#003a50" stroke-miterlimit="10"/><circle cx="142.75" cy="21.92" r="3.75" transform="matrix(0.96, -0.29, 0.29, 0.96, -0.23, 42.31)" fill="none" stroke="#003a50" stroke-miterlimit="10"/><circle cx="155.27" cy="21.92" r="3.75" transform="matrix(0.96, -0.29, 0.29, 0.96, 0.31, 45.93)" fill="none" stroke="#003a50" stroke-miterlimit="10"/></g><polyline points="106.77 18.15 102.09 18.15 97.43 18.15" fill="none" stroke="#003a50" stroke-miterlimit="10"/><line x1="102.08" y1="27.51" x2="102.08" y2="18.15" fill="none" stroke="#003a50" stroke-miterlimit="10"/><g clip-path="url(#clip-path)"><rect x="91.78" y="22.15" width="20.66" height="14.9" rx="3.24" fill="none" stroke="#003a50" stroke-miterlimit="10"/><path d="M102.08,28.67A1.67,1.67,0,1,0,100.41,27,1.66,1.66,0,0,0,102.08,28.67Z" fill="none" stroke="#003a50" stroke-miterlimit="10"/></g><rect x="54.36" y="79.18" width="26.74" height="26.74" fill="none" stroke="#003a50" stroke-miterlimit="10"/><line x1="67.74" y1="100.4" x2="67.74" y2="84.7" fill="none" stroke="#003a50" stroke-miterlimit="10"/><line x1="59.89" y1="92.55" x2="75.58" y2="92.55" fill="none" stroke="#003a50" stroke-miterlimit="10"/><line x1="62.19" y1="98.1" x2="73.28" y2="87.01" fill="none" stroke="#003a50" stroke-miterlimit="10"/><line x1="62.19" y1="87" x2="73.28" y2="98.1" fill="none" stroke="#003a50" stroke-miterlimit="10"/><rect x="53.98" y="6.93" width="27.09" height="44.02" fill="none" stroke="#003a50" stroke-miterlimit="10"/><rect x="81.07" y="13.48" width="81.94" height="28.24" fill="none" stroke="#003a50" stroke-miterlimit="10"/><g clip-path="url(#clip-path)"><rect x="144.8" y="-26.95" width="26.69" height="28.24" fill="none" stroke="#003a50" stroke-miterlimit="10"/><rect x="181.66" y="-26.95" width="27.5" height="28.24" fill="none" stroke="#003a50" stroke-miterlimit="10"/><rect x="117.68" y="-63.24" width="27.09" height="64.53" fill="none" stroke="#003a50" stroke-miterlimit="10"/><rect x="144.8" y="-26.95" width="68.14" height="28.24" fill="none" stroke="#003a50" stroke-miterlimit="10"/><path d="M356.72,257.29h0a1,1,0,0,0,1-1V203.58a1,1,0,0,0-1.94,0v52.74A1,1,0,0,0,356.72,257.29Z" fill="none" stroke="#003a50" stroke-miterlimit="10"/><path d="M335.73,221.48a10.23,10.23,0,0,0-11,16.19.79.79,0,1,0,1.23-1,8.63,8.63,0,0,1,9.8-13.5Z" fill="none" stroke="#003a50" stroke-miterlimit="10"/><rect x="335.73" y="200.85" width="23.56" height="58.2" rx="2.29" fill="none" stroke="#003a50" stroke-miterlimit="10"/><path d="M346.63,249.58a3.81,3.81,0,1,1,0,5.4A3.81,3.81,0,0,1,346.63,249.58Z" fill="none" stroke="#003a50" stroke-miterlimit="10"/><path d="M346.37,249.87c.7.07,1.41-.2,2.1.48,1,1-.06,2.09.95,3.1s2.08-.06,3.1,1" fill="none" stroke="#003a50" stroke-miterlimit="10"/><path d="M335.73,224.74a7.36,7.36,0,1,0,0,13.56Z" fill="none" stroke="#003a50" stroke-miterlimit="10"/><rect x="210.97" y="481.33" width="148.54" height="17.85" fill="none" stroke="#003a50" stroke-miterlimit="10"/><path d="M155,264.66h2.24c15.59,0,28.22-13.64,28.22-30.47H155" fill="none" stroke="#003a50" stroke-miterlimit="10" stroke-width="1.6"/><path d="M155,321.87h2.24c15.59,0,28.22,13.64,28.22,30.46H155" fill="none" stroke="#003a50" stroke-miterlimit="10" stroke-width="1.6"/><path d="M209.71,236.25h2.68c18.64,0,33.74-16.31,33.74-36.42H209.71" fill="none" stroke="#003a50" stroke-miterlimit="10" stroke-width="1.6"/><path d="M163,273v2.68c0,18.64,16.31,33.74,36.42,33.74V273" fill="none" stroke="#003a50" stroke-miterlimit="10" stroke-width="1.6"/><path d="M43.63,115.23H40.55c-21.41,0-38.76,18.73-38.76,41.84H43.63" fill="none" stroke="#003a50" stroke-miterlimit="10" stroke-width="1.6"/><path d="M-31.21,145.82h2.81c19.51,0,35.33,17.07,35.33,38.13H-31.21" fill="none" stroke="#003a50" stroke-miterlimit="10" stroke-width="1.6"/><path d="M-15,377.55v-3.08c0-21.41,18.73-38.76,41.85-38.76v41.84" fill="none" stroke="#003a50" stroke-miterlimit="10" stroke-width="1.6"/></g><line x1="226.19" y1="445.74" x2="226.19" y2="411.02" fill="none" stroke="#003a50" stroke-miterlimit="10" stroke-width="1.6"/><rect x="142.59" y="469.89" width="5.75" height="11.86" fill="#003a50"/><rect x="216.26" y="376.47" width="5.75" height="25.92" fill="#003a50"/><rect x="206.76" y="235.33" width="5.75" height="91.22" fill="#003a50"/><rect x="150.76" y="351.58" width="5.75" height="28.57" fill="#003a50"/><rect x="150.76" y="263.77" width="5.75" height="58.94" fill="#003a50"/><rect x="150.76" y="163.33" width="5.75" height="71.67" fill="#003a50"/><rect x="206.83" y="163.33" width="5.75" height="37.32" fill="#003a50"/><rect x="71.09" y="163.33" width="5.75" height="129.91" fill="#003a50"/><rect x="216.26" y="434.31" width="5.75" height="40.82" fill="#003a50"/><rect x="111.97" y="380.14" width="5.75" height="10.19" fill="#003a50"/><rect x="142.56" y="405.66" width="4.69" height="5.75" fill="#003a50"/><rect x="131.26" y="376.47" width="90.75" height="5.75" fill="#003a50"/><rect x="206.76" y="320.7" width="163.75" height="5.75" fill="#003a50"/><rect x="153.63" y="269.3" width="10.13" height="5.75" fill="#003a50"/><rect x="53.67" y="290.36" width="99.05" height="5.75" fill="#003a50"/><rect x="73.38" y="189.88" width="79.34" height="5.75" fill="#003a50"/><rect x="47.72" y="104.46" width="108.79" height="5.75" fill="#003a50"/><rect x="206.83" y="163.33" width="166.42" height="5.75" fill="#003a50"/><rect x="48.84" y="163.33" width="28" height="5.75" fill="#003a50"/><rect x="45.97" y="182.16" width="28" height="5.75" fill="#003a50"/><rect x="45.97" y="258.37" width="28" height="5.75" fill="#003a50"/><rect x="198.55" y="269.3" width="10.13" height="5.75" fill="#003a50"/><rect x="67" y="9.21" width="5.92" height="22.78" fill="#003a50"/><rect x="50.13" y="26.08" width="22.78" height="5.92" fill="#003a50"/><rect x="112.75" y="0.14" width="5.92" height="0.74" fill="#003a50"/><rect x="94.5" y="0.14" width="5.92" height="5" fill="#003a50"/><rect x="360.01" y="0.14" width="40" height="68.82" fill="#003a50"/><g clip-path="url(#clip-path)"><rect x="360.01" y="-18.87" width="40" height="87.84" fill="none" stroke="#003a50" stroke-miterlimit="10" stroke-width="2.09"/></g><rect x="360.01" y="139.46" width="31.83" height="87.84" fill="#003a50"/><rect x="360.01" y="139.46" width="31.83" height="87.84" fill="none" stroke="#003a50" stroke-miterlimit="10" stroke-width="2.09"/><rect x="368.18" y="204.66" width="31.83" height="22.63" fill="#003a50"/><g clip-path="url(#clip-path)"><rect x="368.18" y="204.66" width="31.83" height="22.63" fill="none" stroke="#003a50" stroke-miterlimit="10" stroke-width="2.09"/></g><rect x="360.01" y="456.71" width="31.83" height="25.04" fill="#003a50"/><g clip-path="url(#clip-path)"><rect x="360.01" y="456.71" width="31.83" height="87.84" fill="none" stroke="#003a50" stroke-miterlimit="10" stroke-width="2.09"/></g><polygon points="360.01 299.46 360.01 387.3 400.01 387.3 388.53 299.46 360.01 299.46" fill="#003a50"/><g clip-path="url(#clip-path)"><polygon points="360.01 387.3 360.01 299.46 388.53 299.46 400.01 387.3 360.01 387.3" fill="none" stroke="#003a50" stroke-miterlimit="10" stroke-width="2.09"/></g><polygon points="40.68 376.47 40.68 390.33 142.56 390.33 142.56 390.39 156.51 390.39 156.51 376.47 40.68 376.47" fill="#003a50"/><rect x="49.96" y="0.14" width="325.96" height="13.75" fill="#003a50"/><rect x="142.59" y="468.16" width="222.67" height="13.59" fill="#003a50"/><rect x="40.76" y="156.27" width="13.92" height="234.06" fill="#003a50"/><rect x="40.76" y="0.14" width="13.92" height="115.89" fill="#003a50"/><rect x="142.59" y="376.47" width="13.92" height="105.28" fill="#003a50"/><g clip-path="url(#clip-path)"><path d="M278.74,353,276.26,355v-2.24l2.73-2.27h1.86v11.91h-2.11Z" fill="#003a50"/><path d="M293.24,362.36h-9.93V360.8a2.74,2.74,0,0,1,.58-1.74,4,4,0,0,1,1.45-1.2c.5-.25,1.12-.54,1.87-.86s1.32-.56,1.87-.77a4.23,4.23,0,0,0,1.45-.92,1.78,1.78,0,0,0,.57-1.3c0-1.26-.89-1.89-2.66-1.89s-2.68.72-2.68,2.16v.41h-2.11v-.41a3.62,3.62,0,0,1,1.26-3,5.39,5.39,0,0,1,3.52-1,5.65,5.65,0,0,1,3.51,1,3.29,3.29,0,0,1,1.27,2.75,3.05,3.05,0,0,1-.56,1.83,4.18,4.18,0,0,1-1.4,1.31q-.9.51-1.83.93t-1.83.75a5.63,5.63,0,0,0-1.41.74,1.25,1.25,0,0,0-.56,1h7.62Z" fill="#003a50"/><path d="M295.34,362.23a1,1,0,0,1-.32-.8,1.07,1.07,0,0,1,.32-.81,1.25,1.25,0,0,1,.88-.3,1.22,1.22,0,0,1,.86.3,1,1,0,0,1,.32.81,1,1,0,0,1-.32.8,1.22,1.22,0,0,1-.86.3A1.25,1.25,0,0,1,295.34,362.23Z" fill="#003a50"/><path d="M305.45,352.3h-5.82v-1.85h8.86v1.85L304,355V355h1.27a3.87,3.87,0,0,1,2.8,1,3.52,3.52,0,0,1,1,2.66,3.33,3.33,0,0,1-1.33,2.83,7,7,0,0,1-7.24,0,3.37,3.37,0,0,1-1.33-2.86v-.32h2.11v.32c0,1.36.95,2,2.84,2s2.84-.66,2.84-2-1-2-2.84-2h-3.26v-1.67l4.57-2.69Z" fill="#003a50"/><path d="M284.07,240.88l-2.49,2v-2.24l2.74-2.27h1.86v11.91h-2.11Z" fill="#003a50"/><path d="M290.7,240.88l-2.49,2v-2.24l2.73-2.27h1.86v11.91h-2.1Z" fill="#003a50"/><path d="M295.33,250.1a1.15,1.15,0,0,1,0-1.61,1.23,1.23,0,0,1,.87-.3,1.2,1.2,0,0,1,.86.3,1.15,1.15,0,0,1,0,1.61,1.2,1.2,0,0,1-.86.3A1.23,1.23,0,0,1,295.33,250.1Z" fill="#003a50"/><path d="M301.23,240.88l-2.48,2v-2.24l2.73-2.27h1.86v11.91h-2.11Z" fill="#003a50"/><path d="M202.39,428.71h-9.93v-1.56a2.8,2.8,0,0,1,.58-1.74,4,4,0,0,1,1.45-1.2c.5-.25,1.12-.54,1.87-.86s1.32-.56,1.87-.77a4.29,4.29,0,0,0,1.45-.92,1.78,1.78,0,0,0,.57-1.3c0-1.26-.89-1.89-2.66-1.89s-2.68.72-2.68,2.16V421H192.8v-.41a3.62,3.62,0,0,1,1.26-3,5.39,5.39,0,0,1,3.52-1,5.65,5.65,0,0,1,3.51,1,3.27,3.27,0,0,1,1.27,2.75,3.07,3.07,0,0,1-.56,1.83,4.29,4.29,0,0,1-1.4,1.31q-.9.51-1.83.93c-.63.27-1.24.52-1.83.74a5.64,5.64,0,0,0-1.41.75,1.25,1.25,0,0,0-.56,1h7.62Z" fill="#003a50"/><path d="M204.5,428.58a1,1,0,0,1-.33-.81,1,1,0,0,1,.33-.8,1.4,1.4,0,0,1,1.73,0,1,1,0,0,1,.32.8,1,1,0,0,1-.32.81,1.4,1.4,0,0,1-1.73,0Z" fill="#003a50"/><path d="M218.11,420.16h-2.2s0-.06,0-.18a2.94,2.94,0,0,0-.22-.44,2.29,2.29,0,0,0-.38-.49,1.94,1.94,0,0,0-.71-.42,3.29,3.29,0,0,0-1-.16,2.52,2.52,0,0,0-2.15,1,4.41,4.41,0,0,0-.77,2.68h.06a1.79,1.79,0,0,1,.44-.43,4.24,4.24,0,0,1,.61-.36,4.06,4.06,0,0,1,.95-.31,6.06,6.06,0,0,1,1.21-.12,5.06,5.06,0,0,1,3.38,1.11,3.54,3.54,0,0,1,1.3,2.8,3.59,3.59,0,0,1-1.36,2.9,5.52,5.52,0,0,1-3.61,1.11,4.81,4.81,0,0,1-3.87-1.55,6.36,6.36,0,0,1-1.32-4.27v-.4a6.85,6.85,0,0,1,1.32-4.31,4.52,4.52,0,0,1,3.81-1.71,5.64,5.64,0,0,1,2.12.37,3.84,3.84,0,0,1,1.44.94A3.45,3.45,0,0,1,218.11,420.16Zm-2.5,3.15a3.62,3.62,0,0,0-4,0,2,2,0,0,0,0,3.14,3.62,3.62,0,0,0,4,0,2,2,0,0,0,0-3.14Z" fill="#003a50"/><path d="M89,478.18H83.13v-1.85H92v1.85l-4.52,2.64v.07h1.28a3.9,3.9,0,0,1,2.79,1,3.52,3.52,0,0,1,1,2.67,3.32,3.32,0,0,1-1.33,2.82,6.93,6.93,0,0,1-7.24,0,3.35,3.35,0,0,1-1.33-2.85v-.33H84.8v.33c0,1.36,1,2,2.84,2s2.84-.67,2.84-2-.94-2-2.84-2H84.38v-1.67L89,478.24Z" fill="#003a50"/><path d="M108.31,479.69H106.1s0-.07,0-.18a2.94,2.94,0,0,0-.22-.44,2.69,2.69,0,0,0-.39-.5,1.9,1.9,0,0,0-.71-.41,3.19,3.19,0,0,0-1-.16,2.51,2.51,0,0,0-2.15,1,4.41,4.41,0,0,0-.76,2.68h.06a1.63,1.63,0,0,1,.44-.43,4.76,4.76,0,0,1,.6-.36,4.41,4.41,0,0,1,.95-.31,6.24,6.24,0,0,1,1.22-.13,5,5,0,0,1,3.37,1.12,3.51,3.51,0,0,1,1.31,2.8,3.59,3.59,0,0,1-1.36,2.9,5.54,5.54,0,0,1-3.61,1.11,4.81,4.81,0,0,1-3.87-1.55,6.36,6.36,0,0,1-1.32-4.27v-.4a6.83,6.83,0,0,1,1.32-4.31,4.52,4.52,0,0,1,3.8-1.71,5.66,5.66,0,0,1,2.13.37,3.84,3.84,0,0,1,1.44.94A3.43,3.43,0,0,1,108.31,479.69Zm-2.51,3.14a3.65,3.65,0,0,0-4,0,2,2,0,0,0,0,3.15,3.63,3.63,0,0,0,4,0,1.85,1.85,0,0,0,.77-1.57A1.88,1.88,0,0,0,105.8,482.83Z" fill="#003a50"/><path d="M118.34,337h-5.82v-1.84h8.86V337l-4.52,2.65v.07h1.28a3.9,3.9,0,0,1,2.79,1,3.52,3.52,0,0,1,1,2.67,3.32,3.32,0,0,1-1.33,2.82,6.93,6.93,0,0,1-7.24,0,3.35,3.35,0,0,1-1.33-2.85V343h2.11v.33c0,1.36,1,2,2.84,2s2.84-.67,2.84-2-1-2-2.84-2h-3.26v-1.67l4.57-2.68Z" fill="#003a50"/><path d="M124.08,346.91a1.17,1.17,0,0,1,0-1.61,1.41,1.41,0,0,1,1.74,0,1.17,1.17,0,0,1,0,1.61,1.41,1.41,0,0,1-1.74,0Z" fill="#003a50"/><path d="M128.22,343.69h2.21s0,.07,0,.18a2.07,2.07,0,0,0,.23.43,2.14,2.14,0,0,0,.41.49,2.2,2.2,0,0,0,.75.42,3.21,3.21,0,0,0,1,.16,2.66,2.66,0,0,0,2.24-1.06,4.34,4.34,0,0,0,.81-2.71h-.06a2.24,2.24,0,0,1-.44.47,2.38,2.38,0,0,1-.6.39,3.71,3.71,0,0,1-1,.33,5.49,5.49,0,0,1-1.22.13,4.92,4.92,0,0,1-3.37-1.13,3.73,3.73,0,0,1,.05-5.72A5.52,5.52,0,0,1,133,335a4.81,4.81,0,0,1,3.87,1.54,6.4,6.4,0,0,1,1.32,4.27v.41a6.72,6.72,0,0,1-1.37,4.31,4.71,4.71,0,0,1-3.89,1.71,6,6,0,0,1-2.17-.38,3.85,3.85,0,0,1-1.48-.94A3.36,3.36,0,0,1,128.22,343.69Zm2.77-3.16a3.6,3.6,0,0,0,3.95,0,2,2,0,0,0,0-3.15,3.21,3.21,0,0,0-2-.58,3.17,3.17,0,0,0-2,.58,2,2,0,0,0,0,3.15Z" fill="#003a50"/><path d="M118.34,241.73h-5.82v-1.84h8.86v1.84l-4.52,2.65v.07h1.28a3.86,3.86,0,0,1,2.79,1,3.52,3.52,0,0,1,1,2.66,3.33,3.33,0,0,1-1.33,2.83,7,7,0,0,1-7.24,0,3.36,3.36,0,0,1-1.33-2.86v-.32h2.11v.32c0,1.36,1,2,2.84,2s2.84-.67,2.84-2-1-2-2.84-2h-3.26v-1.67l4.57-2.68Z" fill="#003a50"/><path d="M124.08,251.66a1,1,0,0,1-.32-.8,1.07,1.07,0,0,1,.32-.81,1.41,1.41,0,0,1,1.74,0,1.07,1.07,0,0,1,.32.81,1,1,0,0,1-.32.8,1.41,1.41,0,0,1-1.74,0Z" fill="#003a50"/><path d="M137.7,243.24h-2.21s0-.06,0-.17a2.53,2.53,0,0,0-.22-.44,2.4,2.4,0,0,0-.39-.5,1.77,1.77,0,0,0-.71-.41,2.93,2.93,0,0,0-1-.16,2.51,2.51,0,0,0-2.15,1,4.39,4.39,0,0,0-.76,2.68h.06a1.49,1.49,0,0,1,.44-.43,3.9,3.9,0,0,1,.6-.37,4,4,0,0,1,1-.3,5.56,5.56,0,0,1,1.22-.13,5,5,0,0,1,3.37,1.11,3.52,3.52,0,0,1,1.31,2.8,3.59,3.59,0,0,1-1.37,2.91,5.55,5.55,0,0,1-3.6,1.1,4.81,4.81,0,0,1-3.87-1.54,6.38,6.38,0,0,1-1.32-4.27v-.41a6.85,6.85,0,0,1,1.32-4.31,4.52,4.52,0,0,1,3.8-1.71,5.66,5.66,0,0,1,2.13.37,4,4,0,0,1,1.44.94A3.45,3.45,0,0,1,137.7,243.24Zm-2.51,3.15a3.65,3.65,0,0,0-3.95,0,2,2,0,0,0,0,3.15,3.63,3.63,0,0,0,4,0,2,2,0,0,0,0-3.15Z" fill="#003a50"/><path d="M110.81,67.31l-2.49,2V67l2.74-2.26h1.86v11.9h-2.11Z" fill="#003a50"/><path d="M115.67,73.32h2.2s0,.07,0,.18a2.93,2.93,0,0,0,.22.43,2.41,2.41,0,0,0,.42.48,2,2,0,0,0,.75.42,3.21,3.21,0,0,0,1,.16,2.66,2.66,0,0,0,2.24-1.06,4.3,4.3,0,0,0,.81-2.71h-.06a2.27,2.27,0,0,1-.44.47,3,3,0,0,1-.6.4,3.88,3.88,0,0,1-1,.32,5.58,5.58,0,0,1-1.23.13,5,5,0,0,1-3.36-1.12,3.74,3.74,0,0,1,0-5.73,5.55,5.55,0,0,1,3.6-1.1,4.81,4.81,0,0,1,3.87,1.54,6.4,6.4,0,0,1,1.32,4.27v.41a6.64,6.64,0,0,1-1.37,4.31,4.67,4.67,0,0,1-3.88,1.71,6,6,0,0,1-2.17-.37,3.86,3.86,0,0,1-1.48-.95A3.31,3.31,0,0,1,115.67,73.32Zm2.77-3.17a3.58,3.58,0,0,0,3.94,0,2,2,0,0,0,0-3.14,3.21,3.21,0,0,0-2-.59,3.17,3.17,0,0,0-2,.59,2,2,0,0,0,0,3.14Z" fill="#003a50"/><path d="M127.8,76.53a1,1,0,0,1-.32-.8,1,1,0,0,1,.32-.81,1.23,1.23,0,0,1,.87-.3,1.2,1.2,0,0,1,.86.3,1,1,0,0,1,.33.81,1,1,0,0,1-.33.8,1.2,1.2,0,0,1-.86.3A1.23,1.23,0,0,1,127.8,76.53Z" fill="#003a50"/><path d="M141.58,76.66h-9.94V75.1a2.75,2.75,0,0,1,.59-1.74,4,4,0,0,1,1.44-1.2c.5-.25,1.12-.54,1.87-.86s1.32-.56,1.88-.77a4.09,4.09,0,0,0,1.44-.92,1.78,1.78,0,0,0,.57-1.3c0-1.26-.88-1.89-2.66-1.89s-2.68.72-2.68,2.16V69H132v-.41a3.62,3.62,0,0,1,1.27-3,5.34,5.34,0,0,1,3.51-1,5.63,5.63,0,0,1,3.51,1,3.29,3.29,0,0,1,1.27,2.75,3.11,3.11,0,0,1-.55,1.83,4.31,4.31,0,0,1-1.41,1.31c-.59.34-1.21.65-1.83.93s-1.24.52-1.83.75a5.55,5.55,0,0,0-1.4.74,1.25,1.25,0,0,0-.57,1h7.63Z" fill="#003a50"/><path d="M89.48,133.24H83.66v-1.85h8.86v1.85L88,135.89V136h1.28a3.9,3.9,0,0,1,2.79,1,3.5,3.5,0,0,1,1.06,2.67,3.35,3.35,0,0,1-1.33,2.82,6.93,6.93,0,0,1-7.24,0,3.35,3.35,0,0,1-1.33-2.85v-.33h2.11v.33c0,1.36.94,2,2.84,2s2.84-.67,2.84-2-1-2-2.84-2H84.9V136l4.58-2.68Z" fill="#003a50"/><path d="M95.22,143.17a1,1,0,0,1-.32-.81,1,1,0,0,1,.32-.8,1.23,1.23,0,0,1,.87-.3,1.2,1.2,0,0,1,.86.3,1,1,0,0,1,.33.8,1,1,0,0,1-.33.81,1.2,1.2,0,0,1-.86.3A1.23,1.23,0,0,1,95.22,143.17Z" fill="#003a50"/><path d="M102.33,143.3H100l5.41-10H98.47v-1.88h9.28v1.88Z" fill="#003a50"/><path d="M179.93,196.57H170V195a2.75,2.75,0,0,1,.59-1.74,4,4,0,0,1,1.44-1.2c.5-.26,1.12-.54,1.87-.86s1.32-.56,1.88-.78a4.07,4.07,0,0,0,1.44-.91,1.8,1.8,0,0,0,.57-1.3c0-1.26-.88-1.89-2.66-1.89s-2.68.72-2.68,2.16v.41h-2.11v-.41a3.63,3.63,0,0,1,1.27-3,5.4,5.4,0,0,1,3.51-1,5.65,5.65,0,0,1,3.51,1,3.27,3.27,0,0,1,1.27,2.75,3.16,3.16,0,0,1-.55,1.83,4.28,4.28,0,0,1-1.41,1.3,19.77,19.77,0,0,1-1.83.94c-.63.27-1.24.52-1.83.74a5.26,5.26,0,0,0-1.4.75,1.22,1.22,0,0,0-.57.95h7.63Z" fill="#003a50"/><path d="M182,196.44a1.15,1.15,0,0,1,0-1.61,1.4,1.4,0,0,1,1.73,0,1.15,1.15,0,0,1,0,1.61,1.4,1.4,0,0,1-1.73,0Z" fill="#003a50"/><path d="M195.65,188h-2.21s0-.07,0-.18a2.53,2.53,0,0,0-.22-.44,2.28,2.28,0,0,0-.38-.5,2,2,0,0,0-.71-.41,3,3,0,0,0-1-.16,2.49,2.49,0,0,0-2.15,1,4.41,4.41,0,0,0-.77,2.68h.06a2,2,0,0,1,.44-.43,3.93,3.93,0,0,1,1.56-.67,6.16,6.16,0,0,1,1.22-.13,5,5,0,0,1,3.37,1.12,3.49,3.49,0,0,1,1.3,2.79,3.57,3.57,0,0,1-1.36,2.91,5.49,5.49,0,0,1-3.6,1.11,4.81,4.81,0,0,1-3.87-1.55,6.36,6.36,0,0,1-1.32-4.27v-.4a6.83,6.83,0,0,1,1.32-4.31,4.51,4.51,0,0,1,3.8-1.72,5.7,5.7,0,0,1,2.13.38,3.87,3.87,0,0,1,1.43.94A3.44,3.44,0,0,1,195.65,188Zm-2.51,3.14a3.65,3.65,0,0,0-3.95,0,1.89,1.89,0,0,0-.79,1.58,1.86,1.86,0,0,0,.78,1.57,3.21,3.21,0,0,0,2,.59,3.26,3.26,0,0,0,2-.59,2,2,0,0,0,0-3.15Z" fill="#003a50"/><path d="M.74,428.41H3s0,.07,0,.18a2.71,2.71,0,0,0,.23.43,2.37,2.37,0,0,0,.41.49,2.2,2.2,0,0,0,.75.41,3.21,3.21,0,0,0,1,.17A2.68,2.68,0,0,0,7.68,429a4.35,4.35,0,0,0,.8-2.7H8.42a2.24,2.24,0,0,1-.44.46,2.56,2.56,0,0,1-.59.4,3.47,3.47,0,0,1-1,.32,5.43,5.43,0,0,1-1.22.14,5,5,0,0,1-3.36-1.13,3.71,3.71,0,0,1,0-5.72,5.49,5.49,0,0,1,3.6-1.11,4.81,4.81,0,0,1,3.87,1.55,6.35,6.35,0,0,1,1.32,4.26v.41a6.7,6.7,0,0,1-1.37,4.31,4.69,4.69,0,0,1-3.89,1.71,5.9,5.9,0,0,1-2.16-.37,3.86,3.86,0,0,1-1.48-.95A3.33,3.33,0,0,1,.74,428.41Zm2.78-3.16a3.19,3.19,0,0,0,2,.59,3.25,3.25,0,0,0,2-.59,1.87,1.87,0,0,0,.78-1.57,1.89,1.89,0,0,0-.77-1.58,3.22,3.22,0,0,0-2-.58,3.14,3.14,0,0,0-2,.58,2,2,0,0,0,0,3.15Z" fill="#003a50"/></g></svg>