<svg id="Слой_1" data-name="Слой 1" xmlns="http://www.w3.org/2000/svg" xmlns:xlink="http://www.w3.org/1999/xlink" viewBox="0 0 401.39 481.89"><defs><clipPath id="clip-path"><polygon points="0 0.14 0 159.31 40.68 159.31 40.68 390.33 142.56 390.33 142.56 481.75 401.39 481.75 401.39 0.14 0 0.14" fill="none"/></clipPath></defs><polygon points="40.68 376.47 40.68 390.33 142.56 390.33 142.56 481.75 391.84 481.75 391.84 472.83 148.34 472.83 148.34 376.47 40.68 376.47" fill="#fff"/><polygon points="40.76 6.46 40.76 383.43 150.76 383.43 150.76 475.12 391.84 475.12 391.84 6.46 40.76 6.46" fill="#fff"/><rect x="40.76" y="0.14" width="351.08" height="9.07" fill="#fff"/><g clip-path="url(#clip-path)"><line x1="389.44" y1="-488.5" x2="389.44" y2="897" fill="none" stroke="#003a50" stroke-miterlimit="10"/><polyline points="85.77 -510.56 85.77 -1614.17 62.77 -1637.17 -778.85 -1637.17 -801.85 -1614.17 -801.85 -268.04 -682.24 -268.04 -682.24 857.08" fill="none" stroke="#003a50" stroke-miterlimit="10"/><polyline points="-682.66 903.27 400.01 903.27 400.01 879.13 400.01 -510.56 93.1 -510.56" fill="none" stroke="#003a50" stroke-miterlimit="10"/></g><rect x="367.84" y="387.77" width="4.55" height="68.46" fill="#fff"/><rect x="367.84" y="387.77" width="4.55" height="68.46" fill="none" stroke="#003a50" stroke-miterlimit="10"/><line x1="370.11" y1="456.24" x2="370.11" y2="387.77" fill="none" stroke="#003a50" stroke-miterlimit="10"/><rect x="367.84" y="451.91" width="4.55" height="4.33" fill="#fff"/><rect x="367.84" y="451.91" width="4.55" height="4.33" fill="none" stroke="#003a50" stroke-miterlimit="10"/><rect x="367.84" y="387.77" width="4.55" height="4.33" fill="#fff"/><rect x="367.84" y="387.77" width="4.55" height="4.33" fill="none" stroke="#003a50" stroke-miterlimit="10"/><rect x="367.84" y="422" width="4.55" height="4.33" fill="#fff"/><rect x="367.84" y="422" width="4.55" height="4.33" fill="none" stroke="#003a50" stroke-miterlimit="10"/><g clip-path="url(#clip-path)"><path d="M367.84,422H365.3c-17.6,0-28.91-13.38-28.91-29.9h31.45" fill="none" stroke="#003a50" stroke-miterlimit="10"/></g><rect x="367.84" y="69.44" width="4.55" height="69.55" fill="#fff"/><rect x="367.84" y="69.44" width="4.55" height="69.55" fill="none" stroke="#003a50" stroke-miterlimit="10"/><line x1="370.11" y1="69.45" x2="370.11" y2="139" fill="none" stroke="#003a50" stroke-miterlimit="10"/><rect x="367.84" y="69.44" width="4.55" height="4.4" fill="#fff"/><rect x="367.84" y="69.44" width="4.55" height="4.4" fill="none" stroke="#003a50" stroke-miterlimit="10"/><rect x="367.84" y="134.6" width="4.55" height="4.4" fill="#fff"/><rect x="367.84" y="134.6" width="4.55" height="4.4" fill="none" stroke="#003a50" stroke-miterlimit="10"/><rect x="367.84" y="99.82" width="4.55" height="4.4" fill="#fff"/><rect x="367.84" y="99.82" width="4.55" height="4.4" fill="none" stroke="#003a50" stroke-miterlimit="10"/><g clip-path="url(#clip-path)"><path d="M367.84,104.22H365.3c-17.6,0-28.91,13.6-28.91,30.38h31.45" fill="none" stroke="#003a50" stroke-miterlimit="10"/></g><rect x="367.84" y="227.79" width="4.55" height="71.16" fill="#fff"/><rect x="367.84" y="227.79" width="4.55" height="71.16" fill="none" stroke="#003a50" stroke-miterlimit="10"/><line x1="370.11" y1="227.79" x2="370.11" y2="298.95" fill="none" stroke="#003a50" stroke-miterlimit="10"/><rect x="367.84" y="227.79" width="4.55" height="4.5" fill="#fff"/><rect x="367.84" y="227.79" width="4.55" height="4.5" fill="none" stroke="#003a50" stroke-miterlimit="10"/><rect x="367.84" y="294.45" width="4.55" height="4.49" fill="#fff"/><rect x="367.84" y="294.45" width="4.55" height="4.5" fill="none" stroke="#003a50" stroke-miterlimit="10"/><rect x="367.84" y="258.87" width="4.55" height="4.5" fill="#fff"/><rect x="367.84" y="258.87" width="4.55" height="4.5" fill="none" stroke="#003a50" stroke-miterlimit="10"/><g clip-path="url(#clip-path)"><path d="M367.84,263.37H365.3c-17.6,0-28.91,13.92-28.91,31.09h31.45" fill="none" stroke="#003a50" stroke-miterlimit="10"/></g><rect x="54.26" y="295.63" width="35.55" height="81.92" fill="none" stroke="#003a50" stroke-miterlimit="10"/><g clip-path="url(#clip-path)"><path d="M85.4,312v46.67a13.14,13.14,0,0,1-13.35,12.9h0a13.14,13.14,0,0,1-13.35-12.9V312A13.13,13.13,0,0,1,72,299.12h0A13.13,13.13,0,0,1,85.4,312Z" fill="none" stroke="#003a50" stroke-miterlimit="10"/><path d="M72,313.6A1.87,1.87,0,1,1,74,311.74,1.9,1.9,0,0,1,72,313.6Z" fill="none" stroke="#003a50" stroke-miterlimit="10"/><rect x="53.88" y="410.92" width="89.25" height="35.55" fill="none" stroke="#003a50" stroke-miterlimit="10"/><path d="M127.46,442.47H79.37a13.53,13.53,0,0,1-13.3-13.76v0a13.53,13.53,0,0,1,13.3-13.76h48.09a13.53,13.53,0,0,1,13.29,13.76v0A13.53,13.53,0,0,1,127.46,442.47Z" fill="none" stroke="#003a50" stroke-miterlimit="10"/><path d="M125.16,428.69a1.87,1.87,0,1,1,1.87,1.94A1.91,1.91,0,0,1,125.16,428.69Z" fill="none" stroke="#003a50" stroke-miterlimit="10"/><path d="M120.33,481.33h23.21V463H120.33a9.17,9.17,0,0,0,0,18.34Z" fill="none" stroke="#003a50" stroke-miterlimit="10"/><path d="M130.6,318.26V295.05H112.26v23.21a9.17,9.17,0,1,0,18.34,0Z" fill="none" stroke="#003a50" stroke-miterlimit="10"/></g><line x1="112.26" y1="304.08" x2="130.6" y2="304.08" fill="none" stroke="#003a50" stroke-miterlimit="10"/><g clip-path="url(#clip-path)"><path d="M115.33,268v23.21h18.34V268a9.17,9.17,0,1,0-18.34,0Z" fill="none" stroke="#003a50" stroke-miterlimit="10"/></g><line x1="133.67" y1="282.21" x2="115.33" y2="282.21" fill="none" stroke="#003a50" stroke-miterlimit="10"/><rect x="183.08" y="381.42" width="33.93" height="17.9" fill="none" stroke="#003a50" stroke-miterlimit="10"/><rect x="183.08" y="450.01" width="33.93" height="17.9" fill="none" stroke="#003a50" stroke-miterlimit="10"/><g clip-path="url(#clip-path)"><path d="M70.48,449.5H54.68a2.31,2.31,0,0,0-2.31,2.3v15.28a2.31,2.31,0,0,0,2.31,2.31h15.8a2.3,2.3,0,0,0,2.3-2.31V451.8A2.3,2.3,0,0,0,70.48,449.5Z" fill="none" stroke="#003a50" stroke-miterlimit="10"/><path d="M64.14,459.45A1.56,1.56,0,1,0,62.58,461,1.56,1.56,0,0,0,64.14,459.45Z" fill="none" stroke="#003a50" stroke-miterlimit="10"/><path d="M70.48,471.61H54.68a2.31,2.31,0,0,0-2.31,2.3v15.28a2.32,2.32,0,0,0,2.31,2.31h15.8a2.31,2.31,0,0,0,2.3-2.31V473.91A2.3,2.3,0,0,0,70.48,471.61Z" fill="none" stroke="#003a50" stroke-miterlimit="10"/><path d="M64.14,481.55a1.56,1.56,0,1,0-1.56,1.56A1.55,1.55,0,0,0,64.14,481.55Z" fill="none" stroke="#003a50" stroke-miterlimit="10"/><path d="M100.13,360.59v15.8a2.31,2.31,0,0,0,2.3,2.31h15.28a2.32,2.32,0,0,0,2.31-2.31v-15.8a2.31,2.31,0,0,0-2.31-2.3H102.43A2.3,2.3,0,0,0,100.13,360.59Z" fill="none" stroke="#003a50" stroke-miterlimit="10"/><path d="M110.07,366.93a1.56,1.56,0,1,0,1.56,1.56A1.55,1.55,0,0,0,110.07,366.93Z" fill="none" stroke="#003a50" stroke-miterlimit="10"/><path d="M122.23,360.59v15.8a2.32,2.32,0,0,0,2.31,2.31h15.28a2.32,2.32,0,0,0,2.31-2.31v-15.8a2.31,2.31,0,0,0-2.31-2.3H124.54A2.31,2.31,0,0,0,122.23,360.59Z" fill="none" stroke="#003a50" stroke-miterlimit="10"/><path d="M132.18,366.93a1.56,1.56,0,1,0,1.56,1.56A1.56,1.56,0,0,0,132.18,366.93Z" fill="none" stroke="#003a50" stroke-miterlimit="10"/></g><rect x="89.8" y="356.63" width="61.7" height="20.25" fill="none" stroke="#003a50" stroke-miterlimit="10"/><g clip-path="url(#clip-path)"><rect x="146.45" y="480.38" width="64.38" height="18.8" fill="none" stroke="#003a50" stroke-miterlimit="10"/><path d="M92.47,240.28H76.68a2.3,2.3,0,0,0-2.31,2.3v15.28a2.31,2.31,0,0,0,2.31,2.31H92.47a2.32,2.32,0,0,0,2.31-2.31V242.58A2.31,2.31,0,0,0,92.47,240.28Z" fill="none" stroke="#003a50" stroke-miterlimit="10"/><path d="M86.13,250.22a1.56,1.56,0,1,0-1.56,1.56A1.55,1.55,0,0,0,86.13,250.22Z" fill="none" stroke="#003a50" stroke-miterlimit="10"/></g><rect x="76.18" y="229.96" width="20.25" height="61.7" fill="none" stroke="#003a50" stroke-miterlimit="10"/><rect x="252.7" y="325.86" width="81.75" height="13.62" fill="none" stroke="#003a50" stroke-miterlimit="10"/><polygon points="328.02 333.11 293.65 330.28 259.12 333.11 259.12 335.07 328.02 335.07 328.02 333.11" fill="none" stroke="#003a50" stroke-miterlimit="10"/><rect x="223.92" y="450" width="18.91" height="18.91" fill="none" stroke="#003a50" stroke-miterlimit="10"/><g clip-path="url(#clip-path)"><path d="M238.8,454a7.67,7.67,0,1,0,0,10.84A7.68,7.68,0,0,0,238.8,454Z" fill="none" stroke="#003a50" stroke-miterlimit="10"/><path d="M239.31,454.62c-1.41.14-2.84-.41-4.22,1-2,2,.12,4.19-1.91,6.22s-4.19-.12-6.22,1.91" fill="none" stroke="#003a50" stroke-miterlimit="10"/></g><rect x="248.1" y="374.37" width="85.08" height="94.54" fill="none" stroke="#003a50" stroke-miterlimit="10"/><g clip-path="url(#clip-path)"><path d="M324.85,382.49H256.44a1.74,1.74,0,0,0-1.74,1.74v56.4h71.89v-56.4A1.74,1.74,0,0,0,324.85,382.49Z" fill="none" stroke="#003a50" stroke-miterlimit="10"/><path d="M288.27,443.64H256.14a1.65,1.65,0,0,0-1.65,1.65v15.78a1.65,1.65,0,0,0,1.65,1.65h32.13a1.65,1.65,0,0,0,1.66-1.65V445.29A1.65,1.65,0,0,0,288.27,443.64Z" fill="none" stroke="#003a50" stroke-miterlimit="10"/><rect x="291.37" y="443.64" width="35.44" height="19.08" rx="1.65" fill="none" stroke="#003a50" stroke-miterlimit="10"/></g><line x1="326.8" y1="429.08" x2="254.49" y2="429.08" fill="none" stroke="#003a50" stroke-miterlimit="10"/><rect x="207.32" y="150.28" width="143.31" height="13.62" fill="none" stroke="#003a50" stroke-miterlimit="10"/><polygon points="267.75 156.66 302.11 159.49 336.64 156.66 336.64 154.69 267.75 154.69 267.75 156.66" fill="none" stroke="#003a50" stroke-miterlimit="10"/><rect x="211.73" y="275.83" width="98.82" height="45.5" fill="none" stroke="#003a50" stroke-miterlimit="10"/><g clip-path="url(#clip-path)"><path d="M302.11,313.28v-29a2.1,2.1,0,0,0-2.1-2.1H241.49v33.25H300A2.1,2.1,0,0,0,302.11,313.28Z" fill="none" stroke="#003a50" stroke-miterlimit="10"/></g><rect x="241.49" y="282.13" width="12.04" height="33.26" fill="none" stroke="#003a50" stroke-miterlimit="10"/><g clip-path="url(#clip-path)"><rect x="218.46" y="282.08" width="19.89" height="33.65" rx="2.2" fill="none" stroke="#003a50" stroke-miterlimit="10"/></g><rect x="210.83" y="169.5" width="155.61" height="27.05" fill="none" stroke="#003a50" stroke-miterlimit="10"/><g clip-path="url(#clip-path)"><path d="M224.44,173.34A.8.8,0,0,1,226,173a22.91,22.91,0,0,1,0,20.09.8.8,0,0,1-1.07.36.78.78,0,0,1-.36-1.06,21.3,21.3,0,0,0,0-18.69A.69.69,0,0,1,224.44,173.34Z" fill="none" stroke="#003a50" stroke-miterlimit="10"/><path d="M228.87,173.34a.8.8,0,0,1,1.51-.36,22.91,22.91,0,0,1,0,20.09.8.8,0,0,1-1.43-.7,21.3,21.3,0,0,0,0-18.69A.68.68,0,0,1,228.87,173.34Z" fill="none" stroke="#003a50" stroke-miterlimit="10"/><path d="M233.29,173.34a.8.8,0,0,1,1.52-.36,22.91,22.91,0,0,1,0,20.09.8.8,0,0,1-1.07.36.78.78,0,0,1-.36-1.06,21.3,21.3,0,0,0,0-18.69A.69.69,0,0,1,233.29,173.34Z" fill="none" stroke="#003a50" stroke-miterlimit="10"/><path d="M237.72,173.34a.8.8,0,0,1,1.51-.36,22.91,22.91,0,0,1,0,20.09.8.8,0,0,1-1.43-.7,21.3,21.3,0,0,0,0-18.69A.68.68,0,0,1,237.72,173.34Z" fill="none" stroke="#003a50" stroke-miterlimit="10"/><path d="M242.14,173.34a.8.8,0,0,1,1.52-.36,22.91,22.91,0,0,1,0,20.09.8.8,0,0,1-1.07.36.79.79,0,0,1-.36-1.06,21.3,21.3,0,0,0,0-18.69A.69.69,0,0,1,242.14,173.34Z" fill="none" stroke="#003a50" stroke-miterlimit="10"/><path d="M246.57,173.34a.8.8,0,0,1,.44-.72.82.82,0,0,1,1.08.36,22.91,22.91,0,0,1,0,20.09.8.8,0,0,1-1.07.36.79.79,0,0,1-.37-1.06,21.3,21.3,0,0,0,0-18.69A.68.68,0,0,1,246.57,173.34Z" fill="none" stroke="#003a50" stroke-miterlimit="10"/><path d="M220,173.34a.8.8,0,0,1,1.51-.36,22.91,22.91,0,0,1,0,20.09.8.8,0,0,1-1.07.36.79.79,0,0,1-.36-1.06,21.3,21.3,0,0,0,0-18.69A.68.68,0,0,1,220,173.34Z" fill="none" stroke="#003a50" stroke-miterlimit="10"/><path d="M215.59,173.34a.8.8,0,0,1,.44-.72.82.82,0,0,1,1.08.36,22.91,22.91,0,0,1,0,20.09.8.8,0,0,1-1.07.36.79.79,0,0,1-.37-1.06,21.3,21.3,0,0,0,0-18.69A.68.68,0,0,1,215.59,173.34Z" fill="none" stroke="#003a50" stroke-miterlimit="10"/></g><line x1="210.83" y1="183.03" x2="366.44" y2="183.03" fill="none" stroke="#003a50" stroke-miterlimit="10"/><rect x="76.06" y="194.96" width="75.45" height="35" fill="none" stroke="#003a50" stroke-miterlimit="10"/><g clip-path="url(#clip-path)"><path d="M92.59,214.49a2,2,0,1,0-2-2A2,2,0,0,0,92.59,214.49Z" fill="none" stroke="#003a50" stroke-miterlimit="10"/><path d="M324.07-35.84A2.36,2.36,0,0,1,326.59-38h3.18a2.36,2.36,0,0,1,2.52,2.14V.55H246.67V-35.52a2.35,2.35,0,0,1,2.52-2.14h3.18a2.35,2.35,0,0,1,2.51,2.14V-3.18h69.19Z" fill="none" stroke="#003a50" stroke-miterlimit="10"/></g><rect x="77.11" y="163.88" width="48.9" height="27.05" fill="none" stroke="#003a50" stroke-miterlimit="10"/><g clip-path="url(#clip-path)"><path d="M90.72,167.71a.8.8,0,0,1,1.52-.35,22.91,22.91,0,0,1,0,20.09.81.81,0,0,1-1.07.36.79.79,0,0,1-.36-1.07,21.27,21.27,0,0,0,0-18.68A.73.73,0,0,1,90.72,167.71Z" fill="none" stroke="#003a50" stroke-miterlimit="10"/><path d="M95.15,167.71a.8.8,0,0,1,1.51-.35,22.91,22.91,0,0,1,0,20.09.8.8,0,0,1-1.43-.71,21.27,21.27,0,0,0,0-18.68A.72.72,0,0,1,95.15,167.71Z" fill="none" stroke="#003a50" stroke-miterlimit="10"/><path d="M99.57,167.71a.8.8,0,0,1,1.52-.35,22.91,22.91,0,0,1,0,20.09.81.81,0,0,1-1.07.36.8.8,0,0,1-.36-1.07,21.27,21.27,0,0,0,0-18.68A.73.73,0,0,1,99.57,167.71Z" fill="none" stroke="#003a50" stroke-miterlimit="10"/><path d="M104,167.71a.8.8,0,0,1,1.51-.35,22.91,22.91,0,0,1,0,20.09.8.8,0,0,1-1.43-.71,21.27,21.27,0,0,0,0-18.68A.72.72,0,0,1,104,167.71Z" fill="none" stroke="#003a50" stroke-miterlimit="10"/><path d="M108.42,167.71a.8.8,0,0,1,1.52-.35,22.91,22.91,0,0,1,0,20.09.81.81,0,0,1-1.07.36.8.8,0,0,1-.36-1.07,21.27,21.27,0,0,0,0-18.68A.73.73,0,0,1,108.42,167.71Z" fill="none" stroke="#003a50" stroke-miterlimit="10"/><path d="M112.85,167.71a.78.78,0,0,1,.44-.71.8.8,0,0,1,1.08.36,22.91,22.91,0,0,1,0,20.09.81.81,0,0,1-1.07.36.8.8,0,0,1-.37-1.07,21.27,21.27,0,0,0,0-18.68A.72.72,0,0,1,112.85,167.71Z" fill="none" stroke="#003a50" stroke-miterlimit="10"/><path d="M86.3,167.71a.8.8,0,0,1,1.51-.35,22.91,22.91,0,0,1,0,20.09.8.8,0,0,1-1.07.36.8.8,0,0,1-.36-1.07,21.27,21.27,0,0,0,0-18.68A.72.72,0,0,1,86.3,167.71Z" fill="none" stroke="#003a50" stroke-miterlimit="10"/><path d="M81.87,167.71a.78.78,0,0,1,.44-.71.8.8,0,0,1,1.08.36,22.91,22.91,0,0,1,0,20.09.81.81,0,0,1-1.07.36.8.8,0,0,1-.37-1.07,21.27,21.27,0,0,0,0-18.68A.72.72,0,0,1,81.87,167.71Z" fill="none" stroke="#003a50" stroke-miterlimit="10"/></g><line x1="77.11" y1="177.4" x2="126.01" y2="177.4" fill="none" stroke="#003a50" stroke-miterlimit="10"/><rect x="156.03" y="381.16" width="27.05" height="87.64" fill="none" stroke="#003a50" stroke-miterlimit="10"/><g clip-path="url(#clip-path)"><path d="M159.86,455.19a.79.79,0,0,1-.71-.45.81.81,0,0,1,.36-1.07,22.91,22.91,0,0,1,20.09,0,.8.8,0,0,1,.36,1.07.79.79,0,0,1-1.06.36,21.3,21.3,0,0,0-18.69,0A.73.73,0,0,1,159.86,455.19Z" fill="none" stroke="#003a50" stroke-miterlimit="10"/><path d="M159.86,450.76a.78.78,0,0,1-.71-.44.82.82,0,0,1,.36-1.08,22.91,22.91,0,0,1,20.09,0,.8.8,0,0,1,.36,1.07.79.79,0,0,1-1.06.37,21.3,21.3,0,0,0-18.69,0A.72.72,0,0,1,159.86,450.76Z" fill="none" stroke="#003a50" stroke-miterlimit="10"/><path d="M159.86,446.34a.79.79,0,0,1-.71-.45.81.81,0,0,1,.36-1.07,22.91,22.91,0,0,1,20.09,0,.8.8,0,0,1,.36,1.07.79.79,0,0,1-1.06.36,21.3,21.3,0,0,0-18.69,0A.73.73,0,0,1,159.86,446.34Z" fill="none" stroke="#003a50" stroke-miterlimit="10"/><path d="M159.86,441.91a.78.78,0,0,1-.71-.44.82.82,0,0,1,.36-1.08,22.91,22.91,0,0,1,20.09,0,.8.8,0,0,1,.36,1.07.79.79,0,0,1-1.06.37,21.3,21.3,0,0,0-18.69,0A.72.72,0,0,1,159.86,441.91Z" fill="none" stroke="#003a50" stroke-miterlimit="10"/><path d="M159.86,437.48a.78.78,0,0,1-.71-.44.8.8,0,0,1,.36-1.07,22.91,22.91,0,0,1,20.09,0A.8.8,0,0,1,180,437a.79.79,0,0,1-1.06.36,21.3,21.3,0,0,0-18.69,0A.72.72,0,0,1,159.86,437.48Z" fill="none" stroke="#003a50" stroke-miterlimit="10"/><path d="M159.86,433.06a.79.79,0,0,1-.71-.45.81.81,0,0,1,.36-1.07,22.91,22.91,0,0,1,20.09,0,.8.8,0,0,1,.36,1.07.78.78,0,0,1-1.06.36,21.3,21.3,0,0,0-18.69,0A.73.73,0,0,1,159.86,433.06Z" fill="none" stroke="#003a50" stroke-miterlimit="10"/><path d="M159.86,459.61a.78.78,0,0,1-.71-.44.8.8,0,0,1,.36-1.07,22.91,22.91,0,0,1,20.09,0,.8.8,0,0,1-.7,1.43,21.3,21.3,0,0,0-18.69,0A.72.72,0,0,1,159.86,459.61Z" fill="none" stroke="#003a50" stroke-miterlimit="10"/><path d="M159.86,464a.79.79,0,0,1-.71-.45.81.81,0,0,1,.36-1.07,22.91,22.91,0,0,1,20.09,0,.8.8,0,0,1,.36,1.07.78.78,0,0,1-1.06.36,21.3,21.3,0,0,0-18.69,0A.73.73,0,0,1,159.86,464Z" fill="none" stroke="#003a50" stroke-miterlimit="10"/></g><line x1="169.55" y1="468.8" x2="169.55" y2="381.16" fill="none" stroke="#003a50" stroke-miterlimit="10"/><g clip-path="url(#clip-path)"><path d="M138.9,170.77a3.32,3.32,0,0,0,3.07-2.05h1.89l5,3-2.26,3.69L144,174v11.59H133.11V174l-2.6,1.43-2.27-3.69,5-3h2.52A3.37,3.37,0,0,0,138.9,170.77Z" fill="none" stroke="#003a50" stroke-miterlimit="10"/></g><rect x="126.01" y="163.88" width="25.08" height="26.51" fill="none" stroke="#003a50" stroke-miterlimit="10"/><g clip-path="url(#clip-path)"><path d="M258.12,110.73a1,1,0,0,0-.71,1.14,10.41,10.41,0,1,1-20.29,4.65.95.95,0,1,0-1.85.43,12.31,12.31,0,0,0,24-5.51A1,1,0,0,0,258.12,110.73Z" fill="none" stroke="#003a50" stroke-miterlimit="10"/><path d="M216.47,118.07a.94.94,0,0,0-1.32-.25,10.41,10.41,0,0,1-11.72-17.2,1,1,0,0,0,.24-1.32.94.94,0,0,0-1.32-.25,12.31,12.31,0,1,0,13.86,20.34A1,1,0,0,0,216.47,118.07Z" fill="none" stroke="#003a50" stroke-miterlimit="10"/><path d="M214.58,82.28a1,1,0,0,0,1-.9,10.41,10.41,0,1,1,20.78,1.24,1,1,0,0,0,1.9.11,12.31,12.31,0,1,0-24.58-1.46A1,1,0,0,0,214.58,82.28Z" fill="none" stroke="#003a50" stroke-miterlimit="10"/><path d="M247.4,123.28a9.58,9.58,0,0,0,9.06-11.69l-1.54-6.71a2.66,2.66,0,0,0-3.2-2l-10.15,2.32a17.86,17.86,0,0,1-4.53,7.13l.73,3.17A9.81,9.81,0,0,0,247.4,123.28Z" fill="none" stroke="#003a50" stroke-miterlimit="10"/><path d="M215.09,116.84l1.75-1.21a18,18,0,0,1-10.3-16.09l-1.9,1.29a9.8,9.8,0,0,0-3.75,11.81A9.59,9.59,0,0,0,215.09,116.84Z" fill="none" stroke="#003a50" stroke-miterlimit="10"/><path d="M235.35,84.92l.09-1.48a9.78,9.78,0,0,0-7-10.18,9.55,9.55,0,0,0-12,8.67l-.1,1.39a18,18,0,0,1,12.57-1.45A17.68,17.68,0,0,1,235.35,84.92Z" fill="none" stroke="#003a50" stroke-miterlimit="10"/><path d="M237,112.31a17.88,17.88,0,0,0,4.54-7.13,12.38,12.38,0,0,0,.45-1.5,18,18,0,0,0-6.68-18.76,17.68,17.68,0,0,0-6.46-3A18,18,0,0,0,207.05,95a16.81,16.81,0,0,0-.51,4.53,18,18,0,0,0,10.3,16.1,17.33,17.33,0,0,0,3.38,1.2A18,18,0,0,0,237,112.31Z" fill="none" stroke="#003a50" stroke-miterlimit="10"/><path d="M302.16,48.19v-31H267.6V49.86h32.88A1.68,1.68,0,0,0,302.16,48.19Z" fill="none" stroke="#003a50" stroke-miterlimit="10"/><path d="M336.79,48.36V17.21H302.23V48.36a1.5,1.5,0,0,0,1.5,1.5h31.56A1.5,1.5,0,0,0,336.79,48.36Z" fill="none" stroke="#003a50" stroke-miterlimit="10"/><path d="M267.6,49.86A2.35,2.35,0,0,1,265.09,52H261.9a2.34,2.34,0,0,1-2.51-2.13V13.46H345V49.54a2.35,2.35,0,0,1-2.51,2.14H339.3a2.35,2.35,0,0,1-2.51-2.14V17.2H267.6Z" fill="none" stroke="#003a50" stroke-miterlimit="10"/></g><rect x="267.6" y="17.2" width="69.19" height="6.98" fill="none" stroke="#003a50" stroke-miterlimit="10"/><rect x="54.42" y="50.95" width="26.69" height="28.24" fill="none" stroke="#003a50" stroke-miterlimit="10"/><g clip-path="url(#clip-path)"><path d="M65,64.54V55.87h6.75v8.67a2.78,2.78,0,0,1-2.77,2.78h-1.2A2.79,2.79,0,0,1,65,64.54Z" fill="none" stroke="#003a50" stroke-miterlimit="10"/></g><polyline points="71.06 75.6 68.34 75.6 65.61 75.6" fill="none" stroke="#003a50" stroke-miterlimit="10"/><line x1="68.34" y1="67.32" x2="68.34" y2="75.6" fill="none" stroke="#003a50" stroke-miterlimit="10"/><rect x="135.28" y="13.48" width="27.5" height="28.24" fill="none" stroke="#003a50" stroke-miterlimit="10"/><g clip-path="url(#clip-path)"><circle cx="142.75" cy="34.12" r="3.75" transform="matrix(0.96, -0.29, 0.29, 0.96, -3.76, 42.83)" fill="none" stroke="#003a50" stroke-miterlimit="10"/><circle cx="155.27" cy="34.12" r="3.75" transform="matrix(0.96, -0.29, 0.29, 0.96, -3.22, 46.46)" fill="none" stroke="#003a50" stroke-miterlimit="10"/><circle cx="142.75" cy="21.92" r="3.75" transform="matrix(0.96, -0.29, 0.29, 0.96, -0.23, 42.31)" fill="none" stroke="#003a50" stroke-miterlimit="10"/><circle cx="155.27" cy="21.92" r="3.75" transform="matrix(0.96, -0.29, 0.29, 0.96, 0.31, 45.93)" fill="none" stroke="#003a50" stroke-miterlimit="10"/></g><polyline points="106.77 18.15 102.09 18.15 97.43 18.15" fill="none" stroke="#003a50" stroke-miterlimit="10"/><line x1="102.08" y1="27.51" x2="102.08" y2="18.15" fill="none" stroke="#003a50" stroke-miterlimit="10"/><g clip-path="url(#clip-path)"><rect x="91.78" y="22.15" width="20.66" height="14.9" rx="3.24" fill="none" stroke="#003a50" stroke-miterlimit="10"/><path d="M102.08,28.67A1.67,1.67,0,1,0,100.41,27,1.66,1.66,0,0,0,102.08,28.67Z" fill="none" stroke="#003a50" stroke-miterlimit="10"/></g><rect x="54.36" y="79.18" width="26.74" height="26.74" fill="none" stroke="#003a50" stroke-miterlimit="10"/><line x1="67.74" y1="100.4" x2="67.74" y2="84.7" fill="none" stroke="#003a50" stroke-miterlimit="10"/><line x1="59.89" y1="92.55" x2="75.58" y2="92.55" fill="none" stroke="#003a50" stroke-miterlimit="10"/><line x1="62.19" y1="98.1" x2="73.28" y2="87.01" fill="none" stroke="#003a50" stroke-miterlimit="10"/><line x1="62.19" y1="87" x2="73.28" y2="98.1" fill="none" stroke="#003a50" stroke-miterlimit="10"/><rect x="53.98" y="6.93" width="27.09" height="44.02" fill="none" stroke="#003a50" stroke-miterlimit="10"/><rect x="81.07" y="13.48" width="81.94" height="28.24" fill="none" stroke="#003a50" stroke-miterlimit="10"/><g clip-path="url(#clip-path)"><rect x="144.8" y="-26.95" width="26.69" height="28.24" fill="none" stroke="#003a50" stroke-miterlimit="10"/><rect x="181.66" y="-26.95" width="27.5" height="28.24" fill="none" stroke="#003a50" stroke-miterlimit="10"/><rect x="117.68" y="-63.24" width="27.09" height="64.53" fill="none" stroke="#003a50" stroke-miterlimit="10"/><rect x="144.8" y="-26.95" width="68.14" height="28.24" fill="none" stroke="#003a50" stroke-miterlimit="10"/><path d="M356.72,257.29h0a1,1,0,0,0,1-1V203.58a1,1,0,0,0-1.94,0v52.74A1,1,0,0,0,356.72,257.29Z" fill="none" stroke="#003a50" stroke-miterlimit="10"/><path d="M335.73,221.48a10.23,10.23,0,0,0-11,16.19.79.79,0,1,0,1.23-1,8.63,8.63,0,0,1,9.8-13.5Z" fill="none" stroke="#003a50" stroke-miterlimit="10"/><rect x="335.73" y="200.85" width="23.56" height="58.2" rx="2.29" fill="none" stroke="#003a50" stroke-miterlimit="10"/><path d="M346.63,249.58a3.81,3.81,0,1,1,0,5.4A3.81,3.81,0,0,1,346.63,249.58Z" fill="none" stroke="#003a50" stroke-miterlimit="10"/><path d="M346.37,249.87c.7.07,1.41-.2,2.1.48,1,1-.06,2.09.95,3.1s2.08-.06,3.1,1" fill="none" stroke="#003a50" stroke-miterlimit="10"/><path d="M335.73,224.74a7.36,7.36,0,1,0,0,13.56Z" fill="none" stroke="#003a50" stroke-miterlimit="10"/><rect x="210.97" y="481.33" width="148.54" height="17.85" fill="none" stroke="#003a50" stroke-miterlimit="10"/><path d="M155,264.66h2.24c15.59,0,28.22-13.64,28.22-30.47H155" fill="none" stroke="#003a50" stroke-miterlimit="10" stroke-width="1.6"/><path d="M155,321.87h2.24c15.59,0,28.22,13.64,28.22,30.46H155" fill="none" stroke="#003a50" stroke-miterlimit="10" stroke-width="1.6"/><path d="M209.71,236.25h2.68c18.64,0,33.74-16.3,33.74-36.42H209.71" fill="none" stroke="#003a50" stroke-miterlimit="10" stroke-width="1.6"/><path d="M163,273v2.68c0,18.64,16.31,33.74,36.42,33.74V273" fill="none" stroke="#003a50" stroke-miterlimit="10" stroke-width="1.6"/><path d="M43.63,115.23H40.55c-21.41,0-38.76,18.73-38.76,41.84H43.63" fill="none" stroke="#003a50" stroke-miterlimit="10" stroke-width="1.6"/><path d="M-31.21,145.82h2.81c19.51,0,35.33,17.07,35.33,38.14H-31.21" fill="none" stroke="#003a50" stroke-miterlimit="10" stroke-width="1.6"/><path d="M-15,377.56v-3.08c0-21.42,18.73-38.77,41.85-38.77v41.85" fill="none" stroke="#003a50" stroke-miterlimit="10" stroke-width="1.6"/></g><line x1="226.19" y1="445.74" x2="226.19" y2="411.02" fill="none" stroke="#003a50" stroke-miterlimit="10" stroke-width="1.6"/><rect x="142.59" y="469.89" width="5.75" height="11.86" fill="#003a50"/><rect x="216.26" y="376.47" width="5.75" height="25.92" fill="#003a50"/><rect x="206.76" y="235.33" width="5.75" height="91.22" fill="#003a50"/><rect x="150.76" y="351.58" width="5.75" height="28.57" fill="#003a50"/><rect x="150.76" y="263.77" width="5.75" height="58.94" fill="#003a50"/><rect x="150.76" y="163.33" width="5.75" height="71.67" fill="#003a50"/><rect x="206.83" y="163.33" width="5.75" height="37.32" fill="#003a50"/><rect x="71.09" y="163.33" width="5.75" height="129.91" fill="#003a50"/><rect x="216.26" y="434.31" width="5.75" height="40.82" fill="#003a50"/><rect x="111.97" y="380.14" width="5.75" height="10.19" fill="#003a50"/><rect x="142.56" y="405.66" width="4.69" height="5.75" fill="#003a50"/><rect x="131.26" y="376.47" width="90.75" height="5.75" fill="#003a50"/><rect x="206.76" y="320.7" width="163.75" height="5.75" fill="#003a50"/><rect x="153.63" y="269.3" width="10.13" height="5.75" fill="#003a50"/><rect x="53.67" y="290.36" width="99.05" height="5.75" fill="#003a50"/><rect x="73.38" y="189.88" width="79.34" height="5.75" fill="#003a50"/><rect x="47.72" y="104.46" width="108.79" height="5.75" fill="#003a50"/><rect x="67" y="9.21" width="5.92" height="22.78" fill="#003a50"/><rect x="50.13" y="26.08" width="22.78" height="5.92" fill="#003a50"/><rect x="112.75" y="0.14" width="5.92" height="0.74" fill="#003a50"/><rect x="94.5" y="0.14" width="5.92" height="5" fill="#003a50"/><rect x="206.83" y="163.33" width="166.42" height="5.75" fill="#003a50"/><rect x="48.84" y="163.33" width="28" height="5.75" fill="#003a50"/><rect x="45.97" y="182.16" width="28" height="5.75" fill="#003a50"/><rect x="45.97" y="258.37" width="28" height="5.75" fill="#003a50"/><rect x="198.55" y="269.3" width="10.13" height="5.75" fill="#003a50"/><rect x="360.01" y="0.14" width="40" height="68.82" fill="#003a50"/><g clip-path="url(#clip-path)"><rect x="360.01" y="-18.87" width="40" height="87.84" fill="none" stroke="#003a50" stroke-miterlimit="10" stroke-width="2.09"/></g><rect x="360.01" y="139.46" width="31.83" height="87.84" fill="#003a50"/><rect x="360.01" y="139.46" width="31.83" height="87.84" fill="none" stroke="#003a50" stroke-miterlimit="10" stroke-width="2.09"/><rect x="368.18" y="204.66" width="31.83" height="22.63" fill="#003a50"/><g clip-path="url(#clip-path)"><rect x="368.18" y="204.66" width="31.83" height="22.63" fill="none" stroke="#003a50" stroke-miterlimit="10" stroke-width="2.09"/></g><rect x="360.01" y="456.71" width="31.83" height="25.04" fill="#003a50"/><g clip-path="url(#clip-path)"><rect x="360.01" y="456.71" width="31.83" height="87.84" fill="none" stroke="#003a50" stroke-miterlimit="10" stroke-width="2.09"/></g><polygon points="360.01 299.46 360.01 387.3 400.01 387.3 390.51 299.46 360.01 299.46" fill="#003a50"/><g clip-path="url(#clip-path)"><polygon points="360.01 299.46 360.01 387.3 400.01 387.3 390.51 299.46 360.01 299.46" fill="none" stroke="#003a50" stroke-miterlimit="10" stroke-width="2.09"/></g><polygon points="40.68 376.47 40.68 390.33 142.56 390.33 142.56 390.39 156.51 390.39 156.51 376.47 40.68 376.47" fill="#003a50"/><rect x="49.96" y="0.14" width="325.96" height="13.75" fill="#003a50"/><rect x="142.59" y="468.16" width="222.67" height="13.58" fill="#003a50"/><rect x="40.76" y="156.27" width="13.92" height="234.06" fill="#003a50"/><rect x="40.76" y="0.14" width="13.92" height="115.89" fill="#003a50"/><rect x="142.59" y="376.47" width="13.92" height="105.28" fill="#003a50"/><g clip-path="url(#clip-path)"><path d="M278.55,353l-2.49,2v-2.24l2.73-2.27h1.87v11.91h-2.11Z" fill="#003a50"/><path d="M293.05,362.37h-9.94v-1.56a2.85,2.85,0,0,1,.58-1.75,4.09,4.09,0,0,1,1.45-1.19c.5-.26,1.12-.55,1.87-.87s1.32-.55,1.87-.77a4,4,0,0,0,1.45-.91,1.81,1.81,0,0,0,.57-1.31c0-1.25-.89-1.88-2.66-1.88s-2.68.72-2.68,2.16v.4h-2.11v-.4a3.61,3.61,0,0,1,1.27-3,5.4,5.4,0,0,1,3.51-1,5.65,5.65,0,0,1,3.51,1A3.25,3.25,0,0,1,293,354a3.17,3.17,0,0,1-.55,1.84,4.28,4.28,0,0,1-1.41,1.3,16.56,16.56,0,0,1-1.83.93q-.95.42-1.83.75a5.26,5.26,0,0,0-1.4.75,1.22,1.22,0,0,0-.57.95h7.63Z" fill="#003a50"/><path d="M295.15,362.24a1,1,0,0,1-.33-.81,1,1,0,0,1,.33-.81,1.44,1.44,0,0,1,1.73,0,1,1,0,0,1,.33.81,1,1,0,0,1-.33.81,1.44,1.44,0,0,1-1.73,0Z" fill="#003a50"/><path d="M308.77,353.81h-2.21s0-.06,0-.17a2.53,2.53,0,0,0-.22-.44,2.28,2.28,0,0,0-.38-.5,2,2,0,0,0-.71-.41,3,3,0,0,0-1-.16,2.49,2.49,0,0,0-2.15,1,4.39,4.39,0,0,0-.77,2.68h.06a1.8,1.8,0,0,1,.44-.43,4.31,4.31,0,0,1,.61-.37,4.87,4.87,0,0,1,.95-.3,5.49,5.49,0,0,1,1.22-.13,5.05,5.05,0,0,1,3.37,1.11,3.51,3.51,0,0,1,1.3,2.8,3.57,3.57,0,0,1-1.36,2.91,5.49,5.49,0,0,1-3.6,1.1A4.81,4.81,0,0,1,300.4,361a6.36,6.36,0,0,1-1.32-4.27v-.41A6.85,6.85,0,0,1,300.4,352a4.5,4.5,0,0,1,3.8-1.71,5.66,5.66,0,0,1,2.13.38,3.75,3.75,0,0,1,1.43.94A3.44,3.44,0,0,1,308.77,353.81ZM306.26,357a3.65,3.65,0,0,0-3.95,0,1.88,1.88,0,0,0-.78,1.58,1.85,1.85,0,0,0,.77,1.57,3.21,3.21,0,0,0,2,.59,3.26,3.26,0,0,0,2-.59,2,2,0,0,0,0-3.15Z" fill="#003a50"/><path d="M281.54,240.88l-2.48,2v-2.25l2.73-2.26h1.86v11.9h-2.11Z" fill="#003a50"/><path d="M288.17,240.88l-2.49,2v-2.25l2.74-2.26h1.86v11.9h-2.11Z" fill="#003a50"/><path d="M292.8,250.1a1,1,0,0,1-.32-.8,1,1,0,0,1,.32-.81,1.41,1.41,0,0,1,1.74,0,1.07,1.07,0,0,1,.32.81,1,1,0,0,1-.32.8,1.41,1.41,0,0,1-1.74,0Z" fill="#003a50"/><path d="M305.13,250.23H303v-2.64h-7v-1.85l6.29-7.41h2.79v7.41h1.6v1.85h-1.6ZM303,245.74v-5.32H303l-4.48,5.27v.05Z" fill="#003a50"/><path d="M202.4,428.72h-9.93v-1.57a2.76,2.76,0,0,1,.58-1.74,3.87,3.87,0,0,1,1.44-1.19c.5-.26,1.12-.55,1.87-.87s1.33-.55,1.88-.77a4.22,4.22,0,0,0,1.44-.91,1.8,1.8,0,0,0,.58-1.31c0-1.26-.89-1.88-2.67-1.88s-2.67.72-2.67,2.16v.4h-2.11v-.4a3.62,3.62,0,0,1,1.26-3,5.38,5.38,0,0,1,3.51-1,5.73,5.73,0,0,1,3.52,1,3.31,3.31,0,0,1,1.27,2.75,3.17,3.17,0,0,1-.56,1.84,4.26,4.26,0,0,1-1.4,1.3c-.6.34-1.21.65-1.84.93s-1.23.53-1.83.75a5.26,5.26,0,0,0-1.4.75,1.2,1.2,0,0,0-.56.95h7.62Z" fill="#003a50"/><path d="M204.5,428.58a1,1,0,0,1-.32-.8,1.07,1.07,0,0,1,.32-.81,1.41,1.41,0,0,1,1.74,0,1.07,1.07,0,0,1,.32.81,1,1,0,0,1-.32.8,1.41,1.41,0,0,1-1.74,0Z" fill="#003a50"/><path d="M218.12,420.16h-2.21s0-.06,0-.17a1.85,1.85,0,0,0-.21-.44,2.4,2.4,0,0,0-.39-.5,1.77,1.77,0,0,0-.71-.41,3,3,0,0,0-1-.16,2.51,2.51,0,0,0-2.15,1,4.39,4.39,0,0,0-.76,2.68h.06a1.49,1.49,0,0,1,.44-.43,3.47,3.47,0,0,1,.6-.37,4,4,0,0,1,.95-.3,5.49,5.49,0,0,1,1.22-.13,5,5,0,0,1,3.37,1.11,3.51,3.51,0,0,1,1.3,2.8,3.57,3.57,0,0,1-1.36,2.91,5.55,5.55,0,0,1-3.6,1.1,4.81,4.81,0,0,1-3.87-1.54,6.36,6.36,0,0,1-1.32-4.27v-.41a6.85,6.85,0,0,1,1.32-4.31,4.52,4.52,0,0,1,3.8-1.71,5.66,5.66,0,0,1,2.13.38,3.82,3.82,0,0,1,1.44.93A3.45,3.45,0,0,1,218.12,420.16Zm-2.51,3.15a3.65,3.65,0,0,0-4,0,2,2,0,0,0,0,3.15,3.63,3.63,0,0,0,4,0,2,2,0,0,0,0-3.15Z" fill="#003a50"/><path d="M89,478.18H83.14v-1.84H92v1.84l-4.53,2.65v.06h1.28a3.87,3.87,0,0,1,2.79,1,3.49,3.49,0,0,1,1.06,2.66,3.35,3.35,0,0,1-1.33,2.83,7,7,0,0,1-7.24,0,3.36,3.36,0,0,1-1.33-2.86v-.32h2.11v.32c0,1.36.94,2,2.84,2s2.84-.67,2.84-2-.95-2-2.84-2H84.38v-1.67L89,478.25Z" fill="#003a50"/><path d="M108.32,479.69h-2.21s0-.06,0-.17a2.36,2.36,0,0,0-.21-.44,2.4,2.4,0,0,0-.39-.5,1.73,1.73,0,0,0-.71-.41,3,3,0,0,0-1-.16,2.51,2.51,0,0,0-2.15,1,4.44,4.44,0,0,0-.77,2.69h.06a1.8,1.8,0,0,1,.44-.43,3.55,3.55,0,0,1,.61-.37,3.81,3.81,0,0,1,1-.3,5.49,5.49,0,0,1,1.22-.13,5.05,5.05,0,0,1,3.37,1.11,3.51,3.51,0,0,1,1.3,2.8,3.58,3.58,0,0,1-1.36,2.91,5.55,5.55,0,0,1-3.6,1.1,4.81,4.81,0,0,1-3.87-1.54,6.38,6.38,0,0,1-1.32-4.27v-.41a6.85,6.85,0,0,1,1.32-4.31,4.5,4.5,0,0,1,3.8-1.71,5.66,5.66,0,0,1,2.13.37,4,4,0,0,1,1.43.94A3.46,3.46,0,0,1,108.32,479.69Zm-2.51,3.15a3.65,3.65,0,0,0-4,0,2,2,0,0,0,0,3.15,3.21,3.21,0,0,0,2,.59,3.26,3.26,0,0,0,2-.59,1.89,1.89,0,0,0,.77-1.57A1.86,1.86,0,0,0,105.81,482.84Z" fill="#003a50"/><path d="M118.35,337h-5.82v-1.84h8.86V337l-4.53,2.65v.06h1.28a3.87,3.87,0,0,1,2.79,1,3.52,3.52,0,0,1,1.06,2.66,3.35,3.35,0,0,1-1.33,2.83,7,7,0,0,1-7.24,0,3.36,3.36,0,0,1-1.33-2.86V343h2.11v.32c0,1.36.94,2,2.84,2s2.84-.67,2.84-2-.95-2-2.84-2h-3.27v-1.67l4.58-2.68Z" fill="#003a50"/><path d="M124.09,346.91a1,1,0,0,1-.33-.8,1,1,0,0,1,.33-.81,1.4,1.4,0,0,1,1.73,0,1,1,0,0,1,.33.81,1,1,0,0,1-.33.8,1.4,1.4,0,0,1-1.73,0Z" fill="#003a50"/><path d="M128.22,343.7h2.21s0,.07,0,.18a3.22,3.22,0,0,0,.23.43,2.37,2.37,0,0,0,.41.48,2.23,2.23,0,0,0,.75.42,3.23,3.23,0,0,0,1.06.17,2.67,2.67,0,0,0,2.24-1.07,4.36,4.36,0,0,0,.8-2.71h-.05a2.1,2.1,0,0,1-.45.47,2.92,2.92,0,0,1-.59.4,3.88,3.88,0,0,1-1,.32,5.59,5.59,0,0,1-1.23.14,5,5,0,0,1-3.36-1.13,3.74,3.74,0,0,1,0-5.73A5.55,5.55,0,0,1,133,335a4.81,4.81,0,0,1,3.87,1.54,6.4,6.4,0,0,1,1.32,4.27v.41a6.64,6.64,0,0,1-1.37,4.31,4.69,4.69,0,0,1-3.88,1.71,5.91,5.91,0,0,1-2.17-.37,3.86,3.86,0,0,1-1.48-.95A3.33,3.33,0,0,1,128.22,343.7Zm2.78-3.17a3.58,3.58,0,0,0,3.94,0,1.85,1.85,0,0,0,.78-1.57,1.89,1.89,0,0,0-.77-1.57,3.21,3.21,0,0,0-2-.58,3.17,3.17,0,0,0-2,.58,2,2,0,0,0,0,3.14Z" fill="#003a50"/><path d="M118.35,241.73h-5.82v-1.84h8.86v1.84l-4.53,2.65v.07h1.28a3.9,3.9,0,0,1,2.79,1,3.53,3.53,0,0,1,1.06,2.67,3.35,3.35,0,0,1-1.33,2.82,6.93,6.93,0,0,1-7.24,0,3.35,3.35,0,0,1-1.33-2.85v-.33h2.11v.33c0,1.36.94,2,2.84,2s2.84-.67,2.84-2-.95-2-2.84-2h-3.27v-1.67l4.58-2.68Z" fill="#003a50"/><path d="M124.09,251.67a1.15,1.15,0,0,1,0-1.61,1.4,1.4,0,0,1,1.73,0,1.15,1.15,0,0,1,0,1.61,1.4,1.4,0,0,1-1.73,0Z" fill="#003a50"/><path d="M137.71,243.25H135.5s0-.07,0-.18a3.24,3.24,0,0,0-.21-.44,2.69,2.69,0,0,0-.39-.5,2,2,0,0,0-.71-.41,3,3,0,0,0-1-.16,2.49,2.49,0,0,0-2.15,1,4.41,4.41,0,0,0-.77,2.68h.06a1.8,1.8,0,0,1,.44-.43,4.31,4.31,0,0,1,.61-.37,4.87,4.87,0,0,1,.95-.3,6.16,6.16,0,0,1,1.22-.13,5,5,0,0,1,3.37,1.12,3.48,3.48,0,0,1,1.3,2.79,3.57,3.57,0,0,1-1.36,2.91,5.49,5.49,0,0,1-3.6,1.11,4.81,4.81,0,0,1-3.87-1.55,6.36,6.36,0,0,1-1.32-4.27v-.4a6.88,6.88,0,0,1,1.32-4.32,4.5,4.5,0,0,1,3.8-1.71,5.66,5.66,0,0,1,2.13.38,3.75,3.75,0,0,1,1.43.94A3.44,3.44,0,0,1,137.71,243.25Zm-2.51,3.14a3.65,3.65,0,0,0-3.95,0,1.88,1.88,0,0,0-.78,1.58,1.85,1.85,0,0,0,.77,1.57,3.21,3.21,0,0,0,2,.59,3.26,3.26,0,0,0,2-.59,2,2,0,0,0,0-3.15Z" fill="#003a50"/><path d="M110.76,67.32l-2.48,2V67L111,64.76h1.86V76.67h-2.11Z" fill="#003a50"/><path d="M115.62,73.32h2.21s0,.07,0,.18a2.71,2.71,0,0,0,.23.43,2.37,2.37,0,0,0,.41.49,2.2,2.2,0,0,0,.75.41,3.21,3.21,0,0,0,1,.17,2.68,2.68,0,0,0,2.24-1.06,4.34,4.34,0,0,0,.81-2.71h-.06a2,2,0,0,1-.44.46,2.42,2.42,0,0,1-.6.4,3.58,3.58,0,0,1-1,.33,6.08,6.08,0,0,1-1.22.13,5,5,0,0,1-3.37-1.13,3.73,3.73,0,0,1,0-5.72,5.54,5.54,0,0,1,3.61-1.11,4.81,4.81,0,0,1,3.87,1.55,6.38,6.38,0,0,1,1.32,4.27v.4a6.68,6.68,0,0,1-1.37,4.31,4.69,4.69,0,0,1-3.89,1.71,5.9,5.9,0,0,1-2.16-.37,3.68,3.68,0,0,1-1.48-.95A3.31,3.31,0,0,1,115.62,73.32Zm2.77-3.16a3.6,3.6,0,0,0,4,0,1.86,1.86,0,0,0,.78-1.57,1.89,1.89,0,0,0-.77-1.58,3.22,3.22,0,0,0-2-.58,3.14,3.14,0,0,0-2,.58,1.87,1.87,0,0,0-.79,1.58A1.89,1.89,0,0,0,118.39,70.16Z" fill="#003a50"/><path d="M127.75,76.54a1,1,0,0,1-.32-.81,1.07,1.07,0,0,1,.32-.81,1.25,1.25,0,0,1,.88-.3,1.22,1.22,0,0,1,.86.3,1,1,0,0,1,.32.81,1,1,0,0,1-.32.81,1.26,1.26,0,0,1-.86.29A1.3,1.3,0,0,1,127.75,76.54Z" fill="#003a50"/><path d="M137,68.69a5,5,0,0,1,3.34,1.06,4.17,4.17,0,0,1,0,6,5.37,5.37,0,0,1-3.54,1.08,5.75,5.75,0,0,1-3.56-1,3.15,3.15,0,0,1-1.29-2.68h2.11a1.53,1.53,0,0,0,.7,1.33,3.53,3.53,0,0,0,2,.49,3.17,3.17,0,0,0,2-.57,2.06,2.06,0,0,0,.7-1.69,2,2,0,0,0-.73-1.7,3.26,3.26,0,0,0-2.08-.58,3.54,3.54,0,0,0-1.91.41,1.84,1.84,0,0,0-.7.64l0,.13h-2.11V64.76h8.88V66.6h-6.77v3h0a1.91,1.91,0,0,1,.4-.31A3.82,3.82,0,0,1,135,69,5.69,5.69,0,0,1,137,68.69Z" fill="#003a50"/><path d="M89.49,133.24H83.67V131.4h8.86v1.84L88,135.89V136h1.28a3.86,3.86,0,0,1,2.79,1,3.52,3.52,0,0,1,1.05,2.66,3.35,3.35,0,0,1-1.32,2.83,7,7,0,0,1-7.25,0,3.38,3.38,0,0,1-1.32-2.86v-.32h2.1v.32c0,1.36,1,2,2.84,2s2.84-.67,2.84-2-.94-2-2.84-2H84.91V136l4.58-2.68Z" fill="#003a50"/><path d="M95.23,143.17a1,1,0,0,1-.33-.8,1,1,0,0,1,.33-.81,1.4,1.4,0,0,1,1.73,0,1,1,0,0,1,.32.81,1,1,0,0,1-.32.8,1.4,1.4,0,0,1-1.73,0Z" fill="#003a50"/><path d="M102.33,143.31H100l5.42-10H98.47V131.4h9.29v1.87Z" fill="#003a50"/><path d="M179.93,196.57H170V195a2.74,2.74,0,0,1,.58-1.74,4,4,0,0,1,1.45-1.2c.49-.25,1.12-.54,1.86-.86s1.33-.56,1.88-.77a4.23,4.23,0,0,0,1.45-.92,1.78,1.78,0,0,0,.57-1.3q0-1.89-2.67-1.89t-2.67,2.16v.41h-2.11v-.41a3.62,3.62,0,0,1,1.26-3,5.39,5.39,0,0,1,3.52-1,5.65,5.65,0,0,1,3.51,1,3.29,3.29,0,0,1,1.27,2.75,3.17,3.17,0,0,1-.56,1.84,4.26,4.26,0,0,1-1.4,1.3c-.6.34-1.21.65-1.84.93s-1.23.52-1.82.75a5.46,5.46,0,0,0-1.41.74,1.26,1.26,0,0,0-.56,1h7.62Z" fill="#003a50"/><path d="M182,196.44a1,1,0,0,1-.32-.8,1.07,1.07,0,0,1,.32-.81,1.25,1.25,0,0,1,.88-.3,1.22,1.22,0,0,1,.86.3,1.07,1.07,0,0,1,.32.81,1,1,0,0,1-.32.8,1.22,1.22,0,0,1-.86.3A1.25,1.25,0,0,1,182,196.44Z" fill="#003a50"/><path d="M195.65,188h-2.21s0-.06,0-.17a2.53,2.53,0,0,0-.22-.44,2.4,2.4,0,0,0-.39-.5,1.67,1.67,0,0,0-.71-.41,2.93,2.93,0,0,0-1-.17,2.53,2.53,0,0,0-2.15,1,4.44,4.44,0,0,0-.76,2.69h.06a1.8,1.8,0,0,1,.44-.44,4.76,4.76,0,0,1,.6-.36,3.9,3.9,0,0,1,1-.3,5.41,5.41,0,0,1,1.21-.13,5,5,0,0,1,3.37,1.11,3.52,3.52,0,0,1,1.31,2.8,3.62,3.62,0,0,1-1.36,2.91,5.59,5.59,0,0,1-3.61,1.1,4.81,4.81,0,0,1-3.87-1.54,6.38,6.38,0,0,1-1.32-4.27v-.41a6.85,6.85,0,0,1,1.32-4.31,4.52,4.52,0,0,1,3.8-1.71,5.66,5.66,0,0,1,2.13.37,4,4,0,0,1,1.44.94A3.45,3.45,0,0,1,195.65,188Zm-2.51,3.15a3.65,3.65,0,0,0-3.95,0,1.86,1.86,0,0,0-.78,1.58,1.89,1.89,0,0,0,.77,1.57,3.69,3.69,0,0,0,4,0,1.87,1.87,0,0,0,.78-1.57A1.85,1.85,0,0,0,193.14,191.17Z" fill="#003a50"/><path d="M.73,428.43H2.94s0,.07,0,.18a2.71,2.71,0,0,0,.23.43,2.37,2.37,0,0,0,.41.49,2.2,2.2,0,0,0,.75.41,3.21,3.21,0,0,0,1,.17,2.68,2.68,0,0,0,2.24-1.06,4.34,4.34,0,0,0,.81-2.71H8.41a2,2,0,0,1-.44.46,2.42,2.42,0,0,1-.6.4,3.58,3.58,0,0,1-1,.33,6.08,6.08,0,0,1-1.22.13,5,5,0,0,1-3.37-1.13,3.73,3.73,0,0,1,0-5.72,5.54,5.54,0,0,1,3.61-1.11,4.81,4.81,0,0,1,3.87,1.55,6.38,6.38,0,0,1,1.32,4.27v.4a6.68,6.68,0,0,1-1.37,4.31,4.69,4.69,0,0,1-3.89,1.71,6,6,0,0,1-2.17-.37,3.71,3.71,0,0,1-1.47-.95A3.33,3.33,0,0,1,.73,428.43Zm2.77-3.16a3.24,3.24,0,0,0,2,.59,3.25,3.25,0,0,0,2-.59,1.86,1.86,0,0,0,.78-1.57,1.89,1.89,0,0,0-.77-1.58,3.24,3.24,0,0,0-2-.58,3.12,3.12,0,0,0-2,.58,1.87,1.87,0,0,0-.79,1.58A1.89,1.89,0,0,0,3.5,425.27Z" fill="#003a50"/><path d="M383.4,129.89a5.15,5.15,0,0,1-6.23,0,4,4,0,0,1,0-5.73,5.15,5.15,0,0,1,6.23,0,4,4,0,0,1,0,5.73Zm-1-4.6a3.48,3.48,0,0,0-2.14-.62,3.52,3.52,0,0,0-2.14.62,2.23,2.23,0,0,0,0,3.47,4,4,0,0,0,4.28,0,2.21,2.21,0,0,0,0-3.47Z" fill="#003a50"/><path d="M384.39,121.57a.72.72,0,0,1-.57.23.76.76,0,0,1-.57-.23A.9.9,0,0,1,383,121a.87.87,0,0,1,.21-.61.76.76,0,0,1,.57-.23.72.72,0,0,1,.57.23.87.87,0,0,1,.21.61A.9.9,0,0,1,384.39,121.57Z" fill="#003a50"/><path d="M378.45,112v1.56l-.12,0-.31.15a1.6,1.6,0,0,0-.35.28,1.14,1.14,0,0,0-.29.5,2,2,0,0,0-.12.71,1.76,1.76,0,0,0,.73,1.52,3.11,3.11,0,0,0,1.89.54v0a1.27,1.27,0,0,1-.3-.31,2.9,2.9,0,0,1-.26-.43,3.09,3.09,0,0,1-.22-.67,4.12,4.12,0,0,1-.09-.86,3.53,3.53,0,0,1,.79-2.38,2.62,2.62,0,0,1,4,0,3.89,3.89,0,0,1,.78,2.54,3.38,3.38,0,0,1-1.09,2.73,4.48,4.48,0,0,1-3,.94h-.29a4.85,4.85,0,0,1-3-.94,3.18,3.18,0,0,1-1.2-2.68,3.93,3.93,0,0,1,.26-1.5,2.61,2.61,0,0,1,.66-1A2.39,2.39,0,0,1,378.45,112Zm2.22,1.77a2.27,2.27,0,0,0-.41,1.39,2.32,2.32,0,0,0,.41,1.4,1.33,1.33,0,0,0,1.11.55,1.3,1.3,0,0,0,1.11-.55,2.54,2.54,0,0,0,0-2.8,1.4,1.4,0,0,0-2.22,0Z" fill="#003a50"/><path d="M383.41,290.25a5.19,5.19,0,0,1-6.23,0,4,4,0,0,1,0-5.74,5.19,5.19,0,0,1,6.23,0,4,4,0,0,1,0,5.74Zm-1-4.61a3.47,3.47,0,0,0-2.13-.61,3.53,3.53,0,0,0-2.15.61,2.07,2.07,0,0,0-.83,1.74,2,2,0,0,0,.83,1.73,3.47,3.47,0,0,0,2.15.62,3.41,3.41,0,0,0,2.13-.62,2,2,0,0,0,.84-1.73A2.05,2.05,0,0,0,382.43,285.64Z" fill="#003a50"/><path d="M384.4,281.92a.69.69,0,0,1-.57.23.7.7,0,0,1-.56-.23.85.85,0,0,1-.21-.61.87.87,0,0,1,.21-.61.74.74,0,0,1,.56-.23.72.72,0,0,1,.57.23.87.87,0,0,1,.21.61A.85.85,0,0,1,384.4,281.92Z" fill="#003a50"/><path d="M378.46,272.31v1.56l-.12,0-.31.15a1.91,1.91,0,0,0-.35.27,1.24,1.24,0,0,0-.29.51,2,2,0,0,0-.12.71,1.78,1.78,0,0,0,.73,1.52,3.18,3.18,0,0,0,1.89.53v0a1.11,1.11,0,0,1-.3-.31,2.73,2.73,0,0,1-.26-.43,3,3,0,0,1-.21-.67,3.47,3.47,0,0,1-.1-.85,3.56,3.56,0,0,1,.79-2.38,2.46,2.46,0,0,1,2-.92,2.51,2.51,0,0,1,2.05,1,3.87,3.87,0,0,1,.78,2.54,3.38,3.38,0,0,1-1.09,2.73,4.48,4.48,0,0,1-3,.93h-.28a4.86,4.86,0,0,1-3.05-.93,3.18,3.18,0,0,1-1.2-2.68,4.06,4.06,0,0,1,.26-1.5,2.73,2.73,0,0,1,.66-1A2.48,2.48,0,0,1,378.46,272.31Zm2.22,1.77a2.32,2.32,0,0,0-.41,1.4,2.27,2.27,0,0,0,.41,1.39,1.33,1.33,0,0,0,1.12.55,1.31,1.31,0,0,0,1.1-.54,2.54,2.54,0,0,0,0-2.8,1.32,1.32,0,0,0-1.1-.55A1.35,1.35,0,0,0,380.68,274.08Z" fill="#003a50"/><path d="M383.39,447.07a4.57,4.57,0,0,1-3.12,1,4.63,4.63,0,0,1-3.12-1,3.63,3.63,0,0,1-1.2-2.88,3.59,3.59,0,0,1,1.2-2.86,4.58,4.58,0,0,1,3.12-1,4.53,4.53,0,0,1,3.12,1,3.59,3.59,0,0,1,1.2,2.86A3.63,3.63,0,0,1,383.39,447.07Zm-1-4.61a4.06,4.06,0,0,0-4.28,0,2.21,2.21,0,0,0,0,3.47,4,4,0,0,0,4.28,0,2.21,2.21,0,0,0,0-3.47Z" fill="#003a50"/><path d="M384.38,438.74a.72.72,0,0,1-.57.23.75.75,0,0,1-.57-.23.88.88,0,0,1-.21-.62.84.84,0,0,1,.21-.6.71.71,0,0,1,.57-.23.69.69,0,0,1,.57.23.84.84,0,0,1,.21.6A.88.88,0,0,1,384.38,438.74Z" fill="#003a50"/><path d="M378.44,429.13v1.56s-.05,0-.13,0a1.38,1.38,0,0,0-.31.15,1.73,1.73,0,0,0-.35.27,1.46,1.46,0,0,0-.29.5,2.35,2.35,0,0,0-.11.71,1.77,1.77,0,0,0,.72,1.52,3.12,3.12,0,0,0,1.9.54v0a1.49,1.49,0,0,1-.31-.31,4.92,4.92,0,0,1-.26-.43,3.14,3.14,0,0,1-.21-.67,4.12,4.12,0,0,1-.09-.86,3.53,3.53,0,0,1,.79-2.38,2.46,2.46,0,0,1,2-.92,2.52,2.52,0,0,1,2.05,1,3.92,3.92,0,0,1,.78,2.55A3.38,3.38,0,0,1,383.5,435a4.5,4.5,0,0,1-3,.93h-.29a4.83,4.83,0,0,1-3-.93,3.21,3.21,0,0,1-1.21-2.69,3.93,3.93,0,0,1,.27-1.5,2.69,2.69,0,0,1,.66-1A2.44,2.44,0,0,1,378.44,429.13Zm2.22,1.77a2.58,2.58,0,0,0,0,2.79,1.4,1.4,0,0,0,2.22,0,2.22,2.22,0,0,0,.41-1.4,2.28,2.28,0,0,0-.41-1.4,1.31,1.31,0,0,0-1.11-.54A1.3,1.3,0,0,0,380.66,430.9Z" fill="#003a50"/></g></svg>