<svg id="Слой_1" data-name="Слой 1" xmlns="http://www.w3.org/2000/svg" xmlns:xlink="http://www.w3.org/1999/xlink" viewBox="0 0 549.92 574.02"><defs><clipPath id="clip-path"><polygon points="371.26 0.14 371.26 24.28 221.95 24.28 221.95 138.05 0 138.05 0 573.88 549.92 573.88 549.92 191.91 484.27 191.91 484.27 40.49 423.31 40.49 423.31 0.14 371.26 0.14" fill="none"/></clipPath></defs><rect x="544.78" y="198.9" width="5.14" height="334.01" fill="#fff"/><polygon points="221.95 24.28 221.95 138.05 41.78 138.05 41.78 148.48 232.58 148.48 232.58 32.16 365.41 32.16 365.41 24.28 221.95 24.28" fill="#fff"/><polygon points="227.99 32.62 227.99 40.31 227.99 144.75 41.78 144.75 41.78 532.91 544.78 532.91 544.78 197.58 478.43 197.58 478.43 40.49 423.31 40.49 423.31 40.31 359.66 40.31 359.66 32.62 227.99 32.62" fill="#fff"/><g clip-path="url(#clip-path)"><line x1="22.24" y1="-632.46" x2="22.24" y2="572.42" fill="none" stroke="#003a50" stroke-miterlimit="10"/><line x1="41.78" y1="-632.46" x2="41.78" y2="572.42" fill="none" stroke="#003a50" stroke-miterlimit="10"/><line x1="18.83" y1="551.83" x2="1057.66" y2="551.83" fill="none" stroke="#003a50" stroke-miterlimit="10"/><line x1="18.83" y1="532.92" x2="1057.66" y2="532.92" fill="none" stroke="#003a50" stroke-miterlimit="10"/></g><rect x="200.74" y="539.37" width="71.67" height="4.55" fill="#fff"/><rect x="200.74" y="539.37" width="71.67" height="4.55" fill="none" stroke="#003a50" stroke-miterlimit="10"/><line x1="272.41" y1="541.64" x2="200.74" y2="541.64" fill="none" stroke="#003a50" stroke-miterlimit="10"/><rect x="267.88" y="539.37" width="4.53" height="4.55" fill="#fff"/><rect x="267.88" y="539.37" width="4.53" height="4.55" fill="none" stroke="#003a50" stroke-miterlimit="10"/><rect x="200.74" y="539.37" width="4.53" height="4.55" fill="#fff"/><rect x="200.74" y="539.37" width="4.53" height="4.55" fill="none" stroke="#003a50" stroke-miterlimit="10"/><rect x="236.57" y="539.37" width="4.53" height="4.55" fill="#fff"/><rect x="236.57" y="539.37" width="4.53" height="4.55" fill="none" stroke="#003a50" stroke-miterlimit="10"/><rect x="42.28" y="539.37" width="71.46" height="4.55" fill="#fff"/><rect x="42.28" y="539.37" width="71.46" height="4.55" fill="none" stroke="#003a50" stroke-miterlimit="10"/><line x1="113.74" y1="541.64" x2="42.28" y2="541.64" fill="none" stroke="#003a50" stroke-miterlimit="10"/><rect x="109.22" y="539.37" width="4.51" height="4.55" fill="#fff"/><rect x="109.22" y="539.37" width="4.52" height="4.55" fill="none" stroke="#003a50" stroke-miterlimit="10"/><rect x="42.28" y="539.37" width="4.52" height="4.55" fill="#fff"/><rect x="42.28" y="539.37" width="4.52" height="4.55" fill="none" stroke="#003a50" stroke-miterlimit="10"/><rect x="78.01" y="539.37" width="4.52" height="4.55" fill="#fff"/><rect x="78.01" y="539.37" width="4.52" height="4.55" fill="none" stroke="#003a50" stroke-miterlimit="10"/><rect x="444.49" y="539.37" width="62.92" height="4.55" fill="#fff"/><rect x="444.49" y="539.37" width="62.92" height="4.55" fill="none" stroke="#003a50" stroke-miterlimit="10"/><line x1="507.41" y1="541.64" x2="444.49" y2="541.64" fill="none" stroke="#003a50" stroke-miterlimit="10"/><rect x="502.43" y="539.37" width="4.97" height="4.55" fill="#fff"/><rect x="502.43" y="539.37" width="4.97" height="4.55" fill="none" stroke="#003a50" stroke-miterlimit="10"/><rect x="444.49" y="539.37" width="4.97" height="4.55" fill="#fff"/><rect x="444.49" y="539.37" width="4.97" height="4.55" fill="none" stroke="#003a50" stroke-miterlimit="10"/><rect x="475.95" y="539.37" width="4.97" height="4.55" fill="#fff"/><rect x="475.95" y="539.37" width="4.97" height="4.55" fill="none" stroke="#003a50" stroke-miterlimit="10"/><rect x="359.33" y="539.37" width="62.06" height="4.55" fill="#fff"/><rect x="359.33" y="539.37" width="62.06" height="4.55" fill="none" stroke="#003a50" stroke-miterlimit="10"/><line x1="421.4" y1="541.64" x2="359.33" y2="541.64" fill="none" stroke="#003a50" stroke-miterlimit="10"/><rect x="416.49" y="539.37" width="4.91" height="4.55" fill="#fff"/><rect x="416.49" y="539.37" width="4.91" height="4.55" fill="none" stroke="#003a50" stroke-miterlimit="10"/><rect x="359.33" y="539.37" width="4.9" height="4.55" fill="#fff"/><rect x="359.33" y="539.37" width="4.9" height="4.55" fill="none" stroke="#003a50" stroke-miterlimit="10"/><rect x="390.37" y="539.37" width="4.9" height="4.55" fill="#fff"/><rect x="390.37" y="539.37" width="4.9" height="4.55" fill="none" stroke="#003a50" stroke-miterlimit="10"/><rect x="29.47" y="215.15" width="4.55" height="70.36" fill="#fff"/><rect x="29.47" y="215.16" width="4.55" height="70.36" fill="none" stroke="#003a50" stroke-miterlimit="10"/><line x1="31.74" y1="215.16" x2="31.74" y2="285.51" fill="none" stroke="#003a50" stroke-miterlimit="10"/><rect x="29.47" y="215.15" width="4.55" height="4.45" fill="#fff"/><rect x="29.47" y="215.16" width="4.55" height="4.45" fill="none" stroke="#003a50" stroke-miterlimit="10"/><rect x="29.47" y="281.07" width="4.55" height="4.44" fill="#fff"/><rect x="29.47" y="281.07" width="4.55" height="4.44" fill="none" stroke="#003a50" stroke-miterlimit="10"/><rect x="29.47" y="245.89" width="4.55" height="4.45" fill="#fff"/><rect x="29.47" y="245.89" width="4.55" height="4.45" fill="none" stroke="#003a50" stroke-miterlimit="10"/><rect x="29.47" y="373.73" width="4.55" height="81.91" fill="#fff"/><rect x="29.47" y="373.73" width="4.55" height="81.91" fill="none" stroke="#003a50" stroke-miterlimit="10"/><line x1="31.74" y1="455.64" x2="31.74" y2="373.73" fill="none" stroke="#003a50" stroke-miterlimit="10"/><rect x="29.47" y="450.46" width="4.55" height="5.18" fill="#fff"/><rect x="29.47" y="450.46" width="4.55" height="5.18" fill="none" stroke="#003a50" stroke-miterlimit="10"/><rect x="29.47" y="373.73" width="4.55" height="5.18" fill="#fff"/><rect x="29.47" y="373.73" width="4.55" height="5.18" fill="none" stroke="#003a50" stroke-miterlimit="10"/><rect x="29.47" y="414.69" width="4.55" height="5.18" fill="#fff"/><rect x="29.47" y="414.69" width="4.55" height="5.18" fill="none" stroke="#003a50" stroke-miterlimit="10"/><g clip-path="url(#clip-path)"><path d="M392.62,365.68a1,1,0,0,0,1-1,10.74,10.74,0,0,1,21.48,0,1,1,0,0,0,2,0,12.7,12.7,0,0,0-25.4,0A1,1,0,0,0,392.62,365.68Z" fill="none" stroke="#003a50" stroke-miterlimit="10"/><path d="M416.06,407.1a1,1,0,0,0-1,1,10.74,10.74,0,0,1-21.48,0,1,1,0,1,0-2,0,12.7,12.7,0,0,0,25.4,0A1,1,0,0,0,416.06,407.1Z" fill="none" stroke="#003a50" stroke-miterlimit="10"/><path d="M425.19,365.68a1,1,0,0,0,1-1,10.74,10.74,0,0,1,21.48,0,1,1,0,1,0,2,0,12.7,12.7,0,0,0-25.39,0A1,1,0,0,0,425.19,365.68Z" fill="none" stroke="#003a50" stroke-miterlimit="10"/><path d="M448.63,407.1a1,1,0,0,0-1,1,10.74,10.74,0,0,1-21.48,0,1,1,0,1,0-2,0,12.7,12.7,0,1,0,25.4,0A1,1,0,0,0,448.63,407.1Z" fill="none" stroke="#003a50" stroke-miterlimit="10"/><path d="M466.77,376.4a1,1,0,0,0,1,1,10.74,10.74,0,0,1,0,21.48,1,1,0,1,0,0,1.95,12.7,12.7,0,1,0,0-25.39A1,1,0,0,0,466.77,376.4Z" fill="none" stroke="#003a50" stroke-miterlimit="10"/><path d="M378.31,399.83a1,1,0,0,0-1-1,10.74,10.74,0,1,1,0-21.47,1,1,0,0,0,0-2,12.7,12.7,0,1,0,0,25.39A1,1,0,0,0,378.31,399.83Z" fill="none" stroke="#003a50" stroke-miterlimit="10"/><path d="M404.35,355.37a9.88,9.88,0,0,0-9.87,9.84v4.55a18.55,18.55,0,0,1,4.78-.63h14.93v-3.92A9.87,9.87,0,0,0,404.35,355.37Z" fill="none" stroke="#003a50" stroke-miterlimit="10"/><path d="M394.48,406.48v1.07a9.86,9.86,0,1,0,19.71,0v-.44H399.26A20,20,0,0,1,394.48,406.48Z" fill="none" stroke="#003a50" stroke-miterlimit="10"/><path d="M436.92,355.37a9.88,9.88,0,0,0-9.87,9.84v3.92h18.73c.32,0,.66,0,1,.07v-4A9.85,9.85,0,0,0,436.92,355.37Z" fill="none" stroke="#003a50" stroke-miterlimit="10"/><path d="M446.76,407.05c-.32,0-.66.06-1,.06H427.05v.44a9.86,9.86,0,1,0,19.71,0Z" fill="none" stroke="#003a50" stroke-miterlimit="10"/><path d="M383.07,378.25h-5.22a9.86,9.86,0,1,0,0,19.71h5.22a18.71,18.71,0,0,1-2.8-9.84A18.92,18.92,0,0,1,383.07,378.25Z" fill="none" stroke="#003a50" stroke-miterlimit="10"/><path d="M467.22,378.25H462a18.92,18.92,0,0,1,2.8,9.87A18.71,18.71,0,0,1,462,398h5.25a9.86,9.86,0,1,0,0-19.71Z" fill="none" stroke="#003a50" stroke-miterlimit="10"/><path d="M445.78,369.13H399.26a18.55,18.55,0,0,0-4.78.63,19.06,19.06,0,0,0-14.21,18.36,18.71,18.71,0,0,0,2.8,9.84,19,19,0,0,0,11.41,8.52,20,20,0,0,0,4.78.63h46.52c.32,0,.66,0,1-.06a18.95,18.95,0,0,0,0-37.85C446.44,369.17,446.1,369.13,445.78,369.13Z" fill="none" stroke="#003a50" stroke-miterlimit="10"/></g><rect x="234.99" y="54.23" width="41.31" height="92.33" fill="none" stroke="#003a50" stroke-miterlimit="10"/><g clip-path="url(#clip-path)"><path d="M271.19,73.27v54.24a15.26,15.26,0,0,1-15.52,15h0a15.26,15.26,0,0,1-15.52-15V73.27a15.26,15.26,0,0,1,15.52-15h0A15.26,15.26,0,0,1,271.19,73.27Z" fill="none" stroke="#003a50" stroke-miterlimit="10"/><ellipse cx="255.65" cy="72.94" rx="2.25" ry="2.17" fill="none" stroke="#003a50" stroke-miterlimit="10"/><path d="M328.79,125.89H352V107.55H328.79a9.17,9.17,0,0,0,0,18.34Z" fill="none" stroke="#003a50" stroke-miterlimit="10"/></g><line x1="342.97" y1="107.55" x2="342.97" y2="125.89" fill="none" stroke="#003a50" stroke-miterlimit="10"/><g clip-path="url(#clip-path)"><path d="M332.49,72.9V57.1a2.31,2.31,0,0,0-2.3-2.31H314.91a2.31,2.31,0,0,0-2.31,2.31V72.9a2.3,2.3,0,0,0,2.31,2.3h15.28A2.3,2.3,0,0,0,332.49,72.9Z" fill="none" stroke="#003a50" stroke-miterlimit="10"/><path d="M322.54,66.56A1.56,1.56,0,1,0,321,65,1.56,1.56,0,0,0,322.54,66.56Z" fill="none" stroke="#003a50" stroke-miterlimit="10"/><path d="M309.42,72.9V57.1a2.31,2.31,0,0,0-2.3-2.31H291.84a2.31,2.31,0,0,0-2.31,2.31V72.9a2.3,2.3,0,0,0,2.31,2.3h15.28A2.3,2.3,0,0,0,309.42,72.9Z" fill="none" stroke="#003a50" stroke-miterlimit="10"/><path d="M299.48,66.56A1.56,1.56,0,1,0,297.92,65,1.55,1.55,0,0,0,299.48,66.56Z" fill="none" stroke="#003a50" stroke-miterlimit="10"/></g><rect x="276.38" y="56.6" width="77.35" height="20.25" fill="none" stroke="#003a50" stroke-miterlimit="10" stroke-width="1.14"/><rect x="339.72" y="362.67" width="13.62" height="164.62" fill="none" stroke="#003a50" stroke-miterlimit="10"/><polygon points="346.97 425.72 344.14 460.09 346.97 494.62 348.93 494.62 348.93 425.72 346.97 425.72" fill="none" stroke="#003a50" stroke-miterlimit="10"/><rect x="289.69" y="363.91" width="45.5" height="98.82" fill="none" stroke="#003a50" stroke-miterlimit="10"/><g clip-path="url(#clip-path)"><path d="M297.74,454.3h29.05a2.1,2.1,0,0,0,2.1-2.1V393.68H295.63V452.2A2.1,2.1,0,0,0,297.74,454.3Z" fill="none" stroke="#003a50" stroke-miterlimit="10"/></g><rect x="295.63" y="393.68" width="33.26" height="12.04" fill="none" stroke="#003a50" stroke-miterlimit="10"/><g clip-path="url(#clip-path)"><rect x="295.29" y="370.65" width="33.65" height="19.89" rx="2.2" fill="none" stroke="#003a50" stroke-miterlimit="10"/><rect x="549.28" y="362.94" width="45.5" height="98.82" fill="none" stroke="#003a50" stroke-miterlimit="10"/><rect x="196.33" y="28.79" width="26.08" height="109.58" fill="none" stroke="#003a50" stroke-miterlimit="10"/><path d="M200,125.25a.77.77,0,0,1-.34-1.46,22.06,22.06,0,0,1,19.37,0,.78.78,0,0,1,.35,1,.77.77,0,0,1-1,.35,20.53,20.53,0,0,0-18,0A.71.71,0,0,1,200,125.25Z" fill="none" stroke="#003a50" stroke-miterlimit="10"/><path d="M200,121a.77.77,0,0,1-.34-1.46,22.06,22.06,0,0,1,19.37,0,.78.78,0,0,1,.35,1,.77.77,0,0,1-1,.35,20.53,20.53,0,0,0-18,0A.71.71,0,0,1,200,121Z" fill="none" stroke="#003a50" stroke-miterlimit="10"/><path d="M200,116.72a.77.77,0,0,1-.69-.43.76.76,0,0,1,.35-1,22.06,22.06,0,0,1,19.37,0,.76.76,0,0,1,.35,1,.77.77,0,0,1-1,.36,20.44,20.44,0,0,0-18,0A.84.84,0,0,1,200,116.72Z" fill="none" stroke="#003a50" stroke-miterlimit="10"/><path d="M200,112.45a.77.77,0,0,1-.34-1.46,22.06,22.06,0,0,1,19.37,0,.78.78,0,0,1,.35,1,.77.77,0,0,1-1,.35,20.44,20.44,0,0,0-18,0A.84.84,0,0,1,200,112.45Z" fill="none" stroke="#003a50" stroke-miterlimit="10"/><path d="M200,108.18a.77.77,0,0,1-.34-1.46,22.06,22.06,0,0,1,19.37,0,.78.78,0,0,1,.35,1,.77.77,0,0,1-1,.35,20.53,20.53,0,0,0-18,0A.71.71,0,0,1,200,108.18Z" fill="none" stroke="#003a50" stroke-miterlimit="10"/><path d="M200,103.92a.77.77,0,0,1-.69-.43.76.76,0,0,1,.35-1,22.06,22.06,0,0,1,19.37,0,.76.76,0,0,1,.35,1,.77.77,0,0,1-1,.36,20.44,20.44,0,0,0-18,0A.84.84,0,0,1,200,103.92Z" fill="none" stroke="#003a50" stroke-miterlimit="10"/><path d="M200,129.52a.77.77,0,0,1-.69-.43.76.76,0,0,1,.35-1,22.06,22.06,0,0,1,19.37,0,.76.76,0,0,1,.35,1,.77.77,0,0,1-1,.36,20.44,20.44,0,0,0-18,0A.84.84,0,0,1,200,129.52Z" fill="none" stroke="#003a50" stroke-miterlimit="10"/><path d="M200,133.78a.77.77,0,0,1-.34-1.46,22.06,22.06,0,0,1,19.37,0,.78.78,0,0,1,.35,1,.76.76,0,0,1-1,.35,20.53,20.53,0,0,0-18,0A.71.71,0,0,1,200,133.78Z" fill="none" stroke="#003a50" stroke-miterlimit="10"/><line x1="209.37" y1="138.37" x2="209.37" y2="28.79" fill="none" stroke="#003a50" stroke-miterlimit="10"/></g><rect x="191.12" y="362.66" width="26.08" height="138.32" fill="none" stroke="#003a50" stroke-miterlimit="10"/><g clip-path="url(#clip-path)"><path d="M194.82,487.86a.76.76,0,0,1-.69-.43.77.77,0,0,1,.35-1,22,22,0,0,1,19.36,0,.77.77,0,0,1-.68,1.38,20.53,20.53,0,0,0-18,0A.64.64,0,0,1,194.82,487.86Z" fill="none" stroke="#003a50" stroke-miterlimit="10"/><path d="M194.82,483.6a.77.77,0,0,1-.34-1.46,22,22,0,0,1,19.36,0,.75.75,0,0,1,.35,1,.77.77,0,0,1-1,.36,20.44,20.44,0,0,0-18,0A.76.76,0,0,1,194.82,483.6Z" fill="none" stroke="#003a50" stroke-miterlimit="10"/><path d="M194.82,479.33a.76.76,0,0,1-.69-.43.77.77,0,0,1,.35-1,22,22,0,0,1,19.36,0,.77.77,0,1,1-.68,1.38,20.44,20.44,0,0,0-18,0A.76.76,0,0,1,194.82,479.33Z" fill="none" stroke="#003a50" stroke-miterlimit="10"/><path d="M194.82,475.06a.76.76,0,0,1-.69-.43.77.77,0,0,1,.35-1,22,22,0,0,1,19.36,0,.77.77,0,1,1-.68,1.38,20.53,20.53,0,0,0-18,0A.64.64,0,0,1,194.82,475.06Z" fill="none" stroke="#003a50" stroke-miterlimit="10"/><path d="M194.82,470.79a.77.77,0,0,1-.69-.42.78.78,0,0,1,.35-1,22,22,0,0,1,19.36,0,.77.77,0,0,1,.35,1,.76.76,0,0,1-1,.35,20.53,20.53,0,0,0-18,0A.64.64,0,0,1,194.82,470.79Z" fill="none" stroke="#003a50" stroke-miterlimit="10"/><path d="M194.82,466.53a.76.76,0,0,1-.69-.43.77.77,0,0,1,.35-1,22,22,0,0,1,19.36,0,.77.77,0,0,1-.68,1.38,20.53,20.53,0,0,0-18,0A.76.76,0,0,1,194.82,466.53Z" fill="none" stroke="#003a50" stroke-miterlimit="10"/><path d="M194.82,492.13a.77.77,0,0,1-.34-1.46,22,22,0,0,1,19.36,0,.77.77,0,1,1-.68,1.38,20.53,20.53,0,0,0-18,0A.64.64,0,0,1,194.82,492.13Z" fill="none" stroke="#003a50" stroke-miterlimit="10"/><path d="M194.82,496.4a.79.79,0,0,1-.7-.43.78.78,0,0,1,.36-1,22,22,0,0,1,19.36,0,.75.75,0,0,1,.35,1,.77.77,0,0,1-1,.36,20.44,20.44,0,0,0-18,0A.76.76,0,0,1,194.82,496.4Z" fill="none" stroke="#003a50" stroke-miterlimit="10"/></g><line x1="204.16" y1="500.99" x2="204.16" y2="361.38" fill="none" stroke="#003a50" stroke-miterlimit="10"/><g clip-path="url(#clip-path)"><rect x="247.65" y="-3.47" width="104.63" height="28.64" fill="none" stroke="#003a50" stroke-miterlimit="10"/><path d="M261.27.59a.84.84,0,0,1,.44-.76.77.77,0,0,1,1.07.38,25.13,25.13,0,0,1,2.32,10.64,25.15,25.15,0,0,1-2.32,10.63.78.78,0,0,1-1.07.38.86.86,0,0,1-.36-1.13,23.37,23.37,0,0,0,2.16-9.88A23.35,23.35,0,0,0,261.35,1,.83.83,0,0,1,261.27.59Z" fill="none" stroke="#003a50" stroke-miterlimit="10"/><path d="M265.69.59a.84.84,0,0,1,.45-.76.77.77,0,0,1,1.07.38,25.54,25.54,0,0,1,0,21.27.78.78,0,0,1-1.07.38.85.85,0,0,1-.36-1.13,23.37,23.37,0,0,0,2.16-9.88A23.35,23.35,0,0,0,265.78,1,.84.84,0,0,1,265.69.59Z" fill="none" stroke="#003a50" stroke-miterlimit="10"/><path d="M270.12.59a.84.84,0,0,1,.44-.76.77.77,0,0,1,1.07.38A25.13,25.13,0,0,1,274,10.85a25.15,25.15,0,0,1-2.32,10.63.78.78,0,0,1-1.07.38.86.86,0,0,1-.36-1.13,23.37,23.37,0,0,0,2.16-9.88A23.35,23.35,0,0,0,270.2,1,.83.83,0,0,1,270.12.59Z" fill="none" stroke="#003a50" stroke-miterlimit="10"/><path d="M274.54.59A.84.84,0,0,1,275-.17a.77.77,0,0,1,1.07.38,25.54,25.54,0,0,1,0,21.27.78.78,0,0,1-1.07.38.85.85,0,0,1-.36-1.13,23.37,23.37,0,0,0,2.16-9.88A23.35,23.35,0,0,0,274.63,1,.84.84,0,0,1,274.54.59Z" fill="none" stroke="#003a50" stroke-miterlimit="10"/><path d="M279,.59a.84.84,0,0,1,.44-.76.77.77,0,0,1,1.07.38,25.13,25.13,0,0,1,2.32,10.64,25.15,25.15,0,0,1-2.32,10.63.77.77,0,0,1-1.06.38.87.87,0,0,1-.37-1.13,23.37,23.37,0,0,0,2.16-9.88A23.35,23.35,0,0,0,279.05,1,.83.83,0,0,1,279,.59Z" fill="none" stroke="#003a50" stroke-miterlimit="10"/><path d="M283.39.59a.84.84,0,0,1,.45-.76.77.77,0,0,1,1.07.38,25.13,25.13,0,0,1,2.32,10.64,25.15,25.15,0,0,1-2.32,10.63.78.78,0,0,1-1.07.38.86.86,0,0,1-.36-1.13,23.37,23.37,0,0,0,2.16-9.88A23.35,23.35,0,0,0,283.48,1,.84.84,0,0,1,283.39.59Z" fill="none" stroke="#003a50" stroke-miterlimit="10"/><path d="M256.84.59a.84.84,0,0,1,.44-.76.79.79,0,0,1,1.08.38,25.54,25.54,0,0,1,0,21.27.78.78,0,0,1-1.07.38.87.87,0,0,1-.37-1.13,23.22,23.22,0,0,0,2.16-9.88A23.2,23.2,0,0,0,256.92,1,.83.83,0,0,1,256.84.59Z" fill="none" stroke="#003a50" stroke-miterlimit="10"/><path d="M252.41.59a.84.84,0,0,1,.45-.76.77.77,0,0,1,1.07.38,25.13,25.13,0,0,1,2.32,10.64,25.15,25.15,0,0,1-2.32,10.63.78.78,0,0,1-1.07.38.86.86,0,0,1-.36-1.13,23.37,23.37,0,0,0,2.16-9.88A23.35,23.35,0,0,0,252.5,1,.84.84,0,0,1,252.41.59Z" fill="none" stroke="#003a50" stroke-miterlimit="10"/></g><rect x="221.21" y="203.86" width="24.18" height="97.61" fill="none" stroke="#003a50" stroke-miterlimit="10"/><g clip-path="url(#clip-path)"><path d="M224.64,289.29a.7.7,0,0,1-.64-.4.71.71,0,0,1,.32-.95,20.51,20.51,0,0,1,18,0,.71.71,0,1,1-.62,1.28,19,19,0,0,0-16.71,0A.7.7,0,0,1,224.64,289.29Z" fill="none" stroke="#003a50" stroke-miterlimit="10"/><path d="M224.64,285.34a.71.71,0,0,1-.32-1.35,20.42,20.42,0,0,1,18,0,.71.71,0,0,1,.33.95.72.72,0,0,1-1,.33,19,19,0,0,0-16.71,0A.87.87,0,0,1,224.64,285.34Z" fill="none" stroke="#003a50" stroke-miterlimit="10"/><path d="M224.64,281.38a.71.71,0,0,1-.32-1.35,20.42,20.42,0,0,1,18,0,.71.71,0,1,1-.62,1.28,19,19,0,0,0-16.71,0A.7.7,0,0,1,224.64,281.38Z" fill="none" stroke="#003a50" stroke-miterlimit="10"/><path d="M224.64,277.42a.7.7,0,0,1-.64-.4.71.71,0,0,1,.32-.95,20.51,20.51,0,0,1,18,0,.71.71,0,1,1-.62,1.28,19,19,0,0,0-16.71,0A.7.7,0,0,1,224.64,277.42Z" fill="none" stroke="#003a50" stroke-miterlimit="10"/><path d="M224.64,273.47a.71.71,0,0,1-.32-1.35,20.42,20.42,0,0,1,18,0,.71.71,0,0,1,.33.95.72.72,0,0,1-1,.33,19,19,0,0,0-16.71,0A.87.87,0,0,1,224.64,273.47Z" fill="none" stroke="#003a50" stroke-miterlimit="10"/><path d="M224.64,269.51a.71.71,0,0,1-.32-1.35,20.42,20.42,0,0,1,18,0,.71.71,0,1,1-.62,1.28,19,19,0,0,0-16.71,0A.7.7,0,0,1,224.64,269.51Z" fill="none" stroke="#003a50" stroke-miterlimit="10"/><path d="M224.64,293.25a.71.71,0,0,1-.32-1.35,20.42,20.42,0,0,1,18,0,.71.71,0,1,1-.62,1.28,19,19,0,0,0-16.71,0A.7.7,0,0,1,224.64,293.25Z" fill="none" stroke="#003a50" stroke-miterlimit="10"/><path d="M224.64,297.21a.71.71,0,0,1-.32-1.35,20.42,20.42,0,0,1,18,0,.71.71,0,0,1,.33.95.72.72,0,0,1-1,.33,19,19,0,0,0-16.71,0A.87.87,0,0,1,224.64,297.21Z" fill="none" stroke="#003a50" stroke-miterlimit="10"/></g><line x1="233.3" y1="301.46" x2="233.3" y2="203.86" fill="none" stroke="#003a50" stroke-miterlimit="10"/><rect x="245.4" y="203.86" width="114.26" height="24.18" fill="none" stroke="#003a50" stroke-miterlimit="10"/><g clip-path="url(#clip-path)"><path d="M257.57,207.28a.71.71,0,0,1,1.35-.31,20.51,20.51,0,0,1,0,18,.71.71,0,0,1-1.28-.63,19,19,0,0,0,0-16.7A.71.71,0,0,1,257.57,207.28Z" fill="none" stroke="#003a50" stroke-miterlimit="10"/><path d="M261.52,207.28a.72.72,0,0,1,1.36-.31,20.51,20.51,0,0,1,0,18,.72.72,0,0,1-1,.32.7.7,0,0,1-.32-.95,19,19,0,0,0,0-16.7A.72.72,0,0,1,261.52,207.28Z" fill="none" stroke="#003a50" stroke-miterlimit="10"/><path d="M265.48,207.28a.73.73,0,0,1,.4-.64.72.72,0,0,1,.95.33,20.42,20.42,0,0,1,0,18,.71.71,0,0,1-1.28-.63,19,19,0,0,0,0-16.7A.71.71,0,0,1,265.48,207.28Z" fill="none" stroke="#003a50" stroke-miterlimit="10"/><path d="M269.44,207.28a.71.71,0,0,1,1.35-.31,20.51,20.51,0,0,1,0,18,.71.71,0,0,1-1.28-.63,19,19,0,0,0,0-16.7A.71.71,0,0,1,269.44,207.28Z" fill="none" stroke="#003a50" stroke-miterlimit="10"/><path d="M273.39,207.28a.73.73,0,0,1,.4-.64.72.72,0,0,1,.95.33,20.42,20.42,0,0,1,0,18,.71.71,0,0,1-1.28-.63,18.94,18.94,0,0,0,0-16.7A.88.88,0,0,1,273.39,207.28Z" fill="none" stroke="#003a50" stroke-miterlimit="10"/><path d="M277.35,207.28a.73.73,0,0,1,.4-.64.72.72,0,0,1,.95.33,20.42,20.42,0,0,1,0,18,.71.71,0,0,1-1.28-.63,19,19,0,0,0,0-16.7A.71.71,0,0,1,277.35,207.28Z" fill="none" stroke="#003a50" stroke-miterlimit="10"/><path d="M253.61,207.28a.73.73,0,0,1,.4-.64.72.72,0,0,1,1,.33,20.42,20.42,0,0,1,0,18,.71.71,0,0,1-1.28-.63,19,19,0,0,0,0-16.7A.71.71,0,0,1,253.61,207.28Z" fill="none" stroke="#003a50" stroke-miterlimit="10"/><path d="M249.65,207.28A.72.72,0,0,1,251,207a20.51,20.51,0,0,1,0,18,.72.72,0,0,1-1,.32.7.7,0,0,1-.32-.95,19,19,0,0,0,0-16.7A.72.72,0,0,1,249.65,207.28Z" fill="none" stroke="#003a50" stroke-miterlimit="10"/></g><line x1="245.4" y1="215.95" x2="359.66" y2="215.95" fill="none" stroke="#003a50" stroke-miterlimit="10"/><rect x="41.93" y="306.03" width="90.47" height="27.05" fill="none" stroke="#003a50" stroke-miterlimit="10"/><g clip-path="url(#clip-path)"><path d="M55.54,309.87a.8.8,0,0,1,1.52-.35,22.88,22.88,0,0,1,0,20.08A.79.79,0,0,1,56,330a.78.78,0,0,1-.36-1.06,21.27,21.27,0,0,0,0-18.68A.76.76,0,0,1,55.54,309.87Z" fill="none" stroke="#003a50" stroke-miterlimit="10"/><path d="M60,309.87a.79.79,0,0,1,1.51-.35,22.88,22.88,0,0,1,0,20.08.78.78,0,0,1-1.06.36.79.79,0,0,1-.37-1.06,21.27,21.27,0,0,0,0-18.68A.74.74,0,0,1,60,309.87Z" fill="none" stroke="#003a50" stroke-miterlimit="10"/><path d="M64.39,309.87a.8.8,0,0,1,1.52-.35,22.88,22.88,0,0,1,0,20.08.8.8,0,0,1-1.43-.7,21.27,21.27,0,0,0,0-18.68A.76.76,0,0,1,64.39,309.87Z" fill="none" stroke="#003a50" stroke-miterlimit="10"/><path d="M68.82,309.87a.8.8,0,0,1,.44-.72.81.81,0,0,1,1.08.37,22.88,22.88,0,0,1,0,20.08.8.8,0,0,1-1.44-.7,21.27,21.27,0,0,0,0-18.68A.74.74,0,0,1,68.82,309.87Z" fill="none" stroke="#003a50" stroke-miterlimit="10"/><path d="M73.25,309.87a.79.79,0,0,1,1.51-.35,22.88,22.88,0,0,1,0,20.08.8.8,0,0,1-1.43-.7,21.27,21.27,0,0,0,0-18.68A.74.74,0,0,1,73.25,309.87Z" fill="none" stroke="#003a50" stroke-miterlimit="10"/><path d="M77.67,309.87a.8.8,0,0,1,.44-.72.81.81,0,0,1,1.08.37,22.88,22.88,0,0,1,0,20.08.8.8,0,0,1-1.44-.7,21.27,21.27,0,0,0,0-18.68A.74.74,0,0,1,77.67,309.87Z" fill="none" stroke="#003a50" stroke-miterlimit="10"/><path d="M51.12,309.87a.79.79,0,0,1,1.51-.35,22.88,22.88,0,0,1,0,20.08.8.8,0,0,1-1.43-.7,21.27,21.27,0,0,0,0-18.68A.74.74,0,0,1,51.12,309.87Z" fill="none" stroke="#003a50" stroke-miterlimit="10"/><path d="M46.69,309.87a.8.8,0,0,1,1.52-.35,22.88,22.88,0,0,1,0,20.08.79.79,0,0,1-1.07.36.78.78,0,0,1-.36-1.06,21.27,21.27,0,0,0,0-18.68A.76.76,0,0,1,46.69,309.87Z" fill="none" stroke="#003a50" stroke-miterlimit="10"/></g><line x1="41.93" y1="319.56" x2="132.4" y2="319.56" fill="none" stroke="#003a50" stroke-miterlimit="10"/><g clip-path="url(#clip-path)"><path d="M337.71,282.67h23.21V264.33H337.71a9.17,9.17,0,1,0,0,18.34Z" fill="none" stroke="#003a50" stroke-miterlimit="10"/></g><line x1="351.89" y1="264.33" x2="351.89" y2="282.67" fill="none" stroke="#003a50" stroke-miterlimit="10"/><g clip-path="url(#clip-path)"><path d="M310,249.46V233.67a2.31,2.31,0,0,1,2.31-2.31h15.28a2.31,2.31,0,0,1,2.31,2.31v15.79a2.32,2.32,0,0,1-2.31,2.31H312.28A2.32,2.32,0,0,1,310,249.46Z" fill="none" stroke="#003a50" stroke-miterlimit="10"/><path d="M319.92,243.12a1.56,1.56,0,1,1,1.56-1.55A1.55,1.55,0,0,1,319.92,243.12Z" fill="none" stroke="#003a50" stroke-miterlimit="10"/></g><rect x="306.82" y="233.17" width="54.71" height="20.25" fill="none" stroke="#003a50" stroke-miterlimit="10"/><rect x="260.61" y="233.34" width="35" height="67.89" fill="none" stroke="#003a50" stroke-miterlimit="10"/><g clip-path="url(#clip-path)"><path d="M276.07,249.88a2,2,0,1,0,2-2A2,2,0,0,0,276.07,249.88Z" fill="none" stroke="#003a50" stroke-miterlimit="10"/><rect x="52.25" y="119.77" width="18.91" height="18.91" fill="none" stroke="#003a50" stroke-miterlimit="10"/><path d="M67.13,123.8a7.67,7.67,0,1,0,0,10.85A7.68,7.68,0,0,0,67.13,123.8Z" fill="none" stroke="#003a50" stroke-miterlimit="10"/><path d="M67.65,124.38c-1.41.14-2.85-.4-4.23,1-2,2,.12,4.18-1.91,6.21s-4.19-.11-6.22,1.92" fill="none" stroke="#003a50" stroke-miterlimit="10"/><rect x="166.73" y="119.77" width="18.91" height="18.91" fill="none" stroke="#003a50" stroke-miterlimit="10"/><path d="M181.61,123.8a7.67,7.67,0,1,0,0,10.85A7.68,7.68,0,0,0,181.61,123.8Z" fill="none" stroke="#003a50" stroke-miterlimit="10"/><path d="M182.13,124.38c-1.42.14-2.85-.4-4.23,1-2,2,.12,4.18-1.91,6.21s-4.19-.11-6.22,1.92" fill="none" stroke="#003a50" stroke-miterlimit="10"/><rect x="76.43" y="44.14" width="85.08" height="94.54" fill="none" stroke="#003a50" stroke-miterlimit="10"/><path d="M153.18,52.26H84.77A1.74,1.74,0,0,0,83,54v56.4h71.89V54A1.74,1.74,0,0,0,153.18,52.26Z" fill="none" stroke="#003a50" stroke-miterlimit="10"/><path d="M116.61,113.41H84.47a1.64,1.64,0,0,0-1.64,1.65v15.77a1.64,1.64,0,0,0,1.64,1.65h32.14a1.65,1.65,0,0,0,1.65-1.65V115.06A1.65,1.65,0,0,0,116.61,113.41Z" fill="none" stroke="#003a50" stroke-miterlimit="10"/><rect x="119.7" y="113.41" width="35.44" height="19.08" rx="1.65" fill="none" stroke="#003a50" stroke-miterlimit="10"/></g><rect x="167.32" y="151.21" width="18.91" height="18.91" fill="none" stroke="#003a50" stroke-miterlimit="10"/><g clip-path="url(#clip-path)"><path d="M171.35,166.08a7.67,7.67,0,1,0,0-10.84A7.68,7.68,0,0,0,171.35,166.08Z" fill="none" stroke="#003a50" stroke-miterlimit="10"/><path d="M170.83,165.51c1.41-.14,2.85.4,4.23-1,2-2-.12-4.18,1.91-6.22s4.19.12,6.22-1.91" fill="none" stroke="#003a50" stroke-miterlimit="10"/></g><rect x="52.84" y="151.21" width="18.91" height="18.91" fill="none" stroke="#003a50" stroke-miterlimit="10"/><g clip-path="url(#clip-path)"><path d="M56.87,166.08a7.67,7.67,0,1,0,0-10.84A7.68,7.68,0,0,0,56.87,166.08Z" fill="none" stroke="#003a50" stroke-miterlimit="10"/><path d="M56.35,165.51c1.42-.14,2.85.4,4.23-1,2-2-.12-4.18,1.91-6.22s4.19.12,6.22-1.91" fill="none" stroke="#003a50" stroke-miterlimit="10"/></g><rect x="76.96" y="151.21" width="85.08" height="94.54" fill="none" stroke="#003a50" stroke-miterlimit="10"/><g clip-path="url(#clip-path)"><path d="M85.29,237.63h68.42a1.74,1.74,0,0,0,1.74-1.74v-56.4H83.56v56.4A1.73,1.73,0,0,0,85.29,237.63Z" fill="none" stroke="#003a50" stroke-miterlimit="10"/><path d="M121.87,176.48H154a1.64,1.64,0,0,0,1.64-1.65V159.05A1.64,1.64,0,0,0,154,157.4H121.87a1.65,1.65,0,0,0-1.65,1.65v15.78A1.65,1.65,0,0,0,121.87,176.48Z" fill="none" stroke="#003a50" stroke-miterlimit="10"/><rect x="83.34" y="157.4" width="35.44" height="19.08" rx="1.65" fill="none" stroke="#003a50" stroke-miterlimit="10"/></g><line x1="83.34" y1="191.04" x2="155.66" y2="191.04" fill="none" stroke="#003a50" stroke-miterlimit="10"/><rect x="167.72" y="505.88" width="18.91" height="18.91" fill="none" stroke="#003a50" stroke-miterlimit="10"/><g clip-path="url(#clip-path)"><path d="M171.75,509.92a7.67,7.67,0,1,0,10.85,0A7.67,7.67,0,0,0,171.75,509.92Z" fill="none" stroke="#003a50" stroke-miterlimit="10"/><path d="M172.33,509.4c.14,1.41-.4,2.84,1,4.22,2,2,4.18-.12,6.21,1.91s-.11,4.19,1.92,6.22" fill="none" stroke="#003a50" stroke-miterlimit="10"/></g><rect x="167.72" y="391.4" width="18.91" height="18.91" fill="none" stroke="#003a50" stroke-miterlimit="10"/><g clip-path="url(#clip-path)"><path d="M171.75,395.44a7.67,7.67,0,1,0,10.85,0A7.67,7.67,0,0,0,171.75,395.44Z" fill="none" stroke="#003a50" stroke-miterlimit="10"/><path d="M172.33,394.92c.14,1.41-.4,2.84,1,4.22,2,2,4.18-.12,6.21,1.91s-.11,4.19,1.92,6.22" fill="none" stroke="#003a50" stroke-miterlimit="10"/></g><rect x="92.09" y="415.52" width="94.54" height="85.08" fill="none" stroke="#003a50" stroke-miterlimit="10"/><g clip-path="url(#clip-path)"><path d="M100.21,423.86v68.41a1.73,1.73,0,0,0,1.73,1.74h56.4V422.12h-56.4A1.73,1.73,0,0,0,100.21,423.86Z" fill="none" stroke="#003a50" stroke-miterlimit="10"/><path d="M161.36,460.44v32.13a1.65,1.65,0,0,0,1.65,1.65h15.77a1.65,1.65,0,0,0,1.65-1.65V460.44a1.65,1.65,0,0,0-1.65-1.65H163A1.65,1.65,0,0,0,161.36,460.44Z" fill="none" stroke="#003a50" stroke-miterlimit="10"/><rect x="161.36" y="421.91" width="19.08" height="35.44" rx="1.65" fill="none" stroke="#003a50" stroke-miterlimit="10"/></g><line x1="146.8" y1="421.91" x2="146.8" y2="494.22" fill="none" stroke="#003a50" stroke-miterlimit="10"/><rect x="41.8" y="417.22" width="13.62" height="81.75" fill="none" stroke="#003a50" stroke-miterlimit="10"/><polygon points="49.04 423.65 46.22 458.01 49.04 492.54 51.01 492.54 51.01 423.65 49.04 423.65" fill="none" stroke="#003a50" stroke-miterlimit="10"/><rect x="439.33" y="203.12" width="50" height="27.05" fill="none" stroke="#003a50" stroke-miterlimit="10"/><g clip-path="url(#clip-path)"><path d="M452.94,207a.8.8,0,0,1,1.52-.35,22.88,22.88,0,0,1,0,20.08.79.79,0,0,1-1.07.36A.78.78,0,0,1,453,226a21.27,21.27,0,0,0,0-18.68A.76.76,0,0,1,452.94,207Z" fill="none" stroke="#003a50" stroke-miterlimit="10"/><path d="M457.37,207a.79.79,0,0,1,1.51-.35,22.88,22.88,0,0,1,0,20.08.78.78,0,0,1-1.06.36.79.79,0,0,1-.37-1.06,21.27,21.27,0,0,0,0-18.68A.74.74,0,0,1,457.37,207Z" fill="none" stroke="#003a50" stroke-miterlimit="10"/><path d="M461.79,207a.8.8,0,0,1,1.52-.35,22.88,22.88,0,0,1,0,20.08.8.8,0,0,1-1.43-.7,21.27,21.27,0,0,0,0-18.68A.76.76,0,0,1,461.79,207Z" fill="none" stroke="#003a50" stroke-miterlimit="10"/><path d="M466.22,207a.8.8,0,0,1,.44-.72.81.81,0,0,1,1.08.37,22.88,22.88,0,0,1,0,20.08.8.8,0,0,1-1.44-.7,21.27,21.27,0,0,0,0-18.68A.74.74,0,0,1,466.22,207Z" fill="none" stroke="#003a50" stroke-miterlimit="10"/><path d="M470.64,207a.8.8,0,0,1,1.52-.35,22.88,22.88,0,0,1,0,20.08.8.8,0,0,1-1.43-.7,21.27,21.27,0,0,0,0-18.68A.76.76,0,0,1,470.64,207Z" fill="none" stroke="#003a50" stroke-miterlimit="10"/><path d="M475.07,207a.8.8,0,0,1,.44-.72.81.81,0,0,1,1.08.37,22.88,22.88,0,0,1,0,20.08.8.8,0,0,1-1.44-.7,21.27,21.27,0,0,0,0-18.68A.74.74,0,0,1,475.07,207Z" fill="none" stroke="#003a50" stroke-miterlimit="10"/><path d="M448.52,207a.79.79,0,0,1,1.51-.35,22.88,22.88,0,0,1,0,20.08.8.8,0,0,1-1.43-.7,21.27,21.27,0,0,0,0-18.68A.74.74,0,0,1,448.52,207Z" fill="none" stroke="#003a50" stroke-miterlimit="10"/><path d="M444.09,207a.8.8,0,0,1,1.52-.35,22.88,22.88,0,0,1,0,20.08.79.79,0,0,1-1.07.36.78.78,0,0,1-.36-1.06,21.27,21.27,0,0,0,0-18.68A.76.76,0,0,1,444.09,207Z" fill="none" stroke="#003a50" stroke-miterlimit="10"/></g><line x1="439.33" y1="216.64" x2="489.33" y2="216.64" fill="none" stroke="#003a50" stroke-miterlimit="10"/><rect x="489.33" y="196.97" width="27.05" height="50" fill="none" stroke="#003a50" stroke-miterlimit="10"/><g clip-path="url(#clip-path)"><path d="M493.17,233.36a.79.79,0,0,1-.35-1.51,22.88,22.88,0,0,1,20.08,0,.8.8,0,0,1-.7,1.43,21.27,21.27,0,0,0-18.68,0A.74.74,0,0,1,493.17,233.36Z" fill="none" stroke="#003a50" stroke-miterlimit="10"/><path d="M493.17,228.94a.8.8,0,0,1-.72-.44.81.81,0,0,1,.37-1.08,22.88,22.88,0,0,1,20.08,0,.8.8,0,0,1-.7,1.44,21.27,21.27,0,0,0-18.68,0A.74.74,0,0,1,493.17,228.94Z" fill="none" stroke="#003a50" stroke-miterlimit="10"/><path d="M493.17,224.51a.79.79,0,0,1-.35-1.51,22.88,22.88,0,0,1,20.08,0,.8.8,0,0,1-.7,1.43,21.27,21.27,0,0,0-18.68,0A.74.74,0,0,1,493.17,224.51Z" fill="none" stroke="#003a50" stroke-miterlimit="10"/><path d="M493.17,220.09a.8.8,0,0,1-.35-1.52,22.88,22.88,0,0,1,20.08,0,.79.79,0,0,1,.36,1.07.78.78,0,0,1-1.06.36,21.27,21.27,0,0,0-18.68,0A.76.76,0,0,1,493.17,220.09Z" fill="none" stroke="#003a50" stroke-miterlimit="10"/><path d="M493.17,215.66a.79.79,0,0,1-.35-1.51,22.88,22.88,0,0,1,20.08,0,.78.78,0,0,1,.36,1.06.79.79,0,0,1-1.06.37,21.27,21.27,0,0,0-18.68,0A.74.74,0,0,1,493.17,215.66Z" fill="none" stroke="#003a50" stroke-miterlimit="10"/><path d="M493.17,211.24a.8.8,0,0,1-.35-1.52,22.88,22.88,0,0,1,20.08,0,.8.8,0,0,1-.7,1.43,21.27,21.27,0,0,0-18.68,0A.76.76,0,0,1,493.17,211.24Z" fill="none" stroke="#003a50" stroke-miterlimit="10"/><path d="M493.17,237.79a.8.8,0,0,1-.72-.44.81.81,0,0,1,.37-1.08,22.88,22.88,0,0,1,20.08,0,.8.8,0,0,1-.7,1.44,21.27,21.27,0,0,0-18.68,0A.74.74,0,0,1,493.17,237.79Z" fill="none" stroke="#003a50" stroke-miterlimit="10"/><path d="M493.17,242.22a.8.8,0,0,1-.35-1.52,22.88,22.88,0,0,1,20.08,0,.8.8,0,0,1-.7,1.43,21.27,21.27,0,0,0-18.68,0A.76.76,0,0,1,493.17,242.22Z" fill="none" stroke="#003a50" stroke-miterlimit="10"/></g><line x1="502.86" y1="246.98" x2="502.86" y2="196.97" fill="none" stroke="#003a50" stroke-miterlimit="10"/><g clip-path="url(#clip-path)"><rect x="549.43" y="319" width="27.05" height="41.11" fill="none" stroke="#003a50" stroke-miterlimit="10"/><path d="M502.5,254a3.37,3.37,0,0,0,3.12-2.1h1.93l5.1,3.05-2.31,3.76-2.66-1.45v11.82h-11.1V257.27l-2.65,1.45L491.62,255l5.14-3.05h2.57A3.43,3.43,0,0,0,502.5,254Z" fill="none" stroke="#003a50" stroke-miterlimit="10"/></g><rect x="489.34" y="246.98" width="25.59" height="27.05" fill="none" stroke="#003a50" stroke-miterlimit="10"/><g clip-path="url(#clip-path)"><rect x="549.43" y="291.95" width="27.05" height="27.05" fill="none" stroke="#003a50" stroke-miterlimit="10"/><path d="M502.28,460.13h31V425.58H500.61v32.88A1.67,1.67,0,0,0,502.28,460.13Z" fill="none" stroke="#003a50" stroke-miterlimit="10"/><path d="M502.11,494.77h31.15V460.21H502.11a1.5,1.5,0,0,0-1.5,1.49v31.57A1.5,1.5,0,0,0,502.11,494.77Z" fill="none" stroke="#003a50" stroke-miterlimit="10"/><path d="M500.61,425.58a2.36,2.36,0,0,1-2.14-2.52v-3.18a2.36,2.36,0,0,1,2.14-2.52H537V503H500.93a2.35,2.35,0,0,1-2.14-2.52v-3.18a2.35,2.35,0,0,1,2.14-2.51h32.34V425.58Z" fill="none" stroke="#003a50" stroke-miterlimit="10"/></g><rect x="526.28" y="425.58" width="6.98" height="69.19" fill="none" stroke="#003a50" stroke-miterlimit="10"/><rect x="78.66" y="287.76" width="81.75" height="13.62" fill="none" stroke="#003a50" stroke-miterlimit="10"/><polygon points="85.09 294.14 119.45 296.96 153.98 294.14 153.98 292.17 85.09 292.17 85.09 294.14" fill="none" stroke="#003a50" stroke-miterlimit="10"/><g clip-path="url(#clip-path)"><rect x="199.68" y="-3.47" width="28.12" height="28.12" fill="none" stroke="#003a50" stroke-miterlimit="10"/><rect x="200.37" y="-3.47" width="47.28" height="31.2" fill="none" stroke="#003a50" stroke-miterlimit="10"/></g><rect x="508.93" y="304.95" width="28.24" height="26.69" fill="none" stroke="#003a50" stroke-miterlimit="10"/><g clip-path="url(#clip-path)"><path d="M519,317.67V309h6.74v8.66a2.77,2.77,0,0,1-2.77,2.78h-1.19A2.77,2.77,0,0,1,519,317.67Z" fill="none" stroke="#003a50" stroke-miterlimit="10"/></g><polyline points="525.11 328.74 522.38 328.74 519.65 328.74" fill="none" stroke="#003a50" stroke-miterlimit="10"/><line x1="522.38" y1="320.45" x2="522.38" y2="328.74" fill="none" stroke="#003a50" stroke-miterlimit="10"/><rect x="508.93" y="331.64" width="28.24" height="27.5" fill="none" stroke="#003a50" stroke-miterlimit="10"/><g clip-path="url(#clip-path)"><path d="M516.53,335.36a3.75,3.75,0,1,0,3.75,3.75A3.74,3.74,0,0,0,516.53,335.36Z" fill="none" stroke="#003a50" stroke-miterlimit="10"/><path d="M516.53,347.88a3.75,3.75,0,1,0,3.75,3.74A3.74,3.74,0,0,0,516.53,347.88Z" fill="none" stroke="#003a50" stroke-miterlimit="10"/><path d="M528.73,335.36a3.75,3.75,0,1,0,3.75,3.75A3.75,3.75,0,0,0,528.73,335.36Z" fill="none" stroke="#003a50" stroke-miterlimit="10"/><path d="M528.73,347.88a3.75,3.75,0,1,0,3.75,3.74A3.75,3.75,0,0,0,528.73,347.88Z" fill="none" stroke="#003a50" stroke-miterlimit="10"/></g><polyline points="488.74 283.31 484.07 283.31 479.41 283.31" fill="none" stroke="#003a50" stroke-miterlimit="10"/><line x1="484.06" y1="292.67" x2="484.06" y2="283.31" fill="none" stroke="#003a50" stroke-miterlimit="10"/><g clip-path="url(#clip-path)"><rect x="473.76" y="287.31" width="20.66" height="14.9" rx="3.24" fill="none" stroke="#003a50" stroke-miterlimit="10"/><path d="M484.06,293.83a1.67,1.67,0,1,0-1.67-1.67A1.67,1.67,0,0,0,484.06,293.83Z" fill="none" stroke="#003a50" stroke-miterlimit="10"/></g><rect x="439.38" y="278.24" width="26.74" height="26.74" fill="none" stroke="#003a50" stroke-miterlimit="10"/><line x1="444.91" y1="291.61" x2="460.6" y2="291.61" fill="none" stroke="#003a50" stroke-miterlimit="10"/><line x1="452.75" y1="283.77" x2="452.75" y2="299.46" fill="none" stroke="#003a50" stroke-miterlimit="10"/><line x1="447.21" y1="286.07" x2="458.3" y2="297.16" fill="none" stroke="#003a50" stroke-miterlimit="10"/><line x1="458.3" y1="286.07" x2="447.21" y2="297.16" fill="none" stroke="#003a50" stroke-miterlimit="10"/><rect x="466.12" y="277.86" width="42.81" height="27.09" fill="none" stroke="#003a50" stroke-miterlimit="10"/><rect x="508.93" y="278.24" width="28.24" height="80.89" fill="none" stroke="#003a50" stroke-miterlimit="10"/><g clip-path="url(#clip-path)"><path d="M551.39,471h0a1,1,0,0,0-1,1v52.73a1,1,0,1,0,1.93,0V472A1,1,0,0,0,551.39,471Z" fill="none" stroke="#003a50" stroke-miterlimit="10"/><rect x="548.81" y="469.22" width="23.56" height="58.2" rx="2.29" fill="none" stroke="#003a50" stroke-miterlimit="10"/><path d="M278.83,524.06h0a1,1,0,0,0,1,1h52.74a1,1,0,0,0,0-1.94H279.8A1,1,0,0,0,278.83,524.06Z" fill="none" stroke="#003a50" stroke-miterlimit="10"/><path d="M314.64,503.07a10.23,10.23,0,0,0-16.19-11,.77.77,0,0,0-.12,1.11.79.79,0,0,0,1.11.12,8.63,8.63,0,0,1,13.5,9.8Z" fill="none" stroke="#003a50" stroke-miterlimit="10"/><rect x="277.06" y="503.07" width="58.2" height="23.56" rx="2.29" fill="none" stroke="#003a50" stroke-miterlimit="10"/><path d="M286.54,514a3.82,3.82,0,1,1-5.4,0A3.82,3.82,0,0,1,286.54,514Z" fill="none" stroke="#003a50" stroke-miterlimit="10"/><path d="M286.25,513.7c-.07.71.2,1.42-.49,2.1-1,1-2.08-.06-3.09,1s.06,2.08-1,3.1" fill="none" stroke="#003a50" stroke-miterlimit="10"/><path d="M311.38,503.07a7.36,7.36,0,1,0-13.57,0Z" fill="none" stroke="#003a50" stroke-miterlimit="10"/></g><rect x="445.69" y="138.16" width="27.05" height="60.16" fill="none" stroke="#003a50" stroke-miterlimit="10"/><g clip-path="url(#clip-path)"><path d="M449.52,184.7a.78.78,0,0,1-.71-.44.8.8,0,0,1,.36-1.07,22.91,22.91,0,0,1,20.09,0,.8.8,0,0,1,.36,1.07.79.79,0,0,1-1.06.36,21.3,21.3,0,0,0-18.69,0A.72.72,0,0,1,449.52,184.7Z" fill="none" stroke="#003a50" stroke-miterlimit="10"/><path d="M449.52,180.28a.79.79,0,0,1-.71-.45.81.81,0,0,1,.36-1.07,22.91,22.91,0,0,1,20.09,0,.8.8,0,0,1,.36,1.07.78.78,0,0,1-1.06.36,21.3,21.3,0,0,0-18.69,0A.73.73,0,0,1,449.52,180.28Z" fill="none" stroke="#003a50" stroke-miterlimit="10"/><path d="M449.52,175.85a.78.78,0,0,1-.71-.44.8.8,0,0,1,.36-1.07,22.91,22.91,0,0,1,20.09,0,.8.8,0,0,1-.7,1.43,21.3,21.3,0,0,0-18.69,0A.72.72,0,0,1,449.52,175.85Z" fill="none" stroke="#003a50" stroke-miterlimit="10"/><path d="M449.52,171.43a.79.79,0,0,1-.71-.45.81.81,0,0,1,.36-1.07,22.91,22.91,0,0,1,20.09,0,.8.8,0,0,1,.36,1.07.78.78,0,0,1-1.06.36,21.3,21.3,0,0,0-18.69,0A.73.73,0,0,1,449.52,171.43Z" fill="none" stroke="#003a50" stroke-miterlimit="10"/><path d="M449.52,167a.78.78,0,0,1-.71-.44.8.8,0,0,1,.36-1.07,22.91,22.91,0,0,1,20.09,0,.8.8,0,0,1-.7,1.43,21.3,21.3,0,0,0-18.69,0A.72.72,0,0,1,449.52,167Z" fill="none" stroke="#003a50" stroke-miterlimit="10"/><path d="M449.52,162.58a.79.79,0,0,1-.71-.45.81.81,0,0,1,.36-1.07,22.91,22.91,0,0,1,20.09,0,.8.8,0,0,1,.36,1.07.79.79,0,0,1-1.06.36,21.3,21.3,0,0,0-18.69,0A.73.73,0,0,1,449.52,162.58Z" fill="none" stroke="#003a50" stroke-miterlimit="10"/><path d="M449.52,189.13a.78.78,0,0,1-.71-.44.82.82,0,0,1,.36-1.08,22.91,22.91,0,0,1,20.09,0,.8.8,0,0,1,.36,1.07.79.79,0,0,1-1.06.37,21.3,21.3,0,0,0-18.69,0A.72.72,0,0,1,449.52,189.13Z" fill="none" stroke="#003a50" stroke-miterlimit="10"/><path d="M449.52,193.56a.79.79,0,0,1-.71-.45.81.81,0,0,1,.36-1.07,22.91,22.91,0,0,1,20.09,0,.8.8,0,0,1,.36,1.07.79.79,0,0,1-1.06.36,21.3,21.3,0,0,0-18.69,0A.73.73,0,0,1,449.52,193.56Z" fill="none" stroke="#003a50" stroke-miterlimit="10"/></g><line x1="459.21" y1="198.32" x2="459.21" y2="138.34" fill="none" stroke="#003a50" stroke-miterlimit="10"/><rect x="451.03" y="78.04" width="21.71" height="60.12" fill="none" stroke="#003a50" stroke-miterlimit="10"/><g clip-path="url(#clip-path)"><path d="M465.56,54.92h-7.35A7.19,7.19,0,0,0,451,62.11v7.34a7.19,7.19,0,0,0,7.18,7.18h7.35a7.18,7.18,0,0,0,7.18-7.18V62.11A7.18,7.18,0,0,0,465.56,54.92Z" fill="none" stroke="#003a50" stroke-miterlimit="10"/><line x1="552.64" y1="134.34" x2="534.92" y2="134.34" fill="none" stroke="#003a50" stroke-linecap="round" stroke-linejoin="round" stroke-width="0.96"/><line x1="482.7" y1="134.34" x2="532.65" y2="134.34" fill="none" stroke="#003a50" stroke-linecap="round" stroke-linejoin="round" stroke-width="0.96"/><line x1="482.7" y1="7.19" x2="532.65" y2="7.19" fill="none" stroke="#003a50" stroke-linecap="round" stroke-linejoin="round" stroke-width="0.96"/><line x1="482.7" y1="19.91" x2="532.65" y2="19.91" fill="none" stroke="#003a50" stroke-linecap="round" stroke-linejoin="round" stroke-width="0.96"/><line x1="482.7" y1="32.62" x2="532.65" y2="32.62" fill="none" stroke="#003a50" stroke-linecap="round" stroke-linejoin="round" stroke-width="0.96"/><line x1="482.7" y1="45.34" x2="532.65" y2="45.34" fill="none" stroke="#003a50" stroke-linecap="round" stroke-linejoin="round" stroke-width="0.96"/><line x1="482.7" y1="58.05" x2="532.65" y2="58.05" fill="none" stroke="#003a50" stroke-linecap="round" stroke-linejoin="round" stroke-width="0.96"/><line x1="482.7" y1="70.77" x2="532.65" y2="70.77" fill="none" stroke="#003a50" stroke-linecap="round" stroke-linejoin="round" stroke-width="0.96"/><line x1="482.7" y1="83.48" x2="532.65" y2="83.48" fill="none" stroke="#003a50" stroke-linecap="round" stroke-linejoin="round" stroke-width="0.96"/><line x1="482.7" y1="96.2" x2="532.65" y2="96.2" fill="none" stroke="#003a50" stroke-linecap="round" stroke-linejoin="round" stroke-width="0.96"/><line x1="482.7" y1="108.91" x2="532.65" y2="108.91" fill="none" stroke="#003a50" stroke-linecap="round" stroke-linejoin="round" stroke-width="0.96"/><line x1="482.7" y1="121.63" x2="532.65" y2="121.63" fill="none" stroke="#003a50" stroke-linecap="round" stroke-linejoin="round" stroke-width="0.96"/><line x1="482.7" y1="134.34" x2="532.65" y2="134.34" fill="none" stroke="#003a50" stroke-linecap="round" stroke-linejoin="round" stroke-width="0.96"/><line x1="482.7" y1="7.19" x2="532.65" y2="7.19" fill="none" stroke="#003a50" stroke-linecap="round" stroke-linejoin="round" stroke-width="0.96"/><line x1="482.7" y1="19.91" x2="532.65" y2="19.91" fill="none" stroke="#003a50" stroke-linecap="round" stroke-linejoin="round" stroke-width="0.96"/><line x1="482.7" y1="32.62" x2="532.65" y2="32.62" fill="none" stroke="#003a50" stroke-linecap="round" stroke-linejoin="round" stroke-width="0.96"/><line x1="482.7" y1="45.34" x2="532.65" y2="45.34" fill="none" stroke="#003a50" stroke-linecap="round" stroke-linejoin="round" stroke-width="0.96"/><line x1="482.7" y1="58.05" x2="532.65" y2="58.05" fill="none" stroke="#003a50" stroke-linecap="round" stroke-linejoin="round" stroke-width="0.96"/><line x1="482.7" y1="70.77" x2="532.65" y2="70.77" fill="none" stroke="#003a50" stroke-linecap="round" stroke-linejoin="round" stroke-width="0.96"/><line x1="482.7" y1="83.48" x2="532.65" y2="83.48" fill="none" stroke="#003a50" stroke-linecap="round" stroke-linejoin="round" stroke-width="0.96"/><line x1="482.7" y1="96.2" x2="532.65" y2="96.2" fill="none" stroke="#003a50" stroke-linecap="round" stroke-linejoin="round" stroke-width="0.96"/><line x1="482.7" y1="108.91" x2="532.65" y2="108.91" fill="none" stroke="#003a50" stroke-linecap="round" stroke-linejoin="round" stroke-width="0.96"/><line x1="482.7" y1="121.63" x2="532.65" y2="121.63" fill="none" stroke="#003a50" stroke-linecap="round" stroke-linejoin="round" stroke-width="0.96"/><line x1="553.08" y1="134.34" x2="534.92" y2="134.34" fill="none" stroke="#003a50" stroke-linecap="round" stroke-linejoin="round" stroke-width="0.96"/><line x1="482.7" y1="134.34" x2="534.92" y2="134.34" fill="none" stroke="#003a50" stroke-linecap="round" stroke-linejoin="round" stroke-width="0.96"/><line x1="534.92" y1="134.34" x2="534.92" y2="-5.52" fill="none" stroke="#003a50" stroke-linecap="round" stroke-linejoin="round" stroke-width="0.96"/><line x1="482.7" y1="7.19" x2="534.92" y2="7.19" fill="none" stroke="#003a50" stroke-linecap="round" stroke-linejoin="round" stroke-width="0.96"/><line x1="482.7" y1="19.91" x2="534.92" y2="19.91" fill="none" stroke="#003a50" stroke-linecap="round" stroke-linejoin="round" stroke-width="0.96"/><line x1="482.7" y1="32.62" x2="534.92" y2="32.62" fill="none" stroke="#003a50" stroke-linecap="round" stroke-linejoin="round" stroke-width="0.96"/><line x1="482.7" y1="45.34" x2="534.92" y2="45.34" fill="none" stroke="#003a50" stroke-linecap="round" stroke-linejoin="round" stroke-width="0.96"/><line x1="482.7" y1="58.05" x2="534.92" y2="58.05" fill="none" stroke="#003a50" stroke-linecap="round" stroke-linejoin="round" stroke-width="0.96"/><line x1="482.7" y1="70.77" x2="534.92" y2="70.77" fill="none" stroke="#003a50" stroke-linecap="round" stroke-linejoin="round" stroke-width="0.96"/><line x1="482.7" y1="83.48" x2="534.92" y2="83.48" fill="none" stroke="#003a50" stroke-linecap="round" stroke-linejoin="round" stroke-width="0.96"/><line x1="482.7" y1="96.2" x2="534.92" y2="96.2" fill="none" stroke="#003a50" stroke-linecap="round" stroke-linejoin="round" stroke-width="0.96"/><line x1="482.7" y1="108.91" x2="534.92" y2="108.91" fill="none" stroke="#003a50" stroke-linecap="round" stroke-linejoin="round" stroke-width="0.96"/><line x1="482.7" y1="121.63" x2="534.92" y2="121.63" fill="none" stroke="#003a50" stroke-linecap="round" stroke-linejoin="round" stroke-width="0.96"/><line x1="482.7" y1="134.34" x2="534.92" y2="134.34" fill="none" stroke="#003a50" stroke-linecap="round" stroke-linejoin="round" stroke-width="0.96"/><line x1="482.7" y1="7.19" x2="534.92" y2="7.19" fill="none" stroke="#003a50" stroke-linecap="round" stroke-linejoin="round" stroke-width="0.96"/><line x1="482.7" y1="19.91" x2="534.92" y2="19.91" fill="none" stroke="#003a50" stroke-linecap="round" stroke-linejoin="round" stroke-width="0.96"/><line x1="482.7" y1="32.62" x2="534.92" y2="32.62" fill="none" stroke="#003a50" stroke-linecap="round" stroke-linejoin="round" stroke-width="0.96"/><line x1="482.7" y1="45.34" x2="534.92" y2="45.34" fill="none" stroke="#003a50" stroke-linecap="round" stroke-linejoin="round" stroke-width="0.96"/><line x1="482.7" y1="58.05" x2="534.92" y2="58.05" fill="none" stroke="#003a50" stroke-linecap="round" stroke-linejoin="round" stroke-width="0.96"/><line x1="482.7" y1="70.77" x2="534.92" y2="70.77" fill="none" stroke="#003a50" stroke-linecap="round" stroke-linejoin="round" stroke-width="0.96"/><line x1="482.7" y1="83.48" x2="534.92" y2="83.48" fill="none" stroke="#003a50" stroke-linecap="round" stroke-linejoin="round" stroke-width="0.96"/><line x1="482.7" y1="96.2" x2="534.92" y2="96.2" fill="none" stroke="#003a50" stroke-linecap="round" stroke-linejoin="round" stroke-width="0.96"/><line x1="482.7" y1="108.91" x2="534.92" y2="108.91" fill="none" stroke="#003a50" stroke-linecap="round" stroke-linejoin="round" stroke-width="0.96"/><line x1="482.7" y1="121.63" x2="534.92" y2="121.63" fill="none" stroke="#003a50" stroke-linecap="round" stroke-linejoin="round" stroke-width="0.96"/><line x1="532.65" y1="7.19" x2="532.65" y2="-5.52" fill="none" stroke="#003a50" stroke-linecap="round" stroke-linejoin="round" stroke-width="0.96"/><line x1="532.65" y1="136.61" x2="532.65" y2="7.2" fill="none" stroke="#003a50" stroke-linecap="round" stroke-linejoin="round" stroke-width="0.96"/><line x1="555.35" y1="136.61" x2="532.65" y2="136.61" fill="none" stroke="#003a50" stroke-linecap="round" stroke-linejoin="round" stroke-width="0.96"/><line x1="534.92" y1="7.19" x2="534.92" y2="-5.52" fill="none" stroke="#003a50" stroke-linecap="round" stroke-linejoin="round" stroke-width="0.96"/><line x1="534.92" y1="134.34" x2="534.92" y2="7.19" fill="none" stroke="#003a50" stroke-linecap="round" stroke-linejoin="round" stroke-width="0.96"/><line x1="553.08" y1="134.34" x2="534.92" y2="134.34" fill="none" stroke="#003a50" stroke-linecap="round" stroke-linejoin="round" stroke-width="0.96"/><line x1="532.65" y1="7.19" x2="532.65" y2="-5.52" fill="none" stroke="#003a50" stroke-linecap="round" stroke-linejoin="round" stroke-width="0.96"/><line x1="532.65" y1="136.61" x2="532.65" y2="7.2" fill="none" stroke="#003a50" stroke-linecap="round" stroke-linejoin="round" stroke-width="0.96"/><line x1="555.35" y1="136.61" x2="532.65" y2="136.61" fill="none" stroke="#003a50" stroke-linecap="round" stroke-linejoin="round" stroke-width="0.96"/><line x1="534.92" y1="7.19" x2="534.92" y2="-5.52" fill="none" stroke="#003a50" stroke-linecap="round" stroke-linejoin="round" stroke-width="0.96"/><line x1="534.92" y1="134.34" x2="534.92" y2="7.19" fill="none" stroke="#003a50" stroke-linecap="round" stroke-linejoin="round" stroke-width="0.96"/><line x1="553.08" y1="134.34" x2="534.92" y2="134.34" fill="none" stroke="#003a50" stroke-linecap="round" stroke-linejoin="round" stroke-width="0.96"/><line x1="508.81" y1="7.19" x2="508.81" y2="-5.52" fill="none" stroke="#003a50" stroke-linecap="round" stroke-linejoin="round" stroke-width="0.96"/><line x1="508.81" y1="19.91" x2="508.81" y2="7.19" fill="none" stroke="#003a50" stroke-linecap="round" stroke-linejoin="round" stroke-width="0.96"/><line x1="508.81" y1="32.62" x2="508.81" y2="19.91" fill="none" stroke="#003a50" stroke-linecap="round" stroke-linejoin="round" stroke-width="0.96"/><line x1="508.81" y1="45.34" x2="508.81" y2="32.62" fill="none" stroke="#003a50" stroke-linecap="round" stroke-linejoin="round" stroke-width="0.96"/><line x1="508.81" y1="58.05" x2="508.81" y2="45.34" fill="none" stroke="#003a50" stroke-linecap="round" stroke-linejoin="round" stroke-width="0.96"/><line x1="508.81" y1="70.77" x2="508.81" y2="58.05" fill="none" stroke="#003a50" stroke-linecap="round" stroke-linejoin="round" stroke-width="0.96"/><line x1="508.81" y1="83.48" x2="508.81" y2="70.77" fill="none" stroke="#003a50" stroke-linecap="round" stroke-linejoin="round" stroke-width="0.96"/><line x1="508.81" y1="96.2" x2="508.81" y2="83.48" fill="none" stroke="#003a50" stroke-linecap="round" stroke-linejoin="round" stroke-width="0.96"/><line x1="508.81" y1="108.91" x2="508.81" y2="96.2" fill="none" stroke="#003a50" stroke-linecap="round" stroke-linejoin="round" stroke-width="0.96"/><line x1="508.81" y1="121.63" x2="508.81" y2="108.91" fill="none" stroke="#003a50" stroke-linecap="round" stroke-linejoin="round" stroke-width="0.96"/><line x1="508.81" y1="134.34" x2="508.81" y2="121.63" fill="none" stroke="#003a50" stroke-linecap="round" stroke-linejoin="round" stroke-width="0.96"/><line x1="510.6" y1="8.1" x2="508.81" y2="-5.52" fill="none" stroke="#003a50" stroke-linecap="round" stroke-linejoin="round" stroke-width="0.96"/><line x1="508.81" y1="-5.52" x2="507.01" y2="8.1" fill="none" stroke="#003a50" stroke-linecap="round" stroke-linejoin="round" stroke-width="0.96"/><line x1="507.01" y1="8.1" x2="510.6" y2="8.1" fill="none" stroke="#003a50" stroke-linecap="round" stroke-linejoin="round" stroke-width="0.96"/><polygon points="510.6 8.1 508.81 -5.52 507.01 8.1 510.6 8.1" fill="#003a50" fill-rule="evenodd"/><line x1="508.81" y1="136.05" x2="510.01" y2="135.55" fill="none" stroke="#003a50" stroke-linecap="round" stroke-linejoin="round" stroke-width="0.96"/><line x1="510.01" y1="135.55" x2="510.51" y2="134.34" fill="none" stroke="#003a50" stroke-linecap="round" stroke-linejoin="round" stroke-width="0.96"/><line x1="510.51" y1="134.34" x2="510.01" y2="133.14" fill="none" stroke="#003a50" stroke-linecap="round" stroke-linejoin="round" stroke-width="0.96"/><line x1="510.01" y1="133.14" x2="508.81" y2="132.64" fill="none" stroke="#003a50" stroke-linecap="round" stroke-linejoin="round" stroke-width="0.96"/><line x1="508.81" y1="132.64" x2="507.6" y2="133.14" fill="none" stroke="#003a50" stroke-linecap="round" stroke-linejoin="round" stroke-width="0.96"/><line x1="507.6" y1="133.14" x2="507.1" y2="134.34" fill="none" stroke="#003a50" stroke-linecap="round" stroke-linejoin="round" stroke-width="0.96"/><line x1="507.1" y1="134.34" x2="507.6" y2="135.55" fill="none" stroke="#003a50" stroke-linecap="round" stroke-linejoin="round" stroke-width="0.96"/><line x1="507.6" y1="135.55" x2="508.81" y2="136.05" fill="none" stroke="#003a50" stroke-linecap="round" stroke-linejoin="round" stroke-width="0.96"/><polygon points="508.81 136.04 510.01 135.54 510.51 134.34 510.01 133.14 508.81 132.64 507.6 133.14 507.1 134.34 507.6 135.54 508.81 136.04" fill="#003a50" fill-rule="evenodd"/><path d="M510.51,134.34a1.7,1.7,0,1,0-1.7,1.71A1.7,1.7,0,0,0,510.51,134.34Z" fill="none" stroke="#003a50" stroke-linecap="round" stroke-linejoin="round" stroke-width="0.96"/><path d="M510.51,134.34a1.7,1.7,0,1,0-1.7,1.71,1.7,1.7,0,0,0,1.7-1.71" fill="#003a50" fill-rule="evenodd"/><line x1="508.81" y1="134.34" x2="508.81" y2="-5.52" fill="none" stroke="#003a50" stroke-linecap="round" stroke-linejoin="round" stroke-width="0.96"/><line x1="510.6" y1="8.1" x2="508.81" y2="-5.52" fill="none" stroke="#003a50" stroke-linecap="round" stroke-linejoin="round" stroke-width="0.96"/><line x1="508.81" y1="-5.52" x2="507.01" y2="8.1" fill="none" stroke="#003a50" stroke-linecap="round" stroke-linejoin="round" stroke-width="0.96"/><line x1="507.01" y1="8.1" x2="510.6" y2="8.1" fill="none" stroke="#003a50" stroke-linecap="round" stroke-linejoin="round" stroke-width="0.96"/><polygon points="510.6 8.1 508.81 -5.52 507.01 8.1 510.6 8.1" fill="#003a50" fill-rule="evenodd"/><line x1="508.81" y1="136.05" x2="510.01" y2="135.55" fill="none" stroke="#003a50" stroke-linecap="round" stroke-linejoin="round" stroke-width="0.96"/><line x1="510.01" y1="135.55" x2="510.51" y2="134.34" fill="none" stroke="#003a50" stroke-linecap="round" stroke-linejoin="round" stroke-width="0.96"/><line x1="510.51" y1="134.34" x2="510.01" y2="133.14" fill="none" stroke="#003a50" stroke-linecap="round" stroke-linejoin="round" stroke-width="0.96"/><line x1="510.01" y1="133.14" x2="508.81" y2="132.64" fill="none" stroke="#003a50" stroke-linecap="round" stroke-linejoin="round" stroke-width="0.96"/><line x1="508.81" y1="132.64" x2="507.6" y2="133.14" fill="none" stroke="#003a50" stroke-linecap="round" stroke-linejoin="round" stroke-width="0.96"/><line x1="507.6" y1="133.14" x2="507.1" y2="134.34" fill="none" stroke="#003a50" stroke-linecap="round" stroke-linejoin="round" stroke-width="0.96"/><line x1="507.1" y1="134.34" x2="507.6" y2="135.55" fill="none" stroke="#003a50" stroke-linecap="round" stroke-linejoin="round" stroke-width="0.96"/><line x1="507.6" y1="135.55" x2="508.81" y2="136.05" fill="none" stroke="#003a50" stroke-linecap="round" stroke-linejoin="round" stroke-width="0.96"/><polygon points="508.81 136.04 510.01 135.54 510.51 134.34 510.01 133.14 508.81 132.64 507.6 133.14 507.1 134.34 507.6 135.54 508.81 136.04" fill="#003a50" fill-rule="evenodd"/><path d="M510.51,134.34a1.7,1.7,0,1,0-1.7,1.71A1.7,1.7,0,0,0,510.51,134.34Z" fill="none" stroke="#003a50" stroke-linecap="round" stroke-linejoin="round" stroke-width="0.96"/><path d="M510.51,134.34a1.7,1.7,0,1,0-1.7,1.71,1.7,1.7,0,0,0,1.7-1.71" fill="#003a50" fill-rule="evenodd"/><path d="M327.78,304.66v2.25c0,15.59-13.64,28.22-30.46,28.22V304.66" fill="none" stroke="#003a50" stroke-miterlimit="10" stroke-width="1.6"/><path d="M278.67,151.43v2.24c0,15.59,13.64,28.22,30.46,28.22V151.43" fill="none" stroke="#003a50" stroke-miterlimit="10" stroke-width="1.6"/><path d="M187.62,347.09h-2.68c-18.64,0-33.75-16.31-33.75-36.42h36.43" fill="none" stroke="#003a50" stroke-miterlimit="10" stroke-width="1.6"/><path d="M364.2,155.66h-2.68c-18.64,0-33.74,16.31-33.74,36.43H364.2" fill="none" stroke="#003a50" stroke-miterlimit="10" stroke-width="1.6"/><path d="M152.49,0V2.66c0,18.64,16.31,33.74,36.43,33.74V0" fill="none" stroke="#003a50" stroke-miterlimit="10" stroke-width="1.6"/><path d="M268.45,361.38v2.68c0,18.64-16.31,33.75-36.43,33.75V361.38" fill="none" stroke="#003a50" stroke-miterlimit="10" stroke-width="1.6"/><path d="M421.67,43.44V40.36c0-21.42-18.73-38.77-41.85-38.77V43.44" fill="none" stroke="#003a50" stroke-miterlimit="10" stroke-width="1.6"/></g><line x1="430.12" y1="224.27" x2="430.12" y2="259" fill="none" stroke="#003a50" stroke-miterlimit="10" stroke-width="1.6"/><rect x="221.95" y="24.28" width="3.86" height="5.6" fill="#003a50"/><rect x="230.16" y="145.96" width="49.32" height="5.75" fill="#003a50"/><rect x="230.16" y="51.35" width="126" height="5.75" fill="#003a50"/><rect x="359.65" y="140.38" width="5.75" height="16.2" fill="#003a50"/><rect x="359.65" y="191.13" width="5.75" height="115.35" fill="#003a50"/><rect x="254.82" y="228.04" width="5.75" height="76.62" fill="#003a50"/><rect x="35.82" y="300.73" width="262.46" height="5.75" fill="#003a50"/><rect x="254.82" y="228.04" width="108.96" height="5.75" fill="#003a50"/><rect x="334.17" y="247.67" width="29.29" height="5.75" fill="#003a50"/><rect x="334.17" y="230.33" width="5.75" height="22.6" fill="#003a50"/><rect x="188.93" y="358.51" width="43.87" height="5.75" fill="#003a50"/><rect x="267.6" y="358.51" width="72.95" height="5.75" fill="#003a50"/><rect x="326.91" y="300.73" width="36.19" height="5.75" fill="#003a50"/><rect x="434.11" y="197.75" width="115.81" height="5.75" fill="#003a50"/><rect x="516.61" y="242.62" width="33.31" height="5.75" fill="#003a50"/><rect x="435.9" y="40.49" width="5.75" height="10.04" fill="#003a50"/><rect x="436.99" y="273.5" width="103.54" height="5.75" fill="#003a50"/><rect x="547.37" y="286.66" width="2.55" height="5.75" fill="#003a50"/><rect x="547.36" y="358.51" width="2.56" height="5.75" fill="#003a50"/><rect x="434.11" y="197.75" width="5.75" height="37.48" fill="#003a50"/><rect x="434.11" y="264.04" width="5.75" height="41.44" fill="#003a50"/><rect x="514.36" y="201.41" width="5.75" height="73" fill="#003a50"/><rect x="186.05" y="346.26" width="5.75" height="189.4" fill="#003a50"/><rect x="334.8" y="358.51" width="5.75" height="189.4" fill="#003a50"/><rect x="186.05" y="302.85" width="5.75" height="8.57" fill="#003a50"/><rect x="308.33" y="145.96" width="57.08" height="5.75" fill="#003a50"/><rect x="113.33" y="532" width="26.83" height="15" fill="#003a50"/><rect x="272.91" y="532" width="26.83" height="15" fill="#003a50"/><rect x="272.91" y="541.91" width="86" height="22" fill="#003a50"/><rect x="272.91" y="541.92" width="86" height="22" fill="none" stroke="#003a50" stroke-miterlimit="10" stroke-width="2.09"/><polygon points="507.91 541.91 507.91 562.9 549.92 567.55 549.92 541.91 507.91 541.91" fill="#003a50"/><g clip-path="url(#clip-path)"><polygon points="593.91 572.41 593.91 541.91 507.91 541.91 507.91 562.9 593.91 572.41" fill="none" stroke="#003a50" stroke-miterlimit="10" stroke-width="2.09"/></g><rect x="421.91" y="532" width="22.08" height="40.42" fill="#003a50"/><g clip-path="url(#clip-path)"><rect x="421.91" y="532" width="22.08" height="40.42" fill="none" stroke="#003a50" stroke-miterlimit="10" stroke-width="2.09"/></g><rect x="507.91" y="527.29" width="42.02" height="30.5" fill="#003a50"/><g clip-path="url(#clip-path)"><rect x="507.91" y="527.29" width="68.75" height="30.5" fill="none" stroke="#003a50" stroke-miterlimit="10" stroke-width="2.09"/></g><rect x="290.16" y="527.29" width="68.75" height="30.5" fill="#003a50"/><rect x="290.16" y="527.29" width="68.75" height="30.5" fill="none" stroke="#003a50" stroke-miterlimit="10" stroke-width="2.09"/><rect x="131.24" y="527.41" width="69" height="23.25" fill="#003a50"/><rect x="131.24" y="527.42" width="69" height="23.25" fill="none" stroke="#003a50" stroke-miterlimit="10" stroke-width="2.09"/><rect x="114.24" y="541.91" width="86" height="19.02" fill="#003a50"/><rect x="114.24" y="541.91" width="86" height="19.02" fill="none" stroke="#003a50" stroke-miterlimit="10" stroke-width="2.09"/><rect x="114.24" y="553.39" width="86" height="19.02" fill="#003a50"/><g clip-path="url(#clip-path)"><rect x="114.24" y="553.39" width="86" height="19.02" fill="none" stroke="#003a50" stroke-miterlimit="10" stroke-width="2.09"/></g><rect x="0.91" y="456.17" width="40.59" height="116.25" fill="#003a50"/><g clip-path="url(#clip-path)"><rect x="0.91" y="456.17" width="40.58" height="116.25" fill="none" stroke="#003a50" stroke-miterlimit="10" stroke-width="2.09"/></g><polygon points="10.32 286 0 373.09 0 373.17 30.91 373.17 30.91 286 10.32 286" fill="#003a50"/><g clip-path="url(#clip-path)"><polygon points="30.91 373.17 30.91 286 10.32 286 -0.01 373.17 30.91 373.17" fill="none" stroke="#003a50" stroke-miterlimit="10" stroke-width="2.09"/></g><rect x="22.03" y="286" width="19.46" height="87.17" fill="#003a50"/><rect x="22.03" y="286" width="19.46" height="87.17" fill="none" stroke="#003a50" stroke-miterlimit="10" stroke-width="2.09"/><rect x="12.85" y="138.05" width="28.64" height="76.61" fill="#003a50"/><g clip-path="url(#clip-path)"><rect x="12.85" y="128.42" width="28.64" height="86.25" fill="none" stroke="#003a50" stroke-miterlimit="10" stroke-width="2.09"/></g><rect x="221.95" y="24.28" width="134.2" height="13.76" fill="#003a50"/><rect x="357.82" y="40.31" width="22.79" height="13.92" fill="#003a50"/><polygon points="420.78 40.31 420.78 54.23 477.49 54.23 477.49 40.49 423.31 40.49 423.31 40.31 420.78 40.31" fill="#003a50"/><polygon points="472.4 191.67 472.4 203.5 549.92 203.5 549.92 191.91 484.27 191.91 484.27 191.67 472.4 191.67" fill="#003a50"/><polygon points="221.95 24.28 221.95 138.05 221.9 138.05 221.9 151.71 235.81 151.71 235.81 24.28 221.95 24.28" fill="#003a50"/><rect x="245.4" y="236.66" width="13.92" height="68" fill="#003a50"/><rect x="536.24" y="199.5" width="13.68" height="339.54" fill="#003a50"/><polygon points="221.95 137.8 221.95 138.05 34.44 138.05 34.44 151.71 235.66 151.71 235.66 137.8 221.95 137.8" fill="#003a50"/><rect x="351.49" y="24.28" width="13.92" height="127.14" fill="#003a50"/><polygon points="472.41 40.49 472.41 203.27 484.44 203.27 484.44 191.91 484.27 191.91 484.27 40.49 472.41 40.49" fill="#003a50"/><rect x="1.82" y="191.42" width="28.64" height="23.25" fill="#003a50"/><g clip-path="url(#clip-path)"><rect x="1.82" y="191.42" width="28.64" height="23.25" fill="none" stroke="#003a50" stroke-miterlimit="10" stroke-width="2.09"/><path d="M101.26,23.28l-2.49,2V23l2.73-2.26h1.86V32.64h-2.1Z" fill="#003a50"/><path d="M107.88,23.28l-2.48,2V23l2.73-2.26H110V32.64h-2.11Z" fill="#003a50"/><path d="M112.52,32.5a1,1,0,0,1-.33-.8,1,1,0,0,1,.33-.81,1.4,1.4,0,0,1,1.73,0,1,1,0,0,1,.33.81,1,1,0,0,1-.33.8,1.4,1.4,0,0,1-1.73,0Z" fill="#003a50"/><path d="M126.14,24.08h-2.21s0-.06,0-.17a2.53,2.53,0,0,0-.22-.44,2.07,2.07,0,0,0-.38-.5,1.93,1.93,0,0,0-.71-.41,3,3,0,0,0-1-.16,2.49,2.49,0,0,0-2.15,1,4.39,4.39,0,0,0-.77,2.68h.06a1.8,1.8,0,0,1,.44-.43,3.55,3.55,0,0,1,.61-.37,3.81,3.81,0,0,1,.95-.3,5.43,5.43,0,0,1,1.22-.13A5.05,5.05,0,0,1,125.3,26a3.51,3.51,0,0,1,1.3,2.8,3.58,3.58,0,0,1-1.36,2.91,5.56,5.56,0,0,1-3.61,1.1,4.83,4.83,0,0,1-3.87-1.54A6.38,6.38,0,0,1,116.44,27v-.41a6.85,6.85,0,0,1,1.32-4.31,4.54,4.54,0,0,1,3.81-1.71,5.61,5.61,0,0,1,2.12.37,4,4,0,0,1,1.44.94A3.46,3.46,0,0,1,126.14,24.08Zm-2.51,3.15a3.67,3.67,0,0,0-4,0,2,2,0,0,0,0,3.15,3.21,3.21,0,0,0,2,.59,3.26,3.26,0,0,0,2-.59,2,2,0,0,0,0-3.15Z" fill="#003a50"/><path d="M98.72,264.13l-2.48,2v-2.25L99,261.58h1.86v11.91H98.72Z" fill="#003a50"/><path d="M108.73,265.5a5,5,0,0,1,3.34,1.07,4.17,4.17,0,0,1,0,6,5.37,5.37,0,0,1-3.54,1.08,5.75,5.75,0,0,1-3.56-1,3.16,3.16,0,0,1-1.29-2.68h2.11a1.53,1.53,0,0,0,.7,1.33,3.61,3.61,0,0,0,2,.49,3.17,3.17,0,0,0,2-.58,2,2,0,0,0,.7-1.68,2.05,2.05,0,0,0-.73-1.71,3.32,3.32,0,0,0-2.08-.58,3.54,3.54,0,0,0-1.91.42,1.84,1.84,0,0,0-.7.64l-.05.12h-2.11v-6.87h8.88v1.84h-6.77v3h.05a1.91,1.91,0,0,1,.4-.31,3.89,3.89,0,0,1,.54-.27A5.69,5.69,0,0,1,108.73,265.5Z" fill="#003a50"/><path d="M115.43,273.35a1,1,0,0,1-.32-.8,1,1,0,0,1,.32-.81,1.41,1.41,0,0,1,1.74,0,1.07,1.07,0,0,1,.32.81,1,1,0,0,1-.32.8,1.41,1.41,0,0,1-1.74,0Z" fill="#003a50"/><path d="M129.21,273.49h-9.93v-1.57a2.76,2.76,0,0,1,.58-1.74,4,4,0,0,1,1.44-1.2c.5-.25,1.12-.54,1.87-.86s1.32-.56,1.88-.77a4.09,4.09,0,0,0,1.44-.92,1.78,1.78,0,0,0,.57-1.3c0-1.26-.88-1.88-2.66-1.88s-2.67.72-2.67,2.15v.41h-2.11v-.41a3.62,3.62,0,0,1,1.26-3,5.36,5.36,0,0,1,3.51-1,5.61,5.61,0,0,1,3.51,1,3.29,3.29,0,0,1,1.27,2.75,3.17,3.17,0,0,1-.55,1.84,4.39,4.39,0,0,1-1.41,1.3c-.59.34-1.21.65-1.83.93s-1.24.53-1.83.75a5.55,5.55,0,0,0-1.4.74,1.25,1.25,0,0,0-.57,1h7.63Z" fill="#003a50"/><path d="M99.69,371.27l-2.48,2V371l2.73-2.27h1.86v11.91H99.69Z" fill="#003a50"/><path d="M109.7,372.64A5,5,0,0,1,113,373.7a4.18,4.18,0,0,1-.05,6,5.38,5.38,0,0,1-3.54,1.07,5.75,5.75,0,0,1-3.56-1,3.15,3.15,0,0,1-1.29-2.68h2.11a1.51,1.51,0,0,0,.7,1.33,3.53,3.53,0,0,0,2,.49,3.17,3.17,0,0,0,2-.57,2.06,2.06,0,0,0,.7-1.69,2,2,0,0,0-.73-1.7,3.28,3.28,0,0,0-2.08-.58,3.64,3.64,0,0,0-1.91.41,1.92,1.92,0,0,0-.7.64l-.05.13H104.6v-6.88h8.88v1.84h-6.77v3h.05a1.91,1.91,0,0,1,.4-.31,3.82,3.82,0,0,1,.54-.26A5.66,5.66,0,0,1,109.7,372.64Z" fill="#003a50"/><path d="M116.4,380.49a1,1,0,0,1-.32-.81,1,1,0,0,1,.32-.81,1.45,1.45,0,0,1,1.74,0,1.07,1.07,0,0,1,.32.81,1,1,0,0,1-.32.81,1.45,1.45,0,0,1-1.74,0Z" fill="#003a50"/><path d="M123.51,380.62h-2.35l5.41-10h-6.92v-1.88h9.28v1.88Z" fill="#003a50"/><path d="M419.05,486h-9.93v-1.56a2.74,2.74,0,0,1,.58-1.74,4,4,0,0,1,1.44-1.2c.5-.25,1.12-.54,1.87-.86s1.32-.56,1.88-.77a4.09,4.09,0,0,0,1.44-.92,1.8,1.8,0,0,0,.58-1.3q0-1.89-2.67-1.89T411.57,478v.41h-2.11V478a3.62,3.62,0,0,1,1.26-3,5.34,5.34,0,0,1,3.51-1,5.61,5.61,0,0,1,3.51,1,3.29,3.29,0,0,1,1.27,2.75,3.11,3.11,0,0,1-.55,1.83,4.31,4.31,0,0,1-1.41,1.31c-.59.34-1.21.65-1.83.93s-1.24.52-1.83.75a5.55,5.55,0,0,0-1.4.74,1.23,1.23,0,0,0-.57,1h7.63Z" fill="#003a50"/><path d="M431,486h-9.93v-1.56a2.8,2.8,0,0,1,.58-1.74,4,4,0,0,1,1.45-1.2c.5-.25,1.12-.54,1.87-.86s1.32-.56,1.87-.77a4.14,4.14,0,0,0,1.45-.92,1.78,1.78,0,0,0,.57-1.3c0-1.26-.89-1.89-2.66-1.89s-2.68.72-2.68,2.16v.41h-2.11V478a3.62,3.62,0,0,1,1.26-3,5.39,5.39,0,0,1,3.52-1,5.65,5.65,0,0,1,3.51,1,3.29,3.29,0,0,1,1.27,2.75,3.05,3.05,0,0,1-.56,1.83,4.18,4.18,0,0,1-1.4,1.31q-.9.51-1.83.93t-1.83.75a5.38,5.38,0,0,0-1.4.74,1.23,1.23,0,0,0-.57,1H431Z" fill="#003a50"/><path d="M433.12,485.9a1,1,0,0,1-.33-.8,1,1,0,0,1,.33-.81,1.4,1.4,0,0,1,1.73,0,1,1,0,0,1,.32.81,1,1,0,0,1-.32.8,1.4,1.4,0,0,1-1.73,0Z" fill="#003a50"/><path d="M440.22,486h-2.35l5.42-10h-6.93v-1.88h9.29V476Z" fill="#003a50"/><path d="M461.62,256.44h-9.93v-1.56a2.74,2.74,0,0,1,.58-1.74,4,4,0,0,1,1.44-1.2c.5-.25,1.12-.54,1.87-.86s1.32-.56,1.88-.77a4.24,4.24,0,0,0,1.44-.92,1.76,1.76,0,0,0,.58-1.3q0-1.89-2.67-1.89t-2.67,2.16v.41H452v-.41a3.62,3.62,0,0,1,1.26-3,5.36,5.36,0,0,1,3.51-1,5.66,5.66,0,0,1,3.52,1,3.3,3.3,0,0,1,1.27,2.75,3.14,3.14,0,0,1-.56,1.83,4.28,4.28,0,0,1-1.4,1.31c-.6.34-1.21.65-1.84.93s-1.23.52-1.83.75a5.25,5.25,0,0,0-1.4.74,1.22,1.22,0,0,0-.56,1h7.62Z" fill="#003a50"/><path d="M463.72,256.31a1,1,0,0,1-.32-.81,1,1,0,0,1,.32-.8,1.41,1.41,0,0,1,1.74,0,1.06,1.06,0,0,1,.32.8,1,1,0,0,1-.32.81,1.41,1.41,0,0,1-1.74,0Z" fill="#003a50"/><path d="M477.34,247.89h-2.21s0-.06,0-.18a2.05,2.05,0,0,0-.21-.44,2.63,2.63,0,0,0-.39-.49,1.67,1.67,0,0,0-.71-.41,3,3,0,0,0-1-.17,2.52,2.52,0,0,0-2.15,1,4.44,4.44,0,0,0-.76,2.69h.06a1.5,1.5,0,0,1,.44-.44,4.14,4.14,0,0,1,.6-.36,4.41,4.41,0,0,1,1-.31,6.16,6.16,0,0,1,1.22-.12,5,5,0,0,1,3.37,1.11,3.51,3.51,0,0,1,1.3,2.8,3.56,3.56,0,0,1-1.36,2.9,5.49,5.49,0,0,1-3.6,1.11,4.81,4.81,0,0,1-3.87-1.55,6.35,6.35,0,0,1-1.32-4.26v-.41a6.85,6.85,0,0,1,1.32-4.31,4.52,4.52,0,0,1,3.8-1.71,5.66,5.66,0,0,1,2.13.37,3.83,3.83,0,0,1,1.43.94A3.46,3.46,0,0,1,477.34,247.89ZM474.83,251a3.6,3.6,0,0,0-3.95,0,2,2,0,0,0,0,3.14,3.63,3.63,0,0,0,4,0,2,2,0,0,0,0-3.14Z" fill="#003a50"/><path d="M295.91,94.11a5,5,0,0,1,3.34,1.07,4.17,4.17,0,0,1-.05,6,5.38,5.38,0,0,1-3.54,1.08,5.75,5.75,0,0,1-3.56-1,3.16,3.16,0,0,1-1.29-2.68h2.11a1.53,1.53,0,0,0,.7,1.33,3.61,3.61,0,0,0,2,.49,3.17,3.17,0,0,0,2-.58,2,2,0,0,0,.7-1.68,2.05,2.05,0,0,0-.73-1.71,3.34,3.34,0,0,0-2.08-.58,3.54,3.54,0,0,0-1.91.42,1.84,1.84,0,0,0-.7.64l-.05.12h-2.11V90.19h8.88V92h-6.77v3H293a1.91,1.91,0,0,1,.4-.31,3.89,3.89,0,0,1,.54-.27A5.66,5.66,0,0,1,295.91,94.11Z" fill="#003a50"/><path d="M302.61,102a1,1,0,0,1-.32-.8,1,1,0,0,1,.32-.81,1.24,1.24,0,0,1,.87-.3,1.2,1.2,0,0,1,.86.3,1,1,0,0,1,.33.81,1,1,0,0,1-.33.8,1.2,1.2,0,0,1-.86.3A1.24,1.24,0,0,1,302.61,102Z" fill="#003a50"/><path d="M308,100.56a7.34,7.34,0,0,1,0-8.84,5.71,5.71,0,0,1,8.13,0,7.38,7.38,0,0,1,0,8.84,5.71,5.71,0,0,1-8.13,0Zm6.52-1.39a5,5,0,0,0,.88-3,5,5,0,0,0-.88-3,3.14,3.14,0,0,0-4.91,0,4.94,4.94,0,0,0-.88,3,4.89,4.89,0,0,0,.88,3,2.87,2.87,0,0,0,2.45,1.19A2.9,2.9,0,0,0,314.54,99.17Z" fill="#003a50"/><path d="M297.38,187.55h-5.83V185.7h8.87v1.85l-4.53,2.65v.06h1.28a3.87,3.87,0,0,1,2.79,1,3.5,3.5,0,0,1,1.05,2.66,3.34,3.34,0,0,1-1.33,2.83,7,7,0,0,1-7.24,0,3.4,3.4,0,0,1-1.33-2.86v-.33h2.11v.33c0,1.36.95,2,2.84,2s2.84-.66,2.84-2-.94-2-2.84-2H292.8V190.3l4.58-2.69Z" fill="#003a50"/><path d="M303.11,197.48a1,1,0,0,1-.32-.81,1.06,1.06,0,0,1,.32-.8,1.25,1.25,0,0,1,.88-.3,1.22,1.22,0,0,1,.86.3,1,1,0,0,1,.32.8,1,1,0,0,1-.32.81,1.22,1.22,0,0,1-.86.3A1.25,1.25,0,0,1,303.11,197.48Z" fill="#003a50"/><path d="M315.7,196.85a7.73,7.73,0,0,1-7.37,0,3,3,0,0,1-1.37-2.56,2.7,2.7,0,0,1,.26-1.16,2.41,2.41,0,0,1,.65-.86,4.14,4.14,0,0,1,1.4-.77l.26-.06v-.1a3,3,0,0,1-.77-.29,2.61,2.61,0,0,1-.66-.44,2.2,2.2,0,0,1-.54-.75,2.42,2.42,0,0,1-.23-1,2.82,2.82,0,0,1,1.26-2.39,5.81,5.81,0,0,1,3.42-.89,5.89,5.89,0,0,1,3.43.89,2.83,2.83,0,0,1,1.24,2.39,2.43,2.43,0,0,1-.22,1,1.87,1.87,0,0,1-.55.74,3.42,3.42,0,0,1-1.19.68l-.23.05v.1a1.27,1.27,0,0,1,.28.06,6.14,6.14,0,0,1,.63.27,4.09,4.09,0,0,1,.77.5,2.71,2.71,0,0,1,.61.83,2.52,2.52,0,0,1,.28,1.19A3,3,0,0,1,315.7,196.85Zm-5.79-1.36a3.75,3.75,0,0,0,2.1.49,3.84,3.84,0,0,0,2.1-.48,1.59,1.59,0,0,0,0-2.69,4.93,4.93,0,0,0-4.2,0,1.58,1.58,0,0,0,0,2.68Zm-.37-6.51a1.37,1.37,0,0,0,.65,1.19,4.07,4.07,0,0,0,3.64,0,1.42,1.42,0,0,0,0-2.39,3.94,3.94,0,0,0-3.62,0A1.36,1.36,0,0,0,309.54,189Z" fill="#003a50"/><path d="M244.43,337.69h-2.11V335h-7V333.2l6.3-7.42h2.79v7.42H246V335h-1.59Zm-2.11-4.49v-5.33h-.07l-4.47,5.28v.05Z" fill="#003a50"/><path d="M247.71,337.56a1.15,1.15,0,0,1,0-1.61,1.4,1.4,0,0,1,1.73,0,1.15,1.15,0,0,1,0,1.61,1.4,1.4,0,0,1-1.73,0Z" fill="#003a50"/><path d="M253.11,336.15a7.37,7.37,0,0,1,0-8.83,5.69,5.69,0,0,1,8.13,0,7.33,7.33,0,0,1,0,8.83,5.69,5.69,0,0,1-8.13,0Zm6.53-1.38a5.73,5.73,0,0,0,0-6.07,3.14,3.14,0,0,0-4.91,0,5.62,5.62,0,0,0,0,6.07,2.86,2.86,0,0,0,2.45,1.18A2.89,2.89,0,0,0,259.64,334.77Z" fill="#003a50"/><path d="M238.85,457.21l-2.48,2v-2.24l2.73-2.27H241v11.91h-2.11Z" fill="#003a50"/><path d="M245.48,457.21l-2.49,2v-2.24l2.74-2.27h1.86v11.91h-2.11Z" fill="#003a50"/><path d="M250.11,466.43a1.17,1.17,0,0,1,0-1.61,1.41,1.41,0,0,1,1.74,0,1.17,1.17,0,0,1,0,1.61,1.41,1.41,0,0,1-1.74,0Z" fill="#003a50"/><path d="M257.22,466.56h-2.35l5.41-10h-6.92v-1.88h9.28v1.88Z" fill="#003a50"/><path d="M308.58,282.64h-5.82v-1.85h8.86v1.85l-4.52,2.65v.06h1.28a3.87,3.87,0,0,1,2.79,1,3.52,3.52,0,0,1,1.05,2.66,3.33,3.33,0,0,1-1.33,2.83,7,7,0,0,1-7.24,0,3.37,3.37,0,0,1-1.33-2.86v-.32h2.11V289c0,1.36.95,2,2.84,2s2.84-.66,2.84-2-.94-2-2.84-2H304v-1.67l4.57-2.69Z" fill="#003a50"/><path d="M314.32,292.57a1,1,0,0,1-.32-.8,1.07,1.07,0,0,1,.32-.81,1.41,1.41,0,0,1,1.74,0,1.07,1.07,0,0,1,.32.81,1,1,0,0,1-.32.8,1.41,1.41,0,0,1-1.74,0Z" fill="#003a50"/><path d="M326.66,292.7h-2.11v-2.65h-7v-1.84l6.3-7.42h2.79v7.42h1.59v1.84h-1.59Zm-2.11-4.49v-5.32h-.07L320,288.16v0Z" fill="#003a50"/><path d="M394,92.74l-2.48,2V92.45l2.73-2.26h1.86V102.1H394Z" fill="#003a50"/><path d="M400.59,92.74l-2.48,2V92.45l2.73-2.26h1.86V102.1h-2.11Z" fill="#003a50"/><path d="M405.22,102a1,1,0,0,1-.32-.8,1.07,1.07,0,0,1,.32-.81,1.25,1.25,0,0,1,.88-.3,1.22,1.22,0,0,1,.86.3,1.07,1.07,0,0,1,.32.81,1,1,0,0,1-.32.8,1.22,1.22,0,0,1-.86.3A1.25,1.25,0,0,1,405.22,102Z" fill="#003a50"/><path d="M410.63,100.56a7.34,7.34,0,0,1,0-8.84,5.71,5.71,0,0,1,8.13,0,7.34,7.34,0,0,1,0,8.84,5.71,5.71,0,0,1-8.13,0Zm6.53-1.39a5,5,0,0,0,.87-3,5,5,0,0,0-.87-3,3.15,3.15,0,0,0-4.92,0,5,5,0,0,0-.88,3,5,5,0,0,0,.88,3,3.14,3.14,0,0,0,4.92,0Z" fill="#003a50"/></g></svg>