<svg id="Слой_1" data-name="Слой 1" xmlns="http://www.w3.org/2000/svg" xmlns:xlink="http://www.w3.org/1999/xlink" viewBox="0 0 401.1 526.68"><defs><clipPath id="clip-path"><polygon points="40.64 1.21 40.64 415.13 0 415.13 0 526.61 401.1 526.61 401.1 1.21 40.64 1.21" fill="none"/></clipPath></defs><rect x="40.47" y="519.32" width="351.08" height="7.29" fill="#fff"/><polygon points="40.64 17.13 40.64 415.13 40.47 415.13 40.47 522.07 391.56 522.07 391.56 17.13 40.64 17.13" fill="#fff"/><line x1="60.97" y1="12.73" x2="362.06" y2="12.73" fill="none" stroke="#003a50" stroke-miterlimit="10"/><g clip-path="url(#clip-path)"><line x1="389.16" y1="24.35" x2="389.16" y2="1409.85" fill="none" stroke="#003a50" stroke-miterlimit="10"/><line x1="75.22" y1="-1112.81" x2="75.22" y2="13.19" fill="none" stroke="#003a50" stroke-miterlimit="10"/><polyline points="85.49 2.3 85.49 -1101.31 62.49 -1124.31 -779.14 -1124.31 -802.14 -1101.31 -802.14 244.81 -682.53 244.81 -682.53 1369.94" fill="none" stroke="#003a50" stroke-miterlimit="10"/><polyline points="-682.94 1416.13 300.97 1416.13 399.73 1391.99 399.73 2.3 92.82 2.3" fill="none" stroke="#003a50" stroke-miterlimit="10"/></g><rect x="93.59" y="29.16" width="70.98" height="4.55" fill="#fff"/><rect x="93.59" y="29.16" width="70.98" height="4.55" fill="none" stroke="#003a50" stroke-miterlimit="10"/><line x1="164.57" y1="31.44" x2="93.59" y2="31.44" fill="none" stroke="#003a50" stroke-miterlimit="10"/><rect x="160.08" y="29.16" width="4.49" height="4.55" fill="#fff"/><rect x="160.08" y="29.16" width="4.49" height="4.55" fill="none" stroke="#003a50" stroke-miterlimit="10"/><rect x="93.59" y="29.16" width="4.49" height="4.55" fill="#fff"/><rect x="93.59" y="29.16" width="4.49" height="4.55" fill="none" stroke="#003a50" stroke-miterlimit="10"/><rect x="129.08" y="29.16" width="4.49" height="4.55" fill="#fff"/><rect x="129.08" y="29.16" width="4.49" height="4.55" fill="none" stroke="#003a50" stroke-miterlimit="10"/><g clip-path="url(#clip-path)"><path d="M129.08,33.71v2.54c0,17.6-13.88,28.92-31,28.92V33.71" fill="none" stroke="#003a50" stroke-miterlimit="10"/></g><rect x="252.53" y="29.16" width="71.58" height="4.55" fill="#fff"/><rect x="252.53" y="29.16" width="71.58" height="4.55" fill="none" stroke="#003a50" stroke-miterlimit="10"/><line x1="324.11" y1="31.44" x2="252.53" y2="31.44" fill="none" stroke="#003a50" stroke-miterlimit="10"/><rect x="319.59" y="29.16" width="4.52" height="4.55" fill="#fff"/><rect x="319.59" y="29.16" width="4.52" height="4.55" fill="none" stroke="#003a50" stroke-miterlimit="10"/><rect x="252.53" y="29.16" width="4.52" height="4.55" fill="#fff"/><rect x="252.53" y="29.16" width="4.52" height="4.55" fill="none" stroke="#003a50" stroke-miterlimit="10"/><rect x="288.32" y="29.16" width="4.52" height="4.55" fill="#fff"/><rect x="288.32" y="29.16" width="4.52" height="4.55" fill="none" stroke="#003a50" stroke-miterlimit="10"/><g clip-path="url(#clip-path)"><path d="M288.32,33.71v2.54c0,17.6-14,28.92-31.27,28.92V33.71" fill="none" stroke="#003a50" stroke-miterlimit="10"/></g><rect x="367.55" y="105.67" width="4.55" height="70.36" fill="#fff"/><rect x="367.55" y="105.67" width="4.55" height="70.36" fill="none" stroke="#003a50" stroke-miterlimit="10"/><line x1="369.83" y1="176.03" x2="369.83" y2="105.67" fill="none" stroke="#003a50" stroke-miterlimit="10"/><rect x="367.55" y="171.58" width="4.55" height="4.45" fill="#fff"/><rect x="367.55" y="171.59" width="4.55" height="4.45" fill="none" stroke="#003a50" stroke-miterlimit="10"/><rect x="367.55" y="105.67" width="4.55" height="4.45" fill="#fff"/><rect x="367.55" y="105.67" width="4.55" height="4.45" fill="none" stroke="#003a50" stroke-miterlimit="10"/><rect x="367.55" y="140.85" width="4.55" height="4.45" fill="#fff"/><rect x="367.55" y="140.85" width="4.55" height="4.45" fill="none" stroke="#003a50" stroke-miterlimit="10"/><g clip-path="url(#clip-path)"><path d="M367.55,140.85H365c-17.6,0-28.91-13.75-28.91-30.73h31.44" fill="none" stroke="#003a50" stroke-miterlimit="10"/></g><rect x="367.55" y="423.41" width="4.55" height="70.1" fill="#fff"/><rect x="367.55" y="423.41" width="4.55" height="70.1" fill="none" stroke="#003a50" stroke-miterlimit="10"/><line x1="369.83" y1="493.51" x2="369.83" y2="423.41" fill="none" stroke="#003a50" stroke-miterlimit="10"/><rect x="367.55" y="489.08" width="4.55" height="4.43" fill="#fff"/><rect x="367.55" y="489.08" width="4.55" height="4.43" fill="none" stroke="#003a50" stroke-miterlimit="10"/><rect x="367.55" y="423.41" width="4.55" height="4.43" fill="#fff"/><rect x="367.55" y="423.41" width="4.55" height="4.43" fill="none" stroke="#003a50" stroke-miterlimit="10"/><rect x="367.55" y="458.46" width="4.55" height="4.43" fill="#fff"/><rect x="367.55" y="458.46" width="4.55" height="4.43" fill="none" stroke="#003a50" stroke-miterlimit="10"/><g clip-path="url(#clip-path)"><path d="M367.55,458.46H365c-17.6,0-28.91-13.71-28.91-30.62h31.44" fill="none" stroke="#003a50" stroke-miterlimit="10"/></g><rect x="367.55" y="264.07" width="4.55" height="70.53" fill="#fff"/><rect x="367.55" y="264.07" width="4.55" height="70.53" fill="none" stroke="#003a50" stroke-miterlimit="10"/><line x1="369.83" y1="264.06" x2="369.83" y2="334.59" fill="none" stroke="#003a50" stroke-miterlimit="10"/><rect x="367.55" y="264.07" width="4.55" height="4.46" fill="#fff"/><rect x="367.55" y="264.07" width="4.55" height="4.46" fill="none" stroke="#003a50" stroke-miterlimit="10"/><rect x="367.55" y="330.13" width="4.55" height="4.46" fill="#fff"/><rect x="367.55" y="330.13" width="4.55" height="4.46" fill="none" stroke="#003a50" stroke-miterlimit="10"/><rect x="367.55" y="294.87" width="4.55" height="4.46" fill="#fff"/><rect x="367.55" y="294.87" width="4.55" height="4.46" fill="none" stroke="#003a50" stroke-miterlimit="10"/><g clip-path="url(#clip-path)"><path d="M367.55,299.33H365c-17.6,0-28.91,13.79-28.91,30.8h31.44" fill="none" stroke="#003a50" stroke-miterlimit="10"/></g><rect x="53.65" y="40.67" width="36.73" height="84.27" fill="none" stroke="#003a50" stroke-miterlimit="10"/><g clip-path="url(#clip-path)"><path d="M58.2,108V59.78A13.56,13.56,0,0,1,72,46.45h0a13.57,13.57,0,0,1,13.8,13.33V108A13.57,13.57,0,0,1,72,121.33h0A13.56,13.56,0,0,1,58.2,108Z" fill="none" stroke="#003a50" stroke-miterlimit="10"/><ellipse cx="72.01" cy="108.3" rx="2" ry="1.93" fill="none" stroke="#003a50" stroke-miterlimit="10"/></g><rect x="54.14" y="282.06" width="76.67" height="34.72" fill="none" stroke="#003a50" stroke-miterlimit="10"/><g clip-path="url(#clip-path)"><path d="M69.74,286.36h44.12c6.74,0,12.2,5.84,12.2,13v0c0,7.2-5.46,13-12.2,13H69.74c-6.73,0-12.19-5.84-12.19-13v0C57.55,292.2,63,286.36,69.74,286.36Z" fill="none" stroke="#003a50" stroke-miterlimit="10"/><path d="M71.69,299.42a1.83,1.83,0,1,1-1.82-1.89A1.86,1.86,0,0,1,71.69,299.42Z" fill="none" stroke="#003a50" stroke-miterlimit="10"/><path d="M113.11,233.15V209.94H94.77v23.21a9.17,9.17,0,1,0,18.34,0Z" fill="none" stroke="#003a50" stroke-miterlimit="10"/></g><line x1="94.78" y1="218.97" x2="113.12" y2="218.97" fill="none" stroke="#003a50" stroke-miterlimit="10"/><g clip-path="url(#clip-path)"><path d="M103.09,102v23.21h18.34V102a9.17,9.17,0,1,0-18.34,0Z" fill="none" stroke="#003a50" stroke-miterlimit="10"/></g><line x1="121.42" y1="116.14" x2="103.08" y2="116.14" fill="none" stroke="#003a50" stroke-miterlimit="10"/><g clip-path="url(#clip-path)"><path d="M70.43,273.3H54.64A2.31,2.31,0,0,1,52.33,271V255.71a2.31,2.31,0,0,1,2.31-2.31H70.43a2.32,2.32,0,0,1,2.31,2.31V271A2.32,2.32,0,0,1,70.43,273.3Z" fill="none" stroke="#003a50" stroke-miterlimit="10"/><path d="M64.09,263.35a1.56,1.56,0,1,1-1.55-1.56A1.55,1.55,0,0,1,64.09,263.35Z" fill="none" stroke="#003a50" stroke-miterlimit="10"/></g><rect x="54.14" y="209.94" width="20.25" height="72.12" fill="none" stroke="#003a50" stroke-miterlimit="10"/><rect x="186.25" y="348.89" width="173.47" height="13.62" fill="none" stroke="#003a50" stroke-miterlimit="10"/><polygon points="336.36 356.14 301.99 353.32 267.46 356.14 267.46 358.11 336.36 358.11 336.36 356.14" fill="none" stroke="#003a50" stroke-miterlimit="10"/><rect x="190.99" y="298.63" width="98.82" height="45.5" fill="none" stroke="#003a50" stroke-miterlimit="10"/><g clip-path="url(#clip-path)"><path d="M281.38,336.08V307a2.11,2.11,0,0,0-2.11-2.1H220.76v33.25h58.51A2.11,2.11,0,0,0,281.38,336.08Z" fill="none" stroke="#003a50" stroke-miterlimit="10"/></g><rect x="220.75" y="304.93" width="12.04" height="33.26" fill="none" stroke="#003a50" stroke-miterlimit="10"/><g clip-path="url(#clip-path)"><rect x="197.72" y="304.88" width="19.89" height="33.65" rx="2.2" fill="none" stroke="#003a50" stroke-miterlimit="10"/></g><rect x="191.81" y="211.21" width="167.91" height="27.05" fill="none" stroke="#003a50" stroke-miterlimit="10"/><g clip-path="url(#clip-path)"><path d="M205.43,215a.79.79,0,0,1,1.51-.35,22.88,22.88,0,0,1,0,20.08.8.8,0,0,1-1.43-.7,21.27,21.27,0,0,0,0-18.68A.74.74,0,0,1,205.43,215Z" fill="none" stroke="#003a50" stroke-miterlimit="10"/><path d="M209.85,215a.8.8,0,0,1,1.52-.35,22.88,22.88,0,0,1,0,20.08.79.79,0,0,1-1.07.36.78.78,0,0,1-.36-1.06,21.27,21.27,0,0,0,0-18.68A.76.76,0,0,1,209.85,215Z" fill="none" stroke="#003a50" stroke-miterlimit="10"/><path d="M214.28,215a.79.79,0,0,1,1.51-.35,22.88,22.88,0,0,1,0,20.08.78.78,0,0,1-1.06.36.79.79,0,0,1-.37-1.06,21.27,21.27,0,0,0,0-18.68A.74.74,0,0,1,214.28,215Z" fill="none" stroke="#003a50" stroke-miterlimit="10"/><path d="M218.7,215a.8.8,0,0,1,1.52-.35,22.88,22.88,0,0,1,0,20.08.8.8,0,0,1-1.43-.7,21.27,21.27,0,0,0,0-18.68A.76.76,0,0,1,218.7,215Z" fill="none" stroke="#003a50" stroke-miterlimit="10"/><path d="M223.13,215a.8.8,0,0,1,.44-.72.81.81,0,0,1,1.08.37,22.88,22.88,0,0,1,0,20.08.8.8,0,0,1-1.44-.7,21.27,21.27,0,0,0,0-18.68A.74.74,0,0,1,223.13,215Z" fill="none" stroke="#003a50" stroke-miterlimit="10"/><path d="M227.55,215a.8.8,0,0,1,1.52-.35,22.88,22.88,0,0,1,0,20.08.8.8,0,0,1-1.43-.7,21.27,21.27,0,0,0,0-18.68A.76.76,0,0,1,227.55,215Z" fill="none" stroke="#003a50" stroke-miterlimit="10"/><path d="M201,215a.8.8,0,0,1,.44-.72.81.81,0,0,1,1.08.37,22.88,22.88,0,0,1,0,20.08.8.8,0,0,1-1.44-.7,21.27,21.27,0,0,0,0-18.68A.74.74,0,0,1,201,215Z" fill="none" stroke="#003a50" stroke-miterlimit="10"/><path d="M196.58,215a.79.79,0,0,1,1.51-.35,22.88,22.88,0,0,1,0,20.08.8.8,0,0,1-1.43-.7,21.27,21.27,0,0,0,0-18.68A.74.74,0,0,1,196.58,215Z" fill="none" stroke="#003a50" stroke-miterlimit="10"/></g><line x1="191.82" y1="224.73" x2="360.22" y2="224.73" fill="none" stroke="#003a50" stroke-miterlimit="10"/><rect x="225.71" y="187.13" width="18.91" height="18.91" fill="none" stroke="#003a50" stroke-miterlimit="10"/><g clip-path="url(#clip-path)"><path d="M240.58,191.16a7.67,7.67,0,1,0,0,10.85A7.67,7.67,0,0,0,240.58,191.16Z" fill="none" stroke="#003a50" stroke-miterlimit="10"/><path d="M241.1,191.74c-1.41.14-2.84-.4-4.22,1-2,2,.12,4.18-1.92,6.21s-4.18-.11-6.22,1.92" fill="none" stroke="#003a50" stroke-miterlimit="10"/></g><rect x="340.19" y="187.13" width="18.91" height="18.91" fill="none" stroke="#003a50" stroke-miterlimit="10"/><g clip-path="url(#clip-path)"><path d="M355.06,191.16a7.67,7.67,0,1,0,0,10.85A7.68,7.68,0,0,0,355.06,191.16Z" fill="none" stroke="#003a50" stroke-miterlimit="10"/><path d="M355.58,191.74c-1.41.14-2.85-.4-4.23,1-2,2,.12,4.18-1.91,6.21s-4.19-.11-6.22,1.92" fill="none" stroke="#003a50" stroke-miterlimit="10"/></g><rect x="249.89" y="111.5" width="85.08" height="94.54" fill="none" stroke="#003a50" stroke-miterlimit="10"/><g clip-path="url(#clip-path)"><path d="M326.64,119.62H258.22a1.73,1.73,0,0,0-1.74,1.73v56.4h71.89v-56.4A1.72,1.72,0,0,0,326.64,119.62Z" fill="none" stroke="#003a50" stroke-miterlimit="10"/><path d="M290.06,180.77H257.93a1.65,1.65,0,0,0-1.65,1.65v15.77a1.65,1.65,0,0,0,1.65,1.65h32.13a1.65,1.65,0,0,0,1.65-1.65V182.42A1.65,1.65,0,0,0,290.06,180.77Z" fill="none" stroke="#003a50" stroke-miterlimit="10"/><rect x="293.15" y="180.77" width="35.44" height="19.08" rx="1.65" fill="none" stroke="#003a50" stroke-miterlimit="10"/></g><line x1="328.59" y1="166.21" x2="256.28" y2="166.21" fill="none" stroke="#003a50" stroke-miterlimit="10"/><rect x="251.52" y="83.54" width="81.75" height="13.62" fill="none" stroke="#003a50" stroke-miterlimit="10"/><polygon points="257.95 90.79 292.31 87.96 326.84 90.79 326.84 92.76 257.95 92.76 257.95 90.79" fill="none" stroke="#003a50" stroke-miterlimit="10"/><rect x="190.03" y="42.29" width="27.05" height="87.64" fill="none" stroke="#003a50" stroke-miterlimit="10"/><g clip-path="url(#clip-path)"><path d="M193.87,116.32a.8.8,0,0,1-.36-1.52,22.91,22.91,0,0,1,20.09,0,.8.8,0,0,1,.36,1.07.78.78,0,0,1-1.06.36,21.3,21.3,0,0,0-18.69,0A.69.69,0,0,1,193.87,116.32Z" fill="none" stroke="#003a50" stroke-miterlimit="10"/><path d="M193.87,111.89a.8.8,0,0,1-.36-1.51,22.91,22.91,0,0,1,20.09,0,.8.8,0,0,1-.7,1.43,21.3,21.3,0,0,0-18.69,0A.68.68,0,0,1,193.87,111.89Z" fill="none" stroke="#003a50" stroke-miterlimit="10"/><path d="M193.87,107.47a.8.8,0,0,1-.36-1.52,22.91,22.91,0,0,1,20.09,0A.8.8,0,0,1,214,107a.79.79,0,0,1-1.06.36,21.3,21.3,0,0,0-18.69,0A.69.69,0,0,1,193.87,107.47Z" fill="none" stroke="#003a50" stroke-miterlimit="10"/><path d="M193.87,103a.8.8,0,0,1-.72-.44.82.82,0,0,1,.36-1.08,22.91,22.91,0,0,1,20.09,0,.8.8,0,0,1,.36,1.07.79.79,0,0,1-1.06.37,21.3,21.3,0,0,0-18.69,0A.68.68,0,0,1,193.87,103Z" fill="none" stroke="#003a50" stroke-miterlimit="10"/><path d="M193.87,98.62a.8.8,0,0,1-.36-1.52,22.91,22.91,0,0,1,20.09,0,.8.8,0,0,1,.36,1.07.79.79,0,0,1-1.06.36,21.3,21.3,0,0,0-18.69,0A.69.69,0,0,1,193.87,98.62Z" fill="none" stroke="#003a50" stroke-miterlimit="10"/><path d="M193.87,94.19a.8.8,0,0,1-.72-.44.82.82,0,0,1,.36-1.08,22.91,22.91,0,0,1,20.09,0,.8.8,0,0,1,.36,1.07.79.79,0,0,1-1.06.37,21.3,21.3,0,0,0-18.69,0A.68.68,0,0,1,193.87,94.19Z" fill="none" stroke="#003a50" stroke-miterlimit="10"/><path d="M193.87,120.74a.8.8,0,0,1-.36-1.51,22.91,22.91,0,0,1,20.09,0,.8.8,0,0,1,.36,1.07.79.79,0,0,1-1.06.36,21.3,21.3,0,0,0-18.69,0A.68.68,0,0,1,193.87,120.74Z" fill="none" stroke="#003a50" stroke-miterlimit="10"/><path d="M193.87,125.17a.8.8,0,0,1-.72-.44.82.82,0,0,1,.36-1.08,22.91,22.91,0,0,1,20.09,0,.8.8,0,0,1,.36,1.07.79.79,0,0,1-1.06.37,21.3,21.3,0,0,0-18.69,0A.68.68,0,0,1,193.87,125.17Z" fill="none" stroke="#003a50" stroke-miterlimit="10"/></g><line x1="203.56" y1="129.93" x2="203.56" y2="42.29" fill="none" stroke="#003a50" stroke-miterlimit="10"/><rect x="85.21" y="129.02" width="27.05" height="76.95" fill="none" stroke="#003a50" stroke-miterlimit="10"/><g clip-path="url(#clip-path)"><path d="M89,192.35a.79.79,0,0,1-.35-1.51,22.91,22.91,0,0,1,20.09,0,.8.8,0,1,1-.71,1.43,21.27,21.27,0,0,0-18.68,0A.72.72,0,0,1,89,192.35Z" fill="none" stroke="#003a50" stroke-miterlimit="10"/><path d="M89,187.93a.8.8,0,0,1-.72-.44.81.81,0,0,1,.37-1.08,22.91,22.91,0,0,1,20.09,0,.8.8,0,0,1-.71,1.44,21.27,21.27,0,0,0-18.68,0A.72.72,0,0,1,89,187.93Z" fill="none" stroke="#003a50" stroke-miterlimit="10"/><path d="M89,183.5a.79.79,0,0,1-.35-1.51,22.91,22.91,0,0,1,20.09,0,.8.8,0,1,1-.71,1.43,21.27,21.27,0,0,0-18.68,0A.72.72,0,0,1,89,183.5Z" fill="none" stroke="#003a50" stroke-miterlimit="10"/><path d="M89,179.08a.8.8,0,0,1-.35-1.52,22.91,22.91,0,0,1,20.09,0,.81.81,0,0,1,.36,1.07.79.79,0,0,1-1.07.36,21.27,21.27,0,0,0-18.68,0A.73.73,0,0,1,89,179.08Z" fill="none" stroke="#003a50" stroke-miterlimit="10"/><path d="M89,174.65a.79.79,0,0,1-.35-1.51,22.91,22.91,0,0,1,20.09,0,.8.8,0,0,1,.36,1.06.81.81,0,0,1-1.07.37,21.27,21.27,0,0,0-18.68,0A.72.72,0,0,1,89,174.65Z" fill="none" stroke="#003a50" stroke-miterlimit="10"/><path d="M89,170.23a.8.8,0,0,1-.35-1.52,22.91,22.91,0,0,1,20.09,0,.8.8,0,1,1-.71,1.43,21.27,21.27,0,0,0-18.68,0A.73.73,0,0,1,89,170.23Z" fill="none" stroke="#003a50" stroke-miterlimit="10"/><path d="M89,196.78a.8.8,0,0,1-.72-.44.81.81,0,0,1,.37-1.08,22.91,22.91,0,0,1,20.09,0,.8.8,0,0,1-.71,1.44,21.27,21.27,0,0,0-18.68,0A.72.72,0,0,1,89,196.78Z" fill="none" stroke="#003a50" stroke-miterlimit="10"/><path d="M89,201.21a.8.8,0,0,1-.35-1.52,22.91,22.91,0,0,1,20.09,0,.8.8,0,1,1-.71,1.43,21.27,21.27,0,0,0-18.68,0A.73.73,0,0,1,89,201.21Z" fill="none" stroke="#003a50" stroke-miterlimit="10"/></g><line x1="98.73" y1="205.97" x2="98.73" y2="127.13" fill="none" stroke="#003a50" stroke-miterlimit="10"/><rect x="53.74" y="321.7" width="81.89" height="27.05" fill="none" stroke="#003a50" stroke-miterlimit="10"/><g clip-path="url(#clip-path)"><path d="M67.35,325.53a.78.78,0,0,1,.44-.71.82.82,0,0,1,1.08.36,22.91,22.91,0,0,1,0,20.09.8.8,0,0,1-1.07.36.79.79,0,0,1-.37-1.06,21.3,21.3,0,0,0,0-18.69A.72.72,0,0,1,67.35,325.53Z" fill="none" stroke="#003a50" stroke-miterlimit="10"/><path d="M71.78,325.53a.78.78,0,0,1,.44-.71.8.8,0,0,1,1.07.36,22.91,22.91,0,0,1,0,20.09.8.8,0,0,1-1.07.36.79.79,0,0,1-.36-1.06,21.3,21.3,0,0,0,0-18.69A.72.72,0,0,1,71.78,325.53Z" fill="none" stroke="#003a50" stroke-miterlimit="10"/><path d="M76.2,325.53a.79.79,0,0,1,.45-.71.81.81,0,0,1,1.07.36,22.91,22.91,0,0,1,0,20.09.8.8,0,0,1-1.07.36.78.78,0,0,1-.36-1.06,21.3,21.3,0,0,0,0-18.69A.73.73,0,0,1,76.2,325.53Z" fill="none" stroke="#003a50" stroke-miterlimit="10"/><path d="M80.63,325.53a.78.78,0,0,1,.44-.71.8.8,0,0,1,1.07.36,22.91,22.91,0,0,1,0,20.09.8.8,0,0,1-1.43-.7,21.3,21.3,0,0,0,0-18.69A.72.72,0,0,1,80.63,325.53Z" fill="none" stroke="#003a50" stroke-miterlimit="10"/><path d="M85.05,325.53a.79.79,0,0,1,.45-.71.81.81,0,0,1,1.07.36,22.91,22.91,0,0,1,0,20.09.8.8,0,0,1-1.07.36.78.78,0,0,1-.36-1.06,21.3,21.3,0,0,0,0-18.69A.73.73,0,0,1,85.05,325.53Z" fill="none" stroke="#003a50" stroke-miterlimit="10"/><path d="M89.48,325.53a.78.78,0,0,1,.44-.71.8.8,0,0,1,1.07.36,22.91,22.91,0,0,1,0,20.09.8.8,0,0,1-1.43-.7,21.3,21.3,0,0,0,0-18.69A.72.72,0,0,1,89.48,325.53Z" fill="none" stroke="#003a50" stroke-miterlimit="10"/><path d="M62.92,325.53a.79.79,0,0,1,.45-.71.81.81,0,0,1,1.07.36,22.91,22.91,0,0,1,0,20.09.8.8,0,0,1-1.07.36.79.79,0,0,1-.36-1.06,21.3,21.3,0,0,0,0-18.69A.73.73,0,0,1,62.92,325.53Z" fill="none" stroke="#003a50" stroke-miterlimit="10"/><path d="M58.5,325.53a.78.78,0,0,1,.44-.71.82.82,0,0,1,1.08.36,22.91,22.91,0,0,1,0,20.09.8.8,0,0,1-1.07.36.79.79,0,0,1-.37-1.06,21.3,21.3,0,0,0,0-18.69A.72.72,0,0,1,58.5,325.53Z" fill="none" stroke="#003a50" stroke-miterlimit="10"/></g><line x1="53.74" y1="335.22" x2="135.81" y2="335.22" fill="none" stroke="#003a50" stroke-miterlimit="10"/><rect x="53.83" y="463.49" width="59.65" height="27.05" fill="none" stroke="#003a50" stroke-miterlimit="10"/><g clip-path="url(#clip-path)"><path d="M67.44,467.33a.8.8,0,0,1,.44-.72A.81.81,0,0,1,69,467a22.88,22.88,0,0,1,0,20.08.8.8,0,0,1-1.44-.7,21.27,21.27,0,0,0,0-18.68A.74.74,0,0,1,67.44,467.33Z" fill="none" stroke="#003a50" stroke-miterlimit="10"/><path d="M71.87,467.33a.79.79,0,0,1,1.51-.35,22.88,22.88,0,0,1,0,20.08.8.8,0,0,1-1.43-.7,21.27,21.27,0,0,0,0-18.68A.74.74,0,0,1,71.87,467.33Z" fill="none" stroke="#003a50" stroke-miterlimit="10"/><path d="M76.29,467.33a.8.8,0,0,1,1.52-.35,22.88,22.88,0,0,1,0,20.08.79.79,0,0,1-1.07.36.78.78,0,0,1-.36-1.06,21.27,21.27,0,0,0,0-18.68A.76.76,0,0,1,76.29,467.33Z" fill="none" stroke="#003a50" stroke-miterlimit="10"/><path d="M80.72,467.33a.79.79,0,0,1,1.51-.35,22.88,22.88,0,0,1,0,20.08.78.78,0,0,1-1.06.36.79.79,0,0,1-.37-1.06,21.27,21.27,0,0,0,0-18.68A.74.74,0,0,1,80.72,467.33Z" fill="none" stroke="#003a50" stroke-miterlimit="10"/><path d="M85.14,467.33a.8.8,0,0,1,1.52-.35,22.88,22.88,0,0,1,0,20.08.79.79,0,0,1-1.07.36.78.78,0,0,1-.36-1.06,21.27,21.27,0,0,0,0-18.68A.76.76,0,0,1,85.14,467.33Z" fill="none" stroke="#003a50" stroke-miterlimit="10"/><path d="M89.57,467.33a.79.79,0,0,1,1.51-.35,22.88,22.88,0,0,1,0,20.08.78.78,0,0,1-1.06.36.79.79,0,0,1-.37-1.06,21.27,21.27,0,0,0,0-18.68A.74.74,0,0,1,89.57,467.33Z" fill="none" stroke="#003a50" stroke-miterlimit="10"/><path d="M63,467.33a.8.8,0,0,1,1.52-.35,22.88,22.88,0,0,1,0,20.08.8.8,0,0,1-1.43-.7,21.27,21.27,0,0,0,0-18.68A.76.76,0,0,1,63,467.33Z" fill="none" stroke="#003a50" stroke-miterlimit="10"/><path d="M58.59,467.33A.79.79,0,0,1,60.1,467a22.88,22.88,0,0,1,0,20.08.78.78,0,0,1-1.06.36.79.79,0,0,1-.37-1.06,21.27,21.27,0,0,0,0-18.68A.74.74,0,0,1,58.59,467.33Z" fill="none" stroke="#003a50" stroke-miterlimit="10"/></g><line x1="53.83" y1="477.02" x2="113.47" y2="477.02" fill="none" stroke="#003a50" stroke-miterlimit="10"/><g clip-path="url(#clip-path)"><path d="M64.55,234.62A2.68,2.68,0,0,0,67,233h1.52l4,2.41-1.83,3-2.11-1.15v9.36H59.88V237.2l-2.11,1.15-1.82-3L60,233h2A2.72,2.72,0,0,0,64.55,234.62Z" fill="none" stroke="#003a50" stroke-miterlimit="10"/></g><rect x="54.14" y="229.06" width="20.25" height="21.4" fill="none" stroke="#003a50" stroke-miterlimit="10"/><g clip-path="url(#clip-path)"><path d="M246.93,441a1,1,0,0,0-.71,1.14,10.41,10.41,0,0,1-20.3,4.65.94.94,0,0,0-1.13-.71,1,1,0,0,0-.72,1.14,12.31,12.31,0,0,0,24-5.51A1,1,0,0,0,246.93,441Z" fill="none" stroke="#003a50" stroke-miterlimit="10"/><path d="M205.27,448.37a.94.94,0,0,0-1.32-.25,10.41,10.41,0,1,1-11.72-17.2,1,1,0,0,0,.25-1.32.94.94,0,0,0-1.32-.25A12.31,12.31,0,1,0,205,449.69.94.94,0,0,0,205.27,448.37Z" fill="none" stroke="#003a50" stroke-miterlimit="10"/><path d="M203.38,412.58a1,1,0,0,0,1-.9,10.41,10.41,0,0,1,20.78,1.24.94.94,0,0,0,.89,1,1,1,0,0,0,1-.89,12.31,12.31,0,1,0-24.57-1.46A1,1,0,0,0,203.38,412.58Z" fill="none" stroke="#003a50" stroke-miterlimit="10"/><path d="M236.21,453.58a9.58,9.58,0,0,0,9.06-11.69l-1.54-6.71a2.66,2.66,0,0,0-3.2-2l-10.15,2.32a18,18,0,0,1-4.53,7.13l.72,3.17A9.83,9.83,0,0,0,236.21,453.58Z" fill="none" stroke="#003a50" stroke-miterlimit="10"/><path d="M203.89,447.14l1.75-1.21a18,18,0,0,1-10.3-16.09l-1.9,1.29a9.81,9.81,0,0,0-3.74,11.81A9.58,9.58,0,0,0,203.89,447.14Z" fill="none" stroke="#003a50" stroke-miterlimit="10"/><path d="M224.16,415.22l.09-1.48a9.8,9.8,0,0,0-7-10.18,9.56,9.56,0,0,0-12,8.67l-.09,1.39a18.06,18.06,0,0,1,12.56-1.45A17.65,17.65,0,0,1,224.16,415.22Z" fill="none" stroke="#003a50" stroke-miterlimit="10"/><path d="M225.85,442.61a18,18,0,0,0,4.53-7.13,12.38,12.38,0,0,0,.45-1.5,18,18,0,0,0-6.67-18.76,17.72,17.72,0,0,0-6.47-3.05,18,18,0,0,0-21.83,13.14,16.43,16.43,0,0,0-.52,4.53,18,18,0,0,0,10.3,16.1,17.56,17.56,0,0,0,3.38,1.2A18,18,0,0,0,225.85,442.61Z" fill="none" stroke="#003a50" stroke-miterlimit="10"/><path d="M267.31,562.71a2.35,2.35,0,0,1-2.51,2.14h-3.19a2.35,2.35,0,0,1-2.51-2.14V526.32h85.61v36.07a2.36,2.36,0,0,1-2.52,2.14H339a2.35,2.35,0,0,1-2.51-2.14V530.06h-69.2Z" fill="none" stroke="#003a50" stroke-miterlimit="10"/><rect x="135" y="526.34" width="27.5" height="28.24" fill="none" stroke="#003a50" stroke-miterlimit="10"/><rect x="53.7" y="519.79" width="27.09" height="44.02" fill="none" stroke="#003a50" stroke-miterlimit="10"/><rect x="80.79" y="526.34" width="81.94" height="28.24" fill="none" stroke="#003a50" stroke-miterlimit="10"/></g><rect x="144.52" y="485.91" width="26.69" height="28.24" fill="none" stroke="#003a50" stroke-miterlimit="10"/><g clip-path="url(#clip-path)"><path d="M161.81,498.16v-8.67h-6.74v8.67a2.78,2.78,0,0,0,2.77,2.78H159A2.78,2.78,0,0,0,161.81,498.16Z" fill="none" stroke="#003a50" stroke-miterlimit="10"/></g><polyline points="155.71 509.22 158.44 509.22 161.16 509.22" fill="none" stroke="#003a50" stroke-miterlimit="10"/><line x1="158.44" y1="500.94" x2="158.44" y2="509.22" fill="none" stroke="#003a50" stroke-miterlimit="10"/><rect x="181.38" y="485.91" width="27.5" height="28.24" fill="none" stroke="#003a50" stroke-miterlimit="10"/><g clip-path="url(#clip-path)"><circle cx="188.85" cy="493.51" r="3.75" fill="none" stroke="#003a50" stroke-miterlimit="10"/><circle cx="201.37" cy="493.51" r="3.75" fill="none" stroke="#003a50" stroke-miterlimit="10"/><circle cx="188.85" cy="505.7" r="3.75" fill="none" stroke="#003a50" stroke-miterlimit="10"/><circle cx="201.37" cy="505.7" r="3.75" fill="none" stroke="#003a50" stroke-miterlimit="10"/></g><polyline points="122.84 479.54 122.84 474.87 122.84 470.2" fill="none" stroke="#003a50" stroke-miterlimit="10"/><line x1="132.2" y1="474.85" x2="122.84" y2="474.85" fill="none" stroke="#003a50" stroke-miterlimit="10"/><g clip-path="url(#clip-path)"><rect x="126.84" y="464.55" width="14.9" height="20.66" rx="3.24" fill="none" stroke="#003a50" stroke-miterlimit="10"/><path d="M133.37,474.85a1.67,1.67,0,1,1-1.67-1.66A1.67,1.67,0,0,1,133.37,474.85Z" fill="none" stroke="#003a50" stroke-miterlimit="10"/></g><rect x="117.78" y="422.87" width="26.74" height="26.74" fill="none" stroke="#003a50" stroke-miterlimit="10"/><line x1="131.15" y1="428.4" x2="131.15" y2="444.09" fill="none" stroke="#003a50" stroke-miterlimit="10"/><line x1="123.3" y1="436.24" x2="139" y2="436.24" fill="none" stroke="#003a50" stroke-miterlimit="10"/><line x1="125.6" y1="430.7" x2="136.69" y2="441.79" fill="none" stroke="#003a50" stroke-miterlimit="10"/><line x1="125.6" y1="441.79" x2="136.69" y2="430.7" fill="none" stroke="#003a50" stroke-miterlimit="10"/><rect x="117.4" y="449.61" width="27.09" height="64.53" fill="none" stroke="#003a50" stroke-miterlimit="10"/><rect x="144.52" y="485.91" width="68.14" height="28.24" fill="none" stroke="#003a50" stroke-miterlimit="10"/><rect x="112.23" y="188.92" width="23.93" height="16.36" fill="none" stroke="#003a50" stroke-miterlimit="10"/><g clip-path="url(#clip-path)"><path d="M357.15,299.86h0a1,1,0,0,0,1-1V246.15a1,1,0,0,0-1.94,0v52.74A1,1,0,0,0,357.15,299.86Z" fill="none" stroke="#003a50" stroke-miterlimit="10"/><path d="M336.16,264a10.24,10.24,0,0,0-11,16.2.78.78,0,0,0,1.11.12.79.79,0,0,0,.12-1.11,8.64,8.64,0,0,1,9.8-13.51Z" fill="none" stroke="#003a50" stroke-miterlimit="10"/><rect x="336.16" y="243.42" width="23.56" height="58.2" rx="2.29" fill="none" stroke="#003a50" stroke-miterlimit="10"/><path d="M347.05,292.15a3.82,3.82,0,1,1,0,5.4A3.82,3.82,0,0,1,347.05,292.15Z" fill="none" stroke="#003a50" stroke-miterlimit="10"/><path d="M346.8,292.44c.7.07,1.41-.2,2.1.48,1,1-.06,2.09,1,3.1s2.08-.06,3.1,1" fill="none" stroke="#003a50" stroke-miterlimit="10"/><path d="M336.16,267.3a7.36,7.36,0,1,0,0,13.57Z" fill="none" stroke="#003a50" stroke-miterlimit="10"/><path d="M289.23,478.69v31h34.56V477H290.9A1.67,1.67,0,0,0,289.23,478.69Z" fill="none" stroke="#003a50" stroke-miterlimit="10"/><path d="M254.6,478.52v31.15h34.56V478.52a1.5,1.5,0,0,0-1.5-1.5H256.1A1.5,1.5,0,0,0,254.6,478.52Z" fill="none" stroke="#003a50" stroke-miterlimit="10"/><path d="M323.79,477a2.35,2.35,0,0,1,2.51-2.14h3.19A2.35,2.35,0,0,1,332,477v36.39H246.39V477.34a2.35,2.35,0,0,1,2.51-2.14h3.19a2.35,2.35,0,0,1,2.51,2.14v32.33h69.19Z" fill="none" stroke="#003a50" stroke-miterlimit="10"/></g><rect x="254.6" y="502.69" width="69.19" height="6.98" fill="none" stroke="#003a50" stroke-miterlimit="10"/><g clip-path="url(#clip-path)"><path d="M184.68,74H168.39a2.3,2.3,0,0,1-2.3-2.3V56.39a2.3,2.3,0,0,1,2.3-2.31h16.29Z" fill="none" stroke="#003a50" stroke-miterlimit="10"/><path d="M174.73,64a1.56,1.56,0,1,1,1.56,1.56A1.55,1.55,0,0,1,174.73,64Z" fill="none" stroke="#003a50" stroke-miterlimit="10"/></g><rect x="164.43" y="45.31" width="20.25" height="54.41" fill="none" stroke="#003a50" stroke-miterlimit="10"/><g clip-path="url(#clip-path)"><path d="M148.38,129v2.24c0,15.59,13.64,28.22,30.46,28.22V129" fill="none" stroke="#003a50" stroke-miterlimit="10" stroke-width="1.6"/><path d="M134.38,273.8h2.25c15.58,0,28.22-13.64,28.22-30.47H134.38" fill="none" stroke="#003a50" stroke-miterlimit="10" stroke-width="1.6"/><path d="M178.06,208.3v-2.68c0-18.64-16.3-33.74-36.42-33.74V208.3" fill="none" stroke="#003a50" stroke-miterlimit="10" stroke-width="1.6"/><path d="M187.73,281.43h2.68c18.64,0,33.75-16.31,33.75-36.42H187.73" fill="none" stroke="#003a50" stroke-miterlimit="10" stroke-width="1.6"/><path d="M43.35,461.41H40.27c-21.41,0-38.76-18.74-38.76-41.85H43.35" fill="none" stroke="#003a50" stroke-miterlimit="10" stroke-width="1.6"/><path d="M-9.76,377v-2.77c0-19.22,16.82-34.8,37.57-34.8V377" fill="none" stroke="#003a50" stroke-miterlimit="10" stroke-width="1.6"/></g><rect x="66.71" y="522.07" width="5.92" height="4.54" fill="#003a50"/><rect x="112.46" y="417.69" width="5.92" height="96.06" fill="#003a50"/><rect x="185.74" y="280.56" width="5.92" height="68.92" fill="#003a50"/><rect x="185.73" y="208.3" width="5.92" height="37.53" fill="#003a50"/><rect x="130.23" y="272.94" width="5.92" height="49.4" fill="#003a50"/><rect x="44.35" y="205.34" width="98.05" height="5.92" fill="#003a50"/><rect x="44.35" y="124.51" width="104.83" height="5.92" fill="#003a50"/><rect x="52.18" y="144.25" width="30.34" height="5.92" fill="#003a50"/><rect x="52.18" y="185.92" width="30.34" height="5.92" fill="#003a50"/><rect x="178.02" y="124.51" width="12.53" height="5.92" fill="#003a50"/><rect x="177.18" y="205.34" width="184.88" height="5.92" fill="#003a50"/><rect x="40.64" y="316.43" width="95.51" height="5.92" fill="#003a50"/><rect x="40.64" y="373.82" width="11.94" height="5.92" fill="#003a50"/><rect x="130.23" y="209.94" width="5.92" height="34.25" fill="#003a50"/><rect x="79.57" y="127.12" width="5.92" height="80.06" fill="#003a50"/><rect x="184.64" y="37.35" width="5.92" height="93.07" fill="#003a50"/><rect x="94.22" y="495.21" width="5.92" height="22.78" fill="#003a50"/><rect x="53.31" y="490.96" width="65.07" height="5.92" fill="#003a50"/><rect x="112.46" y="417.69" width="32.54" height="5.92" fill="#003a50"/><rect x="185.74" y="343.56" width="186.16" height="5.92" fill="#003a50"/><rect x="174.56" y="26.85" width="47.17" height="18.33" fill="#003a50"/><rect x="52.31" y="2.3" width="40.51" height="37.89" fill="#003a50"/><g clip-path="url(#clip-path)"><rect x="52.31" y="2.3" width="40.51" height="37.89" fill="none" stroke="#003a50" stroke-miterlimit="10" stroke-width="2.09"/></g><polygon points="165.06 40.19 251.47 40.19 251.47 13.78 165.06 2.3 165.06 40.19" fill="#003a50"/><g clip-path="url(#clip-path)"><polygon points="165.06 40.19 165.06 2.3 251.47 13.78 251.47 40.19 165.06 40.19" fill="none" stroke="#003a50" stroke-miterlimit="10" stroke-width="2.09"/></g><rect x="44.97" y="1.21" width="30.25" height="15.92" fill="#003a50"/><g clip-path="url(#clip-path)"><rect x="44.97" y="-110.15" width="30.25" height="127.28" fill="none" stroke="#003a50" stroke-miterlimit="10" stroke-width="2.09"/></g><rect x="44.97" y="1.2" width="22.95" height="38.98" fill="#003a50"/><g clip-path="url(#clip-path)"><rect x="44.97" y="-119.55" width="22.95" height="159.74" fill="none" stroke="#003a50" stroke-miterlimit="10" stroke-width="2.09"/></g><rect x="376.77" y="2.3" width="22.95" height="37.89" fill="#003a50"/><g clip-path="url(#clip-path)"><rect x="376.77" y="2.3" width="22.95" height="37.89" fill="none" stroke="#003a50" stroke-miterlimit="10" stroke-width="2.09"/></g><polygon points="359.73 493.99 359.73 526.61 396.69 526.61 399.73 493.99 359.73 493.99" fill="#003a50"/><g clip-path="url(#clip-path)"><polygon points="359.73 581.82 359.73 493.99 399.73 493.99 391.56 581.82 359.73 581.82" fill="none" stroke="#003a50" stroke-miterlimit="10" stroke-width="2.09"/></g><rect x="359.73" y="335.08" width="31.83" height="87.84" fill="#003a50"/><rect x="359.73" y="335.08" width="31.83" height="87.84" fill="none" stroke="#003a50" stroke-miterlimit="10" stroke-width="2.09"/><rect x="367.89" y="400.29" width="31.83" height="22.63" fill="#003a50"/><g clip-path="url(#clip-path)"><rect x="367.89" y="400.29" width="31.83" height="22.63" fill="none" stroke="#003a50" stroke-miterlimit="10" stroke-width="2.09"/></g><rect x="49.68" y="512.83" width="325.96" height="13.77" fill="#003a50"/><rect x="40.47" y="460.35" width="13.92" height="66.25" fill="#003a50"/><polygon points="40.64 1.21 40.64 415.13 40.47 415.13 40.47 420.35 54.33 420.35 54.33 1.21 40.64 1.21" fill="#003a50"/><polygon points="40.64 267.88 40.64 279.71 45.72 279.71 45.73 267.88 40.64 267.88" fill="#003a50"/><rect x="40.64" y="33.69" width="11.67" height="11.62" fill="#003a50"/><rect x="359.73" y="176.52" width="40" height="87.5" fill="#003a50"/><g clip-path="url(#clip-path)"><rect x="359.73" y="176.52" width="40" height="87.5" fill="none" stroke="#003a50" stroke-miterlimit="10" stroke-width="2.09"/></g><rect x="358.77" y="22.35" width="32.2" height="82.83" fill="#003a50"/><rect x="358.77" y="22.35" width="32.2" height="82.83" fill="none" stroke="#003a50" stroke-miterlimit="10" stroke-width="2.09"/><rect x="324.61" y="10.68" width="58.78" height="35.83" fill="#003a50"/><rect x="324.61" y="10.69" width="58.78" height="35.83" fill="none" stroke="#003a50" stroke-miterlimit="10" stroke-width="2.09"/><g clip-path="url(#clip-path)"><path d="M278.26,414.35l-2.48,1.95v-2.24l2.73-2.27h1.86V423.7h-2.11Z" fill="#003a50"/><path d="M291.57,422.93a7.77,7.77,0,0,1-7.37,0,3,3,0,0,1-1.37-2.56,2.71,2.71,0,0,1,.26-1.17,2.37,2.37,0,0,1,.65-.85,4,4,0,0,1,1.4-.77l.26-.07v-.09a3.38,3.38,0,0,1-.77-.29,2.61,2.61,0,0,1-.66-.44,2.24,2.24,0,0,1-.54-.76,2.39,2.39,0,0,1-.23-1,2.8,2.8,0,0,1,1.26-2.38,5.74,5.74,0,0,1,3.42-.9,5.81,5.81,0,0,1,3.43.9,2.82,2.82,0,0,1,1.24,2.38,2.5,2.5,0,0,1-.22,1.05,1.87,1.87,0,0,1-.55.74,3.59,3.59,0,0,1-1.19.68l-.23.05v.09l.28.07a4,4,0,0,1,.63.26,4.67,4.67,0,0,1,.77.51,2.65,2.65,0,0,1,.61.82,2.58,2.58,0,0,1,.28,1.2A3,3,0,0,1,291.57,422.93Zm-5.79-1.35a3.84,3.84,0,0,0,2.1.48,3.94,3.94,0,0,0,2.1-.47,1.6,1.6,0,0,0,0-2.7,4.93,4.93,0,0,0-4.2,0,1.53,1.53,0,0,0-.74,1.35A1.51,1.51,0,0,0,285.78,421.58Zm-.37-6.52a1.37,1.37,0,0,0,.65,1.19,4,4,0,0,0,3.64,0,1.42,1.42,0,0,0,0-2.39,4,4,0,0,0-3.62,0A1.36,1.36,0,0,0,285.41,415.06Z" fill="#003a50"/><path d="M295,423.56a1,1,0,0,1-.33-.8A1,1,0,0,1,295,422a1.4,1.4,0,0,1,1.73,0,1,1,0,0,1,.33.81,1,1,0,0,1-.33.8,1.4,1.4,0,0,1-1.73,0Z" fill="#003a50"/><path d="M307.62,422.93a6.43,6.43,0,0,1-3.68.93,6.51,6.51,0,0,1-3.69-.93,3,3,0,0,1-1.37-2.56,2.71,2.71,0,0,1,.26-1.17,2.29,2.29,0,0,1,.66-.85,3.86,3.86,0,0,1,1.39-.77l.26-.07v-.09a3.57,3.57,0,0,1-.77-.29,2.61,2.61,0,0,1-.66-.44,2.24,2.24,0,0,1-.54-.76,2.38,2.38,0,0,1-.22-1,2.79,2.79,0,0,1,1.25-2.38,7,7,0,0,1,6.85,0,2.83,2.83,0,0,1,1.25,2.38,2.67,2.67,0,0,1-.22,1.05,1.88,1.88,0,0,1-.56.74,3.59,3.59,0,0,1-1.19.68l-.22.05v.09l.28.07a4,4,0,0,1,.62.26,4.28,4.28,0,0,1,.77.51,2.83,2.83,0,0,1,.62.82,2.71,2.71,0,0,1,.27,1.2A2.94,2.94,0,0,1,307.62,422.93Zm-5.79-1.35a3.84,3.84,0,0,0,2.1.48,3.94,3.94,0,0,0,2.1-.47,1.6,1.6,0,0,0,0-2.7,4.93,4.93,0,0,0-4.2,0,1.53,1.53,0,0,0-.74,1.35A1.51,1.51,0,0,0,301.83,421.58Zm-.36-6.52a1.36,1.36,0,0,0,.64,1.19,3.24,3.24,0,0,0,1.82.44,3.2,3.2,0,0,0,1.82-.44,1.42,1.42,0,0,0,0-2.39,4,4,0,0,0-3.62,0A1.35,1.35,0,0,0,301.47,415.06Z" fill="#003a50"/><path d="M281.12,266.34l-2.48,2v-2.24l2.73-2.27h1.86v11.91h-2.11Z" fill="#003a50"/><path d="M287.75,266.34l-2.49,2v-2.24l2.74-2.27h1.86v11.91h-2.11Z" fill="#003a50"/><path d="M292.38,275.56a1,1,0,0,1-.32-.8,1.07,1.07,0,0,1,.32-.81,1.41,1.41,0,0,1,1.74,0,1.07,1.07,0,0,1,.32.81,1,1,0,0,1-.32.8,1.41,1.41,0,0,1-1.74,0Z" fill="#003a50"/><path d="M302.49,265.63h-5.82v-1.85h8.86v1.85L301,268.28v.06h1.28a3.87,3.87,0,0,1,2.79,1,3.52,3.52,0,0,1,1.06,2.66,3.35,3.35,0,0,1-1.33,2.83,7,7,0,0,1-7.24,0,3.37,3.37,0,0,1-1.33-2.86v-.32h2.11V272c0,1.36.94,2,2.84,2s2.84-.66,2.84-2-.95-2-2.84-2h-3.27v-1.67l4.58-2.69Z" fill="#003a50"/><path d="M87.14,384.18a5,5,0,0,1,3.34,1.07,4.18,4.18,0,0,1,0,6,5.41,5.41,0,0,1-3.55,1.08,5.77,5.77,0,0,1-3.56-1A3.16,3.16,0,0,1,82,388.68h2.11a1.53,1.53,0,0,0,.7,1.33,3.61,3.61,0,0,0,2,.49,3.15,3.15,0,0,0,2-.58,2,2,0,0,0,.7-1.68,2.05,2.05,0,0,0-.73-1.71,3.31,3.31,0,0,0-2.07-.58,3.55,3.55,0,0,0-1.92.42,1.84,1.84,0,0,0-.7.64l0,.12H82v-6.87h8.88v1.84H84.15v3h0a1.91,1.91,0,0,1,.4-.31,3.11,3.11,0,0,1,.55-.27A5.6,5.6,0,0,1,87.14,384.18Z" fill="#003a50"/><path d="M93.84,392a1,1,0,0,1-.32-.8,1.07,1.07,0,0,1,.32-.81,1.41,1.41,0,0,1,1.74,0,1.07,1.07,0,0,1,.32.81,1,1,0,0,1-.32.8,1.41,1.41,0,0,1-1.74,0Z" fill="#003a50"/><path d="M98,388.82h2.21s0,.07,0,.18a2.36,2.36,0,0,0,.23.43,2.09,2.09,0,0,0,.41.48,2,2,0,0,0,.75.42,3.21,3.21,0,0,0,1,.17,2.67,2.67,0,0,0,2.24-1.07,4.3,4.3,0,0,0,.81-2.71h-.06a2,2,0,0,1-.44.47,2.73,2.73,0,0,1-.6.4,3.74,3.74,0,0,1-1,.32,5.52,5.52,0,0,1-1.23.14,5,5,0,0,1-3.36-1.13,3.74,3.74,0,0,1,0-5.73,5.56,5.56,0,0,1,3.61-1.1,4.81,4.81,0,0,1,3.87,1.54,6.4,6.4,0,0,1,1.32,4.27v.41a6.7,6.7,0,0,1-1.37,4.31,4.71,4.71,0,0,1-3.89,1.71,6,6,0,0,1-2.17-.37A3.86,3.86,0,0,1,99,391,3.35,3.35,0,0,1,98,388.82Zm2.77-3.17a3.6,3.6,0,0,0,4,0,1.85,1.85,0,0,0,.78-1.57,1.87,1.87,0,0,0-.78-1.57,3.21,3.21,0,0,0-2-.58,3.17,3.17,0,0,0-2,.58,2,2,0,0,0,0,3.14Z" fill="#003a50"/><path d="M95.37,264.93h-2.1v-2.65h-7v-1.84L92.58,253h2.79v7.42H97v1.84h-1.6Zm-2.1-4.49v-5.33H93.2l-4.48,5.28v.05Z" fill="#003a50"/><path d="M98.65,264.8a1,1,0,0,1-.32-.81,1.07,1.07,0,0,1,.32-.81,1.25,1.25,0,0,1,.88-.29,1.21,1.21,0,0,1,.86.29,1,1,0,0,1,.32.81,1,1,0,0,1-.32.81,1.26,1.26,0,0,1-.86.29A1.3,1.3,0,0,1,98.65,264.8Z" fill="#003a50"/><path d="M104.06,263.39a7.33,7.33,0,0,1,0-8.83,5.69,5.69,0,0,1,8.13,0,7.33,7.33,0,0,1,0,8.83,5.71,5.71,0,0,1-8.13,0Zm6.53-1.39a5,5,0,0,0,.87-3,5,5,0,0,0-.87-3,3.15,3.15,0,0,0-4.92,0,5,5,0,0,0-.88,3,5,5,0,0,0,.88,3,3.14,3.14,0,0,0,4.92,0Z" fill="#003a50"/><path d="M153.36,294.88h-5.82V293h8.86v1.84l-4.53,2.65v.07h1.28a3.9,3.9,0,0,1,2.79,1,3.53,3.53,0,0,1,1.06,2.67,3.35,3.35,0,0,1-1.33,2.82,7,7,0,0,1-7.25,0,3.38,3.38,0,0,1-1.32-2.86v-.32h2.11v.32c0,1.37.94,2,2.84,2s2.84-.67,2.84-2-.95-2-2.84-2h-3.27v-1.67l4.58-2.68Z" fill="#003a50"/><path d="M159.1,304.81a1,1,0,0,1-.33-.8,1,1,0,0,1,.33-.81,1.4,1.4,0,0,1,1.73,0,1,1,0,0,1,.33.81,1,1,0,0,1-.33.8,1.4,1.4,0,0,1-1.73,0Z" fill="#003a50"/><path d="M171.43,305h-2.11V302.3h-7v-1.85l6.3-7.41h2.79v7.41H173v1.85h-1.59Zm-2.11-4.5v-5.32h-.07l-4.47,5.27v.05Z" fill="#003a50"/><path d="M127.11,165.92H125v-2.65h-7v-1.84l6.29-7.41h2.79v7.41h1.6v1.84h-1.6ZM125,161.43v-5.32h-.06l-4.48,5.27v.05Z" fill="#003a50"/><path d="M130.39,165.79a1,1,0,0,1-.32-.8,1.07,1.07,0,0,1,.32-.81,1.41,1.41,0,0,1,1.74,0,1.07,1.07,0,0,1,.32.81,1,1,0,0,1-.32.8,1.41,1.41,0,0,1-1.74,0Z" fill="#003a50"/><path d="M135.8,164.39a7.34,7.34,0,0,1,0-8.84,5.71,5.71,0,0,1,8.13,0,7.34,7.34,0,0,1,0,8.84,5.71,5.71,0,0,1-8.13,0Zm6.53-1.39a5.73,5.73,0,0,0,0-6.07,3.15,3.15,0,0,0-4.92,0,5.67,5.67,0,0,0,0,6.07,2.88,2.88,0,0,0,2.46,1.19A2.93,2.93,0,0,0,142.33,163Z" fill="#003a50"/><path d="M131.39,75.93A5,5,0,0,1,134.73,77,3.69,3.69,0,0,1,136,80a3.73,3.73,0,0,1-1.3,3,5.38,5.38,0,0,1-3.54,1.08,5.87,5.87,0,0,1-3.57-1,3.18,3.18,0,0,1-1.29-2.69h2.11a1.55,1.55,0,0,0,.71,1.34,3.57,3.57,0,0,0,2,.48,3.17,3.17,0,0,0,2-.57,2.36,2.36,0,0,0,0-3.39,3.25,3.25,0,0,0-2.07-.58,3.7,3.7,0,0,0-1.92.41,2.24,2.24,0,0,0-.7.64l0,.13h-2.11V72h8.88v1.85H128.4v3h0a2.77,2.77,0,0,1,.4-.3,3.11,3.11,0,0,1,.55-.27A5.63,5.63,0,0,1,131.39,75.93Z" fill="#003a50"/><path d="M138.1,83.78a1,1,0,0,1-.33-.81,1,1,0,0,1,.33-.8,1.4,1.4,0,0,1,1.73,0,1,1,0,0,1,.33.8,1,1,0,0,1-.33.81,1.4,1.4,0,0,1-1.73,0Z" fill="#003a50"/><path d="M145.2,83.91h-2.35l5.42-10h-6.93V72h9.29v1.88Z" fill="#003a50"/><path d="M286.7,61.92l-2.48,2V61.63L287,59.37h1.86v11.9H286.7Z" fill="#003a50"/><path d="M299.75,71.27h-2.11V68.63h-7V66.78L297,59.37h2.79v7.41h1.6v1.85h-1.6Zm-2.11-4.49V61.46h-.06l-4.48,5.27v0Z" fill="#003a50"/><path d="M303,71.14a1,1,0,0,1-.32-.8,1.07,1.07,0,0,1,.32-.81,1.25,1.25,0,0,1,.88-.3,1.22,1.22,0,0,1,.86.3,1,1,0,0,1,.32.81,1,1,0,0,1-.32.8,1.22,1.22,0,0,1-.86.3A1.25,1.25,0,0,1,303,71.14Z" fill="#003a50"/><path d="M315.37,71.27h-2.11V68.63h-7V66.78l6.3-7.41h2.79v7.41H317v1.85h-1.59Zm-2.11-4.49V61.46h-.07l-4.48,5.27v0Z" fill="#003a50"/><path d="M119,23.7A4.52,4.52,0,0,1,118,20.59,4.57,4.57,0,0,1,119,17.47a4,4,0,0,1,5.73,0,4.56,4.56,0,0,1,1,3.12,4.52,4.52,0,0,1-1,3.11,4,4,0,0,1-5.73,0Zm4.6-1a3.47,3.47,0,0,0,.62-2.13,3.56,3.56,0,0,0-.62-2.15,2.23,2.23,0,0,0-3.47,0,3.53,3.53,0,0,0-.62,2.15,3.47,3.47,0,0,0,.62,2.13,2.21,2.21,0,0,0,3.47,0Z" fill="#003a50"/><path d="M127.36,24.69a.71.71,0,0,1-.23-.56.75.75,0,0,1,.23-.57,1,1,0,0,1,1.23,0,.74.74,0,0,1,.22.57.7.7,0,0,1-.22.56,1,1,0,0,1-1.23,0Z" fill="#003a50"/><path d="M137,18.75h-1.56s0,0,0-.12a1.85,1.85,0,0,0-.16-.31A1.31,1.31,0,0,0,135,18a1.2,1.2,0,0,0-.5-.29,2,2,0,0,0-.71-.12,1.76,1.76,0,0,0-1.52.73,3.11,3.11,0,0,0-.54,1.89h0a1.27,1.27,0,0,1,.31-.3,3.28,3.28,0,0,1,.43-.26,3.14,3.14,0,0,1,.67-.21,3.92,3.92,0,0,1,3.24.69,2.49,2.49,0,0,1,.92,2,2.54,2.54,0,0,1-1,2.06,4,4,0,0,1-2.54.77,3.41,3.41,0,0,1-2.74-1.09,4.48,4.48,0,0,1-.93-3v-.28a4.86,4.86,0,0,1,.93-3.05,3.22,3.22,0,0,1,2.69-1.2,4.14,4.14,0,0,1,1.5.26,2.61,2.61,0,0,1,1,.66A2.48,2.48,0,0,1,137,18.75ZM135.2,21a2.58,2.58,0,0,0-2.79,0,1.35,1.35,0,0,0-.55,1.12,1.29,1.29,0,0,0,.55,1.1,2.22,2.22,0,0,0,1.4.42,2.26,2.26,0,0,0,1.4-.42,1.31,1.31,0,0,0,.54-1.1A1.33,1.33,0,0,0,135.2,21Z" fill="#003a50"/><path d="M273.37,23.7a4.52,4.52,0,0,1-1.05-3.11,4.57,4.57,0,0,1,1.05-3.12,4,4,0,0,1,5.73,0,4.57,4.57,0,0,1,1,3.12,4.52,4.52,0,0,1-1,3.11,4,4,0,0,1-5.73,0Zm4.6-1a3.47,3.47,0,0,0,.62-2.13,3.56,3.56,0,0,0-.62-2.15,2.23,2.23,0,0,0-3.47,0,3.53,3.53,0,0,0-.62,2.15,3.47,3.47,0,0,0,.62,2.13,2.21,2.21,0,0,0,3.47,0Z" fill="#003a50"/><path d="M281.69,24.69a.71.71,0,0,1-.23-.56.75.75,0,0,1,.23-.57.9.9,0,0,1,.62-.21.87.87,0,0,1,.61.21.75.75,0,0,1,.23.57.71.71,0,0,1-.23.56.87.87,0,0,1-.61.21A.9.9,0,0,1,281.69,24.69Z" fill="#003a50"/><path d="M291.3,18.75h-1.56s0,0,0-.12a2.73,2.73,0,0,0-.15-.31,1.6,1.6,0,0,0-.28-.35,1.14,1.14,0,0,0-.5-.29,2,2,0,0,0-.71-.12,1.76,1.76,0,0,0-1.52.73,3.11,3.11,0,0,0-.54,1.89h0a1.18,1.18,0,0,1,.32-.3,3.19,3.19,0,0,1,.42-.26,3.14,3.14,0,0,1,.67-.21,3.92,3.92,0,0,1,3.24.69,2.49,2.49,0,0,1,.92,2,2.54,2.54,0,0,1-1,2.06,4,4,0,0,1-2.54.77,3.38,3.38,0,0,1-2.73-1.09,4.48,4.48,0,0,1-.94-3v-.28a4.86,4.86,0,0,1,.94-3.05,3.18,3.18,0,0,1,2.68-1.2,4.14,4.14,0,0,1,1.5.26,2.61,2.61,0,0,1,1,.66A2.43,2.43,0,0,1,291.3,18.75ZM289.53,21a2.27,2.27,0,0,0-1.39-.41,2.32,2.32,0,0,0-1.4.41,1.35,1.35,0,0,0-.55,1.12,1.32,1.32,0,0,0,.55,1.1,2.54,2.54,0,0,0,2.8,0,1.31,1.31,0,0,0,.54-1.1A1.33,1.33,0,0,0,289.53,21Z" fill="#003a50"/><path d="M383.12,167.34a5.2,5.2,0,0,1-6.24,0,4,4,0,0,1,0-5.74,5.2,5.2,0,0,1,6.24,0,4,4,0,0,1,0,5.74Zm-1-4.61a4.06,4.06,0,0,0-4.28,0,2.21,2.21,0,0,0,0,3.47,4,4,0,0,0,4.28,0,2,2,0,0,0,.84-1.73A2.05,2.05,0,0,0,382.14,162.73Z" fill="#003a50"/><path d="M384.11,159a.72.72,0,0,1-.57.23A.75.75,0,0,1,383,159a.87.87,0,0,1-.21-.61.85.85,0,0,1,.21-.61.71.71,0,0,1,.57-.23.69.69,0,0,1,.57.23.85.85,0,0,1,.21.61A.87.87,0,0,1,384.11,159Z" fill="#003a50"/><path d="M378.17,149.4V151s-.05,0-.13,0a1.38,1.38,0,0,0-.31.15,2.33,2.33,0,0,0-.35.27,1.4,1.4,0,0,0-.29.5,2.35,2.35,0,0,0-.11.71,1.77,1.77,0,0,0,.72,1.52,3.12,3.12,0,0,0,1.9.54v0a1.27,1.27,0,0,1-.31-.31,2.73,2.73,0,0,1-.26-.43,3.14,3.14,0,0,1-.21-.67,4,4,0,0,1-.09-.86,3.57,3.57,0,0,1,.78-2.38,2.49,2.49,0,0,1,2-.92,2.52,2.52,0,0,1,2.05,1,3.92,3.92,0,0,1,.78,2.55,3.38,3.38,0,0,1-1.09,2.73,4.5,4.5,0,0,1-3,.93h-.29a4.83,4.83,0,0,1-3-.93,3.18,3.18,0,0,1-1.21-2.69,3.93,3.93,0,0,1,.27-1.5,2.69,2.69,0,0,1,.66-1A2.44,2.44,0,0,1,378.17,149.4Zm2.22,1.77a2.58,2.58,0,0,0,0,2.79,1.3,1.3,0,0,0,1.11.55,1.32,1.32,0,0,0,1.11-.54,2.6,2.6,0,0,0,0-2.8,1.4,1.4,0,0,0-2.22,0Z" fill="#003a50"/><path d="M383.14,324.76a5.15,5.15,0,0,1-6.23,0,4,4,0,0,1,0-5.73,5.15,5.15,0,0,1,6.23,0,4,4,0,0,1,0,5.73Zm-1-4.6a3.48,3.48,0,0,0-2.14-.62,3.52,3.52,0,0,0-2.14.62,2.23,2.23,0,0,0,0,3.47,4,4,0,0,0,4.28,0,2.21,2.21,0,0,0,0-3.47Z" fill="#003a50"/><path d="M384.13,316.44a.72.72,0,0,1-.57.23.74.74,0,0,1-.56-.23,1,1,0,0,1,0-1.23.74.74,0,0,1,.56-.23.72.72,0,0,1,.57.23,1,1,0,0,1,0,1.23Z" fill="#003a50"/><path d="M378.19,306.83v1.56l-.12,0a1.85,1.85,0,0,0-.31.16,1.31,1.31,0,0,0-.35.27,1.2,1.2,0,0,0-.29.5,2,2,0,0,0-.12.71,1.76,1.76,0,0,0,.73,1.52,3.11,3.11,0,0,0,1.89.54v0a1.27,1.27,0,0,1-.3-.31,2.46,2.46,0,0,1-.26-.43,3.09,3.09,0,0,1-.22-.67,4.12,4.12,0,0,1-.09-.86,3.53,3.53,0,0,1,.79-2.38,2.62,2.62,0,0,1,4,0,3.91,3.91,0,0,1,.78,2.54,3.38,3.38,0,0,1-1.09,2.73,4.43,4.43,0,0,1-3,.94H380a4.79,4.79,0,0,1-3-.94,3.18,3.18,0,0,1-1.2-2.68,3.93,3.93,0,0,1,.26-1.5,2.61,2.61,0,0,1,.66-1A2.39,2.39,0,0,1,378.19,306.83Zm2.22,1.77A2.29,2.29,0,0,0,380,310a2.32,2.32,0,0,0,.41,1.4,1.33,1.33,0,0,0,1.11.55,1.3,1.3,0,0,0,1.11-.55,2.22,2.22,0,0,0,.42-1.4,2.26,2.26,0,0,0-.42-1.4,1.4,1.4,0,0,0-2.22,0Z" fill="#003a50"/><path d="M383.12,482.17a5.2,5.2,0,0,1-6.24,0,4,4,0,0,1,0-5.74,5.2,5.2,0,0,1,6.24,0,4,4,0,0,1,0,5.74Zm-1-4.61a4.06,4.06,0,0,0-4.28,0,2.05,2.05,0,0,0-.84,1.74,2,2,0,0,0,.84,1.73,4,4,0,0,0,4.28,0,2,2,0,0,0,.84-1.73A2.05,2.05,0,0,0,382.14,477.56Z" fill="#003a50"/><path d="M384.11,473.84a.69.69,0,0,1-.57.23.71.71,0,0,1-.57-.23,1,1,0,0,1,0-1.22.75.75,0,0,1,.57-.23.72.72,0,0,1,.57.23,1,1,0,0,1,0,1.22Z" fill="#003a50"/><path d="M378.17,464.23v1.56s-.05,0-.13,0a1.38,1.38,0,0,0-.31.15,2.33,2.33,0,0,0-.35.27,1.4,1.4,0,0,0-.29.5,2.36,2.36,0,0,0-.11.72,1.76,1.76,0,0,0,.72,1.51,3.12,3.12,0,0,0,1.9.54v0a1.27,1.27,0,0,1-.31-.31,2.73,2.73,0,0,1-.26-.43,3,3,0,0,1-.21-.67,4,4,0,0,1-.09-.86,3.54,3.54,0,0,1,.78-2.37,2.46,2.46,0,0,1,2-.92,2.52,2.52,0,0,1,2.05,1,3.87,3.87,0,0,1,.78,2.54,3.38,3.38,0,0,1-1.09,2.73,4.5,4.5,0,0,1-3,.93h-.29a4.83,4.83,0,0,1-3-.93,3.18,3.18,0,0,1-1.21-2.68A3.86,3.86,0,0,1,376,466a2.73,2.73,0,0,1,.66-1A2.44,2.44,0,0,1,378.17,464.23Zm2.22,1.77a2.26,2.26,0,0,0-.41,1.4,2.21,2.21,0,0,0,.41,1.39,1.3,1.3,0,0,0,1.11.55,1.32,1.32,0,0,0,1.11-.54,2.6,2.6,0,0,0,0-2.8,1.4,1.4,0,0,0-2.22,0Z" fill="#003a50"/></g></svg>