<svg id="Слой_1" data-name="Слой 1" xmlns="http://www.w3.org/2000/svg" xmlns:xlink="http://www.w3.org/1999/xlink" viewBox="0 0 407.34 493.23"><defs><clipPath id="clip-path"><polygon points="0 0.14 0 493.09 407.34 493.09 407.34 326.27 365.34 326.27 365.34 0.14 0 0.14" fill="none"/></clipPath></defs><polygon points="12.33 14.78 12.33 485.12 336.57 485.12 336.57 444.86 365.41 444.86 365.41 326.27 365.34 326.27 365.34 300.82 336.57 300.82 336.57 218.53 365.34 218.53 365.34 14.78 12.33 14.78" fill="#fff"/><rect x="11.82" y="487.63" width="353.58" height="5.45" fill="#fff"/><rect y="0.14" width="167.66" height="7.09" fill="#fff"/><g clip-path="url(#clip-path)"><line x1="11.82" y1="10.9" x2="11.82" y2="1206.27" fill="none" stroke="#003a50" stroke-miterlimit="10"/><polyline points="768.92 -196.86 768.92 -1300.47 745.92 -1323.47 -95.7 -1323.47 -118.7 -1300.47 -118.7 45.66 0.91 45.66 0.91 1170.78" fill="none" stroke="#003a50" stroke-miterlimit="10"/><polyline points="0.49 1216.97 1083.16 1216.97 1083.16 1192.83 1083.16 -196.86 776.25 -196.86" fill="none" stroke="#003a50" stroke-miterlimit="10"/></g><rect x="29.47" y="65.79" width="4.55" height="68.7" fill="#fff"/><rect x="29.47" y="65.79" width="4.55" height="68.7" fill="none" stroke="#003a50" stroke-miterlimit="10"/><line x1="31.74" y1="65.79" x2="31.74" y2="134.49" fill="none" stroke="#003a50" stroke-miterlimit="10"/><rect x="29.47" y="65.79" width="4.55" height="4.34" fill="#fff"/><rect x="29.47" y="65.79" width="4.55" height="4.34" fill="none" stroke="#003a50" stroke-miterlimit="10"/><rect x="29.47" y="130.15" width="4.55" height="4.34" fill="#fff"/><rect x="29.47" y="130.14" width="4.55" height="4.34" fill="none" stroke="#003a50" stroke-miterlimit="10"/><rect x="29.47" y="95.8" width="4.55" height="4.34" fill="#fff"/><rect x="29.47" y="95.8" width="4.55" height="4.34" fill="none" stroke="#003a50" stroke-miterlimit="10"/><g clip-path="url(#clip-path)"><path d="M34,100.14h2.53c17.6,0,28.92,13.43,28.92,30H34" fill="none" stroke="#003a50" stroke-miterlimit="10"/></g><rect x="29.47" y="222.36" width="4.55" height="72.54" fill="#fff"/><rect x="29.47" y="222.36" width="4.55" height="72.54" fill="none" stroke="#003a50" stroke-miterlimit="10"/><line x1="31.74" y1="222.36" x2="31.74" y2="294.9" fill="none" stroke="#003a50" stroke-miterlimit="10"/><rect x="29.47" y="222.36" width="4.55" height="4.58" fill="#fff"/><rect x="29.47" y="222.36" width="4.55" height="4.58" fill="none" stroke="#003a50" stroke-miterlimit="10"/><rect x="29.47" y="290.31" width="4.55" height="4.58" fill="#fff"/><rect x="29.47" y="290.31" width="4.55" height="4.58" fill="none" stroke="#003a50" stroke-miterlimit="10"/><rect x="29.47" y="254.04" width="4.55" height="4.59" fill="#fff"/><rect x="29.47" y="254.04" width="4.55" height="4.58" fill="none" stroke="#003a50" stroke-miterlimit="10"/><g clip-path="url(#clip-path)"><path d="M34,258.63h2.53c17.6,0,28.92,14.18,28.92,31.68H34" fill="none" stroke="#003a50" stroke-miterlimit="10"/></g><rect x="29.47" y="382.46" width="4.55" height="70.84" fill="#fff"/><rect x="29.47" y="382.46" width="4.55" height="70.84" fill="none" stroke="#003a50" stroke-miterlimit="10"/><line x1="31.74" y1="453.31" x2="31.74" y2="382.47" fill="none" stroke="#003a50" stroke-miterlimit="10"/><rect x="29.47" y="448.83" width="4.55" height="4.48" fill="#fff"/><rect x="29.47" y="448.83" width="4.55" height="4.48" fill="none" stroke="#003a50" stroke-miterlimit="10"/><rect x="29.47" y="382.46" width="4.55" height="4.48" fill="#fff"/><rect x="29.47" y="382.46" width="4.55" height="4.48" fill="none" stroke="#003a50" stroke-miterlimit="10"/><rect x="29.47" y="417.88" width="4.55" height="4.48" fill="#fff"/><rect x="29.47" y="417.88" width="4.55" height="4.48" fill="none" stroke="#003a50" stroke-miterlimit="10"/><g clip-path="url(#clip-path)"><path d="M34,417.88h2.53c17.6,0,28.92-13.85,28.92-30.94H34" fill="none" stroke="#003a50" stroke-miterlimit="10"/><rect x="71.28" y="-38.83" width="86.85" height="38.86" fill="none" stroke="#003a50" stroke-miterlimit="10"/></g><rect x="315.46" y="11.61" width="38.86" height="86.85" fill="none" stroke="#003a50" stroke-miterlimit="10"/><g clip-path="url(#clip-path)"><path d="M349.51,29.52v51a14.36,14.36,0,0,1-14.6,14.1h0a14.35,14.35,0,0,1-14.59-14.1v-51a14.35,14.35,0,0,1,14.59-14.1h0A14.36,14.36,0,0,1,349.51,29.52Z" fill="none" stroke="#003a50" stroke-miterlimit="10"/><path d="M334.89,31.26A2,2,0,1,1,337,29.21,2.09,2.09,0,0,1,334.89,31.26Z" fill="none" stroke="#003a50" stroke-miterlimit="10"/></g><rect x="249.18" y="256.03" width="82.09" height="36.73" fill="none" stroke="#003a50" stroke-miterlimit="10"/><g clip-path="url(#clip-path)"><path d="M314.34,288.21H266.12a13.57,13.57,0,0,1-13.33-13.8v0a13.57,13.57,0,0,1,13.33-13.8h48.22a13.57,13.57,0,0,1,13.33,13.8v0A13.57,13.57,0,0,1,314.34,288.21Z" fill="none" stroke="#003a50" stroke-miterlimit="10"/><path d="M312.7,274.39a1.94,1.94,0,1,1,1.93,2A2,2,0,0,1,312.7,274.39Z" fill="none" stroke="#003a50" stroke-miterlimit="10"/><rect x="252.7" y="492.32" width="79.44" height="35.55" fill="none" stroke="#003a50" stroke-miterlimit="10"/><path d="M275,75V98.16h18.34V75A9.17,9.17,0,1,0,275,75Z" fill="none" stroke="#003a50" stroke-miterlimit="10"/></g><line x1="293.37" y1="89.12" x2="275.03" y2="89.12" fill="none" stroke="#003a50" stroke-miterlimit="10"/><g clip-path="url(#clip-path)"><path d="M287.25,211.7V188.49H268.91V211.7a9.17,9.17,0,0,0,18.34,0Z" fill="none" stroke="#003a50" stroke-miterlimit="10"/></g><line x1="268.91" y1="197.52" x2="287.25" y2="197.52" fill="none" stroke="#003a50" stroke-miterlimit="10"/><g clip-path="url(#clip-path)"><path d="M305.39,30V14.23a2.3,2.3,0,0,0-2.3-2.31H287.81a2.3,2.3,0,0,0-2.31,2.31V30a2.31,2.31,0,0,0,2.31,2.31h15.28A2.31,2.31,0,0,0,305.39,30Z" fill="none" stroke="#003a50" stroke-miterlimit="10"/><path d="M295.44,23.68a1.56,1.56,0,1,0-1.55-1.56A1.56,1.56,0,0,0,295.44,23.68Z" fill="none" stroke="#003a50" stroke-miterlimit="10"/><path d="M282.32,30V14.23a2.3,2.3,0,0,0-2.3-2.31H264.74a2.3,2.3,0,0,0-2.31,2.31V30a2.31,2.31,0,0,0,2.31,2.31H280A2.31,2.31,0,0,0,282.32,30Z" fill="none" stroke="#003a50" stroke-miterlimit="10"/><path d="M272.38,23.68a1.56,1.56,0,1,0-1.56-1.56A1.55,1.55,0,0,0,272.38,23.68Z" fill="none" stroke="#003a50" stroke-miterlimit="10"/></g><rect x="249.28" y="13.73" width="66.19" height="20.25" fill="none" stroke="#003a50" stroke-miterlimit="10" stroke-width="1.14"/><g clip-path="url(#clip-path)"><path d="M313.47,250h15.79a2.32,2.32,0,0,0,2.31-2.31V232.37a2.32,2.32,0,0,0-2.31-2.31H313.47a2.31,2.31,0,0,0-2.31,2.31v15.28A2.31,2.31,0,0,0,313.47,250Z" fill="none" stroke="#003a50" stroke-miterlimit="10"/><path d="M319.81,240a1.56,1.56,0,1,0,1.55-1.56A1.55,1.55,0,0,0,319.81,240Z" fill="none" stroke="#003a50" stroke-miterlimit="10"/></g><rect x="309.51" y="222.68" width="20.25" height="33.34" fill="none" stroke="#003a50" stroke-miterlimit="10"/><rect x="46.41" y="145.74" width="148.58" height="13.62" fill="none" stroke="#003a50" stroke-miterlimit="10"/><polygon points="147.39 152.12 113.03 154.94 78.5 152.12 78.5 150.15 147.39 150.15 147.39 152.12" fill="none" stroke="#003a50" stroke-miterlimit="10"/><rect x="92.24" y="163.53" width="98.82" height="45.5" fill="none" stroke="#003a50" stroke-miterlimit="10"/><g clip-path="url(#clip-path)"><path d="M100.67,171.58v29a2.11,2.11,0,0,0,2.11,2.1h58.51V169.48H102.78A2.11,2.11,0,0,0,100.67,171.58Z" fill="none" stroke="#003a50" stroke-miterlimit="10"/></g><rect x="149.25" y="169.47" width="12.04" height="33.26" fill="none" stroke="#003a50" stroke-miterlimit="10"/><g clip-path="url(#clip-path)"><rect x="164.43" y="169.13" width="19.89" height="33.65" rx="2.2" fill="none" stroke="#003a50" stroke-miterlimit="10"/></g><rect x="47.76" y="293.37" width="144.34" height="26.08" fill="none" stroke="#003a50" stroke-miterlimit="10"/><g clip-path="url(#clip-path)"><path d="M60.7,297.07a.76.76,0,0,1,.43-.69.77.77,0,0,1,1,.35,22,22,0,0,1,0,19.36.77.77,0,1,1-1.38-.68,20.53,20.53,0,0,0,0-18A.64.64,0,0,1,60.7,297.07Z" fill="none" stroke="#003a50" stroke-miterlimit="10"/><path d="M65,297.07a.77.77,0,0,1,1.46-.34,22,22,0,0,1,0,19.36.75.75,0,0,1-1,.35.77.77,0,0,1-.36-1,20.44,20.44,0,0,0,0-18A.76.76,0,0,1,65,297.07Z" fill="none" stroke="#003a50" stroke-miterlimit="10"/><path d="M69.23,297.07a.76.76,0,0,1,.43-.69.77.77,0,0,1,1,.35,22,22,0,0,1,0,19.36.77.77,0,1,1-1.38-.68,20.44,20.44,0,0,0,0-18A.76.76,0,0,1,69.23,297.07Z" fill="none" stroke="#003a50" stroke-miterlimit="10"/><path d="M73.5,297.07a.76.76,0,0,1,.43-.69.77.77,0,0,1,1,.35,22,22,0,0,1,0,19.36.77.77,0,0,1-1.38-.68,20.53,20.53,0,0,0,0-18A.64.64,0,0,1,73.5,297.07Z" fill="none" stroke="#003a50" stroke-miterlimit="10"/><path d="M77.76,297.07a.77.77,0,0,1,1.46-.34,22,22,0,0,1,0,19.36.75.75,0,0,1-1,.35.77.77,0,0,1-.36-1,20.44,20.44,0,0,0,0-18A.76.76,0,0,1,77.76,297.07Z" fill="none" stroke="#003a50" stroke-miterlimit="10"/><path d="M82,297.07a.76.76,0,0,1,.43-.69.77.77,0,0,1,1,.35,22,22,0,0,1,0,19.36.77.77,0,1,1-1.38-.68,20.53,20.53,0,0,0,0-18A.76.76,0,0,1,82,297.07Z" fill="none" stroke="#003a50" stroke-miterlimit="10"/><path d="M56.43,297.07a.76.76,0,0,1,.43-.69.77.77,0,0,1,1,.35,22,22,0,0,1,0,19.36.77.77,0,1,1-1.38-.68,20.53,20.53,0,0,0,0-18A.64.64,0,0,1,56.43,297.07Z" fill="none" stroke="#003a50" stroke-miterlimit="10"/><path d="M52.16,297.07a.77.77,0,0,1,1.46-.34,22,22,0,0,1,0,19.36.75.75,0,0,1-1,.35.77.77,0,0,1-.36-1,20.44,20.44,0,0,0,0-18A.76.76,0,0,1,52.16,297.07Z" fill="none" stroke="#003a50" stroke-miterlimit="10"/></g><line x1="47.57" y1="306.41" x2="194.33" y2="306.41" fill="none" stroke="#003a50" stroke-miterlimit="10"/><rect x="249.96" y="297.34" width="45.53" height="25.89" fill="none" stroke="#003a50" stroke-miterlimit="10"/><g clip-path="url(#clip-path)"><path d="M263.09,319.56a.76.76,0,0,0,.43.69.77.77,0,0,0,1-.35,21.73,21.73,0,0,0,0-19.22.77.77,0,0,0-1-.35.75.75,0,0,0-.35,1,20.25,20.25,0,0,1,0,17.88A.67.67,0,0,0,263.09,319.56Z" fill="none" stroke="#003a50" stroke-miterlimit="10"/><path d="M267.36,319.56a.77.77,0,0,0,.42.69.78.78,0,0,0,1-.35,21.73,21.73,0,0,0,0-19.22.77.77,0,0,0-1-.35.75.75,0,0,0-.35,1,20.25,20.25,0,0,1,0,17.88A.67.67,0,0,0,267.36,319.56Z" fill="none" stroke="#003a50" stroke-miterlimit="10"/><path d="M271.62,319.56a.76.76,0,0,0,.43.69.77.77,0,0,0,1-.35,21.73,21.73,0,0,0,0-19.22.77.77,0,0,0-1-.35.75.75,0,0,0-.35,1,20.17,20.17,0,0,1,0,17.88A.8.8,0,0,0,271.62,319.56Z" fill="none" stroke="#003a50" stroke-miterlimit="10"/><path d="M275.89,319.56a.76.76,0,0,0,.43.69.77.77,0,0,0,1-.35,21.73,21.73,0,0,0,0-19.22.77.77,0,0,0-1-.35.75.75,0,0,0-.35,1,20.25,20.25,0,0,1,0,17.88A.67.67,0,0,0,275.89,319.56Z" fill="none" stroke="#003a50" stroke-miterlimit="10"/><path d="M280.16,319.56a.77.77,0,0,0,.42.69.78.78,0,0,0,1-.35,21.73,21.73,0,0,0,0-19.22.77.77,0,0,0-1-.35.75.75,0,0,0-.35,1,20.25,20.25,0,0,1,0,17.88A.67.67,0,0,0,280.16,319.56Z" fill="none" stroke="#003a50" stroke-miterlimit="10"/><path d="M284.42,319.56a.77.77,0,0,0,1.46.34,21.73,21.73,0,0,0,0-19.22.77.77,0,0,0-1.38.67,20.17,20.17,0,0,1,0,17.88A.8.8,0,0,0,284.42,319.56Z" fill="none" stroke="#003a50" stroke-miterlimit="10"/><path d="M258.82,319.56a.76.76,0,0,0,.43.69.77.77,0,0,0,1-.35,21.73,21.73,0,0,0,0-19.22.77.77,0,0,0-1-.35.75.75,0,0,0-.35,1,20.17,20.17,0,0,1,0,17.88A.8.8,0,0,0,258.82,319.56Z" fill="none" stroke="#003a50" stroke-miterlimit="10"/><path d="M254.56,319.56a.77.77,0,0,0,.42.69.78.78,0,0,0,1-.35,21.73,21.73,0,0,0,0-19.22.77.77,0,0,0-1-.35.75.75,0,0,0-.35,1,20.25,20.25,0,0,1,0,17.88A.67.67,0,0,0,254.56,319.56Z" fill="none" stroke="#003a50" stroke-miterlimit="10"/></g><line x1="249.97" y1="310.29" x2="295.49" y2="310.29" fill="none" stroke="#003a50" stroke-miterlimit="10"/><rect x="249.76" y="158.02" width="55.63" height="26.08" fill="none" stroke="#003a50" stroke-miterlimit="10"/><g clip-path="url(#clip-path)"><path d="M262.88,180.4a.76.76,0,0,0,.43.69.77.77,0,0,0,1-.35,22.06,22.06,0,0,0,0-19.37.77.77,0,0,0-1-.34.75.75,0,0,0-.35,1,20.47,20.47,0,0,1,0,18A.76.76,0,0,0,262.88,180.4Z" fill="none" stroke="#003a50" stroke-miterlimit="10"/><path d="M267.15,180.4a.76.76,0,0,0,.43.69.77.77,0,0,0,1-.35,22.06,22.06,0,0,0,0-19.37.77.77,0,0,0-1-.34.75.75,0,0,0-.35,1,20.55,20.55,0,0,1,0,18A.64.64,0,0,0,267.15,180.4Z" fill="none" stroke="#003a50" stroke-miterlimit="10"/><path d="M271.41,180.4a.77.77,0,0,0,1.46.34,22.06,22.06,0,0,0,0-19.37.75.75,0,0,0-1-.34.76.76,0,0,0-.36,1,20.47,20.47,0,0,1,0,18A.76.76,0,0,0,271.41,180.4Z" fill="none" stroke="#003a50" stroke-miterlimit="10"/><path d="M275.68,180.4a.76.76,0,0,0,.43.69.77.77,0,0,0,1-.35,22.06,22.06,0,0,0,0-19.37.77.77,0,0,0-1-.34.75.75,0,0,0-.35,1,20.47,20.47,0,0,1,0,18A.76.76,0,0,0,275.68,180.4Z" fill="none" stroke="#003a50" stroke-miterlimit="10"/><path d="M280,180.4a.76.76,0,0,0,.43.69.77.77,0,0,0,1-.35,22.06,22.06,0,0,0,0-19.37.77.77,0,0,0-1-.34.75.75,0,0,0-.35,1,20.55,20.55,0,0,1,0,18A.64.64,0,0,0,280,180.4Z" fill="none" stroke="#003a50" stroke-miterlimit="10"/><path d="M284.22,180.4a.77.77,0,0,0,.42.69.78.78,0,0,0,1-.35,22.06,22.06,0,0,0,0-19.37.77.77,0,0,0-1-.34.75.75,0,0,0-.35,1,20.55,20.55,0,0,1,0,18A.64.64,0,0,0,284.22,180.4Z" fill="none" stroke="#003a50" stroke-miterlimit="10"/><path d="M258.61,180.4a.77.77,0,0,0,1.46.34,22.06,22.06,0,0,0,0-19.37.75.75,0,0,0-1-.34.76.76,0,0,0-.36,1,20.47,20.47,0,0,1,0,18A.76.76,0,0,0,258.61,180.4Z" fill="none" stroke="#003a50" stroke-miterlimit="10"/><path d="M254.35,180.4a.76.76,0,0,0,.43.69.77.77,0,0,0,1-.35,22.06,22.06,0,0,0,0-19.37.77.77,0,0,0-1-.34.75.75,0,0,0-.35,1,20.55,20.55,0,0,1,0,18A.64.64,0,0,0,254.35,180.4Z" fill="none" stroke="#003a50" stroke-miterlimit="10"/></g><line x1="249.76" y1="171.06" x2="305.39" y2="171.06" fill="none" stroke="#003a50" stroke-miterlimit="10"/><rect x="305.39" y="102.36" width="26.08" height="81.74" fill="none" stroke="#003a50" stroke-miterlimit="10"/><g clip-path="url(#clip-path)"><path d="M327.77,171a.77.77,0,0,0,.69-.42.78.78,0,0,0-.35-1,22,22,0,0,0-19.36,0,.77.77,0,0,0-.35,1,.76.76,0,0,0,1,.35,20.53,20.53,0,0,1,18,0A.64.64,0,0,0,327.77,171Z" fill="none" stroke="#003a50" stroke-miterlimit="10"/><path d="M327.77,166.71a.77.77,0,0,0,.34-1.46,22,22,0,0,0-19.36,0,.75.75,0,0,0-.35,1,.77.77,0,0,0,1,.36,20.53,20.53,0,0,1,18,0A.76.76,0,0,0,327.77,166.71Z" fill="none" stroke="#003a50" stroke-miterlimit="10"/><path d="M327.77,162.44a.76.76,0,0,0,.69-.43.77.77,0,0,0-.35-1,22,22,0,0,0-19.36,0,.77.77,0,1,0,.68,1.38,20.53,20.53,0,0,1,18,0A.64.64,0,0,0,327.77,162.44Z" fill="none" stroke="#003a50" stroke-miterlimit="10"/><path d="M327.77,158.17a.76.76,0,0,0,.69-.43.77.77,0,0,0-.35-1,22,22,0,0,0-19.36,0,.77.77,0,1,0,.68,1.38,20.53,20.53,0,0,1,18,0A.64.64,0,0,0,327.77,158.17Z" fill="none" stroke="#003a50" stroke-miterlimit="10"/><path d="M327.77,153.91a.77.77,0,0,0,.34-1.46,22,22,0,0,0-19.36,0,.75.75,0,0,0-.35,1,.77.77,0,0,0,1,.36,20.44,20.44,0,0,1,18,0A.76.76,0,0,0,327.77,153.91Z" fill="none" stroke="#003a50" stroke-miterlimit="10"/><path d="M327.77,149.64a.76.76,0,0,0,.69-.43.77.77,0,0,0-.35-1,22,22,0,0,0-19.36,0,.77.77,0,1,0,.68,1.38,20.44,20.44,0,0,1,18,0A.76.76,0,0,0,327.77,149.64Z" fill="none" stroke="#003a50" stroke-miterlimit="10"/><path d="M327.77,175.24a.76.76,0,0,0,.69-.43.77.77,0,0,0-.35-1,22,22,0,0,0-19.36,0,.77.77,0,1,0,.68,1.38,20.53,20.53,0,0,1,18,0A.64.64,0,0,0,327.77,175.24Z" fill="none" stroke="#003a50" stroke-miterlimit="10"/><path d="M327.77,179.51a.76.76,0,0,0,.69-.43.77.77,0,0,0-.35-1,22,22,0,0,0-19.36,0,.77.77,0,1,0,.68,1.38,20.44,20.44,0,0,1,18,0A.76.76,0,0,0,327.77,179.51Z" fill="none" stroke="#003a50" stroke-miterlimit="10"/></g><line x1="318.43" y1="184.1" x2="318.43" y2="99.95" fill="none" stroke="#003a50" stroke-miterlimit="10"/><rect x="160.73" y="14.32" width="18.91" height="18.91" fill="none" stroke="#003a50" stroke-miterlimit="10"/><g clip-path="url(#clip-path)"><path d="M164.76,29.19a7.67,7.67,0,1,0,0-10.84A7.67,7.67,0,0,0,164.76,29.19Z" fill="none" stroke="#003a50" stroke-miterlimit="10"/><path d="M164.24,28.61c1.41-.14,2.84.41,4.22-1,2-2-.12-4.19,1.92-6.22s4.18.12,6.22-1.91" fill="none" stroke="#003a50" stroke-miterlimit="10"/></g><rect x="46.25" y="14.32" width="18.91" height="18.91" fill="none" stroke="#003a50" stroke-miterlimit="10"/><g clip-path="url(#clip-path)"><path d="M50.28,29.19a7.67,7.67,0,1,0,0-10.84A7.67,7.67,0,0,0,50.28,29.19Z" fill="none" stroke="#003a50" stroke-miterlimit="10"/><path d="M49.76,28.61c1.41-.14,2.84.41,4.22-1,2-2-.12-4.19,1.92-6.22s4.18.12,6.22-1.91" fill="none" stroke="#003a50" stroke-miterlimit="10"/></g><rect x="70.37" y="14.32" width="85.08" height="94.54" fill="none" stroke="#003a50" stroke-miterlimit="10"/><g clip-path="url(#clip-path)"><path d="M78.7,100.74h68.41A1.74,1.74,0,0,0,148.85,99V42.6H77V99A1.73,1.73,0,0,0,78.7,100.74Z" fill="none" stroke="#003a50" stroke-miterlimit="10"/><path d="M115.28,39.59h32.13a1.65,1.65,0,0,0,1.65-1.66V22.16a1.65,1.65,0,0,0-1.65-1.65H115.28a1.65,1.65,0,0,0-1.65,1.65V37.93A1.65,1.65,0,0,0,115.28,39.59Z" fill="none" stroke="#003a50" stroke-miterlimit="10"/><path d="M78.4,39.59h32.13a1.65,1.65,0,0,0,1.66-1.65V22.16a1.65,1.65,0,0,0-1.66-1.65H78.4a1.65,1.65,0,0,0-1.65,1.65V37.94A1.65,1.65,0,0,0,78.4,39.59Z" fill="none" stroke="#003a50" stroke-miterlimit="10"/></g><line x1="76.75" y1="54.15" x2="149.06" y2="54.15" fill="none" stroke="#003a50" stroke-miterlimit="10"/><g clip-path="url(#clip-path)"><path d="M319.92,206.85a2.71,2.71,0,0,0,2.48-1.66h1.52l4,2.4-1.82,3L324,209.42v9.36h-8.77v-9.36l-2.11,1.16-1.83-3,4.07-2.4h2A2.75,2.75,0,0,0,319.92,206.85Z" fill="none" stroke="#003a50" stroke-miterlimit="10"/></g><rect x="309.51" y="201.28" width="20.25" height="21.4" fill="none" stroke="#003a50" stroke-miterlimit="10"/><g clip-path="url(#clip-path)"><path d="M228.22,460.41a1,1,0,0,0-.71,1.14,10.41,10.41,0,1,1-20.29,4.65,1,1,0,0,0-1.86.43,12.31,12.31,0,0,0,24-5.5A1,1,0,0,0,228.22,460.41Z" fill="none" stroke="#003a50" stroke-miterlimit="10"/><path d="M186.56,467.75a.94.94,0,0,0-1.32-.25,10.41,10.41,0,1,1-11.72-17.2,1,1,0,0,0,.25-1.32.94.94,0,0,0-1.32-.25,12.31,12.31,0,0,0,13.86,20.34A.94.94,0,0,0,186.56,467.75Z" fill="none" stroke="#003a50" stroke-miterlimit="10"/><path d="M184.67,432a1,1,0,0,0,1-.89,10.41,10.41,0,1,1,20.78,1.23.94.94,0,0,0,.89,1,1,1,0,0,0,1-.89A12.31,12.31,0,1,0,183.78,431,1,1,0,0,0,184.67,432Z" fill="none" stroke="#003a50" stroke-miterlimit="10"/><path d="M217.5,473a9.58,9.58,0,0,0,9.06-11.69l-1.54-6.7a2.66,2.66,0,0,0-3.2-2l-10.15,2.33a17.83,17.83,0,0,1-4.53,7.12l.72,3.18A9.82,9.82,0,0,0,217.5,473Z" fill="none" stroke="#003a50" stroke-miterlimit="10"/><path d="M185.18,466.52l1.75-1.2a18,18,0,0,1-10.3-16.1l-1.9,1.3a9.79,9.79,0,0,0-3.74,11.8A9.57,9.57,0,0,0,185.18,466.52Z" fill="none" stroke="#003a50" stroke-miterlimit="10"/><path d="M205.45,434.6l.09-1.48a9.8,9.8,0,0,0-7-10.18,9.56,9.56,0,0,0-12,8.67l-.09,1.39A18.06,18.06,0,0,1,199,431.55,17.65,17.65,0,0,1,205.45,434.6Z" fill="none" stroke="#003a50" stroke-miterlimit="10"/><path d="M207.14,462a17.83,17.83,0,0,0,4.53-7.12,13.1,13.1,0,0,0,.45-1.51,18,18,0,0,0-6.67-18.76,17.81,17.81,0,0,0-6.47-3.05,18,18,0,0,0-21.83,13.14,16.42,16.42,0,0,0-.51,4.53,18,18,0,0,0,10.3,16.1,17.78,17.78,0,0,0,3.38,1.21A18,18,0,0,0,207.14,462Z" fill="none" stroke="#003a50" stroke-miterlimit="10"/></g><rect x="46.91" y="323.05" width="148.72" height="13.62" fill="none" stroke="#003a50" stroke-miterlimit="10"/><g clip-path="url(#clip-path)"><path d="M61,528.7a2.35,2.35,0,0,1-2.51,2.14H55.25a2.35,2.35,0,0,1-2.51-2.14V492.31h85.62v36.07a2.36,2.36,0,0,1-2.52,2.14h-3.18a2.36,2.36,0,0,1-2.52-2.14V496.05H61Z" fill="none" stroke="#003a50" stroke-miterlimit="10"/><rect x="181.2" y="492.65" width="28.61" height="28.61" fill="none" stroke="#003a50" stroke-miterlimit="10"/><rect x="168.87" y="491.64" width="81.65" height="29.62" fill="none" stroke="#003a50" stroke-miterlimit="10"/><rect x="221.57" y="492.32" width="28.24" height="92.79" fill="none" stroke="#003a50" stroke-miterlimit="10"/></g><rect x="277.56" y="381.82" width="26.65" height="26.69" fill="none" stroke="#003a50" stroke-miterlimit="10"/><g clip-path="url(#clip-path)"><path d="M287.5,394.54v-8.66h6.74v8.66a2.78,2.78,0,0,1-2.77,2.79h-1.19A2.78,2.78,0,0,1,287.5,394.54Z" fill="none" stroke="#003a50" stroke-miterlimit="10"/></g><polyline points="293.6 405.61 290.87 405.61 288.14 405.61" fill="none" stroke="#003a50" stroke-miterlimit="10"/><line x1="290.87" y1="397.32" x2="290.87" y2="405.61" fill="none" stroke="#003a50" stroke-miterlimit="10"/><rect x="263.16" y="455.2" width="27.5" height="27.5" fill="none" stroke="#003a50" stroke-miterlimit="10"/><g clip-path="url(#clip-path)"><circle cx="270.63" cy="475.1" r="3.75" transform="translate(-4.02 2.31) rotate(-0.49)" fill="none" stroke="#003a50" stroke-miterlimit="10"/><circle cx="283.15" cy="475.1" r="3.75" transform="translate(-4.02 2.42) rotate(-0.49)" fill="none" stroke="#003a50" stroke-miterlimit="10"/><circle cx="270.63" cy="462.9" r="3.75" transform="translate(-7.43 4.42) rotate(-0.92)" fill="none" stroke="#003a50" stroke-miterlimit="10"/><circle cx="283.15" cy="462.9" r="3.75" transform="translate(-7.43 4.63) rotate(-0.92)" fill="none" stroke="#003a50" stroke-miterlimit="10"/></g><polyline points="325.78 434.63 325.78 429.96 325.78 425.29" fill="none" stroke="#003a50" stroke-miterlimit="10"/><line x1="316.42" y1="429.95" x2="325.78" y2="429.95" fill="none" stroke="#003a50" stroke-miterlimit="10"/><g clip-path="url(#clip-path)"><rect x="306.88" y="419.64" width="14.9" height="20.66" rx="3.24" fill="none" stroke="#003a50" stroke-miterlimit="10"/><path d="M315.26,430a1.67,1.67,0,0,0,3.33,0,1.67,1.67,0,1,0-3.33,0Z" fill="none" stroke="#003a50" stroke-miterlimit="10"/></g><rect x="250.82" y="381.8" width="26.74" height="26.74" fill="none" stroke="#003a50" stroke-miterlimit="10"/><line x1="256.35" y1="395.17" x2="272.04" y2="395.17" fill="none" stroke="#003a50" stroke-miterlimit="10"/><line x1="264.19" y1="387.32" x2="264.19" y2="403.01" fill="none" stroke="#003a50" stroke-miterlimit="10"/><line x1="258.64" y1="389.62" x2="269.74" y2="400.71" fill="none" stroke="#003a50" stroke-miterlimit="10"/><line x1="269.74" y1="389.62" x2="258.65" y2="400.71" fill="none" stroke="#003a50" stroke-miterlimit="10"/><rect x="249.66" y="455.2" width="54.56" height="27.5" fill="none" stroke="#003a50" stroke-miterlimit="10"/><rect x="304.23" y="381.86" width="28.24" height="100.9" fill="none" stroke="#003a50" stroke-miterlimit="10"/><rect x="295.49" y="309.03" width="58" height="14.2" fill="none" stroke="#003a50" stroke-miterlimit="10"/><rect x="248.53" y="101.26" width="56.86" height="17.55" fill="none" stroke="#003a50" stroke-miterlimit="10"/><g clip-path="url(#clip-path)"><path d="M49.43,165.4h0a1,1,0,0,0-1,1V219.1a1,1,0,0,0,1.94,0V166.36A1,1,0,0,0,49.43,165.4Z" fill="none" stroke="#003a50" stroke-miterlimit="10"/><path d="M70.42,201.21a10.23,10.23,0,0,0,11-16.2.79.79,0,0,0-1.11-.12.8.8,0,0,0-.12,1.12,8.63,8.63,0,0,1-9.8,13.5Z" fill="none" stroke="#003a50" stroke-miterlimit="10"/><rect x="46.86" y="163.63" width="23.56" height="58.2" rx="2.29" fill="none" stroke="#003a50" stroke-miterlimit="10"/><path d="M59.53,173.1a3.81,3.81,0,1,1,0-5.39A3.82,3.82,0,0,1,59.53,173.1Z" fill="none" stroke="#003a50" stroke-miterlimit="10"/><path d="M59.79,172.81c-.71-.06-1.42.2-2.1-.48-1-1,.06-2.08-1-3.1s-2.08.06-3.1-.95" fill="none" stroke="#003a50" stroke-miterlimit="10"/><path d="M70.42,198a7.36,7.36,0,1,0,0-13.57Z" fill="none" stroke="#003a50" stroke-miterlimit="10"/><rect x="42.82" y="-19.63" width="19.66" height="19.66" fill="none" stroke="#003a50" stroke-miterlimit="10"/><rect x="-51.09" y="-98.3" width="88.5" height="98.33" fill="none" stroke="#003a50" stroke-miterlimit="10"/></g><polygon points="149.27 330.3 114.91 327.47 80.38 330.3 80.38 332.26 149.27 332.26 149.27 330.3" fill="none" stroke="#003a50" stroke-miterlimit="10"/><g clip-path="url(#clip-path)"><path d="M114.86,448v31h34.56V446.34H116.53A1.68,1.68,0,0,0,114.86,448Z" fill="none" stroke="#003a50" stroke-miterlimit="10"/><path d="M80.23,447.85V479h34.56V447.85a1.5,1.5,0,0,0-1.5-1.5H81.72A1.5,1.5,0,0,0,80.23,447.85Z" fill="none" stroke="#003a50" stroke-miterlimit="10"/><path d="M149.42,446.35a2.35,2.35,0,0,1,2.51-2.14h3.19a2.35,2.35,0,0,1,2.51,2.14v36.39H72V446.67a2.36,2.36,0,0,1,2.52-2.14h3.18a2.36,2.36,0,0,1,2.52,2.14V479h69.19Z" fill="none" stroke="#003a50" stroke-miterlimit="10"/></g><rect x="80.23" y="472.02" width="69.19" height="6.98" fill="none" stroke="#003a50" stroke-miterlimit="10"/><g clip-path="url(#clip-path)"><path d="M247.42,252.29h-2.24c-15.59,0-28.22-13.64-28.22-30.46h30.46" fill="none" stroke="#003a50" stroke-miterlimit="10" stroke-width="1.6"/><path d="M247.42,73.16h-2.24C229.59,73.16,217,59.52,217,42.7h30.46" fill="none" stroke="#003a50" stroke-miterlimit="10" stroke-width="1.6"/><path d="M193.22,259.77h-2.68c-18.64,0-33.75-16.31-33.75-36.42h36.43" fill="none" stroke="#003a50" stroke-miterlimit="10" stroke-width="1.6"/><path d="M202,162.68v2.69c0,18.64,16.3,33.74,36.42,33.74V162.68" fill="none" stroke="#003a50" stroke-miterlimit="10" stroke-width="1.6"/><path d="M363.71,370.87h3.08c21.41,0,38.77-18.73,38.77-41.84H363.71" fill="none" stroke="#003a50" stroke-miterlimit="10" stroke-width="1.6"/></g><line x1="240.55" y1="113.63" x2="240.55" y2="148.36" fill="none" stroke="#003a50" stroke-miterlimit="10" stroke-width="1.6"/><rect x="65.53" y="0.14" width="5.75" height="5.05" fill="#003a50"/><rect x="244.54" y="9.53" width="5.75" height="33.94" fill="#003a50"/><rect x="247.55" y="97.57" width="106.77" height="5.75" fill="#003a50"/><rect x="247.55" y="183.4" width="106.77" height="5.75" fill="#003a50"/><rect x="39.03" y="158.57" width="163.77" height="5.75" fill="#003a50"/><rect x="39.03" y="317.98" width="157.06" height="5.75" fill="#003a50"/><rect x="237.66" y="158.57" width="9.73" height="5.75" fill="#003a50"/><rect x="247.55" y="292.03" width="87.26" height="5.75" fill="#003a50"/><rect x="250.29" y="376.86" width="103.2" height="5.75" fill="#003a50"/><rect x="244.54" y="72.34" width="5.75" height="51.6" fill="#003a50"/><rect x="244.54" y="152.78" width="5.75" height="69.92" fill="#003a50"/><rect x="244.54" y="251.46" width="5.75" height="72.27" fill="#003a50"/><rect x="330.82" y="379.74" width="5.75" height="113.35" fill="#003a50"/><rect x="247.65" y="485.11" width="5.75" height="7.97" fill="#003a50"/><rect x="333.09" y="214.39" width="32.25" height="10.14" fill="#003a50"/><rect x="330.21" y="214.39" width="9.2" height="88.64" fill="#003a50"/><rect x="332.16" y="439.7" width="33.25" height="8.08" fill="#003a50"/><rect x="332.16" y="444.86" width="8.5" height="40.25" fill="#003a50"/><rect x="241.67" y="0.14" width="5.75" height="1.14" fill="#003a50"/><rect x="190.34" y="258.98" width="5.75" height="64.76" fill="#003a50"/><rect x="190.34" y="159.37" width="5.75" height="64.76" fill="#003a50"/><rect x="330.21" y="101.26" width="5.75" height="130.6" fill="#003a50"/><rect x="12.85" y="454.2" width="28.64" height="38.89" fill="#003a50"/><g clip-path="url(#clip-path)"><rect x="12.85" y="454.2" width="28.64" height="86.25" fill="none" stroke="#003a50" stroke-miterlimit="10" stroke-width="2.09"/></g><rect x="11.82" y="295.7" width="34.58" height="86.25" fill="#003a50"/><rect x="11.82" y="295.7" width="34.58" height="86.25" fill="none" stroke="#003a50" stroke-miterlimit="10" stroke-width="2.09"/><rect x="12.85" y="135.58" width="33.56" height="86.25" fill="#003a50"/><rect x="12.85" y="135.58" width="33.56" height="86.25" fill="none" stroke="#003a50" stroke-miterlimit="10" stroke-width="2.09"/><rect y="0.14" width="358.41" height="14.64" fill="#003a50"/><rect x="35.24" y="482.07" width="330.17" height="11.01" fill="#003a50"/><rect x="158.13" y="0.14" width="14.75" height="5.06" fill="#003a50"/><rect x="351.49" y="0.14" width="13.85" height="304.72" fill="#003a50"/><polygon points="351.49 294.9 351.49 329.84 365.41 329.84 365.41 326.27 365.34 326.27 365.34 294.9 351.49 294.9" fill="#003a50"/><rect x="295.49" y="294.9" width="66.67" height="14.12" fill="#003a50"/><rect x="351.49" y="370.07" width="13.92" height="120.79" fill="#003a50"/><rect x="351.49" y="482.7" width="13.92" height="10.39" fill="#003a50"/><rect x="263.53" y="0.14" width="9.12" height="7.26" fill="#003a50"/><polygon points="359.67 68.72 359.66 80.55 365.34 80.55 365.34 68.72 359.67 68.72" fill="#003a50"/><rect x="359.66" y="168.75" width="5.68" height="11.83" fill="#003a50"/><rect x="1.37" y="178.7" width="33.56" height="43.12" fill="#003a50"/><g clip-path="url(#clip-path)"><rect x="1.37" y="178.7" width="33.56" height="43.12" fill="none" stroke="#003a50" stroke-miterlimit="10" stroke-width="2.09"/><rect x="1.82" y="493.2" width="28.64" height="47.25" fill="#003a50"/><rect x="1.82" y="493.2" width="28.64" height="47.25" fill="none" stroke="#003a50" stroke-miterlimit="10" stroke-width="2.09"/></g><rect x="1.82" y="334.7" width="28.64" height="47.25" fill="#003a50"/><g clip-path="url(#clip-path)"><rect x="1.82" y="334.7" width="28.64" height="47.25" fill="none" stroke="#003a50" stroke-miterlimit="10" stroke-width="2.09"/></g><rect y="1.21" width="24.32" height="35.94" fill="#003a50"/><g clip-path="url(#clip-path)"><rect x="-110.22" y="1.21" width="134.54" height="35.94" fill="none" stroke="#003a50" stroke-miterlimit="10" stroke-width="2.09"/></g><rect x="0.91" y="1.21" width="40.2" height="63.49" fill="#003a50"/><g clip-path="url(#clip-path)"><rect x="0.91" y="1.21" width="40.2" height="63.49" fill="none" stroke="#003a50" stroke-miterlimit="10" stroke-width="2.09"/></g><rect x="0.91" y="7.23" width="23.42" height="38.43" fill="#003a50"/><g clip-path="url(#clip-path)"><rect x="0.91" y="7.23" width="23.42" height="38.43" fill="none" stroke="#003a50" stroke-miterlimit="10" stroke-width="2.09"/><path d="M99.88,126.24l-2.48,2V126l2.73-2.27H102v11.91H99.88Z" fill="#003a50"/><path d="M112.94,135.59h-2.11v-2.65h-7V131.1l6.3-7.42h2.79v7.42h1.59v1.84h-1.59Zm-2.11-4.49v-5.33h-.07l-4.47,5.28v0Z" fill="#003a50"/><path d="M116.22,135.46a1,1,0,0,1-.32-.81,1,1,0,0,1,.32-.81,1.41,1.41,0,0,1,1.74,0,1.07,1.07,0,0,1,.32.81,1,1,0,0,1-.32.81,1.45,1.45,0,0,1-1.74,0Z" fill="#003a50"/><path d="M123.33,135.59H121l5.41-10h-6.92v-1.88h9.28v1.88Z" fill="#003a50"/><path d="M101.41,256.38l-2.48,1.95v-2.24l2.73-2.27h1.86v11.91h-2.11Z" fill="#003a50"/><path d="M108,256.38l-2.48,1.95v-2.24l2.73-2.27h1.86v11.91H108Z" fill="#003a50"/><path d="M112.68,265.6a1,1,0,0,1-.33-.81,1,1,0,0,1,.33-.8,1.4,1.4,0,0,1,1.73,0,1,1,0,0,1,.33.8,1,1,0,0,1-.33.81,1.4,1.4,0,0,1-1.73,0Z" fill="#003a50"/><path d="M122,257.75a5.06,5.06,0,0,1,3.34,1.06,4.19,4.19,0,0,1,0,6,5.39,5.39,0,0,1-3.55,1.08,5.84,5.84,0,0,1-3.56-1,3.16,3.16,0,0,1-1.29-2.69H119a1.54,1.54,0,0,0,.7,1.34,3.62,3.62,0,0,0,2,.48,3.15,3.15,0,0,0,2-.57,2,2,0,0,0,.7-1.68,2.05,2.05,0,0,0-.73-1.71,3.31,3.31,0,0,0-2.07-.58,3.58,3.58,0,0,0-1.92.42,1.84,1.84,0,0,0-.7.64l0,.12h-2.11v-6.88h8.88v1.85H119v3h0a2.77,2.77,0,0,1,.4-.3,3.11,3.11,0,0,1,.55-.27A5.6,5.6,0,0,1,122,257.75Z" fill="#003a50"/><path d="M103.35,392.2H93.42v-1.56A2.74,2.74,0,0,1,94,388.9a4,4,0,0,1,1.45-1.2c.49-.25,1.12-.54,1.86-.86s1.33-.56,1.88-.77a4.23,4.23,0,0,0,1.45-.92,1.78,1.78,0,0,0,.57-1.3c0-1.26-.89-1.88-2.67-1.88s-2.67.72-2.67,2.15v.41H93.76v-.41a3.62,3.62,0,0,1,1.26-3,5.38,5.38,0,0,1,3.51-1,5.66,5.66,0,0,1,3.52,1,3.31,3.31,0,0,1,1.27,2.75,3.17,3.17,0,0,1-.56,1.84,4.26,4.26,0,0,1-1.4,1.3c-.6.34-1.21.65-1.84.93s-1.23.53-1.82.75a5.46,5.46,0,0,0-1.41.74,1.26,1.26,0,0,0-.56,1h7.62Z" fill="#003a50"/><path d="M107,390.67a7.34,7.34,0,0,1,0-8.84,5.71,5.71,0,0,1,8.13,0,7.34,7.34,0,0,1,0,8.84,5.71,5.71,0,0,1-8.13,0Zm6.52-1.39a4.91,4.91,0,0,0,.88-3,5,5,0,0,0-.88-3,3.14,3.14,0,0,0-4.91,0,5.67,5.67,0,0,0,0,6.07,3.13,3.13,0,0,0,4.91,0Z" fill="#003a50"/><path d="M118.75,392.07a1,1,0,0,1-.33-.8,1,1,0,0,1,.33-.81,1.4,1.4,0,0,1,1.73,0,1,1,0,0,1,.33.81,1,1,0,0,1-.33.8,1.4,1.4,0,0,1-1.73,0Z" fill="#003a50"/><path d="M128.85,382.14H123V380.3h8.86v1.84l-4.52,2.65v.06h1.28a3.87,3.87,0,0,1,2.79,1,3.52,3.52,0,0,1,1.05,2.66,3.33,3.33,0,0,1-1.33,2.83,7,7,0,0,1-7.24,0,3.39,3.39,0,0,1-1.33-2.86v-.32h2.11v.32c0,1.36,1,2,2.84,2s2.84-.67,2.84-2-.94-2-2.84-2h-3.26v-1.67l4.57-2.68Z" fill="#003a50"/><path d="M279.37,55.06h-2.11V52.41h-7V50.56l6.3-7.41h2.79v7.41H281v1.85h-1.59Zm-2.11-4.5V45.24h-.07l-4.47,5.27v.05Z" fill="#003a50"/><path d="M282.65,54.92a1,1,0,0,1-.33-.8,1,1,0,0,1,.33-.81,1.23,1.23,0,0,1,.87-.3,1.2,1.2,0,0,1,.86.3,1,1,0,0,1,.33.81,1,1,0,0,1-.33.8,1.2,1.2,0,0,1-.86.3A1.23,1.23,0,0,1,282.65,54.92Z" fill="#003a50"/><path d="M296.43,55.06h-9.94V53.49a2.75,2.75,0,0,1,.59-1.74,4,4,0,0,1,1.44-1.2c.5-.25,1.12-.54,1.87-.86s1.32-.56,1.88-.77a4.09,4.09,0,0,0,1.44-.92,1.78,1.78,0,0,0,.57-1.3c0-1.26-.88-1.88-2.66-1.88s-2.68.72-2.68,2.15v.41h-2.11V47a3.59,3.59,0,0,1,1.27-3,5.34,5.34,0,0,1,3.51-1,5.63,5.63,0,0,1,3.51,1,3.29,3.29,0,0,1,1.27,2.75,3.17,3.17,0,0,1-.55,1.84,4.39,4.39,0,0,1-1.41,1.3c-.59.34-1.21.65-1.83.93s-1.24.53-1.83.75a5.55,5.55,0,0,0-1.4.74,1.25,1.25,0,0,0-.57,1h7.63Z" fill="#003a50"/><path d="M282,241.58h-2.11v-2.65h-7v-1.84l6.3-7.42H282v7.42h1.59v1.84H282Zm-2.11-4.49v-5.32h-.07L275.39,237v.05Z" fill="#003a50"/><path d="M285.32,241.45a1,1,0,0,1-.33-.81,1,1,0,0,1,.33-.8,1.23,1.23,0,0,1,.87-.3,1.2,1.2,0,0,1,.86.3,1,1,0,0,1,.33.8,1,1,0,0,1-.33.81,1.2,1.2,0,0,1-.86.3A1.23,1.23,0,0,1,285.32,241.45Z" fill="#003a50"/><path d="M291.22,232.23l-2.48,2v-2.24l2.73-2.27h1.86v11.91h-2.11Z" fill="#003a50"/><path d="M213.41,272.52h-5.82v-1.84h8.86v1.84l-4.52,2.65v.07h1.28a3.9,3.9,0,0,1,2.79,1,3.52,3.52,0,0,1,1.05,2.67,3.32,3.32,0,0,1-1.33,2.82,7,7,0,0,1-7.24,0,3.36,3.36,0,0,1-1.33-2.86v-.32h2.11v.32c0,1.37,1,2,2.84,2s2.84-.67,2.84-2-.95-2-2.84-2h-3.26v-1.67l4.57-2.68Z" fill="#003a50"/><path d="M219.15,282.46a1,1,0,0,1-.32-.81,1.07,1.07,0,0,1,.32-.81,1.45,1.45,0,0,1,1.74,0,1.07,1.07,0,0,1,.32.81,1,1,0,0,1-.32.81,1.45,1.45,0,0,1-1.74,0Z" fill="#003a50"/><path d="M223.29,279.24h2.21s0,.07,0,.18a2.07,2.07,0,0,0,.23.43,2.37,2.37,0,0,0,.41.49,2.2,2.2,0,0,0,.75.41,3.21,3.21,0,0,0,1,.17,2.68,2.68,0,0,0,2.24-1.06,4.34,4.34,0,0,0,.81-2.71H231a2,2,0,0,1-.44.46,2.42,2.42,0,0,1-.6.4,3.71,3.71,0,0,1-1,.33,5.49,5.49,0,0,1-1.22.13,5,5,0,0,1-3.37-1.13,3.6,3.6,0,0,1-1.31-2.82,3.56,3.56,0,0,1,1.36-2.9,5.52,5.52,0,0,1,3.61-1.11,4.81,4.81,0,0,1,3.87,1.55,6.38,6.38,0,0,1,1.32,4.27v.4a6.68,6.68,0,0,1-1.37,4.31,4.71,4.71,0,0,1-3.89,1.71,6,6,0,0,1-2.17-.37,3.83,3.83,0,0,1-1.48-.95A3.33,3.33,0,0,1,223.29,279.24Zm2.77-3.16a3.6,3.6,0,0,0,3.95,0,2,2,0,0,0,0-3.15,3.21,3.21,0,0,0-2-.58,3.17,3.17,0,0,0-2,.58,1.86,1.86,0,0,0-.78,1.58A1.89,1.89,0,0,0,226.06,276.08Z" fill="#003a50"/><path d="M325.16,345.52h-5.83v-1.84h8.87v1.84l-4.53,2.65v.07H325a3.86,3.86,0,0,1,2.79,1,3.52,3.52,0,0,1,1.05,2.67,3.32,3.32,0,0,1-1.33,2.82,7,7,0,0,1-7.24,0,3.39,3.39,0,0,1-1.33-2.86v-.32H321v.32c0,1.36.95,2,2.84,2s2.84-.67,2.84-2-.94-2-2.84-2h-3.26v-1.67l4.58-2.68Z" fill="#003a50"/><path d="M330.89,355.45a1,1,0,0,1-.32-.8,1.07,1.07,0,0,1,.32-.81,1.25,1.25,0,0,1,.88-.3,1.22,1.22,0,0,1,.86.3,1,1,0,0,1,.32.81,1,1,0,0,1-.32.8,1.22,1.22,0,0,1-.86.3A1.25,1.25,0,0,1,330.89,355.45Z" fill="#003a50"/><path d="M338,355.59h-2.35l5.42-10h-6.93v-1.87h9.29v1.87Z" fill="#003a50"/><path d="M283.59,143.86h-5.82V142h8.86v1.85l-4.53,2.65v.06h1.28a3.87,3.87,0,0,1,2.79,1,3.47,3.47,0,0,1,1.06,2.66,3.37,3.37,0,0,1-1.33,2.83,7,7,0,0,1-7.24,0,3.37,3.37,0,0,1-1.33-2.86v-.33h2.11v.33c0,1.36.94,2,2.84,2s2.84-.66,2.84-2-.95-2-2.84-2H279v-1.67l4.58-2.69Z" fill="#003a50"/><path d="M289.33,153.79A1,1,0,0,1,289,153a1,1,0,0,1,.33-.8,1.4,1.4,0,0,1,1.73,0,1,1,0,0,1,.33.8,1,1,0,0,1-.33.81,1.4,1.4,0,0,1-1.73,0Z" fill="#003a50"/><path d="M303.11,153.92h-9.94v-1.56a2.8,2.8,0,0,1,.58-1.74,4.12,4.12,0,0,1,1.45-1.2c.5-.25,1.12-.54,1.87-.86s1.32-.56,1.87-.77a4.29,4.29,0,0,0,1.45-.92,1.78,1.78,0,0,0,.57-1.3c0-1.26-.89-1.89-2.66-1.89s-2.68.72-2.68,2.16v.41h-2.11v-.41a3.59,3.59,0,0,1,1.27-3,5.34,5.34,0,0,1,3.51-1,5.65,5.65,0,0,1,3.51,1,3.27,3.27,0,0,1,1.27,2.75,3.14,3.14,0,0,1-.55,1.83,4.42,4.42,0,0,1-1.41,1.31q-.9.51-1.83.93c-.63.27-1.24.52-1.83.74a5.39,5.39,0,0,0-1.4.75,1.23,1.23,0,0,0-.57,1h7.63Z" fill="#003a50"/><path d="M24.36,125.59a4.53,4.53,0,0,1-3.12,1,4.56,4.56,0,0,1-3.11-1,4,4,0,0,1,0-5.73,4.56,4.56,0,0,1,3.11-1,4.53,4.53,0,0,1,3.12,1,4,4,0,0,1,0,5.73Zm-1-4.6a3.48,3.48,0,0,0-2.14-.62,3.52,3.52,0,0,0-2.14.62,2.23,2.23,0,0,0,0,3.47,3.5,3.5,0,0,0,2.14.62,3.48,3.48,0,0,0,2.14-.62,2.21,2.21,0,0,0,0-3.47Z" fill="#003a50"/><path d="M25.35,117.27a.72.72,0,0,1-.57.23.76.76,0,0,1-.57-.23.9.9,0,0,1-.21-.62.87.87,0,0,1,.21-.61.76.76,0,0,1,.57-.23.72.72,0,0,1,.57.23.87.87,0,0,1,.21.61A.9.9,0,0,1,25.35,117.27Z" fill="#003a50"/><path d="M19.41,107.66v1.56s0,0-.12,0l-.31.15a1.93,1.93,0,0,0-.36.28,1.37,1.37,0,0,0-.29.5,2.3,2.3,0,0,0-.11.71A1.76,1.76,0,0,0,19,112.4a3.11,3.11,0,0,0,1.89.54v0a1.27,1.27,0,0,1-.3-.31,2.9,2.9,0,0,1-.26-.43,3.09,3.09,0,0,1-.22-.67,4.12,4.12,0,0,1-.09-.86,3.53,3.53,0,0,1,.79-2.38,2.62,2.62,0,0,1,4,0,3.89,3.89,0,0,1,.78,2.54,3.38,3.38,0,0,1-1.09,2.73,4.43,4.43,0,0,1-3,.94h-.29a4.79,4.79,0,0,1-3-.94,3.18,3.18,0,0,1-1.2-2.68,3.93,3.93,0,0,1,.26-1.5,2.61,2.61,0,0,1,.66-1A2.39,2.39,0,0,1,19.41,107.66Zm2.22,1.77a2.27,2.27,0,0,0-.41,1.39,2.32,2.32,0,0,0,.41,1.4,1.33,1.33,0,0,0,1.11.55,1.3,1.3,0,0,0,1.11-.55,2.54,2.54,0,0,0,0-2.8,1.4,1.4,0,0,0-2.22,0Z" fill="#003a50"/><path d="M24.36,283.92a4.53,4.53,0,0,1-3.12,1,4.55,4.55,0,0,1-3.11-1,4,4,0,0,1,0-5.73,4.56,4.56,0,0,1,3.11-1.05,4.53,4.53,0,0,1,3.12,1.05,4,4,0,0,1,0,5.73Zm-1-4.6a3.5,3.5,0,0,0-2.14-.62,3.52,3.52,0,0,0-2.14.62,2.22,2.22,0,0,0,0,3.46,3.44,3.44,0,0,0,2.14.63,3.44,3.44,0,0,0,2.14-.63,2.2,2.2,0,0,0,0-3.46Z" fill="#003a50"/><path d="M25.35,275.6a.71.71,0,0,1-.57.22.74.74,0,0,1-.57-.22A.9.9,0,0,1,24,275a.87.87,0,0,1,.21-.61.75.75,0,0,1,.57-.23.72.72,0,0,1,.57.23.87.87,0,0,1,.21.61A.9.9,0,0,1,25.35,275.6Z" fill="#003a50"/><path d="M19.41,266v1.55l-.12,0a2.1,2.1,0,0,0-.31.15,1.93,1.93,0,0,0-.36.28,1.37,1.37,0,0,0-.29.5,2.25,2.25,0,0,0-.11.71,1.78,1.78,0,0,0,.73,1.52,3.11,3.11,0,0,0,1.89.54v0a1.11,1.11,0,0,1-.31-.31,3.09,3.09,0,0,1-.25-.42,2.71,2.71,0,0,1-.22-.68A4,4,0,0,1,20,269a3.51,3.51,0,0,1,.79-2.38,2.46,2.46,0,0,1,2-.92,2.51,2.51,0,0,1,2.05,1,3.89,3.89,0,0,1,.78,2.54,3.38,3.38,0,0,1-1.09,2.73,4.48,4.48,0,0,1-3,.93h-.29a4.85,4.85,0,0,1-3-.93,3.18,3.18,0,0,1-1.2-2.68,3.93,3.93,0,0,1,.26-1.5,2.73,2.73,0,0,1,.66-1A2.42,2.42,0,0,1,19.41,266Zm2.22,1.77a2.56,2.56,0,0,0,0,2.78,1.3,1.3,0,0,0,1.11.56,1.32,1.32,0,0,0,1.11-.55,2.54,2.54,0,0,0,0-2.8,1.32,1.32,0,0,0-1.11-.55A1.3,1.3,0,0,0,21.63,267.76Z" fill="#003a50"/><path d="M24.36,443.59a4.53,4.53,0,0,1-3.12,1.05,4.56,4.56,0,0,1-3.11-1.05,4,4,0,0,1,0-5.73,4.56,4.56,0,0,1,3.11-1.05,4.53,4.53,0,0,1,3.12,1.05,4,4,0,0,1,0,5.73Zm-1-4.6a3.5,3.5,0,0,0-2.14-.62,3.52,3.52,0,0,0-2.14.62,2.23,2.23,0,0,0,0,3.47,3.5,3.5,0,0,0,2.14.62,3.5,3.5,0,0,0,2.14-.62,2.21,2.21,0,0,0,0-3.47Z" fill="#003a50"/><path d="M25.35,435.27a.72.72,0,0,1-.57.23.75.75,0,0,1-.57-.23.9.9,0,0,1-.21-.62.87.87,0,0,1,.21-.61.75.75,0,0,1,.57-.23.72.72,0,0,1,.57.23.87.87,0,0,1,.21.61A.9.9,0,0,1,25.35,435.27Z" fill="#003a50"/><path d="M19.41,425.66v1.56s-.05,0-.12,0a2.1,2.1,0,0,0-.31.15,1.93,1.93,0,0,0-.36.28,1.37,1.37,0,0,0-.29.5,2.3,2.3,0,0,0-.11.71A1.76,1.76,0,0,0,19,430.4a3.11,3.11,0,0,0,1.89.54v0a1.49,1.49,0,0,1-.31-.31,3.94,3.94,0,0,1-.25-.43,2.62,2.62,0,0,1-.22-.67,4.12,4.12,0,0,1-.09-.86,3.53,3.53,0,0,1,.79-2.38,2.62,2.62,0,0,1,4,0,3.89,3.89,0,0,1,.78,2.54,3.38,3.38,0,0,1-1.09,2.73,4.43,4.43,0,0,1-3,.94h-.29a4.79,4.79,0,0,1-3-.94,3.18,3.18,0,0,1-1.2-2.68,3.93,3.93,0,0,1,.26-1.5,2.61,2.61,0,0,1,.66-1A2.39,2.39,0,0,1,19.41,425.66Zm2.22,1.77a2.27,2.27,0,0,0-.41,1.39,2.32,2.32,0,0,0,.41,1.4,1.32,1.32,0,0,0,1.11.55,1.3,1.3,0,0,0,1.11-.55,2.54,2.54,0,0,0,0-2.8,1.31,1.31,0,0,0-1.11-.54A1.3,1.3,0,0,0,21.63,427.43Z" fill="#003a50"/></g></svg>