<svg id="Слой_1" data-name="Слой 1" xmlns="http://www.w3.org/2000/svg" xmlns:xlink="http://www.w3.org/1999/xlink" viewBox="0 0 548.22 569.2"><defs><clipPath id="clip-path"><polygon points="130.02 0 130.02 42.24 68.88 42.24 68.88 187.13 0 187.13 0 569.2 548.22 569.2 548.22 134.02 303.28 134.02 303.28 42.24 175.56 42.24 175.56 0 130.02 0" fill="none"/></clipPath></defs><polygon points="130.02 42.2 130.02 42.24 74.6 42.24 74.6 194.3 8.25 194.3 8.25 558.3 538.46 558.3 538.46 138.56 294.96 138.56 294.96 42.24 175.56 42.24 175.56 42.2 130.02 42.2" fill="#fff"/><polygon points="187.37 42.24 187.37 49.16 297.37 49.16 297.37 140.85 538.46 140.85 538.46 134.02 303.28 134.02 303.28 42.24 187.37 42.24" fill="#fff"/><rect y="192.97" width="8.25" height="365.32" fill="#fff"/><g clip-path="url(#clip-path)"><line x1="536.06" y1="-822.78" x2="536.06" y2="562.72" fill="none" stroke="#003a50" stroke-miterlimit="10"/><line x1="-517.7" y1="557.1" x2="508.25" y2="557.1" fill="none" stroke="#003a50" stroke-miterlimit="10"/><polyline points="232.38 -844.83 232.38 -1948.44 209.38 -1971.44 -632.24 -1971.44 -655.24 -1948.44 -655.24 -602.32 -535.63 -602.32 -535.63 522.81" fill="none" stroke="#003a50" stroke-miterlimit="10"/><polyline points="-536.04 569 546.62 569 546.62 544.86 546.62 -844.83 239.72 -844.83" fill="none" stroke="#003a50" stroke-miterlimit="10"/><path d="M514.45,87.73h-2.53c-17.6,0-28.92-13.39-28.92-29.9h31.45" fill="none" stroke="#003a50" stroke-miterlimit="10"/></g><rect x="514.45" y="210.66" width="4.55" height="72.03" fill="#fff"/><rect x="514.45" y="210.66" width="4.55" height="72.03" fill="none" stroke="#003a50" stroke-miterlimit="10"/><line x1="516.73" y1="282.69" x2="516.73" y2="210.66" fill="none" stroke="#003a50" stroke-miterlimit="10"/><rect x="514.45" y="278.14" width="4.55" height="4.56" fill="#fff"/><rect x="514.45" y="278.14" width="4.55" height="4.56" fill="none" stroke="#003a50" stroke-miterlimit="10"/><rect x="514.45" y="210.66" width="4.55" height="4.56" fill="#fff"/><rect x="514.45" y="210.66" width="4.55" height="4.56" fill="none" stroke="#003a50" stroke-miterlimit="10"/><rect x="514.45" y="246.68" width="4.55" height="4.56" fill="#fff"/><rect x="514.45" y="246.68" width="4.55" height="4.56" fill="none" stroke="#003a50" stroke-miterlimit="10"/><g clip-path="url(#clip-path)"><path d="M514.45,246.68h-2.53c-17.6,0-28.92-14.09-28.92-31.46h31.45" fill="none" stroke="#003a50" stroke-miterlimit="10"/></g><rect x="58.61" y="534.76" width="71.77" height="4.55" fill="#fff"/><rect x="58.61" y="534.76" width="71.77" height="4.55" fill="none" stroke="#003a50" stroke-miterlimit="10"/><line x1="58.61" y1="537.04" x2="130.38" y2="537.04" fill="none" stroke="#003a50" stroke-miterlimit="10"/><rect x="58.61" y="534.76" width="4.54" height="4.55" fill="#fff"/><rect x="58.61" y="534.76" width="4.54" height="4.55" fill="none" stroke="#003a50" stroke-miterlimit="10"/><rect x="125.84" y="534.76" width="4.54" height="4.55" fill="#fff"/><rect x="125.84" y="534.76" width="4.54" height="4.55" fill="none" stroke="#003a50" stroke-miterlimit="10"/><rect x="89.96" y="534.76" width="4.54" height="4.55" fill="#fff"/><rect x="89.96" y="534.76" width="4.54" height="4.55" fill="none" stroke="#003a50" stroke-miterlimit="10"/><g clip-path="url(#clip-path)"><path d="M94.49,534.76v-2.53c0-17.6,14-28.92,31.35-28.92v31.45" fill="none" stroke="#003a50" stroke-miterlimit="10"/></g><rect x="217.91" y="534.76" width="70.97" height="4.55" fill="#fff"/><rect x="217.92" y="534.76" width="70.97" height="4.55" fill="none" stroke="#003a50" stroke-miterlimit="10"/><line x1="288.89" y1="537.04" x2="217.92" y2="537.04" fill="none" stroke="#003a50" stroke-miterlimit="10"/><rect x="284.39" y="534.76" width="4.49" height="4.55" fill="#fff"/><rect x="284.4" y="534.76" width="4.49" height="4.55" fill="none" stroke="#003a50" stroke-miterlimit="10"/><rect x="217.91" y="534.76" width="4.49" height="4.55" fill="#fff"/><rect x="217.92" y="534.76" width="4.49" height="4.55" fill="none" stroke="#003a50" stroke-miterlimit="10"/><rect x="253.4" y="534.76" width="4.49" height="4.55" fill="#fff"/><rect x="253.4" y="534.76" width="4.49" height="4.55" fill="none" stroke="#003a50" stroke-miterlimit="10"/><g clip-path="url(#clip-path)"><path d="M253.4,534.76v-2.53c0-17.6-13.88-28.92-31-28.92v31.45" fill="none" stroke="#003a50" stroke-miterlimit="10"/></g><rect x="514.43" y="369.55" width="4.55" height="158.11" fill="#fff"/><rect x="514.43" y="369.55" width="4.55" height="158.11" fill="none" stroke="#003a50" stroke-miterlimit="10"/><line x1="516.71" y1="527.66" x2="516.71" y2="369.55" fill="none" stroke="#003a50" stroke-miterlimit="10"/><rect x="514.43" y="447.44" width="4.55" height="5.1" fill="#fff"/><rect x="514.43" y="447.44" width="4.55" height="5.1" fill="none" stroke="#003a50" stroke-miterlimit="10"/><rect x="514.43" y="522.56" width="4.55" height="5.1" fill="#fff"/><rect x="514.43" y="522.56" width="4.55" height="5.1" fill="none" stroke="#003a50" stroke-miterlimit="10"/><rect x="514.43" y="485" width="4.55" height="5.1" fill="#fff"/><rect x="514.43" y="485" width="4.55" height="5.1" fill="none" stroke="#003a50" stroke-miterlimit="10"/><rect x="514.43" y="369.54" width="4.55" height="5.1" fill="#fff"/><rect x="514.43" y="369.54" width="4.55" height="5.1" fill="none" stroke="#003a50" stroke-miterlimit="10"/><rect x="514.43" y="409.87" width="4.55" height="5.1" fill="#fff"/><rect x="514.43" y="409.87" width="4.55" height="5.1" fill="none" stroke="#003a50" stroke-miterlimit="10"/><g clip-path="url(#clip-path)"><path d="M514.43,409.87H511.9c-17.6,0-28.92-15.77-28.92-35.23h31.45" fill="none" stroke="#003a50" stroke-miterlimit="10"/></g><rect x="376.22" y="534.76" width="129.49" height="4.55" fill="#fff"/><rect x="376.22" y="534.76" width="129.49" height="4.55" fill="none" stroke="#003a50" stroke-miterlimit="10"/><line x1="376.22" y1="537.04" x2="505.71" y2="537.04" fill="none" stroke="#003a50" stroke-miterlimit="10"/><rect x="376.22" y="534.76" width="4.5" height="4.55" fill="#fff"/><rect x="376.22" y="534.76" width="4.5" height="4.55" fill="none" stroke="#003a50" stroke-miterlimit="10"/><rect x="501.21" y="534.76" width="4.5" height="4.55" fill="#fff"/><rect x="501.21" y="534.76" width="4.5" height="4.55" fill="none" stroke="#003a50" stroke-miterlimit="10"/><rect x="465.64" y="534.76" width="4.5" height="4.55" fill="#fff"/><rect x="465.64" y="534.76" width="4.5" height="4.55" fill="none" stroke="#003a50" stroke-miterlimit="10"/><rect x="420.93" y="534.76" width="4.5" height="4.55" fill="#fff"/><rect x="420.93" y="534.76" width="4.5" height="4.55" fill="none" stroke="#003a50" stroke-miterlimit="10"/><g clip-path="url(#clip-path)"><path d="M470.14,534.76v-2.53c0-17.61,13.91-28.92,31.07-28.92v31.45" fill="none" stroke="#003a50" stroke-miterlimit="10"/><path d="M219.69,355.28a1,1,0,0,0,1-1,10.74,10.74,0,1,1,21.47,0,1,1,0,0,0,2,0,12.7,12.7,0,1,0-25.39,0A1,1,0,0,0,219.69,355.28Z" fill="none" stroke="#003a50" stroke-miterlimit="10"/><path d="M243.12,396.7a1,1,0,0,0-1,1,10.74,10.74,0,0,1-21.47,0,1,1,0,1,0-2,0,12.7,12.7,0,0,0,25.39,0A1,1,0,0,0,243.12,396.7Z" fill="none" stroke="#003a50" stroke-miterlimit="10"/><path d="M252.26,355.28a1,1,0,0,0,1-1,10.74,10.74,0,1,1,21.48,0,1,1,0,1,0,1.95,0,12.7,12.7,0,1,0-25.39,0A1,1,0,0,0,252.26,355.28Z" fill="none" stroke="#003a50" stroke-miterlimit="10"/><path d="M275.69,396.7a1,1,0,0,0-1,1,10.74,10.74,0,0,1-21.47,0,1,1,0,0,0-2,0,12.7,12.7,0,0,0,25.39,0A1,1,0,0,0,275.69,396.7Z" fill="none" stroke="#003a50" stroke-miterlimit="10"/><path d="M293.84,366a1,1,0,0,0,1,1,10.74,10.74,0,1,1,0,21.47,1,1,0,0,0,0,2,12.7,12.7,0,0,0,0-25.39A1,1,0,0,0,293.84,366Z" fill="none" stroke="#003a50" stroke-miterlimit="10"/><path d="M205.38,389.43a1,1,0,0,0-1-1,10.74,10.74,0,0,1,0-21.48,1,1,0,1,0,0-2,12.7,12.7,0,1,0,0,25.39A1,1,0,0,0,205.38,389.43Z" fill="none" stroke="#003a50" stroke-miterlimit="10"/><path d="M231.42,345a9.89,9.89,0,0,0-9.88,9.84v4.56a18.6,18.6,0,0,1,4.78-.63h14.94V354.8A9.88,9.88,0,0,0,231.42,345Z" fill="none" stroke="#003a50" stroke-miterlimit="10"/><path d="M221.55,396.08v1.06a9.86,9.86,0,1,0,19.71,0v-.44H226.33A20.46,20.46,0,0,1,221.55,396.08Z" fill="none" stroke="#003a50" stroke-miterlimit="10"/><path d="M264,345a9.88,9.88,0,0,0-9.87,9.84v3.93h18.74c.31,0,.66,0,1,.06v-4A9.85,9.85,0,0,0,264,345Z" fill="none" stroke="#003a50" stroke-miterlimit="10"/><path d="M273.82,396.64c-.31,0-.66.07-1,.07H254.11v.44a9.86,9.86,0,1,0,19.71,0Z" fill="none" stroke="#003a50" stroke-miterlimit="10"/><path d="M210.13,367.85h-5.22a9.86,9.86,0,1,0,0,19.71h5.22a18.8,18.8,0,0,1,0-19.71Z" fill="none" stroke="#003a50" stroke-miterlimit="10"/><path d="M294.29,367.85H289a18.74,18.74,0,0,1,0,19.71h5.25a9.86,9.86,0,1,0,0-19.71Z" fill="none" stroke="#003a50" stroke-miterlimit="10"/><path d="M272.85,358.73H226.33a18.55,18.55,0,0,0-4.78.63,19,19,0,0,0-14.21,18.36,18.72,18.72,0,0,0,2.79,9.84,19.05,19.05,0,0,0,11.42,8.52,20.47,20.47,0,0,0,4.78.63h46.52c.32,0,.66,0,1-.07a18.95,18.95,0,0,0,0-37.85C273.51,358.76,273.17,358.73,272.85,358.73Z" fill="none" stroke="#003a50" stroke-miterlimit="10"/><rect x="200.87" y="-38.64" width="35.55" height="81.92" fill="none" stroke="#003a50" stroke-miterlimit="10"/><path d="M232-22.25V24.41a13.13,13.13,0,0,1-13.35,12.9h0a13.13,13.13,0,0,1-13.36-12.9V-22.25a13.13,13.13,0,0,1,13.36-12.9h0A13.13,13.13,0,0,1,232-22.25Z" fill="none" stroke="#003a50" stroke-miterlimit="10"/></g><rect x="200.5" y="76.65" width="89.25" height="35.55" fill="none" stroke="#003a50" stroke-miterlimit="10"/><g clip-path="url(#clip-path)"><path d="M274.07,108.2H226a13.53,13.53,0,0,1-13.29-13.76v0A13.53,13.53,0,0,1,226,80.64h48.09a13.54,13.54,0,0,1,13.3,13.76v0A13.54,13.54,0,0,1,274.07,108.2Z" fill="none" stroke="#003a50" stroke-miterlimit="10"/><path d="M271.78,94.42a1.87,1.87,0,1,1,1.86,1.94A1.89,1.89,0,0,1,271.78,94.42Z" fill="none" stroke="#003a50" stroke-miterlimit="10"/><path d="M267,147.06h23.2V128.72H267a9.17,9.17,0,1,0,0,18.34Z" fill="none" stroke="#003a50" stroke-miterlimit="10"/></g><line x1="281.12" y1="128.72" x2="281.12" y2="147.06" fill="none" stroke="#003a50" stroke-miterlimit="10"/><g clip-path="url(#clip-path)"><path d="M78.25,259.38v23.21H96.59V259.38a9.17,9.17,0,1,0-18.34,0Z" fill="none" stroke="#003a50" stroke-miterlimit="10"/></g><line x1="96.58" y1="273.56" x2="78.24" y2="273.56" fill="none" stroke="#003a50" stroke-miterlimit="10"/><g clip-path="url(#clip-path)"><rect x="329.7" y="115.74" width="33.93" height="17.9" fill="none" stroke="#003a50" stroke-miterlimit="10"/><path d="M217.09,115.23H201.3a2.31,2.31,0,0,0-2.31,2.3v15.28a2.32,2.32,0,0,0,2.31,2.31h15.79a2.31,2.31,0,0,0,2.31-2.31V117.53A2.3,2.3,0,0,0,217.09,115.23Z" fill="none" stroke="#003a50" stroke-miterlimit="10"/><path d="M210.75,125.17a1.56,1.56,0,1,0-1.55,1.56A1.54,1.54,0,0,0,210.75,125.17Z" fill="none" stroke="#003a50" stroke-miterlimit="10"/><path d="M217.09,137.34H201.3a2.3,2.3,0,0,0-2.31,2.3v15.28a2.31,2.31,0,0,0,2.31,2.31h15.79a2.32,2.32,0,0,0,2.31-2.31V139.64A2.31,2.31,0,0,0,217.09,137.34Z" fill="none" stroke="#003a50" stroke-miterlimit="10"/><path d="M210.75,147.28a1.56,1.56,0,1,0-1.55,1.56A1.55,1.55,0,0,0,210.75,147.28Z" fill="none" stroke="#003a50" stroke-miterlimit="10"/></g><rect x="200.8" y="112.2" width="20.25" height="49.78" fill="none" stroke="#003a50" stroke-miterlimit="10"/><g clip-path="url(#clip-path)"><path d="M246.74,26.32v15.8a2.3,2.3,0,0,0,2.31,2.3h15.28a2.3,2.3,0,0,0,2.3-2.3V26.32a2.3,2.3,0,0,0-2.3-2.3H249.05A2.3,2.3,0,0,0,246.74,26.32Z" fill="none" stroke="#003a50" stroke-miterlimit="10"/><path d="M256.69,32.66a1.56,1.56,0,1,0,1.55,1.56A1.56,1.56,0,0,0,256.69,32.66Z" fill="none" stroke="#003a50" stroke-miterlimit="10"/><path d="M268.85,26.32v15.8a2.3,2.3,0,0,0,2.3,2.3h15.28a2.3,2.3,0,0,0,2.31-2.3V26.32a2.3,2.3,0,0,0-2.31-2.3H271.15A2.3,2.3,0,0,0,268.85,26.32Z" fill="none" stroke="#003a50" stroke-miterlimit="10"/><path d="M278.79,32.66a1.56,1.56,0,1,0,1.56,1.56A1.55,1.55,0,0,0,278.79,32.66Z" fill="none" stroke="#003a50" stroke-miterlimit="10"/><rect x="236.42" y="22.36" width="61.7" height="20.25" fill="none" stroke="#003a50" stroke-miterlimit="10"/></g><rect x="293.06" y="146.1" width="64.38" height="18.8" fill="none" stroke="#003a50" stroke-miterlimit="10"/><rect x="165.06" y="421.62" width="13.62" height="81.75" fill="none" stroke="#003a50" stroke-miterlimit="10"/><polygon points="172.31 428.04 169.48 462.4 172.31 496.93 174.27 496.93 174.27 428.04 172.31 428.04" fill="none" stroke="#003a50" stroke-miterlimit="10"/><rect x="12.75" y="358.33" width="45.5" height="98.82" fill="none" stroke="#003a50" stroke-miterlimit="10"/><g clip-path="url(#clip-path)"><path d="M20.8,448.72H49.85a2.11,2.11,0,0,0,2.1-2.11V388.1H18.69v58.51A2.11,2.11,0,0,0,20.8,448.72Z" fill="none" stroke="#003a50" stroke-miterlimit="10"/></g><rect x="18.69" y="388.1" width="33.26" height="12.04" fill="none" stroke="#003a50" stroke-miterlimit="10"/><g clip-path="url(#clip-path)"><rect x="18.35" y="365.06" width="33.65" height="19.89" rx="2.2" fill="none" stroke="#003a50" stroke-miterlimit="10"/></g><rect x="200.73" y="210.78" width="156.71" height="27.05" fill="none" stroke="#003a50" stroke-miterlimit="10"/><g clip-path="url(#clip-path)"><path d="M214.34,214.62a.8.8,0,0,1,1.52-.35,22.88,22.88,0,0,1,0,20.08.79.79,0,0,1-1.07.36.78.78,0,0,1-.36-1.06,21.27,21.27,0,0,0,0-18.68A.76.76,0,0,1,214.34,214.62Z" fill="none" stroke="#003a50" stroke-miterlimit="10"/><path d="M218.77,214.62a.79.79,0,0,1,1.51-.35,22.88,22.88,0,0,1,0,20.08.78.78,0,0,1-1.06.36.79.79,0,0,1-.37-1.06,21.27,21.27,0,0,0,0-18.68A.74.74,0,0,1,218.77,214.62Z" fill="none" stroke="#003a50" stroke-miterlimit="10"/><path d="M223.19,214.62a.8.8,0,0,1,1.52-.35,22.88,22.88,0,0,1,0,20.08.8.8,0,0,1-1.43-.7,21.27,21.27,0,0,0,0-18.68A.76.76,0,0,1,223.19,214.62Z" fill="none" stroke="#003a50" stroke-miterlimit="10"/><path d="M227.62,214.62a.79.79,0,0,1,1.51-.35,22.88,22.88,0,0,1,0,20.08.78.78,0,0,1-1.06.36.79.79,0,0,1-.37-1.06,21.27,21.27,0,0,0,0-18.68A.74.74,0,0,1,227.62,214.62Z" fill="none" stroke="#003a50" stroke-miterlimit="10"/><path d="M232,214.62a.8.8,0,0,1,1.52-.35,22.88,22.88,0,0,1,0,20.08.8.8,0,0,1-1.43-.7,21.27,21.27,0,0,0,0-18.68A.76.76,0,0,1,232,214.62Z" fill="none" stroke="#003a50" stroke-miterlimit="10"/><path d="M236.47,214.62a.8.8,0,0,1,.44-.72.81.81,0,0,1,1.08.37,22.88,22.88,0,0,1,0,20.08.8.8,0,0,1-1.44-.7,21.27,21.27,0,0,0,0-18.68A.74.74,0,0,1,236.47,214.62Z" fill="none" stroke="#003a50" stroke-miterlimit="10"/><path d="M209.92,214.62a.79.79,0,0,1,1.51-.35,22.88,22.88,0,0,1,0,20.08.8.8,0,0,1-1.43-.7A21.27,21.27,0,0,0,210,215,.74.74,0,0,1,209.92,214.62Z" fill="none" stroke="#003a50" stroke-miterlimit="10"/><path d="M205.49,214.62a.8.8,0,0,1,.44-.72.81.81,0,0,1,1.08.37,22.88,22.88,0,0,1,0,20.08.8.8,0,0,1-1.44-.7,21.27,21.27,0,0,0,0-18.68A.74.74,0,0,1,205.49,214.62Z" fill="none" stroke="#003a50" stroke-miterlimit="10"/></g><line x1="200.73" y1="224.31" x2="357.58" y2="224.31" fill="none" stroke="#003a50" stroke-miterlimit="10"/><rect x="133.7" y="424.06" width="27.05" height="98.54" fill="none" stroke="#003a50" stroke-miterlimit="10"/><g clip-path="url(#clip-path)"><path d="M137.53,509a.78.78,0,0,1-.71-.44.8.8,0,0,1,.36-1.08,22.91,22.91,0,0,1,20.09,0,.81.81,0,0,1,.36,1.07.8.8,0,0,1-1.07.37,21.27,21.27,0,0,0-18.68,0A.72.72,0,0,1,137.53,509Z" fill="none" stroke="#003a50" stroke-miterlimit="10"/><path d="M137.53,504.56a.8.8,0,0,1-.35-1.51,22.91,22.91,0,0,1,20.09,0,.8.8,0,0,1,.36,1.07.8.8,0,0,1-1.07.36,21.27,21.27,0,0,0-18.68,0A.72.72,0,0,1,137.53,504.56Z" fill="none" stroke="#003a50" stroke-miterlimit="10"/><path d="M137.53,500.14a.8.8,0,0,1-.35-1.52,22.91,22.91,0,0,1,20.09,0,.81.81,0,0,1,.36,1.07.79.79,0,0,1-1.07.36,21.27,21.27,0,0,0-18.68,0A.73.73,0,0,1,137.53,500.14Z" fill="none" stroke="#003a50" stroke-miterlimit="10"/><path d="M137.53,495.71a.8.8,0,0,1-.35-1.51,22.91,22.91,0,0,1,20.09,0,.8.8,0,0,1-.71,1.43,21.27,21.27,0,0,0-18.68,0A.72.72,0,0,1,137.53,495.71Z" fill="none" stroke="#003a50" stroke-miterlimit="10"/><path d="M137.53,491.29a.8.8,0,0,1-.35-1.52,22.91,22.91,0,0,1,20.09,0,.81.81,0,0,1,.36,1.07.79.79,0,0,1-1.07.36,21.27,21.27,0,0,0-18.68,0A.73.73,0,0,1,137.53,491.29Z" fill="none" stroke="#003a50" stroke-miterlimit="10"/><path d="M137.53,486.86a.8.8,0,0,1-.35-1.51,22.91,22.91,0,0,1,20.09,0,.8.8,0,0,1-.71,1.43,21.27,21.27,0,0,0-18.68,0A.72.72,0,0,1,137.53,486.86Z" fill="none" stroke="#003a50" stroke-miterlimit="10"/><path d="M137.53,513.42a.8.8,0,0,1-.35-1.52,22.91,22.91,0,0,1,20.09,0,.81.81,0,0,1,.36,1.07.8.8,0,0,1-1.07.36,21.27,21.27,0,0,0-18.68,0A.73.73,0,0,1,137.53,513.42Z" fill="none" stroke="#003a50" stroke-miterlimit="10"/><path d="M137.53,517.84a.78.78,0,0,1-.71-.44.8.8,0,0,1,.36-1.08,22.91,22.91,0,0,1,20.09,0,.81.81,0,0,1,.36,1.07.8.8,0,0,1-1.07.37,21.27,21.27,0,0,0-18.68,0A.72.72,0,0,1,137.53,517.84Z" fill="none" stroke="#003a50" stroke-miterlimit="10"/></g><line x1="147.22" y1="522.6" x2="147.22" y2="424.06" fill="none" stroke="#003a50" stroke-miterlimit="10"/><rect x="357.36" y="391.83" width="18.37" height="18.37" fill="none" stroke="#003a50" stroke-miterlimit="10"/><g clip-path="url(#clip-path)"><path d="M371.81,406.28a7.45,7.45,0,1,0-10.54,0A7.45,7.45,0,0,0,371.81,406.28Z" fill="none" stroke="#003a50" stroke-miterlimit="10"/><path d="M371.25,406.79c-.14-1.38.39-2.77-.95-4.11-2-2-4.06.12-6-1.86s.11-4.07-1.86-6" fill="none" stroke="#003a50" stroke-miterlimit="10"/></g><rect x="357.36" y="503.07" width="18.37" height="18.37" fill="none" stroke="#003a50" stroke-miterlimit="10"/><g clip-path="url(#clip-path)"><path d="M371.81,517.53a7.45,7.45,0,1,0-10.54,0A7.45,7.45,0,0,0,371.81,517.53Z" fill="none" stroke="#003a50" stroke-miterlimit="10"/><path d="M371.25,518c-.14-1.37.39-2.76-.95-4.1-2-2-4.06.11-6-1.86s.11-4.07-1.86-6.05" fill="none" stroke="#003a50" stroke-miterlimit="10"/></g><rect x="357.36" y="415.33" width="91.87" height="82.68" fill="none" stroke="#003a50" stroke-miterlimit="10"/><g clip-path="url(#clip-path)"><path d="M441.33,489.91V423.43a1.68,1.68,0,0,0-1.68-1.69H384.84v69.85h54.81A1.68,1.68,0,0,0,441.33,489.91Z" fill="none" stroke="#003a50" stroke-miterlimit="10"/><rect x="363.38" y="421.53" width="18.54" height="34.43" rx="1.6" fill="none" stroke="#003a50" stroke-miterlimit="10"/><rect x="363.38" y="457.37" width="18.54" height="34.44" rx="1.6" fill="none" stroke="#003a50" stroke-miterlimit="10"/></g><line x1="396.06" y1="491.8" x2="396.06" y2="421.53" fill="none" stroke="#003a50" stroke-miterlimit="10"/><rect x="462.12" y="415.76" width="13.62" height="81.75" fill="none" stroke="#003a50" stroke-miterlimit="10"/><polygon points="468.5 422.19 471.33 456.55 468.5 491.08 466.53 491.08 466.53 422.19 468.5 422.19" fill="none" stroke="#003a50" stroke-miterlimit="10"/><rect x="362.81" y="309.3" width="18.91" height="18.91" fill="none" stroke="#003a50" stroke-miterlimit="10"/><g clip-path="url(#clip-path)"><path d="M377.68,313.34a7.67,7.67,0,1,0,0,10.84A7.65,7.65,0,0,0,377.68,313.34Z" fill="none" stroke="#003a50" stroke-miterlimit="10"/><path d="M378.2,313.91c-1.41.14-2.84-.4-4.22,1-2,2,.12,4.18-1.91,6.22s-4.19-.12-6.22,1.91" fill="none" stroke="#003a50" stroke-miterlimit="10"/></g><rect x="477.29" y="309.3" width="18.91" height="18.91" fill="none" stroke="#003a50" stroke-miterlimit="10"/><g clip-path="url(#clip-path)"><path d="M492.16,313.34a7.67,7.67,0,1,0,0,10.84A7.65,7.65,0,0,0,492.16,313.34Z" fill="none" stroke="#003a50" stroke-miterlimit="10"/><path d="M492.68,313.91c-1.41.14-2.84-.4-4.22,1-2,2,.12,4.18-1.91,6.22s-4.19-.12-6.22,1.91" fill="none" stroke="#003a50" stroke-miterlimit="10"/></g><rect x="386.99" y="233.67" width="85.08" height="94.54" fill="none" stroke="#003a50" stroke-miterlimit="10"/><g clip-path="url(#clip-path)"><path d="M463.74,241.79H395.33a1.74,1.74,0,0,0-1.74,1.74v56.4h71.89v-56.4A1.74,1.74,0,0,0,463.74,241.79Z" fill="none" stroke="#003a50" stroke-miterlimit="10"/><path d="M427.16,302.94H395a1.65,1.65,0,0,0-1.65,1.65v15.77A1.65,1.65,0,0,0,395,322h32.13a1.65,1.65,0,0,0,1.65-1.66V304.59A1.65,1.65,0,0,0,427.16,302.94Z" fill="none" stroke="#003a50" stroke-miterlimit="10"/><rect x="430.26" y="302.94" width="35.44" height="19.08" rx="1.65" fill="none" stroke="#003a50" stroke-miterlimit="10"/></g><line x1="465.69" y1="288.38" x2="393.38" y2="288.38" fill="none" stroke="#003a50" stroke-miterlimit="10"/><rect x="39.94" y="327.06" width="68.01" height="27.05" fill="none" stroke="#003a50" stroke-miterlimit="10"/><g clip-path="url(#clip-path)"><path d="M53.56,330.9a.8.8,0,0,1,1.51-.36,22.91,22.91,0,0,1,0,20.09A.8.8,0,0,1,54,351a.79.79,0,0,1-.36-1.06,21.3,21.3,0,0,0,0-18.69A.68.68,0,0,1,53.56,330.9Z" fill="none" stroke="#003a50" stroke-miterlimit="10"/><path d="M58,330.9a.8.8,0,0,1,1.52-.36,22.91,22.91,0,0,1,0,20.09.8.8,0,0,1-1.07.36.78.78,0,0,1-.36-1.06,21.3,21.3,0,0,0,0-18.69A.69.69,0,0,1,58,330.9Z" fill="none" stroke="#003a50" stroke-miterlimit="10"/><path d="M62.41,330.9a.8.8,0,0,1,1.51-.36,22.91,22.91,0,0,1,0,20.09.8.8,0,0,1-1.43-.7,21.3,21.3,0,0,0,0-18.69A.68.68,0,0,1,62.41,330.9Z" fill="none" stroke="#003a50" stroke-miterlimit="10"/><path d="M66.83,330.9a.8.8,0,0,1,1.52-.36,22.91,22.91,0,0,1,0,20.09.8.8,0,0,1-1.07.36.79.79,0,0,1-.36-1.06,21.3,21.3,0,0,0,0-18.69A.69.69,0,0,1,66.83,330.9Z" fill="none" stroke="#003a50" stroke-miterlimit="10"/><path d="M71.26,330.9a.8.8,0,0,1,.44-.72.82.82,0,0,1,1.08.36,22.91,22.91,0,0,1,0,20.09.8.8,0,0,1-1.07.36.79.79,0,0,1-.37-1.06,21.3,21.3,0,0,0,0-18.69A.68.68,0,0,1,71.26,330.9Z" fill="none" stroke="#003a50" stroke-miterlimit="10"/><path d="M75.68,330.9a.8.8,0,0,1,1.52-.36,22.91,22.91,0,0,1,0,20.09.8.8,0,0,1-1.07.36.79.79,0,0,1-.36-1.06,21.3,21.3,0,0,0,0-18.69A.69.69,0,0,1,75.68,330.9Z" fill="none" stroke="#003a50" stroke-miterlimit="10"/><path d="M49.13,330.9a.8.8,0,0,1,.44-.72.82.82,0,0,1,1.08.36,22.91,22.91,0,0,1,0,20.09.8.8,0,0,1-1.07.36.79.79,0,0,1-.37-1.06,21.3,21.3,0,0,0,0-18.69A.68.68,0,0,1,49.13,330.9Z" fill="none" stroke="#003a50" stroke-miterlimit="10"/><path d="M44.71,330.9a.8.8,0,0,1,1.51-.36,22.91,22.91,0,0,1,0,20.09.8.8,0,0,1-1.07.36.79.79,0,0,1-.36-1.06,21.3,21.3,0,0,0,0-18.69A.68.68,0,0,1,44.71,330.9Z" fill="none" stroke="#003a50" stroke-miterlimit="10"/></g><line x1="39.95" y1="340.59" x2="107.96" y2="340.59" fill="none" stroke="#003a50" stroke-miterlimit="10"/><rect x="402" y="332.94" width="104.13" height="27.05" fill="none" stroke="#003a50" stroke-miterlimit="10"/><g clip-path="url(#clip-path)"><path d="M415.61,336.77a.78.78,0,0,1,.44-.71.82.82,0,0,1,1.08.36,22.91,22.91,0,0,1,0,20.09.8.8,0,0,1-1.07.36.79.79,0,0,1-.37-1.06,21.3,21.3,0,0,0,0-18.69A.72.72,0,0,1,415.61,336.77Z" fill="none" stroke="#003a50" stroke-miterlimit="10"/><path d="M420,336.77a.79.79,0,0,1,.45-.71.81.81,0,0,1,1.07.36,22.91,22.91,0,0,1,0,20.09.8.8,0,0,1-1.07.36.79.79,0,0,1-.36-1.06,21.3,21.3,0,0,0,0-18.69A.73.73,0,0,1,420,336.77Z" fill="none" stroke="#003a50" stroke-miterlimit="10"/><path d="M424.46,336.77a.78.78,0,0,1,.44-.71.82.82,0,0,1,1.08.36,22.91,22.91,0,0,1,0,20.09.8.8,0,0,1-1.07.36.79.79,0,0,1-.37-1.06,21.3,21.3,0,0,0,0-18.69A.72.72,0,0,1,424.46,336.77Z" fill="none" stroke="#003a50" stroke-miterlimit="10"/><path d="M428.89,336.77a.78.78,0,0,1,.44-.71.8.8,0,0,1,1.07.36,22.91,22.91,0,0,1,0,20.09.8.8,0,0,1-1.07.36.79.79,0,0,1-.36-1.06,21.3,21.3,0,0,0,0-18.69A.72.72,0,0,1,428.89,336.77Z" fill="none" stroke="#003a50" stroke-miterlimit="10"/><path d="M433.31,336.77a.79.79,0,0,1,.45-.71.81.81,0,0,1,1.07.36,22.91,22.91,0,0,1,0,20.09.8.8,0,0,1-1.07.36.78.78,0,0,1-.36-1.06,21.3,21.3,0,0,0,0-18.69A.73.73,0,0,1,433.31,336.77Z" fill="none" stroke="#003a50" stroke-miterlimit="10"/><path d="M437.74,336.77a.78.78,0,0,1,.44-.71.8.8,0,0,1,1.07.36,22.91,22.91,0,0,1,0,20.09.8.8,0,0,1-1.43-.7,21.3,21.3,0,0,0,0-18.69A.72.72,0,0,1,437.74,336.77Z" fill="none" stroke="#003a50" stroke-miterlimit="10"/><path d="M411.18,336.77a.79.79,0,0,1,.45-.71.81.81,0,0,1,1.07.36,22.91,22.91,0,0,1,0,20.09.8.8,0,0,1-1.07.36.79.79,0,0,1-.36-1.06,21.3,21.3,0,0,0,0-18.69A.73.73,0,0,1,411.18,336.77Z" fill="none" stroke="#003a50" stroke-miterlimit="10"/><path d="M406.76,336.77a.78.78,0,0,1,.44-.71.8.8,0,0,1,1.07.36,22.91,22.91,0,0,1,0,20.09.8.8,0,0,1-1.43-.7,21.3,21.3,0,0,0,0-18.69A.72.72,0,0,1,406.76,336.77Z" fill="none" stroke="#003a50" stroke-miterlimit="10"/></g><line x1="402" y1="346.46" x2="508.25" y2="346.46" fill="none" stroke="#003a50" stroke-miterlimit="10"/><rect x="12.9" y="314.4" width="27.05" height="41.11" fill="none" stroke="#003a50" stroke-miterlimit="10"/><g clip-path="url(#clip-path)"><path d="M16.73,341.89a.79.79,0,0,1-.35-1.51,22.88,22.88,0,0,1,20.08,0,.8.8,0,0,1-.7,1.43,21.27,21.27,0,0,0-18.68,0A.74.74,0,0,1,16.73,341.89Z" fill="none" stroke="#003a50" stroke-miterlimit="10"/><path d="M16.73,337.47A.8.8,0,0,1,16,337a.81.81,0,0,1,.37-1.08,22.88,22.88,0,0,1,20.08,0,.8.8,0,0,1-.7,1.44,21.27,21.27,0,0,0-18.68,0A.74.74,0,0,1,16.73,337.47Z" fill="none" stroke="#003a50" stroke-miterlimit="10"/><path d="M16.73,333a.79.79,0,0,1-.35-1.51,22.88,22.88,0,0,1,20.08,0,.8.8,0,0,1-.7,1.43,21.27,21.27,0,0,0-18.68,0A.74.74,0,0,1,16.73,333Z" fill="none" stroke="#003a50" stroke-miterlimit="10"/><path d="M16.73,328.62a.8.8,0,0,1-.35-1.52,22.88,22.88,0,0,1,20.08,0,.79.79,0,0,1,.36,1.07.78.78,0,0,1-1.06.36,21.27,21.27,0,0,0-18.68,0A.76.76,0,0,1,16.73,328.62Z" fill="none" stroke="#003a50" stroke-miterlimit="10"/><path d="M16.73,346.32a.8.8,0,0,1-.72-.44.81.81,0,0,1,.37-1.08,22.88,22.88,0,0,1,20.08,0,.8.8,0,0,1-.7,1.44,21.27,21.27,0,0,0-18.68,0A.74.74,0,0,1,16.73,346.32Z" fill="none" stroke="#003a50" stroke-miterlimit="10"/><path d="M16.73,350.75a.8.8,0,0,1-.35-1.52,22.88,22.88,0,0,1,20.08,0,.8.8,0,0,1-.7,1.43,21.27,21.27,0,0,0-18.68,0A.76.76,0,0,1,16.73,350.75Z" fill="none" stroke="#003a50" stroke-miterlimit="10"/></g><line x1="26.42" y1="355.51" x2="26.42" y2="314.39" fill="none" stroke="#003a50" stroke-miterlimit="10"/><g clip-path="url(#clip-path)"><rect x="302.64" y="46.89" width="27.05" height="87.64" fill="none" stroke="#003a50" stroke-miterlimit="10"/><path d="M306.48,120.91a.79.79,0,0,1-.35-1.51,22.88,22.88,0,0,1,20.08,0,.8.8,0,0,1-.7,1.43,21.27,21.27,0,0,0-18.68,0A.74.74,0,0,1,306.48,120.91Z" fill="none" stroke="#003a50" stroke-miterlimit="10"/><path d="M306.48,116.49a.8.8,0,0,1-.35-1.52,22.88,22.88,0,0,1,20.08,0,.79.79,0,0,1,.36,1.07.78.78,0,0,1-1.06.36,21.27,21.27,0,0,0-18.68,0A.76.76,0,0,1,306.48,116.49Z" fill="none" stroke="#003a50" stroke-miterlimit="10"/><path d="M306.48,112.06a.79.79,0,0,1-.35-1.51,22.88,22.88,0,0,1,20.08,0,.8.8,0,0,1-.7,1.43,21.27,21.27,0,0,0-18.68,0A.74.74,0,0,1,306.48,112.06Z" fill="none" stroke="#003a50" stroke-miterlimit="10"/><path d="M306.48,107.64a.8.8,0,0,1-.35-1.52,22.88,22.88,0,0,1,20.08,0,.79.79,0,0,1,.36,1.07.78.78,0,0,1-1.06.36,21.27,21.27,0,0,0-18.68,0A.76.76,0,0,1,306.48,107.64Z" fill="none" stroke="#003a50" stroke-miterlimit="10"/><path d="M306.48,103.21a.79.79,0,0,1-.35-1.51,22.88,22.88,0,0,1,20.08,0,.78.78,0,0,1,.36,1.06.79.79,0,0,1-1.06.37,21.27,21.27,0,0,0-18.68,0A.74.74,0,0,1,306.48,103.21Z" fill="none" stroke="#003a50" stroke-miterlimit="10"/><path d="M306.48,98.79a.8.8,0,0,1-.35-1.52,22.88,22.88,0,0,1,20.08,0,.8.8,0,0,1-.7,1.43,21.27,21.27,0,0,0-18.68,0A.76.76,0,0,1,306.48,98.79Z" fill="none" stroke="#003a50" stroke-miterlimit="10"/><path d="M306.48,125.34a.8.8,0,0,1-.72-.44.81.81,0,0,1,.37-1.08,22.88,22.88,0,0,1,20.08,0,.8.8,0,0,1-.7,1.44,21.27,21.27,0,0,0-18.68,0A.74.74,0,0,1,306.48,125.34Z" fill="none" stroke="#003a50" stroke-miterlimit="10"/><path d="M306.48,129.77a.8.8,0,0,1-.35-1.52,22.88,22.88,0,0,1,20.08,0,.8.8,0,0,1-.7,1.43,21.27,21.27,0,0,0-18.68,0A.76.76,0,0,1,306.48,129.77Z" fill="none" stroke="#003a50" stroke-miterlimit="10"/><line x1="316.17" y1="134.53" x2="316.17" y2="46.89" fill="none" stroke="#003a50" stroke-miterlimit="10"/><rect x="370.54" y="115.73" width="18.91" height="18.91" fill="none" stroke="#003a50" stroke-miterlimit="10"/><path d="M385.41,119.77a7.67,7.67,0,1,0,0,10.84A7.65,7.65,0,0,0,385.41,119.77Z" fill="none" stroke="#003a50" stroke-miterlimit="10"/><path d="M385.93,120.34c-1.41.14-2.84-.4-4.22,1-2,2,.12,4.18-1.92,6.22s-4.18-.12-6.22,1.91" fill="none" stroke="#003a50" stroke-miterlimit="10"/><rect x="394.72" y="40.1" width="85.08" height="94.54" fill="none" stroke="#003a50" stroke-miterlimit="10"/><path d="M471.47,48.22H403.06A1.74,1.74,0,0,0,401.32,50v56.4H473.2V50A1.73,1.73,0,0,0,471.47,48.22Z" fill="none" stroke="#003a50" stroke-miterlimit="10"/><path d="M434.89,109.37H402.76a1.65,1.65,0,0,0-1.65,1.65v15.77a1.65,1.65,0,0,0,1.65,1.66h32.13a1.65,1.65,0,0,0,1.65-1.66V111A1.65,1.65,0,0,0,434.89,109.37Z" fill="none" stroke="#003a50" stroke-miterlimit="10"/><rect x="437.98" y="109.37" width="35.44" height="19.08" rx="1.65" fill="none" stroke="#003a50" stroke-miterlimit="10"/><path d="M26.78,294.38a3.38,3.38,0,0,0,3.13-2.1h1.93l5.1,3-2.32,3.77L32,297.64v11.82H20.87V297.64l-2.65,1.45-2.32-3.77,5.14-3h2.58A3.43,3.43,0,0,0,26.78,294.38Z" fill="none" stroke="#003a50" stroke-miterlimit="10"/></g><rect x="12.9" y="287.34" width="27.05" height="27.05" fill="none" stroke="#003a50" stroke-miterlimit="10"/><g clip-path="url(#clip-path)"><path d="M-35.92,421a2.35,2.35,0,0,1-2.14-2.51v-3.19a2.35,2.35,0,0,1,2.14-2.51H.47v85.61H-35.6a2.35,2.35,0,0,1-2.14-2.51v-3.19a2.35,2.35,0,0,1,2.14-2.51H-3.27V421Z" fill="none" stroke="#003a50" stroke-miterlimit="10"/><path d="M317.87,469.23h31V434.67H316.2v32.89A1.67,1.67,0,0,0,317.87,469.23Z" fill="none" stroke="#003a50" stroke-miterlimit="10"/><path d="M317.7,503.86h31.15V469.3H317.7a1.5,1.5,0,0,0-1.5,1.5v31.56A1.5,1.5,0,0,0,317.7,503.86Z" fill="none" stroke="#003a50" stroke-miterlimit="10"/><path d="M316.2,434.67a2.35,2.35,0,0,1-2.13-2.51V429a2.34,2.34,0,0,1,2.13-2.51h36.39v85.61H316.52a2.35,2.35,0,0,1-2.14-2.51v-3.19a2.35,2.35,0,0,1,2.14-2.51h32.34V434.67Z" fill="none" stroke="#003a50" stroke-miterlimit="10"/></g><rect x="341.87" y="434.67" width="6.98" height="69.19" fill="none" stroke="#003a50" stroke-miterlimit="10"/><g clip-path="url(#clip-path)"><rect x="-27.6" y="300.34" width="28.24" height="26.69" fill="none" stroke="#003a50" stroke-miterlimit="10"/><rect x="-27.6" y="327.03" width="28.24" height="27.5" fill="none" stroke="#003a50" stroke-miterlimit="10"/><rect x="-27.6" y="273.64" width="28.24" height="80.89" fill="none" stroke="#003a50" stroke-miterlimit="10"/></g><rect x="246.48" y="241.24" width="28.24" height="28.24" fill="none" stroke="#003a50" stroke-miterlimit="10"/><g clip-path="url(#clip-path)"><path d="M256.56,255.52v-8.67h6.75v8.67a2.79,2.79,0,0,1-2.78,2.78h-1.19A2.78,2.78,0,0,1,256.56,255.52Z" fill="none" stroke="#003a50" stroke-miterlimit="10"/></g><polyline points="262.66 266.58 259.93 266.58 257.21 266.58" fill="none" stroke="#003a50" stroke-miterlimit="10"/><line x1="259.93" y1="258.3" x2="259.93" y2="266.58" fill="none" stroke="#003a50" stroke-miterlimit="10"/><rect x="324.28" y="269.45" width="28.24" height="27.5" fill="none" stroke="#003a50" stroke-miterlimit="10"/><g clip-path="url(#clip-path)"><circle cx="331.88" cy="276.92" r="3.75" transform="translate(-54.75 83.66) rotate(-13.28)" fill="none" stroke="#003a50" stroke-miterlimit="10"/><circle cx="331.88" cy="289.44" r="3.75" transform="translate(-57.62 83.99) rotate(-13.28)" fill="none" stroke="#003a50" stroke-miterlimit="10"/><circle cx="344.08" cy="276.92" r="3.75" transform="translate(-54.42 86.46) rotate(-13.28)" fill="none" stroke="#003a50" stroke-miterlimit="10"/><circle cx="344.08" cy="289.44" r="3.75" transform="translate(-57.29 86.8) rotate(-13.28)" fill="none" stroke="#003a50" stroke-miterlimit="10"/></g><polyline points="298.07 247.81 293.4 247.81 288.74 247.81" fill="none" stroke="#003a50" stroke-miterlimit="10"/><line x1="293.39" y1="257.17" x2="293.39" y2="247.81" fill="none" stroke="#003a50" stroke-miterlimit="10"/><g clip-path="url(#clip-path)"><rect x="283.08" y="251.81" width="20.66" height="14.9" rx="3.24" fill="none" stroke="#003a50" stroke-miterlimit="10"/><path d="M293.39,258.33a1.67,1.67,0,1,0-1.67-1.67A1.66,1.66,0,0,0,293.39,258.33Z" fill="none" stroke="#003a50" stroke-miterlimit="10"/></g><rect x="219.75" y="241.79" width="26.74" height="27.69" fill="none" stroke="#003a50" stroke-miterlimit="10"/><line x1="225.27" y1="256.11" x2="240.96" y2="256.11" fill="none" stroke="#003a50" stroke-miterlimit="10"/><line x1="233.12" y1="248.27" x2="233.12" y2="263.96" fill="none" stroke="#003a50" stroke-miterlimit="10"/><line x1="227.57" y1="250.56" x2="238.66" y2="261.66" fill="none" stroke="#003a50" stroke-miterlimit="10"/><line x1="238.66" y1="250.56" x2="227.57" y2="261.66" fill="none" stroke="#003a50" stroke-miterlimit="10"/><rect x="274.72" y="242.36" width="49.56" height="27.09" fill="none" stroke="#003a50" stroke-miterlimit="10"/><rect x="324.28" y="241.79" width="28.24" height="82.9" fill="none" stroke="#003a50" stroke-miterlimit="10"/><g clip-path="url(#clip-path)"><path d="M14.85,466.38h0a1,1,0,0,0-1,1v52.74a1,1,0,0,0,1.94,0V467.35A1,1,0,0,0,14.85,466.38Z" fill="none" stroke="#003a50" stroke-miterlimit="10"/><path d="M35.84,502.19a10.23,10.23,0,0,0,11-16.19.77.77,0,0,0-1.11-.12.79.79,0,0,0-.12,1.11,8.63,8.63,0,0,1-9.8,13.5Z" fill="none" stroke="#003a50" stroke-miterlimit="10"/><rect x="12.28" y="464.61" width="23.56" height="58.2" rx="2.29" fill="none" stroke="#003a50" stroke-miterlimit="10"/><path d="M25,474.09a3.82,3.82,0,1,1,0-5.4A3.82,3.82,0,0,1,25,474.09Z" fill="none" stroke="#003a50" stroke-miterlimit="10"/><path d="M25.2,473.8c-.7-.07-1.41.2-2.1-.49-1-1,.06-2.08-1-3.09s-2.08.06-3.1-1" fill="none" stroke="#003a50" stroke-miterlimit="10"/><path d="M35.84,498.93a7.36,7.36,0,1,0,0-13.57Z" fill="none" stroke="#003a50" stroke-miterlimit="10"/></g><rect x="80.34" y="133.55" width="27.05" height="60.16" fill="none" stroke="#003a50" stroke-miterlimit="10"/><g clip-path="url(#clip-path)"><path d="M84.17,180.1a.8.8,0,0,1-.35-1.52,22.91,22.91,0,0,1,20.09,0,.81.81,0,0,1,.36,1.07.8.8,0,0,1-1.07.36,21.27,21.27,0,0,0-18.68,0A.73.73,0,0,1,84.17,180.1Z" fill="none" stroke="#003a50" stroke-miterlimit="10"/><path d="M84.17,175.67a.8.8,0,0,1-.35-1.51,22.91,22.91,0,0,1,20.09,0,.8.8,0,0,1-.71,1.43,21.27,21.27,0,0,0-18.68,0A.72.72,0,0,1,84.17,175.67Z" fill="none" stroke="#003a50" stroke-miterlimit="10"/><path d="M84.17,171.25a.8.8,0,0,1-.35-1.52,22.91,22.91,0,0,1,20.09,0,.81.81,0,0,1,.36,1.07.8.8,0,0,1-1.07.36,21.27,21.27,0,0,0-18.68,0A.73.73,0,0,1,84.17,171.25Z" fill="none" stroke="#003a50" stroke-miterlimit="10"/><path d="M84.17,166.82a.78.78,0,0,1-.71-.44.8.8,0,0,1,.36-1.08,22.91,22.91,0,0,1,20.09,0,.81.81,0,0,1,.36,1.07.8.8,0,0,1-1.07.37,21.27,21.27,0,0,0-18.68,0A.72.72,0,0,1,84.17,166.82Z" fill="none" stroke="#003a50" stroke-miterlimit="10"/><path d="M84.17,162.39a.8.8,0,0,1-.35-1.51,22.91,22.91,0,0,1,20.09,0,.8.8,0,0,1,.36,1.07.8.8,0,0,1-1.07.36,21.27,21.27,0,0,0-18.68,0A.72.72,0,0,1,84.17,162.39Z" fill="none" stroke="#003a50" stroke-miterlimit="10"/><path d="M84.17,158a.8.8,0,0,1-.35-1.52,22.91,22.91,0,0,1,20.09,0,.81.81,0,0,1,.36,1.07.79.79,0,0,1-1.07.36,21.27,21.27,0,0,0-18.68,0A.73.73,0,0,1,84.17,158Z" fill="none" stroke="#003a50" stroke-miterlimit="10"/><path d="M84.17,184.52a.8.8,0,0,1-.35-1.51,22.91,22.91,0,0,1,20.09,0,.8.8,0,0,1-.71,1.43,21.27,21.27,0,0,0-18.68,0A.72.72,0,0,1,84.17,184.52Z" fill="none" stroke="#003a50" stroke-miterlimit="10"/><path d="M84.17,189a.8.8,0,0,1-.35-1.52,22.91,22.91,0,0,1,20.09,0,.81.81,0,0,1,.36,1.07.79.79,0,0,1-1.07.36,21.27,21.27,0,0,0-18.68,0A.73.73,0,0,1,84.17,189Z" fill="none" stroke="#003a50" stroke-miterlimit="10"/></g><line x1="93.86" y1="193.71" x2="93.86" y2="133.73" fill="none" stroke="#003a50" stroke-miterlimit="10"/><rect x="357.58" y="147.06" width="148.54" height="17.85" fill="none" stroke="#003a50" stroke-miterlimit="10"/><polygon points="395.06 155.3 429.42 152.48 463.95 155.3 463.95 157.27 395.06 157.27 395.06 155.3" fill="none" stroke="#003a50" stroke-miterlimit="10"/><g clip-path="url(#clip-path)"><path d="M79.73,214.91v-15.8a2.3,2.3,0,0,1,2.31-2.3H97.32a2.3,2.3,0,0,1,2.3,2.3v15.8a2.3,2.3,0,0,1-2.3,2.3H82A2.3,2.3,0,0,1,79.73,214.91Z" fill="none" stroke="#003a50" stroke-miterlimit="10"/><path d="M89.68,208.57A1.56,1.56,0,1,1,91.23,207,1.56,1.56,0,0,1,89.68,208.57Z" fill="none" stroke="#003a50" stroke-miterlimit="10"/></g><rect x="69.18" y="198.62" width="37.81" height="20.25" fill="none" stroke="#003a50" stroke-miterlimit="10"/><rect x="80.38" y="80.64" width="21.71" height="52.91" fill="none" stroke="#003a50" stroke-miterlimit="10"/><g clip-path="url(#clip-path)"><path d="M94.91,57.22H87.56a7.19,7.19,0,0,0-7.18,7.19v7.34a7.19,7.19,0,0,0,7.18,7.18h7.35a7.19,7.19,0,0,0,7.18-7.18V64.41A7.19,7.19,0,0,0,94.91,57.22Z" fill="none" stroke="#003a50" stroke-miterlimit="10"/></g><rect x="34.45" y="199.32" width="34.93" height="82.86" fill="none" stroke="#003a50" stroke-miterlimit="10"/><g clip-path="url(#clip-path)"><path d="M65.05,215.42v50.66a12.9,12.9,0,0,1-13.12,12.67h0a12.9,12.9,0,0,1-13.12-12.67V215.42a12.9,12.9,0,0,1,13.12-12.67h0A12.9,12.9,0,0,1,65.05,215.42Z" fill="none" stroke="#003a50" stroke-miterlimit="10"/><path d="M51.91,217a1.84,1.84,0,1,1,1.91-1.84A1.87,1.87,0,0,1,51.91,217Z" fill="none" stroke="#003a50" stroke-miterlimit="10"/><line x1="16.1" y1="129.74" x2="-1.62" y2="129.74" fill="none" stroke="#003a50" stroke-linecap="round" stroke-linejoin="round" stroke-width="0.96"/><line x1="68.77" y1="129.74" x2="18.82" y2="129.74" fill="none" stroke="#003a50" stroke-linecap="round" stroke-linejoin="round" stroke-width="0.96"/><line x1="68.77" y1="2.59" x2="18.82" y2="2.59" fill="none" stroke="#003a50" stroke-linecap="round" stroke-linejoin="round" stroke-width="0.96"/><line x1="68.77" y1="117.02" x2="18.82" y2="117.02" fill="none" stroke="#003a50" stroke-linecap="round" stroke-linejoin="round" stroke-width="0.96"/><line x1="68.77" y1="104.31" x2="18.82" y2="104.31" fill="none" stroke="#003a50" stroke-linecap="round" stroke-linejoin="round" stroke-width="0.96"/><line x1="68.77" y1="91.59" x2="18.82" y2="91.59" fill="none" stroke="#003a50" stroke-linecap="round" stroke-linejoin="round" stroke-width="0.96"/><line x1="68.77" y1="78.88" x2="18.82" y2="78.88" fill="none" stroke="#003a50" stroke-linecap="round" stroke-linejoin="round" stroke-width="0.96"/><line x1="42.66" y1="66.16" x2="18.82" y2="66.16" fill="none" stroke="#003a50" stroke-linecap="round" stroke-linejoin="round" stroke-width="0.96"/><line x1="68.77" y1="66.16" x2="42.66" y2="66.16" fill="none" stroke="#003a50" stroke-linecap="round" stroke-linejoin="round" stroke-width="0.96"/><line x1="68.77" y1="53.45" x2="18.82" y2="53.45" fill="none" stroke="#003a50" stroke-linecap="round" stroke-linejoin="round" stroke-width="0.96"/><line x1="68.77" y1="40.73" x2="18.82" y2="40.73" fill="none" stroke="#003a50" stroke-linecap="round" stroke-linejoin="round" stroke-width="0.96"/><line x1="68.77" y1="28.02" x2="18.82" y2="28.02" fill="none" stroke="#003a50" stroke-linecap="round" stroke-linejoin="round" stroke-width="0.96"/><line x1="68.77" y1="15.3" x2="18.82" y2="15.3" fill="none" stroke="#003a50" stroke-linecap="round" stroke-linejoin="round" stroke-width="0.96"/><line x1="68.77" y1="2.59" x2="18.82" y2="2.59" fill="none" stroke="#003a50" stroke-linecap="round" stroke-linejoin="round" stroke-width="0.96"/><line x1="42.66" y1="66.16" x2="18.82" y2="66.16" fill="none" stroke="#003a50" stroke-linecap="round" stroke-linejoin="round" stroke-width="0.96"/><line x1="68.77" y1="53.45" x2="18.82" y2="53.45" fill="none" stroke="#003a50" stroke-linecap="round" stroke-linejoin="round" stroke-width="0.96"/><line x1="68.77" y1="40.73" x2="18.82" y2="40.73" fill="none" stroke="#003a50" stroke-linecap="round" stroke-linejoin="round" stroke-width="0.96"/><line x1="68.77" y1="28.02" x2="18.82" y2="28.02" fill="none" stroke="#003a50" stroke-linecap="round" stroke-linejoin="round" stroke-width="0.96"/><line x1="68.77" y1="15.3" x2="18.82" y2="15.3" fill="none" stroke="#003a50" stroke-linecap="round" stroke-linejoin="round" stroke-width="0.96"/><line x1="68.77" y1="2.59" x2="18.82" y2="2.59" fill="none" stroke="#003a50" stroke-linecap="round" stroke-linejoin="round" stroke-width="0.96"/><line x1="68.77" y1="117.02" x2="18.82" y2="117.02" fill="none" stroke="#003a50" stroke-linecap="round" stroke-linejoin="round" stroke-width="0.96"/><line x1="68.77" y1="104.31" x2="18.82" y2="104.31" fill="none" stroke="#003a50" stroke-linecap="round" stroke-linejoin="round" stroke-width="0.96"/><line x1="68.77" y1="91.59" x2="18.82" y2="91.59" fill="none" stroke="#003a50" stroke-linecap="round" stroke-linejoin="round" stroke-width="0.96"/><line x1="68.77" y1="78.88" x2="18.82" y2="78.88" fill="none" stroke="#003a50" stroke-linecap="round" stroke-linejoin="round" stroke-width="0.96"/><line x1="42.66" y1="66.16" x2="18.82" y2="66.16" fill="none" stroke="#003a50" stroke-linecap="round" stroke-linejoin="round" stroke-width="0.96"/><line x1="68.77" y1="66.16" x2="42.66" y2="66.16" fill="none" stroke="#003a50" stroke-linecap="round" stroke-linejoin="round" stroke-width="0.96"/><line x1="68.77" y1="53.45" x2="18.82" y2="53.45" fill="none" stroke="#003a50" stroke-linecap="round" stroke-linejoin="round" stroke-width="0.96"/><line x1="68.77" y1="40.73" x2="18.82" y2="40.73" fill="none" stroke="#003a50" stroke-linecap="round" stroke-linejoin="round" stroke-width="0.96"/><line x1="68.77" y1="28.02" x2="18.82" y2="28.02" fill="none" stroke="#003a50" stroke-linecap="round" stroke-linejoin="round" stroke-width="0.96"/><line x1="68.77" y1="15.3" x2="18.82" y2="15.3" fill="none" stroke="#003a50" stroke-linecap="round" stroke-linejoin="round" stroke-width="0.96"/><line x1="42.66" y1="66.16" x2="18.82" y2="66.16" fill="none" stroke="#003a50" stroke-linecap="round" stroke-linejoin="round" stroke-width="0.96"/><line x1="68.77" y1="53.45" x2="18.82" y2="53.45" fill="none" stroke="#003a50" stroke-linecap="round" stroke-linejoin="round" stroke-width="0.96"/><line x1="68.77" y1="40.73" x2="18.82" y2="40.73" fill="none" stroke="#003a50" stroke-linecap="round" stroke-linejoin="round" stroke-width="0.96"/><line x1="68.77" y1="28.02" x2="18.82" y2="28.02" fill="none" stroke="#003a50" stroke-linecap="round" stroke-linejoin="round" stroke-width="0.96"/><line x1="68.77" y1="15.3" x2="18.82" y2="15.3" fill="none" stroke="#003a50" stroke-linecap="round" stroke-linejoin="round" stroke-width="0.96"/><line x1="68.77" y1="2.59" x2="18.82" y2="2.59" fill="none" stroke="#003a50" stroke-linecap="round" stroke-linejoin="round" stroke-width="0.96"/><line x1="16.55" y1="129.74" x2="-1.62" y2="129.74" fill="none" stroke="#003a50" stroke-linecap="round" stroke-linejoin="round" stroke-width="0.96"/><line x1="68.77" y1="129.74" x2="16.55" y2="129.74" fill="none" stroke="#003a50" stroke-linecap="round" stroke-linejoin="round" stroke-width="0.96"/><line x1="16.55" y1="83.79" x2="16.55" y2="129.73" fill="none" stroke="#003a50" stroke-linecap="round" stroke-linejoin="round" stroke-width="0.96"/><line x1="16.55" y1="83.79" x2="68.77" y2="59.43" fill="none" stroke="#003a50" stroke-linecap="round" stroke-linejoin="round" stroke-width="0.96"/><line x1="18.82" y1="77.28" x2="68.77" y2="53.99" fill="none" stroke="#003a50" stroke-linecap="round" stroke-linejoin="round" stroke-width="0.96"/><line x1="68.77" y1="117.02" x2="16.55" y2="117.02" fill="none" stroke="#003a50" stroke-linecap="round" stroke-linejoin="round" stroke-width="0.96"/><line x1="68.77" y1="104.31" x2="16.55" y2="104.31" fill="none" stroke="#003a50" stroke-linecap="round" stroke-linejoin="round" stroke-width="0.96"/><line x1="68.77" y1="91.59" x2="16.55" y2="91.59" fill="none" stroke="#003a50" stroke-linecap="round" stroke-linejoin="round" stroke-width="0.96"/><line x1="68.77" y1="78.88" x2="27.08" y2="78.88" fill="none" stroke="#003a50" stroke-linecap="round" stroke-linejoin="round" stroke-width="0.96"/><line x1="68.77" y1="66.16" x2="54.34" y2="66.16" fill="none" stroke="#003a50" stroke-linecap="round" stroke-linejoin="round" stroke-width="0.96"/><line x1="68.77" y1="117.02" x2="16.55" y2="117.02" fill="none" stroke="#003a50" stroke-linecap="round" stroke-linejoin="round" stroke-width="0.96"/><line x1="68.77" y1="104.31" x2="16.55" y2="104.31" fill="none" stroke="#003a50" stroke-linecap="round" stroke-linejoin="round" stroke-width="0.96"/><line x1="68.77" y1="91.59" x2="16.55" y2="91.59" fill="none" stroke="#003a50" stroke-linecap="round" stroke-linejoin="round" stroke-width="0.96"/><line x1="68.77" y1="78.88" x2="27.08" y2="78.88" fill="none" stroke="#003a50" stroke-linecap="round" stroke-linejoin="round" stroke-width="0.96"/><line x1="68.77" y1="66.16" x2="54.34" y2="66.16" fill="none" stroke="#003a50" stroke-linecap="round" stroke-linejoin="round" stroke-width="0.96"/><line x1="18.82" y1="132.01" x2="-3.89" y2="132.01" fill="none" stroke="#003a50" stroke-linecap="round" stroke-linejoin="round" stroke-width="0.96"/><line x1="18.82" y1="117.02" x2="18.82" y2="132" fill="none" stroke="#003a50" stroke-linecap="round" stroke-linejoin="round" stroke-width="0.96"/><line x1="18.82" y1="77.28" x2="18.82" y2="117.02" fill="none" stroke="#003a50" stroke-linecap="round" stroke-linejoin="round" stroke-width="0.96"/><line x1="16.55" y1="129.74" x2="-1.62" y2="129.74" fill="none" stroke="#003a50" stroke-linecap="round" stroke-linejoin="round" stroke-width="0.96"/><line x1="16.55" y1="117.02" x2="16.55" y2="129.74" fill="none" stroke="#003a50" stroke-linecap="round" stroke-linejoin="round" stroke-width="0.96"/><line x1="16.55" y1="78.34" x2="16.55" y2="117.02" fill="none" stroke="#003a50" stroke-linecap="round" stroke-linejoin="round" stroke-width="0.96"/><line x1="16.55" y1="78.34" x2="18.82" y2="77.28" fill="none" stroke="#003a50" stroke-linecap="round" stroke-linejoin="round" stroke-width="0.96"/><line x1="18.82" y1="132.01" x2="-3.89" y2="132.01" fill="none" stroke="#003a50" stroke-linecap="round" stroke-linejoin="round" stroke-width="0.96"/><line x1="18.82" y1="117.02" x2="18.82" y2="132" fill="none" stroke="#003a50" stroke-linecap="round" stroke-linejoin="round" stroke-width="0.96"/><line x1="18.82" y1="82.73" x2="18.82" y2="117.02" fill="none" stroke="#003a50" stroke-linecap="round" stroke-linejoin="round" stroke-width="0.96"/><line x1="18.82" y1="-10.13" x2="18.82" y2="77.28" fill="none" stroke="#003a50" stroke-linecap="round" stroke-linejoin="round" stroke-width="0.96"/><line x1="16.55" y1="129.74" x2="-1.62" y2="129.74" fill="none" stroke="#003a50" stroke-linecap="round" stroke-linejoin="round" stroke-width="0.96"/><line x1="16.55" y1="117.02" x2="16.55" y2="129.74" fill="none" stroke="#003a50" stroke-linecap="round" stroke-linejoin="round" stroke-width="0.96"/><line x1="16.55" y1="83.79" x2="16.55" y2="117.02" fill="none" stroke="#003a50" stroke-linecap="round" stroke-linejoin="round" stroke-width="0.96"/><line x1="16.55" y1="-10.13" x2="16.55" y2="78.34" fill="none" stroke="#003a50" stroke-linecap="round" stroke-linejoin="round" stroke-width="0.96"/><line x1="42.66" y1="117.02" x2="42.66" y2="129.74" fill="none" stroke="#003a50" stroke-linecap="round" stroke-linejoin="round" stroke-width="0.96"/><line x1="42.66" y1="104.31" x2="42.66" y2="117.02" fill="none" stroke="#003a50" stroke-linecap="round" stroke-linejoin="round" stroke-width="0.96"/><line x1="42.66" y1="91.59" x2="42.66" y2="104.31" fill="none" stroke="#003a50" stroke-linecap="round" stroke-linejoin="round" stroke-width="0.96"/><line x1="42.66" y1="78.88" x2="42.66" y2="91.59" fill="none" stroke="#003a50" stroke-linecap="round" stroke-linejoin="round" stroke-width="0.96"/><line x1="42.66" y1="66.16" x2="42.66" y2="78.88" fill="none" stroke="#003a50" stroke-linecap="round" stroke-linejoin="round" stroke-width="0.96"/><line x1="42.66" y1="53.45" x2="42.66" y2="66.16" fill="none" stroke="#003a50" stroke-linecap="round" stroke-linejoin="round" stroke-width="0.96"/><line x1="42.66" y1="40.73" x2="42.66" y2="53.45" fill="none" stroke="#003a50" stroke-linecap="round" stroke-linejoin="round" stroke-width="0.96"/><line x1="42.66" y1="28.02" x2="42.66" y2="40.73" fill="none" stroke="#003a50" stroke-linecap="round" stroke-linejoin="round" stroke-width="0.96"/><line x1="42.66" y1="15.3" x2="42.66" y2="28.02" fill="none" stroke="#003a50" stroke-linecap="round" stroke-linejoin="round" stroke-width="0.96"/><line x1="42.66" y1="2.59" x2="42.66" y2="15.3" fill="none" stroke="#003a50" stroke-linecap="round" stroke-linejoin="round" stroke-width="0.96"/><line x1="42.66" y1="129.74" x2="44.45" y2="116.11" fill="none" stroke="#003a50" stroke-linecap="round" stroke-linejoin="round" stroke-width="0.96"/><line x1="44.45" y1="116.11" x2="40.86" y2="116.11" fill="none" stroke="#003a50" stroke-linecap="round" stroke-linejoin="round" stroke-width="0.96"/><line x1="40.86" y1="116.11" x2="42.2" y2="126.22" fill="none" stroke="#003a50" stroke-linecap="round" stroke-linejoin="round" stroke-width="0.96"/><line x1="42.19" y1="126.22" x2="42.66" y2="129.73" fill="none" stroke="#003a50" stroke-linecap="round" stroke-linejoin="round" stroke-width="0.96"/><polygon points="42.66 129.74 44.45 116.11 40.86 116.11 42.19 126.22 42.66 129.74" fill="#003a50" fill-rule="evenodd"/><line x1="42.66" y1="4.29" x2="43.86" y2="3.79" fill="none" stroke="#003a50" stroke-linecap="round" stroke-linejoin="round" stroke-width="0.96"/><line x1="43.86" y1="3.79" x2="44.36" y2="2.59" fill="none" stroke="#003a50" stroke-linecap="round" stroke-linejoin="round" stroke-width="0.96"/><line x1="44.36" y1="2.59" x2="43.86" y2="1.38" fill="none" stroke="#003a50" stroke-linecap="round" stroke-linejoin="round" stroke-width="0.96"/><line x1="43.86" y1="1.38" x2="42.66" y2="0.88" fill="none" stroke="#003a50" stroke-linecap="round" stroke-linejoin="round" stroke-width="0.96"/><line x1="42.66" y1="0.88" x2="41.45" y2="1.38" fill="none" stroke="#003a50" stroke-linecap="round" stroke-linejoin="round" stroke-width="0.96"/><line x1="41.45" y1="1.38" x2="40.95" y2="2.59" fill="none" stroke="#003a50" stroke-linecap="round" stroke-linejoin="round" stroke-width="0.96"/><line x1="40.95" y1="2.59" x2="41.45" y2="3.79" fill="none" stroke="#003a50" stroke-linecap="round" stroke-linejoin="round" stroke-width="0.96"/><line x1="41.45" y1="3.79" x2="42.66" y2="4.29" fill="none" stroke="#003a50" stroke-linecap="round" stroke-linejoin="round" stroke-width="0.96"/><polygon points="42.66 4.29 43.86 3.79 44.36 2.59 43.86 1.38 42.66 0.89 41.45 1.38 40.95 2.59 41.45 3.79 42.66 4.29" fill="#003a50" fill-rule="evenodd"/><path d="M42.66.88A1.72,1.72,0,0,0,41,2.59" fill="none" stroke="#003a50" stroke-linecap="round" stroke-linejoin="round" stroke-width="0.96"/><line x1="40.95" y1="2.59" x2="42.66" y2="2.59" fill="none" stroke="#003a50" stroke-linecap="round" stroke-linejoin="round" stroke-width="0.96"/><line x1="42.66" y1="2.59" x2="42.66" y2="0.88" fill="none" stroke="#003a50" stroke-linecap="round" stroke-linejoin="round" stroke-width="0.96"/><path d="M42.66.88A1.72,1.72,0,0,0,41,2.59h1.71Z" fill="#003a50" fill-rule="evenodd"/><path d="M41,2.59a1.71,1.71,0,0,0,3.41,0" fill="none" stroke="#003a50" stroke-linecap="round" stroke-linejoin="round" stroke-width="0.96"/><line x1="44.36" y1="2.59" x2="42.66" y2="2.59" fill="none" stroke="#003a50" stroke-linecap="round" stroke-linejoin="round" stroke-width="0.96"/><line x1="42.66" y1="2.59" x2="40.95" y2="2.59" fill="none" stroke="#003a50" stroke-linecap="round" stroke-linejoin="round" stroke-width="0.96"/><path d="M41,2.59a1.71,1.71,0,0,0,3.41,0H41Z" fill="#003a50" fill-rule="evenodd"/><path d="M44.36,2.59A1.71,1.71,0,0,0,42.66.88" fill="none" stroke="#003a50" stroke-linecap="round" stroke-linejoin="round" stroke-width="0.96"/><line x1="42.66" y1="0.88" x2="42.66" y2="2.59" fill="none" stroke="#003a50" stroke-linecap="round" stroke-linejoin="round" stroke-width="0.96"/><line x1="42.66" y1="2.59" x2="44.36" y2="2.59" fill="none" stroke="#003a50" stroke-linecap="round" stroke-linejoin="round" stroke-width="0.96"/><path d="M44.36,2.59A1.71,1.71,0,0,0,42.66.88V2.59Z" fill="#003a50" fill-rule="evenodd"/><line x1="42.66" y1="53.45" x2="42.66" y2="55.94" fill="none" stroke="#003a50" stroke-linecap="round" stroke-linejoin="round" stroke-width="0.96"/><line x1="42.66" y1="40.73" x2="42.66" y2="53.45" fill="none" stroke="#003a50" stroke-linecap="round" stroke-linejoin="round" stroke-width="0.96"/><line x1="42.66" y1="28.02" x2="42.66" y2="40.73" fill="none" stroke="#003a50" stroke-linecap="round" stroke-linejoin="round" stroke-width="0.96"/><line x1="42.66" y1="15.3" x2="42.66" y2="28.02" fill="none" stroke="#003a50" stroke-linecap="round" stroke-linejoin="round" stroke-width="0.96"/><line x1="42.66" y1="2.59" x2="42.66" y2="15.3" fill="none" stroke="#003a50" stroke-linecap="round" stroke-linejoin="round" stroke-width="0.96"/><line x1="42.66" y1="-10.13" x2="42.66" y2="2.59" fill="none" stroke="#003a50" stroke-linecap="round" stroke-linejoin="round" stroke-width="0.96"/><line x1="42.66" y1="55.94" x2="44.45" y2="42.32" fill="none" stroke="#003a50" stroke-linecap="round" stroke-linejoin="round" stroke-width="0.96"/><line x1="44.45" y1="42.32" x2="40.86" y2="42.32" fill="none" stroke="#003a50" stroke-linecap="round" stroke-linejoin="round" stroke-width="0.96"/><line x1="40.86" y1="42.32" x2="42.33" y2="53.45" fill="none" stroke="#003a50" stroke-linecap="round" stroke-linejoin="round" stroke-width="0.96"/><line x1="42.33" y1="53.45" x2="42.66" y2="55.94" fill="none" stroke="#003a50" stroke-linecap="round" stroke-linejoin="round" stroke-width="0.96"/><polygon points="42.66 55.94 44.45 42.32 40.86 42.32 42.33 53.45 42.66 55.94" fill="#003a50" fill-rule="evenodd"/><line x1="42.66" y1="81.83" x2="42.66" y2="129.74" fill="none" stroke="#003a50" stroke-linecap="round" stroke-linejoin="round" stroke-width="0.96"/><line x1="42.66" y1="129.74" x2="44.45" y2="116.11" fill="none" stroke="#003a50" stroke-linecap="round" stroke-linejoin="round" stroke-width="0.96"/><line x1="44.45" y1="116.11" x2="40.86" y2="116.11" fill="none" stroke="#003a50" stroke-linecap="round" stroke-linejoin="round" stroke-width="0.96"/><line x1="40.86" y1="116.11" x2="42.2" y2="126.22" fill="none" stroke="#003a50" stroke-linecap="round" stroke-linejoin="round" stroke-width="0.96"/><line x1="42.19" y1="126.22" x2="42.66" y2="129.73" fill="none" stroke="#003a50" stroke-linecap="round" stroke-linejoin="round" stroke-width="0.96"/><polygon points="42.66 129.74 44.45 116.11 40.86 116.11 42.19 126.22 42.66 129.74" fill="#003a50" fill-rule="evenodd"/><path d="M301.64-12.4h2.24c15.59,0,28.22,13.64,28.22,30.46H301.64" fill="none" stroke="#003a50" stroke-miterlimit="10" stroke-width="1.6"/><path d="M231,163.83v2.25c0,15.58,13.64,28.22,30.47,28.22V163.83" fill="none" stroke="#003a50" stroke-miterlimit="10" stroke-width="1.6"/><path d="M110.47,255.36h2.25c15.58,0,28.22-13.64,28.22-30.47H110.47" fill="none" stroke="#003a50" stroke-miterlimit="10" stroke-width="1.6"/><path d="M189,207h-2.68c-18.64,0-33.74-16.31-33.74-36.42H189" fill="none" stroke="#003a50" stroke-miterlimit="10" stroke-width="1.6"/><path d="M356.34,389.08H359c18.64,0,33.74-16.3,33.74-36.42H356.34" fill="none" stroke="#003a50" stroke-miterlimit="10" stroke-width="1.6"/><path d="M116.77,356.78v2.68c0,18.64,16.31,33.74,36.43,33.74V356.78" fill="none" stroke="#003a50" stroke-miterlimit="10" stroke-width="1.6"/><path d="M131.62,43.28V40.2c0-21.41,18.73-38.76,41.84-38.76V43.28" fill="none" stroke="#003a50" stroke-miterlimit="10" stroke-width="1.6"/></g><line x1="116.04" y1="283.65" x2="116.04" y2="318.37" fill="none" stroke="#003a50" stroke-miterlimit="10" stroke-width="1.6"/><rect y="193.14" width="110.47" height="5.75" fill="#003a50"/><rect y="238.01" width="33.25" height="5.75" fill="#003a50"/><rect x="192.21" y="264.22" width="26.58" height="5.75" fill="#003a50"/><rect x="214.42" y="240.68" width="5.75" height="29.29" fill="#003a50"/><rect x="187.37" y="146.68" width="5.75" height="24.66" fill="#003a50"/><rect x="289.2" y="135.61" width="5.75" height="29.78" fill="#003a50"/><rect x="297.37" y="42.24" width="5.75" height="3.64" fill="#003a50"/><rect x="111.12" y="42.24" width="5.75" height="3.5" fill="#003a50"/><rect x="362.87" y="134.02" width="5.75" height="6.83" fill="#003a50"/><rect x="258.58" y="45.86" width="5.75" height="29.78" fill="#003a50"/><rect x="187.37" y="159.64" width="44.5" height="5.75" fill="#003a50"/><rect x="196.12" y="71.39" width="97.75" height="5.75" fill="#003a50"/><rect x="277.87" y="42.24" width="25.4" height="5.71" fill="#003a50"/><rect x="260.75" y="159.64" width="31.88" height="5.75" fill="#003a50"/><rect x="352.17" y="237.25" width="5.75" height="116.22" fill="#003a50"/><rect x="352.17" y="388.06" width="5.75" height="145.28" fill="#003a50"/><rect y="268.89" width="4" height="5.75" fill="#003a50"/><rect x="10.83" y="282.06" width="99.03" height="5.75" fill="#003a50"/><rect x="196.71" y="237.25" width="159.63" height="5.75" fill="#003a50"/><rect x="355.04" y="327.81" width="159.63" height="5.75" fill="#003a50"/><rect x="10.83" y="353.9" width="106.79" height="5.75" fill="#003a50"/><rect x="152.37" y="353.9" width="13.38" height="5.75" fill="#003a50"/><rect x="106.64" y="193.14" width="5.75" height="32.54" fill="#003a50"/><rect x="106.64" y="254.52" width="5.75" height="40.05" fill="#003a50"/><rect x="106.64" y="323.46" width="5.75" height="33.32" fill="#003a50"/><rect x="159.99" y="358.33" width="5.75" height="167.73" fill="#003a50"/><rect x="28.83" y="196.81" width="5.75" height="88.12" fill="#003a50"/><rect x="130.88" y="527.39" width="26.83" height="15" fill="#003a50"/><rect x="289.38" y="527.39" width="26.83" height="15" fill="#003a50"/><rect x="506.62" y="134.02" width="31.83" height="76.25" fill="#003a50"/><g clip-path="url(#clip-path)"><rect x="506.62" y="122.44" width="31.83" height="87.84" fill="none" stroke="#003a50" stroke-miterlimit="10" stroke-width="2.09"/></g><rect x="506.62" y="528.31" width="40" height="18.92" fill="#003a50"/><g clip-path="url(#clip-path)"><rect x="506.62" y="528.31" width="40" height="18.92" fill="none" stroke="#003a50" stroke-miterlimit="10" stroke-width="2.09"/></g><rect x="514.79" y="166.35" width="31.83" height="43.92" fill="#003a50"/><g clip-path="url(#clip-path)"><rect x="514.79" y="166.35" width="31.83" height="43.92" fill="none" stroke="#003a50" stroke-miterlimit="10" stroke-width="2.09"/></g><rect x="506.62" y="283.19" width="31.83" height="86.37" fill="#003a50"/><rect x="506.62" y="283.19" width="31.83" height="86.37" fill="none" stroke="#003a50" stroke-miterlimit="10" stroke-width="2.09"/><rect x="514.79" y="324.06" width="31.83" height="45.5" fill="#003a50"/><g clip-path="url(#clip-path)"><rect x="514.79" y="324.06" width="31.83" height="45.5" fill="none" stroke="#003a50" stroke-miterlimit="10" stroke-width="2.09"/></g><rect x="506.62" y="544.86" width="40" height="22.95" fill="#003a50"/><g clip-path="url(#clip-path)"><rect x="506.62" y="544.86" width="40" height="22.95" fill="none" stroke="#003a50" stroke-miterlimit="10" stroke-width="2.09"/></g><rect x="306.37" y="522.81" width="69" height="23.25" fill="#003a50"/><rect x="306.37" y="522.81" width="69" height="23.25" fill="none" stroke="#003a50" stroke-miterlimit="10" stroke-width="2.09"/><rect x="147.87" y="522.81" width="69" height="23.25" fill="#003a50"/><rect x="147.87" y="522.81" width="69" height="23.25" fill="none" stroke="#003a50" stroke-miterlimit="10" stroke-width="2.09"/><rect x="289.37" y="537.31" width="86" height="20.99" fill="#003a50"/><rect x="289.37" y="537.31" width="86" height="20.99" fill="none" stroke="#003a50" stroke-miterlimit="10" stroke-width="2.09"/><rect x="289.37" y="547.8" width="43" height="20.99" fill="#003a50"/><g clip-path="url(#clip-path)"><rect x="289.37" y="547.8" width="43" height="20.99" fill="none" stroke="#003a50" stroke-miterlimit="10" stroke-width="2.09"/></g><rect x="130.87" y="537.31" width="86" height="19.02" fill="#003a50"/><rect x="130.87" y="537.31" width="86" height="19.02" fill="none" stroke="#003a50" stroke-miterlimit="10" stroke-width="2.09"/><rect y="537.31" width="57.37" height="20.99" fill="#003a50"/><g clip-path="url(#clip-path)"><rect x="-28.63" y="537.31" width="86" height="20.99" fill="none" stroke="#003a50" stroke-miterlimit="10" stroke-width="2.09"/></g><rect y="522.68" width="40.12" height="30.5" fill="#003a50"/><g clip-path="url(#clip-path)"><rect x="-28.63" y="522.68" width="68.75" height="30.5" fill="none" stroke="#003a50" stroke-miterlimit="10" stroke-width="2.09"/></g><rect x="130.87" y="548.78" width="43" height="19.02" fill="#003a50"/><g clip-path="url(#clip-path)"><rect x="130.87" y="548.78" width="43" height="19.02" fill="none" stroke="#003a50" stroke-miterlimit="10" stroke-width="2.09"/></g><rect y="548.78" width="14.37" height="19.02" fill="#003a50"/><g clip-path="url(#clip-path)"><rect x="-28.63" y="548.78" width="43" height="19.02" fill="none" stroke="#003a50" stroke-miterlimit="10" stroke-width="2.09"/></g><polygon points="130.02 42.2 130.02 42.24 74.61 42.24 74.61 56.12 132.37 56.12 132.37 42.2 130.02 42.2" fill="#003a50"/><polygon points="172.54 42.2 172.54 56.12 303.12 56.12 303.12 42.24 175.56 42.24 175.56 42.2 172.54 42.2" fill="#003a50"/><polygon points="289.2 133.89 289.2 147.81 511.87 147.81 511.87 134.02 303.28 134.02 303.28 133.89 289.2 133.89" fill="#003a50"/><polygon points="68.88 187.06 68.88 187.13 0 187.13 0 198.89 80.62 198.89 80.62 187.06 68.88 187.06" fill="#003a50"/><rect x="187.37" y="206.18" width="13.92" height="72.38" fill="#003a50"/><rect x="187.37" y="42.24" width="13.92" height="123.15" fill="#003a50"/><rect x="289.21" y="42.24" width="13.92" height="105.57" fill="#003a50"/><rect y="194.89" width="13.62" height="339.54" fill="#003a50"/><polygon points="68.88 42.24 68.88 187.13 68.59 187.13 68.59 198.89 80.62 198.89 80.62 42.24 68.88 42.24" fill="#003a50"/><g clip-path="url(#clip-path)"><path d="M425.3,390.81l-2.49,1.95v-2.24l2.74-2.27h1.86v11.91H425.3Z" fill="#003a50"/><path d="M435.3,392.18a5,5,0,0,1,3.34,1.06,4.17,4.17,0,0,1,0,6,5.38,5.38,0,0,1-3.54,1.08,5.87,5.87,0,0,1-3.57-1,3.16,3.16,0,0,1-1.28-2.69h2.11A1.54,1.54,0,0,0,433,398a3.57,3.57,0,0,0,2,.48,3.17,3.17,0,0,0,2-.57,2.36,2.36,0,0,0,0-3.39A3.31,3.31,0,0,0,435,394a3.6,3.6,0,0,0-1.92.42,1.87,1.87,0,0,0-.69.64l-.05.12h-2.11v-6.88h8.87v1.85h-6.76v2.95h.05a2.2,2.2,0,0,1,.39-.3,3.11,3.11,0,0,1,.55-.27A5.63,5.63,0,0,1,435.3,392.18Z" fill="#003a50"/><path d="M442,400a1,1,0,0,1-.33-.81,1,1,0,0,1,.33-.8,1.4,1.4,0,0,1,1.73,0,1,1,0,0,1,.33.8,1,1,0,0,1-.33.81,1.4,1.4,0,0,1-1.73,0Z" fill="#003a50"/><path d="M452.11,390.1h-5.82v-1.85h8.86v1.85l-4.52,2.65v.06h1.28a3.87,3.87,0,0,1,2.79,1,3.5,3.5,0,0,1,1.05,2.66,3.34,3.34,0,0,1-1.33,2.83,7,7,0,0,1-7.24,0,3.37,3.37,0,0,1-1.33-2.86v-.32H448v.32c0,1.36,1,2,2.84,2s2.84-.66,2.84-2-.95-2-2.84-2h-3.26v-1.67l4.57-2.69Z" fill="#003a50"/><path d="M428.14,189.28l-2.49,2V189l2.74-2.26h1.86v11.91h-2.11Z" fill="#003a50"/><path d="M441.19,198.64h-2.11V196h-7v-1.85l6.29-7.41h2.79v7.41h1.6V196h-1.6Zm-2.11-4.5v-5.32H439l-4.48,5.27v0Z" fill="#003a50"/><path d="M444.47,198.5a1,1,0,0,1-.32-.8,1.07,1.07,0,0,1,.32-.81,1.41,1.41,0,0,1,1.74,0,1.07,1.07,0,0,1,.32.81,1,1,0,0,1-.32.8,1.41,1.41,0,0,1-1.74,0Z" fill="#003a50"/><path d="M450.38,189.28l-2.49,2V189l2.74-2.26h1.86v11.91h-2.11Z" fill="#003a50"/><path d="M426.3,18.74l-2.48,2V18.45l2.73-2.26h1.86V28.1H426.3Z" fill="#003a50"/><path d="M440.8,28.1h-9.93V26.53a2.76,2.76,0,0,1,.58-1.74,4,4,0,0,1,1.44-1.2c.5-.25,1.13-.54,1.87-.86s1.33-.56,1.88-.77a4.09,4.09,0,0,0,1.44-.92,1.76,1.76,0,0,0,.58-1.3c0-1.26-.89-1.88-2.67-1.88s-2.67.72-2.67,2.15v.41h-2.11V20a3.62,3.62,0,0,1,1.26-3A5.38,5.38,0,0,1,436,16a5.66,5.66,0,0,1,3.52,1,3.31,3.31,0,0,1,1.27,2.75,3.17,3.17,0,0,1-.56,1.84,4.26,4.26,0,0,1-1.4,1.3c-.6.34-1.21.65-1.84.93s-1.23.53-1.82.75a5.46,5.46,0,0,0-1.41.74,1.26,1.26,0,0,0-.56,1h7.62Z" fill="#003a50"/><path d="M442.9,28a1,1,0,0,1-.32-.8,1.07,1.07,0,0,1,.32-.81,1.41,1.41,0,0,1,1.74,0,1.07,1.07,0,0,1,.32.81,1,1,0,0,1-.32.8,1.41,1.41,0,0,1-1.74,0Z" fill="#003a50"/><path d="M450,28.1h-2.35l5.42-10h-6.93V16.19h9.28v1.87Z" fill="#003a50"/><path d="M287.34,190.65a5,5,0,0,1,3.34,1.07,4.18,4.18,0,0,1,0,6,5.39,5.39,0,0,1-3.55,1.08,5.79,5.79,0,0,1-3.56-1,3.16,3.16,0,0,1-1.29-2.68h2.11a1.53,1.53,0,0,0,.7,1.33,3.61,3.61,0,0,0,2,.49,3.15,3.15,0,0,0,2-.58,2,2,0,0,0,.7-1.68,2.05,2.05,0,0,0-.73-1.71,3.31,3.31,0,0,0-2.07-.58,3.6,3.6,0,0,0-1.92.42,1.93,1.93,0,0,0-.7.64l0,.12h-2.11v-6.87h8.88v1.84h-6.77v3h0a2.22,2.22,0,0,1,.4-.31,4,4,0,0,1,.55-.27A5.6,5.6,0,0,1,287.34,190.65Z" fill="#003a50"/><path d="M294,198.5a1,1,0,0,1-.32-.8,1.07,1.07,0,0,1,.32-.81,1.25,1.25,0,0,1,.88-.3,1.23,1.23,0,0,1,.86.3,1.07,1.07,0,0,1,.32.81,1,1,0,0,1-.32.8,1.23,1.23,0,0,1-.86.3A1.25,1.25,0,0,1,294,198.5Z" fill="#003a50"/><path d="M298.18,195.29h2.21s0,.07,0,.18a2.36,2.36,0,0,0,.23.43,2.09,2.09,0,0,0,.41.48,2,2,0,0,0,.75.42,3.21,3.21,0,0,0,1.05.17,2.67,2.67,0,0,0,2.24-1.07,4.29,4.29,0,0,0,.81-2.7h-.06a2.24,2.24,0,0,1-.44.46,2.73,2.73,0,0,1-.6.4,3.74,3.74,0,0,1-.95.32,5.43,5.43,0,0,1-1.22.14,5,5,0,0,1-3.37-1.13,3.74,3.74,0,0,1,.05-5.73,5.59,5.59,0,0,1,3.61-1.1,4.81,4.81,0,0,1,3.87,1.54,6.4,6.4,0,0,1,1.32,4.27v.41a6.7,6.7,0,0,1-1.37,4.31,4.71,4.71,0,0,1-3.89,1.71,6,6,0,0,1-2.17-.37,3.94,3.94,0,0,1-1.48-1A3.35,3.35,0,0,1,298.18,195.29Zm2.77-3.17a3.6,3.6,0,0,0,3.95,0,1.85,1.85,0,0,0,.78-1.57,1.89,1.89,0,0,0-.77-1.57,3.26,3.26,0,0,0-2-.58,3.17,3.17,0,0,0-2,.58,1.85,1.85,0,0,0-.78,1.57A1.87,1.87,0,0,0,301,192.12Z" fill="#003a50"/><path d="M349,94.44h-9.93V92.88a2.74,2.74,0,0,1,.58-1.74,4,4,0,0,1,1.44-1.2c.5-.25,1.12-.54,1.87-.86s1.32-.56,1.88-.77a4.09,4.09,0,0,0,1.44-.92,1.8,1.8,0,0,0,.58-1.3q0-1.89-2.67-1.89t-2.67,2.16v.41h-2.11v-.41a3.62,3.62,0,0,1,1.26-3,5.34,5.34,0,0,1,3.51-1,5.61,5.61,0,0,1,3.51,1A3.29,3.29,0,0,1,349,86.09a3.17,3.17,0,0,1-.55,1.84,4.29,4.29,0,0,1-1.41,1.3c-.59.34-1.21.65-1.83.93s-1.24.52-1.83.75a5.55,5.55,0,0,0-1.4.74,1.25,1.25,0,0,0-.57,1H349Z" fill="#003a50"/><path d="M351.1,94.31a1,1,0,0,1-.33-.8,1,1,0,0,1,.33-.81,1.23,1.23,0,0,1,.87-.3,1.2,1.2,0,0,1,.86.3,1,1,0,0,1,.33.81,1,1,0,0,1-.33.8,1.2,1.2,0,0,1-.86.3A1.23,1.23,0,0,1,351.1,94.31Z" fill="#003a50"/><path d="M364.72,85.89h-2.21s0-.06,0-.17a2.36,2.36,0,0,0-.21-.44,2.4,2.4,0,0,0-.39-.5,1.73,1.73,0,0,0-.71-.41,3,3,0,0,0-1-.17,2.52,2.52,0,0,0-2.15,1,4.44,4.44,0,0,0-.76,2.69h.05a2,2,0,0,1,.44-.44,4.86,4.86,0,0,1,.61-.36,4,4,0,0,1,1-.3,5.49,5.49,0,0,1,1.22-.13,5.05,5.05,0,0,1,3.37,1.11,3.51,3.51,0,0,1,1.3,2.8,3.59,3.59,0,0,1-1.36,2.91,5.55,5.55,0,0,1-3.6,1.1,4.81,4.81,0,0,1-3.87-1.54A6.38,6.38,0,0,1,355,88.8v-.41a6.85,6.85,0,0,1,1.32-4.31,4.52,4.52,0,0,1,3.8-1.71,5.66,5.66,0,0,1,2.13.37,3.83,3.83,0,0,1,1.43.94A3.46,3.46,0,0,1,364.72,85.89ZM362.21,89a3.65,3.65,0,0,0-3.95,0,2,2,0,0,0,0,3.15,3.21,3.21,0,0,0,2,.58,3.26,3.26,0,0,0,2-.58,1.89,1.89,0,0,0,.77-1.57A1.86,1.86,0,0,0,362.21,89Z" fill="#003a50"/><path d="M235.56,143.91h-5.82v-1.85h8.86v1.85l-4.53,2.65v.06h1.28a3.87,3.87,0,0,1,2.79,1,3.5,3.5,0,0,1,1.05,2.66,3.34,3.34,0,0,1-1.32,2.82,7,7,0,0,1-7.25,0,3.37,3.37,0,0,1-1.32-2.85v-.33h2.1v.33c0,1.36.95,2,2.85,2s2.83-.66,2.83-2-.94-2-2.83-2H231v-1.66l4.58-2.69Z" fill="#003a50"/><path d="M241.3,153.84A1,1,0,0,1,241,153a1,1,0,0,1,.33-.8,1.4,1.4,0,0,1,1.73,0,1,1,0,0,1,.32.8,1,1,0,0,1-.32.81,1.4,1.4,0,0,1-1.73,0Z" fill="#003a50"/><path d="M254.92,145.42h-2.21s0-.07,0-.18a2.94,2.94,0,0,0-.22-.44,2.29,2.29,0,0,0-.38-.49,1.94,1.94,0,0,0-.71-.42,3.29,3.29,0,0,0-1-.16,2.52,2.52,0,0,0-2.15,1,4.41,4.41,0,0,0-.77,2.68h.06a1.79,1.79,0,0,1,.44-.43,3.93,3.93,0,0,1,1.56-.67,6.06,6.06,0,0,1,1.21-.12,5.06,5.06,0,0,1,3.38,1.11,3.5,3.5,0,0,1,1.3,2.8A3.56,3.56,0,0,1,254,153a5.52,5.52,0,0,1-3.61,1.11,4.81,4.81,0,0,1-3.87-1.55,6.36,6.36,0,0,1-1.32-4.27v-.4a6.83,6.83,0,0,1,1.32-4.31,4.52,4.52,0,0,1,3.81-1.71,5.61,5.61,0,0,1,2.12.37,3.84,3.84,0,0,1,1.44.94A3.46,3.46,0,0,1,254.92,145.42Zm-2.51,3.15a3.62,3.62,0,0,0-4,0,2,2,0,0,0,0,3.14,3.15,3.15,0,0,0,2,.59,3.2,3.2,0,0,0,2-.59,2,2,0,0,0,0-3.14Z" fill="#003a50"/><path d="M265,2.71h-5.82V.86H268V2.71l-4.53,2.65v.06h1.28a3.9,3.9,0,0,1,2.79,1,3.52,3.52,0,0,1,1.05,2.67,3.34,3.34,0,0,1-1.32,2.82,7,7,0,0,1-7.25,0,3.37,3.37,0,0,1-1.32-2.85V8.74h2.1v.33c0,1.36.95,2,2.85,2s2.84-.67,2.84-2-1-2-2.84-2h-3.27V5.45L265,2.77Z" fill="#003a50"/><path d="M270.69,12.64a1,1,0,0,1-.33-.81,1,1,0,0,1,.33-.8,1.4,1.4,0,0,1,1.73,0,1,1,0,0,1,.33.8,1,1,0,0,1-.33.81,1.4,1.4,0,0,1-1.73,0Z" fill="#003a50"/><path d="M274.82,9.42H277s0,.07,0,.18a2.34,2.34,0,0,0,.23.43,2.14,2.14,0,0,0,.41.49,2,2,0,0,0,.75.42,3.21,3.21,0,0,0,1.05.16A2.69,2.69,0,0,0,281.76,10a4.38,4.38,0,0,0,.8-2.71h-.06a2.24,2.24,0,0,1-.44.47,2.73,2.73,0,0,1-.6.4,4,4,0,0,1-.95.32,5.43,5.43,0,0,1-1.22.13,4.9,4.9,0,0,1-3.36-1.13,3.56,3.56,0,0,1-1.32-2.81A3.57,3.57,0,0,1,276,1.8a5.49,5.49,0,0,1,3.6-1.1,4.81,4.81,0,0,1,3.87,1.54,6.4,6.4,0,0,1,1.32,4.27v.41a6.7,6.7,0,0,1-1.37,4.31,4.69,4.69,0,0,1-3.89,1.71,5.9,5.9,0,0,1-2.16-.38,3.85,3.85,0,0,1-1.48-.94A3.33,3.33,0,0,1,274.82,9.42Zm2.78-3.16a3.19,3.19,0,0,0,2,.59,3.23,3.23,0,0,0,2-.59,1.86,1.86,0,0,0,.78-1.57,1.91,1.91,0,0,0-.77-1.58,3.28,3.28,0,0,0-2-.58,3.22,3.22,0,0,0-2,.58,1.88,1.88,0,0,0-.78,1.58A1.85,1.85,0,0,0,277.6,6.26Z" fill="#003a50"/><path d="M79.71,472.07l-2.48,2v-2.25L80,469.52h1.86v11.91H79.71Z" fill="#003a50"/><path d="M94.21,481.43H84.28v-1.57a2.76,2.76,0,0,1,.58-1.74,3.83,3.83,0,0,1,1.45-1.19c.49-.26,1.12-.55,1.86-.87s1.33-.55,1.88-.77a4.36,4.36,0,0,0,1.45-.91,1.82,1.82,0,0,0,.57-1.31c0-1.25-.89-1.88-2.67-1.88s-2.67.72-2.67,2.16v.4H84.62v-.4a3.62,3.62,0,0,1,1.26-3,5.45,5.45,0,0,1,3.52-1,5.72,5.72,0,0,1,3.51,1,3.31,3.31,0,0,1,1.27,2.75,3.17,3.17,0,0,1-.56,1.84,4.26,4.26,0,0,1-1.4,1.3c-.6.34-1.21.65-1.84.93s-1.23.53-1.82.75a5.18,5.18,0,0,0-1.41.75,1.23,1.23,0,0,0-.56.95h7.62Z" fill="#003a50"/><path d="M96.31,481.29a1,1,0,0,1-.32-.8,1.07,1.07,0,0,1,.32-.81,1.25,1.25,0,0,1,.88-.3,1.23,1.23,0,0,1,.86.3,1.07,1.07,0,0,1,.32.81,1,1,0,0,1-.32.8,1.23,1.23,0,0,1-.86.3A1.25,1.25,0,0,1,96.31,481.29Z" fill="#003a50"/><path d="M106.42,471.36H100.6v-1.84h8.86v1.84L104.93,474v.07h1.28a3.86,3.86,0,0,1,2.79,1,3.5,3.5,0,0,1,1.06,2.67,3.35,3.35,0,0,1-1.33,2.82,7,7,0,0,1-7.24,0,3.36,3.36,0,0,1-1.33-2.86v-.32h2.11v.32c0,1.36.94,2,2.84,2s2.84-.67,2.84-2-1-2-2.84-2h-3.27v-1.67l4.58-2.68Z" fill="#003a50"/><path d="M250.73,481.43h-9.94v-1.57a2.83,2.83,0,0,1,.58-1.74,4,4,0,0,1,1.45-1.19c.5-.26,1.12-.55,1.87-.87s1.32-.55,1.87-.77a4.26,4.26,0,0,0,1.45-.91,1.82,1.82,0,0,0,.57-1.31c0-1.25-.89-1.88-2.66-1.88s-2.68.72-2.68,2.16v.4h-2.11v-.4a3.6,3.6,0,0,1,1.27-3,5.4,5.4,0,0,1,3.51-1,5.72,5.72,0,0,1,3.51,1,3.29,3.29,0,0,1,1.27,2.75,3.17,3.17,0,0,1-.55,1.84,4.39,4.39,0,0,1-1.41,1.3q-.9.51-1.83.93t-1.83.75a5.26,5.26,0,0,0-1.4.75,1.22,1.22,0,0,0-.57.95h7.63Z" fill="#003a50"/><path d="M256,481.43h-2.35l5.42-10h-6.93v-1.87h9.29v1.87Z" fill="#003a50"/><path d="M262.88,481.29a1,1,0,0,1-.33-.8,1,1,0,0,1,.33-.81,1.4,1.4,0,0,1,1.73,0,1,1,0,0,1,.32.81,1,1,0,0,1-.32.8,1.4,1.4,0,0,1-1.73,0Z" fill="#003a50"/><path d="M270,481.43h-2.35l5.42-10h-6.93v-1.87h9.29v1.87Z" fill="#003a50"/><path d="M89.9,235H84.08v-1.84h8.86V235l-4.53,2.65v.07h1.28a3.9,3.9,0,0,1,2.79,1,3.5,3.5,0,0,1,1.06,2.67,3.32,3.32,0,0,1-1.33,2.82,6.93,6.93,0,0,1-7.24,0,3.35,3.35,0,0,1-1.33-2.85v-.33h2.11v.33c0,1.36,1,2,2.84,2s2.84-.67,2.84-2-1-2-2.84-2H85.33v-1.67l4.57-2.68Z" fill="#003a50"/><path d="M95.64,245a1.17,1.17,0,0,1,0-1.61,1.23,1.23,0,0,1,.87-.3,1.24,1.24,0,0,1,.87.3,1.17,1.17,0,0,1,0,1.61,1.24,1.24,0,0,1-.87.3A1.23,1.23,0,0,1,95.64,245Z" fill="#003a50"/><path d="M101.54,235.75l-2.48,1.95v-2.24l2.73-2.27h1.86V245.1h-2.11Z" fill="#003a50"/><path d="M66.55,304.36H60.73v-1.84h8.86v1.84L65.06,307v.07h1.28a3.86,3.86,0,0,1,2.79,1,3.52,3.52,0,0,1,1.06,2.66,3.35,3.35,0,0,1-1.33,2.83,7,7,0,0,1-7.24,0,3.36,3.36,0,0,1-1.33-2.86v-.32H62.4v.32c0,1.36.94,2,2.84,2s2.84-.67,2.84-2-1-2-2.84-2H62v-1.67l4.58-2.68Z" fill="#003a50"/><path d="M72.29,314.29a1,1,0,0,1-.33-.8,1,1,0,0,1,.33-.81,1.4,1.4,0,0,1,1.73,0,1,1,0,0,1,.33.81,1,1,0,0,1-.33.8,1.4,1.4,0,0,1-1.73,0Z" fill="#003a50"/><path d="M86.06,314.43H76.13v-1.57a2.83,2.83,0,0,1,.58-1.74,4.12,4.12,0,0,1,1.45-1.2c.5-.25,1.12-.54,1.87-.86s1.32-.56,1.87-.77a4.14,4.14,0,0,0,1.45-.92,1.78,1.78,0,0,0,.57-1.3c0-1.26-.89-1.88-2.66-1.88s-2.68.72-2.68,2.16v.4H76.47v-.4a3.6,3.6,0,0,1,1.27-3,5.34,5.34,0,0,1,3.51-1,5.65,5.65,0,0,1,3.51,1A3.29,3.29,0,0,1,86,306.07a3.17,3.17,0,0,1-.55,1.84,4.39,4.39,0,0,1-1.41,1.3q-.9.51-1.83.93t-1.83.75a5.11,5.11,0,0,0-1.4.75,1.22,1.22,0,0,0-.57.95h7.62Z" fill="#003a50"/><path d="M131.06,94.14h2.21s0,.07,0,.18a2.07,2.07,0,0,0,.23.43,2.37,2.37,0,0,0,.41.49,2.2,2.2,0,0,0,.75.41,3.21,3.21,0,0,0,1.05.17A2.68,2.68,0,0,0,138,94.76a4.34,4.34,0,0,0,.81-2.71h-.06a2,2,0,0,1-.44.46,2.42,2.42,0,0,1-.6.4,3.71,3.71,0,0,1-.95.33,6.08,6.08,0,0,1-1.22.13,5,5,0,0,1-3.37-1.13,3.73,3.73,0,0,1,.05-5.72,5.54,5.54,0,0,1,3.61-1.11A4.81,4.81,0,0,1,139.69,87,6.38,6.38,0,0,1,141,91.23v.4a6.68,6.68,0,0,1-1.37,4.31,4.71,4.71,0,0,1-3.89,1.71,6,6,0,0,1-2.17-.37,3.71,3.71,0,0,1-1.47-1A3.31,3.31,0,0,1,131.06,94.14ZM133.83,91a3.6,3.6,0,0,0,3.95,0,1.86,1.86,0,0,0,.78-1.57,1.89,1.89,0,0,0-.77-1.58,3.24,3.24,0,0,0-2-.58,3.17,3.17,0,0,0-2,.58,1.86,1.86,0,0,0-.78,1.58A1.89,1.89,0,0,0,133.83,91Z" fill="#003a50"/><path d="M143.19,97.36a1,1,0,0,1-.32-.81,1.07,1.07,0,0,1,.32-.81,1.45,1.45,0,0,1,1.74,0,1.07,1.07,0,0,1,.32.81,1,1,0,0,1-.32.81,1.45,1.45,0,0,1-1.74,0Z" fill="#003a50"/><path d="M147.33,94.14h2.21s0,.07,0,.18a2.07,2.07,0,0,0,.23.43,2.37,2.37,0,0,0,.41.49,2.2,2.2,0,0,0,.75.41,3.21,3.21,0,0,0,1.05.17,2.68,2.68,0,0,0,2.24-1.06,4.34,4.34,0,0,0,.81-2.71H155a2,2,0,0,1-.44.46,2.42,2.42,0,0,1-.6.4,3.71,3.71,0,0,1-.95.33,6.16,6.16,0,0,1-1.22.13,5,5,0,0,1-3.37-1.13,3.6,3.6,0,0,1-1.31-2.82,3.56,3.56,0,0,1,1.36-2.9,5.52,5.52,0,0,1,3.61-1.11A4.81,4.81,0,0,1,156,87a6.38,6.38,0,0,1,1.32,4.27v.4a6.68,6.68,0,0,1-1.37,4.31A4.71,4.71,0,0,1,152,97.65a6,6,0,0,1-2.17-.37,3.83,3.83,0,0,1-1.48-1A3.33,3.33,0,0,1,147.33,94.14ZM150.1,91a3.6,3.6,0,0,0,4,0,1.86,1.86,0,0,0,.78-1.57,1.89,1.89,0,0,0-.77-1.58,3.26,3.26,0,0,0-2-.58,3.17,3.17,0,0,0-2,.58,1.86,1.86,0,0,0-.78,1.58A1.89,1.89,0,0,0,150.1,91Z" fill="#003a50"/><path d="M69.55,551.25a4.53,4.53,0,0,1-1-3.12,4.58,4.58,0,0,1,1-3.12,4,4,0,0,1,5.73,0,4.58,4.58,0,0,1,1,3.12,4.53,4.53,0,0,1-1,3.12,4,4,0,0,1-5.73,0Zm4.6-1a4,4,0,0,0,0-4.28,2.22,2.22,0,0,0-3.46,0,3.95,3.95,0,0,0,0,4.28,2.2,2.2,0,0,0,3.46,0Z" fill="#003a50"/><path d="M77.87,552.24a.71.71,0,0,1-.22-.57.74.74,0,0,1,.22-.57.9.9,0,0,1,.62-.21.87.87,0,0,1,.61.21.75.75,0,0,1,.23.57.72.72,0,0,1-.23.57.87.87,0,0,1-.61.21A.9.9,0,0,1,77.87,552.24Z" fill="#003a50"/><path d="M87.48,546.3H85.93l0-.13c0-.07-.08-.18-.15-.31a2.26,2.26,0,0,0-.28-.35,1.37,1.37,0,0,0-.5-.29,2.25,2.25,0,0,0-.71-.11,1.78,1.78,0,0,0-1.52.72,3.12,3.12,0,0,0-.54,1.9h0a1.11,1.11,0,0,1,.31-.31,4.78,4.78,0,0,1,.42-.26,3.33,3.33,0,0,1,.67-.21,4.12,4.12,0,0,1,.86-.09,3.53,3.53,0,0,1,2.38.79,2.43,2.43,0,0,1,.92,2,2.52,2.52,0,0,1-1,2,3.89,3.89,0,0,1-2.54.78,3.38,3.38,0,0,1-2.73-1.09,4.5,4.5,0,0,1-.93-3v-.29a4.83,4.83,0,0,1,.93-3,3.19,3.19,0,0,1,2.68-1.21,3.93,3.93,0,0,1,1.5.27,2.61,2.61,0,0,1,1,.66A2.39,2.39,0,0,1,87.48,546.3Zm-1.77,2.22a2.56,2.56,0,0,0-2.78,0,1.3,1.3,0,0,0-.56,1.11,1.32,1.32,0,0,0,.55,1.11,2.54,2.54,0,0,0,2.8,0,1.32,1.32,0,0,0,.55-1.11A1.3,1.3,0,0,0,85.71,548.52Z" fill="#003a50"/><path d="M228.08,551.25a4.57,4.57,0,0,1-1-3.12,4.63,4.63,0,0,1,1-3.12,4,4,0,0,1,5.74,0,4.63,4.63,0,0,1,1,3.12,4.57,4.57,0,0,1-1,3.12,4,4,0,0,1-5.74,0Zm4.61-1a4.06,4.06,0,0,0,0-4.28,2,2,0,0,0-1.74-.83,2,2,0,0,0-1.73.83,4,4,0,0,0,0,4.28,2,2,0,0,0,1.73.84A2.05,2.05,0,0,0,232.69,550.27Z" fill="#003a50"/><path d="M236.41,552.24a.69.69,0,0,1-.23-.57.71.71,0,0,1,.23-.57,1,1,0,0,1,1.22,0,.75.75,0,0,1,.23.57.72.72,0,0,1-.23.57,1,1,0,0,1-1.22,0Z" fill="#003a50"/><path d="M246,546.3h-1.56s0,0,0-.13a2,2,0,0,0-.15-.31,3,3,0,0,0-.27-.35,1.57,1.57,0,0,0-.5-.29,2.36,2.36,0,0,0-.72-.11,1.76,1.76,0,0,0-1.51.72,3.12,3.12,0,0,0-.54,1.9h0a1.27,1.27,0,0,1,.31-.31,3.78,3.78,0,0,1,.43-.26,3,3,0,0,1,.67-.21,4,4,0,0,1,.86-.09,3.5,3.5,0,0,1,2.37.79,2.43,2.43,0,0,1,.92,2,2.52,2.52,0,0,1-1,2,3.87,3.87,0,0,1-2.54.78,3.38,3.38,0,0,1-2.73-1.09,4.5,4.5,0,0,1-.93-3v-.29a4.83,4.83,0,0,1,.93-3,3.2,3.2,0,0,1,2.68-1.21,3.86,3.86,0,0,1,1.5.27,2.73,2.73,0,0,1,1,.66A2.44,2.44,0,0,1,246,546.3Zm-1.77,2.22a2.26,2.26,0,0,0-1.4-.41,2.21,2.21,0,0,0-1.39.41,1.3,1.3,0,0,0-.55,1.11,1.31,1.31,0,0,0,.54,1.11,2.54,2.54,0,0,0,2.8,0,1.3,1.3,0,0,0,.55-1.11A1.32,1.32,0,0,0,244.25,548.52Z" fill="#003a50"/><path d="M424.06,545.74l-1.76,1.37v-1.58l1.93-1.6h1.31v8.4h-1.48Z" fill="#003a50"/><path d="M427.33,552.24a.69.69,0,0,1-.23-.57.71.71,0,0,1,.23-.57.85.85,0,0,1,.61-.21.87.87,0,0,1,.61.21.75.75,0,0,1,.23.57.72.72,0,0,1-.23.57.87.87,0,0,1-.61.21A.85.85,0,0,1,427.33,552.24Z" fill="#003a50"/><path d="M436,552.33h-1.49v-1.87h-4.92v-1.3l4.44-5.23h2v5.23h1.12v1.3H436Zm-1.49-3.17v-3.75h-.05l-3.16,3.72v0Z" fill="#003a50"/><path d="M530.42,112.79a5.16,5.16,0,0,1-6.24,0,4,4,0,0,1,0-5.73,5.2,5.2,0,0,1,6.24,0,4,4,0,0,1,0,5.73Zm-1-4.6a4,4,0,0,0-4.28,0,2.21,2.21,0,0,0,0,3.47,4,4,0,0,0,4.28,0,2.21,2.21,0,0,0,0-3.47Z" fill="#003a50"/><path d="M531.41,104.47a.72.72,0,0,1-.57.23.75.75,0,0,1-.57-.23,1,1,0,0,1,0-1.23.74.74,0,0,1,.57-.22.71.71,0,0,1,.57.22,1,1,0,0,1,0,1.23Z" fill="#003a50"/><path d="M525.47,94.86v1.56s-.05,0-.13,0a2.34,2.34,0,0,0-.31.16,1.49,1.49,0,0,0-.35.27,1.32,1.32,0,0,0-.29.5,2.3,2.3,0,0,0-.11.71A1.78,1.78,0,0,0,525,99.6a3.12,3.12,0,0,0,1.9.54v0a1.49,1.49,0,0,1-.31-.31,3.28,3.28,0,0,1-.26-.43,3.14,3.14,0,0,1-.21-.67,4.12,4.12,0,0,1-.09-.86,3.57,3.57,0,0,1,.78-2.38,2.49,2.49,0,0,1,2-.92,2.52,2.52,0,0,1,2.05,1,3.91,3.91,0,0,1,.78,2.54,3.41,3.41,0,0,1-1.09,2.74,4.5,4.5,0,0,1-3,.93h-.29a4.83,4.83,0,0,1-3-.93A3.2,3.2,0,0,1,523,98.08a3.93,3.93,0,0,1,.27-1.5,2.61,2.61,0,0,1,.66-1A2.44,2.44,0,0,1,525.47,94.86Zm2.22,1.77a2.58,2.58,0,0,0,0,2.79,1.4,1.4,0,0,0,2.22,0,2.22,2.22,0,0,0,.41-1.4,2.26,2.26,0,0,0-.41-1.4,1.32,1.32,0,0,0-1.11-.54A1.3,1.3,0,0,0,527.69,96.63Z" fill="#003a50"/><path d="M530.42,274a5.2,5.2,0,0,1-6.24,0,4,4,0,0,1,0-5.74,5.2,5.2,0,0,1,6.24,0,4,4,0,0,1,0,5.74Zm-1-4.61a4.06,4.06,0,0,0-4.28,0,2.21,2.21,0,0,0,0,3.47,4,4,0,0,0,4.28,0,2,2,0,0,0,.84-1.73A2.05,2.05,0,0,0,529.44,269.42Z" fill="#003a50"/><path d="M531.41,265.7a.72.72,0,0,1-.57.23.75.75,0,0,1-.57-.23.87.87,0,0,1-.21-.61.85.85,0,0,1,.21-.61.71.71,0,0,1,.57-.23.69.69,0,0,1,.57.23.85.85,0,0,1,.21.61A.87.87,0,0,1,531.41,265.7Z" fill="#003a50"/><path d="M525.47,256.09v1.56s-.05,0-.13,0a1.38,1.38,0,0,0-.31.15,2.33,2.33,0,0,0-.35.27,1.4,1.4,0,0,0-.29.5,2.35,2.35,0,0,0-.11.71,1.77,1.77,0,0,0,.72,1.52,3.12,3.12,0,0,0,1.9.54v0a1.27,1.27,0,0,1-.31-.31,2.73,2.73,0,0,1-.26-.43,3.14,3.14,0,0,1-.21-.67,4,4,0,0,1-.09-.86,3.57,3.57,0,0,1,.78-2.38,2.49,2.49,0,0,1,2-.92,2.52,2.52,0,0,1,2.05,1,3.92,3.92,0,0,1,.78,2.55,3.38,3.38,0,0,1-1.09,2.73,4.5,4.5,0,0,1-3,.93h-.29a4.83,4.83,0,0,1-3-.93,3.18,3.18,0,0,1-1.21-2.69,3.93,3.93,0,0,1,.27-1.5,2.69,2.69,0,0,1,.66-1A2.44,2.44,0,0,1,525.47,256.09Zm2.22,1.77a2.58,2.58,0,0,0,0,2.79,1.3,1.3,0,0,0,1.11.55,1.32,1.32,0,0,0,1.11-.54,2.6,2.6,0,0,0,0-2.8,1.4,1.4,0,0,0-2.22,0Z" fill="#003a50"/><path d="M524.9,435.17l1.38,1.75H524.7L523.1,435v-1.32h8.4v1.49Z" fill="#003a50"/><path d="M531.41,431.9a.72.72,0,0,1-.57.23.75.75,0,0,1-.57-.23.87.87,0,0,1-.21-.61.85.85,0,0,1,.21-.61.75.75,0,0,1,.57-.23.72.72,0,0,1,.57.23.85.85,0,0,1,.21.61A.87.87,0,0,1,531.41,431.9Z" fill="#003a50"/><path d="M524.4,424.77v4.11h-1.3v-6.25h1.3l1.87,3.19h.05v-.9a2.72,2.72,0,0,1,.71-2,2.46,2.46,0,0,1,1.88-.75,2.35,2.35,0,0,1,2,.94,4.12,4.12,0,0,1,.72,2.56,4.07,4.07,0,0,1-.72,2.55,2.35,2.35,0,0,1-2,.94h-.23V427.7h.23c1,0,1.44-.67,1.43-2s-.47-2-1.41-2-1.39.67-1.39,2V428h-1.18l-1.89-3.23Z" fill="#003a50"/></g></svg>