<svg id="Слой_1" data-name="Слой 1" xmlns="http://www.w3.org/2000/svg" xmlns:xlink="http://www.w3.org/1999/xlink" viewBox="0 0 435.4 309.26"><defs><clipPath id="clip-path"><polygon points="0 0 0 309.26 435.4 309.26 435.4 57.88 275.46 57.88 275.46 0 0 0" fill="none"/></clipPath></defs><polygon points="10.4 0 10.4 12.36 268.95 12.36 268.95 63.02 393.28 63.02 393.28 57.87 275.46 57.87 275.46 0 10.4 0" fill="#fff"/><polygon points="10.4 5.86 10.4 302.14 393.28 302.14 393.28 67.36 268.84 67.36 268.84 5.86 10.4 5.86" fill="#fff"/><rect x="10.4" y="300.3" width="382.88" height="8.96" fill="#fff"/><g clip-path="url(#clip-path)"><line x1="13.6" y1="-554.64" x2="13.6" y2="794.48" fill="none" stroke="#003a50" stroke-miterlimit="10"/><polyline points="889.54 560.47 889.54 -543.15 866.54 -566.15 24.92 -566.15 1.92 -543.15 1.92 802.98 121.53 802.98 121.53 1928.11" fill="none" stroke="#003a50" stroke-miterlimit="10"/></g><rect x="29.89" y="36.9" width="4.55" height="69.92" fill="#fff"/><rect x="29.89" y="36.9" width="4.55" height="69.92" fill="none" stroke="#003a50" stroke-miterlimit="10"/><line x1="32.17" y1="36.9" x2="32.17" y2="106.82" fill="none" stroke="#003a50" stroke-miterlimit="10"/><rect x="29.89" y="36.9" width="4.55" height="4.42" fill="#fff"/><rect x="29.89" y="36.9" width="4.55" height="4.42" fill="none" stroke="#003a50" stroke-miterlimit="10"/><rect x="29.89" y="102.4" width="4.55" height="4.42" fill="#fff"/><rect x="29.89" y="102.4" width="4.55" height="4.42" fill="none" stroke="#003a50" stroke-miterlimit="10"/><rect x="29.89" y="67.44" width="4.55" height="4.42" fill="#fff"/><rect x="29.89" y="67.44" width="4.55" height="4.42" fill="none" stroke="#003a50" stroke-miterlimit="10"/><g clip-path="url(#clip-path)"><path d="M34.44,71.86H37c17.6,0,28.92,13.67,28.92,30.54H34.44" fill="none" stroke="#003a50" stroke-miterlimit="10"/></g><rect x="29.89" y="196.63" width="4.55" height="69.92" fill="#fff"/><rect x="29.89" y="196.63" width="4.55" height="69.92" fill="none" stroke="#003a50" stroke-miterlimit="10"/><line x1="32.17" y1="266.55" x2="32.17" y2="196.63" fill="none" stroke="#003a50" stroke-miterlimit="10"/><rect x="29.89" y="262.13" width="4.55" height="4.42" fill="#fff"/><rect x="29.89" y="262.13" width="4.55" height="4.42" fill="none" stroke="#003a50" stroke-miterlimit="10"/><rect x="29.89" y="196.63" width="4.55" height="4.42" fill="#fff"/><rect x="29.89" y="196.63" width="4.55" height="4.42" fill="none" stroke="#003a50" stroke-miterlimit="10"/><rect x="29.89" y="231.59" width="4.55" height="4.42" fill="#fff"/><rect x="29.89" y="231.59" width="4.55" height="4.42" fill="none" stroke="#003a50" stroke-miterlimit="10"/><g clip-path="url(#clip-path)"><path d="M34.44,231.59H37c17.6,0,28.92-13.67,28.92-30.54H34.44" fill="none" stroke="#003a50" stroke-miterlimit="10"/><path d="M338.6,135.36h23.2V117H338.6a9.17,9.17,0,1,0,0,18.34Z" fill="none" stroke="#003a50" stroke-miterlimit="10"/></g><line x1="352.77" y1="117.02" x2="352.77" y2="135.36" fill="none" stroke="#003a50" stroke-miterlimit="10"/><rect x="266.25" y="72.13" width="34.75" height="77.66" fill="none" stroke="#003a50" stroke-miterlimit="10"/><g clip-path="url(#clip-path)"><path d="M270.55,88.15v45.63a12.84,12.84,0,0,0,13.06,12.6h0a12.83,12.83,0,0,0,13.05-12.6V88.15a12.84,12.84,0,0,0-13.05-12.61h0A12.85,12.85,0,0,0,270.55,88.15Z" fill="none" stroke="#003a50" stroke-miterlimit="10"/><path d="M283.62,89.7a1.83,1.83,0,1,0-1.89-1.83A1.86,1.86,0,0,0,283.62,89.7Z" fill="none" stroke="#003a50" stroke-miterlimit="10"/><rect x="275.29" y="21.06" width="83.84" height="37.52" fill="none" stroke="#003a50" stroke-miterlimit="10"/><path d="M341.84,53.93H292.59A13.86,13.86,0,0,1,279,39.83v0a13.86,13.86,0,0,1,13.61-14.1h49.25a13.86,13.86,0,0,1,13.61,14.1v0A13.86,13.86,0,0,1,341.84,53.93Z" fill="none" stroke="#003a50" stroke-miterlimit="10"/><path d="M340.17,39.82a2,2,0,1,1,2,2A2,2,0,0,1,340.17,39.82Z" fill="none" stroke="#003a50" stroke-miterlimit="10"/><path d="M291.67-11h-15.8a2.3,2.3,0,0,0-2.3,2.3V6.59a2.31,2.31,0,0,0,2.3,2.31h15.8A2.31,2.31,0,0,0,294,6.59V-8.69A2.3,2.3,0,0,0,291.67-11Z" fill="none" stroke="#003a50" stroke-miterlimit="10"/><path d="M285.33-1a1.55,1.55,0,0,0-1.56-1.55A1.55,1.55,0,0,0,282.21-1,1.56,1.56,0,0,0,283.77.51,1.56,1.56,0,0,0,285.33-1Z" fill="none" stroke="#003a50" stroke-miterlimit="10"/><rect x="273.61" y="-26.53" width="22.8" height="47.59" fill="none" stroke="#003a50" stroke-miterlimit="10"/><path d="M328.78,88.15V72.36a2.3,2.3,0,0,0-2.31-2.31H311.19a2.3,2.3,0,0,0-2.3,2.31V88.15a2.31,2.31,0,0,0,2.3,2.31h15.28A2.31,2.31,0,0,0,328.78,88.15Z" fill="none" stroke="#003a50" stroke-miterlimit="10"/><path d="M318.83,81.81a1.56,1.56,0,1,0-1.55-1.55A1.55,1.55,0,0,0,318.83,81.81Z" fill="none" stroke="#003a50" stroke-miterlimit="10"/></g><rect x="301" y="71.86" width="40.87" height="21.5" fill="none" stroke="#003a50" stroke-miterlimit="10"/><rect x="62.58" y="154.36" width="81.75" height="13.62" fill="none" stroke="#003a50" stroke-miterlimit="10"/><polygon points="69.01 161.6 103.37 158.78 137.9 161.6 137.9 163.57 69.01 163.57 69.01 161.6" fill="none" stroke="#003a50" stroke-miterlimit="10"/><g clip-path="url(#clip-path)"><rect x="63.85" y="-12.85" width="81.75" height="13.62" fill="none" stroke="#003a50" stroke-miterlimit="10"/></g><rect x="62.58" y="136.3" width="81.75" height="13.62" fill="none" stroke="#003a50" stroke-miterlimit="10"/><polygon points="69.01 142.68 103.37 145.5 137.9 142.68 137.9 140.71 69.01 140.71 69.01 142.68" fill="none" stroke="#003a50" stroke-miterlimit="10"/><rect x="233.59" y="12.37" width="27.05" height="137.43" fill="none" stroke="#003a50" stroke-miterlimit="10"/><g clip-path="url(#clip-path)"><path d="M237.42,136.18a.79.79,0,0,1-.35-1.51,22.91,22.91,0,0,1,20.09,0,.8.8,0,0,1,.36,1.06.81.81,0,0,1-1.07.37,21.27,21.27,0,0,0-18.68,0A.72.72,0,0,1,237.42,136.18Z" fill="none" stroke="#003a50" stroke-miterlimit="10"/><path d="M237.42,131.76a.8.8,0,0,1-.35-1.52,22.91,22.91,0,0,1,20.09,0,.8.8,0,1,1-.71,1.43,21.27,21.27,0,0,0-18.68,0A.73.73,0,0,1,237.42,131.76Z" fill="none" stroke="#003a50" stroke-miterlimit="10"/><path d="M237.42,127.33a.8.8,0,0,1-.72-.44.81.81,0,0,1,.37-1.08,22.91,22.91,0,0,1,20.09,0,.8.8,0,0,1-.71,1.44,21.27,21.27,0,0,0-18.68,0A.72.72,0,0,1,237.42,127.33Z" fill="none" stroke="#003a50" stroke-miterlimit="10"/><path d="M237.42,122.9a.79.79,0,0,1-.35-1.51,22.91,22.91,0,0,1,20.09,0,.8.8,0,1,1-.71,1.43,21.27,21.27,0,0,0-18.68,0A.72.72,0,0,1,237.42,122.9Z" fill="none" stroke="#003a50" stroke-miterlimit="10"/><path d="M237.42,118.48a.8.8,0,0,1-.72-.44.81.81,0,0,1,.37-1.08,22.91,22.91,0,0,1,20.09,0,.8.8,0,0,1-.71,1.44,21.27,21.27,0,0,0-18.68,0A.72.72,0,0,1,237.42,118.48Z" fill="none" stroke="#003a50" stroke-miterlimit="10"/><path d="M237.42,114.05a.79.79,0,0,1-.35-1.51,22.91,22.91,0,0,1,20.09,0,.8.8,0,1,1-.71,1.43,21.27,21.27,0,0,0-18.68,0A.72.72,0,0,1,237.42,114.05Z" fill="none" stroke="#003a50" stroke-miterlimit="10"/><path d="M237.42,140.61a.8.8,0,0,1-.35-1.52,22.91,22.91,0,0,1,20.09,0,.81.81,0,0,1,.36,1.07.79.79,0,0,1-1.07.36,21.27,21.27,0,0,0-18.68,0A.73.73,0,0,1,237.42,140.61Z" fill="none" stroke="#003a50" stroke-miterlimit="10"/><path d="M237.42,145a.79.79,0,0,1-.35-1.51,22.91,22.91,0,0,1,20.09,0,.8.8,0,1,1-.71,1.43,21.27,21.27,0,0,0-18.68,0A.72.72,0,0,1,237.42,145Z" fill="none" stroke="#003a50" stroke-miterlimit="10"/></g><line x1="247.11" y1="149.79" x2="247.11" y2="8.53" fill="none" stroke="#003a50" stroke-miterlimit="10"/><rect x="299.84" y="269.07" width="59.3" height="26.08" fill="none" stroke="#003a50" stroke-miterlimit="10"/><g clip-path="url(#clip-path)"><path d="M326.73,291.46a.77.77,0,0,0,.43.69.76.76,0,0,0,1-.35,22.06,22.06,0,0,0,0-19.37.76.76,0,0,0-1-.35.77.77,0,0,0-.36,1,20.44,20.44,0,0,1,0,18A.84.84,0,0,0,326.73,291.46Z" fill="none" stroke="#003a50" stroke-miterlimit="10"/><path d="M331,291.46a.77.77,0,0,0,1.46.34,22.06,22.06,0,0,0,0-19.37.78.78,0,0,0-1-.35.77.77,0,0,0-.35,1,20.53,20.53,0,0,1,0,18A.71.71,0,0,0,331,291.46Z" fill="none" stroke="#003a50" stroke-miterlimit="10"/><path d="M335.27,291.46a.77.77,0,0,0,1.46.34,22.06,22.06,0,0,0,0-19.37.78.78,0,0,0-1-.35.76.76,0,0,0-.35,1,20.53,20.53,0,0,1,0,18A.71.71,0,0,0,335.27,291.46Z" fill="none" stroke="#003a50" stroke-miterlimit="10"/><path d="M339.53,291.46a.77.77,0,0,0,.43.69.76.76,0,0,0,1-.35,22.06,22.06,0,0,0,0-19.37.76.76,0,0,0-1-.35.77.77,0,0,0-.36,1,20.44,20.44,0,0,1,0,18A.84.84,0,0,0,339.53,291.46Z" fill="none" stroke="#003a50" stroke-miterlimit="10"/><path d="M343.8,291.46a.77.77,0,0,0,1.46.34,22.06,22.06,0,0,0,0-19.37.78.78,0,0,0-1-.35.77.77,0,0,0-.35,1,20.53,20.53,0,0,1,0,18A.71.71,0,0,0,343.8,291.46Z" fill="none" stroke="#003a50" stroke-miterlimit="10"/><path d="M348.07,291.46a.77.77,0,0,0,1.46.34,22.06,22.06,0,0,0,0-19.37.78.78,0,0,0-1-.35.77.77,0,0,0-.35,1,20.53,20.53,0,0,1,0,18A.71.71,0,0,0,348.07,291.46Z" fill="none" stroke="#003a50" stroke-miterlimit="10"/><path d="M322.47,291.46a.77.77,0,0,0,1.46.34,22.06,22.06,0,0,0,0-19.37.78.78,0,0,0-1-.35.76.76,0,0,0-.35,1,20.53,20.53,0,0,1,0,18A.71.71,0,0,0,322.47,291.46Z" fill="none" stroke="#003a50" stroke-miterlimit="10"/><path d="M318.2,291.46a.77.77,0,0,0,1.46.34,22.06,22.06,0,0,0,0-19.37.78.78,0,0,0-1-.35.77.77,0,0,0-.35,1,20.53,20.53,0,0,1,0,18A.71.71,0,0,0,318.2,291.46Z" fill="none" stroke="#003a50" stroke-miterlimit="10"/></g><line x1="299.84" y1="282.12" x2="359.14" y2="282.12" fill="none" stroke="#003a50" stroke-miterlimit="10"/><rect x="339.11" y="213.33" width="20.11" height="55.74" fill="none" stroke="#003a50" stroke-miterlimit="10"/><g clip-path="url(#clip-path)"><path d="M356.37,240.69a.58.58,0,0,0,.53-.36.67.67,0,0,0-.26-.87,15.71,15.71,0,0,0-14.94,0,.69.69,0,0,0-.27.87.56.56,0,0,0,.79.29,14.66,14.66,0,0,1,13.89,0A.51.51,0,0,0,356.37,240.69Z" fill="none" stroke="#003a50" stroke-miterlimit="10"/><path d="M356.37,237.09a.6.6,0,0,0,.53-.36.67.67,0,0,0-.26-.87,15.71,15.71,0,0,0-14.94,0,.68.68,0,0,0-.27.87.56.56,0,0,0,.79.29,14.66,14.66,0,0,1,13.89,0A.51.51,0,0,0,356.37,237.09Z" fill="none" stroke="#003a50" stroke-miterlimit="10"/><path d="M356.37,233.49a.59.59,0,0,0,.53-.37.66.66,0,0,0-.26-.86,15.63,15.63,0,0,0-14.94,0,.67.67,0,0,0-.27.86.56.56,0,0,0,.79.3,14.58,14.58,0,0,1,13.89,0A.51.51,0,0,0,356.37,233.49Z" fill="none" stroke="#003a50" stroke-miterlimit="10"/><path d="M356.37,229.88a.58.58,0,0,0,.53-.36.68.68,0,0,0-.26-.87,15.71,15.71,0,0,0-14.94,0,.69.69,0,0,0-.27.87.57.57,0,0,0,.79.3,14.58,14.58,0,0,1,13.89,0A.62.62,0,0,0,356.37,229.88Z" fill="none" stroke="#003a50" stroke-miterlimit="10"/><path d="M356.37,226.28a.58.58,0,0,0,.53-.36.67.67,0,0,0-.26-.87,15.71,15.71,0,0,0-14.94,0,.69.69,0,0,0-.27.87.56.56,0,0,0,.79.29,14.66,14.66,0,0,1,13.89,0A.51.51,0,0,0,356.37,226.28Z" fill="none" stroke="#003a50" stroke-miterlimit="10"/><path d="M356.37,222.68a.6.6,0,0,0,.53-.36.67.67,0,0,0-.26-.87,15.71,15.71,0,0,0-14.94,0,.68.68,0,0,0-.27.87.56.56,0,0,0,.79.29,14.66,14.66,0,0,1,13.89,0A.51.51,0,0,0,356.37,222.68Z" fill="none" stroke="#003a50" stroke-miterlimit="10"/><path d="M356.37,244.3a.59.59,0,0,0,.53-.37.68.68,0,0,0-.26-.87,15.71,15.71,0,0,0-14.94,0,.69.69,0,0,0-.27.87.56.56,0,0,0,.79.3,14.58,14.58,0,0,1,13.89,0A.51.51,0,0,0,356.37,244.3Z" fill="none" stroke="#003a50" stroke-miterlimit="10"/><path d="M356.37,247.9a.59.59,0,0,0,.53-.37.66.66,0,0,0-.26-.86,15.63,15.63,0,0,0-14.94,0,.67.67,0,0,0-.27.86.56.56,0,0,0,.79.3,14.58,14.58,0,0,1,13.89,0A.51.51,0,0,0,356.37,247.9Z" fill="none" stroke="#003a50" stroke-miterlimit="10"/></g><line x1="349.17" y1="269.08" x2="349.17" y2="213.33" fill="none" stroke="#003a50" stroke-miterlimit="10"/><g clip-path="url(#clip-path)"><path d="M351.88,78.13a2.58,2.58,0,0,0,2.38-1.6h1.46l3.88,2.32-1.76,2.86-2-1.1v9h-8.44v-9l-2,1.1-1.76-2.86,3.91-2.32h2A2.62,2.62,0,0,0,351.88,78.13Z" fill="none" stroke="#003a50" stroke-miterlimit="10"/></g><rect x="341.87" y="72.78" width="19.47" height="20.58" fill="none" stroke="#003a50" stroke-miterlimit="10"/><g clip-path="url(#clip-path)"><path d="M206.17,229.2a.94.94,0,0,0-.72,1.14A10.41,10.41,0,1,1,185.16,235a.95.95,0,1,0-1.85.42,12.31,12.31,0,1,0,24-5.5A1,1,0,0,0,206.17,229.2Z" fill="none" stroke="#003a50" stroke-miterlimit="10"/><path d="M164.51,236.54a1,1,0,0,0-1.32-.26,10.41,10.41,0,1,1-11.72-17.2.95.95,0,0,0-1.07-1.57,12.31,12.31,0,0,0,13.86,20.35A1,1,0,0,0,164.51,236.54Z" fill="none" stroke="#003a50" stroke-miterlimit="10"/><path d="M162.62,200.74a1,1,0,0,0,1-.89,10.41,10.41,0,1,1,20.78,1.23,1,1,0,1,0,1.9.11,12.31,12.31,0,0,0-24.57-1.45A1,1,0,0,0,162.62,200.74Z" fill="none" stroke="#003a50" stroke-miterlimit="10"/><path d="M195.45,241.74a9.58,9.58,0,0,0,9.06-11.69l-1.54-6.7a2.67,2.67,0,0,0-3.2-2l-10.15,2.32a18,18,0,0,1-4.53,7.13l.72,3.17A9.82,9.82,0,0,0,195.45,241.74Z" fill="none" stroke="#003a50" stroke-miterlimit="10"/><path d="M163.13,235.31l1.75-1.21a18,18,0,0,1-10.3-16.1l-1.9,1.3a9.8,9.8,0,0,0-3.75,11.81A9.59,9.59,0,0,0,163.13,235.31Z" fill="none" stroke="#003a50" stroke-miterlimit="10"/><path d="M183.4,203.39l.09-1.48a9.79,9.79,0,0,0-7-10.18,9.56,9.56,0,0,0-12,8.67l-.09,1.39a18,18,0,0,1,19,1.6Z" fill="none" stroke="#003a50" stroke-miterlimit="10"/><path d="M185.09,230.78a18,18,0,0,0,4.53-7.13,12.54,12.54,0,0,0,.45-1.51,18,18,0,0,0-6.68-18.75,17.62,17.62,0,0,0-6.46-3.06,18,18,0,0,0-21.84,13.14,16.81,16.81,0,0,0-.51,4.53,18,18,0,0,0,10.3,16.1,17.35,17.35,0,0,0,3.38,1.21A18,18,0,0,0,185.09,230.78Z" fill="none" stroke="#003a50" stroke-miterlimit="10"/><path d="M62.85,345.28a2.35,2.35,0,0,1-2.52,2.13H57.15a2.35,2.35,0,0,1-2.52-2.13v-36.4h85.61V345a2.36,2.36,0,0,1-2.52,2.14h-3.18A2.35,2.35,0,0,1,132,345V312.62H62.85Z" fill="none" stroke="#003a50" stroke-miterlimit="10"/><path d="M99.18,260.52v31h34.56V258.84H100.85A1.68,1.68,0,0,0,99.18,260.52Z" fill="none" stroke="#003a50" stroke-miterlimit="10"/><path d="M64.55,260.34V291.5H99.11V260.34a1.5,1.5,0,0,0-1.5-1.49H66.05A1.5,1.5,0,0,0,64.55,260.34Z" fill="none" stroke="#003a50" stroke-miterlimit="10"/><path d="M133.74,258.85a2.35,2.35,0,0,1,2.51-2.14h3.19a2.35,2.35,0,0,1,2.51,2.14v36.39H56.33V259.17A2.36,2.36,0,0,1,58.85,257H62a2.36,2.36,0,0,1,2.52,2.14V291.5h69.19Z" fill="none" stroke="#003a50" stroke-miterlimit="10"/></g><rect x="64.55" y="284.51" width="69.19" height="6.98" fill="none" stroke="#003a50" stroke-miterlimit="10"/><g clip-path="url(#clip-path)"><rect x="293.9" y="308.44" width="27.06" height="27.06" fill="none" stroke="#003a50" stroke-miterlimit="10"/><rect x="256.71" y="305.88" width="75.16" height="29.62" fill="none" stroke="#003a50" stroke-miterlimit="10"/><rect x="331.87" y="305.88" width="28.24" height="105.26" fill="none" stroke="#003a50" stroke-miterlimit="10"/></g><rect x="244.17" y="267.82" width="26.69" height="28.24" fill="none" stroke="#003a50" stroke-miterlimit="10"/><g clip-path="url(#clip-path)"><path d="M253.57,280.07V271.4h6.74v8.67a2.78,2.78,0,0,1-2.77,2.78h-1.19A2.78,2.78,0,0,1,253.57,280.07Z" fill="none" stroke="#003a50" stroke-miterlimit="10"/></g><polyline points="259.67 291.13 256.94 291.13 254.21 291.13" fill="none" stroke="#003a50" stroke-miterlimit="10"/><line x1="256.94" y1="282.85" x2="256.94" y2="291.13" fill="none" stroke="#003a50" stroke-miterlimit="10"/><rect x="202.78" y="267.82" width="27.5" height="28.24" fill="none" stroke="#003a50" stroke-miterlimit="10"/><g clip-path="url(#clip-path)"><circle cx="222.81" cy="275.42" r="3.75" fill="none" stroke="#003a50" stroke-miterlimit="10"/><circle cx="210.29" cy="275.42" r="3.75" fill="none" stroke="#003a50" stroke-miterlimit="10"/><circle cx="222.81" cy="287.61" r="3.75" fill="none" stroke="#003a50" stroke-miterlimit="10"/><circle cx="210.29" cy="287.61" r="3.75" fill="none" stroke="#003a50" stroke-miterlimit="10"/></g><polyline points="292.54 260.9 292.54 256.22 292.54 251.56" fill="none" stroke="#003a50" stroke-miterlimit="10"/><line x1="283.18" y1="256.21" x2="292.54" y2="256.21" fill="none" stroke="#003a50" stroke-miterlimit="10"/><g clip-path="url(#clip-path)"><rect x="273.64" y="245.91" width="14.9" height="20.66" rx="3.24" fill="none" stroke="#003a50" stroke-miterlimit="10"/><path d="M282,256.21a1.67,1.67,0,1,0,1.67-1.67A1.67,1.67,0,0,0,282,256.21Z" fill="none" stroke="#003a50" stroke-miterlimit="10"/></g><rect x="270.86" y="213.22" width="26.74" height="26.74" fill="none" stroke="#003a50" stroke-miterlimit="10"/><line x1="284.23" y1="218.75" x2="284.23" y2="234.44" fill="none" stroke="#003a50" stroke-miterlimit="10"/><line x1="292.08" y1="226.59" x2="276.38" y2="226.59" fill="none" stroke="#003a50" stroke-miterlimit="10"/><line x1="289.78" y1="221.04" x2="278.69" y2="232.14" fill="none" stroke="#003a50" stroke-miterlimit="10"/><line x1="289.78" y1="232.14" x2="278.69" y2="221.05" fill="none" stroke="#003a50" stroke-miterlimit="10"/><rect x="270.89" y="239.96" width="27.09" height="64.53" fill="none" stroke="#003a50" stroke-miterlimit="10"/><rect x="188.02" y="267.82" width="82.84" height="28.24" fill="none" stroke="#003a50" stroke-miterlimit="10"/><g clip-path="url(#clip-path)"><rect x="216.58" y="-27.34" width="26.69" height="28.24" fill="none" stroke="#003a50" stroke-miterlimit="10"/><rect x="189.05" y="-27.34" width="27.5" height="28.24" fill="none" stroke="#003a50" stroke-miterlimit="10"/><rect x="243.27" y="-55.2" width="27.09" height="56.09" fill="none" stroke="#003a50" stroke-miterlimit="10"/><rect x="177.13" y="16.59" width="54.68" height="1.94" rx="0.89" fill="none" stroke="#003a50" stroke-miterlimit="10"/><path d="M196,38.55a10.23,10.23,0,0,0,16.2,11,.78.78,0,0,0,.12-1.1.79.79,0,0,0-1.12-.12,8.63,8.63,0,0,1-13.5-9.81Z" fill="none" stroke="#003a50" stroke-miterlimit="10"/><rect x="175.37" y="14.98" width="58.22" height="23.57" rx="2.29" fill="none" stroke="#003a50" stroke-miterlimit="10"/><path d="M224.11,27.66a3.82,3.82,0,1,1,5.4,0A3.82,3.82,0,0,1,224.11,27.66Z" fill="none" stroke="#003a50" stroke-miterlimit="10"/><path d="M224.4,27.91c.07-.7-.2-1.41.48-2.1,1-1,2.09.06,3.1-.95s-.06-2.08,1-3.1" fill="none" stroke="#003a50" stroke-miterlimit="10"/><path d="M199.26,38.55a7.37,7.37,0,1,0,13.57,0Z" fill="none" stroke="#003a50" stroke-miterlimit="10"/></g><rect x="155.97" y="15.31" width="18.31" height="18.31" fill="none" stroke="#003a50" stroke-miterlimit="10"/><g clip-path="url(#clip-path)"><path d="M159.88,29.71a7.42,7.42,0,1,0,0-10.5A7.42,7.42,0,0,0,159.88,29.71Z" fill="none" stroke="#003a50" stroke-miterlimit="10"/><path d="M159.38,29.15c1.36-.13,2.75.4,4.08-.94,2-2-.11-4.05,1.86-6s4.05.11,6-1.86" fill="none" stroke="#003a50" stroke-miterlimit="10"/></g><rect x="45.11" y="15.31" width="18.31" height="18.31" fill="none" stroke="#003a50" stroke-miterlimit="10"/><g clip-path="url(#clip-path)"><path d="M49,29.71a7.42,7.42,0,1,0,0-10.5A7.42,7.42,0,0,0,49,29.71Z" fill="none" stroke="#003a50" stroke-miterlimit="10"/><path d="M48.51,29.15c1.37-.13,2.76.4,4.09-.94,2-2-.11-4.05,1.86-6s4,.11,6-1.86" fill="none" stroke="#003a50" stroke-miterlimit="10"/></g><rect x="68.47" y="15.31" width="82.4" height="91.55" fill="none" stroke="#003a50" stroke-miterlimit="10"/><g clip-path="url(#clip-path)"><path d="M76.54,99h66.25a1.68,1.68,0,0,0,1.68-1.69V42.7H74.86V97.31A1.68,1.68,0,0,0,76.54,99Z" fill="none" stroke="#003a50" stroke-miterlimit="10"/><path d="M112,39.78h31.12a1.6,1.6,0,0,0,1.6-1.6V22.9a1.6,1.6,0,0,0-1.6-1.59H112a1.6,1.6,0,0,0-1.6,1.59V38.18A1.6,1.6,0,0,0,112,39.78Z" fill="none" stroke="#003a50" stroke-miterlimit="10"/><path d="M76.25,39.78h31.12a1.6,1.6,0,0,0,1.6-1.6V22.9a1.6,1.6,0,0,0-1.6-1.59H76.25a1.6,1.6,0,0,0-1.6,1.59V38.18A1.6,1.6,0,0,0,76.25,39.78Z" fill="none" stroke="#003a50" stroke-miterlimit="10"/></g><line x1="74.65" y1="53.88" x2="144.68" y2="53.88" fill="none" stroke="#003a50" stroke-miterlimit="10"/><g clip-path="url(#clip-path)"><path d="M193.76,152.06v-2.69c0-18.69,16.35-33.83,36.52-33.83v36.52" fill="none" stroke="#003a50" stroke-miterlimit="10" stroke-width="1.6"/><path d="M307.53,154.19v2.24c0,15.59,13.64,28.22,30.46,28.22V154.19" fill="none" stroke="#003a50" stroke-miterlimit="10" stroke-width="1.6"/><path d="M391.44,200.2h3.08c21.42,0,38.77-18.73,38.77-41.84H391.44" fill="none" stroke="#003a50" stroke-miterlimit="10" stroke-width="1.6"/></g><line x1="350.2" y1="203.97" x2="315.48" y2="203.97" fill="none" stroke="#003a50" stroke-miterlimit="10" stroke-width="1.6"/><rect x="358.46" y="211.02" width="5.75" height="98.24" fill="#003a50"/><rect x="296.96" y="211.02" width="5.75" height="94.33" fill="#003a50"/><rect x="260.49" y="57.73" width="5.75" height="94.33" fill="#003a50"/><rect x="269.77" width="5.68" height="39.41" fill="#003a50"/><rect x="358.12" y="57.87" width="5.75" height="11.32" fill="#003a50"/><rect x="360.99" y="64.02" width="5.75" height="88.04" fill="#003a50"/><rect x="338.78" y="208.15" width="47.83" height="5.75" fill="#003a50"/><rect x="337.14" y="149.18" width="49.48" height="5.75" fill="#003a50"/><rect x="365.78" y="117.02" width="22.83" height="8.45" fill="#003a50"/><rect x="363.87" y="71.1" width="7.74" height="48.42" fill="#003a50"/><rect x="229.4" y="149.18" width="78.88" height="5.75" fill="#003a50"/><rect x="33.9" y="149.18" width="160.64" height="5.75" fill="#003a50"/><rect x="33.11" y="128.05" width="13.67" height="66.97" fill="#003a50"/><rect x="270.36" y="208.15" width="37.17" height="5.75" fill="#003a50"/><rect x="361.34" y="277.2" width="19.31" height="5.75" fill="#003a50"/><rect x="378.52" y="199.36" width="14.75" height="109.9" fill="#003a50"/><rect x="378.52" y="57.88" width="14.75" height="101.27" fill="#003a50"/><rect x="32.28" width="243.18" height="14.99" fill="#003a50"/><polygon points="260.78 57.75 260.78 72.78 388.52 72.78 388.53 57.88 275.46 57.88 275.46 57.75 260.78 57.75" fill="#003a50"/><polygon points="260.5 0 260.5 72.78 275.53 72.78 275.53 57.87 275.46 57.87 275.46 0 260.5 0" fill="#003a50"/><rect x="35.45" y="294.76" width="351.33" height="14.5" fill="#003a50"/><rect x="13.53" y="267.69" width="27.42" height="41.57" fill="#003a50"/><g clip-path="url(#clip-path)"><rect x="13.53" y="267.69" width="27.42" height="87.78" fill="none" stroke="#003a50" stroke-miterlimit="10" stroke-width="2.09"/></g><rect x="13.53" y="108.36" width="27.42" height="87.78" fill="#003a50"/><rect x="13.53" y="108.36" width="27.42" height="87.78" fill="none" stroke="#003a50" stroke-miterlimit="10" stroke-width="2.09"/><rect x="13.53" width="27.42" height="36.13" fill="#003a50"/><g clip-path="url(#clip-path)"><rect x="13.53" y="-51.65" width="27.42" height="87.78" fill="none" stroke="#003a50" stroke-miterlimit="10" stroke-width="2.09"/></g><rect x="1.91" y="267.69" width="39.03" height="14.21" fill="#003a50"/><g clip-path="url(#clip-path)"><rect x="1.91" y="267.69" width="39.03" height="14.21" fill="none" stroke="#003a50" stroke-miterlimit="10" stroke-width="2.09"/></g><rect x="1.91" y="181.92" width="39.03" height="14.21" fill="#003a50"/><g clip-path="url(#clip-path)"><rect x="1.91" y="181.92" width="39.03" height="14.21" fill="none" stroke="#003a50" stroke-miterlimit="10" stroke-width="2.09"/></g><rect x="1.91" y="108.35" width="39.03" height="14.21" fill="#003a50"/><g clip-path="url(#clip-path)"><rect x="1.91" y="108.35" width="39.03" height="14.21" fill="none" stroke="#003a50" stroke-miterlimit="10" stroke-width="2.09"/></g><rect x="1.91" y="21.92" width="39.03" height="14.21" fill="#003a50"/><g clip-path="url(#clip-path)"><rect x="1.91" y="21.92" width="39.03" height="14.21" fill="none" stroke="#003a50" stroke-miterlimit="10" stroke-width="2.09"/></g><rect x="12.11" y="267.69" width="28.83" height="41.57" fill="#003a50"/><g clip-path="url(#clip-path)"><rect x="12.11" y="267.69" width="28.83" height="87.78" fill="none" stroke="#003a50" stroke-miterlimit="10" stroke-width="2.09"/></g><rect x="12.11" y="108.36" width="28.83" height="87.78" fill="#003a50"/><rect x="12.11" y="108.36" width="28.83" height="87.78" fill="none" stroke="#003a50" stroke-miterlimit="10" stroke-width="2.09"/><rect x="10.77" width="30.17" height="36.13" fill="#003a50"/><g clip-path="url(#clip-path)"><rect x="10.77" y="-51.65" width="30.17" height="87.78" fill="none" stroke="#003a50" stroke-miterlimit="10" stroke-width="2.09"/><path d="M355.31,187.17h-9.93v-1.56a2.79,2.79,0,0,1,.58-1.75,3.87,3.87,0,0,1,1.44-1.19c.5-.26,1.12-.55,1.87-.87s1.32-.55,1.88-.77a4.22,4.22,0,0,0,1.44-.91,1.83,1.83,0,0,0,.58-1.31c0-1.25-.89-1.88-2.67-1.88s-2.67.72-2.67,2.16v.4h-2.11v-.4a3.62,3.62,0,0,1,1.26-3,5.4,5.4,0,0,1,3.51-1,5.68,5.68,0,0,1,3.51,1,3.29,3.29,0,0,1,1.27,2.75,3.17,3.17,0,0,1-.55,1.84,4.39,4.39,0,0,1-1.41,1.3,16.56,16.56,0,0,1-1.83.93q-.94.42-1.83.75a5.26,5.26,0,0,0-1.4.75,1.22,1.22,0,0,0-.57,1h7.63Z" fill="#003a50"/><path d="M357.41,187a1,1,0,0,1-.33-.8,1,1,0,0,1,.33-.81,1.23,1.23,0,0,1,.87-.3,1.2,1.2,0,0,1,.86.3,1,1,0,0,1,.33.81,1,1,0,0,1-.33.8,1.2,1.2,0,0,1-.86.3A1.23,1.23,0,0,1,357.41,187Z" fill="#003a50"/><path d="M361.54,183.82h2.21s0,.07,0,.18a2.75,2.75,0,0,0,.64.92,2.36,2.36,0,0,0,.76.41,3.12,3.12,0,0,0,1.05.17,2.67,2.67,0,0,0,2.24-1.07,4.29,4.29,0,0,0,.8-2.7h0a2.26,2.26,0,0,1-.44.46,2.85,2.85,0,0,1-.6.4,3.86,3.86,0,0,1-.95.33,6.26,6.26,0,0,1-1.23.13,5,5,0,0,1-3.36-1.13,3.73,3.73,0,0,1,.05-5.72,5.49,5.49,0,0,1,3.6-1.11,4.81,4.81,0,0,1,3.87,1.55,6.36,6.36,0,0,1,1.32,4.27v.4a6.62,6.62,0,0,1-1.37,4.31,4.69,4.69,0,0,1-3.88,1.71,5.91,5.91,0,0,1-2.17-.37,3.75,3.75,0,0,1-1.48-1A3.33,3.33,0,0,1,361.54,183.82Zm2.78-3.16a3.58,3.58,0,0,0,3.94,0,2,2,0,0,0,0-3.15,3.21,3.21,0,0,0-2-.58,3.17,3.17,0,0,0-2,.58,2,2,0,0,0,0,3.15Z" fill="#003a50"/><path d="M318.91,247.9H309v-1.56a2.74,2.74,0,0,1,.58-1.74,4,4,0,0,1,1.44-1.2c.5-.25,1.12-.54,1.87-.86s1.33-.56,1.88-.77a4.24,4.24,0,0,0,1.44-.92,1.76,1.76,0,0,0,.58-1.3q0-1.89-2.67-1.89t-2.67,2.16v.41h-2.11v-.41a3.62,3.62,0,0,1,1.26-3,5.38,5.38,0,0,1,3.51-1,5.66,5.66,0,0,1,3.52,1,3.3,3.3,0,0,1,1.27,2.75,3.14,3.14,0,0,1-.56,1.83,4.29,4.29,0,0,1-1.4,1.31c-.6.34-1.21.65-1.84.93s-1.23.52-1.83.74a5.56,5.56,0,0,0-1.4.75,1.22,1.22,0,0,0-.56,1h7.62Z" fill="#003a50"/><path d="M321,247.77a1,1,0,0,1-.32-.81,1,1,0,0,1,.32-.8,1.41,1.41,0,0,1,1.74,0,1.06,1.06,0,0,1,.32.8,1,1,0,0,1-.32.81,1.41,1.41,0,0,1-1.74,0Z" fill="#003a50"/><path d="M331.12,237.84H325.3V236h8.86v1.85l-4.53,2.65v.06h1.28a3.87,3.87,0,0,1,2.79,1,3.51,3.51,0,0,1,1.06,2.66,3.37,3.37,0,0,1-1.33,2.83,7,7,0,0,1-7.24,0,3.37,3.37,0,0,1-1.33-2.86v-.32H327v.32c0,1.36.94,2,2.84,2s2.84-.66,2.84-2-.95-2-2.84-2h-3.27v-1.67l4.58-2.69Z" fill="#003a50"/><path d="M322.57,102.08h-5.82v-1.84h8.86v1.84l-4.53,2.65v.06h1.28a3.87,3.87,0,0,1,2.79,1,3.49,3.49,0,0,1,1.06,2.66,3.35,3.35,0,0,1-1.33,2.83,7,7,0,0,1-7.24,0,3.36,3.36,0,0,1-1.33-2.86v-.32h2.11v.32c0,1.36.94,2,2.84,2s2.84-.66,2.84-2-1-2-2.84-2H318v-1.67l4.58-2.68Z" fill="#003a50"/><path d="M328.31,112a1,1,0,0,1-.33-.8,1,1,0,0,1,.33-.81,1.23,1.23,0,0,1,.87-.3,1.2,1.2,0,0,1,.86.3,1,1,0,0,1,.33.81,1,1,0,0,1-.33.8,1.2,1.2,0,0,1-.86.3A1.23,1.23,0,0,1,328.31,112Z" fill="#003a50"/><path d="M341.93,103.59h-2.21s0-.06,0-.17a2.36,2.36,0,0,0-.21-.44,2.4,2.4,0,0,0-.39-.5,1.73,1.73,0,0,0-.71-.41,3,3,0,0,0-1-.17,2.52,2.52,0,0,0-2.15,1,4.44,4.44,0,0,0-.76,2.69h.05a2,2,0,0,1,.44-.44,4.86,4.86,0,0,1,.61-.36,4,4,0,0,1,.95-.3,5.49,5.49,0,0,1,1.22-.13,5.05,5.05,0,0,1,3.37,1.11,3.51,3.51,0,0,1,1.3,2.8,3.59,3.59,0,0,1-1.36,2.91,5.55,5.55,0,0,1-3.6,1.1,4.81,4.81,0,0,1-3.87-1.54,6.38,6.38,0,0,1-1.32-4.27v-.41a6.85,6.85,0,0,1,1.32-4.31,4.52,4.52,0,0,1,3.8-1.71,5.66,5.66,0,0,1,2.13.37,3.83,3.83,0,0,1,1.43.94A3.46,3.46,0,0,1,341.93,103.59Zm-2.51,3.15a3.65,3.65,0,0,0-3.95,0,2,2,0,0,0,0,3.15,3.21,3.21,0,0,0,2,.58,3.26,3.26,0,0,0,2-.58,1.89,1.89,0,0,0,.77-1.57A1.86,1.86,0,0,0,339.42,106.74Z" fill="#003a50"/><path d="M325.24,12.38h-2.11V9.73h-7V7.88l6.3-7.41h2.79V7.88h1.59V9.73h-1.59Zm-2.11-4.5V2.56h-.07l-4.47,5.27v0Z" fill="#003a50"/><path d="M328.52,12.24a1,1,0,0,1-.33-.8,1,1,0,0,1,.33-.81,1.23,1.23,0,0,1,.87-.3,1.2,1.2,0,0,1,.86.3,1,1,0,0,1,.33.81,1,1,0,0,1-.33.8,1.2,1.2,0,0,1-.86.3A1.23,1.23,0,0,1,328.52,12.24Z" fill="#003a50"/><path d="M340.85,12.38h-2.11V9.73h-7V7.88L338.06.47h2.79V7.88h1.6V9.73h-1.6Zm-2.11-4.5V2.56h-.07L334.2,7.83v0Z" fill="#003a50"/><path d="M99.85,204.55l-2.48,1.95v-2.24L100.1,202H102V213.9H99.85Z" fill="#003a50"/><path d="M107.68,213.9h-2.35l5.41-10h-6.92V202h9.28v1.88Z" fill="#003a50"/><path d="M114.53,213.77a1,1,0,0,1-.32-.8,1.07,1.07,0,0,1,.32-.81,1.41,1.41,0,0,1,1.74,0,1.07,1.07,0,0,1,.32.81,1,1,0,0,1-.32.8,1.41,1.41,0,0,1-1.74,0Z" fill="#003a50"/><path d="M119.94,212.37a7.34,7.34,0,0,1,0-8.84,5.71,5.71,0,0,1,8.13,0,7.34,7.34,0,0,1,0,8.84,5.71,5.71,0,0,1-8.13,0Zm6.53-1.39a5.73,5.73,0,0,0,0-6.07,3.15,3.15,0,0,0-4.92,0,5.67,5.67,0,0,0,0,6.07,2.88,2.88,0,0,0,2.46,1.19A2.93,2.93,0,0,0,126.47,211Z" fill="#003a50"/><path d="M180.42,88.17l-2.49,2V87.88l2.74-2.27h1.86V97.52h-2.11Z" fill="#003a50"/><path d="M193.47,97.52h-2.11V94.87h-7V93l6.29-7.42h2.79V93h1.6v1.84h-1.6ZM191.36,93V87.7h-.07L186.82,93v0Z" fill="#003a50"/><path d="M196.75,97.39a1,1,0,0,1-.32-.81,1.07,1.07,0,0,1,.32-.81,1.41,1.41,0,0,1,1.74,0,1.07,1.07,0,0,1,.32.81,1,1,0,0,1-.32.81,1.45,1.45,0,0,1-1.74,0Z" fill="#003a50"/><path d="M209.33,96.75a7.75,7.75,0,0,1-7.36,0,2.94,2.94,0,0,1-1.37-2.56,2.66,2.66,0,0,1,.25-1.16,2.43,2.43,0,0,1,.66-.86,3.94,3.94,0,0,1,1.39-.77l.26-.07v-.09a3.51,3.51,0,0,1-.76-.29,2.88,2.88,0,0,1-.67-.44,2.24,2.24,0,0,1-.54-.76,2.38,2.38,0,0,1-.22-1,2.81,2.81,0,0,1,1.25-2.38,5.75,5.75,0,0,1,3.43-.9,5.84,5.84,0,0,1,3.43.9,2.82,2.82,0,0,1,1.24,2.38,2.5,2.5,0,0,1-.22,1,2,2,0,0,1-.55.74,3.72,3.72,0,0,1-1.2.68l-.22,0v.09l.28.07a4.41,4.41,0,0,1,1.4.77,2.82,2.82,0,0,1,.61.82,2.71,2.71,0,0,1,.27,1.2A2.94,2.94,0,0,1,209.33,96.75Zm-5.79-1.35a3.85,3.85,0,0,0,2.11.48,4,4,0,0,0,2.1-.47,1.6,1.6,0,0,0,0-2.7,4.95,4.95,0,0,0-4.21,0,1.52,1.52,0,0,0-.73,1.35A1.5,1.5,0,0,0,203.54,95.4Zm-.36-6.52a1.35,1.35,0,0,0,.64,1.19,4,4,0,0,0,3.65,0,1.35,1.35,0,0,0,.64-1.19,1.38,1.38,0,0,0-.65-1.2,3.25,3.25,0,0,0-1.81-.44,3.29,3.29,0,0,0-1.82.44A1.38,1.38,0,0,0,203.18,88.88Z" fill="#003a50"/><path d="M25.4,223.9a4.54,4.54,0,0,1-3.12,1,4.56,4.56,0,0,1-3.12-1,4,4,0,0,1,0-5.74,4.61,4.61,0,0,1,3.12-1,4.59,4.59,0,0,1,3.12,1,4,4,0,0,1,0,5.74Zm-1-4.6a3.52,3.52,0,0,0-2.14-.62,3.5,3.5,0,0,0-2.14.62,2.2,2.2,0,0,0,0,3.46,3.44,3.44,0,0,0,2.14.63,3.46,3.46,0,0,0,2.14-.63,2.2,2.2,0,0,0,0-3.46Z" fill="#003a50"/><path d="M26.39,215.57a.7.7,0,0,1-.57.23.71.71,0,0,1-.57-.23A.85.85,0,0,1,25,215a.87.87,0,0,1,.21-.61.75.75,0,0,1,.57-.23.73.73,0,0,1,.57.23.87.87,0,0,1,.21.61A.85.85,0,0,1,26.39,215.57Z" fill="#003a50"/><path d="M20.45,206v1.55a.37.37,0,0,0-.13,0,2,2,0,0,0-.31.15,2.33,2.33,0,0,0-.35.27,1.4,1.4,0,0,0-.29.5,2.09,2.09,0,0,0-.11.72,1.79,1.79,0,0,0,.72,1.52,3.19,3.19,0,0,0,1.9.53v0a1,1,0,0,1-.31-.31,3.19,3.19,0,0,1-.26-.42,3.25,3.25,0,0,1-.21-.68,4,4,0,0,1-.09-.85,3.55,3.55,0,0,1,.78-2.38,2.46,2.46,0,0,1,2-.92,2.52,2.52,0,0,1,2.05,1,3.87,3.87,0,0,1,.78,2.54,3.38,3.38,0,0,1-1.09,2.73,4.5,4.5,0,0,1-3,.93h-.29a4.83,4.83,0,0,1-3-.93A3.16,3.16,0,0,1,18,209.19a3.93,3.93,0,0,1,.27-1.5,2.73,2.73,0,0,1,.66-1A2.42,2.42,0,0,1,20.45,206Zm2.22,1.76a2.26,2.26,0,0,0-.41,1.4,2.21,2.21,0,0,0,.41,1.39,1.3,1.3,0,0,0,1.11.55,1.32,1.32,0,0,0,1.11-.54,2.6,2.6,0,0,0,0-2.8,1.4,1.4,0,0,0-2.22,0Z" fill="#003a50"/><path d="M25.4,66.24a4.57,4.57,0,0,1-3.12,1.05,4.57,4.57,0,0,1-3.12-1.05,4,4,0,0,1,0-5.73,4.57,4.57,0,0,1,3.12-1,4.57,4.57,0,0,1,3.12,1,4,4,0,0,1,0,5.73Zm-1-4.6A3.52,3.52,0,0,0,22.28,61a3.5,3.5,0,0,0-2.14.62,2.21,2.21,0,0,0,0,3.47,3.48,3.48,0,0,0,2.14.62,3.52,3.52,0,0,0,2.14-.62,2.21,2.21,0,0,0,0-3.47Z" fill="#003a50"/><path d="M26.39,57.92a.82.82,0,0,1-1.14,0,1,1,0,0,1,0-1.23.82.82,0,0,1,1.14,0,1,1,0,0,1,0,1.23Z" fill="#003a50"/><path d="M20.45,48.31v1.56s-.05,0-.13,0a1.85,1.85,0,0,0-.31.16,1.49,1.49,0,0,0-.35.27,1.32,1.32,0,0,0-.29.5,2,2,0,0,0-.11.71A1.78,1.78,0,0,0,20,53.05a3.12,3.12,0,0,0,1.9.54v0a1.28,1.28,0,0,1-.31-.31,3.28,3.28,0,0,1-.26-.43,3.14,3.14,0,0,1-.21-.67,4.12,4.12,0,0,1-.09-.86,3.57,3.57,0,0,1,.78-2.38,2.49,2.49,0,0,1,2-.92,2.52,2.52,0,0,1,2.05,1,3.91,3.91,0,0,1,.78,2.54,3.41,3.41,0,0,1-1.09,2.73,4.45,4.45,0,0,1-3,.94h-.29a4.77,4.77,0,0,1-3-.94A3.16,3.16,0,0,1,18,51.53a3.93,3.93,0,0,1,.27-1.5,2.61,2.61,0,0,1,.66-1A2.39,2.39,0,0,1,20.45,48.31Zm2.22,1.77a2.23,2.23,0,0,0-.41,1.39,2.26,2.26,0,0,0,.41,1.4,1.4,1.4,0,0,0,2.22,0,2.28,2.28,0,0,0,.41-1.4,2.32,2.32,0,0,0-.41-1.4,1.34,1.34,0,0,0-1.11-.54A1.3,1.3,0,0,0,22.67,50.08Z" fill="#003a50"/></g></svg>