<svg id="Слой_1" data-name="Слой 1" xmlns="http://www.w3.org/2000/svg" xmlns:xlink="http://www.w3.org/1999/xlink" viewBox="0 0 449.72 432.28"><defs><clipPath id="clip-path"><polygon points="0 0.06 0 428.24 10.21 428.24 10.21 432.23 394.37 432.23 394.37 389.62 435.12 389.62 435.12 343.13 449.72 343.13 449.72 13.11 443.24 13.11 443.24 0.06 0 0.06" fill="none"/></clipPath></defs><rect x="441.61" y="42.18" width="8.11" height="291.33" fill="#fff"/><polygon points="392.71 42.19 41.4 42.19 41.4 419.65 392.71 419.65 392.71 333.52 441.61 333.52 441.61 42.19 392.71 42.19" fill="#fff"/><rect x="41.4" y="421.18" width="351.31" height="11.04" fill="#fff"/><g clip-path="url(#clip-path)"><line x1="23.79" y1="19.23" x2="23.79" y2="1360.35" fill="none" stroke="#003a50" stroke-miterlimit="10"/><line x1="40.41" y1="42.18" x2="40.41" y2="1360.35" fill="none" stroke="#003a50" stroke-miterlimit="10"/><line x1="39.88" y1="42.18" x2="848.96" y2="42.18" fill="none" stroke="#003a50" stroke-miterlimit="10"/><line x1="18.45" y1="23.69" x2="871.41" y2="23.69" fill="none" stroke="#003a50" stroke-miterlimit="10"/></g><rect x="29.32" y="128.34" width="4.55" height="71.03" fill="#fff"/><rect x="29.32" y="128.34" width="4.55" height="71.03" fill="none" stroke="#003a50" stroke-miterlimit="10"/><line x1="31.6" y1="199.37" x2="31.6" y2="128.34" fill="none" stroke="#003a50" stroke-miterlimit="10"/><rect x="29.32" y="194.87" width="4.55" height="4.49" fill="#fff"/><rect x="29.32" y="194.87" width="4.55" height="4.49" fill="none" stroke="#003a50" stroke-miterlimit="10"/><rect x="29.32" y="128.33" width="4.55" height="4.49" fill="#fff"/><rect x="29.32" y="128.33" width="4.55" height="4.49" fill="none" stroke="#003a50" stroke-miterlimit="10"/><rect x="29.32" y="163.85" width="4.55" height="4.49" fill="#fff"/><rect x="29.32" y="163.85" width="4.55" height="4.49" fill="none" stroke="#003a50" stroke-miterlimit="10"/><rect x="29.32" y="288.13" width="4.55" height="69.54" fill="#fff"/><rect x="29.32" y="288.13" width="4.55" height="69.54" fill="none" stroke="#003a50" stroke-miterlimit="10"/><line x1="31.6" y1="357.67" x2="31.6" y2="288.13" fill="none" stroke="#003a50" stroke-miterlimit="10"/><rect x="29.32" y="353.28" width="4.55" height="4.4" fill="#fff"/><rect x="29.32" y="353.28" width="4.55" height="4.4" fill="none" stroke="#003a50" stroke-miterlimit="10"/><rect x="29.32" y="288.13" width="4.55" height="4.4" fill="#fff"/><rect x="29.32" y="288.13" width="4.55" height="4.4" fill="none" stroke="#003a50" stroke-miterlimit="10"/><rect x="29.32" y="322.9" width="4.55" height="4.4" fill="#fff"/><rect x="29.32" y="322.9" width="4.55" height="4.4" fill="none" stroke="#003a50" stroke-miterlimit="10"/><rect x="299.88" y="30.26" width="71.83" height="4.55" fill="#fff"/><rect x="299.88" y="30.26" width="71.83" height="4.55" fill="none" stroke="#003a50" stroke-miterlimit="10"/><line x1="299.88" y1="32.53" x2="371.71" y2="32.53" fill="none" stroke="#003a50" stroke-miterlimit="10"/><rect x="299.88" y="30.26" width="4.54" height="4.55" fill="#fff"/><rect x="299.88" y="30.26" width="4.54" height="4.55" fill="none" stroke="#003a50" stroke-miterlimit="10"/><rect x="367.17" y="30.26" width="4.54" height="4.55" fill="#fff"/><rect x="367.17" y="30.26" width="4.54" height="4.55" fill="none" stroke="#003a50" stroke-miterlimit="10"/><rect x="331.25" y="30.26" width="4.54" height="4.55" fill="#fff"/><rect x="331.25" y="30.26" width="4.54" height="4.55" fill="none" stroke="#003a50" stroke-miterlimit="10"/><rect x="228.38" y="30.26" width="57.66" height="4.55" fill="#fff"/><rect x="228.38" y="30.26" width="57.66" height="4.55" fill="none" stroke="#003a50" stroke-miterlimit="10"/><line x1="228.38" y1="32.53" x2="286.04" y2="32.53" fill="none" stroke="#003a50" stroke-miterlimit="10"/><rect x="228.38" y="30.26" width="4.56" height="4.55" fill="#fff"/><rect x="228.38" y="30.26" width="4.56" height="4.55" fill="none" stroke="#003a50" stroke-miterlimit="10"/><rect x="281.48" y="30.26" width="4.56" height="4.55" fill="#fff"/><rect x="281.48" y="30.26" width="4.56" height="4.55" fill="none" stroke="#003a50" stroke-miterlimit="10"/><rect x="252.65" y="30.26" width="4.56" height="4.55" fill="#fff"/><rect x="252.65" y="30.26" width="4.56" height="4.55" fill="none" stroke="#003a50" stroke-miterlimit="10"/><rect x="29.32" y="30.3" width="110.59" height="4.55" fill="#fff"/><rect x="29.32" y="30.3" width="110.59" height="4.55" fill="none" stroke="#003a50" stroke-miterlimit="10"/><line x1="139.91" y1="32.58" x2="29.33" y2="32.58" fill="none" stroke="#003a50" stroke-miterlimit="10"/><rect x="135.36" y="30.3" width="4.55" height="4.55" fill="#fff"/><rect x="135.36" y="30.3" width="4.55" height="4.55" fill="none" stroke="#003a50" stroke-miterlimit="10"/><rect x="99.8" y="30.3" width="4.55" height="4.55" fill="#fff"/><rect x="99.8" y="30.3" width="4.55" height="4.55" fill="none" stroke="#003a50" stroke-miterlimit="10"/><rect x="63.56" y="30.3" width="4.55" height="4.55" fill="#fff"/><rect x="63.56" y="30.3" width="4.55" height="4.55" fill="none" stroke="#003a50" stroke-miterlimit="10"/><rect x="29.32" y="30.3" width="4.55" height="81.8" fill="#fff"/><rect x="29.32" y="30.3" width="4.55" height="81.8" fill="none" stroke="#003a50" stroke-miterlimit="10"/><line x1="31.6" y1="112.1" x2="31.6" y2="30.3" fill="none" stroke="#003a50" stroke-miterlimit="10"/><rect x="29.32" y="107.55" width="4.55" height="4.55" fill="#fff"/><rect x="29.32" y="107.55" width="4.55" height="4.55" fill="none" stroke="#003a50" stroke-miterlimit="10"/><rect x="29.32" y="30.3" width="4.55" height="4.55" fill="#fff"/><rect x="29.32" y="30.3" width="4.55" height="4.55" fill="none" stroke="#003a50" stroke-miterlimit="10"/><rect x="29.32" y="72.1" width="4.55" height="4.55" fill="#fff"/><rect x="29.32" y="72.1" width="4.55" height="4.55" fill="none" stroke="#003a50" stroke-miterlimit="10"/><rect x="399.55" y="225.85" width="34.75" height="81.24" fill="none" stroke="#003a50" stroke-miterlimit="10"/><g clip-path="url(#clip-path)"><path d="M430,291.07V245.44a12.85,12.85,0,0,0-13.06-12.61h0a12.84,12.84,0,0,0-13,12.61v45.63a12.83,12.83,0,0,0,13,12.6h0A12.84,12.84,0,0,0,430,291.07Z" fill="none" stroke="#003a50" stroke-miterlimit="10"/><path d="M416.92,289.52a1.83,1.83,0,1,0,1.89,1.83A1.86,1.86,0,0,0,416.92,289.52Z" fill="none" stroke="#003a50" stroke-miterlimit="10"/></g><rect x="201.2" y="46.52" width="34.08" height="76.16" fill="none" stroke="#003a50" stroke-miterlimit="10"/><g clip-path="url(#clip-path)"><path d="M231.05,62.23V107a12.58,12.58,0,0,1-12.8,12.36h0A12.58,12.58,0,0,1,205.42,107V62.23a12.59,12.59,0,0,1,12.8-12.37h0A12.59,12.59,0,0,1,231.05,62.23Z" fill="none" stroke="#003a50" stroke-miterlimit="10"/><ellipse cx="218.23" cy="61.95" rx="1.86" ry="1.79" fill="none" stroke="#003a50" stroke-miterlimit="10"/><path d="M363.79,283.42v23.21h18.34V283.42a9.17,9.17,0,0,0-18.34,0Z" fill="none" stroke="#003a50" stroke-miterlimit="10"/></g><line x1="382.13" y1="297.6" x2="363.79" y2="297.6" fill="none" stroke="#003a50" stroke-miterlimit="10"/><g clip-path="url(#clip-path)"><path d="M271.42,105h23.21V86.68H271.42a9.17,9.17,0,0,0,0,18.34Z" fill="none" stroke="#003a50" stroke-miterlimit="10"/></g><line x1="285.6" y1="86.68" x2="285.6" y2="105.02" fill="none" stroke="#003a50" stroke-miterlimit="10"/><g clip-path="url(#clip-path)"><path d="M383.92,242V226.17a2.31,2.31,0,0,0-2.3-2.31H366.34a2.32,2.32,0,0,0-2.31,2.31V242a2.31,2.31,0,0,0,2.31,2.31h15.28A2.3,2.3,0,0,0,383.92,242Z" fill="none" stroke="#003a50" stroke-miterlimit="10"/><path d="M374,235.62a1.56,1.56,0,1,0-1.56-1.55A1.54,1.54,0,0,0,374,235.62Z" fill="none" stroke="#003a50" stroke-miterlimit="10"/></g><rect x="348.41" y="223.87" width="51.14" height="22.8" fill="none" stroke="#003a50" stroke-miterlimit="10"/><g clip-path="url(#clip-path)"><path d="M278,78.45h15.79a2.3,2.3,0,0,0,2.31-2.3V60.87a2.3,2.3,0,0,0-2.31-2.31H278a2.31,2.31,0,0,0-2.31,2.31V76.15A2.31,2.31,0,0,0,278,78.45Z" fill="none" stroke="#003a50" stroke-miterlimit="10"/><path d="M284.32,68.5A1.56,1.56,0,1,0,285.87,67,1.55,1.55,0,0,0,284.32,68.5Z" fill="none" stroke="#003a50" stroke-miterlimit="10"/></g><rect x="45.04" y="226.04" width="108.29" height="13.62" fill="none" stroke="#003a50" stroke-miterlimit="10"/><polygon points="65.33 233.28 99.69 230.46 134.22 233.28 134.22 235.25 65.33 235.25 65.33 233.28" fill="none" stroke="#003a50" stroke-miterlimit="10"/><rect x="75.64" y="94.75" width="81.75" height="13.62" fill="none" stroke="#003a50" stroke-miterlimit="10"/><polygon points="150.96 101.99 116.6 99.17 82.07 101.99 82.07 103.96 150.96 103.96 150.96 101.99" fill="none" stroke="#003a50" stroke-miterlimit="10"/><rect x="390.14" y="60.78" width="45.5" height="98.82" fill="none" stroke="#003a50" stroke-miterlimit="10"/><g clip-path="url(#clip-path)"><path d="M427.6,69.21H398.55a2.11,2.11,0,0,0-2.11,2.11v58.51H429.7V71.32A2.11,2.11,0,0,0,427.6,69.21Z" fill="none" stroke="#003a50" stroke-miterlimit="10"/></g><rect x="396.44" y="117.79" width="33.26" height="12.04" fill="none" stroke="#003a50" stroke-miterlimit="10"/><g clip-path="url(#clip-path)"><rect x="396.39" y="132.97" width="33.65" height="19.89" rx="2.2" fill="none" stroke="#003a50" stroke-miterlimit="10"/><rect x="274.64" y="432.16" width="104.57" height="27.42" fill="none" stroke="#003a50" stroke-miterlimit="10"/><rect x="449.07" y="138.18" width="27.05" height="82.72" fill="none" stroke="#003a50" stroke-miterlimit="10"/><rect x="449.35" y="223.05" width="27.05" height="59.34" fill="none" stroke="#003a50" stroke-miterlimit="10"/></g><rect x="140.85" y="46.17" width="57.48" height="27.05" fill="none" stroke="#003a50" stroke-miterlimit="10"/><g clip-path="url(#clip-path)"><path d="M154.46,50a.8.8,0,0,1,1.52-.35,22.88,22.88,0,0,1,0,20.08.8.8,0,0,1-1.43-.7,21.27,21.27,0,0,0,0-18.68A.76.76,0,0,1,154.46,50Z" fill="none" stroke="#003a50" stroke-miterlimit="10"/><path d="M158.89,50a.8.8,0,0,1,.44-.72.81.81,0,0,1,1.08.37,22.88,22.88,0,0,1,0,20.08A.8.8,0,0,1,159,69a21.27,21.27,0,0,0,0-18.68A.74.74,0,0,1,158.89,50Z" fill="none" stroke="#003a50" stroke-miterlimit="10"/><path d="M163.32,50a.79.79,0,0,1,1.51-.35,22.88,22.88,0,0,1,0,20.08.8.8,0,0,1-1.43-.7,21.27,21.27,0,0,0,0-18.68A.74.74,0,0,1,163.32,50Z" fill="none" stroke="#003a50" stroke-miterlimit="10"/><path d="M167.74,50a.8.8,0,0,1,1.52-.35,22.88,22.88,0,0,1,0,20.08.79.79,0,0,1-1.07.36.78.78,0,0,1-.36-1.06,21.27,21.27,0,0,0,0-18.68A.76.76,0,0,1,167.74,50Z" fill="none" stroke="#003a50" stroke-miterlimit="10"/><path d="M172.17,50a.79.79,0,0,1,1.51-.35,22.88,22.88,0,0,1,0,20.08.8.8,0,0,1-1.43-.7,21.27,21.27,0,0,0,0-18.68A.74.74,0,0,1,172.17,50Z" fill="none" stroke="#003a50" stroke-miterlimit="10"/><path d="M176.59,50a.8.8,0,0,1,1.52-.35,22.88,22.88,0,0,1,0,20.08.79.79,0,0,1-1.07.36.78.78,0,0,1-.36-1.06,21.27,21.27,0,0,0,0-18.68A.76.76,0,0,1,176.59,50Z" fill="none" stroke="#003a50" stroke-miterlimit="10"/><path d="M150,50a.79.79,0,0,1,1.51-.35,22.88,22.88,0,0,1,0,20.08.78.78,0,0,1-1.06.36.79.79,0,0,1-.37-1.06,21.27,21.27,0,0,0,0-18.68A.74.74,0,0,1,150,50Z" fill="none" stroke="#003a50" stroke-miterlimit="10"/><path d="M145.61,50a.8.8,0,0,1,1.52-.35,22.88,22.88,0,0,1,0,20.08.8.8,0,0,1-1.43-.7,21.27,21.27,0,0,0,0-18.68A.76.76,0,0,1,145.61,50Z" fill="none" stroke="#003a50" stroke-miterlimit="10"/></g><line x1="140.85" y1="59.69" x2="198.34" y2="59.69" fill="none" stroke="#003a50" stroke-miterlimit="10"/><rect x="267.58" y="137.23" width="27.05" height="83.84" fill="none" stroke="#003a50" stroke-miterlimit="10"/><g clip-path="url(#clip-path)"><path d="M271.41,207.45a.79.79,0,0,1-.35-1.51,22.91,22.91,0,0,1,20.09,0,.8.8,0,0,1,.36,1.06.81.81,0,0,1-1.07.37,21.27,21.27,0,0,0-18.68,0A.72.72,0,0,1,271.41,207.45Z" fill="none" stroke="#003a50" stroke-miterlimit="10"/><path d="M271.41,203a.8.8,0,0,1-.35-1.52,22.91,22.91,0,0,1,20.09,0,.8.8,0,1,1-.71,1.43,21.27,21.27,0,0,0-18.68,0A.73.73,0,0,1,271.41,203Z" fill="none" stroke="#003a50" stroke-miterlimit="10"/><path d="M271.41,198.6a.79.79,0,0,1-.35-1.51,22.91,22.91,0,0,1,20.09,0,.8.8,0,0,1,.36,1.06.81.81,0,0,1-1.07.37,21.27,21.27,0,0,0-18.68,0A.72.72,0,0,1,271.41,198.6Z" fill="none" stroke="#003a50" stroke-miterlimit="10"/><path d="M271.41,194.18a.8.8,0,0,1-.35-1.52,22.91,22.91,0,0,1,20.09,0,.8.8,0,1,1-.71,1.43,21.27,21.27,0,0,0-18.68,0A.73.73,0,0,1,271.41,194.18Z" fill="none" stroke="#003a50" stroke-miterlimit="10"/><path d="M271.41,189.75a.8.8,0,0,1-.72-.44.81.81,0,0,1,.37-1.08,22.91,22.91,0,0,1,20.09,0,.8.8,0,0,1-.71,1.44,21.27,21.27,0,0,0-18.68,0A.72.72,0,0,1,271.41,189.75Z" fill="none" stroke="#003a50" stroke-miterlimit="10"/><path d="M271.41,185.32a.79.79,0,0,1-.35-1.51,22.91,22.91,0,0,1,20.09,0,.8.8,0,1,1-.71,1.43,21.27,21.27,0,0,0-18.68,0A.72.72,0,0,1,271.41,185.32Z" fill="none" stroke="#003a50" stroke-miterlimit="10"/><path d="M271.41,211.88a.81.81,0,0,1-.72-.45.79.79,0,0,1,.37-1.06,22.82,22.82,0,0,1,20.09,0,.79.79,0,1,1-.71,1.42,21.27,21.27,0,0,0-18.68,0A.73.73,0,0,1,271.41,211.88Z" fill="none" stroke="#003a50" stroke-miterlimit="10"/><path d="M271.41,216.3a.79.79,0,0,1-.35-1.51,22.91,22.91,0,0,1,20.09,0,.8.8,0,1,1-.71,1.43,21.27,21.27,0,0,0-18.68,0A.72.72,0,0,1,271.41,216.3Z" fill="none" stroke="#003a50" stroke-miterlimit="10"/></g><line x1="281.1" y1="221.06" x2="281.1" y2="135.98" fill="none" stroke="#003a50" stroke-miterlimit="10"/><rect x="286.1" y="312.67" width="57.73" height="24.36" fill="none" stroke="#003a50" stroke-miterlimit="10"/><g clip-path="url(#clip-path)"><path d="M313.56,334.33a.72.72,0,0,0,1.36.32,20.55,20.55,0,0,0,0-18.1.71.71,0,0,0-1-.32.7.7,0,0,0-.32,1,19.2,19.2,0,0,1,0,16.82A.61.61,0,0,0,313.56,334.33Z" fill="none" stroke="#003a50" stroke-miterlimit="10"/><path d="M317.55,334.33a.69.69,0,0,0,.4.64.71.71,0,0,0,1-.32,20.64,20.64,0,0,0,0-18.1.72.72,0,0,0-1.29.64,19.11,19.11,0,0,1,0,16.82A.71.71,0,0,0,317.55,334.33Z" fill="none" stroke="#003a50" stroke-miterlimit="10"/><path d="M321.53,334.33a.71.71,0,0,0,.4.64.73.73,0,0,0,1-.32,20.64,20.64,0,0,0,0-18.1.72.72,0,0,0-1-.32.71.71,0,0,0-.33,1,19.2,19.2,0,0,1,0,16.82A.72.72,0,0,0,321.53,334.33Z" fill="none" stroke="#003a50" stroke-miterlimit="10"/><path d="M325.52,334.33a.72.72,0,0,0,1.36.32,20.64,20.64,0,0,0,0-18.1.72.72,0,0,0-1.29.64,19.11,19.11,0,0,1,0,16.82A.71.71,0,0,0,325.52,334.33Z" fill="none" stroke="#003a50" stroke-miterlimit="10"/><path d="M329.51,334.33a.69.69,0,0,0,.4.64.71.71,0,0,0,1-.32,20.64,20.64,0,0,0,0-18.1.72.72,0,0,0-1.29.64,19.11,19.11,0,0,1,0,16.82A.71.71,0,0,0,329.51,334.33Z" fill="none" stroke="#003a50" stroke-miterlimit="10"/><path d="M333.49,334.33a.71.71,0,0,0,.4.64.73.73,0,0,0,1-.32,20.64,20.64,0,0,0,0-18.1.72.72,0,0,0-1-.32.71.71,0,0,0-.33,1,19.2,19.2,0,0,1,0,16.82A.72.72,0,0,0,333.49,334.33Z" fill="none" stroke="#003a50" stroke-miterlimit="10"/><path d="M309.57,334.33a.71.71,0,0,0,.4.64.73.73,0,0,0,1-.32,20.64,20.64,0,0,0,0-18.1.72.72,0,0,0-1-.32.71.71,0,0,0-.33,1,19.2,19.2,0,0,1,0,16.82A.72.72,0,0,0,309.57,334.33Z" fill="none" stroke="#003a50" stroke-miterlimit="10"/><path d="M305.59,334.33a.72.72,0,0,0,1.36.32,20.64,20.64,0,0,0,0-18.1.72.72,0,0,0-1.29.64,19.11,19.11,0,0,1,0,16.82A.71.71,0,0,0,305.59,334.33Z" fill="none" stroke="#003a50" stroke-miterlimit="10"/></g><line x1="286.1" y1="325.6" x2="343.83" y2="325.6" fill="none" stroke="#003a50" stroke-miterlimit="10"/><g clip-path="url(#clip-path)"><rect x="449.07" y="282.39" width="87.74" height="24.36" fill="none" stroke="#003a50" stroke-miterlimit="10"/><line x1="447.21" y1="295.33" x2="536.81" y2="295.33" fill="none" stroke="#003a50" stroke-miterlimit="10"/></g><rect x="353.38" y="196.7" width="81.75" height="24.36" fill="none" stroke="#003a50" stroke-miterlimit="10"/><g clip-path="url(#clip-path)"><path d="M404.85,218.37a.71.71,0,0,0,.4.64.73.73,0,0,0,1-.32,20.64,20.64,0,0,0,0-18.1.73.73,0,0,0-1-.33.71.71,0,0,0-.33,1,19.22,19.22,0,0,1,0,16.83A.72.72,0,0,0,404.85,218.37Z" fill="none" stroke="#003a50" stroke-miterlimit="10"/><path d="M408.84,218.37a.72.72,0,0,0,1.36.32,20.55,20.55,0,0,0,0-18.1.72.72,0,0,0-1-.33.71.71,0,0,0-.32,1,19.22,19.22,0,0,1,0,16.83A.61.61,0,0,0,408.84,218.37Z" fill="none" stroke="#003a50" stroke-miterlimit="10"/><path d="M412.83,218.37a.69.69,0,0,0,.4.64.71.71,0,0,0,1-.32,20.64,20.64,0,0,0,0-18.1.72.72,0,1,0-1.29.63,19.13,19.13,0,0,1,0,16.83A.71.71,0,0,0,412.83,218.37Z" fill="none" stroke="#003a50" stroke-miterlimit="10"/><path d="M416.81,218.37a.71.71,0,0,0,.4.64.73.73,0,0,0,1-.32,20.64,20.64,0,0,0,0-18.1.72.72,0,0,0-1-.32.7.7,0,0,0-.33.95,19.22,19.22,0,0,1,0,16.83A.72.72,0,0,0,416.81,218.37Z" fill="none" stroke="#003a50" stroke-miterlimit="10"/><path d="M420.8,218.37a.72.72,0,0,0,1.36.32,20.55,20.55,0,0,0,0-18.1.71.71,0,0,0-1-.32.7.7,0,0,0-.32.95,19.22,19.22,0,0,1,0,16.83A.61.61,0,0,0,420.8,218.37Z" fill="none" stroke="#003a50" stroke-miterlimit="10"/><path d="M424.79,218.37a.69.69,0,0,0,.4.64.71.71,0,0,0,1-.32,20.64,20.64,0,0,0,0-18.1.71.71,0,0,0-1-.32.71.71,0,0,0-.33.95,19.13,19.13,0,0,1,0,16.83A.71.71,0,0,0,424.79,218.37Z" fill="none" stroke="#003a50" stroke-miterlimit="10"/><path d="M400.87,218.37a.72.72,0,0,0,1.36.32,20.64,20.64,0,0,0,0-18.1.72.72,0,1,0-1.29.63,19.13,19.13,0,0,1,0,16.83A.71.71,0,0,0,400.87,218.37Z" fill="none" stroke="#003a50" stroke-miterlimit="10"/><path d="M396.88,218.37a.71.71,0,0,0,.4.64.73.73,0,0,0,1-.32,20.64,20.64,0,0,0,0-18.1.73.73,0,0,0-1-.33.71.71,0,0,0-.33,1,19.22,19.22,0,0,1,0,16.83A.72.72,0,0,0,396.88,218.37Z" fill="none" stroke="#003a50" stroke-miterlimit="10"/></g><line x1="353.38" y1="209.64" x2="435.13" y2="209.64" fill="none" stroke="#003a50" stroke-miterlimit="10"/><rect x="240.88" y="391.67" width="75.58" height="26.08" fill="none" stroke="#003a50" stroke-miterlimit="10"/><g clip-path="url(#clip-path)"><path d="M284.06,414.05a.76.76,0,0,0,.43.69.77.77,0,0,0,1-.35,22.06,22.06,0,0,0,0-19.37.77.77,0,0,0-1-.34.75.75,0,0,0-.35,1,20.55,20.55,0,0,1,0,18A.64.64,0,0,0,284.06,414.05Z" fill="none" stroke="#003a50" stroke-miterlimit="10"/><path d="M288.32,414.05a.77.77,0,0,0,1.46.34,22.06,22.06,0,0,0,0-19.37.75.75,0,0,0-1-.34.76.76,0,0,0-.36,1,20.47,20.47,0,0,1,0,18A.76.76,0,0,0,288.32,414.05Z" fill="none" stroke="#003a50" stroke-miterlimit="10"/><path d="M292.59,414.05a.76.76,0,0,0,.43.69.77.77,0,0,0,1-.35,22.06,22.06,0,0,0,0-19.37.77.77,0,0,0-1-.34.75.75,0,0,0-.35,1,20.55,20.55,0,0,1,0,18A.64.64,0,0,0,292.59,414.05Z" fill="none" stroke="#003a50" stroke-miterlimit="10"/><path d="M296.86,414.05a.76.76,0,0,0,.43.69.77.77,0,0,0,1-.35,22.06,22.06,0,0,0,0-19.37.77.77,0,0,0-1-.34.75.75,0,0,0-.35,1,20.55,20.55,0,0,1,0,18A.64.64,0,0,0,296.86,414.05Z" fill="none" stroke="#003a50" stroke-miterlimit="10"/><path d="M301.12,414.05a.77.77,0,0,0,1.46.34,22.06,22.06,0,0,0,0-19.37.75.75,0,0,0-1-.34.76.76,0,0,0-.36,1,20.47,20.47,0,0,1,0,18A.76.76,0,0,0,301.12,414.05Z" fill="none" stroke="#003a50" stroke-miterlimit="10"/><path d="M305.39,414.05a.76.76,0,0,0,.43.69.77.77,0,0,0,1-.35,22.06,22.06,0,0,0,0-19.37.77.77,0,0,0-1-.34.75.75,0,0,0-.35,1,20.47,20.47,0,0,1,0,18A.76.76,0,0,0,305.39,414.05Z" fill="none" stroke="#003a50" stroke-miterlimit="10"/><path d="M279.79,414.05a.76.76,0,0,0,.43.69.77.77,0,0,0,1-.35,22.06,22.06,0,0,0,0-19.37.77.77,0,0,0-1-.34.75.75,0,0,0-.35,1,20.55,20.55,0,0,1,0,18A.64.64,0,0,0,279.79,414.05Z" fill="none" stroke="#003a50" stroke-miterlimit="10"/><path d="M275.52,414.05a.77.77,0,0,0,1.46.34A22.06,22.06,0,0,0,277,395a.75.75,0,0,0-1-.34.76.76,0,0,0-.36,1,20.47,20.47,0,0,1,0,18A.76.76,0,0,0,275.52,414.05Z" fill="none" stroke="#003a50" stroke-miterlimit="10"/></g><line x1="240.54" y1="404.71" x2="316.46" y2="404.71" fill="none" stroke="#003a50" stroke-miterlimit="10"/><rect x="51.93" y="202.89" width="18.31" height="18.31" fill="none" stroke="#003a50" stroke-miterlimit="10"/><g clip-path="url(#clip-path)"><path d="M66.34,206.79a7.42,7.42,0,1,0,0,10.5A7.42,7.42,0,0,0,66.34,206.79Z" fill="none" stroke="#003a50" stroke-miterlimit="10"/><path d="M66.84,207.35c-1.37.13-2.76-.4-4.09.94-2,2,.11,4.05-1.85,6s-4.06-.11-6,1.86" fill="none" stroke="#003a50" stroke-miterlimit="10"/></g><rect x="162.79" y="202.89" width="18.31" height="18.31" fill="none" stroke="#003a50" stroke-miterlimit="10"/><g clip-path="url(#clip-path)"><path d="M177.2,206.79a7.42,7.42,0,1,0,0,10.5A7.42,7.42,0,0,0,177.2,206.79Z" fill="none" stroke="#003a50" stroke-miterlimit="10"/><path d="M177.7,207.35c-1.37.13-2.76-.4-4.09.94-2,2,.11,4.05-1.85,6s-4.06-.11-6,1.86" fill="none" stroke="#003a50" stroke-miterlimit="10"/></g><rect x="75.35" y="129.64" width="82.4" height="91.55" fill="none" stroke="#003a50" stroke-miterlimit="10"/><g clip-path="url(#clip-path)"><path d="M149.67,137.5H83.43a1.69,1.69,0,0,0-1.69,1.69V193.8h69.62V139.19A1.69,1.69,0,0,0,149.67,137.5Z" fill="none" stroke="#003a50" stroke-miterlimit="10"/><path d="M114.25,196.72H83.14a1.6,1.6,0,0,0-1.6,1.6V213.6a1.59,1.59,0,0,0,1.6,1.59h31.11a1.6,1.6,0,0,0,1.6-1.59V198.32A1.6,1.6,0,0,0,114.25,196.72Z" fill="none" stroke="#003a50" stroke-miterlimit="10"/><path d="M150,196.72H118.84a1.6,1.6,0,0,0-1.59,1.6V213.6a1.59,1.59,0,0,0,1.59,1.59H150a1.6,1.6,0,0,0,1.6-1.59V198.32A1.6,1.6,0,0,0,150,196.72Z" fill="none" stroke="#003a50" stroke-miterlimit="10"/></g><line x1="151.56" y1="182.62" x2="81.54" y2="182.62" fill="none" stroke="#003a50" stroke-miterlimit="10"/><rect x="290.68" y="282.42" width="27.07" height="27.53" fill="none" stroke="#003a50" stroke-miterlimit="10"/><g clip-path="url(#clip-path)"><path d="M295.45,305.6a.71.71,0,0,0,.4.64.73.73,0,0,0,1-.32,20.64,20.64,0,0,0,0-18.1.72.72,0,0,0-1-.32.71.71,0,0,0-.33,1,19.2,19.2,0,0,1,0,16.82A.76.76,0,0,0,295.45,305.6Z" fill="none" stroke="#003a50" stroke-miterlimit="10"/><path d="M299.44,305.6a.72.72,0,0,0,1.36.32,20.55,20.55,0,0,0,0-18.1.71.71,0,0,0-1-.32.7.7,0,0,0-.32,1,19.2,19.2,0,0,1,0,16.82A.63.63,0,0,0,299.44,305.6Z" fill="none" stroke="#003a50" stroke-miterlimit="10"/><path d="M303.43,305.6a.72.72,0,0,0,1.36.32,20.64,20.64,0,0,0,0-18.1.72.72,0,0,0-1.29.64,19.11,19.11,0,0,1,0,16.82A.74.74,0,0,0,303.43,305.6Z" fill="none" stroke="#003a50" stroke-miterlimit="10"/><path d="M307.41,305.6a.71.71,0,0,0,.4.64.73.73,0,0,0,1-.32,20.64,20.64,0,0,0,0-18.1.72.72,0,0,0-1-.32.71.71,0,0,0-.33,1,19.2,19.2,0,0,1,0,16.82A.76.76,0,0,0,307.41,305.6Z" fill="none" stroke="#003a50" stroke-miterlimit="10"/></g><line x1="291.43" y1="296.87" x2="317.76" y2="296.87" fill="none" stroke="#003a50" stroke-miterlimit="10"/><g clip-path="url(#clip-path)"><path d="M330.92,289.46a3.39,3.39,0,0,0,3.12-2.1H336l5.1,3-2.31,3.77-2.66-1.46v11.83H325V292.71l-2.65,1.46L320,290.4l5.14-3h2.56A3.47,3.47,0,0,0,330.92,289.46Z" fill="none" stroke="#003a50" stroke-miterlimit="10"/></g><rect x="317.76" y="282.42" width="25.59" height="27.05" fill="none" stroke="#003a50" stroke-miterlimit="10"/><g clip-path="url(#clip-path)"><path d="M245.81,319.8a.94.94,0,0,0-.72,1.14,10.41,10.41,0,0,1-20.29,4.64A.95.95,0,0,0,223,326a12.31,12.31,0,1,0,24-5.5A1,1,0,0,0,245.81,319.8Z" fill="none" stroke="#003a50" stroke-miterlimit="10"/><path d="M204.15,327.13a1,1,0,0,0-1.32-.25,10.41,10.41,0,1,1-11.72-17.2.95.95,0,1,0-1.07-1.57,12.31,12.31,0,0,0,13.86,20.34A1,1,0,0,0,204.15,327.13Z" fill="none" stroke="#003a50" stroke-miterlimit="10"/><path d="M202.26,291.34a1,1,0,0,0,1-.89A10.41,10.41,0,1,1,224,291.68a1,1,0,0,0,.9,1,.94.94,0,0,0,1-.89,12.31,12.31,0,1,0-24.57-1.45A1,1,0,0,0,202.26,291.34Z" fill="none" stroke="#003a50" stroke-miterlimit="10"/><path d="M235.09,332.34a9.58,9.58,0,0,0,9.06-11.69l-1.54-6.7a2.68,2.68,0,0,0-3.2-2l-10.15,2.33a18,18,0,0,1-4.53,7.13l.72,3.17A9.82,9.82,0,0,0,235.09,332.34Z" fill="none" stroke="#003a50" stroke-miterlimit="10"/><path d="M202.77,325.91l1.75-1.21a18,18,0,0,1-10.3-16.1l-1.9,1.3a9.8,9.8,0,0,0-3.75,11.81A9.59,9.59,0,0,0,202.77,325.91Z" fill="none" stroke="#003a50" stroke-miterlimit="10"/><path d="M223,294l.09-1.48a9.78,9.78,0,0,0-7-10.17,9.55,9.55,0,0,0-12,8.66l-.09,1.39a18.11,18.11,0,0,1,12.56-1.45A17.89,17.89,0,0,1,223,294Z" fill="none" stroke="#003a50" stroke-miterlimit="10"/><path d="M224.73,321.38a18,18,0,0,0,4.53-7.13,13.1,13.1,0,0,0,.45-1.51A18,18,0,0,0,223,294a17.72,17.72,0,0,0-6.47-3.05,18,18,0,0,0-21.83,13.14,16.43,16.43,0,0,0-.52,4.53,18,18,0,0,0,10.3,16.1,18.28,18.28,0,0,0,3.38,1.21A18,18,0,0,0,224.73,321.38Z" fill="none" stroke="#003a50" stroke-miterlimit="10"/><path d="M75,467.86A2.35,2.35,0,0,1,72.51,470H69.32a2.35,2.35,0,0,1-2.51-2.14V431.47h85.61v36.07a2.35,2.35,0,0,1-2.51,2.14h-3.19a2.35,2.35,0,0,1-2.51-2.14V435.21H75Z" fill="none" stroke="#003a50" stroke-miterlimit="10"/><path d="M100.13,318.88v31h34.56V317.21H101.8A1.67,1.67,0,0,0,100.13,318.88Z" fill="none" stroke="#003a50" stroke-miterlimit="10"/><path d="M65.5,318.71v31.15h34.56V318.71a1.5,1.5,0,0,0-1.5-1.5H67A1.5,1.5,0,0,0,65.5,318.71Z" fill="none" stroke="#003a50" stroke-miterlimit="10"/><path d="M134.69,317.21a2.35,2.35,0,0,1,2.51-2.14h3.19a2.35,2.35,0,0,1,2.51,2.14V353.6H57.29V317.53a2.35,2.35,0,0,1,2.51-2.14H63a2.35,2.35,0,0,1,2.51,2.14v32.33h69.19Z" fill="none" stroke="#003a50" stroke-miterlimit="10"/></g><rect x="65.5" y="342.88" width="69.19" height="6.98" fill="none" stroke="#003a50" stroke-miterlimit="10"/><rect x="182.62" y="391.69" width="26.65" height="26.69" fill="none" stroke="#003a50" stroke-miterlimit="10"/><g clip-path="url(#clip-path)"><path d="M192.55,404.42v-8.67h6.75v8.67a2.78,2.78,0,0,1-2.77,2.78h-1.2A2.79,2.79,0,0,1,192.55,404.42Z" fill="none" stroke="#003a50" stroke-miterlimit="10"/></g><polyline points="198.66 415.48 195.93 415.48 193.2 415.48" fill="none" stroke="#003a50" stroke-miterlimit="10"/><line x1="195.93" y1="407.19" x2="195.93" y2="415.48" fill="none" stroke="#003a50" stroke-miterlimit="10"/><rect x="87.04" y="391.67" width="26.12" height="26.12" fill="none" stroke="#003a50" stroke-miterlimit="10"/><g clip-path="url(#clip-path)"><circle cx="94.13" cy="410.56" r="3.56" fill="none" stroke="#003a50" stroke-miterlimit="10"/><circle cx="106.02" cy="410.56" r="3.56" fill="none" stroke="#003a50" stroke-miterlimit="10"/><circle cx="94.13" cy="398.98" r="3.56" fill="none" stroke="#003a50" stroke-miterlimit="10"/><circle cx="106.02" cy="398.98" r="3.56" fill="none" stroke="#003a50" stroke-miterlimit="10"/></g><polyline points="147.47 414.48 152.14 414.48 156.81 414.48" fill="none" stroke="#003a50" stroke-miterlimit="10"/><line x1="152.16" y1="405.12" x2="152.16" y2="414.48" fill="none" stroke="#003a50" stroke-miterlimit="10"/><g clip-path="url(#clip-path)"><path d="M141.79,398.82v8.43a3.24,3.24,0,0,0,3.24,3.23h14.19a3.24,3.24,0,0,0,3.24-3.23v-8.43a3.23,3.23,0,0,0-3.24-3.23H145A3.23,3.23,0,0,0,141.79,398.82Z" fill="none" stroke="#003a50" stroke-miterlimit="10"/><path d="M152.16,404a1.67,1.67,0,1,0,0,3.33,1.67,1.67,0,0,0,0-3.33Z" fill="none" stroke="#003a50" stroke-miterlimit="10"/></g><rect x="209.27" y="391.67" width="26.74" height="26.74" fill="none" stroke="#003a50" stroke-miterlimit="10"/><line x1="214.8" y1="405.04" x2="230.49" y2="405.04" fill="none" stroke="#003a50" stroke-miterlimit="10"/><line x1="222.64" y1="397.19" x2="222.64" y2="412.88" fill="none" stroke="#003a50" stroke-miterlimit="10"/><line x1="217.09" y1="399.49" x2="228.19" y2="410.58" fill="none" stroke="#003a50" stroke-miterlimit="10"/><line x1="228.19" y1="399.49" x2="217.1" y2="410.58" fill="none" stroke="#003a50" stroke-miterlimit="10"/><rect x="37.71" y="391.67" width="200.88" height="29.62" fill="none" stroke="#003a50" stroke-miterlimit="10"/><g clip-path="url(#clip-path)"><rect x="242.91" y="431.75" width="26.74" height="26.74" fill="none" stroke="#003a50" stroke-miterlimit="10"/><polygon points="235.96 458.5 242.91 458.5 242.91 430.73 185.21 430.73 185.21 458.5 235.96 458.5" fill="none" stroke="#003a50" stroke-miterlimit="10"/><path d="M301.69,49.18h0a1,1,0,0,0-1,1v52.74a1,1,0,0,0,1.94,0V50.15A1,1,0,0,0,301.69,49.18Z" fill="none" stroke="#003a50" stroke-miterlimit="10"/><path d="M322.68,85a10.24,10.24,0,0,0,11-16.2.78.78,0,0,0-1.11-.12.79.79,0,0,0-.12,1.11,8.64,8.64,0,0,1-9.8,13.51Z" fill="none" stroke="#003a50" stroke-miterlimit="10"/><rect x="299.11" y="47.42" width="23.56" height="58.2" rx="2.29" fill="none" stroke="#003a50" stroke-miterlimit="10"/><path d="M311.78,56.89a3.81,3.81,0,1,1,0-5.4A3.81,3.81,0,0,1,311.78,56.89Z" fill="none" stroke="#003a50" stroke-miterlimit="10"/><path d="M312,56.6c-.7-.07-1.41.2-2.1-.48-1-1,.06-2.09-.95-3.1s-2.08.06-3.1-1" fill="none" stroke="#003a50" stroke-miterlimit="10"/><path d="M322.68,81.74a7.36,7.36,0,1,0,0-13.57Z" fill="none" stroke="#003a50" stroke-miterlimit="10"/><path d="M499.35,45.49h0a1,1,0,0,0-1-1H445.65a1,1,0,0,0,0,1.94h52.74A1,1,0,0,0,499.35,45.49Z" fill="none" stroke="#003a50" stroke-miterlimit="10"/><rect x="442.92" y="42.91" width="58.2" height="23.56" rx="2.29" fill="none" stroke="#003a50" stroke-miterlimit="10"/><path d="M229,223v-2.68c0-18.69,16.35-33.84,36.52-33.84V223" fill="none" stroke="#003a50" stroke-miterlimit="10" stroke-width="1.6"/><path d="M339.48,223v-2.68c0-18.69-16.35-33.84-36.52-33.84V223" fill="none" stroke="#003a50" stroke-miterlimit="10" stroke-width="1.6"/><path d="M346.92,249h-2.25c-15.59,0-28.22,13.64-28.22,30.46h30.47" fill="none" stroke="#003a50" stroke-miterlimit="10" stroke-width="1.6"/><path d="M230.23,135.7v2.24c0,15.59,13.64,28.22,30.46,28.22V135.7" fill="none" stroke="#003a50" stroke-miterlimit="10" stroke-width="1.6"/><path d="M390.88,387H394c21.41,0,38.76-18.74,38.76-41.85H390.88" fill="none" stroke="#003a50" stroke-miterlimit="10" stroke-width="1.6"/><path d="M484.85,421h-3.08C460.35,421,443,402.21,443,379.1h41.85" fill="none" stroke="#003a50" stroke-miterlimit="10" stroke-width="1.6"/></g><rect x="269.21" y="426.63" width="5.75" height="5.59" fill="#003a50"/><rect x="235.71" y="391.17" width="5.75" height="30.01" fill="#003a50"/><rect x="315.71" y="391.17" width="5.75" height="30.01" fill="#003a50"/><rect x="285.21" y="281.92" width="5.75" height="55.62" fill="#003a50"/><rect x="343.21" y="278.6" width="5.75" height="58.94" fill="#003a50"/><rect x="343.21" y="221.27" width="5.75" height="28.5" fill="#003a50"/><rect x="294.08" y="36.35" width="5.75" height="185.92" fill="#003a50"/><rect x="372.96" y="308.07" width="5.75" height="26.26" fill="#003a50"/><rect x="334.38" y="394.05" width="5.75" height="30.01" fill="#003a50"/><rect x="315.71" y="391.17" width="65.67" height="5.75" fill="#003a50"/><rect x="287.89" y="309.1" width="57.12" height="5.75" fill="#003a50"/><rect x="338.69" y="220.6" width="111.03" height="5.75" fill="#003a50"/><rect x="264.61" y="220.6" width="39.1" height="5.75" fill="#003a50"/><rect x="259.86" y="132.43" width="39.1" height="5.75" fill="#003a50"/><rect x="196.7" y="132.43" width="34.3" height="5.75" fill="#003a50"/><rect x="276.53" y="113.77" width="19.55" height="5.75" fill="#003a50"/><rect x="140.37" y="40.77" width="68.84" height="5.75" fill="#003a50"/><rect x="276.53" y="113.77" width="5.75" height="19.55" fill="#003a50"/><rect x="196.69" y="37.02" width="5.75" height="101.17" fill="#003a50"/><rect x="34.38" y="220.6" width="195.34" height="5.75" fill="#003a50"/><rect x="343.21" y="331.79" width="57.12" height="5.75" fill="#003a50"/><rect x="345.01" y="306.23" width="104.7" height="5.75" fill="#003a50"/><rect x="32.55" y="376.65" width="13.66" height="55.57" fill="#003a50"/><rect x="32.55" y="200.86" width="13.66" height="66.97" fill="#003a50"/><rect x="140.37" y="13.1" width="87.5" height="29.08" fill="#003a50"/><rect x="286.54" y="1.35" width="12.84" height="40.83" fill="#003a50"/><rect x="140.37" y="1.35" width="12.84" height="40.83" fill="#003a50"/><rect x="215.04" y="1.35" width="12.84" height="40.83" fill="#003a50"/><rect x="372.21" y="1.35" width="12.84" height="40.83" fill="#003a50"/><rect x="446.38" y="13.11" width="3.34" height="29.07" fill="#003a50"/><polygon points="372.21 13.1 372.21 42.19 449.72 42.19 449.72 13.11 443.24 13.11 443.24 13.1 372.21 13.1" fill="#003a50"/><rect x="377.96" y="386.15" width="14.75" height="46.08" fill="#003a50"/><rect x="153.34" y="220.6" width="67.62" height="13.75" fill="#003a50"/><rect x="377.96" y="326.82" width="14.75" height="19.11" fill="#003a50"/><rect x="384.38" y="326.82" width="65.33" height="15.03" fill="#003a50"/><rect x="31.72" y="417.13" width="350.83" height="15.03" fill="#003a50"/><rect x="434.57" y="31.85" width="15.08" height="301.67" fill="#003a50"/><rect x="1.35" y="358.13" width="39.03" height="14.21" fill="#003a50"/><rect x="1.35" y="199.86" width="39.03" height="14.21" fill="#003a50"/><rect x="1.35" y="273.42" width="39.03" height="14.21" fill="#003a50"/><rect x="10.2" y="431.7" width="30.17" height="0.52" fill="#003a50"/><rect x="10.21" y="358.13" width="30.17" height="74.09" fill="#003a50"/><rect x="11.46" y="199.86" width="28.92" height="87.78" fill="#003a50"/><rect x="1.35" y="112.08" width="39.03" height="15.77" fill="#003a50"/><rect x="1.35" y="1.35" width="23" height="23" fill="#003a50"/><g clip-path="url(#clip-path)"><path d="M351.18,360.18h-5.82v-1.84h8.86v1.84l-4.52,2.65v.07H351a3.91,3.91,0,0,1,2.8,1,3.52,3.52,0,0,1,1.05,2.67,3.32,3.32,0,0,1-1.33,2.82,7,7,0,0,1-7.24,0,3.36,3.36,0,0,1-1.33-2.86v-.32H347v.32c0,1.37,1,2,2.84,2s2.84-.67,2.84-2-.95-2-2.84-2h-3.26v-1.67l4.57-2.68Z" fill="#003a50"/><path d="M356.92,370.12a1,1,0,0,1-.32-.81,1.07,1.07,0,0,1,.32-.81,1.41,1.41,0,0,1,1.74,0,1.07,1.07,0,0,1,.32.81,1,1,0,0,1-.32.81,1.45,1.45,0,0,1-1.74,0Z" fill="#003a50"/><path d="M366.21,362.27a5,5,0,0,1,3.33,1.06,4.16,4.16,0,0,1,0,6,5.38,5.38,0,0,1-3.54,1.08,5.8,5.8,0,0,1-3.57-1,3.16,3.16,0,0,1-1.28-2.68h2.11a1.53,1.53,0,0,0,.7,1.33,3.53,3.53,0,0,0,2,.49,3.17,3.17,0,0,0,2-.57,2.06,2.06,0,0,0,.7-1.69,2,2,0,0,0-.74-1.7,3.25,3.25,0,0,0-2.07-.58,3.61,3.61,0,0,0-1.92.41,1.87,1.87,0,0,0-.69.64l0,.13h-2.11v-6.88H370v1.84h-6.76v3h0a1.68,1.68,0,0,1,.4-.31,3.36,3.36,0,0,1,.54-.26A5.66,5.66,0,0,1,366.21,362.27Z" fill="#003a50"/><path d="M367.27,257.73h-5.82v-1.85h8.86v1.85l-4.52,2.65v.06h1.27a3.91,3.91,0,0,1,2.8,1,3.52,3.52,0,0,1,1.05,2.67,3.34,3.34,0,0,1-1.33,2.83,7,7,0,0,1-7.24,0,3.37,3.37,0,0,1-1.33-2.86v-.33h2.11v.33c0,1.36.95,2,2.84,2s2.84-.66,2.84-2-.95-2-2.84-2H362.7v-1.66l4.57-2.69Z" fill="#003a50"/><path d="M373,267.66a1,1,0,0,1-.32-.81,1,1,0,0,1,.32-.8,1.41,1.41,0,0,1,1.74,0,1.06,1.06,0,0,1,.32.8,1,1,0,0,1-.32.81,1.41,1.41,0,0,1-1.74,0Z" fill="#003a50"/><path d="M382.3,259.81a5,5,0,0,1,3.33,1.06,4.17,4.17,0,0,1,0,6,5.38,5.38,0,0,1-3.54,1.08,5.87,5.87,0,0,1-3.57-1,3.19,3.19,0,0,1-1.28-2.69h2.11a1.54,1.54,0,0,0,.7,1.34,3.62,3.62,0,0,0,2,.48,3.17,3.17,0,0,0,2-.57,2.36,2.36,0,0,0,0-3.39,3.25,3.25,0,0,0-2.07-.58,3.7,3.7,0,0,0-1.92.41,2.05,2.05,0,0,0-.69.64l-.05.13H377.2v-6.88h8.87v1.85h-6.76v2.95h.05a2.2,2.2,0,0,1,.39-.3,3.11,3.11,0,0,1,.55-.27A5.66,5.66,0,0,1,382.3,259.81Z" fill="#003a50"/><path d="M104.1,293.12H94.17v-1.57a2.83,2.83,0,0,1,.58-1.74,4,4,0,0,1,1.45-1.19c.5-.26,1.12-.55,1.87-.87s1.32-.55,1.87-.77a4.26,4.26,0,0,0,1.45-.91,1.82,1.82,0,0,0,.57-1.31c0-1.26-.89-1.88-2.66-1.88s-2.68.72-2.68,2.16v.4H94.51V285a3.62,3.62,0,0,1,1.26-3,5.39,5.39,0,0,1,3.52-1,5.72,5.72,0,0,1,3.51,1,3.29,3.29,0,0,1,1.27,2.75,3.1,3.1,0,0,1-.56,1.84,4.26,4.26,0,0,1-1.4,1.3q-.9.51-1.83.93t-1.83.75a5.11,5.11,0,0,0-1.4.75,1.22,1.22,0,0,0-.57.95h7.62Z" fill="#003a50"/><path d="M114.63,293.12h-2.11v-2.65h-7v-1.85l6.3-7.41h2.79v7.41h1.59v1.85h-1.59Zm-2.11-4.5V283.3h-.07L108,288.57v.05Z" fill="#003a50"/><path d="M117.91,293a1,1,0,0,1-.33-.8,1,1,0,0,1,.33-.81,1.4,1.4,0,0,1,1.73,0,1,1,0,0,1,.33.81,1,1,0,0,1-.33.8,1.4,1.4,0,0,1-1.73,0Z" fill="#003a50"/><path d="M131.53,284.56h-2.21s0-.06,0-.17a2.53,2.53,0,0,0-.22-.44,2.07,2.07,0,0,0-.38-.5A1.85,1.85,0,0,0,128,283a3,3,0,0,0-1-.16,2.49,2.49,0,0,0-2.15,1,4.39,4.39,0,0,0-.77,2.68h.06a1.8,1.8,0,0,1,.44-.43,3.55,3.55,0,0,1,.61-.37,3.81,3.81,0,0,1,.95-.3,5.49,5.49,0,0,1,1.22-.13,5.05,5.05,0,0,1,3.37,1.11,3.51,3.51,0,0,1,1.3,2.8,3.57,3.57,0,0,1-1.36,2.91,5.55,5.55,0,0,1-3.6,1.1,4.81,4.81,0,0,1-3.87-1.54,6.33,6.33,0,0,1-1.33-4.27v-.41a6.8,6.8,0,0,1,1.33-4.31A4.5,4.5,0,0,1,127,281a5.81,5.81,0,0,1,2.12.37,4,4,0,0,1,1.44.94A3.46,3.46,0,0,1,131.53,284.56ZM129,287.71a3.65,3.65,0,0,0-4,0,2,2,0,0,0,0,3.15,3.21,3.21,0,0,0,2,.59,3.26,3.26,0,0,0,2-.59,2,2,0,0,0,0-3.15Z" fill="#003a50"/><path d="M98.92,65.84l-2.48,2V65.55l2.73-2.27H101V75.19H98.92Z" fill="#003a50"/><path d="M109.75,65.13h-5.82V63.28h8.86v1.85l-4.53,2.65v.06h1.28a3.87,3.87,0,0,1,2.79,1,3.51,3.51,0,0,1,1.06,2.66,3.37,3.37,0,0,1-1.33,2.83,7,7,0,0,1-7.25,0,3.39,3.39,0,0,1-1.32-2.86v-.33h2.11v.33c0,1.36.94,2,2.84,2s2.84-.66,2.84-2-1-2-2.84-2h-3.27V67.88l4.58-2.69Z" fill="#003a50"/><path d="M115.49,75.06a1,1,0,0,1-.33-.81,1,1,0,0,1,.33-.8,1.4,1.4,0,0,1,1.73,0,1,1,0,0,1,.33.8,1,1,0,0,1-.33.81,1.4,1.4,0,0,1-1.73,0Z" fill="#003a50"/><path d="M124.77,67.21a5,5,0,0,1,3.34,1.06,3.69,3.69,0,0,1,1.25,3,3.73,3.73,0,0,1-1.29,3,5.39,5.39,0,0,1-3.55,1.08,5.86,5.86,0,0,1-3.56-1,3.18,3.18,0,0,1-1.29-2.69h2.11a1.57,1.57,0,0,0,.7,1.34,3.62,3.62,0,0,0,2,.48,3.15,3.15,0,0,0,2-.57,2.37,2.37,0,0,0,0-3.39,3.25,3.25,0,0,0-2.07-.58,3.6,3.6,0,0,0-1.92.42,1.93,1.93,0,0,0-.7.64l0,.12h-2.11V63.28h8.88v1.85h-6.77v3h0a2.77,2.77,0,0,1,.4-.3,3.11,3.11,0,0,1,.55-.27A5.6,5.6,0,0,1,124.77,67.21Z" fill="#003a50"/><path d="M333.27,155.27l-2.48,1.95V155l2.73-2.27h1.86v11.91h-2.11Z" fill="#003a50"/><path d="M339.9,155.27l-2.48,1.95V155l2.73-2.27H342v11.91H339.9Z" fill="#003a50"/><path d="M344.53,164.49a1,1,0,0,1-.32-.81,1.06,1.06,0,0,1,.32-.8,1.25,1.25,0,0,1,.88-.3,1.23,1.23,0,0,1,.86.3,1.06,1.06,0,0,1,.32.8,1,1,0,0,1-.32.81,1.23,1.23,0,0,1-.86.3A1.25,1.25,0,0,1,344.53,164.49Z" fill="#003a50"/><path d="M348.67,161.27h2.21s0,.07,0,.18a2.71,2.71,0,0,0,.23.43,2.14,2.14,0,0,0,.41.49,2,2,0,0,0,.75.42,3.21,3.21,0,0,0,1.05.16,2.66,2.66,0,0,0,2.24-1.06,4.32,4.32,0,0,0,.81-2.71h-.06a2.24,2.24,0,0,1-.44.47,2.73,2.73,0,0,1-.6.4,4,4,0,0,1-.95.32,5.43,5.43,0,0,1-1.22.13,4.92,4.92,0,0,1-3.37-1.13,3.73,3.73,0,0,1,.05-5.72,5.54,5.54,0,0,1,3.61-1.1,4.81,4.81,0,0,1,3.87,1.54,6.4,6.4,0,0,1,1.32,4.27v.41a6.7,6.7,0,0,1-1.37,4.31,4.71,4.71,0,0,1-3.89,1.71,6,6,0,0,1-2.17-.38,3.81,3.81,0,0,1-1.47-.94A3.33,3.33,0,0,1,348.67,161.27Zm2.77-3.16a3.6,3.6,0,0,0,3.95,0,1.86,1.86,0,0,0,.78-1.57,1.91,1.91,0,0,0-.77-1.58,3.24,3.24,0,0,0-2-.58,3.17,3.17,0,0,0-2,.58,1.9,1.9,0,0,0-.78,1.58A1.88,1.88,0,0,0,351.44,158.11Z" fill="#003a50"/><path d="M246,117.75h-5.82v-1.84H249v1.84l-4.52,2.65v.07h1.28a3.86,3.86,0,0,1,2.79,1,3.52,3.52,0,0,1,1,2.66,3.33,3.33,0,0,1-1.33,2.83,7,7,0,0,1-7.24,0,3.39,3.39,0,0,1-1.33-2.86v-.32h2.11v.32c0,1.36,1,2,2.84,2s2.84-.67,2.84-2-.94-2-2.84-2h-3.26V120.5l4.57-2.68Z" fill="#003a50"/><path d="M251.74,127.68a1,1,0,0,1-.32-.8,1.07,1.07,0,0,1,.32-.81,1.25,1.25,0,0,1,.88-.3,1.23,1.23,0,0,1,.86.3,1.07,1.07,0,0,1,.32.81,1,1,0,0,1-.32.8,1.23,1.23,0,0,1-.86.3A1.25,1.25,0,0,1,251.74,127.68Z" fill="#003a50"/><path d="M255.88,124.47h2.21s0,.07,0,.18a2.71,2.71,0,0,0,.23.43,2.37,2.37,0,0,0,.41.49,2.2,2.2,0,0,0,.75.41,3.21,3.21,0,0,0,1.05.17,2.67,2.67,0,0,0,2.24-1.07,4.29,4.29,0,0,0,.81-2.7h-.06a2.24,2.24,0,0,1-.44.46,2.73,2.73,0,0,1-.6.4,3.28,3.28,0,0,1-.95.32,5.43,5.43,0,0,1-1.22.14,5,5,0,0,1-3.37-1.13,3.73,3.73,0,0,1,0-5.72,5.54,5.54,0,0,1,3.61-1.11,4.81,4.81,0,0,1,3.87,1.55,6.35,6.35,0,0,1,1.32,4.26V122a6.7,6.7,0,0,1-1.37,4.31,4.71,4.71,0,0,1-3.89,1.71,6,6,0,0,1-2.17-.37,3.82,3.82,0,0,1-1.47-1A3.33,3.33,0,0,1,255.88,124.47Zm2.77-3.17a3.6,3.6,0,0,0,4,0,1.84,1.84,0,0,0,.78-1.56,1.89,1.89,0,0,0-.77-1.58,3.24,3.24,0,0,0-2-.58,3.17,3.17,0,0,0-2,.58,2,2,0,0,0,0,3.14Z" fill="#003a50"/><path d="M220.64,181.29h-2.11v-2.65h-7V176.8l6.29-7.42h2.79v7.42h1.6v1.84h-1.6Zm-2.11-4.49v-5.33h-.06L214,176.75v.05Z" fill="#003a50"/><path d="M223.92,181.16a1,1,0,0,1-.32-.81,1.07,1.07,0,0,1,.32-.81,1.3,1.3,0,0,1,.88-.29,1.26,1.26,0,0,1,.86.29,1,1,0,0,1,.32.81,1,1,0,0,1-.32.81,1.21,1.21,0,0,1-.86.29A1.25,1.25,0,0,1,223.92,181.16Z" fill="#003a50"/><path d="M229.33,179.75a7.33,7.33,0,0,1,0-8.83,5.69,5.69,0,0,1,8.13,0,7.33,7.33,0,0,1,0,8.83,5.71,5.71,0,0,1-8.13,0Zm6.53-1.38a5.75,5.75,0,0,0,0-6.08,3.17,3.17,0,0,0-4.92,0,5.69,5.69,0,0,0,0,6.08,3.15,3.15,0,0,0,4.92,0Z" fill="#003a50"/></g></svg>