<svg id="Слой_1" data-name="Слой 1" xmlns="http://www.w3.org/2000/svg" xmlns:xlink="http://www.w3.org/1999/xlink" viewBox="0 0 449.29 311.81"><defs><clipPath id="clip-path"><polygon points="212.83 0 212.83 114.24 0 114.24 0 311.81 449.29 311.81 449.29 0 212.83 0" fill="none"/></clipPath></defs><rect x="41.15" y="305.06" width="396.25" height="6.75" fill="#fff"/><polygon points="217.31 5.52 217.31 117.6 41.15 117.6 41.15 305.06 437.4 305.06 437.4 5.52 217.31 5.52" fill="#fff"/><polygon points="212.83 0 212.83 114.24 41.15 114.24 41.15 123.07 221.65 123.07 221.65 9.45 438.73 9.45 438.68 0 212.83 0" fill="#fff"/><g clip-path="url(#clip-path)"><line x1="437.4" y1="-421.06" x2="437.4" y2="704.94" fill="none" stroke="#003a50" stroke-miterlimit="10"/><polyline points="447.66 694.05 447.66 -409.57 424.66 -432.57 -416.96 -432.57 -439.96 -409.57 -439.96 936.56 -320.35 936.56 -320.35 2061.69" fill="none" stroke="#003a50" stroke-miterlimit="10"/></g><rect x="414.21" y="182.53" width="4.55" height="69.92" fill="#fff"/><rect x="414.21" y="182.53" width="4.55" height="69.92" fill="none" stroke="#003a50" stroke-miterlimit="10"/><line x1="416.49" y1="252.44" x2="416.49" y2="182.53" fill="none" stroke="#003a50" stroke-miterlimit="10"/><rect x="414.21" y="248.02" width="4.55" height="4.42" fill="#fff"/><rect x="414.21" y="248.02" width="4.55" height="4.42" fill="none" stroke="#003a50" stroke-miterlimit="10"/><rect x="414.21" y="182.53" width="4.55" height="4.42" fill="#fff"/><rect x="414.21" y="182.53" width="4.55" height="4.42" fill="none" stroke="#003a50" stroke-miterlimit="10"/><rect x="414.21" y="217.49" width="4.55" height="4.42" fill="#fff"/><rect x="414.21" y="217.49" width="4.55" height="4.42" fill="none" stroke="#003a50" stroke-miterlimit="10"/><g clip-path="url(#clip-path)"><path d="M414.21,217.49h-2.53c-17.6,0-28.92-13.68-28.92-30.54h31.45" fill="none" stroke="#003a50" stroke-miterlimit="10"/></g><rect x="414.21" y="24.02" width="4.55" height="69.92" fill="#fff"/><rect x="414.21" y="24.02" width="4.55" height="69.92" fill="none" stroke="#003a50" stroke-miterlimit="10"/><line x1="416.49" y1="24.02" x2="416.49" y2="93.94" fill="none" stroke="#003a50" stroke-miterlimit="10"/><rect x="414.21" y="24.02" width="4.55" height="4.42" fill="#fff"/><rect x="414.21" y="24.02" width="4.55" height="4.42" fill="none" stroke="#003a50" stroke-miterlimit="10"/><rect x="414.21" y="89.52" width="4.55" height="4.42" fill="#fff"/><rect x="414.21" y="89.52" width="4.55" height="4.42" fill="none" stroke="#003a50" stroke-miterlimit="10"/><rect x="414.21" y="54.56" width="4.55" height="4.42" fill="#fff"/><rect x="414.21" y="54.56" width="4.55" height="4.42" fill="none" stroke="#003a50" stroke-miterlimit="10"/><g clip-path="url(#clip-path)"><path d="M414.21,59h-2.53c-17.6,0-28.92,13.67-28.92,30.54h31.45" fill="none" stroke="#003a50" stroke-miterlimit="10"/></g><rect x="76.18" y="263.61" width="83.84" height="37.52" fill="none" stroke="#003a50" stroke-miterlimit="10"/><g clip-path="url(#clip-path)"><path d="M93.47,296.48h49.26a13.86,13.86,0,0,0,13.61-14.1v0a13.86,13.86,0,0,0-13.61-14.1H93.47a13.86,13.86,0,0,0-13.61,14.1v0A13.86,13.86,0,0,0,93.47,296.48Z" fill="none" stroke="#003a50" stroke-miterlimit="10"/><path d="M95.15,282.37a2,2,0,1,0-2,2A2,2,0,0,0,95.15,282.37Z" fill="none" stroke="#003a50" stroke-miterlimit="10"/><path d="M99.39,249.42H76.18V231.08H99.39a9.17,9.17,0,1,1,0,18.34Z" fill="none" stroke="#003a50" stroke-miterlimit="10"/></g><line x1="85.21" y1="231.08" x2="85.21" y2="249.42" fill="none" stroke="#003a50" stroke-miterlimit="10"/><g clip-path="url(#clip-path)"><path d="M142.66,228.92h15.8a2.3,2.3,0,0,1,2.3,2.3V246.5a2.3,2.3,0,0,1-2.3,2.31h-15.8a2.3,2.3,0,0,1-2.3-2.31V231.22A2.3,2.3,0,0,1,142.66,228.92Z" fill="none" stroke="#003a50" stroke-miterlimit="10"/><path d="M149,238.87a1.56,1.56,0,1,1,1.56,1.55A1.56,1.56,0,0,1,149,238.87Z" fill="none" stroke="#003a50" stroke-miterlimit="10"/></g><rect x="138.7" y="212.93" width="20.25" height="50.68" fill="none" stroke="#003a50" stroke-miterlimit="10"/><g clip-path="url(#clip-path)"><path d="M119.58,21.09h15.8a2.31,2.31,0,0,1,2.31,2.3V38.67A2.31,2.31,0,0,1,135.38,41h-15.8a2.3,2.3,0,0,1-2.3-2.31V23.39A2.3,2.3,0,0,1,119.58,21.09Z" fill="none" stroke="#003a50" stroke-miterlimit="10"/><path d="M125.92,31a1.56,1.56,0,1,1,1.56,1.55A1.56,1.56,0,0,1,125.92,31Z" fill="none" stroke="#003a50" stroke-miterlimit="10"/></g><rect x="299.91" y="153.55" width="81.75" height="13.62" fill="none" stroke="#003a50" stroke-miterlimit="10"/><polygon points="306.34 160.79 340.7 157.97 375.23 160.79 375.23 162.76 306.34 162.76 306.34 160.79" fill="none" stroke="#003a50" stroke-miterlimit="10"/><rect x="304.64" y="135.71" width="81.75" height="13.62" fill="none" stroke="#003a50" stroke-miterlimit="10"/><polygon points="379.96 142.09 345.6 144.92 311.07 142.09 311.07 140.13 379.96 140.13 379.96 142.09" fill="none" stroke="#003a50" stroke-miterlimit="10"/><rect x="226.79" y="12.1" width="27.05" height="137.43" fill="none" stroke="#003a50" stroke-miterlimit="10"/><g clip-path="url(#clip-path)"><path d="M230.62,135.92a.79.79,0,0,1-.71-.45.81.81,0,0,1,.36-1.07,22.91,22.91,0,0,1,20.09,0,.8.8,0,0,1,.36,1.07.78.78,0,0,1-1.06.36,21.3,21.3,0,0,0-18.69,0A.73.73,0,0,1,230.62,135.92Z" fill="none" stroke="#003a50" stroke-miterlimit="10"/><path d="M230.62,131.49a.78.78,0,0,1-.71-.44.8.8,0,0,1,.36-1.07,22.91,22.91,0,0,1,20.09,0,.8.8,0,0,1-.7,1.43,21.3,21.3,0,0,0-18.69,0A.72.72,0,0,1,230.62,131.49Z" fill="none" stroke="#003a50" stroke-miterlimit="10"/><path d="M230.62,127.07a.79.79,0,0,1-.71-.45.81.81,0,0,1,.36-1.07,22.91,22.91,0,0,1,20.09,0,.8.8,0,0,1,.36,1.07.79.79,0,0,1-1.06.36A21.3,21.3,0,0,0,231,127,.73.73,0,0,1,230.62,127.07Z" fill="none" stroke="#003a50" stroke-miterlimit="10"/><path d="M230.62,122.64a.78.78,0,0,1-.71-.44.82.82,0,0,1,.36-1.08,22.91,22.91,0,0,1,20.09,0,.8.8,0,0,1,.36,1.07.79.79,0,0,1-1.06.37,21.3,21.3,0,0,0-18.69,0A.72.72,0,0,1,230.62,122.64Z" fill="none" stroke="#003a50" stroke-miterlimit="10"/><path d="M230.62,118.22a.79.79,0,0,1-.71-.45.81.81,0,0,1,.36-1.07,22.91,22.91,0,0,1,20.09,0,.8.8,0,0,1,.36,1.07.79.79,0,0,1-1.06.36,21.3,21.3,0,0,0-18.69,0A.73.73,0,0,1,230.62,118.22Z" fill="none" stroke="#003a50" stroke-miterlimit="10"/><path d="M230.62,113.79a.78.78,0,0,1-.71-.44.82.82,0,0,1,.36-1.08,22.91,22.91,0,0,1,20.09,0,.8.8,0,0,1,.36,1.07.79.79,0,0,1-1.06.37,21.3,21.3,0,0,0-18.69,0A.72.72,0,0,1,230.62,113.79Z" fill="none" stroke="#003a50" stroke-miterlimit="10"/><path d="M230.62,140.34a.78.78,0,0,1-.71-.44.8.8,0,0,1,.36-1.07,22.91,22.91,0,0,1,20.09,0,.8.8,0,0,1,.36,1.07.79.79,0,0,1-1.06.36,21.3,21.3,0,0,0-18.69,0A.72.72,0,0,1,230.62,140.34Z" fill="none" stroke="#003a50" stroke-miterlimit="10"/><path d="M230.62,144.77a.78.78,0,0,1-.71-.44.82.82,0,0,1,.36-1.08,22.91,22.91,0,0,1,20.09,0,.8.8,0,0,1,.36,1.07.79.79,0,0,1-1.06.37,21.3,21.3,0,0,0-18.69,0A.72.72,0,0,1,230.62,144.77Z" fill="none" stroke="#003a50" stroke-miterlimit="10"/></g><line x1="240.31" y1="149.53" x2="240.31" y2="8.27" fill="none" stroke="#003a50" stroke-miterlimit="10"/><g clip-path="url(#clip-path)"><rect x="191.06" y="23.77" width="21.94" height="90.61" fill="none" stroke="#003a50" stroke-miterlimit="10"/><path d="M194.17,103.34a.67.67,0,0,1-.58-.36.66.66,0,0,1,.3-.87,18.58,18.58,0,0,1,16.29,0,.65.65,0,1,1-.57,1.16,17.27,17.27,0,0,0-15.15,0A.59.59,0,0,1,194.17,103.34Z" fill="none" stroke="#003a50" stroke-miterlimit="10"/><path d="M194.17,99.75a.67.67,0,0,1-.58-.36.66.66,0,0,1,.3-.87,18.58,18.58,0,0,1,16.29,0,.65.65,0,1,1-.57,1.16,17.27,17.27,0,0,0-15.15,0A.59.59,0,0,1,194.17,99.75Z" fill="none" stroke="#003a50" stroke-miterlimit="10"/><path d="M194.17,96.16a.67.67,0,0,1-.58-.36.66.66,0,0,1,.3-.87,18.58,18.58,0,0,1,16.29,0,.65.65,0,1,1-.57,1.16,17.27,17.27,0,0,0-15.15,0A.59.59,0,0,1,194.17,96.16Z" fill="none" stroke="#003a50" stroke-miterlimit="10"/><path d="M194.17,92.57a.67.67,0,0,1-.58-.36.66.66,0,0,1,.3-.87,18.58,18.58,0,0,1,16.29,0,.65.65,0,1,1-.57,1.16,17.27,17.27,0,0,0-15.15,0A.59.59,0,0,1,194.17,92.57Z" fill="none" stroke="#003a50" stroke-miterlimit="10"/><path d="M194.17,89a.67.67,0,0,1-.58-.36.66.66,0,0,1,.3-.87,18.58,18.58,0,0,1,16.29,0,.65.65,0,1,1-.57,1.16,17.27,17.27,0,0,0-15.15,0A.59.59,0,0,1,194.17,89Z" fill="none" stroke="#003a50" stroke-miterlimit="10"/><path d="M194.17,85.39a.67.67,0,0,1-.58-.36.66.66,0,0,1,.3-.87,18.58,18.58,0,0,1,16.29,0,.65.65,0,1,1-.57,1.16,17.27,17.27,0,0,0-15.15,0A.59.59,0,0,1,194.17,85.39Z" fill="none" stroke="#003a50" stroke-miterlimit="10"/><path d="M194.17,106.93a.67.67,0,0,1-.58-.36.66.66,0,0,1,.3-.87,18.58,18.58,0,0,1,16.29,0,.65.65,0,1,1-.57,1.16,17.27,17.27,0,0,0-15.15,0A.59.59,0,0,1,194.17,106.93Z" fill="none" stroke="#003a50" stroke-miterlimit="10"/><path d="M194.17,110.52a.67.67,0,0,1-.58-.36.66.66,0,0,1,.3-.87,18.5,18.5,0,0,1,16.29,0,.65.65,0,1,1-.57,1.16,17.27,17.27,0,0,0-15.15,0A.59.59,0,0,1,194.17,110.52Z" fill="none" stroke="#003a50" stroke-miterlimit="10"/><line x1="202.03" y1="114.38" x2="202.03" y2="20.89" fill="none" stroke="#003a50" stroke-miterlimit="10"/></g><rect x="72.56" y="127.07" width="65.11" height="26.99" fill="none" stroke="#003a50" stroke-miterlimit="10"/><g clip-path="url(#clip-path)"><path d="M107.4,151.36a.71.71,0,0,0,.4.64.72.72,0,0,0,1-.33,20.62,20.62,0,0,0,0-18.09.73.73,0,0,0-1-.33.71.71,0,0,0-.33,1,19.22,19.22,0,0,1,0,16.83A.72.72,0,0,0,107.4,151.36Z" fill="none" stroke="#003a50" stroke-miterlimit="10"/><path d="M111.39,151.36a.72.72,0,0,0,1.36.31,20.62,20.62,0,0,0,0-18.09.72.72,0,0,0-1.29.63,19.13,19.13,0,0,1,0,16.83A.71.71,0,0,0,111.39,151.36Z" fill="none" stroke="#003a50" stroke-miterlimit="10"/><path d="M115.37,151.36a.71.71,0,0,0,.4.64.72.72,0,0,0,1-.33,20.62,20.62,0,0,0,0-18.09.73.73,0,0,0-1-.33.71.71,0,0,0-.33,1,19.22,19.22,0,0,1,0,16.83A.72.72,0,0,0,115.37,151.36Z" fill="none" stroke="#003a50" stroke-miterlimit="10"/><path d="M119.36,151.36a.71.71,0,0,0,.4.64.72.72,0,0,0,1-.33,20.62,20.62,0,0,0,0-18.09.73.73,0,0,0-1-.33.71.71,0,0,0-.33,1,19.22,19.22,0,0,1,0,16.83A.72.72,0,0,0,119.36,151.36Z" fill="none" stroke="#003a50" stroke-miterlimit="10"/><path d="M123.35,151.36a.72.72,0,0,0,1.36.31,20.62,20.62,0,0,0,0-18.09.72.72,0,0,0-1.29.63,19.13,19.13,0,0,1,0,16.83A.71.71,0,0,0,123.35,151.36Z" fill="none" stroke="#003a50" stroke-miterlimit="10"/><path d="M127.33,151.36a.71.71,0,0,0,.4.64.72.72,0,0,0,1-.33,20.62,20.62,0,0,0,0-18.09.73.73,0,0,0-1-.33.71.71,0,0,0-.33,1,19.22,19.22,0,0,1,0,16.83A.72.72,0,0,0,127.33,151.36Z" fill="none" stroke="#003a50" stroke-miterlimit="10"/><path d="M103.42,151.36a.69.69,0,0,0,.4.64.71.71,0,0,0,1-.33,20.62,20.62,0,0,0,0-18.09.72.72,0,0,0-1.29.63,19.13,19.13,0,0,1,0,16.83A.71.71,0,0,0,103.42,151.36Z" fill="none" stroke="#003a50" stroke-miterlimit="10"/><path d="M99.43,151.36a.72.72,0,0,0,1.36.31,20.53,20.53,0,0,0,0-18.09.72.72,0,0,0-1-.33.71.71,0,0,0-.32,1,19.22,19.22,0,0,1,0,16.83A.61.61,0,0,0,99.43,151.36Z" fill="none" stroke="#003a50" stroke-miterlimit="10"/></g><line x1="71.58" y1="142.63" x2="137.68" y2="142.63" fill="none" stroke="#003a50" stroke-miterlimit="10"/><g clip-path="url(#clip-path)"><rect x="138.4" y="87.33" width="27.07" height="27.53" fill="none" stroke="#003a50" stroke-miterlimit="10"/><path d="M143.17,110.51a.72.72,0,0,0,1.36.32,20.55,20.55,0,0,0,0-18.1.71.71,0,0,0-1-.32.7.7,0,0,0-.32,1,19.2,19.2,0,0,1,0,16.82A.61.61,0,0,0,143.17,110.51Z" fill="none" stroke="#003a50" stroke-miterlimit="10"/><path d="M147.16,110.51a.69.69,0,0,0,.4.64.71.71,0,0,0,1-.32,20.64,20.64,0,0,0,0-18.1.72.72,0,0,0-1.29.64,19.11,19.11,0,0,1,0,16.82A.71.71,0,0,0,147.16,110.51Z" fill="none" stroke="#003a50" stroke-miterlimit="10"/><path d="M151.14,110.51a.71.71,0,0,0,.4.64.73.73,0,0,0,1-.32,20.64,20.64,0,0,0,0-18.1.72.72,0,0,0-1-.32.71.71,0,0,0-.33,1,19.2,19.2,0,0,1,0,16.82A.72.72,0,0,0,151.14,110.51Z" fill="none" stroke="#003a50" stroke-miterlimit="10"/><path d="M155.13,110.51a.72.72,0,0,0,1.36.32,20.64,20.64,0,0,0,0-18.1.72.72,0,0,0-1.29.64,19.11,19.11,0,0,1,0,16.82A.71.71,0,0,0,155.13,110.51Z" fill="none" stroke="#003a50" stroke-miterlimit="10"/><path d="M78.6,19.52H55.39V37.86H78.6a9.17,9.17,0,1,0,0-18.34Z" fill="none" stroke="#003a50" stroke-miterlimit="10"/><path d="M91.72,77.06a2,2,0,1,0-2-2A2,2,0,0,0,91.72,77.06Z" fill="none" stroke="#003a50" stroke-miterlimit="10"/></g><rect x="384.53" y="12.96" width="18.91" height="18.91" fill="none" stroke="#003a50" stroke-miterlimit="10"/><g clip-path="url(#clip-path)"><path d="M388.56,27.83a7.67,7.67,0,1,0,0-10.84A7.67,7.67,0,0,0,388.56,27.83Z" fill="none" stroke="#003a50" stroke-miterlimit="10"/><path d="M388,27.25c1.41-.14,2.84.41,4.22-1,2-2-.12-4.19,1.91-6.22s4.19.12,6.22-1.91" fill="none" stroke="#003a50" stroke-miterlimit="10"/></g><rect x="270.05" y="12.96" width="18.91" height="18.91" fill="none" stroke="#003a50" stroke-miterlimit="10"/><g clip-path="url(#clip-path)"><path d="M274.08,27.83a7.67,7.67,0,1,0,0-10.84A7.67,7.67,0,0,0,274.08,27.83Z" fill="none" stroke="#003a50" stroke-miterlimit="10"/><path d="M273.56,27.25c1.41-.14,2.84.41,4.22-1,2-2-.12-4.19,1.92-6.22s4.18.12,6.22-1.91" fill="none" stroke="#003a50" stroke-miterlimit="10"/></g><rect x="294.17" y="12.96" width="85.08" height="94.54" fill="none" stroke="#003a50" stroke-miterlimit="10"/><g clip-path="url(#clip-path)"><path d="M302.5,99.38h68.41a1.74,1.74,0,0,0,1.74-1.74V41.24H300.77v56.4A1.73,1.73,0,0,0,302.5,99.38Z" fill="none" stroke="#003a50" stroke-miterlimit="10"/><path d="M339.08,38.23h32.13a1.65,1.65,0,0,0,1.65-1.66V20.8a1.65,1.65,0,0,0-1.65-1.65H339.08a1.65,1.65,0,0,0-1.65,1.65V36.57A1.65,1.65,0,0,0,339.08,38.23Z" fill="none" stroke="#003a50" stroke-miterlimit="10"/><path d="M302.2,38.23h32.13A1.66,1.66,0,0,0,336,36.57V20.8a1.65,1.65,0,0,0-1.66-1.65H302.2a1.65,1.65,0,0,0-1.65,1.65V36.57A1.65,1.65,0,0,0,302.2,38.23Z" fill="none" stroke="#003a50" stroke-miterlimit="10"/></g><line x1="300.55" y1="52.79" x2="372.86" y2="52.79" fill="none" stroke="#003a50" stroke-miterlimit="10"/><g clip-path="url(#clip-path)"><path d="M178.63,94.36a3.4,3.4,0,0,0,3.13-2.1h1.93l5.09,3-2.31,3.77-2.66-1.46v11.82H172.72V97.62l-2.66,1.46-2.31-3.77,5.14-3h2.57A3.45,3.45,0,0,0,178.63,94.36Z" fill="none" stroke="#003a50" stroke-miterlimit="10"/><rect x="165.47" y="87.33" width="25.59" height="27.05" fill="none" stroke="#003a50" stroke-miterlimit="10"/><path d="M152.23,133.53a3.72,3.72,0,0,0,3.43-2.3h2.12l5.6,3.34-2.54,4.14-2.92-1.6v13H145.73v-13l-2.92,1.6-2.54-4.14,5.65-3.34h2.82A3.8,3.8,0,0,0,152.23,133.53Z" fill="none" stroke="#003a50" stroke-miterlimit="10"/></g><rect x="137.76" y="127.37" width="28.13" height="26.68" fill="none" stroke="#003a50" stroke-miterlimit="10"/><g clip-path="url(#clip-path)"><path d="M287.39,240.22a.94.94,0,0,0-.71,1.14A10.41,10.41,0,0,1,266.39,246a1,1,0,0,0-1.14-.71,1,1,0,0,0-.71,1.14,12.31,12.31,0,1,0,24-5.5A1,1,0,0,0,287.39,240.22Z" fill="none" stroke="#003a50" stroke-miterlimit="10"/><path d="M245.74,247.55a1,1,0,0,0-1.32-.25,10.41,10.41,0,1,1-11.72-17.2,1,1,0,0,0,.24-1.32.94.94,0,0,0-1.32-.25,12.31,12.31,0,1,0,13.86,20.34A1,1,0,0,0,245.74,247.55Z" fill="none" stroke="#003a50" stroke-miterlimit="10"/><path d="M243.85,211.76a1,1,0,0,0,1-.89,10.41,10.41,0,1,1,20.78,1.23,1,1,0,0,0,.89,1,.94.94,0,0,0,1-.89A12.31,12.31,0,0,0,243,210.76,1,1,0,0,0,243.85,211.76Z" fill="none" stroke="#003a50" stroke-miterlimit="10"/><path d="M276.67,252.76a9.58,9.58,0,0,0,9.06-11.69l-1.54-6.7a2.66,2.66,0,0,0-3.2-2l-10.15,2.33a17.83,17.83,0,0,1-4.53,7.12L267,245A9.8,9.8,0,0,0,276.67,252.76Z" fill="none" stroke="#003a50" stroke-miterlimit="10"/><path d="M244.36,246.33l1.75-1.21a18,18,0,0,1-10.3-16.1l-1.9,1.3a9.8,9.8,0,0,0-3.75,11.81A9.59,9.59,0,0,0,244.36,246.33Z" fill="none" stroke="#003a50" stroke-miterlimit="10"/><path d="M264.62,214.4l.09-1.48a9.76,9.76,0,0,0-7-10.17,9.54,9.54,0,0,0-12,8.66l-.1,1.39a18.14,18.14,0,0,1,12.57-1.45A17.84,17.84,0,0,1,264.62,214.4Z" fill="none" stroke="#003a50" stroke-miterlimit="10"/><path d="M266.31,241.8a17.93,17.93,0,0,0,4.53-7.13,13.15,13.15,0,0,0,.46-1.51,18,18,0,0,0-35-8.67,16.81,16.81,0,0,0-.51,4.53,18,18,0,0,0,10.3,16.1,17.78,17.78,0,0,0,3.38,1.21A18,18,0,0,0,266.31,241.8Z" fill="none" stroke="#003a50" stroke-miterlimit="10"/><path d="M306.19,347.3a2.35,2.35,0,0,1-2.51,2.14h-3.19A2.35,2.35,0,0,1,298,347.3V310.91h85.61V347a2.35,2.35,0,0,1-2.51,2.14h-3.19a2.35,2.35,0,0,1-2.51-2.14V314.65H306.19Z" fill="none" stroke="#003a50" stroke-miterlimit="10"/><path d="M340.82,266.9v31h34.56V265.23H342.49A1.67,1.67,0,0,0,340.82,266.9Z" fill="none" stroke="#003a50" stroke-miterlimit="10"/><path d="M306.19,266.73v31.15h34.56V266.73a1.5,1.5,0,0,0-1.5-1.5H307.69A1.5,1.5,0,0,0,306.19,266.73Z" fill="none" stroke="#003a50" stroke-miterlimit="10"/><path d="M375.38,265.23a2.35,2.35,0,0,1,2.51-2.14h3.19a2.35,2.35,0,0,1,2.51,2.14v36.39H298V265.55a2.35,2.35,0,0,1,2.51-2.14h3.19a2.35,2.35,0,0,1,2.51,2.14v32.34h69.19Z" fill="none" stroke="#003a50" stroke-miterlimit="10"/></g><rect x="306.19" y="290.9" width="69.19" height="6.98" fill="none" stroke="#003a50" stroke-miterlimit="10"/><g clip-path="url(#clip-path)"><rect x="240.83" y="-25.57" width="26.65" height="26.69" fill="none" stroke="#003a50" stroke-miterlimit="10"/><rect x="336.95" y="-25.59" width="26.12" height="26.12" fill="none" stroke="#003a50" stroke-miterlimit="10"/><rect x="214.09" y="-25.59" width="26.74" height="26.74" fill="none" stroke="#003a50" stroke-miterlimit="10"/><rect x="214.09" y="-25.59" width="198.3" height="29.62" fill="none" stroke="#003a50" stroke-miterlimit="10"/><rect x="108.84" y="310.01" width="26.69" height="28.24" fill="none" stroke="#003a50" stroke-miterlimit="10"/></g><rect x="164.74" y="244.78" width="26.69" height="28.24" fill="none" stroke="#003a50" stroke-miterlimit="10"/><g clip-path="url(#clip-path)"><path d="M181.84,257.6v-8.67h-6.75v8.67a2.77,2.77,0,0,0,2.77,2.78h1.2A2.78,2.78,0,0,0,181.84,257.6Z" fill="none" stroke="#003a50" stroke-miterlimit="10"/></g><polyline points="175.74 268.66 178.46 268.66 181.19 268.66" fill="none" stroke="#003a50" stroke-miterlimit="10"/><line x1="178.46" y1="260.38" x2="178.46" y2="268.66" fill="none" stroke="#003a50" stroke-miterlimit="10"/><rect x="191.67" y="272.84" width="27.5" height="28.24" fill="none" stroke="#003a50" stroke-miterlimit="10"/><g clip-path="url(#clip-path)"><circle cx="199.13" cy="280.44" r="3.75" fill="none" stroke="#003a50" stroke-miterlimit="10"/><circle cx="211.65" cy="280.44" r="3.75" fill="none" stroke="#003a50" stroke-miterlimit="10"/><circle cx="199.13" cy="292.64" r="3.75" fill="none" stroke="#003a50" stroke-miterlimit="10"/><circle cx="211.65" cy="292.64" r="3.75" fill="none" stroke="#003a50" stroke-miterlimit="10"/></g><polyline points="169.78 231.59 169.78 226.92 169.78 222.26" fill="none" stroke="#003a50" stroke-miterlimit="10"/><line x1="179.14" y1="226.91" x2="169.78" y2="226.91" fill="none" stroke="#003a50" stroke-miterlimit="10"/><g clip-path="url(#clip-path)"><rect x="173.78" y="216.61" width="14.9" height="20.66" rx="3.24" fill="none" stroke="#003a50" stroke-miterlimit="10"/><path d="M180.31,226.91a1.67,1.67,0,1,1-1.67-1.67A1.67,1.67,0,0,1,180.31,226.91Z" fill="none" stroke="#003a50" stroke-miterlimit="10"/></g><rect x="164.34" y="208.49" width="27.09" height="94.36" fill="none" stroke="#003a50" stroke-miterlimit="10"/><rect x="192.4" y="126.97" width="30.83" height="27.09" fill="none" stroke="#003a50" stroke-miterlimit="10"/><g clip-path="url(#clip-path)"><rect x="135.65" y="311.51" width="26.74" height="26.74" fill="none" stroke="#003a50" stroke-miterlimit="10"/></g><rect x="165.89" y="127.55" width="26.51" height="26.51" fill="none" stroke="#003a50" stroke-miterlimit="10"/><line x1="171.37" y1="140.8" x2="186.92" y2="140.8" fill="none" stroke="#003a50" stroke-miterlimit="10"/><line x1="179.14" y1="133.02" x2="179.14" y2="148.58" fill="none" stroke="#003a50" stroke-miterlimit="10"/><line x1="173.64" y1="135.3" x2="184.64" y2="146.3" fill="none" stroke="#003a50" stroke-miterlimit="10"/><line x1="184.64" y1="135.3" x2="173.65" y2="146.3" fill="none" stroke="#003a50" stroke-miterlimit="10"/><g clip-path="url(#clip-path)"><path d="M111.19,1.33V-1c0-16-14-28.89-31.19-28.89V1.33" fill="none" stroke="#003a50" stroke-miterlimit="10" stroke-width="1.6"/><path d="M136.76,210.88v-2.3c0-16-14-28.89-31.2-28.89v31.19" fill="none" stroke="#003a50" stroke-miterlimit="10" stroke-width="1.6"/><path d="M293.4,151.78v-2.69c0-18.67-16.34-33.81-36.5-33.81v36.5" fill="none" stroke="#003a50" stroke-miterlimit="10" stroke-width="1.6"/><path d="M43.53,205.86H40.45C19,205.86,1.69,187.13,1.69,164H43.53" fill="none" stroke="#003a50" stroke-miterlimit="10" stroke-width="1.6"/></g><rect x="49.06" y="208" width="57.3" height="5.75" fill="#003a50"/><rect x="51.93" y="237.38" width="22.72" height="5.75" fill="#003a50"/><rect x="135.94" y="208" width="28.92" height="5.75" fill="#003a50"/><rect x="159.11" y="208" width="5.75" height="93.18" fill="#003a50"/><rect x="41.14" y="114.24" width="5.75" height="4.78" fill="#003a50"/><rect x="71.23" y="211.88" width="5.75" height="93.18" fill="#003a50"/><rect x="51.13" y="148.81" width="23.33" height="5.75" fill="#003a50"/><rect x="68.71" y="123.07" width="5.75" height="31.49" fill="#003a50"/><rect x="212.83" y="18.02" width="4.49" height="5.75" fill="#003a50"/><rect x="221.65" y="148.81" width="36.03" height="5.75" fill="#003a50"/><rect x="292.48" y="148.81" width="119.17" height="5.75" fill="#003a50"/><rect x="221.65" y="121.87" width="5.75" height="32.7" fill="#003a50"/><rect x="134.81" y="114.24" width="5.75" height="3.37" fill="#003a50"/><rect x="212.83" width="3.79" height="5.52" fill="#003a50"/><rect x="407.15" y="9.27" width="40.51" height="13.42" fill="#003a50"/><g clip-path="url(#clip-path)"><rect x="407.15" y="9.27" width="40.51" height="13.42" fill="none" stroke="#003a50" stroke-miterlimit="10" stroke-width="2.09"/></g><rect x="407.15" y="95.27" width="40.51" height="13.42" fill="#003a50"/><g clip-path="url(#clip-path)"><rect x="407.15" y="95.27" width="40.51" height="13.42" fill="none" stroke="#003a50" stroke-miterlimit="10" stroke-width="2.09"/></g><rect x="407.15" y="168.02" width="40.51" height="13.42" fill="#003a50"/><g clip-path="url(#clip-path)"><rect x="407.15" y="168.02" width="40.51" height="13.42" fill="none" stroke="#003a50" stroke-miterlimit="10" stroke-width="2.09"/></g><rect x="407.15" y="253.53" width="40.51" height="13.42" fill="#003a50"/><g clip-path="url(#clip-path)"><rect x="407.15" y="253.53" width="40.51" height="13.42" fill="none" stroke="#003a50" stroke-miterlimit="10" stroke-width="2.09"/></g><rect x="407.15" width="30.25" height="22.69" fill="#003a50"/><g clip-path="url(#clip-path)"><rect x="407.15" y="-63.48" width="30.25" height="86.17" fill="none" stroke="#003a50" stroke-miterlimit="10" stroke-width="2.09"/></g><rect x="407.15" y="95.27" width="30.25" height="86.17" fill="#003a50"/><rect x="407.15" y="95.27" width="30.25" height="86.17" fill="none" stroke="#003a50" stroke-miterlimit="10" stroke-width="2.09"/><rect x="407.15" y="253.53" width="30.25" height="58.28" fill="#003a50"/><g clip-path="url(#clip-path)"><rect x="407.15" y="253.53" width="30.25" height="86.17" fill="none" stroke="#003a50" stroke-miterlimit="10" stroke-width="2.09"/></g><rect x="41.15" y="114.24" width="14.75" height="50.53" fill="#003a50"/><polygon points="212.83 0 212.83 114.24 212.64 114.24 212.64 128.02 227.4 128.02 227.4 0 212.83 0" fill="#003a50"/><rect x="41.14" y="205" width="14.75" height="106.81" fill="#003a50"/><rect x="46.03" y="300.6" width="381.38" height="11.21" fill="#003a50"/><polygon points="212.83 114.1 212.83 114.24 46.03 114.24 46.02 128.02 227.39 128.02 227.4 114.1 212.83 114.1" fill="#003a50"/><rect x="65.89" y="114.24" width="10.33" height="4.78" fill="#003a50"/><rect x="212.83" width="208.57" height="13.69" fill="#003a50"/><rect x="68.14" y="305.94" width="14.75" height="5.87" fill="#003a50"/><g clip-path="url(#clip-path)"><path d="M88.41,42.75H82.59V40.91h8.86v1.84L86.92,45.4v.07H88.2a3.9,3.9,0,0,1,2.79,1,3.53,3.53,0,0,1,1.06,2.67A3.35,3.35,0,0,1,90.72,52a6.93,6.93,0,0,1-7.24,0,3.35,3.35,0,0,1-1.33-2.85v-.33h2.11v.33c0,1.36.94,2,2.84,2s2.84-.67,2.84-2-1-2-2.84-2H83.83V45.5l4.58-2.68Z" fill="#003a50"/><path d="M94.15,52.69a1.15,1.15,0,0,1,0-1.61,1.4,1.4,0,0,1,1.73,0,1.15,1.15,0,0,1,0,1.61,1.4,1.4,0,0,1-1.73,0Z" fill="#003a50"/><path d="M99.55,51.28a6.46,6.46,0,0,1-1.47-4.42,6.49,6.49,0,0,1,1.47-4.41,5.69,5.69,0,0,1,8.13,0,6.45,6.45,0,0,1,1.48,4.41,6.42,6.42,0,0,1-1.48,4.42,5.69,5.69,0,0,1-8.13,0Zm6.53-1.38a5.73,5.73,0,0,0,0-6.07,3.15,3.15,0,0,0-4.92,0,5,5,0,0,0-.88,3,5,5,0,0,0,.88,3,3.15,3.15,0,0,0,4.92,0Z" fill="#003a50"/><path d="M112,218.33h-5.82v-1.85H115v1.85L110.51,221V221h1.28a3.87,3.87,0,0,1,2.79,1,3.51,3.51,0,0,1,1.06,2.66,3.35,3.35,0,0,1-1.33,2.83,7,7,0,0,1-7.24,0,3.37,3.37,0,0,1-1.33-2.86v-.32h2.11v.32c0,1.36.94,2,2.84,2s2.84-.66,2.84-2-1-2-2.84-2h-3.27v-1.67l4.58-2.69Z" fill="#003a50"/><path d="M117.74,228.26a1,1,0,0,1-.33-.81,1,1,0,0,1,.33-.8,1.4,1.4,0,0,1,1.73,0,1,1,0,0,1,.33.8,1,1,0,0,1-.33.81,1.4,1.4,0,0,1-1.73,0Z" fill="#003a50"/><path d="M131.36,219.84h-2.21s0-.06,0-.18a3.23,3.23,0,0,0-.21-.43,2.4,2.4,0,0,0-.39-.5,1.86,1.86,0,0,0-.71-.42,3.29,3.29,0,0,0-1-.16,2.52,2.52,0,0,0-2.15,1,4.44,4.44,0,0,0-.77,2.69h.06a1.81,1.81,0,0,1,.44-.44,4.24,4.24,0,0,1,.61-.36,3.81,3.81,0,0,1,1-.3,5.49,5.49,0,0,1,1.22-.13,5.05,5.05,0,0,1,3.37,1.11,3.51,3.51,0,0,1,1.3,2.8,3.56,3.56,0,0,1-1.36,2.9,5.49,5.49,0,0,1-3.6,1.11A4.81,4.81,0,0,1,123,227a6.35,6.35,0,0,1-1.32-4.26v-.41A6.85,6.85,0,0,1,123,218a4.5,4.5,0,0,1,3.8-1.71,5.66,5.66,0,0,1,2.13.37,4,4,0,0,1,1.43.94A3.46,3.46,0,0,1,131.36,219.84ZM128.85,223a3.65,3.65,0,0,0-3.95,0,2,2,0,0,0,0,3.14,3.15,3.15,0,0,0,2,.59,3.2,3.2,0,0,0,2-.59,2,2,0,0,0,0-3.14Z" fill="#003a50"/><path d="M160.2,42.75h-5.82V40.91h8.86v1.84l-4.53,2.65v.07H160a3.9,3.9,0,0,1,2.79,1,3.5,3.5,0,0,1,1.06,2.67A3.35,3.35,0,0,1,162.51,52a6.93,6.93,0,0,1-7.24,0,3.35,3.35,0,0,1-1.33-2.85v-.33h2.11v.33c0,1.36.94,2,2.84,2s2.84-.67,2.84-2-.95-2-2.84-2h-3.27V45.5l4.58-2.68Z" fill="#003a50"/><path d="M165.94,52.69a1.15,1.15,0,0,1,0-1.61,1.4,1.4,0,0,1,1.73,0,1.15,1.15,0,0,1,0,1.61,1.4,1.4,0,0,1-1.73,0Z" fill="#003a50"/><path d="M173.05,52.82H170.7l5.41-10h-6.92V40.91h9.28v1.88Z" fill="#003a50"/><path d="M77.06,187.52H75v-2.65H68V183l6.29-7.42h2.79V183h1.6v1.84h-1.6ZM75,183v-5.32h-.06L70.41,183V183Z" fill="#003a50"/><path d="M80.34,187.39a1,1,0,0,1-.32-.81,1.06,1.06,0,0,1,.32-.8,1.41,1.41,0,0,1,1.74,0,1.06,1.06,0,0,1,.32.8,1,1,0,0,1-.32.81,1.41,1.41,0,0,1-1.74,0Z" fill="#003a50"/><path d="M86.25,178.17l-2.49,2v-2.24l2.74-2.27h1.86v11.91H86.25Z" fill="#003a50"/><path d="M331.35,117.42l-2.48,2v-2.24l2.73-2.27h1.86v11.91h-2.11Z" fill="#003a50"/><path d="M345.85,126.77h-9.93v-1.56a2.74,2.74,0,0,1,.58-1.74,4,4,0,0,1,1.44-1.2c.5-.26,1.12-.54,1.87-.86s1.32-.56,1.88-.78a4.07,4.07,0,0,0,1.44-.91,1.77,1.77,0,0,0,.58-1.3q0-1.89-2.67-1.89t-2.67,2.16v.41h-2.11v-.41a3.62,3.62,0,0,1,1.26-3,5.38,5.38,0,0,1,3.51-1,5.66,5.66,0,0,1,3.52,1,3.3,3.3,0,0,1,1.27,2.75,3.17,3.17,0,0,1-.56,1.83,4.39,4.39,0,0,1-1.4,1.31c-.6.34-1.21.65-1.84.93s-1.23.52-1.83.74a5.26,5.26,0,0,0-1.4.75,1.21,1.21,0,0,0-.56,1h7.62Z" fill="#003a50"/><path d="M348,126.64a1.17,1.17,0,0,1,0-1.61,1.41,1.41,0,0,1,1.74,0,1.17,1.17,0,0,1,0,1.61,1.41,1.41,0,0,1-1.74,0Z" fill="#003a50"/><path d="M358.06,116.71h-5.82v-1.85h8.86v1.85l-4.53,2.64v.07h1.28a3.9,3.9,0,0,1,2.79,1,3.53,3.53,0,0,1,1.06,2.67,3.35,3.35,0,0,1-1.33,2.82,7,7,0,0,1-7.25,0,3.37,3.37,0,0,1-1.32-2.85v-.33h2.11v.33c0,1.36.94,2,2.84,2s2.84-.67,2.84-2-.95-2-2.84-2h-3.27v-1.67l4.58-2.68Z" fill="#003a50"/><path d="M331.26,215.89l-2.48,2V215.6l2.73-2.26h1.86v11.91h-2.11Z" fill="#003a50"/><path d="M344.57,224.48a7.73,7.73,0,0,1-7.37,0,2.93,2.93,0,0,1-1.37-2.55,2.71,2.71,0,0,1,.26-1.17,2.29,2.29,0,0,1,.66-.85,3.86,3.86,0,0,1,1.39-.77l.26-.07V219a3.57,3.57,0,0,1-.77-.29,2.91,2.91,0,0,1-.66-.44,2.24,2.24,0,0,1-.54-.76,2.38,2.38,0,0,1-.22-1,2.79,2.79,0,0,1,1.25-2.38,7,7,0,0,1,6.85,0,2.83,2.83,0,0,1,1.25,2.38,2.58,2.58,0,0,1-.22,1,1.85,1.85,0,0,1-.56.75,3.59,3.59,0,0,1-1.19.68l-.23.05v.09a1.79,1.79,0,0,1,.29.07,4,4,0,0,1,.62.26,4.28,4.28,0,0,1,.77.51,2.67,2.67,0,0,1,.89,2A2.94,2.94,0,0,1,344.57,224.48Zm-5.79-1.35a3.84,3.84,0,0,0,2.1.48,3.94,3.94,0,0,0,2.1-.47,1.6,1.6,0,0,0,0-2.7,4.93,4.93,0,0,0-4.2,0,1.59,1.59,0,0,0,0,2.69Zm-.36-6.52a1.36,1.36,0,0,0,.64,1.19,4,4,0,0,0,3.64,0,1.42,1.42,0,0,0,0-2.39,3.94,3.94,0,0,0-3.62,0A1.35,1.35,0,0,0,338.42,216.61Z" fill="#003a50"/><path d="M348,225.11a1,1,0,0,1-.32-.8,1,1,0,0,1,.32-.81,1.41,1.41,0,0,1,1.74,0,1.07,1.07,0,0,1,.32.81,1,1,0,0,1-.32.8,1.41,1.41,0,0,1-1.74,0Z" fill="#003a50"/><path d="M358.15,215.18h-5.82v-1.84h8.86v1.84l-4.53,2.65v.07h1.28a3.86,3.86,0,0,1,2.79,1,3.52,3.52,0,0,1,1,2.67,3.34,3.34,0,0,1-1.32,2.82,7,7,0,0,1-7.25,0,3.39,3.39,0,0,1-1.33-2.86v-.32H354v.32c0,1.36.95,2,2.84,2s2.84-.67,2.84-2-.94-2-2.84-2h-3.26v-1.67l4.58-2.68Z" fill="#003a50"/><path d="M431.77,86a5.2,5.2,0,0,1-6.24,0,4,4,0,0,1,0-5.74,5.2,5.2,0,0,1,6.24,0,4,4,0,0,1,0,5.74Zm-1-4.61a4.08,4.08,0,0,0-4.29,0,2.23,2.23,0,0,0,0,3.47,4,4,0,0,0,4.29,0,2,2,0,0,0,.83-1.73A2,2,0,0,0,430.79,81.37Z" fill="#003a50"/><path d="M432.76,77.65a.82.82,0,0,1-1.14,0,.87.87,0,0,1-.21-.61.85.85,0,0,1,.21-.61.82.82,0,0,1,1.14,0A.85.85,0,0,1,433,77,.87.87,0,0,1,432.76,77.65Z" fill="#003a50"/><path d="M426.81,68V69.6s0,0-.12,0a1.2,1.2,0,0,0-.31.15,1.56,1.56,0,0,0-.35.27,1.4,1.4,0,0,0-.29.5,2.08,2.08,0,0,0-.12.71,1.78,1.78,0,0,0,.73,1.52,3.11,3.11,0,0,0,1.89.54v0a1.11,1.11,0,0,1-.3-.31,2.73,2.73,0,0,1-.26-.43,3.14,3.14,0,0,1-.21-.67,4,4,0,0,1-.09-.86,3.57,3.57,0,0,1,.78-2.38,2.49,2.49,0,0,1,2-.92,2.54,2.54,0,0,1,2.05,1,3.92,3.92,0,0,1,.78,2.55A3.41,3.41,0,0,1,431.88,74a4.5,4.5,0,0,1-3,.93h-.29a4.83,4.83,0,0,1-3-.93,3.18,3.18,0,0,1-1.21-2.69,4.14,4.14,0,0,1,.26-1.5,2.83,2.83,0,0,1,.67-1A2.43,2.43,0,0,1,426.81,68ZM429,69.81a2.53,2.53,0,0,0,0,2.79,1.3,1.3,0,0,0,1.11.55,1.34,1.34,0,0,0,1.11-.54,2.6,2.6,0,0,0,0-2.8,1.32,1.32,0,0,0-1.11-.55A1.3,1.3,0,0,0,429,69.81Z" fill="#003a50"/><path d="M431.77,243.43a5.2,5.2,0,0,1-6.24,0,4,4,0,0,1,0-5.74,5.2,5.2,0,0,1,6.24,0,4,4,0,0,1,0,5.74Zm-1-4.61a4.08,4.08,0,0,0-4.29,0,2.23,2.23,0,0,0,0,3.47,4,4,0,0,0,4.29,0,2,2,0,0,0,.83-1.73A2,2,0,0,0,430.79,238.82Z" fill="#003a50"/><path d="M432.76,235.1a.82.82,0,0,1-1.14,0,.87.87,0,0,1-.21-.61.85.85,0,0,1,.21-.61.82.82,0,0,1,1.14,0,.85.85,0,0,1,.21.61A.87.87,0,0,1,432.76,235.1Z" fill="#003a50"/><path d="M426.81,225.49v1.56s0,0-.12,0a1.2,1.2,0,0,0-.31.15,1.91,1.91,0,0,0-.35.27,1.4,1.4,0,0,0-.29.5,2.09,2.09,0,0,0-.12.72,1.77,1.77,0,0,0,.73,1.51,3.11,3.11,0,0,0,1.89.54v0a1.11,1.11,0,0,1-.3-.31,2.73,2.73,0,0,1-.26-.43,3.14,3.14,0,0,1-.21-.67,4,4,0,0,1-.09-.86,3.57,3.57,0,0,1,.78-2.38,2.62,2.62,0,0,1,4,0,3.87,3.87,0,0,1,.78,2.54,3.41,3.41,0,0,1-1.09,2.73,4.5,4.5,0,0,1-3,.93h-.29a4.83,4.83,0,0,1-3-.93,3.18,3.18,0,0,1-1.21-2.68,4.06,4.06,0,0,1,.26-1.5,2.87,2.87,0,0,1,.67-1A2.43,2.43,0,0,1,426.81,225.49Zm2.23,1.77a2.53,2.53,0,0,0,0,2.79,1.3,1.3,0,0,0,1.11.55,1.34,1.34,0,0,0,1.11-.54,2.6,2.6,0,0,0,0-2.8,1.32,1.32,0,0,0-1.11-.55A1.3,1.3,0,0,0,429,227.26Z" fill="#003a50"/></g></svg>