<svg id="Слой_1" data-name="Слой 1" xmlns="http://www.w3.org/2000/svg" xmlns:xlink="http://www.w3.org/1999/xlink" viewBox="0 0 449.86 310.68"><defs><clipPath id="clip-path"><rect width="449.86" height="310.68" fill="none"/></clipPath></defs><rect x="41.43" y="4.38" width="396.25" height="300.19" fill="#fff"/><rect x="41.43" width="396.25" height="4.38" fill="#fff"/><g clip-path="url(#clip-path)"><line x1="437.68" y1="-721.75" x2="437.68" y2="404.25" fill="none" stroke="#003a50" stroke-miterlimit="10"/><polyline points="447.94 393.36 447.94 -710.25 424.94 -733.25 -416.68 -733.25 -439.68 -710.25 -439.68 635.88 -320.07 635.88 -320.07 1761" fill="none" stroke="#003a50" stroke-miterlimit="10"/></g><rect x="414.5" y="40.2" width="4.55" height="69.92" fill="#fff"/><rect x="414.5" y="40.2" width="4.55" height="69.92" fill="none" stroke="#003a50" stroke-miterlimit="10"/><line x1="416.77" y1="40.2" x2="416.77" y2="110.11" fill="none" stroke="#003a50" stroke-miterlimit="10"/><rect x="414.5" y="40.2" width="4.55" height="4.42" fill="#fff"/><rect x="414.5" y="40.2" width="4.55" height="4.42" fill="none" stroke="#003a50" stroke-miterlimit="10"/><rect x="414.5" y="105.7" width="4.55" height="4.42" fill="#fff"/><rect x="414.5" y="105.7" width="4.55" height="4.42" fill="none" stroke="#003a50" stroke-miterlimit="10"/><rect x="414.5" y="70.74" width="4.55" height="4.42" fill="#fff"/><rect x="414.5" y="70.74" width="4.55" height="4.42" fill="none" stroke="#003a50" stroke-miterlimit="10"/><g clip-path="url(#clip-path)"><path d="M414.5,75.16H412c-17.61,0-28.92,13.67-28.92,30.54H414.5" fill="none" stroke="#003a50" stroke-miterlimit="10"/></g><rect x="414.5" y="198.2" width="4.55" height="72.37" fill="#fff"/><rect x="414.5" y="198.2" width="4.55" height="72.37" fill="none" stroke="#003a50" stroke-miterlimit="10"/><line x1="416.77" y1="198.2" x2="416.77" y2="270.57" fill="none" stroke="#003a50" stroke-miterlimit="10"/><rect x="414.5" y="198.2" width="4.55" height="4.58" fill="#fff"/><rect x="414.5" y="198.2" width="4.55" height="4.58" fill="none" stroke="#003a50" stroke-miterlimit="10"/><rect x="414.5" y="266" width="4.55" height="4.58" fill="#fff"/><rect x="414.5" y="266" width="4.55" height="4.58" fill="none" stroke="#003a50" stroke-miterlimit="10"/><rect x="414.5" y="229.81" width="4.55" height="4.58" fill="#fff"/><rect x="414.5" y="229.81" width="4.55" height="4.58" fill="none" stroke="#003a50" stroke-miterlimit="10"/><g clip-path="url(#clip-path)"><path d="M414.5,234.39H412c-17.61,0-28.92,14.15-28.92,31.61H414.5" fill="none" stroke="#003a50" stroke-miterlimit="10"/><rect x="76.46" y="-37.08" width="83.84" height="37.52" fill="none" stroke="#003a50" stroke-miterlimit="10"/></g><rect x="203.87" y="134.86" width="208.48" height="13.62" fill="none" stroke="#003a50" stroke-miterlimit="10"/><polygon points="310.5 141.24 344.87 144.07 379.4 141.24 379.4 139.27 310.5 139.27 310.5 141.24" fill="none" stroke="#003a50" stroke-miterlimit="10"/><rect x="246.19" y="152.58" width="81.75" height="13.62" fill="none" stroke="#003a50" stroke-miterlimit="10"/><polygon points="321.51 159.83 287.15 157.01 252.62 159.83 252.62 161.8 321.51 161.8 321.51 159.83" fill="none" stroke="#003a50" stroke-miterlimit="10"/><rect x="81.85" y="125.37" width="61.79" height="27.7" fill="none" stroke="#003a50" stroke-miterlimit="10"/><g clip-path="url(#clip-path)"><path d="M111.24,149.15a.83.83,0,0,0,.42.73.76.76,0,0,0,1-.37,24.73,24.73,0,0,0,0-20.57.75.75,0,0,0-1-.37.82.82,0,0,0-.35,1.09,23,23,0,0,1,0,19.13A.76.76,0,0,0,111.24,149.15Z" fill="none" stroke="#003a50" stroke-miterlimit="10"/><path d="M115.5,149.15a.82.82,0,0,0,.43.73.75.75,0,0,0,1-.37,24.73,24.73,0,0,0,0-20.57.74.74,0,0,0-1-.37.84.84,0,0,0-.36,1.09,22.93,22.93,0,0,1,0,19.13A.9.9,0,0,0,115.5,149.15Z" fill="none" stroke="#003a50" stroke-miterlimit="10"/><path d="M119.77,149.15a.82.82,0,0,0,.43.73.75.75,0,0,0,1-.37,24.73,24.73,0,0,0,0-20.57.75.75,0,0,0-1-.37.83.83,0,0,0-.35,1.09,23,23,0,0,1,0,19.13A.76.76,0,0,0,119.77,149.15Z" fill="none" stroke="#003a50" stroke-miterlimit="10"/><path d="M124,149.15a.82.82,0,0,0,.43.73.75.75,0,0,0,1-.37,24.73,24.73,0,0,0,0-20.57.75.75,0,0,0-1-.37.83.83,0,0,0-.35,1.09,23,23,0,0,1,0,19.13A.76.76,0,0,0,124,149.15Z" fill="none" stroke="#003a50" stroke-miterlimit="10"/><path d="M128.3,149.15a.82.82,0,0,0,.43.73.75.75,0,0,0,1-.37,24.73,24.73,0,0,0,0-20.57.74.74,0,0,0-1-.37.84.84,0,0,0-.36,1.09,22.93,22.93,0,0,1,0,19.13A.9.9,0,0,0,128.3,149.15Z" fill="none" stroke="#003a50" stroke-miterlimit="10"/><path d="M132.57,149.15a.82.82,0,0,0,.43.73.75.75,0,0,0,1-.37,24.73,24.73,0,0,0,0-20.57.75.75,0,0,0-1-.37.83.83,0,0,0-.35,1.09,23,23,0,0,1,0,19.13A.9.9,0,0,0,132.57,149.15Z" fill="none" stroke="#003a50" stroke-miterlimit="10"/><path d="M107,149.15a.82.82,0,0,0,.43.73.75.75,0,0,0,1-.37,24.73,24.73,0,0,0,0-20.57.75.75,0,0,0-1-.37.83.83,0,0,0-.35,1.09,23,23,0,0,1,0,19.13A.76.76,0,0,0,107,149.15Z" fill="none" stroke="#003a50" stroke-miterlimit="10"/><path d="M102.7,149.15a.82.82,0,0,0,.43.73.75.75,0,0,0,1-.37,24.73,24.73,0,0,0,0-20.57.74.74,0,0,0-1-.37.84.84,0,0,0-.36,1.09,22.93,22.93,0,0,1,0,19.13A.9.9,0,0,0,102.7,149.15Z" fill="none" stroke="#003a50" stroke-miterlimit="10"/></g><line x1="81.85" y1="139.23" x2="143.64" y2="139.23" fill="none" stroke="#003a50" stroke-miterlimit="10"/><rect x="181.04" y="211.88" width="26.08" height="86.93" fill="none" stroke="#003a50" stroke-miterlimit="10"/><g clip-path="url(#clip-path)"><path d="M203.42,285.68a.76.76,0,0,0,.69-.43.77.77,0,0,0-.35-1,22,22,0,0,0-19.36,0,.77.77,0,1,0,.68,1.38,20.53,20.53,0,0,1,18,0A.64.64,0,0,0,203.42,285.68Z" fill="none" stroke="#003a50" stroke-miterlimit="10"/><path d="M203.42,281.41a.76.76,0,0,0,.69-.43.77.77,0,0,0-.35-1,22,22,0,0,0-19.36,0,.77.77,0,0,0,.68,1.38,20.53,20.53,0,0,1,18,0A.64.64,0,0,0,203.42,281.41Z" fill="none" stroke="#003a50" stroke-miterlimit="10"/><path d="M203.42,277.15a.77.77,0,0,0,.34-1.46,22,22,0,0,0-19.36,0,.75.75,0,0,0-.35,1,.77.77,0,0,0,1,.36,20.53,20.53,0,0,1,18,0A.76.76,0,0,0,203.42,277.15Z" fill="none" stroke="#003a50" stroke-miterlimit="10"/><path d="M203.42,272.88a.76.76,0,0,0,.69-.43.77.77,0,0,0-.35-1,22,22,0,0,0-19.36,0,.77.77,0,1,0,.68,1.38,20.53,20.53,0,0,1,18,0A.76.76,0,0,0,203.42,272.88Z" fill="none" stroke="#003a50" stroke-miterlimit="10"/><path d="M203.42,268.61a.76.76,0,0,0,.69-.43.77.77,0,0,0-.35-1,22,22,0,0,0-19.36,0,.77.77,0,0,0,.68,1.38,20.53,20.53,0,0,1,18,0A.64.64,0,0,0,203.42,268.61Z" fill="none" stroke="#003a50" stroke-miterlimit="10"/><path d="M203.42,264.35a.77.77,0,0,0,.34-1.46,22,22,0,0,0-19.36,0,.75.75,0,0,0-.35,1,.77.77,0,0,0,1,.36,20.53,20.53,0,0,1,18,0A.76.76,0,0,0,203.42,264.35Z" fill="none" stroke="#003a50" stroke-miterlimit="10"/><path d="M203.42,290a.77.77,0,0,0,.34-1.46,22,22,0,0,0-19.36,0,.75.75,0,0,0-.35,1,.77.77,0,0,0,1,.36,20.53,20.53,0,0,1,18,0A.76.76,0,0,0,203.42,290Z" fill="none" stroke="#003a50" stroke-miterlimit="10"/><path d="M203.42,294.21a.77.77,0,0,0,.69-.42.78.78,0,0,0-.35-1,22,22,0,0,0-19.36,0,.77.77,0,0,0-.35,1,.76.76,0,0,0,1,.35,20.53,20.53,0,0,1,18,0A.64.64,0,0,0,203.42,294.21Z" fill="none" stroke="#003a50" stroke-miterlimit="10"/></g><line x1="194.08" y1="298.8" x2="194.08" y2="210.41" fill="none" stroke="#003a50" stroke-miterlimit="10"/><rect x="217.58" y="279.9" width="18.91" height="18.91" fill="none" stroke="#003a50" stroke-miterlimit="10"/><g clip-path="url(#clip-path)"><path d="M232.45,283.93a7.67,7.67,0,1,0,0,10.84A7.67,7.67,0,0,0,232.45,283.93Z" fill="none" stroke="#003a50" stroke-miterlimit="10"/><path d="M233,284.51c-1.41.14-2.84-.41-4.22,1-2,2,.12,4.19-1.91,6.22s-4.19-.12-6.22,1.91" fill="none" stroke="#003a50" stroke-miterlimit="10"/></g><rect x="332.06" y="279.9" width="18.91" height="18.91" fill="none" stroke="#003a50" stroke-miterlimit="10"/><g clip-path="url(#clip-path)"><path d="M346.93,283.93a7.67,7.67,0,1,0,0,10.84A7.67,7.67,0,0,0,346.93,283.93Z" fill="none" stroke="#003a50" stroke-miterlimit="10"/><path d="M347.45,284.51c-1.41.14-2.84-.41-4.22,1-2,2,.12,4.19-1.91,6.22s-4.19-.12-6.22,1.91" fill="none" stroke="#003a50" stroke-miterlimit="10"/></g><rect x="241.76" y="204.26" width="85.08" height="94.54" fill="none" stroke="#003a50" stroke-miterlimit="10"/><g clip-path="url(#clip-path)"><path d="M318.51,212.38H250.1a1.74,1.74,0,0,0-1.74,1.74v56.4h71.89v-56.4A1.74,1.74,0,0,0,318.51,212.38Z" fill="none" stroke="#003a50" stroke-miterlimit="10"/><path d="M281.93,273.53H249.8a1.65,1.65,0,0,0-1.65,1.66V291a1.65,1.65,0,0,0,1.65,1.65h32.13a1.65,1.65,0,0,0,1.65-1.65V275.19A1.65,1.65,0,0,0,281.93,273.53Z" fill="none" stroke="#003a50" stroke-miterlimit="10"/><path d="M318.81,273.53H286.68a1.65,1.65,0,0,0-1.65,1.66V291a1.65,1.65,0,0,0,1.65,1.65h32.13a1.65,1.65,0,0,0,1.65-1.65V275.19A1.65,1.65,0,0,0,318.81,273.53Z" fill="none" stroke="#003a50" stroke-miterlimit="10"/></g><line x1="320.46" y1="258.97" x2="248.15" y2="258.97" fill="none" stroke="#003a50" stroke-miterlimit="10"/><rect x="139.17" y="216.83" width="36.73" height="82.09" fill="none" stroke="#003a50" stroke-miterlimit="10"/><g clip-path="url(#clip-path)"><path d="M171.34,282V233.77a13.56,13.56,0,0,0-13.79-13.33h0a13.57,13.57,0,0,0-13.8,13.33V282a13.57,13.57,0,0,0,13.8,13.32h0A13.56,13.56,0,0,0,171.34,282Z" fill="none" stroke="#003a50" stroke-miterlimit="10"/><ellipse cx="157.53" cy="282.28" rx="2" ry="1.93" fill="none" stroke="#003a50" stroke-miterlimit="10"/><path d="M97.64,249.14H74.43V230.8H97.64a9.17,9.17,0,1,1,0,18.34Z" fill="none" stroke="#003a50" stroke-miterlimit="10"/></g><line x1="83.47" y1="230.8" x2="83.47" y2="249.14" fill="none" stroke="#003a50" stroke-miterlimit="10"/><g clip-path="url(#clip-path)"><path d="M133.09,282.65v15.79a2.31,2.31,0,0,1-2.31,2.31H115.5a2.31,2.31,0,0,1-2.3-2.31V282.65a2.3,2.3,0,0,1,2.3-2.31h15.28A2.3,2.3,0,0,1,133.09,282.65Z" fill="none" stroke="#003a50" stroke-miterlimit="10"/><path d="M123.14,289a1.56,1.56,0,1,1-1.55,1.55A1.55,1.55,0,0,1,123.14,289Z" fill="none" stroke="#003a50" stroke-miterlimit="10"/></g><rect x="105.82" y="276.28" width="33.34" height="22.66" fill="none" stroke="#003a50" stroke-miterlimit="10"/><g clip-path="url(#clip-path)"><path d="M93.52,281.87A3,3,0,0,1,90.76,280H89.05l-4.51,2.69,2,3.34,2.36-1.29v10.46h9.82V284.75l2.35,1.29,2-3.34L98.6,280H96.33A3.05,3.05,0,0,1,93.52,281.87Z" fill="none" stroke="#003a50" stroke-miterlimit="10"/></g><rect x="81.87" y="276.28" width="23.94" height="22.66" fill="none" stroke="#003a50" stroke-miterlimit="10"/><g clip-path="url(#clip-path)"><path d="M262.82,75.41a1,1,0,0,0-.71,1.14,10.41,10.41,0,0,1-20.3,4.65.94.94,0,0,0-1.13-.71,1,1,0,0,0-.72,1.14,12.31,12.31,0,0,0,24-5.5A1,1,0,0,0,262.82,75.41Z" fill="none" stroke="#003a50" stroke-miterlimit="10"/><path d="M221.16,82.75a.94.94,0,0,0-1.32-.25,10.41,10.41,0,1,1-11.72-17.2,1,1,0,0,0,.25-1.32.94.94,0,0,0-1.32-.25,12.31,12.31,0,1,0,13.86,20.34A.94.94,0,0,0,221.16,82.75Z" fill="none" stroke="#003a50" stroke-miterlimit="10"/><path d="M219.27,47a1,1,0,0,0,1-.89,10.41,10.41,0,1,1,20.78,1.23.94.94,0,0,0,.89,1,1,1,0,0,0,1-.89A12.31,12.31,0,1,0,218.38,46,1,1,0,0,0,219.27,47Z" fill="none" stroke="#003a50" stroke-miterlimit="10"/><path d="M252.1,88a9.58,9.58,0,0,0,9.06-11.69l-1.54-6.71a2.66,2.66,0,0,0-3.2-2l-10.15,2.32A18,18,0,0,1,241.74,77l.72,3.17A9.83,9.83,0,0,0,252.1,88Z" fill="none" stroke="#003a50" stroke-miterlimit="10"/><path d="M219.78,81.52l1.75-1.2a18,18,0,0,1-10.3-16.1l-1.9,1.3a9.79,9.79,0,0,0-3.74,11.8A9.57,9.57,0,0,0,219.78,81.52Z" fill="none" stroke="#003a50" stroke-miterlimit="10"/><path d="M240.05,49.6l.09-1.48a9.8,9.8,0,0,0-7-10.18,9.56,9.56,0,0,0-12,8.67L221,48a18.06,18.06,0,0,1,12.56-1.45A17.65,17.65,0,0,1,240.05,49.6Z" fill="none" stroke="#003a50" stroke-miterlimit="10"/><path d="M241.74,77a17.94,17.94,0,0,0,4.53-7.12,13.1,13.1,0,0,0,.45-1.51,18,18,0,0,0-35-8.67,16.43,16.43,0,0,0-.52,4.53,18,18,0,0,0,10.3,16.1,18.28,18.28,0,0,0,3.38,1.21A18,18,0,0,0,241.74,77Z" fill="none" stroke="#003a50" stroke-miterlimit="10"/><path d="M341,45V14H306.47V46.62h32.89A1.67,1.67,0,0,0,341,45Z" fill="none" stroke="#003a50" stroke-miterlimit="10"/><path d="M375.66,45.12V14H341.1V45.12a1.5,1.5,0,0,0,1.5,1.5h31.56A1.5,1.5,0,0,0,375.66,45.12Z" fill="none" stroke="#003a50" stroke-miterlimit="10"/><path d="M306.47,46.62A2.35,2.35,0,0,1,304,48.76h-3.19a2.35,2.35,0,0,1-2.51-2.14V10.23h85.62V46.3a2.36,2.36,0,0,1-2.52,2.14h-3.18a2.36,2.36,0,0,1-2.52-2.14V14H306.47Z" fill="none" stroke="#003a50" stroke-miterlimit="10"/></g><rect x="306.47" y="13.96" width="69.19" height="6.98" fill="none" stroke="#003a50" stroke-miterlimit="10"/><g clip-path="url(#clip-path)"><path d="M375.66-35.46a2.35,2.35,0,0,1,2.51-2.13h3.19a2.34,2.34,0,0,1,2.51,2.13V.94H298.26V-35.14a2.35,2.35,0,0,1,2.51-2.14H304a2.35,2.35,0,0,1,2.51,2.14V-2.8h69.19Z" fill="none" stroke="#003a50" stroke-miterlimit="10"/></g><rect x="109.12" y="9.33" width="26.69" height="28.24" fill="none" stroke="#003a50" stroke-miterlimit="10"/><g clip-path="url(#clip-path)"><path d="M126.22,22.14V13.48h-6.75v8.66a2.77,2.77,0,0,0,2.77,2.78h1.2A2.78,2.78,0,0,0,126.22,22.14Z" fill="none" stroke="#003a50" stroke-miterlimit="10"/></g><polyline points="120.11 33.21 122.84 33.21 125.57 33.21" fill="none" stroke="#003a50" stroke-miterlimit="10"/><line x1="122.84" y1="24.92" x2="122.84" y2="33.21" fill="none" stroke="#003a50" stroke-miterlimit="10"/><rect x="117.35" y="93.5" width="27.5" height="28.24" fill="none" stroke="#003a50" stroke-miterlimit="10"/><g clip-path="url(#clip-path)"><circle cx="124.82" cy="101.1" r="3.75" transform="translate(1.94 204.55) rotate(-79.1)" fill="none" stroke="#003a50" stroke-miterlimit="10"/><circle cx="137.34" cy="101.1" r="3.75" transform="translate(7.39 211.54) rotate(-76.72)" fill="none" stroke="#003a50" stroke-miterlimit="10"/><circle cx="124.82" cy="113.3" r="3.75" transform="translate(-10.04 214.44) rotate(-79.1)" fill="none" stroke="#003a50" stroke-miterlimit="10"/><circle cx="137.34" cy="113.3" r="3.75" transform="translate(-4.48 220.93) rotate(-76.72)" fill="none" stroke="#003a50" stroke-miterlimit="10"/></g><polyline points="87.47 75.16 87.47 70.48 87.47 65.82" fill="none" stroke="#003a50" stroke-miterlimit="10"/><line x1="96.84" y1="70.47" x2="87.48" y2="70.47" fill="none" stroke="#003a50" stroke-miterlimit="10"/><g clip-path="url(#clip-path)"><rect x="91.48" y="60.17" width="14.9" height="20.66" rx="3.24" fill="none" stroke="#003a50" stroke-miterlimit="10"/><path d="M98,70.47a1.67,1.67,0,1,1-1.67-1.67A1.67,1.67,0,0,1,98,70.47Z" fill="none" stroke="#003a50" stroke-miterlimit="10"/></g><rect x="82.03" y="37.56" width="27.09" height="82.83" fill="none" stroke="#003a50" stroke-miterlimit="10"/><rect x="109.12" y="93.5" width="38.87" height="27.09" fill="none" stroke="#003a50" stroke-miterlimit="10"/><g clip-path="url(#clip-path)"><rect x="191.95" y="-27.85" width="27.5" height="28.24" fill="none" stroke="#003a50" stroke-miterlimit="10"/><rect x="164.62" y="-92.2" width="27.09" height="94.36" fill="none" stroke="#003a50" stroke-miterlimit="10"/></g><rect x="135.93" y="10.82" width="26.74" height="26.74" fill="none" stroke="#003a50" stroke-miterlimit="10"/><line x1="141.46" y1="24.19" x2="157.15" y2="24.19" fill="none" stroke="#003a50" stroke-miterlimit="10"/><line x1="149.31" y1="16.35" x2="149.31" y2="32.04" fill="none" stroke="#003a50" stroke-miterlimit="10"/><line x1="143.76" y1="18.65" x2="154.85" y2="29.74" fill="none" stroke="#003a50" stroke-miterlimit="10"/><line x1="154.85" y1="18.65" x2="143.76" y2="29.74" fill="none" stroke="#003a50" stroke-miterlimit="10"/><g clip-path="url(#clip-path)"><rect x="347.52" y="154.79" width="57.31" height="2.03" rx="0.97" fill="none" stroke="#003a50" stroke-miterlimit="10"/><path d="M367.29,177.81a10.73,10.73,0,0,0,17,11.56.83.83,0,0,0-1-1.29,9.05,9.05,0,0,1-14.16-10.27Z" fill="none" stroke="#003a50" stroke-miterlimit="10"/><path d="M404.28,177.81H348.07a2.41,2.41,0,0,1-2.4-2.4v-19.9a2.41,2.41,0,0,1,2.4-2.4h56.21a2.4,2.4,0,0,1,2.4,2.4v19.9A2.4,2.4,0,0,1,404.28,177.81Z" fill="none" stroke="#003a50" stroke-miterlimit="10"/><path d="M396.75,166.39a4,4,0,1,1,5.66,0A4,4,0,0,1,396.75,166.39Z" fill="none" stroke="#003a50" stroke-miterlimit="10"/><path d="M397.05,166.66c.07-.74-.21-1.48.51-2.2,1.06-1.06,2.18.06,3.24-1s-.06-2.18,1-3.25" fill="none" stroke="#003a50" stroke-miterlimit="10"/><path d="M370.71,177.81a7.72,7.72,0,1,0,14.22,0Z" fill="none" stroke="#003a50" stroke-miterlimit="10"/><line x1="347.69" y1="310.82" x2="347.69" y2="360.77" fill="none" stroke="#003a50" stroke-linecap="round" stroke-linejoin="round" stroke-width="0.96"/><line x1="220.54" y1="310.82" x2="220.54" y2="360.77" fill="none" stroke="#003a50" stroke-linecap="round" stroke-linejoin="round" stroke-width="0.96"/><line x1="207.83" y1="310.82" x2="207.83" y2="360.77" fill="none" stroke="#003a50" stroke-linecap="round" stroke-linejoin="round" stroke-width="0.96"/><line x1="334.98" y1="310.82" x2="334.98" y2="360.77" fill="none" stroke="#003a50" stroke-linecap="round" stroke-linejoin="round" stroke-width="0.96"/><line x1="322.26" y1="310.82" x2="322.26" y2="360.77" fill="none" stroke="#003a50" stroke-linecap="round" stroke-linejoin="round" stroke-width="0.96"/><line x1="309.55" y1="310.82" x2="309.55" y2="360.77" fill="none" stroke="#003a50" stroke-linecap="round" stroke-linejoin="round" stroke-width="0.96"/><line x1="296.83" y1="310.82" x2="296.83" y2="360.77" fill="none" stroke="#003a50" stroke-linecap="round" stroke-linejoin="round" stroke-width="0.96"/><line x1="284.12" y1="310.82" x2="284.12" y2="335.8" fill="none" stroke="#003a50" stroke-linecap="round" stroke-linejoin="round" stroke-width="0.96"/><line x1="271.4" y1="310.82" x2="271.4" y2="360.77" fill="none" stroke="#003a50" stroke-linecap="round" stroke-linejoin="round" stroke-width="0.96"/><line x1="258.69" y1="310.82" x2="258.69" y2="360.77" fill="none" stroke="#003a50" stroke-linecap="round" stroke-linejoin="round" stroke-width="0.96"/><line x1="245.97" y1="310.82" x2="245.97" y2="360.77" fill="none" stroke="#003a50" stroke-linecap="round" stroke-linejoin="round" stroke-width="0.96"/><line x1="233.26" y1="310.82" x2="233.26" y2="360.77" fill="none" stroke="#003a50" stroke-linecap="round" stroke-linejoin="round" stroke-width="0.96"/><line x1="220.54" y1="310.82" x2="220.54" y2="360.77" fill="none" stroke="#003a50" stroke-linecap="round" stroke-linejoin="round" stroke-width="0.96"/><line x1="271.4" y1="310.82" x2="271.4" y2="360.77" fill="none" stroke="#003a50" stroke-linecap="round" stroke-linejoin="round" stroke-width="0.96"/><line x1="258.69" y1="310.82" x2="258.69" y2="360.77" fill="none" stroke="#003a50" stroke-linecap="round" stroke-linejoin="round" stroke-width="0.96"/><line x1="245.97" y1="310.82" x2="245.97" y2="360.77" fill="none" stroke="#003a50" stroke-linecap="round" stroke-linejoin="round" stroke-width="0.96"/><line x1="233.26" y1="310.82" x2="233.26" y2="360.77" fill="none" stroke="#003a50" stroke-linecap="round" stroke-linejoin="round" stroke-width="0.96"/><line x1="220.54" y1="310.82" x2="220.54" y2="360.77" fill="none" stroke="#003a50" stroke-linecap="round" stroke-linejoin="round" stroke-width="0.96"/><line x1="207.83" y1="310.82" x2="207.83" y2="360.77" fill="none" stroke="#003a50" stroke-linecap="round" stroke-linejoin="round" stroke-width="0.96"/><line x1="334.98" y1="310.82" x2="334.98" y2="360.77" fill="none" stroke="#003a50" stroke-linecap="round" stroke-linejoin="round" stroke-width="0.96"/><line x1="322.26" y1="310.82" x2="322.26" y2="360.77" fill="none" stroke="#003a50" stroke-linecap="round" stroke-linejoin="round" stroke-width="0.96"/><line x1="309.55" y1="310.82" x2="309.55" y2="360.77" fill="none" stroke="#003a50" stroke-linecap="round" stroke-linejoin="round" stroke-width="0.96"/><line x1="296.83" y1="310.82" x2="296.83" y2="360.77" fill="none" stroke="#003a50" stroke-linecap="round" stroke-linejoin="round" stroke-width="0.96"/><line x1="284.12" y1="310.82" x2="284.12" y2="335.8" fill="none" stroke="#003a50" stroke-linecap="round" stroke-linejoin="round" stroke-width="0.96"/><line x1="271.4" y1="310.82" x2="271.4" y2="360.77" fill="none" stroke="#003a50" stroke-linecap="round" stroke-linejoin="round" stroke-width="0.96"/><line x1="258.69" y1="310.82" x2="258.69" y2="360.77" fill="none" stroke="#003a50" stroke-linecap="round" stroke-linejoin="round" stroke-width="0.96"/><line x1="245.97" y1="310.82" x2="245.97" y2="360.77" fill="none" stroke="#003a50" stroke-linecap="round" stroke-linejoin="round" stroke-width="0.96"/><line x1="233.26" y1="310.82" x2="233.26" y2="360.77" fill="none" stroke="#003a50" stroke-linecap="round" stroke-linejoin="round" stroke-width="0.96"/><line x1="271.4" y1="310.82" x2="271.4" y2="360.77" fill="none" stroke="#003a50" stroke-linecap="round" stroke-linejoin="round" stroke-width="0.96"/><line x1="258.69" y1="310.82" x2="258.69" y2="360.77" fill="none" stroke="#003a50" stroke-linecap="round" stroke-linejoin="round" stroke-width="0.96"/><line x1="245.97" y1="310.82" x2="245.97" y2="360.77" fill="none" stroke="#003a50" stroke-linecap="round" stroke-linejoin="round" stroke-width="0.96"/><line x1="233.26" y1="310.82" x2="233.26" y2="360.77" fill="none" stroke="#003a50" stroke-linecap="round" stroke-linejoin="round" stroke-width="0.96"/><line x1="220.54" y1="310.82" x2="220.54" y2="360.77" fill="none" stroke="#003a50" stroke-linecap="round" stroke-linejoin="round" stroke-width="0.96"/><line x1="347.69" y1="310.82" x2="347.69" y2="360.77" fill="none" stroke="#003a50" stroke-linecap="round" stroke-linejoin="round" stroke-width="0.96"/><line x1="301.21" y1="360.77" x2="277.92" y2="310.82" fill="none" stroke="#003a50" stroke-linecap="round" stroke-linejoin="round" stroke-width="0.96"/><line x1="295.76" y1="360.77" x2="272.47" y2="310.82" fill="none" stroke="#003a50" stroke-linecap="round" stroke-linejoin="round" stroke-width="0.96"/><line x1="334.98" y1="310.82" x2="334.98" y2="360.77" fill="none" stroke="#003a50" stroke-linecap="round" stroke-linejoin="round" stroke-width="0.96"/><line x1="322.26" y1="310.82" x2="322.26" y2="360.77" fill="none" stroke="#003a50" stroke-linecap="round" stroke-linejoin="round" stroke-width="0.96"/><line x1="309.55" y1="310.82" x2="309.55" y2="360.77" fill="none" stroke="#003a50" stroke-linecap="round" stroke-linejoin="round" stroke-width="0.96"/><line x1="296.83" y1="310.82" x2="296.83" y2="351.38" fill="none" stroke="#003a50" stroke-linecap="round" stroke-linejoin="round" stroke-width="0.96"/><line x1="284.12" y1="310.82" x2="284.12" y2="324.11" fill="none" stroke="#003a50" stroke-linecap="round" stroke-linejoin="round" stroke-width="0.96"/><line x1="334.98" y1="310.82" x2="334.98" y2="360.77" fill="none" stroke="#003a50" stroke-linecap="round" stroke-linejoin="round" stroke-width="0.96"/><line x1="322.26" y1="310.82" x2="322.26" y2="360.77" fill="none" stroke="#003a50" stroke-linecap="round" stroke-linejoin="round" stroke-width="0.96"/><line x1="309.55" y1="310.82" x2="309.55" y2="360.77" fill="none" stroke="#003a50" stroke-linecap="round" stroke-linejoin="round" stroke-width="0.96"/><line x1="296.83" y1="310.82" x2="296.83" y2="351.38" fill="none" stroke="#003a50" stroke-linecap="round" stroke-linejoin="round" stroke-width="0.96"/><line x1="284.12" y1="310.82" x2="284.12" y2="324.11" fill="none" stroke="#003a50" stroke-linecap="round" stroke-linejoin="round" stroke-width="0.96"/><path d="M137,209.62v-2.3c0-16-14-28.9-31.19-28.9v31.2" fill="none" stroke="#003a50" stroke-miterlimit="10" stroke-width="1.6"/><path d="M206.44,200.08h2.69c18.68,0,33.81-16.34,33.81-36.5h-36.5" fill="none" stroke="#003a50" stroke-miterlimit="10" stroke-width="1.6"/><path d="M43.82,199.34H40.74C19.32,199.34,2,180.61,2,157.5H43.82" fill="none" stroke="#003a50" stroke-miterlimit="10" stroke-width="1.6"/></g><rect x="159.39" width="5.75" height="0.5" fill="#003a50"/><rect x="74.52" y="120.58" width="73.96" height="5.75" fill="#003a50"/><rect x="41.43" y="25.88" width="32.96" height="9.04" fill="#003a50"/><rect x="52.35" y="206.74" width="53.5" height="5.75" fill="#003a50"/><rect x="136.18" y="206.74" width="72.92" height="5.75" fill="#003a50"/><rect x="203.35" y="147.83" width="217.17" height="5.75" fill="#003a50"/><rect x="142.73" y="120.58" width="5.75" height="33" fill="#003a50"/><rect x="41.43" y="24.54" width="5.75" height="120.71" fill="#003a50"/><rect x="175.89" y="210.42" width="5.75" height="90.68" fill="#003a50"/><rect x="71.56" y="210.42" width="5.75" height="90.68" fill="#003a50"/><rect x="41.42" y="281.42" width="5.75" height="29.26" fill="#003a50"/><rect x="203.35" y="147.83" width="5.75" height="16.59" fill="#003a50"/><rect x="203.35" y="199.25" width="5.75" height="13.24" fill="#003a50"/><rect x="71.52" width="5.75" height="4.38" fill="#003a50"/><rect x="407.43" y="25.6" width="40.51" height="13.42" fill="#003a50"/><g clip-path="url(#clip-path)"><rect x="407.43" y="25.6" width="40.51" height="13.42" fill="none" stroke="#003a50" stroke-miterlimit="10" stroke-width="2.09"/></g><rect x="407.43" y="111.51" width="40.51" height="13.42" fill="#003a50"/><g clip-path="url(#clip-path)"><rect x="407.43" y="111.51" width="40.51" height="13.42" fill="none" stroke="#003a50" stroke-miterlimit="10" stroke-width="2.09"/></g><rect x="407.43" y="184.26" width="40.51" height="13.42" fill="#003a50"/><g clip-path="url(#clip-path)"><rect x="407.43" y="184.26" width="40.51" height="13.42" fill="none" stroke="#003a50" stroke-miterlimit="10" stroke-width="2.09"/></g><rect x="407.43" y="271.51" width="40.51" height="13.42" fill="#003a50"/><g clip-path="url(#clip-path)"><rect x="407.43" y="271.51" width="40.51" height="13.42" fill="none" stroke="#003a50" stroke-miterlimit="10" stroke-width="2.09"/></g><rect x="407.43" width="30.25" height="39.01" fill="#003a50"/><g clip-path="url(#clip-path)"><rect x="407.43" y="-47.16" width="30.25" height="86.17" fill="none" stroke="#003a50" stroke-miterlimit="10" stroke-width="2.09"/></g><rect x="407.43" y="120.5" width="30.25" height="70.47" fill="#003a50"/><rect x="407.43" y="120.5" width="30.25" height="70.47" fill="none" stroke="#003a50" stroke-miterlimit="10" stroke-width="2.09"/><rect x="407.43" y="280.91" width="30.25" height="29.76" fill="#003a50"/><g clip-path="url(#clip-path)"><rect x="407.43" y="280.91" width="30.25" height="127.28" fill="none" stroke="#003a50" stroke-miterlimit="10" stroke-width="2.09"/></g><rect x="407.43" y="271.52" width="22.95" height="39.16" fill="#003a50"/><g clip-path="url(#clip-path)"><rect x="407.43" y="271.52" width="22.95" height="159.74" fill="none" stroke="#003a50" stroke-miterlimit="10" stroke-width="2.09"/></g><rect x="41.43" width="14.75" height="34.92" fill="#003a50"/><rect x="41.43" y="142.92" width="14.75" height="15.36" fill="#003a50"/><rect x="53.68" y="142.92" width="29.5" height="10.67" fill="#003a50"/><rect x="46.31" width="381.38" height="11.38" fill="#003a50"/><rect x="68.42" y="5.25" width="14.75" height="147.03" fill="#003a50"/><rect x="41.43" y="198.5" width="14.75" height="112.18" fill="#003a50"/><rect x="139.68" y="308.17" width="12.11" height="2.51" fill="#003a50"/><rect x="402.93" y="302.5" width="13.86" height="8.18" fill="#003a50"/><rect x="41.43" y="298.38" width="386.26" height="12.3" fill="#003a50"/><path d="M114.81,230.08H112.7v-2.65h-7v-1.85l6.29-7.41h2.79v7.41h1.6v1.85h-1.6Zm-2.11-4.5v-5.32h-.06l-4.48,5.27v.05Z" fill="#003a50"/><path d="M118.09,229.94a1,1,0,0,1-.32-.8,1.07,1.07,0,0,1,.32-.81,1.25,1.25,0,0,1,.88-.3,1.22,1.22,0,0,1,.86.3,1,1,0,0,1,.32.81,1,1,0,0,1-.32.8,1.22,1.22,0,0,1-.86.3A1.25,1.25,0,0,1,118.09,229.94Z" fill="#003a50"/><path d="M131.87,230.08h-9.93v-1.57a2.76,2.76,0,0,1,.58-1.74,3.83,3.83,0,0,1,1.45-1.19c.49-.26,1.12-.55,1.86-.87s1.33-.55,1.88-.77a4.36,4.36,0,0,0,1.45-.91,1.82,1.82,0,0,0,.57-1.31c0-1.25-.89-1.88-2.67-1.88s-2.67.72-2.67,2.16v.4h-2.11V222a3.62,3.62,0,0,1,1.26-3,5.39,5.39,0,0,1,3.52-1,5.72,5.72,0,0,1,3.51,1,3.29,3.29,0,0,1,1.27,2.75,3.17,3.17,0,0,1-.56,1.84,4.26,4.26,0,0,1-1.4,1.3c-.6.34-1.21.65-1.84.93s-1.23.53-1.82.75a5.18,5.18,0,0,0-1.41.75,1.23,1.23,0,0,0-.56,1h7.62Z" fill="#003a50"/><path d="M75.63,187.74H73.52v-2.65h-7v-1.84l6.3-7.42h2.79v7.42h1.59v1.84H75.63Zm-2.11-4.49v-5.32h-.07L69,183.2v.05Z" fill="#003a50"/><path d="M78.91,187.61a1,1,0,0,1-.33-.81,1,1,0,0,1,.33-.8,1.4,1.4,0,0,1,1.73,0,1,1,0,0,1,.33.8,1,1,0,0,1-.33.81,1.4,1.4,0,0,1-1.73,0Z" fill="#003a50"/><path d="M86,187.74H83.67l5.41-10H82.15v-1.88h9.29v1.88Z" fill="#003a50"/><path d="M339.49,104.3h-9.93v-1.56a2.74,2.74,0,0,1,.58-1.74,4,4,0,0,1,1.44-1.2c.5-.25,1.12-.54,1.87-.86s1.32-.56,1.88-.78a4.07,4.07,0,0,0,1.44-.91,1.77,1.77,0,0,0,.58-1.3q0-1.89-2.67-1.89T332,96.22v.41H329.9v-.41a3.62,3.62,0,0,1,1.26-3,5.38,5.38,0,0,1,3.51-1,5.66,5.66,0,0,1,3.52,1A3.3,3.3,0,0,1,339.46,96a3.14,3.14,0,0,1-.56,1.83,4.39,4.39,0,0,1-1.4,1.31c-.6.34-1.21.65-1.84.93s-1.23.52-1.83.74a5.26,5.26,0,0,0-1.4.75,1.21,1.21,0,0,0-.56,1h7.62Z" fill="#003a50"/><path d="M343.58,95l-2.48,2V94.66l2.73-2.27h1.86V104.3h-2.11Z" fill="#003a50"/><path d="M348.22,104.17a1,1,0,0,1-.33-.81,1,1,0,0,1,.33-.8,1.4,1.4,0,0,1,1.73,0,1,1,0,0,1,.33.8,1,1,0,0,1-.33.81,1.4,1.4,0,0,1-1.73,0Z" fill="#003a50"/><path d="M362,104.3h-9.94v-1.56a2.8,2.8,0,0,1,.58-1.74,4.12,4.12,0,0,1,1.45-1.2c.5-.25,1.12-.54,1.87-.86l1.87-.78a4.12,4.12,0,0,0,1.45-.91,1.8,1.8,0,0,0,.57-1.3c0-1.26-.89-1.89-2.66-1.89s-2.68.72-2.68,2.16v.41H352.4v-.41a3.59,3.59,0,0,1,1.27-3,5.34,5.34,0,0,1,3.51-1,5.65,5.65,0,0,1,3.51,1A3.27,3.27,0,0,1,362,96a3.14,3.14,0,0,1-.55,1.83A4.42,4.42,0,0,1,360,99.09q-.9.51-1.83.93c-.63.27-1.24.52-1.83.74a5.11,5.11,0,0,0-1.4.75,1.22,1.22,0,0,0-.57,1H362Z" fill="#003a50"/><path d="M357.88,224l-2.49,1.95V223.7l2.74-2.27H360v11.91h-2.11Z" fill="#003a50"/><path d="M367.88,225.36a5,5,0,0,1,3.34,1.06,3.69,3.69,0,0,1,1.26,3,3.73,3.73,0,0,1-1.3,3,5.39,5.39,0,0,1-3.55,1.08,5.86,5.86,0,0,1-3.56-1,3.17,3.17,0,0,1-1.28-2.69h2.1a1.55,1.55,0,0,0,.71,1.34,3.56,3.56,0,0,0,2,.48,3.18,3.18,0,0,0,2-.57,2.08,2.08,0,0,0,.7-1.69,2.05,2.05,0,0,0-.74-1.7,3.25,3.25,0,0,0-2.07-.58,3.7,3.7,0,0,0-1.92.41,2.12,2.12,0,0,0-.7.64l-.05.13h-2.1v-6.88h8.87v1.85h-6.77v2.95h.05a2.19,2.19,0,0,1,.4-.3,3.11,3.11,0,0,1,.55-.27A5.63,5.63,0,0,1,367.88,225.36Z" fill="#003a50"/><path d="M374.59,233.21a1.15,1.15,0,0,1,0-1.61,1.4,1.4,0,0,1,1.73,0,1.15,1.15,0,0,1,0,1.61,1.4,1.4,0,0,1-1.73,0Z" fill="#003a50"/><path d="M388.21,224.79H386s0-.07,0-.18a2.94,2.94,0,0,0-.22-.44,2.64,2.64,0,0,0-.38-.5,2.08,2.08,0,0,0-.71-.41,3.29,3.29,0,0,0-1-.16,2.49,2.49,0,0,0-2.15,1,4.41,4.41,0,0,0-.77,2.68h.06a1.79,1.79,0,0,1,.44-.43,3.93,3.93,0,0,1,1.56-.67,6.08,6.08,0,0,1,1.22-.13,5.06,5.06,0,0,1,3.37,1.12,3.5,3.5,0,0,1,1.3,2.8,3.56,3.56,0,0,1-1.36,2.9,5.52,5.52,0,0,1-3.61,1.11,4.81,4.81,0,0,1-3.87-1.55,6.36,6.36,0,0,1-1.32-4.27v-.4a6.83,6.83,0,0,1,1.32-4.31,4.52,4.52,0,0,1,3.81-1.71,5.64,5.64,0,0,1,2.12.37,3.84,3.84,0,0,1,1.44.94A3.44,3.44,0,0,1,388.21,224.79Zm-2.51,3.14a3.67,3.67,0,0,0-4,0,2,2,0,0,0,0,3.15,3.15,3.15,0,0,0,2,.59,3.2,3.2,0,0,0,2-.59,2,2,0,0,0,0-3.15Z" fill="#003a50"/><path d="M432.05,105.74a4.57,4.57,0,0,1-3.12,1,4.63,4.63,0,0,1-3.12-1,4,4,0,0,1,0-5.74,4.63,4.63,0,0,1,3.12-1,4.57,4.57,0,0,1,3.12,1,4,4,0,0,1,0,5.74Zm-1-4.61a4.06,4.06,0,0,0-4.28,0,2,2,0,0,0-.83,1.74,2,2,0,0,0,.83,1.73,4,4,0,0,0,4.28,0,2,2,0,0,0,.84-1.73A2.05,2.05,0,0,0,431.07,101.13Z" fill="#003a50"/><path d="M433,97.41a.69.69,0,0,1-.57.23.71.71,0,0,1-.57-.23,1,1,0,0,1,0-1.22.75.75,0,0,1,.57-.23.72.72,0,0,1,.57.23,1,1,0,0,1,0,1.22Z" fill="#003a50"/><path d="M427.1,87.8v1.56s-.05,0-.13,0a2,2,0,0,0-.31.15,3,3,0,0,0-.35.27,1.57,1.57,0,0,0-.29.5,2.36,2.36,0,0,0-.11.72,1.76,1.76,0,0,0,.72,1.51,3.12,3.12,0,0,0,1.9.54v0a1.27,1.27,0,0,1-.31-.31,3.78,3.78,0,0,1-.26-.43,3,3,0,0,1-.21-.67,4,4,0,0,1-.09-.86,3.5,3.5,0,0,1,.79-2.37,2.43,2.43,0,0,1,2-.92,2.52,2.52,0,0,1,2.05,1,3.87,3.87,0,0,1,.78,2.54,3.38,3.38,0,0,1-1.09,2.73,4.5,4.5,0,0,1-3,.93h-.29a4.83,4.83,0,0,1-3-.93A3.2,3.2,0,0,1,424.61,91a3.86,3.86,0,0,1,.27-1.5,2.73,2.73,0,0,1,.66-1A2.44,2.44,0,0,1,427.1,87.8Zm2.22,1.77a2.26,2.26,0,0,0-.41,1.4,2.21,2.21,0,0,0,.41,1.39,1.3,1.3,0,0,0,1.11.55,1.31,1.31,0,0,0,1.11-.54,2.54,2.54,0,0,0,0-2.8,1.3,1.3,0,0,0-1.11-.55A1.32,1.32,0,0,0,429.32,89.57Z" fill="#003a50"/><path d="M432.05,264.13a4.57,4.57,0,0,1-3.12,1,4.63,4.63,0,0,1-3.12-1,4,4,0,0,1,0-5.74,4.63,4.63,0,0,1,3.12-1,4.57,4.57,0,0,1,3.12,1,4,4,0,0,1,0,5.74Zm-1-4.61a4.06,4.06,0,0,0-4.28,0,2.23,2.23,0,0,0,0,3.47,4,4,0,0,0,4.28,0,2,2,0,0,0,.84-1.73A2.05,2.05,0,0,0,431.07,259.52Z" fill="#003a50"/><path d="M433,255.8a.72.72,0,0,1-.57.23.75.75,0,0,1-.57-.23.87.87,0,0,1-.21-.61.85.85,0,0,1,.21-.61.75.75,0,0,1,.57-.23.72.72,0,0,1,.57.23.85.85,0,0,1,.21.61A.87.87,0,0,1,433,255.8Z" fill="#003a50"/><path d="M427.1,246.19v1.56s-.05,0-.13,0a1.38,1.38,0,0,0-.31.15,3,3,0,0,0-.35.27,1.57,1.57,0,0,0-.29.5,2.36,2.36,0,0,0-.11.72,1.76,1.76,0,0,0,.72,1.51,3.12,3.12,0,0,0,1.9.54v0a1.27,1.27,0,0,1-.31-.31,3.78,3.78,0,0,1-.26-.43,3.14,3.14,0,0,1-.21-.67,4,4,0,0,1-.09-.86,3.53,3.53,0,0,1,.79-2.38,2.46,2.46,0,0,1,2-.92,2.5,2.5,0,0,1,2.05,1,3.87,3.87,0,0,1,.78,2.54,3.38,3.38,0,0,1-1.09,2.73,4.5,4.5,0,0,1-3,.93h-.29a4.83,4.83,0,0,1-3-.93,3.2,3.2,0,0,1-1.21-2.68,3.86,3.86,0,0,1,.27-1.5,2.73,2.73,0,0,1,.66-1A2.44,2.44,0,0,1,427.1,246.19Zm2.22,1.77a2.58,2.58,0,0,0,0,2.79,1.3,1.3,0,0,0,1.11.55,1.31,1.31,0,0,0,1.11-.54,2.54,2.54,0,0,0,0-2.8,1.4,1.4,0,0,0-2.22,0Z" fill="#003a50"/></svg>