<svg id="Слой_1" data-name="Слой 1" xmlns="http://www.w3.org/2000/svg" xmlns:xlink="http://www.w3.org/1999/xlink" viewBox="0 0 434.83 223.09"><defs><clipPath id="clip-path"><polygon points="0 0.07 0 165.18 259.94 165.18 259.94 223.02 434.83 223.02 434.83 0.07 0 0.07" fill="none"/></clipPath></defs><rect x="9.83" y="0.07" width="382.87" height="2.43" fill="#fff"/><polygon points="9.83 4.04 9.83 162.71 268.37 162.71 268.37 213.37 392.7 213.37 392.7 162.71 392.7 4.04 9.83 4.04" fill="#fff"/><polygon points="9.83 156.21 9.83 165.18 259.94 165.18 259.94 223.02 392.71 223.02 392.71 217.71 268.27 217.71 268.27 156.21 9.83 156.21" fill="#fff"/><g clip-path="url(#clip-path)"><line x1="13.03" y1="-404.29" x2="13.03" y2="944.83" fill="none" stroke="#003a50" stroke-miterlimit="10"/><polyline points="888.97 710.82 888.97 -392.79 865.97 -415.79 24.34 -415.79 1.34 -392.79 1.34 953.33 120.95 953.33 120.95 2078.46" fill="none" stroke="#003a50" stroke-miterlimit="10"/></g><rect x="29.32" y="29.27" width="4.55" height="68.3" fill="#fff"/><rect x="29.32" y="29.27" width="4.55" height="68.3" fill="none" stroke="#003a50" stroke-miterlimit="10"/><line x1="31.6" y1="29.27" x2="31.6" y2="97.57" fill="none" stroke="#003a50" stroke-miterlimit="10"/><rect x="29.32" y="29.27" width="4.55" height="4.32" fill="#fff"/><rect x="29.32" y="29.27" width="4.55" height="4.32" fill="none" stroke="#003a50" stroke-miterlimit="10"/><rect x="29.32" y="93.25" width="4.55" height="4.32" fill="#fff"/><rect x="29.32" y="93.25" width="4.55" height="4.32" fill="none" stroke="#003a50" stroke-miterlimit="10"/><rect x="29.32" y="59.1" width="4.55" height="4.32" fill="#fff"/><rect x="29.32" y="59.1" width="4.55" height="4.32" fill="none" stroke="#003a50" stroke-miterlimit="10"/><g clip-path="url(#clip-path)"><path d="M33.87,63.42H36.4c17.61,0,28.92,13.35,28.92,29.83H33.87" fill="none" stroke="#003a50" stroke-miterlimit="10"/><path d="M33.87,222.21H36.4c17.61,0,28.92,13.68,28.92,30.54H33.87" fill="none" stroke="#003a50" stroke-miterlimit="10"/><rect x="265.67" y="222.48" width="34.75" height="77.66" fill="none" stroke="#003a50" stroke-miterlimit="10"/></g><rect x="274.72" y="171.41" width="83.84" height="37.52" fill="none" stroke="#003a50" stroke-miterlimit="10"/><g clip-path="url(#clip-path)"><path d="M341.27,204.28H292a13.86,13.86,0,0,1-13.61-14.09v0A13.86,13.86,0,0,1,292,176.05h49.26a13.86,13.86,0,0,1,13.61,14.1v0A13.86,13.86,0,0,1,341.27,204.28Z" fill="none" stroke="#003a50" stroke-miterlimit="10"/><path d="M339.59,190.17a2,2,0,1,1,2,2A2,2,0,0,1,339.59,190.17Z" fill="none" stroke="#003a50" stroke-miterlimit="10"/><path d="M335.35,143.54h23.21V125.2H335.35a9.17,9.17,0,1,0,0,18.34Z" fill="none" stroke="#003a50" stroke-miterlimit="10"/></g><line x1="349.53" y1="125.21" x2="349.53" y2="143.55" fill="none" stroke="#003a50" stroke-miterlimit="10"/><g clip-path="url(#clip-path)"><path d="M291.1,139.36H275.3a2.31,2.31,0,0,0-2.31,2.3v15.28a2.32,2.32,0,0,0,2.31,2.31h15.8a2.31,2.31,0,0,0,2.3-2.31V141.66A2.3,2.3,0,0,0,291.1,139.36Z" fill="none" stroke="#003a50" stroke-miterlimit="10"/><path d="M284.76,149.3a1.56,1.56,0,1,0-1.56,1.56A1.55,1.55,0,0,0,284.76,149.3Z" fill="none" stroke="#003a50" stroke-miterlimit="10"/></g><rect x="273.04" y="123.82" width="22.8" height="47.59" fill="none" stroke="#003a50" stroke-miterlimit="10"/><g clip-path="url(#clip-path)"><path d="M328.2,238.5V222.71a2.31,2.31,0,0,0-2.3-2.31H310.62a2.32,2.32,0,0,0-2.31,2.31V238.5a2.31,2.31,0,0,0,2.31,2.31H325.9A2.3,2.3,0,0,0,328.2,238.5Z" fill="none" stroke="#003a50" stroke-miterlimit="10"/><rect x="300.43" y="222.21" width="40.87" height="21.5" fill="none" stroke="#003a50" stroke-miterlimit="10"/></g><rect x="63.28" y="137.5" width="81.75" height="13.62" fill="none" stroke="#003a50" stroke-miterlimit="10"/><polygon points="69.7 143.88 104.07 146.7 138.6 143.88 138.6 141.91 69.7 141.91 69.7 143.88" fill="none" stroke="#003a50" stroke-miterlimit="10"/><rect x="274.64" y="15.01" width="104.57" height="27.42" fill="none" stroke="#003a50" stroke-miterlimit="10"/><g clip-path="url(#clip-path)"><path d="M288.27,18.9a.8.8,0,0,1,1.51-.36,23.43,23.43,0,0,1,0,20.37.79.79,0,0,1-1.06.37.81.81,0,0,1-.37-1.08,21.84,21.84,0,0,0,0-18.94A.78.78,0,0,1,288.27,18.9Z" fill="none" stroke="#003a50" stroke-miterlimit="10"/><path d="M292.7,18.9a.8.8,0,0,1,1.52-.36,23.52,23.52,0,0,1,0,20.37.8.8,0,1,1-1.43-.71,21.84,21.84,0,0,0,0-18.94A.8.8,0,0,1,292.7,18.9Z" fill="none" stroke="#003a50" stroke-miterlimit="10"/><path d="M297.13,18.9a.8.8,0,0,1,1.52-.36,23.52,23.52,0,0,1,0,20.37.8.8,0,0,1-1.07.37.81.81,0,0,1-.36-1.08,21.84,21.84,0,0,0,0-18.94A.8.8,0,0,1,297.13,18.9Z" fill="none" stroke="#003a50" stroke-miterlimit="10"/><path d="M301.57,18.9a.8.8,0,0,1,1.51-.36,23.43,23.43,0,0,1,0,20.37.8.8,0,0,1-1.07.37.81.81,0,0,1-.36-1.08,21.84,21.84,0,0,0,0-18.94A.78.78,0,0,1,301.57,18.9Z" fill="none" stroke="#003a50" stroke-miterlimit="10"/><path d="M306,18.9a.8.8,0,0,1,1.51-.36,23.43,23.43,0,0,1,0,20.37.79.79,0,0,1-1.06.37.81.81,0,0,1-.37-1.08,21.84,21.84,0,0,0,0-18.94A.78.78,0,0,1,306,18.9Z" fill="none" stroke="#003a50" stroke-miterlimit="10"/><path d="M310.43,18.9a.79.79,0,0,1,.44-.72.8.8,0,0,1,1.08.36,23.52,23.52,0,0,1,0,20.37.81.81,0,0,1-1.07.37.81.81,0,0,1-.37-1.08,21.84,21.84,0,0,0,0-18.94A.78.78,0,0,1,310.43,18.9Z" fill="none" stroke="#003a50" stroke-miterlimit="10"/><path d="M283.84,18.9a.8.8,0,0,1,1.51-.36,23.43,23.43,0,0,1,0,20.37.8.8,0,0,1-1.07.37.81.81,0,0,1-.36-1.08,21.84,21.84,0,0,0,0-18.94A.78.78,0,0,1,283.84,18.9Z" fill="none" stroke="#003a50" stroke-miterlimit="10"/><path d="M279.4,18.9a.8.8,0,0,1,1.52-.36,23.52,23.52,0,0,1,0,20.37.8.8,0,1,1-1.43-.71,21.84,21.84,0,0,0,0-18.94A.8.8,0,0,1,279.4,18.9Z" fill="none" stroke="#003a50" stroke-miterlimit="10"/></g><line x1="274.64" y1="28.73" x2="379.21" y2="28.73" fill="none" stroke="#003a50" stroke-miterlimit="10"/><g clip-path="url(#clip-path)"><rect x="233.01" y="162.72" width="27.05" height="137.43" fill="none" stroke="#003a50" stroke-miterlimit="10"/><line x1="246.54" y1="300.15" x2="246.54" y2="158.89" fill="none" stroke="#003a50" stroke-miterlimit="10"/><rect x="240.87" y="-25.48" width="75.58" height="26.08" fill="none" stroke="#003a50" stroke-miterlimit="10"/><rect x="155.4" y="165.66" width="18.31" height="18.31" fill="none" stroke="#003a50" stroke-miterlimit="10"/><path d="M159.31,180.07a7.42,7.42,0,1,0,0-10.5A7.44,7.44,0,0,0,159.31,180.07Z" fill="none" stroke="#003a50" stroke-miterlimit="10"/><path d="M158.8,179.51c1.37-.14,2.76.39,4.09-.95,2-2-.11-4.05,1.86-6s4.05.11,6-1.85" fill="none" stroke="#003a50" stroke-miterlimit="10"/><rect x="44.54" y="165.66" width="18.31" height="18.31" fill="none" stroke="#003a50" stroke-miterlimit="10"/><path d="M48.45,180.07a7.42,7.42,0,1,0,0-10.5A7.44,7.44,0,0,0,48.45,180.07Z" fill="none" stroke="#003a50" stroke-miterlimit="10"/><path d="M47.94,179.51c1.37-.14,2.76.39,4.09-.95,2-2-.11-4.05,1.86-6s4,.11,6-1.85" fill="none" stroke="#003a50" stroke-miterlimit="10"/><rect x="67.9" y="165.66" width="82.4" height="91.55" fill="none" stroke="#003a50" stroke-miterlimit="10"/><path d="M76,249.35h66.25a1.68,1.68,0,0,0,1.68-1.68V193.05H74.28v54.62A1.69,1.69,0,0,0,76,249.35Z" fill="none" stroke="#003a50" stroke-miterlimit="10"/><path d="M111.39,190.13h31.12a1.59,1.59,0,0,0,1.59-1.6V173.26a1.6,1.6,0,0,0-1.59-1.6H111.39a1.6,1.6,0,0,0-1.6,1.6v15.27A1.6,1.6,0,0,0,111.39,190.13Z" fill="none" stroke="#003a50" stroke-miterlimit="10"/><path d="M75.68,190.13H106.8a1.59,1.59,0,0,0,1.59-1.6V173.26a1.6,1.6,0,0,0-1.59-1.6H75.68a1.6,1.6,0,0,0-1.6,1.6v15.27A1.6,1.6,0,0,0,75.68,190.13Z" fill="none" stroke="#003a50" stroke-miterlimit="10"/><rect x="341.3" y="223.13" width="19.47" height="20.58" fill="none" stroke="#003a50" stroke-miterlimit="10"/><path d="M284.86,106.33a3,3,0,0,1-2.77-1.86h-1.71l-4.51,2.69,2.05,3.34,2.35-1.29v10.46h9.82V109.21l2.35,1.29,2.05-3.34-4.55-2.69h-2.27A3.07,3.07,0,0,1,284.86,106.33Z" fill="none" stroke="#003a50" stroke-miterlimit="10"/></g><rect x="272.55" y="100.32" width="23.29" height="23.5" fill="none" stroke="#003a50" stroke-miterlimit="10"/><g clip-path="url(#clip-path)"><path d="M110.71,49.05v-31H76.15V50.72H109A1.67,1.67,0,0,0,110.71,49.05Z" fill="none" stroke="#003a50" stroke-miterlimit="10"/><path d="M145.34,49.22V18.07H110.78V49.22a1.5,1.5,0,0,0,1.5,1.5h31.56A1.5,1.5,0,0,0,145.34,49.22Z" fill="none" stroke="#003a50" stroke-miterlimit="10"/><path d="M76.15,50.72a2.35,2.35,0,0,1-2.51,2.14H70.45a2.35,2.35,0,0,1-2.51-2.14V14.33h85.61V50.4A2.35,2.35,0,0,1,151,52.54h-3.19a2.35,2.35,0,0,1-2.51-2.14V18.06H76.15Z" fill="none" stroke="#003a50" stroke-miterlimit="10"/></g><rect x="76.15" y="18.07" width="69.19" height="6.98" fill="none" stroke="#003a50" stroke-miterlimit="10"/><g clip-path="url(#clip-path)"><rect x="182.61" y="-25.45" width="26.65" height="26.69" fill="none" stroke="#003a50" stroke-miterlimit="10"/><rect x="87.03" y="-25.48" width="26.12" height="26.12" fill="none" stroke="#003a50" stroke-miterlimit="10"/><rect x="209.27" y="-25.48" width="26.74" height="26.74" fill="none" stroke="#003a50" stroke-miterlimit="10"/><rect x="37.71" y="-25.48" width="200.88" height="29.62" fill="none" stroke="#003a50" stroke-miterlimit="10"/></g><rect x="216.01" y="123.01" width="26.69" height="28.24" fill="none" stroke="#003a50" stroke-miterlimit="10"/><g clip-path="url(#clip-path)"><path d="M225.4,135.26v-8.67h6.75v8.67a2.78,2.78,0,0,1-2.77,2.78h-1.2A2.79,2.79,0,0,1,225.4,135.26Z" fill="none" stroke="#003a50" stroke-miterlimit="10"/></g><polyline points="231.5 146.32 228.78 146.32 226.05 146.32" fill="none" stroke="#003a50" stroke-miterlimit="10"/><line x1="228.78" y1="138.04" x2="228.78" y2="146.32" fill="none" stroke="#003a50" stroke-miterlimit="10"/><rect x="188.47" y="123.01" width="27.5" height="28.24" fill="none" stroke="#003a50" stroke-miterlimit="10"/><g clip-path="url(#clip-path)"><circle cx="208.5" cy="130.61" r="3.75" fill="none" stroke="#003a50" stroke-miterlimit="10"/><circle cx="195.98" cy="130.61" r="3.75" fill="none" stroke="#003a50" stroke-miterlimit="10"/><circle cx="208.5" cy="142.81" r="3.75" fill="none" stroke="#003a50" stroke-miterlimit="10"/><circle cx="195.98" cy="142.81" r="3.75" fill="none" stroke="#003a50" stroke-miterlimit="10"/></g><polyline points="264.35 116.09 264.35 111.42 264.35 106.75" fill="none" stroke="#003a50" stroke-miterlimit="10"/><line x1="254.98" y1="111.4" x2="264.34" y2="111.4" fill="none" stroke="#003a50" stroke-miterlimit="10"/><g clip-path="url(#clip-path)"><rect x="245.45" y="101.1" width="14.9" height="20.66" rx="3.24" fill="none" stroke="#003a50" stroke-miterlimit="10"/><path d="M253.82,111.4a1.67,1.67,0,1,0,3.33,0,1.67,1.67,0,0,0-3.33,0Z" fill="none" stroke="#003a50" stroke-miterlimit="10"/></g><rect x="242.91" y="14.61" width="26.74" height="26.74" fill="none" stroke="#003a50" stroke-miterlimit="10"/><line x1="256.28" y1="20.14" x2="256.28" y2="35.82" fill="none" stroke="#003a50" stroke-miterlimit="10"/><line x1="264.12" y1="27.98" x2="248.43" y2="27.98" fill="none" stroke="#003a50" stroke-miterlimit="10"/><line x1="261.82" y1="22.43" x2="250.73" y2="33.53" fill="none" stroke="#003a50" stroke-miterlimit="10"/><line x1="261.82" y1="33.53" x2="250.73" y2="22.44" fill="none" stroke="#003a50" stroke-miterlimit="10"/><rect x="242.7" y="95.15" width="27.09" height="56.09" fill="none" stroke="#003a50" stroke-miterlimit="10"/><g clip-path="url(#clip-path)"><path d="M211.29,44.51a1,1,0,0,0-1,1,10.61,10.61,0,1,1-21.22,0,1,1,0,0,0-1.94,0,12.55,12.55,0,1,0,25.1,0A1,1,0,0,0,211.29,44.51Z" fill="none" stroke="#003a50" stroke-miterlimit="10"/><path d="M190.66,45A9.05,9.05,0,1,0,208,41.35h-16.5A9.08,9.08,0,0,0,190.66,45Z" fill="none" stroke="#003a50" stroke-miterlimit="10"/><path d="M239.29,44.51a1,1,0,0,0-1,1,10.61,10.61,0,1,1-21.22,0,1,1,0,0,0-1.94,0,12.55,12.55,0,1,0,25.1,0A1,1,0,0,0,239.29,44.51Z" fill="none" stroke="#003a50" stroke-miterlimit="10"/><path d="M218.66,45A9.05,9.05,0,1,0,236,41.35h-16.5A9.08,9.08,0,0,0,218.66,45Z" fill="none" stroke="#003a50" stroke-miterlimit="10"/></g><polygon points="235.96 41.35 242.91 41.35 242.91 13.58 185.2 13.58 185.2 41.35 235.96 41.35" fill="none" stroke="#003a50" stroke-miterlimit="10"/><g clip-path="url(#clip-path)"><rect x="176.56" y="166.94" width="54.68" height="1.94" rx="0.89" fill="none" stroke="#003a50" stroke-miterlimit="10"/><path d="M195.42,188.9a10.24,10.24,0,0,0,16.2,11,.79.79,0,1,0-1-1.23,8.64,8.64,0,0,1-13.51-9.81Z" fill="none" stroke="#003a50" stroke-miterlimit="10"/><rect x="174.8" y="165.34" width="58.22" height="23.57" rx="2.29" fill="none" stroke="#003a50" stroke-miterlimit="10"/><path d="M223.54,178a3.81,3.81,0,1,1,5.39,0A3.82,3.82,0,0,1,223.54,178Z" fill="none" stroke="#003a50" stroke-miterlimit="10"/><path d="M223.83,178.27c.06-.71-.2-1.42.48-2.1,1-1,2.08.05,3.1-1s-.06-2.08,1-3.1" fill="none" stroke="#003a50" stroke-miterlimit="10"/><path d="M198.69,188.9a7.37,7.37,0,1,0,13.57,0Z" fill="none" stroke="#003a50" stroke-miterlimit="10"/><path d="M309.59,98.88V96.63c0-15.58,13.64-28.22,30.46-28.22V98.88" fill="none" stroke="#003a50" stroke-miterlimit="10" stroke-width="1.6"/><path d="M390.87,90.05H394c21.41,0,38.77-18.73,38.77-41.84H390.87" fill="none" stroke="#003a50" stroke-miterlimit="10" stroke-width="1.6"/></g><rect x="259.94" y="208.08" width="5.74" height="14.94" fill="#003a50"/><rect x="269.2" y="95.43" width="5.75" height="94.33" fill="#003a50"/><rect x="269.2" y="9.49" width="5.75" height="33.47" fill="#003a50"/><rect x="235.7" y="0.07" width="5.75" height="3.97" fill="#003a50"/><rect x="315.7" y="0.07" width="5.75" height="3.97" fill="#003a50"/><rect x="334.37" y="0.07" width="5.75" height="6.84" fill="#003a50"/><rect x="357.55" y="98.88" width="5.75" height="120.66" fill="#003a50"/><rect x="360.42" y="214.37" width="5.75" height="8.64" fill="#003a50"/><rect x="363.3" y="221.46" width="7.74" height="1.56" fill="#003a50"/><rect x="269.2" y="95.43" width="41.19" height="5.75" fill="#003a50"/><rect x="339.15" y="95.43" width="43.86" height="5.75" fill="#003a50"/><rect x="360.42" y="146.43" width="27.53" height="5.75" fill="#003a50"/><rect x="32.54" y="0.07" width="13.66" height="26.41" fill="#003a50"/><rect x="377.95" y="89.25" width="14.75" height="133.77" fill="#003a50"/><rect x="377.95" y="0.07" width="14.75" height="48.92" fill="#003a50"/><rect x="31.71" y="0.07" width="350.83" height="14.94" fill="#003a50"/><polygon points="31.71 150.31 31.71 165.18 259.94 165.18 259.94 165.34 274.95 165.34 274.95 150.31 31.71 150.31" fill="#003a50"/><rect x="260.21" y="208.1" width="127.75" height="14.92" fill="#003a50"/><polygon points="259.92 150.31 259.92 165.18 259.94 165.18 259.94 223.02 274.95 223.02 274.95 150.31 259.92 150.31" fill="#003a50"/><rect x="1.34" y="98.71" width="39.03" height="66.47" fill="#003a50"/><g clip-path="url(#clip-path)"><rect x="1.34" y="98.71" width="39.03" height="87.78" fill="none" stroke="#003a50" stroke-miterlimit="10" stroke-width="2.09"/></g><rect x="1.34" y="0.07" width="39.03" height="28.69" fill="#003a50"/><g clip-path="url(#clip-path)"><rect x="1.34" y="-59.01" width="39.03" height="87.78" fill="none" stroke="#003a50" stroke-miterlimit="10" stroke-width="2.09"/><path d="M353.6,74.3h-2.11V71.65h-7V69.81l6.3-7.42h2.79v7.42h1.59v1.84H353.6Zm-2.11-4.49V64.49h-.07l-4.48,5.27v0Z" fill="#003a50"/><path d="M356.88,74.17a1,1,0,0,1-.33-.81,1,1,0,0,1,.33-.8,1.4,1.4,0,0,1,1.73,0,1,1,0,0,1,.33.8,1,1,0,0,1-.33.81,1.4,1.4,0,0,1-1.73,0Z" fill="#003a50"/><path d="M370.65,74.3h-9.93V72.74A2.74,2.74,0,0,1,361.3,71a4,4,0,0,1,1.45-1.2c.5-.25,1.12-.54,1.87-.86s1.32-.56,1.87-.77a4.39,4.39,0,0,0,1.45-.92,1.78,1.78,0,0,0,.57-1.3q0-1.89-2.67-1.89t-2.67,2.16v.41h-2.11v-.41a3.62,3.62,0,0,1,1.26-3,5.39,5.39,0,0,1,3.52-1,5.65,5.65,0,0,1,3.51,1A3.27,3.27,0,0,1,370.62,66a3.14,3.14,0,0,1-.56,1.83,4.18,4.18,0,0,1-1.4,1.31c-.6.34-1.21.65-1.84.93s-1.23.52-1.82.75a5.17,5.17,0,0,0-1.41.74,1.25,1.25,0,0,0-.56,1h7.62Z" fill="#003a50"/><path d="M324.65,162.69h-2.11V160h-7V158.2l6.3-7.42h2.79v7.42h1.59V160h-1.59Zm-2.11-4.49v-5.32h-.07L318,158.15v0Z" fill="#003a50"/><path d="M327.93,162.56a1,1,0,0,1-.33-.81,1,1,0,0,1,.33-.8,1.23,1.23,0,0,1,.87-.3,1.2,1.2,0,0,1,.86.3,1,1,0,0,1,.33.8,1,1,0,0,1-.33.81,1.2,1.2,0,0,1-.86.3A1.23,1.23,0,0,1,327.93,162.56Z" fill="#003a50"/><path d="M340.26,162.69h-2.11V160h-7V158.2l6.29-7.42h2.79v7.42h1.6V160h-1.6Zm-2.11-4.49v-5.32h-.07l-4.47,5.27v0Z" fill="#003a50"/><path d="M99,84.44l-2.48,2V84.15l2.73-2.26h1.86v11.9H99Z" fill="#003a50"/><path d="M109.83,83.73H104V81.89h8.86v1.84l-4.52,2.65v.06h1.28a3.87,3.87,0,0,1,2.79,1,3.52,3.52,0,0,1,1,2.66A3.33,3.33,0,0,1,112.14,93a7,7,0,0,1-7.24,0,3.37,3.37,0,0,1-1.33-2.86v-.32h2.11v.32c0,1.36.95,2,2.84,2s2.84-.66,2.84-2-.94-2-2.84-2h-3.26V86.48l4.57-2.68Z" fill="#003a50"/><path d="M115.57,93.66a1,1,0,0,1-.32-.8,1.07,1.07,0,0,1,.32-.81,1.41,1.41,0,0,1,1.74,0,1.07,1.07,0,0,1,.32.81,1,1,0,0,1-.32.8,1.41,1.41,0,0,1-1.74,0Z" fill="#003a50"/><path d="M125.68,83.73h-5.82V81.89h8.86v1.84l-4.53,2.65v.06h1.28a3.87,3.87,0,0,1,2.79,1,3.52,3.52,0,0,1,1.06,2.66A3.35,3.35,0,0,1,128,93a7,7,0,0,1-7.24,0,3.37,3.37,0,0,1-1.33-2.86v-.32h2.11v.32c0,1.36.94,2,2.84,2s2.84-.66,2.84-2-.95-2-2.84-2H121.1V86.48l4.58-2.68Z" fill="#003a50"/><path d="M211.8,116h-9.93v-1.56a2.79,2.79,0,0,1,.58-1.75,4.08,4.08,0,0,1,1.44-1.19c.5-.26,1.12-.54,1.87-.86l1.88-.78a4.07,4.07,0,0,0,1.44-.91,1.77,1.77,0,0,0,.58-1.3q0-1.89-2.67-1.89T204.32,108v.41h-2.11V108a3.65,3.65,0,0,1,1.26-3,5.44,5.44,0,0,1,3.51-1,5.66,5.66,0,0,1,3.52,1,3.3,3.3,0,0,1,1.27,2.75,3.17,3.17,0,0,1-.56,1.83,4.25,4.25,0,0,1-1.4,1.3,16.7,16.7,0,0,1-1.84.93q-.93.42-1.83.75a5.26,5.26,0,0,0-1.4.75,1.21,1.21,0,0,0-.56,1h7.62Z" fill="#003a50"/><path d="M213.9,115.91a1.17,1.17,0,0,1,0-1.61,1.41,1.41,0,0,1,1.74,0,1.17,1.17,0,0,1,0,1.61,1.41,1.41,0,0,1-1.74,0Z" fill="#003a50"/><path d="M224,106h-5.82v-1.84h8.86V106l-4.53,2.65v.07h1.28a3.9,3.9,0,0,1,2.79,1,3.52,3.52,0,0,1,1,2.67,3.34,3.34,0,0,1-1.32,2.82,7,7,0,0,1-7.25,0,3.37,3.37,0,0,1-1.32-2.85V112h2.11v.33c0,1.36.94,2,2.84,2s2.84-.67,2.84-2-.95-2-2.84-2h-3.27v-1.67L224,106Z" fill="#003a50"/><path d="M23.56,216.59a4.53,4.53,0,0,1-3.12,1,4.56,4.56,0,0,1-3.11-1,4,4,0,0,1,0-5.73,4.56,4.56,0,0,1,3.11-1.05,4.53,4.53,0,0,1,3.12,1.05,4,4,0,0,1,0,5.73Zm-1-4.6a3.48,3.48,0,0,0-2.14-.62,3.52,3.52,0,0,0-2.14.62,2.23,2.23,0,0,0,0,3.47,3.5,3.5,0,0,0,2.14.62,3.48,3.48,0,0,0,2.14-.62,2.21,2.21,0,0,0,0-3.47Z" fill="#003a50"/><path d="M24.55,208.27a.72.72,0,0,1-.57.23.74.74,0,0,1-.56-.23.86.86,0,0,1-.22-.62.83.83,0,0,1,.22-.61.74.74,0,0,1,.56-.23.72.72,0,0,1,.57.23.87.87,0,0,1,.21.61A.9.9,0,0,1,24.55,208.27Z" fill="#003a50"/><path d="M18.61,198.66v1.56l-.12,0-.31.15a1.6,1.6,0,0,0-.35.28,1.14,1.14,0,0,0-.29.5,2,2,0,0,0-.12.71,1.76,1.76,0,0,0,.73,1.52,3.11,3.11,0,0,0,1.89.54v0a1.27,1.27,0,0,1-.3-.31,2.9,2.9,0,0,1-.26-.43,3.28,3.28,0,0,1-.22-.67,4.12,4.12,0,0,1-.09-.86,3.53,3.53,0,0,1,.79-2.38,2.62,2.62,0,0,1,4,0,3.89,3.89,0,0,1,.78,2.54,3.38,3.38,0,0,1-1.09,2.73,4.48,4.48,0,0,1-3,.94h-.29a4.85,4.85,0,0,1-3-.94,3.18,3.18,0,0,1-1.2-2.68,3.93,3.93,0,0,1,.26-1.5,2.61,2.61,0,0,1,.66-1A2.39,2.39,0,0,1,18.61,198.66Zm2.22,1.77a2.27,2.27,0,0,0-.41,1.39,2.32,2.32,0,0,0,.41,1.4,1.33,1.33,0,0,0,1.11.55,1.3,1.3,0,0,0,1.11-.55,2.54,2.54,0,0,0,0-2.8,1.4,1.4,0,0,0-2.22,0Z" fill="#003a50"/><path d="M23.56,58a4.53,4.53,0,0,1-3.12,1.05A4.56,4.56,0,0,1,17.33,58a4,4,0,0,1,0-5.73,4.56,4.56,0,0,1,3.11-1.05,4.53,4.53,0,0,1,3.12,1.05,4,4,0,0,1,0,5.73Zm-1-4.6a3.48,3.48,0,0,0-2.14-.62,3.52,3.52,0,0,0-2.14.62,2.23,2.23,0,0,0,0,3.47,3.5,3.5,0,0,0,2.14.62,3.48,3.48,0,0,0,2.14-.62,2.21,2.21,0,0,0,0-3.47Z" fill="#003a50"/><path d="M24.55,49.69a.71.71,0,0,1-.57.22.73.73,0,0,1-.56-.22.86.86,0,0,1-.22-.62.83.83,0,0,1,.22-.61.74.74,0,0,1,.56-.23.72.72,0,0,1,.57.23.87.87,0,0,1,.21.61A.9.9,0,0,1,24.55,49.69Z" fill="#003a50"/><path d="M18.61,40.08v1.56l-.12,0-.31.15a1.6,1.6,0,0,0-.35.28,1.14,1.14,0,0,0-.29.5,2,2,0,0,0-.12.71,1.76,1.76,0,0,0,.73,1.52,3.11,3.11,0,0,0,1.89.54v0a1.18,1.18,0,0,1-.3-.32,2.4,2.4,0,0,1-.26-.42,3.09,3.09,0,0,1-.22-.67,4.12,4.12,0,0,1-.09-.86A3.58,3.58,0,0,1,20,40.67a2.62,2.62,0,0,1,4,0,3.89,3.89,0,0,1,.78,2.54A3.38,3.38,0,0,1,23.67,46a4.48,4.48,0,0,1-3,.93h-.29a4.85,4.85,0,0,1-3-.93,3.18,3.18,0,0,1-1.2-2.68,3.93,3.93,0,0,1,.26-1.5,2.61,2.61,0,0,1,.66-1A2.41,2.41,0,0,1,18.61,40.08Zm2.22,1.77a2.27,2.27,0,0,0-.41,1.39,2.32,2.32,0,0,0,.41,1.4,1.4,1.4,0,0,0,2.22,0,2.54,2.54,0,0,0,0-2.8,1.4,1.4,0,0,0-2.22,0Z" fill="#003a50"/></g></svg>