<svg id="Слой_1" data-name="Слой 1" xmlns="http://www.w3.org/2000/svg" xmlns:xlink="http://www.w3.org/1999/xlink" viewBox="0 0 449.72 432.28"><defs><clipPath id="clip-path"><polygon points="0 0.06 0 432.23 394.37 432.23 394.37 389.62 435.12 389.62 435.12 343.13 449.72 343.13 449.72 0.06 0 0.06" fill="none"/></clipPath></defs><rect x="441.61" y="12.85" width="8.1" height="320.66" fill="#fff"/><polygon points="9.84 12.85 9.84 419.65 392.71 419.65 392.71 333.52 441.61 333.52 441.61 12.85 9.84 12.85" fill="#fff"/><rect x="9.84" y="421.18" width="382.88" height="11.04" fill="#fff"/><g clip-path="url(#clip-path)"><line x1="13.04" y1="12.85" x2="13.04" y2="1361.98" fill="none" stroke="#003a50" stroke-miterlimit="10"/><line x1="9.84" y1="13.1" x2="878.71" y2="13.1" fill="none" stroke="#003a50" stroke-miterlimit="10"/><polyline points="888.97 1127.96 888.97 24.35 865.97 1.35 24.35 1.35 1.35 24.35 1.35 1370.48 120.96 1370.48 120.96 2495.6" fill="none" stroke="#003a50" stroke-miterlimit="10"/></g><rect x="228.38" y="30.26" width="57.6" height="4.55" fill="#fff"/><rect x="228.38" y="30.26" width="57.6" height="4.55" fill="none" stroke="#003a50" stroke-miterlimit="10"/><line x1="228.38" y1="32.53" x2="285.98" y2="32.53" fill="none" stroke="#003a50" stroke-miterlimit="10"/><rect x="228.38" y="30.26" width="4.55" height="4.55" fill="#fff"/><rect x="228.38" y="30.26" width="4.55" height="4.55" fill="none" stroke="#003a50" stroke-miterlimit="10"/><rect x="281.43" y="30.26" width="4.55" height="4.55" fill="#fff"/><rect x="281.43" y="30.26" width="4.55" height="4.55" fill="none" stroke="#003a50" stroke-miterlimit="10"/><rect x="245.43" y="30.26" width="4.55" height="4.55" fill="#fff"/><rect x="245.43" y="30.26" width="4.55" height="4.55" fill="none" stroke="#003a50" stroke-miterlimit="10"/><g clip-path="url(#clip-path)"><path d="M250,34.81v2.53c0,17.61,14.08,28.92,31.45,28.92V34.81" fill="none" stroke="#003a50" stroke-miterlimit="10"/></g><rect x="29.32" y="128.65" width="4.55" height="69.92" fill="#fff"/><rect x="29.32" y="128.65" width="4.55" height="69.92" fill="none" stroke="#003a50" stroke-miterlimit="10"/><line x1="31.6" y1="198.56" x2="31.6" y2="128.65" fill="none" stroke="#003a50" stroke-miterlimit="10"/><rect x="29.32" y="194.15" width="4.55" height="4.42" fill="#fff"/><rect x="29.32" y="194.15" width="4.55" height="4.42" fill="none" stroke="#003a50" stroke-miterlimit="10"/><rect x="29.32" y="128.65" width="4.55" height="4.42" fill="#fff"/><rect x="29.32" y="128.65" width="4.55" height="4.42" fill="none" stroke="#003a50" stroke-miterlimit="10"/><rect x="29.32" y="163.61" width="4.55" height="4.42" fill="#fff"/><rect x="29.32" y="163.61" width="4.55" height="4.42" fill="none" stroke="#003a50" stroke-miterlimit="10"/><g clip-path="url(#clip-path)"><path d="M33.88,163.61h2.53c17.6,0,28.92-13.67,28.92-30.54H33.88" fill="none" stroke="#003a50" stroke-miterlimit="10"/></g><rect x="29.32" y="288.13" width="4.55" height="69.08" fill="#fff"/><rect x="29.32" y="288.13" width="4.55" height="69.08" fill="none" stroke="#003a50" stroke-miterlimit="10"/><line x1="31.6" y1="288.13" x2="31.6" y2="357.21" fill="none" stroke="#003a50" stroke-miterlimit="10"/><rect x="29.32" y="288.13" width="4.55" height="4.37" fill="#fff"/><rect x="29.32" y="288.13" width="4.55" height="4.37" fill="none" stroke="#003a50" stroke-miterlimit="10"/><rect x="29.32" y="352.84" width="4.55" height="4.37" fill="#fff"/><rect x="29.32" y="352.84" width="4.55" height="4.37" fill="none" stroke="#003a50" stroke-miterlimit="10"/><rect x="29.32" y="318.3" width="4.55" height="4.37" fill="#fff"/><rect x="29.32" y="318.3" width="4.55" height="4.37" fill="none" stroke="#003a50" stroke-miterlimit="10"/><g clip-path="url(#clip-path)"><path d="M33.88,322.67h2.53c17.6,0,28.92,13.51,28.92,30.17H33.88" fill="none" stroke="#003a50" stroke-miterlimit="10"/></g><rect x="300.77" y="30.26" width="69.92" height="4.55" fill="#fff"/><rect x="300.78" y="30.26" width="69.92" height="4.55" fill="none" stroke="#003a50" stroke-miterlimit="10"/><line x1="300.78" y1="32.53" x2="370.69" y2="32.53" fill="none" stroke="#003a50" stroke-miterlimit="10"/><rect x="300.77" y="30.26" width="4.42" height="4.55" fill="#fff"/><rect x="300.78" y="30.26" width="4.42" height="4.55" fill="none" stroke="#003a50" stroke-miterlimit="10"/><rect x="366.27" y="30.26" width="4.42" height="4.55" fill="#fff"/><rect x="366.27" y="30.26" width="4.42" height="4.55" fill="none" stroke="#003a50" stroke-miterlimit="10"/><rect x="331.31" y="30.26" width="4.42" height="4.55" fill="#fff"/><rect x="331.31" y="30.26" width="4.42" height="4.55" fill="none" stroke="#003a50" stroke-miterlimit="10"/><g clip-path="url(#clip-path)"><path d="M335.73,34.81v2.53c0,17.61,13.67,28.92,30.54,28.92V34.81" fill="none" stroke="#003a50" stroke-miterlimit="10"/></g><rect x="29.32" y="30.3" width="110.59" height="4.55" fill="#fff"/><rect x="29.32" y="30.3" width="110.59" height="4.55" fill="none" stroke="#003a50" stroke-miterlimit="10"/><line x1="139.91" y1="32.58" x2="29.33" y2="32.58" fill="none" stroke="#003a50" stroke-miterlimit="10"/><rect x="135.36" y="30.3" width="4.55" height="4.55" fill="#fff"/><rect x="135.36" y="30.3" width="4.55" height="4.55" fill="none" stroke="#003a50" stroke-miterlimit="10"/><rect x="99.36" y="30.3" width="4.55" height="4.55" fill="#fff"/><rect x="99.36" y="30.3" width="4.55" height="4.55" fill="none" stroke="#003a50" stroke-miterlimit="10"/><rect x="63.56" y="30.3" width="4.55" height="4.55" fill="#fff"/><rect x="63.56" y="30.3" width="4.55" height="4.55" fill="none" stroke="#003a50" stroke-miterlimit="10"/><rect x="29.32" y="30.3" width="4.55" height="81.8" fill="#fff"/><rect x="29.32" y="30.3" width="4.55" height="81.8" fill="none" stroke="#003a50" stroke-miterlimit="10"/><line x1="31.6" y1="112.1" x2="31.6" y2="30.3" fill="none" stroke="#003a50" stroke-miterlimit="10"/><rect x="29.32" y="107.55" width="4.55" height="4.55" fill="#fff"/><rect x="29.32" y="107.55" width="4.55" height="4.55" fill="none" stroke="#003a50" stroke-miterlimit="10"/><rect x="29.32" y="30.3" width="4.55" height="4.55" fill="#fff"/><rect x="29.32" y="30.3" width="4.55" height="4.55" fill="none" stroke="#003a50" stroke-miterlimit="10"/><rect x="29.32" y="71.55" width="4.55" height="4.55" fill="#fff"/><rect x="29.32" y="71.55" width="4.55" height="4.55" fill="none" stroke="#003a50" stroke-miterlimit="10"/><g clip-path="url(#clip-path)"><path d="M103.91,34.86v2.53c0,17.6,14.08,28.92,31.45,28.92V34.86" fill="none" stroke="#003a50" stroke-miterlimit="10"/><path d="M33.88,76.1h2.53c17.6,0,28.92,14.08,28.92,31.45H33.88" fill="none" stroke="#003a50" stroke-miterlimit="10"/></g><rect x="399.55" y="225.85" width="34.75" height="81.24" fill="none" stroke="#003a50" stroke-miterlimit="10"/><g clip-path="url(#clip-path)"><path d="M430,291.07V245.44a12.85,12.85,0,0,0-13.06-12.61h0a12.84,12.84,0,0,0-13,12.61v45.63a12.83,12.83,0,0,0,13,12.6h0A12.84,12.84,0,0,0,430,291.07Z" fill="none" stroke="#003a50" stroke-miterlimit="10"/><path d="M416.92,289.52a1.83,1.83,0,1,0,1.89,1.83A1.86,1.86,0,0,0,416.92,289.52Z" fill="none" stroke="#003a50" stroke-miterlimit="10"/></g><rect x="201.2" y="46.52" width="34.08" height="76.16" fill="none" stroke="#003a50" stroke-miterlimit="10"/><g clip-path="url(#clip-path)"><path d="M231.05,62.23V107a12.58,12.58,0,0,1-12.8,12.36h0A12.58,12.58,0,0,1,205.42,107V62.23a12.59,12.59,0,0,1,12.8-12.37h0A12.59,12.59,0,0,1,231.05,62.23Z" fill="none" stroke="#003a50" stroke-miterlimit="10"/><ellipse cx="218.23" cy="61.95" rx="1.86" ry="1.79" fill="none" stroke="#003a50" stroke-miterlimit="10"/><path d="M363.79,283.42v23.21h18.34V283.42a9.17,9.17,0,0,0-18.34,0Z" fill="none" stroke="#003a50" stroke-miterlimit="10"/></g><line x1="382.13" y1="297.6" x2="363.79" y2="297.6" fill="none" stroke="#003a50" stroke-miterlimit="10"/><g clip-path="url(#clip-path)"><path d="M383.92,242V226.17a2.31,2.31,0,0,0-2.3-2.31H366.34a2.32,2.32,0,0,0-2.31,2.31V242a2.31,2.31,0,0,0,2.31,2.31h15.28A2.3,2.3,0,0,0,383.92,242Z" fill="none" stroke="#003a50" stroke-miterlimit="10"/><path d="M374,235.62a1.56,1.56,0,1,0-1.56-1.55A1.54,1.54,0,0,0,374,235.62Z" fill="none" stroke="#003a50" stroke-miterlimit="10"/></g><rect x="348.41" y="223.87" width="51.14" height="22.8" fill="none" stroke="#003a50" stroke-miterlimit="10"/><rect x="45.04" y="226.04" width="108.29" height="13.62" fill="none" stroke="#003a50" stroke-miterlimit="10"/><polygon points="65.33 233.28 99.69 230.46 134.22 233.28 134.22 235.25 65.33 235.25 65.33 233.28" fill="none" stroke="#003a50" stroke-miterlimit="10"/><rect x="390.14" y="60.78" width="45.5" height="98.82" fill="none" stroke="#003a50" stroke-miterlimit="10"/><g clip-path="url(#clip-path)"><path d="M427.6,69.21H398.55a2.11,2.11,0,0,0-2.11,2.11v58.51H429.7V71.32A2.11,2.11,0,0,0,427.6,69.21Z" fill="none" stroke="#003a50" stroke-miterlimit="10"/></g><rect x="396.44" y="117.79" width="33.26" height="12.04" fill="none" stroke="#003a50" stroke-miterlimit="10"/><g clip-path="url(#clip-path)"><rect x="396.39" y="132.97" width="33.65" height="19.89" rx="2.2" fill="none" stroke="#003a50" stroke-miterlimit="10"/><rect x="274.64" y="432.16" width="104.57" height="27.42" fill="none" stroke="#003a50" stroke-miterlimit="10"/><rect x="449.07" y="138.18" width="27.05" height="82.72" fill="none" stroke="#003a50" stroke-miterlimit="10"/><rect x="449.35" y="223.05" width="27.05" height="59.34" fill="none" stroke="#003a50" stroke-miterlimit="10"/></g><rect x="267.58" y="137.23" width="27.05" height="83.84" fill="none" stroke="#003a50" stroke-miterlimit="10"/><g clip-path="url(#clip-path)"><path d="M271.41,207.45a.79.79,0,0,1-.35-1.51,22.91,22.91,0,0,1,20.09,0,.8.8,0,0,1,.36,1.06.81.81,0,0,1-1.07.37,21.27,21.27,0,0,0-18.68,0A.72.72,0,0,1,271.41,207.45Z" fill="none" stroke="#003a50" stroke-miterlimit="10"/><path d="M271.41,203a.8.8,0,0,1-.35-1.52,22.91,22.91,0,0,1,20.09,0,.8.8,0,1,1-.71,1.43,21.27,21.27,0,0,0-18.68,0A.73.73,0,0,1,271.41,203Z" fill="none" stroke="#003a50" stroke-miterlimit="10"/><path d="M271.41,198.6a.79.79,0,0,1-.35-1.51,22.91,22.91,0,0,1,20.09,0,.8.8,0,0,1,.36,1.06.81.81,0,0,1-1.07.37,21.27,21.27,0,0,0-18.68,0A.72.72,0,0,1,271.41,198.6Z" fill="none" stroke="#003a50" stroke-miterlimit="10"/><path d="M271.41,194.18a.8.8,0,0,1-.35-1.52,22.91,22.91,0,0,1,20.09,0,.8.8,0,1,1-.71,1.43,21.27,21.27,0,0,0-18.68,0A.73.73,0,0,1,271.41,194.18Z" fill="none" stroke="#003a50" stroke-miterlimit="10"/><path d="M271.41,189.75a.8.8,0,0,1-.72-.44.81.81,0,0,1,.37-1.08,22.91,22.91,0,0,1,20.09,0,.8.8,0,0,1-.71,1.44,21.27,21.27,0,0,0-18.68,0A.72.72,0,0,1,271.41,189.75Z" fill="none" stroke="#003a50" stroke-miterlimit="10"/><path d="M271.41,185.32a.79.79,0,0,1-.35-1.51,22.91,22.91,0,0,1,20.09,0,.8.8,0,1,1-.71,1.43,21.27,21.27,0,0,0-18.68,0A.72.72,0,0,1,271.41,185.32Z" fill="none" stroke="#003a50" stroke-miterlimit="10"/><path d="M271.41,211.88a.81.81,0,0,1-.72-.45.79.79,0,0,1,.37-1.06,22.82,22.82,0,0,1,20.09,0,.79.79,0,1,1-.71,1.42,21.27,21.27,0,0,0-18.68,0A.73.73,0,0,1,271.41,211.88Z" fill="none" stroke="#003a50" stroke-miterlimit="10"/><path d="M271.41,216.3a.79.79,0,0,1-.35-1.51,22.91,22.91,0,0,1,20.09,0,.8.8,0,1,1-.71,1.43,21.27,21.27,0,0,0-18.68,0A.72.72,0,0,1,271.41,216.3Z" fill="none" stroke="#003a50" stroke-miterlimit="10"/></g><line x1="281.1" y1="221.06" x2="281.1" y2="135.98" fill="none" stroke="#003a50" stroke-miterlimit="10"/><rect x="286.1" y="312.67" width="57.73" height="24.36" fill="none" stroke="#003a50" stroke-miterlimit="10"/><g clip-path="url(#clip-path)"><path d="M313.56,334.33a.72.72,0,0,0,1.36.32,20.55,20.55,0,0,0,0-18.1.71.71,0,0,0-1-.32.7.7,0,0,0-.32,1,19.2,19.2,0,0,1,0,16.82A.61.61,0,0,0,313.56,334.33Z" fill="none" stroke="#003a50" stroke-miterlimit="10"/><path d="M317.55,334.33a.69.69,0,0,0,.4.64.71.71,0,0,0,1-.32,20.64,20.64,0,0,0,0-18.1.72.72,0,0,0-1.29.64,19.11,19.11,0,0,1,0,16.82A.71.71,0,0,0,317.55,334.33Z" fill="none" stroke="#003a50" stroke-miterlimit="10"/><path d="M321.53,334.33a.71.71,0,0,0,.4.64.73.73,0,0,0,1-.32,20.64,20.64,0,0,0,0-18.1.72.72,0,0,0-1-.32.71.71,0,0,0-.33,1,19.2,19.2,0,0,1,0,16.82A.72.72,0,0,0,321.53,334.33Z" fill="none" stroke="#003a50" stroke-miterlimit="10"/><path d="M325.52,334.33a.72.72,0,0,0,1.36.32,20.64,20.64,0,0,0,0-18.1.72.72,0,0,0-1.29.64,19.11,19.11,0,0,1,0,16.82A.71.71,0,0,0,325.52,334.33Z" fill="none" stroke="#003a50" stroke-miterlimit="10"/><path d="M329.51,334.33a.69.69,0,0,0,.4.64.71.71,0,0,0,1-.32,20.64,20.64,0,0,0,0-18.1.72.72,0,0,0-1.29.64,19.11,19.11,0,0,1,0,16.82A.71.71,0,0,0,329.51,334.33Z" fill="none" stroke="#003a50" stroke-miterlimit="10"/><path d="M333.49,334.33a.71.71,0,0,0,.4.64.73.73,0,0,0,1-.32,20.64,20.64,0,0,0,0-18.1.72.72,0,0,0-1-.32.71.71,0,0,0-.33,1,19.2,19.2,0,0,1,0,16.82A.72.72,0,0,0,333.49,334.33Z" fill="none" stroke="#003a50" stroke-miterlimit="10"/><path d="M309.57,334.33a.71.71,0,0,0,.4.64.73.73,0,0,0,1-.32,20.64,20.64,0,0,0,0-18.1.72.72,0,0,0-1-.32.71.71,0,0,0-.33,1,19.2,19.2,0,0,1,0,16.82A.72.72,0,0,0,309.57,334.33Z" fill="none" stroke="#003a50" stroke-miterlimit="10"/><path d="M305.59,334.33a.72.72,0,0,0,1.36.32,20.64,20.64,0,0,0,0-18.1.72.72,0,0,0-1.29.64,19.11,19.11,0,0,1,0,16.82A.71.71,0,0,0,305.59,334.33Z" fill="none" stroke="#003a50" stroke-miterlimit="10"/></g><line x1="286.1" y1="325.6" x2="343.83" y2="325.6" fill="none" stroke="#003a50" stroke-miterlimit="10"/><g clip-path="url(#clip-path)"><rect x="449.07" y="282.39" width="87.74" height="24.36" fill="none" stroke="#003a50" stroke-miterlimit="10"/><line x1="447.21" y1="295.33" x2="536.81" y2="295.33" fill="none" stroke="#003a50" stroke-miterlimit="10"/></g><rect x="353.38" y="196.7" width="81.75" height="24.36" fill="none" stroke="#003a50" stroke-miterlimit="10"/><g clip-path="url(#clip-path)"><path d="M404.85,218.37a.71.71,0,0,0,.4.64.73.73,0,0,0,1-.32,20.64,20.64,0,0,0,0-18.1.73.73,0,0,0-1-.33.71.71,0,0,0-.33,1,19.22,19.22,0,0,1,0,16.83A.72.72,0,0,0,404.85,218.37Z" fill="none" stroke="#003a50" stroke-miterlimit="10"/><path d="M408.84,218.37a.72.72,0,0,0,1.36.32,20.55,20.55,0,0,0,0-18.1.72.72,0,0,0-1-.33.71.71,0,0,0-.32,1,19.22,19.22,0,0,1,0,16.83A.61.61,0,0,0,408.84,218.37Z" fill="none" stroke="#003a50" stroke-miterlimit="10"/><path d="M412.83,218.37a.69.69,0,0,0,.4.64.71.71,0,0,0,1-.32,20.64,20.64,0,0,0,0-18.1.72.72,0,1,0-1.29.63,19.13,19.13,0,0,1,0,16.83A.71.71,0,0,0,412.83,218.37Z" fill="none" stroke="#003a50" stroke-miterlimit="10"/><path d="M416.81,218.37a.71.71,0,0,0,.4.64.73.73,0,0,0,1-.32,20.64,20.64,0,0,0,0-18.1.72.72,0,0,0-1-.32.7.7,0,0,0-.33.95,19.22,19.22,0,0,1,0,16.83A.72.72,0,0,0,416.81,218.37Z" fill="none" stroke="#003a50" stroke-miterlimit="10"/><path d="M420.8,218.37a.72.72,0,0,0,1.36.32,20.55,20.55,0,0,0,0-18.1.71.71,0,0,0-1-.32.7.7,0,0,0-.32.95,19.22,19.22,0,0,1,0,16.83A.61.61,0,0,0,420.8,218.37Z" fill="none" stroke="#003a50" stroke-miterlimit="10"/><path d="M424.79,218.37a.69.69,0,0,0,.4.64.71.71,0,0,0,1-.32,20.64,20.64,0,0,0,0-18.1.71.71,0,0,0-1-.32.71.71,0,0,0-.33.95,19.13,19.13,0,0,1,0,16.83A.71.71,0,0,0,424.79,218.37Z" fill="none" stroke="#003a50" stroke-miterlimit="10"/><path d="M400.87,218.37a.72.72,0,0,0,1.36.32,20.64,20.64,0,0,0,0-18.1.72.72,0,1,0-1.29.63,19.13,19.13,0,0,1,0,16.83A.71.71,0,0,0,400.87,218.37Z" fill="none" stroke="#003a50" stroke-miterlimit="10"/><path d="M396.88,218.37a.71.71,0,0,0,.4.64.73.73,0,0,0,1-.32,20.64,20.64,0,0,0,0-18.1.73.73,0,0,0-1-.33.71.71,0,0,0-.33,1,19.22,19.22,0,0,1,0,16.83A.72.72,0,0,0,396.88,218.37Z" fill="none" stroke="#003a50" stroke-miterlimit="10"/></g><line x1="353.38" y1="209.64" x2="435.13" y2="209.64" fill="none" stroke="#003a50" stroke-miterlimit="10"/><rect x="240.88" y="391.67" width="75.58" height="26.08" fill="none" stroke="#003a50" stroke-miterlimit="10"/><g clip-path="url(#clip-path)"><path d="M284.06,414.05a.76.76,0,0,0,.43.69.77.77,0,0,0,1-.35,22.06,22.06,0,0,0,0-19.37.77.77,0,0,0-1-.34.75.75,0,0,0-.35,1,20.55,20.55,0,0,1,0,18A.64.64,0,0,0,284.06,414.05Z" fill="none" stroke="#003a50" stroke-miterlimit="10"/><path d="M288.32,414.05a.77.77,0,0,0,1.46.34,22.06,22.06,0,0,0,0-19.37.75.75,0,0,0-1-.34.76.76,0,0,0-.36,1,20.47,20.47,0,0,1,0,18A.76.76,0,0,0,288.32,414.05Z" fill="none" stroke="#003a50" stroke-miterlimit="10"/><path d="M292.59,414.05a.76.76,0,0,0,.43.69.77.77,0,0,0,1-.35,22.06,22.06,0,0,0,0-19.37.77.77,0,0,0-1-.34.75.75,0,0,0-.35,1,20.55,20.55,0,0,1,0,18A.64.64,0,0,0,292.59,414.05Z" fill="none" stroke="#003a50" stroke-miterlimit="10"/><path d="M296.86,414.05a.76.76,0,0,0,.43.69.77.77,0,0,0,1-.35,22.06,22.06,0,0,0,0-19.37.77.77,0,0,0-1-.34.75.75,0,0,0-.35,1,20.55,20.55,0,0,1,0,18A.64.64,0,0,0,296.86,414.05Z" fill="none" stroke="#003a50" stroke-miterlimit="10"/><path d="M301.12,414.05a.77.77,0,0,0,1.46.34,22.06,22.06,0,0,0,0-19.37.75.75,0,0,0-1-.34.76.76,0,0,0-.36,1,20.47,20.47,0,0,1,0,18A.76.76,0,0,0,301.12,414.05Z" fill="none" stroke="#003a50" stroke-miterlimit="10"/><path d="M305.39,414.05a.76.76,0,0,0,.43.69.77.77,0,0,0,1-.35,22.06,22.06,0,0,0,0-19.37.77.77,0,0,0-1-.34.75.75,0,0,0-.35,1,20.47,20.47,0,0,1,0,18A.76.76,0,0,0,305.39,414.05Z" fill="none" stroke="#003a50" stroke-miterlimit="10"/><path d="M279.79,414.05a.76.76,0,0,0,.43.69.77.77,0,0,0,1-.35,22.06,22.06,0,0,0,0-19.37.77.77,0,0,0-1-.34.75.75,0,0,0-.35,1,20.55,20.55,0,0,1,0,18A.64.64,0,0,0,279.79,414.05Z" fill="none" stroke="#003a50" stroke-miterlimit="10"/><path d="M275.52,414.05a.77.77,0,0,0,1.46.34A22.06,22.06,0,0,0,277,395a.75.75,0,0,0-1-.34.76.76,0,0,0-.36,1,20.47,20.47,0,0,1,0,18A.76.76,0,0,0,275.52,414.05Z" fill="none" stroke="#003a50" stroke-miterlimit="10"/></g><line x1="240.54" y1="404.71" x2="316.46" y2="404.71" fill="none" stroke="#003a50" stroke-miterlimit="10"/><rect x="51.93" y="202.89" width="18.31" height="18.31" fill="none" stroke="#003a50" stroke-miterlimit="10"/><g clip-path="url(#clip-path)"><path d="M66.34,206.79a7.42,7.42,0,1,0,0,10.5A7.42,7.42,0,0,0,66.34,206.79Z" fill="none" stroke="#003a50" stroke-miterlimit="10"/><path d="M66.84,207.35c-1.37.13-2.76-.4-4.09.94-2,2,.11,4.05-1.85,6s-4.06-.11-6,1.86" fill="none" stroke="#003a50" stroke-miterlimit="10"/></g><rect x="162.79" y="202.89" width="18.31" height="18.31" fill="none" stroke="#003a50" stroke-miterlimit="10"/><g clip-path="url(#clip-path)"><path d="M177.2,206.79a7.42,7.42,0,1,0,0,10.5A7.42,7.42,0,0,0,177.2,206.79Z" fill="none" stroke="#003a50" stroke-miterlimit="10"/><path d="M177.7,207.35c-1.37.13-2.76-.4-4.09.94-2,2,.11,4.05-1.85,6s-4.06-.11-6,1.86" fill="none" stroke="#003a50" stroke-miterlimit="10"/></g><rect x="75.35" y="129.64" width="82.4" height="91.55" fill="none" stroke="#003a50" stroke-miterlimit="10"/><g clip-path="url(#clip-path)"><path d="M149.67,137.5H83.43a1.69,1.69,0,0,0-1.69,1.69V193.8h69.62V139.19A1.69,1.69,0,0,0,149.67,137.5Z" fill="none" stroke="#003a50" stroke-miterlimit="10"/><path d="M114.25,196.72H83.14a1.6,1.6,0,0,0-1.6,1.6V213.6a1.59,1.59,0,0,0,1.6,1.59h31.11a1.6,1.6,0,0,0,1.6-1.59V198.32A1.6,1.6,0,0,0,114.25,196.72Z" fill="none" stroke="#003a50" stroke-miterlimit="10"/><path d="M150,196.72H118.84a1.6,1.6,0,0,0-1.59,1.6V213.6a1.59,1.59,0,0,0,1.59,1.59H150a1.6,1.6,0,0,0,1.6-1.59V198.32A1.6,1.6,0,0,0,150,196.72Z" fill="none" stroke="#003a50" stroke-miterlimit="10"/></g><line x1="151.56" y1="182.62" x2="81.54" y2="182.62" fill="none" stroke="#003a50" stroke-miterlimit="10"/><rect x="290.68" y="282.42" width="27.07" height="27.53" fill="none" stroke="#003a50" stroke-miterlimit="10"/><g clip-path="url(#clip-path)"><path d="M295.45,305.6a.71.71,0,0,0,.4.64.73.73,0,0,0,1-.32,20.64,20.64,0,0,0,0-18.1.72.72,0,0,0-1-.32.71.71,0,0,0-.33,1,19.2,19.2,0,0,1,0,16.82A.76.76,0,0,0,295.45,305.6Z" fill="none" stroke="#003a50" stroke-miterlimit="10"/><path d="M299.44,305.6a.72.72,0,0,0,1.36.32,20.55,20.55,0,0,0,0-18.1.71.71,0,0,0-1-.32.7.7,0,0,0-.32,1,19.2,19.2,0,0,1,0,16.82A.63.63,0,0,0,299.44,305.6Z" fill="none" stroke="#003a50" stroke-miterlimit="10"/><path d="M303.43,305.6a.72.72,0,0,0,1.36.32,20.64,20.64,0,0,0,0-18.1.72.72,0,0,0-1.29.64,19.11,19.11,0,0,1,0,16.82A.74.74,0,0,0,303.43,305.6Z" fill="none" stroke="#003a50" stroke-miterlimit="10"/><path d="M307.41,305.6a.71.71,0,0,0,.4.64.73.73,0,0,0,1-.32,20.64,20.64,0,0,0,0-18.1.72.72,0,0,0-1-.32.71.71,0,0,0-.33,1,19.2,19.2,0,0,1,0,16.82A.76.76,0,0,0,307.41,305.6Z" fill="none" stroke="#003a50" stroke-miterlimit="10"/></g><line x1="291.43" y1="296.87" x2="317.76" y2="296.87" fill="none" stroke="#003a50" stroke-miterlimit="10"/><g clip-path="url(#clip-path)"><path d="M330.92,289.46a3.39,3.39,0,0,0,3.12-2.1H336l5.1,3-2.31,3.77-2.66-1.46v11.83H325V292.71l-2.65,1.46L320,290.4l5.14-3h2.56A3.47,3.47,0,0,0,330.92,289.46Z" fill="none" stroke="#003a50" stroke-miterlimit="10"/></g><rect x="317.76" y="282.42" width="25.59" height="27.05" fill="none" stroke="#003a50" stroke-miterlimit="10"/><g clip-path="url(#clip-path)"><path d="M245.81,319.8a.94.94,0,0,0-.72,1.14,10.41,10.41,0,0,1-20.29,4.64A.95.95,0,0,0,223,326a12.31,12.31,0,1,0,24-5.5A1,1,0,0,0,245.81,319.8Z" fill="none" stroke="#003a50" stroke-miterlimit="10"/><path d="M204.15,327.13a1,1,0,0,0-1.32-.25,10.41,10.41,0,1,1-11.72-17.2.95.95,0,1,0-1.07-1.57,12.31,12.31,0,0,0,13.86,20.34A1,1,0,0,0,204.15,327.13Z" fill="none" stroke="#003a50" stroke-miterlimit="10"/><path d="M202.26,291.34a1,1,0,0,0,1-.89A10.41,10.41,0,1,1,224,291.68a1,1,0,0,0,.9,1,.94.94,0,0,0,1-.89,12.31,12.31,0,1,0-24.57-1.45A1,1,0,0,0,202.26,291.34Z" fill="none" stroke="#003a50" stroke-miterlimit="10"/><path d="M235.09,332.34a9.58,9.58,0,0,0,9.06-11.69l-1.54-6.7a2.68,2.68,0,0,0-3.2-2l-10.15,2.33a18,18,0,0,1-4.53,7.13l.72,3.17A9.82,9.82,0,0,0,235.09,332.34Z" fill="none" stroke="#003a50" stroke-miterlimit="10"/><path d="M202.77,325.91l1.75-1.21a18,18,0,0,1-10.3-16.1l-1.9,1.3a9.8,9.8,0,0,0-3.75,11.81A9.59,9.59,0,0,0,202.77,325.91Z" fill="none" stroke="#003a50" stroke-miterlimit="10"/><path d="M223,294l.09-1.48a9.78,9.78,0,0,0-7-10.17,9.55,9.55,0,0,0-12,8.66l-.09,1.39a18.11,18.11,0,0,1,12.56-1.45A17.89,17.89,0,0,1,223,294Z" fill="none" stroke="#003a50" stroke-miterlimit="10"/><path d="M224.73,321.38a18,18,0,0,0,4.53-7.13,13.1,13.1,0,0,0,.45-1.51A18,18,0,0,0,223,294a17.72,17.72,0,0,0-6.47-3.05,18,18,0,0,0-21.83,13.14,16.43,16.43,0,0,0-.52,4.53,18,18,0,0,0,10.3,16.1,18.28,18.28,0,0,0,3.38,1.21A18,18,0,0,0,224.73,321.38Z" fill="none" stroke="#003a50" stroke-miterlimit="10"/><path d="M100.13,290.88v31h34.56V289.21H101.8A1.67,1.67,0,0,0,100.13,290.88Z" fill="none" stroke="#003a50" stroke-miterlimit="10"/><path d="M65.5,290.71v31.15h34.56V290.71a1.5,1.5,0,0,0-1.5-1.5H67A1.5,1.5,0,0,0,65.5,290.71Z" fill="none" stroke="#003a50" stroke-miterlimit="10"/><path d="M134.69,289.21a2.35,2.35,0,0,1,2.51-2.14h3.19a2.35,2.35,0,0,1,2.51,2.14V325.6H57.29V289.53a2.35,2.35,0,0,1,2.51-2.14H63a2.35,2.35,0,0,1,2.51,2.14v32.33h69.19Z" fill="none" stroke="#003a50" stroke-miterlimit="10"/></g><rect x="65.5" y="314.88" width="69.19" height="6.98" fill="none" stroke="#003a50" stroke-miterlimit="10"/><rect x="182.62" y="391.69" width="26.65" height="26.69" fill="none" stroke="#003a50" stroke-miterlimit="10"/><g clip-path="url(#clip-path)"><path d="M192.55,404.42v-8.67h6.75v8.67a2.78,2.78,0,0,1-2.77,2.78h-1.2A2.79,2.79,0,0,1,192.55,404.42Z" fill="none" stroke="#003a50" stroke-miterlimit="10"/></g><polyline points="198.66 415.48 195.93 415.48 193.2 415.48" fill="none" stroke="#003a50" stroke-miterlimit="10"/><line x1="195.93" y1="407.19" x2="195.93" y2="415.48" fill="none" stroke="#003a50" stroke-miterlimit="10"/><rect x="87.04" y="391.67" width="26.12" height="26.12" fill="none" stroke="#003a50" stroke-miterlimit="10"/><g clip-path="url(#clip-path)"><circle cx="94.13" cy="410.56" r="3.56" fill="none" stroke="#003a50" stroke-miterlimit="10"/><circle cx="106.02" cy="410.56" r="3.56" fill="none" stroke="#003a50" stroke-miterlimit="10"/><circle cx="94.13" cy="398.98" r="3.56" fill="none" stroke="#003a50" stroke-miterlimit="10"/><circle cx="106.02" cy="398.98" r="3.56" fill="none" stroke="#003a50" stroke-miterlimit="10"/></g><polyline points="147.47 414.48 152.14 414.48 156.81 414.48" fill="none" stroke="#003a50" stroke-miterlimit="10"/><line x1="152.16" y1="405.12" x2="152.16" y2="414.48" fill="none" stroke="#003a50" stroke-miterlimit="10"/><g clip-path="url(#clip-path)"><path d="M141.79,398.82v8.43a3.24,3.24,0,0,0,3.24,3.23h14.19a3.24,3.24,0,0,0,3.24-3.23v-8.43a3.23,3.23,0,0,0-3.24-3.23H145A3.23,3.23,0,0,0,141.79,398.82Z" fill="none" stroke="#003a50" stroke-miterlimit="10"/><path d="M152.16,404a1.67,1.67,0,1,0,0,3.33,1.67,1.67,0,0,0,0-3.33Z" fill="none" stroke="#003a50" stroke-miterlimit="10"/></g><rect x="209.27" y="391.67" width="26.74" height="26.74" fill="none" stroke="#003a50" stroke-miterlimit="10"/><line x1="214.8" y1="405.04" x2="230.49" y2="405.04" fill="none" stroke="#003a50" stroke-miterlimit="10"/><line x1="222.64" y1="397.19" x2="222.64" y2="412.88" fill="none" stroke="#003a50" stroke-miterlimit="10"/><line x1="217.09" y1="399.49" x2="228.19" y2="410.58" fill="none" stroke="#003a50" stroke-miterlimit="10"/><line x1="228.19" y1="399.49" x2="217.1" y2="410.58" fill="none" stroke="#003a50" stroke-miterlimit="10"/><rect x="37.71" y="391.67" width="200.88" height="29.62" fill="none" stroke="#003a50" stroke-miterlimit="10"/><g clip-path="url(#clip-path)"><rect x="242.91" y="431.75" width="26.74" height="26.74" fill="none" stroke="#003a50" stroke-miterlimit="10"/><polygon points="235.96 458.5 242.91 458.5 242.91 430.73 185.21 430.73 185.21 458.5 235.96 458.5" fill="none" stroke="#003a50" stroke-miterlimit="10"/><path d="M301.69,49.18h0a1,1,0,0,0-1,1v52.74a1,1,0,0,0,1.94,0V50.15A1,1,0,0,0,301.69,49.18Z" fill="none" stroke="#003a50" stroke-miterlimit="10"/><path d="M322.68,85a10.24,10.24,0,0,0,11-16.2.78.78,0,0,0-1.11-.12.79.79,0,0,0-.12,1.11,8.64,8.64,0,0,1-9.8,13.51Z" fill="none" stroke="#003a50" stroke-miterlimit="10"/><rect x="299.11" y="47.42" width="23.56" height="58.2" rx="2.29" fill="none" stroke="#003a50" stroke-miterlimit="10"/><path d="M311.78,56.89a3.81,3.81,0,1,1,0-5.4A3.81,3.81,0,0,1,311.78,56.89Z" fill="none" stroke="#003a50" stroke-miterlimit="10"/><path d="M312,56.6c-.7-.07-1.41.2-2.1-.48-1-1,.06-2.09-.95-3.1s-2.08.06-3.1-1" fill="none" stroke="#003a50" stroke-miterlimit="10"/><path d="M322.68,81.74a7.36,7.36,0,1,0,0-13.57Z" fill="none" stroke="#003a50" stroke-miterlimit="10"/></g><rect x="75.64" y="94.75" width="81.75" height="13.62" fill="none" stroke="#003a50" stroke-miterlimit="10"/><polygon points="150.96 101.99 116.6 99.17 82.07 101.99 82.07 103.96 150.96 103.96 150.96 101.99" fill="none" stroke="#003a50" stroke-miterlimit="10"/><rect x="140.85" y="46.17" width="57.48" height="27.05" fill="none" stroke="#003a50" stroke-miterlimit="10"/><g clip-path="url(#clip-path)"><path d="M154.46,50a.8.8,0,0,1,1.52-.35,22.88,22.88,0,0,1,0,20.08.8.8,0,0,1-1.43-.7,21.27,21.27,0,0,0,0-18.68A.76.76,0,0,1,154.46,50Z" fill="none" stroke="#003a50" stroke-miterlimit="10"/><path d="M158.89,50a.8.8,0,0,1,.44-.72.81.81,0,0,1,1.08.37,22.88,22.88,0,0,1,0,20.08A.8.8,0,0,1,159,69a21.27,21.27,0,0,0,0-18.68A.74.74,0,0,1,158.89,50Z" fill="none" stroke="#003a50" stroke-miterlimit="10"/><path d="M163.32,50a.79.79,0,0,1,1.51-.35,22.88,22.88,0,0,1,0,20.08.8.8,0,0,1-1.43-.7,21.27,21.27,0,0,0,0-18.68A.74.74,0,0,1,163.32,50Z" fill="none" stroke="#003a50" stroke-miterlimit="10"/><path d="M167.74,50a.8.8,0,0,1,1.52-.35,22.88,22.88,0,0,1,0,20.08.79.79,0,0,1-1.07.36.78.78,0,0,1-.36-1.06,21.27,21.27,0,0,0,0-18.68A.76.76,0,0,1,167.74,50Z" fill="none" stroke="#003a50" stroke-miterlimit="10"/><path d="M172.17,50a.79.79,0,0,1,1.51-.35,22.88,22.88,0,0,1,0,20.08.8.8,0,0,1-1.43-.7,21.27,21.27,0,0,0,0-18.68A.74.74,0,0,1,172.17,50Z" fill="none" stroke="#003a50" stroke-miterlimit="10"/><path d="M176.59,50a.8.8,0,0,1,1.52-.35,22.88,22.88,0,0,1,0,20.08.79.79,0,0,1-1.07.36.78.78,0,0,1-.36-1.06,21.27,21.27,0,0,0,0-18.68A.76.76,0,0,1,176.59,50Z" fill="none" stroke="#003a50" stroke-miterlimit="10"/><path d="M150,50a.79.79,0,0,1,1.51-.35,22.88,22.88,0,0,1,0,20.08.78.78,0,0,1-1.06.36.79.79,0,0,1-.37-1.06,21.27,21.27,0,0,0,0-18.68A.74.74,0,0,1,150,50Z" fill="none" stroke="#003a50" stroke-miterlimit="10"/><path d="M145.61,50a.8.8,0,0,1,1.52-.35,22.88,22.88,0,0,1,0,20.08.8.8,0,0,1-1.43-.7,21.27,21.27,0,0,0,0-18.68A.76.76,0,0,1,145.61,50Z" fill="none" stroke="#003a50" stroke-miterlimit="10"/></g><line x1="140.85" y1="59.69" x2="198.34" y2="59.69" fill="none" stroke="#003a50" stroke-miterlimit="10"/><g clip-path="url(#clip-path)"><rect x="449.64" y="47.42" width="23.56" height="58.2" rx="2.29" fill="none" stroke="#003a50" stroke-miterlimit="10"/><path d="M76.15,467.86A2.35,2.35,0,0,1,73.64,470H70.45a2.35,2.35,0,0,1-2.51-2.14V431.47h85.61v36.07a2.36,2.36,0,0,1-2.52,2.14h-3.18a2.35,2.35,0,0,1-2.51-2.14V435.21H76.15Z" fill="none" stroke="#003a50" stroke-miterlimit="10"/><path d="M278,88.61h15.79a2.31,2.31,0,0,0,2.31-2.31V71a2.31,2.31,0,0,0-2.31-2.31H278A2.32,2.32,0,0,0,275.67,71V86.3A2.32,2.32,0,0,0,278,88.61Z" fill="none" stroke="#003a50" stroke-miterlimit="10"/><path d="M284.32,78.66a1.56,1.56,0,1,0,1.55-1.56A1.55,1.55,0,0,0,284.32,78.66Z" fill="none" stroke="#003a50" stroke-miterlimit="10"/><path d="M271.42,109.05h23.21V90.71H271.42a9.17,9.17,0,0,0,0,18.34Z" fill="none" stroke="#003a50" stroke-miterlimit="10"/></g><line x1="285.6" y1="90.71" x2="285.6" y2="109.05" fill="none" stroke="#003a50" stroke-miterlimit="10"/><g clip-path="url(#clip-path)"><path d="M229,223v-2.68c0-18.69,16.35-33.84,36.52-33.84V223" fill="none" stroke="#003a50" stroke-miterlimit="10" stroke-width="1.6"/><path d="M339.48,223v-2.68c0-18.69-16.35-33.84-36.52-33.84V223" fill="none" stroke="#003a50" stroke-miterlimit="10" stroke-width="1.6"/><path d="M346.92,249h-2.25c-15.59,0-28.22,13.64-28.22,30.46h30.47" fill="none" stroke="#003a50" stroke-miterlimit="10" stroke-width="1.6"/><path d="M230.23,135.7v2.24c0,15.59,13.64,28.22,30.46,28.22V135.7" fill="none" stroke="#003a50" stroke-miterlimit="10" stroke-width="1.6"/><path d="M390.88,387H394c21.41,0,38.76-18.74,38.76-41.85H390.88" fill="none" stroke="#003a50" stroke-miterlimit="10" stroke-width="1.6"/><path d="M484.85,421h-3.08C460.35,421,443,402.21,443,379.1h41.85" fill="none" stroke="#003a50" stroke-miterlimit="10" stroke-width="1.6"/></g><rect x="269.21" y="426.63" width="5.75" height="5.59" fill="#003a50"/><rect x="235.71" y="391.17" width="5.75" height="30.01" fill="#003a50"/><rect x="315.71" y="391.17" width="5.75" height="30.01" fill="#003a50"/><rect x="285.21" y="281.92" width="5.75" height="55.62" fill="#003a50"/><rect x="343.21" y="278.6" width="5.75" height="58.94" fill="#003a50"/><rect x="343.21" y="221.27" width="5.75" height="28.5" fill="#003a50"/><rect x="294.08" y="36.35" width="5.75" height="185.92" fill="#003a50"/><rect x="372.96" y="308.07" width="5.75" height="26.26" fill="#003a50"/><rect x="334.38" y="394.05" width="5.75" height="30.01" fill="#003a50"/><rect x="315.71" y="391.17" width="65.67" height="5.75" fill="#003a50"/><rect x="287.89" y="309.1" width="57.12" height="5.75" fill="#003a50"/><rect x="338.69" y="220.6" width="111.03" height="5.75" fill="#003a50"/><rect x="264.61" y="220.6" width="39.1" height="5.75" fill="#003a50"/><rect x="259.86" y="132.43" width="39.1" height="5.75" fill="#003a50"/><rect x="196.7" y="132.43" width="34.3" height="5.75" fill="#003a50"/><rect x="276.53" y="113.77" width="19.55" height="5.75" fill="#003a50"/><rect x="140.37" y="40.77" width="68.84" height="5.75" fill="#003a50"/><rect x="276.53" y="113.77" width="5.75" height="19.55" fill="#003a50"/><rect x="196.69" y="37.02" width="5.75" height="101.17" fill="#003a50"/><rect x="34.38" y="220.6" width="195.34" height="5.75" fill="#003a50"/><rect x="343.21" y="331.79" width="57.12" height="5.75" fill="#003a50"/><rect x="345.01" y="306.23" width="104.7" height="5.75" fill="#003a50"/><rect x="32.55" y="376.65" width="13.66" height="55.57" fill="#003a50"/><rect x="32.55" y="200.86" width="13.66" height="66.97" fill="#003a50"/><rect x="286.54" y="1.35" width="12.84" height="40.83" fill="#003a50"/><g clip-path="url(#clip-path)"><rect x="286.54" y="1.35" width="12.84" height="40.83" fill="none" stroke="#003a50" stroke-miterlimit="10" stroke-width="2.09"/></g><rect x="377.96" y="386.15" width="14.75" height="46.08" fill="#003a50"/><rect x="153.34" y="220.6" width="67.62" height="13.75" fill="#003a50"/><rect x="377.96" y="326.82" width="14.75" height="19.11" fill="#003a50"/><rect x="384.38" y="326.82" width="65.33" height="15.03" fill="#003a50"/><rect x="31.72" y="417.13" width="350.83" height="15.03" fill="#003a50"/><rect x="434.57" y="31.85" width="15.08" height="301.67" fill="#003a50"/><rect x="12.96" y="358.13" width="27.42" height="74.09" fill="#003a50"/><g clip-path="url(#clip-path)"><rect x="12.96" y="358.13" width="27.42" height="87.78" fill="none" stroke="#003a50" stroke-miterlimit="10" stroke-width="2.09"/></g><rect x="12.96" y="199.86" width="27.42" height="87.78" fill="#003a50"/><rect x="12.96" y="199.86" width="27.42" height="87.78" fill="none" stroke="#003a50" stroke-miterlimit="10" stroke-width="2.09"/><rect x="1.35" y="358.13" width="39.03" height="14.21" fill="#003a50"/><g clip-path="url(#clip-path)"><rect x="1.35" y="358.13" width="39.03" height="14.21" fill="none" stroke="#003a50" stroke-miterlimit="10" stroke-width="2.09"/></g><rect x="1.35" y="199.86" width="39.03" height="14.21" fill="#003a50"/><g clip-path="url(#clip-path)"><rect x="1.35" y="199.86" width="39.03" height="14.21" fill="none" stroke="#003a50" stroke-miterlimit="10" stroke-width="2.09"/></g><rect x="1.35" y="273.42" width="39.03" height="14.21" fill="#003a50"/><g clip-path="url(#clip-path)"><rect x="1.35" y="273.42" width="39.03" height="14.21" fill="none" stroke="#003a50" stroke-miterlimit="10" stroke-width="2.09"/></g><rect x="1.35" y="431.7" width="39.03" height="0.52" fill="#003a50"/><g clip-path="url(#clip-path)"><rect x="1.35" y="431.7" width="39.03" height="14.21" fill="none" stroke="#003a50" stroke-miterlimit="10" stroke-width="2.09"/></g><rect x="10.21" y="358.13" width="30.17" height="74.09" fill="#003a50"/><g clip-path="url(#clip-path)"><rect x="10.21" y="358.13" width="30.17" height="87.78" fill="none" stroke="#003a50" stroke-miterlimit="10" stroke-width="2.09"/></g><rect x="11.46" y="199.86" width="28.92" height="87.78" fill="#003a50"/><rect x="11.46" y="199.86" width="28.92" height="87.78" fill="none" stroke="#003a50" stroke-miterlimit="10" stroke-width="2.09"/><rect x="1.35" y="112.08" width="39.03" height="15.77" fill="#003a50"/><g clip-path="url(#clip-path)"><rect x="1.35" y="112.08" width="39.03" height="15.77" fill="none" stroke="#003a50" stroke-miterlimit="10" stroke-width="2.09"/></g><rect x="1.35" y="112.08" width="39.03" height="15.77" fill="#003a50"/><g clip-path="url(#clip-path)"><rect x="1.35" y="112.08" width="39.03" height="15.77" fill="none" stroke="#003a50" stroke-miterlimit="10" stroke-width="2.09"/></g><rect x="1.35" y="1.35" width="23" height="23" fill="#003a50"/><g clip-path="url(#clip-path)"><rect x="1.35" y="1.35" width="23" height="23" fill="none" stroke="#003a50" stroke-miterlimit="10" stroke-width="2.09"/></g><rect x="140.37" y="13.1" width="87.5" height="29.08" fill="#003a50"/><rect x="140.37" y="13.1" width="87.5" height="29.08" fill="none" stroke="#003a50" stroke-miterlimit="10" stroke-width="2.09"/><rect x="140.37" y="1.35" width="12.84" height="40.83" fill="#003a50"/><g clip-path="url(#clip-path)"><rect x="140.37" y="1.35" width="12.84" height="40.83" fill="none" stroke="#003a50" stroke-miterlimit="10" stroke-width="2.09"/></g><rect x="215.04" y="1.35" width="12.84" height="40.83" fill="#003a50"/><g clip-path="url(#clip-path)"><rect x="215.04" y="1.35" width="12.84" height="40.83" fill="none" stroke="#003a50" stroke-miterlimit="10" stroke-width="2.09"/></g><rect x="372.21" y="1.35" width="12.84" height="40.83" fill="#003a50"/><g clip-path="url(#clip-path)"><rect x="372.21" y="1.35" width="12.84" height="40.83" fill="none" stroke="#003a50" stroke-miterlimit="10" stroke-width="2.09"/></g><rect x="446.38" y="1.35" width="3.34" height="40.83" fill="#003a50"/><g clip-path="url(#clip-path)"><rect x="446.38" y="1.35" width="12.84" height="40.83" fill="none" stroke="#003a50" stroke-miterlimit="10" stroke-width="2.09"/></g><rect x="372.21" y="13.1" width="77.51" height="29.08" fill="#003a50"/><g clip-path="url(#clip-path)"><rect x="372.21" y="13.1" width="87" height="29.08" fill="none" stroke="#003a50" stroke-miterlimit="10" stroke-width="2.09"/><path d="M351.17,360.2h-5.82v-1.84h8.86v1.84l-4.52,2.65v.06H351a3.83,3.83,0,0,1,2.79,1,3.49,3.49,0,0,1,1.06,2.66,3.33,3.33,0,0,1-1.33,2.83,7,7,0,0,1-7.24,0,3.36,3.36,0,0,1-1.33-2.86v-.32H347v.32c0,1.36,1,2,2.84,2s2.84-.67,2.84-2-.95-2-2.84-2H346.6V363l4.57-2.68Z" fill="#003a50"/><path d="M356.91,370.13a1,1,0,0,1-.32-.8,1,1,0,0,1,.32-.81,1.41,1.41,0,0,1,1.74,0,1.07,1.07,0,0,1,.32.81,1,1,0,0,1-.32.8,1.41,1.41,0,0,1-1.74,0Z" fill="#003a50"/><path d="M366.2,362.28a5,5,0,0,1,3.33,1.07,4.16,4.16,0,0,1,0,6,5.38,5.38,0,0,1-3.54,1.08,5.8,5.8,0,0,1-3.57-1,3.18,3.18,0,0,1-1.28-2.68h2.11a1.53,1.53,0,0,0,.7,1.33,3.59,3.59,0,0,0,2,.49,3.17,3.17,0,0,0,2-.58,2.36,2.36,0,0,0,0-3.39,3.31,3.31,0,0,0-2.07-.58,3.6,3.6,0,0,0-1.92.42,1.87,1.87,0,0,0-.69.64l-.05.12H361.1v-6.87H370v1.84h-6.76v3h.05a1.83,1.83,0,0,1,.39-.31,4,4,0,0,1,.55-.27A5.66,5.66,0,0,1,366.2,362.28Z" fill="#003a50"/><path d="M367.26,257.74h-5.82V255.9h8.86v1.84l-4.52,2.65v.07h1.27a3.87,3.87,0,0,1,2.79,1,3.5,3.5,0,0,1,1.06,2.67,3.32,3.32,0,0,1-1.33,2.82,7,7,0,0,1-7.24,0A3.36,3.36,0,0,1,361,264.1v-.32h2.11v.32c0,1.37.95,2,2.84,2s2.84-.67,2.84-2-1-2-2.84-2h-3.26v-1.67l4.57-2.68Z" fill="#003a50"/><path d="M373,267.68a1,1,0,0,1-.32-.81,1,1,0,0,1,.32-.81,1.45,1.45,0,0,1,1.74,0,1.07,1.07,0,0,1,.32.81,1,1,0,0,1-.32.81,1.45,1.45,0,0,1-1.74,0Z" fill="#003a50"/><path d="M382.29,259.83a5,5,0,0,1,3.33,1.06,4.17,4.17,0,0,1,0,6A5.38,5.38,0,0,1,382,268a5.8,5.8,0,0,1-3.57-1,3.16,3.16,0,0,1-1.28-2.68h2.11a1.51,1.51,0,0,0,.7,1.33,3.49,3.49,0,0,0,2,.49,3.17,3.17,0,0,0,2-.57,2.09,2.09,0,0,0,.7-1.69,2,2,0,0,0-.74-1.7,3.25,3.25,0,0,0-2.07-.58A3.7,3.7,0,0,0,380,262a2,2,0,0,0-.69.64l-.05.13h-2.11V255.9h8.87v1.84H379.3v3h.05a1.83,1.83,0,0,1,.39-.31,3.94,3.94,0,0,1,.55-.26A5.66,5.66,0,0,1,382.29,259.83Z" fill="#003a50"/><path d="M103.46,269.13H93.53v-1.56a2.8,2.8,0,0,1,.58-1.74,4.12,4.12,0,0,1,1.45-1.2c.5-.25,1.12-.54,1.87-.86s1.32-.56,1.87-.77a4.14,4.14,0,0,0,1.45-.92,1.78,1.78,0,0,0,.57-1.3c0-1.26-.89-1.88-2.66-1.88s-2.68.72-2.68,2.15v.41H93.87v-.41a3.59,3.59,0,0,1,1.27-3,5.34,5.34,0,0,1,3.51-1,5.65,5.65,0,0,1,3.51,1,3.29,3.29,0,0,1,1.27,2.75,3.17,3.17,0,0,1-.55,1.84,4.39,4.39,0,0,1-1.41,1.3q-.9.51-1.83.93t-1.83.75a5.38,5.38,0,0,0-1.4.74,1.25,1.25,0,0,0-.57,1h7.62Z" fill="#003a50"/><path d="M110.94,261.15a5,5,0,0,1,3.34,1.07,4.18,4.18,0,0,1,0,6,5.41,5.41,0,0,1-3.55,1.08,5.75,5.75,0,0,1-3.56-1,3.16,3.16,0,0,1-1.29-2.68H108a1.53,1.53,0,0,0,.7,1.33,3.61,3.61,0,0,0,2,.49,3.15,3.15,0,0,0,2-.58,2,2,0,0,0,.7-1.68,2.05,2.05,0,0,0-.73-1.71,3.32,3.32,0,0,0-2.08-.58,3.54,3.54,0,0,0-1.91.42,1.84,1.84,0,0,0-.7.64l0,.12h-2.11v-6.87h8.88v1.84H108v3h0a1.91,1.91,0,0,1,.4-.31,3.51,3.51,0,0,1,.55-.27A5.6,5.6,0,0,1,110.94,261.15Z" fill="#003a50"/><path d="M117.64,269a1,1,0,0,1-.32-.8,1,1,0,0,1,.32-.81,1.41,1.41,0,0,1,1.74,0,1.07,1.07,0,0,1,.32.81,1,1,0,0,1-.32.8,1.41,1.41,0,0,1-1.74,0Z" fill="#003a50"/><path d="M123.05,267.6a7.34,7.34,0,0,1,0-8.84,5.71,5.71,0,0,1,8.13,0,7.34,7.34,0,0,1,0,8.84,5.71,5.71,0,0,1-8.13,0Zm6.52-1.39a4.91,4.91,0,0,0,.88-3,5,5,0,0,0-.88-3,3.14,3.14,0,0,0-4.91,0,5.67,5.67,0,0,0,0,6.07,3.13,3.13,0,0,0,4.91,0Z" fill="#003a50"/><path d="M24.83,315.12a4.57,4.57,0,0,1-3.12,1,4.6,4.6,0,0,1-3.11-1,3.6,3.6,0,0,1-1.21-2.88,3.56,3.56,0,0,1,1.21-2.86,4.55,4.55,0,0,1,3.11-1,4.53,4.53,0,0,1,3.12,1,3.59,3.59,0,0,1,1.2,2.86A3.63,3.63,0,0,1,24.83,315.12Zm-1-4.61a3.5,3.5,0,0,0-2.14-.62,3.52,3.52,0,0,0-2.14.62,2.23,2.23,0,0,0,0,3.47,3.5,3.5,0,0,0,2.14.62,3.5,3.5,0,0,0,2.14-.62,2.21,2.21,0,0,0,0-3.47Z" fill="#003a50"/><path d="M25.82,306.79a.72.72,0,0,1-.57.23.75.75,0,0,1-.57-.23,1,1,0,0,1,0-1.23.74.74,0,0,1,.57-.22.71.71,0,0,1,.57.22,1,1,0,0,1,0,1.23Z" fill="#003a50"/><path d="M19.88,297.18v1.56l-.12,0a2.39,2.39,0,0,0-.67.43,1.46,1.46,0,0,0-.29.5,2.3,2.3,0,0,0-.11.71,1.76,1.76,0,0,0,.73,1.52,3.09,3.09,0,0,0,1.89.54v0a1.49,1.49,0,0,1-.31-.31,3.18,3.18,0,0,1-.25-.43,2.62,2.62,0,0,1-.22-.67,4.12,4.12,0,0,1-.09-.86,3.53,3.53,0,0,1,.79-2.38,2.47,2.47,0,0,1,2-.92,2.52,2.52,0,0,1,2.05,1,3.92,3.92,0,0,1,.78,2.55,3.41,3.41,0,0,1-1.09,2.73,4.5,4.5,0,0,1-3,.93h-.29a4.85,4.85,0,0,1-3-.93,3.22,3.22,0,0,1-1.21-2.69,3.93,3.93,0,0,1,.27-1.5,2.61,2.61,0,0,1,.66-1A2.44,2.44,0,0,1,19.88,297.18ZM22.1,299a2.58,2.58,0,0,0,0,2.79,1.4,1.4,0,0,0,2.22,0,2.22,2.22,0,0,0,.42-1.4,2.26,2.26,0,0,0-.42-1.4,1.31,1.31,0,0,0-1.11-.54A1.3,1.3,0,0,0,22.1,299Z" fill="#003a50"/><path d="M24.83,156.09a4.53,4.53,0,0,1-3.12,1,4.55,4.55,0,0,1-3.11-1,4,4,0,0,1,0-5.73,4.56,4.56,0,0,1,3.11-1.05,4.53,4.53,0,0,1,3.12,1.05,4,4,0,0,1,0,5.73Zm-1-4.6a3.5,3.5,0,0,0-2.14-.62,3.52,3.52,0,0,0-2.14.62,2.22,2.22,0,0,0,0,3.46,3.44,3.44,0,0,0,2.14.63,3.44,3.44,0,0,0,2.14-.63,2.2,2.2,0,0,0,0-3.46Z" fill="#003a50"/><path d="M25.82,147.77a.71.71,0,0,1-.57.22.74.74,0,0,1-.57-.22.9.9,0,0,1-.21-.62.87.87,0,0,1,.21-.61.75.75,0,0,1,.57-.23.72.72,0,0,1,.57.23.87.87,0,0,1,.21.61A.9.9,0,0,1,25.82,147.77Z" fill="#003a50"/><path d="M19.88,138.16v1.55l-.12,0a2.1,2.1,0,0,0-.31.15,1.93,1.93,0,0,0-.36.28,1.37,1.37,0,0,0-.29.5,2.25,2.25,0,0,0-.11.71,1.78,1.78,0,0,0,.73,1.52,3.09,3.09,0,0,0,1.89.54v-.05a1.11,1.11,0,0,1-.31-.31,3.09,3.09,0,0,1-.25-.42,2.77,2.77,0,0,1-.22-.67,4.12,4.12,0,0,1-.09-.86,3.53,3.53,0,0,1,.79-2.38,2.44,2.44,0,0,1,2-.92,2.52,2.52,0,0,1,2.05,1,3.89,3.89,0,0,1,.78,2.54,3.38,3.38,0,0,1-1.09,2.73,4.5,4.5,0,0,1-3,.93h-.29a4.85,4.85,0,0,1-3-.93,3.19,3.19,0,0,1-1.21-2.68,3.93,3.93,0,0,1,.27-1.5,2.61,2.61,0,0,1,.66-1A2.39,2.39,0,0,1,19.88,138.16Zm2.22,1.77a2.56,2.56,0,0,0,0,2.78,1.3,1.3,0,0,0,1.11.56,1.32,1.32,0,0,0,1.11-.55,2.54,2.54,0,0,0,0-2.8,1.32,1.32,0,0,0-1.11-.55A1.3,1.3,0,0,0,22.1,139.93Z" fill="#003a50"/><path d="M112.85,19.78l-1.75,1.37V19.57L113,18h1.31v8.4h-1.49Z" fill="#003a50"/><path d="M116.12,26.28a.72.72,0,0,1-.23-.57.75.75,0,0,1,.23-.57.9.9,0,0,1,.62-.21.87.87,0,0,1,.61.21.75.75,0,0,1,.23.57.72.72,0,0,1-.23.57.87.87,0,0,1-.61.21A.9.9,0,0,1,116.12,26.28Z" fill="#003a50"/><path d="M125.73,20.34h-1.56s0-.05,0-.13-.08-.18-.15-.31a2.26,2.26,0,0,0-.28-.35,1.37,1.37,0,0,0-.5-.29,2.3,2.3,0,0,0-.71-.11,1.78,1.78,0,0,0-1.52.72,3.12,3.12,0,0,0-.54,1.9h0a1.49,1.49,0,0,1,.31-.31l.43-.26a3.14,3.14,0,0,1,.67-.21,4.12,4.12,0,0,1,.86-.09,3.53,3.53,0,0,1,2.38.79,2.46,2.46,0,0,1,.92,2,2.52,2.52,0,0,1-1,2.05,3.89,3.89,0,0,1-2.54.78,3.38,3.38,0,0,1-2.73-1.09,4.5,4.5,0,0,1-.94-3V22.1a4.85,4.85,0,0,1,.94-3,3.19,3.19,0,0,1,2.68-1.21,3.93,3.93,0,0,1,1.5.27,2.61,2.61,0,0,1,1,.66A2.39,2.39,0,0,1,125.73,20.34ZM124,22.56a2.21,2.21,0,0,0-1.39-.41,2.26,2.26,0,0,0-1.4.41,1.32,1.32,0,0,0-.55,1.11,1.3,1.3,0,0,0,.55,1.11,2.54,2.54,0,0,0,2.8,0,1.31,1.31,0,0,0,.54-1.11A1.3,1.3,0,0,0,124,22.56Z" fill="#003a50"/><path d="M259,25.29a4.53,4.53,0,0,1-1-3.12,4.58,4.58,0,0,1,1-3.12,4,4,0,0,1,5.73,0,4.58,4.58,0,0,1,1,3.12,4.53,4.53,0,0,1-1,3.12,4,4,0,0,1-5.73,0Zm4.6-1a3.5,3.5,0,0,0,.62-2.14A3.52,3.52,0,0,0,263.6,20a2.23,2.23,0,0,0-3.47,0,3.5,3.5,0,0,0-.62,2.14,3.5,3.5,0,0,0,.62,2.14,2.21,2.21,0,0,0,3.47,0Z" fill="#003a50"/><path d="M267.32,26.28a.71.71,0,0,1-.22-.57.74.74,0,0,1,.22-.57.9.9,0,0,1,.62-.21.87.87,0,0,1,.61.21.75.75,0,0,1,.23.57.72.72,0,0,1-.23.57.87.87,0,0,1-.61.21A.9.9,0,0,1,267.32,26.28Z" fill="#003a50"/><path d="M276,26.37h-1.49V24.5h-4.92V23.2L274.06,18h2V23.2h1.12v1.3H276Zm-1.49-3.17V19.45h-.05l-3.16,3.72v0Z" fill="#003a50"/><path d="M344,25.29a4.53,4.53,0,0,1-1-3.12,4.58,4.58,0,0,1,1-3.12,4,4,0,0,1,5.73,0,4.58,4.58,0,0,1,1.05,3.12,4.53,4.53,0,0,1-1.05,3.12,4,4,0,0,1-5.73,0Zm4.6-1a3.5,3.5,0,0,0,.62-2.14,3.52,3.52,0,0,0-.62-2.14,2.22,2.22,0,0,0-3.46,0,3.44,3.44,0,0,0-.63,2.14,3.44,3.44,0,0,0,.63,2.14,2.2,2.2,0,0,0,3.46,0Z" fill="#003a50"/><path d="M352.34,26.28a.71.71,0,0,1-.22-.57.74.74,0,0,1,.22-.57.9.9,0,0,1,.62-.21.87.87,0,0,1,.61.21.75.75,0,0,1,.23.57.72.72,0,0,1-.23.57.87.87,0,0,1-.61.21A.9.9,0,0,1,352.34,26.28Z" fill="#003a50"/><path d="M362,20.34H360.4a1.32,1.32,0,0,0,0-.13c0-.07-.08-.18-.15-.31a2.26,2.26,0,0,0-.28-.35,1.37,1.37,0,0,0-.5-.29,2.25,2.25,0,0,0-.71-.11,1.79,1.79,0,0,0-1.52.72,3.12,3.12,0,0,0-.54,1.9h.05a1.11,1.11,0,0,1,.31-.31,4.78,4.78,0,0,1,.42-.26,3.33,3.33,0,0,1,.67-.21,4.12,4.12,0,0,1,.86-.09,3.51,3.51,0,0,1,2.38.79,2.43,2.43,0,0,1,.92,2,2.52,2.52,0,0,1-1,2.05,3.89,3.89,0,0,1-2.54.78,3.38,3.38,0,0,1-2.73-1.09,4.5,4.5,0,0,1-.93-3V22.1a4.85,4.85,0,0,1,.93-3,3.19,3.19,0,0,1,2.68-1.21,3.93,3.93,0,0,1,1.5.27,2.73,2.73,0,0,1,1,.66A2.42,2.42,0,0,1,362,20.34Zm-1.77,2.22a2.56,2.56,0,0,0-2.78,0,1.3,1.3,0,0,0-.56,1.11,1.32,1.32,0,0,0,.55,1.11,2.54,2.54,0,0,0,2.8,0,1.32,1.32,0,0,0,.55-1.11A1.3,1.3,0,0,0,360.18,22.56Z" fill="#003a50"/><path d="M330.87,155.33l-2.49,1.95V155l2.74-2.27H333v11.91h-2.11Z" fill="#003a50"/><path d="M345.37,164.68h-9.93v-1.56a2.79,2.79,0,0,1,.58-1.75,3.87,3.87,0,0,1,1.44-1.19c.5-.26,1.12-.55,1.87-.87s1.32-.55,1.88-.77a4.22,4.22,0,0,0,1.44-.91,1.82,1.82,0,0,0,.58-1.31c0-1.25-.89-1.88-2.67-1.88s-2.67.72-2.67,2.16v.4h-2.11v-.4a3.62,3.62,0,0,1,1.26-3,5.4,5.4,0,0,1,3.51-1,5.68,5.68,0,0,1,3.51,1,3.29,3.29,0,0,1,1.27,2.75,3.17,3.17,0,0,1-.55,1.84,4.25,4.25,0,0,1-1.4,1.3,16.7,16.7,0,0,1-1.84.93q-.94.42-1.83.75a5.26,5.26,0,0,0-1.4.75,1.22,1.22,0,0,0-.57,1h7.63Z" fill="#003a50"/><path d="M347.47,164.55a1,1,0,0,1-.33-.81,1,1,0,0,1,.33-.81,1.22,1.22,0,0,1,.87-.29,1.2,1.2,0,0,1,.86.29,1,1,0,0,1,.33.81,1,1,0,0,1-.33.81,1.24,1.24,0,0,1-.86.29A1.27,1.27,0,0,1,347.47,164.55Z" fill="#003a50"/><path d="M361.25,164.68h-9.94v-1.56a2.8,2.8,0,0,1,.59-1.75,3.87,3.87,0,0,1,1.44-1.19c.5-.26,1.12-.55,1.87-.87s1.32-.55,1.88-.77a4.22,4.22,0,0,0,1.44-.91,1.81,1.81,0,0,0,.57-1.31c0-1.25-.88-1.88-2.66-1.88s-2.68.72-2.68,2.16v.4h-2.1v-.4a3.62,3.62,0,0,1,1.26-3,5.4,5.4,0,0,1,3.51-1,5.7,5.7,0,0,1,3.51,1,3.29,3.29,0,0,1,1.27,2.75,3.17,3.17,0,0,1-.55,1.84,4.28,4.28,0,0,1-1.41,1.3,16.56,16.56,0,0,1-1.83.93q-.94.42-1.83.75a5.26,5.26,0,0,0-1.4.75,1.22,1.22,0,0,0-.57,1h7.63Z" fill="#003a50"/><path d="M248.62,127.87h-2.11v-2.65h-7v-1.84l6.3-7.42h2.79v7.42h1.59v1.84h-1.59Zm-2.11-4.49v-5.32h-.07L242,123.33v0Z" fill="#003a50"/><path d="M251.9,127.74a1,1,0,0,1-.33-.81,1,1,0,0,1,.33-.8,1.4,1.4,0,0,1,1.73,0,1,1,0,0,1,.33.8,1,1,0,0,1-.33.81,1.4,1.4,0,0,1-1.73,0Z" fill="#003a50"/><path d="M265.67,127.87h-9.93v-1.56a2.8,2.8,0,0,1,.58-1.74,4.12,4.12,0,0,1,1.45-1.2c.5-.25,1.12-.54,1.87-.86s1.32-.56,1.87-.77a4.29,4.29,0,0,0,1.45-.92,1.78,1.78,0,0,0,.57-1.3c0-1.26-.89-1.89-2.66-1.89s-2.68.72-2.68,2.16v.41h-2.11v-.41a3.62,3.62,0,0,1,1.26-3,5.39,5.39,0,0,1,3.52-1,5.65,5.65,0,0,1,3.51,1,3.27,3.27,0,0,1,1.27,2.75,3.07,3.07,0,0,1-.56,1.83,4.18,4.18,0,0,1-1.4,1.31q-.9.51-1.83.93t-1.83.75a5.1,5.1,0,0,0-1.4.74,1.23,1.23,0,0,0-.57,1h7.62Z" fill="#003a50"/><path d="M220.71,181.35H218.6V178.7h-7v-1.85l6.3-7.41h2.79v7.41h1.59v1.85h-1.59Zm-2.11-4.5v-5.32h-.07l-4.48,5.27v0Z" fill="#003a50"/><path d="M224,181.21a1,1,0,0,1-.33-.8,1,1,0,0,1,.33-.81,1.4,1.4,0,0,1,1.73,0,1,1,0,0,1,.33.81,1,1,0,0,1-.33.8,1.4,1.4,0,0,1-1.73,0Z" fill="#003a50"/><path d="M229.39,179.81a7.38,7.38,0,0,1,0-8.84,5.71,5.71,0,0,1,8.13,0,7.34,7.34,0,0,1,0,8.84,5.71,5.71,0,0,1-8.13,0Zm6.53-1.39a5,5,0,0,0,.87-3,5,5,0,0,0-.87-3,3.15,3.15,0,0,0-4.92,0,5,5,0,0,0-.88,3,5,5,0,0,0,.88,3,3.14,3.14,0,0,0,4.92,0Z" fill="#003a50"/><path d="M99,71.58l-2.48,2V71.29L99.21,69h1.86V80.93H99Z" fill="#003a50"/><path d="M112,80.93h-2.11V78.28h-7V76.44l6.3-7.42H112v7.42h1.59v1.84H112Zm-2.11-4.49V71.12h-.07l-4.47,5.27v0Z" fill="#003a50"/><path d="M115.3,80.8A1,1,0,0,1,115,80a1,1,0,0,1,.32-.8,1.41,1.41,0,0,1,1.74,0,1.06,1.06,0,0,1,.32.8,1,1,0,0,1-.32.81,1.41,1.41,0,0,1-1.74,0Z" fill="#003a50"/><path d="M128.92,72.38h-2.21s0-.07,0-.18a2.59,2.59,0,0,0-.6-.94,2,2,0,0,0-.71-.41,3.24,3.24,0,0,0-1-.16,2.49,2.49,0,0,0-2.15,1,4.41,4.41,0,0,0-.76,2.68h0a2,2,0,0,1,.44-.43,4.86,4.86,0,0,1,.61-.36,4.41,4.41,0,0,1,.95-.31,6.16,6.16,0,0,1,1.22-.13,5,5,0,0,1,3.37,1.12,3.5,3.5,0,0,1,1.3,2.8A3.56,3.56,0,0,1,128,80a5.49,5.49,0,0,1-3.6,1.11,4.81,4.81,0,0,1-3.87-1.55,6.36,6.36,0,0,1-1.32-4.27v-.4a6.83,6.83,0,0,1,1.32-4.31,4.52,4.52,0,0,1,3.8-1.71,5.66,5.66,0,0,1,2.13.37,3.79,3.79,0,0,1,1.43.94A3.44,3.44,0,0,1,128.92,72.38Zm-2.51,3.14a3.65,3.65,0,0,0-4,0,1.88,1.88,0,0,0-.78,1.58,1.85,1.85,0,0,0,.77,1.57,3.15,3.15,0,0,0,2,.59,3.2,3.2,0,0,0,2-.59,2,2,0,0,0,0-3.15Z" fill="#003a50"/></g></svg>