<svg id="Слой_1" data-name="Слой 1" xmlns="http://www.w3.org/2000/svg" xmlns:xlink="http://www.w3.org/1999/xlink" viewBox="0 0 612.28 228.47"><defs><clipPath id="clip-path"><polygon points="0 0 0 228.47 575.38 228.47 567.92 166.06 612.18 166.06 612.18 78.14 578.84 78.14 578.84 50.22 568.77 50.22 568.77 0 0 0" fill="none"/></clipPath></defs><g clip-path="url(#clip-path)"><path d="M179.81-93l7.45-7.44m66.4-66.4,15.62-15.63M179.81-75.63l24.85-24.85m49-49,33-33M179.81-58.23l39.52-39.52m34.33-34.32L303.54-182M179.81-40.82l56.93-56.93m16.92-16.92,65.11-65.11m-139,156.36L336.17-179.78M179.81-6,353.58-179.78M190.49.72,371-179.78M207.9.72l180.49-180.5M225.3.72l180.5-180.5M242.71.72,423.2-179.78M260.12.72l180.49-180.5M277.52.72,458-179.78M294.93.72l180.49-180.5M312.33.72l180.5-180.5M329.74.72l180.49-180.5M347.14.72l180.5-180.5M364.55.72,529.9-164.63M382,.72,529.9-147.23M399.36.72,529.9-129.82M416.77.72,529.9-112.42M434.18.72,539.76-104.87M451.58.72l89.81-89.81M469,.72l72.4-72.4m-55,72.4,55-55M503.8.72l37.59-37.59M521.2.72,529.9-8m9.37-9.37,2.12-2.12M181.61.72l-1.8-1.8M199,.72l-19.2-19.2M216.42.72,179.81-35.89m54,36.61-54-54m71.42,54L179.81-70.7M268.64.72,179.81-88.11M286,.72l-101.2-101.2M303.45.72l-101.2-101.2M320.86.72,222.39-97.75M338.26.72,239.8-97.75M355.66.72l-102-102M373.07.72,253.66-118.7M390.48.72,253.66-136.1M407.88.72,253.66-153.51M425.29.72,253.66-170.92M442.7.72,259.78-182.2M460.1.72,276.87-182.51M477.51.72,294.28-182.51M494.91.72,314.42-179.78M512.32.72,331.83-179.78M529.72.72,349.23-179.78M529.9-16.52,366.64-179.78M541.39-22.43,384-179.78M541.39-39.84,401.45-179.78M541.39-57.24,418.86-179.78M541.39-74.65,436.26-179.78M541.39-92.06l-87.72-87.72m76.23,58.83-58.83-58.83m58.83,41.42-41.42-41.42m41.42,24-24-24m24,6.61-6.61-6.61" fill="none" stroke="#809da8" stroke-linecap="round" stroke-linejoin="round" stroke-width="0.2"/></g><path d="M349.39,73.37H529.9M218.1,130.81H541.39M218.1,188.24H529.9M213.61,115.61V82.77m57.44,132.67V82.77m57.44,132.67V82.77m57.44,132.67V17.13m57.43,198.31V17.13M500.8,215.44V17.13" fill="none" stroke="#809da8" stroke-linecap="round" stroke-linejoin="round" stroke-width="0.2"/><path d="M103.23,122.79l1.71-1.71m-1.71,19.12,19.11-19.12m0,0,1.61-1.61M103.23,157.6l39.26-39.25M103.23,175l56.66-56.66m-56.66,74.07,71.33-71.34m-71.33,88.74L192,121.08M115,215.44l94.36-94.36m-77,94.36,80.21-80.21m-62.8,80.21,62.8-62.8m-45.4,62.8,45.4-45.4m-28,45.4,28-28m-10.59,28,10.59-10.59m-94.79,10.59-14.61-14.61m32,14.61-32-32m49.42,32L103.23,166m66.83,49.42-66.83-66.82m84.23,66.82-84.23-84.23m101.64,84.23-94.36-94.36M212.63,205.8l-87.45-87.45m87.45,70-70-70m70,52.64L160,118.35m52.64,35.23-32.5-32.5m32.5,15.1-15.09-15.1" fill="none" stroke="#809da8" stroke-linecap="round" stroke-linejoin="round" stroke-width="0.2"/><path d="M59.47,73.37H207.16M67.67,130.81H97.76m1-15.2V17.13m57.44,101.22V17.13" fill="none" stroke="#809da8" stroke-linecap="round" stroke-linejoin="round" stroke-width="0.2"/><g clip-path="url(#clip-path)"><path d="M93.93-98.94H95m82.05,0h2.74m-83.14,0H135m1.65,0h1.05M59.47-41.5H179.81M98.74.72v-101.2m57.44,79.32V-97.75" fill="none" stroke="#809da8" stroke-linecap="round" stroke-linejoin="round" stroke-width="0.2"/></g><path d="M544.12,130.81h20.51m-6.4,35.07V78.36" fill="none" stroke="#809da8" stroke-linecap="round" stroke-linejoin="round" stroke-width="0.2"/><path d="M207.16,18.86l1.73-1.73m-1.73,19.13L226.3,17.13M207.16,53.67l36.55-36.54m-36.55,54,54-53.95M212.88,82.77l65.64-65.64M230.28,82.77l65.64-65.64M247.69,82.77l65.64-65.64M265.09,82.77l65.64-65.64M282.5,82.77l65.64-65.64M299.91,82.77l49.48-49.48M317.31,82.77,349.39,50.7M334.72,82.77,349.39,68.1M211.44,82.77l-4.28-4.28m21.69,4.28L207.16,61.08m39.09,21.69L207.16,43.68m56.5,39.09-56.5-56.5m73.91,56.5L215.43,17.13m83,65.64L232.83,17.13m83,65.64L250.24,17.13m83,65.64L267.64,17.13m81.75,64.33L285.05,17.13m64.34,46.93L302.45,17.13m46.94,29.52L319.86,17.13m29.53,12.12L337.27,17.13" fill="none" stroke="#809da8" stroke-linecap="round" stroke-linejoin="round" stroke-width="0.2"/><line x1="207.16" y1="115.61" x2="207.16" y2="49.95" fill="none" stroke="#809da8" stroke-linecap="round" stroke-linejoin="round" stroke-width="0.4" stroke-dasharray="0.04 0.08"/><line x1="550.69" y1="165.88" x2="564.63" y2="165.88" fill="none" stroke="#809da8" stroke-linecap="round" stroke-linejoin="round" stroke-width="0.4" stroke-dasharray="0.04 0.08"/><line x1="544.12" y1="78.36" x2="544.12" y2="79.46" fill="none" stroke="#809da8" stroke-linecap="round" stroke-linejoin="round" stroke-width="0.4" stroke-dasharray="0.04 0.08"/><line x1="544.12" y1="164.79" x2="544.12" y2="165.88" fill="none" stroke="#809da8" stroke-linecap="round" stroke-linejoin="round" stroke-width="0.4" stroke-dasharray="0.04 0.08"/><line x1="564.64" y1="165.88" x2="564.64" y2="164.79" fill="none" stroke="#809da8" stroke-linecap="round" stroke-linejoin="round" stroke-width="0.4" stroke-dasharray="0.04 0.08"/><line x1="564.64" y1="79.46" x2="564.64" y2="78.36" fill="none" stroke="#809da8" stroke-linecap="round" stroke-linejoin="round" stroke-width="0.4" stroke-dasharray="0.04 0.08"/><line x1="541.39" y1="78.36" x2="541.39" y2="79.46" fill="none" stroke="#809da8" stroke-linecap="round" stroke-linejoin="round" stroke-width="0.4" stroke-dasharray="0.04 0.08"/><line x1="541.39" y1="164.79" x2="541.39" y2="165.88" fill="none" stroke="#809da8" stroke-linecap="round" stroke-linejoin="round" stroke-width="0.4" stroke-dasharray="0.04 0.08"/><line x1="349.39" y1="17.13" x2="349.39" y2="82.77" fill="none" stroke="#809da8" stroke-linecap="round" stroke-linejoin="round" stroke-width="0.4" stroke-dasharray="0.04 0.08"/><line x1="349.39" y1="82.77" x2="207.16" y2="82.77" fill="none" stroke="#809da8" stroke-linecap="round" stroke-linejoin="round" stroke-width="0.4" stroke-dasharray="0.04 0.08"/><g clip-path="url(#clip-path)"><rect x="-584.92" y="-1398.55" width="1162.95" height="2240.57" fill="none" stroke="#003a50" stroke-miterlimit="10"/><polygon points="-572.33 -294.38 -572.33 829.17 565.06 829.17 565.06 -1385.6 -572.33 -1385.76 -572.33 -365.09 -572.33 -294.38" fill="none" stroke="#003a50" stroke-miterlimit="10"/></g><rect x="540.74" y="78.86" width="4.55" height="86.29" fill="#fff"/><rect x="540.74" y="78.86" width="4.55" height="86.29" fill="none" stroke="#003a50" stroke-miterlimit="10"/><line x1="543.01" y1="165.15" x2="543.01" y2="78.86" fill="none" stroke="#003a50" stroke-miterlimit="10"/><rect x="540.74" y="160.79" width="4.55" height="4.36" fill="#fff"/><rect x="540.74" y="160.79" width="4.55" height="4.36" fill="none" stroke="#003a50" stroke-miterlimit="10"/><rect x="540.74" y="78.85" width="4.55" height="4.36" fill="#fff"/><rect x="540.74" y="78.85" width="4.55" height="4.36" fill="none" stroke="#003a50" stroke-miterlimit="10"/><rect x="540.74" y="117.66" width="4.55" height="4.36" fill="#fff"/><rect x="540.74" y="117.66" width="4.55" height="4.36" fill="none" stroke="#003a50" stroke-miterlimit="10"/><g clip-path="url(#clip-path)"><path d="M540.74,117.66h-2.9c-20.15,0-33.1-15.42-33.1-34.45h36" fill="none" stroke="#003a50" stroke-miterlimit="10"/></g><polygon points="141.73 0.71 141.73 17.13 157.93 17.13 223.78 17.13 223.78 0.71 141.73 0.71" fill="#003a50"/><polygon points="58.25 215.44 57.48 218.9 63.57 222.28 51.26 222.28 51.26 228.47 363.06 228.47 363.06 215.44 58.25 215.44" fill="#003a50"/><polygon points="97.76 121.08 97.76 177.35 97.76 215.44 103.23 215.44 103.23 121.08 97.76 121.08" fill="#003a50"/><polygon points="67.67 167.58 67.67 173.05 70.41 173.05 71.97 173.05 97.76 173.05 97.76 167.58 67.67 167.58" fill="#003a50"/><polygon points="223.78 0.71 223.78 17.13 250.6 17.13 253.66 17.13 458.79 17.13 458.79 0.71 223.78 0.71" fill="#003a50"/><path d="M97.76,115.61v5.47h24.62v-5.47Zm68.38,0v5.47h52v-5.47Z" fill="#003a50"/><rect x="212.63" y="121.08" width="5.47" height="94.36" fill="#003a50"/><polygon points="67.67 0.71 67.67 17.13 74.61 17.13 100.49 17.13 100.49 0.71 67.67 0.71" fill="#003a50"/><polygon points="179.81 33.54 179.81 39.01 185.28 39.01 201.69 39.01 201.69 33.54 179.81 33.54" fill="#003a50"/><rect x="179.81" y="17.13" width="5.47" height="16.41" fill="#003a50"/><path d="M51.26,110.14V222.28H63.57l-6.09-3.38.77-3.46h9.42V110.14Zm0-54.7H67.67V0H51.26Z" fill="#003a50"/><polygon points="201.69 17.13 201.69 39.01 201.69 49.95 207.16 49.95 207.16 17.13 201.69 17.13" fill="#003a50"/><rect x="100.49" y="0.72" width="41.23" height="16.41" fill="#003a50"/><rect x="152.46" width="5.47" height="0.72" fill="#003a50"/><rect x="174.34" width="5.47" height="0.72" fill="#003a50"/><path d="M529.9,165.88v49.56h10.94V165.88Zm0-87.51h10.94V17.13H529.9ZM529.9,0V.72h10.94V0Z" fill="#003a50"/><path d="M540.84,165.88v62.59h9.85V165.88ZM540.84,0V78.36h9.85V0Z" fill="#003a50"/><rect x="458.79" y="0.71" width="82.06" height="16.41" fill="#003a50"/><rect x="363.06" y="215.44" width="177.78" height="13.03" fill="#003a50"/><polygon points="67.67 132.02 67.67 137.49 70.41 137.49 97.76 137.49 97.76 132.02 67.67 132.02" fill="#003a50"/><g clip-path="url(#clip-path)"><line x1="223.78" y1="17.13" x2="223.78" y2="0.72" fill="none" stroke="#003a50" stroke-linecap="round" stroke-linejoin="round" stroke-width="1.6"/><line x1="141.73" y1="0.72" x2="141.73" y2="17.13" fill="none" stroke="#003a50" stroke-linecap="round" stroke-linejoin="round" stroke-width="1.6"/><line x1="51.26" y1="229.12" x2="75.88" y2="229.12" fill="none" stroke="#003a50" stroke-linecap="round" stroke-linejoin="round" stroke-width="1.6"/><line x1="86.82" y1="229.12" x2="95.02" y2="229.12" fill="none" stroke="#003a50" stroke-linecap="round" stroke-linejoin="round" stroke-width="1.6"/><line x1="142.89" y1="229.12" x2="148.36" y2="229.12" fill="none" stroke="#003a50" stroke-linecap="round" stroke-linejoin="round" stroke-width="1.6"/><line x1="164.83" y1="229.12" x2="291.95" y2="229.12" fill="none" stroke="#003a50" stroke-linecap="round" stroke-linejoin="round" stroke-width="1.6"/><line x1="363.06" y1="229.12" x2="363.06" y2="215.44" fill="none" stroke="#003a50" stroke-linecap="round" stroke-linejoin="round" stroke-width="1.6"/></g><line x1="540.84" y1="215.44" x2="103.23" y2="215.44" fill="none" stroke="#003a50" stroke-linecap="round" stroke-linejoin="round" stroke-width="1.6"/><line x1="67.67" y1="215.44" x2="51.26" y2="215.44" fill="none" stroke="#003a50" stroke-linecap="round" stroke-linejoin="round" stroke-width="1.6"/><line x1="97.76" y1="115.61" x2="97.76" y2="132.02" fill="none" stroke="#003a50" stroke-linecap="round" stroke-linejoin="round" stroke-width="1.6"/><line x1="97.76" y1="137.49" x2="97.76" y2="167.58" fill="none" stroke="#003a50" stroke-linecap="round" stroke-linejoin="round" stroke-width="1.6"/><line x1="103.23" y1="215.44" x2="103.23" y2="121.08" fill="none" stroke="#003a50" stroke-linecap="round" stroke-linejoin="round" stroke-width="1.6"/><line x1="97.76" y1="167.58" x2="67.67" y2="167.58" fill="none" stroke="#003a50" stroke-linecap="round" stroke-linejoin="round" stroke-width="1.6"/><g clip-path="url(#clip-path)"><line x1="540.84" y1="0.72" x2="67.67" y2="0.72" fill="none" stroke="#003a50" stroke-linecap="round" stroke-linejoin="round" stroke-width="1.6"/><line x1="458.79" y1="17.13" x2="458.79" y2="0.72" fill="none" stroke="#003a50" stroke-linecap="round" stroke-linejoin="round" stroke-width="1.6"/></g><line x1="218.1" y1="115.61" x2="166.13" y2="115.61" fill="none" stroke="#003a50" stroke-linecap="round" stroke-linejoin="round" stroke-width="1.6"/><line x1="166.14" y1="115.61" x2="166.14" y2="121.08" fill="none" stroke="#003a50" stroke-linecap="round" stroke-linejoin="round" stroke-width="1.6"/><line x1="166.14" y1="121.08" x2="212.63" y2="121.08" fill="none" stroke="#003a50" stroke-linecap="round" stroke-linejoin="round" stroke-width="1.6"/><line x1="122.37" y1="115.61" x2="97.76" y2="115.61" fill="none" stroke="#003a50" stroke-linecap="round" stroke-linejoin="round" stroke-width="1.6"/><line x1="103.23" y1="121.08" x2="122.37" y2="121.08" fill="none" stroke="#003a50" stroke-linecap="round" stroke-linejoin="round" stroke-width="1.6"/><line x1="122.37" y1="121.08" x2="122.37" y2="115.61" fill="none" stroke="#003a50" stroke-linecap="round" stroke-linejoin="round" stroke-width="1.6"/><line x1="218.1" y1="215.44" x2="218.1" y2="115.61" fill="none" stroke="#003a50" stroke-linecap="round" stroke-linejoin="round" stroke-width="1.6"/><line x1="212.63" y1="121.08" x2="212.63" y2="215.44" fill="none" stroke="#003a50" stroke-linecap="round" stroke-linejoin="round" stroke-width="1.6"/><g clip-path="url(#clip-path)"><line x1="168.87" y1="229.12" x2="168.87" y2="248.26" fill="none" stroke="#003a50" stroke-linecap="round" stroke-linejoin="round" stroke-width="1.6"/><line x1="174.34" y1="312.54" x2="174.34" y2="229.12" fill="none" stroke="#003a50" stroke-linecap="round" stroke-linejoin="round" stroke-width="1.6"/><line x1="291.95" y1="229.12" x2="291.95" y2="312.54" fill="none" stroke="#003a50" stroke-linecap="round" stroke-linejoin="round" stroke-width="1.6"/><line x1="297.42" y1="318.01" x2="297.42" y2="229.12" fill="none" stroke="#003a50" stroke-linecap="round" stroke-linejoin="round" stroke-width="1.6"/><line x1="100.49" y1="17.13" x2="100.49" y2="0.72" fill="none" stroke="#003a50" stroke-linecap="round" stroke-linejoin="round" stroke-width="1.6"/></g><line x1="201.69" y1="33.54" x2="185.28" y2="33.54" fill="none" stroke="#003a50" stroke-linecap="round" stroke-linejoin="round" stroke-width="1.6"/><line x1="179.81" y1="39.01" x2="201.69" y2="39.01" fill="none" stroke="#003a50" stroke-linecap="round" stroke-linejoin="round" stroke-width="1.6"/><line x1="179.81" y1="17.13" x2="179.81" y2="39.01" fill="none" stroke="#003a50" stroke-linecap="round" stroke-linejoin="round" stroke-width="1.6"/><g clip-path="url(#clip-path)"><line x1="51.26" y1="-38.12" x2="51.26" y2="55.44" fill="none" stroke="#003a50" stroke-linecap="round" stroke-linejoin="round" stroke-width="1.6"/></g><line x1="51.26" y1="55.44" x2="67.67" y2="55.44" fill="none" stroke="#003a50" stroke-linecap="round" stroke-linejoin="round" stroke-width="1.6"/><line x1="67.67" y1="55.44" x2="67.67" y2="17.13" fill="none" stroke="#003a50" stroke-linecap="round" stroke-linejoin="round" stroke-width="1.6"/><g clip-path="url(#clip-path)"><line x1="67.67" y1="0.72" x2="67.67" y2="-38.12" fill="none" stroke="#003a50" stroke-linecap="round" stroke-linejoin="round" stroke-width="1.6"/><line x1="51.26" y1="110.14" x2="51.26" y2="229.12" fill="none" stroke="#003a50" stroke-linecap="round" stroke-linejoin="round" stroke-width="1.6"/></g><line x1="56.73" y1="222.28" x2="67.67" y2="222.28" fill="none" stroke="#003a50" stroke-linecap="round" stroke-linejoin="round" stroke-width="1.6"/><line x1="67.67" y1="222.28" x2="67.67" y2="215.44" fill="none" stroke="#003a50" stroke-linecap="round" stroke-linejoin="round" stroke-width="1.6"/><line x1="67.67" y1="132.02" x2="67.67" y2="110.14" fill="none" stroke="#003a50" stroke-linecap="round" stroke-linejoin="round" stroke-width="1.6"/><line x1="67.67" y1="110.14" x2="51.26" y2="110.14" fill="none" stroke="#003a50" stroke-linecap="round" stroke-linejoin="round" stroke-width="1.6"/><g clip-path="url(#clip-path)"><line x1="86.82" y1="248.26" x2="86.82" y2="229.12" fill="none" stroke="#003a50" stroke-linecap="round" stroke-linejoin="round" stroke-width="1.6"/><line x1="75.88" y1="229.12" x2="75.88" y2="281.09" fill="none" stroke="#003a50" stroke-linecap="round" stroke-linejoin="round" stroke-width="1.6"/><line x1="56.73" y1="230.49" x2="56.73" y2="222.28" fill="none" stroke="#003a50" stroke-linecap="round" stroke-linejoin="round" stroke-width="1.6"/></g><line x1="207.16" y1="49.95" x2="207.16" y2="17.13" fill="none" stroke="#003a50" stroke-linecap="round" stroke-linejoin="round" stroke-width="1.6"/><line x1="540.84" y1="17.13" x2="201.69" y2="17.13" fill="none" stroke="#003a50" stroke-linecap="round" stroke-linejoin="round" stroke-width="1.6"/><line x1="201.69" y1="17.13" x2="201.69" y2="33.54" fill="none" stroke="#003a50" stroke-linecap="round" stroke-linejoin="round" stroke-width="1.6"/><line x1="201.69" y1="39.01" x2="201.69" y2="49.95" fill="none" stroke="#003a50" stroke-linecap="round" stroke-linejoin="round" stroke-width="1.6"/><line x1="201.69" y1="49.95" x2="207.16" y2="49.95" fill="none" stroke="#003a50" stroke-linecap="round" stroke-linejoin="round" stroke-width="1.6"/><line x1="67.67" y1="17.13" x2="179.81" y2="17.13" fill="none" stroke="#003a50" stroke-linecap="round" stroke-linejoin="round" stroke-width="1.6"/><g clip-path="url(#clip-path)"><line x1="152.46" y1="-21.16" x2="152.46" y2="0.72" fill="none" stroke="#003a50" stroke-linecap="round" stroke-linejoin="round" stroke-width="1.6"/><line x1="152.46" y1="0.72" x2="157.93" y2="0.72" fill="none" stroke="#003a50" stroke-linecap="round" stroke-linejoin="round" stroke-width="1.6"/><line x1="174.34" y1="-15.69" x2="174.34" y2="0.72" fill="none" stroke="#003a50" stroke-linecap="round" stroke-linejoin="round" stroke-width="1.6"/><line x1="174.34" y1="0.72" x2="179.81" y2="0.72" fill="none" stroke="#003a50" stroke-linecap="round" stroke-linejoin="round" stroke-width="1.6"/><line x1="179.81" y1="0.72" x2="179.81" y2="-32.1" fill="none" stroke="#003a50" stroke-linecap="round" stroke-linejoin="round" stroke-width="1.6"/><line x1="529.9" y1="-17.35" x2="529.9" y2="78.36" fill="none" stroke="#003a50" stroke-linecap="round" stroke-linejoin="round" stroke-width="1.6"/></g><line x1="529.9" y1="78.36" x2="550.69" y2="78.36" fill="none" stroke="#003a50" stroke-linecap="round" stroke-linejoin="round" stroke-width="1.6"/><g clip-path="url(#clip-path)"><line x1="529.9" y1="165.88" x2="529.9" y2="261.65" fill="none" stroke="#003a50" stroke-linecap="round" stroke-linejoin="round" stroke-width="1.6"/><line x1="550.69" y1="261.65" x2="550.69" y2="165.89" fill="none" stroke="#003a50" stroke-linecap="round" stroke-linejoin="round" stroke-width="1.6"/></g><line x1="550.69" y1="165.88" x2="529.9" y2="165.88" fill="none" stroke="#003a50" stroke-linecap="round" stroke-linejoin="round" stroke-width="1.6"/><g clip-path="url(#clip-path)"><line x1="540.84" y1="17.13" x2="540.84" y2="0.72" fill="none" stroke="#003a50" stroke-linecap="round" stroke-linejoin="round" stroke-width="1.6"/><line x1="297.42" y1="229.12" x2="540.84" y2="229.12" fill="none" stroke="#003a50" stroke-linecap="round" stroke-linejoin="round" stroke-width="1.6"/><line x1="540.84" y1="229.12" x2="540.84" y2="215.44" fill="none" stroke="#003a50" stroke-linecap="round" stroke-linejoin="round" stroke-width="1.6"/></g><line x1="97.76" y1="132.02" x2="67.67" y2="132.02" fill="none" stroke="#003a50" stroke-linecap="round" stroke-linejoin="round" stroke-width="1.6"/><line x1="86.82" y1="137.49" x2="97.76" y2="137.49" fill="none" stroke="#003a50" stroke-linecap="round" stroke-linejoin="round" stroke-width="1.6"/><polygon points="550.69 0 550.69 78.36 577.49 78.36 578.03 78.36 578.03 51.01 568.19 51.01 568.19 0 550.69 0" fill="#003a50"/><line x1="122.37" y1="119.44" x2="123.47" y2="119.44" fill="none" stroke="#003a50" stroke-linecap="round" stroke-linejoin="round" stroke-width="1.6"/><line x1="123.47" y1="115.61" x2="122.37" y2="115.61" fill="none" stroke="#003a50" stroke-linecap="round" stroke-linejoin="round" stroke-width="1.6"/><line x1="165.04" y1="119.44" x2="166.14" y2="119.44" fill="none" stroke="#003a50" stroke-linecap="round" stroke-linejoin="round" stroke-width="1.6"/><line x1="166.14" y1="115.61" x2="165.04" y2="115.61" fill="none" stroke="#003a50" stroke-linecap="round" stroke-linejoin="round" stroke-width="1.6"/><line x1="165.04" y1="115.61" x2="163.4" y2="115.61" fill="none" stroke="#003a50" stroke-linecap="round" stroke-linejoin="round" stroke-width="1.6"/><line x1="163.4" y1="115.61" x2="163.4" y2="119.44" fill="none" stroke="#003a50" stroke-linecap="round" stroke-linejoin="round" stroke-width="1.6"/><line x1="163.4" y1="119.44" x2="165.04" y2="119.44" fill="none" stroke="#003a50" stroke-linecap="round" stroke-linejoin="round" stroke-width="1.6"/><line x1="165.04" y1="119.44" x2="165.04" y2="115.61" fill="none" stroke="#003a50" stroke-linecap="round" stroke-linejoin="round" stroke-width="1.6"/><line x1="123.47" y1="115.61" x2="123.47" y2="119.44" fill="none" stroke="#003a50" stroke-linecap="round" stroke-linejoin="round" stroke-width="1.6"/><line x1="123.47" y1="119.44" x2="125.11" y2="119.44" fill="none" stroke="#003a50" stroke-linecap="round" stroke-linejoin="round" stroke-width="1.6"/><line x1="125.11" y1="119.44" x2="125.11" y2="115.61" fill="none" stroke="#003a50" stroke-linecap="round" stroke-linejoin="round" stroke-width="1.6"/><line x1="125.11" y1="115.61" x2="123.47" y2="115.61" fill="none" stroke="#003a50" stroke-linecap="round" stroke-linejoin="round" stroke-width="1.6"/><g clip-path="url(#clip-path)"><path d="M163.4,115.61a38.29,38.29,0,0,0-38.29-38.29" fill="none" stroke="#003a50" stroke-linecap="round" stroke-linejoin="round" stroke-width="1.6"/></g><line x1="125.11" y1="115.61" x2="125.11" y2="77.32" fill="none" stroke="#003a50" stroke-linecap="round" stroke-linejoin="round" stroke-width="1.6"/><line x1="55.09" y1="110.14" x2="55.09" y2="109.05" fill="none" stroke="#003a50" stroke-linecap="round" stroke-linejoin="round" stroke-width="1.6"/><line x1="51.26" y1="109.05" x2="51.26" y2="110.14" fill="none" stroke="#003a50" stroke-linecap="round" stroke-linejoin="round" stroke-width="1.6"/><line x1="55.09" y1="56.53" x2="55.09" y2="55.44" fill="none" stroke="#003a50" stroke-linecap="round" stroke-linejoin="round" stroke-width="1.6"/><line x1="51.26" y1="55.44" x2="51.26" y2="56.53" fill="none" stroke="#003a50" stroke-linecap="round" stroke-linejoin="round" stroke-width="1.6"/><line x1="51.26" y1="109.05" x2="55.09" y2="109.05" fill="none" stroke="#003a50" stroke-linecap="round" stroke-linejoin="round" stroke-width="1.6"/><line x1="55.09" y1="109.05" x2="55.09" y2="107.41" fill="none" stroke="#003a50" stroke-linecap="round" stroke-linejoin="round" stroke-width="1.6"/><line x1="55.09" y1="107.41" x2="51.26" y2="107.41" fill="none" stroke="#003a50" stroke-linecap="round" stroke-linejoin="round" stroke-width="1.6"/><line x1="51.26" y1="107.41" x2="51.26" y2="109.05" fill="none" stroke="#003a50" stroke-linecap="round" stroke-linejoin="round" stroke-width="1.6"/><line x1="51.26" y1="56.53" x2="51.26" y2="58.17" fill="none" stroke="#003a50" stroke-linecap="round" stroke-linejoin="round" stroke-width="1.6"/><line x1="51.26" y1="58.18" x2="55.09" y2="58.18" fill="none" stroke="#003a50" stroke-linecap="round" stroke-linejoin="round" stroke-width="1.6"/><line x1="55.09" y1="58.18" x2="55.09" y2="56.54" fill="none" stroke="#003a50" stroke-linecap="round" stroke-linejoin="round" stroke-width="1.6"/><line x1="55.09" y1="56.53" x2="51.26" y2="56.53" fill="none" stroke="#003a50" stroke-linecap="round" stroke-linejoin="round" stroke-width="1.6"/><g clip-path="url(#clip-path)"><path d="M51.26,58.18A49.23,49.23,0,0,0,2,107.41" fill="none" stroke="#003a50" stroke-linecap="round" stroke-linejoin="round" stroke-width="1.6"/><line x1="51.26" y1="107.41" x2="2.03" y2="107.41" fill="none" stroke="#003a50" stroke-linecap="round" stroke-linejoin="round" stroke-width="1.6"/></g><polygon points="550.68 165.92 550.68 228.47 574.25 228.47 567.1 165.92 550.68 165.92" fill="#003a50"/><g clip-path="url(#clip-path)"><line x1="607.65" y1="261.62" x2="607.65" y2="165.83" fill="none" stroke="#003a50" stroke-linecap="round" stroke-linejoin="round" stroke-width="0.4"/><line x1="607.65" y1="165.83" x2="609.85" y2="157.62" fill="none" stroke="#003a50" stroke-linecap="round" stroke-linejoin="round" stroke-width="0.4"/></g><line x1="609.85" y1="157.62" x2="605.45" y2="157.62" fill="none" stroke="#003a50" stroke-linecap="round" stroke-linejoin="round" stroke-width="0.4"/><g clip-path="url(#clip-path)"><line x1="605.45" y1="157.62" x2="607.65" y2="165.83" fill="none" stroke="#003a50" stroke-linecap="round" stroke-linejoin="round" stroke-width="0.4"/></g><polygon points="605.45 157.62 607.65 165.83 609.85 157.62 605.45 157.62" fill="#003a50"/><g clip-path="url(#clip-path)"><line x1="607.65" y1="165.83" x2="605.45" y2="174.04" fill="none" stroke="#003a50" stroke-linecap="round" stroke-linejoin="round" stroke-width="0.4"/><line x1="609.85" y1="174.04" x2="607.65" y2="165.83" fill="none" stroke="#003a50" stroke-linecap="round" stroke-linejoin="round" stroke-width="0.4"/></g><polygon points="607.59 166.06 607.71 166.06 607.65 165.83 607.59 166.06" fill="#003a50"/><g clip-path="url(#clip-path)"><line x1="574.2" y1="165.83" x2="609.29" y2="165.83" fill="none" stroke="#003a50" stroke-linecap="round" stroke-linejoin="round" stroke-width="0.4"/><line x1="607.65" y1="165.83" x2="574.2" y2="165.83" fill="none" stroke="#003a50" stroke-linecap="round" stroke-linejoin="round" stroke-width="0.4"/><path d="M595,223.67h8.12v.84h-7.37v1.91H595Z" fill="#003a50"/><path d="M595,216h.6l7.52,3.4v.9L595.75,217v4.17h1.51V222H595Z" fill="#003a50"/><path d="M599,210.42a2.11,2.11,0,0,1,1.77-.81,2.48,2.48,0,0,1,1.27.33,2.23,2.23,0,0,1,.87,1,3.74,3.74,0,0,1,.32,1.62,4.87,4.87,0,0,1-.29,1.66,3.26,3.26,0,0,1-.75,1.25l-.67-.4a2.94,2.94,0,0,0,.68-1.07,3.7,3.7,0,0,0,.26-1.42A2.38,2.38,0,0,0,602,211a1.46,1.46,0,0,0-1.2-.55,1.43,1.43,0,0,0-1.27.62,3.86,3.86,0,0,0-.43,2.09v1.73l-4.07-.42V210h.75v3.71l2.58.28V213A4.15,4.15,0,0,1,599,210.42Z" fill="#003a50"/><path d="M602.69,207a3.22,3.22,0,0,1-1.43,1.14,5.95,5.95,0,0,1-4.39,0,3.25,3.25,0,0,1-1.44-1.14,2.94,2.94,0,0,1-.5-1.68,2.91,2.91,0,0,1,.5-1.67,3.29,3.29,0,0,1,1.44-1.16,5.95,5.95,0,0,1,4.39,0,3.26,3.26,0,0,1,1.43,1.16,2.91,2.91,0,0,1,.5,1.67A2.94,2.94,0,0,1,602.69,207Zm-.66-2.93a2.62,2.62,0,0,0-1.15-.84,5.67,5.67,0,0,0-3.64,0,2.67,2.67,0,0,0-1.15.84,2.2,2.2,0,0,0,0,2.5,2.6,2.6,0,0,0,1.15.84,5.67,5.67,0,0,0,3.64,0,2.54,2.54,0,0,0,1.15-.84,2.2,2.2,0,0,0,0-2.5Z" fill="#003a50"/><line x1="607.65" y1="165.83" x2="607.65" y2="78.28" fill="none" stroke="#003a50" stroke-linecap="round" stroke-linejoin="round" stroke-width="0.4"/><line x1="607.65" y1="78.29" x2="609.85" y2="70.08" fill="none" stroke="#003a50" stroke-linecap="round" stroke-linejoin="round" stroke-width="0.4"/><line x1="605.45" y1="70.08" x2="607.65" y2="78.29" fill="none" stroke="#003a50" stroke-linecap="round" stroke-linejoin="round" stroke-width="0.4"/></g><polygon points="607.61 78.14 607.65 78.28 607.69 78.14 607.61 78.14" fill="#003a50"/><line x1="607.65" y1="78.29" x2="605.45" y2="86.49" fill="none" stroke="#003a50" stroke-linecap="round" stroke-linejoin="round" stroke-width="0.4"/><line x1="605.45" y1="86.49" x2="609.85" y2="86.49" fill="none" stroke="#003a50" stroke-linecap="round" stroke-linejoin="round" stroke-width="0.4"/><line x1="609.85" y1="86.49" x2="607.65" y2="78.28" fill="none" stroke="#003a50" stroke-linecap="round" stroke-linejoin="round" stroke-width="0.4"/><polygon points="605.45 86.49 609.85 86.49 607.65 78.28 605.45 86.49" fill="#003a50"/><g clip-path="url(#clip-path)"><line x1="574.2" y1="78.29" x2="609.29" y2="78.29" fill="none" stroke="#003a50" stroke-linecap="round" stroke-linejoin="round" stroke-width="0.4"/><line x1="607.65" y1="78.29" x2="574.2" y2="78.29" fill="none" stroke="#003a50" stroke-linecap="round" stroke-linejoin="round" stroke-width="0.4"/><line x1="607.65" y1="165.83" x2="609.85" y2="157.62" fill="none" stroke="#003a50" stroke-linecap="round" stroke-linejoin="round" stroke-width="0.4"/></g><line x1="609.85" y1="157.62" x2="605.45" y2="157.62" fill="none" stroke="#003a50" stroke-linecap="round" stroke-linejoin="round" stroke-width="0.4"/><g clip-path="url(#clip-path)"><line x1="605.45" y1="157.62" x2="607.65" y2="165.83" fill="none" stroke="#003a50" stroke-linecap="round" stroke-linejoin="round" stroke-width="0.4"/></g><polygon points="605.45 157.62 607.65 165.83 609.85 157.62 605.45 157.62" fill="#003a50"/><g clip-path="url(#clip-path)"><line x1="607.65" y1="165.83" x2="605.45" y2="174.04" fill="none" stroke="#003a50" stroke-linecap="round" stroke-linejoin="round" stroke-width="0.4"/><line x1="609.85" y1="174.04" x2="607.65" y2="165.83" fill="none" stroke="#003a50" stroke-linecap="round" stroke-linejoin="round" stroke-width="0.4"/></g><polygon points="607.59 166.06 607.71 166.06 607.65 165.83 607.59 166.06" fill="#003a50"/><g clip-path="url(#clip-path)"><line x1="574.2" y1="165.83" x2="609.29" y2="165.83" fill="none" stroke="#003a50" stroke-linecap="round" stroke-linejoin="round" stroke-width="0.4"/><line x1="607.65" y1="165.83" x2="574.2" y2="165.83" fill="none" stroke="#003a50" stroke-linecap="round" stroke-linejoin="round" stroke-width="0.4"/><path d="M595,132.66h8.12v.83h-7.37v1.91H595Z" fill="#003a50"/><path d="M598.56,125.94a2.26,2.26,0,0,1,.86-1,2.34,2.34,0,0,1,1.28-.35,2.33,2.33,0,0,1,2.18,1.35,3.15,3.15,0,0,1,.31,1.42,3,3,0,0,1-1.06,2.47,4.68,4.68,0,0,1-3,.86,5.11,5.11,0,0,1-2.29-.46,3.27,3.27,0,0,1-1.42-1.3,3.87,3.87,0,0,1-.49-2,3.57,3.57,0,0,1,.45-1.92l.67.33a2.8,2.8,0,0,0-.38,1.58,2.69,2.69,0,0,0,.85,2.11,3.56,3.56,0,0,0,2.47.76l.66,0a2.16,2.16,0,0,1-1-1,3,3,0,0,1-.37-1.52A3.19,3.19,0,0,1,598.56,125.94ZM602,126a1.76,1.76,0,0,0-2.56,0,2.22,2.22,0,0,0-.47,1.49,2.48,2.48,0,0,0,.23,1.08,1.93,1.93,0,0,0,.64.74,1.66,1.66,0,0,0,.9.26,1.54,1.54,0,0,0,.86-.25,1.77,1.77,0,0,0,.64-.73,2.61,2.61,0,0,0,.24-1.16A2.08,2.08,0,0,0,602,126Z" fill="#003a50"/><path d="M602.69,122.1a3.31,3.31,0,0,1-1.43,1.15,6.08,6.08,0,0,1-4.39,0,3.34,3.34,0,0,1-1.44-1.15,3.06,3.06,0,0,1,0-3.35,3.34,3.34,0,0,1,1.44-1.15,5.95,5.95,0,0,1,4.39,0,3.31,3.31,0,0,1,1.43,1.15,3.06,3.06,0,0,1,0,3.35Zm-.66-2.92a2.54,2.54,0,0,0-1.15-.84,5.67,5.67,0,0,0-3.64,0,2.6,2.6,0,0,0-1.15.84,2.18,2.18,0,0,0,0,2.49,2.6,2.6,0,0,0,1.15.84,5.67,5.67,0,0,0,3.64,0,2.54,2.54,0,0,0,1.15-.84,2.18,2.18,0,0,0,0-2.49Z" fill="#003a50"/><path d="M602.69,114.43a3.22,3.22,0,0,1-1.43,1.14,5.95,5.95,0,0,1-4.39,0,3.25,3.25,0,0,1-1.44-1.14,3.06,3.06,0,0,1,0-3.35,3.36,3.36,0,0,1,1.44-1.16,6.08,6.08,0,0,1,4.39,0,3.33,3.33,0,0,1,1.43,1.16,3.06,3.06,0,0,1,0,3.35Zm-.66-2.92a2.63,2.63,0,0,0-1.15-.85,5.67,5.67,0,0,0-3.64,0,2.69,2.69,0,0,0-1.15.85,2,2,0,0,0-.39,1.24,2.09,2.09,0,0,0,.39,1.25,2.6,2.6,0,0,0,1.15.84,5.67,5.67,0,0,0,3.64,0A2.54,2.54,0,0,0,602,114a2.09,2.09,0,0,0,.39-1.25A2,2,0,0,0,602,111.51Z" fill="#003a50"/><line x1="607.65" y1="78.29" x2="607.65" y2="-17.45" fill="none" stroke="#003a50" stroke-linecap="round" stroke-linejoin="round" stroke-width="0.4"/><line x1="607.65" y1="78.29" x2="609.85" y2="70.08" fill="none" stroke="#003a50" stroke-linecap="round" stroke-linejoin="round" stroke-width="0.4"/><line x1="605.45" y1="70.08" x2="607.65" y2="78.29" fill="none" stroke="#003a50" stroke-linecap="round" stroke-linejoin="round" stroke-width="0.4"/></g><polygon points="607.61 78.14 607.65 78.28 607.69 78.14 607.61 78.14" fill="#003a50"/><line x1="607.65" y1="78.29" x2="605.45" y2="86.49" fill="none" stroke="#003a50" stroke-linecap="round" stroke-linejoin="round" stroke-width="0.4"/><line x1="605.45" y1="86.49" x2="609.85" y2="86.49" fill="none" stroke="#003a50" stroke-linecap="round" stroke-linejoin="round" stroke-width="0.4"/><line x1="609.85" y1="86.49" x2="607.65" y2="78.28" fill="none" stroke="#003a50" stroke-linecap="round" stroke-linejoin="round" stroke-width="0.4"/><polygon points="605.45 86.49 609.85 86.49 607.65 78.28 605.45 86.49" fill="#003a50"/><g clip-path="url(#clip-path)"><line x1="574.2" y1="78.29" x2="609.29" y2="78.29" fill="none" stroke="#003a50" stroke-linecap="round" stroke-linejoin="round" stroke-width="0.4"/><line x1="607.65" y1="78.29" x2="574.2" y2="78.29" fill="none" stroke="#003a50" stroke-linecap="round" stroke-linejoin="round" stroke-width="0.4"/><path d="M595,40.37h8.12v.83h-7.37v1.91H595Z" fill="#003a50"/><path d="M595,32.7h.6l7.52,3.4V37l-7.37-3.34v4.17h1.51v.82H595Z" fill="#003a50"/><path d="M599,27.11a2.11,2.11,0,0,1,1.77-.8,2.42,2.42,0,0,1,1.26.33,2.19,2.19,0,0,1,.88,1,3.74,3.74,0,0,1,.32,1.62,4.77,4.77,0,0,1-.29,1.65,3.52,3.52,0,0,1-.75,1.26l-.67-.41a2.89,2.89,0,0,0,.68-1.06,3.75,3.75,0,0,0,.26-1.43A2.42,2.42,0,0,0,602,27.7a1.49,1.49,0,0,0-1.2-.55,1.46,1.46,0,0,0-1.27.62,3.86,3.86,0,0,0-.43,2.09v1.73L595,31.17V26.73h.75v3.71l2.58.28v-1A4.18,4.18,0,0,1,599,27.11Z" fill="#003a50"/><path d="M602.69,23.69a3.31,3.31,0,0,1-1.43,1.15,6.08,6.08,0,0,1-4.39,0,3.34,3.34,0,0,1-1.44-1.15,3.06,3.06,0,0,1,0-3.35,3.34,3.34,0,0,1,1.44-1.15,5.95,5.95,0,0,1,4.39,0,3.31,3.31,0,0,1,1.43,1.15,3.06,3.06,0,0,1,0,3.35ZM602,20.77a2.54,2.54,0,0,0-1.15-.84,5.67,5.67,0,0,0-3.64,0,2.6,2.6,0,0,0-1.15.84,2.18,2.18,0,0,0,0,2.49,2.6,2.6,0,0,0,1.15.84,5.67,5.67,0,0,0,3.64,0,2.54,2.54,0,0,0,1.15-.84,2.18,2.18,0,0,0,0-2.49Z" fill="#003a50"/></g><line x1="40.75" y1="110.07" x2="40.75" y2="55.36" fill="none" stroke="#003a50" stroke-linecap="round" stroke-linejoin="round" stroke-width="0.4"/><line x1="40.75" y1="55.36" x2="38.55" y2="63.56" fill="none" stroke="#003a50" stroke-linecap="round" stroke-linejoin="round" stroke-width="0.4"/><line x1="38.55" y1="63.56" x2="42.95" y2="63.56" fill="none" stroke="#003a50" stroke-linecap="round" stroke-linejoin="round" stroke-width="0.4"/><line x1="42.94" y1="63.56" x2="40.74" y2="55.36" fill="none" stroke="#003a50" stroke-linecap="round" stroke-linejoin="round" stroke-width="0.4"/><polygon points="38.55 63.56 42.95 63.56 40.75 55.36 38.55 63.56" fill="#003a50"/><line x1="36.58" y1="55.36" x2="42.39" y2="55.36" fill="none" stroke="#003a50" stroke-linecap="round" stroke-linejoin="round" stroke-width="0.4"/><line x1="40.75" y1="55.36" x2="36.58" y2="55.36" fill="none" stroke="#003a50" stroke-linecap="round" stroke-linejoin="round" stroke-width="0.4"/><line x1="40.75" y1="110.07" x2="42.95" y2="101.87" fill="none" stroke="#003a50" stroke-linecap="round" stroke-linejoin="round" stroke-width="0.4"/><line x1="42.94" y1="101.87" x2="38.54" y2="101.87" fill="none" stroke="#003a50" stroke-linecap="round" stroke-linejoin="round" stroke-width="0.4"/><line x1="38.55" y1="101.87" x2="40.75" y2="110.07" fill="none" stroke="#003a50" stroke-linecap="round" stroke-linejoin="round" stroke-width="0.4"/><polygon points="38.55 101.86 40.75 110.07 42.95 101.86 38.55 101.86" fill="#003a50"/><line x1="36.58" y1="110.07" x2="42.39" y2="110.07" fill="none" stroke="#003a50" stroke-linecap="round" stroke-linejoin="round" stroke-width="0.4"/><line x1="40.75" y1="110.07" x2="36.58" y2="110.07" fill="none" stroke="#003a50" stroke-linecap="round" stroke-linejoin="round" stroke-width="0.4"/><g clip-path="url(#clip-path)"><path d="M28.09,93.63h8.12v.84H28.84v1.91h-.75Z" fill="#003a50"/><path d="M35.78,90.14a3.31,3.31,0,0,1-1.43,1.15,6.11,6.11,0,0,1-4.4,0,3.31,3.31,0,0,1-1.43-1.15,3.06,3.06,0,0,1,0-3.35A3.33,3.33,0,0,1,30,85.63a6.11,6.11,0,0,1,4.4,0,3.33,3.33,0,0,1,1.43,1.16,3.06,3.06,0,0,1,0,3.35Zm-.66-2.92A2.54,2.54,0,0,0,34,86.38a5.5,5.5,0,0,0-3.64,0,2.6,2.6,0,0,0-1.15.84,2.06,2.06,0,0,0-.39,1.24,2.09,2.09,0,0,0,.39,1.25,2.6,2.6,0,0,0,1.15.84,5.67,5.67,0,0,0,3.64,0,2.54,2.54,0,0,0,1.15-.84,2.09,2.09,0,0,0,.39-1.25A2.06,2.06,0,0,0,35.12,87.22Z" fill="#003a50"/><path d="M35.78,82.46a3.24,3.24,0,0,1-1.43,1.15,6.11,6.11,0,0,1-4.4,0,3.24,3.24,0,0,1-1.43-1.15,3.06,3.06,0,0,1,0-3.35A3.31,3.31,0,0,1,30,78a6,6,0,0,1,4.4,0,3.31,3.31,0,0,1,1.43,1.15,3.06,3.06,0,0,1,0,3.35Zm-.66-2.92A2.54,2.54,0,0,0,34,78.7a5.67,5.67,0,0,0-3.64,0,2.6,2.6,0,0,0-1.15.84,2.09,2.09,0,0,0-.39,1.25A2,2,0,0,0,29.18,82a2.6,2.6,0,0,0,1.15.84,5.5,5.5,0,0,0,3.64,0A2.54,2.54,0,0,0,35.12,82a2,2,0,0,0,.39-1.24A2.09,2.09,0,0,0,35.12,79.54Z" fill="#003a50"/><path d="M35.78,74.79a3.31,3.31,0,0,1-1.43,1.15,6.11,6.11,0,0,1-4.4,0,3.31,3.31,0,0,1-1.43-1.15,3.06,3.06,0,0,1,0-3.35A3.24,3.24,0,0,1,30,70.29a6,6,0,0,1,4.4,0,3.24,3.24,0,0,1,1.43,1.15,3.06,3.06,0,0,1,0,3.35Zm-.66-2.92A2.54,2.54,0,0,0,34,71a5.67,5.67,0,0,0-3.64,0,2.6,2.6,0,0,0-1.15.84,2.18,2.18,0,0,0,0,2.49,2.6,2.6,0,0,0,1.15.84,5.67,5.67,0,0,0,3.64,0,2.54,2.54,0,0,0,1.15-.84,2.18,2.18,0,0,0,0-2.49Z" fill="#003a50"/></g><line x1="488.93" y1="215.4" x2="488.93" y2="17.03" fill="none" stroke="#003a50" stroke-linecap="round" stroke-linejoin="round" stroke-width="0.4"/><line x1="488.93" y1="17.03" x2="486.73" y2="25.24" fill="none" stroke="#003a50" stroke-linecap="round" stroke-linejoin="round" stroke-width="0.4"/><line x1="486.73" y1="25.24" x2="491.13" y2="25.24" fill="none" stroke="#003a50" stroke-linecap="round" stroke-linejoin="round" stroke-width="0.4"/><line x1="491.13" y1="25.24" x2="488.93" y2="17.03" fill="none" stroke="#003a50" stroke-linecap="round" stroke-linejoin="round" stroke-width="0.4"/><polygon points="486.73 25.24 491.13 25.24 488.93 17.03 486.73 25.24" fill="#003a50"/><line x1="484.77" y1="17.03" x2="490.57" y2="17.03" fill="none" stroke="#003a50" stroke-linecap="round" stroke-linejoin="round" stroke-width="0.4"/><line x1="488.93" y1="17.03" x2="484.77" y2="17.03" fill="none" stroke="#003a50" stroke-linecap="round" stroke-linejoin="round" stroke-width="0.4"/><line x1="488.93" y1="215.4" x2="491.13" y2="207.19" fill="none" stroke="#003a50" stroke-linecap="round" stroke-linejoin="round" stroke-width="0.4"/><line x1="491.13" y1="207.2" x2="486.73" y2="207.2" fill="none" stroke="#003a50" stroke-linecap="round" stroke-linejoin="round" stroke-width="0.4"/><line x1="486.73" y1="207.2" x2="488.93" y2="215.4" fill="none" stroke="#003a50" stroke-linecap="round" stroke-linejoin="round" stroke-width="0.4"/><polygon points="486.73 207.19 488.93 215.4 491.13 207.19 486.73 207.19" fill="#003a50"/><line x1="484.77" y1="215.4" x2="490.57" y2="215.4" fill="none" stroke="#003a50" stroke-linecap="round" stroke-linejoin="round" stroke-width="0.4"/><line x1="488.93" y1="215.4" x2="484.77" y2="215.4" fill="none" stroke="#003a50" stroke-linecap="round" stroke-linejoin="round" stroke-width="0.4"/><g clip-path="url(#clip-path)"><path d="M480.44,125.08a2.11,2.11,0,0,1,1.62-.67,2.24,2.24,0,0,1,1.24.34,2.28,2.28,0,0,1,.85,1,3.7,3.7,0,0,1,.31,1.61,4.82,4.82,0,0,1-.28,1.66,3.53,3.53,0,0,1-.76,1.26l-.66-.41a3,3,0,0,0,.68-1.08,4,4,0,0,0,.26-1.43,2.44,2.44,0,0,0-.44-1.55,1.46,1.46,0,0,0-1.2-.54,1.43,1.43,0,0,0-1.18.54,2.64,2.64,0,0,0-.43,1.65V128h-.61L477,125.79v4.15h-.74v-5.22h.59l2.88,2.3A3,3,0,0,1,480.44,125.08Z" fill="#003a50"/><path d="M479.84,118.46a2.3,2.3,0,0,1,.85-1,2.34,2.34,0,0,1,1.28-.35,2.41,2.41,0,0,1,1.31.36,2.33,2.33,0,0,1,.87,1,3.18,3.18,0,0,1,.31,1.42,3,3,0,0,1-1.06,2.47,4.62,4.62,0,0,1-3,.86,5.11,5.11,0,0,1-2.29-.46,3.21,3.21,0,0,1-1.42-1.3,3.86,3.86,0,0,1-.48-2,3.59,3.59,0,0,1,.44-1.92l.67.33a2.91,2.91,0,0,0-.38,1.58,2.68,2.68,0,0,0,.85,2.11,3.58,3.58,0,0,0,2.47.76l.67,0a2.18,2.18,0,0,1-1-1,3.14,3.14,0,0,1-.37-1.52A3.09,3.09,0,0,1,479.84,118.46Zm3.43.06A1.59,1.59,0,0,0,482,118a1.57,1.57,0,0,0-1.27.55,2.17,2.17,0,0,0-.48,1.49,2.45,2.45,0,0,0,.23,1.08,1.93,1.93,0,0,0,.64.74,1.59,1.59,0,0,0,.91.26,1.53,1.53,0,0,0,.85-.25,1.7,1.7,0,0,0,.64-.73,2.61,2.61,0,0,0,.24-1.16A2.08,2.08,0,0,0,483.27,118.52Z" fill="#003a50"/><path d="M480.44,111.48a2.15,2.15,0,0,1,1.62-.67,2.2,2.2,0,0,1,2.09,1.34,3.73,3.73,0,0,1,.31,1.61,4.78,4.78,0,0,1-.28,1.66,3.53,3.53,0,0,1-.76,1.26l-.66-.41a3.08,3.08,0,0,0,.68-1.07,4,4,0,0,0,.26-1.44,2.39,2.39,0,0,0-.44-1.54,1.44,1.44,0,0,0-1.2-.55,1.41,1.41,0,0,0-1.18.55,2.59,2.59,0,0,0-.43,1.64v.58h-.61L477,112.19v4.15h-.74v-5.21h.59l2.88,2.29A3.05,3.05,0,0,1,480.44,111.48Z" fill="#003a50"/><path d="M484,108.08a3.17,3.17,0,0,1-1.43,1.15,6.08,6.08,0,0,1-4.39,0,3.17,3.17,0,0,1-1.43-1.15,2.84,2.84,0,0,1-.5-1.67,2.87,2.87,0,0,1,.5-1.68,3.31,3.31,0,0,1,1.43-1.15,5.95,5.95,0,0,1,4.39,0,3.31,3.31,0,0,1,1.43,1.15,2.94,2.94,0,0,1,.5,1.68A2.91,2.91,0,0,1,484,108.08Zm-.66-2.92a2.49,2.49,0,0,0-1.15-.84,5.67,5.67,0,0,0-3.64,0,2.51,2.51,0,0,0-1.14.84,2.15,2.15,0,0,0,0,2.5,2.58,2.58,0,0,0,1.14.84,5.67,5.67,0,0,0,3.64,0,2.56,2.56,0,0,0,1.15-.84,2.15,2.15,0,0,0,0-2.5Z" fill="#003a50"/><line x1="488.93" y1="-179.93" x2="488.93" y2="0.62" fill="none" stroke="#003a50" stroke-linecap="round" stroke-linejoin="round" stroke-width="0.4"/><line x1="488.93" y1="0.62" x2="491.13" y2="-7.59" fill="none" stroke="#003a50" stroke-linecap="round" stroke-linejoin="round" stroke-width="0.4"/><line x1="486.73" y1="-7.59" x2="488.93" y2="0.62" fill="none" stroke="#003a50" stroke-linecap="round" stroke-linejoin="round" stroke-width="0.4"/></g><polygon points="488.76 0 488.93 0.62 489.1 0 488.76 0" fill="#003a50"/><line x1="460.39" y1="0.62" x2="490.57" y2="0.62" fill="none" stroke="#003a50" stroke-linecap="round" stroke-linejoin="round" stroke-width="0.4"/><line x1="488.93" y1="0.62" x2="460.39" y2="0.62" fill="none" stroke="#003a50" stroke-linecap="round" stroke-linejoin="round" stroke-width="0.4"/><g clip-path="url(#clip-path)"><line x1="85.42" y1="0.62" x2="85.42" y2="-97.87" fill="none" stroke="#003a50" stroke-linecap="round" stroke-linejoin="round" stroke-width="0.4"/><line x1="85.42" y1="0.62" x2="87.62" y2="-7.59" fill="none" stroke="#003a50" stroke-linecap="round" stroke-linejoin="round" stroke-width="0.4"/><line x1="83.23" y1="-7.59" x2="85.43" y2="0.62" fill="none" stroke="#003a50" stroke-linecap="round" stroke-linejoin="round" stroke-width="0.4"/></g><polygon points="85.26 0 85.42 0.62 85.59 0 85.26 0" fill="#003a50"/><line x1="81.26" y1="0.62" x2="87.07" y2="0.62" fill="none" stroke="#003a50" stroke-linecap="round" stroke-linejoin="round" stroke-width="0.4"/><line x1="85.42" y1="0.62" x2="81.26" y2="0.62" fill="none" stroke="#003a50" stroke-linecap="round" stroke-linejoin="round" stroke-width="0.4"/><g clip-path="url(#clip-path)"><line x1="199.95" y1="-32.21" x2="199.95" y2="0.62" fill="none" stroke="#003a50" stroke-linecap="round" stroke-linejoin="round" stroke-width="0.4"/><line x1="199.95" y1="0.62" x2="202.15" y2="-7.59" fill="none" stroke="#003a50" stroke-linecap="round" stroke-linejoin="round" stroke-width="0.4"/><line x1="197.75" y1="-7.59" x2="199.95" y2="0.62" fill="none" stroke="#003a50" stroke-linecap="round" stroke-linejoin="round" stroke-width="0.4"/></g><polygon points="199.78 0 199.95 0.62 200.11 0 199.78 0" fill="#003a50"/><line x1="204.11" y1="0.62" x2="198.3" y2="0.62" fill="none" stroke="#003a50" stroke-linecap="round" stroke-linejoin="round" stroke-width="0.4"/><line x1="199.95" y1="0.62" x2="204.11" y2="0.62" fill="none" stroke="#003a50" stroke-linecap="round" stroke-linejoin="round" stroke-width="0.4"/><line x1="122.24" y1="135.37" x2="166.01" y2="135.37" fill="none" stroke="#003a50" stroke-linecap="round" stroke-linejoin="round" stroke-width="0.4"/><line x1="166.01" y1="135.37" x2="157.8" y2="133.17" fill="none" stroke="#003a50" stroke-linecap="round" stroke-linejoin="round" stroke-width="0.4"/><line x1="157.8" y1="133.17" x2="157.8" y2="137.57" fill="none" stroke="#003a50" stroke-linecap="round" stroke-linejoin="round" stroke-width="0.4"/><line x1="157.8" y1="137.57" x2="166.01" y2="135.37" fill="none" stroke="#003a50" stroke-linecap="round" stroke-linejoin="round" stroke-width="0.4"/><polygon points="157.8 137.57 166.01 135.37 157.8 133.17 157.8 137.57" fill="#003a50"/><line x1="166.01" y1="131.2" x2="166.01" y2="137.01" fill="none" stroke="#003a50" stroke-linecap="round" stroke-linejoin="round" stroke-width="0.4"/><line x1="166.01" y1="135.37" x2="166.01" y2="131.2" fill="none" stroke="#003a50" stroke-linecap="round" stroke-linejoin="round" stroke-width="0.4"/><line x1="122.24" y1="135.37" x2="130.44" y2="137.57" fill="none" stroke="#003a50" stroke-linecap="round" stroke-linejoin="round" stroke-width="0.4"/><line x1="130.44" y1="137.57" x2="130.44" y2="133.17" fill="none" stroke="#003a50" stroke-linecap="round" stroke-linejoin="round" stroke-width="0.4"/><line x1="130.44" y1="133.17" x2="122.24" y2="135.37" fill="none" stroke="#003a50" stroke-linecap="round" stroke-linejoin="round" stroke-width="0.4"/><polygon points="122.24 135.37 130.44 137.57 130.44 133.16 122.24 135.37" fill="#003a50"/><line x1="122.24" y1="131.2" x2="122.24" y2="137.01" fill="none" stroke="#003a50" stroke-linecap="round" stroke-linejoin="round" stroke-width="0.4"/><line x1="122.24" y1="135.37" x2="122.24" y2="131.2" fill="none" stroke="#003a50" stroke-linecap="round" stroke-linejoin="round" stroke-width="0.4"/><g clip-path="url(#clip-path)"><path d="M138.45,127.34a1.92,1.92,0,0,1,.41,1.23,2.06,2.06,0,0,1-.39,1.24,2.41,2.41,0,0,1-1.09.81,4.55,4.55,0,0,1-1.68.28,3.71,3.71,0,0,1-2.29-.63,2,2,0,0,1-.84-1.7,1.93,1.93,0,0,1,.4-1.23,2.42,2.42,0,0,1,1.17-.76,2.06,2.06,0,0,1-.95-.7,1.83,1.83,0,0,1-.33-1.09,1.86,1.86,0,0,1,.77-1.56,3.37,3.37,0,0,1,2.07-.58,3.8,3.8,0,0,1,1.5.26,2.23,2.23,0,0,1,1,.75,1.94,1.94,0,0,1,0,2.22,2.15,2.15,0,0,1-1,.7A2.5,2.5,0,0,1,138.45,127.34Zm-1.06,2.41a1.47,1.47,0,0,0,0-2.38,2.88,2.88,0,0,0-1.69-.43,2.81,2.81,0,0,0-1.67.43,1.38,1.38,0,0,0-.61,1.19,1.4,1.4,0,0,0,.6,1.2,3.48,3.48,0,0,0,3.37,0Zm-3.16-3.87a2.92,2.92,0,0,0,3,0,1.23,1.23,0,0,0,.54-1,1.24,1.24,0,0,0-.55-1.08,2.51,2.51,0,0,0-1.47-.4,2.43,2.43,0,0,0-1.46.4,1.25,1.25,0,0,0-.54,1.06A1.27,1.27,0,0,0,134.23,125.88Z" fill="#003a50"/><path d="M141.58,130.4a3.17,3.17,0,0,1-1.15-1.43,6.08,6.08,0,0,1,0-4.39,3.17,3.17,0,0,1,1.15-1.43,2.84,2.84,0,0,1,1.67-.5,2.89,2.89,0,0,1,1.68.5,3.31,3.31,0,0,1,1.15,1.43,5.95,5.95,0,0,1,0,4.39,3.31,3.31,0,0,1-1.15,1.43,3,3,0,0,1-1.68.5A2.91,2.91,0,0,1,141.58,130.4Zm2.92-.66a2.49,2.49,0,0,0,.84-1.15,5.67,5.67,0,0,0,0-3.64,2.51,2.51,0,0,0-.84-1.14,2.15,2.15,0,0,0-2.5,0,2.51,2.51,0,0,0-.84,1.14,5.67,5.67,0,0,0,0,3.64,2.49,2.49,0,0,0,.84,1.15,2.15,2.15,0,0,0,2.5,0Z" fill="#003a50"/><path d="M149.25,130.4A3.31,3.31,0,0,1,148.1,129a6.08,6.08,0,0,1,0-4.39,3.31,3.31,0,0,1,1.15-1.43,3.06,3.06,0,0,1,3.35,0,3.31,3.31,0,0,1,1.15,1.43,5.95,5.95,0,0,1,0,4.39,3.31,3.31,0,0,1-1.15,1.43,3.06,3.06,0,0,1-3.35,0Zm2.92-.66a2.49,2.49,0,0,0,.84-1.15,5.67,5.67,0,0,0,0-3.64,2.51,2.51,0,0,0-.84-1.14,2.14,2.14,0,0,0-2.49,0,2.51,2.51,0,0,0-.84,1.14,5.67,5.67,0,0,0,0,3.64,2.49,2.49,0,0,0,.84,1.15,2.14,2.14,0,0,0,2.49,0Z" fill="#003a50"/></g><line x1="234.58" y1="17.03" x2="234.58" y2="49.86" fill="none" stroke="#003a50" stroke-linecap="round" stroke-linejoin="round" stroke-width="0.4"/><line x1="234.58" y1="49.86" x2="232.38" y2="58.07" fill="none" stroke="#003a50" stroke-linecap="round" stroke-linejoin="round" stroke-width="0.4"/><line x1="232.38" y1="58.07" x2="236.78" y2="58.07" fill="none" stroke="#003a50" stroke-linecap="round" stroke-linejoin="round" stroke-width="0.4"/><line x1="236.78" y1="58.07" x2="234.58" y2="49.86" fill="none" stroke="#003a50" stroke-linecap="round" stroke-linejoin="round" stroke-width="0.4"/><polygon points="232.38 58.07 236.78 58.07 234.58 49.86 232.38 58.07" fill="#003a50"/><line x1="234.58" y1="49.86" x2="236.78" y2="41.65" fill="none" stroke="#003a50" stroke-linecap="round" stroke-linejoin="round" stroke-width="0.4"/><line x1="236.78" y1="41.66" x2="232.38" y2="41.66" fill="none" stroke="#003a50" stroke-linecap="round" stroke-linejoin="round" stroke-width="0.4"/><line x1="232.38" y1="41.66" x2="234.58" y2="49.86" fill="none" stroke="#003a50" stroke-linecap="round" stroke-linejoin="round" stroke-width="0.4"/><polygon points="232.38 41.65 234.58 49.86 236.78 41.65 232.38 41.65" fill="#003a50"/><line x1="208.69" y1="49.86" x2="236.22" y2="49.86" fill="none" stroke="#003a50" stroke-linecap="round" stroke-linejoin="round" stroke-width="0.4"/><line x1="234.58" y1="49.86" x2="208.69" y2="49.86" fill="none" stroke="#003a50" stroke-linecap="round" stroke-linejoin="round" stroke-width="0.4"/><line x1="234.58" y1="17.03" x2="232.38" y2="25.24" fill="none" stroke="#003a50" stroke-linecap="round" stroke-linejoin="round" stroke-width="0.4"/><line x1="232.38" y1="25.24" x2="236.78" y2="25.24" fill="none" stroke="#003a50" stroke-linecap="round" stroke-linejoin="round" stroke-width="0.4"/><line x1="236.78" y1="25.24" x2="234.58" y2="17.03" fill="none" stroke="#003a50" stroke-linecap="round" stroke-linejoin="round" stroke-width="0.4"/><polygon points="232.38 25.24 236.78 25.24 234.58 17.03 232.38 25.24" fill="#003a50"/><line x1="238.74" y1="17.03" x2="232.94" y2="17.03" fill="none" stroke="#003a50" stroke-linecap="round" stroke-linejoin="round" stroke-width="0.4"/><line x1="234.58" y1="17.03" x2="238.74" y2="17.03" fill="none" stroke="#003a50" stroke-linecap="round" stroke-linejoin="round" stroke-width="0.4"/><g clip-path="url(#clip-path)"><path d="M225.49,40a2.28,2.28,0,0,1,2.13-1.31,2.41,2.41,0,0,1,1.31.36,2.33,2.33,0,0,1,.87,1,3.12,3.12,0,0,1,.31,1.42,3,3,0,0,1-1.06,2.47,4.68,4.68,0,0,1-3,.86,5.11,5.11,0,0,1-2.29-.47,3.21,3.21,0,0,1-1.42-1.3,3.8,3.8,0,0,1-.48-1.94,3.61,3.61,0,0,1,.44-1.93l.67.34a2.76,2.76,0,0,0-.38,1.57,2.68,2.68,0,0,0,.85,2.11,3.58,3.58,0,0,0,2.47.77,5.29,5.29,0,0,0,.66,0,2.16,2.16,0,0,1-1-1,3.35,3.35,0,0,1-.06-2.94Zm3.43.06a1.61,1.61,0,0,0-1.28-.55,1.57,1.57,0,0,0-1.27.55,2.21,2.21,0,0,0-.48,1.49,2.53,2.53,0,0,0,.23,1.09,1.9,1.9,0,0,0,.64.73,1.59,1.59,0,0,0,.9.27,1.54,1.54,0,0,0,.86-.25,1.73,1.73,0,0,0,.64-.74,2.58,2.58,0,0,0,.24-1.16A2.11,2.11,0,0,0,228.92,40Z" fill="#003a50"/><path d="M229.61,36.14a3.22,3.22,0,0,1-1.43,1.14,5.95,5.95,0,0,1-4.39,0,3.22,3.22,0,0,1-1.43-1.14,3.06,3.06,0,0,1,0-3.35,3.33,3.33,0,0,1,1.43-1.16,6.08,6.08,0,0,1,4.39,0,3.33,3.33,0,0,1,1.43,1.16,3.06,3.06,0,0,1,0,3.35ZM229,33.22a2.49,2.49,0,0,0-1.15-.84,5.5,5.5,0,0,0-3.64,0,2.51,2.51,0,0,0-1.14.84,2,2,0,0,0-.4,1.24,2,2,0,0,0,.4,1.25,2.51,2.51,0,0,0,1.14.84,5.67,5.67,0,0,0,3.64,0,2.49,2.49,0,0,0,1.15-.84,2.09,2.09,0,0,0,.4-1.25A2.06,2.06,0,0,0,229,33.22Z" fill="#003a50"/><path d="M229.61,28.46a3.24,3.24,0,0,1-1.43,1.15,6.08,6.08,0,0,1-4.39,0,3.24,3.24,0,0,1-1.43-1.15,3.06,3.06,0,0,1,0-3.35A3.31,3.31,0,0,1,223.79,24a5.95,5.95,0,0,1,4.39,0,3.31,3.31,0,0,1,1.43,1.15,3.06,3.06,0,0,1,0,3.35ZM229,25.54a2.49,2.49,0,0,0-1.15-.84,5.67,5.67,0,0,0-3.64,0,2.51,2.51,0,0,0-1.14.84,2,2,0,0,0-.4,1.25A2,2,0,0,0,223,28a2.51,2.51,0,0,0,1.14.84,5.5,5.5,0,0,0,3.64,0A2.49,2.49,0,0,0,229,28a2.06,2.06,0,0,0,.4-1.24A2.09,2.09,0,0,0,229,25.54Z" fill="#003a50"/></g><line x1="234.58" y1="49.86" x2="234.58" y2="115.55" fill="none" stroke="#003a50" stroke-linecap="round" stroke-linejoin="round" stroke-width="0.4"/><line x1="234.58" y1="115.54" x2="232.38" y2="123.75" fill="none" stroke="#003a50" stroke-linecap="round" stroke-linejoin="round" stroke-width="0.4"/><line x1="232.38" y1="123.75" x2="236.78" y2="123.75" fill="none" stroke="#003a50" stroke-linecap="round" stroke-linejoin="round" stroke-width="0.4"/><line x1="236.78" y1="123.75" x2="234.58" y2="115.54" fill="none" stroke="#003a50" stroke-linecap="round" stroke-linejoin="round" stroke-width="0.4"/><polygon points="232.38 123.75 236.78 123.75 234.58 115.55 232.38 123.75" fill="#003a50"/><line x1="234.58" y1="115.54" x2="236.78" y2="107.34" fill="none" stroke="#003a50" stroke-linecap="round" stroke-linejoin="round" stroke-width="0.4"/><line x1="236.78" y1="107.34" x2="232.38" y2="107.34" fill="none" stroke="#003a50" stroke-linecap="round" stroke-linejoin="round" stroke-width="0.4"/><line x1="232.38" y1="107.34" x2="234.58" y2="115.55" fill="none" stroke="#003a50" stroke-linecap="round" stroke-linejoin="round" stroke-width="0.4"/><polygon points="232.38 107.34 234.58 115.55 236.78 107.34 232.38 107.34" fill="#003a50"/><line x1="219.63" y1="115.54" x2="236.22" y2="115.54" fill="none" stroke="#003a50" stroke-linecap="round" stroke-linejoin="round" stroke-width="0.4"/><line x1="234.58" y1="115.54" x2="219.63" y2="115.54" fill="none" stroke="#003a50" stroke-linecap="round" stroke-linejoin="round" stroke-width="0.4"/><line x1="234.58" y1="49.86" x2="232.38" y2="58.07" fill="none" stroke="#003a50" stroke-linecap="round" stroke-linejoin="round" stroke-width="0.4"/><line x1="232.38" y1="58.07" x2="236.78" y2="58.07" fill="none" stroke="#003a50" stroke-linecap="round" stroke-linejoin="round" stroke-width="0.4"/><line x1="236.78" y1="58.07" x2="234.58" y2="49.86" fill="none" stroke="#003a50" stroke-linecap="round" stroke-linejoin="round" stroke-width="0.4"/><polygon points="232.38 58.07 236.78 58.07 234.58 49.86 232.38 58.07" fill="#003a50"/><line x1="234.58" y1="49.86" x2="236.78" y2="41.65" fill="none" stroke="#003a50" stroke-linecap="round" stroke-linejoin="round" stroke-width="0.4"/><line x1="236.78" y1="41.66" x2="232.38" y2="41.66" fill="none" stroke="#003a50" stroke-linecap="round" stroke-linejoin="round" stroke-width="0.4"/><line x1="232.38" y1="41.66" x2="234.58" y2="49.86" fill="none" stroke="#003a50" stroke-linecap="round" stroke-linejoin="round" stroke-width="0.4"/><polygon points="232.38 41.65 234.58 49.86 236.78 41.65 232.38 41.65" fill="#003a50"/><line x1="208.69" y1="49.86" x2="236.22" y2="49.86" fill="none" stroke="#003a50" stroke-linecap="round" stroke-linejoin="round" stroke-width="0.4"/><line x1="234.58" y1="49.86" x2="208.69" y2="49.86" fill="none" stroke="#003a50" stroke-linecap="round" stroke-linejoin="round" stroke-width="0.4"/><g clip-path="url(#clip-path)"><path d="M221.93,93.05H230v.84h-7.37V95.8h-.74Z" fill="#003a50"/><path d="M229.3,85.58H230v5.69h-.59l-3.3-3.37a4.26,4.26,0,0,0-1.09-.87,2,2,0,0,0-.92-.22,1.36,1.36,0,0,0-1.12.49,2.17,2.17,0,0,0-.4,1.41,2.75,2.75,0,0,0,.91,2.21l-.51.59a3,3,0,0,1-.86-1.21,4.35,4.35,0,0,1-.3-1.66,3.06,3.06,0,0,1,.58-2,2,2,0,0,1,1.61-.72,2.67,2.67,0,0,1,1.2.28,4.94,4.94,0,0,1,1.34,1L229.3,90Z" fill="#003a50"/><path d="M229.61,83a3.31,3.31,0,0,1-1.43,1.15,6.08,6.08,0,0,1-4.39,0A3.34,3.34,0,0,1,222.35,83a3.11,3.11,0,0,1,0-3.35,3.27,3.27,0,0,1,1.44-1.15,5.95,5.95,0,0,1,4.39,0,3.24,3.24,0,0,1,1.43,1.15,3.06,3.06,0,0,1,0,3.35ZM229,80.09a2.49,2.49,0,0,0-1.15-.84,5.67,5.67,0,0,0-3.64,0,2.51,2.51,0,0,0-1.14.84,2.14,2.14,0,0,0,0,2.49,2.51,2.51,0,0,0,1.14.84,5.67,5.67,0,0,0,3.64,0,2.49,2.49,0,0,0,1.15-.84,2.14,2.14,0,0,0,0-2.49Z" fill="#003a50"/><path d="M229.61,75.34a3.22,3.22,0,0,1-1.43,1.14,6.08,6.08,0,0,1-4.39,0,3.25,3.25,0,0,1-1.44-1.14,3,3,0,0,1-.49-1.68,2.9,2.9,0,0,1,.49-1.67,3.29,3.29,0,0,1,1.44-1.16,5.95,5.95,0,0,1,4.39,0A3.26,3.26,0,0,1,229.61,72a2.91,2.91,0,0,1,.5,1.67A3,3,0,0,1,229.61,75.34ZM229,72.41a2.49,2.49,0,0,0-1.15-.84,5.67,5.67,0,0,0-3.64,0,2.51,2.51,0,0,0-1.14.84,2.15,2.15,0,0,0,0,2.5,2.51,2.51,0,0,0,1.14.84,5.67,5.67,0,0,0,3.64,0,2.49,2.49,0,0,0,1.15-.84,2.15,2.15,0,0,0,0-2.5Z" fill="#003a50"/></g><line x1="234.58" y1="115.54" x2="234.58" y2="215.4" fill="none" stroke="#003a50" stroke-linecap="round" stroke-linejoin="round" stroke-width="0.4"/><line x1="234.58" y1="215.4" x2="236.78" y2="207.19" fill="none" stroke="#003a50" stroke-linecap="round" stroke-linejoin="round" stroke-width="0.4"/><line x1="236.78" y1="207.2" x2="232.38" y2="207.2" fill="none" stroke="#003a50" stroke-linecap="round" stroke-linejoin="round" stroke-width="0.4"/><line x1="232.38" y1="207.2" x2="234.58" y2="215.4" fill="none" stroke="#003a50" stroke-linecap="round" stroke-linejoin="round" stroke-width="0.4"/><polygon points="232.38 207.19 234.58 215.4 236.78 207.19 232.38 207.19" fill="#003a50"/><line x1="238.74" y1="215.4" x2="232.94" y2="215.4" fill="none" stroke="#003a50" stroke-linecap="round" stroke-linejoin="round" stroke-width="0.4"/><line x1="234.58" y1="215.4" x2="238.74" y2="215.4" fill="none" stroke="#003a50" stroke-linecap="round" stroke-linejoin="round" stroke-width="0.4"/><line x1="234.58" y1="115.54" x2="232.38" y2="123.75" fill="none" stroke="#003a50" stroke-linecap="round" stroke-linejoin="round" stroke-width="0.4"/><line x1="232.38" y1="123.75" x2="236.78" y2="123.75" fill="none" stroke="#003a50" stroke-linecap="round" stroke-linejoin="round" stroke-width="0.4"/><line x1="236.78" y1="123.75" x2="234.58" y2="115.54" fill="none" stroke="#003a50" stroke-linecap="round" stroke-linejoin="round" stroke-width="0.4"/><polygon points="232.38 123.75 236.78 123.75 234.58 115.55 232.38 123.75" fill="#003a50"/><line x1="234.58" y1="115.54" x2="236.78" y2="107.34" fill="none" stroke="#003a50" stroke-linecap="round" stroke-linejoin="round" stroke-width="0.4"/><line x1="236.78" y1="107.34" x2="232.38" y2="107.34" fill="none" stroke="#003a50" stroke-linecap="round" stroke-linejoin="round" stroke-width="0.4"/><line x1="232.38" y1="107.34" x2="234.58" y2="115.55" fill="none" stroke="#003a50" stroke-linecap="round" stroke-linejoin="round" stroke-width="0.4"/><polygon points="232.38 107.34 234.58 115.55 236.78 107.34 232.38 107.34" fill="#003a50"/><line x1="219.63" y1="115.54" x2="236.22" y2="115.54" fill="none" stroke="#003a50" stroke-linecap="round" stroke-linejoin="round" stroke-width="0.4"/><line x1="234.58" y1="115.54" x2="219.63" y2="115.54" fill="none" stroke="#003a50" stroke-linecap="round" stroke-linejoin="round" stroke-width="0.4"/><g clip-path="url(#clip-path)"><path d="M221.93,175.74H230v.84h-7.37v1.91h-.74Z" fill="#003a50"/><path d="M226.55,168a1.92,1.92,0,0,1,1.23-.41A2.06,2.06,0,0,1,229,168a2.39,2.39,0,0,1,.82,1.1,4.46,4.46,0,0,1,.28,1.67,3.74,3.74,0,0,1-.63,2.3,2,2,0,0,1-1.7.83,1.88,1.88,0,0,1-1.23-.4,2.39,2.39,0,0,1-.76-1.16,2.11,2.11,0,0,1-.71,1,1.84,1.84,0,0,1-1.08.32,1.82,1.82,0,0,1-1.56-.77,3.33,3.33,0,0,1-.58-2.07,3.87,3.87,0,0,1,.26-1.5,2.25,2.25,0,0,1,.74-1,1.89,1.89,0,0,1,1.14-.36,1.78,1.78,0,0,1,1.08.33,2.18,2.18,0,0,1,.71,1A2.5,2.5,0,0,1,226.55,168Zm-1.46,4.21a2.42,2.42,0,0,0,.39-1.47,2.5,2.5,0,0,0-.39-1.48,1.23,1.23,0,0,0-1.05-.54,1.25,1.25,0,0,0-1.08.56,2.88,2.88,0,0,0,0,2.93,1.32,1.32,0,0,0,2.13,0ZM229,169a1.47,1.47,0,0,0-2.38,0,2.82,2.82,0,0,0-.43,1.68,2.86,2.86,0,0,0,.43,1.68,1.4,1.4,0,0,0,1.19.61,1.39,1.39,0,0,0,1.2-.61,2.82,2.82,0,0,0,.43-1.68A2.75,2.75,0,0,0,229,169Z" fill="#003a50"/><path d="M229.3,160.87H230v5.69h-.59l-3.3-3.37a4.26,4.26,0,0,0-1.09-.87,2,2,0,0,0-.92-.22,1.36,1.36,0,0,0-1.12.49,2.17,2.17,0,0,0-.4,1.41,2.75,2.75,0,0,0,.91,2.21l-.51.59a3.07,3.07,0,0,1-.86-1.21,4.35,4.35,0,0,1-.3-1.66,3.06,3.06,0,0,1,.58-2,2,2,0,0,1,1.61-.72,2.67,2.67,0,0,1,1.2.28,5.15,5.15,0,0,1,1.34,1l2.71,2.76Z" fill="#003a50"/><path d="M229.61,158.31a3.24,3.24,0,0,1-1.43,1.15,6.08,6.08,0,0,1-4.39,0,3.27,3.27,0,0,1-1.44-1.15,3.11,3.11,0,0,1,0-3.35,3.34,3.34,0,0,1,1.44-1.15,5.95,5.95,0,0,1,4.39,0,3.31,3.31,0,0,1,1.43,1.15,3.06,3.06,0,0,1,0,3.35Zm-.66-2.92a2.49,2.49,0,0,0-1.15-.84,5.67,5.67,0,0,0-3.64,0,2.51,2.51,0,0,0-1.14.84,2,2,0,0,0-.4,1.25,2,2,0,0,0,.4,1.24,2.51,2.51,0,0,0,1.14.84,5.67,5.67,0,0,0,3.64,0,2.49,2.49,0,0,0,1.15-.84,2.06,2.06,0,0,0,.4-1.24A2.09,2.09,0,0,0,229,155.39Z" fill="#003a50"/></g><line x1="217.99" y1="198.84" x2="529.88" y2="198.84" fill="none" stroke="#003a50" stroke-linecap="round" stroke-linejoin="round" stroke-width="0.4"/><line x1="529.88" y1="198.84" x2="521.67" y2="196.64" fill="none" stroke="#003a50" stroke-linecap="round" stroke-linejoin="round" stroke-width="0.4"/><line x1="521.67" y1="196.64" x2="521.67" y2="201.04" fill="none" stroke="#003a50" stroke-linecap="round" stroke-linejoin="round" stroke-width="0.4"/><line x1="521.67" y1="201.04" x2="529.88" y2="198.84" fill="none" stroke="#003a50" stroke-linecap="round" stroke-linejoin="round" stroke-width="0.4"/><polygon points="521.67 201.04 529.88 198.84 521.67 196.64 521.67 201.04" fill="#003a50"/><line x1="529.88" y1="194.68" x2="529.88" y2="200.48" fill="none" stroke="#003a50" stroke-linecap="round" stroke-linejoin="round" stroke-width="0.4"/><line x1="529.88" y1="198.84" x2="529.88" y2="194.68" fill="none" stroke="#003a50" stroke-linecap="round" stroke-linejoin="round" stroke-width="0.4"/><line x1="217.99" y1="198.84" x2="226.2" y2="201.04" fill="none" stroke="#003a50" stroke-linecap="round" stroke-linejoin="round" stroke-width="0.4"/><line x1="226.2" y1="201.04" x2="226.2" y2="196.64" fill="none" stroke="#003a50" stroke-linecap="round" stroke-linejoin="round" stroke-width="0.4"/><line x1="226.2" y1="196.64" x2="217.99" y2="198.84" fill="none" stroke="#003a50" stroke-linecap="round" stroke-linejoin="round" stroke-width="0.4"/><polygon points="217.99 198.84 226.2 201.04 226.2 196.64 217.99 198.84" fill="#003a50"/><line x1="217.99" y1="194.68" x2="217.99" y2="200.48" fill="none" stroke="#003a50" stroke-linecap="round" stroke-linejoin="round" stroke-width="0.4"/><line x1="217.99" y1="198.84" x2="217.99" y2="194.68" fill="none" stroke="#003a50" stroke-linecap="round" stroke-linejoin="round" stroke-width="0.4"/><g clip-path="url(#clip-path)"><path d="M364.44,190.15a2.11,2.11,0,0,1,.8,1.77,2.42,2.42,0,0,1-.33,1.26,2.19,2.19,0,0,1-1,.88,3.74,3.74,0,0,1-1.62.32,4.77,4.77,0,0,1-1.65-.29,3.38,3.38,0,0,1-1.26-.75l.41-.67a2.89,2.89,0,0,0,1.06.68,3.75,3.75,0,0,0,1.43.26,2.42,2.42,0,0,0,1.56-.45,1.49,1.49,0,0,0,.55-1.2,1.46,1.46,0,0,0-.62-1.27,3.88,3.88,0,0,0-2.09-.43H360l.42-4.07h4.44v.75h-3.71l-.28,2.58h1A4.2,4.2,0,0,1,364.44,190.15Z" fill="#003a50"/><path d="M371.86,186.19v.6l-3.39,7.52h-.91l3.34-7.37h-4.17v1.51h-.82v-2.26Z" fill="#003a50"/><path d="M374.3,193.88a3.22,3.22,0,0,1-1.14-1.43,5.95,5.95,0,0,1,0-4.39,3.25,3.25,0,0,1,1.14-1.44,3.06,3.06,0,0,1,3.35,0,3.36,3.36,0,0,1,1.16,1.44,6.08,6.08,0,0,1,0,4.39,3.33,3.33,0,0,1-1.16,1.43,3.06,3.06,0,0,1-3.35,0Zm2.92-.66a2.63,2.63,0,0,0,.85-1.15,5.67,5.67,0,0,0,0-3.64,2.69,2.69,0,0,0-.85-1.15,2,2,0,0,0-1.24-.39,2.09,2.09,0,0,0-1.25.39,2.6,2.6,0,0,0-.84,1.15,5.67,5.67,0,0,0,0,3.64,2.54,2.54,0,0,0,.84,1.15,2.09,2.09,0,0,0,1.25.39A2,2,0,0,0,377.22,193.22Z" fill="#003a50"/><path d="M382,193.88a3.24,3.24,0,0,1-1.15-1.43,6.08,6.08,0,0,1,0-4.39,3.27,3.27,0,0,1,1.15-1.44,3.06,3.06,0,0,1,3.35,0,3.34,3.34,0,0,1,1.15,1.44,5.95,5.95,0,0,1,0,4.39,3.31,3.31,0,0,1-1.15,1.43,3.06,3.06,0,0,1-3.35,0Zm2.92-.66a2.54,2.54,0,0,0,.84-1.15,5.67,5.67,0,0,0,0-3.64,2.6,2.6,0,0,0-.84-1.15,2.09,2.09,0,0,0-1.25-.39,2.06,2.06,0,0,0-1.24.39,2.6,2.6,0,0,0-.84,1.15,5.5,5.5,0,0,0,0,3.64,2.54,2.54,0,0,0,.84,1.15,2.06,2.06,0,0,0,1.24.39A2.09,2.09,0,0,0,384.9,193.22Z" fill="#003a50"/></g><line x1="169.98" y1="38.92" x2="169.98" y2="17.03" fill="none" stroke="#003a50" stroke-linecap="round" stroke-linejoin="round" stroke-width="0.4"/><line x1="169.98" y1="17.03" x2="167.78" y2="25.24" fill="none" stroke="#003a50" stroke-linecap="round" stroke-linejoin="round" stroke-width="0.4"/><line x1="167.78" y1="25.24" x2="172.18" y2="25.24" fill="none" stroke="#003a50" stroke-linecap="round" stroke-linejoin="round" stroke-width="0.4"/><line x1="172.18" y1="25.24" x2="169.98" y2="17.03" fill="none" stroke="#003a50" stroke-linecap="round" stroke-linejoin="round" stroke-width="0.4"/><polygon points="167.78 25.24 172.18 25.24 169.98 17.03 167.78 25.24" fill="#003a50"/><line x1="165.82" y1="17.03" x2="171.62" y2="17.03" fill="none" stroke="#003a50" stroke-linecap="round" stroke-linejoin="round" stroke-width="0.4"/><line x1="169.98" y1="17.03" x2="165.82" y2="17.03" fill="none" stroke="#003a50" stroke-linecap="round" stroke-linejoin="round" stroke-width="0.4"/><line x1="169.98" y1="38.92" x2="172.18" y2="30.71" fill="none" stroke="#003a50" stroke-linecap="round" stroke-linejoin="round" stroke-width="0.4"/><line x1="172.18" y1="30.71" x2="167.78" y2="30.71" fill="none" stroke="#003a50" stroke-linecap="round" stroke-linejoin="round" stroke-width="0.4"/><line x1="167.78" y1="30.71" x2="169.98" y2="38.92" fill="none" stroke="#003a50" stroke-linecap="round" stroke-linejoin="round" stroke-width="0.4"/><polygon points="167.78 30.71 169.98 38.92 172.18 30.71 167.78 30.71" fill="#003a50"/><line x1="178.05" y1="38.92" x2="168.34" y2="38.92" fill="none" stroke="#003a50" stroke-linecap="round" stroke-linejoin="round" stroke-width="0.4"/><line x1="169.98" y1="38.92" x2="178.05" y2="38.92" fill="none" stroke="#003a50" stroke-linecap="round" stroke-linejoin="round" stroke-width="0.4"/><g clip-path="url(#clip-path)"><path d="M163.6,33.59V35h1.84v.72H163.6v3.95h-.52L158.44,36v-.8L163,38.73v-3h-1.62V35H163v-1.4Z" fill="#003a50"/><path d="M165.07,31.59a2.79,2.79,0,0,1-1.23,1,4.81,4.81,0,0,1-1.9.35,4.76,4.76,0,0,1-1.89-.35,2.88,2.88,0,0,1-1.24-1,2.6,2.6,0,0,1-.43-1.45,2.54,2.54,0,0,1,.43-1.44,2.83,2.83,0,0,1,1.24-1,4.59,4.59,0,0,1,1.89-.36,4.63,4.63,0,0,1,1.9.36,2.74,2.74,0,0,1,1.23,1,2.47,2.47,0,0,1,.43,1.44A2.52,2.52,0,0,1,165.07,31.59Zm-.57-2.52a2.18,2.18,0,0,0-1-.73,4.26,4.26,0,0,0-1.57-.26,4.34,4.34,0,0,0-1.57.26,2.29,2.29,0,0,0-1,.73,1.87,1.87,0,0,0,0,2.15,2.2,2.2,0,0,0,1,.72,4.13,4.13,0,0,0,1.57.26,4.06,4.06,0,0,0,1.57-.26,2.1,2.1,0,0,0,1-.72,1.87,1.87,0,0,0,0-2.15Z" fill="#003a50"/><path d="M165.07,25a2.79,2.79,0,0,1-1.23,1,4.81,4.81,0,0,1-1.9.35,4.76,4.76,0,0,1-1.89-.35,2.88,2.88,0,0,1-1.24-1,2.6,2.6,0,0,1-.43-1.45,2.54,2.54,0,0,1,.43-1.44,2.83,2.83,0,0,1,1.24-1,4.59,4.59,0,0,1,1.89-.36,4.63,4.63,0,0,1,1.9.36,2.74,2.74,0,0,1,1.23,1,2.47,2.47,0,0,1,.43,1.44A2.52,2.52,0,0,1,165.07,25Zm-.57-2.52a2.18,2.18,0,0,0-1-.73,4.26,4.26,0,0,0-1.57-.26,4.34,4.34,0,0,0-1.57.26,2.29,2.29,0,0,0-1,.73,1.87,1.87,0,0,0,0,2.15,2.2,2.2,0,0,0,1,.72,4.13,4.13,0,0,0,1.57.26,4.06,4.06,0,0,0,1.57-.26,2.1,2.1,0,0,0,1-.72,1.87,1.87,0,0,0,0-2.15Z" fill="#003a50"/></g><line x1="179.69" y1="66.8" x2="207.05" y2="66.8" fill="none" stroke="#003a50" stroke-linecap="round" stroke-linejoin="round" stroke-width="0.4"/><line x1="207.05" y1="66.8" x2="198.84" y2="64.6" fill="none" stroke="#003a50" stroke-linecap="round" stroke-linejoin="round" stroke-width="0.4"/><line x1="198.84" y1="64.6" x2="198.84" y2="69" fill="none" stroke="#003a50" stroke-linecap="round" stroke-linejoin="round" stroke-width="0.4"/><line x1="198.84" y1="69" x2="207.05" y2="66.8" fill="none" stroke="#003a50" stroke-linecap="round" stroke-linejoin="round" stroke-width="0.4"/><polygon points="198.84 69 207.05 66.8 198.84 64.6 198.84 69" fill="#003a50"/><line x1="207.05" y1="51.5" x2="207.05" y2="68.44" fill="none" stroke="#003a50" stroke-linecap="round" stroke-linejoin="round" stroke-width="0.4"/><line x1="207.05" y1="66.8" x2="207.05" y2="51.51" fill="none" stroke="#003a50" stroke-linecap="round" stroke-linejoin="round" stroke-width="0.4"/><line x1="179.69" y1="66.8" x2="187.9" y2="69" fill="none" stroke="#003a50" stroke-linecap="round" stroke-linejoin="round" stroke-width="0.4"/><line x1="187.9" y1="69" x2="187.9" y2="64.6" fill="none" stroke="#003a50" stroke-linecap="round" stroke-linejoin="round" stroke-width="0.4"/><line x1="187.9" y1="64.6" x2="179.69" y2="66.8" fill="none" stroke="#003a50" stroke-linecap="round" stroke-linejoin="round" stroke-width="0.4"/><polygon points="179.69 66.8 187.9 69 187.9 64.6 179.69 66.8" fill="#003a50"/><line x1="179.69" y1="40.56" x2="179.69" y2="68.44" fill="none" stroke="#003a50" stroke-linecap="round" stroke-linejoin="round" stroke-width="0.4"/><line x1="179.69" y1="66.8" x2="179.69" y2="40.56" fill="none" stroke="#003a50" stroke-linecap="round" stroke-linejoin="round" stroke-width="0.4"/><g clip-path="url(#clip-path)"><path d="M187.33,58.11a2.1,2.1,0,0,1,.8,1.76,2.43,2.43,0,0,1-.33,1.27,2.23,2.23,0,0,1-1,.87,3.74,3.74,0,0,1-1.62.32,4.77,4.77,0,0,1-1.65-.28,3.53,3.53,0,0,1-1.26-.76l.41-.66a3,3,0,0,0,1.06.68,4,4,0,0,0,1.43.26,2.36,2.36,0,0,0,1.56-.46,1.49,1.49,0,0,0,.55-1.2,1.46,1.46,0,0,0-.62-1.27,3.89,3.89,0,0,0-2.09-.42h-1.73l.42-4.07h4.44v.74H184l-.28,2.58h1A4.11,4.11,0,0,1,187.33,58.11Z" fill="#003a50"/><path d="M190.75,61.83a3.24,3.24,0,0,1-1.15-1.43,6.08,6.08,0,0,1,0-4.39,3.24,3.24,0,0,1,1.15-1.43,3.06,3.06,0,0,1,3.35,0A3.31,3.31,0,0,1,195.25,56a5.95,5.95,0,0,1,0,4.39,3.31,3.31,0,0,1-1.15,1.43,3.06,3.06,0,0,1-3.35,0Zm2.92-.66a2.49,2.49,0,0,0,.84-1.15,4.88,4.88,0,0,0,.3-1.82,5,5,0,0,0-.3-1.82,2.51,2.51,0,0,0-.84-1.14,2,2,0,0,0-1.25-.4,2,2,0,0,0-1.24.4,2.51,2.51,0,0,0-.84,1.14,5,5,0,0,0-.3,1.82,4.88,4.88,0,0,0,.3,1.82,2.49,2.49,0,0,0,.84,1.15,2.06,2.06,0,0,0,1.24.4A2.09,2.09,0,0,0,193.67,61.17Z" fill="#003a50"/><path d="M198.42,61.83a3.31,3.31,0,0,1-1.15-1.43,6.08,6.08,0,0,1,0-4.39,3.31,3.31,0,0,1,1.15-1.43,3.06,3.06,0,0,1,3.35,0A3.33,3.33,0,0,1,202.93,56a6.08,6.08,0,0,1,0,4.39,3.33,3.33,0,0,1-1.16,1.43,3.06,3.06,0,0,1-3.35,0Zm2.92-.66a2.49,2.49,0,0,0,.84-1.15,4.87,4.87,0,0,0,.31-1.82,5,5,0,0,0-.31-1.82,2.51,2.51,0,0,0-.84-1.14,2,2,0,0,0-1.24-.4,2,2,0,0,0-1.25.4,2.51,2.51,0,0,0-.84,1.14,5,5,0,0,0-.3,1.82A4.88,4.88,0,0,0,198,60a2.49,2.49,0,0,0,.84,1.15,2.09,2.09,0,0,0,1.25.4A2.06,2.06,0,0,0,201.34,61.17Z" fill="#003a50"/></g><line x1="97.61" y1="107.83" x2="217.99" y2="107.83" fill="none" stroke="#003a50" stroke-linecap="round" stroke-linejoin="round" stroke-width="0.4"/><line x1="217.99" y1="107.83" x2="209.78" y2="105.63" fill="none" stroke="#003a50" stroke-linecap="round" stroke-linejoin="round" stroke-width="0.4"/><line x1="209.78" y1="105.64" x2="209.78" y2="110.04" fill="none" stroke="#003a50" stroke-linecap="round" stroke-linejoin="round" stroke-width="0.4"/><line x1="209.78" y1="110.03" x2="217.99" y2="107.83" fill="none" stroke="#003a50" stroke-linecap="round" stroke-linejoin="round" stroke-width="0.4"/><polygon points="209.78 110.03 217.99 107.83 209.78 105.64 209.78 110.03" fill="#003a50"/><line x1="217.99" y1="113.9" x2="217.99" y2="106.19" fill="none" stroke="#003a50" stroke-linecap="round" stroke-linejoin="round" stroke-width="0.4"/><line x1="217.99" y1="107.83" x2="217.99" y2="113.9" fill="none" stroke="#003a50" stroke-linecap="round" stroke-linejoin="round" stroke-width="0.4"/><line x1="97.61" y1="107.83" x2="105.82" y2="110.03" fill="none" stroke="#003a50" stroke-linecap="round" stroke-linejoin="round" stroke-width="0.4"/><line x1="105.82" y1="110.03" x2="105.82" y2="105.63" fill="none" stroke="#003a50" stroke-linecap="round" stroke-linejoin="round" stroke-width="0.4"/><line x1="105.82" y1="105.64" x2="97.61" y2="107.84" fill="none" stroke="#003a50" stroke-linecap="round" stroke-linejoin="round" stroke-width="0.4"/><polygon points="97.61 107.83 105.82 110.03 105.82 105.63 97.61 107.83" fill="#003a50"/><line x1="97.61" y1="113.9" x2="97.61" y2="106.19" fill="none" stroke="#003a50" stroke-linecap="round" stroke-linejoin="round" stroke-width="0.4"/><line x1="97.61" y1="107.83" x2="97.61" y2="113.9" fill="none" stroke="#003a50" stroke-linecap="round" stroke-linejoin="round" stroke-width="0.4"/><g clip-path="url(#clip-path)"><path d="M177.34,102.56v.74h-5.69v-.59l3.38-3.3a4.41,4.41,0,0,0,.86-1.09,2.05,2.05,0,0,0,.23-.92,1.37,1.37,0,0,0-.5-1.12,2.15,2.15,0,0,0-1.41-.4,2.76,2.76,0,0,0-2.21.91l-.59-.51a3,3,0,0,1,1.21-.86,4.38,4.38,0,0,1,1.66-.3,3,3,0,0,1,2,.58,2,2,0,0,1,.72,1.61,2.8,2.8,0,0,1-.27,1.2,5.22,5.22,0,0,1-1.06,1.34l-2.76,2.71Z" fill="#003a50"/><path d="M183.93,102.56v.74h-5.69v-.59l3.37-3.3a4.18,4.18,0,0,0,.86-1.09,2.05,2.05,0,0,0,.23-.92,1.36,1.36,0,0,0-.49-1.12,2.17,2.17,0,0,0-1.41-.4,2.78,2.78,0,0,0-2.22.91l-.59-.51a3,3,0,0,1,1.22-.86,4.35,4.35,0,0,1,1.66-.3,3,3,0,0,1,2,.58,2,2,0,0,1,.73,1.61,2.67,2.67,0,0,1-.28,1.2,5.38,5.38,0,0,1-1.05,1.34l-2.76,2.71Z" fill="#003a50"/><path d="M186.5,102.87a3.24,3.24,0,0,1-1.15-1.43,6.08,6.08,0,0,1,0-4.39,3.19,3.19,0,0,1,1.15-1.43,3.06,3.06,0,0,1,3.35,0A3.25,3.25,0,0,1,191,97.05a5.95,5.95,0,0,1,0,4.39,3.31,3.31,0,0,1-1.15,1.43,3.06,3.06,0,0,1-3.35,0Zm2.92-.66a2.49,2.49,0,0,0,.84-1.15,5.67,5.67,0,0,0,0-3.64,2.51,2.51,0,0,0-.84-1.14,2,2,0,0,0-1.25-.4,2,2,0,0,0-1.24.4,2.6,2.6,0,0,0-.85,1.14,5.67,5.67,0,0,0,0,3.64,2.57,2.57,0,0,0,.85,1.15,2,2,0,0,0,1.24.4A2.09,2.09,0,0,0,189.42,102.21Z" fill="#003a50"/><path d="M194.17,102.87a3.31,3.31,0,0,1-1.15-1.43,6.08,6.08,0,0,1,0-4.39,3.25,3.25,0,0,1,1.15-1.43,3.06,3.06,0,0,1,3.35,0,3.19,3.19,0,0,1,1.15,1.43,5.95,5.95,0,0,1,0,4.39,3.24,3.24,0,0,1-1.15,1.43,3.06,3.06,0,0,1-3.35,0Zm2.92-.66a2.49,2.49,0,0,0,.84-1.15,5.67,5.67,0,0,0,0-3.64,2.51,2.51,0,0,0-.84-1.14,2.14,2.14,0,0,0-2.49,0,2.51,2.51,0,0,0-.84,1.14,5.67,5.67,0,0,0,0,3.64,2.49,2.49,0,0,0,.84,1.15,2.14,2.14,0,0,0,2.49,0Z" fill="#003a50"/></g><line x1="121.01" y1="215.4" x2="121.01" y2="121.01" fill="none" stroke="#003a50" stroke-linecap="round" stroke-linejoin="round" stroke-width="0.4"/><line x1="121.01" y1="121.02" x2="118.81" y2="129.22" fill="none" stroke="#003a50" stroke-linecap="round" stroke-linejoin="round" stroke-width="0.4"/><line x1="118.81" y1="129.22" x2="123.21" y2="129.22" fill="none" stroke="#003a50" stroke-linecap="round" stroke-linejoin="round" stroke-width="0.4"/><line x1="123.2" y1="129.22" x2="121" y2="121.02" fill="none" stroke="#003a50" stroke-linecap="round" stroke-linejoin="round" stroke-width="0.4"/><polygon points="118.81 129.22 123.2 129.22 121.01 121.02 118.81 129.22" fill="#003a50"/><line x1="116.84" y1="121.02" x2="122.65" y2="121.02" fill="none" stroke="#003a50" stroke-linecap="round" stroke-linejoin="round" stroke-width="0.4"/><line x1="121.01" y1="121.02" x2="116.84" y2="121.02" fill="none" stroke="#003a50" stroke-linecap="round" stroke-linejoin="round" stroke-width="0.4"/><line x1="121.01" y1="215.4" x2="123.21" y2="207.19" fill="none" stroke="#003a50" stroke-linecap="round" stroke-linejoin="round" stroke-width="0.4"/><line x1="123.2" y1="207.2" x2="118.8" y2="207.2" fill="none" stroke="#003a50" stroke-linecap="round" stroke-linejoin="round" stroke-width="0.4"/><line x1="118.81" y1="207.2" x2="121.01" y2="215.4" fill="none" stroke="#003a50" stroke-linecap="round" stroke-linejoin="round" stroke-width="0.4"/><polygon points="118.81 207.19 121.01 215.4 123.2 207.19 118.81 207.19" fill="#003a50"/><line x1="116.84" y1="215.4" x2="122.65" y2="215.4" fill="none" stroke="#003a50" stroke-linecap="round" stroke-linejoin="round" stroke-width="0.4"/><line x1="121.01" y1="215.4" x2="116.84" y2="215.4" fill="none" stroke="#003a50" stroke-linecap="round" stroke-linejoin="round" stroke-width="0.4"/><g clip-path="url(#clip-path)"><path d="M108.36,178.16h8.11V179H109.1v1.91h-.74Z" fill="#003a50"/><path d="M108.36,170.49H109l7.52,3.4v.9l-7.37-3.33v4.17h1.52v.82h-2.26Z" fill="#003a50"/><path d="M115.73,163.85h.74v5.69h-.59l-3.3-3.37a4.18,4.18,0,0,0-1.09-.86,2.05,2.05,0,0,0-.92-.23,1.36,1.36,0,0,0-1.12.49,2.17,2.17,0,0,0-.4,1.41,2.75,2.75,0,0,0,.91,2.21l-.51.6a3.14,3.14,0,0,1-.86-1.21,4.44,4.44,0,0,1-.3-1.67,3,3,0,0,1,.58-2,2,2,0,0,1,1.61-.73,2.67,2.67,0,0,1,1.2.28,5.22,5.22,0,0,1,1.34,1.06l2.71,2.75Z" fill="#003a50"/><path d="M116,161.28a3.24,3.24,0,0,1-1.43,1.15,6.08,6.08,0,0,1-4.39,0,3.19,3.19,0,0,1-1.43-1.15,3.06,3.06,0,0,1,0-3.35,3.25,3.25,0,0,1,1.43-1.15,5.95,5.95,0,0,1,4.39,0,3.31,3.31,0,0,1,1.43,1.15,3.06,3.06,0,0,1,0,3.35Zm-.66-2.92a2.49,2.49,0,0,0-1.15-.84,5.67,5.67,0,0,0-3.64,0,2.51,2.51,0,0,0-1.14.84,2,2,0,0,0-.4,1.25,2,2,0,0,0,.4,1.24,2.51,2.51,0,0,0,1.14.84,5.5,5.5,0,0,0,3.64,0,2.49,2.49,0,0,0,1.15-.84,2,2,0,0,0,.4-1.24A2.09,2.09,0,0,0,115.38,158.36Z" fill="#003a50"/></g><line x1="103.09" y1="198.84" x2="212.52" y2="198.84" fill="none" stroke="#003a50" stroke-linecap="round" stroke-linejoin="round" stroke-width="0.4"/><line x1="212.52" y1="198.84" x2="204.31" y2="196.64" fill="none" stroke="#003a50" stroke-linecap="round" stroke-linejoin="round" stroke-width="0.4"/><line x1="204.31" y1="196.64" x2="204.31" y2="201.04" fill="none" stroke="#003a50" stroke-linecap="round" stroke-linejoin="round" stroke-width="0.4"/><line x1="204.31" y1="201.04" x2="212.52" y2="198.84" fill="none" stroke="#003a50" stroke-linecap="round" stroke-linejoin="round" stroke-width="0.4"/><polygon points="204.31 201.04 212.52 198.84 204.31 196.64 204.31 201.04" fill="#003a50"/><line x1="212.52" y1="194.68" x2="212.52" y2="200.48" fill="none" stroke="#003a50" stroke-linecap="round" stroke-linejoin="round" stroke-width="0.4"/><line x1="212.52" y1="198.84" x2="212.52" y2="194.68" fill="none" stroke="#003a50" stroke-linecap="round" stroke-linejoin="round" stroke-width="0.4"/><line x1="103.09" y1="198.84" x2="111.29" y2="201.04" fill="none" stroke="#003a50" stroke-linecap="round" stroke-linejoin="round" stroke-width="0.4"/><line x1="111.29" y1="201.04" x2="111.29" y2="196.64" fill="none" stroke="#003a50" stroke-linecap="round" stroke-linejoin="round" stroke-width="0.4"/><line x1="111.29" y1="196.64" x2="103.09" y2="198.84" fill="none" stroke="#003a50" stroke-linecap="round" stroke-linejoin="round" stroke-width="0.4"/><polygon points="103.09 198.84 111.29 201.04 111.29 196.64 103.09 198.84" fill="#003a50"/><line x1="103.09" y1="194.68" x2="103.09" y2="200.48" fill="none" stroke="#003a50" stroke-linecap="round" stroke-linejoin="round" stroke-width="0.4"/><line x1="103.09" y1="198.84" x2="103.09" y2="194.68" fill="none" stroke="#003a50" stroke-linecap="round" stroke-linejoin="round" stroke-width="0.4"/><g clip-path="url(#clip-path)"><path d="M148.79,193.57v.74h-5.7v-.59l3.38-3.31a4.22,4.22,0,0,0,.86-1.08,2.09,2.09,0,0,0,.23-.92,1.37,1.37,0,0,0-.5-1.12,2.12,2.12,0,0,0-1.4-.4,2.81,2.81,0,0,0-2.22.9l-.59-.51a3.12,3.12,0,0,1,1.21-.85,4.21,4.21,0,0,1,1.67-.31,3,3,0,0,1,2,.59,2,2,0,0,1,.73,1.61,2.81,2.81,0,0,1-.28,1.2,5,5,0,0,1-1.06,1.33l-2.76,2.72Z" fill="#003a50"/><path d="M151.35,193.88a3.22,3.22,0,0,1-1.14-1.43,5.95,5.95,0,0,1,0-4.39,3.25,3.25,0,0,1,1.14-1.44,3.06,3.06,0,0,1,3.35,0,3.36,3.36,0,0,1,1.16,1.44,6.08,6.08,0,0,1,0,4.39,3.33,3.33,0,0,1-1.16,1.43,3.06,3.06,0,0,1-3.35,0Zm2.93-.66a2.69,2.69,0,0,0,.84-1.15,5.67,5.67,0,0,0,0-3.64,2.76,2.76,0,0,0-.84-1.15,2.2,2.2,0,0,0-2.5,0,2.6,2.6,0,0,0-.84,1.15,5.67,5.67,0,0,0,0,3.64,2.54,2.54,0,0,0,.84,1.15,2.2,2.2,0,0,0,2.5,0Z" fill="#003a50"/><path d="M159,193.88a3.24,3.24,0,0,1-1.15-1.43,6.08,6.08,0,0,1,0-4.39,3.27,3.27,0,0,1,1.15-1.44,3.06,3.06,0,0,1,3.35,0,3.34,3.34,0,0,1,1.15,1.44,5.95,5.95,0,0,1,0,4.39,3.31,3.31,0,0,1-1.15,1.43,3.06,3.06,0,0,1-3.35,0Zm2.92-.66a2.54,2.54,0,0,0,.84-1.15,5.67,5.67,0,0,0,0-3.64,2.6,2.6,0,0,0-.84-1.15,2.09,2.09,0,0,0-1.25-.39,2.06,2.06,0,0,0-1.24.39,2.6,2.6,0,0,0-.84,1.15,5.5,5.5,0,0,0,0,3.64,2.54,2.54,0,0,0,.84,1.15,2.06,2.06,0,0,0,1.24.39A2.09,2.09,0,0,0,162,193.22Z" fill="#003a50"/><path d="M166.7,193.88a3.31,3.31,0,0,1-1.15-1.43,6.08,6.08,0,0,1,0-4.39,3.34,3.34,0,0,1,1.15-1.44,3.06,3.06,0,0,1,3.35,0,3.36,3.36,0,0,1,1.16,1.44,6.08,6.08,0,0,1,0,4.39,3.33,3.33,0,0,1-1.16,1.43,3.06,3.06,0,0,1-3.35,0Zm2.92-.66a2.54,2.54,0,0,0,.84-1.15,5.67,5.67,0,0,0,0-3.64,2.6,2.6,0,0,0-.84-1.15,2.06,2.06,0,0,0-1.24-.39,2.09,2.09,0,0,0-1.25.39,2.6,2.6,0,0,0-.84,1.15,5.67,5.67,0,0,0,0,3.64,2.54,2.54,0,0,0,.84,1.15,2.09,2.09,0,0,0,1.25.39A2.06,2.06,0,0,0,169.62,193.22Z" fill="#003a50"/></g><line x1="90.38" y1="106.23" x2="90.38" y2="141.28" fill="none" stroke="#003a50" stroke-linecap="round" stroke-linejoin="round" stroke-width="0.4"/><line x1="90.38" y1="131.96" x2="88.18" y2="140.17" fill="none" stroke="#003a50" stroke-linecap="round" stroke-linejoin="round" stroke-width="0.4"/><line x1="88.18" y1="140.17" x2="92.58" y2="140.17" fill="none" stroke="#003a50" stroke-linecap="round" stroke-linejoin="round" stroke-width="0.4"/><line x1="92.58" y1="140.17" x2="90.38" y2="131.96" fill="none" stroke="#003a50" stroke-linecap="round" stroke-linejoin="round" stroke-width="0.4"/><polygon points="88.18 140.17 92.58 140.17 90.38 131.96 88.18 140.17" fill="#003a50"/><line x1="94.54" y1="131.96" x2="88.74" y2="131.96" fill="none" stroke="#003a50" stroke-linecap="round" stroke-linejoin="round" stroke-width="0.4"/><line x1="90.38" y1="131.96" x2="94.54" y2="131.96" fill="none" stroke="#003a50" stroke-linecap="round" stroke-linejoin="round" stroke-width="0.4"/><line x1="90.38" y1="115.54" x2="92.58" y2="107.34" fill="none" stroke="#003a50" stroke-linecap="round" stroke-linejoin="round" stroke-width="0.4"/><line x1="92.58" y1="107.34" x2="88.18" y2="107.34" fill="none" stroke="#003a50" stroke-linecap="round" stroke-linejoin="round" stroke-width="0.4"/><line x1="88.18" y1="107.34" x2="90.38" y2="115.55" fill="none" stroke="#003a50" stroke-linecap="round" stroke-linejoin="round" stroke-width="0.4"/><polygon points="88.18 107.34 90.38 115.55 92.58 107.34 88.18 107.34" fill="#003a50"/><line x1="95.97" y1="115.54" x2="88.74" y2="115.54" fill="none" stroke="#003a50" stroke-linecap="round" stroke-linejoin="round" stroke-width="0.4"/><line x1="90.38" y1="115.54" x2="95.97" y2="115.54" fill="none" stroke="#003a50" stroke-linecap="round" stroke-linejoin="round" stroke-width="0.4"/><g clip-path="url(#clip-path)"><path d="M83.12,125.29a1.49,1.49,0,0,1,1.12-.46,1.61,1.61,0,0,1,.85.23,1.67,1.67,0,0,1,.59.69,2.68,2.68,0,0,1,.21,1.11A3.34,3.34,0,0,1,85.7,128a2.33,2.33,0,0,1-.53.87l-.45-.28a2.09,2.09,0,0,0,.47-.74,2.73,2.73,0,0,0,.18-1,1.67,1.67,0,0,0-.3-1.06,1,1,0,0,0-.83-.37,1,1,0,0,0-.82.37,1.81,1.81,0,0,0-.29,1.14v.4H82.7l-1.94-1.56v2.87h-.51v-3.6h.4l2,1.58A2.11,2.11,0,0,1,83.12,125.29Z" fill="#003a50"/><path d="M85.55,123a2.25,2.25,0,0,1-1,.79,4.24,4.24,0,0,1-3,0,2.25,2.25,0,0,1-1-.79,2,2,0,0,1-.34-1.16,2,2,0,0,1,.34-1.15,2.27,2.27,0,0,1,1-.8,4.1,4.1,0,0,1,3,0,2.27,2.27,0,0,1,1,.8,2,2,0,0,1,.34,1.15A2,2,0,0,1,85.55,123Zm-.46-2a1.72,1.72,0,0,0-.79-.58,3.3,3.3,0,0,0-1.25-.21,3.35,3.35,0,0,0-1.26.21,1.72,1.72,0,0,0-.79.58,1.44,1.44,0,0,0-.27.86,1.42,1.42,0,0,0,.27.86,1.72,1.72,0,0,0,.79.58,3.35,3.35,0,0,0,1.26.21,3.3,3.3,0,0,0,1.25-.21,1.72,1.72,0,0,0,.79-.58,1.37,1.37,0,0,0,.28-.86A1.39,1.39,0,0,0,85.09,120.93Z" fill="#003a50"/><path d="M85.55,117.65a2.19,2.19,0,0,1-1,.79,4.1,4.1,0,0,1-3,0,2.19,2.19,0,0,1-1-.79,2.13,2.13,0,0,1,0-2.31,2.34,2.34,0,0,1,1-.8,4.24,4.24,0,0,1,3,0,2.34,2.34,0,0,1,1,.8,2.13,2.13,0,0,1,0,2.31Zm-.46-2a1.72,1.72,0,0,0-.79-.58,3.3,3.3,0,0,0-1.25-.21,3.35,3.35,0,0,0-1.26.21,1.72,1.72,0,0,0-.79.58,1.42,1.42,0,0,0-.27.86,1.44,1.44,0,0,0,.27.86,1.79,1.79,0,0,0,.79.58,3.37,3.37,0,0,0,1.26.2,3.31,3.31,0,0,0,1.25-.2,1.79,1.79,0,0,0,.79-.58,1.39,1.39,0,0,0,.28-.86A1.37,1.37,0,0,0,85.09,115.64Z" fill="#003a50"/></g><line x1="67.52" y1="107.83" x2="97.62" y2="107.83" fill="none" stroke="#003a50" stroke-linecap="round" stroke-linejoin="round" stroke-width="0.4"/><line x1="97.61" y1="107.83" x2="89.41" y2="105.63" fill="none" stroke="#003a50" stroke-linecap="round" stroke-linejoin="round" stroke-width="0.4"/><line x1="89.41" y1="105.64" x2="89.41" y2="110.04" fill="none" stroke="#003a50" stroke-linecap="round" stroke-linejoin="round" stroke-width="0.4"/><line x1="89.41" y1="110.03" x2="97.61" y2="107.83" fill="none" stroke="#003a50" stroke-linecap="round" stroke-linejoin="round" stroke-width="0.4"/><polygon points="89.41 110.03 97.61 107.83 89.41 105.64 89.41 110.03" fill="#003a50"/><line x1="97.61" y1="113.9" x2="97.61" y2="106.19" fill="none" stroke="#003a50" stroke-linecap="round" stroke-linejoin="round" stroke-width="0.4"/><line x1="97.61" y1="107.83" x2="97.61" y2="113.9" fill="none" stroke="#003a50" stroke-linecap="round" stroke-linejoin="round" stroke-width="0.4"/><line x1="67.52" y1="107.83" x2="75.73" y2="110.03" fill="none" stroke="#003a50" stroke-linecap="round" stroke-linejoin="round" stroke-width="0.4"/><line x1="75.73" y1="110.03" x2="75.73" y2="105.63" fill="none" stroke="#003a50" stroke-linecap="round" stroke-linejoin="round" stroke-width="0.4"/><line x1="75.73" y1="105.64" x2="67.52" y2="107.84" fill="none" stroke="#003a50" stroke-linecap="round" stroke-linejoin="round" stroke-width="0.4"/><polygon points="67.52 107.83 75.73 110.03 75.73 105.63 67.52 107.83" fill="#003a50"/><line x1="67.52" y1="103.67" x2="67.52" y2="109.48" fill="none" stroke="#003a50" stroke-linecap="round" stroke-linejoin="round" stroke-width="0.4"/><line x1="67.52" y1="107.83" x2="67.52" y2="103.67" fill="none" stroke="#003a50" stroke-linecap="round" stroke-linejoin="round" stroke-width="0.4"/><g clip-path="url(#clip-path)"><path d="M77.09,99.14a2.16,2.16,0,0,1,.8,1.77,2.45,2.45,0,0,1-.33,1.27,2.23,2.23,0,0,1-1,.87,3.74,3.74,0,0,1-1.62.32,4.77,4.77,0,0,1-1.65-.28,3.36,3.36,0,0,1-1.26-.76l.4-.66a3.06,3.06,0,0,0,1.07.67,3.75,3.75,0,0,0,1.43.27,2.42,2.42,0,0,0,1.56-.46,1.49,1.49,0,0,0,.55-1.2,1.46,1.46,0,0,0-.62-1.27,3.92,3.92,0,0,0-2.1-.43H72.61L73,95.19h4.44v.74H73.75l-.27,2.58h1A4.2,4.2,0,0,1,77.09,99.14Z" fill="#003a50"/><path d="M83.6,99.14a2.14,2.14,0,0,1,.81,1.77,2.45,2.45,0,0,1-.33,1.27,2.2,2.2,0,0,1-1,.87,3.74,3.74,0,0,1-1.62.32,4.77,4.77,0,0,1-1.65-.28,3.53,3.53,0,0,1-1.26-.76l.41-.66a3,3,0,0,0,1.06.67,3.79,3.79,0,0,0,1.43.27,2.42,2.42,0,0,0,1.56-.46,1.6,1.6,0,0,0-.07-2.47,3.86,3.86,0,0,0-2.09-.43H79.12l.42-4.06H84v.74H80.27L80,98.51h1A4.18,4.18,0,0,1,83.6,99.14Z" fill="#003a50"/><path d="M87,102.87a3.31,3.31,0,0,1-1.15-1.43,6.08,6.08,0,0,1,0-4.39A3.25,3.25,0,0,1,87,95.62a3.06,3.06,0,0,1,3.35,0,3.19,3.19,0,0,1,1.15,1.43,5.95,5.95,0,0,1,0,4.39,3.24,3.24,0,0,1-1.15,1.43,3.06,3.06,0,0,1-3.35,0Zm2.92-.66a2.49,2.49,0,0,0,.84-1.15,5.67,5.67,0,0,0,0-3.64,2.51,2.51,0,0,0-.84-1.14,2.14,2.14,0,0,0-2.49,0,2.51,2.51,0,0,0-.84,1.14,5.67,5.67,0,0,0,0,3.64,2.49,2.49,0,0,0,.84,1.15,2.14,2.14,0,0,0,2.49,0Z" fill="#003a50"/></g><line x1="90.38" y1="17.03" x2="90.38" y2="115.54" fill="none" stroke="#003a50" stroke-linecap="round" stroke-linejoin="round" stroke-width="0.4"/><line x1="90.38" y1="115.54" x2="92.58" y2="107.34" fill="none" stroke="#003a50" stroke-linecap="round" stroke-linejoin="round" stroke-width="0.4"/><line x1="92.58" y1="107.34" x2="88.18" y2="107.34" fill="none" stroke="#003a50" stroke-linecap="round" stroke-linejoin="round" stroke-width="0.4"/><line x1="88.18" y1="107.34" x2="90.38" y2="115.55" fill="none" stroke="#003a50" stroke-linecap="round" stroke-linejoin="round" stroke-width="0.4"/><polygon points="88.18 107.34 90.38 115.55 92.58 107.34 88.18 107.34" fill="#003a50"/><line x1="95.97" y1="115.54" x2="88.74" y2="115.54" fill="none" stroke="#003a50" stroke-linecap="round" stroke-linejoin="round" stroke-width="0.4"/><line x1="90.38" y1="115.54" x2="95.97" y2="115.54" fill="none" stroke="#003a50" stroke-linecap="round" stroke-linejoin="round" stroke-width="0.4"/><line x1="90.38" y1="17.03" x2="88.18" y2="25.24" fill="none" stroke="#003a50" stroke-linecap="round" stroke-linejoin="round" stroke-width="0.4"/><line x1="88.18" y1="25.24" x2="92.58" y2="25.24" fill="none" stroke="#003a50" stroke-linecap="round" stroke-linejoin="round" stroke-width="0.4"/><line x1="92.58" y1="25.24" x2="90.38" y2="17.03" fill="none" stroke="#003a50" stroke-linecap="round" stroke-linejoin="round" stroke-width="0.4"/><polygon points="88.18 25.24 92.58 25.24 90.38 17.03 88.18 25.24" fill="#003a50"/><line x1="94.54" y1="17.03" x2="88.74" y2="17.03" fill="none" stroke="#003a50" stroke-linecap="round" stroke-linejoin="round" stroke-width="0.4"/><line x1="90.38" y1="17.03" x2="94.54" y2="17.03" fill="none" stroke="#003a50" stroke-linecap="round" stroke-linejoin="round" stroke-width="0.4"/><g clip-path="url(#clip-path)"><path d="M77.73,59.12h8.12V60H78.47v1.91h-.74Z" fill="#003a50"/><path d="M82.36,51.36A1.91,1.91,0,0,1,83.58,51a2.07,2.07,0,0,1,1.24.38,2.44,2.44,0,0,1,.81,1.1,4.51,4.51,0,0,1,.28,1.68,3.73,3.73,0,0,1-.62,2.29,2,2,0,0,1-1.71.84,2,2,0,0,1-1.23-.4,2.42,2.42,0,0,1-.76-1.17,2,2,0,0,1-.7.95,1.82,1.82,0,0,1-1.08.33,1.86,1.86,0,0,1-1.57-.78,3.31,3.31,0,0,1-.58-2.06,4.08,4.08,0,0,1,.26-1.51,2.32,2.32,0,0,1,.75-1,1.85,1.85,0,0,1,1.14-.36,1.76,1.76,0,0,1,1.08.34,2.08,2.08,0,0,1,.7,1A2.51,2.51,0,0,1,82.36,51.36ZM80.9,55.58a3,3,0,0,0,0-2.95,1.26,1.26,0,0,0-1.06-.54,1.24,1.24,0,0,0-1.08.55,2.49,2.49,0,0,0-.39,1.47,2.45,2.45,0,0,0,.39,1.46,1.25,1.25,0,0,0,1.07.54A1.28,1.28,0,0,0,80.9,55.58Zm3.87-3.16a1.4,1.4,0,0,0-1.2-.61,1.38,1.38,0,0,0-1.19.61,3.5,3.5,0,0,0,0,3.36,1.38,1.38,0,0,0,1.19.61,1.4,1.4,0,0,0,1.2-.6,3.45,3.45,0,0,0,0-3.37Z" fill="#003a50"/><path d="M85.42,48.23A3.27,3.27,0,0,1,84,49.38a6.08,6.08,0,0,1-4.39,0,3.24,3.24,0,0,1-1.43-1.15,3.06,3.06,0,0,1,0-3.35,3.31,3.31,0,0,1,1.43-1.15,5.95,5.95,0,0,1,4.39,0,3.34,3.34,0,0,1,1.44,1.15,3.11,3.11,0,0,1,0,3.35Zm-.66-2.92a2.6,2.6,0,0,0-1.15-.84,5.67,5.67,0,0,0-3.64,0,2.54,2.54,0,0,0-1.15.84,2.2,2.2,0,0,0,0,2.5,2.69,2.69,0,0,0,1.15.84,5.67,5.67,0,0,0,3.64,0,2.76,2.76,0,0,0,1.15-.84,2.2,2.2,0,0,0,0-2.5Z" fill="#003a50"/><path d="M85.42,40.56A3.34,3.34,0,0,1,84,41.71a6.08,6.08,0,0,1-4.39,0,3.31,3.31,0,0,1-1.43-1.15,3.06,3.06,0,0,1,0-3.35,3.24,3.24,0,0,1,1.43-1.15,5.95,5.95,0,0,1,4.39,0,3.27,3.27,0,0,1,1.44,1.15,3.11,3.11,0,0,1,0,3.35Zm-.66-2.92a2.6,2.6,0,0,0-1.15-.84,5.67,5.67,0,0,0-3.64,0,2.54,2.54,0,0,0-1.15.84,2.18,2.18,0,0,0,0,2.49A2.54,2.54,0,0,0,80,41a5.67,5.67,0,0,0,3.64,0,2.6,2.6,0,0,0,1.15-.84,2.18,2.18,0,0,0,0-2.49Z" fill="#003a50"/></g><line x1="67.52" y1="66.8" x2="179.69" y2="66.8" fill="none" stroke="#003a50" stroke-linecap="round" stroke-linejoin="round" stroke-width="0.4"/><line x1="179.69" y1="66.8" x2="171.48" y2="64.6" fill="none" stroke="#003a50" stroke-linecap="round" stroke-linejoin="round" stroke-width="0.4"/><line x1="171.48" y1="64.6" x2="171.48" y2="69" fill="none" stroke="#003a50" stroke-linecap="round" stroke-linejoin="round" stroke-width="0.4"/><line x1="171.48" y1="69" x2="179.69" y2="66.8" fill="none" stroke="#003a50" stroke-linecap="round" stroke-linejoin="round" stroke-width="0.4"/><polygon points="171.48 69 179.69 66.8 171.48 64.6 171.48 69" fill="#003a50"/><line x1="179.69" y1="40.56" x2="179.69" y2="68.44" fill="none" stroke="#003a50" stroke-linecap="round" stroke-linejoin="round" stroke-width="0.4"/><line x1="179.69" y1="66.8" x2="179.69" y2="40.56" fill="none" stroke="#003a50" stroke-linecap="round" stroke-linejoin="round" stroke-width="0.4"/><line x1="67.52" y1="66.8" x2="75.73" y2="69" fill="none" stroke="#003a50" stroke-linecap="round" stroke-linejoin="round" stroke-width="0.4"/><line x1="75.73" y1="69" x2="75.73" y2="64.6" fill="none" stroke="#003a50" stroke-linecap="round" stroke-linejoin="round" stroke-width="0.4"/><line x1="75.73" y1="64.6" x2="67.52" y2="66.8" fill="none" stroke="#003a50" stroke-linecap="round" stroke-linejoin="round" stroke-width="0.4"/><polygon points="67.52 66.8 75.73 69 75.73 64.6 67.52 66.8" fill="#003a50"/><line x1="67.52" y1="62.63" x2="67.52" y2="68.44" fill="none" stroke="#003a50" stroke-linecap="round" stroke-linejoin="round" stroke-width="0.4"/><line x1="67.52" y1="66.8" x2="67.52" y2="62.63" fill="none" stroke="#003a50" stroke-linecap="round" stroke-linejoin="round" stroke-width="0.4"/><g clip-path="url(#clip-path)"><path d="M115.15,61.52v.74h-5.7v-.59l3.38-3.3a4.41,4.41,0,0,0,.86-1.09,2.05,2.05,0,0,0,.23-.92,1.37,1.37,0,0,0-.5-1.12,2.18,2.18,0,0,0-1.4-.4,2.77,2.77,0,0,0-2.22.91l-.59-.51a3.14,3.14,0,0,1,1.21-.86,4.38,4.38,0,0,1,1.66-.3,3,3,0,0,1,2,.58,2,2,0,0,1,.72,1.61,2.77,2.77,0,0,1-.27,1.2,5.22,5.22,0,0,1-1.06,1.34l-2.76,2.71Z" fill="#003a50"/><path d="M117.71,61.83a3.22,3.22,0,0,1-1.14-1.43,5.95,5.95,0,0,1,0-4.39,3.22,3.22,0,0,1,1.14-1.43,3.06,3.06,0,0,1,3.35,0A3.33,3.33,0,0,1,122.22,56a6.08,6.08,0,0,1,0,4.39,3.33,3.33,0,0,1-1.16,1.43,3.06,3.06,0,0,1-3.35,0Zm2.92-.66a2.57,2.57,0,0,0,.85-1.15,4.88,4.88,0,0,0,.3-1.82,5,5,0,0,0-.3-1.82,2.6,2.6,0,0,0-.85-1.14,2,2,0,0,0-1.24-.4,2,2,0,0,0-1.25.4,2.51,2.51,0,0,0-.84,1.14,5,5,0,0,0-.3,1.82,4.88,4.88,0,0,0,.3,1.82,2.49,2.49,0,0,0,.84,1.15,2.09,2.09,0,0,0,1.25.4A2,2,0,0,0,120.63,61.17Z" fill="#003a50"/><path d="M128.53,58.11a2.1,2.1,0,0,1,.8,1.76,2.43,2.43,0,0,1-.33,1.27,2.23,2.23,0,0,1-1,.87,3.74,3.74,0,0,1-1.62.32,4.77,4.77,0,0,1-1.65-.28,3.53,3.53,0,0,1-1.26-.76l.41-.66a3,3,0,0,0,1.06.68,4,4,0,0,0,1.43.26,2.36,2.36,0,0,0,1.56-.46,1.49,1.49,0,0,0,.55-1.2,1.46,1.46,0,0,0-.62-1.27,3.89,3.89,0,0,0-2.09-.42h-1.73l.42-4.07h4.44v.74H125.2l-.28,2.58h1A4.11,4.11,0,0,1,128.53,58.11Z" fill="#003a50"/><path d="M132,61.83a3.24,3.24,0,0,1-1.15-1.43,6.08,6.08,0,0,1,0-4.39A3.24,3.24,0,0,1,132,54.58a3.06,3.06,0,0,1,3.35,0A3.31,3.31,0,0,1,136.45,56a5.95,5.95,0,0,1,0,4.39,3.31,3.31,0,0,1-1.15,1.43,3.06,3.06,0,0,1-3.35,0Zm2.92-.66a2.49,2.49,0,0,0,.84-1.15,4.88,4.88,0,0,0,.3-1.82,5,5,0,0,0-.3-1.82,2.51,2.51,0,0,0-.84-1.14,2,2,0,0,0-1.25-.4,2,2,0,0,0-1.24.4,2.51,2.51,0,0,0-.84,1.14,5,5,0,0,0-.3,1.82,4.88,4.88,0,0,0,.3,1.82,2.49,2.49,0,0,0,.84,1.15,2.06,2.06,0,0,0,1.24.4A2.09,2.09,0,0,0,134.87,61.17Z" fill="#003a50"/><line x1="145.34" y1="-21.27" x2="145.34" y2="0.62" fill="none" stroke="#003a50" stroke-linecap="round" stroke-linejoin="round" stroke-width="0.4"/><line x1="145.34" y1="0.62" x2="147.54" y2="-7.59" fill="none" stroke="#003a50" stroke-linecap="round" stroke-linejoin="round" stroke-width="0.4"/><line x1="143.14" y1="-7.59" x2="145.34" y2="0.62" fill="none" stroke="#003a50" stroke-linecap="round" stroke-linejoin="round" stroke-width="0.4"/></g><polygon points="145.17 0 145.34 0.62 145.5 0 145.17 0" fill="#003a50"/><line x1="149.5" y1="0.62" x2="143.69" y2="0.62" fill="none" stroke="#003a50" stroke-linecap="round" stroke-linejoin="round" stroke-width="0.4"/><line x1="145.34" y1="0.62" x2="149.5" y2="0.62" fill="none" stroke="#003a50" stroke-linecap="round" stroke-linejoin="round" stroke-width="0.4"/><g clip-path="url(#clip-path)"><line x1="314.79" y1="0.62" x2="314.79" y2="-97.87" fill="none" stroke="#003a50" stroke-linecap="round" stroke-linejoin="round" stroke-width="0.4"/><line x1="314.79" y1="0.62" x2="316.99" y2="-7.59" fill="none" stroke="#003a50" stroke-linecap="round" stroke-linejoin="round" stroke-width="0.4"/><line x1="312.59" y1="-7.59" x2="314.79" y2="0.62" fill="none" stroke="#003a50" stroke-linecap="round" stroke-linejoin="round" stroke-width="0.4"/></g><polygon points="314.62 0 314.79 0.62 314.95 0 314.62 0" fill="#003a50"/><line x1="310.62" y1="0.62" x2="316.43" y2="0.62" fill="none" stroke="#003a50" stroke-linecap="round" stroke-linejoin="round" stroke-width="0.4"/><line x1="314.79" y1="0.62" x2="310.62" y2="0.62" fill="none" stroke="#003a50" stroke-linecap="round" stroke-linejoin="round" stroke-width="0.4"/></svg>