<svg id="Слой_1" data-name="Слой 1" xmlns="http://www.w3.org/2000/svg" xmlns:xlink="http://www.w3.org/1999/xlink" viewBox="0 0 612.28 212.6"><defs><clipPath id="clip-path"><polygon points="0 0.5 0 176.6 86.1 176.6 86.1 212.1 568.97 212.1 568.97 180.34 612.18 180.34 612.18 92.41 578.84 92.41 578.84 0.5 0 0.5" fill="none"/></clipPath></defs><g clip-path="url(#clip-path)"><path d="M360.33-202.4h164.1M360.33-145H529.9M327.51-87.52H529.9M327.51-30.08H529.9M328.49,1.22V-94.51M385.93,1.22V-217.61M443.36,1.22V-217.61M500.8,1.22V-217.61" fill="none" stroke="#809da8" stroke-linecap="round" stroke-linejoin="round" stroke-width="0.2"/><path d="M177.07-82.41l12.1-12.1M177.07-65l29.51-29.5M177.07-47.6,224-94.51M177.07-30.2l64.32-64.31M177.07-12.79,258.8-94.51M180.48,1.22l98.46-98.47M197.88,1.22l98.47-98.47M215.29,1.22l98.46-98.47M232.69,1.22,322-88.12M250.1,1.22,322-70.72M267.51,1.22,322-53.31M284.91,1.22,322-35.91M302.32,1.22,322-18.5M319.72,1.22,322-1.1M191.62,1.22,177.07-13.33M209,1.22l-32-32m49.36,32L177.07-48.14M243.84,1.22,177.07-65.55M261.25,1.22,177.07-83M278.65,1.22,182.93-94.51M296.06,1.22,200.33-94.51M313.46,1.22,217.74-94.51M322-7.62,235.14-94.51M322-25,252.55-94.51M322-42.43,270-94.51M322-59.84l-37.4-37.41m37.4,20-20-20" fill="none" stroke="#809da8" stroke-linecap="round" stroke-linejoin="round" stroke-width="0.2"/></g><path d="M223.57,27.35H524.43M223.57,84.79H529.9M341.18,142.22H529.9m-258.85-10V17.63m57.44,114.56V17.63m57.44,180.2V17.63m57.43,180.2V17.63m57.44,180.2V17.63" fill="none" stroke="#809da8" stroke-linecap="round" stroke-linejoin="round" stroke-width="0.2"/><path d="M103.23,26.25l8.62-8.62m-8.62,26,26-26m-26,43.43,43.43-43.43M103.23,78.46l60.84-60.83M103.52,95.57l78-77.94M120.93,95.57l77.95-77.94M135.6,98.31l80.69-80.68M153,98.31l65.09-65.1M173.15,95.57,218.1,50.62M190.55,95.57,218.1,68M208,95.57,218.1,85.43M111.93,95.57l-8.7-8.69m28.84,11.43L103.23,69.47m46.24,28.84L103.23,52.07m62.9,45.5-62.9-62.91m78.32,60.91-78-77.94M199,95.57,121,17.63m95.35,77.94-78-77.94M218.1,79.91,155.81,17.63M218.1,62.51,173.22,17.63M218.1,45.1,190.63,17.63M218.1,27.69,208,17.63" fill="none" stroke="#809da8" stroke-linecap="round" stroke-linejoin="round" stroke-width="0.2"/><g clip-path="url(#clip-path)"><path d="M67.67-202.4h71.12M66.31-145h72.48M67.67-87.52H171.61M67.67-30.08H171.61M98.74,1.22v-224.3M156.18,1.22V-94.51" fill="none" stroke="#809da8" stroke-linecap="round" stroke-linejoin="round" stroke-width="0.2"/><path d="M59.47,142.22H218.1M98.74,197.83V101.05m57.44,96.78V98.31m57.43,66.6V101.05" fill="none" stroke="#809da8" stroke-linecap="round" stroke-linejoin="round" stroke-width="0.2"/></g><path d="M218.1,137.65l5.46-5.46m-5.46,22.86L241,132.19M223.57,167l34.8-34.8m-34.8,52.21,52.21-52.21m-48.24,65.64,65.64-65.64M245,197.83l65.64-65.64m-48.23,65.64L328,132.19m-48.24,65.64,61.42-61.42m-44,61.42,44-44m-26.61,44,26.61-26.61M332,197.83l9.2-9.2m-109.6,9.2-8-8m25.42,8-25.42-25.42m42.83,25.42-48.3-48.3m65.7,48.3-65.64-65.64m83,65.64-65.64-65.64m83.05,65.64L253,132.19m83,65.64-65.64-65.64m70.8,53.39-53.4-53.39m53.4,36-36-36m36,18.58L322.6,132.19m18.58,1.18L340,132.19" fill="none" stroke="#809da8" stroke-linecap="round" stroke-linejoin="round" stroke-width="0.2"/><line x1="218.1" y1="101.05" x2="218.1" y2="164.91" fill="none" stroke="#809da8" stroke-linecap="round" stroke-linejoin="round" stroke-width="0.4" stroke-dasharray="0.04 0.08"/><line x1="341.18" y1="197.83" x2="341.18" y2="132.19" fill="none" stroke="#809da8" stroke-linecap="round" stroke-linejoin="round" stroke-width="0.4" stroke-dasharray="0.04 0.08"/><line x1="341.18" y1="132.19" x2="218.1" y2="132.19" fill="none" stroke="#809da8" stroke-linecap="round" stroke-linejoin="round" stroke-width="0.4" stroke-dasharray="0.04 0.08"/><g clip-path="url(#clip-path)"><rect x="-561.43" y="-445.86" width="1115.44" height="2194.74" fill="none" stroke="#003a50" stroke-miterlimit="10"/><polygon points="-536.78 639.9 -536.78 1725.45 530.66 1725.45 530.66 -421.4 -536.78 -421.56 -536.78 571.13 -536.78 639.9" fill="none" stroke="#003a50" stroke-miterlimit="10"/></g><rect x="540.78" y="92.92" width="4.56" height="86.7" fill="#fff"/><rect x="540.78" y="92.92" width="4.56" height="86.7" fill="none" stroke="#003a50" stroke-miterlimit="10"/><line x1="543.06" y1="179.62" x2="543.06" y2="92.92" fill="none" stroke="#003a50" stroke-miterlimit="10"/><rect x="540.78" y="175.24" width="4.56" height="4.38" fill="#fff"/><rect x="540.78" y="175.24" width="4.56" height="4.38" fill="none" stroke="#003a50" stroke-miterlimit="10"/><rect x="540.78" y="92.92" width="4.56" height="4.38" fill="#fff"/><rect x="540.78" y="92.92" width="4.56" height="4.38" fill="none" stroke="#003a50" stroke-miterlimit="10"/><rect x="540.78" y="134.08" width="4.56" height="4.38" fill="#fff"/><rect x="540.78" y="134.08" width="4.56" height="4.38" fill="none" stroke="#003a50" stroke-miterlimit="10"/><polygon points="382.21 1.21 382.21 17.63 384.51 17.63 418.56 17.63 524.43 17.63 524.43 1.21 382.21 1.21" fill="#003a50"/><rect x="97.76" y="198.14" width="432.14" height="13.96" fill="#003a50"/><path d="M67.67,95.57v5.48h54.7V95.57Zm98.47,5.48h57.43V95.57H166.14Z" fill="#003a50"/><rect x="218.1" y="17.63" width="5.47" height="77.95" fill="#003a50"/><polygon points="67.67 60.02 67.67 65.49 71.97 65.49 79.06 65.49 97.76 65.49 97.76 60.02 67.67 60.02" fill="#003a50"/><polygon points="97.76 17.63 97.76 65.49 97.76 95.58 103.23 95.58 103.23 17.63 97.76 17.63" fill="#003a50"/><rect x="171.6" y="0.5" width="5.47" height="0.72" fill="#003a50"/><rect x="322.03" y="0.5" width="5.47" height="0.72" fill="#003a50"/><path d="M51.26,160.38V176H67.67V160.38Zm0-54.7H67.67V.5H51.26Z" fill="#003a50"/><rect x="67.67" y="165.01" width="30.09" height="10.94" fill="#003a50"/><rect x="51.26" y="175.95" width="5.47" height="0.65" fill="#003a50"/><path d="M86.82,212.1H97.76v-.59H86.82Zm0-36.15v21.88H97.76V176Z" fill="#003a50"/><polygon points="300.15 1.21 300.15 17.63 336.37 17.63 382.21 17.63 382.21 1.21 300.15 1.21" fill="#003a50"/><polygon points="67.67 1.21 67.67 17.63 79.06 17.63 97.76 17.63 300.15 17.63 300.15 1.21 67.67 1.21" fill="#003a50"/><path d="M529.9,212.1h10.94v-.59H529.9Zm0-32v17.71h10.94V180.12Zm0-87.52h10.94V78.93H529.9Z" fill="#003a50"/><path d="M540.84,212.1h9.85V182.86h-9.85Zm0-119.5h9.85V.5h-9.85Z" fill="#003a50"/><polygon points="86.82 197.83 86.82 200.39 86.82 211.5 97.76 211.5 97.76 198.14 529.9 198.14 529.9 211.5 540.84 211.5 540.84 197.83 86.82 197.83" fill="#003a50"/><rect x="524.43" y="0.5" width="16.41" height="78.43" fill="#003a50"/><rect x="540.84" y="180.12" width="9.84" height="2.74" fill="#003a50"/><polygon points="196.22 164.91 196.22 181.42 196.22 197.83 201.69 197.83 201.69 164.91 196.22 164.91" fill="#003a50"/><polygon points="218.1 164.91 218.1 197.83 223.51 197.83 223.57 197.83 223.57 164.91 218.1 164.91" fill="#003a50"/><polygon points="201.69 164.91 201.69 170.38 204.03 170.38 218.1 170.38 218.1 164.91 201.69 164.91" fill="#003a50"/><g clip-path="url(#clip-path)"><line x1="524.43" y1="1.22" x2="327.51" y2="1.22" fill="none" stroke="#003a50" stroke-linecap="round" stroke-linejoin="round" stroke-width="1.6"/><line x1="382.21" y1="1.22" x2="382.21" y2="17.63" fill="none" stroke="#003a50" stroke-linecap="round" stroke-linejoin="round" stroke-width="1.6"/></g><line x1="223.57" y1="17.63" x2="524.43" y2="17.63" fill="none" stroke="#003a50" stroke-linecap="round" stroke-linejoin="round" stroke-width="1.6"/><g clip-path="url(#clip-path)"><line x1="524.43" y1="17.63" x2="524.43" y2="1.21" fill="none" stroke="#003a50" stroke-linecap="round" stroke-linejoin="round" stroke-width="1.6"/></g><line x1="529.9" y1="198.14" x2="97.76" y2="198.14" fill="none" stroke="#003a50" stroke-linecap="round" stroke-linejoin="round" stroke-width="1.6"/><line x1="67.67" y1="101.05" x2="122.37" y2="101.05" fill="none" stroke="#003a50" stroke-linecap="round" stroke-linejoin="round" stroke-width="1.6"/><line x1="122.37" y1="101.05" x2="122.37" y2="95.57" fill="none" stroke="#003a50" stroke-linecap="round" stroke-linejoin="round" stroke-width="1.6"/><line x1="122.37" y1="95.58" x2="103.23" y2="95.58" fill="none" stroke="#003a50" stroke-linecap="round" stroke-linejoin="round" stroke-width="1.6"/><line x1="97.76" y1="95.58" x2="86.82" y2="95.58" fill="none" stroke="#003a50" stroke-linecap="round" stroke-linejoin="round" stroke-width="1.6"/><line x1="166.14" y1="101.05" x2="223.57" y2="101.05" fill="none" stroke="#003a50" stroke-linecap="round" stroke-linejoin="round" stroke-width="1.6"/><line x1="218.1" y1="95.58" x2="166.13" y2="95.58" fill="none" stroke="#003a50" stroke-linecap="round" stroke-linejoin="round" stroke-width="1.6"/><line x1="166.14" y1="95.58" x2="166.14" y2="101.05" fill="none" stroke="#003a50" stroke-linecap="round" stroke-linejoin="round" stroke-width="1.6"/><line x1="223.57" y1="101.05" x2="223.57" y2="17.63" fill="none" stroke="#003a50" stroke-linecap="round" stroke-linejoin="round" stroke-width="1.6"/><line x1="218.1" y1="17.63" x2="218.1" y2="95.57" fill="none" stroke="#003a50" stroke-linecap="round" stroke-linejoin="round" stroke-width="1.6"/><line x1="67.67" y1="65.49" x2="97.76" y2="65.49" fill="none" stroke="#003a50" stroke-linecap="round" stroke-linejoin="round" stroke-width="1.6"/><line x1="97.76" y1="65.49" x2="97.76" y2="95.57" fill="none" stroke="#003a50" stroke-linecap="round" stroke-linejoin="round" stroke-width="1.6"/><line x1="103.23" y1="95.58" x2="103.23" y2="17.63" fill="none" stroke="#003a50" stroke-linecap="round" stroke-linejoin="round" stroke-width="1.6"/><g clip-path="url(#clip-path)"><line x1="171.61" y1="-94.51" x2="171.61" y2="1.22" fill="none" stroke="#003a50" stroke-linecap="round" stroke-linejoin="round" stroke-width="1.6"/><line x1="177.08" y1="1.22" x2="177.08" y2="-94.51" fill="none" stroke="#003a50" stroke-linecap="round" stroke-linejoin="round" stroke-width="1.6"/><line x1="322.03" y1="-94.51" x2="322.03" y2="1.22" fill="none" stroke="#003a50" stroke-linecap="round" stroke-linejoin="round" stroke-width="1.6"/><line x1="327.5" y1="1.22" x2="327.5" y2="-94.51" fill="none" stroke="#003a50" stroke-linecap="round" stroke-linejoin="round" stroke-width="1.6"/><line x1="51.26" y1="-31.61" x2="51.26" y2="105.68" fill="none" stroke="#003a50" stroke-linecap="round" stroke-linejoin="round" stroke-width="1.6"/></g><line x1="51.26" y1="105.68" x2="67.67" y2="105.68" fill="none" stroke="#003a50" stroke-linecap="round" stroke-linejoin="round" stroke-width="1.6"/><line x1="67.67" y1="105.68" x2="67.67" y2="101.04" fill="none" stroke="#003a50" stroke-linecap="round" stroke-linejoin="round" stroke-width="1.6"/><g clip-path="url(#clip-path)"><line x1="67.67" y1="1.22" x2="67.67" y2="-31.6" fill="none" stroke="#003a50" stroke-linecap="round" stroke-linejoin="round" stroke-width="1.6"/></g><line x1="67.67" y1="165.01" x2="67.67" y2="160.38" fill="none" stroke="#003a50" stroke-linecap="round" stroke-linejoin="round" stroke-width="1.6"/><line x1="67.67" y1="160.38" x2="51.26" y2="160.38" fill="none" stroke="#003a50" stroke-linecap="round" stroke-linejoin="round" stroke-width="1.6"/><line x1="97.76" y1="165.01" x2="67.67" y2="165.01" fill="none" stroke="#003a50" stroke-linecap="round" stroke-linejoin="round" stroke-width="1.6"/><g clip-path="url(#clip-path)"><line x1="56.73" y1="175.95" x2="86.82" y2="175.95" fill="none" stroke="#003a50" stroke-linecap="round" stroke-linejoin="round" stroke-width="1.6"/><line x1="51.26" y1="160.38" x2="51.26" y2="253.29" fill="none" stroke="#003a50" stroke-linecap="round" stroke-linejoin="round" stroke-width="1.6"/><line x1="56.73" y1="233.7" x2="56.73" y2="175.95" fill="none" stroke="#003a50" stroke-linecap="round" stroke-linejoin="round" stroke-width="1.6"/></g><line x1="97.76" y1="198.14" x2="97.76" y2="165.01" fill="none" stroke="#003a50" stroke-linecap="round" stroke-linejoin="round" stroke-width="1.6"/><g clip-path="url(#clip-path)"><line x1="86.82" y1="175.95" x2="86.82" y2="233.7" fill="none" stroke="#003a50" stroke-linecap="round" stroke-linejoin="round" stroke-width="1.6"/><line x1="300.15" y1="1.22" x2="300.15" y2="17.63" fill="none" stroke="#003a50" stroke-linecap="round" stroke-linejoin="round" stroke-width="1.6"/><line x1="322.03" y1="1.22" x2="177.07" y2="1.22" fill="none" stroke="#003a50" stroke-linecap="round" stroke-linejoin="round" stroke-width="1.6"/><line x1="171.61" y1="1.22" x2="67.67" y2="1.22" fill="none" stroke="#003a50" stroke-linecap="round" stroke-linejoin="round" stroke-width="1.6"/></g><line x1="103.23" y1="17.63" x2="218.1" y2="17.63" fill="none" stroke="#003a50" stroke-linecap="round" stroke-linejoin="round" stroke-width="1.6"/><line x1="540.84" y1="197.83" x2="218.1" y2="197.83" fill="none" stroke="#003a50" stroke-linecap="round" stroke-linejoin="round" stroke-width="1.6"/><g clip-path="url(#clip-path)"><line x1="201.69" y1="197.83" x2="86.82" y2="197.83" fill="none" stroke="#003a50" stroke-linecap="round" stroke-linejoin="round" stroke-width="1.6"/><line x1="86.82" y1="211.51" x2="540.84" y2="211.51" fill="none" stroke="#003a50" stroke-linecap="round" stroke-linejoin="round" stroke-width="1.6"/><line x1="540.84" y1="211.51" x2="540.84" y2="197.83" fill="none" stroke="#003a50" stroke-linecap="round" stroke-linejoin="round" stroke-width="1.6"/><line x1="540.84" y1="78.93" x2="540.84" y2="-3.13" fill="none" stroke="#003a50" stroke-linecap="round" stroke-linejoin="round" stroke-width="1.6"/><line x1="524.43" y1="-3.13" x2="524.43" y2="78.93" fill="none" stroke="#003a50" stroke-linecap="round" stroke-linejoin="round" stroke-width="1.6"/></g><line x1="524.43" y1="78.93" x2="540.84" y2="78.93" fill="none" stroke="#003a50" stroke-linecap="round" stroke-linejoin="round" stroke-width="1.6"/><line x1="201.69" y1="198.14" x2="201.69" y2="197.83" fill="none" stroke="#003a50" stroke-linecap="round" stroke-linejoin="round" stroke-width="1.6"/><line x1="201.69" y1="181.42" x2="201.69" y2="170.38" fill="none" stroke="#003a50" stroke-linecap="round" stroke-linejoin="round" stroke-width="1.6"/><line x1="196.22" y1="164.91" x2="196.22" y2="198.14" fill="none" stroke="#003a50" stroke-linecap="round" stroke-linejoin="round" stroke-width="1.6"/><line x1="223.57" y1="198.14" x2="223.57" y2="164.91" fill="none" stroke="#003a50" stroke-linecap="round" stroke-linejoin="round" stroke-width="1.6"/><line x1="218.1" y1="170.38" x2="218.1" y2="198.14" fill="none" stroke="#003a50" stroke-linecap="round" stroke-linejoin="round" stroke-width="1.6"/><line x1="223.57" y1="164.91" x2="196.22" y2="164.91" fill="none" stroke="#003a50" stroke-linecap="round" stroke-linejoin="round" stroke-width="1.6"/><line x1="201.69" y1="170.38" x2="218.1" y2="170.38" fill="none" stroke="#003a50" stroke-linecap="round" stroke-linejoin="round" stroke-width="1.6"/><rect x="550.69" y="180.13" width="15.32" height="31.98" fill="#003a50"/><line x1="166.14" y1="101.05" x2="165.04" y2="101.05" fill="none" stroke="#003a50" stroke-linecap="round" stroke-linejoin="round" stroke-width="1.6"/><line x1="165.04" y1="97.22" x2="166.14" y2="97.22" fill="none" stroke="#003a50" stroke-linecap="round" stroke-linejoin="round" stroke-width="1.6"/><line x1="123.47" y1="101.05" x2="122.37" y2="101.05" fill="none" stroke="#003a50" stroke-linecap="round" stroke-linejoin="round" stroke-width="1.6"/><line x1="122.37" y1="97.22" x2="123.47" y2="97.22" fill="none" stroke="#003a50" stroke-linecap="round" stroke-linejoin="round" stroke-width="1.6"/><line x1="165.04" y1="97.22" x2="165.04" y2="101.04" fill="none" stroke="#003a50" stroke-linecap="round" stroke-linejoin="round" stroke-width="1.6"/><line x1="163.4" y1="97.22" x2="165.04" y2="97.22" fill="none" stroke="#003a50" stroke-linecap="round" stroke-linejoin="round" stroke-width="1.6"/><line x1="163.4" y1="101.05" x2="163.4" y2="97.22" fill="none" stroke="#003a50" stroke-linecap="round" stroke-linejoin="round" stroke-width="1.6"/><line x1="165.04" y1="101.05" x2="163.4" y2="101.05" fill="none" stroke="#003a50" stroke-linecap="round" stroke-linejoin="round" stroke-width="1.6"/><line x1="125.11" y1="101.05" x2="123.47" y2="101.05" fill="none" stroke="#003a50" stroke-linecap="round" stroke-linejoin="round" stroke-width="1.6"/><line x1="125.11" y1="97.22" x2="125.11" y2="101.04" fill="none" stroke="#003a50" stroke-linecap="round" stroke-linejoin="round" stroke-width="1.6"/><line x1="123.47" y1="97.22" x2="125.11" y2="97.22" fill="none" stroke="#003a50" stroke-linecap="round" stroke-linejoin="round" stroke-width="1.6"/><line x1="123.47" y1="101.05" x2="123.47" y2="97.22" fill="none" stroke="#003a50" stroke-linecap="round" stroke-linejoin="round" stroke-width="1.6"/><g clip-path="url(#clip-path)"><path d="M125.11,139.34A38.29,38.29,0,0,0,163.4,101" fill="none" stroke="#003a50" stroke-linecap="round" stroke-linejoin="round" stroke-width="1.6"/></g><line x1="125.11" y1="101.05" x2="125.11" y2="139.34" fill="none" stroke="#003a50" stroke-linecap="round" stroke-linejoin="round" stroke-width="1.6"/><line x1="51.26" y1="106.77" x2="51.26" y2="105.68" fill="none" stroke="#003a50" stroke-linecap="round" stroke-linejoin="round" stroke-width="1.6"/><line x1="55.09" y1="105.68" x2="55.09" y2="106.77" fill="none" stroke="#003a50" stroke-linecap="round" stroke-linejoin="round" stroke-width="1.6"/><line x1="51.26" y1="160.38" x2="51.26" y2="159.29" fill="none" stroke="#003a50" stroke-linecap="round" stroke-linejoin="round" stroke-width="1.6"/><line x1="55.09" y1="159.28" x2="55.09" y2="160.38" fill="none" stroke="#003a50" stroke-linecap="round" stroke-linejoin="round" stroke-width="1.6"/><line x1="51.26" y1="108.41" x2="51.26" y2="106.77" fill="none" stroke="#003a50" stroke-linecap="round" stroke-linejoin="round" stroke-width="1.6"/><line x1="55.09" y1="108.41" x2="51.26" y2="108.41" fill="none" stroke="#003a50" stroke-linecap="round" stroke-linejoin="round" stroke-width="1.6"/><line x1="55.09" y1="106.77" x2="55.09" y2="108.41" fill="none" stroke="#003a50" stroke-linecap="round" stroke-linejoin="round" stroke-width="1.6"/><line x1="51.26" y1="106.77" x2="55.09" y2="106.77" fill="none" stroke="#003a50" stroke-linecap="round" stroke-linejoin="round" stroke-width="1.6"/><line x1="55.09" y1="159.28" x2="51.26" y2="159.28" fill="none" stroke="#003a50" stroke-linecap="round" stroke-linejoin="round" stroke-width="1.6"/><line x1="55.09" y1="157.64" x2="55.09" y2="159.28" fill="none" stroke="#003a50" stroke-linecap="round" stroke-linejoin="round" stroke-width="1.6"/><line x1="51.26" y1="157.64" x2="55.09" y2="157.64" fill="none" stroke="#003a50" stroke-linecap="round" stroke-linejoin="round" stroke-width="1.6"/><line x1="51.26" y1="159.28" x2="51.26" y2="157.64" fill="none" stroke="#003a50" stroke-linecap="round" stroke-linejoin="round" stroke-width="1.6"/><g clip-path="url(#clip-path)"><path d="M2,108.41a49.23,49.23,0,0,0,49.23,49.23" fill="none" stroke="#003a50" stroke-linecap="round" stroke-linejoin="round" stroke-width="1.6"/><line x1="51.26" y1="108.41" x2="2.03" y2="108.41" fill="none" stroke="#003a50" stroke-linecap="round" stroke-linejoin="round" stroke-width="1.6"/></g><polygon points="550.68 0.5 550.68 92.6 578.04 92.6 567.51 0.5 550.68 0.5" fill="#003a50"/><g clip-path="url(#clip-path)"><line x1="607.65" y1="275.57" x2="607.65" y2="179.82" fill="none" stroke="#003a50" stroke-linecap="round" stroke-linejoin="round" stroke-width="0.4"/><line x1="607.65" y1="179.82" x2="609.85" y2="171.61" fill="none" stroke="#003a50" stroke-linecap="round" stroke-linejoin="round" stroke-width="0.4"/></g><line x1="609.85" y1="171.61" x2="605.45" y2="171.61" fill="none" stroke="#003a50" stroke-linecap="round" stroke-linejoin="round" stroke-width="0.4"/><g clip-path="url(#clip-path)"><line x1="605.45" y1="171.61" x2="607.65" y2="179.82" fill="none" stroke="#003a50" stroke-linecap="round" stroke-linejoin="round" stroke-width="0.4"/></g><polygon points="605.45 171.61 607.65 179.82 609.85 171.61 605.45 171.61" fill="#003a50"/><g clip-path="url(#clip-path)"><line x1="607.65" y1="179.82" x2="605.45" y2="188.02" fill="none" stroke="#003a50" stroke-linecap="round" stroke-linejoin="round" stroke-width="0.4"/><line x1="609.85" y1="188.02" x2="607.65" y2="179.82" fill="none" stroke="#003a50" stroke-linecap="round" stroke-linejoin="round" stroke-width="0.4"/></g><polygon points="607.51 180.34 607.79 180.34 607.65 179.82 607.51 180.34" fill="#003a50"/><g clip-path="url(#clip-path)"><line x1="574.2" y1="179.82" x2="609.29" y2="179.82" fill="none" stroke="#003a50" stroke-linecap="round" stroke-linejoin="round" stroke-width="0.4"/><line x1="607.65" y1="179.82" x2="574.2" y2="179.82" fill="none" stroke="#003a50" stroke-linecap="round" stroke-linejoin="round" stroke-width="0.4"/><line x1="607.65" y1="179.82" x2="607.65" y2="92.27" fill="none" stroke="#003a50" stroke-linecap="round" stroke-linejoin="round" stroke-width="0.4"/><line x1="607.65" y1="92.27" x2="609.85" y2="84.06" fill="none" stroke="#003a50" stroke-linecap="round" stroke-linejoin="round" stroke-width="0.4"/><line x1="605.45" y1="84.06" x2="607.65" y2="92.27" fill="none" stroke="#003a50" stroke-linecap="round" stroke-linejoin="round" stroke-width="0.4"/><polygon points="607.65 92.27 609.85 84.06 605.45 84.06 607.65 92.27" fill="#003a50" fill-rule="evenodd"/><line x1="607.65" y1="92.27" x2="605.45" y2="100.48" fill="none" stroke="#003a50" stroke-linecap="round" stroke-linejoin="round" stroke-width="0.4"/></g><line x1="605.45" y1="100.48" x2="609.85" y2="100.48" fill="none" stroke="#003a50" stroke-linecap="round" stroke-linejoin="round" stroke-width="0.4"/><g clip-path="url(#clip-path)"><line x1="609.85" y1="100.48" x2="607.65" y2="92.27" fill="none" stroke="#003a50" stroke-linecap="round" stroke-linejoin="round" stroke-width="0.4"/></g><polygon points="607.62 92.41 605.45 100.48 609.85 100.48 607.69 92.41 607.62 92.41" fill="#003a50"/><g clip-path="url(#clip-path)"><line x1="574.2" y1="92.27" x2="609.29" y2="92.27" fill="none" stroke="#003a50" stroke-linecap="round" stroke-linejoin="round" stroke-width="0.4"/><line x1="607.65" y1="92.27" x2="574.2" y2="92.27" fill="none" stroke="#003a50" stroke-linecap="round" stroke-linejoin="round" stroke-width="0.4"/><line x1="607.65" y1="179.82" x2="609.85" y2="171.61" fill="none" stroke="#003a50" stroke-linecap="round" stroke-linejoin="round" stroke-width="0.4"/></g><line x1="609.85" y1="171.61" x2="605.45" y2="171.61" fill="none" stroke="#003a50" stroke-linecap="round" stroke-linejoin="round" stroke-width="0.4"/><g clip-path="url(#clip-path)"><line x1="605.45" y1="171.61" x2="607.65" y2="179.82" fill="none" stroke="#003a50" stroke-linecap="round" stroke-linejoin="round" stroke-width="0.4"/></g><polygon points="605.45 171.61 607.65 179.82 609.85 171.61 605.45 171.61" fill="#003a50"/><g clip-path="url(#clip-path)"><line x1="607.65" y1="179.82" x2="605.45" y2="188.02" fill="none" stroke="#003a50" stroke-linecap="round" stroke-linejoin="round" stroke-width="0.4"/><line x1="609.85" y1="188.02" x2="607.65" y2="179.82" fill="none" stroke="#003a50" stroke-linecap="round" stroke-linejoin="round" stroke-width="0.4"/></g><polygon points="607.51 180.34 607.79 180.34 607.65 179.82 607.51 180.34" fill="#003a50"/><g clip-path="url(#clip-path)"><line x1="574.2" y1="179.82" x2="609.29" y2="179.82" fill="none" stroke="#003a50" stroke-linecap="round" stroke-linejoin="round" stroke-width="0.4"/><line x1="607.65" y1="179.82" x2="574.2" y2="179.82" fill="none" stroke="#003a50" stroke-linecap="round" stroke-linejoin="round" stroke-width="0.4"/><path d="M595,146.64h8.11v.84h-7.37v1.91H595Z" fill="#003a50"/><path d="M598.56,139.93a2.24,2.24,0,0,1,.85-1,2.36,2.36,0,0,1,1.28-.35A2.38,2.38,0,0,1,602,139a2.42,2.42,0,0,1,.88,1,3.28,3.28,0,0,1,.3,1.42,3,3,0,0,1-1.06,2.47,4.63,4.63,0,0,1-3,.86,5.15,5.15,0,0,1-2.3-.47,3.3,3.3,0,0,1-1.42-1.29,3.86,3.86,0,0,1-.48-1.95,3.7,3.7,0,0,1,.44-1.93l.67.34a2.88,2.88,0,0,0-.38,1.58,2.69,2.69,0,0,0,.85,2.11,3.61,3.61,0,0,0,2.48.76l.66,0a2.19,2.19,0,0,1-1-1,3.09,3.09,0,0,1-.36-1.51A3.19,3.19,0,0,1,598.56,139.93Zm3.44,0a1.66,1.66,0,0,0-1.29-.55,1.62,1.62,0,0,0-1.27.55,2.21,2.21,0,0,0-.48,1.49,2.39,2.39,0,0,0,.24,1.09,1.73,1.73,0,0,0,.63.73,1.62,1.62,0,0,0,.91.27,1.57,1.57,0,0,0,.86-.25,1.81,1.81,0,0,0,.63-.73,2.51,2.51,0,0,0,.25-1.16A2.12,2.12,0,0,0,602,140Z" fill="#003a50"/><path d="M602.69,136.09a3.34,3.34,0,0,1-1.44,1.15,6.08,6.08,0,0,1-4.39,0,3.31,3.31,0,0,1-1.43-1.15,3.06,3.06,0,0,1,0-3.35,3.24,3.24,0,0,1,1.43-1.15,5.95,5.95,0,0,1,4.39,0,3.27,3.27,0,0,1,1.44,1.15,3.11,3.11,0,0,1,0,3.35Zm-.67-2.92a2.51,2.51,0,0,0-1.14-.84,5.67,5.67,0,0,0-3.64,0,2.49,2.49,0,0,0-1.15.84,2.18,2.18,0,0,0,0,2.49,2.49,2.49,0,0,0,1.15.84,5.67,5.67,0,0,0,3.64,0,2.51,2.51,0,0,0,1.14-.84,2.14,2.14,0,0,0,0-2.49Z" fill="#003a50"/><path d="M602.69,128.41a3.2,3.2,0,0,1-1.44,1.15,6.08,6.08,0,0,1-4.39,0,3.17,3.17,0,0,1-1.43-1.15,2.91,2.91,0,0,1-.5-1.67,3,3,0,0,1,.5-1.68,3.31,3.31,0,0,1,1.43-1.15,5.95,5.95,0,0,1,4.39,0,3.34,3.34,0,0,1,1.44,1.15,3,3,0,0,1,.49,1.68A2.9,2.9,0,0,1,602.69,128.41Zm-.67-2.92a2.51,2.51,0,0,0-1.14-.84,5.67,5.67,0,0,0-3.64,0,2.49,2.49,0,0,0-1.15.84,2.2,2.2,0,0,0,0,2.5,2.49,2.49,0,0,0,1.15.84,5.67,5.67,0,0,0,3.64,0A2.51,2.51,0,0,0,602,128a2.15,2.15,0,0,0,0-2.5Z" fill="#003a50"/><line x1="607.65" y1="92.27" x2="607.65" y2="-3.49" fill="none" stroke="#003a50" stroke-linecap="round" stroke-linejoin="round" stroke-width="0.4"/><line x1="607.65" y1="92.27" x2="609.85" y2="84.06" fill="none" stroke="#003a50" stroke-linecap="round" stroke-linejoin="round" stroke-width="0.4"/><line x1="605.45" y1="84.06" x2="607.65" y2="92.27" fill="none" stroke="#003a50" stroke-linecap="round" stroke-linejoin="round" stroke-width="0.4"/><polygon points="607.65 92.27 609.85 84.06 605.45 84.06 607.65 92.27" fill="#003a50" fill-rule="evenodd"/><line x1="607.65" y1="92.27" x2="605.45" y2="100.48" fill="none" stroke="#003a50" stroke-linecap="round" stroke-linejoin="round" stroke-width="0.4"/></g><line x1="605.45" y1="100.48" x2="609.85" y2="100.48" fill="none" stroke="#003a50" stroke-linecap="round" stroke-linejoin="round" stroke-width="0.4"/><g clip-path="url(#clip-path)"><line x1="609.85" y1="100.48" x2="607.65" y2="92.27" fill="none" stroke="#003a50" stroke-linecap="round" stroke-linejoin="round" stroke-width="0.4"/></g><polygon points="607.62 92.41 605.45 100.48 609.85 100.48 607.69 92.41 607.62 92.41" fill="#003a50"/><g clip-path="url(#clip-path)"><line x1="574.2" y1="92.27" x2="609.29" y2="92.27" fill="none" stroke="#003a50" stroke-linecap="round" stroke-linejoin="round" stroke-width="0.4"/><line x1="607.65" y1="92.27" x2="574.2" y2="92.27" fill="none" stroke="#003a50" stroke-linecap="round" stroke-linejoin="round" stroke-width="0.4"/><path d="M595,54.34h8.11v.83h-7.37v1.92H595Z" fill="#003a50"/><path d="M595,46.68h.59l7.52,3.39V51l-7.37-3.34v4.17h1.52v.83H595Z" fill="#003a50"/><path d="M599,41.1a2.11,2.11,0,0,1,1.77-.81,2.42,2.42,0,0,1,1.26.33,2.31,2.31,0,0,1,.88,1,3.75,3.75,0,0,1,.31,1.62,4.86,4.86,0,0,1-.28,1.66,3.27,3.27,0,0,1-.76,1.25l-.66-.4a3.08,3.08,0,0,0,.68-1.07,3.9,3.9,0,0,0,.26-1.42,2.38,2.38,0,0,0-.45-1.56,1.48,1.48,0,0,0-1.21-.55,1.42,1.42,0,0,0-1.26.62,3.77,3.77,0,0,0-.43,2.09v1.73L595,45.16V40.72h.74v3.71l2.59.28V43.66A4.15,4.15,0,0,1,599,41.1Z" fill="#003a50"/><path d="M602.69,37.68a3.25,3.25,0,0,1-1.44,1.14,6.08,6.08,0,0,1-4.39,0,3.22,3.22,0,0,1-1.43-1.14,3,3,0,0,1-.5-1.68,2.91,2.91,0,0,1,.5-1.67,3.26,3.26,0,0,1,1.43-1.16,5.95,5.95,0,0,1,4.39,0,3.29,3.29,0,0,1,1.44,1.16,2.9,2.9,0,0,1,.49,1.67A3,3,0,0,1,602.69,37.68ZM602,34.75a2.51,2.51,0,0,0-1.14-.84,5.67,5.67,0,0,0-3.64,0,2.54,2.54,0,0,0-1.15.84,2.2,2.2,0,0,0,0,2.5,2.54,2.54,0,0,0,1.15.84,5.67,5.67,0,0,0,3.64,0,2.51,2.51,0,0,0,1.14-.84,2.15,2.15,0,0,0,0-2.5Z" fill="#003a50"/></g><line x1="40.75" y1="160.07" x2="40.75" y2="105.35" fill="none" stroke="#003a50" stroke-linecap="round" stroke-linejoin="round" stroke-width="0.4"/><line x1="40.75" y1="105.35" x2="38.55" y2="113.56" fill="none" stroke="#003a50" stroke-linecap="round" stroke-linejoin="round" stroke-width="0.4"/><line x1="38.55" y1="113.56" x2="42.95" y2="113.56" fill="none" stroke="#003a50" stroke-linecap="round" stroke-linejoin="round" stroke-width="0.4"/><line x1="42.94" y1="113.56" x2="40.74" y2="105.35" fill="none" stroke="#003a50" stroke-linecap="round" stroke-linejoin="round" stroke-width="0.4"/><polygon points="38.55 113.56 42.95 113.56 40.75 105.35 38.55 113.56" fill="#003a50"/><line x1="36.58" y1="105.35" x2="42.39" y2="105.35" fill="none" stroke="#003a50" stroke-linecap="round" stroke-linejoin="round" stroke-width="0.4"/><line x1="40.75" y1="105.35" x2="36.58" y2="105.35" fill="none" stroke="#003a50" stroke-linecap="round" stroke-linejoin="round" stroke-width="0.4"/><line x1="40.75" y1="160.07" x2="42.95" y2="151.86" fill="none" stroke="#003a50" stroke-linecap="round" stroke-linejoin="round" stroke-width="0.4"/><line x1="42.94" y1="151.86" x2="38.54" y2="151.86" fill="none" stroke="#003a50" stroke-linecap="round" stroke-linejoin="round" stroke-width="0.4"/><line x1="38.55" y1="151.86" x2="40.75" y2="160.07" fill="none" stroke="#003a50" stroke-linecap="round" stroke-linejoin="round" stroke-width="0.4"/><polygon points="38.55 151.86 40.75 160.06 42.95 151.86 38.55 151.86" fill="#003a50"/><line x1="36.58" y1="160.07" x2="42.39" y2="160.07" fill="none" stroke="#003a50" stroke-linecap="round" stroke-linejoin="round" stroke-width="0.4"/><line x1="40.75" y1="160.07" x2="36.58" y2="160.07" fill="none" stroke="#003a50" stroke-linecap="round" stroke-linejoin="round" stroke-width="0.4"/><g clip-path="url(#clip-path)"><path d="M28.09,143.63h8.12v.83H28.84v1.92h-.75Z" fill="#003a50"/><path d="M35.78,140.13a3.24,3.24,0,0,1-1.43,1.15,6.11,6.11,0,0,1-4.4,0,3.24,3.24,0,0,1-1.43-1.15,3.06,3.06,0,0,1,0-3.35A3.31,3.31,0,0,1,30,135.63a6,6,0,0,1,4.4,0,3.31,3.31,0,0,1,1.43,1.15,3.06,3.06,0,0,1,0,3.35Zm-.66-2.92a2.54,2.54,0,0,0-1.15-.84,5.67,5.67,0,0,0-3.64,0,2.6,2.6,0,0,0-1.15.84,2.09,2.09,0,0,0-.39,1.25,2.06,2.06,0,0,0,.39,1.24,2.6,2.6,0,0,0,1.15.84,5.5,5.5,0,0,0,3.64,0,2.54,2.54,0,0,0,1.15-.84,2.06,2.06,0,0,0,.39-1.24A2.09,2.09,0,0,0,35.12,137.21Z" fill="#003a50"/><path d="M35.78,132.46a3.31,3.31,0,0,1-1.43,1.15,6.11,6.11,0,0,1-4.4,0,3.31,3.31,0,0,1-1.43-1.15,3.06,3.06,0,0,1,0-3.35A3.24,3.24,0,0,1,30,128a6,6,0,0,1,4.4,0,3.24,3.24,0,0,1,1.43,1.15,3.06,3.06,0,0,1,0,3.35Zm-.66-2.92A2.54,2.54,0,0,0,34,128.7a5.5,5.5,0,0,0-3.64,0,2.6,2.6,0,0,0-1.15.84,2.06,2.06,0,0,0-.39,1.24,2.09,2.09,0,0,0,.39,1.25,2.6,2.6,0,0,0,1.15.84,5.67,5.67,0,0,0,3.64,0,2.54,2.54,0,0,0,1.15-.84,2.09,2.09,0,0,0,.39-1.25A2.06,2.06,0,0,0,35.12,129.54Z" fill="#003a50"/><path d="M35.78,124.78a3.17,3.17,0,0,1-1.43,1.15,6.11,6.11,0,0,1-4.4,0,3.17,3.17,0,0,1-1.43-1.15,2.91,2.91,0,0,1-.5-1.67,3,3,0,0,1,.5-1.68A3.31,3.31,0,0,1,30,120.28a6,6,0,0,1,4.4,0,3.31,3.31,0,0,1,1.43,1.15,3,3,0,0,1,.5,1.68A2.91,2.91,0,0,1,35.78,124.78Zm-.66-2.92A2.54,2.54,0,0,0,34,121a5.67,5.67,0,0,0-3.64,0,2.6,2.6,0,0,0-1.15.84,2.2,2.2,0,0,0,0,2.5,2.6,2.6,0,0,0,1.15.84,5.67,5.67,0,0,0,3.64,0,2.54,2.54,0,0,0,1.15-.84,2.2,2.2,0,0,0,0-2.5Z" fill="#003a50"/></g><line x1="488.93" y1="17.27" x2="488.93" y2="197.84" fill="none" stroke="#003a50" stroke-linecap="round" stroke-linejoin="round" stroke-width="0.4"/><line x1="488.93" y1="197.84" x2="491.13" y2="189.63" fill="none" stroke="#003a50" stroke-linecap="round" stroke-linejoin="round" stroke-width="0.4"/><line x1="491.13" y1="189.63" x2="486.73" y2="189.63" fill="none" stroke="#003a50" stroke-linecap="round" stroke-linejoin="round" stroke-width="0.4"/><line x1="486.73" y1="189.63" x2="488.93" y2="197.84" fill="none" stroke="#003a50" stroke-linecap="round" stroke-linejoin="round" stroke-width="0.4"/><polygon points="486.73 189.63 488.93 197.84 491.13 189.63 486.73 189.63" fill="#003a50"/><line x1="493.09" y1="197.84" x2="487.29" y2="197.84" fill="none" stroke="#003a50" stroke-linecap="round" stroke-linejoin="round" stroke-width="0.4"/><line x1="488.93" y1="197.84" x2="493.09" y2="197.84" fill="none" stroke="#003a50" stroke-linecap="round" stroke-linejoin="round" stroke-width="0.4"/><line x1="488.93" y1="17.27" x2="486.73" y2="25.48" fill="none" stroke="#003a50" stroke-linecap="round" stroke-linejoin="round" stroke-width="0.4"/><line x1="486.73" y1="25.48" x2="491.13" y2="25.48" fill="none" stroke="#003a50" stroke-linecap="round" stroke-linejoin="round" stroke-width="0.4"/><line x1="491.13" y1="25.48" x2="488.93" y2="17.27" fill="none" stroke="#003a50" stroke-linecap="round" stroke-linejoin="round" stroke-width="0.4"/><polygon points="486.73 25.48 491.13 25.48 488.93 17.27 486.73 25.48" fill="#003a50"/><line x1="493.09" y1="17.27" x2="487.29" y2="17.27" fill="none" stroke="#003a50" stroke-linecap="round" stroke-linejoin="round" stroke-width="0.4"/><line x1="488.93" y1="17.27" x2="493.09" y2="17.27" fill="none" stroke="#003a50" stroke-linecap="round" stroke-linejoin="round" stroke-width="0.4"/><g clip-path="url(#clip-path)"><path d="M480.45,116.75a2.08,2.08,0,0,1,1.61-.67,2.21,2.21,0,0,1,2.09,1.33,3.73,3.73,0,0,1,.31,1.61,4.84,4.84,0,0,1-.28,1.67,3.27,3.27,0,0,1-.76,1.25l-.66-.4a3,3,0,0,0,.68-1.08,4,4,0,0,0,.26-1.44,2.43,2.43,0,0,0-.44-1.54,1.46,1.46,0,0,0-1.2-.54,1.43,1.43,0,0,0-1.18.54,2.62,2.62,0,0,0-.43,1.65v.58h-.61L477,117.46v4.15h-.74v-5.22h.59l2.89,2.3A2.92,2.92,0,0,1,480.45,116.75Z" fill="#003a50"/><path d="M480.45,110.26a2.1,2.1,0,0,1,1.61-.66,2.17,2.17,0,0,1,2.09,1.33,3.73,3.73,0,0,1,.31,1.61,4.88,4.88,0,0,1-.28,1.67,3.27,3.27,0,0,1-.76,1.25l-.66-.4a3,3,0,0,0,.68-1.08,4,4,0,0,0,.26-1.44,2.41,2.41,0,0,0-.44-1.54,1.46,1.46,0,0,0-1.2-.54,1.43,1.43,0,0,0-1.18.54,2.6,2.6,0,0,0-.43,1.65v.58h-.61L477,111v4.15h-.74v-5.22h.59l2.89,2.3A3,3,0,0,1,480.45,110.26Z" fill="#003a50"/><path d="M484,106.87a3.31,3.31,0,0,1-1.43,1.15,6.08,6.08,0,0,1-4.39,0,3.31,3.31,0,0,1-1.43-1.15,3.06,3.06,0,0,1,0-3.35,3.33,3.33,0,0,1,1.43-1.16,6.08,6.08,0,0,1,4.39,0,3.33,3.33,0,0,1,1.43,1.16,3.06,3.06,0,0,1,0,3.35ZM483.3,104a2.51,2.51,0,0,0-1.14-.84,5,5,0,0,0-1.83-.3,4.86,4.86,0,0,0-1.81.3,2.49,2.49,0,0,0-1.15.84,2.14,2.14,0,0,0,0,2.49,2.49,2.49,0,0,0,1.15.84,4.86,4.86,0,0,0,1.81.3,5,5,0,0,0,1.83-.3,2.51,2.51,0,0,0,1.14-.84,2.14,2.14,0,0,0,0-2.49Z" fill="#003a50"/><path d="M484,99.19a3.17,3.17,0,0,1-1.43,1.15,6.08,6.08,0,0,1-4.39,0,3.17,3.17,0,0,1-1.43-1.15,3,3,0,0,1,0-3.34,3.26,3.26,0,0,1,1.43-1.16,5.95,5.95,0,0,1,4.39,0A3.26,3.26,0,0,1,484,95.85a3,3,0,0,1,0,3.34Zm-.66-2.92a2.51,2.51,0,0,0-1.14-.84,5,5,0,0,0-1.83-.3,4.86,4.86,0,0,0-1.81.3,2.49,2.49,0,0,0-1.15.84,2.15,2.15,0,0,0,0,2.5,2.49,2.49,0,0,0,1.15.84,4.86,4.86,0,0,0,1.81.3,5,5,0,0,0,1.83-.3,2.51,2.51,0,0,0,1.14-.84,2.15,2.15,0,0,0,0-2.5Z" fill="#003a50"/><line x1="488.93" y1="-218.03" x2="488.93" y2="0.86" fill="none" stroke="#003a50" stroke-linecap="round" stroke-linejoin="round" stroke-width="0.4"/><line x1="488.93" y1="0.86" x2="491.13" y2="-7.35" fill="none" stroke="#003a50" stroke-linecap="round" stroke-linejoin="round" stroke-width="0.4"/><line x1="486.73" y1="-7.35" x2="488.93" y2="0.86" fill="none" stroke="#003a50" stroke-linecap="round" stroke-linejoin="round" stroke-width="0.4"/></g><polygon points="488.83 0.5 488.93 0.86 489.02 0.5 488.83 0.5" fill="#003a50"/><line x1="493.09" y1="0.86" x2="487.29" y2="0.86" fill="none" stroke="#003a50" stroke-linecap="round" stroke-linejoin="round" stroke-width="0.4"/><line x1="488.93" y1="0.86" x2="493.09" y2="0.86" fill="none" stroke="#003a50" stroke-linecap="round" stroke-linejoin="round" stroke-width="0.4"/><g clip-path="url(#clip-path)"><line x1="160.47" y1="0.86" x2="160.47" y2="-94.9" fill="none" stroke="#003a50" stroke-linecap="round" stroke-linejoin="round" stroke-width="0.4"/><line x1="160.47" y1="0.86" x2="162.67" y2="-7.35" fill="none" stroke="#003a50" stroke-linecap="round" stroke-linejoin="round" stroke-width="0.4"/><line x1="158.27" y1="-7.35" x2="160.47" y2="0.86" fill="none" stroke="#003a50" stroke-linecap="round" stroke-linejoin="round" stroke-width="0.4"/></g><polygon points="160.37 0.5 160.47 0.86 160.57 0.5 160.37 0.5" fill="#003a50"/><line x1="156.31" y1="0.86" x2="162.11" y2="0.86" fill="none" stroke="#003a50" stroke-linecap="round" stroke-linejoin="round" stroke-width="0.4"/><line x1="160.47" y1="0.86" x2="156.31" y2="0.86" fill="none" stroke="#003a50" stroke-linecap="round" stroke-linejoin="round" stroke-width="0.4"/><g clip-path="url(#clip-path)"><line x1="194.67" y1="0.86" x2="194.67" y2="-94.9" fill="none" stroke="#003a50" stroke-linecap="round" stroke-linejoin="round" stroke-width="0.4"/><line x1="194.67" y1="0.86" x2="196.87" y2="-7.35" fill="none" stroke="#003a50" stroke-linecap="round" stroke-linejoin="round" stroke-width="0.4"/><line x1="192.47" y1="-7.35" x2="194.67" y2="0.86" fill="none" stroke="#003a50" stroke-linecap="round" stroke-linejoin="round" stroke-width="0.4"/></g><polygon points="194.57 0.5 194.66 0.86 194.76 0.5 194.57 0.5" fill="#003a50"/><line x1="190.5" y1="0.86" x2="196.31" y2="0.86" fill="none" stroke="#003a50" stroke-linecap="round" stroke-linejoin="round" stroke-width="0.4"/><line x1="194.67" y1="0.86" x2="190.5" y2="0.86" fill="none" stroke="#003a50" stroke-linecap="round" stroke-linejoin="round" stroke-width="0.4"/><g clip-path="url(#clip-path)"><line x1="349.56" y1="0.86" x2="349.56" y2="-94.9" fill="none" stroke="#003a50" stroke-linecap="round" stroke-linejoin="round" stroke-width="0.4"/><line x1="349.56" y1="0.86" x2="351.76" y2="-7.35" fill="none" stroke="#003a50" stroke-linecap="round" stroke-linejoin="round" stroke-width="0.4"/><line x1="347.36" y1="-7.35" x2="349.56" y2="0.86" fill="none" stroke="#003a50" stroke-linecap="round" stroke-linejoin="round" stroke-width="0.4"/></g><polygon points="349.46 0.5 349.56 0.86 349.66 0.5 349.46 0.5" fill="#003a50"/><line x1="345.4" y1="0.86" x2="351.2" y2="0.86" fill="none" stroke="#003a50" stroke-linecap="round" stroke-linejoin="round" stroke-width="0.4"/><line x1="349.56" y1="0.86" x2="345.4" y2="0.86" fill="none" stroke="#003a50" stroke-linecap="round" stroke-linejoin="round" stroke-width="0.4"/><line x1="88.94" y1="100.72" x2="88.94" y2="164.7" fill="none" stroke="#003a50" stroke-linecap="round" stroke-linejoin="round" stroke-width="0.4"/><line x1="88.94" y1="164.7" x2="91.14" y2="156.49" fill="none" stroke="#003a50" stroke-linecap="round" stroke-linejoin="round" stroke-width="0.4"/><line x1="91.14" y1="156.49" x2="86.74" y2="156.49" fill="none" stroke="#003a50" stroke-linecap="round" stroke-linejoin="round" stroke-width="0.4"/><line x1="86.74" y1="156.49" x2="88.94" y2="164.7" fill="none" stroke="#003a50" stroke-linecap="round" stroke-linejoin="round" stroke-width="0.4"/><polygon points="86.74 156.49 88.94 164.7 91.14 156.49 86.74 156.49" fill="#003a50"/><line x1="93.1" y1="164.7" x2="87.3" y2="164.7" fill="none" stroke="#003a50" stroke-linecap="round" stroke-linejoin="round" stroke-width="0.4"/><line x1="88.94" y1="164.7" x2="93.1" y2="164.7" fill="none" stroke="#003a50" stroke-linecap="round" stroke-linejoin="round" stroke-width="0.4"/><line x1="88.94" y1="100.72" x2="86.74" y2="108.92" fill="none" stroke="#003a50" stroke-linecap="round" stroke-linejoin="round" stroke-width="0.4"/><line x1="86.74" y1="108.92" x2="91.14" y2="108.92" fill="none" stroke="#003a50" stroke-linecap="round" stroke-linejoin="round" stroke-width="0.4"/><line x1="91.14" y1="108.92" x2="88.94" y2="100.72" fill="none" stroke="#003a50" stroke-linecap="round" stroke-linejoin="round" stroke-width="0.4"/><polygon points="86.74 108.92 91.14 108.92 88.94 100.72 86.74 108.92" fill="#003a50"/><line x1="93.1" y1="100.72" x2="87.3" y2="100.72" fill="none" stroke="#003a50" stroke-linecap="round" stroke-linejoin="round" stroke-width="0.4"/><line x1="88.94" y1="100.72" x2="93.1" y2="100.72" fill="none" stroke="#003a50" stroke-linecap="round" stroke-linejoin="round" stroke-width="0.4"/><g clip-path="url(#clip-path)"><path d="M76.29,141.46H84.4v.83H77v1.91h-.74Z" fill="#003a50"/><path d="M76.29,137.27H84.4v.84H77V140h-.74Z" fill="#003a50"/><path d="M76.29,129.61h.59L84.4,133v.91L77,130.57v4.17h1.52v.83H76.29Z" fill="#003a50"/><path d="M84,127.17a3.34,3.34,0,0,1-1.44,1.15,6.08,6.08,0,0,1-4.39,0,3.31,3.31,0,0,1-1.43-1.15,3.06,3.06,0,0,1,0-3.35,3.33,3.33,0,0,1,1.43-1.16,6.08,6.08,0,0,1,4.39,0A3.36,3.36,0,0,1,84,123.82a3.11,3.11,0,0,1,0,3.35Zm-.67-2.92a2.51,2.51,0,0,0-1.14-.84,5.67,5.67,0,0,0-3.64,0,2.49,2.49,0,0,0-1.15.84,2.18,2.18,0,0,0,0,2.49,2.49,2.49,0,0,0,1.15.84,5.67,5.67,0,0,0,3.64,0,2.51,2.51,0,0,0,1.14-.84,2.14,2.14,0,0,0,0-2.49Z" fill="#003a50"/></g><line x1="97.62" y1="183.41" x2="196.11" y2="183.41" fill="none" stroke="#003a50" stroke-linecap="round" stroke-linejoin="round" stroke-width="0.4"/><line x1="196.1" y1="183.41" x2="187.9" y2="181.21" fill="none" stroke="#003a50" stroke-linecap="round" stroke-linejoin="round" stroke-width="0.4"/><line x1="187.9" y1="181.21" x2="187.9" y2="185.61" fill="none" stroke="#003a50" stroke-linecap="round" stroke-linejoin="round" stroke-width="0.4"/><line x1="187.9" y1="185.61" x2="196.1" y2="183.41" fill="none" stroke="#003a50" stroke-linecap="round" stroke-linejoin="round" stroke-width="0.4"/><polygon points="187.9 185.61 196.1 183.41 187.9 181.21 187.9 185.61" fill="#003a50"/><line x1="196.1" y1="179.25" x2="196.1" y2="185.05" fill="none" stroke="#003a50" stroke-linecap="round" stroke-linejoin="round" stroke-width="0.4"/><line x1="196.1" y1="183.41" x2="196.1" y2="179.25" fill="none" stroke="#003a50" stroke-linecap="round" stroke-linejoin="round" stroke-width="0.4"/><line x1="97.62" y1="183.41" x2="105.83" y2="185.61" fill="none" stroke="#003a50" stroke-linecap="round" stroke-linejoin="round" stroke-width="0.4"/><line x1="105.82" y1="185.61" x2="105.82" y2="181.21" fill="none" stroke="#003a50" stroke-linecap="round" stroke-linejoin="round" stroke-width="0.4"/><line x1="105.82" y1="181.21" x2="97.62" y2="183.41" fill="none" stroke="#003a50" stroke-linecap="round" stroke-linejoin="round" stroke-width="0.4"/><polygon points="97.62 183.41 105.83 185.61 105.83 181.21 97.62 183.41" fill="#003a50"/><line x1="97.62" y1="179.25" x2="97.62" y2="185.05" fill="none" stroke="#003a50" stroke-linecap="round" stroke-linejoin="round" stroke-width="0.4"/><line x1="97.62" y1="183.41" x2="97.62" y2="179.25" fill="none" stroke="#003a50" stroke-linecap="round" stroke-linejoin="round" stroke-width="0.4"/><g clip-path="url(#clip-path)"><path d="M136,170.76v8.11h-.83V171.5h-1.92v-.74Z" fill="#003a50"/><path d="M143.78,175.39a1.84,1.84,0,0,1,.41,1.22,2,2,0,0,1-.38,1.24,2.41,2.41,0,0,1-1.09.81,4.55,4.55,0,0,1-1.68.28,3.71,3.71,0,0,1-2.29-.62,2,2,0,0,1-.84-1.71,1.91,1.91,0,0,1,.4-1.23,2.42,2.42,0,0,1,1.17-.76,2.08,2.08,0,0,1-1-.7,1.89,1.89,0,0,1-.32-1.09,1.87,1.87,0,0,1,.77-1.56,3.33,3.33,0,0,1,2.07-.58,4.06,4.06,0,0,1,1.5.26,2.2,2.2,0,0,1,1,.75,2,2,0,0,1,0,2.22,2.18,2.18,0,0,1-1,.7A2.43,2.43,0,0,1,143.78,175.39Zm-1.05,2.41a1.43,1.43,0,0,0,.61-1.2,1.4,1.4,0,0,0-.61-1.19A2.88,2.88,0,0,0,141,175a2.81,2.81,0,0,0-1.67.43,1.38,1.38,0,0,0-.61,1.19,1.4,1.4,0,0,0,.6,1.2,2.82,2.82,0,0,0,1.68.44A2.88,2.88,0,0,0,142.73,177.8Zm-3.16-3.88a2.36,2.36,0,0,0,1.47.4,2.41,2.41,0,0,0,1.48-.4,1.23,1.23,0,0,0,.54-1,1.27,1.27,0,0,0-.55-1.08,2.51,2.51,0,0,0-1.47-.39,2.47,2.47,0,0,0-1.47.39,1.25,1.25,0,0,0-.54,1.07A1.24,1.24,0,0,0,139.57,173.92Z" fill="#003a50"/><path d="M146.91,178.45a3.34,3.34,0,0,1-1.15-1.44,6.08,6.08,0,0,1,0-4.39,3.31,3.31,0,0,1,1.15-1.43,3.06,3.06,0,0,1,3.35,0,3.33,3.33,0,0,1,1.16,1.43,6.08,6.08,0,0,1,0,4.39,3.36,3.36,0,0,1-1.16,1.44,3.11,3.11,0,0,1-3.35,0Zm2.92-.67a2.51,2.51,0,0,0,.84-1.14,5.5,5.5,0,0,0,0-3.64,2.49,2.49,0,0,0-.84-1.15,2.06,2.06,0,0,0-1.24-.39,2.09,2.09,0,0,0-1.25.39,2.49,2.49,0,0,0-.84,1.15,5.67,5.67,0,0,0,0,3.64,2.51,2.51,0,0,0,.84,1.14,2,2,0,0,0,1.25.4A2,2,0,0,0,149.83,177.78Z" fill="#003a50"/><path d="M154.59,178.45a3.2,3.2,0,0,1-1.15-1.44,6.08,6.08,0,0,1,0-4.39,3.17,3.17,0,0,1,1.15-1.43,2.91,2.91,0,0,1,1.67-.5,2.94,2.94,0,0,1,1.68.5,3.31,3.31,0,0,1,1.15,1.43,5.95,5.95,0,0,1,0,4.39,3.34,3.34,0,0,1-1.15,1.44,2.93,2.93,0,0,1-1.68.49A2.9,2.9,0,0,1,154.59,178.45Zm2.92-.67a2.51,2.51,0,0,0,.84-1.14,5.67,5.67,0,0,0,0-3.64,2.49,2.49,0,0,0-.84-1.15,2.2,2.2,0,0,0-2.5,0,2.63,2.63,0,0,0-.84,1.15,5.67,5.67,0,0,0,0,3.64,2.66,2.66,0,0,0,.84,1.14,2.15,2.15,0,0,0,2.5,0Z" fill="#003a50"/></g><line x1="194.67" y1="17.27" x2="194.67" y2="95.25" fill="none" stroke="#003a50" stroke-linecap="round" stroke-linejoin="round" stroke-width="0.4"/><line x1="194.67" y1="95.24" x2="196.87" y2="87.04" fill="none" stroke="#003a50" stroke-linecap="round" stroke-linejoin="round" stroke-width="0.4"/><line x1="196.87" y1="87.04" x2="192.47" y2="87.04" fill="none" stroke="#003a50" stroke-linecap="round" stroke-linejoin="round" stroke-width="0.4"/><line x1="192.47" y1="87.04" x2="194.67" y2="95.24" fill="none" stroke="#003a50" stroke-linecap="round" stroke-linejoin="round" stroke-width="0.4"/><polygon points="192.47 87.04 194.67 95.24 196.87 87.04 192.47 87.04" fill="#003a50"/><line x1="198.83" y1="95.24" x2="193.02" y2="95.24" fill="none" stroke="#003a50" stroke-linecap="round" stroke-linejoin="round" stroke-width="0.4"/><line x1="194.67" y1="95.24" x2="198.83" y2="95.24" fill="none" stroke="#003a50" stroke-linecap="round" stroke-linejoin="round" stroke-width="0.4"/><line x1="194.67" y1="17.27" x2="192.47" y2="25.48" fill="none" stroke="#003a50" stroke-linecap="round" stroke-linejoin="round" stroke-width="0.4"/><line x1="192.47" y1="25.48" x2="196.87" y2="25.48" fill="none" stroke="#003a50" stroke-linecap="round" stroke-linejoin="round" stroke-width="0.4"/><line x1="196.87" y1="25.48" x2="194.67" y2="17.27" fill="none" stroke="#003a50" stroke-linecap="round" stroke-linejoin="round" stroke-width="0.4"/><polygon points="192.47 25.48 196.87 25.48 194.67 17.27 192.47 25.48" fill="#003a50"/><line x1="198.83" y1="17.27" x2="193.02" y2="17.27" fill="none" stroke="#003a50" stroke-linecap="round" stroke-linejoin="round" stroke-width="0.4"/><line x1="194.67" y1="17.27" x2="198.83" y2="17.27" fill="none" stroke="#003a50" stroke-linecap="round" stroke-linejoin="round" stroke-width="0.4"/><g clip-path="url(#clip-path)"><path d="M182,66.61h8.11v.84h-7.37v1.91H182Z" fill="#003a50"/><path d="M188,57.78V59.4h2.13v.84H188v4.58h-.61L182,60.51v-.92l5.24,4.15V60.21h-1.88V59.4h1.88V57.78Z" fill="#003a50"/><path d="M186.18,52.49a2.11,2.11,0,0,1,1.62-.67,2.21,2.21,0,0,1,1.23.34,2.27,2.27,0,0,1,.86,1,3.73,3.73,0,0,1,.31,1.61,4.84,4.84,0,0,1-.28,1.67,3.53,3.53,0,0,1-.76,1.26l-.66-.41a3,3,0,0,0,.67-1.08,3.84,3.84,0,0,0,.27-1.44,2.43,2.43,0,0,0-.44-1.54,1.46,1.46,0,0,0-1.2-.54,1.42,1.42,0,0,0-1.18.54,2.64,2.64,0,0,0-.43,1.65v.58h-.62l-2.81-2.25v4.15H182V52.13h.59l2.88,2.3A3,3,0,0,1,186.18,52.49Z" fill="#003a50"/><path d="M189.7,49.09a3.31,3.31,0,0,1-1.43,1.15,6.08,6.08,0,0,1-4.39,0,3.34,3.34,0,0,1-1.44-1.15,3.11,3.11,0,0,1,0-3.35,3.34,3.34,0,0,1,1.44-1.15,5.95,5.95,0,0,1,4.39,0,3.31,3.31,0,0,1,1.43,1.15,3.06,3.06,0,0,1,0,3.35ZM189,46.17a2.49,2.49,0,0,0-1.15-.84,5.67,5.67,0,0,0-3.64,0,2.51,2.51,0,0,0-1.14.84,2.14,2.14,0,0,0,0,2.49,2.51,2.51,0,0,0,1.14.84,5.67,5.67,0,0,0,3.64,0,2.49,2.49,0,0,0,1.15-.84,2.14,2.14,0,0,0,0-2.49Z" fill="#003a50"/></g><line x1="103.09" y1="36.51" x2="217.99" y2="36.51" fill="none" stroke="#003a50" stroke-linecap="round" stroke-linejoin="round" stroke-width="0.4"/><line x1="217.99" y1="36.51" x2="209.78" y2="34.31" fill="none" stroke="#003a50" stroke-linecap="round" stroke-linejoin="round" stroke-width="0.4"/><line x1="209.78" y1="34.31" x2="209.78" y2="38.71" fill="none" stroke="#003a50" stroke-linecap="round" stroke-linejoin="round" stroke-width="0.4"/><line x1="209.78" y1="38.71" x2="217.99" y2="36.51" fill="none" stroke="#003a50" stroke-linecap="round" stroke-linejoin="round" stroke-width="0.4"/><polygon points="209.78 38.71 217.99 36.51 209.78 34.31 209.78 38.71" fill="#003a50"/><line x1="217.99" y1="32.35" x2="217.99" y2="38.15" fill="none" stroke="#003a50" stroke-linecap="round" stroke-linejoin="round" stroke-width="0.4"/><line x1="217.99" y1="36.51" x2="217.99" y2="32.35" fill="none" stroke="#003a50" stroke-linecap="round" stroke-linejoin="round" stroke-width="0.4"/><line x1="103.09" y1="36.51" x2="111.29" y2="38.71" fill="none" stroke="#003a50" stroke-linecap="round" stroke-linejoin="round" stroke-width="0.4"/><line x1="111.29" y1="38.71" x2="111.29" y2="34.31" fill="none" stroke="#003a50" stroke-linecap="round" stroke-linejoin="round" stroke-width="0.4"/><line x1="111.29" y1="34.31" x2="103.09" y2="36.51" fill="none" stroke="#003a50" stroke-linecap="round" stroke-linejoin="round" stroke-width="0.4"/><polygon points="103.09 36.51 111.29 38.71 111.29 34.31 103.09 36.51" fill="#003a50"/><line x1="103.09" y1="32.35" x2="103.09" y2="38.15" fill="none" stroke="#003a50" stroke-linecap="round" stroke-linejoin="round" stroke-width="0.4"/><line x1="103.09" y1="36.51" x2="103.09" y2="32.35" fill="none" stroke="#003a50" stroke-linecap="round" stroke-linejoin="round" stroke-width="0.4"/><g clip-path="url(#clip-path)"><path d="M153.29,31.23V32h-5.7v-.6l3.38-3.3a4.59,4.59,0,0,0,.86-1.08,2.12,2.12,0,0,0,.23-.92,1.35,1.35,0,0,0-.5-1.12,2.12,2.12,0,0,0-1.4-.4,2.81,2.81,0,0,0-2.22.9l-.59-.51a3.14,3.14,0,0,1,1.21-.86,4.4,4.4,0,0,1,1.67-.3,3,3,0,0,1,2,.59,2,2,0,0,1,.73,1.6,2.86,2.86,0,0,1-.28,1.21,5.2,5.2,0,0,1-1.06,1.33l-2.76,2.71Z" fill="#003a50"/><path d="M156.58,23.86V32h-.84V24.6h-1.91v-.74Z" fill="#003a50"/><path d="M160.07,31.55a3.28,3.28,0,0,1-1.14-1.43,6,6,0,0,1,0-4.4,3.22,3.22,0,0,1,1.14-1.43,3.06,3.06,0,0,1,3.35,0,3.33,3.33,0,0,1,1.16,1.43,6.11,6.11,0,0,1,0,4.4,3.39,3.39,0,0,1-1.16,1.43,3.11,3.11,0,0,1-3.35,0Zm2.92-.66a2.6,2.6,0,0,0,.84-1.15,5.5,5.5,0,0,0,0-3.64A2.54,2.54,0,0,0,163,25a2,2,0,0,0-1.24-.39,2.09,2.09,0,0,0-1.25.39,2.54,2.54,0,0,0-.84,1.15,5.67,5.67,0,0,0,0,3.64,2.6,2.6,0,0,0,.84,1.15,2.09,2.09,0,0,0,1.25.39A2,2,0,0,0,163,30.89Z" fill="#003a50"/><path d="M167.75,31.55a3.3,3.3,0,0,1-1.15-1.43,6.11,6.11,0,0,1,0-4.4,3.24,3.24,0,0,1,1.15-1.43,3.06,3.06,0,0,1,3.35,0,3.31,3.31,0,0,1,1.15,1.43,6,6,0,0,1,0,4.4,3.37,3.37,0,0,1-1.15,1.43,3.11,3.11,0,0,1-3.35,0Zm2.92-.66a2.6,2.6,0,0,0,.84-1.15,5.67,5.67,0,0,0,0-3.64,2.54,2.54,0,0,0-.84-1.15,2.09,2.09,0,0,0-1.25-.39,2.06,2.06,0,0,0-1.24.39,2.54,2.54,0,0,0-.84,1.15,5.5,5.5,0,0,0,0,3.64,2.6,2.6,0,0,0,.84,1.15,2.06,2.06,0,0,0,1.24.39A2.09,2.09,0,0,0,170.67,30.89Z" fill="#003a50"/></g><line x1="67.52" y1="116.5" x2="223.46" y2="116.5" fill="none" stroke="#003a50" stroke-linecap="round" stroke-linejoin="round" stroke-width="0.4"/><line x1="223.46" y1="116.5" x2="215.25" y2="114.3" fill="none" stroke="#003a50" stroke-linecap="round" stroke-linejoin="round" stroke-width="0.4"/><line x1="215.26" y1="114.3" x2="215.26" y2="118.7" fill="none" stroke="#003a50" stroke-linecap="round" stroke-linejoin="round" stroke-width="0.4"/><line x1="215.26" y1="118.7" x2="223.46" y2="116.5" fill="none" stroke="#003a50" stroke-linecap="round" stroke-linejoin="round" stroke-width="0.4"/><polygon points="215.25 118.7 223.46 116.5 215.25 114.3 215.25 118.7" fill="#003a50"/><line x1="223.46" y1="102.36" x2="223.46" y2="118.14" fill="none" stroke="#003a50" stroke-linecap="round" stroke-linejoin="round" stroke-width="0.4"/><line x1="223.46" y1="116.5" x2="223.46" y2="102.36" fill="none" stroke="#003a50" stroke-linecap="round" stroke-linejoin="round" stroke-width="0.4"/><line x1="67.52" y1="116.5" x2="75.73" y2="118.7" fill="none" stroke="#003a50" stroke-linecap="round" stroke-linejoin="round" stroke-width="0.4"/><line x1="75.73" y1="118.7" x2="75.73" y2="114.3" fill="none" stroke="#003a50" stroke-linecap="round" stroke-linejoin="round" stroke-width="0.4"/><line x1="75.73" y1="114.3" x2="67.52" y2="116.5" fill="none" stroke="#003a50" stroke-linecap="round" stroke-linejoin="round" stroke-width="0.4"/><polygon points="67.52 116.5 75.73 118.7 75.73 114.3 67.52 116.5" fill="#003a50"/><line x1="67.52" y1="112.33" x2="67.52" y2="118.14" fill="none" stroke="#003a50" stroke-linecap="round" stroke-linejoin="round" stroke-width="0.4"/><line x1="67.52" y1="116.5" x2="67.52" y2="112.33" fill="none" stroke="#003a50" stroke-linecap="round" stroke-linejoin="round" stroke-width="0.4"/><g clip-path="url(#clip-path)"><path d="M137.11,111.22V112h-5.69v-.59l3.38-3.31a4.22,4.22,0,0,0,.86-1.08,2.05,2.05,0,0,0,.23-.92,1.37,1.37,0,0,0-.5-1.12,2.17,2.17,0,0,0-1.41-.4,2.76,2.76,0,0,0-2.21.91l-.59-.51a3,3,0,0,1,1.21-.86,4.38,4.38,0,0,1,1.66-.3,3,3,0,0,1,2,.58,2,2,0,0,1,.72,1.61,2.67,2.67,0,0,1-.28,1.2,4.94,4.94,0,0,1-1.05,1.34l-2.76,2.71Z" fill="#003a50"/><path d="M144,108.47a1.87,1.87,0,0,1,.41,1.23,2,2,0,0,1-.38,1.23,2.36,2.36,0,0,1-1.09.82,4.77,4.77,0,0,1-1.68.28,3.71,3.71,0,0,1-2.29-.63,2,2,0,0,1-.84-1.7,1.88,1.88,0,0,1,.4-1.23,2.42,2.42,0,0,1,1.17-.76,2,2,0,0,1-1-.71,1.78,1.78,0,0,1-.33-1.08,1.84,1.84,0,0,1,.77-1.56,3.37,3.37,0,0,1,2.07-.58,3.87,3.87,0,0,1,1.5.26,2.28,2.28,0,0,1,1,.74,2,2,0,0,1,.35,1.14,1.78,1.78,0,0,1-.33,1.08,2.2,2.2,0,0,1-1,.71A2.42,2.42,0,0,1,144,108.47Zm-1,2.41a1.47,1.47,0,0,0,0-2.38,2.88,2.88,0,0,0-1.69-.44,2.81,2.81,0,0,0-1.67.44,1.38,1.38,0,0,0-.61,1.19,1.4,1.4,0,0,0,.6,1.2,3.48,3.48,0,0,0,3.37,0ZM139.77,107a2.44,2.44,0,0,0,1.47.39,2.48,2.48,0,0,0,1.48-.39,1.23,1.23,0,0,0,.54-1.05,1.27,1.27,0,0,0-.55-1.08,2.44,2.44,0,0,0-1.47-.4,2.4,2.4,0,0,0-1.47.4,1.26,1.26,0,0,0-.53,1.06A1.24,1.24,0,0,0,139.77,107Z" fill="#003a50"/><path d="M150.25,107.81a2.09,2.09,0,0,1,.81,1.76,2.45,2.45,0,0,1-.33,1.27,2.23,2.23,0,0,1-1,.87,3.76,3.76,0,0,1-1.63.32,5.06,5.06,0,0,1-1.65-.28,3.4,3.4,0,0,1-1.25-.76l.4-.66a3.06,3.06,0,0,0,1.07.67,3.7,3.7,0,0,0,1.42.26,2.38,2.38,0,0,0,1.56-.45,1.46,1.46,0,0,0,.55-1.2,1.43,1.43,0,0,0-.62-1.27,3.86,3.86,0,0,0-2.09-.43h-1.73l.42-4.06h4.44v.74h-3.71l-.28,2.58h1.05A4.08,4.08,0,0,1,150.25,107.81Z" fill="#003a50"/><path d="M153.67,111.53a3.22,3.22,0,0,1-1.14-1.43,5.95,5.95,0,0,1,0-4.39,3.25,3.25,0,0,1,1.14-1.44,3.11,3.11,0,0,1,3.35,0,3.36,3.36,0,0,1,1.16,1.44,6.08,6.08,0,0,1,0,4.39,3.33,3.33,0,0,1-1.16,1.43,3.06,3.06,0,0,1-3.35,0Zm2.93-.66a2.69,2.69,0,0,0,.84-1.15,5.67,5.67,0,0,0,0-3.64,2.66,2.66,0,0,0-.84-1.14,2.15,2.15,0,0,0-2.5,0,2.51,2.51,0,0,0-.84,1.14,5.67,5.67,0,0,0,0,3.64,2.54,2.54,0,0,0,.84,1.15,2.2,2.2,0,0,0,2.5,0Z" fill="#003a50"/></g><line x1="196.1" y1="157.53" x2="223.46" y2="157.53" fill="none" stroke="#003a50" stroke-linecap="round" stroke-linejoin="round" stroke-width="0.4"/><line x1="223.46" y1="157.53" x2="215.25" y2="155.33" fill="none" stroke="#003a50" stroke-linecap="round" stroke-linejoin="round" stroke-width="0.4"/><line x1="215.26" y1="155.33" x2="215.26" y2="159.73" fill="none" stroke="#003a50" stroke-linecap="round" stroke-linejoin="round" stroke-width="0.4"/><line x1="215.26" y1="159.73" x2="223.46" y2="157.53" fill="none" stroke="#003a50" stroke-linecap="round" stroke-linejoin="round" stroke-width="0.4"/><polygon points="215.25 159.73 223.46 157.53 215.25 155.33 215.25 159.73" fill="#003a50"/><line x1="223.46" y1="162.96" x2="223.46" y2="155.89" fill="none" stroke="#003a50" stroke-linecap="round" stroke-linejoin="round" stroke-width="0.4"/><line x1="223.46" y1="157.53" x2="223.46" y2="162.96" fill="none" stroke="#003a50" stroke-linecap="round" stroke-linejoin="round" stroke-width="0.4"/><line x1="196.1" y1="157.53" x2="204.31" y2="159.73" fill="none" stroke="#003a50" stroke-linecap="round" stroke-linejoin="round" stroke-width="0.4"/><line x1="204.31" y1="159.73" x2="204.31" y2="155.33" fill="none" stroke="#003a50" stroke-linecap="round" stroke-linejoin="round" stroke-width="0.4"/><line x1="204.31" y1="155.33" x2="196.1" y2="157.53" fill="none" stroke="#003a50" stroke-linecap="round" stroke-linejoin="round" stroke-width="0.4"/><polygon points="196.1 157.53 204.31 159.73 204.31 155.33 196.1 157.53" fill="#003a50"/><line x1="196.1" y1="162.96" x2="196.1" y2="155.89" fill="none" stroke="#003a50" stroke-linecap="round" stroke-linejoin="round" stroke-width="0.4"/><line x1="196.1" y1="157.53" x2="196.1" y2="162.96" fill="none" stroke="#003a50" stroke-linecap="round" stroke-linejoin="round" stroke-width="0.4"/><g clip-path="url(#clip-path)"><path d="M203.74,148.84a2.11,2.11,0,0,1,.81,1.77,2.42,2.42,0,0,1-.33,1.26,2.25,2.25,0,0,1-1,.88,3.76,3.76,0,0,1-1.63.32,4.77,4.77,0,0,1-1.65-.29,3.27,3.27,0,0,1-1.26-.76l.41-.66a2.94,2.94,0,0,0,1.07.68,3.7,3.7,0,0,0,1.42.26,2.42,2.42,0,0,0,1.56-.45,1.47,1.47,0,0,0,.55-1.21,1.43,1.43,0,0,0-.62-1.26A3.86,3.86,0,0,0,201,149h-1.73l.42-4.07h4.44v.75h-3.71l-.28,2.58h1A4.16,4.16,0,0,1,203.74,148.84Z" fill="#003a50"/><path d="M207.16,152.57a3.31,3.31,0,0,1-1.15-1.43,6.11,6.11,0,0,1,0-4.4,3.31,3.31,0,0,1,1.15-1.43,3.06,3.06,0,0,1,3.35,0,3.33,3.33,0,0,1,1.16,1.43,6.11,6.11,0,0,1,0,4.4,3.33,3.33,0,0,1-1.16,1.43,3.06,3.06,0,0,1-3.35,0Zm2.92-.66a2.54,2.54,0,0,0,.84-1.15,5.5,5.5,0,0,0,0-3.64,2.6,2.6,0,0,0-.84-1.15,2.06,2.06,0,0,0-1.24-.39,2.09,2.09,0,0,0-1.25.39,2.6,2.6,0,0,0-.84,1.15,5.67,5.67,0,0,0,0,3.64,2.54,2.54,0,0,0,.84,1.15,2.09,2.09,0,0,0,1.25.39A2.06,2.06,0,0,0,210.08,151.91Z" fill="#003a50"/><path d="M214.84,152.57a3.24,3.24,0,0,1-1.15-1.43,6.11,6.11,0,0,1,0-4.4,3.24,3.24,0,0,1,1.15-1.43,3.06,3.06,0,0,1,3.35,0,3.31,3.31,0,0,1,1.15,1.43,6,6,0,0,1,0,4.4,3.31,3.31,0,0,1-1.15,1.43,3.06,3.06,0,0,1-3.35,0Zm2.92-.66a2.54,2.54,0,0,0,.84-1.15,5.67,5.67,0,0,0,0-3.64,2.6,2.6,0,0,0-.84-1.15,2.09,2.09,0,0,0-1.25-.39,2,2,0,0,0-1.24.39,2.69,2.69,0,0,0-.85,1.15,5.67,5.67,0,0,0,0,3.64,2.63,2.63,0,0,0,.85,1.15,2,2,0,0,0,1.24.39A2.09,2.09,0,0,0,217.76,151.91Z" fill="#003a50"/></g><line x1="239.92" y1="164.6" x2="239.92" y2="197.84" fill="none" stroke="#003a50" stroke-linecap="round" stroke-linejoin="round" stroke-width="0.4"/><line x1="239.92" y1="197.84" x2="242.12" y2="189.63" fill="none" stroke="#003a50" stroke-linecap="round" stroke-linejoin="round" stroke-width="0.4"/><line x1="242.12" y1="189.63" x2="237.72" y2="189.63" fill="none" stroke="#003a50" stroke-linecap="round" stroke-linejoin="round" stroke-width="0.4"/><line x1="237.72" y1="189.63" x2="239.92" y2="197.84" fill="none" stroke="#003a50" stroke-linecap="round" stroke-linejoin="round" stroke-width="0.4"/><polygon points="237.72 189.63 239.92 197.84 242.12 189.63 237.72 189.63" fill="#003a50"/><line x1="244.08" y1="197.84" x2="238.28" y2="197.84" fill="none" stroke="#003a50" stroke-linecap="round" stroke-linejoin="round" stroke-width="0.4"/><line x1="239.92" y1="197.84" x2="244.08" y2="197.84" fill="none" stroke="#003a50" stroke-linecap="round" stroke-linejoin="round" stroke-width="0.4"/><line x1="239.92" y1="164.6" x2="237.72" y2="172.81" fill="none" stroke="#003a50" stroke-linecap="round" stroke-linejoin="round" stroke-width="0.4"/><line x1="237.72" y1="172.81" x2="242.12" y2="172.81" fill="none" stroke="#003a50" stroke-linecap="round" stroke-linejoin="round" stroke-width="0.4"/><line x1="242.12" y1="172.81" x2="239.92" y2="164.6" fill="none" stroke="#003a50" stroke-linecap="round" stroke-linejoin="round" stroke-width="0.4"/><polygon points="237.72 172.81 242.12 172.81 239.92 164.6 237.72 172.81" fill="#003a50"/><line x1="225.1" y1="164.6" x2="241.56" y2="164.6" fill="none" stroke="#003a50" stroke-linecap="round" stroke-linejoin="round" stroke-width="0.4"/><line x1="239.92" y1="164.6" x2="225.1" y2="164.6" fill="none" stroke="#003a50" stroke-linecap="round" stroke-linejoin="round" stroke-width="0.4"/><g clip-path="url(#clip-path)"><path d="M232.25,177.64a1.52,1.52,0,0,1,.58-.67,1.65,1.65,0,0,1,.89-.24,1.62,1.62,0,0,1,1.5.93,2.34,2.34,0,0,1-.51,2.69,3.25,3.25,0,0,1-2.07.59,3.6,3.6,0,0,1-1.59-.32,2.26,2.26,0,0,1-1-.9,2.64,2.64,0,0,1-.33-1.34,2.54,2.54,0,0,1,.3-1.33l.47.23a1.93,1.93,0,0,0-.26,1.09,1.88,1.88,0,0,0,.58,1.46,2.48,2.48,0,0,0,1.71.52,3.86,3.86,0,0,0,.46,0,1.51,1.51,0,0,1-.71-.66,2.14,2.14,0,0,1-.25-1A2.17,2.17,0,0,1,232.25,177.64Zm2.37,0a1.13,1.13,0,0,0-.89-.38,1.11,1.11,0,0,0-.88.38,1.5,1.5,0,0,0-.33,1,1.72,1.72,0,0,0,.16.74,1.3,1.3,0,0,0,.44.51,1.09,1.09,0,0,0,.63.19,1,1,0,0,0,.59-.18,1.2,1.2,0,0,0,.44-.5,1.81,1.81,0,0,0,.17-.8A1.44,1.44,0,0,0,234.62,177.68Z" fill="#003a50"/><path d="M229.79,174.51h5.6v.58H230.3v1.32h-.51Z" fill="#003a50"/><path d="M235.09,172.1a2.19,2.19,0,0,1-1,.79,3.66,3.66,0,0,1-1.51.29,3.75,3.75,0,0,1-1.52-.29,2.19,2.19,0,0,1-1-.79,2.13,2.13,0,0,1,0-2.31,2.34,2.34,0,0,1,1-.8,3.75,3.75,0,0,1,1.52-.28,3.67,3.67,0,0,1,1.51.28,2.34,2.34,0,0,1,1,.8,2.08,2.08,0,0,1,0,2.31Zm-.45-2a1.69,1.69,0,0,0-.8-.58,3.3,3.3,0,0,0-1.25-.21,3.39,3.39,0,0,0-1.26.21,1.71,1.71,0,0,0-.79.58,1.4,1.4,0,0,0-.27.86,1.44,1.44,0,0,0,.27.86,1.78,1.78,0,0,0,.79.58,3.4,3.4,0,0,0,1.26.2,3.31,3.31,0,0,0,1.25-.2,1.75,1.75,0,0,0,.8-.58,1.44,1.44,0,0,0,.27-.86A1.4,1.4,0,0,0,234.64,170.09Z" fill="#003a50"/></g><line x1="223.46" y1="183.41" x2="529.87" y2="183.41" fill="none" stroke="#003a50" stroke-linecap="round" stroke-linejoin="round" stroke-width="0.4"/><line x1="529.88" y1="183.41" x2="521.67" y2="181.21" fill="none" stroke="#003a50" stroke-linecap="round" stroke-linejoin="round" stroke-width="0.4"/><line x1="521.67" y1="181.21" x2="521.67" y2="185.61" fill="none" stroke="#003a50" stroke-linecap="round" stroke-linejoin="round" stroke-width="0.4"/><line x1="521.67" y1="185.61" x2="529.88" y2="183.41" fill="none" stroke="#003a50" stroke-linecap="round" stroke-linejoin="round" stroke-width="0.4"/><polygon points="521.67 185.61 529.88 183.41 521.67 181.21 521.67 185.61" fill="#003a50"/><line x1="529.88" y1="179.25" x2="529.88" y2="185.05" fill="none" stroke="#003a50" stroke-linecap="round" stroke-linejoin="round" stroke-width="0.4"/><line x1="529.88" y1="183.41" x2="529.88" y2="179.25" fill="none" stroke="#003a50" stroke-linecap="round" stroke-linejoin="round" stroke-width="0.4"/><line x1="223.46" y1="183.41" x2="231.67" y2="185.61" fill="none" stroke="#003a50" stroke-linecap="round" stroke-linejoin="round" stroke-width="0.4"/><line x1="231.67" y1="185.61" x2="231.67" y2="181.21" fill="none" stroke="#003a50" stroke-linecap="round" stroke-linejoin="round" stroke-width="0.4"/><line x1="231.67" y1="181.21" x2="223.46" y2="183.41" fill="none" stroke="#003a50" stroke-linecap="round" stroke-linejoin="round" stroke-width="0.4"/><polygon points="223.46 183.41 231.67 185.61 231.67 181.21 223.46 183.41" fill="#003a50"/><line x1="223.46" y1="179.25" x2="223.46" y2="185.05" fill="none" stroke="#003a50" stroke-linecap="round" stroke-linejoin="round" stroke-width="0.4"/><line x1="223.46" y1="183.41" x2="223.46" y2="179.25" fill="none" stroke="#003a50" stroke-linecap="round" stroke-linejoin="round" stroke-width="0.4"/><g clip-path="url(#clip-path)"><path d="M367.09,174.72a2.11,2.11,0,0,1,.81,1.77,2.42,2.42,0,0,1-.33,1.26,2.31,2.31,0,0,1-1,.88,3.75,3.75,0,0,1-1.62.31,4.86,4.86,0,0,1-1.66-.28,3.27,3.27,0,0,1-1.25-.76l.4-.66a3.08,3.08,0,0,0,1.07.68,3.9,3.9,0,0,0,1.42.26,2.38,2.38,0,0,0,1.56-.45,1.48,1.48,0,0,0,.55-1.21,1.41,1.41,0,0,0-.62-1.26,3.77,3.77,0,0,0-2.09-.43h-1.73l.42-4.07h4.44v.74h-3.71l-.28,2.59h1A4.15,4.15,0,0,1,367.09,174.72Z" fill="#003a50"/><path d="M373.74,174.32a2.24,2.24,0,0,1,1.31,2.13,2.38,2.38,0,0,1-.36,1.31,2.42,2.42,0,0,1-1,.88,3.25,3.25,0,0,1-1.42.3,3,3,0,0,1-2.47-1.06,4.63,4.63,0,0,1-.85-3,5.15,5.15,0,0,1,.46-2.3,3.26,3.26,0,0,1,1.3-1.42,3.81,3.81,0,0,1,1.95-.48,3.69,3.69,0,0,1,1.92.44l-.34.67a2.85,2.85,0,0,0-1.57-.38,2.68,2.68,0,0,0-2.11.85,3.61,3.61,0,0,0-.77,2.48,5.52,5.52,0,0,0,0,.66,2.22,2.22,0,0,1,1-1,3.13,3.13,0,0,1,1.52-.36A3.25,3.25,0,0,1,373.74,174.32Zm-.06,3.44a1.63,1.63,0,0,0,.55-1.29,1.59,1.59,0,0,0-.55-1.27,2.19,2.19,0,0,0-1.49-.48,2.32,2.32,0,0,0-1.08.24,1.76,1.76,0,0,0-.74.63,1.62,1.62,0,0,0-.27.91,1.65,1.65,0,0,0,.25.86,1.78,1.78,0,0,0,.74.63,2.45,2.45,0,0,0,1.16.25A2.11,2.11,0,0,0,373.68,177.76Z" fill="#003a50"/><path d="M377.57,178.45a3.25,3.25,0,0,1-1.14-1.44,5.95,5.95,0,0,1,0-4.39,3.22,3.22,0,0,1,1.14-1.43,2.94,2.94,0,0,1,1.68-.5,2.91,2.91,0,0,1,1.67.5,3.26,3.26,0,0,1,1.16,1.43,5.95,5.95,0,0,1,0,4.39,3.29,3.29,0,0,1-1.16,1.44,2.9,2.9,0,0,1-1.67.49A2.93,2.93,0,0,1,377.57,178.45Zm2.93-.67a2.66,2.66,0,0,0,.84-1.14,5.67,5.67,0,0,0,0-3.64,2.63,2.63,0,0,0-.84-1.15,2.2,2.2,0,0,0-2.5,0,2.49,2.49,0,0,0-.84,1.15,5.67,5.67,0,0,0,0,3.64,2.51,2.51,0,0,0,.84,1.14,2.15,2.15,0,0,0,2.5,0Z" fill="#003a50"/><path d="M385.25,178.45A3.27,3.27,0,0,1,384.1,177a6.08,6.08,0,0,1,0-4.39,3.24,3.24,0,0,1,1.15-1.43,3.06,3.06,0,0,1,3.35,0,3.31,3.31,0,0,1,1.15,1.43,5.95,5.95,0,0,1,0,4.39,3.34,3.34,0,0,1-1.15,1.44,3.11,3.11,0,0,1-3.35,0Zm2.92-.67a2.51,2.51,0,0,0,.84-1.14,5.67,5.67,0,0,0,0-3.64,2.49,2.49,0,0,0-.84-1.15,2.09,2.09,0,0,0-1.25-.39,2.06,2.06,0,0,0-1.24.39,2.49,2.49,0,0,0-.84,1.15,5.67,5.67,0,0,0,0,3.64,2.51,2.51,0,0,0,.84,1.14,2,2,0,0,0,1.24.4A2,2,0,0,0,388.17,177.78Z" fill="#003a50"/></g><line x1="239.92" y1="164.6" x2="239.92" y2="100.71" fill="none" stroke="#003a50" stroke-linecap="round" stroke-linejoin="round" stroke-width="0.4"/><line x1="239.92" y1="100.72" x2="242.12" y2="92.51" fill="none" stroke="#003a50" stroke-linecap="round" stroke-linejoin="round" stroke-width="0.4"/><line x1="242.12" y1="92.51" x2="237.72" y2="92.51" fill="none" stroke="#003a50" stroke-linecap="round" stroke-linejoin="round" stroke-width="0.4"/><line x1="237.72" y1="92.51" x2="239.92" y2="100.72" fill="none" stroke="#003a50" stroke-linecap="round" stroke-linejoin="round" stroke-width="0.4"/><polygon points="237.72 92.51 239.92 100.72 242.12 92.51 237.72 92.51" fill="#003a50"/><line x1="239.92" y1="100.72" x2="237.72" y2="108.92" fill="none" stroke="#003a50" stroke-linecap="round" stroke-linejoin="round" stroke-width="0.4"/><line x1="237.72" y1="108.92" x2="242.12" y2="108.92" fill="none" stroke="#003a50" stroke-linecap="round" stroke-linejoin="round" stroke-width="0.4"/><line x1="242.12" y1="108.92" x2="239.92" y2="100.72" fill="none" stroke="#003a50" stroke-linecap="round" stroke-linejoin="round" stroke-width="0.4"/><polygon points="237.72 108.92 242.12 108.92 239.92 100.72 237.72 108.92" fill="#003a50"/><line x1="225.1" y1="100.72" x2="241.56" y2="100.72" fill="none" stroke="#003a50" stroke-linecap="round" stroke-linejoin="round" stroke-width="0.4"/><line x1="239.92" y1="100.72" x2="225.1" y2="100.72" fill="none" stroke="#003a50" stroke-linecap="round" stroke-linejoin="round" stroke-width="0.4"/><line x1="239.92" y1="164.6" x2="242.12" y2="156.39" fill="none" stroke="#003a50" stroke-linecap="round" stroke-linejoin="round" stroke-width="0.4"/><line x1="242.12" y1="156.39" x2="237.72" y2="156.39" fill="none" stroke="#003a50" stroke-linecap="round" stroke-linejoin="round" stroke-width="0.4"/><line x1="237.72" y1="156.39" x2="239.92" y2="164.6" fill="none" stroke="#003a50" stroke-linecap="round" stroke-linejoin="round" stroke-width="0.4"/><polygon points="237.72 156.39 239.92 164.6 242.12 156.39 237.72 156.39" fill="#003a50"/><line x1="225.1" y1="164.6" x2="241.56" y2="164.6" fill="none" stroke="#003a50" stroke-linecap="round" stroke-linejoin="round" stroke-width="0.4"/><line x1="239.92" y1="164.6" x2="225.1" y2="164.6" fill="none" stroke="#003a50" stroke-linecap="round" stroke-linejoin="round" stroke-width="0.4"/><g clip-path="url(#clip-path)"><path d="M227.27,141.41h8.12v.83H228v1.92h-.74Z" fill="#003a50"/><path d="M227.27,137.22h8.12v.84H228V140h-.74Z" fill="#003a50"/><path d="M227.27,129.56h.59l7.53,3.4v.9L228,130.52v4.18h1.52v.82h-2.26Z" fill="#003a50"/><path d="M235,127.12a3.31,3.31,0,0,1-1.43,1.15,6.11,6.11,0,0,1-4.4,0,3.31,3.31,0,0,1-1.43-1.15,3.06,3.06,0,0,1,0-3.35,3.31,3.31,0,0,1,1.43-1.15,6,6,0,0,1,4.4,0,3.31,3.31,0,0,1,1.43,1.15,3.06,3.06,0,0,1,0,3.35Zm-.66-2.92a2.54,2.54,0,0,0-1.15-.84,5.67,5.67,0,0,0-3.64,0,2.6,2.6,0,0,0-1.15.84,2.18,2.18,0,0,0,0,2.49,2.6,2.6,0,0,0,1.15.84,5.67,5.67,0,0,0,3.64,0,2.54,2.54,0,0,0,1.15-.84,2.18,2.18,0,0,0,0-2.49Z" fill="#003a50"/></g><line x1="239.92" y1="100.72" x2="239.92" y2="17.27" fill="none" stroke="#003a50" stroke-linecap="round" stroke-linejoin="round" stroke-width="0.4"/><line x1="239.92" y1="17.27" x2="237.72" y2="25.48" fill="none" stroke="#003a50" stroke-linecap="round" stroke-linejoin="round" stroke-width="0.4"/><line x1="237.72" y1="25.48" x2="242.12" y2="25.48" fill="none" stroke="#003a50" stroke-linecap="round" stroke-linejoin="round" stroke-width="0.4"/><line x1="242.12" y1="25.48" x2="239.92" y2="17.27" fill="none" stroke="#003a50" stroke-linecap="round" stroke-linejoin="round" stroke-width="0.4"/><polygon points="237.72 25.48 242.12 25.48 239.92 17.27 237.72 25.48" fill="#003a50"/><line x1="235.76" y1="17.27" x2="241.56" y2="17.27" fill="none" stroke="#003a50" stroke-linecap="round" stroke-linejoin="round" stroke-width="0.4"/><line x1="239.92" y1="17.27" x2="235.76" y2="17.27" fill="none" stroke="#003a50" stroke-linecap="round" stroke-linejoin="round" stroke-width="0.4"/><line x1="239.92" y1="100.72" x2="242.12" y2="92.51" fill="none" stroke="#003a50" stroke-linecap="round" stroke-linejoin="round" stroke-width="0.4"/><line x1="242.12" y1="92.51" x2="237.72" y2="92.51" fill="none" stroke="#003a50" stroke-linecap="round" stroke-linejoin="round" stroke-width="0.4"/><line x1="237.72" y1="92.51" x2="239.92" y2="100.72" fill="none" stroke="#003a50" stroke-linecap="round" stroke-linejoin="round" stroke-width="0.4"/><polygon points="237.72 92.51 239.92 100.72 242.12 92.51 237.72 92.51" fill="#003a50"/><line x1="239.92" y1="100.72" x2="237.72" y2="108.92" fill="none" stroke="#003a50" stroke-linecap="round" stroke-linejoin="round" stroke-width="0.4"/><line x1="237.72" y1="108.92" x2="242.12" y2="108.92" fill="none" stroke="#003a50" stroke-linecap="round" stroke-linejoin="round" stroke-width="0.4"/><line x1="242.12" y1="108.92" x2="239.92" y2="100.72" fill="none" stroke="#003a50" stroke-linecap="round" stroke-linejoin="round" stroke-width="0.4"/><polygon points="237.72 108.92 242.12 108.92 239.92 100.72 237.72 108.92" fill="#003a50"/><line x1="225.1" y1="100.72" x2="241.56" y2="100.72" fill="none" stroke="#003a50" stroke-linecap="round" stroke-linejoin="round" stroke-width="0.4"/><line x1="239.92" y1="100.72" x2="225.1" y2="100.72" fill="none" stroke="#003a50" stroke-linecap="round" stroke-linejoin="round" stroke-width="0.4"/><g clip-path="url(#clip-path)"><path d="M227.27,68.78h8.12v.84H228v1.91h-.75Z" fill="#003a50"/><path d="M231.23,62.15a2.11,2.11,0,0,1,1.77-.81,2.42,2.42,0,0,1,1.26.33,2.25,2.25,0,0,1,.88,1,3.76,3.76,0,0,1,.32,1.63,4.77,4.77,0,0,1-.29,1.65,3.39,3.39,0,0,1-.76,1.26l-.66-.41a2.94,2.94,0,0,0,.68-1.07,3.7,3.7,0,0,0,.26-1.42,2.42,2.42,0,0,0-.45-1.56,1.46,1.46,0,0,0-1.2-.55,1.43,1.43,0,0,0-1.27.62,3.86,3.86,0,0,0-.43,2.09v1.73l-4.07-.42V61.77H228v3.71l2.58.28v-1A4.16,4.16,0,0,1,231.23,62.15Z" fill="#003a50"/><path d="M231.44,55.64a2.11,2.11,0,0,1,1.62-.66,2.31,2.31,0,0,1,1.23.33,2.27,2.27,0,0,1,.85,1,3.73,3.73,0,0,1,.32,1.61,4.89,4.89,0,0,1-.29,1.67,3.27,3.27,0,0,1-.76,1.25l-.66-.4a2.9,2.9,0,0,0,.68-1.08,3.84,3.84,0,0,0,.26-1.44,2.41,2.41,0,0,0-.43-1.54,1.46,1.46,0,0,0-1.2-.54,1.42,1.42,0,0,0-1.18.54,2.6,2.6,0,0,0-.43,1.65v.58h-.62L228,56.36v4.15h-.75V55.29h.59l2.89,2.3A3.08,3.08,0,0,1,231.44,55.64Z" fill="#003a50"/><path d="M235,52.25a3.31,3.31,0,0,1-1.43,1.15,6.11,6.11,0,0,1-4.4,0,3.31,3.31,0,0,1-1.43-1.15,3.06,3.06,0,0,1,0-3.35,3.33,3.33,0,0,1,1.43-1.16,6.11,6.11,0,0,1,4.4,0A3.33,3.33,0,0,1,235,48.9a3.06,3.06,0,0,1,0,3.35Zm-.66-2.92a2.54,2.54,0,0,0-1.15-.84,5.5,5.5,0,0,0-3.64,0,2.6,2.6,0,0,0-1.15.84,2.06,2.06,0,0,0-.39,1.24,2.09,2.09,0,0,0,.39,1.25,2.6,2.6,0,0,0,1.15.84,5.67,5.67,0,0,0,3.64,0,2.54,2.54,0,0,0,1.15-.84,2.09,2.09,0,0,0,.39-1.25A2.06,2.06,0,0,0,234.3,49.33Z" fill="#003a50"/></g><line x1="223.46" y1="36.51" x2="524.41" y2="36.51" fill="none" stroke="#003a50" stroke-linecap="round" stroke-linejoin="round" stroke-width="0.4"/><line x1="524.41" y1="36.51" x2="516.2" y2="34.31" fill="none" stroke="#003a50" stroke-linecap="round" stroke-linejoin="round" stroke-width="0.4"/><line x1="516.2" y1="34.31" x2="516.2" y2="38.71" fill="none" stroke="#003a50" stroke-linecap="round" stroke-linejoin="round" stroke-width="0.4"/><line x1="516.2" y1="38.71" x2="524.41" y2="36.51" fill="none" stroke="#003a50" stroke-linecap="round" stroke-linejoin="round" stroke-width="0.4"/><polygon points="516.2 38.71 524.41 36.51 516.2 34.31 516.2 38.71" fill="#003a50"/><line x1="524.41" y1="32.35" x2="524.41" y2="38.15" fill="none" stroke="#003a50" stroke-linecap="round" stroke-linejoin="round" stroke-width="0.4"/><line x1="524.41" y1="36.51" x2="524.41" y2="32.35" fill="none" stroke="#003a50" stroke-linecap="round" stroke-linejoin="round" stroke-width="0.4"/><line x1="223.46" y1="36.51" x2="231.67" y2="38.71" fill="none" stroke="#003a50" stroke-linecap="round" stroke-linejoin="round" stroke-width="0.4"/><line x1="231.67" y1="38.71" x2="231.67" y2="34.31" fill="none" stroke="#003a50" stroke-linecap="round" stroke-linejoin="round" stroke-width="0.4"/><line x1="231.67" y1="34.31" x2="223.46" y2="36.51" fill="none" stroke="#003a50" stroke-linecap="round" stroke-linejoin="round" stroke-width="0.4"/><polygon points="223.46 36.51 231.67 38.71 231.67 34.31 223.46 36.51" fill="#003a50"/><line x1="223.46" y1="32.35" x2="223.46" y2="38.15" fill="none" stroke="#003a50" stroke-linecap="round" stroke-linejoin="round" stroke-width="0.4"/><line x1="223.46" y1="36.51" x2="223.46" y2="32.35" fill="none" stroke="#003a50" stroke-linecap="round" stroke-linejoin="round" stroke-width="0.4"/><g clip-path="url(#clip-path)"><path d="M364.6,27.82a2.11,2.11,0,0,1,.81,1.77,2.42,2.42,0,0,1-.33,1.26,2.31,2.31,0,0,1-1,.88,3.82,3.82,0,0,1-1.63.31,4.77,4.77,0,0,1-1.65-.28,3.39,3.39,0,0,1-1.26-.76l.41-.66A2.86,2.86,0,0,0,361,31a3.9,3.9,0,0,0,1.42.26,2.42,2.42,0,0,0,1.56-.45,1.48,1.48,0,0,0,.55-1.21,1.44,1.44,0,0,0-.62-1.26,3.77,3.77,0,0,0-2.09-.43h-1.73l.42-4.07H365v.74h-3.71L361,27.19h1A4.18,4.18,0,0,1,364.6,27.82Z" fill="#003a50"/><path d="M371.1,27.82a2.11,2.11,0,0,1,.81,1.77,2.42,2.42,0,0,1-.33,1.26,2.31,2.31,0,0,1-1,.88A3.75,3.75,0,0,1,369,32a4.82,4.82,0,0,1-1.66-.28,3.27,3.27,0,0,1-1.25-.76l.4-.66a2.94,2.94,0,0,0,1.07.68,3.9,3.9,0,0,0,1.42.26,2.38,2.38,0,0,0,1.56-.45,1.48,1.48,0,0,0,.55-1.21,1.42,1.42,0,0,0-.62-1.26,3.77,3.77,0,0,0-2.09-.43h-1.73l.42-4.07h4.44v.74h-3.71l-.28,2.59h1.05A4.15,4.15,0,0,1,371.1,27.82Z" fill="#003a50"/><path d="M374.52,31.55a3.28,3.28,0,0,1-1.14-1.43,6,6,0,0,1,0-4.4,3.22,3.22,0,0,1,1.14-1.43,2.94,2.94,0,0,1,1.68-.5,2.91,2.91,0,0,1,1.67.5A3.26,3.26,0,0,1,379,25.72a6,6,0,0,1,0,4.4,3.32,3.32,0,0,1-1.16,1.43,2.9,2.9,0,0,1-1.67.49A2.93,2.93,0,0,1,374.52,31.55Zm2.93-.66a2.76,2.76,0,0,0,.84-1.15,5.67,5.67,0,0,0,0-3.64,2.69,2.69,0,0,0-.84-1.15,2.2,2.2,0,0,0-2.5,0,2.54,2.54,0,0,0-.84,1.15,5.67,5.67,0,0,0,0,3.64,2.6,2.6,0,0,0,.84,1.15,2.2,2.2,0,0,0,2.5,0Z" fill="#003a50"/><path d="M382.2,31.55a3.3,3.3,0,0,1-1.15-1.43,6.11,6.11,0,0,1,0-4.4,3.24,3.24,0,0,1,1.15-1.43,3.06,3.06,0,0,1,3.35,0,3.31,3.31,0,0,1,1.15,1.43,6,6,0,0,1,0,4.4,3.37,3.37,0,0,1-1.15,1.43,3.11,3.11,0,0,1-3.35,0Zm2.92-.66a2.6,2.6,0,0,0,.84-1.15,5.67,5.67,0,0,0,0-3.64,2.54,2.54,0,0,0-.84-1.15,2.09,2.09,0,0,0-1.25-.39,2.06,2.06,0,0,0-1.24.39,2.54,2.54,0,0,0-.84,1.15,5.67,5.67,0,0,0,0,3.64,2.6,2.6,0,0,0,.84,1.15,2.06,2.06,0,0,0,1.24.39A2.09,2.09,0,0,0,385.12,30.89Z" fill="#003a50"/></g><line x1="122.24" y1="84.47" x2="166.01" y2="84.47" fill="none" stroke="#003a50" stroke-linecap="round" stroke-linejoin="round" stroke-width="0.4"/><line x1="166.01" y1="84.47" x2="157.8" y2="82.27" fill="none" stroke="#003a50" stroke-linecap="round" stroke-linejoin="round" stroke-width="0.4"/><line x1="157.8" y1="82.27" x2="157.8" y2="86.67" fill="none" stroke="#003a50" stroke-linecap="round" stroke-linejoin="round" stroke-width="0.4"/><line x1="157.8" y1="86.67" x2="166.01" y2="84.47" fill="none" stroke="#003a50" stroke-linecap="round" stroke-linejoin="round" stroke-width="0.4"/><polygon points="157.8 86.67 166.01 84.47 157.8 82.27 157.8 86.67" fill="#003a50"/><line x1="166.01" y1="80.31" x2="166.01" y2="86.11" fill="none" stroke="#003a50" stroke-linecap="round" stroke-linejoin="round" stroke-width="0.4"/><line x1="166.01" y1="84.47" x2="166.01" y2="80.31" fill="none" stroke="#003a50" stroke-linecap="round" stroke-linejoin="round" stroke-width="0.4"/><line x1="122.24" y1="84.47" x2="130.44" y2="86.67" fill="none" stroke="#003a50" stroke-linecap="round" stroke-linejoin="round" stroke-width="0.4"/><line x1="130.44" y1="86.67" x2="130.44" y2="82.27" fill="none" stroke="#003a50" stroke-linecap="round" stroke-linejoin="round" stroke-width="0.4"/><line x1="130.44" y1="82.27" x2="122.24" y2="84.47" fill="none" stroke="#003a50" stroke-linecap="round" stroke-linejoin="round" stroke-width="0.4"/><polygon points="122.24 84.47 130.44 86.67 130.44 82.27 122.24 84.47" fill="#003a50"/><line x1="122.24" y1="80.31" x2="122.24" y2="86.11" fill="none" stroke="#003a50" stroke-linecap="round" stroke-linejoin="round" stroke-width="0.4"/><line x1="122.24" y1="84.47" x2="122.24" y2="80.31" fill="none" stroke="#003a50" stroke-linecap="round" stroke-linejoin="round" stroke-width="0.4"/><g clip-path="url(#clip-path)"><path d="M138.45,76.45a1.92,1.92,0,0,1,.41,1.23,2,2,0,0,1-.39,1.23,2.41,2.41,0,0,1-1.09.81,4.54,4.54,0,0,1-1.68.29,3.71,3.71,0,0,1-2.29-.63,2,2,0,0,1-.84-1.7,2,2,0,0,1,.4-1.24,2.49,2.49,0,0,1,1.17-.76,1.93,1.93,0,0,1-.95-.7,1.8,1.8,0,0,1-.33-1.08,1.88,1.88,0,0,1,.77-1.57,3.43,3.43,0,0,1,2.07-.58,4,4,0,0,1,1.5.26,2.38,2.38,0,0,1,1,.75,1.87,1.87,0,0,1,.36,1.14,1.8,1.8,0,0,1-.34,1.08,2,2,0,0,1-1,.7A2.51,2.51,0,0,1,138.45,76.45Zm-1.06,2.41a1.4,1.4,0,0,0,.61-1.2,1.36,1.36,0,0,0-.61-1.18A2.88,2.88,0,0,0,135.7,76a2.81,2.81,0,0,0-1.67.44,1.36,1.36,0,0,0-.61,1.18,1.4,1.4,0,0,0,.6,1.2,2.82,2.82,0,0,0,1.68.44A2.88,2.88,0,0,0,137.39,78.86ZM134.23,75a3,3,0,0,0,3,0,1.32,1.32,0,0,0,0-2.14,2.51,2.51,0,0,0-1.47-.39,2.43,2.43,0,0,0-1.46.39,1.27,1.27,0,0,0-.54,1.07A1.28,1.28,0,0,0,134.23,75Z" fill="#003a50"/><path d="M141.58,79.51a3.17,3.17,0,0,1-1.15-1.43,6.11,6.11,0,0,1,0-4.4,3.17,3.17,0,0,1,1.15-1.43,2.91,2.91,0,0,1,1.67-.5,3,3,0,0,1,1.68.5,3.31,3.31,0,0,1,1.15,1.43,6,6,0,0,1,0,4.4,3.31,3.31,0,0,1-1.15,1.43,3,3,0,0,1-1.68.5A2.91,2.91,0,0,1,141.58,79.51Zm2.92-.66a2.6,2.6,0,0,0,.84-1.15,5.67,5.67,0,0,0,0-3.64,2.54,2.54,0,0,0-.84-1.15,2.2,2.2,0,0,0-2.5,0,2.54,2.54,0,0,0-.84,1.15,5.67,5.67,0,0,0,0,3.64,2.6,2.6,0,0,0,.84,1.15,2.2,2.2,0,0,0,2.5,0Z" fill="#003a50"/><path d="M149.25,79.51a3.31,3.31,0,0,1-1.15-1.43,6.11,6.11,0,0,1,0-4.4,3.31,3.31,0,0,1,1.15-1.43,3.06,3.06,0,0,1,3.35,0,3.31,3.31,0,0,1,1.15,1.43,6,6,0,0,1,0,4.4,3.31,3.31,0,0,1-1.15,1.43,3.06,3.06,0,0,1-3.35,0Zm2.92-.66A2.6,2.6,0,0,0,153,77.7a5.67,5.67,0,0,0,0-3.64,2.54,2.54,0,0,0-.84-1.15,2.18,2.18,0,0,0-2.49,0,2.54,2.54,0,0,0-.84,1.15,5.67,5.67,0,0,0,0,3.64,2.6,2.6,0,0,0,.84,1.15,2.18,2.18,0,0,0,2.49,0Z" fill="#003a50"/></g></svg>