<svg id="Слой_1" data-name="Слой 1" xmlns="http://www.w3.org/2000/svg" xmlns:xlink="http://www.w3.org/1999/xlink" viewBox="0 0 612.28 228.47"><defs><clipPath id="clip-path"><polygon points="0 0 0 228.47 571.69 228.47 578.83 163.76 578.84 163.76 578.84 163.71 612.18 163.71 612.18 75.65 578.84 75.65 578.84 47.67 566.5 47.67 566.5 0 0 0" fill="none"/></clipPath></defs><g clip-path="url(#clip-path)"><path d="M179.81-93l7.45-7.44m66.4-66.4,15.62-15.63M179.81-75.63l24.85-24.85m49-49,33-33M179.81-58.23l39.52-39.52m34.33-34.32L303.54-182M179.81-40.82l56.93-56.93m16.92-16.92,65.11-65.11m-139,156.36L336.17-179.78M179.81-6,353.58-179.78M190.49.72,371-179.78M207.9.72l180.49-180.5M225.3.72l180.5-180.5M242.71.72,423.2-179.78M260.12.72l180.49-180.5M277.52.72,458-179.78M294.93.72l180.49-180.5M312.33.72l180.5-180.5M329.74.72l180.49-180.5M347.14.72l180.5-180.5M364.55.72,529.9-164.63M382,.72,529.9-147.23M399.36.72,529.9-129.82M416.77.72,529.9-112.42M434.18.72,529.9-95M451.58.72,529.9-77.6M469,.72,529.9-60.2M486.39.72,529.9-42.79M503.8.72l26.1-26.1M521.2.72,529.9-8M181.61.72l-1.8-1.8M199,.72l-19.2-19.2M216.42.72,179.81-35.89m54,36.61-54-54m71.42,54L179.81-70.7M268.64.72,179.81-88.11M286,.72l-101.2-101.2M303.45.72l-101.2-101.2M320.86.72,222.39-97.75M338.26.72,239.8-97.75M355.66.72l-102-102M373.07.72,253.66-118.7M390.48.72,253.66-136.1M407.88.72,253.66-153.51M425.29.72,253.66-170.92M442.7.72,259.78-182.2M460.1.72,276.87-182.51M477.51.72,294.28-182.51M494.91.72,314.42-179.78M512.32.72,331.83-179.78M529.72.72,349.23-179.78M529.9-16.52,366.64-179.78M529.9-33.92,384-179.78M529.9-51.33,401.45-179.78M529.9-68.73l-111-111m111,93.64-93.64-93.64m93.64,76.24-76.23-76.24m76.23,58.83-58.83-58.83m58.83,41.42-41.42-41.42m41.42,24-24-24m24,6.61-6.61-6.61" fill="none" stroke="#809da8" stroke-linecap="round" stroke-linejoin="round" stroke-width="0.2"/></g><path d="M349.39,73.37H529.9M218.1,130.81H529.9M218.1,188.24H529.9M213.61,115.61V82.77m57.44,132.67V82.77m57.44,132.67V82.77m57.44,132.67V17.13m57.43,198.31V17.13M500.8,215.44V17.13" fill="none" stroke="#809da8" stroke-linecap="round" stroke-linejoin="round" stroke-width="0.2"/><path d="M103.23,122.79l1.71-1.71m-1.71,19.12,19.11-19.12m0,0,1.61-1.61M103.23,157.6l39.26-39.25M103.23,175l56.66-56.66m-56.66,74.07,71.33-71.34m-71.33,88.74L192,121.08M115,215.44l94.36-94.36m-77,94.36,80.21-80.21m-62.8,80.21,62.8-62.8m-45.4,62.8,45.4-45.4m-28,45.4,28-28m-10.59,28,10.59-10.59m-94.79,10.59-14.61-14.61m32,14.61-32-32m49.42,32L103.23,166m66.83,49.42-66.83-66.82m84.23,66.82-84.23-84.23m101.64,84.23-94.36-94.36M212.63,205.8l-87.45-87.45m87.45,70-70-70m70,52.64L160,118.35m52.64,35.23-32.5-32.5m32.5,15.1-15.09-15.1" fill="none" stroke="#809da8" stroke-linecap="round" stroke-linejoin="round" stroke-width="0.2"/><path d="M59.47,73.37H207.16M67.67,130.81H97.76m1-15.2V17.13m57.44,101.22V17.13" fill="none" stroke="#809da8" stroke-linecap="round" stroke-linejoin="round" stroke-width="0.2"/><g clip-path="url(#clip-path)"><path d="M93.93-98.94H95m82.05,0h2.74m-83.14,0H135m1.65,0h1.05M59.47-41.5H179.81M98.74.72v-101.2m57.44,79.32V-97.75" fill="none" stroke="#809da8" stroke-linecap="round" stroke-linejoin="round" stroke-width="0.2"/></g><path d="M207.16,18.86l1.73-1.73m-1.73,19.13L226.3,17.13M207.16,53.67l36.55-36.54m-36.55,54,54-53.95M212.88,82.77l65.64-65.64M230.28,82.77l65.64-65.64M247.69,82.77l65.64-65.64M265.09,82.77l65.64-65.64M282.5,82.77l65.64-65.64M299.91,82.77l49.48-49.48M317.31,82.77,349.39,50.7M334.72,82.77,349.39,68.1M211.44,82.77l-4.28-4.28m21.69,4.28L207.16,61.08m39.09,21.69L207.16,43.68m56.5,39.09-56.5-56.5m73.91,56.5L215.43,17.13m83,65.64L232.83,17.13m83,65.64L250.24,17.13m83,65.64L267.64,17.13m81.75,64.33L285.05,17.13m64.34,46.93L302.45,17.13m46.94,29.52L319.86,17.13m29.53,12.12L337.27,17.13" fill="none" stroke="#809da8" stroke-linecap="round" stroke-linejoin="round" stroke-width="0.2"/><line x1="207.16" y1="115.61" x2="207.16" y2="49.95" fill="none" stroke="#809da8" stroke-linecap="round" stroke-linejoin="round" stroke-width="0.4" stroke-dasharray="0.04 0.08"/><line x1="349.39" y1="17.13" x2="349.39" y2="82.77" fill="none" stroke="#809da8" stroke-linecap="round" stroke-linejoin="round" stroke-width="0.4" stroke-dasharray="0.04 0.08"/><line x1="349.39" y1="82.77" x2="207.16" y2="82.77" fill="none" stroke="#809da8" stroke-linecap="round" stroke-linejoin="round" stroke-width="0.4" stroke-dasharray="0.04 0.08"/><g clip-path="url(#clip-path)"><rect x="-561.43" y="-1376.26" width="1115.44" height="2194.74" fill="none" stroke="#003a50" stroke-miterlimit="10"/><polygon points="-536.61 -290.27 -536.61 795.52 529.87 795.52 529.87 -1351.81 -536.61 -1351.96 -536.61 -359.06 -536.61 -290.27" fill="none" stroke="#003a50" stroke-miterlimit="10"/></g><rect x="540.78" y="76.19" width="4.56" height="87.34" fill="#fff"/><rect x="540.78" y="76.19" width="4.56" height="87.34" fill="none" stroke="#003a50" stroke-miterlimit="10"/><line x1="543.06" y1="163.54" x2="543.06" y2="76.2" fill="none" stroke="#003a50" stroke-miterlimit="10"/><rect x="540.78" y="159.13" width="4.56" height="4.41" fill="#fff"/><rect x="540.78" y="159.13" width="4.56" height="4.41" fill="none" stroke="#003a50" stroke-miterlimit="10"/><rect x="540.78" y="76.19" width="4.56" height="4.41" fill="#fff"/><rect x="540.78" y="76.19" width="4.56" height="4.41" fill="none" stroke="#003a50" stroke-miterlimit="10"/><rect x="540.78" y="117.66" width="4.56" height="4.41" fill="#fff"/><rect x="540.78" y="117.66" width="4.56" height="4.41" fill="none" stroke="#003a50" stroke-miterlimit="10"/><polygon points="141.73 0.71 141.73 17.13 157.93 17.13 160.28 17.13 223.78 17.13 223.78 0.71 141.73 0.71" fill="#003a50"/><polygon points="58.25 215.44 57.48 218.9 63.57 222.28 51.26 222.28 51.26 228.47 363.06 228.47 363.06 215.44 58.25 215.44" fill="#003a50"/><polygon points="97.76 121.08 97.76 177.35 97.76 215.44 103.23 215.44 103.23 121.08 97.76 121.08" fill="#003a50"/><polygon points="67.67 167.58 67.67 173.05 70.41 173.05 71.97 173.05 97.76 173.05 97.76 167.58 67.67 167.58" fill="#003a50"/><polygon points="223.78 0.71 223.78 17.13 250.6 17.13 253.66 17.13 458.79 17.13 458.79 0.71 223.78 0.71" fill="#003a50"/><path d="M97.76,115.61v5.47h24.62v-5.47Zm68.38,0v5.47h52v-5.47Z" fill="#003a50"/><rect x="212.63" y="121.08" width="5.47" height="94.36" fill="#003a50"/><polygon points="67.67 0.71 67.67 17.13 74.61 17.13 100.49 17.13 100.49 0.71 67.67 0.71" fill="#003a50"/><polygon points="179.81 33.54 179.81 39.01 185.28 39.01 201.69 39.01 201.69 33.54 179.81 33.54" fill="#003a50"/><rect x="179.81" y="17.13" width="5.47" height="16.41" fill="#003a50"/><path d="M51.26,110.14V222.28H63.57l-6.09-3.38.77-3.46h9.42V110.14Zm0-54.7H67.67V0H51.26Z" fill="#003a50"/><polygon points="201.69 17.13 201.69 39.01 201.69 49.95 207.16 49.95 207.16 17.13 201.69 17.13" fill="#003a50"/><rect x="100.49" y="0.71" width="41.23" height="16.41" fill="#003a50"/><rect x="152.46" width="5.47" height="0.72" fill="#003a50"/><rect x="174.34" width="5.47" height="0.72" fill="#003a50"/><rect x="458.79" y="0.71" width="82.06" height="16.41" fill="#003a50"/><rect x="363.06" y="215.44" width="177.78" height="13.03" fill="#003a50"/><path d="M529.9,163.39v52.05h10.94V163.39Zm0-87.53h10.94V17.13H529.9ZM529.9,0V.71h10.94V0Z" fill="#003a50"/><path d="M540.84,163.39v65.08h9.85V163.39Zm0-87.52h9.85V0h-9.85Z" fill="#003a50"/><polygon points="67.67 132.02 67.67 137.49 70.41 137.49 97.76 137.49 97.76 132.02 67.67 132.02" fill="#003a50"/><g clip-path="url(#clip-path)"><line x1="223.78" y1="17.13" x2="223.78" y2="0.72" fill="none" stroke="#003a50" stroke-linecap="round" stroke-linejoin="round" stroke-width="1.6"/><line x1="141.73" y1="0.72" x2="141.73" y2="17.13" fill="none" stroke="#003a50" stroke-linecap="round" stroke-linejoin="round" stroke-width="1.6"/><line x1="51.26" y1="229.12" x2="75.88" y2="229.12" fill="none" stroke="#003a50" stroke-linecap="round" stroke-linejoin="round" stroke-width="1.6"/><line x1="86.82" y1="229.12" x2="95.02" y2="229.12" fill="none" stroke="#003a50" stroke-linecap="round" stroke-linejoin="round" stroke-width="1.6"/><line x1="142.89" y1="229.12" x2="148.36" y2="229.12" fill="none" stroke="#003a50" stroke-linecap="round" stroke-linejoin="round" stroke-width="1.6"/><line x1="164.83" y1="229.12" x2="291.95" y2="229.12" fill="none" stroke="#003a50" stroke-linecap="round" stroke-linejoin="round" stroke-width="1.6"/><line x1="363.06" y1="229.12" x2="363.06" y2="215.44" fill="none" stroke="#003a50" stroke-linecap="round" stroke-linejoin="round" stroke-width="1.6"/></g><line x1="540.84" y1="215.44" x2="103.23" y2="215.44" fill="none" stroke="#003a50" stroke-linecap="round" stroke-linejoin="round" stroke-width="1.6"/><line x1="67.67" y1="215.44" x2="51.26" y2="215.44" fill="none" stroke="#003a50" stroke-linecap="round" stroke-linejoin="round" stroke-width="1.6"/><line x1="97.76" y1="115.61" x2="97.76" y2="132.02" fill="none" stroke="#003a50" stroke-linecap="round" stroke-linejoin="round" stroke-width="1.6"/><line x1="97.76" y1="137.49" x2="97.76" y2="167.58" fill="none" stroke="#003a50" stroke-linecap="round" stroke-linejoin="round" stroke-width="1.6"/><line x1="103.23" y1="215.44" x2="103.23" y2="121.08" fill="none" stroke="#003a50" stroke-linecap="round" stroke-linejoin="round" stroke-width="1.6"/><line x1="97.76" y1="167.58" x2="67.67" y2="167.58" fill="none" stroke="#003a50" stroke-linecap="round" stroke-linejoin="round" stroke-width="1.6"/><g clip-path="url(#clip-path)"><line x1="540.84" y1="0.72" x2="67.67" y2="0.72" fill="none" stroke="#003a50" stroke-linecap="round" stroke-linejoin="round" stroke-width="1.6"/><line x1="458.79" y1="17.13" x2="458.79" y2="0.72" fill="none" stroke="#003a50" stroke-linecap="round" stroke-linejoin="round" stroke-width="1.6"/></g><line x1="218.1" y1="115.61" x2="166.13" y2="115.61" fill="none" stroke="#003a50" stroke-linecap="round" stroke-linejoin="round" stroke-width="1.6"/><line x1="166.14" y1="115.61" x2="166.14" y2="121.08" fill="none" stroke="#003a50" stroke-linecap="round" stroke-linejoin="round" stroke-width="1.6"/><line x1="166.14" y1="121.08" x2="212.63" y2="121.08" fill="none" stroke="#003a50" stroke-linecap="round" stroke-linejoin="round" stroke-width="1.6"/><line x1="122.37" y1="115.61" x2="97.76" y2="115.61" fill="none" stroke="#003a50" stroke-linecap="round" stroke-linejoin="round" stroke-width="1.6"/><line x1="103.23" y1="121.08" x2="122.37" y2="121.08" fill="none" stroke="#003a50" stroke-linecap="round" stroke-linejoin="round" stroke-width="1.6"/><line x1="122.37" y1="121.08" x2="122.37" y2="115.61" fill="none" stroke="#003a50" stroke-linecap="round" stroke-linejoin="round" stroke-width="1.6"/><line x1="218.1" y1="215.44" x2="218.1" y2="115.61" fill="none" stroke="#003a50" stroke-linecap="round" stroke-linejoin="round" stroke-width="1.6"/><line x1="212.63" y1="121.08" x2="212.63" y2="215.44" fill="none" stroke="#003a50" stroke-linecap="round" stroke-linejoin="round" stroke-width="1.6"/><g clip-path="url(#clip-path)"><line x1="168.87" y1="229.12" x2="168.87" y2="248.26" fill="none" stroke="#003a50" stroke-linecap="round" stroke-linejoin="round" stroke-width="1.6"/><line x1="174.34" y1="312.54" x2="174.34" y2="229.12" fill="none" stroke="#003a50" stroke-linecap="round" stroke-linejoin="round" stroke-width="1.6"/><line x1="291.95" y1="229.12" x2="291.95" y2="312.54" fill="none" stroke="#003a50" stroke-linecap="round" stroke-linejoin="round" stroke-width="1.6"/><line x1="297.42" y1="318.01" x2="297.42" y2="229.12" fill="none" stroke="#003a50" stroke-linecap="round" stroke-linejoin="round" stroke-width="1.6"/><line x1="100.49" y1="17.13" x2="100.49" y2="0.72" fill="none" stroke="#003a50" stroke-linecap="round" stroke-linejoin="round" stroke-width="1.6"/></g><line x1="201.69" y1="33.54" x2="185.28" y2="33.54" fill="none" stroke="#003a50" stroke-linecap="round" stroke-linejoin="round" stroke-width="1.6"/><line x1="179.81" y1="39.01" x2="201.69" y2="39.01" fill="none" stroke="#003a50" stroke-linecap="round" stroke-linejoin="round" stroke-width="1.6"/><line x1="179.81" y1="17.13" x2="179.81" y2="39.01" fill="none" stroke="#003a50" stroke-linecap="round" stroke-linejoin="round" stroke-width="1.6"/><g clip-path="url(#clip-path)"><line x1="51.26" y1="-38.12" x2="51.26" y2="55.44" fill="none" stroke="#003a50" stroke-linecap="round" stroke-linejoin="round" stroke-width="1.6"/></g><line x1="51.26" y1="55.44" x2="67.67" y2="55.44" fill="none" stroke="#003a50" stroke-linecap="round" stroke-linejoin="round" stroke-width="1.6"/><line x1="67.67" y1="55.44" x2="67.67" y2="17.13" fill="none" stroke="#003a50" stroke-linecap="round" stroke-linejoin="round" stroke-width="1.6"/><g clip-path="url(#clip-path)"><line x1="67.67" y1="0.72" x2="67.67" y2="-38.12" fill="none" stroke="#003a50" stroke-linecap="round" stroke-linejoin="round" stroke-width="1.6"/><line x1="51.26" y1="110.14" x2="51.26" y2="229.12" fill="none" stroke="#003a50" stroke-linecap="round" stroke-linejoin="round" stroke-width="1.6"/></g><line x1="56.73" y1="222.28" x2="67.67" y2="222.28" fill="none" stroke="#003a50" stroke-linecap="round" stroke-linejoin="round" stroke-width="1.6"/><line x1="67.67" y1="222.28" x2="67.67" y2="215.44" fill="none" stroke="#003a50" stroke-linecap="round" stroke-linejoin="round" stroke-width="1.6"/><line x1="67.67" y1="132.02" x2="67.67" y2="110.14" fill="none" stroke="#003a50" stroke-linecap="round" stroke-linejoin="round" stroke-width="1.6"/><line x1="67.67" y1="110.14" x2="51.26" y2="110.14" fill="none" stroke="#003a50" stroke-linecap="round" stroke-linejoin="round" stroke-width="1.6"/><g clip-path="url(#clip-path)"><line x1="86.82" y1="248.26" x2="86.82" y2="229.12" fill="none" stroke="#003a50" stroke-linecap="round" stroke-linejoin="round" stroke-width="1.6"/><line x1="75.88" y1="229.12" x2="75.88" y2="281.09" fill="none" stroke="#003a50" stroke-linecap="round" stroke-linejoin="round" stroke-width="1.6"/><line x1="56.73" y1="230.49" x2="56.73" y2="222.28" fill="none" stroke="#003a50" stroke-linecap="round" stroke-linejoin="round" stroke-width="1.6"/></g><line x1="207.16" y1="49.95" x2="207.16" y2="17.13" fill="none" stroke="#003a50" stroke-linecap="round" stroke-linejoin="round" stroke-width="1.6"/><line x1="540.84" y1="17.13" x2="201.69" y2="17.13" fill="none" stroke="#003a50" stroke-linecap="round" stroke-linejoin="round" stroke-width="1.6"/><line x1="201.69" y1="17.13" x2="201.69" y2="33.54" fill="none" stroke="#003a50" stroke-linecap="round" stroke-linejoin="round" stroke-width="1.6"/><line x1="201.69" y1="39.01" x2="201.69" y2="49.95" fill="none" stroke="#003a50" stroke-linecap="round" stroke-linejoin="round" stroke-width="1.6"/><line x1="201.69" y1="49.95" x2="207.16" y2="49.95" fill="none" stroke="#003a50" stroke-linecap="round" stroke-linejoin="round" stroke-width="1.6"/><line x1="67.67" y1="17.13" x2="179.81" y2="17.13" fill="none" stroke="#003a50" stroke-linecap="round" stroke-linejoin="round" stroke-width="1.6"/><g clip-path="url(#clip-path)"><line x1="152.46" y1="-21.16" x2="152.46" y2="0.72" fill="none" stroke="#003a50" stroke-linecap="round" stroke-linejoin="round" stroke-width="1.6"/><line x1="152.46" y1="0.72" x2="157.93" y2="0.72" fill="none" stroke="#003a50" stroke-linecap="round" stroke-linejoin="round" stroke-width="1.6"/><line x1="174.34" y1="-15.69" x2="174.34" y2="0.72" fill="none" stroke="#003a50" stroke-linecap="round" stroke-linejoin="round" stroke-width="1.6"/><line x1="174.34" y1="0.72" x2="179.81" y2="0.72" fill="none" stroke="#003a50" stroke-linecap="round" stroke-linejoin="round" stroke-width="1.6"/><line x1="179.81" y1="0.72" x2="179.81" y2="-32.1" fill="none" stroke="#003a50" stroke-linecap="round" stroke-linejoin="round" stroke-width="1.6"/><line x1="540.84" y1="17.13" x2="540.84" y2="0.72" fill="none" stroke="#003a50" stroke-linecap="round" stroke-linejoin="round" stroke-width="1.6"/><line x1="297.42" y1="229.12" x2="540.84" y2="229.12" fill="none" stroke="#003a50" stroke-linecap="round" stroke-linejoin="round" stroke-width="1.6"/><line x1="540.84" y1="229.12" x2="540.84" y2="215.44" fill="none" stroke="#003a50" stroke-linecap="round" stroke-linejoin="round" stroke-width="1.6"/></g><line x1="97.76" y1="132.02" x2="67.67" y2="132.02" fill="none" stroke="#003a50" stroke-linecap="round" stroke-linejoin="round" stroke-width="1.6"/><line x1="86.82" y1="137.49" x2="97.76" y2="137.49" fill="none" stroke="#003a50" stroke-linecap="round" stroke-linejoin="round" stroke-width="1.6"/><polygon points="550.69 0 550.69 75.32 550.69 75.86 573.66 75.86 573.66 48.52 556.24 48.52 556.24 0 550.69 0" fill="#003a50"/><line x1="122.37" y1="119.44" x2="123.47" y2="119.44" fill="none" stroke="#003a50" stroke-linecap="round" stroke-linejoin="round" stroke-width="1.6"/><line x1="123.47" y1="115.61" x2="122.37" y2="115.61" fill="none" stroke="#003a50" stroke-linecap="round" stroke-linejoin="round" stroke-width="1.6"/><line x1="165.04" y1="119.44" x2="166.14" y2="119.44" fill="none" stroke="#003a50" stroke-linecap="round" stroke-linejoin="round" stroke-width="1.6"/><line x1="166.14" y1="115.61" x2="165.04" y2="115.61" fill="none" stroke="#003a50" stroke-linecap="round" stroke-linejoin="round" stroke-width="1.6"/><line x1="165.04" y1="115.61" x2="163.4" y2="115.61" fill="none" stroke="#003a50" stroke-linecap="round" stroke-linejoin="round" stroke-width="1.6"/><line x1="163.4" y1="115.61" x2="163.4" y2="119.44" fill="none" stroke="#003a50" stroke-linecap="round" stroke-linejoin="round" stroke-width="1.6"/><line x1="163.4" y1="119.44" x2="165.04" y2="119.44" fill="none" stroke="#003a50" stroke-linecap="round" stroke-linejoin="round" stroke-width="1.6"/><line x1="165.04" y1="119.44" x2="165.04" y2="115.61" fill="none" stroke="#003a50" stroke-linecap="round" stroke-linejoin="round" stroke-width="1.6"/><line x1="123.47" y1="115.61" x2="123.47" y2="119.44" fill="none" stroke="#003a50" stroke-linecap="round" stroke-linejoin="round" stroke-width="1.6"/><line x1="123.47" y1="119.44" x2="125.11" y2="119.44" fill="none" stroke="#003a50" stroke-linecap="round" stroke-linejoin="round" stroke-width="1.6"/><line x1="125.11" y1="119.44" x2="125.11" y2="115.61" fill="none" stroke="#003a50" stroke-linecap="round" stroke-linejoin="round" stroke-width="1.6"/><line x1="125.11" y1="115.61" x2="123.47" y2="115.61" fill="none" stroke="#003a50" stroke-linecap="round" stroke-linejoin="round" stroke-width="1.6"/><g clip-path="url(#clip-path)"><path d="M163.4,115.61a38.29,38.29,0,0,0-38.29-38.29" fill="none" stroke="#003a50" stroke-linecap="round" stroke-linejoin="round" stroke-width="1.6"/></g><line x1="125.11" y1="115.61" x2="125.11" y2="77.32" fill="none" stroke="#003a50" stroke-linecap="round" stroke-linejoin="round" stroke-width="1.6"/><line x1="55.09" y1="110.14" x2="55.09" y2="109.05" fill="none" stroke="#003a50" stroke-linecap="round" stroke-linejoin="round" stroke-width="1.6"/><line x1="51.26" y1="109.05" x2="51.26" y2="110.14" fill="none" stroke="#003a50" stroke-linecap="round" stroke-linejoin="round" stroke-width="1.6"/><line x1="55.09" y1="56.53" x2="55.09" y2="55.44" fill="none" stroke="#003a50" stroke-linecap="round" stroke-linejoin="round" stroke-width="1.6"/><line x1="51.26" y1="55.44" x2="51.26" y2="56.53" fill="none" stroke="#003a50" stroke-linecap="round" stroke-linejoin="round" stroke-width="1.6"/><line x1="51.26" y1="109.05" x2="55.09" y2="109.05" fill="none" stroke="#003a50" stroke-linecap="round" stroke-linejoin="round" stroke-width="1.6"/><line x1="55.09" y1="109.05" x2="55.09" y2="107.41" fill="none" stroke="#003a50" stroke-linecap="round" stroke-linejoin="round" stroke-width="1.6"/><line x1="55.09" y1="107.41" x2="51.26" y2="107.41" fill="none" stroke="#003a50" stroke-linecap="round" stroke-linejoin="round" stroke-width="1.6"/><line x1="51.26" y1="107.41" x2="51.26" y2="109.05" fill="none" stroke="#003a50" stroke-linecap="round" stroke-linejoin="round" stroke-width="1.6"/><line x1="51.26" y1="56.53" x2="51.26" y2="58.17" fill="none" stroke="#003a50" stroke-linecap="round" stroke-linejoin="round" stroke-width="1.6"/><line x1="51.26" y1="58.18" x2="55.09" y2="58.18" fill="none" stroke="#003a50" stroke-linecap="round" stroke-linejoin="round" stroke-width="1.6"/><line x1="55.09" y1="58.18" x2="55.09" y2="56.54" fill="none" stroke="#003a50" stroke-linecap="round" stroke-linejoin="round" stroke-width="1.6"/><line x1="55.09" y1="56.53" x2="51.26" y2="56.53" fill="none" stroke="#003a50" stroke-linecap="round" stroke-linejoin="round" stroke-width="1.6"/><g clip-path="url(#clip-path)"><path d="M51.26,58.18A49.23,49.23,0,0,0,2,107.41" fill="none" stroke="#003a50" stroke-linecap="round" stroke-linejoin="round" stroke-width="1.6"/><line x1="51.26" y1="107.41" x2="2.03" y2="107.41" fill="none" stroke="#003a50" stroke-linecap="round" stroke-linejoin="round" stroke-width="1.6"/></g><polygon points="550.68 163.42 550.68 228.47 570.6 228.47 578.04 163.42 550.68 163.42" fill="#003a50"/><line x1="40.75" y1="110.07" x2="40.75" y2="55.36" fill="none" stroke="#003a50" stroke-linecap="round" stroke-linejoin="round" stroke-width="0.4"/><line x1="40.75" y1="55.36" x2="38.55" y2="63.56" fill="none" stroke="#003a50" stroke-linecap="round" stroke-linejoin="round" stroke-width="0.4"/><line x1="38.55" y1="63.56" x2="42.95" y2="63.56" fill="none" stroke="#003a50" stroke-linecap="round" stroke-linejoin="round" stroke-width="0.4"/><line x1="42.94" y1="63.56" x2="40.74" y2="55.36" fill="none" stroke="#003a50" stroke-linecap="round" stroke-linejoin="round" stroke-width="0.4"/><polygon points="38.55 63.56 42.95 63.56 40.75 55.36 38.55 63.56" fill="#003a50"/><line x1="36.58" y1="55.36" x2="42.39" y2="55.36" fill="none" stroke="#003a50" stroke-linecap="round" stroke-linejoin="round" stroke-width="0.4"/><line x1="40.75" y1="55.36" x2="36.58" y2="55.36" fill="none" stroke="#003a50" stroke-linecap="round" stroke-linejoin="round" stroke-width="0.4"/><line x1="40.75" y1="110.07" x2="42.95" y2="101.86" fill="none" stroke="#003a50" stroke-linecap="round" stroke-linejoin="round" stroke-width="0.4"/><line x1="42.94" y1="101.87" x2="38.54" y2="101.87" fill="none" stroke="#003a50" stroke-linecap="round" stroke-linejoin="round" stroke-width="0.4"/><line x1="38.55" y1="101.87" x2="40.75" y2="110.07" fill="none" stroke="#003a50" stroke-linecap="round" stroke-linejoin="round" stroke-width="0.4"/><polygon points="38.55 101.86 40.75 110.07 42.95 101.86 38.55 101.86" fill="#003a50"/><line x1="36.58" y1="110.07" x2="42.39" y2="110.07" fill="none" stroke="#003a50" stroke-linecap="round" stroke-linejoin="round" stroke-width="0.4"/><line x1="40.75" y1="110.07" x2="36.58" y2="110.07" fill="none" stroke="#003a50" stroke-linecap="round" stroke-linejoin="round" stroke-width="0.4"/><g clip-path="url(#clip-path)"><path d="M28.1,93.63h8.11v.84H28.84v1.91H28.1Z" fill="#003a50"/><path d="M35.78,90.14a3.31,3.31,0,0,1-1.43,1.15,6.08,6.08,0,0,1-4.39,0,3.31,3.31,0,0,1-1.43-1.15,3.06,3.06,0,0,1,0-3.35A3.33,3.33,0,0,1,30,85.63a6.08,6.08,0,0,1,4.39,0,3.33,3.33,0,0,1,1.43,1.16,3.06,3.06,0,0,1,0,3.35Zm-.66-2.92A2.51,2.51,0,0,0,34,86.38a5.53,5.53,0,0,0-3.65,0,2.51,2.51,0,0,0-1.14.84,2,2,0,0,0-.4,1.24,2,2,0,0,0,.4,1.25,2.51,2.51,0,0,0,1.14.84,5.7,5.7,0,0,0,3.65,0,2.51,2.51,0,0,0,1.14-.84,2,2,0,0,0,.4-1.25A2,2,0,0,0,35.12,87.22Z" fill="#003a50"/><path d="M35.78,82.46a3.24,3.24,0,0,1-1.43,1.15,6.08,6.08,0,0,1-4.39,0,3.24,3.24,0,0,1-1.43-1.15,3.06,3.06,0,0,1,0-3.35A3.31,3.31,0,0,1,30,78a5.95,5.95,0,0,1,4.39,0,3.31,3.31,0,0,1,1.43,1.15,3.06,3.06,0,0,1,0,3.35Zm-.66-2.92A2.51,2.51,0,0,0,34,78.7a5.7,5.7,0,0,0-3.65,0,2.51,2.51,0,0,0-1.14.84,2,2,0,0,0-.4,1.25,2,2,0,0,0,.4,1.24,2.51,2.51,0,0,0,1.14.84,5.53,5.53,0,0,0,3.65,0A2.51,2.51,0,0,0,35.12,82a2,2,0,0,0,.4-1.24A2,2,0,0,0,35.12,79.54Z" fill="#003a50"/><path d="M35.78,74.79a3.31,3.31,0,0,1-1.43,1.15,6.08,6.08,0,0,1-4.39,0,3.31,3.31,0,0,1-1.43-1.15,3.06,3.06,0,0,1,0-3.35A3.24,3.24,0,0,1,30,70.29a5.95,5.95,0,0,1,4.39,0,3.24,3.24,0,0,1,1.43,1.15,3.06,3.06,0,0,1,0,3.35Zm-.66-2.92A2.51,2.51,0,0,0,34,71a5.7,5.7,0,0,0-3.65,0,2.51,2.51,0,0,0-1.14.84,2.14,2.14,0,0,0,0,2.49,2.51,2.51,0,0,0,1.14.84,5.7,5.7,0,0,0,3.65,0,2.51,2.51,0,0,0,1.14-.84,2.14,2.14,0,0,0,0-2.49Z" fill="#003a50"/></g><line x1="488.93" y1="215.4" x2="488.93" y2="17.03" fill="none" stroke="#003a50" stroke-linecap="round" stroke-linejoin="round" stroke-width="0.4"/><line x1="488.93" y1="17.03" x2="486.73" y2="25.24" fill="none" stroke="#003a50" stroke-linecap="round" stroke-linejoin="round" stroke-width="0.4"/><line x1="486.73" y1="25.24" x2="491.13" y2="25.24" fill="none" stroke="#003a50" stroke-linecap="round" stroke-linejoin="round" stroke-width="0.4"/><line x1="491.13" y1="25.24" x2="488.93" y2="17.03" fill="none" stroke="#003a50" stroke-linecap="round" stroke-linejoin="round" stroke-width="0.4"/><polygon points="486.73 25.24 491.13 25.24 488.93 17.03 486.73 25.24" fill="#003a50"/><line x1="484.77" y1="17.03" x2="490.57" y2="17.03" fill="none" stroke="#003a50" stroke-linecap="round" stroke-linejoin="round" stroke-width="0.4"/><line x1="488.93" y1="17.03" x2="484.77" y2="17.03" fill="none" stroke="#003a50" stroke-linecap="round" stroke-linejoin="round" stroke-width="0.4"/><line x1="488.93" y1="215.4" x2="491.13" y2="207.19" fill="none" stroke="#003a50" stroke-linecap="round" stroke-linejoin="round" stroke-width="0.4"/><line x1="491.13" y1="207.2" x2="486.73" y2="207.2" fill="none" stroke="#003a50" stroke-linecap="round" stroke-linejoin="round" stroke-width="0.4"/><line x1="486.73" y1="207.2" x2="488.93" y2="215.4" fill="none" stroke="#003a50" stroke-linecap="round" stroke-linejoin="round" stroke-width="0.4"/><polygon points="486.73 207.19 488.93 215.4 491.13 207.19 486.73 207.19" fill="#003a50"/><line x1="484.77" y1="215.4" x2="490.57" y2="215.4" fill="none" stroke="#003a50" stroke-linecap="round" stroke-linejoin="round" stroke-width="0.4"/><line x1="488.93" y1="215.4" x2="484.77" y2="215.4" fill="none" stroke="#003a50" stroke-linecap="round" stroke-linejoin="round" stroke-width="0.4"/><g clip-path="url(#clip-path)"><path d="M480.45,125.09a2.08,2.08,0,0,1,1.62-.67,2.21,2.21,0,0,1,2.08,1.33,3.73,3.73,0,0,1,.32,1.61,4.84,4.84,0,0,1-.29,1.67,3.39,3.39,0,0,1-.76,1.26l-.66-.41a2.9,2.9,0,0,0,.68-1.08,4,4,0,0,0,.26-1.44,2.43,2.43,0,0,0-.43-1.54,1.46,1.46,0,0,0-1.2-.54,1.44,1.44,0,0,0-1.19.54,2.69,2.69,0,0,0-.42,1.65v.58h-.62L477,125.8V130h-.74v-5.22h.59l2.89,2.3A3,3,0,0,1,480.45,125.09Z" fill="#003a50"/><path d="M479.84,118.47a2.3,2.3,0,0,1,.85-1,2.39,2.39,0,0,1,1.28-.35,2.36,2.36,0,0,1,1.31.36,2.42,2.42,0,0,1,.88,1,3.29,3.29,0,0,1,.31,1.42,3,3,0,0,1-1.06,2.47,4.68,4.68,0,0,1-3,.86,5.15,5.15,0,0,1-2.3-.46,3.32,3.32,0,0,1-1.42-1.3,3.86,3.86,0,0,1-.48-1.95,3.66,3.66,0,0,1,.44-1.92l.68.33a2.8,2.8,0,0,0-.39,1.58,2.73,2.73,0,0,0,.85,2.11,3.61,3.61,0,0,0,2.48.76l.66,0a2.22,2.22,0,0,1-1-1,3.13,3.13,0,0,1-.36-1.52A3.19,3.19,0,0,1,479.84,118.47Zm3.44,0a1.76,1.76,0,0,0-2.56,0,2.25,2.25,0,0,0-.47,1.49,2.36,2.36,0,0,0,.23,1.09,1.85,1.85,0,0,0,.64.74,1.66,1.66,0,0,0,.9.26,1.54,1.54,0,0,0,.86-.25,1.84,1.84,0,0,0,.64-.73,2.61,2.61,0,0,0,.24-1.16A2.12,2.12,0,0,0,483.28,118.52Z" fill="#003a50"/><path d="M480.45,111.49a2.08,2.08,0,0,1,1.62-.67,2.23,2.23,0,0,1,1.23.34,2.28,2.28,0,0,1,.85,1,3.69,3.69,0,0,1,.32,1.61,4.83,4.83,0,0,1-.29,1.66,3.39,3.39,0,0,1-.76,1.26l-.66-.41a2.9,2.9,0,0,0,.68-1.08,4,4,0,0,0,.26-1.43,2.44,2.44,0,0,0-.43-1.55,1.46,1.46,0,0,0-1.2-.54,1.44,1.44,0,0,0-1.19.54,2.71,2.71,0,0,0-.42,1.65v.58h-.62L477,112.2v4.15h-.74v-5.21h.59l2.89,2.29A3,3,0,0,1,480.45,111.49Z" fill="#003a50"/><path d="M484,108.09a3.24,3.24,0,0,1-1.43,1.15,6.11,6.11,0,0,1-4.4,0,3.24,3.24,0,0,1-1.43-1.15,3.06,3.06,0,0,1,0-3.35,3.31,3.31,0,0,1,1.43-1.15,6,6,0,0,1,4.4,0,3.31,3.31,0,0,1,1.43,1.15,3.06,3.06,0,0,1,0,3.35Zm-.66-2.92a2.6,2.6,0,0,0-1.15-.84,5.67,5.67,0,0,0-3.64,0,2.54,2.54,0,0,0-1.15.84,2.09,2.09,0,0,0-.39,1.25,2.06,2.06,0,0,0,.39,1.24,2.54,2.54,0,0,0,1.15.84,5.5,5.5,0,0,0,3.64,0,2.6,2.6,0,0,0,1.15-.84,2.06,2.06,0,0,0,.39-1.24A2.09,2.09,0,0,0,483.31,105.17Z" fill="#003a50"/><line x1="488.93" y1="-179.93" x2="488.93" y2="0.62" fill="none" stroke="#003a50" stroke-linecap="round" stroke-linejoin="round" stroke-width="0.4"/><line x1="488.93" y1="0.62" x2="491.13" y2="-7.59" fill="none" stroke="#003a50" stroke-linecap="round" stroke-linejoin="round" stroke-width="0.4"/><line x1="486.73" y1="-7.59" x2="488.93" y2="0.62" fill="none" stroke="#003a50" stroke-linecap="round" stroke-linejoin="round" stroke-width="0.4"/></g><polygon points="488.76 0 488.93 0.62 489.1 0 488.76 0" fill="#003a50"/><line x1="460.39" y1="0.62" x2="490.57" y2="0.62" fill="none" stroke="#003a50" stroke-linecap="round" stroke-linejoin="round" stroke-width="0.4"/><line x1="488.93" y1="0.62" x2="460.39" y2="0.62" fill="none" stroke="#003a50" stroke-linecap="round" stroke-linejoin="round" stroke-width="0.4"/><g clip-path="url(#clip-path)"><line x1="85.42" y1="0.62" x2="85.42" y2="-97.87" fill="none" stroke="#003a50" stroke-linecap="round" stroke-linejoin="round" stroke-width="0.4"/><line x1="85.42" y1="0.62" x2="87.62" y2="-7.59" fill="none" stroke="#003a50" stroke-linecap="round" stroke-linejoin="round" stroke-width="0.4"/><line x1="83.23" y1="-7.59" x2="85.43" y2="0.62" fill="none" stroke="#003a50" stroke-linecap="round" stroke-linejoin="round" stroke-width="0.4"/></g><polygon points="85.26 0 85.42 0.62 85.59 0 85.26 0" fill="#003a50"/><line x1="81.26" y1="0.62" x2="87.07" y2="0.62" fill="none" stroke="#003a50" stroke-linecap="round" stroke-linejoin="round" stroke-width="0.4"/><line x1="85.42" y1="0.62" x2="81.26" y2="0.62" fill="none" stroke="#003a50" stroke-linecap="round" stroke-linejoin="round" stroke-width="0.4"/><g clip-path="url(#clip-path)"><line x1="275.62" y1="0.62" x2="275.62" y2="-97.87" fill="none" stroke="#003a50" stroke-linecap="round" stroke-linejoin="round" stroke-width="0.4"/><line x1="275.62" y1="0.62" x2="277.82" y2="-7.59" fill="none" stroke="#003a50" stroke-linecap="round" stroke-linejoin="round" stroke-width="0.4"/><line x1="273.42" y1="-7.59" x2="275.62" y2="0.62" fill="none" stroke="#003a50" stroke-linecap="round" stroke-linejoin="round" stroke-width="0.4"/></g><polygon points="275.45 0 275.62 0.62 275.78 0 275.45 0" fill="#003a50"/><line x1="271.45" y1="0.62" x2="277.26" y2="0.62" fill="none" stroke="#003a50" stroke-linecap="round" stroke-linejoin="round" stroke-width="0.4"/><line x1="275.62" y1="0.62" x2="271.45" y2="0.62" fill="none" stroke="#003a50" stroke-linecap="round" stroke-linejoin="round" stroke-width="0.4"/><line x1="122.24" y1="135.37" x2="166.01" y2="135.37" fill="none" stroke="#003a50" stroke-linecap="round" stroke-linejoin="round" stroke-width="0.4"/><line x1="166.01" y1="135.37" x2="157.8" y2="133.17" fill="none" stroke="#003a50" stroke-linecap="round" stroke-linejoin="round" stroke-width="0.4"/><line x1="157.8" y1="133.17" x2="157.8" y2="137.57" fill="none" stroke="#003a50" stroke-linecap="round" stroke-linejoin="round" stroke-width="0.4"/><line x1="157.8" y1="137.57" x2="166.01" y2="135.37" fill="none" stroke="#003a50" stroke-linecap="round" stroke-linejoin="round" stroke-width="0.4"/><polygon points="157.8 137.57 166.01 135.37 157.8 133.17 157.8 137.57" fill="#003a50"/><line x1="166.01" y1="131.2" x2="166.01" y2="137.01" fill="none" stroke="#003a50" stroke-linecap="round" stroke-linejoin="round" stroke-width="0.4"/><line x1="166.01" y1="135.37" x2="166.01" y2="131.2" fill="none" stroke="#003a50" stroke-linecap="round" stroke-linejoin="round" stroke-width="0.4"/><line x1="122.24" y1="135.37" x2="130.45" y2="137.57" fill="none" stroke="#003a50" stroke-linecap="round" stroke-linejoin="round" stroke-width="0.4"/><line x1="130.44" y1="137.57" x2="130.44" y2="133.17" fill="none" stroke="#003a50" stroke-linecap="round" stroke-linejoin="round" stroke-width="0.4"/><line x1="130.44" y1="133.17" x2="122.24" y2="135.37" fill="none" stroke="#003a50" stroke-linecap="round" stroke-linejoin="round" stroke-width="0.4"/><polygon points="122.24 135.37 130.44 137.57 130.44 133.16 122.24 135.37" fill="#003a50"/><line x1="122.24" y1="131.2" x2="122.24" y2="137.01" fill="none" stroke="#003a50" stroke-linecap="round" stroke-linejoin="round" stroke-width="0.4"/><line x1="122.24" y1="135.37" x2="122.24" y2="131.2" fill="none" stroke="#003a50" stroke-linecap="round" stroke-linejoin="round" stroke-width="0.4"/><g clip-path="url(#clip-path)"><path d="M138.45,127.34a1.92,1.92,0,0,1,.41,1.23,2.06,2.06,0,0,1-.39,1.24,2.41,2.41,0,0,1-1.09.81,4.55,4.55,0,0,1-1.68.28,3.71,3.71,0,0,1-2.29-.63,2,2,0,0,1-.84-1.7,1.93,1.93,0,0,1,.4-1.23,2.42,2.42,0,0,1,1.17-.76,2.06,2.06,0,0,1-.95-.7,1.83,1.83,0,0,1-.33-1.09,1.86,1.86,0,0,1,.77-1.56,3.37,3.37,0,0,1,2.07-.58,3.8,3.8,0,0,1,1.5.26,2.23,2.23,0,0,1,1,.75,1.94,1.94,0,0,1,0,2.22,2.15,2.15,0,0,1-1,.7A2.5,2.5,0,0,1,138.45,127.34Zm-1.06,2.41a1.47,1.47,0,0,0,0-2.38,2.88,2.88,0,0,0-1.69-.43,2.81,2.81,0,0,0-1.67.43,1.38,1.38,0,0,0-.61,1.19,1.4,1.4,0,0,0,.6,1.2,3.48,3.48,0,0,0,3.37,0Zm-3.16-3.87a2.92,2.92,0,0,0,3,0,1.23,1.23,0,0,0,.54-1,1.24,1.24,0,0,0-.55-1.08,2.51,2.51,0,0,0-1.47-.4,2.43,2.43,0,0,0-1.46.4,1.25,1.25,0,0,0-.54,1.06A1.27,1.27,0,0,0,134.23,125.88Z" fill="#003a50"/><path d="M141.58,130.4a3.17,3.17,0,0,1-1.15-1.43,6.08,6.08,0,0,1,0-4.39,3.17,3.17,0,0,1,1.15-1.43,2.84,2.84,0,0,1,1.67-.5,2.89,2.89,0,0,1,1.68.5,3.31,3.31,0,0,1,1.15,1.43,5.95,5.95,0,0,1,0,4.39,3.31,3.31,0,0,1-1.15,1.43,3,3,0,0,1-1.68.5A2.91,2.91,0,0,1,141.58,130.4Zm2.92-.66a2.49,2.49,0,0,0,.84-1.15,5.67,5.67,0,0,0,0-3.64,2.51,2.51,0,0,0-.84-1.14,2.15,2.15,0,0,0-2.5,0,2.51,2.51,0,0,0-.84,1.14,5.67,5.67,0,0,0,0,3.64,2.49,2.49,0,0,0,.84,1.15,2.15,2.15,0,0,0,2.5,0Z" fill="#003a50"/><path d="M149.25,130.4A3.31,3.31,0,0,1,148.1,129a6.08,6.08,0,0,1,0-4.39,3.31,3.31,0,0,1,1.15-1.43,3.06,3.06,0,0,1,3.35,0,3.31,3.31,0,0,1,1.15,1.43,5.95,5.95,0,0,1,0,4.39,3.31,3.31,0,0,1-1.15,1.43,3.06,3.06,0,0,1-3.35,0Zm2.92-.66a2.49,2.49,0,0,0,.84-1.15,5.67,5.67,0,0,0,0-3.64,2.51,2.51,0,0,0-.84-1.14,2.14,2.14,0,0,0-2.49,0,2.51,2.51,0,0,0-.84,1.14,5.67,5.67,0,0,0,0,3.64,2.49,2.49,0,0,0,.84,1.15,2.14,2.14,0,0,0,2.49,0Z" fill="#003a50"/></g><line x1="234.58" y1="17.03" x2="234.58" y2="49.86" fill="none" stroke="#003a50" stroke-linecap="round" stroke-linejoin="round" stroke-width="0.4"/><line x1="234.58" y1="49.86" x2="232.38" y2="58.07" fill="none" stroke="#003a50" stroke-linecap="round" stroke-linejoin="round" stroke-width="0.4"/><line x1="232.38" y1="58.07" x2="236.78" y2="58.07" fill="none" stroke="#003a50" stroke-linecap="round" stroke-linejoin="round" stroke-width="0.4"/><line x1="236.78" y1="58.07" x2="234.58" y2="49.86" fill="none" stroke="#003a50" stroke-linecap="round" stroke-linejoin="round" stroke-width="0.4"/><polygon points="232.38 58.07 236.78 58.07 234.58 49.86 232.38 58.07" fill="#003a50"/><line x1="234.58" y1="49.86" x2="236.78" y2="41.65" fill="none" stroke="#003a50" stroke-linecap="round" stroke-linejoin="round" stroke-width="0.4"/><line x1="236.78" y1="41.65" x2="232.38" y2="41.65" fill="none" stroke="#003a50" stroke-linecap="round" stroke-linejoin="round" stroke-width="0.4"/><line x1="232.38" y1="41.65" x2="234.58" y2="49.86" fill="none" stroke="#003a50" stroke-linecap="round" stroke-linejoin="round" stroke-width="0.4"/><polygon points="232.38 41.65 234.58 49.86 236.78 41.65 232.38 41.65" fill="#003a50"/><line x1="208.69" y1="49.86" x2="236.22" y2="49.86" fill="none" stroke="#003a50" stroke-linecap="round" stroke-linejoin="round" stroke-width="0.4"/><line x1="234.58" y1="49.86" x2="208.69" y2="49.86" fill="none" stroke="#003a50" stroke-linecap="round" stroke-linejoin="round" stroke-width="0.4"/><line x1="234.58" y1="17.03" x2="232.38" y2="25.24" fill="none" stroke="#003a50" stroke-linecap="round" stroke-linejoin="round" stroke-width="0.4"/><line x1="232.38" y1="25.24" x2="236.78" y2="25.24" fill="none" stroke="#003a50" stroke-linecap="round" stroke-linejoin="round" stroke-width="0.4"/><line x1="236.78" y1="25.24" x2="234.58" y2="17.03" fill="none" stroke="#003a50" stroke-linecap="round" stroke-linejoin="round" stroke-width="0.4"/><polygon points="232.38 25.24 236.78 25.24 234.58 17.03 232.38 25.24" fill="#003a50"/><line x1="238.74" y1="17.03" x2="232.94" y2="17.03" fill="none" stroke="#003a50" stroke-linecap="round" stroke-linejoin="round" stroke-width="0.4"/><line x1="234.58" y1="17.03" x2="238.74" y2="17.03" fill="none" stroke="#003a50" stroke-linecap="round" stroke-linejoin="round" stroke-width="0.4"/><g clip-path="url(#clip-path)"><path d="M225.49,40a2.24,2.24,0,0,1,2.13-1.31,2.38,2.38,0,0,1,1.31.36,2.36,2.36,0,0,1,.88,1,3.25,3.25,0,0,1,.3,1.42,3,3,0,0,1-1.06,2.47,4.63,4.63,0,0,1-3,.85,5.15,5.15,0,0,1-2.3-.46,3.26,3.26,0,0,1-1.42-1.3,3.81,3.81,0,0,1-.48-2,3.69,3.69,0,0,1,.44-1.92l.67.34a2.85,2.85,0,0,0-.38,1.57,2.71,2.71,0,0,0,.85,2.11,3.61,3.61,0,0,0,2.48.77,5.52,5.52,0,0,0,.66,0,2.22,2.22,0,0,1-1-1,3.13,3.13,0,0,1-.36-1.52A3.25,3.25,0,0,1,225.49,40Zm3.44.06a1.76,1.76,0,0,0-2.56,0,2.18,2.18,0,0,0-.47,1.49,2.32,2.32,0,0,0,.23,1.08,1.76,1.76,0,0,0,.63.74,1.62,1.62,0,0,0,.91.27,1.65,1.65,0,0,0,.86-.25,1.78,1.78,0,0,0,.63-.74,2.45,2.45,0,0,0,.25-1.16A2.1,2.1,0,0,0,228.93,40Z" fill="#003a50"/><path d="M229.62,36.14a3.2,3.2,0,0,1-1.44,1.15,6.08,6.08,0,0,1-4.39,0,3.17,3.17,0,0,1-1.43-1.15,2.91,2.91,0,0,1-.5-1.67,3,3,0,0,1,.5-1.68,3.31,3.31,0,0,1,1.43-1.15,5.95,5.95,0,0,1,4.39,0,3.34,3.34,0,0,1,1.44,1.15,3,3,0,0,1,.49,1.68A2.9,2.9,0,0,1,229.62,36.14ZM229,33.22a2.6,2.6,0,0,0-1.15-.84,5.67,5.67,0,0,0-3.64,0,2.54,2.54,0,0,0-1.15.84,2.2,2.2,0,0,0,0,2.5,2.54,2.54,0,0,0,1.15.84,5.67,5.67,0,0,0,3.64,0,2.6,2.6,0,0,0,1.15-.84,2.2,2.2,0,0,0,0-2.5Z" fill="#003a50"/><path d="M229.62,28.47a3.34,3.34,0,0,1-1.44,1.15,6.08,6.08,0,0,1-4.39,0,3.31,3.31,0,0,1-1.43-1.15,3.06,3.06,0,0,1,0-3.35A3.31,3.31,0,0,1,223.79,24a5.95,5.95,0,0,1,4.39,0,3.34,3.34,0,0,1,1.44,1.15,3.11,3.11,0,0,1,0,3.35ZM229,25.55a2.6,2.6,0,0,0-1.15-.84,5.67,5.67,0,0,0-3.64,0,2.54,2.54,0,0,0-1.15.84A2.18,2.18,0,0,0,223,28a2.54,2.54,0,0,0,1.15.84,5.67,5.67,0,0,0,3.64,0A2.6,2.6,0,0,0,229,28a2.18,2.18,0,0,0,0-2.49Z" fill="#003a50"/></g><line x1="234.58" y1="49.86" x2="234.58" y2="115.55" fill="none" stroke="#003a50" stroke-linecap="round" stroke-linejoin="round" stroke-width="0.4"/><line x1="234.58" y1="115.54" x2="232.38" y2="123.75" fill="none" stroke="#003a50" stroke-linecap="round" stroke-linejoin="round" stroke-width="0.4"/><line x1="232.38" y1="123.75" x2="236.78" y2="123.75" fill="none" stroke="#003a50" stroke-linecap="round" stroke-linejoin="round" stroke-width="0.4"/><line x1="236.78" y1="123.75" x2="234.58" y2="115.54" fill="none" stroke="#003a50" stroke-linecap="round" stroke-linejoin="round" stroke-width="0.4"/><polygon points="232.38 123.75 236.78 123.75 234.58 115.55 232.38 123.75" fill="#003a50"/><line x1="234.58" y1="115.54" x2="236.78" y2="107.34" fill="none" stroke="#003a50" stroke-linecap="round" stroke-linejoin="round" stroke-width="0.4"/><line x1="236.78" y1="107.34" x2="232.38" y2="107.34" fill="none" stroke="#003a50" stroke-linecap="round" stroke-linejoin="round" stroke-width="0.4"/><line x1="232.38" y1="107.34" x2="234.58" y2="115.55" fill="none" stroke="#003a50" stroke-linecap="round" stroke-linejoin="round" stroke-width="0.4"/><polygon points="232.38 107.34 234.58 115.55 236.78 107.34 232.38 107.34" fill="#003a50"/><line x1="219.63" y1="115.54" x2="236.22" y2="115.54" fill="none" stroke="#003a50" stroke-linecap="round" stroke-linejoin="round" stroke-width="0.4"/><line x1="234.58" y1="115.54" x2="219.63" y2="115.54" fill="none" stroke="#003a50" stroke-linecap="round" stroke-linejoin="round" stroke-width="0.4"/><line x1="234.58" y1="49.86" x2="232.38" y2="58.07" fill="none" stroke="#003a50" stroke-linecap="round" stroke-linejoin="round" stroke-width="0.4"/><line x1="232.38" y1="58.07" x2="236.78" y2="58.07" fill="none" stroke="#003a50" stroke-linecap="round" stroke-linejoin="round" stroke-width="0.4"/><line x1="236.78" y1="58.07" x2="234.58" y2="49.86" fill="none" stroke="#003a50" stroke-linecap="round" stroke-linejoin="round" stroke-width="0.4"/><polygon points="232.38 58.07 236.78 58.07 234.58 49.86 232.38 58.07" fill="#003a50"/><line x1="234.58" y1="49.86" x2="236.78" y2="41.65" fill="none" stroke="#003a50" stroke-linecap="round" stroke-linejoin="round" stroke-width="0.4"/><line x1="236.78" y1="41.65" x2="232.38" y2="41.65" fill="none" stroke="#003a50" stroke-linecap="round" stroke-linejoin="round" stroke-width="0.4"/><line x1="232.38" y1="41.65" x2="234.58" y2="49.86" fill="none" stroke="#003a50" stroke-linecap="round" stroke-linejoin="round" stroke-width="0.4"/><polygon points="232.38 41.65 234.58 49.86 236.78 41.65 232.38 41.65" fill="#003a50"/><line x1="208.69" y1="49.86" x2="236.22" y2="49.86" fill="none" stroke="#003a50" stroke-linecap="round" stroke-linejoin="round" stroke-width="0.4"/><line x1="234.58" y1="49.86" x2="208.69" y2="49.86" fill="none" stroke="#003a50" stroke-linecap="round" stroke-linejoin="round" stroke-width="0.4"/><g clip-path="url(#clip-path)"><path d="M221.93,93.06H230v.84h-7.37v1.91h-.74Z" fill="#003a50"/><path d="M229.3,85.58H230v5.7h-.59l-3.3-3.38a4.59,4.59,0,0,0-1.08-.86,2.13,2.13,0,0,0-.93-.23,1.35,1.35,0,0,0-1.11.5,2.14,2.14,0,0,0-.4,1.4,2.79,2.79,0,0,0,.9,2.22l-.51.59a3.14,3.14,0,0,1-.86-1.21,4.38,4.38,0,0,1-.3-1.66,3,3,0,0,1,.59-2,2,2,0,0,1,1.6-.72,2.85,2.85,0,0,1,1.21.27,5.2,5.2,0,0,1,1.33,1.06l2.71,2.76Z" fill="#003a50"/><path d="M229.62,83a3.25,3.25,0,0,1-1.44,1.14,5.95,5.95,0,0,1-4.39,0A3.22,3.22,0,0,1,222.36,83a3.06,3.06,0,0,1,0-3.35,3.33,3.33,0,0,1,1.43-1.16,6.08,6.08,0,0,1,4.39,0,3.36,3.36,0,0,1,1.44,1.16,3.11,3.11,0,0,1,0,3.35ZM229,80.1a2.6,2.6,0,0,0-1.15-.84,5.5,5.5,0,0,0-3.64,0,2.54,2.54,0,0,0-1.15.84,2,2,0,0,0-.39,1.24,2.09,2.09,0,0,0,.39,1.25,2.54,2.54,0,0,0,1.15.84,5.67,5.67,0,0,0,3.64,0,2.6,2.6,0,0,0,1.15-.84,2.09,2.09,0,0,0,.39-1.25A2,2,0,0,0,229,80.1Z" fill="#003a50"/><path d="M229.62,75.34a3.27,3.27,0,0,1-1.44,1.15,6.08,6.08,0,0,1-4.39,0,3.24,3.24,0,0,1-1.43-1.15,3.06,3.06,0,0,1,0-3.35,3.31,3.31,0,0,1,1.43-1.15,5.95,5.95,0,0,1,4.39,0A3.34,3.34,0,0,1,229.62,72a3.11,3.11,0,0,1,0,3.35ZM229,72.42a2.6,2.6,0,0,0-1.15-.84,5.67,5.67,0,0,0-3.64,0,2.54,2.54,0,0,0-1.15.84,2.09,2.09,0,0,0-.39,1.25,2,2,0,0,0,.39,1.24,2.54,2.54,0,0,0,1.15.84,5.5,5.5,0,0,0,3.64,0,2.6,2.6,0,0,0,1.15-.84,2,2,0,0,0,.39-1.24A2.09,2.09,0,0,0,229,72.42Z" fill="#003a50"/></g><line x1="234.58" y1="115.54" x2="234.58" y2="215.4" fill="none" stroke="#003a50" stroke-linecap="round" stroke-linejoin="round" stroke-width="0.4"/><line x1="234.58" y1="215.4" x2="236.78" y2="207.19" fill="none" stroke="#003a50" stroke-linecap="round" stroke-linejoin="round" stroke-width="0.4"/><line x1="236.78" y1="207.2" x2="232.38" y2="207.2" fill="none" stroke="#003a50" stroke-linecap="round" stroke-linejoin="round" stroke-width="0.4"/><line x1="232.38" y1="207.2" x2="234.58" y2="215.4" fill="none" stroke="#003a50" stroke-linecap="round" stroke-linejoin="round" stroke-width="0.4"/><polygon points="232.38 207.19 234.58 215.4 236.78 207.19 232.38 207.19" fill="#003a50"/><line x1="238.74" y1="215.4" x2="232.94" y2="215.4" fill="none" stroke="#003a50" stroke-linecap="round" stroke-linejoin="round" stroke-width="0.4"/><line x1="234.58" y1="215.4" x2="238.74" y2="215.4" fill="none" stroke="#003a50" stroke-linecap="round" stroke-linejoin="round" stroke-width="0.4"/><line x1="234.58" y1="115.54" x2="232.38" y2="123.75" fill="none" stroke="#003a50" stroke-linecap="round" stroke-linejoin="round" stroke-width="0.4"/><line x1="232.38" y1="123.75" x2="236.78" y2="123.75" fill="none" stroke="#003a50" stroke-linecap="round" stroke-linejoin="round" stroke-width="0.4"/><line x1="236.78" y1="123.75" x2="234.58" y2="115.54" fill="none" stroke="#003a50" stroke-linecap="round" stroke-linejoin="round" stroke-width="0.4"/><polygon points="232.38 123.75 236.78 123.75 234.58 115.55 232.38 123.75" fill="#003a50"/><line x1="234.58" y1="115.54" x2="236.78" y2="107.34" fill="none" stroke="#003a50" stroke-linecap="round" stroke-linejoin="round" stroke-width="0.4"/><line x1="236.78" y1="107.34" x2="232.38" y2="107.34" fill="none" stroke="#003a50" stroke-linecap="round" stroke-linejoin="round" stroke-width="0.4"/><line x1="232.38" y1="107.34" x2="234.58" y2="115.55" fill="none" stroke="#003a50" stroke-linecap="round" stroke-linejoin="round" stroke-width="0.4"/><polygon points="232.38 107.34 234.58 115.55 236.78 107.34 232.38 107.34" fill="#003a50"/><line x1="219.63" y1="115.54" x2="236.22" y2="115.54" fill="none" stroke="#003a50" stroke-linecap="round" stroke-linejoin="round" stroke-width="0.4"/><line x1="234.58" y1="115.54" x2="219.63" y2="115.54" fill="none" stroke="#003a50" stroke-linecap="round" stroke-linejoin="round" stroke-width="0.4"/><g clip-path="url(#clip-path)"><path d="M221.93,175.75H230v.83h-7.37v1.92h-.74Z" fill="#003a50"/><path d="M226.56,168a1.86,1.86,0,0,1,1.22-.41A2,2,0,0,1,229,168a2.39,2.39,0,0,1,.81,1.1,4.46,4.46,0,0,1,.28,1.67,3.71,3.71,0,0,1-.62,2.29,2,2,0,0,1-1.71.84,1.91,1.91,0,0,1-1.23-.4,2.37,2.37,0,0,1-.76-1.17,2.08,2.08,0,0,1-.7,1,1.89,1.89,0,0,1-1.09.32,1.87,1.87,0,0,1-1.56-.77,3.33,3.33,0,0,1-.58-2.07,4.06,4.06,0,0,1,.26-1.5,2.2,2.2,0,0,1,.75-1,2,2,0,0,1,2.22,0,2.16,2.16,0,0,1,.7,1A2.46,2.46,0,0,1,226.56,168Zm-1.47,4.21a2.36,2.36,0,0,0,.4-1.47,2.41,2.41,0,0,0-.4-1.48,1.23,1.23,0,0,0-1.05-.54,1.27,1.27,0,0,0-1.08.55,2.51,2.51,0,0,0-.39,1.47,2.47,2.47,0,0,0,.39,1.47,1.25,1.25,0,0,0,1.07.54A1.24,1.24,0,0,0,225.09,172.2ZM229,169a1.42,1.42,0,0,0-1.2-.61,1.4,1.4,0,0,0-1.19.61,3.52,3.52,0,0,0,0,3.37,1.49,1.49,0,0,0,2.39,0,2.82,2.82,0,0,0,.44-1.68A2.88,2.88,0,0,0,229,169Z" fill="#003a50"/><path d="M229.3,160.88H230v5.69h-.59l-3.3-3.38a4.59,4.59,0,0,0-1.08-.86,2.13,2.13,0,0,0-.93-.23,1.35,1.35,0,0,0-1.11.5,2.17,2.17,0,0,0-.4,1.41,2.79,2.79,0,0,0,.9,2.21l-.51.59a3.07,3.07,0,0,1-.86-1.21,4.35,4.35,0,0,1-.3-1.66,3,3,0,0,1,.59-2,2,2,0,0,1,1.6-.72,2.72,2.72,0,0,1,1.21.28,4.92,4.92,0,0,1,1.33,1.05l2.71,2.76Z" fill="#003a50"/><path d="M229.62,158.32a3.34,3.34,0,0,1-1.44,1.15,6.08,6.08,0,0,1-4.39,0,3.31,3.31,0,0,1-1.43-1.15,3.06,3.06,0,0,1,0-3.35,3.31,3.31,0,0,1,1.43-1.15,5.95,5.95,0,0,1,4.39,0,3.34,3.34,0,0,1,1.44,1.15,3.11,3.11,0,0,1,0,3.35ZM229,155.4a2.6,2.6,0,0,0-1.15-.84,5.67,5.67,0,0,0-3.64,0,2.54,2.54,0,0,0-1.15.84,2.18,2.18,0,0,0,0,2.49,2.54,2.54,0,0,0,1.15.84,5.67,5.67,0,0,0,3.64,0,2.6,2.6,0,0,0,1.15-.84,2.18,2.18,0,0,0,0-2.49Z" fill="#003a50"/></g><line x1="217.99" y1="198.84" x2="529.88" y2="198.84" fill="none" stroke="#003a50" stroke-linecap="round" stroke-linejoin="round" stroke-width="0.4"/><line x1="529.88" y1="198.84" x2="521.67" y2="196.64" fill="none" stroke="#003a50" stroke-linecap="round" stroke-linejoin="round" stroke-width="0.4"/><line x1="521.67" y1="196.64" x2="521.67" y2="201.04" fill="none" stroke="#003a50" stroke-linecap="round" stroke-linejoin="round" stroke-width="0.4"/><line x1="521.67" y1="201.04" x2="529.88" y2="198.84" fill="none" stroke="#003a50" stroke-linecap="round" stroke-linejoin="round" stroke-width="0.4"/><polygon points="521.67 201.04 529.88 198.84 521.67 196.64 521.67 201.04" fill="#003a50"/><line x1="529.88" y1="194.68" x2="529.88" y2="200.48" fill="none" stroke="#003a50" stroke-linecap="round" stroke-linejoin="round" stroke-width="0.4"/><line x1="529.88" y1="198.84" x2="529.88" y2="194.68" fill="none" stroke="#003a50" stroke-linecap="round" stroke-linejoin="round" stroke-width="0.4"/><line x1="217.99" y1="198.84" x2="226.2" y2="201.04" fill="none" stroke="#003a50" stroke-linecap="round" stroke-linejoin="round" stroke-width="0.4"/><line x1="226.2" y1="201.04" x2="226.2" y2="196.64" fill="none" stroke="#003a50" stroke-linecap="round" stroke-linejoin="round" stroke-width="0.4"/><line x1="226.2" y1="196.64" x2="217.99" y2="198.84" fill="none" stroke="#003a50" stroke-linecap="round" stroke-linejoin="round" stroke-width="0.4"/><polygon points="217.99 198.84 226.2 201.04 226.2 196.64 217.99 198.84" fill="#003a50"/><line x1="217.99" y1="194.68" x2="217.99" y2="200.48" fill="none" stroke="#003a50" stroke-linecap="round" stroke-linejoin="round" stroke-width="0.4"/><line x1="217.99" y1="198.84" x2="217.99" y2="194.68" fill="none" stroke="#003a50" stroke-linecap="round" stroke-linejoin="round" stroke-width="0.4"/><g clip-path="url(#clip-path)"><path d="M364.44,190.15a2.11,2.11,0,0,1,.81,1.77,2.42,2.42,0,0,1-.33,1.26,2.19,2.19,0,0,1-1,.88,3.79,3.79,0,0,1-1.63.32,4.77,4.77,0,0,1-1.65-.29,3.38,3.38,0,0,1-1.26-.75l.41-.67a2.94,2.94,0,0,0,1.07.68,3.7,3.7,0,0,0,1.42.26,2.42,2.42,0,0,0,1.56-.45,1.6,1.6,0,0,0-.07-2.47,3.86,3.86,0,0,0-2.09-.43H360l.42-4.07h4.44v.75h-3.71l-.28,2.58h1A4.16,4.16,0,0,1,364.44,190.15Z" fill="#003a50"/><path d="M371.87,186.19v.6l-3.4,7.52h-.9l3.34-7.37h-4.18v1.51h-.82v-2.26Z" fill="#003a50"/><path d="M374.31,193.88a3.24,3.24,0,0,1-1.15-1.43,6.08,6.08,0,0,1,0-4.39,3.27,3.27,0,0,1,1.15-1.44,3.06,3.06,0,0,1,3.35,0,3.34,3.34,0,0,1,1.15,1.44,5.95,5.95,0,0,1,0,4.39,3.31,3.31,0,0,1-1.15,1.43,3.06,3.06,0,0,1-3.35,0Zm2.92-.66a2.54,2.54,0,0,0,.84-1.15,5.67,5.67,0,0,0,0-3.64,2.6,2.6,0,0,0-.84-1.15,2.09,2.09,0,0,0-1.25-.39,2.06,2.06,0,0,0-1.24.39,2.6,2.6,0,0,0-.84,1.15,5.5,5.5,0,0,0,0,3.64,2.54,2.54,0,0,0,.84,1.15,2.06,2.06,0,0,0,1.24.39A2.09,2.09,0,0,0,377.23,193.22Z" fill="#003a50"/><path d="M382,193.88a3.31,3.31,0,0,1-1.15-1.43,6.08,6.08,0,0,1,0-4.39,3.34,3.34,0,0,1,1.15-1.44,3.06,3.06,0,0,1,3.35,0,3.36,3.36,0,0,1,1.16,1.44,6.08,6.08,0,0,1,0,4.39,3.33,3.33,0,0,1-1.16,1.43,3.06,3.06,0,0,1-3.35,0Zm2.92-.66a2.54,2.54,0,0,0,.84-1.15,5.67,5.67,0,0,0,0-3.64,2.6,2.6,0,0,0-.84-1.15,2.18,2.18,0,0,0-2.49,0,2.6,2.6,0,0,0-.84,1.15,5.67,5.67,0,0,0,0,3.64,2.54,2.54,0,0,0,.84,1.15,2.18,2.18,0,0,0,2.49,0Z" fill="#003a50"/></g><line x1="169.98" y1="38.92" x2="169.98" y2="17.03" fill="none" stroke="#003a50" stroke-linecap="round" stroke-linejoin="round" stroke-width="0.4"/><line x1="169.98" y1="17.03" x2="167.78" y2="25.24" fill="none" stroke="#003a50" stroke-linecap="round" stroke-linejoin="round" stroke-width="0.4"/><line x1="167.78" y1="25.24" x2="172.18" y2="25.24" fill="none" stroke="#003a50" stroke-linecap="round" stroke-linejoin="round" stroke-width="0.4"/><line x1="172.18" y1="25.24" x2="169.98" y2="17.03" fill="none" stroke="#003a50" stroke-linecap="round" stroke-linejoin="round" stroke-width="0.4"/><polygon points="167.78 25.24 172.18 25.24 169.98 17.03 167.78 25.24" fill="#003a50"/><line x1="165.82" y1="17.03" x2="171.62" y2="17.03" fill="none" stroke="#003a50" stroke-linecap="round" stroke-linejoin="round" stroke-width="0.4"/><line x1="169.98" y1="17.03" x2="165.82" y2="17.03" fill="none" stroke="#003a50" stroke-linecap="round" stroke-linejoin="round" stroke-width="0.4"/><line x1="169.98" y1="38.92" x2="172.18" y2="30.71" fill="none" stroke="#003a50" stroke-linecap="round" stroke-linejoin="round" stroke-width="0.4"/><line x1="172.18" y1="30.71" x2="167.78" y2="30.71" fill="none" stroke="#003a50" stroke-linecap="round" stroke-linejoin="round" stroke-width="0.4"/><line x1="167.78" y1="30.71" x2="169.98" y2="38.92" fill="none" stroke="#003a50" stroke-linecap="round" stroke-linejoin="round" stroke-width="0.4"/><polygon points="167.78 30.71 169.98 38.92 172.18 30.71 167.78 30.71" fill="#003a50"/><line x1="178.05" y1="38.92" x2="168.34" y2="38.92" fill="none" stroke="#003a50" stroke-linecap="round" stroke-linejoin="round" stroke-width="0.4"/><line x1="169.98" y1="38.92" x2="178.05" y2="38.92" fill="none" stroke="#003a50" stroke-linecap="round" stroke-linejoin="round" stroke-width="0.4"/><g clip-path="url(#clip-path)"><path d="M163.31,36.57v1.62h2.14V39h-2.14v4.58h-.6l-5.38-4.3v-.93l5.24,4.15V39h-1.88v-.81h1.88V36.57Z" fill="#003a50"/><path d="M165,34.25a3.22,3.22,0,0,1-1.43,1.14,6.11,6.11,0,0,1-4.4,0,3.22,3.22,0,0,1-1.43-1.14,3,3,0,0,1-.5-1.68,2.91,2.91,0,0,1,.5-1.67,3.26,3.26,0,0,1,1.43-1.16,6,6,0,0,1,4.4,0A3.26,3.26,0,0,1,165,30.9a2.91,2.91,0,0,1,.5,1.67A3,3,0,0,1,165,34.25Zm-.66-2.93a2.6,2.6,0,0,0-1.15-.84,5.67,5.67,0,0,0-3.64,0,2.54,2.54,0,0,0-1.15.84,2.2,2.2,0,0,0,0,2.5,2.54,2.54,0,0,0,1.15.84,5.67,5.67,0,0,0,3.64,0,2.6,2.6,0,0,0,1.15-.84,2.2,2.2,0,0,0,0-2.5Z" fill="#003a50"/><path d="M165,26.57a3.24,3.24,0,0,1-1.43,1.15,6.11,6.11,0,0,1-4.4,0,3.24,3.24,0,0,1-1.43-1.15,3.06,3.06,0,0,1,0-3.35,3.31,3.31,0,0,1,1.43-1.15,6,6,0,0,1,4.4,0A3.31,3.31,0,0,1,165,23.22a3.06,3.06,0,0,1,0,3.35Zm-.66-2.92a2.6,2.6,0,0,0-1.15-.84,5.67,5.67,0,0,0-3.64,0,2.54,2.54,0,0,0-1.15.84A2.09,2.09,0,0,0,158,24.9a2.06,2.06,0,0,0,.39,1.24,2.54,2.54,0,0,0,1.15.84,5.67,5.67,0,0,0,3.64,0,2.6,2.6,0,0,0,1.15-.84,2.06,2.06,0,0,0,.39-1.24A2.09,2.09,0,0,0,164.36,23.65Z" fill="#003a50"/></g><line x1="179.69" y1="66.8" x2="207.05" y2="66.8" fill="none" stroke="#003a50" stroke-linecap="round" stroke-linejoin="round" stroke-width="0.4"/><line x1="207.05" y1="66.8" x2="198.84" y2="64.6" fill="none" stroke="#003a50" stroke-linecap="round" stroke-linejoin="round" stroke-width="0.4"/><line x1="198.84" y1="64.6" x2="198.84" y2="69" fill="none" stroke="#003a50" stroke-linecap="round" stroke-linejoin="round" stroke-width="0.4"/><line x1="198.84" y1="69" x2="207.05" y2="66.8" fill="none" stroke="#003a50" stroke-linecap="round" stroke-linejoin="round" stroke-width="0.4"/><polygon points="198.84 69 207.05 66.8 198.84 64.6 198.84 69" fill="#003a50"/><line x1="207.05" y1="51.5" x2="207.05" y2="68.44" fill="none" stroke="#003a50" stroke-linecap="round" stroke-linejoin="round" stroke-width="0.4"/><line x1="207.05" y1="66.8" x2="207.05" y2="51.51" fill="none" stroke="#003a50" stroke-linecap="round" stroke-linejoin="round" stroke-width="0.4"/><line x1="179.69" y1="66.8" x2="187.9" y2="69" fill="none" stroke="#003a50" stroke-linecap="round" stroke-linejoin="round" stroke-width="0.4"/><line x1="187.9" y1="69" x2="187.9" y2="64.6" fill="none" stroke="#003a50" stroke-linecap="round" stroke-linejoin="round" stroke-width="0.4"/><line x1="187.9" y1="64.6" x2="179.69" y2="66.8" fill="none" stroke="#003a50" stroke-linecap="round" stroke-linejoin="round" stroke-width="0.4"/><polygon points="179.69 66.8 187.9 69 187.9 64.6 179.69 66.8" fill="#003a50"/><line x1="179.69" y1="40.56" x2="179.69" y2="68.44" fill="none" stroke="#003a50" stroke-linecap="round" stroke-linejoin="round" stroke-width="0.4"/><line x1="179.69" y1="66.8" x2="179.69" y2="40.56" fill="none" stroke="#003a50" stroke-linecap="round" stroke-linejoin="round" stroke-width="0.4"/><g clip-path="url(#clip-path)"><path d="M187.33,58.11a2.11,2.11,0,0,1,.8,1.77,2.42,2.42,0,0,1-.33,1.26,2.31,2.31,0,0,1-1,.88,3.75,3.75,0,0,1-1.62.31,4.77,4.77,0,0,1-1.65-.28,3.39,3.39,0,0,1-1.26-.76l.41-.66a2.89,2.89,0,0,0,1.06.68,4,4,0,0,0,1.43.26,2.42,2.42,0,0,0,1.56-.45,1.51,1.51,0,0,0,.55-1.21,1.44,1.44,0,0,0-.62-1.26,3.79,3.79,0,0,0-2.09-.43h-1.73l.42-4.07h4.44v.74H184l-.28,2.59h1A4.18,4.18,0,0,1,187.33,58.11Z" fill="#003a50"/><path d="M190.75,61.84a3.3,3.3,0,0,1-1.15-1.43,6.11,6.11,0,0,1,0-4.4,3.24,3.24,0,0,1,1.15-1.43,3.06,3.06,0,0,1,3.35,0A3.31,3.31,0,0,1,195.25,56a6,6,0,0,1,0,4.4,3.37,3.37,0,0,1-1.15,1.43,3.11,3.11,0,0,1-3.35,0Zm2.92-.66a2.6,2.6,0,0,0,.84-1.15,5.67,5.67,0,0,0,0-3.64,2.54,2.54,0,0,0-.84-1.15,2.09,2.09,0,0,0-1.25-.39,2.06,2.06,0,0,0-1.24.39,2.54,2.54,0,0,0-.84,1.15,5.67,5.67,0,0,0,0,3.64,2.6,2.6,0,0,0,.84,1.15,2.06,2.06,0,0,0,1.24.39A2.09,2.09,0,0,0,193.67,61.18Z" fill="#003a50"/><path d="M198.42,61.84a3.37,3.37,0,0,1-1.15-1.43,6.11,6.11,0,0,1,0-4.4,3.31,3.31,0,0,1,1.15-1.43,3.06,3.06,0,0,1,3.35,0A3.33,3.33,0,0,1,202.93,56a6.11,6.11,0,0,1,0,4.4,3.39,3.39,0,0,1-1.16,1.43,3.11,3.11,0,0,1-3.35,0Zm2.92-.66a2.6,2.6,0,0,0,.84-1.15,5.5,5.5,0,0,0,0-3.64,2.54,2.54,0,0,0-.84-1.15,2.06,2.06,0,0,0-1.24-.39,2.09,2.09,0,0,0-1.25.39,2.54,2.54,0,0,0-.84,1.15A5.67,5.67,0,0,0,198,60a2.6,2.6,0,0,0,.84,1.15,2.09,2.09,0,0,0,1.25.39A2.06,2.06,0,0,0,201.34,61.18Z" fill="#003a50"/></g><line x1="97.61" y1="107.83" x2="217.99" y2="107.83" fill="none" stroke="#003a50" stroke-linecap="round" stroke-linejoin="round" stroke-width="0.4"/><line x1="217.99" y1="107.83" x2="209.78" y2="105.63" fill="none" stroke="#003a50" stroke-linecap="round" stroke-linejoin="round" stroke-width="0.4"/><line x1="209.78" y1="105.64" x2="209.78" y2="110.04" fill="none" stroke="#003a50" stroke-linecap="round" stroke-linejoin="round" stroke-width="0.4"/><line x1="209.78" y1="110.03" x2="217.99" y2="107.83" fill="none" stroke="#003a50" stroke-linecap="round" stroke-linejoin="round" stroke-width="0.4"/><polygon points="209.78 110.03 217.99 107.83 209.78 105.64 209.78 110.03" fill="#003a50"/><line x1="217.99" y1="113.9" x2="217.99" y2="106.19" fill="none" stroke="#003a50" stroke-linecap="round" stroke-linejoin="round" stroke-width="0.4"/><line x1="217.99" y1="107.83" x2="217.99" y2="113.9" fill="none" stroke="#003a50" stroke-linecap="round" stroke-linejoin="round" stroke-width="0.4"/><line x1="97.61" y1="107.83" x2="105.82" y2="110.03" fill="none" stroke="#003a50" stroke-linecap="round" stroke-linejoin="round" stroke-width="0.4"/><line x1="105.82" y1="110.03" x2="105.82" y2="105.63" fill="none" stroke="#003a50" stroke-linecap="round" stroke-linejoin="round" stroke-width="0.4"/><line x1="105.82" y1="105.64" x2="97.61" y2="107.84" fill="none" stroke="#003a50" stroke-linecap="round" stroke-linejoin="round" stroke-width="0.4"/><polygon points="97.61 107.83 105.82 110.03 105.82 105.63 97.61 107.83" fill="#003a50"/><line x1="97.61" y1="113.9" x2="97.61" y2="106.19" fill="none" stroke="#003a50" stroke-linecap="round" stroke-linejoin="round" stroke-width="0.4"/><line x1="97.61" y1="107.83" x2="97.61" y2="113.9" fill="none" stroke="#003a50" stroke-linecap="round" stroke-linejoin="round" stroke-width="0.4"/><g clip-path="url(#clip-path)"><path d="M175.35,102.56v.74h-5.69v-.59l3.37-3.3a4.18,4.18,0,0,0,.86-1.09,2.05,2.05,0,0,0,.23-.92,1.36,1.36,0,0,0-.49-1.12,2.17,2.17,0,0,0-1.41-.4,2.78,2.78,0,0,0-2.22.91l-.59-.51a3,3,0,0,1,1.21-.86,4.44,4.44,0,0,1,1.67-.3,3,3,0,0,1,2,.58,2,2,0,0,1,.73,1.61,2.81,2.81,0,0,1-.28,1.2,5.22,5.22,0,0,1-1.06,1.34l-2.75,2.71Z" fill="#003a50"/><path d="M181.93,102.56v.74h-5.69v-.59l3.37-3.3a4.26,4.26,0,0,0,.87-1.09,2,2,0,0,0,.22-.92,1.36,1.36,0,0,0-.49-1.12,2.17,2.17,0,0,0-1.41-.4,2.75,2.75,0,0,0-2.21.91l-.59-.51a3,3,0,0,1,1.21-.86,4.35,4.35,0,0,1,1.66-.3,3.06,3.06,0,0,1,2,.58,2,2,0,0,1,.72,1.61,2.67,2.67,0,0,1-.28,1.2,4.94,4.94,0,0,1-1.05,1.34l-2.76,2.71Z" fill="#003a50"/><path d="M184.5,102.87a3.31,3.31,0,0,1-1.15-1.43,6.08,6.08,0,0,1,0-4.39,3.25,3.25,0,0,1,1.15-1.43,3.06,3.06,0,0,1,3.35,0A3.19,3.19,0,0,1,189,97.05a5.95,5.95,0,0,1,0,4.39,3.24,3.24,0,0,1-1.15,1.43,3.06,3.06,0,0,1-3.35,0Zm2.92-.66a2.49,2.49,0,0,0,.84-1.15,5.67,5.67,0,0,0,0-3.64,2.51,2.51,0,0,0-.84-1.14,2.14,2.14,0,0,0-2.49,0,2.51,2.51,0,0,0-.84,1.14,5.67,5.67,0,0,0,0,3.64,2.49,2.49,0,0,0,.84,1.15,2.14,2.14,0,0,0,2.49,0Z" fill="#003a50"/><path d="M192.17,102.87a3.22,3.22,0,0,1-1.14-1.43,6.08,6.08,0,0,1,0-4.39,3.17,3.17,0,0,1,1.14-1.43,2.89,2.89,0,0,1,1.68-.5,2.84,2.84,0,0,1,1.67.5,3.2,3.2,0,0,1,1.16,1.43,5.95,5.95,0,0,1,0,4.39,3.26,3.26,0,0,1-1.16,1.43,2.91,2.91,0,0,1-1.67.5A3,3,0,0,1,192.17,102.87Zm2.93-.66a2.49,2.49,0,0,0,.84-1.15,5.67,5.67,0,0,0,0-3.64,2.51,2.51,0,0,0-.84-1.14,2.15,2.15,0,0,0-2.5,0,2.51,2.51,0,0,0-.84,1.14,5.67,5.67,0,0,0,0,3.64,2.49,2.49,0,0,0,.84,1.15,2.15,2.15,0,0,0,2.5,0Z" fill="#003a50"/></g><line x1="121.01" y1="215.4" x2="121.01" y2="121.01" fill="none" stroke="#003a50" stroke-linecap="round" stroke-linejoin="round" stroke-width="0.4"/><line x1="121.01" y1="121.02" x2="118.81" y2="129.22" fill="none" stroke="#003a50" stroke-linecap="round" stroke-linejoin="round" stroke-width="0.4"/><line x1="118.81" y1="129.22" x2="123.21" y2="129.22" fill="none" stroke="#003a50" stroke-linecap="round" stroke-linejoin="round" stroke-width="0.4"/><line x1="123.2" y1="129.22" x2="121" y2="121.02" fill="none" stroke="#003a50" stroke-linecap="round" stroke-linejoin="round" stroke-width="0.4"/><polygon points="118.81 129.22 123.2 129.22 121.01 121.02 118.81 129.22" fill="#003a50"/><line x1="116.84" y1="121.02" x2="122.65" y2="121.02" fill="none" stroke="#003a50" stroke-linecap="round" stroke-linejoin="round" stroke-width="0.4"/><line x1="121.01" y1="121.02" x2="116.84" y2="121.02" fill="none" stroke="#003a50" stroke-linecap="round" stroke-linejoin="round" stroke-width="0.4"/><line x1="121.01" y1="215.4" x2="123.21" y2="207.19" fill="none" stroke="#003a50" stroke-linecap="round" stroke-linejoin="round" stroke-width="0.4"/><line x1="123.2" y1="207.2" x2="118.8" y2="207.2" fill="none" stroke="#003a50" stroke-linecap="round" stroke-linejoin="round" stroke-width="0.4"/><line x1="118.81" y1="207.2" x2="121.01" y2="215.4" fill="none" stroke="#003a50" stroke-linecap="round" stroke-linejoin="round" stroke-width="0.4"/><polygon points="118.81 207.19 121.01 215.4 123.2 207.19 118.81 207.19" fill="#003a50"/><line x1="116.84" y1="215.4" x2="122.65" y2="215.4" fill="none" stroke="#003a50" stroke-linecap="round" stroke-linejoin="round" stroke-width="0.4"/><line x1="121.01" y1="215.4" x2="116.84" y2="215.4" fill="none" stroke="#003a50" stroke-linecap="round" stroke-linejoin="round" stroke-width="0.4"/><g clip-path="url(#clip-path)"><path d="M108.36,178.16h8.11V179H109.1v1.91h-.74Z" fill="#003a50"/><path d="M108.36,170.5H109l7.52,3.4v.9l-7.37-3.34v4.18h1.52v.82h-2.26Z" fill="#003a50"/><path d="M115.73,163.86h.74v5.69h-.59l-3.31-3.37a4.08,4.08,0,0,0-1.08-.87,2,2,0,0,0-.92-.22,1.36,1.36,0,0,0-1.12.49,2.17,2.17,0,0,0-.4,1.41,2.75,2.75,0,0,0,.91,2.21l-.52.59a3,3,0,0,1-.85-1.21,4.35,4.35,0,0,1-.3-1.66,3.06,3.06,0,0,1,.58-2,2,2,0,0,1,1.61-.72,2.67,2.67,0,0,1,1.2.28,5.15,5.15,0,0,1,1.34,1.05l2.71,2.76Z" fill="#003a50"/><path d="M116,161.29a3.24,3.24,0,0,1-1.43,1.15,6.08,6.08,0,0,1-4.39,0,3.27,3.27,0,0,1-1.44-1.15,3.11,3.11,0,0,1,0-3.35,3.34,3.34,0,0,1,1.44-1.15,5.95,5.95,0,0,1,4.39,0,3.31,3.31,0,0,1,1.43,1.15,3.06,3.06,0,0,1,0,3.35Zm-.66-2.92a2.54,2.54,0,0,0-1.15-.84,5.67,5.67,0,0,0-3.64,0,2.6,2.6,0,0,0-1.15.84,2.18,2.18,0,0,0,0,2.49,2.6,2.6,0,0,0,1.15.84,5.67,5.67,0,0,0,3.64,0,2.54,2.54,0,0,0,1.15-.84,2.18,2.18,0,0,0,0-2.49Z" fill="#003a50"/></g><line x1="103.09" y1="198.84" x2="212.52" y2="198.84" fill="none" stroke="#003a50" stroke-linecap="round" stroke-linejoin="round" stroke-width="0.4"/><line x1="212.52" y1="198.84" x2="204.31" y2="196.64" fill="none" stroke="#003a50" stroke-linecap="round" stroke-linejoin="round" stroke-width="0.4"/><line x1="204.31" y1="196.64" x2="204.31" y2="201.04" fill="none" stroke="#003a50" stroke-linecap="round" stroke-linejoin="round" stroke-width="0.4"/><line x1="204.31" y1="201.04" x2="212.52" y2="198.84" fill="none" stroke="#003a50" stroke-linecap="round" stroke-linejoin="round" stroke-width="0.4"/><polygon points="204.31 201.04 212.52 198.84 204.31 196.64 204.31 201.04" fill="#003a50"/><line x1="212.52" y1="194.68" x2="212.52" y2="200.48" fill="none" stroke="#003a50" stroke-linecap="round" stroke-linejoin="round" stroke-width="0.4"/><line x1="212.52" y1="198.84" x2="212.52" y2="194.68" fill="none" stroke="#003a50" stroke-linecap="round" stroke-linejoin="round" stroke-width="0.4"/><line x1="103.09" y1="198.84" x2="111.29" y2="201.04" fill="none" stroke="#003a50" stroke-linecap="round" stroke-linejoin="round" stroke-width="0.4"/><line x1="111.29" y1="201.04" x2="111.29" y2="196.64" fill="none" stroke="#003a50" stroke-linecap="round" stroke-linejoin="round" stroke-width="0.4"/><line x1="111.29" y1="196.64" x2="103.09" y2="198.84" fill="none" stroke="#003a50" stroke-linecap="round" stroke-linejoin="round" stroke-width="0.4"/><polygon points="103.09 198.84 111.29 201.04 111.29 196.64 103.09 198.84" fill="#003a50"/><line x1="103.09" y1="194.68" x2="103.09" y2="200.48" fill="none" stroke="#003a50" stroke-linecap="round" stroke-linejoin="round" stroke-width="0.4"/><line x1="103.09" y1="198.84" x2="103.09" y2="194.68" fill="none" stroke="#003a50" stroke-linecap="round" stroke-linejoin="round" stroke-width="0.4"/><g clip-path="url(#clip-path)"><path d="M148.79,193.57v.74h-5.7v-.59l3.38-3.31a4.22,4.22,0,0,0,.86-1.08,2.09,2.09,0,0,0,.23-.92,1.37,1.37,0,0,0-.5-1.12,2.12,2.12,0,0,0-1.4-.4,2.81,2.81,0,0,0-2.22.9l-.59-.51a3.12,3.12,0,0,1,1.21-.85,4.21,4.21,0,0,1,1.67-.31,3,3,0,0,1,2,.59,2,2,0,0,1,.73,1.61,2.81,2.81,0,0,1-.28,1.2,5,5,0,0,1-1.06,1.33l-2.76,2.72Z" fill="#003a50"/><path d="M151.35,193.88a3.22,3.22,0,0,1-1.14-1.43,5.95,5.95,0,0,1,0-4.39,3.25,3.25,0,0,1,1.14-1.44,3.06,3.06,0,0,1,3.35,0,3.36,3.36,0,0,1,1.16,1.44,6.08,6.08,0,0,1,0,4.39,3.33,3.33,0,0,1-1.16,1.43,3.06,3.06,0,0,1-3.35,0Zm2.93-.66a2.69,2.69,0,0,0,.84-1.15,5.67,5.67,0,0,0,0-3.64,2.76,2.76,0,0,0-.84-1.15,2.2,2.2,0,0,0-2.5,0,2.6,2.6,0,0,0-.84,1.15,5.67,5.67,0,0,0,0,3.64,2.54,2.54,0,0,0,.84,1.15,2.2,2.2,0,0,0,2.5,0Z" fill="#003a50"/><path d="M159,193.88a3.24,3.24,0,0,1-1.15-1.43,6.08,6.08,0,0,1,0-4.39,3.27,3.27,0,0,1,1.15-1.44,3.06,3.06,0,0,1,3.35,0,3.34,3.34,0,0,1,1.15,1.44,5.95,5.95,0,0,1,0,4.39,3.31,3.31,0,0,1-1.15,1.43,3.06,3.06,0,0,1-3.35,0Zm2.92-.66a2.54,2.54,0,0,0,.84-1.15,5.67,5.67,0,0,0,0-3.64,2.6,2.6,0,0,0-.84-1.15,2.09,2.09,0,0,0-1.25-.39,2.06,2.06,0,0,0-1.24.39,2.6,2.6,0,0,0-.84,1.15,5.5,5.5,0,0,0,0,3.64,2.54,2.54,0,0,0,.84,1.15,2.06,2.06,0,0,0,1.24.39A2.09,2.09,0,0,0,162,193.22Z" fill="#003a50"/><path d="M166.7,193.88a3.31,3.31,0,0,1-1.15-1.43,6.08,6.08,0,0,1,0-4.39,3.34,3.34,0,0,1,1.15-1.44,3.06,3.06,0,0,1,3.35,0,3.36,3.36,0,0,1,1.16,1.44,6.08,6.08,0,0,1,0,4.39,3.33,3.33,0,0,1-1.16,1.43,3.06,3.06,0,0,1-3.35,0Zm2.92-.66a2.54,2.54,0,0,0,.84-1.15,5.67,5.67,0,0,0,0-3.64,2.6,2.6,0,0,0-.84-1.15,2.06,2.06,0,0,0-1.24-.39,2.09,2.09,0,0,0-1.25.39,2.6,2.6,0,0,0-.84,1.15,5.67,5.67,0,0,0,0,3.64,2.54,2.54,0,0,0,.84,1.15,2.09,2.09,0,0,0,1.25.39A2.06,2.06,0,0,0,169.62,193.22Z" fill="#003a50"/></g><line x1="90.38" y1="106.23" x2="90.38" y2="141.28" fill="none" stroke="#003a50" stroke-linecap="round" stroke-linejoin="round" stroke-width="0.4"/><line x1="90.38" y1="131.96" x2="88.18" y2="140.17" fill="none" stroke="#003a50" stroke-linecap="round" stroke-linejoin="round" stroke-width="0.4"/><line x1="88.18" y1="140.17" x2="92.58" y2="140.17" fill="none" stroke="#003a50" stroke-linecap="round" stroke-linejoin="round" stroke-width="0.4"/><line x1="92.58" y1="140.17" x2="90.38" y2="131.96" fill="none" stroke="#003a50" stroke-linecap="round" stroke-linejoin="round" stroke-width="0.4"/><polygon points="88.18 140.17 92.58 140.17 90.38 131.96 88.18 140.17" fill="#003a50"/><line x1="94.54" y1="131.96" x2="88.74" y2="131.96" fill="none" stroke="#003a50" stroke-linecap="round" stroke-linejoin="round" stroke-width="0.4"/><line x1="90.38" y1="131.96" x2="94.54" y2="131.96" fill="none" stroke="#003a50" stroke-linecap="round" stroke-linejoin="round" stroke-width="0.4"/><line x1="90.38" y1="115.54" x2="92.58" y2="107.34" fill="none" stroke="#003a50" stroke-linecap="round" stroke-linejoin="round" stroke-width="0.4"/><line x1="92.58" y1="107.34" x2="88.18" y2="107.34" fill="none" stroke="#003a50" stroke-linecap="round" stroke-linejoin="round" stroke-width="0.4"/><line x1="88.18" y1="107.34" x2="90.38" y2="115.55" fill="none" stroke="#003a50" stroke-linecap="round" stroke-linejoin="round" stroke-width="0.4"/><polygon points="88.18 107.34 90.38 115.55 92.58 107.34 88.18 107.34" fill="#003a50"/><line x1="95.97" y1="115.54" x2="88.74" y2="115.54" fill="none" stroke="#003a50" stroke-linecap="round" stroke-linejoin="round" stroke-width="0.4"/><line x1="90.38" y1="115.54" x2="95.97" y2="115.54" fill="none" stroke="#003a50" stroke-linecap="round" stroke-linejoin="round" stroke-width="0.4"/><g clip-path="url(#clip-path)"><path d="M82.44,124.39a1.8,1.8,0,0,1,1.39-.58,2,2,0,0,1,1.07.29,1.89,1.89,0,0,1,.73.86,3.22,3.22,0,0,1,.27,1.39,4.27,4.27,0,0,1-.24,1.44,2.75,2.75,0,0,1-.66,1.08l-.57-.35a2.52,2.52,0,0,0,.59-.93,3.41,3.41,0,0,0,.23-1.24,2.09,2.09,0,0,0-.38-1.33,1.27,1.27,0,0,0-1-.47,1.24,1.24,0,0,0-1,.47,2.32,2.32,0,0,0-.37,1.42v.5h-.52L79.48,125v3.58h-.64v-4.5h.51l2.49,2A2.56,2.56,0,0,1,82.44,124.39Z" fill="#003a50"/><path d="M85.47,121.46a2.79,2.79,0,0,1-1.23,1,5.31,5.31,0,0,1-3.79,0,2.88,2.88,0,0,1-1.24-1,2.59,2.59,0,0,1-.42-1.45,2.54,2.54,0,0,1,.42-1.44,2.83,2.83,0,0,1,1.24-1,5.17,5.17,0,0,1,3.79,0,2.74,2.74,0,0,1,1.23,1A2.47,2.47,0,0,1,85.9,120,2.52,2.52,0,0,1,85.47,121.46Zm-.57-2.52a2.13,2.13,0,0,0-1-.73,4.9,4.9,0,0,0-3.15,0,2.13,2.13,0,0,0-1,.73,1.74,1.74,0,0,0-.35,1.07,1.77,1.77,0,0,0,.35,1.08,2.12,2.12,0,0,0,1,.72,4.9,4.9,0,0,0,3.15,0,2.12,2.12,0,0,0,1-.72,1.77,1.77,0,0,0,.35-1.08A1.74,1.74,0,0,0,84.9,118.94Z" fill="#003a50"/><path d="M85.47,114.84a2.79,2.79,0,0,1-1.23,1,5.31,5.31,0,0,1-3.79,0,2.88,2.88,0,0,1-1.24-1,2.59,2.59,0,0,1-.42-1.45,2.54,2.54,0,0,1,.42-1.44,2.83,2.83,0,0,1,1.24-1,5.17,5.17,0,0,1,3.79,0,2.74,2.74,0,0,1,1.23,1,2.47,2.47,0,0,1,.43,1.44A2.52,2.52,0,0,1,85.47,114.84Zm-.57-2.52a2.13,2.13,0,0,0-1-.73,4.9,4.9,0,0,0-3.15,0,2.13,2.13,0,0,0-1,.73,1.74,1.74,0,0,0-.35,1.07,1.77,1.77,0,0,0,.35,1.08,2.12,2.12,0,0,0,1,.72,4.9,4.9,0,0,0,3.15,0,2.12,2.12,0,0,0,1-.72,1.77,1.77,0,0,0,.35-1.08A1.74,1.74,0,0,0,84.9,112.32Z" fill="#003a50"/></g><line x1="67.52" y1="107.83" x2="97.62" y2="107.83" fill="none" stroke="#003a50" stroke-linecap="round" stroke-linejoin="round" stroke-width="0.4"/><line x1="97.61" y1="107.83" x2="89.41" y2="105.63" fill="none" stroke="#003a50" stroke-linecap="round" stroke-linejoin="round" stroke-width="0.4"/><line x1="89.41" y1="105.64" x2="89.41" y2="110.04" fill="none" stroke="#003a50" stroke-linecap="round" stroke-linejoin="round" stroke-width="0.4"/><line x1="89.41" y1="110.03" x2="97.61" y2="107.83" fill="none" stroke="#003a50" stroke-linecap="round" stroke-linejoin="round" stroke-width="0.4"/><polygon points="89.41 110.03 97.61 107.83 89.41 105.64 89.41 110.03" fill="#003a50"/><line x1="97.61" y1="113.9" x2="97.61" y2="106.19" fill="none" stroke="#003a50" stroke-linecap="round" stroke-linejoin="round" stroke-width="0.4"/><line x1="97.61" y1="107.83" x2="97.61" y2="113.9" fill="none" stroke="#003a50" stroke-linecap="round" stroke-linejoin="round" stroke-width="0.4"/><line x1="67.52" y1="107.83" x2="75.73" y2="110.03" fill="none" stroke="#003a50" stroke-linecap="round" stroke-linejoin="round" stroke-width="0.4"/><line x1="75.73" y1="110.03" x2="75.73" y2="105.63" fill="none" stroke="#003a50" stroke-linecap="round" stroke-linejoin="round" stroke-width="0.4"/><line x1="75.73" y1="105.64" x2="67.52" y2="107.84" fill="none" stroke="#003a50" stroke-linecap="round" stroke-linejoin="round" stroke-width="0.4"/><polygon points="67.52 107.83 75.73 110.03 75.73 105.63 67.52 107.83" fill="#003a50"/><line x1="67.52" y1="103.67" x2="67.52" y2="109.48" fill="none" stroke="#003a50" stroke-linecap="round" stroke-linejoin="round" stroke-width="0.4"/><line x1="67.52" y1="107.83" x2="67.52" y2="103.67" fill="none" stroke="#003a50" stroke-linecap="round" stroke-linejoin="round" stroke-width="0.4"/><g clip-path="url(#clip-path)"><path d="M77.09,99.14a2.14,2.14,0,0,1,.81,1.77,2.45,2.45,0,0,1-.33,1.27,2.26,2.26,0,0,1-1,.87,3.74,3.74,0,0,1-1.62.32,4.77,4.77,0,0,1-1.65-.28,3.53,3.53,0,0,1-1.26-.76l.41-.66a3,3,0,0,0,1.06.67,3.75,3.75,0,0,0,1.43.27,2.42,2.42,0,0,0,1.56-.46,1.6,1.6,0,0,0-.07-2.47,3.86,3.86,0,0,0-2.09-.43H72.61L73,95.19h4.44v.74H73.76l-.28,2.58h1A4.18,4.18,0,0,1,77.09,99.14Z" fill="#003a50"/><path d="M83.6,99.14a2.14,2.14,0,0,1,.81,1.77,2.45,2.45,0,0,1-.33,1.27,2.23,2.23,0,0,1-1,.87,3.74,3.74,0,0,1-1.62.32,4.86,4.86,0,0,1-1.66-.28,3.4,3.4,0,0,1-1.25-.76l.4-.66a3.06,3.06,0,0,0,1.07.67,3.7,3.7,0,0,0,1.42.27,2.38,2.38,0,0,0,1.56-.46,1.46,1.46,0,0,0,.55-1.2,1.43,1.43,0,0,0-.62-1.27,3.86,3.86,0,0,0-2.09-.43H79.12l.42-4.06H84v.74H80.27L80,98.51H81A4.15,4.15,0,0,1,83.6,99.14Z" fill="#003a50"/><path d="M87,102.87a3.22,3.22,0,0,1-1.14-1.43,6.08,6.08,0,0,1,0-4.39A3.17,3.17,0,0,1,87,95.62a3.07,3.07,0,0,1,3.36,0,3.25,3.25,0,0,1,1.15,1.43,5.95,5.95,0,0,1,0,4.39,3.31,3.31,0,0,1-1.15,1.43,3.07,3.07,0,0,1-3.36,0Zm2.93-.66a2.49,2.49,0,0,0,.84-1.15,5.67,5.67,0,0,0,0-3.64A2.51,2.51,0,0,0,90,96.28a2.15,2.15,0,0,0-2.5,0,2.51,2.51,0,0,0-.84,1.14,5.67,5.67,0,0,0,0,3.64,2.49,2.49,0,0,0,.84,1.15,2.15,2.15,0,0,0,2.5,0Z" fill="#003a50"/></g><line x1="90.38" y1="17.03" x2="90.38" y2="115.54" fill="none" stroke="#003a50" stroke-linecap="round" stroke-linejoin="round" stroke-width="0.4"/><line x1="90.38" y1="115.54" x2="92.58" y2="107.34" fill="none" stroke="#003a50" stroke-linecap="round" stroke-linejoin="round" stroke-width="0.4"/><line x1="92.58" y1="107.34" x2="88.18" y2="107.34" fill="none" stroke="#003a50" stroke-linecap="round" stroke-linejoin="round" stroke-width="0.4"/><line x1="88.18" y1="107.34" x2="90.38" y2="115.55" fill="none" stroke="#003a50" stroke-linecap="round" stroke-linejoin="round" stroke-width="0.4"/><polygon points="88.18 107.34 90.38 115.55 92.58 107.34 88.18 107.34" fill="#003a50"/><line x1="95.97" y1="115.54" x2="88.74" y2="115.54" fill="none" stroke="#003a50" stroke-linecap="round" stroke-linejoin="round" stroke-width="0.4"/><line x1="90.38" y1="115.54" x2="95.97" y2="115.54" fill="none" stroke="#003a50" stroke-linecap="round" stroke-linejoin="round" stroke-width="0.4"/><line x1="90.38" y1="17.03" x2="88.18" y2="25.24" fill="none" stroke="#003a50" stroke-linecap="round" stroke-linejoin="round" stroke-width="0.4"/><line x1="88.18" y1="25.24" x2="92.58" y2="25.24" fill="none" stroke="#003a50" stroke-linecap="round" stroke-linejoin="round" stroke-width="0.4"/><line x1="92.58" y1="25.24" x2="90.38" y2="17.03" fill="none" stroke="#003a50" stroke-linecap="round" stroke-linejoin="round" stroke-width="0.4"/><polygon points="88.18 25.24 92.58 25.24 90.38 17.03 88.18 25.24" fill="#003a50"/><line x1="94.54" y1="17.03" x2="88.74" y2="17.03" fill="none" stroke="#003a50" stroke-linecap="round" stroke-linejoin="round" stroke-width="0.4"/><line x1="90.38" y1="17.03" x2="94.54" y2="17.03" fill="none" stroke="#003a50" stroke-linecap="round" stroke-linejoin="round" stroke-width="0.4"/><g clip-path="url(#clip-path)"><path d="M77.73,55.12h8.12V56H78.47v1.91h-.74Z" fill="#003a50"/><path d="M82.36,47.36A1.91,1.91,0,0,1,83.58,47a2.07,2.07,0,0,1,1.24.38,2.44,2.44,0,0,1,.81,1.1,4.51,4.51,0,0,1,.28,1.68,3.73,3.73,0,0,1-.62,2.29,2,2,0,0,1-1.71.84,2,2,0,0,1-1.23-.4,2.42,2.42,0,0,1-.76-1.17,2,2,0,0,1-.7.95,1.82,1.82,0,0,1-1.08.33,1.86,1.86,0,0,1-1.57-.78,3.31,3.31,0,0,1-.58-2.06,4.08,4.08,0,0,1,.26-1.51,2.32,2.32,0,0,1,.75-1,1.85,1.85,0,0,1,1.14-.36,1.76,1.76,0,0,1,1.08.34,2.08,2.08,0,0,1,.7,1A2.51,2.51,0,0,1,82.36,47.36ZM80.9,51.58a3,3,0,0,0,0-2.95,1.26,1.26,0,0,0-1.06-.54,1.24,1.24,0,0,0-1.08.55,2.49,2.49,0,0,0-.39,1.47,2.45,2.45,0,0,0,.39,1.46,1.25,1.25,0,0,0,1.07.54A1.28,1.28,0,0,0,80.9,51.58Zm3.87-3.16a1.4,1.4,0,0,0-1.2-.61,1.38,1.38,0,0,0-1.19.61,3.5,3.5,0,0,0,0,3.36,1.38,1.38,0,0,0,1.19.61,1.4,1.4,0,0,0,1.2-.6,3.45,3.45,0,0,0,0-3.37Z" fill="#003a50"/><path d="M85.42,44.23A3.27,3.27,0,0,1,84,45.38a6.08,6.08,0,0,1-4.39,0,3.24,3.24,0,0,1-1.43-1.15,3.06,3.06,0,0,1,0-3.35,3.31,3.31,0,0,1,1.43-1.15,5.95,5.95,0,0,1,4.39,0,3.34,3.34,0,0,1,1.44,1.15,3.11,3.11,0,0,1,0,3.35Zm-.66-2.92a2.6,2.6,0,0,0-1.15-.84,5.67,5.67,0,0,0-3.64,0,2.54,2.54,0,0,0-1.15.84,2.2,2.2,0,0,0,0,2.5,2.69,2.69,0,0,0,1.15.84,5.67,5.67,0,0,0,3.64,0,2.76,2.76,0,0,0,1.15-.84,2.2,2.2,0,0,0,0-2.5Z" fill="#003a50"/><path d="M85.42,36.56A3.34,3.34,0,0,1,84,37.71a6.08,6.08,0,0,1-4.39,0,3.31,3.31,0,0,1-1.43-1.15,3.06,3.06,0,0,1,0-3.35,3.24,3.24,0,0,1,1.43-1.15,5.95,5.95,0,0,1,4.39,0,3.27,3.27,0,0,1,1.44,1.15,3.11,3.11,0,0,1,0,3.35Zm-.66-2.92a2.6,2.6,0,0,0-1.15-.84,5.67,5.67,0,0,0-3.64,0,2.54,2.54,0,0,0-1.15.84,2.18,2.18,0,0,0,0,2.49A2.54,2.54,0,0,0,80,37a5.67,5.67,0,0,0,3.64,0,2.6,2.6,0,0,0,1.15-.84,2.18,2.18,0,0,0,0-2.49Z" fill="#003a50"/></g><line x1="67.52" y1="66.8" x2="179.69" y2="66.8" fill="none" stroke="#003a50" stroke-linecap="round" stroke-linejoin="round" stroke-width="0.4"/><line x1="179.69" y1="66.8" x2="171.48" y2="64.6" fill="none" stroke="#003a50" stroke-linecap="round" stroke-linejoin="round" stroke-width="0.4"/><line x1="171.48" y1="64.6" x2="171.48" y2="69" fill="none" stroke="#003a50" stroke-linecap="round" stroke-linejoin="round" stroke-width="0.4"/><line x1="171.48" y1="69" x2="179.69" y2="66.8" fill="none" stroke="#003a50" stroke-linecap="round" stroke-linejoin="round" stroke-width="0.4"/><polygon points="171.48 69 179.69 66.8 171.48 64.6 171.48 69" fill="#003a50"/><line x1="179.69" y1="40.56" x2="179.69" y2="68.44" fill="none" stroke="#003a50" stroke-linecap="round" stroke-linejoin="round" stroke-width="0.4"/><line x1="179.69" y1="66.8" x2="179.69" y2="40.56" fill="none" stroke="#003a50" stroke-linecap="round" stroke-linejoin="round" stroke-width="0.4"/><line x1="67.52" y1="66.8" x2="75.73" y2="69" fill="none" stroke="#003a50" stroke-linecap="round" stroke-linejoin="round" stroke-width="0.4"/><line x1="75.73" y1="69" x2="75.73" y2="64.6" fill="none" stroke="#003a50" stroke-linecap="round" stroke-linejoin="round" stroke-width="0.4"/><line x1="75.73" y1="64.6" x2="67.52" y2="66.8" fill="none" stroke="#003a50" stroke-linecap="round" stroke-linejoin="round" stroke-width="0.4"/><polygon points="67.52 66.8 75.73 69 75.73 64.6 67.52 66.8" fill="#003a50"/><line x1="67.52" y1="62.63" x2="67.52" y2="68.44" fill="none" stroke="#003a50" stroke-linecap="round" stroke-linejoin="round" stroke-width="0.4"/><line x1="67.52" y1="66.8" x2="67.52" y2="62.63" fill="none" stroke="#003a50" stroke-linecap="round" stroke-linejoin="round" stroke-width="0.4"/><g clip-path="url(#clip-path)"><path d="M115.15,61.52v.75h-5.7v-.6l3.38-3.3a4.59,4.59,0,0,0,.86-1.08,2.12,2.12,0,0,0,.23-.92,1.35,1.35,0,0,0-.5-1.12,2.12,2.12,0,0,0-1.4-.4,2.79,2.79,0,0,0-2.22.9l-.59-.51a3.14,3.14,0,0,1,1.21-.86,4.38,4.38,0,0,1,1.66-.3,3,3,0,0,1,2,.59,2,2,0,0,1,.72,1.6,2.85,2.85,0,0,1-.27,1.21,5.2,5.2,0,0,1-1.06,1.33l-2.76,2.71Z" fill="#003a50"/><path d="M117.71,61.84a3.28,3.28,0,0,1-1.14-1.43,6,6,0,0,1,0-4.4,3.22,3.22,0,0,1,1.14-1.43,3.06,3.06,0,0,1,3.35,0A3.33,3.33,0,0,1,122.22,56a6.11,6.11,0,0,1,0,4.4,3.39,3.39,0,0,1-1.16,1.43,3.11,3.11,0,0,1-3.35,0Zm2.92-.66a2.69,2.69,0,0,0,.85-1.15,5.67,5.67,0,0,0,0-3.64,2.63,2.63,0,0,0-.85-1.15,2,2,0,0,0-1.24-.39,2.09,2.09,0,0,0-1.25.39,2.54,2.54,0,0,0-.84,1.15,5.67,5.67,0,0,0,0,3.64,2.6,2.6,0,0,0,.84,1.15,2.09,2.09,0,0,0,1.25.39A2,2,0,0,0,120.63,61.18Z" fill="#003a50"/><path d="M128.53,58.11a2.11,2.11,0,0,1,.8,1.77,2.42,2.42,0,0,1-.33,1.26,2.31,2.31,0,0,1-1,.88,3.75,3.75,0,0,1-1.62.31,4.77,4.77,0,0,1-1.65-.28,3.39,3.39,0,0,1-1.26-.76l.41-.66a2.89,2.89,0,0,0,1.06.68,4,4,0,0,0,1.43.26,2.42,2.42,0,0,0,1.56-.45,1.51,1.51,0,0,0,.55-1.21,1.44,1.44,0,0,0-.62-1.26,3.79,3.79,0,0,0-2.09-.43h-1.73l.42-4.07h4.44v.74H125.2l-.28,2.59h1A4.18,4.18,0,0,1,128.53,58.11Z" fill="#003a50"/><path d="M132,61.84a3.3,3.3,0,0,1-1.15-1.43,6.11,6.11,0,0,1,0-4.4A3.24,3.24,0,0,1,132,54.58a3.06,3.06,0,0,1,3.35,0A3.31,3.31,0,0,1,136.45,56a6,6,0,0,1,0,4.4,3.37,3.37,0,0,1-1.15,1.43,3.11,3.11,0,0,1-3.35,0Zm2.92-.66a2.6,2.6,0,0,0,.84-1.15,5.67,5.67,0,0,0,0-3.64,2.54,2.54,0,0,0-.84-1.15,2.09,2.09,0,0,0-1.25-.39,2.06,2.06,0,0,0-1.24.39,2.54,2.54,0,0,0-.84,1.15,5.67,5.67,0,0,0,0,3.64,2.6,2.6,0,0,0,.84,1.15,2.06,2.06,0,0,0,1.24.39A2.09,2.09,0,0,0,134.87,61.18Z" fill="#003a50"/><line x1="607.65" y1="-19.95" x2="607.65" y2="75.79" fill="none" stroke="#003a50" stroke-linecap="round" stroke-linejoin="round" stroke-width="0.4"/><line x1="607.65" y1="75.79" x2="605.45" y2="83.99" fill="none" stroke="#003a50" stroke-linecap="round" stroke-linejoin="round" stroke-width="0.4"/></g><line x1="605.45" y1="83.99" x2="609.85" y2="83.99" fill="none" stroke="#003a50" stroke-linecap="round" stroke-linejoin="round" stroke-width="0.4"/><g clip-path="url(#clip-path)"><line x1="609.85" y1="83.99" x2="607.65" y2="75.79" fill="none" stroke="#003a50" stroke-linecap="round" stroke-linejoin="round" stroke-width="0.4"/></g><polygon points="605.45 83.99 609.85 83.99 607.65 75.79 605.45 83.99" fill="#003a50"/><g clip-path="url(#clip-path)"><line x1="607.65" y1="75.79" x2="609.85" y2="67.58" fill="none" stroke="#003a50" stroke-linecap="round" stroke-linejoin="round" stroke-width="0.4"/><line x1="605.45" y1="67.58" x2="607.65" y2="75.79" fill="none" stroke="#003a50" stroke-linecap="round" stroke-linejoin="round" stroke-width="0.4"/></g><polygon points="607.62 75.65 607.65 75.79 607.69 75.65 607.62 75.65" fill="#003a50"/><g clip-path="url(#clip-path)"><line x1="574.2" y1="75.79" x2="609.29" y2="75.79" fill="none" stroke="#003a50" stroke-linecap="round" stroke-linejoin="round" stroke-width="0.4"/><line x1="607.65" y1="75.79" x2="574.2" y2="75.79" fill="none" stroke="#003a50" stroke-linecap="round" stroke-linejoin="round" stroke-width="0.4"/><path d="M595,37.87h8.12v.84h-7.37v1.91H595Z" fill="#003a50"/><path d="M595,30.21h.6l7.52,3.4v.9l-7.37-3.34v4.18h1.51v.82H595Z" fill="#003a50"/><path d="M599,24.62a2.11,2.11,0,0,1,1.77-.81,2.42,2.42,0,0,1,1.26.33,2.19,2.19,0,0,1,.88,1,3.82,3.82,0,0,1,.32,1.63,4.77,4.77,0,0,1-.29,1.65,3.52,3.52,0,0,1-.75,1.26l-.67-.41a2.86,2.86,0,0,0,.68-1.07,3.7,3.7,0,0,0,.26-1.42,2.42,2.42,0,0,0-.45-1.56,1.6,1.6,0,0,0-2.47.07,3.86,3.86,0,0,0-.43,2.09V29.1L595,28.68V24.24h.75V28l2.58.28v-1A4.18,4.18,0,0,1,599,24.62Z" fill="#003a50"/><path d="M602.69,21.2a3.31,3.31,0,0,1-1.43,1.15,6.08,6.08,0,0,1-4.39,0,3.34,3.34,0,0,1-1.44-1.15,3.06,3.06,0,0,1,0-3.35,3.36,3.36,0,0,1,1.44-1.16,6.08,6.08,0,0,1,4.39,0,3.33,3.33,0,0,1,1.43,1.16,3.06,3.06,0,0,1,0,3.35ZM602,18.28a2.54,2.54,0,0,0-1.15-.84,5.67,5.67,0,0,0-3.64,0,2.6,2.6,0,0,0-1.15.84,2.18,2.18,0,0,0,0,2.49,2.6,2.6,0,0,0,1.15.84,5.67,5.67,0,0,0,3.64,0,2.54,2.54,0,0,0,1.15-.84,2.18,2.18,0,0,0,0-2.49Z" fill="#003a50"/><line x1="607.65" y1="75.79" x2="607.65" y2="163.37" fill="none" stroke="#003a50" stroke-linecap="round" stroke-linejoin="round" stroke-width="0.4"/><line x1="607.65" y1="163.37" x2="605.45" y2="171.57" fill="none" stroke="#003a50" stroke-linecap="round" stroke-linejoin="round" stroke-width="0.4"/><line x1="609.85" y1="171.57" x2="607.65" y2="163.37" fill="none" stroke="#003a50" stroke-linecap="round" stroke-linejoin="round" stroke-width="0.4"/></g><polygon points="607.56 163.71 607.75 163.71 607.65 163.37 607.56 163.71" fill="#003a50"/><line x1="607.65" y1="163.37" x2="609.85" y2="155.16" fill="none" stroke="#003a50" stroke-linecap="round" stroke-linejoin="round" stroke-width="0.4"/><line x1="609.85" y1="155.16" x2="605.45" y2="155.16" fill="none" stroke="#003a50" stroke-linecap="round" stroke-linejoin="round" stroke-width="0.4"/><line x1="605.45" y1="155.16" x2="607.65" y2="163.37" fill="none" stroke="#003a50" stroke-linecap="round" stroke-linejoin="round" stroke-width="0.4"/><polygon points="605.45 155.16 607.65 163.37 609.85 155.16 605.45 155.16" fill="#003a50"/><line x1="586.78" y1="163.37" x2="609.29" y2="163.37" fill="none" stroke="#003a50" stroke-linecap="round" stroke-linejoin="round" stroke-width="0.4"/><line x1="607.65" y1="163.37" x2="586.78" y2="163.37" fill="none" stroke="#003a50" stroke-linecap="round" stroke-linejoin="round" stroke-width="0.4"/><g clip-path="url(#clip-path)"><line x1="607.65" y1="75.79" x2="605.45" y2="83.99" fill="none" stroke="#003a50" stroke-linecap="round" stroke-linejoin="round" stroke-width="0.4"/></g><line x1="605.45" y1="83.99" x2="609.85" y2="83.99" fill="none" stroke="#003a50" stroke-linecap="round" stroke-linejoin="round" stroke-width="0.4"/><g clip-path="url(#clip-path)"><line x1="609.85" y1="83.99" x2="607.65" y2="75.79" fill="none" stroke="#003a50" stroke-linecap="round" stroke-linejoin="round" stroke-width="0.4"/></g><polygon points="605.45 83.99 609.85 83.99 607.65 75.79 605.45 83.99" fill="#003a50"/><g clip-path="url(#clip-path)"><line x1="607.65" y1="75.79" x2="609.85" y2="67.58" fill="none" stroke="#003a50" stroke-linecap="round" stroke-linejoin="round" stroke-width="0.4"/><line x1="605.45" y1="67.58" x2="607.65" y2="75.79" fill="none" stroke="#003a50" stroke-linecap="round" stroke-linejoin="round" stroke-width="0.4"/></g><polygon points="607.62 75.65 607.65 75.79 607.69 75.65 607.62 75.65" fill="#003a50"/><g clip-path="url(#clip-path)"><line x1="574.2" y1="75.79" x2="609.29" y2="75.79" fill="none" stroke="#003a50" stroke-linecap="round" stroke-linejoin="round" stroke-width="0.4"/><line x1="607.65" y1="75.79" x2="574.2" y2="75.79" fill="none" stroke="#003a50" stroke-linecap="round" stroke-linejoin="round" stroke-width="0.4"/><path d="M595,130.18h8.12V131h-7.37v1.92H595Z" fill="#003a50"/><path d="M598.56,123.46a2.36,2.36,0,0,1,.85-1,2.39,2.39,0,0,1,1.29-.34,2.35,2.35,0,0,1,1.3.36,2.24,2.24,0,0,1,.88,1,3.25,3.25,0,0,1,.31,1.42,3,3,0,0,1-1.06,2.47,4.68,4.68,0,0,1-3,.85,5.18,5.18,0,0,1-2.3-.46,3.24,3.24,0,0,1-1.41-1.3,4.26,4.26,0,0,1,0-3.87l.68.34a2.76,2.76,0,0,0-.39,1.57,2.68,2.68,0,0,0,.86,2.11,3.57,3.57,0,0,0,2.47.77,5.4,5.4,0,0,0,.66,0,2.16,2.16,0,0,1-1-1,3,3,0,0,1-.37-1.52A3.25,3.25,0,0,1,598.56,123.46Zm3.44.06a1.76,1.76,0,0,0-2.56,0A2.24,2.24,0,0,0,599,125a2.45,2.45,0,0,0,.23,1.08,1.78,1.78,0,0,0,.64.74,1.59,1.59,0,0,0,.9.27,1.63,1.63,0,0,0,.86-.25,1.87,1.87,0,0,0,.64-.74,2.58,2.58,0,0,0,.24-1.16A2.1,2.1,0,0,0,602,123.52Z" fill="#003a50"/><path d="M602.69,119.62a3.17,3.17,0,0,1-1.43,1.15,6.11,6.11,0,0,1-4.4,0,3.17,3.17,0,0,1-1.43-1.15,2.91,2.91,0,0,1-.5-1.67,2.94,2.94,0,0,1,.5-1.68,3.31,3.31,0,0,1,1.43-1.15,6,6,0,0,1,4.4,0,3.31,3.31,0,0,1,1.43,1.15,2.94,2.94,0,0,1,.5,1.68A2.91,2.91,0,0,1,602.69,119.62ZM602,116.7a2.54,2.54,0,0,0-1.15-.84,5.67,5.67,0,0,0-3.64,0,2.6,2.6,0,0,0-1.15.84,2.2,2.2,0,0,0,0,2.5,2.6,2.6,0,0,0,1.15.84,5.67,5.67,0,0,0,3.64,0,2.54,2.54,0,0,0,1.15-.84,2.2,2.2,0,0,0,0-2.5Z" fill="#003a50"/><path d="M602.69,112a3.31,3.31,0,0,1-1.43,1.15,6.11,6.11,0,0,1-4.4,0,3.31,3.31,0,0,1-1.43-1.15,3.06,3.06,0,0,1,0-3.35,3.24,3.24,0,0,1,1.43-1.15,6,6,0,0,1,4.4,0,3.24,3.24,0,0,1,1.43,1.15,3.06,3.06,0,0,1,0,3.35ZM602,109a2.54,2.54,0,0,0-1.15-.84,5.67,5.67,0,0,0-3.64,0,2.6,2.6,0,0,0-1.15.84,2.18,2.18,0,0,0,0,2.49,2.6,2.6,0,0,0,1.15.84,5.67,5.67,0,0,0,3.64,0,2.54,2.54,0,0,0,1.15-.84,2.18,2.18,0,0,0,0-2.49Z" fill="#003a50"/><line x1="607.65" y1="163.37" x2="607.65" y2="259.12" fill="none" stroke="#003a50" stroke-linecap="round" stroke-linejoin="round" stroke-width="0.4"/><line x1="607.65" y1="163.37" x2="605.45" y2="171.57" fill="none" stroke="#003a50" stroke-linecap="round" stroke-linejoin="round" stroke-width="0.4"/><line x1="609.85" y1="171.57" x2="607.65" y2="163.37" fill="none" stroke="#003a50" stroke-linecap="round" stroke-linejoin="round" stroke-width="0.4"/></g><polygon points="607.56 163.71 607.75 163.71 607.65 163.37 607.56 163.71" fill="#003a50"/><line x1="607.65" y1="163.37" x2="609.85" y2="155.16" fill="none" stroke="#003a50" stroke-linecap="round" stroke-linejoin="round" stroke-width="0.4"/><line x1="609.85" y1="155.16" x2="605.45" y2="155.16" fill="none" stroke="#003a50" stroke-linecap="round" stroke-linejoin="round" stroke-width="0.4"/><line x1="605.45" y1="155.16" x2="607.65" y2="163.37" fill="none" stroke="#003a50" stroke-linecap="round" stroke-linejoin="round" stroke-width="0.4"/><polygon points="605.45 155.16 607.65 163.37 609.85 155.16 605.45 155.16" fill="#003a50"/><line x1="586.78" y1="163.37" x2="609.29" y2="163.37" fill="none" stroke="#003a50" stroke-linecap="round" stroke-linejoin="round" stroke-width="0.4"/><line x1="607.65" y1="163.37" x2="586.78" y2="163.37" fill="none" stroke="#003a50" stroke-linecap="round" stroke-linejoin="round" stroke-width="0.4"/><g clip-path="url(#clip-path)"><path d="M595,221.19h8.12V222h-7.37v1.91H595Z" fill="#003a50"/><path d="M595,213.53h.59l7.53,3.4v.9l-7.37-3.34v4.18h1.51v.82H595Z" fill="#003a50"/><path d="M599,207.94a2.11,2.11,0,0,1,1.77-.81,2.42,2.42,0,0,1,1.26.33,2.25,2.25,0,0,1,.88,1,3.82,3.82,0,0,1,.32,1.63,4.77,4.77,0,0,1-.29,1.65,3.39,3.39,0,0,1-.76,1.26l-.66-.41a2.86,2.86,0,0,0,.68-1.07,3.7,3.7,0,0,0,.26-1.42,2.42,2.42,0,0,0-.45-1.56,1.47,1.47,0,0,0-1.21-.55,1.45,1.45,0,0,0-1.26.62,3.86,3.86,0,0,0-.43,2.09v1.73L595,212v-4.44h.75v3.71l2.58.28v-1A4.18,4.18,0,0,1,599,207.94Z" fill="#003a50"/><path d="M602.69,204.52a3.31,3.31,0,0,1-1.43,1.15,6.11,6.11,0,0,1-4.4,0,3.31,3.31,0,0,1-1.43-1.15,3.06,3.06,0,0,1,0-3.35,3.33,3.33,0,0,1,1.43-1.16,6.11,6.11,0,0,1,4.4,0,3.33,3.33,0,0,1,1.43,1.16,3.06,3.06,0,0,1,0,3.35ZM602,201.6a2.54,2.54,0,0,0-1.15-.84,5.67,5.67,0,0,0-3.64,0,2.6,2.6,0,0,0-1.15.84,2.18,2.18,0,0,0,0,2.49,2.6,2.6,0,0,0,1.15.84,5.67,5.67,0,0,0,3.64,0,2.54,2.54,0,0,0,1.15-.84,2.18,2.18,0,0,0,0-2.49Z" fill="#003a50"/><line x1="145.63" y1="-21.27" x2="145.63" y2="0.62" fill="none" stroke="#003a50" stroke-linecap="round" stroke-linejoin="round" stroke-width="0.4"/><line x1="145.63" y1="0.62" x2="147.83" y2="-7.59" fill="none" stroke="#003a50" stroke-linecap="round" stroke-linejoin="round" stroke-width="0.4"/><line x1="143.43" y1="-7.59" x2="145.63" y2="0.62" fill="none" stroke="#003a50" stroke-linecap="round" stroke-linejoin="round" stroke-width="0.4"/></g><polygon points="145.46 0 145.63 0.62 145.79 0 145.46 0" fill="#003a50"/><line x1="149.79" y1="0.62" x2="143.99" y2="0.62" fill="none" stroke="#003a50" stroke-linecap="round" stroke-linejoin="round" stroke-width="0.4"/><line x1="145.63" y1="0.62" x2="149.79" y2="0.62" fill="none" stroke="#003a50" stroke-linecap="round" stroke-linejoin="round" stroke-width="0.4"/><g clip-path="url(#clip-path)"><line x1="203.68" y1="0.62" x2="203.68" y2="-32.21" fill="none" stroke="#003a50" stroke-linecap="round" stroke-linejoin="round" stroke-width="0.4"/><line x1="203.68" y1="0.62" x2="205.88" y2="-7.59" fill="none" stroke="#003a50" stroke-linecap="round" stroke-linejoin="round" stroke-width="0.4"/><line x1="201.48" y1="-7.59" x2="203.68" y2="0.62" fill="none" stroke="#003a50" stroke-linecap="round" stroke-linejoin="round" stroke-width="0.4"/></g><polygon points="203.51 0 203.68 0.62 203.85 0 203.51 0" fill="#003a50"/><line x1="199.52" y1="0.62" x2="205.32" y2="0.62" fill="none" stroke="#003a50" stroke-linecap="round" stroke-linejoin="round" stroke-width="0.4"/><line x1="203.68" y1="0.62" x2="199.52" y2="0.62" fill="none" stroke="#003a50" stroke-linecap="round" stroke-linejoin="round" stroke-width="0.4"/></svg>