<svg xmlns="http://www.w3.org/2000/svg" xml:space="preserve" id="Слой_1" x="0" y="0" style="enable-background:new 0 0 411 652" version="1.1" viewBox="0 0 411 652"><style>.st0{fill:#e5ebed}.st1{fill:none;stroke-width:.52}.st1,.st2,.st3{stroke:#003a50;stroke-miterlimit:10}.st2{fill:none;stroke-width:.26}.st3{stroke-width:.52}.st3,.st4{fill:#003a50}</style><g id="flats"><path id="fl139" d="M345.8 548.6v-12.1h-52.9v-24.7h-55.1v36.8h-16.6v84.8h124.7l-.1-84.8z" class="st0"/><path id="fl138" d="M266 419.3v94.3h26.9v22.9h53V419.3H266z" class="st0"/><path id="fl137" d="M265.8 299.5h80V420h-80V299.5z" class="st0"/><path id="fl136" d="M169.1 450.5h7.3v-36h-7.3v-20.6h7.3V343h-81v117.6h73.7v-10.1z" class="st0"/><path id="fl135" d="M143.1 508.2h33.3v-47h-81v76.1h47.7v-29.1z" class="st0"/><path id="fl134" d="M204.6 549.5v-39.3h-29.7v-1.9H142v28H95.4v97.1h125.8v-83.9h-16.6z" class="st0"/><path id="fl7" d="M175.6 192.8h91.5v75.1h-91.5v-75.1z" class="st0"/><path id="fl6" d="M219.6 117.9V146h-44v46.8h91.5v-74.9h-47.5z" class="st0"/><path id="fl5" d="M267.1 64.7V18.6H165.4v72.9h10.2v55.8h45.1v-28.4h46.4V64.7z" class="st0"/><path id="fl4" d="M165.4 18.6H65.3V113h87.9V91.5h12.2V18.6z" class="st0"/><path id="fl3" d="M153.2 113.4H65.3v39.7h56.8v12.6h31.1v-52.3z" class="st0"/><path id="fl2" d="M122.1 166.8v-15.4H65.3v74.1h87.9v-58.7h-31.1z" class="st0"/><path id="fl1" d="M126.9 299.4h26.3V225H65.3v116.1h61.6v-41.7z" class="st0"/></g><g id="windows"><path d="M59.6 12.9v335.3m5.7-335.3v335.3" class="st1"/><path d="M62.5 12.9v335.3" class="st2"/><path d="M59.6 18.6h213.3M59.6 12.9h213.3" class="st1"/><path d="M59.6 15.8h213.3" class="st2"/><path d="M271.1 299.5h75.3m-75.3-5.7h75.3" class="st1"/><path d="M271.1 296.7h75.3" class="st2"/><path d="M345.9 295.6v347.6m5.7-347.6v347.6" class="st1"/><path d="M348.7 295.6v347.6" class="st2"/><path d="M89.7 342v301.2M95.4 342v301.2" class="st1"/><path d="M92.6 342v301.2" class="st2"/><path d="M89.7 639.1h259.7m-259.7-5.7h259.7" class="st1"/><path d="M89.7 636.2h259.7" class="st2"/><path d="M267.1 12.9v279.9m5.8-279.9v279.9" class="st1"/><path d="M270 12.9v279.9" class="st2"/></g><g id="walls_outside"><path d="M90.1 11.4H112v7.3H90.1v-7.3zm36.5-3h3.2v10.2h-3.2V8.4z" class="st3"/><path d="M90.1 8.4h3.2v10.2h-3.2V8.4zm18.7 0h3.2v10.2h-3.2V8.4zm39.2 0h3.2v10.2H148V8.4zm18.6 0h3.2v10.2h-3.2V8.4zm21.2 0h3.2v10.2h-3.2V8.4zm18.5 0h3.2v10.2h-3.2V8.4zm17.7 0h3.2v10.2H224V8.4zm18.5 0h3.2v10.2h-3.2V8.4z" class="st3"/><path d="M148 11.4h21.8v7.3H148v-7.3zm39.8 0h21.8v7.3h-21.8v-7.3zm36.2 0h21.8v7.3H224v-7.3zm47.5-3h5.8v5.8h-5.8V8.4zm-4.4 31.1h10.1v3.4h-10.1v-3.4zm0 21.6h10.1v3.4h-10.1v-3.4zm0 18.2h10.1v3.4h-10.1v-3.4zm0 21.4h10.1v3.4h-10.1v-3.4zm0 18.2h10.1v3.4h-10.1v-3.4zm0 21.5h10.1v3.4h-10.1v-3.4zm0 18.2h10.1v3.4h-10.1v-3.4zm0 21.3h10.1v3.4h-10.1v-3.4zm0 18.2h10.1v3.4h-10.1v-3.4zm0 21.5h10.1v3.4h-10.1v-3.4zm0 18.2h10.1v3.4h-10.1v-3.4zm0 21.8h10.1v3.4h-10.1v-3.4zm46.1 30.2h5.5v9.7h-5.5v-9.7z" class="st3"/><path d="M267.1 61.1h7.6v21.5h-7.6V61.1zm0 39.6h7.6v21.5h-7.6v-21.5zm0 39.7h7.6v21.5h-7.6v-21.5zm0 39.6h7.6v21.5h-7.6V180zm0 39.6h7.6v21.5h-7.6v-21.5zm0 40h5.7v39.9h-5.7v-39.9z" class="st3"/><path d="M268.9 293.8H279v5.8h-10.1v-5.8zm28.2-1.2h21.6v6.9h-21.6v-6.9zm53-2.5h5.7v5.7h-5.7v-5.7zm0 33.8h5.7v5.7h-5.7v-5.7zm0 25.7h5.7v5.7h-5.7v-5.7zm-4.3 103h8v22h-8v-22z" class="st3"/><path d="M347.8 468.9h8v5.7h-8v-5.7zm-2 23.3h8v22h-8v-22z" class="st3"/><path d="M347.8 508.5h8v5.7h-8v-5.7zm-2 23.4h8v22h-8v-22zm0 81.8h5.8v24.4h-5.8v-24.4z" class="st3"/><path d="M347.8 548.2h8v5.7h-8v-5.7zm-2 24.1h8v22h-8v-22z" class="st3"/><path d="M347.8 588.6h8v5.7h-8v-5.7zm-2-215.3h8v22h-8v-22z" class="st3"/><path d="M347.8 389.6h8v5.7h-8v-5.7zm-2 23.8h8v22h-8v-22z" class="st3"/><path d="M347.8 429.7h8v5.7h-8v-5.7zm-2 207.8h10v5.7h-10v-5.7z" class="st3"/><path d="M345.9 633.4h8.1v5.7h-8.1v-5.7zm-50.2-1.4h17.2v5.8h-17.2V632zm-39.6 0h17.2v5.8h-17.2V632z" class="st3"/><path d="M251.9 635.6h21.5v5.5h-21.5v-5.5zm-61.4-2.5h5.5v10.1h-5.5v-10.1zM212 632h17.2v7.6H212V632zm-54.5 0h17.2v7.6h-17.2V632z" class="st3"/><path d="M267.8 638.5h5.6v4.8h-5.6v-4.8zm-55.8-5.1h21.5v7.8H212v-7.8z" class="st3"/><path d="M227.9 638.5h5.6v4.8h-5.6v-4.8zm-74.7-5.1h21.5v7.8h-21.5v-7.8z" class="st3"/><path d="M153.2 638.5h5.6v4.8h-5.6v-4.8zm138.3-5.1H313v7.8h-21.5v-7.8z" class="st3"/><path d="M307.4 638.5h5.6v4.8h-5.6v-4.8zM117.8 632H135v5.8h-17.2V632z" class="st3"/><path d="M113.6 635.6h21.5v5.5h-21.5v-5.5z" class="st3"/><path d="M113.6 638.5h5.6v4.8h-5.6v-4.8zm-28.3-.7h10v5.4h-10v-5.4z" class="st3"/><path d="M87.8 632h7.6v8.3h-7.6V632zm2.7-60.4h4.9v21.8h-4.9v-21.8zm-2.3-39.4h7.2v21.6h-7.2v-21.6zm0-79.3h7.2v21.6h-7.2v-21.6zm0-79.7h8.4v21.6h-8.4v-21.6zm-.9-33.6h8v15.9h-8v-15.9z" class="st3"/><path d="M57.5 339.6h33.6v9H57.5v-9z" class="st3"/><path d="M85.2 341.1H91v9.6h-5.8v-9.6zm-30.1 4h5.8v5.6h-5.8v-5.6z" class="st3"/><path d="M63.7 339.3h110.9v3.7H63.7v-3.7zm30.1 120.5h82.5v2.8H93.8v-2.8z" class="st4"/><path d="M124.5 297.5h3.7v43h-3.7v-43zm48.4 34h3.5v82.4h-3.5v-82.4z" class="st4"/><path d="M172.9 413h3.5v8.7h-3.5V413zm0 18.8h3.5v28.8h-3.5v-28.8z" class="st4"/><path d="M172.9 460h3.5v27.6h-3.5V460zm-32.4 46.2h33.6v3.5h-33.6v-3.5zm34 4h5.7v3.5h-5.7v-3.5zm15.7 0h14.2v3.5h-14.2v-3.5zm47.6 1.6h14.4v3.5h-14.4v-3.5zm24.5 0h32.6v3.5h-32.6v-3.5zm6-94.1h81.5v3.5h-81.5v-3.5zm23.1 117.1h55.7v3.5h-55.7v-3.5zM203.1 548h36.2v3h-36.2v-3zm0-66.5h9.2v3h-9.2v-3zm23.8 0h12.4v3h-12.4v-3z" class="st4"/><path d="M140.5 506.2h3.5v31.9h-3.5v-31.9zM266 456.8h3.5v85.9H266v-85.9zm0-52.2h3.5v42.1H266v-42.1zm25.4 107.2h3.5v26.4h-3.5v-26.4zM219.1 550h3.5v84.9h-3.5V550z" class="st4"/><path d="M93.6 534.6h50.3v3.5H93.6v-3.5zm79.3-36.9h3.5V538h-3.5v-40.3zm30.2-16.2h3v69.4h-3v-69.4zm33.2.1h3V551h-3v-69.4zm-86.8-209.4h3.7v29h-3.7v-29zm0-72.4h3.7v62h-3.7v-62zm0-65.1h3.7v55.1h-3.7v-55.1zm0-30.1h3.7v20h-3.7v-20zm26.1-14.8h3.7v13.3h-3.7V89.8zm0 23.3h3.7v23.4h-3.7v-23.4zm0 32h3.7v12.7h-3.7v-12.7zm42.9-28.6h3.7v32.1h-3.7v-32.1zm-42.9 51.3h3.7v32.6h-3.7v-32.6zm0 59.7h3.7v3.8h-3.7v-3.8z" class="st4"/><path d="M178.7 227.5h7.4v2.7h-7.4v-2.7zm-1.9-35.8h95.3v2.9h-95.3v-2.9zm0-46.6h45.3v3.5h-45.3v-3.5zm0-11h7.6v2.5h-7.6v-2.5z" class="st4"/><path d="M181.8 135.6h2.6v10.7h-2.6v-10.7zm36.7-19.1h52.2v3.5h-52.2v-3.5zm-36.1 76.6h3.7v36.8h-3.7v-36.8zm-6.8 48.3h3.7v28.1h-3.7v-28.1zm90.4 26h3.5v127.2H266V267.4z" class="st4"/><path d="M175.6 266.3h96.6v3.1h-96.6v-3.1zm-24.7 32h2.3v8.9h-2.3v-8.9zm0 18.9h2.3v23.9h-2.3v-23.9zm24 39.3h92.4v3h-92.4v-3zM149.5 89.8h3.7v4.8h-3.7v-4.8z" class="st4"/><path d="M151.1 89.8h26.5v3.8h-26.5v-3.8zm-88.2 22.6h87.7v3.8H62.9v-3.8zm0 37.5h60.8v3.8H62.9v-3.8zm57.1 14.5h31.9v3.8H120v-3.8z" class="st4"/><path d="M120 149.9h3.8v18.2H120v-18.2zM163.6 16h3.8v75.4h-3.8V16zm-39.1 281.5h28.6v3.7h-28.6v-3.7zm-60.8-73.8h87.8v3.7H63.7v-3.7z" class="st4"/><path d="M57.5 335.7h7.6v10.8h-7.6v-10.8zm.4-39.5h7.2v21.9h-7.2v-21.9z" class="st3"/><path d="M55.3 314.9h9.8v3.3h-9.8v-3.3zm0-18.7h9.8v3.5h-9.8v-3.5zm0-21.2h9.8v3.5h-9.8V275zm0-18.5h9.8v3.5h-9.8v-3.5zm0-39.6h9.8v3.6h-9.8v-3.6zm0-21.5h9.8v3.6h-9.8v-3.6zm0-18.3h9.8v3.6h-9.8v-3.6zm0-40h9.8v3.6h-9.8v-3.6zm0-39.5h9.8v3.6h-9.8v-3.6zm0-39.5h9.8v3.5h-9.8v-3.5zm0 18.3h9.8V80h-9.8v-3.6zm0 39.6h9.8v3.6h-9.8V116zm0 39.4h9.8v3.6h-9.8v-3.6zm0 79.9h9.8v3.6h-9.8v-3.6z" class="st3"/><path d="M57.9 256.5h7.2v21.9h-7.2v-21.9zm0-39.6h7.2v21.9h-7.2v-21.9zm0-39.8h7.2V199h-7.2v-21.9zm-.4-40H65V159h-7.5v-21.9zm0-39.5H65v21.9h-7.5V97.6zm.4-39.5h7.2V80h-7.2V58.1zm-2.6-22h9.8V40h-9.8v-3.9zm30 353.2h8.4v5.4h-8.4v-5.4zm.2 158.7h7.2v5.8h-7.2V548zm2.7-55.5h7.2v21.6h-7.2v-21.6z" class="st3"/><path d="M85.5 508.3h7.2v5.8h-7.2v-5.8zm2.7 63.5h7.2v21.6h-7.2v-21.6z" class="st3"/><path d="M85.5 587.5h7.2v5.8h-7.2v-5.8zm0-118.9h7.2v5.8h-7.2v-5.8zm2.7-54.9h7.2v21.6h-7.2v-21.6z" class="st3"/><path d="M85.5 429.5h7.2v5.8h-7.2v-5.8zm260.3-134.4h5.7v11h-5.7v-11zm.1 28.8h7.9v31.5h-7.9v-31.5z" class="st3"/><path d="M337 292.2h14.6v9H337v-9zM55.3 8.4h5.8v5.8h-5.8V8.4z" class="st3"/></g></svg>