<svg xmlns="http://www.w3.org/2000/svg" xml:space="preserve" id="_Слой_1" x="0" y="0" style="enable-background:new 0 0 411 652" version="1.1" viewBox="0 0 411 652"><style>.st0{fill:#e5ebed}.st1{fill:none;stroke-width:.52}.st1,.st2,.st3{stroke:#003a50;stroke-miterlimit:10}.st2{fill:none;stroke-width:.26}.st3{stroke-width:.52}.st3,.st4{fill:#003a50}</style><g id="flats"><path id="fl247" d="M345.8 549.9V536h-52.9v-24.1h-55.1v38h-16.6v83.5h124.7l-.1-83.5z" class="st0"/><path id="fl246" d="M266 419.3v94.2h27.5v22.9h52.4V419.3H266z" class="st0"/><path id="fl245" d="M266 299.5h79.9V420H266V299.5z" class="st0"/><path id="fl244" d="M169.1 450.5h7.2v-36h-7.2v-20.6h7.2V343h-81v117.6h73.8v-10.1z" class="st0"/><path id="fl243" d="M143.1 508.2h33.2v-47H95.4v76.1h47.7v-29.1z" class="st0"/><path id="fl242" d="M204.6 549.5v-39.3h-29.7v-1.9H142v28H95.4v97h125.8v-83.8h-16.6z" class="st0"/><path id="fl133" d="M175.6 192.8h91.5v75.1h-91.5v-75.1z" class="st0"/><path id="fl132" d="M219.6 117.9v28h-44v46.9h91.5v-74.9h-47.5z" class="st0"/><path id="fl131" d="M267.1 64.7v-46H165.4v72.8h10.2v55.9h45.1V119h46.4V64.7z" class="st0"/><path id="fl130" d="M165.4 18.6H65.3V113h87.8V91.5h12.2V18.6z" class="st0"/><path id="fl129" d="M153.2 113.4H65.3v39.7h56.8v12.7h31.1v-52.4z" class="st0"/><path id="fl128" d="M122.1 166.8v-15.4H65.3v74.1h87.8v-58.7h-31z" class="st0"/><path id="fl127" d="M126.9 299.4h26.2V225H65.3v116.1h61.6v-41.7z" class="st0"/></g><g id="windows"><path d="M59.6 12.9v335.3m5.7-335.3v335.3" class="st1"/><path d="M62.5 12.9v335.3" class="st2"/><path d="M59.6 18.6h213.2M59.6 12.9h213.2" class="st1"/><path d="M59.6 15.8h213.2" class="st2"/><path d="M271.1 299.5h75.3m-75.3-5.7h75.3" class="st1"/><path d="M271.1 296.7h75.3" class="st2"/><path d="M345.9 295.6v347.6m5.7-347.6v347.6" class="st1"/><path d="M348.7 295.6v347.6" class="st2"/><path d="M89.7 342v301.2M95.4 342v301.2" class="st1"/><path d="M92.6 342v301.2" class="st2"/><path d="M89.7 639.1h259.7m-259.7-5.7h259.7" class="st1"/><path d="M89.7 636.2h259.7" class="st2"/><path d="M267.1 12.9v279.9m5.7-279.9v279.9" class="st1"/><path d="M270 12.9v279.9" class="st2"/></g><g id="walls_inside"><path d="M129.8 8.4v10.2h-3.2V8.4h3.2zm147.4 0v5.8h-5.8V8.4h5.8zm0 31.1v3.3h-10.1v-3.3h10.1zm1.9 250.6v9.5H269v-9.5h10.1zm-1.9-229v3.3h-10.1v-3.3h10.1zm0 18.2v3.3h-10.1v-3.3h10.1zm0 21.4v3.3h-10.1v-3.3h10.1zm0 18.2v3.3h-10.1v-3.3h10.1zm0 21.5v3.4h-10.1v-3.4h10.1zm0 18.2v3.4h-10.1v-3.4h10.1zm0 21.4v3.4h-10.1V180h10.1zm0 18.1v3.4h-10.1v-3.4h10.1zm0 21.5v3.4h-10.1v-3.4h10.1zm0 18.2v3.4h-10.1v-3.4h10.1zm0 21.8v3.4h-10.1v-3.4h10.1z" class="st3"/><path d="M274.7 61.1v21.5h-7.6V61.1h7.6zm0 39.6v21.5h-7.6v-21.5h7.6zm0 39.7v21.5h-7.6v-21.5h7.6zm0 39.6v21.5h-7.6V180h7.6zm0 41.9v17.6h-7.6v-17.6h7.6zm0 40.1v31.8h-7.6V262h7.6z" class="st3"/><path d="M272.8 259.6v39.9h-5.7v-39.9h5.7zm83 30.5v9.5H350v-9.5h5.8zm-37.4 0v9.5h-10.8v-9.5h10.8zm35.4 162.5v22h-8v-22h8zm0 79.3v22h-8v-22h8z" class="st3"/><path d="M355.8 542.9v11h-8v-11h8zm-2-50.7v22h-8v-22h8z" class="st3"/><path d="M355.8 503.2v11h-8v-11h8zm0-39.6v11h-8v-11h8zm-2-50.8v22h-8v-22h8z" class="st3"/><path d="M355.8 423.8v11h-8v-11h8zm0-39.5v11h-8v-11h8zm-2 187.2v22h-8v-22h8z" class="st3"/><path d="M355.8 582.5v11h-8v-11h8zm-2-209.2v22h-8v-22h8zm2-29v11h-8v-11h8z" class="st3"/><path d="M353.8 333.4v22h-8v-22h8zm2 304.1v5.8h-10v-5.8h10z" class="st3"/><path d="M353.5 633v5.8h-7.7V633h7.7z" class="st3"/><path d="M351.6 631.1v5.8h-5.8v-5.8h5.8z" class="st3"/><path d="M348.4 633.4v9.9h-2.5v-9.9h2.5zM313 632v5.8h-17.2V632H313zm-39.6 0v5.8h-17.2V632h17.2zm-120.2 3.6h21.5v5.5h-21.5v-5.5z" class="st3"/><path d="M251.9 635.6h21.5v4.8h-21.5v-4.8zm-61.4-2.5h5.5v10.1h-5.5v-10.1zM212 632h17.2v7.6H212V632zm-54.5 0h17.2v7.6h-17.2V632zm-22.4 0v5.8h-17.2V632h17.2z" class="st3"/><path d="M113.6 635.6h21.5v4.8h-21.5v-4.8z" class="st3"/><path d="M113.6 638.5h10.8v4.8h-10.8v-4.8zm39.6 0H164v4.8h-10.8v-4.8zm58.8-5.1h21.5v7.8H212v-7.8z" class="st3"/><path d="M212 638.5h10.8v4.8H212v-4.8zm39.9 0h10.7v4.8h-10.8l.1-4.8zm39.6-2.9H313v4.8h-21.5v-4.8z" class="st3"/><path d="M291.5 638.5h10.8v4.8h-10.8v-4.8zm-206.3-.7h10.2v5.4H85.2v-5.4zm2.2-185h8v21.6h-8v-21.6zM85.3 424h11.3v10.8H85.3V424z" class="st3"/><path d="M87.4 413.2h9.2v21.6h-9.2v-21.6zm.8-40h8.4v21.6h-8.4v-21.6z" class="st3"/><path d="M63.7 339.3h110.9v3.7H63.7v-3.7zm30.1 120.5h82.5v2.8H93.8v-2.8z" class="st4"/><path d="M124.5 297.5h3.7v43h-3.7v-43zm48.4 34h3.5v63.3h-3.5v-63.3zm0 81.5h3.5v8.7h-3.5V413z" class="st4"/><path d="M172.9 392.9h3.5v22.2h-3.5v-22.2zm0 38.9h3.5V462h-3.5v-30.2z" class="st4"/><path d="M172.9 460h3.5v27.6h-3.5V460zm-32.4 46.2h33.6v3.5h-33.6v-3.5zm34 4h5.7v3.5h-5.7v-3.5zm15.7 0h14.2v3.5h-14.2v-3.5zm47.6 1.6h14.4v3.5h-14.4v-3.5zm24.5 0h32.6v3.5h-32.6v-3.5zm6-94.1h81.5v3.5h-81.5v-3.5zm23.1 117.1h55.7v3.5h-55.7v-3.5zM203.1 548h36.2v3h-36.2v-3zm0-66.5h9.2v3h-9.2v-3zm23.8 0h12.4v3h-12.4v-3z" class="st4"/><path d="M140.5 506.2h3.5v31.9h-3.5v-31.9zM266 456.8h3.5v85.9H266v-85.9zm0-52.2h3.5v42.1H266v-42.1zm25.4 107.2h3.5v26.4h-3.5v-26.4zM219.1 550h3.5v84.9h-3.5V550z" class="st4"/><path d="M93.6 534.6h50.3v3.5H93.6v-3.5zm79.3-36.9h3.5V538h-3.5v-40.3zm30.2-16.1h3V551h-3v-69.4zm33.2 0h3V551h-3v-69.4zm-86.8-209.4h3.7v29h-3.7v-29zm0-72.4h3.7v62h-3.7v-62zm0-65.1h3.7v55.1h-3.7v-55.1zm0-30.1h3.7v20h-3.7v-20zm26.1-14.8h3.7v13.3h-3.7V89.8zm0 23.3h3.7v23.4h-3.7v-23.4zm0 32h3.7v12.7h-3.7v-12.7zm42.9-28.6h3.7v32.1h-3.7v-32.1zm-42.9 51.3h3.7v32.6h-3.7v-32.6zm0 59.7h3.7v3.8h-3.7v-3.8z" class="st4"/><path d="M178.7 227.5h7.4v2.7h-7.4v-2.7zm-1.9-35.8h95.3v2.9h-95.3v-2.9zm0-46.6h45.3v3.5h-45.3v-3.5zm0-11h7.6v2.5h-7.6v-2.5z" class="st4"/><path d="M181.8 135.6h2.6v10.7h-2.6v-10.7zm36.7-19.1h52.2v3.5h-52.2v-3.5zm-36.1 76.6h3.7v36.8h-3.7v-36.8zm-6.8 48.3h3.7v28.1h-3.7v-28.1zm90.4 26h3.5v127.2H266V267.4z" class="st4"/><path d="M175.6 266.3h96.6v3.1h-96.6v-3.1zm-24.7 32h2.3v8.9h-2.3v-8.9zm0 18.9h2.3v23.9h-2.3v-23.9zm24 39.3h92.4v3h-92.4v-3zm34.9 109.4h2.5V483h-2.5v-17.1zm17.1-2.4h2.5V483h-2.5v-19.5zM149.5 89.8h3.7v4.8h-3.7v-4.8z" class="st4"/><path d="M151.1 89.8h26.5v3.8h-26.5v-3.8zm-88.2 22.6h87.7v3.8H62.9v-3.8zm0 37.6h60.8v3.8H62.9V150zm57.1 14.4h32v3.8h-32v-3.8z" class="st4"/><path d="M120 149.9h3.8v18.2H120v-18.2zm43.6-133.8h3.8v75.4h-3.8V16.1zm-39.1 281.4h28.6v3.7h-28.6v-3.7zm-60.8-73.8h87.8v3.7H63.7v-3.7z" class="st4"/><path d="M58.2 296.2h6.9v21.9h-6.8c-.1.1-.1-21.9-.1-21.9zm0-39.7h6.9v21.9h-6.8c-.1.1-.1-21.9-.1-21.9zm0-39.6h6.9v21.9h-6.8c-.1 0-.1-21.9-.1-21.9zm0-39.9h6.9v22h-6.8c-.1 0-.1-22-.1-22zm0-40h6.9v22h-6.8c-.1 0-.1-22-.1-22zm0-39.4h6.9v21.9h-6.8l-.1-21.9zm0-39.5h6.9V80h-6.8l-.1-21.9z" class="st3"/><path d="M57.9 296.2h7.2v21.9h-7.2v-21.9z" class="st3"/><path d="M55.3 314.9h9.8v3.3h-9.8v-3.3zm0-18.7h9.8v3.5h-9.8v-3.5zm0-21.2h9.8v3.5h-9.8V275zm0-18.4h9.8v3.5h-9.8v-3.5zm0-39.7h9.8v3.6h-9.8v-3.6zm0-21.4h9.8v3.5h-9.8v-3.5zm0-18.4h9.8v3.6h-9.8v-3.6zm0-40h9.8v3.6h-9.8v-3.6zm0-39.5h9.8v3.6h-9.8v-3.6zm0-39.5h9.8v3.5h-9.8v-3.5zm0 18.4h9.8V80h-9.8v-3.5zm0 39.5h9.8v3.6h-9.8V116zm0 39.5h9.8v3.5h-9.8v-3.5zm0 79.8h9.8v3.6h-9.8v-3.6z" class="st3"/><path d="M57.9 256.5h7.2v21.9h-7.2v-21.9zm0-39.6h7.2v21.9h-7.2v-21.9zm0-39.9h7.2v22h-7.2v-22zm-.4-40H65v22h-7.5v-22zm0-39.4H65v21.9h-7.5V97.6zm.4-39.5h7.2V80h-7.2V58.1zm-2.6-22h9.8V40h-9.8v-3.9z" class="st3"/><path d="M55.3 36.1h9.8V40h-9.8v-3.9zm30.1 348.1h8.4v10.5h-8.4v-10.5zm.1 79.3h7.2v10.9h-7.2v-10.9zm1.9 29.1h8v21.6h-8v-21.6z" class="st3"/><path d="M85.5 503.3h7.2v10.9h-7.2v-10.9zm1.9 28.8h8v21.6h-8v-21.6z" class="st3"/><path d="M85.5 542.8h7.2v10.9h-7.2v-10.9zm1.9 29.1h8v21.6h-8v-21.6zm0 59.4h8v9.2h-8v-9.2z" class="st3"/><path d="M85.5 582.5h7.2v10.9h-7.2v-10.9zm268.1-287.4v6h-8v-6h8z" class="st3"/><path d="M351.7 292.2v9H337v-9h14.7zm-33.3 0v7.4h-21.6v-7.4h21.6zM61.1 8.4v5.8h-5.8V8.4h5.8zm50.9 3v7.3H90.1v-7.3H112z" class="st3"/><path d="M93.3 8.4v10.2h-3.2V8.4h3.2zm18.7 0v10.2h-3.2V8.4h3.2zm39.2 0v10.2H148V8.4h3.2zm18.6 0v10.2h-3.2V8.4h3.2zm21.2 0v10.2h-3.2V8.4h3.2zm18.5 0v10.2h-3.2V8.4h3.2zm17.7 0v10.2H224V8.4h3.2zm18.6 0v10.2h-3.2V8.4h3.2z" class="st3"/><path d="M169.8 11.4v7.3H148v-7.3h21.8zm39.7 0v7.3h-21.8v-7.3h21.8zm36.3 0v7.3H224v-7.3h21.8zM57.5 339.6h33.6v9H57.5v-9z" class="st3"/><path d="M55.1 345.1H61v5.6h-5.8v-5.6z" class="st3"/><path d="M57.5 335.7h7.6v10.8h-7.6v-10.8zm27.7 5.4h10.2v14.2H85.2v-14.2z" class="st3"/></g></svg>