<svg xmlns="http://www.w3.org/2000/svg" xml:space="preserve" id="Слой_1" x="0" y="0" style="enable-background:new 0 0 411 652" version="1.1" viewBox="0 0 411 652"><style>.st0{fill:#e5ebed}.st1{fill:none;stroke-width:.52}.st1,.st2,.st3,.st4{stroke:#003a50;stroke-miterlimit:10}.st2{fill:none;stroke-width:.26}.st3,.st4{stroke-width:.52}.st3{fill:#003a50}.st4{fill-rule:evenodd;clip-rule:evenodd}.st4,.st5{fill:#003a50}</style><g id="flats"><path id="fl157" d="M353.8 535.9h-60.9v-24.1h-55.1v38.1h-16.6v91h132.6v-105z" class="st0"/><path id="fl156" d="M266 419.3v94.3h27.5v22.9h60.3V419.3H266z" class="st0"/><path id="fl155" d="M266 293.8h87.8V420H266V293.8z" class="st0"/><path id="fl154" d="M169.1 450.5h7.3v-36h-7.3v-20.6h7.3V343H88.1v117.6h81v-10.1z" class="st0"/><path id="fl153" d="M143.1 508.2h33.3v-47H88v76.1h55.1v-29.1z" class="st0"/><path id="fl152" d="M204.6 549.5v-39.3h-29.7v-1.9H142v28H88v104.6h133.2v-91.4h-16.6z" class="st0"/><path id="fl28" d="M175.6 192.8h99.1v75.1h-99.1v-75.1z" class="st0"/><path id="fl27" d="M219.6 117.9V146h-44v46.8h99.1v-74.9h-55.1z" class="st0"/><path id="fl26" d="M274.4 11.3h-109v80.2h10.2v55.8h45.1v-28.4H275l-.6-107.6z" class="st0"/><path id="fl25" d="M165.4 11.3H57.5V113h95.7V91.5h12.2V11.3z" class="st0"/><path id="fl24" d="M153.2 113.4H57.5v39.7h64.6v12.6h31.1v-52.3z" class="st0"/><path id="fl23" d="M122.1 166.8v-15.4H57.5v74.1h95.7v-58.7h-31.1z" class="st0"/><path id="fl22" d="M126.9 299.4h26.3V225H57.5v116.1h69.4v-41.7z" class="st0"/></g><g id="windows"><path d="M57.5 11.3v337.3m7.8-330v330" class="st1"/><path d="M61.1 11.3v337.3" class="st2"/><path d="M65.3 18.6h201.8M57.5 11.4h217.2" class="st1"/><path d="M57.5 14.2h217.2" class="st2"/><path d="M271.1 299.5h75.3m-75.3-5.7h75.3" class="st1"/><path d="M271.1 295.8h75.3" class="st2"/><path d="M345.9 295.6V642m7.9-346.4V642" class="st1"/><path d="M350.1 295.6V642" class="st2"/><path d="M88 342v298.9M95.4 342v298.9" class="st1"/><path d="M91 342.7v298.8" class="st2"/><path d="M89.7 640.9h256.5m-256.5-7.5h256.5" class="st1"/><path d="M89.4 637.4h256.5" class="st2"/><path d="M267.1 18.6v274.2m7.6-281.5v281.5" class="st1"/><path d="M271.5 11.3v281.5" class="st2"/><path d="M277.2 290.1V14.2l-5.7-5.8H61.1l-5.8 5.8v336.5h29.9V632m10.2 11.5h235.7l24.7-6V290.1h-76.7" class="st1"/></g><g id="walls_outside"><path d="M126.6 8.4h3.2v10.2h-3.2V8.4zm144.9 0h5.8v5.8h-5.8V8.4zm-4.4 31.1h10.1v3.4h-10.1v-3.4zm1.8 250.6H279v9.5h-10.1v-9.5z" class="st3"/><path d="M297.1 299.5v-9.4l21.6 2.9v6.5h-21.6z" class="st4"/><path d="M267.1 61.1h10.1v3.4h-10.1v-3.4zm0 18.2h10.1v3.4h-10.1v-3.4zm0 21.4h10.1v3.4h-10.1v-3.4zm0 18.2h10.1v3.4h-10.1v-3.4zm0 21.5h10.1v3.4h-10.1v-3.4zm0 18.2h10.1v3.4h-10.1v-3.4zm0 21.3h10.1v3.4h-10.1v-3.4zm0 18.2h10.1v3.4h-10.1v-3.4zm0 21.5h10.1v3.4h-10.1v-3.4zm0 18.2h10.1v3.4h-10.1v-3.4zm0 21.8h10.1v3.4h-10.1v-3.4z" class="st3"/><path d="M267.1 61.1h7.6v21.5h-7.6V61.1zm0 39.6h7.6v21.5h-7.6v-21.5zm0 39.7h7.6v21.5h-7.6v-21.5zm0 39.6h7.6v21.5h-7.6V180zm0 41.9h7.6v17.6h-7.6v-17.6zm0 40.1h7.6v31.8h-7.6V262z" class="st3"/><path d="M267.1 259.6h5.7v39.9h-5.7v-39.9zm82.9 30.5h5.7v9.5H350v-9.5z" class="st3"/><path d="M345.8 435v-22h10l-2 22h-8z" class="st4"/><path d="M345.8 452.6h8v22h-8v-22z" class="st3"/><path d="M347.8 468.9h8v5.7h-8v-5.7zm-2 63h8v22h-8v-22zm0 100.1h8v6.1h-8V632z" class="st3"/><path d="M347.8 548.2h8v5.7h-8v-5.7zm-2-174.9h8v22h-8v-22z" class="st3"/><path d="M347.8 389.6h8v5.7h-8v-5.7z" class="st3"/><path d="M345.8 514.5v-21.9h10l-2.4 21.9h-7.6z" class="st4"/><path d="M345.8 572.1h10v21.6h-10v-21.6zm0 65.4h10v5.7h-10v-5.7z" class="st3"/><path d="M331.1 633.4h17.2v9.9h-17.2v-9.9zm-35.4-1.4h17.2v5.8h-17.2V632zm-39.6 0h17.2v5.8h-17.2V632z" class="st3"/><path d="M313 643.2v-7.6h-21.5v5.3l21.5 2.3z" class="st4"/><path d="M153.2 635.6h21.5v7.6h-21.5v-7.6zm98.7 0h21.5v4.8h-21.5v-4.8z" class="st3"/><path d="M212 643.2v-7.6h21.5v5.3l-21.5 2.3z" class="st4"/><path d="M190.5 633.1h5.5v10.1h-5.5v-10.1zM212 632h17.2v7.6H212V632zm-54.5 0h17.2v7.6h-17.2V632zm110.3 6.5h5.6v4.8h-5.6v-4.8zm-150-6.5H135v5.8h-17.2V632z" class="st3"/><path d="M113.6 635.6h21.5v4.8h-21.5v-4.8z" class="st3"/><path d="M113.6 638.5h5.6v4.8h-5.6v-4.8zM85.2 632h10.2v11.2H85.2V632z" class="st3"/><path d="M92.7 593.4v-21.8h-7.4l-.3 21.8h7.7z" class="st4"/><path d="M90.5 571.6h4.9v21.8h-4.9v-21.8zm-2.3-39.4h7.2v21.6h-7.2v-21.6z" class="st3"/><path d="M95.4 514.4v-21.5H85.3l2.4 21.5h7.7z" class="st4"/><path d="M88.2 452.9h7.2v21.6h-7.2v-21.6zm-2.9-39.7h11.3v21.6H85.3v-21.6zm2.9-40h8.4v21.6h-8.4v-21.6z" class="st3"/><path d="M63.7 339.3h110.9v3.7H63.7v-3.7zm30.1 120.5h82.5v2.8H93.8v-2.8z" class="st5"/><path d="M124.5 297.5h3.7v43h-3.7v-43zm48.4 34h3.5v82.6h-3.5v-82.6z" class="st5"/><path d="M172.9 413h3.5v8.7h-3.5V413zm0 18.8h3.5V462h-3.5v-30.2z" class="st5"/><path d="M172.9 460h3.5v27.6h-3.5V460zm-32.4 46.2h33.6v3.5h-33.6v-3.5zm34 4h5.7v3.5h-5.7v-3.5zm15.7 0h14.2v3.5h-14.2v-3.5zm47.6 1.6h14.4v3.5h-14.4v-3.5zm24.5 0h32.6v3.5h-32.6v-3.5zm6-94.1h81.5v3.5h-81.5v-3.5zm23.1 117.1h55.7v3.5h-55.7v-3.5zM203.1 548h36.2v3h-36.2v-3zm0-66.5h9.2v3h-9.2v-3zm23.8 0h12.4v3h-12.4v-3z" class="st5"/><path d="M140.5 506.2h3.5v31.9h-3.5v-31.9zM266 456.8h3.5v85.9H266v-85.9zm0-52.2h3.5v42.1H266v-42.1zm25.4 107.2h3.5v26.4h-3.5v-26.4zM219.1 550h3.5v84.9h-3.5V550z" class="st5"/><path d="M93.6 534.6h50.3v3.5H93.6v-3.5zm79.3-36.9h3.5V538h-3.5v-40.3zm30.2-16.2h3v69.4h-3v-69.4zm33.2.1h3V551h-3v-69.4zm-86.8-209.4h3.7v29h-3.7v-29zm0-72.4h3.7v62h-3.7v-62zm0-65.1h3.7v55.1h-3.7v-55.1zm0-30.1h3.7v20h-3.7v-20zm26.1-14.8h3.7v13.3h-3.7V89.8zm0 23.3h3.7v23.4h-3.7v-23.4zm0 32h3.7v12.7h-3.7v-12.7zm42.9-28.6h3.7v32.1h-3.7v-32.1zm-42.9 51.3h3.7v32.6h-3.7v-32.6zm0 59.7h3.7v3.8h-3.7v-3.8z" class="st5"/><path d="M178.7 227.5h7.4v2.7h-7.4v-2.7zm-1.9-35.8h95.3v2.9h-95.3v-2.9zm0-46.6h45.3v3.5h-45.3v-3.5zm0-11h7.6v2.5h-7.6v-2.5z" class="st5"/><path d="M181.8 135.6h2.6v10.7h-2.6v-10.7zm36.7-19.1h52.2v3.5h-52.2v-3.5zm-36.1 76.6h3.7v36.8h-3.7v-36.8zm-6.8 48.3h3.7v28.1h-3.7v-28.1zm90.4 26h3.5v127.2H266V267.4z" class="st5"/><path d="M175.6 266.3h96.6v3.1h-96.6v-3.1zm-24.7 32h2.3v8.9h-2.3v-8.9zm0 18.9h2.3v23.9h-2.3v-23.9zm24 39.3h92.4v3h-92.4v-3zm34.9 109.4h2.5V483h-2.5v-17.1zm17.1-2.4h2.5V483h-2.5v-19.5zM149.5 89.8h3.7v4.8h-3.7v-4.8z" class="st5"/><path d="M151.1 89.8h26.5v3.8h-26.5v-3.8zm-88.2 22.6h87.7v3.8H62.9v-3.8zm0 37.5h60.8v3.8H62.9v-3.8zm57.1 14.5h31.9v3.8H120v-3.8z" class="st5"/><path d="M120 149.9h3.8v18.2H120v-18.2zM163.6 16h3.8v75.4h-3.8V16zm-39.1 281.5h28.6v3.7h-28.6v-3.7zm-60.8-73.8h87.8v3.7H63.7v-3.7z" class="st5"/><path d="M58.2 296.2h6.9v21.9h-6.9v-21.9zm0-39.7h6.9v21.9h-6.9v-21.9zm0-39.6h6.9v21.9h-6.9v-21.9zm0-39.8h6.9V199h-6.9v-21.9zm0-40h6.9V159h-6.9v-21.9zm0-39.5h6.9v21.9h-6.9V97.6zm0-39.5h6.9V80h-6.9V58.1z" class="st3"/><path d="M57.9 296.2h7.2v21.9h-7.2v-21.9z" class="st3"/><path d="M55.3 314.9h9.8v3.3h-9.8v-3.3zm0-18.7h9.8v3.5h-9.8v-3.5zm0-21.2h9.8v3.5h-9.8V275zm0-18.5h9.8v3.5h-9.8v-3.5zm0-39.6h9.8v3.6h-9.8v-3.6zm0-21.5h9.8v3.6h-9.8v-3.6zm0-18.3h9.8v3.6h-9.8v-3.6zm0-40h9.8v3.6h-9.8v-3.6zm0-39.5h9.8v3.6h-9.8v-3.6zm0-39.5h9.8v3.5h-9.8v-3.5zm0 18.3h9.8V80h-9.8v-3.6zm0 39.6h9.8v3.6h-9.8V116zm0 39.4h9.8v3.6h-9.8v-3.6zm0 79.9h9.8v3.6h-9.8v-3.6z" class="st3"/><path d="M57.9 256.5h7.2v21.9h-7.2v-21.9zm0-39.6h7.2v21.9h-7.2v-21.9zm0-39.8h7.2V199h-7.2v-21.9zm-.4-40H65V159h-7.5v-21.9zm0-39.5H65v21.9h-7.5V97.6zm.4-39.5h7.2V80h-7.2V58.1zm-2.6-22h9.8V40h-9.8v-3.9z" class="st3"/><path d="M55.3 36.1h9.8V40h-9.8v-3.9zm30 353.2h8.4v5.4h-8.4v-5.4zm.2 158.7h7.2v5.8h-7.2V548zm0-79.4h7.2v5.8h-7.2v-5.8zm260.3-135h10v21.9h-10v-21.9zm-.2-38.5h8v20.7h-8v-20.7z" class="st3"/><path d="M337 292.2h14.7v9H337v-9zM55.3 8.4h5.8v5.8h-5.8V8.4zm34.8 3H112v7.3H90.1v-7.3z" class="st3"/><path d="M90.1 8.4h3.2v10.2h-3.2V8.4zm18.7 0h3.2v10.2h-3.2V8.4zm39.2 0h3.2v10.2H148V8.4zm18.6 0h3.2v10.2h-3.2V8.4zm21.2 0h3.2v10.2h-3.2V8.4zm18.5 0h3.2v10.2h-3.2V8.4zm17.7 0h3.2v10.2H224V8.4zm18.5 0h3.2v10.2h-3.2V8.4z" class="st3"/><path d="M148 11.4h21.8v7.3H148v-7.3zm39.8 0h21.8v7.3h-21.8v-7.3zm36.2 0h21.8v7.3H224v-7.3zM57.5 339.6h33.6v9H57.5v-9z" class="st3"/><path d="M55.1 345.1h5.8v5.6h-5.8v-5.6z" class="st3"/><path d="M57.5 335.7h7.6v10.8h-7.6v-10.8zm29.8 3.9h8v15.9h-8v-15.9z" class="st3"/><path d="M85.2 341.1H91v9.6h-5.8v-9.6z" class="st3"/></g></svg>