<svg width="70" height="70" viewBox="0 0 70 70" fill="none" xmlns="http://www.w3.org/2000/svg">
<g clip-path="url(#clip0_1337_11007)">
<path d="M35.0702 58.03C46.8946 58.03 56.4802 48.4444 56.4802 36.62C56.4802 24.7955 46.8946 15.21 35.0702 15.21C23.2457 15.21 13.6602 24.7955 13.6602 36.62C13.6602 48.4444 23.2457 58.03 35.0702 58.03Z" stroke="#24292E" stroke-width="3.5"/>
<path d="M35.2004 53.27C40.7288 53.27 45.2104 48.7884 45.2104 43.26C45.2104 37.7316 40.7288 33.25 35.2004 33.25C29.6721 33.25 25.1904 37.7316 25.1904 43.26C25.1904 48.7884 29.6721 53.27 35.2004 53.27Z" stroke="#24292E" stroke-width="3.5"/>
<path d="M44.2703 30.7398C45.2313 30.7398 46.0103 29.9607 46.0103 28.9998C46.0103 28.0388 45.2313 27.2598 44.2703 27.2598C43.3093 27.2598 42.5303 28.0388 42.5303 28.9998C42.5303 29.9607 43.3093 30.7398 44.2703 30.7398Z" fill="#24292E"/>
<path d="M25.7205 30.7398C26.6814 30.7398 27.4605 29.9607 27.4605 28.9998C27.4605 28.0388 26.6814 27.2598 25.7205 27.2598C24.7595 27.2598 23.9805 28.0388 23.9805 28.9998C23.9805 29.9607 24.7595 30.7398 25.7205 30.7398Z" fill="#24292E"/>
<path d="M30.3801 40.33C30.8601 39.21 33.2201 39.2 35.1501 39.19C37.0801 39.18 39.2501 39.19 39.7401 40.19C40.4001 41.61 38.1301 45.19 35.1901 45.19C32.2501 45.19 29.7201 41.78 30.3801 40.33Z" fill="#24292E"/>
<path d="M15.7199 27.11C14.6818 26.6572 13.7675 25.9619 13.0537 25.0826C12.3399 24.2033 11.8474 23.1656 11.6177 22.0566C11.388 20.9476 11.4276 19.7996 11.7334 18.7091C12.0391 17.6186 12.602 16.6174 13.3748 15.7895C14.1476 14.9615 15.1078 14.3311 16.1746 13.951C17.2415 13.5709 18.384 13.4524 19.5062 13.6053C20.6284 13.7581 21.6975 14.178 22.6239 14.8296C23.5502 15.4812 24.3067 16.3455 24.8299 17.35L28.1599 16.2C27.4461 14.6203 26.3551 13.2402 24.9828 12.1811C23.6105 11.1219 21.999 10.4162 20.29 10.1259C18.581 9.83568 16.8269 9.96979 15.1819 10.5165C13.5369 11.0631 12.0514 12.0057 10.8561 13.2611C9.66075 14.5165 8.79222 16.0464 8.32685 17.7163C7.86149 19.3861 7.81355 21.1447 8.18726 22.8374C8.56096 24.5301 9.34486 26.1051 10.47 27.4238C11.5952 28.7425 13.0271 29.7645 14.6399 30.4L15.7199 27.11Z" fill="#24292E"/>
<path d="M51.8105 10C49.7976 10.0006 47.8267 10.5759 46.1296 11.6582C44.4325 12.7406 43.0798 14.2851 42.2305 16.11L45.3305 17.71C45.8103 16.6269 46.5542 15.6815 47.494 14.9604C48.4338 14.2393 49.5396 13.7656 50.71 13.5826C51.8804 13.3996 53.078 13.5132 54.1931 13.9129C55.3082 14.3127 56.3052 14.9859 57.0927 15.8708C57.8802 16.7558 58.4331 17.8241 58.7007 18.9781C58.9683 20.1321 58.9421 21.3348 58.6245 22.476C58.3068 23.6172 57.7079 24.6605 56.8826 25.5103C56.0573 26.3601 55.0319 26.9892 53.9005 27.34L55.7205 30.4C58.0014 29.4854 59.8928 27.8054 61.07 25.6483C62.2472 23.4912 62.6368 20.9916 62.1719 18.5786C61.7071 16.1655 60.4167 13.9896 58.5224 12.4242C56.628 10.8589 54.2479 10.0017 51.7905 10H51.8105Z" fill="#24292E"/>
</g>
<defs>
<clipPath id="clip0_1337_11007">
<rect width="54.4" height="49.78" fill="white" transform="translate(8 10)"/>
</clipPath>
</defs>
</svg>
