<svg width="70" height="70" viewBox="0 0 70 70" fill="none" xmlns="http://www.w3.org/2000/svg">
<g clip-path="url(#clip0_1337_10997)">
<path d="M18.75 62.75H52.05" stroke="#24292E" stroke-width="3.5" stroke-linecap="round"/>
<path d="M35.4004 46.79V61.79" stroke="#24292E" stroke-width="3.5" stroke-linecap="round"/>
<path d="M48.05 7.75H22.75C20.5409 7.75 18.75 9.54086 18.75 11.75V42.79C18.75 44.9991 20.5409 46.79 22.75 46.79H48.05C50.2591 46.79 52.05 44.9991 52.05 42.79V11.75C52.05 9.54086 50.2591 7.75 48.05 7.75Z" stroke="#24292E" stroke-width="3.5"/>
<path d="M31.9805 38.7201V28.3501L30.2305 30.1501H35.3205C35.9305 30.1501 36.5505 30.1501 37.1705 30.1501C39.0237 30.1078 40.7993 29.3976 42.1705 28.1501C43.5122 26.927 44.3559 25.2522 44.5404 23.4461C44.7249 21.6399 44.2372 19.8292 43.1705 18.3601C42.0839 16.8826 40.4937 15.8545 38.7005 15.4701C37.8549 15.3286 36.9973 15.2717 36.1405 15.3001H30.2305C29.7687 15.3078 29.3281 15.4946 29.0016 15.8212C28.675 16.1477 28.4882 16.5883 28.4805 17.0501V28.3501C28.4805 28.8142 28.6648 29.2593 28.993 29.5875C29.3212 29.9157 29.7663 30.1001 30.2305 30.1001C30.6946 30.1001 31.1397 29.9157 31.4679 29.5875C31.7961 29.2593 31.9805 28.8142 31.9805 28.3501V17.0101L30.2305 18.7601H37.2305H37.5005H37.7605C37.5705 18.7601 37.6905 18.7601 37.7605 18.7601L38.2505 18.8901C38.3305 18.8901 38.7205 19.0501 38.4705 18.9501C38.8226 19.1051 39.1577 19.2961 39.4705 19.5201C39.2505 19.3701 39.5705 19.6101 39.6305 19.6601C39.7577 19.7691 39.8779 19.886 39.9905 20.0101C40.0505 20.0701 40.3105 20.3701 40.1405 20.1601C40.2563 20.3138 40.3631 20.474 40.4605 20.6401L40.7005 21.0801C40.7905 21.2501 40.7005 21.0801 40.7005 21.0801C40.7331 21.1545 40.7599 21.2314 40.7805 21.3101C40.8395 21.4671 40.8896 21.6273 40.9305 21.7901C40.9305 21.8901 41.0305 22.3701 41.0005 22.0701C41.0405 22.4423 41.0405 22.8178 41.0005 23.1901C41.0005 23.4001 41.0005 23.1901 41.0005 23.1901C41.0005 23.1901 41.0005 23.3501 41.0005 23.4301C40.9624 23.6208 40.9089 23.8081 40.8405 23.9901C40.8405 24.0801 40.6505 24.4401 40.7805 24.1901L40.5505 24.6201C40.4605 24.7701 40.3705 24.9001 40.2805 25.0401L40.2205 25.1201C40.3205 24.9901 40.1105 25.2401 40.0905 25.2601C39.9814 25.3841 39.8645 25.501 39.7405 25.6101C39.6805 25.6701 39.2905 25.9601 39.5305 25.8001C39.2366 26.0065 38.9254 26.1872 38.6005 26.3401C38.4105 26.4301 38.6005 26.3401 38.6005 26.3401L38.3605 26.4201C38.2001 26.4739 38.0364 26.5173 37.8705 26.5501L37.6205 26.6101C37.6205 26.6101 37.3305 26.6101 37.5105 26.6101H37.0505C36.5305 26.6101 36.0505 26.6101 35.5105 26.6101H30.2305C29.768 26.6153 29.3258 26.8013 28.9988 27.1284C28.6717 27.4554 28.4857 27.8975 28.4805 28.3601V38.7201C28.4805 39.1842 28.6648 39.6293 28.993 39.9575C29.3212 40.2857 29.7663 40.4701 30.2305 40.4701C30.6946 40.4701 31.1397 40.2857 31.4679 39.9575C31.7961 39.6293 31.9805 39.1842 31.9805 38.7201Z" fill="#24292E"/>
</g>
<defs>
<clipPath id="clip0_1337_10997">
<rect width="36.8" height="58.5" fill="white" transform="translate(17 6)"/>
</clipPath>
</defs>
</svg>
