<svg width="70" height="70" viewBox="0 0 70 70" fill="none" xmlns="http://www.w3.org/2000/svg">
<g clip-path="url(#clip0_1337_11021)">
<path d="M8.26953 62.75H60.5495" stroke="#24292E" stroke-width="3.5" stroke-linecap="round"/>
<path d="M57.1999 5.99965H19.8699C17.2999 5.99965 14.7199 5.99965 12.1499 5.99965C10.4128 5.90812 8.70687 6.48675 7.38392 7.61618C6.06097 8.74562 5.22194 10.3397 5.0399 12.0696C4.9699 12.8496 5.0399 13.6596 5.0399 14.4396V27.6996C4.97769 28.923 5.17184 30.1458 5.6099 31.2896C6.19766 32.444 7.04561 33.4459 8.08687 34.2164C9.12812 34.987 10.3342 35.505 11.6099 35.7296C12.8413 36.006 14.1144 36.0433 15.3599 35.8396C16.3718 35.62 17.3549 35.2845 18.2899 34.8396C19.2953 34.4094 20.3894 34.2276 21.4799 34.3096C22.4768 34.4904 23.4387 34.8279 24.3299 35.3096C25.5389 35.7958 26.8375 36.0187 28.1394 35.9635C29.4413 35.9083 30.7164 35.5763 31.8799 34.9896C32.3399 34.7596 32.7599 34.4496 33.2199 34.2196C33.4999 34.0896 33.0399 34.2796 33.3299 34.2196L33.6899 34.0996L34.0499 34.0096C34.1299 34.0096 34.4699 33.9596 34.2399 34.0096C34.4899 34.0096 34.7399 34.0096 34.9999 34.0096C35.2599 34.0096 35.1999 34.0096 35.0899 34.0096L35.4599 34.0796C35.9369 34.163 36.3884 34.3546 36.7799 34.6396C37.8585 35.3171 39.0651 35.7653 40.3244 35.9563C41.5837 36.1472 42.8689 36.0769 44.0999 35.7496C45.2799 35.4296 46.2799 34.7496 47.4599 34.4296C48.3776 34.1882 49.3486 34.2478 50.2299 34.5996C52.0355 35.3049 53.9302 35.7558 55.8599 35.9396C57.9016 36.1495 59.9519 35.6325 61.6499 34.4796C62.4135 33.8756 63.0426 33.119 63.4972 32.2581C63.9518 31.3971 64.2218 30.4508 64.2899 29.4796C64.3349 28.7403 64.3349 27.999 64.2899 27.2596V12.7496C64.3032 11.7932 64.1069 10.8455 63.7147 9.973C63.3226 9.10056 62.7441 8.32459 62.0199 7.69965C60.6692 6.57305 58.9585 5.96968 57.1999 5.99965C56.739 6.00984 56.2997 6.19748 55.9737 6.52349C55.6477 6.8495 55.4601 7.28872 55.4499 7.74965C55.4525 8.21297 55.6377 8.65656 55.9654 8.98418C56.293 9.31181 56.7366 9.49702 57.1999 9.49965H57.7299C58.1699 9.49965 57.5499 9.44965 57.8399 9.49965L58.3899 9.62965C58.5955 9.67818 58.7963 9.74511 58.9899 9.82965C58.7099 9.70965 59.2999 10.0096 59.3499 10.0396C59.6711 10.2354 59.9527 10.4898 60.1799 10.7896C60.3313 10.9909 60.4588 11.209 60.5599 11.4396C60.4499 11.1996 60.5599 11.4396 60.5599 11.4896L60.6499 11.7996C60.6499 11.9796 60.7299 12.1596 60.7699 12.3396C60.6899 12.0096 60.7699 12.1896 60.7699 12.4096C60.7699 12.6296 60.7699 12.8696 60.7699 13.0996V27.6996C60.8177 28.4285 60.7774 29.1605 60.6499 29.8796C60.5899 30.0996 60.5199 30.3196 60.4399 30.5396C60.3499 30.7996 60.5499 30.3096 60.4399 30.5396L60.3199 30.7896C60.2499 30.9196 60.1599 31.0396 60.0899 31.1696C60.0199 31.2996 60.0899 31.1696 60.1599 31.0796C60.102 31.1575 60.0385 31.231 59.9699 31.2996L59.7699 31.5096C59.7699 31.5096 59.5299 31.7096 59.6799 31.5896C59.8299 31.4696 59.5799 31.6596 59.5399 31.6896L59.0599 31.9596C58.7799 32.1196 58.9699 31.9596 59.0599 31.9596L58.5999 32.1196L58.0499 32.2596L57.7199 32.3196C57.4399 32.3196 57.9799 32.3196 57.7199 32.3196C57.237 32.3498 56.7528 32.3498 56.2699 32.3196H55.6799H55.3399H55.1499H54.9699L54.6499 32.1996L53.8699 32.0396C51.8699 31.5796 50.1899 30.5696 48.1199 30.6896C46.7565 30.7897 45.4286 31.1711 44.2199 31.8096C43.3436 32.2636 42.3664 32.4873 41.3799 32.4596C40.4665 32.4362 39.5745 32.1779 38.7899 31.7096C37.8752 31.1206 36.8573 30.7101 35.7899 30.4996C34.6056 30.3111 33.3932 30.4176 32.2599 30.8096C31.2599 31.1796 30.2599 31.9096 29.4699 32.1796C28.5573 32.4958 27.5765 32.5614 26.6299 32.3696C25.4799 32.0896 24.6299 31.5196 23.5099 31.1496C21.1054 30.4794 18.5372 30.7327 16.3099 31.8596C15.5795 32.1991 14.7933 32.4024 13.9899 32.4596C13.0645 32.5021 12.1414 32.3346 11.2899 31.9696C10.7298 31.7367 10.1994 31.4379 9.7099 31.0796C9.7799 31.1296 9.8499 31.2196 9.6199 30.9896L9.3499 30.7296C9.23139 30.6251 9.13309 30.4997 9.0599 30.3596C8.73384 29.8361 8.55107 29.2361 8.5299 28.6196C8.5299 26.5296 8.5299 24.4396 8.5299 22.3496V12.2696C8.5299 12.0196 8.5999 11.9696 8.5299 12.2696C8.5799 12.0996 8.5999 11.9196 8.6499 11.7396L8.7399 11.4496C8.8799 10.9996 8.6599 11.5996 8.7399 11.3396C8.90112 10.9812 9.13626 10.6609 9.4299 10.3996C9.5693 10.2657 9.72365 10.1483 9.8899 10.0496L10.2299 9.86965C10.6999 9.60965 10.1099 9.86965 10.3799 9.79965C10.5851 9.72126 10.7956 9.65776 11.0099 9.60965L11.2999 9.54965C11.5399 9.46965 10.9899 9.54965 11.2299 9.54965C11.4699 9.54965 11.7399 9.54965 11.9999 9.54965C14.0799 9.54965 16.1699 9.54965 18.2599 9.54965H57.1999C57.664 9.54965 58.1091 9.36527 58.4373 9.03709C58.7655 8.7089 58.9499 8.26378 58.9499 7.79965C58.9499 7.33552 58.7655 6.8904 58.4373 6.56221C58.1091 6.23402 57.664 6.04965 57.1999 6.04965V5.99965Z" fill="#24292E"/>
<path d="M52.5196 31.6601C51.28 31.0944 49.9489 30.7557 48.5896 30.6601C46.9702 30.716 45.387 31.1546 43.9697 31.9401C42.9329 32.4186 41.7775 32.5787 40.6496 32.4001C40.0769 32.2956 39.5237 32.1034 39.0096 31.8301C38.3908 31.4515 37.7458 31.1174 37.0796 30.8301C35.7342 30.3632 34.282 30.2972 32.8996 30.6401C31.6496 30.9401 30.5196 31.8701 29.4796 32.2001C28.2889 32.5996 27.0004 32.5996 25.8096 32.2001C25.2496 32.0101 24.7296 31.6801 24.0996 31.4301C23.3466 31.1336 22.5555 30.9451 21.7496 30.8701C20.0957 30.7251 18.4317 30.9967 16.9096 31.6601C16.2711 31.9795 15.6007 32.2308 14.9096 32.4101C14.1574 32.5256 13.3919 32.5256 12.6396 32.4101C11.6996 32.2901 10.8896 33.3201 10.8896 34.1601V62.7501C10.8949 63.2144 11.0823 63.658 11.4115 63.9853C11.7407 64.3127 12.1854 64.4976 12.6496 64.5002H50.8396C52.5996 64.5002 54.3796 64.5602 56.1396 64.5002H56.2197C56.6822 64.495 57.1243 64.3089 57.4513 63.9818C57.7784 63.6548 57.9645 63.2127 57.9697 62.7501V34.1201C57.9595 33.6592 57.7718 33.22 57.4458 32.894C57.1198 32.568 56.6806 32.3803 56.2197 32.3701C54.9587 32.312 53.7126 32.0729 52.5196 31.6601C52.2962 31.5911 52.0611 31.5675 51.8284 31.5908C51.5956 31.6141 51.3699 31.6838 51.1646 31.7958C50.9592 31.9079 50.7784 32.0599 50.6328 32.243C50.4873 32.4261 50.3799 32.6366 50.3171 32.8619C50.2542 33.0872 50.2372 33.3228 50.2669 33.5548C50.2967 33.7868 50.3727 34.0105 50.4904 34.2127C50.6081 34.4148 50.7652 34.5913 50.9522 34.7317C51.1393 34.8721 51.3527 34.9736 51.5797 35.0302C53.0787 35.5287 54.641 35.8116 56.2197 35.8701L54.4697 34.1201V62.7501L56.2197 61.0001H17.9796C16.2296 61.0001 14.4296 60.8901 12.6796 61.0001H12.6496L14.3996 62.7501V34.1301L12.6496 35.8801C14.1679 36.0884 15.7141 35.9024 17.1396 35.3401C18.2432 34.8068 19.4307 34.4684 20.6496 34.3401C21.212 34.2937 21.7782 34.3513 22.3196 34.5102C23.0048 34.7478 23.673 35.0318 24.3196 35.3601C25.6663 35.9169 27.1295 36.1333 28.5796 35.9901C30.0308 35.8045 31.4216 35.2953 32.6496 34.5001C33.0772 34.2154 33.5619 34.0277 34.0696 33.9501C34.5032 33.8761 34.9461 33.8761 35.3796 33.9501C35.855 34.0391 36.3054 34.2301 36.6996 34.5102C37.3565 34.9274 38.0617 35.2632 38.7997 35.5102C40.2828 35.9852 41.8624 36.0746 43.3896 35.7701C44.9996 35.4801 46.3096 34.4002 47.9296 34.1902C48.4746 34.1249 49.0268 34.1588 49.5596 34.2901C50.2496 34.4701 50.8996 34.7701 51.5596 35.0001C52.0077 35.1205 52.4852 35.06 52.8891 34.8319C53.2931 34.6037 53.5914 34.226 53.7197 33.7802C53.8241 33.3406 53.7585 32.8777 53.5359 32.4845C53.3133 32.0913 52.9503 31.7968 52.5196 31.6601Z" fill="#24292E"/>
<path d="M36.2397 53.35H21.1397C20.9697 53.35 20.5597 53.28 21.0397 53.42C21.5197 53.56 21.7397 53.89 21.6697 54.19C21.6747 54.1134 21.6747 54.0366 21.6697 53.96V42.2C21.6697 42.12 21.7297 41.63 21.6697 41.57C21.6085 41.7833 21.5211 41.9881 21.4097 42.18C21.2797 42.33 20.9397 42.5 20.7997 42.44H20.8897C21.1228 42.455 21.3566 42.455 21.5897 42.44H35.4797C35.7061 42.455 35.9333 42.455 36.1597 42.44H36.2397C36.0997 42.5 35.7597 42.33 35.6297 42.18C35.5183 41.9881 35.431 41.7833 35.3697 41.57V41.57C35.3347 41.792 35.3347 42.018 35.3697 42.24V53.96C35.3647 54.0366 35.3647 54.1134 35.3697 54.19C35.2797 53.79 35.8297 53.38 36.2397 53.35C35.7503 53.36 35.2835 53.5575 34.9355 53.9018C34.5875 54.2461 34.385 54.7108 34.3697 55.2C34.3749 55.6944 34.5736 56.167 34.9232 56.5165C35.2728 56.8661 35.7454 57.0648 36.2397 57.07C36.9953 57.0522 37.715 56.7441 38.2494 56.2097C38.7839 55.6753 39.0919 54.9556 39.1097 54.2C39.1097 53.99 39.1097 53.78 39.1097 53.58V42.37C39.1097 42.11 39.1097 41.85 39.1097 41.59C39.1124 41.0453 38.9631 40.5106 38.6787 40.0461C38.3943 39.5815 37.986 39.2054 37.4997 38.96C36.6969 38.67 35.8383 38.5674 34.9897 38.66H26.9897C24.9897 38.66 22.8997 38.61 20.8597 38.66C20.4598 38.6599 20.0639 38.7398 19.6953 38.8949C19.3267 39.05 18.9928 39.2773 18.7133 39.5633C18.4338 39.8493 18.2143 40.1884 18.0677 40.5604C17.9211 40.9325 17.8504 41.3302 17.8597 41.73C17.8597 42.63 17.8597 43.54 17.8597 44.44V52.7C17.791 53.4814 17.828 54.2685 17.9697 55.04C18.1743 55.6188 18.5515 56.1209 19.0504 56.4785C19.5493 56.8361 20.1459 57.0321 20.7597 57.04H36.2397C36.7357 57.04 37.2113 56.843 37.562 56.4923C37.9127 56.1416 38.1097 55.666 38.1097 55.17C38.1097 54.6741 37.9127 54.1984 37.562 53.8477C37.2113 53.497 36.7357 53.3 36.2397 53.3V53.35Z" fill="#24292E"/>
</g>
<defs>
<clipPath id="clip0_1337_11021">
<rect width="59.3" height="58.53" fill="white" transform="translate(5 6)"/>
</clipPath>
</defs>
</svg>
