<svg id="Слой_1" data-name="Слой 1" xmlns="http://www.w3.org/2000/svg" xmlns:xlink="http://www.w3.org/1999/xlink" viewBox="0 0 476.22 223.09"><defs><clipPath id="clip-path"><polygon points="49.61 0.35 49.61 13.52 40.53 13.52 40.53 27.44 0.85 27.44 0.85 100.43 40.53 100.43 40.53 114.38 49.61 114.38 49.61 163.76 301.32 163.76 301.32 223.02 476.22 223.02 476.22 0.35 49.61 0.35" fill="none"/></clipPath></defs><g clip-path="url(#clip-path)"><path d="M305.73,233l10.16-10.16m-10.16,24.61,24.61-24.61m-24.61,39.05,39.06-39.05m-39.06,53.51,53.51-53.51m-53.51,67.95,68-67.95m-62.75,77.19,77.2-77.19m-62.75,77.19,75.7-75.7m-61.25,75.7,61.25-61.25M352,302.34l49.07-49.07m-34.62,49.07,34.62-34.62m-17.9,32.35,17.9-17.9m-3.45,17.9,3.45-3.45m-94.34,3.45-1-1m15.47,1L305.73,284.6m29.92,15.47-29.92-29.92m46.64,32.19L305.73,255.7m61.09,46.64-61.09-61.09M379,300.07l-73.27-73.26m87.72,73.26-77.2-77.19m84.84,70.39L330.7,222.88m70.39,55.94-55.94-55.94m55.94,41.49L359.6,222.88m41.49,27-27-27m27,12.59L388.5,222.88" fill="none" stroke="#809da8" stroke-linecap="round" stroke-linejoin="round" stroke-width="0.2"/><path d="M81,166.5H301.19M71.87,214.18H301.19M81,261.86H301.19m-228-2.66V186.55m47.68,113.52V163.84M168.5,300.07V163.84m47.68,136.23V163.84m47.68,138.5V163.84" fill="none" stroke="#809da8" stroke-linecap="round" stroke-linejoin="round" stroke-width="0.2"/></g><path d="M85.49,23.46H312.54M71.87,71.14H312.54M81,118.82H224M73.15,100.27V27.61m47.68,122.61V14m47.68,136.23V14m47.68,136.23V14m47.67,81.74V14m47.69,81.74V14" fill="none" stroke="#809da8" stroke-linecap="round" stroke-linejoin="round" stroke-width="0.2"/><path d="M317.08,23.46H419.26M312.54,71.14H426.06M359.22,98V14M406.9,95.73V14" fill="none" stroke="#809da8" stroke-linecap="round" stroke-linejoin="round" stroke-width="0.2"/><path d="M314.81,108.36l8.09-8.09m-8.09,22.54,22.54-22.54m-22.54,37L354.07,98m-39.26,53.71L368.52,98m-53.71,68.16,67-67m-67,81.43,80.34-80.34m-80.34,94.79,84-84m-83.76,98.2,83.76-83.75m-69.3,83.75,69.3-69.3M344,209.25l54.86-54.85m-40.41,54.85,40.41-40.41m-26,40.41,26-25.95m-11.51,25.95,11.51-11.51m-81.74,11.51L314.81,207m16.72,2.26-16.72-16.71M346,209.25l-31.17-31.16m45.61,31.16-45.61-45.61m60.06,45.61-60.06-60.06m74.51,60.06-74.51-74.51m84,69.56-84-84m84,69.56-84-84m84,69.56-75.13-75.13M398.82,161l-60.68-60.68m60.68,46.23L350.32,98m48.5,34.06L364.76,98m34.06,19.6-18.7-18.69m-.6-.6-.3-.31m19.6,5.16-2.88-2.89" fill="none" stroke="#809da8" stroke-linecap="round" stroke-linejoin="round" stroke-width="0.2"/><g clip-path="url(#clip-path)"><path d="M85.49-182.49l10.13-10.13M85.49-168l24.58-24.57M81-149l.43-.43m4.11-4.11,39-39m-52.65,67.1,5.8-5.8M81-134.61l58-58m-67.1,81.55,81.55-81.55m-81.55,96,96-96m-96,110.45L182.32-192.62M71.87-67.73,193.11-189M77.26-58.66,202.13-183.54M81-47.91,216.58-183.54M85.49-38,231-183.54M85.49-23.55l160-160M85.49-9.1,259.93-183.54m1.3-1.3,10-10M90.47.37,285.73-194.89M104.92.37,300.18-194.89M119.37.37l193-193M133.82.37l193-193M148.27.37l193-193m.23-.23,1.13-1.14M162.72.37,358-194.89M177.17.37,372.43-194.89M191.62.37,325-133m2.82-2.81,56.21-56.22M206.07.37l119-119m4.54-4.54,54.49-54.5M220.51.37,325-104.15m4.54-4.54,56.76-56.76M235,.37,325-89.7M344-108.61,386.33-151M249.41.37l26.8-26.8m82.19-82.18,25.66-25.67M276.66-26.88,325-75.25M263.86.37,276.21-12m96.64-96.63,11.21-11.22M280.75-16.52,325-60.8M280.75-2.07,325-46.35M292.76.37,325-31.9M307.21.37,325-17.45M321.66.37,325-3M93.74.37,85.49-7.88M108.19.37l-22.7-22.7M122.64.37,85.49-36.78M81.77-40.5,81-41.32M137.09.37,81-55.77m-2.89-2.89-6.19-6.19M151.54.37,71.87-79.3M166,.37,71.87-93.75M180.44.37,71.87-108.2M194.89.37l-123-123M209.34.37,77.65-131.32M223.79.37,81-142.47M238.23.37,85.49-152.37M252.69.37,85.49-166.82M267.13.37,85.49-181.27M281.58.37l-.83-.83M276.21-5,88.59-192.62M296,.37,280.75-14.91m-4.54-4.54L103-192.62M310.48.37l-193-193M324.93.37l-193-193M325-14,146.39-192.62M325-28.43,160.84-192.62M325-42.88,175.29-192.62M325-57.33,198.82-183.54m-5.71-5.71-3.37-3.37M325-71.78,213.27-183.54M325-86.23l-97.31-97.31M325-100.68l-82.86-82.86m89.37,74.93-2-2M325-115.13l-68.41-68.41M346-108.61,329.57-125M325-129.58l-63-63m98.46,84-86.28-86.28m100.73,86.28-86.28-86.28m95.45,81-81-81m81,66.55-64.28-64.28m66.55,52.1-52.1-52.1M386.33-155l-39.92-39.92m39.2,24.74-.91-.9m-.64-.64-23.2-23.2m23.2,8.75-8.75-8.75" fill="none" stroke="#809da8" stroke-linecap="round" stroke-linejoin="round" stroke-width="0.2"/></g><line x1="52.12" y1="71.14" x2="69.15" y2="71.14" fill="none" stroke="#809da8" stroke-linecap="round" stroke-linejoin="round" stroke-width="0.2"/><path d="M224,98l2.31-2.31M224,112.49l16.76-16.76M224,126.94,255.2,95.73M224,141.38l45.66-45.65m-40,54.49,54.5-54.49m-40,54.49,54.49-54.49M258.5,150.22l51.77-51.76M273,150.22l37.32-37.32M287.4,150.22l22.87-22.87m-8.42,22.87,8.42-8.42m-81.12,8.42L224,145.07m19.61,5.15L224,130.62M258,150.22l-34.05-34m48.51,34.05L224,101.72m62.95,48.5L232.45,95.73m68.94,54.49L246.9,95.73m63.37,48.92L261.35,95.73m48.92,34.47L275.8,95.73m34.47,20-20-20m20,5.57-5.57-5.57" fill="none" stroke="#809da8" stroke-linecap="round" stroke-linejoin="round" stroke-width="0.2"/><line x1="52.12" y1="27.61" x2="52.12" y2="28.52" fill="none" stroke="#809da8" stroke-linecap="round" stroke-linejoin="round" stroke-width="0.4" stroke-dasharray="0.07 0.07"/><line x1="52.12" y1="99.36" x2="52.12" y2="100.27" fill="none" stroke="#809da8" stroke-linecap="round" stroke-linejoin="round" stroke-width="0.4" stroke-dasharray="0.07 0.07"/><line x1="71.87" y1="27.61" x2="71.87" y2="100.27" fill="none" stroke="#809da8" stroke-linecap="round" stroke-linejoin="round" stroke-width="0.4" stroke-dasharray="0.07 0.07"/><line x1="69.15" y1="100.27" x2="69.15" y2="99.36" fill="none" stroke="#809da8" stroke-linecap="round" stroke-linejoin="round" stroke-width="0.4" stroke-dasharray="0.07 0.07"/><line x1="69.15" y1="28.52" x2="69.15" y2="27.61" fill="none" stroke="#809da8" stroke-linecap="round" stroke-linejoin="round" stroke-width="0.4" stroke-dasharray="0.07 0.07"/><line x1="312.54" y1="95.73" x2="312.54" y2="41.24" fill="none" stroke="#809da8" stroke-linecap="round" stroke-linejoin="round" stroke-width="0.4" stroke-dasharray="0.07 0.07"/><g clip-path="url(#clip-path)"><line x1="325.03" y1="-81.37" x2="325.03" y2="0.37" fill="none" stroke="#809da8" stroke-linecap="round" stroke-linejoin="round" stroke-width="0.4" stroke-dasharray="0.07 0.07"/></g><line x1="223.99" y1="150.22" x2="223.99" y2="95.73" fill="none" stroke="#809da8" stroke-linecap="round" stroke-linejoin="round" stroke-width="0.4" stroke-dasharray="0.07 0.07"/><line x1="310.27" y1="95.73" x2="223.99" y2="95.73" fill="none" stroke="#809da8" stroke-linecap="round" stroke-linejoin="round" stroke-width="0.4" stroke-dasharray="0.07 0.07"/><rect x="71.87" y="0.36" width="13.62" height="27.26" fill="#003a50"/><rect x="419.26" y="0.36" width="13.62" height="38.61" fill="#003a50"/><rect x="192.21" y="150.22" width="68.12" height="13.54" fill="#003a50"/><polygon points="364.76 209.25 364.76 222.88 401.09 222.88 403.36 222.88 432.88 222.88 432.88 209.25 364.76 209.25" fill="#003a50"/><rect x="80.96" y="150.22" width="111.25" height="13.54" fill="#003a50"/><polygon points="301.19 150.22 301.19 163.76 301.32 163.76 301.32 222.88 305.73 222.88 314.81 222.88 314.81 150.22 301.19 150.22" fill="#003a50"/><polygon points="314.81 209.25 314.81 222.88 353.62 222.88 364.76 222.88 364.76 209.25 314.81 209.25" fill="#003a50"/><rect x="310.27" y="95.73" width="4.54" height="54.49" fill="#003a50"/><path d="M314.81,100.27h32.92V95.73H314.81Zm67-4.54v4.54h37.46V95.73Z" fill="#003a50"/><polygon points="398.82 100.27 398.82 209.25 401.09 209.25 403.36 209.25 403.36 100.27 398.82 100.27" fill="#003a50"/><rect x="301.32" y="222.88" width="4.41" height="0.14" fill="#003a50"/><rect x="312.54" y="13.99" width="4.54" height="27.24" fill="#003a50"/><polygon points="403.36 146.82 403.41 151.13 416.98 151.13 419.25 151.13 419.25 146.82 403.36 146.82" fill="#003a50"/><rect x="260.32" y="150.22" width="40.87" height="13.54" fill="#003a50"/><polygon points="85.5 0.37 85.5 13.99 108.64 13.99 147.69 13.99 193.11 13.99 193.11 0.37 85.5 0.37" fill="#003a50"/><polygon points="193.12 0.37 193.12 13.99 353.62 13.99 406.7 13.99 419.25 13.99 419.25 0.37 193.12 0.37" fill="#003a50"/><rect x="374.98" y="0.35" width="4.54" height="0.01" fill="#003a50"/><rect x="356.82" y="0.35" width="4.54" height="0.01" fill="#003a50"/><rect x="401.09" y="222.88" width="9.08" height="0.14" fill="#003a50"/><rect x="428.34" y="222.88" width="4.54" height="0.14" fill="#003a50"/><rect x="276.21" y="0.36" width="4.54" height="0.01" fill="#003a50"/><path d="M419.26,209.25h13.62V91.19H419.26Zm0-163.47h13.62V39H419.26Z" fill="#003a50"/><path d="M63.7,163.76h8.17V100.27H63.7Zm0-136.14h8.17V.36H63.7Z" fill="#003a50"/><rect x="71.87" y="100.27" width="9.08" height="63.49" fill="#003a50"/><g clip-path="url(#clip-path)"><line x1="85.49" y1="27.61" x2="85.49" y2="-40.5" fill="none" stroke="#003a50" stroke-linecap="round" stroke-linejoin="round" stroke-width="0.96"/><line x1="432.88" y1="38.97" x2="432.88" y2="-29.15" fill="none" stroke="#003a50" stroke-linecap="round" stroke-linejoin="round" stroke-width="0.96"/></g><line x1="419.26" y1="13.99" x2="419.26" y2="38.97" fill="none" stroke="#003a50" stroke-linecap="round" stroke-linejoin="round" stroke-width="0.96"/><line x1="419.26" y1="38.97" x2="432.88" y2="38.97" fill="none" stroke="#003a50" stroke-linecap="round" stroke-linejoin="round" stroke-width="0.96"/><g clip-path="url(#clip-path)"><line x1="260.32" y1="163.84" x2="260.32" y2="150.22" fill="none" stroke="#003a50" stroke-linecap="round" stroke-linejoin="round" stroke-width="0.96"/><line x1="364.76" y1="222.88" x2="401.09" y2="222.88" fill="none" stroke="#003a50" stroke-linecap="round" stroke-linejoin="round" stroke-width="0.96"/><line x1="410.17" y1="222.88" x2="428.34" y2="222.88" fill="none" stroke="#003a50" stroke-linecap="round" stroke-linejoin="round" stroke-width="0.96"/><line x1="432.88" y1="222.88" x2="432.88" y2="209.25" fill="none" stroke="#003a50" stroke-linecap="round" stroke-linejoin="round" stroke-width="0.96"/></g><line x1="432.88" y1="209.25" x2="364.76" y2="209.25" fill="none" stroke="#003a50" stroke-linecap="round" stroke-linejoin="round" stroke-width="0.96"/><g clip-path="url(#clip-path)"><line x1="80.95" y1="163.84" x2="301.19" y2="163.84" fill="none" stroke="#003a50" stroke-linecap="round" stroke-linejoin="round" stroke-width="0.96"/></g><line x1="314.81" y1="209.25" x2="314.81" y2="100.27" fill="none" stroke="#003a50" stroke-linecap="round" stroke-linejoin="round" stroke-width="0.96"/><g clip-path="url(#clip-path)"><line x1="364.76" y1="222.88" x2="364.76" y2="209.25" fill="none" stroke="#003a50" stroke-linecap="round" stroke-linejoin="round" stroke-width="0.96"/></g><line x1="364.76" y1="209.25" x2="314.81" y2="209.25" fill="none" stroke="#003a50" stroke-linecap="round" stroke-linejoin="round" stroke-width="0.96"/><line x1="310.27" y1="95.73" x2="310.27" y2="150.22" fill="none" stroke="#003a50" stroke-linecap="round" stroke-linejoin="round" stroke-width="0.96"/><line x1="80.95" y1="150.22" x2="314.81" y2="150.22" fill="none" stroke="#003a50" stroke-linecap="round" stroke-linejoin="round" stroke-width="0.96"/><line x1="314.81" y1="100.27" x2="347.73" y2="100.27" fill="none" stroke="#003a50" stroke-linecap="round" stroke-linejoin="round" stroke-width="0.96"/><line x1="347.73" y1="100.27" x2="347.73" y2="95.73" fill="none" stroke="#003a50" stroke-linecap="round" stroke-linejoin="round" stroke-width="0.96"/><line x1="347.73" y1="95.73" x2="310.27" y2="95.73" fill="none" stroke="#003a50" stroke-linecap="round" stroke-linejoin="round" stroke-width="0.96"/><line x1="381.79" y1="100.27" x2="398.82" y2="100.27" fill="none" stroke="#003a50" stroke-linecap="round" stroke-linejoin="round" stroke-width="0.96"/><line x1="419.26" y1="95.73" x2="381.79" y2="95.73" fill="none" stroke="#003a50" stroke-linecap="round" stroke-linejoin="round" stroke-width="0.96"/><line x1="381.79" y1="95.73" x2="381.79" y2="100.27" fill="none" stroke="#003a50" stroke-linecap="round" stroke-linejoin="round" stroke-width="0.96"/><line x1="398.82" y1="100.27" x2="398.82" y2="209.25" fill="none" stroke="#003a50" stroke-linecap="round" stroke-linejoin="round" stroke-width="0.96"/><line x1="403.36" y1="209.25" x2="403.36" y2="209.03" fill="none" stroke="#003a50" stroke-linecap="round" stroke-linejoin="round" stroke-width="0.96"/><line x1="403.36" y1="146.82" x2="403.36" y2="125.25" fill="none" stroke="#003a50" stroke-linecap="round" stroke-linejoin="round" stroke-width="0.96"/><g clip-path="url(#clip-path)"><line x1="301.19" y1="163.84" x2="301.19" y2="300.07" fill="none" stroke="#003a50" stroke-linecap="round" stroke-linejoin="round" stroke-width="0.96"/><line x1="305.73" y1="300.07" x2="305.73" y2="222.88" fill="none" stroke="#003a50" stroke-linecap="round" stroke-linejoin="round" stroke-width="0.96"/><line x1="364.76" y1="222.88" x2="301.19" y2="222.88" fill="none" stroke="#003a50" stroke-linecap="round" stroke-linejoin="round" stroke-width="0.96"/></g><line x1="312.54" y1="13.99" x2="312.54" y2="41.24" fill="none" stroke="#003a50" stroke-linecap="round" stroke-linejoin="round" stroke-width="0.96"/><line x1="312.54" y1="41.24" x2="317.08" y2="41.24" fill="none" stroke="#003a50" stroke-linecap="round" stroke-linejoin="round" stroke-width="0.96"/><line x1="317.08" y1="41.24" x2="317.08" y2="13.99" fill="none" stroke="#003a50" stroke-linecap="round" stroke-linejoin="round" stroke-width="0.96"/><line x1="419.26" y1="146.82" x2="403.36" y2="146.82" fill="none" stroke="#003a50" stroke-linecap="round" stroke-linejoin="round" stroke-width="0.96"/><g clip-path="url(#clip-path)"><line x1="276.21" y1="0.37" x2="85.49" y2="0.37" fill="none" stroke="#003a50" stroke-linecap="round" stroke-linejoin="round" stroke-width="0.96"/></g><line x1="85.49" y1="13.99" x2="419.25" y2="13.99" fill="none" stroke="#003a50" stroke-linecap="round" stroke-linejoin="round" stroke-width="0.96"/><g clip-path="url(#clip-path)"><line x1="356.82" y1="0.37" x2="280.76" y2="0.37" fill="none" stroke="#003a50" stroke-linecap="round" stroke-linejoin="round" stroke-width="0.96"/><line x1="356.82" y1="-26.88" x2="356.82" y2="0.37" fill="none" stroke="#003a50" stroke-linecap="round" stroke-linejoin="round" stroke-width="0.96"/><line x1="361.36" y1="0.37" x2="361.36" y2="-22.34" fill="none" stroke="#003a50" stroke-linecap="round" stroke-linejoin="round" stroke-width="0.96"/><line x1="401.09" y1="222.88" x2="401.09" y2="275.1" fill="none" stroke="#003a50" stroke-linecap="round" stroke-linejoin="round" stroke-width="0.96"/><line x1="410.17" y1="266.02" x2="410.17" y2="222.88" fill="none" stroke="#003a50" stroke-linecap="round" stroke-linejoin="round" stroke-width="0.96"/><line x1="428.34" y1="222.88" x2="428.34" y2="265.26" fill="none" stroke="#003a50" stroke-linecap="round" stroke-linejoin="round" stroke-width="0.96"/><line x1="432.88" y1="306.88" x2="432.88" y2="222.88" fill="none" stroke="#003a50" stroke-linecap="round" stroke-linejoin="round" stroke-width="0.96"/><line x1="280.76" y1="0.37" x2="280.76" y2="-26.88" fill="none" stroke="#003a50" stroke-linecap="round" stroke-linejoin="round" stroke-width="0.96"/><line x1="276.21" y1="-26.88" x2="276.21" y2="0.37" fill="none" stroke="#003a50" stroke-linecap="round" stroke-linejoin="round" stroke-width="0.96"/></g><line x1="419.26" y1="38.97" x2="419.26" y2="45.78" fill="none" stroke="#003a50" stroke-linecap="round" stroke-linejoin="round" stroke-width="0.96"/><line x1="419.26" y1="45.78" x2="432.88" y2="45.78" fill="none" stroke="#003a50" stroke-linecap="round" stroke-linejoin="round" stroke-width="0.96"/><line x1="432.88" y1="45.78" x2="432.88" y2="38.97" fill="none" stroke="#003a50" stroke-linecap="round" stroke-linejoin="round" stroke-width="0.96"/><line x1="432.88" y1="38.97" x2="419.25" y2="38.97" fill="none" stroke="#003a50" stroke-linecap="round" stroke-linejoin="round" stroke-width="0.96"/><line x1="419.26" y1="91.19" x2="419.26" y2="151.13" fill="none" stroke="#003a50" stroke-linecap="round" stroke-linejoin="round" stroke-width="0.96"/><line x1="419.26" y1="209.03" x2="419.26" y2="209.25" fill="none" stroke="#003a50" stroke-linecap="round" stroke-linejoin="round" stroke-width="0.96"/><line x1="432.88" y1="209.25" x2="432.88" y2="91.19" fill="none" stroke="#003a50" stroke-linecap="round" stroke-linejoin="round" stroke-width="0.96"/><line x1="432.88" y1="91.19" x2="419.25" y2="91.19" fill="none" stroke="#003a50" stroke-linecap="round" stroke-linejoin="round" stroke-width="0.96"/><g clip-path="url(#clip-path)"><line x1="63.7" y1="-58.66" x2="63.7" y2="27.62" fill="none" stroke="#003a50" stroke-linecap="round" stroke-linejoin="round" stroke-width="0.96"/></g><line x1="63.7" y1="27.61" x2="85.49" y2="27.61" fill="none" stroke="#003a50" stroke-linecap="round" stroke-linejoin="round" stroke-width="0.96"/><g clip-path="url(#clip-path)"><line x1="80.95" y1="27.61" x2="80.95" y2="-58.67" fill="none" stroke="#003a50" stroke-linecap="round" stroke-linejoin="round" stroke-width="0.96"/><line x1="63.7" y1="100.27" x2="63.7" y2="186.55" fill="none" stroke="#003a50" stroke-linecap="round" stroke-linejoin="round" stroke-width="0.96"/><line x1="80.95" y1="186.55" x2="80.95" y2="100.27" fill="none" stroke="#003a50" stroke-linecap="round" stroke-linejoin="round" stroke-width="0.96"/></g><line x1="80.95" y1="100.27" x2="63.7" y2="100.27" fill="none" stroke="#003a50" stroke-linecap="round" stroke-linejoin="round" stroke-width="0.96"/><line x1="429.7" y1="45.78" x2="429.7" y2="46.69" fill="none" stroke="#003a50" stroke-linecap="round" stroke-linejoin="round" stroke-width="0.96"/><line x1="432.88" y1="46.69" x2="432.88" y2="45.78" fill="none" stroke="#003a50" stroke-linecap="round" stroke-linejoin="round" stroke-width="0.96"/><line x1="429.7" y1="90.28" x2="429.7" y2="91.19" fill="none" stroke="#003a50" stroke-linecap="round" stroke-linejoin="round" stroke-width="0.96"/><line x1="432.88" y1="91.19" x2="432.88" y2="90.28" fill="none" stroke="#003a50" stroke-linecap="round" stroke-linejoin="round" stroke-width="0.96"/><line x1="432.88" y1="46.69" x2="429.7" y2="46.69" fill="none" stroke="#003a50" stroke-linecap="round" stroke-linejoin="round" stroke-width="0.96"/><line x1="429.7" y1="46.69" x2="429.7" y2="48.05" fill="none" stroke="#003a50" stroke-linecap="round" stroke-linejoin="round" stroke-width="0.96"/><line x1="429.7" y1="48.05" x2="432.88" y2="48.05" fill="none" stroke="#003a50" stroke-linecap="round" stroke-linejoin="round" stroke-width="0.96"/><line x1="432.88" y1="48.05" x2="432.88" y2="46.68" fill="none" stroke="#003a50" stroke-linecap="round" stroke-linejoin="round" stroke-width="0.96"/><line x1="432.88" y1="90.28" x2="432.88" y2="88.92" fill="none" stroke="#003a50" stroke-linecap="round" stroke-linejoin="round" stroke-width="0.96"/><line x1="432.88" y1="88.92" x2="429.7" y2="88.92" fill="none" stroke="#003a50" stroke-linecap="round" stroke-linejoin="round" stroke-width="0.96"/><line x1="429.7" y1="88.92" x2="429.7" y2="90.28" fill="none" stroke="#003a50" stroke-linecap="round" stroke-linejoin="round" stroke-width="0.96"/><line x1="429.7" y1="90.28" x2="432.88" y2="90.28" fill="none" stroke="#003a50" stroke-linecap="round" stroke-linejoin="round" stroke-width="0.96"/><g clip-path="url(#clip-path)"><path d="M432.88,88.92a40.87,40.87,0,0,0,40.87-40.87" fill="none" stroke="#003a50" stroke-linecap="round" stroke-linejoin="round" stroke-width="0.96"/></g><line x1="432.88" y1="48.05" x2="473.75" y2="48.05" fill="none" stroke="#003a50" stroke-linecap="round" stroke-linejoin="round" stroke-width="0.96"/><line x1="347.73" y1="95.73" x2="348.64" y2="95.73" fill="none" stroke="#003a50" stroke-linecap="round" stroke-linejoin="round" stroke-width="0.96"/><line x1="348.64" y1="98.91" x2="347.74" y2="98.91" fill="none" stroke="#003a50" stroke-linecap="round" stroke-linejoin="round" stroke-width="0.96"/><line x1="380.88" y1="95.73" x2="381.79" y2="95.73" fill="none" stroke="#003a50" stroke-linecap="round" stroke-linejoin="round" stroke-width="0.96"/><line x1="381.79" y1="98.91" x2="380.88" y2="98.91" fill="none" stroke="#003a50" stroke-linecap="round" stroke-linejoin="round" stroke-width="0.96"/><line x1="348.64" y1="98.91" x2="348.64" y2="95.73" fill="none" stroke="#003a50" stroke-linecap="round" stroke-linejoin="round" stroke-width="0.96"/><line x1="350.01" y1="98.91" x2="348.64" y2="98.91" fill="none" stroke="#003a50" stroke-linecap="round" stroke-linejoin="round" stroke-width="0.96"/><line x1="350.01" y1="95.73" x2="350.01" y2="98.91" fill="none" stroke="#003a50" stroke-linecap="round" stroke-linejoin="round" stroke-width="0.96"/><line x1="348.64" y1="95.73" x2="350.01" y2="95.73" fill="none" stroke="#003a50" stroke-linecap="round" stroke-linejoin="round" stroke-width="0.96"/><line x1="379.52" y1="95.73" x2="380.89" y2="95.73" fill="none" stroke="#003a50" stroke-linecap="round" stroke-linejoin="round" stroke-width="0.96"/><line x1="379.52" y1="98.91" x2="379.52" y2="95.73" fill="none" stroke="#003a50" stroke-linecap="round" stroke-linejoin="round" stroke-width="0.96"/><line x1="380.88" y1="98.91" x2="379.52" y2="98.91" fill="none" stroke="#003a50" stroke-linecap="round" stroke-linejoin="round" stroke-width="0.96"/><line x1="380.88" y1="95.73" x2="380.88" y2="98.91" fill="none" stroke="#003a50" stroke-linecap="round" stroke-linejoin="round" stroke-width="0.96"/><g clip-path="url(#clip-path)"><path d="M379.52,66.21A29.52,29.52,0,0,0,350,95.73" fill="none" stroke="#003a50" stroke-linecap="round" stroke-linejoin="round" stroke-width="0.96"/></g><line x1="379.52" y1="95.73" x2="379.52" y2="66.21" fill="none" stroke="#003a50" stroke-linecap="round" stroke-linejoin="round" stroke-width="0.96"/><polygon points="40.99 100.27 40.99 113.89 50.08 113.89 63.7 113.89 63.7 100.27 40.99 100.27" fill="#003a50"/><line x1="63.7" y1="113.89" x2="63.7" y2="100.27" fill="none" stroke="#003a50" stroke-linecap="round" stroke-linejoin="round" stroke-width="0.96"/><g clip-path="url(#clip-path)"><line x1="63.7" y1="100.27" x2="40.99" y2="100.27" fill="none" stroke="#003a50" stroke-linecap="round" stroke-linejoin="round" stroke-width="0.96"/><line x1="40.99" y1="100.27" x2="40.99" y2="113.89" fill="none" stroke="#003a50" stroke-linecap="round" stroke-linejoin="round" stroke-width="0.96"/><line x1="40.99" y1="113.89" x2="63.7" y2="113.89" fill="none" stroke="#003a50" stroke-linecap="round" stroke-linejoin="round" stroke-width="0.96"/></g><polygon points="40.99 13.99 40.99 27.61 50.08 27.61 63.7 27.61 63.7 13.99 40.99 13.99" fill="#003a50"/><line x1="63.7" y1="27.61" x2="63.7" y2="13.99" fill="none" stroke="#003a50" stroke-linecap="round" stroke-linejoin="round" stroke-width="0.96"/><g clip-path="url(#clip-path)"><line x1="63.7" y1="13.99" x2="40.99" y2="13.99" fill="none" stroke="#003a50" stroke-linecap="round" stroke-linejoin="round" stroke-width="0.96"/><line x1="40.99" y1="13.99" x2="40.99" y2="27.62" fill="none" stroke="#003a50" stroke-linecap="round" stroke-linejoin="round" stroke-width="0.96"/><line x1="40.99" y1="27.61" x2="63.7" y2="27.61" fill="none" stroke="#003a50" stroke-linecap="round" stroke-linejoin="round" stroke-width="0.96"/></g><rect x="50.08" y="0.36" width="13.62" height="13.64" fill="#003a50"/><g clip-path="url(#clip-path)"><line x1="63.7" y1="13.99" x2="63.7" y2="-45.04" fill="none" stroke="#003a50" stroke-linecap="round" stroke-linejoin="round" stroke-width="0.96"/><line x1="50.08" y1="-45.04" x2="50.08" y2="13.99" fill="none" stroke="#003a50" stroke-linecap="round" stroke-linejoin="round" stroke-width="0.96"/><line x1="50.08" y1="13.99" x2="63.7" y2="13.99" fill="none" stroke="#003a50" stroke-linecap="round" stroke-linejoin="round" stroke-width="0.96"/></g><rect x="50.08" y="113.89" width="13.62" height="49.87" fill="#003a50"/><g clip-path="url(#clip-path)"><line x1="63.7" y1="172.93" x2="63.7" y2="113.89" fill="none" stroke="#003a50" stroke-linecap="round" stroke-linejoin="round" stroke-width="0.96"/><line x1="63.7" y1="113.89" x2="50.07" y2="113.89" fill="none" stroke="#003a50" stroke-linecap="round" stroke-linejoin="round" stroke-width="0.96"/><line x1="50.08" y1="113.89" x2="50.08" y2="172.93" fill="none" stroke="#003a50" stroke-linecap="round" stroke-linejoin="round" stroke-width="0.96"/><line x1="40.99" y1="172.93" x2="40.99" y2="113.89" fill="none" stroke="#003a50" stroke-linecap="round" stroke-linejoin="round" stroke-width="0.96"/><line x1="40.99" y1="13.99" x2="40.99" y2="-45.04" fill="none" stroke="#003a50" stroke-linecap="round" stroke-linejoin="round" stroke-width="0.96"/><line x1="52.68" y1="-404.99" x2="52.68" y2="944.13" fill="none" stroke="#003a50" stroke-miterlimit="10"/><polyline points="928.62 710.12 928.62 -393.49 905.62 -416.49 63.99 -416.49 40.99 -393.49 40.99 952.63 161.33 952.63 161.33 2123.95" fill="none" stroke="#003a50" stroke-miterlimit="10"/></g><rect x="68.97" y="28.59" width="4.55" height="70.66" fill="#fff"/><rect x="68.97" y="28.59" width="4.55" height="70.66" fill="none" stroke="#003a50" stroke-miterlimit="10"/><line x1="71.25" y1="28.59" x2="71.25" y2="99.25" fill="none" stroke="#003a50" stroke-miterlimit="10"/><rect x="68.97" y="28.59" width="4.55" height="4.47" fill="#fff"/><rect x="68.97" y="28.59" width="4.55" height="4.47" fill="none" stroke="#003a50" stroke-miterlimit="10"/><rect x="68.97" y="94.78" width="4.55" height="4.47" fill="#fff"/><rect x="68.97" y="94.78" width="4.55" height="4.47" fill="none" stroke="#003a50" stroke-miterlimit="10"/><rect x="68.97" y="59.45" width="4.55" height="4.47" fill="#fff"/><rect x="68.97" y="59.45" width="4.55" height="4.47" fill="none" stroke="#003a50" stroke-miterlimit="10"/><g clip-path="url(#clip-path)"><path d="M73.52,63.92h2.54c17.6,0,28.91,13.82,28.91,30.86H73.52" fill="none" stroke="#003a50" stroke-miterlimit="10"/><path d="M73.52,222.76h2.54c17.6,0,28.91,14,28.91,31.19H73.52" fill="none" stroke="#003a50" stroke-miterlimit="10"/></g><g clip-path="url(#clip-path)"><line x1="13.71" y1="-58.67" x2="13.71" y2="27.61" fill="none" stroke="#003a50" stroke-linecap="round" stroke-linejoin="round" stroke-width="0.4"/><line x1="13.71" y1="27.61" x2="11.89" y2="34.42" fill="none" stroke="#003a50" stroke-linecap="round" stroke-linejoin="round" stroke-width="0.4"/></g><line x1="11.89" y1="34.42" x2="15.54" y2="34.42" fill="none" stroke="#003a50" stroke-linecap="round" stroke-linejoin="round" stroke-width="0.4"/><g clip-path="url(#clip-path)"><line x1="15.54" y1="34.42" x2="13.71" y2="27.61" fill="none" stroke="#003a50" stroke-linecap="round" stroke-linejoin="round" stroke-width="0.4"/></g><polygon points="11.88 34.42 15.54 34.42 13.71 27.61 11.88 34.42" fill="#003a50"/><g clip-path="url(#clip-path)"><line x1="13.71" y1="27.61" x2="15.53" y2="20.8" fill="none" stroke="#003a50" stroke-linecap="round" stroke-linejoin="round" stroke-width="0.4"/><line x1="11.89" y1="20.8" x2="13.71" y2="27.61" fill="none" stroke="#003a50" stroke-linecap="round" stroke-linejoin="round" stroke-width="0.4"/></g><polygon points="13.66 27.44 13.71 27.61 13.76 27.44 13.66 27.44" fill="#003a50"/><g clip-path="url(#clip-path)"><line x1="44.17" y1="27.61" x2="12.35" y2="27.61" fill="none" stroke="#003a50" stroke-linecap="round" stroke-linejoin="round" stroke-width="0.4"/><line x1="13.71" y1="27.61" x2="44.17" y2="27.61" fill="none" stroke="#003a50" stroke-linecap="round" stroke-linejoin="round" stroke-width="0.4"/><line x1="13.71" y1="27.61" x2="13.71" y2="100.27" fill="none" stroke="#003a50" stroke-linecap="round" stroke-linejoin="round" stroke-width="0.4"/><line x1="13.71" y1="100.27" x2="11.89" y2="107.08" fill="none" stroke="#003a50" stroke-linecap="round" stroke-linejoin="round" stroke-width="0.4"/><line x1="15.54" y1="107.08" x2="13.71" y2="100.27" fill="none" stroke="#003a50" stroke-linecap="round" stroke-linejoin="round" stroke-width="0.4"/></g><polygon points="13.66 100.43 13.75 100.43 13.71 100.27 13.66 100.43" fill="#003a50"/><line x1="13.71" y1="100.27" x2="15.53" y2="93.46" fill="none" stroke="#003a50" stroke-linecap="round" stroke-linejoin="round" stroke-width="0.4"/><line x1="15.54" y1="93.46" x2="11.88" y2="93.46" fill="none" stroke="#003a50" stroke-linecap="round" stroke-linejoin="round" stroke-width="0.4"/><line x1="11.89" y1="93.46" x2="13.71" y2="100.27" fill="none" stroke="#003a50" stroke-linecap="round" stroke-linejoin="round" stroke-width="0.4"/><polygon points="11.88 93.46 13.71 100.27 15.54 93.46 11.88 93.46" fill="#003a50"/><line x1="44.17" y1="100.27" x2="12.35" y2="100.27" fill="none" stroke="#003a50" stroke-linecap="round" stroke-linejoin="round" stroke-width="0.4"/><line x1="13.71" y1="100.27" x2="44.17" y2="100.27" fill="none" stroke="#003a50" stroke-linecap="round" stroke-linejoin="round" stroke-width="0.4"/><g clip-path="url(#clip-path)"><line x1="13.71" y1="27.61" x2="11.89" y2="34.42" fill="none" stroke="#003a50" stroke-linecap="round" stroke-linejoin="round" stroke-width="0.4"/></g><line x1="11.89" y1="34.42" x2="15.54" y2="34.42" fill="none" stroke="#003a50" stroke-linecap="round" stroke-linejoin="round" stroke-width="0.4"/><g clip-path="url(#clip-path)"><line x1="15.54" y1="34.42" x2="13.71" y2="27.61" fill="none" stroke="#003a50" stroke-linecap="round" stroke-linejoin="round" stroke-width="0.4"/></g><polygon points="11.88 34.42 15.54 34.42 13.71 27.61 11.88 34.42" fill="#003a50"/><g clip-path="url(#clip-path)"><line x1="13.71" y1="27.61" x2="15.53" y2="20.8" fill="none" stroke="#003a50" stroke-linecap="round" stroke-linejoin="round" stroke-width="0.4"/><line x1="11.89" y1="20.8" x2="13.71" y2="27.61" fill="none" stroke="#003a50" stroke-linecap="round" stroke-linejoin="round" stroke-width="0.4"/></g><polygon points="13.66 27.44 13.71 27.61 13.76 27.44 13.66 27.44" fill="#003a50"/><g clip-path="url(#clip-path)"><line x1="44.17" y1="27.61" x2="12.35" y2="27.61" fill="none" stroke="#003a50" stroke-linecap="round" stroke-linejoin="round" stroke-width="0.4"/><line x1="13.71" y1="27.61" x2="44.17" y2="27.61" fill="none" stroke="#003a50" stroke-linecap="round" stroke-linejoin="round" stroke-width="0.4"/><path d="M3.21,72.74H10v.69H3.83V75H3.21Z" fill="#003a50"/><path d="M6.17,67.16a1.88,1.88,0,0,1,.7-.8,2,2,0,0,1,1.07-.29,2,2,0,0,1,1.81,1.12A2.66,2.66,0,0,1,10,68.37a2.51,2.51,0,0,1-.88,2,3.91,3.91,0,0,1-2.49.71,4.39,4.39,0,0,1-1.91-.38,2.67,2.67,0,0,1-1.17-1.08,3.14,3.14,0,0,1-.4-1.62,3,3,0,0,1,.36-1.59l.56.27A2.4,2.4,0,0,0,3.76,68a2.22,2.22,0,0,0,.71,1.75,3,3,0,0,0,2.05.64l.55,0a1.83,1.83,0,0,1-.85-.8,2.55,2.55,0,0,1-.3-1.26A2.65,2.65,0,0,1,6.17,67.16Zm2.85,0A1.36,1.36,0,0,0,8,66.75a1.33,1.33,0,0,0-1.06.46,1.86,1.86,0,0,0-.4,1.24,2,2,0,0,0,.2.9,1.43,1.43,0,0,0,.53.61,1.35,1.35,0,0,0,1.46,0,1.52,1.52,0,0,0,.53-.61,2.19,2.19,0,0,0,.2-1A1.73,1.73,0,0,0,9,67.21Z" fill="#003a50"/><path d="M9.59,64a2.66,2.66,0,0,1-1.19,1,4.41,4.41,0,0,1-1.82.34,4.41,4.41,0,0,1-1.82-.34,2.71,2.71,0,0,1-1.19-1,2.56,2.56,0,0,1,0-2.78,2.73,2.73,0,0,1,1.19-1,4.41,4.41,0,0,1,1.82-.35,4.41,4.41,0,0,1,1.82.35,2.67,2.67,0,0,1,1.19,1,2.51,2.51,0,0,1,0,2.78ZM9,61.55a2,2,0,0,0-.95-.69,4,4,0,0,0-1.51-.25,4,4,0,0,0-1.51.25,2.1,2.1,0,0,0-1,.69,1.72,1.72,0,0,0-.33,1,1.69,1.69,0,0,0,.33,1,2.11,2.11,0,0,0,1,.7,4,4,0,0,0,1.51.25,4,4,0,0,0,1.51-.25,2.06,2.06,0,0,0,.95-.7,1.69,1.69,0,0,0,.33-1A1.72,1.72,0,0,0,9,61.55Z" fill="#003a50"/><path d="M9.59,57.61a2.59,2.59,0,0,1-1.19,1,4.41,4.41,0,0,1-1.82.34,4.41,4.41,0,0,1-1.82-.34,2.64,2.64,0,0,1-1.19-1,2.56,2.56,0,0,1,0-2.78,2.73,2.73,0,0,1,1.19-1,4.41,4.41,0,0,1,1.82-.34,4.41,4.41,0,0,1,1.82.34,2.67,2.67,0,0,1,1.19,1,2.51,2.51,0,0,1,0,2.78ZM9,55.19a2,2,0,0,0-.95-.7,4,4,0,0,0-1.51-.25,4,4,0,0,0-1.51.25,2,2,0,0,0-1,.7,1.77,1.77,0,0,0,0,2.06,2.11,2.11,0,0,0,1,.7,4,4,0,0,0,1.51.25A4,4,0,0,0,8.09,58a2.06,2.06,0,0,0,.95-.7,1.77,1.77,0,0,0,0-2.06Z" fill="#003a50"/><line x1="13.71" y1="100.27" x2="13.71" y2="186.55" fill="none" stroke="#003a50" stroke-linecap="round" stroke-linejoin="round" stroke-width="0.4"/><line x1="13.71" y1="100.27" x2="11.89" y2="107.08" fill="none" stroke="#003a50" stroke-linecap="round" stroke-linejoin="round" stroke-width="0.4"/><line x1="15.54" y1="107.08" x2="13.71" y2="100.27" fill="none" stroke="#003a50" stroke-linecap="round" stroke-linejoin="round" stroke-width="0.4"/></g><polygon points="13.66 100.43 13.75 100.43 13.71 100.27 13.66 100.43" fill="#003a50"/><line x1="13.71" y1="100.27" x2="15.53" y2="93.46" fill="none" stroke="#003a50" stroke-linecap="round" stroke-linejoin="round" stroke-width="0.4"/><line x1="15.54" y1="93.46" x2="11.88" y2="93.46" fill="none" stroke="#003a50" stroke-linecap="round" stroke-linejoin="round" stroke-width="0.4"/><line x1="11.89" y1="93.46" x2="13.71" y2="100.27" fill="none" stroke="#003a50" stroke-linecap="round" stroke-linejoin="round" stroke-width="0.4"/><polygon points="11.88 93.46 13.71 100.27 15.54 93.46 11.88 93.46" fill="#003a50"/><line x1="44.17" y1="100.27" x2="12.35" y2="100.27" fill="none" stroke="#003a50" stroke-linecap="round" stroke-linejoin="round" stroke-width="0.4"/><line x1="13.71" y1="100.27" x2="44.17" y2="100.27" fill="none" stroke="#003a50" stroke-linecap="round" stroke-linejoin="round" stroke-width="0.4"/><g clip-path="url(#clip-path)"><path d="M3.21,152.21H10v.69H3.83v1.59H3.21Z" fill="#003a50"/><path d="M4,146.45a3.86,3.86,0,0,1,2.48-.71,4.25,4.25,0,0,1,1.91.39,2.67,2.67,0,0,1,1.18,1.07,3.27,3.27,0,0,1,.4,1.62,3.08,3.08,0,0,1-.37,1.6l-.56-.28a2.37,2.37,0,0,0,.32-1.31,2.24,2.24,0,0,0-.71-1.75,3,3,0,0,0-2-.64l-.55,0a1.83,1.83,0,0,1,.85.8,2.61,2.61,0,0,1,.31,1.26A2.76,2.76,0,0,1,7,149.71a2,2,0,0,1-.71.8,1.9,1.9,0,0,1-1.06.29,2,2,0,0,1-1.09-.3,1.88,1.88,0,0,1-.73-.82,2.65,2.65,0,0,1-.25-1.18A2.48,2.48,0,0,1,4,146.45Zm2.43,1.08a1.51,1.51,0,0,0-.53-.61,1.35,1.35,0,0,0-.75-.23,1.32,1.32,0,0,0-.72.21,1.5,1.5,0,0,0-.52.61,2.06,2.06,0,0,0-.21,1,1.76,1.76,0,0,0,.4,1.19,1.34,1.34,0,0,0,1.07.46,1.3,1.3,0,0,0,1-.46,1.77,1.77,0,0,0,.4-1.23A2.13,2.13,0,0,0,6.47,147.53Z" fill="#003a50"/><path d="M9.59,143.45a2.73,2.73,0,0,1-1.19,1,4.41,4.41,0,0,1-1.82.34,4.41,4.41,0,0,1-1.82-.34,2.78,2.78,0,0,1-1.19-1,2.56,2.56,0,0,1,0-2.78,2.73,2.73,0,0,1,1.19-1,4.41,4.41,0,0,1,1.82-.35,4.41,4.41,0,0,1,1.82.35,2.67,2.67,0,0,1,1.19,1,2.51,2.51,0,0,1,0,2.78ZM9,141a2,2,0,0,0-.95-.69,4,4,0,0,0-1.51-.25,4,4,0,0,0-1.51.25,2,2,0,0,0-1,.69,1.72,1.72,0,0,0-.33,1,1.69,1.69,0,0,0,.33,1,2.11,2.11,0,0,0,1,.7,4,4,0,0,0,1.51.25,4,4,0,0,0,1.51-.25,2.06,2.06,0,0,0,.95-.7,1.69,1.69,0,0,0,.33-1A1.72,1.72,0,0,0,9,141Z" fill="#003a50"/><path d="M9.59,137.08A2.66,2.66,0,0,1,8.4,138a4.41,4.41,0,0,1-1.82.34A4.41,4.41,0,0,1,4.76,138a2.71,2.71,0,0,1-1.19-.95,2.56,2.56,0,0,1,0-2.78,2.73,2.73,0,0,1,1.19-1A4.41,4.41,0,0,1,6.58,133a4.41,4.41,0,0,1,1.82.34,2.67,2.67,0,0,1,1.19,1,2.51,2.51,0,0,1,0,2.78ZM9,134.65a2,2,0,0,0-.95-.69,4,4,0,0,0-1.51-.25,4,4,0,0,0-1.51.25,2.1,2.1,0,0,0-1,.69,1.72,1.72,0,0,0-.33,1,1.69,1.69,0,0,0,.33,1,2.11,2.11,0,0,0,1,.7,4,4,0,0,0,1.51.25,4,4,0,0,0,1.51-.25,2.06,2.06,0,0,0,.95-.7,1.69,1.69,0,0,0,.33-1A1.72,1.72,0,0,0,9,134.65Z" fill="#003a50"/><path d="M9.59,222.91a2.73,2.73,0,0,1-1.19,1,4.41,4.41,0,0,1-1.82.34,4.41,4.41,0,0,1-1.82-.34,2.78,2.78,0,0,1-1.19-1,2.42,2.42,0,0,1-.41-1.4,2.36,2.36,0,0,1,.41-1.38,2.73,2.73,0,0,1,1.19-1,4.41,4.41,0,0,1,1.82-.35,4.41,4.41,0,0,1,1.82.35,2.67,2.67,0,0,1,1.19,1,2.37,2.37,0,0,1,.42,1.38A2.43,2.43,0,0,1,9.59,222.91ZM9,220.48a2.06,2.06,0,0,0-.95-.7,4.18,4.18,0,0,0-1.51-.25,4.22,4.22,0,0,0-1.51.25,2.11,2.11,0,0,0-1,.7,1.79,1.79,0,0,0,0,2.07,2.11,2.11,0,0,0,1,.7,4.22,4.22,0,0,0,1.51.25,4.18,4.18,0,0,0,1.51-.25,2.06,2.06,0,0,0,.95-.7,1.79,1.79,0,0,0,0-2.07Z" fill="#003a50"/><path d="M9.59,216.54a2.73,2.73,0,0,1-1.19,1,4.41,4.41,0,0,1-1.82.34,4.41,4.41,0,0,1-1.82-.34,2.78,2.78,0,0,1-1.19-1,2.56,2.56,0,0,1,0-2.78,2.73,2.73,0,0,1,1.19-1,4.41,4.41,0,0,1,1.82-.35,4.41,4.41,0,0,1,1.82.35,2.67,2.67,0,0,1,1.19,1,2.51,2.51,0,0,1,0,2.78ZM9,214.11a2,2,0,0,0-.95-.69,4,4,0,0,0-1.51-.25,4,4,0,0,0-1.51.25,2,2,0,0,0-1,.69,1.79,1.79,0,0,0,0,2.07,2.11,2.11,0,0,0,1,.7,4,4,0,0,0,1.51.25,4,4,0,0,0,1.51-.25,2.06,2.06,0,0,0,.95-.7,1.79,1.79,0,0,0,0-2.07Z" fill="#003a50"/></g><g clip-path="url(#clip-path)"><line x1="113.95" y1="163.84" x2="113.95" y2="300.07" fill="none" stroke="#003a50" stroke-linecap="round" stroke-linejoin="round" stroke-width="0.4"/><line x1="113.95" y1="163.84" x2="112.12" y2="170.65" fill="none" stroke="#003a50" stroke-linecap="round" stroke-linejoin="round" stroke-width="0.4"/><line x1="115.77" y1="170.65" x2="113.95" y2="163.84" fill="none" stroke="#003a50" stroke-linecap="round" stroke-linejoin="round" stroke-width="0.4"/><polygon points="112.12 170.65 115.78 170.65 113.95 163.84 112.12 170.65" fill="#003a50"/><line x1="117.4" y1="163.84" x2="112.59" y2="163.84" fill="none" stroke="#003a50" stroke-linecap="round" stroke-linejoin="round" stroke-width="0.4"/><line x1="113.95" y1="163.84" x2="117.4" y2="163.84" fill="none" stroke="#003a50" stroke-linecap="round" stroke-linejoin="round" stroke-width="0.4"/><path d="M109.83,222.73a2.73,2.73,0,0,1-1.19,1,4.45,4.45,0,0,1-1.82.34,4.49,4.49,0,0,1-1.83-.34,2.7,2.7,0,0,1-1.18-1,2.38,2.38,0,0,1-.42-1.39,2.42,2.42,0,0,1,.42-1.39A2.75,2.75,0,0,1,105,219a4.49,4.49,0,0,1,1.83-.35,4.44,4.44,0,0,1,1.82.35,2.78,2.78,0,0,1,1.19.95,2.49,2.49,0,0,1,.41,1.39A2.44,2.44,0,0,1,109.83,222.73Zm-.55-2.42a2.11,2.11,0,0,0-1-.7,4.69,4.69,0,0,0-3,0,2.15,2.15,0,0,0-1,.7,1.83,1.83,0,0,0,0,2.07,2.15,2.15,0,0,0,1,.7,4.69,4.69,0,0,0,3,0,2.11,2.11,0,0,0,1-.7,1.79,1.79,0,0,0,0-2.07Z" fill="#003a50"/><path d="M109.83,216.37a2.78,2.78,0,0,1-1.19.95,4.45,4.45,0,0,1-1.82.34,4.49,4.49,0,0,1-1.83-.34,2.75,2.75,0,0,1-1.18-.95,2.51,2.51,0,0,1,0-2.78,2.7,2.7,0,0,1,1.18-1,4.49,4.49,0,0,1,1.83-.35,4.44,4.44,0,0,1,1.82.35,2.73,2.73,0,0,1,1.19,1,2.56,2.56,0,0,1,0,2.78Zm-.55-2.43a2.11,2.11,0,0,0-1-.7,4.69,4.69,0,0,0-3,0,2.15,2.15,0,0,0-1,.7,1.78,1.78,0,0,0-.32,1,1.75,1.75,0,0,0,.32,1,2.15,2.15,0,0,0,1,.7,4.69,4.69,0,0,0,3,0,2.11,2.11,0,0,0,1-.7,1.69,1.69,0,0,0,.33-1A1.72,1.72,0,0,0,109.28,213.94Z" fill="#003a50"/></g><line x1="113.95" y1="13.99" x2="113.95" y2="150.22" fill="none" stroke="#003a50" stroke-linecap="round" stroke-linejoin="round" stroke-width="0.4"/><line x1="113.95" y1="150.22" x2="115.77" y2="143.41" fill="none" stroke="#003a50" stroke-linecap="round" stroke-linejoin="round" stroke-width="0.4"/><line x1="115.77" y1="143.41" x2="112.12" y2="143.41" fill="none" stroke="#003a50" stroke-linecap="round" stroke-linejoin="round" stroke-width="0.4"/><line x1="112.12" y1="143.41" x2="113.95" y2="150.22" fill="none" stroke="#003a50" stroke-linecap="round" stroke-linejoin="round" stroke-width="0.4"/><polygon points="112.12 143.41 113.95 150.22 115.78 143.41 112.12 143.41" fill="#003a50"/><line x1="117.4" y1="150.22" x2="112.59" y2="150.22" fill="none" stroke="#003a50" stroke-linecap="round" stroke-linejoin="round" stroke-width="0.4"/><line x1="113.95" y1="150.22" x2="117.4" y2="150.22" fill="none" stroke="#003a50" stroke-linecap="round" stroke-linejoin="round" stroke-width="0.4"/><line x1="113.95" y1="13.99" x2="112.12" y2="20.8" fill="none" stroke="#003a50" stroke-linecap="round" stroke-linejoin="round" stroke-width="0.4"/><line x1="112.12" y1="20.8" x2="115.77" y2="20.8" fill="none" stroke="#003a50" stroke-linecap="round" stroke-linejoin="round" stroke-width="0.4"/><line x1="115.77" y1="20.8" x2="113.95" y2="13.99" fill="none" stroke="#003a50" stroke-linecap="round" stroke-linejoin="round" stroke-width="0.4"/><polygon points="112.12 20.8 115.78 20.8 113.95 13.99 112.12 20.8" fill="#003a50"/><line x1="117.4" y1="13.99" x2="112.59" y2="13.99" fill="none" stroke="#003a50" stroke-linecap="round" stroke-linejoin="round" stroke-width="0.4"/><line x1="113.95" y1="13.99" x2="117.4" y2="13.99" fill="none" stroke="#003a50" stroke-linecap="round" stroke-linejoin="round" stroke-width="0.4"/><g clip-path="url(#clip-path)"><path d="M106.91,70.07a1.74,1.74,0,0,1,1.34-.55,1.87,1.87,0,0,1,1,.28,1.9,1.9,0,0,1,.7.82,3.05,3.05,0,0,1,.26,1.34,4.16,4.16,0,0,1-.23,1.38,3,3,0,0,1-.63,1l-.55-.34a2.43,2.43,0,0,0,.56-.9,3.15,3.15,0,0,0,.22-1.19,2,2,0,0,0-.36-1.28,1.22,1.22,0,0,0-1-.45,1.18,1.18,0,0,0-1,.45,2.18,2.18,0,0,0-.36,1.37v.48h-.51l-2.33-1.87v3.45h-.62V69.78h.49l2.4,1.9A2.53,2.53,0,0,1,106.91,70.07Z" fill="#003a50"/><path d="M109.83,67.25a2.64,2.64,0,0,1-1.19,1,4.44,4.44,0,0,1-1.82.35A4.49,4.49,0,0,1,105,68.2a2.62,2.62,0,0,1-1.18-1,2.51,2.51,0,0,1,0-2.78,2.7,2.7,0,0,1,1.18-1,4.49,4.49,0,0,1,1.83-.34,4.45,4.45,0,0,1,1.82.34,2.73,2.73,0,0,1,1.19,1,2.56,2.56,0,0,1,0,2.78Zm-.55-2.42a2.11,2.11,0,0,0-1-.7,4.69,4.69,0,0,0-3,0,2.15,2.15,0,0,0-1,.7,1.75,1.75,0,0,0-.32,1,1.78,1.78,0,0,0,.32,1,2.13,2.13,0,0,0,1,.69,4.69,4.69,0,0,0,3,0,2.1,2.1,0,0,0,1-.69,1.72,1.72,0,0,0,.33-1A1.69,1.69,0,0,0,109.28,64.83Z" fill="#003a50"/><path d="M109.83,60.88a2.73,2.73,0,0,1-1.19,1,4.62,4.62,0,0,1-1.82.34,4.67,4.67,0,0,1-1.83-.34,2.7,2.7,0,0,1-1.18-1,2.51,2.51,0,0,1,0-2.78,2.75,2.75,0,0,1,1.18-1,4.33,4.33,0,0,1,1.83-.35,4.28,4.28,0,0,1,1.82.35,2.78,2.78,0,0,1,1.19,1,2.56,2.56,0,0,1,0,2.78Zm-.55-2.42a2.11,2.11,0,0,0-1-.7,4.69,4.69,0,0,0-3,0,2.15,2.15,0,0,0-1,.7,1.75,1.75,0,0,0-.32,1,1.78,1.78,0,0,0,.32,1,2.06,2.06,0,0,0,1,.69,4.69,4.69,0,0,0,3,0,2,2,0,0,0,1-.69,1.72,1.72,0,0,0,.33-1A1.69,1.69,0,0,0,109.28,58.46Z" fill="#003a50"/><path d="M109.83,54.51a2.73,2.73,0,0,1-1.19,1,4.62,4.62,0,0,1-1.82.34,4.67,4.67,0,0,1-1.83-.34,2.7,2.7,0,0,1-1.18-1,2.51,2.51,0,0,1,0-2.78,2.75,2.75,0,0,1,1.18-.95,4.49,4.49,0,0,1,1.83-.35,4.44,4.44,0,0,1,1.82.35,2.78,2.78,0,0,1,1.19.95,2.56,2.56,0,0,1,0,2.78Zm-.55-2.42a2.11,2.11,0,0,0-1-.7,4.69,4.69,0,0,0-3,0,2.15,2.15,0,0,0-1,.7,1.83,1.83,0,0,0,0,2.07,2.15,2.15,0,0,0,1,.7,4.69,4.69,0,0,0,3,0,2.11,2.11,0,0,0,1-.7,1.79,1.79,0,0,0,0-2.07Z" fill="#003a50"/><line x1="110.21" y1="-192.62" x2="110.21" y2="0.37" fill="none" stroke="#003a50" stroke-linecap="round" stroke-linejoin="round" stroke-width="0.4"/><line x1="110.21" y1="0.37" x2="112.03" y2="-6.45" fill="none" stroke="#003a50" stroke-linecap="round" stroke-linejoin="round" stroke-width="0.4"/><line x1="108.38" y1="-6.44" x2="110.21" y2="0.37" fill="none" stroke="#003a50" stroke-linecap="round" stroke-linejoin="round" stroke-width="0.4"/></g><polygon points="110.2 0.35 110.21 0.37 110.21 0.35 110.2 0.35" fill="#003a50"/><g clip-path="url(#clip-path)"><line x1="113.66" y1="0.37" x2="108.85" y2="0.37" fill="none" stroke="#003a50" stroke-linecap="round" stroke-linejoin="round" stroke-width="0.4"/><line x1="110.21" y1="0.37" x2="113.66" y2="0.37" fill="none" stroke="#003a50" stroke-linecap="round" stroke-linejoin="round" stroke-width="0.4"/><line x1="311.51" y1="-26.88" x2="311.51" y2="0.36" fill="none" stroke="#003a50" stroke-linecap="round" stroke-linejoin="round" stroke-width="0.4"/><line x1="311.51" y1="0.37" x2="313.33" y2="-6.45" fill="none" stroke="#003a50" stroke-linecap="round" stroke-linejoin="round" stroke-width="0.4"/><line x1="309.68" y1="-6.44" x2="311.51" y2="0.37" fill="none" stroke="#003a50" stroke-linecap="round" stroke-linejoin="round" stroke-width="0.4"/></g><polygon points="311.5 0.35 311.51 0.37 311.51 0.35 311.5 0.35" fill="#003a50"/><g clip-path="url(#clip-path)"><line x1="314.96" y1="0.37" x2="310.15" y2="0.37" fill="none" stroke="#003a50" stroke-linecap="round" stroke-linejoin="round" stroke-width="0.4"/><line x1="311.51" y1="0.37" x2="314.96" y2="0.37" fill="none" stroke="#003a50" stroke-linecap="round" stroke-linejoin="round" stroke-width="0.4"/><line x1="349.61" y1="-26.88" x2="349.61" y2="0.36" fill="none" stroke="#003a50" stroke-linecap="round" stroke-linejoin="round" stroke-width="0.4"/><line x1="349.61" y1="0.37" x2="351.44" y2="-6.45" fill="none" stroke="#003a50" stroke-linecap="round" stroke-linejoin="round" stroke-width="0.4"/><line x1="347.79" y1="-6.44" x2="349.61" y2="0.37" fill="none" stroke="#003a50" stroke-linecap="round" stroke-linejoin="round" stroke-width="0.4"/></g><polygon points="349.61 0.35 349.61 0.37 349.62 0.35 349.61 0.35" fill="#003a50"/><g clip-path="url(#clip-path)"><line x1="353.07" y1="0.37" x2="348.25" y2="0.37" fill="none" stroke="#003a50" stroke-linecap="round" stroke-linejoin="round" stroke-width="0.4"/><line x1="349.61" y1="0.37" x2="353.07" y2="0.37" fill="none" stroke="#003a50" stroke-linecap="round" stroke-linejoin="round" stroke-width="0.4"/></g><line x1="447.42" y1="45.78" x2="447.42" y2="91.18" fill="none" stroke="#003a50" stroke-linecap="round" stroke-linejoin="round" stroke-width="0.4"/><line x1="447.42" y1="91.19" x2="449.24" y2="84.37" fill="none" stroke="#003a50" stroke-linecap="round" stroke-linejoin="round" stroke-width="0.4"/><line x1="449.24" y1="84.38" x2="445.59" y2="84.38" fill="none" stroke="#003a50" stroke-linecap="round" stroke-linejoin="round" stroke-width="0.4"/><line x1="445.59" y1="84.38" x2="447.41" y2="91.19" fill="none" stroke="#003a50" stroke-linecap="round" stroke-linejoin="round" stroke-width="0.4"/><polygon points="445.59 84.38 447.42 91.19 449.24 84.38 445.59 84.38" fill="#003a50"/><line x1="450.87" y1="91.19" x2="446.05" y2="91.19" fill="none" stroke="#003a50" stroke-linecap="round" stroke-linejoin="round" stroke-width="0.4"/><line x1="447.42" y1="91.19" x2="450.87" y2="91.19" fill="none" stroke="#003a50" stroke-linecap="round" stroke-linejoin="round" stroke-width="0.4"/><line x1="447.42" y1="45.78" x2="445.59" y2="52.59" fill="none" stroke="#003a50" stroke-linecap="round" stroke-linejoin="round" stroke-width="0.4"/><line x1="445.59" y1="52.59" x2="449.24" y2="52.59" fill="none" stroke="#003a50" stroke-linecap="round" stroke-linejoin="round" stroke-width="0.4"/><line x1="449.24" y1="52.59" x2="447.42" y2="45.78" fill="none" stroke="#003a50" stroke-linecap="round" stroke-linejoin="round" stroke-width="0.4"/><polygon points="445.59 52.59 449.24 52.59 447.42 45.77 445.59 52.59" fill="#003a50"/><line x1="450.87" y1="45.78" x2="446.05" y2="45.78" fill="none" stroke="#003a50" stroke-linecap="round" stroke-linejoin="round" stroke-width="0.4"/><line x1="447.42" y1="45.78" x2="450.87" y2="45.78" fill="none" stroke="#003a50" stroke-linecap="round" stroke-linejoin="round" stroke-width="0.4"/><g clip-path="url(#clip-path)"><path d="M436.92,77.54h6.73v.7h-6.12v1.58h-.61Z" fill="#003a50"/><path d="M443.3,74.64a2.79,2.79,0,0,1-1.19,1,4.67,4.67,0,0,1-1.83.34,4.62,4.62,0,0,1-1.82-.34,2.79,2.79,0,0,1-1.19-1,2.56,2.56,0,0,1,0-2.78,2.84,2.84,0,0,1,1.19-1,4.28,4.28,0,0,1,1.82-.35,4.33,4.33,0,0,1,1.83.35,2.84,2.84,0,0,1,1.19,1,2.56,2.56,0,0,1,0,2.78Zm-.55-2.42a2.15,2.15,0,0,0-1-.7,4.69,4.69,0,0,0-3,0,2.17,2.17,0,0,0-.95.7,1.69,1.69,0,0,0-.33,1,1.72,1.72,0,0,0,.33,1,2.08,2.08,0,0,0,.95.69,4.51,4.51,0,0,0,3,0,2.06,2.06,0,0,0,1-.69,1.71,1.71,0,0,0,.32-1A1.68,1.68,0,0,0,442.75,72.22Z" fill="#003a50"/><path d="M443.3,68.27a2.79,2.79,0,0,1-1.19,1,4.67,4.67,0,0,1-1.83.34,4.62,4.62,0,0,1-1.82-.34,2.79,2.79,0,0,1-1.19-1,2.56,2.56,0,0,1,0-2.78,2.84,2.84,0,0,1,1.19-.95,4.44,4.44,0,0,1,1.82-.35,4.49,4.49,0,0,1,1.83.35,2.84,2.84,0,0,1,1.19.95,2.56,2.56,0,0,1,0,2.78Zm-.55-2.42a2.15,2.15,0,0,0-1-.7,4.69,4.69,0,0,0-3,0,2.17,2.17,0,0,0-.95.7,1.79,1.79,0,0,0,0,2.07,2.17,2.17,0,0,0,.95.7,4.69,4.69,0,0,0,3,0,2.15,2.15,0,0,0,1-.7,1.83,1.83,0,0,0,0-2.07Z" fill="#003a50"/><path d="M443.3,61.91a2.84,2.84,0,0,1-1.19,1,4.49,4.49,0,0,1-1.83.34,4.45,4.45,0,0,1-1.82-.34,2.84,2.84,0,0,1-1.19-1,2.5,2.5,0,0,1-.41-1.4,2.43,2.43,0,0,1,.41-1.38,2.79,2.79,0,0,1,1.19-1,4.44,4.44,0,0,1,1.82-.35,4.49,4.49,0,0,1,1.83.35,2.79,2.79,0,0,1,1.19,1,2.43,2.43,0,0,1,.41,1.38A2.5,2.5,0,0,1,443.3,61.91Zm-.55-2.43a2.15,2.15,0,0,0-1-.7,4.69,4.69,0,0,0-3,0,2.17,2.17,0,0,0-.95.7,1.79,1.79,0,0,0,0,2.07,2.17,2.17,0,0,0,.95.7,4.69,4.69,0,0,0,3,0,2.15,2.15,0,0,0,1-.7,1.83,1.83,0,0,0,0-2.07Z" fill="#003a50"/></g><line x1="85.49" y1="27.84" x2="312.54" y2="27.84" fill="none" stroke="#003a50" stroke-linecap="round" stroke-linejoin="round" stroke-width="0.4"/><line x1="312.54" y1="27.84" x2="305.73" y2="26.02" fill="none" stroke="#003a50" stroke-linecap="round" stroke-linejoin="round" stroke-width="0.4"/><line x1="305.73" y1="26.01" x2="305.73" y2="29.67" fill="none" stroke="#003a50" stroke-linecap="round" stroke-linejoin="round" stroke-width="0.4"/><line x1="305.73" y1="29.66" x2="312.54" y2="27.84" fill="none" stroke="#003a50" stroke-linecap="round" stroke-linejoin="round" stroke-width="0.4"/><polygon points="305.73 29.66 312.54 27.84 305.73 26.01 305.73 29.66" fill="#003a50"/><line x1="312.54" y1="24.39" x2="312.54" y2="29.2" fill="none" stroke="#003a50" stroke-linecap="round" stroke-linejoin="round" stroke-width="0.4"/><line x1="312.54" y1="27.84" x2="312.54" y2="24.38" fill="none" stroke="#003a50" stroke-linecap="round" stroke-linejoin="round" stroke-width="0.4"/><line x1="85.49" y1="27.84" x2="92.3" y2="29.66" fill="none" stroke="#003a50" stroke-linecap="round" stroke-linejoin="round" stroke-width="0.4"/><line x1="92.3" y1="29.66" x2="92.3" y2="26.01" fill="none" stroke="#003a50" stroke-linecap="round" stroke-linejoin="round" stroke-width="0.4"/><line x1="92.3" y1="26.01" x2="85.49" y2="27.84" fill="none" stroke="#003a50" stroke-linecap="round" stroke-linejoin="round" stroke-width="0.4"/><polygon points="85.49 27.84 92.31 29.66 92.31 26.02 85.49 27.84" fill="#003a50"/><line x1="85.49" y1="28.97" x2="85.49" y2="26.47" fill="none" stroke="#003a50" stroke-linecap="round" stroke-linejoin="round" stroke-width="0.4"/><line x1="85.49" y1="27.84" x2="85.49" y2="28.98" fill="none" stroke="#003a50" stroke-linecap="round" stroke-linejoin="round" stroke-width="0.4"/><g clip-path="url(#clip-path)"><path d="M190.81,20.63a1.77,1.77,0,0,1,.67,1.46,2.06,2.06,0,0,1-.28,1.05,1.89,1.89,0,0,1-.82.73,3.07,3.07,0,0,1-1.35.26,3.9,3.9,0,0,1-1.37-.23,2.86,2.86,0,0,1-1-.63l.33-.55a2.47,2.47,0,0,0,.89.56,3.1,3.1,0,0,0,1.18.22,2,2,0,0,0,1.3-.38,1.23,1.23,0,0,0,.45-1,1.2,1.2,0,0,0-.51-1.05,3.24,3.24,0,0,0-1.74-.35h-1.43l.35-3.38h3.68V18H188l-.23,2.14h.87A3.47,3.47,0,0,1,190.81,20.63Z" fill="#003a50"/><path d="M193.65,23.72a2.73,2.73,0,0,1-1-1.19,5,5,0,0,1,0-3.64,2.67,2.67,0,0,1,1-1.19,2.51,2.51,0,0,1,2.78,0,2.73,2.73,0,0,1,.95,1.19,4.91,4.91,0,0,1,0,3.64,2.78,2.78,0,0,1-.95,1.19,2.56,2.56,0,0,1-2.78,0Zm2.42-.55a2.11,2.11,0,0,0,.7-1,4.69,4.69,0,0,0,0-3,2.06,2.06,0,0,0-.7-.95,1.79,1.79,0,0,0-2.07,0,2.06,2.06,0,0,0-.7.95,4.69,4.69,0,0,0,0,3,2.11,2.11,0,0,0,.7,1,1.79,1.79,0,0,0,2.07,0Z" fill="#003a50"/><path d="M200,23.72a2.78,2.78,0,0,1-.95-1.19,4.41,4.41,0,0,1-.34-1.82,4.41,4.41,0,0,1,.34-1.82A2.73,2.73,0,0,1,200,17.7a2.51,2.51,0,0,1,2.78,0,2.67,2.67,0,0,1,1,1.19,4.91,4.91,0,0,1,0,3.64,2.73,2.73,0,0,1-1,1.19,2.56,2.56,0,0,1-2.78,0Zm2.43-.55a2.11,2.11,0,0,0,.7-1,4.69,4.69,0,0,0,0-3,2.06,2.06,0,0,0-.7-.95,1.79,1.79,0,0,0-2.07,0,2.06,2.06,0,0,0-.7.95,4.69,4.69,0,0,0,0,3,2.11,2.11,0,0,0,.7,1,1.79,1.79,0,0,0,2.07,0Z" fill="#003a50"/><path d="M206.38,23.72a2.78,2.78,0,0,1-.95-1.19,4.41,4.41,0,0,1-.34-1.82,4.41,4.41,0,0,1,.34-1.82,2.73,2.73,0,0,1,.95-1.19,2.51,2.51,0,0,1,2.78,0,2.67,2.67,0,0,1,1,1.19,4.91,4.91,0,0,1,0,3.64,2.73,2.73,0,0,1-1,1.19,2.56,2.56,0,0,1-2.78,0Zm2.43-.55a2,2,0,0,0,.69-1,4.51,4.51,0,0,0,0-3,2,2,0,0,0-.69-.95,1.72,1.72,0,0,0-1-.33,1.69,1.69,0,0,0-1,.33,2.06,2.06,0,0,0-.7.95,4,4,0,0,0-.25,1.51,4,4,0,0,0,.25,1.51,2.11,2.11,0,0,0,.7,1,1.69,1.69,0,0,0,1,.33A1.72,1.72,0,0,0,208.81,23.17Z" fill="#003a50"/></g><line x1="317.08" y1="27.84" x2="419.25" y2="27.84" fill="none" stroke="#003a50" stroke-linecap="round" stroke-linejoin="round" stroke-width="0.4"/><line x1="419.25" y1="27.84" x2="412.44" y2="26.02" fill="none" stroke="#003a50" stroke-linecap="round" stroke-linejoin="round" stroke-width="0.4"/><line x1="412.44" y1="26.01" x2="412.44" y2="29.67" fill="none" stroke="#003a50" stroke-linecap="round" stroke-linejoin="round" stroke-width="0.4"/><line x1="412.44" y1="29.66" x2="419.25" y2="27.84" fill="none" stroke="#003a50" stroke-linecap="round" stroke-linejoin="round" stroke-width="0.4"/><polygon points="412.44 29.66 419.25 27.84 412.44 26.01 412.44 29.66" fill="#003a50"/><line x1="419.25" y1="24.39" x2="419.25" y2="29.2" fill="none" stroke="#003a50" stroke-linecap="round" stroke-linejoin="round" stroke-width="0.4"/><line x1="419.25" y1="27.84" x2="419.25" y2="24.38" fill="none" stroke="#003a50" stroke-linecap="round" stroke-linejoin="round" stroke-width="0.4"/><line x1="317.08" y1="27.84" x2="323.89" y2="29.66" fill="none" stroke="#003a50" stroke-linecap="round" stroke-linejoin="round" stroke-width="0.4"/><line x1="323.89" y1="29.66" x2="323.89" y2="26.01" fill="none" stroke="#003a50" stroke-linecap="round" stroke-linejoin="round" stroke-width="0.4"/><line x1="323.89" y1="26.01" x2="317.08" y2="27.84" fill="none" stroke="#003a50" stroke-linecap="round" stroke-linejoin="round" stroke-width="0.4"/><polygon points="317.08 27.84 323.89 29.66 323.89 26.02 317.08 27.84" fill="#003a50"/><line x1="317.08" y1="24.39" x2="317.08" y2="29.2" fill="none" stroke="#003a50" stroke-linecap="round" stroke-linejoin="round" stroke-width="0.4"/><line x1="317.08" y1="27.84" x2="317.08" y2="24.38" fill="none" stroke="#003a50" stroke-linecap="round" stroke-linejoin="round" stroke-width="0.4"/><g clip-path="url(#clip-path)"><path d="M361.62,23.46v.62h-4.73v-.49l2.8-2.75a3.19,3.19,0,0,0,.72-.9,1.61,1.61,0,0,0,.19-.76,1.14,1.14,0,0,0-.41-.93,1.81,1.81,0,0,0-1.17-.33,2.32,2.32,0,0,0-1.84.75l-.49-.42a2.66,2.66,0,0,1,1-.72,3.69,3.69,0,0,1,1.38-.25,2.55,2.55,0,0,1,1.63.49,1.62,1.62,0,0,1,.6,1.33,2.32,2.32,0,0,1-.23,1,4.43,4.43,0,0,1-.88,1.11l-2.29,2.25Z" fill="#003a50"/><path d="M367.08,23.46v.62h-4.72v-.49l2.8-2.75a3.6,3.6,0,0,0,.72-.9,1.73,1.73,0,0,0,.18-.76,1.11,1.11,0,0,0-.41-.93,1.81,1.81,0,0,0-1.17-.33,2.3,2.3,0,0,0-1.83.75l-.49-.42a2.55,2.55,0,0,1,1-.72,3.77,3.77,0,0,1,1.38-.25,2.53,2.53,0,0,1,1.63.49,1.62,1.62,0,0,1,.6,1.33,2.19,2.19,0,0,1-.23,1,4.13,4.13,0,0,1-.87,1.11l-2.29,2.25Z" fill="#003a50"/><path d="M371.85,20.63a1.77,1.77,0,0,1,.67,1.46,2,2,0,0,1-.28,1.05,1.84,1.84,0,0,1-.82.73,3,3,0,0,1-1.35.26,3.94,3.94,0,0,1-1.37-.23,2.86,2.86,0,0,1-1-.63l.34-.55a2.42,2.42,0,0,0,.88.56,3.1,3.1,0,0,0,1.18.22,2,2,0,0,0,1.3-.38,1.24,1.24,0,0,0,.46-1,1.21,1.21,0,0,0-.52-1.05,3.24,3.24,0,0,0-1.74-.35h-1.43l.35-3.38h3.68V18h-3.08l-.23,2.14h.87A3.47,3.47,0,0,1,371.85,20.63Z" fill="#003a50"/><path d="M374.69,23.72a2.73,2.73,0,0,1-1-1.19,5,5,0,0,1,0-3.64,2.67,2.67,0,0,1,1-1.19,2.51,2.51,0,0,1,2.78,0,2.73,2.73,0,0,1,.95,1.19,4.25,4.25,0,0,1,.35,1.82,4.25,4.25,0,0,1-.35,1.82,2.78,2.78,0,0,1-.95,1.19,2.56,2.56,0,0,1-2.78,0Zm2.42-.55a2.11,2.11,0,0,0,.7-1,4,4,0,0,0,.25-1.51,4,4,0,0,0-.25-1.51,2.06,2.06,0,0,0-.7-.95,1.69,1.69,0,0,0-1-.33,1.72,1.72,0,0,0-1,.33,2,2,0,0,0-.69.95,4.51,4.51,0,0,0,0,3,2,2,0,0,0,.69,1,1.72,1.72,0,0,0,1,.33A1.69,1.69,0,0,0,377.11,23.17Z" fill="#003a50"/></g><line x1="333.39" y1="95.73" x2="333.39" y2="13.99" fill="none" stroke="#003a50" stroke-linecap="round" stroke-linejoin="round" stroke-width="0.4"/><line x1="333.39" y1="13.99" x2="331.57" y2="20.8" fill="none" stroke="#003a50" stroke-linecap="round" stroke-linejoin="round" stroke-width="0.4"/><line x1="331.57" y1="20.8" x2="335.22" y2="20.8" fill="none" stroke="#003a50" stroke-linecap="round" stroke-linejoin="round" stroke-width="0.4"/><line x1="335.22" y1="20.8" x2="333.4" y2="13.99" fill="none" stroke="#003a50" stroke-linecap="round" stroke-linejoin="round" stroke-width="0.4"/><polygon points="331.57 20.8 335.22 20.8 333.39 13.99 331.57 20.8" fill="#003a50"/><line x1="329.94" y1="13.99" x2="334.76" y2="13.99" fill="none" stroke="#003a50" stroke-linecap="round" stroke-linejoin="round" stroke-width="0.4"/><line x1="333.39" y1="13.99" x2="329.94" y2="13.99" fill="none" stroke="#003a50" stroke-linecap="round" stroke-linejoin="round" stroke-width="0.4"/><line x1="333.39" y1="95.73" x2="335.22" y2="88.92" fill="none" stroke="#003a50" stroke-linecap="round" stroke-linejoin="round" stroke-width="0.4"/><line x1="335.22" y1="88.92" x2="331.57" y2="88.92" fill="none" stroke="#003a50" stroke-linecap="round" stroke-linejoin="round" stroke-width="0.4"/><line x1="331.57" y1="88.92" x2="333.39" y2="95.73" fill="none" stroke="#003a50" stroke-linecap="round" stroke-linejoin="round" stroke-width="0.4"/><polygon points="331.57 88.92 333.39 95.73 335.22 88.92 331.57 88.92" fill="#003a50"/><line x1="329.94" y1="95.73" x2="334.76" y2="95.73" fill="none" stroke="#003a50" stroke-linecap="round" stroke-linejoin="round" stroke-width="0.4"/><line x1="333.39" y1="95.73" x2="329.94" y2="95.73" fill="none" stroke="#003a50" stroke-linecap="round" stroke-linejoin="round" stroke-width="0.4"/><g clip-path="url(#clip-path)"><path d="M322.9,63.86h6.73v.69h-6.12v1.59h-.61Z" fill="#003a50"/><path d="M326.74,57.42a1.56,1.56,0,0,1,1-.35,1.7,1.7,0,0,1,1,.32,2,2,0,0,1,.67.91,3.71,3.71,0,0,1,.24,1.39,3.12,3.12,0,0,1-.52,1.91,1.68,1.68,0,0,1-1.41.69,1.61,1.61,0,0,1-1-.33,2,2,0,0,1-.63-1,1.66,1.66,0,0,1-.58.79,1.5,1.5,0,0,1-.9.27,1.54,1.54,0,0,1-1.3-.64,2.81,2.81,0,0,1-.48-1.72,3.24,3.24,0,0,1,.22-1.25,1.88,1.88,0,0,1,.62-.83,1.53,1.53,0,0,1,.94-.3,1.51,1.51,0,0,1,.9.28,1.79,1.79,0,0,1,.58.8A2,2,0,0,1,326.74,57.42Zm-1.22,3.49a2,2,0,0,0,.33-1.22,2,2,0,0,0-.33-1.23,1,1,0,0,0-.87-.44,1.06,1.06,0,0,0-.9.45,2.12,2.12,0,0,0-.32,1.22,2.1,2.1,0,0,0,.32,1.22,1.05,1.05,0,0,0,.89.45A1,1,0,0,0,325.52,60.91Zm3.22-2.62a1.16,1.16,0,0,0-1-.5,1.14,1.14,0,0,0-1,.5,2.88,2.88,0,0,0,0,2.79,1.15,1.15,0,0,0,1,.51,1.16,1.16,0,0,0,1-.5,2.9,2.9,0,0,0,0-2.8Z" fill="#003a50"/><path d="M329.28,54.82a2.84,2.84,0,0,1-1.19,1,5.07,5.07,0,0,1-3.65,0,2.84,2.84,0,0,1-1.19-1,2.56,2.56,0,0,1,0-2.78,2.79,2.79,0,0,1,1.19-1,4.93,4.93,0,0,1,3.65,0,2.79,2.79,0,0,1,1.19,1,2.56,2.56,0,0,1,0,2.78Zm-.55-2.43a2.08,2.08,0,0,0-1-.69,4.72,4.72,0,0,0-3,0,2.08,2.08,0,0,0-.95.69,1.71,1.71,0,0,0-.32,1,1.68,1.68,0,0,0,.32,1,2.17,2.17,0,0,0,.95.7,4.72,4.72,0,0,0,3,0,2.17,2.17,0,0,0,1-.7,1.69,1.69,0,0,0,.33-1A1.72,1.72,0,0,0,328.73,52.39Z" fill="#003a50"/><path d="M329.28,48.45a2.77,2.77,0,0,1-1.19.95,5.07,5.07,0,0,1-3.65,0,2.77,2.77,0,0,1-1.19-.95,2.56,2.56,0,0,1,0-2.78,2.79,2.79,0,0,1,1.19-1,5.07,5.07,0,0,1,3.65,0,2.79,2.79,0,0,1,1.19,1,2.56,2.56,0,0,1,0,2.78ZM328.73,46a2.15,2.15,0,0,0-1-.69,4.72,4.72,0,0,0-3,0,2.15,2.15,0,0,0-.95.69,1.71,1.71,0,0,0-.32,1,1.66,1.66,0,0,0,.32,1,2.17,2.17,0,0,0,.95.7,4.72,4.72,0,0,0,3,0,2.17,2.17,0,0,0,1-.7,1.67,1.67,0,0,0,.33-1A1.72,1.72,0,0,0,328.73,46Z" fill="#003a50"/></g><line x1="347.73" y1="113.12" x2="381.79" y2="113.12" fill="none" stroke="#003a50" stroke-linecap="round" stroke-linejoin="round" stroke-width="0.4"/><line x1="381.79" y1="113.12" x2="374.98" y2="111.29" fill="none" stroke="#003a50" stroke-linecap="round" stroke-linejoin="round" stroke-width="0.4"/><line x1="374.98" y1="111.29" x2="374.98" y2="114.94" fill="none" stroke="#003a50" stroke-linecap="round" stroke-linejoin="round" stroke-width="0.4"/><line x1="374.98" y1="114.94" x2="381.79" y2="113.12" fill="none" stroke="#003a50" stroke-linecap="round" stroke-linejoin="round" stroke-width="0.4"/><polygon points="374.98 114.94 381.79 113.12 374.98 111.29 374.98 114.94" fill="#003a50"/><line x1="381.79" y1="109.66" x2="381.79" y2="114.48" fill="none" stroke="#003a50" stroke-linecap="round" stroke-linejoin="round" stroke-width="0.4"/><line x1="381.79" y1="113.12" x2="381.79" y2="109.66" fill="none" stroke="#003a50" stroke-linecap="round" stroke-linejoin="round" stroke-width="0.4"/><line x1="347.73" y1="113.12" x2="354.55" y2="114.94" fill="none" stroke="#003a50" stroke-linecap="round" stroke-linejoin="round" stroke-width="0.4"/><line x1="354.55" y1="114.94" x2="354.55" y2="111.29" fill="none" stroke="#003a50" stroke-linecap="round" stroke-linejoin="round" stroke-width="0.4"/><line x1="354.55" y1="111.29" x2="347.73" y2="113.12" fill="none" stroke="#003a50" stroke-linecap="round" stroke-linejoin="round" stroke-width="0.4"/><polygon points="347.73 113.12 354.55 114.94 354.55 111.29 347.73 113.12" fill="#003a50"/><line x1="347.73" y1="109.66" x2="347.73" y2="114.48" fill="none" stroke="#003a50" stroke-linecap="round" stroke-linejoin="round" stroke-width="0.4"/><line x1="347.73" y1="113.12" x2="347.73" y2="109.66" fill="none" stroke="#003a50" stroke-linecap="round" stroke-linejoin="round" stroke-width="0.4"/><g clip-path="url(#clip-path)"><path d="M360.88,102.62v.49l-2.82,6.24h-.75l2.77-6.12h-3.46v1.27h-.69v-1.88Z" fill="#003a50"/><path d="M365.52,105.9a1.78,1.78,0,0,1,.67,1.47,2,2,0,0,1-.28,1,1.84,1.84,0,0,1-.82.73,3.19,3.19,0,0,1-1.35.26,4.19,4.19,0,0,1-1.37-.23,2.86,2.86,0,0,1-1-.63l.34-.55a2.42,2.42,0,0,0,.88.56,3.3,3.3,0,0,0,1.18.22,2,2,0,0,0,1.3-.38,1.24,1.24,0,0,0,.46-1,1.21,1.21,0,0,0-.52-1.05,3.15,3.15,0,0,0-1.74-.35H361.8l.35-3.38h3.68v.61h-3.08l-.23,2.15h.87A3.55,3.55,0,0,1,365.52,105.9Z" fill="#003a50"/><path d="M368.36,109a2.73,2.73,0,0,1-1-1.19,4.62,4.62,0,0,1-.34-1.82,4.67,4.67,0,0,1,.34-1.83,2.7,2.7,0,0,1,1-1.18,2.51,2.51,0,0,1,2.78,0,2.75,2.75,0,0,1,.95,1.18,4.33,4.33,0,0,1,.35,1.83,4.28,4.28,0,0,1-.35,1.82,2.78,2.78,0,0,1-.95,1.19,2.56,2.56,0,0,1-2.78,0Zm2.42-.55a2.17,2.17,0,0,0,.7-1,4.69,4.69,0,0,0,0-3,2.15,2.15,0,0,0-.7-1,1.75,1.75,0,0,0-1-.32,1.78,1.78,0,0,0-1,.32,2.06,2.06,0,0,0-.69,1,4.51,4.51,0,0,0,0,3,2.08,2.08,0,0,0,.69,1,1.72,1.72,0,0,0,1,.33A1.69,1.69,0,0,0,370.78,108.45Z" fill="#003a50"/></g><line x1="333.39" y1="209.25" x2="333.39" y2="100.27" fill="none" stroke="#003a50" stroke-linecap="round" stroke-linejoin="round" stroke-width="0.4"/><line x1="333.39" y1="100.27" x2="331.57" y2="107.08" fill="none" stroke="#003a50" stroke-linecap="round" stroke-linejoin="round" stroke-width="0.4"/><line x1="331.57" y1="107.08" x2="335.22" y2="107.08" fill="none" stroke="#003a50" stroke-linecap="round" stroke-linejoin="round" stroke-width="0.4"/><line x1="335.22" y1="107.08" x2="333.4" y2="100.27" fill="none" stroke="#003a50" stroke-linecap="round" stroke-linejoin="round" stroke-width="0.4"/><polygon points="331.57 107.08 335.22 107.08 333.39 100.27 331.57 107.08" fill="#003a50"/><line x1="329.94" y1="100.27" x2="334.76" y2="100.27" fill="none" stroke="#003a50" stroke-linecap="round" stroke-linejoin="round" stroke-width="0.4"/><line x1="333.39" y1="100.27" x2="329.94" y2="100.27" fill="none" stroke="#003a50" stroke-linecap="round" stroke-linejoin="round" stroke-width="0.4"/><line x1="333.39" y1="209.25" x2="335.22" y2="202.44" fill="none" stroke="#003a50" stroke-linecap="round" stroke-linejoin="round" stroke-width="0.4"/><line x1="335.22" y1="202.44" x2="331.57" y2="202.44" fill="none" stroke="#003a50" stroke-linecap="round" stroke-linejoin="round" stroke-width="0.4"/><line x1="331.57" y1="202.44" x2="333.39" y2="209.25" fill="none" stroke="#003a50" stroke-linecap="round" stroke-linejoin="round" stroke-width="0.4"/><polygon points="331.57 202.44 333.39 209.25 335.22 202.44 331.57 202.44" fill="#003a50"/><line x1="329.94" y1="209.25" x2="334.76" y2="209.25" fill="none" stroke="#003a50" stroke-linecap="round" stroke-linejoin="round" stroke-width="0.4"/><line x1="333.39" y1="209.25" x2="329.94" y2="209.25" fill="none" stroke="#003a50" stroke-linecap="round" stroke-linejoin="round" stroke-width="0.4"/><g clip-path="url(#clip-path)"><path d="M329,162.24h.61V167h-.49l-2.74-2.79a3.49,3.49,0,0,0-.9-.72,1.65,1.65,0,0,0-.77-.19,1.13,1.13,0,0,0-.92.41,1.76,1.76,0,0,0-.34,1.17,2.32,2.32,0,0,0,.75,1.84l-.42.49a2.64,2.64,0,0,1-.71-1,3.57,3.57,0,0,1-.25-1.38,2.48,2.48,0,0,1,.49-1.63,1.6,1.6,0,0,1,1.33-.6,2.36,2.36,0,0,1,1,.23,4,4,0,0,1,1.1.88L329,166Z" fill="#003a50"/><path d="M327.86,155.86v1.35h1.77v.69h-1.77v3.8h-.5l-4.46-3.57v-.77l4.35,3.45v-2.93h-1.56v-.67h1.56v-1.35Z" fill="#003a50"/><path d="M329.28,153.93a2.79,2.79,0,0,1-1.19,1,5.07,5.07,0,0,1-3.65,0,2.73,2.73,0,0,1-1.19-1,2.56,2.56,0,0,1,0-2.78,2.78,2.78,0,0,1,1.19-1,4.93,4.93,0,0,1,3.65,0,2.84,2.84,0,0,1,1.19,1,2.56,2.56,0,0,1,0,2.78Zm-.55-2.42a2.17,2.17,0,0,0-1-.7,4.07,4.07,0,0,0-1.52-.25,4,4,0,0,0-1.51.25,2.17,2.17,0,0,0-.95.7,1.69,1.69,0,0,0-.33,1,1.72,1.72,0,0,0,.33,1,2.08,2.08,0,0,0,.95.69,4,4,0,0,0,1.51.26,4.06,4.06,0,0,0,1.52-.26,2.08,2.08,0,0,0,1-.69,1.71,1.71,0,0,0,.32-1A1.68,1.68,0,0,0,328.73,151.51Z" fill="#003a50"/><path d="M329.28,147.56a2.79,2.79,0,0,1-1.19,1,5.07,5.07,0,0,1-3.65,0,2.73,2.73,0,0,1-1.19-1,2.56,2.56,0,0,1,0-2.78,2.78,2.78,0,0,1,1.19-.95,4.93,4.93,0,0,1,3.65,0,2.84,2.84,0,0,1,1.19.95,2.56,2.56,0,0,1,0,2.78Zm-.55-2.42a2.17,2.17,0,0,0-1-.7,4.28,4.28,0,0,0-1.52-.25,4.22,4.22,0,0,0-1.51.25,2.17,2.17,0,0,0-.95.7,1.79,1.79,0,0,0,0,2.07,2.17,2.17,0,0,0,.95.7,4.22,4.22,0,0,0,1.51.25,4.28,4.28,0,0,0,1.52-.25,2.17,2.17,0,0,0,1-.7,1.83,1.83,0,0,0,0-2.07Z" fill="#003a50"/></g><line x1="314.81" y1="198.9" x2="398.82" y2="198.9" fill="none" stroke="#003a50" stroke-linecap="round" stroke-linejoin="round" stroke-width="0.4"/><line x1="398.82" y1="198.9" x2="392.01" y2="197.07" fill="none" stroke="#003a50" stroke-linecap="round" stroke-linejoin="round" stroke-width="0.4"/><line x1="392.01" y1="197.07" x2="392.01" y2="200.72" fill="none" stroke="#003a50" stroke-linecap="round" stroke-linejoin="round" stroke-width="0.4"/><line x1="392.01" y1="200.72" x2="398.82" y2="198.9" fill="none" stroke="#003a50" stroke-linecap="round" stroke-linejoin="round" stroke-width="0.4"/><polygon points="392.01 200.72 398.82 198.9 392.01 197.07 392.01 200.72" fill="#003a50"/><line x1="398.82" y1="195.44" x2="398.82" y2="200.26" fill="none" stroke="#003a50" stroke-linecap="round" stroke-linejoin="round" stroke-width="0.4"/><line x1="398.82" y1="198.9" x2="398.82" y2="195.44" fill="none" stroke="#003a50" stroke-linecap="round" stroke-linejoin="round" stroke-width="0.4"/><line x1="314.81" y1="198.9" x2="321.62" y2="200.72" fill="none" stroke="#003a50" stroke-linecap="round" stroke-linejoin="round" stroke-width="0.4"/><line x1="321.62" y1="200.72" x2="321.62" y2="197.07" fill="none" stroke="#003a50" stroke-linecap="round" stroke-linejoin="round" stroke-width="0.4"/><line x1="321.62" y1="197.07" x2="314.81" y2="198.9" fill="none" stroke="#003a50" stroke-linecap="round" stroke-linejoin="round" stroke-width="0.4"/><polygon points="314.81 198.9 321.63 200.72 321.63 197.07 314.81 198.9" fill="#003a50"/><line x1="314.81" y1="195.44" x2="314.81" y2="200.26" fill="none" stroke="#003a50" stroke-linecap="round" stroke-linejoin="round" stroke-width="0.4"/><line x1="314.81" y1="198.9" x2="314.81" y2="195.44" fill="none" stroke="#003a50" stroke-linecap="round" stroke-linejoin="round" stroke-width="0.4"/><g clip-path="url(#clip-path)"><path d="M348.29,188.4v6.73h-.7V189H346v-.62Z" fill="#003a50"/><path d="M354.73,192.24a1.55,1.55,0,0,1,.34,1,1.7,1.7,0,0,1-.32,1,1.94,1.94,0,0,1-.91.68,3.85,3.85,0,0,1-1.39.23,3.06,3.06,0,0,1-1.9-.52,1.66,1.66,0,0,1-.69-1.41,1.61,1.61,0,0,1,.33-1,2.12,2.12,0,0,1,1-.63,1.57,1.57,0,0,1-.78-.58,1.5,1.5,0,0,1-.27-.9,1.54,1.54,0,0,1,.64-1.3,2.76,2.76,0,0,1,1.71-.48,3.4,3.4,0,0,1,1.25.22,1.88,1.88,0,0,1,.83.62,1.53,1.53,0,0,1,.3.94,1.44,1.44,0,0,1-.28.9,1.67,1.67,0,0,1-.8.58A2.18,2.18,0,0,1,354.73,192.24Zm-.88,2a1.22,1.22,0,0,0,0-2,2.88,2.88,0,0,0-2.79,0,1.24,1.24,0,0,0,0,2,2.85,2.85,0,0,0,2.79,0ZM351.23,191a2,2,0,0,0,1.22.32,2,2,0,0,0,1.23-.32,1.09,1.09,0,0,0,0-1.77,2,2,0,0,0-1.22-.33,2,2,0,0,0-1.21.33,1,1,0,0,0-.45.88A1.07,1.07,0,0,0,351.23,191Z" fill="#003a50"/><path d="M359.93,191.69a1.73,1.73,0,0,1,.67,1.46,2.05,2.05,0,0,1-.27,1,1.89,1.89,0,0,1-.82.73,3.22,3.22,0,0,1-1.35.26,4.15,4.15,0,0,1-1.37-.23,2.91,2.91,0,0,1-1.05-.63l.34-.55a2.38,2.38,0,0,0,.89.56,3.06,3.06,0,0,0,1.18.22,2,2,0,0,0,1.29-.38,1.33,1.33,0,0,0-.05-2.05,3.29,3.29,0,0,0-1.74-.35h-1.44l.35-3.38h3.69V189h-3.08l-.23,2.14h.86A3.43,3.43,0,0,1,359.93,191.69Z" fill="#003a50"/><path d="M362.77,194.78a2.71,2.71,0,0,1-.95-1.19,4.45,4.45,0,0,1-.34-1.82,4.49,4.49,0,0,1,.34-1.83,2.68,2.68,0,0,1,.95-1.18,2.51,2.51,0,0,1,2.78,0,2.7,2.7,0,0,1,1,1.18,4.49,4.49,0,0,1,.35,1.83,4.44,4.44,0,0,1-.35,1.82,2.73,2.73,0,0,1-1,1.19,2.56,2.56,0,0,1-2.78,0Zm2.43-.55a2.1,2.1,0,0,0,.69-.95,4.69,4.69,0,0,0,0-3,2.13,2.13,0,0,0-.69-1,1.78,1.78,0,0,0-1-.32,1.75,1.75,0,0,0-1,.32,2.15,2.15,0,0,0-.7,1,4.69,4.69,0,0,0,0,3,2.11,2.11,0,0,0,.7.95,1.69,1.69,0,0,0,1,.33A1.72,1.72,0,0,0,365.2,194.23Z" fill="#003a50"/><line x1="388.93" y1="222.87" x2="388.93" y2="300.07" fill="none" stroke="#003a50" stroke-linecap="round" stroke-linejoin="round" stroke-width="0.4"/><line x1="388.93" y1="222.87" x2="387.1" y2="229.69" fill="none" stroke="#003a50" stroke-linecap="round" stroke-linejoin="round" stroke-width="0.4"/><line x1="390.75" y1="229.69" x2="388.93" y2="222.87" fill="none" stroke="#003a50" stroke-linecap="round" stroke-linejoin="round" stroke-width="0.4"/></g><polygon points="388.89 223.02 388.96 223.02 388.93 222.87 388.89 223.02" fill="#003a50"/><g clip-path="url(#clip-path)"><line x1="392.38" y1="222.87" x2="387.57" y2="222.87" fill="none" stroke="#003a50" stroke-linecap="round" stroke-linejoin="round" stroke-width="0.4"/><line x1="388.93" y1="222.87" x2="392.38" y2="222.87" fill="none" stroke="#003a50" stroke-linecap="round" stroke-linejoin="round" stroke-width="0.4"/><line x1="80.95" y1="180.34" x2="301.19" y2="180.34" fill="none" stroke="#003a50" stroke-linecap="round" stroke-linejoin="round" stroke-width="0.4"/><line x1="301.19" y1="180.34" x2="294.38" y2="178.52" fill="none" stroke="#003a50" stroke-linecap="round" stroke-linejoin="round" stroke-width="0.4"/><line x1="294.38" y1="182.16" x2="301.19" y2="180.34" fill="none" stroke="#003a50" stroke-linecap="round" stroke-linejoin="round" stroke-width="0.4"/><polygon points="294.38 182.16 301.19 180.34 294.38 178.51 294.38 182.16" fill="#003a50"/><line x1="301.19" y1="176.89" x2="301.19" y2="181.7" fill="none" stroke="#003a50" stroke-linecap="round" stroke-linejoin="round" stroke-width="0.4"/><line x1="301.19" y1="180.34" x2="301.19" y2="176.88" fill="none" stroke="#003a50" stroke-linecap="round" stroke-linejoin="round" stroke-width="0.4"/><path d="M184.6,174.81h-1.35v1.77h-.69v-1.77h-3.8v-.5l3.56-4.47h.77l-3.44,4.35h2.92v-1.56h.68v1.56h1.35Z" fill="#003a50"/><path d="M190.16,173.68a1.55,1.55,0,0,1,.34,1,1.69,1.69,0,0,1-.31,1,2,2,0,0,1-.91.68,3.72,3.72,0,0,1-1.39.23,3.1,3.1,0,0,1-1.91-.52,1.66,1.66,0,0,1-.69-1.41,1.58,1.58,0,0,1,.33-1,2,2,0,0,1,1-.63,1.67,1.67,0,0,1-.79-.59,1.5,1.5,0,0,1-.27-.9,1.55,1.55,0,0,1,.64-1.3,2.79,2.79,0,0,1,1.72-.48,3.35,3.35,0,0,1,1.24.22,1.82,1.82,0,0,1,.83.62,1.55,1.55,0,0,1,.3.94,1.44,1.44,0,0,1-.28.9,1.7,1.7,0,0,1-.8.59A2,2,0,0,1,190.16,173.68Zm-.87,2a1.16,1.16,0,0,0,.5-1,1.17,1.17,0,0,0-.5-1,2.4,2.4,0,0,0-1.4-.36,2.34,2.34,0,0,0-1.39.36,1.16,1.16,0,0,0-.51,1,1.18,1.18,0,0,0,.5,1,2.36,2.36,0,0,0,1.4.36A2.4,2.4,0,0,0,189.29,175.68Zm-2.63-3.21a2,2,0,0,0,1.23.33,2,2,0,0,0,1.22-.33,1.09,1.09,0,0,0,0-1.77,2.4,2.4,0,0,0-2.43,0,1,1,0,0,0-.45.88A1.05,1.05,0,0,0,186.66,172.47Z" fill="#003a50"/><path d="M195.37,173.13a1.77,1.77,0,0,1,.66,1.46,2,2,0,0,1-.27,1,1.89,1.89,0,0,1-.82.73,3.07,3.07,0,0,1-1.35.26,3.9,3.9,0,0,1-1.37-.23,2.86,2.86,0,0,1-1-.63l.33-.55a2.47,2.47,0,0,0,.89.56,3.06,3.06,0,0,0,1.18.22,2,2,0,0,0,1.29-.38,1.33,1.33,0,0,0-.05-2.05,3.26,3.26,0,0,0-1.74-.35h-1.43l.34-3.38h3.69v.62H192.6l-.23,2.14h.86A3.49,3.49,0,0,1,195.37,173.13Z" fill="#003a50"/><path d="M198.2,176.22a2.78,2.78,0,0,1-.95-1.19,5,5,0,0,1,0-3.64,2.73,2.73,0,0,1,.95-1.19,2.51,2.51,0,0,1,2.78,0,2.67,2.67,0,0,1,1,1.19,4.91,4.91,0,0,1,0,3.64,2.73,2.73,0,0,1-1,1.19,2.56,2.56,0,0,1-2.78,0Zm2.43-.55a2.11,2.11,0,0,0,.7-.95,4.69,4.69,0,0,0,0-3,2.06,2.06,0,0,0-.7-.95,1.72,1.72,0,0,0-1-.33,1.69,1.69,0,0,0-1,.33,2.06,2.06,0,0,0-.7.95,4.69,4.69,0,0,0,0,3,2.11,2.11,0,0,0,.7.95,1.69,1.69,0,0,0,1,.33A1.72,1.72,0,0,0,200.63,175.67Z" fill="#003a50"/></g><line x1="299.34" y1="95.73" x2="299.34" y2="150.22" fill="none" stroke="#003a50" stroke-linecap="round" stroke-linejoin="round" stroke-width="0.4"/><line x1="299.34" y1="150.22" x2="301.16" y2="143.41" fill="none" stroke="#003a50" stroke-linecap="round" stroke-linejoin="round" stroke-width="0.4"/><line x1="301.16" y1="143.41" x2="297.51" y2="143.41" fill="none" stroke="#003a50" stroke-linecap="round" stroke-linejoin="round" stroke-width="0.4"/><line x1="297.51" y1="143.41" x2="299.34" y2="150.22" fill="none" stroke="#003a50" stroke-linecap="round" stroke-linejoin="round" stroke-width="0.4"/><polygon points="297.51 143.41 299.34 150.22 301.16 143.41 297.51 143.41" fill="#003a50"/><line x1="302.79" y1="150.22" x2="297.97" y2="150.22" fill="none" stroke="#003a50" stroke-linecap="round" stroke-linejoin="round" stroke-width="0.4"/><line x1="299.34" y1="150.22" x2="302.79" y2="150.22" fill="none" stroke="#003a50" stroke-linecap="round" stroke-linejoin="round" stroke-width="0.4"/><line x1="299.34" y1="95.73" x2="297.51" y2="102.54" fill="none" stroke="#003a50" stroke-linecap="round" stroke-linejoin="round" stroke-width="0.4"/><line x1="297.51" y1="102.54" x2="301.16" y2="102.54" fill="none" stroke="#003a50" stroke-linecap="round" stroke-linejoin="round" stroke-width="0.4"/><line x1="301.16" y1="102.54" x2="299.34" y2="95.73" fill="none" stroke="#003a50" stroke-linecap="round" stroke-linejoin="round" stroke-width="0.4"/><polygon points="297.51 102.54 301.16 102.54 299.34 95.73 297.51 102.54" fill="#003a50"/><line x1="302.79" y1="95.73" x2="297.97" y2="95.73" fill="none" stroke="#003a50" stroke-linecap="round" stroke-linejoin="round" stroke-width="0.4"/><line x1="299.34" y1="95.73" x2="302.79" y2="95.73" fill="none" stroke="#003a50" stroke-linecap="round" stroke-linejoin="round" stroke-width="0.4"/><g clip-path="url(#clip-path)"><path d="M288.84,131.57h6.73v.69h-6.11v1.59h-.62Z" fill="#003a50"/><path d="M295,125.36h.61v4.73h-.49l-2.74-2.8a3.19,3.19,0,0,0-.9-.72,1.64,1.64,0,0,0-.76-.19,1.14,1.14,0,0,0-.93.41,1.81,1.81,0,0,0-.33,1.17,2.32,2.32,0,0,0,.75,1.84l-.43.49a2.75,2.75,0,0,1-.71-1,3.69,3.69,0,0,1-.25-1.38,2.5,2.5,0,0,1,.49-1.63,1.62,1.62,0,0,1,1.33-.6,2.32,2.32,0,0,1,1,.23,4.21,4.21,0,0,1,1.11.88l2.25,2.29Z" fill="#003a50"/><path d="M295.22,123.24a2.71,2.71,0,0,1-1.19,1,4.45,4.45,0,0,1-1.82.34,4.49,4.49,0,0,1-1.83-.34,2.68,2.68,0,0,1-1.18-1,2.51,2.51,0,0,1,0-2.78,2.7,2.7,0,0,1,1.18-1,4.49,4.49,0,0,1,1.83-.34,4.45,4.45,0,0,1,1.82.34,2.73,2.73,0,0,1,1.19,1,2.56,2.56,0,0,1,0,2.78Zm-.55-2.42a2.17,2.17,0,0,0-.95-.7,4.69,4.69,0,0,0-3,0,2.15,2.15,0,0,0-1,.7,1.82,1.82,0,0,0,0,2.06,2.08,2.08,0,0,0,1,.7,4.69,4.69,0,0,0,3,0,2.1,2.1,0,0,0,.95-.7,1.77,1.77,0,0,0,0-2.06Z" fill="#003a50"/><path d="M295.22,116.87a2.64,2.64,0,0,1-1.19.95,4.44,4.44,0,0,1-1.82.35,4.49,4.49,0,0,1-1.83-.35,2.62,2.62,0,0,1-1.18-.95,2.51,2.51,0,0,1,0-2.78,2.77,2.77,0,0,1,1.18-1,4.49,4.49,0,0,1,1.83-.34,4.45,4.45,0,0,1,1.82.34,2.8,2.8,0,0,1,1.19,1,2.56,2.56,0,0,1,0,2.78Zm-.55-2.42a2.17,2.17,0,0,0-.95-.7,4.69,4.69,0,0,0-3,0,2.15,2.15,0,0,0-1,.7,1.75,1.75,0,0,0-.32,1,1.78,1.78,0,0,0,.32,1,2.13,2.13,0,0,0,1,.69,4.69,4.69,0,0,0,3,0,2.15,2.15,0,0,0,.95-.69,1.72,1.72,0,0,0,.33-1A1.69,1.69,0,0,0,294.67,114.45Z" fill="#003a50"/></g><line x1="299.34" y1="13.99" x2="299.34" y2="41.23" fill="none" stroke="#003a50" stroke-linecap="round" stroke-linejoin="round" stroke-width="0.4"/><line x1="299.34" y1="41.24" x2="297.51" y2="48.05" fill="none" stroke="#003a50" stroke-linecap="round" stroke-linejoin="round" stroke-width="0.4"/><line x1="297.51" y1="48.05" x2="301.16" y2="48.05" fill="none" stroke="#003a50" stroke-linecap="round" stroke-linejoin="round" stroke-width="0.4"/><line x1="301.16" y1="48.05" x2="299.34" y2="41.24" fill="none" stroke="#003a50" stroke-linecap="round" stroke-linejoin="round" stroke-width="0.4"/><polygon points="297.51 48.05 301.16 48.05 299.34 41.23 297.51 48.05" fill="#003a50"/><line x1="299.34" y1="41.24" x2="301.16" y2="34.42" fill="none" stroke="#003a50" stroke-linecap="round" stroke-linejoin="round" stroke-width="0.4"/><line x1="301.16" y1="34.42" x2="297.51" y2="34.42" fill="none" stroke="#003a50" stroke-linecap="round" stroke-linejoin="round" stroke-width="0.4"/><line x1="297.51" y1="34.42" x2="299.34" y2="41.24" fill="none" stroke="#003a50" stroke-linecap="round" stroke-linejoin="round" stroke-width="0.4"/><polygon points="297.51 34.42 299.34 41.24 301.16 34.42 297.51 34.42" fill="#003a50"/><line x1="311.18" y1="41.24" x2="297.97" y2="41.24" fill="none" stroke="#003a50" stroke-linecap="round" stroke-linejoin="round" stroke-width="0.4"/><line x1="299.34" y1="41.24" x2="311.18" y2="41.24" fill="none" stroke="#003a50" stroke-linecap="round" stroke-linejoin="round" stroke-width="0.4"/><line x1="299.34" y1="13.99" x2="297.51" y2="20.8" fill="none" stroke="#003a50" stroke-linecap="round" stroke-linejoin="round" stroke-width="0.4"/><line x1="297.51" y1="20.8" x2="301.16" y2="20.8" fill="none" stroke="#003a50" stroke-linecap="round" stroke-linejoin="round" stroke-width="0.4"/><line x1="301.16" y1="20.8" x2="299.34" y2="13.99" fill="none" stroke="#003a50" stroke-linecap="round" stroke-linejoin="round" stroke-width="0.4"/><polygon points="297.51 20.8 301.16 20.8 299.34 13.99 297.51 20.8" fill="#003a50"/><line x1="302.79" y1="13.99" x2="297.97" y2="13.99" fill="none" stroke="#003a50" stroke-linecap="round" stroke-linejoin="round" stroke-width="0.4"/><line x1="299.34" y1="13.99" x2="302.79" y2="13.99" fill="none" stroke="#003a50" stroke-linecap="round" stroke-linejoin="round" stroke-width="0.4"/><g clip-path="url(#clip-path)"><path d="M291.79,33a2,2,0,0,1,.71-.81,2,2,0,0,1,1.06-.28,2.06,2.06,0,0,1,1.09.29,2,2,0,0,1,.73.83,2.64,2.64,0,0,1,.25,1.17,2.46,2.46,0,0,1-.88,2.05,3.85,3.85,0,0,1-2.49.72,4.21,4.21,0,0,1-1.9-.39,2.69,2.69,0,0,1-1.18-1.08,3.13,3.13,0,0,1-.4-1.61,3,3,0,0,1,.37-1.6l.56.28a2.29,2.29,0,0,0-.32,1.31,2.23,2.23,0,0,0,.7,1.75,3,3,0,0,0,2.06.63l.55,0a1.76,1.76,0,0,1-.85-.79,2.5,2.5,0,0,1-.31-1.26A2.73,2.73,0,0,1,291.79,33Zm2.86,0a1.35,1.35,0,0,0-1.07-.46,1.33,1.33,0,0,0-1.06.46,1.81,1.81,0,0,0-.39,1.23,2,2,0,0,0,.19.9,1.58,1.58,0,0,0,.53.61,1.34,1.34,0,0,0,.75.22,1.36,1.36,0,0,0,.71-.2,1.45,1.45,0,0,0,.53-.61,2.07,2.07,0,0,0,.2-1A1.75,1.75,0,0,0,294.65,33.08Z" fill="#003a50"/><path d="M295.22,29.84a2.73,2.73,0,0,1-1.19,1,4.62,4.62,0,0,1-1.82.34,4.67,4.67,0,0,1-1.83-.34,2.7,2.7,0,0,1-1.18-1,2.51,2.51,0,0,1,0-2.78,2.85,2.85,0,0,1,1.18-1,4.49,4.49,0,0,1,1.83-.34,4.45,4.45,0,0,1,1.82.34,2.88,2.88,0,0,1,1.19,1,2.56,2.56,0,0,1,0,2.78Zm-.55-2.42a2.17,2.17,0,0,0-.95-.7,4.69,4.69,0,0,0-3,0,2.15,2.15,0,0,0-1,.7,1.75,1.75,0,0,0-.32,1,1.78,1.78,0,0,0,.32,1,2.06,2.06,0,0,0,1,.69,4.69,4.69,0,0,0,3,0,2.08,2.08,0,0,0,.95-.69,1.72,1.72,0,0,0,.33-1A1.69,1.69,0,0,0,294.67,27.42Z" fill="#003a50"/><path d="M295.22,23.47a2.73,2.73,0,0,1-1.19,1,4.62,4.62,0,0,1-1.82.34,4.67,4.67,0,0,1-1.83-.34,2.7,2.7,0,0,1-1.18-1,2.51,2.51,0,0,1,0-2.78,2.75,2.75,0,0,1,1.18-1,4.49,4.49,0,0,1,1.83-.35,4.44,4.44,0,0,1,1.82.35,2.78,2.78,0,0,1,1.19,1,2.56,2.56,0,0,1,0,2.78Zm-.55-2.42a2.17,2.17,0,0,0-.95-.7,4.69,4.69,0,0,0-3,0,2.15,2.15,0,0,0-1,.7,1.83,1.83,0,0,0,0,2.07,2.15,2.15,0,0,0,1,.7,4.69,4.69,0,0,0,3,0,2.17,2.17,0,0,0,.95-.7,1.79,1.79,0,0,0,0-2.07Z" fill="#003a50"/></g><line x1="299.34" y1="41.24" x2="299.34" y2="95.73" fill="none" stroke="#003a50" stroke-linecap="round" stroke-linejoin="round" stroke-width="0.4"/><line x1="299.34" y1="95.73" x2="301.16" y2="88.92" fill="none" stroke="#003a50" stroke-linecap="round" stroke-linejoin="round" stroke-width="0.4"/><line x1="301.16" y1="88.92" x2="297.51" y2="88.92" fill="none" stroke="#003a50" stroke-linecap="round" stroke-linejoin="round" stroke-width="0.4"/><line x1="297.51" y1="88.92" x2="299.34" y2="95.73" fill="none" stroke="#003a50" stroke-linecap="round" stroke-linejoin="round" stroke-width="0.4"/><polygon points="297.51 88.92 299.34 95.73 301.16 88.92 297.51 88.92" fill="#003a50"/><line x1="308.91" y1="95.73" x2="297.97" y2="95.73" fill="none" stroke="#003a50" stroke-linecap="round" stroke-linejoin="round" stroke-width="0.4"/><line x1="299.34" y1="95.73" x2="308.91" y2="95.73" fill="none" stroke="#003a50" stroke-linecap="round" stroke-linejoin="round" stroke-width="0.4"/><line x1="299.34" y1="41.24" x2="297.51" y2="48.05" fill="none" stroke="#003a50" stroke-linecap="round" stroke-linejoin="round" stroke-width="0.4"/><line x1="297.51" y1="48.05" x2="301.16" y2="48.05" fill="none" stroke="#003a50" stroke-linecap="round" stroke-linejoin="round" stroke-width="0.4"/><line x1="301.16" y1="48.05" x2="299.34" y2="41.24" fill="none" stroke="#003a50" stroke-linecap="round" stroke-linejoin="round" stroke-width="0.4"/><polygon points="297.51 48.05 301.16 48.05 299.34 41.23 297.51 48.05" fill="#003a50"/><line x1="299.34" y1="41.24" x2="301.16" y2="34.42" fill="none" stroke="#003a50" stroke-linecap="round" stroke-linejoin="round" stroke-width="0.4"/><line x1="301.16" y1="34.42" x2="297.51" y2="34.42" fill="none" stroke="#003a50" stroke-linecap="round" stroke-linejoin="round" stroke-width="0.4"/><line x1="297.51" y1="34.42" x2="299.34" y2="41.24" fill="none" stroke="#003a50" stroke-linecap="round" stroke-linejoin="round" stroke-width="0.4"/><polygon points="297.51 34.42 299.34 41.24 301.16 34.42 297.51 34.42" fill="#003a50"/><line x1="311.18" y1="41.24" x2="297.97" y2="41.24" fill="none" stroke="#003a50" stroke-linecap="round" stroke-linejoin="round" stroke-width="0.4"/><line x1="299.34" y1="41.24" x2="311.18" y2="41.24" fill="none" stroke="#003a50" stroke-linecap="round" stroke-linejoin="round" stroke-width="0.4"/><g clip-path="url(#clip-path)"><path d="M288.84,77.07h6.73v.7h-6.11v1.58h-.62Z" fill="#003a50"/><path d="M295,70.87h.61v4.72h-.49l-2.74-2.8a3.64,3.64,0,0,0-.9-.71,1.64,1.64,0,0,0-.76-.19,1.14,1.14,0,0,0-.93.41,1.81,1.81,0,0,0-.33,1.17,2.28,2.28,0,0,0,.75,1.83l-.43.5a2.75,2.75,0,0,1-.71-1,3.57,3.57,0,0,1-.25-1.38,2.48,2.48,0,0,1,.49-1.63,1.62,1.62,0,0,1,1.33-.6,2.19,2.19,0,0,1,1,.23,4.13,4.13,0,0,1,1.11.87L295,74.57Z" fill="#003a50"/><path d="M295.22,68.75a2.71,2.71,0,0,1-1.19,1,4.45,4.45,0,0,1-1.82.34,4.49,4.49,0,0,1-1.83-.34,2.68,2.68,0,0,1-1.18-1,2.51,2.51,0,0,1,0-2.78,2.7,2.7,0,0,1,1.18-1,4.49,4.49,0,0,1,1.83-.35A4.44,4.44,0,0,1,294,65a2.73,2.73,0,0,1,1.19,1,2.56,2.56,0,0,1,0,2.78Zm-.55-2.43a2.15,2.15,0,0,0-.95-.69,4.69,4.69,0,0,0-3,0,2.13,2.13,0,0,0-1,.69,1.78,1.78,0,0,0-.32,1,1.75,1.75,0,0,0,.32,1,2.15,2.15,0,0,0,1,.7,4.69,4.69,0,0,0,3,0,2.17,2.17,0,0,0,.95-.7,1.69,1.69,0,0,0,.33-1A1.72,1.72,0,0,0,294.67,66.32Z" fill="#003a50"/><path d="M295.22,62.38a2.71,2.71,0,0,1-1.19.95,4.45,4.45,0,0,1-1.82.34,4.49,4.49,0,0,1-1.83-.34,2.68,2.68,0,0,1-1.18-.95,2.51,2.51,0,0,1,0-2.78,2.7,2.7,0,0,1,1.18-1,4.49,4.49,0,0,1,1.83-.34,4.45,4.45,0,0,1,1.82.34,2.73,2.73,0,0,1,1.19,1,2.56,2.56,0,0,1,0,2.78ZM294.67,60a2.1,2.1,0,0,0-.95-.7,4.69,4.69,0,0,0-3,0,2.08,2.08,0,0,0-1,.7,1.82,1.82,0,0,0,0,2.06,2.15,2.15,0,0,0,1,.7,4.69,4.69,0,0,0,3,0,2.17,2.17,0,0,0,.95-.7,1.77,1.77,0,0,0,0-2.06Z" fill="#003a50"/></g></svg>