<svg id="Слой_1" data-name="Слой 1" xmlns="http://www.w3.org/2000/svg" xmlns:xlink="http://www.w3.org/1999/xlink" viewBox="0 0 476.22 223.09"><defs><clipPath id="clip-path"><polygon points="40.53 0.07 40.53 27.1 0.85 27.1 0.85 100.15 40.53 100.15 40.53 163.76 301.32 163.76 301.32 223.02 476.22 223.02 476.22 0.07 40.53 0.07" fill="none"/></clipPath></defs><g clip-path="url(#clip-path)"><path d="M305.74,232.72l10.16-10.16m-10.16,24.61,24.61-24.61m-24.61,39.06,39.06-39.06m-39.06,53.51,53.51-53.51m-53.51,68,67.95-68M311,299.76l77.2-77.2m-62.75,77.2,75.7-75.7m-61.25,75.7,61.25-61.25M352,302,401.1,253M366.47,302l34.63-34.62m-17.91,32.35,17.91-17.9m-3.45,17.9,3.45-3.46m-94.34,3.46-1-1m15.47,1-15.47-15.47m29.92,15.47-29.92-29.92M352.38,302l-46.64-46.64M366.83,302l-61.09-61.09M379,299.76l-73.27-73.27m87.71,73.27-77.19-77.2M401.1,293l-70.39-70.39M401.1,278.5l-55.94-55.94m55.94,41.5-41.49-41.5m41.49,27-27.05-27m27.05,12.6-12.59-12.6" fill="none" stroke="#809da8" stroke-linecap="round" stroke-linejoin="round" stroke-width="0.2"/><path d="M81,166.19H301.19M81,213.87H301.19M81,261.55H301.19M120.83,299.76V163.53m47.68,136.23V163.53m47.68,136.23V163.53M263.87,302V163.53" fill="none" stroke="#809da8" stroke-linecap="round" stroke-linejoin="round" stroke-width="0.2"/></g><path d="M85.5,23.14H312.55M81,70.82H312.55M81,118.5H224M120.83,149.91V13.68m47.68,136.23V13.68m47.68,136.23V13.68m47.68,81.73V13.68m47.68,81.73V13.68" fill="none" stroke="#809da8" stroke-linecap="round" stroke-linejoin="round" stroke-width="0.2"/><path d="M317.09,23.14H419.26M312.55,70.82H426.07M359.23,97.69v-84m47.68,81.73V13.68" fill="none" stroke="#809da8" stroke-linecap="round" stroke-linejoin="round" stroke-width="0.2"/><path d="M314.82,108.05l8.09-8.09m-8.09,22.54L337.36,100m-22.54,37,39.26-39.26m-39.26,53.7,53.71-53.7m-53.71,68.16,67-67m-67,81.42L395.16,100m-80.34,94.78,84-84m-83.76,98.21,83.76-83.75m-69.31,83.75,69.31-69.31M344,208.94l54.86-54.86m-40.41,54.86,40.41-40.41m-26,40.41,26-26m-11.51,26,11.51-11.51m-81.75,11.51-2.26-2.27m16.71,2.27-16.71-16.71M346,208.94l-31.16-31.16m45.61,31.16-45.61-45.61m60.06,45.61-60.06-60.06m74.51,60.06-74.51-74.51m84,69.56-84-84m84,69.56-84-84m84,69.56L323.7,100m75.13,60.68L338.14,100m60.69,46.23-48.51-48.5m48.51,34.05L364.77,97.69m34.06,19.6-18.7-18.7m-.6-.6-.31-.3m19.61,5.15L395.94,100" fill="none" stroke="#809da8" stroke-linecap="round" stroke-linejoin="round" stroke-width="0.2"/><g clip-path="url(#clip-path)"><path d="M85.5-182.81l10.13-10.13M85.5-168.36l24.58-24.58M81-149.37l.43-.43m4.11-4.11,39-39M81-134.92l58-58M81-120.47l72.47-72.47M81-106l86.91-86.92M81-91.57,182.33-192.94M81-77.12,193.12-189.28M81-62.67,202.14-183.86M81-48.23,216.59-183.86M85.5-38.32,231-183.86M85.5-23.87l160-160M85.5-9.42,259.94-183.86m1.3-1.29,10.05-10.06M90.48.05,285.74-195.21M104.93.05,300.19-195.21M119.38.05l193-193M133.83.05l193-193M148.27.05l193-193m.23-.23,1.13-1.13M162.73.05,358-195.21M177.17.05,372.44-195.21M191.62.05,325-133.36m2.81-2.81,56.22-56.22M206.07.05l119-119m4.54-4.54,54.49-54.49M220.52.05,325-104.46m4.54-4.54,56.76-56.76M235,.05,325-90M344-108.93l42.39-42.38M249.42.05l26.8-26.8m82.19-82.18,25.66-25.66M276.67-27.19,325-75.56M263.87.05,276.22-12.3m96.63-96.63,11.22-11.21M280.76-16.84,325-61.11M280.76-2.39,325-46.66M292.77.05,325-32.21M307.22.05,325-17.76M321.67.05,325-3.32M93.75.05,85.5-8.2M108.2.05,85.5-22.65M122.65.05,85.5-37.09m-3.72-3.72L81-41.63M137.1.05,81-56.08M151.55.05,81-70.53M166,.05,81-85m99.49,85L81-99.43M194.89.05,81-113.88M209.35.05,81-128.33M223.79.05,81-142.78M238.24.05,85.5-152.69M252.69.05,85.5-167.14M267.14.05,85.5-181.58M281.59.05l-.83-.82m-4.54-4.55L88.6-192.94M296,.05,280.76-15.23m-4.54-4.53L103.05-192.94M310.49.05l-193-193M324.94.05l-193-193M325-14.3,146.4-192.94M325-28.75,160.85-192.94M325-43.2,175.29-192.94M325-57.64,198.83-183.86m-5.71-5.7-3.37-3.38M325-72.09,213.28-183.86M325-86.54l-97.31-97.32M325-101l-82.87-82.87m89.38,74.93-2-2M325-115.44l-68.41-68.42M346-108.93l-16.42-16.42M325-129.89,262-192.94m98.46,84-86.28-86.28M374.9-108.93l-86.28-86.28m95.45,81-81-81m81,66.55-64.28-64.28m66.55,52.11-52.1-52.11m52.1,37.65-39.92-39.92m39.19,24.75-.9-.91m-.64-.63-23.2-23.21m23.2,8.76-8.76-8.76" fill="none" stroke="#809da8" stroke-linecap="round" stroke-linejoin="round" stroke-width="0.2"/></g><path d="M224,97.72l2.31-2.3M224,112.17l16.75-16.75M224,126.62l31.21-31.2M224,141.07l45.65-45.65m-40,54.48L284.1,95.42m-40,54.48,54.49-54.48m-40,54.48,51.77-51.76M273,149.9l37.32-37.31M287.41,149.9,310.28,127m-8.42,22.86,8.42-8.41m-81.13,8.41L224,144.75m19.6,5.15L224,130.3m34.05,19.6-34.05-34m48.5,34L224,101.4M287,149.9,232.46,95.42M301.4,149.9,246.91,95.42m63.37,48.92L261.36,95.42m48.92,34.47L275.81,95.42m34.47,20-20-20m20,5.57-5.57-5.57" fill="none" stroke="#809da8" stroke-linecap="round" stroke-linejoin="round" stroke-width="0.2"/><polygon points="71.88 0.07 71.88 27.3 80.96 27.3 85.5 27.3 85.5 0.07 71.88 0.07" fill="#003a50"/><rect x="419.26" y="0.07" width="13.62" height="38.58" fill="#003a50"/><rect x="192.21" y="149.9" width="68.12" height="13.62" fill="#003a50"/><polygon points="364.77 208.94 364.77 222.56 410.18 222.56 412.45 222.56 432.89 222.56 432.89 208.94 364.77 208.94" fill="#003a50"/><path d="M63.7,163.76h8.18V100H63.7Zm0-136.46h8.18V.07H63.7Z" fill="#003a50"/><rect x="71.88" y="99.96" width="9.08" height="63.8" fill="#003a50"/><polygon points="80.96 149.91 80.96 163.53 147.7 163.53 192.21 163.53 192.21 149.91 80.96 149.91" fill="#003a50"/><polygon points="301.2 149.91 301.2 163.76 301.32 163.76 301.32 222.56 305.74 222.56 314.82 222.56 314.82 149.91 301.2 149.91" fill="#003a50"/><polygon points="314.82 208.94 314.82 222.56 353.62 222.56 364.77 222.56 364.77 208.94 314.82 208.94" fill="#003a50"/><rect x="310.28" y="95.42" width="4.54" height="54.49" fill="#003a50"/><path d="M314.82,100h32.92V95.42H314.82Zm67-4.54V100h37.46V95.42Z" fill="#003a50"/><polygon points="398.83 99.95 398.83 208.94 401.1 208.94 403.37 208.94 403.37 99.95 398.83 99.95" fill="#003a50"/><rect x="301.32" y="222.56" width="4.41" height="0.45" fill="#003a50"/><rect x="312.55" y="13.68" width="4.54" height="27.24" fill="#003a50"/><polygon points="403.37 146.5 403.42 150.81 416.99 150.81 419.26 150.81 419.26 146.5 403.37 146.5" fill="#003a50"/><rect x="260.33" y="149.91" width="40.87" height="13.62" fill="#003a50"/><polygon points="85.5 0.07 85.5 13.68 108.78 13.68 147.7 13.68 193.12 13.68 193.12 0.07 85.5 0.07" fill="#003a50"/><polygon points="193.12 0.07 193.12 13.68 379.53 13.68 406.71 13.68 419.26 13.68 419.26 0.07 193.12 0.07" fill="#003a50"/><g clip-path="url(#clip-path)"><polygon points="374.99 0.06 379.53 0.06 379.53 -22.65 374.99 -22.65 374.99 -1.5 374.99 0.06" fill="#003a50" fill-rule="evenodd"/><rect x="356.82" y="-27.19" width="4.54" height="27.24" fill="#003a50"/></g><rect x="401.1" y="222.56" width="9.08" height="0.45" fill="#003a50"/><rect x="428.34" y="222.56" width="4.54" height="0.45" fill="#003a50"/><g clip-path="url(#clip-path)"><rect x="276.22" y="-27.19" width="4.54" height="27.24" fill="#003a50"/></g><path d="M419.26,208.94h13.62V90.88H419.26Zm0-163.48h13.63V38.65H419.26Z" fill="#003a50"/><g clip-path="url(#clip-path)"><line x1="85.5" y1="27.3" x2="85.5" y2="-40.82" fill="none" stroke="#003a50" stroke-linecap="round" stroke-linejoin="round" stroke-width="0.96"/></g><line x1="63.7" y1="27.3" x2="85.5" y2="27.3" fill="none" stroke="#003a50" stroke-linecap="round" stroke-linejoin="round" stroke-width="0.96"/><g clip-path="url(#clip-path)"><line x1="432.88" y1="38.65" x2="432.88" y2="-29.46" fill="none" stroke="#003a50" stroke-linecap="round" stroke-linejoin="round" stroke-width="0.96"/></g><line x1="419.26" y1="13.68" x2="419.26" y2="38.65" fill="none" stroke="#003a50" stroke-linecap="round" stroke-linejoin="round" stroke-width="0.96"/><line x1="419.26" y1="38.65" x2="432.89" y2="38.65" fill="none" stroke="#003a50" stroke-linecap="round" stroke-linejoin="round" stroke-width="0.96"/><g clip-path="url(#clip-path)"><line x1="260.33" y1="163.53" x2="260.33" y2="149.91" fill="none" stroke="#003a50" stroke-linecap="round" stroke-linejoin="round" stroke-width="0.96"/><line x1="364.77" y1="222.56" x2="401.1" y2="222.56" fill="none" stroke="#003a50" stroke-linecap="round" stroke-linejoin="round" stroke-width="0.96"/><line x1="410.18" y1="222.56" x2="428.34" y2="222.56" fill="none" stroke="#003a50" stroke-linecap="round" stroke-linejoin="round" stroke-width="0.96"/><line x1="432.88" y1="222.56" x2="432.88" y2="208.94" fill="none" stroke="#003a50" stroke-linecap="round" stroke-linejoin="round" stroke-width="0.96"/></g><line x1="432.88" y1="208.94" x2="364.77" y2="208.94" fill="none" stroke="#003a50" stroke-linecap="round" stroke-linejoin="round" stroke-width="0.96"/><line x1="80.96" y1="99.96" x2="63.7" y2="99.96" fill="none" stroke="#003a50" stroke-linecap="round" stroke-linejoin="round" stroke-width="0.96"/><g clip-path="url(#clip-path)"><line x1="80.96" y1="163.53" x2="301.19" y2="163.53" fill="none" stroke="#003a50" stroke-linecap="round" stroke-linejoin="round" stroke-width="0.96"/></g><line x1="314.82" y1="208.94" x2="314.82" y2="99.96" fill="none" stroke="#003a50" stroke-linecap="round" stroke-linejoin="round" stroke-width="0.96"/><line x1="364.77" y1="208.94" x2="314.82" y2="208.94" fill="none" stroke="#003a50" stroke-linecap="round" stroke-linejoin="round" stroke-width="0.96"/><line x1="310.28" y1="95.41" x2="310.28" y2="149.91" fill="none" stroke="#003a50" stroke-linecap="round" stroke-linejoin="round" stroke-width="0.96"/><line x1="80.96" y1="149.91" x2="314.82" y2="149.91" fill="none" stroke="#003a50" stroke-linecap="round" stroke-linejoin="round" stroke-width="0.96"/><line x1="314.82" y1="99.96" x2="347.74" y2="99.96" fill="none" stroke="#003a50" stroke-linecap="round" stroke-linejoin="round" stroke-width="0.96"/><line x1="347.74" y1="99.96" x2="347.74" y2="95.42" fill="none" stroke="#003a50" stroke-linecap="round" stroke-linejoin="round" stroke-width="0.96"/><line x1="347.74" y1="95.41" x2="310.28" y2="95.41" fill="none" stroke="#003a50" stroke-linecap="round" stroke-linejoin="round" stroke-width="0.96"/><line x1="381.8" y1="99.96" x2="398.83" y2="99.96" fill="none" stroke="#003a50" stroke-linecap="round" stroke-linejoin="round" stroke-width="0.96"/><line x1="419.26" y1="95.41" x2="381.8" y2="95.41" fill="none" stroke="#003a50" stroke-linecap="round" stroke-linejoin="round" stroke-width="0.96"/><line x1="381.8" y1="95.41" x2="381.8" y2="99.95" fill="none" stroke="#003a50" stroke-linecap="round" stroke-linejoin="round" stroke-width="0.96"/><line x1="398.83" y1="99.96" x2="398.83" y2="208.94" fill="none" stroke="#003a50" stroke-linecap="round" stroke-linejoin="round" stroke-width="0.96"/><line x1="403.37" y1="208.94" x2="403.37" y2="208.71" fill="none" stroke="#003a50" stroke-linecap="round" stroke-linejoin="round" stroke-width="0.96"/><line x1="403.37" y1="146.5" x2="403.37" y2="124.93" fill="none" stroke="#003a50" stroke-linecap="round" stroke-linejoin="round" stroke-width="0.96"/><g clip-path="url(#clip-path)"><line x1="301.2" y1="163.53" x2="301.2" y2="299.76" fill="none" stroke="#003a50" stroke-linecap="round" stroke-linejoin="round" stroke-width="0.96"/><line x1="305.74" y1="299.76" x2="305.74" y2="222.56" fill="none" stroke="#003a50" stroke-linecap="round" stroke-linejoin="round" stroke-width="0.96"/><line x1="364.77" y1="222.56" x2="301.2" y2="222.56" fill="none" stroke="#003a50" stroke-linecap="round" stroke-linejoin="round" stroke-width="0.96"/></g><line x1="312.55" y1="13.68" x2="312.55" y2="40.92" fill="none" stroke="#003a50" stroke-linecap="round" stroke-linejoin="round" stroke-width="0.96"/><line x1="312.55" y1="40.92" x2="317.09" y2="40.92" fill="none" stroke="#003a50" stroke-linecap="round" stroke-linejoin="round" stroke-width="0.96"/><line x1="317.09" y1="40.92" x2="317.09" y2="13.68" fill="none" stroke="#003a50" stroke-linecap="round" stroke-linejoin="round" stroke-width="0.96"/><line x1="419.26" y1="146.5" x2="403.37" y2="146.5" fill="none" stroke="#003a50" stroke-linecap="round" stroke-linejoin="round" stroke-width="0.96"/><g clip-path="url(#clip-path)"><line x1="276.22" y1="0.05" x2="85.5" y2="0.05" fill="none" stroke="#003a50" stroke-linecap="round" stroke-linejoin="round" stroke-width="0.96"/></g><line x1="85.5" y1="13.68" x2="419.26" y2="13.68" fill="none" stroke="#003a50" stroke-linecap="round" stroke-linejoin="round" stroke-width="0.96"/><g clip-path="url(#clip-path)"><line x1="356.82" y1="0.05" x2="280.76" y2="0.05" fill="none" stroke="#003a50" stroke-linecap="round" stroke-linejoin="round" stroke-width="0.96"/><line x1="356.82" y1="-27.19" x2="356.82" y2="0.05" fill="none" stroke="#003a50" stroke-linecap="round" stroke-linejoin="round" stroke-width="0.96"/><line x1="361.36" y1="0.05" x2="361.36" y2="-22.65" fill="none" stroke="#003a50" stroke-linecap="round" stroke-linejoin="round" stroke-width="0.96"/><line x1="401.1" y1="222.56" x2="401.1" y2="274.78" fill="none" stroke="#003a50" stroke-linecap="round" stroke-linejoin="round" stroke-width="0.96"/><line x1="410.18" y1="265.7" x2="410.18" y2="222.56" fill="none" stroke="#003a50" stroke-linecap="round" stroke-linejoin="round" stroke-width="0.96"/><line x1="428.34" y1="222.56" x2="428.34" y2="264.95" fill="none" stroke="#003a50" stroke-linecap="round" stroke-linejoin="round" stroke-width="0.96"/><line x1="432.88" y1="306.57" x2="432.88" y2="222.56" fill="none" stroke="#003a50" stroke-linecap="round" stroke-linejoin="round" stroke-width="0.96"/><line x1="280.76" y1="0.05" x2="280.76" y2="-27.19" fill="none" stroke="#003a50" stroke-linecap="round" stroke-linejoin="round" stroke-width="0.96"/><line x1="276.22" y1="-27.19" x2="276.22" y2="0.05" fill="none" stroke="#003a50" stroke-linecap="round" stroke-linejoin="round" stroke-width="0.96"/></g><line x1="419.26" y1="38.65" x2="419.26" y2="45.46" fill="none" stroke="#003a50" stroke-linecap="round" stroke-linejoin="round" stroke-width="0.96"/><line x1="419.26" y1="45.46" x2="432.89" y2="45.46" fill="none" stroke="#003a50" stroke-linecap="round" stroke-linejoin="round" stroke-width="0.96"/><line x1="432.88" y1="45.46" x2="432.88" y2="38.65" fill="none" stroke="#003a50" stroke-linecap="round" stroke-linejoin="round" stroke-width="0.96"/><line x1="432.88" y1="38.65" x2="419.26" y2="38.65" fill="none" stroke="#003a50" stroke-linecap="round" stroke-linejoin="round" stroke-width="0.96"/><line x1="419.26" y1="90.87" x2="419.26" y2="150.81" fill="none" stroke="#003a50" stroke-linecap="round" stroke-linejoin="round" stroke-width="0.96"/><line x1="419.26" y1="208.71" x2="419.26" y2="208.94" fill="none" stroke="#003a50" stroke-linecap="round" stroke-linejoin="round" stroke-width="0.96"/><line x1="432.88" y1="208.94" x2="432.88" y2="90.88" fill="none" stroke="#003a50" stroke-linecap="round" stroke-linejoin="round" stroke-width="0.96"/><line x1="432.88" y1="90.87" x2="419.26" y2="90.87" fill="none" stroke="#003a50" stroke-linecap="round" stroke-linejoin="round" stroke-width="0.96"/><polygon points="41 99.95 41 113.58 50.08 113.58 63.7 113.58 63.7 99.95 41 99.95" fill="#003a50"/><line x1="63.7" y1="113.58" x2="63.7" y2="99.95" fill="none" stroke="#003a50" stroke-linecap="round" stroke-linejoin="round" stroke-width="0.96"/><g clip-path="url(#clip-path)"><line x1="63.7" y1="99.96" x2="41" y2="99.96" fill="none" stroke="#003a50" stroke-linecap="round" stroke-linejoin="round" stroke-width="0.96"/><line x1="41" y1="99.96" x2="41" y2="113.58" fill="none" stroke="#003a50" stroke-linecap="round" stroke-linejoin="round" stroke-width="0.96"/><line x1="41" y1="113.58" x2="63.7" y2="113.58" fill="none" stroke="#003a50" stroke-linecap="round" stroke-linejoin="round" stroke-width="0.96"/></g><rect x="41" y="13.68" width="22.7" height="13.62" fill="#003a50"/><line x1="63.7" y1="27.3" x2="63.7" y2="13.68" fill="none" stroke="#003a50" stroke-linecap="round" stroke-linejoin="round" stroke-width="0.96"/><g clip-path="url(#clip-path)"><line x1="63.7" y1="13.68" x2="41" y2="13.68" fill="none" stroke="#003a50" stroke-linecap="round" stroke-linejoin="round" stroke-width="0.96"/><line x1="41" y1="13.68" x2="41" y2="27.3" fill="none" stroke="#003a50" stroke-linecap="round" stroke-linejoin="round" stroke-width="0.96"/><line x1="41" y1="27.3" x2="63.7" y2="27.3" fill="none" stroke="#003a50" stroke-linecap="round" stroke-linejoin="round" stroke-width="0.96"/></g><rect x="50.08" y="113.58" width="13.62" height="50.18" fill="#003a50"/><g clip-path="url(#clip-path)"><line x1="63.7" y1="172.61" x2="63.7" y2="113.58" fill="none" stroke="#003a50" stroke-linecap="round" stroke-linejoin="round" stroke-width="0.96"/></g><line x1="63.7" y1="113.58" x2="50.08" y2="113.58" fill="none" stroke="#003a50" stroke-linecap="round" stroke-linejoin="round" stroke-width="0.96"/><g clip-path="url(#clip-path)"><line x1="50.08" y1="113.58" x2="50.08" y2="172.61" fill="none" stroke="#003a50" stroke-linecap="round" stroke-linejoin="round" stroke-width="0.96"/></g><rect x="50.08" y="0.07" width="13.62" height="13.6" fill="#003a50"/><g clip-path="url(#clip-path)"><line x1="63.7" y1="13.68" x2="63.7" y2="-45.35" fill="none" stroke="#003a50" stroke-linecap="round" stroke-linejoin="round" stroke-width="0.96"/><line x1="50.08" y1="-45.36" x2="50.08" y2="13.68" fill="none" stroke="#003a50" stroke-linecap="round" stroke-linejoin="round" stroke-width="0.96"/></g><line x1="50.08" y1="13.68" x2="63.7" y2="13.68" fill="none" stroke="#003a50" stroke-linecap="round" stroke-linejoin="round" stroke-width="0.96"/><line x1="312.55" y1="95.41" x2="312.55" y2="40.92" fill="none" stroke="#809da8" stroke-linecap="round" stroke-linejoin="round" stroke-width="0.4"/><g clip-path="url(#clip-path)"><line x1="325.04" y1="-81.68" x2="325.04" y2="0.05" fill="none" stroke="#809da8" stroke-linecap="round" stroke-linejoin="round" stroke-width="0.4"/></g><line x1="224" y1="149.91" x2="224" y2="95.41" fill="none" stroke="#809da8" stroke-linecap="round" stroke-linejoin="round" stroke-width="0.4"/><line x1="310.28" y1="95.41" x2="224" y2="95.41" fill="none" stroke="#809da8" stroke-linecap="round" stroke-linejoin="round" stroke-width="0.4"/><line x1="429.71" y1="45.46" x2="429.71" y2="46.37" fill="none" stroke="#003a50" stroke-linecap="round" stroke-linejoin="round" stroke-width="0.96"/><line x1="432.88" y1="46.37" x2="432.88" y2="45.46" fill="none" stroke="#003a50" stroke-linecap="round" stroke-linejoin="round" stroke-width="0.96"/><line x1="429.71" y1="89.97" x2="429.71" y2="90.87" fill="none" stroke="#003a50" stroke-linecap="round" stroke-linejoin="round" stroke-width="0.96"/><line x1="432.88" y1="90.87" x2="432.88" y2="89.97" fill="none" stroke="#003a50" stroke-linecap="round" stroke-linejoin="round" stroke-width="0.96"/><line x1="432.88" y1="46.37" x2="429.7" y2="46.37" fill="none" stroke="#003a50" stroke-linecap="round" stroke-linejoin="round" stroke-width="0.96"/><line x1="429.71" y1="46.37" x2="429.71" y2="47.74" fill="none" stroke="#003a50" stroke-linecap="round" stroke-linejoin="round" stroke-width="0.96"/><line x1="429.71" y1="47.73" x2="432.89" y2="47.73" fill="none" stroke="#003a50" stroke-linecap="round" stroke-linejoin="round" stroke-width="0.96"/><line x1="432.88" y1="47.73" x2="432.88" y2="46.37" fill="none" stroke="#003a50" stroke-linecap="round" stroke-linejoin="round" stroke-width="0.96"/><line x1="432.88" y1="89.97" x2="432.88" y2="88.6" fill="none" stroke="#003a50" stroke-linecap="round" stroke-linejoin="round" stroke-width="0.96"/><line x1="432.88" y1="88.6" x2="429.7" y2="88.6" fill="none" stroke="#003a50" stroke-linecap="round" stroke-linejoin="round" stroke-width="0.96"/><line x1="429.71" y1="88.6" x2="429.71" y2="89.97" fill="none" stroke="#003a50" stroke-linecap="round" stroke-linejoin="round" stroke-width="0.96"/><line x1="429.71" y1="89.97" x2="432.89" y2="89.97" fill="none" stroke="#003a50" stroke-linecap="round" stroke-linejoin="round" stroke-width="0.96"/><g clip-path="url(#clip-path)"><path d="M432.88,88.6a40.86,40.86,0,0,0,40.87-40.86" fill="none" stroke="#003a50" stroke-linecap="round" stroke-linejoin="round" stroke-width="0.96"/></g><line x1="432.88" y1="47.73" x2="473.75" y2="47.73" fill="none" stroke="#003a50" stroke-linecap="round" stroke-linejoin="round" stroke-width="0.96"/><line x1="347.74" y1="95.41" x2="348.65" y2="95.41" fill="none" stroke="#003a50" stroke-linecap="round" stroke-linejoin="round" stroke-width="0.96"/><line x1="348.65" y1="98.59" x2="347.74" y2="98.59" fill="none" stroke="#003a50" stroke-linecap="round" stroke-linejoin="round" stroke-width="0.96"/><line x1="380.89" y1="95.41" x2="381.8" y2="95.41" fill="none" stroke="#003a50" stroke-linecap="round" stroke-linejoin="round" stroke-width="0.96"/><line x1="381.8" y1="98.59" x2="380.89" y2="98.59" fill="none" stroke="#003a50" stroke-linecap="round" stroke-linejoin="round" stroke-width="0.96"/><line x1="348.65" y1="98.59" x2="348.65" y2="95.41" fill="none" stroke="#003a50" stroke-linecap="round" stroke-linejoin="round" stroke-width="0.96"/><line x1="350.01" y1="98.59" x2="348.65" y2="98.59" fill="none" stroke="#003a50" stroke-linecap="round" stroke-linejoin="round" stroke-width="0.96"/><line x1="350.01" y1="95.41" x2="350.01" y2="98.59" fill="none" stroke="#003a50" stroke-linecap="round" stroke-linejoin="round" stroke-width="0.96"/><line x1="348.65" y1="95.41" x2="350.01" y2="95.41" fill="none" stroke="#003a50" stroke-linecap="round" stroke-linejoin="round" stroke-width="0.96"/><line x1="379.53" y1="95.41" x2="380.89" y2="95.41" fill="none" stroke="#003a50" stroke-linecap="round" stroke-linejoin="round" stroke-width="0.96"/><line x1="379.53" y1="98.59" x2="379.53" y2="95.41" fill="none" stroke="#003a50" stroke-linecap="round" stroke-linejoin="round" stroke-width="0.96"/><line x1="380.89" y1="98.59" x2="379.53" y2="98.59" fill="none" stroke="#003a50" stroke-linecap="round" stroke-linejoin="round" stroke-width="0.96"/><line x1="380.89" y1="95.41" x2="380.89" y2="98.59" fill="none" stroke="#003a50" stroke-linecap="round" stroke-linejoin="round" stroke-width="0.96"/><g clip-path="url(#clip-path)"><path d="M379.53,65.9A29.52,29.52,0,0,0,350,95.41" fill="none" stroke="#003a50" stroke-linecap="round" stroke-linejoin="round" stroke-width="0.96"/></g><line x1="379.53" y1="95.41" x2="379.53" y2="65.9" fill="none" stroke="#003a50" stroke-linecap="round" stroke-linejoin="round" stroke-width="0.96"/><g clip-path="url(#clip-path)"><line x1="63.7" y1="-394.58" x2="63.7" y2="942.54" fill="none" stroke="#003a50" stroke-miterlimit="10"/><line x1="80.91" y1="-377.22" x2="80.91" y2="942.54" fill="none" stroke="#003a50" stroke-miterlimit="10"/></g><rect x="69.48" y="27.82" width="4.55" height="71.32" fill="#fff"/><rect x="69.48" y="27.82" width="4.55" height="71.32" fill="none" stroke="#003a50" stroke-miterlimit="10"/><line x1="71.76" y1="99.13" x2="71.76" y2="27.82" fill="none" stroke="#003a50" stroke-miterlimit="10"/><rect x="69.48" y="94.62" width="4.55" height="4.51" fill="#fff"/><rect x="69.48" y="94.62" width="4.55" height="4.51" fill="none" stroke="#003a50" stroke-miterlimit="10"/><rect x="69.48" y="27.82" width="4.55" height="4.51" fill="#fff"/><rect x="69.48" y="27.82" width="4.55" height="4.51" fill="none" stroke="#003a50" stroke-miterlimit="10"/><rect x="69.48" y="63.48" width="4.55" height="4.51" fill="#fff"/><rect x="69.48" y="63.48" width="4.55" height="4.51" fill="none" stroke="#003a50" stroke-miterlimit="10"/><g clip-path="url(#clip-path)"><line x1="13.71" y1="-58.79" x2="13.71" y2="27.49" fill="none" stroke="#003a50" stroke-linecap="round" stroke-linejoin="round" stroke-width="0.4"/><line x1="13.71" y1="27.49" x2="11.88" y2="34.3" fill="none" stroke="#003a50" stroke-linecap="round" stroke-linejoin="round" stroke-width="0.4"/></g><line x1="11.88" y1="34.3" x2="15.53" y2="34.3" fill="none" stroke="#003a50" stroke-linecap="round" stroke-linejoin="round" stroke-width="0.4"/><g clip-path="url(#clip-path)"><line x1="15.53" y1="34.3" x2="13.71" y2="27.49" fill="none" stroke="#003a50" stroke-linecap="round" stroke-linejoin="round" stroke-width="0.4"/></g><polygon points="11.88 34.3 15.53 34.3 13.71 27.49 11.88 34.3" fill="#003a50"/><g clip-path="url(#clip-path)"><line x1="13.71" y1="27.49" x2="15.53" y2="20.68" fill="none" stroke="#003a50" stroke-linecap="round" stroke-linejoin="round" stroke-width="0.4"/><line x1="11.88" y1="20.68" x2="13.71" y2="27.49" fill="none" stroke="#003a50" stroke-linecap="round" stroke-linejoin="round" stroke-width="0.4"/></g><polygon points="13.6 27.1 13.71 27.49 13.81 27.1 13.6 27.1" fill="#003a50"/><g clip-path="url(#clip-path)"><line x1="44.17" y1="27.49" x2="12.35" y2="27.49" fill="none" stroke="#003a50" stroke-linecap="round" stroke-linejoin="round" stroke-width="0.4"/><line x1="13.71" y1="27.49" x2="44.17" y2="27.49" fill="none" stroke="#003a50" stroke-linecap="round" stroke-linejoin="round" stroke-width="0.4"/><line x1="13.71" y1="27.49" x2="13.71" y2="100.15" fill="none" stroke="#003a50" stroke-linecap="round" stroke-linejoin="round" stroke-width="0.4"/><line x1="13.71" y1="100.15" x2="11.88" y2="106.96" fill="none" stroke="#003a50" stroke-linecap="round" stroke-linejoin="round" stroke-width="0.4"/><line x1="15.53" y1="106.96" x2="13.71" y2="100.15" fill="none" stroke="#003a50" stroke-linecap="round" stroke-linejoin="round" stroke-width="0.4"/></g><polygon points="13.7 100.15 13.71 100.15 13.71 100.14 13.7 100.15" fill="#003a50"/><line x1="13.71" y1="100.15" x2="15.53" y2="93.33" fill="none" stroke="#003a50" stroke-linecap="round" stroke-linejoin="round" stroke-width="0.4"/><line x1="15.53" y1="93.33" x2="11.88" y2="93.33" fill="none" stroke="#003a50" stroke-linecap="round" stroke-linejoin="round" stroke-width="0.4"/><line x1="11.88" y1="93.33" x2="13.71" y2="100.15" fill="none" stroke="#003a50" stroke-linecap="round" stroke-linejoin="round" stroke-width="0.4"/><polygon points="11.88 93.33 13.71 100.14 15.53 93.33 11.88 93.33" fill="#003a50"/><line x1="44.17" y1="100.15" x2="12.35" y2="100.15" fill="none" stroke="#003a50" stroke-linecap="round" stroke-linejoin="round" stroke-width="0.4"/><line x1="13.71" y1="100.15" x2="44.17" y2="100.15" fill="none" stroke="#003a50" stroke-linecap="round" stroke-linejoin="round" stroke-width="0.4"/><g clip-path="url(#clip-path)"><line x1="13.71" y1="27.49" x2="11.88" y2="34.3" fill="none" stroke="#003a50" stroke-linecap="round" stroke-linejoin="round" stroke-width="0.4"/></g><line x1="11.88" y1="34.3" x2="15.53" y2="34.3" fill="none" stroke="#003a50" stroke-linecap="round" stroke-linejoin="round" stroke-width="0.4"/><g clip-path="url(#clip-path)"><line x1="15.53" y1="34.3" x2="13.71" y2="27.49" fill="none" stroke="#003a50" stroke-linecap="round" stroke-linejoin="round" stroke-width="0.4"/></g><polygon points="11.88 34.3 15.53 34.3 13.71 27.49 11.88 34.3" fill="#003a50"/><g clip-path="url(#clip-path)"><line x1="13.71" y1="27.49" x2="15.53" y2="20.68" fill="none" stroke="#003a50" stroke-linecap="round" stroke-linejoin="round" stroke-width="0.4"/><line x1="11.88" y1="20.68" x2="13.71" y2="27.49" fill="none" stroke="#003a50" stroke-linecap="round" stroke-linejoin="round" stroke-width="0.4"/></g><polygon points="13.6 27.1 13.71 27.49 13.81 27.1 13.6 27.1" fill="#003a50"/><g clip-path="url(#clip-path)"><line x1="44.17" y1="27.49" x2="12.35" y2="27.49" fill="none" stroke="#003a50" stroke-linecap="round" stroke-linejoin="round" stroke-width="0.4"/><line x1="13.71" y1="27.49" x2="44.17" y2="27.49" fill="none" stroke="#003a50" stroke-linecap="round" stroke-linejoin="round" stroke-width="0.4"/><path d="M3.21,72.6H10v.69H3.83v1.59H3.21Z" fill="#003a50"/><path d="M6.17,67a1.88,1.88,0,0,1,.7-.8,1.91,1.91,0,0,1,1.07-.29,2,2,0,0,1,1.81,1.12A2.65,2.65,0,0,1,10,68.23a2.48,2.48,0,0,1-.88,2A3.86,3.86,0,0,1,6.64,71a4.25,4.25,0,0,1-1.91-.39,2.67,2.67,0,0,1-1.18-1.07,3.24,3.24,0,0,1-.4-1.62,3.08,3.08,0,0,1,.37-1.6l.56.28a2.37,2.37,0,0,0-.32,1.31,2.22,2.22,0,0,0,.71,1.75,2.93,2.93,0,0,0,2.05.64l.55,0a1.83,1.83,0,0,1-.85-.8,2.85,2.85,0,0,1,0-2.44Zm2.85,0A1.33,1.33,0,0,0,8,66.61a1.3,1.3,0,0,0-1.06.46,1.79,1.79,0,0,0-.4,1.23,2.09,2.09,0,0,0,.19.9,1.61,1.61,0,0,0,.53.62A1.43,1.43,0,0,0,8,70a1.32,1.32,0,0,0,.72-.21,1.6,1.6,0,0,0,.53-.61,2.19,2.19,0,0,0,.2-1A1.76,1.76,0,0,0,9,67.07Z" fill="#003a50"/><path d="M9.59,63.84a2.78,2.78,0,0,1-1.19,1,4.41,4.41,0,0,1-1.82.34,4.41,4.41,0,0,1-1.82-.34,2.73,2.73,0,0,1-1.19-1,2.51,2.51,0,0,1,0-2.78,2.67,2.67,0,0,1,1.19-1,4.41,4.41,0,0,1,1.82-.35,4.41,4.41,0,0,1,1.82.35,2.73,2.73,0,0,1,1.19,1,2.56,2.56,0,0,1,0,2.78ZM9,61.41a2.11,2.11,0,0,0-.95-.7,4.22,4.22,0,0,0-1.51-.25,4.22,4.22,0,0,0-1.51.25,2.06,2.06,0,0,0-1,.7,1.79,1.79,0,0,0,0,2.07,2.06,2.06,0,0,0,1,.7,4.22,4.22,0,0,0,1.51.25,4.22,4.22,0,0,0,1.51-.25,2.11,2.11,0,0,0,.95-.7,1.79,1.79,0,0,0,0-2.07Z" fill="#003a50"/><path d="M9.59,57.47a2.71,2.71,0,0,1-1.19,1,4.41,4.41,0,0,1-1.82.34,4.41,4.41,0,0,1-1.82-.34,2.66,2.66,0,0,1-1.19-1,2.51,2.51,0,0,1,0-2.78,2.67,2.67,0,0,1,1.19-1,4.41,4.41,0,0,1,1.82-.35,4.41,4.41,0,0,1,1.82.35,2.73,2.73,0,0,1,1.19,1,2.56,2.56,0,0,1,0,2.78ZM9,55a2,2,0,0,0-.95-.69,4,4,0,0,0-1.51-.25,4,4,0,0,0-1.51.25,2,2,0,0,0-1,.69,1.72,1.72,0,0,0-.33,1,1.69,1.69,0,0,0,.33,1,2.06,2.06,0,0,0,1,.7,4,4,0,0,0,1.51.25,4,4,0,0,0,1.51-.25,2.11,2.11,0,0,0,.95-.7,1.69,1.69,0,0,0,.33-1A1.72,1.72,0,0,0,9,55Z" fill="#003a50"/><line x1="13.71" y1="100.15" x2="13.71" y2="186.43" fill="none" stroke="#003a50" stroke-linecap="round" stroke-linejoin="round" stroke-width="0.4"/><line x1="13.71" y1="100.15" x2="11.88" y2="106.96" fill="none" stroke="#003a50" stroke-linecap="round" stroke-linejoin="round" stroke-width="0.4"/><line x1="15.53" y1="106.96" x2="13.71" y2="100.15" fill="none" stroke="#003a50" stroke-linecap="round" stroke-linejoin="round" stroke-width="0.4"/></g><polygon points="13.7 100.15 13.71 100.15 13.71 100.14 13.7 100.15" fill="#003a50"/><line x1="13.71" y1="100.15" x2="15.53" y2="93.33" fill="none" stroke="#003a50" stroke-linecap="round" stroke-linejoin="round" stroke-width="0.4"/><line x1="15.53" y1="93.33" x2="11.88" y2="93.33" fill="none" stroke="#003a50" stroke-linecap="round" stroke-linejoin="round" stroke-width="0.4"/><line x1="11.88" y1="93.33" x2="13.71" y2="100.15" fill="none" stroke="#003a50" stroke-linecap="round" stroke-linejoin="round" stroke-width="0.4"/><polygon points="11.88 93.33 13.71 100.14 15.53 93.33 11.88 93.33" fill="#003a50"/><line x1="44.17" y1="100.15" x2="12.35" y2="100.15" fill="none" stroke="#003a50" stroke-linecap="round" stroke-linejoin="round" stroke-width="0.4"/><line x1="13.71" y1="100.15" x2="44.17" y2="100.15" fill="none" stroke="#003a50" stroke-linecap="round" stroke-linejoin="round" stroke-width="0.4"/><g clip-path="url(#clip-path)"><path d="M3.21,152.07H10v.69H3.83v1.59H3.21Z" fill="#003a50"/><path d="M4,146.31a3.91,3.91,0,0,1,2.49-.71,4.25,4.25,0,0,1,1.91.39,2.6,2.6,0,0,1,1.17,1.07,3.17,3.17,0,0,1,.4,1.62,3.08,3.08,0,0,1-.36,1.6L9.08,150a2.37,2.37,0,0,0,.32-1.31,2.24,2.24,0,0,0-.71-1.75,2.93,2.93,0,0,0-2-.64l-.55,0a1.83,1.83,0,0,1,.85.8,2.85,2.85,0,0,1,0,2.44,1.88,1.88,0,0,1-.7.8,1.91,1.91,0,0,1-1.07.29,2,2,0,0,1-1.08-.3,1.88,1.88,0,0,1-.73-.82,2.66,2.66,0,0,1-.26-1.18A2.51,2.51,0,0,1,4,146.31Zm2.43,1.08a1.51,1.51,0,0,0-.52-.62,1.43,1.43,0,0,0-.76-.22,1.31,1.31,0,0,0-.71.21,1.52,1.52,0,0,0-.53.61,2.19,2.19,0,0,0-.2,1,1.71,1.71,0,0,0,.4,1.19A1.33,1.33,0,0,0,5.2,150a1.3,1.3,0,0,0,1.06-.46,1.84,1.84,0,0,0,.4-1.23A2,2,0,0,0,6.46,147.39Z" fill="#003a50"/><path d="M9.59,143.31a2.78,2.78,0,0,1-1.19.95,4.41,4.41,0,0,1-1.82.34,4.41,4.41,0,0,1-1.82-.34,2.73,2.73,0,0,1-1.19-.95,2.51,2.51,0,0,1,0-2.78,2.67,2.67,0,0,1,1.19-1,4.41,4.41,0,0,1,1.82-.35,4.41,4.41,0,0,1,1.82.35,2.73,2.73,0,0,1,1.19,1,2.56,2.56,0,0,1,0,2.78ZM9,140.88a2.11,2.11,0,0,0-.95-.7,4.22,4.22,0,0,0-1.51-.25,4.22,4.22,0,0,0-1.51.25,2.06,2.06,0,0,0-1,.7,1.72,1.72,0,0,0-.33,1,1.69,1.69,0,0,0,.33,1,2.06,2.06,0,0,0,1,.7,4,4,0,0,0,1.51.25,4,4,0,0,0,1.51-.25A2.11,2.11,0,0,0,9,143a1.69,1.69,0,0,0,.33-1A1.72,1.72,0,0,0,9,140.88Z" fill="#003a50"/><path d="M9.59,136.94a2.71,2.71,0,0,1-1.19.95,4.41,4.41,0,0,1-1.82.34,4.41,4.41,0,0,1-1.82-.34,2.66,2.66,0,0,1-1.19-.95,2.51,2.51,0,0,1,0-2.78,2.67,2.67,0,0,1,1.19-1,4.41,4.41,0,0,1,1.82-.35,4.41,4.41,0,0,1,1.82.35,2.73,2.73,0,0,1,1.19,1,2.56,2.56,0,0,1,0,2.78ZM9,134.51a2.1,2.1,0,0,0-.95-.69,4,4,0,0,0-1.51-.25,4,4,0,0,0-1.51.25,2,2,0,0,0-1,.69,1.72,1.72,0,0,0-.33,1,1.69,1.69,0,0,0,.33,1,2.06,2.06,0,0,0,1,.7,4,4,0,0,0,1.51.25,4,4,0,0,0,1.51-.25,2.11,2.11,0,0,0,.95-.7,1.69,1.69,0,0,0,.33-1A1.72,1.72,0,0,0,9,134.51Z" fill="#003a50"/><path d="M9.59,222.77a2.73,2.73,0,0,1-1.19,1,4.58,4.58,0,0,1-1.82.34,4.58,4.58,0,0,1-1.82-.34,2.67,2.67,0,0,1-1.19-1,2.51,2.51,0,0,1,0-2.78,2.73,2.73,0,0,1,1.19-1,4.41,4.41,0,0,1,1.82-.35A4.41,4.41,0,0,1,8.4,219a2.78,2.78,0,0,1,1.19,1,2.56,2.56,0,0,1,0,2.78ZM9,220.35a2.11,2.11,0,0,0-.95-.7,4.22,4.22,0,0,0-1.51-.25,4.22,4.22,0,0,0-1.51.25,2.06,2.06,0,0,0-1,.7,1.79,1.79,0,0,0,0,2.07,2.06,2.06,0,0,0,1,.7,4.22,4.22,0,0,0,1.51.25,4.22,4.22,0,0,0,1.51-.25,2.11,2.11,0,0,0,.95-.7,1.79,1.79,0,0,0,0-2.07Z" fill="#003a50"/><path d="M9.59,216.41a2.78,2.78,0,0,1-1.19,1,4.41,4.41,0,0,1-1.82.34,4.41,4.41,0,0,1-1.82-.34,2.73,2.73,0,0,1-1.19-1,2.51,2.51,0,0,1,0-2.78,2.67,2.67,0,0,1,1.19-1,4.41,4.41,0,0,1,1.82-.35,4.41,4.41,0,0,1,1.82.35,2.73,2.73,0,0,1,1.19,1,2.56,2.56,0,0,1,0,2.78ZM9,214a2.11,2.11,0,0,0-.95-.7A4.22,4.22,0,0,0,6.58,213a4.22,4.22,0,0,0-1.51.25,2.06,2.06,0,0,0-1,.7,1.79,1.79,0,0,0,0,2.07,2.06,2.06,0,0,0,1,.7,4,4,0,0,0,1.51.25,4,4,0,0,0,1.51-.25,2.11,2.11,0,0,0,.95-.7A1.79,1.79,0,0,0,9,214Z" fill="#003a50"/></g><g clip-path="url(#clip-path)"><line x1="113.94" y1="163.72" x2="113.94" y2="299.95" fill="none" stroke="#003a50" stroke-linecap="round" stroke-linejoin="round" stroke-width="0.4"/><line x1="113.94" y1="163.72" x2="112.12" y2="170.53" fill="none" stroke="#003a50" stroke-linecap="round" stroke-linejoin="round" stroke-width="0.4"/><line x1="115.77" y1="170.53" x2="113.95" y2="163.72" fill="none" stroke="#003a50" stroke-linecap="round" stroke-linejoin="round" stroke-width="0.4"/></g><polygon points="113.93 163.76 113.95 163.76 113.94 163.72 113.93 163.76" fill="#003a50"/><g clip-path="url(#clip-path)"><line x1="117.4" y1="163.72" x2="112.58" y2="163.72" fill="none" stroke="#003a50" stroke-linecap="round" stroke-linejoin="round" stroke-width="0.4"/><line x1="113.94" y1="163.72" x2="117.4" y2="163.72" fill="none" stroke="#003a50" stroke-linecap="round" stroke-linejoin="round" stroke-width="0.4"/><path d="M109.83,224.33a2.64,2.64,0,0,1-1.19.95,4.45,4.45,0,0,1-1.82.34,4.49,4.49,0,0,1-1.83-.34,2.62,2.62,0,0,1-1.18-.95,2.51,2.51,0,0,1,0-2.78,2.7,2.7,0,0,1,1.18-1,4.49,4.49,0,0,1,1.83-.34,4.45,4.45,0,0,1,1.82.34,2.73,2.73,0,0,1,1.19,1,2.56,2.56,0,0,1,0,2.78Zm-.55-2.42a2.11,2.11,0,0,0-1-.7,4.69,4.69,0,0,0-3,0,2.15,2.15,0,0,0-1,.7,1.82,1.82,0,0,0,0,2.06,2.15,2.15,0,0,0,1,.7,4.69,4.69,0,0,0,3,0,2.11,2.11,0,0,0,1-.7,1.77,1.77,0,0,0,0-2.06Z" fill="#003a50"/></g><line x1="113.94" y1="13.87" x2="113.94" y2="150.1" fill="none" stroke="#003a50" stroke-linecap="round" stroke-linejoin="round" stroke-width="0.4"/><line x1="113.94" y1="150.1" x2="115.77" y2="143.28" fill="none" stroke="#003a50" stroke-linecap="round" stroke-linejoin="round" stroke-width="0.4"/><line x1="115.77" y1="143.29" x2="112.12" y2="143.29" fill="none" stroke="#003a50" stroke-linecap="round" stroke-linejoin="round" stroke-width="0.4"/><line x1="112.12" y1="143.29" x2="113.94" y2="150.1" fill="none" stroke="#003a50" stroke-linecap="round" stroke-linejoin="round" stroke-width="0.4"/><polygon points="112.12 143.29 113.94 150.1 115.77 143.29 112.12 143.29" fill="#003a50"/><line x1="117.4" y1="150.1" x2="112.58" y2="150.1" fill="none" stroke="#003a50" stroke-linecap="round" stroke-linejoin="round" stroke-width="0.4"/><line x1="113.94" y1="150.1" x2="117.4" y2="150.1" fill="none" stroke="#003a50" stroke-linecap="round" stroke-linejoin="round" stroke-width="0.4"/><line x1="113.94" y1="13.87" x2="112.12" y2="20.68" fill="none" stroke="#003a50" stroke-linecap="round" stroke-linejoin="round" stroke-width="0.4"/><line x1="112.12" y1="20.68" x2="115.77" y2="20.68" fill="none" stroke="#003a50" stroke-linecap="round" stroke-linejoin="round" stroke-width="0.4"/><line x1="115.77" y1="20.68" x2="113.95" y2="13.87" fill="none" stroke="#003a50" stroke-linecap="round" stroke-linejoin="round" stroke-width="0.4"/><polygon points="112.12 20.68 115.77 20.68 113.94 13.87 112.12 20.68" fill="#003a50"/><line x1="117.4" y1="13.87" x2="112.58" y2="13.87" fill="none" stroke="#003a50" stroke-linecap="round" stroke-linejoin="round" stroke-width="0.4"/><line x1="113.94" y1="13.87" x2="117.4" y2="13.87" fill="none" stroke="#003a50" stroke-linecap="round" stroke-linejoin="round" stroke-width="0.4"/><g clip-path="url(#clip-path)"><path d="M106.91,90a1.74,1.74,0,0,1,1.34-.55A1.81,1.81,0,0,1,110,90.59a3,3,0,0,1,.26,1.33A4.16,4.16,0,0,1,110,93.3a2.91,2.91,0,0,1-.63,1l-.55-.34a2.38,2.38,0,0,0,.56-.89,3.2,3.2,0,0,0,.22-1.2,2,2,0,0,0-.36-1.28,1.22,1.22,0,0,0-1-.45,1.18,1.18,0,0,0-1,.45,2.18,2.18,0,0,0-.36,1.37v.48h-.51l-2.33-1.87v3.45h-.62V89.74h.49l2.4,1.9A2.53,2.53,0,0,1,106.91,90Z" fill="#003a50"/><path d="M109.83,87.21a2.73,2.73,0,0,1-1.19,1,4.62,4.62,0,0,1-1.82.34,4.67,4.67,0,0,1-1.83-.34,2.7,2.7,0,0,1-1.18-1,2.51,2.51,0,0,1,0-2.78,2.68,2.68,0,0,1,1.18-1,4.33,4.33,0,0,1,1.83-.35,4.28,4.28,0,0,1,1.82.35,2.71,2.71,0,0,1,1.19,1,2.56,2.56,0,0,1,0,2.78Zm-.55-2.42a2.11,2.11,0,0,0-1-.7,4.69,4.69,0,0,0-3,0,2.15,2.15,0,0,0-1,.7,1.75,1.75,0,0,0-.32,1,1.78,1.78,0,0,0,.32,1,2.13,2.13,0,0,0,1,.69,4.69,4.69,0,0,0,3,0,2.1,2.1,0,0,0,1-.69,1.72,1.72,0,0,0,.33-1A1.69,1.69,0,0,0,109.28,84.79Z" fill="#003a50"/><path d="M109.83,80.84a2.73,2.73,0,0,1-1.19,1,4.62,4.62,0,0,1-1.82.34A4.67,4.67,0,0,1,105,81.8a2.7,2.7,0,0,1-1.18-1,2.51,2.51,0,0,1,0-2.78,2.75,2.75,0,0,1,1.18-1,4.49,4.49,0,0,1,1.83-.35,4.44,4.44,0,0,1,1.82.35,2.78,2.78,0,0,1,1.19,1,2.56,2.56,0,0,1,0,2.78Zm-.55-2.42a2.11,2.11,0,0,0-1-.7,4.69,4.69,0,0,0-3,0,2.15,2.15,0,0,0-1,.7,1.83,1.83,0,0,0,0,2.07,2.15,2.15,0,0,0,1,.7,4.69,4.69,0,0,0,3,0,2.11,2.11,0,0,0,1-.7,1.79,1.79,0,0,0,0-2.07Z" fill="#003a50"/><path d="M109.83,74.48a2.78,2.78,0,0,1-1.19,1,4.45,4.45,0,0,1-1.82.34,4.49,4.49,0,0,1-1.83-.34,2.75,2.75,0,0,1-1.18-1,2.53,2.53,0,0,1,0-2.79,2.75,2.75,0,0,1,1.18-1,4.49,4.49,0,0,1,1.83-.35,4.44,4.44,0,0,1,1.82.35,2.78,2.78,0,0,1,1.19,1,2.58,2.58,0,0,1,0,2.79Zm-.55-2.43a2.11,2.11,0,0,0-1-.7,4.69,4.69,0,0,0-3,0,2.15,2.15,0,0,0-1,.7,1.83,1.83,0,0,0,0,2.07,2.15,2.15,0,0,0,1,.7,4.69,4.69,0,0,0,3,0,2.11,2.11,0,0,0,1-.7,1.79,1.79,0,0,0,0-2.07Z" fill="#003a50"/><line x1="110.21" y1="-192.75" x2="110.21" y2="0.24" fill="none" stroke="#003a50" stroke-linecap="round" stroke-linejoin="round" stroke-width="0.4"/><line x1="110.21" y1="0.24" x2="112.03" y2="-6.57" fill="none" stroke="#003a50" stroke-linecap="round" stroke-linejoin="round" stroke-width="0.4"/><line x1="108.38" y1="-6.57" x2="110.2" y2="0.24" fill="none" stroke="#003a50" stroke-linecap="round" stroke-linejoin="round" stroke-width="0.4"/></g><polygon points="110.16 0.07 110.2 0.25 110.25 0.07 110.16 0.07" fill="#003a50"/><line x1="113.66" y1="0.24" x2="108.84" y2="0.24" fill="none" stroke="#003a50" stroke-linecap="round" stroke-linejoin="round" stroke-width="0.4"/><line x1="110.21" y1="0.24" x2="113.66" y2="0.24" fill="none" stroke="#003a50" stroke-linecap="round" stroke-linejoin="round" stroke-width="0.4"/><g clip-path="url(#clip-path)"><line x1="311.51" y1="-27" x2="311.51" y2="0.25" fill="none" stroke="#003a50" stroke-linecap="round" stroke-linejoin="round" stroke-width="0.4"/><line x1="311.51" y1="0.24" x2="313.33" y2="-6.57" fill="none" stroke="#003a50" stroke-linecap="round" stroke-linejoin="round" stroke-width="0.4"/><line x1="309.68" y1="-6.57" x2="311.5" y2="0.24" fill="none" stroke="#003a50" stroke-linecap="round" stroke-linejoin="round" stroke-width="0.4"/></g><polygon points="311.46 0.07 311.5 0.25 311.55 0.07 311.46 0.07" fill="#003a50"/><line x1="314.96" y1="0.24" x2="310.14" y2="0.24" fill="none" stroke="#003a50" stroke-linecap="round" stroke-linejoin="round" stroke-width="0.4"/><line x1="311.51" y1="0.24" x2="314.96" y2="0.24" fill="none" stroke="#003a50" stroke-linecap="round" stroke-linejoin="round" stroke-width="0.4"/><g clip-path="url(#clip-path)"><line x1="349.61" y1="-27" x2="349.61" y2="0.25" fill="none" stroke="#003a50" stroke-linecap="round" stroke-linejoin="round" stroke-width="0.4"/><line x1="349.61" y1="0.24" x2="351.44" y2="-6.57" fill="none" stroke="#003a50" stroke-linecap="round" stroke-linejoin="round" stroke-width="0.4"/><line x1="347.79" y1="-6.57" x2="349.61" y2="0.24" fill="none" stroke="#003a50" stroke-linecap="round" stroke-linejoin="round" stroke-width="0.4"/></g><polygon points="349.56 0.07 349.61 0.25 349.66 0.07 349.56 0.07" fill="#003a50"/><line x1="353.07" y1="0.24" x2="348.25" y2="0.24" fill="none" stroke="#003a50" stroke-linecap="round" stroke-linejoin="round" stroke-width="0.4"/><line x1="349.61" y1="0.24" x2="353.07" y2="0.24" fill="none" stroke="#003a50" stroke-linecap="round" stroke-linejoin="round" stroke-width="0.4"/><line x1="447.41" y1="45.65" x2="447.41" y2="91.06" fill="none" stroke="#003a50" stroke-linecap="round" stroke-linejoin="round" stroke-width="0.4"/><line x1="447.41" y1="91.06" x2="449.24" y2="84.25" fill="none" stroke="#003a50" stroke-linecap="round" stroke-linejoin="round" stroke-width="0.4"/><line x1="449.24" y1="84.25" x2="445.59" y2="84.25" fill="none" stroke="#003a50" stroke-linecap="round" stroke-linejoin="round" stroke-width="0.4"/><line x1="445.59" y1="84.25" x2="447.41" y2="91.06" fill="none" stroke="#003a50" stroke-linecap="round" stroke-linejoin="round" stroke-width="0.4"/><polygon points="445.59 84.25 447.42 91.06 449.24 84.25 445.59 84.25" fill="#003a50"/><line x1="450.87" y1="91.06" x2="446.05" y2="91.06" fill="none" stroke="#003a50" stroke-linecap="round" stroke-linejoin="round" stroke-width="0.4"/><line x1="447.41" y1="91.06" x2="450.87" y2="91.06" fill="none" stroke="#003a50" stroke-linecap="round" stroke-linejoin="round" stroke-width="0.4"/><line x1="447.41" y1="45.65" x2="445.59" y2="52.47" fill="none" stroke="#003a50" stroke-linecap="round" stroke-linejoin="round" stroke-width="0.4"/><line x1="445.59" y1="52.47" x2="449.24" y2="52.47" fill="none" stroke="#003a50" stroke-linecap="round" stroke-linejoin="round" stroke-width="0.4"/><line x1="449.24" y1="52.47" x2="447.42" y2="45.65" fill="none" stroke="#003a50" stroke-linecap="round" stroke-linejoin="round" stroke-width="0.4"/><polygon points="445.59 52.47 449.24 52.47 447.42 45.66 445.59 52.47" fill="#003a50"/><line x1="450.87" y1="45.65" x2="446.05" y2="45.65" fill="none" stroke="#003a50" stroke-linecap="round" stroke-linejoin="round" stroke-width="0.4"/><line x1="447.41" y1="45.65" x2="450.87" y2="45.65" fill="none" stroke="#003a50" stroke-linecap="round" stroke-linejoin="round" stroke-width="0.4"/><g clip-path="url(#clip-path)"><path d="M436.92,77.4h6.74v.69h-6.12v1.59h-.62Z" fill="#003a50"/><path d="M443.3,74.5a2.64,2.64,0,0,1-1.19,1,4.91,4.91,0,0,1-3.64,0,2.59,2.59,0,0,1-1.19-1,2.51,2.51,0,0,1,0-2.78,2.74,2.74,0,0,1,1.19-1,5,5,0,0,1,3.64,0,2.8,2.8,0,0,1,1.19,1,2.56,2.56,0,0,1,0,2.78Zm-.55-2.42a2.11,2.11,0,0,0-.95-.7,4.69,4.69,0,0,0-3,0,2.06,2.06,0,0,0-.95.7,1.69,1.69,0,0,0-.33,1,1.72,1.72,0,0,0,.33,1,2,2,0,0,0,.95.69,4.69,4.69,0,0,0,3,0,2.1,2.1,0,0,0,.95-.69,1.72,1.72,0,0,0,.33-1A1.69,1.69,0,0,0,442.75,72.08Z" fill="#003a50"/><path d="M443.3,68.13a2.73,2.73,0,0,1-1.19,1,5,5,0,0,1-3.64,0,2.67,2.67,0,0,1-1.19-1,2.51,2.51,0,0,1,0-2.78,2.82,2.82,0,0,1,1.19-1,5,5,0,0,1,3.64,0,2.88,2.88,0,0,1,1.19,1,2.56,2.56,0,0,1,0,2.78Zm-.55-2.42a2.11,2.11,0,0,0-.95-.7,4.69,4.69,0,0,0-3,0,2.06,2.06,0,0,0-.95.7,1.69,1.69,0,0,0-.33,1,1.72,1.72,0,0,0,.33,1,2,2,0,0,0,.95.69,4.69,4.69,0,0,0,3,0,2,2,0,0,0,.95-.69,1.72,1.72,0,0,0,.33-1A1.69,1.69,0,0,0,442.75,65.71Z" fill="#003a50"/><path d="M443.3,61.76a2.73,2.73,0,0,1-1.19,1,5,5,0,0,1-3.64,0,2.67,2.67,0,0,1-1.19-1,2.51,2.51,0,0,1,0-2.78,2.73,2.73,0,0,1,1.19-.95,4.91,4.91,0,0,1,3.64,0,2.78,2.78,0,0,1,1.19.95,2.56,2.56,0,0,1,0,2.78Zm-.55-2.42a2.11,2.11,0,0,0-.95-.7,4.69,4.69,0,0,0-3,0,2.06,2.06,0,0,0-.95.7,1.69,1.69,0,0,0-.33,1,1.72,1.72,0,0,0,.33,1,2,2,0,0,0,.95.69,4.51,4.51,0,0,0,3,0,2,2,0,0,0,.95-.69,1.72,1.72,0,0,0,.33-1A1.69,1.69,0,0,0,442.75,59.34Z" fill="#003a50"/></g><line x1="85.49" y1="27.72" x2="312.54" y2="27.72" fill="none" stroke="#003a50" stroke-linecap="round" stroke-linejoin="round" stroke-width="0.4"/><line x1="312.54" y1="27.72" x2="305.73" y2="25.89" fill="none" stroke="#003a50" stroke-linecap="round" stroke-linejoin="round" stroke-width="0.4"/><line x1="305.73" y1="25.89" x2="305.73" y2="29.54" fill="none" stroke="#003a50" stroke-linecap="round" stroke-linejoin="round" stroke-width="0.4"/><line x1="305.73" y1="29.54" x2="312.54" y2="27.72" fill="none" stroke="#003a50" stroke-linecap="round" stroke-linejoin="round" stroke-width="0.4"/><polygon points="305.73 29.54 312.54 27.72 305.73 25.89 305.73 29.54" fill="#003a50"/><line x1="312.54" y1="24.26" x2="312.54" y2="29.08" fill="none" stroke="#003a50" stroke-linecap="round" stroke-linejoin="round" stroke-width="0.4"/><line x1="312.54" y1="27.72" x2="312.54" y2="24.26" fill="none" stroke="#003a50" stroke-linecap="round" stroke-linejoin="round" stroke-width="0.4"/><line x1="85.49" y1="27.72" x2="92.3" y2="29.54" fill="none" stroke="#003a50" stroke-linecap="round" stroke-linejoin="round" stroke-width="0.4"/><line x1="92.3" y1="29.54" x2="92.3" y2="25.89" fill="none" stroke="#003a50" stroke-linecap="round" stroke-linejoin="round" stroke-width="0.4"/><line x1="92.3" y1="25.89" x2="85.49" y2="27.72" fill="none" stroke="#003a50" stroke-linecap="round" stroke-linejoin="round" stroke-width="0.4"/><polygon points="85.49 27.72 92.3 29.54 92.3 25.89 85.49 27.72" fill="#003a50"/><line x1="85.49" y1="28.85" x2="85.49" y2="26.35" fill="none" stroke="#003a50" stroke-linecap="round" stroke-linejoin="round" stroke-width="0.4"/><line x1="85.49" y1="27.72" x2="85.49" y2="28.85" fill="none" stroke="#003a50" stroke-linecap="round" stroke-linejoin="round" stroke-width="0.4"/><g clip-path="url(#clip-path)"><path d="M190.83,20.51A1.73,1.73,0,0,1,191.5,22a2.05,2.05,0,0,1-.27,1.05,1.92,1.92,0,0,1-.83.73,3.14,3.14,0,0,1-1.34.26,4.15,4.15,0,0,1-1.37-.23,2.91,2.91,0,0,1-1.05-.63l.34-.55a2.42,2.42,0,0,0,.88.56,3.11,3.11,0,0,0,1.19.22,2,2,0,0,0,1.29-.38,1.21,1.21,0,0,0,.46-1,1.19,1.19,0,0,0-.52-1.05,3.22,3.22,0,0,0-1.73-.35h-1.44l.35-3.38h3.69v.62h-3.08L187.84,20h.86A3.43,3.43,0,0,1,190.83,20.51Z" fill="#003a50"/><path d="M193.67,23.6a2.71,2.71,0,0,1-.95-1.19,4.45,4.45,0,0,1-.34-1.82,4.49,4.49,0,0,1,.34-1.83,2.68,2.68,0,0,1,.95-1.18,2.51,2.51,0,0,1,2.78,0,2.7,2.7,0,0,1,1,1.18,4.49,4.49,0,0,1,.34,1.83,4.45,4.45,0,0,1-.34,1.82,2.73,2.73,0,0,1-1,1.19,2.56,2.56,0,0,1-2.78,0Zm2.43-.55a2.1,2.1,0,0,0,.69-.95,4,4,0,0,0,.25-1.51,4,4,0,0,0-.25-1.51,2,2,0,0,0-.69-.95,1.72,1.72,0,0,0-1-.33,1.69,1.69,0,0,0-1,.33,2.06,2.06,0,0,0-.7.95,4,4,0,0,0-.25,1.51,4,4,0,0,0,.25,1.51,2.11,2.11,0,0,0,.7.95,1.69,1.69,0,0,0,1,.33A1.72,1.72,0,0,0,196.1,23.05Z" fill="#003a50"/><path d="M200,23.6a2.64,2.64,0,0,1-.95-1.19,4.45,4.45,0,0,1-.34-1.82,4.49,4.49,0,0,1,.34-1.83,2.62,2.62,0,0,1,.95-1.18,2.51,2.51,0,0,1,2.78,0,2.7,2.7,0,0,1,1,1.18,4.49,4.49,0,0,1,.34,1.83,4.45,4.45,0,0,1-.34,1.82,2.73,2.73,0,0,1-1,1.19,2.56,2.56,0,0,1-2.78,0Zm2.42-.55a2.11,2.11,0,0,0,.7-.95,4,4,0,0,0,.25-1.51,4,4,0,0,0-.25-1.51,2.06,2.06,0,0,0-.7-.95,1.77,1.77,0,0,0-2.06,0,2,2,0,0,0-.7.95,4,4,0,0,0-.25,1.51,4,4,0,0,0,.25,1.51,2,2,0,0,0,.7.95,1.77,1.77,0,0,0,2.06,0Z" fill="#003a50"/><path d="M206.41,23.6a2.64,2.64,0,0,1-.95-1.19,4.44,4.44,0,0,1-.35-1.82,4.49,4.49,0,0,1,.35-1.83,2.62,2.62,0,0,1,.95-1.18,2.51,2.51,0,0,1,2.78,0,2.7,2.7,0,0,1,1,1.18,4.49,4.49,0,0,1,.34,1.83,4.45,4.45,0,0,1-.34,1.82,2.73,2.73,0,0,1-1,1.19,2.56,2.56,0,0,1-2.78,0Zm2.42-.55a2.11,2.11,0,0,0,.7-.95,4,4,0,0,0,.25-1.51,4,4,0,0,0-.25-1.51,2.06,2.06,0,0,0-.7-.95,1.69,1.69,0,0,0-1-.33,1.72,1.72,0,0,0-1,.33,2,2,0,0,0-.69.95,4,4,0,0,0-.25,1.51,4,4,0,0,0,.25,1.51,2.1,2.1,0,0,0,.69.95,1.72,1.72,0,0,0,1,.33A1.69,1.69,0,0,0,208.83,23.05Z" fill="#003a50"/></g><line x1="317.08" y1="27.72" x2="419.25" y2="27.72" fill="none" stroke="#003a50" stroke-linecap="round" stroke-linejoin="round" stroke-width="0.4"/><line x1="419.25" y1="27.72" x2="412.44" y2="25.89" fill="none" stroke="#003a50" stroke-linecap="round" stroke-linejoin="round" stroke-width="0.4"/><line x1="412.44" y1="25.89" x2="412.44" y2="29.54" fill="none" stroke="#003a50" stroke-linecap="round" stroke-linejoin="round" stroke-width="0.4"/><line x1="412.44" y1="29.54" x2="419.25" y2="27.72" fill="none" stroke="#003a50" stroke-linecap="round" stroke-linejoin="round" stroke-width="0.4"/><polygon points="412.44 29.54 419.25 27.72 412.44 25.89 412.44 29.54" fill="#003a50"/><line x1="419.25" y1="24.26" x2="419.25" y2="29.08" fill="none" stroke="#003a50" stroke-linecap="round" stroke-linejoin="round" stroke-width="0.4"/><line x1="419.25" y1="27.72" x2="419.25" y2="24.26" fill="none" stroke="#003a50" stroke-linecap="round" stroke-linejoin="round" stroke-width="0.4"/><line x1="317.08" y1="27.72" x2="323.89" y2="29.54" fill="none" stroke="#003a50" stroke-linecap="round" stroke-linejoin="round" stroke-width="0.4"/><line x1="323.89" y1="29.54" x2="323.89" y2="25.89" fill="none" stroke="#003a50" stroke-linecap="round" stroke-linejoin="round" stroke-width="0.4"/><line x1="323.89" y1="25.89" x2="317.08" y2="27.72" fill="none" stroke="#003a50" stroke-linecap="round" stroke-linejoin="round" stroke-width="0.4"/><polygon points="317.08 27.72 323.89 29.54 323.89 25.89 317.08 27.72" fill="#003a50"/><line x1="317.08" y1="24.26" x2="317.08" y2="29.08" fill="none" stroke="#003a50" stroke-linecap="round" stroke-linejoin="round" stroke-width="0.4"/><line x1="317.08" y1="27.72" x2="317.08" y2="24.26" fill="none" stroke="#003a50" stroke-linecap="round" stroke-linejoin="round" stroke-width="0.4"/><g clip-path="url(#clip-path)"><path d="M361.66,23.34V24h-4.73v-.5l2.8-2.74a3.6,3.6,0,0,0,.72-.9,1.78,1.78,0,0,0,.19-.76,1.14,1.14,0,0,0-.41-.93,1.85,1.85,0,0,0-1.17-.33,2.32,2.32,0,0,0-1.84.75l-.49-.42a2.59,2.59,0,0,1,1-.72,3.69,3.69,0,0,1,1.38-.25,2.5,2.5,0,0,1,1.63.49,1.62,1.62,0,0,1,.6,1.33,2.32,2.32,0,0,1-.23,1,4.43,4.43,0,0,1-.88,1.11L358,23.34Z" fill="#003a50"/><path d="M367.12,23.34V24H362.4v-.5l2.8-2.74a3.31,3.31,0,0,0,.71-.9,1.64,1.64,0,0,0,.19-.76,1.14,1.14,0,0,0-.41-.93,1.81,1.81,0,0,0-1.17-.33,2.28,2.28,0,0,0-1.83.75l-.5-.42a2.66,2.66,0,0,1,1-.72,3.77,3.77,0,0,1,1.38-.25,2.48,2.48,0,0,1,1.63.49,1.62,1.62,0,0,1,.6,1.33,2.19,2.19,0,0,1-.23,1,4.13,4.13,0,0,1-.87,1.11l-2.29,2.25Z" fill="#003a50"/><path d="M371.89,20.51a1.76,1.76,0,0,1,.67,1.46,2.06,2.06,0,0,1-.28,1.05,1.89,1.89,0,0,1-.82.73,3.22,3.22,0,0,1-1.35.26,4.15,4.15,0,0,1-1.37-.23,2.86,2.86,0,0,1-1-.63l.33-.55a2.47,2.47,0,0,0,.89.56,3.06,3.06,0,0,0,1.18.22,2,2,0,0,0,1.3-.38,1.23,1.23,0,0,0,.45-1,1.2,1.2,0,0,0-.51-1.05,3.24,3.24,0,0,0-1.74-.35h-1.43l.34-3.38h3.69v.62h-3.08L368.89,20h.87A3.47,3.47,0,0,1,371.89,20.51Z" fill="#003a50"/><path d="M374.72,23.6a2.78,2.78,0,0,1-1-1.19,4.45,4.45,0,0,1-.34-1.82,4.49,4.49,0,0,1,.34-1.83,2.75,2.75,0,0,1,1-1.18,2.43,2.43,0,0,1,1.4-.42,2.37,2.37,0,0,1,1.38.42,2.7,2.7,0,0,1,1,1.18,4.49,4.49,0,0,1,.35,1.83,4.44,4.44,0,0,1-.35,1.82,2.73,2.73,0,0,1-1,1.19,2.36,2.36,0,0,1-1.38.41A2.42,2.42,0,0,1,374.72,23.6Zm2.43-.55a2.11,2.11,0,0,0,.7-.95,4.69,4.69,0,0,0,0-3,2.06,2.06,0,0,0-.7-.95,1.79,1.79,0,0,0-2.07,0,2.06,2.06,0,0,0-.7.95,4.69,4.69,0,0,0,0,3,2.11,2.11,0,0,0,.7.95,1.79,1.79,0,0,0,2.07,0Z" fill="#003a50"/></g><line x1="333.39" y1="95.6" x2="333.39" y2="13.86" fill="none" stroke="#003a50" stroke-linecap="round" stroke-linejoin="round" stroke-width="0.4"/><line x1="333.39" y1="13.87" x2="331.57" y2="20.68" fill="none" stroke="#003a50" stroke-linecap="round" stroke-linejoin="round" stroke-width="0.4"/><line x1="331.57" y1="20.68" x2="335.22" y2="20.68" fill="none" stroke="#003a50" stroke-linecap="round" stroke-linejoin="round" stroke-width="0.4"/><line x1="335.22" y1="20.68" x2="333.39" y2="13.87" fill="none" stroke="#003a50" stroke-linecap="round" stroke-linejoin="round" stroke-width="0.4"/><polygon points="331.57 20.68 335.22 20.68 333.39 13.87 331.57 20.68" fill="#003a50"/><line x1="329.94" y1="13.87" x2="334.75" y2="13.87" fill="none" stroke="#003a50" stroke-linecap="round" stroke-linejoin="round" stroke-width="0.4"/><line x1="333.39" y1="13.87" x2="329.94" y2="13.87" fill="none" stroke="#003a50" stroke-linecap="round" stroke-linejoin="round" stroke-width="0.4"/><line x1="333.39" y1="95.6" x2="335.22" y2="88.79" fill="none" stroke="#003a50" stroke-linecap="round" stroke-linejoin="round" stroke-width="0.4"/><line x1="335.22" y1="88.79" x2="331.57" y2="88.79" fill="none" stroke="#003a50" stroke-linecap="round" stroke-linejoin="round" stroke-width="0.4"/><line x1="331.57" y1="88.79" x2="333.39" y2="95.61" fill="none" stroke="#003a50" stroke-linecap="round" stroke-linejoin="round" stroke-width="0.4"/><polygon points="331.57 88.79 333.39 95.61 335.22 88.79 331.57 88.79" fill="#003a50"/><line x1="329.94" y1="95.6" x2="334.75" y2="95.6" fill="none" stroke="#003a50" stroke-linecap="round" stroke-linejoin="round" stroke-width="0.4"/><line x1="333.39" y1="95.6" x2="329.94" y2="95.6" fill="none" stroke="#003a50" stroke-linecap="round" stroke-linejoin="round" stroke-width="0.4"/><g clip-path="url(#clip-path)"><path d="M322.9,63.72h6.73v.69h-6.11V66h-.62Z" fill="#003a50"/><path d="M326.74,57.28a1.55,1.55,0,0,1,1-.34,1.7,1.7,0,0,1,1,.32,2,2,0,0,1,.68.91,3.85,3.85,0,0,1,.23,1.39,3.08,3.08,0,0,1-.52,1.9,1.67,1.67,0,0,1-1.41.69,1.61,1.61,0,0,1-1-.33,2,2,0,0,1-.63-1,1.66,1.66,0,0,1-.58.79,1.5,1.5,0,0,1-.9.27,1.54,1.54,0,0,1-1.3-.64,2.78,2.78,0,0,1-.48-1.71,3.21,3.21,0,0,1,.22-1.25,1.82,1.82,0,0,1,.62-.83,1.53,1.53,0,0,1,.94-.3,1.44,1.44,0,0,1,.9.28,1.69,1.69,0,0,1,.58.8A2.05,2.05,0,0,1,326.74,57.28Zm-1.21,3.5a2.08,2.08,0,0,0,.32-1.22,2.11,2.11,0,0,0-.32-1.23,1,1,0,0,0-.88-.45,1,1,0,0,0-.89.46,2,2,0,0,0-.33,1.22,2,2,0,0,0,.33,1.21,1,1,0,0,0,.88.45A1.07,1.07,0,0,0,325.53,60.78Zm3.21-2.62a1.22,1.22,0,0,0-2,0,2.88,2.88,0,0,0,0,2.79,1.23,1.23,0,0,0,2,0,2.88,2.88,0,0,0,0-2.79Z" fill="#003a50"/><path d="M329.28,54.68a2.64,2.64,0,0,1-1.19,1,4.44,4.44,0,0,1-1.82.35,4.49,4.49,0,0,1-1.83-.35,2.62,2.62,0,0,1-1.18-1,2.51,2.51,0,0,1,0-2.78,2.85,2.85,0,0,1,1.18-1,4.49,4.49,0,0,1,1.83-.34,4.45,4.45,0,0,1,1.82.34,2.88,2.88,0,0,1,1.19,1,2.56,2.56,0,0,1,0,2.78Zm-.55-2.42a2.17,2.17,0,0,0-1-.7,4.69,4.69,0,0,0-3,0,2.15,2.15,0,0,0-1,.7,1.75,1.75,0,0,0-.32,1,1.78,1.78,0,0,0,.32,1,2.06,2.06,0,0,0,1,.69,4.69,4.69,0,0,0,3,0,2.08,2.08,0,0,0,1-.69,1.72,1.72,0,0,0,.33-1A1.69,1.69,0,0,0,328.73,52.26Z" fill="#003a50"/><path d="M329.28,48.31a2.73,2.73,0,0,1-1.19,1,4.62,4.62,0,0,1-1.82.34,4.67,4.67,0,0,1-1.83-.34,2.7,2.7,0,0,1-1.18-1,2.51,2.51,0,0,1,0-2.78,2.75,2.75,0,0,1,1.18-1,4.49,4.49,0,0,1,1.83-.35,4.44,4.44,0,0,1,1.82.35,2.78,2.78,0,0,1,1.19,1,2.56,2.56,0,0,1,0,2.78Zm-.55-2.42a2.17,2.17,0,0,0-1-.7,4.69,4.69,0,0,0-3,0,2.15,2.15,0,0,0-1,.7,1.83,1.83,0,0,0,0,2.07,2.15,2.15,0,0,0,1,.7,4.69,4.69,0,0,0,3,0,2.17,2.17,0,0,0,1-.7,1.79,1.79,0,0,0,0-2.07Z" fill="#003a50"/></g><line x1="347.73" y1="112.99" x2="381.79" y2="112.99" fill="none" stroke="#003a50" stroke-linecap="round" stroke-linejoin="round" stroke-width="0.4"/><line x1="381.79" y1="112.99" x2="374.98" y2="111.17" fill="none" stroke="#003a50" stroke-linecap="round" stroke-linejoin="round" stroke-width="0.4"/><line x1="374.98" y1="111.17" x2="374.98" y2="114.82" fill="none" stroke="#003a50" stroke-linecap="round" stroke-linejoin="round" stroke-width="0.4"/><line x1="374.98" y1="114.82" x2="381.79" y2="112.99" fill="none" stroke="#003a50" stroke-linecap="round" stroke-linejoin="round" stroke-width="0.4"/><polygon points="374.98 114.82 381.79 113 374.98 111.17 374.98 114.82" fill="#003a50"/><line x1="381.79" y1="109.54" x2="381.79" y2="114.36" fill="none" stroke="#003a50" stroke-linecap="round" stroke-linejoin="round" stroke-width="0.4"/><line x1="381.79" y1="112.99" x2="381.79" y2="109.54" fill="none" stroke="#003a50" stroke-linecap="round" stroke-linejoin="round" stroke-width="0.4"/><line x1="347.73" y1="112.99" x2="354.54" y2="114.82" fill="none" stroke="#003a50" stroke-linecap="round" stroke-linejoin="round" stroke-width="0.4"/><line x1="354.54" y1="114.82" x2="354.54" y2="111.17" fill="none" stroke="#003a50" stroke-linecap="round" stroke-linejoin="round" stroke-width="0.4"/><line x1="354.54" y1="111.17" x2="347.73" y2="112.99" fill="none" stroke="#003a50" stroke-linecap="round" stroke-linejoin="round" stroke-width="0.4"/><polygon points="347.73 112.99 354.54 114.82 354.54 111.17 347.73 112.99" fill="#003a50"/><line x1="347.73" y1="109.54" x2="347.73" y2="114.36" fill="none" stroke="#003a50" stroke-linecap="round" stroke-linejoin="round" stroke-width="0.4"/><line x1="347.73" y1="112.99" x2="347.73" y2="109.54" fill="none" stroke="#003a50" stroke-linecap="round" stroke-linejoin="round" stroke-width="0.4"/><g clip-path="url(#clip-path)"><path d="M360.88,102.5V103l-2.81,6.24h-.75l2.77-6.12h-3.47v1.26h-.68V102.5Z" fill="#003a50"/><path d="M365.53,105.78a1.78,1.78,0,0,1,.67,1.47,2.06,2.06,0,0,1-.28,1,1.89,1.89,0,0,1-.82.73,3.22,3.22,0,0,1-1.35.26,3.91,3.91,0,0,1-1.37-.24,2.61,2.61,0,0,1-1-.63l.33-.54a2.61,2.61,0,0,0,.89.56,3.26,3.26,0,0,0,1.18.22,2,2,0,0,0,1.3-.38,1.23,1.23,0,0,0,.45-1,1.2,1.2,0,0,0-.51-1,3.17,3.17,0,0,0-1.74-.35h-1.43l.34-3.38h3.69v.61h-3.08l-.23,2.15h.87A3.48,3.48,0,0,1,365.53,105.78Z" fill="#003a50"/><path d="M368.36,108.88a2.84,2.84,0,0,1-.95-1.19,5.07,5.07,0,0,1,0-3.65,2.84,2.84,0,0,1,.95-1.19,2.49,2.49,0,0,1,1.39-.41,2.44,2.44,0,0,1,1.39.41,2.79,2.79,0,0,1,1,1.19,4.93,4.93,0,0,1,0,3.65,2.79,2.79,0,0,1-1,1.19,2.44,2.44,0,0,1-1.39.41A2.49,2.49,0,0,1,368.36,108.88Zm2.43-.55a2.17,2.17,0,0,0,.7-1,4.72,4.72,0,0,0,0-3,2.17,2.17,0,0,0-.7-.95,1.83,1.83,0,0,0-2.07,0,2.17,2.17,0,0,0-.7.95,4.72,4.72,0,0,0,0,3,2.17,2.17,0,0,0,.7,1,1.79,1.79,0,0,0,2.07,0Z" fill="#003a50"/></g><line x1="333.39" y1="209.13" x2="333.39" y2="100.15" fill="none" stroke="#003a50" stroke-linecap="round" stroke-linejoin="round" stroke-width="0.4"/><line x1="333.39" y1="100.15" x2="331.57" y2="106.96" fill="none" stroke="#003a50" stroke-linecap="round" stroke-linejoin="round" stroke-width="0.4"/><line x1="331.57" y1="106.96" x2="335.22" y2="106.96" fill="none" stroke="#003a50" stroke-linecap="round" stroke-linejoin="round" stroke-width="0.4"/><line x1="335.22" y1="106.96" x2="333.39" y2="100.15" fill="none" stroke="#003a50" stroke-linecap="round" stroke-linejoin="round" stroke-width="0.4"/><polygon points="331.57 106.96 335.22 106.96 333.39 100.14 331.57 106.96" fill="#003a50"/><line x1="329.94" y1="100.15" x2="334.75" y2="100.15" fill="none" stroke="#003a50" stroke-linecap="round" stroke-linejoin="round" stroke-width="0.4"/><line x1="333.39" y1="100.15" x2="329.94" y2="100.15" fill="none" stroke="#003a50" stroke-linecap="round" stroke-linejoin="round" stroke-width="0.4"/><line x1="333.39" y1="209.13" x2="335.22" y2="202.32" fill="none" stroke="#003a50" stroke-linecap="round" stroke-linejoin="round" stroke-width="0.4"/><line x1="335.22" y1="202.32" x2="331.57" y2="202.32" fill="none" stroke="#003a50" stroke-linecap="round" stroke-linejoin="round" stroke-width="0.4"/><line x1="331.57" y1="202.32" x2="333.39" y2="209.13" fill="none" stroke="#003a50" stroke-linecap="round" stroke-linejoin="round" stroke-width="0.4"/><polygon points="331.57 202.32 333.39 209.13 335.22 202.32 331.57 202.32" fill="#003a50"/><line x1="329.94" y1="209.13" x2="334.75" y2="209.13" fill="none" stroke="#003a50" stroke-linecap="round" stroke-linejoin="round" stroke-width="0.4"/><line x1="333.39" y1="209.13" x2="329.94" y2="209.13" fill="none" stroke="#003a50" stroke-linecap="round" stroke-linejoin="round" stroke-width="0.4"/><g clip-path="url(#clip-path)"><path d="M329,162.08h.61v4.72h-.49L326.4,164a3.64,3.64,0,0,0-.9-.71,1.64,1.64,0,0,0-.76-.19,1.14,1.14,0,0,0-.93.41,1.81,1.81,0,0,0-.33,1.17,2.32,2.32,0,0,0,.75,1.84l-.43.49a2.75,2.75,0,0,1-.71-1,3.57,3.57,0,0,1-.25-1.38,2.48,2.48,0,0,1,.49-1.63,1.62,1.62,0,0,1,1.33-.6,2.32,2.32,0,0,1,1,.23,4.21,4.21,0,0,1,1.11.88l2.25,2.29Z" fill="#003a50"/><path d="M327.86,155.7v1.35h1.77v.69h-1.77v3.8h-.5L322.9,158v-.77l4.35,3.45v-2.93h-1.56v-.67h1.56V155.7Z" fill="#003a50"/><path d="M329.28,153.77a2.73,2.73,0,0,1-1.19,1,4.62,4.62,0,0,1-1.82.34,4.67,4.67,0,0,1-1.83-.34,2.79,2.79,0,0,1-1.19-1,2.56,2.56,0,0,1,0-2.78,2.84,2.84,0,0,1,1.19-1,4.33,4.33,0,0,1,1.83-.35,4.28,4.28,0,0,1,1.82.35,2.78,2.78,0,0,1,1.19,1,2.56,2.56,0,0,1,0,2.78Zm-.55-2.42a2.17,2.17,0,0,0-1-.7,4.69,4.69,0,0,0-3,0,2.15,2.15,0,0,0-1,.7,1.75,1.75,0,0,0-.32,1,1.78,1.78,0,0,0,.32,1,2.06,2.06,0,0,0,1,.69,4.51,4.51,0,0,0,3,0,2.08,2.08,0,0,0,1-.69,1.72,1.72,0,0,0,.33-1A1.69,1.69,0,0,0,328.73,151.35Z" fill="#003a50"/><path d="M329.28,147.4a2.73,2.73,0,0,1-1.19,1,4.62,4.62,0,0,1-1.82.34,4.67,4.67,0,0,1-1.83-.34,2.79,2.79,0,0,1-1.19-1,2.56,2.56,0,0,1,0-2.78,2.84,2.84,0,0,1,1.19-1,4.49,4.49,0,0,1,1.83-.35,4.44,4.44,0,0,1,1.82.35,2.78,2.78,0,0,1,1.19,1,2.56,2.56,0,0,1,0,2.78Zm-.55-2.42a2.17,2.17,0,0,0-1-.7,4.69,4.69,0,0,0-3,0,2.15,2.15,0,0,0-1,.7,1.83,1.83,0,0,0,0,2.07,2.15,2.15,0,0,0,1,.7,4.69,4.69,0,0,0,3,0,2.17,2.17,0,0,0,1-.7,1.79,1.79,0,0,0,0-2.07Z" fill="#003a50"/></g><line x1="314.81" y1="198.77" x2="398.82" y2="198.77" fill="none" stroke="#003a50" stroke-linecap="round" stroke-linejoin="round" stroke-width="0.4"/><line x1="398.82" y1="198.77" x2="392.01" y2="196.95" fill="none" stroke="#003a50" stroke-linecap="round" stroke-linejoin="round" stroke-width="0.4"/><line x1="392.01" y1="196.95" x2="392.01" y2="200.6" fill="none" stroke="#003a50" stroke-linecap="round" stroke-linejoin="round" stroke-width="0.4"/><line x1="392.01" y1="200.6" x2="398.82" y2="198.78" fill="none" stroke="#003a50" stroke-linecap="round" stroke-linejoin="round" stroke-width="0.4"/><polygon points="392.01 200.6 398.82 198.78 392.01 196.95 392.01 200.6" fill="#003a50"/><line x1="398.82" y1="195.32" x2="398.82" y2="200.14" fill="none" stroke="#003a50" stroke-linecap="round" stroke-linejoin="round" stroke-width="0.4"/><line x1="398.82" y1="198.77" x2="398.82" y2="195.32" fill="none" stroke="#003a50" stroke-linecap="round" stroke-linejoin="round" stroke-width="0.4"/><line x1="314.81" y1="198.77" x2="321.62" y2="200.6" fill="none" stroke="#003a50" stroke-linecap="round" stroke-linejoin="round" stroke-width="0.4"/><line x1="321.62" y1="200.6" x2="321.62" y2="196.95" fill="none" stroke="#003a50" stroke-linecap="round" stroke-linejoin="round" stroke-width="0.4"/><line x1="321.62" y1="196.95" x2="314.81" y2="198.77" fill="none" stroke="#003a50" stroke-linecap="round" stroke-linejoin="round" stroke-width="0.4"/><polygon points="314.81 198.77 321.62 200.6 321.62 196.95 314.81 198.77" fill="#003a50"/><line x1="314.81" y1="195.32" x2="314.81" y2="200.14" fill="none" stroke="#003a50" stroke-linecap="round" stroke-linejoin="round" stroke-width="0.4"/><line x1="314.81" y1="198.77" x2="314.81" y2="195.32" fill="none" stroke="#003a50" stroke-linecap="round" stroke-linejoin="round" stroke-width="0.4"/><g clip-path="url(#clip-path)"><path d="M348.3,188.28V195h-.7v-6.12H346v-.61Z" fill="#003a50"/><path d="M354.74,192.12a1.55,1.55,0,0,1,.34,1,1.7,1.7,0,0,1-.32,1,2,2,0,0,1-.91.68,3.85,3.85,0,0,1-1.39.23,3.06,3.06,0,0,1-1.9-.52,1.67,1.67,0,0,1-.69-1.41,1.61,1.61,0,0,1,.33-1,2,2,0,0,1,1-.63,1.63,1.63,0,0,1-.78-.58,1.5,1.5,0,0,1-.27-.9,1.54,1.54,0,0,1,.64-1.3,2.76,2.76,0,0,1,1.71-.48,3.21,3.21,0,0,1,1.25.22,1.88,1.88,0,0,1,.83.62,1.53,1.53,0,0,1,.3.94,1.44,1.44,0,0,1-.28.9,1.74,1.74,0,0,1-.8.58A2.1,2.1,0,0,1,354.74,192.12Zm-.88,2a1.22,1.22,0,0,0,0-2,2.88,2.88,0,0,0-2.79,0,1.16,1.16,0,0,0-.5,1,1.14,1.14,0,0,0,.5,1,2.88,2.88,0,0,0,2.79,0Zm-2.62-3.21a2.08,2.08,0,0,0,1.22.32,2.11,2.11,0,0,0,1.23-.32,1.09,1.09,0,0,0,0-1.77,2,2,0,0,0-1.22-.33,2,2,0,0,0-1.21.33,1,1,0,0,0-.45.88A1.07,1.07,0,0,0,351.24,190.91Z" fill="#003a50"/><path d="M359.94,191.56a1.75,1.75,0,0,1,.67,1.47,2.05,2.05,0,0,1-.27,1.05,1.89,1.89,0,0,1-.82.73,3.22,3.22,0,0,1-1.35.26,4.15,4.15,0,0,1-1.37-.23,2.91,2.91,0,0,1-1.05-.63l.34-.55a2.38,2.38,0,0,0,.89.56,3.26,3.26,0,0,0,1.18.22,2,2,0,0,0,1.29-.38,1.33,1.33,0,0,0-.05-2.05,3.19,3.19,0,0,0-1.74-.35h-1.44l.35-3.38h3.69v.61h-3.08L357,191h.86A3.44,3.44,0,0,1,359.94,191.56Z" fill="#003a50"/><path d="M362.78,194.66a2.71,2.71,0,0,1-.95-1.19,4.45,4.45,0,0,1-.34-1.82,4.49,4.49,0,0,1,.34-1.83,2.77,2.77,0,0,1,.95-1.19,2.56,2.56,0,0,1,2.78,0,2.79,2.79,0,0,1,1,1.19,4.49,4.49,0,0,1,.35,1.83,4.44,4.44,0,0,1-.35,1.82,2.73,2.73,0,0,1-1,1.19,2.56,2.56,0,0,1-2.78,0Zm2.43-.55a2.15,2.15,0,0,0,.69-1,4.69,4.69,0,0,0,0-3,2.13,2.13,0,0,0-.69-1,1.78,1.78,0,0,0-1-.32,1.75,1.75,0,0,0-1,.32,2.15,2.15,0,0,0-.7,1,4.69,4.69,0,0,0,0,3,2.17,2.17,0,0,0,.7,1,1.69,1.69,0,0,0,1,.33A1.72,1.72,0,0,0,365.21,194.11Z" fill="#003a50"/><line x1="388.93" y1="222.75" x2="388.93" y2="299.95" fill="none" stroke="#003a50" stroke-linecap="round" stroke-linejoin="round" stroke-width="0.4"/><line x1="388.93" y1="222.75" x2="387.1" y2="229.57" fill="none" stroke="#003a50" stroke-linecap="round" stroke-linejoin="round" stroke-width="0.4"/><line x1="390.75" y1="229.56" x2="388.93" y2="222.75" fill="none" stroke="#003a50" stroke-linecap="round" stroke-linejoin="round" stroke-width="0.4"/></g><polygon points="388.86 223.02 389 223.02 388.93 222.75 388.86 223.02" fill="#003a50"/><g clip-path="url(#clip-path)"><line x1="392.38" y1="222.75" x2="387.56" y2="222.75" fill="none" stroke="#003a50" stroke-linecap="round" stroke-linejoin="round" stroke-width="0.4"/><line x1="388.93" y1="222.75" x2="392.38" y2="222.75" fill="none" stroke="#003a50" stroke-linecap="round" stroke-linejoin="round" stroke-width="0.4"/><line x1="80.95" y1="180.22" x2="301.19" y2="180.22" fill="none" stroke="#003a50" stroke-linecap="round" stroke-linejoin="round" stroke-width="0.4"/><line x1="301.19" y1="180.22" x2="294.38" y2="178.39" fill="none" stroke="#003a50" stroke-linecap="round" stroke-linejoin="round" stroke-width="0.4"/><line x1="294.38" y1="182.04" x2="301.19" y2="180.22" fill="none" stroke="#003a50" stroke-linecap="round" stroke-linejoin="round" stroke-width="0.4"/><polygon points="294.38 182.04 301.19 180.22 294.38 178.39 294.38 182.04" fill="#003a50"/><line x1="301.19" y1="176.76" x2="301.19" y2="181.58" fill="none" stroke="#003a50" stroke-linecap="round" stroke-linejoin="round" stroke-width="0.4"/><line x1="301.19" y1="180.22" x2="301.19" y2="176.76" fill="none" stroke="#003a50" stroke-linecap="round" stroke-linejoin="round" stroke-width="0.4"/><path d="M184.61,174.69h-1.35v1.77h-.69v-1.77h-3.8v-.5l3.57-4.47h.77l-3.44,4.35h2.92v-1.56h.67v1.56h1.35Z" fill="#003a50"/><path d="M190.18,173.56a1.61,1.61,0,0,1,.34,1,1.75,1.75,0,0,1-.32,1,2,2,0,0,1-.91.67,3.68,3.68,0,0,1-1.39.23A3.13,3.13,0,0,1,186,176a1.67,1.67,0,0,1-.7-1.42,1.55,1.55,0,0,1,.34-1,2,2,0,0,1,1-.63,1.72,1.72,0,0,1-.79-.59,1.5,1.5,0,0,1-.27-.9,1.55,1.55,0,0,1,.64-1.29,2.81,2.81,0,0,1,1.72-.48,3.41,3.41,0,0,1,1.25.21,2,2,0,0,1,.83.62,1.55,1.55,0,0,1,.3.94,1.51,1.51,0,0,1-.28.9,1.75,1.75,0,0,1-.8.59A2.09,2.09,0,0,1,190.18,173.56Zm-.88,2a1.15,1.15,0,0,0,.51-1,1.13,1.13,0,0,0-.51-1,2.81,2.81,0,0,0-2.79,0,1.12,1.12,0,0,0-.5,1,1.14,1.14,0,0,0,.5,1,2.85,2.85,0,0,0,2.79,0Zm-2.62-3.21a2,2,0,0,0,1.22.33,2,2,0,0,0,1.23-.33,1,1,0,0,0,.45-.88,1,1,0,0,0-.46-.89,2,2,0,0,0-1.22-.33,2,2,0,0,0-1.22.33,1,1,0,0,0-.44.88A1,1,0,0,0,186.68,172.35Z" fill="#003a50"/><path d="M195.38,173a1.75,1.75,0,0,1,.67,1.47,2,2,0,0,1-.27,1,1.92,1.92,0,0,1-.83.73,3,3,0,0,1-1.34.26,4,4,0,0,1-1.38-.23,2.86,2.86,0,0,1-1-.63l.34-.55a2.42,2.42,0,0,0,.88.56,3.11,3.11,0,0,0,1.19.22,2,2,0,0,0,1.29-.38,1.24,1.24,0,0,0,.46-1,1.16,1.16,0,0,0-.52-1,3.12,3.12,0,0,0-1.73-.36h-1.44l.35-3.38h3.68v.62h-3.07l-.24,2.14h.87A3.43,3.43,0,0,1,195.38,173Z" fill="#003a50"/><path d="M198.22,176.1a2.59,2.59,0,0,1-.95-1.19,5,5,0,0,1,0-3.64,2.59,2.59,0,0,1,.95-1.19,2.56,2.56,0,0,1,2.78,0,2.67,2.67,0,0,1,1,1.19,5,5,0,0,1,0,3.64,2.67,2.67,0,0,1-1,1.19,2.56,2.56,0,0,1-2.78,0Zm2.42-.55a2.06,2.06,0,0,0,.7-1,4.69,4.69,0,0,0,0-3,2.06,2.06,0,0,0-.7-1,1.77,1.77,0,0,0-2.06,0,2,2,0,0,0-.7,1,4.69,4.69,0,0,0,0,3,2,2,0,0,0,.7,1,1.77,1.77,0,0,0,2.06,0Z" fill="#003a50"/></g><line x1="299.34" y1="95.6" x2="299.34" y2="150.1" fill="none" stroke="#003a50" stroke-linecap="round" stroke-linejoin="round" stroke-width="0.4"/><line x1="299.34" y1="150.1" x2="301.16" y2="143.28" fill="none" stroke="#003a50" stroke-linecap="round" stroke-linejoin="round" stroke-width="0.4"/><line x1="301.16" y1="143.29" x2="297.51" y2="143.29" fill="none" stroke="#003a50" stroke-linecap="round" stroke-linejoin="round" stroke-width="0.4"/><line x1="297.51" y1="143.29" x2="299.33" y2="150.1" fill="none" stroke="#003a50" stroke-linecap="round" stroke-linejoin="round" stroke-width="0.4"/><polygon points="297.51 143.29 299.33 150.1 301.16 143.29 297.51 143.29" fill="#003a50"/><line x1="302.79" y1="150.1" x2="297.97" y2="150.1" fill="none" stroke="#003a50" stroke-linecap="round" stroke-linejoin="round" stroke-width="0.4"/><line x1="299.34" y1="150.1" x2="302.79" y2="150.1" fill="none" stroke="#003a50" stroke-linecap="round" stroke-linejoin="round" stroke-width="0.4"/><line x1="299.34" y1="95.6" x2="297.51" y2="102.42" fill="none" stroke="#003a50" stroke-linecap="round" stroke-linejoin="round" stroke-width="0.4"/><line x1="297.51" y1="102.42" x2="301.16" y2="102.42" fill="none" stroke="#003a50" stroke-linecap="round" stroke-linejoin="round" stroke-width="0.4"/><line x1="301.16" y1="102.42" x2="299.34" y2="95.6" fill="none" stroke="#003a50" stroke-linecap="round" stroke-linejoin="round" stroke-width="0.4"/><polygon points="297.51 102.42 301.16 102.42 299.33 95.61 297.51 102.42" fill="#003a50"/><line x1="302.79" y1="95.6" x2="297.97" y2="95.6" fill="none" stroke="#003a50" stroke-linecap="round" stroke-linejoin="round" stroke-width="0.4"/><line x1="299.34" y1="95.6" x2="302.79" y2="95.6" fill="none" stroke="#003a50" stroke-linecap="round" stroke-linejoin="round" stroke-width="0.4"/><g clip-path="url(#clip-path)"><path d="M288.84,131.44h6.74v.69h-6.12v1.59h-.62Z" fill="#003a50"/><path d="M295,125.23h.62V130h-.5l-2.74-2.8a3.19,3.19,0,0,0-.9-.72,1.64,1.64,0,0,0-.76-.19,1.14,1.14,0,0,0-.93.41,1.81,1.81,0,0,0-.33,1.17,2.32,2.32,0,0,0,.75,1.84l-.42.49a2.66,2.66,0,0,1-.72-1,3.77,3.77,0,0,1-.25-1.38,2.55,2.55,0,0,1,.49-1.63,1.62,1.62,0,0,1,1.33-.6,2.32,2.32,0,0,1,1,.23,4.21,4.21,0,0,1,1.11.88l2.25,2.29Z" fill="#003a50"/><path d="M295.22,123.11a2.71,2.71,0,0,1-1.19,1,4.45,4.45,0,0,1-1.82.34,4.49,4.49,0,0,1-1.83-.34,2.68,2.68,0,0,1-1.18-1,2.51,2.51,0,0,1,0-2.78,2.7,2.7,0,0,1,1.18-1,4.49,4.49,0,0,1,1.83-.34,4.45,4.45,0,0,1,1.82.34,2.73,2.73,0,0,1,1.19,1,2.56,2.56,0,0,1,0,2.78Zm-.55-2.43a2.1,2.1,0,0,0-.95-.69,4.69,4.69,0,0,0-3,0,2,2,0,0,0-.95.69,1.72,1.72,0,0,0-.33,1,1.67,1.67,0,0,0,.33,1,2.06,2.06,0,0,0,.95.7,4.69,4.69,0,0,0,3,0,2.11,2.11,0,0,0,.95-.7,1.67,1.67,0,0,0,.33-1A1.72,1.72,0,0,0,294.67,120.68Z" fill="#003a50"/><path d="M295.22,116.74a2.64,2.64,0,0,1-1.19,1,4.44,4.44,0,0,1-1.82.35,4.49,4.49,0,0,1-1.83-.35,2.62,2.62,0,0,1-1.18-1,2.51,2.51,0,0,1,0-2.78,2.7,2.7,0,0,1,1.18-1,4.49,4.49,0,0,1,1.83-.34A4.45,4.45,0,0,1,294,113a2.73,2.73,0,0,1,1.19,1,2.56,2.56,0,0,1,0,2.78Zm-.55-2.42a2.11,2.11,0,0,0-.95-.7,4.69,4.69,0,0,0-3,0,2.06,2.06,0,0,0-.95.7,1.77,1.77,0,0,0,0,2.06,2,2,0,0,0,.95.7,4.69,4.69,0,0,0,3,0,2,2,0,0,0,.95-.7,1.77,1.77,0,0,0,0-2.06Z" fill="#003a50"/></g><line x1="299.34" y1="13.87" x2="299.34" y2="41.11" fill="none" stroke="#003a50" stroke-linecap="round" stroke-linejoin="round" stroke-width="0.4"/><line x1="299.34" y1="41.11" x2="297.51" y2="47.92" fill="none" stroke="#003a50" stroke-linecap="round" stroke-linejoin="round" stroke-width="0.4"/><line x1="297.51" y1="47.92" x2="301.16" y2="47.92" fill="none" stroke="#003a50" stroke-linecap="round" stroke-linejoin="round" stroke-width="0.4"/><line x1="301.16" y1="47.92" x2="299.34" y2="41.11" fill="none" stroke="#003a50" stroke-linecap="round" stroke-linejoin="round" stroke-width="0.4"/><polygon points="297.51 47.92 301.16 47.92 299.33 41.11 297.51 47.92" fill="#003a50"/><line x1="299.34" y1="41.11" x2="301.16" y2="34.3" fill="none" stroke="#003a50" stroke-linecap="round" stroke-linejoin="round" stroke-width="0.4"/><line x1="301.16" y1="34.3" x2="297.51" y2="34.3" fill="none" stroke="#003a50" stroke-linecap="round" stroke-linejoin="round" stroke-width="0.4"/><line x1="297.51" y1="34.3" x2="299.33" y2="41.11" fill="none" stroke="#003a50" stroke-linecap="round" stroke-linejoin="round" stroke-width="0.4"/><polygon points="297.51 34.3 299.33 41.11 301.16 34.3 297.51 34.3" fill="#003a50"/><line x1="311.18" y1="41.11" x2="297.97" y2="41.11" fill="none" stroke="#003a50" stroke-linecap="round" stroke-linejoin="round" stroke-width="0.4"/><line x1="299.34" y1="41.11" x2="311.18" y2="41.11" fill="none" stroke="#003a50" stroke-linecap="round" stroke-linejoin="round" stroke-width="0.4"/><line x1="299.34" y1="13.87" x2="297.51" y2="20.68" fill="none" stroke="#003a50" stroke-linecap="round" stroke-linejoin="round" stroke-width="0.4"/><line x1="297.51" y1="20.68" x2="301.16" y2="20.68" fill="none" stroke="#003a50" stroke-linecap="round" stroke-linejoin="round" stroke-width="0.4"/><line x1="301.16" y1="20.68" x2="299.34" y2="13.87" fill="none" stroke="#003a50" stroke-linecap="round" stroke-linejoin="round" stroke-width="0.4"/><polygon points="297.51 20.68 301.16 20.68 299.33 13.87 297.51 20.68" fill="#003a50"/><line x1="302.79" y1="13.87" x2="297.97" y2="13.87" fill="none" stroke="#003a50" stroke-linecap="round" stroke-linejoin="round" stroke-width="0.4"/><line x1="299.34" y1="13.87" x2="302.79" y2="13.87" fill="none" stroke="#003a50" stroke-linecap="round" stroke-linejoin="round" stroke-width="0.4"/><g clip-path="url(#clip-path)"><path d="M291.79,32.89a2,2,0,0,1,.71-.81,2,2,0,0,1,1.06-.28,1.92,1.92,0,0,1,1.82,1.12,2.61,2.61,0,0,1,.25,1.17,2.46,2.46,0,0,1-.88,2,3.8,3.8,0,0,1-2.48.72,4.25,4.25,0,0,1-1.91-.39,2.75,2.75,0,0,1-1.18-1.08,3.23,3.23,0,0,1-.4-1.61,3.08,3.08,0,0,1,.37-1.6l.56.28a2.37,2.37,0,0,0-.32,1.31,2.22,2.22,0,0,0,.71,1.75,3,3,0,0,0,2,.63l.55,0a1.76,1.76,0,0,1-.85-.79,2.61,2.61,0,0,1-.31-1.26A2.73,2.73,0,0,1,291.79,32.89Zm2.86,0a1.36,1.36,0,0,0-1.07-.45,1.32,1.32,0,0,0-1.05.45,1.81,1.81,0,0,0-.4,1.24,2.13,2.13,0,0,0,.19.9,1.58,1.58,0,0,0,.53.61,1.34,1.34,0,0,0,.75.22,1.39,1.39,0,0,0,.72-.2,1.57,1.57,0,0,0,.52-.61,2.07,2.07,0,0,0,.21-1A1.8,1.8,0,0,0,294.65,32.93Z" fill="#003a50"/><path d="M295.22,29.7a2.64,2.64,0,0,1-1.19.95,4.44,4.44,0,0,1-1.82.35,4.49,4.49,0,0,1-1.83-.35,2.62,2.62,0,0,1-1.18-.95,2.51,2.51,0,0,1,0-2.78,2.77,2.77,0,0,1,1.18-1,4.49,4.49,0,0,1,1.83-.34A4.45,4.45,0,0,1,294,26a2.8,2.8,0,0,1,1.19,1,2.56,2.56,0,0,1,0,2.78Zm-.55-2.42a2.11,2.11,0,0,0-.95-.7,4.69,4.69,0,0,0-3,0,2.06,2.06,0,0,0-.95.7,1.69,1.69,0,0,0-.33,1,1.72,1.72,0,0,0,.33,1,2,2,0,0,0,.95.69,4.69,4.69,0,0,0,3,0,2.1,2.1,0,0,0,.95-.69,1.72,1.72,0,0,0,.33-1A1.69,1.69,0,0,0,294.67,27.28Z" fill="#003a50"/><path d="M295.22,23.33a2.73,2.73,0,0,1-1.19,1,4.62,4.62,0,0,1-1.82.34,4.67,4.67,0,0,1-1.83-.34,2.7,2.7,0,0,1-1.18-1,2.51,2.51,0,0,1,0-2.78,2.75,2.75,0,0,1,1.18-.95,4.49,4.49,0,0,1,1.83-.35,4.44,4.44,0,0,1,1.82.35,2.78,2.78,0,0,1,1.19.95,2.56,2.56,0,0,1,0,2.78Zm-.55-2.42a2.11,2.11,0,0,0-.95-.7,4.69,4.69,0,0,0-3,0,2.06,2.06,0,0,0-.95.7,1.79,1.79,0,0,0,0,2.07,2,2,0,0,0,.95.69,4.51,4.51,0,0,0,3,0,2,2,0,0,0,.95-.69,1.79,1.79,0,0,0,0-2.07Z" fill="#003a50"/></g><line x1="299.34" y1="41.11" x2="299.34" y2="95.6" fill="none" stroke="#003a50" stroke-linecap="round" stroke-linejoin="round" stroke-width="0.4"/><line x1="299.34" y1="95.6" x2="301.16" y2="88.79" fill="none" stroke="#003a50" stroke-linecap="round" stroke-linejoin="round" stroke-width="0.4"/><line x1="301.16" y1="88.79" x2="297.51" y2="88.79" fill="none" stroke="#003a50" stroke-linecap="round" stroke-linejoin="round" stroke-width="0.4"/><line x1="297.51" y1="88.79" x2="299.33" y2="95.61" fill="none" stroke="#003a50" stroke-linecap="round" stroke-linejoin="round" stroke-width="0.4"/><polygon points="297.51 88.79 299.33 95.61 301.16 88.79 297.51 88.79" fill="#003a50"/><line x1="308.91" y1="95.6" x2="297.97" y2="95.6" fill="none" stroke="#003a50" stroke-linecap="round" stroke-linejoin="round" stroke-width="0.4"/><line x1="299.34" y1="95.6" x2="308.91" y2="95.6" fill="none" stroke="#003a50" stroke-linecap="round" stroke-linejoin="round" stroke-width="0.4"/><line x1="299.34" y1="41.11" x2="297.51" y2="47.92" fill="none" stroke="#003a50" stroke-linecap="round" stroke-linejoin="round" stroke-width="0.4"/><line x1="297.51" y1="47.92" x2="301.16" y2="47.92" fill="none" stroke="#003a50" stroke-linecap="round" stroke-linejoin="round" stroke-width="0.4"/><line x1="301.16" y1="47.92" x2="299.34" y2="41.11" fill="none" stroke="#003a50" stroke-linecap="round" stroke-linejoin="round" stroke-width="0.4"/><polygon points="297.51 47.92 301.16 47.92 299.33 41.11 297.51 47.92" fill="#003a50"/><line x1="299.34" y1="41.11" x2="301.16" y2="34.3" fill="none" stroke="#003a50" stroke-linecap="round" stroke-linejoin="round" stroke-width="0.4"/><line x1="301.16" y1="34.3" x2="297.51" y2="34.3" fill="none" stroke="#003a50" stroke-linecap="round" stroke-linejoin="round" stroke-width="0.4"/><line x1="297.51" y1="34.3" x2="299.33" y2="41.11" fill="none" stroke="#003a50" stroke-linecap="round" stroke-linejoin="round" stroke-width="0.4"/><polygon points="297.51 34.3 299.33 41.11 301.16 34.3 297.51 34.3" fill="#003a50"/><line x1="311.18" y1="41.11" x2="297.97" y2="41.11" fill="none" stroke="#003a50" stroke-linecap="round" stroke-linejoin="round" stroke-width="0.4"/><line x1="299.34" y1="41.11" x2="311.18" y2="41.11" fill="none" stroke="#003a50" stroke-linecap="round" stroke-linejoin="round" stroke-width="0.4"/><g clip-path="url(#clip-path)"><path d="M288.84,76.94h6.74v.7h-6.12v1.58h-.62Z" fill="#003a50"/><path d="M295,70.74h.62v4.72h-.5l-2.74-2.8a3.31,3.31,0,0,0-.9-.71,1.64,1.64,0,0,0-.76-.19,1.11,1.11,0,0,0-.93.41,1.81,1.81,0,0,0-.33,1.17,2.28,2.28,0,0,0,.75,1.83l-.42.5a2.66,2.66,0,0,1-.72-1,3.77,3.77,0,0,1-.25-1.38,2.53,2.53,0,0,1,.49-1.63,1.62,1.62,0,0,1,1.33-.6,2.19,2.19,0,0,1,1,.23,4.13,4.13,0,0,1,1.11.87L295,74.44Z" fill="#003a50"/><path d="M295.22,68.62a2.78,2.78,0,0,1-1.19.95,4.45,4.45,0,0,1-1.82.34,4.49,4.49,0,0,1-1.83-.34,2.75,2.75,0,0,1-1.18-.95,2.51,2.51,0,0,1,0-2.78,2.7,2.7,0,0,1,1.18-1,4.49,4.49,0,0,1,1.83-.35,4.44,4.44,0,0,1,1.82.35,2.73,2.73,0,0,1,1.19,1,2.56,2.56,0,0,1,0,2.78Zm-.55-2.43a2,2,0,0,0-.95-.69,4.69,4.69,0,0,0-3,0,2,2,0,0,0-.95.69,1.72,1.72,0,0,0-.33,1,1.69,1.69,0,0,0,.33,1,2.06,2.06,0,0,0,.95.7,4.69,4.69,0,0,0,3,0,2.11,2.11,0,0,0,.95-.7,1.69,1.69,0,0,0,.33-1A1.72,1.72,0,0,0,294.67,66.19Z" fill="#003a50"/><path d="M295.22,62.25a2.71,2.71,0,0,1-1.19,1,4.45,4.45,0,0,1-1.82.34,4.49,4.49,0,0,1-1.83-.34,2.68,2.68,0,0,1-1.18-1,2.51,2.51,0,0,1,0-2.78,2.7,2.7,0,0,1,1.18-1,4.49,4.49,0,0,1,1.83-.34,4.45,4.45,0,0,1,1.82.34,2.73,2.73,0,0,1,1.19,1,2.56,2.56,0,0,1,0,2.78Zm-.55-2.43a2.1,2.1,0,0,0-.95-.69,4.69,4.69,0,0,0-3,0,2,2,0,0,0-.95.69,1.72,1.72,0,0,0-.33,1,1.69,1.69,0,0,0,.33,1,2.06,2.06,0,0,0,.95.7,4.69,4.69,0,0,0,3,0,2.11,2.11,0,0,0,.95-.7,1.69,1.69,0,0,0,.33-1A1.72,1.72,0,0,0,294.67,59.82Z" fill="#003a50"/></g></svg>