<svg id="Слой_1" data-name="Слой 1" xmlns="http://www.w3.org/2000/svg" xmlns:xlink="http://www.w3.org/1999/xlink" viewBox="0 0 476.22 223.09"><defs><clipPath id="clip-path"><polygon points="49.61 0.35 49.61 13.52 40.53 13.52 40.53 27.44 0.85 27.44 0.85 100.43 40.53 100.43 40.53 114.38 49.61 114.38 49.61 163.76 301.32 163.76 301.32 223.02 476.22 223.02 476.22 0.35 49.61 0.35" fill="none"/></clipPath></defs><g clip-path="url(#clip-path)"><path d="M305.73,233l10.16-10.16m-10.16,24.61,24.61-24.61m-24.61,39.05,39.06-39.05m-39.06,53.51,53.51-53.51m-53.51,67.95,68-67.95m-62.75,77.19,77.2-77.19m-62.75,77.19,75.7-75.7m-61.25,75.7,61.25-61.25M352,302.34l49.07-49.07m-34.62,49.07,34.62-34.62m-17.9,32.35,17.9-17.9m-3.45,17.9,3.45-3.45m-94.34,3.45-1-1m15.47,1L305.73,284.6m29.92,15.47-29.92-29.92m46.64,32.19L305.73,255.7m61.09,46.64-61.09-61.09M379,300.07l-73.27-73.26m87.72,73.26-77.2-77.19m84.84,70.39L330.7,222.88m70.39,55.94-55.94-55.94m55.94,41.49L359.6,222.88m41.49,27-27-27m27,12.59L388.5,222.88" fill="none" stroke="#809da8" stroke-linecap="round" stroke-linejoin="round" stroke-width="0.2"/><path d="M81,166.5H301.19M71.87,214.18H301.19M81,261.86H301.19m-228-2.66V186.55m47.68,113.52V163.84M168.5,300.07V163.84m47.68,136.23V163.84m47.68,138.5V163.84" fill="none" stroke="#809da8" stroke-linecap="round" stroke-linejoin="round" stroke-width="0.2"/></g><path d="M85.49,23.46H312.54M71.87,71.14H312.54M81,118.82H224M73.15,100.27V27.61m47.68,122.61V14m47.68,136.23V14m47.68,136.23V14m47.67,81.74V14m47.69,81.74V14" fill="none" stroke="#809da8" stroke-linecap="round" stroke-linejoin="round" stroke-width="0.2"/><path d="M317.08,23.46H419.26M312.54,71.14H426.06M359.22,98V14M406.9,95.73V14" fill="none" stroke="#809da8" stroke-linecap="round" stroke-linejoin="round" stroke-width="0.2"/><path d="M314.81,108.36l8.09-8.09m-8.09,22.54,22.54-22.54m-22.54,37L354.07,98m-39.26,53.71L368.52,98m-53.71,68.16,67-67m-67,81.43,80.34-80.34m-80.34,94.79,84-84m-83.76,98.2,83.76-83.75m-69.3,83.75,69.3-69.3M344,209.25l54.86-54.85m-40.41,54.85,40.41-40.41m-26,40.41,26-25.95m-11.51,25.95,11.51-11.51m-81.74,11.51L314.81,207m16.72,2.26-16.72-16.71M346,209.25l-31.17-31.16m45.61,31.16-45.61-45.61m60.06,45.61-60.06-60.06m74.51,60.06-74.51-74.51m84,69.56-84-84m84,69.56-84-84m84,69.56-75.13-75.13M398.82,161l-60.68-60.68m60.68,46.23L350.32,98m48.5,34.06L364.76,98m34.06,19.6-18.7-18.69m-.6-.6-.3-.31m19.6,5.16-2.88-2.89" fill="none" stroke="#809da8" stroke-linecap="round" stroke-linejoin="round" stroke-width="0.2"/><g clip-path="url(#clip-path)"><path d="M85.49-182.49l10.13-10.13M85.49-168l24.58-24.57M81-149l.43-.43m4.11-4.11,39-39m-52.65,67.1,5.8-5.8M81-134.61l58-58m-67.1,81.55,81.55-81.55m-81.55,96,96-96m-96,110.45L182.32-192.62M71.87-67.73,193.11-189M77.26-58.66,202.13-183.54M81-47.91,216.58-183.54M85.49-38,231-183.54M85.49-23.55l160-160M85.49-9.1,259.93-183.54m1.3-1.3,10-10M90.47.37,285.73-194.89M104.92.37,300.18-194.89M119.37.37l193-193M133.82.37l193-193M148.27.37l193-193m.23-.23,1.13-1.14M162.72.37,358-194.89M177.17.37,372.43-194.89M191.62.37,325-133m2.82-2.81,56.21-56.22M206.07.37l119-119m4.54-4.54,54.49-54.5M220.51.37,325-104.15m4.54-4.54,56.76-56.76M235,.37,325-89.7M344-108.61,386.33-151M249.41.37l26.8-26.8m82.19-82.18,25.66-25.67M276.66-26.88,325-75.25M263.86.37,276.21-12m96.64-96.63,11.21-11.22M280.75-16.52,325-60.8M280.75-2.07,325-46.35M292.76.37,325-31.9M307.21.37,325-17.45M321.66.37,325-3M93.74.37,85.49-7.88M108.19.37l-22.7-22.7M122.64.37,85.49-36.78M81.77-40.5,81-41.32M137.09.37,81-55.77m-2.89-2.89-6.19-6.19M151.54.37,71.87-79.3M166,.37,71.87-93.75M180.44.37,71.87-108.2M194.89.37l-123-123M209.34.37,77.65-131.32M223.79.37,81-142.47M238.23.37,85.49-152.37M252.69.37,85.49-166.82M267.13.37,85.49-181.27M281.58.37l-.83-.83M276.21-5,88.59-192.62M296,.37,280.75-14.91m-4.54-4.54L103-192.62M310.48.37l-193-193M324.93.37l-193-193M325-14,146.39-192.62M325-28.43,160.84-192.62M325-42.88,175.29-192.62M325-57.33,198.82-183.54m-5.71-5.71-3.37-3.37M325-71.78,213.27-183.54M325-86.23l-97.31-97.31M325-100.68l-82.86-82.86m89.37,74.93-2-2M325-115.13l-68.41-68.41M346-108.61,329.57-125M325-129.58l-63-63m98.46,84-86.28-86.28m100.73,86.28-86.28-86.28m95.45,81-81-81m81,66.55-64.28-64.28m66.55,52.1-52.1-52.1M386.33-155l-39.92-39.92m39.2,24.74-.91-.9m-.64-.64-23.2-23.2m23.2,8.75-8.75-8.75" fill="none" stroke="#809da8" stroke-linecap="round" stroke-linejoin="round" stroke-width="0.2"/></g><line x1="52.12" y1="71.14" x2="69.15" y2="71.14" fill="none" stroke="#809da8" stroke-linecap="round" stroke-linejoin="round" stroke-width="0.2"/><path d="M224,98l2.31-2.31M224,112.49l16.76-16.76M224,126.94,255.2,95.73M224,141.38l45.66-45.65m-40,54.49,54.5-54.49m-40,54.49,54.49-54.49M258.5,150.22l51.77-51.76M273,150.22l37.32-37.32M287.4,150.22l22.87-22.87m-8.42,22.87,8.42-8.42m-81.12,8.42L224,145.07m19.61,5.15L224,130.62M258,150.22l-34.05-34m48.51,34.05L224,101.72m62.95,48.5L232.45,95.73m68.94,54.49L246.9,95.73m63.37,48.92L261.35,95.73m48.92,34.47L275.8,95.73m34.47,20-20-20m20,5.57-5.57-5.57" fill="none" stroke="#809da8" stroke-linecap="round" stroke-linejoin="round" stroke-width="0.2"/><line x1="52.12" y1="27.61" x2="52.12" y2="28.52" fill="none" stroke="#809da8" stroke-linecap="round" stroke-linejoin="round" stroke-width="0.4" stroke-dasharray="0.07 0.07"/><line x1="52.12" y1="99.36" x2="52.12" y2="100.27" fill="none" stroke="#809da8" stroke-linecap="round" stroke-linejoin="round" stroke-width="0.4" stroke-dasharray="0.07 0.07"/><line x1="71.87" y1="27.61" x2="71.87" y2="100.27" fill="none" stroke="#809da8" stroke-linecap="round" stroke-linejoin="round" stroke-width="0.4" stroke-dasharray="0.07 0.07"/><line x1="69.15" y1="100.27" x2="69.15" y2="99.36" fill="none" stroke="#809da8" stroke-linecap="round" stroke-linejoin="round" stroke-width="0.4" stroke-dasharray="0.07 0.07"/><line x1="69.15" y1="28.52" x2="69.15" y2="27.61" fill="none" stroke="#809da8" stroke-linecap="round" stroke-linejoin="round" stroke-width="0.4" stroke-dasharray="0.07 0.07"/><line x1="312.54" y1="95.73" x2="312.54" y2="41.24" fill="none" stroke="#809da8" stroke-linecap="round" stroke-linejoin="round" stroke-width="0.4" stroke-dasharray="0.07 0.07"/><g clip-path="url(#clip-path)"><line x1="325.03" y1="-81.37" x2="325.03" y2="0.37" fill="none" stroke="#809da8" stroke-linecap="round" stroke-linejoin="round" stroke-width="0.4" stroke-dasharray="0.07 0.07"/></g><line x1="223.99" y1="150.22" x2="223.99" y2="95.73" fill="none" stroke="#809da8" stroke-linecap="round" stroke-linejoin="round" stroke-width="0.4" stroke-dasharray="0.07 0.07"/><line x1="310.27" y1="95.73" x2="223.99" y2="95.73" fill="none" stroke="#809da8" stroke-linecap="round" stroke-linejoin="round" stroke-width="0.4" stroke-dasharray="0.07 0.07"/><rect x="71.87" y="0.36" width="13.62" height="27.26" fill="#003a50"/><rect x="419.26" y="0.36" width="13.62" height="38.61" fill="#003a50"/><rect x="192.21" y="150.22" width="68.12" height="13.54" fill="#003a50"/><polygon points="364.76 209.25 364.76 222.88 410.17 222.88 412.44 222.88 432.88 222.88 432.88 209.25 364.76 209.25" fill="#003a50"/><rect x="80.96" y="150.22" width="111.25" height="13.54" fill="#003a50"/><polygon points="301.19 150.22 301.19 163.76 301.32 163.76 301.32 222.88 305.73 222.88 314.81 222.88 314.81 150.22 301.19 150.22" fill="#003a50"/><polygon points="314.81 209.25 314.81 222.88 353.62 222.88 364.76 222.88 364.76 209.25 314.81 209.25" fill="#003a50"/><rect x="310.27" y="95.73" width="4.54" height="54.49" fill="#003a50"/><path d="M314.81,100.27h32.92V95.73H314.81Zm67-4.54v4.54h37.46V95.73Z" fill="#003a50"/><polygon points="398.82 100.27 398.82 209.03 398.82 209.25 403.36 209.25 403.36 100.27 398.82 100.27" fill="#003a50"/><rect x="301.32" y="222.88" width="4.41" height="0.14" fill="#003a50"/><rect x="312.54" y="13.99" width="4.54" height="27.24" fill="#003a50"/><polygon points="403.36 146.82 403.41 151.13 416.98 151.13 419.25 151.13 419.25 146.82 403.36 146.82" fill="#003a50"/><rect x="260.32" y="150.22" width="40.87" height="13.54" fill="#003a50"/><polygon points="85.5 0.37 85.5 13.99 108.64 13.99 147.69 13.99 193.11 13.99 193.11 0.37 85.5 0.37" fill="#003a50"/><polygon points="193.12 0.37 193.12 13.99 379.52 13.99 406.7 13.99 419.25 13.99 419.25 0.37 193.12 0.37" fill="#003a50"/><rect x="374.98" y="0.35" width="4.54" height="0.01" fill="#003a50"/><rect x="356.82" y="0.36" width="4.54" height="0.01" fill="#003a50"/><rect x="401.09" y="222.88" width="9.08" height="0.14" fill="#003a50"/><rect x="428.34" y="222.88" width="4.54" height="0.14" fill="#003a50"/><rect x="276.21" y="0.36" width="4.54" height="0.01" fill="#003a50"/><path d="M419.26,209.25h13.62V91.19H419.26Zm0-163.47h13.62V39H419.26Z" fill="#003a50"/><path d="M63.7,163.76h8.17V100.27H63.7Zm0-136.14h8.17V.36H63.7Z" fill="#003a50"/><rect x="71.87" y="100.27" width="9.08" height="63.49" fill="#003a50"/><g clip-path="url(#clip-path)"><line x1="85.49" y1="27.61" x2="85.49" y2="-40.5" fill="none" stroke="#003a50" stroke-linecap="round" stroke-linejoin="round" stroke-width="0.96"/><line x1="432.88" y1="38.97" x2="432.88" y2="-29.15" fill="none" stroke="#003a50" stroke-linecap="round" stroke-linejoin="round" stroke-width="0.96"/></g><line x1="419.26" y1="13.99" x2="419.26" y2="38.97" fill="none" stroke="#003a50" stroke-linecap="round" stroke-linejoin="round" stroke-width="0.96"/><line x1="419.26" y1="38.97" x2="432.88" y2="38.97" fill="none" stroke="#003a50" stroke-linecap="round" stroke-linejoin="round" stroke-width="0.96"/><g clip-path="url(#clip-path)"><line x1="260.32" y1="163.84" x2="260.32" y2="150.22" fill="none" stroke="#003a50" stroke-linecap="round" stroke-linejoin="round" stroke-width="0.96"/><line x1="364.76" y1="222.88" x2="401.09" y2="222.88" fill="none" stroke="#003a50" stroke-linecap="round" stroke-linejoin="round" stroke-width="0.96"/><line x1="410.17" y1="222.88" x2="428.34" y2="222.88" fill="none" stroke="#003a50" stroke-linecap="round" stroke-linejoin="round" stroke-width="0.96"/><line x1="432.88" y1="222.88" x2="432.88" y2="209.25" fill="none" stroke="#003a50" stroke-linecap="round" stroke-linejoin="round" stroke-width="0.96"/></g><line x1="432.88" y1="209.25" x2="364.76" y2="209.25" fill="none" stroke="#003a50" stroke-linecap="round" stroke-linejoin="round" stroke-width="0.96"/><g clip-path="url(#clip-path)"><line x1="80.95" y1="163.84" x2="301.19" y2="163.84" fill="none" stroke="#003a50" stroke-linecap="round" stroke-linejoin="round" stroke-width="0.96"/></g><line x1="314.81" y1="209.25" x2="314.81" y2="100.27" fill="none" stroke="#003a50" stroke-linecap="round" stroke-linejoin="round" stroke-width="0.96"/><g clip-path="url(#clip-path)"><line x1="364.76" y1="222.88" x2="364.76" y2="209.25" fill="none" stroke="#003a50" stroke-linecap="round" stroke-linejoin="round" stroke-width="0.96"/></g><line x1="364.76" y1="209.25" x2="314.81" y2="209.25" fill="none" stroke="#003a50" stroke-linecap="round" stroke-linejoin="round" stroke-width="0.96"/><line x1="310.27" y1="95.73" x2="310.27" y2="150.22" fill="none" stroke="#003a50" stroke-linecap="round" stroke-linejoin="round" stroke-width="0.96"/><line x1="80.95" y1="150.22" x2="314.81" y2="150.22" fill="none" stroke="#003a50" stroke-linecap="round" stroke-linejoin="round" stroke-width="0.96"/><line x1="314.81" y1="100.27" x2="347.73" y2="100.27" fill="none" stroke="#003a50" stroke-linecap="round" stroke-linejoin="round" stroke-width="0.96"/><line x1="347.73" y1="100.27" x2="347.73" y2="95.73" fill="none" stroke="#003a50" stroke-linecap="round" stroke-linejoin="round" stroke-width="0.96"/><line x1="347.73" y1="95.73" x2="310.27" y2="95.73" fill="none" stroke="#003a50" stroke-linecap="round" stroke-linejoin="round" stroke-width="0.96"/><line x1="381.79" y1="100.27" x2="398.82" y2="100.27" fill="none" stroke="#003a50" stroke-linecap="round" stroke-linejoin="round" stroke-width="0.96"/><line x1="419.26" y1="95.73" x2="381.79" y2="95.73" fill="none" stroke="#003a50" stroke-linecap="round" stroke-linejoin="round" stroke-width="0.96"/><line x1="381.79" y1="95.73" x2="381.79" y2="100.27" fill="none" stroke="#003a50" stroke-linecap="round" stroke-linejoin="round" stroke-width="0.96"/><line x1="398.82" y1="100.27" x2="398.82" y2="209.25" fill="none" stroke="#003a50" stroke-linecap="round" stroke-linejoin="round" stroke-width="0.96"/><line x1="403.36" y1="209.25" x2="403.36" y2="209.03" fill="none" stroke="#003a50" stroke-linecap="round" stroke-linejoin="round" stroke-width="0.96"/><line x1="403.36" y1="146.82" x2="403.36" y2="125.25" fill="none" stroke="#003a50" stroke-linecap="round" stroke-linejoin="round" stroke-width="0.96"/><g clip-path="url(#clip-path)"><line x1="301.19" y1="163.84" x2="301.19" y2="300.07" fill="none" stroke="#003a50" stroke-linecap="round" stroke-linejoin="round" stroke-width="0.96"/><line x1="305.73" y1="300.07" x2="305.73" y2="222.88" fill="none" stroke="#003a50" stroke-linecap="round" stroke-linejoin="round" stroke-width="0.96"/><line x1="364.76" y1="222.88" x2="301.19" y2="222.88" fill="none" stroke="#003a50" stroke-linecap="round" stroke-linejoin="round" stroke-width="0.96"/></g><line x1="312.54" y1="13.99" x2="312.54" y2="41.24" fill="none" stroke="#003a50" stroke-linecap="round" stroke-linejoin="round" stroke-width="0.96"/><line x1="312.54" y1="41.24" x2="317.08" y2="41.24" fill="none" stroke="#003a50" stroke-linecap="round" stroke-linejoin="round" stroke-width="0.96"/><line x1="317.08" y1="41.24" x2="317.08" y2="13.99" fill="none" stroke="#003a50" stroke-linecap="round" stroke-linejoin="round" stroke-width="0.96"/><line x1="419.26" y1="146.82" x2="403.36" y2="146.82" fill="none" stroke="#003a50" stroke-linecap="round" stroke-linejoin="round" stroke-width="0.96"/><g clip-path="url(#clip-path)"><line x1="276.21" y1="0.37" x2="85.49" y2="0.37" fill="none" stroke="#003a50" stroke-linecap="round" stroke-linejoin="round" stroke-width="0.96"/></g><line x1="85.49" y1="13.99" x2="419.25" y2="13.99" fill="none" stroke="#003a50" stroke-linecap="round" stroke-linejoin="round" stroke-width="0.96"/><g clip-path="url(#clip-path)"><line x1="356.82" y1="0.37" x2="280.76" y2="0.37" fill="none" stroke="#003a50" stroke-linecap="round" stroke-linejoin="round" stroke-width="0.96"/><line x1="356.82" y1="-26.88" x2="356.82" y2="0.37" fill="none" stroke="#003a50" stroke-linecap="round" stroke-linejoin="round" stroke-width="0.96"/><line x1="361.36" y1="0.37" x2="361.36" y2="-22.34" fill="none" stroke="#003a50" stroke-linecap="round" stroke-linejoin="round" stroke-width="0.96"/><line x1="401.09" y1="222.88" x2="401.09" y2="275.1" fill="none" stroke="#003a50" stroke-linecap="round" stroke-linejoin="round" stroke-width="0.96"/><line x1="410.17" y1="266.02" x2="410.17" y2="222.88" fill="none" stroke="#003a50" stroke-linecap="round" stroke-linejoin="round" stroke-width="0.96"/><line x1="428.34" y1="222.88" x2="428.34" y2="265.26" fill="none" stroke="#003a50" stroke-linecap="round" stroke-linejoin="round" stroke-width="0.96"/><line x1="432.88" y1="306.88" x2="432.88" y2="222.88" fill="none" stroke="#003a50" stroke-linecap="round" stroke-linejoin="round" stroke-width="0.96"/><line x1="280.76" y1="0.37" x2="280.76" y2="-26.88" fill="none" stroke="#003a50" stroke-linecap="round" stroke-linejoin="round" stroke-width="0.96"/><line x1="276.21" y1="-26.88" x2="276.21" y2="0.37" fill="none" stroke="#003a50" stroke-linecap="round" stroke-linejoin="round" stroke-width="0.96"/></g><line x1="419.26" y1="38.97" x2="419.26" y2="45.78" fill="none" stroke="#003a50" stroke-linecap="round" stroke-linejoin="round" stroke-width="0.96"/><line x1="419.26" y1="45.78" x2="432.88" y2="45.78" fill="none" stroke="#003a50" stroke-linecap="round" stroke-linejoin="round" stroke-width="0.96"/><line x1="432.88" y1="45.78" x2="432.88" y2="38.97" fill="none" stroke="#003a50" stroke-linecap="round" stroke-linejoin="round" stroke-width="0.96"/><line x1="432.88" y1="38.97" x2="419.25" y2="38.97" fill="none" stroke="#003a50" stroke-linecap="round" stroke-linejoin="round" stroke-width="0.96"/><line x1="419.26" y1="91.19" x2="419.26" y2="151.13" fill="none" stroke="#003a50" stroke-linecap="round" stroke-linejoin="round" stroke-width="0.96"/><line x1="419.26" y1="209.03" x2="419.26" y2="209.25" fill="none" stroke="#003a50" stroke-linecap="round" stroke-linejoin="round" stroke-width="0.96"/><line x1="432.88" y1="209.25" x2="432.88" y2="91.19" fill="none" stroke="#003a50" stroke-linecap="round" stroke-linejoin="round" stroke-width="0.96"/><line x1="432.88" y1="91.19" x2="419.25" y2="91.19" fill="none" stroke="#003a50" stroke-linecap="round" stroke-linejoin="round" stroke-width="0.96"/><g clip-path="url(#clip-path)"><line x1="63.7" y1="-58.66" x2="63.7" y2="27.62" fill="none" stroke="#003a50" stroke-linecap="round" stroke-linejoin="round" stroke-width="0.96"/></g><line x1="63.7" y1="27.61" x2="85.49" y2="27.61" fill="none" stroke="#003a50" stroke-linecap="round" stroke-linejoin="round" stroke-width="0.96"/><g clip-path="url(#clip-path)"><line x1="80.95" y1="27.61" x2="80.95" y2="-58.67" fill="none" stroke="#003a50" stroke-linecap="round" stroke-linejoin="round" stroke-width="0.96"/><line x1="63.7" y1="100.27" x2="63.7" y2="186.55" fill="none" stroke="#003a50" stroke-linecap="round" stroke-linejoin="round" stroke-width="0.96"/><line x1="80.95" y1="186.55" x2="80.95" y2="100.27" fill="none" stroke="#003a50" stroke-linecap="round" stroke-linejoin="round" stroke-width="0.96"/></g><line x1="80.95" y1="100.27" x2="63.7" y2="100.27" fill="none" stroke="#003a50" stroke-linecap="round" stroke-linejoin="round" stroke-width="0.96"/><line x1="429.7" y1="45.78" x2="429.7" y2="46.69" fill="none" stroke="#003a50" stroke-linecap="round" stroke-linejoin="round" stroke-width="0.96"/><line x1="432.88" y1="46.69" x2="432.88" y2="45.78" fill="none" stroke="#003a50" stroke-linecap="round" stroke-linejoin="round" stroke-width="0.96"/><line x1="429.7" y1="90.28" x2="429.7" y2="91.19" fill="none" stroke="#003a50" stroke-linecap="round" stroke-linejoin="round" stroke-width="0.96"/><line x1="432.88" y1="91.19" x2="432.88" y2="90.28" fill="none" stroke="#003a50" stroke-linecap="round" stroke-linejoin="round" stroke-width="0.96"/><line x1="432.88" y1="46.69" x2="429.7" y2="46.69" fill="none" stroke="#003a50" stroke-linecap="round" stroke-linejoin="round" stroke-width="0.96"/><line x1="429.7" y1="46.69" x2="429.7" y2="48.05" fill="none" stroke="#003a50" stroke-linecap="round" stroke-linejoin="round" stroke-width="0.96"/><line x1="429.7" y1="48.05" x2="432.88" y2="48.05" fill="none" stroke="#003a50" stroke-linecap="round" stroke-linejoin="round" stroke-width="0.96"/><line x1="432.88" y1="48.05" x2="432.88" y2="46.68" fill="none" stroke="#003a50" stroke-linecap="round" stroke-linejoin="round" stroke-width="0.96"/><line x1="432.88" y1="90.28" x2="432.88" y2="88.92" fill="none" stroke="#003a50" stroke-linecap="round" stroke-linejoin="round" stroke-width="0.96"/><line x1="432.88" y1="88.92" x2="429.7" y2="88.92" fill="none" stroke="#003a50" stroke-linecap="round" stroke-linejoin="round" stroke-width="0.96"/><line x1="429.7" y1="88.92" x2="429.7" y2="90.28" fill="none" stroke="#003a50" stroke-linecap="round" stroke-linejoin="round" stroke-width="0.96"/><line x1="429.7" y1="90.28" x2="432.88" y2="90.28" fill="none" stroke="#003a50" stroke-linecap="round" stroke-linejoin="round" stroke-width="0.96"/><g clip-path="url(#clip-path)"><path d="M432.88,88.92a40.87,40.87,0,0,0,40.87-40.87" fill="none" stroke="#003a50" stroke-linecap="round" stroke-linejoin="round" stroke-width="0.96"/></g><line x1="432.88" y1="48.05" x2="473.75" y2="48.05" fill="none" stroke="#003a50" stroke-linecap="round" stroke-linejoin="round" stroke-width="0.96"/><line x1="347.73" y1="95.73" x2="348.64" y2="95.73" fill="none" stroke="#003a50" stroke-linecap="round" stroke-linejoin="round" stroke-width="0.96"/><line x1="348.64" y1="98.91" x2="347.74" y2="98.91" fill="none" stroke="#003a50" stroke-linecap="round" stroke-linejoin="round" stroke-width="0.96"/><line x1="380.88" y1="95.73" x2="381.79" y2="95.73" fill="none" stroke="#003a50" stroke-linecap="round" stroke-linejoin="round" stroke-width="0.96"/><line x1="381.79" y1="98.91" x2="380.88" y2="98.91" fill="none" stroke="#003a50" stroke-linecap="round" stroke-linejoin="round" stroke-width="0.96"/><line x1="348.64" y1="98.91" x2="348.64" y2="95.73" fill="none" stroke="#003a50" stroke-linecap="round" stroke-linejoin="round" stroke-width="0.96"/><line x1="350.01" y1="98.91" x2="348.64" y2="98.91" fill="none" stroke="#003a50" stroke-linecap="round" stroke-linejoin="round" stroke-width="0.96"/><line x1="350.01" y1="95.73" x2="350.01" y2="98.91" fill="none" stroke="#003a50" stroke-linecap="round" stroke-linejoin="round" stroke-width="0.96"/><line x1="348.64" y1="95.73" x2="350.01" y2="95.73" fill="none" stroke="#003a50" stroke-linecap="round" stroke-linejoin="round" stroke-width="0.96"/><line x1="379.52" y1="95.73" x2="380.89" y2="95.73" fill="none" stroke="#003a50" stroke-linecap="round" stroke-linejoin="round" stroke-width="0.96"/><line x1="379.52" y1="98.91" x2="379.52" y2="95.73" fill="none" stroke="#003a50" stroke-linecap="round" stroke-linejoin="round" stroke-width="0.96"/><line x1="380.88" y1="98.91" x2="379.52" y2="98.91" fill="none" stroke="#003a50" stroke-linecap="round" stroke-linejoin="round" stroke-width="0.96"/><line x1="380.88" y1="95.73" x2="380.88" y2="98.91" fill="none" stroke="#003a50" stroke-linecap="round" stroke-linejoin="round" stroke-width="0.96"/><g clip-path="url(#clip-path)"><path d="M379.52,66.21A29.52,29.52,0,0,0,350,95.73" fill="none" stroke="#003a50" stroke-linecap="round" stroke-linejoin="round" stroke-width="0.96"/></g><line x1="379.52" y1="95.73" x2="379.52" y2="66.21" fill="none" stroke="#003a50" stroke-linecap="round" stroke-linejoin="round" stroke-width="0.96"/><polygon points="40.99 100.27 40.99 113.89 50.08 113.89 63.7 113.89 63.7 100.27 40.99 100.27" fill="#003a50"/><line x1="63.7" y1="113.89" x2="63.7" y2="100.27" fill="none" stroke="#003a50" stroke-linecap="round" stroke-linejoin="round" stroke-width="0.96"/><g clip-path="url(#clip-path)"><line x1="63.7" y1="100.27" x2="40.99" y2="100.27" fill="none" stroke="#003a50" stroke-linecap="round" stroke-linejoin="round" stroke-width="0.96"/><line x1="40.99" y1="100.27" x2="40.99" y2="113.89" fill="none" stroke="#003a50" stroke-linecap="round" stroke-linejoin="round" stroke-width="0.96"/><line x1="40.99" y1="113.89" x2="63.7" y2="113.89" fill="none" stroke="#003a50" stroke-linecap="round" stroke-linejoin="round" stroke-width="0.96"/></g><polygon points="40.99 13.99 40.99 27.61 50.08 27.61 63.7 27.61 63.7 13.99 40.99 13.99" fill="#003a50"/><line x1="63.7" y1="27.61" x2="63.7" y2="13.99" fill="none" stroke="#003a50" stroke-linecap="round" stroke-linejoin="round" stroke-width="0.96"/><g clip-path="url(#clip-path)"><line x1="63.7" y1="13.99" x2="40.99" y2="13.99" fill="none" stroke="#003a50" stroke-linecap="round" stroke-linejoin="round" stroke-width="0.96"/><line x1="40.99" y1="13.99" x2="40.99" y2="27.62" fill="none" stroke="#003a50" stroke-linecap="round" stroke-linejoin="round" stroke-width="0.96"/><line x1="40.99" y1="27.61" x2="63.7" y2="27.61" fill="none" stroke="#003a50" stroke-linecap="round" stroke-linejoin="round" stroke-width="0.96"/></g><rect x="50.08" y="0.36" width="13.62" height="13.64" fill="#003a50"/><g clip-path="url(#clip-path)"><line x1="63.7" y1="13.99" x2="63.7" y2="-45.04" fill="none" stroke="#003a50" stroke-linecap="round" stroke-linejoin="round" stroke-width="0.96"/><line x1="50.08" y1="-45.04" x2="50.08" y2="13.99" fill="none" stroke="#003a50" stroke-linecap="round" stroke-linejoin="round" stroke-width="0.96"/><line x1="50.08" y1="13.99" x2="63.7" y2="13.99" fill="none" stroke="#003a50" stroke-linecap="round" stroke-linejoin="round" stroke-width="0.96"/></g><rect x="50.08" y="113.89" width="13.62" height="49.87" fill="#003a50"/><g clip-path="url(#clip-path)"><line x1="63.7" y1="172.93" x2="63.7" y2="113.89" fill="none" stroke="#003a50" stroke-linecap="round" stroke-linejoin="round" stroke-width="0.96"/><line x1="63.7" y1="113.89" x2="50.07" y2="113.89" fill="none" stroke="#003a50" stroke-linecap="round" stroke-linejoin="round" stroke-width="0.96"/><line x1="50.08" y1="113.89" x2="50.08" y2="172.93" fill="none" stroke="#003a50" stroke-linecap="round" stroke-linejoin="round" stroke-width="0.96"/><line x1="52.68" y1="-404.99" x2="52.68" y2="944.13" fill="none" stroke="#003a50" stroke-miterlimit="10"/><polyline points="929.02 710.12 929.02 -416.29 913.62 -416.49 63.99 -416.49 40.99 -393.49 40.99 953.03 161.33 953.03 161.33 2123.95" fill="none" stroke="#003a50" stroke-miterlimit="10"/></g><rect x="68.97" y="28.59" width="4.55" height="70.66" fill="#fff"/><rect x="68.97" y="28.59" width="4.55" height="70.66" fill="none" stroke="#003a50" stroke-miterlimit="10"/><line x1="71.25" y1="28.59" x2="71.25" y2="99.25" fill="none" stroke="#003a50" stroke-miterlimit="10"/><rect x="68.97" y="28.59" width="4.55" height="4.47" fill="#fff"/><rect x="68.97" y="28.59" width="4.55" height="4.47" fill="none" stroke="#003a50" stroke-miterlimit="10"/><rect x="68.97" y="94.78" width="4.55" height="4.47" fill="#fff"/><rect x="68.97" y="94.78" width="4.55" height="4.47" fill="none" stroke="#003a50" stroke-miterlimit="10"/><rect x="68.97" y="59.45" width="4.55" height="4.47" fill="#fff"/><rect x="68.97" y="59.45" width="4.55" height="4.47" fill="none" stroke="#003a50" stroke-miterlimit="10"/><g clip-path="url(#clip-path)"><path d="M73.52,63.92h2.54c17.6,0,28.91,13.82,28.91,30.86H73.52" fill="none" stroke="#003a50" stroke-miterlimit="10"/><path d="M73.52,222.76h2.54c17.6,0,28.91,14,28.91,31.19H73.52" fill="none" stroke="#003a50" stroke-miterlimit="10"/></g><g clip-path="url(#clip-path)"><line x1="13.72" y1="-58.63" x2="13.72" y2="27.65" fill="none" stroke="#003a50" stroke-linecap="round" stroke-linejoin="round" stroke-width="0.4"/><line x1="13.72" y1="27.65" x2="11.89" y2="34.46" fill="none" stroke="#003a50" stroke-linecap="round" stroke-linejoin="round" stroke-width="0.4"/></g><line x1="11.89" y1="34.46" x2="15.54" y2="34.46" fill="none" stroke="#003a50" stroke-linecap="round" stroke-linejoin="round" stroke-width="0.4"/><g clip-path="url(#clip-path)"><line x1="15.54" y1="34.46" x2="13.72" y2="27.65" fill="none" stroke="#003a50" stroke-linecap="round" stroke-linejoin="round" stroke-width="0.4"/></g><polygon points="11.89 34.46 15.54 34.46 13.72 27.65 11.89 34.46" fill="#003a50"/><g clip-path="url(#clip-path)"><line x1="13.72" y1="27.65" x2="15.54" y2="20.84" fill="none" stroke="#003a50" stroke-linecap="round" stroke-linejoin="round" stroke-width="0.4"/><line x1="11.89" y1="20.84" x2="13.72" y2="27.65" fill="none" stroke="#003a50" stroke-linecap="round" stroke-linejoin="round" stroke-width="0.4"/></g><polygon points="13.66 27.44 13.72 27.65 13.77 27.44 13.66 27.44" fill="#003a50"/><g clip-path="url(#clip-path)"><line x1="44.18" y1="27.65" x2="12.36" y2="27.65" fill="none" stroke="#003a50" stroke-linecap="round" stroke-linejoin="round" stroke-width="0.4"/><line x1="13.72" y1="27.65" x2="44.18" y2="27.65" fill="none" stroke="#003a50" stroke-linecap="round" stroke-linejoin="round" stroke-width="0.4"/><line x1="13.72" y1="27.65" x2="13.72" y2="100.31" fill="none" stroke="#003a50" stroke-linecap="round" stroke-linejoin="round" stroke-width="0.4"/><line x1="13.72" y1="100.3" x2="11.89" y2="107.12" fill="none" stroke="#003a50" stroke-linecap="round" stroke-linejoin="round" stroke-width="0.4"/><line x1="15.54" y1="107.12" x2="13.72" y2="100.3" fill="none" stroke="#003a50" stroke-linecap="round" stroke-linejoin="round" stroke-width="0.4"/></g><polygon points="13.68 100.43 13.75 100.43 13.71 100.3 13.68 100.43" fill="#003a50"/><g clip-path="url(#clip-path)"><line x1="13.72" y1="100.3" x2="15.54" y2="93.49" fill="none" stroke="#003a50" stroke-linecap="round" stroke-linejoin="round" stroke-width="0.4"/></g><line x1="15.54" y1="93.49" x2="11.89" y2="93.49" fill="none" stroke="#003a50" stroke-linecap="round" stroke-linejoin="round" stroke-width="0.4"/><g clip-path="url(#clip-path)"><line x1="11.89" y1="93.49" x2="13.72" y2="100.31" fill="none" stroke="#003a50" stroke-linecap="round" stroke-linejoin="round" stroke-width="0.4"/></g><polygon points="11.89 93.49 13.72 100.31 15.54 93.49 11.89 93.49" fill="#003a50"/><g clip-path="url(#clip-path)"><line x1="44.18" y1="100.3" x2="12.36" y2="100.3" fill="none" stroke="#003a50" stroke-linecap="round" stroke-linejoin="round" stroke-width="0.4"/><line x1="13.72" y1="100.3" x2="44.18" y2="100.3" fill="none" stroke="#003a50" stroke-linecap="round" stroke-linejoin="round" stroke-width="0.4"/><line x1="13.72" y1="27.65" x2="11.89" y2="34.46" fill="none" stroke="#003a50" stroke-linecap="round" stroke-linejoin="round" stroke-width="0.4"/></g><line x1="11.89" y1="34.46" x2="15.54" y2="34.46" fill="none" stroke="#003a50" stroke-linecap="round" stroke-linejoin="round" stroke-width="0.4"/><g clip-path="url(#clip-path)"><line x1="15.54" y1="34.46" x2="13.72" y2="27.65" fill="none" stroke="#003a50" stroke-linecap="round" stroke-linejoin="round" stroke-width="0.4"/></g><polygon points="11.89 34.46 15.54 34.46 13.72 27.65 11.89 34.46" fill="#003a50"/><g clip-path="url(#clip-path)"><line x1="13.72" y1="27.65" x2="15.54" y2="20.84" fill="none" stroke="#003a50" stroke-linecap="round" stroke-linejoin="round" stroke-width="0.4"/><line x1="11.89" y1="20.84" x2="13.72" y2="27.65" fill="none" stroke="#003a50" stroke-linecap="round" stroke-linejoin="round" stroke-width="0.4"/></g><polygon points="13.66 27.44 13.72 27.65 13.77 27.44 13.66 27.44" fill="#003a50"/><g clip-path="url(#clip-path)"><line x1="44.18" y1="27.65" x2="12.36" y2="27.65" fill="none" stroke="#003a50" stroke-linecap="round" stroke-linejoin="round" stroke-width="0.4"/><line x1="13.72" y1="27.65" x2="44.18" y2="27.65" fill="none" stroke="#003a50" stroke-linecap="round" stroke-linejoin="round" stroke-width="0.4"/><path d="M3.22,72.77H10v.69H3.84v1.59H3.22Z" fill="#003a50"/><path d="M6.17,67.19a2,2,0,0,1,.71-.8,1.9,1.9,0,0,1,1.06-.29A2,2,0,0,1,9,66.4a1.94,1.94,0,0,1,.73.82A2.65,2.65,0,0,1,10,68.4a2.48,2.48,0,0,1-.88,2,3.87,3.87,0,0,1-2.48.71,4.22,4.22,0,0,1-1.91-.39A2.67,2.67,0,0,1,3.56,69.7a3.27,3.27,0,0,1-.4-1.62,3,3,0,0,1,.37-1.6l.56.28a2.29,2.29,0,0,0-.32,1.31,2.19,2.19,0,0,0,.71,1.75,2.93,2.93,0,0,0,2.05.64l.55,0a1.83,1.83,0,0,1-.85-.8,2.5,2.5,0,0,1-.31-1.26A2.76,2.76,0,0,1,6.17,67.19Zm2.86,0A1.34,1.34,0,0,0,8,66.78a1.33,1.33,0,0,0-1.06.46,1.83,1.83,0,0,0-.39,1.23,2,2,0,0,0,.19.9,1.61,1.61,0,0,0,.53.62,1.43,1.43,0,0,0,.75.22A1.26,1.26,0,0,0,8.69,70a1.45,1.45,0,0,0,.53-.61,2.06,2.06,0,0,0,.21-1A1.76,1.76,0,0,0,9,67.24Z" fill="#003a50"/><path d="M9.6,64A2.78,2.78,0,0,1,8.41,65a4.45,4.45,0,0,1-1.82.34A4.49,4.49,0,0,1,4.76,65,2.75,2.75,0,0,1,3.58,64a2.51,2.51,0,0,1,0-2.78,2.7,2.7,0,0,1,1.18-1,4.49,4.49,0,0,1,1.83-.35,4.44,4.44,0,0,1,1.82.35,2.73,2.73,0,0,1,1.19,1A2.56,2.56,0,0,1,9.6,64Zm-.55-2.43a2.17,2.17,0,0,0-1-.7,4.22,4.22,0,0,0-1.51-.25,4.18,4.18,0,0,0-1.51.25,2.15,2.15,0,0,0-1,.7,1.83,1.83,0,0,0,0,2.07,2.15,2.15,0,0,0,1,.7,4.18,4.18,0,0,0,1.51.25,4.22,4.22,0,0,0,1.51-.25,2.17,2.17,0,0,0,1-.7,1.79,1.79,0,0,0,0-2.07Z" fill="#003a50"/><path d="M9.6,57.64a2.71,2.71,0,0,1-1.19,1,4.45,4.45,0,0,1-1.82.34,4.49,4.49,0,0,1-1.83-.34,2.68,2.68,0,0,1-1.18-1,2.51,2.51,0,0,1,0-2.78,2.7,2.7,0,0,1,1.18-1,4.49,4.49,0,0,1,1.83-.35,4.44,4.44,0,0,1,1.82.35,2.73,2.73,0,0,1,1.19,1,2.56,2.56,0,0,1,0,2.78Zm-.55-2.43a2.08,2.08,0,0,0-1-.69,4,4,0,0,0-1.51-.25,4,4,0,0,0-1.51.25,2.06,2.06,0,0,0-1,.69,1.78,1.78,0,0,0-.32,1,1.75,1.75,0,0,0,.32,1,2.15,2.15,0,0,0,1,.7,4,4,0,0,0,1.51.25A4,4,0,0,0,8.1,58a2.17,2.17,0,0,0,1-.7,1.69,1.69,0,0,0,.33-1A1.72,1.72,0,0,0,9.05,55.21Z" fill="#003a50"/><line x1="13.72" y1="100.3" x2="13.72" y2="186.58" fill="none" stroke="#003a50" stroke-linecap="round" stroke-linejoin="round" stroke-width="0.4"/><line x1="13.72" y1="100.3" x2="11.89" y2="107.12" fill="none" stroke="#003a50" stroke-linecap="round" stroke-linejoin="round" stroke-width="0.4"/><line x1="15.54" y1="107.12" x2="13.72" y2="100.3" fill="none" stroke="#003a50" stroke-linecap="round" stroke-linejoin="round" stroke-width="0.4"/></g><polygon points="13.68 100.43 13.75 100.43 13.71 100.3 13.68 100.43" fill="#003a50"/><g clip-path="url(#clip-path)"><line x1="13.72" y1="100.3" x2="15.54" y2="93.49" fill="none" stroke="#003a50" stroke-linecap="round" stroke-linejoin="round" stroke-width="0.4"/></g><line x1="15.54" y1="93.49" x2="11.89" y2="93.49" fill="none" stroke="#003a50" stroke-linecap="round" stroke-linejoin="round" stroke-width="0.4"/><g clip-path="url(#clip-path)"><line x1="11.89" y1="93.49" x2="13.72" y2="100.31" fill="none" stroke="#003a50" stroke-linecap="round" stroke-linejoin="round" stroke-width="0.4"/></g><polygon points="11.89 93.49 13.72 100.31 15.54 93.49 11.89 93.49" fill="#003a50"/><g clip-path="url(#clip-path)"><line x1="44.18" y1="100.3" x2="12.36" y2="100.3" fill="none" stroke="#003a50" stroke-linecap="round" stroke-linejoin="round" stroke-width="0.4"/><line x1="13.72" y1="100.3" x2="44.18" y2="100.3" fill="none" stroke="#003a50" stroke-linecap="round" stroke-linejoin="round" stroke-width="0.4"/><path d="M3.22,152.23H10v.7H3.84v1.58H3.22Z" fill="#003a50"/><path d="M4,146.48a3.91,3.91,0,0,1,2.49-.71,4.32,4.32,0,0,1,1.9.38,2.7,2.7,0,0,1,1.18,1.08,3.14,3.14,0,0,1,.4,1.62,3,3,0,0,1-.36,1.59l-.56-.27a2.4,2.4,0,0,0,.32-1.31,2.22,2.22,0,0,0-.71-1.75,3,3,0,0,0-2-.64l-.55,0a1.83,1.83,0,0,1,.85.8,2.61,2.61,0,0,1,.3,1.26A2.65,2.65,0,0,1,7,149.74a1.9,1.9,0,0,1-.71.8,1.93,1.93,0,0,1-1.06.29,2,2,0,0,1-1.09-.3,2,2,0,0,1-.72-.82,2.66,2.66,0,0,1-.26-1.18A2.51,2.51,0,0,1,4,146.48Zm2.43,1.07a1.5,1.5,0,0,0-.53-.61,1.37,1.37,0,0,0-.75-.22,1.31,1.31,0,0,0-.71.21,1.52,1.52,0,0,0-.53.61,2.19,2.19,0,0,0-.2,1,1.71,1.71,0,0,0,.4,1.19,1.36,1.36,0,0,0,1.06.46,1.35,1.35,0,0,0,1.06-.46,1.85,1.85,0,0,0,.4-1.24A2,2,0,0,0,6.47,147.55Z" fill="#003a50"/><path d="M9.6,143.47a2.73,2.73,0,0,1-1.19,1,4.45,4.45,0,0,1-1.82.34,4.49,4.49,0,0,1-1.83-.34,2.7,2.7,0,0,1-1.18-1,2.37,2.37,0,0,1-.42-1.38,2.43,2.43,0,0,1,.42-1.4,2.75,2.75,0,0,1,1.18-.95,4.49,4.49,0,0,1,1.83-.35,4.44,4.44,0,0,1,1.82.35,2.78,2.78,0,0,1,1.19.95,2.42,2.42,0,0,1,.41,1.4A2.36,2.36,0,0,1,9.6,143.47Zm-.55-2.42a2.11,2.11,0,0,0-1-.7,4.22,4.22,0,0,0-1.51-.25,4.18,4.18,0,0,0-1.51.25,2.15,2.15,0,0,0-1,.7,1.83,1.83,0,0,0,0,2.07,2.15,2.15,0,0,0,1,.7,4.18,4.18,0,0,0,1.51.25,4.22,4.22,0,0,0,1.51-.25,2.11,2.11,0,0,0,1-.7,1.79,1.79,0,0,0,0-2.07Z" fill="#003a50"/><path d="M9.6,137.11a2.78,2.78,0,0,1-1.19.95,4.45,4.45,0,0,1-1.82.34,4.49,4.49,0,0,1-1.83-.34,2.75,2.75,0,0,1-1.18-.95,2.51,2.51,0,0,1,0-2.78,2.7,2.7,0,0,1,1.18-1A4.49,4.49,0,0,1,6.59,133a4.44,4.44,0,0,1,1.82.35,2.73,2.73,0,0,1,1.19,1,2.56,2.56,0,0,1,0,2.78Zm-.55-2.43a2.11,2.11,0,0,0-1-.7,4.22,4.22,0,0,0-1.51-.25,4.18,4.18,0,0,0-1.51.25,2.15,2.15,0,0,0-1,.7,1.78,1.78,0,0,0-.32,1,1.75,1.75,0,0,0,.32,1,2.15,2.15,0,0,0,1,.7,4.18,4.18,0,0,0,1.51.25,4.22,4.22,0,0,0,1.51-.25,2.11,2.11,0,0,0,1-.7,1.69,1.69,0,0,0,.33-1A1.72,1.72,0,0,0,9.05,134.68Z" fill="#003a50"/><path d="M9.6,222.94a2.73,2.73,0,0,1-1.19,1,4.62,4.62,0,0,1-1.82.34,4.67,4.67,0,0,1-1.83-.34,2.7,2.7,0,0,1-1.18-1,2.51,2.51,0,0,1,0-2.78,2.68,2.68,0,0,1,1.18-.95,4.33,4.33,0,0,1,1.83-.35,4.28,4.28,0,0,1,1.82.35,2.71,2.71,0,0,1,1.19.95,2.56,2.56,0,0,1,0,2.78Zm-.55-2.42a2.11,2.11,0,0,0-1-.7,4,4,0,0,0-1.51-.25,4,4,0,0,0-1.51.25,2.15,2.15,0,0,0-1,.7,1.75,1.75,0,0,0-.32,1,1.78,1.78,0,0,0,.32,1,2.13,2.13,0,0,0,1,.69,4,4,0,0,0,1.51.25,4,4,0,0,0,1.51-.25,2.1,2.1,0,0,0,1-.69,1.72,1.72,0,0,0,.33-1A1.69,1.69,0,0,0,9.05,220.52Z" fill="#003a50"/><path d="M9.6,216.57a2.73,2.73,0,0,1-1.19,1,4.62,4.62,0,0,1-1.82.34,4.67,4.67,0,0,1-1.83-.34,2.7,2.7,0,0,1-1.18-1,2.51,2.51,0,0,1,0-2.78,2.75,2.75,0,0,1,1.18-.95,4.49,4.49,0,0,1,1.83-.35,4.44,4.44,0,0,1,1.82.35,2.78,2.78,0,0,1,1.19.95,2.56,2.56,0,0,1,0,2.78Zm-.55-2.42a2.11,2.11,0,0,0-1-.7,4.22,4.22,0,0,0-1.51-.25,4.18,4.18,0,0,0-1.51.25,2.15,2.15,0,0,0-1,.7,1.83,1.83,0,0,0,0,2.07,2.15,2.15,0,0,0,1,.7,4.18,4.18,0,0,0,1.51.25,4.22,4.22,0,0,0,1.51-.25,2.11,2.11,0,0,0,1-.7,1.79,1.79,0,0,0,0-2.07Z" fill="#003a50"/></g><g clip-path="url(#clip-path)"><line x1="113.96" y1="163.88" x2="113.96" y2="300.11" fill="none" stroke="#003a50" stroke-linecap="round" stroke-linejoin="round" stroke-width="0.4"/><line x1="113.96" y1="163.88" x2="112.13" y2="170.69" fill="none" stroke="#003a50" stroke-linecap="round" stroke-linejoin="round" stroke-width="0.4"/><line x1="115.78" y1="170.69" x2="113.96" y2="163.88" fill="none" stroke="#003a50" stroke-linecap="round" stroke-linejoin="round" stroke-width="0.4"/><polygon points="112.13 170.69 115.78 170.69 113.95 163.88 112.13 170.69" fill="#003a50"/><line x1="117.41" y1="163.88" x2="112.59" y2="163.88" fill="none" stroke="#003a50" stroke-linecap="round" stroke-linejoin="round" stroke-width="0.4"/><line x1="113.96" y1="163.88" x2="117.41" y2="163.88" fill="none" stroke="#003a50" stroke-linecap="round" stroke-linejoin="round" stroke-width="0.4"/><path d="M109.84,221.73a2.64,2.64,0,0,1-1.19,1,5.07,5.07,0,0,1-3.65,0,2.7,2.7,0,0,1-1.19-1,2.56,2.56,0,0,1,0-2.78,2.79,2.79,0,0,1,1.19-1,5.07,5.07,0,0,1,3.65,0,2.73,2.73,0,0,1,1.19,1,2.56,2.56,0,0,1,0,2.78Zm-.55-2.42a2.17,2.17,0,0,0-1-.7,4,4,0,0,0-1.51-.25,4.07,4.07,0,0,0-1.52.25,2.17,2.17,0,0,0-1,.7,1.73,1.73,0,0,0-.32,1,1.78,1.78,0,0,0,.32,1,2.15,2.15,0,0,0,1,.69,4.07,4.07,0,0,0,1.52.25,4,4,0,0,0,1.51-.25,2.15,2.15,0,0,0,1-.69,1.72,1.72,0,0,0,.33-1A1.67,1.67,0,0,0,109.29,219.31Z" fill="#003a50"/><path d="M109.84,215.36a2.73,2.73,0,0,1-1.19,1,5.07,5.07,0,0,1-3.65,0,2.79,2.79,0,0,1-1.19-1,2.56,2.56,0,0,1,0-2.78,2.77,2.77,0,0,1,1.19-1,4.93,4.93,0,0,1,3.65,0,2.71,2.71,0,0,1,1.19,1,2.56,2.56,0,0,1,0,2.78Zm-.55-2.42a2.17,2.17,0,0,0-1-.7,4,4,0,0,0-1.51-.25,4.07,4.07,0,0,0-1.52.25,2.17,2.17,0,0,0-1,.7,1.75,1.75,0,0,0-.32,1,1.78,1.78,0,0,0,.32,1,2.15,2.15,0,0,0,1,.69,4.07,4.07,0,0,0,1.52.25,4,4,0,0,0,1.51-.25,2.15,2.15,0,0,0,1-.69,1.72,1.72,0,0,0,.33-1A1.69,1.69,0,0,0,109.29,212.94Z" fill="#003a50"/></g><line x1="113.96" y1="14.03" x2="113.96" y2="150.25" fill="none" stroke="#003a50" stroke-linecap="round" stroke-linejoin="round" stroke-width="0.4"/><line x1="113.96" y1="150.26" x2="115.78" y2="143.44" fill="none" stroke="#003a50" stroke-linecap="round" stroke-linejoin="round" stroke-width="0.4"/><line x1="115.78" y1="143.44" x2="112.13" y2="143.44" fill="none" stroke="#003a50" stroke-linecap="round" stroke-linejoin="round" stroke-width="0.4"/><line x1="112.13" y1="143.44" x2="113.95" y2="150.26" fill="none" stroke="#003a50" stroke-linecap="round" stroke-linejoin="round" stroke-width="0.4"/><polygon points="112.13 143.44 113.95 150.25 115.78 143.44 112.13 143.44" fill="#003a50"/><line x1="117.41" y1="150.26" x2="112.59" y2="150.26" fill="none" stroke="#003a50" stroke-linecap="round" stroke-linejoin="round" stroke-width="0.4"/><line x1="113.96" y1="150.26" x2="117.41" y2="150.26" fill="none" stroke="#003a50" stroke-linecap="round" stroke-linejoin="round" stroke-width="0.4"/><line x1="113.96" y1="14.03" x2="112.13" y2="20.84" fill="none" stroke="#003a50" stroke-linecap="round" stroke-linejoin="round" stroke-width="0.4"/><line x1="112.13" y1="20.84" x2="115.78" y2="20.84" fill="none" stroke="#003a50" stroke-linecap="round" stroke-linejoin="round" stroke-width="0.4"/><line x1="115.78" y1="20.84" x2="113.96" y2="14.03" fill="none" stroke="#003a50" stroke-linecap="round" stroke-linejoin="round" stroke-width="0.4"/><polygon points="112.13 20.84 115.78 20.84 113.95 14.03 112.13 20.84" fill="#003a50"/><line x1="117.41" y1="14.03" x2="112.59" y2="14.03" fill="none" stroke="#003a50" stroke-linecap="round" stroke-linejoin="round" stroke-width="0.4"/><line x1="113.96" y1="14.03" x2="117.41" y2="14.03" fill="none" stroke="#003a50" stroke-linecap="round" stroke-linejoin="round" stroke-width="0.4"/><g clip-path="url(#clip-path)"><path d="M106.92,71.4a1.74,1.74,0,0,1,1.34-.55,1.86,1.86,0,0,1,1,.28A1.88,1.88,0,0,1,110,72a3.12,3.12,0,0,1,.26,1.33,3.93,3.93,0,0,1-.24,1.38,2.59,2.59,0,0,1-.63,1l-.54-.34a2.52,2.52,0,0,0,.56-.89,3.41,3.41,0,0,0,.22-1.2,2,2,0,0,0-.37-1.28,1.2,1.2,0,0,0-1-.45,1.17,1.17,0,0,0-1,.45,2.2,2.2,0,0,0-.36,1.37v.48h-.51L104.07,72v3.45h-.61V71.11H104l2.39,1.9A2.48,2.48,0,0,1,106.92,71.4Z" fill="#003a50"/><path d="M109.84,68.58a2.79,2.79,0,0,1-1.19,1,5.07,5.07,0,0,1-3.65,0,2.79,2.79,0,0,1-1.19-1,2.56,2.56,0,0,1,0-2.78,2.84,2.84,0,0,1,1.19-1,4.93,4.93,0,0,1,3.65,0,2.84,2.84,0,0,1,1.19,1,2.56,2.56,0,0,1,0,2.78Zm-.55-2.42a2.17,2.17,0,0,0-1-.7,4.72,4.72,0,0,0-3,0,2.17,2.17,0,0,0-1,.7,1.83,1.83,0,0,0,0,2.07,2.17,2.17,0,0,0,1,.7,4.72,4.72,0,0,0,3,0,2.17,2.17,0,0,0,1-.7,1.79,1.79,0,0,0,0-2.07Z" fill="#003a50"/><path d="M109.84,62.22a2.84,2.84,0,0,1-1.19,1,5.07,5.07,0,0,1-3.65,0,2.84,2.84,0,0,1-1.19-1,2.49,2.49,0,0,1-.41-1.39,2.44,2.44,0,0,1,.41-1.39,2.79,2.79,0,0,1,1.19-1,4.93,4.93,0,0,1,3.65,0,2.79,2.79,0,0,1,1.19,1,2.44,2.44,0,0,1,.41,1.39A2.49,2.49,0,0,1,109.84,62.22Zm-.55-2.43a2.17,2.17,0,0,0-1-.7,4.72,4.72,0,0,0-3,0,2.17,2.17,0,0,0-1,.7,1.83,1.83,0,0,0,0,2.07,2.17,2.17,0,0,0,1,.7,4.72,4.72,0,0,0,3,0,2.17,2.17,0,0,0,1-.7,1.79,1.79,0,0,0,0-2.07Z" fill="#003a50"/><path d="M109.84,55.85a2.84,2.84,0,0,1-1.19.95,5.07,5.07,0,0,1-3.65,0,2.84,2.84,0,0,1-1.19-.95,2.56,2.56,0,0,1,0-2.78,2.79,2.79,0,0,1,1.19-1,4.93,4.93,0,0,1,3.65,0,2.79,2.79,0,0,1,1.19,1,2.56,2.56,0,0,1,0,2.78Zm-.55-2.43a2.08,2.08,0,0,0-1-.69,4.54,4.54,0,0,0-3,0,2.08,2.08,0,0,0-1,.69,1.71,1.71,0,0,0-.32,1,1.68,1.68,0,0,0,.32,1,2.17,2.17,0,0,0,1,.7,4.72,4.72,0,0,0,3,0,2.17,2.17,0,0,0,1-.7,1.69,1.69,0,0,0,.33-1A1.72,1.72,0,0,0,109.29,53.42Z" fill="#003a50"/><line x1="110.22" y1="-192.59" x2="110.22" y2="0.4" fill="none" stroke="#003a50" stroke-linecap="round" stroke-linejoin="round" stroke-width="0.4"/><line x1="110.22" y1="0.4" x2="112.04" y2="-6.41" fill="none" stroke="#003a50" stroke-linecap="round" stroke-linejoin="round" stroke-width="0.4"/><line x1="108.39" y1="-6.41" x2="110.21" y2="0.4" fill="none" stroke="#003a50" stroke-linecap="round" stroke-linejoin="round" stroke-width="0.4"/></g><polygon points="110.2 0.35 110.22 0.41 110.23 0.35 110.2 0.35" fill="#003a50"/><g clip-path="url(#clip-path)"><line x1="113.67" y1="0.4" x2="108.85" y2="0.4" fill="none" stroke="#003a50" stroke-linecap="round" stroke-linejoin="round" stroke-width="0.4"/><line x1="110.22" y1="0.4" x2="113.67" y2="0.4" fill="none" stroke="#003a50" stroke-linecap="round" stroke-linejoin="round" stroke-width="0.4"/><line x1="311.51" y1="-26.84" x2="311.51" y2="0.4" fill="none" stroke="#003a50" stroke-linecap="round" stroke-linejoin="round" stroke-width="0.4"/><line x1="311.51" y1="0.4" x2="313.34" y2="-6.41" fill="none" stroke="#003a50" stroke-linecap="round" stroke-linejoin="round" stroke-width="0.4"/><line x1="309.69" y1="-6.41" x2="311.51" y2="0.4" fill="none" stroke="#003a50" stroke-linecap="round" stroke-linejoin="round" stroke-width="0.4"/></g><polygon points="311.5 0.35 311.51 0.41 311.53 0.35 311.5 0.35" fill="#003a50"/><g clip-path="url(#clip-path)"><line x1="314.97" y1="0.4" x2="310.15" y2="0.4" fill="none" stroke="#003a50" stroke-linecap="round" stroke-linejoin="round" stroke-width="0.4"/><line x1="311.51" y1="0.4" x2="314.97" y2="0.4" fill="none" stroke="#003a50" stroke-linecap="round" stroke-linejoin="round" stroke-width="0.4"/><line x1="349.62" y1="-26.84" x2="349.62" y2="0.4" fill="none" stroke="#003a50" stroke-linecap="round" stroke-linejoin="round" stroke-width="0.4"/><line x1="349.62" y1="0.4" x2="351.44" y2="-6.41" fill="none" stroke="#003a50" stroke-linecap="round" stroke-linejoin="round" stroke-width="0.4"/><line x1="347.8" y1="-6.41" x2="349.62" y2="0.4" fill="none" stroke="#003a50" stroke-linecap="round" stroke-linejoin="round" stroke-width="0.4"/></g><polygon points="349.61 0.35 349.62 0.41 349.63 0.35 349.61 0.35" fill="#003a50"/><g clip-path="url(#clip-path)"><line x1="353.08" y1="0.4" x2="348.26" y2="0.4" fill="none" stroke="#003a50" stroke-linecap="round" stroke-linejoin="round" stroke-width="0.4"/><line x1="349.62" y1="0.4" x2="353.08" y2="0.4" fill="none" stroke="#003a50" stroke-linecap="round" stroke-linejoin="round" stroke-width="0.4"/></g><line x1="447.42" y1="45.81" x2="447.42" y2="91.22" fill="none" stroke="#003a50" stroke-linecap="round" stroke-linejoin="round" stroke-width="0.4"/><line x1="447.42" y1="91.22" x2="449.25" y2="84.41" fill="none" stroke="#003a50" stroke-linecap="round" stroke-linejoin="round" stroke-width="0.4"/><line x1="449.25" y1="84.41" x2="445.6" y2="84.41" fill="none" stroke="#003a50" stroke-linecap="round" stroke-linejoin="round" stroke-width="0.4"/><line x1="445.6" y1="84.41" x2="447.42" y2="91.22" fill="none" stroke="#003a50" stroke-linecap="round" stroke-linejoin="round" stroke-width="0.4"/><polygon points="445.6 84.41 447.42 91.22 449.25 84.41 445.6 84.41" fill="#003a50"/><line x1="450.88" y1="91.22" x2="446.06" y2="91.22" fill="none" stroke="#003a50" stroke-linecap="round" stroke-linejoin="round" stroke-width="0.4"/><line x1="447.42" y1="91.22" x2="450.88" y2="91.22" fill="none" stroke="#003a50" stroke-linecap="round" stroke-linejoin="round" stroke-width="0.4"/><line x1="447.42" y1="45.81" x2="445.6" y2="52.63" fill="none" stroke="#003a50" stroke-linecap="round" stroke-linejoin="round" stroke-width="0.4"/><line x1="445.6" y1="52.62" x2="449.25" y2="52.62" fill="none" stroke="#003a50" stroke-linecap="round" stroke-linejoin="round" stroke-width="0.4"/><line x1="449.25" y1="52.62" x2="447.42" y2="45.81" fill="none" stroke="#003a50" stroke-linecap="round" stroke-linejoin="round" stroke-width="0.4"/><polygon points="445.6 52.63 449.25 52.63 447.42 45.81 445.6 52.63" fill="#003a50"/><line x1="450.88" y1="45.81" x2="446.06" y2="45.81" fill="none" stroke="#003a50" stroke-linecap="round" stroke-linejoin="round" stroke-width="0.4"/><line x1="447.42" y1="45.81" x2="450.88" y2="45.81" fill="none" stroke="#003a50" stroke-linecap="round" stroke-linejoin="round" stroke-width="0.4"/><g clip-path="url(#clip-path)"><path d="M436.92,77.57h6.74v.69h-6.12v1.59h-.62Z" fill="#003a50"/><path d="M443.3,74.67a2.62,2.62,0,0,1-1.18,1,4.49,4.49,0,0,1-1.83.34,4.45,4.45,0,0,1-1.82-.34,2.64,2.64,0,0,1-1.19-1,2.56,2.56,0,0,1,0-2.78,2.73,2.73,0,0,1,1.19-1,4.45,4.45,0,0,1,1.82-.34,4.49,4.49,0,0,1,1.83.34,2.7,2.7,0,0,1,1.18,1,2.51,2.51,0,0,1,0,2.78Zm-.55-2.42a2.06,2.06,0,0,0-.95-.7,4.69,4.69,0,0,0-3,0,2.17,2.17,0,0,0-.95.7,1.77,1.77,0,0,0,0,2.06,2.1,2.1,0,0,0,.95.7,4.69,4.69,0,0,0,3,0,2,2,0,0,0,.95-.7,1.77,1.77,0,0,0,0-2.06Z" fill="#003a50"/><path d="M443.3,68.3a2.62,2.62,0,0,1-1.18,1,4.49,4.49,0,0,1-1.83.35,4.44,4.44,0,0,1-1.82-.35,2.64,2.64,0,0,1-1.19-1,2.56,2.56,0,0,1,0-2.78,2.8,2.8,0,0,1,1.19-1,4.45,4.45,0,0,1,1.82-.34,4.49,4.49,0,0,1,1.83.34,2.77,2.77,0,0,1,1.18,1,2.51,2.51,0,0,1,0,2.78Zm-.55-2.42a2.06,2.06,0,0,0-.95-.7,4.69,4.69,0,0,0-3,0,2.17,2.17,0,0,0-.95.7,1.67,1.67,0,0,0-.33,1,1.72,1.72,0,0,0,.33,1,2.15,2.15,0,0,0,.95.69,4.69,4.69,0,0,0,3,0,2,2,0,0,0,.95-.69,1.72,1.72,0,0,0,.33-1A1.67,1.67,0,0,0,442.75,65.88Z" fill="#003a50"/><path d="M443.3,61.93a2.62,2.62,0,0,1-1.18,1,4.49,4.49,0,0,1-1.83.35,4.44,4.44,0,0,1-1.82-.35,2.64,2.64,0,0,1-1.19-1,2.56,2.56,0,0,1,0-2.78,2.88,2.88,0,0,1,1.19-1,4.45,4.45,0,0,1,1.82-.34,4.49,4.49,0,0,1,1.83.34,2.85,2.85,0,0,1,1.18,1,2.51,2.51,0,0,1,0,2.78Zm-.55-2.42a2.06,2.06,0,0,0-.95-.7,4.69,4.69,0,0,0-3,0,2.17,2.17,0,0,0-.95.7,1.69,1.69,0,0,0-.33,1,1.72,1.72,0,0,0,.33,1,2.08,2.08,0,0,0,.95.69,4.69,4.69,0,0,0,3,0,2,2,0,0,0,.95-.69,1.72,1.72,0,0,0,.33-1A1.69,1.69,0,0,0,442.75,59.51Z" fill="#003a50"/></g><line x1="85.5" y1="27.88" x2="312.55" y2="27.88" fill="none" stroke="#003a50" stroke-linecap="round" stroke-linejoin="round" stroke-width="0.4"/><line x1="312.55" y1="27.88" x2="305.74" y2="26.05" fill="none" stroke="#003a50" stroke-linecap="round" stroke-linejoin="round" stroke-width="0.4"/><line x1="305.74" y1="26.05" x2="305.74" y2="29.7" fill="none" stroke="#003a50" stroke-linecap="round" stroke-linejoin="round" stroke-width="0.4"/><line x1="305.74" y1="29.7" x2="312.55" y2="27.88" fill="none" stroke="#003a50" stroke-linecap="round" stroke-linejoin="round" stroke-width="0.4"/><polygon points="305.74 29.7 312.55 27.88 305.74 26.05 305.74 29.7" fill="#003a50"/><line x1="312.55" y1="24.42" x2="312.55" y2="29.24" fill="none" stroke="#003a50" stroke-linecap="round" stroke-linejoin="round" stroke-width="0.4"/><line x1="312.55" y1="27.88" x2="312.55" y2="24.42" fill="none" stroke="#003a50" stroke-linecap="round" stroke-linejoin="round" stroke-width="0.4"/><line x1="85.5" y1="27.88" x2="92.31" y2="29.7" fill="none" stroke="#003a50" stroke-linecap="round" stroke-linejoin="round" stroke-width="0.4"/><line x1="92.31" y1="29.7" x2="92.31" y2="26.05" fill="none" stroke="#003a50" stroke-linecap="round" stroke-linejoin="round" stroke-width="0.4"/><line x1="92.31" y1="26.05" x2="85.5" y2="27.87" fill="none" stroke="#003a50" stroke-linecap="round" stroke-linejoin="round" stroke-width="0.4"/><polygon points="85.5 27.88 92.31 29.7 92.31 26.05 85.5 27.88" fill="#003a50"/><line x1="85.5" y1="29.01" x2="85.5" y2="26.51" fill="none" stroke="#003a50" stroke-linecap="round" stroke-linejoin="round" stroke-width="0.4"/><line x1="85.5" y1="27.88" x2="85.5" y2="29.01" fill="none" stroke="#003a50" stroke-linecap="round" stroke-linejoin="round" stroke-width="0.4"/><g clip-path="url(#clip-path)"><path d="M190.84,20.67a1.73,1.73,0,0,1,.67,1.46,2.05,2.05,0,0,1-.27,1.05,1.89,1.89,0,0,1-.82.73,3.07,3.07,0,0,1-1.35.26,4.15,4.15,0,0,1-1.37-.23,3,3,0,0,1-1-.63l.34-.55a2.47,2.47,0,0,0,.89.56,3.06,3.06,0,0,0,1.18.22,2,2,0,0,0,1.29-.38,1.33,1.33,0,0,0,0-2.05,3.29,3.29,0,0,0-1.74-.35h-1.43l.34-3.38h3.69V18h-3.08l-.23,2.14h.86A3.43,3.43,0,0,1,190.84,20.67Z" fill="#003a50"/><path d="M193.68,23.76a2.71,2.71,0,0,1-1-1.19,4.45,4.45,0,0,1-.34-1.82,4.49,4.49,0,0,1,.34-1.83,2.68,2.68,0,0,1,1-1.18,2.51,2.51,0,0,1,2.78,0,2.7,2.7,0,0,1,1,1.18,4.49,4.49,0,0,1,.35,1.83,4.44,4.44,0,0,1-.35,1.82,2.73,2.73,0,0,1-1,1.19,2.56,2.56,0,0,1-2.78,0Zm2.43-.55a2.1,2.1,0,0,0,.69-.95,4,4,0,0,0,.25-1.51,4,4,0,0,0-.25-1.51,2,2,0,0,0-.69-.95,1.72,1.72,0,0,0-1-.33,1.69,1.69,0,0,0-1,.33,2.06,2.06,0,0,0-.7.95,4,4,0,0,0-.25,1.51,4,4,0,0,0,.25,1.51,2.11,2.11,0,0,0,.7.95,1.69,1.69,0,0,0,1,.33A1.72,1.72,0,0,0,196.11,23.21Z" fill="#003a50"/><path d="M200.05,23.76a2.71,2.71,0,0,1-1-1.19,4.45,4.45,0,0,1-.34-1.82,4.49,4.49,0,0,1,.34-1.83,2.68,2.68,0,0,1,1-1.18,2.51,2.51,0,0,1,2.78,0,2.7,2.7,0,0,1,1,1.18,4.49,4.49,0,0,1,.34,1.83,4.45,4.45,0,0,1-.34,1.82,2.73,2.73,0,0,1-1,1.19,2.56,2.56,0,0,1-2.78,0Zm2.43-.55a2.1,2.1,0,0,0,.69-.95,4,4,0,0,0,.25-1.51,4,4,0,0,0-.25-1.51,2,2,0,0,0-.69-.95,1.72,1.72,0,0,0-1-.33,1.69,1.69,0,0,0-1,.33,2.06,2.06,0,0,0-.7.95,4,4,0,0,0-.25,1.51,4,4,0,0,0,.25,1.51,2.11,2.11,0,0,0,.7.95,1.69,1.69,0,0,0,1,.33A1.72,1.72,0,0,0,202.48,23.21Z" fill="#003a50"/><path d="M206.42,23.76a2.64,2.64,0,0,1-.95-1.19,4.45,4.45,0,0,1-.34-1.82,4.49,4.49,0,0,1,.34-1.83,2.62,2.62,0,0,1,.95-1.18,2.51,2.51,0,0,1,2.78,0,2.7,2.7,0,0,1,1,1.18,4.49,4.49,0,0,1,.34,1.83,4.45,4.45,0,0,1-.34,1.82,2.73,2.73,0,0,1-1,1.19,2.56,2.56,0,0,1-2.78,0Zm2.42-.55a2,2,0,0,0,.7-.95,4,4,0,0,0,.25-1.51,4,4,0,0,0-.25-1.51,2,2,0,0,0-.7-.95,1.77,1.77,0,0,0-2.06,0,2.06,2.06,0,0,0-.7.95,4,4,0,0,0-.25,1.51,4,4,0,0,0,.25,1.51,2.11,2.11,0,0,0,.7.95,1.77,1.77,0,0,0,2.06,0Z" fill="#003a50"/></g><line x1="317.09" y1="27.88" x2="419.26" y2="27.88" fill="none" stroke="#003a50" stroke-linecap="round" stroke-linejoin="round" stroke-width="0.4"/><line x1="419.26" y1="27.88" x2="412.45" y2="26.05" fill="none" stroke="#003a50" stroke-linecap="round" stroke-linejoin="round" stroke-width="0.4"/><line x1="412.45" y1="26.05" x2="412.45" y2="29.7" fill="none" stroke="#003a50" stroke-linecap="round" stroke-linejoin="round" stroke-width="0.4"/><line x1="412.45" y1="29.7" x2="419.26" y2="27.88" fill="none" stroke="#003a50" stroke-linecap="round" stroke-linejoin="round" stroke-width="0.4"/><polygon points="412.45 29.7 419.26 27.88 412.45 26.05 412.45 29.7" fill="#003a50"/><line x1="419.26" y1="24.42" x2="419.26" y2="29.24" fill="none" stroke="#003a50" stroke-linecap="round" stroke-linejoin="round" stroke-width="0.4"/><line x1="419.26" y1="27.88" x2="419.26" y2="24.42" fill="none" stroke="#003a50" stroke-linecap="round" stroke-linejoin="round" stroke-width="0.4"/><line x1="317.09" y1="27.88" x2="323.9" y2="29.7" fill="none" stroke="#003a50" stroke-linecap="round" stroke-linejoin="round" stroke-width="0.4"/><line x1="323.9" y1="29.7" x2="323.9" y2="26.05" fill="none" stroke="#003a50" stroke-linecap="round" stroke-linejoin="round" stroke-width="0.4"/><line x1="323.9" y1="26.05" x2="317.09" y2="27.87" fill="none" stroke="#003a50" stroke-linecap="round" stroke-linejoin="round" stroke-width="0.4"/><polygon points="317.09 27.88 323.9 29.7 323.9 26.05 317.09 27.88" fill="#003a50"/><line x1="317.09" y1="24.42" x2="317.09" y2="29.24" fill="none" stroke="#003a50" stroke-linecap="round" stroke-linejoin="round" stroke-width="0.4"/><line x1="317.09" y1="27.88" x2="317.09" y2="24.42" fill="none" stroke="#003a50" stroke-linecap="round" stroke-linejoin="round" stroke-width="0.4"/><g clip-path="url(#clip-path)"><path d="M361.66,23.5v.62h-4.72v-.5l2.8-2.74a3.6,3.6,0,0,0,.72-.9,1.76,1.76,0,0,0,.18-.76,1.13,1.13,0,0,0-.4-.93,1.85,1.85,0,0,0-1.17-.33,2.32,2.32,0,0,0-1.84.75l-.49-.42a2.63,2.63,0,0,1,1-.72,3.77,3.77,0,0,1,1.38-.25,2.48,2.48,0,0,1,1.63.49,1.6,1.6,0,0,1,.61,1.33,2.32,2.32,0,0,1-.23,1,4.43,4.43,0,0,1-.88,1.11L358,23.5Z" fill="#003a50"/><path d="M367.13,23.5v.62h-4.72v-.5l2.8-2.74a3.31,3.31,0,0,0,.71-.9,1.64,1.64,0,0,0,.19-.76,1.14,1.14,0,0,0-.41-.93,1.81,1.81,0,0,0-1.17-.33,2.32,2.32,0,0,0-1.84.75l-.49-.42a2.66,2.66,0,0,1,1-.72,3.77,3.77,0,0,1,1.38-.25,2.48,2.48,0,0,1,1.63.49,1.62,1.62,0,0,1,.6,1.33,2.32,2.32,0,0,1-.23,1,4.21,4.21,0,0,1-.88,1.11l-2.29,2.25Z" fill="#003a50"/><path d="M371.9,20.67a1.75,1.75,0,0,1,.66,1.46,2.05,2.05,0,0,1-.27,1.05,1.89,1.89,0,0,1-.82.73,3.07,3.07,0,0,1-1.35.26,4.15,4.15,0,0,1-1.37-.23,2.86,2.86,0,0,1-1-.63l.33-.55a2.47,2.47,0,0,0,.89.56,3.06,3.06,0,0,0,1.18.22,2,2,0,0,0,1.3-.38,1.23,1.23,0,0,0,.45-1,1.2,1.2,0,0,0-.51-1.05,3.29,3.29,0,0,0-1.74-.35h-1.43l.34-3.38h3.69V18h-3.08l-.23,2.14h.86A3.49,3.49,0,0,1,371.9,20.67Z" fill="#003a50"/><path d="M374.73,23.76a2.78,2.78,0,0,1-1-1.19,4.45,4.45,0,0,1-.34-1.82,4.49,4.49,0,0,1,.34-1.83,2.75,2.75,0,0,1,1-1.18,2.51,2.51,0,0,1,2.78,0,2.7,2.7,0,0,1,1,1.18,4.49,4.49,0,0,1,.35,1.83,4.44,4.44,0,0,1-.35,1.82,2.73,2.73,0,0,1-1,1.19,2.56,2.56,0,0,1-2.78,0Zm2.43-.55a2.11,2.11,0,0,0,.7-.95,4.69,4.69,0,0,0,0-3,2.06,2.06,0,0,0-.7-.95,1.72,1.72,0,0,0-1-.33,1.69,1.69,0,0,0-1,.33,2.06,2.06,0,0,0-.7.95,4.69,4.69,0,0,0,0,3,2.11,2.11,0,0,0,.7.95,1.69,1.69,0,0,0,1,.33A1.72,1.72,0,0,0,377.16,23.21Z" fill="#003a50"/></g><line x1="333.4" y1="95.76" x2="333.4" y2="14.03" fill="none" stroke="#003a50" stroke-linecap="round" stroke-linejoin="round" stroke-width="0.4"/><line x1="333.4" y1="14.03" x2="331.58" y2="20.84" fill="none" stroke="#003a50" stroke-linecap="round" stroke-linejoin="round" stroke-width="0.4"/><line x1="331.58" y1="20.84" x2="335.23" y2="20.84" fill="none" stroke="#003a50" stroke-linecap="round" stroke-linejoin="round" stroke-width="0.4"/><line x1="335.23" y1="20.84" x2="333.4" y2="14.03" fill="none" stroke="#003a50" stroke-linecap="round" stroke-linejoin="round" stroke-width="0.4"/><polygon points="331.57 20.84 335.23 20.84 333.4 14.03 331.57 20.84" fill="#003a50"/><line x1="329.95" y1="14.03" x2="334.76" y2="14.03" fill="none" stroke="#003a50" stroke-linecap="round" stroke-linejoin="round" stroke-width="0.4"/><line x1="333.4" y1="14.03" x2="329.94" y2="14.03" fill="none" stroke="#003a50" stroke-linecap="round" stroke-linejoin="round" stroke-width="0.4"/><line x1="333.4" y1="95.76" x2="335.22" y2="88.95" fill="none" stroke="#003a50" stroke-linecap="round" stroke-linejoin="round" stroke-width="0.4"/><line x1="335.23" y1="88.95" x2="331.57" y2="88.95" fill="none" stroke="#003a50" stroke-linecap="round" stroke-linejoin="round" stroke-width="0.4"/><line x1="331.58" y1="88.95" x2="333.4" y2="95.76" fill="none" stroke="#003a50" stroke-linecap="round" stroke-linejoin="round" stroke-width="0.4"/><polygon points="331.57 88.95 333.4 95.77 335.23 88.95 331.57 88.95" fill="#003a50"/><line x1="329.95" y1="95.76" x2="334.76" y2="95.76" fill="none" stroke="#003a50" stroke-linecap="round" stroke-linejoin="round" stroke-width="0.4"/><line x1="333.4" y1="95.76" x2="329.94" y2="95.76" fill="none" stroke="#003a50" stroke-linecap="round" stroke-linejoin="round" stroke-width="0.4"/><g clip-path="url(#clip-path)"><path d="M322.91,63.88h6.73v.7h-6.12v1.58h-.61Z" fill="#003a50"/><path d="M326.74,57.44a1.59,1.59,0,0,1,1-.34,1.71,1.71,0,0,1,1,.32,2,2,0,0,1,.67.91,3.68,3.68,0,0,1,.24,1.39,3.13,3.13,0,0,1-.52,1.9,1.67,1.67,0,0,1-1.42.7,1.55,1.55,0,0,1-1-.34,2,2,0,0,1-.63-1,1.78,1.78,0,0,1-.58.79,1.64,1.64,0,0,1-2.2-.37,2.81,2.81,0,0,1-.48-1.72,3.41,3.41,0,0,1,.21-1.25,2,2,0,0,1,.62-.83,1.56,1.56,0,0,1,.95-.3,1.48,1.48,0,0,1,.9.28,1.81,1.81,0,0,1,.58.8A2.09,2.09,0,0,1,326.74,57.44Zm-1.21,3.5a2,2,0,0,0,.33-1.22,2,2,0,0,0-.33-1.23,1,1,0,0,0-.87-.45,1.07,1.07,0,0,0-.9.46,2,2,0,0,0-.33,1.22,2,2,0,0,0,.33,1.21,1,1,0,0,0,.89.45A1,1,0,0,0,325.53,60.94Zm3.22-2.62a1.18,1.18,0,0,0-1-.51,1.14,1.14,0,0,0-1,.51,2.88,2.88,0,0,0,0,2.79,1.23,1.23,0,0,0,2,0,2.34,2.34,0,0,0,.36-1.39A2.38,2.38,0,0,0,328.75,58.32Z" fill="#003a50"/><path d="M329.28,54.84a2.7,2.7,0,0,1-1.18,1,4.67,4.67,0,0,1-1.83.34,4.62,4.62,0,0,1-1.82-.34,2.73,2.73,0,0,1-1.19-1,2.56,2.56,0,0,1,0-2.78,2.78,2.78,0,0,1,1.19-1,4.44,4.44,0,0,1,1.82-.35,4.49,4.49,0,0,1,1.83.35,2.75,2.75,0,0,1,1.18,1,2.51,2.51,0,0,1,0,2.78Zm-.54-2.42a2.15,2.15,0,0,0-1-.7,4.69,4.69,0,0,0-3,0,2.17,2.17,0,0,0-.95.7,1.79,1.79,0,0,0,0,2.07,2.17,2.17,0,0,0,.95.7,4.69,4.69,0,0,0,3,0,2.15,2.15,0,0,0,1-.7,1.83,1.83,0,0,0,0-2.07Z" fill="#003a50"/><path d="M329.28,48.48a2.75,2.75,0,0,1-1.18,1,4.49,4.49,0,0,1-1.83.34,4.45,4.45,0,0,1-1.82-.34,2.78,2.78,0,0,1-1.19-1,2.56,2.56,0,0,1,0-2.78,2.73,2.73,0,0,1,1.19-1,4.44,4.44,0,0,1,1.82-.35,4.49,4.49,0,0,1,1.83.35,2.7,2.7,0,0,1,1.18,1,2.51,2.51,0,0,1,0,2.78Zm-.54-2.43a2.15,2.15,0,0,0-1-.7,4.69,4.69,0,0,0-3,0,2.17,2.17,0,0,0-.95.7,1.72,1.72,0,0,0-.33,1,1.69,1.69,0,0,0,.33,1,2.17,2.17,0,0,0,.95.7,4.69,4.69,0,0,0,3,0,2.15,2.15,0,0,0,1-.7,1.75,1.75,0,0,0,.32-1A1.78,1.78,0,0,0,328.74,46.05Z" fill="#003a50"/></g><line x1="347.74" y1="113.15" x2="381.8" y2="113.15" fill="none" stroke="#003a50" stroke-linecap="round" stroke-linejoin="round" stroke-width="0.4"/><line x1="381.8" y1="113.15" x2="374.99" y2="111.33" fill="none" stroke="#003a50" stroke-linecap="round" stroke-linejoin="round" stroke-width="0.4"/><line x1="374.99" y1="111.33" x2="374.99" y2="114.98" fill="none" stroke="#003a50" stroke-linecap="round" stroke-linejoin="round" stroke-width="0.4"/><line x1="374.99" y1="114.98" x2="381.8" y2="113.15" fill="none" stroke="#003a50" stroke-linecap="round" stroke-linejoin="round" stroke-width="0.4"/><polygon points="374.99 114.98 381.8 113.15 374.99 111.33 374.99 114.98" fill="#003a50"/><line x1="381.8" y1="109.7" x2="381.8" y2="114.51" fill="none" stroke="#003a50" stroke-linecap="round" stroke-linejoin="round" stroke-width="0.4"/><line x1="381.8" y1="113.15" x2="381.8" y2="109.7" fill="none" stroke="#003a50" stroke-linecap="round" stroke-linejoin="round" stroke-width="0.4"/><line x1="347.74" y1="113.15" x2="354.55" y2="114.98" fill="none" stroke="#003a50" stroke-linecap="round" stroke-linejoin="round" stroke-width="0.4"/><line x1="354.55" y1="114.98" x2="354.55" y2="111.33" fill="none" stroke="#003a50" stroke-linecap="round" stroke-linejoin="round" stroke-width="0.4"/><line x1="354.55" y1="111.33" x2="347.74" y2="113.15" fill="none" stroke="#003a50" stroke-linecap="round" stroke-linejoin="round" stroke-width="0.4"/><polygon points="347.74 113.15 354.55 114.98 354.55 111.33 347.74 113.15" fill="#003a50"/><line x1="347.74" y1="109.7" x2="347.74" y2="114.51" fill="none" stroke="#003a50" stroke-linecap="round" stroke-linejoin="round" stroke-width="0.4"/><line x1="347.74" y1="113.15" x2="347.74" y2="109.7" fill="none" stroke="#003a50" stroke-linecap="round" stroke-linejoin="round" stroke-width="0.4"/><g clip-path="url(#clip-path)"><path d="M360.89,102.66v.49l-2.81,6.24h-.75l2.77-6.12h-3.47v1.26H356v-1.87Z" fill="#003a50"/><path d="M365.54,105.94a1.78,1.78,0,0,1,.67,1.47,2.06,2.06,0,0,1-.28,1,1.81,1.81,0,0,1-.82.72,3.07,3.07,0,0,1-1.35.27,3.91,3.91,0,0,1-1.37-.24,2.61,2.61,0,0,1-1-.63l.33-.55a2.48,2.48,0,0,0,.89.57,3.25,3.25,0,0,0,1.18.21,2,2,0,0,0,1.3-.37,1.24,1.24,0,0,0,.45-1,1.2,1.2,0,0,0-.51-1,3.16,3.16,0,0,0-1.74-.36h-1.43l.34-3.37h3.69v.61h-3.08l-.23,2.15h.87A3.48,3.48,0,0,1,365.54,105.94Z" fill="#003a50"/><path d="M368.37,109a2.75,2.75,0,0,1-.95-1.18,4.49,4.49,0,0,1-.34-1.83,4.45,4.45,0,0,1,.34-1.82,2.78,2.78,0,0,1,.95-1.19,2.49,2.49,0,0,1,1.39-.41,2.44,2.44,0,0,1,1.39.41,2.73,2.73,0,0,1,1,1.19,4.44,4.44,0,0,1,.35,1.82,4.49,4.49,0,0,1-.35,1.83,2.7,2.7,0,0,1-1,1.18,2.38,2.38,0,0,1-1.39.42A2.42,2.42,0,0,1,368.37,109Zm2.43-.54a2.15,2.15,0,0,0,.7-1,4.69,4.69,0,0,0,0-3,2.17,2.17,0,0,0-.7-1,1.79,1.79,0,0,0-2.07,0,2.17,2.17,0,0,0-.7,1,4.69,4.69,0,0,0,0,3,2.15,2.15,0,0,0,.7,1,1.83,1.83,0,0,0,2.07,0Z" fill="#003a50"/></g><line x1="333.4" y1="209.29" x2="333.4" y2="100.3" fill="none" stroke="#003a50" stroke-linecap="round" stroke-linejoin="round" stroke-width="0.4"/><line x1="333.4" y1="100.3" x2="331.58" y2="107.12" fill="none" stroke="#003a50" stroke-linecap="round" stroke-linejoin="round" stroke-width="0.4"/><line x1="331.58" y1="107.12" x2="335.23" y2="107.12" fill="none" stroke="#003a50" stroke-linecap="round" stroke-linejoin="round" stroke-width="0.4"/><line x1="335.23" y1="107.12" x2="333.4" y2="100.3" fill="none" stroke="#003a50" stroke-linecap="round" stroke-linejoin="round" stroke-width="0.4"/><polygon points="331.57 107.12 335.23 107.12 333.4 100.3 331.57 107.12" fill="#003a50"/><line x1="329.95" y1="100.3" x2="334.76" y2="100.3" fill="none" stroke="#003a50" stroke-linecap="round" stroke-linejoin="round" stroke-width="0.4"/><line x1="333.4" y1="100.3" x2="329.94" y2="100.3" fill="none" stroke="#003a50" stroke-linecap="round" stroke-linejoin="round" stroke-width="0.4"/><line x1="333.4" y1="209.29" x2="335.22" y2="202.48" fill="none" stroke="#003a50" stroke-linecap="round" stroke-linejoin="round" stroke-width="0.4"/><line x1="335.23" y1="202.48" x2="331.57" y2="202.48" fill="none" stroke="#003a50" stroke-linecap="round" stroke-linejoin="round" stroke-width="0.4"/><line x1="331.58" y1="202.48" x2="333.4" y2="209.29" fill="none" stroke="#003a50" stroke-linecap="round" stroke-linejoin="round" stroke-width="0.4"/><polygon points="331.57 202.48 333.4 209.29 335.23 202.48 331.57 202.48" fill="#003a50"/><line x1="329.95" y1="209.29" x2="334.76" y2="209.29" fill="none" stroke="#003a50" stroke-linecap="round" stroke-linejoin="round" stroke-width="0.4"/><line x1="333.4" y1="209.29" x2="329.94" y2="209.29" fill="none" stroke="#003a50" stroke-linecap="round" stroke-linejoin="round" stroke-width="0.4"/><g clip-path="url(#clip-path)"><path d="M329,162.25h.62V167h-.49l-2.74-2.8a4,4,0,0,0-.9-.72,1.82,1.82,0,0,0-.77-.19,1.13,1.13,0,0,0-.92.41,1.79,1.79,0,0,0-.34,1.17,2.32,2.32,0,0,0,.75,1.84l-.42.49a2.6,2.6,0,0,1-.71-1,3.59,3.59,0,0,1-.25-1.39,2.55,2.55,0,0,1,.48-1.63,1.64,1.64,0,0,1,1.34-.6,2.36,2.36,0,0,1,1,.23,4.24,4.24,0,0,1,1.1.88L329,166Z" fill="#003a50"/><path d="M327.87,155.87v1.34h1.77v.7h-1.77v3.8h-.5l-4.46-3.57v-.77l4.34,3.44v-2.92H325.7v-.68h1.55v-1.34Z" fill="#003a50"/><path d="M329.28,153.94a2.75,2.75,0,0,1-1.18.95,4.49,4.49,0,0,1-1.83.34,4.45,4.45,0,0,1-1.82-.34,2.78,2.78,0,0,1-1.19-.95,2.56,2.56,0,0,1,0-2.78,2.73,2.73,0,0,1,1.19-1,4.44,4.44,0,0,1,1.82-.35,4.49,4.49,0,0,1,1.83.35,2.7,2.7,0,0,1,1.18,1,2.51,2.51,0,0,1,0,2.78Zm-.54-2.43a2.06,2.06,0,0,0-1-.69,4.69,4.69,0,0,0-3,0,2.08,2.08,0,0,0-.95.69,1.72,1.72,0,0,0-.33,1,1.69,1.69,0,0,0,.33,1,2.17,2.17,0,0,0,.95.7,4.69,4.69,0,0,0,3,0,2.15,2.15,0,0,0,1-.7,1.75,1.75,0,0,0,.32-1A1.78,1.78,0,0,0,328.74,151.51Z" fill="#003a50"/><path d="M329.28,147.57a2.68,2.68,0,0,1-1.18,1,4.49,4.49,0,0,1-1.83.34,4.45,4.45,0,0,1-1.82-.34,2.71,2.71,0,0,1-1.19-1,2.56,2.56,0,0,1,0-2.78,2.73,2.73,0,0,1,1.19-1,4.44,4.44,0,0,1,1.82-.35,4.49,4.49,0,0,1,1.83.35,2.7,2.7,0,0,1,1.18,1,2.51,2.51,0,0,1,0,2.78Zm-.54-2.43a2.13,2.13,0,0,0-1-.69,4.69,4.69,0,0,0-3,0,2.15,2.15,0,0,0-.95.69,1.72,1.72,0,0,0-.33,1,1.69,1.69,0,0,0,.33,1,2.17,2.17,0,0,0,.95.7,4.69,4.69,0,0,0,3,0,2.15,2.15,0,0,0,1-.7,1.75,1.75,0,0,0,.32-1A1.78,1.78,0,0,0,328.74,145.14Z" fill="#003a50"/></g><line x1="314.82" y1="198.93" x2="398.83" y2="198.93" fill="none" stroke="#003a50" stroke-linecap="round" stroke-linejoin="round" stroke-width="0.4"/><line x1="398.83" y1="198.93" x2="392.01" y2="197.11" fill="none" stroke="#003a50" stroke-linecap="round" stroke-linejoin="round" stroke-width="0.4"/><line x1="392.02" y1="197.11" x2="392.02" y2="200.76" fill="none" stroke="#003a50" stroke-linecap="round" stroke-linejoin="round" stroke-width="0.4"/><line x1="392.02" y1="200.76" x2="398.83" y2="198.93" fill="none" stroke="#003a50" stroke-linecap="round" stroke-linejoin="round" stroke-width="0.4"/><polygon points="392.02 200.76 398.83 198.94 392.02 197.11 392.02 200.76" fill="#003a50"/><line x1="398.83" y1="195.48" x2="398.83" y2="200.29" fill="none" stroke="#003a50" stroke-linecap="round" stroke-linejoin="round" stroke-width="0.4"/><line x1="398.83" y1="198.93" x2="398.83" y2="195.48" fill="none" stroke="#003a50" stroke-linecap="round" stroke-linejoin="round" stroke-width="0.4"/><line x1="314.82" y1="198.93" x2="321.63" y2="200.76" fill="none" stroke="#003a50" stroke-linecap="round" stroke-linejoin="round" stroke-width="0.4"/><line x1="321.63" y1="200.76" x2="321.63" y2="197.11" fill="none" stroke="#003a50" stroke-linecap="round" stroke-linejoin="round" stroke-width="0.4"/><line x1="321.63" y1="197.11" x2="314.82" y2="198.93" fill="none" stroke="#003a50" stroke-linecap="round" stroke-linejoin="round" stroke-width="0.4"/><polygon points="314.82 198.93 321.63 200.76 321.63 197.11 314.82 198.93" fill="#003a50"/><line x1="314.82" y1="195.48" x2="314.82" y2="200.29" fill="none" stroke="#003a50" stroke-linecap="round" stroke-linejoin="round" stroke-width="0.4"/><line x1="314.82" y1="198.93" x2="314.82" y2="195.48" fill="none" stroke="#003a50" stroke-linecap="round" stroke-linejoin="round" stroke-width="0.4"/><g clip-path="url(#clip-path)"><path d="M348.31,188.44v6.73h-.7v-6.12H346v-.61Z" fill="#003a50"/><path d="M354.75,192.28a1.61,1.61,0,0,1,.34,1,1.7,1.7,0,0,1-.32,1,1.93,1.93,0,0,1-.91.67,3.68,3.68,0,0,1-1.39.24,3.06,3.06,0,0,1-1.9-.52,1.66,1.66,0,0,1-.7-1.41,1.56,1.56,0,0,1,.34-1,2,2,0,0,1,1-.63,1.71,1.71,0,0,1-.79-.58,1.5,1.5,0,0,1-.27-.9,1.55,1.55,0,0,1,.64-1.3,2.81,2.81,0,0,1,1.72-.48,3.21,3.21,0,0,1,1.25.22,1.88,1.88,0,0,1,.83.62,1.53,1.53,0,0,1,.3.94,1.51,1.51,0,0,1-.28.9,1.74,1.74,0,0,1-.8.58A2,2,0,0,1,354.75,192.28Zm-.88,2a1.17,1.17,0,0,0,.51-1,1.15,1.15,0,0,0-.51-1,2.88,2.88,0,0,0-2.79,0,1.23,1.23,0,0,0,0,2,2.34,2.34,0,0,0,1.39.36A2.38,2.38,0,0,0,353.87,194.28Zm-2.62-3.22a2,2,0,0,0,1.22.33,2,2,0,0,0,1.23-.33,1,1,0,0,0,.45-.87,1.07,1.07,0,0,0-.46-.9,2.12,2.12,0,0,0-1.22-.32,2.1,2.1,0,0,0-1.22.32,1.07,1.07,0,0,0-.44.89A1,1,0,0,0,351.25,191.06Z" fill="#003a50"/><path d="M360,191.72a1.75,1.75,0,0,1,.67,1.47,2.05,2.05,0,0,1-.27,1.05,1.84,1.84,0,0,1-.83.72,3,3,0,0,1-1.34.27,3.91,3.91,0,0,1-1.37-.24,2.65,2.65,0,0,1-1.05-.63l.34-.54a2.56,2.56,0,0,0,.88.56,3.31,3.31,0,0,0,1.19.21,2,2,0,0,0,1.29-.37,1.21,1.21,0,0,0,.46-1,1.19,1.19,0,0,0-.52-1.05,3.12,3.12,0,0,0-1.73-.36h-1.44l.35-3.37h3.68v.61h-3.07L357,191.2h.86A3.44,3.44,0,0,1,360,191.72Z" fill="#003a50"/><path d="M362.79,194.82a2.77,2.77,0,0,1-1-1.19,5.07,5.07,0,0,1,0-3.65,2.71,2.71,0,0,1,1-1.19,2.56,2.56,0,0,1,2.78,0,2.73,2.73,0,0,1,1,1.19,5.07,5.07,0,0,1,0,3.65,2.79,2.79,0,0,1-1,1.19,2.56,2.56,0,0,1-2.78,0Zm2.42-.55a2.1,2.1,0,0,0,.7-1,4.07,4.07,0,0,0,.25-1.52,4,4,0,0,0-.25-1.51,2.1,2.1,0,0,0-.7-.95,1.77,1.77,0,0,0-2.06,0,2.17,2.17,0,0,0-.7.95,4,4,0,0,0-.25,1.51,4.07,4.07,0,0,0,.25,1.52,2.17,2.17,0,0,0,.7,1,1.82,1.82,0,0,0,2.06,0Z" fill="#003a50"/><line x1="388.93" y1="222.91" x2="388.93" y2="300.11" fill="none" stroke="#003a50" stroke-linecap="round" stroke-linejoin="round" stroke-width="0.4"/><line x1="388.93" y1="222.91" x2="387.11" y2="229.72" fill="none" stroke="#003a50" stroke-linecap="round" stroke-linejoin="round" stroke-width="0.4"/><line x1="390.76" y1="229.72" x2="388.94" y2="222.91" fill="none" stroke="#003a50" stroke-linecap="round" stroke-linejoin="round" stroke-width="0.4"/></g><polygon points="388.9 223.02 388.96 223.02 388.93 222.91 388.9 223.02" fill="#003a50"/><g clip-path="url(#clip-path)"><line x1="392.39" y1="222.91" x2="387.57" y2="222.91" fill="none" stroke="#003a50" stroke-linecap="round" stroke-linejoin="round" stroke-width="0.4"/><line x1="388.93" y1="222.91" x2="392.39" y2="222.91" fill="none" stroke="#003a50" stroke-linecap="round" stroke-linejoin="round" stroke-width="0.4"/><line x1="80.96" y1="180.38" x2="301.19" y2="180.38" fill="none" stroke="#003a50" stroke-linecap="round" stroke-linejoin="round" stroke-width="0.4"/><line x1="301.2" y1="180.38" x2="294.38" y2="178.55" fill="none" stroke="#003a50" stroke-linecap="round" stroke-linejoin="round" stroke-width="0.4"/><line x1="294.38" y1="182.2" x2="301.2" y2="180.38" fill="none" stroke="#003a50" stroke-linecap="round" stroke-linejoin="round" stroke-width="0.4"/><polygon points="294.38 182.2 301.2 180.38 294.38 178.55 294.38 182.2" fill="#003a50"/><line x1="301.2" y1="176.92" x2="301.2" y2="181.74" fill="none" stroke="#003a50" stroke-linecap="round" stroke-linejoin="round" stroke-width="0.4"/><line x1="301.2" y1="180.38" x2="301.2" y2="176.92" fill="none" stroke="#003a50" stroke-linecap="round" stroke-linejoin="round" stroke-width="0.4"/><path d="M184.62,174.84h-1.35v1.78h-.69v-1.78h-3.8v-.5l3.57-4.46h.77l-3.44,4.35h2.92v-1.56h.67v1.56h1.35Z" fill="#003a50"/><path d="M190.19,173.72a1.61,1.61,0,0,1,.34,1,1.7,1.7,0,0,1-.32,1,1.94,1.94,0,0,1-.91.68,3.89,3.89,0,0,1-1.39.23,3.06,3.06,0,0,1-1.9-.52,1.64,1.64,0,0,1-.7-1.41,1.58,1.58,0,0,1,.34-1,2.12,2.12,0,0,1,1-.63,1.64,1.64,0,0,1-.79-.58,1.5,1.5,0,0,1-.27-.9,1.58,1.58,0,0,1,.64-1.3,2.81,2.81,0,0,1,1.72-.48,3.4,3.4,0,0,1,1.25.22,1.88,1.88,0,0,1,.83.62,1.53,1.53,0,0,1,.3.94,1.51,1.51,0,0,1-.28.9,1.67,1.67,0,0,1-.8.58A2.18,2.18,0,0,1,190.19,173.72Zm-.88,2a1.22,1.22,0,0,0,0-2,2.88,2.88,0,0,0-2.79,0,1.14,1.14,0,0,0-.5,1,1.17,1.17,0,0,0,.5,1,2.32,2.32,0,0,0,1.39.36A2.38,2.38,0,0,0,189.31,175.72Zm-2.62-3.21a2,2,0,0,0,1.22.32,2,2,0,0,0,1.23-.32,1,1,0,0,0,.44-.88,1,1,0,0,0-.45-.89,2,2,0,0,0-1.22-.33,2,2,0,0,0-1.22.33,1.11,1.11,0,0,0,0,1.77Z" fill="#003a50"/><path d="M195.39,173.17a1.73,1.73,0,0,1,.67,1.46,2.05,2.05,0,0,1-.27,1.05,1.92,1.92,0,0,1-.83.73,3,3,0,0,1-1.34.26,4.21,4.21,0,0,1-1.38-.23,2.86,2.86,0,0,1-1-.63l.34-.55a2.42,2.42,0,0,0,.88.56,3.11,3.11,0,0,0,1.19.22,2,2,0,0,0,1.29-.38,1.24,1.24,0,0,0,.46-1,1.19,1.19,0,0,0-.52-1,3.22,3.22,0,0,0-1.73-.35h-1.44l.35-3.38h3.68v.62h-3.08l-.23,2.14h.87A3.47,3.47,0,0,1,195.39,173.17Z" fill="#003a50"/><path d="M198.23,176.26a2.64,2.64,0,0,1-.95-1.19,4.45,4.45,0,0,1-.34-1.82,4.49,4.49,0,0,1,.34-1.83,2.62,2.62,0,0,1,.95-1.18,2.51,2.51,0,0,1,2.78,0,2.7,2.7,0,0,1,1,1.18,4.49,4.49,0,0,1,.34,1.83,4.45,4.45,0,0,1-.34,1.82,2.73,2.73,0,0,1-1,1.19,2.56,2.56,0,0,1-2.78,0Zm2.42-.55a2.11,2.11,0,0,0,.7-1,4.69,4.69,0,0,0,0-3,2.06,2.06,0,0,0-.7-1,1.69,1.69,0,0,0-1-.33,1.72,1.72,0,0,0-1,.33,2,2,0,0,0-.69,1,4.69,4.69,0,0,0,0,3,2.1,2.1,0,0,0,.69,1,1.72,1.72,0,0,0,1,.33A1.69,1.69,0,0,0,200.65,175.71Z" fill="#003a50"/></g><line x1="299.34" y1="95.76" x2="299.34" y2="150.26" fill="none" stroke="#003a50" stroke-linecap="round" stroke-linejoin="round" stroke-width="0.4"/><line x1="299.34" y1="150.26" x2="301.17" y2="143.44" fill="none" stroke="#003a50" stroke-linecap="round" stroke-linejoin="round" stroke-width="0.4"/><line x1="301.17" y1="143.44" x2="297.52" y2="143.44" fill="none" stroke="#003a50" stroke-linecap="round" stroke-linejoin="round" stroke-width="0.4"/><line x1="297.52" y1="143.44" x2="299.34" y2="150.26" fill="none" stroke="#003a50" stroke-linecap="round" stroke-linejoin="round" stroke-width="0.4"/><polygon points="297.52 143.44 299.34 150.25 301.17 143.44 297.52 143.44" fill="#003a50"/><line x1="302.8" y1="150.26" x2="297.98" y2="150.26" fill="none" stroke="#003a50" stroke-linecap="round" stroke-linejoin="round" stroke-width="0.4"/><line x1="299.34" y1="150.26" x2="302.8" y2="150.26" fill="none" stroke="#003a50" stroke-linecap="round" stroke-linejoin="round" stroke-width="0.4"/><line x1="299.34" y1="95.76" x2="297.52" y2="102.58" fill="none" stroke="#003a50" stroke-linecap="round" stroke-linejoin="round" stroke-width="0.4"/><line x1="297.52" y1="102.58" x2="301.17" y2="102.58" fill="none" stroke="#003a50" stroke-linecap="round" stroke-linejoin="round" stroke-width="0.4"/><line x1="301.17" y1="102.58" x2="299.34" y2="95.76" fill="none" stroke="#003a50" stroke-linecap="round" stroke-linejoin="round" stroke-width="0.4"/><polygon points="297.52 102.58 301.17 102.58 299.34 95.76 297.52 102.58" fill="#003a50"/><line x1="302.8" y1="95.76" x2="297.98" y2="95.76" fill="none" stroke="#003a50" stroke-linecap="round" stroke-linejoin="round" stroke-width="0.4"/><line x1="299.34" y1="95.76" x2="302.8" y2="95.76" fill="none" stroke="#003a50" stroke-linecap="round" stroke-linejoin="round" stroke-width="0.4"/><g clip-path="url(#clip-path)"><path d="M288.85,131.6h6.73v.7h-6.12v1.58h-.61Z" fill="#003a50"/><path d="M295,125.4h.61v4.72h-.49l-2.74-2.8a4,4,0,0,0-.9-.72,1.77,1.77,0,0,0-.77-.18,1.1,1.1,0,0,0-.92.41,1.81,1.81,0,0,0-.34,1.17,2.3,2.3,0,0,0,.75,1.83l-.42.49a2.6,2.6,0,0,1-.71-1,3.57,3.57,0,0,1-.25-1.38,2.48,2.48,0,0,1,.49-1.63,1.6,1.6,0,0,1,1.33-.6,2.22,2.22,0,0,1,1,.23,4,4,0,0,1,1.1.87L295,129.1Z" fill="#003a50"/><path d="M295.23,123.28a2.84,2.84,0,0,1-1.19,1,5.07,5.07,0,0,1-3.65,0,2.84,2.84,0,0,1-1.19-1,2.5,2.5,0,0,1-.41-1.4,2.43,2.43,0,0,1,.41-1.38,2.79,2.79,0,0,1,1.19-1,4.93,4.93,0,0,1,3.65,0,2.79,2.79,0,0,1,1.19,1,2.43,2.43,0,0,1,.41,1.38A2.5,2.5,0,0,1,295.23,123.28Zm-.55-2.43a2.17,2.17,0,0,0-.95-.7,4.28,4.28,0,0,0-1.52-.25,4.22,4.22,0,0,0-1.51.25,2.17,2.17,0,0,0-.95.7,1.79,1.79,0,0,0,0,2.07,2.17,2.17,0,0,0,.95.7,4.22,4.22,0,0,0,1.51.25,4.28,4.28,0,0,0,1.52-.25,2.17,2.17,0,0,0,.95-.7,1.83,1.83,0,0,0,0-2.07Z" fill="#003a50"/><path d="M295.23,116.91a2.84,2.84,0,0,1-1.19,1,5.07,5.07,0,0,1-3.65,0,2.84,2.84,0,0,1-1.19-1,2.56,2.56,0,0,1,0-2.78,2.79,2.79,0,0,1,1.19-1,4.93,4.93,0,0,1,3.65,0,2.79,2.79,0,0,1,1.19,1,2.56,2.56,0,0,1,0,2.78Zm-.55-2.43a2.08,2.08,0,0,0-.95-.69,4.07,4.07,0,0,0-1.52-.25,4,4,0,0,0-1.51.25,2.08,2.08,0,0,0-.95.69,1.72,1.72,0,0,0-.33,1,1.69,1.69,0,0,0,.33,1,2.17,2.17,0,0,0,.95.7,4,4,0,0,0,1.51.25,4.07,4.07,0,0,0,1.52-.25,2.17,2.17,0,0,0,.95-.7,1.68,1.68,0,0,0,.32-1A1.71,1.71,0,0,0,294.68,114.48Z" fill="#003a50"/></g><line x1="299.34" y1="14.03" x2="299.34" y2="41.27" fill="none" stroke="#003a50" stroke-linecap="round" stroke-linejoin="round" stroke-width="0.4"/><line x1="299.34" y1="41.27" x2="297.52" y2="48.08" fill="none" stroke="#003a50" stroke-linecap="round" stroke-linejoin="round" stroke-width="0.4"/><line x1="297.52" y1="48.08" x2="301.17" y2="48.08" fill="none" stroke="#003a50" stroke-linecap="round" stroke-linejoin="round" stroke-width="0.4"/><line x1="301.17" y1="48.08" x2="299.34" y2="41.27" fill="none" stroke="#003a50" stroke-linecap="round" stroke-linejoin="round" stroke-width="0.4"/><polygon points="297.52 48.08 301.17 48.08 299.34 41.27 297.52 48.08" fill="#003a50"/><line x1="299.34" y1="41.27" x2="301.17" y2="34.46" fill="none" stroke="#003a50" stroke-linecap="round" stroke-linejoin="round" stroke-width="0.4"/><line x1="301.17" y1="34.46" x2="297.52" y2="34.46" fill="none" stroke="#003a50" stroke-linecap="round" stroke-linejoin="round" stroke-width="0.4"/><line x1="297.52" y1="34.46" x2="299.34" y2="41.27" fill="none" stroke="#003a50" stroke-linecap="round" stroke-linejoin="round" stroke-width="0.4"/><polygon points="297.52 34.46 299.34 41.27 301.17 34.46 297.52 34.46" fill="#003a50"/><line x1="311.19" y1="41.27" x2="297.98" y2="41.27" fill="none" stroke="#003a50" stroke-linecap="round" stroke-linejoin="round" stroke-width="0.4"/><line x1="299.34" y1="41.27" x2="311.19" y2="41.27" fill="none" stroke="#003a50" stroke-linecap="round" stroke-linejoin="round" stroke-width="0.4"/><line x1="299.34" y1="14.03" x2="297.52" y2="20.84" fill="none" stroke="#003a50" stroke-linecap="round" stroke-linejoin="round" stroke-width="0.4"/><line x1="297.52" y1="20.84" x2="301.17" y2="20.84" fill="none" stroke="#003a50" stroke-linecap="round" stroke-linejoin="round" stroke-width="0.4"/><line x1="301.17" y1="20.84" x2="299.34" y2="14.03" fill="none" stroke="#003a50" stroke-linecap="round" stroke-linejoin="round" stroke-width="0.4"/><polygon points="297.52 20.84 301.17 20.84 299.34 14.03 297.52 20.84" fill="#003a50"/><line x1="302.8" y1="14.03" x2="297.98" y2="14.03" fill="none" stroke="#003a50" stroke-linecap="round" stroke-linejoin="round" stroke-width="0.4"/><line x1="299.34" y1="14.03" x2="302.8" y2="14.03" fill="none" stroke="#003a50" stroke-linecap="round" stroke-linejoin="round" stroke-width="0.4"/><g clip-path="url(#clip-path)"><path d="M291.8,33.05a1.93,1.93,0,0,1,.71-.81,2,2,0,0,1,1.06-.28,1.9,1.9,0,0,1,1.81,1.12,2.61,2.61,0,0,1,.26,1.17,2.46,2.46,0,0,1-.88,2,3.85,3.85,0,0,1-2.49.72,4.21,4.21,0,0,1-1.9-.39,2.75,2.75,0,0,1-1.18-1.08,3.13,3.13,0,0,1-.4-1.61,3,3,0,0,1,.37-1.6l.55.28a2.37,2.37,0,0,0-.31,1.31,2.25,2.25,0,0,0,.7,1.75,3,3,0,0,0,2.06.63l.55,0a1.83,1.83,0,0,1-.86-.79,2.85,2.85,0,0,1-.05-2.44Zm2.85,0a1.47,1.47,0,0,0-2.12,0,1.86,1.86,0,0,0-.39,1.24,2,2,0,0,0,.19.9,1.5,1.5,0,0,0,.53.61,1.3,1.3,0,0,0,.75.22,1.36,1.36,0,0,0,.71-.2,1.51,1.51,0,0,0,.53-.61,2.07,2.07,0,0,0,.2-1A1.75,1.75,0,0,0,294.65,33.09Z" fill="#003a50"/><path d="M295.23,29.86a2.7,2.7,0,0,1-1.19.95,4.93,4.93,0,0,1-3.65,0,2.7,2.7,0,0,1-1.19-.95,2.56,2.56,0,0,1,0-2.78,2.86,2.86,0,0,1,1.19-1,5.07,5.07,0,0,1,3.65,0,2.86,2.86,0,0,1,1.19,1,2.56,2.56,0,0,1,0,2.78Zm-.55-2.42a2.15,2.15,0,0,0-1-.7,4.69,4.69,0,0,0-3,0,2.17,2.17,0,0,0-.95.7,1.69,1.69,0,0,0-.33,1,1.72,1.72,0,0,0,.33,1,2.15,2.15,0,0,0,.95.69,4.69,4.69,0,0,0,3,0,2.13,2.13,0,0,0,1-.69,1.71,1.71,0,0,0,.32-1A1.68,1.68,0,0,0,294.68,27.44Z" fill="#003a50"/><path d="M295.23,23.49a2.79,2.79,0,0,1-1.19,1,5.07,5.07,0,0,1-3.65,0,2.79,2.79,0,0,1-1.19-1,2.56,2.56,0,0,1,0-2.78,2.84,2.84,0,0,1,1.19-.95,4.93,4.93,0,0,1,3.65,0,2.84,2.84,0,0,1,1.19.95,2.56,2.56,0,0,1,0,2.78Zm-.55-2.42a2.15,2.15,0,0,0-1-.7,4.69,4.69,0,0,0-3,0,2.17,2.17,0,0,0-.95.7,1.79,1.79,0,0,0,0,2.07,2.17,2.17,0,0,0,.95.7,4.69,4.69,0,0,0,3,0,2.15,2.15,0,0,0,1-.7,1.83,1.83,0,0,0,0-2.07Z" fill="#003a50"/></g><line x1="299.34" y1="41.27" x2="299.34" y2="95.76" fill="none" stroke="#003a50" stroke-linecap="round" stroke-linejoin="round" stroke-width="0.4"/><line x1="299.34" y1="95.76" x2="301.17" y2="88.95" fill="none" stroke="#003a50" stroke-linecap="round" stroke-linejoin="round" stroke-width="0.4"/><line x1="301.17" y1="88.95" x2="297.52" y2="88.95" fill="none" stroke="#003a50" stroke-linecap="round" stroke-linejoin="round" stroke-width="0.4"/><line x1="297.52" y1="88.95" x2="299.34" y2="95.76" fill="none" stroke="#003a50" stroke-linecap="round" stroke-linejoin="round" stroke-width="0.4"/><polygon points="297.52 88.95 299.34 95.77 301.17 88.95 297.52 88.95" fill="#003a50"/><line x1="308.92" y1="95.76" x2="297.98" y2="95.76" fill="none" stroke="#003a50" stroke-linecap="round" stroke-linejoin="round" stroke-width="0.4"/><line x1="299.34" y1="95.76" x2="308.92" y2="95.76" fill="none" stroke="#003a50" stroke-linecap="round" stroke-linejoin="round" stroke-width="0.4"/><line x1="299.34" y1="41.27" x2="297.52" y2="48.08" fill="none" stroke="#003a50" stroke-linecap="round" stroke-linejoin="round" stroke-width="0.4"/><line x1="297.52" y1="48.08" x2="301.17" y2="48.08" fill="none" stroke="#003a50" stroke-linecap="round" stroke-linejoin="round" stroke-width="0.4"/><line x1="301.17" y1="48.08" x2="299.34" y2="41.27" fill="none" stroke="#003a50" stroke-linecap="round" stroke-linejoin="round" stroke-width="0.4"/><polygon points="297.52 48.08 301.17 48.08 299.34 41.27 297.52 48.08" fill="#003a50"/><line x1="299.34" y1="41.27" x2="301.17" y2="34.46" fill="none" stroke="#003a50" stroke-linecap="round" stroke-linejoin="round" stroke-width="0.4"/><line x1="301.17" y1="34.46" x2="297.52" y2="34.46" fill="none" stroke="#003a50" stroke-linecap="round" stroke-linejoin="round" stroke-width="0.4"/><line x1="297.52" y1="34.46" x2="299.34" y2="41.27" fill="none" stroke="#003a50" stroke-linecap="round" stroke-linejoin="round" stroke-width="0.4"/><polygon points="297.52 34.46 299.34 41.27 301.17 34.46 297.52 34.46" fill="#003a50"/><line x1="311.19" y1="41.27" x2="297.98" y2="41.27" fill="none" stroke="#003a50" stroke-linecap="round" stroke-linejoin="round" stroke-width="0.4"/><line x1="299.34" y1="41.27" x2="311.19" y2="41.27" fill="none" stroke="#003a50" stroke-linecap="round" stroke-linejoin="round" stroke-width="0.4"/><g clip-path="url(#clip-path)"><path d="M288.85,77.11h6.73v.69h-6.12v1.59h-.61Z" fill="#003a50"/><path d="M295,70.91h.61v4.72h-.49l-2.74-2.8a4,4,0,0,0-.9-.72,1.79,1.79,0,0,0-.77-.19,1.13,1.13,0,0,0-.92.41,1.79,1.79,0,0,0-.34,1.17,2.32,2.32,0,0,0,.75,1.84l-.42.49a2.6,2.6,0,0,1-.71-1,3.59,3.59,0,0,1-.25-1.39,2.55,2.55,0,0,1,.48-1.63,1.64,1.64,0,0,1,1.34-.6,2.36,2.36,0,0,1,1,.23,4.24,4.24,0,0,1,1.1.88L295,74.61Z" fill="#003a50"/><path d="M295.23,68.78a2.79,2.79,0,0,1-1.19,1,4.67,4.67,0,0,1-1.83.34,4.62,4.62,0,0,1-1.82-.34,2.79,2.79,0,0,1-1.19-1,2.56,2.56,0,0,1,0-2.78,2.84,2.84,0,0,1,1.19-1,4.28,4.28,0,0,1,1.82-.35,4.33,4.33,0,0,1,1.83.35,2.84,2.84,0,0,1,1.19,1,2.56,2.56,0,0,1,0,2.78Zm-.55-2.42a2.15,2.15,0,0,0-1-.7,4.69,4.69,0,0,0-3,0,2.17,2.17,0,0,0-.95.7,1.69,1.69,0,0,0-.33,1,1.72,1.72,0,0,0,.33,1,2.08,2.08,0,0,0,.95.69,4.51,4.51,0,0,0,3,0,2.06,2.06,0,0,0,1-.69,1.71,1.71,0,0,0,.32-1A1.68,1.68,0,0,0,294.68,66.36Z" fill="#003a50"/><path d="M295.23,62.42a2.84,2.84,0,0,1-1.19.95,4.67,4.67,0,0,1-1.83.34,4.62,4.62,0,0,1-1.82-.34,2.84,2.84,0,0,1-1.19-.95,2.5,2.5,0,0,1-.41-1.4,2.47,2.47,0,0,1,.41-1.39,2.84,2.84,0,0,1,1.19-1,4.44,4.44,0,0,1,1.82-.35,4.49,4.49,0,0,1,1.83.35,2.84,2.84,0,0,1,1.19,1,2.47,2.47,0,0,1,.41,1.39A2.5,2.5,0,0,1,295.23,62.42ZM294.68,60a2.15,2.15,0,0,0-1-.7,4.69,4.69,0,0,0-3,0,2.17,2.17,0,0,0-.95.7,1.79,1.79,0,0,0,0,2.07,2.17,2.17,0,0,0,.95.7,4.69,4.69,0,0,0,3,0,2.15,2.15,0,0,0,1-.7,1.83,1.83,0,0,0,0-2.07Z" fill="#003a50"/></g></svg>