<svg id="Слой_1" data-name="Слой 1" xmlns="http://www.w3.org/2000/svg" xmlns:xlink="http://www.w3.org/1999/xlink" viewBox="0 0 476.22 223.09"><defs><clipPath id="clip-path"><polygon points="40.53 0.75 40.53 27.67 0.85 27.67 0.85 100.8 40.53 100.8 40.53 163.76 301.32 163.76 301.32 223.02 476.22 223.02 476.22 0.75 40.53 0.75" fill="none"/></clipPath></defs><g clip-path="url(#clip-path)"><path d="M305.73,233.32l10.16-10.16m-10.16,24.61,24.61-24.61m-24.61,39.06,39.06-39.06m-39.06,53.51,53.51-53.51m-53.51,68,68-68m-62.75,77.2,77.2-77.2m-62.75,77.2,75.7-75.7m-61.25,75.7,61.25-61.25M352,302.63l49.07-49.08m-34.62,49.08L401.09,268m-17.9,32.35,17.9-17.91m-3.45,17.91,3.45-3.46m-94.34,3.46-1-1m15.47,1-15.47-15.47m29.92,15.47-29.92-29.92m46.64,32.19L305.73,256m61.09,46.64-61.09-61.09M379,300.36l-73.27-73.27m87.72,73.27-77.2-77.2m84.84,70.39L330.7,223.16m70.39,55.94-55.94-55.94m55.94,41.49L359.6,223.16m41.49,27-27-27m27,12.59L388.5,223.16" fill="none" stroke="#809da8" stroke-linecap="round" stroke-linejoin="round" stroke-width="0.2"/><path d="M81,166.78H301.19M81,214.46H301.19M81,262.14H301.19M120.82,300.35V164.13M168.5,300.35V164.13m47.68,136.22V164.13m47.68,138.5V164.13" fill="none" stroke="#809da8" stroke-linecap="round" stroke-linejoin="round" stroke-width="0.2"/></g><path d="M85.49,23.74H312.54M81,71.42H312.54M81,119.1H224M120.83,150.5V14.28M168.51,150.5V14.28M216.19,150.5V14.28M263.86,96V14.28M311.55,96V14.28" fill="none" stroke="#809da8" stroke-linecap="round" stroke-linejoin="round" stroke-width="0.2"/><path d="M317.08,23.74H419.26M312.54,71.42H426.06M359.22,98.28v-84M406.9,96V14.28" fill="none" stroke="#809da8" stroke-linecap="round" stroke-linejoin="round" stroke-width="0.2"/><path d="M314.81,108.64l8.09-8.08m-8.09,22.54,22.54-22.54m-22.54,37,39.26-39.26M314.81,152l53.71-53.71m-53.71,68.16,67-67m-67,81.43,80.34-80.33m-80.34,94.78,84-84m-83.76,98.21,83.76-83.76m-69.3,83.76,69.3-69.31M344,209.54l54.86-54.86m-40.41,54.86,40.41-40.41m-26,40.41,26-26m-11.51,26L398.82,198m-81.74,11.51-2.27-2.27m16.72,2.27-16.72-16.72M346,209.54l-31.17-31.17m45.61,31.17-45.61-45.62m60.06,45.62-60.06-60.06m74.51,60.06L314.81,135m84,69.55-84-84m84,69.56-84-84m84,69.56-75.13-75.13m75.13,60.68-60.68-60.68m60.68,46.23-48.5-48.51m48.5,34.06L364.76,98.28m34.06,19.61-18.7-18.7m-.6-.6-.3-.31m19.6,5.16-2.88-2.88" fill="none" stroke="#809da8" stroke-linecap="round" stroke-linejoin="round" stroke-width="0.2"/><g clip-path="url(#clip-path)"><path d="M85.49-182.21l10.13-10.13M85.49-167.76l24.58-24.58M81-148.77l.43-.43m4.11-4.11,39-39M81-134.32l58-58M81-119.87l72.47-72.47M81-105.42l86.92-86.92M81-91,182.32-192.34M81-76.52,193.11-188.69M81-62.07,202.13-183.26M81-47.63,216.58-183.26M85.49-37.72,231-183.26M85.49-23.27l160-160M85.49-8.82,259.93-183.26m1.3-1.29,10-10.06M90.47.65,285.73-194.61M104.92.65,300.18-194.61M119.37.65l193-193M133.82.65l193-193M148.27.65l193-193m.23-.23,1.13-1.13M162.72.65,358-194.61M177.17.65,372.43-194.61M191.62.65,325-132.76m2.82-2.81,56.21-56.22M206.07.65l119-119m4.54-4.54,54.49-54.49M220.51.65,325-103.86m4.54-4.54,56.76-56.77M235,.65,325-89.41M344-108.33l42.38-42.38M249.41.65l26.8-26.8m82.19-82.18L384.06-134M276.66-26.59,325-75M263.86.65,276.21-11.7m96.64-96.63,11.21-11.22M280.75-16.24,325-60.51M280.75-1.79,325-46.07M292.76.65,325-31.61M307.21.65,325-17.17M321.66.65,325-2.72M93.74.65,85.49-7.6M108.19.65,85.49-22M122.64.65,85.49-36.49m-3.72-3.72L81-41M137.09.65,81-55.49M151.54.65,81-69.93M166,.65l-85-85m99.49,85L81-98.83M194.89.65,81-113.28M209.34.65,81-127.73M223.79.65,81-142.18M238.23.65,85.49-152.09M252.69.65,85.49-166.54M267.13.65,85.49-181M281.58.65l-.83-.82m-4.54-4.55L88.59-192.34M296,.65,280.75-14.63m-4.54-4.54L103-192.34M310.48.65l-193-193M324.93.65l-193-193M325-13.7,146.39-192.34M325-28.15,160.84-192.34M325-42.6,175.29-192.34M325-57,198.82-183.26m-5.71-5.7-3.37-3.38M325-71.49,213.27-183.26M325-85.95l-97.31-97.31M325-100.39l-82.86-82.87m89.37,74.93-2-2M325-114.84l-68.41-68.42M346-108.33l-16.42-16.42M325-129.29l-63-63.05m98.46,84-86.28-86.28m100.73,86.28-86.28-86.28m95.45,81-81-81m81,66.55-64.28-64.28m66.55,52.11-52.1-52.11m52.1,37.65-39.92-39.92m39.2,24.75-.91-.91m-.64-.64-23.2-23.2m23.2,8.76-8.75-8.76" fill="none" stroke="#809da8" stroke-linecap="round" stroke-linejoin="round" stroke-width="0.2"/></g><path d="M224,98.32,226.3,96M224,112.77,240.75,96M224,127.22,255.2,96M224,141.67,269.65,96m-40,54.49L284.1,96m-40,54.49L298.55,96M258.5,150.5l51.77-51.76M273,150.5l37.32-37.31M287.4,150.5l22.87-22.87m-8.42,22.87,8.42-8.42m-81.12,8.42L224,145.35m19.61,5.15L224,130.9M258,150.5l-34.05-34M272.5,150.5,224,102m62.95,48.5L232.45,96m68.94,54.49L246.9,96m63.37,48.92L261.35,96m48.92,34.48L275.8,96m34.47,20-20-20m20,5.58L304.7,96" fill="none" stroke="#809da8" stroke-linecap="round" stroke-linejoin="round" stroke-width="0.2"/><line x1="312.54" y1="96.01" x2="312.54" y2="41.52" fill="none" stroke="#809da8" stroke-linecap="round" stroke-linejoin="round" stroke-width="0.4" stroke-dasharray="0.07 0.07"/><g clip-path="url(#clip-path)"><line x1="325.03" y1="-81.09" x2="325.03" y2="0.65" fill="none" stroke="#809da8" stroke-linecap="round" stroke-linejoin="round" stroke-width="0.4" stroke-dasharray="0.07 0.07"/></g><line x1="223.99" y1="150.5" x2="223.99" y2="96.01" fill="none" stroke="#809da8" stroke-linecap="round" stroke-linejoin="round" stroke-width="0.4" stroke-dasharray="0.07 0.07"/><line x1="310.27" y1="96.01" x2="223.99" y2="96.01" fill="none" stroke="#809da8" stroke-linecap="round" stroke-linejoin="round" stroke-width="0.4" stroke-dasharray="0.07 0.07"/><rect x="71.87" y="0.75" width="13.62" height="27.15" fill="#003a50"/><rect x="419.26" y="0.75" width="13.62" height="38.5" fill="#003a50"/><rect x="192.21" y="150.5" width="68.12" height="13.25" fill="#003a50"/><rect x="364.76" y="209.54" width="68.12" height="13.48" fill="#003a50"/><rect x="80.96" y="150.5" width="111.25" height="13.26" fill="#003a50"/><polygon points="301.19 150.5 301.19 163.76 301.32 163.76 301.32 223.02 314.81 223.02 314.81 150.5 301.19 150.5" fill="#003a50"/><rect x="314.82" y="209.54" width="49.95" height="13.48" fill="#003a50"/><rect x="310.27" y="96.01" width="4.54" height="54.49" fill="#003a50"/><path d="M314.81,100.55h32.92V96H314.81Zm67-4.54v4.54h37.46V96Z" fill="#003a50"/><polygon points="398.82 100.55 398.82 209.54 401.09 209.54 403.36 209.54 403.36 100.55 398.82 100.55" fill="#003a50"/><rect x="312.54" y="14.28" width="4.54" height="27.24" fill="#003a50"/><polygon points="403.36 147.1 403.41 151.41 416.98 151.41 419.25 151.41 419.25 147.1 403.36 147.1" fill="#003a50"/><rect x="260.32" y="150.5" width="40.87" height="13.25" fill="#003a50"/><polygon points="85.5 0.75 85.5 14.28 108.64 14.28 147.69 14.28 193.11 14.28 193.11 0.75 85.5 0.75" fill="#003a50"/><polygon points="193.12 0.75 193.12 14.28 379.52 14.28 406.7 14.28 419.25 14.28 419.25 0.75 193.12 0.75" fill="#003a50"/><g clip-path="url(#clip-path)"><polygon points="374.98 0.65 379.52 0.65 379.52 -22.05 374.98 -22.05 374.98 -0.9 374.98 0.65" fill="#003a50" fill-rule="evenodd"/><rect x="356.82" y="-26.59" width="4.54" height="27.24" fill="#003a50"/><rect x="276.21" y="-26.59" width="4.54" height="27.24" fill="#003a50"/></g><path d="M419.26,209.54h13.62V91.47H419.26Zm0-163.48h13.62V39.25H419.26Z" fill="#003a50"/><path d="M63.7,163.76h8.17V100.55H63.7Zm0-163V27.9h8.17V.75Z" fill="#003a50"/><rect x="71.87" y="100.56" width="9.08" height="63.2" fill="#003a50"/><g clip-path="url(#clip-path)"><line x1="85.49" y1="27.9" x2="85.49" y2="-40.22" fill="none" stroke="#003a50" stroke-linecap="round" stroke-linejoin="round" stroke-width="0.96"/><line x1="432.88" y1="39.25" x2="432.88" y2="-28.87" fill="none" stroke="#003a50" stroke-linecap="round" stroke-linejoin="round" stroke-width="0.96"/></g><line x1="419.26" y1="14.28" x2="419.26" y2="39.25" fill="none" stroke="#003a50" stroke-linecap="round" stroke-linejoin="round" stroke-width="0.96"/><line x1="419.26" y1="39.25" x2="432.88" y2="39.25" fill="none" stroke="#003a50" stroke-linecap="round" stroke-linejoin="round" stroke-width="0.96"/><g clip-path="url(#clip-path)"><line x1="260.32" y1="164.13" x2="260.32" y2="150.5" fill="none" stroke="#003a50" stroke-linecap="round" stroke-linejoin="round" stroke-width="0.96"/><line x1="364.76" y1="223.16" x2="401.09" y2="223.16" fill="none" stroke="#003a50" stroke-linecap="round" stroke-linejoin="round" stroke-width="0.96"/><line x1="410.17" y1="223.16" x2="428.34" y2="223.16" fill="none" stroke="#003a50" stroke-linecap="round" stroke-linejoin="round" stroke-width="0.96"/><line x1="432.88" y1="223.16" x2="432.88" y2="209.54" fill="none" stroke="#003a50" stroke-linecap="round" stroke-linejoin="round" stroke-width="0.96"/></g><line x1="432.88" y1="209.54" x2="364.76" y2="209.54" fill="none" stroke="#003a50" stroke-linecap="round" stroke-linejoin="round" stroke-width="0.96"/><g clip-path="url(#clip-path)"><line x1="80.95" y1="164.13" x2="301.19" y2="164.13" fill="none" stroke="#003a50" stroke-linecap="round" stroke-linejoin="round" stroke-width="0.96"/></g><line x1="314.81" y1="209.54" x2="314.81" y2="100.55" fill="none" stroke="#003a50" stroke-linecap="round" stroke-linejoin="round" stroke-width="0.96"/><g clip-path="url(#clip-path)"><line x1="364.76" y1="223.16" x2="364.76" y2="209.54" fill="none" stroke="#003a50" stroke-linecap="round" stroke-linejoin="round" stroke-width="0.96"/></g><line x1="364.76" y1="209.54" x2="314.81" y2="209.54" fill="none" stroke="#003a50" stroke-linecap="round" stroke-linejoin="round" stroke-width="0.96"/><line x1="310.27" y1="96.01" x2="310.27" y2="150.5" fill="none" stroke="#003a50" stroke-linecap="round" stroke-linejoin="round" stroke-width="0.96"/><line x1="80.95" y1="150.5" x2="314.81" y2="150.5" fill="none" stroke="#003a50" stroke-linecap="round" stroke-linejoin="round" stroke-width="0.96"/><line x1="314.81" y1="100.55" x2="347.73" y2="100.55" fill="none" stroke="#003a50" stroke-linecap="round" stroke-linejoin="round" stroke-width="0.96"/><line x1="347.73" y1="100.55" x2="347.73" y2="96.01" fill="none" stroke="#003a50" stroke-linecap="round" stroke-linejoin="round" stroke-width="0.96"/><line x1="347.73" y1="96.01" x2="310.27" y2="96.01" fill="none" stroke="#003a50" stroke-linecap="round" stroke-linejoin="round" stroke-width="0.96"/><line x1="381.79" y1="100.55" x2="398.82" y2="100.55" fill="none" stroke="#003a50" stroke-linecap="round" stroke-linejoin="round" stroke-width="0.96"/><line x1="419.26" y1="96.01" x2="381.79" y2="96.01" fill="none" stroke="#003a50" stroke-linecap="round" stroke-linejoin="round" stroke-width="0.96"/><line x1="381.79" y1="96.01" x2="381.79" y2="100.55" fill="none" stroke="#003a50" stroke-linecap="round" stroke-linejoin="round" stroke-width="0.96"/><line x1="398.82" y1="100.55" x2="398.82" y2="209.54" fill="none" stroke="#003a50" stroke-linecap="round" stroke-linejoin="round" stroke-width="0.96"/><line x1="403.36" y1="209.54" x2="403.36" y2="209.31" fill="none" stroke="#003a50" stroke-linecap="round" stroke-linejoin="round" stroke-width="0.96"/><line x1="403.36" y1="147.1" x2="403.36" y2="125.53" fill="none" stroke="#003a50" stroke-linecap="round" stroke-linejoin="round" stroke-width="0.96"/><g clip-path="url(#clip-path)"><line x1="301.19" y1="164.13" x2="301.19" y2="300.35" fill="none" stroke="#003a50" stroke-linecap="round" stroke-linejoin="round" stroke-width="0.96"/><line x1="305.73" y1="300.36" x2="305.73" y2="223.16" fill="none" stroke="#003a50" stroke-linecap="round" stroke-linejoin="round" stroke-width="0.96"/><line x1="364.76" y1="223.16" x2="301.19" y2="223.16" fill="none" stroke="#003a50" stroke-linecap="round" stroke-linejoin="round" stroke-width="0.96"/></g><line x1="312.54" y1="14.28" x2="312.54" y2="41.52" fill="none" stroke="#003a50" stroke-linecap="round" stroke-linejoin="round" stroke-width="0.96"/><line x1="312.54" y1="41.52" x2="317.08" y2="41.52" fill="none" stroke="#003a50" stroke-linecap="round" stroke-linejoin="round" stroke-width="0.96"/><line x1="317.08" y1="41.52" x2="317.08" y2="14.28" fill="none" stroke="#003a50" stroke-linecap="round" stroke-linejoin="round" stroke-width="0.96"/><line x1="419.26" y1="147.1" x2="403.36" y2="147.1" fill="none" stroke="#003a50" stroke-linecap="round" stroke-linejoin="round" stroke-width="0.96"/><g clip-path="url(#clip-path)"><line x1="276.21" y1="0.65" x2="85.49" y2="0.65" fill="none" stroke="#003a50" stroke-linecap="round" stroke-linejoin="round" stroke-width="0.96"/></g><line x1="85.49" y1="14.28" x2="419.25" y2="14.28" fill="none" stroke="#003a50" stroke-linecap="round" stroke-linejoin="round" stroke-width="0.96"/><g clip-path="url(#clip-path)"><line x1="356.82" y1="0.65" x2="280.76" y2="0.65" fill="none" stroke="#003a50" stroke-linecap="round" stroke-linejoin="round" stroke-width="0.96"/><line x1="356.82" y1="-26.59" x2="356.82" y2="0.65" fill="none" stroke="#003a50" stroke-linecap="round" stroke-linejoin="round" stroke-width="0.96"/><line x1="361.36" y1="0.65" x2="361.36" y2="-22.05" fill="none" stroke="#003a50" stroke-linecap="round" stroke-linejoin="round" stroke-width="0.96"/><line x1="401.09" y1="223.16" x2="401.09" y2="275.38" fill="none" stroke="#003a50" stroke-linecap="round" stroke-linejoin="round" stroke-width="0.96"/><line x1="410.17" y1="266.3" x2="410.17" y2="223.16" fill="none" stroke="#003a50" stroke-linecap="round" stroke-linejoin="round" stroke-width="0.96"/><line x1="428.34" y1="223.16" x2="428.34" y2="265.54" fill="none" stroke="#003a50" stroke-linecap="round" stroke-linejoin="round" stroke-width="0.96"/><line x1="432.88" y1="307.17" x2="432.88" y2="223.16" fill="none" stroke="#003a50" stroke-linecap="round" stroke-linejoin="round" stroke-width="0.96"/><line x1="280.76" y1="0.65" x2="280.76" y2="-26.59" fill="none" stroke="#003a50" stroke-linecap="round" stroke-linejoin="round" stroke-width="0.96"/><line x1="276.21" y1="-26.59" x2="276.21" y2="0.65" fill="none" stroke="#003a50" stroke-linecap="round" stroke-linejoin="round" stroke-width="0.96"/></g><line x1="419.26" y1="39.25" x2="419.26" y2="46.06" fill="none" stroke="#003a50" stroke-linecap="round" stroke-linejoin="round" stroke-width="0.96"/><line x1="419.26" y1="46.06" x2="432.88" y2="46.06" fill="none" stroke="#003a50" stroke-linecap="round" stroke-linejoin="round" stroke-width="0.96"/><line x1="432.88" y1="46.06" x2="432.88" y2="39.25" fill="none" stroke="#003a50" stroke-linecap="round" stroke-linejoin="round" stroke-width="0.96"/><line x1="432.88" y1="39.25" x2="419.25" y2="39.25" fill="none" stroke="#003a50" stroke-linecap="round" stroke-linejoin="round" stroke-width="0.96"/><line x1="419.26" y1="91.47" x2="419.26" y2="151.41" fill="none" stroke="#003a50" stroke-linecap="round" stroke-linejoin="round" stroke-width="0.96"/><line x1="419.26" y1="209.31" x2="419.26" y2="209.54" fill="none" stroke="#003a50" stroke-linecap="round" stroke-linejoin="round" stroke-width="0.96"/><line x1="432.88" y1="209.54" x2="432.88" y2="91.47" fill="none" stroke="#003a50" stroke-linecap="round" stroke-linejoin="round" stroke-width="0.96"/><line x1="432.88" y1="91.47" x2="419.25" y2="91.47" fill="none" stroke="#003a50" stroke-linecap="round" stroke-linejoin="round" stroke-width="0.96"/><line x1="63.7" y1="27.9" x2="85.49" y2="27.9" fill="none" stroke="#003a50" stroke-linecap="round" stroke-linejoin="round" stroke-width="0.96"/><line x1="80.95" y1="100.55" x2="63.7" y2="100.55" fill="none" stroke="#003a50" stroke-linecap="round" stroke-linejoin="round" stroke-width="0.96"/><line x1="429.7" y1="46.06" x2="429.7" y2="46.97" fill="none" stroke="#003a50" stroke-linecap="round" stroke-linejoin="round" stroke-width="0.96"/><line x1="432.88" y1="46.97" x2="432.88" y2="46.06" fill="none" stroke="#003a50" stroke-linecap="round" stroke-linejoin="round" stroke-width="0.96"/><line x1="429.7" y1="90.56" x2="429.7" y2="91.47" fill="none" stroke="#003a50" stroke-linecap="round" stroke-linejoin="round" stroke-width="0.96"/><line x1="432.88" y1="91.47" x2="432.88" y2="90.56" fill="none" stroke="#003a50" stroke-linecap="round" stroke-linejoin="round" stroke-width="0.96"/><line x1="432.88" y1="46.97" x2="429.7" y2="46.97" fill="none" stroke="#003a50" stroke-linecap="round" stroke-linejoin="round" stroke-width="0.96"/><line x1="429.7" y1="46.97" x2="429.7" y2="48.33" fill="none" stroke="#003a50" stroke-linecap="round" stroke-linejoin="round" stroke-width="0.96"/><line x1="429.7" y1="48.33" x2="432.88" y2="48.33" fill="none" stroke="#003a50" stroke-linecap="round" stroke-linejoin="round" stroke-width="0.96"/><line x1="432.88" y1="48.33" x2="432.88" y2="46.97" fill="none" stroke="#003a50" stroke-linecap="round" stroke-linejoin="round" stroke-width="0.96"/><line x1="432.88" y1="90.56" x2="432.88" y2="89.2" fill="none" stroke="#003a50" stroke-linecap="round" stroke-linejoin="round" stroke-width="0.96"/><line x1="432.88" y1="89.2" x2="429.7" y2="89.2" fill="none" stroke="#003a50" stroke-linecap="round" stroke-linejoin="round" stroke-width="0.96"/><line x1="429.7" y1="89.2" x2="429.7" y2="90.56" fill="none" stroke="#003a50" stroke-linecap="round" stroke-linejoin="round" stroke-width="0.96"/><line x1="429.7" y1="90.56" x2="432.88" y2="90.56" fill="none" stroke="#003a50" stroke-linecap="round" stroke-linejoin="round" stroke-width="0.96"/><g clip-path="url(#clip-path)"><path d="M432.88,89.2a40.87,40.87,0,0,0,40.87-40.87" fill="none" stroke="#003a50" stroke-linecap="round" stroke-linejoin="round" stroke-width="0.96"/></g><line x1="432.88" y1="48.33" x2="473.75" y2="48.33" fill="none" stroke="#003a50" stroke-linecap="round" stroke-linejoin="round" stroke-width="0.96"/><line x1="347.73" y1="96.01" x2="348.64" y2="96.01" fill="none" stroke="#003a50" stroke-linecap="round" stroke-linejoin="round" stroke-width="0.96"/><line x1="348.64" y1="99.19" x2="347.74" y2="99.19" fill="none" stroke="#003a50" stroke-linecap="round" stroke-linejoin="round" stroke-width="0.96"/><line x1="380.88" y1="96.01" x2="381.79" y2="96.01" fill="none" stroke="#003a50" stroke-linecap="round" stroke-linejoin="round" stroke-width="0.96"/><line x1="381.79" y1="99.19" x2="380.88" y2="99.19" fill="none" stroke="#003a50" stroke-linecap="round" stroke-linejoin="round" stroke-width="0.96"/><line x1="348.64" y1="99.19" x2="348.64" y2="96.01" fill="none" stroke="#003a50" stroke-linecap="round" stroke-linejoin="round" stroke-width="0.96"/><line x1="350.01" y1="99.19" x2="348.64" y2="99.19" fill="none" stroke="#003a50" stroke-linecap="round" stroke-linejoin="round" stroke-width="0.96"/><line x1="350.01" y1="96.01" x2="350.01" y2="99.19" fill="none" stroke="#003a50" stroke-linecap="round" stroke-linejoin="round" stroke-width="0.96"/><line x1="348.64" y1="96.01" x2="350.01" y2="96.01" fill="none" stroke="#003a50" stroke-linecap="round" stroke-linejoin="round" stroke-width="0.96"/><line x1="379.52" y1="96.01" x2="380.89" y2="96.01" fill="none" stroke="#003a50" stroke-linecap="round" stroke-linejoin="round" stroke-width="0.96"/><line x1="379.52" y1="99.19" x2="379.52" y2="96.01" fill="none" stroke="#003a50" stroke-linecap="round" stroke-linejoin="round" stroke-width="0.96"/><line x1="380.88" y1="99.19" x2="379.52" y2="99.19" fill="none" stroke="#003a50" stroke-linecap="round" stroke-linejoin="round" stroke-width="0.96"/><line x1="380.88" y1="96.01" x2="380.88" y2="99.19" fill="none" stroke="#003a50" stroke-linecap="round" stroke-linejoin="round" stroke-width="0.96"/><g clip-path="url(#clip-path)"><path d="M379.52,66.5A29.51,29.51,0,0,0,350,96" fill="none" stroke="#003a50" stroke-linecap="round" stroke-linejoin="round" stroke-width="0.96"/></g><line x1="379.52" y1="96.01" x2="379.52" y2="66.5" fill="none" stroke="#003a50" stroke-linecap="round" stroke-linejoin="round" stroke-width="0.96"/><rect x="40.99" y="100.55" width="22.7" height="13.62" fill="#003a50"/><line x1="63.7" y1="114.18" x2="63.7" y2="100.55" fill="none" stroke="#003a50" stroke-linecap="round" stroke-linejoin="round" stroke-width="0.96"/><g clip-path="url(#clip-path)"><line x1="63.7" y1="100.55" x2="40.99" y2="100.55" fill="none" stroke="#003a50" stroke-linecap="round" stroke-linejoin="round" stroke-width="0.96"/><line x1="40.99" y1="100.55" x2="40.99" y2="114.18" fill="none" stroke="#003a50" stroke-linecap="round" stroke-linejoin="round" stroke-width="0.96"/><line x1="40.99" y1="114.18" x2="63.7" y2="114.18" fill="none" stroke="#003a50" stroke-linecap="round" stroke-linejoin="round" stroke-width="0.96"/></g><rect x="40.99" y="14.28" width="22.7" height="13.62" fill="#003a50"/><line x1="63.7" y1="27.9" x2="63.7" y2="14.27" fill="none" stroke="#003a50" stroke-linecap="round" stroke-linejoin="round" stroke-width="0.96"/><g clip-path="url(#clip-path)"><line x1="63.7" y1="14.28" x2="40.99" y2="14.28" fill="none" stroke="#003a50" stroke-linecap="round" stroke-linejoin="round" stroke-width="0.96"/><line x1="40.99" y1="14.28" x2="40.99" y2="27.9" fill="none" stroke="#003a50" stroke-linecap="round" stroke-linejoin="round" stroke-width="0.96"/><line x1="40.99" y1="27.9" x2="63.7" y2="27.9" fill="none" stroke="#003a50" stroke-linecap="round" stroke-linejoin="round" stroke-width="0.96"/></g><rect x="50.08" y="0.75" width="13.62" height="13.52" fill="#003a50"/><g clip-path="url(#clip-path)"><line x1="63.7" y1="14.28" x2="63.7" y2="-44.76" fill="none" stroke="#003a50" stroke-linecap="round" stroke-linejoin="round" stroke-width="0.96"/><line x1="50.08" y1="-44.76" x2="50.08" y2="14.27" fill="none" stroke="#003a50" stroke-linecap="round" stroke-linejoin="round" stroke-width="0.96"/></g><line x1="50.08" y1="14.28" x2="63.7" y2="14.28" fill="none" stroke="#003a50" stroke-linecap="round" stroke-linejoin="round" stroke-width="0.96"/><rect x="50.08" y="114.18" width="13.62" height="49.58" fill="#003a50"/><g clip-path="url(#clip-path)"><line x1="63.7" y1="173.21" x2="63.7" y2="114.18" fill="none" stroke="#003a50" stroke-linecap="round" stroke-linejoin="round" stroke-width="0.96"/></g><line x1="63.7" y1="114.18" x2="50.07" y2="114.18" fill="none" stroke="#003a50" stroke-linecap="round" stroke-linejoin="round" stroke-width="0.96"/><g clip-path="url(#clip-path)"><line x1="50.08" y1="114.18" x2="50.08" y2="173.21" fill="none" stroke="#003a50" stroke-linecap="round" stroke-linejoin="round" stroke-width="0.96"/><line x1="63.7" y1="-394.58" x2="63.7" y2="942.54" fill="none" stroke="#003a50" stroke-miterlimit="10"/><line x1="80.91" y1="-376.42" x2="80.91" y2="943.34" fill="none" stroke="#003a50" stroke-miterlimit="10"/></g><rect x="69.48" y="28.62" width="4.55" height="71.32" fill="#fff"/><rect x="69.48" y="28.62" width="4.55" height="71.32" fill="none" stroke="#003a50" stroke-miterlimit="10"/><line x1="71.76" y1="99.93" x2="71.76" y2="28.62" fill="none" stroke="#003a50" stroke-miterlimit="10"/><rect x="69.48" y="95.43" width="4.55" height="4.51" fill="#fff"/><rect x="69.48" y="95.43" width="4.55" height="4.51" fill="none" stroke="#003a50" stroke-miterlimit="10"/><rect x="69.48" y="28.62" width="4.55" height="4.51" fill="#fff"/><rect x="69.48" y="28.62" width="4.55" height="4.51" fill="none" stroke="#003a50" stroke-miterlimit="10"/><rect x="69.48" y="64.28" width="4.55" height="4.51" fill="#fff"/><rect x="69.48" y="64.28" width="4.55" height="4.51" fill="none" stroke="#003a50" stroke-miterlimit="10"/><g clip-path="url(#clip-path)"><line x1="13.71" y1="-58.38" x2="13.71" y2="27.9" fill="none" stroke="#003a50" stroke-linecap="round" stroke-linejoin="round" stroke-width="0.4"/></g><line x1="13.71" y1="27.9" x2="11.89" y2="34.71" fill="none" stroke="#003a50" stroke-linecap="round" stroke-linejoin="round" stroke-width="0.4"/><line x1="11.89" y1="34.71" x2="15.54" y2="34.71" fill="none" stroke="#003a50" stroke-linecap="round" stroke-linejoin="round" stroke-width="0.4"/><line x1="15.54" y1="34.71" x2="13.71" y2="27.9" fill="none" stroke="#003a50" stroke-linecap="round" stroke-linejoin="round" stroke-width="0.4"/><polygon points="11.88 34.71 15.54 34.71 13.71 27.9 11.88 34.71" fill="#003a50"/><g clip-path="url(#clip-path)"><line x1="13.71" y1="27.9" x2="15.53" y2="21.08" fill="none" stroke="#003a50" stroke-linecap="round" stroke-linejoin="round" stroke-width="0.4"/><line x1="11.89" y1="21.08" x2="13.71" y2="27.9" fill="none" stroke="#003a50" stroke-linecap="round" stroke-linejoin="round" stroke-width="0.4"/></g><polygon points="13.65 27.67 13.71 27.9 13.77 27.67 13.65 27.67" fill="#003a50"/><g clip-path="url(#clip-path)"><line x1="44.17" y1="27.9" x2="12.35" y2="27.9" fill="none" stroke="#003a50" stroke-linecap="round" stroke-linejoin="round" stroke-width="0.4"/><line x1="13.71" y1="27.9" x2="44.17" y2="27.9" fill="none" stroke="#003a50" stroke-linecap="round" stroke-linejoin="round" stroke-width="0.4"/><line x1="13.71" y1="27.9" x2="13.71" y2="100.55" fill="none" stroke="#003a50" stroke-linecap="round" stroke-linejoin="round" stroke-width="0.4"/><line x1="13.71" y1="100.55" x2="11.89" y2="107.36" fill="none" stroke="#003a50" stroke-linecap="round" stroke-linejoin="round" stroke-width="0.4"/><line x1="15.54" y1="107.36" x2="13.71" y2="100.55" fill="none" stroke="#003a50" stroke-linecap="round" stroke-linejoin="round" stroke-width="0.4"/></g><polygon points="13.64 100.8 13.78 100.8 13.71 100.55 13.64 100.8" fill="#003a50"/><g clip-path="url(#clip-path)"><line x1="13.71" y1="100.55" x2="15.53" y2="93.74" fill="none" stroke="#003a50" stroke-linecap="round" stroke-linejoin="round" stroke-width="0.4"/></g><line x1="15.54" y1="93.74" x2="11.88" y2="93.74" fill="none" stroke="#003a50" stroke-linecap="round" stroke-linejoin="round" stroke-width="0.4"/><g clip-path="url(#clip-path)"><line x1="11.89" y1="93.74" x2="13.71" y2="100.55" fill="none" stroke="#003a50" stroke-linecap="round" stroke-linejoin="round" stroke-width="0.4"/></g><polygon points="11.88 93.74 13.71 100.55 15.54 93.74 11.88 93.74" fill="#003a50"/><g clip-path="url(#clip-path)"><line x1="44.17" y1="100.55" x2="12.35" y2="100.55" fill="none" stroke="#003a50" stroke-linecap="round" stroke-linejoin="round" stroke-width="0.4"/><line x1="13.71" y1="100.55" x2="44.17" y2="100.55" fill="none" stroke="#003a50" stroke-linecap="round" stroke-linejoin="round" stroke-width="0.4"/></g><line x1="13.71" y1="27.9" x2="11.89" y2="34.71" fill="none" stroke="#003a50" stroke-linecap="round" stroke-linejoin="round" stroke-width="0.4"/><line x1="11.89" y1="34.71" x2="15.54" y2="34.71" fill="none" stroke="#003a50" stroke-linecap="round" stroke-linejoin="round" stroke-width="0.4"/><line x1="15.54" y1="34.71" x2="13.71" y2="27.9" fill="none" stroke="#003a50" stroke-linecap="round" stroke-linejoin="round" stroke-width="0.4"/><polygon points="11.88 34.71 15.54 34.71 13.71 27.9 11.88 34.71" fill="#003a50"/><g clip-path="url(#clip-path)"><line x1="13.71" y1="27.9" x2="15.53" y2="21.08" fill="none" stroke="#003a50" stroke-linecap="round" stroke-linejoin="round" stroke-width="0.4"/><line x1="11.89" y1="21.08" x2="13.71" y2="27.9" fill="none" stroke="#003a50" stroke-linecap="round" stroke-linejoin="round" stroke-width="0.4"/></g><polygon points="13.65 27.67 13.71 27.9 13.77 27.67 13.65 27.67" fill="#003a50"/><g clip-path="url(#clip-path)"><line x1="44.17" y1="27.9" x2="12.35" y2="27.9" fill="none" stroke="#003a50" stroke-linecap="round" stroke-linejoin="round" stroke-width="0.4"/><line x1="13.71" y1="27.9" x2="44.17" y2="27.9" fill="none" stroke="#003a50" stroke-linecap="round" stroke-linejoin="round" stroke-width="0.4"/><path d="M3.21,73H10v.69H3.83V75.3H3.21Z" fill="#003a50"/><path d="M6.17,67.45a1.87,1.87,0,0,1,.71-.81,1.93,1.93,0,0,1,1.06-.29,2,2,0,0,1,1.81,1.13A2.61,2.61,0,0,1,10,68.65a2.49,2.49,0,0,1-.88,2,3.85,3.85,0,0,1-2.49.71A4.25,4.25,0,0,1,4.73,71,2.67,2.67,0,0,1,3.56,70a3.13,3.13,0,0,1-.4-1.61,3.08,3.08,0,0,1,.36-1.6l.56.28a2.35,2.35,0,0,0-.32,1.31,2.25,2.25,0,0,0,.71,1.75,3,3,0,0,0,2.05.63l.55,0a1.8,1.8,0,0,1-.85-.79,2.62,2.62,0,0,1-.3-1.27A2.58,2.58,0,0,1,6.17,67.45Zm2.85,0A1.35,1.35,0,0,0,8,67a1.33,1.33,0,0,0-1.06.45,1.86,1.86,0,0,0-.4,1.24,2,2,0,0,0,.2.9,1.5,1.5,0,0,0,.53.61,1.3,1.3,0,0,0,.75.22,1.39,1.39,0,0,0,.71-.2,1.55,1.55,0,0,0,.53-.62,2.16,2.16,0,0,0,.2-1A1.75,1.75,0,0,0,9,67.49Z" fill="#003a50"/><path d="M9.59,64.26a2.59,2.59,0,0,1-1.19.95,4.41,4.41,0,0,1-1.82.35,4.41,4.41,0,0,1-1.82-.35,2.64,2.64,0,0,1-1.19-.95,2.56,2.56,0,0,1,0-2.78,2.73,2.73,0,0,1,1.19-1,4.41,4.41,0,0,1,1.82-.34,4.41,4.41,0,0,1,1.82.34,2.67,2.67,0,0,1,1.19,1,2.51,2.51,0,0,1,0,2.78ZM9,61.84a2.06,2.06,0,0,0-.95-.7,4,4,0,0,0-1.51-.25,4,4,0,0,0-1.51.25,2.11,2.11,0,0,0-1,.7,1.69,1.69,0,0,0-.33,1,1.72,1.72,0,0,0,.33,1,2.1,2.1,0,0,0,1,.69,4,4,0,0,0,1.51.25,4,4,0,0,0,1.51-.25A2,2,0,0,0,9,63.91a1.72,1.72,0,0,0,.33-1A1.69,1.69,0,0,0,9,61.84Z" fill="#003a50"/><path d="M9.59,57.89a2.67,2.67,0,0,1-1.19,1,4.58,4.58,0,0,1-1.82.34,4.58,4.58,0,0,1-1.82-.34,2.73,2.73,0,0,1-1.19-1,2.56,2.56,0,0,1,0-2.78,2.78,2.78,0,0,1,1.19-1,4.25,4.25,0,0,1,1.82-.35,4.25,4.25,0,0,1,1.82.35,2.73,2.73,0,0,1,1.19,1,2.51,2.51,0,0,1,0,2.78ZM9,55.47a2.06,2.06,0,0,0-.95-.7,4,4,0,0,0-1.51-.25,4,4,0,0,0-1.51.25,2.11,2.11,0,0,0-1,.7,1.69,1.69,0,0,0-.33,1,1.72,1.72,0,0,0,.33,1,2,2,0,0,0,1,.69,4,4,0,0,0,1.51.25,4,4,0,0,0,1.51-.25A2,2,0,0,0,9,57.54a1.72,1.72,0,0,0,.33-1A1.69,1.69,0,0,0,9,55.47Z" fill="#003a50"/><line x1="13.71" y1="100.55" x2="13.71" y2="186.83" fill="none" stroke="#003a50" stroke-linecap="round" stroke-linejoin="round" stroke-width="0.4"/><line x1="13.71" y1="100.55" x2="11.89" y2="107.36" fill="none" stroke="#003a50" stroke-linecap="round" stroke-linejoin="round" stroke-width="0.4"/><line x1="15.54" y1="107.36" x2="13.71" y2="100.55" fill="none" stroke="#003a50" stroke-linecap="round" stroke-linejoin="round" stroke-width="0.4"/></g><polygon points="13.64 100.8 13.78 100.8 13.71 100.55 13.64 100.8" fill="#003a50"/><g clip-path="url(#clip-path)"><line x1="13.71" y1="100.55" x2="15.53" y2="93.74" fill="none" stroke="#003a50" stroke-linecap="round" stroke-linejoin="round" stroke-width="0.4"/></g><line x1="15.54" y1="93.74" x2="11.88" y2="93.74" fill="none" stroke="#003a50" stroke-linecap="round" stroke-linejoin="round" stroke-width="0.4"/><g clip-path="url(#clip-path)"><line x1="11.89" y1="93.74" x2="13.71" y2="100.55" fill="none" stroke="#003a50" stroke-linecap="round" stroke-linejoin="round" stroke-width="0.4"/></g><polygon points="11.88 93.74 13.71 100.55 15.54 93.74 11.88 93.74" fill="#003a50"/><g clip-path="url(#clip-path)"><line x1="44.17" y1="100.55" x2="12.35" y2="100.55" fill="none" stroke="#003a50" stroke-linecap="round" stroke-linejoin="round" stroke-width="0.4"/><line x1="13.71" y1="100.55" x2="44.17" y2="100.55" fill="none" stroke="#003a50" stroke-linecap="round" stroke-linejoin="round" stroke-width="0.4"/><path d="M3.21,152.49H10v.69H3.83v1.59H3.21Z" fill="#003a50"/><path d="M4,146.74A3.8,3.8,0,0,1,6.52,146a4.25,4.25,0,0,1,1.91.39,2.75,2.75,0,0,1,1.18,1.08,3.23,3.23,0,0,1,.4,1.61,3.08,3.08,0,0,1-.37,1.6l-.56-.28a2.35,2.35,0,0,0,.32-1.31,2.25,2.25,0,0,0-.71-1.75,3,3,0,0,0-2-.63l-.55,0a1.76,1.76,0,0,1,.85.79,2.62,2.62,0,0,1,.31,1.27A2.72,2.72,0,0,1,7,150a2,2,0,0,1-.71.81,2,2,0,0,1-1.06.29A2,2,0,0,1,3.41,150a2.61,2.61,0,0,1-.25-1.17A2.46,2.46,0,0,1,4,146.74Zm2.43,1.07a1.58,1.58,0,0,0-.53-.61,1.34,1.34,0,0,0-.75-.22,1.39,1.39,0,0,0-.72.2,1.53,1.53,0,0,0-.52.62,2,2,0,0,0-.21,1,1.78,1.78,0,0,0,.4,1.19,1.36,1.36,0,0,0,1.07.45,1.32,1.32,0,0,0,1-.45,1.81,1.81,0,0,0,.4-1.24A2.13,2.13,0,0,0,6.47,147.81Z" fill="#003a50"/><path d="M9.59,143.73a2.59,2.59,0,0,1-1.19,1,4.41,4.41,0,0,1-1.82.34,4.41,4.41,0,0,1-1.82-.34,2.64,2.64,0,0,1-1.19-1,2.56,2.56,0,0,1,0-2.78,2.73,2.73,0,0,1,1.19-1,4.41,4.41,0,0,1,1.82-.34A4.41,4.41,0,0,1,8.4,140a2.67,2.67,0,0,1,1.19,1,2.51,2.51,0,0,1,0,2.78ZM9,141.31a2.06,2.06,0,0,0-.95-.7,4,4,0,0,0-1.51-.25,4,4,0,0,0-1.51.25,2.11,2.11,0,0,0-1,.7,1.77,1.77,0,0,0,0,2.06,2,2,0,0,0,1,.7,4,4,0,0,0,1.51.25,4,4,0,0,0,1.51-.25,2,2,0,0,0,.95-.7,1.77,1.77,0,0,0,0-2.06Z" fill="#003a50"/><path d="M9.59,137.36a2.59,2.59,0,0,1-1.19.95,4.41,4.41,0,0,1-1.82.35,4.41,4.41,0,0,1-1.82-.35,2.64,2.64,0,0,1-1.19-.95,2.56,2.56,0,0,1,0-2.78,2.73,2.73,0,0,1,1.19-1,4.41,4.41,0,0,1,1.82-.34,4.41,4.41,0,0,1,1.82.34,2.67,2.67,0,0,1,1.19,1,2.51,2.51,0,0,1,0,2.78ZM9,134.94a2.06,2.06,0,0,0-.95-.7A4,4,0,0,0,6.58,134a4,4,0,0,0-1.51.25,2.11,2.11,0,0,0-1,.7,1.69,1.69,0,0,0-.33,1,1.72,1.72,0,0,0,.33,1,2.1,2.1,0,0,0,1,.69,4,4,0,0,0,1.51.25,4,4,0,0,0,1.51-.25A2,2,0,0,0,9,137a1.72,1.72,0,0,0,.33-1A1.69,1.69,0,0,0,9,134.94Z" fill="#003a50"/><path d="M9.59,223.19a2.59,2.59,0,0,1-1.19.95,4.41,4.41,0,0,1-1.82.34,4.41,4.41,0,0,1-1.82-.34,2.64,2.64,0,0,1-1.19-.95,2.56,2.56,0,0,1,0-2.78,2.73,2.73,0,0,1,1.19-1,4.41,4.41,0,0,1,1.82-.34,4.41,4.41,0,0,1,1.82.34,2.67,2.67,0,0,1,1.19,1,2.51,2.51,0,0,1,0,2.78ZM9,220.76a2,2,0,0,0-.95-.69,4,4,0,0,0-1.51-.25,4,4,0,0,0-1.51.25,2.1,2.1,0,0,0-1,.69,1.72,1.72,0,0,0-.33,1,1.67,1.67,0,0,0,.33,1,2.11,2.11,0,0,0,1,.7,4,4,0,0,0,1.51.25,4,4,0,0,0,1.51-.25,2.06,2.06,0,0,0,.95-.7,1.67,1.67,0,0,0,.33-1A1.72,1.72,0,0,0,9,220.76Z" fill="#003a50"/><path d="M9.59,216.82a2.59,2.59,0,0,1-1.19,1,4.41,4.41,0,0,1-1.82.34,4.41,4.41,0,0,1-1.82-.34,2.64,2.64,0,0,1-1.19-1,2.56,2.56,0,0,1,0-2.78,2.73,2.73,0,0,1,1.19-1,4.41,4.41,0,0,1,1.82-.34,4.41,4.41,0,0,1,1.82.34,2.67,2.67,0,0,1,1.19,1,2.51,2.51,0,0,1,0,2.78ZM9,214.4a2.06,2.06,0,0,0-.95-.7,4,4,0,0,0-1.51-.25,4,4,0,0,0-1.51.25,2.11,2.11,0,0,0-1,.7,1.77,1.77,0,0,0,0,2.06,2,2,0,0,0,1,.7,4,4,0,0,0,1.51.25,4,4,0,0,0,1.51-.25,2,2,0,0,0,.95-.7,1.77,1.77,0,0,0,0-2.06Z" fill="#003a50"/></g><g clip-path="url(#clip-path)"><line x1="113.95" y1="164.13" x2="113.95" y2="300.35" fill="none" stroke="#003a50" stroke-linecap="round" stroke-linejoin="round" stroke-width="0.4"/><line x1="113.95" y1="164.13" x2="112.12" y2="170.94" fill="none" stroke="#003a50" stroke-linecap="round" stroke-linejoin="round" stroke-width="0.4"/><line x1="115.77" y1="170.94" x2="113.95" y2="164.12" fill="none" stroke="#003a50" stroke-linecap="round" stroke-linejoin="round" stroke-width="0.4"/><polygon points="112.12 170.94 115.78 170.94 113.95 164.12 112.12 170.94" fill="#003a50"/><line x1="117.4" y1="164.13" x2="112.59" y2="164.13" fill="none" stroke="#003a50" stroke-linecap="round" stroke-linejoin="round" stroke-width="0.4"/><line x1="113.95" y1="164.13" x2="117.4" y2="164.13" fill="none" stroke="#003a50" stroke-linecap="round" stroke-linejoin="round" stroke-width="0.4"/><path d="M109.83,224.78a2.64,2.64,0,0,1-1.19.95,4.44,4.44,0,0,1-1.82.35,4.49,4.49,0,0,1-1.83-.35,2.62,2.62,0,0,1-1.18-.95,2.51,2.51,0,0,1,0-2.78,2.7,2.7,0,0,1,1.18-1,4.49,4.49,0,0,1,1.83-.34,4.45,4.45,0,0,1,1.82.34,2.73,2.73,0,0,1,1.19,1,2.56,2.56,0,0,1,0,2.78Zm-.55-2.42a2.11,2.11,0,0,0-1-.7,4.69,4.69,0,0,0-3,0,2.15,2.15,0,0,0-1,.7,1.75,1.75,0,0,0-.32,1,1.78,1.78,0,0,0,.32,1,2.13,2.13,0,0,0,1,.69,4.69,4.69,0,0,0,3,0,2.1,2.1,0,0,0,1-.69,1.72,1.72,0,0,0,.33-1A1.69,1.69,0,0,0,109.28,222.36Z" fill="#003a50"/></g><line x1="113.95" y1="14.27" x2="113.95" y2="150.5" fill="none" stroke="#003a50" stroke-linecap="round" stroke-linejoin="round" stroke-width="0.4"/><line x1="113.95" y1="150.5" x2="115.77" y2="143.69" fill="none" stroke="#003a50" stroke-linecap="round" stroke-linejoin="round" stroke-width="0.4"/><line x1="115.77" y1="143.69" x2="112.12" y2="143.69" fill="none" stroke="#003a50" stroke-linecap="round" stroke-linejoin="round" stroke-width="0.4"/><line x1="112.12" y1="143.69" x2="113.95" y2="150.5" fill="none" stroke="#003a50" stroke-linecap="round" stroke-linejoin="round" stroke-width="0.4"/><polygon points="112.12 143.69 113.95 150.5 115.78 143.69 112.12 143.69" fill="#003a50"/><line x1="117.4" y1="150.5" x2="112.59" y2="150.5" fill="none" stroke="#003a50" stroke-linecap="round" stroke-linejoin="round" stroke-width="0.4"/><line x1="113.95" y1="150.5" x2="117.4" y2="150.5" fill="none" stroke="#003a50" stroke-linecap="round" stroke-linejoin="round" stroke-width="0.4"/><line x1="113.95" y1="14.27" x2="112.12" y2="21.09" fill="none" stroke="#003a50" stroke-linecap="round" stroke-linejoin="round" stroke-width="0.4"/><line x1="112.12" y1="21.08" x2="115.77" y2="21.08" fill="none" stroke="#003a50" stroke-linecap="round" stroke-linejoin="round" stroke-width="0.4"/><line x1="115.77" y1="21.08" x2="113.95" y2="14.27" fill="none" stroke="#003a50" stroke-linecap="round" stroke-linejoin="round" stroke-width="0.4"/><polygon points="112.12 21.09 115.78 21.09 113.95 14.27 112.12 21.09" fill="#003a50"/><line x1="117.4" y1="14.27" x2="112.59" y2="14.27" fill="none" stroke="#003a50" stroke-linecap="round" stroke-linejoin="round" stroke-width="0.4"/><line x1="113.95" y1="14.27" x2="117.4" y2="14.27" fill="none" stroke="#003a50" stroke-linecap="round" stroke-linejoin="round" stroke-width="0.4"/><g clip-path="url(#clip-path)"><path d="M106.91,90.49a1.74,1.74,0,0,1,1.34-.56,2,2,0,0,1,1,.28,1.93,1.93,0,0,1,.7.83,3,3,0,0,1,.26,1.34,4.25,4.25,0,0,1-.23,1.38,2.86,2.86,0,0,1-.63,1l-.55-.34a2.38,2.38,0,0,0,.56-.89,3.15,3.15,0,0,0,.22-1.19,2,2,0,0,0-.36-1.28,1.22,1.22,0,0,0-1-.45,1.18,1.18,0,0,0-1,.45,2.15,2.15,0,0,0-.36,1.36v.48h-.51l-2.33-1.86v3.44h-.62V90.19h.49l2.4,1.91A2.51,2.51,0,0,1,106.91,90.49Z" fill="#003a50"/><path d="M109.83,87.67a2.71,2.71,0,0,1-1.19,1,4.45,4.45,0,0,1-1.82.34,4.49,4.49,0,0,1-1.83-.34,2.68,2.68,0,0,1-1.18-1,2.51,2.51,0,0,1,0-2.78,2.7,2.7,0,0,1,1.18-1,4.49,4.49,0,0,1,1.83-.35,4.44,4.44,0,0,1,1.82.35,2.73,2.73,0,0,1,1.19,1,2.56,2.56,0,0,1,0,2.78Zm-.55-2.43a2,2,0,0,0-1-.69,4.69,4.69,0,0,0-3,0,2.06,2.06,0,0,0-1,.69,1.78,1.78,0,0,0-.32,1,1.75,1.75,0,0,0,.32,1,2.15,2.15,0,0,0,1,.7,4.69,4.69,0,0,0,3,0,2.11,2.11,0,0,0,1-.7,1.69,1.69,0,0,0,.33-1A1.72,1.72,0,0,0,109.28,85.24Z" fill="#003a50"/><path d="M109.83,81.3a2.71,2.71,0,0,1-1.19,1,4.45,4.45,0,0,1-1.82.34,4.49,4.49,0,0,1-1.83-.34,2.68,2.68,0,0,1-1.18-1,2.51,2.51,0,0,1,0-2.78,2.7,2.7,0,0,1,1.18-1,4.49,4.49,0,0,1,1.83-.35,4.44,4.44,0,0,1,1.82.35,2.73,2.73,0,0,1,1.19,1,2.56,2.56,0,0,1,0,2.78Zm-.55-2.43a2.1,2.1,0,0,0-1-.69,4.69,4.69,0,0,0-3,0,2.13,2.13,0,0,0-1,.69,1.78,1.78,0,0,0-.32,1,1.75,1.75,0,0,0,.32,1,2.15,2.15,0,0,0,1,.7,4.69,4.69,0,0,0,3,0,2.11,2.11,0,0,0,1-.7,1.69,1.69,0,0,0,.33-1A1.72,1.72,0,0,0,109.28,78.87Z" fill="#003a50"/><path d="M109.83,74.93a2.64,2.64,0,0,1-1.19.95,4.45,4.45,0,0,1-1.82.34,4.49,4.49,0,0,1-1.83-.34,2.62,2.62,0,0,1-1.18-.95,2.51,2.51,0,0,1,0-2.78,2.7,2.7,0,0,1,1.18-1,4.49,4.49,0,0,1,1.83-.34,4.45,4.45,0,0,1,1.82.34,2.73,2.73,0,0,1,1.19,1,2.56,2.56,0,0,1,0,2.78Zm-.55-2.42a2.11,2.11,0,0,0-1-.7,4.69,4.69,0,0,0-3,0,2.15,2.15,0,0,0-1,.7,1.82,1.82,0,0,0,0,2.06,2.08,2.08,0,0,0,1,.7,4.69,4.69,0,0,0,3,0,2,2,0,0,0,1-.7,1.77,1.77,0,0,0,0-2.06Z" fill="#003a50"/><line x1="110.21" y1="-192.34" x2="110.21" y2="0.65" fill="none" stroke="#003a50" stroke-linecap="round" stroke-linejoin="round" stroke-width="0.4"/><line x1="110.21" y1="0.65" x2="112.03" y2="-6.16" fill="none" stroke="#003a50" stroke-linecap="round" stroke-linejoin="round" stroke-width="0.4"/><line x1="108.38" y1="-6.16" x2="110.21" y2="0.65" fill="none" stroke="#003a50" stroke-linecap="round" stroke-linejoin="round" stroke-width="0.4"/><polygon points="108.38 -6.16 110.21 0.65 112.03 -6.16 108.38 -6.16" fill="#003a50"/><line x1="113.66" y1="0.65" x2="108.85" y2="0.65" fill="none" stroke="#003a50" stroke-linecap="round" stroke-linejoin="round" stroke-width="0.4"/><line x1="110.21" y1="0.65" x2="113.66" y2="0.65" fill="none" stroke="#003a50" stroke-linecap="round" stroke-linejoin="round" stroke-width="0.4"/><line x1="311.51" y1="-26.6" x2="311.51" y2="0.65" fill="none" stroke="#003a50" stroke-linecap="round" stroke-linejoin="round" stroke-width="0.4"/><line x1="311.51" y1="0.65" x2="313.33" y2="-6.16" fill="none" stroke="#003a50" stroke-linecap="round" stroke-linejoin="round" stroke-width="0.4"/><line x1="309.68" y1="-6.16" x2="311.51" y2="0.65" fill="none" stroke="#003a50" stroke-linecap="round" stroke-linejoin="round" stroke-width="0.4"/><polygon points="309.68 -6.16 311.51 0.65 313.34 -6.16 309.68 -6.16" fill="#003a50"/><line x1="314.96" y1="0.65" x2="310.15" y2="0.65" fill="none" stroke="#003a50" stroke-linecap="round" stroke-linejoin="round" stroke-width="0.4"/><line x1="311.51" y1="0.65" x2="314.96" y2="0.65" fill="none" stroke="#003a50" stroke-linecap="round" stroke-linejoin="round" stroke-width="0.4"/><line x1="349.61" y1="-26.6" x2="349.61" y2="0.65" fill="none" stroke="#003a50" stroke-linecap="round" stroke-linejoin="round" stroke-width="0.4"/><line x1="349.61" y1="0.65" x2="351.44" y2="-6.16" fill="none" stroke="#003a50" stroke-linecap="round" stroke-linejoin="round" stroke-width="0.4"/><line x1="347.79" y1="-6.16" x2="349.61" y2="0.65" fill="none" stroke="#003a50" stroke-linecap="round" stroke-linejoin="round" stroke-width="0.4"/><polygon points="347.79 -6.16 349.61 0.65 351.44 -6.16 347.79 -6.16" fill="#003a50"/><line x1="353.07" y1="0.65" x2="348.25" y2="0.65" fill="none" stroke="#003a50" stroke-linecap="round" stroke-linejoin="round" stroke-width="0.4"/><line x1="349.61" y1="0.65" x2="353.07" y2="0.65" fill="none" stroke="#003a50" stroke-linecap="round" stroke-linejoin="round" stroke-width="0.4"/></g><line x1="447.42" y1="46.06" x2="447.42" y2="91.47" fill="none" stroke="#003a50" stroke-linecap="round" stroke-linejoin="round" stroke-width="0.4"/><line x1="447.42" y1="91.47" x2="449.24" y2="84.66" fill="none" stroke="#003a50" stroke-linecap="round" stroke-linejoin="round" stroke-width="0.4"/><line x1="449.24" y1="84.66" x2="445.59" y2="84.66" fill="none" stroke="#003a50" stroke-linecap="round" stroke-linejoin="round" stroke-width="0.4"/><line x1="445.59" y1="84.66" x2="447.41" y2="91.47" fill="none" stroke="#003a50" stroke-linecap="round" stroke-linejoin="round" stroke-width="0.4"/><polygon points="445.59 84.66 447.42 91.47 449.24 84.66 445.59 84.66" fill="#003a50"/><line x1="450.87" y1="91.47" x2="446.05" y2="91.47" fill="none" stroke="#003a50" stroke-linecap="round" stroke-linejoin="round" stroke-width="0.4"/><line x1="447.42" y1="91.47" x2="450.87" y2="91.47" fill="none" stroke="#003a50" stroke-linecap="round" stroke-linejoin="round" stroke-width="0.4"/><line x1="447.42" y1="46.06" x2="445.59" y2="52.87" fill="none" stroke="#003a50" stroke-linecap="round" stroke-linejoin="round" stroke-width="0.4"/><line x1="445.59" y1="52.87" x2="449.24" y2="52.87" fill="none" stroke="#003a50" stroke-linecap="round" stroke-linejoin="round" stroke-width="0.4"/><line x1="449.24" y1="52.87" x2="447.42" y2="46.06" fill="none" stroke="#003a50" stroke-linecap="round" stroke-linejoin="round" stroke-width="0.4"/><polygon points="445.59 52.87 449.24 52.87 447.42 46.06 445.59 52.87" fill="#003a50"/><line x1="450.87" y1="46.06" x2="446.05" y2="46.06" fill="none" stroke="#003a50" stroke-linecap="round" stroke-linejoin="round" stroke-width="0.4"/><line x1="447.42" y1="46.06" x2="450.87" y2="46.06" fill="none" stroke="#003a50" stroke-linecap="round" stroke-linejoin="round" stroke-width="0.4"/><g clip-path="url(#clip-path)"><path d="M436.92,77.83h6.73v.69h-6.12v1.59h-.61Z" fill="#003a50"/><path d="M443.3,74.93a2.84,2.84,0,0,1-1.19.95,5.07,5.07,0,0,1-3.65,0,2.84,2.84,0,0,1-1.19-.95,2.56,2.56,0,0,1,0-2.78,2.79,2.79,0,0,1,1.19-1,4.93,4.93,0,0,1,3.65,0,2.79,2.79,0,0,1,1.19,1,2.56,2.56,0,0,1,0,2.78Zm-.55-2.43a2.15,2.15,0,0,0-1-.7,4.13,4.13,0,0,0-1.5-.25,4.24,4.24,0,0,0-1.52.25,2.17,2.17,0,0,0-.95.7,1.71,1.71,0,0,0-.32,1,1.68,1.68,0,0,0,.32,1,2.17,2.17,0,0,0,.95.7,4.24,4.24,0,0,0,1.52.25,4.13,4.13,0,0,0,1.5-.25,2.15,2.15,0,0,0,1-.7,1.69,1.69,0,0,0,.33-1A1.72,1.72,0,0,0,442.75,72.5Z" fill="#003a50"/><path d="M443.3,68.56a2.84,2.84,0,0,1-1.19,1,5.07,5.07,0,0,1-3.65,0,2.84,2.84,0,0,1-1.19-1,2.56,2.56,0,0,1,0-2.78,2.79,2.79,0,0,1,1.19-1,4.93,4.93,0,0,1,3.65,0,2.79,2.79,0,0,1,1.19,1,2.56,2.56,0,0,1,0,2.78Zm-.55-2.43a2.13,2.13,0,0,0-1-.69,3.92,3.92,0,0,0-1.5-.25,4,4,0,0,0-1.52.25,2.15,2.15,0,0,0-.95.69,1.71,1.71,0,0,0-.32,1,1.68,1.68,0,0,0,.32,1,2.17,2.17,0,0,0,.95.7,4,4,0,0,0,1.52.25,3.92,3.92,0,0,0,1.5-.25,2.15,2.15,0,0,0,1-.7,1.69,1.69,0,0,0,.33-1A1.72,1.72,0,0,0,442.75,66.13Z" fill="#003a50"/><path d="M443.3,62.19a2.77,2.77,0,0,1-1.19,1,5.07,5.07,0,0,1-3.65,0,2.77,2.77,0,0,1-1.19-1,2.56,2.56,0,0,1,0-2.78,2.79,2.79,0,0,1,1.19-1,4.93,4.93,0,0,1,3.65,0,2.79,2.79,0,0,1,1.19,1,2.56,2.56,0,0,1,0,2.78Zm-.55-2.43a2.13,2.13,0,0,0-1-.69,3.92,3.92,0,0,0-1.5-.25,4,4,0,0,0-1.52.25,2.15,2.15,0,0,0-.95.69,1.71,1.71,0,0,0-.32,1,1.68,1.68,0,0,0,.32,1,2.17,2.17,0,0,0,.95.7,4,4,0,0,0,1.52.25,3.92,3.92,0,0,0,1.5-.25,2.15,2.15,0,0,0,1-.7,1.69,1.69,0,0,0,.33-1A1.72,1.72,0,0,0,442.75,59.76Z" fill="#003a50"/></g><line x1="85.49" y1="28.12" x2="312.54" y2="28.12" fill="none" stroke="#003a50" stroke-linecap="round" stroke-linejoin="round" stroke-width="0.4"/><line x1="312.54" y1="28.12" x2="305.73" y2="26.3" fill="none" stroke="#003a50" stroke-linecap="round" stroke-linejoin="round" stroke-width="0.4"/><line x1="305.73" y1="26.3" x2="305.73" y2="29.95" fill="none" stroke="#003a50" stroke-linecap="round" stroke-linejoin="round" stroke-width="0.4"/><line x1="305.73" y1="29.95" x2="312.54" y2="28.12" fill="none" stroke="#003a50" stroke-linecap="round" stroke-linejoin="round" stroke-width="0.4"/><polygon points="305.73 29.95 312.54 28.13 305.73 26.3 305.73 29.95" fill="#003a50"/><line x1="312.54" y1="24.67" x2="312.54" y2="29.48" fill="none" stroke="#003a50" stroke-linecap="round" stroke-linejoin="round" stroke-width="0.4"/><line x1="312.54" y1="28.12" x2="312.54" y2="24.67" fill="none" stroke="#003a50" stroke-linecap="round" stroke-linejoin="round" stroke-width="0.4"/><line x1="85.49" y1="28.12" x2="92.3" y2="29.95" fill="none" stroke="#003a50" stroke-linecap="round" stroke-linejoin="round" stroke-width="0.4"/><line x1="92.3" y1="29.95" x2="92.3" y2="26.3" fill="none" stroke="#003a50" stroke-linecap="round" stroke-linejoin="round" stroke-width="0.4"/><line x1="92.3" y1="26.3" x2="85.49" y2="28.12" fill="none" stroke="#003a50" stroke-linecap="round" stroke-linejoin="round" stroke-width="0.4"/><polygon points="85.49 28.12 92.31 29.95 92.31 26.3 85.49 28.12" fill="#003a50"/><line x1="85.49" y1="29.26" x2="85.49" y2="26.76" fill="none" stroke="#003a50" stroke-linecap="round" stroke-linejoin="round" stroke-width="0.4"/><line x1="85.49" y1="28.12" x2="85.49" y2="29.26" fill="none" stroke="#003a50" stroke-linecap="round" stroke-linejoin="round" stroke-width="0.4"/><g clip-path="url(#clip-path)"><path d="M190.81,20.91a1.78,1.78,0,0,1,.67,1.47,2.06,2.06,0,0,1-.28,1.05,1.87,1.87,0,0,1-.82.72,3.07,3.07,0,0,1-1.35.27,3.91,3.91,0,0,1-1.37-.24,2.86,2.86,0,0,1-1-.63L187,23a2.63,2.63,0,0,0,.89.57,3.29,3.29,0,0,0,1.18.21,2,2,0,0,0,1.3-.37,1.24,1.24,0,0,0,.45-1,1.18,1.18,0,0,0-.51-1.05,3.13,3.13,0,0,0-1.74-.36h-1.43l.35-3.38h3.68v.62H188l-.23,2.15h.87A3.48,3.48,0,0,1,190.81,20.91Z" fill="#003a50"/><path d="M193.65,24a2.7,2.7,0,0,1-1-1.18,4.67,4.67,0,0,1-.34-1.83,4.62,4.62,0,0,1,.34-1.82,2.73,2.73,0,0,1,1-1.19,2.56,2.56,0,0,1,2.78,0,2.78,2.78,0,0,1,.95,1.19,4.44,4.44,0,0,1,.35,1.82,4.49,4.49,0,0,1-.35,1.83,2.75,2.75,0,0,1-.95,1.18,2.51,2.51,0,0,1-2.78,0Zm2.42-.55a2.06,2.06,0,0,0,.7-.95,4.69,4.69,0,0,0,0-3,2.11,2.11,0,0,0-.7-.95,1.79,1.79,0,0,0-2.07,0,2.11,2.11,0,0,0-.7.95,4.69,4.69,0,0,0,0,3,2.06,2.06,0,0,0,.7.95,1.79,1.79,0,0,0,2.07,0Z" fill="#003a50"/><path d="M200,24a2.75,2.75,0,0,1-.95-1.18,4.49,4.49,0,0,1-.34-1.83,4.45,4.45,0,0,1,.34-1.82A2.78,2.78,0,0,1,200,18a2.56,2.56,0,0,1,2.78,0,2.73,2.73,0,0,1,1,1.19A4.44,4.44,0,0,1,204.1,21a4.49,4.49,0,0,1-.35,1.83,2.7,2.7,0,0,1-1,1.18A2.51,2.51,0,0,1,200,24Zm2.43-.55a2.06,2.06,0,0,0,.7-.95,4.69,4.69,0,0,0,0-3,2.11,2.11,0,0,0-.7-.95,1.79,1.79,0,0,0-2.07,0,2.11,2.11,0,0,0-.7.95,4.69,4.69,0,0,0,0,3,2.06,2.06,0,0,0,.7.95,1.79,1.79,0,0,0,2.07,0Z" fill="#003a50"/><path d="M206.38,24a2.75,2.75,0,0,1-.95-1.18,4.49,4.49,0,0,1-.34-1.83,4.45,4.45,0,0,1,.34-1.82,2.78,2.78,0,0,1,.95-1.19,2.56,2.56,0,0,1,2.78,0,2.73,2.73,0,0,1,1,1.19,4.44,4.44,0,0,1,.35,1.82,4.49,4.49,0,0,1-.35,1.83,2.7,2.7,0,0,1-1,1.18,2.51,2.51,0,0,1-2.78,0Zm2.43-.55a2,2,0,0,0,.69-.95,4.51,4.51,0,0,0,0-3,2,2,0,0,0-.69-.95,1.72,1.72,0,0,0-1-.33,1.69,1.69,0,0,0-1,.33,2.11,2.11,0,0,0-.7.95,4,4,0,0,0-.25,1.51A4,4,0,0,0,206,22.5a2.06,2.06,0,0,0,.7.95,1.69,1.69,0,0,0,1,.33A1.72,1.72,0,0,0,208.81,23.45Z" fill="#003a50"/></g><line x1="317.08" y1="28.12" x2="419.25" y2="28.12" fill="none" stroke="#003a50" stroke-linecap="round" stroke-linejoin="round" stroke-width="0.4"/><line x1="419.25" y1="28.12" x2="412.44" y2="26.3" fill="none" stroke="#003a50" stroke-linecap="round" stroke-linejoin="round" stroke-width="0.4"/><line x1="412.44" y1="26.3" x2="412.44" y2="29.95" fill="none" stroke="#003a50" stroke-linecap="round" stroke-linejoin="round" stroke-width="0.4"/><line x1="412.44" y1="29.95" x2="419.25" y2="28.12" fill="none" stroke="#003a50" stroke-linecap="round" stroke-linejoin="round" stroke-width="0.4"/><polygon points="412.44 29.95 419.25 28.13 412.44 26.3 412.44 29.95" fill="#003a50"/><line x1="419.25" y1="24.67" x2="419.25" y2="29.48" fill="none" stroke="#003a50" stroke-linecap="round" stroke-linejoin="round" stroke-width="0.4"/><line x1="419.25" y1="28.12" x2="419.25" y2="24.67" fill="none" stroke="#003a50" stroke-linecap="round" stroke-linejoin="round" stroke-width="0.4"/><line x1="317.08" y1="28.12" x2="323.89" y2="29.95" fill="none" stroke="#003a50" stroke-linecap="round" stroke-linejoin="round" stroke-width="0.4"/><line x1="323.89" y1="29.95" x2="323.89" y2="26.3" fill="none" stroke="#003a50" stroke-linecap="round" stroke-linejoin="round" stroke-width="0.4"/><line x1="323.89" y1="26.3" x2="317.08" y2="28.12" fill="none" stroke="#003a50" stroke-linecap="round" stroke-linejoin="round" stroke-width="0.4"/><polygon points="317.08 28.12 323.89 29.95 323.89 26.3 317.08 28.12" fill="#003a50"/><line x1="317.08" y1="24.67" x2="317.08" y2="29.48" fill="none" stroke="#003a50" stroke-linecap="round" stroke-linejoin="round" stroke-width="0.4"/><line x1="317.08" y1="28.12" x2="317.08" y2="24.67" fill="none" stroke="#003a50" stroke-linecap="round" stroke-linejoin="round" stroke-width="0.4"/><g clip-path="url(#clip-path)"><path d="M361.62,23.74v.62h-4.73v-.49l2.8-2.74a3.49,3.49,0,0,0,.72-.9,1.68,1.68,0,0,0,.19-.77,1.14,1.14,0,0,0-.41-.93A1.81,1.81,0,0,0,359,18.2a2.32,2.32,0,0,0-1.84.75l-.49-.42a2.54,2.54,0,0,1,1-.71,3.5,3.5,0,0,1,1.38-.25,2.55,2.55,0,0,1,1.63.48,1.63,1.63,0,0,1,.6,1.33,2.37,2.37,0,0,1-.23,1,4.24,4.24,0,0,1-.88,1.1l-2.29,2.25Z" fill="#003a50"/><path d="M367.08,23.74v.62h-4.72v-.49l2.8-2.74a4,4,0,0,0,.72-.9,1.8,1.8,0,0,0,.18-.77,1.11,1.11,0,0,0-.41-.93,1.81,1.81,0,0,0-1.17-.33,2.3,2.3,0,0,0-1.83.75l-.49-.42a2.44,2.44,0,0,1,1-.71,3.57,3.57,0,0,1,1.38-.25,2.53,2.53,0,0,1,1.63.48,1.63,1.63,0,0,1,.6,1.33,2.23,2.23,0,0,1-.23,1,4,4,0,0,1-.87,1.1l-2.29,2.25Z" fill="#003a50"/><path d="M371.85,20.91a1.78,1.78,0,0,1,.67,1.47,2,2,0,0,1-.28,1.05,1.82,1.82,0,0,1-.82.72,3,3,0,0,1-1.35.27,4,4,0,0,1-1.37-.24,2.86,2.86,0,0,1-1-.63L368,23a2.58,2.58,0,0,0,.88.57,3.29,3.29,0,0,0,1.18.21,2,2,0,0,0,1.3-.37,1.25,1.25,0,0,0,.46-1,1.19,1.19,0,0,0-.52-1.05,3.13,3.13,0,0,0-1.74-.36h-1.43l.35-3.38h3.68v.62h-3.08l-.23,2.15h.87A3.48,3.48,0,0,1,371.85,20.91Z" fill="#003a50"/><path d="M374.69,24a2.7,2.7,0,0,1-1-1.18,4.67,4.67,0,0,1-.34-1.83,4.62,4.62,0,0,1,.34-1.82,2.73,2.73,0,0,1,1-1.19,2.56,2.56,0,0,1,2.78,0,2.78,2.78,0,0,1,.95,1.19,4.28,4.28,0,0,1,.35,1.82,4.33,4.33,0,0,1-.35,1.83,2.75,2.75,0,0,1-.95,1.18,2.51,2.51,0,0,1-2.78,0Zm2.42-.55a2.06,2.06,0,0,0,.7-.95,4,4,0,0,0,.25-1.51,4,4,0,0,0-.25-1.51,2.11,2.11,0,0,0-.7-.95,1.69,1.69,0,0,0-1-.33,1.72,1.72,0,0,0-1,.33,2,2,0,0,0-.69.95,4.51,4.51,0,0,0,0,3,2,2,0,0,0,.69.95,1.72,1.72,0,0,0,1,.33A1.69,1.69,0,0,0,377.11,23.45Z" fill="#003a50"/></g><line x1="333.39" y1="96.01" x2="333.39" y2="14.27" fill="none" stroke="#003a50" stroke-linecap="round" stroke-linejoin="round" stroke-width="0.4"/><line x1="333.39" y1="14.27" x2="331.57" y2="21.09" fill="none" stroke="#003a50" stroke-linecap="round" stroke-linejoin="round" stroke-width="0.4"/><line x1="331.57" y1="21.08" x2="335.22" y2="21.08" fill="none" stroke="#003a50" stroke-linecap="round" stroke-linejoin="round" stroke-width="0.4"/><line x1="335.22" y1="21.08" x2="333.4" y2="14.27" fill="none" stroke="#003a50" stroke-linecap="round" stroke-linejoin="round" stroke-width="0.4"/><polygon points="331.57 21.09 335.22 21.09 333.39 14.27 331.57 21.09" fill="#003a50"/><line x1="329.94" y1="14.27" x2="334.76" y2="14.27" fill="none" stroke="#003a50" stroke-linecap="round" stroke-linejoin="round" stroke-width="0.4"/><line x1="333.39" y1="14.27" x2="329.94" y2="14.27" fill="none" stroke="#003a50" stroke-linecap="round" stroke-linejoin="round" stroke-width="0.4"/><line x1="333.39" y1="96.01" x2="335.22" y2="89.2" fill="none" stroke="#003a50" stroke-linecap="round" stroke-linejoin="round" stroke-width="0.4"/><line x1="335.22" y1="89.2" x2="331.57" y2="89.2" fill="none" stroke="#003a50" stroke-linecap="round" stroke-linejoin="round" stroke-width="0.4"/><line x1="331.57" y1="89.2" x2="333.39" y2="96.01" fill="none" stroke="#003a50" stroke-linecap="round" stroke-linejoin="round" stroke-width="0.4"/><polygon points="331.57 89.2 333.39 96.01 335.22 89.2 331.57 89.2" fill="#003a50"/><line x1="329.94" y1="96.01" x2="334.76" y2="96.01" fill="none" stroke="#003a50" stroke-linecap="round" stroke-linejoin="round" stroke-width="0.4"/><line x1="333.39" y1="96.01" x2="329.94" y2="96.01" fill="none" stroke="#003a50" stroke-linecap="round" stroke-linejoin="round" stroke-width="0.4"/><g clip-path="url(#clip-path)"><path d="M322.9,64.14h6.73v.69h-6.12v1.59h-.61Z" fill="#003a50"/><path d="M326.74,57.7a1.55,1.55,0,0,1,1-.34,1.69,1.69,0,0,1,1,.31,2,2,0,0,1,.67.91,3.71,3.71,0,0,1,.24,1.39,3.1,3.1,0,0,1-.52,1.91,1.68,1.68,0,0,1-1.41.69,1.61,1.61,0,0,1-1-.33,2,2,0,0,1-.63-1,1.66,1.66,0,0,1-.58.79,1.5,1.5,0,0,1-.9.27,1.53,1.53,0,0,1-1.3-.64,2.81,2.81,0,0,1-.48-1.72,3.16,3.16,0,0,1,.22-1.24,1.77,1.77,0,0,1,.62-.83,1.53,1.53,0,0,1,.94-.3,1.44,1.44,0,0,1,.9.28,1.71,1.71,0,0,1,.58.79A2,2,0,0,1,326.74,57.7Zm-1.22,3.5a2,2,0,0,0,.33-1.23,2,2,0,0,0-.33-1.22,1,1,0,0,0-.87-.45,1,1,0,0,0-.9.46,2.47,2.47,0,0,0,0,2.43,1.05,1.05,0,0,0,.89.45A1,1,0,0,0,325.52,61.2Zm3.22-2.63a1.19,1.19,0,0,0-1-.5,1.16,1.16,0,0,0-1,.5,2.4,2.4,0,0,0-.36,1.4,2.34,2.34,0,0,0,.36,1.39,1.15,1.15,0,0,0,1,.51,1.16,1.16,0,0,0,1-.5,2.36,2.36,0,0,0,.36-1.4A2.4,2.4,0,0,0,328.74,58.57Z" fill="#003a50"/><path d="M329.28,55.1a2.7,2.7,0,0,1-1.19.95,5.07,5.07,0,0,1-3.65,0,2.7,2.7,0,0,1-1.19-.95,2.56,2.56,0,0,1,0-2.78,2.79,2.79,0,0,1,1.19-1,5.07,5.07,0,0,1,3.65,0,2.79,2.79,0,0,1,1.19,1,2.56,2.56,0,0,1,0,2.78Zm-.55-2.42a2.17,2.17,0,0,0-1-.7,4.07,4.07,0,0,0-1.52-.25,4,4,0,0,0-1.51.25,2.17,2.17,0,0,0-.95.7,1.77,1.77,0,0,0,0,2.06,2.1,2.1,0,0,0,.95.7,4,4,0,0,0,1.51.25,4.07,4.07,0,0,0,1.52-.25,2.1,2.1,0,0,0,1-.7,1.82,1.82,0,0,0,0-2.06Z" fill="#003a50"/><path d="M329.28,48.73a2.7,2.7,0,0,1-1.19,1,4.93,4.93,0,0,1-3.65,0,2.7,2.7,0,0,1-1.19-1,2.56,2.56,0,0,1,0-2.78,2.94,2.94,0,0,1,1.19-1,5.07,5.07,0,0,1,3.65,0,2.94,2.94,0,0,1,1.19,1,2.56,2.56,0,0,1,0,2.78Zm-.55-2.42a2.17,2.17,0,0,0-1-.7,4.07,4.07,0,0,0-1.52-.25,4,4,0,0,0-1.51.25,2.17,2.17,0,0,0-.95.7,1.69,1.69,0,0,0-.33,1,1.72,1.72,0,0,0,.33,1,2.15,2.15,0,0,0,.95.69,4,4,0,0,0,1.51.25,4.07,4.07,0,0,0,1.52-.25,2.15,2.15,0,0,0,1-.69,1.71,1.71,0,0,0,.32-1A1.68,1.68,0,0,0,328.73,46.31Z" fill="#003a50"/></g><line x1="347.73" y1="113.4" x2="381.79" y2="113.4" fill="none" stroke="#003a50" stroke-linecap="round" stroke-linejoin="round" stroke-width="0.4"/><line x1="381.79" y1="113.4" x2="374.98" y2="111.58" fill="none" stroke="#003a50" stroke-linecap="round" stroke-linejoin="round" stroke-width="0.4"/><line x1="374.98" y1="111.57" x2="374.98" y2="115.23" fill="none" stroke="#003a50" stroke-linecap="round" stroke-linejoin="round" stroke-width="0.4"/><line x1="374.98" y1="115.22" x2="381.79" y2="113.4" fill="none" stroke="#003a50" stroke-linecap="round" stroke-linejoin="round" stroke-width="0.4"/><polygon points="374.98 115.23 381.79 113.4 374.98 111.57 374.98 115.23" fill="#003a50"/><line x1="381.79" y1="109.95" x2="381.79" y2="114.76" fill="none" stroke="#003a50" stroke-linecap="round" stroke-linejoin="round" stroke-width="0.4"/><line x1="381.79" y1="113.4" x2="381.79" y2="109.94" fill="none" stroke="#003a50" stroke-linecap="round" stroke-linejoin="round" stroke-width="0.4"/><line x1="347.73" y1="113.4" x2="354.55" y2="115.22" fill="none" stroke="#003a50" stroke-linecap="round" stroke-linejoin="round" stroke-width="0.4"/><line x1="354.55" y1="115.22" x2="354.55" y2="111.57" fill="none" stroke="#003a50" stroke-linecap="round" stroke-linejoin="round" stroke-width="0.4"/><line x1="354.55" y1="111.57" x2="347.73" y2="113.4" fill="none" stroke="#003a50" stroke-linecap="round" stroke-linejoin="round" stroke-width="0.4"/><polygon points="347.73 113.4 354.55 115.22 354.55 111.58 347.73 113.4" fill="#003a50"/><line x1="347.73" y1="109.95" x2="347.73" y2="114.76" fill="none" stroke="#003a50" stroke-linecap="round" stroke-linejoin="round" stroke-width="0.4"/><line x1="347.73" y1="113.4" x2="347.73" y2="109.94" fill="none" stroke="#003a50" stroke-linecap="round" stroke-linejoin="round" stroke-width="0.4"/><g clip-path="url(#clip-path)"><path d="M360.88,102.9v.49l-2.82,6.25h-.75l2.77-6.12h-3.46v1.26h-.69V102.9Z" fill="#003a50"/><path d="M365.52,106.19a1.77,1.77,0,0,1,.67,1.46,1.92,1.92,0,0,1-.28,1,1.84,1.84,0,0,1-.82.73,3,3,0,0,1-1.35.26,3.94,3.94,0,0,1-1.37-.23,2.86,2.86,0,0,1-1-.63l.34-.55a2.42,2.42,0,0,0,.88.56,3.1,3.1,0,0,0,1.18.22,2,2,0,0,0,1.3-.38,1.24,1.24,0,0,0,.46-1,1.18,1.18,0,0,0-.52-1,3.13,3.13,0,0,0-1.74-.36H361.8l.35-3.38h3.68v.62h-3.08l-.23,2.14h.87A3.47,3.47,0,0,1,365.52,106.19Z" fill="#003a50"/><path d="M368.36,109.28a2.73,2.73,0,0,1-1-1.19,5,5,0,0,1,0-3.64,2.67,2.67,0,0,1,1-1.19,2.51,2.51,0,0,1,2.78,0,2.73,2.73,0,0,1,.95,1.19,4.91,4.91,0,0,1,0,3.64,2.78,2.78,0,0,1-.95,1.19,2.56,2.56,0,0,1-2.78,0Zm2.42-.55a2.11,2.11,0,0,0,.7-1,4.69,4.69,0,0,0,0-3,2.06,2.06,0,0,0-.7-1,1.69,1.69,0,0,0-1-.33,1.72,1.72,0,0,0-1,.33,2,2,0,0,0-.69,1,4.51,4.51,0,0,0,0,3,2,2,0,0,0,.69,1,1.72,1.72,0,0,0,1,.33A1.69,1.69,0,0,0,370.78,108.73Z" fill="#003a50"/></g><line x1="333.39" y1="209.54" x2="333.39" y2="100.55" fill="none" stroke="#003a50" stroke-linecap="round" stroke-linejoin="round" stroke-width="0.4"/><line x1="333.39" y1="100.55" x2="331.57" y2="107.36" fill="none" stroke="#003a50" stroke-linecap="round" stroke-linejoin="round" stroke-width="0.4"/><line x1="331.57" y1="107.36" x2="335.22" y2="107.36" fill="none" stroke="#003a50" stroke-linecap="round" stroke-linejoin="round" stroke-width="0.4"/><line x1="335.22" y1="107.36" x2="333.4" y2="100.55" fill="none" stroke="#003a50" stroke-linecap="round" stroke-linejoin="round" stroke-width="0.4"/><polygon points="331.57 107.36 335.22 107.36 333.39 100.55 331.57 107.36" fill="#003a50"/><line x1="329.94" y1="100.55" x2="334.76" y2="100.55" fill="none" stroke="#003a50" stroke-linecap="round" stroke-linejoin="round" stroke-width="0.4"/><line x1="333.39" y1="100.55" x2="329.94" y2="100.55" fill="none" stroke="#003a50" stroke-linecap="round" stroke-linejoin="round" stroke-width="0.4"/><line x1="333.39" y1="209.54" x2="335.22" y2="202.72" fill="none" stroke="#003a50" stroke-linecap="round" stroke-linejoin="round" stroke-width="0.4"/><line x1="335.22" y1="202.72" x2="331.57" y2="202.72" fill="none" stroke="#003a50" stroke-linecap="round" stroke-linejoin="round" stroke-width="0.4"/><line x1="331.57" y1="202.72" x2="333.39" y2="209.54" fill="none" stroke="#003a50" stroke-linecap="round" stroke-linejoin="round" stroke-width="0.4"/><polygon points="331.57 202.72 333.39 209.53 335.22 202.72 331.57 202.72" fill="#003a50"/><line x1="329.94" y1="209.54" x2="334.76" y2="209.54" fill="none" stroke="#003a50" stroke-linecap="round" stroke-linejoin="round" stroke-width="0.4"/><line x1="333.39" y1="209.54" x2="329.94" y2="209.54" fill="none" stroke="#003a50" stroke-linecap="round" stroke-linejoin="round" stroke-width="0.4"/><g clip-path="url(#clip-path)"><path d="M329,162.52h.61v4.73h-.49l-2.74-2.8a4,4,0,0,0-.9-.72,1.79,1.79,0,0,0-.77-.19,1.13,1.13,0,0,0-.92.41,1.79,1.79,0,0,0-.34,1.17,2.32,2.32,0,0,0,.75,1.84l-.42.49a2.57,2.57,0,0,1-.71-1,3.5,3.5,0,0,1-.25-1.38,2.5,2.5,0,0,1,.49-1.63,1.6,1.6,0,0,1,1.33-.6,2.36,2.36,0,0,1,1,.23,4.24,4.24,0,0,1,1.1.88l2.26,2.29Z" fill="#003a50"/><path d="M327.86,156.15v1.34h1.77v.7h-1.77V162h-.5l-4.46-3.57v-.77l4.35,3.44v-2.92h-1.56v-.68h1.56v-1.34Z" fill="#003a50"/><path d="M329.28,154.22a2.84,2.84,0,0,1-1.19.95,5.07,5.07,0,0,1-3.65,0,2.78,2.78,0,0,1-1.19-.95,2.56,2.56,0,0,1,0-2.78,2.73,2.73,0,0,1,1.19-1,4.93,4.93,0,0,1,3.65,0,2.79,2.79,0,0,1,1.19,1,2.56,2.56,0,0,1,0,2.78Zm-.55-2.43a2.17,2.17,0,0,0-1-.7,4.28,4.28,0,0,0-1.52-.25,4.22,4.22,0,0,0-1.51.25,2.17,2.17,0,0,0-.95.7,1.72,1.72,0,0,0-.33,1,1.69,1.69,0,0,0,.33,1,2.17,2.17,0,0,0,.95.7,4.22,4.22,0,0,0,1.51.25,4.28,4.28,0,0,0,1.52-.25,2.17,2.17,0,0,0,1-.7,1.68,1.68,0,0,0,.32-1A1.71,1.71,0,0,0,328.73,151.79Z" fill="#003a50"/><path d="M329.28,147.85a2.84,2.84,0,0,1-1.19,1,5.07,5.07,0,0,1-3.65,0,2.78,2.78,0,0,1-1.19-1,2.56,2.56,0,0,1,0-2.78,2.73,2.73,0,0,1,1.19-1,4.93,4.93,0,0,1,3.65,0,2.79,2.79,0,0,1,1.19,1,2.56,2.56,0,0,1,0,2.78Zm-.55-2.43a2.15,2.15,0,0,0-1-.69,4.07,4.07,0,0,0-1.52-.25,4,4,0,0,0-1.51.25,2.15,2.15,0,0,0-.95.69,1.72,1.72,0,0,0-.33,1,1.69,1.69,0,0,0,.33,1,2.17,2.17,0,0,0,.95.7,4,4,0,0,0,1.51.25,4.07,4.07,0,0,0,1.52-.25,2.17,2.17,0,0,0,1-.7,1.68,1.68,0,0,0,.32-1A1.71,1.71,0,0,0,328.73,145.42Z" fill="#003a50"/></g><line x1="314.81" y1="199.18" x2="398.82" y2="199.18" fill="none" stroke="#003a50" stroke-linecap="round" stroke-linejoin="round" stroke-width="0.4"/><line x1="398.82" y1="199.18" x2="392.01" y2="197.36" fill="none" stroke="#003a50" stroke-linecap="round" stroke-linejoin="round" stroke-width="0.4"/><line x1="392.01" y1="197.35" x2="392.01" y2="201.01" fill="none" stroke="#003a50" stroke-linecap="round" stroke-linejoin="round" stroke-width="0.4"/><line x1="392.01" y1="201" x2="398.82" y2="199.18" fill="none" stroke="#003a50" stroke-linecap="round" stroke-linejoin="round" stroke-width="0.4"/><polygon points="392.01 201.01 398.82 199.18 392.01 197.35 392.01 201.01" fill="#003a50"/><line x1="398.82" y1="195.73" x2="398.82" y2="200.54" fill="none" stroke="#003a50" stroke-linecap="round" stroke-linejoin="round" stroke-width="0.4"/><line x1="398.82" y1="199.18" x2="398.82" y2="195.72" fill="none" stroke="#003a50" stroke-linecap="round" stroke-linejoin="round" stroke-width="0.4"/><line x1="314.81" y1="199.18" x2="321.62" y2="201" fill="none" stroke="#003a50" stroke-linecap="round" stroke-linejoin="round" stroke-width="0.4"/><line x1="321.62" y1="201" x2="321.62" y2="197.35" fill="none" stroke="#003a50" stroke-linecap="round" stroke-linejoin="round" stroke-width="0.4"/><line x1="321.62" y1="197.35" x2="314.81" y2="199.18" fill="none" stroke="#003a50" stroke-linecap="round" stroke-linejoin="round" stroke-width="0.4"/><polygon points="314.81 199.18 321.63 201 321.63 197.36 314.81 199.18" fill="#003a50"/><line x1="314.81" y1="195.73" x2="314.81" y2="200.54" fill="none" stroke="#003a50" stroke-linecap="round" stroke-linejoin="round" stroke-width="0.4"/><line x1="314.81" y1="199.18" x2="314.81" y2="195.72" fill="none" stroke="#003a50" stroke-linecap="round" stroke-linejoin="round" stroke-width="0.4"/><g clip-path="url(#clip-path)"><path d="M348.29,188.68v6.74h-.7V189.3H346v-.62Z" fill="#003a50"/><path d="M354.73,192.52a1.55,1.55,0,0,1,.34,1,1.75,1.75,0,0,1-.32,1,2,2,0,0,1-.91.67,3.64,3.64,0,0,1-1.39.24,3.13,3.13,0,0,1-1.9-.52,1.69,1.69,0,0,1-.69-1.42,1.6,1.6,0,0,1,.33-1,2,2,0,0,1,1-.63,1.64,1.64,0,0,1-.78-.59,1.49,1.49,0,0,1-.27-.89,1.53,1.53,0,0,1,.64-1.3,2.76,2.76,0,0,1,1.71-.48,3.41,3.41,0,0,1,1.25.21,2,2,0,0,1,.83.62,1.56,1.56,0,0,1,.3.95,1.43,1.43,0,0,1-.28.89,1.75,1.75,0,0,1-.8.59A2.09,2.09,0,0,1,354.73,192.52Zm-.88,2a1.21,1.21,0,0,0,0-2,2.88,2.88,0,0,0-2.79,0,1.16,1.16,0,0,0-.5,1,1.14,1.14,0,0,0,.5,1,2.34,2.34,0,0,0,1.39.36A2.29,2.29,0,0,0,353.85,194.52Zm-2.62-3.21a2,2,0,0,0,1.22.33,2,2,0,0,0,1.23-.33,1,1,0,0,0,.45-.88,1.06,1.06,0,0,0-.46-.89,2,2,0,0,0-1.22-.33,2,2,0,0,0-1.21.33,1,1,0,0,0-.45.88A1.05,1.05,0,0,0,351.23,191.31Z" fill="#003a50"/><path d="M359.93,192a1.75,1.75,0,0,1,.67,1.47,2,2,0,0,1-.27,1,1.83,1.83,0,0,1-.82.73,3.07,3.07,0,0,1-1.35.27,3.91,3.91,0,0,1-1.37-.24,2.91,2.91,0,0,1-1.05-.63l.34-.55a2.38,2.38,0,0,0,.89.56,3.06,3.06,0,0,0,1.18.22,2,2,0,0,0,1.29-.37,1.23,1.23,0,0,0,.46-1,1.18,1.18,0,0,0-.51-1,3.18,3.18,0,0,0-1.74-.36h-1.44l.35-3.38h3.69v.62h-3.08l-.23,2.14h.86A3.43,3.43,0,0,1,359.93,192Z" fill="#003a50"/><path d="M362.77,195.06a2.66,2.66,0,0,1-.95-1.19,5,5,0,0,1,0-3.64,2.71,2.71,0,0,1,.95-1.19,2.56,2.56,0,0,1,2.78,0,2.73,2.73,0,0,1,1,1.19,4.91,4.91,0,0,1,0,3.64,2.67,2.67,0,0,1-1,1.19,2.51,2.51,0,0,1-2.78,0Zm2.43-.55a2,2,0,0,0,.69-.95,4.69,4.69,0,0,0,0-3,2.1,2.1,0,0,0-.69-.95,1.72,1.72,0,0,0-1-.33,1.69,1.69,0,0,0-1,.33,2.11,2.11,0,0,0-.7.95,4.69,4.69,0,0,0,0,3,2.06,2.06,0,0,0,.7.95,1.69,1.69,0,0,0,1,.33A1.72,1.72,0,0,0,365.2,194.51Z" fill="#003a50"/><line x1="388.93" y1="223.16" x2="388.93" y2="300.35" fill="none" stroke="#003a50" stroke-linecap="round" stroke-linejoin="round" stroke-width="0.4"/><line x1="388.93" y1="223.16" x2="387.1" y2="229.97" fill="none" stroke="#003a50" stroke-linecap="round" stroke-linejoin="round" stroke-width="0.4"/><line x1="390.75" y1="229.97" x2="388.93" y2="223.16" fill="none" stroke="#003a50" stroke-linecap="round" stroke-linejoin="round" stroke-width="0.4"/><line x1="392.38" y1="223.16" x2="387.57" y2="223.16" fill="none" stroke="#003a50" stroke-linecap="round" stroke-linejoin="round" stroke-width="0.4"/><line x1="388.93" y1="223.16" x2="392.38" y2="223.16" fill="none" stroke="#003a50" stroke-linecap="round" stroke-linejoin="round" stroke-width="0.4"/><line x1="80.95" y1="180.62" x2="301.19" y2="180.62" fill="none" stroke="#003a50" stroke-linecap="round" stroke-linejoin="round" stroke-width="0.4"/><line x1="301.19" y1="180.62" x2="294.38" y2="178.8" fill="none" stroke="#003a50" stroke-linecap="round" stroke-linejoin="round" stroke-width="0.4"/><line x1="294.38" y1="182.45" x2="301.19" y2="180.62" fill="none" stroke="#003a50" stroke-linecap="round" stroke-linejoin="round" stroke-width="0.4"/><polygon points="294.38 182.45 301.19 180.62 294.38 178.8 294.38 182.45" fill="#003a50"/><line x1="301.19" y1="177.17" x2="301.19" y2="181.98" fill="none" stroke="#003a50" stroke-linecap="round" stroke-linejoin="round" stroke-width="0.4"/><line x1="301.19" y1="180.62" x2="301.19" y2="177.17" fill="none" stroke="#003a50" stroke-linecap="round" stroke-linejoin="round" stroke-width="0.4"/><path d="M184.6,175.09h-1.35v1.77h-.69v-1.77h-3.8v-.5l3.56-4.46h.77l-3.44,4.34h2.92v-1.55h.68v1.55h1.35Z" fill="#003a50"/><path d="M190.16,174a1.59,1.59,0,0,1,.34,1,1.7,1.7,0,0,1-.31,1,2.11,2.11,0,0,1-.91.67,3.71,3.71,0,0,1-1.39.24,3.16,3.16,0,0,1-1.91-.52,1.69,1.69,0,0,1-.69-1.42,1.6,1.6,0,0,1,.33-1,2,2,0,0,1,1-.63,1.72,1.72,0,0,1-.79-.58,1.64,1.64,0,0,1,.37-2.2,2.79,2.79,0,0,1,1.72-.48,3.35,3.35,0,0,1,1.24.21,1.9,1.9,0,0,1,.83.62,1.56,1.56,0,0,1,.3.95,1.48,1.48,0,0,1-.28.9,1.75,1.75,0,0,1-.8.58A2,2,0,0,1,190.16,174Zm-.87,2a1.22,1.22,0,0,0,0-2,2.4,2.4,0,0,0-1.4-.36,2.34,2.34,0,0,0-1.39.36,1.14,1.14,0,0,0-.51,1,1.17,1.17,0,0,0,.5,1,2.36,2.36,0,0,0,1.4.36A2.33,2.33,0,0,0,189.29,176Zm-2.63-3.21a2,2,0,0,0,1.23.33,2,2,0,0,0,1.22-.33,1,1,0,0,0,.45-.87,1,1,0,0,0-.46-.9,2.4,2.4,0,0,0-2.43,0,1,1,0,0,0-.45.89A1,1,0,0,0,186.66,172.75Z" fill="#003a50"/><path d="M195.37,173.41a1.77,1.77,0,0,1,.66,1.47,2.05,2.05,0,0,1-.27,1.05,1.87,1.87,0,0,1-.82.72,3.07,3.07,0,0,1-1.35.27,3.91,3.91,0,0,1-1.37-.24,2.86,2.86,0,0,1-1-.63l.33-.55a2.63,2.63,0,0,0,.89.57,3.25,3.25,0,0,0,1.18.21,2,2,0,0,0,1.29-.37,1.22,1.22,0,0,0,.46-1,1.18,1.18,0,0,0-.51-1,3.16,3.16,0,0,0-1.74-.36h-1.43l.34-3.37h3.69v.61H192.6l-.23,2.15h.86A3.49,3.49,0,0,1,195.37,173.41Z" fill="#003a50"/><path d="M198.2,176.5a2.75,2.75,0,0,1-.95-1.18,4.49,4.49,0,0,1-.34-1.83,4.45,4.45,0,0,1,.34-1.82,2.78,2.78,0,0,1,.95-1.19,2.56,2.56,0,0,1,2.78,0,2.73,2.73,0,0,1,1,1.19,4.44,4.44,0,0,1,.35,1.82,4.49,4.49,0,0,1-.35,1.83,2.7,2.7,0,0,1-1,1.18,2.51,2.51,0,0,1-2.78,0Zm2.43-.54a2.15,2.15,0,0,0,.7-1,4.69,4.69,0,0,0,0-3,2.11,2.11,0,0,0-.7-.95,1.72,1.72,0,0,0-1-.33,1.69,1.69,0,0,0-1,.33,2.11,2.11,0,0,0-.7.95,4.69,4.69,0,0,0,0,3,2.15,2.15,0,0,0,.7,1,1.75,1.75,0,0,0,1,.32A1.78,1.78,0,0,0,200.63,176Z" fill="#003a50"/></g><line x1="299.34" y1="96.01" x2="299.34" y2="150.5" fill="none" stroke="#003a50" stroke-linecap="round" stroke-linejoin="round" stroke-width="0.4"/><line x1="299.34" y1="150.5" x2="301.16" y2="143.69" fill="none" stroke="#003a50" stroke-linecap="round" stroke-linejoin="round" stroke-width="0.4"/><line x1="301.16" y1="143.69" x2="297.51" y2="143.69" fill="none" stroke="#003a50" stroke-linecap="round" stroke-linejoin="round" stroke-width="0.4"/><line x1="297.51" y1="143.69" x2="299.34" y2="150.5" fill="none" stroke="#003a50" stroke-linecap="round" stroke-linejoin="round" stroke-width="0.4"/><polygon points="297.51 143.69 299.34 150.5 301.16 143.69 297.51 143.69" fill="#003a50"/><line x1="302.79" y1="150.5" x2="297.97" y2="150.5" fill="none" stroke="#003a50" stroke-linecap="round" stroke-linejoin="round" stroke-width="0.4"/><line x1="299.34" y1="150.5" x2="302.79" y2="150.5" fill="none" stroke="#003a50" stroke-linecap="round" stroke-linejoin="round" stroke-width="0.4"/><line x1="299.34" y1="96.01" x2="297.51" y2="102.82" fill="none" stroke="#003a50" stroke-linecap="round" stroke-linejoin="round" stroke-width="0.4"/><line x1="297.51" y1="102.82" x2="301.16" y2="102.82" fill="none" stroke="#003a50" stroke-linecap="round" stroke-linejoin="round" stroke-width="0.4"/><line x1="301.16" y1="102.82" x2="299.34" y2="96.01" fill="none" stroke="#003a50" stroke-linecap="round" stroke-linejoin="round" stroke-width="0.4"/><polygon points="297.51 102.82 301.16 102.82 299.34 96.01 297.51 102.82" fill="#003a50"/><line x1="302.79" y1="96.01" x2="297.97" y2="96.01" fill="none" stroke="#003a50" stroke-linecap="round" stroke-linejoin="round" stroke-width="0.4"/><line x1="299.34" y1="96.01" x2="302.79" y2="96.01" fill="none" stroke="#003a50" stroke-linecap="round" stroke-linejoin="round" stroke-width="0.4"/><g clip-path="url(#clip-path)"><path d="M288.84,131.85h6.73v.69h-6.12v1.59h-.61Z" fill="#003a50"/><path d="M295,125.65h.61v4.72h-.49l-2.74-2.8a4,4,0,0,0-.9-.72,1.76,1.76,0,0,0-.76-.18,1.13,1.13,0,0,0-.93.4,1.85,1.85,0,0,0-.33,1.17,2.32,2.32,0,0,0,.75,1.84l-.43.49a2.71,2.71,0,0,1-.71-1,3.59,3.59,0,0,1-.25-1.39,2.51,2.51,0,0,1,.49-1.63,1.62,1.62,0,0,1,1.33-.6,2.32,2.32,0,0,1,1,.23,4.43,4.43,0,0,1,1.11.88l2.25,2.29Z" fill="#003a50"/><path d="M295.22,123.52a2.73,2.73,0,0,1-1.19,1,4.62,4.62,0,0,1-1.82.34,4.67,4.67,0,0,1-1.83-.34,2.79,2.79,0,0,1-1.19-1,2.56,2.56,0,0,1,0-2.78,2.84,2.84,0,0,1,1.19-.95,4.33,4.33,0,0,1,1.83-.35,4.28,4.28,0,0,1,1.82.35,2.78,2.78,0,0,1,1.19.95,2.56,2.56,0,0,1,0,2.78Zm-.55-2.42a2.17,2.17,0,0,0-.95-.7,4.69,4.69,0,0,0-3,0,2.15,2.15,0,0,0-1,.7,1.75,1.75,0,0,0-.32,1,1.78,1.78,0,0,0,.32,1,2.06,2.06,0,0,0,1,.69,4.51,4.51,0,0,0,3,0,2.08,2.08,0,0,0,.95-.69,1.72,1.72,0,0,0,.33-1A1.69,1.69,0,0,0,294.67,121.1Z" fill="#003a50"/><path d="M295.22,117.16a2.78,2.78,0,0,1-1.19,1,4.45,4.45,0,0,1-1.82.34,4.49,4.49,0,0,1-1.83-.34,2.84,2.84,0,0,1-1.19-1,2.5,2.5,0,0,1-.41-1.4,2.43,2.43,0,0,1,.41-1.38,2.79,2.79,0,0,1,1.19-1,4.49,4.49,0,0,1,1.83-.35,4.44,4.44,0,0,1,1.82.35,2.73,2.73,0,0,1,1.19,1,2.43,2.43,0,0,1,.41,1.38A2.5,2.5,0,0,1,295.22,117.16Zm-.55-2.43a2.17,2.17,0,0,0-.95-.7,4.69,4.69,0,0,0-3,0,2.15,2.15,0,0,0-1,.7,1.83,1.83,0,0,0,0,2.07,2.15,2.15,0,0,0,1,.7,4.69,4.69,0,0,0,3,0,2.17,2.17,0,0,0,.95-.7,1.79,1.79,0,0,0,0-2.07Z" fill="#003a50"/></g><line x1="299.34" y1="14.27" x2="299.34" y2="41.52" fill="none" stroke="#003a50" stroke-linecap="round" stroke-linejoin="round" stroke-width="0.4"/><line x1="299.34" y1="41.52" x2="297.51" y2="48.33" fill="none" stroke="#003a50" stroke-linecap="round" stroke-linejoin="round" stroke-width="0.4"/><line x1="297.51" y1="48.33" x2="301.16" y2="48.33" fill="none" stroke="#003a50" stroke-linecap="round" stroke-linejoin="round" stroke-width="0.4"/><line x1="301.16" y1="48.33" x2="299.34" y2="41.52" fill="none" stroke="#003a50" stroke-linecap="round" stroke-linejoin="round" stroke-width="0.4"/><polygon points="297.51 48.33 301.16 48.33 299.34 41.52 297.51 48.33" fill="#003a50"/><line x1="299.34" y1="41.52" x2="301.16" y2="34.71" fill="none" stroke="#003a50" stroke-linecap="round" stroke-linejoin="round" stroke-width="0.4"/><line x1="301.16" y1="34.71" x2="297.51" y2="34.71" fill="none" stroke="#003a50" stroke-linecap="round" stroke-linejoin="round" stroke-width="0.4"/><line x1="297.51" y1="34.71" x2="299.34" y2="41.52" fill="none" stroke="#003a50" stroke-linecap="round" stroke-linejoin="round" stroke-width="0.4"/><polygon points="297.51 34.71 299.34 41.52 301.16 34.71 297.51 34.71" fill="#003a50"/><line x1="311.18" y1="41.52" x2="297.97" y2="41.52" fill="none" stroke="#003a50" stroke-linecap="round" stroke-linejoin="round" stroke-width="0.4"/><line x1="299.34" y1="41.52" x2="311.18" y2="41.52" fill="none" stroke="#003a50" stroke-linecap="round" stroke-linejoin="round" stroke-width="0.4"/><line x1="299.34" y1="14.27" x2="297.51" y2="21.09" fill="none" stroke="#003a50" stroke-linecap="round" stroke-linejoin="round" stroke-width="0.4"/><line x1="297.51" y1="21.08" x2="301.16" y2="21.08" fill="none" stroke="#003a50" stroke-linecap="round" stroke-linejoin="round" stroke-width="0.4"/><line x1="301.16" y1="21.08" x2="299.34" y2="14.27" fill="none" stroke="#003a50" stroke-linecap="round" stroke-linejoin="round" stroke-width="0.4"/><polygon points="297.51 21.09 301.16 21.09 299.34 14.27 297.51 21.09" fill="#003a50"/><line x1="302.79" y1="14.27" x2="297.97" y2="14.27" fill="none" stroke="#003a50" stroke-linecap="round" stroke-linejoin="round" stroke-width="0.4"/><line x1="299.34" y1="14.27" x2="302.79" y2="14.27" fill="none" stroke="#003a50" stroke-linecap="round" stroke-linejoin="round" stroke-width="0.4"/><g clip-path="url(#clip-path)"><path d="M291.79,33.31a2,2,0,0,1,.71-.8,1.88,1.88,0,0,1,1.06-.29,2,2,0,0,1,1.09.3,2,2,0,0,1,.73.82,2.65,2.65,0,0,1,.25,1.18,2.48,2.48,0,0,1-.88,2,3.91,3.91,0,0,1-2.49.71,4.21,4.21,0,0,1-1.9-.39,2.67,2.67,0,0,1-1.18-1.07,3.17,3.17,0,0,1-.4-1.62,3,3,0,0,1,.37-1.6l.56.28a2.29,2.29,0,0,0-.32,1.31,2.23,2.23,0,0,0,.7,1.75,3,3,0,0,0,2.06.64l.55,0a1.78,1.78,0,0,1-.85-.8,2.5,2.5,0,0,1-.31-1.26A2.76,2.76,0,0,1,291.79,33.31Zm2.86,0a1.35,1.35,0,0,0-1.07-.46,1.33,1.33,0,0,0-1.06.46,1.83,1.83,0,0,0-.39,1.23,2,2,0,0,0,.19.9,1.61,1.61,0,0,0,.53.62,1.43,1.43,0,0,0,.75.22,1.28,1.28,0,0,0,.71-.21,1.45,1.45,0,0,0,.53-.61,2.06,2.06,0,0,0,.2-1A1.76,1.76,0,0,0,294.65,33.36Z" fill="#003a50"/><path d="M295.22,30.13a2.78,2.78,0,0,1-1.19.95,4.45,4.45,0,0,1-1.82.34,4.49,4.49,0,0,1-1.83-.34,2.75,2.75,0,0,1-1.18-.95,2.42,2.42,0,0,1-.42-1.39,2.38,2.38,0,0,1,.42-1.39,2.7,2.7,0,0,1,1.18-1,4.49,4.49,0,0,1,1.83-.35,4.44,4.44,0,0,1,1.82.35,2.73,2.73,0,0,1,1.19,1,2.44,2.44,0,0,1,.41,1.39A2.49,2.49,0,0,1,295.22,30.13Zm-.55-2.43a2.17,2.17,0,0,0-.95-.7,4.69,4.69,0,0,0-3,0,2.15,2.15,0,0,0-1,.7,1.83,1.83,0,0,0,0,2.07,2.15,2.15,0,0,0,1,.7,4.69,4.69,0,0,0,3,0,2.17,2.17,0,0,0,.95-.7,1.79,1.79,0,0,0,0-2.07Z" fill="#003a50"/><path d="M295.22,23.76a2.71,2.71,0,0,1-1.19.95,4.45,4.45,0,0,1-1.82.34,4.49,4.49,0,0,1-1.83-.34,2.68,2.68,0,0,1-1.18-.95,2.51,2.51,0,0,1,0-2.78,2.7,2.7,0,0,1,1.18-1,4.49,4.49,0,0,1,1.83-.35A4.44,4.44,0,0,1,294,20a2.73,2.73,0,0,1,1.19,1,2.56,2.56,0,0,1,0,2.78Zm-.55-2.43a2.15,2.15,0,0,0-.95-.69,4.69,4.69,0,0,0-3,0,2.13,2.13,0,0,0-1,.69,1.78,1.78,0,0,0-.32,1,1.75,1.75,0,0,0,.32,1,2.15,2.15,0,0,0,1,.7,4.69,4.69,0,0,0,3,0,2.17,2.17,0,0,0,.95-.7,1.69,1.69,0,0,0,.33-1A1.72,1.72,0,0,0,294.67,21.33Z" fill="#003a50"/></g><line x1="299.34" y1="41.52" x2="299.34" y2="96.01" fill="none" stroke="#003a50" stroke-linecap="round" stroke-linejoin="round" stroke-width="0.4"/><line x1="299.34" y1="96.01" x2="301.16" y2="89.2" fill="none" stroke="#003a50" stroke-linecap="round" stroke-linejoin="round" stroke-width="0.4"/><line x1="301.16" y1="89.2" x2="297.51" y2="89.2" fill="none" stroke="#003a50" stroke-linecap="round" stroke-linejoin="round" stroke-width="0.4"/><line x1="297.51" y1="89.2" x2="299.34" y2="96.01" fill="none" stroke="#003a50" stroke-linecap="round" stroke-linejoin="round" stroke-width="0.4"/><polygon points="297.51 89.2 299.34 96.01 301.16 89.2 297.51 89.2" fill="#003a50"/><line x1="308.91" y1="96.01" x2="297.97" y2="96.01" fill="none" stroke="#003a50" stroke-linecap="round" stroke-linejoin="round" stroke-width="0.4"/><line x1="299.34" y1="96.01" x2="308.91" y2="96.01" fill="none" stroke="#003a50" stroke-linecap="round" stroke-linejoin="round" stroke-width="0.4"/><line x1="299.34" y1="41.52" x2="297.51" y2="48.33" fill="none" stroke="#003a50" stroke-linecap="round" stroke-linejoin="round" stroke-width="0.4"/><line x1="297.51" y1="48.33" x2="301.16" y2="48.33" fill="none" stroke="#003a50" stroke-linecap="round" stroke-linejoin="round" stroke-width="0.4"/><line x1="301.16" y1="48.33" x2="299.34" y2="41.52" fill="none" stroke="#003a50" stroke-linecap="round" stroke-linejoin="round" stroke-width="0.4"/><polygon points="297.51 48.33 301.16 48.33 299.34 41.52 297.51 48.33" fill="#003a50"/><line x1="299.34" y1="41.52" x2="301.16" y2="34.71" fill="none" stroke="#003a50" stroke-linecap="round" stroke-linejoin="round" stroke-width="0.4"/><line x1="301.16" y1="34.71" x2="297.51" y2="34.71" fill="none" stroke="#003a50" stroke-linecap="round" stroke-linejoin="round" stroke-width="0.4"/><line x1="297.51" y1="34.71" x2="299.34" y2="41.52" fill="none" stroke="#003a50" stroke-linecap="round" stroke-linejoin="round" stroke-width="0.4"/><polygon points="297.51 34.71 299.34 41.52 301.16 34.71 297.51 34.71" fill="#003a50"/><line x1="311.18" y1="41.52" x2="297.97" y2="41.52" fill="none" stroke="#003a50" stroke-linecap="round" stroke-linejoin="round" stroke-width="0.4"/><line x1="299.34" y1="41.52" x2="311.18" y2="41.52" fill="none" stroke="#003a50" stroke-linecap="round" stroke-linejoin="round" stroke-width="0.4"/><g clip-path="url(#clip-path)"><path d="M288.84,77.36h6.73v.69h-6.11v1.59h-.62Z" fill="#003a50"/><path d="M295,71.15h.61v4.73h-.49l-2.74-2.8a3.72,3.72,0,0,0-.9-.72,1.78,1.78,0,0,0-.76-.19,1.14,1.14,0,0,0-.93.41,1.81,1.81,0,0,0-.33,1.17,2.32,2.32,0,0,0,.75,1.84l-.43.49a2.67,2.67,0,0,1-.71-1,3.5,3.5,0,0,1-.25-1.38,2.5,2.5,0,0,1,.49-1.63,1.62,1.62,0,0,1,1.33-.6,2.32,2.32,0,0,1,1,.23,4.43,4.43,0,0,1,1.11.88L295,74.86Z" fill="#003a50"/><path d="M295.22,69A2.64,2.64,0,0,1,294,70a4.44,4.44,0,0,1-1.82.35,4.49,4.49,0,0,1-1.83-.35,2.62,2.62,0,0,1-1.18-1,2.51,2.51,0,0,1,0-2.78,2.7,2.7,0,0,1,1.18-1,4.49,4.49,0,0,1,1.83-.34,4.45,4.45,0,0,1,1.82.34,2.73,2.73,0,0,1,1.19,1,2.56,2.56,0,0,1,0,2.78Zm-.55-2.42a2.17,2.17,0,0,0-.95-.7,4.69,4.69,0,0,0-3,0,2.15,2.15,0,0,0-1,.7,1.82,1.82,0,0,0,0,2.06,2.08,2.08,0,0,0,1,.7,4.69,4.69,0,0,0,3,0,2.1,2.1,0,0,0,.95-.7,1.77,1.77,0,0,0,0-2.06Z" fill="#003a50"/><path d="M295.22,62.66a2.73,2.73,0,0,1-1.19,1,4.62,4.62,0,0,1-1.82.34,4.67,4.67,0,0,1-1.83-.34,2.7,2.7,0,0,1-1.18-1,2.51,2.51,0,0,1,0-2.78,2.85,2.85,0,0,1,1.18-1,4.49,4.49,0,0,1,1.83-.34,4.45,4.45,0,0,1,1.82.34,2.88,2.88,0,0,1,1.19,1,2.56,2.56,0,0,1,0,2.78Zm-.55-2.42a2.17,2.17,0,0,0-.95-.7,4.69,4.69,0,0,0-3,0,2.15,2.15,0,0,0-1,.7,1.75,1.75,0,0,0-.32,1,1.78,1.78,0,0,0,.32,1,2.06,2.06,0,0,0,1,.69,4.69,4.69,0,0,0,3,0,2.08,2.08,0,0,0,.95-.69,1.72,1.72,0,0,0,.33-1A1.69,1.69,0,0,0,294.67,60.24Z" fill="#003a50"/></g></svg>