<svg width="141" height="32" viewBox="0 0 141 32" fill="none" xmlns="http://www.w3.org/2000/svg">
<path d="M11.337 21.0637V18.2342C11.3705 17.7665 11.3088 17.2968 11.1555 16.8541C11.0022 16.4113 10.7607 16.0049 10.4457 15.6598C9.70312 15.0725 8.89461 14.5752 8.03684 14.1783L6.30243 13.2068C5.95769 13.0471 5.66306 12.7951 5.45067 12.4781C5.23827 12.1612 5.11627 11.7916 5.09797 11.4095V10.353C5.08554 10.2271 5.10038 10.0999 5.14147 9.98028C5.18255 9.86067 5.24891 9.75148 5.33596 9.66025C5.423 9.56903 5.52865 9.49795 5.64561 9.45193C5.76256 9.4059 5.88804 9.38603 6.01336 9.39369C6.14012 9.38445 6.26737 9.40303 6.38632 9.44814C6.50528 9.49326 6.61312 9.56385 6.70242 9.65503C6.79171 9.74621 6.86034 9.85583 6.90357 9.97633C6.9468 10.0968 6.96361 10.2254 6.95283 10.353V12.7817H11.2407V9.68513C11.2899 9.08216 11.1744 8.47711 10.9069 7.93554C10.6394 7.39398 10.23 6.93654 9.72307 6.6128C8.62683 5.97202 7.37654 5.64847 6.10971 5.67775C4.80005 5.652 3.51119 6.01062 2.4 6.70995C1.89999 7.05385 1.49868 7.52451 1.23649 8.07453C0.974296 8.62455 0.86047 9.23452 0.906477 9.843V12.2717C0.859841 12.9989 1.05479 13.721 1.46053 14.324C2.06563 14.991 2.78856 15.5387 3.59241 15.9391L5.88087 17.1534C6.17104 17.2845 6.42427 17.4863 6.61772 17.7407C6.81118 17.9952 6.93876 18.2941 6.98896 18.6107C6.98896 19.4486 6.98896 20.0436 6.98896 20.0436C7.0014 20.1696 6.98656 20.2968 6.94547 20.4164C6.90438 20.536 6.83802 20.6452 6.75098 20.7364C6.66394 20.8276 6.55829 20.8987 6.44133 20.9447C6.32437 20.9907 6.1989 21.0106 6.07358 21.003C5.94682 21.0122 5.81957 20.9936 5.70061 20.9485C5.58166 20.9034 5.47381 20.8328 5.38452 20.7416C5.29522 20.6504 5.2266 20.5408 5.18337 20.4203C5.14014 20.2998 5.12333 20.1713 5.13411 20.0436V17.8213H0.810121V21.2215C0.764189 21.8176 0.88834 22.4144 1.16792 22.9415C1.4475 23.4687 1.87083 23.9042 2.38795 24.1967C3.4969 24.7966 4.74356 25.0899 6.00131 25.0468C7.31361 25.0942 8.61238 24.7658 9.74716 24.0996C10.2623 23.7895 10.6824 23.3418 10.9609 22.806C11.2393 22.2702 11.3654 21.6672 11.325 21.0637M12.4331 5.192H16.7571V0.820312H12.4331V5.192ZM12.4331 24.5246H16.7571V6.30921H12.4331V24.5246ZM30.4999 24.3789H34.8359V8.93223C34.8314 8.49692 34.737 8.06733 34.5587 7.67086C34.3803 7.27439 34.122 6.91974 33.8002 6.62953C33.4783 6.33932 33.1 6.11992 32.6894 5.98531C32.2788 5.85071 31.8449 5.80386 31.4153 5.84776C30.8069 5.86024 30.2107 6.02149 29.6778 6.31762C29.1449 6.61376 28.6913 7.03593 28.356 7.54786C28.0164 7.03164 27.5569 6.60689 27.0175 6.31059C26.478 6.01428 25.8748 5.8554 25.2605 5.84776C24.7373 5.8402 24.2179 5.93718 23.7321 6.1331C23.2462 6.32902 22.8037 6.62 22.4301 6.98926L22.2253 6.18778H18.1542V24.4032H22.4903V10.3166C22.4824 10.1923 22.5017 10.0678 22.5468 9.9518C22.5919 9.83584 22.6618 9.7313 22.7514 9.64557C22.841 9.55984 22.9482 9.49502 23.0655 9.45569C23.1827 9.41636 23.307 9.40348 23.4297 9.41797C23.551 9.40513 23.6736 9.41934 23.7888 9.45961C23.904 9.49987 24.009 9.5652 24.0964 9.65096C24.1837 9.73672 24.2513 9.84081 24.2943 9.95584C24.3373 10.0709 24.3546 10.194 24.3451 10.3166V24.3667H28.6812V10.3166C28.6812 10.0718 28.7776 9.83708 28.9493 9.664C29.1209 9.49092 29.3538 9.39369 29.5965 9.39369C29.8393 9.39369 30.0722 9.49092 30.2438 9.664C30.4155 9.83708 30.5119 10.0718 30.5119 10.3166V24.3667L30.4999 24.3789ZM42.1349 20.2015C42.1428 20.3258 42.1235 20.4503 42.0784 20.5663C42.0333 20.6822 41.9634 20.7868 41.8738 20.8725C41.7842 20.9582 41.677 21.0231 41.5597 21.0624C41.4425 21.1017 41.3181 21.1146 41.1954 21.1001C41.0742 21.113 40.9516 21.0987 40.8364 21.0585C40.7212 21.0182 40.6162 20.9529 40.5288 20.8671C40.4415 20.7814 40.3739 20.6773 40.3309 20.5622C40.2879 20.4472 40.2705 20.324 40.28 20.2015V10.3409C40.28 10.0929 40.3778 9.85506 40.5517 9.6797C40.7256 9.50434 40.9615 9.40583 41.2075 9.40583C41.4534 9.40583 41.6893 9.50434 41.8633 9.6797C42.0372 9.85506 42.1349 10.0929 42.1349 10.3409V20.1893V20.2015ZM46.4589 21.7559V9.05367C46.4531 8.62029 46.3574 8.19292 46.1781 7.79901C45.9988 7.4051 45.7398 7.05334 45.4177 6.76631C45.0956 6.47929 44.7175 6.26335 44.3077 6.13235C43.898 6.00134 43.4655 5.95818 43.0382 6.00563C41.9604 5.97395 40.9135 6.37086 40.1235 7.11069L39.9548 6.32136H35.9561V29.5278H40.28V23.6745C40.6396 24.046 41.0711 24.339 41.5476 24.5353C42.0241 24.7317 42.5356 24.8272 43.0503 24.816C43.4799 24.8599 43.9138 24.8131 44.3244 24.6785C44.7351 24.5439 45.1134 24.3245 45.4352 24.0343C45.757 23.7441 46.0154 23.3894 46.1937 22.9929C46.372 22.5965 46.4664 22.1669 46.4709 21.7316M58.0698 21.0515V18.2342C58.0953 17.7651 58.025 17.2956 57.8634 16.8549C57.7019 16.4142 57.4524 16.0116 57.1303 15.6719C56.3883 15.0804 55.5798 14.579 54.7214 14.1783L52.975 13.2189C52.6294 13.0604 52.3341 12.8086 52.1215 12.4914C51.909 12.1743 51.7875 11.8041 51.7705 11.4217V10.3773C51.7705 10.1293 51.8682 9.89149 52.0422 9.71613C52.2161 9.54078 52.452 9.44226 52.698 9.44226C52.9439 9.44226 53.1798 9.54078 53.3537 9.71613C53.5277 9.89149 53.6254 10.1293 53.6254 10.3773V12.806H57.8651V9.68513C57.9269 9.09249 57.8286 8.49401 57.5805 7.95313C57.3324 7.41225 56.9438 6.94912 56.4559 6.6128C55.3596 5.97202 54.1093 5.64847 52.8425 5.67775C51.5327 5.6513 50.2437 6.00997 49.1328 6.70995C48.6274 7.05005 48.2207 7.51928 47.9541 8.06972C47.6874 8.62016 47.5705 9.23208 47.6152 9.843V12.2717C47.5685 12.9989 47.7635 13.721 48.1692 14.324C48.7754 14.9898 49.4981 15.5373 50.3011 15.9391L52.5896 17.1534C52.8797 17.2845 53.133 17.4863 53.3264 17.7407C53.5199 17.9952 53.6474 18.2941 53.6977 18.6107C53.6977 19.4486 53.6977 20.0436 53.6977 20.0436C53.6977 20.1664 53.6737 20.288 53.6271 20.4014C53.5804 20.5149 53.5121 20.618 53.426 20.7048C53.3399 20.7916 53.2377 20.8605 53.1251 20.9075C53.0126 20.9545 52.892 20.9787 52.7702 20.9787C52.6484 20.9787 52.5278 20.9545 52.4153 20.9075C52.3028 20.8605 52.2006 20.7916 52.1144 20.7048C52.0283 20.618 51.96 20.5149 51.9134 20.4014C51.8668 20.288 51.8428 20.1664 51.8428 20.0436V17.8213H47.5429V21.2215C47.497 21.8176 47.6211 22.4144 47.9007 22.9415C48.1803 23.4687 48.6036 23.9042 49.1207 24.1967C50.2295 24.7971 51.4763 25.0905 52.7341 25.0468C54.0465 25.0948 55.3454 24.7664 56.4799 24.0996C56.9951 23.7895 57.4152 23.3418 57.6936 22.806C57.9721 22.2702 58.0981 21.6672 58.0578 21.0637M65.2845 20.1893C65.2901 20.3104 65.27 20.4313 65.2254 20.5438C65.1809 20.6564 65.113 20.7581 65.0263 20.842C64.9397 20.926 64.8362 20.9903 64.7228 21.0306C64.6095 21.0709 64.4889 21.0863 64.3691 21.0758C64.2488 21.0862 64.1277 21.0707 64.0138 21.0305C63.8999 20.9903 63.7957 20.9262 63.708 20.8424C63.6204 20.7587 63.5514 20.6572 63.5055 20.5446C63.4596 20.4321 63.4378 20.311 63.4417 20.1893V10.2923C63.4371 10.1704 63.459 10.049 63.5058 9.93653C63.5527 9.82406 63.6233 9.72325 63.7127 9.64115C63.8022 9.55904 63.9084 9.49762 64.0238 9.46117C64.1393 9.42472 64.2612 9.41412 64.3811 9.43012C64.4996 9.41581 64.6198 9.42777 64.7332 9.46516C64.8466 9.50255 64.9505 9.56448 65.0377 9.6466C65.1249 9.72873 65.1932 9.82906 65.2379 9.9406C65.2827 10.0521 65.3027 10.1722 65.2965 10.2923V20.1893H65.2845ZM69.6205 20.4929V10.4623C69.6205 7.79073 67.2116 6.06634 64.3811 6.06634C61.5507 6.06634 59.1056 7.79073 59.1056 10.4623V20.4929C59.1056 23.1402 61.5146 24.8646 64.3811 24.8646C67.2477 24.8646 69.6205 23.1402 69.6205 20.4929ZM76.9677 24.5853H81.2917V9.16296C81.2869 8.7299 81.1931 8.30256 81.0162 7.90789C80.8393 7.51323 80.5832 7.15982 80.2641 6.86998C79.9449 6.58013 79.5696 6.36015 79.1619 6.22392C78.7541 6.08769 78.3228 6.03817 77.8951 6.07849C76.8145 6.06942 75.7715 6.47788 74.9803 7.21998L74.7997 6.41851H70.825V24.6339H75.149V10.3166C75.1429 10.1933 75.1635 10.0701 75.2095 9.95566C75.2554 9.8412 75.3255 9.73821 75.4149 9.65384C75.5043 9.56947 75.6109 9.50575 75.7272 9.46712C75.8435 9.42848 75.9668 9.41586 76.0884 9.43012C76.2086 9.41751 76.3301 9.43148 76.4444 9.47105C76.5586 9.51062 76.663 9.57484 76.7501 9.65923C76.8373 9.74362 76.9051 9.84616 76.9489 9.95969C76.9927 10.0732 77.0115 10.195 77.0038 10.3166V24.5853H76.9677ZM88.8315 24.5125H93.1676V9.04152C93.1583 8.60976 93.0602 8.18464 92.8796 7.79306C92.699 7.40148 92.4397 7.05195 92.1182 6.7666C91.7966 6.48125 91.4199 6.26628 91.0117 6.13529C90.6036 6.00431 90.1729 5.96015 89.7469 6.00563C89.2373 5.9976 88.7314 6.0935 88.2595 6.28758C87.7876 6.48165 87.3594 6.76989 87.0008 7.13498V0.820312H82.7129V24.5125H87.049V10.2923C87.049 10.0475 87.1454 9.81279 87.3171 9.63971C87.4887 9.46663 87.7216 9.3694 87.9643 9.3694C88.2071 9.3694 88.4399 9.46663 88.6116 9.63971C88.7833 9.81279 88.8797 10.0475 88.8797 10.2923V24.5125H88.8315ZM100.575 20.1408C100.575 20.2737 100.551 20.4055 100.503 20.5294C100.428 20.6849 100.309 20.8144 100.161 20.901C100.013 20.9876 99.8425 21.0274 99.6716 21.0151C99.4954 21.0315 99.3183 20.994 99.1636 20.9073C99.0089 20.8207 98.8837 20.6889 98.8044 20.5294C98.7609 20.4046 98.7405 20.2729 98.7442 20.1408V10.183C98.7815 9.95149 98.9039 9.74258 99.0868 9.59771C99.2698 9.45285 99.5002 9.38263 99.7321 9.40097C99.9641 9.41931 100.181 9.52488 100.339 9.69673C100.497 9.86859 100.586 10.0942 100.587 10.3287V20.1408H100.575ZM104.899 24.5125V6.29707H101.009L100.78 7.15927C99.9923 6.41388 98.9446 6.01233 97.8649 6.04206C97.4366 5.99452 97.0032 6.03802 96.5926 6.16974C96.182 6.30147 95.8034 6.51849 95.4811 6.80683C95.1588 7.09516 94.9 7.4484 94.7214 7.84376C94.5428 8.23912 94.4484 8.66783 94.4443 9.10224V21.5373C94.4443 21.6101 94.4443 21.683 94.4443 21.7559C94.4501 22.1892 94.5457 22.6166 94.725 23.0105C94.9044 23.4044 95.1634 23.7562 95.4855 24.0432C95.8076 24.3302 96.1857 24.5462 96.5954 24.6772C97.0052 24.8082 97.4376 24.8513 97.8649 24.8039C98.9891 24.7625 100.056 24.294 100.852 23.4924L101.057 24.4882H104.959L104.899 24.5125ZM112.728 24.5125H116.678V6.29707H112.342V20.1529C112.342 20.3977 112.246 20.6324 112.074 20.8055C111.903 20.9786 111.67 21.0758 111.427 21.0758C111.184 21.0758 110.951 20.9786 110.78 20.8055C110.608 20.6324 110.512 20.3977 110.512 20.1529V6.3335H106.176V21.768C106.181 22.2014 106.277 22.6287 106.456 23.0227C106.636 23.4166 106.895 23.7683 107.217 24.0554C107.539 24.3424 107.917 24.5583 108.327 24.6893C108.737 24.8203 109.169 24.8635 109.596 24.816C110.72 24.7746 111.788 24.3061 112.583 23.5045L112.728 24.5125ZM124.122 20.2501C124.128 20.3702 124.108 20.4902 124.063 20.6018C124.019 20.7133 123.95 20.8136 123.863 20.8958C123.776 20.9779 123.672 21.0398 123.559 21.0772C123.445 21.1146 123.325 21.1266 123.207 21.1122C123.087 21.1282 122.965 21.1176 122.849 21.0812C122.734 21.0448 122.628 20.9833 122.538 20.9012C122.449 20.8191 122.378 20.7183 122.331 20.6058C122.285 20.4934 122.263 20.3719 122.267 20.2501V10.3166C122.263 10.1938 122.285 10.0716 122.332 9.95812C122.378 9.84463 122.449 9.7425 122.537 9.65856C122.626 9.57462 122.732 9.51082 122.848 9.47142C122.963 9.43202 123.085 9.41794 123.207 9.43012C123.326 9.4196 123.447 9.43502 123.56 9.47534C123.674 9.51566 123.777 9.57995 123.864 9.66391C123.951 9.74786 124.018 9.84953 124.063 9.9621C124.107 10.0747 124.128 10.1955 124.122 10.3166V20.2501ZM128.482 26.8076V6.32136H124.507L124.291 7.11069C123.922 6.75132 123.477 6.48137 122.99 6.32136C122.472 6.13138 121.927 6.02881 121.376 6.01777C119.497 6.01777 117.955 7.0864 117.955 8.95652V21.5373C117.967 21.9656 118.068 22.3868 118.25 22.7738C118.433 23.1608 118.693 23.5053 119.015 23.7852C119.337 24.0651 119.713 24.2744 120.119 24.3996C120.526 24.5248 120.954 24.5632 121.376 24.5125C121.97 24.4987 122.557 24.3795 123.11 24.1603C123.501 24.0491 123.857 23.8402 124.146 23.5531V26.8683C124.152 26.9894 124.132 27.1102 124.087 27.2228C124.043 27.3354 123.975 27.4371 123.888 27.521C123.801 27.605 123.698 27.6693 123.584 27.7096C123.471 27.7499 123.35 27.7653 123.231 27.7548C123.109 27.767 122.987 27.7529 122.872 27.7135C122.756 27.6741 122.651 27.6103 122.562 27.5264C122.473 27.4424 122.402 27.3403 122.356 27.2268C122.309 27.1133 122.287 26.9911 122.291 26.8683V25.2896H117.943V26.8076C117.943 29.4549 120.352 31.1793 123.219 31.1793C126.085 31.1793 128.482 29.4549 128.482 26.8076ZM140.214 24.5125V9.04152C140.204 8.60976 140.106 8.18464 139.926 7.79306C139.745 7.40148 139.486 7.05195 139.164 6.7666C138.843 6.48125 138.466 6.26628 138.058 6.13529C137.65 6.00431 137.219 5.96015 136.793 6.00563C136.283 5.9976 135.777 6.0935 135.305 6.28758C134.833 6.48165 134.405 6.76989 134.047 7.13498V0.820312H129.687V24.5125H134.023V10.2923C134.023 10.0475 134.119 9.81279 134.291 9.63971C134.462 9.46663 134.695 9.3694 134.938 9.3694C135.181 9.3694 135.414 9.46663 135.585 9.63971C135.757 9.81279 135.853 10.0475 135.853 10.2923V24.5125H140.189H140.214Z" fill="#24292E"/>
</svg>
