<svg width="215" height="32" viewBox="0 0 215 32" fill="none" xmlns="http://www.w3.org/2000/svg">
<path fill-rule="evenodd" clip-rule="evenodd" d="M16.3238 32C6.07965 32 0 25.5532 0 16.4037C0 6.96862 6.8452 0 17.1379 0C21.1582 0 24.2217 0.900923 26.281 1.75385L26.2325 6.63631C23.9346 5.45231 20.9196 4.31385 17.4722 4.31385C9.28725 4.31385 5.4098 9.43385 5.4098 15.9286C5.4098 23.3723 9.76572 27.6862 17.0894 27.6862C19.4358 27.6862 21.2539 27.2591 22.4035 26.6437V15.9754H27.4293V29.44C24.8915 30.7668 20.7282 32 16.3238 32ZM34.3702 31.5262H39.3972V0.284308H34.3702V31.5262ZM46.8638 31.5262V0.283077H51.8423V27.2578H63.379V31.5249L46.8638 31.5262ZM67.8306 31.5262V0.283077H72.8092V27.2578H84.3446V31.5249L67.8306 31.5262ZM88.7962 31.5262V0.283077H105.648L104.117 4.55015H93.8245V13.4154H104.069V17.6812H93.8245V27.2578H105.695V31.5249L88.7962 31.5262ZM119.48 32C115.124 32 112.157 30.5772 110.147 29.2972L112.252 25.5532C113.832 26.6437 116.321 27.8757 119.289 27.8757C121.874 27.8757 124.89 26.7372 124.89 23.8942C124.89 19.1052 117.279 18.1563 113.449 13.9372C112.157 12.5157 111.295 10.7618 111.295 8.34338C111.295 3.79323 114.837 0 121.204 0C124.555 0 127.045 0.854154 128.673 1.70585L128.623 6.35323C126.47 5.07323 124.029 4.17231 121.444 4.17231C118.715 4.17231 116.464 5.30954 116.464 7.77477C116.464 13.9372 130.251 13.7477 130.251 23.3243C130.251 28.5858 125.56 32 119.482 32M142.936 4.55138H140.926V16.3557H143.128C147.437 16.3557 149.352 13.9372 149.352 10.288C149.352 6.92185 147.197 4.55138 142.936 4.55138ZM142.411 20.6228H140.926V31.5274H135.9V0.283077H143.416C150.164 0.283077 154.522 3.83877 154.522 10.2388C154.522 15.5951 151.315 20.6215 142.411 20.6215M160.073 31.5262H165.1V0.284308H160.073V31.5262ZM172.568 31.5262V0.283077H189.417L187.886 4.55015H177.592V13.4154H187.837V17.6812H177.592V27.2578H189.463V31.5249L172.568 31.5262ZM203.252 32C198.895 32 195.927 30.5772 193.916 29.2972L196.024 25.5532C197.602 26.6437 200.093 27.8757 203.061 27.8757C205.646 27.8757 208.661 26.7372 208.661 23.8942C208.661 19.1052 201.05 18.1563 197.22 13.9372C195.927 12.5157 195.066 10.7618 195.066 8.34338C195.066 3.79323 198.608 0 204.975 0C208.325 0 210.816 0.854154 212.444 1.70585L212.394 6.35323C210.241 5.07323 207.799 4.17231 205.214 4.17231C202.487 4.17231 200.236 5.30954 200.236 7.77477C200.236 13.9372 214.022 13.7477 214.022 23.3243C214.022 28.5858 209.332 32 203.252 32Z" fill="#24292E"/>
</svg>
