<svg width="62" height="32" viewBox="0 0 62 32" fill="none" xmlns="http://www.w3.org/2000/svg">
<path d="M15.9622 31.7484V18.3832C15.9622 16.8226 16.3378 15.598 17.089 14.7096C17.8382 13.8232 18.8771 13.38 20.2016 13.38C21.4323 13.38 22.3793 13.7581 23.0405 14.51C23.7038 15.262 24.0355 16.371 24.0355 17.835V31.7484H27.9712V17.1377C27.9712 14.8167 27.3579 12.9977 26.1332 11.6807C24.9105 10.3637 23.2243 9.70629 21.0747 9.70629C19.6402 9.70629 18.3856 10.0487 17.3108 10.7313C16.272 11.3701 15.4741 12.3655 15.0512 13.5501C14.6575 12.373 13.8907 11.374 12.8796 10.7208C11.8527 10.0445 10.636 9.70629 9.22953 9.70629C8.01285 9.70629 6.92203 9.97515 5.95308 10.5087C5.028 11.0032 4.26322 11.7751 3.75547 12.7267L3.55169 10.3826H0.0634766V31.7064H3.99721V18.4693C3.99721 16.936 4.37879 15.7031 5.14396 14.7726C5.90713 13.8442 6.92403 13.38 8.19465 13.38C9.41333 13.38 10.3563 13.7749 11.0256 14.5625C11.6949 15.3502 12.0285 16.5411 12.0285 18.1312V31.7484H15.9642H15.9622ZM58.9516 5.9507C59.3078 5.96067 59.6623 5.89473 59.9936 5.75688C60.325 5.61902 60.6264 5.41208 60.8797 5.14853C61.133 4.88498 61.3329 4.57026 61.4675 4.22332C61.602 3.87639 61.6684 3.50442 61.6626 3.1298C61.6626 2.32323 61.4029 1.65949 60.8875 1.13438C60.6306 0.874948 60.327 0.672025 59.9946 0.537494C59.6622 0.402963 59.3076 0.33953 58.9516 0.350909C58.1924 0.350909 57.5491 0.619766 57.0257 1.15748C56.7718 1.41097 56.5709 1.71724 56.4357 2.0568C56.3005 2.39635 56.2341 2.76176 56.2405 3.1298C56.2405 3.93637 56.5022 4.60851 57.0257 5.14623C57.5491 5.68184 58.1904 5.9507 58.9516 5.9507ZM60.9494 10.3847V31.8576H56.9937V10.3847H60.9494ZM42.857 9.70629C45.64 9.70629 47.8956 10.6158 49.6217 12.4348C51.3498 14.2517 52.2129 16.6147 52.2129 19.528C52.2129 20.1644 52.1689 20.7882 52.079 21.3995L51.9771 22.0086H36.6538L36.6678 22.4854C36.7636 24.2036 37.323 25.5857 38.3459 26.6317C39.4627 27.7743 40.9391 28.3456 42.7791 28.3456C44.1976 28.3456 45.4362 27.9886 46.5011 27.2786C47.4092 26.6821 48.145 25.8359 48.6288 24.8316L48.8246 24.3884L52.0551 25.6592L51.8812 26.1381C51.202 27.8604 50.1092 29.2047 48.5988 30.1709C46.9506 31.2212 45.0107 31.7484 42.7791 31.7484C39.7844 31.7484 37.361 30.7401 35.511 28.7237C33.659 26.7073 32.734 24.0733 32.734 20.8197C32.734 17.5263 33.679 14.8503 35.5709 12.7918C37.4609 10.7334 39.8903 9.70629 42.857 9.70629ZM42.7372 13.088C41.059 13.088 39.6465 13.6299 38.5038 14.7096C37.4649 15.6905 36.8615 16.9444 36.6917 18.4693L36.6518 18.9335H48.2931C48.2672 17.1692 47.7517 15.7556 46.7468 14.6906C45.7419 13.6236 44.4073 13.0901 42.7392 13.0901L42.7372 13.088Z" fill="#24292E"/>
</svg>
