<svg width="288" height="60" viewBox="0 0 288 60" fill="none" xmlns="http://www.w3.org/2000/svg">
<g clip-path="url(#clip0_5227_18375)">
<path fill-rule="evenodd" clip-rule="evenodd" d="M19.5879 21.6029L32.9464 38.8465H34.0179C34.6886 38.8465 35.1686 38.9751 35.4579 39.2322C35.7493 39.4894 35.8929 39.8279 35.8929 40.2522C35.8929 40.6551 35.7493 40.9894 35.4579 41.2572C35.1686 41.5251 34.6886 41.6579 34.0179 41.6579H24.9793C24.3086 41.6579 23.8286 41.5251 23.5393 41.2572C23.2479 40.9894 23.1043 40.6551 23.1043 40.2522C23.1043 39.8279 23.2479 39.4894 23.5393 39.2322C23.8286 38.9751 24.3086 38.8465 24.9793 38.8465H29.4643L17.8479 23.9129L6.36214 38.8465H10.8493C11.5179 38.8465 11.9979 38.9751 12.2893 39.2322C12.5786 39.4894 12.7243 39.8279 12.7243 40.2522C12.7243 40.6551 12.5786 40.9894 12.2893 41.2572C11.9979 41.5251 11.5179 41.6579 10.8493 41.6579H1.875C1.20643 41.6579 0.726429 41.5251 0.435 41.2572C0.145714 40.9894 0 40.6551 0 40.2522C0 39.9415 0.09 39.6608 0.267857 39.4165C0.445714 39.1701 0.647143 39.0137 0.872143 38.9472C1.095 38.8808 1.77429 38.8465 2.91429 38.8465L16.1057 21.6029L3.51643 5.29795H2.47929C1.80857 5.29795 1.32857 5.16937 1.03929 4.91223C0.747857 4.65509 0.604286 4.31652 0.604286 3.89009C0.604286 3.46795 0.747857 3.12723 1.03929 2.87009C1.32857 2.61295 1.80857 2.48438 2.47929 2.48438H10.1464C10.8386 2.48438 11.3293 2.61295 11.6186 2.87009C11.91 3.12723 12.0536 3.46795 12.0536 3.89009C12.0536 4.31652 11.91 4.65509 11.6186 4.91223C11.3293 5.16937 10.8386 5.29795 10.1464 5.29795H6.99857L17.8479 19.3272L28.6286 5.29795H25.4807C24.7886 5.29795 24.2979 5.16937 24.0086 4.91223C23.7171 4.65509 23.5714 4.31652 23.5714 3.89009C23.5714 3.46795 23.7171 3.12723 24.0086 2.87009C24.2979 2.61295 24.7886 2.48438 25.4807 2.48438H33.1821C33.8507 2.48438 34.3307 2.61295 34.6221 2.87009C34.9114 3.12723 35.0571 3.46795 35.0571 3.89009C35.0571 4.31652 34.9114 4.65509 34.6221 4.91223C34.3307 5.16937 33.8507 5.29795 33.1821 5.29795H32.1107L19.5879 21.6029Z" fill="#343534"/>
<path fill-rule="evenodd" clip-rule="evenodd" d="M114.474 22.1727C114.474 17.5956 113.145 13.4877 110.49 9.85132C107.833 6.2106 104.396 4.39346 100.179 4.39346C96.2249 4.39346 92.8521 6.12917 90.0492 9.59846C87.2464 13.072 85.8471 17.2613 85.8471 22.1727C85.8471 27.397 87.3149 31.6656 90.2485 34.9806C93.1842 38.2935 96.4928 39.952 100.179 39.952C104.396 39.952 107.833 38.1392 110.49 34.5113C113.145 30.8835 114.474 26.7713 114.474 22.1727ZM117.321 22.1727C117.321 25.9227 116.563 29.4006 115.046 32.602C113.526 35.8035 111.433 38.2999 108.765 40.0827C106.097 41.8677 103.234 42.7635 100.179 42.7635C95.6442 42.7635 91.6564 40.8392 88.2085 36.9885C84.7585 33.1377 83.0356 28.2006 83.0356 22.1727C83.0356 16.1213 84.7585 11.1799 88.2085 7.33989C91.6564 3.50203 95.6442 1.58203 100.179 1.58203C103.234 1.58203 106.091 2.4756 108.75 4.2606C111.403 6.0456 113.496 8.53346 115.026 11.7263C116.556 14.917 117.321 18.3992 117.321 22.1727Z" fill="#343534"/>
<path fill-rule="evenodd" clip-rule="evenodd" d="M176.246 22.7751H185.218C187.296 22.7751 189.242 22.3122 191.063 21.3865C192.881 20.4587 194.209 19.3272 195.047 17.9879C195.885 16.6487 196.303 15.2858 196.303 13.9015C196.303 11.6922 195.353 9.7058 193.457 7.94223C191.561 6.17866 189.158 5.29795 186.257 5.29795H176.246V22.7751ZM176.246 25.5865V38.8465H185.888C186.557 38.8465 187.039 38.9751 187.328 39.2322C187.618 39.4894 187.766 39.8279 187.766 40.2522C187.766 40.6551 187.618 40.9894 187.328 41.2572C187.039 41.5251 186.557 41.6601 185.888 41.6601H169.65C168.981 41.6601 168.499 41.5251 168.21 41.2572C167.921 40.9894 167.775 40.6551 167.775 40.2522C167.775 39.8279 167.921 39.4894 168.21 39.2322C168.499 38.9751 168.981 38.8465 169.65 38.8465H173.436V5.29795H169.65C168.981 5.29795 168.499 5.16937 168.21 4.91223C167.921 4.65509 167.775 4.31652 167.775 3.89009C167.775 3.46795 167.921 3.12723 168.21 2.87009C168.499 2.61295 168.981 2.48438 169.65 2.48438H185.989C189.851 2.48438 193.005 3.62223 195.45 5.90009C197.893 8.17795 199.114 10.8458 199.114 13.9015C199.114 15.7101 198.718 17.3408 197.927 18.7915C197.134 20.2422 196.178 21.3801 195.064 22.2051C193.391 23.4565 191.659 24.3715 189.874 24.9522C188.578 25.3765 186.971 25.5865 185.053 25.5865H176.246Z" fill="#343534"/>
<path fill-rule="evenodd" clip-rule="evenodd" d="M272.775 25.7556L265.007 5.29776H263.97L256.436 25.7556H272.775ZM273.846 28.567H255.364L251.582 38.8442H256.971C257.644 38.8442 258.122 38.9728 258.411 39.232C258.701 39.4892 258.846 39.8278 258.846 40.2542C258.846 40.6549 258.701 40.987 258.411 41.2549C258.122 41.5228 257.644 41.6578 256.971 41.6578H246.458C245.79 41.6578 245.308 41.5228 245.018 41.2549C244.729 40.987 244.583 40.6549 244.583 40.2542C244.583 39.8278 244.729 39.4892 245.018 39.232C245.308 38.9728 245.79 38.8442 246.458 38.8442H248.636L261.058 5.29776H252.754C252.083 5.29776 251.603 5.17133 251.314 4.9099C251.023 4.6549 250.879 4.31633 250.879 3.8899C250.879 3.46776 251.023 3.1249 251.314 2.86776C251.603 2.6149 252.083 2.48633 252.754 2.48633H266.916L280.643 38.8442H282.821C283.489 38.8442 283.969 38.9728 284.261 39.232C284.55 39.4892 284.696 39.8278 284.696 40.2542C284.696 40.6549 284.55 40.987 284.261 41.2549C283.969 41.5228 283.489 41.6578 282.821 41.6578H272.34C271.648 41.6578 271.157 41.5228 270.868 41.2549C270.576 40.987 270.433 40.6549 270.433 40.2542C270.433 39.8278 270.576 39.4892 270.868 39.232C271.157 38.9728 271.648 38.8442 272.34 38.8442H277.697L273.846 28.567Z" fill="#343534"/>
<path fill-rule="evenodd" clip-rule="evenodd" d="M6.04278 56.2253C5.71278 56.131 5.36564 56.0603 4.99707 56.0175C4.6285 55.9703 4.24064 55.9489 3.8335 55.9489C2.81135 55.9489 2.01421 56.1696 1.43992 56.611C1.00278 56.9389 0.786353 57.3332 0.786353 57.7896C0.786353 58.216 0.953496 58.5718 1.2835 58.861C1.61564 59.1525 2.09992 59.2982 2.73635 59.2982C3.34492 59.2982 3.9085 59.176 4.43135 58.9339C4.95421 58.6917 5.48992 58.3039 6.04278 57.7746V56.2253ZM6.04278 59.7246V58.711C5.02064 59.5725 3.92992 60.001 2.77064 60.001C1.9285 60.001 1.2685 59.7868 0.794925 59.3603C0.321353 58.9339 0.0834961 58.411 0.0834961 57.7896C0.0834961 57.1103 0.396353 56.5167 1.01992 56.0089C1.64564 55.501 2.5585 55.246 3.7585 55.246C4.07992 55.246 4.4335 55.2675 4.81278 55.3082C5.19207 55.351 5.60135 55.4175 6.04278 55.5053V54.3675C6.04278 53.9818 5.86492 53.6475 5.50707 53.3625C5.14921 53.0775 4.6135 52.936 3.89992 52.936C3.3535 52.936 2.58635 53.0946 1.5985 53.4139C1.4185 53.4675 1.30492 53.4975 1.25564 53.4975C1.16564 53.4975 1.0885 53.4632 1.02421 53.3967C0.959925 53.3282 0.927782 53.2446 0.927782 53.146C0.927782 53.0496 0.955639 52.9746 1.01135 52.9189C1.09064 52.8353 1.40564 52.7218 1.9585 52.576C2.8285 52.3425 3.48635 52.2246 3.93421 52.2246C4.82135 52.2246 5.51135 52.4432 6.0085 52.8803C6.50564 53.3196 6.75421 53.8146 6.75421 54.3675V59.0217H7.69278C7.86421 59.0217 7.9885 59.0539 8.05921 59.1182C8.13207 59.1825 8.1685 59.266 8.1685 59.3732C8.1685 59.4739 8.13207 59.5575 8.05921 59.6239C7.9885 59.6903 7.86421 59.7246 7.69278 59.7246H6.04278Z" fill="#343534"/>
<path fill-rule="evenodd" clip-rule="evenodd" d="M18.5936 52.4745V54.2488C19.5086 53.4238 20.1943 52.8924 20.6486 52.6545C21.1029 52.4167 21.5229 52.2988 21.9086 52.2988C22.3265 52.2988 22.7165 52.4403 23.0765 52.721C23.4365 53.0038 23.6165 53.216 23.6165 53.3617C23.6165 53.4667 23.5822 53.5545 23.5115 53.6253C23.4407 53.696 23.3529 53.7303 23.2479 53.7303C23.1922 53.7303 23.145 53.7217 23.1043 53.7003C23.0657 53.681 22.9929 53.6188 22.8879 53.5117C22.6929 53.3167 22.5215 53.1838 22.3779 53.111C22.2322 53.0381 22.0886 53.0017 21.9493 53.0017C21.6429 53.0017 21.2722 53.1238 20.8415 53.3703C20.4086 53.6167 19.6607 54.2145 18.5936 55.1703V59.021H21.7072C21.8807 59.021 22.0029 59.0531 22.0757 59.1174C22.1486 59.1817 22.185 59.2653 22.185 59.3724C22.185 59.4731 22.1486 59.5567 22.0757 59.6231C22.0029 59.6895 21.8807 59.7238 21.7072 59.7238H16.1915C16.0243 59.7238 15.9043 59.6917 15.8315 59.6274C15.7586 59.5631 15.7222 59.4817 15.7222 59.381C15.7222 59.2867 15.7565 59.2074 15.8272 59.1431C15.8979 59.0767 16.0179 59.0467 16.1915 59.0467H17.8907V53.186H16.5922C16.425 53.186 16.305 53.1517 16.2322 53.0853C16.1615 53.0188 16.125 52.931 16.125 52.826C16.125 52.7253 16.1593 52.6417 16.2279 52.5753C16.2986 52.5088 16.4207 52.4745 16.5922 52.4745H18.5936Z" fill="#343534"/>
<path fill-rule="evenodd" clip-rule="evenodd" d="M37.7807 53.1868V52.9532C37.7807 52.7796 37.8171 52.6553 37.8814 52.5868C37.95 52.5118 38.0335 52.4753 38.1321 52.4753C38.2371 52.4753 38.325 52.5118 38.3935 52.5868C38.4578 52.6553 38.4921 52.7796 38.4921 52.9532V54.5432C38.4878 54.7146 38.4514 54.8389 38.3893 54.9139C38.3228 54.9825 38.2371 55.0189 38.1321 55.0189C38.0378 55.0189 37.9585 54.9868 37.8964 54.9246C37.83 54.8625 37.7914 54.751 37.7807 54.601C37.7464 54.2046 37.4871 53.8275 36.9985 53.4717C36.5121 53.1139 35.8521 52.936 35.0271 52.936C33.9835 52.936 33.1907 53.2618 32.6485 53.9153C32.1085 54.5689 31.8385 55.3168 31.8385 56.1589C31.8385 57.0718 32.1385 57.8175 32.7343 58.4132C33.33 59.0025 34.1057 59.2982 35.0528 59.2982C35.5993 59.2982 36.1585 59.1975 36.7221 58.996C37.2878 58.7968 37.8 58.471 38.2585 58.0253C38.3743 57.9139 38.4814 57.8582 38.5693 57.8582C38.6635 57.8582 38.745 57.8903 38.8071 57.9546C38.8693 58.0189 38.9014 58.0982 38.9014 58.1925C38.9014 58.4346 38.6207 58.7368 38.0571 59.1053C37.1485 59.701 36.135 60.001 35.0185 60.001C33.8871 60.001 32.955 59.6389 32.2285 58.9168C31.4978 58.1946 31.1335 57.2796 31.1335 56.1675C31.1335 55.0339 31.5064 54.0932 32.2521 53.3475C32.9978 52.5975 33.9364 52.2246 35.0678 52.2246C36.1457 52.2246 37.0521 52.5482 37.7807 53.1868Z" fill="#343534"/>
<path fill-rule="evenodd" clip-rule="evenodd" d="M47.9465 49.2207V53.5493C48.3922 53.0628 48.8208 52.72 49.2322 52.5228C49.6415 52.3257 50.0979 52.225 50.6079 52.225C51.1565 52.225 51.6172 52.3214 52.0029 52.5143C52.3822 52.7071 52.7036 53.0028 52.9586 53.4014C53.2158 53.8 53.3465 54.22 53.3465 54.6614V59.0221H54.1329C54.3022 59.0221 54.4243 59.0543 54.4972 59.1186C54.5636 59.1828 54.6001 59.2643 54.6001 59.3736C54.6001 59.4743 54.5636 59.5578 54.4972 59.6243C54.4243 59.6907 54.3022 59.725 54.1329 59.725H51.8443C51.6751 59.725 51.5508 59.6907 51.4779 59.6243C51.4072 59.5578 51.3708 59.4743 51.3708 59.3736C51.3708 59.2643 51.4072 59.1828 51.4779 59.1186C51.5508 59.0543 51.6751 59.0221 51.8443 59.0221H52.6351V54.7128C52.6351 54.205 52.4508 53.7786 52.0865 53.4378C51.7201 53.0993 51.2079 52.9278 50.5586 52.9278C50.0443 52.9278 49.6051 53.0543 49.2408 53.305C48.9793 53.485 48.5486 53.905 47.9465 54.5693V59.0221H48.7415C48.9086 59.0221 49.0265 59.0543 49.1015 59.1186C49.1743 59.1828 49.2086 59.2643 49.2086 59.3736C49.2086 59.4743 49.1743 59.5578 49.1015 59.6243C49.0265 59.6907 48.9086 59.725 48.7415 59.725H46.4486C46.2815 59.725 46.1615 59.6907 46.0865 59.6243C46.0158 59.5578 45.9772 59.4743 45.9772 59.3736C45.9772 59.2643 46.0158 59.1828 46.0865 59.1186C46.1615 59.0543 46.2815 59.0221 46.4486 59.0221H47.2415V49.9321H46.2943C46.1272 49.9321 46.0093 49.8978 45.9365 49.8314C45.8636 49.765 45.8293 49.6771 45.8293 49.5721C45.8293 49.4714 45.8636 49.3878 45.9365 49.3214C46.0093 49.255 46.1272 49.2207 46.2943 49.2207H47.9465Z" fill="#343534"/>
<path fill-rule="evenodd" clip-rule="evenodd" d="M64.9842 50.6843H66.0214V48.8672H64.9842V50.6843ZM66.0449 52.4758V59.0222H68.8092C68.9806 59.0222 69.1049 59.0543 69.1757 59.1186C69.2485 59.1829 69.2849 59.2665 69.2849 59.3736C69.2849 59.4743 69.2485 59.5579 69.1757 59.6243C69.1049 59.6908 68.9806 59.725 68.8092 59.725H62.5799C62.4128 59.725 62.2928 59.6908 62.2199 59.6243C62.1492 59.5579 62.1128 59.4743 62.1128 59.3736C62.1128 59.2665 62.1492 59.1829 62.2199 59.1186C62.2928 59.0543 62.4128 59.0222 62.5799 59.0222H65.3421V53.1872H63.2914C63.1242 53.1872 63.0042 53.155 62.9271 53.0865C62.8521 53.02 62.8156 52.9365 62.8156 52.8358C62.8156 52.7308 62.8521 52.6429 62.9228 52.5765C62.9957 52.51 63.1199 52.4758 63.2914 52.4758H66.0449Z" fill="#343534"/>
<path fill-rule="evenodd" clip-rule="evenodd" d="M79.6436 52.4752H83.4601C83.6251 52.4752 83.7494 52.5095 83.8201 52.5759C83.8908 52.6424 83.9294 52.7302 83.9294 52.8352C83.9294 52.9359 83.8908 53.0195 83.8201 53.0859C83.7494 53.1524 83.6251 53.1866 83.4601 53.1866H79.6436V57.8666C79.6436 58.2738 79.8065 58.6124 80.1344 58.8866C80.4579 59.1609 80.9379 59.2981 81.5658 59.2981C82.0436 59.2981 82.5536 59.2274 83.1086 59.0838C83.6615 58.9424 84.0922 58.7816 84.3986 58.6038C84.5079 58.5288 84.6001 58.4945 84.6751 58.4945C84.7629 58.4945 84.8422 58.5288 84.9086 58.5995C84.9729 58.6681 85.0072 58.7516 85.0072 58.8459C85.0072 58.9295 84.9708 59.0066 84.9001 59.0795C84.7222 59.2638 84.2851 59.4631 83.5994 59.6795C82.9072 59.8938 82.2472 60.0009 81.6172 60.0009C80.7986 60.0009 80.1429 59.8081 79.6586 59.4224C79.1744 59.0388 78.9322 58.5202 78.9322 57.8666V53.1866H77.6336C77.4644 53.1866 77.3465 53.1524 77.2758 53.0859C77.2008 53.0195 77.1665 52.9316 77.1665 52.8266C77.1665 52.7259 77.2008 52.6424 77.2758 52.5759C77.3465 52.5095 77.4644 52.4752 77.6336 52.4752H78.9322V50.3988C78.9322 50.2316 78.9665 50.1116 79.0308 50.0388C79.0994 49.9681 79.1829 49.9316 79.2836 49.9316C79.3865 49.9316 79.4744 49.9681 79.5429 50.0388C79.6072 50.1116 79.6436 50.2316 79.6436 50.3988V52.4752Z" fill="#343534"/>
<path fill-rule="evenodd" clip-rule="evenodd" d="M99.5936 55.5568C99.4544 54.781 99.0879 54.151 98.4901 53.6646C97.8986 53.1803 97.1915 52.936 96.3708 52.936C95.5479 52.936 94.8451 53.176 94.2515 53.6539C93.6622 54.136 93.2936 54.7703 93.1479 55.5568H99.5936ZM100.305 56.2682H93.1372C93.2594 57.1789 93.6429 57.9096 94.2815 58.4646C94.9201 59.0196 95.7129 59.2982 96.6536 59.2982C97.1808 59.2982 97.7272 59.2125 98.3036 59.0389C98.8801 58.8653 99.3451 58.6339 99.7115 58.351C99.8165 58.2675 99.9086 58.2268 99.9879 58.2268C100.076 58.2268 100.155 58.261 100.221 58.3318C100.286 58.4003 100.32 58.4839 100.32 58.5782C100.32 58.6725 100.275 58.7646 100.185 58.8546C99.9172 59.1332 99.4436 59.3946 98.7579 59.6368C98.0765 59.8789 97.3736 60.001 96.6536 60.001C95.4472 60.001 94.4444 59.6046 93.6386 58.8139C92.8286 58.0275 92.4258 57.0717 92.4258 55.9489C92.4258 54.9289 92.8072 54.0525 93.5636 53.3218C94.3201 52.591 95.2544 52.2246 96.3708 52.2246C97.5215 52.2246 98.4665 52.6018 99.2058 53.3518C99.9515 54.1018 100.314 55.0746 100.305 56.2682Z" fill="#343534"/>
<path fill-rule="evenodd" clip-rule="evenodd" d="M114.846 53.1868V52.9532C114.846 52.7796 114.881 52.6553 114.947 52.5868C115.014 52.5118 115.097 52.4753 115.198 52.4753C115.303 52.4753 115.391 52.5118 115.457 52.5868C115.524 52.6553 115.558 52.7796 115.558 52.9532V54.5432C115.554 54.7146 115.517 54.8389 115.453 54.9139C115.389 54.9825 115.303 55.0189 115.198 55.0189C115.104 55.0189 115.024 54.9868 114.96 54.9246C114.896 54.8625 114.857 54.751 114.846 54.601C114.812 54.2046 114.553 53.8275 114.064 53.4717C113.576 53.1139 112.918 52.936 112.093 52.936C111.049 52.936 110.256 53.2618 109.714 53.9153C109.174 54.5689 108.904 55.3168 108.904 56.1589C108.904 57.0718 109.202 57.8175 109.8 58.4132C110.396 59.0025 111.169 59.2982 112.119 59.2982C112.665 59.2982 113.222 59.1975 113.788 58.996C114.354 58.7968 114.866 58.471 115.324 58.0253C115.44 57.9139 115.545 57.8582 115.633 57.8582C115.729 57.8582 115.809 57.8903 115.873 57.9546C115.935 58.0189 115.967 58.0982 115.967 58.1925C115.967 58.4346 115.686 58.7368 115.123 59.1053C114.214 59.701 113.201 60.001 112.084 60.001C110.951 60.001 110.021 59.6389 109.292 58.9168C108.564 58.1946 108.199 57.2796 108.199 56.1675C108.199 55.0339 108.574 54.0932 109.318 53.3475C110.064 52.5975 111.002 52.2246 112.134 52.2246C113.211 52.2246 114.116 52.5482 114.846 53.1868Z" fill="#343534"/>
<path fill-rule="evenodd" clip-rule="evenodd" d="M125.882 52.4752H129.699C129.866 52.4752 129.988 52.5095 130.059 52.5759C130.131 52.6424 130.168 52.7302 130.168 52.8352C130.168 52.9359 130.131 53.0195 130.059 53.0859C129.988 53.1524 129.866 53.1866 129.699 53.1866H125.882V57.8666C125.882 58.2738 126.045 58.6124 126.373 58.8866C126.699 59.1609 127.176 59.2981 127.806 59.2981C128.282 59.2981 128.794 59.2274 129.347 59.0838C129.9 58.9424 130.331 58.7816 130.637 58.6038C130.749 58.5288 130.841 58.4945 130.914 58.4945C131.001 58.4945 131.081 58.5288 131.147 58.5995C131.214 58.6681 131.248 58.7516 131.248 58.8459C131.248 58.9295 131.211 59.0066 131.139 59.0795C130.961 59.2638 130.526 59.4631 129.838 59.6795C129.148 59.8938 128.488 60.0009 127.858 60.0009C127.037 60.0009 126.384 59.8081 125.899 59.4224C125.413 59.0388 125.171 58.5202 125.171 57.8666V53.1866H123.874C123.705 53.1866 123.585 53.1524 123.514 53.0859C123.441 53.0195 123.405 52.9316 123.405 52.8266C123.405 52.7259 123.441 52.6424 123.514 52.5759C123.585 52.5095 123.705 52.4752 123.874 52.4752H125.171V50.3988C125.171 50.2316 125.205 50.1116 125.271 50.0388C125.338 49.9681 125.421 49.9316 125.522 49.9316C125.627 49.9316 125.715 49.9681 125.781 50.0388C125.848 50.1116 125.882 50.2316 125.882 50.3988V52.4752Z" fill="#343534"/>
<path fill-rule="evenodd" clip-rule="evenodd" d="M145.144 59.7239V58.6975C144.186 59.5653 143.147 60.0003 142.031 60.0003C141.345 60.0003 140.822 59.8139 140.464 59.4389C140.004 58.9482 139.772 58.376 139.772 57.7246V53.186H138.825C138.658 53.186 138.538 53.1539 138.465 53.0853C138.394 53.0189 138.358 52.9332 138.358 52.826C138.358 52.7253 138.394 52.6418 138.465 52.5753C138.538 52.5089 138.658 52.4746 138.825 52.4746H140.473V57.7246C140.473 58.181 140.621 58.5582 140.908 58.8539C141.199 59.1496 141.561 59.2975 141.996 59.2975C143.143 59.2975 144.191 58.7725 145.144 57.7246V53.186H143.846C143.679 53.186 143.563 53.1539 143.486 53.0853C143.415 53.0189 143.379 52.9332 143.379 52.826C143.379 52.7253 143.415 52.6418 143.486 52.5753C143.563 52.5089 143.679 52.4746 143.846 52.4746H145.847V59.021H146.439C146.61 59.021 146.73 59.0553 146.801 59.1175C146.878 59.1817 146.91 59.2653 146.91 59.3725C146.91 59.4732 146.878 59.5567 146.801 59.6232C146.73 59.6896 146.61 59.7239 146.439 59.7239H145.144Z" fill="#343534"/>
<path fill-rule="evenodd" clip-rule="evenodd" d="M157.311 52.4745V54.2488C158.224 53.4238 158.912 52.8924 159.366 52.6545C159.819 52.4167 160.241 52.2988 160.626 52.2988C161.044 52.2988 161.432 52.4403 161.792 52.721C162.152 53.0038 162.332 53.216 162.332 53.3617C162.332 53.4667 162.298 53.5545 162.227 53.6253C162.159 53.696 162.071 53.7303 161.966 53.7303C161.91 53.7303 161.863 53.7217 161.822 53.7003C161.781 53.681 161.711 53.6188 161.604 53.5117C161.411 53.3167 161.239 53.1838 161.094 53.111C160.95 53.0381 160.809 53.0017 160.667 53.0017C160.361 53.0017 159.992 53.1238 159.557 53.3703C159.124 53.6167 158.376 54.2145 157.311 55.1703V59.021H160.425C160.599 59.021 160.719 59.0531 160.794 59.1174C160.866 59.1817 160.901 59.2653 160.901 59.3724C160.901 59.4731 160.866 59.5567 160.794 59.6231C160.719 59.6895 160.599 59.7238 160.425 59.7238H154.907C154.74 59.7238 154.622 59.6917 154.549 59.6274C154.474 59.5631 154.44 59.4817 154.44 59.381C154.44 59.2867 154.474 59.2074 154.545 59.1431C154.614 59.0767 154.736 59.0467 154.907 59.0467H156.609V53.186H155.31C155.143 53.186 155.023 53.1517 154.95 53.0853C154.877 53.0188 154.841 52.931 154.841 52.826C154.841 52.7253 154.877 52.6417 154.946 52.5753C155.014 52.5088 155.136 52.4745 155.31 52.4745H157.311Z" fill="#343534"/>
<path fill-rule="evenodd" clip-rule="evenodd" d="M176.657 55.5568C176.516 54.781 176.151 54.151 175.556 53.6646C174.962 53.1803 174.255 52.936 173.434 52.936C172.614 52.936 171.909 53.176 171.317 53.6539C170.724 54.136 170.355 54.7703 170.211 55.5568H176.657ZM177.369 56.2682H170.203C170.327 57.1789 170.709 57.9096 171.343 58.4646C171.984 59.0196 172.774 59.2982 173.719 59.2982C174.244 59.2982 174.793 59.2125 175.367 59.0389C175.944 58.8653 176.413 58.6339 176.775 58.351C176.88 58.2675 176.972 58.2268 177.049 58.2268C177.139 58.2268 177.219 58.261 177.285 58.3318C177.351 58.4003 177.386 58.4839 177.386 58.5782C177.386 58.6725 177.341 58.7646 177.251 58.8546C176.983 59.1332 176.509 59.3946 175.824 59.6368C175.14 59.8789 174.439 60.001 173.719 60.001C172.513 60.001 171.508 59.6046 170.702 58.8139C169.896 58.0275 169.491 57.0717 169.491 55.9489C169.491 54.9289 169.871 54.0525 170.627 53.3218C171.381 52.591 172.318 52.2246 173.434 52.2246C174.583 52.2246 175.53 52.6018 176.271 53.3518C177.015 54.1018 177.379 55.0746 177.369 56.2682Z" fill="#343534"/>
<path fill-rule="evenodd" clip-rule="evenodd" d="M207.844 56.1186C207.844 55.2293 207.54 54.4771 206.931 53.8621C206.323 53.2471 205.611 52.9386 204.797 52.9386C203.983 52.9386 203.271 53.2471 202.663 53.8621C202.054 54.4771 201.75 55.2293 201.75 56.1186C201.75 57.0057 202.054 57.7557 202.663 58.3728C203.271 58.99 203.983 59.2986 204.797 59.2986C205.611 59.2986 206.323 58.99 206.931 58.3728C207.54 57.7557 207.844 57.0057 207.844 56.1186ZM201.741 49.2207V53.8836C202.588 52.7757 203.614 52.2271 204.814 52.2271C205.841 52.2271 206.719 52.5957 207.45 53.3414C208.181 54.0893 208.547 55.0021 208.547 56.0843C208.547 57.1793 208.176 58.1028 207.437 58.8636C206.7 59.6221 205.824 60.0014 204.814 60.0014C203.584 60.0014 202.562 59.4486 201.741 58.345V59.725H200.094C199.924 59.725 199.806 59.6907 199.734 59.6243C199.659 59.5578 199.624 59.4743 199.624 59.3757C199.624 59.2664 199.659 59.1828 199.734 59.1186C199.806 59.0543 199.924 59.0221 200.094 59.0221H201.039V49.9321H200.094C199.924 49.9321 199.806 49.9 199.734 49.8293C199.659 49.765 199.624 49.6793 199.624 49.57C199.624 49.4693 199.659 49.3857 199.734 49.3214C199.806 49.2528 199.924 49.2207 200.094 49.2207H201.741Z" fill="#343534"/>
<path fill-rule="evenodd" clip-rule="evenodd" d="M222.212 59.7239V58.6975C221.25 59.5653 220.213 60.0003 219.099 60.0003C218.411 60.0003 217.89 59.8139 217.532 59.4389C217.069 58.9482 216.838 58.376 216.838 57.7246V53.186H215.893C215.724 53.186 215.606 53.1539 215.533 53.0853C215.458 53.0189 215.424 52.9332 215.424 52.826C215.424 52.7253 215.458 52.6418 215.533 52.5753C215.606 52.5089 215.724 52.4746 215.893 52.4746H217.541V57.7246C217.541 58.181 217.684 58.5582 217.976 58.8539C218.267 59.1496 218.629 59.2975 219.064 59.2975C220.209 59.2975 221.256 58.7725 222.212 57.7246V53.186H220.914C220.746 53.186 220.626 53.1539 220.554 53.0853C220.481 53.0189 220.446 52.9332 220.446 52.826C220.446 52.7253 220.481 52.6418 220.554 52.5753C220.626 52.5089 220.746 52.4746 220.914 52.4746H222.915V59.021H223.509C223.676 59.021 223.796 59.0553 223.869 59.1175C223.941 59.1817 223.978 59.2653 223.978 59.3725C223.978 59.4732 223.941 59.5567 223.869 59.6232C223.796 59.6896 223.676 59.7239 223.509 59.7239H222.212Z" fill="#343534"/>
<path fill-rule="evenodd" clip-rule="evenodd" d="M234.375 52.4745V54.2488C235.29 53.4238 235.978 52.8924 236.43 52.6545C236.884 52.4167 237.306 52.2988 237.69 52.2988C238.11 52.2988 238.498 52.4403 238.858 52.721C239.218 53.0038 239.398 53.216 239.398 53.3617C239.398 53.4667 239.363 53.5545 239.293 53.6253C239.224 53.696 239.136 53.7303 239.029 53.7303C238.973 53.7303 238.928 53.7217 238.886 53.7003C238.847 53.681 238.776 53.6188 238.669 53.5117C238.476 53.3167 238.303 53.1838 238.159 53.111C238.016 53.0381 237.872 53.0017 237.733 53.0017C237.424 53.0017 237.056 53.1238 236.623 53.3703C236.19 53.6167 235.442 54.2145 234.375 55.1703V59.021H237.491C237.664 59.021 237.784 59.0531 237.857 59.1174C237.932 59.1817 237.966 59.2653 237.966 59.3724C237.966 59.4731 237.932 59.5567 237.857 59.6231C237.784 59.6895 237.664 59.7238 237.491 59.7238H231.973C231.806 59.7238 231.688 59.6917 231.613 59.6274C231.54 59.5631 231.506 59.4817 231.506 59.381C231.506 59.2867 231.54 59.2074 231.608 59.1431C231.679 59.0767 231.799 59.0467 231.973 59.0467H233.672V53.186H232.376C232.208 53.186 232.088 53.1517 232.013 53.0853C231.943 53.0188 231.906 52.931 231.906 52.826C231.906 52.7253 231.943 52.6417 232.009 52.5753C232.08 52.5088 232.202 52.4745 232.376 52.4745H234.375Z" fill="#343534"/>
<path fill-rule="evenodd" clip-rule="evenodd" d="M253.725 55.5568C253.584 54.781 253.217 54.151 252.624 53.6646C252.03 53.1803 251.323 52.936 250.502 52.936C249.681 52.936 248.976 53.176 248.385 53.6539C247.789 54.136 247.423 54.7703 247.279 55.5568H253.725ZM254.436 56.2682H247.271C247.395 57.1789 247.774 57.9096 248.411 58.4646C249.051 59.0196 249.84 59.2982 250.787 59.2982C251.312 59.2982 251.861 59.2125 252.433 59.0389C253.011 58.8653 253.481 58.6339 253.841 58.351C253.946 58.2675 254.038 58.2268 254.117 58.2268C254.207 58.2268 254.286 58.261 254.353 58.3318C254.419 58.4003 254.454 58.4839 254.454 58.5782C254.454 58.6725 254.409 58.7646 254.319 58.8546C254.051 59.1332 253.575 59.3946 252.891 59.6368C252.208 59.8789 251.507 60.001 250.787 60.001C249.581 60.001 248.574 59.6046 247.768 58.8139C246.964 58.0275 246.559 57.0717 246.559 55.9489C246.559 54.9289 246.939 54.0525 247.693 53.3218C248.449 52.591 249.386 52.2246 250.502 52.2246C251.651 52.2246 252.596 52.6018 253.339 53.3518C254.083 54.1018 254.447 55.0746 254.436 56.2682Z" fill="#343534"/>
<path fill-rule="evenodd" clip-rule="evenodd" d="M268.065 56.2253C267.737 56.131 267.388 56.0603 267.019 56.0175C266.651 55.9703 266.263 55.9489 265.856 55.9489C264.834 55.9489 264.036 56.1696 263.462 56.611C263.027 56.9389 262.809 57.3332 262.809 57.7896C262.809 58.216 262.974 58.5718 263.306 58.861C263.64 59.1525 264.122 59.2982 264.759 59.2982C265.367 59.2982 265.933 59.176 266.454 58.9339C266.974 58.6918 267.512 58.3039 268.065 57.7746V56.2253ZM268.065 59.7246V58.711C267.045 59.5725 265.954 60.001 264.793 60.001C263.949 60.001 263.291 59.7868 262.817 59.3603C262.341 58.9339 262.106 58.411 262.106 57.7896C262.106 57.1103 262.416 56.5167 263.042 56.0089C263.668 55.501 264.581 55.246 265.781 55.246C266.104 55.246 266.456 55.2675 266.835 55.3082C267.214 55.351 267.624 55.4175 268.065 55.5053V54.3675C268.065 53.9818 267.887 53.6475 267.529 53.3625C267.171 53.0775 266.636 52.936 265.922 52.936C265.376 52.936 264.609 53.0946 263.621 53.4139C263.443 53.4675 263.327 53.4975 263.278 53.4975C263.188 53.4975 263.111 53.4632 263.046 53.3967C262.982 53.3282 262.95 53.2446 262.95 53.146C262.95 53.0496 262.978 52.9746 263.036 52.9189C263.111 52.8353 263.428 52.7218 263.981 52.576C264.851 52.3425 265.511 52.2246 265.956 52.2246C266.844 52.2246 267.536 52.4432 268.033 52.8803C268.528 53.3196 268.776 53.8146 268.776 54.3675V59.0217H269.715C269.889 59.0217 270.009 59.0539 270.084 59.1182C270.156 59.1825 270.191 59.266 270.191 59.3732C270.191 59.4739 270.156 59.5575 270.084 59.6239C270.009 59.6903 269.889 59.7246 269.715 59.7246H268.065Z" fill="#343534"/>
<path fill-rule="evenodd" clip-rule="evenodd" d="M283.862 59.7239V58.6975C282.902 59.5653 281.865 60.0003 280.749 60.0003C280.063 60.0003 279.542 59.8139 279.184 59.4389C278.721 58.9482 278.488 58.376 278.488 57.7246V53.186H277.543C277.376 53.186 277.256 53.1539 277.183 53.0853C277.11 53.0189 277.073 52.9332 277.073 52.826C277.073 52.7253 277.11 52.6418 277.183 52.5753C277.256 52.5089 277.376 52.4746 277.543 52.4746H279.193V57.7246C279.193 58.181 279.336 58.5582 279.628 58.8539C279.917 59.1496 280.279 59.2975 280.714 59.2975C281.861 59.2975 282.908 58.7725 283.862 57.7246V53.186H282.566C282.398 53.186 282.278 53.1539 282.206 53.0853C282.133 53.0189 282.096 52.9332 282.096 52.826C282.096 52.7253 282.133 52.6418 282.206 52.5753C282.278 52.5089 282.398 52.4746 282.566 52.4746H284.565V59.021H285.161C285.328 59.021 285.446 59.0553 285.521 59.1175C285.593 59.1817 285.628 59.2653 285.628 59.3725C285.628 59.4732 285.593 59.5567 285.521 59.6232C285.446 59.6896 285.328 59.7239 285.161 59.7239H283.862Z" fill="#343534"/>
</g>
<defs>
<clipPath id="clip0_5227_18375">
<rect width="287.143" height="60" fill="white"/>
</clipPath>
</defs>
</svg>
