<svg width="220" height="33" viewBox="0 0 220 33" fill="none" xmlns="http://www.w3.org/2000/svg">
<path d="M14.1251 13.21L25.8528 28.4691C26.4923 29.2539 27.1463 29.8498 27.8147 30.2566C28.5122 30.6346 29.3116 30.838 30.2125 30.867V31.3029H27.2043C26.8847 31.3029 26.3905 31.2886 25.722 31.2593C25.0536 31.2014 24.2979 31.0849 23.4549 30.9106C22.6412 30.7072 21.8128 30.3874 20.9699 29.9514C20.1271 29.5154 19.386 28.8907 18.7464 28.0767C18.6592 27.9315 18.3832 27.5682 17.918 26.9868C17.4821 26.3764 16.9299 25.6499 16.2613 24.8069C15.593 23.935 14.8954 23.034 14.1687 22.1039C13.4711 21.1447 12.8028 20.2584 12.1632 19.4444C11.5528 18.6307 11.0443 17.9621 10.6373 17.439C10.2595 16.9158 10.0705 16.6542 10.0705 16.6542L14.1251 13.21ZM25.5912 1.08994L12.512 16.4798L10.0705 16.6542L22.0598 1.08994H25.5912ZM28.643 0.784755V1.17713H28.4686C27.5095 1.17713 26.6085 1.36613 25.7656 1.7439C24.9518 2.12189 24.2543 2.64506 23.6729 3.3134L20.4031 3.22621C20.7519 2.73225 20.8101 2.26707 20.5775 1.83109C20.3451 1.39512 19.9381 1.17713 19.3568 1.17713H18.9208V0.784755H28.4686H28.643ZM8.67539 0.784755V31.3029H3.35651V0.784755H8.67539ZM3.4873 28.1203V31.3029H-0.000488281V30.867C0.028722 30.867 0.115919 30.867 0.261098 30.867C0.435488 30.867 0.537286 30.867 0.566278 30.867C1.32204 30.867 1.96139 30.6054 2.48456 30.0822C3.03694 29.5301 3.32752 28.8761 3.35651 28.1203H3.4873ZM3.4873 3.96737H3.35651C3.32752 3.21182 3.03694 2.57225 2.48456 2.04908C1.96139 1.49692 1.32204 1.22073 0.566278 1.22073C0.537286 1.22073 0.435488 1.22073 0.261098 1.22073C0.115919 1.22073 0.028722 1.22073 -0.000488281 1.22073V0.784755H3.4873V3.96737ZM8.5446 28.1203H8.67539C8.7046 28.8761 8.98058 29.5301 9.50375 30.0822C10.0561 30.6054 10.7101 30.867 11.4656 30.867C11.4656 30.867 11.5528 30.867 11.7272 30.867C11.9016 30.867 12.0034 30.867 12.0324 30.867V31.3029H8.5446V28.1203ZM8.5446 3.96737V0.784755H12.0324V1.22073C12.0034 1.22073 11.9016 1.22073 11.7272 1.22073C11.5528 1.22073 11.4656 1.22073 11.4656 1.22073C10.7101 1.22073 10.0561 1.49692 9.50375 2.04908C8.98058 2.57225 8.7046 3.21182 8.67539 3.96737H8.5446ZM43.0573 0.784755V31.3029H37.7384V0.784755H43.0573ZM54.6106 29.6026L55.3518 31.3029H42.9265V29.6026H54.6106ZM52.9539 15.4335V17.0902H42.9265V15.4335H52.9539ZM55.003 0.784755V2.48505H42.9265V0.784755H55.003ZM57.6625 23.0194L55.4826 31.3029H47.3299L48.8994 29.6026C50.3817 29.6026 51.6606 29.3411 52.736 28.8179C53.8113 28.2657 54.7125 27.4956 55.439 26.5072C56.1656 25.4901 56.7615 24.3274 57.2265 23.0194H57.6625ZM52.9539 17.003V20.7524H52.518V20.2728C52.518 19.3719 52.2128 18.6161 51.6024 18.0057C50.9921 17.3954 50.2363 17.0902 49.3354 17.0902V17.003H52.9539ZM52.9539 11.7713V15.5207H49.3354V15.4335C50.2363 15.4045 50.9921 15.0847 51.6024 14.4743C52.2128 13.864 52.518 13.1084 52.518 12.2073V11.7713H52.9539ZM55.003 2.35426V6.88839H54.5671V6.27803C54.5671 5.1737 54.2183 4.27255 53.5207 3.57499C52.8232 2.84844 51.893 2.47066 50.7305 2.44145V2.35426H55.003ZM55.003 0V1.26432L49.6841 0.784755C50.3235 0.784755 50.9921 0.741156 51.6896 0.653961C52.4162 0.566767 53.0847 0.465184 53.6951 0.348779C54.3055 0.232592 54.7414 0.116405 55.003 0ZM37.8692 28.1203V31.3029H34.3814V30.867C34.3814 30.867 34.4686 30.867 34.643 30.867C34.8464 30.867 34.9482 30.867 34.9482 30.867C35.704 30.867 36.3433 30.6054 36.8665 30.0822C37.4187 29.5301 37.7095 28.8761 37.7384 28.1203H37.8692ZM37.8692 3.96737H37.7384C37.7095 3.21182 37.4187 2.57225 36.8665 2.04908C36.3433 1.49692 35.704 1.22073 34.9482 1.22073C34.9482 1.22073 34.8464 1.22073 34.643 1.22073C34.4686 1.22073 34.3814 1.22073 34.3814 1.22073V0.784755H37.8692V3.96737ZM95.6135 0.174389L95.9623 4.31614L83.6679 27.3792C83.6679 27.3792 83.5371 27.6408 83.2755 28.1639C83.0139 28.6581 82.7523 29.2685 82.4907 29.995C82.2291 30.7218 82.084 31.4193 82.0547 32.0877H81.6188L80.2673 28.6435L95.6135 0.174389ZM66.97 28.1203V31.3029H62.1307V30.867C62.16 30.867 62.2761 30.867 62.4795 30.867C62.7121 30.867 62.8283 30.867 62.8283 30.867C63.6131 30.867 64.3106 30.6346 64.921 30.1694C65.5313 29.6754 65.8947 28.9923 66.0109 28.1203H66.97ZM68.6704 28.8179C68.6704 28.8471 68.6704 28.8761 68.6704 28.9051C68.6704 28.9343 68.6704 28.9779 68.6704 29.0359C68.6704 29.5011 68.8303 29.937 69.1499 30.3438C69.4987 30.7218 69.9057 30.9106 70.3707 30.9106H71.0246V31.3029H68.3652V28.8179H68.6704ZM69.4987 0.174389H69.9347L71.2426 3.96737L68.4088 31.3029H65.6185L69.4987 0.174389ZM69.9347 0.174389L83.6243 24.8505L81.6188 32.0877L68.8883 8.67589L69.9347 0.174389ZM96.0059 0.174389L100.017 31.3029H94.2184L91.9514 9.15545L95.6135 0.174389H96.0059ZM98.6654 28.1203H99.6245C99.7699 28.9923 100.133 29.6754 100.714 30.1694C101.325 30.6346 102.022 30.867 102.807 30.867C102.807 30.867 102.909 30.867 103.112 30.867C103.345 30.867 103.476 30.867 103.505 30.867V31.3029H98.6654V28.1203ZM93.9568 28.8179H94.262V31.3029H91.6026V30.9106H92.2565C92.7507 30.9106 93.1577 30.7218 93.4773 30.3438C93.7971 29.937 93.9568 29.5011 93.9568 29.0359C93.9568 28.9779 93.9568 28.9343 93.9568 28.9051C93.9568 28.8761 93.9568 28.8471 93.9568 28.8179ZM117.032 0.784755V31.3029H111.713V0.784755H117.032ZM128.585 29.6026L129.326 31.3029H116.901V29.6026H128.585ZM126.929 15.4335V17.0902H116.901V15.4335H126.929ZM128.978 0.784755V2.48505H116.901V0.784755H128.978ZM131.637 23.0194L129.457 31.3029H121.305L122.874 29.6026C124.356 29.6026 125.635 29.3411 126.711 28.8179C127.786 28.2657 128.687 27.4956 129.414 26.5072C130.14 25.4901 130.736 24.3274 131.201 23.0194H131.637ZM126.929 17.003V20.7524H126.493V20.2728C126.493 19.3719 126.187 18.6161 125.577 18.0057C124.967 17.3954 124.211 17.0902 123.31 17.0902V17.003H126.929ZM126.929 11.7713V15.5207H123.31V15.4335C124.211 15.4045 124.967 15.0847 125.577 14.4743C126.187 13.864 126.493 13.1084 126.493 12.2073V11.7713H126.929ZM128.978 2.35426V6.88839H128.542V6.27803C128.542 5.1737 128.193 4.27255 127.495 3.57499C126.798 2.84844 125.868 2.47066 124.705 2.44145V2.35426H128.978ZM128.978 0V1.26432L123.659 0.784755C124.298 0.784755 124.967 0.741156 125.664 0.653961C126.391 0.566767 127.059 0.465184 127.67 0.348779C128.28 0.232592 128.716 0.116405 128.978 0ZM111.844 28.1203V31.3029H108.356V30.867C108.356 30.867 108.443 30.867 108.618 30.867C108.821 30.867 108.923 30.867 108.923 30.867C109.679 30.867 110.318 30.6054 110.841 30.0822C111.393 29.5301 111.684 28.8761 111.713 28.1203H111.844ZM111.844 3.96737H111.713C111.684 3.21182 111.393 2.57225 110.841 2.04908C110.318 1.49692 109.679 1.22073 108.923 1.22073C108.923 1.22073 108.821 1.22073 108.618 1.22073C108.443 1.22073 108.356 1.22073 108.356 1.22073V0.784755H111.844V3.96737ZM146.662 0.784755V31.3029H141.343V0.784755H146.662ZM158.215 29.6026L158.957 31.3029H146.531V29.6026H158.215ZM161.267 23.0194L159.087 31.3029H150.935L152.504 29.6026C153.986 29.6026 155.265 29.3411 156.341 28.8179C157.416 28.2657 158.317 27.4956 159.044 26.5072C159.771 25.4901 160.366 24.3274 160.831 23.0194H161.267ZM141.474 28.1203V31.3029H137.986V30.867C137.986 30.867 138.073 30.867 138.248 30.867C138.451 30.867 138.553 30.867 138.553 30.867C139.309 30.867 139.948 30.6054 140.471 30.0822C141.024 29.5301 141.314 28.8761 141.343 28.1203H141.474ZM141.474 3.96737H141.343C141.314 3.21182 141.024 2.57225 140.471 2.04908C139.948 1.49692 139.309 1.22073 138.553 1.22073C138.553 1.22073 138.451 1.22073 138.248 1.22073C138.073 1.22073 137.986 1.22073 137.986 1.22073V0.784755H141.474V3.96737ZM146.531 3.96737V0.784755H150.019V1.22073C149.99 1.22073 149.888 1.22073 149.714 1.22073C149.54 1.22073 149.452 1.22073 149.452 1.22073C148.697 1.22073 148.043 1.49692 147.49 2.04908C146.967 2.57225 146.691 3.21182 146.662 3.96737H146.531ZM175.169 0.784755V31.3029H169.85V0.784755H175.169ZM169.981 28.1203V31.3029H166.493V30.867C166.493 30.867 166.58 30.867 166.754 30.867C166.958 30.867 167.06 30.867 167.06 30.867C167.815 30.867 168.455 30.6054 168.978 30.0822C169.53 29.5301 169.821 28.8761 169.85 28.1203H169.981ZM169.981 3.96737H169.85C169.821 3.21182 169.53 2.57225 168.978 2.04908C168.455 1.49692 167.815 1.22073 167.06 1.22073C167.06 1.22073 166.958 1.22073 166.754 1.22073C166.58 1.22073 166.493 1.22073 166.493 1.22073V0.784755H169.981V3.96737ZM175.038 28.1203H175.169C175.198 28.8761 175.474 29.5301 175.997 30.0822C176.549 30.6054 177.203 30.867 177.959 30.867C177.959 30.867 178.046 30.867 178.22 30.867C178.395 30.867 178.496 30.867 178.526 30.867V31.3029H175.038V28.1203ZM175.038 3.96737V0.784755H178.526V1.22073C178.496 1.22073 178.395 1.22073 178.22 1.22073C178.046 1.22073 177.959 1.22073 177.959 1.22073C177.203 1.22073 176.549 1.49692 175.997 2.04908C175.474 2.57225 175.198 3.21182 175.169 3.96737H175.038ZM188.654 0.130793L215.641 26.8124L216.12 31.9133L189.134 5.27529L188.654 0.130793ZM188.828 28.2075V31.3029H185.21V30.867C185.21 30.867 185.341 30.867 185.603 30.867C185.864 30.867 186.01 30.867 186.039 30.867C186.766 30.867 187.39 30.6054 187.913 30.0822C188.436 29.559 188.698 28.9343 188.698 28.2075H188.828ZM193.537 28.2075C193.537 28.9343 193.798 29.559 194.322 30.0822C194.845 30.6054 195.47 30.867 196.196 30.867C196.227 30.867 196.371 30.867 196.632 30.867C196.894 30.867 197.025 30.867 197.025 30.867V31.3029H193.406V28.2075H193.537ZM188.654 0.130793L193.493 5.40608L193.537 31.3029H188.698V5.58047C188.698 4.01096 188.61 2.71765 188.436 1.7003C188.292 0.653963 188.218 0.130793 188.218 0.130793H188.654ZM216.033 0.784755V26.3328C216.033 27.3792 216.077 28.3239 216.164 29.1667C216.251 30.0096 216.325 30.6782 216.382 31.1721C216.469 31.6663 216.513 31.9133 216.513 31.9133H216.12L211.281 26.4636V0.784755H216.033ZM219.521 0.784755V1.22073C219.521 1.22073 219.39 1.22073 219.129 1.22073C218.867 1.22073 218.736 1.22073 218.736 1.22073C218.01 1.22073 217.385 1.48231 216.861 2.00548C216.338 2.49966 216.064 3.12463 216.033 3.88017H215.902V0.784755H219.521ZM207.75 0.784755H211.368V3.88017H211.281C211.253 3.12463 210.976 2.49966 210.453 2.00548C209.96 1.48231 209.334 1.22073 208.578 1.22073C208.578 1.22073 208.447 1.22073 208.186 1.22073C207.924 1.22073 207.78 1.22073 207.75 1.22073V0.784755Z" fill="#24292E"/>
</svg>
