<svg width="215" height="32" viewBox="0 0 215 32" fill="none" xmlns="http://www.w3.org/2000/svg">
<path d="M5.76205 0.719164H11.5457C13.4149 0.719164 15.0215 1.05508 16.3652 1.72692C17.7088 2.39875 18.7458 3.3773 19.476 4.66255C20.2063 5.91859 20.5714 7.42292 20.5714 9.17553C20.5714 10.5192 20.3085 11.7314 19.7828 12.812C19.257 13.8636 18.5559 14.7545 17.6796 15.4847C16.8033 16.215 15.8102 16.77 14.7002 17.1497C13.5902 17.5002 12.4366 17.6317 11.239 17.5441C10.0706 17.4564 8.93137 17.1205 7.82138 16.5363V16.0981C7.82138 16.0981 8.06966 16.142 8.56624 16.2296C9.06281 16.288 9.69083 16.3026 10.4503 16.2734C11.239 16.215 12.0569 16.0543 12.904 15.7914C13.78 15.4993 14.5833 15.0028 15.3136 14.3017C16.0731 13.6007 16.6427 12.6221 17.0224 11.3663C17.11 11.045 17.183 10.6507 17.2415 10.1833C17.2999 9.68672 17.3145 9.20475 17.2853 8.73739C17.2561 6.72188 16.7303 5.1007 15.7079 3.87387C14.6856 2.64704 13.2399 2.03363 11.3704 2.03363H6.20021C6.20021 2.03363 6.15639 1.93139 6.06876 1.72692C6.01034 1.49323 5.93731 1.27416 5.84968 1.06969C5.79126 0.836007 5.76205 0.719164 5.76205 0.719164ZM6.33165 0.719164V31.3895H3.48365V0.719164H6.33165ZM3.61509 28.1912V31.3895H0.109863V30.9514C0.109863 30.9514 0.197494 30.9514 0.372755 30.9514C0.577227 30.9514 0.679466 30.9514 0.679466 30.9514C1.43893 30.9514 2.08156 30.6885 2.60734 30.1627C3.16234 29.6079 3.45444 28.9507 3.48365 28.1912H3.61509ZM3.61509 3.91769H3.48365C3.48365 3.15822 3.20615 2.5156 2.65116 1.98981C2.09616 1.43482 1.43893 1.15732 0.679466 1.15732C0.679466 1.15732 0.591835 1.15732 0.416574 1.15732C0.241312 1.15732 0.153678 1.15732 0.153678 1.15732L0.109863 0.719164H3.61509V3.91769ZM6.20021 28.1912H6.33165C6.36086 28.9507 6.63836 29.6079 7.16414 30.1627C7.71914 30.6885 8.37637 30.9514 9.13583 30.9514C9.13583 30.9514 9.22346 30.9514 9.39873 30.9514C9.6032 30.9514 9.70544 30.9514 9.70544 30.9514V31.3895H6.20021V28.1912ZM35.9017 0.260961L48.8065 31.1279H45.1007L35.0297 4.40271L35.9017 0.260961ZM26.5282 28.2069C26.3246 28.7883 26.2957 29.2824 26.4411 29.6892C26.5862 30.0962 26.8188 30.416 27.1386 30.6483C27.4874 30.8519 27.8362 30.9535 28.185 30.9535H28.5773V31.3895H19.8143V30.9535C19.8143 30.9535 19.8868 30.9535 20.0322 30.9535C20.1484 30.9535 20.2066 30.9535 20.2066 30.9535C20.875 30.9535 21.5581 30.7502 22.2557 30.3432C22.9823 29.9072 23.578 29.1952 24.0432 28.2069H26.5282ZM35.9017 0.260961L36.2941 3.31277L25.3511 31.2587H22.7353L33.8962 4.75149C33.8962 4.75149 33.9688 4.5771 34.1142 4.22832C34.2886 3.85055 34.4774 3.39997 34.681 2.8768C34.9133 2.35363 35.1023 1.84507 35.2477 1.3509C35.4221 0.856937 35.5093 0.493553 35.5093 0.260961H35.9017ZM42.0489 19.4874V20.7953H28.4029V19.4874H42.0489ZM44.0108 28.2069H47.5858C48.0218 29.1952 48.6029 29.9072 49.3297 30.3432C50.0562 30.7502 50.7538 30.9535 51.4224 30.9535C51.4224 30.9535 51.4804 30.9535 51.5968 30.9535C51.7129 30.9535 51.7711 30.9535 51.7711 30.9535V31.3895H41.9617V30.9535H42.3541C42.9063 30.9535 43.4004 30.7212 43.8364 30.256C44.2724 29.762 44.3304 29.0788 44.0108 28.2069ZM59.5278 0.871322H65.675C66.9829 0.871322 68.1601 1.06031 69.2064 1.43808C70.2817 1.81607 71.1827 2.36824 71.9094 3.09479C72.636 3.79235 73.1881 4.64991 73.5661 5.66704C73.9729 6.65539 74.1765 7.78892 74.1765 9.06763C74.1765 10.4627 73.8421 11.7999 73.1738 13.0786C72.5342 14.3575 71.6479 15.4039 70.5143 16.2176C69.4098 17.0024 68.1601 17.3947 66.7649 17.3947C67.2589 17.5983 67.7967 18.0197 68.3781 18.6591C68.9592 19.2694 69.468 19.8654 69.904 20.4466C69.904 20.4466 70.0927 20.7374 70.4707 21.3185C70.8775 21.8709 71.3717 22.5538 71.953 23.3676C72.5634 24.1815 73.1738 24.9807 73.7841 25.7654C74.3945 26.5502 74.9177 27.1752 75.3536 27.6401C75.9348 28.2797 76.5162 28.8465 77.0975 29.3404C77.6787 29.8346 78.3037 30.227 78.9722 30.5176C79.6698 30.8083 80.4399 30.9535 81.2829 30.9535V31.3895H78.885C77.5479 31.3895 76.3854 31.1861 75.3972 30.7791C74.4381 30.3724 73.6241 29.8782 72.9558 29.2968C72.2872 28.6865 71.7204 28.1053 71.2555 27.5529C71.1683 27.4367 70.9211 27.1026 70.5143 26.5502C70.1363 25.998 69.6714 25.3441 69.1192 24.5883C68.596 23.8036 68.0729 23.0334 67.5497 22.2776C67.0265 21.5221 66.576 20.8825 66.1982 20.3594C65.8202 19.8072 65.6022 19.4874 65.5442 19.4002C64.9918 18.6737 64.3815 18.0051 63.7131 17.3947C63.0446 16.7844 62.318 16.4792 61.5333 16.4792V16.0432C61.5333 16.0432 61.7512 16.0578 62.1872 16.0868C62.6522 16.0868 63.2043 16.0724 63.8439 16.0432C64.5995 16.0142 65.4278 15.898 66.329 15.6944C67.2299 15.4911 68.0729 15.0697 68.8576 14.4301C69.6424 13.7908 70.2381 12.817 70.6451 11.5091C70.7323 11.1895 70.8049 10.7971 70.8631 10.332C70.9211 9.838 70.9357 9.35843 70.9067 8.89324C70.8775 6.91697 70.3689 5.34747 69.3808 4.18473C68.4216 2.99321 67.1281 2.35363 65.5006 2.26644C64.6867 2.20845 63.8439 2.19385 62.972 2.22284C62.129 2.22284 61.4169 2.22284 60.8357 2.22284C60.2543 2.22284 59.9638 2.22284 59.9638 2.22284C59.9638 2.19385 59.9202 2.07766 59.833 1.87406C59.7748 1.64169 59.7022 1.4237 59.615 1.2201C59.5568 0.987727 59.5278 0.871322 59.5278 0.871322ZM60.0945 0.871322V31.3895H57.2607V0.871322H60.0945ZM57.3915 28.2069V31.3895H53.9037V30.9535C53.9037 30.9535 53.9909 30.9535 54.1653 30.9535C54.3687 30.9535 54.4705 30.9535 54.4705 30.9535C55.226 30.9535 55.8656 30.6919 56.3888 30.1688C56.9409 29.6166 57.2315 28.9627 57.2607 28.2069H57.3915ZM57.3915 4.05393H57.2607C57.2315 3.29839 56.9409 2.65881 56.3888 2.13564C55.8656 1.58348 55.226 1.3073 54.4705 1.3073C54.4705 1.3073 54.3687 1.3073 54.1653 1.3073C53.9909 1.3073 53.9037 1.3073 53.9037 1.3073V0.871322H57.3915V4.05393ZM59.9638 28.2069H60.0945C60.0945 28.9627 60.3705 29.6166 60.9229 30.1688C61.4751 30.6919 62.129 30.9535 62.8848 30.9535C62.8848 30.9535 62.972 30.9535 63.1464 30.9535C63.3208 30.9535 63.4079 30.9535 63.4079 30.9535V31.3895H59.9638V28.2069ZM93.6336 1.00212V31.3895H90.7998V1.00212H93.6336ZM104.838 0.827723V2.13564H79.5953V0.827723H104.838ZM104.838 2.00486V5.53624L104.402 5.49264V4.75149C104.402 4.02494 104.141 3.41457 103.617 2.9204C103.123 2.42644 102.527 2.16485 101.83 2.13564V2.00486H104.838ZM104.838 0.0429688V1.3073L99.5193 0.827723C100.159 0.827723 100.827 0.784123 101.525 0.696928C102.251 0.609733 102.92 0.508153 103.53 0.391748C104.141 0.275561 104.577 0.159374 104.838 0.0429688ZM90.9306 28.2069V31.3895H87.4428V30.9535C87.4428 30.9535 87.53 30.9535 87.7044 30.9535C87.9078 30.9535 88.0096 30.9535 88.0096 30.9535C88.7651 30.9535 89.4047 30.6919 89.9279 30.1688C90.48 29.6166 90.7706 28.9627 90.7998 28.2069H90.9306ZM93.5028 28.2069H93.6336C93.6626 28.9627 93.9388 29.6166 94.462 30.1688C95.0141 30.6919 95.6681 30.9535 96.4239 30.9535C96.4239 30.9535 96.5111 30.9535 96.6855 30.9535C96.8888 30.9535 96.9906 30.9535 96.9906 30.9535V31.3895H93.5028V28.2069ZM82.6035 2.00486V2.13564C81.8767 2.16485 81.2664 2.42644 80.7724 2.9204C80.2782 3.41457 80.0312 4.02494 80.0312 4.75149V5.49264L79.5953 5.53624V2.00486H82.6035ZM79.5953 0.0429688C79.8859 0.159374 80.3218 0.275561 80.9032 0.391748C81.5136 0.508153 82.1819 0.609733 82.9087 0.696928C83.6352 0.784123 84.3038 0.827723 84.9141 0.827723L79.5953 1.3073V0.0429688ZM111.482 0.217362L136.812 27.2477L137.204 31.9999L111.874 5.01308L111.482 0.217362ZM111.569 28.2941V31.3895H107.95V30.9535C107.95 30.9535 108.081 30.9535 108.343 30.9535C108.604 30.9535 108.75 30.9535 108.779 30.9535C109.505 30.9535 110.13 30.6919 110.653 30.1688C111.176 29.6456 111.438 29.0209 111.438 28.2941H111.569ZM113.443 28.2941C113.443 29.0209 113.705 29.6456 114.228 30.1688C114.751 30.6919 115.376 30.9535 116.103 30.9535C116.132 30.9535 116.277 30.9535 116.539 30.9535C116.8 30.9535 116.931 30.9535 116.931 30.9535V31.3895H113.313V28.2941H113.443ZM111.482 0.217362L113.4 2.65881L113.443 31.3895H111.438V5.66704C111.438 4.18473 111.365 2.90601 111.22 1.83046C111.104 0.755132 111.046 0.217362 111.046 0.217362H111.482ZM137.204 0.871322V26.4194C137.204 27.3496 137.233 28.2505 137.291 29.1224C137.349 29.9654 137.408 30.663 137.466 31.2151C137.553 31.7383 137.596 31.9999 137.596 31.9999H137.204L135.242 29.6892V0.871322H137.204ZM140.692 0.871322V1.3073C140.692 1.3073 140.561 1.3073 140.299 1.3073C140.038 1.3073 139.907 1.3073 139.907 1.3073C139.181 1.3073 138.556 1.56888 138.032 2.09205C137.509 2.58623 137.233 3.21119 137.204 3.96673H137.073V0.871322H140.692ZM131.711 0.871322H135.329V3.96673H135.242C135.213 3.21119 134.937 2.58623 134.414 2.09205C133.92 1.56888 133.295 1.3073 132.539 1.3073C132.539 1.3073 132.408 1.3073 132.147 1.3073C131.885 1.3073 131.74 1.3073 131.711 1.3073V0.871322ZM151.342 0.871322V31.3895H148.508V0.871322H151.342ZM163.113 30.038V31.3895H151.211V30.038H163.113ZM161.238 15.6944V17.0024H151.211V15.6944H161.238ZM163.113 0.871322V2.22284H151.211V0.871322H163.113ZM165.772 24.3267L163.244 31.3895H156.007L157.576 30.038C159.117 30.038 160.366 29.8056 161.325 29.3404C162.314 28.8465 163.113 28.1633 163.723 27.2913C164.334 26.4194 164.871 25.4313 165.336 24.3267H165.772ZM161.238 16.9152V19.7926H160.802V19.1386C160.802 18.5575 160.599 18.0633 160.192 17.6563C159.785 17.2204 159.291 17.0024 158.71 17.0024V16.9152H161.238ZM161.238 12.9042V15.7816H158.71V15.6944C159.291 15.6654 159.785 15.4475 160.192 15.0405C160.599 14.6045 160.802 14.0959 160.802 13.5146V12.9042H161.238ZM163.113 2.09205V5.57984H162.677V4.79509C162.677 4.09753 162.43 3.50177 161.936 3.00759C161.442 2.48442 160.831 2.20845 160.105 2.17924V2.09205H163.113ZM163.113 0.0865672V1.3509L157.794 0.871322C158.434 0.871322 159.102 0.827721 159.8 0.740527C160.526 0.653332 161.195 0.551751 161.805 0.435346C162.415 0.319159 162.851 0.202972 163.113 0.0865672ZM148.639 28.2069V31.3895H145.151V30.9535C145.151 30.9535 145.238 30.9535 145.412 30.9535C145.616 30.9535 145.718 30.9535 145.718 30.9535C146.473 30.9535 147.113 30.6919 147.636 30.1688C148.188 29.6166 148.479 28.9627 148.508 28.2069H148.639ZM148.639 4.05393H148.508C148.508 3.29839 148.232 2.65881 147.679 2.13564C147.127 1.58348 146.473 1.3073 145.718 1.3073C145.718 1.3073 145.63 1.3073 145.456 1.3073C145.282 1.3073 145.194 1.3073 145.194 1.3073L145.151 0.871322H148.639V4.05393ZM176.14 0.871322H182.287C183.595 0.871322 184.772 1.06031 185.819 1.43808C186.896 1.81607 187.796 2.36824 188.522 3.09479C189.25 3.79235 189.801 4.64991 190.178 5.66704C190.586 6.65539 190.789 7.78892 190.789 9.06763C190.789 10.4627 190.455 11.7999 189.786 13.0786C189.147 14.3575 188.26 15.4039 187.127 16.2176C186.024 17.0024 184.772 17.3947 183.377 17.3947C183.872 17.5983 184.411 18.0197 184.99 18.6591C185.572 19.2694 186.08 19.8654 186.516 20.4466C186.516 20.4466 186.706 20.7374 187.083 21.3185C187.491 21.8709 187.986 22.5538 188.565 23.3676C189.176 24.1815 189.786 24.9807 190.396 25.7654C191.007 26.5502 191.53 27.1752 191.966 27.6401C192.548 28.2797 193.13 28.8465 193.71 29.3404C194.292 29.8346 194.918 30.227 195.585 30.5176C196.282 30.8083 197.054 30.9535 197.895 30.9535V31.3895H195.497C194.161 31.3895 192.999 31.1861 192.01 30.7791C191.05 30.3724 190.237 29.8782 189.568 29.2968C188.901 28.6865 188.334 28.1053 187.868 27.5529C187.781 27.4367 187.534 27.1026 187.127 26.5502C186.75 25.998 186.285 25.3441 185.732 24.5883C185.208 23.8036 184.685 23.0334 184.162 22.2776C183.639 21.5221 183.19 20.8825 182.811 20.3594C182.433 19.8072 182.215 19.4874 182.157 19.4002C181.605 18.6737 180.995 18.0051 180.325 17.3947C179.658 16.7844 178.93 16.4792 178.146 16.4792V16.0432C178.146 16.0432 178.364 16.0578 178.8 16.0868C179.266 16.0868 179.818 16.0724 180.456 16.0432C181.213 16.0142 182.041 15.898 182.941 15.6944C183.844 15.4911 184.685 15.0697 185.47 14.4301C186.255 13.7908 186.852 12.817 187.257 11.5091C187.345 11.1895 187.419 10.7971 187.475 10.332C187.534 9.838 187.55 9.35843 187.519 8.89324C187.491 6.91697 186.983 5.34747 185.993 4.18473C185.034 2.99321 183.741 2.35363 182.113 2.26644C181.3 2.20845 180.456 2.19385 179.584 2.22284C178.743 2.22284 178.03 2.22284 177.448 2.22284C176.868 2.22284 176.576 2.22284 176.576 2.22284C176.576 2.19385 176.533 2.07766 176.445 1.87406C176.389 1.64169 176.315 1.4237 176.227 1.2201C176.171 0.987727 176.14 0.871322 176.14 0.871322ZM176.707 0.871322V31.3895H173.873V0.871322H176.707ZM174.004 28.2069V31.3895H170.516V30.9535C170.516 30.9535 170.603 30.9535 170.778 30.9535C170.983 30.9535 171.083 30.9535 171.083 30.9535C171.839 30.9535 172.478 30.6919 173.001 30.1688C173.555 29.6166 173.845 28.9627 173.873 28.2069H174.004ZM174.004 4.05393H173.873C173.845 3.29839 173.555 2.65881 173.001 2.13564C172.478 1.58348 171.839 1.3073 171.083 1.3073C171.083 1.3073 170.983 1.3073 170.778 1.3073C170.603 1.3073 170.516 1.3073 170.516 1.3073V0.871322H174.004V4.05393ZM176.576 28.2069H176.707C176.707 28.9627 176.984 29.6166 177.535 30.1688C178.089 30.6919 178.743 30.9535 179.497 30.9535C179.497 30.9535 179.584 30.9535 179.759 30.9535C179.933 30.9535 180.02 30.9535 180.02 30.9535V31.3895H176.576V28.2069ZM207.498 0.260961C207.962 0.260961 208.457 0.290165 208.98 0.348149C209.531 0.406352 210.055 0.493553 210.549 0.60974C211.073 0.696934 211.537 0.798733 211.945 0.91492C212.38 1.00212 212.714 1.10391 212.947 1.2201V6.05942H212.555C212.555 4.6643 212.075 3.57436 211.116 2.78961C210.157 1.97586 208.993 1.56888 207.628 1.56888C206.028 1.56888 204.736 2.07766 203.748 3.09479C202.759 4.08314 202.266 5.24567 202.266 6.58258C202.266 7.13496 202.381 7.78892 202.615 8.54447C202.876 9.27123 203.341 9.95419 204.01 10.5935L212.598 18.5283C213.47 19.3422 214.05 20.2142 214.342 21.1441C214.632 22.0743 214.778 22.9752 214.778 23.8472C214.778 26.2596 214.037 28.2215 212.555 29.7328C211.101 31.2443 209.124 31.9999 206.626 31.9999C205.928 31.9999 205.1 31.9273 204.141 31.7819C203.21 31.6367 202.294 31.3895 201.394 31.0407C200.522 30.663 199.794 30.1834 199.214 29.602C199.127 29.137 199.083 28.5557 199.083 27.8581C199.083 27.1606 199.14 26.434 199.258 25.6782C199.373 24.8935 199.532 24.1815 199.737 23.542H200.13C199.984 25.0243 200.173 26.3178 200.696 27.4221C201.22 28.5267 201.974 29.3696 202.963 29.9508C203.979 30.5032 205.128 30.7502 206.408 30.6919C208.005 30.6048 209.372 30.0526 210.506 29.0352C211.668 27.9889 212.25 26.5938 212.25 24.8499C212.25 24.0072 212.104 23.2514 211.814 22.5828C211.522 21.8853 211.101 21.2895 210.549 20.7953L202.179 13.035C201.307 12.2212 200.696 11.3347 200.348 10.3756C199.999 9.38742 199.824 8.47187 199.824 7.62892C199.824 6.40819 200.114 5.23106 200.696 4.09753C201.276 2.964 202.135 2.04845 203.269 1.3509C204.43 0.624345 205.841 0.260961 207.498 0.260961ZM212.947 0.696928V1.61248H209.634V0.696928H212.947Z" fill="#24292E"/>
</svg>
