<svg xmlns="http://www.w3.org/2000/svg" id="_Слой_1" viewBox="0 0 1112 698"><g id="bgd" fill="none"><path d="M1 1h1110v696H1V1Z"/><path stroke="#91aab6" stroke-miterlimit="10" d="m778.97 30-.33.06-46.29 8.86-.61.11v3.05l-.44.08-.6.11v2.71l-.97.18-.6.12v28.08l-3.38.65-.61.11v234.12l-9.6 1.8V206.35l-.3-.22-4.05-3.07V135.9l-.3-.22-35.68-26.99-.27-.2-.32.06-39.5 7.52-.61.11v108.66l-11.69 2.23-.6.11v114.98l-9.44-7.13-.26-.2-.32.06-4.15.79V221.84l-.3-.22-10.39-7.86v-2.99l-.3-.23-28.09-21.24-.26-.2-.32.06-47.58 9.05-.61.12v173.68l-15.36 2.92-1.58-1.19-.26-.2-.32.06v-76.8l-.29-.23-42.27-31.97-.27-.2-.32.06-42.61 8.11-.61.11v26.34l-.13-.1v-57.56l-.29-.22-28.55-21.59-.26-.2-.33.06-17.26 3.28-4.36-3.29-.26-.2-.32.06-22 4.18-.6.12v73.21l-6.74 1.27-.61.11v22.72l-1.83.35-.6.12v51.86l.29.22 3.16 2.39v.07l-5.32 1.01-.61.11v72.39l.3.22 31.8 24.05-13.94 2.65-.61.12v1.34l-4.6.88-10.34-7.83-.27-.2-.32.06-17.37 3.31v-82.46l-.3-.22-2.2-1.67V280.05l-.3-.22-36.6-27.68-.27-.2-.32.06-40.29 7.67-.61.11v107.23l-10.71 2.04-.61.12v117.41l.3.22 14.77 11.17v.76l-23.57 4.47-4.3-3.25v-25.73l-.29-.22-5.33-4.03V348.4l-.29-.22-41.94-31.72-.26-.2-.33.06-43.79 8.34-.61.12v139.7l-2.15.4v-36l-.3-.23-40.75-30.82-.26-.2-.32.06-42.1 7.93-.6.11v150.94l.29.22 4.68 3.54-.03 11.6v.37l.3.23 33.01 24.96.26.2.33-.06 4.51-.86v14.2l.29.22.27.21-.05 7.99v.37l.29.23 38.61 29.2.26.2.33-.07 4.06-.77 25.95 19.63.26.19.32-.06 31.83-6.05.61-.12v-13.57l14.9-2.83.61-.12v-45.35l28.15 21.29.26.2.33-.06 49.32-9.41.61-.12V594.7l183.77-34.96 11.29 8.54.27.2.32-.06 40.96-7.8.61-.12v-8.03h.73l2.27.04-1.81-1.37-1.91-1.44 14.72-2.8.6-.11v-32.42l-.29-.22-8.63-6.63-.26-.2-.33.06-7.71 1.47-4.97-3.77-.27-.19-.32.06-17.03 3.24.02-1.29 1.26-.23.61-.12v-41.52l4.61 3.49.27.2.33-.07 7.47-1.53 2.9 2.18v2.02l.29.22 7.93 5.97.25.2.33-.06 3.2-.57 2.8 2.11v4.9l.3.23 3.5 2.65v3.53l-.01.38.3.22 47.35 35.8.26.2.33-.06 7.34-1.34v1.14l.3.22 3.84 2.85v6.13l.3.23 16.99 12.85.27.2.32-.06 165.96-31.58.61-.11v-8.55l.64-.13.61-.11v-54.57l-.3-.22-2.52-1.91v-15.25l9.42-1.79 2.99 2.26-.13 60.72v.37l.3.22 17.54 13.27.27.2.32-.06 40.47-7.7.61-.11V494.2l5.66-1.08 10.3 7.8.27.2.32-.06 137.81-26.22v8.91l-.31.06v3.4l-14.98 2.86-3.34-2.53-.26-.2-.33.06-21.96 4.18-.6.12v33.36l.29.23 1.69 1.28v9.79l.3.23 14.95 11.31.26.2.33-.07 117.56-22.42.6-.12v-70.55l-.29-.22-2.68-2.02v-1.65l2.37-.45.6-.12v-93.53l-.29-.22-7.08-5.35v-99.14l-.29-.22-.08-.06v-6.89l-.29-.22-29.05-21.97-.26-.2-.33.06-16.94 3.23-3.72-2.82-.26-.2-.33.06-22.21 4.23-.6.11v121.84l-7.18 1.37-.61.11v21.94l-2 .38-.6.11v53.53l.29.23 2.41 1.81-4.11.8-.6.11v.61l-.06 5.29-53.96-40.81-.27-.2-.32.06-15.29 2.91v-6.22l-.3-.22-18.36-13.89-.26-.2-.32.06-21.91 4.17-6.54-4.95-.27-.2-.32.06-28.25 5.37-.6.12v6.45l-10.53 2v-12.91l-.3-.22-16.37-12.38-.26-.2-.32.06-6.21 1.18-6.71-5.07-.26-.2-.32.06-.66.13v-5.05l-.29-.23-11.61-8.77-.26-.2-.33.06-7.6 1.45-3.7-2.8v-4.36l-.3-.22-5.52-4.18 43.18-8.22.61-.11V50.85l-.3-.23-25.86-19.56-.27-.2-.32.07-4.58.87-2.11-1.6-.26-.2Z"/></g><g id="izofabrica"><path fill="#e5ebed" d="M190.94 554.87v4.73l33.89-6.46 5.29 3.87 16.72-2.9 9.05-1.81v-44.68l-18.11-13.31v5.3l16.97 12.72v30.47l-63.81 12.07Zm10.19 22.68-10.19-7.42v29.11l29.39 22.25v-10.03l-19.2-14.52v-19.39Zm90.9-98.22v9.69l3.09-.57 17 12.87-.39 40.44 2.34-.57v-45.71l-22.05-16.15h.01Zm73.35 10.87v38.17l1.56 1.18v-38.17l-1.56-1.18Zm43.76-8v38.17l1.25.98v-38.17l-1.25-.98Zm73.34 32.99v.53l7.45 9.13v-4.15l-7.45-5.52Z"/><path fill="#e5ebed" d="M383.77 435.45v30.29l8.94-1.35 4.64 3.45 10.14-2.1 1.22.95 15.44-2.91 15.87 11.83v40l1.62 1.39v-46.55l-24.28-18.03v8.3l-9.27-6.94-2.04.49-14.47-11.12 2.04-.48-9.85-7.23Zm82.25 132.39-11.81-8.76.41-7.34 11.4 8.62v7.48Z"/><path fill="none" stroke="#afc3ca" stroke-miterlimit="10" stroke-width=".46" d="m191.16 501.64 15.31-2.91 19.49 14.74v34.71l-34.8 6.62m0-34.74 34.8-6.6m30.05 38.59v-44.68m-18.03-13.28 18.04 13.28 27.67-5.24"/><path fill="none" stroke="#afc3ca" stroke-miterlimit="10" stroke-width=".46" d="M283.68 546.67v-44.55L266 488.75l-28.03 5.33v5.26m5.99 52.08-16.91 3.22m20-.88-3.09-2.34v-6.67"/><path fill="none" stroke="#afc3ca" stroke-miterlimit="10" stroke-width=".46" d="m312.06 541.39.23-40.24-17.17-12.79-23.68 4.5"/><path fill="none" stroke="#afc3ca" stroke-miterlimit="10" stroke-width=".46" d="M292.08 488.94v-9.96l39.76-7.57 21.78 16.48.2 45.53m-70.14-26.87 28.61-5.4"/><path fill="none" stroke="#afc3ca" stroke-miterlimit="10" stroke-width=".46" d="m292.08 478.98 22.22 16.36 39.32-7.45m-39.31 7.45v45.62m-88.35-23.32 28.87-5.47M213.45 504l24.44-4.65 16.94 12.81v30.52l-28.87 5.49m255.85-85.37-40.04 7.62-24.26-18.26"/><path fill="none" stroke="#afc3ca" stroke-miterlimit="10" stroke-width=".46" d="m483.65 460.13-4.24.81 2.45 1.85v46.29l-40.09 7.61-1.65-1.27-13.44 2.49m-17.54-41.38-27.97 5.32-16.28-12.32m18.1 18.8-16.05 3.05-1.56-1.18-11.75 2.24"/><path fill="none" stroke="#afc3ca" stroke-miterlimit="10" stroke-width=".46" d="m353.63 530.61 11.75-2.23 1.56 1.18 16.05-3.05v-38.17L364.03 474l-16.05 3.05v1.34"/><path fill="none" stroke="#afc3ca" stroke-miterlimit="10" stroke-width=".46" d="M364.89 474.68v-5.15l27.97-5.32 16.28 12.32v43.53l-26.15 4.97m-1.82-43.18v5.1m-33.19-9.91 1.42 1.07-6.95 1.32m24.49 11.95v38.17m-1.56-1.18V490.2"/><path fill="none" stroke="#afc3ca" stroke-miterlimit="10" stroke-width=".46" d="m397.35 467.62 10.33-1.96 1.17.88 15.42-2.93 15.85 12.01v39.94"/><path fill="none" stroke="#afc3ca" stroke-miterlimit="10" stroke-width=".46" d="m426.68 480.03-16.3 3.1-1.25-.95"/><path fill="none" stroke="#afc3ca" stroke-miterlimit="10" stroke-width=".46" d="m409.14 520.06 1.25.94 16.3-3.1v-37.88l-1.98-1.49 15.41-2.93m-29.73 7.53v37.88m-26.37-85.73 9.6 7.26-2.1.4v21.51"/><path fill="none" stroke="#afc3ca" stroke-miterlimit="10" stroke-width=".46" d="m391.63 443.02 14.53 10.99 2.1-.4 9.25 7v-8.45l44.5-8.47 21.71 16.42v45.81l-1.86.35m-75.71-52.26v11.9m2.11-12.3v12.48"/><path fill="none" stroke="#afc3ca" stroke-miterlimit="10" stroke-width=".46" d="m450.48 445.89-13.85-10.47-2.51.48-10.71-8.11-39.38 7.49v30.63M243.18 574.34l248.6-47.3-10.58-12.87-245.82 46.77m219.15-2-184.7 35.14m190.52-48.57L257.54 584.1m264.11-69.37-31.72 6.03-13.97-10.57 23.79-4.53 5.24 3.96 8.03-1.53 8.63 6.62v.02Zm0 0v31.44l-16.36 3.11m-15.36-28.51v4.02m-238.02 55.05 17.92 13.55v18.26l-49.33 9.41-29.39-22.23"/><path fill="none" stroke="#afc3ca" stroke-miterlimit="10" stroke-width=".46" d="m191.16 569.81 10.01 7.57 44.7-8.51-20.97-15.86-33.74 6.42m50.91 10.16v8.59m-22.63 8.23 21.86-8.36 10.6 1.79m17.93 13.55-10.6-1.79-21.86 8.36-17.92-13.55"/><path fill="none" stroke="#afc3ca" stroke-miterlimit="10" stroke-width=".46" d="M238.31 599.6v1.01l-17.81 10.7-19.34-14.62m19.81-9.12-19.81 9.11m0-19.31v29.07m40.14-28.39 17.92 13.55m10.61 10.48-9.6 1.83v9.58m-39.73 0 39.73-7.66m-32.93 13.89v-7.53m6.81 6.19v-7.48m6.8 6.13v-7.47m6.81 6.12v-7.48m6.8 6.29v-7.58m-34.02 6.58-19.34-14.62m16.52 20.07v-7.54m-3.05 5.28v-7.54m-3.06 5.15v-7.54m-3.06 5.29v-7.54m-3.06 5.21v-7.54m-3.06 5.24v-7.54m273.57-89.67-245.82 46.77m235.28-18.67 17.32 13.1m-20.58-11.25 3.44 2.6-13.31 6.99 13.8 10.44 16.66-8.77 25.79.33-13.73-10.38-21.62-.34-3.18-2.41-4.58-.3-3.26 1.85h-.01Zm0 0v4.25"/><path fill="none" stroke="#afc3ca" stroke-miterlimit="10" stroke-width=".46" d="m454.53 558.94 11.56 8.74 40.96-7.8v-8.17m-50.54 1.3v7.43m7.59-1.8v7.54"/><path fill="none" stroke="#afc3ca" stroke-miterlimit="10" stroke-width=".46" d="M505.06 560.26v-6.48l-36.99 7.04v6.48m-13.54-8.36v-7.54m-166.96 39.31v-5.66c0-2.24-2.04-3.93-4.25-3.51a5.228 5.228 0 0 0-4.25 5.13v5.66l-3.79.72v-5.66c0-2.24-2.04-3.93-4.25-3.51a5.228 5.228 0 0 0-4.25 5.13v2.22m33.07-2.86v-5.66c0-2.24-2.04-3.93-4.25-3.51a5.228 5.228 0 0 0-4.25 5.13v5.66m20.79-3.96v-5.66c0-2.24-2.04-3.93-4.25-3.51a5.228 5.228 0 0 0-4.25 5.13v5.66m20.78-3.95v-5.66c0-2.24-2.04-3.93-4.25-3.51a5.228 5.228 0 0 0-4.25 5.13v5.66m20.78-3.96v-5.66c0-2.24-2.04-3.93-4.25-3.51a5.228 5.228 0 0 0-4.25 5.13v5.66m20.79-3.95v-5.66c0-2.24-2.04-3.93-4.25-3.51a5.228 5.228 0 0 0-4.25 5.13v5.66m20.78-3.96v-5.66c0-2.24-2.04-3.93-4.25-3.51a5.228 5.228 0 0 0-4.25 5.13v5.66m20.79-3.96v-5.66c0-2.24-2.04-3.93-4.25-3.51a5.228 5.228 0 0 0-4.25 5.13v5.66m20.78-3.95v-5.66c0-2.24-2.04-3.93-4.25-3.52a5.228 5.228 0 0 0-4.25 5.13v5.66m20.79-3.95v-5.66c0-2.24-2.04-3.93-4.25-3.51a5.228 5.228 0 0 0-4.25 5.13v5.66m20.78-3.95v-5.66c0-2.24-2.04-3.93-4.25-3.51a5.228 5.228 0 0 0-4.25 5.13v5.66m20.79-3.96v-5.66c0-2.24-2.04-3.93-4.25-3.51a5.228 5.228 0 0 0-4.25 5.13v5.66m20.78-3.96v-5.66c0-2.24-2.04-3.93-4.25-3.52a5.228 5.228 0 0 0-4.25 5.13v5.66m20.78-3.94v-5.66c0-2.24-2.04-3.93-4.25-3.51a5.228 5.228 0 0 0-4.25 5.13v5.66m27.32 5.72v-7.51m-24.31-89.75v46.27M220.5 611.31v9.76"/></g><g id="dom"><path fill="#e5ebed" d="M649.49 498.95v28.36l1.76 1.33v-28.36l-1.76-1.33Zm43.71-8.39v28.36l1.76 1.33v-28.36l-1.76-1.33Zm127.7-40.94v43.74l2.38 1.77v-43.74l-2.38-1.77Zm126.24-10.11v31.13l1.76 1.33v-31.13l-1.76-1.33Zm-42.09 8v31.13l1.76 1.33v-31.13l-1.76-1.33Zm-17.12-50.08v30.25l1.76 1.33v-30.25l-1.76-1.33Z"/><path fill="#e5ebed" d="M572.13 362.89v-19.52l30.56 23.38v7.04l15.6 11.61.19-6.37 11.88 8.83v5.91l-4.82 1 8.14 6.21 3.58-.69 8.38 6.15v-9.65l16.67 12.65v7.46l15.93 11.95v-6.2l12.32 9.02.13 5.07-2.91.66 8.29 6.32 2.63-.73 25.16 19.11v53.65l-1.89-1.51v-29.16l-18.99-14.44-21.63 4.41-5.14-3.97-19.4 3.61-19.63-14.96-2.9.46v-34.36l-17.2-13.41-14.39 2.86v-41.51l-17.3-13.27-13.26 2.37v.02Zm-43.73 8.65v-4.94l17.17 12.82v4.95l-17.17-12.82Zm59.68 51.02v-4.31l17.41 12.83v4.73l-17.41-13.25Zm78.09 66.5-16.75-12.7-.48 7.12 17.23 13.19v-7.61Zm-10.86-117.17v-22.11l16.99 12.74-.08 23.88-.71-.53-.4-6.01-11.84-8.84-3.96.87Zm59.54 18.56v-4.92l17.09 12.44v5.33l-17.09-12.85Zm2.95 17.85-1.73-1.4-13.32 2.63 8.47 6.67 6.01-1.14.57.5v-7.26Z"/><path fill="#e5ebed" d="m682.12 317.24 10.41 8.07 4-.86 49.81 37.73v-7.5l11.81 8.83v5.56l-2.73.74 8.48 6.32 2.87-.49 6 4.44v-7.39l16.48 12.46v22.38l7.28 5.61-3.13.71 11.68 8.78v-9.68l12.46 9.4v5.75l-3.2.71 4.82 3.8-10.94 2.18-4.74-3.47-29.34 5.63 18.03 13.67-.42 60.87-17.69-13.38.09-61.16-7.23-5.58-2.87.54-3.63-2.6v-36.52l-16.86-12.74-13.42 2.58v-25.62l-16.37-12.39-24.08 4.6-6.09-4.71-1.66.28.22-27.58-.04.03Zm150.51 114.13v-7.35L852 438.26v52.24l-2.7-1.97v12.01l-10.3-8.4v-6.24l10.76-2.16V444.1l-17.13-12.73Zm8.52-42.52v-6.38l18.4 13.61v6.51l-18.4-13.73Zm59.35 42.23v-6.46l18.36 13.77v6.51l-18.36-13.82ZM477 391.2l-12.43-9.42v59.95l-.15 3.46 2.16 2.16 17.13 12.76v3.74l5.73 4.1 8.09-1.37 3.33 2.68v1.91l7.82 5.96 3.54-.66 3.33 2.55v4.91l3.67 2.76v3.98l47.52 35.63 8.22-1.49v1.49l4.01 2.99v6.59l17.11 12.7v-9.98l1.97.82.41-37.14-2.38-1.9-4.62 1.02-16.5-12.56 3.93-.88v-7.67l-6.24-4.89-3.26.54-8.56-6.38 2.51-.88v-4.75l-12.3-9.23v3.8l-1.93.57-13.17-9.53v45.8l-4.05 1.09v-53.81l-16.09-12.57 3.33-.72-7.29-5.22-3.42.72-7.74-5.94 4.62-.9v-5.36l-12.69-9.49v7.43l-15.62-11.96v-7.41h.01Zm488.31 115.63-18.99-14.27v32.23l1.97 1.47v9.82l14.95 11.26v-9.68l2.07 1.27v-32.1Z"/><path fill="none" stroke="#afc3ca" stroke-miterlimit="10" stroke-width=".46" d="m551.23 454.54 12.23 9.25 39.65-7.54"/><path fill="none" stroke="#afc3ca" stroke-miterlimit="10" stroke-width=".46" d="M603.1 461.16v-4.92l-12.22-9.25-39.65 7.54v50.19l-2.02.38-13.08-9.88m27.32-31.44v4.93"/><path fill="none" stroke="#afc3ca" stroke-miterlimit="10" stroke-width=".46" d="M613.54 469.36v-2.29l-8.3-6.28-44.48 8.46v45.36l8.75 6.62 3.14-.59 2.28 1.72"/><path fill="none" stroke="#afc3ca" stroke-miterlimit="10" stroke-width=".46" d="m618.03 472.75-39.01 7.34-6.36-4.81-3.14.59-8.75-6.62"/><path fill="none" stroke="#afc3ca" stroke-miterlimit="10" stroke-width=".46" d="m613.54 467.07-2.42.46 6.9 5.22v7.63m-45.37-5.1v45.36m-3.14-44.76v45.36m9.5-41.15v7.67m-4.08.82 16.6 12.56 4.57-.89 2.09 1.59 38.51-7.33"/><path fill="none" stroke="#afc3ca" stroke-miterlimit="10" stroke-width=".46" d="m636.7 494.51-18.68-14.13-43.09 8.2v37.8l16.6 12.56 4.57-.87 2.09 1.58 38.51-7.33v-37.81Zm-45.16 6.63v37.8m4.56-.88v-37.81m2.1 1.58v37.81m-23.41-14.83-8.03 1.53-47.38-35.83v-3.8"/><path fill="none" stroke="#afc3ca" stroke-miterlimit="10" stroke-width=".46" d="M579.11 529.53v6.14l16.99 12.85 165.96-31.58v-8.55M596.1 538.06v10.47m-29.33-29.38v7.18m-51.18-47.51-3.36-2.54-3.53.7-7.92-6.04v-52.36l45.27-8.62 7.92 5.99v2.34m-22.08 77.75v-53.97m17.32 16.9v46.14m2.02-46.52-2.02.38-13.08-9.89m-27.42-24.5-7.92-5.99"/><path fill="none" stroke="#afc3ca" stroke-miterlimit="10" stroke-width=".46" d="m574.79 433.94-42.9 8.16-16.29-12.32m68.74 18.46-8.62-6.64-39.59 7.47v46.16"/><path fill="none" stroke="#afc3ca" stroke-miterlimit="10" stroke-width=".46" d="M574.79 441.76v-7.82l-23.17-17.53 2.37-.45m-45.28 60.96v-52.34l3.53-.67 6.88 5.2-3.53.67v53.94l16.29 12.32 4.24-.81m-23.88-71.33v52.33m166.04-3.76v-50.09l38.97-7.41 12.26 9.27v4.97m-66.99-12.28 53.73-10.22 1.52 1.15 16.33-3.11m-31.7-3-39.88 7.59-16.86-12.75m25.71-16.6-40.97 7.79-12.02-9.09m24.53-12.8-40.2 7.65-17.27-13.18-23.75 4.52m-33.26 6.32 17.4 13.16m-17.4-13.16-23.78 4.52m69.2-1.65-28.02 5.33m-30.69 10.8 30.69-5.84v-4.96l-17.4-13.16"/><path fill="none" stroke="#afc3ca" stroke-miterlimit="10" stroke-width=".46" d="m602.71 373.54-28.86 5.49v-4.96l-17.4-13.16-28.02 5.33v4.96m43.71-8.31v-19.62l40.2-7.65 30.58 23.13v7.14l8.59 6.49m-25.95 46.45v-24.27l45.8-8.71 6.18 4.67m10.27 46.66 8.35 6.32 2.61-.5 25.21 19.07 39.33-7.48"/><path fill="none" stroke="#afc3ca" stroke-miterlimit="10" stroke-width=".46" d="M740.35 437.22v-2.13l-8.35-6.32-44.19 8.41v36.04m36.17-11.15v53.58m-74.77-39.55 16.93 12.8 27.06-5.15m-27.06 5.16v7.51m-41.41-10.97 21.5-4.09 20.87 15.78v28.57l-15.86 3.02-1.82-1.37v-28.57"/><path fill="none" stroke="#afc3ca" stroke-miterlimit="10" stroke-width=".46" d="m636.7 501.21 12.73-2.42 1.82 1.38 15.86-3.02m-15.86 3.01v28.57m60.9-40.16-17.14 3.26-1.82-1.38"/><path fill="none" stroke="#afc3ca" stroke-miterlimit="10" stroke-width=".46" d="m681.22 474.7 21.88-4.16 19.06 14.41v29.28l1.82 1.41 39.33-7.49v-53.58L738.1 435.5l2.25-.43"/><path fill="none" stroke="#afc3ca" stroke-miterlimit="10" stroke-width=".46" d="m722.17 484.96-11.82 2.25 1.81 1.37v28.57l-17.14 3.26-1.82-1.37v-35.27l-16.93-12.8-27.06 5.15v7.51m45.81 36.78v-28.57m1.14-48.34v28.37m2.61-28.87v28.37m-133.32-44.49 22.85-4.35 18.86 14.27v25.44m0-25.44-30.36 5.64m57.56-16.96-28.8 5.48-17.26-13.06"/><path fill="none" stroke="#afc3ca" stroke-miterlimit="10" stroke-width=".46" d="M588.3 422.53v-4.62l28.79-5.48 17.26 13.06v58.07m-28.79-52.6v4.62m72.72-13.26 12.31 9.31 38.91-7.4m-38.91 7.41v4.97m-12.31-7.76-15.76-11.92v-7.6m-5.38 65.26-19.77-14.95-3.02.57m-8.79-65.65 8.22 6.22 3.59-.68 8.28 6.32v-9.83l39.88-7.59 16.86 12.75v7.56l8.95 6.77m-73.97 43.56v-59.55m-3.59.68v24.28"/><path fill="none" stroke="#afc3ca" stroke-miterlimit="10" stroke-width=".46" d="M671.37 385.85v-5.86l-12.03-9.1-40.96 7.79v34.71m12.02-25.61v5.83m-87.22 11.25-38.12 7.25-12.32-9.32m-28.05-21.21 12.33 9.33 38.12-7.25"/><path fill="none" stroke="#afc3ca" stroke-miterlimit="10" stroke-width=".46" d="m500.79 468.93-36.1-27.3v-60.05l38.12-7.25 12.33 9.33v7.51"/><path fill="none" stroke="#afc3ca" stroke-miterlimit="10" stroke-width=".46" d="M543.18 410.48v-5.62l-12.32-9.32-38.12 7.25v7.51l-15.73-11.89v-7.51m.01 7.52 38.12-7.25m0-.01 7.79 5.9m-39.21 66.47 5.8 4.39 7.8-1.6m-7.79 1.6v-7.51m-13.04-9.86v4.11m126.22-88.26v48.76m-30.57-71.89 30.58 23.13 40.2-7.65m-40.04 14.76 15.5 11.72m202.51 59.13-29.08 5.74-24.92-18.85-2.83.54-3.57-2.7m31.32 82.2v-61.18"/><path fill="none" stroke="#afc3ca" stroke-miterlimit="10" stroke-width=".46" d="m849.9 444.02-13.43 2.56 2.41 1.83v43.93l-15.6 2.97-2.39-1.8v-49.13l-17.33-13.1-29.3 5.58v61.18l17.55 13.27 40.47-7.7v-9.9"/><path fill="none" stroke="#afc3ca" stroke-miterlimit="10" stroke-width=".46" d="m820.89 449.56 2.39 1.8 15.6-2.97m-15.6 2.98v43.9m68.21-64.85-39.52 7.81-19.23-14.55m19.23 14.55v52.12"/><path fill="none" stroke="#afc3ca" stroke-miterlimit="10" stroke-width=".46" d="M849.44 500.32v-11.89l2.6 1.97 39.45-7.52v-52.47l-18.93-14.32-39.83 7.58v7.36l17.16 12.98v39.7l-11.02 2.1m149.02-49.03-54.9-41.52-16.17 3.08"/><path fill="none" stroke="#afc3ca" stroke-miterlimit="10" stroke-width=".46" d="m838.88 492.33 10.56 8 138.45-26.34m-182.7-41.51v-19.65l38.49-7.32 12.39 9.37v4.32m-66.79-11.81 39.88-7.55m0-22.39-39.88 7.59-16.37-12.38"/><path fill="none" stroke="#afc3ca" stroke-miterlimit="10" stroke-width=".46" d="m755.35 369.4 8.71 6.59 2.83-.54 6.02 4.55v-7.35l39.88-7.59 16.37 12.38v22.39l8.9 6.73"/><path fill="none" stroke="#afc3ca" stroke-miterlimit="10" stroke-width=".46" d="m806.25 366.31-6.97-5.27-43.93 8.36v19.36"/><path fill="none" stroke="#afc3ca" stroke-miterlimit="10" stroke-width=".46" d="M746.49 382.06v-27.54l39.65-7.54 11.6 8.77v5.58m-23.78-20.43-4.61.88 8.57 6.48m-77.64 44.92v-36.11l-16.75-12.67-28.06 5.34v21.89"/><path fill="none" stroke="#afc3ca" stroke-miterlimit="10" stroke-width=".46" d="m655.47 349.74 16.75 12.67 28.06-5.34m-18.16-39.92 10.48 7.93 4.02-.76 49.87 37.72m-31.41 28.32 19.02 14.38v25.6"/><path fill="none" stroke="#afc3ca" stroke-miterlimit="10" stroke-width=".46" d="M773.96 345.27v-4.36l-17.35-13.12-4.61.88-26.21-19.82-43.67 8.31v27.52"/><path fill="none" stroke="#afc3ca" stroke-miterlimit="10" stroke-width=".46" d="m689.6 349.02 24.17-4.6 16.4 12.4v25.61m-29.89-19.92 29.88-5.68m-37.25 37.75 22.17-4.22v-4.96l28.53-5.52 16.88 12.77v59.8"/><path fill="none" stroke="#afc3ca" stroke-miterlimit="10" stroke-width=".46" d="m760.49 392.65-28.63 5.45-16.78-12.7m-42.86-22.99v24.09m45.55 21.35v7.48m-1.52-8.62v8.43m15.62-17.04v4.96m-39.26-77.98v23.37m4.02-24.14v23.34m49.86 6.87 11.6 8.77 39.65-7.54m-39.64 7.55v5.58m5.96 7.11v55.81m2.83-56.35v55.81m3.95 2.99-10.35 1.97m28.79-51.18v22.36l7.42 5.61-3.28.62v19.52m11.81-10.59-11.81-8.94m11.81-.81 12.4 9.37 38.43-7.31m-38.43 7.31v5.65m-3.35.74 5.24 3.96-11.4 2.17"/><path fill="none" stroke="#afc3ca" stroke-miterlimit="10" stroke-width=".46" d="m832.73 425.06-18.45 3.51v4.94m61.95-51.58 22.22-4.23 18.36 13.89v29.67m-87.65-30.37 12.02-2.29m4.51 18.43 15.86-3.02"/><path fill="none" stroke="#afc3ca" stroke-miterlimit="10" stroke-width=".46" d="m841.17 382.15 18.36 13.89 28.25-5.37m-28.25 11.82v-6.45m44.3-.07-14.03 2.67-2.01-1.52m2 1.52v30.43"/><path fill="none" stroke="#afc3ca" stroke-miterlimit="10" stroke-width=".46" d="M887.78 427.61v-36.95l-18.36-13.89-28.25 5.37v6.45L861.55 404v14.19m42.28 5.49v-27.71l-2.02-1.52 15-2.85m-26.18 38.12 9.83-1.87m0-3.49 18.36 13.89 28.25-5.38m16.04 5.31-14.03 2.67-2.02-1.52m2.02 1.52v31.22m-42.28-23.18v31.22m-15.32-30.21 13.3-2.54 2.02 1.52 14.03-2.67"/><path fill="none" stroke="#afc3ca" stroke-miterlimit="10" stroke-width=".46" d="m976.11 433.8-15 2.85 2.02 1.52v31.24l-14.03 2.66-2.02-1.52v-37.68l-18.36-13.89-28.24 5.37v6.45l20.38 15.41v31.15l-14.03 2.67-2.01-1.52v-31.05"/><path fill="none" stroke="#afc3ca" stroke-miterlimit="10" stroke-width=".46" d="m987.89 454.82-11.78 2.24V433.8l-18.36-13.89-22.22 4.23m-35.06 6.61-8.98 1.71m27.34 5.79v6.45"/></g><g id="_1"><path fill="#e5ebed" d="m112.55 495.07-30.58-23.1v122.67l-7.87 1.5v14.44l.51.69v8.33l38.48 29.22 4.44-.69 26.25 19.75v-13.72l-.35.11.14-155.26-31.63-23.56v14.86l5.16 3.88-4.56.88h.01Z"/><path fill="none" stroke="#afc3ca" stroke-miterlimit="10" stroke-width=".46" d="M117.24 634.23V494.1l-5.24-3.96.13-14.91 47.58-9.05 31.45 23.79v155.15l-47.58 9.05-26.34-19.92v-.02Z"/><path fill="none" stroke="#afc3ca" stroke-miterlimit="10" stroke-width=".46" d="m112.13 475.22 31.45 23.79 47.58-9.05m-15.51 157.89v13.78l-31.83 6.06-26.21-19.82-4.39.83-38.6-29.2v-8.36m68.96-112.13v155.15m0-155.21v141.56m.24 27.17v-13.52M82.15 471.79l30.62 23.16 4.47-.85"/><path fill="none" stroke="#afc3ca" stroke-miterlimit="10" stroke-width=".46" d="m130.58 471.71-9.65-7.3-38.78 7.38v140.13l30.62 23.16 4.47-.85m.37 13.63v-13.34m-4.39 14.17v-13.7m-.45-140.04v140.13m-38.66-39.11 7.98 6.03"/><path fill="none" stroke="#afc3ca" stroke-miterlimit="10" stroke-width=".46" d="m82.15 594.44-8.04 1.53v14.73l9.12 6.9v-4.88"/></g><g id="_2"><path fill="#e5ebed" d="m71.77 436.99-40.94-30.65-.27 150.1 4.99 3.67v12.1l33.04 24.93v-11.89l3.05 2.36.12-150.62Z"/><path fill="none" stroke="#afc3ca" stroke-miterlimit="10" stroke-width=".46" d="m30.94 406.31 40.84 30.89 41.82-7.96"/><path fill="none" stroke="#afc3ca" stroke-miterlimit="10" stroke-width=".46" d="m81.91 585.35-10.12 1.97-41.03-31.03V406.34l42.09-7.92 40.75 30.82v36.09"/><path fill="none" stroke="#afc3ca" stroke-miterlimit="10" stroke-width=".46" d="m81.97 594.63-13.26 2.36-33.01-24.97v-11.87m33.01 24.82v12.09m3.07-159.86v150.12"/></g><g id="_3"><path fill="#e5ebed" d="m171.1 354.96-53.86-29.33-.18 139.71 3.76-.75 9.81 7.07 29.33-5.65v-44.79l11.15-1.81v-64.45Z"/><path fill="none" stroke="#afc3ca" stroke-miterlimit="10" stroke-width=".46" d="m202.97 348.77-31.72 6.04-54.02-29.41m42.87 96.03-42.87-32.42 54.02 30.3m37.34 81.02V474.6l-5.62-4.25"/><path fill="none" stroke="#afc3ca" stroke-miterlimit="10" stroke-width=".46" d="m175.75 478.01 27.22-5.29V348.77l-10.48-7.93-31.45-23.79-43.8 8.34V465.1m61.16 15.21 30.19-5.74"/><path fill="none" stroke="#afc3ca" stroke-miterlimit="10" stroke-width=".46" d="M171.25 354.8v64.51l-11.15 2.12v44.46"/></g><g id="_4"><path fill="#e5ebed" d="m270.68 288.27-36.61-27.71-.02 107.29-11.37 2.08v116.34l15.25 11.49v-3.53l28.46-5.35v-41.39l6.78-1.3v-46.48l-2.5-2.08V288.27h.01Z"/><path fill="none" stroke="#afc3ca" stroke-miterlimit="10" stroke-width=".46" d="M313.59 474.72V391.9l-2.5-1.89V280.42l-36.61-27.68-40.29 7.67v111.27l20.18 15.26v44.83l18.91 14.3"/><path fill="none" stroke="#afc3ca" stroke-miterlimit="10" stroke-width=".46" d="m234.2 367.64-11.32 2.15v116.43l15.05 11.39"/><path fill="none" stroke="#afc3ca" stroke-miterlimit="10" stroke-width=".46" d="m222.88 369.77 24.59 18.6V433l19.02 14.37v41.39m-19.03-100.44 6.92-1.32m0 44.77-6.92 1.23m19.02 14.36 6.81-1.3v-46.51l-2.5-1.89V288.07l40.29-7.67m-76.89-19.99 36.6 27.68m2.5 111.48 40.29-7.67m-42.79 5.78 40.29-7.67"/></g><g id="_5"><path fill="#e5ebed" d="m380.53 245.65-7.76 1.49-30.06-22.65v72.96l-7.42 1.5v22.54l-2.62.59v50.83l3.58 2.64v1.11l-6.03 1.09v71.37l34.76 25.76v-5.11l10.9-2.18v-55.34l1.61-2.22v-4.73l-1.61.54-.12-91.18 8.06-1.64v-23.29l7.74-1.69v-34.65l-11.03-7.73Z"/><path fill="none" stroke="#afc3ca" stroke-miterlimit="10" stroke-width=".46" d="m330.44 377.62 45.55 34.45 47.58-9.01"/><path fill="none" stroke="#afc3ca" stroke-miterlimit="10" stroke-width=".46" d="M420.35 397.01v4.9l-42.91 8.12-41.08-31.07v-3.52m87.21 52.01v-24.38l-3.21-2.43"/><path fill="none" stroke="#afc3ca" stroke-miterlimit="10" stroke-width=".46" d="m336.36 376.49-5.93 1.13v71.4l33.14 25.06m13.88-64.06v-4.94m-1.46 6.99v55.53m-40.64-168.83 10.46 7.91.16-14.89 7.93-1.51 30.01 22.69"/><path fill="none" stroke="#afc3ca" stroke-miterlimit="10" stroke-width=".46" d="m335.35 321.49-2.44.46v50.88l43.08 32.58 47.58-9v-90.99l-8.13-6.12"/><path fill="none" stroke="#afc3ca" stroke-miterlimit="10" stroke-width=".46" d="m345.91 296.79-10.56 1.98v25.02l-2.44-1.84m43.08 83.46v-90.99m15.67-61.1v34.74l-7.76 1.48v23.44l-7.91 1.51-30.02-22.69"/><path fill="none" stroke="#afc3ca" stroke-miterlimit="10" stroke-width=".46" d="m383.9 289.53-10.97-8.29v-34.2m50.64 58.37-8.13 1.56v-58.18l-7.46-5.65 7.46-1.42"/><path fill="none" stroke="#afc3ca" stroke-miterlimit="10" stroke-width=".46" d="m342.69 224.17 30.24 22.87 7.77-1.57 10.96 7.84 23.78-4.52"/><path fill="none" stroke="#afc3ca" stroke-miterlimit="10" stroke-width=".46" d="M342.69 297.39v-73.22l21.99-4.18 4.62 3.49 17.59-3.35 28.55 21.59v7.07m-42.51 32.45 7.77-1.48 10.96 8.29m-10.96-8.29v-34.29"/></g><g id="_6"><path fill="#e5ebed" d="m458.93 304.93-41.86-31.65-.19 26.95 6.7 5.1-.02 91.08-3.21.61v3.63l3.21 2.43.02 19.18 30.49 22.95 4.85-.92V304.94Z"/><path fill="none" stroke="#afc3ca" stroke-miterlimit="10" stroke-width=".46" d="M501.94 374.49v-77.33l-42.27-31.97-42.61 8.11v26.93"/><path fill="none" stroke="#afc3ca" stroke-miterlimit="10" stroke-width=".46" d="m501.94 297.16-42.95 7.85-41.94-31.72m41.94 31.73v139m-35.14-21.77 30.24 22.95"/></g><g id="_7"><path fill="#e5ebed" d="m576.07 228.3-55.21-29.2-.08 173.69 7.64-1.39v-4.94l27.93-5.39 5.31 4.02 5.33-1.07v-9.91l-4.55-3.46V275.5l13.62-2.76V228.3h.01Z"/><path fill="none" stroke="#afc3ca" stroke-miterlimit="10" stroke-width=".46" d="m607.31 222.21-31.16 5.93-55.2-29.2"/><path fill="none" stroke="#afc3ca" stroke-miterlimit="10" stroke-width=".46" d="M576.15 228.14v44.6l-13.66 2.66v75.06l4.58 3.46v9.56"/><path fill="none" stroke="#afc3ca" stroke-miterlimit="10" stroke-width=".46" d="m576.15 272.74-55.2-28.76 41.54 31.42m0 75.06 9.65-1.83m-5.07 5.29 4.77-.91"/><path fill="none" stroke="#afc3ca" stroke-miterlimit="10" stroke-width=".46" d="M520.95 372.29V198.95l47.58-9.05 28.09 21.24v2.99"/><path fill="none" stroke="#afc3ca" stroke-miterlimit="10" stroke-width=".46" d="m596.62 211.14-3.16.6 13.85 10.47v113.94"/></g><g id="_8"><path fill="#e5ebed" d="m670.89 143.96-35.71-27.01-.03 108.61-12.38 2.3v115.92l32.63 24.46v-18.23l12.48-2.43v-39.8l7.36-1.58v-91.77l-4.35-3.35v-67.11Z"/><path fill="none" stroke="#afc3ca" stroke-miterlimit="10" stroke-width=".46" d="m710.45 136.27-39.5 7.51-35.69-26.99m19.58 128.19-7.32 1.39m0 45.84 7.32-1.39m16.11-147.03v67.18l4.34 3.28v92.02l-7.33 1.39v39.57m2.99-136.28 39.5-7.51m-35.17 10.8 39.51-7.52"/><path fill="none" stroke="#afc3ca" stroke-miterlimit="10" stroke-width=".46" d="m675.28 306.27-20.44-15.45v-45.84l-19.58-14.82V116.8l39.5-7.51 35.69 26.99v67.16"/><path fill="none" stroke="#afc3ca" stroke-miterlimit="10" stroke-width=".46" d="m667.95 307.66-20.43-15.45v-45.84l-24.56-18.57"/><path fill="none" stroke="#afc3ca" stroke-miterlimit="10" stroke-width=".46" d="m655.4 368.23-32.43-24.57V227.8l12.3-2.34m75.18-22.03 4.35 3.29v104.21"/></g><g id="_9"><path fill="#e5ebed" d="m748.85 60.45-19.02-14.39.05 31.86-4.14-3.12v234.21l26.15 19.92.44-.23.1-233.68-3.58-2.7V60.46Z"/><path fill="none" stroke="#afc3ca" stroke-miterlimit="10" stroke-width=".46" d="m811.5 51.69-50.38 9.64L759.4 60l-4.27.81-1.78-1.34-4.43.84-19.06-14.41"/><path fill="none" stroke="#afc3ca" stroke-miterlimit="10" stroke-width=".46" d="M752.47 328.27V94.82l-3.54-2.68V60.3"/><path fill="none" stroke="#afc3ca" stroke-miterlimit="10" stroke-width=".46" d="m761.13 93.17-1.72-1.33-4.27.81-1.78-1.34-4.43.84"/><path fill="none" stroke="#afc3ca" stroke-miterlimit="10" stroke-width=".46" d="m752.46 94.82 8.66-1.66V61.32m-29.68-18.43 2.86 2.16-4.43.84v31.84l-3.98-3"/><path fill="none" stroke="#afc3ca" stroke-miterlimit="10" stroke-width=".46" d="M731.44 45.59v-2.71l4.26-.81-3.21-2.43"/><path fill="none" stroke="#afc3ca" stroke-miterlimit="10" stroke-width=".46" d="m767.1 335.71 44.83-8.53V51.22l-25.86-19.56-4.9.94-2.38-1.8-46.29 8.86v3.04m-2.63 31.28-3.98.76v233.67m29.25-247.6v31.84m-1.78-33.19V91.3M759.4 60v31.84"/></g><g id="_10"><path fill="#e5ebed" d="m1030.74 250.86-30.2-22.75-.08 121.84-7.73 1.5v21.98l-2.49.52v52.4l3.48 2.73-5.68 1.16v54.53l21.8-4.41 3.72 2.86 2.81-.66 17.12 12.61V366.6l7.89-1.93v-22.53l7.77-1.65v-83.11l-10.36-7.9-8.05 1.41v-.03Zm-24.05 248.04-18.93-14.22v3.2l17.02 12.89v29.02l1.91 1.6V498.9Z"/><path fill="#e5ebed" d="m1028.68 496.42 4.47-1.04-16.61-12.72-2.95.59 15.09 11.39v1.79Z"/><path fill="none" stroke="#afc3ca" stroke-miterlimit="10" stroke-width=".46" d="m987.23 502.45-21.96 4.18-18.92-14.31M965.27 539v-32.37"/><path fill="none" stroke="#afc3ca" stroke-miterlimit="10" stroke-width=".46" d="M963.29 547.3v-9.8l1.98 1.5 21.96-4.18v-32.38l-18.92-14.31-21.96 4.18v32.38l1.99 1.5v9.8l14.95 11.31Zm0 0 70.08-13.39v-38.7l-16.99-12.84-3.01.58"/><path fill="none" stroke="#afc3ca" stroke-miterlimit="10" stroke-width=".46" d="m1028.71 494.55-21.96 4.18-18.92-14.31m18.92 46.69v-32.37"/><path fill="none" stroke="#afc3ca" stroke-miterlimit="10" stroke-width=".46" d="M987.83 487.7v-3.28l21.96-4.18 18.92 14.31v32.38l-21.96 4.18-1.98-1.5v-28.98l-16.94-12.81-15.91 3.04m32.87 9.8-17.45 3.32m41.37-7.88 4.66-.89m-32.76-267.24 30.22 22.86 7.89-1.53 10.48 7.93 24.28-4.62"/><path fill="none" stroke="#afc3ca" stroke-miterlimit="10" stroke-width=".46" d="m1073.11 245.44-7.28 1.39 7.65 5.79v106.11l7.37-1.4"/><path fill="none" stroke="#afc3ca" stroke-miterlimit="10" stroke-width=".46" d="M1000.61 349.8V227.97l22.21-4.23 3.98 3.01 17.27-3.29 29.04 21.97v6.89"/><path fill="none" stroke="#afc3ca" stroke-miterlimit="10" stroke-width=".46" d="M1038.72 249.3v83.28l10.48 7.93"/><path fill="none" stroke="#afc3ca" stroke-miterlimit="10" stroke-width=".46" d="m1041.34 342.03-10.51-7.95v-83.25m0 83.25 7.89-1.5m-38.11 17.22 3.11 2.35m0-8.22 29.65 22.43m-40.54-15.08 10.89 8.24v-15.6l7.96-1.52 29.66 22.43"/><path fill="none" stroke="#afc3ca" stroke-miterlimit="10" stroke-width=".46" d="M1049.2 257.23v83.28l-7.86 1.52v22.81l-7.97 1.51v92.54"/><path fill="none" stroke="#afc3ca" stroke-miterlimit="10" stroke-width=".46" d="M1077.88 450.43v2.8l-44.51 8.47-39.35-29.77v-2.73"/><path fill="none" stroke="#afc3ca" stroke-miterlimit="10" stroke-width=".46" d="m988.13 430.14 45.24 34.21 47.48-9.04"/><path fill="none" stroke="#afc3ca" stroke-miterlimit="10" stroke-width=".46" d="M988.14 483.76v-53.62l5.76-1.1m83.98 24.02 2.97 2.25v69.57l-47.48 9.04m-43.15-160.2 2.61 1.97v-24.4l7.79-1.48"/><path fill="none" stroke="#afc3ca" stroke-miterlimit="10" stroke-width=".46" d="m992.82 373.22-2.61.49v52.54l43.15 32.64 47.48-9.03v-92.54l-7.37-5.57m-40.1 112.6v69.57m0-72.22v-2.8"/></g></svg>