<svg xmlns="http://www.w3.org/2000/svg" xml="preserve" viewBox="0 0 158 45">
                    <path d="M37.4 6.2c-4.7.7-8.7 3.6-10.8 7.6-1.4 2.6-1.9 5.1-1.9 8.7s.5 6.1 2 8.8c1.8 3.4 5 6 9 7.2 2.3.7 7.4.7 9.6 0 7.1-2.1 10.9-7.7 10.9-16 0-8.1-3.9-13.9-10.7-15.9-1.9-.6-6-.8-8.1-.4zm7.4 6c2.6 1.3 4.2 3.4 4.9 6.8.7 3.2.3 7.4-.9 9.7-.9 1.9-2.3 3.2-4.2 4.1-1.7.8-2.1.9-4.2.9-1.9 0-2.6-.1-3.9-.7-3.2-1.5-5.1-4.3-5.6-8.4-.8-6.8 2.1-12.2 7.4-13.3 2.1-.3 4.6 0 6.5.9zM.5 22.5v15.8h5.8V26.5h15.2V21H6.3l.1-4.5.1-4.5 8.2-.1 8.2-.1V6.7H.5v15.8zM59.5 22.5v15.8h5.8V26.5h5.8l3.9 5.9 3.9 5.9h6.8l-4.2-6.2c-2.3-3.4-4.1-6.2-4.1-6.3.1-.1.6-.3 1.3-.5 2.5-1 4.7-3.3 5.5-5.8.2-.6.4-2.1.4-3.3 0-3.7-1.6-6.4-4.7-8-2.5-1.3-3.8-1.5-12.5-1.5h-8v15.8zm17.3-9.9c1.4 1.1 1.9 2.1 1.8 4 0 1.8-.6 3-2 4l-1 .8-5.2.1-5.2.1v-10l5.2.1 5.2.1 1.2.8zM89.3 22.5v15.8h5.8L95 25.7l-.2-12.6 1.2 3.6c.9 2.8 5 14.4 7.4 20.8l.3.8 2.5-.1 2.5-.1 2.8-8c1.6-4.4 3.5-10 4.4-12.4l1.5-4.4v24.9h5.8V6.7l-4.5.1-4.4.1-2.6 7.3c-1.4 4-3.3 9.4-4.1 11.9l-1.5 4.7-1.1-3.6c-.6-2-2.5-7.3-4.1-12l-3-8.5h-8.7v15.8zM137.5 7.3c-.8 2-10.3 27.1-11 28.9l-.8 2.1h6.2l1.2-3.4 1.2-3.4 7.1.1 7.1.1 1.2 3.4 1.2 3.4h3.2c2.4 0 3.1-.1 3-.4-.1-.2-2.8-7.3-6.1-15.8l-6-15.5h-3.5c-3.6-.1-3.7-.1-4 .5zm5 7.9c.5 1.4 1.6 4.4 2.4 6.6.8 2.2 1.5 4.1 1.5 4.2 0 .1-2.3.2-5.1.2h-5.1l1.1-3.1c.6-1.7 1.8-4.8 2.5-7 .8-2.2 1.5-3.8 1.6-3.7.1.1.6 1.4 1.1 2.8z"/>
                </svg>