<svg viewBox="0 0 299 45" fill="none" xmlns="http://www.w3.org/2000/svg">
<path d="M76.9907 28.6716V25.2232C77.0321 24.6532 76.9558 24.0807 76.7667 23.5411C76.5775 23.0015 76.2794 22.5062 75.8908 22.0856C74.9744 21.3698 73.9767 20.7638 72.9181 20.28L70.7778 19.096C70.3524 18.9014 69.9888 18.5942 69.7267 18.208C69.4646 17.8217 69.314 17.3712 69.2914 16.9056V15.618C69.2761 15.4645 69.2944 15.3095 69.3451 15.1637C69.3958 15.0179 69.4777 14.8849 69.5851 14.7737C69.6925 14.6625 69.8229 14.5759 69.9672 14.5198C70.1116 14.4637 70.2664 14.4395 70.4211 14.4488C70.5775 14.4375 70.7345 14.4602 70.8813 14.5152C71.0281 14.5702 71.1612 14.6562 71.2714 14.7673C71.3816 14.8784 71.4663 15.012 71.5196 15.1589C71.573 15.3058 71.5937 15.4624 71.5804 15.618V18.578H76.8718V14.804C76.9325 14.0691 76.7901 13.3317 76.4599 12.6717C76.1298 12.0117 75.6246 11.4542 74.999 11.0596C73.6462 10.2786 72.1033 9.88432 70.54 9.92C68.9238 9.88862 67.3333 10.3257 65.962 11.178C65.345 11.5971 64.8498 12.1707 64.5262 12.8411C64.2026 13.5114 64.0622 14.2548 64.119 14.9964V17.9564C64.0614 18.8426 64.302 19.7227 64.8027 20.4576C65.5494 21.2706 66.4415 21.938 67.4335 22.426L70.2576 23.906C70.6156 24.0657 70.9282 24.3117 71.1669 24.6218C71.4056 24.9318 71.5631 25.2962 71.625 25.682C71.625 26.7032 71.625 27.4284 71.625 27.4284C71.6404 27.5819 71.622 27.7369 71.5713 27.8827C71.5206 28.0285 71.4387 28.1615 71.3313 28.2727C71.2239 28.3839 71.0935 28.4705 70.9492 28.5266C70.8049 28.5827 70.65 28.6069 70.4954 28.5976C70.339 28.6089 70.1819 28.5862 70.0351 28.5312C69.8883 28.4762 69.7552 28.3902 69.6451 28.2791C69.5349 28.168 69.4502 28.0344 69.3968 27.8875C69.3435 27.7406 69.3227 27.584 69.336 27.4284V24.72H64.0001V28.864C63.9434 29.5904 64.0966 30.3178 64.4416 30.9603C64.7866 31.6027 65.309 32.1336 65.9472 32.49C67.3156 33.2211 68.8541 33.5785 70.4062 33.526C72.0256 33.5838 73.6284 33.1835 75.0287 32.3716C75.6645 31.9937 76.1828 31.4481 76.5265 30.7951C76.8701 30.1421 77.0257 29.4072 76.9759 28.6716M78.3433 9.328H83.6793V4H78.3433V9.328ZM78.3433 32.8896H83.6793V10.6896H78.3433V32.8896ZM100.638 32.712H105.989V13.8864C105.984 13.3559 105.867 12.8323 105.647 12.3491C105.427 11.8659 105.108 11.4337 104.711 11.08C104.314 10.7263 103.847 10.4589 103.34 10.2948C102.834 10.1308 102.298 10.0737 101.768 10.1272C101.017 10.1424 100.282 10.3389 99.624 10.6998C98.9664 11.0608 98.4066 11.5753 97.9928 12.1992C97.5738 11.5701 97.0068 11.0524 96.341 10.6913C95.6753 10.3302 94.931 10.1365 94.1729 10.1272C93.5273 10.118 92.8862 10.2362 92.2867 10.475C91.6872 10.7137 91.1411 11.0684 90.68 11.5184L90.4273 10.5416H85.4034V32.7416H90.7543V15.5736C90.7445 15.4221 90.7683 15.2703 90.824 15.129C90.8797 14.9877 90.9659 14.8603 91.0765 14.7558C91.1871 14.6513 91.3194 14.5723 91.4641 14.5244C91.6087 14.4764 91.7622 14.4607 91.9136 14.4784C92.0633 14.4627 92.2145 14.4801 92.3567 14.5291C92.4989 14.5782 92.6285 14.6578 92.7363 14.7623C92.8441 14.8669 92.9275 14.9937 92.9805 15.1339C93.0336 15.2741 93.055 15.4242 93.0433 15.5736V32.6972H98.3941V15.5736C98.3941 15.2753 98.5131 14.9892 98.725 14.7782C98.9368 14.5673 99.2241 14.4488 99.5237 14.4488C99.8233 14.4488 100.111 14.5673 100.322 14.7782C100.534 14.9892 100.653 15.2753 100.653 15.5736V32.6972L100.638 32.712ZM114.997 27.6208C115.006 27.7723 114.983 27.9241 114.927 28.0654C114.871 28.2067 114.785 28.3341 114.674 28.4386C114.564 28.5431 114.431 28.6221 114.287 28.67C114.142 28.718 113.989 28.7337 113.837 28.716C113.688 28.7317 113.536 28.7143 113.394 28.6653C113.252 28.6162 113.122 28.5366 113.015 28.4321C112.907 28.3275 112.823 28.2007 112.77 28.0605C112.717 27.9203 112.696 27.7702 112.708 27.6208V15.6032C112.708 15.301 112.828 15.0111 113.043 14.7974C113.257 14.5837 113.549 14.4636 113.852 14.4636C114.156 14.4636 114.447 14.5837 114.661 14.7974C114.876 15.0111 114.997 15.301 114.997 15.6032V27.606V27.6208ZM120.333 29.5152V14.0344C120.325 13.5062 120.207 12.9854 119.986 12.5053C119.765 12.0252 119.445 11.5965 119.048 11.2467C118.65 10.8969 118.184 10.6337 117.678 10.474C117.172 10.3144 116.639 10.2618 116.111 10.3196C114.781 10.281 113.489 10.7647 112.514 11.6664L112.306 10.7044H107.372V38.9872H112.708V31.8536C113.151 32.3063 113.684 32.6634 114.272 32.9027C114.86 33.142 115.491 33.2584 116.126 33.2448C116.656 33.2983 117.192 33.2412 117.699 33.0772C118.205 32.9131 118.672 32.6457 119.069 32.292C119.466 31.9383 119.785 31.5061 120.005 31.0229C120.225 30.5397 120.342 30.0161 120.347 29.4856M134.661 28.6568V25.2232C134.692 24.6514 134.606 24.0793 134.406 23.5422C134.207 23.0051 133.899 22.5144 133.502 22.1004C132.586 21.3795 131.588 20.7685 130.529 20.28L128.374 19.1108C127.947 18.9176 127.583 18.6107 127.32 18.2242C127.058 17.8377 126.908 17.3864 126.887 16.9204V15.6476C126.887 15.3454 127.008 15.0555 127.223 14.8418C127.437 14.6281 127.728 14.508 128.032 14.508C128.335 14.508 128.626 14.6281 128.841 14.8418C129.056 15.0555 129.176 15.3454 129.176 15.6476V18.6076H134.408V14.804C134.485 14.0817 134.363 13.3523 134.057 12.6931C133.751 12.0339 133.271 11.4695 132.669 11.0596C131.316 10.2786 129.774 9.88432 128.21 9.92C126.594 9.88776 125.003 10.3249 123.632 11.178C123.009 11.5925 122.507 12.1644 122.178 12.8352C121.849 13.5061 121.704 14.2518 121.759 14.9964V17.9564C121.702 18.8426 121.942 19.7227 122.443 20.4576C123.191 21.269 124.083 21.9363 125.074 22.426L127.898 23.906C128.256 24.0657 128.569 24.3117 128.807 24.6218C129.046 24.9318 129.204 25.2962 129.266 25.682C129.266 26.7032 129.266 27.4284 129.266 27.4284C129.266 27.5781 129.236 27.7262 129.178 27.8645C129.121 28.0028 129.037 28.1284 128.93 28.2342C128.824 28.34 128.698 28.424 128.559 28.4813C128.42 28.5385 128.271 28.568 128.121 28.568C127.971 28.568 127.822 28.5385 127.683 28.4813C127.544 28.424 127.418 28.34 127.312 28.2342C127.205 28.1284 127.121 28.0028 127.064 27.8645C127.006 27.7262 126.977 27.5781 126.977 27.4284V24.72H121.67V28.864C121.614 29.5904 121.767 30.3178 122.112 30.9603C122.457 31.6027 122.979 32.1336 123.617 32.49C124.986 33.2218 126.524 33.5792 128.076 33.526C129.696 33.5846 131.299 33.1843 132.699 32.3716C133.335 31.9937 133.853 31.4481 134.197 30.7951C134.54 30.1421 134.696 29.4072 134.646 28.6716M143.564 27.606C143.571 27.7535 143.546 27.9008 143.491 28.038C143.436 28.1752 143.353 28.2992 143.246 28.4015C143.139 28.5038 143.011 28.5821 142.871 28.6313C142.731 28.6804 142.582 28.6992 142.435 28.6864C142.286 28.699 142.137 28.6802 141.996 28.6312C141.855 28.5821 141.727 28.504 141.619 28.402C141.511 28.2999 141.425 28.1762 141.369 28.039C141.312 27.9018 141.285 27.7543 141.29 27.606V15.544C141.284 15.3954 141.311 15.2475 141.369 15.1104C141.427 14.9733 141.514 14.8505 141.625 14.7504C141.735 14.6503 141.866 14.5755 142.008 14.531C142.151 14.4866 142.301 14.4737 142.449 14.4932C142.596 14.4758 142.744 14.4903 142.884 14.5359C143.024 14.5815 143.152 14.657 143.26 14.757C143.367 14.8571 143.452 14.9794 143.507 15.1153C143.562 15.2513 143.587 15.3976 143.579 15.544V27.606H143.564ZM148.915 27.976V15.7512C148.915 12.4952 145.942 10.3936 142.449 10.3936C138.956 10.3936 135.939 12.4952 135.939 15.7512V27.976C135.939 31.2024 138.912 33.304 142.449 33.304C145.987 33.304 148.915 31.2024 148.915 27.976ZM157.982 32.9636H163.318V14.1676C163.312 13.6398 163.196 13.119 162.978 12.638C162.76 12.157 162.443 11.7263 162.05 11.373C161.656 11.0198 161.193 10.7517 160.689 10.5857C160.186 10.4196 159.654 10.3593 159.126 10.4084C157.793 10.3973 156.506 10.8952 155.529 11.7996L155.306 10.8228H150.401V33.0228H155.737V15.5736C155.73 15.4233 155.755 15.2732 155.812 15.1337C155.869 14.9942 155.955 14.8687 156.066 14.7659C156.176 14.663 156.307 14.5854 156.451 14.5383C156.594 14.4912 156.747 14.4758 156.897 14.4932C157.045 14.4778 157.195 14.4949 157.336 14.5431C157.477 14.5913 157.606 14.6696 157.713 14.7724C157.821 14.8753 157.905 15.0002 157.959 15.1386C158.013 15.277 158.036 15.4254 158.026 15.5736V32.9636H157.982ZM172.622 32.8748H177.973V14.0196C177.962 13.4934 177.841 12.9753 177.618 12.498C177.395 12.0208 177.075 11.5948 176.678 11.247C176.281 10.8993 175.816 10.6373 175.313 10.4776C174.809 10.318 174.278 10.2642 173.752 10.3196C173.123 10.3098 172.499 10.4267 171.916 10.6632C171.334 10.8998 170.806 11.251 170.363 11.696V4H165.072V32.8748H170.422V15.544C170.422 15.2457 170.541 14.9596 170.753 14.7486C170.965 14.5377 171.252 14.4192 171.552 14.4192C171.852 14.4192 172.139 14.5377 172.351 14.7486C172.563 14.9596 172.682 15.2457 172.682 15.544V32.8748H172.622ZM187.114 27.5468C187.114 27.7088 187.084 27.8694 187.025 28.0204C186.933 28.21 186.786 28.3678 186.604 28.4733C186.421 28.5789 186.21 28.6273 185.999 28.6124C185.782 28.6324 185.563 28.5867 185.372 28.481C185.181 28.3754 185.027 28.2149 184.929 28.0204C184.876 27.8684 184.85 27.7079 184.855 27.5468V15.4108C184.901 15.1286 185.052 14.874 185.278 14.6975C185.504 14.5209 185.788 14.4353 186.074 14.4577C186.36 14.48 186.628 14.6087 186.823 14.8181C187.018 15.0276 187.128 15.3025 187.129 15.5884V27.5468H187.114ZM192.45 32.8748V10.6748H187.649L187.367 11.7256C186.395 10.8172 185.102 10.3278 183.77 10.364C183.241 10.3061 182.706 10.3591 182.2 10.5196C181.693 10.6802 181.226 10.9447 180.828 11.2961C180.43 11.6475 180.111 12.078 179.891 12.5598C179.67 13.0417 179.554 13.5642 179.549 14.0936V29.2488C179.549 29.3376 179.549 29.4264 179.549 29.5152C179.556 30.0434 179.674 30.5642 179.895 31.0443C180.116 31.5244 180.436 31.9531 180.833 32.3029C181.231 32.6527 181.698 32.9159 182.203 33.0756C182.709 33.2352 183.243 33.2878 183.77 33.23C185.157 33.1795 186.474 32.6086 187.456 31.6316L187.709 32.8452H192.524L192.45 32.8748ZM202.111 32.8748H206.987V10.6748H201.636V27.5616C201.636 27.8599 201.517 28.146 201.305 28.357C201.093 28.5679 200.806 28.6864 200.506 28.6864C200.206 28.6864 199.919 28.5679 199.707 28.357C199.495 28.146 199.376 27.8599 199.376 27.5616V10.7192H194.026V29.53C194.033 30.0582 194.151 30.579 194.372 31.0591C194.593 31.5392 194.913 31.9679 195.311 32.3177C195.708 32.6675 196.175 32.9307 196.68 33.0904C197.186 33.25 197.72 33.3026 198.247 33.2448C199.634 33.1943 200.951 32.6234 201.933 31.6464L202.111 32.8748ZM216.172 27.68C216.18 27.8264 216.155 27.9727 216.1 28.1087C216.045 28.2446 215.96 28.3669 215.853 28.467C215.745 28.567 215.617 28.6425 215.477 28.6881C215.337 28.7337 215.189 28.7482 215.043 28.7308C214.895 28.7503 214.744 28.7374 214.602 28.693C214.459 28.6485 214.328 28.5737 214.218 28.4736C214.107 28.3735 214.02 28.2507 213.962 28.1136C213.905 27.9765 213.878 27.8286 213.883 27.68V15.5736C213.878 15.424 213.905 15.275 213.963 15.1367C214.02 14.9984 214.107 14.8739 214.217 14.7716C214.327 14.6693 214.457 14.5916 214.599 14.5435C214.742 14.4955 214.893 14.4784 215.043 14.4932C215.19 14.4804 215.339 14.4992 215.479 14.5483C215.619 14.5975 215.747 14.6758 215.854 14.7781C215.961 14.8804 216.044 15.0044 216.099 15.1416C216.154 15.2788 216.179 15.4261 216.172 15.5736V27.68ZM221.553 35.672V10.7044H216.648L216.38 11.6664C215.926 11.2284 215.377 10.8994 214.775 10.7044C214.136 10.4729 213.463 10.3479 212.783 10.3344C210.465 10.3344 208.562 11.6368 208.562 13.916V29.2488C208.577 29.7709 208.701 30.2841 208.926 30.7558C209.151 31.2275 209.473 31.6473 209.87 31.9885C210.267 32.3296 210.731 32.5847 211.233 32.7373C211.734 32.8899 212.262 32.9367 212.783 32.8748C213.517 32.858 214.241 32.7127 214.924 32.4456C215.406 32.3101 215.845 32.0555 216.202 31.7056V35.746C216.209 35.8935 216.184 36.0408 216.129 36.178C216.074 36.3152 215.99 36.4392 215.883 36.5415C215.776 36.6438 215.649 36.7221 215.509 36.7713C215.369 36.8204 215.22 36.8392 215.072 36.8264C214.923 36.8412 214.772 36.8241 214.629 36.7761C214.487 36.7281 214.356 36.6503 214.247 36.548C214.137 36.4457 214.05 36.3212 213.993 36.1829C213.935 36.0446 213.908 35.8956 213.913 35.746V33.822H208.547V35.672C208.547 38.8984 211.52 41 215.057 41C218.595 41 221.553 38.8984 221.553 35.672ZM236.03 32.8748V14.0196C236.018 13.4934 235.897 12.9753 235.674 12.498C235.451 12.0208 235.132 11.5948 234.735 11.247C234.338 10.8993 233.873 10.6373 233.369 10.4776C232.866 10.318 232.334 10.2642 231.809 10.3196C231.18 10.3098 230.555 10.4267 229.973 10.6632C229.391 10.8998 228.862 11.251 228.42 11.696V4H223.039V32.8748H228.39V15.544C228.39 15.2457 228.509 14.9596 228.721 14.7486C228.933 14.5377 229.22 14.4192 229.52 14.4192C229.819 14.4192 230.106 14.5377 230.318 14.7486C230.53 14.9596 230.649 15.2457 230.649 15.544V32.8748H236H236.03Z" fill="#24292E"/>
</svg>
