<svg viewBox="0 0 299 45" fill="none" xmlns="http://www.w3.org/2000/svg">
<g clip-path="url(#clip0_276_1755)">
<path fill-rule="evenodd" clip-rule="evenodd" d="M68.5016 37C59.401 37 54 31.3591 54 23.3532C54 15.0975 60.0811 9 69.2248 9C72.7964 9 75.5179 9.78831 77.3473 10.5346L77.3042 14.8068C75.2628 13.7708 72.5844 12.7746 69.5218 12.7746C62.2505 12.7746 58.8059 17.2546 58.8059 22.9375C58.8059 29.4508 62.6756 33.2254 69.1817 33.2254C71.2662 33.2254 72.8814 32.8517 73.9026 32.3132V22.9785H78.3674V34.76C76.1129 35.9209 72.4144 37 68.5016 37ZM84.5335 36.5854H88.9994V9.24877H84.5335V36.5854ZM95.6325 36.5854V9.24769H100.055V32.8506H110.304V36.5843L95.6325 36.5854ZM114.259 36.5854V9.24769H118.682V32.8506H128.929V36.5843L114.259 36.5854ZM132.884 36.5854V9.24769H147.855L146.495 12.9814H137.351V20.7385H146.452V24.4711H137.351V32.8506H147.897V36.5843L132.884 36.5854ZM160.143 37C156.273 37 153.637 35.7551 151.852 34.6351L153.722 31.3591C155.125 32.3132 157.337 33.3912 159.973 33.3912C162.269 33.3912 164.949 32.3951 164.949 29.9074C164.949 25.7171 158.188 24.8868 154.785 21.1951C153.637 19.9512 152.872 18.4166 152.872 16.3005C152.872 12.3191 156.018 9 161.674 9C164.651 9 166.863 9.74738 168.31 10.4926L168.265 14.5591C166.352 13.4391 164.184 12.6508 161.887 12.6508C159.463 12.6508 157.463 13.6458 157.463 15.8029C157.463 21.1951 169.712 21.0292 169.712 29.4088C169.712 34.0126 165.544 37 160.144 37M180.981 12.9825H179.194V23.3112H181.151C184.979 23.3112 186.68 21.1951 186.68 18.002C186.68 15.0566 184.765 12.9825 180.981 12.9825ZM180.514 27.0449H179.194V36.5865H174.73V9.24769H181.407C187.402 9.24769 191.273 12.3589 191.273 17.9589C191.273 22.6457 188.424 27.0438 180.514 27.0438M196.204 36.5854H200.67V9.24877H196.204V36.5854ZM207.305 36.5854V9.24769H222.273L220.913 12.9814H211.768V20.7385H220.869V24.4711H211.768V32.8506H222.314V36.5843L207.305 36.5854ZM234.563 37C230.693 37 228.056 35.7551 226.27 34.6351L228.142 31.3591C229.544 32.3132 231.757 33.3912 234.393 33.3912C236.69 33.3912 239.368 32.3951 239.368 29.9074C239.368 25.7171 232.607 24.8868 229.204 21.1951C228.056 19.9512 227.291 18.4166 227.291 16.3005C227.291 12.3191 230.438 9 236.094 9C239.07 9 241.283 9.74738 242.729 10.4926L242.685 14.5591C240.773 13.4391 238.603 12.6508 236.307 12.6508C233.883 12.6508 231.884 13.6458 231.884 15.8029C231.884 21.1951 244.131 21.0292 244.131 29.4088C244.131 34.0126 239.964 37 234.563 37Z" fill="#24292E"/>
</g>
<defs>
<clipPath id="clip0_276_1755">
<rect width="191" height="28" fill="white" transform="translate(54 9)"/>
</clipPath>
</defs>
</svg>
