<svg viewBox="0 0 299 45" fill="none" xmlns="http://www.w3.org/2000/svg">
<path d="M131.271 38.693V22.4043C131.271 20.5022 131.741 19.0098 132.683 17.927C133.623 16.8467 134.926 16.3065 136.587 16.3065C138.13 16.3065 139.317 16.7673 140.146 17.6838C140.978 18.6002 141.394 19.9519 141.394 21.7361V38.693H146.329V20.8862C146.329 18.0575 145.56 15.8406 144.025 14.2356C142.491 12.6305 140.377 11.8292 137.681 11.8292C135.883 11.8292 134.309 12.2465 132.962 13.0785C131.659 13.857 130.658 15.0702 130.128 16.5139C129.634 15.0793 128.673 13.8618 127.405 13.0657C126.117 12.2414 124.592 11.8292 122.828 11.8292C121.302 11.8292 119.934 12.1569 118.719 12.8071C117.559 13.4099 116.6 14.3506 115.964 15.5104L115.708 12.6535H111.334V38.6418H116.267V22.5092C116.267 20.6405 116.745 19.1378 117.705 18.0038C118.662 16.8723 119.937 16.3065 121.53 16.3065C123.058 16.3065 124.241 16.7878 125.08 17.7478C125.919 18.7077 126.338 20.1592 126.338 22.0971V38.693H131.273H131.271ZM185.178 7.25211C185.624 7.26426 186.069 7.1839 186.484 7.01589C186.9 6.84787 187.278 6.59567 187.596 6.27447C187.913 5.95326 188.164 5.5697 188.333 5.14687C188.501 4.72404 188.585 4.2707 188.577 3.81414C188.577 2.83113 188.252 2.02219 187.605 1.38221C187.283 1.06604 186.903 0.818725 186.486 0.654765C186.069 0.490806 185.624 0.413497 185.178 0.427365C184.226 0.427365 183.419 0.755034 182.763 1.41037C182.444 1.71932 182.192 2.09258 182.023 2.50641C181.853 2.92025 181.77 3.3656 181.778 3.81414C181.778 4.79714 182.106 5.61632 182.763 6.27166C183.419 6.92444 184.223 7.25211 185.178 7.25211ZM187.683 12.6561V38.8261H182.723V12.6561H187.683ZM164.996 11.8292C168.486 11.8292 171.314 12.9377 173.478 15.1546C175.645 17.3689 176.728 20.2488 176.728 23.7994C176.728 24.5751 176.673 25.3354 176.56 26.0803L176.432 26.8227H157.217L157.235 27.4038C157.355 29.4978 158.056 31.1822 159.339 32.4571C160.739 33.8497 162.591 34.5459 164.898 34.5459C166.677 34.5459 168.23 34.1108 169.565 33.2455C170.704 32.5185 171.627 31.4872 172.233 30.2632L172.479 29.7231L176.53 31.2718L176.312 31.8555C175.46 33.9546 174.09 35.593 172.196 36.7705C170.129 38.0505 167.696 38.693 164.898 38.693C161.143 38.693 158.104 37.4642 155.784 35.0067C153.462 32.5492 152.302 29.3391 152.302 25.3738C152.302 21.3598 153.487 18.0985 155.859 15.5898C158.229 13.081 161.275 11.8292 164.996 11.8292ZM164.845 15.9507C162.741 15.9507 160.97 16.6112 159.537 17.927C158.234 19.1224 157.478 20.6507 157.265 22.5092L157.215 23.075H171.812C171.78 20.9246 171.134 19.2018 169.873 17.9039C168.613 16.6035 166.94 15.9533 164.848 15.9533L164.845 15.9507Z" fill="#24292E"/>
</svg>
