<svg width="299" height="45" viewBox="0 0 299 45" fill="none" xmlns="http://www.w3.org/2000/svg">
<g clip-path="url(#clip0_7_1726)">
<path fill-rule="evenodd" clip-rule="evenodd" d="M62.7115 16.1215L72.0625 28.192H72.8125C73.282 28.192 73.618 28.282 73.8205 28.462C74.0245 28.642 74.125 28.879 74.125 29.176C74.125 29.458 74.0245 29.692 73.8205 29.8795C73.618 30.067 73.282 30.16 72.8125 30.16H66.4855C66.016 30.16 65.68 30.067 65.4775 29.8795C65.2735 29.692 65.173 29.458 65.173 29.176C65.173 28.879 65.2735 28.642 65.4775 28.462C65.68 28.282 66.016 28.192 66.4855 28.192H69.625L61.4935 17.7385L53.4535 28.192H56.5945C57.0625 28.192 57.3985 28.282 57.6025 28.462C57.805 28.642 57.907 28.879 57.907 29.176C57.907 29.458 57.805 29.692 57.6025 29.8795C57.3985 30.067 57.0625 30.16 56.5945 30.16H50.3125C49.8445 30.16 49.5085 30.067 49.3045 29.8795C49.102 29.692 49 29.458 49 29.176C49 28.9585 49.063 28.762 49.1875 28.591C49.312 28.4185 49.453 28.309 49.6105 28.2625C49.7665 28.216 50.242 28.192 51.04 28.192L60.274 16.1215L51.4615 4.70799H50.7355C50.266 4.70799 49.93 4.61799 49.7275 4.43799C49.5235 4.25799 49.423 4.02099 49.423 3.72249C49.423 3.42699 49.5235 3.18849 49.7275 3.00849C49.93 2.82849 50.266 2.73849 50.7355 2.73849H56.1025C56.587 2.73849 56.9305 2.82849 57.133 3.00849C57.337 3.18849 57.4375 3.42699 57.4375 3.72249C57.4375 4.02099 57.337 4.25799 57.133 4.43799C56.9305 4.61799 56.587 4.70799 56.1025 4.70799H53.899L61.4935 14.5285L69.04 4.70799H66.8365C66.352 4.70799 66.0085 4.61799 65.806 4.43799C65.602 4.25799 65.5 4.02099 65.5 3.72249C65.5 3.42699 65.602 3.18849 65.806 3.00849C66.0085 2.82849 66.352 2.73849 66.8365 2.73849H72.2275C72.6955 2.73849 73.0315 2.82849 73.2355 3.00849C73.438 3.18849 73.54 3.42699 73.54 3.72249C73.54 4.02099 73.438 4.25799 73.2355 4.43799C73.0315 4.61799 72.6955 4.70799 72.2275 4.70799H71.4775L62.7115 16.1215Z" fill="#343534"/>
<path fill-rule="evenodd" clip-rule="evenodd" d="M129.132 16.5205C129.132 13.3165 128.202 10.441 126.343 7.89549C124.483 5.34699 122.077 4.07499 119.125 4.07499C116.357 4.07499 113.997 5.28999 112.035 7.71849C110.073 10.15 109.093 13.0825 109.093 16.5205C109.093 20.1775 110.121 23.1655 112.174 25.486C114.229 27.805 116.545 28.966 119.125 28.966C122.077 28.966 124.483 27.697 126.343 25.1575C128.202 22.618 129.132 19.7395 129.132 16.5205ZM131.125 16.5205C131.125 19.1455 130.594 21.58 129.532 23.821C128.468 26.062 127.003 27.8095 125.135 29.0575C123.268 30.307 121.264 30.934 119.125 30.934C115.951 30.934 113.16 29.587 110.746 26.8915C108.331 24.196 107.125 20.74 107.125 16.5205C107.125 12.2845 108.331 8.82549 110.746 6.13749C113.16 3.45099 115.951 2.10699 119.125 2.10699C121.264 2.10699 123.263 2.73249 125.125 3.98199C126.982 5.23149 128.448 6.97299 129.519 9.20799C130.59 11.4415 131.125 13.879 131.125 16.5205Z" fill="#343534"/>
<path fill-rule="evenodd" clip-rule="evenodd" d="M172.372 16.942H178.653C180.108 16.942 181.47 16.618 182.745 15.97C184.017 15.3205 184.947 14.5285 185.533 13.591C186.12 12.6535 186.412 11.6995 186.412 10.7305C186.412 9.18399 185.748 7.79349 184.42 6.55899C183.093 5.32449 181.411 4.70799 179.38 4.70799H172.372V16.942ZM172.372 18.91V28.192H179.122C179.59 28.192 179.928 28.282 180.13 28.462C180.333 28.642 180.436 28.879 180.436 29.176C180.436 29.458 180.333 29.692 180.13 29.8795C179.928 30.067 179.59 30.1615 179.122 30.1615H167.755C167.287 30.1615 166.95 30.067 166.747 29.8795C166.545 29.692 166.443 29.458 166.443 29.176C166.443 28.879 166.545 28.642 166.747 28.462C166.95 28.282 167.287 28.192 167.755 28.192H170.406V4.70799H167.755C167.287 4.70799 166.95 4.61799 166.747 4.43799C166.545 4.25799 166.443 4.02099 166.443 3.72249C166.443 3.42699 166.545 3.18849 166.747 3.00849C166.95 2.82849 167.287 2.73849 167.755 2.73849H179.193C181.896 2.73849 184.104 3.53499 185.815 5.12949C187.525 6.72399 188.38 8.59149 188.38 10.7305C188.38 11.9965 188.103 13.138 187.549 14.1535C186.994 15.169 186.325 15.9655 185.545 16.543C184.374 17.419 183.162 18.0595 181.912 18.466C181.005 18.763 179.88 18.91 178.537 18.91H172.372Z" fill="#343534"/>
<path fill-rule="evenodd" clip-rule="evenodd" d="M239.943 19.0285L234.505 4.70799H233.779L228.505 19.0285H239.943ZM240.693 20.9965H227.755L225.108 28.1905H228.88C229.351 28.1905 229.686 28.2805 229.888 28.462C230.091 28.642 230.193 28.879 230.193 29.1775C230.193 29.458 230.091 29.6905 229.888 29.878C229.686 30.0655 229.351 30.16 228.88 30.16H221.521C221.053 30.16 220.716 30.0655 220.513 29.878C220.311 29.6905 220.209 29.458 220.209 29.1775C220.209 28.879 220.311 28.642 220.513 28.462C220.716 28.2805 221.053 28.1905 221.521 28.1905H223.045L231.741 4.70799H225.928C225.459 4.70799 225.123 4.61949 224.92 4.43649C224.716 4.25799 224.616 4.02099 224.616 3.72249C224.616 3.42699 224.716 3.18699 224.92 3.00699C225.123 2.82999 225.459 2.73999 225.928 2.73999H235.842L245.451 28.1905H246.975C247.443 28.1905 247.779 28.2805 247.983 28.462C248.185 28.642 248.287 28.879 248.287 29.1775C248.287 29.458 248.185 29.6905 247.983 29.878C247.779 30.0655 247.443 30.16 246.975 30.16H239.638C239.154 30.16 238.81 30.0655 238.608 29.878C238.404 29.6905 238.303 29.458 238.303 29.1775C238.303 28.879 238.404 28.642 238.608 28.462C238.81 28.2805 239.154 28.1905 239.638 28.1905H243.388L240.693 20.9965Z" fill="#343534"/>
<path fill-rule="evenodd" clip-rule="evenodd" d="M53.23 40.357C52.999 40.291 52.756 40.2415 52.498 40.2115C52.24 40.1785 51.9685 40.1635 51.6835 40.1635C50.968 40.1635 50.41 40.318 50.008 40.627C49.702 40.8565 49.5505 41.1325 49.5505 41.452C49.5505 41.7505 49.6675 41.9995 49.8985 42.202C50.131 42.406 50.47 42.508 50.9155 42.508C51.3415 42.508 51.736 42.4225 52.102 42.253C52.468 42.0835 52.843 41.812 53.23 41.4415V40.357ZM53.23 42.8065V42.097C52.5145 42.7 51.751 43 50.9395 43C50.35 43 49.888 42.85 49.5565 42.5515C49.225 42.253 49.0585 41.887 49.0585 41.452C49.0585 40.9765 49.2775 40.561 49.714 40.2055C50.152 39.85 50.791 39.6715 51.631 39.6715C51.856 39.6715 52.1035 39.6865 52.369 39.715C52.6345 39.745 52.921 39.7915 53.23 39.853V39.0565C53.23 38.7865 53.1055 38.5525 52.855 38.353C52.6045 38.1535 52.2295 38.0545 51.73 38.0545C51.3475 38.0545 50.8105 38.1655 50.119 38.389C49.993 38.4265 49.9135 38.4475 49.879 38.4475C49.816 38.4475 49.762 38.4235 49.717 38.377C49.672 38.329 49.6495 38.2705 49.6495 38.2015C49.6495 38.134 49.669 38.0815 49.708 38.0425C49.7635 37.984 49.984 37.9045 50.371 37.8025C50.98 37.639 51.4405 37.5565 51.754 37.5565C52.375 37.5565 52.858 37.7095 53.206 38.0155C53.554 38.323 53.728 38.6695 53.728 39.0565V42.3145H54.385C54.505 42.3145 54.592 42.337 54.6415 42.382C54.6925 42.427 54.718 42.4855 54.718 42.5605C54.718 42.631 54.6925 42.6895 54.6415 42.736C54.592 42.7825 54.505 42.8065 54.385 42.8065H53.23Z" fill="#343534"/>
<path fill-rule="evenodd" clip-rule="evenodd" d="M62.0155 37.732V38.974C62.656 38.3965 63.136 38.0245 63.454 37.858C63.772 37.6915 64.066 37.609 64.336 37.609C64.6285 37.609 64.9015 37.708 65.1535 37.9045C65.4055 38.1025 65.5315 38.251 65.5315 38.353C65.5315 38.4265 65.5075 38.488 65.458 38.5375C65.4085 38.587 65.347 38.611 65.2735 38.611C65.2345 38.611 65.2015 38.605 65.173 38.59C65.146 38.5765 65.095 38.533 65.0215 38.458C64.885 38.3215 64.765 38.2285 64.6645 38.1775C64.5625 38.1265 64.462 38.101 64.3645 38.101C64.15 38.101 63.8905 38.1865 63.589 38.359C63.286 38.5315 62.7625 38.95 62.0155 39.619V42.3145H64.195C64.3165 42.3145 64.402 42.337 64.453 42.382C64.504 42.427 64.5295 42.4855 64.5295 42.5605C64.5295 42.631 64.504 42.6895 64.453 42.736C64.402 42.7825 64.3165 42.8065 64.195 42.8065H60.334C60.217 42.8065 60.133 42.784 60.082 42.739C60.031 42.694 60.0055 42.637 60.0055 42.5665C60.0055 42.5005 60.0295 42.445 60.079 42.4C60.1285 42.3535 60.2125 42.3325 60.334 42.3325H61.5235V38.23H60.6145C60.4975 38.23 60.4135 38.206 60.3625 38.1595C60.313 38.113 60.2875 38.0515 60.2875 37.978C60.2875 37.9075 60.3115 37.849 60.3595 37.8025C60.409 37.756 60.4945 37.732 60.6145 37.732H62.0155Z" fill="#343534"/>
<path fill-rule="evenodd" clip-rule="evenodd" d="M75.4465 38.23V38.0665C75.4465 37.945 75.472 37.858 75.517 37.81C75.565 37.7575 75.6235 37.732 75.6925 37.732C75.766 37.732 75.8275 37.7575 75.8755 37.81C75.9205 37.858 75.9445 37.945 75.9445 38.0665V39.1795C75.9415 39.2995 75.916 39.3865 75.8725 39.439C75.826 39.487 75.766 39.5125 75.6925 39.5125C75.6265 39.5125 75.571 39.49 75.5275 39.4465C75.481 39.403 75.454 39.325 75.4465 39.22C75.4225 38.9425 75.241 38.6785 74.899 38.4295C74.5585 38.179 74.0965 38.0545 73.519 38.0545C72.7885 38.0545 72.2335 38.2825 71.854 38.74C71.476 39.1975 71.287 39.721 71.287 40.3105C71.287 40.9495 71.497 41.4715 71.914 41.8885C72.331 42.301 72.874 42.508 73.537 42.508C73.9195 42.508 74.311 42.4375 74.7055 42.2965C75.1015 42.157 75.46 41.929 75.781 41.617C75.862 41.539 75.937 41.5 75.9985 41.5C76.0645 41.5 76.1215 41.5225 76.165 41.5675C76.2085 41.6125 76.231 41.668 76.231 41.734C76.231 41.9035 76.0345 42.115 75.64 42.373C75.004 42.79 74.2945 43 73.513 43C72.721 43 72.0685 42.7465 71.56 42.241C71.0485 41.7355 70.7935 41.095 70.7935 40.3165C70.7935 39.523 71.0545 38.8645 71.5765 38.3425C72.0985 37.8175 72.7555 37.5565 73.5475 37.5565C74.302 37.5565 74.9365 37.783 75.4465 38.23Z" fill="#343534"/>
<path fill-rule="evenodd" clip-rule="evenodd" d="M82.5625 35.4535V38.4835C82.8745 38.143 83.1745 37.903 83.4625 37.765C83.749 37.627 84.0685 37.5565 84.4255 37.5565C84.8095 37.5565 85.132 37.624 85.402 37.759C85.6675 37.894 85.8925 38.101 86.071 38.38C86.251 38.659 86.3425 38.953 86.3425 39.262V42.3145H86.893C87.0115 42.3145 87.097 42.337 87.148 42.382C87.1945 42.427 87.22 42.484 87.22 42.5605C87.22 42.631 87.1945 42.6895 87.148 42.736C87.097 42.7825 87.0115 42.8065 86.893 42.8065H85.291C85.1725 42.8065 85.0855 42.7825 85.0345 42.736C84.985 42.6895 84.9595 42.631 84.9595 42.5605C84.9595 42.484 84.985 42.427 85.0345 42.382C85.0855 42.337 85.1725 42.3145 85.291 42.3145H85.8445V39.298C85.8445 38.9425 85.7155 38.644 85.4605 38.4055C85.204 38.1685 84.8455 38.0485 84.391 38.0485C84.031 38.0485 83.7235 38.137 83.4685 38.3125C83.2855 38.4385 82.984 38.7325 82.5625 39.1975V42.3145H83.119C83.236 42.3145 83.3185 42.337 83.371 42.382C83.422 42.427 83.446 42.484 83.446 42.5605C83.446 42.631 83.422 42.6895 83.371 42.736C83.3185 42.7825 83.236 42.8065 83.119 42.8065H81.514C81.397 42.8065 81.313 42.7825 81.2605 42.736C81.211 42.6895 81.184 42.631 81.184 42.5605C81.184 42.484 81.211 42.427 81.2605 42.382C81.313 42.337 81.397 42.3145 81.514 42.3145H82.069V35.9515H81.406C81.289 35.9515 81.2065 35.9275 81.1555 35.881C81.1045 35.8345 81.0805 35.773 81.0805 35.6995C81.0805 35.629 81.1045 35.5705 81.1555 35.524C81.2065 35.4775 81.289 35.4535 81.406 35.4535H82.5625Z" fill="#343534"/>
<path fill-rule="evenodd" clip-rule="evenodd" d="M94.489 36.478H95.215V35.206H94.489V36.478ZM95.2315 37.732V42.3145H97.1665C97.2865 42.3145 97.3735 42.337 97.423 42.382C97.474 42.427 97.4995 42.4855 97.4995 42.5605C97.4995 42.631 97.474 42.6895 97.423 42.736C97.3735 42.7825 97.2865 42.8065 97.1665 42.8065H92.806C92.689 42.8065 92.605 42.7825 92.554 42.736C92.5045 42.6895 92.479 42.631 92.479 42.5605C92.479 42.4855 92.5045 42.427 92.554 42.382C92.605 42.337 92.689 42.3145 92.806 42.3145H94.7395V38.23H93.304C93.187 38.23 93.103 38.2075 93.049 38.1595C92.9965 38.113 92.971 38.0545 92.971 37.984C92.971 37.9105 92.9965 37.849 93.046 37.8025C93.097 37.756 93.184 37.732 93.304 37.732H95.2315Z" fill="#343534"/>
<path fill-rule="evenodd" clip-rule="evenodd" d="M104.751 37.732H107.422C107.538 37.732 107.625 37.756 107.674 37.8025C107.724 37.849 107.751 37.9105 107.751 37.984C107.751 38.0545 107.724 38.113 107.674 38.1595C107.625 38.206 107.538 38.23 107.422 38.23H104.751V41.506C104.751 41.791 104.865 42.028 105.094 42.22C105.321 42.412 105.657 42.508 106.096 42.508C106.431 42.508 106.788 42.4585 107.176 42.358C107.563 42.259 107.865 42.1465 108.079 42.022C108.156 41.9695 108.22 41.9455 108.273 41.9455C108.334 41.9455 108.39 41.9695 108.436 42.019C108.481 42.067 108.505 42.1255 108.505 42.1915C108.505 42.25 108.48 42.304 108.43 42.355C108.306 42.484 108 42.6235 107.52 42.775C107.035 42.925 106.573 43 106.132 43C105.559 43 105.1 42.865 104.761 42.595C104.422 42.3265 104.253 41.9635 104.253 41.506V38.23H103.344C103.225 38.23 103.143 38.206 103.093 38.1595C103.041 38.113 103.017 38.0515 103.017 37.978C103.017 37.9075 103.041 37.849 103.093 37.8025C103.143 37.756 103.225 37.732 103.344 37.732H104.253V36.2785C104.253 36.1615 104.277 36.0775 104.322 36.0265C104.37 35.977 104.428 35.9515 104.499 35.9515C104.571 35.9515 104.632 35.977 104.68 36.0265C104.725 36.0775 104.751 36.1615 104.751 36.2785V37.732Z" fill="#343534"/>
<path fill-rule="evenodd" clip-rule="evenodd" d="M118.715 39.889C118.618 39.346 118.362 38.905 117.943 38.5645C117.529 38.2255 117.034 38.0545 116.459 38.0545C115.883 38.0545 115.391 38.2225 114.976 38.557C114.563 38.8945 114.306 39.3385 114.204 39.889H118.715ZM119.213 40.387H114.196C114.281 41.0245 114.55 41.536 114.997 41.9245C115.444 42.313 115.999 42.508 116.657 42.508C117.026 42.508 117.409 42.448 117.812 42.3265C118.216 42.205 118.541 42.043 118.798 41.845C118.871 41.7865 118.936 41.758 118.991 41.758C119.053 41.758 119.108 41.782 119.155 41.8315C119.2 41.8795 119.224 41.938 119.224 42.004C119.224 42.07 119.192 42.1345 119.129 42.1975C118.942 42.3925 118.611 42.5755 118.131 42.745C117.654 42.9145 117.161 43 116.657 43C115.813 43 115.111 42.7225 114.547 42.169C113.98 41.6185 113.698 40.9495 113.698 40.1635C113.698 39.4495 113.965 38.836 114.494 38.3245C115.024 37.813 115.678 37.5565 116.459 37.5565C117.265 37.5565 117.926 37.8205 118.444 38.3455C118.966 38.8705 119.219 39.5515 119.213 40.387Z" fill="#343534"/>
<path fill-rule="evenodd" clip-rule="evenodd" d="M129.393 38.23V38.0665C129.393 37.945 129.416 37.858 129.463 37.81C129.509 37.7575 129.568 37.732 129.639 37.732C129.712 37.732 129.774 37.7575 129.82 37.81C129.867 37.858 129.89 37.945 129.89 38.0665V39.1795C129.887 39.2995 129.862 39.3865 129.817 39.439C129.772 39.487 129.712 39.5125 129.639 39.5125C129.573 39.5125 129.517 39.49 129.472 39.4465C129.427 39.403 129.4 39.325 129.393 39.22C129.369 38.9425 129.187 38.6785 128.845 38.4295C128.503 38.179 128.043 38.0545 127.465 38.0545C126.735 38.0545 126.18 38.2825 125.8 38.74C125.422 39.1975 125.233 39.721 125.233 40.3105C125.233 40.9495 125.442 41.4715 125.86 41.8885C126.277 42.301 126.818 42.508 127.483 42.508C127.865 42.508 128.256 42.4375 128.652 42.2965C129.048 42.157 129.406 41.929 129.727 41.617C129.808 41.539 129.882 41.5 129.943 41.5C130.011 41.5 130.066 41.5225 130.111 41.5675C130.155 41.6125 130.177 41.668 130.177 41.734C130.177 41.9035 129.981 42.115 129.586 42.373C128.95 42.79 128.241 43 127.459 43C126.666 43 126.014 42.7465 125.504 42.241C124.994 41.7355 124.74 41.095 124.74 40.3165C124.74 39.523 125.002 38.8645 125.523 38.3425C126.045 37.8175 126.701 37.5565 127.493 37.5565C128.248 37.5565 128.881 37.783 129.393 38.23Z" fill="#343534"/>
<path fill-rule="evenodd" clip-rule="evenodd" d="M137.118 37.732H139.789C139.906 37.732 139.992 37.756 140.041 37.8025C140.092 37.849 140.118 37.9105 140.118 37.984C140.118 38.0545 140.092 38.113 140.041 38.1595C139.992 38.206 139.906 38.23 139.789 38.23H137.118V41.506C137.118 41.791 137.232 42.028 137.461 42.22C137.689 42.412 138.024 42.508 138.465 42.508C138.798 42.508 139.156 42.4585 139.543 42.358C139.93 42.259 140.232 42.1465 140.446 42.022C140.524 41.9695 140.589 41.9455 140.64 41.9455C140.701 41.9455 140.757 41.9695 140.803 42.019C140.85 42.067 140.874 42.1255 140.874 42.1915C140.874 42.25 140.848 42.304 140.797 42.355C140.673 42.484 140.368 42.6235 139.887 42.775C139.404 42.925 138.942 43 138.501 43C137.926 43 137.469 42.865 137.13 42.595C136.789 42.3265 136.62 41.9635 136.62 41.506V38.23H135.712C135.594 38.23 135.51 38.206 135.46 38.1595C135.409 38.113 135.384 38.0515 135.384 37.978C135.384 37.9075 135.409 37.849 135.46 37.8025C135.51 37.756 135.594 37.732 135.712 37.732H136.62V36.2785C136.62 36.1615 136.644 36.0775 136.69 36.0265C136.737 35.977 136.795 35.9515 136.866 35.9515C136.939 35.9515 137.001 35.977 137.047 36.0265C137.094 36.0775 137.118 36.1615 137.118 36.2785V37.732Z" fill="#343534"/>
<path fill-rule="evenodd" clip-rule="evenodd" d="M150.601 42.8065V42.088C149.93 42.6955 149.203 43 148.421 43C147.941 43 147.575 42.8695 147.325 42.607C147.002 42.2635 146.84 41.863 146.84 41.407V38.23H146.177C146.06 38.23 145.976 38.2075 145.925 38.1595C145.876 38.113 145.85 38.053 145.85 37.978C145.85 37.9075 145.876 37.849 145.925 37.8025C145.976 37.756 146.06 37.732 146.177 37.732H147.331V41.407C147.331 41.7265 147.434 41.9905 147.635 42.1975C147.839 42.4045 148.093 42.508 148.397 42.508C149.2 42.508 149.933 42.1405 150.601 41.407V38.23H149.692C149.575 38.23 149.494 38.2075 149.44 38.1595C149.39 38.113 149.365 38.053 149.365 37.978C149.365 37.9075 149.39 37.849 149.44 37.8025C149.494 37.756 149.575 37.732 149.692 37.732H151.093V42.3145H151.507C151.627 42.3145 151.711 42.3385 151.76 42.382C151.814 42.427 151.837 42.4855 151.837 42.5605C151.837 42.631 151.814 42.6895 151.76 42.736C151.711 42.7825 151.627 42.8065 151.507 42.8065H150.601Z" fill="#343534"/>
<path fill-rule="evenodd" clip-rule="evenodd" d="M159.118 37.732V38.974C159.757 38.3965 160.239 38.0245 160.557 37.858C160.873 37.6915 161.169 37.609 161.439 37.609C161.731 37.609 162.003 37.708 162.255 37.9045C162.507 38.1025 162.632 38.251 162.632 38.353C162.632 38.4265 162.609 38.488 162.559 38.5375C162.511 38.587 162.45 38.611 162.376 38.611C162.337 38.611 162.304 38.605 162.276 38.59C162.247 38.5765 162.198 38.533 162.123 38.458C161.988 38.3215 161.868 38.2285 161.766 38.1775C161.665 38.1265 161.566 38.101 161.467 38.101C161.252 38.101 160.995 38.1865 160.69 38.359C160.387 38.5315 159.864 38.95 159.118 39.619V42.3145H161.298C161.419 42.3145 161.503 42.337 161.556 42.382C161.607 42.427 161.631 42.4855 161.631 42.5605C161.631 42.631 161.607 42.6895 161.556 42.736C161.503 42.7825 161.419 42.8065 161.298 42.8065H157.435C157.318 42.8065 157.236 42.784 157.185 42.739C157.132 42.694 157.108 42.637 157.108 42.5665C157.108 42.5005 157.132 42.445 157.182 42.4C157.23 42.3535 157.315 42.3325 157.435 42.3325H158.626V38.23H157.717C157.6 38.23 157.516 38.206 157.465 38.1595C157.414 38.113 157.389 38.0515 157.389 37.978C157.389 37.9075 157.414 37.849 157.462 37.8025C157.51 37.756 157.595 37.732 157.717 37.732H159.118Z" fill="#343534"/>
<path fill-rule="evenodd" clip-rule="evenodd" d="M172.66 39.889C172.561 39.346 172.306 38.905 171.889 38.5645C171.474 38.2255 170.979 38.0545 170.404 38.0545C169.83 38.0545 169.336 38.2225 168.922 38.557C168.507 38.8945 168.249 39.3385 168.148 39.889H172.66ZM173.158 40.387H168.142C168.229 41.0245 168.496 41.536 168.94 41.9245C169.389 42.313 169.942 42.508 170.604 42.508C170.971 42.508 171.355 42.448 171.757 42.3265C172.161 42.205 172.489 42.043 172.743 41.845C172.816 41.7865 172.881 41.758 172.935 41.758C172.998 41.758 173.053 41.782 173.1 41.8315C173.146 41.8795 173.17 41.938 173.17 42.004C173.17 42.07 173.139 42.1345 173.076 42.1975C172.888 42.3925 172.557 42.5755 172.077 42.745C171.598 42.9145 171.108 43 170.604 43C169.759 43 169.056 42.7225 168.492 42.169C167.928 41.6185 167.644 40.9495 167.644 40.1635C167.644 39.4495 167.91 38.836 168.439 38.3245C168.967 37.813 169.623 37.5565 170.404 37.5565C171.208 37.5565 171.871 37.8205 172.39 38.3455C172.911 38.8705 173.166 39.5515 173.158 40.387Z" fill="#343534"/>
<path fill-rule="evenodd" clip-rule="evenodd" d="M194.491 40.282C194.491 39.6595 194.278 39.133 193.852 38.7025C193.426 38.272 192.928 38.056 192.358 38.056C191.788 38.056 191.29 38.272 190.864 38.7025C190.438 39.133 190.225 39.6595 190.225 40.282C190.225 40.903 190.438 41.428 190.864 41.86C191.29 42.292 191.788 42.508 192.358 42.508C192.928 42.508 193.426 42.292 193.852 41.86C194.278 41.428 194.491 40.903 194.491 40.282ZM190.219 35.4535V38.7175C190.812 37.942 191.53 37.558 192.37 37.558C193.089 37.558 193.704 37.816 194.215 38.338C194.727 38.8615 194.983 39.5005 194.983 40.258C194.983 41.0245 194.724 41.671 194.206 42.2035C193.69 42.7345 193.077 43 192.37 43C191.509 43 190.794 42.613 190.219 41.8405V42.8065H189.066C188.947 42.8065 188.865 42.7825 188.814 42.736C188.761 42.6895 188.737 42.631 188.737 42.562C188.737 42.4855 188.761 42.427 188.814 42.382C188.865 42.337 188.947 42.3145 189.066 42.3145H189.727V35.9515H189.066C188.947 35.9515 188.865 35.929 188.814 35.8795C188.761 35.8345 188.737 35.7745 188.737 35.698C188.737 35.6275 188.761 35.569 188.814 35.524C188.865 35.476 188.947 35.4535 189.066 35.4535H190.219Z" fill="#343534"/>
<path fill-rule="evenodd" clip-rule="evenodd" d="M204.548 42.8065V42.088C203.875 42.6955 203.149 43 202.369 43C201.887 43 201.523 42.8695 201.272 42.607C200.948 42.2635 200.786 41.863 200.786 41.407V38.23H200.125C200.006 38.23 199.924 38.2075 199.873 38.1595C199.82 38.113 199.796 38.053 199.796 37.978C199.796 37.9075 199.82 37.849 199.873 37.8025C199.924 37.756 200.006 37.732 200.125 37.732H201.278V41.407C201.278 41.7265 201.379 41.9905 201.583 42.1975C201.787 42.4045 202.04 42.508 202.345 42.508C203.146 42.508 203.879 42.1405 204.548 41.407V38.23H203.639C203.522 38.23 203.438 38.2075 203.387 38.1595C203.336 38.113 203.312 38.053 203.312 37.978C203.312 37.9075 203.336 37.849 203.387 37.8025C203.438 37.756 203.522 37.732 203.639 37.732H205.04V42.3145H205.456C205.573 42.3145 205.657 42.3385 205.708 42.382C205.759 42.427 205.784 42.4855 205.784 42.5605C205.784 42.631 205.759 42.6895 205.708 42.736C205.657 42.7825 205.573 42.8065 205.456 42.8065H204.548Z" fill="#343534"/>
<path fill-rule="evenodd" clip-rule="evenodd" d="M213.062 37.732V38.974C213.703 38.3965 214.184 38.0245 214.501 37.858C214.819 37.6915 215.114 37.609 215.383 37.609C215.677 37.609 215.948 37.708 216.2 37.9045C216.452 38.1025 216.578 38.251 216.578 38.353C216.578 38.4265 216.554 38.488 216.505 38.5375C216.457 38.587 216.395 38.611 216.32 38.611C216.281 38.611 216.25 38.605 216.22 38.59C216.193 38.5765 216.143 38.533 216.068 38.458C215.933 38.3215 215.812 38.2285 215.711 38.1775C215.611 38.1265 215.51 38.101 215.413 38.101C215.197 38.101 214.939 38.1865 214.636 38.359C214.333 38.5315 213.809 38.95 213.062 39.619V42.3145H215.243C215.365 42.3145 215.449 42.337 215.5 42.382C215.552 42.427 215.576 42.4855 215.576 42.5605C215.576 42.631 215.552 42.6895 215.5 42.736C215.449 42.7825 215.365 42.8065 215.243 42.8065H211.381C211.264 42.8065 211.181 42.784 211.129 42.739C211.078 42.694 211.054 42.637 211.054 42.5665C211.054 42.5005 211.078 42.445 211.126 42.4C211.175 42.3535 211.259 42.3325 211.381 42.3325H212.57V38.23H211.663C211.546 38.23 211.462 38.206 211.409 38.1595C211.36 38.113 211.334 38.0515 211.334 37.978C211.334 37.9075 211.36 37.849 211.406 37.8025C211.456 37.756 211.541 37.732 211.663 37.732H213.062Z" fill="#343534"/>
<path fill-rule="evenodd" clip-rule="evenodd" d="M226.607 39.889C226.508 39.346 226.252 38.905 225.836 38.5645C225.421 38.2255 224.926 38.0545 224.351 38.0545C223.777 38.0545 223.283 38.2225 222.869 38.557C222.452 38.8945 222.196 39.3385 222.096 39.889H226.607ZM227.105 40.387H222.089C222.176 41.0245 222.442 41.536 222.888 41.9245C223.336 42.313 223.888 42.508 224.551 42.508C224.918 42.508 225.302 42.448 225.703 42.3265C226.108 42.205 226.436 42.043 226.688 41.845C226.762 41.7865 226.826 41.758 226.882 41.758C226.945 41.758 227 41.782 227.047 41.8315C227.093 41.8795 227.118 41.938 227.118 42.004C227.118 42.07 227.086 42.1345 227.023 42.1975C226.835 42.3925 226.502 42.5755 226.024 42.745C225.545 42.9145 225.055 43 224.551 43C223.706 43 223.001 42.7225 222.437 42.169C221.875 41.6185 221.591 40.9495 221.591 40.1635C221.591 39.4495 221.857 38.836 222.385 38.3245C222.914 37.813 223.57 37.5565 224.351 37.5565C225.155 37.5565 225.817 37.8205 226.337 38.3455C226.858 38.8705 227.113 39.5515 227.105 40.387Z" fill="#343534"/>
<path fill-rule="evenodd" clip-rule="evenodd" d="M236.645 40.357C236.416 40.291 236.171 40.2415 235.913 40.2115C235.655 40.1785 235.384 40.1635 235.099 40.1635C234.383 40.1635 233.825 40.318 233.423 40.627C233.119 40.8565 232.966 41.1325 232.966 41.452C232.966 41.7505 233.081 41.9995 233.314 42.202C233.548 42.406 233.885 42.508 234.331 42.508C234.757 42.508 235.153 42.4225 235.517 42.253C235.882 42.0835 236.258 41.812 236.645 41.4415V40.357ZM236.645 42.8065V42.097C235.931 42.7 235.168 43 234.355 43C233.764 43 233.304 42.85 232.972 42.5515C232.639 42.253 232.474 41.887 232.474 41.452C232.474 40.9765 232.691 40.561 233.129 40.2055C233.567 39.85 234.206 39.6715 235.046 39.6715C235.273 39.6715 235.519 39.6865 235.784 39.715C236.05 39.745 236.336 39.7915 236.645 39.853V39.0565C236.645 38.7865 236.521 38.5525 236.27 38.353C236.02 38.1535 235.645 38.0545 235.145 38.0545C234.763 38.0545 234.226 38.1655 233.535 38.389C233.41 38.4265 233.329 38.4475 233.294 38.4475C233.231 38.4475 233.177 38.4235 233.132 38.377C233.087 38.329 233.065 38.2705 233.065 38.2015C233.065 38.134 233.084 38.0815 233.125 38.0425C233.177 37.984 233.399 37.9045 233.786 37.8025C234.395 37.639 234.857 37.5565 235.169 37.5565C235.79 37.5565 236.275 37.7095 236.623 38.0155C236.969 38.323 237.143 38.6695 237.143 39.0565V42.3145H237.8C237.922 42.3145 238.006 42.337 238.058 42.382C238.109 42.427 238.133 42.4855 238.133 42.5605C238.133 42.631 238.109 42.6895 238.058 42.736C238.006 42.7825 237.922 42.8065 237.8 42.8065H236.645Z" fill="#343534"/>
<path fill-rule="evenodd" clip-rule="evenodd" d="M247.703 42.8065V42.088C247.031 42.6955 246.305 43 245.524 43C245.044 43 244.679 42.8695 244.429 42.607C244.105 42.2635 243.941 41.863 243.941 41.407V38.23H243.28C243.163 38.23 243.079 38.2075 243.028 38.1595C242.977 38.113 242.951 38.053 242.951 37.978C242.951 37.9075 242.977 37.849 243.028 37.8025C243.079 37.756 243.163 37.732 243.28 37.732H244.435V41.407C244.435 41.7265 244.535 41.9905 244.739 42.1975C244.942 42.4045 245.195 42.508 245.5 42.508C246.302 42.508 247.036 42.1405 247.703 41.407V38.23H246.796C246.679 38.23 246.595 38.2075 246.544 38.1595C246.493 38.113 246.467 38.053 246.467 37.978C246.467 37.9075 246.493 37.849 246.544 37.8025C246.595 37.756 246.679 37.732 246.796 37.732H248.195V42.3145H248.612C248.729 42.3145 248.812 42.3385 248.864 42.382C248.915 42.427 248.939 42.4855 248.939 42.5605C248.939 42.631 248.915 42.6895 248.864 42.736C248.812 42.7825 248.729 42.8065 248.612 42.8065H247.703Z" fill="#343534"/>
</g>
<defs>
<clipPath id="clip0_7_1726">
<rect width="201" height="42" fill="white" transform="translate(49 1)"/>
</clipPath>
</defs>
</svg>
