<svg width="299" height="45" viewBox="0 0 299 45" fill="none" xmlns="http://www.w3.org/2000/svg">
<path d="M9.60293 20.9956L17.5758 31.3691C18.0104 31.9026 18.455 32.3076 18.9095 32.5843C19.3838 32.8411 19.9272 32.9795 20.5397 32.9992V33.2956H18.4946C18.2772 33.2956 17.9414 33.2857 17.4869 33.266C17.0324 33.2264 16.5187 33.1474 15.9457 33.0289C15.3925 32.8906 14.8293 32.6732 14.2563 32.3768C13.6832 32.0804 13.1793 31.6556 12.7446 31.1024C12.6854 31.0035 12.4976 30.7566 12.1815 30.3614C11.8851 29.9464 11.5097 29.4525 11.0552 28.8795C10.6008 28.2867 10.1265 27.6742 9.63257 27.0419C9.15835 26.3898 8.70388 25.7871 8.26919 25.2339C7.85425 24.6807 7.50847 24.2262 7.23184 23.8705C6.97497 23.5149 6.84653 23.337 6.84653 23.337L9.60293 20.9956ZM17.398 12.756L8.5063 23.2185L6.84653 23.337L14.9972 12.756H17.398ZM19.4727 12.5485V12.8153H19.3541C18.7021 12.8153 18.0896 12.9438 17.5165 13.2006C16.9633 13.4574 16.4891 13.8131 16.0939 14.2676L13.871 14.2083C14.1081 13.8724 14.1476 13.5563 13.9895 13.2599C13.8314 12.9635 13.5549 12.8153 13.1596 12.8153H12.8632V12.5485H19.3541H19.4727ZM5.8981 12.5485V33.2956H2.28218V12.5485H5.8981ZM2.37109 31.132V33.2956H0V32.9992C0.0197586 32.9992 0.07903 32.9992 0.177831 32.9992C0.296385 32.9992 0.365547 32.9992 0.385301 32.9992C0.899043 32.9992 1.33374 32.8214 1.6894 32.4657C2.06482 32.0904 2.26242 31.6458 2.28218 31.132H2.37109ZM2.37109 14.7122H2.28218C2.26242 14.1984 2.06482 13.7637 1.6894 13.4081C1.33374 13.0327 0.899043 12.8449 0.385301 12.8449C0.365547 12.8449 0.296385 12.8449 0.177831 12.8449C0.07903 12.8449 0.0197586 12.8449 0 12.8449V12.5485H2.37109V14.7122ZM5.80918 31.132H5.8981C5.91785 31.6458 6.10557 32.0904 6.46123 32.4657C6.83665 32.8214 7.28123 32.9992 7.79497 32.9992C7.79497 32.9992 7.85425 32.9992 7.9728 32.9992C8.09136 32.9992 8.16052 32.9992 8.18027 32.9992V33.2956H5.80918V31.132ZM5.80918 14.7122V12.5485H8.18027V12.8449C8.16052 12.8449 8.09136 12.8449 7.9728 12.8449C7.85425 12.8449 7.79497 12.8449 7.79497 12.8449C7.28123 12.8449 6.83665 13.0327 6.46123 13.4081C6.10557 13.7637 5.91785 14.1984 5.8981 14.7122H5.80918ZM28.9194 12.5485V33.2956H25.3035V12.5485H28.9194ZM36.7737 32.1397L37.2775 33.2956H28.8305V32.1397H36.7737ZM35.6474 22.5071V23.6334H28.8305V22.5071H35.6474ZM37.0404 12.5485V13.7044H28.8305V12.5485H37.0404ZM38.8484 27.6643L37.3664 33.2956H31.824L32.891 32.1397C33.8987 32.1397 34.768 31.9619 35.4992 31.6062C36.2302 31.2308 36.8427 30.7071 37.3368 30.0354C37.8307 29.3437 38.2357 28.5534 38.552 27.6643H38.8484ZM35.6474 23.5741V26.1231H35.351V25.797C35.351 25.1845 35.1435 24.6708 34.7286 24.2558C34.3137 23.8409 33.7999 23.6334 33.1874 23.6334V23.5741H35.6474ZM35.6474 20.0175V22.5664H33.1874V22.5071C33.7999 22.4874 34.3137 22.27 34.7286 21.8551C35.1435 21.4401 35.351 20.9264 35.351 20.3139V20.0175H35.6474ZM37.0404 13.6155V16.698H36.744V16.283C36.744 15.5321 36.5069 14.9196 36.0327 14.4454C35.5585 13.9515 34.9261 13.6945 34.1358 13.6748V13.6155H37.0404ZM37.0404 12.015V12.8746L33.4245 12.5485C33.8591 12.5485 34.3137 12.5189 34.7879 12.4596C35.2818 12.4003 35.7363 12.3311 36.1513 12.2522C36.5662 12.1732 36.8626 12.094 37.0404 12.015ZM25.3924 31.132V33.2956H23.0213V32.9992C23.0213 32.9992 23.0806 32.9992 23.1992 32.9992C23.3374 32.9992 23.4066 32.9992 23.4066 32.9992C23.9203 32.9992 24.3551 32.8214 24.7107 32.4657C25.0861 32.0904 25.2836 31.6458 25.3035 31.132H25.3924ZM25.3924 14.7122H25.3035C25.2836 14.1984 25.0861 13.7637 24.7107 13.4081C24.3551 13.0327 23.9203 12.8449 23.4066 12.8449C23.4066 12.8449 23.3374 12.8449 23.1992 12.8449C23.0806 12.8449 23.0213 12.8449 23.0213 12.8449V12.5485H25.3924V14.7122ZM64.3443 12.1336L64.5814 14.9493L56.2233 30.6281C56.2233 30.6281 56.1344 30.806 55.9566 31.1616C55.7787 31.4976 55.6009 31.9125 55.4231 32.4065C55.2452 32.9004 55.1464 33.3746 55.1267 33.8291H54.8303L53.9115 31.4877L64.3443 12.1336ZM44.8717 31.132V33.2956H41.5818V32.9992C41.6015 32.9992 41.6805 32.9992 41.8189 32.9992C41.9769 32.9992 42.056 32.9992 42.056 32.9992C42.5895 32.9992 43.0637 32.8411 43.4787 32.525C43.8936 32.1891 44.1405 31.7248 44.2196 31.132H44.8717ZM46.0276 31.6062C46.0276 31.6259 46.0276 31.6458 46.0276 31.6655C46.0276 31.6852 46.0276 31.7148 46.0276 31.7544C46.0276 32.0705 46.1362 32.3669 46.3536 32.6436C46.5907 32.9004 46.8673 33.0289 47.1835 33.0289H47.6281V33.2956H45.8201V31.6062H46.0276ZM46.5907 12.1336H46.8871L47.7763 14.7122L45.8498 33.2956H43.9529L46.5907 12.1336ZM46.8871 12.1336L56.1937 28.9091L54.8303 33.8291L46.1758 17.9131L46.8871 12.1336ZM64.611 12.1336L67.3378 33.2956H63.3959L61.8546 18.2392L64.3443 12.1336H64.611ZM66.419 31.132H67.0711C67.1698 31.7248 67.4168 32.1891 67.812 32.525C68.227 32.8411 68.7012 32.9992 69.2347 32.9992C69.2347 32.9992 69.3037 32.9992 69.4421 32.9992C69.6001 32.9992 69.689 32.9992 69.7089 32.9992V33.2956H66.419V31.132ZM63.218 31.6062H63.4255V33.2956H61.6175V33.0289H62.0621C62.3979 33.0289 62.6746 32.9004 62.892 32.6436C63.1093 32.3669 63.218 32.0705 63.218 31.7544C63.218 31.7148 63.218 31.6852 63.218 31.6655C63.218 31.6458 63.218 31.6259 63.218 31.6062ZM79.0772 12.5485V33.2956H75.4613V12.5485H79.0772ZM86.9315 32.1397L87.4353 33.2956H78.9883V32.1397H86.9315ZM85.8052 22.5071V23.6334H78.9883V22.5071H85.8052ZM87.1982 12.5485V13.7044H78.9883V12.5485H87.1982ZM89.0062 27.6643L87.5242 33.2956H81.9818L83.0488 32.1397C84.0565 32.1397 84.9258 31.9619 85.657 31.6062C86.388 31.2308 87.0005 30.7071 87.4946 30.0354C87.9885 29.3437 88.3935 28.5534 88.7098 27.6643H89.0062ZM85.8052 23.5741V26.1231H85.5088V25.797C85.5088 25.1845 85.3013 24.6708 84.8864 24.2558C84.4715 23.8409 83.9577 23.6334 83.3452 23.6334V23.5741H85.8052ZM85.8052 20.0175V22.5664H83.3452V22.5071C83.9577 22.4874 84.4715 22.27 84.8864 21.8551C85.3013 21.4401 85.5088 20.9264 85.5088 20.3139V20.0175H85.8052ZM87.1982 13.6155V16.698H86.9018V16.283C86.9018 15.5321 86.6647 14.9196 86.1905 14.4454C85.7163 13.9515 85.0839 13.6945 84.2936 13.6748V13.6155H87.1982ZM87.1982 12.015V12.8746L83.5823 12.5485C84.0169 12.5485 84.4714 12.5189 84.9457 12.4596C85.4396 12.4003 85.8941 12.3311 86.309 12.2522C86.724 12.1732 87.0204 12.094 87.1982 12.015ZM75.5502 31.132V33.2956H73.1791V32.9992C73.1791 32.9992 73.2384 32.9992 73.3569 32.9992C73.4952 32.9992 73.5644 32.9992 73.5644 32.9992C74.0781 32.9992 74.5129 32.8214 74.8685 32.4657C75.2439 32.0904 75.4414 31.6458 75.4613 31.132H75.5502ZM75.5502 14.7122H75.4613C75.4414 14.1984 75.2439 13.7637 74.8685 13.4081C74.5129 13.0327 74.0781 12.8449 73.5644 12.8449C73.5644 12.8449 73.4952 12.8449 73.3569 12.8449C73.2384 12.8449 73.1791 12.8449 73.1791 12.8449V12.5485H75.5502V14.7122ZM98.3917 12.5485V33.2956H94.7758V12.5485H98.3917ZM106.246 32.1397L106.75 33.2956H98.3028V32.1397H106.246ZM108.321 27.6643L106.839 33.2956H101.296L102.363 32.1397C103.371 32.1397 104.24 31.9619 104.972 31.6062C105.703 31.2308 106.315 30.7071 106.809 30.0354C107.303 29.3437 107.708 28.5534 108.024 27.6643H108.321ZM94.8647 31.132V33.2956H92.4936V32.9992C92.4936 32.9992 92.5529 32.9992 92.6715 32.9992C92.8097 32.9992 92.8789 32.9992 92.8789 32.9992C93.3927 32.9992 93.8274 32.8214 94.183 32.4657C94.5584 32.0904 94.7561 31.6458 94.7758 31.132H94.8647ZM94.8647 14.7122H94.7758C94.7561 14.1984 94.5584 13.7637 94.183 13.4081C93.8274 13.0327 93.3927 12.8449 92.8789 12.8449C92.8789 12.8449 92.8097 12.8449 92.6715 12.8449C92.5529 12.8449 92.4936 12.8449 92.4936 12.8449V12.5485H94.8647V14.7122ZM98.3028 14.7122V12.5485H100.674V12.8449C100.654 12.8449 100.585 12.8449 100.466 12.8449C100.348 12.8449 100.289 12.8449 100.289 12.8449C99.7748 12.8449 99.3302 13.0327 98.9549 13.4081C98.5992 13.7637 98.4114 14.1984 98.3917 14.7122H98.3028ZM117.943 12.5485V33.2956H114.327V12.5485H117.943ZM114.416 31.132V33.2956H112.045V32.9992C112.045 32.9992 112.104 32.9992 112.223 32.9992C112.361 32.9992 112.43 32.9992 112.43 32.9992C112.944 32.9992 113.379 32.8214 113.734 32.4657C114.11 32.0904 114.308 31.6458 114.327 31.132H114.416ZM114.416 14.7122H114.327C114.308 14.1984 114.11 13.7637 113.734 13.4081C113.379 13.0327 112.944 12.8449 112.43 12.8449C112.43 12.8449 112.361 12.8449 112.223 12.8449C112.104 12.8449 112.045 12.8449 112.045 12.8449V12.5485H114.416V14.7122ZM117.854 31.132H117.943C117.963 31.6458 118.151 32.0904 118.506 32.4657C118.882 32.8214 119.326 32.9992 119.84 32.9992C119.84 32.9992 119.899 32.9992 120.018 32.9992C120.136 32.9992 120.206 32.9992 120.225 32.9992V33.2956H117.854V31.132ZM117.854 14.7122V12.5485H120.225V12.8449C120.206 12.8449 120.136 12.8449 120.018 12.8449C119.899 12.8449 119.84 12.8449 119.84 12.8449C119.326 12.8449 118.882 13.0327 118.506 13.4081C118.151 13.7637 117.963 14.1984 117.943 14.7122H117.854ZM126.807 12.104L145.153 30.2428L145.479 33.7106L127.133 15.6013L126.807 12.104ZM126.926 31.1913V33.2956H124.466V32.9992C124.466 32.9992 124.554 32.9992 124.732 32.9992C124.91 32.9992 125.009 32.9992 125.029 32.9992C125.523 32.9992 125.948 32.8214 126.303 32.4657C126.659 32.1101 126.837 31.6852 126.837 31.1913H126.926ZM130.127 31.1913C130.127 31.6852 130.304 32.1101 130.66 32.4657C131.016 32.8214 131.441 32.9992 131.935 32.9992C131.954 32.9992 132.053 32.9992 132.231 32.9992C132.409 32.9992 132.498 32.9992 132.498 32.9992V33.2956H130.038V31.1913H130.127ZM126.807 12.104L130.097 15.6902L130.127 33.2956H126.837V15.8088C126.837 14.7418 126.777 13.8626 126.659 13.171C126.56 12.4596 126.511 12.104 126.511 12.104H126.807ZM145.42 12.5485V29.9168C145.42 30.6281 145.45 31.2703 145.509 31.8433C145.568 32.4164 145.618 32.8707 145.657 33.2067C145.717 33.5427 145.746 33.7106 145.746 33.7106H145.479L142.189 30.0057V12.5485H145.42ZM147.791 12.5485V12.8449C147.791 12.8449 147.702 12.8449 147.524 12.8449C147.347 12.8449 147.258 12.8449 147.258 12.8449C146.764 12.8449 146.339 13.0228 145.983 13.3784C145.628 13.7144 145.44 14.1391 145.42 14.6529H145.331V12.5485H147.791ZM139.789 12.5485H142.249V14.6529H142.189C142.17 14.1391 141.982 13.7144 141.626 13.3784C141.29 13.0228 140.866 12.8449 140.352 12.8449C140.352 12.8449 140.263 12.8449 140.085 12.8449C139.907 12.8449 139.808 12.8449 139.789 12.8449V12.5485Z" fill="#24292E"/>
<path d="M158.404 12.5782H162.316C163.58 12.5782 164.668 12.8055 165.576 13.2599C166.485 13.7144 167.187 14.3764 167.681 15.2457C168.174 16.0954 168.422 17.1129 168.422 18.2984C168.422 19.2075 168.244 20.0274 167.888 20.7585C167.533 21.4698 167.058 22.0725 166.466 22.5664C165.873 23.0605 165.201 23.4359 164.45 23.6927C163.699 23.9298 162.919 24.0187 162.109 23.9594C161.319 23.9002 160.548 23.673 159.797 23.2777V22.9814C159.797 22.9814 159.964 23.011 160.301 23.0703C160.637 23.1098 161.061 23.1198 161.575 23.0999C162.109 23.0605 162.661 22.9517 163.235 22.7739C163.828 22.5763 164.372 22.2404 164.865 21.7662C165.379 21.292 165.765 20.6301 166.021 19.7804C166.08 19.5631 166.129 19.2964 166.169 18.9801C166.209 18.6443 166.218 18.3183 166.199 18.0021C166.18 16.6387 165.824 15.542 165.132 14.7122C164.44 13.8823 163.462 13.4673 162.198 13.4673H158.7C158.7 13.4673 158.671 13.3983 158.611 13.2599C158.571 13.1019 158.522 12.9537 158.463 12.8153C158.423 12.6573 158.404 12.5782 158.404 12.5782ZM158.789 12.5782V33.3253H156.863V12.5782H158.789ZM156.952 31.1616V33.3253H154.58V33.0289C154.58 33.0289 154.64 33.0289 154.758 33.0289C154.896 33.0289 154.966 33.0289 154.966 33.0289C155.48 33.0289 155.914 32.851 156.27 32.4954C156.645 32.12 156.843 31.6754 156.863 31.1616H156.952ZM156.952 14.7418H156.863C156.863 14.2282 156.674 13.7934 156.299 13.4377C155.925 13.0623 155.48 12.8746 154.966 12.8746C154.966 12.8746 154.906 12.8746 154.788 12.8746C154.669 12.8746 154.61 12.8746 154.61 12.8746L154.58 12.5782H156.952V14.7418ZM158.7 31.1616H158.789C158.808 31.6754 158.997 32.12 159.352 32.4954C159.727 32.851 160.172 33.0289 160.686 33.0289C160.686 33.0289 160.745 33.0289 160.864 33.0289C161.002 33.0289 161.071 33.0289 161.071 33.0289V33.3253H158.7V31.1616ZM178.465 12.1632L187.238 33.1474H184.719L177.872 14.9789L178.465 12.1632ZM172.092 31.1616C171.953 31.5569 171.934 31.8928 172.033 32.1693C172.131 32.446 172.29 32.6634 172.507 32.8214C172.745 32.9598 172.982 33.0289 173.219 33.0289H173.485V33.3253H167.528V33.0289C167.528 33.0289 167.577 33.0289 167.676 33.0289C167.755 33.0289 167.795 33.0289 167.795 33.0289C168.248 33.0289 168.714 32.8906 169.188 32.6139C169.681 32.3175 170.086 31.8335 170.403 31.1616H172.092ZM178.465 12.1632L178.732 14.2379L171.292 33.2363H169.514L177.101 15.216C177.101 15.216 177.15 15.0975 177.25 14.8604C177.368 14.6035 177.496 14.2972 177.635 13.9416C177.792 13.5859 177.921 13.2402 178.02 12.9042C178.139 12.5684 178.198 12.3214 178.198 12.1632H178.465ZM182.644 25.2339V26.1231H173.367V25.2339H182.644ZM183.978 31.1616H186.408C186.704 31.8335 187.099 32.3175 187.593 32.6139C188.087 32.8906 188.561 33.0289 189.016 33.0289C189.016 33.0289 189.055 33.0289 189.135 33.0289C189.213 33.0289 189.253 33.0289 189.253 33.0289V33.3253H182.585V33.0289H182.851C183.226 33.0289 183.563 32.8709 183.859 32.5546C184.155 32.2188 184.194 31.7544 183.978 31.1616ZM194.526 12.5782H198.705C199.594 12.5782 200.394 12.7067 201.106 12.9635C201.836 13.2204 202.45 13.5958 202.943 14.0898C203.437 14.564 203.813 15.147 204.07 15.8384C204.347 16.5103 204.485 17.2809 204.485 18.1502C204.485 19.0987 204.258 20.0077 203.803 20.877C203.369 21.7465 202.766 22.4578 201.995 23.011C201.244 23.5445 200.394 23.8112 199.446 23.8112C199.782 23.9496 200.147 24.2361 200.543 24.6708C200.938 25.0857 201.284 25.4909 201.58 25.8859C201.58 25.8859 201.709 26.0836 201.965 26.4787C202.242 26.8542 202.577 27.3185 202.973 27.8717C203.388 28.4251 203.803 28.9684 204.218 29.5019C204.633 30.0354 204.988 30.4602 205.285 30.7763C205.68 31.2111 206.075 31.5964 206.47 31.9322C206.866 32.2682 207.29 32.5349 207.745 32.7325C208.219 32.9302 208.742 33.0289 209.316 33.0289V33.3253H207.686C206.777 33.3253 205.986 33.187 205.314 32.9103C204.662 32.6338 204.11 32.2978 203.655 31.9026C203.2 31.4877 202.814 31.0926 202.499 30.717C202.44 30.6381 202.272 30.4109 201.995 30.0354C201.739 29.66 201.421 29.2154 201.046 28.7016C200.691 28.1681 200.335 27.6446 199.979 27.1308C199.624 26.6171 199.317 26.1823 199.061 25.8267C198.804 25.4513 198.656 25.2339 198.616 25.1746C198.241 24.6807 197.826 24.2262 197.371 23.8112C196.916 23.3963 196.423 23.1888 195.889 23.1888V22.8924C195.889 22.8924 196.038 22.9024 196.334 22.9221C196.65 22.9221 197.026 22.9123 197.46 22.8924C197.974 22.8727 198.538 22.7937 199.15 22.6553C199.762 22.5171 200.335 22.2306 200.869 21.7958C201.402 21.3612 201.807 20.6992 202.084 19.81C202.143 19.5928 202.192 19.326 202.232 19.0098C202.272 18.674 202.281 18.3479 202.262 18.0317C202.242 16.6882 201.896 15.6212 201.224 14.8307C200.572 14.0207 199.693 13.5859 198.586 13.5266C198.034 13.4872 197.46 13.4773 196.867 13.497C196.294 13.497 195.811 13.497 195.415 13.497C195.019 13.497 194.822 13.497 194.822 13.497C194.822 13.4773 194.793 13.3983 194.733 13.2599C194.693 13.1019 194.645 12.9537 194.585 12.8153C194.545 12.6573 194.526 12.5782 194.526 12.5782ZM194.911 12.5782V33.3253H192.985V12.5782H194.911ZM193.074 31.1616V33.3253H190.703V33.0289C190.703 33.0289 190.762 33.0289 190.88 33.0289C191.018 33.0289 191.088 33.0289 191.088 33.0289C191.602 33.0289 192.036 32.851 192.392 32.4954C192.767 32.12 192.966 31.6754 192.985 31.1616H193.074ZM193.074 14.7418H192.985C192.966 14.2282 192.767 13.7934 192.392 13.4377C192.036 13.0623 191.602 12.8746 191.088 12.8746C191.088 12.8746 191.018 12.8746 190.88 12.8746C190.762 12.8746 190.703 12.8746 190.703 12.8746V12.5782H193.074V14.7418ZM194.822 31.1616H194.911C194.911 31.6754 195.099 32.12 195.474 32.4954C195.849 32.851 196.294 33.0289 196.808 33.0289C196.808 33.0289 196.867 33.0289 196.986 33.0289C197.105 33.0289 197.164 33.0289 197.164 33.0289V33.3253H194.822V31.1616ZM217.497 12.6671V33.3253H215.571V12.6671H217.497ZM225.115 12.5485V13.4377H207.954V12.5485H225.115ZM225.115 13.3488V15.7495L224.818 15.7199V15.216C224.818 14.7221 224.64 14.3072 224.285 13.9712C223.95 13.6354 223.544 13.4576 223.07 13.4377V13.3488H225.115ZM225.115 12.015V12.8746L221.499 12.5485C221.934 12.5485 222.388 12.5189 222.862 12.4596C223.357 12.4003 223.81 12.3313 224.225 12.2522C224.64 12.1732 224.937 12.0942 225.115 12.015ZM215.66 31.1616V33.3253H213.289V33.0289C213.289 33.0289 213.348 33.0289 213.467 33.0289C213.606 33.0289 213.674 33.0289 213.674 33.0289C214.188 33.0289 214.622 32.851 214.978 32.4954C215.355 32.12 215.552 31.6754 215.571 31.1616H215.66ZM217.409 31.1616H217.497C217.518 31.6754 217.705 32.12 218.061 32.4954C218.437 32.851 218.882 33.0289 219.394 33.0289C219.394 33.0289 219.454 33.0289 219.572 33.0289C219.711 33.0289 219.78 33.0289 219.78 33.0289V33.3253H217.409V31.1616ZM209.999 13.3488V13.4377C209.505 13.4576 209.09 13.6354 208.754 13.9712C208.419 14.3072 208.25 14.7221 208.25 15.216V15.7199L207.954 15.7495V13.3488H209.999ZM207.954 12.015C208.152 12.0942 208.449 12.1732 208.843 12.2522C209.258 12.3313 209.713 12.4003 210.206 12.4596C210.701 12.5189 211.155 12.5485 211.57 12.5485L207.954 12.8746V12.015ZM229.418 12.1336L246.638 30.5096L246.905 33.7402L229.685 15.3939L229.418 12.1336ZM229.477 31.2209V33.3253H227.017V33.0289C227.017 33.0289 227.106 33.0289 227.284 33.0289C227.462 33.0289 227.56 33.0289 227.58 33.0289C228.074 33.0289 228.499 32.851 228.855 32.4954C229.211 32.1397 229.388 31.715 229.388 31.2209H229.477ZM230.752 31.2209C230.752 31.715 230.93 32.1397 231.285 32.4954C231.641 32.851 232.065 33.0289 232.56 33.0289C232.579 33.0289 232.678 33.0289 232.856 33.0289C233.034 33.0289 233.123 33.0289 233.123 33.0289V33.3253H230.663V31.2209H230.752ZM229.418 12.1336L230.722 13.7934L230.752 33.3253H229.388V15.8384C229.388 14.8307 229.338 13.9614 229.24 13.2302C229.16 12.4992 229.122 12.1336 229.122 12.1336H229.418ZM246.905 12.5782V29.9464C246.905 30.5788 246.924 31.1913 246.964 31.784C247.003 32.3571 247.043 32.8313 247.083 33.2067C247.142 33.5624 247.172 33.7402 247.172 33.7402H246.905L245.571 32.1693V12.5782H246.905ZM249.276 12.5782V12.8746C249.276 12.8746 249.187 12.8746 249.009 12.8746C248.831 12.8746 248.743 12.8746 248.743 12.8746C248.248 12.8746 247.824 13.0524 247.468 13.4081C247.112 13.744 246.924 14.1689 246.905 14.6825H246.816V12.5782H249.276ZM243.17 12.5782H245.63V14.6825H245.571C245.55 14.1689 245.364 13.744 245.008 13.4081C244.672 13.0524 244.246 12.8746 243.734 12.8746C243.734 12.8746 243.645 12.8746 243.467 12.8746C243.289 12.8746 243.19 12.8746 243.17 12.8746V12.5782ZM256.302 12.5782V33.3253H254.375V12.5782H256.302ZM264.304 32.4065V33.3253H256.213V32.4065H264.304ZM263.03 22.6553V23.5445H256.213V22.6553H263.03ZM264.304 12.5782V13.497H256.213V12.5782H264.304ZM266.112 28.5238L264.393 33.3253H259.473L260.54 32.4065C261.588 32.4065 262.437 32.2485 263.089 31.9322C263.76 31.5964 264.304 31.132 264.719 30.5392C265.134 29.9464 265.5 29.2747 265.816 28.5238H266.112ZM263.03 23.4852V25.4414H262.733V24.9968C262.733 24.6017 262.596 24.2657 262.319 23.9891C262.041 23.6927 261.706 23.5445 261.311 23.5445V23.4852H263.03ZM263.03 20.7585V22.7146H261.311V22.6553C261.706 22.6356 262.041 22.4874 262.319 22.2107C262.596 21.9144 262.733 21.5686 262.733 21.1734V20.7585H263.03ZM264.304 13.4081V15.7792H264.008V15.2457C264.008 14.7714 263.84 14.3664 263.504 14.0305C263.168 13.6748 262.753 13.4872 262.259 13.4673V13.4081H264.304ZM264.304 12.0447V12.9042L260.688 12.5782C261.123 12.5782 261.578 12.5485 262.052 12.4893C262.545 12.43 263 12.3609 263.415 12.2818C263.83 12.2028 264.126 12.1238 264.304 12.0447ZM254.464 31.1616V33.3253H252.093V33.0289C252.093 33.0289 252.152 33.0289 252.271 33.0289C252.409 33.0289 252.478 33.0289 252.478 33.0289C252.993 33.0289 253.427 32.851 253.783 32.4954C254.158 32.12 254.356 31.6754 254.375 31.1616H254.464ZM254.464 14.7418H254.375C254.375 14.2282 254.187 13.7934 253.812 13.4377C253.437 13.0623 252.993 12.8746 252.478 12.8746C252.478 12.8746 252.419 12.8746 252.301 12.8746C252.182 12.8746 252.123 12.8746 252.123 12.8746L252.093 12.5782H254.464V14.7418ZM272.734 12.5782H276.913C277.802 12.5782 278.602 12.7067 279.313 12.9635C280.044 13.2204 280.656 13.5958 281.151 14.0898C281.644 14.564 282.019 15.147 282.277 15.8384C282.553 16.5103 282.692 17.2809 282.692 18.1502C282.692 19.0987 282.464 20.0077 282.01 20.877C281.575 21.7465 280.973 22.4578 280.202 23.011C279.451 23.5445 278.602 23.8112 277.654 23.8112C277.988 23.9496 278.355 24.2361 278.75 24.6708C279.144 25.0857 279.491 25.4909 279.788 25.8859C279.788 25.8859 279.915 26.0836 280.173 26.4787C280.449 26.8542 280.785 27.3185 281.181 27.8717C281.596 28.4251 282.01 28.9684 282.425 29.5019C282.84 30.0354 283.196 30.4602 283.492 30.7763C283.887 31.2111 284.282 31.5964 284.678 31.9322C285.072 32.2682 285.497 32.5349 285.952 32.7325C286.427 32.9302 286.95 33.0289 287.523 33.0289V33.3253H285.893C284.983 33.3253 284.193 33.187 283.522 32.9103C282.87 32.6338 282.316 32.2978 281.862 31.9026C281.407 31.4877 281.022 31.0926 280.706 30.717C280.647 30.6381 280.478 30.4109 280.202 30.0354C279.945 29.66 279.629 29.2154 279.254 28.7016C278.898 28.1681 278.543 27.6446 278.187 27.1308C277.831 26.6171 277.525 26.1823 277.268 25.8267C277.01 25.4513 276.862 25.2339 276.824 25.1746C276.447 24.6807 276.032 24.2262 275.579 23.8112C275.124 23.3963 274.63 23.1888 274.097 23.1888V22.8924C274.097 22.8924 274.245 22.9024 274.542 22.9221C274.857 22.9221 275.232 22.9123 275.668 22.8924C276.181 22.8727 276.744 22.7937 277.357 22.6553C277.969 22.5171 278.543 22.2306 279.076 21.7958C279.61 21.3612 280.014 20.6992 280.291 19.81C280.351 19.5928 280.4 19.326 280.44 19.0098C280.478 18.674 280.489 18.3479 280.469 18.0317C280.449 16.6882 280.103 15.6212 279.432 14.8307C278.78 14.0207 277.9 13.5859 276.794 13.5266C276.24 13.4872 275.668 13.4773 275.075 13.497C274.502 13.497 274.017 13.497 273.623 13.497C273.227 13.497 273.03 13.497 273.03 13.497C273.03 13.4773 273 13.3983 272.941 13.2599C272.901 13.1019 272.852 12.9537 272.793 12.8153C272.753 12.6573 272.734 12.5782 272.734 12.5782ZM273.119 12.5782V33.3253H271.192V12.5782H273.119ZM271.281 31.1616V33.3253H268.91V33.0289C268.91 33.0289 268.969 33.0289 269.088 33.0289C269.226 33.0289 269.295 33.0289 269.295 33.0289C269.808 33.0289 270.244 32.851 270.6 32.4954C270.974 32.12 271.172 31.6754 271.192 31.1616H271.281ZM271.281 14.7418H271.192C271.172 14.2282 270.974 13.7934 270.6 13.4377C270.244 13.0623 269.808 12.8746 269.295 12.8746C269.295 12.8746 269.226 12.8746 269.088 12.8746C268.969 12.8746 268.91 12.8746 268.91 12.8746V12.5782H271.281V14.7418ZM273.03 31.1616H273.119C273.119 31.6754 273.306 32.12 273.682 32.4954C274.057 32.851 274.501 33.0289 275.016 33.0289C275.016 33.0289 275.075 33.0289 275.194 33.0289C275.312 33.0289 275.371 33.0289 275.371 33.0289V33.3253H273.03V31.1616ZM294.05 12.1632C294.365 12.1632 294.702 12.1831 295.057 12.2225C295.432 12.2621 295.788 12.3214 296.124 12.4003C296.48 12.4596 296.796 12.5288 297.073 12.6078C297.369 12.6671 297.596 12.7363 297.755 12.8153V16.1052H297.488C297.488 15.1567 297.162 14.4158 296.51 13.8823C295.858 13.3291 295.068 13.0524 294.139 13.0524C293.052 13.0524 292.172 13.3983 291.501 14.0898C290.829 14.7617 290.493 15.552 290.493 16.4608C290.493 16.8364 290.572 17.2809 290.73 17.7946C290.908 18.2887 291.224 18.753 291.679 19.1876L297.517 24.5818C298.11 25.1352 298.506 25.728 298.703 26.3602C298.9 26.9925 298.999 27.605 298.999 28.1978C298.999 29.8378 298.495 31.1716 297.488 32.199C296.499 33.2266 295.157 33.7402 293.457 33.7402C292.983 33.7402 292.42 33.6908 291.768 33.592C291.135 33.4933 290.512 33.3253 289.9 33.0881C289.307 32.8313 288.814 32.5053 288.418 32.1101C288.359 31.794 288.329 31.3987 288.329 30.9245C288.329 30.4503 288.369 29.9564 288.448 29.4426C288.527 28.9091 288.636 28.4251 288.774 27.9903H289.041C288.941 28.998 289.07 29.8774 289.426 30.6281C289.782 31.379 290.296 31.9521 290.967 32.3472C291.659 32.7227 292.439 32.8906 293.309 32.851C294.395 32.7918 295.324 32.4164 296.095 31.7248C296.885 31.0134 297.28 30.065 297.28 28.8794C297.28 28.3065 297.181 27.7927 296.984 27.3382C296.787 26.864 296.499 26.459 296.124 26.1231L290.434 20.8474C289.841 20.2942 289.426 19.6915 289.189 19.0394C288.952 18.3677 288.833 17.7452 288.833 17.1722C288.833 16.3423 289.03 15.542 289.426 14.7714C289.822 14.0008 290.404 13.3784 291.175 12.9042C291.965 12.4103 292.923 12.1632 294.05 12.1632ZM297.755 12.4596V13.082H295.502V12.4596H297.755Z" fill="#24292E"/>
</svg>
