<?xml version="1.0" encoding="utf-8"?>
<!-- Generator: Adobe Illustrator 27.0.0, SVG Export Plug-In . SVG Version: 6.00 Build 0)  -->
<svg version="1.1" id="Слой_1" xmlns="http://www.w3.org/2000/svg" xmlns:xlink="http://www.w3.org/1999/xlink" x="0px" y="0px"
	 viewBox="0 0 1215.4 2340.1" style="enable-background:new 0 0 1215.4 2340.1;" xml:space="preserve">
<style type="text/css">
	.st0{fill:#BE8656;fill-opacity:1.000000e-02;}
	.st1{fill:#8DA7B3;fill-opacity:0.4;}
	.st2{fill-rule:evenodd;clip-rule:evenodd;fill:#003A50;}
	.st3{fill:#003A50;}
</style>
<g id="stikers">
	<path id="s-fl356" class="st0" d="M370.4,710.8h-318v125h318V710.8z"/>
	<path id="s-fl357" class="st0" d="M370.4,215.6h-318v125h318V215.6z"/>
	<path id="s-fl358" class="st0" d="M1173.4,215.6h-310v125h310V215.6z"/>
	<path id="s-fl359" class="st0" d="M1173.4,710.8h-310v125h310V710.8z"/>
	<path id="s-fl360" class="st0" d="M1173.4,1331.8h-310v125h310V1331.8z"/>
	<path id="s-fl361" class="st0" d="M1173.4,1695.8h-310v125h310V1695.8z"/>
	<path id="s-fl362" class="st0" d="M757.4,2056.2h-318v125h318V2056.2z"/>
	<path id="s-fl363" class="st0" d="M370.4,1695.8h-318v125h318V1695.8z"/>
	<path id="s-fl364" class="st0" d="M370.4,1331.8h-318v125h318V1331.8z"/>
</g>
<g id="flats">
	<path id="fl364" class="st1" d="M537,1439.8h-25.2v19.2H320.6v-134.9l-304.2,1.2v356.5l521.8,2.4l-5.2-44.3v-51.5L537,1439.8z"/>
	<path id="fl363" class="st1" d="M547,1693.3h-21.2v0.4H15.2v628.8h392.5v-412.4h125.7l-0.4-42.7v-51.5l0.4-16.8H547V1693.3z"/>
	<path id="fl362" class="st1" d="M775.8,2322.6H402.9v-401.3l198.4,1.2h51.9l130.2-6.8L775.8,2322.6z"/>
	<path id="fl361" class="st1" d="M1200.2,1538.8h-14.4v-71.9H689.6v-0.8h-22V1764l14.4,34.7v122.2l97-1.6V2321h421.6v-413.6h-0.4
		V1538.8z"/>
	<path id="fl360" class="st1" d="M1180.3,1136.3V1088H868.1v93.4H682v186.9v47.9l-4,48.7l508.3,1.2v-27.5h16v-302.2L1180.3,1136.3
		L1180.3,1136.3z"/>
	<path id="fl359" class="st1" d="M1177.5,1093.2v-37.5h24.4v-343H698.7v-39.1h-28.3v66.2l11.6,16.8v51.5l-2.4,95.4h29.9v19.6h154.1
		v169.7h313.8L1177.5,1093.2L1177.5,1093.2z"/>
	<path id="fl358" class="st1" d="M602.5,14v366.1l77.5,4l1.6,20v49.1L680.4,662l19.6,6.8l1.6,32.7h498.3V14H602.5z"/>
	<path id="fl357" class="st1" d="M594.5,15.6H15.2v472.3h280.7V555l250.3,2.4l-2-110.2l-0.4-52.7l51.1-12.4V15.6H594.5z"/>
	<path id="fl356" class="st1" d="M533,739v-51.5l-0.4-131.4H297.5v-69.9H15.2v318.6h11.6v53.5h482.3v1.2h38.7v-109L533,739z"/>
</g>
<g id="walls_outside">
	<path id="Vector" class="st2" d="M523.9,51.5h99.8V0l-99.8,12V51.5z M52.7,1082.4v-99.8H1.2l12,99.8H52.7z M52.7,1355.5v-99.8H1.2
		l12,99.8H52.7z M52.7,2112.1v-99.8H1.2l12,99.8H52.7z M52.7,1734.4v-99.8H1.2l12,99.8H52.7z M52.7,316.6v-99.8H1.2l12,99.8H52.7z
		 M207.6,2288.6h99.8v51.5l-99.8-12V2288.6z"/>
	<path id="Vector_2" class="st3" d="M52.7,24.8v99.4H2.4V24.8H52.7z M52.7,596.9v99.4H0v-99.4H52.7z M55.9,216.8v79.9H12.8v-79.9
		H55.9z"/>
	<path id="Vector_3" class="st3" d="M59.5,1.6v49.9H16V1.6H59.5z M307.9,1.6v49.9h-99V1.6H307.9z M434.8,1.6v49.9h-35.9V1.6H434.8z
		 M814.5,1.6v49.9h-28V1.6H814.5z"/>
	<path id="Vector_4" class="st3" d="M810.5,16v35.5h-95.4V16H810.5z M297.9,5.6v52.3h-80.7V5.6H297.9z M616.1,29.5v28.3h-80.7V29.5
		H616.1z"/>
	<path id="Vector_5" class="st2" d="M905.6,51.5h99.8V0l-99.8,12V51.5z"/>
	<path id="Vector_6" class="st3" d="M997.8,29.5v28.3h-80.7V29.5H997.8z M29.6,0.4v29.5H2.8V0.4H29.6z M52.7,409.6v98.6H12v-98.6
		H52.7z"/>
	<path id="Vector_7" class="st3" d="M48.3,409.6v27.2H2.4v-27.1h45.9V409.6z M52.7,789.4v101.4H22V789.4H52.7z"/>
	<path id="Vector_8" class="st3" d="M48.3,789.4v27.2H2.4v-27.2H48.3z M13.2,1173v-98.6h39.5v98.6H13.2z"/>
	<path id="Vector_9" class="st3" d="M2.4,1176.2v-29.9h46.3v29.9H2.4z M48.3,1332v-14.4h354.2v14.4H48.3z"/>
	<path id="Vector_10" class="st3" d="M45.9,1176.2v-14.4h501.9v14.4H45.9z M48.3,1050.1v-14.4h127v14.4H48.3z M238.8,1050.1v-14.4
		h59.5v14.4H238.8z M37.9,867.2v-14.4h511.9v14.4H37.9z M37.9,500.3v-14.4h259.9v14.4H37.9z M287.5,569.4V555h259.9v14.4H287.5z
		 M923.5,506.7v-14.4h83.4v14.4H923.5z"/>
	<path id="Vector_11" class="st3" d="M550.6,687.5H533v-133h17.6V687.5z M550.6,757.4H533V739h17.6V757.4z"/>
	<path id="Vector_12" class="st3" d="M550.6,759.8h-55.9v-12.4h55.9V759.8z"/>
	<path id="Vector_13" class="st3" d="M505.5,753.4V856h-10.8V753.4H505.5z M525.1,562.2h-12V451.6h12V562.2z"/>
	<path id="Vector_14" class="st3" d="M550.6,450.8v12h-37.9v-12H550.6z M681.6,377.3v17.6H533.4v-17.6H681.6z"/>
	<path id="Vector_15" class="st3" d="M664.8,386.1H682v17.6h-17.2V386.1z M664.8,452.8H682v209.6h-17.2V452.8z"/>
	<path id="Vector_16" class="st3" d="M664.8,653.6H682v22h-17.2V653.6z M664.8,733.9H682v23.2h-17.2V733.9z M664.8,808.5H682v105
		h-17.2V808.5z M664.8,1180.6H682v184.5h-17.2V1180.6z M664.8,1416.6H682v189.6h-17.2V1416.6z"/>
	<path id="Vector_17" class="st3" d="M664.8,1570.3H682v120.6h-17.2V1570.3z M664.8,1752.4H682v46.7h-17.2V1752.4z M689.6,1696.9
		H702v66.7h-12.4V1696.9z"/>
	<path id="Vector_18" class="st3" d="M668.4,1764.4V1752h33.5v12.4H668.4z M664.8,1850.6H682v68.7h-17.2V1850.6z"/>
	<path id="Vector_19" class="st3" d="M652.8,1922.1v-17.2h137.3v17.2H652.8z M401.3,1922.1v-17.2h200v17.2H401.3z"/>
	<path id="Vector_20" class="st3" d="M418.5,2301.8h-17.2v-388.1h17.2V2301.8z M550.2,1909.3H533v-41.9h17.2V1909.3z M125,1892.1v20
		H47.1v-20H125z M550.2,1815.9H533v-25.2h17.2V1815.9z M550.2,1692.1H533v-52.3h17.2V1692.1z M550.2,1588.3H533v-156.5h17.2V1588.3z
		"/>
	<path id="Vector_21" class="st3" d="M550.2,1463.3h-10.4v-152.1h10.4V1463.3z"/>
	<path id="Vector_22" class="st3" d="M550.2,1331.6H535v-94.2h15.2V1331.6z M550.2,1185.8H535v-142.9h15.2V1185.8z M545.8,1803.1
		h-42.3v-12.4h42.3V1803.1z"/>
	<path id="Vector_23" class="st3" d="M517.5,1802.7h-13.6v-113h13.6V1802.7z M792.6,2301.8h-17.2v-396.9h17.2V2301.8z M677.6,1476.5
		v-17.2h494.3v17.2H677.6z M664.8,1697.7v-13.2h262.7v13.2H664.8z M976.6,1697.7v-13.2h206.8v13.2H976.6z M664.8,744.2v-10.4h47.9
		v10.4H664.8z M664.8,914.7v-12.4h53.9v12.4H664.8z"/>
	<path id="Vector_24" class="st3" d="M718.3,935.5h-12.4v-33.1h12.4V935.5z M664.8,905.9H676v182.5h-11.2V905.9z M664.8,1139.1H676
		v39.5h-11.2V1139.1z M701.1,662.4h11.2v81.9h-11.2V662.4z"/>
	<path id="Vector_25" class="st3" d="M668.4,676v-16.4h43.9V676H668.4z M701.1,713.1v-17.2h466.7v17.2H701.1z M1089.6,898.4V876
		h78.3v22.4H1089.6z M867.6,1095.6v-16.8h300.2v16.8H867.6z M707.1,935.5v-18.4h167.3v18.4H707.1z M664.8,1183v-16.8h209.6v16.8
		H664.8z"/>
	<path id="Vector_26" class="st3" d="M875.6,1183h-18V919.5h18V1183z M592.5,53.1h17.2v328.2h-17.2V53.1z M392.9,199.6h17.2v86.2
		h-17.2V199.6z M297.9,569.4h-17.2V486h17.2V569.4z M37.9,890.8v-7.2h511.9v7.2H37.9z M359.4,1050.1v-14.4h73.5v14.4H359.4z"/>
	<path id="Vector_27" class="st3" d="M392.1,1165.1h-14.4v-123.4h14.4V1165.1z M274.3,1165.1h-14.4v-123.4h14.4V1165.1z
		 M152.9,1165.1h-14.4v-123.4h14.4V1165.1z M374.9,1327.2h-14.4v-96.6h14.4V1327.2z M374.9,1179.4h-14.4V1165h14.4V1179.4z
		 M495.1,1050.1v-14.4h55.1v14.4H495.1z M48.3,1695.7v-14.4h501.5v14.4H48.3z M456,1332v-14.4h94.2v14.4H456z M322.2,1473.7h-17.6
		V1330h17.6V1473.7z"/>
	<path id="Vector_28" class="st3" d="M512.3,1457.7v17.6H316.6v-17.6H512.3z M539.8,1431.8v11.2h-35.9v-11.2H539.8z"/>
	<path id="Vector_29" class="st3" d="M501.9,1432.6h11.2v41.1h-11.2V1432.6z M18.8,1542v-94.6h33.9v94.6H18.8z"/>
	<path id="Vector_30" class="st3" d="M2.4,1542v-27.2h46.3v27.2H2.4z M10,1921.3v-96.6h41.9v96.6H10z M10,2077v-64.7h46.7v64.7H10z"
		/>
	<path id="Vector_31" class="st3" d="M2.4,1921.3v-27.2h46.3v27.2H2.4z M16.4,2323.7v-119.8h36.3v119.8H16.4z"/>
	<path id="Vector_32" class="st3" d="M20.4,2323.7v-35.1h39.9v35.1H20.4z M525.1,2332.1v-43.5h100.2v43.5H525.1z M907.2,2332.1
		v-43.5h100.2v43.5H907.2z M400.1,2337.3v-48.7h28.3v48.7H400.1z"/>
	<path id="Vector_33" class="st3" d="M404.1,2313v-24.4h28.3v24.4H404.1z M912,2310.2v-28.4h86.2v28.3L912,2310.2L912,2310.2z
		 M531,2310.2v-28.4h86.2v28.3L531,2310.2L531,2310.2z M217.2,2310.2v-28.4h81.5v28.3L217.2,2310.2L217.2,2310.2z M1163.1,2324.2
		v-35.5h35.5v35.5H1163.1z M715.9,2324.2v-35.5h99.4v35.5H715.9z"/>
	<path id="Vector_34" class="st3" d="M1094,2336.1v-47.9h99.4v47.9H1094z M787,2336.1v-43.5h28.4v43.5H787z M2.4,2336.9v-27.1h27.2
		v27.2L2.4,2336.9L2.4,2336.9z"/>
	<path id="Vector_35" class="st2" d="M1163.9,965.4v-99.8h51.5l-12,99.8H1163.9z M1163.9,583.7v-99.8h51.5l-12,99.8H1163.9z
		 M1163.9,196v99.8h51.5l-12-99.8H1163.9z"/>
	<path id="Vector_36" class="st3" d="M1162.3,2310.6v-53.9h51.1v53.9H1162.3z M1157.1,2077v-61.5h10v61.5H1157.1z M1157.1,1916.1
		v-79.5h10v79.5H1157.1z M1186.6,2336.9v-26.4h26.8v26L1186.6,2336.9z"/>
	<path id="Vector_37" class="st3" d="M1163.9,1921.3v-98.6h25.6v98.6H1163.9z"/>
	<path id="Vector_38" class="st3" d="M1167.9,1921.3v-27.2h41.1v27.2H1167.9z M1163.9,773.4v-99.8h27.2v99.8H1163.9z"/>
	<path id="Vector_39" class="st3" d="M1167.9,773.4v-27.1h46.3v27.1H1167.9z"/>
	<path id="Vector_40" class="st2" d="M1163.9,1347.9v-99.8h51.5l-12,99.8H1163.9z"/>
	<path id="Vector_41" class="st3" d="M1163.9,1155.9v-100.2h27.2v100.2H1163.9z"/>
	<path id="Vector_42" class="st3" d="M1167.9,1155.9v-27.1h46.3v27.1H1167.9z"/>
	<path id="Vector_43" class="st2" d="M1163.9,1730.8V1631h51.5l-12,99.8H1163.9z M1163.9,2115.3v-99.8h51.5l-12,99.8H1163.9z"/>
	<path id="Vector_44" class="st3" d="M1163.9,1538.8v-100.2h25.6v100.2H1163.9z"/>
	<path id="Vector_45" class="st3" d="M1167.9,1538.8V1512h41.1v27.2L1167.9,1538.8z M1214.2,375.3v27.1h-50.3v-27.1H1214.2z
		 M1169.1,216.8v79.1h-11.6v-79.1H1169.1z M1169.1,485.9v80.7h-11.6v-80.7L1169.1,485.9L1169.1,485.9z M1200.2,14.8v35.1h-36.7V14.8
		H1200.2z"/>
	<path id="Vector_46" class="st3" d="M1199.8,16v91.4h-39.1V16H1199.8z"/>
	<path id="Vector_47" class="st3" d="M1183.5,14.8v36.3h-87.8V14.8H1183.5z M1214.2,2v31.9H1187V2H1214.2z"/>
</g>
</svg>
