<?xml version="1.0" encoding="utf-8"?>
<!-- Generator: Adobe Illustrator 27.0.0, SVG Export Plug-In . SVG Version: 6.00 Build 0)  -->
<svg version="1.1" id="Слой_1" xmlns="http://www.w3.org/2000/svg" xmlns:xlink="http://www.w3.org/1999/xlink" x="0px" y="0px"
	 viewBox="0 0 1215 2340.1" style="enable-background:new 0 0 1215 2340.1;" xml:space="preserve">
<style type="text/css">
	.st0{fill:#BE8656;fill-opacity:1.000000e-02;}
	.st1{fill:#8DA7B3;fill-opacity:0.4;}
	.st2{fill-rule:evenodd;clip-rule:evenodd;fill:#003A50;}
	.st3{fill:#003A50;}
</style>
<g id="stikers">
	<path id="s-fl374" class="st0" d="M370,711.8H52v125h318V711.8z"/>
	<path id="s-fl375" class="st0" d="M370,215.6H52v125h318V215.6z"/>
	<path id="s-fl376" class="st0" d="M1172,215.6H862v125h310V215.6z"/>
	<path id="s-fl377" class="st0" d="M1172,711.8H862v125h310V711.8z"/>
	<path id="s-fl378" class="st0" d="M1172,1331.8H862v125h310V1331.8z"/>
	<path id="s-fl379" class="st0" d="M1172,1695.8H862v125h310V1695.8z"/>
	<path id="s-fl380" class="st0" d="M757,2056.2H439v125h318V2056.2z"/>
	<path id="s-fl381" class="st0" d="M370,1695.8H52v125h318V1695.8z"/>
	<path id="s-fl382" class="st0" d="M370,1331.8H52v125h318V1331.8z"/>
</g>
<g id="flats">
	<path id="fl382" class="st1" d="M537.4,1439.8h-26v19.2H320.2v-134.9L16,1325.3v356.5l519.5,2.8l-2.8-44.7v-51.5L537.4,1439.8z"/>
	<path id="fl381" class="st1" d="M546.6,1693.3h-21.2v0.4H14.8v628.8h392.5v-412.4H533l-0.4-42.7v-51.5l14-16.8V1693.3z"/>
	<path id="fl380" class="st1" d="M781.4,2322.6H402.5v-401.3l198.4,1.2h51.9l128.2-3.6L781.4,2322.6z"/>
	<path id="fl379" class="st1" d="M1199.8,1908.1v-439.2H689.2v-0.8h-22v297.1l14.4,33.5v51.5l-4,64.7l103.4,1.2l0.8,404.5h418.8
		L1199.8,1908.1z"/>
	<path id="fl378" class="st1" d="M867.2,1088.4v92.6H672.8l8.4,183.7v51.5v47.1H1201V1088H867.2V1088.4z"/>
	<path id="fl377" class="st1" d="M698.3,713.1v-39.5H670v66.2l11.6,16.8v51.5l-2.4,95.4h29.9v19.6h154.1v169.7h339V712.3H698.3
		V713.1z"/>
	<path id="fl376" class="st1" d="M602.1,14v366.1l57.1,6l22.4,17.6v49.1l-1.2,212l20.8,2.8l4,31.5h494.3V14H602.1z"/>
	<path id="fl375" class="st1" d="M594.1,15.6H14.8v472.3h280.7V555l251.5,3.2l-3.2-111l-0.4-53.9l51.1-11.6V15.6H594.1z"/>
	<path id="fl374" class="st1" d="M532.6,739v-51.5l-0.4-131.4H297.1v-69.9H14.8v371.7h493.9v1.2h38.7v-109L532.6,739z"/>
</g>
<g id="walls_outside">
	<path id="Vector" class="st2" d="M523.5,51.5h99.8V0l-99.8,12V51.5z M52.3,1082.4v-99.8H0.8l12,99.8H52.3z M52.3,696.3v-99.8H0.8
		l12,99.8H52.3z M52.3,1355.5v-99.8H0.8l12,99.8H52.3z M906.8,2288.6h99.8v51.5l-99.8-12V2288.6z M525.1,2288.6h99.8v51.5l-99.8-12
		V2288.6z"/>
	<path id="Vector_2" class="st3" d="M52.3,24.8v43.9H14V24.8H52.3z M55.5,216.8v79.9H12.4v-79.9H55.5z"/>
	<path id="Vector_3" class="st3" d="M49.9,216.8v97.4H0v-97.4H49.9z M115.8,13.6v37.9H15.6V13.6H115.8z M307.5,1.6v49.9h-99V1.6
		H307.5z M434.4,1.6v49.9h-35.9V1.6H434.4z M814.1,1.6v49.9h-28V1.6H814.1z"/>
	<path id="Vector_4" class="st3" d="M810.1,16v35.5h-95.4V16H810.1z M297.5,5.6v52.3h-80.7V5.6H297.5z M615.7,29.5v28.3H535V29.5
		H615.7z"/>
	<path id="Vector_5" class="st2" d="M905.2,51.5h99.8V0l-99.8,12V51.5z"/>
	<path id="Vector_6" class="st3" d="M997.4,29.5v28.3h-80.7V29.5H997.4z M29.2,0.4v29.5H1.3V0.4H29.2z M52.3,409.6v98.6H11.6v-98.6
		H52.3z"/>
	<path id="Vector_7" class="st3" d="M47.9,409.6v27.2H2v-27.1h45.9V409.6z M52.3,789.4v101.4H12.8V789.4H52.3z"/>
	<path id="Vector_8" class="st3" d="M47.9,789.4v27.2H2v-27.2H47.9z M2,1173v-98.6h50.3v98.6H2z"/>
	<path id="Vector_9" class="st3" d="M2,1173v-27.2h46.3v27.2H2z M47.9,1332v-14.4h354.2v14.4H47.9z M51.1,1176.2v-14.4h496.7v14.4
		H51.1z M47.9,1050.1v-14.4h127v14.4H47.9z M238.4,1050.1v-14.4h59.5v14.4H238.4z M37.5,867.2v-14.4h511.9v14.4H37.5z M37.5,500.3
		v-14.4h259.9v14.4H37.5z M287.1,569.4V555H547v14.4H287.1z M923.1,506.7v-14.4h83.4v14.4H923.1z"/>
	<path id="Vector_10" class="st3" d="M550.2,687.5h-17.6v-133h17.6V687.5z M550.2,757.4h-17.6V739h17.6V757.4z"/>
	<path id="Vector_11" class="st3" d="M550.2,759.8h-55.9v-12.4h55.9V759.8z"/>
	<path id="Vector_12" class="st3" d="M505.1,753.4V856h-10.8V753.4H505.1z M524.7,562.2h-12V451.6h12V562.2z"/>
	<path id="Vector_13" class="st3" d="M550.2,450.8v12h-37.9v-12H550.2z M681.2,377.3v17.6H533v-17.6H681.2z"/>
	<path id="Vector_14" class="st3" d="M664.4,386.1h17.2v17.6h-17.2V386.1z M664.4,452.8h17.2v209.6h-17.2V452.8z"/>
	<path id="Vector_15" class="st3" d="M664.4,653.6h17.2v22h-17.2V653.6z M664.4,733.9h17.2v23.2h-17.2V733.9z M664.4,808.5h17.2v105
		h-17.2V808.5z M664.4,1180.6h17.2v184.5h-17.2V1180.6z M664.4,1416.6h17.2v189.6h-17.2V1416.6z"/>
	<path id="Vector_16" class="st3" d="M664.4,1570.3h17.2v120.6h-17.2V1570.3z M664.4,1752.4h17.2v46.7h-17.2V1752.4z M689.2,1696.9
		h12.4v66.7h-12.4V1696.9z"/>
	<path id="Vector_17" class="st3" d="M668,1764.4V1752h33.5v12.4H668z M664.4,1850.6h17.2v68.7h-17.2V1850.6z"/>
	<path id="Vector_18" class="st3" d="M652.4,1922.1v-17.2h137.3v17.2H652.4z M400.9,1922.1v-17.2h200v17.2H400.9z"/>
	<path id="Vector_19" class="st3" d="M418.1,2301.8h-17.2v-388.1h17.2V2301.8z M549.8,1909.3h-17.2v-41.9h17.2V1909.3z
		 M124.6,1892.1v20H46.7v-20H124.6z M549.8,1815.9h-17.2v-25.2h17.2V1815.9z M549.8,1692.1h-17.2v-52.3h17.2V1692.1z M549.8,1588.3
		h-17.2v-156.5h17.2V1588.3z"/>
	<path id="Vector_20" class="st3" d="M549.8,1463.3h-10.4v-152.1h10.4V1463.3z"/>
	<path id="Vector_21" class="st3" d="M549.8,1331.6h-15.2v-94.2h15.2V1331.6z M549.8,1185.8h-15.2v-142.9h15.2V1185.8z
		 M545.4,1803.1h-42.3v-12.4h42.3V1803.1z"/>
	<path id="Vector_22" class="st3" d="M517.1,1802.7h-13.6v-113h13.6V1802.7z M792.2,2301.8H775v-396.9h17.2V2301.8z M677.2,1476.5
		v-17.2h494.3v17.2H677.2z M664.4,1697.7v-13.2h262.7v13.2H664.4z M976.6,1697.7v-13.2H1183v13.2H976.6z M664.4,744.2v-10.4h47.9
		v10.4H664.4z M664.4,914.7v-12.4h53.9v12.4H664.4z"/>
	<path id="Vector_23" class="st3" d="M717.9,935.5h-12.4v-33.1h12.4V935.5z M664.4,905.9h11.2v182.5h-11.2V905.9z M664.4,1139.1
		h11.2v39.5h-11.2V1139.1z M700.7,662.4h11.2v81.9h-11.2V662.4z"/>
	<path id="Vector_24" class="st3" d="M668,676v-16.4h43.9V676H668z M700.7,713.1v-17.2h466.7v17.2H700.7z M1089.2,898.4V876h78.3
		v22.4H1089.2z M867.2,1095.6v-16.8h300.2v16.8H867.2z M706.7,935.5v-18.4H874v18.4H706.7z M664.4,1183v-16.8H874v16.8H664.4z"/>
	<path id="Vector_25" class="st3" d="M875.2,1183h-18V919.5h18V1183z M592.1,53.1h17.2v328.2h-17.2V53.1z M392.5,199.6h17.2v86.2
		h-17.2V199.6z M297.5,569.4h-16.4V486h16.4V569.4z M37.5,890.8v-7.2h511.9v7.2H37.5z M359,1050.1v-14.4h73.5v14.4H359z"/>
	<path id="Vector_26" class="st3" d="M391.7,1165.1h-14.4v-123.4h14.4V1165.1z M273.9,1165.1h-14.4v-123.4h14.4V1165.1z
		 M152.5,1165.1h-14.4v-123.4h14.4V1165.1z M374.5,1327.2h-14.4v-96.6h14.4V1327.2z M374.5,1179.4h-14.4V1165h14.4V1179.4z
		 M494.7,1050.1v-14.4h55.1v14.4H494.7z M47.9,1695.7v-14.4h501.5v14.4H47.9z M455.6,1332v-14.4h94.2v14.4H455.6z M321.8,1473.7
		h-17.6V1330h17.6V1473.7z"/>
	<path id="Vector_27" class="st3" d="M511.9,1457.7v17.6H316.2v-17.6H511.9z M539.4,1431.8v11.2h-35.9v-11.2H539.4z"/>
	<path id="Vector_28" class="st3" d="M501.5,1432.6h11.2v41.1h-11.2V1432.6z M16,1542v-94.6h36.3v94.6H16z"/>
	<path id="Vector_29" class="st3" d="M2,1542v-27.2h46.3v27.2H2z M9.6,1921.3v-96.6h42.7v96.6H9.6z"/>
	<path id="Vector_30" class="st3" d="M2,1921.3v-27.2h46.3v27.2H2z M16,2323.7v-63.1h36.3v63.1H16z"/>
	<path id="Vector_31" class="st3" d="M20,2323.7v-35.1h39.9v35.1H20z M207.2,2332.1v-43.5h100.2v43.5H207.2z M399.7,2337.3v-48.7
		H428v48.7H399.7z"/>
	<path id="Vector_32" class="st3" d="M403.7,2313v-24.4H432v24.4H403.7z M911.6,2310.2v-28.4h86.2v28.3L911.6,2310.2L911.6,2310.2z
		 M530.6,2310.2v-28.4h86.2v28.3L530.6,2310.2L530.6,2310.2z M216.8,2310.2v-28.4h81.5v28.3L216.8,2310.2L216.8,2310.2z
		 M1162.7,2324.2v-35.5h35.5v35.5H1162.7z M715.5,2324.2v-35.5h99.4v35.5H715.5z"/>
	<path id="Vector_33" class="st3" d="M1161.5,2324.2v-35.5h31.6v35.5H1161.5z M786.6,2336.1v-43.5H815v43.5H786.6z M2,2336.9v-27.1
		h27.2v27.1H2z M2,1730.8v-98.6h50.3v98.6H2z M2,2111.7v-100.6h50.3v100.6H2z"/>
	<path id="Vector_34" class="st3" d="M6.4,2077v-65.9h50.3v65.9H6.4z"/>
	<path id="Vector_35" class="st2" d="M1163.5,965.4v-99.8h51.5l-12,99.8H1163.5z M1163.5,583.7v-99.8h51.5l-12,99.8H1163.5z
		 M1163.5,295.9v-99.8h51.5l-12,99.8H1163.5z"/>
	<path id="Vector_36" class="st3" d="M1161.9,2310.6v-53.9h51.1v53.9H1161.9z M1156.7,2077v-61.5h10v61.5H1156.7z M1156.7,1916.1
		v-79.5h10v79.5H1156.7z M1186.2,2336.9v-26.4h26.8v26L1186.2,2336.9z"/>
	<path id="Vector_37" class="st3" d="M1163.5,1921.3v-98.6h39.1v98.6H1163.5z M1163.5,2112.1v-98.6h47.9v98.6H1163.5z"/>
	<path id="Vector_38" class="st3" d="M1167.5,1921.3v-27.2h41.1v27.2H1167.5z M1163.5,773.4v-99.8h39.5v99.8H1163.5z"/>
	<path id="Vector_39" class="st3" d="M1167.5,773.4v-27.1h46.3v27.1H1167.5z"/>
	<path id="Vector_40" class="st2" d="M1163.5,1347.9v-99.8h51.5l-12,99.8H1163.5z"/>
	<path id="Vector_41" class="st3" d="M1163.5,1155.9v-100.2h35.9v100.2H1163.5z"/>
	<path id="Vector_42" class="st3" d="M1167.5,1155.9v-27.1h46.3v27.1H1167.5z"/>
	<path id="Vector_43" class="st2" d="M1163.5,1730.8V1631h51.5l-12,99.8H1163.5z"/>
	<path id="Vector_44" class="st3" d="M1163.5,1538.8v-100.2h37.1v100.2H1163.5z"/>
	<path id="Vector_45" class="st3" d="M1167.5,1538.8V1512h46.7v27.2L1167.5,1538.8z M1213.8,375.3v27.1h-50.3v-27.1H1213.8z
		 M1168.7,216.8v79.1h-11.6v-79.1H1168.7z M1168.7,485.9v80.7h-11.6v-80.7L1168.7,485.9L1168.7,485.9z M1199.8,14.8v35.1h-36.7V14.8
		H1199.8z"/>
	<path id="Vector_46" class="st3" d="M1195.8,16v35.1h-35.1V16H1195.8z"/>
	<path id="Vector_47" class="st3" d="M1183.1,2v49.5h-87.8V2H1183.1z"/>
	<path id="Vector_48" class="st3" d="M1213.8,2v31.9h-40.3V2H1213.8z"/>
</g>
</svg>
