<?xml version="1.0" encoding="utf-8"?>
<!-- Generator: Adobe Illustrator 27.0.0, SVG Export Plug-In . SVG Version: 6.00 Build 0)  -->
<svg version="1.1" id="Слой_1" xmlns="http://www.w3.org/2000/svg" xmlns:xlink="http://www.w3.org/1999/xlink" x="0px" y="0px"
	 viewBox="0 0 1214.2 2340.1" style="enable-background:new 0 0 1214.2 2340.1;" xml:space="preserve">
<style type="text/css">
	.st0{fill:#BE8656;fill-opacity:1.000000e-02;}
	.st1{fill:#8DA7B3;fill-opacity:0.4;}
	.st2{fill-rule:evenodd;clip-rule:evenodd;fill:#003A50;}
	.st3{fill:#003A50;}
</style>
<g id="stikers">
	<path id="s-fl383" class="st0" d="M369.2,711.8h-318v125h318V711.8z"/>
	<path id="s-fl384" class="st0" d="M369.2,215.6h-318v125h318V215.6z"/>
	<path id="s-fl385" class="st0" d="M1171.2,215.6h-310v125h310V215.6z"/>
	<path id="s-fl386" class="st0" d="M1171.2,711.8h-310v125h310V711.8z"/>
	<path id="s-fl387" class="st0" d="M1171.2,1331.8h-310v125h310V1331.8z"/>
	<path id="s-fl388" class="st0" d="M1171.2,1695.8h-310v125h310V1695.8z"/>
	<path id="s-fl389" class="st0" d="M753.2,2056.2h-318v125h318V2056.2z"/>
	<path id="s-fl390" class="st0" d="M369.2,1695.8h-318v125h318V1695.8z"/>
	<path id="s-fl391" class="st0" d="M369.2,1331.8h-318v125h318V1331.8z"/>
</g>
<g id="flats">
	<path id="fl391" class="st1" d="M538.6,1440.6l-27.9-0.8v19.2H319.4v-134.9l-268.7,1.2v356.5l481.1-1.2h0.4v-41.1V1588
		L538.6,1440.6z"/>
	<path id="fl390" class="st1" d="M545.8,1693.3l-496.3,0.4v604.1h357.3v-387.7h125.8l-0.8-42.7v-51.5l14-16.8V1693.3z"/>
	<path id="fl389" class="st1" d="M783,2297.8H405.3l3.6-386.9l191.3,11.2h51.9l125.4-8.4L783,2297.8z"/>
	<path id="fl388" class="st1" d="M1163.9,1468.9l-497.5-0.8v297.1l14.4,33.5v51.5l-6.4,63.1l105,2.8l4,381.3l379.7-1.6
		L1163.9,1468.9z"/>
	<path id="fl387" class="st1" d="M866.4,1088.4l-3.6,86.2l-188.5,1.6l6,188.5v51.5v47.1h483.5V1088H866.3L866.4,1088.4L866.4,1088.4
		z"/>
	<path id="fl386" class="st1" d="M697.5,713.1v-39.5h-28.3v66.2l11.6,16.8v51.5l-2.4,95.4h29.9v19.6h154.1v169.7h302.2V712.3H697.5
		V713.1z"/>
	<path id="fl385" class="st1" d="M601.3,48.3v331.4h77.9l1.2,23.6v49.1l-1.2,216.4l24-1.2l4,32.7l457.6-2.8l-2.4-332.6V48.3H601.3z"
		/>
	<path id="fl384" class="st1" d="M593.3,49.9H49.5v438h245.2V555l251.5,3.2l-3.2-111v-49.1l9.2-13.6l41.1-2.4V49.9z"/>
	<path id="fl383" class="st1" d="M531.8,739v-51.5l-0.4-131.4H296.3v-69.9H49.5v371.7h246.4l251.1,1.2v-109L531.8,739z"/>
</g>
<g id="walls_outside">
	<path id="Vector" class="st2" d="M522.7,51.5h99.8V0l-99.8,12V51.5z M51.5,1082.4v-99.8H0l12,99.8H51.5z M51.5,1355.5v-99.8H0
		l12,99.8H51.5z M51.5,699.5v-99.8H0l12,99.8H51.5z M523.1,2288.6h99.8v51.5l-99.8-12V2288.6z"/>
	<path id="Vector_2" class="st3" d="M51.5,24.8v43.9H12V24.8H51.5z"/>
	<path id="Vector_3" class="st3" d="M114.2,13.6v37.9H14.8V13.6H114.2z M306.7,1.6v49.9h-99V1.6H306.7z M433.6,1.6v49.9h-35.9V1.6
		H433.6z M813.3,1.6v49.9h-28V1.6H813.3z"/>
	<path id="Vector_4" class="st3" d="M809.3,16v35.5h-95.4V16H809.3z M296.7,5.6v52.3H216V5.6H296.7z M614.9,29.5v28.3h-80.7V29.5
		H614.9z"/>
	<path id="Vector_5" class="st2" d="M904.4,51.5h99.8V0l-99.8,12V51.5z"/>
	<path id="Vector_6" class="st3" d="M996.6,29.5v28.3h-80.7V29.5H996.6z M28.4,3.6v26H1.6v-26C1.6,3.6,28.4,3.6,28.4,3.6z
		 M51.5,409.6v98.6H10.8v-98.6H51.5z"/>
	<path id="Vector_7" class="st3" d="M47.1,409.6v27.2H1.2v-27.1h45.9V409.6z M51.5,789.4v101.4H12V789.4H51.5z"/>
	<path id="Vector_8" class="st3" d="M47.1,789.4v27.2H1.2v-27.2H47.1z M12,1173v-98.6h39.5v98.6H12z"/>
	<path id="Vector_9" class="st3" d="M1.2,1173v-27.2h46.3v27.2H1.2z M47.1,1332v-14.4h354.2v14.4H47.1z M50.3,1176.2v-14.4H547v14.4
		H50.3z M47.1,1050.1v-14.4h127v14.4H47.1z M237.6,1050.1v-14.4h59.5v14.4H237.6z M36.7,867.2v-14.4h511.9v14.4H36.7z M36.7,500.3
		v-14.4h259.9v14.4H36.7z M286.3,569.4V555h259.9v14.4H286.3z M922.3,506.7v-14.4h83.4v14.4H922.3z"/>
	<path id="Vector_10" class="st3" d="M549.4,687.5h-17.6v-133h17.6V687.5z M549.4,757.4h-17.6V739h17.6V757.4z"/>
	<path id="Vector_11" class="st3" d="M549.4,759.8h-55.9v-12.4h55.9V759.8z"/>
	<path id="Vector_12" class="st3" d="M504.3,753.4V856h-10.8V753.4H504.3z M523.9,562.2h-12V451.6h12V562.2z"/>
	<path id="Vector_13" class="st3" d="M549.4,450.8v12h-37.9v-12H549.4z M680.4,377.3v17.6H532.2v-17.6H680.4z"/>
	<path id="Vector_14" class="st3" d="M663.6,386.1h17.2v17.6h-17.2V386.1z M663.6,452.8h17.2v209.6h-17.2V452.8z"/>
	<path id="Vector_15" class="st3" d="M663.6,653.6h17.2v22h-17.2V653.6z M663.6,733.9h17.2v23.2h-17.2V733.9z M663.6,808.5h17.2v105
		h-17.2V808.5z M663.6,1180.6h17.2v184.5h-17.2V1180.6z M663.6,1416.6h17.2v189.6h-17.2V1416.6z"/>
	<path id="Vector_16" class="st3" d="M663.6,1570.3h17.2v120.6h-17.2V1570.3z M663.6,1752.4h17.2v46.7h-17.2V1752.4z M688.4,1696.9
		h12.4v66.7h-12.4V1696.9z"/>
	<path id="Vector_17" class="st3" d="M667.2,1764.4V1752h33.5v12.4H667.2z M663.6,1850.6h17.2v68.7h-17.2V1850.6z"/>
	<path id="Vector_18" class="st3" d="M651.6,1922.1v-17.2h137.3v17.2H651.6z M400.1,1922.1v-17.2h200v17.2H400.1z"/>
	<path id="Vector_19" class="st3" d="M417.3,2301.8h-17.2v-388.1h17.2V2301.8z M549,1909.3h-17.2v-41.9H549V1909.3z M123.8,1892.1
		v20H45.9v-20H123.8z M549,1815.9h-17.2v-25.2H549V1815.9z M549,1692.1h-17.2v-52.3H549V1692.1z M549,1588.3h-17.2v-156.5H549
		V1588.3z"/>
	<path id="Vector_20" class="st3" d="M549,1463.3h-10.4v-152.1H549V1463.3z"/>
	<path id="Vector_21" class="st3" d="M549,1331.6h-15.2v-94.2H549V1331.6z M549,1185.8h-15.2v-142.9H549V1185.8z M544.6,1803.1
		h-42.3v-12.4h42.3V1803.1z"/>
	<path id="Vector_22" class="st3" d="M516.3,1802.7h-13.6v-113h13.6V1802.7z M791.4,2301.8h-17.2v-396.9h17.2V2301.8z M676.4,1476.5
		v-17.2h494.3v17.2H676.4z M663.6,1697.7v-13.2h262.7v13.2H663.6z M975.8,1697.7v-13.2h206v13.2H975.8z M663.6,744.2v-10.4h47.9
		v10.4H663.6z M663.6,914.7v-12.4h53.9v12.4H663.6z"/>
	<path id="Vector_23" class="st3" d="M717.1,935.5h-12.4v-33.1h12.4V935.5z M663.6,905.9h11.2v182.5h-11.2V905.9z M663.6,1139.1
		h11.2v39.5h-11.2V1139.1z M699.9,662.4h11.2v81.9h-11.2V662.4z"/>
	<path id="Vector_24" class="st3" d="M667.2,676v-16.4h43.9V676H667.2z M699.9,713.1v-17.2h466.7v17.2H699.9z M1088.4,898.4V876
		h78.3v22.4H1088.4z M866.4,1095.6v-16.8h300.2v16.8H866.4z M705.9,935.5v-18.4h167.3v18.4H705.9z M663.6,1183v-16.8h209.6v16.8
		H663.6z"/>
	<path id="Vector_25" class="st3" d="M874.4,1183h-18V919.5h18V1183z M591.3,53.1h17.2v328.2h-17.2V53.1z M391.7,199.6h17.2v86.2
		h-17.2V199.6z M296.7,569.4h-14.4V486h14.4V569.4z M36.7,890.8v-7.2h511.9v7.2H36.7z M358.2,1050.1v-14.4h73.5v14.4H358.2z"/>
	<path id="Vector_26" class="st3" d="M390.9,1165.1h-14.4v-123.4h14.4V1165.1z M273.1,1165.1h-14.4v-123.4h14.4V1165.1z
		 M151.7,1165.1h-14.4v-123.4h14.4V1165.1z M373.7,1327.2h-14.4v-96.6h14.4V1327.2z M373.7,1179.4h-14.4V1165h14.4V1179.4z
		 M493.9,1050.1v-14.4H549v14.4H493.9z M47.1,1695.7v-14.4h501.5v14.4H47.1z M454.8,1332v-14.4H549v14.4H454.8z M321,1473.7h-17.6
		V1330H321V1473.7z"/>
	<path id="Vector_27" class="st3" d="M511.1,1457.7v17.6H315.4v-17.6H511.1z M538.6,1431.8v11.2h-35.9v-11.2H538.6z"/>
	<path id="Vector_28" class="st3" d="M500.7,1432.6h11.2v41.1h-11.2V1432.6z M17.6,1542v-94.6h33.9v94.6H17.6z"/>
	<path id="Vector_29" class="st3" d="M1.2,1542v-27.2h46.3v27.2H1.2z M8.8,1921.3v-96.6h42.7v96.6H8.8z"/>
	<path id="Vector_30" class="st3" d="M1.2,1921.3v-27.2h46.3v27.2H1.2z M15.2,2323.7v-63.1h36.3v63.1H15.2z"/>
	<path id="Vector_31" class="st3" d="M19.2,2323.7v-35.1h39.9v35.1H19.2z M206.4,2332.1v-43.5h100.2v43.5H206.4z M398.9,2337.3
		v-48.7h28.3v48.7H398.9z"/>
	<path id="Vector_32" class="st3" d="M402.9,2313v-24.4h28.3v24.4H402.9z M905.6,2334.1v-45.9h100.2v45.9H905.6z"/>
	<path id="Vector_33" class="st3" d="M910.8,2310.2v-28.4H997v28.3L910.8,2310.2L910.8,2310.2z M529.8,2310.2v-28.4H616v28.3
		L529.8,2310.2L529.8,2310.2z M216,2310.2v-28.4h81.5v28.3L216,2310.2L216,2310.2z M1161.9,2324.2v-35.5h35.5v35.5H1161.9z
		 M714.7,2324.2v-35.5h99.4v35.5H714.7z"/>
	<path id="Vector_34" class="st3" d="M785.8,2336.1v-43.5h28.4v43.5H785.8z M1.2,2336.9v-27.1h27.2v27.2L1.2,2336.9L1.2,2336.9z
		 M1.2,2113.3v-98.2h50.3v98.6H1.2V2113.3z M1.2,1730.8v-98.6h50.3v98.6H1.2z M1.2,313.4v-98.2h50.3v98.6L1.2,313.4z"/>
	<path id="Vector_35" class="st3" d="M1.2,294.7v-79.9h55.1v79.5L1.2,294.7z"/>
	<path id="Vector_36" class="st2" d="M1162.7,965.4v-99.8h51.5l-12,99.8H1162.7z M1162.7,583.7v-99.8h51.5l-12,99.8H1162.7z
		 M1162.7,295.9v-99.8h51.5l-12,99.8H1162.7z"/>
	<path id="Vector_37" class="st3" d="M1161.1,2310.6v-49.9h51.1v49.9H1161.1z M1155.9,2077v-64.3h10v64.3H1155.9z M1155.9,1916.1
		v-79.5h10v79.5H1155.9z M1185.4,2336.9v-26.4h26.8v26L1185.4,2336.9z"/>
	<path id="Vector_38" class="st3" d="M1162.7,1921.3v-98.6h39.1v98.6H1162.7z M1162.7,2111.3v-98.6h49.1v98.6H1162.7z"/>
	<path id="Vector_39" class="st3" d="M1166.7,1921.3v-27.2h41.1v27.2H1166.7z M1162.7,773.4v-99.8h39.5v99.8H1162.7z"/>
	<path id="Vector_40" class="st3" d="M1166.7,773.4v-27.1h46.3v27.1H1166.7z"/>
	<path id="Vector_41" class="st2" d="M1162.7,1347.9v-99.8h51.5l-12,99.8H1162.7z"/>
	<path id="Vector_42" class="st3" d="M1162.7,1155.9v-100.2h35.9v100.2H1162.7z"/>
	<path id="Vector_43" class="st3" d="M1166.7,1155.9v-27.1h46.3v27.1H1166.7z"/>
	<path id="Vector_44" class="st2" d="M1162.7,1730.8V1631h51.5l-12,99.8H1162.7z"/>
	<path id="Vector_45" class="st3" d="M1162.7,1538.8v-100.2h35.1v100.2H1162.7z"/>
	<path id="Vector_46" class="st3" d="M1166.7,1538.8V1512h41.1v27.2L1166.7,1538.8z M1213,375.3v27.1h-50.3v-27.1H1213z
		 M1167.9,216.8v79.1h-11.6v-79.1H1167.9z M1167.9,485.9v80.7h-11.6v-80.7L1167.9,485.9L1167.9,485.9z M1199,14.8v35.1h-36.7V14.8
		H1199z"/>
	<path id="Vector_47" class="st3" d="M1195,2v48.3h-98.2V2H1195z"/>
	<path id="Vector_48" class="st3" d="M1213,2v31.9h-27.2V2H1213z"/>
</g>
</svg>
