<?xml version="1.0" encoding="utf-8"?>
<!-- Generator: Adobe Illustrator 27.0.0, SVG Export Plug-In . SVG Version: 6.00 Build 0)  -->
<svg version="1.1" id="Слой_1" xmlns="http://www.w3.org/2000/svg" xmlns:xlink="http://www.w3.org/1999/xlink" x="0px" y="0px"
	 viewBox="0 0 1214.2 2340.1" style="enable-background:new 0 0 1214.2 2340.1;" xml:space="preserve">
<style type="text/css">
	.st0{fill:#BE8656;fill-opacity:1.000000e-02;}
	.st1{fill:#8DA7B3;fill-opacity:0.4;}
	.st2{fill-rule:evenodd;clip-rule:evenodd;fill:#003A50;}
	.st3{fill:#003A50;}
</style>
<g id="stikers">
	<path id="s-fl401" class="st0" d="M369.2,712.8h-318v125h318V712.8z"/>
	<path id="s-fl402" class="st0" d="M369.2,215.6h-318v125h318V215.6z"/>
	<path id="s-fl403" class="st0" d="M1171.2,215.6h-310v125h310V215.6z"/>
	<path id="s-fl404" class="st0" d="M1171.2,712.8h-310v125h310V712.8z"/>
	<path id="s-fl405" class="st0" d="M1171.2,1331.8h-310v125h310V1331.8z"/>
	<path id="s-fl406" class="st0" d="M1171.2,1697.8h-310v125h310V1697.8z"/>
	<path id="s-fl407" class="st0" d="M753.2,2056.2h-318v125h318V2056.2z"/>
	<path id="s-fl408" class="st0" d="M369.2,1695.8h-318v125h318V1695.8z"/>
	<path id="s-fl409" class="st0" d="M369.2,1331.8h-318v125h318V1331.8z"/>
</g>
<g id="flats">
	<path id="fl409" class="st1" d="M538.6,1441l-27.9-1.2v19.2H319.4v-134.9l-293.1,1.2v356.5l509.1,6.8l-3.6-48.7v-51.5L538.6,1441z"
		/>
	<path id="fl408" class="st1" d="M545.8,1693.3l-521,0.4v628.8h381.7v-412.4h125.7l-0.4-42.7v-51.5l14-16.8V1693.3z"/>
	<path id="fl407" class="st1" d="M774.6,2322.6H401.7l2.8-406.1l195.2,6h51.9l127-3.6L774.6,2322.6z"/>
	<path id="fl406" class="st1" d="M1187.4,1908.1v-439.2h-499v-0.8h-22v297.1l14.4,33.5v113l98.2,6.4l0.8,403.3l408.5-0.8
		L1187.4,1908.1z"/>
	<path id="fl405" class="st1" d="M866.4,1088.4v92.6h-186v183.7v51.5v47.1h508.3V1088H866.5v0.4H866.4z"/>
	<path id="fl404" class="st1" d="M697.5,713.1v-39.5h-28.3v66.2l11.6,16.8v51.5l-2.4,95.4h29.9v19.6h154.1v169.7h327V712.3H697.5
		V713.1z"/>
	<path id="fl403" class="st1" d="M601.3,25.2v354.6l67.9,4l11.6,19.6v49.1l-1.2,212.8l20.4,4.8l3.2,32.7h483.9V25.2H601.3z"/>
	<path id="fl402" class="st1" d="M593.3,27.1H25.2v461.2h269.5v67.1l250.7,2.4L543,447.6l-0.8-65.5h51.1V27.1z"/>
	<path id="fl401" class="st1" d="M531.8,739v-51.5l5.6-127.8l-240.8-3.6v-69.9H25.2v371.7l521.4,1.2v-109L531.8,739z"/>
</g>
<g id="walls_outside">
	<path id="Vector" class="st2" d="M622.5,51.5h-99.8V0l99.8,12V51.5z M51.5,982.6v99.8H0l12-99.8H51.5z M51.5,1255.7v99.8H0l12-99.8
		H51.5z M51.5,2012.7v99.8H0l12-99.8L51.5,2012.7L51.5,2012.7z M51.5,599.7v99.8H0l12-99.8H51.5z M622.9,2288.6h-99.8v51.5l99.8-12
		V2288.6z M1001.8,2288.6H902v51.5l99.8-12V2288.6z"/>
	<path id="Vector_2" class="st3" d="M51.5,24.8v99.4H12V24.8H51.5z"/>
	<path id="Vector_3" class="st3" d="M114.2,1.6v49.9H14.8V1.6H114.2z M306.7,1.6v49.9h-99V1.6H306.7z M433.6,1.6v49.9h-35.9V1.6
		H433.6z M813.3,1.6v49.9h-28V1.6H813.3z"/>
	<path id="Vector_4" class="st3" d="M809.3,11.6v39.9h-95.4V11.6H809.3z M296.7,5.6v52.3H216V5.6H296.7z M614.9,29.5v28.3h-80.7
		V29.5H614.9z"/>
	<path id="Vector_5" class="st2" d="M1004.2,51.5h-99.8V0l99.8,12V51.5z"/>
	<path id="Vector_6" class="st3" d="M996.6,29.5v28.3h-80.7V29.5H996.6z M28.4,3.6v26H1.6v-26C1.6,3.6,28.4,3.6,28.4,3.6z
		 M51.5,409.6v98.6H10.8v-98.6H51.5z"/>
	<path id="Vector_7" class="st3" d="M47.1,409.6v27.2H1.2v-27.1h45.9V409.6z M51.5,789.4v101.4H12V789.4H51.5z"/>
	<path id="Vector_8" class="st3" d="M47.1,789.4v27.2H1.2v-27.2H47.1z M12,1173v-98.6h39.5v98.6H12z"/>
	<path id="Vector_9" class="st3" d="M1.2,1173v-27.2h46.3v27.2H1.2z M47.1,1332v-14.4h354.2v14.4H47.1z M50.3,1176.2v-14.4H547v14.4
		H50.3z M47.1,1050.1v-14.4h127v14.4H47.1z M237.6,1050.1v-14.4h59.5v14.4H237.6z M36.7,867.2v-14.4h511.9v14.4H36.7z M36.7,500.3
		v-14.4h259.9v14.4H36.7z M286.3,569.4V555h259.9v14.4H286.3z M922.3,506.7v-14.4h83.4v14.4H922.3z"/>
	<path id="Vector_10" class="st3" d="M549.4,687.5h-17.6V555.8h17.6V687.5z M549.4,757.4h-17.6V739h17.6V757.4z"/>
	<path id="Vector_11" class="st3" d="M549.4,759.8h-55.9v-12.4h55.9V759.8z"/>
	<path id="Vector_12" class="st3" d="M504.3,753.4V856h-10.8V753.4H504.3z M523.9,562.2h-12V451.6h12V562.2z"/>
	<path id="Vector_13" class="st3" d="M549.4,450.8v12h-37.9v-12H549.4z M680.4,377.3v17.6H532.2v-17.6H680.4z"/>
	<path id="Vector_14" class="st3" d="M663.6,386.1h17.2v17.6h-17.2V386.1z M663.6,452.8h17.2v209.6h-17.2V452.8z"/>
	<path id="Vector_15" class="st3" d="M663.6,653.6h17.2v22h-17.2V653.6z M663.6,733.9h17.2v23.2h-17.2V733.9z M663.6,808.5h17.2v105
		h-17.2V808.5z M663.6,1180.6h17.2v184.5h-17.2V1180.6z M663.6,1416.6h17.2v189.6h-17.2V1416.6z"/>
	<path id="Vector_16" class="st3" d="M663.6,1570.3h17.2v120.6h-17.2V1570.3z M663.6,1752.4h17.2v46.7h-17.2V1752.4z M688.4,1696.9
		h12.4v66.7h-12.4V1696.9z"/>
	<path id="Vector_17" class="st3" d="M667.2,1764.4V1752h33.5v12.4H667.2z M663.6,1850.6h17.2v68.7h-17.2V1850.6z"/>
	<path id="Vector_18" class="st3" d="M651.6,1922.1v-17.2h137.3v17.2H651.6z M400.1,1922.1v-17.2h200v17.2H400.1z"/>
	<path id="Vector_19" class="st3" d="M417.3,2301.8h-17.2v-388.1h17.2V2301.8z M549,1909.3h-17.2v-41.9H549V1909.3z M123.8,1892.1
		v20H45.9v-20H123.8z M549,1815.9h-17.2v-25.2H549V1815.9z M549,1692.1h-17.2v-52.3H549V1692.1z M549,1588.3h-17.2v-156.5H549
		V1588.3z"/>
	<path id="Vector_20" class="st3" d="M549,1463.3h-10.4v-152.1H549V1463.3z"/>
	<path id="Vector_21" class="st3" d="M549,1331.6h-15.2v-94.2H549V1331.6z M549,1185.8h-15.2v-142.9H549V1185.8z M544.6,1803.1
		h-42.3v-12.4h42.3V1803.1z"/>
	<path id="Vector_22" class="st3" d="M516.3,1802.7h-13.6v-113h13.6V1802.7z M791.4,2301.8h-17.2v-396.9h17.2V2301.8z M676.4,1476.5
		v-17.2h494.3v17.2H676.4z M663.6,1697.7v-13.2h262.7v13.2H663.6z M975.8,1697.7v-13.2h206v13.2H975.8z M663.6,744.2v-10.4h47.9
		v10.4H663.6z M663.6,914.7v-12.4h53.9v12.4H663.6z"/>
	<path id="Vector_23" class="st3" d="M717.1,935.5h-12.4v-33.1h12.4V935.5z M663.6,905.9h11.2v182.5h-11.2V905.9z M663.6,1139.1
		h11.2v39.5h-11.2V1139.1z M699.9,662.4h11.2v81.9h-11.2V662.4z"/>
	<path id="Vector_24" class="st3" d="M667.2,676v-16.4h43.9V676H667.2z M699.9,713.1v-17.2h466.7v17.2H699.9z M1088.4,898.4V876
		h78.3v22.4H1088.4z M866.4,1095.6v-16.8h300.2v16.8H866.4z M705.9,935.5v-18.4h167.3v18.4H705.9z M663.6,1183v-16.8h209.6v16.8
		H663.6z"/>
	<path id="Vector_25" class="st3" d="M874.4,1183h-18V919.5h18V1183z M591.3,53.1h17.2v328.2h-17.2V53.1z M391.7,199.6h17.2v86.2
		h-17.2V199.6z M296.7,569.4h-16.8V486h16.8V569.4z M36.7,890.8v-7.2h511.9v7.2H36.7z M358.2,1050.1v-14.4h73.5v14.4H358.2z"/>
	<path id="Vector_26" class="st3" d="M390.9,1165.1h-14.4v-123.4h14.4V1165.1z M273.1,1165.1h-14.4v-123.4h14.4V1165.1z
		 M151.7,1165.1h-14.4v-123.4h14.4V1165.1z M373.7,1327.2h-14.4v-96.6h14.4V1327.2z M373.7,1179.4h-14.4V1165h14.4V1179.4z
		 M493.9,1050.1v-14.4H549v14.4H493.9z M47.1,1695.7v-14.4h501.5v14.4H47.1z M454.8,1332v-14.4H549v14.4H454.8z M321,1473.7h-17.6
		V1330H321V1473.7z"/>
	<path id="Vector_27" class="st3" d="M511.1,1457.7v17.6H315.4v-17.6H511.1z M538.6,1431.8v11.2h-35.9v-11.2H538.6z"/>
	<path id="Vector_28" class="st3" d="M500.7,1432.6h11.2v41.1h-11.2V1432.6z M17.6,1542v-94.6h33.9v94.6H17.6z"/>
	<path id="Vector_29" class="st3" d="M1.2,1542v-27.2h46.3v27.2H1.2z M8.8,1921.3v-96.6h42.7v96.6H8.8z"/>
	<path id="Vector_30" class="st3" d="M1.2,1921.3v-27.2h46.3v27.2H1.2z M15.2,2323.7v-119.8h36.3v119.8H15.2z"/>
	<path id="Vector_31" class="st3" d="M19.2,2323.7v-35.1h39.9v35.1H19.2z M206.4,2332.1v-43.5h100.2v43.5H206.4z M398.9,2337.3
		v-48.7h28.3v48.7H398.9z"/>
	<path id="Vector_32" class="st3" d="M402.9,2313v-24.4h28.3v24.4H402.9z M1093.6,2334.1v-45.9h100.2v45.9H1093.6z M910.8,2310.2
		v-28.4H997v28.3L910.8,2310.2L910.8,2310.2z M529.8,2310.2v-28.4H616v28.3L529.8,2310.2L529.8,2310.2z M216,2310.2v-28.4h81.5v28.3
		L216,2310.2L216,2310.2z"/>
	<path id="Vector_33" class="st3" d="M1161.9,2324.2v-35.5h35.5v35.5H1161.9z M714.7,2324.2v-35.5h99.4v35.5H714.7z"/>
	<path id="Vector_34" class="st3" d="M785.8,2336.1v-43.5h28.4v43.5H785.8z M1.2,2336.9v-27.1h27.1v27.2L1.2,2336.9L1.2,2336.9z
		 M1.2,1730.8v-98.6h50.3v98.6H1.2z M1.2,313.4v-98.2h50.3v98.6L1.2,313.4z"/>
	<path id="Vector_35" class="st3" d="M1.2,294.7v-79.9h55.1v79.5L1.2,294.7z"/>
	<path id="Vector_36" class="st2" d="M1162.7,483.9v99.8h51.5l-12-99.8L1162.7,483.9L1162.7,483.9z"/>
	<path id="Vector_37" class="st3" d="M1161.1,2310.6v-107.8h51.1v107.8H1161.1z M1155.9,2077v-64.3h10v64.3H1155.9z M1155.9,1916.1
		v-79.5h10v79.5H1155.9z M1185.4,2336.9v-26.4h26.8v26L1185.4,2336.9z"/>
	<path id="Vector_38" class="st3" d="M1162.7,1921.3v-98.6h39.1v98.6H1162.7z M1162.7,2111.3v-98.6h49.1v98.6H1162.7z"/>
	<path id="Vector_39" class="st3" d="M1166.7,1921.3v-27.2h41.1v27.2H1166.7z M1162.7,773.4v-99.8h39.5v99.8H1162.7z M1162.7,104.6
		V28.7h39.5v75.9H1162.7z M1162.7,296.3V196h39.5v100.2h-39.5V296.3z M1162.7,963.4V863.2h50.3v100.2L1162.7,963.4L1162.7,963.4z"/>
	<path id="Vector_40" class="st3" d="M1166.7,773.4v-27.1h46.3v27.1H1166.7z M1162.7,1155.9v-100.2h35.9v100.2H1162.7z"/>
	<path id="Vector_41" class="st3" d="M1166.7,1155.9v-27.1h46.3v27.1H1166.7z"/>
	<path id="Vector_42" class="st2" d="M1162.7,1631v99.8h51.5l-12-99.8H1162.7z"/>
	<path id="Vector_43" class="st3" d="M1162.7,1538.8v-100.2h35.1v100.2H1162.7z M1162.7,1347.5v-100.2h50.3v100.2H1162.7z"/>
	<path id="Vector_44" class="st3" d="M1166.7,1538.8V1512h41.1v27.2L1166.7,1538.8z M1213,375.3v27.1h-50.3v-27.1H1213z
		 M1167.9,216.8v79.1h-11.6v-79.1H1167.9z M1167.9,485.9v80.7h-11.6v-80.7L1167.9,485.9L1167.9,485.9z M1199,14.8v35.1h-36.7V14.8
		H1199z"/>
	<path id="Vector_45" class="st3" d="M1195,13.2v37.1h-33.9V13.2H1195z"/>
	<path id="Vector_46" class="st3" d="M1213,2v31.9h-27.2V2H1213z"/>
</g>
</svg>
