<?xml version="1.0" encoding="utf-8"?>
<!-- Generator: Adobe Illustrator 27.0.0, SVG Export Plug-In . SVG Version: 6.00 Build 0)  -->
<svg version="1.1" id="Слой_1" xmlns="http://www.w3.org/2000/svg" xmlns:xlink="http://www.w3.org/1999/xlink" x="0px" y="0px"
	 viewBox="0 0 1212.6 2335.7" style="enable-background:new 0 0 1212.6 2335.7;" xml:space="preserve">
<style type="text/css">
	.st0{fill:#BE8656;fill-opacity:1.000000e-02;}
	.st1{fill:#8DA7B3;fill-opacity:0.4;}
	.st2{fill:#003A50;}
</style>
<g id="stikers">
	<path id="s-fl419" class="st0" d="M368,711.2H50v125h318V711.2z"/>
	<path id="s-fl420" class="st0" d="M368,206.8H50v125h318V206.8z"/>
	<path id="s-fl421" class="st0" d="M1170,206.8H860v125h310V206.8z"/>
	<path id="s-fl422" class="st0" d="M1170,711.2H860v125h310V711.2z"/>
	<path id="s-fl423" class="st0" d="M1170,1330.2H860v125h310V1330.2z"/>
	<path id="s-fl424" class="st0" d="M1170,1696.2H860v125h310V1696.2z"/>
	<path id="s-fl425" class="st0" d="M753,2057.4H435v125h318V2057.4z"/>
	<path id="s-fl426" class="st0" d="M368,1694.2H50v125h318V1694.2z"/>
	<path id="s-fl427" class="st0" d="M368,1330.2H50v125h318V1330.2z"/>
</g>
<g id="flats">
	<path id="fl427" class="st1" d="M537.4,1438.2h-27.9v19.2H318.2l-6.8-134.9l-262.7,1.2V1681l490.3,4.8l-7.6-47.9v-51.5
		L537.4,1438.2z"/>
	<path id="fl426" class="st1" d="M544.6,1691.7l-496.3,0.4v604.1h357.3v-387.7l129.8,3.6l-4.8-46.3v-51.5l14-16.8V1691.7z"/>
	<path id="fl425" class="st1" d="M784.6,2296.2H404.1l3.6-381.3l191.2,6h51.9l131.4-7.6L784.6,2296.2z"/>
	<path id="fl424" class="st1" d="M1161.1,1906.5v-439.2H687.2v-0.8h-22v297.1l14.4,33.5v117.8l98.6-1.2l-0.4,382.5h384.9
		L1161.1,1906.5z"/>
	<path id="fl423" class="st1" d="M865.2,1086.8v92.6h-186v183.7v51.5l-5.6,47.1h489.1v-375.3H865.2L865.2,1086.8L865.2,1086.8z"/>
	<path id="fl422" class="st1" d="M696.3,711.5V672H668v66.2l11.6,16.8v51.5l-2.4,95.4h29.9v19.6h154.1v169.7h302.2V710.7H696.3
		V711.5z"/>
	<path id="fl421" class="st1" d="M601.3,49.5v331.4h69.5l8.4,20.8v49.1V662l21.2,5.2v37.1H1162V49.5H601.3z"/>
	<path id="fl420" class="st1" d="M592.1,48.3H48.3v438l238.4,2l3.6,69.9l254.3-2.4l-3.2-110.2v-49.1l-0.4-16h51.1L592.1,48.3
		L592.1,48.3z"/>
	<path id="fl419" class="st1" d="M530.6,737.4v-51.5l5.2-123l-240.4-8.4v-69.9H48.3v371.7h246.4l251.1,1.2v-109L530.6,737.4z"/>
</g>
<g id="walls_outside">
	<path id="Vector" class="st2" d="M432.4,0v49.9h-35.9V0H432.4z M812.1,0v49.9h-28V0H812.1z"/>
	<path id="Vector_2" class="st2" d="M808.1,20.4v29.1h-95.4V20.4H808.1z M627.7,0v49.9h-27.9V0H627.7z"/>
	<path id="Vector_3" class="st2" d="M623.7,20.4v29.1h-95.4V20.4H623.7z M308.2,0v49.9h-27.9V0H308.2z"/>
	<path id="Vector_4" class="st2" d="M303.9,20.4v29.1h-95.4V20.4H303.9z M1002.6,0v49.9h-27.9V0H1002.6z"/>
	<path id="Vector_5" class="st2" d="M998.6,20.4v29.1h-95.4V20.4H998.6z M613.7,27.9v28.3H533V27.9H613.7z"/>
	<path id="Vector_6" class="st2" d="M995.4,27.9v28.3h-80.7V27.9H995.4z M298.7,27.9v28.3H218V27.9H298.7z M27.2,2v26H0.4V2
		C0.4,2,27.2,2,27.2,2z M50.3,408v98.6H23.1V408H50.3z"/>
	<path id="Vector_7" class="st2" d="M45.9,408v27.2H0v-27.1h45.9V408z M50.3,787.8v101.4H23.1V787.8H50.3z"/>
	<path id="Vector_8" class="st2" d="M45.9,787.8V815H0v-27.2H45.9z M50.3,592.9v101.4H23.1V592.9H50.3z"/>
	<path id="Vector_9" class="st2" d="M45.9,592.9v27.2H0v-27.2H45.9z M50.3,982.6V1084H23.1V982.6H50.3z"/>
	<path id="Vector_10" class="st2" d="M45.9,982.6v27.2H0v-27.2H45.9z M23.2,1171.4v-98.6h27.2v98.6H23.2z"/>
	<path id="Vector_11" class="st2" d="M0,1171.4v-27.2h46.3v27.2H0z M45.9,1330.4V1316h354.2v14.4H45.9z M49.1,1174.6v-14.4h496.7
		v14.4H49.1z M45.9,1048.5v-14.4h127v14.4H45.9z M236.4,1048.5v-14.4h59.5v14.4H236.4z M35.5,865.6v-14.4h511.9v14.4H35.5z
		 M35.5,498.7v-14.4h259.9v14.4H35.5z M285.1,567.8v-14.4H545v14.4H285.1z M921.1,505.1v-14.4h83.4v14.4H921.1z"/>
	<path id="Vector_12" class="st2" d="M548.2,685.9h-17.6V554.2h17.6V685.9z M548.2,755.8h-17.6v-18.4h17.6V755.8z"/>
	<path id="Vector_13" class="st2" d="M548.2,758.2h-55.9v-12.4h55.9V758.2z"/>
	<path id="Vector_14" class="st2" d="M503.1,751.8v102.6h-10.8V751.8H503.1z M522.7,560.6h-12V450h12V560.6z"/>
	<path id="Vector_15" class="st2" d="M548.2,449.2v12h-37.9v-12H548.2z M679.2,375.7v17.6H531v-17.6H679.2z"/>
	<path id="Vector_16" class="st2" d="M662.4,384.5h17.2v17.6h-17.2V384.5z M662.4,451.2h17.2v209.6h-17.2V451.2z"/>
	<path id="Vector_17" class="st2" d="M662.4,652h17.2v22h-17.2V652z M662.4,732.3h17.2v23.2h-17.2V732.3z M662.4,806.9h17.2v105
		h-17.2V806.9z M662.4,1179h17.2v184.5h-17.2V1179z M662.4,1415h17.2v189.6h-17.2V1415z"/>
	<path id="Vector_18" class="st2" d="M662.4,1568.7h17.2v120.6h-17.2V1568.7z M662.4,1750.8h17.2v46.7h-17.2V1750.8z M687.2,1695.3
		h12.4v66.7h-12.4V1695.3z"/>
	<path id="Vector_19" class="st2" d="M666,1762.8v-12.4h33.5v12.4H666z M662.4,1849h17.2v68.7h-17.2V1849z"/>
	<path id="Vector_20" class="st2" d="M650.4,1920.5v-17.2h137.3v17.2H650.4z M398.9,1920.5v-17.2h200v17.2H398.9z"/>
	<path id="Vector_21" class="st2" d="M416.1,2300.2h-17.2v-388.1h17.2V2300.2z M547.8,1907.7h-17.2v-41.9h17.2V1907.7z
		 M122.6,1890.5v20H44.7v-20H122.6z M547.8,1814.3h-17.2v-25.2h17.2V1814.3z M547.8,1690.5h-17.2v-52.3h17.2V1690.5z M547.8,1586.7
		h-17.2v-156.5h17.2V1586.7z"/>
	<path id="Vector_22" class="st2" d="M547.8,1461.7h-10.4v-152.1h10.4V1461.7z"/>
	<path id="Vector_23" class="st2" d="M547.8,1330h-15.2v-94.2h15.2V1330z M547.8,1184.2h-15.2v-142.9h15.2V1184.2z M543.4,1801.5
		h-42.3v-12.4h42.3V1801.5z"/>
	<path id="Vector_24" class="st2" d="M515.1,1801.1h-13.6v-113h13.6V1801.1z M790.2,2300.2H773v-396.9h17.2V2300.2z M675.2,1474.9
		v-17.2h494.3v17.2H675.2z M662.4,1696.1v-13.2h262.7v13.2H662.4z M974.6,1696.1v-13.2h206v13.2H974.6z M662.4,742.6v-10.4h47.9
		v10.4H662.4z M662.4,913.1v-12.4h53.9v12.4H662.4z"/>
	<path id="Vector_25" class="st2" d="M715.9,933.9h-12.4v-33.1h12.4V933.9z M662.4,904.3h11.2v182.5h-11.2V904.3z M662.4,1137.5
		h11.2v39.5h-11.2V1137.5z M698.7,660.8h11.2v81.9h-11.2V660.8z"/>
	<path id="Vector_26" class="st2" d="M666,674.4V658h43.9v16.4H666z M698.7,711.5v-17.2h466.7v17.2H698.7z M1087.2,896.8v-22.4h78.3
		v22.4H1087.2z M865.2,1094v-16.8h300.2v16.8H865.2z M704.7,933.9v-18.4H872v18.4H704.7z M662.4,1181.4v-16.8H872v16.8H662.4z"/>
	<path id="Vector_27" class="st2" d="M873.2,1181.4h-18V917.9h18V1181.4z M590.1,51.5h17.2v328.2h-17.2V51.5z M390.5,198h17.2v86.2
		h-17.2V198z M295.5,567.8h-14.4v-83.4h14.4V567.8z M35.5,889.2V882h511.9v7.2H35.5z M357,1048.5v-14.4h73.5v14.4H357z"/>
	<path id="Vector_28" class="st2" d="M389.7,1163.5h-14.4v-123.4h14.4V1163.5z M271.9,1163.5h-14.4v-123.4h14.4V1163.5z
		 M150.5,1163.5h-14.4v-123.4h14.4V1163.5z M372.5,1325.6h-14.4V1229h14.4V1325.6z M372.5,1177.8h-14.4v-14.4h14.4V1177.8z
		 M492.7,1048.5v-14.4h55.1v14.4H492.7z M45.9,1694.1v-14.4h501.5v14.4H45.9z M453.6,1330.4V1316h94.2v14.4H453.6z M319.8,1472.1
		h-17.6v-143.7h17.6V1472.1z"/>
	<path id="Vector_29" class="st2" d="M509.9,1456.1v17.6H314.2v-17.6H509.9z M537.4,1430.2v11.2h-35.9v-11.2H537.4z"/>
	<path id="Vector_30" class="st2" d="M499.5,1431h11.2v41.1h-11.2V1431z M23.2,1540.4v-94.6h27.2v94.6H23.2z"/>
	<path id="Vector_31" class="st2" d="M0,1540.4v-27.2h46.3v27.2H0z M23.2,1350.7v-97.4h27.2v97.4H23.2z"/>
	<path id="Vector_32" class="st2" d="M0,1350.7v-27.2h46.3v27.2H0z M23.2,1730.4v-94.6h27.2v94.6H23.2z"/>
	<path id="Vector_33" class="st2" d="M0,1730.4v-27.2h46.3v27.2H0z M23.2,1917.7v-94.6h27.2v94.6H23.2z"/>
	<path id="Vector_34" class="st2" d="M0,1917.7v-27.2h46.3v27.2H0z M23.2,2107.7v-94.6h27.2v94.6H23.2z"/>
	<path id="Vector_35" class="st2" d="M0,2107.7v-27.2h46.3v27.2H0z M397.7,2335.7V2287H426v48.7H397.7z"/>
	<path id="Vector_36" class="st2" d="M401.7,2311.4V2287H430v24.4H401.7z M909.6,2308.6v-28.4h86.2v28.3L909.6,2308.6L909.6,2308.6z
		 M530.6,2308.6v-28.4h86.2v28.3L530.6,2308.6L530.6,2308.6z M216.4,2308.6v-28.4H303v28.3L216.4,2308.6L216.4,2308.6z
		 M713.5,2322.6v-35.5h99.4v35.5H713.5z"/>
	<path id="Vector_37" class="st2" d="M784.6,2334.5V2291H813v43.5H784.6z M523.1,2322.6v-35.5h99.4v35.5H523.1z"/>
	<path id="Vector_38" class="st2" d="M594.1,2334.5V2291h28.3v43.5H594.1z M206,2322.6v-35.5h99.4v35.5H206z"/>
	<path id="Vector_39" class="st2" d="M206,2334.5V2291h28.3v43.5H206z M909.6,2322.6v-35.5h94.6v35.5H909.6z"/>
	<path id="Vector_40" class="st2" d="M976.2,2334.5V2291h28.3v43.5H976.2z M0,2335.3v-27.1h27.1v27.2L0,2335.3L0,2335.3z
		 M23.2,311.8v-98.2h27.2v98.6L23.2,311.8z"/>
	<path id="Vector_41" class="st2" d="M0,242.4v-29.2h50.3v29.1L0,242.4L0,242.4z"/>
	<path id="Vector_42" class="st2" d="M27.6,294.3v-81.1h30.7v81.1H27.6z M1154.7,2075.4v-64.3h10v64.3H1154.7z M1154.7,1914.5V1835
		h10v79.5H1154.7z M1184.2,2335.3v-26.4h26.8v26L1184.2,2335.3z"/>
	<path id="Vector_43" class="st2" d="M1161.5,1919.7v-98.6h30.3v98.6H1161.5z"/>
	<path id="Vector_44" class="st2" d="M1165.5,1919.7v-27.2h47.1v27.2H1165.5z M1161.5,2109.7v-98.6h30.3v98.6H1161.5z"/>
	<path id="Vector_45" class="st2" d="M1165.5,2109.7v-27.2h47.1v27.2H1165.5z M1161.5,1728.4v-98.6h30.3v98.6H1161.5z"/>
	<path id="Vector_46" class="st2" d="M1165.5,1728.4v-27.2h47.1v27.2H1165.5z M1161.5,771.8V672h30.3v99.8H1161.5z M1161.5,294.7
		V194.4h30.3v100.2h-30.3V294.7z"/>
	<path id="Vector_47" class="st2" d="M1165.5,771.8v-27.1h46.3v27.1H1165.5z M1161.5,966.2V866h30.3v100.2H1161.5z"/>
	<path id="Vector_48" class="st2" d="M1165.5,966.2V939h46.3v27.2H1165.5z M1161.5,584.5V484.3h30.3v100.2H1161.5z"/>
	<path id="Vector_49" class="st2" d="M1165.5,584.5v-27.1h46.3v27.1H1165.5z M1161.5,1154.3v-100.2h30.3v100.2H1161.5z"/>
	<path id="Vector_50" class="st2" d="M1165.5,1154.3v-27.1h46.3v27.1H1165.5z M1161.5,1346.7v-100.2h30.3v100.2H1161.5z"/>
	<path id="Vector_51" class="st2" d="M1165.5,1346.7v-27.2h46.3v27.2H1165.5z M1161.5,1537.2V1437h30.3v100.2H1161.5z"/>
	<path id="Vector_52" class="st2" d="M1165.5,1537.2v-26.8h47.1v27.2L1165.5,1537.2z M1211.8,373.7v27.1h-50.3v-27.1H1211.8z
		 M1211.8,194.4v29.1h-50.3v-29.1H1211.8z"/>
	<path id="Vector_53" class="st2" d="M1166.7,215.2v79.1h-11.6v-79.1H1166.7z M1166.7,484.3V565h-11.6v-80.7L1166.7,484.3
		L1166.7,484.3z M1211.8,0.4v27.5h-27.2V0.4H1211.8z"/>
</g>
</svg>
