<?xml version="1.0" encoding="utf-8"?>
<!-- Generator: Adobe Illustrator 27.0.0, SVG Export Plug-In . SVG Version: 6.00 Build 0)  -->
<svg version="1.1" id="Слой_1" xmlns="http://www.w3.org/2000/svg" xmlns:xlink="http://www.w3.org/1999/xlink" x="0px" y="0px"
	 viewBox="0 0 1212.6 2334.3" style="enable-background:new 0 0 1212.6 2334.3;" xml:space="preserve">
<style type="text/css">
	.st0{fill:#BE8656;fill-opacity:1.000000e-02;}
	.st1{fill:#8DA7B3;fill-opacity:0.4;}
	.st2{fill-rule:evenodd;clip-rule:evenodd;fill:#003A50;}
	.st3{fill:#003A50;}
</style>
<g id="stikers">
	<path id="s-fl252" class="st0" d="M369,712H51v125h318V712z"/>
	<path id="s-fl253" class="st0" d="M369,191.4H51v125h318V191.4z"/>
	<path id="s-fl254" class="st0" d="M1170,191H860v125h310V191z"/>
	<path id="s-fl255" class="st0" d="M1170,505H860v125h310V505z"/>
	<path id="s-fl256" class="st0" d="M1170,712H860v125h310V712z"/>
	<path id="s-fl257" class="st0" d="M1170,1256H860v125h310V1256z"/>
	<path id="s-fl258" class="st0" d="M1170,1474H860v125h310V1474z"/>
	<path id="s-fl259" class="st0" d="M1170,1695H860v125h310V1695z"/>
	<path id="s-fl260" class="st0" d="M753,2053.6H435v125h318V2053.6z"/>
	<path id="s-fl261" class="st0" d="M369,1694H51v125h318V1694z"/>
	<path id="s-fl262" class="st0" d="M369,1474.2H51v125h318V1474.2z"/>
</g>
<g id="flats">
	<path id="fl262" class="st1" d="M531.8,1457l-0.4-19.1h-21.1v19.1h-191v-134.8l-303.9,1.2v356.1h519.2l-2.8-41.9V1457z"/>
	<path id="fl261" class="st1" d="M548.2,1689.9h-20.7v0.4H14.6l1.2,628h393.6v-411.9H535l-3.6-41.5v-51.4l3.6-17.9h13.6v-105.7
		H548.2z"/>
	<path id="fl260" class="st1" d="M781.9,2317.9H407.8l4.8-403.9l186.2,4h51.9l129.6-4.4L781.9,2317.9z"/>
	<path id="fl259" class="st1" d="M1197.8,1905.6v-213.7h-510v-0.8h-21.9v71.8h14.4v85.3l-4,71l104.9-4l-2,402.3h419.1L1197.8,1905.6
		z"/>
	<path id="fl258" class="st1" d="M679,1471.4h518.8v218.5H679l1.2-120.4V1518L679,1471.4z"/>
	<path id="fl257" class="st1" d="M864.8,1087v92.5H679v183.4v51.4v47.1h519.2v-374.8H864.8L864.8,1087L864.8,1087z"/>
	<path id="fl256" class="st1" d="M695.3,712.2v-39.1H667v66.2l11.6,16.7v51.4l-2.4,95.3h32.7v19.5h151.9v169.5h336.6v-380H695.3
		V712.2z"/>
	<path id="fl255" class="st1" d="M678.2,496.4v106.9v49.4l-3.2,15.2l19.9,3.6v26.3h502.5V496.4H678.2z"/>
	<path id="fl254" class="st1" d="M603.2,14.8V382H681v20.7v49v39.9h518.4V14.8H603.2z"/>
	<path id="fl253" class="st1" d="M591.7,15.9H13v471.3h280.3v67h251.6l-4-107.7v-49l-0.4-15.9h51V15.9H591.7z"/>
	<path id="fl252" class="st1" d="M530.2,738.5V687l-0.4-131.2H295v-69.4H13v371.2h493.3v1.2H545V750L530.2,738.5z"/>
</g>
<g id="walls_outside">
	<path id="Vector" class="st2" d="M522,51.4h99.7V0L522,12V51.4z M51.4,1081v-99.7H0l12,99.7H51.4z M51.4,697v-99.7H0L12,697H51.4z
		 M51.4,1353.8v-99.7H0l12,99.7H51.4z"/>
	<path id="Vector_2" class="st3" d="M51.4,24.7v43.5H12.3V24.7H51.4z"/>
	<path id="Vector_3" class="st3" d="M116.8,14v37.5H14.7V14H116.8z M306.2,1.6v49.8h-98.9V1.6H306.2z M433,1.6v49.8h-35.9V1.6H433z
		 M812.3,1.6v49.8h-27.9V1.6H812.3z"/>
	<path id="Vector_4" class="st3" d="M808.3,15.9v35.5H713V15.9H808.3z M296.3,5.6v52.2h-80.6V5.6H296.3z M614.1,29.5v28.3h-80.6
		V29.5H614.1z"/>
	<path id="Vector_5" class="st2" d="M903.2,51.4h101.7V0L903.2,12V51.4z"/>
	<path id="Vector_6" class="st3" d="M995.3,29.5v28.3h-80.6V29.5H995.3z M28.3,0.4v29.5H0.4V0.4H28.3z M51.4,409.1v98.5H14.3v-98.5
		H51.4z"/>
	<path id="Vector_7" class="st3" d="M47,409.1v27.1H1.1v-27.1H47z M51.4,216.5V315H1.2v-98.5H51.4z"/>
	<path id="Vector_8" class="st3" d="M56.6,216.5v79.8H39.4v-79.8L56.6,216.5L56.6,216.5z M51.4,788.3v101.3H14.3V788.3H51.4z"/>
	<path id="Vector_9" class="st3" d="M47,788.3v27.1H1.1v-27.1H47z M13.9,1171.5V1073h37.5v98.5H13.9z"/>
	<path id="Vector_10" class="st3" d="M1.2,1171.5v-27.1h46.2v27.1H1.2z M47,1330.2v-14.3h353.7v14.3H47z M50.2,1174.7v-14.4h496.1
		v14.4H50.2z M47,1048.7v-14.3h126.8v14.3H47z M237.2,1048.7v-14.3h59.4v14.3H237.2z M36.6,866.1v-14.4h511.2v14.4H36.6z
		 M36.6,499.6v-14.4h259.6v14.4H36.6z M285.9,568.6v-14.4h259.6v14.4H285.9z M668.7,506v-14.4h508.1V506H668.7z"/>
	<path id="Vector_11" class="st3" d="M548.7,686.6h-17.5V553.9h17.5V686.6z M548.7,756.4h-17.5v-18.3h17.5V756.4z"/>
	<path id="Vector_12" class="st3" d="M548.7,758.8h-55.8v-12.4h55.8V758.8z"/>
	<path id="Vector_13" class="st3" d="M503.6,752.4v102.5h-10.8V752.4H503.6z M523.2,561.4h-12V450.6h12V561.4z"/>
	<path id="Vector_14" class="st3" d="M548.7,450.2v12h-37.9v-12H548.7z M679.5,376.8v17.5h-148v-17.5H679.5z"/>
	<path id="Vector_15" class="st3" d="M662.7,385.6h17.1v17.5h-17.1V385.6z M662.7,452.2h17.1v151.1h-17.1V452.2z M662.7,652.8h17.1
		v21.9h-17.1V652.8z M662.7,732.9h17.1V756h-17.1V732.9z M662.7,807.5h17.1v104.9h-17.1V807.5z M662.7,1179.1h17.1v184.2h-17.1
		V1179.1z M662.7,1414.8h17.1v102.1h-17.1V1414.8z M662.7,1568.3h17.1v120.4h-17.1V1568.3z M662.7,1750.1h17.1v46.7h-17.1V1750.1z
		 M687.5,1694.7h12.4v67h-12.4V1694.7z"/>
	<path id="Vector_16" class="st3" d="M666.3,1762.1v-12.4h33.5v12.4H666.3z M662.7,1848.2h17.1v68.6h-17.1V1848.2z"/>
	<path id="Vector_17" class="st3" d="M650.8,1919.6v-17.1H788v17.1H650.8z M399.5,1919.6v-17.1h199.8v17.1H399.5z"/>
	<path id="Vector_18" class="st3" d="M416.7,2298.8h-17.1v-387.6h17.1V2298.8z M548.3,1906.8h-17.1v-42.3h17.1V1906.8z
		 M123.6,1889.7v19.9H45.8v-19.9H123.6z M548.3,1813.5h-17.1v-25.1h17.1V1813.5z M548.3,1689.9h-17.1v-52.6h17.1V1689.9z
		 M548.3,1586.2h-17.1v-156.3h17.1V1586.2z"/>
	<path id="Vector_19" class="st3" d="M548.3,1461.4h-10.4v-151.9h10.4V1461.4z"/>
	<path id="Vector_20" class="st3" d="M548.3,1329.8h-15.2v-94.1h15.2V1329.8z M548.3,1184.3h-15.2v-142.8h15.2V1184.3z
		 M543.9,1800.8h-42.3v-12.4h42.3V1800.8z"/>
	<path id="Vector_21" class="st3" d="M515.6,1800.4H502v-112.8h13.6V1800.4z M790.4,2298.8h-17.2v-396.4h17.2V2298.8z M675.5,1474.6
		v-17.1h493.7v17.1H675.5z M662.7,1695.5v-13.2h506.5v13.2H662.7z M662.7,743.3v-10.4h47.9v10.4H662.7z M662.7,913.5v-12.4h53.8
		v12.4H662.7z"/>
	<path id="Vector_22" class="st3" d="M716.2,934.3h-12.4v-33.1h12.4V934.3z M662.7,904.8h11.2V1087h-11.2V904.8z M662.7,1137.6h11.2
		v39.5h-11.2V1137.6z M699,661.5h11.2v81.7H699V661.5z"/>
	<path id="Vector_23" class="st3" d="M666.3,675.1v-16.3h43.9v16.3H666.3z M699,712.2V695h466.2v17.1H699V712.2z M1087,897.2v-22.3
		h78.2v22.3H1087z M865.3,1094.2v-16.8h299.9v16.8H865.3z M705,934.3V916h167.1v18.3H705z M662.7,1181.5v-17.2h209.4v16.8
		L662.7,1181.5z"/>
	<path id="Vector_24" class="st3" d="M873.3,1181.5h-17.9V918.3h17.9V1181.5z M590.6,53h17.1v327.8h-17.1V53z M391.2,199.4h17.1
		v86.1h-17.1V199.4z M870.5,256.4h17.2v86.5h-17.2V256.4z M296.3,568.6h-16.4v-83.3h16.4V568.6z M36.6,889.6v-7.2h511.2v7.2H36.6z
		 M357.7,1048.7v-14.3h73.4v14.3H357.7z"/>
	<path id="Vector_25" class="st3" d="M390.4,1163.6H376v-123.2h14.4V1163.6z M272.7,1163.6h-14.3v-123.2h14.4L272.7,1163.6z
		 M151.5,1163.6h-14.4v-123.2h14.4V1163.6z M373.2,1325.4h-14.4v-96.5h14.4V1325.4z M373.2,1177.9h-14.4v-14.4h14.4V1177.9z
		 M493.3,1048.7v-14.3h55v14.3H493.3z M47,1693.5v-14.3h500.9v14.3H47z M454.2,1330.2v-14.4h94.1v14.4H454.2z M320.6,1471.8h-17.5
		v-143.6h17.5V1471.8z"/>
	<path id="Vector_26" class="st3" d="M510.4,1455.8v17.5H315v-17.5H510.4z M537.9,1429.9v11.2H502v-11.2H537.9z"/>
	<path id="Vector_27" class="st3" d="M500,1430.7h11.2v41.1H500V1430.7z M14.3,1540v-96.9h37.1v96.9H14.3z M1.2,1731.4v-100.5h50.2
		v100.5H1.2z M1.2,2111.8v-100.5h50.2v100.5H1.2z"/>
	<path id="Vector_28" class="st3" d="M1.2,1540v-27.1h46.2v27.1H1.2z M12.3,1918.8v-96.5h39.1v96.5H12.3z M12.3,2073.9v-63H57v63
		H12.3z"/>
	<path id="Vector_29" class="st3" d="M1.2,1918.8v-27.1h46.2v27.1H1.2z M12.3,2320.7v-65.4h39.1v65.4H12.3z"/>
	<path id="Vector_30" class="st3" d="M19.1,2320.7v-35.1H59v35.1H19.1z M398.3,2334.3v-48.6h28.3v48.6H398.3z M206.5,2334.3v-48.6
		h99.7v48.6H206.5z"/>
	<path id="Vector_31" class="st3" d="M402.3,2310v-24.3h28.3v24.3H402.3z M909.6,2307.2v-28.3h86.1v28.3H909.6z M529.1,2307.2v-28.3
		h86.1v28.3H529.1z M215.7,2307.2v-28.3h81.4v28.3H215.7z M1160.4,2321.1v-35.5h35.5v35.5H1160.4z M713.8,2321.1v-35.5h99.3v35.5
		H713.8z"/>
	<path id="Vector_32" class="st3" d="M784.8,2333.1v-43.5h28.3v43.5H784.8z M1.2,2333.9v-27.1h27.1v27.1H1.2z"/>
	<path id="Vector_33" class="st2" d="M1161.2,964.2v-99.7h51.4l-12,99.7H1161.2z M1161.2,583v-99.7h51.4l-12,99.7H1161.2z
		 M1161.2,295.5v-99.7h51.4l-12,99.7H1161.2z"/>
	<path id="Vector_34" class="st3" d="M1159.6,2321.1v-63h41.5v63H1159.6z M1154.4,2074.3v-64.2h10v64.2H1154.4z M1154.4,1913.6
		v-79.3h10v79.3H1154.4z"/>
	<path id="Vector_35" class="st3" d="M1184,2332.7V2308h26.7v24.7H1184z M1161.2,1918.8v-98.5h40.7v98.5H1161.2z"/>
	<path id="Vector_36" class="st3" d="M1165.2,1918.8v-27.1h45.5v27.1H1165.2z M1161.2,777.6V677.5h40.3v100.1H1161.2z"/>
	<path id="Vector_37" class="st3" d="M1165.2,777.6v-27.1h46.3v27.1H1165.2z"/>
	<path id="Vector_38" class="st2" d="M1161.2,1346.2v-97.3h51.4l-12,97.3H1161.2z"/>
	<path id="Vector_39" class="st3" d="M1161.2,1154.4v-96.9h37.5v96.9H1161.2z"/>
	<path id="Vector_40" class="st3" d="M1161.2,1160.4v-28.7h50.2v28.7H1161.2z"/>
	<path id="Vector_41" class="st2" d="M1161.2,1730.6v-99.7h51.4l-12,99.7H1161.2z M523.2,2282.8h99.7v50.6l-99.7-12V2282.8z
		 M905.6,2282.8h99.7v50.6l-99.7-12V2282.8z"/>
	<path id="Vector_42" class="st3" d="M1161.2,1536.8v-100.1h37.1v100.1H1161.2z"/>
	<path id="Vector_43" class="st3" d="M1165.2,1536.8v-27.1h47.1v27.1H1165.2z M1211.5,374.8v27.1h-50.2v-27.1H1211.5z M1166.4,216.5
		v79h-11.6v-79H1166.4z M1166.4,485.3v80.5h-11.6v-80.5H1166.4z M1197.5,14.8v35.1h-36.7V14.8H1197.5z"/>
	<path id="Vector_44" class="st3" d="M1199.1,14.8v35.1h-99.3V14.8H1199.1z M1007.3,14v37.5h-27.5V14H1007.3z"/>
	<path id="Vector_45" class="st3" d="M1211.5,2v32.3h-111.7V2H1211.5z M1162.4,2010.1h49.1v99.3h-49.1V2010.1z"/>
</g>
</svg>
