<?xml version="1.0" encoding="utf-8"?>
<!-- Generator: Adobe Illustrator 27.0.0, SVG Export Plug-In . SVG Version: 6.00 Build 0)  -->
<svg version="1.1" id="Слой_1" xmlns="http://www.w3.org/2000/svg" xmlns:xlink="http://www.w3.org/1999/xlink" x="0px" y="0px"
	 viewBox="0 0 1214.2 2340.1" style="enable-background:new 0 0 1214.2 2340.1;" xml:space="preserve">
<style type="text/css">
	.st0{fill:#BE8656;fill-opacity:1.000000e-02;}
	.st1{fill:#8DA7B3;fill-opacity:0.4;}
	.st2{fill-rule:evenodd;clip-rule:evenodd;fill:#003A50;}
	.st3{fill:#003A50;}
</style>
<g id="stikers">
	<path id="s-fl263" class="st0" d="M369.2,713h-318v125h318V713z"/>
	<path id="s-fl264" class="st0" d="M369.2,191.6h-318v125h318V191.6z"/>
	<path id="s-fl265" class="st0" d="M1171.2,191.6h-310v125h310V191.6z"/>
	<path id="s-fl266" class="st0" d="M1171.2,506h-310v125h310V506z"/>
	<path id="s-fl267" class="st0" d="M1171.2,713h-310v125h310V713z"/>
	<path id="s-fl268" class="st0" d="M1171.2,1257.7h-310v125h310V1257.7z"/>
	<path id="s-fl269" class="st0" d="M1171.2,1475h-310v125h310V1475z"/>
	<path id="s-fl270" class="st0" d="M1171.2,1696h-310v125h310V1696z"/>
	<path id="s-fl271" class="st0" d="M754.2,2056.2h-318v125h318V2056.2z"/>
	<path id="s-fl272" class="st0" d="M369.2,1696h-318v125h318V1696z"/>
	<path id="s-fl273" class="st0" d="M369.2,1475h-318v125h318V1475z"/>
</g>
<g id="flats">
	<path id="fl273" class="st1" d="M531.8,1588.3l6.4-148.5h-27.9v19.2H319v-135l-268.7,1.2v356.5l484.7,2.4l-3.2-44.3V1588.3z"/>
	<path id="fl272" class="st1" d="M545.8,1693.3h-21.2v0.4H49.5v604.1h357.3v-387.7h125.8l-0.4-42.7v-51.5l14-16.8v-105.8H545.8z"/>
	<path id="fl271" class="st1" d="M783,2297.8H406.9l2-382.5l191.2,6.8H652l129-6.8L783,2297.8z"/>
	<path id="fl270" class="st1" d="M1163.9,1694.1H688.4v-0.8h-22v71.9l14.4,33.5v51.5l-8,65.5l107.8-0.8l0.8,380.9l382.5,1.6V1694.1z
		"/>
	<path id="fl269" class="st1" d="M675.2,1472.1h488.7v218.8H673.6l6.8-120.6v-51.5L675.2,1472.1z"/>
	<path id="fl268" class="st1" d="M866.4,1088.4v92.6H676l4.4,183.7v51.5v47.1h483.5V1088H866.4V1088.4z"/>
	<path id="fl267" class="st1" d="M697.5,711.5V674h-28.3v66.3l11.6,16.8v51.5l-2.4,95.4h29.9v19.6h154.1v169.7h302.2V711.5H697.5z"
		/>
	<path id="fl266" class="st1" d="M1163.9,698.7H705.5l-2.8-26.4l-22.4-2v-66.7l-6.4-107h489.9L1163.9,698.7L1163.9,698.7z"/>
	<path id="fl265" class="st1" d="M602.5,51.1v331.4l63.9,4l14,16.8v49.1v39.9h482.7V51.1H602.5z"/>
	<path id="fl264" class="st1" d="M593.3,49.9H49.5v438h245.2V555h247.5l3.6-104.2l-3.2-3.2v-49.5l-0.4-16h51.1L593.3,49.9
		L593.3,49.9z"/>
	<path id="fl263" class="st1" d="M531.8,739v-51.5l-0.4-131.4H296.3v-69.9H49.5v372.1h246.4l251.1,1.2v-109L531.8,739z"/>
</g>
<g id="walls_outside">
	<path id="Vector" class="st2" d="M51.5,698.3v-99.8H0l12,99.8H51.5z M522.7,51.5h99.8V0l-99.8,12V51.5z M51.5,1082.4v-99.8H0
		l12,99.8H51.5z M51.5,1355.5v-99.8H0l12,99.8H51.5z M523.1,2288.6h99.8v51.5l-99.8-12V2288.6z M904,2288.6h99.8v51.5l-99.8-12
		V2288.6z"/>
	<path id="Vector_2" class="st3" d="M51.5,24.8v43.5H14V24.8H51.5z"/>
	<path id="Vector_3" class="st3" d="M60.7,24.8v26.8H7.6V24.8H60.7z M306.7,1.6v49.9h-28.3V1.6H306.7z M433.6,1.6v49.9h-35.9V1.6
		H433.6z M813.3,1.6v49.9h-28V1.6H813.3z"/>
	<path id="Vector_4" class="st3" d="M809.3,16v35.5h-95.4V16H809.3z M296.7,31.9v26H216v-26C216,31.9,296.7,31.9,296.7,31.9z"/>
	<path id="Vector_5" class="st3" d="M302.3,1.6v49.9h-95V1.6H302.3z M114.2,16.8v34.7H18.4V16.8H114.2z M614.9,29.5v28.3h-80.7V29.5
		H614.9z"/>
	<path id="Vector_6" class="st2" d="M904.4,51.5h99.8V0l-99.8,12V51.5z"/>
	<path id="Vector_7" class="st3" d="M996.6,29.5v28.3h-80.7V29.5H996.6z M28.4,3.6v26H1.6v-26C1.6,3.6,28.4,3.6,28.4,3.6z
		 M51.5,409.7v98.6H10.8v-98.6H51.5z"/>
	<path id="Vector_8" class="st3" d="M47.1,409.7v27.1H1.2v-27.1H47.1z M51.5,789.4v101.4H14V789.4H51.5z"/>
	<path id="Vector_9" class="st3" d="M47.1,789.4v27.2H1.2v-27.2H47.1z M12,1173.1v-98.6h39.5v98.6H12z M1.2,1733.6V1635h50.3v98.6
		H1.2z"/>
	<path id="Vector_10" class="st3" d="M1.2,1173.1v-27.2h46.3v27.2H1.2z M47.1,1332v-14.4h354.2v14.4H47.1z M50.3,1176.2v-14.4H547
		v14.4H50.3z M47.1,1050.1v-14.4h127v14.4H47.1z M237.6,1050.1v-14.4h59.5v14.4H237.6z M36.7,867.2v-14.4h511.9v14.4H36.7z
		 M36.7,500.3v-14.4h259.9v14.4H36.7z M286.3,569.4V555h259.9v14.4H286.3z M669.6,506.7v-14.4h508.7v14.4H669.6z"/>
	<path id="Vector_11" class="st3" d="M549.4,687.5h-17.6v-133h17.6V687.5z M549.4,757.4h-17.6V739h17.6V757.4z"/>
	<path id="Vector_12" class="st3" d="M549.4,759.8h-55.9v-12.4h55.9V759.8z"/>
	<path id="Vector_13" class="st3" d="M504.3,753.4V856h-10.8V753.4H504.3z M523.9,562.2h-12v-111h12V562.2z"/>
	<path id="Vector_14" class="st3" d="M549.4,450.8v12h-37.9v-12H549.4z M680.4,377.3v17.6H532.2v-17.6H680.4z"/>
	<path id="Vector_15" class="st3" d="M663.6,386.1h17.2v17.6h-17.2V386.1z M663.6,452.8h17.2v151.3h-17.2V452.8z M663.6,653.6h17.2
		v22h-17.2V653.6z M663.6,733.9h17.2V757h-17.2V733.9z M663.6,808.5h17.2v105h-17.2V808.5z M663.6,1180.6h17.2v184.5h-17.2V1180.6z
		 M663.6,1416.6h17.2v102.2h-17.2V1416.6z M663.6,1570.3h17.2v120.6h-17.2V1570.3z M663.6,1752.4h17.2v46.7h-17.2V1752.4z
		 M688.4,1696.9h12.4v67.1h-12.4V1696.9z"/>
	<path id="Vector_16" class="st3" d="M667.2,1764.4V1752h33.5v12.4H667.2z M663.6,1850.6h17.2v68.7h-17.2V1850.6z"/>
	<path id="Vector_17" class="st3" d="M651.6,1922.1v-17.2h137.3v17.2H651.6z M400.1,1922.1v-17.2h200v17.2H400.1z"/>
	<path id="Vector_18" class="st3" d="M417.3,2301.8h-17.2v-388.1h17.2V2301.8z M549,1909.3h-17.2V1867H549V1909.3z M123.8,1892.1v20
		H45.9v-20H123.8z M549,1815.9h-17.2v-25.2H549V1815.9z M549,1692.1h-17.2v-52.7H549V1692.1z M549,1588.3h-17.2v-156.5H549V1588.3z"
		/>
	<path id="Vector_19" class="st3" d="M549,1463.3h-10.4v-152.1H549V1463.3z"/>
	<path id="Vector_20" class="st3" d="M549,1331.6h-15.2v-94.2H549V1331.6z M549,1185.8h-15.2v-142.9H549V1185.8z M544.6,1803.1
		h-42.3v-12.4h42.3V1803.1z"/>
	<path id="Vector_21" class="st3" d="M516.3,1802.7h-13.6v-113h13.6V1802.7z M791.4,2301.8h-17.2v-396.9h17.2V2301.8z M676.4,1476.5
		v-17.2h494.3v17.2H676.4z M663.6,1697.7v-13.2h507.1v13.2H663.6z M663.6,744.2v-10.4h47.9v10.4H663.6z M663.6,914.7v-12.4h53.9
		v12.4H663.6z"/>
	<path id="Vector_22" class="st3" d="M717.1,935.5h-12.4v-33.1h12.4V935.5z M663.6,905.9h11.2v182.5h-11.2V905.9z M663.6,1139.1
		h11.2v39.5h-11.2V1139.1z M699.9,662.4h11.2v81.9h-11.2V662.4z"/>
	<path id="Vector_23" class="st3" d="M667.2,676v-16.4h43.9V676H667.2z M699.9,713.1v-17.2h466.7v17.2H699.9z M1088.4,898.4V876
		h78.3v22.4H1088.4z M866.4,1095.6v-16.8h300.2v16.8H866.4z M705.9,935.5v-18.4h167.3v18.4H705.9z M663.6,1183v-17.2h209.6v16.8
		L663.6,1183z"/>
	<path id="Vector_24" class="st3" d="M874.4,1183h-18V919.5h18V1183z M591.3,53.1h17.2v328.2h-17.2V53.1z M391.7,199.6h17.2v86.2
		h-17.2V199.6z M871.6,256.7h17.2v86.6h-17.2V256.7z M296.7,569.4h-16.4V486h16.4V569.4z M36.7,890.8v-7.2h511.9v7.2H36.7z
		 M358.2,1050.1v-14.4h73.5v14.4H358.2z"/>
	<path id="Vector_25" class="st3" d="M390.9,1165.1h-14.4v-123.4h14.4V1165.1z M273.1,1165.1h-14.4v-123.4h14.4V1165.1z
		 M151.7,1165.1h-14.4v-123.4h14.4V1165.1z M373.7,1327.2h-14.4v-96.6h14.4V1327.2z M373.7,1179.4h-14.4V1165h14.4V1179.4z
		 M493.9,1050.1v-14.4H549v14.4H493.9z M47.1,1695.7v-14.4h501.5v14.4H47.1z M454.8,1332v-14.4H549v14.4H454.8z M321,1473.7h-17.6
		V1330H321V1473.7z"/>
	<path id="Vector_26" class="st3" d="M511.1,1457.7v17.6H315.4v-17.6H511.1z M538.6,1431.8v11.2h-35.9v-11.2H538.6z"/>
	<path id="Vector_27" class="st3" d="M500.7,1432.6h11.2v41.1h-11.2V1432.6z M17.6,1542v-94.6h33.9v94.6H17.6z"/>
	<path id="Vector_28" class="st3" d="M1.2,1542v-27.2h46.3v27.2H1.2z M9.6,1921.3v-94.6h41.9v94.6H9.6z M5.2,2114.9v-100.2h46.3
		v100.2H5.2z"/>
	<path id="Vector_29" class="st3" d="M1.2,1921.3v-27.2h46.3v27.2H1.2z M15.2,2323.8v-59.9h36.3v59.9H15.2z"/>
	<path id="Vector_30" class="st3" d="M19.2,2323.8v-35.1h39.9v35.1H19.2z M206.4,2332.1v-43.5h100.2v43.5H206.4z M398.9,2337.3
		v-48.7h28.3v48.7H398.9z"/>
	<path id="Vector_31" class="st3" d="M402.9,2313v-24.3h28.3v24.3H402.9z M910.8,2310.2v-28.3H997v28.3H910.8z M529.8,2310.2v-28.3
		H616v28.3H529.8z M216,2310.2v-28.3h81.5v28.3H216z M1097.6,2332.1v-43.5h100.2v43.5H1097.6z M714.7,2328.5v-39.9h99.4v39.9H714.7z
		"/>
	<path id="Vector_32" class="st3" d="M785.8,2336.1v-43.5h28.4v43.5H785.8z M1.2,2336.9v-27.1h27.2v27.1H1.2z M1.2,316.2v-98.6h50.3
		v98.6H1.2z"/>
	<path id="Vector_33" class="st2" d="M1162.7,583.7v-99.8h51.5l-12,99.8H1162.7z M1162.7,970.6v-99.8h51.5l-12,99.8H1162.7z
		 M1162.7,1349.1v-99.8h51.5l-12,99.8H1162.7z M1162.7,295.9V196h51.5l-12,99.8h-39.5V295.9z"/>
	<path id="Vector_34" class="st3" d="M1161.1,2310.6v-46.7h40.7v46.7H1161.1z M1155.9,2077v-62.3h10v62.3H1155.9z M1155.9,1916.1
		v-79.5h10v79.5H1155.9z M1185.4,2336.9v-26h26.8v26H1185.4z"/>
	<path id="Vector_35" class="st3" d="M1162.7,1921.3v-98.6h39.5v98.6H1162.7z"/>
	<path id="Vector_36" class="st3" d="M1166.7,1921.3v-27.2h41.1v27.2H1166.7z M1162.7,773.4V673.2h37.5v100.2H1162.7z"/>
	<path id="Vector_37" class="st3" d="M1166.7,773.4v-26.8h46.3v27.1h-46.3V773.4z M1162.7,1155.9v-100.2h39.5v100.2H1162.7z"/>
	<path id="Vector_38" class="st3" d="M1166.7,1155.9v-27.2h46.3v27.2H1166.7z"/>
	<path id="Vector_39" class="st2" d="M1162.7,1730.8V1631h51.5l-12,99.8H1162.7z"/>
	<path id="Vector_40" class="st3" d="M1162.7,1538.8v-100.2h39.5v100.2H1162.7z M1162.7,2114.9v-100.2h50.3v100.2H1162.7z"/>
	<path id="Vector_41" class="st3" d="M1166.7,1538.8v-27.2h41.1v27.2H1166.7z M1213,375.3v27.1h-50.3v-27.1H1213z M1167.9,216.8
		v79.1h-11.6v-79.1L1167.9,216.8L1167.9,216.8z M1167.9,485.9v80.7h-11.6v-80.7L1167.9,485.9L1167.9,485.9z M1199,14.8v35.1h-36.7
		V14.8H1199z"/>
	<path id="Vector_42" class="st3" d="M1195,1.6v48.3h-98.2V1.6H1195z"/>
	<path id="Vector_43" class="st3" d="M1213,1.6v33.1h-27.2V1.6H1213z"/>
</g>
</svg>
