<?xml version="1.0" encoding="utf-8"?>
<!-- Generator: Adobe Illustrator 27.0.0, SVG Export Plug-In . SVG Version: 6.00 Build 0)  -->
<svg version="1.1" id="Слой_1" xmlns="http://www.w3.org/2000/svg" xmlns:xlink="http://www.w3.org/1999/xlink" x="0px" y="0px"
	 viewBox="0 0 1214.2 2337.3" style="enable-background:new 0 0 1214.2 2337.3;" xml:space="preserve">
<style type="text/css">
	.st0{fill:#BE8656;fill-opacity:1.000000e-02;}
	.st1{fill:#8DA7B3;fill-opacity:0.4;}
	.st2{fill-rule:evenodd;clip-rule:evenodd;fill:#003A50;}
	.st3{fill:#003A50;}
</style>
<g id="stikers">
	<path id="s-fl274" class="st0" d="M368.6,713h-318v125h318V713z"/>
	<path id="s-fl275" class="st0" d="M368.6,192h-318v125h318V192z"/>
	<path id="s-fl276" class="st0" d="M1171.2,192h-310v125h310V192z"/>
	<path id="s-fl277" class="st0" d="M1171.2,508h-310v125h310V508z"/>
	<path id="s-fl278" class="st0" d="M1171.2,713h-310v125h310V713z"/>
	<path id="s-fl279" class="st0" d="M1171.2,1218h-310v125h310V1218z"/>
	<path id="s-fl280" class="st0" d="M1171.2,1476.2h-310v125h310V1476.2z"/>
	<path id="s-fl281" class="st0" d="M1171.2,1696.8h-310v125h310V1696.8z"/>
	<path id="s-fl282" class="st0" d="M753,2056.2H435v125h318V2056.2z"/>
	<path id="s-fl283" class="st0" d="M368.6,1696h-318v125h318V1696z"/>
	<path id="s-fl284" class="st0" d="M368.6,1474.2h-318v125h318V1474.2z"/>
</g>
<g id="flats">
	<path id="fl284" class="st1" d="M531.8,1458.9l-0.4-19.2h-21.2v19.2H319v-135l-304.2,1.2v356.5l495.5-1.2v1.2h21.2v-1.2h0.4v-221.5
		H531.8z"/>
	<path id="fl283" class="st1" d="M545.8,1693.3h-21.2v0.4h-511v628.9h392.9v-412.4l124.6,5.2l0.8-99.4l14-16.8L545.8,1693.3
		L545.8,1693.3z"/>
	<path id="fl282" class="st1" d="M791.8,2322.6H401.7v-401.3l198.4,1.2H652l139.7-1.2L791.8,2322.6L791.8,2322.6z"/>
	<path id="fl281" class="st1" d="M1199,1908.1v-214H688.4v-0.8h-22v71.9h14.4v156.5h95.8V2321h422.8L1199,1908.1z"/>
	<path id="fl280" class="st1" d="M679.6,1472.1H1199v218.8H679.6V1472.1z"/>
	<path id="fl279" class="st1" d="M866.4,1088.4v92.6h-186v282.3h519.8V1088H866.4V1088.4z"/>
	<path id="fl278" class="st1" d="M697.5,713.1V674h-28.3v66.3l11.6,16.8l0.4,146.9h29.5v19.6h152.1v169.7h337V712.7H697.5V713.1z"/>
	<path id="fl277" class="st1" d="M1200.6,698.7H703.1v-33.1h-22.4V497.1h519.9V698.7z"/>
	<path id="fl276" class="st1" d="M602.5,14.8v367.7h77.9v110.2h519V14.8H602.5z"/>
	<path id="fl275" class="st1" d="M593.3,16H14v471.9h280.7V555h247.5V382.1h51.1V16z"/>
	<path id="fl274" class="st1" d="M531.8,750.6V556.2H296.7v-69.9H14v372.1h493.9v1.2h38.7v-109L531.8,750.6L531.8,750.6z"/>
</g>
<g id="walls_outside">
	<path id="Vector" class="st2" d="M622.5,51.5h-99.8V0l99.8,12V51.5z M51.5,982.6v99.8H0l12-99.8L51.5,982.6L51.5,982.6z
		 M51.5,598.1v99.8H0l12-99.8H51.5z M51.5,218.8v99.8H0l12-99.8H51.5z M51.5,1255.7v99.8H0l12-99.8H51.5z M51.5,2015.1v99.8H0
		l12-99.8L51.5,2015.1L51.5,2015.1z"/>
	<path id="Vector_2" class="st3" d="M51.5,24.8v99.8H12.4V24.8H51.5z"/>
	<path id="Vector_3" class="st3" d="M117,1.6v49.9H14.8V1.6H117z M306.7,1.6v49.9h-99V1.6H306.7z M433.6,1.6v49.9h-35.9V1.6H433.6z
		 M813.3,1.6v49.9h-28V1.6H813.3z"/>
	<path id="Vector_4" class="st3" d="M809.3,16v35.5h-95.4V16H809.3z M296.7,5.6v52.3H216V5.6H296.7z M614.9,29.5v28.3h-80.7V29.5
		H614.9z"/>
	<path id="Vector_5" class="st2" d="M1006.2,51.5H904.4V0l101.8,12V51.5z"/>
	<path id="Vector_6" class="st3" d="M996.6,29.5v28.3h-80.7V29.5H996.6z M28.4,0v29.5H1.6V0H28.4z M51.5,409.7v98.6H14.4v-98.6H51.5
		z"/>
	<path id="Vector_7" class="st3" d="M47.1,409.7v27.1H1.2v-27.1H47.1z M56.7,216.8v79.9H39.5v-79.9L56.7,216.8L56.7,216.8z
		 M51.5,789.4v101.4H14.4V789.4H51.5z"/>
	<path id="Vector_8" class="st3" d="M47.1,789.4v27.2H1.2v-27.2H47.1z M0,1173.1v-98.6h51.5v98.6H0z"/>
	<path id="Vector_9" class="st3" d="M1.2,1173.1v-27.2h46.3v27.2H1.2z M47.1,1332v-14.4h354.2v14.4H47.1z M50.3,1176.2v-14.4H547
		v14.4H50.3z M47.1,1050.1v-14.4h127v14.4H47.1z M237.6,1050.1v-14.4h59.5v14.4H237.6z M36.7,867.2v-14.4h511.9v14.4H36.7z
		 M36.7,500.3v-14.4h259.9v14.4H36.7z M286.3,569.4V555h259.9v14.4H286.3z M669.6,506.7v-14.4h508.7v14.4H669.6z"/>
	<path id="Vector_10" class="st3" d="M549.4,687.5h-17.6V555h17.6V687.5z M549.4,757.4h-17.6V739h17.6V757.4z"/>
	<path id="Vector_11" class="st3" d="M549.4,759.8h-55.9v-12.4h55.9V759.8z"/>
	<path id="Vector_12" class="st3" d="M504.3,753.4V856h-10.8V753.4H504.3z M523.9,562.2h-12v-111h12V562.2z"/>
	<path id="Vector_13" class="st3" d="M549.4,450.8v12h-37.9v-12H549.4z M680.4,377.3v17.6H532.2v-17.6H680.4z"/>
	<path id="Vector_14" class="st3" d="M663.6,386.1h17.2v17.6h-17.2V386.1z M663.6,452.8h17.2v151.3h-17.2V452.8z M663.6,653.6h17.2
		v22h-17.2V653.6z M663.6,733.9h17.2V757h-17.2V733.9z M663.6,808.5h17.2v105h-17.2V808.5z M663.6,1180.6h17.2v184.5h-17.2V1180.6z
		 M663.6,1416.6h17.2v102.2h-17.2V1416.6z M663.6,1570.3h17.2v120.6h-17.2V1570.3z M663.6,1752.4h17.2v46.7h-17.2V1752.4z
		 M688.4,1696.9h12.4v67.1h-12.4V1696.9z"/>
	<path id="Vector_15" class="st3" d="M667.2,1764.4V1752h33.5v12.4H667.2z M663.6,1850.6h17.2v68.7h-17.2V1850.6z"/>
	<path id="Vector_16" class="st3" d="M651.6,1922.1v-17.2h137.3v17.2H651.6z M400.1,1922.1v-17.2h200v17.2H400.1z"/>
	<path id="Vector_17" class="st3" d="M417.3,2301.8h-17.2v-388.1h17.2V2301.8z M549,1909.3h-17.2V1867H549V1909.3z M123.8,1892.1v20
		H45.9v-20H123.8z M549,1815.9h-17.2v-25.2H549V1815.9z M549,1692.1h-17.2v-52.7H549V1692.1z M549,1588.3h-17.2v-156.5H549V1588.3z"
		/>
	<path id="Vector_18" class="st3" d="M549,1463.3h-10.4v-152.1H549V1463.3z"/>
	<path id="Vector_19" class="st3" d="M549,1331.6h-15.2v-94.2H549V1331.6z M549,1185.8h-15.2v-142.9H549V1185.8z M544.6,1803.1
		h-42.3v-12.4h42.3V1803.1z"/>
	<path id="Vector_20" class="st3" d="M516.3,1802.7h-13.6v-113h13.6V1802.7z M791.4,2301.8h-17.2v-396.9h17.2V2301.8z M676.4,1476.5
		v-17.2h494.3v17.2H676.4z M663.6,1697.7v-13.2h507.1v13.2H663.6z M663.6,744.2v-10.4h47.9v10.4H663.6z M663.6,914.7v-12.4h53.9
		v12.4H663.6z"/>
	<path id="Vector_21" class="st3" d="M717.1,935.5h-12.4v-33.1h12.4V935.5z M663.6,905.9h11.2v182.5h-11.2V905.9z M663.6,1139.1
		h11.2v39.5h-11.2V1139.1z M699.9,662.4h11.2v81.9h-11.2V662.4z"/>
	<path id="Vector_22" class="st3" d="M667.2,676v-16.4h43.9V676H667.2z M699.9,713.1v-17.2h466.7v17.2H699.9z M1088.4,898.4V876
		h78.3v22.4H1088.4z M866.4,1095.6v-16.8h300.2v16.8H866.4z M705.9,935.5v-18.4h167.3v18.4H705.9z M663.6,1183v-17.2h209.6v16.8
		L663.6,1183z"/>
	<path id="Vector_23" class="st3" d="M874.4,1183h-18V919.5h18V1183z M591.3,53.1h17.2v328.2h-17.2V53.1z M391.7,199.6h17.2v86.2
		h-17.2V199.6z M871.6,256.7h17.2v86.6h-17.2V256.7z M754.2,256.7h6.8V297h-6.8V256.7z M754.2,335.8h6.8v55.1h-6.8V335.8z"/>
	<path id="Vector_24" class="st3" d="M754.2,393.3v-6.8h144.1v6.8H754.2z M937.1,393.3v-6.8H985v6.8H937.1z"/>
	<path id="Vector_25" class="st3" d="M951.1,495.1h-6.8V388.5h6.8V495.1z M794.2,495.1h-6.8v-107h6.8V495.1z M878,390.9h-6.8v-72.7
		h6.8V390.9z M852.9,291.1h-6.8v-30.3h6.8V291.1z M862.4,390.9h-6.8V286.3h6.8V390.9z"/>
	<path id="Vector_26" class="st3" d="M754.2,263.1v-6.8h164.9v6.8H754.2z M846.1,291.1v-6.8h32.3v6.8H846.1z M296.7,569.4h-16.4V486
		h16.4V569.4z M36.7,890.8v-7.2h511.9v7.2H36.7z M358.2,1050.1v-14.4h73.5v14.4H358.2z"/>
	<path id="Vector_27" class="st3" d="M390.9,1165.1h-14.4v-123.4h14.4V1165.1z M273.1,1165.1h-14.4v-123.4h14.4V1165.1z
		 M151.7,1165.1h-14.4v-123.4h14.4V1165.1z M373.7,1327.2h-14.4v-96.6h14.4V1327.2z M373.7,1179.4h-14.4V1165h14.4V1179.4z
		 M493.9,1050.1v-14.4H549v14.4H493.9z M47.1,1695.7v-14.4h501.5v14.4H47.1z M454.8,1332v-14.4H549v14.4H454.8z M321,1473.7h-17.6
		V1330H321V1473.7z"/>
	<path id="Vector_28" class="st3" d="M511.1,1457.7v17.6H315.4v-17.6H511.1z M538.6,1431.8v11.2h-35.9v-11.2H538.6z"/>
	<path id="Vector_29" class="st3" d="M500.7,1432.6h11.2v41.1h-11.2V1432.6z M14.4,1542v-97h37.1v97H14.4z M1.2,1733.6V1633h50.3
		v100.6H1.2z"/>
	<path id="Vector_30" class="st3" d="M1.2,1542v-27.2h46.3v27.2H1.2z M12.4,1921.3v-96.6h39.1v96.6H12.4z M12.4,2076.6v-63.1h44.7
		v63.1H12.4z"/>
	<path id="Vector_31" class="st3" d="M1.2,1921.3v-27.2h46.3v27.2H1.2z M12.4,2323.8v-117.4h39.1v117.4H12.4z"/>
	<path id="Vector_32" class="st3" d="M19.2,2323.8v-35.1h39.9v35.1H19.2z M398.9,2337.3v-48.7h28.3v48.7H398.9z M206.8,2337.3v-48.7
		h99.8v48.7H206.8z"/>
	<path id="Vector_33" class="st3" d="M402.9,2313v-24.3h28.3v24.3H402.9z M910.8,2310.2v-28.3H997v28.3H910.8z M529.8,2310.2v-28.3
		H616v28.3H529.8z M216,2310.2v-28.3h81.5v28.3H216z M1161.9,2324.1v-35.5h35.5v35.5H1161.9z M714.7,2328.9v-40.7h99.4v40.7H714.7z"
		/>
	<path id="Vector_34" class="st3" d="M1096,2336.9v-48.3h99.4v48.3H1096z M785.8,2336.1v-43.5h28.4v43.5H785.8z M1.2,2336.9v-27.1
		h27.2v27.1H1.2z"/>
	<path id="Vector_35" class="st2" d="M1162.7,483.9v99.8h51.5l-12-99.8L1162.7,483.9L1162.7,483.9z"/>
	<path id="Vector_36" class="st3" d="M1161.1,2310.6v-100.2h51.5v100.2H1161.1z M1155.9,2077v-61.9h10v61.9H1155.9z M1155.9,1916.1
		v-79.5h10v79.5H1155.9z"/>
	<path id="Vector_37" class="st3" d="M1185.4,2336.9V2311h26.8v25.9H1185.4z M1162.7,1921.3v-98.6h40.7v98.6H1162.7z"/>
	<path id="Vector_38" class="st3" d="M1166.7,1921.3v-27.2h41.1v27.2H1166.7z M1162.7,778.6V678.4h40.3v100.2L1162.7,778.6
		L1162.7,778.6z"/>
	<path id="Vector_39" class="st3" d="M1166.7,778.6v-27.2h46.3v27.2H1166.7z M1162.7,1155.9v-97h37.5v97H1162.7z"/>
	<path id="Vector_40" class="st3" d="M1162.7,1161.9v-28.8h50.3v28.8H1162.7z M1162.7,1350.7v-99.8h50.3v99.8H1162.7z"/>
	<path id="Vector_41" class="st2" d="M1162.7,1631v99.8h51.5l-12-99.8H1162.7z M1162.7,2015.1v99.8h51.5l-12-99.8L1162.7,2015.1
		L1162.7,2015.1z M623.7,2285.8h-99.8v50.7l99.8-12V2285.8z M1006.6,2285.8h-99.8v50.7l99.8-12V2285.8z"/>
	<path id="Vector_42" class="st3" d="M1162.7,1538.8v-100.2h37.1v100.2H1162.7z"/>
	<path id="Vector_43" class="st3" d="M1166.7,1538.8v-27.2h47.1v27.2H1166.7z M1213,375.3v27.1h-50.3v-27.1H1213z M1167.9,216.8
		v79.1h-11.6v-79.1L1167.9,216.8L1167.9,216.8z M1167.9,485.9v80.7h-11.6v-80.7L1167.9,485.9L1167.9,485.9z M1199,14.8v36.3h-36.7
		V14.8H1199z"/>
	<path id="Vector_44" class="st3" d="M1200.6,14.8v91.8h-38.3V14.8H1200.6z M1200.6,200.8v98.6h-38.3v-98.6L1200.6,200.8
		L1200.6,200.8z M1213,872v95.8h-50.7V872H1213z M1008.6,14v37.5H981V14H1008.6z"/>
	<path id="Vector_45" class="st3" d="M1213,1.6v32.3h-50.7V1.6H1213z"/>
</g>
</svg>
