<?xml version="1.0" encoding="utf-8"?>
<!-- Generator: Adobe Illustrator 27.0.0, SVG Export Plug-In . SVG Version: 6.00 Build 0)  -->
<svg version="1.1" id="Слой_1" xmlns="http://www.w3.org/2000/svg" xmlns:xlink="http://www.w3.org/1999/xlink" x="0px" y="0px"
	 viewBox="0 0 1215.7 2340.1" style="enable-background:new 0 0 1215.7 2340.1;" xml:space="preserve">
<style type="text/css">
	.st0{fill:#BE8656;fill-opacity:1.000000e-02;}
	.st1{fill:#8DA7B3;fill-opacity:0.4;}
	.st2{fill-rule:evenodd;clip-rule:evenodd;fill:#003A50;}
	.st3{fill:#003A50;}
</style>
<g id="stikers">
	<path id="s-fl285" class="st0" d="M369.7,713.3h-318v125h318V713.3z"/>
	<path id="s-fl286" class="st0" d="M369.7,192h-318v125h318V192z"/>
	<path id="s-fl287" class="st0" d="M1171.7,192h-310v125h310V192z"/>
	<path id="s-fl288" class="st0" d="M1171.7,507h-310v125h310V507z"/>
	<path id="s-fl289" class="st0" d="M1171.7,713.3h-310v125h310V713.3z"/>
	<path id="s-fl290" class="st0" d="M1171.7,1218.3h-310v125h310V1218.3z"/>
	<path id="s-fl291" class="st0" d="M1171.7,1475.6h-310v125h310V1475.6z"/>
	<path id="s-fl292" class="st0" d="M1171.7,1697.3h-310v125h310V1697.3z"/>
	<path id="s-fl293" class="st0" d="M756.7,2056.6h-318v125h318V2056.6z"/>
	<path id="s-fl294" class="st0" d="M369.7,1696.3h-318v125h318V1696.3z"/>
	<path id="s-fl295" class="st0" d="M369.7,1475.6h-318v125h318V1475.6z"/>
</g>
<g id="flats">
	<path id="fl295" class="st1" d="M538.1,1439.4l-26.4,0.4v19.2l-192.4,3.6l1.2-138.6l-270.3,1.2l1.6,356.5l481.1-1.2l0.4-41.1v-51.5
		L538.1,1439.4z"/>
	<path id="fl294" class="st1" d="M547.3,1693.3h-21.2v0.4H51v604.1h357.3v-387.7h125.8l-0.4-42.7v-51.5l7.2-8l6.8-9.2v-105.4
		L547.3,1693.3L547.3,1693.3z"/>
	<path id="fl293" class="st1" d="M793.3,2297.8H403.2l5.6-379.7l192.8,4h51.9l132.2-2.8L793.3,2297.8z"/>
	<path id="fl292" class="st1" d="M1163.8,1908.1v-214H689.9v-0.8h-22v71.9l14.4,33.5v123l98.6-2.4l6.8,378.5h378.1L1163.8,1908.1z"
		/>
	<path id="fl291" class="st1" d="M681.1,1472.1h483.1v218.8H681.1l1.2-120.6v-51.5L681.1,1472.1z"/>
	<path id="fl290" class="st1" d="M867.9,1088.4v92.6l-190.1-4l4,187.7v51.5v47.1h483.5V1088H867.8L867.9,1088.4L867.9,1088.4z"/>
	<path id="fl289" class="st1" d="M699,713.1V674h-28.3v66.3l11.6,16.8v51.5l-2.4,95.4h29.9v19.6h154.1v169.7h302.2V712.7H699V713.1z
		"/>
	<path id="fl288" class="st1" d="M1165.4,698.7H704.6l-3.2-30.7l-19.2-3.2v-60.7l-4-107h487.5v201.6L1165.4,698.7L1165.4,698.7z"/>
	<path id="fl287" class="st1" d="M604,51.1v331.4l64.7,4l13.6,16.8v49.1l-2.8,42.3l485.5-2.4V51.1H604z"/>
	<path id="fl286" class="st1" d="M594.8,49.9H51v438h245.2V555l236,7.2l12.4-3.2V398.1l14.4-12.8l36.3-3.2V49.9H594.8z"/>
	<path id="fl285" class="st1" d="M533.3,739v-51.5l-0.4-131.4H297.8v-69.9H51v372.1h458.4v1.2h38.7v-109L533.3,739z"/>
</g>
<g id="walls_outside">
	<path id="Vector" class="st2" d="M53,217.6v99.8H1.5l12-99.8L53,217.6L53,217.6z M624,51.5h-99.8V0L624,12V51.5z M53,982.6v99.8
		H1.5l12-99.8L53,982.6L53,982.6z M53,1255.7v99.8H1.5l12-99.8H53z M53,2013.5v99.8H1.5l12-99.8H53z M624.4,2288.6h-99.8v51.5
		l99.8-12V2288.6z M1005.3,2288.6h-99.8v51.5l99.8-12V2288.6z"/>
	<path id="Vector_2" class="st3" d="M53,24.8v101.8H5.1V24.8H53z"/>
	<path id="Vector_3" class="st3" d="M62.2,24.8v26.8H9.1V24.8H62.2z M308.2,1.6v49.9h-28.3V1.6H308.2z M435.1,1.6v49.9h-35.9V1.6
		H435.1z M814.8,1.6v49.9h-28V1.6H814.8z"/>
	<path id="Vector_4" class="st3" d="M810.8,14.8v36.3h-95.4V14.8H810.8z M298.2,31.9v26h-80.7v-26C217.5,31.9,298.2,31.9,298.2,31.9
		z"/>
	<path id="Vector_5" class="st3" d="M303.8,11.2v40.3h-95V11.2H303.8z M115.7,3.6v47.9H19.9V3.6H115.7z M616.4,29.5v28.3h-80.7V29.5
		H616.4z"/>
	<path id="Vector_6" class="st2" d="M1005.7,51.5h-99.8V0l99.8,12V51.5z"/>
	<path id="Vector_7" class="st3" d="M998.1,29.5v28.3h-80.7V29.5H998.1z M29.9,3.6v26H0v-26C0,3.6,29.9,3.6,29.9,3.6z M53,409.7
		v98.6H12.3v-98.6H53z"/>
	<path id="Vector_8" class="st3" d="M48.6,409.7v27.1H2.7v-27.1H48.6z M53,789.4v101.4H15.5V789.4H53z"/>
	<path id="Vector_9" class="st3" d="M48.6,789.4v27.2H2.7v-27.2H48.6z M13.5,1173.1v-98.6H53v98.6H13.5z M1.5,1733.6V1635H53v98.6
		H1.5z"/>
	<path id="Vector_10" class="st3" d="M2.7,1173.1v-27.2H49v27.2H2.7z M48.6,1332v-14.4h354.2v14.4H48.6z M51.8,1176.2v-14.4h496.7
		v14.4H51.8z M48.6,1050.1v-14.4h127v14.4H48.6z M239.1,1050.1v-14.4h59.5v14.4H239.1z M38.2,867.2v-14.4h511.9v14.4H38.2z
		 M38.2,500.3v-14.4h259.9v14.4H38.2z M287.8,569.4V555h259.9v14.4H287.8z M671.1,506.7v-14.4h508.7v14.4H671.1z"/>
	<path id="Vector_11" class="st3" d="M550.9,687.5h-17.6v-133h17.6V687.5z M550.9,757.4h-17.6V739h17.6V757.4z"/>
	<path id="Vector_12" class="st3" d="M550.9,759.8H495v-12.4h55.9V759.8z"/>
	<path id="Vector_13" class="st3" d="M505.8,753.4V856H495V753.4H505.8z M525.4,562.2h-12v-111h12V562.2z"/>
	<path id="Vector_14" class="st3" d="M550.9,450.8v12H513v-12H550.9z M681.9,377.3v17.6H533.7v-17.6H681.9z"/>
	<path id="Vector_15" class="st3" d="M665.1,386.1h17.2v17.6h-17.2V386.1z M665.1,452.8h17.2v151.3h-17.2V452.8z M665.1,653.6h17.2
		v22h-17.2V653.6z M665.1,733.9h17.2V757h-17.2V733.9z M665.1,808.5h17.2v105h-17.2V808.5z M665.1,1180.6h17.2v184.5h-17.2V1180.6z
		 M665.1,1416.6h17.2v102.2h-17.2V1416.6z M665.1,1570.3h17.2v120.6h-17.2V1570.3z M665.1,1752.4h17.2v46.7h-17.2V1752.4z
		 M689.9,1696.9h12.4v67.1h-12.4V1696.9z"/>
	<path id="Vector_16" class="st3" d="M668.7,1764.4V1752h33.5v12.4H668.7z M665.1,1850.6h17.2v68.7h-17.2V1850.6z"/>
	<path id="Vector_17" class="st3" d="M653.1,1922.1v-17.2h137.3v17.2H653.1z M401.6,1922.1v-17.2h200v17.2H401.6z"/>
	<path id="Vector_18" class="st3" d="M418.8,2301.8h-17.2v-388.1h17.2V2301.8z M550.5,1909.3h-17.2V1867h17.2V1909.3z M125.3,1892.1
		v20H47.4v-20H125.3z M550.5,1815.9h-17.2v-25.2h17.2V1815.9z M550.5,1692.1h-17.2v-52.7h17.2V1692.1z M550.5,1588.3h-17.2v-156.5
		h17.2V1588.3z"/>
	<path id="Vector_19" class="st3" d="M550.5,1463.3h-10.4v-152.1h10.4V1463.3z"/>
	<path id="Vector_20" class="st3" d="M550.5,1331.6h-15.2v-94.2h15.2V1331.6z M550.5,1185.8h-15.2v-142.9h15.2V1185.8z
		 M546.1,1803.1h-42.3v-12.4h42.3V1803.1z"/>
	<path id="Vector_21" class="st3" d="M517.8,1802.7h-13.6v-113h13.6V1802.7z M792.9,2301.8h-17.2v-396.9h17.2V2301.8z M677.9,1476.5
		v-17.2h494.3v17.2H677.9z M665.1,1697.7v-13.2h507.1v13.2H665.1z M665.1,744.2v-10.4H713v10.4H665.1z M665.1,914.7v-12.4H719v12.4
		H665.1z"/>
	<path id="Vector_22" class="st3" d="M718.6,935.5h-12.4v-33.1h12.4V935.5z M665.1,905.9h11.2v182.5h-11.2V905.9z M665.1,1139.1
		h11.2v39.5h-11.2V1139.1z M701.4,662.4h11.2v81.9h-11.2V662.4z"/>
	<path id="Vector_23" class="st3" d="M668.7,676v-16.4h43.9V676H668.7z M701.4,713.1v-17.2h466.7v17.2H701.4z M1089.9,898.4V876
		h78.2v22.4H1089.9z M867.9,1095.6v-16.8h300.2v16.8H867.9z M707.4,935.5v-18.4h167.3v18.4H707.4z M665.1,1183v-17.2h209.6v16.8
		L665.1,1183z"/>
	<path id="Vector_24" class="st3" d="M875.9,1183h-18V919.5h18V1183z M592.8,53.1H610v328.2h-17.2V53.1z M393.2,199.6h17.2v86.2
		h-17.2V199.6z M873.1,256.7h17.2v86.6h-17.2V256.7z M298.2,569.4h-16.8V486h16.8V569.4z M38.2,890.8v-7.2h511.9v7.2H38.2z
		 M359.7,1050.1v-14.4h73.5v14.4H359.7z"/>
	<path id="Vector_25" class="st3" d="M392.4,1165.1H378v-123.4h14.4V1165.1z M274.6,1165.1h-14.4v-123.4h14.4V1165.1z M153.2,1165.1
		h-14.4v-123.4h14.4V1165.1z M375.2,1327.2h-14.4v-96.6h14.4V1327.2z M375.2,1179.4h-14.4V1165h14.4V1179.4z M495.4,1050.1v-14.4
		h55.1v14.4H495.4z M48.6,1695.7v-14.4h501.5v14.4H48.6z M456.3,1332v-14.4h94.2v14.4H456.3z M322.5,1473.7h-17.6V1330h17.6V1473.7z
		"/>
	<path id="Vector_26" class="st3" d="M512.6,1457.7v17.6H316.9v-17.6H512.6z M540.1,1431.8v11.2h-35.9v-11.2H540.1z"/>
	<path id="Vector_27" class="st3" d="M502.2,1432.6h11.2v41.1h-11.2V1432.6z M19.1,1542v-94.6H53v94.6H19.1z"/>
	<path id="Vector_28" class="st3" d="M2.7,1542v-27.2H49v27.2H2.7z M16.7,1921.3v-94.6H53v94.6H16.7z"/>
	<path id="Vector_29" class="st3" d="M2.7,1921.3v-27.2H49v27.2H2.7z M16.7,2323.8v-119H53v119H16.7z"/>
	<path id="Vector_30" class="st3" d="M20.7,2323.8v-35.1h39.9v35.1H20.7z M207.9,2332.1v-43.5h100.2v43.5H207.9z M400.4,2337.3
		v-48.7h28.3v48.7H400.4z"/>
	<path id="Vector_31" class="st3" d="M404.4,2313v-24.3h28.3v24.3H404.4z M912.3,2310.2v-28.3h86.2v28.3H912.3z M531.3,2310.2v-28.3
		h86.2v28.3H531.3z M217.5,2310.2v-28.3H299v28.3H217.5z M1099.1,2332.1v-43.5h100.2v43.5H1099.1z M716.2,2328.5v-39.9h99.4v39.9
		H716.2z"/>
	<path id="Vector_32" class="st3" d="M787.3,2336.1v-43.5h28.4v43.5H787.3z M2.7,2336.9v-27.1h27.1v27.1H2.7z"/>
	<path id="Vector_33" class="st2" d="M53,698.3v-98.6H13.9l-12,98.6H53z M1164.2,2011.5v99.8h51.5l-12-99.8H1164.2z M1164.2,483.9
		v99.8h51.5l-12-99.8L1164.2,483.9L1164.2,483.9z"/>
	<path id="Vector_34" class="st3" d="M1164.2,196h39.1v99.8h-39.1V196z M1162.6,2310.6V2206h51.1v104.6H1162.6z M1157.4,2077v-64.3
		h10v64.3H1157.4z M1157.4,1916.1v-79.5h10v79.5H1157.4z M1186.9,2336.9V2311h26.8v25.9H1186.9z"/>
	<path id="Vector_35" class="st3" d="M1164.2,1921.3v-98.6h39.5v98.6H1164.2z"/>
	<path id="Vector_36" class="st3" d="M1168.2,1921.3v-27.2h41.1v27.2H1168.2z M1164.2,773.4V673.2h37.5v100.2H1164.2z"/>
	<path id="Vector_37" class="st3" d="M1168.2,773.4v-26.8h46.3v27.1h-46.3V773.4z M1164.2,1155.9v-100.2h39.5v100.2H1164.2z
		 M1164.2,969V868.8h47.9V969H1164.2z"/>
	<path id="Vector_38" class="st3" d="M1168.2,1155.9v-27.2h46.3v27.2H1168.2z"/>
	<path id="Vector_39" class="st2" d="M1164.2,1631v99.8h51.5l-12-99.8H1164.2z"/>
	<path id="Vector_40" class="st3" d="M1164.2,1538.8v-100.2h39.5v100.2H1164.2z M1164.2,1352.7v-100.2h50.3v100.2H1164.2z"/>
	<path id="Vector_41" class="st3" d="M1168.2,1538.8v-27.2h41.1v27.2H1168.2z M1214.5,375.3v27.1h-50.3v-27.1H1214.5z M1169.4,216.8
		v79.1h-11.6v-79.1L1169.4,216.8L1169.4,216.8z M1169.4,485.9v80.7h-11.6v-80.7L1169.4,485.9L1169.4,485.9z M1200.5,14.8v91h-36.7
		v-91C1163.8,14.8,1200.5,14.8,1200.5,14.8z"/>
	<path id="Vector_42" class="st3" d="M1196.5,14.8v35.1h-32.7V14.8H1196.5z"/>
	<path id="Vector_43" class="st3" d="M1214.5,2v27.2h-27.2V2H1214.5z"/>
</g>
</svg>
