<svg width="124" height="124" viewBox="0 0 124 124" fill="none" xmlns="http://www.w3.org/2000/svg">
<circle cx="62" cy="62" r="61.5" stroke="#CE9270"/>
<path d="M44.3205 60.15H47.9955V69H49.8555V60.15H53.5305V58.5H44.3205V60.15ZM52.7762 69H54.6212L56.1362 66.615H58.0862V69H59.7662V61.65H56.1662C54.0362 61.65 52.9112 62.49 52.9112 64.125C52.9112 65.955 54.4562 66.36 54.4562 66.36L52.7762 69ZM54.6512 64.125C54.6512 63.405 55.1312 63 56.3012 63H58.0862V65.265H56.3012C55.1312 65.265 54.6512 64.845 54.6512 64.125ZM67.5352 69H69.2152V61.65H67.5352V64.515H63.3952V61.65H61.7152V69H63.3952V66.015H67.5352V69ZM77.0961 69H78.7761V61.65H76.2711L72.9261 67.275H72.8511V61.65H71.1711V69H73.6761L77.0211 63.375H77.0961V69Z" fill="#CE9270"/>
</svg>
