<svg width="1112" height="698" viewBox="0 0 1112 698" fill="none" xmlns="http://www.w3.org/2000/svg">
	<g id="genplanMini 1">
		<g id="bgd">
			<path id="Vector" d="M779 30L778.7 30.1L732.4 39L731.8 39.1V42.2L731.4 42.3L730.8 42.4V45L729.8 45.2L729.2 45.3V73.4L725.8 74.1L725.2 74.2V308.3L715.6 310.1V206.3L715.3 206.1L711.3 203V135.8L711 135.6L675.3 108.6L675 108.4L674.7 108.5L635.2 116L634.6 116.1V224.8L622.9 227L622.3 227.1V342.1L612.9 335L612.6 334.8L612.3 334.9L608.1 335.7V221.8L607.8 221.6L597.4 213.7V210.7L597.1 210.5L569 189.3L568.7 189.1L568.4 189.2L520.8 198.3L520.2 198.4V372L504.8 374.9L503.2 373.7L502.9 373.5L502.6 373.6V296.8L502.3 296.6L460 264.6L459.7 264.4L459.4 264.5L416.8 272.6L416.2 272.7V299L416.1 298.9V241.3L415.8 241.1L387.2 219.5L386.9 219.3L386.6 219.4L369.3 222.7L364.9 219.4L364.6 219.2L364.3 219.3L342.3 223.5L341.7 223.6V296.8L335 298.1L334.4 298.2V320.9L332.6 321.3L332 321.4V373.3L332.3 373.5L335.5 375.9V376L330.2 377L329.6 377.1V449.5L329.9 449.7L361.7 473.8L347.8 476.4L347.2 476.5V477.8L342.6 478.7L332.3 470.9L332 470.7L331.7 470.8L314.3 474.1V391.6L314 391.4L311.8 389.7V280L311.5 279.8L274.9 252.1L274.6 251.9L274.3 252L234 259.7L233.4 259.8V367L222.7 369L222.1 369.1V486.5L222.4 486.7L237.2 497.9V498.7L213.6 503.2L209.3 500V474.3L209 474L203.7 470V348.4L203.4 348.2L161.5 316.5L161.2 316.3L160.9 316.4L117.1 324.7L116.5 324.8V464.5L114.3 464.9V428.9L114 428.7L73.2004 397.9L72.9004 397.7L72.6004 397.8L30.5004 405.7L29.9004 405.8V556.7L30.2004 556.9L34.9004 560.4V572V572.4L35.2004 572.6L68.2004 597.6L68.5004 597.8L68.8004 597.7L73.3004 596.8V611L73.6004 611.2L73.9004 611.4V619.4V619.8L74.2004 620L112.8 649.2L113.1 649.4L113.4 649.3L117.5 648.5L143.4 668.1L143.7 668.3L144 668.2L175.8 662.2L176.4 662.1V648.5L191.3 645.7L191.9 645.6V600.3L220.1 621.6L220.4 621.8L220.7 621.7L270 612.3L270.6 612.2V594.6L454.4 559.6L465.7 568.1L466 568.3L466.3 568.2L507.3 560.4L507.9 560.3V552.3H508.6H510.9L509.1 550.9L507.2 549.5L521.9 546.7L522.5 546.6V514.2L522.2 514L513.6 507.4L513.3 507.2L513 507.3L505.3 508.8L500.3 505L500 504.8L499.7 504.9L482.7 508.1V506.8L484 506.6L484.6 506.5V465L489.2 468.5L489.5 468.7L489.8 468.6L497.3 467.1L500.2 469.3V471.3L500.5 471.5L508.4 477.5L508.6 477.7L508.9 477.6L512.1 477L514.9 479.1V484L515.2 484.2L518.7 486.8V490.7L519 490.9L566.3 526.7L566.6 526.9L566.9 526.8L574.2 525.5V526.6L574.5 526.8L578.3 529.6V535.7L578.6 535.9L595.6 548.7L595.9 548.9L596.2 548.8L762.2 517.2L762.8 517.1V509L763.4 508.9L764 508.8V454.2L763.7 454L761.2 452.1V436.9L770.6 435.1L773.6 437.4L773.5 498.1V498.5L773.8 498.7L791.3 512L791.6 512.2L791.9 512.1L832.4 504.4L833 504.3V494.3L838.7 493.2L849 501L849.3 501.2L849.6 501.1L987.4 474.9V483.8L987.1 483.9V487.3L972.1 490.2L968.8 487.7L968.5 487.5L968.2 487.6L946.2 491.8L945.6 491.9V525.3L945.9 525.5L947.6 526.8V536.6L947.9 536.8L962.9 548.1L963.2 548.3L963.5 548.2L1081.1 525.8L1081.7 525.7V455.2L1081.4 455L1078.7 453V451L1081.1 450.6L1081.7 450.5V357L1081.4 356.8L1074.3 351.4V252.3L1074 252.1L1073.9 252V245.1L1073.6 244.9L1044.5 222.9L1044.2 222.7L1043.9 222.8L1027 226L1023.3 223.2L1023 223L1022.7 223.1L1000.5 227.3L999.9 227.4V349.2L992.7 350.6L992.1 350.7V372.6L990.1 373L989.5 373.1V426.6L989.8 426.8L992.2 428.6L988.1 429.4L987.5 429.5V430.1L987.4 435.4L933.4 394.6L933.1 394.4L932.8 394.5L917.5 397.4V391.2L917.2 391L898.8 377.1L898.5 376.9L898.2 377L876.3 381.2L869.8 376.2L869.5 376L869.2 376.1L841 381.5L840.4 381.6V388L829.9 390V377.1L829.6 376.9L813.2 364.5L812.9 364.3L812.6 364.4L806.4 365.6L799.7 360.5L799.4 360.3L799.1 360.4L798.4 360.5V355.5L798.1 355.3L786.5 346.5L786.2 346.3L785.9 346.4L778.3 347.9L774.6 345.1V340.7L774.3 340.5L768.8 336.3L812 328.1L812.6 328V51L812.3 50.8L786.4 31.2L786.1 31L785.8 31.1L781.2 32L779.1 30.4L779 30Z" stroke="#91AAB6" stroke-miterlimit="10"/>
		</g>
		<g id="izofabrica">
			<path id="Vector_2" d="M190.9 554.9V559.6L224.8 553.1L230.1 557L246.8 554.1L255.9 552.3V507.6L237.8 494.3V499.6L254.8 512.3V542.8L190.9 554.9ZM201.1 577.5L190.9 570.1V599.2L220.3 621.4V611.4L201.1 596.9V577.5ZM292 479.3V489L295.1 488.4L312.1 501.3L311.7 541.7L314 541.1V495.4L292 479.3ZM365.4 490.2V528.4L367 529.6V491.4L365.4 490.2ZM409.1 482.2V520.4L410.3 521.4V483.2L409.1 482.2ZM482.5 515.2V515.7L489.9 524.8V520.7L482.5 515.2Z" fill="#E5EBED"/>
			<path id="Vector_3" d="M383.801 435.5V465.8L392.701 464.5L397.301 467.9L407.401 465.8L408.601 466.8L424.001 463.9L439.901 475.7V515.7L441.501 517.1V470.6L417.201 452.6V460.9L407.901 454L405.901 454.5L391.401 443.4L393.401 442.9L383.801 435.5ZM466.001 567.8L454.201 559L454.601 551.7L466.001 560.3V567.8Z" fill="#E5EBED"/>
			<path id="Vector_4" d="M191.2 501.6L206.5 498.7L226 513.4V548.1L191.2 554.7M191.2 520.1L226 513.5M256 552V507.3M238 494.1L256 507.4L283.7 502.2" stroke="#AFC3CA" stroke-width="0.46" stroke-miterlimit="10"/>
			<path id="Vector_5" d="M283.701 546.7V502.2L266.001 488.8L238.001 494.1V499.4M244.001 551.4L227.101 554.6M244.001 551.4L247.101 553.7M244.001 551.4V544.7" stroke="#AFC3CA" stroke-width="0.46" stroke-miterlimit="10"/>
			<path id="Vector_6" d="M312.1 541.4L312.3 501.2L295.1 488.4L271.4 492.9" stroke="#AFC3CA" stroke-width="0.46" stroke-miterlimit="10"/>
			<path id="Vector_7" d="M292.1 488.9V478.9L331.9 471.3L353.7 487.8L353.9 533.3M283.7 506.5L312.3 501.1" stroke="#AFC3CA" stroke-width="0.46" stroke-miterlimit="10"/>
			<path id="Vector_8" d="M292.1 479L314.3 495.4L353.6 488M314.3 495.3V541M226 517.6L254.9 512.1M213.4 504L237.8 499.4L254.7 512.2V542.7L225.8 548.2M481.8 462.8L441.8 470.4L417.5 452.1" stroke="#AFC3CA" stroke-width="0.46" stroke-miterlimit="10"/>
			<path id="Vector_9" d="M483.601 460.1L479.401 460.9L481.801 462.8V509.1L441.701 516.7L440.101 515.4L426.701 517.9M409.101 476.5L381.101 481.8L364.801 469.5M383.001 488.3L367.001 491.4L365.401 490.2L353.601 492.4" stroke="#AFC3CA" stroke-width="0.46" stroke-miterlimit="10"/>
			<path id="Vector_10" d="M353.6 530.6L365.4 528.4L367 529.6L383 526.6V488.4L364 474L348 477V478.3" stroke="#AFC3CA" stroke-width="0.46" stroke-miterlimit="10"/>
			<path id="Vector_11" d="M364.9 474.7V469.6L392.9 464.3L409.2 476.6V520.1L383 525.1M381.2 481.9V487M348 477L349.4 478.1L342.5 479.4M366.9 491.4V529.6M365.4 528.4V490.2" stroke="#AFC3CA" stroke-width="0.46" stroke-miterlimit="10"/>
			<path id="Vector_12" d="M397.4 467.6L407.7 465.6L408.9 466.5L424.3 463.6L440.2 475.6V515.5" stroke="#AFC3CA" stroke-width="0.46" stroke-miterlimit="10"/>
			<path id="Vector_13" d="M426.7 480L410.4 483.1L409.2 482.1" stroke="#AFC3CA" stroke-width="0.46" stroke-miterlimit="10"/>
			<path id="Vector_14" d="M409.1 520.1L410.3 521L426.6 517.9V480L424.6 478.5L440 475.6M410.4 483.1V521M384 435.3L393.6 442.6L391.5 443V464.5" stroke="#AFC3CA" stroke-width="0.46" stroke-miterlimit="10"/>
			<path id="Vector_15" d="M391.601 443L406.101 454M406.101 454L408.201 453.6M406.101 454V465.9M481.801 506.2L483.701 505.9V460.1L462.001 443.7L417.501 452.2V460.6L408.301 453.6V466.1" stroke="#AFC3CA" stroke-width="0.46" stroke-miterlimit="10"/>
			<path id="Vector_16" d="M450.501 445.9L436.601 435.4L434.101 435.9L423.401 427.8L384.001 435.3V465.9M243.201 574.3L491.801 527L481.201 514.1L235.401 560.9M454.501 558.9L269.801 594M460.401 545.5L257.601 584.1M521.701 514.7L490.001 520.7L476.001 510.1L499.801 505.6L505.001 509.6L513.001 508.1L521.701 514.7ZM521.701 514.7V546.1L505.301 549.2M489.901 520.8V524.8M251.901 579.8L269.801 593.3V611.6L220.501 621L191.101 598.8" stroke="#AFC3CA" stroke-width="0.46" stroke-miterlimit="10"/>
			<path id="Vector_17" d="M191.2 569.8L201.2 577.4L245.9 568.9L224.9 553L191.2 559.4M242.1 569.6V578.2M251.9 579.8L241.3 578L219.4 586.4L237.3 600L259.2 591.6L269.8 593.4" stroke="#AFC3CA" stroke-width="0.46" stroke-miterlimit="10"/>
			<path id="Vector_18" d="M238.3 599.6V600.6L220.5 611.3L201.2 596.7L221 587.6M201.2 577.4V606.5M241.3 578L259.2 591.5M269.8 602.1L260.2 603.9V613.5M260.2 605.8L220.5 613.5L201.2 598.9M227.3 619.7V612.2M234.1 618.4V610.9M240.9 617V609.5M247.7 615.7V608.2M254.5 614.5V606.9M217.7 618.9V611.4M214.6 616.7V609.2M211.6 614.3V606.8M208.5 612V604.5M205.4 609.7V602.2M202.4 607.4V599.9M476 510.2L230.1 557M465.4 538.3L482.7 551.4M462.2 540.2L465.6 542.8L452.3 549.8L466.1 560.2L482.8 551.4L508.6 551.7L494.9 541.3L473.3 541L470.1 538.6L465.5 538.3L462.2 540.2ZM462.2 540.2V544.4" stroke="#AFC3CA" stroke-width="0.46" stroke-miterlimit="10"/>
			<path id="Vector_19" d="M454.5 558.9L466.1 567.6L507.1 559.8V551.6M456.5 553V560.4M464.1 558.6V566.1" stroke="#AFC3CA" stroke-width="0.46" stroke-miterlimit="10"/>
			<path id="Vector_20" d="M505.1 560.3V553.8L468.1 560.8V567.3M454.5 558.9V551.4M287.6 590.7V585C287.6 582.8 285.6 581.1 283.4 581.5C280.9 582 279.2 584.1 279.2 586.6V592.3L275.4 593V587.3C275.4 585.1 273.4 583.4 271.2 583.8C268.7 584.3 267 586.4 267 588.9V591.1M299.9 588.4V582.7C299.9 580.5 297.9 578.8 295.7 579.2C293.2 579.7 291.5 581.8 291.5 584.3V590M312.1 586V580.3C312.1 578.1 310.1 576.4 307.9 576.8C305.4 577.3 303.7 579.4 303.7 581.9V587.6M324.4 583.7V578C324.4 575.8 322.4 574.1 320.2 574.5C317.7 575 316 577.1 316 579.6V585.3M336.7 581.4V575.7C336.7 573.5 334.7 571.8 332.5 572.2C330 572.7 328.3 574.8 328.3 577.3V583M349 579V573.3C349 571.1 347 569.4 344.8 569.8C342.3 570.3 340.6 572.4 340.6 574.9V580.6M361.3 576.7V571C361.3 568.8 359.3 567.1 357.1 567.5C354.6 568 352.9 570.1 352.9 572.6V578.3M373.6 574.3V568.6C373.6 566.4 371.6 564.7 369.4 565.1C366.9 565.6 365.2 567.7 365.2 570.2V575.9M385.8 572V566.3C385.8 564.1 383.8 562.4 381.6 562.8C379.1 563.3 377.4 565.4 377.4 567.9V573.6M398.1 569.7V564C398.1 561.8 396.1 560.1 393.9 560.5C391.4 561 389.7 563.1 389.7 565.6V571.3M410.4 567.3V561.6C410.4 559.4 408.4 557.7 406.2 558.1C403.7 558.6 402 560.7 402 563.2V568.9M422.7 565V559.3C422.7 557.1 420.7 555.4 418.5 555.8C416 556.3 414.3 558.4 414.3 560.9V566.6M435 562.7V557C435 554.8 433 553.1 430.8 553.5C428.3 554 426.6 556.1 426.6 558.6V564.3M447.3 560.3V554.6C447.3 552.4 445.3 550.7 443.1 551.1C440.6 551.6 438.9 553.7 438.9 556.2V561.9M466.1 567.7V560.2M441.8 470.4V516.7M220.5 611.3V621.1" stroke="#AFC3CA" stroke-width="0.46" stroke-miterlimit="10"/>
		</g>
		<g id="dom">
			<path id="Vector_21" d="M649.5 499V527.4L651.3 528.7V500.3L649.5 499ZM693.2 490.6V519L695 520.3V491.9L693.2 490.6ZM820.9 449.6V493.3L823.3 495.1V451.4L820.9 449.6ZM947.1 439.5V470.6L948.9 471.9V440.8L947.1 439.5ZM905 447.5V478.6L906.8 479.9V448.8L905 447.5ZM887.9 397.4V427.6L889.7 428.9V398.7L887.9 397.4Z" fill="#E5EBED"/>
			<path id="Vector_22" d="M572.1 362.9V343.4L602.7 366.8V373.8L618.3 385.4L618.5 379L630.4 387.8V393.7L625.6 394.7L633.7 400.9L637.3 400.2L645.7 406.3V396.7L662.4 409.3V416.8L678.3 428.8V422.6L690.6 431.6L690.7 436.7L687.8 437.4L696.1 443.7L698.7 443L723.9 462.1V515.7L722 514.2V485L703 470.6L681.4 475L676.3 471L656.9 474.6L637.3 459.6L634.4 460.1V425.7L617.2 412.3L602.8 415.2V373.7L585.5 360.4L572.1 362.9ZM528.4 371.5V366.6L545.6 379.4V384.3L528.4 371.5ZM588.1 422.5V418.2L605.5 431V435.7L588.1 422.5ZM666.2 489L649.4 476.3L648.9 483.4L666.1 496.6V489H666.2ZM655.3 371.9V349.8L672.3 362.5L672.2 386.4L671.5 385.9L671.1 379.9L659.3 371.1L655.3 371.9ZM714.8 390.4V385.5L731.9 397.9V403.2L714.8 390.4ZM717.8 408.3L716.1 406.9L702.8 409.5L711.3 416.2L717.3 415.1L717.9 415.6V408.3H717.8Z" fill="#E5EBED"/>
			<path id="Vector_23" d="M682.1 317.2L692.5 325.3L696.5 324.4L746.3 362.1V354.6L758.1 363.4V369L755.4 369.7L763.9 376L766.8 375.5L772.8 379.9V372.5L789.3 385V407.4L796.6 413L793.5 413.7L805.2 422.5V413L817.7 422.4V428.2L814.5 428.9L819.3 432.7L808.4 434.9L803.7 431.4L774.4 437L792.4 450.7L792 511.6L774.3 498.2L774.4 437L767.2 431.4L764.3 431.9L760.7 429.3V392.8L743.6 380L730.2 382.6V357L713.8 344.6L689.7 349.2L683.6 344.5L681.9 344.8L682.1 317.2ZM832.6 431.4V424L852 438.2V490.4L849.3 488.4V500.4L839 492V485.8L849.8 483.6V444L832.6 431.4ZM841.2 388.9V382.5L859.6 396.1V402.6L841.2 388.9ZM900.5 431.1V424.6L918.9 438.4V444.9L900.5 431.1ZM477 391.2L464.6 381.8V441.8L464.5 445.3L466.7 447.5L483.8 460.3V464L489.5 468.1L497.6 466.7L500.9 469.4V471.3L508.7 477.3L512.2 476.6L515.5 479.2V484.1L519.2 486.9V490.9L566.7 526.5L574.9 525V526.5L578.9 529.5V536.1L596 548.8V538.8L598 539.6L598.4 502.5L596 500.6L591.4 501.6L575 488.8L578.9 487.9V480.2L572.7 475.3L569.4 475.8L560.8 469.4L563.3 468.5V463.7L551 454.5V458.3L549.1 458.9L535.9 449.4V495.2L531.9 496.3V442.5L515.8 430L519.1 429.3L511.8 424.1L508.4 424.8L500.7 418.9L505.3 418V412.6L492.6 403.1V410.5L477 398.5V391.2ZM965.3 506.8L946.3 492.5V524.7L948.3 526.2V536L963.3 547.3V537.6L965.4 538.9V506.8H965.3Z" fill="#E5EBED"/>
			<path id="Vector_24" d="M551.2 454.5L563.4 463.7L603 456.2" stroke="#AFC3CA" stroke-width="0.46" stroke-miterlimit="10"/>
			<path id="Vector_25" d="M603.1 461.2V456.3L590.9 447.1L551.2 454.6V504.8L549.2 505.2L536.1 495.3M563.5 463.8V468.7" stroke="#AFC3CA" stroke-width="0.46" stroke-miterlimit="10"/>
			<path id="Vector_26" d="M613.5 469.4V467.1L605.2 460.8L560.7 469.3V514.7L569.5 521.3L572.6 520.7L574.9 522.4" stroke="#AFC3CA" stroke-width="0.46" stroke-miterlimit="10"/>
			<path id="Vector_27" d="M618 472.8L579 480.1L572.6 475.3L569.5 475.9L560.7 469.3" stroke="#AFC3CA" stroke-width="0.46" stroke-miterlimit="10"/>
			<path id="Vector_28" d="M613.5 467.1L611.1 467.6L618 472.8V480.4M572.7 475.3V520.7M569.5 475.9V521.3M579 480.1V487.8M574.9 488.6L591.5 501.2L596.1 500.3L598.2 501.9L636.7 494.6" stroke="#AFC3CA" stroke-width="0.46" stroke-miterlimit="10"/>
			<path id="Vector_29" d="M591.5 501.1V538.9M596.1 538.1V500.3M596.1 538.1L591.5 539L574.9 526.4V488.6L618 480.4L636.7 494.5V532.4L598.2 539.7L596.1 538.1ZM598.2 501.8V539.6M574.8 524.8L566.8 526.3L519.4 490.5V486.7" stroke="#AFC3CA" stroke-width="0.46" stroke-miterlimit="10"/>
			<path id="Vector_30" d="M579.1 529.5V535.6L596.1 548.5L762.1 516.9V508.4M596.1 538.1V548.6M566.8 519.2V526.4M515.6 478.8L512.2 476.3L508.7 477L500.8 471V418.6M500.8 418.6L546 410L553.9 416V418.3M500.8 418.6L508.7 424.6M531.9 496V442M549.2 459V505.1M549.2 459L551.2 458.6M549.2 459L536.1 449.1" stroke="#AFC3CA" stroke-width="0.46" stroke-miterlimit="10"/>
			<path id="Vector_31" d="M574.8 433.9L531.9 442.1L515.6 429.8M584.3 448.2L575.7 441.6L536.1 449.1V495.3" stroke="#AFC3CA" stroke-width="0.46" stroke-miterlimit="10"/>
			<path id="Vector_32" d="M574.8 441.8V434L551.6 416.5L554 416M508.7 476.9V424.6L512.2 423.9M512.2 423.9L519.1 429.1L515.6 429.8V483.7L531.9 496L536.1 495.2M512.2 423.9V476.2M678.3 472.5V422.4L717.3 415L729.6 424.3V429.3M662.5 416.9L716.2 406.7L717.7 407.8L734 404.7M702.4 401.8L662.5 409.4L645.6 396.6M671.4 380L630.4 387.8L618.4 378.7M642.9 365.9L602.7 373.5L585.4 360.3L561.6 364.8M545.8 384.4L528.4 371.2L504.6 375.7M545.8 384.4L515.1 390.2M545.8 384.4V379.4M545.8 379.4L573.8 374.1M545.8 379.4L528.4 366.2" stroke="#AFC3CA" stroke-width="0.46" stroke-miterlimit="10"/>
			<path id="Vector_33" d="M602.7 373.5L573.8 379V374L556.4 360.8L528.4 366.1V371.1M572.1 362.9V343.3L612.3 335.7L642.9 358.8V365.9L651.5 372.4M625.6 418.8V394.5L671.4 385.8L677.6 390.5M687.8 437.2L696.1 443.5L698.7 443L723.9 462.1L763.2 454.6" stroke="#AFC3CA" stroke-width="0.46" stroke-miterlimit="10"/>
			<path id="Vector_34" d="M740.3 437.2V435.1L732 428.8L687.8 437.2V473.2M724 462.1V515.7M649.2 476.1L666.1 488.9M666.1 488.9L693.2 483.8M666.1 488.9V496.4M624.7 485.5L646.2 481.4L667.1 497.2V525.8L651.2 528.8L649.4 527.4V498.8" stroke="#AFC3CA" stroke-width="0.46" stroke-miterlimit="10"/>
			<path id="Vector_35" d="M636.7 501.2L649.4 498.8L651.2 500.2M651.2 500.2L667.1 497.2M651.2 500.2V528.8M712.2 488.6L695.1 491.9L693.3 490.5" stroke="#AFC3CA" stroke-width="0.46" stroke-miterlimit="10"/>
			<path id="Vector_36" d="M681.2 474.7L703.1 470.5L722.2 484.9V514.2L724 515.6L763.3 508.1V454.5L738.1 435.4L740.3 435" stroke="#AFC3CA" stroke-width="0.46" stroke-miterlimit="10"/>
			<path id="Vector_37" d="M722.2 485L710.4 487.2L712.2 488.6V517.2L695.1 520.5M649.2 483.6V476.1L676.3 471L693.2 483.7V519L695 520.4V491.8M696.2 443.5V471.9M698.8 443V471.4M565.5 426.9L588.3 422.5L607.2 436.8M607.2 436.8V462.2M607.2 436.8L576.8 442.4M634.4 425.5L605.6 431L588.3 417.9" stroke="#AFC3CA" stroke-width="0.46" stroke-miterlimit="10"/>
			<path id="Vector_38" d="M588.3 422.5V417.9L617.1 412.4L634.4 425.5V483.6M605.6 431V435.6M678.3 422.3L690.6 431.6M690.6 431.6L729.5 424.2M690.6 431.6V436.6M678.3 428.9L662.5 417V409.4M657.1 474.6L637.3 459.7M634.4 460.2L637.4 459.6V400M625.6 394.6L633.8 400.8M633.8 400.8L637.4 400.1L645.7 406.4V396.6L685.6 389L702.5 401.8V409.4L711.5 416.2M633.8 400.8V425" stroke="#AFC3CA" stroke-width="0.46" stroke-miterlimit="10"/>
			<path id="Vector_39" d="M671.4 385.9V380L659.4 370.9L618.4 378.7V413.4M630.4 387.8V393.6M543.2 404.9L505.1 412.1L492.8 402.8M464.7 381.6L477 390.9L515.1 383.7" stroke="#AFC3CA" stroke-width="0.46" stroke-miterlimit="10"/>
			<path id="Vector_40" d="M500.8 468.9L464.7 441.6V381.5L502.8 374.3L515.1 383.6V391.1" stroke="#AFC3CA" stroke-width="0.46" stroke-miterlimit="10"/>
			<path id="Vector_41" d="M543.2 410.5V404.9L530.9 395.6L492.8 402.8V410.3L477 398.4M477 398.4V390.9M477 398.4L515.1 391.2L522.9 397.1M483.7 463.5L489.5 467.9M489.5 467.9L497.3 466.3M489.5 467.9V460.4M476.5 450.5V454.6M602.7 366.4V415.2M602.7 366.4L572.1 343.3M602.7 366.4L642.9 358.8M602.9 373.5L618.4 385.2M820.9 444.4L791.8 450.1M791.8 450.1L766.9 431.2L764.1 431.7L760.5 429M791.8 450.1V511.3" stroke="#AFC3CA" stroke-width="0.46" stroke-miterlimit="10"/>
			<path id="Vector_42" d="M849.9 444L836.5 446.6L838.9 448.4V492.3L823.3 495.3L820.9 493.5V444.4L803.6 431.3L774.3 436.9V498L791.8 511.3L832.3 503.6V493.7" stroke="#AFC3CA" stroke-width="0.46" stroke-miterlimit="10"/>
			<path id="Vector_43" d="M820.9 449.6L823.3 451.4M823.3 451.4L838.9 448.4M823.3 451.4V495.3M891.5 430.4L852 438.2M852 438.2L832.8 423.6M852 438.2V490.3" stroke="#AFC3CA" stroke-width="0.46" stroke-miterlimit="10"/>
			<path id="Vector_44" d="M849.4 500.3V488.4L852 490.4L891.5 482.9V430.4L872.6 416.1L832.8 423.7V431.1L850 444.1V483.8L839 485.9M987.9 436.8L933 395.3L916.8 398.4" stroke="#AFC3CA" stroke-width="0.46" stroke-miterlimit="10"/>
			<path id="Vector_45" d="M838.9 492.3L849.5 500.3L987.9 474M805.2 432.5V412.8L843.7 405.5L856.1 414.9V419.2M789.3 407.4L829.2 399.8M829.2 377.5L789.3 385.1L772.9 372.7" stroke="#AFC3CA" stroke-width="0.46" stroke-miterlimit="10"/>
			<path id="Vector_46" d="M755.3 369.4L764 376L766.8 375.5L772.8 380V372.6L812.7 365L829.1 377.4V399.8L838 406.5" stroke="#AFC3CA" stroke-width="0.46" stroke-miterlimit="10"/>
			<path id="Vector_47" d="M806.2 366.3L799.2 361L755.3 369.4V388.8" stroke="#AFC3CA" stroke-width="0.46" stroke-miterlimit="10"/>
			<path id="Vector_48" d="M746.5 382.1V354.6L786.2 347.1L797.8 355.9V361.5M774 340.9L769.4 341.8L778 348.3M700.3 393.2V357.1L683.5 344.4L655.4 349.7V371.6" stroke="#AFC3CA" stroke-width="0.46" stroke-miterlimit="10"/>
			<path id="Vector_49" d="M655.5 349.7L672.3 362.4L700.4 357.1M682.1 317.1L692.6 325L696.6 324.2L746.5 361.9M715.1 390.4L734.1 404.8V430.4" stroke="#AFC3CA" stroke-width="0.46" stroke-miterlimit="10"/>
			<path id="Vector_50" d="M774 345.3V340.9L756.6 327.8L752 328.7L725.8 308.9L682.1 317.2V344.7" stroke="#AFC3CA" stroke-width="0.46" stroke-miterlimit="10"/>
			<path id="Vector_51" d="M689.6 349L713.8 344.4L730.2 356.8M730.2 356.8V382.4M730.2 356.8L700.3 362.5M692.9 394.6L715.1 390.4V385.4L743.6 379.9L760.5 392.7V452.5" stroke="#AFC3CA" stroke-width="0.46" stroke-miterlimit="10"/>
			<path id="Vector_52" d="M760.5 392.6L731.9 398.1M731.9 398.1L715.1 385.4M731.9 398.1V403.1M672.2 362.4V386.5M717.8 407.9V415.4M716.2 406.7V415.1M692.6 325.1V348.5M696.6 324.3V347.6M746.5 354.5L758.1 363.3M758.1 363.3L797.7 355.8M758.1 363.3V368.9M764.1 376V431.8M766.9 375.5V431.3M770.8 434.2L760.4 436.2M789.3 385V407.4L796.7 413L793.4 413.6V433.1M805.2 422.6L793.4 413.7M805.2 412.8L817.6 422.2M817.6 422.2L856 414.9M817.6 422.2V427.8M814.3 428.6L819.5 432.6L808.1 434.8" stroke="#AFC3CA" stroke-width="0.46" stroke-miterlimit="10"/>
			<path id="Vector_53" d="M832.7 425.1L814.3 428.6V433.5M876.2 381.9L898.4 377.7L916.8 391.6V421.3M829.2 390.9L841.2 388.6M845.7 407L861.6 404" stroke="#AFC3CA" stroke-width="0.46" stroke-miterlimit="10"/>
			<path id="Vector_54" d="M841.2 382.1L859.6 396M887.7 390.6L859.5 396V402.4M903.8 396L889.8 398.7L887.8 397.2M889.8 398.6V429" stroke="#AFC3CA" stroke-width="0.46" stroke-miterlimit="10"/>
			<path id="Vector_55" d="M887.8 427.6V390.7L869.4 376.8L841.2 382.2V388.6L861.6 404V418.2M903.8 423.7V396L901.8 394.5L916.8 391.6M890.6 429.7L900.4 427.8M900.5 424.4L918.9 438.3L947.1 432.9M963.1 438.2L949.1 440.9M949.1 440.9L947.1 439.4M949.1 440.9V472.1M906.8 448.9V480.1M906.8 448.9L904.8 447.4L891.5 449.9M906.8 448.9L920.8 446.2" stroke="#AFC3CA" stroke-width="0.46" stroke-miterlimit="10"/>
			<path id="Vector_56" d="M976.1 433.8L961.1 436.7L963.1 438.2V469.4L949.1 472.1L947.1 470.6V432.9L928.7 419L900.5 424.4V430.8L920.9 446.2V477.3L906.9 480L904.9 478.5V447.4" stroke="#AFC3CA" stroke-width="0.46" stroke-miterlimit="10"/>
			<path id="Vector_57" d="M987.9 454.8L976.1 457V433.7L957.7 419.8L935.5 424M900.5 430.8L891.5 432.5M918.8 438.2V444.7" stroke="#AFC3CA" stroke-width="0.46" stroke-miterlimit="10"/>
		</g>
		<g id="street">
			<path id="Vector_60" d="M315.8 664.652L300 652.452L305.1 651.552L320.9 663.752C326.7 668.252 332.4 671.252 337.7 672.752C343 674.252 348.8 674.352 354.8 673.252L366.8 671.052L334.5 646.052L339.6 645.052L396.5 689.152L391.4 690.152L371.6 674.852L359.6 677.052C351.8 678.552 344.4 678.252 337.4 676.352C330.6 674.352 323.3 670.452 315.8 664.652Z" fill="#91AAB6"/>
			<path id="Vector_61" d="M398.3 678.352C394.4 675.352 393.1 672.752 394.5 670.552C395.8 668.352 399 666.852 404.1 665.852C406.8 665.352 409.7 665.152 412.8 665.252C415.9 665.352 418.3 665.552 420 665.852L422.7 666.352L415.4 660.752C412.2 658.252 408.4 656.552 404.4 655.652C400.3 654.752 396.6 654.652 393 655.352C389.5 656.052 387.3 657.152 386.2 658.752C385.1 660.352 385.7 661.952 387.9 663.752L383.1 664.652C380 662.052 378.6 659.552 379.1 657.052C379.6 654.552 382.6 652.752 388.1 651.752C393.1 650.852 398.5 651.052 404.2 652.352C410 653.652 415.3 656.252 420.2 659.952L437 673.052C440.8 676.052 443.2 676.952 445.9 676.352C446.8 676.152 447.5 675.852 447.7 675.752V675.552L452.2 678.952C451.9 679.352 451 679.652 449.6 679.952C447.3 680.352 444.6 680.152 442.7 679.652C440.8 679.052 439 678.452 438.2 678.052L437.6 677.752H437.4C437.5 678.052 437.5 678.352 436.8 679.552C436.5 680.152 436 680.752 435.5 681.252C434.4 682.352 431.6 683.652 427.9 684.352C422.7 685.252 417.4 685.452 412.2 684.552C406.8 683.352 402.2 681.452 398.3 678.352ZM403.3 677.452C407.9 681.052 414.8 682.052 423.8 680.352C426.4 679.852 428.5 679.152 430 678.052C431.4 676.952 432.3 676.252 432.4 675.652C432.6 675.152 432.7 674.752 432.7 674.352L427.1 669.952C426.8 669.852 425.9 669.652 424.5 669.352C423.2 669.152 420.9 668.952 418 668.752C415.1 668.652 412.3 668.852 409.6 669.352C404.6 670.252 401.4 671.552 401 673.752C400.8 674.852 401.5 676.052 403.3 677.452Z" fill="#91AAB6"/>
			<path id="Vector_62" d="M459.5 672.652C451.8 670.352 445 666.852 438.9 662.052C432.8 657.352 429.7 653.052 429.7 649.352C429.6 645.652 432.6 643.252 438.5 642.252C443.9 641.252 450.6 641.852 456.1 643.152C458.9 643.852 461.6 644.752 464.1 645.752C469.3 647.752 472.7 649.652 474.7 651.152L469.6 652.152C468.5 651.352 465.1 649.652 460.2 647.852C457.8 646.952 455 646.252 451.9 645.952C448.8 645.552 446 645.652 443.4 646.052C438.8 646.852 436.7 648.752 436.8 651.652C437 654.552 439.4 657.752 443.9 661.152C448.4 664.652 453.6 667.252 459.4 669.152C465.2 670.952 470.4 671.452 475 670.652C477.6 670.152 479.4 669.352 480.5 668.152C481.6 666.952 481.9 665.752 481.6 664.452C480.9 661.852 479.6 659.852 478.5 659.052L483.6 658.152C486.5 660.252 489.4 664.652 488.7 668.552C488.3 671.052 485.2 673.452 479.9 674.452C474 675.552 467.2 674.952 459.5 672.652Z" fill="#91AAB6"/>
			<path id="Vector_63" d="M509.5 663.452C501.8 661.152 494.9 657.652 488.7 652.952C482.6 648.252 479.5 643.952 479.5 640.252C479.5 636.552 482.5 634.152 488.4 633.052C494.3 631.952 501.1 632.452 508.8 634.752C516.5 637.052 523.4 640.552 529.5 645.352C535.7 650.052 538.7 654.352 538.7 658.052C538.7 661.752 535.7 664.152 529.8 665.252C523.9 666.352 517.1 665.752 509.5 663.452ZM531.7 655.752C531.5 652.852 529.1 649.652 524.6 646.252C520.1 642.752 514.9 640.152 509 638.252C503.1 636.452 497.9 635.952 493.3 636.752C488.7 637.552 486.5 639.452 486.7 642.352C486.9 645.252 489.2 648.452 493.7 651.852C498.2 655.352 503.4 657.952 509.3 659.852C515.2 661.652 520.4 662.152 525 661.352C529.7 660.552 531.9 658.652 531.7 655.752Z" fill="#91AAB6"/>
			<path id="Vector_64" d="M564.9 629.752C567.1 631.452 568.4 632.852 568.7 634.152C569.1 635.452 568.9 636.252 568.3 636.652L567.4 637.352L567.6 637.552C568 637.452 568.7 637.352 571.4 637.652C572.8 637.852 574.1 638.052 575.5 638.352C578.3 639.052 582.3 640.852 585.7 643.452C593 649.052 591.6 652.852 581.4 654.752L561.4 658.452L521.6 627.552L540.6 624.052C549.1 622.552 557.9 624.452 564.9 629.752ZM561.4 654.052L576.6 651.252C583.6 649.952 584.8 647.652 580.4 644.252C576 640.852 570.4 639.752 563.6 641.052L548.2 643.852L561.4 654.052ZM560.5 631.052C556.3 627.852 551.3 626.752 545.3 627.852L531.1 630.452L543.6 640.152L558.5 637.352C563.8 636.352 564.5 634.052 560.5 631.052Z" fill="#91AAB6"/>
			<path id="Vector_65" d="M595.4 641.752C591.5 638.752 590.2 636.152 591.6 633.952C592.9 631.752 596.1 630.252 601.2 629.252C603.9 628.752 606.8 628.552 609.9 628.652C613 628.752 615.4 628.952 617.1 629.252L619.8 629.752L612.5 624.152C609.3 621.652 605.5 619.952 601.5 619.052C597.4 618.152 593.7 618.052 590.1 618.752C586.6 619.452 584.4 620.552 583.3 622.152C582.2 623.752 582.8 625.352 585 627.152L580.2 628.052C577.1 625.452 575.7 622.952 576.2 620.452C576.7 617.952 579.7 616.152 585.2 615.152C590.2 614.252 595.5 614.452 601.3 615.752C607.1 617.052 612.4 619.652 617.3 623.352L634.1 636.452C637.9 639.452 640.3 640.352 643 639.752C643.9 639.552 644.6 639.252 644.8 639.152V638.952L649.3 642.352C649 642.752 648.1 643.052 646.7 643.352C644.4 643.752 641.7 643.552 639.8 643.052C637.9 642.452 636.1 641.852 635.3 641.452L634.7 641.152H634.5C634.6 641.452 634.6 641.752 633.9 642.952C633.6 643.552 633.1 644.152 632.6 644.652C631.5 645.752 628.6 647.052 625 647.752C619.8 648.652 614.5 648.852 609.3 647.952C603.9 646.752 599.3 644.852 595.4 641.752ZM600.4 640.752C605 644.352 611.9 645.352 620.9 643.652C623.5 643.152 625.6 642.452 627.1 641.352C628.5 640.252 629.4 639.552 629.5 638.952C629.7 638.452 629.8 638.052 629.8 637.652L624.2 633.252C623.9 633.152 623 632.952 621.6 632.652C620.3 632.452 618 632.252 615.1 632.052C612.2 631.952 609.4 632.152 606.7 632.652C601.7 633.552 598.5 634.852 598.1 637.052C597.9 638.252 598.6 639.452 600.4 640.752Z" fill="#91AAB6"/>
			<path id="Vector_66" d="M661.2 639.952L655.9 640.952L649.7 627.452C649.1 627.452 648.5 627.452 645.4 626.952C643.8 626.652 642.3 626.252 640.8 625.852C637.7 624.952 633.1 622.752 629.4 619.852C621.3 613.552 622.3 608.952 631.8 607.152L648.5 604.052L688.3 634.952L683.5 635.852L669 624.652L655.5 627.152L661.2 639.952ZM648.2 608.652L636.3 610.852C629.6 612.052 628.8 614.852 634.1 618.852C639.4 622.952 645.3 624.452 651.9 623.252L664 621.052L648.2 608.652Z" fill="#91AAB6"/>
			<path id="Vector_67" d="M671.4 599.852L676.6 598.852L727.6 623.252H727.8L708 592.952L713.1 592.052L736.5 627.952C739.4 632.352 741 635.752 741.3 638.052C741.6 640.352 740.4 641.752 737.6 642.252C736 642.552 734 642.552 733 642.452H732.3L727.6 638.752C729.2 638.952 730.9 638.952 732.9 638.552C734.5 638.252 735.1 637.352 734.9 635.852C734.6 634.352 733.4 632.052 731.3 628.852L730.9 628.252L671.4 599.852Z" fill="#91AAB6"/>
			<path id="Vector_68" d="M745 609.652L724.1 589.952L751.5 584.852L791.3 615.752L786.5 616.652L751.3 589.452L732.8 592.952L749.7 608.852C754.7 613.452 757.6 616.852 758.5 619.152C759.4 621.352 758.4 622.752 755.4 623.352C754.6 623.552 753.3 623.552 752.5 623.552H751.9L747.2 619.852C748.1 619.952 749.1 619.852 750.2 619.752C752 619.452 752.4 618.452 751.4 616.752C750.3 615.152 748.2 612.752 745.1 609.852V609.652H745Z" fill="#91AAB6"/>
			<path id="Vector_69" d="M840.2 606.752L835.4 607.652L801 580.952H800.8L811.3 612.152L804.5 613.452L764.6 582.452L769.4 581.552L803.9 608.252H804.1L793.6 577.052L800.4 575.752L840.2 606.752Z" fill="#91AAB6"/>
			<path id="Vector_70" d="M898.2 605.752L888 597.852L853.4 604.252L813.6 573.352L818.4 572.452L853.5 599.652L877.4 595.252L842.3 568.052L847.1 567.152L882.2 594.352L888.1 593.252L903 604.852L898.2 605.752Z" fill="#91AAB6"/>
			<path id="Vector_71" d="M889.1 587.152C885.2 584.152 883.9 581.552 885.3 579.352C886.6 577.152 889.8 575.652 894.9 574.652C897.6 574.152 900.5 573.952 903.6 574.052C906.7 574.152 909.1 574.352 910.8 574.652L913.5 575.152L906.2 569.552C903 567.052 899.2 565.352 895.2 564.452C891.1 563.552 887.3 563.452 883.8 564.152C880.3 564.852 878.1 565.952 877 567.552C875.9 569.152 876.5 570.752 878.7 572.552L873.9 573.452C870.8 570.852 869.4 568.352 869.9 565.852C870.4 563.352 873.4 561.552 878.9 560.552C883.9 559.652 889.2 559.852 895 561.152C900.8 562.452 906.1 565.052 911 568.752L927.8 581.852C931.6 584.852 934 585.752 936.7 585.252C937.6 585.052 938.3 584.752 938.5 584.652V584.452L943 587.852C942.7 588.252 941.8 588.552 940.4 588.852C938.1 589.252 935.4 589.052 933.5 588.552C931.6 587.952 929.8 587.352 929 586.952L928.4 586.652H928.2C928.3 586.952 928.3 587.252 927.6 588.452C927.3 589.052 926.8 589.652 926.3 590.152C925.2 591.252 922.3 592.552 918.7 593.252C913.5 594.152 908.2 594.352 903 593.452C897.6 592.252 893 590.252 889.1 587.152ZM894.1 586.252C898.7 589.852 905.6 590.852 914.6 589.152C917.2 588.652 919.3 587.952 920.8 586.852C922.2 585.752 923.1 585.052 923.2 584.452C923.4 583.952 923.5 583.552 923.5 583.152L917.9 578.752C917.6 578.652 916.7 578.452 915.3 578.152C914 577.952 911.7 577.752 908.8 577.552C905.9 577.452 903.1 577.652 900.4 578.152C895.4 579.052 892.2 580.352 891.8 582.552C891.6 583.652 892.3 584.852 894.1 586.252Z" fill="#91AAB6"/>
		</g>
		<g id="_1">
			<path id="Vector_58" d="M112.6 495.1L81.9996 472V594.7L74.0996 596.2V610.6L74.5996 611.3V619.6L113.1 648.8L117.5 648.1L143.7 667.9V654.2L143.3 654.3L143.4 499L111.8 475.4V490.3L117 494.2L112.6 495.1Z" fill="#E5EBED"/>
			<path id="Vector_59" d="M117.2 634.2V494.1L112 490.1L112.1 475.2L159.7 466.1L191.1 489.9V645L143.5 654L117.2 634.2Z" stroke="#AFC3CA" stroke-width="0.46" stroke-miterlimit="10"/>
			<path id="Vector_60_2" d="M112.1 475.2L143.6 499M143.6 499L191.2 489.9M143.6 499V654.1M143.6 499V640.6M175.6 647.8V661.6L143.8 667.7M143.8 667.7L117.6 647.9L113.2 648.7L74.5996 619.5V611.1M143.8 667.7V654.2M82.1996 471.8L112.8 495L117.3 494.1" stroke="#AFC3CA" stroke-width="0.46" stroke-miterlimit="10"/>
			<path id="Vector_61_2" d="M130.6 471.7L120.9 464.4L82.0996 471.8V611.9L112.7 635.1M117.3 634.2L112.8 635.1V495M117.6 647.9V634.6M113.2 648.7V635M74.0996 596L82.0996 602" stroke="#AFC3CA" stroke-width="0.46" stroke-miterlimit="10"/>
			<path id="Vector_62_2" d="M82.1992 594.4L74.1992 595.9V610.6L83.2992 617.5V612.6" stroke="#AFC3CA" stroke-width="0.46" stroke-miterlimit="10"/>
		</g>
		<g id="_2">
			<path id="Vector_63_2" d="M71.7996 437L30.8996 406.4L30.5996 556.5L35.5996 560.2V572.3L68.5996 597.2V585.3L71.6996 587.7L71.7996 437Z" fill="#E5EBED"/>
			<path id="Vector_64_2" d="M30.8994 406.3L71.6994 437.2L113.499 429.2" stroke="#AFC3CA" stroke-width="0.46" stroke-miterlimit="10"/>
			<path id="Vector_65_2" d="M81.8998 585.3L71.7998 587.3L30.7998 556.3V406.3L72.8998 398.4L113.7 429.2V465.3" stroke="#AFC3CA" stroke-width="0.46" stroke-miterlimit="10"/>
			<path id="Vector_66_2" d="M81.9992 594.6L68.6992 597L35.6992 572V560.1M68.6992 585V597.1M71.7992 437.2V587.3" stroke="#AFC3CA" stroke-width="0.46" stroke-miterlimit="10"/>
		</g>
		<g id="_3">
			<path id="Vector_67_2" d="M171.1 355L117.2 325.7L117 465.4L120.8 464.6L130.6 471.7L160 466V421.2L171.1 419.4V355Z" fill="#E5EBED"/>
			<path id="Vector_68_2" d="M203 348.8L171.3 354.8L117.3 325.4M160.1 421.4L117.2 389L171.2 419.3M208.6 500.3V474.6L203 470.4" stroke="#AFC3CA" stroke-width="0.46" stroke-miterlimit="10"/>
			<path id="Vector_69_2" d="M175.8 478L203 472.7V348.7L192.5 340.8L161 317L117.2 325.3V465M178.4 480.3L208.6 474.6" stroke="#AFC3CA" stroke-width="0.46" stroke-miterlimit="10"/>
			<path id="Vector_70_2" d="M171.2 354.8V419.3L160.1 421.4V465.9" stroke="#AFC3CA" stroke-width="0.46" stroke-miterlimit="10"/>
		</g>
		<g id="_4">
			<path id="Vector_71_2" d="M270.7 288.3L234.1 260.6V367.9L222.7 370V486.3L237.9 497.8V494.3L266.4 488.9V447.5L273.2 446.2V399.7L270.7 397.6V288.3Z" fill="#E5EBED"/>
			<path id="Vector_72" d="M313.6 474.7V391.9L311.1 390V280.4L274.5 252.7L234.2 260.4V371.7L254.4 387V431.8L273.3 446.1" stroke="#AFC3CA" stroke-width="0.46" stroke-miterlimit="10"/>
			<path id="Vector_73" d="M234.2 367.6L222.9 369.7V486.1L237.9 497.5" stroke="#AFC3CA" stroke-width="0.46" stroke-miterlimit="10"/>
			<path id="Vector_74" d="M222.9 369.8L247.5 388.4V433M247.5 433L266.5 447.4M247.5 433L254.4 431.8M266.5 447.4V488.8M266.5 447.4L273.3 446.1V399.6M247.5 388.3L254.4 387M273.3 399.6L270.8 397.7M273.3 399.6L313.6 391.9M270.8 397.7V288.1M270.8 397.7L311.1 390M270.8 288.1L311.1 280.4M270.8 288.1L234.2 260.4" stroke="#AFC3CA" stroke-width="0.46" stroke-miterlimit="10"/>
		</g>
		<g id="_5">
			<path id="Vector_75" d="M380.5 245.6L372.7 247.1L342.6 224.5V297.5L335.2 299V321.5L332.6 322.1V372.9L336.2 375.5V376.6L330.2 377.7V449.1L365 474.9V469.8L375.9 467.6V412.3L377.5 410.1V405.4L375.9 405.9L375.8 314.7L383.9 313.1V289.8L391.6 288.1V253.4L380.5 245.6Z" fill="#E5EBED"/>
			<path id="Vector_76" d="M330.4 377.6L375.9 412.1L423.5 403.1" stroke="#AFC3CA" stroke-width="0.46" stroke-miterlimit="10"/>
			<path id="Vector_77" d="M420.4 397V401.9L377.5 410L336.4 379V375.5M423.6 427.5V403.1L420.4 400.7" stroke="#AFC3CA" stroke-width="0.46" stroke-miterlimit="10"/>
			<path id="Vector_78" d="M336.4 376.5L330.5 377.6V449L363.6 474.1M377.5 410V405.1M376 412.1V467.6M335.4 298.8L345.9 306.7L346.1 291.8L354 290.3L384 313" stroke="#AFC3CA" stroke-width="0.46" stroke-miterlimit="10"/>
			<path id="Vector_79" d="M335.4 321.5L333 322V372.9L376.1 405.5L423.7 396.5V305.5L415.6 299.4" stroke="#AFC3CA" stroke-width="0.46" stroke-miterlimit="10"/>
			<path id="Vector_80" d="M345.9 296.8L335.3 298.8V323.8L332.9 322M376 405.4V314.4M391.7 253.3V288L383.9 289.5V313L376 314.5L346 291.8" stroke="#AFC3CA" stroke-width="0.46" stroke-miterlimit="10"/>
			<path id="Vector_81" d="M383.9 289.5L372.9 281.2V247M423.6 305.4L415.5 307V248.8L408 243.2L415.5 241.8" stroke="#AFC3CA" stroke-width="0.46" stroke-miterlimit="10"/>
			<path id="Vector_82" d="M342.7 224.2L372.9 247.1L380.7 245.5L391.7 253.3L415.5 248.8" stroke="#AFC3CA" stroke-width="0.46" stroke-miterlimit="10"/>
			<path id="Vector_83" d="M342.7 297.4V224.2L364.7 220L369.3 223.5L386.9 220.2L415.4 241.8V248.9M372.9 281.2L380.7 279.7M391.7 288.1L380.7 279.8V245.5" stroke="#AFC3CA" stroke-width="0.46" stroke-miterlimit="10"/>
		</g>
		<g id="_6">
			<path id="Vector_84" d="M458.9 304.9L417 273.3L416.8 300.3L423.5 305.4V396.5L420.3 397.1V400.7L423.5 403.1V422.3L454 445.2L458.9 444.3V304.9Z" fill="#E5EBED"/>
			<path id="Vector_85" d="M501.9 374.5V297.2L459.6 265.2L417 273.3V300.2" stroke="#AFC3CA" stroke-width="0.46" stroke-miterlimit="10"/>
			<path id="Vector_86" d="M501.9 297.2L458.9 305.1L417 273.3M459 305V444M423.9 422.2L454.1 445.2" stroke="#AFC3CA" stroke-width="0.46" stroke-miterlimit="10"/>
		</g>
		<g id="_7">
			<path id="Vector_87" d="M576.1 228.3L520.9 199.1L520.8 372.8L528.4 371.4V366.5L556.3 361.1L561.6 365.1L566.9 364V354.1L562.4 350.6V275.5L576 272.7L576.1 228.3Z" fill="#E5EBED"/>
			<path id="Vector_88" d="M607.3 222.2L576.1 228.1L521 198.9" stroke="#AFC3CA" stroke-width="0.46" stroke-miterlimit="10"/>
			<path id="Vector_89" d="M576.2 228.1V272.7L562.5 275.4V350.5L567.1 354V363.6" stroke="#AFC3CA" stroke-width="0.46" stroke-miterlimit="10"/>
			<path id="Vector_90" d="M576.2 272.7L521 244L562.5 275.4M562.5 350.5L572.2 348.7M567.1 353.9L571.9 353" stroke="#AFC3CA" stroke-width="0.46" stroke-miterlimit="10"/>
			<path id="Vector_91" d="M521 372.3V198.9L568.6 189.8L596.7 211V214" stroke="#AFC3CA" stroke-width="0.46" stroke-miterlimit="10"/>
			<path id="Vector_92" d="M596.599 211.1L593.399 211.7L607.199 222.2V336.1" stroke="#AFC3CA" stroke-width="0.46" stroke-miterlimit="10"/>
		</g>
		<g id="_8">
			<path id="Vector_93" d="M670.9 144L635.2 117V225.6L622.8 227.9V343.8L655.4 368.3V350L667.9 347.6V307.8L675.3 306.2V214.4L671 211.1V144H670.9Z" fill="#E5EBED"/>
			<path id="Vector_94" d="M710.5 136.3L671 143.8M671 143.8L635.3 116.8M671 143.8V211L675.3 214.3V306.3L668 307.7V347.3M654.8 245L647.5 246.4M647.5 292.2L654.8 290.8M671 210.9L710.5 203.4M675.3 214.2L714.8 206.7" stroke="#AFC3CA" stroke-width="0.46" stroke-miterlimit="10"/>
			<path id="Vector_95" d="M675.3 306.3L654.9 290.9V245L635.3 230.2V116.8L674.8 109.3L710.5 136.3V203.5" stroke="#AFC3CA" stroke-width="0.46" stroke-miterlimit="10"/>
			<path id="Vector_96" d="M668 307.7L647.6 292.2V246.4L623 227.8" stroke="#AFC3CA" stroke-width="0.46" stroke-miterlimit="10"/>
			<path id="Vector_97" d="M655.4 368.2L623 343.7V227.8L635.3 225.5M710.5 203.4L714.8 206.7V310.9" stroke="#AFC3CA" stroke-width="0.46" stroke-miterlimit="10"/>
		</g>
		<g id="_9">
			<path id="Vector_98" d="M748.8 60.4L729.8 46V77.9L725.7 74.8V309L751.9 328.9L752.3 328.7L752.4 95L748.8 92.3V60.4Z" fill="#E5EBED"/>
			<path id="Vector_99" d="M811.5 51.6999L761.1 61.2999L759.4 59.9999L755.1 60.7999L753.3 59.4999L748.9 60.2999L729.8 45.8999" stroke="#AFC3CA" stroke-width="0.46" stroke-miterlimit="10"/>
			<path id="Vector_100" d="M752.5 328.3V94.8001L749 92.1V60.3" stroke="#AFC3CA" stroke-width="0.46" stroke-miterlimit="10"/>
			<path id="Vector_101" d="M761.1 93.1999L759.4 91.8999L755.1 92.6999L753.3 91.3999L748.9 92.1999" stroke="#AFC3CA" stroke-width="0.46" stroke-miterlimit="10"/>
			<path id="Vector_102" d="M752.5 94.7999L761.2 93.0999V61.2999M731.4 42.8999L734.3 45.0999L729.9 45.8999V77.6999L725.9 74.6999" stroke="#AFC3CA" stroke-width="0.46" stroke-miterlimit="10"/>
			<path id="Vector_103" d="M731.4 45.5999V42.9L735.7 42.0999L732.5 39.7" stroke="#AFC3CA" stroke-width="0.46" stroke-miterlimit="10"/>
			<path id="Vector_104" d="M767.1 335.7L811.9 327.2V51.2L786 31.6L781.1 32.5L778.7 30.7L732.4 39.5999V42.5999M729.9 74L725.9 74.8V308.5M755.1 60.7999V92.5999M753.4 59.5V91.3M759.4 60V91.8" stroke="#AFC3CA" stroke-width="0.46" stroke-miterlimit="10"/>
		</g>
		<g id="_10">
			<path id="Vector_105" d="M1030.7 250.9L1000.5 228.1L1000.4 349.9L992.701 351.4V373.4L990.201 373.9V426.3L993.701 429L988.001 430.2V484.7L1009.8 480.3L1013.5 483.2L1016.3 482.5L1033.4 495.1V366.6L1041.3 364.7V342.2L1049.1 340.5V257.4L1038.7 249.5L1030.7 250.9ZM1006.7 498.9L987.801 484.7V487.9L1004.8 500.8V529.8L1006.7 531.4V498.9Z" fill="#E5EBED"/>
			<path id="Vector_106" d="M1028.7 496.4L1033.2 495.4L1016.6 482.7L1013.7 483.3L1028.8 494.7V496.4H1028.7Z" fill="#E5EBED"/>
			<path id="Vector_107" d="M987.2 502.5L965.2 506.7M946.4 492.3L965.3 506.6V539" stroke="#AFC3CA" stroke-width="0.46" stroke-miterlimit="10"/>
			<path id="Vector_108" d="M963.3 547.3V537.5L965.3 539L987.3 534.8V502.4L968.4 488.1L946.4 492.3V524.7L948.4 526.2V536L963.3 547.3ZM963.3 547.3L1033.4 533.9V495.2L1016.4 482.4L1013.4 483" stroke="#AFC3CA" stroke-width="0.46" stroke-miterlimit="10"/>
			<path id="Vector_109" d="M1028.7 494.5L1006.7 498.7L987.801 484.4M1006.8 531.1V498.7" stroke="#AFC3CA" stroke-width="0.46" stroke-miterlimit="10"/>
			<path id="Vector_110" d="M987.8 487.7V484.4L1009.8 480.2L1028.7 494.5V526.9L1006.7 531.1L1004.7 529.6V500.6L987.8 487.8L971.9 490.8M1004.8 500.7L987.4 504M1028.7 496.1L1033.4 495.2M1000.6 228L1030.8 250.9L1038.7 249.4L1049.2 257.3L1073.5 252.7" stroke="#AFC3CA" stroke-width="0.46" stroke-miterlimit="10"/>
			<path id="Vector_111" d="M1073.1 245.4L1065.8 246.8L1073.5 252.6V358.7L1080.9 357.3" stroke="#AFC3CA" stroke-width="0.46" stroke-miterlimit="10"/>
			<path id="Vector_112" d="M1000.6 349.8V228L1022.8 223.8L1026.8 226.8L1044.1 223.5L1073.1 245.5V252.4" stroke="#AFC3CA" stroke-width="0.46" stroke-miterlimit="10"/>
			<path id="Vector_113" d="M1038.7 249.3V332.6L1049.2 340.5" stroke="#AFC3CA" stroke-width="0.46" stroke-miterlimit="10"/>
			<path id="Vector_114" d="M1041.3 342L1030.8 334M1030.8 250.9V334.1L1038.7 332.6M1000.6 349.8L1003.7 352.2M1003.7 343.9L1033.4 366.3M1003.7 343.9V359.5L992.801 351.3M1003.7 343.9L1011.7 342.4L1041.4 364.8" stroke="#AFC3CA" stroke-width="0.46" stroke-miterlimit="10"/>
			<path id="Vector_115" d="M1049.2 257.2V340.5L1041.3 342V364.8L1033.3 366.3V458.8" stroke="#AFC3CA" stroke-width="0.46" stroke-miterlimit="10"/>
			<path id="Vector_116" d="M1077.9 450.4V453.2L1033.4 461.7L994 431.9V429.2" stroke="#AFC3CA" stroke-width="0.46" stroke-miterlimit="10"/>
			<path id="Vector_117" d="M988.101 430.1L1033.3 464.3L1080.8 455.3" stroke="#AFC3CA" stroke-width="0.46" stroke-miterlimit="10"/>
			<path id="Vector_118" d="M988.101 483.8V430.2L993.901 429.1M1077.9 453.1L1080.9 455.3V524.9L1033.4 533.9M990.201 373.7L992.801 375.7V351.3L1000.6 349.8" stroke="#AFC3CA" stroke-width="0.46" stroke-miterlimit="10"/>
			<path id="Vector_119" d="M992.8 373.2L990.2 373.7V426.2L1033.3 458.8L1080.8 449.8V357.3L1073.4 351.7M1033.4 464.4V534M1033.4 461.7V458.9" stroke="#AFC3CA" stroke-width="0.46" stroke-miterlimit="10"/>
		</g>
		<path id="mask1" d="M121.1 463.6L81.3998 471.1V594.2L73.2998 595.7V610.9L73.8998 611.3V619.7L113.1 649.3L117.5 648.5L143.7 668.3L176.4 662.1V648.5L191.9 645.5V489.4L159.9 465.2L130.8 470.7L121.1 463.6Z" stroke="#91AAB6" stroke-width="2"/>
		<path id="mask2" d="M36 560.4V559.9L35.6 559.6L31 556.1V406.6L72.8 398.7L113.4 429.4V464.6L81.8 470.6L81 470.7V594.3L68.9 596.7L36 571.9V560.4Z" stroke="#91AAB6" stroke-width="2"/>
		<path id="mask3" d="M161.8 316L117 324.6V464.6L121.5 463.8L131.1 471.1L160.3 465.6L192 489.5V501L207.1 498.1L209.9 500.2V473.8L204.3 469.6V348.2L161.8 316Z" stroke="#91AAB6" stroke-width="2"/>
		<path id="mask4" d="M222.1 486.6L237.2 498L237.3 498.1V493.6L266.2 488.1L271.7 492.2L291.5 488.4V478.4L314.5 474V391.5L312 389.6V280L274.8 251.9L233.6 259.8V367L222.3 369.2L222.1 486.6Z" stroke="#91AAB6" stroke-width="2"/>
		<path id="mask5" d="M329.7 449.4L361.8 473.7L363.1 473.5L363.6 473.9L364.1 473.8L364.7 474.2V469.4L383.8 465.8V435.2L423.8 427.6V403L420.6 400.6V397.3L423.8 396.7V305.4L416.2 299.7V241.5L387.1 219.5L369.5 222.8L364.9 219.3L342 223.7V296.9L334.6 298.3V321L332.2 321.5V373.4L335.7 376V376.1L329.8 377.2L329.7 449.4Z" stroke="#91AAB6" stroke-width="2"/>
		<path id="mask6" d="M416.3 272.7V299.7L423.8 305.3V396.6L420.6 397.2V400.5L423.8 402.9V422.4L453.5 445L462.1 443.4L464.5 445.2V381.3L501.8 374.2L502.8 374V296.7L460 264.3L416.3 272.7Z" stroke="#91AAB6" stroke-width="2"/>
		<path id="mask7" d="M568.7 189.1L520.2 198.3V372.5L528.2 371V366L556.5 360.6L561.7 364.6L571.9 362.7V343.1L608 336.2V221.8L597.3 213.7V210.7L568.7 189.1Z" stroke="#91AAB6" stroke-width="2"/>
		<path id="mask8" d="M634.5 224.9L622.2 227.2V342.8L655.2 368.4V349.5L681.9 344.4V316.9L715.6 310.5V206.4L711.3 203.1V135.9L675 108.5L634.6 116.2L634.5 224.9Z" stroke="#91AAB6" stroke-width="2"/>
		<path id="mask9" d="M725.1 74.1V308.2L725.7 309.1L751.9 328.9L756.5 328.1L767.5 336.4L812.6 327.8V50.8L786.2 30.8L781.3 31.7L779 30L731.8 39V42L730.8 42.2V45L729.2 45.3V73.4L725.1 74.1Z" stroke="#91AAB6" stroke-width="2"/>
		<path id="mask10" d="M1023 222.9L999.9 227.3V349.1L992.1 350.6V372.5L989.5 373V426.5L992.2 428.5L987.5 429.4L987.4 483.6L987.1 483.7V487.1L972.1 490L968.5 487.3L945.6 491.7V525L947.6 526.5V536.3L963.1 548L1081.5 525.4V454.9L1078.5 452.7V451L1081.5 450.4V356.9L1074.1 351.3V252.2L1073.8 251.9V245L1044.2 222.6L1026.9 225.9L1023 222.9Z" stroke="#91AAB6" stroke-width="2"/>
	</g>
</svg>
