<?xml version="1.0" encoding="UTF-8"?>
<svg id="_Слой_1" xmlns="http://www.w3.org/2000/svg" viewBox="0 0 387 700">
    <g>
        <path
            d="M28.09,27.26L155.16,1.71l31.88,23.76L281.52,7.5l103.11,78.02-.81,538.34-49.21,8.96-.55,45.52-104.69,19.95-97.51-136.8L28.09,27.26Z"
            fill="#fff" />
        <path
            d="M127.71,102.49L28.09,27.26V459.45l-25.64,4.91v47.01l1.68,2.26v27.16l125.35,95.19,14.49-2.23,85.58,64.34v-44.68l-1.16,.35,.49-538.43L125.74,38.57v48.5l16.85,12.64-14.87,2.78Z"
            fill="#e5ebed" />
        <path
            d="M142.97,588.45V99.33l-17.07-12.9,.42-48.6L281.32,8.34l102.49,77.5V623.86l-155,29.49-85.84-64.89Z"
            fill="none" stroke="#afc3ca" stroke-miterlimit="10" stroke-width="1.62" />
        <path d="M126.32,37.83l102.49,77.5,155-29.49" fill="none" stroke="#91aab6"
            stroke-miterlimit="10" stroke-width="1.62" />
        <path d="M333.28,632.81v44.88l-103.69,19.72-85.39-64.57-14.29,2.72L4.13,540.44v-27.26"
            fill="none" stroke="#91aab6" stroke-miterlimit="10" stroke-width="1.62" />
        <path d="M228.81,115.33V653.38" fill="none" stroke="#afc3ca" stroke-miterlimit="10"
            stroke-width="1.62" />
        <path d="M228.81,115.14v493.75" fill="none" stroke="#afc3ca" stroke-miterlimit="10"
            stroke-width="1.62" />
        <path d="M229.59,697.41v-44.04" fill="none" stroke="#afc3ca" stroke-miterlimit="10"
            stroke-width="1.62" />
        <path d="M28.67,26.67l99.75,75.43,14.55-2.78" fill="none" stroke="#91aab6"
            stroke-miterlimit="10" stroke-width="1.62" />
        <path d="M186.43,26.42L155,2.62,28.67,26.67v489.09l99.75,75.43,14.55-2.75" fill="none"
            stroke="#afc3ca" stroke-miterlimit="10" stroke-width="1.62" />
        <path d="M144.2,632.84v-43.49" fill="none" stroke="#afc3ca" stroke-miterlimit="10"
            stroke-width="1.62" />
        <path d="M129.91,635.56v-44.62" fill="none" stroke="#afc3ca" stroke-miterlimit="10"
            stroke-width="1.62" />
        <path d="M128.43,102.11v489.09" fill="none" stroke="#afc3ca" stroke-miterlimit="10"
            stroke-width="1.62" />
        <path d="M2.45,463.81l26,19.63" fill="none" stroke="#afc3ca" stroke-miterlimit="10"
            stroke-width="1.62" />
        <path d="M28.68,458.8l-26.22,5.01v47.98l29.71,22.47v-15.91" fill="none" stroke="#afc3ca"
            stroke-miterlimit="10" stroke-width="1.62" />
        <path
            d="M1.61,463.52l26.25-5.37V25.93L155.16,1.71l31.46,23.86L281.52,7.5l103.11,78.02V624.57l-50.57,9.57v44.2l-104.69,19.95-85.42-64.63-14.32,2.75L3.3,540.86v-27.39l-1.68-1.55v-48.4Z"
            fill="none" stroke="#91aab6" stroke-miterlimit="10" stroke-width="3.23" />
        <path d="M187.04,25.48l-60.72,12.35-.42,48.6,15.23,12.45-12.51,2.46L27.87,25.93" fill="none"
            stroke="#91aab6" stroke-miterlimit="10" stroke-width="3.23" />
        <path d="M384.63,85.52l-155.81,29.81L126.32,37.83" fill="none" stroke="#91aab6"
            stroke-miterlimit="10" stroke-width="3.23" />
        <path d="M146.82,97.42h-3.04v4.69h3.04v-4.69Z" fill="#e5ebed" />
        <path d="M236.83,632.55v19.33l14.78-2.78v-19.34l-14.78,2.78Z" fill="#cddbe0" />
        <path d="M215.17,623.76v19.33l-11.51-8.7v-19.33l11.51,8.7Z" fill="#cddbe0" />
        <path d="M169.23,589.07v19.3l-11.51-8.7v-19.3l11.51,8.7Z" fill="#cddbe0" />
        <path d="M192.18,606.4v19.34l-11.48-8.7v-19.33l11.48,8.7Z" fill="#cddbe0" />
        <path d="M215.17,599.22v19.34l-11.51-8.7v-19.34l11.51,8.7Z" fill="#cddbe0" />
        <path d="M169.23,564.53v19.3l-11.51-8.7v-19.3l11.51,8.7Z" fill="#cddbe0" />
        <path d="M192.18,581.86v19.34l-11.48-8.7v-19.34l11.48,8.7Z" fill="#cddbe0" />
        <path d="M215.17,574.68v19.33l-11.51-8.7v-19.34l11.51,8.7Z" fill="#cddbe0" />
        <path d="M169.23,539.99v19.33l-11.51-8.73v-19.3l11.51,8.7Z" fill="#cddbe0" />
        <path d="M192.18,557.32v19.34l-11.48-8.7v-19.33l11.48,8.7Z" fill="#cddbe0" />
        <path d="M215.17,550.14v19.34l-11.51-8.7v-19.34l11.51,8.7Z" fill="#cddbe0" />
        <path d="M169.23,515.45v19.33l-11.51-8.7v-19.34l11.51,8.7Z" fill="#cddbe0" />
        <path d="M192.18,532.78v19.34l-11.48-8.7v-19.34l11.48,8.7Z" fill="#cddbe0" />
        <path d="M215.17,525.6v19.33l-11.51-8.7v-19.34l11.51,8.7Z" fill="#cddbe0" />
        <path d="M169.23,490.9v19.33l-11.51-8.7v-19.33l11.51,8.7Z" fill="#cddbe0" />
        <path d="M192.18,508.24v19.33l-11.48-8.7v-19.33l11.48,8.7Z" fill="#cddbe0" />
        <path d="M215.17,501.06v19.33l-11.51-8.7v-19.34l11.51,8.7Z" fill="#cddbe0" />
        <path d="M169.23,466.36v19.34l-11.51-8.7v-19.33l11.51,8.7Z" fill="#cddbe0" />
        <path d="M192.18,483.7v19.33l-11.48-8.7v-19.34l11.48,8.7Z" fill="#cddbe0" />
        <path d="M215.17,476.52v19.33l-11.51-8.7v-19.33l11.51,8.7Z" fill="#cddbe0" />
        <path d="M169.23,441.82v19.33l-11.51-8.7v-19.33l11.51,8.7Z" fill="#cddbe0" />
        <path d="M192.18,459.19v19.33l-11.48-8.73v-19.33l11.48,8.73Z" fill="#cddbe0" />
        <path d="M298.72,620.78v19.34l14.74-2.78v-19.33l-14.74,2.78Z" fill="#cddbe0" />
        <path d="M267.78,626.67v19.34l14.78-2.78v-19.34l-14.78,2.78Z" fill="#cddbe0" />
        <path d="M329.63,614.9v19.34l14.78-2.78v-19.34l-14.78,2.78Z" fill="#cddbe0" />
        <path d="M360.58,609.02v19.34l14.78-2.78v-19.34l-14.78,2.78Z" fill="#cddbe0" />
        <path d="M236.83,608.01v19.34l14.78-2.78v-19.34l-14.78,2.78Z" fill="#cddbe0" />
        <path d="M298.72,596.24v19.34l14.74-2.78v-19.34l-14.74,2.78Z" fill="#cddbe0" />
        <path d="M267.78,602.13v19.33l14.78-2.78v-19.34l-14.78,2.78Z" fill="#cddbe0" />
        <path d="M329.63,590.36v19.34l14.78-2.78v-19.33l-14.78,2.78Z" fill="#cddbe0" />
        <path d="M360.58,584.48v19.33l14.78-2.78v-19.34l-14.78,2.78Z" fill="#cddbe0" />
        <path d="M236.83,583.51v19.3l14.78-2.78v-19.34l-14.78,2.81Z" fill="#cddbe0" />
        <path d="M298.72,571.74v19.34l14.74-2.78v-19.34l-14.74,2.78Z" fill="#cddbe0" />
        <path d="M267.78,577.62v19.34l14.78-2.81v-19.34l-14.78,2.81Z" fill="#cddbe0" />
        <path d="M329.63,565.85v19.3l14.78-2.78v-19.34l-14.78,2.81Z" fill="#cddbe0" />
        <path d="M360.58,559.97v19.3l14.78-2.78v-19.33l-14.78,2.81Z" fill="#cddbe0" />
        <path d="M236.83,558.97v19.33l14.78-2.78v-19.34l-14.78,2.78Z" fill="#cddbe0" />
        <path d="M298.72,547.2v19.34l14.74-2.78v-19.33l-14.74,2.78Z" fill="#cddbe0" />
        <path d="M267.78,553.08v19.34l14.78-2.78v-19.34l-14.78,2.78Z" fill="#cddbe0" />
        <path d="M329.63,541.31v19.33l14.78-2.78v-19.34l-14.78,2.78Z" fill="#cddbe0" />
        <path d="M360.58,535.43v19.34l14.78-2.78v-19.33l-14.78,2.78Z" fill="#cddbe0" />
        <path d="M236.83,534.42v19.34l14.78-2.78v-19.33l-14.78,2.78Z" fill="#cddbe0" />
        <path d="M298.72,522.69v19.3l14.74-2.78v-19.34l-14.74,2.81Z" fill="#cddbe0" />
        <path d="M267.78,528.54v19.34l14.78-2.78v-19.33l-14.78,2.78Z" fill="#cddbe0" />
        <path d="M329.63,516.77v19.34l14.78-2.78v-19.33l-14.78,2.78Z" fill="#cddbe0" />
        <path d="M360.58,510.89v19.33l14.78-2.78v-19.33l-14.78,2.78Z" fill="#cddbe0" />
        <path d="M236.83,509.92v19.34l14.78-2.81v-19.34l-14.78,2.81Z" fill="#cddbe0" />
        <path d="M298.72,498.15v19.33l14.74-2.78v-19.34l-14.74,2.78Z" fill="#cddbe0" />
        <path d="M267.78,504.03v19.33l14.78-2.81v-19.3l-14.78,2.78Z" fill="#cddbe0" />
        <path d="M329.63,492.26v19.3l14.78-2.78v-19.33l-14.78,2.81Z" fill="#cddbe0" />
        <path d="M360.58,486.38v19.33l14.78-2.81v-19.33l-14.78,2.81Z" fill="#cddbe0" />
        <path d="M236.83,485.38v19.33l14.78-2.78v-19.33l-14.78,2.78Z" fill="#cddbe0" />
        <path d="M298.72,473.61v19.33l14.74-2.78v-19.33l-14.74,2.78Z" fill="#cddbe0" />
        <path d="M267.78,479.49v19.33l14.78-2.78v-19.33l-14.78,2.78Z" fill="#cddbe0" />
        <path d="M329.63,467.72v19.34l14.78-2.78v-19.34l-14.78,2.78Z" fill="#cddbe0" />
        <path d="M360.58,461.84v19.33l14.78-2.78v-19.33l-14.78,2.78Z" fill="#cddbe0" />
        <path d="M236.83,460.77v19.33l14.78-2.78v-19.33l-14.78,2.78Z" fill="#cddbe0" />
        <path d="M215.17,451.98v19.34l-11.51-8.7v-19.34l11.51,8.7Z" fill="#cddbe0" />
        <path d="M169.23,417.28v19.33l-11.51-8.7v-19.33l11.51,8.7Z" fill="#cddbe0" />
        <path d="M192.18,434.65v19.33l-11.48-8.7v-19.33l11.48,8.7Z" fill="#cddbe0" />
        <path d="M215.17,427.44v19.33l-11.51-8.7v-19.33l11.51,8.7Z" fill="#cddbe0" />
        <path d="M169.23,392.74v19.34l-11.51-8.7v-19.34l11.51,8.7Z" fill="#cddbe0" />
        <path d="M192.18,410.11v19.34l-11.48-8.7v-19.33l11.48,8.7Z" fill="#cddbe0" />
        <path d="M215.17,402.9v19.33l-11.51-8.7v-19.33l11.51,8.7Z" fill="#cddbe0" />
        <path d="M169.23,368.2v19.33l-11.51-8.7v-19.33l11.51,8.7Z" fill="#cddbe0" />
        <path d="M192.18,385.57v19.33l-11.48-8.7v-19.33l11.48,8.7Z" fill="#cddbe0" />
        <path d="M215.17,378.39v19.3l-11.51-8.7v-19.34l11.51,8.73Z" fill="#cddbe0" />
        <path d="M169.23,343.66v19.33l-11.51-8.7v-19.33l11.51,8.7Z" fill="#cddbe0" />
        <path d="M192.18,361.02v19.33l-11.48-8.7v-19.33l11.48,8.7Z" fill="#cddbe0" />
        <path d="M215.17,353.85v19.33l-11.51-8.73v-19.3l11.51,8.7Z" fill="#cddbe0" />
        <path d="M169.23,319.12v19.33l-11.51-8.7v-19.34l11.51,8.7Z" fill="#cddbe0" />
        <path d="M192.18,336.48v19.34l-11.48-8.7v-19.33l11.48,8.7Z" fill="#cddbe0" />
        <path d="M215.17,329.31v19.33l-11.51-8.73v-19.3l11.51,8.7Z" fill="#cddbe0" />
        <path d="M169.23,294.58v19.33l-11.51-8.7v-19.33l11.51,8.7Z" fill="#cddbe0" />
        <path d="M192.18,311.95v19.33l-11.48-8.7v-19.33l11.48,8.7Z" fill="#cddbe0" />
        <path d="M215.17,304.77v19.33l-11.51-8.7v-19.33l11.51,8.7Z" fill="#cddbe0" />
        <path d="M169.23,270.07v19.3l-11.51-8.7v-19.33l11.51,8.73Z" fill="#cddbe0" />
        <path d="M192.18,287.4v19.34l-11.48-8.7v-19.33l11.48,8.7Z" fill="#cddbe0" />
        <path d="M298.72,449.04v19.33l14.74-2.78v-19.33l-14.74,2.78Z" fill="#cddbe0" />
        <path d="M267.78,454.89v19.33l14.78-2.78v-19.34l-14.78,2.78Z" fill="#cddbe0" />
        <path d="M329.63,443.12v19.33l14.78-2.78v-19.33l-14.78,2.78Z" fill="#cddbe0" />
        <path d="M360.58,437.27v19.3l14.78-2.78v-19.33l-14.78,2.81Z" fill="#cddbe0" />
        <path d="M236.83,436.26v19.33l14.78-2.78v-19.33l-14.78,2.78Z" fill="#cddbe0" />
        <path d="M298.72,424.49v19.34l14.74-2.78v-19.34l-14.74,2.78Z" fill="#cddbe0" />
        <path d="M267.78,430.38v19.33l14.78-2.78v-19.34l-14.78,2.78Z" fill="#cddbe0" />
        <path d="M329.63,418.61v19.34l14.78-2.78v-19.33l-14.78,2.78Z" fill="#cddbe0" />
        <path d="M360.58,412.73v19.33l14.78-2.78v-19.33l-14.78,2.78Z" fill="#cddbe0" />
        <path d="M236.83,411.72v19.34l14.78-2.78v-19.34l-14.78,2.78Z" fill="#cddbe0" />
        <path d="M298.72,399.95v19.33l14.74-2.78v-19.33l-14.74,2.78Z" fill="#cddbe0" />
        <path d="M267.78,405.84v19.33l14.78-2.78v-19.33l-14.78,2.78Z" fill="#cddbe0" />
        <path d="M329.63,394.07v19.33l14.78-2.78v-19.33l-14.78,2.78Z" fill="#cddbe0" />
        <path d="M360.58,388.18v19.33l14.78-2.78v-19.34l-14.78,2.78Z" fill="#cddbe0" />
        <path d="M236.83,387.18v19.33l14.78-2.78v-19.33l-14.78,2.78Z" fill="#cddbe0" />
        <path d="M298.72,375.45v19.33l14.74-2.81v-19.33l-14.74,2.81Z" fill="#cddbe0" />
        <path d="M267.78,381.33v19.3l14.78-2.78v-19.33l-14.78,2.81Z" fill="#cddbe0" />
        <path d="M329.63,369.53v19.34l14.78-2.78v-19.34l-14.78,2.78Z" fill="#cddbe0" />
        <path d="M360.58,363.64v19.33l14.78-2.78v-19.33l-14.78,2.78Z" fill="#cddbe0" />
        <path d="M236.83,362.67v19.33l14.78-2.78v-19.33l-14.78,2.78Z" fill="#cddbe0" />
        <path d="M298.72,350.9v19.33l14.74-2.78v-19.33l-14.74,2.78Z" fill="#cddbe0" />
        <path d="M267.78,356.79v19.33l14.78-2.78v-19.33l-14.78,2.78Z" fill="#cddbe0" />
        <path d="M329.63,345.02v19.33l14.78-2.81v-19.3l-14.78,2.78Z" fill="#cddbe0" />
        <path d="M360.58,339.14v19.34l14.78-2.81v-19.3l-14.78,2.78Z" fill="#cddbe0" />
        <path d="M236.83,338.13v19.33l14.78-2.78v-19.33l-14.78,2.78Z" fill="#cddbe0" />
        <path d="M298.72,326.36v19.34l14.74-2.78v-19.33l-14.74,2.78Z" fill="#cddbe0" />
        <path d="M267.78,332.25v19.34l14.78-2.78v-19.33l-14.78,2.78Z" fill="#cddbe0" />
        <path d="M329.63,320.48v19.33l14.78-2.78v-19.33l-14.78,2.78Z" fill="#cddbe0" />
        <path d="M360.58,314.6v19.33l14.78-2.78v-19.33l-14.78,2.78Z" fill="#cddbe0" />
        <path d="M236.83,313.63v19.3l14.78-2.78v-19.34l-14.78,2.81Z" fill="#cddbe0" />
        <path d="M298.72,301.86v19.3l14.74-2.78v-19.3l-14.74,2.78Z" fill="#cddbe0" />
        <path d="M267.78,307.71v19.33l14.78-2.78v-19.33l-14.78,2.78Z" fill="#cddbe0" />
        <path d="M329.63,295.94v19.33l14.78-2.78v-19.33l-14.78,2.78Z" fill="#cddbe0" />
        <path d="M360.58,290.05v19.34l14.78-2.78v-19.33l-14.78,2.78Z" fill="#cddbe0" />
        <path d="M236.83,289.02v19.3l14.78-2.78v-19.33l-14.78,2.81Z" fill="#cddbe0" />
        <path d="M215.17,280.19v19.33l-11.51-8.7v-19.33l11.51,8.7Z" fill="#cddbe0" />
        <path d="M169.23,245.5v19.33l-11.51-8.7v-19.34l11.51,8.7Z" fill="#cddbe0" />
        <path d="M192.18,262.86v19.33l-11.48-8.73v-19.3l11.48,8.7Z" fill="#cddbe0" />
        <path d="M215.17,255.65v19.34l-11.51-8.7v-19.33l11.51,8.7Z" fill="#cddbe0" />
        <path d="M169.23,220.96v19.34l-11.51-8.7v-19.34l11.51,8.7Z" fill="#cddbe0" />
        <path d="M192.18,238.32v19.33l-11.48-8.7v-19.33l11.48,8.7Z" fill="#cddbe0" />
        <path d="M215.17,231.11v19.33l-11.51-8.7v-19.34l11.51,8.7Z" fill="#cddbe0" />
        <path d="M169.23,196.42v19.34l-11.51-8.7v-19.33l11.51,8.7Z" fill="#cddbe0" />
        <path d="M192.18,213.78v19.33l-11.48-8.7v-19.33l11.48,8.7Z" fill="#cddbe0" />
        <path d="M215.17,206.6v19.3l-11.51-8.7v-19.34l11.51,8.73Z" fill="#cddbe0" />
        <path d="M169.23,171.88v19.33l-11.51-8.7v-19.33l11.51,8.7Z" fill="#cddbe0" />
        <path d="M192.18,189.24v19.33l-11.48-8.7v-19.34l11.48,8.7Z" fill="#cddbe0" />
        <path d="M215.17,182.07v19.3l-11.51-8.7v-19.3l11.51,8.7Z" fill="#cddbe0" />
        <path d="M169.23,147.34v19.33l-11.51-8.7v-19.34l11.51,8.7Z" fill="#cddbe0" />
        <path d="M192.18,164.7v19.34l-11.48-8.7v-19.33l11.48,8.7Z" fill="#cddbe0" />
        <path d="M215.17,157.52v19.33l-11.51-8.7v-19.34l11.51,8.7Z" fill="#cddbe0" />
        <path d="M169.23,122.8v19.33l-11.51-8.7v-19.33l11.51,8.7Z" fill="#cddbe0" />
        <path d="M192.18,140.16v19.33l-11.48-8.7v-19.33l11.48,8.7Z" fill="#cddbe0" />
        <path d="M298.72,277.25v19.33l14.74-2.81v-19.3l-14.74,2.78Z" fill="#cddbe0" />
        <path d="M267.78,283.14v19.34l14.78-2.81v-19.33l-14.78,2.81Z" fill="#cddbe0" />
        <path d="M329.63,271.33v19.34l14.78-2.78v-19.34l-14.78,2.78Z" fill="#cddbe0" />
        <path d="M360.58,265.48v19.3l14.78-2.78v-19.33l-14.78,2.81Z" fill="#cddbe0" />
        <path d="M236.83,264.48v19.33l14.78-2.78v-19.33l-14.78,2.78Z" fill="#cddbe0" />
        <path d="M298.72,252.71v19.33l14.74-2.78v-19.33l-14.74,2.78Z" fill="#cddbe0" />
        <path d="M267.78,258.6v19.33l14.78-2.78v-19.33l-14.78,2.78Z" fill="#cddbe0" />
        <path d="M329.63,246.83v19.33l14.78-2.81v-19.3l-14.78,2.78Z" fill="#cddbe0" />
        <path d="M360.58,240.94v19.34l14.78-2.78v-19.34l-14.78,2.78Z" fill="#cddbe0" />
        <path d="M236.83,239.94v19.33l14.78-2.78v-19.33l-14.78,2.78Z" fill="#cddbe0" />
        <path d="M298.72,228.17v19.33l14.74-2.78v-19.34l-14.74,2.78Z" fill="#cddbe0" />
        <path d="M267.78,234.06v19.33l14.78-2.78v-19.34l-14.78,2.78Z" fill="#cddbe0" />
        <path d="M329.63,222.29v19.34l14.78-2.78v-19.34l-14.78,2.78Z" fill="#cddbe0" />
        <path d="M360.58,216.4v19.34l14.78-2.78v-19.33l-14.78,2.78Z" fill="#cddbe0" />
        <path d="M236.83,215.43v19.3l14.78-2.78v-19.33l-14.78,2.81Z" fill="#cddbe0" />
        <path d="M298.72,203.66v19.34l14.74-2.81v-19.3l-14.74,2.78Z" fill="#cddbe0" />
        <path d="M267.78,209.55v19.3l14.78-2.78v-19.34l-14.78,2.81Z" fill="#cddbe0" />
        <path d="M329.63,197.75v19.33l14.78-2.78v-19.33l-14.78,2.78Z" fill="#cddbe0" />
        <path d="M360.58,191.86v19.34l14.78-2.78v-19.34l-14.78,2.78Z" fill="#cddbe0" />
        <path d="M236.83,190.89v19.33l14.78-2.78v-19.34l-14.78,2.78Z" fill="#cddbe0" />
        <path d="M298.72,179.12v19.34l14.74-2.78v-19.34l-14.74,2.78Z" fill="#cddbe0" />
        <path d="M267.78,185.01v19.33l14.78-2.78v-19.34l-14.78,2.78Z" fill="#cddbe0" />
        <path d="M329.63,173.24v19.33l14.78-2.78v-19.34l-14.78,2.78Z" fill="#cddbe0" />
        <path d="M360.58,167.35v19.34l14.78-2.78v-19.34l-14.78,2.78Z" fill="#cddbe0" />
        <path d="M236.83,166.35v19.34l14.78-2.78v-19.33l-14.78,2.78Z" fill="#cddbe0" />
        <path d="M298.72,154.58v19.34l14.74-2.78v-19.34l-14.74,2.78Z" fill="#cddbe0" />
        <path d="M267.78,160.47v19.33l14.78-2.78v-19.33l-14.78,2.78Z" fill="#cddbe0" />
        <path d="M329.63,148.7v19.33l14.78-2.78v-19.33l-14.78,2.78Z" fill="#cddbe0" />
        <path d="M360.58,142.81v19.33l14.78-2.78v-19.34l-14.78,2.78Z" fill="#cddbe0" />
        <path d="M215.17,132.92v19.33l-11.51-8.73v-19.3l11.51,8.7Z" fill="#cddbe0" />
        <path d="M169.23,98.19v19.33l-11.51-8.7v-19.34l11.51,8.7Z" fill="#cddbe0" />
        <path d="M192.18,115.56v19.33l-11.48-8.7v-19.33l11.48,8.7Z" fill="#cddbe0" />
        <path d="M146.24,80.86v19.33l-11.48-8.7v-19.33l11.48,8.7Z" fill="#cddbe0" />
        <path d="M236.83,141.75v19.33l14.78-2.78v-19.34l-14.78,2.78Z" fill="#cddbe0" />
        <path d="M298.72,129.98v19.33l14.74-2.78v-19.34l-14.74,2.78Z" fill="#cddbe0" />
        <path d="M267.78,135.86v19.34l14.78-2.78v-19.34l-14.78,2.78Z" fill="#cddbe0" />
        <path d="M329.63,124.09v19.33l14.78-2.78v-19.34l-14.78,2.78Z" fill="#cddbe0" />
        <path d="M360.58,118.21v19.33l14.78-2.78v-19.33l-14.78,2.78Z" fill="#cddbe0" />
        <path d="M118.59,564.62v19.33l-11.48-8.7v-19.33l11.48,8.7Z" fill="#cddbe0" />
        <path d="M72.65,529.93v19.33l-11.51-8.7v-19.34l11.51,8.7Z" fill="#cddbe0" />
        <path d="M49.66,512.57v19.34l-11.48-8.7v-19.33l11.48,8.7Z" fill="#cddbe0" />
        <path d="M95.61,547.29v19.33l-11.48-8.7v-19.34l11.48,8.7Z" fill="#cddbe0" />
        <path d="M118.59,540.08v19.34l-11.48-8.7v-19.33l11.48,8.7Z" fill="#cddbe0" />
        <path d="M72.65,505.39v19.33l-11.51-8.7v-19.34l11.51,8.7Z" fill="#cddbe0" />
        <path d="M49.66,488.06v19.3l-11.48-8.7v-19.34l11.48,8.73Z" fill="#cddbe0" />
        <path d="M95.61,522.75v19.34l-11.48-8.7v-19.34l11.48,8.7Z" fill="#cddbe0" />
        <path d="M118.59,515.58v19.3l-11.48-8.7v-19.33l11.48,8.73Z" fill="#cddbe0" />
        <path d="M72.65,480.85v19.33l-11.51-8.7v-19.33l11.51,8.7Z" fill="#cddbe0" />
        <path d="M49.66,463.52v19.34l-11.48-8.73v-19.33l11.48,8.73Z" fill="#cddbe0" />
        <path d="M95.61,498.21v19.33l-11.48-8.7v-19.33l11.48,8.7Z" fill="#cddbe0" />
        <path d="M118.59,491.04v19.3l-11.48-8.7v-19.34l11.48,8.73Z" fill="#cddbe0" />
        <path d="M72.65,456.31v19.33l-11.51-8.7v-19.33l11.51,8.7Z" fill="#cddbe0" />
        <path d="M49.66,438.98v19.33l-11.48-8.7v-19.33l11.48,8.7Z" fill="#cddbe0" />
        <path d="M95.61,473.67v19.33l-11.48-8.7v-19.33l11.48,8.7Z" fill="#cddbe0" />
        <path d="M118.59,466.49v19.3l-11.48-8.7v-19.3l11.48,8.7Z" fill="#cddbe0" />
        <path d="M72.65,431.77v19.33l-11.51-8.7v-19.33l11.51,8.7Z" fill="#cddbe0" />
        <path d="M49.66,414.44v19.33l-11.48-8.7v-19.33l11.48,8.7Z" fill="#cddbe0" />
        <path d="M95.61,449.13v19.33l-11.48-8.7v-19.34l11.48,8.7Z" fill="#cddbe0" />
        <path d="M118.59,441.95v19.3l-11.48-8.7v-19.3l11.48,8.7Z" fill="#cddbe0" />
        <path d="M72.65,407.23v19.33l-11.51-8.7v-19.33l11.51,8.7Z" fill="#cddbe0" />
        <path d="M49.66,389.9v19.33l-11.48-8.7v-19.34l11.48,8.7Z" fill="#cddbe0" />
        <path d="M95.61,424.59v19.33l-11.48-8.7v-19.33l11.48,8.7Z" fill="#cddbe0" />
        <path d="M118.59,417.41v19.33l-11.48-8.73v-19.3l11.48,8.7Z" fill="#cddbe0" />
        <path d="M72.65,382.69v19.34l-11.51-8.7v-19.33l11.51,8.7Z" fill="#cddbe0" />
        <path d="M49.66,365.36v19.33l-11.48-8.7v-19.33l11.48,8.7Z" fill="#cddbe0" />
        <path d="M95.61,400.05v19.33l-11.48-8.7v-19.33l11.48,8.7Z" fill="#cddbe0" />
        <path d="M118.59,392.87v19.34l-11.48-8.7v-19.33l11.48,8.7Z" fill="#cddbe0" />
        <path d="M72.65,358.18v19.3l-11.51-8.7v-19.33l11.51,8.73Z" fill="#cddbe0" />
        <path d="M49.66,340.82v19.33l-11.48-8.7v-19.33l11.48,8.7Z" fill="#cddbe0" />
        <path d="M95.61,375.51v19.33l-11.48-8.7v-19.34l11.48,8.7Z" fill="#cddbe0" />
        <path d="M118.59,368.33v19.33l-11.48-8.7v-19.33l11.48,8.7Z" fill="#cddbe0" />
        <path d="M72.65,333.64v19.33l-11.51-8.73v-19.3l11.51,8.7Z" fill="#cddbe0" />
        <path d="M49.66,316.28v19.33l-11.48-8.7v-19.34l11.48,8.7Z" fill="#cddbe0" />
        <path d="M95.61,350.97v19.33l-11.48-8.7v-19.33l11.48,8.7Z" fill="#cddbe0" />
        <path d="M118.59,343.79v19.34l-11.48-8.7v-19.33l11.48,8.7Z" fill="#cddbe0" />
        <path d="M72.65,309.1v19.33l-11.51-8.7v-19.33l11.51,8.7Z" fill="#cddbe0" />
        <path d="M49.66,291.74v19.33l-11.48-8.7v-19.33l11.48,8.7Z" fill="#cddbe0" />
        <path d="M95.61,326.43v19.34l-11.48-8.7v-19.33l11.48,8.7Z" fill="#cddbe0" />
        <path d="M118.59,319.25v19.33l-11.48-8.7v-19.34l11.48,8.7Z" fill="#cddbe0" />
        <path d="M72.65,284.56v19.34l-11.51-8.7v-19.33l11.51,8.7Z" fill="#cddbe0" />
        <path d="M49.66,267.2v19.33l-11.48-8.7v-19.34l11.48,8.7Z" fill="#cddbe0" />
        <path d="M95.61,301.89v19.33l-11.48-8.7v-19.34l11.48,8.7Z" fill="#cddbe0" />
        <path d="M118.59,294.71v19.33l-11.48-8.7v-19.33l11.48,8.7Z" fill="#cddbe0" />
        <path d="M72.65,260.02v19.33l-11.51-8.7v-19.34l11.51,8.7Z" fill="#cddbe0" />
        <path d="M49.66,242.66v19.33l-11.48-8.7v-19.34l11.48,8.7Z" fill="#cddbe0" />
        <path d="M95.61,277.35v19.33l-11.48-8.7v-19.33l11.48,8.7Z" fill="#cddbe0" />
        <path d="M118.59,270.17v19.34l-11.48-8.7v-19.34l11.48,8.7Z" fill="#cddbe0" />
        <path d="M72.65,235.48v19.34l-11.51-8.7v-19.33l11.51,8.7Z" fill="#cddbe0" />
        <path d="M49.66,218.12v19.33l-11.48-8.7v-19.34l11.48,8.7Z" fill="#cddbe0" />
        <path d="M95.61,252.84v19.3l-11.48-8.7v-19.34l11.48,8.73Z" fill="#cddbe0" />
        <path d="M118.59,245.63v19.33l-11.48-8.7v-19.34l11.48,8.7Z" fill="#cddbe0" />
        <path d="M72.65,210.94v19.33l-11.51-8.7v-19.33l11.51,8.7Z" fill="#cddbe0" />
        <path d="M49.66,193.57v19.34l-11.48-8.7v-19.33l11.48,8.7Z" fill="#cddbe0" />
        <path d="M95.61,228.3v19.3l-11.48-8.7v-19.3l11.48,8.7Z" fill="#cddbe0" />
        <path d="M118.59,221.09v19.34l-11.48-8.7v-19.33l11.48,8.7Z" fill="#cddbe0" />
        <path d="M72.65,186.4v19.33l-11.51-8.73v-19.33l11.51,8.73Z" fill="#cddbe0" />
        <path d="M49.66,169.04v19.33l-11.48-8.7v-19.33l11.48,8.7Z" fill="#cddbe0" />
        <path d="M95.61,203.73v19.34l-11.48-8.7v-19.34l11.48,8.7Z" fill="#cddbe0" />
        <path d="M118.59,196.55v19.33l-11.48-8.7v-19.33l11.48,8.7Z" fill="#cddbe0" />
        <path d="M72.65,161.86v19.34l-11.51-8.73v-19.3l11.51,8.7Z" fill="#cddbe0" />
        <path d="M49.66,144.49v19.33l-11.48-8.7v-19.34l11.48,8.7Z" fill="#cddbe0" />
        <path d="M95.61,179.19v19.34l-11.48-8.7v-19.33l11.48,8.7Z" fill="#cddbe0" />
        <path d="M118.59,172.01v19.33l-11.48-8.7v-19.34l11.48,8.7Z" fill="#cddbe0" />
        <path d="M72.65,137.32v19.34l-11.51-8.7v-19.33l11.51,8.7Z" fill="#cddbe0" />
        <path d="M49.66,119.95v19.33l-11.48-8.7v-19.34l11.48,8.7Z" fill="#cddbe0" />
        <path d="M95.61,154.65v19.33l-11.48-8.7v-19.33l11.48,8.7Z" fill="#cddbe0" />
        <path d="M118.59,147.47v19.34l-11.48-8.7v-19.34l11.48,8.7Z" fill="#cddbe0" />
        <path d="M72.65,112.78v19.33l-11.51-8.7v-19.33l11.51,8.7Z" fill="#cddbe0" />
        <path d="M49.66,95.41v19.33l-11.48-8.7v-19.34l11.48,8.7Z" fill="#cddbe0" />
        <path d="M95.61,130.11v19.33l-11.48-8.7v-19.34l11.48,8.7Z" fill="#cddbe0" />
        <path d="M118.59,122.93v19.34l-11.48-8.7v-19.33l11.48,8.7Z" fill="#cddbe0" />
        <path d="M72.65,88.24v19.33l-11.51-8.7v-19.33l11.51,8.7Z" fill="#cddbe0" />
        <path d="M49.66,70.87v19.33l-11.48-8.7v-19.33l11.48,8.7Z" fill="#cddbe0" />
        <path d="M95.61,105.6v19.3l-11.48-8.7v-19.33l11.48,8.73Z" fill="#cddbe0" />
        <path d="M118.59,98.39v19.34l-11.48-8.7v-19.33l11.48,8.7Z" fill="#cddbe0" />
        <path d="M72.65,63.7v19.33l-11.51-8.7v-19.33l11.51,8.7Z" fill="#cddbe0" />
        <path d="M49.66,46.33v19.33l-11.48-8.7v-19.33l11.48,8.7Z" fill="#cddbe0" />
        <path d="M95.61,81.06v19.34l-11.48-8.73v-19.3l11.48,8.7Z" fill="#cddbe0" />
    </g>
    <g id="floors">
        <path id="floor1"
            d="M143.76,571.15l.39-.69,84.16,58.94,.35,.24,.41-.08,155.94-29.5v24.7l-155.88,30.17-84.85-63.05-.34-.25-.42,.07-14.52,2.42-100.99-75.57v-25.49l50.01,39.82h0s0,.01,0,.01l50.1,38.54,.35,.27,.44-.08,7.46-1.39h.02s.02,0,.02,0l5.77-1.29,.03,.11,.07,.24,.14,.14-.41,.73,1.74,.98Z"
            fill="rgba(206,146,112,.5)" stroke="#ce9270" stroke-width="2" />
        <path id="floor2"
            d="M143.76,547.15l.39-.69,84.16,58.94,.35,.24,.41-.08,155.94-29.5v24.7l-155.88,30.17-84.85-63.05-.34-.25-.42,.07-14.52,2.42L28,494.56v-25.49l50.01,39.82h0s0,.01,0,.01l50.1,38.54,.35,.27,.44-.08,7.46-1.39h.02s.02,0,.02,0l5.77-1.29,.03,.11,.07,.24,.14,.14-.41,.73,1.74,.98Z"
            fill="rgba(206,146,112,.5)" stroke="#ce9270" stroke-width="2" />
        <path id="floor3"
            d="M143.76,524.15l.39-.69,84.16,58.94,.35,.24,.41-.08,155.94-29.5v24.7l-155.88,30.17-84.85-63.05-.34-.25-.42,.07-14.52,2.42L28,471.56v-25.49l50.01,39.82h0s0,.01,0,.01l50.1,38.54,.35,.27,.44-.08,7.46-1.39h.02s.02,0,.02,0l5.77-1.29,.03,.11,.07,.24,.14,.14-.41,.73,1.74,.98Z"
            fill="rgba(206,146,112,.5)" stroke="#ce9270" stroke-width="2" />
        <path id="floor4"
            d="M143.76,498.63l.39-.69,84.16,59.29,.35,.24,.42-.08,155.93-29.67v24.86l-155.88,30.35-84.85-63.43-.34-.26-.42,.07-14.52,2.44L28,445.73v-25.65l50.01,40.06h0s0,.01,0,.01l50.1,38.77,.35,.28,.44-.08,7.46-1.4h.02s.02,0,.02,0l5.77-1.3,.03,.11,.07,.24,.14,.14-.42,.74,1.74,.98Z"
            fill="rgba(206,146,112,.5)" stroke="#ce9270" stroke-width="2" />
        <path id="floor5"
            d="M143.76,473.63l.39-.69,84.16,59.29,.35,.24,.42-.08,155.93-29.67v24.86l-155.88,30.35-84.85-63.43-.34-.26-.42,.07-14.52,2.44L28,420.73v-25.65l50.01,40.06h0s0,.01,0,.01l50.1,38.77,.35,.28,.44-.08,7.46-1.4h.02s.02,0,.02,0l5.77-1.3,.03,.11,.07,.24,.14,.14-.42,.74,1.74,.98Z"
            fill="rgba(206,146,112,.5)" stroke="#ce9270" stroke-width="2" />
        <path id="floor6"
            d="M143.76,448.63l.39-.69,84.16,59.29,.35,.24,.42-.08,155.93-29.67v24.86l-155.88,30.35-84.85-63.43-.34-.26-.42,.07-14.52,2.44L28,395.73v-25.65l50.01,40.06h0s0,.01,0,.01l50.1,38.77,.35,.28,.44-.08,7.46-1.4h.02s.02,0,.02,0l5.77-1.3,.03,.11,.07,.24,.14,.14-.42,.74,1.74,.98Z"
            fill="rgba(206,146,112,.5)" stroke="#ce9270" stroke-width="2" />
        <path id="floor7"
            d="M143.76,424.63l.39-.69,84.16,59.29,.35,.24,.42-.08,155.93-29.67v24.86l-155.88,30.35-84.85-63.43-.34-.26-.42,.07-14.52,2.44L28,371.73v-25.65l50.01,40.06h0s0,.01,0,.01l50.1,38.77,.35,.28,.44-.08,7.46-1.4h.02s.02,0,.02,0l5.77-1.3,.03,.11,.07,.24,.14,.14-.42,.74,1.74,.98Z"
            fill="rgba(206,146,112,.5)" stroke="#ce9270" stroke-width="2" />
        <path id="floor8"
            d="M143.76,396.63l.37-.66,84.14,64.75,.36,.28,.45-.09,155.93-30.86v23.53l-155.88,30.35-85.64-62.89-.35-.26-.43,.08-13.71,2.58L28,343.75v-25.67l50.01,40.06h0s0,.01,0,.01l50.1,38.77,.35,.27,.44-.08,7.46-1.4h.02s.02,0,.02,0l5.77-1.3,.03,.11,.07,.24,.14,.14-.42,.75,1.74,.98Z"
            fill="rgba(206,146,112,.5)" stroke="#ce9270" stroke-width="2" />
        <path id="floor9"
            d="M143.76,371.63l.37-.66,84.14,64.75,.36,.28,.45-.09,155.93-30.86v23.53l-155.88,30.35-85.64-62.89-.35-.26-.43,.08-13.71,2.58L28,318.75v-25.67l50.01,40.06h0s0,.01,0,.01l50.1,38.77,.35,.27,.44-.08,7.46-1.4h.02s.02,0,.02,0l5.77-1.3,.03,.11,.07,.24,.14,.14-.42,.75,1.74,.98Z"
            fill="rgba(206,146,112,.5)" stroke="#ce9270" stroke-width="2" />
        <path id="floor10"
            d="M128.1,346.33l.36,.3,.46-.09,7.74-1.45,5.97-1.12,85.64,67.19,.36,.29,.45-.09,155.92-32.09v23.55l-155.87,32.12-85.63-67.18-.36-.28-.45,.08-13.71,2.57L28,290.66v-25.58l50,39.93,50.1,41.32Z"
            fill="rgba(206,146,112,.5)" stroke="#ce9270" stroke-width="2" />
        <path id="floor11"
            d="M128.1,322.33l.36,.3,.46-.09,7.74-1.45,5.97-1.12,85.64,67.19,.36,.29,.45-.09,155.92-32.09v23.55l-155.87,32.12-85.63-67.18-.36-.28-.45,.08-13.71,2.57L28,266.66v-25.58l50,39.93,50.1,41.32Z"
            fill="rgba(206,146,112,.5)" stroke="#ce9270" stroke-width="2" />
        <path id="floor12"
            d="M128.1,298.33l.36,.3,.46-.09,7.74-1.45,5.97-1.12,85.64,67.19,.36,.29,.45-.09,155.92-32.09v23.55l-155.87,32.12-85.63-67.18-.36-.28-.45,.08-13.71,2.57L28,242.66v-25.58l50,39.93,50.1,41.32Z"
            fill="rgba(206,146,112,.5)" stroke="#ce9270" stroke-width="2" />
        <path id="floor13"
            d="M128.1,273.38l.36,.29,.46-.09,7.74-1.43,5.97-1.11,85.64,66.41,.36,.28,.45-.09,155.92-31.72v23.26l-155.87,31.75-85.63-66.4-.35-.27-.44,.08-13.71,2.54L28,218.33v-25.27l50,39.48,50.1,40.84Z"
            fill="rgba(206,146,112,.5)" stroke="#ce9270" stroke-width="2" />
        <path id="floor14"
            d="M128.1,249.38l.36,.29,.46-.08,7.74-1.44,5.97-1.11,85.64,66.41,.36,.28,.45-.09,155.92-31.72v23.26l-155.87,31.75-85.63-66.4-.35-.27-.44,.08-13.71,2.54L28,194.33v-25.27l50,39.48,50.1,40.84Z"
            fill="rgba(206,146,112,.5)" stroke="#ce9270" stroke-width="2" />
        <path id="floor15"
            d="M128.11,224.95l.36,.28,.45-.08,7.74-1.41,5.98-1.09,85.64,65.25,.36,.27,.44-.09,155.93-31.16v22.81l-155.88,31.19-85.63-65.24-.35-.27-.43,.08-13.72,2.5L28,170.84v-24.8l50.01,38.79,50.1,40.12Z"
            fill="rgba(206,146,112,.5)" stroke="#ce9270" stroke-width="2" />
        <path id="floor16"
            d="M128.11,201l.35,.28,.44-.08,7.74-1.39,5.98-1.08,85.64,64.47,.36,.27,.44-.09,155.93-30.79v22.52l-155.88,30.82-85.63-64.47-.35-.26-.43,.08-13.72,2.47L28,147.51v-24.49l50.02,38.33,50.1,39.64Z"
            fill="rgba(206,146,112,.5)" stroke="#ce9270" stroke-width="2" />
        <path id="floor17"
            d="M128.11,178l.35,.28,.44-.08,7.74-1.39,5.98-1.08,85.64,64.47,.36,.27,.44-.09,155.93-30.79v22.52l-155.88,30.82-85.63-64.47-.35-.26-.43,.08-13.72,2.47L28,124.51v-24.49l50.02,38.33,50.1,39.64Z"
            fill="rgba(206,146,112,.5)" stroke="#ce9270" stroke-width="2" />
        <path id="floor18"
            d="M127.76,149.3l.38,.29,.46-.11,13.83-3.38,85.62,67.7,.36,.29,.45-.09,156.13-30.27v23.97l-156.08,31.25-85.65-64.01-.35-.26-.43,.08-13.87,2.61L28.87,102.04v-27.04l98.89,74.3Z"
            fill="rgba(206,146,112,.5)" stroke="#ce9270" stroke-width="2" />
        <path id="floor19"
            d="M127.76,124.68l.35,.27,.43-.08,13.4-2.52v.32l.39,.3,85.73,66.58,.36,.28,.45-.09,156.13-31.02v22.96l-156.07,31.57-85.64-68.31-.36-.29-.45,.09-13.87,2.61L28.87,72.04v-22.03L127.76,124.68Z"
            fill="rgba(206,146,112,.5)" stroke="#ce9270" stroke-width="2" />
        <path id="floor20"
            d="M127.76,101.35l.35,.27,.43-.08,13.4-2.52v.32l.39,.3,86.06,66.16,.36,.28,.45-.09,155.81-30.76v21.47l-156.07,33.23-85.64-68.31-.36-.29-.45,.08-13.87,2.61L28.87,48.71V26.68L127.76,101.35Z"
            fill="rgba(206,146,112,.5)" stroke="#ce9270" stroke-width="2" />
        <path id="floor21"
            d="M228.07,140.7l.36,.28,.45-.09,156.13-31.17v23.96l-156.07,30.26L127,85.4l.23-22.39,100.83,77.68Z"
            fill="rgba(206,146,112,.5)" stroke="#ce9270" stroke-width="2" />
    </g>
</svg>