<?xml version="1.0" encoding="UTF-8"?><svg id="_Слой_1" xmlns="http://www.w3.org/2000/svg" viewBox="0 0 519 701"><g><path d="M3.59,29.66L145.49,2.91l137.64,104.09v412.48l179.64-34.19,53.13,40.19v50.11l-3.82,.6v41.53l-82.63,15.76-41.06-31.04-.27,38.99-122.92,23.47v6.77l-133.55,25.71L3.59,29.66Z" fill="#fff"/><path d="M141.87,133.18L3.59,29.66l-.91,530.38,16.76,12.4v40.9l111.69,84.14v-40.23l10.46,8.11,.27-532.19Z" fill="#e5ebed"/><path d="M3.96,29.56l137.94,104.32,141.23-26.88" fill="none" stroke="#afc3ca" stroke-miterlimit="10" stroke-width="1.68"/><path d="M141.9,664.43L3.33,559.61V29.66L145.49,2.91l137.64,104.09V636.91l-141.23,27.52Z" fill="none" stroke="#afc3ca" stroke-miterlimit="10" stroke-width="1.68"/><path d="M265.2,640.39v31.28l-133.65,25.41-111.49-84.31v-40.09" fill="none" stroke="#afc3ca" stroke-miterlimit="10" stroke-width="1.68"/><path d="M131.55,656.48v40.83" fill="none" stroke="#afc3ca" stroke-miterlimit="10" stroke-width="1.68"/><path d="M141.9,133.88V664.43" fill="none" stroke="#afc3ca" stroke-miterlimit="10" stroke-width="1.68"/><path d="M283.17,569.76l232.74-44.28" fill="none" stroke="#afc3ca" stroke-miterlimit="10" stroke-width="1.68"/><path d="M283.13,620.05l104.99-20.05v-30.03l41.33-7.84v30l86.45-16.53v-50.11l-53.13-40.19-179.64,34.19" fill="none" stroke="#afc3ca" stroke-miterlimit="10" stroke-width="1.68"/><path d="M429.45,633.49v-41.37" fill="none" stroke="#afc3ca" stroke-miterlimit="10" stroke-width="1.68"/><path d="M388.12,600v41.43l-122.92,23.47" fill="none" stroke="#afc3ca" stroke-miterlimit="10" stroke-width="1.68"/><path d="M388.39,602.45l41.06,31.07,82.63-15.79v-41.53" fill="none" stroke="#afc3ca" stroke-miterlimit="10" stroke-width="1.68"/><path d="M3.32,29.66l138.58,104.22,141.23-26.88" fill="none" stroke="#91aab6" stroke-miterlimit="10" stroke-width="3.35"/><path d="M20.05,612.77l111.09,84.78,134.05-25.88v-6.77l122.92-23.47,.27-38.99,41.06,31.04,82.63-15.76v-41.53l3.82-.6v-50.11l-53.13-40.19-179.64,34.19V107.87L145.49,2.91,3.59,29.66l-.27,529.94,16.73,13.07v40.09Z" fill="none" stroke="#91aab6" stroke-miterlimit="10" stroke-width="1.68"/><path d="M145.52,2.91l137.64,104.96v411.61l179.61-34.19,53.13,40.23v50.11l-3.82,.6v41.53l-82.63,15.75-41.06-31.04-.27,38.98-122.92,23.47v6.7l-134.09,25.88-111.06-84.74v-40.23l-16.76-13.07L3.59,29.66,145.52,2.91Zm.6-2.68l-1.17,.2L3.12,27.05l-2.04,.4v2.08l-.27,530.08v1.24l.97,.74,15.79,12.34v40.23l.97,.74,111.12,84.81,.87,.67,1.11-.2,133.99-26.15,2.05-.37v-6.7l120.91-23.1,2.05-.37v-2.08l.23-33.96,37.08,28.02,.87,.67,1.11-.2,82.63-15.76,2.05-.4v-41.43l1.68-.27,2.15-.34v-53.64l-1.01-.77-53.13-40.23-.87-.7-1.11,.23-176.56,33.82V106.63l-1.01-.77L147.03,.9l-.9-.67Z" fill="#91aab6"/><path d="M157.26,641.5v20.05l15.32-2.92v-20.01l-15.32,2.88Z" fill="#cddbe0"/><path d="M125.51,631.98v20.05l-11.93-9.02v-20.05l11.93,9.02Z" fill="#cddbe0"/><path d="M77.85,596.01v20.05l-11.9-9.02v-20.05l11.9,9.02Z" fill="#cddbe0"/><path d="M54.04,578.04v20.01l-11.9-9.02v-20.01l11.9,9.02Z" fill="#cddbe0"/><path d="M30.25,560.04v20.05l-11.93-9.02v-20.05l11.93,9.02Z" fill="#cddbe0"/><path d="M101.68,614.01v20.05l-11.9-9.02v-20.05l11.9,9.02Z" fill="#cddbe0"/><path d="M125.51,606.57v20.01l-11.93-9.02v-20.05l11.93,9.05Z" fill="#cddbe0"/><path d="M77.85,570.57v20.05l-11.9-9.02v-20.05l11.9,9.02Z" fill="#cddbe0"/><path d="M54.04,552.6v20.01l-11.9-9.02v-20.01l11.9,9.02Z" fill="#cddbe0"/><path d="M30.25,534.6v20.05l-11.93-9.02v-20.05l11.93,9.02Z" fill="#cddbe0"/><path d="M101.68,588.57v20.05l-11.9-9.02v-20.05l11.9,9.02Z" fill="#cddbe0"/><path d="M125.51,581.09v20.05l-11.93-9.02v-20.05l11.93,9.02Z" fill="#cddbe0"/><path d="M77.85,545.12v20.05l-11.9-9.02v-20.05l11.9,9.02Z" fill="#cddbe0"/><path d="M54.04,527.16v20.05l-11.9-9.05v-20.01l11.9,9.02Z" fill="#cddbe0"/><path d="M30.25,509.16v20.05l-11.93-9.02v-20.05l11.93,9.02Z" fill="#cddbe0"/><path d="M101.68,563.13v20.05l-11.9-9.02v-20.05l11.9,9.02Z" fill="#cddbe0"/><path d="M125.51,555.68v20.05l-11.93-9.05v-20.05l11.93,9.05Z" fill="#cddbe0"/><path d="M77.85,519.68v20.05l-11.9-9.02v-20.05l11.9,9.02Z" fill="#cddbe0"/><path d="M54.04,501.71v20.05l-11.9-9.02v-20.05l11.9,9.02Z" fill="#cddbe0"/><path d="M30.25,483.71v20.05l-11.93-9.02v-20.05l11.93,9.02Z" fill="#cddbe0"/><path d="M101.68,537.68v20.05l-11.9-9.02v-20.05l11.9,9.02Z" fill="#cddbe0"/><path d="M125.51,530.24v20.05l-11.93-9.02v-20.05l11.93,9.02Z" fill="#cddbe0"/><path d="M77.85,494.24v20.05l-11.9-9.02v-20.05l11.9,9.02Z" fill="#cddbe0"/><path d="M54.04,476.27v20.05l-11.9-9.02v-20.05l11.9,9.02Z" fill="#cddbe0"/><path d="M30.25,458.27v20.05l-11.93-9.02v-20.05l11.93,9.02Z" fill="#cddbe0"/><path d="M101.68,512.24v20.05l-11.9-9.02v-20.05l11.9,9.02Z" fill="#cddbe0"/><path d="M125.51,504.8v20.05l-11.93-9.02v-20.05l11.93,9.02Z" fill="#cddbe0"/><path d="M77.85,468.8v20.05l-11.9-9.02v-20.05l11.9,9.02Z" fill="#cddbe0"/><path d="M54.04,450.83v20.05l-11.9-9.02v-20.05l11.9,9.02Z" fill="#cddbe0"/><path d="M30.25,432.83v20.05l-11.93-9.02v-20.05l11.93,9.02Z" fill="#cddbe0"/><path d="M101.68,486.8v20.05l-11.9-9.02v-20.05l11.9,9.02Z" fill="#cddbe0"/><path d="M125.51,479.36v20.05l-11.93-9.02v-20.05l11.93,9.02Z" fill="#cddbe0"/><path d="M77.85,443.39v20.01l-11.9-9.02v-20.05l11.9,9.05Z" fill="#cddbe0"/><path d="M54.04,425.39v20.05l-11.9-9.02v-20.05l11.9,9.02Z" fill="#cddbe0"/><path d="M30.25,407.38v20.05l-11.93-9.02v-20.05l11.93,9.02Z" fill="#cddbe0"/><path d="M101.68,461.35v20.05l-11.9-9.02v-20.05l11.9,9.02Z" fill="#cddbe0"/><path d="M221.42,629.3v20.05l15.32-2.88v-20.05l-15.32,2.88Z" fill="#cddbe0"/><path d="M189.34,635.4v20.05l15.32-2.92v-20.01l-15.32,2.88Z" fill="#cddbe0"/><path d="M253.5,623.2v20.01l15.29-2.88v-20.05l-15.29,2.92Z" fill="#cddbe0"/><path d="M157.26,616.06v20.05l15.32-2.88v-20.05l-15.32,2.88Z" fill="#cddbe0"/><path d="M221.42,603.85v20.05l15.32-2.88v-20.05l-15.32,2.88Z" fill="#cddbe0"/><path d="M189.34,609.96v20.05l15.32-2.88v-20.05l-15.32,2.88Z" fill="#cddbe0"/><path d="M253.5,597.75v20.05l15.29-2.88v-20.05l-15.29,2.88Z" fill="#cddbe0"/><path d="M157.26,590.61v20.05l15.32-2.88v-20.05l-15.32,2.88Z" fill="#cddbe0"/><path d="M221.42,578.45v20.01l15.32-2.88v-20.05l-15.32,2.92Z" fill="#cddbe0"/><path d="M189.34,584.51v20.05l15.32-2.88v-20.05l-15.32,2.88Z" fill="#cddbe0"/><path d="M253.5,572.31v20.05l15.29-2.88v-20.05l-15.29,2.88Z" fill="#cddbe0"/><path d="M157.26,565.21v20.05l15.32-2.88v-20.05l-15.32,2.88Z" fill="#cddbe0"/><path d="M221.42,553v20.05l15.32-2.88v-20.05l-15.32,2.88Z" fill="#cddbe0"/><path d="M189.34,559.1v20.05l15.32-2.88v-20.05l-15.32,2.88Z" fill="#cddbe0"/><path d="M253.5,546.9v20.05l15.29-2.92v-20.05l-15.29,2.92Z" fill="#cddbe0"/><path d="M157.26,539.76v20.05l15.32-2.88v-20.05l-15.32,2.88Z" fill="#cddbe0"/><path d="M221.42,527.56v20.05l15.32-2.88v-20.05l-15.32,2.88Z" fill="#cddbe0"/><path d="M189.34,533.66v20.05l15.32-2.88v-20.05l-15.32,2.88Z" fill="#cddbe0"/><path d="M253.5,521.46v20.05l15.29-2.88v-20.05l-15.29,2.88Z" fill="#cddbe0"/><path d="M157.26,514.32v20.05l15.32-2.88v-20.05l-15.32,2.88Z" fill="#cddbe0"/><path d="M221.42,502.12v20.05l15.32-2.88v-20.05l-15.32,2.88Z" fill="#cddbe0"/><path d="M189.34,508.22v20.05l15.32-2.88v-20.05l-15.32,2.88Z" fill="#cddbe0"/><path d="M253.5,496.02v20.05l15.29-2.88v-20.05l-15.29,2.88Z" fill="#cddbe0"/><path d="M157.26,488.91v20.01l15.32-2.88v-20.05l-15.32,2.92Z" fill="#cddbe0"/><path d="M221.42,476.71v20.05l15.32-2.88v-20.05l-15.32,2.88Z" fill="#cddbe0"/><path d="M189.34,482.81v20.05l15.32-2.92v-20.05l-15.32,2.92Z" fill="#cddbe0"/><path d="M253.5,470.57v20.05l15.29-2.88v-20.05l-15.29,2.88Z" fill="#cddbe0"/><path d="M157.26,463.4v20.05l15.32-2.88v-20.05l-15.32,2.88Z" fill="#cddbe0"/><path d="M125.51,453.91v20.05l-11.93-9.02v-20.05l11.93,9.02Z" fill="#cddbe0"/><path d="M77.85,417.94v20.05l-11.9-9.05v-20.01l11.9,9.02Z" fill="#cddbe0"/><path d="M54.04,399.94v20.05l-11.9-9.02v-20.05l11.9,9.02Z" fill="#cddbe0"/><path d="M30.25,381.98v20.01l-11.93-9.02v-20.05l11.93,9.05Z" fill="#cddbe0"/><path d="M101.68,435.91v20.05l-11.9-9.02v-20.05l11.9,9.02Z" fill="#cddbe0"/><path d="M125.51,428.47v20.05l-11.93-9.02v-20.05l11.93,9.02Z" fill="#cddbe0"/><path d="M77.85,392.5v20.05l-11.9-9.02v-20.05l11.9,9.02Z" fill="#cddbe0"/><path d="M54.04,374.5v20.05l-11.9-9.02v-20.05l11.9,9.02Z" fill="#cddbe0"/><path d="M30.25,356.5v20.05l-11.93-9.02v-20.05l11.93,9.02Z" fill="#cddbe0"/><path d="M101.68,410.47v20.05l-11.9-9.02v-20.05l11.9,9.02Z" fill="#cddbe0"/><path d="M125.51,403.03v20.04l-11.93-9.02v-20.05l11.93,9.02Z" fill="#cddbe0"/><path d="M77.85,367.06v20.05l-11.9-9.02v-20.05l11.9,9.02Z" fill="#cddbe0"/><path d="M54.04,349.06v20.05l-11.9-9.02v-20.05l11.9,9.02Z" fill="#cddbe0"/><path d="M30.25,331.09v20.01l-11.93-9.02v-20.05l11.93,9.05Z" fill="#cddbe0"/><path d="M101.68,385.02v20.05l-11.9-9.02v-20.05l11.9,9.02Z" fill="#cddbe0"/><path d="M125.51,377.58v20.05l-11.93-9.02v-20.05l11.93,9.02Z" fill="#cddbe0"/><path d="M77.85,341.61v20.05l-11.9-9.02v-20.05l11.9,9.02Z" fill="#cddbe0"/><path d="M54.04,323.61v20.05l-11.9-9.02v-20.05l11.9,9.02Z" fill="#cddbe0"/><path d="M30.25,305.65v20.01l-11.93-9.02v-20.01l11.93,9.02Z" fill="#cddbe0"/><path d="M101.68,359.58v20.05l-11.9-9.02v-20.05l11.9,9.02Z" fill="#cddbe0"/><path d="M125.51,352.14v20.05l-11.93-9.02v-20.05l11.93,9.02Z" fill="#cddbe0"/><path d="M77.85,316.17v20.05l-11.9-9.02v-20.05l11.9,9.02Z" fill="#cddbe0"/><path d="M54.04,298.17v20.05l-11.9-9.02v-20.05l11.9,9.02Z" fill="#cddbe0"/><path d="M30.25,280.2v20.05l-11.93-9.02v-20.05l11.93,9.02Z" fill="#cddbe0"/><path d="M101.68,334.17v20.01l-11.9-9.02v-20.05l11.9,9.05Z" fill="#cddbe0"/><path d="M125.51,326.7v20.05l-11.93-9.02v-20.05l11.93,9.02Z" fill="#cddbe0"/><path d="M77.85,290.73v20.05l-11.9-9.02v-20.05l11.9,9.02Z" fill="#cddbe0"/><path d="M54.04,272.73v20.05l-11.9-9.02v-20.05l11.9,9.02Z" fill="#cddbe0"/><path d="M30.25,254.76v20.05l-11.93-9.02v-20.05l11.93,9.02Z" fill="#cddbe0"/><path d="M101.68,308.73v20.01l-11.9-9.02v-20.05l11.9,9.05Z" fill="#cddbe0"/><path d="M125.51,301.26v20.05l-11.93-9.02v-20.05l11.93,9.02Z" fill="#cddbe0"/><path d="M77.85,265.29v20.05l-11.9-9.02v-20.05l11.9,9.02Z" fill="#cddbe0"/><path d="M54.04,247.29v20.05l-11.9-9.02v-20.05l11.9,9.02Z" fill="#cddbe0"/><path d="M30.25,229.32v20.05l-11.93-9.02v-20.05l11.93,9.02Z" fill="#cddbe0"/><path d="M101.68,283.29v20.05l-11.9-9.05v-20.01l11.9,9.02Z" fill="#cddbe0"/><path d="M221.42,451.2v20.05l15.32-2.88v-20.05l-15.32,2.88Z" fill="#cddbe0"/><path d="M189.34,457.3v20.05l15.32-2.88v-20.05l-15.32,2.88Z" fill="#cddbe0"/><path d="M253.5,445.1v20.05l15.29-2.88v-20.05l-15.29,2.88Z" fill="#cddbe0"/><path d="M157.26,437.99v20.01l15.32-2.88v-20.05l-15.32,2.92Z" fill="#cddbe0"/><path d="M221.42,425.79v20.05l15.32-2.92v-20.01l-15.32,2.88Z" fill="#cddbe0"/><path d="M189.34,431.89v20.05l15.32-2.92v-20.01l-15.32,2.88Z" fill="#cddbe0"/><path d="M253.5,419.69v20.01l15.29-2.88v-20.05l-15.29,2.92Z" fill="#cddbe0"/><path d="M157.26,412.55v20.05l15.32-2.88v-20.05l-15.32,2.88Z" fill="#cddbe0"/><path d="M221.42,400.35v20.05l15.32-2.88v-20.05l-15.32,2.88Z" fill="#cddbe0"/><path d="M189.34,406.45v20.05l15.32-2.88v-20.05l-15.32,2.88Z" fill="#cddbe0"/><path d="M253.5,394.24v20.05l15.29-2.88v-20.05l-15.29,2.88Z" fill="#cddbe0"/><path d="M157.26,387.1v20.05l15.32-2.88v-20.05l-15.32,2.88Z" fill="#cddbe0"/><path d="M221.42,374.9v20.05l15.32-2.88v-20.05l-15.32,2.88Z" fill="#cddbe0"/><path d="M189.34,381v20.05l15.32-2.88v-20.05l-15.32,2.88Z" fill="#cddbe0"/><path d="M253.5,368.8v20.05l15.29-2.88v-20.05l-15.29,2.88Z" fill="#cddbe0"/><path d="M157.26,361.69v20.01l15.32-2.88v-20.05l-15.32,2.92Z" fill="#cddbe0"/><path d="M221.42,349.49v20.05l15.32-2.88v-20.05l-15.32,2.88Z" fill="#cddbe0"/><path d="M189.34,355.56v20.05l15.32-2.88v-20.05l-15.32,2.88Z" fill="#cddbe0"/><path d="M253.5,343.36v20.05l15.29-2.88v-20.05l-15.29,2.88Z" fill="#cddbe0"/><path d="M157.26,336.25v20.05l15.32-2.88v-20.05l-15.32,2.88Z" fill="#cddbe0"/><path d="M221.42,324.05v20.05l15.32-2.88v-20.05l-15.32,2.88Z" fill="#cddbe0"/><path d="M189.34,330.15v20.05l15.32-2.88v-20.05l-15.32,2.88Z" fill="#cddbe0"/><path d="M253.5,317.95v20.05l15.29-2.92v-20.01l-15.29,2.88Z" fill="#cddbe0"/><path d="M157.26,310.81v20.05l15.32-2.88v-20.05l-15.32,2.88Z" fill="#cddbe0"/><path d="M221.42,298.61v20.05l15.32-2.88v-20.05l-15.32,2.88Z" fill="#cddbe0"/><path d="M189.34,304.71v20.05l15.32-2.88v-20.04l-15.32,2.88Z" fill="#cddbe0"/><path d="M253.5,292.51v20.05l15.29-2.88v-20.05l-15.29,2.88Z" fill="#cddbe0"/><path d="M157.26,285.3v20.05l15.32-2.88v-20.05l-15.32,2.88Z" fill="#cddbe0"/><path d="M125.51,275.81v20.05l-11.93-9.02v-20.05l11.93,9.02Z" fill="#cddbe0"/><path d="M77.85,239.84v20.05l-11.9-9.02v-20.05l11.9,9.02Z" fill="#cddbe0"/><path d="M54.04,221.84v20.05l-11.9-9.02v-20.05l11.9,9.02Z" fill="#cddbe0"/><path d="M30.25,203.84v20.05l-11.93-9.02v-20.05l11.93,9.02Z" fill="#cddbe0"/><path d="M101.68,257.81v20.05l-11.9-9.02v-20.05l11.9,9.02Z" fill="#cddbe0"/><path d="M125.51,250.37v20.05l-11.93-9.02v-20.05l11.93,9.02Z" fill="#cddbe0"/><path d="M77.85,214.4v20.05l-11.9-9.02v-20.05l11.9,9.02Z" fill="#cddbe0"/><path d="M54.04,196.4v20.05l-11.9-9.02v-20.05l11.9,9.02Z" fill="#cddbe0"/><path d="M30.25,178.43v20.01l-11.93-9.02v-20.01l11.93,9.02Z" fill="#cddbe0"/><path d="M101.68,232.37v20.05l-11.9-9.02v-20.05l11.9,9.02Z" fill="#cddbe0"/><path d="M125.51,224.93v20.05l-11.93-9.02v-20.05l11.93,9.02Z" fill="#cddbe0"/><path d="M77.85,188.96v20.05l-11.9-9.02v-20.05l11.9,9.02Z" fill="#cddbe0"/><path d="M54.04,170.96v20.05l-11.9-9.02v-20.05l11.9,9.02Z" fill="#cddbe0"/><path d="M30.25,152.99v20.05l-11.93-9.05v-20.01l11.93,9.02Z" fill="#cddbe0"/><path d="M101.68,206.93v20.05l-11.9-9.02v-20.05l11.9,9.02Z" fill="#cddbe0"/><path d="M125.51,199.48v20.05l-11.93-9.02v-20.05l11.93,9.02Z" fill="#cddbe0"/><path d="M77.85,163.51v20.05l-11.9-9.02v-20.05l11.9,9.02Z" fill="#cddbe0"/><path d="M54.04,145.51v20.05l-11.9-9.02v-20.05l11.9,9.02Z" fill="#cddbe0"/><path d="M30.25,127.54v20.05l-11.93-9.02v-20.05l11.93,9.02Z" fill="#cddbe0"/><path d="M101.68,181.51v20.01l-11.9-9.02v-20.05l11.9,9.05Z" fill="#cddbe0"/><path d="M125.51,174.04v20.05l-11.93-9.02v-20.05l11.93,9.02Z" fill="#cddbe0"/><path d="M77.85,138.07v20.05l-11.9-9.02v-20.05l11.9,9.02Z" fill="#cddbe0"/><path d="M54.04,120.07v20.05l-11.9-9.02v-20.05l11.9,9.02Z" fill="#cddbe0"/><path d="M30.25,102.1v20.05l-11.93-9.05v-20.01l11.93,9.02Z" fill="#cddbe0"/><path d="M101.68,156.07v20.05l-11.9-9.05v-20.01l11.9,9.02Z" fill="#cddbe0"/><path d="M125.51,148.6v20.05l-11.93-9.02v-20.05l11.93,9.02Z" fill="#cddbe0"/><path d="M77.85,112.63v20.05l-11.9-9.02v-20.05l11.9,9.02Z" fill="#cddbe0"/><path d="M54.04,94.63v20.05l-11.9-9.02v-20.05l11.9,9.02Z" fill="#cddbe0"/><path d="M30.25,76.66v20.05l-11.93-9.02v-20.05l11.93,9.02Z" fill="#cddbe0"/><path d="M101.68,130.63v20.05l-11.9-9.05v-20.01l11.9,9.02Z" fill="#cddbe0"/><path d="M221.42,273.1v20.05l15.32-2.88v-20.05l-15.32,2.88Z" fill="#cddbe0"/><path d="M189.34,279.2v20.05l15.32-2.88v-20.05l-15.32,2.88Z" fill="#cddbe0"/><path d="M253.5,266.99v20.05l15.29-2.88v-20.05l-15.29,2.88Z" fill="#cddbe0"/><path d="M157.26,259.89v20.05l15.32-2.92v-20.05l-15.32,2.92Z" fill="#cddbe0"/><path d="M221.42,247.69v20.05l15.32-2.88v-20.05l-15.32,2.88Z" fill="#cddbe0"/><path d="M189.34,253.79v20.01l15.32-2.88v-20.01l-15.32,2.88Z" fill="#cddbe0"/><path d="M253.5,241.59v20.01l15.29-2.88v-20.05l-15.29,2.92Z" fill="#cddbe0"/><path d="M157.26,234.45v20.05l15.32-2.88v-20.05l-15.32,2.88Z" fill="#cddbe0"/><path d="M221.42,222.24v20.05l15.32-2.88v-20.05l-15.32,2.88Z" fill="#cddbe0"/><path d="M189.34,228.35v20.05l15.32-2.88v-20.05l-15.32,2.88Z" fill="#cddbe0"/><path d="M253.5,216.14v20.05l15.29-2.88v-20.05l-15.29,2.88Z" fill="#cddbe0"/><path d="M157.26,209v20.05l15.32-2.88v-20.05l-15.32,2.88Z" fill="#cddbe0"/><path d="M221.42,196.8v20.05l15.32-2.88v-20.05l-15.32,2.88Z" fill="#cddbe0"/><path d="M189.34,202.9v20.05l15.32-2.88v-20.05l-15.32,2.88Z" fill="#cddbe0"/><path d="M253.5,190.7v20.05l15.29-2.88v-20.05l-15.29,2.88Z" fill="#cddbe0"/><path d="M157.26,183.59v20.01l15.32-2.88v-20.05l-15.32,2.92Z" fill="#cddbe0"/><path d="M221.42,171.39v20.05l15.32-2.92v-20.01l-15.32,2.88Z" fill="#cddbe0"/><path d="M189.34,177.49v20.01l15.32-2.88v-20.05l-15.32,2.92Z" fill="#cddbe0"/><path d="M253.5,165.26v20.05l15.29-2.88v-20.05l-15.29,2.88Z" fill="#cddbe0"/><path d="M157.26,158.15v20.05l15.32-2.88v-20.05l-15.32,2.88Z" fill="#cddbe0"/><path d="M221.42,145.95v20.05l15.32-2.88v-20.05l-15.32,2.88Z" fill="#cddbe0"/><path d="M189.34,152.05v20.05l15.32-2.88v-20.05l-15.32,2.88Z" fill="#cddbe0"/><path d="M253.5,139.85v20.05l15.29-2.88v-20.05l-15.29,2.88Z" fill="#cddbe0"/></g><g id="floors"><path id="floor1" d="M141.37,643.17l.35,.27,.44-.08,139.97-26.66v23.41l-139.91,26.65L3.69,562.09v-22.94l137.68,104.01Z" fill="rgba(206,146,112,.4)" stroke="#ce9270" stroke-width="2"/><path id="floor2" d="M141.37,617.73l.35,.27,.44-.08,139.97-26.62v23.37l-139.91,26.65L3.69,536.65v-22.94l137.68,104.01Z" fill="rgba(206,146,112,.4)" stroke="#ce9270" stroke-width="2"/><path id="floor3" d="M141.37,592.28l.35,.27,.44-.08,139.97-26.62v23.41l-139.91,26.61L3.69,511.21v-22.94l137.68,104.01Z" fill="rgba(206,146,112,.4)" stroke="#ce9270" stroke-width="2"/><path id="floor4" d="M141.37,566.84l.35,.27,.44-.08,139.97-26.62v23.41l-139.91,26.61L3.69,485.76v-22.94l137.68,104.01Z" fill="rgba(206,146,112,.4)" stroke="#ce9270" stroke-width="2"/><path id="floor5" d="M141.37,541.4l.35,.27,.44-.08,139.97-26.62v23.41l-139.91,26.61L3.69,460.32v-22.94l137.68,104.01Z" fill="rgba(206,146,112,.4)" stroke="#ce9270" stroke-width="2"/><path id="floor6" d="M141.37,515.96l.35,.27,.44-.08,139.97-26.62v23.41l-139.91,26.61L3.69,434.88v-22.94l137.68,104.01Z" fill="rgba(206,146,112,.4)" stroke="#ce9270" stroke-width="2"/><path id="floor7" d="M141.37,490.51l.35,.27,.44-.08,139.97-26.62v23.41l-139.91,26.61L3.69,409.43v-22.9l137.68,103.98Z" fill="rgba(206,146,112,.4)" stroke="#ce9270" stroke-width="2"/><path id="floor8" d="M141.37,465.07l.35,.27,.44-.08,139.97-26.62v23.41l-139.91,26.61L3.69,384.02v-22.94l137.68,103.98Z" fill="rgba(206,146,112,.4)" stroke="#ce9270" stroke-width="2"/><path id="floor9" d="M141.37,439.63l.35,.27,.44-.08,139.97-26.62v23.41l-139.91,26.61L3.69,358.58v-22.94l137.68,103.98Z" fill="rgba(206,146,112,.4)" stroke="#ce9270" stroke-width="2"/><path id="floor10" d="M141.37,414.18l.35,.27,.44-.08,139.97-26.62v23.41l-139.91,26.61L3.69,333.14v-22.94l137.68,103.98Z" fill="rgba(206,146,112,.4)" stroke="#ce9270" stroke-width="2"/><path id="floor11" d="M141.37,387.65l.35,.27,.44-.08,142.45-26.66v23.41l-142.39,26.62L1.94,308.32v-26.41l139.42,105.75Z" fill="rgba(206,146,112,.4)" stroke="#ce9270" stroke-width="2"/><path id="floor12" d="M141.37,363.33l.35,.27,.44-.08,139.97-26.66v23.41l-139.91,26.65L3.69,282.25v-22.94l137.68,104.01Z" fill="rgba(206,146,112,.4)" stroke="#ce9270" stroke-width="2"/><path id="floor13" d="M141.37,337.89l.35,.27,.44-.08,139.97-26.66v23.41l-139.91,26.65L3.69,256.81v-22.94l137.68,104.01Z" fill="rgba(206,146,112,.4)" stroke="#ce9270" stroke-width="2"/><path id="floor14" d="M141.37,312.44l.35,.27,.44-.08,139.97-26.62v23.37l-139.91,26.65L3.69,231.37v-22.94l137.68,104.01Z" fill="rgba(206,146,112,.4)" stroke="#ce9270" stroke-width="2"/><path id="floor15" d="M141.37,287l.35,.27,.44-.08,139.97-26.62v23.41l-139.91,26.61L3.69,205.92v-22.94l137.68,104.01Z" fill="rgba(206,146,112,.4)" stroke="#ce9270" stroke-width="2"/><path id="floor16" d="M141.37,261.56l.35,.27,.44-.08,139.97-26.63v23.41l-139.91,26.61L3.69,180.48v-22.94l137.68,104.01Z" fill="rgba(206,146,112,.4)" stroke="#ce9270" stroke-width="2"/><path id="floor17" d="M141.37,236.12l.35,.27,.44-.08,139.97-26.62v23.41l-139.91,26.61L3.69,155.04v-22.94l137.68,104.01Z" fill="rgba(206,146,112,.4)" stroke="#ce9270" stroke-width="2"/><path id="floor18" d="M141.37,210.67l.35,.27,.44-.08,139.97-26.62v23.41l-139.91,26.61L3.69,129.6v-22.94l137.68,104.01Z" fill="rgba(206,146,112,.4)" stroke="#ce9270" stroke-width="2"/><path id="floor19" d="M141.37,185.23l.35,.27,.44-.08,139.97-26.62v23.41l-139.91,26.61L3.69,104.15v-22.9l137.68,103.98Z" fill="rgba(206,146,112,.4)" stroke="#ce9270" stroke-width="2"/><path id="floor20" d="M141.37,159.79l.35,.27,.44-.08,139.97-26.62v23.41l-139.91,26.61L3.69,78.74v-22.94l137.68,103.98Z" fill="rgba(206,146,112,.4)" stroke="#ce9270" stroke-width="2"/></g></svg>