<svg width="670" height="520" viewBox="0 0 670 520" fill="none" xmlns="http://www.w3.org/2000/svg">
<g id="map" clip-path="url(#clip0_4_611)">
<g id="&#208;&#180;&#208;&#190;&#209;&#128;&#208;&#190;&#208;&#179;&#208;&#184;">
<path id="Vector 87" d="M251.201 248.926V248.926C245.336 238.409 245.039 225.674 250.408 214.894L358.5 -2.12549" stroke="#708F9B"/>
<path id="Vector 88" d="M236.671 249.394C227.142 267.601 205.365 309.526 198.242 322.224C189.337 338.098 157.468 384.784 145.752 396.456C143.175 399.023 135.19 406.953 124.194 417.871M27 513.894C41.6282 499.383 54.3048 487.233 75.4535 466.246M124.194 417.871C110.928 431.04 93.2799 448.556 75.4535 466.246M124.194 417.871C118 411.701 78.5184 448.404 75.4535 454.347C73 459.104 74.2037 464.77 75.4535 466.246M124.194 417.871C130.388 424.041 91 466.246 85.2953 468.82C81.2941 470.625 76.0783 467.26 75.4535 466.246" stroke="#708F9B"/>
<path id="Vector 90" d="M593.789 306.351C599.788 309.339 645.534 342.3 656 349.77M593.789 306.351C591.154 305.039 549.709 285.597 495.348 260.132M593.789 306.351L602.903 292.345M593.789 306.351L574.105 335.297L581.604 339.965L574.105 349.77C573.282 350.844 572.306 352.124 571.257 353.505M469.432 247.993C465.269 256.552 456.754 274.511 456.004 277.872C455.254 281.234 455.066 287.365 455.066 290.011M469.432 247.993C472.481 249.421 475.505 250.837 478.499 252.239M469.432 247.993C464.699 245.776 459.906 243.532 455.066 241.266M455.066 290.011C457.254 288.299 462.19 283.848 464.44 279.74C466.689 275.632 474.75 259.694 478.499 252.239M455.066 290.011L445.693 309.101M433.977 332.963L441.312 318.023M478.499 252.239C484.23 254.923 489.855 257.558 495.348 260.132M317.75 78.9882L367.428 102.259M641.266 229.485L563.326 194.026M450.38 141.117L413.356 221.737M450.38 141.117L492.559 160.876M450.38 141.117L439.601 136.068M413.356 221.737C392.32 211.89 371.185 201.998 351.025 192.563M413.356 221.737C416.171 223.055 418.983 224.372 421.792 225.686C433.007 230.937 444.153 236.156 455.066 241.266M492.559 160.876L455.066 241.266M492.559 160.876L533.332 179.975M492.559 160.876L507.556 136.068L451.972 107.934M425.072 129.262C424.291 132.604 422.354 139.652 420.855 141.117C418.98 142.949 368.365 159.289 365.553 163.024C363.304 166.012 354.93 183.962 351.025 192.563M425.072 129.262L367.428 102.259M425.072 129.262L439.601 136.068M351.025 192.563C343.692 189.132 336.489 185.761 329.466 182.475M351.025 192.563L337.434 219.048L364.147 232.863M329.466 182.475C310.656 173.673 293.141 165.478 277.914 158.355C273.551 156.315 266.337 153.052 260.105 150.484M329.466 182.475L367.428 102.259M367.428 102.259C368.677 100.105 371.271 95.1417 371.646 92.5273C372.114 89.2592 373.052 85.5243 371.646 83.6568C370.521 82.1629 365.241 79.9219 362.741 78.9882M362.741 78.9882L359.461 85.5243M362.741 78.9882L366.49 70.5846L372.5 73.0858M420.855 49.6757C431 51.668 453.782 57.0625 462.5 61.1317C470 64.6323 470.532 67.4722 470.532 69.184M470.532 69.184C471.626 68.2503 474.469 66.3829 477.093 66.3829C494.434 66.3829 594.258 82.2563 632.219 92.0604M470.532 69.184C468.774 72.8668 466.477 77.6746 464.063 82.7231M439.601 136.068C442.569 129.024 448.88 114.19 450.38 111.202C450.63 110.703 451.188 109.557 451.972 107.934M533.332 179.975L495.348 260.132M533.332 179.975L563.326 194.026M472.407 350.703C473.813 346.19 477.281 335.95 479.905 331.095C480.74 329.551 481.726 327.977 482.779 326.426M482.779 326.426C485.865 321.882 489.525 317.54 491.622 314.755C493.871 311.767 495.683 304.484 496.308 301.216L431.165 267.524M482.779 326.426L445.693 309.101M445.693 309.101L441.312 318.023M431.165 267.524L411.481 302.149L441.312 318.023M431.165 267.524L364.147 232.863M329.466 291.878C326.03 299.037 318.594 314.008 316.344 316.622C313.532 319.89 288.693 350.703 276.508 354.905C271.121 356.763 247.447 360.893 221.675 365.057M163.562 374.047C178.586 371.819 200.818 368.427 221.675 365.057M221.675 365.057C222.144 403.068 224.394 476.85 225.893 482.826C227.768 490.296 237.61 500.1 239.484 501.034C240.984 501.781 252.533 507.263 258 509.909M364.147 232.863C357.898 248.178 345.12 279.086 343.995 280.207C342.87 281.327 337.902 285.031 335.559 286.743M660.502 196.612L619.613 266.668M602.903 292.345C588.93 280.051 559.952 254.996 555.828 253.129C550.672 250.794 537.081 247.993 537.081 243.325C537.081 240.575 546.567 223.213 555.061 208.31M602.903 292.345L619.613 266.668M563.326 194.026L632.687 115.404M563.326 194.026C561.019 197.949 558.104 202.972 555.061 208.31M451.972 107.934C454.533 102.634 459.507 92.25 464.063 82.7231M251.201 212.511C235.891 206.753 204.991 194.117 203.867 189.635C202.461 184.033 211.365 168.159 215.114 164.891M215.114 164.891L246.983 180.298M215.114 164.891C216.585 163.609 221.302 160.387 226.831 157.001M260.105 150.484C255.403 148.546 251.261 147.005 249.326 146.684C245.909 146.116 235.395 151.755 226.831 157.001M260.105 150.484L251.915 169.093M246.983 180.298L263.386 188.235M246.983 180.298L251.915 169.093M251.915 169.093L226.831 157.001M171.061 363.776C170.904 352.726 169.561 327.827 165.437 320.357C162.186 314.47 141.452 285.966 125.164 263.867M113.416 247.993L128.881 207.376M113.416 247.993L2.81277 306.987M113.416 247.993C116.726 252.445 120.784 257.924 125.164 263.867M0.501953 308.183L2.81277 306.987M75.0003 465.579L29.1264 365.176M2.81277 306.987L29.1264 365.176M125.164 263.867L117.176 290.478M91.3889 376.381C102.793 379.026 126.444 384.878 129.819 387.119C133.193 389.36 139.661 396.456 142.472 399.724M91.3889 376.381C74.0486 370.934 38.5244 360.321 35.1501 361.441M91.3889 376.381L117.176 290.478M35.1501 361.441C31.7758 362.562 29.7283 364.398 29.1264 365.176M35.1501 361.441C36.5561 358.484 39.2743 351.73 38.8993 348.369C38.5244 345.008 37.8058 341.366 37.4934 339.965C41.8675 338.254 52.2092 335.203 58.5829 336.697C63.4107 337.829 104.394 349.032 138.723 358.458M169 366.958C160.778 364.693 149.716 361.476 138.723 358.458M11.7173 169.093L30.9322 112.602L4.00195 102.473M117.176 290.478C125.608 302.461 142.472 328.2 142.472 335.297C142.472 342.393 139.973 353.694 138.723 358.458M302.284 422.6L331.575 423.067M360.866 423.534L331.575 423.067M373.52 313.354C372.427 313.821 370.24 315.408 370.24 318.023C370.24 321.291 373.52 322.225 373.52 332.963C373.52 337.336 368.014 373.109 361.207 415.598M344.5 516.384L349.141 489.829M361.207 415.598H332.683M361.207 415.598C357.348 439.683 353.071 465.925 349.141 489.829M304.159 415.598H332.683M332.683 415.598L331.575 423.067M545.049 395.055C540.675 399.88 531.364 410.275 529.114 413.263C526.302 416.998 523.022 423.067 521.147 423.534M525.5 384.391C521.907 391.705 513.93 408.781 513.18 411.396C512.43 414.01 512.867 416.531 513.18 417.465M512 427.724C510.5 429.717 507.413 433.629 506.5 435.196C505.169 437.48 497.714 451.079 494.434 456.215C491.809 460.323 459.597 489.051 443.819 502.901C434.446 499.166 414.636 492.261 411.013 491.23C407.732 490.296 404.611 490.071 402.577 491.23C399.296 493.097 398.984 497.454 398.359 500.567L349.141 489.829M590.508 387.119C588.265 385.5 559.68 370.004 560.046 368.911C560.352 367.994 566.537 359.721 571.257 353.505M571.257 353.505C562.677 348.369 544.955 337.911 542.705 337.164C540.456 336.417 538.019 334.986 537.081 334.363M555.061 208.31C561.722 213.29 575.699 223.903 578.323 226.517C580.948 229.132 606.944 254.374 619.613 266.668M464.063 82.7231C496.777 86.9249 553.016 92.5273 588.634 96.7291C594.258 97.3925 598.475 99.0634 602.225 101.398L667.502 95.0017M142.941 130.81C147.628 128.631 157.844 124.274 161.219 124.274C165.437 124.274 164.968 126.142 170.592 124.274C176.216 122.407 189.807 114.003 192.619 114.47C193.064 114.544 193.709 114.887 194.493 115.404M194.493 115.404C198.667 118.156 206.803 125.846 209.959 124.274C212.958 122.78 216.833 114.937 218.395 111.202C218.395 111.202 220.502 104.44 220.502 99.9825C220.502 91.515 217.002 87.0323 212.302 85.9912C207.603 84.9501 205.179 86.7382 202.929 89.7261C200.117 93.461 201.992 105.133 201.523 107.467C201.148 109.334 196.68 113.537 194.493 115.404Z" stroke="#708F9B"/>
<path id="Vector 89" d="M354.773 305.417L306.501 409.061M306.501 409.061C301.815 422.912 290.848 453.88 284.474 466.953C278.828 478.533 267.902 504.04 260 517.878M306.501 409.061C298.534 421.2 281.194 448.652 275.57 461.35C269.946 474.049 260.843 501.476 256 516.882" stroke="#708F9B"/>
<path id="Ellipse 12" d="M521.583 422.6C521.583 425.932 518.871 428.636 515.522 428.636C512.173 428.636 509.461 425.932 509.461 422.6C509.461 419.268 512.173 416.564 515.522 416.564C518.871 416.564 521.583 419.268 521.583 422.6Z" stroke="#708F9B"/>
<path id="Vector 85" d="M633.157 455.633C618.472 441.885 581.63 407.229 545.987 389.083C472.842 351.846 301.439 272.119 199.946 227.243C189.159 222.473 180.475 214.019 175.446 203.351L86.7031 15.0952" stroke="#708F9B" stroke-width="3"/>
<path id="Vector 86" d="M639.249 471.567C624.564 457.82 581.16 414.259 545.518 396.113C468.189 356.746 281.039 269.888 182.777 226.928L2.5 166.376" stroke="#708F9B" stroke-width="3"/>
</g>
<g id="&#208;&#191;&#208;&#176;&#209;&#128;&#208;&#186;-&#209;&#136;&#209;&#130;&#209;&#128;&#208;&#184;&#209;&#133;">
<mask id="mask0_4_611" style="mask-type:alpha" maskUnits="userSpaceOnUse" x="221" y="355" width="69" height="148">
<path id="Vector 91" d="M279.317 355.341L221.672 367.058C222.765 404.55 225.14 480.66 225.89 485.159C226.64 489.658 235.263 498.594 239.481 502.5L248.385 485.159L261.508 490.783L276.505 460.32C268.538 457.352 254.103 448.698 260.102 437.825C266.101 426.952 281.035 435.794 287.752 441.574L289.627 437.825L279.317 355.341Z" fill="#D9D9D9"/>
</mask>
<g mask="url(#mask0_4_611)">
<g id="&#209;&#136;&#209;&#130;&#209;&#128;&#208;&#184;&#209;&#133;">
<line id="Line 21" x1="138.369" y1="438.336" x2="270.925" y2="305.78" stroke="#708F9B"/>
<line id="Line 22" x1="141.678" y1="441.65" x2="274.234" y2="309.094" stroke="#708F9B"/>
<line id="Line 23" x1="144.99" y1="444.965" x2="277.546" y2="312.409" stroke="#708F9B"/>
<line id="Line 24" x1="148.307" y1="448.28" x2="280.863" y2="315.724" stroke="#708F9B"/>
<line id="Line 25" x1="151.619" y1="451.595" x2="284.175" y2="319.039" stroke="#708F9B"/>
<line id="Line 26" x1="154.932" y1="454.907" x2="287.488" y2="322.351" stroke="#708F9B"/>
<line id="Line 27" x1="158.252" y1="458.22" x2="290.808" y2="325.664" stroke="#708F9B"/>
<line id="Line 28" x1="161.568" y1="461.535" x2="294.124" y2="328.978" stroke="#708F9B"/>
<line id="Line 29" x1="164.881" y1="464.847" x2="297.437" y2="332.291" stroke="#708F9B"/>
<line id="Line 30" x1="168.193" y1="468.16" x2="300.749" y2="335.603" stroke="#708F9B"/>
<line id="Line 31" x1="171.506" y1="471.475" x2="304.062" y2="338.919" stroke="#708F9B"/>
<line id="Line 32" x1="174.818" y1="474.79" x2="307.374" y2="342.234" stroke="#708F9B"/>
<line id="Line 33" x1="178.131" y1="478.105" x2="310.687" y2="345.549" stroke="#708F9B"/>
<line id="Line 34" x1="181.443" y1="481.417" x2="313.999" y2="348.861" stroke="#708F9B"/>
<line id="Line 35" x1="184.76" y1="484.732" x2="317.316" y2="352.176" stroke="#708F9B"/>
<line id="Line 36" x1="188.072" y1="488.046" x2="320.628" y2="355.49" stroke="#708F9B"/>
<line id="Line 37" x1="191.393" y1="491.359" x2="323.949" y2="358.803" stroke="#708F9B"/>
<line id="Line 38" x1="194.705" y1="494.674" x2="327.261" y2="362.118" stroke="#708F9B"/>
<line id="Line 39" x1="198.021" y1="497.988" x2="330.578" y2="365.432" stroke="#708F9B"/>
<line id="Line 40" x1="201.334" y1="501.301" x2="333.89" y2="368.745" stroke="#708F9B"/>
<line id="Line 41" x1="204.643" y1="504.616" x2="337.199" y2="372.06" stroke="#708F9B"/>
<line id="Line 42" x1="207.959" y1="507.929" x2="340.515" y2="375.373" stroke="#708F9B"/>
<line id="Line 43" x1="211.271" y1="511.245" x2="343.828" y2="378.688" stroke="#708F9B"/>
<line id="Line 44" x1="214.584" y1="514.558" x2="347.14" y2="382.002" stroke="#708F9B"/>
<line id="Line 45" x1="217.896" y1="517.872" x2="350.453" y2="385.315" stroke="#708F9B"/>
<line id="Line 46" x1="221.209" y1="521.186" x2="353.765" y2="388.63" stroke="#708F9B"/>
<line id="Line 47" x1="224.533" y1="524.498" x2="357.089" y2="391.941" stroke="#708F9B"/>
<line id="Line 48" x1="227.846" y1="527.811" x2="360.402" y2="395.255" stroke="#708F9B"/>
<line id="Line 49" x1="231.158" y1="531.126" x2="363.714" y2="398.57" stroke="#708F9B"/>
<line id="Line 50" x1="234.471" y1="534.44" x2="367.027" y2="401.884" stroke="#708F9B"/>
<line id="Line 51" x1="237.783" y1="537.753" x2="370.339" y2="405.197" stroke="#708F9B"/>
<line id="Line 52" x1="241.096" y1="541.067" x2="373.652" y2="408.511" stroke="#708F9B"/>
<line id="Line 53" x1="244.408" y1="544.38" x2="376.964" y2="411.824" stroke="#708F9B"/>
<line id="Line 54" x1="247.725" y1="547.697" x2="380.281" y2="415.141" stroke="#708F9B"/>
<line id="Line 55" x1="251.037" y1="551.01" x2="383.593" y2="418.454" stroke="#708F9B"/>
<line id="Line 56" x1="254.35" y1="554.324" x2="386.906" y2="421.768" stroke="#708F9B"/>
<line id="Line 57" x1="257.662" y1="557.637" x2="390.218" y2="425.081" stroke="#708F9B"/>
</g>
</g>
</g>
<g id="&#208;&#191;&#208;&#176;&#209;&#128;&#208;&#186;-&#209;&#136;&#209;&#130;&#209;&#128;&#208;&#184;&#209;&#133; 2">
<mask id="mask1_4_611" style="mask-type:alpha" maskUnits="userSpaceOnUse" x="361" y="325" width="72" height="131">
<path id="Vector 92" d="M432.099 351.592L372.58 325.347L373.986 334.252L361.801 415.798C374.455 417.36 400.324 421.234 402.574 424.234C404.823 427.233 400.387 445.167 397.887 453.759L406.792 455.165L432.099 351.592Z" fill="#D9D9D9"/>
</mask>
<g mask="url(#mask1_4_611)">
<g id="&#209;&#136;&#209;&#130;&#209;&#128;&#208;&#184;&#209;&#133;_2">
<line id="Line 21_2" x1="256.471" y1="433.649" x2="389.027" y2="301.093" stroke="#708F9B"/>
<line id="Line 22_2" x1="259.779" y1="436.962" x2="392.335" y2="304.406" stroke="#708F9B"/>
<line id="Line 23_2" x1="263.092" y1="440.278" x2="395.648" y2="307.722" stroke="#708F9B"/>
<line id="Line 24_2" x1="266.408" y1="443.592" x2="398.964" y2="311.036" stroke="#708F9B"/>
<line id="Line 25_2" x1="269.721" y1="446.908" x2="402.277" y2="314.352" stroke="#708F9B"/>
<line id="Line 26_2" x1="273.033" y1="450.219" x2="405.589" y2="317.663" stroke="#708F9B"/>
<line id="Line 27_2" x1="276.353" y1="453.533" x2="408.91" y2="320.977" stroke="#708F9B"/>
<line id="Line 28_2" x1="279.67" y1="456.847" x2="412.226" y2="324.291" stroke="#708F9B"/>
<line id="Line 29_2" x1="282.982" y1="460.16" x2="415.539" y2="327.603" stroke="#708F9B"/>
<line id="Line 30_2" x1="286.295" y1="463.472" x2="418.851" y2="330.916" stroke="#708F9B"/>
<line id="Line 31_2" x1="289.607" y1="466.788" x2="422.164" y2="334.231" stroke="#708F9B"/>
<line id="Line 32_2" x1="292.92" y1="470.103" x2="425.476" y2="337.547" stroke="#708F9B"/>
<line id="Line 33_2" x1="296.232" y1="473.417" x2="428.789" y2="340.861" stroke="#708F9B"/>
<line id="Line 34_2" x1="299.545" y1="476.73" x2="432.101" y2="344.174" stroke="#708F9B"/>
<line id="Line 35_2" x1="302.861" y1="480.044" x2="435.417" y2="347.488" stroke="#708F9B"/>
<line id="Line 36_2" x1="306.174" y1="483.359" x2="438.73" y2="350.803" stroke="#708F9B"/>
<line id="Line 37_2" x1="309.494" y1="486.671" x2="442.05" y2="354.115" stroke="#708F9B"/>
<line id="Line 38_2" x1="312.807" y1="489.987" x2="445.363" y2="357.431" stroke="#708F9B"/>
<line id="Line 39_2" x1="316.123" y1="493.3" x2="448.679" y2="360.744" stroke="#708F9B"/>
<line id="Line 40_2" x1="319.436" y1="496.614" x2="451.992" y2="364.058" stroke="#708F9B"/>
<line id="Line 41_2" x1="322.744" y1="499.928" x2="455.3" y2="367.372" stroke="#708F9B"/>
<line id="Line 42_2" x1="326.061" y1="503.242" x2="458.617" y2="370.686" stroke="#708F9B"/>
<line id="Line 43_2" x1="329.373" y1="506.557" x2="461.929" y2="374.001" stroke="#708F9B"/>
<line id="Line 44_2" x1="332.686" y1="509.871" x2="465.242" y2="377.314" stroke="#708F9B"/>
<line id="Line 45_2" x1="335.998" y1="513.184" x2="468.554" y2="380.628" stroke="#708F9B"/>
<line id="Line 46_2" x1="339.311" y1="516.498" x2="471.867" y2="383.942" stroke="#708F9B"/>
<line id="Line 47_2" x1="342.635" y1="519.81" x2="475.191" y2="387.254" stroke="#708F9B"/>
<line id="Line 48_2" x1="345.947" y1="523.123" x2="478.503" y2="390.567" stroke="#708F9B"/>
<line id="Line 49_2" x1="349.26" y1="526.439" x2="481.816" y2="393.883" stroke="#708F9B"/>
<line id="Line 50_2" x1="352.572" y1="529.752" x2="485.128" y2="397.196" stroke="#708F9B"/>
<line id="Line 51_2" x1="355.885" y1="533.066" x2="488.441" y2="400.51" stroke="#708F9B"/>
<line id="Line 52_2" x1="359.197" y1="536.379" x2="491.753" y2="403.823" stroke="#708F9B"/>
<line id="Line 53_2" x1="362.51" y1="539.693" x2="495.066" y2="407.137" stroke="#708F9B"/>
<line id="Line 54_2" x1="365.826" y1="543.009" x2="498.382" y2="410.453" stroke="#708F9B"/>
<line id="Line 55_2" x1="369.139" y1="546.323" x2="501.695" y2="413.767" stroke="#708F9B"/>
<line id="Line 56_2" x1="372.451" y1="549.636" x2="505.007" y2="417.08" stroke="#708F9B"/>
<line id="Line 57_2" x1="375.764" y1="552.95" x2="508.32" y2="420.394" stroke="#708F9B"/>
</g>
</g>
</g>
<g id="&#208;&#191;&#208;&#176;&#209;&#128;&#208;&#186;-&#209;&#136;&#209;&#130;&#209;&#128;&#208;&#184;&#209;&#133; 3">
<mask id="mask2_4_611" style="mask-type:alpha" maskUnits="userSpaceOnUse" x="265" y="290" width="26" height="42">
<path id="Vector 93" d="M265.262 313.161L276.509 290.197C277.291 292.228 279.134 296.664 280.259 298.164C281.665 300.039 285.883 293.946 288.695 296.289C290.944 298.164 290.569 307.068 290.101 311.286L273.698 331.907L265.262 313.161Z" fill="#D9D9D9"/>
</mask>
<g mask="url(#mask2_4_611)">
<g id="&#209;&#136;&#209;&#130;&#209;&#128;&#208;&#184;&#209;&#133;_3">
<line id="Line 21_3" x1="157.123" y1="368.038" x2="289.679" y2="235.481" stroke="#708F9B"/>
<line id="Line 22_3" x1="160.432" y1="371.351" x2="292.988" y2="238.795" stroke="#708F9B"/>
<line id="Line 23_3" x1="163.744" y1="374.666" x2="296.3" y2="242.11" stroke="#708F9B"/>
<line id="Line 24_3" x1="167.061" y1="377.981" x2="299.617" y2="245.425" stroke="#708F9B"/>
<line id="Line 25_3" x1="170.373" y1="381.296" x2="302.929" y2="248.74" stroke="#708F9B"/>
<line id="Line 26_3" x1="173.686" y1="384.608" x2="306.242" y2="252.052" stroke="#708F9B"/>
<line id="Line 27_3" x1="177.006" y1="387.921" x2="309.562" y2="255.365" stroke="#708F9B"/>
<line id="Line 28_3" x1="180.322" y1="391.236" x2="312.878" y2="258.68" stroke="#708F9B"/>
<line id="Line 29_3" x1="183.635" y1="394.548" x2="316.191" y2="261.992" stroke="#708F9B"/>
<line id="Line 30_3" x1="186.947" y1="397.861" x2="319.503" y2="265.305" stroke="#708F9B"/>
<line id="Line 31_3" x1="190.26" y1="401.176" x2="322.816" y2="268.62" stroke="#708F9B"/>
<line id="Line 32_3" x1="193.572" y1="404.492" x2="326.128" y2="271.936" stroke="#708F9B"/>
<line id="Line 33_3" x1="196.885" y1="407.806" x2="329.441" y2="275.25" stroke="#708F9B"/>
<line id="Line 34_3" x1="200.197" y1="411.119" x2="332.753" y2="278.562" stroke="#708F9B"/>
<line id="Line 35_3" x1="203.514" y1="414.433" x2="336.07" y2="281.877" stroke="#708F9B"/>
<line id="Line 36_3" x1="206.826" y1="417.748" x2="339.382" y2="285.191" stroke="#708F9B"/>
<line id="Line 37_3" x1="210.146" y1="421.06" x2="342.703" y2="288.504" stroke="#708F9B"/>
<line id="Line 38_3" x1="213.459" y1="424.375" x2="346.015" y2="291.819" stroke="#708F9B"/>
<line id="Line 39_3" x1="216.775" y1="427.689" x2="349.331" y2="295.133" stroke="#708F9B"/>
<line id="Line 40_3" x1="220.088" y1="431.002" x2="352.644" y2="298.446" stroke="#708F9B"/>
<line id="Line 41_3" x1="223.396" y1="434.317" x2="355.953" y2="301.761" stroke="#708F9B"/>
<line id="Line 42_3" x1="226.713" y1="437.63" x2="359.269" y2="305.074" stroke="#708F9B"/>
<line id="Line 43_3" x1="230.025" y1="440.946" x2="362.581" y2="308.39" stroke="#708F9B"/>
<line id="Line 44_3" x1="233.338" y1="444.259" x2="365.894" y2="311.703" stroke="#708F9B"/>
<line id="Line 45_3" x1="236.65" y1="447.573" x2="369.206" y2="315.017" stroke="#708F9B"/>
<line id="Line 46_3" x1="239.963" y1="450.887" x2="372.519" y2="318.331" stroke="#708F9B"/>
<line id="Line 47_3" x1="243.287" y1="454.199" x2="375.843" y2="321.643" stroke="#708F9B"/>
<line id="Line 48_3" x1="246.6" y1="457.512" x2="379.156" y2="324.956" stroke="#708F9B"/>
<line id="Line 49_3" x1="249.912" y1="460.828" x2="382.468" y2="328.271" stroke="#708F9B"/>
<line id="Line 50_3" x1="253.225" y1="464.141" x2="385.781" y2="331.585" stroke="#708F9B"/>
</g>
</g>
</g>
<g id="&#208;&#178;&#208;&#190;&#208;&#180;&#208;&#176;-&#209;&#136;&#209;&#130;&#209;&#128;&#208;&#184;&#209;&#133;">
<mask id="mask3_4_611" style="mask-type:alpha" maskUnits="userSpaceOnUse" x="472" y="214" width="32" height="33">
<path id="Vector 94" d="M473.963 223.861C477.713 217.487 483.961 214.956 486.617 214.488C491.616 214.019 501.988 214.019 503.488 217.768C505.362 222.455 496.458 225.736 491.771 230.422C487.085 235.109 493.647 243.544 484.742 245.888C475.838 248.231 469.277 231.828 473.963 223.861Z" fill="#D9D9D9"/>
</mask>
<g mask="url(#mask3_4_611)">
<g id="&#209;&#136;&#209;&#130;&#209;&#128;&#208;&#184;&#209;&#133;_4">
<line id="Line 33_4" x1="375.254" y1="215.042" x2="562.717" y2="215.042" stroke="#708F9B"/>
<line id="Line 34_4" x1="375.254" y1="219.727" x2="562.717" y2="219.727" stroke="#708F9B"/>
<line id="Line 35_4" x1="375.254" y1="224.414" x2="562.717" y2="224.414" stroke="#708F9B"/>
<line id="Line 36_4" x1="375.254" y1="229.1" x2="562.717" y2="229.1" stroke="#708F9B"/>
<line id="Line 37_4" x1="375.258" y1="233.789" x2="562.721" y2="233.789" stroke="#708F9B"/>
<line id="Line 38_4" x1="375.258" y1="238.475" x2="562.721" y2="238.475" stroke="#708F9B"/>
<line id="Line 39_4" x1="375.258" y1="243.162" x2="562.721" y2="243.162" stroke="#708F9B"/>
</g>
</g>
</g>
<g id="&#209;&#131;&#208;&#187;&#208;&#184;&#209;&#134;&#209;&#139;">
<path id="&#209;&#131;&#208;&#187;. &#208;&#144;&#208;&#187;&#208;&#176;&#208;&#177;&#209;&#143;&#208;&#189;&#208;&#176;" d="M183.025 324.692L182.405 325.762L188.162 326.314L188.231 326.401C188.656 326.943 188.644 327.293 188.453 327.623C188.266 327.944 188.048 328.116 188.048 328.116L188.96 328.64C188.96 328.64 189.225 328.388 189.416 328.058C189.928 327.175 189.522 326.251 188.836 325.358L185.3 320.767L184.674 321.846L187.243 325.084L187.217 325.128L183.025 324.692ZM188.296 321.457C188.768 321.836 189.162 322.205 188.913 322.633C188.831 322.776 188.703 322.893 188.703 322.893L189.615 323.417C189.615 323.417 189.83 323.232 189.985 322.964C190.445 322.17 190.127 321.464 188.875 320.458L187.371 319.249L188.343 317.572L191.829 319.576L192.408 318.577L188.029 316.058L185.976 319.6L188.296 321.457ZM192.538 317.222C192.904 317.433 193.264 317.307 193.481 316.932C193.698 316.557 193.628 316.184 193.262 315.974C192.895 315.763 192.536 315.889 192.319 316.264C192.102 316.639 192.171 317.012 192.538 317.222ZM191.301 306.095L190.468 307.531L195.256 313.663L195.928 312.503L194.976 311.289L196.821 308.105L198.353 308.32L199.025 307.16L191.301 306.095ZM195.628 307.942L194.238 310.342L191.944 307.452L191.97 307.408L195.628 307.942ZM197.742 305.158C198.214 305.537 198.608 305.906 198.36 306.334C198.277 306.477 198.15 306.594 198.15 306.594L199.061 307.118C199.061 307.118 199.276 306.933 199.431 306.665C199.891 305.871 199.574 305.165 198.321 304.159L196.818 302.95L197.79 301.272L201.275 303.277L201.855 302.278L197.475 299.759L195.423 303.301L197.742 305.158ZM201.294 300.407C202.224 300.942 203.124 300.294 203.718 299.268C204.452 298.001 204.123 297.253 204.123 297.253L204.154 297.2C204.154 297.2 204.825 297.359 205.295 296.547C205.481 296.226 205.489 296.028 205.489 296.028L204.631 295.535C204.631 295.535 204.634 295.632 204.546 295.784C204.401 296.033 204.207 296.04 203.804 295.809L202.348 294.971C201.221 294.323 200.168 294.907 199.439 296.165C198.736 297.378 198.631 298.567 199.658 299.181L200.257 298.146C199.819 297.894 199.879 297.298 200.261 296.638C200.763 295.772 201.348 295.729 201.769 295.97L202.403 296.335C202.403 296.335 201.683 296.611 201.104 297.61C200.484 298.681 200.329 299.852 201.294 300.407ZM203.118 298.412C202.746 299.054 202.296 299.604 201.858 299.352C201.438 299.11 201.691 298.447 202.064 297.805C202.575 296.922 203.064 296.716 203.064 296.716L203.485 296.957C203.485 296.957 203.62 297.546 203.118 298.412ZM203.173 292.313C202.512 291.933 201.952 291.028 202.67 289.788C203.549 288.272 203.114 287.665 202.265 287.176L201.666 288.211C202.068 288.442 202.073 288.803 201.686 289.472C200.693 291.184 201.408 292.666 203.061 293.617L203.231 293.714C205.063 294.768 206.61 294.278 207.453 292.824C208.285 291.388 208.035 289.948 206.775 289.223C205.533 288.509 204.227 288.911 203.436 290.276C202.681 291.578 203.194 292.278 203.194 292.278L203.173 292.313ZM204.571 293.046C203.892 292.656 203.702 291.832 204.198 290.976C204.695 290.12 205.487 289.862 206.184 290.263C206.882 290.664 207.063 291.482 206.567 292.338C206.07 293.195 205.251 293.437 204.571 293.046ZM209.277 289.472L209.913 288.374L209.014 286.656L209.686 285.496L211.107 286.314L211.686 285.315L207.307 282.796L206.066 284.937C205.332 286.204 205.444 287.16 206.419 287.721C207.509 288.348 208.283 287.568 208.283 287.568L209.277 289.472ZM207.018 286.686C206.589 286.439 206.513 286.015 206.917 285.319L207.532 284.258L208.881 285.034L208.266 286.095C207.863 286.791 207.447 286.933 207.018 286.686ZM214.467 280.516L215.046 279.517L210.667 276.998L210.088 277.997L211.795 278.979L210.368 281.441L208.661 280.459L208.082 281.458L212.461 283.977L213.04 282.978L211.262 281.955L212.689 279.493L214.467 280.516ZM214.487 277.644C215.416 278.179 216.316 277.531 216.911 276.505C217.645 275.238 217.316 274.49 217.316 274.49L217.347 274.437C217.347 274.437 218.017 274.596 218.488 273.784C218.674 273.463 218.681 273.265 218.681 273.265L217.823 272.772C217.823 272.772 217.827 272.869 217.739 273.021C217.594 273.27 217.399 273.277 216.997 273.046L215.54 272.208C214.414 271.56 213.361 272.144 212.632 273.402C211.929 274.615 211.824 275.803 212.85 276.418L213.45 275.383C213.012 275.131 213.072 274.535 213.454 273.875C213.956 273.009 214.541 272.966 214.961 273.207L215.596 273.572C215.596 273.572 214.876 273.848 214.297 274.847C213.676 275.917 213.522 277.089 214.487 277.644ZM216.311 275.649C215.939 276.291 215.489 276.841 215.051 276.589C214.631 276.347 214.884 275.684 215.256 275.042C215.768 274.159 216.257 273.952 216.257 273.952L216.677 274.194C216.677 274.194 216.812 274.783 216.311 275.649Z" fill="#708F9B"/>
<path id="&#208;&#144;&#208;&#187;&#208;&#176;&#208;&#177;&#209;&#143;&#208;&#189;&#208;&#190;-&#208;&#145;&#208;&#176;&#208;&#187;&#209;&#130;&#208;&#184;&#208;&#185;&#209;&#129;&#208;&#186;&#208;&#184;&#208;&#185; &#209;&#130;&#208;&#190;&#208;&#189;&#208;&#189;&#208;&#181;&#208;&#187;&#209;&#140;" d="M269.818 146.594L270.555 145.105L278.332 145.663L277.739 146.864L276.194 146.751L274.563 150.05L275.594 151.201L275.001 152.401L269.818 146.594ZM273.765 149.153L274.994 146.667L271.309 146.373L271.287 146.418L273.765 149.153ZM276.92 143.748L274.482 142.047L276.296 138.378L280.834 140.604L280.323 141.638L276.711 139.866L275.852 141.603L277.431 142.715C278.094 143.18 278.525 143.593 278.718 143.963C278.912 144.332 278.907 144.728 278.704 145.139C278.623 145.301 278.496 145.48 278.429 145.559L278.366 145.618L277.421 145.155C277.502 145.071 277.565 144.978 277.614 144.879C277.817 144.468 277.529 144.164 276.92 143.748ZM280.15 138.772C279.68 138.541 279.426 138.17 279.385 137.662C279.349 137.156 279.479 136.597 279.776 135.997C279.927 135.69 280.104 135.424 280.308 135.193C280.514 134.969 280.678 134.819 280.811 134.744L280.988 134.635L280.333 134.313C280.084 134.191 279.83 134.184 279.569 134.292C279.306 134.404 279.075 134.666 278.869 135.081C278.515 135.799 278.52 136.368 278.967 136.587L278.438 137.657C277.93 137.402 277.651 137.001 277.601 136.466C277.55 135.931 277.692 135.328 278.02 134.664C278.354 133.987 278.767 133.517 279.261 133.255C279.754 132.997 280.284 133.005 280.844 133.28L282.354 134.021C282.774 134.227 282.965 134.203 283.093 133.946C283.139 133.851 283.171 133.765 283.157 133.714L283.157 133.691L284.047 134.128C284.05 134.259 283.997 134.434 283.887 134.656C283.765 134.904 283.612 135.087 283.43 135.205C283.251 135.33 283.098 135.39 282.974 135.39L282.791 135.385L282.764 135.439C282.789 135.479 282.81 135.517 282.849 135.778C282.868 135.911 282.878 136.05 282.867 136.196C282.857 136.489 282.736 136.984 282.493 137.476C282.209 138.049 281.864 138.463 281.451 138.72C281.042 138.979 280.607 138.996 280.15 138.772ZM281.839 136.662C281.971 136.396 282.058 136.141 282.102 135.893C282.148 135.652 282.16 135.468 282.144 135.353L282.109 135.185L281.675 134.972C281.361 135.132 281.051 135.518 280.746 136.125C280.319 136.987 280.286 137.509 280.643 137.684C281.014 137.866 281.413 137.524 281.839 136.662ZM281.491 130.575L281.511 130.534C281.481 130.503 281.436 130.458 281.356 130.211C281.319 130.092 281.296 129.958 281.289 129.814C281.28 129.524 281.368 129.028 281.618 128.523C281.968 127.815 282.442 127.346 283.031 127.119C283.62 126.892 284.238 126.938 284.88 127.253C285.526 127.57 285.932 128.055 286.1 128.704C286.266 129.357 286.161 130.057 285.793 130.802C285.409 131.578 284.853 132.079 284.123 132.304C283.396 132.536 282.571 132.423 281.644 131.968L281.468 131.881C280.573 131.442 279.968 130.871 279.654 130.167C279.341 129.47 279.396 128.689 279.818 127.836C280.159 127.146 280.135 126.786 279.715 126.58L280.246 125.506C280.729 125.743 280.999 125.97 281.156 126.367C281.314 126.764 281.199 127.325 280.822 128.088C280.532 128.674 280.469 129.188 280.636 129.623C280.807 130.06 281.089 130.377 281.491 130.575ZM282.252 130.387C282.353 130.762 282.577 131.035 282.934 131.21C283.291 131.385 283.655 131.401 284.014 131.252C284.374 131.104 284.666 130.809 284.882 130.372C285.099 129.934 285.158 129.531 285.057 129.156C284.955 128.781 284.726 128.506 284.36 128.327C283.999 128.149 283.64 128.136 283.285 128.287C282.929 128.438 282.645 128.73 282.428 129.167C282.212 129.605 282.151 130.013 282.252 130.387ZM287.956 126.199L287.394 127.336L286.28 125.5C286.242 125.543 286.202 125.602 285.948 125.752C285.824 125.832 285.696 125.886 285.561 125.921C285.298 125.999 284.847 125.98 284.426 125.774C283.409 125.275 283.229 124.356 283.889 123.02L284.987 120.8L289.525 123.027L289.012 124.065L287.538 123.342L286.945 124.542L287.956 126.199ZM284.955 124.704C285.425 124.935 285.828 124.712 286.162 124.035L286.707 122.934L285.31 122.248L284.766 123.349C284.426 124.024 284.49 124.476 284.955 124.704ZM292.495 117.02L291.982 118.058L290.138 117.153L288.877 119.703L290.721 120.608L290.21 121.641L285.672 119.415L286.183 118.381L287.955 119.251L289.216 116.701L287.444 115.831L287.957 114.793L292.495 117.02ZM292.901 114.836C292.246 115.104 291.55 115.059 290.822 114.702C290.094 114.345 289.639 113.824 289.448 113.142C289.262 112.462 289.351 111.748 289.723 110.994C290.096 110.241 290.612 109.731 291.267 109.464C291.926 109.198 292.616 109.245 293.343 109.602C294.071 109.959 294.534 110.478 294.72 111.158C294.906 111.838 294.815 112.556 294.442 113.31C294.069 114.063 293.556 114.568 292.901 114.836ZM293.64 111.581C293.511 111.182 293.235 110.878 292.815 110.672C292.394 110.466 291.988 110.435 291.592 110.577C291.194 110.723 290.887 111.016 290.668 111.458C290.447 111.905 290.402 112.326 290.53 112.725C290.658 113.124 290.93 113.426 291.351 113.632C291.771 113.838 292.181 113.872 292.578 113.73C292.974 113.587 293.281 113.295 293.502 112.848C293.72 112.406 293.766 111.985 293.64 111.581ZM293.706 108.687L293.871 106.07L294.879 106.565L294.714 109.181L293.706 108.687ZM291.213 103.325L293.589 98.5187L294.57 98.9999L292.761 102.66L294.189 103.361L295.043 101.632C295.889 99.9218 296.991 99.397 298.347 100.062C299.707 100.73 299.961 101.92 299.116 103.63L297.694 106.505L291.213 103.325ZM297.28 104.878L298.104 103.212C298.574 102.26 298.458 101.609 297.753 101.263C297.053 100.919 296.464 101.224 295.993 102.177L295.169 103.842L297.28 104.878ZM299.608 99.4195C299.138 99.1889 298.884 98.8173 298.843 98.3094C298.807 97.8037 298.937 97.2451 299.234 96.6449C299.385 96.338 299.562 96.0714 299.766 95.8406C299.972 95.6166 300.136 95.467 300.269 95.3919L300.446 95.2828L299.791 94.9612C299.542 94.8392 299.287 94.832 299.027 94.9395C298.763 95.0515 298.532 95.3139 298.327 95.7291C297.972 96.4466 297.978 97.0155 298.425 97.2351L297.896 98.3046C297.388 98.0495 297.108 97.6489 297.058 97.1141C297.008 96.5792 297.149 95.9756 297.477 95.3122C297.812 94.6352 298.225 94.1647 298.719 93.9027C299.212 93.6452 299.741 93.6528 300.302 93.9277L301.811 94.6685C302.232 94.8747 302.423 94.8509 302.55 94.5937C302.597 94.4989 302.628 94.4132 302.615 94.3616L302.614 94.3391L303.505 94.776C303.508 94.9064 303.455 95.0822 303.345 95.3033C303.222 95.5515 303.07 95.7347 302.888 95.8529C302.708 95.9778 302.555 96.0373 302.431 96.0382L302.249 96.0327L302.222 96.0868C302.247 96.1272 302.267 96.1652 302.307 96.4258C302.326 96.5584 302.336 96.6977 302.325 96.844C302.315 97.1364 302.194 97.6319 301.951 98.1238C301.667 98.697 301.322 99.1109 300.909 99.3678C300.5 99.627 300.065 99.6435 299.608 99.4195ZM301.297 97.3098C301.429 97.0435 301.515 96.7888 301.559 96.5412C301.605 96.3002 301.618 96.1157 301.602 96.0012L301.567 95.8327L301.133 95.6198C300.818 95.7794 300.509 96.1661 300.203 96.7731C299.777 97.6351 299.744 98.157 300.101 98.3322C300.471 98.5141 300.871 98.1717 301.297 97.3098ZM302.22 92.581L299.781 90.8798L301.596 87.2108L306.133 89.4373L305.622 90.4708L302.011 88.6989L301.152 90.4363L302.731 91.5476C303.394 92.013 303.824 92.4261 304.018 92.7958C304.211 93.1655 304.206 93.5613 304.003 93.972C303.923 94.1345 303.796 94.313 303.728 94.3922L303.665 94.4511L302.721 93.9876C302.802 93.9038 302.864 93.8112 302.913 93.7119C303.116 93.3012 302.829 92.9974 302.22 92.581ZM303.794 85.0931L302.91 86.8802L301.984 86.4255L304.26 81.8224L305.186 82.277L304.305 84.0596L307.925 85.836L307.405 86.865L303.794 85.0931ZM311.502 78.5794L310.991 79.6128L307.52 77.9096L307.495 77.9593L309.949 81.7203L309.186 83.2637L304.648 81.0372L305.159 80.0037L308.63 81.7069L308.653 81.6618L306.201 77.8962L306.964 76.3528L311.502 78.5794ZM314.505 72.505L313.994 73.5385L310.523 71.8353L310.499 71.885L312.952 75.646L312.189 77.1894L307.652 74.9629L308.163 73.9294L311.634 75.6326L311.656 75.5875L309.205 71.8219L309.968 70.2785L314.505 72.505ZM308.383 71.1664C308.45 71.4965 308.375 71.8748 308.166 72.299C307.954 72.7278 307.696 73.0106 307.392 73.1589C307.089 73.3071 306.771 73.3026 306.432 73.1362L306.391 73.1163L306.775 72.3401L306.798 72.3512C307.046 72.4731 307.33 72.3655 307.519 71.9819C307.707 71.6028 307.613 71.3044 307.373 71.1868L307.351 71.1758L307.734 70.3995L307.775 70.4195C308.114 70.5858 308.316 70.8363 308.383 71.1664ZM314.911 70.321C314.257 70.5886 313.56 70.5439 312.832 70.1868C312.105 69.8298 311.649 69.309 311.458 68.6266C311.272 67.9465 311.361 67.2331 311.734 66.4794C311.941 66.0597 312.197 65.7139 312.5 65.442C312.803 65.17 313.099 64.9904 313.394 64.9051C313.984 64.7347 314.491 64.7424 314.816 64.9021L314.276 65.9942C314.22 65.9833 314.164 65.9612 313.882 65.9969C313.742 66.0181 313.607 66.0528 313.479 66.1076C313.229 66.215 312.893 66.5097 312.679 66.9429C312.46 67.3852 312.415 67.806 312.543 68.2054C312.669 68.6093 312.941 68.911 313.361 69.1173C313.782 69.3235 314.192 69.3567 314.588 69.2145C314.984 69.0724 315.291 68.7802 315.512 68.3334C315.727 67.9002 315.763 67.4749 315.68 67.1876C315.598 66.9004 315.475 66.6718 315.366 66.5736L315.293 66.4932L315.833 65.4011C316.154 65.5585 316.465 65.9522 316.689 66.5218C316.801 66.8066 316.843 67.1527 316.811 67.5576C316.78 67.9626 316.66 68.375 316.452 68.7947C316.08 69.5483 315.566 70.0533 314.911 70.321ZM315.216 59.6642L315.843 58.3961L316.969 61.73L320.463 60.4557L319.823 61.7509L316.443 62.9749L318.676 64.0705L318.165 65.1039L313.627 62.8774L314.138 61.8439L316.326 62.9173L315.216 59.6642ZM323.123 55.0763L322.612 56.1098L319.141 54.4066L319.117 54.4562L321.57 58.2173L320.807 59.7607L316.269 57.5341L316.78 56.5007L320.251 58.2039L320.274 58.1587L317.822 54.3932L318.585 52.8498L323.123 55.0763ZM326.127 49.002L325.616 50.0354L322.145 48.3323L322.12 48.3819L324.574 52.143L323.81 53.6864L319.273 51.4598L319.784 50.4264L323.255 52.1295L323.277 52.0844L320.826 48.3188L321.589 46.7754L326.127 49.002ZM320.004 47.6634C320.071 47.9935 319.996 48.3718 319.787 48.796C319.575 49.2247 319.317 49.5076 319.013 49.6558C318.71 49.8041 318.392 49.7995 318.053 49.6332L318.012 49.6132L318.396 48.837L318.419 48.8481C318.667 48.9701 318.951 48.8625 319.14 48.4789C319.328 48.0998 319.234 47.8013 318.994 47.6838L318.972 47.6727L319.356 46.8965L319.396 46.9165C319.735 47.0828 319.937 47.3333 320.004 47.6634ZM324.747 42.7172L323.863 44.5043L322.937 44.0497L325.213 39.4465L326.139 39.9012L325.258 41.6838L328.878 43.4601L328.358 44.4891L324.747 42.7172ZM329.719 40.3735C329.064 40.6411 328.368 40.5965 327.64 40.2394C326.912 39.8824 326.457 39.3615 326.266 38.6792C326.08 37.9991 326.169 37.2857 326.541 36.532C326.914 35.7784 327.43 35.2688 328.085 35.0012C328.744 34.7358 329.434 34.7828 330.161 35.1399C330.889 35.4969 331.352 36.0154 331.538 36.6955C331.724 37.3756 331.633 38.0936 331.26 38.8473C330.887 39.6009 330.374 40.1059 329.719 40.3735ZM330.458 37.119C330.329 36.7196 330.053 36.4157 329.633 36.2094C329.212 36.0032 328.806 35.9722 328.41 36.1144C328.012 36.261 327.705 36.5532 327.486 36.9955C327.265 37.4423 327.22 37.8631 327.348 38.2625C327.476 38.6619 327.748 38.9636 328.169 39.1699C328.589 39.3761 329 39.4093 329.396 39.2671C329.792 39.125 330.099 38.8328 330.32 38.386C330.539 37.9437 330.584 37.5229 330.458 37.119ZM335.311 30.427L334.798 31.465L332.954 30.5602L331.693 33.1099L333.537 34.0147L333.026 35.0482L328.488 32.8216L328.999 31.7882L330.771 32.6575L332.032 30.1078L330.26 29.2384L330.773 28.2005L335.311 30.427ZM338.283 24.4159L337.77 25.4538L335.926 24.549L334.665 27.0988L336.509 28.0036L335.998 29.0371L331.461 26.8105L331.972 25.7771L333.743 26.6464L335.004 24.0966L333.232 23.2273L333.746 22.1893L338.283 24.4159ZM339.132 16.9981L339.489 17.207L337.528 21.1738C337.593 21.1891 337.663 21.2291 337.976 21.2202C338.13 21.2169 338.283 21.1911 338.425 21.1429C338.713 21.0488 339.097 20.7493 339.335 20.2664C339.458 20.0182 339.524 19.7816 339.535 19.5454C339.547 19.316 339.528 19.1497 339.48 19.0421L339.409 18.8784L340.012 17.6599C340.041 17.6912 340.084 17.7179 340.221 17.9194C340.355 18.1253 340.459 18.3225 340.54 18.693C340.625 19.0657 340.641 19.4209 340.519 19.9277C340.455 20.1822 340.362 20.4392 340.23 20.7055C339.858 21.4592 339.344 21.9642 338.689 22.2318C338.035 22.4994 337.338 22.4547 336.61 22.0977C335.883 21.7406 335.427 21.2198 335.236 20.5375C335.05 19.8574 335.139 19.1439 335.512 18.3902C335.884 17.6366 336.4 17.1271 337.055 16.8595C337.714 16.5941 338.404 16.6411 339.132 16.9981ZM336.411 18.8316C336.172 19.3144 336.145 19.7779 336.246 20.0628C336.351 20.3499 336.499 20.585 336.626 20.6921L336.718 20.7656L338.126 17.918C338.077 17.8936 338.007 17.8649 337.714 17.8669C337.567 17.8679 337.425 17.8936 337.292 17.935C337.027 18.029 336.654 18.3397 336.411 18.8316ZM340.216 15.7358L337.778 14.0346L339.592 10.3656L344.13 12.5921L343.619 13.6256L340.007 11.8537L339.148 13.5911L340.727 14.7024C341.39 15.1678 341.821 15.5809 342.014 15.9506C342.208 16.3203 342.203 16.7161 342 17.1268C341.919 17.2893 341.792 17.4678 341.725 17.547L341.662 17.6059L340.717 17.1424C340.798 17.0586 340.861 16.966 340.91 16.8667C341.113 16.456 340.825 16.1522 340.216 15.7358ZM344.817 11.2022L340.279 8.97562L340.79 7.94217L342.236 8.65183L342.721 7.67254C343.394 6.30965 344.247 5.88102 345.277 6.38665C346.308 6.89228 346.486 7.82654 345.812 9.18943L344.817 11.2022ZM345.17 7.96602C345.135 7.75263 344.995 7.58269 344.746 7.46072C344.497 7.33874 344.277 7.33127 344.085 7.43378C343.894 7.53629 343.702 7.77823 343.512 8.16182L343.068 9.05988L344.496 9.76067L344.94 8.86261C345.13 8.47902 345.205 8.17941 345.17 7.96602Z" fill="#708F9B"/>
<path id="&#209;&#131;&#208;&#187;. &#208;&#167;&#208;&#176;&#209;&#129;&#208;&#190;&#208;&#178;&#208;&#176;&#209;&#143;" d="M383.988 97.0377L382.866 96.5168L382.808 102.287L382.727 102.363C382.222 102.834 381.872 102.853 381.526 102.692C381.189 102.536 380.999 102.334 380.999 102.334L380.553 103.287C380.553 103.287 380.828 103.528 381.174 103.688C382.099 104.118 382.987 103.632 383.821 102.871L388.103 98.9475L386.971 98.4223L383.958 101.264L383.911 101.242L383.988 97.0377ZM387.67 101.986C387.332 102.489 386.997 102.913 386.548 102.704C386.399 102.635 386.271 102.519 386.271 102.519L385.825 103.471C385.825 103.471 386.029 103.668 386.31 103.799C387.142 104.185 387.82 103.806 388.717 102.472L389.796 100.87L391.555 101.686L389.851 105.329L390.899 105.815L393.039 101.238L389.326 99.5152L387.67 101.986ZM392.263 105.823C392.084 106.206 392.241 106.551 392.634 106.734C393.026 106.916 393.393 106.813 393.572 106.43C393.751 106.047 393.594 105.702 393.202 105.519C392.809 105.337 392.442 105.44 392.263 105.823ZM398.371 103.736C397.576 105.436 398.051 106.611 400.043 107.535L401.306 108.121L400.336 110.195L401.496 110.733L404.553 104.195L403.393 103.657L401.786 107.094L400.524 106.508C399.411 105.991 399.042 105.32 399.531 104.274L400.457 102.294L399.297 101.756L398.371 103.736ZM403.405 110.05C402.95 111.022 403.675 111.858 404.75 112.357C406.078 112.973 406.797 112.58 406.797 112.58L406.854 112.606C406.854 112.606 406.752 113.286 407.603 113.681C407.939 113.837 408.138 113.827 408.138 113.827L408.557 112.93C408.557 112.93 408.46 112.942 408.301 112.868C408.04 112.747 408.016 112.554 408.212 112.134L408.924 110.611C409.475 109.435 408.802 108.44 407.483 107.828C406.211 107.238 405.015 107.24 404.49 108.315L405.575 108.818C405.789 108.36 406.389 108.366 407.081 108.688C407.988 109.109 408.082 109.686 407.877 110.125L407.567 110.788C407.567 110.788 407.23 110.098 406.182 109.612C405.06 109.091 403.876 109.042 403.405 110.05ZM405.554 111.684C404.881 111.372 404.293 110.974 404.507 110.516C404.712 110.077 405.396 110.27 406.07 110.582C406.996 111.012 407.244 111.48 407.244 111.48L407.038 111.919C407.038 111.919 406.461 112.105 405.554 111.684ZM409.964 111.878C409.261 113.382 409.944 114.768 411.431 115.458C413.246 116.3 414.545 115.346 414.821 114.757L413.717 114.245C413.717 114.245 413.037 115.043 411.877 114.505C410.979 114.088 410.656 113.222 411.049 112.382C411.442 111.541 412.316 111.231 413.213 111.647C414.373 112.185 414.198 113.218 414.198 113.218L415.301 113.73C415.576 113.142 415.473 111.537 413.659 110.695C412.172 110.004 410.667 110.375 409.964 111.878ZM416.047 114.701C415.343 116.205 416.027 117.591 417.514 118.281C419.001 118.971 420.506 118.601 421.209 117.097C421.912 115.593 421.229 114.208 419.742 113.518C418.255 112.827 416.75 113.198 416.047 114.701ZM420.124 116.594C419.731 117.434 418.857 117.745 417.959 117.328C417.062 116.911 416.738 116.045 417.131 115.205C417.524 114.364 418.398 114.054 419.296 114.47C420.194 114.887 420.517 115.753 420.124 116.594ZM426.532 120.784C427.008 119.766 425.996 119.228 425.996 119.228L426.022 119.172C426.022 119.172 426.836 119.402 427.234 118.552C427.627 117.712 427.125 117.058 425.918 116.498L423.496 115.374L421.356 119.95L424.002 121.178C425.321 121.79 426.091 121.727 426.532 120.784ZM425.491 120.187C425.333 120.523 424.995 120.639 424.331 120.331L422.788 119.614L423.312 118.494L424.855 119.21C425.528 119.522 425.652 119.841 425.491 120.187ZM426.07 118.217C425.935 118.506 425.625 118.658 425.064 118.397L423.661 117.746L424.159 116.682L425.515 117.311C426.086 117.576 426.219 117.899 426.07 118.217ZM427.562 121.262C427.108 122.233 427.832 123.069 428.907 123.569C430.235 124.185 430.955 123.791 430.955 123.791L431.011 123.817C431.011 123.817 430.909 124.497 431.76 124.892C432.097 125.049 432.295 125.038 432.295 125.038L432.714 124.142C432.714 124.142 432.617 124.154 432.458 124.08C432.197 123.958 432.173 123.766 432.37 123.345L433.082 121.823C433.632 120.646 432.959 119.652 431.64 119.04C430.368 118.449 429.172 118.451 428.647 119.526L429.732 120.03C429.946 119.572 430.546 119.578 431.238 119.899C432.145 120.32 432.239 120.898 432.034 121.337L431.724 122C431.724 122 431.387 121.309 430.339 120.823C429.217 120.302 428.034 120.253 427.562 121.262ZM429.711 122.896C429.038 122.583 428.45 122.186 428.664 121.728C428.869 121.289 429.553 121.481 430.227 121.794C431.153 122.224 431.401 122.691 431.401 122.691L431.195 123.13C431.195 123.13 430.619 123.317 429.711 122.896ZM432.957 125.334L434.108 125.868L435.747 124.822L436.962 125.386L436.268 126.871L437.315 127.357L439.456 122.781L437.211 121.739C435.883 121.123 434.937 121.32 434.461 122.338C433.928 123.478 434.773 124.177 434.773 124.177L432.957 125.334ZM435.546 122.842C435.756 122.393 436.173 122.28 436.902 122.619L438.015 123.135L437.356 124.545L436.243 124.029C435.513 123.69 435.336 123.29 435.546 122.842Z" fill="#708F9B"/>
<path id="&#208;&#155;&#208;&#181;&#208;&#189;&#208;&#184;&#208;&#189;&#208;&#179;&#209;&#128;&#208;&#176;&#208;&#180;&#209;&#129;&#208;&#186;&#208;&#184;&#208;&#185; &#208;&#191;&#209;&#128;-&#208;&#186;&#209;&#130;" d="M484.13 349.422C484.13 349.422 484.324 349.61 484.657 349.775C485.831 350.356 486.61 349.741 487.605 348.255L489.581 345.31L491.938 346.477L489.221 351.92L490.367 352.487L493.59 346.029L489.044 343.778L486.432 347.673C485.911 348.44 485.542 348.832 484.932 348.53C484.785 348.457 484.664 348.351 484.664 348.351L484.13 349.422ZM497.674 353.747C497.674 353.747 497.78 353.604 497.886 353.392C498.627 351.907 497.979 350.504 496.51 349.776C495.04 349.049 493.527 349.381 492.785 350.866C492.044 352.351 492.692 353.754 494.162 354.481C496.093 355.438 497.217 354.269 497.217 354.269L495.998 353.665C495.998 353.665 495.44 353.998 494.608 353.587C493.315 352.946 493.71 351.784 493.71 351.784L497.674 353.747ZM496.063 350.671C497.375 351.321 496.97 352.386 496.97 352.386L494.124 350.977C494.124 350.977 494.788 350.04 496.063 350.671ZM501.545 358.023L502.58 358.535L504.835 354.015L503.801 353.502L502.921 355.264L500.371 354.001L501.251 352.239L500.216 351.727L497.96 356.247L498.995 356.76L499.911 354.924L502.461 356.187L501.545 358.023ZM507.619 361.031L508.654 361.543L510.909 357.023L509.366 356.259L505.58 358.698L505.533 358.675L507.26 355.215L506.225 354.703L503.969 359.223L505.512 359.988L509.299 357.548L509.345 357.571L507.619 361.031ZM513.626 364.006L514.661 364.518L516.917 359.998L515.882 359.486L515.003 361.248L512.453 359.985L513.332 358.223L512.297 357.71L510.042 362.231L511.076 362.743L511.993 360.907L514.543 362.17L513.626 364.006ZM518.307 360.686L516.051 365.207L517.086 365.719L518.881 362.121L521.607 363.471L522.067 362.548L518.307 360.686ZM525.597 364.182C524.488 363.632 523.686 364.086 523.686 364.086L523.64 364.063L523.934 363.473L522.899 362.961L519.723 369.326L520.758 369.839L521.973 367.403L522.019 367.426C522.019 367.426 522.14 368.337 523.249 368.887C524.543 369.527 526.094 369.214 526.835 367.728C527.576 366.243 526.891 364.822 525.597 364.182ZM525.763 367.198C525.349 368.028 524.467 368.316 523.58 367.877C522.693 367.438 522.392 366.564 522.806 365.733C523.221 364.903 524.102 364.615 524.989 365.054C525.876 365.493 526.177 366.367 525.763 367.198ZM527.356 369.218C526.877 370.177 527.58 371.031 528.643 371.558C529.955 372.207 530.684 371.832 530.684 371.832L530.739 371.859C530.739 371.859 530.62 372.537 531.461 372.953C531.793 373.118 531.992 373.113 531.992 373.113L532.434 372.227C532.434 372.227 532.337 372.236 532.18 372.159C531.921 372.031 531.902 371.837 532.11 371.422L532.86 369.918C533.44 368.756 532.792 367.745 531.49 367.1C530.233 366.477 529.037 366.449 528.485 367.51L529.557 368.041C529.782 367.589 530.382 367.61 531.066 367.948C531.962 368.392 532.042 368.972 531.825 369.406L531.498 370.061C531.498 370.061 531.179 369.362 530.144 368.849C529.035 368.3 527.853 368.221 527.356 369.218ZM529.464 370.906C528.798 370.576 528.221 370.163 528.446 369.711C528.663 369.278 529.342 369.487 530.007 369.817C530.921 370.27 531.158 370.744 531.158 370.744L530.941 371.177C530.941 371.177 530.36 371.349 529.464 370.906ZM531.746 374.417L532.78 374.93L533.356 373.777L536.858 375.511L536.282 376.664L537.317 377.176L538.334 375.138L537.678 374.813L539.492 371.178L535.815 369.357L534.226 371.734C533.774 372.407 533.474 372.731 533.059 372.525L532.763 372.378L531.746 374.417ZM536.279 370.691L538.016 371.551L536.644 374.3L534.26 373.12L534.269 373.101C534.269 373.101 534.569 373.238 535.242 372.237L536.279 370.691ZM539.714 374.106C538.973 375.592 539.621 376.994 541.09 377.722C542.882 378.609 544.206 377.689 544.496 377.108L543.406 376.568C543.406 376.568 542.705 377.348 541.56 376.781C540.673 376.342 540.371 375.467 540.786 374.637C541.2 373.807 542.081 373.519 542.968 373.958C544.114 374.525 543.912 375.553 543.912 375.553L545.003 376.093C545.293 375.512 545.23 373.904 543.438 373.017C541.969 372.289 540.455 372.621 539.714 374.106ZM551.517 377.133L550.251 376.506L546.984 377.603L548.071 375.426L547.036 374.914L544.78 379.434L545.815 379.947L546.924 377.723L548.134 381.095L549.427 381.736L548.172 378.249L551.517 377.133ZM553.771 383.887L554.806 384.399L557.062 379.879L555.519 379.115L551.732 381.554L551.686 381.531L553.412 378.071L552.377 377.559L550.122 382.079L551.665 382.844L555.451 380.404L555.498 380.427L553.771 383.887ZM559.844 386.894L560.878 387.407L563.134 382.886L561.591 382.122L557.804 384.561L557.758 384.538L559.485 381.079L558.45 380.566L556.194 385.087L557.737 385.851L561.524 383.412L561.57 383.435L559.844 386.894ZM561.119 381.083C561.951 381.494 562.661 381.386 563.007 380.694L563.025 380.657L562.249 380.273L562.24 380.292C562.129 380.513 561.848 380.638 561.441 380.437C561.035 380.236 560.965 379.936 561.076 379.715L561.085 379.697L560.309 379.312L560.29 379.349C559.945 380.041 560.287 380.671 561.119 381.083ZM568.034 390.95L569.069 391.463L571.325 386.942L566.742 384.673L564.486 389.193L565.521 389.706L567.316 386.108L569.83 387.352L568.034 390.95ZM575.413 388.852C574.304 388.303 573.502 388.757 573.502 388.757L573.455 388.734L573.75 388.143L572.715 387.631L569.539 393.996L570.573 394.509L571.789 392.073L571.835 392.096C571.835 392.096 571.956 393.008 573.065 393.557C574.359 394.197 575.909 393.884 576.65 392.399C577.392 390.913 576.706 389.492 575.413 388.852ZM575.579 391.868C575.164 392.698 574.283 392.986 573.396 392.547C572.509 392.108 572.208 391.234 572.622 390.404C573.036 389.573 573.918 389.285 574.805 389.724C575.692 390.163 575.993 391.037 575.579 391.868ZM580.185 392.929L577.563 392.758L577.061 393.764L579.683 393.935L580.185 392.929ZM586.373 394.394L585.107 393.768L581.84 394.865L582.926 392.688L581.892 392.175L579.636 396.696L580.67 397.208L581.78 394.985L582.99 398.357L584.283 398.997L583.027 395.51L586.373 394.394ZM586.172 395.446L587.955 396.329L586.16 399.927L587.19 400.448L588.99 396.841L590.773 397.724L591.234 396.802L586.633 394.523L586.172 395.446Z" fill="#708F9B"/>
<path id="&#208;&#155;&#208;&#181;&#208;&#189;&#208;&#184;&#208;&#189;&#208;&#179;&#209;&#128;&#208;&#176;&#208;&#180;&#209;&#129;&#208;&#186;&#208;&#190;&#208;&#181; &#209;&#136;." d="M101.615 25.6037C101.615 25.6037 101.651 25.8717 101.811 26.207C102.373 27.3897 103.365 27.3891 105.067 26.8378L108.442 25.7483L109.57 28.1231L104.067 30.7171L104.616 31.8719L111.144 28.7943L108.968 24.2123L104.505 25.655C103.622 25.9345 103.089 26.0147 102.797 25.4C102.726 25.251 102.697 25.0937 102.697 25.0937L101.615 25.6037ZM109.575 37.3842C109.575 37.3842 109.746 37.3374 109.961 37.2363C111.462 36.5284 111.821 35.0255 111.118 33.5448C110.415 32.064 109.02 31.3877 107.519 32.0955C106.017 32.8033 105.658 34.3062 106.362 35.787C107.286 37.7334 108.893 37.5117 108.893 37.5117L108.309 36.2823C108.309 36.2823 107.665 36.1987 107.266 35.3605C106.647 34.0567 107.677 33.3889 107.677 33.3889L109.575 37.3842ZM110.213 33.9712C110.842 35.2937 109.864 35.8797 109.864 35.8797L108.502 33.0113C108.502 33.0113 109.603 32.686 110.213 33.9712ZM109.968 43.1386L110.464 44.1816L115.034 42.0273L114.538 40.9843L112.757 41.824L111.536 39.2536L113.317 38.4139L112.821 37.3708L108.252 39.5251L108.747 40.5682L110.603 39.6933L111.824 42.2637L109.968 43.1386ZM112.877 49.2609L113.372 50.3039L117.942 48.1496L117.203 46.5943L112.719 46.1662L112.697 46.1197L116.194 44.471L115.699 43.4279L111.129 45.5822L111.868 47.1375L116.352 47.5656L116.374 47.6121L112.877 49.2609ZM115.753 55.3164L116.249 56.3595L120.819 54.2052L120.323 53.1621L118.542 54.0018L117.321 51.4315L119.102 50.5917L118.607 49.5487L114.037 51.703L114.532 52.746L116.388 51.8711L117.609 54.4415L115.753 55.3164ZM121.484 55.6057L116.914 57.7601L117.41 58.8031L121.047 57.0885L122.352 59.8358L123.285 59.3961L121.484 55.6057ZM125.046 62.8638C124.515 61.7463 123.604 61.606 123.604 61.606L123.582 61.5594L124.179 61.278L123.683 60.235L117.248 63.2686L117.744 64.3116L120.206 63.151L120.228 63.1975C120.228 63.1975 119.759 63.9885 120.29 65.1061C120.909 66.4099 122.321 67.1235 123.823 66.4156C125.324 65.7078 125.666 64.1676 125.046 62.8638ZM123.31 65.3353C122.47 65.731 121.6 65.412 121.175 64.5179C120.75 63.6239 121.054 62.7509 121.894 62.3552C122.733 61.9595 123.604 62.2785 124.029 63.1726C124.453 64.0666 124.149 64.9396 123.31 65.3353ZM123.31 67.908C122.34 68.3653 122.364 69.4714 122.872 70.5424C123.501 71.8648 124.305 72.0212 124.305 72.0212L124.332 72.077C124.332 72.077 123.819 72.5354 124.222 73.3829C124.381 73.7181 124.54 73.8369 124.54 73.8369L125.436 73.4148C125.436 73.4148 125.354 73.3623 125.278 73.204C125.154 72.9432 125.259 72.7797 125.679 72.5819L127.199 71.8652C128.374 71.3113 128.491 70.1162 127.868 68.803C127.266 67.5365 126.344 66.774 125.254 67.2654L125.767 68.3457C126.224 68.1303 126.682 68.5184 127.01 69.2075C127.439 70.1109 127.142 70.6155 126.704 70.8222L126.042 71.1343C126.042 71.1343 126.223 70.3875 125.728 69.3445C125.197 68.2269 124.318 67.4332 123.31 67.908ZM123.921 70.5384C123.602 69.8678 123.404 69.1862 123.861 68.9708C124.299 68.7641 124.703 69.349 125.021 70.0196C125.459 70.9416 125.351 71.4597 125.351 71.4597L124.913 71.6663C124.913 71.6663 124.35 71.4417 123.921 70.5384ZM123.539 74.7092L124.035 75.7523L125.201 75.2027L126.877 78.7323L125.712 79.2819L126.207 80.325L128.268 79.3533L127.954 78.6921L131.628 76.9599L129.868 73.2533L127.148 74.1364C126.376 74.3862 125.941 74.4547 125.742 74.0356L125.6 73.7376L123.539 74.7092ZM129.406 74.588L130.238 76.3389L127.458 77.6491L126.317 75.2463L126.336 75.2375C126.336 75.2375 126.487 75.5311 127.635 75.1608L129.406 74.588ZM129.99 79.3972C128.488 80.105 128.129 81.6079 128.833 83.0887C129.691 84.8954 131.3 84.9915 131.888 84.7145L131.366 83.6156C131.366 83.6156 130.332 83.795 129.784 82.6402C129.359 81.7462 129.664 80.8732 130.503 80.4775C131.342 80.0818 132.213 80.4008 132.638 81.2949C133.186 82.4497 132.392 83.132 132.392 83.132L132.914 84.2309C133.501 83.9539 134.447 82.6531 133.589 80.8464C132.885 79.3656 131.491 78.6893 129.99 79.3972ZM137.386 89.0801L136.78 87.8043L133.535 86.644L135.736 85.6064L135.241 84.5633L130.671 86.7177L131.166 87.7607L133.414 86.7011L132.277 90.0983L132.896 91.4021L134.068 87.886L137.386 89.0801ZM135.338 90.6564C133.837 91.3643 133.478 92.8672 134.181 94.3479C134.885 95.8287 136.279 96.505 137.781 95.7972C139.282 95.0893 139.641 93.5864 138.938 92.1057C138.234 90.6249 136.84 89.9486 135.338 90.6564ZM137.267 94.7169C136.428 95.1126 135.557 94.7935 135.133 93.8995C134.708 93.0054 135.012 92.1324 135.852 91.7367C136.691 91.341 137.562 91.6601 137.986 92.5541C138.411 93.4482 138.107 94.3212 137.267 94.7169ZM140.324 102.111C140.324 102.111 140.495 102.065 140.71 101.963C142.211 101.256 142.57 99.7527 141.867 98.2719C141.164 96.7911 139.769 96.1148 138.268 96.8226C136.766 97.5305 136.407 99.0334 137.111 100.514C138.035 102.461 139.642 102.239 139.642 102.239L139.058 101.009C139.058 101.009 138.413 100.926 138.015 100.088C137.396 98.7839 138.426 98.1161 138.426 98.1161L140.324 102.111ZM140.962 98.6984C141.591 100.021 140.613 100.607 140.613 100.607L139.251 97.7385C139.251 97.7385 140.352 97.4132 140.962 98.6984ZM142.266 108.723L141.492 107.093L145.129 105.378L144.633 104.335L140.063 106.49L143.094 112.869L147.664 110.715L147.168 109.672L143.531 111.386L142.761 109.766L146.399 108.051L145.903 107.008L142.266 108.723ZM144.138 113.744C143.755 113.925 143.655 114.291 143.841 114.682C144.027 115.073 144.375 115.228 144.757 115.048C145.139 114.868 145.239 114.502 145.054 114.111C144.868 113.719 144.52 113.564 144.138 113.744Z" fill="#708F9B"/>
<path id="&#208;&#146;&#208;&#190;&#208;&#187;&#208;&#190;&#208;&#186;&#208;&#190;&#208;&#187;&#208;&#176;&#208;&#188;&#209;&#129;&#208;&#186;&#208;&#190;&#208;&#181; &#209;&#136;." d="M45.9785 170.88C46.4552 169.431 45.1637 168.803 45.1637 168.803L45.1798 168.754C45.1798 168.754 46.273 168.796 46.6337 167.7C47.0363 166.475 46.4713 165.586 44.9422 165.087L41.835 164.073L39.5806 170.929L42.7074 171.949C44.5207 172.541 45.5373 172.222 45.9785 170.88ZM44.7268 170.396C44.5111 171.052 43.9867 171.261 43.0653 170.96L41.1245 170.327L41.7815 168.329L43.7223 168.962C44.6241 169.256 44.9523 169.71 44.7268 170.396ZM45.3305 167.372C45.1051 168.057 44.577 168.178 43.8517 167.941L42.0972 167.369L42.722 165.469L44.4765 166.041C45.2312 166.287 45.5463 166.716 45.3305 167.372ZM47.2642 170.779C46.7457 172.356 47.5898 173.651 49.1483 174.16C50.7068 174.668 52.1563 174.122 52.6748 172.545C53.1934 170.968 52.3493 169.673 50.7908 169.164C49.2323 168.656 47.7828 169.202 47.2642 170.779ZM51.5378 172.174C51.248 173.055 50.4178 173.468 49.4768 173.161C48.5358 172.854 48.1114 172.032 48.4012 171.15C48.6911 170.269 49.5213 169.856 50.4623 170.163C51.4033 170.471 51.8277 171.292 51.5378 172.174ZM53.8847 173.373C53.6097 173.913 53.3278 174.374 52.8574 174.22C52.7005 174.169 52.5598 174.069 52.5598 174.069L52.2313 175.068C52.2313 175.068 52.4572 175.239 52.7512 175.335C53.6236 175.62 54.2513 175.163 54.9825 173.732L55.8626 172.012L57.7053 172.614L56.4493 176.434L57.5471 176.792L59.1252 171.992L55.2339 170.723L53.8847 173.373ZM59.6122 174.809C59.0937 176.385 59.9378 177.68 61.4963 178.189C63.0548 178.697 64.5043 178.151 65.0228 176.574C65.5413 174.997 64.6973 173.702 63.1388 173.194C61.5803 172.685 60.1307 173.232 59.6122 174.809ZM63.8858 176.203C63.596 177.085 62.7657 177.497 61.8248 177.19C60.8838 176.883 60.4594 176.061 60.7492 175.18C61.0391 174.298 61.8693 173.886 62.8103 174.193C63.7512 174.5 64.1757 175.322 63.8858 176.203ZM71.8411 176.142L70.4982 175.704L67.4249 177.26L68.185 174.949L67.0872 174.591L65.5091 179.39L66.6069 179.748L67.3831 177.388L69.0671 180.551L70.4394 180.999L68.6929 177.728L71.8411 176.142ZM71.5773 178.713C71.0588 180.29 71.9029 181.585 73.4614 182.093C75.0199 182.602 76.4694 182.055 76.9879 180.478C77.5064 178.901 76.6624 177.607 75.1039 177.098C73.5454 176.589 72.0958 177.136 71.5773 178.713ZM75.8509 180.107C75.5611 180.989 74.7308 181.401 73.7899 181.094C72.8489 180.787 72.4245 179.965 72.7143 179.084C73.0042 178.202 73.8344 177.79 74.7754 178.097C75.7164 178.404 76.1408 179.226 75.8509 180.107ZM78.1978 181.307C77.9228 181.846 77.6409 182.307 77.1704 182.154C77.0136 182.103 76.8729 182.003 76.8729 182.003L76.5444 183.002C76.5444 183.002 76.7702 183.173 77.0643 183.269C77.9367 183.554 78.5644 183.097 79.2956 181.665L80.1757 179.946L82.0184 180.547L80.7624 184.367L81.8602 184.725L83.4383 179.926L79.547 178.656L78.1978 181.307ZM83.5807 183.79C83.2458 184.809 84.0646 185.553 85.1918 185.921C86.5837 186.375 87.2505 185.899 87.2505 185.899L87.3093 185.918C87.3093 185.918 87.2894 186.605 88.1814 186.896C88.5343 187.012 88.7299 186.978 88.7299 186.978L89.0391 186.038C89.0391 186.038 88.9445 186.061 88.7779 186.007C88.5035 185.917 88.457 185.728 88.6019 185.288L89.1269 183.691C89.5327 182.457 88.7457 181.549 87.3637 181.098C86.0306 180.663 84.8436 180.808 84.4504 181.937L85.5874 182.308C85.7452 181.828 86.342 181.763 87.0674 182C88.0181 182.31 88.1804 182.872 88.0291 183.333L87.8004 184.028C87.8004 184.028 87.3833 183.382 86.2854 183.024C85.1092 182.64 83.9285 182.732 83.5807 183.79ZM85.9096 185.157C85.2039 184.927 84.5728 184.602 84.7306 184.122C84.882 183.662 85.5839 183.771 86.2896 184.002C87.26 184.318 87.5621 184.753 87.5621 184.753L87.4107 185.213C87.4107 185.213 86.8604 185.468 85.9096 185.157ZM95.4509 183.846L93.3699 186.247L93.3307 186.234L93.0789 183.072L91.295 182.49L89.7169 187.289L90.8147 187.647L91.9773 184.111L92.0361 184.131L92.2826 186.814L93.8705 187.332L95.6628 185.314L95.7216 185.333L94.559 188.869L95.6568 189.227L97.2349 184.428L95.4509 183.846ZM97.7187 187.243C97.2002 188.82 98.0442 190.115 99.6027 190.623C101.504 191.244 102.681 190.142 102.884 189.525L101.727 189.147C101.727 189.147 101.147 190.021 99.9312 189.624C98.9903 189.317 98.5658 188.495 98.8557 187.614C99.1455 186.732 99.9758 186.32 100.917 186.627C102.132 187.024 102.081 188.07 102.081 188.07L103.238 188.447C103.441 187.83 103.147 186.249 101.245 185.628C99.6868 185.12 98.2372 185.666 97.7187 187.243ZM109.833 188.539L108.49 188.101L105.417 189.657L106.177 187.346L105.079 186.987L103.501 191.787L104.598 192.145L105.375 189.785L107.059 192.948L108.431 193.396L106.684 190.125L109.833 188.539ZM109.569 191.11C109.05 192.687 109.894 193.982 111.453 194.49C113.011 194.999 114.461 194.452 114.98 192.875C115.498 191.298 114.654 190.003 113.095 189.495C111.537 188.986 110.087 189.533 109.569 191.11ZM113.843 192.504C113.553 193.386 112.722 193.798 111.781 193.491C110.84 193.184 110.416 192.362 110.706 191.481C110.996 190.599 111.826 190.187 112.767 190.494C113.708 190.801 114.132 191.623 113.843 192.504ZM121.311 195.375C121.311 195.375 121.395 195.218 121.469 194.993C121.988 193.416 121.144 192.121 119.585 191.613C118.027 191.104 116.577 191.651 116.059 193.227C115.54 194.804 116.384 196.099 117.943 196.608C119.991 197.276 120.935 195.957 120.935 195.957L119.641 195.535C119.641 195.535 119.137 195.946 118.255 195.658C116.883 195.21 117.106 194.003 117.106 194.003L121.311 195.375ZM119.273 192.563C120.665 193.017 120.418 194.129 120.418 194.129L117.399 193.144C117.399 193.144 117.92 192.121 119.273 192.563ZM127.446 198.516L125.73 197.956L126.986 194.136L125.888 193.778L124.31 198.577L131.025 200.768L132.603 195.969L131.505 195.611L130.249 199.43L128.543 198.874L129.799 195.054L128.702 194.696L127.446 198.516ZM132.378 200.613C132.246 201.015 132.443 201.339 132.854 201.474C133.266 201.608 133.618 201.462 133.75 201.061C133.882 200.659 133.685 200.335 133.273 200.2C132.861 200.066 132.51 200.211 132.378 200.613Z" fill="#708F9B"/>
</g>
</g>
<defs>
<clipPath id="clip0_4_611">
<rect width="670" height="520" fill="white"/>
</clipPath>
</defs>
</svg>
