<svg id="Слой_1" data-name="Слой 1" xmlns="http://www.w3.org/2000/svg" xmlns:xlink="http://www.w3.org/1999/xlink" viewBox="0 0 600.95 487.56"><defs><clipPath id="clip-path"><polygon points="0 0.28 0 380.41 18.27 380.41 18.27 487.56 599.81 487.56 599.81 0.28 0 0.28" fill="none"/></clipPath></defs><rect x="85.25" y="478.87" width="498.89" height="8.69" fill="#fff"/><polygon points="10.42 15.91 10.42 368.89 85.25 368.89 85.28 388.98 85.28 436.23 85.25 474.63 583.35 474.63 583.35 355.05 583.35 284.12 583.35 15.91 10.42 15.91" fill="#fff"/><rect y="17.14" width="1.58" height="351.19" fill="#fff"/><g clip-path="url(#clip-path)"><rect x="-566.82" y="2.85" width="1162.95" height="2240.57" fill="none" stroke="#003a50" stroke-miterlimit="10"/><polygon points="-554.24 1107.02 -554.24 2230.57 583.15 2230.57 583.15 15.79 -554.24 15.64 -554.24 1036.31 -554.24 1107.02" fill="none" stroke="#003a50" stroke-miterlimit="10"/></g><rect x="212.64" y="35.09" width="87.81" height="4.56" fill="#fff"/><rect x="212.64" y="35.09" width="87.81" height="4.56" fill="none" stroke="#003a50" stroke-miterlimit="10"/><line x1="300.45" y1="37.37" x2="212.64" y2="37.37" fill="none" stroke="#003a50" stroke-miterlimit="10"/><rect x="295.89" y="35.09" width="4.55" height="4.56" fill="#fff"/><rect x="295.89" y="35.09" width="4.55" height="4.56" fill="none" stroke="#003a50" stroke-miterlimit="10"/><rect x="212.64" y="35.09" width="4.55" height="4.56" fill="#fff"/><rect x="212.64" y="35.09" width="4.55" height="4.56" fill="none" stroke="#003a50" stroke-miterlimit="10"/><rect x="253.2" y="35.09" width="4.55" height="4.56" fill="#fff"/><rect x="253.19" y="35.09" width="4.55" height="4.56" fill="none" stroke="#003a50" stroke-miterlimit="10"/><g clip-path="url(#clip-path)"><path d="M253.19,39.64v2.9c0,20.15-16.11,33.1-36,33.1v-36" fill="none" stroke="#003a50" stroke-miterlimit="10"/></g><rect x="400.65" y="35.09" width="87.8" height="4.56" fill="#fff"/><rect x="400.65" y="35.09" width="87.8" height="4.56" fill="none" stroke="#003a50" stroke-miterlimit="10"/><line x1="488.45" y1="37.37" x2="400.65" y2="37.37" fill="none" stroke="#003a50" stroke-miterlimit="10"/><rect x="483.9" y="35.09" width="4.55" height="4.56" fill="#fff"/><rect x="483.9" y="35.09" width="4.55" height="4.56" fill="none" stroke="#003a50" stroke-miterlimit="10"/><rect x="400.64" y="35.09" width="4.55" height="4.56" fill="#fff"/><rect x="400.64" y="35.09" width="4.55" height="4.56" fill="none" stroke="#003a50" stroke-miterlimit="10"/><rect x="441.2" y="35.09" width="4.55" height="4.56" fill="#fff"/><rect x="441.2" y="35.09" width="4.55" height="4.56" fill="none" stroke="#003a50" stroke-miterlimit="10"/><g clip-path="url(#clip-path)"><path d="M441.2,39.64v2.9c0,20.15-16.12,33.1-36,33.1v-36" fill="none" stroke="#003a50" stroke-miterlimit="10"/></g><rect x="29.22" y="35.09" width="87.81" height="4.56" fill="#fff"/><rect x="29.21" y="35.09" width="87.81" height="4.56" fill="none" stroke="#003a50" stroke-miterlimit="10"/><line x1="29.22" y1="37.37" x2="117.02" y2="37.37" fill="none" stroke="#003a50" stroke-miterlimit="10"/><rect x="29.22" y="35.09" width="4.55" height="4.56" fill="#fff"/><rect x="29.21" y="35.09" width="4.55" height="4.56" fill="none" stroke="#003a50" stroke-miterlimit="10"/><rect x="112.47" y="35.09" width="4.55" height="4.56" fill="#fff"/><rect x="112.47" y="35.09" width="4.55" height="4.56" fill="none" stroke="#003a50" stroke-miterlimit="10"/><rect x="71.92" y="35.09" width="4.55" height="4.56" fill="#fff"/><rect x="71.91" y="35.09" width="4.55" height="4.56" fill="none" stroke="#003a50" stroke-miterlimit="10"/><g clip-path="url(#clip-path)"><path d="M76.47,39.64v2.9c0,20.15,16.12,33.1,36,33.1v-36" fill="none" stroke="#003a50" stroke-miterlimit="10"/></g><rect x="558.83" y="50.34" width="4.56" height="139.53" fill="#fff"/><rect x="558.83" y="50.34" width="4.56" height="139.53" fill="none" stroke="#003a50" stroke-miterlimit="10"/><line x1="561.11" y1="50.34" x2="561.11" y2="189.87" fill="none" stroke="#003a50" stroke-miterlimit="10"/><rect x="558.83" y="82.05" width="4.56" height="4.48" fill="#fff"/><rect x="558.83" y="82.05" width="4.56" height="4.48" fill="none" stroke="#003a50" stroke-miterlimit="10"/><rect x="558.83" y="113.76" width="4.56" height="4.48" fill="#fff"/><rect x="558.83" y="113.76" width="4.56" height="4.48" fill="none" stroke="#003a50" stroke-miterlimit="10"/><rect x="558.83" y="50.34" width="4.56" height="4.48" fill="#fff"/><rect x="558.83" y="50.34" width="4.56" height="4.48" fill="none" stroke="#003a50" stroke-miterlimit="10"/><rect x="558.83" y="185.39" width="4.56" height="4.48" fill="#fff"/><rect x="558.83" y="185.39" width="4.56" height="4.48" fill="none" stroke="#003a50" stroke-miterlimit="10"/><rect x="558.83" y="145.48" width="4.56" height="4.48" fill="#fff"/><rect x="558.83" y="145.48" width="4.56" height="4.48" fill="none" stroke="#003a50" stroke-miterlimit="10"/><g clip-path="url(#clip-path)"><path d="M558.83,150h-2.9c-20.15,0-33.1,15.86-33.1,35.43h36" fill="none" stroke="#003a50" stroke-miterlimit="10"/></g><rect x="558.91" y="285.69" width="4.48" height="75.84" fill="#fff"/><rect x="558.91" y="285.69" width="4.48" height="75.84" fill="none" stroke="#003a50" stroke-miterlimit="10"/><line x1="561.14" y1="361.53" x2="561.14" y2="285.69" fill="none" stroke="#003a50" stroke-miterlimit="10"/><rect x="558.91" y="356.98" width="4.48" height="4.55" fill="#fff"/><rect x="558.91" y="356.98" width="4.48" height="4.55" fill="none" stroke="#003a50" stroke-miterlimit="10"/><rect x="558.91" y="285.69" width="4.48" height="4.56" fill="#fff"/><rect x="558.91" y="285.69" width="4.48" height="4.56" fill="none" stroke="#003a50" stroke-miterlimit="10"/><rect x="558.91" y="326.24" width="4.48" height="4.56" fill="#fff"/><rect x="558.91" y="326.24" width="4.48" height="4.56" fill="none" stroke="#003a50" stroke-miterlimit="10"/><g clip-path="url(#clip-path)"><path d="M558.91,326.24h-2.86c-19.83,0-32.57-16.12-32.57-36h35.43" fill="none" stroke="#003a50" stroke-miterlimit="10"/></g><rect x="558.83" y="387.55" width="4.56" height="79.01" fill="#fff"/><rect x="558.83" y="387.55" width="4.56" height="79.01" fill="none" stroke="#003a50" stroke-miterlimit="10"/><line x1="561.11" y1="466.56" x2="561.11" y2="387.55" fill="none" stroke="#003a50" stroke-miterlimit="10"/><rect x="558.83" y="462.58" width="4.56" height="3.99" fill="#fff"/><rect x="558.83" y="462.58" width="4.56" height="3.99" fill="none" stroke="#003a50" stroke-miterlimit="10"/><rect x="558.83" y="387.55" width="4.56" height="3.99" fill="#fff"/><rect x="558.83" y="387.55" width="4.56" height="3.99" fill="none" stroke="#003a50" stroke-miterlimit="10"/><rect x="558.83" y="423.09" width="4.56" height="3.99" fill="#fff"/><rect x="558.83" y="423.09" width="4.56" height="3.99" fill="none" stroke="#003a50" stroke-miterlimit="10"/><g clip-path="url(#clip-path)"><path d="M558.83,423.09h-2.9c-20.15,0-33.1-14.12-33.1-31.55h36" fill="none" stroke="#003a50" stroke-miterlimit="10"/></g><rect x="412.2" y="254.23" width="102.05" height="16.75" fill="none" stroke="#003a50" stroke-miterlimit="10"/><polygon points="420.23 263.13 463.12 259.66 506.23 263.13 506.23 265.55 420.23 265.55 420.23 263.13" fill="none" stroke="#003a50" stroke-miterlimit="10"/><rect x="428.11" y="195.72" width="113.67" height="52.33" fill="none" stroke="#003a50" stroke-miterlimit="10"/><g clip-path="url(#clip-path)"><path d="M437.82,204.66v34.05a2.1,2.1,0,0,0,2.1,2.1h67.63V202.56H439.92A2.1,2.1,0,0,0,437.82,204.66Z" fill="none" stroke="#003a50" stroke-miterlimit="10"/></g><rect x="493.69" y="202.56" width="13.85" height="38.26" fill="none" stroke="#003a50" stroke-miterlimit="10"/><g clip-path="url(#clip-path)"><path d="M534,204.37v34.3a2.2,2.2,0,0,1-2.21,2.2H513.36a2.2,2.2,0,0,1-2.2-2.2v-34.3a2.21,2.21,0,0,1,2.2-2.21h18.47A2.21,2.21,0,0,1,534,204.37Z" fill="none" stroke="#003a50" stroke-miterlimit="10"/></g><rect x="235.03" y="449" width="103.02" height="25.39" fill="none" stroke="#003a50" stroke-miterlimit="10"/><g clip-path="url(#clip-path)"><rect x="252.89" y="451.07" width="24.4" height="25.04" rx="2.83" fill="none" stroke="#003a50" stroke-miterlimit="10"/><path d="M265.09,461.67a1.92,1.92,0,1,0,1.91,1.92A1.91,1.91,0,0,0,265.09,461.67Z" fill="none" stroke="#003a50" stroke-miterlimit="10"/><rect x="295.62" y="451.07" width="24.4" height="25.04" rx="2.83" fill="none" stroke="#003a50" stroke-miterlimit="10"/><path d="M307.82,461.67a1.92,1.92,0,1,0,1.91,1.92A1.91,1.91,0,0,0,307.82,461.67Z" fill="none" stroke="#003a50" stroke-miterlimit="10"/></g><rect x="194.02" y="379.1" width="40.48" height="94.87" fill="none" stroke="#003a50" stroke-miterlimit="10"/><g clip-path="url(#clip-path)"><rect x="199.16" y="382.97" width="30.6" height="87.38" rx="13.7" fill="none" stroke="#003a50" stroke-miterlimit="10"/><circle cx="216.12" cy="454.91" r="2.28" fill="none" stroke="#003a50" stroke-miterlimit="10"/><path d="M273.49,407.75V379.19H250.41v28.56a11.54,11.54,0,0,0,23.08,0Z" fill="none" stroke="#003a50" stroke-miterlimit="10"/></g><rect x="250.41" y="379.19" width="23.08" height="11.08" fill="none" stroke="#003a50" stroke-miterlimit="10"/><g clip-path="url(#clip-path)"><path d="M115.37,97.11a1.26,1.26,0,0,1-1.21,1.31A13.79,13.79,0,0,0,115.23,126a1.26,1.26,0,1,1,.1,2.51,16.3,16.3,0,0,1-1.27-32.58A1.27,1.27,0,0,1,115.37,97.11Z" fill="none" stroke="#003a50" stroke-miterlimit="10"/><path d="M122.31,134.67a1.25,1.25,0,0,1,.87,1.55,13.78,13.78,0,0,0,26.53,7.5,1.26,1.26,0,0,1,1.56-.87,1.24,1.24,0,0,1,.86,1.55,16.3,16.3,0,1,1-31.37-8.86A1.26,1.26,0,0,1,122.31,134.67Z" fill="none" stroke="#003a50" stroke-miterlimit="10"/><path d="M160.09,139a1.26,1.26,0,0,1,1.74-.35,13.78,13.78,0,1,0,15.33-22.91,1.26,1.26,0,0,1,1.4-2.1,16.3,16.3,0,1,1-18.12,27.1A1.25,1.25,0,0,1,160.09,139Z" fill="none" stroke="#003a50" stroke-miterlimit="10"/><path d="M177.27,104.46a1.26,1.26,0,0,1,.21-1.77A13.78,13.78,0,1,0,160.42,81a1.26,1.26,0,0,1-1.56-2A16.3,16.3,0,0,1,179,104.67,1.26,1.26,0,0,1,177.27,104.46Z" fill="none" stroke="#003a50" stroke-miterlimit="10"/><path d="M148.44,80.41a1.27,1.27,0,0,1-.85-1.56,13.79,13.79,0,1,0-26.46-7.75,1.26,1.26,0,0,1-2.41-.71A16.3,16.3,0,0,1,150,79.55,1.26,1.26,0,0,1,148.44,80.41Z" fill="none" stroke="#003a50" stroke-miterlimit="10"/><path d="M125.2,124.43l-9.36.36a12.65,12.65,0,1,1-1-25.28l9-.32a23.7,23.7,0,0,0,1.28,25.24Z" fill="none" stroke="#003a50" stroke-miterlimit="10"/><path d="M151.36,133.67l-2.56,9.08a12.65,12.65,0,1,1-24.36-6.84l2.6-9.2a23.6,23.6,0,0,0,24.32,7Z" fill="none" stroke="#003a50" stroke-miterlimit="10"/><path d="M179.44,133.87a12.67,12.67,0,0,1-17.52,3.52l-7.28-4.88a23.88,23.88,0,0,0,13.12-15.24,24.8,24.8,0,0,0,.84-5.84l7.36,4.92A12.63,12.63,0,0,1,179.44,133.87Z" fill="none" stroke="#003a50" stroke-miterlimit="10"/><path d="M176.24,102.23l-7.72,6.08a23.88,23.88,0,0,0-15.56-20l7.64-6a12.65,12.65,0,1,1,15.64,19.88Z" fill="none" stroke="#003a50" stroke-miterlimit="10"/><path d="M146.32,79.15,144,86.91A23.58,23.58,0,0,0,135,89l-15.28-4.48a1.21,1.21,0,0,1-.84-1.52l3.08-10.64a12.87,12.87,0,0,1,13.2-9.4A12.67,12.67,0,0,1,146.32,79.15Z" fill="none" stroke="#003a50" stroke-miterlimit="10"/><path d="M168.6,111.43a24.8,24.8,0,0,1-.84,5.84,23.88,23.88,0,0,1-13.12,15.24,24.6,24.6,0,0,1-3.28,1.16,23.6,23.6,0,0,1-24.32-7,25.46,25.46,0,0,1-1.84-2.28,23.7,23.7,0,0,1-1.28-25.24A24,24,0,0,1,135,89a23.84,23.84,0,0,1,16.32-1.24c.56.16,1.12.36,1.68.56a23.88,23.88,0,0,1,15.56,20A27.09,27.09,0,0,1,168.6,111.43Z" fill="none" stroke="#003a50" stroke-miterlimit="10"/></g><rect x="16.34" y="82.89" width="34.02" height="165.04" fill="none" stroke="#003a50" stroke-miterlimit="10"/><rect x="344.87" y="379.1" width="31.72" height="94.81" fill="none" stroke="#003a50" stroke-miterlimit="10"/><g clip-path="url(#clip-path)"><path d="M204,283.48V254.63H181.24v28.85a11.4,11.4,0,1,0,22.79,0Z" fill="none" stroke="#003a50" stroke-miterlimit="10"/></g><line x1="181.24" y1="265.86" x2="204.03" y2="265.86" fill="none" stroke="#003a50" stroke-miterlimit="10"/><rect x="162.28" y="329.35" width="90.98" height="43.38" fill="none" stroke="#003a50" stroke-miterlimit="10"/><g clip-path="url(#clip-path)"><path d="M182.93,334.72h49.69A16.26,16.26,0,0,1,248.88,351v.11a16.26,16.26,0,0,1-16.26,16.26H182.93a16.26,16.26,0,0,1-16.26-16.26V351A16.25,16.25,0,0,1,182.93,334.72Z" fill="none" stroke="#003a50" stroke-miterlimit="10"/><path d="M184.88,351a2.35,2.35,0,1,1-2.35-2.35A2.35,2.35,0,0,1,184.88,351Z" fill="none" stroke="#003a50" stroke-miterlimit="10"/></g><rect x="225.66" y="281.13" width="27.58" height="48.22" fill="none" stroke="#003a50" stroke-miterlimit="10"/><g clip-path="url(#clip-path)"><rect x="228.09" y="295.66" width="29.71" height="28.96" rx="3.36" fill="none" stroke="#003a50" stroke-miterlimit="10"/><circle cx="242.94" cy="310.13" r="2.27" transform="translate(-114.71 475.32) rotate(-76.72)" fill="none" stroke="#003a50" stroke-miterlimit="10"/></g><rect x="16.35" y="165.37" width="34.02" height="34.02" fill="none" stroke="#003a50" stroke-miterlimit="10"/><line x1="33.35" y1="184.39" x2="33.35" y2="194.95" fill="none" stroke="#003a50" stroke-miterlimit="10"/><g clip-path="url(#clip-path)"><path d="M34.26,184.39H32.44A3.39,3.39,0,0,1,29.05,181V169.8h8.6V181A3.39,3.39,0,0,1,34.26,184.39Z" fill="none" stroke="#003a50" stroke-miterlimit="10"/></g><line x1="29.87" y1="194.95" x2="36.82" y2="194.95" fill="none" stroke="#003a50" stroke-miterlimit="10"/><rect x="16.34" y="116.31" width="34.02" height="34.02" fill="none" stroke="#003a50" stroke-miterlimit="10"/><g clip-path="url(#clip-path)"><path d="M45.76,140.9a4.69,4.69,0,1,1-4.69-4.69A4.69,4.69,0,0,1,45.76,140.9Z" fill="none" stroke="#003a50" stroke-miterlimit="10"/><path d="M30.32,140.9a4.69,4.69,0,1,1-4.69-4.69A4.69,4.69,0,0,1,30.32,140.9Z" fill="none" stroke="#003a50" stroke-miterlimit="10"/><path d="M45.76,125.73A4.69,4.69,0,1,1,41.07,121,4.69,4.69,0,0,1,45.76,125.73Z" fill="none" stroke="#003a50" stroke-miterlimit="10"/><path d="M30.32,125.73A4.69,4.69,0,1,1,25.63,121,4.69,4.69,0,0,1,30.32,125.73Z" fill="none" stroke="#003a50" stroke-miterlimit="10"/></g><rect x="41.6" y="330.02" width="34.02" height="34.02" fill="none" stroke="#003a50" stroke-miterlimit="10"/><g clip-path="url(#clip-path)"><path d="M64,338.72H61.88a3.07,3.07,0,0,1-5.72,0H53.37l-5.28,3,2.53,4L53,344.47v10.86H64.36V344.47l2.38,1.27,2.53-4Z" fill="none" stroke="#003a50" stroke-miterlimit="10"/></g><rect x="16.34" y="82.89" width="34.02" height="33.41" fill="none" stroke="#003a50" stroke-miterlimit="10"/><line x1="33.35" y1="109.41" x2="33.35" y2="89.8" fill="none" stroke="#003a50" stroke-miterlimit="10"/><line x1="43.33" y1="99.6" x2="23.37" y2="99.6" fill="none" stroke="#003a50" stroke-miterlimit="10"/><line x1="40.41" y1="106.53" x2="26.29" y2="92.67" fill="none" stroke="#003a50" stroke-miterlimit="10"/><line x1="40.41" y1="92.67" x2="26.29" y2="106.54" fill="none" stroke="#003a50" stroke-miterlimit="10"/><g clip-path="url(#clip-path)"><rect x="25.23" y="208.84" width="21.66" height="30.06" rx="3.36" fill="none" stroke="#003a50" stroke-miterlimit="10"/><circle cx="32.27" cy="223.87" r="2.46" transform="translate(-192.83 245.96) rotate(-87.4)" fill="none" stroke="#003a50" stroke-miterlimit="10"/></g><line x1="33.03" y1="223.87" x2="19.41" y2="223.87" fill="none" stroke="#003a50" stroke-miterlimit="10"/><line x1="19.41" y1="217.06" x2="19.41" y2="230.68" fill="none" stroke="#003a50" stroke-miterlimit="10"/><rect x="85.21" y="439.99" width="70.69" height="34.02" fill="none" stroke="#003a50" stroke-miterlimit="10"/><g clip-path="url(#clip-path)"><path d="M110.54,444.81a1,1,0,0,1,1.9-.44,28.77,28.77,0,0,1,0,25.26,1,1,0,0,1-1.8-.89,26.72,26.72,0,0,0,0-23.49A1,1,0,0,1,110.54,444.81Z" fill="none" stroke="#003a50" stroke-miterlimit="10"/><path d="M116.1,444.81a1,1,0,0,1,1.91-.44,28.77,28.77,0,0,1,0,25.26,1,1,0,0,1-1.34.45,1,1,0,0,1-.46-1.34,26.81,26.81,0,0,0,0-23.49A1,1,0,0,1,116.1,444.81Z" fill="none" stroke="#003a50" stroke-miterlimit="10"/><path d="M121.67,444.81a1,1,0,0,1,1.9-.44,28.77,28.77,0,0,1,0,25.26,1,1,0,0,1-1.8-.89,26.72,26.72,0,0,0,0-23.49A1,1,0,0,1,121.67,444.81Z" fill="none" stroke="#003a50" stroke-miterlimit="10"/><path d="M127.23,444.81a1,1,0,0,1,1.91-.44,28.77,28.77,0,0,1,0,25.26,1,1,0,0,1-1.34.45,1,1,0,0,1-.46-1.34,26.81,26.81,0,0,0,0-23.49A1,1,0,0,1,127.23,444.81Z" fill="none" stroke="#003a50" stroke-miterlimit="10"/><path d="M132.8,444.81a1,1,0,0,1,1.9-.44,28.77,28.77,0,0,1,0,25.26,1,1,0,0,1-1.8-.89,26.72,26.72,0,0,0,0-23.49A1,1,0,0,1,132.8,444.81Z" fill="none" stroke="#003a50" stroke-miterlimit="10"/><path d="M138.37,444.81a1,1,0,0,1,.56-.9,1,1,0,0,1,1.34.46,28.77,28.77,0,0,1,0,25.26,1,1,0,0,1-1.8-.89,26.72,26.72,0,0,0,0-23.49A1,1,0,0,1,138.37,444.81Z" fill="none" stroke="#003a50" stroke-miterlimit="10"/><path d="M105,444.81a1,1,0,0,1,1.91-.44,28.77,28.77,0,0,1,0,25.26,1,1,0,0,1-1.34.45,1,1,0,0,1-.46-1.34,26.81,26.81,0,0,0,0-23.49A1,1,0,0,1,105,444.81Z" fill="none" stroke="#003a50" stroke-miterlimit="10"/><path d="M99.41,444.81a1,1,0,0,1,1.9-.44,28.77,28.77,0,0,1,0,25.26,1,1,0,0,1-1.8-.89,26.72,26.72,0,0,0,0-23.49A1,1,0,0,1,99.41,444.81Z" fill="none" stroke="#003a50" stroke-miterlimit="10"/></g><line x1="85.56" y1="457" x2="155.91" y2="457" fill="none" stroke="#003a50" stroke-miterlimit="10"/><rect x="41.6" y="254.19" width="34.02" height="75.73" fill="none" stroke="#003a50" stroke-miterlimit="10"/><g clip-path="url(#clip-path)"><path d="M46.43,299.56a1,1,0,0,1-.9-.56,1,1,0,0,1,.45-1.35,28.77,28.77,0,0,1,25.26,0A1,1,0,0,1,71.7,299a1,1,0,0,1-1.34.46,26.81,26.81,0,0,0-23.49,0A1,1,0,0,1,46.43,299.56Z" fill="none" stroke="#003a50" stroke-miterlimit="10"/><path d="M46.43,294a1,1,0,0,1-.45-1.9,28.77,28.77,0,0,1,25.26,0,1,1,0,0,1-.88,1.8,26.72,26.72,0,0,0-23.49,0A1,1,0,0,1,46.43,294Z" fill="none" stroke="#003a50" stroke-miterlimit="10"/><path d="M46.43,288.42a1,1,0,0,1-.9-.56,1,1,0,0,1,.45-1.34,28.77,28.77,0,0,1,25.26,0,1,1,0,0,1-.88,1.8,26.72,26.72,0,0,0-23.49,0A1,1,0,0,1,46.43,288.42Z" fill="none" stroke="#003a50" stroke-miterlimit="10"/><path d="M46.43,282.86A1,1,0,0,1,46,281a28.77,28.77,0,0,1,25.26,0,1,1,0,0,1-.88,1.8,26.72,26.72,0,0,0-23.49,0A1,1,0,0,1,46.43,282.86Z" fill="none" stroke="#003a50" stroke-miterlimit="10"/><path d="M46.43,277.29a1,1,0,0,1-.9-.56,1,1,0,0,1,.45-1.34,28.77,28.77,0,0,1,25.26,0,1,1,0,0,1-.88,1.8,26.72,26.72,0,0,0-23.49,0A1,1,0,0,1,46.43,277.29Z" fill="none" stroke="#003a50" stroke-miterlimit="10"/><path d="M46.43,271.73a1,1,0,0,1-.9-.56,1,1,0,0,1,.45-1.35,28.77,28.77,0,0,1,25.26,0,1,1,0,0,1,.46,1.34,1,1,0,0,1-1.34.46,26.81,26.81,0,0,0-23.49,0A.9.9,0,0,1,46.43,271.73Z" fill="none" stroke="#003a50" stroke-miterlimit="10"/><path d="M46.43,305.12a1,1,0,0,1-.45-1.9,28.77,28.77,0,0,1,25.26,0,1,1,0,1,1-.88,1.8,26.72,26.72,0,0,0-23.49,0A1,1,0,0,1,46.43,305.12Z" fill="none" stroke="#003a50" stroke-miterlimit="10"/><path d="M46.43,310.69a1,1,0,0,1-.9-.56,1,1,0,0,1,.45-1.35,28.77,28.77,0,0,1,25.26,0,1,1,0,0,1,.46,1.34,1,1,0,0,1-1.34.46,26.81,26.81,0,0,0-23.49,0A1,1,0,0,1,46.43,310.69Z" fill="none" stroke="#003a50" stroke-miterlimit="10"/></g><line x1="58.61" y1="330.02" x2="58.61" y2="254.19" fill="none" stroke="#003a50" stroke-miterlimit="10"/><rect x="155.91" y="379.01" width="31.48" height="95.25" fill="none" stroke="#003a50" stroke-miterlimit="10"/><g clip-path="url(#clip-path)"><path d="M159.46,457a1,1,0,0,1-.45-1.9,28.77,28.77,0,0,1,25.26,0,1,1,0,1,1-.88,1.8,26.72,26.72,0,0,0-23.49,0A1,1,0,0,1,159.46,457Z" fill="none" stroke="#003a50" stroke-miterlimit="10"/><path d="M159.46,451.4a1,1,0,0,1-.45-1.91,28.77,28.77,0,0,1,25.26,0,1,1,0,0,1,.46,1.34,1,1,0,0,1-1.34.46,26.81,26.81,0,0,0-23.49,0A.87.87,0,0,1,159.46,451.4Z" fill="none" stroke="#003a50" stroke-miterlimit="10"/><path d="M159.46,445.83a1,1,0,0,1-.45-1.9,28.77,28.77,0,0,1,25.26,0,1,1,0,0,1-.88,1.8,26.72,26.72,0,0,0-23.49,0A1,1,0,0,1,159.46,445.83Z" fill="none" stroke="#003a50" stroke-miterlimit="10"/><path d="M159.46,440.27a1,1,0,0,1-.45-1.91,28.77,28.77,0,0,1,25.26,0,1,1,0,0,1,.46,1.34,1,1,0,0,1-1.34.46,26.81,26.81,0,0,0-23.49,0A1,1,0,0,1,159.46,440.27Z" fill="none" stroke="#003a50" stroke-miterlimit="10"/><path d="M159.46,434.7a1,1,0,0,1-.45-1.9,28.77,28.77,0,0,1,25.26,0,1,1,0,0,1-.88,1.8,26.72,26.72,0,0,0-23.49,0A1,1,0,0,1,159.46,434.7Z" fill="none" stroke="#003a50" stroke-miterlimit="10"/><path d="M159.46,429.14a1,1,0,0,1-.45-1.91,28.77,28.77,0,0,1,25.26,0,1,1,0,0,1,.46,1.34,1,1,0,0,1-1.34.46,26.81,26.81,0,0,0-23.49,0A1,1,0,0,1,159.46,429.14Z" fill="none" stroke="#003a50" stroke-miterlimit="10"/><path d="M159.46,462.53a1,1,0,0,1-.45-1.91,28.77,28.77,0,0,1,25.26,0,1,1,0,0,1,.46,1.34,1,1,0,0,1-1.34.46,26.81,26.81,0,0,0-23.49,0A.87.87,0,0,1,159.46,462.53Z" fill="none" stroke="#003a50" stroke-miterlimit="10"/><path d="M159.46,468.09a1,1,0,0,1-.45-1.9,28.77,28.77,0,0,1,25.26,0,1,1,0,1,1-.88,1.8,26.72,26.72,0,0,0-23.49,0A1,1,0,0,1,159.46,468.09Z" fill="none" stroke="#003a50" stroke-miterlimit="10"/></g><line x1="171.64" y1="474.08" x2="171.64" y2="379.19" fill="none" stroke="#003a50" stroke-miterlimit="10"/><g clip-path="url(#clip-path)"><path d="M349.37,457.94a.93.93,0,0,1-.41-1.77,26.85,26.85,0,0,1,23.55,0,.94.94,0,0,1,.43,1.25,1,1,0,0,1-1.26.43,24.87,24.87,0,0,0-21.9,0A1,1,0,0,1,349.37,457.94Z" fill="none" stroke="#003a50" stroke-miterlimit="10"/><path d="M349.37,452.75A.93.93,0,0,1,349,451a26.85,26.85,0,0,1,23.55,0,.94.94,0,0,1,.43,1.25,1,1,0,0,1-1.26.43,24.87,24.87,0,0,0-21.9,0A1,1,0,0,1,349.37,452.75Z" fill="none" stroke="#003a50" stroke-miterlimit="10"/><path d="M349.37,447.56a.93.93,0,0,1-.84-.52.94.94,0,0,1,.43-1.25,26.85,26.85,0,0,1,23.55,0,.94.94,0,1,1-.83,1.68,25,25,0,0,0-21.9,0A.85.85,0,0,1,349.37,447.56Z" fill="none" stroke="#003a50" stroke-miterlimit="10"/><path d="M349.37,442.37a.93.93,0,0,1-.84-.52.94.94,0,0,1,.43-1.25,26.85,26.85,0,0,1,23.55,0,.94.94,0,1,1-.83,1.68,25,25,0,0,0-21.9,0A.85.85,0,0,1,349.37,442.37Z" fill="none" stroke="#003a50" stroke-miterlimit="10"/><path d="M349.37,437.19a.94.94,0,0,1-.41-1.78,26.85,26.85,0,0,1,23.55,0,.94.94,0,1,1-.83,1.68,25,25,0,0,0-21.9,0A.86.86,0,0,1,349.37,437.19Z" fill="none" stroke="#003a50" stroke-miterlimit="10"/><path d="M349.37,432a.94.94,0,0,1-.41-1.78,26.85,26.85,0,0,1,23.55,0,.94.94,0,1,1-.83,1.68,25,25,0,0,0-21.9,0A.86.86,0,0,1,349.37,432Z" fill="none" stroke="#003a50" stroke-miterlimit="10"/><path d="M349.37,463.13a.93.93,0,0,1-.84-.52,1,1,0,0,1,.43-1.26,26.85,26.85,0,0,1,23.55,0,1,1,0,0,1,.43,1.26.94.94,0,0,1-1.26.42,25,25,0,0,0-21.9,0A.86.86,0,0,1,349.37,463.13Z" fill="none" stroke="#003a50" stroke-miterlimit="10"/><path d="M349.37,468.32a.93.93,0,0,1-.84-.52,1,1,0,0,1,.43-1.26,26.85,26.85,0,0,1,23.55,0,1,1,0,0,1,.43,1.26.94.94,0,0,1-1.26.42,25,25,0,0,0-21.9,0A.86.86,0,0,1,349.37,468.32Z" fill="none" stroke="#003a50" stroke-miterlimit="10"/></g><line x1="360.73" y1="473.9" x2="360.73" y2="379.1" fill="none" stroke="#003a50" stroke-miterlimit="10"/><rect x="367.94" y="51.42" width="34.02" height="113.38" fill="none" stroke="#003a50" stroke-miterlimit="10"/><g clip-path="url(#clip-path)"><path d="M372.76,147a1,1,0,0,1-.45-1.9,28.77,28.77,0,0,1,25.26,0,1,1,0,0,1-.88,1.8,26.72,26.72,0,0,0-23.49,0A1,1,0,0,1,372.76,147Z" fill="none" stroke="#003a50" stroke-miterlimit="10"/><path d="M372.76,141.43a1,1,0,0,1-.45-1.91,28.77,28.77,0,0,1,25.26,0,1,1,0,0,1,.46,1.34,1,1,0,0,1-1.34.46,26.81,26.81,0,0,0-23.49,0A1,1,0,0,1,372.76,141.43Z" fill="none" stroke="#003a50" stroke-miterlimit="10"/><path d="M372.76,135.86a1,1,0,0,1-.45-1.9,28.77,28.77,0,0,1,25.26,0,1,1,0,0,1-.88,1.8,26.72,26.72,0,0,0-23.49,0A1,1,0,0,1,372.76,135.86Z" fill="none" stroke="#003a50" stroke-miterlimit="10"/><path d="M372.76,130.3a1,1,0,0,1-.45-1.91,28.77,28.77,0,0,1,25.26,0,1,1,0,0,1,.46,1.34,1,1,0,0,1-1.34.46,26.81,26.81,0,0,0-23.49,0A1,1,0,0,1,372.76,130.3Z" fill="none" stroke="#003a50" stroke-miterlimit="10"/><path d="M372.76,124.73a1,1,0,0,1-.45-1.9,28.77,28.77,0,0,1,25.26,0,1,1,0,1,1-.88,1.8,26.72,26.72,0,0,0-23.49,0A1,1,0,0,1,372.76,124.73Z" fill="none" stroke="#003a50" stroke-miterlimit="10"/><path d="M372.76,119.17a1,1,0,0,1-.45-1.91,28.77,28.77,0,0,1,25.26,0,1,1,0,0,1,.46,1.34,1,1,0,0,1-1.34.46,26.81,26.81,0,0,0-23.49,0A1,1,0,0,1,372.76,119.17Z" fill="none" stroke="#003a50" stroke-miterlimit="10"/><path d="M372.76,152.56a1,1,0,0,1-.45-1.91,28.77,28.77,0,0,1,25.26,0A1,1,0,0,1,398,152a1,1,0,0,1-1.34.46,26.81,26.81,0,0,0-23.49,0A.87.87,0,0,1,372.76,152.56Z" fill="none" stroke="#003a50" stroke-miterlimit="10"/><path d="M372.76,158.12a1,1,0,0,1-.45-1.9,28.77,28.77,0,0,1,25.26,0,1,1,0,0,1-.88,1.8,26.72,26.72,0,0,0-23.49,0A1,1,0,0,1,372.76,158.12Z" fill="none" stroke="#003a50" stroke-miterlimit="10"/></g><line x1="384.94" y1="164.11" x2="384.94" y2="51.42" fill="none" stroke="#003a50" stroke-miterlimit="10"/><rect x="384.73" y="451.22" width="22.68" height="22.68" fill="none" stroke="#003a50" stroke-miterlimit="10"/><g clip-path="url(#clip-path)"><circle cx="396.07" cy="462.56" r="9.2" fill="none" stroke="#003a50" stroke-miterlimit="10"/><path d="M403.19,468.37c-1.69-.17-3.41.48-5.06-1.17-2.44-2.44.14-5-2.3-7.46s-5,.14-7.46-2.3" fill="none" stroke="#003a50" stroke-miterlimit="10"/><path d="M298.66,122.66h-41V76.89h43.25v43.56A2.21,2.21,0,0,1,298.66,122.66Z" fill="none" stroke="#003a50" stroke-miterlimit="10"/><path d="M298.88,168.53H257.62V122.76h41.26a2,2,0,0,1,2,2v41.81A2,2,0,0,1,298.88,168.53Z" fill="none" stroke="#003a50" stroke-miterlimit="10"/><path d="M300.87,76.89a3.11,3.11,0,0,0,2.83-3.33V69.34A3.11,3.11,0,0,0,300.87,66h-48.2V179.4h47.78a3.1,3.1,0,0,0,2.83-3.32v-4.22a3.11,3.11,0,0,0-2.83-3.33H257.62V76.89Z" fill="none" stroke="#003a50" stroke-miterlimit="10"/></g><rect x="257.62" y="76.89" width="9.25" height="91.64" fill="none" stroke="#003a50" stroke-miterlimit="10"/><rect x="344.27" y="71.89" width="17.01" height="101.63" fill="none" stroke="#003a50" stroke-miterlimit="10"/><polygon points="352.24 165.71 349.79 165.71 349.79 79.71 352.24 79.71 355.78 122.71 352.24 165.71" fill="none" stroke="#003a50" stroke-miterlimit="10"/><g clip-path="url(#clip-path)"><path d="M477.06,84a14.78,14.78,0,0,0,23.39,15.93,1.14,1.14,0,0,0,.17-1.61,1.13,1.13,0,0,0-1.6-.17A12.47,12.47,0,0,1,479.52,84Z" fill="none" stroke="#003a50" stroke-miterlimit="10"/><rect x="447.29" y="49.97" width="84.03" height="34.02" rx="3.31" fill="none" stroke="#003a50" stroke-miterlimit="10"/><path d="M449.84,53.68a1.4,1.4,0,0,0,1.39,1.4h76.15a1.4,1.4,0,0,0,0-2.79H451.23a1.39,1.39,0,0,0-1.39,1.39" fill="none" stroke="#003a50" stroke-miterlimit="10"/><path d="M517.65,68.26a5.5,5.5,0,1,1,7.78,0A5.49,5.49,0,0,1,517.65,68.26Z" fill="none" stroke="#003a50" stroke-miterlimit="10"/><path d="M518.06,68.63c.1-1-.29-2,.7-3,1.46-1.46,3,.09,4.47-1.38s-.09-3,1.38-4.47" fill="none" stroke="#003a50" stroke-miterlimit="10"/><path d="M481.77,84a10.64,10.64,0,1,0,19.6,0Z" fill="none" stroke="#003a50" stroke-miterlimit="10"/></g><rect x="412.2" y="360.51" width="102.05" height="113.39" fill="none" stroke="#003a50" stroke-miterlimit="10"/><g clip-path="url(#clip-path)"><path d="M422.2,370.25h82.05a2.09,2.09,0,0,1,2.09,2.08V440H420.12V372.33A2.08,2.08,0,0,1,422.2,370.25Z" fill="none" stroke="#003a50" stroke-miterlimit="10"/><rect x="464.09" y="443.59" width="42.5" height="22.88" rx="1.98" fill="none" stroke="#003a50" stroke-miterlimit="10"/><rect x="419.87" y="443.59" width="42.5" height="22.88" rx="1.98" fill="none" stroke="#003a50" stroke-miterlimit="10"/></g><line x1="419.87" y1="426.12" x2="506.59" y2="426.12" fill="none" stroke="#003a50" stroke-miterlimit="10"/><g clip-path="url(#clip-path)"><path d="M159.53,286h-3.07a38.71,38.71,0,0,0-38.72,38.71h41.79" fill="none" stroke="#003a50" stroke-miterlimit="10" stroke-width="1.6"/><path d="M293.5,378.45v-3.08a38.71,38.71,0,0,1,38.71-38.71v41.79" fill="none" stroke="#003a50" stroke-miterlimit="10" stroke-width="1.6"/><path d="M358.6,250.72v3.6a45.3,45.3,0,0,1-45.3,45.3v-48.9" fill="none" stroke="#003a50" stroke-miterlimit="10" stroke-width="1.6"/><path d="M364,194.56h3.43a43.18,43.18,0,0,1,43.18,43.18H364" fill="none" stroke="#003a50" stroke-miterlimit="10" stroke-width="1.6"/><path d="M-43.76,431.71h3.88A48.89,48.89,0,0,0,9,382.83H-43.76" fill="none" stroke="#003a50" stroke-miterlimit="10" stroke-width="1.6"/><path d="M72.45,437.18H68.56a48.89,48.89,0,0,1-48.89-48.89H72.45" fill="none" stroke="#003a50" stroke-miterlimit="10" stroke-width="1.6"/><polygon points="-66.36 51.14 29.38 51.14 29.38 1.8 -66.36 13.47 -66.36 51.14" fill="#003a50" fill-rule="evenodd"/><rect x="186.12" y="3.3" width="26.7" height="47.83" fill="#003a50"/><rect x="117.15" y="17.14" width="91.66" height="34" fill="#003a50"/><rect x="-55.07" y="29.97" width="77.33" height="27.33" fill="#003a50"/><polygon points="299.88 51.14 397.64 51.14 397.64 1.8 299.88 13.47 299.88 51.14" fill="#003a50" fill-rule="evenodd"/><rect x="311.17" y="29.97" width="77.33" height="27.33" fill="#003a50"/><rect x="74.78" y="474.28" width="488" height="13.79" fill="#003a50"/><rect x="-56.72" y="363.65" width="142" height="16.69" fill="#003a50"/><rect x="68.97" y="372.19" width="16.32" height="16.79" fill="#003a50"/><rect x="68.97" y="436.23" width="16.32" height="145.23" fill="#003a50"/><rect x="-0.25" y="52.94" width="16.32" height="314.78" fill="#003a50"/><rect x="268.51" y="247.97" width="16.32" height="83.12" fill="#003a50"/><polygon points="547.75 561.84 547.75 466.1 597.08 466.1 585.42 561.84 547.75 561.84" fill="#003a50" fill-rule="evenodd"/><polygon points="547.75 285.69 547.75 189.95 597.08 189.95 585.42 285.69 547.75 285.69" fill="#003a50" fill-rule="evenodd"/><rect x="547.75" y="362.03" width="48.33" height="25.9" fill="#003a50"/><rect x="541.78" y="209.72" width="11.25" height="75.96" fill="#003a50"/><rect x="541.78" y="468.05" width="11.25" height="77.3" fill="#003a50"/><rect x="547.41" y="16.1" width="35.34" height="33.75" fill="#003a50"/><rect x="488.63" y="16.1" width="95.56" height="33.75" fill="#003a50"/><rect x="373.67" y="15.16" width="26.48" height="35.97" fill="#003a50"/><rect x="488.63" y="3.53" width="107.45" height="30.92" fill="#003a50"/><rect x="155.91" y="247.97" width="6.38" height="38.82" fill="#003a50"/><rect x="14.54" y="247.97" width="70.74" height="6.38" fill="#003a50"/><rect x="14.54" y="279.57" width="25.64" height="6.38" fill="#003a50"/><rect x="155.91" y="323.83" width="6.38" height="52.71" fill="#003a50"/><rect x="155.91" y="372.72" width="138.43" height="6.38" fill="#003a50"/><rect x="331.38" y="372.72" width="45.47" height="6.38" fill="#003a50"/><rect x="338.38" y="374.54" width="6.38" height="102.25" fill="#003a50"/><rect x="187.71" y="374.04" width="6.38" height="102.75" fill="#003a50"/><rect x="268.52" y="307.25" width="6.38" height="69.54" fill="#003a50"/><rect x="244.18" y="252.02" width="6.38" height="29.12" fill="#003a50"/><rect x="253.27" y="276.45" width="6.38" height="100.33" fill="#003a50"/><rect x="358.19" y="247.97" width="190.58" height="6.38" fill="#003a50"/><rect x="155.91" y="247.97" width="158.22" height="6.38" fill="#003a50"/><rect x="244.18" y="274.75" width="31.09" height="6.38" fill="#003a50"/><rect x="361.28" y="52.54" width="6.38" height="142.86" fill="#003a50"/><rect x="361.28" y="236.98" width="6.38" height="15.18" fill="#003a50"/><rect x="78.91" y="251.37" width="6.38" height="41.17" fill="#003a50"/><rect x="35.08" y="251.37" width="6.38" height="118.66" fill="#003a50"/><rect x="-24.07" y="327.45" width="25.64" height="6.38" fill="#003a50"/><rect x="-123.89" y="244.75" width="125.47" height="6.38" fill="#003a50"/><rect x="78.91" y="346.04" width="6.38" height="25.17" fill="#003a50"/><rect x="114.04" y="478.79" width="6.38" height="92.32" fill="#003a50"/><line x1="376.18" y1="252.12" x2="376.18" y2="254.96" fill="none" stroke="#003a50" stroke-miterlimit="10"/><line x1="376.18" y1="260.73" x2="376.18" y2="373.38" fill="none" stroke="#003a50" stroke-miterlimit="10" stroke-dasharray="5.78 5.78"/><line x1="376.18" y1="376.26" x2="376.18" y2="379.1" fill="none" stroke="#003a50" stroke-miterlimit="10"/><line x1="84.04" y1="249.73" x2="86.87" y2="249.73" fill="none" stroke="#003a50" stroke-miterlimit="10"/><line x1="92.74" y1="249.73" x2="183.7" y2="249.73" fill="none" stroke="#003a50" stroke-miterlimit="10" stroke-dasharray="5.87 5.87"/><line x1="186.64" y1="249.73" x2="189.47" y2="249.73" fill="none" stroke="#003a50" stroke-miterlimit="10"/><rect x="120.89" y="487.91" width="71.66" height="27.38" fill="none" stroke="#003a50" stroke-miterlimit="10"/><rect x="192.55" y="487.69" width="43.96" height="79.58" fill="none" stroke="#003a50" stroke-miterlimit="10"/><path d="M154.28,509.71v-23a3.36,3.36,0,0,1,3.36-3.36h22.24a3.36,3.36,0,0,1,3.36,3.36v23a3.35,3.35,0,0,1-3.36,3.35H157.64A3.35,3.35,0,0,1,154.28,509.71Z" fill="none" stroke="#003a50" stroke-miterlimit="10"/><rect x="236.65" y="478.79" width="6.38" height="94.52" fill="#003a50"/></g><g clip-path="url(#clip-path)"><path d="M413.69,29.07a4.57,4.57,0,0,1-1-3.11,4.61,4.61,0,0,1,1-3.12,4,4,0,0,1,5.74,0,4.61,4.61,0,0,1,1,3.12,4.57,4.57,0,0,1-1,3.11,4,4,0,0,1-5.74,0Zm4.61-1a3.52,3.52,0,0,0,.61-2.14,3.55,3.55,0,0,0-.61-2.15,2.23,2.23,0,0,0-3.47,0,3.53,3.53,0,0,0-.62,2.15,3.52,3.52,0,0,0,.62,2.14,2,2,0,0,0,1.73.83A2.07,2.07,0,0,0,418.3,28.1Z" fill="#003a50"/><path d="M422,30.06a.71.71,0,0,1-.23-.56.75.75,0,0,1,.23-.57.87.87,0,0,1,.61-.21.85.85,0,0,1,.61.21.71.71,0,0,1,.23.57.68.68,0,0,1-.23.56.86.86,0,0,1-.61.22A.88.88,0,0,1,422,30.06Z" fill="#003a50"/><path d="M431.63,24.12h-1.56s0,0,0-.12a1.2,1.2,0,0,0-.15-.31,1.56,1.56,0,0,0-.27-.35,1.27,1.27,0,0,0-.5-.29,2.08,2.08,0,0,0-.71-.12,1.78,1.78,0,0,0-1.52.73,3.11,3.11,0,0,0-.54,1.89h0a1.27,1.27,0,0,1,.31-.3,2.73,2.73,0,0,1,.43-.26,3.14,3.14,0,0,1,.67-.21,4.12,4.12,0,0,1,.86-.09,3.57,3.57,0,0,1,2.38.78,2.49,2.49,0,0,1,.92,2,2.54,2.54,0,0,1-1,2.05,3.92,3.92,0,0,1-2.55.78,3.41,3.41,0,0,1-2.73-1.09,4.53,4.53,0,0,1-.93-3v-.28a4.81,4.81,0,0,1,.93-3,3.18,3.18,0,0,1,2.69-1.21,4.14,4.14,0,0,1,1.5.26,2.69,2.69,0,0,1,1,.66A2.48,2.48,0,0,1,431.63,24.12Zm-1.77,2.22a2.58,2.58,0,0,0-2.79,0,1.33,1.33,0,0,0-.55,1.12,1.31,1.31,0,0,0,.54,1.1,2.26,2.26,0,0,0,1.4.42,2.29,2.29,0,0,0,1.41-.42,1.31,1.31,0,0,0,.54-1.1A1.33,1.33,0,0,0,429.86,26.34Z" fill="#003a50"/><path d="M229.19,29.07a4.57,4.57,0,0,1-1-3.11,4.61,4.61,0,0,1,1-3.12,4,4,0,0,1,5.74,0A4.56,4.56,0,0,1,236,26a4.52,4.52,0,0,1-1,3.11,4,4,0,0,1-5.74,0Zm4.61-1a3.52,3.52,0,0,0,.61-2.14,3.55,3.55,0,0,0-.61-2.15,2.23,2.23,0,0,0-3.47,0,3.53,3.53,0,0,0-.62,2.15,3.52,3.52,0,0,0,.62,2.14,2,2,0,0,0,1.73.83A2.07,2.07,0,0,0,233.8,28.1Z" fill="#003a50"/><path d="M237.52,30.06a.71.71,0,0,1-.23-.56.75.75,0,0,1,.23-.57.88.88,0,0,1,.62-.21.84.84,0,0,1,.6.21.71.71,0,0,1,.23.57.68.68,0,0,1-.23.56.85.85,0,0,1-.6.22A.88.88,0,0,1,237.52,30.06Z" fill="#003a50"/><path d="M247.13,24.12h-1.56s0,0,0-.12a1.2,1.2,0,0,0-.15-.31,1.31,1.31,0,0,0-.27-.35,1.2,1.2,0,0,0-.5-.29,2.08,2.08,0,0,0-.71-.12,1.78,1.78,0,0,0-1.52.73,3.11,3.11,0,0,0-.54,1.89h0a1.27,1.27,0,0,1,.31-.3,2.73,2.73,0,0,1,.43-.26,3.14,3.14,0,0,1,.67-.21,4.12,4.12,0,0,1,.86-.09,3.57,3.57,0,0,1,2.38.78,2.49,2.49,0,0,1,.92,2,2.54,2.54,0,0,1-1,2.05,3.92,3.92,0,0,1-2.55.78,3.41,3.41,0,0,1-2.73-1.09,4.53,4.53,0,0,1-.93-3v-.28a4.81,4.81,0,0,1,.93-3,3.18,3.18,0,0,1,2.69-1.21,4.14,4.14,0,0,1,1.5.26,2.69,2.69,0,0,1,1,.66A2.48,2.48,0,0,1,247.13,24.12Zm-1.77,2.22a2.58,2.58,0,0,0-2.79,0,1.33,1.33,0,0,0-.55,1.12,1.31,1.31,0,0,0,.54,1.1,2.56,2.56,0,0,0,2.81,0,1.31,1.31,0,0,0,.54-1.1A1.33,1.33,0,0,0,245.36,26.34Z" fill="#003a50"/><path d="M43.66,29.07a4.57,4.57,0,0,1-1-3.11,4.61,4.61,0,0,1,1-3.12,4,4,0,0,1,5.74,0,4.61,4.61,0,0,1,1,3.12,4.57,4.57,0,0,1-1,3.11,4,4,0,0,1-5.74,0Zm4.61-1A3.52,3.52,0,0,0,48.88,26a3.55,3.55,0,0,0-.61-2.15A2.07,2.07,0,0,0,46.53,23a2,2,0,0,0-1.73.83A3.47,3.47,0,0,0,44.18,26a3.46,3.46,0,0,0,.62,2.14,2,2,0,0,0,1.73.83A2.07,2.07,0,0,0,48.27,28.1Z" fill="#003a50"/><path d="M52,30.06a.71.71,0,0,1-.23-.56.75.75,0,0,1,.23-.57.87.87,0,0,1,.61-.21.85.85,0,0,1,.61.21.75.75,0,0,1,.23.57.71.71,0,0,1-.23.56.86.86,0,0,1-.61.22A.88.88,0,0,1,52,30.06Z" fill="#003a50"/><path d="M61.6,24.12H60s0,0,0-.12a1.2,1.2,0,0,0-.15-.31,1.91,1.91,0,0,0-.27-.35,1.27,1.27,0,0,0-.5-.29,2.09,2.09,0,0,0-.72-.12,1.77,1.77,0,0,0-1.51.73,3.11,3.11,0,0,0-.54,1.89h0a1.11,1.11,0,0,1,.31-.3A2.73,2.73,0,0,1,57.1,25a3.14,3.14,0,0,1,.67-.21,4,4,0,0,1,.86-.09,3.57,3.57,0,0,1,2.38.78,2.49,2.49,0,0,1,.92,2,2.54,2.54,0,0,1-1,2.05,3.87,3.87,0,0,1-2.54.78,3.41,3.41,0,0,1-2.73-1.09,4.53,4.53,0,0,1-.93-3v-.28a4.81,4.81,0,0,1,.93-3,3.18,3.18,0,0,1,2.68-1.21,4.06,4.06,0,0,1,1.5.26,2.73,2.73,0,0,1,1,.66A2.48,2.48,0,0,1,61.6,24.12Zm-1.77,2.22a2.58,2.58,0,0,0-2.79,0,1.33,1.33,0,0,0-.55,1.12,1.31,1.31,0,0,0,.54,1.1,2.54,2.54,0,0,0,2.8,0,1.29,1.29,0,0,0,.55-1.1A1.35,1.35,0,0,0,59.83,26.34Z" fill="#003a50"/><path d="M568.86,172.1l1.38,1.76h-1.58l-1.6-1.93v-1.31h8.4v1.48Z" fill="#003a50"/><path d="M575.37,168.84a.71.71,0,0,1-.57.22.74.74,0,0,1-.57-.22.9.9,0,0,1-.21-.62.87.87,0,0,1,.21-.61.75.75,0,0,1,.57-.23.72.72,0,0,1,.57.23.87.87,0,0,1,.21.61A.9.9,0,0,1,575.37,168.84Z" fill="#003a50"/><path d="M574.38,165a5.2,5.2,0,0,1-6.24,0,4,4,0,0,1,0-5.74,5.2,5.2,0,0,1,6.24,0,4,4,0,0,1,0,5.74Zm-1-4.6a4,4,0,0,0-4.28,0,2.2,2.2,0,0,0,0,3.46,3.95,3.95,0,0,0,4.28,0,2.2,2.2,0,0,0,0-3.46Z" fill="#003a50"/><path d="M574.28,456.74a5.19,5.19,0,0,1-6.23,0,4,4,0,0,1,0-5.74,5.19,5.19,0,0,1,6.23,0,4,4,0,0,1,0,5.74Zm-1-4.61a3.48,3.48,0,0,0-2.14-.61,3.52,3.52,0,0,0-2.14.61,2.23,2.23,0,0,0,0,3.47,4,4,0,0,0,4.28,0,2,2,0,0,0,.84-1.73A2.05,2.05,0,0,0,573.3,452.13Z" fill="#003a50"/><path d="M575.27,448.41a.72.72,0,0,1-.57.23.76.76,0,0,1-.57-.23.87.87,0,0,1-.21-.61.85.85,0,0,1,.21-.61.73.73,0,0,1,.57-.23.69.69,0,0,1,.57.23.85.85,0,0,1,.21.61A.87.87,0,0,1,575.27,448.41Z" fill="#003a50"/><path d="M569.73,441.86a3.55,3.55,0,0,1,.75-2.36,3,3,0,0,1,4.24,0,3.82,3.82,0,0,1,.76,2.51,4.13,4.13,0,0,1-.68,2.51,2.27,2.27,0,0,1-1.9.91V444a1.08,1.08,0,0,0,.94-.5,2.49,2.49,0,0,0,.35-1.43,2.23,2.23,0,0,0-.41-1.44,1.67,1.67,0,0,0-2.39,0,2.31,2.31,0,0,0-.41,1.46,2.5,2.5,0,0,0,.3,1.35,1.27,1.27,0,0,0,.45.49l.08,0v1.49H567v-6.27h1.3V444h2.09v0a1.36,1.36,0,0,1-.22-.28,2.64,2.64,0,0,1-.18-.38A3.79,3.79,0,0,1,569.73,441.86Z" fill="#003a50"/><path d="M574.28,352.81a5.19,5.19,0,0,1-6.23,0,3.63,3.63,0,0,1-1.2-2.88,3.59,3.59,0,0,1,1.2-2.86,5.19,5.19,0,0,1,6.23,0,3.59,3.59,0,0,1,1.2,2.86A3.63,3.63,0,0,1,574.28,352.81Zm-1-4.61a3.48,3.48,0,0,0-2.14-.62,3.52,3.52,0,0,0-2.14.62,2.23,2.23,0,0,0,0,3.47,4,4,0,0,0,4.28,0,2.21,2.21,0,0,0,0-3.47Z" fill="#003a50"/><path d="M575.27,344.48a.72.72,0,0,1-.57.23.76.76,0,0,1-.57-.23,1,1,0,0,1,0-1.23.75.75,0,0,1,.57-.22.71.71,0,0,1,.57.22,1,1,0,0,1,0,1.23Z" fill="#003a50"/><path d="M569.73,337.93a3.55,3.55,0,0,1,.75-2.36,3,3,0,0,1,4.24,0,3.81,3.81,0,0,1,.76,2.5,4.17,4.17,0,0,1-.68,2.52,2.27,2.27,0,0,1-1.9.91V340a1.08,1.08,0,0,0,.94-.5,2.51,2.51,0,0,0,.35-1.44,2.21,2.21,0,0,0-.41-1.43,1.44,1.44,0,0,0-1.19-.49,1.47,1.47,0,0,0-1.2.51,2.36,2.36,0,0,0-.41,1.47,2.5,2.5,0,0,0,.3,1.35,1.27,1.27,0,0,0,.45.49l.08,0v1.49H567v-6.27h1.3V340h2.09v0a1.71,1.71,0,0,1-.22-.28,2.32,2.32,0,0,1-.18-.39A3.7,3.7,0,0,1,569.73,337.93Z" fill="#003a50"/><path d="M474.48,311.22,472,313.17v-2.24l2.73-2.27h1.86v11.91h-2.11Z" fill="#003a50"/><path d="M487.53,320.57h-2.11v-2.65h-7v-1.84l6.29-7.42h2.79v7.42h1.6v1.84h-1.6Zm-2.11-4.49v-5.32h-.06L480.88,316v.05Z" fill="#003a50"/><path d="M490.81,320.44a1,1,0,0,1-.32-.81,1.06,1.06,0,0,1,.32-.8,1.25,1.25,0,0,1,.88-.3,1.22,1.22,0,0,1,.86.3,1,1,0,0,1,.32.8,1,1,0,0,1-.32.81,1.22,1.22,0,0,1-.86.3A1.25,1.25,0,0,1,490.81,320.44Z" fill="#003a50"/><path d="M496.72,311.22l-2.48,1.95v-2.24l2.73-2.27h1.86v11.91h-2.11Z" fill="#003a50"/><path d="M328.77,310.51H323v-1.85h8.86v1.85l-4.52,2.65v.06h1.27a3.91,3.91,0,0,1,2.8,1,3.52,3.52,0,0,1,1.05,2.67,3.34,3.34,0,0,1-1.33,2.83,7,7,0,0,1-7.24,0,3.37,3.37,0,0,1-1.33-2.86v-.33h2.11v.33c0,1.36.95,2,2.84,2s2.84-.66,2.84-2-.95-2-2.84-2H324.2v-1.66l4.57-2.69Z" fill="#003a50"/><path d="M334.51,320.44a1,1,0,0,1-.32-.81,1,1,0,0,1,.32-.8,1.41,1.41,0,0,1,1.74,0,1.06,1.06,0,0,1,.32.8,1,1,0,0,1-.32.81,1.41,1.41,0,0,1-1.74,0Z" fill="#003a50"/><path d="M347.09,319.81a7.71,7.71,0,0,1-7.36,0,2.94,2.94,0,0,1-1.37-2.56,2.69,2.69,0,0,1,.25-1.16,2.43,2.43,0,0,1,.66-.86,4.05,4.05,0,0,1,1.4-.77l.25-.06v-.1a3.05,3.05,0,0,1-.76-.29,2.88,2.88,0,0,1-.67-.44,2.2,2.2,0,0,1-.54-.75,2.41,2.41,0,0,1-.22-1,2.83,2.83,0,0,1,1.25-2.39,5.85,5.85,0,0,1,3.43-.89,5.91,5.91,0,0,1,3.43.89,2.83,2.83,0,0,1,1.24,2.39,2.43,2.43,0,0,1-.22,1,2,2,0,0,1-.55.74,3.54,3.54,0,0,1-1.2.68l-.22.05v.1l.28.06a5.42,5.42,0,0,1,.62.27,4.19,4.19,0,0,1,.78.5,2.88,2.88,0,0,1,.61.83,2.64,2.64,0,0,1,.28,1.19A3,3,0,0,1,347.09,319.81Zm-5.79-1.36a4.81,4.81,0,0,0,4.21,0,1.59,1.59,0,0,0,0-2.69,4.95,4.95,0,0,0-4.21,0,1.59,1.59,0,0,0,0,2.68Zm-.36-6.52a1.37,1.37,0,0,0,.64,1.2,4.09,4.09,0,0,0,3.65,0,1.37,1.37,0,0,0,.64-1.2,1.4,1.4,0,0,0-.65-1.2,3.28,3.28,0,0,0-1.81-.43,3.23,3.23,0,0,0-1.81.43A1.39,1.39,0,0,0,340.94,311.93Z" fill="#003a50"/><path d="M296,420.27h-2.11v-2.65h-7v-1.84l6.3-7.42H296v7.42h1.59v1.84H296Zm-2.11-4.49v-5.32h-.07l-4.48,5.27v0Z" fill="#003a50"/><path d="M299.28,420.14a1,1,0,0,1-.33-.81,1,1,0,0,1,.33-.8,1.4,1.4,0,0,1,1.73,0,1,1,0,0,1,.33.8,1,1,0,0,1-.33.81,1.4,1.4,0,0,1-1.73,0Z" fill="#003a50"/><path d="M312.9,411.72h-2.21s0-.07,0-.18a2.94,2.94,0,0,0-.22-.44,2.28,2.28,0,0,0-.38-.5,2.08,2.08,0,0,0-.71-.41,3.29,3.29,0,0,0-1-.16,2.52,2.52,0,0,0-2.15,1,4.41,4.41,0,0,0-.77,2.68h.06a2,2,0,0,1,.44-.43,3.93,3.93,0,0,1,1.56-.67,6.08,6.08,0,0,1,1.22-.12,5.05,5.05,0,0,1,3.37,1.11,3.5,3.5,0,0,1,1.3,2.8,3.56,3.56,0,0,1-1.36,2.9,5.52,5.52,0,0,1-3.61,1.11,4.84,4.84,0,0,1-3.87-1.55,6.36,6.36,0,0,1-1.32-4.27v-.4a6.83,6.83,0,0,1,1.32-4.31,4.54,4.54,0,0,1,3.81-1.71,5.64,5.64,0,0,1,2.12.37,3.84,3.84,0,0,1,1.44.94A3.46,3.46,0,0,1,312.9,411.72Zm-2.51,3.15a3.62,3.62,0,0,0-4,0,2,2,0,0,0,0,3.14,3.15,3.15,0,0,0,2,.59,3.2,3.2,0,0,0,2-.59,2,2,0,0,0,0-3.14Z" fill="#003a50"/><path d="M79.66,315.08,77.17,317v-2.24l2.73-2.27h1.86v11.91h-2.1Z" fill="#003a50"/><path d="M84.29,324.3a1,1,0,0,1-.32-.81,1,1,0,0,1,.32-.8,1.23,1.23,0,0,1,.87-.3,1.2,1.2,0,0,1,.86.3,1,1,0,0,1,.33.8,1,1,0,0,1-.33.81,1.2,1.2,0,0,1-.86.3A1.23,1.23,0,0,1,84.29,324.3Z" fill="#003a50"/><path d="M93.57,316.45a5,5,0,0,1,3.34,1.06,3.69,3.69,0,0,1,1.26,3,3.73,3.73,0,0,1-1.3,3,5.39,5.39,0,0,1-3.55,1.08,5.86,5.86,0,0,1-3.56-1,3.18,3.18,0,0,1-1.29-2.69h2.11a1.55,1.55,0,0,0,.71,1.34,3.56,3.56,0,0,0,2,.48,3.13,3.13,0,0,0,2-.57,2.34,2.34,0,0,0,0-3.39,3.25,3.25,0,0,0-2.07-.58,3.6,3.6,0,0,0-1.92.42,2.13,2.13,0,0,0-.7.63l0,.13H88.47v-6.88h8.88v1.85H90.58v2.95h0a2.77,2.77,0,0,1,.4-.3,3.11,3.11,0,0,1,.55-.27A5.63,5.63,0,0,1,93.57,316.45Z" fill="#003a50"/><path d="M184.53,303.79h-5.82v-1.85h8.86v1.85L183,306.44v.06h1.28a3.87,3.87,0,0,1,2.79,1,3.51,3.51,0,0,1,1.06,2.66,3.37,3.37,0,0,1-1.33,2.83,7,7,0,0,1-7.25,0,3.39,3.39,0,0,1-1.32-2.86v-.32h2.11v.32c0,1.36.94,2,2.84,2s2.84-.66,2.84-2-.95-2-2.84-2H180v-1.67l4.58-2.69Z" fill="#003a50"/><path d="M190.27,313.72a1,1,0,0,1-.33-.81,1,1,0,0,1,.33-.8,1.4,1.4,0,0,1,1.73,0,1,1,0,0,1,.33.8,1,1,0,0,1-.33.81,1.4,1.4,0,0,1-1.73,0Z" fill="#003a50"/><path d="M203.89,305.3h-2.21s0-.06,0-.18a2.94,2.94,0,0,0-.22-.44,2.22,2.22,0,0,0-.38-.49,1.94,1.94,0,0,0-.71-.42,3.29,3.29,0,0,0-1-.16,2.52,2.52,0,0,0-2.15,1,4.44,4.44,0,0,0-.77,2.69h.06a1.81,1.81,0,0,1,.44-.44,4.24,4.24,0,0,1,.61-.36,3.81,3.81,0,0,1,1-.3,5.43,5.43,0,0,1,1.22-.13,5.05,5.05,0,0,1,3.37,1.11,3.51,3.51,0,0,1,1.3,2.8,3.56,3.56,0,0,1-1.36,2.9,5.5,5.5,0,0,1-3.61,1.11,4.84,4.84,0,0,1-3.87-1.55,6.35,6.35,0,0,1-1.32-4.26v-.41a6.85,6.85,0,0,1,1.32-4.31,4.54,4.54,0,0,1,3.81-1.71,5.61,5.61,0,0,1,2.12.37,3.84,3.84,0,0,1,1.44.94A3.46,3.46,0,0,1,203.89,305.3Zm-2.51,3.15a3.67,3.67,0,0,0-4,0,2,2,0,0,0,0,3.14,3.15,3.15,0,0,0,2,.59,3.2,3.2,0,0,0,2-.59,2,2,0,0,0,0-3.14Z" fill="#003a50"/><path d="M110.83,224.68H100.9v-1.56a2.79,2.79,0,0,1,.58-1.75,4.08,4.08,0,0,1,1.44-1.19c.5-.26,1.12-.54,1.87-.86l1.88-.78a4.07,4.07,0,0,0,1.44-.91,1.77,1.77,0,0,0,.58-1.3q0-1.89-2.67-1.89t-2.67,2.16V217h-2.11v-.41a3.65,3.65,0,0,1,1.26-3,5.44,5.44,0,0,1,3.51-1,5.66,5.66,0,0,1,3.52,1,3.3,3.3,0,0,1,1.27,2.75,3.17,3.17,0,0,1-.56,1.83,4.25,4.25,0,0,1-1.4,1.3,16.7,16.7,0,0,1-1.84.93q-.93.42-1.83.75a5.26,5.26,0,0,0-1.4.75,1.2,1.2,0,0,0-.56,1h7.62Z" fill="#003a50"/><path d="M119.13,214.61H113.3v-1.84h8.87v1.84l-4.53,2.65v.07h1.28a3.9,3.9,0,0,1,2.79,1,3.52,3.52,0,0,1,1.05,2.67,3.32,3.32,0,0,1-1.33,2.82,6.93,6.93,0,0,1-7.24,0,3.38,3.38,0,0,1-1.33-2.85v-.33H115V221c0,1.36,1,2,2.84,2s2.84-.67,2.84-2-.94-2-2.84-2h-3.26v-1.67l4.58-2.68Z" fill="#003a50"/><path d="M124.86,224.55a1.17,1.17,0,0,1,0-1.61,1.25,1.25,0,0,1,.88-.3,1.22,1.22,0,0,1,.86.3,1.17,1.17,0,0,1,0,1.61,1.22,1.22,0,0,1-.86.3A1.25,1.25,0,0,1,124.86,224.55Z" fill="#003a50"/><path d="M138.64,224.68h-9.93v-1.56a2.79,2.79,0,0,1,.58-1.75,4,4,0,0,1,1.45-1.19c.49-.26,1.12-.54,1.86-.86l1.88-.78a4.21,4.21,0,0,0,1.45-.91,1.8,1.8,0,0,0,.57-1.3q0-1.89-2.67-1.89t-2.67,2.16V217h-2.11v-.41a3.65,3.65,0,0,1,1.26-3,5.45,5.45,0,0,1,3.52-1,5.65,5.65,0,0,1,3.51,1,3.27,3.27,0,0,1,1.27,2.75,3.17,3.17,0,0,1-.56,1.83,4.16,4.16,0,0,1-1.4,1.3,16.7,16.7,0,0,1-1.84.93c-.62.28-1.23.53-1.82.75a5.18,5.18,0,0,0-1.41.75,1.23,1.23,0,0,0-.56,1h7.62Z" fill="#003a50"/><path d="M116.45,397.5h-2.2s0-.06,0-.18a2.51,2.51,0,0,0-.22-.43,2.36,2.36,0,0,0-.38-.5,1.8,1.8,0,0,0-.71-.41,3,3,0,0,0-1-.17,2.52,2.52,0,0,0-2.15,1,4.44,4.44,0,0,0-.77,2.69H109a1.64,1.64,0,0,1,.44-.44,4.24,4.24,0,0,1,.61-.36,3.67,3.67,0,0,1,1-.3,5.41,5.41,0,0,1,1.21-.13,5.06,5.06,0,0,1,3.38,1.11,3.72,3.72,0,0,1-.06,5.7,5.54,5.54,0,0,1-3.61,1.11,4.81,4.81,0,0,1-3.87-1.55,6.35,6.35,0,0,1-1.32-4.26V400a6.85,6.85,0,0,1,1.32-4.31,4.52,4.52,0,0,1,3.81-1.71,5.64,5.64,0,0,1,2.12.37,4,4,0,0,1,1.44.94A3.45,3.45,0,0,1,116.45,397.5Zm-2.5,3.15a3.67,3.67,0,0,0-4,0,2,2,0,0,0,0,3.14,3.2,3.2,0,0,0,2,.59,3.15,3.15,0,0,0,2-.59,2,2,0,0,0,0-3.14Z" fill="#003a50"/><path d="M119.1,405.92a1,1,0,0,1-.32-.81,1.06,1.06,0,0,1,.32-.8,1.25,1.25,0,0,1,.88-.3,1.22,1.22,0,0,1,.86.3,1,1,0,0,1,.32.8,1,1,0,0,1-.32.81,1.22,1.22,0,0,1-.86.3A1.25,1.25,0,0,1,119.1,405.92Z" fill="#003a50"/><path d="M131.44,406.05h-2.11V403.4h-7v-1.84l6.3-7.42h2.79v7.42H133v1.84h-1.59Zm-2.11-4.49v-5.32h-.07l-4.48,5.27v.05Z" fill="#003a50"/><path d="M477.23,143.18l-2.48,1.95v-2.24l2.73-2.27h1.86v11.91h-2.11Z" fill="#003a50"/><path d="M491.73,152.53H481.8V151a2.8,2.8,0,0,1,.58-1.74,4,4,0,0,1,1.45-1.2c.5-.25,1.12-.54,1.87-.86s1.32-.56,1.87-.78a4.21,4.21,0,0,0,1.45-.91,1.8,1.8,0,0,0,.57-1.3c0-1.26-.89-1.89-2.66-1.89s-2.68.72-2.68,2.16v.41h-2.11v-.41a3.62,3.62,0,0,1,1.26-3,5.39,5.39,0,0,1,3.52-1,5.65,5.65,0,0,1,3.51,1,3.27,3.27,0,0,1,1.27,2.75,3.07,3.07,0,0,1-.56,1.83,4.29,4.29,0,0,1-1.4,1.31q-.9.51-1.83.93c-.63.27-1.24.52-1.83.74a5.33,5.33,0,0,0-1.41.75,1.25,1.25,0,0,0-.56,1h7.62Z" fill="#003a50"/><path d="M493.83,152.4a1,1,0,0,1-.32-.81,1.06,1.06,0,0,1,.32-.8,1.25,1.25,0,0,1,.88-.3,1.22,1.22,0,0,1,.86.3,1,1,0,0,1,.32.8,1,1,0,0,1-.32.81,1.22,1.22,0,0,1-.86.3A1.25,1.25,0,0,1,493.83,152.4Z" fill="#003a50"/><path d="M498,149.19h2.21s0,.07,0,.17a2.72,2.72,0,0,0,.23.44,2.09,2.09,0,0,0,.41.48,2,2,0,0,0,.75.42,3.21,3.21,0,0,0,1.05.16,2.68,2.68,0,0,0,2.25-1.06,4.38,4.38,0,0,0,.8-2.71h-.06a2,2,0,0,1-.44.47,2.92,2.92,0,0,1-.59.4,4.28,4.28,0,0,1-1,.32,5.43,5.43,0,0,1-1.22.13,4.92,4.92,0,0,1-3.36-1.13,3.71,3.71,0,0,1,.05-5.72,5.55,5.55,0,0,1,3.6-1.1A4.81,4.81,0,0,1,506.6,142a6.4,6.4,0,0,1,1.32,4.27v.41a6.7,6.7,0,0,1-1.37,4.31,4.69,4.69,0,0,1-3.89,1.71,5.9,5.9,0,0,1-2.16-.38,3.85,3.85,0,0,1-1.48-.94A3.33,3.33,0,0,1,498,149.19Zm2.78-3.17a3.19,3.19,0,0,0,2,.59,3.25,3.25,0,0,0,2-.59,1.86,1.86,0,0,0,.78-1.57,1.91,1.91,0,0,0-.77-1.58,3.28,3.28,0,0,0-2-.58,3.22,3.22,0,0,0-2,.58,1.88,1.88,0,0,0-.78,1.58A1.85,1.85,0,0,0,500.75,146Z" fill="#003a50"/></g></svg>