<svg id="Слой_1" data-name="Слой 1" xmlns="http://www.w3.org/2000/svg" xmlns:xlink="http://www.w3.org/1999/xlink" viewBox="0 0 581.1 228.47"><defs><clipPath id="clip-path"><polygon points="0 0 0 228.47 581.1 228.47 581.1 50.41 566.13 50.41 566.13 0 0 0" fill="none"/></clipPath></defs><polygon points="53.47 224.47 53.47 228.47 564.48 228.47 564.48 225.22 74.62 225.22 74.62 224.47 53.47 224.47" fill="#fff"/><polygon points="66.21 12.23 67.19 56.97 67.19 106.47 66.21 222.26 564.61 222.26 564.61 12.23 66.21 12.23" fill="#fff"/><rect x="67.26" width="498.79" height="3.86" transform="matrix(1, 0, 0, 1, 0, 0.49)" fill="#fff"/><g clip-path="url(#clip-path)"><rect x="-584.92" y="-1399.4" width="1162.95" height="2240.57" fill="none" stroke="#003a50" stroke-miterlimit="10"/><polygon points="-572.33 -295.23 -572.33 828.32 565.06 828.32 565.06 -1386.45 -572.33 -1386.61 -572.33 -365.94 -572.33 -295.23" fill="none" stroke="#003a50" stroke-miterlimit="10"/></g><rect x="540.74" y="76.35" width="4.56" height="90.17" fill="#fff"/><rect x="540.74" y="76.35" width="4.56" height="90.17" fill="none" stroke="#003a50" stroke-miterlimit="10"/><line x1="543.02" y1="166.52" x2="543.02" y2="76.35" fill="none" stroke="#003a50" stroke-miterlimit="10"/><rect x="540.74" y="161.97" width="4.56" height="4.55" fill="#fff"/><rect x="540.74" y="161.97" width="4.56" height="4.55" fill="none" stroke="#003a50" stroke-miterlimit="10"/><rect x="540.74" y="76.35" width="4.56" height="4.55" fill="#fff"/><rect x="540.74" y="76.35" width="4.56" height="4.55" fill="none" stroke="#003a50" stroke-miterlimit="10"/><rect x="540.74" y="116.9" width="4.56" height="4.55" fill="#fff"/><rect x="540.74" y="116.9" width="4.56" height="4.55" fill="none" stroke="#003a50" stroke-miterlimit="10"/><g clip-path="url(#clip-path)"><path d="M540.74,116.9h-2.9c-20.15,0-33.1-16.12-33.1-36h36" fill="none" stroke="#003a50" stroke-miterlimit="10"/></g><rect x="167.73" y="120.86" width="43.96" height="95.52" fill="none" stroke="#003a50" stroke-miterlimit="10"/><g clip-path="url(#clip-path)"><rect x="172.89" y="125.07" width="33.22" height="87.39" rx="13.7" fill="none" stroke="#003a50" stroke-miterlimit="10"/><circle cx="189.6" cy="197.33" r="2.28" fill="none" stroke="#003a50" stroke-miterlimit="10"/><path d="M130.88,168.1H102.32V145h28.56a11.54,11.54,0,1,1,0,23.07Z" fill="none" stroke="#003a50" stroke-miterlimit="10"/></g><rect x="102.32" y="145.03" width="11.08" height="23.08" fill="none" stroke="#003a50" stroke-miterlimit="10"/><g clip-path="url(#clip-path)"><path d="M118.94,194.77a3.16,3.16,0,0,0,2.91-2h1.79l4.73,2.82-2.15,3.5-2.46-1.35v11h-10.3v-11L111,199.14l-2.15-3.5,4.78-2.82H116A3.21,3.21,0,0,0,118.94,194.77Z" fill="none" stroke="#003a50" stroke-miterlimit="10"/></g><rect x="102.82" y="185.58" width="31.57" height="30.42" fill="none" stroke="#003a50" stroke-miterlimit="10"/><g clip-path="url(#clip-path)"><rect x="354.9" y="228.4" width="33.97" height="34.02" fill="none" stroke="#003a50" stroke-miterlimit="10"/></g><rect x="218.56" y="147.7" width="34.02" height="33.97" fill="none" stroke="#003a50" stroke-miterlimit="10"/><g clip-path="url(#clip-path)"><path d="M231.27,163.16v-11h8.6v11a3.54,3.54,0,0,1-3.54,3.54h-1.52A3.54,3.54,0,0,1,231.27,163.16Z" fill="none" stroke="#003a50" stroke-miterlimit="10"/></g><polyline points="239.04 177.26 235.57 177.26 232.09 177.26" fill="none" stroke="#003a50" stroke-miterlimit="10"/><line x1="235.57" y1="166.7" x2="235.57" y2="177.26" fill="none" stroke="#003a50" stroke-miterlimit="10"/><g clip-path="url(#clip-path)"><rect x="435.37" y="228.4" width="34.02" height="34.02" fill="none" stroke="#003a50" stroke-miterlimit="10"/></g><rect x="292.12" y="181.66" width="34.02" height="34.02" fill="none" stroke="#003a50" stroke-miterlimit="10"/><g clip-path="url(#clip-path)"><path d="M321.54,206.28a4.64,4.64,0,1,1-4.64-4.64A4.64,4.64,0,0,1,321.54,206.28Z" fill="none" stroke="#003a50" stroke-miterlimit="10"/><path d="M306.05,206.28a4.64,4.64,0,1,1-4.63-4.64A4.63,4.63,0,0,1,306.05,206.28Z" fill="none" stroke="#003a50" stroke-miterlimit="10"/><path d="M321.54,191.19a4.64,4.64,0,1,1-4.64-4.64A4.64,4.64,0,0,1,321.54,191.19Z" fill="none" stroke="#003a50" stroke-miterlimit="10"/><path d="M306.05,191.19a4.64,4.64,0,1,1-4.63-4.64A4.63,4.63,0,0,1,306.05,191.19Z" fill="none" stroke="#003a50" stroke-miterlimit="10"/><rect x="269.58" y="-33.9" width="34.02" height="34.02" fill="none" stroke="#003a50" stroke-miterlimit="10"/></g><rect x="354.62" y="16.3" width="175.03" height="17.01" fill="none" stroke="#003a50" stroke-miterlimit="10"/><polygon points="506.44 25.35 463.54 21.82 420.44 25.35 420.44 27.8 506.44 27.8 506.44 25.35" fill="none" stroke="#003a50" stroke-miterlimit="10"/><g clip-path="url(#clip-path)"><rect x="295.94" y="228.27" width="199.76" height="34.28" fill="none" stroke="#003a50" stroke-miterlimit="10"/><rect x="213.4" y="-34.03" width="152.36" height="34.28" fill="none" stroke="#003a50" stroke-miterlimit="10"/><rect x="247.58" y="228.06" width="42.22" height="83.62" fill="none" stroke="#003a50" stroke-miterlimit="10"/></g><polyline points="264.73 211.95 271.52 211.95 278.31 211.95" fill="none" stroke="#003a50" stroke-miterlimit="10"/><line x1="271.54" y1="198.33" x2="271.54" y2="211.95" fill="none" stroke="#003a50" stroke-miterlimit="10"/><g clip-path="url(#clip-path)"><path d="M256.47,187.69v15.2a3.23,3.23,0,0,0,3.23,3.24h23.59a3.24,3.24,0,0,0,3.24-3.24v-15.2a3.24,3.24,0,0,0-3.24-3.23H259.7A3.23,3.23,0,0,0,256.47,187.69Z" fill="none" stroke="#003a50" stroke-miterlimit="10"/><path d="M271.54,196.64a2.43,2.43,0,1,0,2.42,2.42A2.42,2.42,0,0,0,271.54,196.64Z" fill="none" stroke="#003a50" stroke-miterlimit="10"/></g><rect x="218.56" y="181.67" width="136.06" height="34.02" fill="none" stroke="#003a50" stroke-miterlimit="10"/><g clip-path="url(#clip-path)"><polygon points="247.32 259.38 173.86 259.17 173.86 228.61 247.32 228.83 247.32 259.38" fill="none" stroke="#003a50" stroke-miterlimit="10"/><path d="M214.69,253.36v-23A3.36,3.36,0,0,1,218,227h22.25a3.37,3.37,0,0,1,3.36,3.36v23a3.36,3.36,0,0,1-3.36,3.35H218A3.35,3.35,0,0,1,214.69,253.36Z" fill="none" stroke="#003a50" stroke-miterlimit="10"/></g><polygon points="167.51 185.48 102.54 185.69 102.54 216.24 167.51 216.03 167.51 185.48" fill="none" stroke="#003a50" stroke-miterlimit="10"/><g clip-path="url(#clip-path)"><path d="M137.12,191.5v23a3.36,3.36,0,0,0,3.35,3.36h22.25a3.37,3.37,0,0,0,3.36-3.36v-23a3.37,3.37,0,0,0-3.36-3.36H140.47A3.36,3.36,0,0,0,137.12,191.5Z" fill="none" stroke="#003a50" stroke-miterlimit="10"/><circle cx="151.6" cy="203" r="2.27" fill="none" stroke="#003a50" stroke-miterlimit="10"/></g><rect x="218.56" y="113.63" width="34.02" height="34.02" fill="none" stroke="#003a50" stroke-miterlimit="10"/><line x1="235.57" y1="140.61" x2="235.57" y2="120.65" fill="none" stroke="#003a50" stroke-miterlimit="10"/><line x1="245.55" y1="130.63" x2="225.59" y2="130.63" fill="none" stroke="#003a50" stroke-miterlimit="10"/><line x1="242.62" y1="137.69" x2="228.51" y2="123.58" fill="none" stroke="#003a50" stroke-miterlimit="10"/><line x1="242.62" y1="123.58" x2="228.51" y2="137.69" fill="none" stroke="#003a50" stroke-miterlimit="10"/><g clip-path="url(#clip-path)"><rect x="495.36" y="228.54" width="34.02" height="34.02" fill="none" stroke="#003a50" stroke-miterlimit="10"/><rect x="179.35" y="-34.03" width="34.02" height="34.02" fill="none" stroke="#003a50" stroke-miterlimit="10"/><rect x="331.47" y="-34.03" width="34.02" height="34.02" fill="none" stroke="#003a50" stroke-miterlimit="10"/></g><rect x="207.03" y="16.3" width="147.59" height="34.02" fill="none" stroke="#003a50" stroke-miterlimit="10"/><g clip-path="url(#clip-path)"><path d="M337.51,21.12a1,1,0,0,0-1.91-.44,28.77,28.77,0,0,0,0,25.26,1,1,0,0,0,1.34.45,1,1,0,0,0,.46-1.34,26.81,26.81,0,0,1,0-23.49A.87.87,0,0,0,337.51,21.12Z" fill="none" stroke="#003a50" stroke-miterlimit="10"/><path d="M331.94,21.12a1,1,0,0,0-.56-.9,1,1,0,0,0-1.34.46,28.77,28.77,0,0,0,0,25.26,1,1,0,0,0,1.8-.89,26.72,26.72,0,0,1,0-23.49A1,1,0,0,0,331.94,21.12Z" fill="none" stroke="#003a50" stroke-miterlimit="10"/><path d="M326.38,21.12a1,1,0,0,0-1.91-.44,28.77,28.77,0,0,0,0,25.26,1,1,0,0,0,1.34.45,1,1,0,0,0,.46-1.34,26.81,26.81,0,0,1,0-23.49A.87.87,0,0,0,326.38,21.12Z" fill="none" stroke="#003a50" stroke-miterlimit="10"/><path d="M320.81,21.12a1,1,0,0,0-.56-.9,1,1,0,0,0-1.34.46,28.77,28.77,0,0,0,0,25.26,1,1,0,0,0,1.8-.89,26.72,26.72,0,0,1,0-23.49A1,1,0,0,0,320.81,21.12Z" fill="none" stroke="#003a50" stroke-miterlimit="10"/><path d="M315.25,21.12a1,1,0,0,0-1.91-.44,28.77,28.77,0,0,0,0,25.26,1,1,0,0,0,1.34.45,1,1,0,0,0,.46-1.34,26.81,26.81,0,0,1,0-23.49A.87.87,0,0,0,315.25,21.12Z" fill="none" stroke="#003a50" stroke-miterlimit="10"/><path d="M309.68,21.12a1,1,0,0,0-1.9-.44,28.77,28.77,0,0,0,0,25.26,1,1,0,0,0,1.8-.89,26.72,26.72,0,0,1,0-23.49A1,1,0,0,0,309.68,21.12Z" fill="none" stroke="#003a50" stroke-miterlimit="10"/><path d="M343.07,21.12a1,1,0,0,0-.56-.9,1,1,0,0,0-1.34.46,28.77,28.77,0,0,0,0,25.26,1,1,0,0,0,1.8-.89,26.72,26.72,0,0,1,0-23.49A1,1,0,0,0,343.07,21.12Z" fill="none" stroke="#003a50" stroke-miterlimit="10"/><path d="M348.64,21.12a1,1,0,0,0-1.9-.44,28.77,28.77,0,0,0,0,25.26,1,1,0,0,0,1.8-.89,26.72,26.72,0,0,1,0-23.49A1,1,0,0,0,348.64,21.12Z" fill="none" stroke="#003a50" stroke-miterlimit="10"/></g><line x1="354.63" y1="33.31" x2="207.03" y2="33.31" fill="none" stroke="#003a50" stroke-miterlimit="10"/><g clip-path="url(#clip-path)"><rect x="67.19" y="-33.89" width="105.88" height="33.88" fill="none" stroke="#003a50" stroke-miterlimit="10"/></g><rect x="67.19" y="16.37" width="133.47" height="33.88" fill="none" stroke="#003a50" stroke-miterlimit="10"/><g clip-path="url(#clip-path)"><path d="M83.16,21.17a1,1,0,0,1,.53-.9.91.91,0,0,1,1.25.45,30.45,30.45,0,0,1,0,25.16.91.91,0,0,1-1.25.46A1,1,0,0,1,83.26,45a28.3,28.3,0,0,0,0-23.39A1,1,0,0,1,83.16,21.17Z" fill="none" stroke="#003a50" stroke-miterlimit="10"/><path d="M88.35,21.17a1,1,0,0,1,.53-.9.91.91,0,0,1,1.25.45,30.45,30.45,0,0,1,0,25.16.91.91,0,0,1-1.25.46A1,1,0,0,1,88.45,45a28.19,28.19,0,0,0,0-23.39A1,1,0,0,1,88.35,21.17Z" fill="none" stroke="#003a50" stroke-miterlimit="10"/><path d="M93.55,21.17a1,1,0,0,1,.52-.9.91.91,0,0,1,1.25.45,30.35,30.35,0,0,1,0,25.16.91.91,0,0,1-1.25.46A1,1,0,0,1,93.64,45a28.19,28.19,0,0,0,0-23.39A1,1,0,0,1,93.55,21.17Z" fill="none" stroke="#003a50" stroke-miterlimit="10"/><path d="M98.74,21.17a1,1,0,0,1,.52-.9.92.92,0,0,1,1.26.45,30.45,30.45,0,0,1,0,25.16.91.91,0,0,1-1.25.46A1,1,0,0,1,98.84,45a28.3,28.3,0,0,0,0-23.39A1,1,0,0,1,98.74,21.17Z" fill="none" stroke="#003a50" stroke-miterlimit="10"/><path d="M103.93,21.17a1,1,0,0,1,.53-.9.91.91,0,0,1,1.25.45,30.45,30.45,0,0,1,0,25.16.91.91,0,0,1-1.25.46A1,1,0,0,1,104,45a28.3,28.3,0,0,0,0-23.39A1,1,0,0,1,103.93,21.17Z" fill="none" stroke="#003a50" stroke-miterlimit="10"/><path d="M109.12,21.17a1,1,0,0,1,.53-.9.91.91,0,0,1,1.25.45,30.45,30.45,0,0,1,0,25.16.91.91,0,0,1-1.25.46,1,1,0,0,1-.43-1.34,28.19,28.19,0,0,0,0-23.39A1,1,0,0,1,109.12,21.17Z" fill="none" stroke="#003a50" stroke-miterlimit="10"/><path d="M78,21.17a1,1,0,0,1,.52-.9.91.91,0,0,1,1.25.45,30.35,30.35,0,0,1,0,25.16.9.9,0,0,1-1.24.46A1,1,0,0,1,78.06,45a28.19,28.19,0,0,0,0-23.39A1.12,1.12,0,0,1,78,21.17Z" fill="none" stroke="#003a50" stroke-miterlimit="10"/><path d="M72.78,21.17a1,1,0,0,1,.52-.9.91.91,0,0,1,1.25.45,30.35,30.35,0,0,1,0,25.16.91.91,0,0,1-1.25.46A1,1,0,0,1,72.87,45a28.19,28.19,0,0,0,0-23.39A1,1,0,0,1,72.78,21.17Z" fill="none" stroke="#003a50" stroke-miterlimit="10"/></g><line x1="67.19" y1="33.31" x2="200.66" y2="33.31" fill="none" stroke="#003a50" stroke-miterlimit="10"/><g clip-path="url(#clip-path)"><path d="M469.34,169.81v41H423.57V167.6h43.55A2.21,2.21,0,0,1,469.34,169.81Z" fill="none" stroke="#003a50" stroke-miterlimit="10"/><path d="M515.21,169.59v41.26H469.44V169.59a2,2,0,0,1,2-2h41.8A2,2,0,0,1,515.21,169.59Z" fill="none" stroke="#003a50" stroke-miterlimit="10"/><path d="M423.57,167.6a3.11,3.11,0,0,0-3.33-2.83H416a3.11,3.11,0,0,0-3.33,2.83v48.2H526.08V168a3.11,3.11,0,0,0-3.33-2.83h-4.22a3.1,3.1,0,0,0-3.32,2.83v42.82H423.57Z" fill="none" stroke="#003a50" stroke-miterlimit="10"/></g><rect x="423.57" y="201.59" width="91.64" height="9.25" fill="none" stroke="#003a50" stroke-miterlimit="10"/><g clip-path="url(#clip-path)"><path d="M359.54,115.55a1.14,1.14,0,1,0,0,2.28,12.51,12.51,0,0,1,0,25,1.14,1.14,0,0,0,0,2.28,14.79,14.79,0,1,0,0-29.57Z" fill="none" stroke="#003a50" stroke-miterlimit="10"/><path d="M359,141a10.67,10.67,0,1,0-4.38-20.37V140A10.67,10.67,0,0,0,359,141Z" fill="none" stroke="#003a50" stroke-miterlimit="10"/><path d="M359.54,150.3a1.14,1.14,0,0,0,0,2.28,12.51,12.51,0,0,1,0,25,1.14,1.14,0,0,0,0,2.28,14.79,14.79,0,1,0,0-29.57Z" fill="none" stroke="#003a50" stroke-miterlimit="10"/><path d="M359,175.75a10.67,10.67,0,1,0-4.38-20.37v19.41A10.67,10.67,0,0,0,359,175.75Z" fill="none" stroke="#003a50" stroke-miterlimit="10"/></g><rect x="326.14" y="113.67" width="28.5" height="68.04" fill="none" stroke="#003a50" stroke-miterlimit="10"/><rect x="67.05" y="114.98" width="28.89" height="16.34" fill="none" stroke="#003a50" stroke-miterlimit="10"/><g clip-path="url(#clip-path)"><path d="M162.4,118.11V115a38.71,38.71,0,0,0-38.71-38.72v41.79" fill="none" stroke="#003a50" stroke-miterlimit="10" stroke-width="1.6"/><path d="M56.65,56.35H52.59A51.13,51.13,0,0,0,1.46,107.47H56.65" fill="none" stroke="#003a50" stroke-miterlimit="10" stroke-width="1.6"/><rect x="50.87" y="-41.27" width="16.32" height="98.25" fill="#003a50"/><rect x="50.87" y="106.48" width="16.32" height="115.78" fill="#003a50"/><rect x="74.62" y="227.68" width="11.82" height="64.29" fill="#003a50"/><rect x="63.35" y="-0.04" width="474.34" height="16.32" fill="#003a50"/><rect x="50.87" y="215.96" width="486.82" height="12.6" fill="#003a50"/><polygon points="529.66 262.42 529.66 166.68 578.99 166.68 567.33 262.42 529.66 262.42" fill="#003a50" fill-rule="evenodd"/><rect x="529.66" y="-19.85" width="35.6" height="96.07" fill="#003a50"/><rect x="533.66" y="50.31" width="45.33" height="25.9" fill="#003a50"/><rect x="161.57" y="114.49" width="53.52" height="6.38" fill="#003a50"/><rect x="211.9" y="114.49" width="6.38" height="103.38" fill="#003a50"/><rect x="200.66" y="12.15" width="6.38" height="38.4" fill="#003a50"/><rect x="95.94" y="114.49" width="28.58" height="6.38" fill="#003a50"/><rect x="173.07" y="-33.89" width="6.38" height="40.91" fill="#003a50"/><rect x="66.56" y="167.15" width="33.64" height="6.38" fill="#003a50"/><rect x="66.56" y="131.32" width="33.64" height="6.38" fill="#003a50"/><rect x="152.06" y="-21.21" width="6.38" height="26.75" fill="#003a50"/><rect x="178.6" y="32.61" width="24.71" height="6.38" fill="#003a50"/><rect x="178.6" y="12.23" width="6.38" height="26.75" fill="#003a50"/><rect x="95.94" y="116.67" width="6.38" height="101.24" fill="#003a50"/><rect x="289.56" y="226.22" width="6.38" height="88.64" fill="#003a50"/><rect x="167.22" y="226.22" width="6.38" height="88.64" fill="#003a50"/><rect x="141.72" y="225.22" width="6.38" height="26.49" fill="#003a50"/><rect x="50.88" y="217.91" width="5.98" height="81.48" fill="#003a50"/><line x1="207.03" y1="49.23" x2="207.03" y2="52.07" fill="none" stroke="#003a50" stroke-miterlimit="10"/><line x1="207.03" y1="57.55" x2="207.03" y2="109.69" fill="none" stroke="#003a50" stroke-miterlimit="10" stroke-dasharray="5.49 5.49"/><line x1="207.03" y1="112.43" x2="207.03" y2="115.27" fill="none" stroke="#003a50" stroke-miterlimit="10"/></g><g clip-path="url(#clip-path)"><path d="M142.3,132.44h-5.82V130.6h8.86v1.84l-4.52,2.65v.07h1.28a3.9,3.9,0,0,1,2.79,1,3.52,3.52,0,0,1,1.05,2.67,3.32,3.32,0,0,1-1.33,2.82,6.93,6.93,0,0,1-7.24,0,3.38,3.38,0,0,1-1.33-2.85v-.33h2.11v.33c0,1.36.95,2,2.84,2s2.84-.67,2.84-2-.94-2-2.84-2h-3.26v-1.67l4.57-2.68Z" fill="#003a50"/><path d="M148,142.38a1,1,0,0,1-.32-.81,1.07,1.07,0,0,1,.32-.81,1.3,1.3,0,0,1,.88-.29,1.28,1.28,0,0,1,.86.29,1.07,1.07,0,0,1,.32.81,1,1,0,0,1-.32.81,1.23,1.23,0,0,1-.86.3A1.25,1.25,0,0,1,148,142.38Z" fill="#003a50"/><path d="M157.33,134.53a5,5,0,0,1,3.34,1.06,4.18,4.18,0,0,1,0,6,5.37,5.37,0,0,1-3.54,1.08,5.75,5.75,0,0,1-3.56-1,3.15,3.15,0,0,1-1.29-2.68h2.11a1.51,1.51,0,0,0,.7,1.33,3.53,3.53,0,0,0,2,.49,3.17,3.17,0,0,0,2-.57,2.37,2.37,0,0,0,0-3.39,3.26,3.26,0,0,0-2.08-.58,3.64,3.64,0,0,0-1.91.41,1.92,1.92,0,0,0-.7.64l0,.13h-2.11V130.6h8.88v1.84h-6.77v3h0a2.32,2.32,0,0,1,.4-.31,3.82,3.82,0,0,1,.54-.26A5.66,5.66,0,0,1,157.33,134.53Z" fill="#003a50"/><path d="M88.59,78H86.48V75.37h-7V73.52l6.29-7.41h2.79v7.41h1.6v1.85h-1.6Zm-2.11-4.49V68.2h-.06l-4.48,5.27v0Z" fill="#003a50"/><path d="M91.87,77.88a1,1,0,0,1-.32-.8,1.07,1.07,0,0,1,.32-.81,1.41,1.41,0,0,1,1.74,0,1.07,1.07,0,0,1,.32.81,1,1,0,0,1-.32.8,1.41,1.41,0,0,1-1.74,0Z" fill="#003a50"/><path d="M101.16,70a5,5,0,0,1,3.33,1.07,4.16,4.16,0,0,1,0,6,5.38,5.38,0,0,1-3.54,1.08,5.8,5.8,0,0,1-3.57-1,3.18,3.18,0,0,1-1.28-2.68h2.11a1.53,1.53,0,0,0,.7,1.33,3.61,3.61,0,0,0,2,.49,3.17,3.17,0,0,0,2-.58,2.36,2.36,0,0,0,0-3.39,3.31,3.31,0,0,0-2.07-.58,3.6,3.6,0,0,0-1.92.42,1.87,1.87,0,0,0-.69.64l0,.12H96.06V66.11h8.87V68H98.17v3h0a1.83,1.83,0,0,1,.39-.31,3.11,3.11,0,0,1,.55-.27A5.66,5.66,0,0,1,101.16,70Z" fill="#003a50"/><path d="M267.45,68h-5.82V66.11h8.86V68L266,70.6v.06h1.28a3.87,3.87,0,0,1,2.79,1,3.49,3.49,0,0,1,1.06,2.66,3.35,3.35,0,0,1-1.33,2.83,7,7,0,0,1-7.24,0,3.36,3.36,0,0,1-1.33-2.86V74h2.11v.32c0,1.36.94,2,2.84,2s2.84-.67,2.84-2-1-2-2.84-2h-3.27V70.7L267.45,68Z" fill="#003a50"/><path d="M273.19,77.88a1,1,0,0,1-.33-.8,1,1,0,0,1,.33-.81,1.4,1.4,0,0,1,1.73,0,1,1,0,0,1,.33.81,1,1,0,0,1-.33.8,1.4,1.4,0,0,1-1.73,0Z" fill="#003a50"/><path d="M279.09,68.66l-2.48,2V68.37l2.73-2.26h1.86V78h-2.11Z" fill="#003a50"/><path d="M454.2,105.28l-2.49,2V105l2.74-2.27h1.86v11.91H454.2Z" fill="#003a50"/><path d="M467.5,113.87a7.73,7.73,0,0,1-7.37,0,3,3,0,0,1-1.37-2.56,2.7,2.7,0,0,1,.26-1.16,2.32,2.32,0,0,1,.66-.86,4,4,0,0,1,1.39-.77l.26-.06v-.1a2.91,2.91,0,0,1-.76-.29,2.51,2.51,0,0,1-.67-.44,2.2,2.2,0,0,1-.54-.75,2.41,2.41,0,0,1-.22-1,2.83,2.83,0,0,1,1.25-2.39,7,7,0,0,1,6.85,0,2.84,2.84,0,0,1,1.25,2.39,2.43,2.43,0,0,1-.22,1,2,2,0,0,1-.55.74,3.54,3.54,0,0,1-1.2.68l-.22,0v.1l.28.06a5.42,5.42,0,0,1,.62.27,3.79,3.79,0,0,1,.77.5,2.89,2.89,0,0,1,.62.83,2.63,2.63,0,0,1,.27,1.19A3,3,0,0,1,467.5,113.87Zm-5.79-1.36a3.75,3.75,0,0,0,2.1.49,3.84,3.84,0,0,0,2.1-.48,1.59,1.59,0,0,0,0-2.69,4.93,4.93,0,0,0-4.2,0,1.58,1.58,0,0,0,0,2.68Zm-.36-6.51a1.36,1.36,0,0,0,.64,1.19,4.09,4.09,0,0,0,3.65,0,1.38,1.38,0,0,0,.64-1.19,1.36,1.36,0,0,0-.66-1.2,3.94,3.94,0,0,0-3.62,0A1.38,1.38,0,0,0,461.35,106Z" fill="#003a50"/><path d="M471,114.5a1,1,0,0,1-.32-.81,1.06,1.06,0,0,1,.32-.8,1.41,1.41,0,0,1,1.74,0,1.06,1.06,0,0,1,.32.8,1,1,0,0,1-.32.81,1.41,1.41,0,0,1-1.74,0Z" fill="#003a50"/><path d="M484.75,114.63h-9.93v-1.56a2.74,2.74,0,0,1,.58-1.74,4,4,0,0,1,1.44-1.2c.5-.25,1.12-.54,1.87-.86s1.32-.56,1.88-.77a4.24,4.24,0,0,0,1.44-.92,1.76,1.76,0,0,0,.58-1.3q0-1.89-2.67-1.89t-2.67,2.16V107h-2.11v-.41a3.62,3.62,0,0,1,1.26-3,5.36,5.36,0,0,1,3.51-1,5.66,5.66,0,0,1,3.52,1,3.3,3.3,0,0,1,1.27,2.75,3.14,3.14,0,0,1-.56,1.83,4.28,4.28,0,0,1-1.4,1.31c-.6.34-1.21.65-1.84.93s-1.23.52-1.83.75a5.25,5.25,0,0,0-1.4.74,1.23,1.23,0,0,0-.57,1h7.63Z" fill="#003a50"/><path d="M556.28,149.51a5.15,5.15,0,0,1-6.23,0,4,4,0,0,1,0-5.73,5.15,5.15,0,0,1,6.23,0,4,4,0,0,1,0,5.73Zm-1-4.6a3.47,3.47,0,0,0-2.13-.62,3.53,3.53,0,0,0-2.15.62,2.23,2.23,0,0,0,0,3.47,3.53,3.53,0,0,0,2.15.62,3.47,3.47,0,0,0,2.13-.62,2.21,2.21,0,0,0,0-3.47Z" fill="#003a50"/><path d="M557.27,141.19a.71.71,0,0,1-.56.23.75.75,0,0,1-.57-.23.9.9,0,0,1-.21-.62.87.87,0,0,1,.21-.61.75.75,0,0,1,.57-.23.71.71,0,0,1,.56.23.87.87,0,0,1,.21.61A.9.9,0,0,1,557.27,141.19Z" fill="#003a50"/><path d="M551.33,131.58v1.56l-.12,0-.31.15a1.6,1.6,0,0,0-.35.28,1.14,1.14,0,0,0-.29.5,2,2,0,0,0-.12.71,1.76,1.76,0,0,0,.73,1.52,3.11,3.11,0,0,0,1.89.54v0a1.27,1.27,0,0,1-.3-.31,4.1,4.1,0,0,1-.26-.43,3.14,3.14,0,0,1-.21-.67,3.92,3.92,0,0,1,.69-3.24,2.49,2.49,0,0,1,2-.92,2.54,2.54,0,0,1,2.06,1,4,4,0,0,1,.77,2.54,3.38,3.38,0,0,1-1.09,2.73,4.48,4.48,0,0,1-3,.94h-.28a4.86,4.86,0,0,1-3.05-.94,3.18,3.18,0,0,1-1.2-2.68,4.14,4.14,0,0,1,.26-1.5,2.61,2.61,0,0,1,.66-1A2.43,2.43,0,0,1,551.33,131.58Zm2.22,1.77a2.27,2.27,0,0,0-.41,1.39,2.32,2.32,0,0,0,.41,1.4,1.35,1.35,0,0,0,1.12.55,1.29,1.29,0,0,0,1.1-.55,2.54,2.54,0,0,0,0-2.8,1.31,1.31,0,0,0-1.1-.54A1.33,1.33,0,0,0,553.55,133.35Z" fill="#003a50"/></g></svg>