<svg id="Слой_1" data-name="Слой 1" xmlns="http://www.w3.org/2000/svg" xmlns:xlink="http://www.w3.org/1999/xlink" viewBox="0 0 375.02 467.72"><defs><clipPath id="clip-path"><polygon points="196.02 0 196.02 21.26 189.21 21.26 189.21 50.17 0 50.17 0 465.45 375.02 465.45 375.02 50.17 245.34 50.17 245.34 0 196.02 0" fill="none"/></clipPath></defs><polygon points="0 50.17 0 449.39 8.91 449.39 8.91 53.67 129.62 53.67 129.34 50.17 0 50.17" fill="#fff"/><polygon points="241.3 66.49 191.53 66.49 12.66 62.59 8 450.56 367.18 450.56 365.83 62.3 241.3 66.49" fill="#fff"/><polygon points="265.98 50.17 265.09 66.01 365.83 62.3 363.99 449.02 375.02 449.02 375.02 50.17 265.98 50.17" fill="#fff"/><g clip-path="url(#clip-path)"><rect x="-383.18" y="-1776.97" width="1162.95" height="2240.57" fill="none" stroke="#003a50" stroke-miterlimit="10"/><polygon points="-370.6 -672.8 -370.6 450.75 766.79 450.75 766.79 -1764.03 -370.6 -1764.18 -370.6 -743.51 -370.6 -672.8" fill="none" stroke="#003a50" stroke-miterlimit="10"/></g><rect x="214.09" y="425.2" width="87.81" height="4.56" fill="#fff"/><rect x="214.09" y="425.2" width="87.81" height="4.56" fill="none" stroke="#003a50" stroke-miterlimit="10"/><line x1="301.9" y1="427.47" x2="214.09" y2="427.47" fill="none" stroke="#003a50" stroke-miterlimit="10"/><rect x="297.35" y="425.2" width="4.55" height="4.56" fill="#fff"/><rect x="297.35" y="425.2" width="4.55" height="4.56" fill="none" stroke="#003a50" stroke-miterlimit="10"/><rect x="214.09" y="425.2" width="4.55" height="4.56" fill="#fff"/><rect x="214.09" y="425.2" width="4.55" height="4.56" fill="none" stroke="#003a50" stroke-miterlimit="10"/><rect x="254.65" y="425.2" width="4.55" height="4.56" fill="#fff"/><rect x="254.65" y="425.2" width="4.55" height="4.56" fill="none" stroke="#003a50" stroke-miterlimit="10"/><g clip-path="url(#clip-path)"><path d="M254.64,425.2v-2.9c0-20.15-16.11-33.1-36-33.1v36" fill="none" stroke="#003a50" stroke-miterlimit="10"/></g><rect x="30.17" y="425.2" width="88.01" height="4.56" fill="#fff"/><rect x="30.18" y="425.2" width="88.01" height="4.56" fill="none" stroke="#003a50" stroke-miterlimit="10"/><line x1="30.18" y1="427.47" x2="118.18" y2="427.47" fill="none" stroke="#003a50" stroke-miterlimit="10"/><rect x="30.17" y="425.2" width="4.56" height="4.56" fill="#fff"/><rect x="30.18" y="425.2" width="4.56" height="4.56" fill="none" stroke="#003a50" stroke-miterlimit="10"/><rect x="113.62" y="425.2" width="4.56" height="4.56" fill="#fff"/><rect x="113.62" y="425.2" width="4.56" height="4.56" fill="none" stroke="#003a50" stroke-miterlimit="10"/><rect x="72.98" y="425.2" width="4.56" height="4.56" fill="#fff"/><rect x="72.98" y="425.2" width="4.56" height="4.56" fill="none" stroke="#003a50" stroke-miterlimit="10"/><g clip-path="url(#clip-path)"><path d="M77.54,425.2v-2.9c0-20.15,16.15-33.1,36.08-33.1v36" fill="none" stroke="#003a50" stroke-miterlimit="10"/></g><rect x="14.68" y="91.58" width="42.38" height="92.09" fill="none" stroke="#003a50" stroke-miterlimit="10"/><g clip-path="url(#clip-path)"><rect x="19.65" y="95.38" width="32.03" height="84.24" rx="13.7" fill="none" stroke="#003a50" stroke-miterlimit="10"/><path d="M38,110a2.2,2.2,0,1,0-2.2,2.2A2.19,2.19,0,0,0,38,110Z" fill="none" stroke="#003a50" stroke-miterlimit="10"/><rect x="-42.05" y="91.58" width="42.38" height="92.09" fill="none" stroke="#003a50" stroke-miterlimit="10"/><path d="M99.7,119.66V91.09H76.62v28.57a11.54,11.54,0,0,0,23.08,0Z" fill="none" stroke="#003a50" stroke-miterlimit="10"/></g><rect x="76.62" y="91.1" width="23.08" height="11.08" fill="none" stroke="#003a50" stroke-miterlimit="10"/><g clip-path="url(#clip-path)"><path d="M403.59,61.06H375V84.13h28.57a11.54,11.54,0,1,0,0-23.07Z" fill="none" stroke="#003a50" stroke-miterlimit="10"/><rect x="375.02" y="61.06" width="11.08" height="23.08" fill="none" stroke="#003a50" stroke-miterlimit="10"/><path d="M143.24,76.37a3.39,3.39,0,0,0,3.13-2.1h1.93l5.1,3-2.32,3.77-2.65-1.46V91.45h-11.1V79.62l-2.65,1.46-2.32-3.77,5.14-3h2.58A3.44,3.44,0,0,0,143.24,76.37Z" fill="none" stroke="#003a50" stroke-miterlimit="10"/></g><rect x="125.87" y="66.47" width="34.02" height="32.78" fill="none" stroke="#003a50" stroke-miterlimit="10"/><rect x="325.34" y="99.12" width="34.02" height="33.97" fill="none" stroke="#003a50" stroke-miterlimit="10"/><g clip-path="url(#clip-path)"><path d="M346.65,114.6v-11H338v11a3.55,3.55,0,0,0,3.55,3.54h1.51A3.55,3.55,0,0,0,346.65,114.6Z" fill="none" stroke="#003a50" stroke-miterlimit="10"/></g><polyline points="338.87 128.7 342.35 128.7 345.82 128.7" fill="none" stroke="#003a50" stroke-miterlimit="10"/><line x1="342.35" y1="118.14" x2="342.35" y2="128.7" fill="none" stroke="#003a50" stroke-miterlimit="10"/><rect x="325.42" y="140.23" width="34.02" height="34.02" fill="none" stroke="#003a50" stroke-miterlimit="10"/><g clip-path="url(#clip-path)"><path d="M334.83,169.65a4.64,4.64,0,1,1,4.63-4.64A4.64,4.64,0,0,1,334.83,169.65Z" fill="none" stroke="#003a50" stroke-miterlimit="10"/><path d="M334.83,154.16a4.64,4.64,0,1,1,4.63-4.63A4.63,4.63,0,0,1,334.83,154.16Z" fill="none" stroke="#003a50" stroke-miterlimit="10"/><path d="M349.92,169.65a4.64,4.64,0,1,1,4.63-4.64A4.64,4.64,0,0,1,349.92,169.65Z" fill="none" stroke="#003a50" stroke-miterlimit="10"/><path d="M349.92,154.16a4.64,4.64,0,1,1,4.63-4.63A4.63,4.63,0,0,1,349.92,154.16Z" fill="none" stroke="#003a50" stroke-miterlimit="10"/></g><rect x="183.72" y="302.78" width="17.01" height="102.05" fill="none" stroke="#003a50" stroke-miterlimit="10"/><polygon points="192.76 396.81 189.23 353.91 192.76 310.81 195.22 310.81 195.22 396.81 192.76 396.81" fill="none" stroke="#003a50" stroke-miterlimit="10"/><rect x="161.06" y="285.8" width="17.01" height="102.05" fill="none" stroke="#003a50" stroke-miterlimit="10"/><polygon points="169.03 379.82 172.55 336.92 169.03 293.82 166.57 293.82 166.57 379.82 169.03 379.82" fill="none" stroke="#003a50" stroke-miterlimit="10"/><rect x="325.43" y="99.22" width="33.59" height="122.25" fill="none" stroke="#003a50" stroke-miterlimit="10"/><rect x="278.36" y="66.49" width="80.66" height="32.72" fill="none" stroke="#003a50" stroke-miterlimit="10"/><g clip-path="url(#clip-path)"><rect x="-52.49" y="264.79" width="52.33" height="113.67" fill="none" stroke="#003a50" stroke-miterlimit="10"/></g><rect x="160.12" y="66.49" width="21.14" height="32.72" fill="none" stroke="#003a50" stroke-miterlimit="10"/><rect x="125.64" y="156.66" width="55.62" height="26.49" fill="none" stroke="#003a50" stroke-miterlimit="10"/><polyline points="311.8 70.02 305 70.02 298.22 70.02" fill="none" stroke="#003a50" stroke-miterlimit="10"/><line x1="304.99" y1="83.64" x2="304.99" y2="70.02" fill="none" stroke="#003a50" stroke-miterlimit="10"/><g clip-path="url(#clip-path)"><rect x="290" y="75.85" width="30.06" height="21.67" rx="3.24" fill="none" stroke="#003a50" stroke-miterlimit="10"/><path d="M305,85.33a2.43,2.43,0,1,0-2.43-2.42A2.42,2.42,0,0,0,305,85.33Z" fill="none" stroke="#003a50" stroke-miterlimit="10"/><path d="M230,269.67a1.27,1.27,0,0,1,1,1.51,13.78,13.78,0,1,0,26.87,6.16,1.26,1.26,0,0,1,2.46.56,16.3,16.3,0,1,1-31.78-7.28A1.25,1.25,0,0,1,230,269.67Z" fill="none" stroke="#003a50" stroke-miterlimit="10"/><path d="M285.12,279.39a1.25,1.25,0,0,1,1.75-.33,13.79,13.79,0,0,0,15.53-22.79,1.26,1.26,0,1,1,1.41-2.08,16.3,16.3,0,0,1-18.35,26.95A1.26,1.26,0,0,1,285.12,279.39Z" fill="none" stroke="#003a50" stroke-miterlimit="10"/><path d="M287.63,232a1.25,1.25,0,0,1-1.33-1.18,13.78,13.78,0,0,0-27.52,1.63,1.26,1.26,0,0,1-2.52.15,16.3,16.3,0,1,1,32.55-1.93A1.26,1.26,0,0,1,287.63,232Z" fill="none" stroke="#003a50" stroke-miterlimit="10"/><path d="M244.15,286.28a12.69,12.69,0,0,1-12-15.48l2-8.88a3.53,3.53,0,0,1,4.24-2.68l13.44,3.08a23.73,23.73,0,0,0,6,9.44l-1,4.2C255.55,281.92,250.27,286.48,244.15,286.28Z" fill="none" stroke="#003a50" stroke-miterlimit="10"/><path d="M287,277.76l-2.32-1.6a23.81,23.81,0,0,0,13.64-21.32l2.52,1.72c5,3.44,7.4,10,5,15.64A12.7,12.7,0,0,1,287,277.76Z" fill="none" stroke="#003a50" stroke-miterlimit="10"/><path d="M260.11,235.48l-.12-2c-.36-6.12,3.4-12,9.32-13.48a12.66,12.66,0,0,1,15.88,11.48l.12,1.84a23.93,23.93,0,0,0-16.64-1.92A23.5,23.5,0,0,0,260.11,235.48Z" fill="none" stroke="#003a50" stroke-miterlimit="10"/><path d="M257.87,271.76a23.73,23.73,0,0,1-6-9.44,16.51,16.51,0,0,1-.6-2,23.85,23.85,0,0,1,8.84-24.84,23.5,23.5,0,0,1,8.56-4,23.87,23.87,0,0,1,28.92,17.4,22.12,22.12,0,0,1,.68,6,23.81,23.81,0,0,1-13.64,21.32,22.85,22.85,0,0,1-4.48,1.6A23.8,23.8,0,0,1,257.87,271.76Z" fill="none" stroke="#003a50" stroke-miterlimit="10"/><path d="M55,218.56a1,1,0,0,1-.54.9,1,1,0,0,1-1.29-.46,29.69,29.69,0,0,1,0-25.26.94.94,0,0,1,1.29-.45,1,1,0,0,1,.44,1.34,27.64,27.64,0,0,0,0,23.49A1,1,0,0,1,55,218.56Z" fill="none" stroke="#003a50" stroke-miterlimit="10"/><path d="M49.65,218.56a1,1,0,0,1-.54.9,1,1,0,0,1-1.29-.46,29.69,29.69,0,0,1,0-25.26.94.94,0,0,1,1.29-.45,1,1,0,0,1,.44,1.34,27.64,27.64,0,0,0,0,23.49A1,1,0,0,1,49.65,218.56Z" fill="none" stroke="#003a50" stroke-miterlimit="10"/><path d="M44.28,218.56a1,1,0,0,1-.54.9,1,1,0,0,1-1.29-.46,29.69,29.69,0,0,1,0-25.26.94.94,0,0,1,1.29-.45,1,1,0,0,1,.44,1.34,27.64,27.64,0,0,0,0,23.49A1,1,0,0,1,44.28,218.56Z" fill="none" stroke="#003a50" stroke-miterlimit="10"/><path d="M38.91,218.56a1,1,0,0,1-.54.9,1,1,0,0,1-1.3-.46,29.69,29.69,0,0,1,0-25.26,1,1,0,0,1,1.3-.45,1,1,0,0,1,.44,1.34,27.64,27.64,0,0,0,0,23.49A1,1,0,0,1,38.91,218.56Z" fill="none" stroke="#003a50" stroke-miterlimit="10"/><path d="M33.54,218.56a1,1,0,0,1-.54.9,1,1,0,0,1-1.3-.46,29.69,29.69,0,0,1,0-25.26.94.94,0,0,1,1.29-.45,1,1,0,0,1,.45,1.34,27.64,27.64,0,0,0,0,23.49A1,1,0,0,1,33.54,218.56Z" fill="none" stroke="#003a50" stroke-miterlimit="10"/><path d="M28.17,218.56a1,1,0,0,1-.54.9,1,1,0,0,1-1.3-.46,29.69,29.69,0,0,1,0-25.26.94.94,0,0,1,1.29-.45,1,1,0,0,1,.45,1.34,27.64,27.64,0,0,0,0,23.49A1,1,0,0,1,28.17,218.56Z" fill="none" stroke="#003a50" stroke-miterlimit="10"/><path d="M60.4,218.56a1,1,0,0,1-.54.9,1,1,0,0,1-1.3-.46,29.69,29.69,0,0,1,0-25.26.94.94,0,0,1,1.29-.45,1,1,0,0,1,.45,1.34,27.64,27.64,0,0,0,0,23.49A1.13,1.13,0,0,1,60.4,218.56Z" fill="none" stroke="#003a50" stroke-miterlimit="10"/><path d="M65.77,218.56a1,1,0,0,1-.54.9,1,1,0,0,1-1.3-.46,29.69,29.69,0,0,1,0-25.26.94.94,0,0,1,1.29-.45,1,1,0,0,1,.45,1.34,27.64,27.64,0,0,0,0,23.49A1,1,0,0,1,65.77,218.56Z" fill="none" stroke="#003a50" stroke-miterlimit="10"/></g><line x1="177.8" y1="206.37" x2="13.93" y2="206.37" fill="none" stroke="#003a50" stroke-miterlimit="10"/><rect x="14.94" y="189.08" width="162.86" height="34.02" fill="none" stroke="#003a50" stroke-miterlimit="10"/><g clip-path="url(#clip-path)"><path d="M47.69,45.4a1,1,0,0,1-.54.89,1,1,0,0,1-1.3-.45,29.25,29.25,0,0,1,0-25.06.94.94,0,0,1,1.29-.45,1,1,0,0,1,.45,1.33,27.21,27.21,0,0,0,0,23.3A1.13,1.13,0,0,1,47.69,45.4Z" fill="none" stroke="#003a50" stroke-miterlimit="10"/><path d="M42.31,45.4a1,1,0,0,1-.54.89,1,1,0,0,1-1.29-.45,29.25,29.25,0,0,1,0-25.06.94.94,0,0,1,1.29-.45,1,1,0,0,1,.44,1.33,27.21,27.21,0,0,0,0,23.3A1,1,0,0,1,42.31,45.4Z" fill="none" stroke="#003a50" stroke-miterlimit="10"/><path d="M36.94,45.4a1,1,0,0,1-.54.89,1,1,0,0,1-1.29-.45,29.25,29.25,0,0,1,0-25.06.94.94,0,0,1,1.29-.45,1,1,0,0,1,.44,1.33,27.21,27.21,0,0,0,0,23.3A1,1,0,0,1,36.94,45.4Z" fill="none" stroke="#003a50" stroke-miterlimit="10"/><path d="M31.57,45.4a1,1,0,0,1-.54.89,1,1,0,0,1-1.29-.45,29.25,29.25,0,0,1,0-25.06A.94.94,0,0,1,31,20.33a1,1,0,0,1,.44,1.33,27.21,27.21,0,0,0,0,23.3A1,1,0,0,1,31.57,45.4Z" fill="none" stroke="#003a50" stroke-miterlimit="10"/><path d="M26.2,45.4a1,1,0,0,1-.54.89,1,1,0,0,1-1.3-.45,29.25,29.25,0,0,1,0-25.06,1,1,0,0,1,1.3-.45,1,1,0,0,1,.44,1.33,27.21,27.21,0,0,0,0,23.3A1,1,0,0,1,26.2,45.4Z" fill="none" stroke="#003a50" stroke-miterlimit="10"/><path d="M20.83,45.4a1,1,0,0,1-.54.89,1,1,0,0,1-1.3-.45,29.25,29.25,0,0,1,0-25.06.94.94,0,0,1,1.29-.45,1,1,0,0,1,.45,1.33,27.21,27.21,0,0,0,0,23.3A1,1,0,0,1,20.83,45.4Z" fill="none" stroke="#003a50" stroke-miterlimit="10"/><path d="M53.06,45.4a1,1,0,0,1-.54.89,1,1,0,0,1-1.3-.45,29.25,29.25,0,0,1,0-25.06.94.94,0,0,1,1.29-.45A1,1,0,0,1,53,21.66,27.21,27.21,0,0,0,53,45,1,1,0,0,1,53.06,45.4Z" fill="none" stroke="#003a50" stroke-miterlimit="10"/><path d="M58.43,45.4a1,1,0,0,1-.54.89,1,1,0,0,1-1.3-.45,29.25,29.25,0,0,1,0-25.06,1,1,0,0,1,1.3-.45,1,1,0,0,1,.44,1.33,27.21,27.21,0,0,0,0,23.3A1,1,0,0,1,58.43,45.4Z" fill="none" stroke="#003a50" stroke-miterlimit="10"/><rect x="7.34" y="15.88" width="119.14" height="34.3" fill="none" stroke="#003a50" stroke-miterlimit="10"/></g><rect x="57.38" y="157.79" width="61.57" height="25.39" fill="none" stroke="#003a50" stroke-miterlimit="10"/><g clip-path="url(#clip-path)"><rect x="75.48" y="159.86" width="24.4" height="25.04" rx="2.83" fill="none" stroke="#003a50" stroke-miterlimit="10"/><path d="M87.68,170.46a1.92,1.92,0,1,1-1.91,1.92A1.91,1.91,0,0,1,87.68,170.46Z" fill="none" stroke="#003a50" stroke-miterlimit="10"/></g><rect x="325.37" y="187.88" width="33.52" height="33.52" fill="none" stroke="#003a50" stroke-miterlimit="10"/><line x1="342.13" y1="214.48" x2="342.13" y2="194.81" fill="none" stroke="#003a50" stroke-miterlimit="10"/><line x1="351.97" y1="204.65" x2="332.3" y2="204.65" fill="none" stroke="#003a50" stroke-miterlimit="10"/><line x1="349.09" y1="211.6" x2="335.18" y2="197.69" fill="none" stroke="#003a50" stroke-miterlimit="10"/><line x1="349.09" y1="197.69" x2="335.18" y2="211.6" fill="none" stroke="#003a50" stroke-miterlimit="10"/><g clip-path="url(#clip-path)"><rect x="375.38" y="111.26" width="26.62" height="97.42" fill="none" stroke="#003a50" stroke-miterlimit="10"/><rect x="-88.86" y="189.08" width="90.71" height="34.02" fill="none" stroke="#003a50" stroke-miterlimit="10"/><line x1="1.85" y1="206.09" x2="-88.86" y2="206.09" fill="none" stroke="#003a50" stroke-miterlimit="10"/><path d="M312.67,353.86h41v45.77H310.46V356.07A2.21,2.21,0,0,1,312.67,353.86Z" fill="none" stroke="#003a50" stroke-miterlimit="10"/><path d="M312.45,308h41.26v45.77H312.45a2,2,0,0,1-2-2V310A2,2,0,0,1,312.45,308Z" fill="none" stroke="#003a50" stroke-miterlimit="10"/><path d="M310.46,399.63a3.11,3.11,0,0,0-2.83,3.33v4.22a3.1,3.1,0,0,0,2.83,3.32h48.2V297.12H310.89a3.11,3.11,0,0,0-2.83,3.32v4.23a3.11,3.11,0,0,0,2.83,3.32h42.82v91.64Z" fill="none" stroke="#003a50" stroke-miterlimit="10"/></g><rect x="344.46" y="307.99" width="9.25" height="91.64" fill="none" stroke="#003a50" stroke-miterlimit="10"/><rect x="16.19" y="250.74" width="22.68" height="22.68" fill="none" stroke="#003a50" stroke-miterlimit="10"/><g clip-path="url(#clip-path)"><path d="M34,268.59a9.2,9.2,0,1,1,0-13A9.2,9.2,0,0,1,34,268.59Z" fill="none" stroke="#003a50" stroke-miterlimit="10"/><path d="M34.65,267.89c-1.69-.16-3.41.49-5.06-1.16-2.44-2.44.14-5-2.3-7.46s-5,.14-7.46-2.3" fill="none" stroke="#003a50" stroke-miterlimit="10"/></g><rect x="16.19" y="280.89" width="113.38" height="102.05" fill="none" stroke="#003a50" stroke-miterlimit="10"/><g clip-path="url(#clip-path)"><path d="M119.84,290.89v82.05a2.1,2.1,0,0,1-2.09,2.09H50.11V288.81h67.64A2.09,2.09,0,0,1,119.84,290.89Z" fill="none" stroke="#003a50" stroke-miterlimit="10"/><rect x="23.62" y="332.78" width="22.88" height="42.5" rx="1.98" fill="none" stroke="#003a50" stroke-miterlimit="10"/><rect x="23.62" y="288.55" width="22.88" height="42.5" rx="1.98" fill="none" stroke="#003a50" stroke-miterlimit="10"/></g><line x1="63.96" y1="288.55" x2="63.96" y2="375.28" fill="none" stroke="#003a50" stroke-miterlimit="10"/><g clip-path="url(#clip-path)"><rect x="375.2" y="389.22" width="22.68" height="22.68" fill="none" stroke="#003a50" stroke-miterlimit="10"/><rect x="375.2" y="250.79" width="22.68" height="22.68" fill="none" stroke="#003a50" stroke-miterlimit="10"/><rect x="375.2" y="280.33" width="113.38" height="102.05" fill="none" stroke="#003a50" stroke-miterlimit="10"/><rect x="-26.76" y="15.88" width="34.02" height="34.02" fill="none" stroke="#003a50" stroke-miterlimit="10"/><path d="M181.7,280.06h-3.46a43.48,43.48,0,0,1-43.48-43.47H181.7" fill="none" stroke="#003a50" stroke-miterlimit="10" stroke-width="1.6"/><path d="M124.21,114.77h3.12a39.34,39.34,0,0,1,39.34,39.34H124.21" fill="none" stroke="#003a50" stroke-miterlimit="10" stroke-width="1.6"/><path d="M191,56.62V52.55A51.12,51.12,0,0,1,242.15,1.43V56.62" fill="none" stroke="#003a50" stroke-miterlimit="10" stroke-width="1.6"/><path d="M137.43-36.6h4.07a51.13,51.13,0,0,1,51.13,51.12h-55.2" fill="none" stroke="#003a50" stroke-miterlimit="10" stroke-width="1.6"/><rect x="252.61" y="-2.35" width="16.32" height="66" fill="#003a50"/><rect x="241.3" y="50.18" width="131.96" height="16.32" fill="#003a50"/><rect x="-0.16" y="50.18" width="191.83" height="16.32" fill="#003a50"/><rect x="-0.16" y="58.34" width="16.32" height="372.48" fill="#003a50"/><rect x="126.34" y="13.65" width="16.32" height="40.5" fill="#003a50"/><rect x="359.02" y="50.18" width="16.32" height="380.64" fill="#003a50"/><rect x="-1.36" y="417.9" width="27.03" height="46.75" fill="#003a50"/><rect x="2.64" y="417.9" width="27.03" height="23.38" fill="#003a50"/><rect x="124.18" y="411.73" width="82.83" height="27.12" fill="#003a50"/><rect x="301.76" y="417.9" width="95.33" height="34.25" fill="#003a50"/><rect x="369.92" y="421.9" width="27.17" height="41.92" fill="#003a50"/><polygon points="118.56 415.4 214.29 415.4 214.29 464.07 118.56 452.55 118.56 415.4" fill="#003a50" fill-rule="evenodd"/><rect x="-91.89" y="184.04" width="94.48" height="6.38" fill="#003a50"/><rect x="-95.51" y="50.15" width="99.68" height="6.38" fill="#003a50"/><rect x="-95.51" y="85.77" width="99.68" height="6.38" fill="#003a50"/><rect x="178.07" y="279.27" width="6.38" height="136.12" fill="#003a50"/><rect x="178.07" y="183.15" width="6.38" height="54.19" fill="#003a50"/><rect x="368.96" y="6.32" width="6.38" height="52.01" fill="#003a50"/><rect x="265.09" y="24.38" width="108.92" height="6.38" fill="#003a50"/><rect x="316.36" y="26.65" width="6.38" height="33.17" fill="#003a50"/><rect x="368.96" y="6.4" width="128.72" height="6.38" fill="#003a50"/><rect x="368.96" y="104.77" width="39.47" height="6.38" fill="#003a50"/><rect x="119.26" y="65.32" width="6.38" height="50.21" fill="#003a50"/><rect x="119.26" y="153.27" width="6.38" height="32.88" fill="#003a50"/><rect x="181.26" y="156.3" width="3.19" height="29.85" fill="#003a50"/><rect x="181.26" y="66.47" width="3.19" height="36.33" fill="#003a50"/><rect x="14.67" y="85.21" width="107.78" height="6.38" fill="#003a50"/><rect x="83.12" y="62.59" width="6.38" height="26.37" fill="#003a50"/><rect x="252.01" y="63.65" width="6.38" height="25.25" fill="#003a50"/><rect x="271.99" y="64.4" width="6.38" height="24.5" fill="#003a50"/><rect x="253.86" y="82.52" width="24.5" height="6.38" fill="#003a50"/><rect x="14.68" y="183.34" width="166.58" height="6.38" fill="#003a50"/><line x1="183.72" y1="156.65" x2="186.55" y2="156.65" fill="none" stroke="#003a50" stroke-miterlimit="10"/><line x1="192.3" y1="156.65" x2="246.9" y2="156.65" fill="none" stroke="#003a50" stroke-miterlimit="10" stroke-dasharray="5.75 5.75"/><polyline points="249.78 156.66 252.61 156.66 252.61 153.82" fill="none" stroke="#003a50" stroke-miterlimit="10"/><line x1="252.61" y1="147.97" x2="252.61" y2="92.44" fill="none" stroke="#003a50" stroke-miterlimit="10" stroke-dasharray="5.85 5.85"/><line x1="252.61" y1="89.51" x2="252.61" y2="86.68" fill="none" stroke="#003a50" stroke-miterlimit="10"/><line x1="9.48" y1="16.16" x2="9.48" y2="-55.05" fill="none" stroke="#003a50" stroke-miterlimit="10" stroke-dasharray="5.67 5.67"/></g><g clip-path="url(#clip-path)"><path d="M80.91,139.59H75.09v-1.84H84v1.84l-4.53,2.65v.07H80.7a3.86,3.86,0,0,1,2.79,1A3.52,3.52,0,0,1,84.55,146a3.35,3.35,0,0,1-1.33,2.83,7,7,0,0,1-7.24,0A3.36,3.36,0,0,1,74.65,146v-.32h2.11V146c0,1.36.94,2,2.84,2s2.84-.67,2.84-2-1-2-2.84-2H76.33v-1.67l4.58-2.68Z" fill="#003a50"/><path d="M86.65,149.52a1,1,0,0,1-.33-.8,1,1,0,0,1,.33-.81,1.4,1.4,0,0,1,1.73,0,1,1,0,0,1,.33.81,1,1,0,0,1-.33.8,1.4,1.4,0,0,1-1.73,0Z" fill="#003a50"/><path d="M96.75,139.59H90.93v-1.84h8.86v1.84l-4.52,2.65v.07h1.28a3.86,3.86,0,0,1,2.79,1,3.52,3.52,0,0,1,1,2.66,3.33,3.33,0,0,1-1.33,2.83,7,7,0,0,1-7.24,0A3.39,3.39,0,0,1,90.49,146v-.32H92.6V146c0,1.36,1,2,2.84,2s2.84-.67,2.84-2-.94-2-2.84-2H92.18v-1.67l4.57-2.68Z" fill="#003a50"/><path d="M157.24,116.12h-9.93v-1.57a2.76,2.76,0,0,1,.58-1.74,4,4,0,0,1,1.44-1.2c.5-.25,1.12-.54,1.87-.86s1.32-.56,1.88-.77a4.09,4.09,0,0,0,1.44-.92,1.78,1.78,0,0,0,.57-1.3c0-1.26-.88-1.88-2.66-1.88s-2.68.72-2.68,2.15v.41h-2.1V108a3.62,3.62,0,0,1,1.26-3,5.36,5.36,0,0,1,3.51-1,5.61,5.61,0,0,1,3.51,1,3.29,3.29,0,0,1,1.27,2.75,3.17,3.17,0,0,1-.55,1.84,4.39,4.39,0,0,1-1.41,1.3c-.59.34-1.21.65-1.83.93s-1.24.53-1.83.75a5.55,5.55,0,0,0-1.4.74,1.25,1.25,0,0,0-.57,1h7.63Z" fill="#003a50"/><path d="M159.34,116a1,1,0,0,1-.32-.8,1,1,0,0,1,.32-.81,1.23,1.23,0,0,1,.87-.3,1.2,1.2,0,0,1,.86.3,1,1,0,0,1,.33.81,1,1,0,0,1-.33.8,1.2,1.2,0,0,1-.86.3A1.23,1.23,0,0,1,159.34,116Z" fill="#003a50"/><path d="M173.12,116.12h-9.94v-1.57a2.77,2.77,0,0,1,.59-1.74,4,4,0,0,1,1.44-1.2c.5-.25,1.12-.54,1.87-.86s1.32-.56,1.88-.77a4.09,4.09,0,0,0,1.44-.92,1.78,1.78,0,0,0,.57-1.3c0-1.26-.89-1.88-2.66-1.88s-2.68.72-2.68,2.15v.41h-2.11V108a3.59,3.59,0,0,1,1.27-3,5.34,5.34,0,0,1,3.51-1,5.65,5.65,0,0,1,3.51,1,3.29,3.29,0,0,1,1.27,2.75,3.17,3.17,0,0,1-.55,1.84,4.39,4.39,0,0,1-1.41,1.3q-.9.51-1.83.93t-1.83.75a5.55,5.55,0,0,0-1.4.74,1.25,1.25,0,0,0-.57,1h7.63Z" fill="#003a50"/><path d="M310.63-6.58A5,5,0,0,1,314-5.52a3.7,3.7,0,0,1,1.25,3,3.71,3.71,0,0,1-1.29,3,5.39,5.39,0,0,1-3.55,1.08,5.77,5.77,0,0,1-3.56-1,3.16,3.16,0,0,1-1.29-2.68h2.11a1.53,1.53,0,0,0,.7,1.33,3.53,3.53,0,0,0,2,.49,3.09,3.09,0,0,0,2-.58,2,2,0,0,0,.7-1.68,2,2,0,0,0-.73-1.7,3.25,3.25,0,0,0-2.07-.59,3.58,3.58,0,0,0-1.92.42,1.84,1.84,0,0,0-.7.64l-.05.12h-2.11v-6.87h8.88v1.84h-6.77v3h.05a1.91,1.91,0,0,1,.4-.31,3.94,3.94,0,0,1,.55-.26A5.6,5.6,0,0,1,310.63-6.58Z" fill="#003a50"/><path d="M317.33,1.26a1,1,0,0,1-.32-.8,1.07,1.07,0,0,1,.32-.81,1.41,1.41,0,0,1,1.74,0,1.07,1.07,0,0,1,.32.81,1,1,0,0,1-.32.8,1.41,1.41,0,0,1-1.74,0Z" fill="#003a50"/><path d="M324.44,1.4h-2.35l5.41-10h-6.92v-1.87h9.28v1.87Z" fill="#003a50"/><path d="M227.3,444.3a5.19,5.19,0,0,1,0-6.23,4,4,0,0,1,5.74,0,5.19,5.19,0,0,1,0,6.23,4,4,0,0,1-5.74,0Zm4.61-1a4.08,4.08,0,0,0,0-4.29,2.23,2.23,0,0,0-3.47,0,4,4,0,0,0,0,4.29,2,2,0,0,0,1.73.83A2.07,2.07,0,0,0,231.91,443.33Z" fill="#003a50"/><path d="M235.63,445.29a.71.71,0,0,1-.23-.56.75.75,0,0,1,.23-.57.87.87,0,0,1,.61-.21.85.85,0,0,1,.61.21.75.75,0,0,1,.23.57.71.71,0,0,1-.23.56.86.86,0,0,1-.61.22A.88.88,0,0,1,235.63,445.29Z" fill="#003a50"/><path d="M245.24,439.35h-1.56s0,0,0-.12a1.2,1.2,0,0,0-.15-.31,1.91,1.91,0,0,0-.27-.35,1.27,1.27,0,0,0-.5-.29,2.09,2.09,0,0,0-.72-.12,1.77,1.77,0,0,0-1.51.73,3.11,3.11,0,0,0-.54,1.89h0a1.11,1.11,0,0,1,.31-.3,2.73,2.73,0,0,1,.43-.26,3.14,3.14,0,0,1,.67-.21,4,4,0,0,1,.86-.09,3.57,3.57,0,0,1,2.38.78,2.62,2.62,0,0,1-.05,4,3.87,3.87,0,0,1-2.54.78,3.41,3.41,0,0,1-2.73-1.09,4.53,4.53,0,0,1-.93-3v-.28a4.81,4.81,0,0,1,.93-3,3.18,3.18,0,0,1,2.68-1.21,4.06,4.06,0,0,1,1.5.26,2.73,2.73,0,0,1,1,.66A2.48,2.48,0,0,1,245.24,439.35Zm-1.77,2.22a2.58,2.58,0,0,0-2.79,0,1.33,1.33,0,0,0-.55,1.12,1.31,1.31,0,0,0,.54,1.1,2.54,2.54,0,0,0,2.8,0,1.29,1.29,0,0,0,.55-1.1A1.35,1.35,0,0,0,243.47,441.57Z" fill="#003a50"/><path d="M46.05,444.3a5.19,5.19,0,0,1,0-6.23,3.63,3.63,0,0,1,2.88-1.2,3.59,3.59,0,0,1,2.86,1.2,5.19,5.19,0,0,1,0,6.23,3.59,3.59,0,0,1-2.86,1.21A3.64,3.64,0,0,1,46.05,444.3Zm4.61-1a4.08,4.08,0,0,0,0-4.29,2.23,2.23,0,0,0-3.47,0,4,4,0,0,0,0,4.29,2.23,2.23,0,0,0,3.47,0Z" fill="#003a50"/><path d="M54.38,445.29a.71.71,0,0,1-.23-.56.75.75,0,0,1,.23-.57A.88.88,0,0,1,55,444a.84.84,0,0,1,.6.21.71.71,0,0,1,.23.57.68.68,0,0,1-.23.56.85.85,0,0,1-.6.22A.88.88,0,0,1,54.38,445.29Z" fill="#003a50"/><path d="M64,439.35H62.43s0,0,0-.12a1.2,1.2,0,0,0-.15-.31,1.31,1.31,0,0,0-.27-.35,1.2,1.2,0,0,0-.5-.29,2.08,2.08,0,0,0-.71-.12,1.78,1.78,0,0,0-1.52.73,3.11,3.11,0,0,0-.54,1.89h0a1.27,1.27,0,0,1,.31-.3,3.28,3.28,0,0,1,.43-.26,3.14,3.14,0,0,1,.67-.21,4.12,4.12,0,0,1,.86-.09,3.57,3.57,0,0,1,2.38.78,2.49,2.49,0,0,1,.92,2,2.54,2.54,0,0,1-1,2.05,3.92,3.92,0,0,1-2.55.78,3.41,3.41,0,0,1-2.73-1.09,4.53,4.53,0,0,1-.93-3v-.28a4.81,4.81,0,0,1,.93-3,3.18,3.18,0,0,1,2.69-1.21,4.14,4.14,0,0,1,1.5.26,2.69,2.69,0,0,1,1,.66A2.48,2.48,0,0,1,64,439.35Zm-1.77,2.22a2.58,2.58,0,0,0-2.79,0,1.33,1.33,0,0,0-.55,1.12,1.29,1.29,0,0,0,.55,1.1,2.22,2.22,0,0,0,1.4.42,2.28,2.28,0,0,0,1.4-.42,1.31,1.31,0,0,0,.54-1.1A1.33,1.33,0,0,0,62.22,441.57Z" fill="#003a50"/><path d="M37.8-8.69H32v-1.84h8.86v1.84L36.32-6V-6H37.6a3.9,3.9,0,0,1,2.79,1,3.52,3.52,0,0,1,1,2.67A3.32,3.32,0,0,1,40.11.53a5.81,5.81,0,0,1-3.62,1,5.81,5.81,0,0,1-3.62-1,3.38,3.38,0,0,1-1.33-2.85v-.33h2.11v.33c0,1.36,1,2,2.84,2s2.84-.67,2.84-2-.94-2-2.84-2H33.23V-5.94L37.8-8.62Z" fill="#003a50"/><path d="M43.54,1.25a1,1,0,0,1-.32-.81,1.07,1.07,0,0,1,.32-.81,1.3,1.3,0,0,1,.88-.29,1.28,1.28,0,0,1,.86.29,1.07,1.07,0,0,1,.32.81,1,1,0,0,1-.32.81,1.23,1.23,0,0,1-.86.3A1.25,1.25,0,0,1,43.54,1.25Z" fill="#003a50"/><path d="M56.12.61a6.31,6.31,0,0,1-3.67.94A6.5,6.5,0,0,1,48.76.61a2.94,2.94,0,0,1-1.37-2.56,2.53,2.53,0,0,1,.26-1.16A2.41,2.41,0,0,1,48.3-4a4.05,4.05,0,0,1,1.4-.77L50-4.81V-4.9a3.51,3.51,0,0,1-.76-.29,2.61,2.61,0,0,1-.66-.44A2.15,2.15,0,0,1,48-6.39a2.39,2.39,0,0,1-.23-1A2.8,2.8,0,0,1,49-9.8a5.74,5.74,0,0,1,3.42-.9,5.81,5.81,0,0,1,3.43.9,2.82,2.82,0,0,1,1.24,2.38,2.47,2.47,0,0,1-.22,1,1.87,1.87,0,0,1-.55.74,3.62,3.62,0,0,1-1.2.68l-.22,0v.09l.28.07a5.31,5.31,0,0,1,.63.26A5.14,5.14,0,0,1,56.6-4a2.82,2.82,0,0,1,.61.82,2.58,2.58,0,0,1,.28,1.2A3,3,0,0,1,56.12.61ZM50.34-.74a3.79,3.79,0,0,0,2.1.48,3.85,3.85,0,0,0,2.1-.47,1.52,1.52,0,0,0,.74-1.35,1.53,1.53,0,0,0-.74-1.35,5,5,0,0,0-4.2,0,1.51,1.51,0,0,0-.74,1.35A1.48,1.48,0,0,0,50.34-.74ZM50-7.26a1.37,1.37,0,0,0,.64,1.19,3.25,3.25,0,0,0,1.83.44,3.24,3.24,0,0,0,1.82-.44,1.35,1.35,0,0,0,.64-1.19,1.35,1.35,0,0,0-.65-1.2,3.25,3.25,0,0,0-1.81-.43,3.23,3.23,0,0,0-1.81.43A1.36,1.36,0,0,0,50-7.26Z" fill="#003a50"/><path d="M82.4,256.72l-2.48,2v-2.25l2.73-2.26h1.86v11.9H82.4Z" fill="#003a50"/><path d="M96.9,266.07H87v-1.56a2.74,2.74,0,0,1,.58-1.74,4,4,0,0,1,1.44-1.2c.5-.25,1.12-.54,1.87-.86s1.32-.56,1.88-.77a4.09,4.09,0,0,0,1.44-.92,1.8,1.8,0,0,0,.58-1.3c0-1.26-.89-1.88-2.67-1.88s-2.67.71-2.67,2.15v.41H87.31V258a3.62,3.62,0,0,1,1.26-3,5.36,5.36,0,0,1,3.51-1,5.61,5.61,0,0,1,3.51,1,3.29,3.29,0,0,1,1.28,2.75,3.12,3.12,0,0,1-.56,1.83,4.28,4.28,0,0,1-1.4,1.31c-.6.34-1.21.65-1.84.93s-1.24.53-1.83.75a5.55,5.55,0,0,0-1.4.74,1.25,1.25,0,0,0-.57,1H96.9Z" fill="#003a50"/><path d="M99,265.94a1,1,0,0,1-.32-.8,1,1,0,0,1,.32-.81,1.41,1.41,0,0,1,1.74,0,1.07,1.07,0,0,1,.32.81,1,1,0,0,1-.32.8,1.41,1.41,0,0,1-1.74,0Z" fill="#003a50"/><path d="M106.11,266.07h-2.35l5.41-10h-6.92v-1.87h9.28V256Z" fill="#003a50"/><path d="M210.43,116.06H200.5V114.5a2.74,2.74,0,0,1,.58-1.74,4,4,0,0,1,1.45-1.2c.5-.25,1.12-.54,1.87-.86s1.32-.56,1.87-.77a4.23,4.23,0,0,0,1.45-.92,1.78,1.78,0,0,0,.57-1.3q0-1.89-2.67-1.89T203,108v.41h-2.11V108a3.62,3.62,0,0,1,1.26-3,5.39,5.39,0,0,1,3.52-1,5.65,5.65,0,0,1,3.51,1,3.29,3.29,0,0,1,1.27,2.75,3.17,3.17,0,0,1-.56,1.84,4.26,4.26,0,0,1-1.4,1.3c-.6.34-1.21.65-1.84.93s-1.23.52-1.82.75a5.63,5.63,0,0,0-1.41.74,1.26,1.26,0,0,0-.56,1h7.62Z" fill="#003a50"/><path d="M212.53,115.93a1,1,0,0,1-.32-.8,1.07,1.07,0,0,1,.32-.81,1.25,1.25,0,0,1,.88-.3,1.22,1.22,0,0,1,.86.3,1,1,0,0,1,.32.81,1,1,0,0,1-.32.8,1.22,1.22,0,0,1-.86.3A1.25,1.25,0,0,1,212.53,115.93Z" fill="#003a50"/><path d="M217.94,114.53a7.34,7.34,0,0,1,0-8.84,5.71,5.71,0,0,1,8.13,0,7.34,7.34,0,0,1,0,8.84,5.71,5.71,0,0,1-8.13,0Zm6.53-1.39a5.73,5.73,0,0,0,0-6.07,3.15,3.15,0,0,0-4.92,0,5.67,5.67,0,0,0,0,6.07,3.14,3.14,0,0,0,4.92,0Z" fill="#003a50"/><path d="M187.51,256.72l-2.48,2v-2.25l2.73-2.26h1.86v11.9h-2.11Z" fill="#003a50"/><path d="M200.81,265.31a7.71,7.71,0,0,1-7.36,0,2.93,2.93,0,0,1-1.37-2.56,2.69,2.69,0,0,1,.25-1.16,2.29,2.29,0,0,1,.66-.85,4,4,0,0,1,1.39-.78l.26-.06v-.09a3.51,3.51,0,0,1-.76-.29,3.24,3.24,0,0,1-.67-.44,2.35,2.35,0,0,1-.54-.76,2.41,2.41,0,0,1-.22-1,2.8,2.8,0,0,1,1.25-2.38,5.74,5.74,0,0,1,3.42-.9,5.85,5.85,0,0,1,3.44.9,2.82,2.82,0,0,1,1.24,2.38,2.43,2.43,0,0,1-.22,1,2,2,0,0,1-.55.75,3.72,3.72,0,0,1-1.2.68l-.22.05v.09l.28.06a5.42,5.42,0,0,1,.62.27,3.76,3.76,0,0,1,.78.51,2.69,2.69,0,0,1,.61.82,2.63,2.63,0,0,1,.27,1.19A3,3,0,0,1,200.81,265.31ZM195,264a3.84,3.84,0,0,0,2.1.48,4,4,0,0,0,2.11-.47,1.53,1.53,0,0,0,.74-1.35,1.51,1.51,0,0,0-.74-1.35,4.95,4.95,0,0,0-4.21,0,1.6,1.6,0,0,0,0,2.69Zm-.36-6.52a1.36,1.36,0,0,0,.64,1.19,4,4,0,0,0,3.65,0,1.36,1.36,0,0,0,.64-1.19,1.38,1.38,0,0,0-.65-1.2,3.29,3.29,0,0,0-1.82-.44,3.21,3.21,0,0,0-1.8.44A1.36,1.36,0,0,0,194.66,257.44Z" fill="#003a50"/><path d="M204.28,265.94a1,1,0,0,1-.32-.8,1.07,1.07,0,0,1,.32-.81,1.25,1.25,0,0,1,.88-.3,1.22,1.22,0,0,1,.86.3,1,1,0,0,1,.32.81,1,1,0,0,1-.32.8,1.22,1.22,0,0,1-.86.3A1.25,1.25,0,0,1,204.28,265.94Z" fill="#003a50"/><path d="M213.57,258.09a5,5,0,0,1,3.34,1.07,4.18,4.18,0,0,1,0,6,5.41,5.41,0,0,1-3.55,1.08,5.75,5.75,0,0,1-3.56-1,3.16,3.16,0,0,1-1.29-2.68h2.11a1.53,1.53,0,0,0,.7,1.33,3.61,3.61,0,0,0,2,.49,3.15,3.15,0,0,0,2-.58,2,2,0,0,0,.7-1.68,2.05,2.05,0,0,0-.73-1.71,3.32,3.32,0,0,0-2.08-.58,3.54,3.54,0,0,0-1.91.42,1.84,1.84,0,0,0-.7.64l0,.12h-2.11v-6.87h8.88V256h-6.77v3h0a1.91,1.91,0,0,1,.4-.31,3.51,3.51,0,0,1,.55-.27A5.6,5.6,0,0,1,213.57,258.09Z" fill="#003a50"/></g></svg>