<svg id="Слой_1" data-name="Слой 1" xmlns="http://www.w3.org/2000/svg" xmlns:xlink="http://www.w3.org/1999/xlink" viewBox="0 0 581.1 365.67"><defs><clipPath id="clip-path"><polygon points="0 0.14 0 316.91 15.65 316.91 15.65 365.53 581.1 365.53 581.1 66.41 288.4 66.41 288.4 0.14 0 0.14" fill="none"/></clipPath></defs><polygon points="49.67 0.14 49.67 1.83 284.99 1.83 284.99 66.09 288.4 66.09 288.4 0.14 49.67 0.14" fill="#fff"/><polygon points="49.67 0.54 49.67 357.35 221.73 357.35 285.85 357.35 526.72 358.32 526.72 253.82 512.65 242.75 512.65 193.44 512.42 67.44 286.92 67.44 286.92 0.54 49.67 0.54" fill="#fff"/><g clip-path="url(#clip-path)"><rect x="26.72" y="-441.75" width="1115.44" height="2194.74" fill="none" stroke="#003a50" stroke-miterlimit="10"/><polygon points="51.09 643.99 51.09 1730.03 1117.78 1730.03 1117.78 -417.79 51.09 -417.94 51.09 575.19 51.09 643.99" fill="none" stroke="#003a50" stroke-miterlimit="10"/></g><rect x="36.45" y="203.7" width="4.55" height="87.22" fill="#fff"/><rect x="36.45" y="203.7" width="4.55" height="87.22" fill="none" stroke="#003a50" stroke-miterlimit="10"/><line x1="38.72" y1="203.7" x2="38.72" y2="290.93" fill="none" stroke="#003a50" stroke-miterlimit="10"/><rect x="36.45" y="203.7" width="4.55" height="4.4" fill="#fff"/><rect x="36.45" y="203.7" width="4.55" height="4.4" fill="none" stroke="#003a50" stroke-miterlimit="10"/><rect x="36.45" y="286.52" width="4.55" height="4.4" fill="#fff"/><rect x="36.45" y="286.53" width="4.55" height="4.4" fill="none" stroke="#003a50" stroke-miterlimit="10"/><rect x="36.45" y="245.11" width="4.55" height="4.4" fill="#fff"/><rect x="36.45" y="245.11" width="4.55" height="4.4" fill="none" stroke="#003a50" stroke-miterlimit="10"/><rect x="36.45" y="20.97" width="4.55" height="87.24" fill="#fff"/><rect x="36.45" y="20.97" width="4.55" height="87.24" fill="none" stroke="#003a50" stroke-miterlimit="10"/><line x1="38.72" y1="20.96" x2="38.72" y2="108.21" fill="none" stroke="#003a50" stroke-miterlimit="10"/><rect x="36.45" y="20.97" width="4.55" height="4.41" fill="#fff"/><rect x="36.45" y="20.97" width="4.55" height="4.41" fill="none" stroke="#003a50" stroke-miterlimit="10"/><rect x="36.45" y="103.8" width="4.55" height="4.4" fill="#fff"/><rect x="36.45" y="103.81" width="4.55" height="4.4" fill="none" stroke="#003a50" stroke-miterlimit="10"/><rect x="36.45" y="62.39" width="4.55" height="4.4" fill="#fff"/><rect x="36.45" y="62.39" width="4.55" height="4.4" fill="none" stroke="#003a50" stroke-miterlimit="10"/><g clip-path="url(#clip-path)"><rect x="313.63" y="37.25" width="72.48" height="29.76" fill="none" stroke="#003a50" stroke-miterlimit="10"/></g><rect x="359.59" y="251.65" width="34.02" height="101.8" fill="none" stroke="#003a50" stroke-miterlimit="10"/><g clip-path="url(#clip-path)"><rect x="51.91" y="-33.76" width="230.49" height="34.02" fill="none" stroke="#003a50" stroke-miterlimit="10"/><rect x="386.15" y="-29.07" width="43.33" height="96.06" fill="none" stroke="#003a50" stroke-miterlimit="10"/><path d="M391.52,46.84V-8.92a15.93,15.93,0,0,1,15.93-15.93h.73A15.94,15.94,0,0,1,424.12-8.92V46.84a15.94,15.94,0,0,1-15.94,15.93h-.73A15.93,15.93,0,0,1,391.52,46.84Z" fill="none" stroke="#003a50" stroke-miterlimit="10"/><path d="M407.82,45.25a2.27,2.27,0,1,1-2.27,2.27A2.27,2.27,0,0,1,407.82,45.25Z" fill="none" stroke="#003a50" stroke-miterlimit="10"/></g><rect x="378.62" y="79.46" width="41.13" height="100.44" fill="none" stroke="#003a50" stroke-miterlimit="10"/><g clip-path="url(#clip-path)"><path d="M414.65,99.58v60.2a15.47,15.47,0,1,1-30.94,0V99.58a15.47,15.47,0,1,1,30.94,0Z" fill="none" stroke="#003a50" stroke-miterlimit="10"/><path d="M399.18,102.05a2.23,2.23,0,1,1,2.2-2.23A2.22,2.22,0,0,1,399.18,102.05Z" fill="none" stroke="#003a50" stroke-miterlimit="10"/><path d="M342.55,10.37H313.7V-12.42h28.85A11.4,11.4,0,0,1,354-1,11.4,11.4,0,0,1,342.55,10.37Z" fill="none" stroke="#003a50" stroke-miterlimit="10"/><path d="M458.25,130.17H487.1V153H458.25a11.4,11.4,0,1,1,0-22.8Z" fill="none" stroke="#003a50" stroke-miterlimit="10"/></g><line x1="475.88" y1="152.97" x2="475.88" y2="130.17" fill="none" stroke="#003a50" stroke-miterlimit="10"/><g clip-path="url(#clip-path)"><rect x="353.39" y="39.64" width="28.96" height="29.71" rx="3.36" fill="none" stroke="#003a50" stroke-miterlimit="10"/><circle cx="367.87" cy="54.49" r="2.27" transform="translate(255.16 408.89) rotate(-80.78)" fill="none" stroke="#003a50" stroke-miterlimit="10"/></g><rect x="419.86" y="79.81" width="37.82" height="26.34" fill="none" stroke="#003a50" stroke-miterlimit="10"/><g clip-path="url(#clip-path)"><rect x="425.46" y="77.71" width="25.64" height="26.31" rx="2.97" fill="none" stroke="#003a50" stroke-miterlimit="10"/><path d="M438.28,92.87a2,2,0,1,1,2-2A2,2,0,0,1,438.28,92.87Z" fill="none" stroke="#003a50" stroke-miterlimit="10"/><rect x="313.94" y="37.25" width="34.02" height="28.84" fill="none" stroke="#003a50" stroke-miterlimit="10"/><path d="M336.25,43.36h-2.11a3.07,3.07,0,0,1-5.72,0h-2.78l-5.29,3,2.53,4,2.38-1.27V60h11.37V49.11L339,50.38l2.52-4Z" fill="none" stroke="#003a50" stroke-miterlimit="10"/></g><rect x="457.68" y="79.99" width="30.12" height="25.9" fill="none" stroke="#003a50" stroke-miterlimit="10"/><g clip-path="url(#clip-path)"><path d="M477.44,86h-1.87a2.73,2.73,0,0,1-5.07,0H468l-4.68,2.68,2.24,3.53,2.11-1.12v9.62h10.06V91.08l2.11,1.12,2.24-3.53Z" fill="none" stroke="#003a50" stroke-miterlimit="10"/><rect x="107.59" y="-33.75" width="34.02" height="34.02" fill="none" stroke="#003a50" stroke-miterlimit="10"/><rect x="217.2" y="-33.75" width="34.02" height="34.02" fill="none" stroke="#003a50" stroke-miterlimit="10"/><rect x="51.93" y="-33.75" width="34.02" height="34.02" fill="none" stroke="#003a50" stroke-miterlimit="10"/></g><rect x="338.77" y="152.89" width="33.05" height="33.05" fill="none" stroke="#003a50" stroke-miterlimit="10"/><line x1="355.3" y1="179.11" x2="355.3" y2="159.72" fill="none" stroke="#003a50" stroke-miterlimit="10"/><line x1="365" y1="169.41" x2="345.6" y2="169.41" fill="none" stroke="#003a50" stroke-miterlimit="10"/><line x1="362.16" y1="176.27" x2="348.44" y2="162.56" fill="none" stroke="#003a50" stroke-miterlimit="10"/><line x1="362.16" y1="162.56" x2="348.44" y2="176.27" fill="none" stroke="#003a50" stroke-miterlimit="10"/><g clip-path="url(#clip-path)"><rect x="363.05" y="303.05" width="21.66" height="30.06" rx="3.36" fill="none" stroke="#003a50" stroke-miterlimit="10"/><circle cx="377.67" cy="318.08" r="2.46" transform="matrix(0.53, -0.85, 0.85, 0.53, -91.46, 472.12)" fill="none" stroke="#003a50" stroke-miterlimit="10"/></g><line x1="376.91" y1="318.08" x2="390.53" y2="318.08" fill="none" stroke="#003a50" stroke-miterlimit="10"/><line x1="390.53" y1="324.89" x2="390.53" y2="311.27" fill="none" stroke="#003a50" stroke-miterlimit="10"/><rect x="338.08" y="80.15" width="34.02" height="68.03" fill="none" stroke="#003a50" stroke-miterlimit="10"/><g clip-path="url(#clip-path)"><path d="M342.9,131.07a1,1,0,0,1-.44-1.91,28.77,28.77,0,0,1,25.26,0,1,1,0,0,1,.45,1.34,1,1,0,0,1-1.34.46,26.81,26.81,0,0,0-23.49,0A1,1,0,0,1,342.9,131.07Z" fill="none" stroke="#003a50" stroke-miterlimit="10"/><path d="M342.9,125.5a1,1,0,0,1-.44-1.9,28.77,28.77,0,0,1,25.26,0,1,1,0,0,1-.89,1.8,26.72,26.72,0,0,0-23.49,0A1,1,0,0,1,342.9,125.5Z" fill="none" stroke="#003a50" stroke-miterlimit="10"/><path d="M342.9,119.93a1,1,0,0,1-.9-.56,1,1,0,0,1,.46-1.34,28.77,28.77,0,0,1,25.26,0,1,1,0,0,1-.89,1.8,26.72,26.72,0,0,0-23.49,0A1,1,0,0,1,342.9,119.93Z" fill="none" stroke="#003a50" stroke-miterlimit="10"/><path d="M342.9,114.37a1,1,0,0,1-.44-1.9,28.77,28.77,0,0,1,25.26,0,1,1,0,0,1-.89,1.8,26.72,26.72,0,0,0-23.49,0A1,1,0,0,1,342.9,114.37Z" fill="none" stroke="#003a50" stroke-miterlimit="10"/><path d="M342.9,108.8a1,1,0,0,1-.9-.56,1,1,0,0,1,.46-1.34,28.77,28.77,0,0,1,25.26,0,1,1,0,0,1-.89,1.8,26.72,26.72,0,0,0-23.49,0A1,1,0,0,1,342.9,108.8Z" fill="none" stroke="#003a50" stroke-miterlimit="10"/><path d="M342.9,103.24a1,1,0,0,1-.44-1.91,28.77,28.77,0,0,1,25.26,0,1,1,0,0,1,.45,1.34,1,1,0,0,1-1.34.46,26.81,26.81,0,0,0-23.49,0A.87.87,0,0,1,342.9,103.24Z" fill="none" stroke="#003a50" stroke-miterlimit="10"/><path d="M342.9,136.63a1,1,0,0,1-.44-1.9,28.77,28.77,0,0,1,25.26,0,1,1,0,0,1-.89,1.8,26.72,26.72,0,0,0-23.49,0A1,1,0,0,1,342.9,136.63Z" fill="none" stroke="#003a50" stroke-miterlimit="10"/><path d="M342.9,142.2a1,1,0,0,1-.44-1.91,28.77,28.77,0,0,1,25.26,0,1,1,0,0,1,.45,1.34,1,1,0,0,1-1.34.46,26.81,26.81,0,0,0-23.49,0A1,1,0,0,1,342.9,142.2Z" fill="none" stroke="#003a50" stroke-miterlimit="10"/></g><line x1="355.09" y1="148.18" x2="355.09" y2="80.54" fill="none" stroke="#003a50" stroke-miterlimit="10"/><g clip-path="url(#clip-path)"><path d="M290.72,82.29a1,1,0,0,1,1.91-.44,28.77,28.77,0,0,1,0,25.26,1,1,0,0,1-1.34.46,1,1,0,0,1-.46-1.34,26.83,26.83,0,0,0,0-23.5A1,1,0,0,1,290.72,82.29Z" fill="none" stroke="#003a50" stroke-miterlimit="10"/><path d="M296.29,82.29a1,1,0,0,1,.56-.9,1,1,0,0,1,1.34.46,28.77,28.77,0,0,1,0,25.26,1,1,0,1,1-1.8-.88,26.74,26.74,0,0,0,0-23.5A1,1,0,0,1,296.29,82.29Z" fill="none" stroke="#003a50" stroke-miterlimit="10"/><path d="M301.85,82.29a1,1,0,0,1,1.91-.44,28.77,28.77,0,0,1,0,25.26,1,1,0,0,1-1.34.46,1,1,0,0,1-.46-1.34,26.83,26.83,0,0,0,0-23.5A1,1,0,0,1,301.85,82.29Z" fill="none" stroke="#003a50" stroke-miterlimit="10"/><path d="M307.42,82.29a1,1,0,0,1,.56-.9,1,1,0,0,1,1.34.46,28.77,28.77,0,0,1,0,25.26,1,1,0,1,1-1.8-.88,26.74,26.74,0,0,0,0-23.5A1,1,0,0,1,307.42,82.29Z" fill="none" stroke="#003a50" stroke-miterlimit="10"/><path d="M313,82.29a1,1,0,0,1,1.9-.44,28.77,28.77,0,0,1,0,25.26,1,1,0,1,1-1.8-.88,26.74,26.74,0,0,0,0-23.5A1,1,0,0,1,313,82.29Z" fill="none" stroke="#003a50" stroke-miterlimit="10"/><path d="M318.55,82.29a1,1,0,0,1,.56-.9,1,1,0,0,1,1.34.46,28.77,28.77,0,0,1,0,25.26,1,1,0,1,1-1.8-.88,26.74,26.74,0,0,0,0-23.5A1,1,0,0,1,318.55,82.29Z" fill="none" stroke="#003a50" stroke-miterlimit="10"/><path d="M285.16,82.29a1,1,0,0,1,.56-.9,1,1,0,0,1,1.34.46,28.77,28.77,0,0,1,0,25.26,1,1,0,1,1-1.8-.88,26.74,26.74,0,0,0,0-23.5A1,1,0,0,1,285.16,82.29Z" fill="none" stroke="#003a50" stroke-miterlimit="10"/><path d="M279.59,82.29a1,1,0,0,1,1.91-.44,28.77,28.77,0,0,1,0,25.26,1,1,0,0,1-1.34.46,1,1,0,0,1-.46-1.34,26.83,26.83,0,0,0,0-23.5A.87.87,0,0,1,279.59,82.29Z" fill="none" stroke="#003a50" stroke-miterlimit="10"/></g><line x1="272.87" y1="94.48" x2="338.08" y2="94.48" fill="none" stroke="#003a50" stroke-miterlimit="10"/><rect x="272.87" y="79.46" width="65.21" height="29.22" fill="none" stroke="#003a50" stroke-miterlimit="10"/><g clip-path="url(#clip-path)"><rect x="436.43" y="35.03" width="56.47" height="30.8" fill="none" stroke="#003a50" stroke-miterlimit="10"/><path d="M451.93,39.4a.9.9,0,0,1,1.72-.4,26.09,26.09,0,0,1,0,22.87.91.91,0,0,1-1.63-.8,24.22,24.22,0,0,0,0-21.27A.83.83,0,0,1,451.93,39.4Z" fill="none" stroke="#003a50" stroke-miterlimit="10"/><path d="M457,39.4a.9.9,0,0,1,1.72-.4,26.09,26.09,0,0,1,0,22.87.91.91,0,0,1-1.63-.8,24.22,24.22,0,0,0,0-21.27A.83.83,0,0,1,457,39.4Z" fill="none" stroke="#003a50" stroke-miterlimit="10"/><path d="M462,39.4a.91.91,0,0,1,1.73-.4,26.09,26.09,0,0,1,0,22.87.91.91,0,0,1-1.63-.8,24.22,24.22,0,0,0,0-21.27A.85.85,0,0,1,462,39.4Z" fill="none" stroke="#003a50" stroke-miterlimit="10"/><path d="M467,39.4a.91.91,0,0,1,1.73-.4,26.09,26.09,0,0,1,0,22.87.91.91,0,0,1-1.63-.8,24.22,24.22,0,0,0,0-21.27A.85.85,0,0,1,467,39.4Z" fill="none" stroke="#003a50" stroke-miterlimit="10"/><path d="M472.08,39.4a.91.91,0,0,1,1.73-.4,26.09,26.09,0,0,1,0,22.87.91.91,0,0,1-1.22.41.89.89,0,0,1-.41-1.21,24.31,24.31,0,0,0,0-21.27A.85.85,0,0,1,472.08,39.4Z" fill="none" stroke="#003a50" stroke-miterlimit="10"/><path d="M477.12,39.4a.91.91,0,0,1,1.73-.4,26.09,26.09,0,0,1,0,22.87.91.91,0,0,1-1.22.41.89.89,0,0,1-.41-1.21,24.31,24.31,0,0,0,0-21.27A.85.85,0,0,1,477.12,39.4Z" fill="none" stroke="#003a50" stroke-miterlimit="10"/><path d="M446.89,39.4a.92.92,0,0,1,.51-.82.9.9,0,0,1,1.21.42,26,26,0,0,1,0,22.87.91.91,0,0,1-1.63-.8,24.22,24.22,0,0,0,0-21.27A1,1,0,0,1,446.89,39.4Z" fill="none" stroke="#003a50" stroke-miterlimit="10"/><path d="M441.85,39.4a.92.92,0,0,1,.51-.82.9.9,0,0,1,1.21.42,26,26,0,0,1,0,22.87.91.91,0,0,1-1.63-.8,24.22,24.22,0,0,0,0-21.27A1,1,0,0,1,441.85,39.4Z" fill="none" stroke="#003a50" stroke-miterlimit="10"/></g><rect x="399.55" y="256.81" width="34.02" height="70.33" fill="none" stroke="#003a50" stroke-miterlimit="10"/><rect x="435.97" y="327.62" width="39.54" height="25.83" fill="none" stroke="#003a50" stroke-miterlimit="10"/><rect x="291.79" y="152.62" width="33.59" height="33.59" fill="none" stroke="#003a50" stroke-miterlimit="10"/><g clip-path="url(#clip-path)"><circle cx="316.26" cy="176.93" r="4.58" fill="none" stroke="#003a50" stroke-miterlimit="10"/><circle cx="300.97" cy="176.93" r="4.58" fill="none" stroke="#003a50" stroke-miterlimit="10"/><circle cx="316.26" cy="162.02" r="4.58" fill="none" stroke="#003a50" stroke-miterlimit="10"/><circle cx="300.97" cy="162.02" r="4.58" fill="none" stroke="#003a50" stroke-miterlimit="10"/></g><rect x="83.55" y="163.22" width="102.05" height="17.01" fill="none" stroke="#003a50" stroke-miterlimit="10"/><polygon points="91.57 171.18 134.46 174.71 177.57 171.18 177.57 168.72 91.57 168.72 91.57 171.18" fill="none" stroke="#003a50" stroke-miterlimit="10"/><rect x="51.7" y="186.6" width="102.05" height="17.01" fill="none" stroke="#003a50" stroke-miterlimit="10"/><polygon points="145.72 195.65 102.83 192.12 59.72 195.65 59.72 198.1 145.72 198.1 145.72 195.65" fill="none" stroke="#003a50" stroke-miterlimit="10"/><rect x="271.77" y="152.62" width="100.94" height="33.59" fill="none" stroke="#003a50" stroke-miterlimit="10"/><g clip-path="url(#clip-path)"><path d="M300.63,293.71a1.26,1.26,0,0,1-.94-1.51A13.78,13.78,0,1,0,272.82,286a1.26,1.26,0,0,1-2.46-.57,16.3,16.3,0,0,1,31.78,7.29A1.27,1.27,0,0,1,300.63,293.71Z" fill="none" stroke="#003a50" stroke-miterlimit="10"/><path d="M245.46,284a1.25,1.25,0,0,1-1.75.33,13.79,13.79,0,0,0-15.52,22.79,1.26,1.26,0,0,1-1.42,2.08,16.3,16.3,0,0,1,18.36-26.95A1.25,1.25,0,0,1,245.46,284Z" fill="none" stroke="#003a50" stroke-miterlimit="10"/><path d="M243,331.39a1.26,1.26,0,0,1,1.33,1.18A13.78,13.78,0,1,0,271.81,331a1.26,1.26,0,1,1,2.51-.16,16.3,16.3,0,0,1-32.54,1.94A1.25,1.25,0,0,1,243,331.39Z" fill="none" stroke="#003a50" stroke-miterlimit="10"/><path d="M286.43,277.09a12.69,12.69,0,0,1,12,15.48l-2,8.88a3.53,3.53,0,0,1-4.24,2.68l-13.44-3.08a23.73,23.73,0,0,0-6-9.44l1-4.2C275,281.45,280.31,276.89,286.43,277.09Z" fill="none" stroke="#003a50" stroke-miterlimit="10"/><path d="M243.63,285.61l2.32,1.6a23.81,23.81,0,0,0-13.64,21.32l-2.52-1.72c-5-3.44-7.4-10-5-15.64A12.7,12.7,0,0,1,243.63,285.61Z" fill="none" stroke="#003a50" stroke-miterlimit="10"/><path d="M270.47,327.89l.12,2c.36,6.12-3.4,12-9.32,13.48a12.66,12.66,0,0,1-15.88-11.48l-.12-1.84a23.93,23.93,0,0,0,16.64,1.92A23.5,23.5,0,0,0,270.47,327.89Z" fill="none" stroke="#003a50" stroke-miterlimit="10"/><path d="M272.71,291.61a23.73,23.73,0,0,1,6,9.44,16.51,16.51,0,0,1,.6,2,23.85,23.85,0,0,1-8.84,24.84,23.5,23.5,0,0,1-8.56,4A23.87,23.87,0,0,1,233,314.53a22.12,22.12,0,0,1-.68-6A23.81,23.81,0,0,1,246,287.21a22.85,22.85,0,0,1,4.48-1.6A23.8,23.8,0,0,1,272.71,291.61Z" fill="none" stroke="#003a50" stroke-miterlimit="10"/><path d="M108.83,305.52v41H63.06V303.31h43.56A2.21,2.21,0,0,1,108.83,305.52Z" fill="none" stroke="#003a50" stroke-miterlimit="10"/><path d="M154.7,305.3v41.26H108.92V305.3a2,2,0,0,1,2-2h41.8A2,2,0,0,1,154.7,305.3Z" fill="none" stroke="#003a50" stroke-miterlimit="10"/><path d="M63.06,303.31a3.11,3.11,0,0,0-3.33-2.83H55.51a3.11,3.11,0,0,0-3.33,2.83v48.2H165.57V303.74a3.12,3.12,0,0,0-3.33-2.84H158a3.12,3.12,0,0,0-3.32,2.84v42.82H63.06Z" fill="none" stroke="#003a50" stroke-miterlimit="10"/></g><rect x="63.06" y="337.31" width="91.64" height="9.25" fill="none" stroke="#003a50" stroke-miterlimit="10"/><rect x="54.58" y="17.22" width="22.68" height="22.68" fill="none" stroke="#003a50" stroke-miterlimit="10"/><g clip-path="url(#clip-path)"><path d="M72.42,35.06a9.2,9.2,0,1,1,0-13A9.19,9.19,0,0,1,72.42,35.06Z" fill="none" stroke="#003a50" stroke-miterlimit="10"/><path d="M73,34.37c-1.69-.17-3.41.48-5.06-1.18-2.44-2.43.14-5-2.3-7.45s-5,.14-7.46-2.3" fill="none" stroke="#003a50" stroke-miterlimit="10"/></g><rect x="191.88" y="17.22" width="22.68" height="22.68" fill="none" stroke="#003a50" stroke-miterlimit="10"/><g clip-path="url(#clip-path)"><path d="M209.72,35.06a9.2,9.2,0,1,1,0-13A9.19,9.19,0,0,1,209.72,35.06Z" fill="none" stroke="#003a50" stroke-miterlimit="10"/><path d="M210.34,34.37c-1.69-.17-3.41.48-5.06-1.18-2.44-2.43.14-5-2.3-7.45s-5,.14-7.46-2.3" fill="none" stroke="#003a50" stroke-miterlimit="10"/></g><rect x="83.58" y="17.22" width="102.05" height="113.39" fill="none" stroke="#003a50" stroke-miterlimit="10"/><g clip-path="url(#clip-path)"><path d="M175.63,120.87h-82a2.09,2.09,0,0,1-2.09-2.09V51.14h86.22v67.64A2.09,2.09,0,0,1,175.63,120.87Z" fill="none" stroke="#003a50" stroke-miterlimit="10"/><rect x="91.25" y="24.65" width="42.5" height="22.88" rx="1.98" fill="none" stroke="#003a50" stroke-miterlimit="10"/><rect x="135.47" y="24.65" width="42.5" height="22.88" rx="1.98" fill="none" stroke="#003a50" stroke-miterlimit="10"/></g><line x1="177.97" y1="64.99" x2="91.24" y2="64.99" fill="none" stroke="#003a50" stroke-miterlimit="10"/><g clip-path="url(#clip-path)"><path d="M404.38,310a1,1,0,0,1-.45-1.91,28.77,28.77,0,0,1,25.26,0,1,1,0,0,1,.46,1.34,1,1,0,0,1-1.34.46,26.81,26.81,0,0,0-23.49,0A1,1,0,0,1,404.38,310Z" fill="none" stroke="#003a50" stroke-miterlimit="10"/><path d="M404.38,304.46a1,1,0,0,1-.45-1.9,28.77,28.77,0,0,1,25.26,0,1,1,0,1,1-.88,1.8,26.72,26.72,0,0,0-23.49,0A1,1,0,0,1,404.38,304.46Z" fill="none" stroke="#003a50" stroke-miterlimit="10"/><path d="M404.38,298.9a1,1,0,0,1-.45-1.91,28.77,28.77,0,0,1,25.26,0,1,1,0,0,1,.46,1.34,1,1,0,0,1-1.34.46,26.81,26.81,0,0,0-23.49,0A1,1,0,0,1,404.38,298.9Z" fill="none" stroke="#003a50" stroke-miterlimit="10"/><path d="M404.38,293.33a1,1,0,0,1-.45-1.9,28.77,28.77,0,0,1,25.26,0,1,1,0,1,1-.88,1.8,26.72,26.72,0,0,0-23.49,0A1,1,0,0,1,404.38,293.33Z" fill="none" stroke="#003a50" stroke-miterlimit="10"/><path d="M404.38,287.77a1,1,0,0,1-.45-1.91,28.77,28.77,0,0,1,25.26,0,1,1,0,0,1,.46,1.34,1,1,0,0,1-1.34.46,26.81,26.81,0,0,0-23.49,0A1,1,0,0,1,404.38,287.77Z" fill="none" stroke="#003a50" stroke-miterlimit="10"/><path d="M404.38,282.2a1,1,0,0,1-.45-1.9,28.77,28.77,0,0,1,25.26,0,1,1,0,1,1-.88,1.8,26.72,26.72,0,0,0-23.49,0A1,1,0,0,1,404.38,282.2Z" fill="none" stroke="#003a50" stroke-miterlimit="10"/><path d="M404.38,315.59a1,1,0,0,1-.45-1.9,28.77,28.77,0,0,1,25.26,0,1,1,0,1,1-.88,1.8,26.72,26.72,0,0,0-23.49,0A1,1,0,0,1,404.38,315.59Z" fill="none" stroke="#003a50" stroke-miterlimit="10"/><path d="M404.38,321.16a1,1,0,0,1-.45-1.91,28.77,28.77,0,0,1,25.26,0,1,1,0,0,1,.46,1.34,1,1,0,0,1-1.34.46,26.81,26.81,0,0,0-23.49,0A.87.87,0,0,1,404.38,321.16Z" fill="none" stroke="#003a50" stroke-miterlimit="10"/></g><line x1="416.56" y1="327.14" x2="416.56" y2="256.81" fill="none" stroke="#003a50" stroke-miterlimit="10"/><g clip-path="url(#clip-path)"><path d="M232.55,43.23a14.77,14.77,0,0,0-15.92,23.38,1.14,1.14,0,1,0,1.77-1.43,12.47,12.47,0,0,1,14.15-19.5Z" fill="none" stroke="#003a50" stroke-miterlimit="10"/><rect x="232.55" y="13.45" width="34.02" height="84.03" rx="3.31" fill="none" stroke="#003a50" stroke-miterlimit="10"/><path d="M262.86,16a1.4,1.4,0,0,0-1.4,1.4V93.54a1.4,1.4,0,0,0,2.79,0V17.4a1.4,1.4,0,0,0-1.39-1.4" fill="none" stroke="#003a50" stroke-miterlimit="10"/><path d="M248.28,83.81a5.51,5.51,0,1,1,0,7.79A5.51,5.51,0,0,1,248.28,83.81Z" fill="none" stroke="#003a50" stroke-miterlimit="10"/><path d="M247.91,84.22c1,.1,2-.28,3,.7,1.46,1.46-.08,3,1.38,4.47s3-.08,4.47,1.38" fill="none" stroke="#003a50" stroke-miterlimit="10"/><path d="M232.55,47.94a10.63,10.63,0,1,0,0,19.59Z" fill="none" stroke="#003a50" stroke-miterlimit="10"/></g><rect x="359.58" y="251.37" width="34.02" height="34.02" fill="none" stroke="#003a50" stroke-miterlimit="10"/><line x1="375.86" y1="270.4" x2="375.86" y2="280.96" fill="none" stroke="#003a50" stroke-miterlimit="10"/><g clip-path="url(#clip-path)"><path d="M376.77,270.4H375a3.4,3.4,0,0,1-3.4-3.4V255.8h8.61V267A3.4,3.4,0,0,1,376.77,270.4Z" fill="none" stroke="#003a50" stroke-miterlimit="10"/></g><line x1="372.38" y1="280.96" x2="379.33" y2="280.96" fill="none" stroke="#003a50" stroke-miterlimit="10"/><g clip-path="url(#clip-path)"><path d="M425.41,181.39v3.07a38.71,38.71,0,0,0,38.71,38.72V181.39" fill="none" stroke="#003a50" stroke-miterlimit="10" stroke-width="1.6"/><path d="M216.8,183.52v-3.58a45.06,45.06,0,0,1,45.06-45.06v48.64" fill="none" stroke="#003a50" stroke-miterlimit="10" stroke-width="1.6"/><path d="M524,243.8H528a51.13,51.13,0,0,0,51.13-51.12H524" fill="none" stroke="#003a50" stroke-miterlimit="10" stroke-width="1.6"/><line x1="492.96" y1="246.64" x2="438.47" y2="246.64" fill="none" stroke="#003a50" stroke-miterlimit="10" stroke-width="1.6"/><polygon points="51.65 203.75 51.65 108.01 2.31 108.01 13.98 203.75 51.65 203.75" fill="#003a50" fill-rule="evenodd"/><rect x="12.65" y="-73.49" width="39" height="94.57" fill="#003a50"/><rect x="15.55" y="291.12" width="36.1" height="97.19" fill="#003a50"/><rect x="3.31" y="291.12" width="44.33" height="25.9" fill="#003a50"/><rect x="37.48" y="351.75" width="491.33" height="13.79" fill="#003a50"/><rect x="37.48" y="-0.25" width="249.5" height="13.79" fill="#003a50"/><rect x="277.15" y="66.09" width="249.5" height="13.79" fill="#003a50"/><rect x="512.65" y="65.89" width="16.81" height="127.55" fill="#003a50"/><rect x="512.65" y="242.75" width="16.81" height="17.72" fill="#003a50"/><rect x="475.69" y="250.75" width="53.77" height="11.84" fill="#003a50"/><rect x="475.69" y="256.67" width="10.5" height="98.45" fill="#003a50"/><rect x="493.15" y="-33.27" width="11.67" height="106.25" fill="#003a50"/><rect x="271.3" y="-0.25" width="15.68" height="80.12" fill="#003a50"/><rect x="307.05" y="-28.78" width="6.38" height="99.52" fill="#003a50"/><rect x="429.8" y="-28.78" width="6.38" height="99.52" fill="#003a50"/><rect x="282.05" y="-28.78" width="6.38" height="99.52" fill="#003a50"/><rect x="523.08" y="255.91" width="6.38" height="132.4" fill="#003a50"/><rect x="393.1" y="251.61" width="6.38" height="106.7" fill="#003a50"/><rect x="523.08" y="-37.26" width="6.38" height="107.23" fill="#003a50"/><rect x="371.83" y="179.9" width="54.42" height="6.38" fill="#003a50"/><rect x="372.13" y="75.7" width="6.38" height="108.39" fill="#003a50"/><rect x="463.29" y="179.9" width="63.43" height="6.38" fill="#003a50"/><rect x="393.11" y="250.64" width="41.3" height="6.38" fill="#003a50"/><rect x="395.44" y="327.33" width="40.36" height="6.38" fill="#003a50"/><rect x="429.42" y="327.33" width="6.38" height="25.8" fill="#003a50"/><rect x="471.46" y="250.64" width="55.26" height="6.38" fill="#003a50"/><rect x="489.51" y="156.85" width="29.83" height="6.38" fill="#003a50"/><rect x="487.39" y="76.95" width="6.38" height="104.88" fill="#003a50"/><rect x="41.88" y="179.9" width="175.76" height="6.38" fill="#003a50"/><rect x="261.11" y="179.9" width="11.77" height="6.81" fill="#003a50"/><rect x="270.71" y="146.32" width="105.58" height="7.69" fill="#003a50"/><line x1="393.6" y1="264.88" x2="393.6" y2="262.04" fill="none" stroke="#003a50" stroke-miterlimit="10"/><line x1="393.6" y1="256.28" x2="393.6" y2="189.95" fill="none" stroke="#003a50" stroke-miterlimit="10" stroke-dasharray="5.77 5.77"/><line x1="393.6" y1="187.07" x2="393.6" y2="184.24" fill="none" stroke="#003a50" stroke-miterlimit="10"/><rect x="266.5" y="6.65" width="6.38" height="102.03" fill="#003a50"/><rect x="266.5" y="146.32" width="6.38" height="39.96" fill="#003a50"/></g><g clip-path="url(#clip-path)"><path d="M465,10.11l-2.48,2V9.82l2.73-2.26h1.86V19.47H465Z" fill="#003a50"/><path d="M469.66,19.33a1,1,0,0,1-.33-.8,1,1,0,0,1,.33-.81,1.4,1.4,0,0,1,1.73,0,1,1,0,0,1,.33.81,1,1,0,0,1-.33.8,1.4,1.4,0,0,1-1.73,0Z" fill="#003a50"/><path d="M482.24,18.7a7.73,7.73,0,0,1-7.37,0,2.94,2.94,0,0,1-1.37-2.55,2.71,2.71,0,0,1,.26-1.17,2.29,2.29,0,0,1,.66-.85,3.91,3.91,0,0,1,1.39-.78l.26-.06v-.09a3.57,3.57,0,0,1-.77-.29,2.91,2.91,0,0,1-.66-.44,2.35,2.35,0,0,1-.54-.76,2.38,2.38,0,0,1-.22-1,2.79,2.79,0,0,1,1.25-2.38,7,7,0,0,1,6.85,0,2.83,2.83,0,0,1,1.25,2.38,2.58,2.58,0,0,1-.22,1,2,2,0,0,1-.55.75,3.72,3.72,0,0,1-1.2.68l-.22,0v.09l.28.06a6.35,6.35,0,0,1,.62.27,3.81,3.81,0,0,1,.77.51,2.7,2.7,0,0,1,.62.82,2.65,2.65,0,0,1,.27,1.2A2.94,2.94,0,0,1,482.24,18.7Zm-5.79-1.35a3.84,3.84,0,0,0,2.1.48,3.94,3.94,0,0,0,2.1-.47,1.51,1.51,0,0,0,.74-1.35,1.49,1.49,0,0,0-.74-1.35,4.93,4.93,0,0,0-4.2,0,1.59,1.59,0,0,0,0,2.69Zm-.36-6.52a1.36,1.36,0,0,0,.64,1.19,4,4,0,0,0,3.65,0,1.38,1.38,0,0,0,.64-1.19,1.36,1.36,0,0,0-.66-1.2,3.94,3.94,0,0,0-3.62,0A1.35,1.35,0,0,0,476.09,10.83Z" fill="#003a50"/><path d="M361.45,9.4h-5.83V7.56h8.86V9.4L360,12.05v.07h1.28a3.86,3.86,0,0,1,2.79,1,3.52,3.52,0,0,1,1.05,2.66,3.33,3.33,0,0,1-1.33,2.83,7,7,0,0,1-7.24,0,3.39,3.39,0,0,1-1.33-2.86v-.32h2.11v.32c0,1.36.95,2,2.84,2s2.84-.67,2.84-2-.94-2-2.84-2h-3.26V12.15l4.58-2.68Z" fill="#003a50"/><path d="M367.18,19.33a1,1,0,0,1-.32-.8,1.07,1.07,0,0,1,.32-.81,1.25,1.25,0,0,1,.88-.3,1.22,1.22,0,0,1,.86.3,1.07,1.07,0,0,1,.32.81,1,1,0,0,1-.32.8,1.22,1.22,0,0,1-.86.3A1.25,1.25,0,0,1,367.18,19.33Z" fill="#003a50"/><path d="M379.77,18.7a7.73,7.73,0,0,1-7.37,0A2.94,2.94,0,0,1,371,16.14a2.71,2.71,0,0,1,.26-1.17,2.37,2.37,0,0,1,.65-.85,3.94,3.94,0,0,1,1.4-.78l.26-.06v-.09a3.38,3.38,0,0,1-.77-.29,2.91,2.91,0,0,1-.66-.44,2.35,2.35,0,0,1-.54-.76,2.39,2.39,0,0,1-.23-1,2.8,2.8,0,0,1,1.26-2.38,5.74,5.74,0,0,1,3.42-.9,5.81,5.81,0,0,1,3.43.9,2.82,2.82,0,0,1,1.24,2.38,2.43,2.43,0,0,1-.22,1,1.9,1.9,0,0,1-.55.75,3.59,3.59,0,0,1-1.19.68l-.23,0v.09a2.45,2.45,0,0,1,.28.06,6.14,6.14,0,0,1,.63.27,4.12,4.12,0,0,1,.77.51,2.77,2.77,0,0,1,.89,2A3,3,0,0,1,379.77,18.7ZM374,17.35a3.82,3.82,0,0,0,2.1.48,3.94,3.94,0,0,0,2.1-.47,1.53,1.53,0,0,0,.74-1.35,1.51,1.51,0,0,0-.74-1.35,4.93,4.93,0,0,0-4.2,0,1.59,1.59,0,0,0,0,2.69Zm-.37-6.52a1.37,1.37,0,0,0,.65,1.19,3.2,3.2,0,0,0,1.82.44A3.24,3.24,0,0,0,377.9,12a1.43,1.43,0,0,0,0-2.39,3.94,3.94,0,0,0-3.62,0A1.36,1.36,0,0,0,373.61,10.83Z" fill="#003a50"/><path d="M154.63,139.07l-2.49,2v-2.24l2.74-2.27h1.86v11.91h-2.11Z" fill="#003a50"/><path d="M161.25,139.07l-2.48,2v-2.24l2.73-2.27h1.86v11.91h-2.11Z" fill="#003a50"/><path d="M165.89,148.29a1.15,1.15,0,0,1,0-1.61,1.23,1.23,0,0,1,.87-.3,1.2,1.2,0,0,1,.86.3,1.15,1.15,0,0,1,0,1.61,1.2,1.2,0,0,1-.86.3A1.23,1.23,0,0,1,165.89,148.29Z" fill="#003a50"/><path d="M178.47,147.66a6.43,6.43,0,0,1-3.68.93,6.5,6.5,0,0,1-3.69-.94,3,3,0,0,1-1.37-2.56,2.66,2.66,0,0,1,.26-1.16,2.32,2.32,0,0,1,.66-.86,4,4,0,0,1,1.39-.77l.26-.07v-.09a2.91,2.91,0,0,1-.76-.29,2.51,2.51,0,0,1-.67-.44,2.2,2.2,0,0,1-.54-.75,2.45,2.45,0,0,1-.22-1,2.81,2.81,0,0,1,1.25-2.39,7,7,0,0,1,6.85,0,2.84,2.84,0,0,1,1.25,2.39,2.62,2.62,0,0,1-.22,1,2,2,0,0,1-.55.74,3.72,3.72,0,0,1-1.2.68l-.22,0v.09l.28.07a5.42,5.42,0,0,1,.62.27,3.79,3.79,0,0,1,.77.5,2.83,2.83,0,0,1,.62.82,2.71,2.71,0,0,1,.27,1.2A3,3,0,0,1,178.47,147.66Zm-5.79-1.36a4.88,4.88,0,0,0,4.2,0,1.59,1.59,0,0,0,0-2.69,4.93,4.93,0,0,0-4.2,0,1.58,1.58,0,0,0,0,2.68Zm-.36-6.52A1.35,1.35,0,0,0,173,141a4,4,0,0,0,3.65,0,1.42,1.42,0,0,0,0-2.39,4,4,0,0,0-3.62,0A1.35,1.35,0,0,0,172.32,139.78Z" fill="#003a50"/><path d="M436.71,162.23h-5.83v-1.84h8.87v1.84l-4.53,2.65V165h1.28a3.9,3.9,0,0,1,2.79,1,3.52,3.52,0,0,1,1,2.67,3.32,3.32,0,0,1-1.33,2.82,7,7,0,0,1-7.24,0,3.39,3.39,0,0,1-1.33-2.86v-.32h2.11v.32c0,1.37.95,2,2.84,2s2.84-.67,2.84-2-.94-2-2.84-2h-3.26V165l4.58-2.68Z" fill="#003a50"/><path d="M442.44,172.17a1,1,0,0,1-.32-.81,1.07,1.07,0,0,1,.32-.81,1.3,1.3,0,0,1,.88-.29,1.26,1.26,0,0,1,.86.29,1,1,0,0,1,.32.81,1,1,0,0,1-.32.81,1.21,1.21,0,0,1-.86.29A1.25,1.25,0,0,1,442.44,172.17Z" fill="#003a50"/><path d="M455,171.53a7.77,7.77,0,0,1-7.37,0,3,3,0,0,1-1.37-2.56,2.66,2.66,0,0,1,.26-1.16,2.41,2.41,0,0,1,.65-.86,4.14,4.14,0,0,1,1.4-.77l.26-.07V166a3.38,3.38,0,0,1-.77-.29,2.61,2.61,0,0,1-.66-.44,2.15,2.15,0,0,1-.54-.76,2.39,2.39,0,0,1-.23-1,2.8,2.8,0,0,1,1.26-2.38,5.74,5.74,0,0,1,3.42-.9,5.81,5.81,0,0,1,3.43.9A2.82,2.82,0,0,1,456,163.5a2.47,2.47,0,0,1-.22,1.05,1.87,1.87,0,0,1-.55.74,3.59,3.59,0,0,1-1.19.68l-.23.05v.09l.28.07a5.31,5.31,0,0,1,.63.26,4.67,4.67,0,0,1,.77.51,2.65,2.65,0,0,1,.61.82,2.58,2.58,0,0,1,.28,1.2A3,3,0,0,1,455,171.53Zm-5.79-1.35a3.84,3.84,0,0,0,2.1.48,3.94,3.94,0,0,0,2.1-.47,1.6,1.6,0,0,0,0-2.7,5,5,0,0,0-4.2,0,1.53,1.53,0,0,0-.74,1.35A1.5,1.5,0,0,0,449.24,170.18Zm-.37-6.52a1.36,1.36,0,0,0,.65,1.19,4,4,0,0,0,3.64,0,1.42,1.42,0,0,0,0-2.39,4,4,0,0,0-3.62,0A1.36,1.36,0,0,0,448.87,163.66Z" fill="#003a50"/><path d="M482.35,232.52h-9.93V231a2.74,2.74,0,0,1,.58-1.74,4,4,0,0,1,1.45-1.2c.49-.25,1.12-.54,1.86-.86s1.33-.56,1.88-.77a4.23,4.23,0,0,0,1.45-.92,1.78,1.78,0,0,0,.57-1.3c0-1.26-.89-1.88-2.67-1.88s-2.67.71-2.67,2.15v.41h-2.11v-.41a3.62,3.62,0,0,1,1.26-3,5.39,5.39,0,0,1,3.52-1,5.65,5.65,0,0,1,3.51,1,3.29,3.29,0,0,1,1.27,2.75,3.12,3.12,0,0,1-.56,1.83,4.18,4.18,0,0,1-1.4,1.31c-.6.34-1.21.65-1.84.93s-1.23.53-1.82.75a5.46,5.46,0,0,0-1.41.74,1.26,1.26,0,0,0-.56,1h7.62Z" fill="#003a50"/><path d="M484.45,232.39a1,1,0,0,1-.32-.8,1.07,1.07,0,0,1,.32-.81,1.25,1.25,0,0,1,.88-.3,1.23,1.23,0,0,1,.86.3,1.07,1.07,0,0,1,.32.81,1,1,0,0,1-.32.8,1.23,1.23,0,0,1-.86.3A1.25,1.25,0,0,1,484.45,232.39Z" fill="#003a50"/><path d="M498.07,224h-2.21s0-.06,0-.17a2.53,2.53,0,0,0-.22-.44,2.4,2.4,0,0,0-.39-.5,1.67,1.67,0,0,0-.71-.41,2.91,2.91,0,0,0-1-.16,2.54,2.54,0,0,0-2.16,1,4.51,4.51,0,0,0-.76,2.69h.06a1.63,1.63,0,0,1,.44-.43,3.55,3.55,0,0,1,.61-.37,3.67,3.67,0,0,1,.95-.3,5.41,5.41,0,0,1,1.21-.13,5,5,0,0,1,3.37,1.11,3.52,3.52,0,0,1,1.31,2.8,3.61,3.61,0,0,1-1.36,2.91,5.59,5.59,0,0,1-3.61,1.1,4.81,4.81,0,0,1-3.87-1.54,6.38,6.38,0,0,1-1.32-4.27v-.41a6.85,6.85,0,0,1,1.32-4.31,4.52,4.52,0,0,1,3.81-1.71,5.64,5.64,0,0,1,2.12.37,4,4,0,0,1,1.44.94A3.45,3.45,0,0,1,498.07,224Zm-2.5,3.15a3.67,3.67,0,0,0-4,0,1.86,1.86,0,0,0-.78,1.58,1.89,1.89,0,0,0,.77,1.57,3.63,3.63,0,0,0,4,0,2,2,0,0,0,0-3.15Z" fill="#003a50"/><path d="M452.45,312.53h-9.93V311a2.79,2.79,0,0,1,.58-1.75,4,4,0,0,1,1.45-1.19c.49-.26,1.12-.54,1.86-.86l1.88-.78a4.21,4.21,0,0,0,1.45-.91,1.8,1.8,0,0,0,.57-1.3q0-1.89-2.67-1.89T445,304.45v.41h-2.11v-.41a3.62,3.62,0,0,1,1.26-3,5.38,5.38,0,0,1,3.51-1,5.66,5.66,0,0,1,3.52,1,3.27,3.27,0,0,1,1.27,2.75,3.17,3.17,0,0,1-.56,1.83,4.16,4.16,0,0,1-1.4,1.3,18.74,18.74,0,0,1-1.84.94c-.62.27-1.23.52-1.82.74a5.18,5.18,0,0,0-1.41.75,1.23,1.23,0,0,0-.56,1h7.62Z" fill="#003a50"/><path d="M454.55,312.4a1.17,1.17,0,0,1,0-1.61,1.41,1.41,0,0,1,1.74,0,1.17,1.17,0,0,1,0,1.61,1.41,1.41,0,0,1-1.74,0Z" fill="#003a50"/><path d="M468.33,312.53H458.4V311a2.79,2.79,0,0,1,.58-1.75,4.08,4.08,0,0,1,1.44-1.19c.5-.26,1.13-.54,1.87-.86l1.88-.78a4.21,4.21,0,0,0,1.45-.91,1.8,1.8,0,0,0,.57-1.3q0-1.89-2.67-1.89t-2.67,2.16v.41h-2.11v-.41a3.62,3.62,0,0,1,1.26-3,5.38,5.38,0,0,1,3.51-1,5.66,5.66,0,0,1,3.52,1,3.3,3.3,0,0,1,1.27,2.75,3.17,3.17,0,0,1-.56,1.83,4.16,4.16,0,0,1-1.4,1.3,18.74,18.74,0,0,1-1.84.94c-.62.27-1.23.52-1.82.74a5.18,5.18,0,0,0-1.41.75,1.23,1.23,0,0,0-.56,1h7.62Z" fill="#003a50"/><path d="M228.46,232.52h-9.94V231a2.75,2.75,0,0,1,.59-1.74,4,4,0,0,1,1.44-1.2c.5-.25,1.12-.54,1.87-.86s1.32-.56,1.88-.77a4.09,4.09,0,0,0,1.44-.92,1.78,1.78,0,0,0,.57-1.3c0-1.26-.88-1.88-2.66-1.88S221,223,221,224.44v.41h-2.11v-.41a3.62,3.62,0,0,1,1.27-3,5.34,5.34,0,0,1,3.51-1,5.63,5.63,0,0,1,3.51,1,3.29,3.29,0,0,1,1.27,2.75,3.11,3.11,0,0,1-.55,1.83,4.31,4.31,0,0,1-1.41,1.31c-.59.34-1.21.65-1.83.93s-1.24.53-1.83.75a5.55,5.55,0,0,0-1.4.74,1.25,1.25,0,0,0-.57,1h7.63Z" fill="#003a50"/><path d="M232.05,231a7.34,7.34,0,0,1,0-8.84,5.71,5.71,0,0,1,8.13,0,7.34,7.34,0,0,1,0,8.84,5.71,5.71,0,0,1-8.13,0Zm6.53-1.39a5,5,0,0,0,.87-3,5,5,0,0,0-.87-3,3.15,3.15,0,0,0-4.92,0,5.67,5.67,0,0,0,0,6.07,3.14,3.14,0,0,0,4.92,0Z" fill="#003a50"/><path d="M243.85,232.39a1,1,0,0,1-.32-.8,1.07,1.07,0,0,1,.32-.81,1.25,1.25,0,0,1,.88-.3,1.22,1.22,0,0,1,.86.3,1,1,0,0,1,.32.81,1,1,0,0,1-.32.8,1.22,1.22,0,0,1-.86.3A1.25,1.25,0,0,1,243.85,232.39Z" fill="#003a50"/><path d="M249.76,223.17l-2.48,2v-2.25l2.73-2.26h1.86v11.9h-2.11Z" fill="#003a50"/><path d="M298,128.52H288V127a2.74,2.74,0,0,1,.58-1.74A4,4,0,0,1,290,124c.5-.26,1.13-.54,1.87-.86l1.88-.78a4.21,4.21,0,0,0,1.45-.91,1.8,1.8,0,0,0,.57-1.3q0-1.89-2.67-1.89t-2.67,2.16v.41h-2.11v-.41a3.62,3.62,0,0,1,1.26-3,5.38,5.38,0,0,1,3.51-1,5.66,5.66,0,0,1,3.52,1,3.3,3.3,0,0,1,1.27,2.75,3.17,3.17,0,0,1-.56,1.83,4.29,4.29,0,0,1-1.4,1.31c-.6.34-1.21.65-1.84.93s-1.23.52-1.82.74a5.18,5.18,0,0,0-1.41.75,1.23,1.23,0,0,0-.56,1H298Z" fill="#003a50"/><path d="M300.05,128.39a1.17,1.17,0,0,1,0-1.61,1.41,1.41,0,0,1,1.74,0,1.17,1.17,0,0,1,0,1.61,1.41,1.41,0,0,1-1.74,0Z" fill="#003a50"/><path d="M306,119.17l-2.49,2v-2.24l2.74-2.27h1.86v11.91H306Z" fill="#003a50"/></g></svg>