<svg id="Слой_1" data-name="Слой 1" xmlns="http://www.w3.org/2000/svg" xmlns:xlink="http://www.w3.org/1999/xlink" viewBox="0 0 586.77 547.09"><defs><clipPath id="clip-path"><polygon points="0.85 0 0.85 480.67 267.93 480.67 267.93 547.09 586.77 547.09 586.77 0 0.85 0" fill="none"/></clipPath></defs><polygon points="581.5 49.72 581.5 367.84 586.77 368.17 586.77 49.72 581.5 49.72" fill="#fff"/><polygon points="50.71 48.73 50.71 353.89 50.71 367.28 50.71 469 286.03 469 286.03 533.26 512.97 533.26 523.71 533.26 527.31 433.15 524.12 429.91 524.12 382.62 523.71 367.28 572.65 367.28 572.65 48.73 50.71 48.73" fill="#fff"/><polygon points="50.72 467.71 50.72 480.67 267.93 480.67 267.93 547.09 513.48 547.09 513.46 534.61 287.96 534.61 287.96 467.71 50.72 467.71" fill="#fff"/><g clip-path="url(#clip-path)"><rect x="27.76" y="25.42" width="1115.44" height="2194.74" fill="none" stroke="#003a50" stroke-miterlimit="10"/><polygon points="52.13 1111.16 52.13 2197.2 1118.82 2197.2 1118.82 49.38 52.13 49.23 52.13 1042.36 52.13 1111.16" fill="none" stroke="#003a50" stroke-miterlimit="10"/></g><rect x="419.18" y="35.4" width="85.55" height="4.55" fill="#fff"/><rect x="419.18" y="35.4" width="85.55" height="4.55" fill="none" stroke="#003a50" stroke-miterlimit="10"/><line x1="504.72" y1="37.68" x2="419.17" y2="37.68" fill="none" stroke="#003a50" stroke-miterlimit="10"/><rect x="500.4" y="35.4" width="4.32" height="4.55" fill="#fff"/><rect x="500.4" y="35.4" width="4.32" height="4.55" fill="none" stroke="#003a50" stroke-miterlimit="10"/><rect x="419.17" y="35.4" width="4.32" height="4.55" fill="#fff"/><rect x="419.17" y="35.4" width="4.32" height="4.55" fill="none" stroke="#003a50" stroke-miterlimit="10"/><rect x="459.79" y="35.4" width="4.32" height="4.55" fill="#fff"/><rect x="459.79" y="35.4" width="4.32" height="4.55" fill="none" stroke="#003a50" stroke-miterlimit="10"/><rect x="112.85" y="35.4" width="89.42" height="4.55" fill="#fff"/><rect x="112.85" y="35.4" width="89.42" height="4.55" fill="none" stroke="#003a50" stroke-miterlimit="10"/><line x1="202.27" y1="37.68" x2="112.85" y2="37.68" fill="none" stroke="#003a50" stroke-miterlimit="10"/><rect x="197.75" y="35.4" width="4.52" height="4.55" fill="#fff"/><rect x="197.75" y="35.4" width="4.52" height="4.55" fill="none" stroke="#003a50" stroke-miterlimit="10"/><rect x="112.85" y="35.4" width="4.52" height="4.55" fill="#fff"/><rect x="112.85" y="35.4" width="4.52" height="4.55" fill="none" stroke="#003a50" stroke-miterlimit="10"/><rect x="155.3" y="35.4" width="4.52" height="4.55" fill="#fff"/><rect x="155.3" y="35.4" width="4.52" height="4.55" fill="none" stroke="#003a50" stroke-miterlimit="10"/><rect x="297.65" y="35.4" width="86.94" height="4.55" fill="#fff"/><rect x="297.65" y="35.4" width="86.94" height="4.55" fill="none" stroke="#003a50" stroke-miterlimit="10"/><line x1="384.59" y1="37.68" x2="297.65" y2="37.68" fill="none" stroke="#003a50" stroke-miterlimit="10"/><rect x="380.2" y="35.4" width="4.39" height="4.55" fill="#fff"/><rect x="380.2" y="35.4" width="4.39" height="4.55" fill="none" stroke="#003a50" stroke-miterlimit="10"/><rect x="297.65" y="35.4" width="4.39" height="4.55" fill="#fff"/><rect x="297.65" y="35.4" width="4.39" height="4.55" fill="none" stroke="#003a50" stroke-miterlimit="10"/><rect x="338.92" y="35.4" width="4.39" height="4.55" fill="#fff"/><rect x="338.92" y="35.4" width="4.39" height="4.55" fill="none" stroke="#003a50" stroke-miterlimit="10"/><rect x="37.49" y="304.41" width="4.55" height="88.76" fill="#fff"/><rect x="37.49" y="304.41" width="4.55" height="88.76" fill="none" stroke="#003a50" stroke-miterlimit="10"/><line x1="39.76" y1="304.42" x2="39.76" y2="393.18" fill="none" stroke="#003a50" stroke-miterlimit="10"/><rect x="37.49" y="304.41" width="4.55" height="4.48" fill="#fff"/><rect x="37.49" y="304.41" width="4.55" height="4.48" fill="none" stroke="#003a50" stroke-miterlimit="10"/><rect x="37.49" y="388.7" width="4.55" height="4.48" fill="#fff"/><rect x="37.49" y="388.7" width="4.55" height="4.48" fill="none" stroke="#003a50" stroke-miterlimit="10"/><rect x="37.49" y="346.55" width="4.55" height="4.48" fill="#fff"/><rect x="37.49" y="346.55" width="4.55" height="4.48" fill="none" stroke="#003a50" stroke-miterlimit="10"/><rect x="37.49" y="66.59" width="4.55" height="142.92" fill="#fff"/><rect x="37.49" y="66.59" width="4.55" height="142.92" fill="none" stroke="#003a50" stroke-miterlimit="10"/><line x1="39.76" y1="209.51" x2="39.76" y2="66.59" fill="none" stroke="#003a50" stroke-miterlimit="10"/><rect x="37.49" y="170.35" width="4.55" height="4.57" fill="#fff"/><rect x="37.49" y="170.35" width="4.55" height="4.57" fill="none" stroke="#003a50" stroke-miterlimit="10"/><rect x="37.49" y="135.77" width="4.55" height="4.57" fill="#fff"/><rect x="37.49" y="135.77" width="4.55" height="4.57" fill="none" stroke="#003a50" stroke-miterlimit="10"/><rect x="37.49" y="204.94" width="4.55" height="4.57" fill="#fff"/><rect x="37.49" y="204.94" width="4.55" height="4.57" fill="none" stroke="#003a50" stroke-miterlimit="10"/><rect x="37.49" y="66.59" width="4.55" height="4.57" fill="#fff"/><rect x="37.49" y="66.59" width="4.55" height="4.57" fill="none" stroke="#003a50" stroke-miterlimit="10"/><rect x="37.49" y="101.17" width="4.55" height="4.57" fill="#fff"/><rect x="37.49" y="101.17" width="4.55" height="4.57" fill="none" stroke="#003a50" stroke-miterlimit="10"/><g clip-path="url(#clip-path)"><path d="M87,317.51a1.25,1.25,0,0,1-1.21,1.3,13.79,13.79,0,0,0,1.07,27.55,1.26,1.26,0,1,1,.1,2.51,16.3,16.3,0,1,1-1.27-32.57A1.26,1.26,0,0,1,87,317.51Z" fill="none" stroke="#003a50" stroke-miterlimit="10"/><path d="M93.9,355.06a1.26,1.26,0,0,1,.86,1.56,13.79,13.79,0,0,0,26.54,7.49,1.26,1.26,0,1,1,2.42.69,16.3,16.3,0,0,1-31.38-8.87A1.27,1.27,0,0,1,93.9,355.06Z" fill="none" stroke="#003a50" stroke-miterlimit="10"/><path d="M131.67,359.43a1.25,1.25,0,0,1,1.74-.35,13.79,13.79,0,1,0,15.33-22.92,1.26,1.26,0,1,1,1.4-2.09A16.3,16.3,0,0,1,132,361.17,1.25,1.25,0,0,1,131.67,359.43Z" fill="none" stroke="#003a50" stroke-miterlimit="10"/><path d="M148.85,324.86a1.26,1.26,0,0,1,.21-1.77A13.79,13.79,0,1,0,132,301.43a1.26,1.26,0,1,1-1.56-2,16.3,16.3,0,1,1,20.18,25.6A1.26,1.26,0,0,1,148.85,324.86Z" fill="none" stroke="#003a50" stroke-miterlimit="10"/><path d="M120,300.8a1.26,1.26,0,0,1-.86-1.56,13.79,13.79,0,0,0-26.46-7.75,1.25,1.25,0,1,1-2.41-.7A16.3,16.3,0,1,1,121.59,300,1.26,1.26,0,0,1,120,300.8Z" fill="none" stroke="#003a50" stroke-miterlimit="10"/><path d="M96.78,344.82l-9.36.36a12.65,12.65,0,1,1-1-25.28l9-.32a23.7,23.7,0,0,0,1.28,25.24Z" fill="none" stroke="#003a50" stroke-miterlimit="10"/><path d="M122.94,354.06l-2.56,9.08A12.65,12.65,0,0,1,96,356.3l2.6-9.2a23.6,23.6,0,0,0,24.32,7Z" fill="none" stroke="#003a50" stroke-miterlimit="10"/><path d="M151,354.26a12.67,12.67,0,0,1-17.52,3.52l-7.28-4.88a23.88,23.88,0,0,0,13.12-15.24,24.8,24.8,0,0,0,.84-5.84l7.36,4.92A12.63,12.63,0,0,1,151,354.26Z" fill="none" stroke="#003a50" stroke-miterlimit="10"/><path d="M147.82,322.62l-7.72,6.08a23.88,23.88,0,0,0-15.56-20l7.64-6a12.65,12.65,0,1,1,15.64,19.88Z" fill="none" stroke="#003a50" stroke-miterlimit="10"/><path d="M117.9,299.54l-2.28,7.76a23.58,23.58,0,0,0-9.08,2.12l-15.28-4.48a1.21,1.21,0,0,1-.84-1.52l3.08-10.64a12.87,12.87,0,0,1,13.2-9.4A12.67,12.67,0,0,1,117.9,299.54Z" fill="none" stroke="#003a50" stroke-miterlimit="10"/><path d="M140.18,331.82a24.8,24.8,0,0,1-.84,5.84,23.88,23.88,0,0,1-13.12,15.24,24.6,24.6,0,0,1-3.28,1.16,23.6,23.6,0,0,1-24.32-7,25.46,25.46,0,0,1-1.84-2.28,23.7,23.7,0,0,1-1.28-25.24,24,24,0,0,1,11-10.16,23.84,23.84,0,0,1,16.32-1.24c.56.16,1.12.36,1.68.56a23.88,23.88,0,0,1,15.56,20A27.09,27.09,0,0,1,140.18,331.82Z" fill="none" stroke="#003a50" stroke-miterlimit="10"/></g><rect x="518.36" y="291.5" width="29.48" height="71.04" fill="none" stroke="#003a50" stroke-miterlimit="10"/><rect x="314.67" y="504.41" width="72.48" height="29.76" fill="none" stroke="#003a50" stroke-miterlimit="10"/><rect x="52.96" y="433.41" width="230.49" height="34.02" fill="none" stroke="#003a50" stroke-miterlimit="10"/><rect x="453.94" y="249.86" width="96.36" height="41.64" fill="none" stroke="#003a50" stroke-miterlimit="10"/><g clip-path="url(#clip-path)"><rect x="458.17" y="255.01" width="87.89" height="31.33" rx="15.64" fill="none" stroke="#003a50" stroke-miterlimit="10"/><path d="M528.49,270.68a2.27,2.27,0,1,1,2.27,2.27A2.27,2.27,0,0,1,528.49,270.68Z" fill="none" stroke="#003a50" stroke-miterlimit="10"/><path d="M508.24,333.52v28.85H485.45V333.52a11.4,11.4,0,1,1,22.79,0Z" fill="none" stroke="#003a50" stroke-miterlimit="10"/></g><line x1="485.44" y1="351.14" x2="508.24" y2="351.14" fill="none" stroke="#003a50" stroke-miterlimit="10"/><g clip-path="url(#clip-path)"><path d="M524.13,298.32h23a3.35,3.35,0,0,1,3.36,3.35v22.25a3.36,3.36,0,0,1-3.36,3.36h-23a3.37,3.37,0,0,1-3.36-3.36V301.67A3.36,3.36,0,0,1,524.13,298.32Z" fill="none" stroke="#003a50" stroke-miterlimit="10"/><path d="M533.36,312.8a2.27,2.27,0,1,1,2.27,2.26A2.26,2.26,0,0,1,533.36,312.8Z" fill="none" stroke="#003a50" stroke-miterlimit="10"/><path d="M524.13,331.9h23a3.37,3.37,0,0,1,3.36,3.36v22.25a3.36,3.36,0,0,1-3.36,3.35h-23a3.36,3.36,0,0,1-3.36-3.35V335.26A3.37,3.37,0,0,1,524.13,331.9Z" fill="none" stroke="#003a50" stroke-miterlimit="10"/><path d="M533.36,346.38a2.27,2.27,0,1,1,2.27,2.27A2.26,2.26,0,0,1,533.36,346.38Z" fill="none" stroke="#003a50" stroke-miterlimit="10"/></g><rect x="387.19" y="438.1" width="43.33" height="96.06" fill="none" stroke="#003a50" stroke-miterlimit="10"/><g clip-path="url(#clip-path)"><path d="M392.56,514V458.25a15.93,15.93,0,0,1,15.93-15.93h.73a15.94,15.94,0,0,1,15.94,15.93V514a15.94,15.94,0,0,1-15.94,15.93h-.73A15.93,15.93,0,0,1,392.56,514Z" fill="none" stroke="#003a50" stroke-miterlimit="10"/><path d="M408.86,512.42a2.27,2.27,0,1,1-2.27,2.27A2.27,2.27,0,0,1,408.86,512.42Z" fill="none" stroke="#003a50" stroke-miterlimit="10"/><rect x="379.66" y="546.63" width="41.13" height="100.44" fill="none" stroke="#003a50" stroke-miterlimit="10"/><path d="M343.59,477.54H314.74V454.75h28.85a11.4,11.4,0,1,1,0,22.79Z" fill="none" stroke="#003a50" stroke-miterlimit="10"/></g><line x1="325.97" y1="454.75" x2="325.97" y2="477.54" fill="none" stroke="#003a50" stroke-miterlimit="10"/><g clip-path="url(#clip-path)"><rect x="354.43" y="506.81" width="28.96" height="29.71" rx="3.36" fill="none" stroke="#003a50" stroke-miterlimit="10"/><circle cx="368.91" cy="521.66" r="2.27" transform="translate(-216.69 777.2) rotate(-78.31)" fill="none" stroke="#003a50" stroke-miterlimit="10"/><rect x="420.9" y="546.98" width="37.82" height="26.34" fill="none" stroke="#003a50" stroke-miterlimit="10"/><rect x="426.5" y="544.88" width="25.64" height="26.31" rx="2.97" fill="none" stroke="#003a50" stroke-miterlimit="10"/></g><rect x="314.98" y="504.42" width="34.02" height="28.84" fill="none" stroke="#003a50" stroke-miterlimit="10"/><g clip-path="url(#clip-path)"><path d="M337.3,510.53h-2.12a3.07,3.07,0,0,1-5.72,0h-2.78l-5.28,3,2.52,4,2.38-1.27v10.86h11.37V516.28l2.38,1.27,2.53-4Z" fill="none" stroke="#003a50" stroke-miterlimit="10"/><rect x="458.72" y="547.16" width="30.12" height="25.9" fill="none" stroke="#003a50" stroke-miterlimit="10"/></g><rect x="108.63" y="433.41" width="34.02" height="34.02" fill="none" stroke="#003a50" stroke-miterlimit="10"/><g clip-path="url(#clip-path)"><path d="M138,458a4.69,4.69,0,1,1-4.69-4.7A4.69,4.69,0,0,1,138,458Z" fill="none" stroke="#003a50" stroke-miterlimit="10"/><path d="M122.61,458a4.69,4.69,0,1,1-4.69-4.7A4.69,4.69,0,0,1,122.61,458Z" fill="none" stroke="#003a50" stroke-miterlimit="10"/><path d="M138,442.84a4.69,4.69,0,1,1-4.69-4.7A4.69,4.69,0,0,1,138,442.84Z" fill="none" stroke="#003a50" stroke-miterlimit="10"/><path d="M122.61,442.84a4.69,4.69,0,1,1-4.69-4.7A4.69,4.69,0,0,1,122.61,442.84Z" fill="none" stroke="#003a50" stroke-miterlimit="10"/></g><rect x="218.24" y="433.41" width="34.02" height="34.02" fill="none" stroke="#003a50" stroke-miterlimit="10"/><line x1="235.25" y1="453.17" x2="235.25" y2="463.73" fill="none" stroke="#003a50" stroke-miterlimit="10"/><g clip-path="url(#clip-path)"><path d="M236.16,453.17h-1.82a3.39,3.39,0,0,1-3.39-3.39v-11.2h8.6v11.2A3.39,3.39,0,0,1,236.16,453.17Z" fill="none" stroke="#003a50" stroke-miterlimit="10"/></g><line x1="231.77" y1="463.73" x2="238.72" y2="463.73" fill="none" stroke="#003a50" stroke-miterlimit="10"/><rect x="52.97" y="433.41" width="34.02" height="34.02" fill="none" stroke="#003a50" stroke-miterlimit="10"/><line x1="69.98" y1="460.4" x2="69.98" y2="440.44" fill="none" stroke="#003a50" stroke-miterlimit="10"/><line x1="79.96" y1="450.42" x2="60" y2="450.42" fill="none" stroke="#003a50" stroke-miterlimit="10"/><line x1="77.03" y1="457.48" x2="62.92" y2="443.37" fill="none" stroke="#003a50" stroke-miterlimit="10"/><line x1="77.03" y1="443.36" x2="62.92" y2="457.48" fill="none" stroke="#003a50" stroke-miterlimit="10"/><g clip-path="url(#clip-path)"><path d="M192.06,459.06H168.71a3.35,3.35,0,0,1-3.35-3.36V440.75a3.36,3.36,0,0,1,3.35-3.36h23.35a3.36,3.36,0,0,1,3.36,3.36V455.7A3.35,3.35,0,0,1,192.06,459.06Z" fill="none" stroke="#003a50" stroke-miterlimit="10"/><circle cx="180.39" cy="452.02" r="2.46" fill="none" stroke="#003a50" stroke-miterlimit="10"/></g><line x1="180.39" y1="451.27" x2="180.39" y2="464.88" fill="none" stroke="#003a50" stroke-miterlimit="10"/><line x1="173.58" y1="464.88" x2="187.19" y2="464.88" fill="none" stroke="#003a50" stroke-miterlimit="10"/><g clip-path="url(#clip-path)"><rect x="339.12" y="547.32" width="34.02" height="68.03" fill="none" stroke="#003a50" stroke-miterlimit="10"/><rect x="273.92" y="546.63" width="65.21" height="29.22" fill="none" stroke="#003a50" stroke-miterlimit="10"/></g><rect x="437.47" y="502.2" width="56.47" height="30.8" fill="none" stroke="#003a50" stroke-miterlimit="10"/><g clip-path="url(#clip-path)"><path d="M453,506.57a.92.92,0,0,1,.51-.82.9.9,0,0,1,1.21.42,26,26,0,0,1,0,22.86.91.91,0,1,1-1.63-.8,24.2,24.2,0,0,0,0-21.26A1,1,0,0,1,453,506.57Z" fill="none" stroke="#003a50" stroke-miterlimit="10"/><path d="M458,506.57a.9.9,0,0,1,1.72-.4,26.06,26.06,0,0,1,0,22.86.91.91,0,1,1-1.63-.8,24.2,24.2,0,0,0,0-21.26A.83.83,0,0,1,458,506.57Z" fill="none" stroke="#003a50" stroke-miterlimit="10"/><path d="M463.05,506.57a.9.9,0,0,1,1.72-.4,26.06,26.06,0,0,1,0,22.86.91.91,0,1,1-1.63-.8,24.2,24.2,0,0,0,0-21.26A.83.83,0,0,1,463.05,506.57Z" fill="none" stroke="#003a50" stroke-miterlimit="10"/><path d="M468.09,506.57a.9.9,0,0,1,1.72-.4,26.06,26.06,0,0,1,0,22.86.91.91,0,1,1-1.63-.8,24.2,24.2,0,0,0,0-21.26A.83.83,0,0,1,468.09,506.57Z" fill="none" stroke="#003a50" stroke-miterlimit="10"/><path d="M473.12,506.57a.91.91,0,0,1,1.73-.4,26.06,26.06,0,0,1,0,22.86.91.91,0,1,1-1.63-.8,24.2,24.2,0,0,0,0-21.26A.85.85,0,0,1,473.12,506.57Z" fill="none" stroke="#003a50" stroke-miterlimit="10"/><path d="M478.16,506.57a.91.91,0,0,1,1.73-.4,26.06,26.06,0,0,1,0,22.86.91.91,0,1,1-1.63-.8,24.29,24.29,0,0,0,0-21.26A.85.85,0,0,1,478.16,506.57Z" fill="none" stroke="#003a50" stroke-miterlimit="10"/><path d="M447.93,506.57a.92.92,0,0,1,.51-.82.9.9,0,0,1,1.21.42,26,26,0,0,1,0,22.86.91.91,0,1,1-1.63-.8A24.2,24.2,0,0,0,448,507,1,1,0,0,1,447.93,506.57Z" fill="none" stroke="#003a50" stroke-miterlimit="10"/><path d="M442.89,506.57a.92.92,0,0,1,.51-.82.9.9,0,0,1,1.21.42,26,26,0,0,1,0,22.86.9.9,0,1,1-1.62-.8A24.29,24.29,0,0,0,443,507,.85.85,0,0,1,442.89,506.57Z" fill="none" stroke="#003a50" stroke-miterlimit="10"/></g><line x1="437.47" y1="517.6" x2="493.94" y2="517.6" fill="none" stroke="#003a50" stroke-miterlimit="10"/><g clip-path="url(#clip-path)"><path d="M73.46,502.23a9.2,9.2,0,1,1,0-13A9.19,9.19,0,0,1,73.46,502.23Z" fill="none" stroke="#003a50" stroke-miterlimit="10"/><path d="M74.09,501.54c-1.7-.17-3.42.48-5.07-1.18-2.43-2.43.14-5-2.29-7.45s-5,.14-7.46-2.3" fill="none" stroke="#003a50" stroke-miterlimit="10"/><path d="M210.76,502.23a9.2,9.2,0,1,1,0-13A9.19,9.19,0,0,1,210.76,502.23Z" fill="none" stroke="#003a50" stroke-miterlimit="10"/><path d="M211.39,501.54c-1.7-.17-3.42.48-5.07-1.18-2.43-2.43.14-5-2.29-7.45s-5,.14-7.46-2.3" fill="none" stroke="#003a50" stroke-miterlimit="10"/><path d="M176.67,588h-82A2.09,2.09,0,0,1,92.54,586V518.31h86.22V586A2.09,2.09,0,0,1,176.67,588Z" fill="none" stroke="#003a50" stroke-miterlimit="10"/><rect x="92.29" y="491.82" width="42.5" height="22.88" rx="1.98" fill="none" stroke="#003a50" stroke-miterlimit="10"/><rect x="136.51" y="491.82" width="42.5" height="22.88" rx="1.98" fill="none" stroke="#003a50" stroke-miterlimit="10"/></g><rect x="300.34" y="234.98" width="79.37" height="34.02" fill="none" stroke="#003a50" stroke-miterlimit="10"/><rect x="320.08" y="275.33" width="34.02" height="87.1" fill="none" stroke="#003a50" stroke-miterlimit="10"/><g clip-path="url(#clip-path)"><path d="M324.9,345.36a1,1,0,0,1-.44-1.9,28.77,28.77,0,0,1,25.26,0,1,1,0,0,1-.89,1.8,26.72,26.72,0,0,0-23.49,0A1,1,0,0,1,324.9,345.36Z" fill="none" stroke="#003a50" stroke-miterlimit="10"/><path d="M324.9,339.8a1,1,0,0,1-.44-1.91,28.77,28.77,0,0,1,25.26,0,1,1,0,0,1,.45,1.34,1,1,0,0,1-1.34.46,26.81,26.81,0,0,0-23.49,0A1,1,0,0,1,324.9,339.8Z" fill="none" stroke="#003a50" stroke-miterlimit="10"/><path d="M324.9,334.23a1,1,0,0,1-.44-1.9,28.77,28.77,0,0,1,25.26,0,1,1,0,0,1-.89,1.8,26.72,26.72,0,0,0-23.49,0A1,1,0,0,1,324.9,334.23Z" fill="none" stroke="#003a50" stroke-miterlimit="10"/><path d="M324.9,328.67a1,1,0,0,1-.44-1.91,28.77,28.77,0,0,1,25.26,0,1,1,0,0,1,.45,1.34,1,1,0,0,1-1.34.46,26.81,26.81,0,0,0-23.49,0A1,1,0,0,1,324.9,328.67Z" fill="none" stroke="#003a50" stroke-miterlimit="10"/><path d="M324.9,323.1a1,1,0,0,1-.44-1.9,28.77,28.77,0,0,1,25.26,0,1,1,0,0,1-.89,1.8,26.72,26.72,0,0,0-23.49,0A1,1,0,0,1,324.9,323.1Z" fill="none" stroke="#003a50" stroke-miterlimit="10"/><path d="M324.9,317.53a1,1,0,0,1-.9-.56,1,1,0,0,1,.46-1.34,28.77,28.77,0,0,1,25.26,0,1,1,0,0,1-.89,1.8,26.72,26.72,0,0,0-23.49,0A1,1,0,0,1,324.9,317.53Z" fill="none" stroke="#003a50" stroke-miterlimit="10"/><path d="M324.9,350.93a1,1,0,0,1-.44-1.91,28.77,28.77,0,0,1,25.26,0,1,1,0,0,1,.45,1.34,1,1,0,0,1-1.34.46,26.81,26.81,0,0,0-23.49,0A1,1,0,0,1,324.9,350.93Z" fill="none" stroke="#003a50" stroke-miterlimit="10"/><path d="M324.9,356.49a1,1,0,0,1-.44-1.9,28.77,28.77,0,0,1,25.26,0,1,1,0,0,1-.89,1.8,26.72,26.72,0,0,0-23.49,0A1,1,0,0,1,324.9,356.49Z" fill="none" stroke="#003a50" stroke-miterlimit="10"/></g><line x1="337.09" y1="362.48" x2="337.09" y2="275.33" fill="none" stroke="#003a50" stroke-miterlimit="10"/><rect x="354.1" y="275.19" width="42.37" height="34.02" fill="none" stroke="#003a50" stroke-miterlimit="10"/><g clip-path="url(#clip-path)"><path d="M371.21,280a1,1,0,0,1,1.9-.44,28.77,28.77,0,0,1,0,25.26,1,1,0,0,1-1.8-.89,26.72,26.72,0,0,0,0-23.49A1,1,0,0,1,371.21,280Z" fill="none" stroke="#003a50" stroke-miterlimit="10"/><path d="M376.77,280a1,1,0,0,1,1.91-.44,28.77,28.77,0,0,1,0,25.26,1,1,0,0,1-1.34.45,1,1,0,0,1-.46-1.34,26.81,26.81,0,0,0,0-23.49A1,1,0,0,1,376.77,280Z" fill="none" stroke="#003a50" stroke-miterlimit="10"/><path d="M365.64,280a1,1,0,0,1,1.91-.44,28.77,28.77,0,0,1,0,25.26,1,1,0,0,1-1.34.45,1,1,0,0,1-.46-1.34,26.81,26.81,0,0,0,0-23.49A1,1,0,0,1,365.64,280Z" fill="none" stroke="#003a50" stroke-miterlimit="10"/><path d="M360.08,280a1,1,0,0,1,1.9-.44,28.77,28.77,0,0,1,0,25.26,1,1,0,0,1-1.8-.89,26.72,26.72,0,0,0,0-23.49A1,1,0,0,1,360.08,280Z" fill="none" stroke="#003a50" stroke-miterlimit="10"/></g><line x1="354.09" y1="292.2" x2="396.46" y2="292.2" fill="none" stroke="#003a50" stroke-miterlimit="10"/><rect x="279.13" y="275.47" width="34.02" height="92.09" fill="none" stroke="#003a50" stroke-miterlimit="10"/><g clip-path="url(#clip-path)"><path d="M284,350.5a1,1,0,0,1-.44-1.91,28.77,28.77,0,0,1,25.26,0,1,1,0,0,1,.45,1.34,1,1,0,0,1-1.34.46,26.81,26.81,0,0,0-23.49,0A1,1,0,0,1,284,350.5Z" fill="none" stroke="#003a50" stroke-miterlimit="10"/><path d="M284,344.93a1,1,0,0,1-.44-1.9,28.77,28.77,0,0,1,25.26,0,1,1,0,0,1-.89,1.8,26.72,26.72,0,0,0-23.49,0A1,1,0,0,1,284,344.93Z" fill="none" stroke="#003a50" stroke-miterlimit="10"/><path d="M284,339.37a1,1,0,0,1-.44-1.91,28.77,28.77,0,0,1,25.26,0,1,1,0,0,1,.45,1.34,1,1,0,0,1-1.34.46,26.81,26.81,0,0,0-23.49,0A1,1,0,0,1,284,339.37Z" fill="none" stroke="#003a50" stroke-miterlimit="10"/><path d="M284,333.8a1,1,0,0,1-.44-1.9,28.77,28.77,0,0,1,25.26,0,1,1,0,0,1-.89,1.8,26.72,26.72,0,0,0-23.49,0A1,1,0,0,1,284,333.8Z" fill="none" stroke="#003a50" stroke-miterlimit="10"/><path d="M284,328.24a1,1,0,0,1-.44-1.91,28.77,28.77,0,0,1,25.26,0,1,1,0,0,1,.45,1.34,1,1,0,0,1-1.34.46,26.81,26.81,0,0,0-23.49,0A1,1,0,0,1,284,328.24Z" fill="none" stroke="#003a50" stroke-miterlimit="10"/><path d="M284,322.67a1,1,0,0,1-.44-1.9,28.77,28.77,0,0,1,25.26,0,1,1,0,0,1-.89,1.8,26.72,26.72,0,0,0-23.49,0A1,1,0,0,1,284,322.67Z" fill="none" stroke="#003a50" stroke-miterlimit="10"/><path d="M284,356.06a1,1,0,0,1-.44-1.9,28.77,28.77,0,0,1,25.26,0,1,1,0,0,1-.89,1.8,26.72,26.72,0,0,0-23.49,0A1,1,0,0,1,284,356.06Z" fill="none" stroke="#003a50" stroke-miterlimit="10"/><path d="M284,361.63a1,1,0,0,1-.44-1.91,28.77,28.77,0,0,1,25.26,0,1,1,0,0,1,.45,1.34,1,1,0,0,1-1.34.46,26.81,26.81,0,0,0-23.49,0A.87.87,0,0,1,284,361.63Z" fill="none" stroke="#003a50" stroke-miterlimit="10"/></g><line x1="296.14" y1="367.61" x2="296.14" y2="275.47" fill="none" stroke="#003a50" stroke-miterlimit="10"/><g clip-path="url(#clip-path)"><path d="M317.46,239.8a1,1,0,0,1,1.9-.44,28.77,28.77,0,0,1,0,25.26,1,1,0,0,1-1.8-.88,26.74,26.74,0,0,0,0-23.5A1,1,0,0,1,317.46,239.8Z" fill="none" stroke="#003a50" stroke-miterlimit="10"/><path d="M323,239.8a1,1,0,0,1,1.91-.44,28.77,28.77,0,0,1,0,25.26,1,1,0,0,1-1.34.46,1,1,0,0,1-.46-1.34,26.83,26.83,0,0,0,0-23.5A.87.87,0,0,1,323,239.8Z" fill="none" stroke="#003a50" stroke-miterlimit="10"/><path d="M328.59,239.8a1,1,0,0,1,1.9-.44,28.77,28.77,0,0,1,0,25.26,1,1,0,1,1-1.8-.88,26.74,26.74,0,0,0,0-23.5A1,1,0,0,1,328.59,239.8Z" fill="none" stroke="#003a50" stroke-miterlimit="10"/><path d="M334.15,239.8a1,1,0,0,1,1.91-.44,28.77,28.77,0,0,1,0,25.26,1,1,0,0,1-1.34.46,1,1,0,0,1-.46-1.34,26.83,26.83,0,0,0,0-23.5A.87.87,0,0,1,334.15,239.8Z" fill="none" stroke="#003a50" stroke-miterlimit="10"/><path d="M339.72,239.8a1,1,0,0,1,.56-.9,1,1,0,0,1,1.34.46,28.77,28.77,0,0,1,0,25.26,1,1,0,0,1-1.8-.88,26.74,26.74,0,0,0,0-23.5A1,1,0,0,1,339.72,239.8Z" fill="none" stroke="#003a50" stroke-miterlimit="10"/><path d="M345.28,239.8a1,1,0,0,1,1.91-.44,28.77,28.77,0,0,1,0,25.26,1,1,0,0,1-1.34.46,1,1,0,0,1-.46-1.34,26.83,26.83,0,0,0,0-23.5A.87.87,0,0,1,345.28,239.8Z" fill="none" stroke="#003a50" stroke-miterlimit="10"/><path d="M311.89,239.8a1,1,0,0,1,.56-.9,1,1,0,0,1,1.34.46,28.77,28.77,0,0,1,0,25.26,1,1,0,0,1-1.8-.88,26.74,26.74,0,0,0,0-23.5A1,1,0,0,1,311.89,239.8Z" fill="none" stroke="#003a50" stroke-miterlimit="10"/><path d="M306.33,239.8a1,1,0,0,1,1.9-.44,28.77,28.77,0,0,1,0,25.26,1,1,0,0,1-1.8-.88,26.74,26.74,0,0,0,0-23.5A1,1,0,0,1,306.33,239.8Z" fill="none" stroke="#003a50" stroke-miterlimit="10"/></g><line x1="300.34" y1="251.99" x2="379.71" y2="251.99" fill="none" stroke="#003a50" stroke-miterlimit="10"/><g clip-path="url(#clip-path)"><path d="M107.73,135.34h-41v45.77H110V137.56A2.22,2.22,0,0,0,107.73,135.34Z" fill="none" stroke="#003a50" stroke-miterlimit="10"/><path d="M108,89.47H66.7v45.78H108a2,2,0,0,0,2-2V91.46A2,2,0,0,0,108,89.47Z" fill="none" stroke="#003a50" stroke-miterlimit="10"/><path d="M110,181.11a3.1,3.1,0,0,1,2.82,3.33v4.22A3.1,3.1,0,0,1,110,192H61.75V78.6h47.77a3.11,3.11,0,0,1,2.83,3.33v4.22a3.1,3.1,0,0,1-2.83,3.32H66.7v91.64Z" fill="none" stroke="#003a50" stroke-miterlimit="10"/></g><rect x="66.7" y="89.47" width="9.25" height="91.64" fill="none" stroke="#003a50" stroke-miterlimit="10"/><rect x="202.98" y="50.64" width="17.01" height="224.22" fill="none" stroke="#003a50" stroke-miterlimit="10"/><rect x="396.74" y="95.86" width="17.01" height="101.63" fill="none" stroke="#003a50" stroke-miterlimit="10"/><polygon points="405.79 103.68 408.24 103.68 408.24 189.68 405.79 189.68 402.25 146.68 405.79 103.68" fill="none" stroke="#003a50" stroke-miterlimit="10"/><polygon points="210.95 205.75 208.49 205.75 208.49 119.75 210.95 119.75 214.48 162.75 210.95 205.75" fill="none" stroke="#003a50" stroke-miterlimit="10"/><g clip-path="url(#clip-path)"><path d="M260,120.66a14.78,14.78,0,0,0,15.92-23.39,1.14,1.14,0,1,0-1.77,1.43A12.47,12.47,0,0,1,260,118.2Z" fill="none" stroke="#003a50" stroke-miterlimit="10"/><rect x="225.93" y="66.4" width="34.02" height="84.03" rx="3.31" fill="none" stroke="#003a50" stroke-miterlimit="10"/><path d="M229.64,147.88a1.4,1.4,0,0,0,1.4-1.39V70.34a1.4,1.4,0,0,0-2.8,0v76.15a1.4,1.4,0,0,0,1.4,1.39" fill="none" stroke="#003a50" stroke-miterlimit="10"/><path d="M244.22,80.07a5.5,5.5,0,1,1,0-7.78A5.49,5.49,0,0,1,244.22,80.07Z" fill="none" stroke="#003a50" stroke-miterlimit="10"/><path d="M244.59,79.66c-1-.1-2,.29-3-.7-1.46-1.46.08-3-1.38-4.47s-3,.09-4.47-1.38" fill="none" stroke="#003a50" stroke-miterlimit="10"/><path d="M260,116a10.64,10.64,0,1,0,0-19.6Z" fill="none" stroke="#003a50" stroke-miterlimit="10"/><path d="M233.59,510.4a14.77,14.77,0,0,0-15.92,23.38,1.13,1.13,0,0,0,1.6.18,1.14,1.14,0,0,0,.17-1.61,12.47,12.47,0,0,1,14.15-19.5Z" fill="none" stroke="#003a50" stroke-miterlimit="10"/><rect x="233.59" y="480.62" width="34.02" height="84.03" rx="3.31" fill="none" stroke="#003a50" stroke-miterlimit="10"/><path d="M263.9,483.17a1.4,1.4,0,0,0-1.4,1.4v76.14a1.4,1.4,0,0,0,2.8,0V484.57a1.4,1.4,0,0,0-1.4-1.4" fill="none" stroke="#003a50" stroke-miterlimit="10"/><path d="M233.59,515.11a10.63,10.63,0,1,0,0,19.59Z" fill="none" stroke="#003a50" stroke-miterlimit="10"/></g><rect x="337.46" y="59.87" width="52.33" height="113.67" fill="none" stroke="#003a50" stroke-miterlimit="10"/><g clip-path="url(#clip-path)"><path d="M346.4,163.83h34a2.1,2.1,0,0,0,2.1-2.1V94.11H344.29v67.62A2.1,2.1,0,0,0,346.4,163.83Z" fill="none" stroke="#003a50" stroke-miterlimit="10"/></g><rect x="344.29" y="94.11" width="38.26" height="13.85" fill="none" stroke="#003a50" stroke-miterlimit="10"/><g clip-path="url(#clip-path)"><path d="M346.1,67.62h34.3a2.19,2.19,0,0,1,2.2,2.2V88.29a2.2,2.2,0,0,1-2.2,2.21H346.1a2.21,2.21,0,0,1-2.21-2.21V69.82A2.2,2.2,0,0,1,346.1,67.62Z" fill="none" stroke="#003a50" stroke-miterlimit="10"/></g><rect x="547.84" y="66.67" width="22.68" height="22.68" fill="none" stroke="#003a50" stroke-miterlimit="10"/><g clip-path="url(#clip-path)"><path d="M565.68,84.51a9.2,9.2,0,1,1,0-13A9.2,9.2,0,0,1,565.68,84.51Z" fill="none" stroke="#003a50" stroke-miterlimit="10"/><path d="M566.3,83.82c-1.69-.17-3.41.48-5.06-1.17-2.44-2.44.14-5-2.3-7.46s-5,.14-7.46-2.3" fill="none" stroke="#003a50" stroke-miterlimit="10"/></g><rect x="547.86" y="204.01" width="22.68" height="22.68" fill="none" stroke="#003a50" stroke-miterlimit="10"/><g clip-path="url(#clip-path)"><path d="M565.7,221.85a9.19,9.19,0,1,1,0-13A9.17,9.17,0,0,1,565.7,221.85Z" fill="none" stroke="#003a50" stroke-miterlimit="10"/><path d="M566.32,221.16c-1.69-.17-3.41.49-5.06-1.17-2.44-2.44.14-5-2.3-7.45s-5,.13-7.46-2.31" fill="none" stroke="#003a50" stroke-miterlimit="10"/></g><rect x="457.13" y="95.15" width="113.38" height="102.05" fill="none" stroke="#003a50" stroke-miterlimit="10"/><g clip-path="url(#clip-path)"><path d="M466.86,187.2v-82a2.1,2.1,0,0,1,2.09-2.09h67.64v86.22H469A2.09,2.09,0,0,1,466.86,187.2Z" fill="none" stroke="#003a50" stroke-miterlimit="10"/><rect x="540.2" y="102.81" width="22.88" height="42.5" rx="1.98" fill="none" stroke="#003a50" stroke-miterlimit="10"/><rect x="540.2" y="147.04" width="22.88" height="42.5" rx="1.98" fill="none" stroke="#003a50" stroke-miterlimit="10"/></g><line x1="522.74" y1="189.54" x2="522.74" y2="102.81" fill="none" stroke="#003a50" stroke-miterlimit="10"/><g clip-path="url(#clip-path)"><path d="M270.75,272.44v-3.07A38.71,38.71,0,0,0,232,230.65v41.79" fill="none" stroke="#003a50" stroke-miterlimit="10" stroke-width="1.6"/><path d="M384.51,436.76v-3.14A39.51,39.51,0,0,0,345,394.11v42.65" fill="none" stroke="#003a50" stroke-miterlimit="10" stroke-width="1.6"/><path d="M527.31,430.67h3.88a48.89,48.89,0,0,0,48.9-48.89H527.31" fill="none" stroke="#003a50" stroke-miterlimit="10" stroke-width="1.6"/><path d="M452.56,339.23h-3.08a38.72,38.72,0,0,1-38.72-38.71h41.8" fill="none" stroke="#003a50" stroke-miterlimit="10" stroke-width="1.6"/><path d="M443.75,366.23v3.37a42.33,42.33,0,0,1-42.33,42.33v-45.7" fill="none" stroke="#003a50" stroke-miterlimit="10" stroke-width="1.6"/><line x1="507.59" y1="429.13" x2="453.1" y2="429.13" fill="none" stroke="#003a50" stroke-miterlimit="10" stroke-width="1.6"/><polygon points="504.71 50.09 600.46 50.09 600.46 0.76 504.71 12.42 504.71 50.09" fill="#003a50" fill-rule="evenodd"/><rect x="16.59" y="24.51" width="36.1" height="41.88" fill="#003a50"/><rect x="10.69" y="24.51" width="50.83" height="25.57" fill="#003a50"/><rect x="270.59" y="2.25" width="27.1" height="47.83" fill="#003a50"/><rect x="384.79" y="2.26" width="34.46" height="47.83" fill="#003a50"/><rect x="210.69" y="31.25" width="77.33" height="25" fill="#003a50"/><rect x="202.19" y="2.25" width="91.24" height="47.83" fill="#003a50"/><rect x="21.08" y="16.75" width="91.69" height="33.33" fill="#003a50"/><rect x="516" y="28.92" width="77.33" height="27.33" fill="#003a50"/><rect x="4.69" y="4.25" width="25.83" height="25" fill="#003a50"/><rect x="13.69" y="393.68" width="39" height="94.57" fill="#003a50"/><rect x="4.36" y="393.68" width="44.33" height="25.9" fill="#003a50"/><rect x="38.52" y="466.92" width="249.5" height="13.79" fill="#003a50"/><rect x="278.19" y="533.25" width="249.5" height="13.79" fill="#003a50"/><rect x="513.69" y="533.06" width="16.81" height="127.55" fill="#003a50"/><rect x="494.19" y="433.9" width="11.67" height="106.25" fill="#003a50"/><rect x="494.19" y="433.15" width="36.31" height="11.67" fill="#003a50"/><rect x="514.36" y="362.61" width="142" height="16.69" fill="#003a50"/><rect x="570.82" y="51.89" width="16.32" height="314.78" fill="#003a50"/><rect x="379.15" y="192.25" width="16.32" height="82.94" fill="#003a50"/><rect x="272.34" y="466.92" width="15.68" height="80.12" fill="#003a50"/><rect x="4.36" y="209.51" width="48.33" height="94.57" fill="#003a50"/><rect x="447.18" y="338.39" width="6.38" height="28.28" fill="#003a50"/><rect x="447.18" y="247.14" width="6.38" height="54.21" fill="#003a50"/><rect x="269.92" y="268.81" width="120.92" height="6.38" fill="#003a50"/><rect x="219.92" y="268.81" width="12.94" height="6.38" fill="#003a50"/><rect x="585.62" y="246.92" width="70.74" height="6.38" fill="#003a50"/><rect x="585.61" y="278.53" width="25.64" height="6.38" fill="#003a50"/><rect x="547" y="326.4" width="25.64" height="6.38" fill="#003a50"/><rect x="545.74" y="250.32" width="6.38" height="118.66" fill="#003a50"/><rect x="442.92" y="362.61" width="91.5" height="6.38" fill="#003a50"/><rect x="313.42" y="362.61" width="88.83" height="6.38" fill="#003a50"/><rect x="313.42" y="272.44" width="6.38" height="94.76" fill="#003a50"/><rect x="219.92" y="48.49" width="6.38" height="222.42" fill="#003a50"/><rect x="390.09" y="48.49" width="6.38" height="226.7" fill="#003a50"/><rect x="383.67" y="433.13" width="59.1" height="6.38" fill="#003a50"/><rect x="480.35" y="433.13" width="18.8" height="6.38" fill="#003a50"/><rect x="283.09" y="433.13" width="62.74" height="6.38" fill="#003a50"/><rect x="308.09" y="438.39" width="6.38" height="99.52" fill="#003a50"/><rect x="430.84" y="438.39" width="6.38" height="99.52" fill="#003a50"/><rect x="283.09" y="438.39" width="6.38" height="99.52" fill="#003a50"/><rect x="287.02" y="455.2" width="26.4" height="6.38" fill="#003a50"/><rect x="524.12" y="429.91" width="6.38" height="107.23" fill="#003a50"/><rect x="524.12" y="368.98" width="6.38" height="13.63" fill="#003a50"/><rect x="373.17" y="542.87" width="6.38" height="108.39" fill="#003a50"/><rect x="488.44" y="544.11" width="6.38" height="104.88" fill="#003a50"/><line x1="313.42" y1="443.22" x2="313.42" y2="440.38" fill="none" stroke="#003a50" stroke-miterlimit="10"/><line x1="313.42" y1="434.88" x2="313.42" y2="371.59" fill="none" stroke="#003a50" stroke-miterlimit="10" stroke-dasharray="5.5 5.5"/><line x1="313.42" y1="368.84" x2="313.42" y2="366" fill="none" stroke="#003a50" stroke-miterlimit="10"/><rect x="267.54" y="473.81" width="6.38" height="102.03" fill="#003a50"/><rect x="447.18" y="243.7" width="125.47" height="6.38" fill="#003a50"/><line x1="389.37" y1="244.84" x2="392.21" y2="244.84" fill="none" stroke="#003a50" stroke-miterlimit="10"/><line x1="398.08" y1="244.84" x2="489.04" y2="244.84" fill="none" stroke="#003a50" stroke-miterlimit="10" stroke-dasharray="5.87 5.87"/><line x1="491.97" y1="244.84" x2="494.81" y2="244.84" fill="none" stroke="#003a50" stroke-miterlimit="10"/></g><g clip-path="url(#clip-path)"><path d="M450.2,214.27l-2.49,1.95V214l2.74-2.27h1.86v11.91H450.2Z" fill="#003a50"/><path d="M456.82,214.27l-2.48,1.95V214l2.73-2.27h1.86v11.91h-2.11Z" fill="#003a50"/><path d="M461.46,223.49a1,1,0,0,1-.33-.81,1,1,0,0,1,.33-.8,1.4,1.4,0,0,1,1.73,0,1,1,0,0,1,.33.8,1,1,0,0,1-.33.81,1.4,1.4,0,0,1-1.73,0Z" fill="#003a50"/><path d="M467.36,214.27l-2.48,1.95V214l2.73-2.27h1.86v11.91h-2.11Z" fill="#003a50"/><path d="M462.29,310.45h-5.82v-1.84h8.86v1.84l-4.53,2.65v.07h1.28a3.86,3.86,0,0,1,2.79,1,3.5,3.5,0,0,1,1.06,2.67,3.35,3.35,0,0,1-1.33,2.82,7,7,0,0,1-7.24,0,3.36,3.36,0,0,1-1.33-2.86v-.32h2.11v.32c0,1.36.94,2,2.84,2s2.84-.67,2.84-2-.95-2-2.84-2h-3.27V313.2l4.58-2.68Z" fill="#003a50"/><path d="M468,320.38a1,1,0,0,1-.33-.8,1,1,0,0,1,.33-.81,1.23,1.23,0,0,1,.87-.3,1.2,1.2,0,0,1,.86.3,1,1,0,0,1,.33.81,1,1,0,0,1-.33.8,1.2,1.2,0,0,1-.86.3A1.23,1.23,0,0,1,468,320.38Z" fill="#003a50"/><path d="M481.65,312h-2.21s0-.06,0-.17a2.36,2.36,0,0,0-.21-.44,2.69,2.69,0,0,0-.39-.5,1.85,1.85,0,0,0-.71-.41,3,3,0,0,0-1-.16,2.49,2.49,0,0,0-2.15,1,4.39,4.39,0,0,0-.76,2.68h.05a1.8,1.8,0,0,1,.44-.43,4,4,0,0,1,.61-.37,4.45,4.45,0,0,1,1-.3,5.49,5.49,0,0,1,1.22-.13,5.05,5.05,0,0,1,3.37,1.11,3.51,3.51,0,0,1,1.3,2.8,3.57,3.57,0,0,1-1.36,2.91,5.55,5.55,0,0,1-3.6,1.1,4.81,4.81,0,0,1-3.87-1.54,6.36,6.36,0,0,1-1.32-4.27v-.41a6.85,6.85,0,0,1,1.32-4.31,4.52,4.52,0,0,1,3.8-1.71,5.66,5.66,0,0,1,2.13.38,3.78,3.78,0,0,1,1.43.93A3.46,3.46,0,0,1,481.65,312Zm-2.51,3.15a3.65,3.65,0,0,0-3.95,0,2,2,0,0,0,0,3.15,3.21,3.21,0,0,0,2,.59,3.26,3.26,0,0,0,2-.59,2,2,0,0,0,0-3.15Z" fill="#003a50"/><path d="M482.39,409h-2.11v-2.65h-7V404.5l6.29-7.42h2.79v7.42H484v1.84h-1.6Zm-2.11-4.49v-5.32h-.07l-4.47,5.27v.05Z" fill="#003a50"/><path d="M485.67,408.86a1,1,0,0,1-.32-.81,1.06,1.06,0,0,1,.32-.8,1.41,1.41,0,0,1,1.74,0,1.06,1.06,0,0,1,.32.8,1,1,0,0,1-.32.81,1.41,1.41,0,0,1-1.74,0Z" fill="#003a50"/><path d="M498,409h-2.11v-2.65h-7V404.5l6.29-7.42H498v7.42h1.6v1.84H498Zm-2.11-4.49v-5.32h-.06l-4.48,5.27v.05Z" fill="#003a50"/><path d="M270.34,214.27l-2.49,1.95V214l2.74-2.27h1.86v11.91h-2.11Z" fill="#003a50"/><path d="M277,214.27l-2.48,1.95V214l2.73-2.27h1.86v11.91H277Z" fill="#003a50"/><path d="M281.6,223.49a1,1,0,0,1-.33-.81,1,1,0,0,1,.33-.8,1.4,1.4,0,0,1,1.73,0,1,1,0,0,1,.33.8,1,1,0,0,1-.33.81,1.4,1.4,0,0,1-1.73,0Z" fill="#003a50"/><path d="M295.22,215.07H293s0-.07,0-.18a2.94,2.94,0,0,0-.22-.44,2.22,2.22,0,0,0-.38-.49,1.86,1.86,0,0,0-.71-.42,3.29,3.29,0,0,0-1-.16,2.52,2.52,0,0,0-2.15,1,4.41,4.41,0,0,0-.77,2.68h.06a2,2,0,0,1,.44-.43,3.93,3.93,0,0,1,1.56-.67,6.16,6.16,0,0,1,1.22-.12,5.05,5.05,0,0,1,3.37,1.11,3.5,3.5,0,0,1,1.3,2.8,3.56,3.56,0,0,1-1.36,2.9,5.49,5.49,0,0,1-3.6,1.11,4.81,4.81,0,0,1-3.87-1.55,6.35,6.35,0,0,1-1.32-4.26v-.41a6.85,6.85,0,0,1,1.32-4.31,4.5,4.5,0,0,1,3.8-1.71,5.66,5.66,0,0,1,2.13.37,3.87,3.87,0,0,1,1.43.94A3.46,3.46,0,0,1,295.22,215.07Zm-2.51,3.15a3.6,3.6,0,0,0-3.95,0,2,2,0,0,0,0,3.14,3.15,3.15,0,0,0,2,.59,3.2,3.2,0,0,0,2-.59,2,2,0,0,0,0-3.14Z" fill="#003a50"/><path d="M115.27,223.62h-9.93v-1.56a2.74,2.74,0,0,1,.58-1.74,4,4,0,0,1,1.45-1.2c.49-.25,1.12-.54,1.87-.86s1.32-.56,1.87-.78a4.21,4.21,0,0,0,1.45-.91,1.8,1.8,0,0,0,.57-1.3q0-1.89-2.67-1.89t-2.67,2.16V216h-2.11v-.41a3.62,3.62,0,0,1,1.26-3,5.39,5.39,0,0,1,3.52-1,5.65,5.65,0,0,1,3.51,1,3.27,3.27,0,0,1,1.27,2.75,3.14,3.14,0,0,1-.56,1.83,4.29,4.29,0,0,1-1.4,1.31c-.6.34-1.21.65-1.84.93s-1.23.52-1.82.74a5.18,5.18,0,0,0-1.41.75,1.25,1.25,0,0,0-.56,1h7.62Z" fill="#003a50"/><path d="M123.57,213.56h-5.82v-1.85h8.86v1.85l-4.53,2.65v.06h1.28a3.87,3.87,0,0,1,2.79,1,3.51,3.51,0,0,1,1.06,2.66,3.34,3.34,0,0,1-1.33,2.82,6.93,6.93,0,0,1-7.24,0,3.34,3.34,0,0,1-1.33-2.85v-.33h2.11v.33c0,1.36.94,2,2.84,2s2.84-.66,2.84-2-.95-2-2.84-2H119v-1.67l4.58-2.69Z" fill="#003a50"/><path d="M129.31,223.49a1,1,0,0,1-.33-.81,1,1,0,0,1,.33-.8,1.4,1.4,0,0,1,1.73,0,1,1,0,0,1,.33.8,1,1,0,0,1-.33.81,1.4,1.4,0,0,1-1.73,0Z" fill="#003a50"/><path d="M138.59,215.64a5,5,0,0,1,3.34,1.06,3.69,3.69,0,0,1,1.26,3,3.73,3.73,0,0,1-1.3,3,5.39,5.39,0,0,1-3.55,1.08,5.86,5.86,0,0,1-3.56-1,3.18,3.18,0,0,1-1.29-2.69h2.11a1.57,1.57,0,0,0,.7,1.34,3.62,3.62,0,0,0,2,.48,3.13,3.13,0,0,0,2-.57,2.34,2.34,0,0,0,0-3.39,3.25,3.25,0,0,0-2.07-.58,3.6,3.6,0,0,0-1.92.42,2,2,0,0,0-.7.63l-.05.13h-2.11v-6.88h8.88v1.85H135.6v2.95h.05a2.77,2.77,0,0,1,.4-.3,3.11,3.11,0,0,1,.55-.27A5.6,5.6,0,0,1,138.59,215.64Z" fill="#003a50"/><path d="M139.78,418.45a5,5,0,0,1,3.34,1.06,4.18,4.18,0,0,1,0,6,5.41,5.41,0,0,1-3.55,1.08,5.75,5.75,0,0,1-3.56-1,3.16,3.16,0,0,1-1.29-2.68h2.11a1.53,1.53,0,0,0,.7,1.33,3.61,3.61,0,0,0,2,.49,3.09,3.09,0,0,0,2-.58,2,2,0,0,0,.7-1.68,2.05,2.05,0,0,0-.73-1.71,3.32,3.32,0,0,0-2.08-.58,3.54,3.54,0,0,0-1.91.42,1.84,1.84,0,0,0-.7.64l-.05.12h-2.11v-6.87h8.88v1.84h-6.77v3h.05a1.91,1.91,0,0,1,.4-.31,3.51,3.51,0,0,1,.55-.27A5.62,5.62,0,0,1,139.78,418.45Z" fill="#003a50"/><path d="M146.48,426.29a1,1,0,0,1-.32-.8,1,1,0,0,1,.32-.81,1.41,1.41,0,0,1,1.74,0,1.07,1.07,0,0,1,.32.81,1,1,0,0,1-.32.8,1.41,1.41,0,0,1-1.74,0Z" fill="#003a50"/><path d="M158.81,426.43H156.7v-2.65h-7v-1.85l6.29-7.41h2.79v7.41h1.6v1.85h-1.6Zm-2.11-4.5v-5.32h-.06l-4.48,5.27v.05Z" fill="#003a50"/><path d="M466.06,477.28l-2.48,2V477l2.73-2.27h1.86v11.91h-2.11Z" fill="#003a50"/><path d="M470.7,486.5a1,1,0,0,1-.33-.8,1,1,0,0,1,.33-.81,1.23,1.23,0,0,1,.87-.3,1.2,1.2,0,0,1,.86.3,1,1,0,0,1,.33.81,1,1,0,0,1-.33.8,1.2,1.2,0,0,1-.86.3A1.23,1.23,0,0,1,470.7,486.5Z" fill="#003a50"/><path d="M483.28,485.87a7.73,7.73,0,0,1-7.37,0,3,3,0,0,1-1.37-2.56,2.7,2.7,0,0,1,.26-1.16,2.29,2.29,0,0,1,.66-.85,3.91,3.91,0,0,1,1.39-.78l.26-.06v-.09a3,3,0,0,1-.76-.3,2.67,2.67,0,0,1-.67-.43,2.35,2.35,0,0,1-.54-.76,2.41,2.41,0,0,1-.22-1,2.8,2.8,0,0,1,1.25-2.38,7,7,0,0,1,6.85,0,2.81,2.81,0,0,1,1.25,2.38,2.43,2.43,0,0,1-.22,1,2,2,0,0,1-.55.75,3.72,3.72,0,0,1-1.2.68l-.22.05v.09l.28.06a5.42,5.42,0,0,1,.62.27,3.43,3.43,0,0,1,.77.51,2.7,2.7,0,0,1,.62.82,2.63,2.63,0,0,1,.27,1.19A3,3,0,0,1,483.28,485.87Zm-5.79-1.35a4.83,4.83,0,0,0,4.2,0,1.59,1.59,0,0,0,0-2.69,4.93,4.93,0,0,0-4.2,0,1.51,1.51,0,0,0-.74,1.35A1.52,1.52,0,0,0,477.49,484.52Zm-.36-6.52a1.36,1.36,0,0,0,.64,1.19,4,4,0,0,0,3.65,0,1.38,1.38,0,0,0,.64-1.19,1.36,1.36,0,0,0-.66-1.2,3.94,3.94,0,0,0-3.62,0A1.38,1.38,0,0,0,477.13,478Z" fill="#003a50"/><path d="M362.49,476.57h-5.82v-1.85h8.86v1.85L361,479.22v.06h1.28a3.87,3.87,0,0,1,2.79,1,3.52,3.52,0,0,1,1.05,2.66,3.35,3.35,0,0,1-1.32,2.83,7,7,0,0,1-7.25,0,3.38,3.38,0,0,1-1.32-2.86v-.32h2.1v.32c0,1.36.95,2,2.84,2s2.85-.66,2.85-2-.95-2-2.85-2h-3.26v-1.67l4.58-2.69Z" fill="#003a50"/><path d="M368.23,486.5a1,1,0,0,1-.33-.8,1,1,0,0,1,.33-.81,1.4,1.4,0,0,1,1.73,0,1,1,0,0,1,.33.81,1,1,0,0,1-.33.8,1.4,1.4,0,0,1-1.73,0Z" fill="#003a50"/><path d="M380.81,485.87a7.73,7.73,0,0,1-7.37,0,3,3,0,0,1-1.37-2.56,2.7,2.7,0,0,1,.26-1.16,2.37,2.37,0,0,1,.65-.85,4,4,0,0,1,1.4-.78l.26-.06v-.09a3.18,3.18,0,0,1-.77-.3,2.6,2.6,0,0,1-.66-.43,2.35,2.35,0,0,1-.54-.76,2.41,2.41,0,0,1-.22-1,2.78,2.78,0,0,1,1.25-2.38,7,7,0,0,1,6.85,0,2.81,2.81,0,0,1,1.25,2.38,2.58,2.58,0,0,1-.22,1,1.92,1.92,0,0,1-.56.75,3.59,3.59,0,0,1-1.19.68l-.23.05v.09a1.44,1.44,0,0,1,.29.06,6.35,6.35,0,0,1,.62.27,3.43,3.43,0,0,1,.77.51,2.7,2.7,0,0,1,.62.82,2.63,2.63,0,0,1,.27,1.19A3,3,0,0,1,380.81,485.87ZM375,484.52a4.83,4.83,0,0,0,4.2,0,1.59,1.59,0,0,0,0-2.69,4.93,4.93,0,0,0-4.2,0,1.51,1.51,0,0,0-.74,1.35A1.52,1.52,0,0,0,375,484.52Zm-.37-6.52a1.37,1.37,0,0,0,.65,1.19,4,4,0,0,0,3.64,0,1.42,1.42,0,0,0,0-2.39,3.94,3.94,0,0,0-3.62,0A1.36,1.36,0,0,0,374.65,478Z" fill="#003a50"/><path d="M371.29,327.24h-2.1v-2.65h-7v-1.85l6.29-7.41h2.79v7.41h1.6v1.85h-1.6Zm-2.1-4.5v-5.32h-.07l-4.48,5.27v.05Z" fill="#003a50"/><path d="M374.58,327.1a1,1,0,0,1-.33-.8,1,1,0,0,1,.33-.81,1.4,1.4,0,0,1,1.73,0,1,1,0,0,1,.32.81,1,1,0,0,1-.32.8,1.4,1.4,0,0,1-1.73,0Z" fill="#003a50"/><path d="M384.68,317.17h-5.82v-1.84h8.86v1.84l-4.52,2.65v.07h1.27a3.83,3.83,0,0,1,2.79,1,3.49,3.49,0,0,1,1.06,2.66,3.33,3.33,0,0,1-1.33,2.83,7,7,0,0,1-7.24,0,3.36,3.36,0,0,1-1.33-2.86v-.32h2.11v.32c0,1.36,1,2,2.84,2s2.84-.67,2.84-2-.95-2-2.84-2h-3.26v-1.67l4.57-2.68Z" fill="#003a50"/></g></svg>