<svg id="Слой_1" data-name="Слой 1" xmlns="http://www.w3.org/2000/svg" xmlns:xlink="http://www.w3.org/1999/xlink" viewBox="0 0 600.95 487.56"><defs><clipPath id="clip-path"><polygon points="0 0.28 0 380.41 18.27 380.41 18.27 487.56 599.81 487.56 599.81 0.28 0 0.28" fill="none"/></clipPath></defs><polygon points="79.16 478.42 79.7 487.56 549.15 487.56 549.15 478.42 79.16 478.42" fill="#fff"/><polygon points="10.39 50.32 10.39 368.44 71.77 372.27 85.25 388.52 85.25 435.78 85.22 474.18 548.49 474.18 548.49 354.59 548.49 283.67 548.49 50.32 10.39 50.32" fill="#fff"/><rect y="49.33" width="1.54" height="318.54" fill="#fff"/><g clip-path="url(#clip-path)"><rect x="-543.34" y="26.02" width="1115.44" height="2194.74" fill="none" stroke="#003a50" stroke-miterlimit="10"/><polygon points="-518.97 1111.76 -518.97 2197.8 547.72 2197.8 547.72 49.97 -518.97 49.82 -518.97 1042.95 -518.97 1111.76" fill="none" stroke="#003a50" stroke-miterlimit="10"/></g><rect x="29.18" y="36" width="87.83" height="4.55" fill="#fff"/><rect x="29.18" y="36" width="87.83" height="4.55" fill="none" stroke="#003a50" stroke-miterlimit="10"/><line x1="117.01" y1="38.28" x2="29.18" y2="38.28" fill="none" stroke="#003a50" stroke-miterlimit="10"/><rect x="112.58" y="36" width="4.43" height="4.55" fill="#fff"/><rect x="112.58" y="36" width="4.43" height="4.55" fill="none" stroke="#003a50" stroke-miterlimit="10"/><rect x="29.18" y="36" width="4.44" height="4.55" fill="#fff"/><rect x="29.18" y="36" width="4.44" height="4.55" fill="none" stroke="#003a50" stroke-miterlimit="10"/><rect x="70.88" y="36" width="4.43" height="4.55" fill="#fff"/><rect x="70.88" y="36" width="4.43" height="4.55" fill="none" stroke="#003a50" stroke-miterlimit="10"/><rect x="212.57" y="36" width="87.01" height="4.55" fill="#fff"/><rect x="212.57" y="36" width="87.01" height="4.55" fill="none" stroke="#003a50" stroke-miterlimit="10"/><line x1="299.58" y1="38.28" x2="212.58" y2="38.28" fill="none" stroke="#003a50" stroke-miterlimit="10"/><rect x="295.19" y="36" width="4.39" height="4.55" fill="#fff"/><rect x="295.19" y="36" width="4.39" height="4.55" fill="none" stroke="#003a50" stroke-miterlimit="10"/><rect x="212.58" y="36" width="4.39" height="4.55" fill="#fff"/><rect x="212.58" y="36" width="4.39" height="4.55" fill="none" stroke="#003a50" stroke-miterlimit="10"/><rect x="253.89" y="36" width="4.39" height="4.55" fill="#fff"/><rect x="253.89" y="36" width="4.39" height="4.55" fill="none" stroke="#003a50" stroke-miterlimit="10"/><rect x="558.88" y="49.47" width="4.56" height="139.64" fill="#fff"/><rect x="558.88" y="49.47" width="4.56" height="139.64" fill="none" stroke="#003a50" stroke-miterlimit="10"/><line x1="561.16" y1="49.47" x2="561.16" y2="189.12" fill="none" stroke="#003a50" stroke-miterlimit="10"/><rect x="558.88" y="83.27" width="4.56" height="4.46" fill="#fff"/><rect x="558.88" y="83.27" width="4.56" height="4.46" fill="none" stroke="#003a50" stroke-miterlimit="10"/><rect x="558.88" y="117.07" width="4.56" height="4.46" fill="#fff"/><rect x="558.88" y="117.07" width="4.56" height="4.46" fill="none" stroke="#003a50" stroke-miterlimit="10"/><rect x="558.88" y="49.47" width="4.56" height="4.46" fill="#fff"/><rect x="558.88" y="49.47" width="4.56" height="4.46" fill="none" stroke="#003a50" stroke-miterlimit="10"/><rect x="558.88" y="184.65" width="4.56" height="4.46" fill="#fff"/><rect x="558.88" y="184.65" width="4.56" height="4.46" fill="none" stroke="#003a50" stroke-miterlimit="10"/><rect x="558.88" y="150.86" width="4.56" height="4.46" fill="#fff"/><rect x="558.88" y="150.86" width="4.56" height="4.46" fill="none" stroke="#003a50" stroke-miterlimit="10"/><rect x="558.88" y="285.7" width="4.56" height="75.38" fill="#fff"/><rect x="558.88" y="285.7" width="4.56" height="75.38" fill="none" stroke="#003a50" stroke-miterlimit="10"/><line x1="561.16" y1="361.08" x2="561.16" y2="285.7" fill="none" stroke="#003a50" stroke-miterlimit="10"/><rect x="558.88" y="357.28" width="4.56" height="3.8" fill="#fff"/><rect x="558.88" y="357.28" width="4.56" height="3.8" fill="none" stroke="#003a50" stroke-miterlimit="10"/><rect x="558.88" y="285.71" width="4.56" height="3.8" fill="#fff"/><rect x="558.88" y="285.7" width="4.56" height="3.8" fill="none" stroke="#003a50" stroke-miterlimit="10"/><rect x="558.88" y="321.48" width="4.56" height="3.81" fill="#fff"/><rect x="558.88" y="321.49" width="4.56" height="3.81" fill="none" stroke="#003a50" stroke-miterlimit="10"/><rect x="558.88" y="387.95" width="4.56" height="77.57" fill="#fff"/><rect x="558.88" y="387.95" width="4.56" height="77.57" fill="none" stroke="#003a50" stroke-miterlimit="10"/><line x1="561.16" y1="465.52" x2="561.16" y2="387.95" fill="none" stroke="#003a50" stroke-miterlimit="10"/><rect x="558.88" y="461.61" width="4.56" height="3.91" fill="#fff"/><rect x="558.88" y="461.61" width="4.56" height="3.92" fill="none" stroke="#003a50" stroke-miterlimit="10"/><rect x="558.88" y="387.96" width="4.56" height="3.92" fill="#fff"/><rect x="558.88" y="387.96" width="4.56" height="3.92" fill="none" stroke="#003a50" stroke-miterlimit="10"/><rect x="558.88" y="424.78" width="4.56" height="3.91" fill="#fff"/><rect x="558.88" y="424.78" width="4.56" height="3.92" fill="none" stroke="#003a50" stroke-miterlimit="10"/><rect x="396.05" y="36" width="88.55" height="4.56" fill="#fff"/><rect x="396.05" y="36" width="88.55" height="4.56" fill="none" stroke="#003a50" stroke-miterlimit="10"/><line x1="396.05" y1="38.28" x2="484.6" y2="38.28" fill="none" stroke="#003a50" stroke-miterlimit="10"/><rect x="396.05" y="36" width="4.47" height="4.56" fill="#fff"/><rect x="396.05" y="36" width="4.47" height="4.56" fill="none" stroke="#003a50" stroke-miterlimit="10"/><rect x="480.13" y="36" width="4.47" height="4.56" fill="#fff"/><rect x="480.13" y="36" width="4.47" height="4.56" fill="none" stroke="#003a50" stroke-miterlimit="10"/><rect x="438.09" y="36" width="4.47" height="4.56" fill="#fff"/><rect x="438.09" y="36" width="4.47" height="4.56" fill="none" stroke="#003a50" stroke-miterlimit="10"/><rect x="344.29" y="64.81" width="16.75" height="102.05" fill="none" stroke="#003a50" stroke-miterlimit="10"/><polygon points="352.13 72.83 355.61 115.73 352.13 158.83 349.71 158.83 349.71 72.83 352.13 72.83" fill="none" stroke="#003a50" stroke-miterlimit="10"/><rect x="428.09" y="195.27" width="113.67" height="52.33" fill="none" stroke="#003a50" stroke-miterlimit="10"/><g clip-path="url(#clip-path)"><path d="M437.79,204.21v34a2.1,2.1,0,0,0,2.1,2.11h67.63V202.11H439.89A2.1,2.1,0,0,0,437.79,204.21Z" fill="none" stroke="#003a50" stroke-miterlimit="10"/></g><rect x="493.66" y="202.11" width="13.85" height="38.26" fill="none" stroke="#003a50" stroke-miterlimit="10"/><g clip-path="url(#clip-path)"><path d="M534,203.91v34.31a2.21,2.21,0,0,1-2.21,2.2H513.33a2.21,2.21,0,0,1-2.2-2.2V203.91a2.21,2.21,0,0,1,2.2-2.2H531.8A2.21,2.21,0,0,1,534,203.91Z" fill="none" stroke="#003a50" stroke-miterlimit="10"/></g><rect x="235" y="448.55" width="103.02" height="25.39" fill="none" stroke="#003a50" stroke-miterlimit="10"/><g clip-path="url(#clip-path)"><rect x="252.86" y="450.61" width="24.4" height="25.04" rx="2.83" fill="none" stroke="#003a50" stroke-miterlimit="10"/><path d="M265.06,461.22a1.91,1.91,0,1,0,1.91,1.91A1.91,1.91,0,0,0,265.06,461.22Z" fill="none" stroke="#003a50" stroke-miterlimit="10"/><rect x="295.59" y="450.61" width="24.4" height="25.04" rx="2.83" fill="none" stroke="#003a50" stroke-miterlimit="10"/><path d="M307.79,461.22a1.91,1.91,0,1,0,1.91,1.91A1.91,1.91,0,0,0,307.79,461.22Z" fill="none" stroke="#003a50" stroke-miterlimit="10"/></g><rect x="193.99" y="378.65" width="40.48" height="94.87" fill="none" stroke="#003a50" stroke-miterlimit="10"/><g clip-path="url(#clip-path)"><rect x="199.13" y="382.52" width="30.6" height="87.38" rx="13.7" fill="none" stroke="#003a50" stroke-miterlimit="10"/><circle cx="216.09" cy="454.46" r="2.28" fill="none" stroke="#003a50" stroke-miterlimit="10"/><rect x="192.52" y="487.23" width="43.96" height="79.58" fill="none" stroke="#003a50" stroke-miterlimit="10"/><rect x="120.38" y="487.45" width="72.14" height="27.38" fill="none" stroke="#003a50" stroke-miterlimit="10"/><path d="M107.34,92.66A1.26,1.26,0,0,1,106.13,94a13.78,13.78,0,1,0,1.07,27.54,1.26,1.26,0,0,1,.1,2.52A16.3,16.3,0,0,1,106,91.45,1.26,1.26,0,0,1,107.34,92.66Z" fill="none" stroke="#003a50" stroke-miterlimit="10"/><path d="M114.28,130.21a1.26,1.26,0,0,1,.87,1.56,13.78,13.78,0,0,0,26.53,7.49,1.26,1.26,0,0,1,1.56-.87,1.25,1.25,0,0,1,.86,1.56,16.3,16.3,0,0,1-31.37-8.87A1.27,1.27,0,0,1,114.28,130.21Z" fill="none" stroke="#003a50" stroke-miterlimit="10"/><path d="M152.06,134.58a1.25,1.25,0,0,1,1.74-.35,13.79,13.79,0,1,0,15.33-22.92,1.25,1.25,0,0,1-.35-1.74,1.27,1.27,0,0,1,1.75-.35,16.3,16.3,0,0,1-18.12,27.1A1.25,1.25,0,0,1,152.06,134.58Z" fill="none" stroke="#003a50" stroke-miterlimit="10"/><path d="M169.24,100a1.26,1.26,0,0,1,.21-1.77,13.79,13.79,0,1,0-17.06-21.66,1.26,1.26,0,1,1-1.56-2A16.3,16.3,0,1,1,171,100.21,1.26,1.26,0,0,1,169.24,100Z" fill="none" stroke="#003a50" stroke-miterlimit="10"/><path d="M140.41,76a1.26,1.26,0,0,1-.85-1.56,13.79,13.79,0,0,0-26.46-7.75,1.25,1.25,0,1,1-2.41-.7A16.3,16.3,0,1,1,142,75.1,1.25,1.25,0,0,1,140.41,76Z" fill="none" stroke="#003a50" stroke-miterlimit="10"/><path d="M117.17,120l-9.36.36a12.65,12.65,0,1,1-1-25.28l9-.32A23.7,23.7,0,0,0,117.17,120Z" fill="none" stroke="#003a50" stroke-miterlimit="10"/><path d="M143.33,129.22l-2.56,9.08a12.65,12.65,0,0,1-24.36-6.84l2.6-9.2a23.6,23.6,0,0,0,24.32,7Z" fill="none" stroke="#003a50" stroke-miterlimit="10"/><path d="M171.41,129.42a12.67,12.67,0,0,1-17.52,3.52l-7.28-4.88a23.88,23.88,0,0,0,13.12-15.24,24.8,24.8,0,0,0,.84-5.84l7.36,4.92A12.63,12.63,0,0,1,171.41,129.42Z" fill="none" stroke="#003a50" stroke-miterlimit="10"/><path d="M168.21,97.78l-7.72,6.08a23.88,23.88,0,0,0-15.56-20l7.64-6a12.65,12.65,0,1,1,15.64,19.88Z" fill="none" stroke="#003a50" stroke-miterlimit="10"/><path d="M138.29,74.7,136,82.46a23.58,23.58,0,0,0-9.08,2.12L111.65,80.1a1.21,1.21,0,0,1-.84-1.52l3.08-10.64a12.87,12.87,0,0,1,13.2-9.4A12.67,12.67,0,0,1,138.29,74.7Z" fill="none" stroke="#003a50" stroke-miterlimit="10"/><path d="M160.57,107a24.8,24.8,0,0,1-.84,5.84,23.88,23.88,0,0,1-13.12,15.24,24.6,24.6,0,0,1-3.28,1.16,23.6,23.6,0,0,1-24.32-7,25.46,25.46,0,0,1-1.84-2.28,23.7,23.7,0,0,1-1.28-25.24,24,24,0,0,1,11-10.16,23.84,23.84,0,0,1,16.32-1.24c.56.16,1.12.36,1.68.56a23.88,23.88,0,0,1,15.56,20A27.09,27.09,0,0,1,160.57,107Z" fill="none" stroke="#003a50" stroke-miterlimit="10"/></g><rect x="16.31" y="51.48" width="34.02" height="196" fill="none" stroke="#003a50" stroke-miterlimit="10"/><rect x="344.85" y="376.92" width="31.72" height="96.54" fill="none" stroke="#003a50" stroke-miterlimit="10"/><g clip-path="url(#clip-path)"><path d="M349.34,457.49a.92.92,0,0,1-.84-.53.94.94,0,0,1,.43-1.25,26.85,26.85,0,0,1,23.55,0,.94.94,0,1,1-.83,1.68,25,25,0,0,0-21.9,0A.86.86,0,0,1,349.34,457.49Z" fill="none" stroke="#003a50" stroke-miterlimit="10"/><path d="M349.34,452.3a.92.92,0,0,1-.84-.53.94.94,0,0,1,.43-1.25,26.85,26.85,0,0,1,23.55,0,.94.94,0,1,1-.83,1.68,25,25,0,0,0-21.9,0A.86.86,0,0,1,349.34,452.3Z" fill="none" stroke="#003a50" stroke-miterlimit="10"/><path d="M349.34,447.11a.93.93,0,0,1-.84-.52,1,1,0,0,1,.43-1.26,26.85,26.85,0,0,1,23.55,0,1,1,0,0,1,.43,1.26.94.94,0,0,1-1.26.42,25,25,0,0,0-21.9,0A.86.86,0,0,1,349.34,447.11Z" fill="none" stroke="#003a50" stroke-miterlimit="10"/><path d="M349.34,441.92a.93.93,0,0,1-.84-.52,1,1,0,0,1,.43-1.26,26.85,26.85,0,0,1,23.55,0,1,1,0,0,1,.43,1.26.94.94,0,0,1-1.26.42,25,25,0,0,0-21.9,0A.86.86,0,0,1,349.34,441.92Z" fill="none" stroke="#003a50" stroke-miterlimit="10"/><path d="M349.34,436.73a.93.93,0,0,1-.41-1.77,26.85,26.85,0,0,1,23.55,0,.94.94,0,0,1,.43,1.25,1,1,0,0,1-1.26.43,24.87,24.87,0,0,0-21.9,0A1,1,0,0,1,349.34,436.73Z" fill="none" stroke="#003a50" stroke-miterlimit="10"/><path d="M349.34,431.54a.93.93,0,0,1-.41-1.77,26.85,26.85,0,0,1,23.55,0,.94.94,0,0,1,.43,1.25,1,1,0,0,1-1.26.43,24.87,24.87,0,0,0-21.9,0A1,1,0,0,1,349.34,431.54Z" fill="none" stroke="#003a50" stroke-miterlimit="10"/><path d="M349.34,462.68a.94.94,0,0,1-.41-1.78,26.85,26.85,0,0,1,23.55,0,.94.94,0,1,1-.83,1.68,25,25,0,0,0-21.9,0A.86.86,0,0,1,349.34,462.68Z" fill="none" stroke="#003a50" stroke-miterlimit="10"/><path d="M349.34,467.87a.94.94,0,0,1-.41-1.78,26.85,26.85,0,0,1,23.55,0,.94.94,0,1,1-.83,1.68,25,25,0,0,0-21.9,0A.86.86,0,0,1,349.34,467.87Z" fill="none" stroke="#003a50" stroke-miterlimit="10"/></g><line x1="360.7" y1="473.45" x2="360.7" y2="378.64" fill="none" stroke="#003a50" stroke-miterlimit="10"/><g clip-path="url(#clip-path)"><rect x="243" y="487.62" width="34.02" height="51.2" fill="none" stroke="#003a50" stroke-miterlimit="10"/><path d="M154.25,509.25v-23a3.35,3.35,0,0,1,3.36-3.36h22.24a3.35,3.35,0,0,1,3.36,3.36v23a3.35,3.35,0,0,1-3.36,3.36H157.61A3.35,3.35,0,0,1,154.25,509.25Z" fill="none" stroke="#003a50" stroke-miterlimit="10"/></g><rect x="16.31" y="164.91" width="34.02" height="34.02" fill="none" stroke="#003a50" stroke-miterlimit="10"/><line x1="33.32" y1="183.93" x2="33.32" y2="194.49" fill="none" stroke="#003a50" stroke-miterlimit="10"/><g clip-path="url(#clip-path)"><path d="M34.23,183.93H32.41A3.39,3.39,0,0,1,29,180.54v-11.2h8.6v11.2A3.39,3.39,0,0,1,34.23,183.93Z" fill="none" stroke="#003a50" stroke-miterlimit="10"/></g><line x1="29.84" y1="194.49" x2="36.79" y2="194.49" fill="none" stroke="#003a50" stroke-miterlimit="10"/><rect x="16.31" y="92" width="34.02" height="34.02" fill="none" stroke="#003a50" stroke-miterlimit="10"/><g clip-path="url(#clip-path)"><path d="M45.73,116.6a4.69,4.69,0,1,1-4.7-4.7A4.69,4.69,0,0,1,45.73,116.6Z" fill="none" stroke="#003a50" stroke-miterlimit="10"/><path d="M30.29,116.6a4.69,4.69,0,1,1-4.69-4.7A4.69,4.69,0,0,1,30.29,116.6Z" fill="none" stroke="#003a50" stroke-miterlimit="10"/><path d="M45.73,101.43a4.69,4.69,0,1,1-4.7-4.7A4.69,4.69,0,0,1,45.73,101.43Z" fill="none" stroke="#003a50" stroke-miterlimit="10"/><path d="M30.29,101.43a4.69,4.69,0,1,1-4.69-4.7A4.69,4.69,0,0,1,30.29,101.43Z" fill="none" stroke="#003a50" stroke-miterlimit="10"/></g><rect x="41.57" y="329.57" width="34.02" height="34.02" fill="none" stroke="#003a50" stroke-miterlimit="10"/><g clip-path="url(#clip-path)"><path d="M64,338.27H61.85a3.08,3.08,0,0,1-5.72,0H53.34l-5.28,3,2.53,4L53,344v10.85H64.33V344l2.38,1.26,2.53-4Z" fill="none" stroke="#003a50" stroke-miterlimit="10"/></g><rect x="16.31" y="51.24" width="34.02" height="33.41" fill="none" stroke="#003a50" stroke-miterlimit="10"/><line x1="33.32" y1="77.75" x2="33.32" y2="58.14" fill="none" stroke="#003a50" stroke-miterlimit="10"/><line x1="43.3" y1="67.95" x2="23.34" y2="67.95" fill="none" stroke="#003a50" stroke-miterlimit="10"/><line x1="40.38" y1="74.88" x2="26.26" y2="61.01" fill="none" stroke="#003a50" stroke-miterlimit="10"/><line x1="40.38" y1="61.01" x2="26.26" y2="74.88" fill="none" stroke="#003a50" stroke-miterlimit="10"/><g clip-path="url(#clip-path)"><rect x="25.2" y="208.38" width="21.66" height="30.06" rx="3.36" fill="none" stroke="#003a50" stroke-miterlimit="10"/><circle cx="32.24" cy="223.41" r="2.46" transform="translate(-192.41 245.49) rotate(-87.4)" fill="none" stroke="#003a50" stroke-miterlimit="10"/></g><line x1="33" y1="223.41" x2="19.38" y2="223.41" fill="none" stroke="#003a50" stroke-miterlimit="10"/><line x1="19.38" y1="216.6" x2="19.38" y2="230.22" fill="none" stroke="#003a50" stroke-miterlimit="10"/><rect x="367.91" y="50.96" width="34.02" height="113.38" fill="none" stroke="#003a50" stroke-miterlimit="10"/><g clip-path="url(#clip-path)"><path d="M372.73,146.54a1,1,0,0,1-.45-1.91,28.77,28.77,0,0,1,25.26,0A1,1,0,0,1,398,146a1,1,0,0,1-1.34.46,26.81,26.81,0,0,0-23.49,0A.87.87,0,0,1,372.73,146.54Z" fill="none" stroke="#003a50" stroke-miterlimit="10"/><path d="M372.73,141a1,1,0,0,1-.45-1.9,28.77,28.77,0,0,1,25.26,0,1,1,0,0,1-.88,1.8,26.72,26.72,0,0,0-23.49,0A1,1,0,0,1,372.73,141Z" fill="none" stroke="#003a50" stroke-miterlimit="10"/><path d="M372.73,135.41a1,1,0,0,1-.45-1.91,28.77,28.77,0,0,1,25.26,0,1,1,0,0,1,.46,1.34,1,1,0,0,1-1.34.46,26.81,26.81,0,0,0-23.49,0A.87.87,0,0,1,372.73,135.41Z" fill="none" stroke="#003a50" stroke-miterlimit="10"/><path d="M372.73,129.84a1,1,0,0,1-.45-1.9,28.77,28.77,0,0,1,25.26,0,1,1,0,0,1-.88,1.8,26.72,26.72,0,0,0-23.49,0A1,1,0,0,1,372.73,129.84Z" fill="none" stroke="#003a50" stroke-miterlimit="10"/><path d="M372.73,124.28a1,1,0,0,1-.45-1.91,28.77,28.77,0,0,1,25.26,0,1,1,0,0,1,.46,1.34,1,1,0,0,1-1.34.46,26.81,26.81,0,0,0-23.49,0A1,1,0,0,1,372.73,124.28Z" fill="none" stroke="#003a50" stroke-miterlimit="10"/><path d="M372.73,118.71a1,1,0,0,1-.45-1.9,28.77,28.77,0,0,1,25.26,0,1,1,0,1,1-.88,1.8,26.72,26.72,0,0,0-23.49,0A1,1,0,0,1,372.73,118.71Z" fill="none" stroke="#003a50" stroke-miterlimit="10"/><path d="M372.73,152.1a1,1,0,0,1-.45-1.9,28.77,28.77,0,0,1,25.26,0,1,1,0,0,1-.88,1.8,26.72,26.72,0,0,0-23.49,0A1,1,0,0,1,372.73,152.1Z" fill="none" stroke="#003a50" stroke-miterlimit="10"/><path d="M372.73,157.67a1,1,0,0,1-.45-1.91,28.77,28.77,0,0,1,25.26,0,1,1,0,0,1,.46,1.34,1,1,0,0,1-1.34.46,26.81,26.81,0,0,0-23.49,0A.87.87,0,0,1,372.73,157.67Z" fill="none" stroke="#003a50" stroke-miterlimit="10"/></g><line x1="384.91" y1="163.66" x2="384.91" y2="50.96" fill="none" stroke="#003a50" stroke-miterlimit="10"/><rect x="518.79" y="450.77" width="22.68" height="22.68" fill="none" stroke="#003a50" stroke-miterlimit="10"/><g clip-path="url(#clip-path)"><circle cx="530.13" cy="462.1" r="9.2" fill="none" stroke="#003a50" stroke-miterlimit="10"/><path d="M537.26,467.91c-1.7-.17-3.41.48-5.06-1.17-2.44-2.44.14-5-2.3-7.45s-5,.13-7.46-2.3" fill="none" stroke="#003a50" stroke-miterlimit="10"/></g><rect x="384.7" y="450.77" width="22.68" height="22.68" fill="none" stroke="#003a50" stroke-miterlimit="10"/><g clip-path="url(#clip-path)"><circle cx="396.04" cy="462.1" r="9.2" fill="none" stroke="#003a50" stroke-miterlimit="10"/><path d="M403.16,467.91c-1.69-.17-3.41.48-5.06-1.17-2.44-2.44.14-5-2.3-7.45s-5,.13-7.46-2.3" fill="none" stroke="#003a50" stroke-miterlimit="10"/><rect x="385.85" y="487.73" width="22.68" height="22.68" fill="none" stroke="#003a50" stroke-miterlimit="10"/><rect x="519.94" y="487.73" width="22.68" height="22.68" fill="none" stroke="#003a50" stroke-miterlimit="10"/><path d="M272,150.65v39h40.81v-39a1.91,1.91,0,0,0-1.92-1.91h-37A1.9,1.9,0,0,0,272,150.65Z" fill="none" stroke="#003a50" stroke-miterlimit="10"/><path d="M270.06,108.07h-43.4v40.78h43.4a1.92,1.92,0,0,0,1.92-1.92V110A1.92,1.92,0,0,0,270.06,108.07Z" fill="none" stroke="#003a50" stroke-miterlimit="10"/><path d="M270.06,67.28h-43.4v40.78h43.4a1.91,1.91,0,0,0,1.92-1.91V69.2A1.92,1.92,0,0,0,270.06,67.28Z" fill="none" stroke="#003a50" stroke-miterlimit="10"/><path d="M312.05,189.64a3,3,0,0,1,3,3v3.76a3,3,0,0,1-3,3H221.47V57.59h50.06a3,3,0,0,1,3,3v3.76a3,3,0,0,1-3,3H226.66V189.64Z" fill="none" stroke="#003a50" stroke-miterlimit="10"/></g><rect x="226.66" y="67.28" width="9.7" height="122.36" fill="none" stroke="#003a50" stroke-miterlimit="10"/><g clip-path="url(#clip-path)"><path d="M269.84,148.85H226.66v40.78H272V151A2.14,2.14,0,0,0,269.84,148.85Z" fill="none" stroke="#003a50" stroke-miterlimit="10"/><path d="M477,83.93a14.78,14.78,0,0,0,23.39,15.93A1.14,1.14,0,1,0,499,98.09a12.47,12.47,0,0,1-19.5-14.16Z" fill="none" stroke="#003a50" stroke-miterlimit="10"/><rect x="447.26" y="49.91" width="84.03" height="34.02" rx="3.31" fill="none" stroke="#003a50" stroke-miterlimit="10"/><path d="M449.81,53.63A1.4,1.4,0,0,0,451.2,55h76.15a1.4,1.4,0,0,0,0-2.8H451.2a1.4,1.4,0,0,0-1.39,1.4" fill="none" stroke="#003a50" stroke-miterlimit="10"/><path d="M517.62,68.21a5.5,5.5,0,1,1,7.78,0A5.49,5.49,0,0,1,517.62,68.21Z" fill="none" stroke="#003a50" stroke-miterlimit="10"/><path d="M518,68.58c.1-1-.29-2,.7-3,1.46-1.46,3,.08,4.47-1.38s-.09-3,1.38-4.47" fill="none" stroke="#003a50" stroke-miterlimit="10"/><path d="M481.74,83.93a10.64,10.64,0,1,0,19.6,0Z" fill="none" stroke="#003a50" stroke-miterlimit="10"/></g><rect x="412.17" y="360.05" width="102.05" height="113.39" fill="none" stroke="#003a50" stroke-miterlimit="10"/><g clip-path="url(#clip-path)"><path d="M422.17,369.79h82.05a2.09,2.09,0,0,1,2.09,2.09v67.64H420.09V371.88A2.08,2.08,0,0,1,422.17,369.79Z" fill="none" stroke="#003a50" stroke-miterlimit="10"/><rect x="464.06" y="443.13" width="42.5" height="22.88" rx="1.98" fill="none" stroke="#003a50" stroke-miterlimit="10"/><rect x="419.84" y="443.13" width="42.5" height="22.88" rx="1.98" fill="none" stroke="#003a50" stroke-miterlimit="10"/></g><line x1="419.84" y1="425.66" x2="506.56" y2="425.66" fill="none" stroke="#003a50" stroke-miterlimit="10"/><g clip-path="url(#clip-path)"><rect x="413.32" y="487.73" width="102.05" height="113.38" fill="none" stroke="#003a50" stroke-miterlimit="10"/></g><rect x="85.19" y="439.53" width="70.69" height="34.02" fill="none" stroke="#003a50" stroke-miterlimit="10"/><g clip-path="url(#clip-path)"><path d="M110.51,444.36a1,1,0,0,1,1.9-.45,28.77,28.77,0,0,1,0,25.26,1,1,0,1,1-1.8-.88,26.72,26.72,0,0,0,0-23.49A1,1,0,0,1,110.51,444.36Z" fill="none" stroke="#003a50" stroke-miterlimit="10"/><path d="M116.07,444.36a1,1,0,0,1,1.91-.45,28.77,28.77,0,0,1,0,25.26,1,1,0,0,1-1.34.46,1,1,0,0,1-.46-1.34,26.81,26.81,0,0,0,0-23.49A1,1,0,0,1,116.07,444.36Z" fill="none" stroke="#003a50" stroke-miterlimit="10"/><path d="M121.64,444.36a1,1,0,0,1,1.9-.45,28.77,28.77,0,0,1,0,25.26,1,1,0,1,1-1.8-.88,26.72,26.72,0,0,0,0-23.49A1,1,0,0,1,121.64,444.36Z" fill="none" stroke="#003a50" stroke-miterlimit="10"/><path d="M127.2,444.36a1,1,0,0,1,1.91-.45,28.77,28.77,0,0,1,0,25.26,1,1,0,0,1-1.34.46,1,1,0,0,1-.46-1.34,26.81,26.81,0,0,0,0-23.49A1,1,0,0,1,127.2,444.36Z" fill="none" stroke="#003a50" stroke-miterlimit="10"/><path d="M132.77,444.36a1,1,0,0,1,1.9-.45,28.77,28.77,0,0,1,0,25.26,1,1,0,0,1-1.8-.88,26.72,26.72,0,0,0,0-23.49A1,1,0,0,1,132.77,444.36Z" fill="none" stroke="#003a50" stroke-miterlimit="10"/><path d="M138.34,444.36a1,1,0,0,1,1.9-.45,28.77,28.77,0,0,1,0,25.26,1,1,0,0,1-1.8-.88,26.72,26.72,0,0,0,0-23.49A1,1,0,0,1,138.34,444.36Z" fill="none" stroke="#003a50" stroke-miterlimit="10"/><path d="M104.94,444.36a1,1,0,0,1,1.91-.45,28.77,28.77,0,0,1,0,25.26,1,1,0,0,1-1.34.46,1,1,0,0,1-.46-1.34,26.81,26.81,0,0,0,0-23.49A1,1,0,0,1,104.94,444.36Z" fill="none" stroke="#003a50" stroke-miterlimit="10"/><path d="M99.38,444.36a1,1,0,0,1,1.9-.45,28.77,28.77,0,0,1,0,25.26,1,1,0,1,1-1.8-.88,26.72,26.72,0,0,0,0-23.49A1,1,0,0,1,99.38,444.36Z" fill="none" stroke="#003a50" stroke-miterlimit="10"/></g><line x1="85.53" y1="456.54" x2="155.88" y2="456.54" fill="none" stroke="#003a50" stroke-miterlimit="10"/><polygon points="83.34 324.21 85.45 324.21 85.45 312.3 83.59 312.3 80.85 314.57 80.85 316.81 83.34 314.86 83.34 324.21" fill="none" stroke="#003a50" stroke-miterlimit="10"/><g clip-path="url(#clip-path)"><path d="M88.84,324.38a1.24,1.24,0,0,0,.87-.3,1.17,1.17,0,0,0,0-1.61,1.41,1.41,0,0,0-1.74,0,1.17,1.17,0,0,0,0,1.61A1.24,1.24,0,0,0,88.84,324.38Z" fill="none" stroke="#003a50" stroke-miterlimit="10"/><path d="M95.27,316.53a3.47,3.47,0,0,0-.55.26,2.22,2.22,0,0,0-.4.31h0v-3H101V312.3H92.16v6.88h2.11l0-.13a1.92,1.92,0,0,1,.7-.64,3.54,3.54,0,0,1,1.91-.41,3.28,3.28,0,0,1,2.08.58A2.37,2.37,0,0,1,99,322a3.17,3.17,0,0,1-2,.57,3.53,3.53,0,0,1-2-.49,1.51,1.51,0,0,1-.7-1.33H92.16a3.18,3.18,0,0,0,1.29,2.69,5.84,5.84,0,0,0,3.56,1,5.35,5.35,0,0,0,3.54-1.09,4.17,4.17,0,0,0,0-6,5.08,5.08,0,0,0-3.34-1.06A5.6,5.6,0,0,0,95.27,316.53Z" fill="none" stroke="#003a50" stroke-miterlimit="10"/></g><rect x="41.57" y="253.73" width="34.02" height="75.73" fill="none" stroke="#003a50" stroke-miterlimit="10"/><g clip-path="url(#clip-path)"><path d="M46.4,299.1a1,1,0,0,1-.45-1.9,28.77,28.77,0,0,1,25.26,0,1,1,0,0,1-.88,1.8,26.72,26.72,0,0,0-23.49,0A1,1,0,0,1,46.4,299.1Z" fill="none" stroke="#003a50" stroke-miterlimit="10"/><path d="M46.4,293.54a1,1,0,0,1-.9-.56,1,1,0,0,1,.45-1.35,28.77,28.77,0,0,1,25.26,0,1,1,0,0,1,.46,1.34,1,1,0,0,1-1.34.46,26.81,26.81,0,0,0-23.49,0A1,1,0,0,1,46.4,293.54Z" fill="none" stroke="#003a50" stroke-miterlimit="10"/><path d="M46.4,288a1,1,0,0,1-.45-1.9,28.77,28.77,0,0,1,25.26,0,1,1,0,0,1-.88,1.8,26.72,26.72,0,0,0-23.49,0A1,1,0,0,1,46.4,288Z" fill="none" stroke="#003a50" stroke-miterlimit="10"/><path d="M46.4,282.41a1,1,0,0,1-.9-.56A1,1,0,0,1,46,280.5a28.77,28.77,0,0,1,25.26,0,1,1,0,0,1,.46,1.34,1,1,0,0,1-1.34.46,26.81,26.81,0,0,0-23.49,0A1,1,0,0,1,46.4,282.41Z" fill="none" stroke="#003a50" stroke-miterlimit="10"/><path d="M46.4,276.84a1,1,0,0,1-.45-1.9,28.77,28.77,0,0,1,25.26,0,1,1,0,1,1-.88,1.8,26.72,26.72,0,0,0-23.49,0A1,1,0,0,1,46.4,276.84Z" fill="none" stroke="#003a50" stroke-miterlimit="10"/><path d="M46.4,271.27a1,1,0,0,1-.9-.56,1,1,0,0,1,.45-1.34,28.77,28.77,0,0,1,25.26,0,1,1,0,1,1-.88,1.8,26.72,26.72,0,0,0-23.49,0A1,1,0,0,1,46.4,271.27Z" fill="none" stroke="#003a50" stroke-miterlimit="10"/><path d="M46.4,304.67a1,1,0,0,1-.9-.56,1,1,0,0,1,.45-1.35,28.77,28.77,0,0,1,25.26,0,1,1,0,0,1,.46,1.34,1,1,0,0,1-1.34.46,26.81,26.81,0,0,0-23.49,0A1,1,0,0,1,46.4,304.67Z" fill="none" stroke="#003a50" stroke-miterlimit="10"/><path d="M46.4,310.23a1,1,0,0,1-.45-1.9,28.77,28.77,0,0,1,25.26,0,1,1,0,0,1-.88,1.8,26.72,26.72,0,0,0-23.49,0A1,1,0,0,1,46.4,310.23Z" fill="none" stroke="#003a50" stroke-miterlimit="10"/></g><line x1="58.58" y1="329.56" x2="58.58" y2="253.74" fill="none" stroke="#003a50" stroke-miterlimit="10"/><rect x="412.17" y="253.77" width="102.05" height="16.75" fill="none" stroke="#003a50" stroke-miterlimit="10"/><polygon points="420.2 262.68 463.09 259.2 506.2 262.68 506.2 265.1 420.2 265.1 420.2 262.68" fill="none" stroke="#003a50" stroke-miterlimit="10"/><g clip-path="url(#clip-path)"><path d="M273.46,407.3V378.74H250.38V407.3a11.54,11.54,0,1,0,23.08,0Z" fill="none" stroke="#003a50" stroke-miterlimit="10"/></g><rect x="250.38" y="378.73" width="23.08" height="11.08" fill="none" stroke="#003a50" stroke-miterlimit="10"/><g clip-path="url(#clip-path)"><path d="M204,283V254.18H181.21V283A11.4,11.4,0,1,0,204,283Z" fill="none" stroke="#003a50" stroke-miterlimit="10"/></g><line x1="181.21" y1="265.4" x2="204" y2="265.4" fill="none" stroke="#003a50" stroke-miterlimit="10"/><rect x="162.25" y="328.89" width="90.98" height="43.38" fill="none" stroke="#003a50" stroke-miterlimit="10"/><g clip-path="url(#clip-path)"><path d="M182.9,334.27h49.69a16.26,16.26,0,0,1,16.26,16.25v.12a16.26,16.26,0,0,1-16.26,16.26H182.9a16.25,16.25,0,0,1-16.26-16.26v-.12A16.25,16.25,0,0,1,182.9,334.27Z" fill="none" stroke="#003a50" stroke-miterlimit="10"/><path d="M184.85,350.58a2.35,2.35,0,1,1-2.35-2.35A2.35,2.35,0,0,1,184.85,350.58Z" fill="none" stroke="#003a50" stroke-miterlimit="10"/></g><rect x="225.63" y="280.68" width="27.58" height="48.22" fill="none" stroke="#003a50" stroke-miterlimit="10"/><g clip-path="url(#clip-path)"><rect x="228.06" y="295.2" width="29.71" height="28.96" rx="3.36" fill="none" stroke="#003a50" stroke-miterlimit="10"/><circle cx="242.91" cy="309.68" r="2.27" transform="translate(-114.29 474.94) rotate(-76.72)" fill="none" stroke="#003a50" stroke-miterlimit="10"/></g><rect x="155.87" y="378.56" width="31.48" height="95.25" fill="none" stroke="#003a50" stroke-miterlimit="10"/><g clip-path="url(#clip-path)"><path d="M159.43,456.51a1,1,0,0,1-.45-1.91,28.77,28.77,0,0,1,25.26,0,1,1,0,0,1,.46,1.34,1,1,0,0,1-1.34.46,26.81,26.81,0,0,0-23.49,0A.87.87,0,0,1,159.43,456.51Z" fill="none" stroke="#003a50" stroke-miterlimit="10"/><path d="M159.43,450.94a1,1,0,0,1-.9-.56A1,1,0,0,1,159,449a28.77,28.77,0,0,1,25.26,0,1,1,0,1,1-.88,1.8,26.72,26.72,0,0,0-23.49,0A1,1,0,0,1,159.43,450.94Z" fill="none" stroke="#003a50" stroke-miterlimit="10"/><path d="M159.43,445.38a1,1,0,0,1-.45-1.91,28.77,28.77,0,0,1,25.26,0,1,1,0,0,1,.46,1.34,1,1,0,0,1-1.34.46,26.81,26.81,0,0,0-23.49,0A.87.87,0,0,1,159.43,445.38Z" fill="none" stroke="#003a50" stroke-miterlimit="10"/><path d="M159.43,439.81a1,1,0,0,1-.45-1.9,28.77,28.77,0,0,1,25.26,0,1,1,0,0,1-.88,1.8,26.72,26.72,0,0,0-23.49,0A1,1,0,0,1,159.43,439.81Z" fill="none" stroke="#003a50" stroke-miterlimit="10"/><path d="M159.43,434.25a1,1,0,0,1-.45-1.91,28.77,28.77,0,0,1,25.26,0,1,1,0,0,1,.46,1.34,1,1,0,0,1-1.34.46,26.81,26.81,0,0,0-23.49,0A.87.87,0,0,1,159.43,434.25Z" fill="none" stroke="#003a50" stroke-miterlimit="10"/><path d="M159.43,428.68a1,1,0,0,1-.45-1.9,28.77,28.77,0,0,1,25.26,0,1,1,0,0,1-.88,1.8,26.72,26.72,0,0,0-23.49,0A1,1,0,0,1,159.43,428.68Z" fill="none" stroke="#003a50" stroke-miterlimit="10"/><path d="M159.43,462.07a1,1,0,0,1-.45-1.9,28.77,28.77,0,0,1,25.26,0,1,1,0,1,1-.88,1.8,26.72,26.72,0,0,0-23.49,0A1,1,0,0,1,159.43,462.07Z" fill="none" stroke="#003a50" stroke-miterlimit="10"/><path d="M159.43,467.64a1,1,0,0,1-.45-1.9,28.77,28.77,0,0,1,25.26,0,1,1,0,1,1-.88,1.8,26.72,26.72,0,0,0-23.49,0A1,1,0,0,1,159.43,467.64Z" fill="none" stroke="#003a50" stroke-miterlimit="10"/></g><line x1="171.61" y1="473.63" x2="171.61" y2="378.73" fill="none" stroke="#003a50" stroke-miterlimit="10"/><g clip-path="url(#clip-path)"><path d="M159.5,285.5h-3.07a38.71,38.71,0,0,0-38.72,38.71H159.5" fill="none" stroke="#003a50" stroke-miterlimit="10" stroke-width="1.6"/><path d="M358.57,250.26v3.6a45.3,45.3,0,0,1-45.3,45.31V250.26" fill="none" stroke="#003a50" stroke-miterlimit="10" stroke-width="1.6"/><path d="M293.47,378v-3.07a38.71,38.71,0,0,1,38.71-38.72V378" fill="none" stroke="#003a50" stroke-miterlimit="10" stroke-width="1.6"/><path d="M364,194.11h3.43a43.18,43.18,0,0,1,43.18,43.18H364" fill="none" stroke="#003a50" stroke-miterlimit="10" stroke-width="1.6"/><path d="M-43.79,431.26h3.88A48.89,48.89,0,0,0,9,382.37H-43.79" fill="none" stroke="#003a50" stroke-miterlimit="10" stroke-width="1.6"/><path d="M72.42,436.72H68.53a48.88,48.88,0,0,1-48.89-48.88H72.42" fill="none" stroke="#003a50" stroke-miterlimit="10" stroke-width="1.6"/><polygon points="-66.39 50.68 29.35 50.68 29.35 1.35 -66.39 13.01 -66.39 50.68" fill="#003a50" fill-rule="evenodd"/><rect x="186.09" y="2.85" width="26.7" height="47.83" fill="#003a50"/><rect x="117.12" y="16.68" width="91.66" height="34" fill="#003a50"/><rect x="-55.1" y="29.52" width="77.33" height="27.33" fill="#003a50"/><polygon points="299.85 50.68 395.59 50.68 395.59 1.35 299.85 13.01 299.85 50.68" fill="#003a50" fill-rule="evenodd"/><rect x="311.14" y="29.52" width="77.33" height="27.33" fill="#003a50"/><rect x="74.76" y="473.83" width="488" height="13.79" fill="#003a50"/><rect x="-56.74" y="363.2" width="142" height="16.69" fill="#003a50"/><rect x="68.94" y="371.73" width="16.32" height="16.79" fill="#003a50"/><rect x="68.94" y="435.78" width="16.32" height="145.23" fill="#003a50"/><rect x="-0.28" y="52.48" width="16.32" height="314.78" fill="#003a50"/><rect x="268.48" y="247.52" width="16.32" height="83.12" fill="#003a50"/><polygon points="547.72 561.38 547.72 465.64 597.05 465.64 585.39 561.38 547.72 561.38" fill="#003a50" fill-rule="evenodd"/><polygon points="547.72 285.23 547.72 189.49 597.05 189.49 585.39 285.23 547.72 285.23" fill="#003a50" fill-rule="evenodd"/><rect x="547.72" y="361.58" width="48.33" height="25.9" fill="#003a50"/><rect x="541.76" y="209.26" width="11.25" height="75.96" fill="#003a50"/><rect x="541.76" y="467.6" width="11.25" height="77.3" fill="#003a50"/><rect x="547.38" y="15.64" width="35.34" height="33.74" fill="#003a50"/><rect x="484.42" y="3.08" width="94.3" height="46.32" fill="#003a50"/><rect x="570.15" y="3.08" width="25.9" height="31.76" fill="#003a50"/><rect x="14.51" y="247.52" width="70.74" height="6.38" fill="#003a50"/><rect x="14.51" y="279.12" width="25.64" height="6.38" fill="#003a50"/><rect x="358.15" y="247.52" width="190.58" height="6.38" fill="#003a50"/><rect x="361.26" y="52.08" width="6.38" height="142.86" fill="#003a50"/><rect x="361.25" y="236.53" width="6.38" height="15.18" fill="#003a50"/><rect x="78.88" y="250.92" width="6.38" height="41.17" fill="#003a50"/><rect x="35.04" y="250.92" width="6.38" height="118.66" fill="#003a50"/><rect x="-24.1" y="327" width="25.64" height="6.38" fill="#003a50"/><rect x="78.88" y="345.58" width="6.38" height="25.17" fill="#003a50"/><rect x="236.62" y="478.33" width="6.38" height="94.52" fill="#003a50"/><rect x="114" y="478.33" width="6.38" height="92.32" fill="#003a50"/><line x1="377.23" y1="251.67" x2="377.23" y2="254.5" fill="none" stroke="#003a50" stroke-miterlimit="10"/><line x1="377.23" y1="260.1" x2="377.23" y2="369.33" fill="none" stroke="#003a50" stroke-miterlimit="10" stroke-dasharray="5.6 5.6"/><line x1="377.23" y1="372.13" x2="377.23" y2="374.96" fill="none" stroke="#003a50" stroke-miterlimit="10"/><line x1="84.01" y1="249.28" x2="86.84" y2="249.28" fill="none" stroke="#003a50" stroke-miterlimit="10"/><line x1="92.71" y1="249.28" x2="183.67" y2="249.28" fill="none" stroke="#003a50" stroke-miterlimit="10" stroke-dasharray="5.87 5.87"/><line x1="186.61" y1="249.28" x2="189.44" y2="249.28" fill="none" stroke="#003a50" stroke-miterlimit="10"/><rect x="-123.92" y="244.3" width="125.47" height="6.38" fill="#003a50"/><rect x="155.88" y="247.51" width="6.38" height="38.82" fill="#003a50"/><rect x="155.88" y="323.38" width="6.38" height="52.71" fill="#003a50"/><rect x="155.88" y="372.27" width="138.43" height="6.38" fill="#003a50"/><rect x="331.35" y="372.27" width="46.16" height="6.38" fill="#003a50"/><rect x="338.35" y="374.08" width="6.38" height="102.25" fill="#003a50"/><rect x="187.69" y="373.58" width="6.38" height="102.75" fill="#003a50"/><rect x="268.49" y="306.8" width="6.38" height="69.54" fill="#003a50"/><rect x="244.15" y="251.56" width="6.38" height="29.12" fill="#003a50"/><rect x="253.24" y="276" width="6.38" height="100.33" fill="#003a50"/><rect x="155.88" y="247.52" width="158.22" height="6.38" fill="#003a50"/><rect x="244.15" y="274.3" width="31.09" height="6.38" fill="#003a50"/></g><g clip-path="url(#clip-path)"><path d="M474.43,310.76l-2.49,1.95v-2.24l2.73-2.27h1.87v11.91h-2.11Z" fill="#003a50"/><path d="M485.25,310h-5.82V308.2h8.86V310l-4.52,2.65v.07h1.28a3.9,3.9,0,0,1,2.79,1,3.52,3.52,0,0,1,1.05,2.67,3.32,3.32,0,0,1-1.33,2.82,7,7,0,0,1-7.24,0A3.39,3.39,0,0,1,479,316.4v-.32h2.11v.32c0,1.37.95,2,2.84,2s2.84-.67,2.84-2-.94-2-2.84-2h-3.26v-1.67l4.57-2.68Z" fill="#003a50"/><path d="M491,320a1,1,0,0,1-.32-.81,1.07,1.07,0,0,1,.32-.81,1.3,1.3,0,0,1,.88-.29,1.28,1.28,0,0,1,.86.29,1.07,1.07,0,0,1,.32.81,1,1,0,0,1-.32.81,1.23,1.23,0,0,1-.86.29A1.25,1.25,0,0,1,491,320Z" fill="#003a50"/><path d="M503.33,320.11h-2.11v-2.65h-7v-1.84l6.3-7.42h2.79v7.42h1.59v1.84h-1.59Zm-2.11-4.49v-5.33h-.07l-4.48,5.28v.05Z" fill="#003a50"/><path d="M328.72,310H322.9V308.2h8.86V310l-4.53,2.65v.07h1.28a3.9,3.9,0,0,1,2.79,1,3.5,3.5,0,0,1,1.06,2.67,3.35,3.35,0,0,1-1.33,2.82,7,7,0,0,1-7.24,0,3.36,3.36,0,0,1-1.33-2.86v-.32h2.11v.32c0,1.37.94,2,2.84,2s2.84-.67,2.84-2-.95-2-2.84-2h-3.27v-1.67l4.58-2.68Z" fill="#003a50"/><path d="M334.46,320a1,1,0,0,1-.33-.81,1,1,0,0,1,.33-.81,1.44,1.44,0,0,1,1.73,0,1,1,0,0,1,.33.81,1,1,0,0,1-.33.81,1.44,1.44,0,0,1-1.73,0Z" fill="#003a50"/><path d="M347,319.35a6.43,6.43,0,0,1-3.68.92,6.51,6.51,0,0,1-3.69-.93,3,3,0,0,1-1.37-2.56,2.66,2.66,0,0,1,.26-1.16,2.32,2.32,0,0,1,.66-.86,4,4,0,0,1,1.39-.77l.26-.07v-.09a3.32,3.32,0,0,1-.76-.29,2.51,2.51,0,0,1-.67-.44,2.15,2.15,0,0,1-.54-.76,2.38,2.38,0,0,1-.22-1,2.81,2.81,0,0,1,1.25-2.38,7,7,0,0,1,6.85,0,2.83,2.83,0,0,1,1.25,2.38,2.5,2.5,0,0,1-.22,1.05,2,2,0,0,1-.55.74,3.72,3.72,0,0,1-1.2.68l-.22.05v.09l.28.07a4.76,4.76,0,0,1,.62.26,4.28,4.28,0,0,1,.77.51,2.83,2.83,0,0,1,.62.82,2.71,2.71,0,0,1,.27,1.2A3,3,0,0,1,347,319.35ZM341.25,318a3.84,3.84,0,0,0,2.1.48,3.94,3.94,0,0,0,2.1-.47,1.6,1.6,0,0,0,0-2.7,5,5,0,0,0-4.2,0,1.53,1.53,0,0,0-.74,1.35A1.5,1.5,0,0,0,341.25,318Zm-.36-6.52a1.35,1.35,0,0,0,.64,1.19,4,4,0,0,0,3.65,0,1.42,1.42,0,0,0,0-2.39,4,4,0,0,0-3.62,0A1.38,1.38,0,0,0,340.89,311.47Z" fill="#003a50"/><path d="M295.94,419.81h-2.11v-2.65h-7v-1.84l6.29-7.42h2.79v7.42h1.6v1.84h-1.6Zm-2.11-4.49V410h-.06l-4.48,5.28v.05Z" fill="#003a50"/><path d="M299.22,419.68a1,1,0,0,1-.32-.81,1.07,1.07,0,0,1,.32-.81,1.45,1.45,0,0,1,1.74,0,1.07,1.07,0,0,1,.32.81,1,1,0,0,1-.32.81,1.41,1.41,0,0,1-1.74,0Z" fill="#003a50"/><path d="M312.84,411.26h-2.21s0-.07,0-.18a2.53,2.53,0,0,0-.22-.44,2.69,2.69,0,0,0-.39-.5,1.9,1.9,0,0,0-.71-.41,2.91,2.91,0,0,0-1-.16,2.52,2.52,0,0,0-2.16,1,4.45,4.45,0,0,0-.76,2.68h.06a1.63,1.63,0,0,1,.44-.43,4.87,4.87,0,0,1,.6-.37,5,5,0,0,1,1-.3,6.06,6.06,0,0,1,1.21-.13,5,5,0,0,1,3.37,1.12,3.49,3.49,0,0,1,1.31,2.79,3.59,3.59,0,0,1-1.36,2.91,5.54,5.54,0,0,1-3.61,1.11,4.81,4.81,0,0,1-3.87-1.55,6.36,6.36,0,0,1-1.32-4.27v-.4a6.88,6.88,0,0,1,1.32-4.32,4.52,4.52,0,0,1,3.81-1.71,5.64,5.64,0,0,1,2.12.38,3.72,3.72,0,0,1,1.44.94A3.43,3.43,0,0,1,312.84,411.26Zm-2.51,3.14a3.65,3.65,0,0,0-3.95,0,2,2,0,0,0,0,3.15,3.63,3.63,0,0,0,4,0,2,2,0,0,0,0-3.15Z" fill="#003a50"/><path d="M110.78,224.22h-9.94v-1.56a2.85,2.85,0,0,1,.58-1.75,4,4,0,0,1,1.45-1.19c.5-.26,1.12-.55,1.87-.87s1.32-.55,1.88-.77a4.22,4.22,0,0,0,1.44-.91,1.82,1.82,0,0,0,.57-1.31c0-1.25-.89-1.88-2.66-1.88s-2.68.72-2.68,2.16v.4h-2.11v-.4a3.6,3.6,0,0,1,1.27-3,5.4,5.4,0,0,1,3.51-1,5.72,5.72,0,0,1,3.51,1,3.29,3.29,0,0,1,1.27,2.75,3.17,3.17,0,0,1-.55,1.84,4.28,4.28,0,0,1-1.41,1.3,17.49,17.49,0,0,1-1.83.93q-.95.42-1.83.75a5.26,5.26,0,0,0-1.4.75,1.22,1.22,0,0,0-.57.95h7.63Z" fill="#003a50"/><path d="M122.74,224.22h-9.93v-1.56a2.79,2.79,0,0,1,.58-1.75,3.91,3.91,0,0,1,1.45-1.19c.49-.26,1.12-.55,1.87-.87s1.32-.55,1.87-.77a4.36,4.36,0,0,0,1.45-.91,1.82,1.82,0,0,0,.57-1.31c0-1.25-.89-1.88-2.67-1.88s-2.67.72-2.67,2.16v.4h-2.11v-.4a3.62,3.62,0,0,1,1.26-3,5.45,5.45,0,0,1,3.52-1,5.72,5.72,0,0,1,3.51,1,3.29,3.29,0,0,1,1.27,2.75,3.17,3.17,0,0,1-.56,1.84,4.16,4.16,0,0,1-1.4,1.3,16.7,16.7,0,0,1-1.84.93c-.62.28-1.23.53-1.82.75a5.18,5.18,0,0,0-1.41.75,1.23,1.23,0,0,0-.56.95h7.62Z" fill="#003a50"/><path d="M124.84,224.08a1,1,0,0,1-.32-.8,1.07,1.07,0,0,1,.32-.81,1.25,1.25,0,0,1,.88-.3,1.22,1.22,0,0,1,.86.3,1,1,0,0,1,.32.81,1,1,0,0,1-.32.8,1.22,1.22,0,0,1-.86.3A1.25,1.25,0,0,1,124.84,224.08Z" fill="#003a50"/><path d="M134.13,216.24a5,5,0,0,1,3.34,1.06,4.18,4.18,0,0,1,0,6,5.41,5.41,0,0,1-3.55,1.08,5.75,5.75,0,0,1-3.56-1,3.15,3.15,0,0,1-1.29-2.68h2.11a1.53,1.53,0,0,0,.7,1.33,3.53,3.53,0,0,0,2,.49,3.15,3.15,0,0,0,2-.57,2.06,2.06,0,0,0,.7-1.69,2,2,0,0,0-.73-1.7,3.26,3.26,0,0,0-2.08-.58,3.54,3.54,0,0,0-1.91.41,1.84,1.84,0,0,0-.7.64l-.05.12H129v-6.87h8.88v1.84h-6.77v3h.05a1.91,1.91,0,0,1,.4-.31,3.47,3.47,0,0,1,.55-.26A5.6,5.6,0,0,1,134.13,216.24Z" fill="#003a50"/><path d="M116.4,397h-2.21s0-.07,0-.18a1.85,1.85,0,0,0-.21-.44,2.69,2.69,0,0,0-.39-.5,1.9,1.9,0,0,0-.71-.41,3,3,0,0,0-1-.16,2.51,2.51,0,0,0-2.15,1,4.41,4.41,0,0,0-.76,2.68H109a1.63,1.63,0,0,1,.44-.43,4.76,4.76,0,0,1,.6-.36,4.41,4.41,0,0,1,1-.31,6.16,6.16,0,0,1,1.22-.13,5,5,0,0,1,3.37,1.12,3.51,3.51,0,0,1,1.31,2.8,3.57,3.57,0,0,1-1.37,2.9,5.49,5.49,0,0,1-3.6,1.11,4.81,4.81,0,0,1-3.87-1.55,6.36,6.36,0,0,1-1.32-4.27v-.4a6.83,6.83,0,0,1,1.32-4.31,4.52,4.52,0,0,1,3.8-1.71,5.66,5.66,0,0,1,2.13.37,3.84,3.84,0,0,1,1.44.94A3.43,3.43,0,0,1,116.4,397Zm-2.51,3.14a3.65,3.65,0,0,0-4,0,2,2,0,0,0,0,3.15,3.63,3.63,0,0,0,4,0,1.85,1.85,0,0,0,.77-1.57A1.88,1.88,0,0,0,113.89,400.18Z" fill="#003a50"/><path d="M119.05,405.46a1.17,1.17,0,0,1,0-1.61,1.41,1.41,0,0,1,1.74,0,1.17,1.17,0,0,1,0,1.61,1.41,1.41,0,0,1-1.74,0Z" fill="#003a50"/><path d="M131.38,405.59h-2.11v-2.65h-7V401.1l6.29-7.42h2.79v7.42H133v1.84h-1.6Zm-2.11-4.49v-5.33h-.06l-4.48,5.28v.05Z" fill="#003a50"/><path d="M477.16,142.72l-2.48,1.95v-2.24l2.73-2.27h1.86v11.91h-2.11Z" fill="#003a50"/><path d="M483.79,142.72l-2.48,1.95v-2.24l2.73-2.27h1.86v11.91h-2.11Z" fill="#003a50"/><path d="M488.42,151.94a1.17,1.17,0,0,1,0-1.61,1.25,1.25,0,0,1,.88-.3,1.22,1.22,0,0,1,.86.3,1.17,1.17,0,0,1,0,1.61,1.22,1.22,0,0,1-.86.3A1.25,1.25,0,0,1,488.42,151.94Z" fill="#003a50"/><path d="M501,151.31a7.73,7.73,0,0,1-7.37,0,3,3,0,0,1-1.37-2.56,2.66,2.66,0,0,1,.26-1.16,2.41,2.41,0,0,1,.65-.86,4.14,4.14,0,0,1,1.4-.77l.26-.07v-.09a3.38,3.38,0,0,1-.77-.29,2.61,2.61,0,0,1-.66-.44,2.15,2.15,0,0,1-.54-.76,2.39,2.39,0,0,1-.23-1,2.8,2.8,0,0,1,1.26-2.38,5.74,5.74,0,0,1,3.42-.9,5.81,5.81,0,0,1,3.43.9,2.83,2.83,0,0,1,1.25,2.38,2.63,2.63,0,0,1-.22,1,2,2,0,0,1-.56.74,3.59,3.59,0,0,1-1.19.68l-.23,0v.09l.28.07a5.31,5.31,0,0,1,.63.26,4.67,4.67,0,0,1,.77.51,2.65,2.65,0,0,1,.61.82,2.58,2.58,0,0,1,.28,1.2A3,3,0,0,1,501,151.31ZM495.22,150a4.88,4.88,0,0,0,4.2,0,1.52,1.52,0,0,0,.74-1.35,1.5,1.5,0,0,0-.74-1.34,4.93,4.93,0,0,0-4.2,0,1.58,1.58,0,0,0,0,2.68Zm-.37-6.52a1.36,1.36,0,0,0,.65,1.19,4,4,0,0,0,3.64,0,1.42,1.42,0,0,0,0-2.39,4,4,0,0,0-3.62,0A1.36,1.36,0,0,0,494.85,143.43Z" fill="#003a50"/><path d="M184.47,303.26h-5.82v-1.85h8.86v1.85L183,305.91V306h1.28a3.87,3.87,0,0,1,2.79,1,3.5,3.5,0,0,1,1.05,2.66,3.34,3.34,0,0,1-1.33,2.83,7,7,0,0,1-7.24,0,3.4,3.4,0,0,1-1.33-2.86v-.32h2.11v.32c0,1.36,1,2,2.84,2s2.84-.66,2.84-2-.94-2-2.84-2H179.9V306l4.57-2.69Z" fill="#003a50"/><path d="M190.21,313.19a1,1,0,0,1-.32-.81,1.06,1.06,0,0,1,.32-.8,1.41,1.41,0,0,1,1.74,0,1.06,1.06,0,0,1,.32.8,1,1,0,0,1-.32.81,1.41,1.41,0,0,1-1.74,0Z" fill="#003a50"/><path d="M203.83,304.77h-2.21s0-.06,0-.18a2.94,2.94,0,0,0-.22-.44,2.63,2.63,0,0,0-.39-.49,1.78,1.78,0,0,0-.71-.42,3.18,3.18,0,0,0-1-.16,2.54,2.54,0,0,0-2.16,1,4.44,4.44,0,0,0-.76,2.69h.06a1.64,1.64,0,0,1,.44-.44,4.76,4.76,0,0,1,.6-.36,4.33,4.33,0,0,1,1-.31,6.06,6.06,0,0,1,1.21-.12,5,5,0,0,1,3.37,1.11,3.52,3.52,0,0,1,1.31,2.8,3.59,3.59,0,0,1-1.36,2.9,5.54,5.54,0,0,1-3.61,1.11,4.81,4.81,0,0,1-3.87-1.55,6.35,6.35,0,0,1-1.32-4.26v-.41a6.85,6.85,0,0,1,1.32-4.31,4.52,4.52,0,0,1,3.81-1.71,5.64,5.64,0,0,1,2.12.37,3.84,3.84,0,0,1,1.44.94A3.45,3.45,0,0,1,203.83,304.77Zm-2.51,3.15a3.65,3.65,0,0,0-3.95,0,2,2,0,0,0,0,3.14,3.63,3.63,0,0,0,4,0,2,2,0,0,0,0-3.14Z" fill="#003a50"/></g></svg>