<svg id="Слой_1" data-name="Слой 1" xmlns="http://www.w3.org/2000/svg" xmlns:xlink="http://www.w3.org/1999/xlink" viewBox="0 0 581.1 212.6"><defs><clipPath id="clip-path"><polygon points="0 0.65 0 176.77 82.38 176.77 82.38 212.1 580.82 212.1 580.82 0.65 0 0.65" fill="none"/></clipPath></defs><polygon points="56.08 174.5 56.08 176.77 82.38 176.77 82.38 212.1 531.06 212.1 531.06 210.67 83.35 210.67 83.35 174.5 56.08 174.5" fill="#fff"/><polygon points="61.06 5.08 67.16 107.67 67.16 171.5 88.69 173.24 91.28 198.57 531.06 198.57 531.06 5.08 61.06 5.08" fill="#fff"/><rect x="67.13" y="0.65" width="463.27" height="0.19" fill="#fff"/><g clip-path="url(#clip-path)"><rect x="-561.43" y="-447.32" width="1115.44" height="2194.74" fill="none" stroke="#003a50" stroke-miterlimit="10"/><polygon points="-537.07 638.42 -537.07 1724.46 529.63 1724.46 529.63 -423.36 -537.07 -423.51 -537.07 569.62 -537.07 638.42" fill="none" stroke="#003a50" stroke-miterlimit="10"/></g><rect x="540.78" y="88.26" width="4.56" height="85.76" fill="#fff"/><rect x="540.78" y="88.26" width="4.56" height="85.76" fill="none" stroke="#003a50" stroke-miterlimit="10"/><line x1="543.06" y1="174.02" x2="543.06" y2="88.26" fill="none" stroke="#003a50" stroke-miterlimit="10"/><rect x="540.78" y="169.69" width="4.56" height="4.33" fill="#fff"/><rect x="540.78" y="169.69" width="4.56" height="4.33" fill="none" stroke="#003a50" stroke-miterlimit="10"/><rect x="540.78" y="88.26" width="4.56" height="4.33" fill="#fff"/><rect x="540.78" y="88.26" width="4.56" height="4.33" fill="none" stroke="#003a50" stroke-miterlimit="10"/><rect x="540.78" y="128.97" width="4.56" height="4.33" fill="#fff"/><rect x="540.78" y="128.97" width="4.56" height="4.33" fill="none" stroke="#003a50" stroke-miterlimit="10"/><rect x="399.61" y="178.73" width="102.05" height="16.75" fill="none" stroke="#003a50" stroke-miterlimit="10"/><polygon points="493.63 186.57 450.74 190.05 407.63 186.57 407.63 184.15 493.63 184.15 493.63 186.57" fill="none" stroke="#003a50" stroke-miterlimit="10"/><g clip-path="url(#clip-path)"><path d="M274.56,75.2a1.25,1.25,0,0,1,.94,1.51,13.79,13.79,0,0,0,26.88,6.16,1.26,1.26,0,0,1,2.45.57,16.3,16.3,0,0,1-31.78-7.29A1.27,1.27,0,0,1,274.56,75.2Z" fill="none" stroke="#003a50" stroke-miterlimit="10"/><path d="M329.73,84.92a1.26,1.26,0,0,1,1.75-.33A13.78,13.78,0,1,0,347,61.81a1.27,1.27,0,0,1-.33-1.75,1.25,1.25,0,0,1,1.75-.33,16.3,16.3,0,0,1-18.36,26.94A1.26,1.26,0,0,1,329.73,84.92Z" fill="none" stroke="#003a50" stroke-miterlimit="10"/><path d="M332.23,37.52a1.27,1.27,0,0,1-1.33-1.18A13.78,13.78,0,0,0,303.38,38a1.26,1.26,0,1,1-2.51.16,16.3,16.3,0,0,1,32.54-1.94A1.25,1.25,0,0,1,332.23,37.52Z" fill="none" stroke="#003a50" stroke-miterlimit="10"/><path d="M288.76,91.82a12.69,12.69,0,0,1-12-15.48l2-8.88A3.53,3.53,0,0,1,283,64.78l13.44,3.08a23.73,23.73,0,0,0,6,9.44l-1,4.2C300.16,87.46,294.88,92,288.76,91.82Z" fill="none" stroke="#003a50" stroke-miterlimit="10"/><path d="M331.56,83.3l-2.32-1.6a23.81,23.81,0,0,0,13.64-21.32l2.52,1.72c5,3.44,7.4,10,5,15.64A12.7,12.7,0,0,1,331.56,83.3Z" fill="none" stroke="#003a50" stroke-miterlimit="10"/><path d="M304.72,41l-.12-2c-.36-6.12,3.4-12,9.32-13.48A12.66,12.66,0,0,1,329.8,37.06l.12,1.84A23.93,23.93,0,0,0,313.28,37,23.5,23.5,0,0,0,304.72,41Z" fill="none" stroke="#003a50" stroke-miterlimit="10"/><path d="M302.48,77.3a23.73,23.73,0,0,1-6-9.44,16.51,16.51,0,0,1-.6-2A23.85,23.85,0,0,1,304.72,41a23.5,23.5,0,0,1,8.56-4,23.87,23.87,0,0,1,28.92,17.4,22.12,22.12,0,0,1,.68,6A23.81,23.81,0,0,1,329.24,81.7a22.85,22.85,0,0,1-4.48,1.6A23.8,23.8,0,0,1,302.48,77.3Z" fill="none" stroke="#003a50" stroke-miterlimit="10"/><rect x="216.91" y="-24.78" width="103.02" height="25.39" fill="none" stroke="#003a50" stroke-miterlimit="10"/><rect x="234.76" y="-22.72" width="24.4" height="25.04" rx="2.83" fill="none" stroke="#003a50" stroke-miterlimit="10"/><rect x="277.49" y="-22.72" width="24.4" height="25.04" rx="2.83" fill="none" stroke="#003a50" stroke-miterlimit="10"/><rect x="175.9" y="-94.69" width="40.48" height="94.87" fill="none" stroke="#003a50" stroke-miterlimit="10"/></g><rect x="174.43" y="13.9" width="43.96" height="79.58" fill="none" stroke="#003a50" stroke-miterlimit="10"/><g clip-path="url(#clip-path)"><path d="M196.2,89.49h0A19.52,19.52,0,0,1,176.68,70V37.35a19.52,19.52,0,0,1,39,0V70A19.52,19.52,0,0,1,196.2,89.49Z" fill="none" stroke="#003a50" stroke-miterlimit="10"/><circle cx="196.2" cy="37.91" r="2.28" fill="none" stroke="#003a50" stroke-miterlimit="10"/></g><rect x="102.28" y="14.12" width="72.14" height="27.38" fill="none" stroke="#003a50" stroke-miterlimit="10"/><rect x="261.2" y="161.51" width="93.55" height="34.02" fill="none" stroke="#003a50" stroke-miterlimit="10"/><g clip-path="url(#clip-path)"><rect x="326.75" y="-96.42" width="31.72" height="96.54" fill="none" stroke="#003a50" stroke-miterlimit="10"/><line x1="342.61" y1="0.11" x2="342.61" y2="-94.69" fill="none" stroke="#003a50" stroke-miterlimit="10"/></g><rect x="224.91" y="14.28" width="34.02" height="51.2" fill="none" stroke="#003a50" stroke-miterlimit="10"/><rect x="152.8" y="161.73" width="40.34" height="34.69" fill="none" stroke="#003a50" stroke-miterlimit="10"/><g clip-path="url(#clip-path)"><path d="M179.27,169.76h-2.51a3.64,3.64,0,0,1-6.78,0h-3.31l-6.26,3.6,3,4.72,2.83-1.5v12.88h13.48V176.58l2.82,1.5,3-4.72Z" fill="none" stroke="#003a50" stroke-miterlimit="10"/><path d="M131.41,79.41H102.56V56.61h28.85a11.4,11.4,0,1,1,0,22.8Z" fill="none" stroke="#003a50" stroke-miterlimit="10"/></g><line x1="113.79" y1="56.61" x2="113.79" y2="79.41" fill="none" stroke="#003a50" stroke-miterlimit="10"/><g clip-path="url(#clip-path)"><path d="M136.16,35.92v-23a3.36,3.36,0,0,1,3.35-3.36h22.25a3.37,3.37,0,0,1,3.36,3.36v23a3.37,3.37,0,0,1-3.36,3.36H139.51A3.36,3.36,0,0,1,136.16,35.92Z" fill="none" stroke="#003a50" stroke-miterlimit="10"/><circle cx="150.64" cy="24.42" r="2.27" fill="none" stroke="#003a50" stroke-miterlimit="10"/></g><rect x="224.9" y="65.48" width="34.02" height="34.02" fill="none" stroke="#003a50" stroke-miterlimit="10"/><line x1="241.91" y1="92.47" x2="241.91" y2="72.51" fill="none" stroke="#003a50" stroke-miterlimit="10"/><line x1="251.89" y1="82.49" x2="231.93" y2="82.49" fill="none" stroke="#003a50" stroke-miterlimit="10"/><line x1="248.97" y1="89.55" x2="234.86" y2="75.44" fill="none" stroke="#003a50" stroke-miterlimit="10"/><line x1="248.97" y1="75.43" x2="234.86" y2="89.55" fill="none" stroke="#003a50" stroke-miterlimit="10"/><g clip-path="url(#clip-path)"><rect x="500.7" y="-22.57" width="22.68" height="22.68" fill="none" stroke="#003a50" stroke-miterlimit="10"/><rect x="366.6" y="-22.57" width="22.68" height="22.68" fill="none" stroke="#003a50" stroke-miterlimit="10"/></g><rect x="367.75" y="14.4" width="22.68" height="22.68" fill="none" stroke="#003a50" stroke-miterlimit="10"/><g clip-path="url(#clip-path)"><path d="M385.59,32.24a9.19,9.19,0,1,1,0-13A9.19,9.19,0,0,1,385.59,32.24Z" fill="none" stroke="#003a50" stroke-miterlimit="10"/><path d="M386.22,31.55c-1.7-.17-3.41.48-5.07-1.17-2.44-2.44.15-5-2.3-7.45s-5,.13-7.45-2.31" fill="none" stroke="#003a50" stroke-miterlimit="10"/></g><rect x="501.85" y="14.4" width="22.68" height="22.68" fill="none" stroke="#003a50" stroke-miterlimit="10"/><g clip-path="url(#clip-path)"><path d="M519.69,32.24a9.19,9.19,0,1,1,0-13A9.19,9.19,0,0,1,519.69,32.24Z" fill="none" stroke="#003a50" stroke-miterlimit="10"/><path d="M520.32,31.55c-1.7-.17-3.42.48-5.07-1.17-2.44-2.44.15-5-2.3-7.45s-5,.13-7.45-2.31" fill="none" stroke="#003a50" stroke-miterlimit="10"/><path d="M426.26,260.59a3.11,3.11,0,0,1-3.33,2.83h-4.22a3.11,3.11,0,0,1-3.33-2.83V212.4H528.77v47.77a3.11,3.11,0,0,1-3.32,2.83h-4.23a3.11,3.11,0,0,1-3.32-2.83V217.35H426.26Z" fill="none" stroke="#003a50" stroke-miterlimit="10"/><rect x="394.08" y="-113.28" width="102.05" height="113.39" fill="none" stroke="#003a50" stroke-miterlimit="10"/></g><rect x="395.23" y="14.4" width="102.05" height="113.38" fill="none" stroke="#003a50" stroke-miterlimit="10"/><g clip-path="url(#clip-path)"><path d="M487.28,118.05h-82a2.09,2.09,0,0,1-2.09-2.08V48.33h86.22V116A2.08,2.08,0,0,1,487.28,118.05Z" fill="none" stroke="#003a50" stroke-miterlimit="10"/><rect x="402.89" y="21.83" width="42.5" height="22.88" rx="1.98" fill="none" stroke="#003a50" stroke-miterlimit="10"/><rect x="447.12" y="21.83" width="42.5" height="22.88" rx="1.98" fill="none" stroke="#003a50" stroke-miterlimit="10"/></g><line x1="489.62" y1="62.18" x2="402.89" y2="62.18" fill="none" stroke="#003a50" stroke-miterlimit="10"/><g clip-path="url(#clip-path)"><rect x="67.09" y="-33.8" width="70.69" height="34.02" fill="none" stroke="#003a50" stroke-miterlimit="10"/><rect x="137.78" y="-94.78" width="31.48" height="95.25" fill="none" stroke="#003a50" stroke-miterlimit="10"/><line x1="153.52" y1="0.29" x2="153.52" y2="-94.6" fill="none" stroke="#003a50" stroke-miterlimit="10"/></g><rect x="227.17" y="161.51" width="34.02" height="34.02" fill="none" stroke="#003a50" stroke-miterlimit="10"/><line x1="243.44" y1="180.53" x2="243.44" y2="191.09" fill="none" stroke="#003a50" stroke-miterlimit="10"/><g clip-path="url(#clip-path)"><path d="M244.35,180.53h-1.82a3.39,3.39,0,0,1-3.39-3.39v-11.2h8.6v11.2A3.39,3.39,0,0,1,244.35,180.53Z" fill="none" stroke="#003a50" stroke-miterlimit="10"/></g><line x1="239.97" y1="191.09" x2="246.91" y2="191.09" fill="none" stroke="#003a50" stroke-miterlimit="10"/><g clip-path="url(#clip-path)"><rect x="254.73" y="211.75" width="36.34" height="30.5" fill="none" stroke="#003a50" stroke-miterlimit="10"/><rect x="96.08" y="212.37" width="122.19" height="29.57" fill="none" stroke="#003a50" stroke-miterlimit="10"/><rect x="224.47" y="212" width="30.26" height="30.26" fill="none" stroke="#003a50" stroke-miterlimit="10"/></g><rect x="320.73" y="161.51" width="34.02" height="34.02" fill="none" stroke="#003a50" stroke-miterlimit="10"/><g clip-path="url(#clip-path)"><path d="M350.15,186.1a4.69,4.69,0,1,1-4.69-4.69A4.69,4.69,0,0,1,350.15,186.1Z" fill="none" stroke="#003a50" stroke-miterlimit="10"/><path d="M334.71,186.1a4.69,4.69,0,1,1-4.69-4.69A4.69,4.69,0,0,1,334.71,186.1Z" fill="none" stroke="#003a50" stroke-miterlimit="10"/><path d="M350.15,170.93a4.69,4.69,0,1,1-4.69-4.69A4.69,4.69,0,0,1,350.15,170.93Z" fill="none" stroke="#003a50" stroke-miterlimit="10"/><path d="M334.71,170.93a4.69,4.69,0,1,1-4.69-4.69A4.69,4.69,0,0,1,334.71,170.93Z" fill="none" stroke="#003a50" stroke-miterlimit="10"/><path d="M302.75,186.64H279.4a3.35,3.35,0,0,1-3.36-3.36V168.33A3.35,3.35,0,0,1,279.4,165h23.35a3.36,3.36,0,0,1,3.36,3.36v14.95A3.36,3.36,0,0,1,302.75,186.64Z" fill="none" stroke="#003a50" stroke-miterlimit="10"/><circle cx="291.07" cy="179.6" r="2.46" fill="none" stroke="#003a50" stroke-miterlimit="10"/></g><line x1="291.07" y1="178.84" x2="291.07" y2="192.46" fill="none" stroke="#003a50" stroke-miterlimit="10"/><line x1="284.26" y1="192.46" x2="297.88" y2="192.46" fill="none" stroke="#003a50" stroke-miterlimit="10"/><rect x="96.08" y="161.73" width="56.72" height="34.69" fill="none" stroke="#003a50" stroke-miterlimit="10"/><g clip-path="url(#clip-path)"><path d="M111,168.48a.87.87,0,0,1,1.66-.38,25.09,25.09,0,0,1,0,22,.88.88,0,0,1-1.17.39.87.87,0,0,1-.4-1.16,23.29,23.29,0,0,0,0-20.43A.85.85,0,0,1,111,168.48Z" fill="none" stroke="#003a50" stroke-miterlimit="10"/><path d="M115.8,168.48a.87.87,0,0,1,1.66-.38,25.09,25.09,0,0,1,0,22,.89.89,0,0,1-1.17.39.87.87,0,0,1-.4-1.16,23.29,23.29,0,0,0,0-20.43A.85.85,0,0,1,115.8,168.48Z" fill="none" stroke="#003a50" stroke-miterlimit="10"/><path d="M120.64,168.48a.87.87,0,0,1,.49-.78.85.85,0,0,1,1.16.4,25,25,0,0,1,0,22,.87.87,0,0,1-1.16.39.86.86,0,0,1-.4-1.16,23.29,23.29,0,0,0,0-20.43A.85.85,0,0,1,120.64,168.48Z" fill="none" stroke="#003a50" stroke-miterlimit="10"/><path d="M125.48,168.48a.87.87,0,0,1,.49-.78.85.85,0,0,1,1.16.4,25,25,0,0,1,0,22,.87.87,0,0,1-1.16.39.86.86,0,0,1-.4-1.16,23.29,23.29,0,0,0,0-20.43A.85.85,0,0,1,125.48,168.48Z" fill="none" stroke="#003a50" stroke-miterlimit="10"/><path d="M106.12,168.48a.87.87,0,0,1,1.66-.38,25,25,0,0,1,0,22,.88.88,0,0,1-1.16.39.85.85,0,0,1-.4-1.16,23.29,23.29,0,0,0,0-20.43A.75.75,0,0,1,106.12,168.48Z" fill="none" stroke="#003a50" stroke-miterlimit="10"/><path d="M101.29,168.48a.88.88,0,0,1,.48-.78.86.86,0,0,1,1.17.4,25,25,0,0,1,0,22,.87.87,0,0,1-1.16.39.86.86,0,0,1-.4-1.16,23.29,23.29,0,0,0,0-20.43A.73.73,0,0,1,101.29,168.48Z" fill="none" stroke="#003a50" stroke-miterlimit="10"/></g><line x1="96.08" y1="179.07" x2="152.8" y2="179.07" fill="none" stroke="#003a50" stroke-miterlimit="10"/><g clip-path="url(#clip-path)"><path d="M162.37,95.89V99a38.71,38.71,0,0,1-38.71,38.71V95.89" fill="none" stroke="#003a50" stroke-miterlimit="10" stroke-width="1.6"/><path d="M54.32,156.56H50.44a48.89,48.89,0,0,1-48.9-48.89H54.32" fill="none" stroke="#003a50" stroke-miterlimit="10" stroke-width="1.6"/><rect x="56.66" y="0.5" width="488" height="13.79" fill="#003a50"/><rect x="50.84" y="-37.56" width="16.32" height="145.23" fill="#003a50"/><rect x="50.84" y="155.34" width="16.32" height="21.06" fill="#003a50"/><rect x="85.91" y="163.52" width="10.75" height="78.67" fill="#003a50"/><rect x="54.32" y="161.16" width="42.34" height="15.54" fill="#003a50"/><rect x="85.91" y="195.81" width="447.72" height="16.32" fill="#003a50"/><polygon points="529.63 88.05 529.63 -7.69 578.96 -7.69 567.29 88.05 529.63 88.05" fill="#003a50" fill-rule="evenodd"/><rect x="529.63" y="174.21" width="36.1" height="96.07" fill="#003a50"/><rect x="523.66" y="-5.73" width="11.25" height="77.3" fill="#003a50"/><rect x="50.84" y="168.93" width="6.38" height="73.25" fill="#003a50"/><rect x="161.54" y="93.14" width="63.37" height="6.38" fill="#003a50"/><rect x="218.53" y="5" width="6.38" height="94.52" fill="#003a50"/><rect x="61.06" y="93.14" width="63.43" height="6.38" fill="#003a50"/><rect x="66.54" y="58.47" width="33.64" height="6.38" fill="#003a50"/><rect x="82.31" y="174.5" width="6.38" height="58.66" fill="#003a50"/><rect x="95.91" y="5" width="6.38" height="92.32" fill="#003a50"/><line x1="224.47" y1="97.33" x2="224.47" y2="100.16" fill="none" stroke="#003a50" stroke-miterlimit="10"/><line x1="224.47" y1="105.48" x2="224.47" y2="156.02" fill="none" stroke="#003a50" stroke-miterlimit="10" stroke-dasharray="5.32 5.32"/><line x1="224.47" y1="158.68" x2="224.47" y2="161.51" fill="none" stroke="#003a50" stroke-miterlimit="10"/><rect x="320.26" y="-99.25" width="6.38" height="102.25" fill="#003a50"/><rect x="169.59" y="-99.75" width="6.38" height="102.75" fill="#003a50"/><rect x="194.27" y="161.44" width="32.9" height="6.38" fill="#003a50"/><rect x="220.7" y="161.51" width="6.38" height="40.24" fill="#003a50"/><rect x="193.14" y="161.44" width="6.38" height="40.31" fill="#003a50"/><rect x="218.22" y="202.85" width="6.38" height="39.33" fill="#003a50"/></g><g clip-path="url(#clip-path)"><path d="M87.7,136.25H85.59V133.6h-7v-1.84l6.3-7.42H87.7v7.42h1.59v1.84H87.7Zm-2.11-4.49v-5.33h-.07l-4.47,5.28v0Z" fill="#003a50"/><path d="M91,136.12a1.17,1.17,0,0,1,0-1.61,1.23,1.23,0,0,1,.87-.3,1.2,1.2,0,0,1,.86.3,1.15,1.15,0,0,1,0,1.61,1.2,1.2,0,0,1-.86.3A1.23,1.23,0,0,1,91,136.12Z" fill="#003a50"/><path d="M101.09,126.18H95.26v-1.84h8.87v1.84l-4.53,2.65v.07h1.28a3.9,3.9,0,0,1,2.79,1,3.52,3.52,0,0,1,1,2.67,3.32,3.32,0,0,1-1.33,2.82,6.93,6.93,0,0,1-7.24,0,3.38,3.38,0,0,1-1.33-2.85v-.33h2.11v.33c0,1.36.95,2,2.84,2s2.84-.67,2.84-2-.94-2-2.84-2H96.51v-1.67l4.58-2.68Z" fill="#003a50"/><path d="M135.39,85.83h-5.82V84h8.86v1.85l-4.52,2.64v.07h1.27a3.87,3.87,0,0,1,2.79,1A3.5,3.5,0,0,1,139,92.22,3.32,3.32,0,0,1,137.7,95a6.93,6.93,0,0,1-7.24,0,3.35,3.35,0,0,1-1.33-2.85v-.33h2.11v.33c0,1.36.95,2,2.84,2s2.84-.67,2.84-2-.95-2-2.84-2h-3.26V88.57l4.57-2.68Z" fill="#003a50"/><path d="M141.13,95.76a1.17,1.17,0,0,1,0-1.61,1.41,1.41,0,0,1,1.74,0,1.17,1.17,0,0,1,0,1.61,1.41,1.41,0,0,1-1.74,0Z" fill="#003a50"/><path d="M146.54,94.35a7.33,7.33,0,0,1,0-8.83,5.71,5.71,0,0,1,8.13,0,7.33,7.33,0,0,1,0,8.83,5.69,5.69,0,0,1-8.13,0ZM153.06,93a5.67,5.67,0,0,0,0-6.07,3.14,3.14,0,0,0-4.91,0,5.67,5.67,0,0,0,0,6.07,3.14,3.14,0,0,0,4.91,0Z" fill="#003a50"/><path d="M457.39,147.21l-2.49,1.95v-2.24l2.73-2.27h1.87v11.91h-2.11Z" fill="#003a50"/><path d="M467.39,148.58a5,5,0,0,1,3.34,1.06,4.16,4.16,0,0,1,0,6,5.39,5.39,0,0,1-3.55,1.08,5.79,5.79,0,0,1-3.56-1,3.15,3.15,0,0,1-1.29-2.68h2.11a1.54,1.54,0,0,0,.7,1.33,3.53,3.53,0,0,0,2,.49,3.13,3.13,0,0,0,2-.57,2.07,2.07,0,0,0,.71-1.69,2,2,0,0,0-.74-1.7,3.25,3.25,0,0,0-2.07-.58,3.61,3.61,0,0,0-1.92.41,1.93,1.93,0,0,0-.7.64l-.05.13h-2.11v-6.88h8.88v1.84H464.4v3h.05a2.22,2.22,0,0,1,.4-.31,3.94,3.94,0,0,1,.55-.26A5.6,5.6,0,0,1,467.39,148.58Z" fill="#003a50"/><path d="M474.09,156.43a1,1,0,0,1-.32-.81,1.07,1.07,0,0,1,.32-.81,1.25,1.25,0,0,1,.88-.3,1.22,1.22,0,0,1,.86.3,1,1,0,0,1,.32.81,1,1,0,0,1-.32.81,1.26,1.26,0,0,1-.86.29A1.3,1.3,0,0,1,474.09,156.43Z" fill="#003a50"/><path d="M486.68,155.79a7.77,7.77,0,0,1-7.37,0,3,3,0,0,1-1.37-2.56,2.74,2.74,0,0,1,.26-1.17,2.46,2.46,0,0,1,.65-.85,3.89,3.89,0,0,1,1.4-.77l.26-.07v-.09a3.38,3.38,0,0,1-.77-.29,2.61,2.61,0,0,1-.66-.44,2.24,2.24,0,0,1-.54-.76,2.39,2.39,0,0,1-.23-1,2.8,2.8,0,0,1,1.26-2.38,5.74,5.74,0,0,1,3.42-.9,5.81,5.81,0,0,1,3.43.9,2.82,2.82,0,0,1,1.24,2.38,2.5,2.5,0,0,1-.22,1.05,1.87,1.87,0,0,1-.55.74,3.59,3.59,0,0,1-1.19.68l-.23.05v.09l.28.07a5.31,5.31,0,0,1,.63.26,4.67,4.67,0,0,1,.77.51,2.65,2.65,0,0,1,.61.82,2.58,2.58,0,0,1,.28,1.2A3,3,0,0,1,486.68,155.79Zm-5.79-1.35a3.84,3.84,0,0,0,2.1.48,3.94,3.94,0,0,0,2.1-.47,1.6,1.6,0,0,0,0-2.7,4.93,4.93,0,0,0-4.2,0,1.51,1.51,0,0,0-.74,1.35A1.49,1.49,0,0,0,480.89,154.44Zm-.37-6.52a1.36,1.36,0,0,0,.65,1.19,3.2,3.2,0,0,0,1.82.44,3.24,3.24,0,0,0,1.82-.44,1.42,1.42,0,0,0,0-2.39,4,4,0,0,0-3.62,0A1.36,1.36,0,0,0,480.52,147.92Z" fill="#003a50"/><path d="M279.65,147.39h-9.93v-1.56a2.74,2.74,0,0,1,.58-1.74,4,4,0,0,1,1.44-1.2c.5-.25,1.13-.54,1.87-.86l1.88-.78a4.07,4.07,0,0,0,1.44-.91,1.77,1.77,0,0,0,.58-1.3q0-1.89-2.67-1.89t-2.67,2.16v.41h-2.11v-.41a3.62,3.62,0,0,1,1.26-3,5.38,5.38,0,0,1,3.51-1,5.66,5.66,0,0,1,3.52,1,3.3,3.3,0,0,1,1.27,2.75,3.14,3.14,0,0,1-.56,1.83,4.29,4.29,0,0,1-1.4,1.31c-.6.34-1.21.65-1.84.93s-1.23.52-1.83.74a5.26,5.26,0,0,0-1.4.75,1.21,1.21,0,0,0-.56,1h7.62Z" fill="#003a50"/><path d="M281.75,147.26a1.17,1.17,0,0,1,0-1.61,1.41,1.41,0,0,1,1.74,0,1.17,1.17,0,0,1,0,1.61,1.41,1.41,0,0,1-1.74,0Z" fill="#003a50"/><path d="M295.37,138.84h-2.21s0-.07,0-.18a2.05,2.05,0,0,0-.21-.44,2.69,2.69,0,0,0-.39-.5,1.9,1.9,0,0,0-.71-.41,3.19,3.19,0,0,0-1-.16,2.51,2.51,0,0,0-2.15,1,4.41,4.41,0,0,0-.76,2.68H288a1.63,1.63,0,0,1,.44-.43,4.76,4.76,0,0,1,.6-.36,4.41,4.41,0,0,1,.95-.31,6.16,6.16,0,0,1,1.22-.13,5,5,0,0,1,3.37,1.12,3.51,3.51,0,0,1,1.31,2.8,3.57,3.57,0,0,1-1.37,2.9,5.49,5.49,0,0,1-3.6,1.11A4.81,4.81,0,0,1,287,146a6.36,6.36,0,0,1-1.32-4.27v-.4A6.83,6.83,0,0,1,287,137a4.52,4.52,0,0,1,3.8-1.71,5.66,5.66,0,0,1,2.13.37,3.84,3.84,0,0,1,1.44.94A3.43,3.43,0,0,1,295.37,138.84ZM292.86,142a3.65,3.65,0,0,0-3.95,0,2,2,0,0,0,0,3.15,3.63,3.63,0,0,0,4,0,1.85,1.85,0,0,0,.77-1.57A1.88,1.88,0,0,0,292.86,142Z" fill="#003a50"/></g></svg>