<svg id="Слой_1" data-name="Слой 1" xmlns="http://www.w3.org/2000/svg" xmlns:xlink="http://www.w3.org/1999/xlink" viewBox="0 0 583.94 383.81"><defs><clipPath id="clip-path"><polygon points="83.19 0.42 83.19 36.57 0 36.57 0 209.82 91.69 209.82 91.69 230.09 236.75 230.09 236.75 383.39 582.24 383.39 582.24 0.42 83.19 0.42" fill="none"/></clipPath></defs><rect x="246.45" y="376.41" width="285.4" height="6.98" fill="#fff"/><polygon points="83.19 0.42 83.19 36.57 56.88 36.57 56.88 42.39 67.95 58.65 67.95 107.99 65.47 199.62 94.01 199.62 94.01 218.54 241.83 218.54 241.83 381.26 531.85 381.26 531.85 14.82 84.15 14.82 84.15 0.42 83.19 0.42" fill="#fff"/><polygon points="91.84 0.42 92.08 2.72 531.85 2.72 531.85 0.42 91.84 0.42" fill="#fff"/><g clip-path="url(#clip-path)"><rect x="-560.64" y="-643.16" width="1115.44" height="2194.74" fill="none" stroke="#003a50" stroke-miterlimit="10"/><polygon points="-536.27 442.58 -536.27 1528.62 530.42 1528.62 530.42 -619.21 -536.27 -619.36 -536.27 373.77 -536.27 442.58" fill="none" stroke="#003a50" stroke-miterlimit="10"/></g><rect x="541.58" y="74.95" width="4.56" height="92.59" fill="#fff"/><rect x="541.58" y="74.95" width="4.56" height="92.59" fill="none" stroke="#003a50" stroke-miterlimit="10"/><line x1="543.86" y1="167.53" x2="543.86" y2="74.95" fill="none" stroke="#003a50" stroke-miterlimit="10"/><rect x="541.58" y="162.86" width="4.56" height="4.67" fill="#fff"/><rect x="541.58" y="162.86" width="4.56" height="4.67" fill="none" stroke="#003a50" stroke-miterlimit="10"/><rect x="541.58" y="74.94" width="4.56" height="4.68" fill="#fff"/><rect x="541.58" y="74.94" width="4.56" height="4.68" fill="none" stroke="#003a50" stroke-miterlimit="10"/><rect x="541.58" y="118.9" width="4.56" height="4.68" fill="#fff"/><rect x="541.58" y="118.9" width="4.56" height="4.68" fill="none" stroke="#003a50" stroke-miterlimit="10"/><rect x="541.58" y="263.35" width="4.56" height="81.54" fill="#fff"/><rect x="541.58" y="263.35" width="4.56" height="81.54" fill="none" stroke="#003a50" stroke-miterlimit="10"/><line x1="543.86" y1="344.89" x2="543.86" y2="263.35" fill="none" stroke="#003a50" stroke-miterlimit="10"/><rect x="541.58" y="340.78" width="4.56" height="4.11" fill="#fff"/><rect x="541.58" y="340.78" width="4.56" height="4.11" fill="none" stroke="#003a50" stroke-miterlimit="10"/><rect x="541.58" y="263.35" width="4.56" height="4.12" fill="#fff"/><rect x="541.58" y="263.35" width="4.56" height="4.12" fill="none" stroke="#003a50" stroke-miterlimit="10"/><rect x="541.58" y="302.06" width="4.56" height="4.12" fill="#fff"/><rect x="541.58" y="302.06" width="4.56" height="4.12" fill="none" stroke="#003a50" stroke-miterlimit="10"/><g clip-path="url(#clip-path)"><path d="M119.46,191.39a3.16,3.16,0,0,0,2.91-1.95h1.79l4.73,2.82-2.15,3.5-2.46-1.35v11H114v-11l-2.47,1.35-2.15-3.5,4.78-2.82h2.38A3.21,3.21,0,0,0,119.46,191.39Z" fill="none" stroke="#003a50" stroke-miterlimit="10"/></g><rect x="103.34" y="182.2" width="31.57" height="30.42" fill="none" stroke="#003a50" stroke-miterlimit="10"/><rect x="218.87" y="115.29" width="31.65" height="31.61" fill="none" stroke="#003a50" stroke-miterlimit="10"/><g clip-path="url(#clip-path)"><path d="M230.7,129.67V119.39h8v10.28a3.29,3.29,0,0,1-3.3,3.29H234A3.29,3.29,0,0,1,230.7,129.67Z" fill="none" stroke="#003a50" stroke-miterlimit="10"/></g><polyline points="237.93 142.79 234.69 142.79 231.47 142.79" fill="none" stroke="#003a50" stroke-miterlimit="10"/><line x1="234.7" y1="132.96" x2="234.7" y2="142.79" fill="none" stroke="#003a50" stroke-miterlimit="10"/><rect x="260.13" y="178.63" width="34.02" height="34.02" fill="none" stroke="#003a50" stroke-miterlimit="10"/><g clip-path="url(#clip-path)"><path d="M269.53,208.05a4.64,4.64,0,1,1,4.64-4.64A4.63,4.63,0,0,1,269.53,208.05Z" fill="none" stroke="#003a50" stroke-miterlimit="10"/><path d="M269.53,192.57a4.64,4.64,0,1,1,4.64-4.64A4.63,4.63,0,0,1,269.53,192.57Z" fill="none" stroke="#003a50" stroke-miterlimit="10"/><path d="M284.62,208.05a4.64,4.64,0,1,1,4.64-4.64A4.63,4.63,0,0,1,284.62,208.05Z" fill="none" stroke="#003a50" stroke-miterlimit="10"/><path d="M284.62,192.57a4.64,4.64,0,1,1,4.64-4.64A4.63,4.63,0,0,1,284.62,192.57Z" fill="none" stroke="#003a50" stroke-miterlimit="10"/></g><rect x="428.37" y="158.99" width="102.05" height="16.75" fill="none" stroke="#003a50" stroke-miterlimit="10"/><polygon points="522.4 166.83 479.5 170.31 436.4 166.83 436.4 164.41 522.4 164.41 522.4 166.83" fill="none" stroke="#003a50" stroke-miterlimit="10"/><g clip-path="url(#clip-path)"><rect x="400.41" y="-17.12" width="102.05" height="16.75" fill="none" stroke="#003a50" stroke-miterlimit="10"/></g><rect x="400.41" y="192.99" width="102.05" height="16.75" fill="none" stroke="#003a50" stroke-miterlimit="10"/><polygon points="408.43 201.9 451.32 198.43 494.43 201.9 494.43 204.32 408.43 204.32 408.43 201.9" fill="none" stroke="#003a50" stroke-miterlimit="10"/><g clip-path="url(#clip-path)"><path d="M305.77,78.21a1.26,1.26,0,0,1,.94,1.51,13.78,13.78,0,1,0,26.87,6.16,1.26,1.26,0,0,1,2.46.57,16.3,16.3,0,0,1-31.78-7.29A1.26,1.26,0,0,1,305.77,78.21Z" fill="none" stroke="#003a50" stroke-miterlimit="10"/><path d="M360.94,87.93a1.24,1.24,0,0,1,1.74-.33,13.79,13.79,0,1,0,15.53-22.79,1.26,1.26,0,0,1,1.41-2.08,16.3,16.3,0,1,1-18.35,27A1.25,1.25,0,0,1,360.94,87.93Z" fill="none" stroke="#003a50" stroke-miterlimit="10"/><path d="M363.44,40.53a1.26,1.26,0,0,1-1.33-1.18A13.78,13.78,0,1,0,334.59,41a1.26,1.26,0,1,1-2.51.16,16.3,16.3,0,1,1,32.54-1.94A1.26,1.26,0,0,1,363.44,40.53Z" fill="none" stroke="#003a50" stroke-miterlimit="10"/><path d="M320,94.83a12.69,12.69,0,0,1-12-15.48l2-8.88a3.53,3.53,0,0,1,4.24-2.68l13.44,3.08a23.73,23.73,0,0,0,6,9.44l-1,4.2C331.36,90.47,326.08,95,320,94.83Z" fill="none" stroke="#003a50" stroke-miterlimit="10"/><path d="M362.76,86.3l-2.32-1.6a23.81,23.81,0,0,0,13.64-21.32l2.52,1.72c5,3.44,7.4,10,5,15.64A12.7,12.7,0,0,1,362.76,86.3Z" fill="none" stroke="#003a50" stroke-miterlimit="10"/><path d="M335.92,44l-.12-2c-.36-6.12,3.4-12,9.32-13.48A12.66,12.66,0,0,1,361,40.07l.12,1.83A24,24,0,0,0,344.48,40,23.32,23.32,0,0,0,335.92,44Z" fill="none" stroke="#003a50" stroke-miterlimit="10"/><path d="M333.68,80.3a23.73,23.73,0,0,1-6-9.44,16.51,16.51,0,0,1-.6-2A23.85,23.85,0,0,1,335.92,44a23.5,23.5,0,0,1,8.56-4,23.87,23.87,0,0,1,28.92,17.4,22.12,22.12,0,0,1,.68,6A23.81,23.81,0,0,1,360.44,84.7,22.85,22.85,0,0,1,356,86.3,23.8,23.8,0,0,1,333.68,80.3Z" fill="none" stroke="#003a50" stroke-miterlimit="10"/></g><rect x="168.89" y="116.98" width="43.96" height="95.52" fill="none" stroke="#003a50" stroke-miterlimit="10"/><g clip-path="url(#clip-path)"><rect x="174.05" y="121.18" width="33.22" height="87.39" rx="13.7" fill="none" stroke="#003a50" stroke-miterlimit="10"/><circle cx="190.75" cy="193.44" r="2.28" transform="translate(-41.34 334.65) rotate(-76.72)" fill="none" stroke="#003a50" stroke-miterlimit="10"/><path d="M131.77,167.36H103.2V144.29h28.57a11.54,11.54,0,1,1,0,23.07Z" fill="none" stroke="#003a50" stroke-miterlimit="10"/></g><rect x="103.21" y="144.29" width="11.08" height="23.08" fill="none" stroke="#003a50" stroke-miterlimit="10"/><rect x="218.87" y="178.64" width="97.82" height="33.86" fill="none" stroke="#003a50" stroke-miterlimit="10"/><rect x="218.87" y="146.99" width="31.65" height="31.65" fill="none" stroke="#003a50" stroke-miterlimit="10"/><polyline points="222.17 156.58 222.17 162.84 222.17 169.08" fill="none" stroke="#003a50" stroke-miterlimit="10"/><line x1="234.71" y1="162.85" x2="222.17" y2="162.85" fill="none" stroke="#003a50" stroke-miterlimit="10"/><g clip-path="url(#clip-path)"><path d="M244.25,149H230.77a3.24,3.24,0,0,0-3.24,3.24v21.21a3.23,3.23,0,0,0,3.24,3.23h13.48a3.23,3.23,0,0,0,3.24-3.23V152.21A3.24,3.24,0,0,0,244.25,149Z" fill="none" stroke="#003a50" stroke-miterlimit="10"/><path d="M236.27,162.85a2.24,2.24,0,1,0-2.23,2.23A2.23,2.23,0,0,0,236.27,162.85Z" fill="none" stroke="#003a50" stroke-miterlimit="10"/><rect x="261.99" y="-34.33" width="93.55" height="34.02" fill="none" stroke="#003a50" stroke-miterlimit="10"/><rect x="153.59" y="-34.11" width="40.34" height="34.69" fill="none" stroke="#003a50" stroke-miterlimit="10"/></g><polygon points="168.66 182.1 103.07 182.31 103.07 212.86 168.66 212.65 168.66 182.1" fill="none" stroke="#003a50" stroke-miterlimit="10"/><g clip-path="url(#clip-path)"><path d="M137.64,188.12v23a3.36,3.36,0,0,0,3.35,3.36h22.25a3.37,3.37,0,0,0,3.36-3.36v-23a3.37,3.37,0,0,0-3.36-3.36H141A3.36,3.36,0,0,0,137.64,188.12Z" fill="none" stroke="#003a50" stroke-miterlimit="10"/><circle cx="152.12" cy="199.62" r="2.27" fill="none" stroke="#003a50" stroke-miterlimit="10"/><rect x="253.2" y="383.82" width="34.02" height="105.94" fill="none" stroke="#003a50" stroke-miterlimit="10"/><path d="M472.82,62.54v-41H427.05V64.75h43.56A2.21,2.21,0,0,0,472.82,62.54Z" fill="none" stroke="#003a50" stroke-miterlimit="10"/><path d="M518.69,62.77V21.51H472.92V62.77a2,2,0,0,0,2,2h41.81A2,2,0,0,0,518.69,62.77Z" fill="none" stroke="#003a50" stroke-miterlimit="10"/><path d="M427.05,64.75a3.11,3.11,0,0,1-3.32,2.83H419.5a3.11,3.11,0,0,1-3.32-2.83V16.55H529.56V64.33a3.1,3.1,0,0,1-3.32,2.82H522a3.1,3.1,0,0,1-3.33-2.82V21.5H427.05Z" fill="none" stroke="#003a50" stroke-miterlimit="10"/></g><rect x="427.05" y="21.51" width="91.64" height="9.25" fill="none" stroke="#003a50" stroke-miterlimit="10"/><g clip-path="url(#clip-path)"><rect x="446.15" y="383.87" width="22.68" height="22.68" fill="none" stroke="#003a50" stroke-miterlimit="10"/><rect x="312.05" y="383.87" width="22.68" height="22.68" fill="none" stroke="#003a50" stroke-miterlimit="10"/><rect x="339.53" y="383.87" width="102.05" height="113.39" fill="none" stroke="#003a50" stroke-miterlimit="10"/></g><rect x="367.48" y="344.37" width="22.68" height="22.68" fill="none" stroke="#003a50" stroke-miterlimit="10"/><g clip-path="url(#clip-path)"><path d="M372.32,349.21a9.19,9.19,0,1,1,0,13A9.19,9.19,0,0,1,372.32,349.21Z" fill="none" stroke="#003a50" stroke-miterlimit="10"/><path d="M371.69,349.9c1.7.17,3.42-.48,5.07,1.17,2.44,2.44-.15,5,2.3,7.45s5-.13,7.45,2.3" fill="none" stroke="#003a50" stroke-miterlimit="10"/></g><rect x="501.58" y="344.37" width="22.68" height="22.68" fill="none" stroke="#003a50" stroke-miterlimit="10"/><g clip-path="url(#clip-path)"><path d="M506.42,349.21a9.19,9.19,0,1,1,0,13A9.19,9.19,0,0,1,506.42,349.21Z" fill="none" stroke="#003a50" stroke-miterlimit="10"/><path d="M505.79,349.9c1.7.17,3.41-.48,5.07,1.17,2.44,2.44-.15,5,2.3,7.45s5-.13,7.45,2.3" fill="none" stroke="#003a50" stroke-miterlimit="10"/></g><rect x="394.73" y="253.66" width="102.05" height="113.39" fill="none" stroke="#003a50" stroke-miterlimit="10"/><g clip-path="url(#clip-path)"><path d="M404.73,263.4h82a2.09,2.09,0,0,1,2.09,2.08v67.64H402.65V265.48A2.08,2.08,0,0,1,404.73,263.4Z" fill="none" stroke="#003a50" stroke-miterlimit="10"/><rect x="446.62" y="336.74" width="42.5" height="22.88" rx="1.98" fill="none" stroke="#003a50" stroke-miterlimit="10"/><rect x="402.39" y="336.74" width="42.5" height="22.88" rx="1.98" fill="none" stroke="#003a50" stroke-miterlimit="10"/></g><line x1="402.39" y1="319.27" x2="489.12" y2="319.27" fill="none" stroke="#003a50" stroke-miterlimit="10"/><g clip-path="url(#clip-path)"><rect x="227.96" y="-34.33" width="34.02" height="34.02" fill="none" stroke="#003a50" stroke-miterlimit="10"/></g><rect x="255.52" y="15.9" width="36.34" height="30.5" fill="none" stroke="#003a50" stroke-miterlimit="10"/><rect x="96.87" y="16.52" width="122.19" height="29.57" fill="none" stroke="#003a50" stroke-miterlimit="10"/><g clip-path="url(#clip-path)"><path d="M111.76,20.71a.87.87,0,0,1,1.65-.38,25,25,0,0,1,0,22,.87.87,0,1,1-1.56-.77,23.27,23.27,0,0,0,0-20.42A.8.8,0,0,1,111.76,20.71Z" fill="none" stroke="#003a50" stroke-miterlimit="10"/><path d="M116.59,20.71a.87.87,0,0,1,.49-.78.88.88,0,0,1,1.17.4,25,25,0,0,1,0,22,.87.87,0,1,1-1.56-.77,23.27,23.27,0,0,0,0-20.42A.81.81,0,0,1,116.59,20.71Z" fill="none" stroke="#003a50" stroke-miterlimit="10"/><path d="M121.43,20.71a.87.87,0,0,1,.49-.78.88.88,0,0,1,1.17.4,25.09,25.09,0,0,1,0,22,.87.87,0,0,1-1.57-.77,23.27,23.27,0,0,0,0-20.42A.92.92,0,0,1,121.43,20.71Z" fill="none" stroke="#003a50" stroke-miterlimit="10"/><path d="M126.27,20.71a.87.87,0,0,1,.49-.78.88.88,0,0,1,1.17.4,25.09,25.09,0,0,1,0,22,.87.87,0,0,1-1.57-.77,23.27,23.27,0,0,0,0-20.42A.92.92,0,0,1,126.27,20.71Z" fill="none" stroke="#003a50" stroke-miterlimit="10"/><path d="M131.11,20.71a.87.87,0,0,1,.49-.78.88.88,0,0,1,1.17.4,25.09,25.09,0,0,1,0,22,.87.87,0,0,1-1.57-.77,23.27,23.27,0,0,0,0-20.42A.92.92,0,0,1,131.11,20.71Z" fill="none" stroke="#003a50" stroke-miterlimit="10"/><path d="M136,20.71a.87.87,0,0,1,1.65-.38,25,25,0,0,1,0,22,.87.87,0,1,1-1.56-.77,23.27,23.27,0,0,0,0-20.42A.92.92,0,0,1,136,20.71Z" fill="none" stroke="#003a50" stroke-miterlimit="10"/><path d="M106.92,20.71a.87.87,0,0,1,1.65-.38,25,25,0,0,1,0,22,.87.87,0,1,1-1.56-.77,23.27,23.27,0,0,0,0-20.42A.92.92,0,0,1,106.92,20.71Z" fill="none" stroke="#003a50" stroke-miterlimit="10"/><path d="M102.08,20.71a.87.87,0,0,1,.49-.78.88.88,0,0,1,1.17.4,25.09,25.09,0,0,1,0,22,.87.87,0,0,1-1.57-.77,23.27,23.27,0,0,0,0-20.42A.92.92,0,0,1,102.08,20.71Z" fill="none" stroke="#003a50" stroke-miterlimit="10"/></g><line x1="96.87" y1="31.31" x2="219.06" y2="31.31" fill="none" stroke="#003a50" stroke-miterlimit="10"/><rect x="225.27" y="16.15" width="30.26" height="30.26" fill="none" stroke="#003a50" stroke-miterlimit="10"/><line x1="231.52" y1="31.28" x2="249.27" y2="31.28" fill="none" stroke="#003a50" stroke-miterlimit="10"/><line x1="240.39" y1="40.16" x2="240.39" y2="22.4" fill="none" stroke="#003a50" stroke-miterlimit="10"/><line x1="234.12" y1="37.56" x2="246.67" y2="25" fill="none" stroke="#003a50" stroke-miterlimit="10"/><line x1="246.67" y1="37.56" x2="234.12" y2="25" fill="none" stroke="#003a50" stroke-miterlimit="10"/><g clip-path="url(#clip-path)"><rect x="321.53" y="-34.33" width="34.02" height="34.02" fill="none" stroke="#003a50" stroke-miterlimit="10"/><rect x="96.87" y="-34.11" width="56.72" height="34.69" fill="none" stroke="#003a50" stroke-miterlimit="10"/></g><rect x="254.25" y="219.15" width="26.5" height="148.24" fill="none" stroke="#003a50" stroke-miterlimit="10"/><g clip-path="url(#clip-path)"><path d="M276.94,232.62a.78.78,0,0,1,.7.43.78.78,0,0,1-.36,1,22.44,22.44,0,0,1-19.67,0,.78.78,0,0,1,.69-1.4,20.89,20.89,0,0,0,18.3,0A.68.68,0,0,1,276.94,232.62Z" fill="none" stroke="#003a50" stroke-miterlimit="10"/><path d="M276.94,237a.77.77,0,0,1,.7.44.78.78,0,0,1-.36,1,22.35,22.35,0,0,1-19.67,0,.78.78,0,0,1,.69-1.4,20.81,20.81,0,0,0,18.3,0A.68.68,0,0,1,276.94,237Z" fill="none" stroke="#003a50" stroke-miterlimit="10"/><path d="M276.94,241.29a.78.78,0,0,1,.7.43.78.78,0,0,1-.36,1.05,22.44,22.44,0,0,1-19.67,0,.78.78,0,0,1,.69-1.4,20.89,20.89,0,0,0,18.3,0A.68.68,0,0,1,276.94,241.29Z" fill="none" stroke="#003a50" stroke-miterlimit="10"/><path d="M276.94,245.62a.77.77,0,0,1,.7.44.78.78,0,0,1-.36,1,22.35,22.35,0,0,1-19.67,0,.78.78,0,0,1,.69-1.4,20.81,20.81,0,0,0,18.3,0A.68.68,0,0,1,276.94,245.62Z" fill="none" stroke="#003a50" stroke-miterlimit="10"/><path d="M276.94,250a.78.78,0,0,1,.7.43.78.78,0,0,1-.36,1.05,22.44,22.44,0,0,1-19.67,0,.78.78,0,0,1,.69-1.4,20.89,20.89,0,0,0,18.3,0A.68.68,0,0,1,276.94,250Z" fill="none" stroke="#003a50" stroke-miterlimit="10"/><path d="M276.94,254.29a.77.77,0,0,1,.7.44.78.78,0,0,1-.36,1,22.35,22.35,0,0,1-19.67,0,.78.78,0,0,1,.69-1.4,20.81,20.81,0,0,0,18.3,0A.68.68,0,0,1,276.94,254.29Z" fill="none" stroke="#003a50" stroke-miterlimit="10"/><path d="M276.94,228.28a.77.77,0,0,1,.7.44.79.79,0,0,1-.36,1.05,22.44,22.44,0,0,1-19.67,0,.78.78,0,0,1,.69-1.41,20.81,20.81,0,0,0,18.3,0A.81.81,0,0,1,276.94,228.28Z" fill="none" stroke="#003a50" stroke-miterlimit="10"/><path d="M276.94,224a.78.78,0,0,1,.7.43.78.78,0,0,1-.36,1.05,22.44,22.44,0,0,1-19.67,0,.78.78,0,0,1,.69-1.4,20.89,20.89,0,0,0,18.3,0A.68.68,0,0,1,276.94,224Z" fill="none" stroke="#003a50" stroke-miterlimit="10"/></g><line x1="267.45" y1="219.28" x2="267.45" y2="367.26" fill="none" stroke="#003a50" stroke-miterlimit="10"/><g clip-path="url(#clip-path)"><path d="M276.94,259.09a.77.77,0,0,1,.7.44.78.78,0,0,1-.36,1.05,22.44,22.44,0,0,1-19.67,0,.78.78,0,0,1,.69-1.41,20.81,20.81,0,0,0,18.3,0A.81.81,0,0,1,276.94,259.09Z" fill="none" stroke="#003a50" stroke-miterlimit="10"/><path d="M276.94,263.43a.78.78,0,0,1,.7.43.78.78,0,0,1-.36,1.05,22.44,22.44,0,0,1-19.67,0,.78.78,0,0,1,.69-1.4,20.89,20.89,0,0,0,18.3,0A.68.68,0,0,1,276.94,263.43Z" fill="none" stroke="#003a50" stroke-miterlimit="10"/><path d="M276.94,267.76a.77.77,0,0,1,.7.44.79.79,0,0,1-.36,1.05,22.44,22.44,0,0,1-19.67,0,.78.78,0,0,1,.69-1.41,20.81,20.81,0,0,0,18.3,0A.81.81,0,0,1,276.94,267.76Z" fill="none" stroke="#003a50" stroke-miterlimit="10"/></g><rect x="280.75" y="219.16" width="34.54" height="26.5" fill="none" stroke="#003a50" stroke-miterlimit="10"/><g clip-path="url(#clip-path)"><path d="M294.21,241.84a.77.77,0,0,0,.44.7.78.78,0,0,0,1-.36,22.35,22.35,0,0,0,0-19.67.78.78,0,0,0-1.4.69,20.81,20.81,0,0,1,0,18.3A.68.68,0,0,0,294.21,241.84Z" fill="none" stroke="#003a50" stroke-miterlimit="10"/><path d="M298.55,241.84a.78.78,0,0,0,.43.7.78.78,0,0,0,1-.36,22.44,22.44,0,0,0,0-19.67.78.78,0,0,0-1.4.69,20.89,20.89,0,0,1,0,18.3A.68.68,0,0,0,298.55,241.84Z" fill="none" stroke="#003a50" stroke-miterlimit="10"/><path d="M289.88,241.84a.78.78,0,0,0,.43.7.78.78,0,0,0,1.05-.36,22.44,22.44,0,0,0,0-19.67.78.78,0,0,0-1.4.69,20.89,20.89,0,0,1,0,18.3A.68.68,0,0,0,289.88,241.84Z" fill="none" stroke="#003a50" stroke-miterlimit="10"/><path d="M285.54,241.84a.77.77,0,0,0,.44.7.79.79,0,0,0,1-.36,22.44,22.44,0,0,0,0-19.67.78.78,0,0,0-1.41.69,20.81,20.81,0,0,1,0,18.3A.81.81,0,0,0,285.54,241.84Z" fill="none" stroke="#003a50" stroke-miterlimit="10"/></g><line x1="280.88" y1="232.35" x2="315.16" y2="232.35" fill="none" stroke="#003a50" stroke-miterlimit="10"/><rect x="280.75" y="340.91" width="34.54" height="26.5" fill="none" stroke="#003a50" stroke-miterlimit="10"/><g clip-path="url(#clip-path)"><path d="M294.21,363.59a.77.77,0,0,0,.44.7.78.78,0,0,0,1-.36,22.35,22.35,0,0,0,0-19.67.78.78,0,0,0-1.4.69,20.81,20.81,0,0,1,0,18.3A.68.68,0,0,0,294.21,363.59Z" fill="none" stroke="#003a50" stroke-miterlimit="10"/><path d="M298.55,363.59a.78.78,0,0,0,.43.7.78.78,0,0,0,1-.36,22.44,22.44,0,0,0,0-19.67.78.78,0,0,0-1.4.69,20.89,20.89,0,0,1,0,18.3A.68.68,0,0,0,298.55,363.59Z" fill="none" stroke="#003a50" stroke-miterlimit="10"/><path d="M289.88,363.59a.78.78,0,0,0,.43.7.78.78,0,0,0,1.05-.36,22.44,22.44,0,0,0,0-19.67.78.78,0,0,0-1.4.69,20.89,20.89,0,0,1,0,18.3A.68.68,0,0,0,289.88,363.59Z" fill="none" stroke="#003a50" stroke-miterlimit="10"/><path d="M285.54,363.59a.77.77,0,0,0,.44.7.79.79,0,0,0,1-.36,22.44,22.44,0,0,0,0-19.67.78.78,0,0,0-1.41.69,20.81,20.81,0,0,1,0,18.3A.81.81,0,0,0,285.54,363.59Z" fill="none" stroke="#003a50" stroke-miterlimit="10"/></g><line x1="280.88" y1="354.1" x2="315.16" y2="354.1" fill="none" stroke="#003a50" stroke-miterlimit="10"/><g clip-path="url(#clip-path)"><path d="M166,117.66v-3.08a38.72,38.72,0,0,0-38.71-38.72v41.8" fill="none" stroke="#003a50" stroke-miterlimit="10" stroke-width="1.6"/><path d="M369.18,177.42v3.52a44.37,44.37,0,0,1-44.38,44.38v-47.9" fill="none" stroke="#003a50" stroke-miterlimit="10" stroke-width="1.6"/><path d="M56.88,109H52.82A51.12,51.12,0,0,1,1.69,57.9H56.88" fill="none" stroke="#003a50" stroke-miterlimit="10" stroke-width="1.6"/><path d="M57.42,375.65H53.35A51.13,51.13,0,0,0,2.22,426.77h55.2" fill="none" stroke="#003a50" stroke-miterlimit="10" stroke-width="1.6"/><rect x="51.64" y="36.33" width="16.32" height="22.32" fill="#003a50"/><rect x="51.64" y="107.99" width="16.32" height="100.85" fill="#003a50"/><rect x="51.64" y="36.34" width="45.82" height="10" fill="#003a50"/><rect x="51.64" y="198.13" width="51.56" height="11.71" fill="#003a50"/><rect x="91.49" y="198.13" width="11.71" height="31.86" fill="#003a50"/><rect x="51.64" y="201.34" width="10.82" height="175.07" fill="#003a50"/><rect x="86.7" y="-32.33" width="10.75" height="78.67" fill="#003a50"/><rect x="86.71" y="-0.04" width="447.72" height="16.32" fill="#003a50"/><rect x="459.45" y="172.66" width="74.97" height="21.34" fill="#003a50"/><rect x="246.45" y="367.33" width="287.97" height="16.26" fill="#003a50"/><rect x="92.45" y="212.5" width="160.47" height="17.49" fill="#003a50"/><rect x="236.67" y="214.33" width="17.28" height="252.92" fill="#003a50"/><polygon points="530.42 263.56 530.42 167.82 579.75 167.82 568.09 263.56 530.42 263.56" fill="#003a50" fill-rule="evenodd"/><rect x="530.42" y="-21.63" width="36.1" height="96.07" fill="#003a50"/><rect x="534.42" y="48.53" width="44.33" height="25.9" fill="#003a50"/><rect x="530.42" y="345.37" width="37.77" height="96.07" fill="#003a50"/><rect x="165.21" y="114.03" width="50.48" height="6.38" fill="#003a50"/><rect x="62.45" y="114.03" width="65.7" height="6.38" fill="#003a50"/><rect x="62.45" y="150.53" width="39.24" height="6.38" fill="#003a50"/><rect x="96.83" y="117.22" width="6.38" height="82.4" fill="#003a50"/><rect x="315.22" y="174.67" width="10.41" height="6.38" fill="#003a50"/><rect x="212.49" y="114.03" width="6.38" height="100.79" fill="#003a50"/><rect x="51.64" y="-26.91" width="6.38" height="73.25" fill="#003a50"/><rect x="250.52" y="212.5" width="67.89" height="6.38" fill="#003a50"/><rect x="368.27" y="174.67" width="102.25" height="6.38" fill="#003a50"/><rect x="83.11" y="-21.34" width="6.38" height="58.66" fill="#003a50"/><line x1="218.82" y1="45.12" x2="218.82" y2="47.96" fill="none" stroke="#003a50" stroke-miterlimit="10"/><line x1="218.82" y1="53.2" x2="218.82" y2="113.45" fill="none" stroke="#003a50" stroke-miterlimit="10" stroke-dasharray="5.24 5.24"/><line x1="218.82" y1="116.07" x2="218.82" y2="118.91" fill="none" stroke="#003a50" stroke-miterlimit="10"/><rect x="221.49" y="-34.33" width="6.38" height="40.24" fill="#003a50"/><rect x="193.93" y="-34.4" width="6.38" height="40.31" fill="#003a50"/><rect x="219.01" y="7" width="6.38" height="39.33" fill="#003a50"/><rect x="315.23" y="174.67" width="6.38" height="87.74" fill="#003a50"/><rect x="315.23" y="317.15" width="6.38" height="59.44" fill="#003a50"/><rect x="209.31" y="251.83" width="6.38" height="176.75" fill="#003a50"/><rect x="83.56" y="245.77" width="6.38" height="121.57" fill="#003a50"/><rect x="84.19" y="245.77" width="131.33" height="6.38" fill="#003a50"/><rect x="58.35" y="364.14" width="31.58" height="6.38" fill="#003a50"/></g><g clip-path="url(#clip-path)"><path d="M307.18,282.59h-5.82v-1.84h8.86v1.84l-4.52,2.65v.07H307a3.9,3.9,0,0,1,2.79,1,3.52,3.52,0,0,1,1.05,2.67,3.32,3.32,0,0,1-1.33,2.82,7,7,0,0,1-7.24,0,3.36,3.36,0,0,1-1.33-2.86v-.32H303V289c0,1.37,1,2,2.84,2s2.84-.67,2.84-2-.95-2-2.84-2h-3.26v-1.67l4.57-2.68Z" fill="#003a50"/><path d="M312.92,292.52a1,1,0,0,1-.32-.8,1.07,1.07,0,0,1,.32-.81,1.41,1.41,0,0,1,1.74,0,1.07,1.07,0,0,1,.32.81,1,1,0,0,1-.32.8,1.41,1.41,0,0,1-1.74,0Z" fill="#003a50"/><path d="M318.83,283.31l-2.49,1.95V283l2.74-2.27h1.86v11.91h-2.11Z" fill="#003a50"/><path d="M456.67,228.3l-2.49,1.95V228l2.74-2.27h1.86v11.91h-2.11Z" fill="#003a50"/><path d="M471.17,237.65h-9.94v-1.56a2.8,2.8,0,0,1,.58-1.74,4.12,4.12,0,0,1,1.45-1.2c.5-.25,1.12-.54,1.87-.86s1.32-.56,1.87-.77a4,4,0,0,0,1.45-.92,1.78,1.78,0,0,0,.57-1.3c0-1.26-.89-1.89-2.66-1.89s-2.68.72-2.68,2.16V230h-2.11v-.41a3.59,3.59,0,0,1,1.27-3,5.34,5.34,0,0,1,3.51-1,5.65,5.65,0,0,1,3.51,1,3.29,3.29,0,0,1,1.27,2.75,3.11,3.11,0,0,1-.55,1.83,4.31,4.31,0,0,1-1.41,1.31c-.59.34-1.21.65-1.83.93s-1.24.52-1.83.75a5.55,5.55,0,0,0-1.4.74,1.25,1.25,0,0,0-.57,1h7.63Z" fill="#003a50"/><path d="M473.27,237.52a1,1,0,0,1-.33-.8,1,1,0,0,1,.33-.81,1.4,1.4,0,0,1,1.73,0,1,1,0,0,1,.33.81,1,1,0,0,1-.33.8,1.4,1.4,0,0,1-1.73,0Z" fill="#003a50"/><path d="M480.38,237.65H478l5.41-10h-6.93v-1.88h9.29v1.88Z" fill="#003a50"/><path d="M459.23,104.67l-2.48,2v-2.24l2.73-2.27h1.86V114h-2.11Z" fill="#003a50"/><path d="M467.07,114h-2.36l5.42-10H463.2v-1.88h9.29V104Z" fill="#003a50"/><path d="M473.92,113.89a1,1,0,0,1-.33-.81,1,1,0,0,1,.33-.8,1.4,1.4,0,0,1,1.73,0,1,1,0,0,1,.33.8,1,1,0,0,1-.33.81,1.4,1.4,0,0,1-1.73,0Z" fill="#003a50"/><path d="M483.2,106a5.06,5.06,0,0,1,3.34,1.06,3.69,3.69,0,0,1,1.25,3,3.73,3.73,0,0,1-1.29,3,5.39,5.39,0,0,1-3.55,1.08,5.79,5.79,0,0,1-3.56-1,3.16,3.16,0,0,1-1.29-2.68h2.11a1.56,1.56,0,0,0,.7,1.33,3.62,3.62,0,0,0,2,.48,3.15,3.15,0,0,0,2-.57,2.37,2.37,0,0,0,0-3.39,3.25,3.25,0,0,0-2.07-.58,3.6,3.6,0,0,0-1.92.42,1.93,1.93,0,0,0-.7.64l-.05.12H478.1v-6.88H487V104h-6.77v3h.05a2.77,2.77,0,0,1,.4-.3,3.11,3.11,0,0,1,.55-.27A5.6,5.6,0,0,1,483.2,106Z" fill="#003a50"/><path d="M136.19,121.34h-5.83V119.5h8.87v1.84L134.7,124v.07H136a3.86,3.86,0,0,1,2.79,1,3.52,3.52,0,0,1,1,2.66,3.33,3.33,0,0,1-1.33,2.83,7,7,0,0,1-7.24,0,3.39,3.39,0,0,1-1.33-2.86v-.32H132v.32c0,1.36.95,2,2.84,2s2.84-.67,2.84-2-.94-2-2.84-2h-3.26v-1.67l4.58-2.68Z" fill="#003a50"/><path d="M141.92,131.27a1,1,0,0,1-.32-.8,1.07,1.07,0,0,1,.32-.81,1.25,1.25,0,0,1,.88-.3,1.22,1.22,0,0,1,.86.3,1,1,0,0,1,.32.81,1,1,0,0,1-.32.8,1.22,1.22,0,0,1-.86.3A1.25,1.25,0,0,1,141.92,131.27Z" fill="#003a50"/><path d="M155.54,122.85h-2.21s0-.06,0-.17a2.53,2.53,0,0,0-.22-.44,2.74,2.74,0,0,0-.38-.5,1.89,1.89,0,0,0-.72-.41,2.91,2.91,0,0,0-1-.16,2.51,2.51,0,0,0-2.15,1,4.44,4.44,0,0,0-.77,2.69h.06a1.63,1.63,0,0,1,.44-.43,3.55,3.55,0,0,1,.61-.37,3.67,3.67,0,0,1,1-.3,5.41,5.41,0,0,1,1.21-.13,5.06,5.06,0,0,1,3.38,1.11,3.54,3.54,0,0,1,1.3,2.8,3.61,3.61,0,0,1-1.36,2.91,5.59,5.59,0,0,1-3.61,1.1,4.81,4.81,0,0,1-3.87-1.54,6.38,6.38,0,0,1-1.32-4.27v-.41a6.85,6.85,0,0,1,1.32-4.31,4.52,4.52,0,0,1,3.81-1.71,5.64,5.64,0,0,1,2.12.37,4,4,0,0,1,1.44.94A3.45,3.45,0,0,1,155.54,122.85ZM153,126a3.67,3.67,0,0,0-4,0,2,2,0,0,0,0,3.15,3.63,3.63,0,0,0,4,0,2,2,0,0,0,0-3.15Z" fill="#003a50"/><path d="M88.17,90.4H86.06V87.75h-7V85.91l6.3-7.42h2.79v7.42h1.59v1.84H88.17Zm-2.11-4.49V80.58H86l-4.47,5.28v0Z" fill="#003a50"/><path d="M91.45,90.27a1,1,0,0,1-.32-.81,1,1,0,0,1,.32-.81,1.45,1.45,0,0,1,1.74,0,1.07,1.07,0,0,1,.32.81,1,1,0,0,1-.32.81,1.45,1.45,0,0,1-1.74,0Z" fill="#003a50"/><path d="M105.07,81.84h-2.21s0-.06,0-.17a1.85,1.85,0,0,0-.21-.44,2.69,2.69,0,0,0-.39-.5,2,2,0,0,0-.71-.41,3,3,0,0,0-1-.16,2.49,2.49,0,0,0-2.15,1,4.39,4.39,0,0,0-.76,2.68h.06a1.49,1.49,0,0,1,.44-.43,4.22,4.22,0,0,1,.6-.37,5.11,5.11,0,0,1,1-.3,5.49,5.49,0,0,1,1.22-.13,5,5,0,0,1,3.37,1.11,3.51,3.51,0,0,1,1.3,2.8,3.57,3.57,0,0,1-1.36,2.91,5.49,5.49,0,0,1-3.6,1.1A4.81,4.81,0,0,1,96.7,89a6.36,6.36,0,0,1-1.32-4.27v-.41A6.85,6.85,0,0,1,96.7,80a4.52,4.52,0,0,1,3.8-1.71,5.66,5.66,0,0,1,2.13.38,3.6,3.6,0,0,1,1.43.94A3.44,3.44,0,0,1,105.07,81.84ZM102.56,85a3.65,3.65,0,0,0-4,0,2,2,0,0,0,0,3.15,3.21,3.21,0,0,0,2,.59,3.26,3.26,0,0,0,2-.59,2,2,0,0,0,0-3.15Z" fill="#003a50"/></g></svg>