<svg id="Слой_1" data-name="Слой 1" xmlns="http://www.w3.org/2000/svg" xmlns:xlink="http://www.w3.org/1999/xlink" viewBox="0 0 581.1 228.47"><defs><clipPath id="clip-path"><rect width="581.1" height="228.47" fill="none"/></clipPath></defs><polygon points="53.43 224.36 53.43 228.47 531.06 228.47 531.06 225.11 74.59 225.11 74.59 224.36 53.43 224.36" fill="#fff"/><polygon points="62.16 12.12 531.06 12.12 531.06 222.14 60.56 222.14 67.16 106.36 67.16 56.86 62.16 12.12" fill="#fff"/><rect x="67.23" width="463.83" height="3.75" transform="translate(0 0.48) rotate(-0.09)" fill="#fff"/><g clip-path="url(#clip-path)"><rect x="-561.43" y="-1375.89" width="1115.44" height="2194.74" fill="none" stroke="#003a50" stroke-miterlimit="10"/><polygon points="-537.07 -290.15 -537.07 795.89 529.63 795.89 529.63 -1351.93 -537.07 -1352.09 -537.07 -358.95 -537.07 -290.15" fill="none" stroke="#003a50" stroke-miterlimit="10"/></g><rect x="540.78" y="76.56" width="4.56" height="87.34" fill="#fff"/><rect x="540.78" y="76.56" width="4.56" height="87.34" fill="none" stroke="#003a50" stroke-miterlimit="10"/><line x1="543.06" y1="163.91" x2="543.06" y2="76.56" fill="none" stroke="#003a50" stroke-miterlimit="10"/><rect x="540.78" y="159.5" width="4.56" height="4.41" fill="#fff"/><rect x="540.78" y="159.5" width="4.56" height="4.41" fill="none" stroke="#003a50" stroke-miterlimit="10"/><rect x="540.78" y="76.56" width="4.56" height="4.41" fill="#fff"/><rect x="540.78" y="76.56" width="4.56" height="4.41" fill="none" stroke="#003a50" stroke-miterlimit="10"/><rect x="540.78" y="118.03" width="4.56" height="4.41" fill="#fff"/><rect x="540.78" y="118.03" width="4.56" height="4.41" fill="none" stroke="#003a50" stroke-miterlimit="10"/><rect x="167.7" y="120.75" width="43.96" height="95.52" fill="none" stroke="#003a50" stroke-miterlimit="10"/><g clip-path="url(#clip-path)"><rect x="172.86" y="124.95" width="33.22" height="87.39" rx="13.7" fill="none" stroke="#003a50" stroke-miterlimit="10"/><circle cx="189.57" cy="197.21" r="2.28" fill="none" stroke="#003a50" stroke-miterlimit="10"/><path d="M130.85,168H102.28V144.91h28.57a11.54,11.54,0,1,1,0,23.08Z" fill="none" stroke="#003a50" stroke-miterlimit="10"/></g><rect x="102.28" y="144.91" width="11.08" height="23.08" fill="none" stroke="#003a50" stroke-miterlimit="10"/><rect x="67.02" y="114.87" width="28.89" height="16.34" fill="none" stroke="#003a50" stroke-miterlimit="10"/><g clip-path="url(#clip-path)"><path d="M118.91,194.65a3.15,3.15,0,0,0,2.91-2h1.79l4.73,2.83L126.19,199l-2.46-1.35v11h-10.3v-11L111,199l-2.15-3.49,4.78-2.83H116A3.2,3.2,0,0,0,118.91,194.65Z" fill="none" stroke="#003a50" stroke-miterlimit="10"/></g><rect x="102.79" y="185.46" width="31.57" height="30.42" fill="none" stroke="#003a50" stroke-miterlimit="10"/><g clip-path="url(#clip-path)"><rect x="354.87" y="228.29" width="33.97" height="34.02" fill="none" stroke="#003a50" stroke-miterlimit="10"/></g><rect x="218.53" y="147.59" width="34.02" height="33.97" fill="none" stroke="#003a50" stroke-miterlimit="10"/><g clip-path="url(#clip-path)"><path d="M231.24,163.05V152h8.6v11.05a3.55,3.55,0,0,1-3.54,3.54h-1.52A3.54,3.54,0,0,1,231.24,163.05Z" fill="none" stroke="#003a50" stroke-miterlimit="10"/></g><polyline points="239.01 177.15 235.54 177.15 232.06 177.15" fill="none" stroke="#003a50" stroke-miterlimit="10"/><line x1="235.54" y1="166.59" x2="235.54" y2="177.15" fill="none" stroke="#003a50" stroke-miterlimit="10"/><g clip-path="url(#clip-path)"><rect x="435.34" y="228.29" width="34.02" height="34.02" fill="none" stroke="#003a50" stroke-miterlimit="10"/></g><rect x="292.09" y="181.55" width="34.02" height="34.02" fill="none" stroke="#003a50" stroke-miterlimit="10"/><g clip-path="url(#clip-path)"><path d="M321.51,206.17a4.64,4.64,0,1,1-4.64-4.64A4.63,4.63,0,0,1,321.51,206.17Z" fill="none" stroke="#003a50" stroke-miterlimit="10"/><path d="M306,206.17a4.64,4.64,0,1,1-4.63-4.64A4.63,4.63,0,0,1,306,206.17Z" fill="none" stroke="#003a50" stroke-miterlimit="10"/><path d="M321.51,191.08a4.64,4.64,0,1,1-4.64-4.64A4.63,4.63,0,0,1,321.51,191.08Z" fill="none" stroke="#003a50" stroke-miterlimit="10"/><path d="M306,191.08a4.64,4.64,0,1,1-4.63-4.64A4.63,4.63,0,0,1,306,191.08Z" fill="none" stroke="#003a50" stroke-miterlimit="10"/><rect x="269.55" y="-34.01" width="34.02" height="34.02" fill="none" stroke="#003a50" stroke-miterlimit="10"/></g><rect x="354.6" y="16.19" width="175.03" height="17.01" fill="none" stroke="#003a50" stroke-miterlimit="10"/><polygon points="506.41 25.23 463.51 21.7 420.41 25.23 420.41 27.69 506.41 27.69 506.41 25.23" fill="none" stroke="#003a50" stroke-miterlimit="10"/><g clip-path="url(#clip-path)"><rect x="295.91" y="228.15" width="199.76" height="34.28" fill="none" stroke="#003a50" stroke-miterlimit="10"/><rect x="213.37" y="-34.14" width="152.36" height="34.28" fill="none" stroke="#003a50" stroke-miterlimit="10"/><rect x="247.55" y="227.94" width="42.22" height="83.62" fill="none" stroke="#003a50" stroke-miterlimit="10"/></g><polyline points="264.69 211.84 271.49 211.84 278.27 211.84" fill="none" stroke="#003a50" stroke-miterlimit="10"/><line x1="271.51" y1="198.22" x2="271.51" y2="211.84" fill="none" stroke="#003a50" stroke-miterlimit="10"/><g clip-path="url(#clip-path)"><path d="M256.43,187.58v15.2a3.24,3.24,0,0,0,3.24,3.23h23.59a3.24,3.24,0,0,0,3.24-3.23v-15.2a3.24,3.24,0,0,0-3.24-3.24H259.67A3.24,3.24,0,0,0,256.43,187.58Z" fill="none" stroke="#003a50" stroke-miterlimit="10"/><path d="M271.51,196.52a2.43,2.43,0,1,0,2.42,2.43A2.42,2.42,0,0,0,271.51,196.52Z" fill="none" stroke="#003a50" stroke-miterlimit="10"/></g><rect x="218.53" y="181.55" width="136.06" height="34.02" fill="none" stroke="#003a50" stroke-miterlimit="10"/><g clip-path="url(#clip-path)"><polygon points="247.29 259.26 173.83 259.05 173.83 228.5 247.29 228.72 247.29 259.26" fill="none" stroke="#003a50" stroke-miterlimit="10"/><path d="M214.66,253.24v-23a3.35,3.35,0,0,1,3.35-3.36h22.25a3.36,3.36,0,0,1,3.36,3.36v23a3.36,3.36,0,0,1-3.36,3.36H218A3.35,3.35,0,0,1,214.66,253.24Z" fill="none" stroke="#003a50" stroke-miterlimit="10"/></g><polygon points="167.48 185.37 102.51 185.58 102.51 216.13 167.48 215.91 167.48 185.37" fill="none" stroke="#003a50" stroke-miterlimit="10"/><g clip-path="url(#clip-path)"><path d="M137.09,191.39v23a3.35,3.35,0,0,0,3.35,3.36h22.25a3.36,3.36,0,0,0,3.36-3.36v-23a3.36,3.36,0,0,0-3.36-3.36H140.44A3.35,3.35,0,0,0,137.09,191.39Z" fill="none" stroke="#003a50" stroke-miterlimit="10"/><circle cx="151.57" cy="202.89" r="2.27" fill="none" stroke="#003a50" stroke-miterlimit="10"/></g><rect x="218.53" y="113.51" width="34.02" height="34.02" fill="none" stroke="#003a50" stroke-miterlimit="10"/><line x1="235.54" y1="140.5" x2="235.54" y2="120.54" fill="none" stroke="#003a50" stroke-miterlimit="10"/><line x1="245.52" y1="130.52" x2="225.56" y2="130.52" fill="none" stroke="#003a50" stroke-miterlimit="10"/><line x1="242.59" y1="137.58" x2="228.48" y2="123.47" fill="none" stroke="#003a50" stroke-miterlimit="10"/><line x1="242.59" y1="123.46" x2="228.48" y2="137.58" fill="none" stroke="#003a50" stroke-miterlimit="10"/><g clip-path="url(#clip-path)"><rect x="495.33" y="228.43" width="34.02" height="34.02" fill="none" stroke="#003a50" stroke-miterlimit="10"/><rect x="179.32" y="-34.15" width="34.02" height="34.02" fill="none" stroke="#003a50" stroke-miterlimit="10"/></g><rect x="207" y="16.19" width="147.59" height="34.02" fill="none" stroke="#003a50" stroke-miterlimit="10"/><g clip-path="url(#clip-path)"><path d="M337.48,21a1,1,0,0,0-.56-.9,1,1,0,0,0-1.35.45,28.77,28.77,0,0,0,0,25.26,1,1,0,0,0,1.34.46,1,1,0,0,0,.46-1.34,26.81,26.81,0,0,1,0-23.49A.9.9,0,0,0,337.48,21Z" fill="none" stroke="#003a50" stroke-miterlimit="10"/><path d="M331.91,21a1,1,0,0,0-.56-.9,1,1,0,0,0-1.34.45,28.77,28.77,0,0,0,0,25.26,1,1,0,0,0,1.8-.88,26.72,26.72,0,0,1,0-23.49A1,1,0,0,0,331.91,21Z" fill="none" stroke="#003a50" stroke-miterlimit="10"/><path d="M326.35,21a1,1,0,0,0-.56-.9,1,1,0,0,0-1.35.45,28.77,28.77,0,0,0,0,25.26,1,1,0,0,0,1.34.46,1,1,0,0,0,.46-1.34,26.81,26.81,0,0,1,0-23.49A.9.9,0,0,0,326.35,21Z" fill="none" stroke="#003a50" stroke-miterlimit="10"/><path d="M320.78,21a1,1,0,0,0-1.9-.45,28.77,28.77,0,0,0,0,25.26,1,1,0,0,0,1.8-.88,26.72,26.72,0,0,1,0-23.49A1,1,0,0,0,320.78,21Z" fill="none" stroke="#003a50" stroke-miterlimit="10"/><path d="M315.22,21a1,1,0,0,0-.56-.9,1,1,0,0,0-1.35.45,28.77,28.77,0,0,0,0,25.26,1,1,0,0,0,1.34.46,1,1,0,0,0,.46-1.34,26.81,26.81,0,0,1,0-23.49A.9.9,0,0,0,315.22,21Z" fill="none" stroke="#003a50" stroke-miterlimit="10"/><path d="M309.65,21a1,1,0,0,0-1.9-.45,28.77,28.77,0,0,0,0,25.26,1,1,0,1,0,1.8-.88,26.72,26.72,0,0,1,0-23.49A1,1,0,0,0,309.65,21Z" fill="none" stroke="#003a50" stroke-miterlimit="10"/><path d="M343,21a1,1,0,0,0-.56-.9,1,1,0,0,0-1.34.45,28.77,28.77,0,0,0,0,25.26,1,1,0,0,0,1.8-.88,26.72,26.72,0,0,1,0-23.49A1,1,0,0,0,343,21Z" fill="none" stroke="#003a50" stroke-miterlimit="10"/><path d="M348.61,21a1,1,0,0,0-1.9-.45,28.77,28.77,0,0,0,0,25.26,1,1,0,0,0,1.8-.88,26.72,26.72,0,0,1,0-23.49A1,1,0,0,0,348.61,21Z" fill="none" stroke="#003a50" stroke-miterlimit="10"/></g><line x1="354.6" y1="33.19" x2="207" y2="33.19" fill="none" stroke="#003a50" stroke-miterlimit="10"/><g clip-path="url(#clip-path)"><rect x="67.16" y="-34.01" width="105.88" height="33.88" fill="none" stroke="#003a50" stroke-miterlimit="10"/></g><rect x="67.16" y="16.25" width="133.47" height="33.88" fill="none" stroke="#003a50" stroke-miterlimit="10"/><g clip-path="url(#clip-path)"><path d="M83.13,21.05a1,1,0,0,1,.52-.89.91.91,0,0,1,1.26.45,30.45,30.45,0,0,1,0,25.16.91.91,0,0,1-1.25.46,1,1,0,0,1-.43-1.34,28.32,28.32,0,0,0,0-23.4A1,1,0,0,1,83.13,21.05Z" fill="none" stroke="#003a50" stroke-miterlimit="10"/><path d="M88.32,21.05a1,1,0,0,1,.53-.89.9.9,0,0,1,1.25.45,30.45,30.45,0,0,1,0,25.16.91.91,0,0,1-1.25.46,1,1,0,0,1-.43-1.34,28.22,28.22,0,0,0,0-23.4A1,1,0,0,1,88.32,21.05Z" fill="none" stroke="#003a50" stroke-miterlimit="10"/><path d="M93.52,21.05a1,1,0,0,1,.52-.89.9.9,0,0,1,1.25.45,30.35,30.35,0,0,1,0,25.16.91.91,0,0,1-1.25.46,1,1,0,0,1-.43-1.34,28.22,28.22,0,0,0,0-23.4A1,1,0,0,1,93.52,21.05Z" fill="none" stroke="#003a50" stroke-miterlimit="10"/><path d="M98.71,21.05a1,1,0,0,1,.52-.89.91.91,0,0,1,1.26.45,30.45,30.45,0,0,1,0,25.16.91.91,0,0,1-1.25.46,1,1,0,0,1-.43-1.34,28.32,28.32,0,0,0,0-23.4A1,1,0,0,1,98.71,21.05Z" fill="none" stroke="#003a50" stroke-miterlimit="10"/><path d="M103.9,21.05a1,1,0,0,1,.53-.89.9.9,0,0,1,1.25.45,30.45,30.45,0,0,1,0,25.16.91.91,0,0,1-1.25.46,1,1,0,0,1-.43-1.34,28.32,28.32,0,0,0,0-23.4A1,1,0,0,1,103.9,21.05Z" fill="none" stroke="#003a50" stroke-miterlimit="10"/><path d="M109.09,21.05a1,1,0,0,1,.53-.89.9.9,0,0,1,1.25.45,30.45,30.45,0,0,1,0,25.16.91.91,0,0,1-1.25.46,1,1,0,0,1-.43-1.34,28.22,28.22,0,0,0,0-23.4A1,1,0,0,1,109.09,21.05Z" fill="none" stroke="#003a50" stroke-miterlimit="10"/><path d="M77.94,21.05a1,1,0,0,1,.52-.89.9.9,0,0,1,1.25.45,30.35,30.35,0,0,1,0,25.16.9.9,0,0,1-1.24.46A1,1,0,0,1,78,44.89a28.22,28.22,0,0,0,0-23.4A1.12,1.12,0,0,1,77.94,21.05Z" fill="none" stroke="#003a50" stroke-miterlimit="10"/><path d="M72.75,21.05a1,1,0,0,1,.52-.89.9.9,0,0,1,1.25.45,30.35,30.35,0,0,1,0,25.16.91.91,0,0,1-1.25.46,1,1,0,0,1-.43-1.34,28.22,28.22,0,0,0,0-23.4A1,1,0,0,1,72.75,21.05Z" fill="none" stroke="#003a50" stroke-miterlimit="10"/></g><line x1="67.16" y1="33.19" x2="200.63" y2="33.19" fill="none" stroke="#003a50" stroke-miterlimit="10"/><g clip-path="url(#clip-path)"><rect x="331.44" y="-34.15" width="34.02" height="34.02" fill="none" stroke="#003a50" stroke-miterlimit="10"/><path d="M469.31,169.7v41H423.54V167.49h43.55A2.21,2.21,0,0,1,469.31,169.7Z" fill="none" stroke="#003a50" stroke-miterlimit="10"/><path d="M515.18,169.47v41.26H469.4V169.47a2,2,0,0,1,2-2h41.8A2,2,0,0,1,515.18,169.47Z" fill="none" stroke="#003a50" stroke-miterlimit="10"/><path d="M423.54,167.49a3.11,3.11,0,0,0-3.33-2.83H416a3.11,3.11,0,0,0-3.33,2.83v48.19H526.05V167.91a3.11,3.11,0,0,0-3.33-2.83H518.5a3.1,3.1,0,0,0-3.32,2.83v42.83H423.54Z" fill="none" stroke="#003a50" stroke-miterlimit="10"/></g><rect x="423.54" y="201.48" width="91.64" height="9.25" fill="none" stroke="#003a50" stroke-miterlimit="10"/><g clip-path="url(#clip-path)"><path d="M359.51,115.44a1.13,1.13,0,0,0-1.14,1.14,1.15,1.15,0,0,0,1.14,1.14,12.51,12.51,0,0,1,0,25,1.14,1.14,0,0,0,0,2.28,14.79,14.79,0,1,0,0-29.57Z" fill="none" stroke="#003a50" stroke-miterlimit="10"/><path d="M359,140.88a10.66,10.66,0,1,0-4.38-20.36v19.4A10.51,10.51,0,0,0,359,140.88Z" fill="none" stroke="#003a50" stroke-miterlimit="10"/><path d="M359.51,150.19a1.14,1.14,0,0,0,0,2.28,12.51,12.51,0,0,1,0,25,1.14,1.14,0,0,0,0,2.28,14.79,14.79,0,1,0,0-29.57Z" fill="none" stroke="#003a50" stroke-miterlimit="10"/><path d="M359,175.63a10.66,10.66,0,1,0-4.38-20.36v19.4A10.51,10.51,0,0,0,359,175.63Z" fill="none" stroke="#003a50" stroke-miterlimit="10"/></g><rect x="326.11" y="113.55" width="28.5" height="68.04" fill="none" stroke="#003a50" stroke-miterlimit="10"/><g clip-path="url(#clip-path)"><path d="M162.37,118v-3.08a38.71,38.71,0,0,0-38.71-38.71V118" fill="none" stroke="#003a50" stroke-miterlimit="10" stroke-width="1.6"/><path d="M56.62,56.23H52.56A51.13,51.13,0,0,0,1.43,107.36H56.62" fill="none" stroke="#003a50" stroke-miterlimit="10" stroke-width="1.6"/><rect x="50.84" y="-41.39" width="16.32" height="98.25" fill="#003a50"/><rect x="50.84" y="106.36" width="16.32" height="115.78" fill="#003a50"/><rect x="74.59" y="227.57" width="11.82" height="64.29" fill="#003a50"/><rect x="63.32" y="-0.15" width="474.34" height="16.32" fill="#003a50"/><rect x="50.84" y="215.85" width="486.82" height="12.6" fill="#003a50"/><polygon points="529.63 260.12 529.63 164.38 578.96 164.38 567.29 260.12 529.63 260.12" fill="#003a50" fill-rule="evenodd"/><rect x="529.63" y="-19.97" width="37.77" height="96.07" fill="#003a50"/><rect x="533.63" y="50.19" width="39.53" height="25.9" fill="#003a50"/><rect x="161.54" y="114.37" width="53.52" height="6.38" fill="#003a50"/><rect x="211.88" y="114.37" width="6.38" height="103.38" fill="#003a50"/><rect x="95.91" y="114.37" width="28.58" height="6.38" fill="#003a50"/><rect x="66.54" y="131.2" width="33.64" height="6.38" fill="#003a50"/><rect x="66.54" y="167.04" width="33.64" height="6.38" fill="#003a50"/><rect x="95.91" y="116.56" width="6.38" height="101.24" fill="#003a50"/><rect x="289.54" y="226.11" width="6.38" height="88.64" fill="#003a50"/><rect x="167.19" y="226.11" width="6.38" height="88.64" fill="#003a50"/><rect x="141.69" y="225.11" width="6.38" height="26.49" fill="#003a50"/><rect x="50.84" y="217.8" width="5.98" height="81.48" fill="#003a50"/><rect x="200.62" y="12.04" width="6.38" height="38.4" fill="#003a50"/><rect x="173.04" y="-34.01" width="6.38" height="40.91" fill="#003a50"/><rect x="152.03" y="-21.33" width="6.38" height="26.75" fill="#003a50"/><rect x="178.57" y="32.49" width="24.71" height="6.38" fill="#003a50"/><rect x="178.57" y="12.12" width="6.38" height="26.75" fill="#003a50"/><line x1="207" y1="49.12" x2="207" y2="51.95" fill="none" stroke="#003a50" stroke-miterlimit="10"/><line x1="207" y1="57.44" x2="207" y2="109.57" fill="none" stroke="#003a50" stroke-miterlimit="10" stroke-dasharray="5.49 5.49"/><line x1="207" y1="112.32" x2="207" y2="115.15" fill="none" stroke="#003a50" stroke-miterlimit="10"/></g><path d="M142.26,132.35h-5.82v-1.84h8.86v1.84L140.78,135v.07h1.28a3.9,3.9,0,0,1,2.79,1,3.52,3.52,0,0,1,1.05,2.67,3.32,3.32,0,0,1-1.33,2.82,6.93,6.93,0,0,1-7.24,0,3.35,3.35,0,0,1-1.33-2.85v-.33h2.11v.33c0,1.36.95,2,2.84,2s2.84-.67,2.84-2-.95-2-2.84-2h-3.26V135.1l4.57-2.68Z" fill="#003a50"/><path d="M148,142.29a1.17,1.17,0,0,1,0-1.61,1.41,1.41,0,0,1,1.74,0,1.17,1.17,0,0,1,0,1.61,1.41,1.41,0,0,1-1.74,0Z" fill="#003a50"/><path d="M157.29,134.44a5,5,0,0,1,3.33,1.06,4.17,4.17,0,0,1,0,6,5.38,5.38,0,0,1-3.54,1.08,5.8,5.8,0,0,1-3.57-1,3.16,3.16,0,0,1-1.28-2.68h2.11a1.51,1.51,0,0,0,.7,1.33,3.53,3.53,0,0,0,2,.49,3.17,3.17,0,0,0,2-.57,2.08,2.08,0,0,0,.7-1.69,2,2,0,0,0-.74-1.7,3.25,3.25,0,0,0-2.07-.58,3.7,3.7,0,0,0-1.92.41,2,2,0,0,0-.69.64l0,.13h-2.11v-6.88h8.87v1.84H154.3v3h0a2.21,2.21,0,0,1,.39-.31,3.94,3.94,0,0,1,.55-.26A5.66,5.66,0,0,1,157.29,134.44Z" fill="#003a50"/><path d="M88.55,77.93H86.44V75.28h-7V73.43L85.76,66h2.79v7.41h1.59v1.85H88.55Zm-2.11-4.5V68.11h-.07L81.9,73.38v.05Z" fill="#003a50"/><path d="M91.83,77.79a1,1,0,0,1-.32-.8,1,1,0,0,1,.32-.81,1.41,1.41,0,0,1,1.74,0,1.07,1.07,0,0,1,.32.81,1,1,0,0,1-.32.8,1.41,1.41,0,0,1-1.74,0Z" fill="#003a50"/><path d="M101.11,69.94A5,5,0,0,1,104.45,71a4.16,4.16,0,0,1,0,6,5.38,5.38,0,0,1-3.54,1.08,5.8,5.8,0,0,1-3.57-1A3.15,3.15,0,0,1,96,74.44h2.1a1.53,1.53,0,0,0,.71,1.33,3.57,3.57,0,0,0,2,.49,3.11,3.11,0,0,0,2-.58,2.06,2.06,0,0,0,.7-1.68,2,2,0,0,0-.74-1.7,3.25,3.25,0,0,0-2.07-.59,3.6,3.6,0,0,0-1.92.42,2,2,0,0,0-.7.64l0,.12H96V66h8.87v1.84H98.12v3h0a2.22,2.22,0,0,1,.4-.31,4,4,0,0,1,.55-.27A5.63,5.63,0,0,1,101.11,69.94Z" fill="#003a50"/><path d="M267.41,67.86h-5.82V66h8.86v1.84l-4.53,2.65v.07h1.28a3.86,3.86,0,0,1,2.79,1,3.52,3.52,0,0,1,1.06,2.66,3.35,3.35,0,0,1-1.33,2.83,7,7,0,0,1-7.25,0,3.38,3.38,0,0,1-1.32-2.86V73.9h2.11v.32c0,1.36.94,2,2.84,2s2.84-.67,2.84-2-.95-2-2.84-2h-3.27V70.61l4.58-2.68Z" fill="#003a50"/><path d="M273.15,77.79a1,1,0,0,1-.33-.8,1,1,0,0,1,.33-.81,1.4,1.4,0,0,1,1.73,0,1,1,0,0,1,.33.81,1,1,0,0,1-.33.8,1.4,1.4,0,0,1-1.73,0Z" fill="#003a50"/><path d="M279.05,68.57l-2.48,2V68.28L279.3,66h1.86V77.93h-2.11Z" fill="#003a50"/><path d="M454.15,105.19l-2.48,2V104.9l2.73-2.26h1.86v11.9h-2.11Z" fill="#003a50"/><path d="M462,114.54h-2.36l5.42-10h-6.93v-1.87h9.29v1.87Z" fill="#003a50"/><path d="M468.84,114.41a1,1,0,0,1-.33-.8,1,1,0,0,1,.33-.81,1.4,1.4,0,0,1,1.73,0,1,1,0,0,1,.33.81,1,1,0,0,1-.33.8,1.4,1.4,0,0,1-1.73,0Z" fill="#003a50"/><path d="M473,111.2h2.21s0,.07,0,.18a3.22,3.22,0,0,0,.23.43,2.09,2.09,0,0,0,.41.48,2.14,2.14,0,0,0,.75.42,3.21,3.21,0,0,0,1.05.16,2.68,2.68,0,0,0,2.25-1.06,4.36,4.36,0,0,0,.8-2.71h-.06a2,2,0,0,1-.44.47,2.92,2.92,0,0,1-.59.4,3.88,3.88,0,0,1-.95.32,5.58,5.58,0,0,1-1.23.13,5,5,0,0,1-3.36-1.12,3.72,3.72,0,0,1,.05-5.73,5.55,5.55,0,0,1,3.6-1.1A4.81,4.81,0,0,1,481.6,104a6.4,6.4,0,0,1,1.32,4.27v.41a6.7,6.7,0,0,1-1.37,4.31,4.69,4.69,0,0,1-3.89,1.71,5.9,5.9,0,0,1-2.16-.37,3.86,3.86,0,0,1-1.48-1A3.33,3.33,0,0,1,473,111.2Zm2.78-3.17a3.58,3.58,0,0,0,3.94,0,1.85,1.85,0,0,0,.78-1.57,1.88,1.88,0,0,0-.77-1.57,3.22,3.22,0,0,0-2-.59,3.16,3.16,0,0,0-2,.59,2,2,0,0,0,0,3.14Z" fill="#003a50"/></svg>