<svg id="Слой_1" data-name="Слой 1" xmlns="http://www.w3.org/2000/svg" xmlns:xlink="http://www.w3.org/1999/xlink" viewBox="0 0 583.94 629.29"><defs><clipPath id="clip-path"><polygon points="0 0.04 0 161.43 50.85 161.43 50.85 228.16 157.32 228.16 157.32 629.29 581.39 629.29 581.39 0.04 0 0.04" fill="none"/></clipPath></defs><polygon points="50.85 227.51 50.85 228.16 157.32 228.16 157.32 588.46 165.44 588.46 163.25 221.45 50.85 227.51" fill="#fff"/><polygon points="53.46 8.53 53.46 77.48 67.19 109.78 67.19 159.28 59.69 222.15 163.26 221.45 163.92 586.92 531.09 588.46 531.09 228.55 531.09 9.28 74.62 9.28 74.62 8.53 53.46 8.53" fill="#fff"/><polygon points="60.95 0.04 60.59 6.31 531.09 6.31 531.09 0.04 60.95 0.04" fill="#fff"/><g clip-path="url(#clip-path)"><rect x="-561.4" y="-1591.72" width="1115.44" height="2194.74" fill="none" stroke="#003a50" stroke-miterlimit="10"/><polygon points="-537.04 -505.98 -537.04 580.06 529.65 580.06 529.65 -1567.76 -537.04 -1567.92 -537.04 -574.78 -537.04 -505.98" fill="none" stroke="#003a50" stroke-miterlimit="10"/></g><rect x="195.54" y="588.4" width="85.68" height="4.56" fill="#fff"/><rect x="195.54" y="588.4" width="85.68" height="4.56" fill="none" stroke="#003a50" stroke-miterlimit="10"/><line x1="195.54" y1="590.68" x2="281.22" y2="590.68" fill="none" stroke="#003a50" stroke-miterlimit="10"/><rect x="195.54" y="588.4" width="4.32" height="4.56" fill="#fff"/><rect x="195.54" y="588.4" width="4.32" height="4.56" fill="none" stroke="#003a50" stroke-miterlimit="10"/><rect x="276.89" y="588.4" width="4.32" height="4.56" fill="#fff"/><rect x="276.89" y="588.4" width="4.32" height="4.56" fill="none" stroke="#003a50" stroke-miterlimit="10"/><rect x="236.21" y="588.4" width="4.32" height="4.56" fill="#fff"/><rect x="236.21" y="588.4" width="4.32" height="4.56" fill="none" stroke="#003a50" stroke-miterlimit="10"/><rect x="377.56" y="588.4" width="89.52" height="4.56" fill="#fff"/><rect x="377.56" y="588.4" width="89.52" height="4.56" fill="none" stroke="#003a50" stroke-miterlimit="10"/><line x1="377.56" y1="590.68" x2="467.08" y2="590.68" fill="none" stroke="#003a50" stroke-miterlimit="10"/><rect x="377.56" y="588.4" width="4.52" height="4.56" fill="#fff"/><rect x="377.56" y="588.4" width="4.52" height="4.56" fill="none" stroke="#003a50" stroke-miterlimit="10"/><rect x="462.57" y="588.4" width="4.52" height="4.56" fill="#fff"/><rect x="462.56" y="588.4" width="4.52" height="4.56" fill="none" stroke="#003a50" stroke-miterlimit="10"/><rect x="420.07" y="588.4" width="4.52" height="4.56" fill="#fff"/><rect x="420.06" y="588.4" width="4.52" height="4.56" fill="none" stroke="#003a50" stroke-miterlimit="10"/><rect x="540.81" y="227.65" width="4.56" height="89" fill="#fff"/><rect x="540.81" y="227.66" width="4.56" height="89" fill="none" stroke="#003a50" stroke-miterlimit="10"/><line x1="543.09" y1="316.65" x2="543.09" y2="227.65" fill="none" stroke="#003a50" stroke-miterlimit="10"/><rect x="540.81" y="312.16" width="4.56" height="4.49" fill="#fff"/><rect x="540.81" y="312.16" width="4.56" height="4.49" fill="none" stroke="#003a50" stroke-miterlimit="10"/><rect x="540.81" y="227.65" width="4.56" height="4.49" fill="#fff"/><rect x="540.81" y="227.66" width="4.56" height="4.49" fill="none" stroke="#003a50" stroke-miterlimit="10"/><rect x="540.81" y="269.9" width="4.56" height="4.5" fill="#fff"/><rect x="540.81" y="269.9" width="4.56" height="4.5" fill="none" stroke="#003a50" stroke-miterlimit="10"/><rect x="540.81" y="413.22" width="4.56" height="142.95" fill="#fff"/><rect x="540.81" y="413.22" width="4.56" height="142.95" fill="none" stroke="#003a50" stroke-miterlimit="10"/><line x1="543.09" y1="413.23" x2="543.09" y2="556.17" fill="none" stroke="#003a50" stroke-miterlimit="10"/><rect x="540.81" y="447.82" width="4.56" height="4.57" fill="#fff"/><rect x="540.81" y="447.82" width="4.56" height="4.57" fill="none" stroke="#003a50" stroke-miterlimit="10"/><rect x="540.81" y="482.42" width="4.56" height="4.57" fill="#fff"/><rect x="540.81" y="482.42" width="4.56" height="4.57" fill="none" stroke="#003a50" stroke-miterlimit="10"/><rect x="540.81" y="413.22" width="4.56" height="4.57" fill="#fff"/><rect x="540.81" y="413.22" width="4.56" height="4.57" fill="none" stroke="#003a50" stroke-miterlimit="10"/><rect x="540.81" y="551.6" width="4.56" height="4.57" fill="#fff"/><rect x="540.81" y="551.6" width="4.56" height="4.57" fill="none" stroke="#003a50" stroke-miterlimit="10"/><rect x="540.81" y="517.01" width="4.56" height="4.57" fill="#fff"/><rect x="540.81" y="517.01" width="4.56" height="4.57" fill="none" stroke="#003a50" stroke-miterlimit="10"/><rect x="540.81" y="44.72" width="4.56" height="87.34" fill="#fff"/><rect x="540.81" y="44.72" width="4.56" height="87.34" fill="none" stroke="#003a50" stroke-miterlimit="10"/><line x1="543.09" y1="132.07" x2="543.09" y2="44.72" fill="none" stroke="#003a50" stroke-miterlimit="10"/><rect x="540.81" y="127.66" width="4.56" height="4.41" fill="#fff"/><rect x="540.81" y="127.66" width="4.56" height="4.41" fill="none" stroke="#003a50" stroke-miterlimit="10"/><rect x="540.81" y="44.72" width="4.56" height="4.41" fill="#fff"/><rect x="540.81" y="44.72" width="4.56" height="4.41" fill="none" stroke="#003a50" stroke-miterlimit="10"/><rect x="540.81" y="86.19" width="4.56" height="4.41" fill="#fff"/><rect x="540.81" y="86.19" width="4.56" height="4.41" fill="none" stroke="#003a50" stroke-miterlimit="10"/><rect x="248.74" y="174.4" width="42.38" height="92.09" fill="none" stroke="#003a50" stroke-miterlimit="10"/><g clip-path="url(#clip-path)"><rect x="253.72" y="178.2" width="32.03" height="84.24" rx="13.7" fill="none" stroke="#003a50" stroke-miterlimit="10"/><path d="M272,192.78a2.21,2.21,0,1,0-2.2,2.2A2.2,2.2,0,0,0,272,192.78Z" fill="none" stroke="#003a50" stroke-miterlimit="10"/><path d="M201.85,222.69H173.28v23.07h28.57a11.54,11.54,0,1,0,0-23.07Z" fill="none" stroke="#003a50" stroke-miterlimit="10"/></g><rect x="173.29" y="222.69" width="11.08" height="23.08" fill="none" stroke="#003a50" stroke-miterlimit="10"/><g clip-path="url(#clip-path)"><rect x="167.73" y="-95.08" width="43.96" height="95.52" fill="none" stroke="#003a50" stroke-miterlimit="10"/><path d="M201.85,49.75H173.28V72.83h28.57a11.54,11.54,0,0,0,0-23.08Z" fill="none" stroke="#003a50" stroke-miterlimit="10"/></g><rect x="173.29" y="49.75" width="11.08" height="23.08" fill="none" stroke="#003a50" stroke-miterlimit="10"/><g clip-path="url(#clip-path)"><rect x="102.82" y="-30.37" width="31.57" height="30.42" fill="none" stroke="#003a50" stroke-miterlimit="10"/><path d="M151.81,74.5a3.15,3.15,0,0,0,2.9-1.94h1.79l4.73,2.82-2.14,3.5-2.47-1.36v11h-10.3v-11l-2.46,1.36-2.15-3.5,4.77-2.82h2.39A3.2,3.2,0,0,0,151.81,74.5Z" fill="none" stroke="#003a50" stroke-miterlimit="10"/></g><rect x="135.69" y="65.34" width="31.57" height="30.36" fill="none" stroke="#003a50" stroke-miterlimit="10"/><rect x="354.9" y="12.46" width="33.97" height="34.02" fill="none" stroke="#003a50" stroke-miterlimit="10"/><g clip-path="url(#clip-path)"><path d="M376.21,28.67v-11H367.6V28.67a3.55,3.55,0,0,0,3.55,3.55h1.51A3.55,3.55,0,0,0,376.21,28.67Z" fill="none" stroke="#003a50" stroke-miterlimit="10"/></g><polyline points="368.43 42.77 371.91 42.77 375.38 42.77" fill="none" stroke="#003a50" stroke-miterlimit="10"/><line x1="371.91" y1="32.21" x2="371.91" y2="42.77" fill="none" stroke="#003a50" stroke-miterlimit="10"/><g clip-path="url(#clip-path)"><rect x="123.6" y="260.75" width="34.02" height="33.97" fill="none" stroke="#003a50" stroke-miterlimit="10"/><path d="M144.91,276.22v-11h-8.6v11a3.54,3.54,0,0,0,3.54,3.55h1.52A3.55,3.55,0,0,0,144.91,276.22Z" fill="none" stroke="#003a50" stroke-miterlimit="10"/></g><rect x="435.36" y="12.46" width="34.02" height="34.02" fill="none" stroke="#003a50" stroke-miterlimit="10"/><g clip-path="url(#clip-path)"><path d="M464.78,37.07a4.64,4.64,0,1,1-4.64-4.63A4.64,4.64,0,0,1,464.78,37.07Z" fill="none" stroke="#003a50" stroke-miterlimit="10"/><path d="M449.3,37.07a4.64,4.64,0,1,1-4.64-4.63A4.64,4.64,0,0,1,449.3,37.07Z" fill="none" stroke="#003a50" stroke-miterlimit="10"/><path d="M464.78,22a4.64,4.64,0,1,1-4.64-4.64A4.64,4.64,0,0,1,464.78,22Z" fill="none" stroke="#003a50" stroke-miterlimit="10"/><path d="M449.3,22a4.64,4.64,0,1,1-4.64-4.64A4.64,4.64,0,0,1,449.3,22Z" fill="none" stroke="#003a50" stroke-miterlimit="10"/><rect x="292.12" y="-34.28" width="34.02" height="34.02" fill="none" stroke="#003a50" stroke-miterlimit="10"/><rect x="123.68" y="301.86" width="34.02" height="34.02" fill="none" stroke="#003a50" stroke-miterlimit="10"/><path d="M133.09,331.28a4.64,4.64,0,1,1,4.64-4.64A4.64,4.64,0,0,1,133.09,331.28Z" fill="none" stroke="#003a50" stroke-miterlimit="10"/><path d="M133.09,315.79a4.64,4.64,0,1,1,4.64-4.63A4.63,4.63,0,0,1,133.09,315.79Z" fill="none" stroke="#003a50" stroke-miterlimit="10"/><path d="M148.18,331.28a4.64,4.64,0,1,1,4.64-4.64A4.64,4.64,0,0,1,148.18,331.28Z" fill="none" stroke="#003a50" stroke-miterlimit="10"/><path d="M148.18,315.79a4.64,4.64,0,1,1,4.64-4.63A4.63,4.63,0,0,1,148.18,315.79Z" fill="none" stroke="#003a50" stroke-miterlimit="10"/></g><rect x="415.43" y="348.29" width="102.05" height="17.01" fill="none" stroke="#003a50" stroke-miterlimit="10"/><polygon points="509.45 356.25 466.56 359.78 423.45 356.25 423.45 353.79 509.45 353.79 509.45 356.25" fill="none" stroke="#003a50" stroke-miterlimit="10"/><rect x="337.18" y="438.72" width="17.01" height="102.05" fill="none" stroke="#003a50" stroke-miterlimit="10"/><polygon points="345.15 446.74 348.68 489.64 345.15 532.74 342.69 532.74 342.69 446.74 345.15 446.74" fill="none" stroke="#003a50" stroke-miterlimit="10"/><g clip-path="url(#clip-path)"><rect x="123.69" y="260.85" width="33.59" height="122.25" fill="none" stroke="#003a50" stroke-miterlimit="10"/><rect x="76.62" y="228.12" width="80.66" height="32.72" fill="none" stroke="#003a50" stroke-miterlimit="10"/></g><rect x="295.94" y="12.32" width="199.76" height="34.28" fill="none" stroke="#003a50" stroke-miterlimit="10"/><rect x="359.05" y="458.29" width="52.33" height="113.67" fill="none" stroke="#003a50" stroke-miterlimit="10"/><g clip-path="url(#clip-path)"><path d="M402.44,468h-34a2.11,2.11,0,0,0-2.11,2.11v67.62h38.25V470.1A2.11,2.11,0,0,0,402.44,468Z" fill="none" stroke="#003a50" stroke-miterlimit="10"/></g><rect x="366.29" y="523.87" width="38.26" height="13.85" fill="none" stroke="#003a50" stroke-miterlimit="10"/><g clip-path="url(#clip-path)"><path d="M402.74,564.21H368.43a2.2,2.2,0,0,1-2.2-2.2V543.54a2.21,2.21,0,0,1,2.2-2.21h34.31a2.21,2.21,0,0,1,2.2,2.21V562A2.2,2.2,0,0,1,402.74,564.21Z" fill="none" stroke="#003a50" stroke-miterlimit="10"/></g><rect x="247.58" y="12.11" width="42.22" height="83.62" fill="none" stroke="#003a50" stroke-miterlimit="10"/><g clip-path="url(#clip-path)"><path d="M271.15,32.06a2.46,2.46,0,1,1-2.46-2.46A2.46,2.46,0,0,1,271.15,32.06Z" fill="none" stroke="#003a50" stroke-miterlimit="10"/><path d="M118.32,255.91v-15.2a3.22,3.22,0,0,0-3.23-3.23H91.5a3.23,3.23,0,0,0-3.24,3.23v15.2a3.23,3.23,0,0,0,3.24,3.23h23.59A3.22,3.22,0,0,0,118.32,255.91Z" fill="none" stroke="#003a50" stroke-miterlimit="10"/><path d="M103.25,247a2.43,2.43,0,1,0-2.43-2.42A2.42,2.42,0,0,0,103.25,247Z" fill="none" stroke="#003a50" stroke-miterlimit="10"/></g><polyline points="329.54 15.11 322.74 15.11 315.96 15.11" fill="none" stroke="#003a50" stroke-miterlimit="10"/><line x1="322.72" y1="28.73" x2="322.72" y2="15.11" fill="none" stroke="#003a50" stroke-miterlimit="10"/><g clip-path="url(#clip-path)"><path d="M337.8,39.37V24.17a3.24,3.24,0,0,0-3.24-3.23H311a3.24,3.24,0,0,0-3.24,3.23v15.2A3.24,3.24,0,0,0,311,42.61h23.59A3.24,3.24,0,0,0,337.8,39.37Z" fill="none" stroke="#003a50" stroke-miterlimit="10"/><path d="M322.72,30.42A2.43,2.43,0,1,0,320.3,28,2.42,2.42,0,0,0,322.72,30.42Z" fill="none" stroke="#003a50" stroke-miterlimit="10"/><path d="M28.22,431.3a1.26,1.26,0,0,1,.94,1.51A13.78,13.78,0,0,0,56,439a1.26,1.26,0,0,1,2.46.56,16.3,16.3,0,1,1-31.78-7.29A1.26,1.26,0,0,1,28.22,431.3Z" fill="none" stroke="#003a50" stroke-miterlimit="10"/><path d="M83.39,441a1.25,1.25,0,0,1,1.75-.33,13.79,13.79,0,0,0,15.52-22.79,1.26,1.26,0,1,1,1.42-2.08,16.3,16.3,0,0,1-18.36,26.95A1.26,1.26,0,0,1,83.39,441Z" fill="none" stroke="#003a50" stroke-miterlimit="10"/><path d="M85.89,393.61a1.26,1.26,0,0,1-1.33-1.18A13.78,13.78,0,1,0,57,394.06a1.26,1.26,0,1,1-2.51.15,16.3,16.3,0,1,1,32.54-1.93A1.24,1.24,0,0,1,85.89,393.61Z" fill="none" stroke="#003a50" stroke-miterlimit="10"/><path d="M42.42,447.91a12.69,12.69,0,0,1-12-15.48l2-8.88a3.53,3.53,0,0,1,4.24-2.68L50.14,424a23.73,23.73,0,0,0,6,9.44l-1,4.2C53.82,443.55,48.54,448.11,42.42,447.91Z" fill="none" stroke="#003a50" stroke-miterlimit="10"/><path d="M85.22,439.39l-2.32-1.6a23.81,23.81,0,0,0,13.64-21.32l2.52,1.72c5,3.44,7.4,10,5,15.64A12.7,12.7,0,0,1,85.22,439.39Z" fill="none" stroke="#003a50" stroke-miterlimit="10"/><path d="M58.38,397.11l-.12-2c-.36-6.12,3.4-12,9.32-13.48a12.66,12.66,0,0,1,15.88,11.48l.12,1.84a23.93,23.93,0,0,0-16.64-1.92A23.5,23.5,0,0,0,58.38,397.11Z" fill="none" stroke="#003a50" stroke-miterlimit="10"/><path d="M56.14,433.39a23.73,23.73,0,0,1-6-9.44,16.51,16.51,0,0,1-.6-2,23.85,23.85,0,0,1,8.84-24.84,23.5,23.5,0,0,1,8.56-4,23.87,23.87,0,0,1,28.92,17.4,22.12,22.12,0,0,1,.68,6A23.81,23.81,0,0,1,82.9,437.79a22.85,22.85,0,0,1-4.48,1.6A23.8,23.8,0,0,1,56.14,433.39Z" fill="none" stroke="#003a50" stroke-miterlimit="10"/><rect x="218.56" y="-34.28" width="136.06" height="34.02" fill="none" stroke="#003a50" stroke-miterlimit="10"/></g><rect x="296.22" y="168.14" width="22.68" height="65.6" fill="none" stroke="#003a50" stroke-miterlimit="10"/><rect x="296.22" y="233.73" width="22.68" height="65.6" fill="none" stroke="#003a50" stroke-miterlimit="10"/><polygon points="248.48 205.39 173.55 205.18 173.55 174.62 248.48 174.84 248.48 205.39" fill="none" stroke="#003a50" stroke-miterlimit="10"/><g clip-path="url(#clip-path)"><rect x="179.62" y="173.01" width="28.96" height="29.71" rx="3.36" fill="none" stroke="#003a50" stroke-miterlimit="10"/><circle cx="194.1" cy="187.87" r="2.27" fill="none" stroke="#003a50" stroke-miterlimit="10"/><rect x="215.47" y="173.01" width="28.96" height="29.71" rx="3.36" fill="none" stroke="#003a50" stroke-miterlimit="10"/><circle cx="229.95" cy="187.87" r="2.27" fill="none" stroke="#003a50" stroke-miterlimit="10"/></g><polygon points="247.32 43.43 173.85 43.22 173.85 12.67 247.32 12.88 247.32 43.43" fill="none" stroke="#003a50" stroke-miterlimit="10"/><g clip-path="url(#clip-path)"><path d="M214.69,37.41v-23A3.35,3.35,0,0,1,218,11.06h22.25a3.36,3.36,0,0,1,3.36,3.36v23a3.36,3.36,0,0,1-3.36,3.36H218A3.35,3.35,0,0,1,214.69,37.41Z" fill="none" stroke="#003a50" stroke-miterlimit="10"/><path d="M229.16,28.18a2.27,2.27,0,1,1,2.27-2.27A2.26,2.26,0,0,1,229.16,28.18Z" fill="none" stroke="#003a50" stroke-miterlimit="10"/><polygon points="167.5 -30.46 102.54 -30.25 102.54 0.3 167.5 0.08 167.5 -30.46" fill="none" stroke="#003a50" stroke-miterlimit="10"/><path d="M137.12-24.44v23a3.35,3.35,0,0,0,3.35,3.36h22.25a3.36,3.36,0,0,0,3.36-3.36v-23a3.36,3.36,0,0,0-3.36-3.36H140.47A3.35,3.35,0,0,0,137.12-24.44Z" fill="none" stroke="#003a50" stroke-miterlimit="10"/><rect x="123.63" y="349.51" width="33.52" height="33.52" fill="none" stroke="#003a50" stroke-miterlimit="10"/></g><rect x="495.36" y="12.6" width="34.02" height="34.02" fill="none" stroke="#003a50" stroke-miterlimit="10"/><line x1="522.35" y1="29.6" x2="502.39" y2="29.6" fill="none" stroke="#003a50" stroke-miterlimit="10"/><line x1="512.37" y1="19.62" x2="512.37" y2="39.58" fill="none" stroke="#003a50" stroke-miterlimit="10"/><line x1="519.42" y1="22.55" x2="505.31" y2="36.66" fill="none" stroke="#003a50" stroke-miterlimit="10"/><line x1="505.31" y1="22.55" x2="519.42" y2="36.66" fill="none" stroke="#003a50" stroke-miterlimit="10"/><rect x="173.64" y="272.89" width="26.62" height="97.42" fill="none" stroke="#003a50" stroke-miterlimit="10"/><g clip-path="url(#clip-path)"><path d="M177.42,356.57a.78.78,0,0,1-.35-1.49,22.57,22.57,0,0,1,19.77,0,.78.78,0,1,1-.69,1.41,20.91,20.91,0,0,0-18.39,0A.71.71,0,0,1,177.42,356.57Z" fill="none" stroke="#003a50" stroke-miterlimit="10"/><path d="M177.42,352.22a.79.79,0,0,1-.35-1.5,22.57,22.57,0,0,1,19.77,0,.79.79,0,0,1-.69,1.42,20.91,20.91,0,0,0-18.39,0A.84.84,0,0,1,177.42,352.22Z" fill="none" stroke="#003a50" stroke-miterlimit="10"/><path d="M177.42,347.86a.78.78,0,0,1-.35-1.49,22.48,22.48,0,0,1,19.77,0,.78.78,0,1,1-.69,1.41,20.91,20.91,0,0,0-18.39,0A.71.71,0,0,1,177.42,347.86Z" fill="none" stroke="#003a50" stroke-miterlimit="10"/><path d="M177.42,343.5a.78.78,0,0,1-.35-1.49,22.57,22.57,0,0,1,19.77,0,.78.78,0,1,1-.69,1.41,21,21,0,0,0-18.39,0A.71.71,0,0,1,177.42,343.5Z" fill="none" stroke="#003a50" stroke-miterlimit="10"/><path d="M177.42,339.15a.8.8,0,0,1-.71-.44.78.78,0,0,1,.36-1,22.48,22.48,0,0,1,19.77,0,.78.78,0,0,1-.69,1.41,20.91,20.91,0,0,0-18.39,0A.84.84,0,0,1,177.42,339.15Z" fill="none" stroke="#003a50" stroke-miterlimit="10"/><path d="M177.42,334.79a.78.78,0,0,1-.35-1.49,22.57,22.57,0,0,1,19.77,0,.78.78,0,1,1-.69,1.41,20.91,20.91,0,0,0-18.39,0A.71.71,0,0,1,177.42,334.79Z" fill="none" stroke="#003a50" stroke-miterlimit="10"/><path d="M177.42,360.93a.8.8,0,0,1-.71-.44.78.78,0,0,1,.36-1.05,22.48,22.48,0,0,1,19.77,0,.78.78,0,1,1-.69,1.41,20.91,20.91,0,0,0-18.39,0A.84.84,0,0,1,177.42,360.93Z" fill="none" stroke="#003a50" stroke-miterlimit="10"/><path d="M177.42,365.28a.78.78,0,0,1-.35-1.49,22.57,22.57,0,0,1,19.77,0,.78.78,0,0,1-.69,1.41,21,21,0,0,0-18.39,0A.71.71,0,0,1,177.42,365.28Z" fill="none" stroke="#003a50" stroke-miterlimit="10"/></g><line x1="186.96" y1="369.97" x2="186.96" y2="272.89" fill="none" stroke="#003a50" stroke-miterlimit="10"/><rect x="264.24" y="272.89" width="26.62" height="97.42" fill="none" stroke="#003a50" stroke-miterlimit="10"/><g clip-path="url(#clip-path)"><path d="M268,356.57a.79.79,0,0,1-.35-1.49,22.57,22.57,0,0,1,19.77,0,.78.78,0,1,1-.69,1.41,20.91,20.91,0,0,0-18.39,0A.66.66,0,0,1,268,356.57Z" fill="none" stroke="#003a50" stroke-miterlimit="10"/><path d="M268,352.22a.79.79,0,0,1-.35-1.5,22.57,22.57,0,0,1,19.77,0,.79.79,0,0,1-.69,1.42,20.91,20.91,0,0,0-18.39,0A.77.77,0,0,1,268,352.22Z" fill="none" stroke="#003a50" stroke-miterlimit="10"/><path d="M268,347.86a.79.79,0,0,1-.35-1.49,22.48,22.48,0,0,1,19.77,0,.78.78,0,1,1-.69,1.41,20.91,20.91,0,0,0-18.39,0A.66.66,0,0,1,268,347.86Z" fill="none" stroke="#003a50" stroke-miterlimit="10"/><path d="M268,343.5a.79.79,0,0,1-.35-1.49,22.57,22.57,0,0,1,19.77,0,.78.78,0,1,1-.69,1.41,21,21,0,0,0-18.39,0A.66.66,0,0,1,268,343.5Z" fill="none" stroke="#003a50" stroke-miterlimit="10"/><path d="M268,339.15a.79.79,0,0,1-.7-.44.77.77,0,0,1,.35-1,22.48,22.48,0,0,1,19.77,0,.78.78,0,1,1-.69,1.41,20.91,20.91,0,0,0-18.39,0A.77.77,0,0,1,268,339.15Z" fill="none" stroke="#003a50" stroke-miterlimit="10"/><path d="M268,334.79a.79.79,0,0,1-.35-1.49,22.57,22.57,0,0,1,19.77,0,.78.78,0,1,1-.69,1.41,20.91,20.91,0,0,0-18.39,0A.66.66,0,0,1,268,334.79Z" fill="none" stroke="#003a50" stroke-miterlimit="10"/><path d="M268,360.93a.79.79,0,0,1-.7-.44.77.77,0,0,1,.35-1.05,22.48,22.48,0,0,1,19.77,0,.78.78,0,1,1-.69,1.41,20.91,20.91,0,0,0-18.39,0A.77.77,0,0,1,268,360.93Z" fill="none" stroke="#003a50" stroke-miterlimit="10"/><path d="M268,365.28a.79.79,0,0,1-.35-1.49,22.57,22.57,0,0,1,19.77,0,.78.78,0,1,1-.69,1.41,21,21,0,0,0-18.39,0A.66.66,0,0,1,268,365.28Z" fill="none" stroke="#003a50" stroke-miterlimit="10"/></g><line x1="277.56" y1="369.97" x2="277.56" y2="272.89" fill="none" stroke="#003a50" stroke-miterlimit="10"/><g clip-path="url(#clip-path)"><path d="M153.3,61.6a.78.78,0,0,1-1.49.34,22.48,22.48,0,0,1,0-19.77.78.78,0,0,1,1.41.69,20.91,20.91,0,0,0,0,18.39A.72.72,0,0,1,153.3,61.6Z" fill="none" stroke="#003a50" stroke-miterlimit="10"/><path d="M148.94,61.6a.78.78,0,0,1-1.49.34,22.57,22.57,0,0,1,0-19.77.78.78,0,0,1,1.41.69,20.91,20.91,0,0,0,0,18.39A.72.72,0,0,1,148.94,61.6Z" fill="none" stroke="#003a50" stroke-miterlimit="10"/><path d="M144.59,61.6a.79.79,0,0,1-1.5.34,22.57,22.57,0,0,1,0-19.77.79.79,0,0,1,1.42.69,20.91,20.91,0,0,0,0,18.39A.85.85,0,0,1,144.59,61.6Z" fill="none" stroke="#003a50" stroke-miterlimit="10"/><path d="M140.23,61.6a.78.78,0,0,1-1.49.34,22.48,22.48,0,0,1,0-19.77.78.78,0,0,1,1.41.69,20.91,20.91,0,0,0,0,18.39A.72.72,0,0,1,140.23,61.6Z" fill="none" stroke="#003a50" stroke-miterlimit="10"/><path d="M135.87,61.6a.78.78,0,0,1-.44.7.79.79,0,0,1-1.05-.36,22.57,22.57,0,0,1,0-19.77.78.78,0,0,1,1.41.69,21,21,0,0,0,0,18.39A.72.72,0,0,1,135.87,61.6Z" fill="none" stroke="#003a50" stroke-miterlimit="10"/><path d="M131.52,61.6a.8.8,0,0,1-.44.7.78.78,0,0,1-1.05-.36,22.48,22.48,0,0,1,0-19.77.78.78,0,0,1,1.41.69,20.91,20.91,0,0,0,0,18.39A.85.85,0,0,1,131.52,61.6Z" fill="none" stroke="#003a50" stroke-miterlimit="10"/><path d="M157.65,61.6a.78.78,0,0,1-.44.7.79.79,0,0,1-1.05-.36,22.57,22.57,0,0,1,0-19.77.78.78,0,0,1,1.41.69,21,21,0,0,0,0,18.39A.72.72,0,0,1,157.65,61.6Z" fill="none" stroke="#003a50" stroke-miterlimit="10"/><path d="M162,61.6a.78.78,0,0,1-1.49.34,22.57,22.57,0,0,1,0-19.77.78.78,0,0,1,1.41.69,20.91,20.91,0,0,0,0,18.39A.72.72,0,0,1,162,61.6Z" fill="none" stroke="#003a50" stroke-miterlimit="10"/></g><line x1="166.7" y1="52.06" x2="86.55" y2="52.06" fill="none" stroke="#003a50" stroke-miterlimit="10"/><rect x="86.55" y="38.75" width="80.49" height="26.6" fill="none" stroke="#003a50" stroke-miterlimit="10"/><rect x="412.62" y="370.57" width="118.13" height="34.02" fill="none" stroke="#003a50" stroke-miterlimit="10"/><g clip-path="url(#clip-path)"><path d="M429.73,399.76a1,1,0,0,0,1.91.44,28.77,28.77,0,0,0,0-25.26,1,1,0,0,0-1.34-.45,1,1,0,0,0-.46,1.34,26.81,26.81,0,0,1,0,23.49A.87.87,0,0,0,429.73,399.76Z" fill="none" stroke="#003a50" stroke-miterlimit="10"/><path d="M435.3,399.76a1,1,0,0,0,.56.9,1,1,0,0,0,1.34-.46,28.77,28.77,0,0,0,0-25.26,1,1,0,0,0-1.8.89,26.72,26.72,0,0,1,0,23.49A1,1,0,0,0,435.3,399.76Z" fill="none" stroke="#003a50" stroke-miterlimit="10"/><path d="M440.86,399.76a1,1,0,0,0,1.91.44,28.77,28.77,0,0,0,0-25.26,1,1,0,0,0-1.34-.45,1,1,0,0,0-.46,1.34,26.81,26.81,0,0,1,0,23.49A.87.87,0,0,0,440.86,399.76Z" fill="none" stroke="#003a50" stroke-miterlimit="10"/><path d="M446.43,399.76a1,1,0,0,0,1.9.44,28.77,28.77,0,0,0,0-25.26,1,1,0,0,0-1.8.89,26.72,26.72,0,0,1,0,23.49A1,1,0,0,0,446.43,399.76Z" fill="none" stroke="#003a50" stroke-miterlimit="10"/><path d="M452,399.76a1,1,0,0,0,1.91.44,28.77,28.77,0,0,0,0-25.26,1,1,0,0,0-1.34-.45,1,1,0,0,0-.46,1.34,26.81,26.81,0,0,1,0,23.49A.87.87,0,0,0,452,399.76Z" fill="none" stroke="#003a50" stroke-miterlimit="10"/><path d="M457.56,399.76a1,1,0,0,0,1.9.44,28.77,28.77,0,0,0,0-25.26,1,1,0,0,0-1.8.89,26.72,26.72,0,0,1,0,23.49A1,1,0,0,0,457.56,399.76Z" fill="none" stroke="#003a50" stroke-miterlimit="10"/><path d="M424.17,399.76a1,1,0,0,0,.56.9,1,1,0,0,0,1.34-.46,28.77,28.77,0,0,0,0-25.26,1,1,0,0,0-1.8.89,26.72,26.72,0,0,1,0,23.49A1,1,0,0,0,424.17,399.76Z" fill="none" stroke="#003a50" stroke-miterlimit="10"/><path d="M418.6,399.76a1,1,0,0,0,1.9.44,28.77,28.77,0,0,0,0-25.26,1,1,0,0,0-1.8.89,26.72,26.72,0,0,1,0,23.49A1,1,0,0,0,418.6,399.76Z" fill="none" stroke="#003a50" stroke-miterlimit="10"/></g><line x1="412.61" y1="387.57" x2="530.2" y2="387.57" fill="none" stroke="#003a50" stroke-miterlimit="10"/><g clip-path="url(#clip-path)"><path d="M423.56-48.34a3.1,3.1,0,0,0-3.32-2.83H416a3.11,3.11,0,0,0-3.33,2.83V-.15H526.08V-47.92a3.11,3.11,0,0,0-3.33-2.83h-4.22a3.11,3.11,0,0,0-3.33,2.83V-5.09H423.56Z" fill="none" stroke="#003a50" stroke-miterlimit="10"/><path d="M110.94,515.49h41v45.77H108.73V517.7A2.2,2.2,0,0,1,110.94,515.49Z" fill="none" stroke="#003a50" stroke-miterlimit="10"/><path d="M110.71,469.62H152v45.77H110.71a2,2,0,0,1-2-2V471.6A2,2,0,0,1,110.71,469.62Z" fill="none" stroke="#003a50" stroke-miterlimit="10"/><path d="M108.72,561.26a3.1,3.1,0,0,0-2.82,3.33v4.22a3.1,3.1,0,0,0,2.82,3.32h48.2V458.75H109.15a3.11,3.11,0,0,0-2.83,3.32v4.23a3.11,3.11,0,0,0,2.83,3.32H152v91.64Z" fill="none" stroke="#003a50" stroke-miterlimit="10"/><path d="M466.5,265v-41h45.77v43.25H468.71A2.21,2.21,0,0,1,466.5,265Z" fill="none" stroke="#003a50" stroke-miterlimit="10"/><path d="M420.63,265.18V223.92H466.4v41.26a2,2,0,0,1-2,2h-41.8A2,2,0,0,1,420.63,265.18Z" fill="none" stroke="#003a50" stroke-miterlimit="10"/><path d="M512.27,267.17A3.11,3.11,0,0,0,515.6,270h4.22a3.11,3.11,0,0,0,3.33-2.83V219H409.76v47.77a3.11,3.11,0,0,0,3.33,2.83h4.22a3.1,3.1,0,0,0,3.32-2.83V223.92h91.64Z" fill="none" stroke="#003a50" stroke-miterlimit="10"/></g><rect x="420.63" y="223.92" width="91.64" height="9.25" fill="none" stroke="#003a50" stroke-miterlimit="10"/><g clip-path="url(#clip-path)"><path d="M495.52,493.54a14.78,14.78,0,0,0-15.93,23.39,1.14,1.14,0,0,0,1.78-1.43A12.47,12.47,0,0,1,495.52,496Z" fill="none" stroke="#003a50" stroke-miterlimit="10"/><rect x="495.52" y="463.77" width="34.02" height="84.03" rx="3.31" fill="none" stroke="#003a50" stroke-miterlimit="10"/><path d="M525.82,466.32a1.39,1.39,0,0,0-1.39,1.39v76.15a1.4,1.4,0,0,0,2.79,0V467.71a1.4,1.4,0,0,0-1.4-1.39" fill="none" stroke="#003a50" stroke-miterlimit="10"/><path d="M511.25,534.13a5.5,5.5,0,1,1,0,7.78A5.49,5.49,0,0,1,511.25,534.13Z" fill="none" stroke="#003a50" stroke-miterlimit="10"/><path d="M510.88,534.54c1,.1,2-.29,3,.7,1.46,1.46-.09,3,1.38,4.47s3-.09,4.46,1.38" fill="none" stroke="#003a50" stroke-miterlimit="10"/><path d="M495.52,498.25a10.63,10.63,0,1,0,0,19.59Z" fill="none" stroke="#003a50" stroke-miterlimit="10"/></g><rect x="173.46" y="550.86" width="22.68" height="22.68" fill="none" stroke="#003a50" stroke-miterlimit="10"/><g clip-path="url(#clip-path)"><path d="M191.3,568.7a9.2,9.2,0,1,1,0-13A9.19,9.19,0,0,1,191.3,568.7Z" fill="none" stroke="#003a50" stroke-miterlimit="10"/><path d="M191.93,568c-1.69-.17-3.41.48-5.07-1.17-2.43-2.44.15-5-2.29-7.46s-5,.14-7.46-2.3" fill="none" stroke="#003a50" stroke-miterlimit="10"/></g><rect x="173.46" y="412.42" width="22.68" height="22.68" fill="none" stroke="#003a50" stroke-miterlimit="10"/><g clip-path="url(#clip-path)"><path d="M191.3,430.26a9.19,9.19,0,1,1,0-13A9.19,9.19,0,0,1,191.3,430.26Z" fill="none" stroke="#003a50" stroke-miterlimit="10"/><path d="M191.93,429.57c-1.7-.17-3.41.49-5.06-1.17-2.44-2.44.14-5-2.3-7.45s-5,.13-7.46-2.3" fill="none" stroke="#003a50" stroke-miterlimit="10"/></g><rect x="173.46" y="441.96" width="113.38" height="102.05" fill="none" stroke="#003a50" stroke-miterlimit="10"/><g clip-path="url(#clip-path)"><path d="M277.11,452V534a2.09,2.09,0,0,1-2.09,2.09H207.39V449.87H275A2.08,2.08,0,0,1,277.11,452Z" fill="none" stroke="#003a50" stroke-miterlimit="10"/><path d="M203.77,495.83v38.53a2,2,0,0,1-2,2H182.88a2,2,0,0,1-2-2V495.83a2,2,0,0,1,2-2h18.91A2,2,0,0,1,203.77,495.83Z" fill="none" stroke="#003a50" stroke-miterlimit="10"/><path d="M203.77,451.59v38.54a2,2,0,0,1-2,2H182.88a2,2,0,0,1-2-2V451.59a2,2,0,0,1,2-2h18.91A2,2,0,0,1,203.77,451.59Z" fill="none" stroke="#003a50" stroke-miterlimit="10"/></g><line x1="221.24" y1="449.61" x2="221.24" y2="536.34" fill="none" stroke="#003a50" stroke-miterlimit="10"/><g clip-path="url(#clip-path)"><path d="M486.48,119.47a1.25,1.25,0,0,1-1.25-1.25,13.67,13.67,0,0,0-27.33,0,1.25,1.25,0,1,1-2.49,0,16.16,16.16,0,1,1,32.31,0A1.25,1.25,0,0,1,486.48,119.47Z" fill="none" stroke="#003a50" stroke-miterlimit="10"/><path d="M456.66,172.16a1.25,1.25,0,0,1,1.25,1.25,13.66,13.66,0,0,0,27.32,0,1.25,1.25,0,1,1,2.49,0,16.16,16.16,0,1,1-32.31,0A1.25,1.25,0,0,1,456.66,172.16Z" fill="none" stroke="#003a50" stroke-miterlimit="10"/><path d="M445,119.47a1.25,1.25,0,0,1-1.25-1.25,13.66,13.66,0,1,0-27.32,0,1.25,1.25,0,1,1-2.49,0,16.16,16.16,0,1,1,32.31,0A1.25,1.25,0,0,1,445,119.47Z" fill="none" stroke="#003a50" stroke-miterlimit="10"/><path d="M415.21,172.16a1.25,1.25,0,0,1,1.25,1.25,13.67,13.67,0,0,0,27.33,0,1.25,1.25,0,1,1,2.49,0,16.16,16.16,0,1,1-32.31,0A1.25,1.25,0,0,1,415.21,172.16Z" fill="none" stroke="#003a50" stroke-miterlimit="10"/><path d="M392.13,133.1a1.25,1.25,0,0,1-1.25,1.25,13.66,13.66,0,1,0,0,27.32,1.25,1.25,0,0,1,0,2.5,16.16,16.16,0,1,1,0-32.32A1.25,1.25,0,0,1,392.13,133.1Z" fill="none" stroke="#003a50" stroke-miterlimit="10"/><path d="M504.69,162.92a1.25,1.25,0,0,1,1.24-1.25,13.66,13.66,0,1,0,0-27.32,1.25,1.25,0,0,1,0-2.5,16.16,16.16,0,1,1,0,32.32A1.25,1.25,0,0,1,504.69,162.92Z" fill="none" stroke="#003a50" stroke-miterlimit="10"/><path d="M471.55,106.34a12.57,12.57,0,0,1,12.56,12.52v5.8a23.7,23.7,0,0,0-6.08-.8H459v-5A12.56,12.56,0,0,1,471.55,106.34Z" fill="none" stroke="#003a50" stroke-miterlimit="10"/><path d="M484.11,171.38v1.36a12.54,12.54,0,1,1-25.08,0v-.56h19A25.59,25.59,0,0,0,484.11,171.38Z" fill="none" stroke="#003a50" stroke-miterlimit="10"/><path d="M430.11,106.34a12.57,12.57,0,0,1,12.56,12.52v5H418.83c-.4,0-.84,0-1.24.08v-5.08A12.54,12.54,0,0,1,430.11,106.34Z" fill="none" stroke="#003a50" stroke-miterlimit="10"/><path d="M417.59,172.1c.4,0,.84.08,1.24.08h23.84v.56a12.54,12.54,0,1,1-25.08,0Z" fill="none" stroke="#003a50" stroke-miterlimit="10"/><path d="M498.63,135.46h6.64a12.54,12.54,0,1,1,0,25.08h-6.64A23.81,23.81,0,0,0,502.19,148,24.06,24.06,0,0,0,498.63,135.46Z" fill="none" stroke="#003a50" stroke-miterlimit="10"/><path d="M391.55,135.46h6.68A24.06,24.06,0,0,0,394.67,148a23.81,23.81,0,0,0,3.56,12.52h-6.68a12.54,12.54,0,1,1,0-25.08Z" fill="none" stroke="#003a50" stroke-miterlimit="10"/><path d="M418.83,123.86H478a23.7,23.7,0,0,1,6.08.8A24.24,24.24,0,0,1,502.19,148a23.81,23.81,0,0,1-3.56,12.52,24.19,24.19,0,0,1-14.52,10.84,25.59,25.59,0,0,1-6.08.8h-59.2c-.4,0-.84,0-1.24-.08a24.11,24.11,0,0,1,0-48.16C418,123.9,418.43,123.86,418.83,123.86Z" fill="none" stroke="#003a50" stroke-miterlimit="10"/><path d="M244.71,98.48v3.1a39,39,0,0,1-39,39V98.48" fill="none" stroke="#003a50" stroke-miterlimit="10" stroke-width="1.6"/><path d="M244.71,269.15v3.1a39,39,0,0,1-39,39V269.15" fill="none" stroke="#003a50" stroke-miterlimit="10" stroke-width="1.6"/><path d="M302.72,367.82v3.5A44.07,44.07,0,0,0,346.8,415.4V367.82" fill="none" stroke="#003a50" stroke-miterlimit="10" stroke-width="1.6"/><path d="M409.48,367.82v3.5A44.07,44.07,0,0,1,365.4,415.4V367.82" fill="none" stroke="#003a50" stroke-miterlimit="10" stroke-width="1.6"/><path d="M-10.71,218.25v-4.07a51.12,51.12,0,0,1,51.13-51.12v55.19" fill="none" stroke="#003a50" stroke-miterlimit="10" stroke-width="1.6"/><path d="M56.65,109.07H52.59A51.13,51.13,0,0,0,1.46,160.19H56.65" fill="none" stroke="#003a50" stroke-miterlimit="10" stroke-width="1.6"/><line x1="158.93" y1="104.86" x2="104.44" y2="104.86" fill="none" stroke="#003a50" stroke-miterlimit="10" stroke-width="1.6"/><polygon points="-83.88 579.61 11.86 579.61 11.86 628.94 -83.88 617.28 -83.88 579.61" fill="#003a50" fill-rule="evenodd"/><polygon points="281.67 579.61 377.41 579.61 377.41 628.94 281.67 617.28 281.67 579.61" fill="#003a50" fill-rule="evenodd"/><rect x="50.87" y="-109.47" width="16.32" height="115.78" fill="#003a50"/><rect x="50.87" y="64.99" width="16.32" height="44.79" fill="#003a50"/><rect x="74.62" y="11.74" width="11.82" height="64.29" fill="#003a50"/><rect x="54.29" y="64.99" width="32.14" height="11.82" fill="#003a50"/><rect x="50.87" y="159.28" width="16.32" height="66" fill="#003a50"/><rect x="39.56" y="211.81" width="131.96" height="16.32" fill="#003a50"/><rect x="157.28" y="211.81" width="16.32" height="380.64" fill="#003a50"/><rect x="50.87" y="0.02" width="486.82" height="12.6" fill="#003a50"/><rect x="288.19" y="573.36" width="82.83" height="27.12" fill="#003a50"/><rect x="-77.56" y="573.36" width="82.83" height="27.12" fill="#003a50"/><rect x="467.16" y="579.53" width="96" height="41.92" fill="#003a50"/><rect x="100.02" y="579.53" width="95.33" height="38.32" fill="#003a50"/><rect x="168.19" y="583.53" width="27.17" height="41.92" fill="#003a50"/><rect x="528.3" y="556.1" width="39.12" height="44.81" fill="#003a50"/><rect x="523.19" y="317.04" width="9.5" height="59.74" fill="#003a50"/><rect x="523.19" y="145.86" width="9.5" height="76.42" fill="#003a50"/><rect x="551.82" y="600.9" width="25.83" height="25" fill="#003a50"/><rect x="529.66" y="132.57" width="37.77" height="94.57" fill="#003a50"/><rect x="533.66" y="201.24" width="39.53" height="25.9" fill="#003a50"/><polygon points="529.65 44.29 529.65 -51.45 578.99 -51.45 567.32 44.29 529.65 44.29" fill="#003a50" fill-rule="evenodd"/><rect x="529.66" y="317.04" width="48.33" height="96.07" fill="#003a50"/><rect x="211.9" y="-101.46" width="6.38" height="103.38" fill="#003a50"/><rect x="95.94" y="-99.27" width="6.38" height="101.24" fill="#003a50"/><rect x="243.93" y="95.74" width="52.01" height="6.38" fill="#003a50"/><rect x="289.57" y="10.28" width="6.38" height="88.64" fill="#003a50"/><rect x="167.22" y="10.28" width="6.38" height="88.64" fill="#003a50"/><rect x="81.76" y="32.58" width="88.64" height="6.38" fill="#003a50"/><rect x="141.72" y="9.28" width="6.38" height="26.49" fill="#003a50"/><rect x="131.68" y="95.74" width="75" height="6.38" fill="#003a50"/><rect x="59.03" y="95.74" width="35.29" height="6.38" fill="#003a50"/><rect x="167.22" y="167.95" width="6.38" height="52.01" fill="#003a50"/><rect x="63.36" y="186.02" width="108.92" height="6.38" fill="#003a50"/><rect x="114.63" y="188.28" width="6.38" height="33.17" fill="#003a50"/><rect x="167.22" y="168.03" width="128.72" height="6.38" fill="#003a50"/><rect x="167.22" y="266.4" width="39.47" height="6.38" fill="#003a50"/><rect x="243.93" y="266.4" width="48.82" height="6.38" fill="#003a50"/><rect x="290.69" y="365.07" width="12.92" height="6.38" fill="#003a50"/><rect x="345.69" y="365.07" width="20.5" height="6.38" fill="#003a50"/><rect x="408.67" y="365.07" width="126.02" height="6.38" fill="#003a50"/><rect x="353.42" y="368.26" width="6.38" height="211.27" fill="#003a50"/><rect x="290.77" y="168.03" width="6.38" height="203.42" fill="#003a50"/><rect x="50.28" y="225.28" width="6.38" height="25.25" fill="#003a50"/><rect x="70.25" y="226.03" width="6.38" height="24.5" fill="#003a50"/><rect x="52.13" y="244.15" width="24.5" height="6.38" fill="#003a50"/><rect x="50.87" y="1.97" width="5.98" height="81.48" fill="#003a50"/><line x1="263.84" y1="370.29" x2="261.01" y2="370.29" fill="none" stroke="#003a50" stroke-miterlimit="10"/><line x1="255.81" y1="370.29" x2="206.46" y2="370.29" fill="none" stroke="#003a50" stroke-miterlimit="10" stroke-dasharray="5.2 5.2"/><line x1="203.87" y1="370.29" x2="201.03" y2="370.29" fill="none" stroke="#003a50" stroke-miterlimit="10"/><line x1="-9.44" y1="318.28" x2="45.17" y2="318.28" fill="none" stroke="#003a50" stroke-miterlimit="10" stroke-dasharray="5.75 5.75"/><polyline points="48.04 318.28 50.87 318.28 50.87 315.45" fill="none" stroke="#003a50" stroke-miterlimit="10"/><line x1="50.87" y1="309.6" x2="50.87" y2="254.07" fill="none" stroke="#003a50" stroke-miterlimit="10" stroke-dasharray="5.85 5.85"/><line x1="50.87" y1="251.14" x2="50.87" y2="248.31" fill="none" stroke="#003a50" stroke-miterlimit="10"/><line x1="295.22" y1="102.06" x2="295.22" y2="104.9" fill="none" stroke="#003a50" stroke-miterlimit="10"/><line x1="295.22" y1="110.38" x2="295.22" y2="162.52" fill="none" stroke="#003a50" stroke-miterlimit="10" stroke-dasharray="5.49 5.49"/><line x1="295.22" y1="165.26" x2="295.22" y2="168.1" fill="none" stroke="#003a50" stroke-miterlimit="10"/><rect x="64.26" y="65.37" width="29.67" height="30.36" fill="none" stroke="#003a50" stroke-miterlimit="10"/></g><g clip-path="url(#clip-path)"><path d="M422.87,418.41l-2.48,1.95v-2.24l2.73-2.27H425v11.91h-2.11Z" fill="#003a50"/><path d="M429.5,418.41,427,420.36v-2.24l2.74-2.27h1.86v11.91H429.5Z" fill="#003a50"/><path d="M434.13,427.63a1,1,0,0,1-.32-.8,1.07,1.07,0,0,1,.32-.81,1.41,1.41,0,0,1,1.74,0,1.07,1.07,0,0,1,.32.81,1,1,0,0,1-.32.8,1.41,1.41,0,0,1-1.74,0Z" fill="#003a50"/><path d="M441.24,427.76h-2.35l5.42-10h-6.93v-1.88h9.28v1.88Z" fill="#003a50"/><path d="M263.17,418.41l-2.49,1.95v-2.24l2.74-2.27h1.86v11.91h-2.11Z" fill="#003a50"/><path d="M277.67,427.76h-9.94V426.2a2.8,2.8,0,0,1,.58-1.74,4.12,4.12,0,0,1,1.45-1.2c.5-.25,1.12-.54,1.87-.86s1.32-.56,1.88-.77a4.09,4.09,0,0,0,1.44-.92,1.78,1.78,0,0,0,.57-1.3c0-1.26-.89-1.89-2.66-1.89s-2.68.72-2.68,2.16v.41h-2.11v-.41a3.59,3.59,0,0,1,1.27-3,5.34,5.34,0,0,1,3.51-1,5.65,5.65,0,0,1,3.51,1,3.29,3.29,0,0,1,1.27,2.75,3.11,3.11,0,0,1-.55,1.83,4.31,4.31,0,0,1-1.41,1.31q-.9.51-1.83.93t-1.83.75a5.55,5.55,0,0,0-1.4.74,1.23,1.23,0,0,0-.57,1h7.63Z" fill="#003a50"/><path d="M279.77,427.63a1,1,0,0,1-.33-.8,1,1,0,0,1,.33-.81,1.4,1.4,0,0,1,1.73,0,1,1,0,0,1,.33.81,1,1,0,0,1-.33.8,1.4,1.4,0,0,1-1.73,0Z" fill="#003a50"/><path d="M292.1,427.76H290v-2.65h-7v-1.84l6.3-7.42h2.79v7.42h1.59v1.84H292.1ZM290,423.27V418h-.07l-4.47,5.27v0Z" fill="#003a50"/><path d="M222,338.36h-5.82v-1.85h8.86v1.85L220.56,341v.06h1.27a3.87,3.87,0,0,1,2.79,1,3.5,3.5,0,0,1,1.06,2.67,3.34,3.34,0,0,1-1.33,2.83,7,7,0,0,1-7.24,0,3.37,3.37,0,0,1-1.33-2.86v-.33h2.11v.33c0,1.36,1,2,2.84,2s2.84-.66,2.84-2-.95-2-2.84-2h-3.26v-1.66l4.57-2.69Z" fill="#003a50"/><path d="M227.78,348.29a1,1,0,0,1-.32-.81,1,1,0,0,1,.32-.8,1.41,1.41,0,0,1,1.74,0,1.06,1.06,0,0,1,.32.8,1,1,0,0,1-.32.81,1.41,1.41,0,0,1-1.74,0Z" fill="#003a50"/><path d="M231.92,345.08h2.2s0,.07,0,.17a2.53,2.53,0,0,0,.22.44,2.41,2.41,0,0,0,.42.48,2,2,0,0,0,.75.42,3.21,3.21,0,0,0,1.05.16,2.66,2.66,0,0,0,2.24-1.06,4.32,4.32,0,0,0,.81-2.71h-.06a2.27,2.27,0,0,1-.44.47,3,3,0,0,1-.6.4,4.36,4.36,0,0,1-.95.32,5.58,5.58,0,0,1-1.23.13,4.92,4.92,0,0,1-3.36-1.13,3.73,3.73,0,0,1,0-5.72,5.49,5.49,0,0,1,3.6-1.1,4.81,4.81,0,0,1,3.87,1.54,6.4,6.4,0,0,1,1.32,4.27v.41a6.64,6.64,0,0,1-1.37,4.31,4.67,4.67,0,0,1-3.88,1.71,6,6,0,0,1-2.17-.38,3.85,3.85,0,0,1-1.48-.94A3.31,3.31,0,0,1,231.92,345.08Zm2.77-3.17a3.58,3.58,0,0,0,3.94,0,1.86,1.86,0,0,0,.78-1.57,1.88,1.88,0,0,0-.77-1.58,3.27,3.27,0,0,0-2-.58,3.23,3.23,0,0,0-2,.58,1.88,1.88,0,0,0-.78,1.58A1.84,1.84,0,0,0,234.69,341.91Z" fill="#003a50"/><path d="M220.68,244h-5.82v-1.84h8.86V244l-4.53,2.65v.07h1.28a3.84,3.84,0,0,1,2.79,1,3.49,3.49,0,0,1,1.06,2.66,3.33,3.33,0,0,1-1.33,2.83,7,7,0,0,1-7.24,0,3.36,3.36,0,0,1-1.33-2.86v-.32h2.11v.32c0,1.36.95,2,2.84,2s2.84-.67,2.84-2-1-2-2.84-2h-3.26v-1.67l4.57-2.68Z" fill="#003a50"/><path d="M226.42,254a1,1,0,0,1-.32-.8,1,1,0,0,1,.32-.81,1.41,1.41,0,0,1,1.74,0,1.07,1.07,0,0,1,.32.81,1,1,0,0,1-.32.8,1.41,1.41,0,0,1-1.74,0Z" fill="#003a50"/><path d="M233.53,254.1h-2.35l5.41-10h-6.92v-1.87H239v1.87Z" fill="#003a50"/><path d="M340.5,163.05h-9.93v-1.56a2.74,2.74,0,0,1,.58-1.74,4,4,0,0,1,1.44-1.2c.5-.25,1.12-.54,1.87-.86s1.32-.56,1.88-.78a4.07,4.07,0,0,0,1.44-.91,1.77,1.77,0,0,0,.58-1.3q0-1.89-2.67-1.89T333,155v.41h-2.11V155a3.62,3.62,0,0,1,1.26-3,5.36,5.36,0,0,1,3.51-1,5.66,5.66,0,0,1,3.52,1,3.3,3.3,0,0,1,1.27,2.75,3.14,3.14,0,0,1-.56,1.83,4.39,4.39,0,0,1-1.4,1.31c-.6.34-1.21.65-1.84.93s-1.23.52-1.83.74a5.26,5.26,0,0,0-1.4.75,1.21,1.21,0,0,0-.56,1h7.62Z" fill="#003a50"/><path d="M345.8,163.05h-2.35l5.41-10h-6.92v-1.88h9.28V153Z" fill="#003a50"/><path d="M352.65,162.92a1,1,0,0,1-.33-.81,1,1,0,0,1,.33-.8,1.23,1.23,0,0,1,.87-.3,1.2,1.2,0,0,1,.86.3,1,1,0,0,1,.33.8,1,1,0,0,1-.33.81,1.2,1.2,0,0,1-.86.3A1.23,1.23,0,0,1,352.65,162.92Z" fill="#003a50"/><path d="M358.05,161.52a7.38,7.38,0,0,1,0-8.84,5.71,5.71,0,0,1,8.13,0,7.34,7.34,0,0,1,0,8.84,5.71,5.71,0,0,1-8.13,0Zm6.53-1.39a5.73,5.73,0,0,0,0-6.07,3.14,3.14,0,0,0-4.91,0,5.67,5.67,0,0,0,0,6.07,2.87,2.87,0,0,0,2.45,1.19A2.9,2.9,0,0,0,364.58,160.13Z" fill="#003a50"/><path d="M217.7,78h-5.82V76.19h8.86V78l-4.52,2.65v.07h1.28a3.9,3.9,0,0,1,2.79,1,3.52,3.52,0,0,1,1.05,2.67A3.32,3.32,0,0,1,220,87.25a7,7,0,0,1-7.24,0,3.39,3.39,0,0,1-1.33-2.86v-.32h2.11v.32c0,1.37.95,2,2.84,2s2.84-.67,2.84-2-.94-2-2.84-2h-3.26V80.78l4.57-2.68Z" fill="#003a50"/><path d="M223.44,88a1,1,0,0,1-.32-.8,1.07,1.07,0,0,1,.32-.81,1.41,1.41,0,0,1,1.74,0,1.07,1.07,0,0,1,.32.81,1,1,0,0,1-.32.8,1.41,1.41,0,0,1-1.74,0Z" fill="#003a50"/><path d="M233.55,78h-5.82V76.19h8.86V78l-4.53,2.65v.07h1.28a3.9,3.9,0,0,1,2.79,1,3.5,3.5,0,0,1,1.06,2.67,3.35,3.35,0,0,1-1.33,2.82,7,7,0,0,1-7.24,0,3.36,3.36,0,0,1-1.33-2.86v-.32h2.11v.32c0,1.37.94,2,2.84,2s2.84-.67,2.84-2-1-2-2.84-2H229V80.78l4.58-2.68Z" fill="#003a50"/><path d="M108.88,155.07a5,5,0,0,1,3.34,1.06,3.69,3.69,0,0,1,1.25,3,3.73,3.73,0,0,1-1.29,3,5.39,5.39,0,0,1-3.55,1.08,5.86,5.86,0,0,1-3.56-1,3.18,3.18,0,0,1-1.29-2.69h2.11a1.57,1.57,0,0,0,.7,1.34,3.62,3.62,0,0,0,2,.48,3.15,3.15,0,0,0,2-.57,2.37,2.37,0,0,0,0-3.39,3.25,3.25,0,0,0-2.07-.58,3.7,3.7,0,0,0-1.92.41,2.12,2.12,0,0,0-.7.64l0,.13h-2.11v-6.88h8.88V153h-6.77v2.95h0a2.77,2.77,0,0,1,.4-.3,3.11,3.11,0,0,1,.55-.27A5.6,5.6,0,0,1,108.88,155.07Z" fill="#003a50"/><path d="M115.58,162.92a1,1,0,0,1-.32-.81,1.06,1.06,0,0,1,.32-.8,1.25,1.25,0,0,1,.88-.3,1.22,1.22,0,0,1,.86.3,1,1,0,0,1,.32.8,1,1,0,0,1-.32.81,1.22,1.22,0,0,1-.86.3A1.25,1.25,0,0,1,115.58,162.92Z" fill="#003a50"/><path d="M122.69,163.05h-2.35l5.42-10h-6.93v-1.88h9.28V153Z" fill="#003a50"/><path d="M105.16,78.75l-2.48,2V78.46l2.73-2.27h1.86V88.1h-2.11Z" fill="#003a50"/><path d="M109.8,88a1,1,0,0,1-.33-.8,1,1,0,0,1,.33-.81,1.4,1.4,0,0,1,1.73,0,1,1,0,0,1,.32.81,1,1,0,0,1-.32.8,1.4,1.4,0,0,1-1.73,0Z" fill="#003a50"/><path d="M116.9,88.1h-2.35l5.42-10H113V76.19h9.29v1.87Z" fill="#003a50"/><path d="M8.67,277.67H-1.26v-1.56a2.79,2.79,0,0,1,.58-1.75,4,4,0,0,1,1.45-1.19c.5-.26,1.12-.55,1.87-.87s1.32-.55,1.87-.77A4.21,4.21,0,0,0,6,270.62a1.81,1.81,0,0,0,.57-1.31c0-1.25-.89-1.88-2.67-1.88s-2.67.72-2.67,2.16V270H-.92v-.41a3.64,3.64,0,0,1,1.26-3,5.45,5.45,0,0,1,3.52-1,5.72,5.72,0,0,1,3.51,1,3.29,3.29,0,0,1,1.27,2.75,3.17,3.17,0,0,1-.56,1.84,4.16,4.16,0,0,1-1.4,1.3,16.7,16.7,0,0,1-1.84.93c-.62.28-1.23.53-1.82.75a5.18,5.18,0,0,0-1.41.75,1.23,1.23,0,0,0-.56.95H8.67Z" fill="#003a50"/><path d="M10.77,277.54a1,1,0,0,1-.32-.81,1.07,1.07,0,0,1,.32-.81,1.3,1.3,0,0,1,.88-.29,1.26,1.26,0,0,1,.86.29,1,1,0,0,1,.32.81,1,1,0,0,1-.32.81,1.26,1.26,0,0,1-.86.29A1.3,1.3,0,0,1,10.77,277.54Z" fill="#003a50"/><path d="M16.18,276.13a7.33,7.33,0,0,1,0-8.83,5.1,5.1,0,0,1,4.07-1.71,5.08,5.08,0,0,1,4.06,1.71,7.33,7.33,0,0,1,0,8.83,5.07,5.07,0,0,1-4.06,1.7A5.09,5.09,0,0,1,16.18,276.13Zm6.53-1.38a5.75,5.75,0,0,0,0-6.08,2.91,2.91,0,0,0-2.46-1.17,2.89,2.89,0,0,0-2.46,1.17,5.69,5.69,0,0,0,0,6.08,2.87,2.87,0,0,0,2.46,1.18A2.89,2.89,0,0,0,22.71,274.75Z" fill="#003a50"/><path d="M-.95,426.92a6.43,6.43,0,0,1-3.68.92,6.45,6.45,0,0,1-3.68-.93,2.94,2.94,0,0,1-1.37-2.56,2.66,2.66,0,0,1,.25-1.16,2.43,2.43,0,0,1,.66-.86,4.11,4.11,0,0,1,1.39-.77l.26-.07v-.09a3.32,3.32,0,0,1-.76-.29,2.68,2.68,0,0,1-.67-.44,2.15,2.15,0,0,1-.54-.76,2.38,2.38,0,0,1-.22-1,2.81,2.81,0,0,1,1.25-2.38,5.75,5.75,0,0,1,3.43-.9,5.78,5.78,0,0,1,3.42.9A2.8,2.8,0,0,1,0,418.88a2.5,2.5,0,0,1-.22,1.05,2,2,0,0,1-.55.74,3.72,3.72,0,0,1-1.2.68l-.22,0v.09l.28.07a4.76,4.76,0,0,1,.62.26,4.79,4.79,0,0,1,.78.51,2.82,2.82,0,0,1,.61.82,2.71,2.71,0,0,1,.27,1.2A3,3,0,0,1-.95,426.92Zm-5.79-1.36a3.85,3.85,0,0,0,2.11.48,4,4,0,0,0,2.1-.47,1.52,1.52,0,0,0,.74-1.35,1.53,1.53,0,0,0-.74-1.35,4,4,0,0,0-2.1-.46,4,4,0,0,0-2.11.46,1.53,1.53,0,0,0-.74,1.35A1.5,1.5,0,0,0-6.74,425.56ZM-7.1,419a1.35,1.35,0,0,0,.64,1.19,3.25,3.25,0,0,0,1.83.44,3.24,3.24,0,0,0,1.82-.44A1.35,1.35,0,0,0-2.17,419a1.38,1.38,0,0,0-.65-1.2,3.28,3.28,0,0,0-1.81-.43,3.29,3.29,0,0,0-1.82.43A1.38,1.38,0,0,0-7.1,419Z" fill="#003a50"/><path d="M2.52,427.55a1,1,0,0,1-.32-.81,1.07,1.07,0,0,1,.32-.81,1.3,1.3,0,0,1,.88-.29,1.26,1.26,0,0,1,.86.29,1,1,0,0,1,.32.81,1,1,0,0,1-.32.81,1.21,1.21,0,0,1-.86.29A1.25,1.25,0,0,1,2.52,427.55Z" fill="#003a50"/><path d="M12.63,417.61H6.81v-1.84h8.86v1.84l-4.53,2.65v.07h1.28a3.9,3.9,0,0,1,2.79,1A3.5,3.5,0,0,1,16.27,424a3.32,3.32,0,0,1-1.33,2.82,5.83,5.83,0,0,1-3.62,1,5.79,5.79,0,0,1-3.62-1A3.36,3.36,0,0,1,6.37,424v-.32H8.48V424c0,1.37.95,2,2.84,2s2.84-.67,2.84-2-.95-2-2.84-2H8.06v-1.67l4.57-2.68Z" fill="#003a50"/></g></svg>