<svg id="Слой_1" data-name="Слой 1" xmlns="http://www.w3.org/2000/svg" xmlns:xlink="http://www.w3.org/1999/xlink" viewBox="0 0 375.02 470.55"><defs><clipPath id="clip-path"><polygon points="196.02 0 196.02 21.26 189.21 21.26 189.21 50.23 0 50.23 0 469.42 367.8 469.42 367.8 456.32 375.02 456.32 375.02 50.23 245.34 50.23 245.34 0 196.02 0" fill="none"/></clipPath></defs><polygon points="0 50.23 0 426.92 6.08 426.92 6.08 54.92 126.8 54.92 126.74 50.23 0 50.23" fill="#fff"/><polygon points="241.27 66.58 191.65 66.58 7.97 59.9 6.08 426.92 367.14 426.92 364.96 59.9 241.27 66.58" fill="#fff"/><polygon points="262.63 50.23 261.39 60.6 364.96 59.9 365.63 425.38 375.02 425.42 375.02 50.23 262.63 50.23" fill="#fff"/><g clip-path="url(#clip-path)"><rect x="-359.7" y="-1753.27" width="1115.44" height="2194.74" fill="none" stroke="#003a50" stroke-miterlimit="10"/><polygon points="-335.33 -667.53 -335.33 418.51 731.36 418.51 731.36 -1729.31 -335.33 -1729.46 -335.33 -736.33 -335.33 -667.53" fill="none" stroke="#003a50" stroke-miterlimit="10"/></g><rect x="213.96" y="426.86" width="87.59" height="4.56" fill="#fff"/><rect x="213.96" y="426.86" width="87.59" height="4.56" fill="none" stroke="#003a50" stroke-miterlimit="10"/><line x1="213.96" y1="429.14" x2="301.55" y2="429.14" fill="none" stroke="#003a50" stroke-miterlimit="10"/><rect x="213.96" y="426.86" width="4.42" height="4.56" fill="#fff"/><rect x="213.96" y="426.86" width="4.42" height="4.56" fill="none" stroke="#003a50" stroke-miterlimit="10"/><rect x="297.13" y="426.86" width="4.42" height="4.56" fill="#fff"/><rect x="297.13" y="426.86" width="4.42" height="4.56" fill="none" stroke="#003a50" stroke-miterlimit="10"/><rect x="255.54" y="426.86" width="4.42" height="4.56" fill="#fff"/><rect x="255.54" y="426.86" width="4.42" height="4.56" fill="none" stroke="#003a50" stroke-miterlimit="10"/><rect x="29.99" y="426.86" width="87.79" height="4.56" fill="#fff"/><rect x="29.99" y="426.86" width="87.79" height="4.56" fill="none" stroke="#003a50" stroke-miterlimit="10"/><line x1="29.99" y1="429.14" x2="117.78" y2="429.14" fill="none" stroke="#003a50" stroke-miterlimit="10"/><rect x="29.99" y="426.86" width="4.43" height="4.56" fill="#fff"/><rect x="29.99" y="426.86" width="4.43" height="4.56" fill="none" stroke="#003a50" stroke-miterlimit="10"/><rect x="113.35" y="426.86" width="4.43" height="4.56" fill="#fff"/><rect x="113.35" y="426.86" width="4.43" height="4.56" fill="none" stroke="#003a50" stroke-miterlimit="10"/><rect x="71.67" y="426.86" width="4.43" height="4.56" fill="#fff"/><rect x="71.67" y="426.86" width="4.43" height="4.56" fill="none" stroke="#003a50" stroke-miterlimit="10"/><rect x="14.64" y="91.67" width="42.38" height="92.09" fill="none" stroke="#003a50" stroke-miterlimit="10"/><g clip-path="url(#clip-path)"><rect x="19.62" y="95.46" width="32.03" height="84.24" rx="13.7" fill="none" stroke="#003a50" stroke-miterlimit="10"/><path d="M37.92,110a2.2,2.2,0,1,0-2.2,2.2A2.2,2.2,0,0,0,37.92,110Z" fill="none" stroke="#003a50" stroke-miterlimit="10"/><rect x="-42.08" y="91.67" width="42.38" height="92.09" fill="none" stroke="#003a50" stroke-miterlimit="10"/><path d="M99.67,119.74V91.18H76.59v28.56a11.54,11.54,0,1,0,23.08,0Z" fill="none" stroke="#003a50" stroke-miterlimit="10"/></g><rect x="76.59" y="91.18" width="23.08" height="11.08" fill="none" stroke="#003a50" stroke-miterlimit="10"/><g clip-path="url(#clip-path)"><path d="M403.56,61.14H375V84.22h28.57a11.54,11.54,0,1,0,0-23.08Z" fill="none" stroke="#003a50" stroke-miterlimit="10"/><rect x="375" y="61.14" width="11.08" height="23.08" fill="none" stroke="#003a50" stroke-miterlimit="10"/><path d="M143.21,76.45a3.38,3.38,0,0,0,3.13-2.1h1.93l5.1,3-2.32,3.77-2.65-1.45V91.53H137.3V79.71l-2.65,1.45-2.32-3.77,5.14-3h2.58A3.43,3.43,0,0,0,143.21,76.45Z" fill="none" stroke="#003a50" stroke-miterlimit="10"/></g><rect x="125.84" y="66.55" width="34.02" height="32.78" fill="none" stroke="#003a50" stroke-miterlimit="10"/><rect x="325.31" y="99.2" width="34.02" height="33.97" fill="none" stroke="#003a50" stroke-miterlimit="10"/><g clip-path="url(#clip-path)"><path d="M346.62,114.68V103.63H338v11.05a3.55,3.55,0,0,0,3.55,3.54h1.51A3.55,3.55,0,0,0,346.62,114.68Z" fill="none" stroke="#003a50" stroke-miterlimit="10"/></g><polyline points="338.84 128.78 342.31 128.78 345.79 128.78" fill="none" stroke="#003a50" stroke-miterlimit="10"/><line x1="342.32" y1="118.22" x2="342.32" y2="128.78" fill="none" stroke="#003a50" stroke-miterlimit="10"/><rect x="325.39" y="140.31" width="34.02" height="34.02" fill="none" stroke="#003a50" stroke-miterlimit="10"/><g clip-path="url(#clip-path)"><path d="M334.8,169.73a4.64,4.64,0,1,1,4.63-4.64A4.64,4.64,0,0,1,334.8,169.73Z" fill="none" stroke="#003a50" stroke-miterlimit="10"/><path d="M334.8,154.24a4.64,4.64,0,1,1,4.63-4.63A4.63,4.63,0,0,1,334.8,154.24Z" fill="none" stroke="#003a50" stroke-miterlimit="10"/><path d="M349.89,169.73a4.64,4.64,0,1,1,4.63-4.64A4.64,4.64,0,0,1,349.89,169.73Z" fill="none" stroke="#003a50" stroke-miterlimit="10"/><path d="M349.89,154.24a4.64,4.64,0,1,1,4.63-4.63A4.63,4.63,0,0,1,349.89,154.24Z" fill="none" stroke="#003a50" stroke-miterlimit="10"/></g><rect x="183.69" y="302.87" width="17.01" height="102.05" fill="none" stroke="#003a50" stroke-miterlimit="10"/><polygon points="192.73 396.89 189.2 354 192.73 310.89 195.19 310.89 195.19 396.89 192.73 396.89" fill="none" stroke="#003a50" stroke-miterlimit="10"/><rect x="161.03" y="285.88" width="17.01" height="102.05" fill="none" stroke="#003a50" stroke-miterlimit="10"/><polygon points="169 379.9 172.52 337.01 169 293.9 166.54 293.9 166.54 379.9 169 379.9" fill="none" stroke="#003a50" stroke-miterlimit="10"/><rect x="325.4" y="99.3" width="33.59" height="122.25" fill="none" stroke="#003a50" stroke-miterlimit="10"/><rect x="278.33" y="66.58" width="80.66" height="32.72" fill="none" stroke="#003a50" stroke-miterlimit="10"/><g clip-path="url(#clip-path)"><rect x="-52.52" y="296.74" width="52.33" height="113.67" fill="none" stroke="#003a50" stroke-miterlimit="10"/></g><rect x="160.09" y="66.58" width="21.14" height="32.72" fill="none" stroke="#003a50" stroke-miterlimit="10"/><rect x="125.61" y="156.74" width="55.62" height="26.49" fill="none" stroke="#003a50" stroke-miterlimit="10"/><polyline points="311.77 70.1 304.97 70.1 298.19 70.1" fill="none" stroke="#003a50" stroke-miterlimit="10"/><line x1="304.96" y1="83.72" x2="304.96" y2="70.1" fill="none" stroke="#003a50" stroke-miterlimit="10"/><g clip-path="url(#clip-path)"><path d="M320,94.36V79.16a3.24,3.24,0,0,0-3.24-3.23H293.2A3.23,3.23,0,0,0,290,79.16v15.2a3.23,3.23,0,0,0,3.23,3.24h23.59A3.24,3.24,0,0,0,320,94.36Z" fill="none" stroke="#003a50" stroke-miterlimit="10"/><path d="M305,85.42A2.43,2.43,0,1,0,302.53,83,2.42,2.42,0,0,0,305,85.42Z" fill="none" stroke="#003a50" stroke-miterlimit="10"/><path d="M229.92,269.75a1.27,1.27,0,0,1,1,1.51,13.78,13.78,0,1,0,26.87,6.16,1.26,1.26,0,0,1,2.46.57,16.3,16.3,0,0,1-31.78-7.29A1.25,1.25,0,0,1,229.92,269.75Z" fill="none" stroke="#003a50" stroke-miterlimit="10"/><path d="M285.09,279.47a1.27,1.27,0,0,1,1.75-.33,13.79,13.79,0,0,0,15.53-22.79,1.25,1.25,0,0,1-.34-1.74,1.26,1.26,0,0,1,1.75-.34,16.3,16.3,0,0,1-18.35,27A1.26,1.26,0,0,1,285.09,279.47Z" fill="none" stroke="#003a50" stroke-miterlimit="10"/><path d="M287.6,232.07a1.26,1.26,0,0,1-1.33-1.18,13.78,13.78,0,1,0-27.52,1.62,1.26,1.26,0,1,1-2.52.16,16.3,16.3,0,0,1,32.55-1.94A1.26,1.26,0,0,1,287.6,232.07Z" fill="none" stroke="#003a50" stroke-miterlimit="10"/><path d="M244.12,286.37a12.69,12.69,0,0,1-12-15.48l2-8.88a3.53,3.53,0,0,1,4.24-2.68l13.44,3.08a23.73,23.73,0,0,0,6,9.44l-1,4.2C255.52,282,250.24,286.57,244.12,286.37Z" fill="none" stroke="#003a50" stroke-miterlimit="10"/><path d="M286.92,277.85l-2.32-1.6a23.81,23.81,0,0,0,13.64-21.32l2.52,1.72c5,3.44,7.4,10,5,15.64A12.7,12.7,0,0,1,286.92,277.85Z" fill="none" stroke="#003a50" stroke-miterlimit="10"/><path d="M260.08,235.57l-.12-2c-.36-6.12,3.4-12,9.32-13.48a12.66,12.66,0,0,1,15.88,11.48l.12,1.84a23.93,23.93,0,0,0-16.64-1.92A23.5,23.5,0,0,0,260.08,235.57Z" fill="none" stroke="#003a50" stroke-miterlimit="10"/><path d="M257.84,271.85a23.73,23.73,0,0,1-6-9.44,16.51,16.51,0,0,1-.6-2,23.85,23.85,0,0,1,8.84-24.84,23.5,23.5,0,0,1,8.56-4,23.87,23.87,0,0,1,28.92,17.4,22.12,22.12,0,0,1,.68,6,23.81,23.81,0,0,1-13.64,21.32,22.85,22.85,0,0,1-4.48,1.6A23.8,23.8,0,0,1,257.84,271.85Z" fill="none" stroke="#003a50" stroke-miterlimit="10"/><path d="M55,218.64a1,1,0,0,1-.54.9.94.94,0,0,1-1.29-.45,29.69,29.69,0,0,1,0-25.26,1,1,0,0,1,1.29-.46,1,1,0,0,1,.44,1.34,27.64,27.64,0,0,0,0,23.49A1,1,0,0,1,55,218.64Z" fill="none" stroke="#003a50" stroke-miterlimit="10"/><path d="M49.62,218.64a1,1,0,0,1-.54.9.94.94,0,0,1-1.29-.45,29.69,29.69,0,0,1,0-25.26,1,1,0,0,1,1.29-.46,1,1,0,0,1,.44,1.34,27.64,27.64,0,0,0,0,23.49A1,1,0,0,1,49.62,218.64Z" fill="none" stroke="#003a50" stroke-miterlimit="10"/><path d="M44.25,218.64a1,1,0,0,1-.54.9.94.94,0,0,1-1.29-.45,29.69,29.69,0,0,1,0-25.26,1,1,0,0,1,1.29-.46,1,1,0,0,1,.44,1.34,27.64,27.64,0,0,0,0,23.49A1,1,0,0,1,44.25,218.64Z" fill="none" stroke="#003a50" stroke-miterlimit="10"/><path d="M38.88,218.64a1,1,0,0,1-.54.9,1,1,0,0,1-1.3-.45,29.69,29.69,0,0,1,0-25.26,1,1,0,0,1,1.3-.46,1,1,0,0,1,.44,1.34,27.64,27.64,0,0,0,0,23.49A1,1,0,0,1,38.88,218.64Z" fill="none" stroke="#003a50" stroke-miterlimit="10"/><path d="M33.51,218.64a1,1,0,0,1-.54.9,1,1,0,0,1-1.3-.45,29.69,29.69,0,0,1,0-25.26,1,1,0,0,1,1.29-.46,1,1,0,0,1,.45,1.34,27.64,27.64,0,0,0,0,23.49A1,1,0,0,1,33.51,218.64Z" fill="none" stroke="#003a50" stroke-miterlimit="10"/><path d="M28.14,218.64a1,1,0,0,1-.54.9,1,1,0,0,1-1.3-.45,29.69,29.69,0,0,1,0-25.26,1,1,0,0,1,1.29-.46,1,1,0,0,1,.45,1.34,27.64,27.64,0,0,0,0,23.49A1,1,0,0,1,28.14,218.64Z" fill="none" stroke="#003a50" stroke-miterlimit="10"/><path d="M60.37,218.64a1,1,0,0,1-.54.9,1,1,0,0,1-1.3-.45,29.69,29.69,0,0,1,0-25.26,1,1,0,0,1,1.29-.46,1,1,0,0,1,.45,1.34,27.64,27.64,0,0,0,0,23.49A1.13,1.13,0,0,1,60.37,218.64Z" fill="none" stroke="#003a50" stroke-miterlimit="10"/><path d="M65.74,218.64a1,1,0,0,1-.54.9,1,1,0,0,1-1.3-.45,29.69,29.69,0,0,1,0-25.26,1,1,0,0,1,1.29-.46,1,1,0,0,1,.45,1.34,27.64,27.64,0,0,0,0,23.49A1,1,0,0,1,65.74,218.64Z" fill="none" stroke="#003a50" stroke-miterlimit="10"/></g><line x1="177.77" y1="206.45" x2="13.9" y2="206.45" fill="none" stroke="#003a50" stroke-miterlimit="10"/><rect x="14.91" y="189.17" width="162.86" height="34.02" fill="none" stroke="#003a50" stroke-miterlimit="10"/><g clip-path="url(#clip-path)"><path d="M47.66,45.44a1,1,0,0,1-.54.9,1,1,0,0,1-1.3-.46,29.69,29.69,0,0,1,0-25.26.94.94,0,0,1,1.29-.45,1,1,0,0,1,.45,1.34,27.64,27.64,0,0,0,0,23.49A1.13,1.13,0,0,1,47.66,45.44Z" fill="none" stroke="#003a50" stroke-miterlimit="10"/><path d="M42.28,45.44a1,1,0,0,1-.54.9,1,1,0,0,1-1.29-.46,29.69,29.69,0,0,1,0-25.26.94.94,0,0,1,1.29-.45,1,1,0,0,1,.44,1.34,27.64,27.64,0,0,0,0,23.49A1,1,0,0,1,42.28,45.44Z" fill="none" stroke="#003a50" stroke-miterlimit="10"/><path d="M36.91,45.44a1,1,0,0,1-.54.9,1,1,0,0,1-1.29-.46,29.69,29.69,0,0,1,0-25.26.94.94,0,0,1,1.29-.45,1,1,0,0,1,.44,1.34,27.64,27.64,0,0,0,0,23.49A1,1,0,0,1,36.91,45.44Z" fill="none" stroke="#003a50" stroke-miterlimit="10"/><path d="M31.54,45.44a1,1,0,0,1-.54.9,1,1,0,0,1-1.29-.46,29.69,29.69,0,0,1,0-25.26A.94.94,0,0,1,31,20.17a1,1,0,0,1,.44,1.34,27.64,27.64,0,0,0,0,23.49A1,1,0,0,1,31.54,45.44Z" fill="none" stroke="#003a50" stroke-miterlimit="10"/><path d="M26.17,45.44a1,1,0,0,1-.54.9,1,1,0,0,1-1.3-.46,29.69,29.69,0,0,1,0-25.26,1,1,0,0,1,1.3-.45,1,1,0,0,1,.44,1.34,27.64,27.64,0,0,0,0,23.49A1,1,0,0,1,26.17,45.44Z" fill="none" stroke="#003a50" stroke-miterlimit="10"/><path d="M20.8,45.44a1,1,0,0,1-.54.9,1,1,0,0,1-1.3-.46,29.69,29.69,0,0,1,0-25.26.94.94,0,0,1,1.29-.45,1,1,0,0,1,.45,1.34A27.64,27.64,0,0,0,20.7,45,1,1,0,0,1,20.8,45.44Z" fill="none" stroke="#003a50" stroke-miterlimit="10"/><path d="M53,45.44a1,1,0,0,1-.54.9,1,1,0,0,1-1.3-.46,29.69,29.69,0,0,1,0-25.26.94.94,0,0,1,1.29-.45,1,1,0,0,1,.45,1.34,27.64,27.64,0,0,0,0,23.49A1,1,0,0,1,53,45.44Z" fill="none" stroke="#003a50" stroke-miterlimit="10"/><path d="M58.4,45.44a1,1,0,0,1-.54.9,1,1,0,0,1-1.3-.46,29.69,29.69,0,0,1,0-25.26.94.94,0,0,1,1.29-.45,1,1,0,0,1,.45,1.34A27.64,27.64,0,0,0,58.3,45,1,1,0,0,1,58.4,45.44Z" fill="none" stroke="#003a50" stroke-miterlimit="10"/><rect x="7.31" y="15.89" width="119.14" height="34.38" fill="none" stroke="#003a50" stroke-miterlimit="10"/></g><rect x="57.35" y="157.88" width="61.57" height="25.39" fill="none" stroke="#003a50" stroke-miterlimit="10"/><g clip-path="url(#clip-path)"><rect x="75.45" y="159.94" width="24.4" height="25.04" rx="2.83" fill="none" stroke="#003a50" stroke-miterlimit="10"/><path d="M87.65,170.55a1.91,1.91,0,1,1-1.91,1.91A1.9,1.9,0,0,1,87.65,170.55Z" fill="none" stroke="#003a50" stroke-miterlimit="10"/></g><rect x="325.34" y="187.96" width="33.52" height="33.52" fill="none" stroke="#003a50" stroke-miterlimit="10"/><line x1="342.1" y1="214.57" x2="342.1" y2="194.89" fill="none" stroke="#003a50" stroke-miterlimit="10"/><line x1="351.94" y1="204.73" x2="332.27" y2="204.73" fill="none" stroke="#003a50" stroke-miterlimit="10"/><line x1="349.06" y1="211.68" x2="335.15" y2="197.78" fill="none" stroke="#003a50" stroke-miterlimit="10"/><line x1="349.06" y1="197.77" x2="335.15" y2="211.68" fill="none" stroke="#003a50" stroke-miterlimit="10"/><g clip-path="url(#clip-path)"><rect x="375.35" y="111.34" width="26.62" height="97.42" fill="none" stroke="#003a50" stroke-miterlimit="10"/><rect x="-88.88" y="189.17" width="90.71" height="34.02" fill="none" stroke="#003a50" stroke-miterlimit="10"/><line x1="1.82" y1="206.18" x2="-88.89" y2="206.18" fill="none" stroke="#003a50" stroke-miterlimit="10"/><path d="M312.64,353.94h41v45.77H310.43V356.15A2.21,2.21,0,0,1,312.64,353.94Z" fill="none" stroke="#003a50" stroke-miterlimit="10"/><path d="M312.42,308.07h41.26v45.77H312.42a2,2,0,0,1-2-2v-41.8A2,2,0,0,1,312.42,308.07Z" fill="none" stroke="#003a50" stroke-miterlimit="10"/><path d="M310.43,399.71A3.11,3.11,0,0,0,307.6,403v4.22a3.11,3.11,0,0,0,2.83,3.33h48.2V297.2H310.86a3.11,3.11,0,0,0-2.83,3.33v4.22a3.11,3.11,0,0,0,2.83,3.33h42.82v91.63Z" fill="none" stroke="#003a50" stroke-miterlimit="10"/></g><rect x="344.43" y="308.07" width="9.25" height="91.64" fill="none" stroke="#003a50" stroke-miterlimit="10"/><rect x="16.16" y="250.82" width="22.68" height="22.68" fill="none" stroke="#003a50" stroke-miterlimit="10"/><g clip-path="url(#clip-path)"><path d="M34,268.67a9.2,9.2,0,1,1,0-13A9.2,9.2,0,0,1,34,268.67Z" fill="none" stroke="#003a50" stroke-miterlimit="10"/><path d="M34.62,268c-1.69-.17-3.41.48-5.06-1.17-2.44-2.44.14-5-2.3-7.46s-5,.14-7.46-2.3" fill="none" stroke="#003a50" stroke-miterlimit="10"/></g><rect x="16.16" y="391.96" width="22.68" height="22.68" fill="none" stroke="#003a50" stroke-miterlimit="10"/><g clip-path="url(#clip-path)"><path d="M34,409.8a9.19,9.19,0,1,1,0-13A9.19,9.19,0,0,1,34,409.8Z" fill="none" stroke="#003a50" stroke-miterlimit="10"/><path d="M34.62,409.11c-1.69-.17-3.41.48-5.06-1.17-2.44-2.44.14-5-2.3-7.45s-5,.13-7.46-2.31" fill="none" stroke="#003a50" stroke-miterlimit="10"/></g><rect x="16.16" y="280.98" width="113.38" height="102.05" fill="none" stroke="#003a50" stroke-miterlimit="10"/><g clip-path="url(#clip-path)"><path d="M119.81,291v82a2.09,2.09,0,0,1-2.09,2.09H50.08V288.89h67.64A2.09,2.09,0,0,1,119.81,291Z" fill="none" stroke="#003a50" stroke-miterlimit="10"/><rect x="23.59" y="332.86" width="22.88" height="42.5" rx="1.98" fill="none" stroke="#003a50" stroke-miterlimit="10"/><rect x="23.59" y="288.64" width="22.88" height="42.5" rx="1.98" fill="none" stroke="#003a50" stroke-miterlimit="10"/></g><line x1="63.93" y1="288.64" x2="63.93" y2="375.36" fill="none" stroke="#003a50" stroke-miterlimit="10"/><g clip-path="url(#clip-path)"><rect x="375.17" y="389.31" width="22.68" height="22.68" fill="none" stroke="#003a50" stroke-miterlimit="10"/><rect x="375.17" y="250.88" width="22.68" height="22.68" fill="none" stroke="#003a50" stroke-miterlimit="10"/><rect x="375.17" y="280.41" width="113.38" height="102.05" fill="none" stroke="#003a50" stroke-miterlimit="10"/><rect x="-26.79" y="15.96" width="34.02" height="34.02" fill="none" stroke="#003a50" stroke-miterlimit="10"/><path d="M181.67,280.15h-3.46a43.48,43.48,0,0,1-43.48-43.48h46.94" fill="none" stroke="#003a50" stroke-miterlimit="10" stroke-width="1.6"/><path d="M124.18,114.86h3.12a39.34,39.34,0,0,1,39.34,39.34H124.18" fill="none" stroke="#003a50" stroke-miterlimit="10" stroke-width="1.6"/><path d="M191,56.7V52.64A51.13,51.13,0,0,1,242.12,1.51V56.7" fill="none" stroke="#003a50" stroke-miterlimit="10" stroke-width="1.6"/><path d="M137.4-36.52h4.07A51.13,51.13,0,0,1,192.6,14.61H137.4" fill="none" stroke="#003a50" stroke-miterlimit="10" stroke-width="1.6"/><polygon points="117.82 418.06 213.56 418.06 213.56 467.4 117.82 455.73 117.82 418.06" fill="#003a50" fill-rule="evenodd"/><rect x="252.58" y="-2.27" width="16.32" height="66" fill="#003a50"/><rect x="241.27" y="50.26" width="131.96" height="16.32" fill="#003a50"/><rect x="-0.19" y="50.26" width="191.83" height="16.32" fill="#003a50"/><rect x="-0.19" y="58.42" width="16.32" height="372.48" fill="#003a50"/><rect x="126.32" y="13.73" width="16.32" height="40.5" fill="#003a50"/><rect x="358.99" y="50.26" width="16.32" height="380.64" fill="#003a50"/><rect x="-1.39" y="417.98" width="27.03" height="46.75" fill="#003a50"/><rect x="2.61" y="417.98" width="27.03" height="23.38" fill="#003a50"/><rect x="124.15" y="411.82" width="82.83" height="27.12" fill="#003a50"/><rect x="301.73" y="417.98" width="95.33" height="38.32" fill="#003a50"/><rect x="369.89" y="421.98" width="27.17" height="41.92" fill="#003a50"/><rect x="-91.92" y="184.12" width="94.48" height="6.38" fill="#003a50"/><rect x="-95.54" y="50.23" width="99.68" height="6.38" fill="#003a50"/><rect x="-95.54" y="85.86" width="99.68" height="6.38" fill="#003a50"/><rect x="178.04" y="279.36" width="6.38" height="136.12" fill="#003a50"/><rect x="178.04" y="183.23" width="6.38" height="54.19" fill="#003a50"/><rect x="368.93" y="6.4" width="6.38" height="52.01" fill="#003a50"/><rect x="265.06" y="24.47" width="108.92" height="6.38" fill="#003a50"/><rect x="316.33" y="26.73" width="6.38" height="33.17" fill="#003a50"/><rect x="368.93" y="6.48" width="128.72" height="6.38" fill="#003a50"/><rect x="368.93" y="104.86" width="39.47" height="6.38" fill="#003a50"/><rect x="119.23" y="65.4" width="6.38" height="50.21" fill="#003a50"/><rect x="119.23" y="153.36" width="6.38" height="32.88" fill="#003a50"/><rect x="181.23" y="156.39" width="3.19" height="29.85" fill="#003a50"/><rect x="181.23" y="66.55" width="3.19" height="36.33" fill="#003a50"/><rect x="14.64" y="85.29" width="107.78" height="6.38" fill="#003a50"/><rect x="83.09" y="62.68" width="6.38" height="26.37" fill="#003a50"/><rect x="251.98" y="63.73" width="6.38" height="25.25" fill="#003a50"/><rect x="271.96" y="64.48" width="6.38" height="24.5" fill="#003a50"/><rect x="253.83" y="82.6" width="24.5" height="6.38" fill="#003a50"/><rect x="14.64" y="183.42" width="166.58" height="6.38" fill="#003a50"/><line x1="183.69" y1="156.74" x2="186.52" y2="156.74" fill="none" stroke="#003a50" stroke-miterlimit="10"/><line x1="192.27" y1="156.74" x2="246.87" y2="156.74" fill="none" stroke="#003a50" stroke-miterlimit="10" stroke-dasharray="5.75 5.75"/><polyline points="249.75 156.74 252.58 156.74 252.58 153.9" fill="none" stroke="#003a50" stroke-miterlimit="10"/><line x1="252.58" y1="148.06" x2="252.58" y2="92.52" fill="none" stroke="#003a50" stroke-miterlimit="10" stroke-dasharray="5.85 5.85"/><line x1="252.58" y1="89.6" x2="252.58" y2="86.76" fill="none" stroke="#003a50" stroke-miterlimit="10"/><line x1="9.45" y1="16.25" x2="9.45" y2="-54.97" fill="none" stroke="#003a50" stroke-miterlimit="10" stroke-dasharray="5.67 5.67"/></g><g clip-path="url(#clip-path)"><path d="M80.87,139.68H75v-1.84h8.87v1.84l-4.53,2.65v.07h1.28a3.9,3.9,0,0,1,2.79,1,3.52,3.52,0,0,1,1,2.67,3.34,3.34,0,0,1-1.32,2.82,7,7,0,0,1-7.25,0A3.39,3.39,0,0,1,74.6,146v-.32h2.11V146c0,1.36,1,2,2.84,2s2.84-.67,2.84-2-.94-2-2.84-2H76.29v-1.67l4.58-2.68Z" fill="#003a50"/><path d="M86.6,149.61a1,1,0,0,1-.32-.8,1.07,1.07,0,0,1,.32-.81,1.25,1.25,0,0,1,.88-.3,1.22,1.22,0,0,1,.86.3,1,1,0,0,1,.32.81,1,1,0,0,1-.32.8,1.22,1.22,0,0,1-.86.3A1.25,1.25,0,0,1,86.6,149.61Z" fill="#003a50"/><path d="M96.71,139.68H90.89v-1.84h8.86v1.84l-4.52,2.65v.07H96.5a3.87,3.87,0,0,1,2.79,1,3.5,3.5,0,0,1,1.06,2.67A3.32,3.32,0,0,1,99,148.9a7,7,0,0,1-7.24,0A3.36,3.36,0,0,1,90.45,146v-.32h2.11V146c0,1.36,1,2,2.84,2s2.84-.67,2.84-2-.95-2-2.84-2H92.14v-1.67l4.57-2.68Z" fill="#003a50"/><path d="M157.21,116.21h-9.93v-1.56a2.79,2.79,0,0,1,.58-1.75,3.91,3.91,0,0,1,1.45-1.19c.49-.26,1.12-.55,1.87-.87s1.32-.55,1.87-.77a4.36,4.36,0,0,0,1.45-.91,1.82,1.82,0,0,0,.57-1.31c0-1.25-.89-1.88-2.67-1.88s-2.67.72-2.67,2.16v.4h-2.11v-.4a3.62,3.62,0,0,1,1.26-3,5.45,5.45,0,0,1,3.52-1,5.72,5.72,0,0,1,3.51,1,3.29,3.29,0,0,1,1.27,2.75,3.17,3.17,0,0,1-.56,1.84,4.16,4.16,0,0,1-1.4,1.3,16.7,16.7,0,0,1-1.84.93c-.62.28-1.23.53-1.82.75a5.18,5.18,0,0,0-1.41.75,1.23,1.23,0,0,0-.56,1h7.62Z" fill="#003a50"/><path d="M159.31,116.07a1,1,0,0,1-.32-.8,1.07,1.07,0,0,1,.32-.81,1.25,1.25,0,0,1,.88-.3,1.22,1.22,0,0,1,.86.3,1,1,0,0,1,.32.81,1,1,0,0,1-.32.8,1.22,1.22,0,0,1-.86.3A1.25,1.25,0,0,1,159.31,116.07Z" fill="#003a50"/><path d="M173.09,116.21h-9.93v-1.56a2.79,2.79,0,0,1,.58-1.75,3.83,3.83,0,0,1,1.45-1.19c.49-.26,1.12-.55,1.86-.87s1.33-.55,1.88-.77a4.36,4.36,0,0,0,1.45-.91,1.82,1.82,0,0,0,.57-1.31c0-1.25-.89-1.88-2.67-1.88s-2.67.72-2.67,2.16v.4H163.5v-.4a3.62,3.62,0,0,1,1.26-3,5.44,5.44,0,0,1,3.51-1,5.73,5.73,0,0,1,3.52,1,3.31,3.31,0,0,1,1.27,2.75,3.17,3.17,0,0,1-.56,1.84,4.16,4.16,0,0,1-1.4,1.3,16.7,16.7,0,0,1-1.84.93c-.62.28-1.23.53-1.82.75a5.18,5.18,0,0,0-1.41.75,1.23,1.23,0,0,0-.56,1h7.62Z" fill="#003a50"/><path d="M310.59-6.48a5,5,0,0,1,3.34,1.07,3.7,3.7,0,0,1,1.25,3,3.68,3.68,0,0,1-1.3,3,5.37,5.37,0,0,1-3.54,1.08,5.75,5.75,0,0,1-3.56-1A3.16,3.16,0,0,1,305.49-2h2.11a1.53,1.53,0,0,0,.7,1.33,3.61,3.61,0,0,0,2,.49,3.17,3.17,0,0,0,2-.58,2,2,0,0,0,.7-1.68,2.05,2.05,0,0,0-.73-1.71,3.32,3.32,0,0,0-2.08-.58,3.54,3.54,0,0,0-1.91.42,1.84,1.84,0,0,0-.7.64l0,.12h-2.11V-10.4h8.88v1.84H307.6v3h0a1.91,1.91,0,0,1,.4-.31,3.89,3.89,0,0,1,.54-.27A5.69,5.69,0,0,1,310.59-6.48Z" fill="#003a50"/><path d="M317.29,1.37a1,1,0,0,1-.32-.8,1,1,0,0,1,.32-.81,1.41,1.41,0,0,1,1.74,0,1.07,1.07,0,0,1,.32.81,1,1,0,0,1-.32.8,1.41,1.41,0,0,1-1.74,0Z" fill="#003a50"/><path d="M324.4,1.51h-2.35l5.41-10h-6.92V-10.4h9.28v1.87Z" fill="#003a50"/><path d="M37.73-8.63H31.91v-1.84h8.86v1.84L36.25-6v.07h1.28a3.9,3.9,0,0,1,2.79,1,3.52,3.52,0,0,1,1,2.67A3.32,3.32,0,0,1,40,.59a5.81,5.81,0,0,1-3.62,1,5.81,5.81,0,0,1-3.62-1,3.39,3.39,0,0,1-1.33-2.86v-.32h2.11v.32c0,1.37,1,2,2.84,2s2.84-.67,2.84-2-.94-2-2.84-2H33.16V-5.88l4.57-2.68Z" fill="#003a50"/><path d="M43.47,1.3a1,1,0,0,1-.32-.8,1.07,1.07,0,0,1,.32-.81,1.25,1.25,0,0,1,.88-.3,1.22,1.22,0,0,1,.86.3,1.07,1.07,0,0,1,.32.81,1,1,0,0,1-.32.8,1.22,1.22,0,0,1-.86.3A1.25,1.25,0,0,1,43.47,1.3Z" fill="#003a50"/><path d="M56.05.67a6.39,6.39,0,0,1-3.67.93A6.43,6.43,0,0,1,48.69.66a2.91,2.91,0,0,1-1.37-2.55,2.57,2.57,0,0,1,.26-1.17,2.37,2.37,0,0,1,.65-.85,3.89,3.89,0,0,1,1.4-.77l.25-.07v-.09a3.51,3.51,0,0,1-.76-.29,2.61,2.61,0,0,1-.66-.44,2.24,2.24,0,0,1-.54-.76,2.39,2.39,0,0,1-.23-1A2.8,2.8,0,0,1,49-9.74a5.74,5.74,0,0,1,3.42-.9,5.81,5.81,0,0,1,3.43.9A2.82,2.82,0,0,1,57-7.36a2.43,2.43,0,0,1-.22,1,1.83,1.83,0,0,1-.55.75,3.62,3.62,0,0,1-1.2.68l-.22,0v.09l.28.07a4,4,0,0,1,.63.26,5.14,5.14,0,0,1,.77.51,2.82,2.82,0,0,1,.61.82,2.58,2.58,0,0,1,.28,1.2A3,3,0,0,1,56.05.67ZM50.27-.68a3.79,3.79,0,0,0,2.1.48,3.94,3.94,0,0,0,2.1-.47A1.53,1.53,0,0,0,55.21-2a1.53,1.53,0,0,0-.74-1.35,4.93,4.93,0,0,0-4.2,0A1.51,1.51,0,0,0,49.53-2,1.49,1.49,0,0,0,50.27-.68ZM49.9-7.2A1.38,1.38,0,0,0,50.54-6a3.25,3.25,0,0,0,1.83.44A3.24,3.24,0,0,0,54.19-6a1.36,1.36,0,0,0,.64-1.19,1.35,1.35,0,0,0-.65-1.2,3.25,3.25,0,0,0-1.81-.44,3.23,3.23,0,0,0-1.81.44A1.36,1.36,0,0,0,49.9-7.2Z" fill="#003a50"/><path d="M82.35,256.78l-2.49,2v-2.24l2.73-2.27h1.87v11.91H82.35Z" fill="#003a50"/><path d="M96.85,266.13H86.91v-1.56a2.8,2.8,0,0,1,.58-1.74,4.12,4.12,0,0,1,1.45-1.2c.5-.25,1.12-.54,1.87-.86s1.32-.56,1.88-.77a4.34,4.34,0,0,0,1.44-.92,1.78,1.78,0,0,0,.57-1.3c0-1.26-.89-1.89-2.66-1.89s-2.68.72-2.68,2.16v.41H87.25v-.41a3.59,3.59,0,0,1,1.27-3,5.34,5.34,0,0,1,3.51-1,5.65,5.65,0,0,1,3.51,1,3.27,3.27,0,0,1,1.27,2.75,3.11,3.11,0,0,1-.55,1.83,4.31,4.31,0,0,1-1.41,1.31q-.9.51-1.83.93c-.63.27-1.24.52-1.83.74a5.56,5.56,0,0,0-1.4.75,1.23,1.23,0,0,0-.57,1h7.63Z" fill="#003a50"/><path d="M99,266a1,1,0,0,1-.33-.81,1,1,0,0,1,.33-.8,1.4,1.4,0,0,1,1.73,0,1,1,0,0,1,.33.8,1,1,0,0,1-.33.81A1.4,1.4,0,0,1,99,266Z" fill="#003a50"/><path d="M111.28,266.13h-2.11v-2.65h-7v-1.84l6.3-7.42h2.79v7.42h1.59v1.84h-1.59Zm-2.11-4.49v-5.32h-.07l-4.47,5.27v.05Z" fill="#003a50"/><path d="M210.38,116.12h-9.93v-1.56a2.74,2.74,0,0,1,.58-1.74,4,4,0,0,1,1.44-1.2c.5-.25,1.12-.54,1.87-.86s1.33-.56,1.88-.77a4.24,4.24,0,0,0,1.44-.92,1.76,1.76,0,0,0,.58-1.3q0-1.89-2.67-1.89T202.9,108v.41h-2.11V108a3.62,3.62,0,0,1,1.26-3,5.38,5.38,0,0,1,3.51-1,5.66,5.66,0,0,1,3.52,1,3.3,3.3,0,0,1,1.27,2.75,3.14,3.14,0,0,1-.56,1.83,4.39,4.39,0,0,1-1.4,1.31c-.6.34-1.21.65-1.84.93s-1.23.52-1.83.74a5.56,5.56,0,0,0-1.4.75,1.22,1.22,0,0,0-.56,1h7.62Z" fill="#003a50"/><path d="M212.48,116a1,1,0,0,1-.32-.81,1,1,0,0,1,.32-.8,1.41,1.41,0,0,1,1.74,0,1.06,1.06,0,0,1,.32.8,1,1,0,0,1-.32.81,1.41,1.41,0,0,1-1.74,0Z" fill="#003a50"/><path d="M217.89,114.59a7.34,7.34,0,0,1,0-8.84,5.71,5.71,0,0,1,8.13,0,7.34,7.34,0,0,1,0,8.84,5.71,5.71,0,0,1-8.13,0Zm6.53-1.39a5.73,5.73,0,0,0,0-6.07,3.15,3.15,0,0,0-4.92,0,5.67,5.67,0,0,0,0,6.07,2.88,2.88,0,0,0,2.46,1.19A2.93,2.93,0,0,0,224.42,113.2Z" fill="#003a50"/><path d="M187.46,256.78l-2.49,2v-2.24l2.73-2.27h1.86v11.91h-2.1Z" fill="#003a50"/><path d="M200.76,265.37a7.73,7.73,0,0,1-7.37,0A3,3,0,0,1,192,262.8a2.7,2.7,0,0,1,.26-1.16,2.41,2.41,0,0,1,.66-.86,4,4,0,0,1,1.39-.77l.26-.06v-.1a3.11,3.11,0,0,1-.77-.29,2.61,2.61,0,0,1-.66-.44,2.2,2.2,0,0,1-.54-.75,2.41,2.41,0,0,1-.22-1,2.78,2.78,0,0,1,1.25-2.38,7,7,0,0,1,6.85,0,2.81,2.81,0,0,1,1.25,2.38,2.58,2.58,0,0,1-.22,1,1.88,1.88,0,0,1-.56.74,3.42,3.42,0,0,1-1.19.68l-.23.05v.1a1.44,1.44,0,0,1,.29.06,6.35,6.35,0,0,1,.62.27,3.79,3.79,0,0,1,.77.5,2.89,2.89,0,0,1,.62.83,2.63,2.63,0,0,1,.27,1.19A3,3,0,0,1,200.76,265.37ZM195,264a3.75,3.75,0,0,0,2.1.49,3.84,3.84,0,0,0,2.1-.48,1.59,1.59,0,0,0,0-2.69,4.93,4.93,0,0,0-4.2,0,1.58,1.58,0,0,0,0,2.68Zm-.36-6.51a1.36,1.36,0,0,0,.64,1.19,3.24,3.24,0,0,0,1.82.43,3.2,3.2,0,0,0,1.82-.43,1.42,1.42,0,0,0,0-2.39,3.94,3.94,0,0,0-3.62,0A1.35,1.35,0,0,0,194.61,257.5Z" fill="#003a50"/><path d="M204.23,266a1,1,0,0,1-.32-.81,1,1,0,0,1,.32-.8,1.41,1.41,0,0,1,1.74,0,1.06,1.06,0,0,1,.32.8,1,1,0,0,1-.32.81,1.41,1.41,0,0,1-1.74,0Z" fill="#003a50"/><path d="M214.34,256.07h-5.82v-1.85h8.86v1.85l-4.53,2.65v.06h1.28a3.87,3.87,0,0,1,2.79,1,3.5,3.5,0,0,1,1.05,2.66,3.35,3.35,0,0,1-1.32,2.83,7,7,0,0,1-7.25,0,3.39,3.39,0,0,1-1.32-2.86v-.32h2.1v.32c0,1.36.95,2,2.84,2s2.85-.66,2.85-2-1-2-2.85-2h-3.26v-1.67l4.58-2.69Z" fill="#003a50"/></g></svg>