<svg id="Слой_1" data-name="Слой 1" xmlns="http://www.w3.org/2000/svg" xmlns:xlink="http://www.w3.org/1999/xlink" viewBox="0 0 586.77 547.09"><defs><clipPath id="clip-path"><polygon points="0.85 0 0.85 419.81 16.3 419.81 16.3 480.76 267.93 480.76 267.93 547.09 586.77 547.09 586.77 0 0.85 0" fill="none"/></clipPath></defs><rect x="581.52" y="15.21" width="5.25" height="352.98" fill="#fff"/><polygon points="16.64 16.43 16.64 354.23 16.64 367.62 16.64 469.35 286.06 469.35 286.06 533.6 513 533.6 523.74 533.6 523.74 469.35 523.74 367.62 572.68 367.62 572.68 16.43 16.64 16.43" fill="#fff"/><polygon points="16.64 468.05 16.64 480.76 267.93 480.76 267.93 547.09 513.49 547.09 513.49 534.95 288 534.95 288 468.05 16.64 468.05" fill="#fff"/><g clip-path="url(#clip-path)"><rect x="4.28" y="2.14" width="1162.95" height="2240.57" fill="none" stroke="#003a50" stroke-miterlimit="10"/><polygon points="16.86 1106.31 16.86 2229.86 1154.25 2229.86 1154.25 15.09 16.86 14.93 16.86 1035.6 16.86 1106.31" fill="none" stroke="#003a50" stroke-miterlimit="10"/></g><rect x="419.6" y="34.38" width="85.42" height="4.56" fill="#fff"/><rect x="419.6" y="34.38" width="85.42" height="4.56" fill="none" stroke="#003a50" stroke-miterlimit="10"/><line x1="505.02" y1="36.66" x2="419.6" y2="36.66" fill="none" stroke="#003a50" stroke-miterlimit="10"/><rect x="500.47" y="34.38" width="4.55" height="4.56" fill="#fff"/><rect x="500.47" y="34.38" width="4.55" height="4.56" fill="none" stroke="#003a50" stroke-miterlimit="10"/><rect x="419.6" y="34.38" width="4.55" height="4.56" fill="#fff"/><rect x="419.6" y="34.38" width="4.55" height="4.56" fill="none" stroke="#003a50" stroke-miterlimit="10"/><rect x="460.16" y="34.38" width="4.55" height="4.56" fill="#fff"/><rect x="460.16" y="34.38" width="4.55" height="4.56" fill="none" stroke="#003a50" stroke-miterlimit="10"/><g clip-path="url(#clip-path)"><path d="M460.16,38.93v2.9c0,20.15-16.12,33.1-36,33.1v-36" fill="none" stroke="#003a50" stroke-miterlimit="10"/></g><rect x="297.58" y="34.38" width="87.81" height="4.56" fill="#fff"/><rect x="297.58" y="34.38" width="87.81" height="4.56" fill="none" stroke="#003a50" stroke-miterlimit="10"/><line x1="385.38" y1="36.66" x2="297.57" y2="36.66" fill="none" stroke="#003a50" stroke-miterlimit="10"/><rect x="380.83" y="34.38" width="4.55" height="4.56" fill="#fff"/><rect x="380.83" y="34.38" width="4.55" height="4.56" fill="none" stroke="#003a50" stroke-miterlimit="10"/><rect x="297.58" y="34.38" width="4.55" height="4.56" fill="#fff"/><rect x="297.58" y="34.38" width="4.55" height="4.56" fill="none" stroke="#003a50" stroke-miterlimit="10"/><rect x="338.13" y="34.38" width="4.55" height="4.56" fill="#fff"/><rect x="338.13" y="34.38" width="4.55" height="4.56" fill="none" stroke="#003a50" stroke-miterlimit="10"/><g clip-path="url(#clip-path)"><path d="M338.13,38.93v2.9c0,20.15-16.12,33.1-36,33.1v-36" fill="none" stroke="#003a50" stroke-miterlimit="10"/></g><rect x="115.13" y="34.38" width="87.81" height="4.56" fill="#fff"/><rect x="115.13" y="34.38" width="87.81" height="4.56" fill="none" stroke="#003a50" stroke-miterlimit="10"/><line x1="115.13" y1="36.66" x2="202.94" y2="36.66" fill="none" stroke="#003a50" stroke-miterlimit="10"/><rect x="115.13" y="34.38" width="4.55" height="4.56" fill="#fff"/><rect x="115.13" y="34.38" width="4.55" height="4.56" fill="none" stroke="#003a50" stroke-miterlimit="10"/><rect x="198.39" y="34.38" width="4.55" height="4.56" fill="#fff"/><rect x="198.39" y="34.38" width="4.55" height="4.56" fill="none" stroke="#003a50" stroke-miterlimit="10"/><rect x="157.83" y="34.38" width="4.55" height="4.56" fill="#fff"/><rect x="157.83" y="34.38" width="4.55" height="4.56" fill="none" stroke="#003a50" stroke-miterlimit="10"/><g clip-path="url(#clip-path)"><path d="M162.38,38.93v2.9c0,20.15,16.12,33.1,36,33.1v-36" fill="none" stroke="#003a50" stroke-miterlimit="10"/></g><rect x="37.48" y="306.61" width="4.55" height="87.43" fill="#fff"/><rect x="37.48" y="306.61" width="4.55" height="87.43" fill="none" stroke="#003a50" stroke-miterlimit="10"/><line x1="39.76" y1="394.04" x2="39.76" y2="306.61" fill="none" stroke="#003a50" stroke-miterlimit="10"/><rect x="37.48" y="389.62" width="4.55" height="4.42" fill="#fff"/><rect x="37.48" y="389.62" width="4.55" height="4.42" fill="none" stroke="#003a50" stroke-miterlimit="10"/><rect x="37.48" y="306.61" width="4.55" height="4.41" fill="#fff"/><rect x="37.48" y="306.61" width="4.55" height="4.42" fill="none" stroke="#003a50" stroke-miterlimit="10"/><rect x="37.48" y="345.93" width="4.55" height="4.42" fill="#fff"/><rect x="37.48" y="345.93" width="4.55" height="4.42" fill="none" stroke="#003a50" stroke-miterlimit="10"/><g clip-path="url(#clip-path)"><path d="M42,345.93h2.9C65.08,345.93,78,330.3,78,311H42" fill="none" stroke="#003a50" stroke-miterlimit="10"/></g><rect x="37.48" y="120.93" width="4.55" height="90.18" fill="#fff"/><rect x="37.48" y="120.93" width="4.55" height="90.18" fill="none" stroke="#003a50" stroke-miterlimit="10"/><line x1="39.76" y1="120.93" x2="39.76" y2="211.11" fill="none" stroke="#003a50" stroke-miterlimit="10"/><rect x="37.48" y="120.93" width="4.55" height="4.56" fill="#fff"/><rect x="37.48" y="120.93" width="4.55" height="4.56" fill="none" stroke="#003a50" stroke-miterlimit="10"/><rect x="37.48" y="206.55" width="4.55" height="4.56" fill="#fff"/><rect x="37.48" y="206.55" width="4.55" height="4.56" fill="none" stroke="#003a50" stroke-miterlimit="10"/><rect x="37.48" y="166" width="4.55" height="4.56" fill="#fff"/><rect x="37.48" y="166" width="4.55" height="4.56" fill="none" stroke="#003a50" stroke-miterlimit="10"/><g clip-path="url(#clip-path)"><path d="M42,170.56h2.9c20.15,0,33.1,16.11,33.1,36H42" fill="none" stroke="#003a50" stroke-miterlimit="10"/><path d="M42,535.4h2.9c20.15,0,33.1,15.8,33.1,35.28H42" fill="none" stroke="#003a50" stroke-miterlimit="10"/><path d="M99,317.85a1.26,1.26,0,0,1-1.21,1.31,13.78,13.78,0,1,0,1.07,27.54,1.26,1.26,0,1,1,.1,2.52,16.3,16.3,0,0,1-1.27-32.58A1.26,1.26,0,0,1,99,317.85Z" fill="none" stroke="#003a50" stroke-miterlimit="10"/><path d="M105.93,355.41a1.24,1.24,0,0,1,.86,1.55,13.79,13.79,0,0,0,26.54,7.49,1.25,1.25,0,0,1,1.55-.87,1.26,1.26,0,0,1,.87,1.56,16.3,16.3,0,0,1-31.38-8.87A1.27,1.27,0,0,1,105.93,355.41Z" fill="none" stroke="#003a50" stroke-miterlimit="10"/><path d="M143.7,359.77a1.26,1.26,0,0,1,1.74-.35,13.79,13.79,0,1,0,15.33-22.92,1.25,1.25,0,0,1-.35-1.74,1.27,1.27,0,0,1,1.75-.35,16.3,16.3,0,0,1-18.12,27.1A1.25,1.25,0,0,1,143.7,359.77Z" fill="none" stroke="#003a50" stroke-miterlimit="10"/><path d="M160.88,325.2a1.26,1.26,0,0,1,.21-1.77A13.79,13.79,0,1,0,144,301.77a1.26,1.26,0,1,1-1.56-2,16.3,16.3,0,1,1,20.18,25.6A1.26,1.26,0,0,1,160.88,325.2Z" fill="none" stroke="#003a50" stroke-miterlimit="10"/><path d="M132.06,301.14a1.26,1.26,0,0,1-.86-1.56,13.79,13.79,0,0,0-26.46-7.75,1.25,1.25,0,1,1-2.41-.7,16.3,16.3,0,1,1,31.29,9.16A1.26,1.26,0,0,1,132.06,301.14Z" fill="none" stroke="#003a50" stroke-miterlimit="10"/><path d="M108.81,345.17l-9.36.36a12.65,12.65,0,1,1-1-25.28l9-.32a23.7,23.7,0,0,0,1.28,25.24Z" fill="none" stroke="#003a50" stroke-miterlimit="10"/><path d="M135,354.41l-2.56,9.08a12.65,12.65,0,0,1-24.36-6.84l2.6-9.2a23.6,23.6,0,0,0,24.32,7Z" fill="none" stroke="#003a50" stroke-miterlimit="10"/><path d="M163.05,354.61a12.67,12.67,0,0,1-17.52,3.52l-7.28-4.88A23.88,23.88,0,0,0,151.37,338a24.8,24.8,0,0,0,.84-5.84l7.36,4.92A12.63,12.63,0,0,1,163.05,354.61Z" fill="none" stroke="#003a50" stroke-miterlimit="10"/><path d="M159.85,323l-7.72,6.08a23.88,23.88,0,0,0-15.56-20l7.64-6A12.65,12.65,0,1,1,159.85,323Z" fill="none" stroke="#003a50" stroke-miterlimit="10"/><path d="M129.93,299.89l-2.28,7.76a23.58,23.58,0,0,0-9.08,2.12l-15.28-4.48a1.21,1.21,0,0,1-.84-1.52l3.08-10.64a12.87,12.87,0,0,1,13.2-9.4A12.67,12.67,0,0,1,129.93,299.89Z" fill="none" stroke="#003a50" stroke-miterlimit="10"/><path d="M152.21,332.17a24.8,24.8,0,0,1-.84,5.84,23.88,23.88,0,0,1-13.12,15.24,24.6,24.6,0,0,1-3.28,1.16,23.6,23.6,0,0,1-24.32-7,25.46,25.46,0,0,1-1.84-2.28,23.7,23.7,0,0,1-1.28-25.24,24,24,0,0,1,11-10.16,23.84,23.84,0,0,1,16.32-1.24c.56.16,1.12.36,1.68.56a23.88,23.88,0,0,1,15.56,20A27.09,27.09,0,0,1,152.21,332.17Z" fill="none" stroke="#003a50" stroke-miterlimit="10"/></g><rect x="518.4" y="289.1" width="29.48" height="73.78" fill="none" stroke="#003a50" stroke-miterlimit="10"/><rect x="314.7" y="504.75" width="72.48" height="29.76" fill="none" stroke="#003a50" stroke-miterlimit="10"/><rect x="52.98" y="433.75" width="230.49" height="34.02" fill="none" stroke="#003a50" stroke-miterlimit="10"/><rect x="453.96" y="247.45" width="96.36" height="41.64" fill="none" stroke="#003a50" stroke-miterlimit="10"/><g clip-path="url(#clip-path)"><rect x="458.2" y="252.61" width="87.89" height="31.33" rx="15.64" fill="none" stroke="#003a50" stroke-miterlimit="10"/><path d="M528.52,268.28a2.27,2.27,0,1,1,2.27,2.26A2.27,2.27,0,0,1,528.52,268.28Z" fill="none" stroke="#003a50" stroke-miterlimit="10"/><path d="M508.27,333.86v28.85H485.48V333.86a11.4,11.4,0,1,1,22.79,0Z" fill="none" stroke="#003a50" stroke-miterlimit="10"/></g><line x1="485.48" y1="351.48" x2="508.27" y2="351.48" fill="none" stroke="#003a50" stroke-miterlimit="10"/><g clip-path="url(#clip-path)"><path d="M524.16,298.66h23a3.35,3.35,0,0,1,3.36,3.35v22.25a3.36,3.36,0,0,1-3.36,3.36h-23a3.37,3.37,0,0,1-3.36-3.36V302A3.36,3.36,0,0,1,524.16,298.66Z" fill="none" stroke="#003a50" stroke-miterlimit="10"/><path d="M533.39,313.14a2.27,2.27,0,1,1,2.27,2.26A2.26,2.26,0,0,1,533.39,313.14Z" fill="none" stroke="#003a50" stroke-miterlimit="10"/><path d="M524.16,332.25h23a3.36,3.36,0,0,1,3.36,3.35v22.25a3.37,3.37,0,0,1-3.36,3.36h-23a3.37,3.37,0,0,1-3.36-3.36V335.6A3.36,3.36,0,0,1,524.16,332.25Z" fill="none" stroke="#003a50" stroke-miterlimit="10"/><path d="M533.39,346.72a2.27,2.27,0,1,1,2.27,2.27A2.26,2.26,0,0,1,533.39,346.72Z" fill="none" stroke="#003a50" stroke-miterlimit="10"/></g><rect x="387.22" y="438.44" width="43.33" height="96.06" fill="none" stroke="#003a50" stroke-miterlimit="10"/><g clip-path="url(#clip-path)"><path d="M392.59,514.35V458.59a15.93,15.93,0,0,1,15.93-15.93h.73a15.94,15.94,0,0,1,15.94,15.93v55.76a15.94,15.94,0,0,1-15.94,15.93h-.73A15.93,15.93,0,0,1,392.59,514.35Z" fill="none" stroke="#003a50" stroke-miterlimit="10"/><path d="M408.89,512.76a2.27,2.27,0,1,1-2.27,2.27A2.27,2.27,0,0,1,408.89,512.76Z" fill="none" stroke="#003a50" stroke-miterlimit="10"/><rect x="379.69" y="546.97" width="41.13" height="98.9" fill="none" stroke="#003a50" stroke-miterlimit="10"/><path d="M343.62,477.89H314.77v-22.8h28.85a11.4,11.4,0,0,1,0,22.8Z" fill="none" stroke="#003a50" stroke-miterlimit="10"/></g><line x1="326" y1="455.09" x2="326" y2="477.89" fill="none" stroke="#003a50" stroke-miterlimit="10"/><g clip-path="url(#clip-path)"><rect x="354.46" y="507.15" width="28.96" height="29.71" rx="3.36" fill="none" stroke="#003a50" stroke-miterlimit="10"/><circle cx="368.94" cy="522" r="2.27" transform="translate(-217 777.5) rotate(-78.31)" fill="none" stroke="#003a50" stroke-miterlimit="10"/><rect x="420.93" y="547.32" width="37.82" height="26.34" fill="none" stroke="#003a50" stroke-miterlimit="10"/><rect x="426.53" y="545.22" width="25.64" height="26.31" rx="2.97" fill="none" stroke="#003a50" stroke-miterlimit="10"/></g><rect x="315.01" y="504.76" width="34.02" height="28.84" fill="none" stroke="#003a50" stroke-miterlimit="10"/><g clip-path="url(#clip-path)"><path d="M337.33,510.87h-2.12a3.07,3.07,0,0,1-5.72,0h-2.78l-5.28,3,2.52,4,2.38-1.27v10.86H337.7V516.62l2.38,1.27,2.53-4Z" fill="none" stroke="#003a50" stroke-miterlimit="10"/><rect x="458.75" y="547.51" width="30.12" height="25.9" fill="none" stroke="#003a50" stroke-miterlimit="10"/></g><rect x="108.66" y="433.75" width="34.02" height="34.02" fill="none" stroke="#003a50" stroke-miterlimit="10"/><g clip-path="url(#clip-path)"><path d="M138.07,458.35a4.69,4.69,0,1,1-4.69-4.7A4.69,4.69,0,0,1,138.07,458.35Z" fill="none" stroke="#003a50" stroke-miterlimit="10"/><path d="M122.64,458.35a4.69,4.69,0,1,1-4.69-4.7A4.69,4.69,0,0,1,122.64,458.35Z" fill="none" stroke="#003a50" stroke-miterlimit="10"/><path d="M138.07,443.18a4.69,4.69,0,1,1-4.69-4.7A4.69,4.69,0,0,1,138.07,443.18Z" fill="none" stroke="#003a50" stroke-miterlimit="10"/><path d="M122.64,443.18a4.69,4.69,0,1,1-4.69-4.7A4.69,4.69,0,0,1,122.64,443.18Z" fill="none" stroke="#003a50" stroke-miterlimit="10"/></g><rect x="218.27" y="433.75" width="34.02" height="34.02" fill="none" stroke="#003a50" stroke-miterlimit="10"/><line x1="235.28" y1="453.52" x2="235.28" y2="464.08" fill="none" stroke="#003a50" stroke-miterlimit="10"/><g clip-path="url(#clip-path)"><path d="M236.19,453.52h-1.82a3.4,3.4,0,0,1-3.39-3.4v-11.2h8.6v11.2A3.4,3.4,0,0,1,236.19,453.52Z" fill="none" stroke="#003a50" stroke-miterlimit="10"/></g><line x1="231.8" y1="464.08" x2="238.75" y2="464.08" fill="none" stroke="#003a50" stroke-miterlimit="10"/><rect x="53" y="433.75" width="34.02" height="34.02" fill="none" stroke="#003a50" stroke-miterlimit="10"/><line x1="70.01" y1="460.74" x2="70.01" y2="440.78" fill="none" stroke="#003a50" stroke-miterlimit="10"/><line x1="79.99" y1="450.76" x2="60.03" y2="450.76" fill="none" stroke="#003a50" stroke-miterlimit="10"/><line x1="77.06" y1="457.82" x2="62.95" y2="443.71" fill="none" stroke="#003a50" stroke-miterlimit="10"/><line x1="77.06" y1="443.71" x2="62.95" y2="457.82" fill="none" stroke="#003a50" stroke-miterlimit="10"/><g clip-path="url(#clip-path)"><path d="M192.09,459.4H168.74a3.35,3.35,0,0,1-3.35-3.35v-15a3.36,3.36,0,0,1,3.35-3.36h23.35a3.36,3.36,0,0,1,3.36,3.36v15A3.35,3.35,0,0,1,192.09,459.4Z" fill="none" stroke="#003a50" stroke-miterlimit="10"/><circle cx="180.42" cy="452.36" r="2.46" fill="none" stroke="#003a50" stroke-miterlimit="10"/></g><line x1="180.42" y1="451.61" x2="180.42" y2="465.22" fill="none" stroke="#003a50" stroke-miterlimit="10"/><line x1="173.61" y1="465.22" x2="187.22" y2="465.22" fill="none" stroke="#003a50" stroke-miterlimit="10"/><rect x="437.5" y="502.54" width="56.47" height="30.8" fill="none" stroke="#003a50" stroke-miterlimit="10"/><g clip-path="url(#clip-path)"><path d="M453,506.91a.92.92,0,0,1,.51-.82.9.9,0,0,1,1.21.42,26,26,0,0,1,0,22.87.91.91,0,0,1-1.63-.8,24.22,24.22,0,0,0,0-21.27A1,1,0,0,1,453,506.91Z" fill="none" stroke="#003a50" stroke-miterlimit="10"/><path d="M458,506.91a.92.92,0,0,1,.51-.82.9.9,0,0,1,1.21.42,26,26,0,0,1,0,22.87.91.91,0,0,1-1.63-.8,24.22,24.22,0,0,0,0-21.27A1,1,0,0,1,458,506.91Z" fill="none" stroke="#003a50" stroke-miterlimit="10"/><path d="M463.08,506.91a.9.9,0,0,1,1.72-.4,26.09,26.09,0,0,1,0,22.87.91.91,0,0,1-1.63-.8,24.22,24.22,0,0,0,0-21.27A.83.83,0,0,1,463.08,506.91Z" fill="none" stroke="#003a50" stroke-miterlimit="10"/><path d="M468.12,506.91a.9.9,0,0,1,1.72-.4,26.09,26.09,0,0,1,0,22.87.91.91,0,0,1-1.63-.8,24.22,24.22,0,0,0,0-21.27A.83.83,0,0,1,468.12,506.91Z" fill="none" stroke="#003a50" stroke-miterlimit="10"/><path d="M473.15,506.91a.91.91,0,0,1,1.73-.4,26.09,26.09,0,0,1,0,22.87.91.91,0,0,1-1.63-.8,24.22,24.22,0,0,0,0-21.27A.85.85,0,0,1,473.15,506.91Z" fill="none" stroke="#003a50" stroke-miterlimit="10"/><path d="M478.19,506.91a.91.91,0,0,1,1.73-.4,26.09,26.09,0,0,1,0,22.87.91.91,0,0,1-1.63-.8,24.22,24.22,0,0,0,0-21.27A.85.85,0,0,1,478.19,506.91Z" fill="none" stroke="#003a50" stroke-miterlimit="10"/><path d="M448,506.91a.92.92,0,0,1,.51-.82.9.9,0,0,1,1.21.42,26,26,0,0,1,0,22.87.91.91,0,0,1-1.63-.8,24.22,24.22,0,0,0,0-21.27A1,1,0,0,1,448,506.91Z" fill="none" stroke="#003a50" stroke-miterlimit="10"/><path d="M442.92,506.91a.92.92,0,0,1,.51-.82.9.9,0,0,1,1.21.42,26,26,0,0,1,0,22.87.9.9,0,1,1-1.62-.8,24.31,24.31,0,0,0,0-21.27A.85.85,0,0,1,442.92,506.91Z" fill="none" stroke="#003a50" stroke-miterlimit="10"/></g><line x1="437.5" y1="517.94" x2="493.97" y2="517.94" fill="none" stroke="#003a50" stroke-miterlimit="10"/><g clip-path="url(#clip-path)"><rect x="55.65" y="481.13" width="22.68" height="22.68" fill="none" stroke="#003a50" stroke-miterlimit="10"/><path d="M73.49,499a9.2,9.2,0,1,1,0-13A9.19,9.19,0,0,1,73.49,499Z" fill="none" stroke="#003a50" stroke-miterlimit="10"/><path d="M74.12,498.28c-1.7-.17-3.42.48-5.07-1.18-2.43-2.43.14-5-2.29-7.45s-5,.14-7.46-2.3" fill="none" stroke="#003a50" stroke-miterlimit="10"/><rect x="192.95" y="481.13" width="22.68" height="22.68" fill="none" stroke="#003a50" stroke-miterlimit="10"/><path d="M210.79,499a9.2,9.2,0,1,1,0-13A9.19,9.19,0,0,1,210.79,499Z" fill="none" stroke="#003a50" stroke-miterlimit="10"/><path d="M211.42,498.28c-1.7-.17-3.42.48-5.07-1.18-2.43-2.43.14-5-2.29-7.45s-5,.14-7.46-2.3" fill="none" stroke="#003a50" stroke-miterlimit="10"/><rect x="84.66" y="481.13" width="102.05" height="113.39" fill="none" stroke="#003a50" stroke-miterlimit="10"/><path d="M176.7,584.78h-82a2.09,2.09,0,0,1-2.09-2.09V515.05h86.22v67.64A2.09,2.09,0,0,1,176.7,584.78Z" fill="none" stroke="#003a50" stroke-miterlimit="10"/><rect x="92.32" y="488.56" width="42.5" height="22.88" rx="1.98" fill="none" stroke="#003a50" stroke-miterlimit="10"/><rect x="136.54" y="488.56" width="42.5" height="22.88" rx="1.98" fill="none" stroke="#003a50" stroke-miterlimit="10"/></g><rect x="300.37" y="235.33" width="79.37" height="34.02" fill="none" stroke="#003a50" stroke-miterlimit="10"/><rect x="279.16" y="275.81" width="34.02" height="92.09" fill="none" stroke="#003a50" stroke-miterlimit="10"/><g clip-path="url(#clip-path)"><path d="M284,350.84a1,1,0,0,1-.44-1.91,28.77,28.77,0,0,1,25.26,0,1,1,0,0,1,.45,1.34,1,1,0,0,1-1.34.46,26.81,26.81,0,0,0-23.49,0A.87.87,0,0,1,284,350.84Z" fill="none" stroke="#003a50" stroke-miterlimit="10"/><path d="M284,345.27a1,1,0,0,1-.44-1.9,28.77,28.77,0,0,1,25.26,0,1,1,0,0,1-.89,1.8,26.72,26.72,0,0,0-23.49,0A1,1,0,0,1,284,345.27Z" fill="none" stroke="#003a50" stroke-miterlimit="10"/><path d="M284,339.71a1,1,0,0,1-.44-1.91,28.77,28.77,0,0,1,25.26,0,1,1,0,0,1,.45,1.34,1,1,0,0,1-1.34.46,26.81,26.81,0,0,0-23.49,0A.87.87,0,0,1,284,339.71Z" fill="none" stroke="#003a50" stroke-miterlimit="10"/><path d="M284,334.14a1,1,0,0,1-.44-1.9,28.77,28.77,0,0,1,25.26,0,1,1,0,0,1-.89,1.8,26.72,26.72,0,0,0-23.49,0A1,1,0,0,1,284,334.14Z" fill="none" stroke="#003a50" stroke-miterlimit="10"/><path d="M284,328.58a1,1,0,0,1-.44-1.91,28.77,28.77,0,0,1,25.26,0,1,1,0,0,1,.45,1.34,1,1,0,0,1-1.34.46,26.81,26.81,0,0,0-23.49,0A1,1,0,0,1,284,328.58Z" fill="none" stroke="#003a50" stroke-miterlimit="10"/><path d="M284,323a1,1,0,0,1-.44-1.9,28.77,28.77,0,0,1,25.26,0,1,1,0,0,1-.89,1.8,26.72,26.72,0,0,0-23.49,0A1,1,0,0,1,284,323Z" fill="none" stroke="#003a50" stroke-miterlimit="10"/><path d="M284,356.4a1,1,0,0,1-.9-.56,1,1,0,0,1,.46-1.34,28.77,28.77,0,0,1,25.26,0,1,1,0,0,1-.89,1.8,26.72,26.72,0,0,0-23.49,0A1,1,0,0,1,284,356.4Z" fill="none" stroke="#003a50" stroke-miterlimit="10"/><path d="M284,362a1,1,0,0,1-.44-1.91,28.77,28.77,0,0,1,25.26,0,1,1,0,0,1,.45,1.34,1,1,0,0,1-1.34.46,26.81,26.81,0,0,0-23.49,0A.87.87,0,0,1,284,362Z" fill="none" stroke="#003a50" stroke-miterlimit="10"/></g><line x1="296.17" y1="367.95" x2="296.17" y2="275.81" fill="none" stroke="#003a50" stroke-miterlimit="10"/><rect x="320.11" y="275.67" width="34.02" height="87.1" fill="none" stroke="#003a50" stroke-miterlimit="10"/><g clip-path="url(#clip-path)"><path d="M324.93,345.7a1,1,0,0,1-.44-1.9,28.77,28.77,0,0,1,25.26,0,1,1,0,0,1-.89,1.8,26.72,26.72,0,0,0-23.49,0A1,1,0,0,1,324.93,345.7Z" fill="none" stroke="#003a50" stroke-miterlimit="10"/><path d="M324.93,340.14a1,1,0,0,1-.44-1.91,28.77,28.77,0,0,1,25.26,0,1,1,0,0,1,.45,1.34,1,1,0,0,1-1.34.46,26.81,26.81,0,0,0-23.49,0A1,1,0,0,1,324.93,340.14Z" fill="none" stroke="#003a50" stroke-miterlimit="10"/><path d="M324.93,334.57a1,1,0,0,1-.44-1.9,28.77,28.77,0,0,1,25.26,0,1,1,0,0,1-.89,1.8,26.72,26.72,0,0,0-23.49,0A1,1,0,0,1,324.93,334.57Z" fill="none" stroke="#003a50" stroke-miterlimit="10"/><path d="M324.93,329a1,1,0,0,1-.44-1.91,28.77,28.77,0,0,1,25.26,0,1,1,0,0,1,.45,1.34,1,1,0,0,1-1.34.46,26.81,26.81,0,0,0-23.49,0A1,1,0,0,1,324.93,329Z" fill="none" stroke="#003a50" stroke-miterlimit="10"/><path d="M324.93,323.44a1,1,0,0,1-.44-1.9,28.77,28.77,0,0,1,25.26,0,1,1,0,0,1-.89,1.8,26.72,26.72,0,0,0-23.49,0A1,1,0,0,1,324.93,323.44Z" fill="none" stroke="#003a50" stroke-miterlimit="10"/><path d="M324.93,317.88a1,1,0,0,1-.44-1.91,28.77,28.77,0,0,1,25.26,0,1,1,0,0,1,.45,1.34,1,1,0,0,1-1.34.46,26.81,26.81,0,0,0-23.49,0A1,1,0,0,1,324.93,317.88Z" fill="none" stroke="#003a50" stroke-miterlimit="10"/><path d="M324.93,351.27a1,1,0,0,1-.44-1.91,28.77,28.77,0,0,1,25.26,0,1,1,0,0,1,.45,1.34,1,1,0,0,1-1.34.46,26.81,26.81,0,0,0-23.49,0A.87.87,0,0,1,324.93,351.27Z" fill="none" stroke="#003a50" stroke-miterlimit="10"/><path d="M324.93,356.83a1,1,0,0,1-.44-1.9,28.77,28.77,0,0,1,25.26,0,1,1,0,0,1-.89,1.8,26.72,26.72,0,0,0-23.49,0A1,1,0,0,1,324.93,356.83Z" fill="none" stroke="#003a50" stroke-miterlimit="10"/></g><line x1="337.12" y1="362.82" x2="337.12" y2="275.67" fill="none" stroke="#003a50" stroke-miterlimit="10"/><rect x="354.12" y="275.53" width="42.37" height="34.02" fill="none" stroke="#003a50" stroke-miterlimit="10"/><g clip-path="url(#clip-path)"><path d="M371.24,280.35a1,1,0,0,1,1.9-.44,28.77,28.77,0,0,1,0,25.26,1,1,0,0,1-1.8-.89,26.72,26.72,0,0,0,0-23.49A1,1,0,0,1,371.24,280.35Z" fill="none" stroke="#003a50" stroke-miterlimit="10"/><path d="M376.8,280.35a1,1,0,0,1,1.91-.44,28.77,28.77,0,0,1,0,25.26,1,1,0,0,1-1.34.45,1,1,0,0,1-.46-1.34,26.81,26.81,0,0,0,0-23.49A1,1,0,0,1,376.8,280.35Z" fill="none" stroke="#003a50" stroke-miterlimit="10"/><path d="M365.67,280.35a1,1,0,0,1,1.91-.44,28.77,28.77,0,0,1,0,25.26,1,1,0,0,1-1.34.45,1,1,0,0,1-.46-1.34,26.81,26.81,0,0,0,0-23.49A1,1,0,0,1,365.67,280.35Z" fill="none" stroke="#003a50" stroke-miterlimit="10"/><path d="M360.11,280.35a1,1,0,0,1,1.9-.44,28.77,28.77,0,0,1,0,25.26,1,1,0,0,1-1.8-.89,26.72,26.72,0,0,0,0-23.49A1,1,0,0,1,360.11,280.35Z" fill="none" stroke="#003a50" stroke-miterlimit="10"/></g><line x1="354.12" y1="292.54" x2="396.49" y2="292.54" fill="none" stroke="#003a50" stroke-miterlimit="10"/><g clip-path="url(#clip-path)"><path d="M317.49,240.14a1,1,0,0,1,1.9-.44,28.77,28.77,0,0,1,0,25.26,1,1,0,0,1-1.8-.88,26.74,26.74,0,0,0,0-23.5A1,1,0,0,1,317.49,240.14Z" fill="none" stroke="#003a50" stroke-miterlimit="10"/><path d="M323.05,240.14a1,1,0,0,1,1.91-.44A28.77,28.77,0,0,1,325,265a1,1,0,0,1-1.34.46,1,1,0,0,1-.46-1.34,26.83,26.83,0,0,0,0-23.5A.87.87,0,0,1,323.05,240.14Z" fill="none" stroke="#003a50" stroke-miterlimit="10"/><path d="M328.62,240.14a1,1,0,0,1,1.9-.44,28.77,28.77,0,0,1,0,25.26,1,1,0,0,1-1.8-.88,26.74,26.74,0,0,0,0-23.5A1,1,0,0,1,328.62,240.14Z" fill="none" stroke="#003a50" stroke-miterlimit="10"/><path d="M334.18,240.14a1,1,0,0,1,1.91-.44,28.77,28.77,0,0,1,0,25.26,1,1,0,0,1-1.34.46,1,1,0,0,1-.46-1.34,26.83,26.83,0,0,0,0-23.5A.87.87,0,0,1,334.18,240.14Z" fill="none" stroke="#003a50" stroke-miterlimit="10"/><path d="M339.75,240.14a1,1,0,0,1,.56-.9,1,1,0,0,1,1.34.46,28.77,28.77,0,0,1,0,25.26,1,1,0,0,1-1.8-.88,26.74,26.74,0,0,0,0-23.5A1,1,0,0,1,339.75,240.14Z" fill="none" stroke="#003a50" stroke-miterlimit="10"/><path d="M345.31,240.14a1,1,0,0,1,1.91-.44,28.77,28.77,0,0,1,0,25.26,1,1,0,0,1-1.34.46,1,1,0,0,1-.46-1.34,26.83,26.83,0,0,0,0-23.5A.87.87,0,0,1,345.31,240.14Z" fill="none" stroke="#003a50" stroke-miterlimit="10"/><path d="M311.92,240.14a1,1,0,0,1,.56-.9,1,1,0,0,1,1.34.46,28.77,28.77,0,0,1,0,25.26,1,1,0,0,1-1.8-.88,26.74,26.74,0,0,0,0-23.5A1,1,0,0,1,311.92,240.14Z" fill="none" stroke="#003a50" stroke-miterlimit="10"/><path d="M306.36,240.14a1,1,0,0,1,1.9-.44,28.77,28.77,0,0,1,0,25.26,1,1,0,0,1-1.8-.88,26.74,26.74,0,0,0,0-23.5A1,1,0,0,1,306.36,240.14Z" fill="none" stroke="#003a50" stroke-miterlimit="10"/></g><line x1="300.37" y1="252.33" x2="379.74" y2="252.33" fill="none" stroke="#003a50" stroke-miterlimit="10"/><g clip-path="url(#clip-path)"><path d="M135.22,130.86v-39H176v39a1.91,1.91,0,0,1-1.92,1.91h-37A1.91,1.91,0,0,1,135.22,130.86Z" fill="none" stroke="#003a50" stroke-miterlimit="10"/><path d="M133.3,173.45H89.9V132.66h43.4a1.92,1.92,0,0,1,1.92,1.92v36.95A1.92,1.92,0,0,1,133.3,173.45Z" fill="none" stroke="#003a50" stroke-miterlimit="10"/><path d="M133.3,214.23H89.9V173.45h43.4a1.91,1.91,0,0,1,1.92,1.91v37A1.92,1.92,0,0,1,133.3,214.23Z" fill="none" stroke="#003a50" stroke-miterlimit="10"/><path d="M175.29,91.88a3,3,0,0,0,3-3V85.15a3,3,0,0,0-3-3H84.71V223.92h50.06a3,3,0,0,0,3-3V217.2a3,3,0,0,0-3-3H89.9V91.88Z" fill="none" stroke="#003a50" stroke-miterlimit="10"/></g><rect x="89.9" y="91.87" width="9.7" height="122.36" fill="none" stroke="#003a50" stroke-miterlimit="10"/><g clip-path="url(#clip-path)"><path d="M133.08,132.66H89.9V91.88h45.32v38.65A2.13,2.13,0,0,1,133.08,132.66Z" fill="none" stroke="#003a50" stroke-miterlimit="10"/></g><rect x="203.01" y="50.98" width="17.01" height="224.22" fill="none" stroke="#003a50" stroke-miterlimit="10"/><rect x="396.78" y="96.21" width="17.01" height="101.63" fill="none" stroke="#003a50" stroke-miterlimit="10"/><polygon points="405.82 104.02 408.27 104.02 408.27 190.02 405.82 190.02 402.28 147.02 405.82 104.02" fill="none" stroke="#003a50" stroke-miterlimit="10"/><polygon points="210.98 206.09 208.52 206.09 208.52 120.09 210.98 120.09 214.51 163.09 210.98 206.09" fill="none" stroke="#003a50" stroke-miterlimit="10"/><g clip-path="url(#clip-path)"><path d="M260,121A14.78,14.78,0,0,0,275.9,97.61,1.14,1.14,0,0,0,274.13,99,12.47,12.47,0,0,1,260,118.54Z" fill="none" stroke="#003a50" stroke-miterlimit="10"/><rect x="225.96" y="66.74" width="34.02" height="84.03" rx="3.31" fill="none" stroke="#003a50" stroke-miterlimit="10"/><path d="M229.67,148.22a1.4,1.4,0,0,0,1.4-1.39V70.68a1.4,1.4,0,0,0-2.8,0v76.15a1.4,1.4,0,0,0,1.4,1.39" fill="none" stroke="#003a50" stroke-miterlimit="10"/><path d="M244.25,80.41a5.5,5.5,0,1,1,0-7.78A5.49,5.49,0,0,1,244.25,80.41Z" fill="none" stroke="#003a50" stroke-miterlimit="10"/><path d="M244.62,80c-1-.1-2,.29-3-.7-1.46-1.46.08-3-1.38-4.47s-3,.09-4.47-1.38" fill="none" stroke="#003a50" stroke-miterlimit="10"/><path d="M260,116.29a10.63,10.63,0,1,0,0-19.59Z" fill="none" stroke="#003a50" stroke-miterlimit="10"/><path d="M234,510.74a14.77,14.77,0,0,0-15.92,23.38,1.14,1.14,0,1,0,1.77-1.43A12.47,12.47,0,0,1,234,513.19Z" fill="none" stroke="#003a50" stroke-miterlimit="10"/><rect x="234.02" y="480.96" width="34.02" height="84.03" rx="3.31" fill="none" stroke="#003a50" stroke-miterlimit="10"/><path d="M264.33,483.51a1.4,1.4,0,0,0-1.4,1.4v76.14a1.4,1.4,0,0,0,2.8,0V484.91a1.4,1.4,0,0,0-1.4-1.4" fill="none" stroke="#003a50" stroke-miterlimit="10"/><path d="M234,515.45A10.63,10.63,0,1,0,234,535Z" fill="none" stroke="#003a50" stroke-miterlimit="10"/></g><rect x="337.49" y="79.06" width="52.33" height="113.67" fill="none" stroke="#003a50" stroke-miterlimit="10"/><g clip-path="url(#clip-path)"><path d="M346.43,183h34a2.11,2.11,0,0,0,2.1-2.11V113.3H344.32v67.62A2.11,2.11,0,0,0,346.43,183Z" fill="none" stroke="#003a50" stroke-miterlimit="10"/></g><rect x="344.32" y="113.3" width="38.26" height="13.85" fill="none" stroke="#003a50" stroke-miterlimit="10"/><g clip-path="url(#clip-path)"><rect x="343.92" y="86.81" width="38.71" height="22.88" rx="2.2" fill="none" stroke="#003a50" stroke-miterlimit="10"/></g><rect x="547.87" y="67.01" width="22.68" height="22.68" fill="none" stroke="#003a50" stroke-miterlimit="10"/><g clip-path="url(#clip-path)"><path d="M565.71,84.85a9.2,9.2,0,1,1,0-13A9.2,9.2,0,0,1,565.71,84.85Z" fill="none" stroke="#003a50" stroke-miterlimit="10"/><path d="M566.33,84.16c-1.69-.17-3.41.48-5.06-1.17-2.44-2.44.14-5-2.3-7.46s-5,.14-7.46-2.3" fill="none" stroke="#003a50" stroke-miterlimit="10"/></g><rect x="547.89" y="204.35" width="22.68" height="22.68" fill="none" stroke="#003a50" stroke-miterlimit="10"/><g clip-path="url(#clip-path)"><path d="M565.73,222.19a9.19,9.19,0,1,1,0-13A9.17,9.17,0,0,1,565.73,222.19Z" fill="none" stroke="#003a50" stroke-miterlimit="10"/><path d="M566.35,221.5c-1.69-.16-3.41.49-5.06-1.16-2.44-2.44.14-5-2.3-7.46s-5,.14-7.46-2.3" fill="none" stroke="#003a50" stroke-miterlimit="10"/></g><rect x="457.16" y="95.49" width="113.38" height="102.05" fill="none" stroke="#003a50" stroke-miterlimit="10"/><g clip-path="url(#clip-path)"><path d="M466.89,187.54v-82A2.1,2.1,0,0,1,469,103.4h67.64v86.22H469A2.09,2.09,0,0,1,466.89,187.54Z" fill="none" stroke="#003a50" stroke-miterlimit="10"/><rect x="540.23" y="103.15" width="22.88" height="42.5" rx="1.98" fill="none" stroke="#003a50" stroke-miterlimit="10"/><rect x="540.23" y="147.38" width="22.88" height="42.5" rx="1.98" fill="none" stroke="#003a50" stroke-miterlimit="10"/></g><line x1="522.77" y1="189.88" x2="522.77" y2="103.15" fill="none" stroke="#003a50" stroke-miterlimit="10"/><g clip-path="url(#clip-path)"><rect x="273.94" y="546.97" width="65.21" height="29.22" fill="none" stroke="#003a50" stroke-miterlimit="10"/><path d="M270.78,272.78v-3.07A38.71,38.71,0,0,0,232.07,231v41.79" fill="none" stroke="#003a50" stroke-miterlimit="10" stroke-width="1.6"/><path d="M384.54,437.1V434A39.51,39.51,0,0,0,345,394.45V437.1" fill="none" stroke="#003a50" stroke-miterlimit="10" stroke-width="1.6"/><path d="M527.34,431h3.88a48.89,48.89,0,0,0,48.9-48.89H527.34" fill="none" stroke="#003a50" stroke-miterlimit="10" stroke-width="1.6"/><path d="M452.59,339.57h-3.08a38.72,38.72,0,0,1-38.72-38.71h41.8" fill="none" stroke="#003a50" stroke-miterlimit="10" stroke-width="1.6"/><path d="M443.78,366.58v3.36a42.33,42.33,0,0,1-42.33,42.33V366.58" fill="none" stroke="#003a50" stroke-miterlimit="10" stroke-width="1.6"/><line x1="507.62" y1="429.47" x2="453.13" y2="429.47" fill="none" stroke="#003a50" stroke-miterlimit="10" stroke-width="1.6"/><polygon points="600.48 50.43 504.74 50.43 504.74 1.1 600.48 12.76 600.48 50.43" fill="#003a50" fill-rule="evenodd"/><polygon points="52.72 210.94 52.72 306.68 3.39 306.68 15.05 210.94 52.72 210.94" fill="#003a50" fill-rule="evenodd"/><rect x="15.29" y="24.86" width="37.43" height="95.9" fill="#003a50"/><rect x="17.63" y="2.6" width="97.82" height="47.83" fill="#003a50"/><rect x="202.72" y="2.59" width="95" height="47.83" fill="#003a50"/><rect x="384.81" y="2.59" width="34.46" height="47.83" fill="#003a50"/><rect x="210.72" y="6.59" width="77.33" height="50" fill="#003a50"/><rect x="516.04" y="29.26" width="77.33" height="27.33" fill="#003a50"/><rect x="4.72" y="1.09" width="25.83" height="28.5" fill="#003a50"/><rect x="17.12" y="394.02" width="35.6" height="94.57" fill="#003a50"/><rect x="4.39" y="394.02" width="44.33" height="25.9" fill="#003a50"/><rect x="41.29" y="209.02" width="16.5" height="76.72" fill="#003a50"/><rect x="38.55" y="467.26" width="249.5" height="13.79" fill="#003a50"/><rect x="278.22" y="533.59" width="249.5" height="13.79" fill="#003a50"/><rect x="513.72" y="533.6" width="16.81" height="127.36" fill="#003a50"/><rect x="494.22" y="434.24" width="11.67" height="106.25" fill="#003a50"/><rect x="494.22" y="433.49" width="36.31" height="11.67" fill="#003a50"/><rect x="514.38" y="362.95" width="142" height="16.69" fill="#003a50"/><rect x="570.85" y="52.23" width="16.32" height="314.78" fill="#003a50"/><rect x="379.18" y="192.59" width="16.32" height="82.94" fill="#003a50"/><rect x="272.22" y="467.26" width="15.84" height="80.12" fill="#003a50"/><rect x="447.21" y="338.74" width="6.38" height="28.28" fill="#003a50"/><rect x="447.21" y="244.57" width="6.38" height="57.12" fill="#003a50"/><rect x="269.95" y="269.15" width="120.92" height="6.38" fill="#003a50"/><rect x="219.95" y="269.16" width="12.94" height="6.38" fill="#003a50"/><rect x="585.64" y="247.26" width="70.74" height="6.38" fill="#003a50"/><rect x="585.64" y="278.87" width="25.64" height="6.38" fill="#003a50"/><rect x="547.04" y="326.74" width="25.64" height="6.38" fill="#003a50"/><rect x="545.77" y="244.57" width="6.38" height="124.76" fill="#003a50"/><rect x="442.96" y="362.95" width="91.5" height="6.38" fill="#003a50"/><rect x="313.45" y="362.95" width="88.83" height="6.38" fill="#003a50"/><rect x="313.45" y="272.78" width="6.38" height="94.76" fill="#003a50"/><rect x="219.95" y="48.83" width="6.38" height="222.42" fill="#003a50"/><rect x="390.12" y="48.83" width="6.38" height="226.7" fill="#003a50"/><rect x="383.7" y="433.47" width="59.1" height="6.38" fill="#003a50"/><rect x="482" y="433.47" width="17.19" height="6.38" fill="#003a50"/><rect x="283.12" y="433.47" width="62.74" height="6.38" fill="#003a50"/><rect x="308.12" y="438.73" width="6.38" height="99.52" fill="#003a50"/><rect x="430.87" y="438.73" width="6.38" height="99.52" fill="#003a50"/><rect x="283.12" y="438.73" width="6.38" height="99.52" fill="#003a50"/><rect x="287.05" y="455.54" width="26.4" height="6.38" fill="#003a50"/><rect x="524.15" y="430.25" width="6.38" height="107.23" fill="#003a50"/><rect x="524.15" y="369.32" width="6.38" height="13.63" fill="#003a50"/><rect x="373.2" y="543.21" width="6.38" height="108.39" fill="#003a50"/><rect x="488.47" y="544.45" width="6.38" height="104.88" fill="#003a50"/><line x1="389.4" y1="241.78" x2="392.24" y2="241.78" fill="none" stroke="#003a50" stroke-miterlimit="10"/><line x1="398.11" y1="241.78" x2="489.07" y2="241.78" fill="none" stroke="#003a50" stroke-miterlimit="10" stroke-dasharray="5.87 5.87"/><line x1="492" y1="241.78" x2="494.84" y2="241.78" fill="none" stroke="#003a50" stroke-miterlimit="10"/><line x1="313.45" y1="443.56" x2="313.45" y2="440.73" fill="none" stroke="#003a50" stroke-miterlimit="10"/><line x1="313.45" y1="435.22" x2="313.45" y2="371.93" fill="none" stroke="#003a50" stroke-miterlimit="10" stroke-dasharray="5.5 5.5"/><line x1="313.45" y1="369.18" x2="313.45" y2="366.34" fill="none" stroke="#003a50" stroke-miterlimit="10"/><rect x="267.57" y="474.15" width="6.38" height="102.03" fill="#003a50"/><rect x="447.21" y="240.64" width="125.47" height="6.38" fill="#003a50"/></g><g clip-path="url(#clip-path)"><path d="M433.51,28.37a4.61,4.61,0,0,1-1-3.12,4.61,4.61,0,0,1,1-3.12,3.63,3.63,0,0,1,2.88-1.2,3.59,3.59,0,0,1,2.86,1.2,4.56,4.56,0,0,1,1,3.12,4.56,4.56,0,0,1-1,3.12,3.59,3.59,0,0,1-2.86,1.2A3.63,3.63,0,0,1,433.51,28.37Zm4.61-1a3.52,3.52,0,0,0,.62-2.14,3.56,3.56,0,0,0-.62-2.15,2.23,2.23,0,0,0-3.47,0,3.53,3.53,0,0,0-.62,2.15,3.52,3.52,0,0,0,.62,2.14,2.21,2.21,0,0,0,3.47,0Z" fill="#003a50"/><path d="M441.84,29.36a.82.82,0,0,1,0-1.14,1,1,0,0,1,1.23,0,.85.85,0,0,1,0,1.14,1,1,0,0,1-1.23,0Z" fill="#003a50"/><path d="M451.45,23.41h-1.56s0,0,0-.12a1.85,1.85,0,0,0-.16-.31,1.32,1.32,0,0,0-.77-.64,2,2,0,0,0-.71-.11,1.78,1.78,0,0,0-1.52.72,3.11,3.11,0,0,0-.54,1.89h0a1.27,1.27,0,0,1,.31-.3,3.28,3.28,0,0,1,.43-.26,3.14,3.14,0,0,1,.67-.21,4.12,4.12,0,0,1,.86-.09,3.57,3.57,0,0,1,2.38.78,2.49,2.49,0,0,1,.92,2,2.54,2.54,0,0,1-1,2.05,3.92,3.92,0,0,1-2.55.78,3.44,3.44,0,0,1-2.73-1.09,4.5,4.5,0,0,1-.93-3v-.29a4.83,4.83,0,0,1,.93-3,3.2,3.2,0,0,1,2.69-1.21,4.14,4.14,0,0,1,1.5.26,2.74,2.74,0,0,1,1,.67A2.43,2.43,0,0,1,451.45,23.41Zm-1.77,2.23a2.58,2.58,0,0,0-2.79,0,1.3,1.3,0,0,0-.55,1.11,1.32,1.32,0,0,0,.55,1.11,2.28,2.28,0,0,0,1.4.41,2.32,2.32,0,0,0,1.4-.41,1.34,1.34,0,0,0,.54-1.11A1.3,1.3,0,0,0,449.68,25.64Z" fill="#003a50"/><path d="M313.71,28.37a4.57,4.57,0,0,1-1-3.12,4.57,4.57,0,0,1,1-3.12,4,4,0,0,1,5.73,0,4.57,4.57,0,0,1,1.05,3.12,4.57,4.57,0,0,1-1.05,3.12,4,4,0,0,1-5.73,0Zm4.6-1a3.52,3.52,0,0,0,.62-2.14,3.56,3.56,0,0,0-.62-2.15,2.23,2.23,0,0,0-3.47,0,3.53,3.53,0,0,0-.62,2.15,3.52,3.52,0,0,0,.62,2.14,2.21,2.21,0,0,0,3.47,0Z" fill="#003a50"/><path d="M322,29.36a.82.82,0,0,1,0-1.14.9.9,0,0,1,.62-.21.87.87,0,0,1,.61.21.82.82,0,0,1,0,1.14.87.87,0,0,1-.61.21A.9.9,0,0,1,322,29.36Z" fill="#003a50"/><path d="M331.64,23.41h-1.56s0,0,0-.12a2.73,2.73,0,0,0-.15-.31,1.6,1.6,0,0,0-.28-.35,1.25,1.25,0,0,0-.5-.29,2,2,0,0,0-.71-.11,1.78,1.78,0,0,0-1.52.72,3.11,3.11,0,0,0-.54,1.89h0a1.27,1.27,0,0,1,.31-.3,4.1,4.1,0,0,1,.43-.26,3.14,3.14,0,0,1,.67-.21,4.12,4.12,0,0,1,.86-.09,3.57,3.57,0,0,1,2.38.78,2.49,2.49,0,0,1,.92,2,2.54,2.54,0,0,1-1,2.05,3.89,3.89,0,0,1-2.54.78,3.41,3.41,0,0,1-2.73-1.09,4.5,4.5,0,0,1-.94-3v-.29a4.83,4.83,0,0,1,.94-3,3.16,3.16,0,0,1,2.68-1.21,4.14,4.14,0,0,1,1.5.26,2.74,2.74,0,0,1,1,.67A2.38,2.38,0,0,1,331.64,23.41Zm-1.77,2.23a2.21,2.21,0,0,0-1.39-.41,2.26,2.26,0,0,0-1.4.41,1.4,1.4,0,0,0,0,2.22,2.6,2.6,0,0,0,2.8,0,1.34,1.34,0,0,0,.54-1.11A1.3,1.3,0,0,0,329.87,25.64Z" fill="#003a50"/><path d="M131.11,28.37a4.61,4.61,0,0,1-1-3.12,4.61,4.61,0,0,1,1-3.12,3.63,3.63,0,0,1,2.88-1.2,3.59,3.59,0,0,1,2.86,1.2,4.56,4.56,0,0,1,1,3.12,4.56,4.56,0,0,1-1,3.12,3.59,3.59,0,0,1-2.86,1.2A3.63,3.63,0,0,1,131.11,28.37Zm4.61-1a3.52,3.52,0,0,0,.62-2.14,3.56,3.56,0,0,0-.62-2.15,2.23,2.23,0,0,0-3.47,0,3.53,3.53,0,0,0-.62,2.15,3.52,3.52,0,0,0,.62,2.14,2.21,2.21,0,0,0,3.47,0Z" fill="#003a50"/><path d="M139.44,29.36a.82.82,0,0,1,0-1.14,1,1,0,0,1,1.23,0,.85.85,0,0,1,0,1.14,1,1,0,0,1-1.23,0Z" fill="#003a50"/><path d="M149.05,23.41h-1.56s0,0,0-.12a1.85,1.85,0,0,0-.16-.31,1.32,1.32,0,0,0-.77-.64,2,2,0,0,0-.71-.11,1.78,1.78,0,0,0-1.52.72,3.11,3.11,0,0,0-.54,1.89h0a1.27,1.27,0,0,1,.31-.3,3.28,3.28,0,0,1,.43-.26,3.14,3.14,0,0,1,.67-.21,4.12,4.12,0,0,1,.86-.09,3.57,3.57,0,0,1,2.38.78,2.49,2.49,0,0,1,.92,2,2.54,2.54,0,0,1-1,2.05,3.92,3.92,0,0,1-2.55.78,3.44,3.44,0,0,1-2.73-1.09,4.5,4.5,0,0,1-.93-3v-.29a4.83,4.83,0,0,1,.93-3,3.2,3.2,0,0,1,2.69-1.21,4.14,4.14,0,0,1,1.5.26,2.74,2.74,0,0,1,1,.67A2.43,2.43,0,0,1,149.05,23.41Zm-1.77,2.23a2.58,2.58,0,0,0-2.79,0,1.3,1.3,0,0,0-.55,1.11,1.32,1.32,0,0,0,.55,1.11,2.28,2.28,0,0,0,1.4.41,2.32,2.32,0,0,0,1.4-.41,1.34,1.34,0,0,0,.54-1.11A1.3,1.3,0,0,0,147.28,25.64Z" fill="#003a50"/><path d="M25.84,543.08v1.55l-.12,0-.31.15a1.87,1.87,0,0,0-.35.28,1.25,1.25,0,0,0-.29.5,2,2,0,0,0-.11.71,1.78,1.78,0,0,0,.72,1.52,3.11,3.11,0,0,0,1.89.54v-.05A1,1,0,0,1,27,548a3.19,3.19,0,0,1-.26-.42,3.33,3.33,0,0,1-.21-.67,4.12,4.12,0,0,1-.09-.86,3.57,3.57,0,0,1,.78-2.38,2.46,2.46,0,0,1,2-.92,2.54,2.54,0,0,1,2,1,3.89,3.89,0,0,1,.78,2.54A3.41,3.41,0,0,1,30.91,549a4.5,4.5,0,0,1-3,.93h-.29a4.83,4.83,0,0,1-3-.93,3.16,3.16,0,0,1-1.21-2.68,4.14,4.14,0,0,1,.26-1.5,2.74,2.74,0,0,1,.67-1A2.38,2.38,0,0,1,25.84,543.08Zm2.23,1.77a2.56,2.56,0,0,0,0,2.78,1.3,1.3,0,0,0,1.11.56,1.35,1.35,0,0,0,1.11-.55,2.6,2.6,0,0,0,0-2.8,1.35,1.35,0,0,0-1.11-.55A1.3,1.3,0,0,0,28.07,544.85Z" fill="#003a50"/><path d="M30.8,377.17a4.56,4.56,0,0,1-3.12,1,4.56,4.56,0,0,1-3.12-1,4,4,0,0,1,0-5.73,4.57,4.57,0,0,1,3.12-1.05,4.57,4.57,0,0,1,3.12,1.05,4,4,0,0,1,0,5.73Zm-1-4.6a3.52,3.52,0,0,0-2.14-.62,3.56,3.56,0,0,0-2.15.62,2.23,2.23,0,0,0,0,3.47,3.53,3.53,0,0,0,2.15.62,3.52,3.52,0,0,0,2.14-.62,2.21,2.21,0,0,0,0-3.47Z" fill="#003a50"/><path d="M31.79,368.85a.85.85,0,0,1-1.14,0,.9.9,0,0,1-.21-.62.87.87,0,0,1,.21-.61.82.82,0,0,1,1.14,0,.87.87,0,0,1,.21.61A.9.9,0,0,1,31.79,368.85Z" fill="#003a50"/><path d="M25.85,359.24v1.55l-.13,0-.31.15a1.87,1.87,0,0,0-.35.28,1.25,1.25,0,0,0-.29.5,2,2,0,0,0-.11.71,1.78,1.78,0,0,0,.72,1.52,3.11,3.11,0,0,0,1.89.54v0a1.11,1.11,0,0,1-.3-.31,3.19,3.19,0,0,1-.26-.42,3.33,3.33,0,0,1-.21-.67,4.12,4.12,0,0,1-.09-.86,3.57,3.57,0,0,1,.78-2.38,2.46,2.46,0,0,1,2-.92,2.54,2.54,0,0,1,2,1,3.89,3.89,0,0,1,.78,2.54,3.41,3.41,0,0,1-1.09,2.73,4.5,4.5,0,0,1-3,.93h-.29a4.83,4.83,0,0,1-3-.93,3.16,3.16,0,0,1-1.21-2.68,4.14,4.14,0,0,1,.26-1.5,2.74,2.74,0,0,1,.67-1A2.39,2.39,0,0,1,25.85,359.24ZM28.07,361a2.56,2.56,0,0,0,0,2.78,1.3,1.3,0,0,0,1.11.56,1.35,1.35,0,0,0,1.11-.55,2.6,2.6,0,0,0,0-2.8,1.34,1.34,0,0,0-1.11-.54A1.3,1.3,0,0,0,28.07,361Z" fill="#003a50"/><path d="M30.8,197.48a4.57,4.57,0,0,1-3.12,1.05,4.57,4.57,0,0,1-3.12-1.05,4,4,0,0,1,0-5.73,4.57,4.57,0,0,1,3.12-1.05,4.57,4.57,0,0,1,3.12,1.05,4,4,0,0,1,0,5.73Zm-1-4.6a3.52,3.52,0,0,0-2.14-.62,3.56,3.56,0,0,0-2.15.62,2.23,2.23,0,0,0,0,3.47,3.53,3.53,0,0,0,2.15.62,3.52,3.52,0,0,0,2.14-.62,2.21,2.21,0,0,0,0-3.47Z" fill="#003a50"/><path d="M31.79,189.16a.82.82,0,0,1-1.14,0,1,1,0,0,1,0-1.23.82.82,0,0,1,1.14,0,1,1,0,0,1,0,1.23Z" fill="#003a50"/><path d="M25.85,179.55v1.56s-.05,0-.13,0a1.85,1.85,0,0,0-.31.16,1.49,1.49,0,0,0-.35.27,1.25,1.25,0,0,0-.29.5,2,2,0,0,0-.11.71,1.78,1.78,0,0,0,.72,1.52,3.11,3.11,0,0,0,1.89.54v0a1.49,1.49,0,0,1-.3-.31,3.28,3.28,0,0,1-.26-.43,3.14,3.14,0,0,1-.21-.67,4.12,4.12,0,0,1-.09-.86,3.57,3.57,0,0,1,.78-2.38,2.49,2.49,0,0,1,2-.92,2.54,2.54,0,0,1,2,1,3.91,3.91,0,0,1,.78,2.54,3.41,3.41,0,0,1-1.09,2.73,4.45,4.45,0,0,1-3,.94h-.29a4.77,4.77,0,0,1-3-.94,3.16,3.16,0,0,1-1.21-2.68,4.14,4.14,0,0,1,.26-1.5,2.74,2.74,0,0,1,.67-1A2.39,2.39,0,0,1,25.85,179.55Zm2.22,1.77a2.21,2.21,0,0,0-.41,1.39,2.26,2.26,0,0,0,.41,1.4,1.4,1.4,0,0,0,2.22,0,2.28,2.28,0,0,0,.41-1.4,2.32,2.32,0,0,0-.41-1.4,1.34,1.34,0,0,0-1.11-.54A1.3,1.3,0,0,0,28.07,181.32Z" fill="#003a50"/><path d="M450.28,214.62l-2.48,1.95v-2.24l2.73-2.27h1.86V224h-2.11Z" fill="#003a50"/><path d="M456.91,214.62l-2.48,1.95v-2.24l2.73-2.27H459V224h-2.11Z" fill="#003a50"/><path d="M461.54,223.84a1,1,0,0,1-.32-.81,1.06,1.06,0,0,1,.32-.8,1.25,1.25,0,0,1,.88-.3,1.22,1.22,0,0,1,.86.3,1,1,0,0,1,.32.8,1,1,0,0,1-.32.81,1.22,1.22,0,0,1-.86.3A1.25,1.25,0,0,1,461.54,223.84Z" fill="#003a50"/><path d="M470.83,216a5.06,5.06,0,0,1,3.34,1.06,4.19,4.19,0,0,1,0,6,5.39,5.39,0,0,1-3.55,1.08,5.84,5.84,0,0,1-3.56-1,3.18,3.18,0,0,1-1.29-2.69h2.11a1.54,1.54,0,0,0,.7,1.34,3.62,3.62,0,0,0,2,.48,3.15,3.15,0,0,0,2-.57,2.37,2.37,0,0,0,0-3.39,3.26,3.26,0,0,0-2.08-.58,3.54,3.54,0,0,0-1.91.42,1.84,1.84,0,0,0-.7.64l-.05.12h-2.11v-6.88h8.88v1.85h-6.77v3h.05a2.31,2.31,0,0,1,.4-.3,2.81,2.81,0,0,1,.55-.27A5.6,5.6,0,0,1,470.83,216Z" fill="#003a50"/><path d="M482.5,409.34h-2.11v-2.65h-7v-1.84l6.3-7.42h2.79v7.42h1.59v1.84H482.5Zm-2.11-4.49v-5.32h-.07l-4.48,5.27v.05Z" fill="#003a50"/><path d="M485.78,409.21a1,1,0,0,1-.33-.81,1,1,0,0,1,.33-.8,1.4,1.4,0,0,1,1.73,0,1,1,0,0,1,.32.8,1,1,0,0,1-.32.81,1.4,1.4,0,0,1-1.73,0Z" fill="#003a50"/><path d="M498.11,409.34H496v-2.65h-7v-1.84l6.3-7.42h2.79v7.42h1.59v1.84h-1.59ZM496,404.85v-5.32h-.07l-4.47,5.27v.05Z" fill="#003a50"/><path d="M270.42,214.62l-2.48,1.95v-2.24l2.73-2.27h1.86V224h-2.11Z" fill="#003a50"/><path d="M284.92,224H275v-1.56a2.74,2.74,0,0,1,.58-1.74,4,4,0,0,1,1.45-1.2c.5-.25,1.12-.54,1.87-.86s1.32-.56,1.87-.77a4.39,4.39,0,0,0,1.45-.92,1.78,1.78,0,0,0,.57-1.3q0-1.89-2.67-1.89t-2.67,2.16v.41h-2.11v-.41a3.62,3.62,0,0,1,1.26-3,5.39,5.39,0,0,1,3.52-1,5.65,5.65,0,0,1,3.51,1,3.27,3.27,0,0,1,1.27,2.75,3.14,3.14,0,0,1-.56,1.83,4.29,4.29,0,0,1-1.4,1.31c-.6.34-1.21.65-1.84.93s-1.23.52-1.82.74a5.46,5.46,0,0,0-1.41.75,1.25,1.25,0,0,0-.56,1h7.62Z" fill="#003a50"/><path d="M287,223.84a1,1,0,0,1-.32-.81,1.06,1.06,0,0,1,.32-.8,1.25,1.25,0,0,1,.88-.3,1.22,1.22,0,0,1,.86.3,1,1,0,0,1,.32.8,1,1,0,0,1-.32.81,1.22,1.22,0,0,1-.86.3A1.25,1.25,0,0,1,287,223.84Z" fill="#003a50"/><path d="M292.43,222.44a7.34,7.34,0,0,1,0-8.84,5.71,5.71,0,0,1,8.13,0,7.34,7.34,0,0,1,0,8.84,5.71,5.71,0,0,1-8.13,0Zm6.53-1.39a5.73,5.73,0,0,0,0-6.07,3.15,3.15,0,0,0-4.92,0,5.67,5.67,0,0,0,0,6.07,3.14,3.14,0,0,0,4.92,0Z" fill="#003a50"/><path d="M155.38,224h-9.93v-1.56a2.74,2.74,0,0,1,.58-1.74,4,4,0,0,1,1.44-1.2c.5-.25,1.12-.54,1.87-.86s1.33-.56,1.88-.77a4.24,4.24,0,0,0,1.44-.92,1.76,1.76,0,0,0,.58-1.3q0-1.89-2.67-1.89t-2.67,2.16v.41h-2.11v-.41a3.62,3.62,0,0,1,1.26-3,5.38,5.38,0,0,1,3.51-1,5.66,5.66,0,0,1,3.52,1,3.3,3.3,0,0,1,1.27,2.75,3.14,3.14,0,0,1-.56,1.83,4.39,4.39,0,0,1-1.4,1.31c-.6.34-1.21.65-1.84.93s-1.23.52-1.83.74a5.56,5.56,0,0,0-1.4.75,1.22,1.22,0,0,0-.56,1h7.62Z" fill="#003a50"/><path d="M165.9,224h-2.11v-2.65h-7v-1.84l6.29-7.42h2.79v7.42h1.6v1.84h-1.6Zm-2.11-4.49v-5.32h-.06l-4.48,5.27v0Z" fill="#003a50"/><path d="M169.18,223.84a1,1,0,0,1-.32-.81,1.06,1.06,0,0,1,.32-.8,1.41,1.41,0,0,1,1.74,0,1.06,1.06,0,0,1,.32.8,1,1,0,0,1-.32.81,1.41,1.41,0,0,1-1.74,0Z" fill="#003a50"/><path d="M182.8,215.42h-2.21s0-.06,0-.18a2.94,2.94,0,0,0-.22-.44,2.63,2.63,0,0,0-.39-.49,1.78,1.78,0,0,0-.71-.42,3.19,3.19,0,0,0-1-.16,2.53,2.53,0,0,0-2.15,1,4.41,4.41,0,0,0-.76,2.68h.06a1.79,1.79,0,0,1,.44-.43,4.76,4.76,0,0,1,.6-.36,4.33,4.33,0,0,1,1-.31,6.06,6.06,0,0,1,1.21-.12,5,5,0,0,1,3.37,1.11,3.52,3.52,0,0,1,1.31,2.8,3.59,3.59,0,0,1-1.36,2.9,5.54,5.54,0,0,1-3.61,1.11,4.81,4.81,0,0,1-3.87-1.55,6.35,6.35,0,0,1-1.32-4.26v-.41a6.85,6.85,0,0,1,1.32-4.31,4.52,4.52,0,0,1,3.8-1.71,5.66,5.66,0,0,1,2.13.37,3.84,3.84,0,0,1,1.44.94A3.45,3.45,0,0,1,182.8,215.42Zm-2.51,3.15a3.6,3.6,0,0,0-3.95,0,2,2,0,0,0,0,3.14,3.63,3.63,0,0,0,4,0,2,2,0,0,0,0-3.14Z" fill="#003a50"/><path d="M139.87,418.79a5,5,0,0,1,3.33,1.07,4.16,4.16,0,0,1,0,6,5.38,5.38,0,0,1-3.54,1.08,5.8,5.8,0,0,1-3.57-1,3.18,3.18,0,0,1-1.28-2.68h2.11a1.53,1.53,0,0,0,.7,1.33,3.59,3.59,0,0,0,2,.49,3.11,3.11,0,0,0,2-.58,2.36,2.36,0,0,0,0-3.39,3.31,3.31,0,0,0-2.07-.58,3.6,3.6,0,0,0-1.92.42,1.87,1.87,0,0,0-.69.64l-.05.12h-2.11v-6.87h8.87v1.84h-6.76v3h.05a1.83,1.83,0,0,1,.39-.31,4,4,0,0,1,.55-.27A5.66,5.66,0,0,1,139.87,418.79Z" fill="#003a50"/><path d="M146.57,426.64a1,1,0,0,1-.33-.8,1,1,0,0,1,.33-.81,1.4,1.4,0,0,1,1.73,0,1,1,0,0,1,.33.81,1,1,0,0,1-.33.8,1.4,1.4,0,0,1-1.73,0Z" fill="#003a50"/><path d="M158.9,426.78h-2.11v-2.65h-7v-1.85l6.3-7.41h2.79v7.41h1.59v1.85H158.9Zm-2.11-4.5V417h-.07l-4.47,5.27v0Z" fill="#003a50"/><path d="M466.15,477.65l-2.48,2v-2.24l2.73-2.27h1.86V487h-2.11Z" fill="#003a50"/><path d="M470.79,486.87a1.15,1.15,0,0,1,0-1.61,1.4,1.4,0,0,1,1.73,0,1.17,1.17,0,0,1,0,1.61,1.4,1.4,0,0,1-1.73,0Z" fill="#003a50"/><path d="M483.37,486.24a7.73,7.73,0,0,1-7.37,0,3,3,0,0,1-1.37-2.56,2.7,2.7,0,0,1,.26-1.16,2.41,2.41,0,0,1,.65-.86,4.14,4.14,0,0,1,1.4-.77l.26-.07v-.09a3,3,0,0,1-.77-.29,2.61,2.61,0,0,1-.66-.44,2.2,2.2,0,0,1-.54-.75,2.42,2.42,0,0,1-.23-1,2.82,2.82,0,0,1,1.26-2.39,5.74,5.74,0,0,1,3.42-.89,5.81,5.81,0,0,1,3.43.89,2.84,2.84,0,0,1,1.25,2.39,2.62,2.62,0,0,1-.22,1,2,2,0,0,1-.56.74,3.42,3.42,0,0,1-1.19.68l-.23.05v.09l.29.07c.09,0,.3.12.62.27a4.09,4.09,0,0,1,.77.5,3,3,0,0,1,.62.82,2.71,2.71,0,0,1,.27,1.2A3,3,0,0,1,483.37,486.24Zm-5.79-1.36a4.79,4.79,0,0,0,4.2,0,1.59,1.59,0,0,0,0-2.69,4.93,4.93,0,0,0-4.2,0,1.58,1.58,0,0,0,0,2.68Zm-.37-6.52a1.38,1.38,0,0,0,.65,1.2,4.07,4.07,0,0,0,3.64,0,1.43,1.43,0,0,0,0-2.4,4,4,0,0,0-3.62,0A1.38,1.38,0,0,0,477.21,478.36Z" fill="#003a50"/><path d="M362.57,476.94h-5.82v-1.85h8.86v1.85l-4.52,2.65v.06h1.28a3.9,3.9,0,0,1,2.79,1,3.52,3.52,0,0,1,1,2.67,3.32,3.32,0,0,1-1.33,2.82,6.93,6.93,0,0,1-7.24,0,3.35,3.35,0,0,1-1.33-2.85V483h2.11v.33c0,1.36.95,2,2.84,2s2.84-.66,2.84-2-.94-2-2.84-2H358v-1.67l4.57-2.68Z" fill="#003a50"/><path d="M368.31,486.87a1.17,1.17,0,0,1,0-1.61,1.41,1.41,0,0,1,1.74,0,1.17,1.17,0,0,1,0,1.61,1.41,1.41,0,0,1-1.74,0Z" fill="#003a50"/><path d="M380.89,486.24a6.39,6.39,0,0,1-3.67.93,6.5,6.5,0,0,1-3.69-.94,3,3,0,0,1-1.37-2.56,2.56,2.56,0,0,1,.26-1.16,2.41,2.41,0,0,1,.65-.86,4.05,4.05,0,0,1,1.4-.77l.25-.07v-.09a3.05,3.05,0,0,1-.76-.29,2.61,2.61,0,0,1-.66-.44,2.2,2.2,0,0,1-.54-.75,2.42,2.42,0,0,1-.23-1,2.82,2.82,0,0,1,1.26-2.39,5.74,5.74,0,0,1,3.42-.89,5.81,5.81,0,0,1,3.43.89,2.83,2.83,0,0,1,1.24,2.39,2.46,2.46,0,0,1-.22,1,1.87,1.87,0,0,1-.55.74,3.51,3.51,0,0,1-1.19.68l-.23.05v.09l.28.07a6.14,6.14,0,0,1,.63.27,4.45,4.45,0,0,1,.77.5,3,3,0,0,1,.61.82,2.58,2.58,0,0,1,.28,1.2A3,3,0,0,1,380.89,486.24Zm-5.78-1.36a3.79,3.79,0,0,0,2.1.49,3.84,3.84,0,0,0,2.1-.48,1.59,1.59,0,0,0,0-2.69,4.93,4.93,0,0,0-4.2,0,1.58,1.58,0,0,0,0,2.68Zm-.37-6.52a1.39,1.39,0,0,0,.64,1.2,4.09,4.09,0,0,0,3.65,0,1.44,1.44,0,0,0,0-2.4,4,4,0,0,0-3.62,0A1.38,1.38,0,0,0,374.74,478.36Z" fill="#003a50"/><path d="M462.41,310.75h-5.82v-1.84h8.86v1.84l-4.53,2.65v.07h1.28a3.83,3.83,0,0,1,2.79,1,3.49,3.49,0,0,1,1.06,2.66,3.33,3.33,0,0,1-1.33,2.83,7,7,0,0,1-7.24,0,3.36,3.36,0,0,1-1.33-2.86v-.32h2.11v.32c0,1.36.95,2,2.84,2s2.84-.67,2.84-2-.95-2-2.84-2h-3.27V313.5l4.58-2.68Z" fill="#003a50"/><path d="M468.15,320.68a1,1,0,0,1-.32-.8,1,1,0,0,1,.32-.81,1.24,1.24,0,0,1,.87-.3,1.2,1.2,0,0,1,.86.3,1,1,0,0,1,.33.81,1,1,0,0,1-.33.8,1.2,1.2,0,0,1-.86.3A1.24,1.24,0,0,1,468.15,320.68Z" fill="#003a50"/><path d="M481.77,312.26h-2.21s0-.06,0-.17a1.85,1.85,0,0,0-.21-.44,2.4,2.4,0,0,0-.39-.5,1.85,1.85,0,0,0-.71-.41,3,3,0,0,0-1-.16,2.49,2.49,0,0,0-2.15,1,4.39,4.39,0,0,0-.76,2.68h.06a1.49,1.49,0,0,1,.44-.43,3.47,3.47,0,0,1,.6-.37,4,4,0,0,1,.95-.3,5.49,5.49,0,0,1,1.22-.13,5,5,0,0,1,3.37,1.11,3.51,3.51,0,0,1,1.3,2.8,3.58,3.58,0,0,1-1.36,2.91,5.55,5.55,0,0,1-3.6,1.1,4.81,4.81,0,0,1-3.87-1.54,6.38,6.38,0,0,1-1.32-4.27v-.41a6.85,6.85,0,0,1,1.32-4.31,4.52,4.52,0,0,1,3.8-1.71,5.87,5.87,0,0,1,2.13.37,3.83,3.83,0,0,1,1.43.94A3.46,3.46,0,0,1,481.77,312.26Zm-2.51,3.15a3.65,3.65,0,0,0-3.95,0,2,2,0,0,0,0,3.15,3.63,3.63,0,0,0,4,0,2,2,0,0,0,0-3.15Z" fill="#003a50"/><path d="M371.4,327.62h-2.11V325h-7v-1.84l6.3-7.42h2.79v7.42H373V325H371.4Zm-2.11-4.49V317.8h-.07l-4.47,5.28v.05Z" fill="#003a50"/><path d="M374.68,327.49a1.15,1.15,0,0,1,0-1.61,1.23,1.23,0,0,1,.87-.3,1.2,1.2,0,0,1,.86.3,1.15,1.15,0,0,1,0,1.61,1.2,1.2,0,0,1-.86.3A1.23,1.23,0,0,1,374.68,327.49Z" fill="#003a50"/><path d="M384.79,317.55H379v-1.84h8.86v1.84l-4.52,2.65v.07h1.28a3.9,3.9,0,0,1,2.79,1,3.52,3.52,0,0,1,1.05,2.67,3.32,3.32,0,0,1-1.33,2.82,6.93,6.93,0,0,1-7.24,0,3.38,3.38,0,0,1-1.33-2.85v-.33h2.11v.33c0,1.36.95,2,2.84,2s2.84-.67,2.84-2-.94-2-2.84-2h-3.26V320.3l4.58-2.68Z" fill="#003a50"/></g></svg>