<svg id="Слой_1" data-name="Слой 1" xmlns="http://www.w3.org/2000/svg" xmlns:xlink="http://www.w3.org/1999/xlink" viewBox="0 0 583.94 383.81"><defs><clipPath id="clip-path"><polygon points="83.19 0.42 83.19 36.57 0 36.57 0 209.82 91.69 209.82 91.69 230.09 236.75 230.09 236.75 383.39 582.24 383.39 582.24 53.58 569.14 53.58 569.14 0.42 83.19 0.42" fill="none"/></clipPath></defs><rect x="246.48" y="376.55" width="320.36" height="6.84" fill="#fff"/><polygon points="83.19 0.42 83.19 36.57 56.91 36.57 56.91 42.53 67.98 58.8 68.55 199.76 96.86 199.76 96.86 218.68 242.85 218.68 242.85 381.41 566.05 381.41 566.05 224.07 566.05 205.68 566.05 16.42 84.18 16.42 84.18 0.42 83.19 0.42" fill="#fff"/><rect x="89.52" y="0.43" width="477.32" height="2.44" fill="#fff"/><g clip-path="url(#clip-path)"><rect x="-584.12" y="-666.64" width="1162.95" height="2240.57" fill="none" stroke="#003a50" stroke-miterlimit="10"/><polygon points="-571.54 437.53 -571.54 1561.08 565.85 1561.08 565.85 -653.7 -571.54 -653.85 -571.54 366.82 -571.54 437.53" fill="none" stroke="#003a50" stroke-miterlimit="10"/></g><rect x="541.53" y="261.07" width="4.56" height="87.5" fill="#fff"/><rect x="541.53" y="261.07" width="4.56" height="87.5" fill="none" stroke="#003a50" stroke-miterlimit="10"/><line x1="543.81" y1="348.57" x2="543.81" y2="261.07" fill="none" stroke="#003a50" stroke-miterlimit="10"/><rect x="541.53" y="344.16" width="4.56" height="4.42" fill="#fff"/><rect x="541.53" y="344.16" width="4.56" height="4.42" fill="none" stroke="#003a50" stroke-miterlimit="10"/><rect x="541.53" y="261.07" width="4.56" height="4.42" fill="#fff"/><rect x="541.53" y="261.07" width="4.56" height="4.42" fill="none" stroke="#003a50" stroke-miterlimit="10"/><rect x="541.53" y="300.42" width="4.56" height="4.42" fill="#fff"/><rect x="541.53" y="300.42" width="4.56" height="4.42" fill="none" stroke="#003a50" stroke-miterlimit="10"/><g clip-path="url(#clip-path)"><path d="M541.53,300.42h-2.9c-20.15,0-33.1-15.64-33.1-34.93h36" fill="none" stroke="#003a50" stroke-miterlimit="10"/></g><rect x="541.53" y="79.62" width="4.56" height="89.89" fill="#fff"/><rect x="541.53" y="79.62" width="4.56" height="89.89" fill="none" stroke="#003a50" stroke-miterlimit="10"/><line x1="543.81" y1="79.62" x2="543.81" y2="169.52" fill="none" stroke="#003a50" stroke-miterlimit="10"/><rect x="541.53" y="79.62" width="4.56" height="4.54" fill="#fff"/><rect x="541.53" y="79.62" width="4.56" height="4.54" fill="none" stroke="#003a50" stroke-miterlimit="10"/><rect x="541.53" y="164.98" width="4.56" height="4.54" fill="#fff"/><rect x="541.53" y="164.98" width="4.56" height="4.54" fill="none" stroke="#003a50" stroke-miterlimit="10"/><rect x="541.53" y="124.55" width="4.56" height="4.54" fill="#fff"/><rect x="541.53" y="124.55" width="4.56" height="4.54" fill="none" stroke="#003a50" stroke-miterlimit="10"/><g clip-path="url(#clip-path)"><path d="M541.53,129.09h-2.9c-20.15,0-33.1,16.07-33.1,35.89h36" fill="none" stroke="#003a50" stroke-miterlimit="10"/><path d="M119.49,191.53a3.16,3.16,0,0,0,2.91-1.95h1.79l4.73,2.82-2.15,3.5-2.46-1.35v11H114v-11l-2.47,1.35-2.15-3.5,4.78-2.82h2.38A3.21,3.21,0,0,0,119.49,191.53Z" fill="none" stroke="#003a50" stroke-miterlimit="10"/></g><rect x="103.37" y="182.34" width="31.57" height="30.42" fill="none" stroke="#003a50" stroke-miterlimit="10"/><rect x="218.91" y="115.43" width="31.65" height="31.61" fill="none" stroke="#003a50" stroke-miterlimit="10"/><g clip-path="url(#clip-path)"><path d="M230.73,129.81V119.53h8v10.28a3.3,3.3,0,0,1-3.3,3.3H234A3.29,3.29,0,0,1,230.73,129.81Z" fill="none" stroke="#003a50" stroke-miterlimit="10"/></g><polyline points="237.96 142.93 234.72 142.93 231.5 142.93" fill="none" stroke="#003a50" stroke-miterlimit="10"/><line x1="234.73" y1="133.11" x2="234.73" y2="142.93" fill="none" stroke="#003a50" stroke-miterlimit="10"/><rect x="260.16" y="178.78" width="34.02" height="34.02" fill="none" stroke="#003a50" stroke-miterlimit="10"/><g clip-path="url(#clip-path)"><path d="M269.56,208.19a4.64,4.64,0,1,1,4.64-4.63A4.63,4.63,0,0,1,269.56,208.19Z" fill="none" stroke="#003a50" stroke-miterlimit="10"/><path d="M269.56,192.71a4.64,4.64,0,1,1,4.64-4.64A4.63,4.63,0,0,1,269.56,192.71Z" fill="none" stroke="#003a50" stroke-miterlimit="10"/><path d="M284.65,208.19a4.64,4.64,0,1,1,4.64-4.63A4.63,4.63,0,0,1,284.65,208.19Z" fill="none" stroke="#003a50" stroke-miterlimit="10"/><path d="M284.65,192.71a4.64,4.64,0,1,1,4.64-4.64A4.63,4.63,0,0,1,284.65,192.71Z" fill="none" stroke="#003a50" stroke-miterlimit="10"/></g><rect x="254.29" y="219.3" width="26.5" height="148.24" fill="none" stroke="#003a50" stroke-miterlimit="10"/><g clip-path="url(#clip-path)"><path d="M277,232.76a.78.78,0,0,1,.7.43.78.78,0,0,1-.36,1.05,22.44,22.44,0,0,1-19.67,0,.78.78,0,0,1,.69-1.4,20.89,20.89,0,0,0,18.3,0A.68.68,0,0,1,277,232.76Z" fill="none" stroke="#003a50" stroke-miterlimit="10"/><path d="M277,237.09a.77.77,0,0,1,.7.44.78.78,0,0,1-.36,1.05,22.44,22.44,0,0,1-19.67,0,.78.78,0,0,1,.69-1.41,20.81,20.81,0,0,0,18.3,0A.81.81,0,0,1,277,237.09Z" fill="none" stroke="#003a50" stroke-miterlimit="10"/><path d="M277,241.43a.78.78,0,0,1,.7.43.78.78,0,0,1-.36,1,22.44,22.44,0,0,1-19.67,0,.78.78,0,0,1,.69-1.4,20.89,20.89,0,0,0,18.3,0A.68.68,0,0,1,277,241.43Z" fill="none" stroke="#003a50" stroke-miterlimit="10"/><path d="M277,245.76a.78.78,0,0,1,.34,1.49,22.44,22.44,0,0,1-19.67,0,.78.78,0,0,1,.69-1.41,20.81,20.81,0,0,0,18.3,0A.81.81,0,0,1,277,245.76Z" fill="none" stroke="#003a50" stroke-miterlimit="10"/><path d="M277,250.1a.78.78,0,0,1,.7.43.78.78,0,0,1-.36,1.05,22.44,22.44,0,0,1-19.67,0,.78.78,0,0,1,.69-1.4,20.89,20.89,0,0,0,18.3,0A.68.68,0,0,1,277,250.1Z" fill="none" stroke="#003a50" stroke-miterlimit="10"/><path d="M277,254.43a.77.77,0,0,1,.7.44.79.79,0,0,1-.36,1,22.44,22.44,0,0,1-19.67,0,.78.78,0,0,1,.69-1.41,20.81,20.81,0,0,0,18.3,0A.81.81,0,0,1,277,254.43Z" fill="none" stroke="#003a50" stroke-miterlimit="10"/><path d="M277,228.42a.77.77,0,0,1,.7.44.78.78,0,0,1-.36,1,22.44,22.44,0,0,1-19.67,0,.78.78,0,0,1,.69-1.41,20.81,20.81,0,0,0,18.3,0A.81.81,0,0,1,277,228.42Z" fill="none" stroke="#003a50" stroke-miterlimit="10"/><path d="M277,224.09a.77.77,0,0,1,.7.44.78.78,0,0,1-.36,1,22.35,22.35,0,0,1-19.67,0,.78.78,0,0,1,.69-1.4,20.81,20.81,0,0,0,18.3,0A.68.68,0,0,1,277,224.09Z" fill="none" stroke="#003a50" stroke-miterlimit="10"/></g><line x1="267.48" y1="219.43" x2="267.48" y2="367.41" fill="none" stroke="#003a50" stroke-miterlimit="10"/><g clip-path="url(#clip-path)"><path d="M277,259.24a.78.78,0,0,1,.7.43.78.78,0,0,1-.36,1.05,22.44,22.44,0,0,1-19.67,0,.78.78,0,0,1,.69-1.4,20.89,20.89,0,0,0,18.3,0A.68.68,0,0,1,277,259.24Z" fill="none" stroke="#003a50" stroke-miterlimit="10"/><path d="M277,263.57a.77.77,0,0,1,.7.44.78.78,0,0,1-.36,1,22.35,22.35,0,0,1-19.67,0,.78.78,0,0,1,.69-1.4,20.81,20.81,0,0,0,18.3,0A.68.68,0,0,1,277,263.57Z" fill="none" stroke="#003a50" stroke-miterlimit="10"/><path d="M277,267.91a.78.78,0,0,1,.7.43.78.78,0,0,1-.36,1.05,22.44,22.44,0,0,1-19.67,0,.78.78,0,0,1,.69-1.4,20.89,20.89,0,0,0,18.3,0A.68.68,0,0,1,277,267.91Z" fill="none" stroke="#003a50" stroke-miterlimit="10"/></g><rect x="280.78" y="219.3" width="34.54" height="26.5" fill="none" stroke="#003a50" stroke-miterlimit="10"/><g clip-path="url(#clip-path)"><path d="M294.24,242a.79.79,0,0,0,1.49.35,22.44,22.44,0,0,0,0-19.67.79.79,0,0,0-1.05-.36.78.78,0,0,0-.36,1,20.81,20.81,0,0,1,0,18.3A.84.84,0,0,0,294.24,242Z" fill="none" stroke="#003a50" stroke-miterlimit="10"/><path d="M298.58,242a.78.78,0,0,0,1.48.35,22.44,22.44,0,0,0,0-19.67.78.78,0,0,0-1-.36.77.77,0,0,0-.36,1,20.89,20.89,0,0,1,0,18.3A.71.71,0,0,0,298.58,242Z" fill="none" stroke="#003a50" stroke-miterlimit="10"/><path d="M289.91,242a.78.78,0,0,0,1.48.35,22.44,22.44,0,0,0,0-19.67.78.78,0,0,0-1-.36.77.77,0,0,0-.36,1,20.89,20.89,0,0,1,0,18.3A.71.71,0,0,0,289.91,242Z" fill="none" stroke="#003a50" stroke-miterlimit="10"/><path d="M285.57,242a.79.79,0,0,0,1.49.35,22.44,22.44,0,0,0,0-19.67.79.79,0,0,0-1.05-.36.78.78,0,0,0-.36,1,20.81,20.81,0,0,1,0,18.3A.84.84,0,0,0,285.57,242Z" fill="none" stroke="#003a50" stroke-miterlimit="10"/></g><line x1="280.91" y1="232.49" x2="315.19" y2="232.49" fill="none" stroke="#003a50" stroke-miterlimit="10"/><rect x="280.78" y="341.05" width="34.54" height="26.5" fill="none" stroke="#003a50" stroke-miterlimit="10"/><g clip-path="url(#clip-path)"><path d="M294.24,363.73a.77.77,0,0,0,.44.7.79.79,0,0,0,1.05-.35,22.46,22.46,0,0,0,0-19.68.79.79,0,0,0-1.05-.35.77.77,0,0,0-.36,1,20.81,20.81,0,0,1,0,18.3A.84.84,0,0,0,294.24,363.73Z" fill="none" stroke="#003a50" stroke-miterlimit="10"/><path d="M298.58,363.73a.78.78,0,0,0,.43.7.79.79,0,0,0,1.05-.35,22.46,22.46,0,0,0,0-19.68.78.78,0,0,0-1-.35.76.76,0,0,0-.36,1,20.89,20.89,0,0,1,0,18.3A.71.71,0,0,0,298.58,363.73Z" fill="none" stroke="#003a50" stroke-miterlimit="10"/><path d="M289.91,363.73a.78.78,0,0,0,.43.7.79.79,0,0,0,1.05-.35,22.46,22.46,0,0,0,0-19.68.78.78,0,0,0-1-.35.76.76,0,0,0-.36,1,20.89,20.89,0,0,1,0,18.3A.71.71,0,0,0,289.91,363.73Z" fill="none" stroke="#003a50" stroke-miterlimit="10"/><path d="M285.57,363.73a.77.77,0,0,0,.44.7.79.79,0,0,0,1.05-.35,22.46,22.46,0,0,0,0-19.68.79.79,0,0,0-1.05-.35.77.77,0,0,0-.36,1,20.81,20.81,0,0,1,0,18.3A.84.84,0,0,0,285.57,363.73Z" fill="none" stroke="#003a50" stroke-miterlimit="10"/></g><line x1="280.91" y1="354.24" x2="315.19" y2="354.24" fill="none" stroke="#003a50" stroke-miterlimit="10"/><rect x="401.2" y="159.14" width="102.05" height="16.75" fill="none" stroke="#003a50" stroke-miterlimit="10"/><polygon points="495.23 166.98 452.33 170.45 409.23 166.98 409.23 164.56 495.23 164.56 495.23 166.98" fill="none" stroke="#003a50" stroke-miterlimit="10"/><g clip-path="url(#clip-path)"><rect x="400.43" y="-16.97" width="102.05" height="16.75" fill="none" stroke="#003a50" stroke-miterlimit="10"/></g><rect x="400.43" y="193.14" width="102.05" height="16.75" fill="none" stroke="#003a50" stroke-miterlimit="10"/><polygon points="408.46 202.04 451.36 198.57 494.46 202.04 494.46 204.47 408.46 204.47 408.46 202.04" fill="none" stroke="#003a50" stroke-miterlimit="10"/><g clip-path="url(#clip-path)"><path d="M305.8,78.36a1.25,1.25,0,0,1,.94,1.5A13.78,13.78,0,1,0,333.61,86a1.26,1.26,0,0,1,2.46.57,16.3,16.3,0,0,1-31.78-7.29A1.25,1.25,0,0,1,305.8,78.36Z" fill="none" stroke="#003a50" stroke-miterlimit="10"/><path d="M361,88.07a1.25,1.25,0,0,1,1.74-.33A13.79,13.79,0,1,0,378.24,65a1.25,1.25,0,0,1-.33-1.75,1.24,1.24,0,0,1,1.74-.33A16.3,16.3,0,1,1,361.3,89.82,1.25,1.25,0,0,1,361,88.07Z" fill="none" stroke="#003a50" stroke-miterlimit="10"/><path d="M363.47,40.67a1.26,1.26,0,0,1-1.33-1.18,13.78,13.78,0,1,0-27.52,1.63,1.26,1.26,0,1,1-2.51.15,16.3,16.3,0,1,1,32.54-1.93A1.25,1.25,0,0,1,363.47,40.67Z" fill="none" stroke="#003a50" stroke-miterlimit="10"/><path d="M320,95a12.69,12.69,0,0,1-12-15.48l2-8.88a3.53,3.53,0,0,1,4.24-2.68L327.71,71a23.73,23.73,0,0,0,6,9.44l-1,4.2C331.39,90.61,326.11,95.17,320,95Z" fill="none" stroke="#003a50" stroke-miterlimit="10"/><path d="M362.79,86.45l-2.32-1.6a23.81,23.81,0,0,0,13.64-21.32l2.52,1.72c5,3.44,7.4,10,5,15.64A12.7,12.7,0,0,1,362.79,86.45Z" fill="none" stroke="#003a50" stroke-miterlimit="10"/><path d="M336,44.17l-.12-2c-.36-6.12,3.4-12,9.32-13.48A12.66,12.66,0,0,1,361,40.21l.12,1.84a23.93,23.93,0,0,0-16.64-1.92A23.5,23.5,0,0,0,336,44.17Z" fill="none" stroke="#003a50" stroke-miterlimit="10"/><path d="M333.71,80.45a23.73,23.73,0,0,1-6-9.44,16.51,16.51,0,0,1-.6-2A23.85,23.85,0,0,1,336,44.17a23.5,23.5,0,0,1,8.56-4,23.87,23.87,0,0,1,28.92,17.4,22.12,22.12,0,0,1,.68,6,23.81,23.81,0,0,1-13.64,21.32,22.85,22.85,0,0,1-4.48,1.6A23.8,23.8,0,0,1,333.71,80.45Z" fill="none" stroke="#003a50" stroke-miterlimit="10"/></g><rect x="168.92" y="117.12" width="43.96" height="95.52" fill="none" stroke="#003a50" stroke-miterlimit="10"/><g clip-path="url(#clip-path)"><rect x="174.08" y="121.32" width="33.22" height="87.39" rx="13.7" fill="none" stroke="#003a50" stroke-miterlimit="10"/><circle cx="190.78" cy="193.58" r="2.28" transform="translate(-41.45 334.79) rotate(-76.72)" fill="none" stroke="#003a50" stroke-miterlimit="10"/><path d="M131.8,167.5H103.24V144.43H131.8a11.54,11.54,0,1,1,0,23.07Z" fill="none" stroke="#003a50" stroke-miterlimit="10"/></g><rect x="103.23" y="144.43" width="11.08" height="23.08" fill="none" stroke="#003a50" stroke-miterlimit="10"/><rect x="218.9" y="178.78" width="97.57" height="33.86" fill="none" stroke="#003a50" stroke-miterlimit="10"/><rect x="218.91" y="147.13" width="31.65" height="31.65" fill="none" stroke="#003a50" stroke-miterlimit="10"/><polyline points="222.2 156.72 222.2 162.97 222.2 169.23" fill="none" stroke="#003a50" stroke-miterlimit="10"/><line x1="234.74" y1="162.99" x2="222.2" y2="162.99" fill="none" stroke="#003a50" stroke-miterlimit="10"/><g clip-path="url(#clip-path)"><path d="M244.28,149.11H230.8a3.24,3.24,0,0,0-3.24,3.24v21.21a3.24,3.24,0,0,0,3.24,3.24h13.48a3.24,3.24,0,0,0,3.24-3.24V152.35A3.24,3.24,0,0,0,244.28,149.11Z" fill="none" stroke="#003a50" stroke-miterlimit="10"/><path d="M236.3,163a2.24,2.24,0,1,0-2.23,2.24A2.23,2.23,0,0,0,236.3,163Z" fill="none" stroke="#003a50" stroke-miterlimit="10"/><rect x="262.03" y="-34.19" width="93.55" height="34.02" fill="none" stroke="#003a50" stroke-miterlimit="10"/><rect x="153.62" y="-33.97" width="40.34" height="34.69" fill="none" stroke="#003a50" stroke-miterlimit="10"/><rect x="227.99" y="-34.19" width="34.02" height="34.02" fill="none" stroke="#003a50" stroke-miterlimit="10"/></g><rect x="255.55" y="16.05" width="36.34" height="30.5" fill="none" stroke="#003a50" stroke-miterlimit="10"/><rect x="96.91" y="16.66" width="122.19" height="29.57" fill="none" stroke="#003a50" stroke-miterlimit="10"/><g clip-path="url(#clip-path)"><path d="M111.79,20.86a.87.87,0,0,1,1.65-.39,25,25,0,0,1,0,22,.87.87,0,1,1-1.56-.77,23.27,23.27,0,0,0,0-20.42A.76.76,0,0,1,111.79,20.86Z" fill="none" stroke="#003a50" stroke-miterlimit="10"/><path d="M116.62,20.86a.87.87,0,0,1,.49-.79.88.88,0,0,1,1.17.4,25,25,0,0,1,0,22,.87.87,0,1,1-1.56-.77,23.27,23.27,0,0,0,0-20.42A.77.77,0,0,1,116.62,20.86Z" fill="none" stroke="#003a50" stroke-miterlimit="10"/><path d="M121.46,20.86a.87.87,0,0,1,.49-.79.88.88,0,0,1,1.17.4,25.09,25.09,0,0,1,0,22,.87.87,0,1,1-1.57-.77,23.27,23.27,0,0,0,0-20.42A.88.88,0,0,1,121.46,20.86Z" fill="none" stroke="#003a50" stroke-miterlimit="10"/><path d="M126.3,20.86a.87.87,0,0,1,.49-.79.88.88,0,0,1,1.17.4,25.09,25.09,0,0,1,0,22,.87.87,0,0,1-1.57-.77,23.27,23.27,0,0,0,0-20.42A.88.88,0,0,1,126.3,20.86Z" fill="none" stroke="#003a50" stroke-miterlimit="10"/><path d="M131.14,20.86a.87.87,0,0,1,.49-.79.88.88,0,0,1,1.17.4,25.09,25.09,0,0,1,0,22,.87.87,0,1,1-1.57-.77,23.27,23.27,0,0,0,0-20.42A.88.88,0,0,1,131.14,20.86Z" fill="none" stroke="#003a50" stroke-miterlimit="10"/><path d="M136,20.86a.87.87,0,0,1,1.65-.39,25,25,0,0,1,0,22,.87.87,0,1,1-1.56-.77,23.27,23.27,0,0,0,0-20.42A.88.88,0,0,1,136,20.86Z" fill="none" stroke="#003a50" stroke-miterlimit="10"/><path d="M107,20.86a.87.87,0,0,1,1.65-.39,25,25,0,0,1,0,22,.87.87,0,1,1-1.56-.77,23.27,23.27,0,0,0,0-20.42A.88.88,0,0,1,107,20.86Z" fill="none" stroke="#003a50" stroke-miterlimit="10"/><path d="M102.11,20.86a.87.87,0,0,1,.49-.79.88.88,0,0,1,1.17.4,25.09,25.09,0,0,1,0,22,.87.87,0,0,1-1.57-.77,23.27,23.27,0,0,0,0-20.42A.88.88,0,0,1,102.11,20.86Z" fill="none" stroke="#003a50" stroke-miterlimit="10"/></g><line x1="96.9" y1="31.45" x2="219.09" y2="31.45" fill="none" stroke="#003a50" stroke-miterlimit="10"/><rect x="225.3" y="16.3" width="30.26" height="30.26" fill="none" stroke="#003a50" stroke-miterlimit="10"/><line x1="231.55" y1="31.42" x2="249.3" y2="31.42" fill="none" stroke="#003a50" stroke-miterlimit="10"/><line x1="240.42" y1="40.3" x2="240.42" y2="22.55" fill="none" stroke="#003a50" stroke-miterlimit="10"/><line x1="234.15" y1="37.7" x2="246.7" y2="25.15" fill="none" stroke="#003a50" stroke-miterlimit="10"/><line x1="246.7" y1="37.7" x2="234.15" y2="25.15" fill="none" stroke="#003a50" stroke-miterlimit="10"/><g clip-path="url(#clip-path)"><rect x="321.56" y="-34.19" width="34.02" height="34.02" fill="none" stroke="#003a50" stroke-miterlimit="10"/><rect x="96.91" y="-33.97" width="56.72" height="34.69" fill="none" stroke="#003a50" stroke-miterlimit="10"/></g><polygon points="168.69 182.24 103.1 182.45 103.1 213.01 168.69 212.79 168.69 182.24" fill="none" stroke="#003a50" stroke-miterlimit="10"/><g clip-path="url(#clip-path)"><path d="M137.67,188.26v23a3.36,3.36,0,0,0,3.35,3.36h22.25a3.37,3.37,0,0,0,3.36-3.36v-23a3.36,3.36,0,0,0-3.36-3.35H141A3.35,3.35,0,0,0,137.67,188.26Z" fill="none" stroke="#003a50" stroke-miterlimit="10"/><circle cx="152.15" cy="199.76" r="2.27" fill="none" stroke="#003a50" stroke-miterlimit="10"/><rect x="253.23" y="383.96" width="34.02" height="105.94" fill="none" stroke="#003a50" stroke-miterlimit="10"/><path d="M472.85,62.68v-41H427.08V64.89h43.56A2.21,2.21,0,0,0,472.85,62.68Z" fill="none" stroke="#003a50" stroke-miterlimit="10"/><path d="M518.72,62.91V21.65H473V62.91a2,2,0,0,0,2,2h41.81A2,2,0,0,0,518.72,62.91Z" fill="none" stroke="#003a50" stroke-miterlimit="10"/><path d="M427.08,64.89a3.1,3.1,0,0,1-3.32,2.83h-4.23a3.1,3.1,0,0,1-3.32-2.83V16.7H529.59V64.47a3.1,3.1,0,0,1-3.32,2.83h-4.22a3.11,3.11,0,0,1-3.33-2.83V21.64H427.08Z" fill="none" stroke="#003a50" stroke-miterlimit="10"/></g><rect x="427.08" y="21.65" width="91.64" height="9.25" fill="none" stroke="#003a50" stroke-miterlimit="10"/><g clip-path="url(#clip-path)"><rect x="446.17" y="384.02" width="22.68" height="22.68" fill="none" stroke="#003a50" stroke-miterlimit="10"/><rect x="312.08" y="384.02" width="22.68" height="22.68" fill="none" stroke="#003a50" stroke-miterlimit="10"/><rect x="339.55" y="384.02" width="102.05" height="113.39" fill="none" stroke="#003a50" stroke-miterlimit="10"/></g><rect x="367.51" y="344.52" width="22.68" height="22.68" fill="none" stroke="#003a50" stroke-miterlimit="10"/><g clip-path="url(#clip-path)"><path d="M372.35,349.35a9.2,9.2,0,1,1,0,13A9.19,9.19,0,0,1,372.35,349.35Z" fill="none" stroke="#003a50" stroke-miterlimit="10"/><path d="M371.72,350c1.7.17,3.42-.48,5.07,1.17,2.44,2.44-.15,5,2.3,7.46s5-.14,7.45,2.3" fill="none" stroke="#003a50" stroke-miterlimit="10"/></g><rect x="394.76" y="253.8" width="102.05" height="113.39" fill="none" stroke="#003a50" stroke-miterlimit="10"/><g clip-path="url(#clip-path)"><path d="M404.76,263.54h82.05a2.09,2.09,0,0,1,2.09,2.09v67.64H402.68V265.63A2.08,2.08,0,0,1,404.76,263.54Z" fill="none" stroke="#003a50" stroke-miterlimit="10"/><rect x="446.65" y="336.88" width="42.5" height="22.88" rx="1.98" fill="none" stroke="#003a50" stroke-miterlimit="10"/><rect x="402.42" y="336.88" width="42.5" height="22.88" rx="1.98" fill="none" stroke="#003a50" stroke-miterlimit="10"/></g><line x1="402.42" y1="319.42" x2="489.15" y2="319.42" fill="none" stroke="#003a50" stroke-miterlimit="10"/><g clip-path="url(#clip-path)"><path d="M166.07,117.8v-3.08A38.71,38.71,0,0,0,127.36,76V117.8" fill="none" stroke="#003a50" stroke-miterlimit="10" stroke-width="1.6"/><path d="M369.21,177.56v3.53a44.37,44.37,0,0,1-44.38,44.37v-47.9" fill="none" stroke="#003a50" stroke-miterlimit="10" stroke-width="1.6"/><path d="M56.91,109.17H52.85A51.13,51.13,0,0,1,1.72,58H56.91" fill="none" stroke="#003a50" stroke-miterlimit="10" stroke-width="1.6"/><path d="M57.45,375.79H53.38A51.13,51.13,0,0,0,2.25,426.92h55.2" fill="none" stroke="#003a50" stroke-miterlimit="10" stroke-width="1.6"/><rect x="51.67" y="36.48" width="16.32" height="22.32" fill="#003a50"/><rect x="51.67" y="108.13" width="16.32" height="100.85" fill="#003a50"/><rect x="51.67" y="36.48" width="45.82" height="10" fill="#003a50"/><rect x="51.67" y="198.27" width="51.56" height="11.71" fill="#003a50"/><rect x="91.53" y="198.27" width="11.71" height="31.86" fill="#003a50"/><rect x="51.67" y="201.48" width="10.82" height="175.07" fill="#003a50"/><rect x="86.73" y="-32.19" width="10.75" height="78.67" fill="#003a50"/><rect x="86.73" y="0.1" width="447.72" height="16.32" fill="#003a50"/><rect x="459.48" y="172.81" width="74.97" height="21.34" fill="#003a50"/><rect x="246.48" y="367.48" width="287.97" height="16.26" fill="#003a50"/><rect x="92.48" y="212.64" width="160.47" height="17.49" fill="#003a50"/><rect x="236.7" y="214.47" width="17.28" height="252.92" fill="#003a50"/><rect x="530.45" y="-16.74" width="38.77" height="96.07" fill="#003a50"/><rect x="534.45" y="53.43" width="44.33" height="25.9" fill="#003a50"/><rect x="530.45" y="348.32" width="36.02" height="93.26" fill="#003a50"/><rect x="530.11" y="169.23" width="48.68" height="92.03" fill="#003a50"/><rect x="165.24" y="114.17" width="50.48" height="6.38" fill="#003a50"/><rect x="62.48" y="114.17" width="65.7" height="6.38" fill="#003a50"/><rect x="62.48" y="150.67" width="39.24" height="6.38" fill="#003a50"/><rect x="96.86" y="117.36" width="6.38" height="82.4" fill="#003a50"/><rect x="315.25" y="174.81" width="10.41" height="6.38" fill="#003a50"/><rect x="212.52" y="114.17" width="6.38" height="100.79" fill="#003a50"/><rect x="51.67" y="-26.77" width="6.38" height="73.25" fill="#003a50"/><rect x="250.55" y="212.64" width="67.42" height="6.38" fill="#003a50"/><rect x="368.3" y="174.81" width="102.25" height="6.38" fill="#003a50"/><rect x="315.25" y="174.81" width="6.38" height="87.74" fill="#003a50"/><rect x="315.25" y="317.3" width="6.38" height="59.44" fill="#003a50"/><rect x="221.52" y="-34.19" width="6.38" height="40.24" fill="#003a50"/><rect x="193.97" y="-34.26" width="6.38" height="40.31" fill="#003a50"/><rect x="219.05" y="7.15" width="6.38" height="39.33" fill="#003a50"/><rect x="83.14" y="-21.2" width="6.38" height="58.66" fill="#003a50"/><line x1="217.72" y1="45.27" x2="217.72" y2="48.1" fill="none" stroke="#003a50" stroke-miterlimit="10"/><line x1="217.72" y1="53.34" x2="217.72" y2="113.59" fill="none" stroke="#003a50" stroke-miterlimit="10" stroke-dasharray="5.24 5.24"/><line x1="217.72" y1="116.21" x2="217.72" y2="119.05" fill="none" stroke="#003a50" stroke-miterlimit="10"/><rect x="209.34" y="251.98" width="6.38" height="176.75" fill="#003a50"/><rect x="83.59" y="245.91" width="6.38" height="121.57" fill="#003a50"/><rect x="84.22" y="245.91" width="131.33" height="6.38" fill="#003a50"/><rect x="58.39" y="364.29" width="31.58" height="6.38" fill="#003a50"/></g><g clip-path="url(#clip-path)"><path d="M307.22,282.7H301.4v-1.84h8.86v1.84l-4.53,2.65v.07H307a3.9,3.9,0,0,1,2.79,1,3.53,3.53,0,0,1,1.06,2.67,3.35,3.35,0,0,1-1.33,2.82,7,7,0,0,1-7.24,0,3.36,3.36,0,0,1-1.33-2.86v-.32h2.11v.32c0,1.37.94,2,2.84,2s2.84-.67,2.84-2-.95-2-2.84-2h-3.27v-1.67l4.58-2.68Z" fill="#003a50"/><path d="M313,292.64a1,1,0,0,1-.33-.81A1,1,0,0,1,313,291a1.44,1.44,0,0,1,1.73,0,1,1,0,0,1,.33.81,1,1,0,0,1-.33.81,1.44,1.44,0,0,1-1.73,0Z" fill="#003a50"/><path d="M318.86,283.42l-2.48,1.95v-2.24l2.73-2.27H321v11.91h-2.11Z" fill="#003a50"/><path d="M456.7,228.41l-2.48,2v-2.24l2.73-2.27h1.86v11.91H456.7Z" fill="#003a50"/><path d="M467.53,227.7h-5.82v-1.85h8.86v1.85L466,230.35v.06h1.28a3.87,3.87,0,0,1,2.79,1,3.49,3.49,0,0,1,1.06,2.66,3.35,3.35,0,0,1-1.33,2.83,7,7,0,0,1-7.24,0,3.36,3.36,0,0,1-1.33-2.86v-.32h2.11v.32c0,1.36.94,2,2.84,2s2.84-.67,2.84-2-.95-2-2.84-2H463v-1.67l4.58-2.68Z" fill="#003a50"/><path d="M473.27,237.63a1,1,0,0,1-.33-.8,1,1,0,0,1,.33-.81,1.23,1.23,0,0,1,.87-.3,1.2,1.2,0,0,1,.86.3,1,1,0,0,1,.33.81,1,1,0,0,1-.33.8,1.2,1.2,0,0,1-.86.3A1.23,1.23,0,0,1,473.27,237.63Z" fill="#003a50"/><path d="M479.17,228.41l-2.48,2v-2.24l2.73-2.27h1.86v11.91h-2.11Z" fill="#003a50"/><path d="M459.27,104.78l-2.48,2v-2.24l2.73-2.27h1.86v11.91h-2.11Z" fill="#003a50"/><path d="M472.57,113.37a7.71,7.71,0,0,1-7.36,0,2.93,2.93,0,0,1-1.37-2.56,2.69,2.69,0,0,1,.25-1.16,2.39,2.39,0,0,1,.66-.85,3.94,3.94,0,0,1,1.4-.78l.25-.06v-.1a2.7,2.7,0,0,1-.76-.29,2.88,2.88,0,0,1-.67-.44,2.2,2.2,0,0,1-.54-.75,2.57,2.57,0,0,1-.22-1,2.8,2.8,0,0,1,1.25-2.38,5.77,5.77,0,0,1,3.43-.9,5.84,5.84,0,0,1,3.43.9,2.8,2.8,0,0,1,1.24,2.38,2.43,2.43,0,0,1-.22,1,1.87,1.87,0,0,1-.55.74,3.77,3.77,0,0,1-1.2.69l-.22,0v.1a1.39,1.39,0,0,1,.28.06,5.42,5.42,0,0,1,.62.27,3.76,3.76,0,0,1,.78.51,2.69,2.69,0,0,1,.61.82,2.64,2.64,0,0,1,.28,1.19A3,3,0,0,1,472.57,113.37ZM466.79,112a3.79,3.79,0,0,0,2.1.48A3.89,3.89,0,0,0,471,112a1.59,1.59,0,0,0,0-2.69,4,4,0,0,0-2.1-.47,3.94,3.94,0,0,0-2.1.47,1.49,1.49,0,0,0-.74,1.35A1.5,1.5,0,0,0,466.79,112Zm-.37-6.52a1.36,1.36,0,0,0,.64,1.19,4.09,4.09,0,0,0,3.65,0,1.36,1.36,0,0,0,.64-1.19,1.38,1.38,0,0,0-.65-1.2,3.94,3.94,0,0,0-3.62,0A1.36,1.36,0,0,0,466.42,105.5Z" fill="#003a50"/><path d="M476,114a1,1,0,0,1-.32-.81,1.06,1.06,0,0,1,.32-.8,1.25,1.25,0,0,1,.88-.3,1.22,1.22,0,0,1,.86.3,1,1,0,0,1,.32.8,1,1,0,0,1-.32.81,1.22,1.22,0,0,1-.86.3A1.25,1.25,0,0,1,476,114Z" fill="#003a50"/><path d="M481.45,112.6a7.34,7.34,0,0,1,0-8.84,5.71,5.71,0,0,1,8.13,0,7.34,7.34,0,0,1,0,8.84,5.71,5.71,0,0,1-8.13,0Zm6.53-1.39a5.73,5.73,0,0,0,0-6.07,3.15,3.15,0,0,0-4.92,0,5.67,5.67,0,0,0,0,6.07,3.14,3.14,0,0,0,4.92,0Z" fill="#003a50"/><path d="M136.22,121.45H130.4v-1.84h8.86v1.84l-4.53,2.65v.07H136a3.86,3.86,0,0,1,2.79,1,3.49,3.49,0,0,1,1.06,2.66,3.33,3.33,0,0,1-1.33,2.83,7,7,0,0,1-7.24,0,3.36,3.36,0,0,1-1.33-2.86v-.32h2.11v.32c0,1.36,1,2,2.84,2s2.84-.67,2.84-2-.95-2-2.84-2h-3.26V124.2l4.57-2.68Z" fill="#003a50"/><path d="M142,131.38a1,1,0,0,1-.32-.8,1,1,0,0,1,.32-.81,1.23,1.23,0,0,1,.87-.3,1.2,1.2,0,0,1,.86.3,1,1,0,0,1,.33.81,1,1,0,0,1-.33.8,1.2,1.2,0,0,1-.86.3A1.23,1.23,0,0,1,142,131.38Z" fill="#003a50"/><path d="M155.58,123h-2.21s0-.06,0-.17a2.36,2.36,0,0,0-.21-.44,2.4,2.4,0,0,0-.39-.5,1.85,1.85,0,0,0-.71-.41,3,3,0,0,0-1-.16,2.49,2.49,0,0,0-2.15,1,4.39,4.39,0,0,0-.76,2.68h.05a1.8,1.8,0,0,1,.44-.43,3.58,3.58,0,0,1,1.56-.67,5.49,5.49,0,0,1,1.22-.13,5,5,0,0,1,3.37,1.11,3.51,3.51,0,0,1,1.3,2.8,3.57,3.57,0,0,1-1.36,2.91,5.55,5.55,0,0,1-3.6,1.1,4.81,4.81,0,0,1-3.87-1.54,6.38,6.38,0,0,1-1.32-4.27v-.41a6.85,6.85,0,0,1,1.32-4.31,4.52,4.52,0,0,1,3.8-1.71,5.66,5.66,0,0,1,2.13.37,3.83,3.83,0,0,1,1.43.94A3.46,3.46,0,0,1,155.58,123Zm-2.51,3.15a3.65,3.65,0,0,0-3.95,0,2,2,0,0,0,0,3.15,3.21,3.21,0,0,0,2,.59,3.26,3.26,0,0,0,2-.59,2,2,0,0,0,0-3.15Z" fill="#003a50"/><path d="M557.07,110a5.19,5.19,0,0,1-6.23,0,4,4,0,0,1,0-5.74,5.19,5.19,0,0,1,6.23,0,4,4,0,0,1,0,5.74Zm-1-4.61a4.08,4.08,0,0,0-4.29,0,2.23,2.23,0,0,0,0,3.47,4,4,0,0,0,4.29,0,2,2,0,0,0,.83-1.73A2.07,2.07,0,0,0,556.1,105.41Z" fill="#003a50"/><path d="M558.06,101.69a.71.71,0,0,1-.56.23.75.75,0,0,1-.57-.23.87.87,0,0,1-.21-.61.85.85,0,0,1,.21-.61.71.71,0,0,1,.57-.23.68.68,0,0,1,.56.23.82.82,0,0,1,.22.61A.83.83,0,0,1,558.06,101.69Z" fill="#003a50"/><path d="M552.12,92.08v1.56s0,0-.12,0a1.2,1.2,0,0,0-.31.15,1.91,1.91,0,0,0-.35.27,1.27,1.27,0,0,0-.29.5,2.09,2.09,0,0,0-.12.72,1.77,1.77,0,0,0,.73,1.51,3.11,3.11,0,0,0,1.89.54v0a1.11,1.11,0,0,1-.3-.31,2.73,2.73,0,0,1-.26-.43,3.14,3.14,0,0,1-.21-.67,4,4,0,0,1-.09-.86,3.57,3.57,0,0,1,.78-2.38,2.62,2.62,0,0,1,4,0,3.87,3.87,0,0,1,.78,2.54A3.41,3.41,0,0,1,557.19,98a4.51,4.51,0,0,1-3,.93h-.28a4.81,4.81,0,0,1-3-.93,3.18,3.18,0,0,1-1.21-2.68,4.06,4.06,0,0,1,.26-1.5,2.73,2.73,0,0,1,.66-1A2.48,2.48,0,0,1,552.12,92.08Zm2.22,1.77a2.58,2.58,0,0,0,0,2.79,1.33,1.33,0,0,0,1.12.55,1.31,1.31,0,0,0,1.1-.54,2.54,2.54,0,0,0,0-2.8,1.29,1.29,0,0,0-1.1-.55A1.33,1.33,0,0,0,554.34,93.85Z" fill="#003a50"/><path d="M557.07,333.87a5.19,5.19,0,0,1-6.23,0,3.63,3.63,0,0,1-1.2-2.88,3.59,3.59,0,0,1,1.2-2.86,5.19,5.19,0,0,1,6.23,0,3.56,3.56,0,0,1,1.21,2.86A3.6,3.6,0,0,1,557.07,333.87Zm-1-4.61a4,4,0,0,0-4.29,0,2.23,2.23,0,0,0,0,3.47,4,4,0,0,0,4.29,0,2.23,2.23,0,0,0,0-3.47Z" fill="#003a50"/><path d="M558.06,325.54a.71.71,0,0,1-.56.23.75.75,0,0,1-.57-.23,1,1,0,0,1,0-1.23.74.74,0,0,1,.57-.22.7.7,0,0,1,.56.22,1,1,0,0,1,0,1.23Z" fill="#003a50"/><path d="M552.12,315.93v1.56l-.12,0a1.2,1.2,0,0,0-.31.15,1.31,1.31,0,0,0-.35.27,1.2,1.2,0,0,0-.29.5,2,2,0,0,0-.12.71,1.79,1.79,0,0,0,.73,1.52,3.11,3.11,0,0,0,1.89.54v0a1.27,1.27,0,0,1-.3-.31,3.28,3.28,0,0,1-.26-.43,3.14,3.14,0,0,1-.21-.67,4.12,4.12,0,0,1-.09-.86,3.57,3.57,0,0,1,.78-2.38,2.49,2.49,0,0,1,2-.92,2.54,2.54,0,0,1,2,1,3.92,3.92,0,0,1,.78,2.55,3.41,3.41,0,0,1-1.09,2.73,4.51,4.51,0,0,1-3,.93h-.28a4.81,4.81,0,0,1-3-.93,3.18,3.18,0,0,1-1.21-2.69,4.14,4.14,0,0,1,.26-1.5,2.69,2.69,0,0,1,.66-1A2.48,2.48,0,0,1,552.12,315.93Zm2.22,1.77a2.58,2.58,0,0,0,0,2.79,1.33,1.33,0,0,0,1.12.55,1.29,1.29,0,0,0,1.1-.55,2.22,2.22,0,0,0,.42-1.4,2.26,2.26,0,0,0-.42-1.4,1.31,1.31,0,0,0-1.1-.54A1.33,1.33,0,0,0,554.34,317.7Z" fill="#003a50"/><path d="M88.24,90.55H86.13V87.9h-7V86.06l6.3-7.42h2.79v7.42h1.59V87.9H88.24Zm-2.11-4.49V80.73h-.07L81.59,86v0Z" fill="#003a50"/><path d="M91.52,90.42a1.17,1.17,0,0,1,0-1.61,1.41,1.41,0,0,1,1.74,0,1.17,1.17,0,0,1,0,1.61,1.41,1.41,0,0,1-1.74,0Z" fill="#003a50"/><path d="M105.14,82h-2.21s0-.07,0-.18a1.85,1.85,0,0,0-.21-.44,2.69,2.69,0,0,0-.39-.5,2,2,0,0,0-.71-.41,3,3,0,0,0-1-.16,2.51,2.51,0,0,0-2.15,1A4.41,4.41,0,0,0,97.66,84h.06a1.63,1.63,0,0,1,.44-.43,4.14,4.14,0,0,1,.6-.36,4.41,4.41,0,0,1,.95-.31,6.16,6.16,0,0,1,1.22-.13,5,5,0,0,1,3.37,1.12,3.5,3.5,0,0,1,1.3,2.8,3.56,3.56,0,0,1-1.36,2.9,5.49,5.49,0,0,1-3.6,1.11,4.81,4.81,0,0,1-3.87-1.55,6.36,6.36,0,0,1-1.32-4.27v-.4a6.83,6.83,0,0,1,1.32-4.31,4.52,4.52,0,0,1,3.8-1.71,5.66,5.66,0,0,1,2.13.37,3.71,3.71,0,0,1,1.43.94A3.44,3.44,0,0,1,105.14,82Zm-2.51,3.14a3.65,3.65,0,0,0-3.95,0,2,2,0,0,0,0,3.15,3.63,3.63,0,0,0,4,0,2,2,0,0,0,0-3.15Z" fill="#003a50"/></g></svg>