<svg id="Слой_1" data-name="Слой 1" xmlns="http://www.w3.org/2000/svg" xmlns:xlink="http://www.w3.org/1999/xlink" viewBox="0 0 581.1 382.68"><defs><clipPath id="clip-path"><polygon points="235.93 0.42 235.93 83.97 0 83.97 0 382.25 580.82 382.25 580.82 52.38 566.22 52.38 566.22 0.42 235.93 0.42" fill="none"/></clipPath></defs><rect x="66.21" y="377.76" width="498.4" height="4.49" fill="#fff"/><polygon points="245.69 9.32 245.69 98.36 67.26 98.36 67.26 369.39 566.05 369.39 566.05 177.5 566.05 125.69 566.05 9.32 245.69 9.32" fill="#fff"/><rect x="242.06" y="0.43" width="323.2" height="13.75" fill="#fff"/><g clip-path="url(#clip-path)"><rect x="-584.92" y="-1033.87" width="1162.95" height="2240.57" fill="none" stroke="#003a50" stroke-miterlimit="10"/><polygon points="-572.33 70.3 -572.33 1193.85 565.06 1193.85 565.06 -1020.92 -572.33 -1021.08 -572.33 -0.41 -572.33 70.3" fill="none" stroke="#003a50" stroke-miterlimit="10"/></g><rect x="540.74" y="80" width="4.56" height="85.42" fill="#fff"/><rect x="540.74" y="80" width="4.56" height="85.42" fill="none" stroke="#003a50" stroke-miterlimit="10"/><line x1="543.02" y1="80" x2="543.02" y2="165.41" fill="none" stroke="#003a50" stroke-miterlimit="10"/><rect x="540.74" y="80" width="4.56" height="4.55" fill="#fff"/><rect x="540.74" y="80" width="4.56" height="4.55" fill="none" stroke="#003a50" stroke-miterlimit="10"/><rect x="540.74" y="160.86" width="4.56" height="4.56" fill="#fff"/><rect x="540.74" y="160.86" width="4.56" height="4.56" fill="none" stroke="#003a50" stroke-miterlimit="10"/><rect x="540.74" y="120.31" width="4.56" height="4.56" fill="#fff"/><rect x="540.74" y="120.31" width="4.56" height="4.56" fill="none" stroke="#003a50" stroke-miterlimit="10"/><g clip-path="url(#clip-path)"><path d="M540.74,124.86h-2.9c-20.15,0-33.1,16.12-33.1,36h36" fill="none" stroke="#003a50" stroke-miterlimit="10"/></g><rect x="540.74" y="261.81" width="4.56" height="83.82" fill="#fff"/><rect x="540.74" y="261.81" width="4.56" height="83.82" fill="none" stroke="#003a50" stroke-miterlimit="10"/><line x1="543.02" y1="345.63" x2="543.02" y2="261.81" fill="none" stroke="#003a50" stroke-miterlimit="10"/><rect x="540.74" y="341.28" width="4.56" height="4.35" fill="#fff"/><rect x="540.74" y="341.28" width="4.56" height="4.35" fill="none" stroke="#003a50" stroke-miterlimit="10"/><rect x="540.74" y="261.81" width="4.56" height="4.34" fill="#fff"/><rect x="540.74" y="261.81" width="4.56" height="4.34" fill="none" stroke="#003a50" stroke-miterlimit="10"/><rect x="540.74" y="300.52" width="4.56" height="4.34" fill="#fff"/><rect x="540.74" y="300.52" width="4.56" height="4.34" fill="none" stroke="#003a50" stroke-miterlimit="10"/><g clip-path="url(#clip-path)"><path d="M540.74,300.52h-2.9c-20.15,0-33.1-15.38-33.1-34.37h36" fill="none" stroke="#003a50" stroke-miterlimit="10"/></g><rect x="102.13" y="97.51" width="43.96" height="95.52" fill="none" stroke="#003a50" stroke-miterlimit="10"/><g clip-path="url(#clip-path)"><rect x="107.71" y="101.72" width="33.22" height="87.39" rx="13.7" fill="none" stroke="#003a50" stroke-miterlimit="10"/><circle cx="124.23" cy="173.98" r="2.28" transform="translate(-26.26 22.15) rotate(-9.22)" fill="none" stroke="#003a50" stroke-miterlimit="10"/><path d="M162.64,164.45V193h23.07V164.45a11.54,11.54,0,1,0-23.07,0Z" fill="none" stroke="#003a50" stroke-miterlimit="10"/></g><rect x="162.64" y="181.93" width="23.08" height="11.08" fill="none" stroke="#003a50" stroke-miterlimit="10"/><g clip-path="url(#clip-path)"><path d="M158.73,240.32a3.16,3.16,0,0,0,2.9-1.95h1.79l4.73,2.83L166,244.69l-2.47-1.35v11h-10.3v-11l-2.46,1.35-2.15-3.49,4.77-2.83h2.39A3.21,3.21,0,0,0,158.73,240.32Z" fill="none" stroke="#003a50" stroke-miterlimit="10"/></g><rect x="142.61" y="230.65" width="31.57" height="30.9" fill="none" stroke="#003a50" stroke-miterlimit="10"/><g clip-path="url(#clip-path)"><rect x="253.49" y="-147.93" width="26.5" height="148.24" fill="none" stroke="#003a50" stroke-miterlimit="10"/><line x1="266.69" y1="-147.8" x2="266.69" y2="0.18" fill="none" stroke="#003a50" stroke-miterlimit="10"/><rect x="279.99" y="-26.18" width="34.54" height="26.5" fill="none" stroke="#003a50" stroke-miterlimit="10"/></g><rect x="269.58" y="331.63" width="34.02" height="34.02" fill="none" stroke="#003a50" stroke-miterlimit="10"/><g clip-path="url(#clip-path)"><path d="M299,356.25a4.64,4.64,0,1,1-4.64-4.64A4.64,4.64,0,0,1,299,356.25Z" fill="none" stroke="#003a50" stroke-miterlimit="10"/><path d="M283.51,356.25a4.64,4.64,0,1,1-4.63-4.64A4.63,4.63,0,0,1,283.51,356.25Z" fill="none" stroke="#003a50" stroke-miterlimit="10"/><path d="M299,341.16a4.64,4.64,0,1,1-4.64-4.64A4.64,4.64,0,0,1,299,341.16Z" fill="none" stroke="#003a50" stroke-miterlimit="10"/><path d="M283.51,341.16a4.64,4.64,0,1,1-4.63-4.64A4.63,4.63,0,0,1,283.51,341.16Z" fill="none" stroke="#003a50" stroke-miterlimit="10"/></g><rect x="427.61" y="186.83" width="102.05" height="17.01" fill="none" stroke="#003a50" stroke-miterlimit="10"/><polygon points="521.63 195.87 478.74 192.35 435.63 195.87 435.63 198.33 521.63 198.33 521.63 195.87" fill="none" stroke="#003a50" stroke-miterlimit="10"/><rect x="338.65" y="163.76" width="102.05" height="17.01" fill="none" stroke="#003a50" stroke-miterlimit="10"/><polygon points="346.67 171.72 389.57 175.25 432.67 171.72 432.67 169.27 346.67 169.27 346.67 171.72" fill="none" stroke="#003a50" stroke-miterlimit="10"/><g clip-path="url(#clip-path)"><rect x="354.62" y="381.83" width="175.03" height="17.01" fill="none" stroke="#003a50" stroke-miterlimit="10"/></g><rect x="213.4" y="331.5" width="152.36" height="34.28" fill="none" stroke="#003a50" stroke-miterlimit="10"/><g clip-path="url(#clip-path)"><path d="M322,245.9a1.26,1.26,0,0,1,.94,1.51,13.78,13.78,0,0,0,26.87,6.16,1.26,1.26,0,1,1,2.46.56,16.3,16.3,0,0,1-31.78-7.29A1.26,1.26,0,0,1,322,245.9Z" fill="none" stroke="#003a50" stroke-miterlimit="10"/><path d="M377.14,255.62a1.25,1.25,0,0,1,1.74-.34,13.79,13.79,0,1,0,15.53-22.78,1.26,1.26,0,0,1,1.41-2.08,16.3,16.3,0,1,1-18.35,26.94A1.24,1.24,0,0,1,377.14,255.62Z" fill="none" stroke="#003a50" stroke-miterlimit="10"/><path d="M379.64,208.21a1.26,1.26,0,0,1-1.33-1.18,13.78,13.78,0,1,0-27.52,1.63,1.26,1.26,0,0,1-2.52.15,16.3,16.3,0,1,1,32.55-1.93A1.26,1.26,0,0,1,379.64,208.21Z" fill="none" stroke="#003a50" stroke-miterlimit="10"/><path d="M336.16,262.51a12.69,12.69,0,0,1-12-15.48l2-8.88a3.53,3.53,0,0,1,4.24-2.68l13.44,3.08a23.73,23.73,0,0,0,6,9.44l-1,4.2C347.56,258.15,342.28,262.71,336.16,262.51Z" fill="none" stroke="#003a50" stroke-miterlimit="10"/><path d="M379,254l-2.32-1.6a23.81,23.81,0,0,0,13.64-21.32l2.52,1.72c5,3.44,7.4,10,5,15.64A12.7,12.7,0,0,1,379,254Z" fill="none" stroke="#003a50" stroke-miterlimit="10"/><path d="M352.12,211.71l-.12-2c-.36-6.12,3.4-12,9.32-13.48a12.66,12.66,0,0,1,15.88,11.48l.12,1.84a23.93,23.93,0,0,0-16.64-1.92A23.5,23.5,0,0,0,352.12,211.71Z" fill="none" stroke="#003a50" stroke-miterlimit="10"/><path d="M349.88,248a23.73,23.73,0,0,1-6-9.44,16.51,16.51,0,0,1-.6-2,23.85,23.85,0,0,1,8.84-24.84,23.5,23.5,0,0,1,8.56-4,23.87,23.87,0,0,1,28.92,17.4,22.12,22.12,0,0,1,.68,6,23.81,23.81,0,0,1-13.64,21.32,22.85,22.85,0,0,1-4.48,1.6A23.8,23.8,0,0,1,349.88,248Z" fill="none" stroke="#003a50" stroke-miterlimit="10"/></g><rect x="146.61" y="100.3" width="99.69" height="25.39" fill="none" stroke="#003a50" stroke-miterlimit="10"/><g clip-path="url(#clip-path)"><rect x="205.61" y="98.59" width="24.4" height="25.04" rx="2.83" fill="none" stroke="#003a50" stroke-miterlimit="10"/><circle cx="217.81" cy="111.11" r="1.91" fill="none" stroke="#003a50" stroke-miterlimit="10"/><rect x="162.88" y="98.59" width="24.4" height="25.04" rx="2.83" fill="none" stroke="#003a50" stroke-miterlimit="10"/><circle cx="175.08" cy="111.11" r="1.91" fill="none" stroke="#003a50" stroke-miterlimit="10"/></g><polyline points="225.8 362.61 232.59 362.61 239.38 362.61" fill="none" stroke="#003a50" stroke-miterlimit="10"/><line x1="232.61" y1="348.99" x2="232.61" y2="362.61" fill="none" stroke="#003a50" stroke-miterlimit="10"/><g clip-path="url(#clip-path)"><path d="M217.54,338.35v15.2a3.23,3.23,0,0,0,3.23,3.23h23.6a3.23,3.23,0,0,0,3.23-3.23v-15.2a3.24,3.24,0,0,0-3.23-3.24h-23.6A3.24,3.24,0,0,0,217.54,338.35Z" fill="none" stroke="#003a50" stroke-miterlimit="10"/><path d="M232.61,347.3a2.43,2.43,0,1,0,2.43,2.42A2.42,2.42,0,0,0,232.61,347.3Z" fill="none" stroke="#003a50" stroke-miterlimit="10"/></g><rect x="214.91" y="230.65" width="32.18" height="30.88" fill="none" stroke="#003a50" stroke-miterlimit="10"/><polygon points="91.82 261.66 91.65 199.5 67.02 199.5 67.19 261.66 91.82 261.66" fill="none" stroke="#003a50" stroke-miterlimit="10"/><g clip-path="url(#clip-path)"><path d="M87,234.83H68.43a2.71,2.71,0,0,0-2.72,2.71v17.94a2.71,2.71,0,0,0,2.72,2.7H87a2.71,2.71,0,0,0,2.71-2.7V237.54A2.71,2.71,0,0,0,87,234.83Z" fill="none" stroke="#003a50" stroke-miterlimit="10"/><circle cx="77.7" cy="246.5" r="1.83" transform="matrix(0.99, -0.16, 0.16, 0.99, -38.48, 15.63)" fill="none" stroke="#003a50" stroke-miterlimit="10"/><path d="M102.82,228.41V199.56h22.8v28.85a11.4,11.4,0,0,1-22.8,0Z" fill="none" stroke="#003a50" stroke-miterlimit="10"/></g><line x1="125.62" y1="210.78" x2="102.82" y2="210.78" fill="none" stroke="#003a50" stroke-miterlimit="10"/><rect x="179.35" y="331.49" width="34.02" height="34.02" fill="none" stroke="#003a50" stroke-miterlimit="10"/><line x1="196.36" y1="351.26" x2="196.36" y2="361.82" fill="none" stroke="#003a50" stroke-miterlimit="10"/><g clip-path="url(#clip-path)"><path d="M197.27,351.26h-1.82a3.4,3.4,0,0,1-3.4-3.4v-11.2h8.61v11.2A3.4,3.4,0,0,1,197.27,351.26Z" fill="none" stroke="#003a50" stroke-miterlimit="10"/></g><line x1="192.88" y1="361.81" x2="199.83" y2="361.81" fill="none" stroke="#003a50" stroke-miterlimit="10"/><rect x="331.47" y="331.49" width="34.02" height="34.02" fill="none" stroke="#003a50" stroke-miterlimit="10"/><line x1="338.5" y1="348.5" x2="358.46" y2="348.5" fill="none" stroke="#003a50" stroke-miterlimit="10"/><line x1="348.48" y1="358.48" x2="348.48" y2="338.52" fill="none" stroke="#003a50" stroke-miterlimit="10"/><line x1="341.42" y1="355.56" x2="355.53" y2="341.45" fill="none" stroke="#003a50" stroke-miterlimit="10"/><line x1="355.53" y1="355.56" x2="341.42" y2="341.45" fill="none" stroke="#003a50" stroke-miterlimit="10"/><rect x="142.86" y="199.53" width="103.82" height="31.12" fill="none" stroke="#003a50" stroke-miterlimit="10"/><g clip-path="url(#clip-path)"><path d="M158.52,203.94a.93.93,0,0,1,1.75-.41,26.36,26.36,0,0,1,0,23.12.93.93,0,0,1-1.23.42.92.92,0,0,1-.42-1.23,24.52,24.52,0,0,0,0-21.49A.86.86,0,0,1,158.52,203.94Z" fill="none" stroke="#003a50" stroke-miterlimit="10"/><path d="M163.62,203.94a.91.91,0,0,1,.51-.82.92.92,0,0,1,1.23.41,26.36,26.36,0,0,1,0,23.12.92.92,0,1,1-1.65-.81,24.43,24.43,0,0,0,0-21.49A.85.85,0,0,1,163.62,203.94Z" fill="none" stroke="#003a50" stroke-miterlimit="10"/><path d="M168.71,203.94a.91.91,0,0,1,.51-.82.92.92,0,0,1,1.23.41,26.36,26.36,0,0,1,0,23.12.92.92,0,1,1-1.65-.81,24.43,24.43,0,0,0,0-21.49A.85.85,0,0,1,168.71,203.94Z" fill="none" stroke="#003a50" stroke-miterlimit="10"/><path d="M173.8,203.94a.92.92,0,0,1,1.74-.41,26.36,26.36,0,0,1,0,23.12.91.91,0,1,1-1.64-.81,24.52,24.52,0,0,0,0-21.49A.86.86,0,0,1,173.8,203.94Z" fill="none" stroke="#003a50" stroke-miterlimit="10"/><path d="M178.89,203.94a.92.92,0,0,1,1.74-.41,26.36,26.36,0,0,1,0,23.12.91.91,0,1,1-1.64-.81,24.52,24.52,0,0,0,0-21.49A.86.86,0,0,1,178.89,203.94Z" fill="none" stroke="#003a50" stroke-miterlimit="10"/><path d="M184,203.94a.91.91,0,0,1,.51-.82.93.93,0,0,1,1.24.41,26.45,26.45,0,0,1,0,23.12.93.93,0,0,1-1.23.42.91.91,0,0,1-.42-1.23,24.52,24.52,0,0,0,0-21.49A.86.86,0,0,1,184,203.94Z" fill="none" stroke="#003a50" stroke-miterlimit="10"/><path d="M153.43,203.94a.91.91,0,0,1,.51-.82.93.93,0,0,1,1.24.41,26.45,26.45,0,0,1,0,23.12.93.93,0,0,1-1.23.42.91.91,0,0,1-.42-1.23,24.52,24.52,0,0,0,0-21.49A.86.86,0,0,1,153.43,203.94Z" fill="none" stroke="#003a50" stroke-miterlimit="10"/><path d="M148.34,203.94a.92.92,0,0,1,1.74-.41,26.36,26.36,0,0,1,0,23.12.91.91,0,1,1-1.64-.81,24.52,24.52,0,0,0,0-21.49A.86.86,0,0,1,148.34,203.94Z" fill="none" stroke="#003a50" stroke-miterlimit="10"/></g><line x1="142.86" y1="215.09" x2="246.69" y2="215.09" fill="none" stroke="#003a50" stroke-miterlimit="10"/><rect x="252.44" y="16.73" width="34.02" height="105.94" fill="none" stroke="#003a50" stroke-miterlimit="10"/><g clip-path="url(#clip-path)"><path d="M281.56,34.06a1,1,0,0,1,.9.56A1,1,0,0,1,282,36a28.77,28.77,0,0,1-25.26,0,1,1,0,0,1-.46-1.34,1,1,0,0,1,1.34-.46,26.81,26.81,0,0,0,23.49,0A1,1,0,0,1,281.56,34.06Z" fill="none" stroke="#003a50" stroke-miterlimit="10"/><path d="M281.56,39.63a1,1,0,0,1,.45,1.9,28.77,28.77,0,0,1-25.26,0,1,1,0,0,1,.88-1.8,26.72,26.72,0,0,0,23.49,0A1,1,0,0,1,281.56,39.63Z" fill="none" stroke="#003a50" stroke-miterlimit="10"/><path d="M281.56,45.19a1,1,0,0,1,.9.56A1,1,0,0,1,282,47.1a28.77,28.77,0,0,1-25.26,0,1,1,0,0,1-.46-1.34,1,1,0,0,1,1.34-.46,26.81,26.81,0,0,0,23.49,0A1,1,0,0,1,281.56,45.19Z" fill="none" stroke="#003a50" stroke-miterlimit="10"/><path d="M281.56,50.76a1,1,0,0,1,.45,1.9,28.77,28.77,0,0,1-25.26,0,1,1,0,0,1,.88-1.8,26.72,26.72,0,0,0,23.49,0A1,1,0,0,1,281.56,50.76Z" fill="none" stroke="#003a50" stroke-miterlimit="10"/><path d="M281.56,56.32a1,1,0,0,1,.9.56,1,1,0,0,1-.45,1.35,28.77,28.77,0,0,1-25.26,0,1,1,0,0,1-.46-1.34,1,1,0,0,1,1.34-.46,26.81,26.81,0,0,0,23.49,0A1,1,0,0,1,281.56,56.32Z" fill="none" stroke="#003a50" stroke-miterlimit="10"/><path d="M281.56,61.89a1,1,0,0,1,.45,1.9,28.77,28.77,0,0,1-25.26,0,1,1,0,0,1,.88-1.8,26.72,26.72,0,0,0,23.49,0A1,1,0,0,1,281.56,61.89Z" fill="none" stroke="#003a50" stroke-miterlimit="10"/><path d="M281.56,28.5a1,1,0,0,1,.45,1.9,28.77,28.77,0,0,1-25.26,0,1,1,0,1,1,.88-1.8,26.72,26.72,0,0,0,23.49,0A1,1,0,0,1,281.56,28.5Z" fill="none" stroke="#003a50" stroke-miterlimit="10"/><path d="M281.56,22.93a1,1,0,0,1,.9.56,1,1,0,0,1-.45,1.35,28.54,28.54,0,0,1-12.63,2.92,28.54,28.54,0,0,1-12.63-2.92,1,1,0,0,1-.46-1.34,1,1,0,0,1,1.34-.46,26.48,26.48,0,0,0,11.75,2.71A26.43,26.43,0,0,0,281.12,23,.9.9,0,0,1,281.56,22.93Z" fill="none" stroke="#003a50" stroke-miterlimit="10"/></g><line x1="269.38" y1="16.95" x2="269.38" y2="122.67" fill="none" stroke="#003a50" stroke-miterlimit="10"/><g clip-path="url(#clip-path)"><path d="M281.56,68.06a1,1,0,0,1,.9.56A1,1,0,0,1,282,70a28.77,28.77,0,0,1-25.26,0,1,1,0,0,1,.88-1.8,26.72,26.72,0,0,0,23.49,0A1,1,0,0,1,281.56,68.06Z" fill="none" stroke="#003a50" stroke-miterlimit="10"/><path d="M281.56,73.62a1,1,0,0,1,.9.56,1,1,0,0,1-.45,1.35,28.77,28.77,0,0,1-25.26,0,1,1,0,0,1-.46-1.34,1,1,0,0,1,1.34-.46,26.81,26.81,0,0,0,23.49,0A.9.9,0,0,1,281.56,73.62Z" fill="none" stroke="#003a50" stroke-miterlimit="10"/><path d="M281.56,79.19a1,1,0,0,1,.45,1.9,28.77,28.77,0,0,1-25.26,0,1,1,0,0,1,.88-1.8,26.72,26.72,0,0,0,23.49,0A1,1,0,0,1,281.56,79.19Z" fill="none" stroke="#003a50" stroke-miterlimit="10"/><path d="M469.34,318.83v41H423.57V316.62h43.55A2.21,2.21,0,0,1,469.34,318.83Z" fill="none" stroke="#003a50" stroke-miterlimit="10"/><path d="M515.21,318.61v41.26H469.44V318.61a2,2,0,0,1,2-2h41.8A2,2,0,0,1,515.21,318.61Z" fill="none" stroke="#003a50" stroke-miterlimit="10"/><path d="M423.57,316.62a3.1,3.1,0,0,0-3.33-2.82H416a3.1,3.1,0,0,0-3.33,2.82v48.2H526.08V317.05a3.11,3.11,0,0,0-3.33-2.83h-4.22a3.1,3.1,0,0,0-3.32,2.83v42.82H423.57Z" fill="none" stroke="#003a50" stroke-miterlimit="10"/></g><rect x="423.57" y="350.61" width="91.64" height="9.25" fill="none" stroke="#003a50" stroke-miterlimit="10"/><rect x="445.38" y="16.79" width="22.68" height="22.68" fill="none" stroke="#003a50" stroke-miterlimit="10"/><g clip-path="url(#clip-path)"><path d="M463.22,34.62a9.19,9.19,0,1,1,0-13A9.17,9.17,0,0,1,463.22,34.62Z" fill="none" stroke="#003a50" stroke-miterlimit="10"/><path d="M463.85,33.93c-1.7-.17-3.41.49-5.07-1.17-2.44-2.44.15-5-2.3-7.45s-5,.13-7.45-2.3" fill="none" stroke="#003a50" stroke-miterlimit="10"/></g><rect x="311.28" y="16.79" width="22.68" height="22.68" fill="none" stroke="#003a50" stroke-miterlimit="10"/><g clip-path="url(#clip-path)"><path d="M329.13,34.62a9.2,9.2,0,1,1,0-13A9.19,9.19,0,0,1,329.13,34.62Z" fill="none" stroke="#003a50" stroke-miterlimit="10"/><path d="M329.75,33.93c-1.7-.17-3.41.49-5.06-1.17-2.44-2.44.14-5-2.3-7.45s-5,.13-7.46-2.3" fill="none" stroke="#003a50" stroke-miterlimit="10"/></g><rect x="338.76" y="16.79" width="102.05" height="113.39" fill="none" stroke="#003a50" stroke-miterlimit="10"/><g clip-path="url(#clip-path)"><path d="M430.81,120.43H348.76a2.09,2.09,0,0,1-2.09-2.08V50.71h86.22v67.64A2.08,2.08,0,0,1,430.81,120.43Z" fill="none" stroke="#003a50" stroke-miterlimit="10"/><rect x="346.42" y="24.22" width="42.5" height="22.88" rx="1.98" fill="none" stroke="#003a50" stroke-miterlimit="10"/><rect x="390.65" y="24.22" width="42.5" height="22.88" rx="1.98" fill="none" stroke="#003a50" stroke-miterlimit="10"/></g><line x1="433.15" y1="64.56" x2="346.42" y2="64.56" fill="none" stroke="#003a50" stroke-miterlimit="10"/><g clip-path="url(#clip-path)"><rect x="366.72" y="-22.71" width="22.68" height="22.68" fill="none" stroke="#003a50" stroke-miterlimit="10"/><rect x="393.97" y="-113.43" width="102.05" height="113.39" fill="none" stroke="#003a50" stroke-miterlimit="10"/><path d="M243,250.87a1,1,0,0,1,.9.56,1,1,0,0,1-.46,1.34,28.77,28.77,0,0,1-25.26,0,1,1,0,0,1,.88-1.8,26.74,26.74,0,0,0,23.5,0A1,1,0,0,1,243,250.87Z" fill="none" stroke="#003a50" stroke-miterlimit="10"/><path d="M243,245.3a1,1,0,0,1,.44,1.91,28.77,28.77,0,0,1-25.26,0,1,1,0,0,1-.46-1.34,1,1,0,0,1,1.34-.46,26.83,26.83,0,0,0,23.5,0A1,1,0,0,1,243,245.3Z" fill="none" stroke="#003a50" stroke-miterlimit="10"/><path d="M243,239.74a1,1,0,0,1,.9.56,1,1,0,0,1-.46,1.34,28.77,28.77,0,0,1-25.26,0,1,1,0,0,1,.88-1.8,26.74,26.74,0,0,0,23.5,0A1,1,0,0,1,243,239.74Z" fill="none" stroke="#003a50" stroke-miterlimit="10"/></g><line x1="230.85" y1="230.91" x2="230.85" y2="261.33" fill="none" stroke="#003a50" stroke-miterlimit="10"/><g clip-path="url(#clip-path)"><rect x="207.03" y="381.83" width="147.59" height="34.02" fill="none" stroke="#003a50" stroke-miterlimit="10"/></g><rect x="67.19" y="331.63" width="105.88" height="33.88" fill="none" stroke="#003a50" stroke-miterlimit="10"/><g clip-path="url(#clip-path)"><path d="M83.16,336.43a1,1,0,0,1,.53-.89.9.9,0,0,1,1.25.45,30.45,30.45,0,0,1,0,25.16.91.91,0,0,1-1.25.46,1,1,0,0,1-.43-1.34,28.32,28.32,0,0,0,0-23.4A1,1,0,0,1,83.16,336.43Z" fill="none" stroke="#003a50" stroke-miterlimit="10"/><path d="M88.35,336.43a1,1,0,0,1,.53-.89.9.9,0,0,1,1.25.45,30.45,30.45,0,0,1,0,25.16.91.91,0,0,1-1.25.46,1,1,0,0,1-.43-1.34,28.22,28.22,0,0,0,0-23.4A1,1,0,0,1,88.35,336.43Z" fill="none" stroke="#003a50" stroke-miterlimit="10"/><path d="M93.55,336.43a1,1,0,0,1,.52-.89.9.9,0,0,1,1.25.45,30.35,30.35,0,0,1,0,25.16.91.91,0,0,1-1.25.46,1,1,0,0,1-.43-1.34,28.22,28.22,0,0,0,0-23.4A1,1,0,0,1,93.55,336.43Z" fill="none" stroke="#003a50" stroke-miterlimit="10"/><path d="M98.74,336.43a1,1,0,0,1,.52-.89.91.91,0,0,1,1.26.45,30.45,30.45,0,0,1,0,25.16.91.91,0,0,1-1.25.46,1,1,0,0,1-.43-1.34,28.32,28.32,0,0,0,0-23.4A1,1,0,0,1,98.74,336.43Z" fill="none" stroke="#003a50" stroke-miterlimit="10"/><path d="M103.93,336.43a1,1,0,0,1,.53-.89.9.9,0,0,1,1.25.45,30.45,30.45,0,0,1,0,25.16.91.91,0,0,1-1.25.46,1,1,0,0,1-.43-1.34,28.32,28.32,0,0,0,0-23.4A1,1,0,0,1,103.93,336.43Z" fill="none" stroke="#003a50" stroke-miterlimit="10"/><path d="M109.12,336.43a1,1,0,0,1,.53-.89.9.9,0,0,1,1.25.45,30.45,30.45,0,0,1,0,25.16.91.91,0,0,1-1.25.46,1,1,0,0,1-.43-1.34,28.22,28.22,0,0,0,0-23.4A1,1,0,0,1,109.12,336.43Z" fill="none" stroke="#003a50" stroke-miterlimit="10"/><path d="M78,336.43a1,1,0,0,1,.52-.89.9.9,0,0,1,1.25.45,30.35,30.35,0,0,1,0,25.16.9.9,0,0,1-1.24.46,1,1,0,0,1-.44-1.34,28.22,28.22,0,0,0,0-23.4A1.12,1.12,0,0,1,78,336.43Z" fill="none" stroke="#003a50" stroke-miterlimit="10"/><path d="M72.78,336.43a1,1,0,0,1,.52-.89.9.9,0,0,1,1.25.45,30.35,30.35,0,0,1,0,25.16.91.91,0,0,1-1.25.46,1,1,0,0,1-.43-1.34,28.22,28.22,0,0,0,0-23.4A1,1,0,0,1,72.78,336.43Z" fill="none" stroke="#003a50" stroke-miterlimit="10"/></g><line x1="67.19" y1="348.57" x2="173.07" y2="348.57" fill="none" stroke="#003a50" stroke-miterlimit="10"/><g clip-path="url(#clip-path)"><rect x="67.19" y="381.89" width="133.47" height="33.88" fill="none" stroke="#003a50" stroke-miterlimit="10"/><path d="M134.08,264.3v3.08a38.71,38.71,0,0,1-38.71,38.71V264.3" fill="none" stroke="#003a50" stroke-miterlimit="10" stroke-width="1.6"/><path d="M302,183.2v3.38a42.58,42.58,0,0,1-42.58,42.59v-46" fill="none" stroke="#003a50" stroke-miterlimit="10" stroke-width="1.6"/><path d="M248.55,133.55h3.08a38.71,38.71,0,0,1,38.71,38.71H248.55" fill="none" stroke="#003a50" stroke-miterlimit="10" stroke-width="1.6"/><path d="M56.65,274.08H52.59A51.13,51.13,0,0,0,1.46,325.21H56.65" fill="none" stroke="#003a50" stroke-miterlimit="10" stroke-width="1.6"/><path d="M56.65,8.56H52.59A51.13,51.13,0,0,0,1.46,59.69H56.65" fill="none" stroke="#003a50" stroke-miterlimit="10" stroke-width="1.6"/><rect x="50.87" y="97.79" width="16.32" height="176.83" fill="#003a50"/><rect x="50.87" y="324.26" width="16.32" height="98.25" fill="#003a50"/><rect x="63.35" y="365.49" width="474.34" height="16.32" fill="#003a50"/><rect x="50.87" y="-165.75" width="10.82" height="175.07" fill="#003a50"/><rect x="50.87" y="58.24" width="10.82" height="37.76" fill="#003a50"/><rect x="245.69" y="0.25" width="287.97" height="16.26" fill="#003a50"/><rect x="50.88" y="83.91" width="201.28" height="16.26" fill="#003a50"/><rect x="235.9" y="-152.76" width="17.28" height="252.92" fill="#003a50"/><rect x="529.66" y="-18.91" width="36.02" height="93.26" fill="#003a50"/><rect x="529.66" y="52.32" width="48.33" height="27.5" fill="#003a50"/><rect x="529.66" y="165.63" width="48.33" height="95.7" fill="#003a50"/><rect x="529.66" y="345.68" width="35.6" height="96.07" fill="#003a50"/><rect x="133.07" y="261.55" width="44.36" height="6.38" fill="#003a50"/><rect x="200.66" y="377.68" width="6.38" height="38.4" fill="#003a50"/><rect x="173.07" y="331.64" width="6.38" height="40.91" fill="#003a50"/><rect x="152.06" y="344.32" width="24.71" height="6.38" fill="#003a50"/><rect x="152.06" y="344.32" width="6.38" height="26.75" fill="#003a50"/><rect x="178.6" y="377.76" width="6.38" height="26.75" fill="#003a50"/><rect x="63.09" y="193.05" width="187.46" height="6.38" fill="#003a50"/><rect x="136.23" y="198.24" width="6.38" height="65.34" fill="#003a50"/><rect x="214.59" y="261.55" width="35.96" height="6.38" fill="#003a50"/><rect x="56.65" y="261.55" width="39.55" height="6.38" fill="#003a50"/><rect x="246.81" y="83.91" width="6.38" height="50.48" fill="#003a50"/><rect x="96.2" y="96" width="6.38" height="97.9" fill="#003a50"/><rect x="63.09" y="156.43" width="37.83" height="6.38" fill="#003a50"/><rect x="246.81" y="171.43" width="6.38" height="96.49" fill="#003a50"/><rect x="314.46" y="-49.93" width="6.38" height="59.44" fill="#003a50"/><rect x="301.17" y="180.46" width="228.49" height="6.38" fill="#003a50"/><rect x="248.92" y="180.45" width="11.25" height="6.38" fill="#003a50"/><line x1="177.42" y1="267.93" x2="177.42" y2="270.76" fill="none" stroke="#003a50" stroke-miterlimit="10"/><line x1="177.42" y1="276.13" x2="177.42" y2="327.17" fill="none" stroke="#003a50" stroke-miterlimit="10" stroke-dasharray="5.37 5.37"/><line x1="177.42" y1="329.86" x2="177.42" y2="332.7" fill="none" stroke="#003a50" stroke-miterlimit="10"/><rect x="208.54" y="-115.25" width="6.38" height="176.75" fill="#003a50"/><rect x="82.8" y="-121.32" width="6.38" height="121.57" fill="#003a50"/><rect x="57.59" y="61.5" width="157.33" height="6.38" fill="#003a50"/><rect x="57.59" y="-2.94" width="31.58" height="6.38" fill="#003a50"/></g><g clip-path="url(#clip-path)"><path d="M459,290.33l-2.49,1.95V290l2.74-2.27h1.86v11.91H459Z" fill="#003a50"/><path d="M463.9,296.34h2.2s0,.07,0,.17a2,2,0,0,0,.22.44,2.13,2.13,0,0,0,.42.48,2,2,0,0,0,.75.42,3.21,3.21,0,0,0,1,.16,2.66,2.66,0,0,0,2.24-1.06,4.32,4.32,0,0,0,.8-2.71h-.05a2.27,2.27,0,0,1-.44.47,3.3,3.3,0,0,1-.6.4,4.36,4.36,0,0,1-1,.32,5.58,5.58,0,0,1-1.23.13,4.92,4.92,0,0,1-3.36-1.13,3.73,3.73,0,0,1,.05-5.72,5.49,5.49,0,0,1,3.6-1.1,4.81,4.81,0,0,1,3.87,1.54,6.4,6.4,0,0,1,1.32,4.27v.41a6.64,6.64,0,0,1-1.37,4.31,4.69,4.69,0,0,1-3.88,1.71,5.91,5.91,0,0,1-2.17-.38,3.85,3.85,0,0,1-1.48-.94A3.31,3.31,0,0,1,463.9,296.34Zm2.77-3.17a3.58,3.58,0,0,0,3.94,0,1.86,1.86,0,0,0,.78-1.57,1.88,1.88,0,0,0-.77-1.58,3.27,3.27,0,0,0-2-.58,3.23,3.23,0,0,0-2,.58,1.88,1.88,0,0,0-.78,1.58A1.84,1.84,0,0,0,466.67,293.17Z" fill="#003a50"/><path d="M476,299.55a1,1,0,0,1-.33-.81,1,1,0,0,1,.33-.8,1.23,1.23,0,0,1,.87-.3,1.2,1.2,0,0,1,.86.3,1,1,0,0,1,.33.8,1,1,0,0,1-.33.81,1.2,1.2,0,0,1-.86.3A1.23,1.23,0,0,1,476,299.55Z" fill="#003a50"/><path d="M488.36,299.68h-2.11V297h-7v-1.84l6.29-7.42h2.79v7.42H490V297h-1.6Zm-2.11-4.49v-5.32h-.07l-4.47,5.27v.05Z" fill="#003a50"/><path d="M192.69,256.14h-9.93v-1.56a2.74,2.74,0,0,1,.58-1.74,4,4,0,0,1,1.44-1.2c.5-.25,1.12-.54,1.87-.86s1.33-.56,1.88-.77a4.24,4.24,0,0,0,1.44-.92,1.77,1.77,0,0,0,.58-1.3q0-1.89-2.67-1.89t-2.67,2.16v.41H183.1v-.41a3.62,3.62,0,0,1,1.26-3,5.38,5.38,0,0,1,3.51-1,5.66,5.66,0,0,1,3.52,1,3.3,3.3,0,0,1,1.27,2.75,3.14,3.14,0,0,1-.56,1.83,4.39,4.39,0,0,1-1.4,1.31c-.6.34-1.21.65-1.84.93s-1.23.52-1.83.74a5.26,5.26,0,0,0-1.4.75,1.21,1.21,0,0,0-.56,1h7.62Z" fill="#003a50"/><path d="M194.79,256a1,1,0,0,1-.32-.81,1.06,1.06,0,0,1,.32-.8,1.41,1.41,0,0,1,1.74,0,1.06,1.06,0,0,1,.32.8,1,1,0,0,1-.32.81,1.41,1.41,0,0,1-1.74,0Z" fill="#003a50"/><path d="M208.57,256.14h-9.93v-1.56a2.74,2.74,0,0,1,.58-1.74,4,4,0,0,1,1.44-1.2c.5-.25,1.12-.54,1.87-.86s1.32-.56,1.88-.77a4.24,4.24,0,0,0,1.44-.92,1.81,1.81,0,0,0,.58-1.3q0-1.89-2.67-1.89t-2.67,2.16v.41H199v-.41a3.62,3.62,0,0,1,1.26-3,5.36,5.36,0,0,1,3.51-1,5.61,5.61,0,0,1,3.51,1,3.28,3.28,0,0,1,1.28,2.75,3.14,3.14,0,0,1-.56,1.83,4.39,4.39,0,0,1-1.4,1.31c-.6.34-1.21.65-1.84.93s-1.24.52-1.83.74a5.26,5.26,0,0,0-1.4.75,1.22,1.22,0,0,0-.57,1h7.63Z" fill="#003a50"/><path d="M150.12,289.62H144.3v-1.85h8.86v1.85l-4.52,2.65v.06h1.27a3.91,3.91,0,0,1,2.8,1,3.52,3.52,0,0,1,1,2.67,3.34,3.34,0,0,1-1.33,2.83,7,7,0,0,1-7.24,0,3.37,3.37,0,0,1-1.33-2.86v-.33H146V296c0,1.36.95,2,2.84,2s2.84-.66,2.84-2-1-2-2.84-2h-3.26v-1.66l4.57-2.69Z" fill="#003a50"/><path d="M155.86,299.55a1,1,0,0,1-.32-.81,1,1,0,0,1,.32-.8,1.41,1.41,0,0,1,1.74,0,1.06,1.06,0,0,1,.32.8,1,1,0,0,1-.32.81,1.41,1.41,0,0,1-1.74,0Z" fill="#003a50"/><path d="M165.15,291.7a5,5,0,0,1,3.33,1.06,4.17,4.17,0,0,1,0,6,5.38,5.38,0,0,1-3.54,1.08,5.87,5.87,0,0,1-3.57-1,3.19,3.19,0,0,1-1.28-2.69h2.11a1.54,1.54,0,0,0,.7,1.34,3.6,3.6,0,0,0,2,.48,3.17,3.17,0,0,0,2-.57,2.36,2.36,0,0,0,0-3.39,3.25,3.25,0,0,0-2.07-.58,3.6,3.6,0,0,0-1.92.42,2,2,0,0,0-.69.63l-.05.13h-2.11v-6.88h8.87v1.85h-6.76v2.95h.05a2.2,2.2,0,0,1,.39-.3,3.11,3.11,0,0,1,.55-.27A5.66,5.66,0,0,1,165.15,291.7Z" fill="#003a50"/><path d="M105.63,250.19l-2.48,1.95V249.9l2.73-2.27h1.86v11.91h-2.11Z" fill="#003a50"/><path d="M110.26,259.41a1,1,0,0,1-.32-.81,1.06,1.06,0,0,1,.32-.8,1.41,1.41,0,0,1,1.74,0,1.06,1.06,0,0,1,.32.8,1,1,0,0,1-.32.81,1.41,1.41,0,0,1-1.74,0Z" fill="#003a50"/><path d="M119.55,251.56a5,5,0,0,1,3.33,1.07,4.16,4.16,0,0,1,0,6,5.38,5.38,0,0,1-3.54,1.08,5.8,5.8,0,0,1-3.57-1,3.18,3.18,0,0,1-1.28-2.69h2.11a1.54,1.54,0,0,0,.7,1.34,3.62,3.62,0,0,0,2,.48,3.17,3.17,0,0,0,2-.57,2,2,0,0,0,.7-1.68,2.06,2.06,0,0,0-.74-1.71,3.31,3.31,0,0,0-2.07-.58,3.6,3.6,0,0,0-1.92.42,1.87,1.87,0,0,0-.69.64l0,.12h-2.11v-6.88h8.88v1.85h-6.77v3h0a2,2,0,0,1,.4-.3,3,3,0,0,1,.54-.27A5.66,5.66,0,0,1,119.55,251.56Z" fill="#003a50"/><path d="M184.56,146.54h-2.11v-2.65h-7v-1.84l6.29-7.42h2.79v7.42h1.6v1.84h-1.6Zm-2.11-4.49v-5.32h-.07L177.91,142v.05Z" fill="#003a50"/><path d="M187.84,146.41a1,1,0,0,1-.32-.81,1,1,0,0,1,.32-.8,1.41,1.41,0,0,1,1.74,0,1.06,1.06,0,0,1,.32.8,1,1,0,0,1-.32.81,1.41,1.41,0,0,1-1.74,0Z" fill="#003a50"/><path d="M197.13,138.56a5,5,0,0,1,3.33,1.06,4.17,4.17,0,0,1,0,6,5.38,5.38,0,0,1-3.54,1.08,5.87,5.87,0,0,1-3.57-1,3.19,3.19,0,0,1-1.28-2.69h2.11a1.54,1.54,0,0,0,.7,1.34,3.6,3.6,0,0,0,2,.48,3.17,3.17,0,0,0,2-.57,2.36,2.36,0,0,0,0-3.39,3.25,3.25,0,0,0-2.07-.58,3.7,3.7,0,0,0-1.92.41,2.05,2.05,0,0,0-.69.64l-.05.13H192v-6.88h8.87v1.85h-6.76v3h.05a2.2,2.2,0,0,1,.39-.3,3.11,3.11,0,0,1,.55-.27A5.66,5.66,0,0,1,197.13,138.56Z" fill="#003a50"/><path d="M456.5,137.19,454,139.14V136.9l2.73-2.27h1.86v11.91H456.5Z" fill="#003a50"/><path d="M466.51,138.56a5.06,5.06,0,0,1,3.34,1.06,4.19,4.19,0,0,1,0,6,5.39,5.39,0,0,1-3.55,1.08,5.84,5.84,0,0,1-3.56-1,3.18,3.18,0,0,1-1.29-2.69h2.11a1.54,1.54,0,0,0,.7,1.34,3.62,3.62,0,0,0,2,.48,3.15,3.15,0,0,0,2-.57,2.37,2.37,0,0,0,0-3.39,3.25,3.25,0,0,0-2.07-.58,3.68,3.68,0,0,0-1.92.41,2,2,0,0,0-.7.64l-.05.13h-2.11v-6.88h8.88v1.85h-6.77v3h.05a2.31,2.31,0,0,1,.4-.3,3.11,3.11,0,0,1,.55-.27A5.6,5.6,0,0,1,466.51,138.56Z" fill="#003a50"/><path d="M473.21,146.41a1,1,0,0,1-.32-.81,1.06,1.06,0,0,1,.32-.8,1.41,1.41,0,0,1,1.74,0,1.06,1.06,0,0,1,.32.8,1,1,0,0,1-.32.81,1.41,1.41,0,0,1-1.74,0Z" fill="#003a50"/><path d="M486.83,138h-2.21s0-.07,0-.18a2.05,2.05,0,0,0-.21-.44,2.34,2.34,0,0,0-.39-.49,1.78,1.78,0,0,0-.71-.42,3.19,3.19,0,0,0-1-.16,2.53,2.53,0,0,0-2.15,1,4.41,4.41,0,0,0-.76,2.68h.06a1.63,1.63,0,0,1,.44-.43,4.76,4.76,0,0,1,.6-.36,4.41,4.41,0,0,1,.95-.31,6.23,6.23,0,0,1,1.22-.12A5,5,0,0,1,486,139.9a3.51,3.51,0,0,1,1.31,2.8,3.57,3.57,0,0,1-1.37,2.9,5.49,5.49,0,0,1-3.6,1.11,4.81,4.81,0,0,1-3.87-1.55,6.36,6.36,0,0,1-1.32-4.27v-.4a6.83,6.83,0,0,1,1.32-4.31,4.52,4.52,0,0,1,3.8-1.71,5.66,5.66,0,0,1,2.13.37,3.84,3.84,0,0,1,1.44.94A3.43,3.43,0,0,1,486.83,138Zm-2.51,3.15a3.6,3.6,0,0,0-3.95,0,2,2,0,0,0,0,3.14,3.63,3.63,0,0,0,4,0,2,2,0,0,0,0-3.14Z" fill="#003a50"/><path d="M556.28,108.68a5.19,5.19,0,0,1-6.23,0,4,4,0,0,1,0-5.74,5.19,5.19,0,0,1,6.23,0,4,4,0,0,1,0,5.74Zm-1-4.61a4.06,4.06,0,0,0-4.28,0,2,2,0,0,0-.83,1.74,2,2,0,0,0,.83,1.73,4,4,0,0,0,4.28,0,2,2,0,0,0,.84-1.73A2.05,2.05,0,0,0,555.3,104.07Z" fill="#003a50"/><path d="M557.27,100.35a.69.69,0,0,1-.57.23.71.71,0,0,1-.57-.23,1,1,0,0,1,0-1.22.75.75,0,0,1,.57-.23.72.72,0,0,1,.57.23,1,1,0,0,1,0,1.22Z" fill="#003a50"/><path d="M551.33,90.74V92.3a.34.34,0,0,0-.12,0,1.42,1.42,0,0,0-.31.15,2.42,2.42,0,0,0-.36.27,1.52,1.52,0,0,0-.29.51,2.25,2.25,0,0,0-.11.71,1.75,1.75,0,0,0,.73,1.51,3.09,3.09,0,0,0,1.89.54v0a1.27,1.27,0,0,1-.31-.31,2.67,2.67,0,0,1-.25-.43,2.5,2.5,0,0,1-.22-.67,4,4,0,0,1-.09-.85,3.51,3.51,0,0,1,.79-2.38,2.44,2.44,0,0,1,2-.92,2.51,2.51,0,0,1,2.05,1,3.87,3.87,0,0,1,.78,2.54,3.38,3.38,0,0,1-1.09,2.73,4.48,4.48,0,0,1-3,.93h-.29a4.85,4.85,0,0,1-3-.93A3.19,3.19,0,0,1,548.84,94a3.86,3.86,0,0,1,.27-1.5,2.73,2.73,0,0,1,.66-1A2.44,2.44,0,0,1,551.33,90.74Zm2.22,1.77a2.32,2.32,0,0,0-.41,1.4,2.27,2.27,0,0,0,.41,1.39,1.3,1.3,0,0,0,1.11.55,1.31,1.31,0,0,0,1.11-.54,2.54,2.54,0,0,0,0-2.8,1.3,1.3,0,0,0-1.11-.55A1.32,1.32,0,0,0,553.55,92.51Z" fill="#003a50"/><path d="M556.28,290.19a5.15,5.15,0,0,1-6.23,0,4,4,0,0,1,0-5.73,5.15,5.15,0,0,1,6.23,0,4,4,0,0,1,0,5.73Zm-1-4.6a3.48,3.48,0,0,0-2.14-.62,3.52,3.52,0,0,0-2.14.62,2.23,2.23,0,0,0,0,3.47,4,4,0,0,0,4.28,0,2.21,2.21,0,0,0,0-3.47Z" fill="#003a50"/><path d="M557.27,281.87a.72.72,0,0,1-.57.23.76.76,0,0,1-.57-.23,1,1,0,0,1,0-1.23.76.76,0,0,1,.57-.23.72.72,0,0,1,.57.23,1,1,0,0,1,0,1.23Z" fill="#003a50"/><path d="M551.33,272.26v1.56l-.12,0a1.85,1.85,0,0,0-.31.16,1.54,1.54,0,0,0-.36.27,1.46,1.46,0,0,0-.29.5,2.3,2.3,0,0,0-.11.71,1.76,1.76,0,0,0,.73,1.52,3.11,3.11,0,0,0,1.89.54v0a1.27,1.27,0,0,1-.3-.31,2.46,2.46,0,0,1-.26-.43,3.09,3.09,0,0,1-.22-.67,4.12,4.12,0,0,1-.09-.86,3.53,3.53,0,0,1,.79-2.38,2.62,2.62,0,0,1,4,0,3.91,3.91,0,0,1,.78,2.54,3.38,3.38,0,0,1-1.09,2.73,4.43,4.43,0,0,1-3,.94h-.29a4.79,4.79,0,0,1-3-.94,3.18,3.18,0,0,1-1.2-2.68,3.93,3.93,0,0,1,.26-1.5,2.61,2.61,0,0,1,.66-1A2.39,2.39,0,0,1,551.33,272.26Zm2.22,1.77a2.27,2.27,0,0,0-.41,1.39,2.32,2.32,0,0,0,.41,1.4,1.33,1.33,0,0,0,1.11.55,1.3,1.3,0,0,0,1.11-.55,2.22,2.22,0,0,0,.42-1.4,2.26,2.26,0,0,0-.42-1.4,1.4,1.4,0,0,0-2.22,0Z" fill="#003a50"/></g></svg>