<svg id="Слой_1" data-name="Слой 1" xmlns="http://www.w3.org/2000/svg" xmlns:xlink="http://www.w3.org/1999/xlink" viewBox="0 0 581.1 365.67"><defs><clipPath id="clip-path"><polygon points="0 0.14 0 316.91 15.65 316.91 15.65 365.53 581.1 365.53 581.1 66.41 288.4 66.41 288.4 0.14 0 0.14" fill="none"/></clipPath></defs><path d="M296.12,66.41,511.94,73l11.78-3V66.41ZM50.31.14v1.7H285.63V66.09l2.77.08V.14Z" fill="#fff"/><polygon points="50.31 0.54 50.31 357.35 222.37 357.35 286.49 357.35 490.16 357.35 490.16 358.32 527.35 358.32 527.35 253.82 513.29 242.75 513.29 193.44 513.06 67.44 287.56 67.44 287.56 0.54 50.31 0.54" fill="#fff"/><g clip-path="url(#clip-path)"><rect x="26.67" y="-441.75" width="1115.44" height="2194.74" fill="none" stroke="#003a50" stroke-miterlimit="10"/><polygon points="52.29 644.24 52.29 1730.04 1118.76 1730.04 1118.76 -417.3 52.29 -417.45 52.29 575.46 52.29 644.24" fill="none" stroke="#003a50" stroke-miterlimit="10"/></g><rect x="36.39" y="204.1" width="4.55" height="87.23" fill="#fff"/><rect x="36.39" y="204.1" width="4.55" height="87.23" fill="none" stroke="#003a50" stroke-miterlimit="10"/><line x1="38.67" y1="204.1" x2="38.67" y2="291.33" fill="none" stroke="#003a50" stroke-miterlimit="10"/><rect x="36.39" y="204.1" width="4.55" height="4.41" fill="#fff"/><rect x="36.39" y="204.1" width="4.55" height="4.41" fill="none" stroke="#003a50" stroke-miterlimit="10"/><rect x="36.39" y="286.93" width="4.55" height="4.4" fill="#fff"/><rect x="36.39" y="286.93" width="4.55" height="4.4" fill="none" stroke="#003a50" stroke-miterlimit="10"/><rect x="36.39" y="245.51" width="4.55" height="4.41" fill="#fff"/><rect x="36.39" y="245.51" width="4.55" height="4.41" fill="none" stroke="#003a50" stroke-miterlimit="10"/><rect x="36.39" y="20.97" width="4.55" height="88.23" fill="#fff"/><rect x="36.39" y="20.97" width="4.55" height="88.23" fill="none" stroke="#003a50" stroke-miterlimit="10"/><line x1="38.67" y1="20.97" x2="38.67" y2="109.2" fill="none" stroke="#003a50" stroke-miterlimit="10"/><rect x="36.39" y="20.97" width="4.55" height="4.45" fill="#fff"/><rect x="36.39" y="20.97" width="4.55" height="4.45" fill="none" stroke="#003a50" stroke-miterlimit="10"/><rect x="36.39" y="104.75" width="4.55" height="4.46" fill="#fff"/><rect x="36.39" y="104.75" width="4.55" height="4.46" fill="none" stroke="#003a50" stroke-miterlimit="10"/><rect x="36.39" y="62.86" width="4.55" height="4.45" fill="#fff"/><rect x="36.39" y="62.86" width="4.55" height="4.45" fill="none" stroke="#003a50" stroke-miterlimit="10"/><g clip-path="url(#clip-path)"><rect x="314.27" y="37.25" width="72.48" height="29.76" fill="none" stroke="#003a50" stroke-miterlimit="10"/></g><rect x="360.23" y="251.65" width="34.02" height="99.6" fill="none" stroke="#003a50" stroke-miterlimit="10"/><g clip-path="url(#clip-path)"><rect x="52.55" y="-34.04" width="230.49" height="34.52" fill="none" stroke="#003a50" stroke-miterlimit="10"/><rect x="386.79" y="-29.07" width="43.33" height="96.06" fill="none" stroke="#003a50" stroke-miterlimit="10"/><path d="M392.15,46.84V-8.92a15.94,15.94,0,0,1,15.94-15.93h.73A15.93,15.93,0,0,1,424.75-8.92V46.84a15.93,15.93,0,0,1-15.93,15.93h-.73A15.94,15.94,0,0,1,392.15,46.84Z" fill="none" stroke="#003a50" stroke-miterlimit="10"/><path d="M408.45,45.25a2.27,2.27,0,1,1-2.26,2.27A2.27,2.27,0,0,1,408.45,45.25Z" fill="none" stroke="#003a50" stroke-miterlimit="10"/></g><rect x="379.26" y="79.46" width="41.13" height="98.9" fill="none" stroke="#003a50" stroke-miterlimit="10"/><g clip-path="url(#clip-path)"><path d="M415.29,99.28v59.28a15.47,15.47,0,0,1-30.94,0V99.28a15.47,15.47,0,0,1,30.94,0Z" fill="none" stroke="#003a50" stroke-miterlimit="10"/><path d="M399.82,101.71a2.2,2.2,0,1,1,2.2-2.2A2.21,2.21,0,0,1,399.82,101.71Z" fill="none" stroke="#003a50" stroke-miterlimit="10"/><path d="M343.19,10.37H314.34V-12.42h28.85A11.4,11.4,0,0,1,354.59-1,11.4,11.4,0,0,1,343.19,10.37Z" fill="none" stroke="#003a50" stroke-miterlimit="10"/><path d="M458.89,130.17h28.85V153H458.89a11.4,11.4,0,1,1,0-22.8Z" fill="none" stroke="#003a50" stroke-miterlimit="10"/></g><line x1="476.51" y1="152.97" x2="476.51" y2="130.17" fill="none" stroke="#003a50" stroke-miterlimit="10"/><g clip-path="url(#clip-path)"><rect x="354.03" y="39.64" width="28.96" height="29.71" rx="3.36" fill="none" stroke="#003a50" stroke-miterlimit="10"/><circle cx="368.51" cy="54.49" r="2.27" transform="translate(255.69 409.52) rotate(-80.78)" fill="none" stroke="#003a50" stroke-miterlimit="10"/></g><rect x="420.5" y="79.81" width="37.82" height="26.34" fill="none" stroke="#003a50" stroke-miterlimit="10"/><g clip-path="url(#clip-path)"><rect x="426.1" y="77.71" width="25.64" height="26.31" rx="2.97" fill="none" stroke="#003a50" stroke-miterlimit="10"/><path d="M438.92,92.87a2,2,0,1,1,2-2A2,2,0,0,1,438.92,92.87Z" fill="none" stroke="#003a50" stroke-miterlimit="10"/><rect x="314.58" y="37.25" width="34.02" height="28.84" fill="none" stroke="#003a50" stroke-miterlimit="10"/><path d="M336.89,43.36h-2.11a3.07,3.07,0,0,1-5.72,0h-2.78l-5.29,3,2.53,4,2.38-1.27V60h11.37V49.11l2.38,1.27,2.52-4Z" fill="none" stroke="#003a50" stroke-miterlimit="10"/></g><rect x="458.31" y="79.99" width="30.12" height="26.16" fill="none" stroke="#003a50" stroke-miterlimit="10"/><g clip-path="url(#clip-path)"><path d="M478.08,86h-1.87a2.73,2.73,0,0,1-5.07,0h-2.46L464,88.67l2.23,3.53,2.12-1.12v9.62h10.06V91.08l2.11,1.12,2.24-3.53Z" fill="none" stroke="#003a50" stroke-miterlimit="10"/><rect x="108.23" y="-33.75" width="34.02" height="34.02" fill="none" stroke="#003a50" stroke-miterlimit="10"/><rect x="217.84" y="-33.75" width="34.02" height="34.02" fill="none" stroke="#003a50" stroke-miterlimit="10"/><rect x="52.57" y="-33.75" width="34.02" height="34.02" fill="none" stroke="#003a50" stroke-miterlimit="10"/></g><rect x="339.41" y="152.89" width="33.05" height="33.05" fill="none" stroke="#003a50" stroke-miterlimit="10"/><line x1="355.94" y1="179.11" x2="355.94" y2="159.72" fill="none" stroke="#003a50" stroke-miterlimit="10"/><line x1="365.64" y1="169.41" x2="346.24" y2="169.41" fill="none" stroke="#003a50" stroke-miterlimit="10"/><line x1="362.8" y1="176.27" x2="349.08" y2="162.56" fill="none" stroke="#003a50" stroke-miterlimit="10"/><line x1="362.8" y1="162.56" x2="349.08" y2="176.27" fill="none" stroke="#003a50" stroke-miterlimit="10"/><g clip-path="url(#clip-path)"><rect x="363.68" y="303.05" width="21.66" height="30.06" rx="3.36" fill="none" stroke="#003a50" stroke-miterlimit="10"/><circle cx="378.31" cy="318.08" r="2.46" transform="matrix(0.53, -0.85, 0.85, 0.53, -91.15, 472.67)" fill="none" stroke="#003a50" stroke-miterlimit="10"/></g><line x1="377.55" y1="318.08" x2="391.17" y2="318.08" fill="none" stroke="#003a50" stroke-miterlimit="10"/><line x1="391.17" y1="324.89" x2="391.17" y2="311.27" fill="none" stroke="#003a50" stroke-miterlimit="10"/><rect x="338.72" y="80.15" width="34.02" height="68.03" fill="none" stroke="#003a50" stroke-miterlimit="10"/><g clip-path="url(#clip-path)"><path d="M343.54,131.07a1,1,0,0,1-.44-1.91,28.77,28.77,0,0,1,25.26,0,1,1,0,0,1,.45,1.34,1,1,0,0,1-1.34.46A26.81,26.81,0,0,0,344,131,1,1,0,0,1,343.54,131.07Z" fill="none" stroke="#003a50" stroke-miterlimit="10"/><path d="M343.54,125.5a1,1,0,0,1-.44-1.9,28.77,28.77,0,0,1,25.26,0,1,1,0,0,1-.89,1.8,26.72,26.72,0,0,0-23.49,0A1,1,0,0,1,343.54,125.5Z" fill="none" stroke="#003a50" stroke-miterlimit="10"/><path d="M343.54,119.93a1,1,0,0,1-.9-.56,1,1,0,0,1,.46-1.34,28.77,28.77,0,0,1,25.26,0,1,1,0,0,1-.89,1.8,26.72,26.72,0,0,0-23.49,0A1,1,0,0,1,343.54,119.93Z" fill="none" stroke="#003a50" stroke-miterlimit="10"/><path d="M343.54,114.37a1,1,0,0,1-.44-1.9,28.77,28.77,0,0,1,25.26,0,1,1,0,0,1-.89,1.8,26.72,26.72,0,0,0-23.49,0A1,1,0,0,1,343.54,114.37Z" fill="none" stroke="#003a50" stroke-miterlimit="10"/><path d="M343.54,108.8a1,1,0,0,1-.9-.56,1,1,0,0,1,.46-1.34,28.77,28.77,0,0,1,25.26,0,1,1,0,0,1-.89,1.8,26.72,26.72,0,0,0-23.49,0A1,1,0,0,1,343.54,108.8Z" fill="none" stroke="#003a50" stroke-miterlimit="10"/><path d="M343.54,103.24a1,1,0,0,1-.44-1.91,28.77,28.77,0,0,1,25.26,0,1,1,0,0,1,.45,1.34,1,1,0,0,1-1.34.46,26.81,26.81,0,0,0-23.49,0A.87.87,0,0,1,343.54,103.24Z" fill="none" stroke="#003a50" stroke-miterlimit="10"/><path d="M343.54,136.63a1,1,0,0,1-.44-1.9,28.77,28.77,0,0,1,25.26,0,1,1,0,0,1-.89,1.8,26.72,26.72,0,0,0-23.49,0A1,1,0,0,1,343.54,136.63Z" fill="none" stroke="#003a50" stroke-miterlimit="10"/><path d="M343.54,142.2a1,1,0,0,1-.44-1.91,28.77,28.77,0,0,1,25.26,0,1,1,0,0,1,.45,1.34,1,1,0,0,1-1.34.46,26.81,26.81,0,0,0-23.49,0A1,1,0,0,1,343.54,142.2Z" fill="none" stroke="#003a50" stroke-miterlimit="10"/></g><line x1="355.73" y1="148.18" x2="355.73" y2="80.54" fill="none" stroke="#003a50" stroke-miterlimit="10"/><g clip-path="url(#clip-path)"><path d="M291.36,82.29a1,1,0,0,1,1.91-.44,28.77,28.77,0,0,1,0,25.26,1,1,0,0,1-1.34.46,1,1,0,0,1-.46-1.34,26.83,26.83,0,0,0,0-23.5A.87.87,0,0,1,291.36,82.29Z" fill="none" stroke="#003a50" stroke-miterlimit="10"/><path d="M296.93,82.29a1,1,0,0,1,.56-.9,1,1,0,0,1,1.34.46,28.77,28.77,0,0,1,0,25.26,1,1,0,1,1-1.8-.88,26.74,26.74,0,0,0,0-23.5A1,1,0,0,1,296.93,82.29Z" fill="none" stroke="#003a50" stroke-miterlimit="10"/><path d="M302.49,82.29a1,1,0,0,1,1.91-.44,28.77,28.77,0,0,1,0,25.26,1,1,0,0,1-1.34.46,1,1,0,0,1-.46-1.34,26.83,26.83,0,0,0,0-23.5A.87.87,0,0,1,302.49,82.29Z" fill="none" stroke="#003a50" stroke-miterlimit="10"/><path d="M308.06,82.29a1,1,0,0,1,.56-.9,1,1,0,0,1,1.34.46,28.77,28.77,0,0,1,0,25.26,1,1,0,1,1-1.8-.88,26.74,26.74,0,0,0,0-23.5A1,1,0,0,1,308.06,82.29Z" fill="none" stroke="#003a50" stroke-miterlimit="10"/><path d="M313.62,82.29a1,1,0,0,1,1.91-.44,28.77,28.77,0,0,1,0,25.26,1,1,0,0,1-1.34.46,1,1,0,0,1-.46-1.34,26.83,26.83,0,0,0,0-23.5A1,1,0,0,1,313.62,82.29Z" fill="none" stroke="#003a50" stroke-miterlimit="10"/><path d="M319.19,82.29a1,1,0,0,1,.56-.9,1,1,0,0,1,1.34.46,28.77,28.77,0,0,1,0,25.26,1,1,0,1,1-1.8-.88,26.74,26.74,0,0,0,0-23.5A1,1,0,0,1,319.19,82.29Z" fill="none" stroke="#003a50" stroke-miterlimit="10"/><path d="M285.8,82.29a1,1,0,0,1,1.9-.44,28.77,28.77,0,0,1,0,25.26,1,1,0,1,1-1.8-.88,26.74,26.74,0,0,0,0-23.5A1,1,0,0,1,285.8,82.29Z" fill="none" stroke="#003a50" stroke-miterlimit="10"/><path d="M280.23,82.29a1,1,0,0,1,1.91-.44,28.77,28.77,0,0,1,0,25.26,1,1,0,0,1-1.34.46,1,1,0,0,1-.46-1.34,26.83,26.83,0,0,0,0-23.5A.87.87,0,0,1,280.23,82.29Z" fill="none" stroke="#003a50" stroke-miterlimit="10"/></g><line x1="273.51" y1="94.48" x2="338.72" y2="94.48" fill="none" stroke="#003a50" stroke-miterlimit="10"/><rect x="273.51" y="79.46" width="65.21" height="29.22" fill="none" stroke="#003a50" stroke-miterlimit="10"/><g clip-path="url(#clip-path)"><rect x="437.07" y="35.03" width="56.47" height="30.8" fill="none" stroke="#003a50" stroke-miterlimit="10"/><path d="M452.57,39.4a.91.91,0,0,1,.5-.82.92.92,0,0,1,1.22.42,26.09,26.09,0,0,1,0,22.87.91.91,0,0,1-1.63-.8,24.22,24.22,0,0,0,0-21.27A.83.83,0,0,1,452.57,39.4Z" fill="none" stroke="#003a50" stroke-miterlimit="10"/><path d="M457.6,39.4a.91.91,0,0,1,1.73-.4,26.09,26.09,0,0,1,0,22.87.91.91,0,0,1-1.63-.8,24.22,24.22,0,0,0,0-21.27A.85.85,0,0,1,457.6,39.4Z" fill="none" stroke="#003a50" stroke-miterlimit="10"/><path d="M462.64,39.4a.91.91,0,0,1,1.73-.4,26.09,26.09,0,0,1,0,22.87.91.91,0,0,1-1.22.41.89.89,0,0,1-.41-1.21,24.31,24.31,0,0,0,0-21.27A.85.85,0,0,1,462.64,39.4Z" fill="none" stroke="#003a50" stroke-miterlimit="10"/><path d="M467.68,39.4a.91.91,0,0,1,1.73-.4,26.09,26.09,0,0,1,0,22.87.91.91,0,0,1-1.22.41.89.89,0,0,1-.41-1.21,24.31,24.31,0,0,0,0-21.27A.85.85,0,0,1,467.68,39.4Z" fill="none" stroke="#003a50" stroke-miterlimit="10"/><path d="M472.72,39.4a.91.91,0,0,1,1.73-.4,26.09,26.09,0,0,1,0,22.87.91.91,0,0,1-1.22.41.89.89,0,0,1-.41-1.21,24.31,24.31,0,0,0,0-21.27A.85.85,0,0,1,472.72,39.4Z" fill="none" stroke="#003a50" stroke-miterlimit="10"/><path d="M477.76,39.4a.92.92,0,0,1,.51-.82.9.9,0,0,1,1.21.42,26,26,0,0,1,0,22.87.9.9,0,1,1-1.62-.8,24.31,24.31,0,0,0,0-21.27A.85.85,0,0,1,477.76,39.4Z" fill="none" stroke="#003a50" stroke-miterlimit="10"/><path d="M447.53,39.4a.9.9,0,0,1,1.72-.4,26.09,26.09,0,0,1,0,22.87.91.91,0,0,1-1.63-.8,24.22,24.22,0,0,0,0-21.27A.83.83,0,0,1,447.53,39.4Z" fill="none" stroke="#003a50" stroke-miterlimit="10"/><path d="M442.49,39.4a.9.9,0,0,1,1.72-.4,26.09,26.09,0,0,1,0,22.87.91.91,0,0,1-1.63-.8,24.22,24.22,0,0,0,0-21.27A.83.83,0,0,1,442.49,39.4Z" fill="none" stroke="#003a50" stroke-miterlimit="10"/></g><rect x="400.19" y="256.81" width="34.02" height="70.33" fill="none" stroke="#003a50" stroke-miterlimit="10"/><rect x="436.61" y="327.62" width="39.54" height="23.61" fill="none" stroke="#003a50" stroke-miterlimit="10"/><rect x="292.43" y="152.62" width="33.59" height="33.59" fill="none" stroke="#003a50" stroke-miterlimit="10"/><g clip-path="url(#clip-path)"><circle cx="316.9" cy="176.93" r="4.58" fill="none" stroke="#003a50" stroke-miterlimit="10"/><circle cx="301.61" cy="176.93" r="4.58" fill="none" stroke="#003a50" stroke-miterlimit="10"/><circle cx="316.9" cy="162.02" r="4.58" fill="none" stroke="#003a50" stroke-miterlimit="10"/><circle cx="301.61" cy="162.02" r="4.58" fill="none" stroke="#003a50" stroke-miterlimit="10"/></g><rect x="84.18" y="163.22" width="102.05" height="17.01" fill="none" stroke="#003a50" stroke-miterlimit="10"/><polygon points="92.21 171.18 135.1 174.71 178.21 171.18 178.21 168.72 92.21 168.72 92.21 171.18" fill="none" stroke="#003a50" stroke-miterlimit="10"/><rect x="52.34" y="186.6" width="102.05" height="17.01" fill="none" stroke="#003a50" stroke-miterlimit="10"/><polygon points="146.36 195.65 103.47 192.12 60.36 195.65 60.36 198.1 146.36 198.1 146.36 195.65" fill="none" stroke="#003a50" stroke-miterlimit="10"/><rect x="271.27" y="152.62" width="102.08" height="33.59" fill="none" stroke="#003a50" stroke-miterlimit="10"/><g clip-path="url(#clip-path)"><path d="M301.27,293.71a1.25,1.25,0,0,1-.94-1.51A13.79,13.79,0,1,0,273.45,286a1.26,1.26,0,0,1-2.45-.57,16.3,16.3,0,0,1,31.78,7.29A1.27,1.27,0,0,1,301.27,293.71Z" fill="none" stroke="#003a50" stroke-miterlimit="10"/><path d="M246.1,284a1.25,1.25,0,0,1-1.75.33,13.79,13.79,0,0,0-15.52,22.79,1.26,1.26,0,0,1-1.42,2.08,16.3,16.3,0,0,1,18.36-26.95A1.26,1.26,0,0,1,246.1,284Z" fill="none" stroke="#003a50" stroke-miterlimit="10"/><path d="M243.6,331.39a1.27,1.27,0,0,1,1.33,1.18A13.78,13.78,0,0,0,272.45,331a1.26,1.26,0,1,1,2.51-.16,16.3,16.3,0,0,1-32.54,1.94A1.25,1.25,0,0,1,243.6,331.39Z" fill="none" stroke="#003a50" stroke-miterlimit="10"/><path d="M287.07,277.09a12.69,12.69,0,0,1,12,15.48l-2,8.88a3.53,3.53,0,0,1-4.24,2.68l-13.44-3.08a23.73,23.73,0,0,0-6-9.44l1-4.2C275.67,281.45,281,276.89,287.07,277.09Z" fill="none" stroke="#003a50" stroke-miterlimit="10"/><path d="M244.27,285.61l2.32,1.6A23.81,23.81,0,0,0,233,308.53l-2.52-1.72c-5-3.44-7.4-10-5-15.64A12.7,12.7,0,0,1,244.27,285.61Z" fill="none" stroke="#003a50" stroke-miterlimit="10"/><path d="M271.11,327.89l.12,2c.36,6.12-3.4,12-9.32,13.48A12.66,12.66,0,0,1,246,331.85l-.12-1.84a23.93,23.93,0,0,0,16.64,1.92A23.5,23.5,0,0,0,271.11,327.89Z" fill="none" stroke="#003a50" stroke-miterlimit="10"/><path d="M273.35,291.61a23.73,23.73,0,0,1,6,9.44,16.51,16.51,0,0,1,.6,2,23.85,23.85,0,0,1-8.84,24.84,23.5,23.5,0,0,1-8.56,4,23.87,23.87,0,0,1-28.92-17.4,22.12,22.12,0,0,1-.68-6,23.81,23.81,0,0,1,13.64-21.32,22.85,22.85,0,0,1,4.48-1.6A23.8,23.8,0,0,1,273.35,291.61Z" fill="none" stroke="#003a50" stroke-miterlimit="10"/><path d="M109.47,305.52v41H63.7V303.31h43.55A2.22,2.22,0,0,1,109.47,305.52Z" fill="none" stroke="#003a50" stroke-miterlimit="10"/><path d="M155.34,305.3v41.26H109.56V305.3a2,2,0,0,1,2-2h41.8A2,2,0,0,1,155.34,305.3Z" fill="none" stroke="#003a50" stroke-miterlimit="10"/><path d="M63.7,303.31a3.11,3.11,0,0,0-3.33-2.83H56.15a3.11,3.11,0,0,0-3.33,2.83v48.2H166.21V303.74a3.12,3.12,0,0,0-3.33-2.84h-4.22a3.11,3.11,0,0,0-3.32,2.84v42.82H63.7Z" fill="none" stroke="#003a50" stroke-miterlimit="10"/></g><rect x="63.7" y="337.31" width="91.64" height="9.25" fill="none" stroke="#003a50" stroke-miterlimit="10"/><rect x="55.22" y="13.28" width="22.68" height="22.68" fill="none" stroke="#003a50" stroke-miterlimit="10"/><g clip-path="url(#clip-path)"><path d="M73.06,31.12a9.2,9.2,0,1,1,0-13A9.22,9.22,0,0,1,73.06,31.12Z" fill="none" stroke="#003a50" stroke-miterlimit="10"/><path d="M73.68,30.42c-1.69-.16-3.41.49-5.06-1.17-2.44-2.43.14-5-2.3-7.45s-5,.14-7.46-2.3" fill="none" stroke="#003a50" stroke-miterlimit="10"/></g><rect x="192.52" y="13.28" width="22.68" height="22.68" fill="none" stroke="#003a50" stroke-miterlimit="10"/><g clip-path="url(#clip-path)"><path d="M210.36,31.12a9.2,9.2,0,1,1,0-13A9.21,9.21,0,0,1,210.36,31.12Z" fill="none" stroke="#003a50" stroke-miterlimit="10"/><path d="M211,30.42c-1.69-.16-3.41.49-5.06-1.17-2.44-2.43.14-5-2.3-7.45s-5,.14-7.46-2.3" fill="none" stroke="#003a50" stroke-miterlimit="10"/></g><rect x="84.22" y="13.28" width="102.05" height="113.39" fill="none" stroke="#003a50" stroke-miterlimit="10"/><g clip-path="url(#clip-path)"><path d="M176.27,116.92H94.22a2.08,2.08,0,0,1-2.08-2.08V47.2h86.22v67.64A2.09,2.09,0,0,1,176.27,116.92Z" fill="none" stroke="#003a50" stroke-miterlimit="10"/><rect x="91.88" y="20.7" width="42.5" height="22.88" rx="1.98" fill="none" stroke="#003a50" stroke-miterlimit="10"/><rect x="136.11" y="20.7" width="42.5" height="22.88" rx="1.98" fill="none" stroke="#003a50" stroke-miterlimit="10"/></g><line x1="178.61" y1="61.05" x2="91.88" y2="61.05" fill="none" stroke="#003a50" stroke-miterlimit="10"/><g clip-path="url(#clip-path)"><path d="M405,310a1,1,0,0,1-.9-.56,1,1,0,0,1,.45-1.35,28.77,28.77,0,0,1,25.26,0,1,1,0,0,1,.46,1.34,1,1,0,0,1-1.34.46,26.81,26.81,0,0,0-23.49,0A1,1,0,0,1,405,310Z" fill="none" stroke="#003a50" stroke-miterlimit="10"/><path d="M405,304.46a1,1,0,0,1-.45-1.9,28.77,28.77,0,0,1,25.26,0,1,1,0,0,1-.88,1.8,26.72,26.72,0,0,0-23.49,0A1,1,0,0,1,405,304.46Z" fill="none" stroke="#003a50" stroke-miterlimit="10"/><path d="M405,298.9a1,1,0,0,1-.9-.56,1,1,0,0,1,.45-1.35,28.77,28.77,0,0,1,25.26,0,1,1,0,0,1,.46,1.34,1,1,0,0,1-1.34.46,26.81,26.81,0,0,0-23.49,0A1,1,0,0,1,405,298.9Z" fill="none" stroke="#003a50" stroke-miterlimit="10"/><path d="M405,293.33a1,1,0,0,1-.45-1.9,28.77,28.77,0,0,1,25.26,0,1,1,0,0,1-.88,1.8,26.72,26.72,0,0,0-23.49,0A1,1,0,0,1,405,293.33Z" fill="none" stroke="#003a50" stroke-miterlimit="10"/><path d="M405,287.77a1,1,0,0,1-.9-.56,1,1,0,0,1,.45-1.35,28.77,28.77,0,0,1,25.26,0,1,1,0,0,1,.46,1.34,1,1,0,0,1-1.34.46,26.81,26.81,0,0,0-23.49,0A1,1,0,0,1,405,287.77Z" fill="none" stroke="#003a50" stroke-miterlimit="10"/><path d="M405,282.2a1,1,0,0,1-.45-1.9,28.77,28.77,0,0,1,25.26,0,1,1,0,0,1-.88,1.8,26.72,26.72,0,0,0-23.49,0A1,1,0,0,1,405,282.2Z" fill="none" stroke="#003a50" stroke-miterlimit="10"/><path d="M405,315.59a1,1,0,0,1-.45-1.9,28.77,28.77,0,0,1,25.26,0,1,1,0,0,1-.88,1.8,26.72,26.72,0,0,0-23.49,0A1,1,0,0,1,405,315.59Z" fill="none" stroke="#003a50" stroke-miterlimit="10"/><path d="M405,321.16a1,1,0,0,1-.9-.56,1,1,0,0,1,.45-1.35,28.77,28.77,0,0,1,25.26,0,1,1,0,0,1,.46,1.34,1,1,0,0,1-1.34.46,26.81,26.81,0,0,0-23.49,0A.9.9,0,0,1,405,321.16Z" fill="none" stroke="#003a50" stroke-miterlimit="10"/></g><line x1="417.2" y1="327.14" x2="417.2" y2="256.81" fill="none" stroke="#003a50" stroke-miterlimit="10"/><g clip-path="url(#clip-path)"><path d="M232.79,43.23a14.78,14.78,0,0,0-15.93,23.38,1.14,1.14,0,1,0,1.78-1.43,12.47,12.47,0,0,1,14.15-19.5Z" fill="none" stroke="#003a50" stroke-miterlimit="10"/><rect x="232.79" y="13.45" width="34.02" height="84.03" rx="3.31" fill="none" stroke="#003a50" stroke-miterlimit="10"/><path d="M263.1,16a1.4,1.4,0,0,0-1.4,1.4V93.54a1.4,1.4,0,0,0,2.79,0V17.4A1.4,1.4,0,0,0,263.1,16" fill="none" stroke="#003a50" stroke-miterlimit="10"/><path d="M248.52,83.81a5.51,5.51,0,1,1,0,7.79A5.51,5.51,0,0,1,248.52,83.81Z" fill="none" stroke="#003a50" stroke-miterlimit="10"/><path d="M248.15,84.22c1,.1,2-.28,3,.7,1.46,1.46-.08,3,1.38,4.47s3-.08,4.47,1.38" fill="none" stroke="#003a50" stroke-miterlimit="10"/><path d="M232.79,47.94a10.63,10.63,0,1,0,0,19.59Z" fill="none" stroke="#003a50" stroke-miterlimit="10"/></g><rect x="360.22" y="251.37" width="34.02" height="34.02" fill="none" stroke="#003a50" stroke-miterlimit="10"/><line x1="376.49" y1="270.4" x2="376.49" y2="280.96" fill="none" stroke="#003a50" stroke-miterlimit="10"/><g clip-path="url(#clip-path)"><path d="M377.4,270.4h-1.82a3.4,3.4,0,0,1-3.39-3.4V255.8h8.61V267A3.4,3.4,0,0,1,377.4,270.4Z" fill="none" stroke="#003a50" stroke-miterlimit="10"/></g><line x1="373.02" y1="280.96" x2="379.97" y2="280.96" fill="none" stroke="#003a50" stroke-miterlimit="10"/><g clip-path="url(#clip-path)"><path d="M426.05,181.39v3.07a38.71,38.71,0,0,0,38.71,38.72V181.39" fill="none" stroke="#003a50" stroke-miterlimit="10" stroke-width="1.6"/><path d="M217.44,183.52v-3.58a45.05,45.05,0,0,1,45.06-45.06v48.64" fill="none" stroke="#003a50" stroke-miterlimit="10" stroke-width="1.6"/><path d="M524.61,243.8h4.07a51.12,51.12,0,0,0,51.12-51.12H524.61" fill="none" stroke="#003a50" stroke-miterlimit="10" stroke-width="1.6"/><line x1="493.6" y1="246.64" x2="439.11" y2="246.64" fill="none" stroke="#003a50" stroke-miterlimit="10" stroke-width="1.6"/><rect x="13.28" y="-73.49" width="39" height="94.57" fill="#003a50"/><rect x="16.19" y="291.12" width="36.1" height="97.19" fill="#003a50"/><rect x="3.95" y="291.12" width="44.33" height="25.9" fill="#003a50"/><rect x="38.12" y="351.75" width="491.33" height="13.79" fill="#003a50"/><rect x="38.12" y="-0.25" width="249.5" height="13.79" fill="#003a50"/><rect x="277.78" y="66.09" width="249.5" height="13.79" fill="#003a50"/><rect x="513.28" y="65.89" width="16.81" height="127.55" fill="#003a50"/><rect x="513.28" y="242.75" width="16.81" height="17.72" fill="#003a50"/><rect x="476.33" y="250.75" width="53.77" height="11.84" fill="#003a50"/><rect x="476.33" y="256.67" width="10.5" height="98.45" fill="#003a50"/><rect x="493.79" y="-33.27" width="11.67" height="106.25" fill="#003a50"/><rect x="271.52" y="-0.25" width="16.1" height="80.12" fill="#003a50"/><polygon points="52.28 203.75 52.28 109.18 14.62 109.18 2.95 203.75 52.28 203.75" fill="#003a50" fill-rule="evenodd"/><rect x="307.68" y="-28.78" width="6.38" height="99.52" fill="#003a50"/><rect x="267.14" y="6.65" width="6.38" height="102.03" fill="#003a50"/><rect x="267.14" y="146.32" width="6.38" height="39.96" fill="#003a50"/><rect x="430.44" y="-28.78" width="6.38" height="99.52" fill="#003a50"/><rect x="282.68" y="-28.78" width="6.38" height="99.52" fill="#003a50"/><rect x="523.72" y="255.91" width="6.38" height="132.4" fill="#003a50"/><rect x="393.74" y="251.61" width="6.38" height="106.7" fill="#003a50"/><rect x="523.72" y="-37.26" width="6.38" height="107.23" fill="#003a50"/><rect x="373.36" y="178.64" width="53.52" height="6.38" fill="#003a50"/><rect x="372.77" y="75.7" width="6.38" height="108.39" fill="#003a50"/><rect x="463.93" y="178.64" width="63.43" height="6.38" fill="#003a50"/><rect x="393.74" y="250.64" width="41.3" height="6.38" fill="#003a50"/><rect x="396.08" y="327.33" width="40.36" height="6.38" fill="#003a50"/><rect x="430.06" y="327.33" width="6.38" height="25.8" fill="#003a50"/><rect x="472.09" y="250.64" width="55.26" height="6.38" fill="#003a50"/><rect x="490.15" y="156.85" width="29.83" height="6.38" fill="#003a50"/><rect x="488.03" y="76.95" width="6.38" height="104.88" fill="#003a50"/><rect x="42.52" y="179.9" width="175.76" height="6.38" fill="#003a50"/><rect x="261.74" y="179.9" width="11.77" height="6.38" fill="#003a50"/><rect x="267.14" y="146.32" width="109.8" height="7.69" fill="#003a50"/><line x1="394.24" y1="264.88" x2="394.24" y2="262.04" fill="none" stroke="#003a50" stroke-miterlimit="10"/><line x1="394.24" y1="256.28" x2="394.24" y2="189.95" fill="none" stroke="#003a50" stroke-miterlimit="10" stroke-dasharray="5.77 5.77"/><line x1="394.24" y1="187.07" x2="394.24" y2="184.24" fill="none" stroke="#003a50" stroke-miterlimit="10"/></g><g clip-path="url(#clip-path)"><path d="M465.66,10.13l-2.48,1.95V9.84l2.73-2.27h1.86V19.48h-2.11Z" fill="#003a50"/><path d="M470.29,19.35a1,1,0,0,1-.32-.81,1.06,1.06,0,0,1,.32-.8,1.25,1.25,0,0,1,.88-.3,1.22,1.22,0,0,1,.86.3,1,1,0,0,1,.32.8,1,1,0,0,1-.32.81,1.22,1.22,0,0,1-.86.3A1.25,1.25,0,0,1,470.29,19.35Z" fill="#003a50"/><path d="M482.88,18.72a7.73,7.73,0,0,1-7.37,0,3,3,0,0,1-1.37-2.56A2.7,2.7,0,0,1,474.4,15a2.41,2.41,0,0,1,.65-.86,4.14,4.14,0,0,1,1.4-.77l.26-.07V13.2a3,3,0,0,1-.77-.29,2.61,2.61,0,0,1-.66-.44,2.2,2.2,0,0,1-.54-.75,2.42,2.42,0,0,1-.23-1,2.82,2.82,0,0,1,1.26-2.39,5.81,5.81,0,0,1,3.42-.89,5.89,5.89,0,0,1,3.43.89,2.84,2.84,0,0,1,1.25,2.39,2.58,2.58,0,0,1-.22,1,2,2,0,0,1-.56.74,3.42,3.42,0,0,1-1.19.68l-.23,0v.09l.29.07c.09,0,.3.12.62.27a4.09,4.09,0,0,1,.77.5A2.71,2.71,0,0,1,484,15a2.52,2.52,0,0,1,.28,1.19A3,3,0,0,1,482.88,18.72Zm-5.79-1.36a3.75,3.75,0,0,0,2.1.49,3.84,3.84,0,0,0,2.1-.48,1.59,1.59,0,0,0,0-2.69,4.93,4.93,0,0,0-4.2,0,1.58,1.58,0,0,0,0,2.68Zm-.37-6.51a1.37,1.37,0,0,0,.65,1.19A4.07,4.07,0,0,0,481,12a1.42,1.42,0,0,0,0-2.39,3.94,3.94,0,0,0-3.62,0A1.36,1.36,0,0,0,476.72,10.85Z" fill="#003a50"/><path d="M362.08,9.42h-5.82V7.57h8.86V9.42l-4.52,2.65v.06h1.28a3.87,3.87,0,0,1,2.79,1,3.5,3.5,0,0,1,1.05,2.66,3.32,3.32,0,0,1-1.33,2.82,6.93,6.93,0,0,1-7.24,0,3.35,3.35,0,0,1-1.33-2.85v-.33h2.11v.33c0,1.36.95,2,2.84,2s2.84-.66,2.84-2-.94-2-2.84-2h-3.26V12.17l4.57-2.69Z" fill="#003a50"/><path d="M367.82,19.35a1,1,0,0,1-.32-.81,1.06,1.06,0,0,1,.32-.8,1.41,1.41,0,0,1,1.74,0,1.06,1.06,0,0,1,.32.8,1,1,0,0,1-.32.81,1.41,1.41,0,0,1-1.74,0Z" fill="#003a50"/><path d="M380.4,18.72a7.71,7.71,0,0,1-7.36,0,2.94,2.94,0,0,1-1.37-2.56,2.56,2.56,0,0,1,.26-1.16,2.41,2.41,0,0,1,.65-.86,4.05,4.05,0,0,1,1.4-.77l.25-.07V13.2a3.05,3.05,0,0,1-.76-.29,2.61,2.61,0,0,1-.66-.44,2.2,2.2,0,0,1-.54-.75,2.42,2.42,0,0,1-.23-1A2.82,2.82,0,0,1,373.3,8.3a5.81,5.81,0,0,1,3.42-.89,5.89,5.89,0,0,1,3.43.89,2.83,2.83,0,0,1,1.24,2.39,2.43,2.43,0,0,1-.22,1,1.87,1.87,0,0,1-.55.74,3.54,3.54,0,0,1-1.2.68l-.22,0v.09l.28.07a6.14,6.14,0,0,1,.63.27,4.45,4.45,0,0,1,.77.5,2.88,2.88,0,0,1,.61.83,2.64,2.64,0,0,1,.28,1.19A3,3,0,0,1,380.4,18.72Zm-5.78-1.36a3.7,3.7,0,0,0,2.1.49,3.86,3.86,0,0,0,2.1-.48,1.59,1.59,0,0,0,0-2.69,4.93,4.93,0,0,0-4.2,0,1.58,1.58,0,0,0,0,2.68Zm-.37-6.51a1.36,1.36,0,0,0,.64,1.19,4.09,4.09,0,0,0,3.65,0,1.36,1.36,0,0,0,.64-1.19,1.38,1.38,0,0,0-.65-1.2,3.94,3.94,0,0,0-3.62,0A1.36,1.36,0,0,0,374.25,10.85Z" fill="#003a50"/><path d="M155.27,139.09,152.78,141v-2.25l2.73-2.26h1.87v11.91h-2.11Z" fill="#003a50"/><path d="M161.89,139.09,159.41,141v-2.25l2.73-2.26H164v11.91h-2.11Z" fill="#003a50"/><path d="M166.53,148.3a1,1,0,0,1-.33-.8,1,1,0,0,1,.33-.81,1.4,1.4,0,0,1,1.73,0,1,1,0,0,1,.33.81,1,1,0,0,1-.33.8,1.4,1.4,0,0,1-1.73,0Z" fill="#003a50"/><path d="M179.11,147.67a7.73,7.73,0,0,1-7.37,0,2.93,2.93,0,0,1-1.37-2.55,2.71,2.71,0,0,1,.26-1.17,2.29,2.29,0,0,1,.66-.85,3.86,3.86,0,0,1,1.39-.77l.26-.07v-.09a3.57,3.57,0,0,1-.77-.29,2.91,2.91,0,0,1-.66-.44,2.35,2.35,0,0,1-.54-.76,2.38,2.38,0,0,1-.22-1,2.79,2.79,0,0,1,1.25-2.38,7,7,0,0,1,6.85,0,2.83,2.83,0,0,1,1.25,2.38,2.58,2.58,0,0,1-.22,1,1.85,1.85,0,0,1-.56.75,3.59,3.59,0,0,1-1.19.68l-.23,0v.09a1.79,1.79,0,0,1,.29.07,4,4,0,0,1,.62.26,4.28,4.28,0,0,1,.77.51,2.67,2.67,0,0,1,.89,2A2.94,2.94,0,0,1,179.11,147.67Zm-5.79-1.35a3.84,3.84,0,0,0,2.1.48,3.94,3.94,0,0,0,2.1-.47,1.6,1.6,0,0,0,0-2.7,4.93,4.93,0,0,0-4.2,0,1.53,1.53,0,0,0-.74,1.35A1.51,1.51,0,0,0,173.32,146.32ZM173,139.8a1.37,1.37,0,0,0,.65,1.19,4,4,0,0,0,3.64,0,1.42,1.42,0,0,0,0-2.39,3.94,3.94,0,0,0-3.62,0A1.36,1.36,0,0,0,173,139.8Z" fill="#003a50"/><path d="M437.34,162.25h-5.82v-1.84h8.86v1.84l-4.52,2.65V165h1.28a3.86,3.86,0,0,1,2.79,1,3.52,3.52,0,0,1,1.05,2.67,3.32,3.32,0,0,1-1.33,2.82,7,7,0,0,1-7.24,0,3.36,3.36,0,0,1-1.33-2.86v-.32h2.11v.32c0,1.36.95,2,2.84,2s2.84-.67,2.84-2-.95-2-2.84-2h-3.26V165l4.57-2.68Z" fill="#003a50"/><path d="M443.08,172.18a1,1,0,0,1-.32-.8,1.07,1.07,0,0,1,.32-.81,1.41,1.41,0,0,1,1.74,0,1.07,1.07,0,0,1,.32.81,1,1,0,0,1-.32.8,1.41,1.41,0,0,1-1.74,0Z" fill="#003a50"/><path d="M455.66,171.55a7.71,7.71,0,0,1-7.36,0,2.91,2.91,0,0,1-1.37-2.55,2.57,2.57,0,0,1,.26-1.17,2.37,2.37,0,0,1,.65-.85,3.74,3.74,0,0,1,1.4-.77l.25-.07V166a3.51,3.51,0,0,1-.76-.29,2.91,2.91,0,0,1-.66-.44,2.21,2.21,0,0,1-.54-.76,2.39,2.39,0,0,1-.23-1,2.8,2.8,0,0,1,1.26-2.38,5.74,5.74,0,0,1,3.42-.9,5.81,5.81,0,0,1,3.43.9,2.82,2.82,0,0,1,1.24,2.38,2.43,2.43,0,0,1-.22,1,1.83,1.83,0,0,1-.55.75,3.72,3.72,0,0,1-1.2.68l-.22,0v.09l.28.07a4,4,0,0,1,.63.26,5.14,5.14,0,0,1,.77.51,2.77,2.77,0,0,1,.89,2A3,3,0,0,1,455.66,171.55Zm-5.78-1.35a3.79,3.79,0,0,0,2.1.48,4,4,0,0,0,2.1-.47,1.53,1.53,0,0,0,.74-1.35,1.51,1.51,0,0,0-.74-1.35A4,4,0,0,0,452,167a3.94,3.94,0,0,0-2.1.47,1.59,1.59,0,0,0,0,2.69Zm-.37-6.52a1.36,1.36,0,0,0,.64,1.19,4,4,0,0,0,3.65,0,1.36,1.36,0,0,0,.64-1.19,1.38,1.38,0,0,0-.65-1.2,3.94,3.94,0,0,0-3.62,0A1.36,1.36,0,0,0,449.51,163.68Z" fill="#003a50"/><path d="M483,232.54h-9.93V231a2.74,2.74,0,0,1,.58-1.74,4,4,0,0,1,1.44-1.2c.5-.25,1.13-.54,1.87-.86l1.88-.78a4.21,4.21,0,0,0,1.45-.91,1.8,1.8,0,0,0,.57-1.3q0-1.89-2.67-1.89t-2.67,2.16v.41H473.4v-.41a3.62,3.62,0,0,1,1.26-3,5.38,5.38,0,0,1,3.51-1,5.66,5.66,0,0,1,3.52,1,3.3,3.3,0,0,1,1.27,2.75,3.14,3.14,0,0,1-.56,1.83,4.29,4.29,0,0,1-1.4,1.31c-.6.34-1.21.65-1.84.93s-1.23.52-1.82.74a5.18,5.18,0,0,0-1.41.75,1.23,1.23,0,0,0-.56,1H483Z" fill="#003a50"/><path d="M485.09,232.41a1.17,1.17,0,0,1,0-1.61,1.41,1.41,0,0,1,1.74,0,1.17,1.17,0,0,1,0,1.61,1.41,1.41,0,0,1-1.74,0Z" fill="#003a50"/><path d="M498.71,224H496.5s0-.07,0-.18a2.94,2.94,0,0,0-.22-.44,2.69,2.69,0,0,0-.39-.5,1.9,1.9,0,0,0-.71-.41,3.19,3.19,0,0,0-1-.16,2.51,2.51,0,0,0-2.15,1,4.41,4.41,0,0,0-.76,2.68h.06a1.79,1.79,0,0,1,.44-.43,4.76,4.76,0,0,1,.6-.36,4.33,4.33,0,0,1,1-.31,6.06,6.06,0,0,1,1.21-.13,5,5,0,0,1,3.37,1.12,3.51,3.51,0,0,1,1.31,2.8,3.59,3.59,0,0,1-1.36,2.9,5.54,5.54,0,0,1-3.61,1.11,4.81,4.81,0,0,1-3.87-1.55,6.36,6.36,0,0,1-1.32-4.27v-.4a6.83,6.83,0,0,1,1.32-4.31,4.52,4.52,0,0,1,3.8-1.71,5.66,5.66,0,0,1,2.13.37,3.84,3.84,0,0,1,1.44.94A3.43,3.43,0,0,1,498.71,224Zm-2.51,3.14a3.65,3.65,0,0,0-3.95,0,2,2,0,0,0,0,3.15,3.63,3.63,0,0,0,4,0,1.85,1.85,0,0,0,.77-1.57A1.88,1.88,0,0,0,496.2,227.13Z" fill="#003a50"/><path d="M453.09,312.55h-9.93V311a2.79,2.79,0,0,1,.58-1.75,3.87,3.87,0,0,1,1.44-1.19c.5-.26,1.13-.55,1.87-.87s1.33-.55,1.88-.77a4.36,4.36,0,0,0,1.45-.91,1.82,1.82,0,0,0,.57-1.31c0-1.25-.89-1.88-2.67-1.88s-2.67.72-2.67,2.16v.4H443.5v-.4a3.62,3.62,0,0,1,1.26-3,5.44,5.44,0,0,1,3.51-1,5.73,5.73,0,0,1,3.52,1,3.31,3.31,0,0,1,1.27,2.75,3.17,3.17,0,0,1-.56,1.84,4.26,4.26,0,0,1-1.4,1.3,18.66,18.66,0,0,1-1.84.93c-.62.28-1.23.53-1.82.75a5.18,5.18,0,0,0-1.41.75,1.23,1.23,0,0,0-.56.95h7.62Z" fill="#003a50"/><path d="M455.19,312.41a1,1,0,0,1-.32-.8,1.07,1.07,0,0,1,.32-.81,1.41,1.41,0,0,1,1.74,0,1.07,1.07,0,0,1,.32.81,1,1,0,0,1-.32.8,1.41,1.41,0,0,1-1.74,0Z" fill="#003a50"/><path d="M469,312.55H459V311a2.79,2.79,0,0,1,.58-1.75,3.87,3.87,0,0,1,1.44-1.19c.5-.26,1.12-.55,1.87-.87s1.32-.55,1.88-.77a4.22,4.22,0,0,0,1.44-.91,1.8,1.8,0,0,0,.58-1.31c0-1.25-.89-1.88-2.67-1.88s-2.67.72-2.67,2.16v.4h-2.11v-.4a3.62,3.62,0,0,1,1.26-3,5.44,5.44,0,0,1,3.51-1,5.73,5.73,0,0,1,3.52,1,3.31,3.31,0,0,1,1.27,2.75,3.17,3.17,0,0,1-.56,1.84,4.36,4.36,0,0,1-1.4,1.3,18.66,18.66,0,0,1-1.84.93q-.93.42-1.83.75a5.26,5.26,0,0,0-1.4.75,1.2,1.2,0,0,0-.56.95H469Z" fill="#003a50"/><path d="M229.1,232.54h-9.94V231a2.8,2.8,0,0,1,.58-1.74,4.12,4.12,0,0,1,1.45-1.2c.5-.25,1.12-.54,1.87-.86s1.32-.56,1.87-.78a4.12,4.12,0,0,0,1.45-.91,1.8,1.8,0,0,0,.57-1.3c0-1.26-.89-1.89-2.66-1.89s-2.68.72-2.68,2.16v.41H219.5v-.41a3.59,3.59,0,0,1,1.27-3,5.34,5.34,0,0,1,3.51-1,5.65,5.65,0,0,1,3.51,1,3.27,3.27,0,0,1,1.27,2.75,3.14,3.14,0,0,1-.55,1.83,4.42,4.42,0,0,1-1.41,1.31q-.9.51-1.83.93c-.63.27-1.24.52-1.83.74a5.26,5.26,0,0,0-1.4.75,1.22,1.22,0,0,0-.57,1h7.63Z" fill="#003a50"/><path d="M232.69,231a7.33,7.33,0,0,1,0-8.83,5.71,5.71,0,0,1,8.13,0,7.33,7.33,0,0,1,0,8.83,5.69,5.69,0,0,1-8.13,0Zm6.53-1.38a5.73,5.73,0,0,0,0-6.07,3.15,3.15,0,0,0-4.92,0,5.67,5.67,0,0,0,0,6.07,3.14,3.14,0,0,0,4.92,0Z" fill="#003a50"/><path d="M244.49,232.41a1.17,1.17,0,0,1,0-1.61,1.41,1.41,0,0,1,1.74,0,1.17,1.17,0,0,1,0,1.61,1.41,1.41,0,0,1-1.74,0Z" fill="#003a50"/><path d="M258.27,232.54h-9.93V231a2.74,2.74,0,0,1,.58-1.74,4,4,0,0,1,1.44-1.2c.5-.25,1.12-.54,1.87-.86l1.88-.78a4.07,4.07,0,0,0,1.44-.91,1.77,1.77,0,0,0,.58-1.3q0-1.89-2.67-1.89t-2.67,2.16v.41h-2.11v-.41a3.62,3.62,0,0,1,1.26-3,5.38,5.38,0,0,1,3.51-1,5.66,5.66,0,0,1,3.52,1,3.3,3.3,0,0,1,1.27,2.75,3.14,3.14,0,0,1-.56,1.83,4.39,4.39,0,0,1-1.4,1.31c-.6.34-1.21.65-1.84.93s-1.23.52-1.83.74a5.26,5.26,0,0,0-1.4.75,1.21,1.21,0,0,0-.56,1h7.62Z" fill="#003a50"/><path d="M298.59,128.54h-9.93V127a2.79,2.79,0,0,1,.58-1.75,3.87,3.87,0,0,1,1.44-1.19c.5-.26,1.12-.55,1.87-.87s1.33-.55,1.88-.77a4.36,4.36,0,0,0,1.45-.91,1.81,1.81,0,0,0,.57-1.31c0-1.25-.89-1.88-2.67-1.88s-2.67.72-2.67,2.16v.4H289v-.4a3.62,3.62,0,0,1,1.26-3,5.44,5.44,0,0,1,3.51-1,5.73,5.73,0,0,1,3.52,1,3.31,3.31,0,0,1,1.27,2.75A3.17,3.17,0,0,1,298,122a4.25,4.25,0,0,1-1.4,1.3,16.7,16.7,0,0,1-1.84.93c-.62.28-1.23.53-1.82.75a5.18,5.18,0,0,0-1.41.75,1.2,1.2,0,0,0-.56,1h7.62Z" fill="#003a50"/><path d="M300.69,128.4a1,1,0,0,1-.32-.8,1.07,1.07,0,0,1,.32-.81,1.41,1.41,0,0,1,1.74,0,1.07,1.07,0,0,1,.32.81,1,1,0,0,1-.32.8,1.41,1.41,0,0,1-1.74,0Z" fill="#003a50"/><path d="M306.6,119.19l-2.49,2V118.9l2.73-2.27h1.87v11.91H306.6Z" fill="#003a50"/></g></svg>