<svg id="Слой_1" data-name="Слой 1" xmlns="http://www.w3.org/2000/svg" xmlns:xlink="http://www.w3.org/1999/xlink" viewBox="0 0 586.77 547.09"><defs><clipPath id="clip-path"><polygon points="0.85 0 0.85 480.67 267.93 480.67 267.93 547.09 586.77 547.09 586.77 0 0.85 0" fill="none"/></clipPath></defs><polygon points="582.19 49.72 582.19 367.84 586.77 368.13 586.77 49.72 582.19 49.72" fill="#fff"/><polygon points="51.41 48.73 51.41 353.89 51.41 367.28 51.41 469 286.73 469 286.73 533.26 513.04 540.15 524.82 537.14 524.82 429.91 524.82 382.62 538.59 370.24 573.34 367.28 573.34 48.73 51.41 48.73" fill="#fff"/><polygon points="51.41 467.71 51.41 480.67 267.93 480.67 267.93 547.09 514.18 547.09 514.16 534.61 288.66 534.61 288.66 467.71 51.41 467.71" fill="#fff"/><g clip-path="url(#clip-path)"><rect x="27.76" y="25.42" width="1115.44" height="2194.74" fill="none" stroke="#003a50" stroke-miterlimit="10"/><polygon points="53.38 1111.41 53.38 2197.21 1119.86 2197.21 1119.86 49.87 53.38 49.72 53.38 1042.63 53.38 1111.41" fill="none" stroke="#003a50" stroke-miterlimit="10"/></g><rect x="419.97" y="35.4" width="85.55" height="4.55" fill="#fff"/><rect x="419.97" y="35.4" width="85.55" height="4.55" fill="none" stroke="#003a50" stroke-miterlimit="10"/><line x1="505.52" y1="37.68" x2="419.97" y2="37.68" fill="none" stroke="#003a50" stroke-miterlimit="10"/><rect x="501.2" y="35.4" width="4.32" height="4.55" fill="#fff"/><rect x="501.2" y="35.4" width="4.32" height="4.55" fill="none" stroke="#003a50" stroke-miterlimit="10"/><rect x="419.97" y="35.4" width="4.32" height="4.55" fill="#fff"/><rect x="419.97" y="35.4" width="4.32" height="4.55" fill="none" stroke="#003a50" stroke-miterlimit="10"/><rect x="460.59" y="35.4" width="4.32" height="4.55" fill="#fff"/><rect x="460.59" y="35.4" width="4.32" height="4.55" fill="none" stroke="#003a50" stroke-miterlimit="10"/><rect x="113.96" y="35.4" width="88.42" height="4.55" fill="#fff"/><rect x="113.96" y="35.4" width="88.42" height="4.55" fill="none" stroke="#003a50" stroke-miterlimit="10"/><line x1="202.38" y1="37.68" x2="113.96" y2="37.68" fill="none" stroke="#003a50" stroke-miterlimit="10"/><rect x="197.91" y="35.4" width="4.46" height="4.55" fill="#fff"/><rect x="197.92" y="35.4" width="4.46" height="4.55" fill="none" stroke="#003a50" stroke-miterlimit="10"/><rect x="113.96" y="35.4" width="4.46" height="4.55" fill="#fff"/><rect x="113.96" y="35.4" width="4.46" height="4.55" fill="none" stroke="#003a50" stroke-miterlimit="10"/><rect x="155.94" y="35.4" width="4.46" height="4.55" fill="#fff"/><rect x="155.94" y="35.4" width="4.46" height="4.55" fill="none" stroke="#003a50" stroke-miterlimit="10"/><rect x="298.45" y="35.4" width="86.95" height="4.55" fill="#fff"/><rect x="298.45" y="35.4" width="86.95" height="4.55" fill="none" stroke="#003a50" stroke-miterlimit="10"/><line x1="385.39" y1="37.68" x2="298.45" y2="37.68" fill="none" stroke="#003a50" stroke-miterlimit="10"/><rect x="381.01" y="35.4" width="4.39" height="4.55" fill="#fff"/><rect x="381.01" y="35.4" width="4.39" height="4.55" fill="none" stroke="#003a50" stroke-miterlimit="10"/><rect x="298.44" y="35.4" width="4.39" height="4.55" fill="#fff"/><rect x="298.44" y="35.4" width="4.39" height="4.55" fill="none" stroke="#003a50" stroke-miterlimit="10"/><rect x="339.73" y="35.4" width="4.39" height="4.55" fill="#fff"/><rect x="339.73" y="35.4" width="4.39" height="4.55" fill="none" stroke="#003a50" stroke-miterlimit="10"/><rect x="37.49" y="305.21" width="4.55" height="88.24" fill="#fff"/><rect x="37.49" y="305.21" width="4.55" height="88.24" fill="none" stroke="#003a50" stroke-miterlimit="10"/><line x1="39.76" y1="305.21" x2="39.76" y2="393.45" fill="none" stroke="#003a50" stroke-miterlimit="10"/><rect x="37.49" y="305.21" width="4.55" height="4.46" fill="#fff"/><rect x="37.49" y="305.21" width="4.55" height="4.46" fill="none" stroke="#003a50" stroke-miterlimit="10"/><rect x="37.49" y="389" width="4.55" height="4.45" fill="#fff"/><rect x="37.49" y="389" width="4.55" height="4.45" fill="none" stroke="#003a50" stroke-miterlimit="10"/><rect x="37.49" y="347.11" width="4.55" height="4.45" fill="#fff"/><rect x="37.49" y="347.11" width="4.55" height="4.45" fill="none" stroke="#003a50" stroke-miterlimit="10"/><rect x="37.49" y="122.74" width="4.55" height="86.28" fill="#fff"/><rect x="37.49" y="122.74" width="4.55" height="86.28" fill="none" stroke="#003a50" stroke-miterlimit="10"/><line x1="39.76" y1="122.74" x2="39.76" y2="209.03" fill="none" stroke="#003a50" stroke-miterlimit="10"/><rect x="37.49" y="122.74" width="4.55" height="4.36" fill="#fff"/><rect x="37.49" y="122.74" width="4.55" height="4.36" fill="none" stroke="#003a50" stroke-miterlimit="10"/><rect x="37.49" y="204.67" width="4.55" height="4.36" fill="#fff"/><rect x="37.49" y="204.67" width="4.55" height="4.36" fill="none" stroke="#003a50" stroke-miterlimit="10"/><rect x="37.49" y="163.71" width="4.55" height="4.36" fill="#fff"/><rect x="37.49" y="163.71" width="4.55" height="4.36" fill="none" stroke="#003a50" stroke-miterlimit="10"/><g clip-path="url(#clip-path)"><path d="M87.64,317.51a1.25,1.25,0,0,1-1.2,1.3,13.79,13.79,0,0,0,1.07,27.55,1.26,1.26,0,1,1,.09,2.51,16.3,16.3,0,1,1-1.26-32.57A1.25,1.25,0,0,1,87.64,317.51Z" fill="none" stroke="#003a50" stroke-miterlimit="10"/><path d="M94.59,355.06a1.26,1.26,0,0,1,.87,1.56A13.78,13.78,0,0,0,122,364.11a1.26,1.26,0,1,1,2.42.69A16.3,16.3,0,1,1,93,355.93,1.26,1.26,0,0,1,94.59,355.06Z" fill="none" stroke="#003a50" stroke-miterlimit="10"/><path d="M132.36,359.43a1.26,1.26,0,0,1,1.75-.35,13.79,13.79,0,0,0,15.33-22.92,1.25,1.25,0,0,1-.35-1.74,1.27,1.27,0,0,1,1.75-.35,16.3,16.3,0,0,1-18.13,27.1A1.25,1.25,0,0,1,132.36,359.43Z" fill="none" stroke="#003a50" stroke-miterlimit="10"/><path d="M149.54,324.86a1.27,1.27,0,0,1,.21-1.77,13.78,13.78,0,0,0-17.05-21.66,1.26,1.26,0,1,1-1.56-2,16.3,16.3,0,1,1,20.17,25.6A1.26,1.26,0,0,1,149.54,324.86Z" fill="none" stroke="#003a50" stroke-miterlimit="10"/><path d="M120.72,300.8a1.25,1.25,0,0,1-.85-1.56,13.79,13.79,0,0,0-26.46-7.75,1.26,1.26,0,1,1-2.42-.7A16.3,16.3,0,1,1,122.28,300,1.25,1.25,0,0,1,120.72,300.8Z" fill="none" stroke="#003a50" stroke-miterlimit="10"/><path d="M97.48,344.82l-9.36.36a12.65,12.65,0,1,1-1-25.28l9-.32a23.7,23.7,0,0,0,1.28,25.24Z" fill="none" stroke="#003a50" stroke-miterlimit="10"/><path d="M123.64,354.06l-2.56,9.08a12.65,12.65,0,0,1-24.36-6.84l2.6-9.2a23.6,23.6,0,0,0,24.32,7Z" fill="none" stroke="#003a50" stroke-miterlimit="10"/><path d="M151.72,354.26a12.67,12.67,0,0,1-17.52,3.52l-7.28-4.88A23.88,23.88,0,0,0,140,337.66a24.8,24.8,0,0,0,.84-5.84l7.36,4.92A12.63,12.63,0,0,1,151.72,354.26Z" fill="none" stroke="#003a50" stroke-miterlimit="10"/><path d="M148.52,322.62l-7.72,6.08a23.88,23.88,0,0,0-15.56-20l7.64-6a12.65,12.65,0,1,1,15.64,19.88Z" fill="none" stroke="#003a50" stroke-miterlimit="10"/><path d="M118.6,299.54l-2.28,7.76a23.58,23.58,0,0,0-9.08,2.12L92,304.94a1.21,1.21,0,0,1-.84-1.52l3.08-10.64a12.87,12.87,0,0,1,13.2-9.4A12.67,12.67,0,0,1,118.6,299.54Z" fill="none" stroke="#003a50" stroke-miterlimit="10"/><path d="M140.88,331.82a24.8,24.8,0,0,1-.84,5.84,23.88,23.88,0,0,1-13.12,15.24,24.6,24.6,0,0,1-3.28,1.16,23.6,23.6,0,0,1-24.32-7,25.46,25.46,0,0,1-1.84-2.28,23.7,23.7,0,0,1-1.28-25.24,24,24,0,0,1,11-10.16,23.84,23.84,0,0,1,16.32-1.24c.56.16,1.12.36,1.68.56a23.88,23.88,0,0,1,15.56,20A27.09,27.09,0,0,1,140.88,331.82Z" fill="none" stroke="#003a50" stroke-miterlimit="10"/></g><rect x="315.36" y="504.41" width="72.48" height="29.76" fill="none" stroke="#003a50" stroke-miterlimit="10"/><rect x="53.65" y="433.13" width="230.49" height="34.52" fill="none" stroke="#003a50" stroke-miterlimit="10"/><g clip-path="url(#clip-path)"><path d="M508.94,333.52v28.85h-22.8V333.52a11.4,11.4,0,1,1,22.8,0Z" fill="none" stroke="#003a50" stroke-miterlimit="10"/></g><line x1="486.14" y1="351.14" x2="508.94" y2="351.14" fill="none" stroke="#003a50" stroke-miterlimit="10"/><g clip-path="url(#clip-path)"><path d="M524.82,298.32h23a3.35,3.35,0,0,1,3.36,3.35v22.25a3.36,3.36,0,0,1-3.36,3.36h-23a3.36,3.36,0,0,1-3.35-3.36V301.67A3.35,3.35,0,0,1,524.82,298.32Z" fill="none" stroke="#003a50" stroke-miterlimit="10"/><path d="M534.05,312.8a2.27,2.27,0,1,1,2.27,2.26A2.27,2.27,0,0,1,534.05,312.8Z" fill="none" stroke="#003a50" stroke-miterlimit="10"/><path d="M524.82,331.9h23a3.36,3.36,0,0,1,3.36,3.36v22.25a3.35,3.35,0,0,1-3.36,3.35h-23a3.35,3.35,0,0,1-3.35-3.35V335.26A3.36,3.36,0,0,1,524.82,331.9Z" fill="none" stroke="#003a50" stroke-miterlimit="10"/><path d="M534.06,346.38a2.27,2.27,0,1,1,2.26,2.27A2.26,2.26,0,0,1,534.06,346.38Z" fill="none" stroke="#003a50" stroke-miterlimit="10"/></g><rect x="387.88" y="438.1" width="43.33" height="96.06" fill="none" stroke="#003a50" stroke-miterlimit="10"/><g clip-path="url(#clip-path)"><path d="M393.25,514V458.25a15.94,15.94,0,0,1,15.94-15.93h.73a15.93,15.93,0,0,1,15.93,15.93V514a15.93,15.93,0,0,1-15.93,15.93h-.73A15.94,15.94,0,0,1,393.25,514Z" fill="none" stroke="#003a50" stroke-miterlimit="10"/><path d="M409.55,512.42a2.27,2.27,0,1,1-2.27,2.27A2.27,2.27,0,0,1,409.55,512.42Z" fill="none" stroke="#003a50" stroke-miterlimit="10"/><rect x="380.36" y="546.63" width="41.13" height="98.9" fill="none" stroke="#003a50" stroke-miterlimit="10"/><path d="M344.29,477.54H315.44V454.75h28.85a11.4,11.4,0,1,1,0,22.79Z" fill="none" stroke="#003a50" stroke-miterlimit="10"/></g><line x1="326.66" y1="454.75" x2="326.66" y2="477.54" fill="none" stroke="#003a50" stroke-miterlimit="10"/><g clip-path="url(#clip-path)"><rect x="355.13" y="506.81" width="28.96" height="29.71" rx="3.36" fill="none" stroke="#003a50" stroke-miterlimit="10"/><circle cx="369.61" cy="521.66" r="2.27" transform="translate(-216.13 777.88) rotate(-78.31)" fill="none" stroke="#003a50" stroke-miterlimit="10"/><rect x="421.6" y="546.98" width="37.82" height="26.34" fill="none" stroke="#003a50" stroke-miterlimit="10"/><rect x="427.2" y="544.88" width="25.64" height="26.31" rx="2.97" fill="none" stroke="#003a50" stroke-miterlimit="10"/></g><rect x="315.68" y="504.42" width="34.02" height="28.84" fill="none" stroke="#003a50" stroke-miterlimit="10"/><g clip-path="url(#clip-path)"><path d="M338,510.53h-2.11a3.07,3.07,0,0,1-5.72,0h-2.78l-5.29,3,2.53,4,2.38-1.27v10.86h11.37V516.28l2.38,1.27,2.52-4Z" fill="none" stroke="#003a50" stroke-miterlimit="10"/><rect x="459.41" y="547.16" width="30.12" height="26.16" fill="none" stroke="#003a50" stroke-miterlimit="10"/></g><rect x="109.32" y="433.41" width="34.02" height="34.02" fill="none" stroke="#003a50" stroke-miterlimit="10"/><g clip-path="url(#clip-path)"><path d="M138.74,458a4.69,4.69,0,1,1-4.69-4.7A4.69,4.69,0,0,1,138.74,458Z" fill="none" stroke="#003a50" stroke-miterlimit="10"/><path d="M123.3,458a4.69,4.69,0,1,1-4.69-4.7A4.69,4.69,0,0,1,123.3,458Z" fill="none" stroke="#003a50" stroke-miterlimit="10"/><path d="M138.74,442.84a4.69,4.69,0,1,1-4.69-4.7A4.69,4.69,0,0,1,138.74,442.84Z" fill="none" stroke="#003a50" stroke-miterlimit="10"/><path d="M123.3,442.84a4.69,4.69,0,1,1-4.69-4.7A4.69,4.69,0,0,1,123.3,442.84Z" fill="none" stroke="#003a50" stroke-miterlimit="10"/></g><rect x="218.94" y="433.41" width="34.02" height="34.02" fill="none" stroke="#003a50" stroke-miterlimit="10"/><line x1="235.94" y1="453.17" x2="235.94" y2="463.73" fill="none" stroke="#003a50" stroke-miterlimit="10"/><g clip-path="url(#clip-path)"><path d="M236.85,453.17H235a3.39,3.39,0,0,1-3.39-3.39v-11.2h8.6v11.2A3.39,3.39,0,0,1,236.85,453.17Z" fill="none" stroke="#003a50" stroke-miterlimit="10"/></g><line x1="232.47" y1="463.73" x2="239.42" y2="463.73" fill="none" stroke="#003a50" stroke-miterlimit="10"/><rect x="53.66" y="433.41" width="34.02" height="34.02" fill="none" stroke="#003a50" stroke-miterlimit="10"/><line x1="70.67" y1="460.4" x2="70.67" y2="440.44" fill="none" stroke="#003a50" stroke-miterlimit="10"/><line x1="80.65" y1="450.42" x2="60.69" y2="450.42" fill="none" stroke="#003a50" stroke-miterlimit="10"/><line x1="77.73" y1="457.48" x2="63.62" y2="443.37" fill="none" stroke="#003a50" stroke-miterlimit="10"/><line x1="77.73" y1="443.36" x2="63.62" y2="457.48" fill="none" stroke="#003a50" stroke-miterlimit="10"/><g clip-path="url(#clip-path)"><path d="M192.76,459.06H169.41a3.35,3.35,0,0,1-3.36-3.36V440.75a3.36,3.36,0,0,1,3.36-3.36h23.35a3.36,3.36,0,0,1,3.35,3.36V455.7A3.35,3.35,0,0,1,192.76,459.06Z" fill="none" stroke="#003a50" stroke-miterlimit="10"/><circle cx="181.08" cy="452.02" r="2.46" fill="none" stroke="#003a50" stroke-miterlimit="10"/></g><line x1="181.08" y1="451.27" x2="181.08" y2="464.88" fill="none" stroke="#003a50" stroke-miterlimit="10"/><line x1="174.27" y1="464.88" x2="187.89" y2="464.88" fill="none" stroke="#003a50" stroke-miterlimit="10"/><g clip-path="url(#clip-path)"><rect x="339.82" y="547.32" width="34.02" height="68.03" fill="none" stroke="#003a50" stroke-miterlimit="10"/><rect x="274.61" y="546.63" width="65.21" height="29.22" fill="none" stroke="#003a50" stroke-miterlimit="10"/></g><rect x="438.16" y="502.2" width="56.47" height="30.8" fill="none" stroke="#003a50" stroke-miterlimit="10"/><g clip-path="url(#clip-path)"><path d="M453.66,506.57a.91.91,0,0,1,1.73-.4,26.06,26.06,0,0,1,0,22.86.91.91,0,1,1-1.63-.8,24.2,24.2,0,0,0,0-21.26A.85.85,0,0,1,453.66,506.57Z" fill="none" stroke="#003a50" stroke-miterlimit="10"/><path d="M458.7,506.57a.91.91,0,0,1,1.73-.4,26.06,26.06,0,0,1,0,22.86.91.91,0,1,1-1.63-.8,24.29,24.29,0,0,0,0-21.26A.85.85,0,0,1,458.7,506.57Z" fill="none" stroke="#003a50" stroke-miterlimit="10"/><path d="M463.74,506.57a.92.92,0,0,1,.51-.82.9.9,0,0,1,1.21.42,26,26,0,0,1,0,22.86.9.9,0,1,1-1.62-.8,24.29,24.29,0,0,0,0-21.26A.85.85,0,0,1,463.74,506.57Z" fill="none" stroke="#003a50" stroke-miterlimit="10"/><path d="M468.78,506.57a.92.92,0,0,1,.51-.82.9.9,0,0,1,1.21.42,26,26,0,0,1,0,22.86.9.9,0,1,1-1.62-.8,24.29,24.29,0,0,0,0-21.26A.85.85,0,0,1,468.78,506.57Z" fill="none" stroke="#003a50" stroke-miterlimit="10"/><path d="M473.82,506.57a.92.92,0,0,1,.51-.82.9.9,0,0,1,1.21.42,26,26,0,0,1,0,22.86.9.9,0,1,1-1.62-.8,24.29,24.29,0,0,0,0-21.26A.85.85,0,0,1,473.82,506.57Z" fill="none" stroke="#003a50" stroke-miterlimit="10"/><path d="M478.86,506.57a.92.92,0,0,1,.51-.82.9.9,0,0,1,1.21.42,26,26,0,0,1,0,22.86.91.91,0,1,1-1.63-.8A24.2,24.2,0,0,0,479,507,1,1,0,0,1,478.86,506.57Z" fill="none" stroke="#003a50" stroke-miterlimit="10"/><path d="M448.62,506.57a.91.91,0,0,1,1.73-.4,26.06,26.06,0,0,1,0,22.86.91.91,0,1,1-1.63-.8,24.2,24.2,0,0,0,0-21.26A.85.85,0,0,1,448.62,506.57Z" fill="none" stroke="#003a50" stroke-miterlimit="10"/><path d="M443.58,506.57a.91.91,0,0,1,1.73-.4,26.06,26.06,0,0,1,0,22.86.91.91,0,1,1-1.63-.8,24.2,24.2,0,0,0,0-21.26A.85.85,0,0,1,443.58,506.57Z" fill="none" stroke="#003a50" stroke-miterlimit="10"/></g><line x1="438.16" y1="517.6" x2="494.63" y2="517.6" fill="none" stroke="#003a50" stroke-miterlimit="10"/><g clip-path="url(#clip-path)"><rect x="56.32" y="480.45" width="22.68" height="22.68" fill="none" stroke="#003a50" stroke-miterlimit="10"/><path d="M74.16,498.29a9.2,9.2,0,1,1,0-13A9.22,9.22,0,0,1,74.16,498.29Z" fill="none" stroke="#003a50" stroke-miterlimit="10"/><path d="M74.78,497.59c-1.69-.16-3.41.49-5.06-1.17-2.44-2.43.14-5-2.3-7.45s-5,.14-7.46-2.3" fill="none" stroke="#003a50" stroke-miterlimit="10"/><rect x="193.62" y="480.45" width="22.68" height="22.68" fill="none" stroke="#003a50" stroke-miterlimit="10"/><path d="M211.46,498.29a9.2,9.2,0,1,1,0-13A9.22,9.22,0,0,1,211.46,498.29Z" fill="none" stroke="#003a50" stroke-miterlimit="10"/><path d="M212.08,497.59c-1.69-.16-3.41.49-5.06-1.17-2.44-2.43.14-5-2.3-7.45s-5,.14-7.46-2.3" fill="none" stroke="#003a50" stroke-miterlimit="10"/><rect x="85.32" y="480.45" width="102.05" height="113.39" fill="none" stroke="#003a50" stroke-miterlimit="10"/><path d="M177.37,584.09H95.32A2.09,2.09,0,0,1,93.23,582V514.37h86.22V582A2.08,2.08,0,0,1,177.37,584.09Z" fill="none" stroke="#003a50" stroke-miterlimit="10"/><rect x="92.98" y="487.87" width="42.5" height="22.88" rx="1.98" fill="none" stroke="#003a50" stroke-miterlimit="10"/><rect x="137.21" y="487.87" width="42.5" height="22.88" rx="1.98" fill="none" stroke="#003a50" stroke-miterlimit="10"/></g><rect x="301.04" y="234.98" width="79.37" height="34.02" fill="none" stroke="#003a50" stroke-miterlimit="10"/><rect x="320.77" y="275.33" width="34.02" height="87.1" fill="none" stroke="#003a50" stroke-miterlimit="10"/><g clip-path="url(#clip-path)"><path d="M325.59,345.36a1,1,0,0,1-.9-.56,1,1,0,0,1,.46-1.34,28.77,28.77,0,0,1,25.26,0,1,1,0,0,1-.88,1.8,26.74,26.74,0,0,0-23.5,0A1,1,0,0,1,325.59,345.36Z" fill="none" stroke="#003a50" stroke-miterlimit="10"/><path d="M325.59,339.8a1,1,0,0,1-.44-1.91,28.77,28.77,0,0,1,25.26,0,1,1,0,0,1,.46,1.34,1,1,0,0,1-1.34.46,26.83,26.83,0,0,0-23.5,0A1,1,0,0,1,325.59,339.8Z" fill="none" stroke="#003a50" stroke-miterlimit="10"/><path d="M325.59,334.23a1,1,0,0,1-.9-.56,1,1,0,0,1,.46-1.34,28.77,28.77,0,0,1,25.26,0,1,1,0,0,1-.88,1.8,26.74,26.74,0,0,0-23.5,0A1,1,0,0,1,325.59,334.23Z" fill="none" stroke="#003a50" stroke-miterlimit="10"/><path d="M325.59,328.67a1,1,0,0,1-.44-1.91,28.77,28.77,0,0,1,25.26,0,1,1,0,0,1,.46,1.34,1,1,0,0,1-1.34.46,26.83,26.83,0,0,0-23.5,0A1,1,0,0,1,325.59,328.67Z" fill="none" stroke="#003a50" stroke-miterlimit="10"/><path d="M325.59,323.1a1,1,0,0,1-.9-.56,1,1,0,0,1,.46-1.34,28.77,28.77,0,0,1,25.26,0,1,1,0,0,1-.88,1.8,26.74,26.74,0,0,0-23.5,0A1,1,0,0,1,325.59,323.1Z" fill="none" stroke="#003a50" stroke-miterlimit="10"/><path d="M325.59,317.53a1,1,0,0,1-.44-1.9,28.77,28.77,0,0,1,25.26,0,1,1,0,0,1-.88,1.8,26.74,26.74,0,0,0-23.5,0A1,1,0,0,1,325.59,317.53Z" fill="none" stroke="#003a50" stroke-miterlimit="10"/><path d="M325.59,350.93a1,1,0,0,1-.44-1.91,28.77,28.77,0,0,1,25.26,0,1,1,0,0,1,.46,1.34,1,1,0,0,1-1.34.46,26.83,26.83,0,0,0-23.5,0A1,1,0,0,1,325.59,350.93Z" fill="none" stroke="#003a50" stroke-miterlimit="10"/><path d="M325.59,356.49a1,1,0,0,1-.9-.56,1,1,0,0,1,.46-1.34,28.77,28.77,0,0,1,25.26,0,1,1,0,0,1-.88,1.8,26.74,26.74,0,0,0-23.5,0A1,1,0,0,1,325.59,356.49Z" fill="none" stroke="#003a50" stroke-miterlimit="10"/></g><line x1="337.78" y1="362.48" x2="337.78" y2="275.33" fill="none" stroke="#003a50" stroke-miterlimit="10"/><rect x="354.79" y="275.19" width="42.37" height="34.02" fill="none" stroke="#003a50" stroke-miterlimit="10"/><g clip-path="url(#clip-path)"><path d="M371.9,280a1,1,0,0,1,1.91-.44,28.77,28.77,0,0,1,0,25.26,1,1,0,0,1-1.34.45,1,1,0,0,1-.46-1.34,26.81,26.81,0,0,0,0-23.49A1,1,0,0,1,371.9,280Z" fill="none" stroke="#003a50" stroke-miterlimit="10"/><path d="M377.47,280a1,1,0,0,1,1.9-.44,28.77,28.77,0,0,1,0,25.26,1,1,0,0,1-1.8-.89,26.72,26.72,0,0,0,0-23.49A1,1,0,0,1,377.47,280Z" fill="none" stroke="#003a50" stroke-miterlimit="10"/><path d="M366.34,280a1,1,0,0,1,1.9-.44,28.77,28.77,0,0,1,0,25.26,1,1,0,0,1-1.8-.89,26.72,26.72,0,0,0,0-23.49A1,1,0,0,1,366.34,280Z" fill="none" stroke="#003a50" stroke-miterlimit="10"/><path d="M360.77,280a1,1,0,0,1,1.91-.44,28.77,28.77,0,0,1,0,25.26,1,1,0,0,1-1.34.45,1,1,0,0,1-.46-1.34,26.81,26.81,0,0,0,0-23.49A1,1,0,0,1,360.77,280Z" fill="none" stroke="#003a50" stroke-miterlimit="10"/></g><line x1="354.79" y1="292.2" x2="397.16" y2="292.2" fill="none" stroke="#003a50" stroke-miterlimit="10"/><rect x="279.82" y="275.47" width="34.02" height="93.06" fill="none" stroke="#003a50" stroke-miterlimit="10"/><g clip-path="url(#clip-path)"><path d="M284.65,350.5a1,1,0,0,1-.9-.56,1,1,0,0,1,.45-1.35,28.77,28.77,0,0,1,25.26,0,1,1,0,0,1,.46,1.34,1,1,0,0,1-1.34.46,26.81,26.81,0,0,0-23.49,0A1,1,0,0,1,284.65,350.5Z" fill="none" stroke="#003a50" stroke-miterlimit="10"/><path d="M284.65,344.93a1,1,0,0,1-.45-1.9,28.77,28.77,0,0,1,25.26,0,1,1,0,1,1-.88,1.8,26.72,26.72,0,0,0-23.49,0A1,1,0,0,1,284.65,344.93Z" fill="none" stroke="#003a50" stroke-miterlimit="10"/><path d="M284.65,339.37a1,1,0,0,1-.9-.56,1,1,0,0,1,.45-1.35,28.77,28.77,0,0,1,25.26,0,1,1,0,0,1,.46,1.34,1,1,0,0,1-1.34.46,26.81,26.81,0,0,0-23.49,0A1,1,0,0,1,284.65,339.37Z" fill="none" stroke="#003a50" stroke-miterlimit="10"/><path d="M284.65,333.8a1,1,0,0,1-.45-1.9,28.77,28.77,0,0,1,25.26,0,1,1,0,1,1-.88,1.8,26.72,26.72,0,0,0-23.49,0A1,1,0,0,1,284.65,333.8Z" fill="none" stroke="#003a50" stroke-miterlimit="10"/><path d="M284.65,328.24a1,1,0,0,1-.9-.56,1,1,0,0,1,.45-1.35,28.77,28.77,0,0,1,25.26,0,1,1,0,0,1,.46,1.34,1,1,0,0,1-1.34.46,26.81,26.81,0,0,0-23.49,0A1,1,0,0,1,284.65,328.24Z" fill="none" stroke="#003a50" stroke-miterlimit="10"/><path d="M284.65,322.67a1,1,0,0,1-.45-1.9,28.77,28.77,0,0,1,25.26,0,1,1,0,1,1-.88,1.8,26.72,26.72,0,0,0-23.49,0A1,1,0,0,1,284.65,322.67Z" fill="none" stroke="#003a50" stroke-miterlimit="10"/><path d="M284.65,356.06a1,1,0,0,1-.45-1.9,28.77,28.77,0,0,1,25.26,0,1,1,0,0,1-.88,1.8,26.72,26.72,0,0,0-23.49,0A1,1,0,0,1,284.65,356.06Z" fill="none" stroke="#003a50" stroke-miterlimit="10"/><path d="M284.65,361.63a1,1,0,0,1-.9-.56,1,1,0,0,1,.45-1.35,28.77,28.77,0,0,1,25.26,0,1,1,0,0,1,.46,1.34,1,1,0,0,1-1.34.46,26.81,26.81,0,0,0-23.49,0A.9.9,0,0,1,284.65,361.63Z" fill="none" stroke="#003a50" stroke-miterlimit="10"/></g><line x1="296.83" y1="368.58" x2="296.83" y2="275.47" fill="none" stroke="#003a50" stroke-miterlimit="10"/><g clip-path="url(#clip-path)"><path d="M318.15,239.8a1,1,0,0,1,.56-.9,1,1,0,0,1,1.34.46,28.77,28.77,0,0,1,0,25.26,1,1,0,1,1-1.8-.88,26.74,26.74,0,0,0,0-23.5A1,1,0,0,1,318.15,239.8Z" fill="none" stroke="#003a50" stroke-miterlimit="10"/><path d="M323.72,239.8a1,1,0,0,1,1.9-.44,28.77,28.77,0,0,1,0,25.26,1,1,0,0,1-1.8-.88,26.74,26.74,0,0,0,0-23.5A1,1,0,0,1,323.72,239.8Z" fill="none" stroke="#003a50" stroke-miterlimit="10"/><path d="M329.28,239.8a1,1,0,0,1,1.91-.44,28.77,28.77,0,0,1,0,25.26,1,1,0,0,1-1.34.46,1,1,0,0,1-.46-1.34,26.83,26.83,0,0,0,0-23.5A.87.87,0,0,1,329.28,239.8Z" fill="none" stroke="#003a50" stroke-miterlimit="10"/><path d="M334.85,239.8a1,1,0,0,1,1.9-.44,28.77,28.77,0,0,1,0,25.26,1,1,0,0,1-1.8-.88,26.74,26.74,0,0,0,0-23.5A1,1,0,0,1,334.85,239.8Z" fill="none" stroke="#003a50" stroke-miterlimit="10"/><path d="M340.41,239.8a1,1,0,0,1,1.91-.44,28.77,28.77,0,0,1,0,25.26,1,1,0,0,1-1.34.46,1,1,0,0,1-.46-1.34,26.83,26.83,0,0,0,0-23.5A.87.87,0,0,1,340.41,239.8Z" fill="none" stroke="#003a50" stroke-miterlimit="10"/><path d="M346,239.8a1,1,0,0,1,.56-.9,1,1,0,0,1,1.34.46,28.77,28.77,0,0,1,0,25.26,1,1,0,0,1-1.8-.88,26.74,26.74,0,0,0,0-23.5A1,1,0,0,1,346,239.8Z" fill="none" stroke="#003a50" stroke-miterlimit="10"/><path d="M312.59,239.8a1,1,0,0,1,1.9-.44,28.77,28.77,0,0,1,0,25.26,1,1,0,0,1-1.8-.88,26.74,26.74,0,0,0,0-23.5A1,1,0,0,1,312.59,239.8Z" fill="none" stroke="#003a50" stroke-miterlimit="10"/><path d="M307,239.8a1,1,0,0,1,.56-.9,1,1,0,0,1,1.34.46,28.77,28.77,0,0,1,0,25.26,1,1,0,1,1-1.8-.88,26.74,26.74,0,0,0,0-23.5A1,1,0,0,1,307,239.8Z" fill="none" stroke="#003a50" stroke-miterlimit="10"/></g><line x1="301.03" y1="251.99" x2="380.41" y2="251.99" fill="none" stroke="#003a50" stroke-miterlimit="10"/><g clip-path="url(#clip-path)"><path d="M108.43,135.34h-41v45.77h43.25V137.56A2.21,2.21,0,0,0,108.43,135.34Z" fill="none" stroke="#003a50" stroke-miterlimit="10"/><path d="M108.66,89.47H67.4v45.78h41.26a2,2,0,0,0,2-2V91.46A2,2,0,0,0,108.66,89.47Z" fill="none" stroke="#003a50" stroke-miterlimit="10"/><path d="M110.64,181.11a3.11,3.11,0,0,1,2.83,3.33v4.22a3.11,3.11,0,0,1-2.83,3.33H62.44V78.6h47.78A3.1,3.1,0,0,1,113,81.93v4.22a3.1,3.1,0,0,1-2.82,3.32H67.39v91.64Z" fill="none" stroke="#003a50" stroke-miterlimit="10"/></g><rect x="67.4" y="89.47" width="9.25" height="91.64" fill="none" stroke="#003a50" stroke-miterlimit="10"/><rect x="203.68" y="50.64" width="17.01" height="224.22" fill="none" stroke="#003a50" stroke-miterlimit="10"/><rect x="397.44" y="95.86" width="17.01" height="101.63" fill="none" stroke="#003a50" stroke-miterlimit="10"/><polygon points="406.48 103.68 408.94 103.68 408.94 189.68 406.48 189.68 402.95 146.68 406.48 103.68" fill="none" stroke="#003a50" stroke-miterlimit="10"/><polygon points="211.64 205.75 209.19 205.75 209.19 119.75 211.64 119.75 215.18 162.75 211.64 205.75" fill="none" stroke="#003a50" stroke-miterlimit="10"/><g clip-path="url(#clip-path)"><path d="M260.64,120.66a14.78,14.78,0,0,0,15.93-23.39,1.14,1.14,0,0,0-1.78,1.43,12.47,12.47,0,0,1-14.15,19.5Z" fill="none" stroke="#003a50" stroke-miterlimit="10"/><rect x="226.62" y="66.4" width="34.02" height="84.03" rx="3.31" fill="none" stroke="#003a50" stroke-miterlimit="10"/><path d="M230.34,147.88a1.39,1.39,0,0,0,1.39-1.39V70.34a1.4,1.4,0,0,0-2.79,0v76.15a1.4,1.4,0,0,0,1.4,1.39" fill="none" stroke="#003a50" stroke-miterlimit="10"/><path d="M244.91,80.07a5.5,5.5,0,1,1,0-7.78A5.49,5.49,0,0,1,244.91,80.07Z" fill="none" stroke="#003a50" stroke-miterlimit="10"/><path d="M245.28,79.66c-1-.1-2,.29-3-.7-1.46-1.46.09-3-1.38-4.47s-3,.09-4.47-1.38" fill="none" stroke="#003a50" stroke-miterlimit="10"/><path d="M260.64,116a10.64,10.64,0,1,0,0-19.6Z" fill="none" stroke="#003a50" stroke-miterlimit="10"/><path d="M233.89,510.4A14.78,14.78,0,0,0,218,533.78a1.14,1.14,0,1,0,1.78-1.43,12.47,12.47,0,0,1,14.15-19.5Z" fill="none" stroke="#003a50" stroke-miterlimit="10"/><rect x="233.89" y="480.62" width="34.02" height="84.03" rx="3.31" fill="none" stroke="#003a50" stroke-miterlimit="10"/><path d="M264.19,483.17a1.4,1.4,0,0,0-1.39,1.4v76.14a1.4,1.4,0,0,0,2.79,0V484.57a1.4,1.4,0,0,0-1.4-1.4" fill="none" stroke="#003a50" stroke-miterlimit="10"/><path d="M233.89,515.11a10.63,10.63,0,1,0,0,19.59Z" fill="none" stroke="#003a50" stroke-miterlimit="10"/></g><rect x="338.15" y="59.87" width="52.33" height="113.67" fill="none" stroke="#003a50" stroke-miterlimit="10"/><g clip-path="url(#clip-path)"><path d="M347.09,163.83h34a2.1,2.1,0,0,0,2.11-2.1V94.11H345v67.62A2.1,2.1,0,0,0,347.09,163.83Z" fill="none" stroke="#003a50" stroke-miterlimit="10"/></g><rect x="344.98" y="94.11" width="38.26" height="13.85" fill="none" stroke="#003a50" stroke-miterlimit="10"/><g clip-path="url(#clip-path)"><rect x="344.59" y="67.62" width="38.71" height="22.88" rx="2.2" fill="none" stroke="#003a50" stroke-miterlimit="10"/></g><rect x="548.53" y="66.67" width="22.68" height="22.68" fill="none" stroke="#003a50" stroke-miterlimit="10"/><g clip-path="url(#clip-path)"><path d="M566.37,84.51a9.19,9.19,0,1,1,0-13A9.19,9.19,0,0,1,566.37,84.51Z" fill="none" stroke="#003a50" stroke-miterlimit="10"/><path d="M567,83.82c-1.69-.17-3.41.48-5.06-1.17-2.44-2.44.14-5-2.3-7.46s-5,.14-7.46-2.3" fill="none" stroke="#003a50" stroke-miterlimit="10"/></g><rect x="548.55" y="204.01" width="22.68" height="22.68" fill="none" stroke="#003a50" stroke-miterlimit="10"/><g clip-path="url(#clip-path)"><path d="M566.39,221.85a9.19,9.19,0,1,1,0-13A9.17,9.17,0,0,1,566.39,221.85Z" fill="none" stroke="#003a50" stroke-miterlimit="10"/><path d="M567,221.16c-1.69-.17-3.41.49-5.07-1.17-2.43-2.44.14-5-2.29-7.45s-5,.13-7.46-2.31" fill="none" stroke="#003a50" stroke-miterlimit="10"/></g><rect x="457.82" y="95.15" width="113.38" height="102.05" fill="none" stroke="#003a50" stroke-miterlimit="10"/><g clip-path="url(#clip-path)"><path d="M467.56,187.2v-82a2.09,2.09,0,0,1,2.08-2.09h67.64v86.22H469.64A2.08,2.08,0,0,1,467.56,187.2Z" fill="none" stroke="#003a50" stroke-miterlimit="10"/><rect x="540.9" y="102.81" width="22.88" height="42.5" rx="1.98" fill="none" stroke="#003a50" stroke-miterlimit="10"/><rect x="540.9" y="147.04" width="22.88" height="42.5" rx="1.98" fill="none" stroke="#003a50" stroke-miterlimit="10"/></g><line x1="523.43" y1="189.54" x2="523.43" y2="102.81" fill="none" stroke="#003a50" stroke-miterlimit="10"/><rect x="519.06" y="288.75" width="29.48" height="73.78" fill="none" stroke="#003a50" stroke-miterlimit="10"/><rect x="454.63" y="247.11" width="93.07" height="41.64" fill="none" stroke="#003a50" stroke-miterlimit="10"/><g clip-path="url(#clip-path)"><path d="M528.5,283.6H473.83A15.39,15.39,0,0,1,458.72,268v0a15.38,15.38,0,0,1,15.11-15.64H528.5a15.38,15.38,0,0,1,15.11,15.64v0A15.39,15.39,0,0,1,528.5,283.6Z" fill="none" stroke="#003a50" stroke-miterlimit="10"/><path d="M526.65,267.93a2.19,2.19,0,1,1,2.19,2.27A2.22,2.22,0,0,1,526.65,267.93Z" fill="none" stroke="#003a50" stroke-miterlimit="10"/><path d="M271.45,272.44v-3.07a38.72,38.72,0,0,0-38.72-38.72v41.79" fill="none" stroke="#003a50" stroke-miterlimit="10" stroke-width="1.6"/><path d="M453.25,339.23h-3.08a38.71,38.71,0,0,1-38.71-38.71h41.79" fill="none" stroke="#003a50" stroke-miterlimit="10" stroke-width="1.6"/><path d="M385.2,436.76v-3.14a39.5,39.5,0,0,0-39.5-39.51v42.65" fill="none" stroke="#003a50" stroke-miterlimit="10" stroke-width="1.6"/><path d="M528,430.67h3.88a48.89,48.89,0,0,0,48.9-48.89H528" fill="none" stroke="#003a50" stroke-miterlimit="10" stroke-width="1.6"/><path d="M444.44,366.23v3.37a42.32,42.32,0,0,1-42.32,42.33v-45.7" fill="none" stroke="#003a50" stroke-miterlimit="10" stroke-width="1.6"/><line x1="508.29" y1="429.13" x2="453.8" y2="429.13" fill="none" stroke="#003a50" stroke-miterlimit="10" stroke-width="1.6"/><polygon points="53.38 209.51 53.38 305.25 4.05 305.25 15.71 209.51 53.38 209.51" fill="#003a50" fill-rule="evenodd"/><polygon points="601.15 50.09 505.41 50.09 505.41 0.76 601.15 12.42 601.15 50.09" fill="#003a50" fill-rule="evenodd"/><rect x="7.38" y="24.51" width="46" height="97.74" fill="#003a50"/><rect x="11.38" y="24.51" width="50.83" height="25.57" fill="#003a50"/><rect x="271.28" y="2.25" width="27.1" height="47.83" fill="#003a50"/><rect x="385.48" y="2.25" width="34.46" height="47.83" fill="#003a50"/><rect x="211.38" y="31.25" width="77.33" height="25" fill="#003a50"/><rect x="202.88" y="11.49" width="91.24" height="38.6" fill="#003a50"/><rect x="21.78" y="4.25" width="91.69" height="45.83" fill="#003a50"/><rect x="516.7" y="28.92" width="77.33" height="27.33" fill="#003a50"/><rect x="2.66" y="4.25" width="28.56" height="25" fill="#003a50"/><rect x="14.38" y="393.68" width="39" height="94.57" fill="#003a50"/><rect x="5.05" y="393.68" width="44.33" height="25.9" fill="#003a50"/><rect x="39.22" y="466.92" width="249.5" height="13.79" fill="#003a50"/><rect x="278.88" y="533.25" width="249.5" height="13.79" fill="#003a50"/><rect x="514.38" y="533.06" width="16.81" height="127.55" fill="#003a50"/><rect x="494.88" y="433.9" width="11.67" height="106.25" fill="#003a50"/><rect x="494.88" y="433.15" width="36.31" height="11.67" fill="#003a50"/><rect x="515.05" y="362.61" width="142" height="16.69" fill="#003a50"/><rect x="571.51" y="51.89" width="16.32" height="314.78" fill="#003a50"/><rect x="379.84" y="192.25" width="16.32" height="82.94" fill="#003a50"/><rect x="272.62" y="466.92" width="16.1" height="80.12" fill="#003a50"/><rect x="447.88" y="338.39" width="6.38" height="28.28" fill="#003a50"/><rect x="447.88" y="243.49" width="6.38" height="57.86" fill="#003a50"/><rect x="270.61" y="268.81" width="120.92" height="6.38" fill="#003a50"/><rect x="220.62" y="268.81" width="12.94" height="6.38" fill="#003a50"/><rect x="586.31" y="246.92" width="70.74" height="6.38" fill="#003a50"/><rect x="586.31" y="278.53" width="25.64" height="6.38" fill="#003a50"/><rect x="547.7" y="326.4" width="25.64" height="6.38" fill="#003a50"/><rect x="546.44" y="243.49" width="6.38" height="125.49" fill="#003a50"/><rect x="443.62" y="362.61" width="91.5" height="6.38" fill="#003a50"/><rect x="314.12" y="362.61" width="88.83" height="6.38" fill="#003a50"/><rect x="314.12" y="272.44" width="6.38" height="94.76" fill="#003a50"/><rect x="220.62" y="48.49" width="6.38" height="222.42" fill="#003a50"/><rect x="390.78" y="48.49" width="6.38" height="226.7" fill="#003a50"/><rect x="384.37" y="433.13" width="59.1" height="6.38" fill="#003a50"/><rect x="481.5" y="433.13" width="18.35" height="6.38" fill="#003a50"/><rect x="283.78" y="433.13" width="62.74" height="6.38" fill="#003a50"/><rect x="308.78" y="438.39" width="6.38" height="99.52" fill="#003a50"/><rect x="268.24" y="473.81" width="6.38" height="102.03" fill="#003a50"/><rect x="431.54" y="438.39" width="6.38" height="99.52" fill="#003a50"/><rect x="283.78" y="438.39" width="6.38" height="99.52" fill="#003a50"/><rect x="287.72" y="455.2" width="26.4" height="6.38" fill="#003a50"/><rect x="524.82" y="429.91" width="6.38" height="107.23" fill="#003a50"/><rect x="524.82" y="368.98" width="6.38" height="13.63" fill="#003a50"/><rect x="373.86" y="542.87" width="6.38" height="108.39" fill="#003a50"/><rect x="489.13" y="544.11" width="6.38" height="104.88" fill="#003a50"/><line x1="314.12" y1="443.22" x2="314.12" y2="440.38" fill="none" stroke="#003a50" stroke-miterlimit="10"/><line x1="314.12" y1="434.88" x2="314.12" y2="371.59" fill="none" stroke="#003a50" stroke-miterlimit="10" stroke-dasharray="5.5 5.5"/><line x1="314.12" y1="368.84" x2="314.12" y2="366" fill="none" stroke="#003a50" stroke-miterlimit="10"/><rect x="447.88" y="240.3" width="125.47" height="6.38" fill="#003a50"/><line x1="390.07" y1="241.44" x2="392.9" y2="241.44" fill="none" stroke="#003a50" stroke-miterlimit="10"/><line x1="398.77" y1="241.44" x2="489.73" y2="241.44" fill="none" stroke="#003a50" stroke-miterlimit="10" stroke-dasharray="5.87 5.87"/><line x1="492.67" y1="241.44" x2="495.5" y2="241.44" fill="none" stroke="#003a50" stroke-miterlimit="10"/></g><g clip-path="url(#clip-path)"><path d="M450.89,214.29l-2.48,2V214l2.73-2.27H453v11.91h-2.11Z" fill="#003a50"/><path d="M457.52,214.29l-2.49,2V214l2.74-2.27h1.86v11.91h-2.11Z" fill="#003a50"/><path d="M462.15,223.51a1.17,1.17,0,0,1,0-1.61,1.41,1.41,0,0,1,1.74,0,1.17,1.17,0,0,1,0,1.61,1.41,1.41,0,0,1-1.74,0Z" fill="#003a50"/><path d="M468.06,214.29l-2.49,2V214l2.74-2.27h1.86v11.91h-2.11Z" fill="#003a50"/><path d="M463,310.47h-5.83v-1.84H466v1.84l-4.52,2.65v.06h1.28a3.87,3.87,0,0,1,2.79,1,3.52,3.52,0,0,1,1.05,2.66,3.33,3.33,0,0,1-1.33,2.83,7,7,0,0,1-7.24,0,3.39,3.39,0,0,1-1.33-2.86v-.32h2.11v.32c0,1.36.95,2,2.84,2s2.84-.67,2.84-2-.94-2-2.84-2h-3.26v-1.67l4.58-2.68Z" fill="#003a50"/><path d="M468.72,320.4a1,1,0,0,1-.32-.8,1.07,1.07,0,0,1,.32-.81,1.25,1.25,0,0,1,.88-.3,1.22,1.22,0,0,1,.86.3,1.07,1.07,0,0,1,.32.81,1,1,0,0,1-.32.8,1.22,1.22,0,0,1-.86.3A1.25,1.25,0,0,1,468.72,320.4Z" fill="#003a50"/><path d="M482.34,312h-2.21s0-.06,0-.17a2.53,2.53,0,0,0-.22-.44,2.74,2.74,0,0,0-.38-.5,1.8,1.8,0,0,0-.71-.41,3,3,0,0,0-1-.17,2.55,2.55,0,0,0-2.16,1,4.51,4.51,0,0,0-.76,2.69h.06a1.63,1.63,0,0,1,.44-.43,3.55,3.55,0,0,1,.61-.37,3.67,3.67,0,0,1,.95-.3,5.41,5.41,0,0,1,1.21-.13,5,5,0,0,1,3.37,1.11,3.52,3.52,0,0,1,1.31,2.8,3.62,3.62,0,0,1-1.36,2.91,5.59,5.59,0,0,1-3.61,1.1,4.81,4.81,0,0,1-3.87-1.54,6.38,6.38,0,0,1-1.32-4.27v-.41a6.85,6.85,0,0,1,1.32-4.31,4.52,4.52,0,0,1,3.81-1.71,5.64,5.64,0,0,1,2.12.37,4,4,0,0,1,1.44.94A3.45,3.45,0,0,1,482.34,312Zm-2.5,3.15a3.67,3.67,0,0,0-4,0,2,2,0,0,0,0,3.15,3.62,3.62,0,0,0,4,0,2,2,0,0,0,0-3.15Z" fill="#003a50"/><path d="M483.09,409H481v-2.65h-7v-1.84l6.3-7.42h2.79v7.42h1.59v1.84h-1.59ZM481,404.52v-5.33h-.07l-4.48,5.28v0Z" fill="#003a50"/><path d="M486.37,408.88a1.15,1.15,0,0,1,0-1.61,1.4,1.4,0,0,1,1.73,0,1.15,1.15,0,0,1,0,1.61,1.4,1.4,0,0,1-1.73,0Z" fill="#003a50"/><path d="M498.7,409h-2.11v-2.65h-7v-1.84l6.3-7.42h2.79v7.42h1.59v1.84H498.7Zm-2.11-4.49v-5.33h-.07l-4.47,5.28v0Z" fill="#003a50"/><path d="M271,214.29l-2.48,2V214l2.73-2.27h1.86v11.91H271Z" fill="#003a50"/><path d="M277.66,214.29l-2.48,2V214l2.73-2.27h1.86v11.91h-2.11Z" fill="#003a50"/><path d="M282.29,223.51a1.17,1.17,0,0,1,0-1.61,1.41,1.41,0,0,1,1.74,0,1.17,1.17,0,0,1,0,1.61,1.41,1.41,0,0,1-1.74,0Z" fill="#003a50"/><path d="M295.91,215.09H293.7s0-.07,0-.18a2.53,2.53,0,0,0-.22-.44,2.69,2.69,0,0,0-.39-.5,1.9,1.9,0,0,0-.71-.41,2.93,2.93,0,0,0-1-.16,2.51,2.51,0,0,0-2.15,1,4.41,4.41,0,0,0-.76,2.68h.06a1.63,1.63,0,0,1,.44-.43,4.87,4.87,0,0,1,.6-.37,5,5,0,0,1,1-.3,6.06,6.06,0,0,1,1.21-.13,5,5,0,0,1,3.37,1.12,3.49,3.49,0,0,1,1.31,2.79A3.59,3.59,0,0,1,295,222.7a5.54,5.54,0,0,1-3.61,1.11,4.81,4.81,0,0,1-3.87-1.55,6.36,6.36,0,0,1-1.32-4.27v-.4a6.88,6.88,0,0,1,1.32-4.32,4.52,4.52,0,0,1,3.8-1.71,5.66,5.66,0,0,1,2.13.38,3.72,3.72,0,0,1,1.44.94A3.43,3.43,0,0,1,295.91,215.09Zm-2.51,3.14a3.65,3.65,0,0,0-3.95,0,2,2,0,0,0,0,3.15,3.63,3.63,0,0,0,4,0,1.85,1.85,0,0,0,.77-1.57A1.88,1.88,0,0,0,293.4,218.23Z" fill="#003a50"/><path d="M116,223.64H106v-1.56a2.79,2.79,0,0,1,.58-1.75,4,4,0,0,1,1.44-1.19c.5-.26,1.12-.54,1.87-.87l1.88-.77a4.07,4.07,0,0,0,1.44-.91,1.81,1.81,0,0,0,.57-1.31c0-1.25-.88-1.88-2.66-1.88s-2.68.72-2.68,2.16V216h-2.1v-.41a3.64,3.64,0,0,1,1.26-3,5.42,5.42,0,0,1,3.51-1,5.61,5.61,0,0,1,3.51,1,3.25,3.25,0,0,1,1.27,2.74,3.17,3.17,0,0,1-.55,1.84,4.28,4.28,0,0,1-1.41,1.3,16.56,16.56,0,0,1-1.83.93q-.94.42-1.83.75a5.26,5.26,0,0,0-1.4.75,1.22,1.22,0,0,0-.57,1H116Z" fill="#003a50"/><path d="M124.26,213.57h-5.82v-1.84h8.86v1.84l-4.52,2.65v.07h1.28a3.9,3.9,0,0,1,2.79,1A3.52,3.52,0,0,1,127.9,220a3.32,3.32,0,0,1-1.33,2.82,6.93,6.93,0,0,1-7.24,0,3.35,3.35,0,0,1-1.33-2.85v-.33h2.11v.33c0,1.36,1,2,2.84,2s2.84-.67,2.84-2-.94-2-2.84-2h-3.26v-1.67l4.57-2.68Z" fill="#003a50"/><path d="M130,223.51a1.17,1.17,0,0,1,0-1.61,1.41,1.41,0,0,1,1.74,0,1.17,1.17,0,0,1,0,1.61,1.41,1.41,0,0,1-1.74,0Z" fill="#003a50"/><path d="M143.62,215.09h-2.21s0-.07,0-.18a2.53,2.53,0,0,0-.22-.44,2.69,2.69,0,0,0-.39-.5,1.9,1.9,0,0,0-.71-.41,2.93,2.93,0,0,0-1-.16,2.51,2.51,0,0,0-2.15,1,4.41,4.41,0,0,0-.76,2.68h.06a1.63,1.63,0,0,1,.44-.43,4.87,4.87,0,0,1,.6-.37,5,5,0,0,1,1-.3,6.06,6.06,0,0,1,1.21-.13,5,5,0,0,1,3.37,1.12,3.49,3.49,0,0,1,1.31,2.79,3.59,3.59,0,0,1-1.36,2.91,5.54,5.54,0,0,1-3.61,1.11,4.81,4.81,0,0,1-3.87-1.55,6.36,6.36,0,0,1-1.32-4.27v-.4a6.88,6.88,0,0,1,1.32-4.32,4.52,4.52,0,0,1,3.8-1.71,5.66,5.66,0,0,1,2.13.38,3.72,3.72,0,0,1,1.44.94A3.43,3.43,0,0,1,143.62,215.09Zm-2.51,3.14a3.65,3.65,0,0,0-4,0,2,2,0,0,0,0,3.15,3.63,3.63,0,0,0,4,0,1.86,1.86,0,0,0,.78-1.57A1.89,1.89,0,0,0,141.11,218.23Z" fill="#003a50"/><path d="M140.47,418.46a5,5,0,0,1,3.34,1.06,3.69,3.69,0,0,1,1.26,3,3.73,3.73,0,0,1-1.3,3,5.39,5.39,0,0,1-3.55,1.08,5.86,5.86,0,0,1-3.56-1,3.16,3.16,0,0,1-1.29-2.69h2.11a1.55,1.55,0,0,0,.71,1.34,3.56,3.56,0,0,0,2,.48,3.13,3.13,0,0,0,2-.57,2.34,2.34,0,0,0,0-3.39,3.25,3.25,0,0,0-2.07-.58,3.6,3.6,0,0,0-1.92.42,2,2,0,0,0-.7.64l-.05.12h-2.11v-6.88h8.88v1.85h-6.77v2.95h.05a2.77,2.77,0,0,1,.4-.3,3.11,3.11,0,0,1,.55-.27A5.63,5.63,0,0,1,140.47,418.46Z" fill="#003a50"/><path d="M147.18,426.31a1,1,0,0,1-.33-.81,1,1,0,0,1,.33-.8,1.4,1.4,0,0,1,1.73,0,1,1,0,0,1,.32.8,1,1,0,0,1-.32.81,1.4,1.4,0,0,1-1.73,0Z" fill="#003a50"/><path d="M159.51,426.44H157.4v-2.65h-7V422l6.3-7.42h2.79V422h1.59v1.84h-1.59ZM157.4,422v-5.32h-.07l-4.47,5.27V422Z" fill="#003a50"/><path d="M466.76,477.3l-2.48,1.95V477l2.73-2.27h1.86v11.91h-2.11Z" fill="#003a50"/><path d="M471.39,486.52a1,1,0,0,1-.32-.81,1.06,1.06,0,0,1,.32-.8,1.25,1.25,0,0,1,.88-.3,1.23,1.23,0,0,1,.86.3,1.06,1.06,0,0,1,.32.8,1,1,0,0,1-.32.81,1.23,1.23,0,0,1-.86.3A1.25,1.25,0,0,1,471.39,486.52Z" fill="#003a50"/><path d="M484,485.89a7.73,7.73,0,0,1-7.37,0,3,3,0,0,1-1.37-2.56,2.7,2.7,0,0,1,.26-1.16,2.41,2.41,0,0,1,.65-.86,4.05,4.05,0,0,1,1.4-.77l.26-.07v-.09a3,3,0,0,1-.77-.29,2.61,2.61,0,0,1-.66-.44,2.2,2.2,0,0,1-.54-.75,2.42,2.42,0,0,1-.23-1,2.82,2.82,0,0,1,1.26-2.39,5.81,5.81,0,0,1,3.42-.89,5.89,5.89,0,0,1,3.43.89,2.83,2.83,0,0,1,1.24,2.39,2.43,2.43,0,0,1-.22,1,1.87,1.87,0,0,1-.55.74,3.42,3.42,0,0,1-1.19.68l-.23.05v.09l.28.07a6.14,6.14,0,0,1,.63.27,4.09,4.09,0,0,1,.77.5,2.71,2.71,0,0,1,.61.83,2.52,2.52,0,0,1,.28,1.19A3,3,0,0,1,484,485.89Zm-5.79-1.36a4.79,4.79,0,0,0,4.2,0,1.59,1.59,0,0,0,0-2.69,4.93,4.93,0,0,0-4.2,0,1.58,1.58,0,0,0,0,2.68Zm-.37-6.52a1.38,1.38,0,0,0,.65,1.2,3.2,3.2,0,0,0,1.82.43,3.24,3.24,0,0,0,1.82-.43,1.44,1.44,0,0,0,0-2.4,4,4,0,0,0-3.62,0A1.38,1.38,0,0,0,477.82,478Z" fill="#003a50"/><path d="M363.18,476.59h-5.82v-1.85h8.86v1.85l-4.52,2.65v.06H363a3.87,3.87,0,0,1,2.79,1,3.5,3.5,0,0,1,1.06,2.67,3.32,3.32,0,0,1-1.33,2.82,6.93,6.93,0,0,1-7.24,0,3.35,3.35,0,0,1-1.33-2.85v-.33H359V483c0,1.36,1,2,2.84,2s2.84-.66,2.84-2-.95-2-2.84-2h-3.26v-1.66l4.57-2.69Z" fill="#003a50"/><path d="M368.92,486.52a1,1,0,0,1-.32-.81,1,1,0,0,1,.32-.8,1.41,1.41,0,0,1,1.74,0,1.06,1.06,0,0,1,.32.8,1,1,0,0,1-.32.81,1.41,1.41,0,0,1-1.74,0Z" fill="#003a50"/><path d="M381.5,485.89a7.71,7.71,0,0,1-7.36,0,2.94,2.94,0,0,1-1.37-2.56,2.69,2.69,0,0,1,.25-1.16,2.32,2.32,0,0,1,.66-.86,4.11,4.11,0,0,1,1.39-.77l.26-.07v-.09a2.91,2.91,0,0,1-.76-.29,2.88,2.88,0,0,1-.67-.44,2.2,2.2,0,0,1-.54-.75,2.41,2.41,0,0,1-.22-1,2.83,2.83,0,0,1,1.25-2.39,5.81,5.81,0,0,1,3.42-.89,5.92,5.92,0,0,1,3.44.89,2.83,2.83,0,0,1,1.24,2.39,2.43,2.43,0,0,1-.22,1,2,2,0,0,1-.55.74,3.54,3.54,0,0,1-1.2.68l-.22.05v.09l.28.07a5.42,5.42,0,0,1,.62.27,4.19,4.19,0,0,1,.78.5,2.88,2.88,0,0,1,.61.83,2.63,2.63,0,0,1,.27,1.19A3,3,0,0,1,381.5,485.89Zm-5.79-1.36a3.83,3.83,0,0,0,2.1.49,3.9,3.9,0,0,0,2.11-.48,1.59,1.59,0,0,0,0-2.69,4.95,4.95,0,0,0-4.21,0,1.58,1.58,0,0,0,0,2.68Zm-.36-6.52a1.37,1.37,0,0,0,.64,1.2,4.09,4.09,0,0,0,3.65,0,1.43,1.43,0,0,0,0-2.4,4,4,0,0,0-3.62,0A1.39,1.39,0,0,0,375.35,478Z" fill="#003a50"/><path d="M372,327.25h-2.11V324.6h-7v-1.84l6.3-7.42H372v7.42h1.59v1.84H372Zm-2.11-4.49v-5.32h-.07l-4.47,5.27v.05Z" fill="#003a50"/><path d="M375.27,327.12a1,1,0,0,1-.32-.81,1,1,0,0,1,.32-.8,1.24,1.24,0,0,1,.87-.3,1.2,1.2,0,0,1,.86.3,1,1,0,0,1,.33.8,1,1,0,0,1-.33.81,1.2,1.2,0,0,1-.86.3A1.24,1.24,0,0,1,375.27,327.12Z" fill="#003a50"/><path d="M385.38,317.19h-5.82v-1.85h8.86v1.85l-4.53,2.65v.06h1.28a3.87,3.87,0,0,1,2.79,1,3.5,3.5,0,0,1,1.05,2.66,3.36,3.36,0,0,1-1.32,2.83,7,7,0,0,1-7.25,0,3.39,3.39,0,0,1-1.32-2.86v-.33h2.1v.33c0,1.36.95,2,2.84,2s2.85-.66,2.85-2-1-2-2.85-2H380.8v-1.66l4.58-2.69Z" fill="#003a50"/></g></svg>