<svg id="Слой_1" data-name="Слой 1" xmlns="http://www.w3.org/2000/svg" xmlns:xlink="http://www.w3.org/1999/xlink" viewBox="0 0 600.95 487.56"><defs><clipPath id="clip-path"><polygon points="0 0.28 0 380.41 18.27 380.41 18.27 487.56 599.81 487.56 599.81 0.28 0 0.28" fill="none"/></clipPath></defs><polygon points="81.96 478.42 82.29 487.56 549.62 487.56 549.62 478.42 81.96 478.42" fill="#fff"/><polygon points="10.86 50.32 10.86 368.44 72.89 372.27 85.72 388.52 85.72 435.78 82.96 476.5 548.96 474.18 548.96 354.59 548.96 283.67 548.96 50.32 10.86 50.32" fill="#fff"/><polygon points="0 49.33 0 368.04 2.01 367.87 2.01 49.33 0 49.33" fill="#fff"/><g clip-path="url(#clip-path)"><rect x="-543.56" y="26.02" width="1115.44" height="2194.74" fill="none" stroke="#003a50" stroke-miterlimit="10"/><polygon points="-517.94 1112.01 -517.94 2197.8 548.53 2197.8 548.53 50.47 -517.94 50.32 -517.94 1043.22 -517.94 1112.01" fill="none" stroke="#003a50" stroke-miterlimit="10"/></g><rect x="29.75" y="36" width="87.83" height="4.55" fill="#fff"/><rect x="29.75" y="36" width="87.83" height="4.55" fill="none" stroke="#003a50" stroke-miterlimit="10"/><line x1="117.58" y1="38.28" x2="29.75" y2="38.28" fill="none" stroke="#003a50" stroke-miterlimit="10"/><rect x="113.15" y="36" width="4.43" height="4.55" fill="#fff"/><rect x="113.15" y="36" width="4.43" height="4.55" fill="none" stroke="#003a50" stroke-miterlimit="10"/><rect x="29.75" y="36" width="4.43" height="4.55" fill="#fff"/><rect x="29.75" y="36" width="4.43" height="4.55" fill="none" stroke="#003a50" stroke-miterlimit="10"/><rect x="71.45" y="36" width="4.43" height="4.55" fill="#fff"/><rect x="71.45" y="36" width="4.43" height="4.55" fill="none" stroke="#003a50" stroke-miterlimit="10"/><rect x="213.15" y="36" width="87.01" height="4.55" fill="#fff"/><rect x="213.15" y="36" width="87.01" height="4.55" fill="none" stroke="#003a50" stroke-miterlimit="10"/><line x1="300.16" y1="38.28" x2="213.15" y2="38.28" fill="none" stroke="#003a50" stroke-miterlimit="10"/><rect x="295.77" y="36" width="4.39" height="4.55" fill="#fff"/><rect x="295.77" y="36" width="4.39" height="4.55" fill="none" stroke="#003a50" stroke-miterlimit="10"/><rect x="213.15" y="36" width="4.39" height="4.55" fill="#fff"/><rect x="213.15" y="36" width="4.39" height="4.55" fill="none" stroke="#003a50" stroke-miterlimit="10"/><rect x="254.46" y="36" width="4.39" height="4.55" fill="#fff"/><rect x="254.46" y="36" width="4.39" height="4.55" fill="none" stroke="#003a50" stroke-miterlimit="10"/><rect x="558.65" y="102.82" width="4.56" height="86.79" fill="#fff"/><rect x="558.65" y="102.82" width="4.56" height="86.79" fill="none" stroke="#003a50" stroke-miterlimit="10"/><line x1="560.93" y1="189.61" x2="560.93" y2="102.82" fill="none" stroke="#003a50" stroke-miterlimit="10"/><rect x="558.65" y="185.22" width="4.56" height="4.39" fill="#fff"/><rect x="558.65" y="185.23" width="4.56" height="4.38" fill="none" stroke="#003a50" stroke-miterlimit="10"/><rect x="558.65" y="102.82" width="4.56" height="4.38" fill="#fff"/><rect x="558.65" y="102.82" width="4.56" height="4.38" fill="none" stroke="#003a50" stroke-miterlimit="10"/><rect x="558.65" y="144.02" width="4.56" height="4.38" fill="#fff"/><rect x="558.65" y="144.02" width="4.56" height="4.38" fill="none" stroke="#003a50" stroke-miterlimit="10"/><rect x="558.65" y="285.7" width="4.56" height="75.38" fill="#fff"/><rect x="558.65" y="285.7" width="4.56" height="75.38" fill="none" stroke="#003a50" stroke-miterlimit="10"/><line x1="560.93" y1="361.08" x2="560.93" y2="285.7" fill="none" stroke="#003a50" stroke-miterlimit="10"/><rect x="558.65" y="357.28" width="4.56" height="3.8" fill="#fff"/><rect x="558.65" y="357.28" width="4.56" height="3.8" fill="none" stroke="#003a50" stroke-miterlimit="10"/><rect x="558.65" y="285.71" width="4.56" height="3.8" fill="#fff"/><rect x="558.65" y="285.7" width="4.56" height="3.8" fill="none" stroke="#003a50" stroke-miterlimit="10"/><rect x="558.65" y="321.48" width="4.56" height="3.81" fill="#fff"/><rect x="558.65" y="321.49" width="4.56" height="3.81" fill="none" stroke="#003a50" stroke-miterlimit="10"/><rect x="558.65" y="387.95" width="4.56" height="77.57" fill="#fff"/><rect x="558.65" y="387.95" width="4.56" height="77.57" fill="none" stroke="#003a50" stroke-miterlimit="10"/><line x1="560.93" y1="465.52" x2="560.93" y2="387.95" fill="none" stroke="#003a50" stroke-miterlimit="10"/><rect x="558.65" y="461.61" width="4.56" height="3.91" fill="#fff"/><rect x="558.65" y="461.61" width="4.56" height="3.92" fill="none" stroke="#003a50" stroke-miterlimit="10"/><rect x="558.65" y="387.96" width="4.56" height="3.92" fill="#fff"/><rect x="558.65" y="387.96" width="4.56" height="3.92" fill="none" stroke="#003a50" stroke-miterlimit="10"/><rect x="558.65" y="424.78" width="4.56" height="3.91" fill="#fff"/><rect x="558.65" y="424.78" width="4.56" height="3.92" fill="none" stroke="#003a50" stroke-miterlimit="10"/><rect x="395.9" y="36" width="151.42" height="4.55" fill="#fff"/><rect x="395.9" y="36" width="151.42" height="4.55" fill="none" stroke="#003a50" stroke-miterlimit="10"/><line x1="547.32" y1="38.28" x2="395.9" y2="38.28" fill="none" stroke="#003a50" stroke-miterlimit="10"/><rect x="505.83" y="36" width="4.84" height="4.55" fill="#fff"/><rect x="505.83" y="36" width="4.84" height="4.55" fill="none" stroke="#003a50" stroke-miterlimit="10"/><rect x="469.18" y="36" width="4.85" height="4.55" fill="#fff"/><rect x="469.18" y="36" width="4.84" height="4.55" fill="none" stroke="#003a50" stroke-miterlimit="10"/><rect x="542.48" y="36" width="4.84" height="4.55" fill="#fff"/><rect x="542.48" y="36" width="4.84" height="4.55" fill="none" stroke="#003a50" stroke-miterlimit="10"/><rect x="395.9" y="36" width="4.84" height="4.55" fill="#fff"/><rect x="395.9" y="36" width="4.84" height="4.55" fill="none" stroke="#003a50" stroke-miterlimit="10"/><rect x="432.54" y="36" width="4.84" height="4.55" fill="#fff"/><rect x="432.54" y="36" width="4.84" height="4.55" fill="none" stroke="#003a50" stroke-miterlimit="10"/><rect x="344.76" y="64.81" width="16.75" height="102.05" fill="none" stroke="#003a50" stroke-miterlimit="10"/><polygon points="352.6 72.83 356.08 115.73 352.6 158.83 350.18 158.83 350.18 72.83 352.6 72.83" fill="none" stroke="#003a50" stroke-miterlimit="10"/><rect x="428.55" y="195.27" width="113.67" height="52.33" fill="none" stroke="#003a50" stroke-miterlimit="10"/><g clip-path="url(#clip-path)"><path d="M438.26,204.21v34a2.1,2.1,0,0,0,2.1,2.11H508V202.11H440.36A2.1,2.1,0,0,0,438.26,204.21Z" fill="none" stroke="#003a50" stroke-miterlimit="10"/></g><rect x="494.13" y="202.11" width="13.85" height="38.26" fill="none" stroke="#003a50" stroke-miterlimit="10"/><g clip-path="url(#clip-path)"><path d="M534.48,203.91v34.31a2.21,2.21,0,0,1-2.21,2.2H513.8a2.2,2.2,0,0,1-2.2-2.2V203.91a2.2,2.2,0,0,1,2.2-2.2h18.47A2.21,2.21,0,0,1,534.48,203.91Z" fill="none" stroke="#003a50" stroke-miterlimit="10"/></g><rect x="235.47" y="448.55" width="103.02" height="25.39" fill="none" stroke="#003a50" stroke-miterlimit="10"/><g clip-path="url(#clip-path)"><rect x="253.32" y="450.61" width="24.4" height="25.04" rx="2.83" fill="none" stroke="#003a50" stroke-miterlimit="10"/><path d="M265.53,461.22a1.91,1.91,0,1,0,1.91,1.91A1.92,1.92,0,0,0,265.53,461.22Z" fill="none" stroke="#003a50" stroke-miterlimit="10"/><rect x="296.05" y="450.61" width="24.4" height="25.04" rx="2.83" fill="none" stroke="#003a50" stroke-miterlimit="10"/><path d="M308.26,461.22a1.91,1.91,0,1,0,1.91,1.91A1.91,1.91,0,0,0,308.26,461.22Z" fill="none" stroke="#003a50" stroke-miterlimit="10"/><rect x="186.48" y="487.23" width="43.96" height="79.58" fill="none" stroke="#003a50" stroke-miterlimit="10"/><rect x="121.33" y="487.45" width="65.14" height="27.38" fill="none" stroke="#003a50" stroke-miterlimit="10"/><path d="M107.81,92.66A1.28,1.28,0,0,1,106.6,94a13.78,13.78,0,1,0,1.07,27.54,1.26,1.26,0,0,1,.1,2.52,16.3,16.3,0,0,1-1.27-32.58A1.26,1.26,0,0,1,107.81,92.66Z" fill="none" stroke="#003a50" stroke-miterlimit="10"/><path d="M114.75,130.21a1.26,1.26,0,0,1,.87,1.56,13.78,13.78,0,0,0,26.53,7.49,1.26,1.26,0,1,1,2.42.69,16.3,16.3,0,0,1-31.37-8.87A1.26,1.26,0,0,1,114.75,130.21Z" fill="none" stroke="#003a50" stroke-miterlimit="10"/><path d="M152.53,134.58a1.25,1.25,0,0,1,1.74-.35,13.79,13.79,0,0,0,15.33-22.92,1.25,1.25,0,0,1-.35-1.74,1.27,1.27,0,0,1,1.75-.35,16.3,16.3,0,1,1-18.13,27.1A1.24,1.24,0,0,1,152.53,134.58Z" fill="none" stroke="#003a50" stroke-miterlimit="10"/><path d="M169.71,100a1.26,1.26,0,0,1,.2-1.77,13.78,13.78,0,0,0-17-21.66,1.26,1.26,0,1,1-1.56-2,16.3,16.3,0,1,1,20.17,25.6A1.25,1.25,0,0,1,169.71,100Z" fill="none" stroke="#003a50" stroke-miterlimit="10"/><path d="M140.88,76a1.26,1.26,0,0,1-.85-1.56,13.79,13.79,0,0,0-26.46-7.75,1.25,1.25,0,1,1-2.41-.7,16.3,16.3,0,1,1,31.28,9.16A1.25,1.25,0,0,1,140.88,76Z" fill="none" stroke="#003a50" stroke-miterlimit="10"/><path d="M117.64,120l-9.36.36a12.65,12.65,0,1,1-1-25.28l9-.32A23.7,23.7,0,0,0,117.64,120Z" fill="none" stroke="#003a50" stroke-miterlimit="10"/><path d="M143.8,129.22l-2.56,9.08a12.65,12.65,0,0,1-24.36-6.84l2.6-9.2a23.6,23.6,0,0,0,24.32,7Z" fill="none" stroke="#003a50" stroke-miterlimit="10"/><path d="M171.88,129.42a12.67,12.67,0,0,1-17.52,3.52l-7.28-4.88a23.88,23.88,0,0,0,13.12-15.24A24.8,24.8,0,0,0,161,107l7.36,4.92A12.63,12.63,0,0,1,171.88,129.42Z" fill="none" stroke="#003a50" stroke-miterlimit="10"/><path d="M168.68,97.78,161,103.86a23.88,23.88,0,0,0-15.56-20l7.64-6a12.65,12.65,0,1,1,15.64,19.88Z" fill="none" stroke="#003a50" stroke-miterlimit="10"/><path d="M138.76,74.7l-2.28,7.76a23.58,23.58,0,0,0-9.08,2.12L112.12,80.1a1.21,1.21,0,0,1-.84-1.52l3.08-10.64a12.87,12.87,0,0,1,13.2-9.4A12.67,12.67,0,0,1,138.76,74.7Z" fill="none" stroke="#003a50" stroke-miterlimit="10"/><path d="M161,107a24.8,24.8,0,0,1-.84,5.84,23.88,23.88,0,0,1-13.12,15.24,24.6,24.6,0,0,1-3.28,1.16,23.6,23.6,0,0,1-24.32-7,25.46,25.46,0,0,1-1.84-2.28,23.7,23.7,0,0,1-1.28-25.24,24,24,0,0,1,11-10.16,23.84,23.84,0,0,1,16.32-1.24c.56.16,1.12.36,1.68.56a23.88,23.88,0,0,1,15.56,20A27.09,27.09,0,0,1,161,107Z" fill="none" stroke="#003a50" stroke-miterlimit="10"/></g><rect x="16.78" y="51.48" width="34.02" height="196" fill="none" stroke="#003a50" stroke-miterlimit="10"/><g clip-path="url(#clip-path)"><path d="M154.72,509.25v-23a3.35,3.35,0,0,1,3.35-3.36h22.25a3.36,3.36,0,0,1,3.36,3.36v23a3.36,3.36,0,0,1-3.36,3.36H158.07A3.35,3.35,0,0,1,154.72,509.25Z" fill="none" stroke="#003a50" stroke-miterlimit="10"/></g><rect x="16.78" y="164.91" width="34.02" height="34.02" fill="none" stroke="#003a50" stroke-miterlimit="10"/><line x1="33.79" y1="183.93" x2="33.79" y2="194.49" fill="none" stroke="#003a50" stroke-miterlimit="10"/><g clip-path="url(#clip-path)"><path d="M34.7,183.93H32.88a3.39,3.39,0,0,1-3.39-3.39v-11.2h8.6v11.2A3.39,3.39,0,0,1,34.7,183.93Z" fill="none" stroke="#003a50" stroke-miterlimit="10"/></g><line x1="30.31" y1="194.49" x2="37.26" y2="194.49" fill="none" stroke="#003a50" stroke-miterlimit="10"/><rect x="16.78" y="92" width="34.02" height="34.02" fill="none" stroke="#003a50" stroke-miterlimit="10"/><g clip-path="url(#clip-path)"><path d="M46.2,116.6a4.69,4.69,0,1,1-4.7-4.7A4.69,4.69,0,0,1,46.2,116.6Z" fill="none" stroke="#003a50" stroke-miterlimit="10"/><path d="M30.76,116.6a4.69,4.69,0,1,1-4.69-4.7A4.69,4.69,0,0,1,30.76,116.6Z" fill="none" stroke="#003a50" stroke-miterlimit="10"/><path d="M46.2,101.43a4.69,4.69,0,1,1-4.7-4.7A4.69,4.69,0,0,1,46.2,101.43Z" fill="none" stroke="#003a50" stroke-miterlimit="10"/><path d="M30.76,101.43a4.69,4.69,0,1,1-4.69-4.7A4.69,4.69,0,0,1,30.76,101.43Z" fill="none" stroke="#003a50" stroke-miterlimit="10"/></g><rect x="42.04" y="329.57" width="34.02" height="34.02" fill="none" stroke="#003a50" stroke-miterlimit="10"/><g clip-path="url(#clip-path)"><path d="M64.43,338.27H62.31a3.07,3.07,0,0,1-5.71,0H53.81l-5.28,3,2.52,4L53.43,344v10.85H64.8V344l2.38,1.26,2.53-4Z" fill="none" stroke="#003a50" stroke-miterlimit="10"/></g><rect x="16.78" y="51.24" width="34.02" height="33.41" fill="none" stroke="#003a50" stroke-miterlimit="10"/><line x1="33.79" y1="77.75" x2="33.79" y2="58.14" fill="none" stroke="#003a50" stroke-miterlimit="10"/><line x1="43.77" y1="67.95" x2="23.81" y2="67.95" fill="none" stroke="#003a50" stroke-miterlimit="10"/><line x1="40.84" y1="74.88" x2="26.73" y2="61.01" fill="none" stroke="#003a50" stroke-miterlimit="10"/><line x1="40.84" y1="61.01" x2="26.73" y2="74.88" fill="none" stroke="#003a50" stroke-miterlimit="10"/><g clip-path="url(#clip-path)"><rect x="25.67" y="208.38" width="21.66" height="30.06" rx="3.36" fill="none" stroke="#003a50" stroke-miterlimit="10"/><circle cx="32.7" cy="223.41" r="2.46" transform="translate(-191.96 245.96) rotate(-87.4)" fill="none" stroke="#003a50" stroke-miterlimit="10"/></g><line x1="33.46" y1="223.41" x2="19.84" y2="223.41" fill="none" stroke="#003a50" stroke-miterlimit="10"/><line x1="19.84" y1="216.6" x2="19.84" y2="230.22" fill="none" stroke="#003a50" stroke-miterlimit="10"/><rect x="368.38" y="50.96" width="34.02" height="113.38" fill="none" stroke="#003a50" stroke-miterlimit="10"/><g clip-path="url(#clip-path)"><path d="M373.2,146.54a1,1,0,0,1-.9-.56,1,1,0,0,1,.45-1.35,28.77,28.77,0,0,1,25.26,0,1,1,0,0,1,.46,1.34,1,1,0,0,1-1.34.46,26.81,26.81,0,0,0-23.49,0A.9.9,0,0,1,373.2,146.54Z" fill="none" stroke="#003a50" stroke-miterlimit="10"/><path d="M373.2,141a1,1,0,0,1-.45-1.9,28.77,28.77,0,0,1,25.26,0,1,1,0,1,1-.88,1.8,26.72,26.72,0,0,0-23.49,0A1,1,0,0,1,373.2,141Z" fill="none" stroke="#003a50" stroke-miterlimit="10"/><path d="M373.2,135.41a1,1,0,0,1-.9-.56,1,1,0,0,1,.45-1.35,28.77,28.77,0,0,1,25.26,0,1,1,0,0,1,.46,1.34,1,1,0,0,1-1.34.46,26.81,26.81,0,0,0-23.49,0A.9.9,0,0,1,373.2,135.41Z" fill="none" stroke="#003a50" stroke-miterlimit="10"/><path d="M373.2,129.84a1,1,0,0,1-.45-1.9,28.77,28.77,0,0,1,25.26,0,1,1,0,0,1-.88,1.8,26.72,26.72,0,0,0-23.49,0A1,1,0,0,1,373.2,129.84Z" fill="none" stroke="#003a50" stroke-miterlimit="10"/><path d="M373.2,124.28a1,1,0,0,1-.9-.56,1,1,0,0,1,.45-1.35,28.77,28.77,0,0,1,25.26,0,1,1,0,0,1,.46,1.34,1,1,0,0,1-1.34.46,26.81,26.81,0,0,0-23.49,0A1,1,0,0,1,373.2,124.28Z" fill="none" stroke="#003a50" stroke-miterlimit="10"/><path d="M373.2,118.71a1,1,0,0,1-.45-1.9,28.77,28.77,0,0,1,25.26,0,1,1,0,0,1-.88,1.8,26.72,26.72,0,0,0-23.49,0A1,1,0,0,1,373.2,118.71Z" fill="none" stroke="#003a50" stroke-miterlimit="10"/><path d="M373.2,152.1a1,1,0,0,1-.9-.56,1,1,0,0,1,.45-1.34,28.77,28.77,0,0,1,25.26,0,1,1,0,1,1-.88,1.8,26.72,26.72,0,0,0-23.49,0A1,1,0,0,1,373.2,152.1Z" fill="none" stroke="#003a50" stroke-miterlimit="10"/><path d="M373.2,157.67a1,1,0,0,1-.9-.56,1,1,0,0,1,.45-1.35,28.77,28.77,0,0,1,25.26,0,1,1,0,0,1,.46,1.34,1,1,0,0,1-1.34.46,26.81,26.81,0,0,0-23.49,0A.9.9,0,0,1,373.2,157.67Z" fill="none" stroke="#003a50" stroke-miterlimit="10"/></g><line x1="385.38" y1="163.66" x2="385.38" y2="50.96" fill="none" stroke="#003a50" stroke-miterlimit="10"/><rect x="519.26" y="450.77" width="22.68" height="22.68" fill="none" stroke="#003a50" stroke-miterlimit="10"/><g clip-path="url(#clip-path)"><circle cx="530.6" cy="462.1" r="9.2" fill="none" stroke="#003a50" stroke-miterlimit="10"/><path d="M537.73,467.91c-1.7-.17-3.41.48-5.07-1.17-2.44-2.44.15-5-2.3-7.45s-5,.13-7.45-2.3" fill="none" stroke="#003a50" stroke-miterlimit="10"/></g><rect x="385.17" y="450.77" width="22.68" height="22.68" fill="none" stroke="#003a50" stroke-miterlimit="10"/><g clip-path="url(#clip-path)"><circle cx="396.5" cy="462.1" r="9.2" fill="none" stroke="#003a50" stroke-miterlimit="10"/><path d="M403.63,467.91c-1.69-.17-3.41.48-5.06-1.17-2.44-2.44.14-5-2.3-7.45s-5,.13-7.46-2.3" fill="none" stroke="#003a50" stroke-miterlimit="10"/><rect x="386.32" y="487.73" width="22.68" height="22.68" fill="none" stroke="#003a50" stroke-miterlimit="10"/><rect x="520.41" y="487.73" width="22.68" height="22.68" fill="none" stroke="#003a50" stroke-miterlimit="10"/><path d="M272.45,150.65v39h40.8v-39a1.9,1.9,0,0,0-1.91-1.91h-37A1.9,1.9,0,0,0,272.45,150.65Z" fill="none" stroke="#003a50" stroke-miterlimit="10"/><path d="M270.53,108.07h-43.4v40.78h43.4a1.92,1.92,0,0,0,1.92-1.92V110A1.92,1.92,0,0,0,270.53,108.07Z" fill="none" stroke="#003a50" stroke-miterlimit="10"/><path d="M270.53,67.28h-43.4v40.78h43.4a1.91,1.91,0,0,0,1.92-1.91V69.2A1.92,1.92,0,0,0,270.53,67.28Z" fill="none" stroke="#003a50" stroke-miterlimit="10"/><path d="M312.52,189.64a3,3,0,0,1,3,3v3.76a3,3,0,0,1-3,3H221.94V57.59H272a3,3,0,0,1,3,3v3.76a3,3,0,0,1-3,3H227.13V189.64Z" fill="none" stroke="#003a50" stroke-miterlimit="10"/></g><rect x="227.13" y="67.28" width="9.7" height="122.36" fill="none" stroke="#003a50" stroke-miterlimit="10"/><g clip-path="url(#clip-path)"><path d="M270.31,148.85H227.13v40.78h45.31V151A2.13,2.13,0,0,0,270.31,148.85Z" fill="none" stroke="#003a50" stroke-miterlimit="10"/></g><rect x="344.63" y="65.02" width="17.01" height="101.63" fill="none" stroke="#003a50" stroke-miterlimit="10"/><polygon points="352.6 158.84 350.14 158.84 350.14 72.83 352.6 72.83 356.13 115.83 352.6 158.84" fill="none" stroke="#003a50" stroke-miterlimit="10"/><g clip-path="url(#clip-path)"><path d="M477.5,84.33a14.78,14.78,0,0,0,23.39,15.93,1.14,1.14,0,1,0-1.43-1.77A12.47,12.47,0,0,1,480,84.33Z" fill="none" stroke="#003a50" stroke-miterlimit="10"/><rect x="447.73" y="50.31" width="84.03" height="34.02" rx="3.31" fill="none" stroke="#003a50" stroke-miterlimit="10"/><path d="M450.28,54a1.4,1.4,0,0,0,1.39,1.4h76.15a1.4,1.4,0,0,0,0-2.8H451.67a1.4,1.4,0,0,0-1.39,1.4" fill="none" stroke="#003a50" stroke-miterlimit="10"/><path d="M518.08,68.61a5.51,5.51,0,1,1,7.79,0A5.51,5.51,0,0,1,518.08,68.61Z" fill="none" stroke="#003a50" stroke-miterlimit="10"/><path d="M518.5,69c.1-1-.29-2,.7-3,1.46-1.46,3,.08,4.47-1.38s-.09-3,1.38-4.47" fill="none" stroke="#003a50" stroke-miterlimit="10"/><path d="M482.21,84.33a10.64,10.64,0,1,0,19.59,0Z" fill="none" stroke="#003a50" stroke-miterlimit="10"/></g><rect x="412.64" y="360.05" width="102.05" height="113.39" fill="none" stroke="#003a50" stroke-miterlimit="10"/><g clip-path="url(#clip-path)"><path d="M422.64,369.79h82.05a2.08,2.08,0,0,1,2.08,2.09v67.64H420.55V371.88A2.09,2.09,0,0,1,422.64,369.79Z" fill="none" stroke="#003a50" stroke-miterlimit="10"/><rect x="464.53" y="443.13" width="42.5" height="22.88" rx="1.98" fill="none" stroke="#003a50" stroke-miterlimit="10"/><rect x="420.3" y="443.13" width="42.5" height="22.88" rx="1.98" fill="none" stroke="#003a50" stroke-miterlimit="10"/></g><line x1="420.3" y1="425.66" x2="507.03" y2="425.66" fill="none" stroke="#003a50" stroke-miterlimit="10"/><g clip-path="url(#clip-path)"><rect x="-22.8" y="67.26" width="22.68" height="22.68" fill="none" stroke="#003a50" stroke-miterlimit="10"/><rect x="-22.78" y="204.61" width="22.68" height="22.68" fill="none" stroke="#003a50" stroke-miterlimit="10"/><rect x="-113.5" y="95.74" width="113.38" height="102.05" fill="none" stroke="#003a50" stroke-miterlimit="10"/><rect x="413.79" y="487.73" width="102.05" height="113.38" fill="none" stroke="#003a50" stroke-miterlimit="10"/></g><rect x="85.66" y="439.53" width="70.69" height="34.02" fill="none" stroke="#003a50" stroke-miterlimit="10"/><g clip-path="url(#clip-path)"><path d="M111,444.36a1,1,0,0,1,1.9-.45,28.77,28.77,0,0,1,0,25.26,1,1,0,1,1-1.8-.88,26.72,26.72,0,0,0,0-23.49A1,1,0,0,1,111,444.36Z" fill="none" stroke="#003a50" stroke-miterlimit="10"/><path d="M116.54,444.36a1,1,0,0,1,1.91-.45,28.77,28.77,0,0,1,0,25.26,1,1,0,0,1-1.34.46,1,1,0,0,1-.46-1.34,26.81,26.81,0,0,0,0-23.49A.87.87,0,0,1,116.54,444.36Z" fill="none" stroke="#003a50" stroke-miterlimit="10"/><path d="M122.11,444.36a1,1,0,0,1,1.9-.45,28.77,28.77,0,0,1,0,25.26,1,1,0,1,1-1.8-.88,26.72,26.72,0,0,0,0-23.49A1,1,0,0,1,122.11,444.36Z" fill="none" stroke="#003a50" stroke-miterlimit="10"/><path d="M127.67,444.36a1,1,0,0,1,1.91-.45,28.77,28.77,0,0,1,0,25.26,1,1,0,0,1-1.34.46,1,1,0,0,1-.46-1.34,26.81,26.81,0,0,0,0-23.49A.87.87,0,0,1,127.67,444.36Z" fill="none" stroke="#003a50" stroke-miterlimit="10"/><path d="M133.24,444.36a1,1,0,0,1,1.9-.45,28.77,28.77,0,0,1,0,25.26,1,1,0,0,1-1.8-.88,26.72,26.72,0,0,0,0-23.49A1,1,0,0,1,133.24,444.36Z" fill="none" stroke="#003a50" stroke-miterlimit="10"/><path d="M138.8,444.36a1,1,0,0,1,1.91-.45,28.77,28.77,0,0,1,0,25.26,1,1,0,0,1-1.34.46,1,1,0,0,1-.46-1.34,26.81,26.81,0,0,0,0-23.49A1,1,0,0,1,138.8,444.36Z" fill="none" stroke="#003a50" stroke-miterlimit="10"/><path d="M105.41,444.36a1,1,0,0,1,1.91-.45,28.77,28.77,0,0,1,0,25.26,1,1,0,0,1-1.34.46,1,1,0,0,1-.46-1.34,26.81,26.81,0,0,0,0-23.49A.87.87,0,0,1,105.41,444.36Z" fill="none" stroke="#003a50" stroke-miterlimit="10"/><path d="M99.85,444.36a1,1,0,0,1,1.9-.45,28.77,28.77,0,0,1,0,25.26,1,1,0,1,1-1.8-.88,26.72,26.72,0,0,0,0-23.49A1,1,0,0,1,99.85,444.36Z" fill="none" stroke="#003a50" stroke-miterlimit="10"/></g><line x1="86" y1="456.54" x2="156.34" y2="456.54" fill="none" stroke="#003a50" stroke-miterlimit="10"/><rect x="345.31" y="377.99" width="31.72" height="95.46" fill="none" stroke="#003a50" stroke-miterlimit="10"/><g clip-path="url(#clip-path)"><path d="M349.81,457.49A.92.92,0,0,1,349,457a.93.93,0,0,1,.43-1.25,26.85,26.85,0,0,1,23.55,0,.93.93,0,0,1,.42,1.25.92.92,0,0,1-1.25.43,25,25,0,0,0-21.9,0A.86.86,0,0,1,349.81,457.49Z" fill="none" stroke="#003a50" stroke-miterlimit="10"/><path d="M349.81,452.3a.92.92,0,0,1-.84-.53.93.93,0,0,1,.43-1.25,26.85,26.85,0,0,1,23.55,0,.93.93,0,0,1,.42,1.25.92.92,0,0,1-1.25.43,25,25,0,0,0-21.9,0A.86.86,0,0,1,349.81,452.3Z" fill="none" stroke="#003a50" stroke-miterlimit="10"/><path d="M349.81,447.11a.93.93,0,0,1-.84-.52.94.94,0,0,1,.43-1.26,26.85,26.85,0,0,1,23.55,0,.94.94,0,0,1,.42,1.26.93.93,0,0,1-1.25.42,25,25,0,0,0-21.9,0A.86.86,0,0,1,349.81,447.11Z" fill="none" stroke="#003a50" stroke-miterlimit="10"/><path d="M349.81,441.92a.93.93,0,0,1-.84-.52.94.94,0,0,1,.43-1.26,26.85,26.85,0,0,1,23.55,0,.94.94,0,0,1,.42,1.26.93.93,0,0,1-1.25.42,25,25,0,0,0-21.9,0A.86.86,0,0,1,349.81,441.92Z" fill="none" stroke="#003a50" stroke-miterlimit="10"/><path d="M349.81,436.73a.93.93,0,0,1-.41-1.77A26.85,26.85,0,0,1,373,435a.93.93,0,0,1,.42,1.25.94.94,0,0,1-1.25.43,24.87,24.87,0,0,0-21.9,0A1,1,0,0,1,349.81,436.73Z" fill="none" stroke="#003a50" stroke-miterlimit="10"/><path d="M349.81,431.54a.93.93,0,0,1-.41-1.77,26.85,26.85,0,0,1,23.55,0,.93.93,0,0,1,.42,1.25.94.94,0,0,1-1.25.43,24.87,24.87,0,0,0-21.9,0A1,1,0,0,1,349.81,431.54Z" fill="none" stroke="#003a50" stroke-miterlimit="10"/><path d="M349.81,462.68a.94.94,0,0,1-.41-1.78,26.85,26.85,0,0,1,23.55,0,.93.93,0,0,1,.42,1.25.92.92,0,0,1-1.25.43,25,25,0,0,0-21.9,0A.86.86,0,0,1,349.81,462.68Z" fill="none" stroke="#003a50" stroke-miterlimit="10"/><path d="M349.81,467.87a.94.94,0,0,1-.41-1.78,26.85,26.85,0,0,1,23.55,0,.93.93,0,0,1,.42,1.25.92.92,0,0,1-1.25.43,25,25,0,0,0-21.9,0A.86.86,0,0,1,349.81,467.87Z" fill="none" stroke="#003a50" stroke-miterlimit="10"/></g><line x1="361.17" y1="473.45" x2="361.17" y2="378.64" fill="none" stroke="#003a50" stroke-miterlimit="10"/><g clip-path="url(#clip-path)"><path d="M273.93,407.3V378.74H250.85V407.3a11.54,11.54,0,0,0,23.08,0Z" fill="none" stroke="#003a50" stroke-miterlimit="10"/></g><rect x="250.85" y="378.73" width="23.08" height="11.08" fill="none" stroke="#003a50" stroke-miterlimit="10"/><rect x="162.72" y="328.89" width="90.98" height="43.38" fill="none" stroke="#003a50" stroke-miterlimit="10"/><g clip-path="url(#clip-path)"><path d="M183.37,334.27h49.69a16.26,16.26,0,0,1,16.26,16.25v.12a16.26,16.26,0,0,1-16.26,16.26H183.37a16.26,16.26,0,0,1-16.26-16.26v-.12A16.25,16.25,0,0,1,183.37,334.27Z" fill="none" stroke="#003a50" stroke-miterlimit="10"/><path d="M185.32,350.58a2.35,2.35,0,1,1-2.35-2.35A2.35,2.35,0,0,1,185.32,350.58Z" fill="none" stroke="#003a50" stroke-miterlimit="10"/></g><rect x="194.46" y="378.65" width="40.48" height="94.87" fill="none" stroke="#003a50" stroke-miterlimit="10"/><g clip-path="url(#clip-path)"><rect x="199.59" y="382.52" width="30.6" height="87.38" rx="13.7" fill="none" stroke="#003a50" stroke-miterlimit="10"/><circle cx="216.56" cy="454.46" r="2.28" fill="none" stroke="#003a50" stroke-miterlimit="10"/></g><rect x="156.34" y="378.56" width="31.48" height="95.25" fill="none" stroke="#003a50" stroke-miterlimit="10"/><g clip-path="url(#clip-path)"><path d="M159.9,456.51a1,1,0,0,1-.9-.56,1,1,0,0,1,.45-1.35,28.77,28.77,0,0,1,25.26,0,1,1,0,0,1,.46,1.34,1,1,0,0,1-1.34.46,26.81,26.81,0,0,0-23.49,0A.9.9,0,0,1,159.9,456.51Z" fill="none" stroke="#003a50" stroke-miterlimit="10"/><path d="M159.9,450.94a1,1,0,0,1-.9-.56,1,1,0,0,1,.45-1.34,28.77,28.77,0,0,1,25.26,0,1,1,0,1,1-.88,1.8,26.72,26.72,0,0,0-23.49,0A1,1,0,0,1,159.9,450.94Z" fill="none" stroke="#003a50" stroke-miterlimit="10"/><path d="M159.9,445.38a1,1,0,0,1-.9-.56,1,1,0,0,1,.45-1.35,28.77,28.77,0,0,1,25.26,0,1,1,0,0,1,.46,1.34,1,1,0,0,1-1.34.46,26.81,26.81,0,0,0-23.49,0A.9.9,0,0,1,159.9,445.38Z" fill="none" stroke="#003a50" stroke-miterlimit="10"/><path d="M159.9,439.81a1,1,0,0,1-.45-1.9,28.77,28.77,0,0,1,25.26,0,1,1,0,0,1-.88,1.8,26.72,26.72,0,0,0-23.49,0A1,1,0,0,1,159.9,439.81Z" fill="none" stroke="#003a50" stroke-miterlimit="10"/><path d="M159.9,434.25a1,1,0,0,1-.9-.56,1,1,0,0,1,.45-1.35,28.77,28.77,0,0,1,25.26,0,1,1,0,0,1,.46,1.34,1,1,0,0,1-1.34.46,26.81,26.81,0,0,0-23.49,0A.9.9,0,0,1,159.9,434.25Z" fill="none" stroke="#003a50" stroke-miterlimit="10"/><path d="M159.9,428.68a1,1,0,0,1-.45-1.9,28.77,28.77,0,0,1,25.26,0,1,1,0,0,1-.88,1.8,26.72,26.72,0,0,0-23.49,0A1,1,0,0,1,159.9,428.68Z" fill="none" stroke="#003a50" stroke-miterlimit="10"/><path d="M159.9,462.07a1,1,0,0,1-.9-.56,1,1,0,0,1,.45-1.34,28.77,28.77,0,0,1,25.26,0,1,1,0,1,1-.88,1.8,26.72,26.72,0,0,0-23.49,0A1,1,0,0,1,159.9,462.07Z" fill="none" stroke="#003a50" stroke-miterlimit="10"/><path d="M159.9,467.64a1,1,0,0,1-.45-1.9,28.77,28.77,0,0,1,25.26,0,1,1,0,1,1-.88,1.8,26.72,26.72,0,0,0-23.49,0A1,1,0,0,1,159.9,467.64Z" fill="none" stroke="#003a50" stroke-miterlimit="10"/></g><line x1="172.08" y1="473.63" x2="172.08" y2="378.73" fill="none" stroke="#003a50" stroke-miterlimit="10"/><rect x="226.1" y="280.68" width="27.58" height="48.22" fill="none" stroke="#003a50" stroke-miterlimit="10"/><g clip-path="url(#clip-path)"><rect x="228.53" y="295.2" width="29.71" height="28.96" rx="3.36" fill="none" stroke="#003a50" stroke-miterlimit="10"/><circle cx="243.38" cy="309.68" r="2.27" transform="translate(-113.93 475.4) rotate(-76.72)" fill="none" stroke="#003a50" stroke-miterlimit="10"/><path d="M204.47,283V254.18H181.68V283a11.4,11.4,0,1,0,22.79,0Z" fill="none" stroke="#003a50" stroke-miterlimit="10"/></g><line x1="181.68" y1="265.4" x2="204.47" y2="265.4" fill="none" stroke="#003a50" stroke-miterlimit="10"/><rect x="42.04" y="253.73" width="34.02" height="75.73" fill="none" stroke="#003a50" stroke-miterlimit="10"/><g clip-path="url(#clip-path)"><path d="M46.87,299.1a1,1,0,0,1-.45-1.9,28.77,28.77,0,0,1,25.26,0,1,1,0,0,1-.88,1.8,26.72,26.72,0,0,0-23.49,0A1,1,0,0,1,46.87,299.1Z" fill="none" stroke="#003a50" stroke-miterlimit="10"/><path d="M46.87,293.54A1,1,0,0,1,46,293a1,1,0,0,1,.45-1.35,28.77,28.77,0,0,1,25.26,0,1,1,0,0,1,.46,1.34,1,1,0,0,1-1.34.46,26.81,26.81,0,0,0-23.49,0A1,1,0,0,1,46.87,293.54Z" fill="none" stroke="#003a50" stroke-miterlimit="10"/><path d="M46.87,288a1,1,0,0,1-.45-1.9,28.77,28.77,0,0,1,25.26,0,1,1,0,0,1-.88,1.8,26.72,26.72,0,0,0-23.49,0A1,1,0,0,1,46.87,288Z" fill="none" stroke="#003a50" stroke-miterlimit="10"/><path d="M46.87,282.41a1,1,0,0,1-.9-.56,1,1,0,0,1,.45-1.35,28.77,28.77,0,0,1,25.26,0,1,1,0,0,1,.46,1.34,1,1,0,0,1-1.34.46,26.81,26.81,0,0,0-23.49,0A1,1,0,0,1,46.87,282.41Z" fill="none" stroke="#003a50" stroke-miterlimit="10"/><path d="M46.87,276.84a1,1,0,0,1-.45-1.9,28.77,28.77,0,0,1,25.26,0,1,1,0,0,1-.88,1.8,26.72,26.72,0,0,0-23.49,0A1,1,0,0,1,46.87,276.84Z" fill="none" stroke="#003a50" stroke-miterlimit="10"/><path d="M46.87,271.27a1,1,0,0,1-.9-.56,1,1,0,0,1,.45-1.34,28.77,28.77,0,0,1,25.26,0,1,1,0,0,1-.88,1.8,26.72,26.72,0,0,0-23.49,0A1,1,0,0,1,46.87,271.27Z" fill="none" stroke="#003a50" stroke-miterlimit="10"/><path d="M46.87,304.67a1,1,0,0,1-.9-.56,1,1,0,0,1,.45-1.35,28.77,28.77,0,0,1,25.26,0,1,1,0,0,1,.46,1.34,1,1,0,0,1-1.34.46,26.81,26.81,0,0,0-23.49,0A1,1,0,0,1,46.87,304.67Z" fill="none" stroke="#003a50" stroke-miterlimit="10"/><path d="M46.87,310.23a1,1,0,0,1-.45-1.9,28.77,28.77,0,0,1,25.26,0,1,1,0,0,1-.88,1.8,26.72,26.72,0,0,0-23.49,0A1,1,0,0,1,46.87,310.23Z" fill="none" stroke="#003a50" stroke-miterlimit="10"/></g><line x1="59.05" y1="329.56" x2="59.05" y2="253.74" fill="none" stroke="#003a50" stroke-miterlimit="10"/><rect x="412.64" y="253.77" width="102.05" height="16.75" fill="none" stroke="#003a50" stroke-miterlimit="10"/><polygon points="420.67 262.68 463.56 259.2 506.67 262.68 506.67 265.1 420.67 265.1 420.67 262.68" fill="none" stroke="#003a50" stroke-miterlimit="10"/><g clip-path="url(#clip-path)"><path d="M160,285.5H156.9a38.71,38.71,0,0,0-38.72,38.71H160" fill="none" stroke="#003a50" stroke-miterlimit="10" stroke-width="1.6"/><path d="M359,250.26v3.6a45.3,45.3,0,0,1-45.3,45.31V250.26" fill="none" stroke="#003a50" stroke-miterlimit="10" stroke-width="1.6"/><path d="M293.94,378v-3.07a38.71,38.71,0,0,1,38.71-38.72V378" fill="none" stroke="#003a50" stroke-miterlimit="10" stroke-width="1.6"/><path d="M364.47,194.11h3.43a43.18,43.18,0,0,1,43.18,43.18H364.47" fill="none" stroke="#003a50" stroke-miterlimit="10" stroke-width="1.6"/><path d="M-43.32,431.26h3.88a48.89,48.89,0,0,0,48.9-48.89H-43.32" fill="none" stroke="#003a50" stroke-miterlimit="10" stroke-width="1.6"/><path d="M72.88,436.72H69a48.89,48.89,0,0,1-48.9-48.88H72.88" fill="none" stroke="#003a50" stroke-miterlimit="10" stroke-width="1.6"/><polygon points="29.82 50.68 -65.92 50.68 -65.92 1.35 29.82 13.01 29.82 50.68" fill="#003a50" fill-rule="evenodd"/><rect x="186.56" y="2.85" width="26.7" height="47.83" fill="#003a50"/><rect x="117.59" y="15.64" width="91.66" height="35.04" fill="#003a50"/><rect x="-54.63" y="29.52" width="77.33" height="27.33" fill="#003a50"/><polygon points="396.06 50.68 300.32 50.68 300.32 1.35 396.06 13.01 396.06 50.68" fill="#003a50" fill-rule="evenodd"/><rect x="311.61" y="29.52" width="77.33" height="27.33" fill="#003a50"/><rect x="75.22" y="473.83" width="488" height="13.79" fill="#003a50"/><rect x="-56.28" y="363.2" width="142" height="16.69" fill="#003a50"/><rect x="69.41" y="371.73" width="16.32" height="16.79" fill="#003a50"/><rect x="69.41" y="435.78" width="16.32" height="145.23" fill="#003a50"/><rect x="0.18" y="52.48" width="16.32" height="314.78" fill="#003a50"/><rect x="268.95" y="247.52" width="16.32" height="83.12" fill="#003a50"/><polygon points="548.19 465.65 548.19 561.39 597.52 561.39 585.86 465.65 548.19 465.65" fill="#003a50" fill-rule="evenodd"/><rect x="548.19" y="189.49" width="37.67" height="95.74" fill="#003a50"/><rect x="548.19" y="361.58" width="48.33" height="25.9" fill="#003a50"/><rect x="542.22" y="209.26" width="11.25" height="75.96" fill="#003a50"/><rect x="542.22" y="467.6" width="11.25" height="77.3" fill="#003a50"/><rect x="547.85" y="15.64" width="35.34" height="87.38" fill="#003a50"/><rect x="547.85" y="15.64" width="31.34" height="33.75" fill="#003a50"/><rect x="570.62" y="3.08" width="25.9" height="25.9" fill="#003a50"/><rect x="156.34" y="247.51" width="6.38" height="38.82" fill="#003a50"/><rect x="156.34" y="372.27" width="138.43" height="6.38" fill="#003a50"/><rect x="331.82" y="372.27" width="46.39" height="6.38" fill="#003a50"/><rect x="338.82" y="374.08" width="6.38" height="102.25" fill="#003a50"/><rect x="188.16" y="373.58" width="6.38" height="102.75" fill="#003a50"/><rect x="244.62" y="251.56" width="6.38" height="29.12" fill="#003a50"/><rect x="253.7" y="276" width="6.38" height="100.33" fill="#003a50"/><rect x="244.62" y="274.3" width="31.09" height="6.38" fill="#003a50"/><rect x="156.34" y="323.38" width="6.38" height="52.71" fill="#003a50"/><rect x="268.95" y="306.8" width="6.38" height="69.54" fill="#003a50"/><rect x="14.98" y="247.52" width="70.74" height="6.38" fill="#003a50"/><rect x="14.98" y="279.12" width="25.64" height="6.38" fill="#003a50"/><rect x="358.62" y="247.52" width="190.58" height="6.38" fill="#003a50"/><rect x="156.34" y="247.52" width="158.22" height="6.38" fill="#003a50"/><rect x="361.72" y="52.08" width="6.38" height="142.86" fill="#003a50"/><rect x="361.72" y="236.53" width="6.38" height="15.18" fill="#003a50"/><rect x="79.35" y="250.92" width="6.38" height="41.17" fill="#003a50"/><rect x="35.51" y="250.92" width="6.38" height="118.66" fill="#003a50"/><rect x="-23.63" y="327" width="25.64" height="6.38" fill="#003a50"/><rect x="79.35" y="345.58" width="6.38" height="25.17" fill="#003a50"/><rect x="230.44" y="478.33" width="6.38" height="94.52" fill="#003a50"/><rect x="114.47" y="478.33" width="6.38" height="92.32" fill="#003a50"/><line x1="377.69" y1="251.67" x2="377.69" y2="254.5" fill="none" stroke="#003a50" stroke-miterlimit="10"/><line x1="377.69" y1="260.25" x2="377.69" y2="372.29" fill="none" stroke="#003a50" stroke-miterlimit="10" stroke-dasharray="5.74 5.74"/><line x1="377.69" y1="375.16" x2="377.69" y2="378" fill="none" stroke="#003a50" stroke-miterlimit="10"/><line x1="84.48" y1="249.28" x2="87.31" y2="249.28" fill="none" stroke="#003a50" stroke-miterlimit="10"/><line x1="93.18" y1="249.28" x2="184.14" y2="249.28" fill="none" stroke="#003a50" stroke-miterlimit="10" stroke-dasharray="5.87 5.87"/><line x1="187.07" y1="249.28" x2="189.91" y2="249.28" fill="none" stroke="#003a50" stroke-miterlimit="10"/><rect x="-123.45" y="240.9" width="125.47" height="6.38" fill="#003a50"/></g><g clip-path="url(#clip-path)"><path d="M474.89,310.76l-2.48,1.95v-2.24l2.73-2.27H477v11.91h-2.11Z" fill="#003a50"/><path d="M485.72,310H479.9V308.2h8.86V310l-4.52,2.65v.07h1.28a3.9,3.9,0,0,1,2.79,1,3.52,3.52,0,0,1,1.05,2.67,3.32,3.32,0,0,1-1.33,2.82,7,7,0,0,1-7.24,0,3.36,3.36,0,0,1-1.33-2.86v-.32h2.11v.32c0,1.37.95,2,2.84,2s2.84-.67,2.84-2-.95-2-2.84-2h-3.26v-1.67l4.57-2.68Z" fill="#003a50"/><path d="M491.46,320a1,1,0,0,1-.32-.81,1.07,1.07,0,0,1,.32-.81,1.41,1.41,0,0,1,1.74,0,1.07,1.07,0,0,1,.32.81,1,1,0,0,1-.32.81,1.45,1.45,0,0,1-1.74,0Z" fill="#003a50"/><path d="M503.79,320.11h-2.1v-2.65h-7v-1.85L501,308.2h2.79v7.41h1.6v1.85h-1.6Zm-2.1-4.5v-5.32h-.07l-4.48,5.27v.05Z" fill="#003a50"/><path d="M329.19,310h-5.82V308.2h8.86V310l-4.53,2.65v.07H329a3.9,3.9,0,0,1,2.79,1,3.53,3.53,0,0,1,1.06,2.67,3.35,3.35,0,0,1-1.33,2.82,7,7,0,0,1-7.25,0,3.38,3.38,0,0,1-1.32-2.86v-.32H325v.32c0,1.37.94,2,2.84,2s2.84-.67,2.84-2-1-2-2.84-2h-3.27v-1.67l4.58-2.68Z" fill="#003a50"/><path d="M334.93,320a1,1,0,0,1-.33-.81,1,1,0,0,1,.33-.81,1.4,1.4,0,0,1,1.73,0,1,1,0,0,1,.33.81,1,1,0,0,1-.33.81,1.44,1.44,0,0,1-1.73,0Z" fill="#003a50"/><path d="M347.51,319.34a7.77,7.77,0,0,1-7.37,0,3,3,0,0,1-1.37-2.56,2.74,2.74,0,0,1,.26-1.17,2.46,2.46,0,0,1,.65-.85,4,4,0,0,1,1.4-.77l.26-.07v-.09a3.57,3.57,0,0,1-.77-.29,2.61,2.61,0,0,1-.66-.44,2.24,2.24,0,0,1-.54-.76,2.38,2.38,0,0,1-.22-1,2.79,2.79,0,0,1,1.25-2.38,7,7,0,0,1,6.85,0,2.83,2.83,0,0,1,1.25,2.38,2.67,2.67,0,0,1-.22,1.05,1.88,1.88,0,0,1-.56.74,3.59,3.59,0,0,1-1.19.68l-.23.05v.09l.29.07a5.44,5.44,0,0,1,.62.26,4.28,4.28,0,0,1,.77.51,2.83,2.83,0,0,1,.62.82,2.71,2.71,0,0,1,.27,1.2A2.94,2.94,0,0,1,347.51,319.34ZM341.72,318a3.84,3.84,0,0,0,2.1.48,3.94,3.94,0,0,0,2.1-.47,1.6,1.6,0,0,0,0-2.7,4.93,4.93,0,0,0-4.2,0,1.53,1.53,0,0,0-.74,1.35A1.51,1.51,0,0,0,341.72,318Zm-.37-6.52a1.36,1.36,0,0,0,.65,1.19,4,4,0,0,0,3.64,0,1.42,1.42,0,0,0,0-2.39,4,4,0,0,0-3.62,0A1.36,1.36,0,0,0,341.35,311.47Z" fill="#003a50"/><path d="M184.94,303.34h-5.82V301.5H188v1.84L183.46,306v.07h1.28a3.86,3.86,0,0,1,2.79,1,3.52,3.52,0,0,1,1.05,2.67,3.32,3.32,0,0,1-1.33,2.82,7,7,0,0,1-7.24,0,3.36,3.36,0,0,1-1.33-2.86v-.32h2.11v.32c0,1.36,1,2,2.84,2s2.84-.67,2.84-2-.95-2-2.84-2h-3.26v-1.67l4.57-2.68Z" fill="#003a50"/><path d="M190.68,313.27a1,1,0,0,1-.32-.8,1.07,1.07,0,0,1,.32-.81,1.41,1.41,0,0,1,1.74,0,1.07,1.07,0,0,1,.32.81,1,1,0,0,1-.32.8,1.41,1.41,0,0,1-1.74,0Z" fill="#003a50"/><path d="M204.3,304.85h-2.21s0-.06,0-.17a1.85,1.85,0,0,0-.21-.44,2.69,2.69,0,0,0-.39-.5,1.77,1.77,0,0,0-.71-.41,2.93,2.93,0,0,0-1-.16,2.51,2.51,0,0,0-2.15,1,4.39,4.39,0,0,0-.76,2.68h.06a1.49,1.49,0,0,1,.44-.43,3.9,3.9,0,0,1,.6-.37,4.45,4.45,0,0,1,1-.3,5.56,5.56,0,0,1,1.22-.13,5,5,0,0,1,3.37,1.11,3.52,3.52,0,0,1,1.31,2.8,3.57,3.57,0,0,1-1.37,2.91,5.55,5.55,0,0,1-3.6,1.1,4.81,4.81,0,0,1-3.87-1.54,6.36,6.36,0,0,1-1.32-4.27v-.41a6.85,6.85,0,0,1,1.32-4.31,4.52,4.52,0,0,1,3.8-1.71,5.66,5.66,0,0,1,2.13.38,3.82,3.82,0,0,1,1.44.93A3.45,3.45,0,0,1,204.3,304.85ZM201.79,308a3.65,3.65,0,0,0-3.95,0,2,2,0,0,0,0,3.15,3.63,3.63,0,0,0,4,0,2,2,0,0,0,0-3.15Z" fill="#003a50"/><path d="M296.41,419.83H294.3v-2.65h-7v-1.85l6.29-7.41h2.79v7.41H298v1.85h-1.6Zm-2.11-4.5V410h-.06l-4.48,5.27v.05Z" fill="#003a50"/><path d="M299.69,419.69a1,1,0,0,1-.32-.8,1.07,1.07,0,0,1,.32-.81,1.41,1.41,0,0,1,1.74,0,1.07,1.07,0,0,1,.32.81,1,1,0,0,1-.32.8,1.41,1.41,0,0,1-1.74,0Z" fill="#003a50"/><path d="M313.31,411.27H311.1s0-.06,0-.17a2.53,2.53,0,0,0-.22-.44,2.69,2.69,0,0,0-.39-.5,1.77,1.77,0,0,0-.71-.41,2.93,2.93,0,0,0-1-.16,2.51,2.51,0,0,0-2.15,1,4.39,4.39,0,0,0-.76,2.68h.06a1.49,1.49,0,0,1,.44-.43,3.9,3.9,0,0,1,.6-.37,4.45,4.45,0,0,1,.95-.3,5.56,5.56,0,0,1,1.22-.13,5,5,0,0,1,3.37,1.11,3.52,3.52,0,0,1,1.31,2.8,3.59,3.59,0,0,1-1.36,2.91,5.59,5.59,0,0,1-3.61,1.1,4.81,4.81,0,0,1-3.87-1.54,6.36,6.36,0,0,1-1.32-4.27v-.41a6.85,6.85,0,0,1,1.32-4.31,4.52,4.52,0,0,1,3.8-1.71,5.66,5.66,0,0,1,2.13.38,3.82,3.82,0,0,1,1.44.93A3.45,3.45,0,0,1,313.31,411.27Zm-2.51,3.15a3.65,3.65,0,0,0-3.95,0,2,2,0,0,0,0,3.15,3.63,3.63,0,0,0,4,0,2,2,0,0,0,0-3.15Z" fill="#003a50"/><path d="M111.23,224.23h-9.94v-1.56a2.75,2.75,0,0,1,.59-1.74,4,4,0,0,1,1.44-1.2c.5-.25,1.12-.54,1.87-.86s1.32-.56,1.88-.77a4.09,4.09,0,0,0,1.44-.92,1.78,1.78,0,0,0,.57-1.3c0-1.26-.88-1.89-2.66-1.89s-2.68.72-2.68,2.16v.41h-2.1v-.41a3.62,3.62,0,0,1,1.26-3,5.34,5.34,0,0,1,3.51-1,5.61,5.61,0,0,1,3.51,1,3.29,3.29,0,0,1,1.27,2.75,3.17,3.17,0,0,1-.55,1.84,4.39,4.39,0,0,1-1.41,1.3c-.59.34-1.21.65-1.83.93s-1.24.53-1.83.75a5.55,5.55,0,0,0-1.4.74,1.25,1.25,0,0,0-.57,1h7.63Z" fill="#003a50"/><path d="M123.19,224.23h-9.93v-1.56a2.8,2.8,0,0,1,.58-1.74,4.12,4.12,0,0,1,1.45-1.2c.5-.25,1.12-.54,1.87-.86s1.32-.56,1.87-.77a4.14,4.14,0,0,0,1.45-.92,1.78,1.78,0,0,0,.57-1.3c0-1.26-.89-1.89-2.66-1.89s-2.68.72-2.68,2.16v.41H113.6v-.41a3.62,3.62,0,0,1,1.26-3,5.39,5.39,0,0,1,3.52-1,5.65,5.65,0,0,1,3.51,1,3.29,3.29,0,0,1,1.27,2.75,3.1,3.1,0,0,1-.56,1.84,4.26,4.26,0,0,1-1.4,1.3q-.9.51-1.83.93t-1.83.75a5.38,5.38,0,0,0-1.4.74,1.25,1.25,0,0,0-.57,1h7.62Z" fill="#003a50"/><path d="M125.3,224.1a1,1,0,0,1-.33-.8,1,1,0,0,1,.33-.81,1.4,1.4,0,0,1,1.73,0,1,1,0,0,1,.32.81,1,1,0,0,1-.32.8,1.4,1.4,0,0,1-1.73,0Z" fill="#003a50"/><path d="M138.92,215.68h-2.21s0-.06,0-.17a2.53,2.53,0,0,0-.22-.44,2.36,2.36,0,0,0-.38-.5,1.8,1.8,0,0,0-.71-.41,3,3,0,0,0-1-.17,2.52,2.52,0,0,0-2.15,1,4.44,4.44,0,0,0-.77,2.69h.06a1.8,1.8,0,0,1,.44-.44,4.24,4.24,0,0,1,.61-.36,3.81,3.81,0,0,1,1-.3,5.41,5.41,0,0,1,1.21-.13,5.06,5.06,0,0,1,3.38,1.11,3.51,3.51,0,0,1,1.3,2.8A3.59,3.59,0,0,1,138,223.3a5.57,5.57,0,0,1-3.61,1.1,4.81,4.81,0,0,1-3.87-1.54,6.38,6.38,0,0,1-1.32-4.27v-.41a6.85,6.85,0,0,1,1.32-4.31,4.52,4.52,0,0,1,3.81-1.71,5.61,5.61,0,0,1,2.12.37,4,4,0,0,1,1.44.94A3.46,3.46,0,0,1,138.92,215.68Zm-2.51,3.15a3.67,3.67,0,0,0-4,0,2,2,0,0,0,0,3.15,3.21,3.21,0,0,0,2,.58,3.26,3.26,0,0,0,2-.58,1.89,1.89,0,0,0,.77-1.57A1.86,1.86,0,0,0,136.41,218.83Z" fill="#003a50"/><path d="M116.85,397.05h-2.21s0-.06,0-.17a2.53,2.53,0,0,0-.22-.44,2.69,2.69,0,0,0-.39-.5,1.77,1.77,0,0,0-.71-.41,2.93,2.93,0,0,0-1-.16,2.51,2.51,0,0,0-2.15,1,4.39,4.39,0,0,0-.76,2.68h.06a1.63,1.63,0,0,1,.44-.43,3.9,3.9,0,0,1,.6-.37,5,5,0,0,1,1-.3,5.41,5.41,0,0,1,1.21-.13A5,5,0,0,1,116,399a3.52,3.52,0,0,1,1.31,2.8,3.59,3.59,0,0,1-1.36,2.91,5.54,5.54,0,0,1-3.61,1.1,4.81,4.81,0,0,1-3.87-1.54,6.36,6.36,0,0,1-1.32-4.27v-.41a6.85,6.85,0,0,1,1.32-4.31,4.52,4.52,0,0,1,3.8-1.71,5.66,5.66,0,0,1,2.13.38,3.72,3.72,0,0,1,1.44.94A3.4,3.4,0,0,1,116.85,397.05Zm-2.51,3.15a3.65,3.65,0,0,0-4,0,2,2,0,0,0,0,3.15,3.63,3.63,0,0,0,4,0,2,2,0,0,0,0-3.15Z" fill="#003a50"/><path d="M119.5,405.48a1,1,0,0,1-.32-.81,1.07,1.07,0,0,1,.32-.81,1.41,1.41,0,0,1,1.74,0,1.07,1.07,0,0,1,.32.81,1,1,0,0,1-.32.81,1.45,1.45,0,0,1-1.74,0Z" fill="#003a50"/><path d="M131.83,405.61h-2.11V403h-7v-1.85L129,393.7h2.79v7.41h1.6V403h-1.6Zm-2.11-4.5v-5.32h-.06l-4.48,5.27v.05Z" fill="#003a50"/><path d="M477.63,142.74l-2.48,1.95v-2.25l2.73-2.26h1.86v11.91h-2.11Z" fill="#003a50"/><path d="M484.26,142.74l-2.48,1.95v-2.25l2.73-2.26h1.86v11.91h-2.11Z" fill="#003a50"/><path d="M488.89,152a1,1,0,0,1-.32-.8,1.07,1.07,0,0,1,.32-.81,1.25,1.25,0,0,1,.88-.3,1.23,1.23,0,0,1,.86.3,1.07,1.07,0,0,1,.32.81,1,1,0,0,1-.32.8,1.23,1.23,0,0,1-.86.3A1.25,1.25,0,0,1,488.89,152Z" fill="#003a50"/><path d="M501.48,151.32a7.73,7.73,0,0,1-7.37,0,2.93,2.93,0,0,1-1.37-2.55,2.71,2.71,0,0,1,.26-1.17,2.37,2.37,0,0,1,.65-.85,3.89,3.89,0,0,1,1.4-.77l.26-.07v-.09a3.38,3.38,0,0,1-.77-.29,2.91,2.91,0,0,1-.66-.44,2.35,2.35,0,0,1-.54-.76,2.39,2.39,0,0,1-.23-1,2.8,2.8,0,0,1,1.26-2.38,5.74,5.74,0,0,1,3.42-.9,5.81,5.81,0,0,1,3.43.9,2.82,2.82,0,0,1,1.24,2.38,2.43,2.43,0,0,1-.22,1,1.83,1.83,0,0,1-.55.75,3.59,3.59,0,0,1-1.19.68l-.23.05v.09a1.54,1.54,0,0,1,.28.07,4,4,0,0,1,.63.26,4.67,4.67,0,0,1,.77.51,2.77,2.77,0,0,1,.89,2A3,3,0,0,1,501.48,151.32ZM495.69,150a3.82,3.82,0,0,0,2.1.48,3.94,3.94,0,0,0,2.1-.47,1.6,1.6,0,0,0,0-2.7,4.93,4.93,0,0,0-4.2,0,1.59,1.59,0,0,0,0,2.69Zm-.37-6.52a1.37,1.37,0,0,0,.65,1.19,3.2,3.2,0,0,0,1.82.44,3.24,3.24,0,0,0,1.82-.44,1.43,1.43,0,0,0,0-2.39,3.94,3.94,0,0,0-3.62,0A1.36,1.36,0,0,0,495.32,143.45Z" fill="#003a50"/><path d="M83.76,314.77l-2.48,2v-2.24L84,312.21h1.86v11.91H83.76Z" fill="#003a50"/><path d="M88.4,324a1,1,0,0,1-.33-.81,1,1,0,0,1,.33-.8,1.4,1.4,0,0,1,1.73,0,1,1,0,0,1,.32.8,1,1,0,0,1-.32.81,1.4,1.4,0,0,1-1.73,0Z" fill="#003a50"/><path d="M97.68,316.14A5.06,5.06,0,0,1,101,317.2a4.19,4.19,0,0,1,0,6,5.39,5.39,0,0,1-3.55,1.08,5.84,5.84,0,0,1-3.56-1,3.16,3.16,0,0,1-1.29-2.69h2.11a1.54,1.54,0,0,0,.7,1.34,3.62,3.62,0,0,0,2,.48,3.15,3.15,0,0,0,2-.57,2.37,2.37,0,0,0,0-3.39,3.25,3.25,0,0,0-2.07-.58,3.58,3.58,0,0,0-1.92.42,1.84,1.84,0,0,0-.7.64l0,.12H92.58v-6.88h8.88v1.85H94.69V317h0a2.77,2.77,0,0,1,.4-.3,3.11,3.11,0,0,1,.55-.27A5.6,5.6,0,0,1,97.68,316.14Z" fill="#003a50"/></g></svg>