<svg id="Слой_1" data-name="Слой 1" xmlns="http://www.w3.org/2000/svg" xmlns:xlink="http://www.w3.org/1999/xlink" viewBox="0 0 581.1 212.6"><defs><clipPath id="clip-path"><polygon points="0 0.65 0 176.77 82.38 176.77 82.38 212.1 580.82 212.1 580.82 0.65 0 0.65" fill="none"/></clipPath></defs><polygon points="56.78 174.5 56.78 176.77 82.38 176.77 82.38 212.1 84.05 212.1 84.05 174.5 56.78 174.5" fill="#fff"/><polygon points="64.09 5.08 67.86 107.67 67.86 155.33 67.85 165.94 86.2 168.93 89.38 198.57 531.75 198.57 531.75 5.08 64.09 5.08" fill="#fff"/><polygon points="65.26 0.65 65.09 3.17 531.09 0.84 531.09 0.65 65.26 0.65" fill="#fff"/><g clip-path="url(#clip-path)"><rect x="-561.43" y="-447.32" width="1115.44" height="2194.74" fill="none" stroke="#003a50" stroke-miterlimit="10"/><polygon points="-535.81 638.67 -535.81 1724.47 530.66 1724.47 530.66 -422.87 -535.81 -423.02 -535.81 569.89 -535.81 638.67" fill="none" stroke="#003a50" stroke-miterlimit="10"/></g><rect x="540.78" y="88.26" width="4.56" height="85.76" fill="#fff"/><rect x="540.78" y="88.26" width="4.56" height="85.76" fill="none" stroke="#003a50" stroke-miterlimit="10"/><line x1="543.06" y1="174.02" x2="543.06" y2="88.26" fill="none" stroke="#003a50" stroke-miterlimit="10"/><rect x="540.78" y="169.69" width="4.56" height="4.33" fill="#fff"/><rect x="540.78" y="169.69" width="4.56" height="4.33" fill="none" stroke="#003a50" stroke-miterlimit="10"/><rect x="540.78" y="88.26" width="4.56" height="4.33" fill="#fff"/><rect x="540.78" y="88.26" width="4.56" height="4.33" fill="none" stroke="#003a50" stroke-miterlimit="10"/><rect x="540.78" y="128.97" width="4.56" height="4.33" fill="#fff"/><rect x="540.78" y="128.97" width="4.56" height="4.33" fill="none" stroke="#003a50" stroke-miterlimit="10"/><rect x="400.3" y="178.73" width="102.05" height="16.75" fill="none" stroke="#003a50" stroke-miterlimit="10"/><polygon points="494.33 186.57 451.44 190.05 408.33 186.57 408.33 184.15 494.33 184.15 494.33 186.57" fill="none" stroke="#003a50" stroke-miterlimit="10"/><g clip-path="url(#clip-path)"><path d="M275.25,75.2a1.27,1.27,0,0,1,.95,1.51,13.78,13.78,0,1,0,26.87,6.16,1.26,1.26,0,0,1,2.46.57,16.3,16.3,0,0,1-31.78-7.29A1.25,1.25,0,0,1,275.25,75.2Z" fill="none" stroke="#003a50" stroke-miterlimit="10"/><path d="M330.42,84.92a1.27,1.27,0,0,1,1.75-.33A13.79,13.79,0,0,0,347.7,61.81a1.26,1.26,0,1,1,1.41-2.08,16.3,16.3,0,0,1-18.35,26.94A1.26,1.26,0,0,1,330.42,84.92Z" fill="none" stroke="#003a50" stroke-miterlimit="10"/><path d="M332.93,37.52a1.26,1.26,0,0,1-1.33-1.18A13.78,13.78,0,1,0,304.08,38a1.26,1.26,0,0,1-2.52.16,16.3,16.3,0,0,1,32.55-1.94A1.26,1.26,0,0,1,332.93,37.52Z" fill="none" stroke="#003a50" stroke-miterlimit="10"/><path d="M289.45,91.82a12.69,12.69,0,0,1-12-15.48l2-8.88a3.53,3.53,0,0,1,4.24-2.68l13.44,3.08a23.73,23.73,0,0,0,6,9.44l-1,4.2C300.85,87.46,295.57,92,289.45,91.82Z" fill="none" stroke="#003a50" stroke-miterlimit="10"/><path d="M332.25,83.3l-2.32-1.6a23.81,23.81,0,0,0,13.64-21.32l2.52,1.72c5,3.44,7.4,10,5,15.64A12.7,12.7,0,0,1,332.25,83.3Z" fill="none" stroke="#003a50" stroke-miterlimit="10"/><path d="M305.41,41l-.12-2c-.36-6.12,3.4-12,9.32-13.48a12.66,12.66,0,0,1,15.88,11.48l.12,1.84A23.93,23.93,0,0,0,314,37,23.5,23.5,0,0,0,305.41,41Z" fill="none" stroke="#003a50" stroke-miterlimit="10"/><path d="M303.17,77.3a23.73,23.73,0,0,1-6-9.44,16.51,16.51,0,0,1-.6-2A23.85,23.85,0,0,1,305.41,41,23.5,23.5,0,0,1,314,37a23.87,23.87,0,0,1,28.92,17.4,22.12,22.12,0,0,1,.68,6A23.81,23.81,0,0,1,329.93,81.7a22.85,22.85,0,0,1-4.48,1.6A23.8,23.8,0,0,1,303.17,77.3Z" fill="none" stroke="#003a50" stroke-miterlimit="10"/><rect x="217.6" y="-24.78" width="103.02" height="25.39" fill="none" stroke="#003a50" stroke-miterlimit="10"/><rect x="235.46" y="-22.72" width="24.4" height="25.04" rx="2.83" fill="none" stroke="#003a50" stroke-miterlimit="10"/><rect x="278.19" y="-22.72" width="24.4" height="25.04" rx="2.83" fill="none" stroke="#003a50" stroke-miterlimit="10"/></g><rect x="168.61" y="13.9" width="43.96" height="79.58" fill="none" stroke="#003a50" stroke-miterlimit="10"/><g clip-path="url(#clip-path)"><path d="M190.38,89.49h0A19.52,19.52,0,0,1,170.86,70V37.35a19.52,19.52,0,0,1,39,0V70A19.52,19.52,0,0,1,190.38,89.49Z" fill="none" stroke="#003a50" stroke-miterlimit="10"/><circle cx="190.38" cy="37.91" r="2.28" fill="none" stroke="#003a50" stroke-miterlimit="10"/></g><rect x="103.46" y="14.12" width="65.14" height="27.38" fill="none" stroke="#003a50" stroke-miterlimit="10"/><rect x="219.22" y="14.8" width="34.02" height="50.68" fill="none" stroke="#003a50" stroke-miterlimit="10"/><g clip-path="url(#clip-path)"><path d="M132.11,79.41H103.26V56.61h28.85a11.4,11.4,0,0,1,0,22.8Z" fill="none" stroke="#003a50" stroke-miterlimit="10"/></g><line x1="114.48" y1="56.61" x2="114.48" y2="79.41" fill="none" stroke="#003a50" stroke-miterlimit="10"/><g clip-path="url(#clip-path)"><path d="M136.85,35.92v-23a3.36,3.36,0,0,1,3.36-3.36h22.24a3.36,3.36,0,0,1,3.36,3.36v23a3.36,3.36,0,0,1-3.36,3.36H140.21A3.36,3.36,0,0,1,136.85,35.92Z" fill="none" stroke="#003a50" stroke-miterlimit="10"/><circle cx="151.33" cy="24.42" r="2.27" fill="none" stroke="#003a50" stroke-miterlimit="10"/></g><rect x="219.22" y="65.48" width="34.02" height="34.02" fill="none" stroke="#003a50" stroke-miterlimit="10"/><line x1="236.23" y1="92.47" x2="236.23" y2="72.51" fill="none" stroke="#003a50" stroke-miterlimit="10"/><line x1="246.21" y1="82.49" x2="226.25" y2="82.49" fill="none" stroke="#003a50" stroke-miterlimit="10"/><line x1="243.29" y1="89.55" x2="229.18" y2="75.44" fill="none" stroke="#003a50" stroke-miterlimit="10"/><line x1="243.29" y1="75.43" x2="229.18" y2="89.55" fill="none" stroke="#003a50" stroke-miterlimit="10"/><g clip-path="url(#clip-path)"><rect x="255.42" y="211.75" width="36.34" height="30.5" fill="none" stroke="#003a50" stroke-miterlimit="10"/><rect x="96.78" y="212.37" width="122.19" height="29.57" fill="none" stroke="#003a50" stroke-miterlimit="10"/><rect x="225.17" y="212" width="30.26" height="30.26" fill="none" stroke="#003a50" stroke-miterlimit="10"/></g><rect x="153.49" y="161.73" width="40.34" height="34.69" fill="none" stroke="#003a50" stroke-miterlimit="10"/><g clip-path="url(#clip-path)"><path d="M180,169.76h-2.51a3.64,3.64,0,0,1-6.78,0h-3.3l-6.27,3.6,3,4.72,2.82-1.5v12.88H180.4V176.58l2.83,1.5,3-4.72Z" fill="none" stroke="#003a50" stroke-miterlimit="10"/></g><rect x="96.78" y="161.73" width="56.72" height="34.69" fill="none" stroke="#003a50" stroke-miterlimit="10"/><g clip-path="url(#clip-path)"><path d="M111.66,168.48a.87.87,0,0,1,.49-.78.85.85,0,0,1,1.16.4,25,25,0,0,1,0,22,.87.87,0,0,1-1.16.39.86.86,0,0,1-.4-1.16,23.29,23.29,0,0,0,0-20.43A.85.85,0,0,1,111.66,168.48Z" fill="none" stroke="#003a50" stroke-miterlimit="10"/><path d="M116.5,168.48a.88.88,0,0,1,.48-.78.86.86,0,0,1,1.17.4,25,25,0,0,1,0,22,.87.87,0,0,1-1.16.39.86.86,0,0,1-.4-1.16,23.29,23.29,0,0,0,0-20.43A.73.73,0,0,1,116.5,168.48Z" fill="none" stroke="#003a50" stroke-miterlimit="10"/><path d="M121.33,168.48a.87.87,0,0,1,1.66-.38,25,25,0,0,1,0,22,.88.88,0,0,1-1.16.39.85.85,0,0,1-.4-1.16,23.29,23.29,0,0,0,0-20.43A.75.75,0,0,1,121.33,168.48Z" fill="none" stroke="#003a50" stroke-miterlimit="10"/><path d="M126.17,168.48a.87.87,0,0,1,1.66-.38,25.09,25.09,0,0,1,0,22,.88.88,0,0,1-1.17.39.87.87,0,0,1-.4-1.16,23.29,23.29,0,0,0,0-20.43A.85.85,0,0,1,126.17,168.48Z" fill="none" stroke="#003a50" stroke-miterlimit="10"/><path d="M106.82,168.48a.87.87,0,0,1,.49-.78.85.85,0,0,1,1.16.4,25,25,0,0,1,0,22,.87.87,0,0,1-1.16.39.86.86,0,0,1-.4-1.16,23.29,23.29,0,0,0,0-20.43A.85.85,0,0,1,106.82,168.48Z" fill="none" stroke="#003a50" stroke-miterlimit="10"/><path d="M102,168.48a.87.87,0,0,1,1.66-.38,25.09,25.09,0,0,1,0,22,.89.89,0,0,1-1.17.39.87.87,0,0,1-.4-1.16,23.29,23.29,0,0,0,0-20.43A.85.85,0,0,1,102,168.48Z" fill="none" stroke="#003a50" stroke-miterlimit="10"/></g><line x1="96.78" y1="179.07" x2="153.49" y2="179.07" fill="none" stroke="#003a50" stroke-miterlimit="10"/><rect x="227.86" y="161.51" width="34.02" height="34.02" fill="none" stroke="#003a50" stroke-miterlimit="10"/><line x1="244.14" y1="180.53" x2="244.14" y2="191.09" fill="none" stroke="#003a50" stroke-miterlimit="10"/><g clip-path="url(#clip-path)"><path d="M245.05,180.53h-1.82a3.39,3.39,0,0,1-3.4-3.39v-11.2h8.61v11.2A3.39,3.39,0,0,1,245.05,180.53Z" fill="none" stroke="#003a50" stroke-miterlimit="10"/></g><line x1="240.66" y1="191.09" x2="247.61" y2="191.09" fill="none" stroke="#003a50" stroke-miterlimit="10"/><rect x="321.43" y="161.51" width="34.02" height="34.02" fill="none" stroke="#003a50" stroke-miterlimit="10"/><g clip-path="url(#clip-path)"><path d="M350.84,186.1a4.69,4.69,0,1,1-4.69-4.69A4.69,4.69,0,0,1,350.84,186.1Z" fill="none" stroke="#003a50" stroke-miterlimit="10"/><path d="M335.41,186.1a4.69,4.69,0,1,1-4.69-4.69A4.69,4.69,0,0,1,335.41,186.1Z" fill="none" stroke="#003a50" stroke-miterlimit="10"/><path d="M350.84,170.93a4.69,4.69,0,1,1-4.69-4.69A4.69,4.69,0,0,1,350.84,170.93Z" fill="none" stroke="#003a50" stroke-miterlimit="10"/><path d="M335.41,170.93a4.69,4.69,0,1,1-4.69-4.69A4.69,4.69,0,0,1,335.41,170.93Z" fill="none" stroke="#003a50" stroke-miterlimit="10"/><path d="M303.45,186.64H280.09a3.36,3.36,0,0,1-3.36-3.36V168.33a3.36,3.36,0,0,1,3.36-3.36h23.36a3.35,3.35,0,0,1,3.35,3.36v14.95A3.35,3.35,0,0,1,303.45,186.64Z" fill="none" stroke="#003a50" stroke-miterlimit="10"/><circle cx="291.77" cy="179.6" r="2.46" fill="none" stroke="#003a50" stroke-miterlimit="10"/></g><line x1="291.77" y1="178.84" x2="291.77" y2="192.46" fill="none" stroke="#003a50" stroke-miterlimit="10"/><line x1="284.96" y1="192.46" x2="298.58" y2="192.46" fill="none" stroke="#003a50" stroke-miterlimit="10"/><rect x="261.9" y="161.51" width="93.55" height="34.02" fill="none" stroke="#003a50" stroke-miterlimit="10"/><g clip-path="url(#clip-path)"><rect x="501.4" y="-22.57" width="22.68" height="22.68" fill="none" stroke="#003a50" stroke-miterlimit="10"/><rect x="367.3" y="-22.57" width="22.68" height="22.68" fill="none" stroke="#003a50" stroke-miterlimit="10"/></g><rect x="368.45" y="14.4" width="22.68" height="22.68" fill="none" stroke="#003a50" stroke-miterlimit="10"/><g clip-path="url(#clip-path)"><path d="M386.29,32.24a9.2,9.2,0,1,1,0-13A9.2,9.2,0,0,1,386.29,32.24Z" fill="none" stroke="#003a50" stroke-miterlimit="10"/><path d="M386.91,31.55c-1.69-.17-3.41.48-5.06-1.17-2.44-2.44.14-5-2.3-7.45s-5,.13-7.46-2.31" fill="none" stroke="#003a50" stroke-miterlimit="10"/></g><rect x="502.54" y="14.4" width="22.68" height="22.68" fill="none" stroke="#003a50" stroke-miterlimit="10"/><g clip-path="url(#clip-path)"><path d="M520.39,32.24a9.2,9.2,0,1,1,0-13A9.2,9.2,0,0,1,520.39,32.24Z" fill="none" stroke="#003a50" stroke-miterlimit="10"/><path d="M521,31.55c-1.7-.17-3.41.48-5.06-1.17-2.44-2.44.14-5-2.3-7.45s-5,.13-7.46-2.31" fill="none" stroke="#003a50" stroke-miterlimit="10"/><path d="M427,260.59a3.1,3.1,0,0,1-3.32,2.83H419.4a3.1,3.1,0,0,1-3.32-2.83V212.4H529.46v47.77a3.1,3.1,0,0,1-3.32,2.83h-4.22a3.11,3.11,0,0,1-3.33-2.83V217.35H427Z" fill="none" stroke="#003a50" stroke-miterlimit="10"/><rect x="394.78" y="-113.28" width="102.05" height="113.39" fill="none" stroke="#003a50" stroke-miterlimit="10"/></g><rect x="395.92" y="14.4" width="102.05" height="113.38" fill="none" stroke="#003a50" stroke-miterlimit="10"/><g clip-path="url(#clip-path)"><path d="M488,118.05H405.92a2.08,2.08,0,0,1-2.08-2.08V48.33h86.22V116A2.09,2.09,0,0,1,488,118.05Z" fill="none" stroke="#003a50" stroke-miterlimit="10"/><rect x="403.59" y="21.83" width="42.5" height="22.88" rx="1.98" fill="none" stroke="#003a50" stroke-miterlimit="10"/><rect x="447.81" y="21.83" width="42.5" height="22.88" rx="1.98" fill="none" stroke="#003a50" stroke-miterlimit="10"/></g><line x1="490.31" y1="62.18" x2="403.58" y2="62.18" fill="none" stroke="#003a50" stroke-miterlimit="10"/><g clip-path="url(#clip-path)"><rect x="67.79" y="-33.8" width="70.69" height="34.02" fill="none" stroke="#003a50" stroke-miterlimit="10"/><rect x="327.44" y="-95.34" width="31.72" height="95.46" fill="none" stroke="#003a50" stroke-miterlimit="10"/><line x1="343.3" y1="0.11" x2="343.3" y2="-94.69" fill="none" stroke="#003a50" stroke-miterlimit="10"/><rect x="176.59" y="-94.69" width="40.48" height="94.87" fill="none" stroke="#003a50" stroke-miterlimit="10"/><rect x="138.48" y="-94.78" width="31.48" height="95.25" fill="none" stroke="#003a50" stroke-miterlimit="10"/><line x1="154.21" y1="0.29" x2="154.21" y2="-94.6" fill="none" stroke="#003a50" stroke-miterlimit="10"/><path d="M163.07,95.89V99a38.72,38.72,0,0,1-38.72,38.71V95.89" fill="none" stroke="#003a50" stroke-miterlimit="10" stroke-width="1.6"/><path d="M55,156.56H51.13A48.89,48.89,0,0,1,2.24,107.67H55" fill="none" stroke="#003a50" stroke-miterlimit="10" stroke-width="1.6"/><rect x="57.36" y="0.5" width="488" height="13.79" fill="#003a50"/><rect x="51.54" y="-37.56" width="16.32" height="145.23" fill="#003a50"/><rect x="51.54" y="155.34" width="16.32" height="21.06" fill="#003a50"/><rect x="86.6" y="163.52" width="10.75" height="78.67" fill="#003a50"/><rect x="55.02" y="161.16" width="42.34" height="15.54" fill="#003a50"/><rect x="86.6" y="195.81" width="447.72" height="16.32" fill="#003a50"/><polygon points="530.32 -7.69 530.32 88.05 579.65 88.05 567.99 -7.69 530.32 -7.69" fill="#003a50" fill-rule="evenodd"/><rect x="530.32" y="174.21" width="36.1" height="96.07" fill="#003a50"/><rect x="524.36" y="-5.73" width="11.25" height="77.3" fill="#003a50"/><rect x="320.95" y="-99.25" width="6.38" height="102.25" fill="#003a50"/><rect x="170.29" y="-99.75" width="6.38" height="102.75" fill="#003a50"/><rect x="51.54" y="168.93" width="6.38" height="73.25" fill="#003a50"/><rect x="162.23" y="93.14" width="53.52" height="6.38" fill="#003a50"/><rect x="212.57" y="5" width="6.38" height="94.52" fill="#003a50"/><rect x="61.76" y="93.14" width="63.43" height="6.38" fill="#003a50"/><rect x="67.23" y="58.47" width="33.64" height="6.38" fill="#003a50"/><rect x="83.01" y="174.5" width="6.38" height="58.66" fill="#003a50"/><rect x="96.6" y="5" width="6.38" height="92.32" fill="#003a50"/><line x1="217.59" y1="97.33" x2="217.59" y2="100.16" fill="none" stroke="#003a50" stroke-miterlimit="10"/><line x1="217.59" y1="105.48" x2="217.59" y2="156.02" fill="none" stroke="#003a50" stroke-miterlimit="10" stroke-dasharray="5.32 5.32"/><line x1="217.59" y1="158.68" x2="217.59" y2="161.51" fill="none" stroke="#003a50" stroke-miterlimit="10"/><rect x="218.92" y="202.85" width="6.38" height="39.84" fill="#003a50"/><rect x="194.96" y="161.44" width="32.9" height="6.38" fill="#003a50"/><rect x="221.39" y="161.51" width="6.38" height="40.24" fill="#003a50"/><rect x="193.84" y="161.44" width="6.38" height="40.31" fill="#003a50"/></g><g clip-path="url(#clip-path)"><path d="M88.39,136.25H86.28V133.6h-7v-1.84l6.29-7.42h2.79v7.42H90v1.84h-1.6Zm-2.11-4.49v-5.33h-.06l-4.48,5.28v0Z" fill="#003a50"/><path d="M91.67,136.12a1.17,1.17,0,0,1,0-1.61,1.25,1.25,0,0,1,.88-.3,1.22,1.22,0,0,1,.86.3,1.17,1.17,0,0,1,0,1.61,1.22,1.22,0,0,1-.86.3A1.25,1.25,0,0,1,91.67,136.12Z" fill="#003a50"/><path d="M101.78,126.18H96v-1.84h8.86v1.84l-4.53,2.65v.07h1.28a3.87,3.87,0,0,1,2.79,1,3.5,3.5,0,0,1,1.06,2.67,3.32,3.32,0,0,1-1.33,2.82,6.93,6.93,0,0,1-7.24,0,3.35,3.35,0,0,1-1.33-2.85v-.33h2.11v.33c0,1.36,1,2,2.84,2s2.84-.67,2.84-2-1-2-2.84-2H97.21v-1.67l4.57-2.68Z" fill="#003a50"/><path d="M136.09,85.83h-5.82V84h8.86v1.85l-4.53,2.64v.07h1.28a3.9,3.9,0,0,1,2.79,1,3.52,3.52,0,0,1,1.05,2.67A3.34,3.34,0,0,1,138.4,95a7,7,0,0,1-7.25,0,3.37,3.37,0,0,1-1.32-2.85v-.33h2.1v.33c0,1.36.95,2,2.84,2s2.84-.67,2.84-2-.94-2-2.84-2h-3.26V88.57l4.58-2.68Z" fill="#003a50"/><path d="M141.83,95.76a1.15,1.15,0,0,1,0-1.61,1.4,1.4,0,0,1,1.73,0,1.17,1.17,0,0,1,0,1.61,1.4,1.4,0,0,1-1.73,0Z" fill="#003a50"/><path d="M147.23,94.35a7.33,7.33,0,0,1,0-8.83,5.71,5.71,0,0,1,8.13,0,7.33,7.33,0,0,1,0,8.83,5.69,5.69,0,0,1-8.13,0ZM153.76,93a5.73,5.73,0,0,0,0-6.07,3.15,3.15,0,0,0-4.92,0,5.67,5.67,0,0,0,0,6.07,3.15,3.15,0,0,0,4.92,0Z" fill="#003a50"/><path d="M458.08,147.21l-2.48,1.95v-2.24l2.73-2.27h1.86v11.91h-2.11Z" fill="#003a50"/><path d="M468.09,148.58a5,5,0,0,1,3.34,1.06,4.17,4.17,0,0,1-.05,6,5.37,5.37,0,0,1-3.54,1.08,5.75,5.75,0,0,1-3.56-1,3.15,3.15,0,0,1-1.29-2.68h2.11a1.51,1.51,0,0,0,.7,1.33,3.53,3.53,0,0,0,2,.49,3.17,3.17,0,0,0,2-.57,2.06,2.06,0,0,0,.7-1.69,2,2,0,0,0-.73-1.7,3.26,3.26,0,0,0-2.08-.58,3.54,3.54,0,0,0-1.91.41,1.84,1.84,0,0,0-.7.64l0,.13H463v-6.88h8.88v1.84H465.1v3h0a1.91,1.91,0,0,1,.4-.31,3.82,3.82,0,0,1,.54-.26A5.69,5.69,0,0,1,468.09,148.58Z" fill="#003a50"/><path d="M474.79,156.43a1,1,0,0,1-.32-.81,1,1,0,0,1,.32-.81,1.41,1.41,0,0,1,1.74,0,1.07,1.07,0,0,1,.32.81,1,1,0,0,1-.32.81,1.45,1.45,0,0,1-1.74,0Z" fill="#003a50"/><path d="M487.37,155.79a6.43,6.43,0,0,1-3.68.93,6.51,6.51,0,0,1-3.69-.93,3,3,0,0,1-1.37-2.56,2.74,2.74,0,0,1,.26-1.17,2.37,2.37,0,0,1,.66-.85,3.86,3.86,0,0,1,1.39-.77l.26-.07v-.09a3.32,3.32,0,0,1-.76-.29,2.68,2.68,0,0,1-.67-.44,2.24,2.24,0,0,1-.54-.76,2.38,2.38,0,0,1-.22-1,2.81,2.81,0,0,1,1.25-2.38,7,7,0,0,1,6.85,0,2.83,2.83,0,0,1,1.25,2.38,2.5,2.5,0,0,1-.22,1.05,2,2,0,0,1-.55.74,3.72,3.72,0,0,1-1.2.68l-.22.05v.09l.28.07a4.76,4.76,0,0,1,.62.26,4.28,4.28,0,0,1,.77.51,2.66,2.66,0,0,1,.62.82,2.71,2.71,0,0,1,.27,1.2A2.94,2.94,0,0,1,487.37,155.79Zm-5.79-1.35a3.84,3.84,0,0,0,2.1.48,4,4,0,0,0,2.11-.47,1.61,1.61,0,0,0,0-2.7,4.95,4.95,0,0,0-4.21,0,1.53,1.53,0,0,0-.74,1.35A1.51,1.51,0,0,0,481.58,154.44Zm-.36-6.52a1.35,1.35,0,0,0,.64,1.19,4,4,0,0,0,3.65,0,1.42,1.42,0,0,0,0-2.39,4,4,0,0,0-3.62,0A1.38,1.38,0,0,0,481.22,147.92Z" fill="#003a50"/><path d="M280.35,147.39h-9.94v-1.56a2.8,2.8,0,0,1,.58-1.74,4.12,4.12,0,0,1,1.45-1.2c.5-.25,1.12-.54,1.87-.86s1.32-.56,1.88-.78a4.17,4.17,0,0,0,1.44-.91,1.8,1.8,0,0,0,.57-1.3c0-1.26-.89-1.89-2.66-1.89s-2.68.72-2.68,2.16v.41h-2.11v-.41a3.59,3.59,0,0,1,1.27-3,5.34,5.34,0,0,1,3.51-1,5.65,5.65,0,0,1,3.51,1,3.27,3.27,0,0,1,1.27,2.75,3.14,3.14,0,0,1-.55,1.83,4.42,4.42,0,0,1-1.41,1.31q-.9.51-1.83.93c-.63.27-1.24.52-1.83.74a5.26,5.26,0,0,0-1.4.75,1.22,1.22,0,0,0-.57,1h7.63Z" fill="#003a50"/><path d="M282.45,147.26a1.15,1.15,0,0,1,0-1.61,1.4,1.4,0,0,1,1.73,0,1.15,1.15,0,0,1,0,1.61,1.4,1.4,0,0,1-1.73,0Z" fill="#003a50"/><path d="M296.07,138.84h-2.21s0-.07,0-.18a2.94,2.94,0,0,0-.22-.44,2.28,2.28,0,0,0-.38-.5,2.08,2.08,0,0,0-.71-.41,3.29,3.29,0,0,0-1-.16,2.49,2.49,0,0,0-2.15,1,4.41,4.41,0,0,0-.77,2.68h.06a2,2,0,0,1,.44-.43,3.93,3.93,0,0,1,1.56-.67,6.16,6.16,0,0,1,1.22-.13,5.06,5.06,0,0,1,3.37,1.12,3.5,3.5,0,0,1,1.3,2.8,3.56,3.56,0,0,1-1.36,2.9,5.52,5.52,0,0,1-3.61,1.11,4.84,4.84,0,0,1-3.87-1.55,6.36,6.36,0,0,1-1.32-4.27v-.4a6.83,6.83,0,0,1,1.32-4.31,4.54,4.54,0,0,1,3.81-1.71,5.64,5.64,0,0,1,2.12.37,3.84,3.84,0,0,1,1.44.94A3.44,3.44,0,0,1,296.07,138.84ZM293.56,142a3.67,3.67,0,0,0-4,0,2,2,0,0,0,0,3.15,3.15,3.15,0,0,0,2,.59,3.2,3.2,0,0,0,2-.59,2,2,0,0,0,0-3.15Z" fill="#003a50"/></g></svg>