<svg id="Слой_1" data-name="Слой 1" xmlns="http://www.w3.org/2000/svg" xmlns:xlink="http://www.w3.org/1999/xlink" viewBox="0 0 583.94 383.81"><defs><clipPath id="clip-path"><polygon points="83.19 0.42 83.19 36.57 0 36.57 0 209.82 91.69 209.82 91.69 230.09 236.75 230.09 236.75 383.39 582.24 383.39 582.24 0.42 83.19 0.42" fill="none"/></clipPath></defs><rect x="247.15" y="376.41" width="285.4" height="6.98" fill="#fff"/><polygon points="83.19 0.42 83.19 36.57 57.57 36.57 57.57 42.38 68.65 58.66 68.65 107.99 66.17 199.62 94.7 199.62 94.7 218.54 242.53 218.54 242.53 381.26 532.55 381.26 532.55 16.28 84.84 16.28 84.84 0.42 83.19 0.42" fill="#fff"/><polygon points="89.93 0.42 90.18 2.72 532.55 2.72 532.55 0.42 89.93 0.42" fill="#fff"/><g clip-path="url(#clip-path)"><rect x="-560.64" y="-643.16" width="1115.44" height="2194.74" fill="none" stroke="#003a50" stroke-miterlimit="10"/><polygon points="-535.02 442.83 -535.02 1528.62 531.46 1528.62 531.46 -618.71 -535.02 -618.86 -535.02 374.04 -535.02 442.83" fill="none" stroke="#003a50" stroke-miterlimit="10"/></g><rect x="541.58" y="74.67" width="4.56" height="90.88" fill="#fff"/><rect x="541.58" y="74.67" width="4.56" height="90.88" fill="none" stroke="#003a50" stroke-miterlimit="10"/><line x1="543.86" y1="165.55" x2="543.86" y2="74.67" fill="none" stroke="#003a50" stroke-miterlimit="10"/><rect x="541.58" y="160.96" width="4.56" height="4.59" fill="#fff"/><rect x="541.58" y="160.96" width="4.56" height="4.59" fill="none" stroke="#003a50" stroke-miterlimit="10"/><rect x="541.58" y="74.67" width="4.56" height="4.59" fill="#fff"/><rect x="541.58" y="74.67" width="4.56" height="4.59" fill="none" stroke="#003a50" stroke-miterlimit="10"/><rect x="541.58" y="117.81" width="4.56" height="4.59" fill="#fff"/><rect x="541.58" y="117.81" width="4.56" height="4.59" fill="none" stroke="#003a50" stroke-miterlimit="10"/><rect x="541.58" y="262.08" width="4.56" height="82.8" fill="#fff"/><rect x="541.58" y="262.08" width="4.56" height="82.8" fill="none" stroke="#003a50" stroke-miterlimit="10"/><line x1="543.86" y1="344.88" x2="543.86" y2="262.08" fill="none" stroke="#003a50" stroke-miterlimit="10"/><rect x="541.58" y="340.7" width="4.56" height="4.18" fill="#fff"/><rect x="541.58" y="340.7" width="4.56" height="4.18" fill="none" stroke="#003a50" stroke-miterlimit="10"/><rect x="541.58" y="262.08" width="4.56" height="4.18" fill="#fff"/><rect x="541.58" y="262.08" width="4.56" height="4.18" fill="none" stroke="#003a50" stroke-miterlimit="10"/><rect x="541.58" y="301.39" width="4.56" height="4.18" fill="#fff"/><rect x="541.58" y="301.39" width="4.56" height="4.18" fill="none" stroke="#003a50" stroke-miterlimit="10"/><g clip-path="url(#clip-path)"><path d="M120.16,191.39a3.16,3.16,0,0,0,2.9-1.95h1.79l4.73,2.82-2.14,3.5L125,194.41v11h-10.3v-11l-2.46,1.35-2.15-3.5,4.77-2.82h2.39A3.21,3.21,0,0,0,120.16,191.39Z" fill="none" stroke="#003a50" stroke-miterlimit="10"/></g><rect x="104.04" y="182.2" width="31.57" height="30.42" fill="none" stroke="#003a50" stroke-miterlimit="10"/><rect x="219.57" y="115.29" width="31.65" height="31.61" fill="none" stroke="#003a50" stroke-miterlimit="10"/><g clip-path="url(#clip-path)"><path d="M231.39,129.67V119.39h8v10.28A3.29,3.29,0,0,1,236.1,133h-1.41A3.29,3.29,0,0,1,231.39,129.67Z" fill="none" stroke="#003a50" stroke-miterlimit="10"/></g><polyline points="238.63 142.79 235.39 142.79 232.16 142.79" fill="none" stroke="#003a50" stroke-miterlimit="10"/><line x1="235.39" y1="132.96" x2="235.39" y2="142.79" fill="none" stroke="#003a50" stroke-miterlimit="10"/><rect x="260.83" y="178.63" width="34.02" height="34.02" fill="none" stroke="#003a50" stroke-miterlimit="10"/><g clip-path="url(#clip-path)"><path d="M270.23,208.05a4.64,4.64,0,1,1,4.64-4.64A4.64,4.64,0,0,1,270.23,208.05Z" fill="none" stroke="#003a50" stroke-miterlimit="10"/><path d="M270.23,192.57a4.64,4.64,0,1,1,4.64-4.64A4.64,4.64,0,0,1,270.23,192.57Z" fill="none" stroke="#003a50" stroke-miterlimit="10"/><path d="M285.32,208.05a4.64,4.64,0,1,1,4.64-4.64A4.64,4.64,0,0,1,285.32,208.05Z" fill="none" stroke="#003a50" stroke-miterlimit="10"/><path d="M285.32,192.57a4.64,4.64,0,1,1,4.64-4.64A4.64,4.64,0,0,1,285.32,192.57Z" fill="none" stroke="#003a50" stroke-miterlimit="10"/></g><rect x="254.95" y="219.15" width="26.5" height="148.24" fill="none" stroke="#003a50" stroke-miterlimit="10"/><g clip-path="url(#clip-path)"><path d="M277.64,232.62a.8.8,0,0,1,.7.43.78.78,0,0,1-.36,1,22.44,22.44,0,0,1-19.67,0,.78.78,0,1,1,.69-1.4,20.87,20.87,0,0,0,18.29,0A.72.72,0,0,1,277.64,232.62Z" fill="none" stroke="#003a50" stroke-miterlimit="10"/><path d="M277.64,237a.79.79,0,0,1,.7.44.78.78,0,0,1-.36,1,22.35,22.35,0,0,1-19.67,0,.78.78,0,0,1-.36-1A.78.78,0,0,1,259,237a20.78,20.78,0,0,0,18.29,0A.72.72,0,0,1,277.64,237Z" fill="none" stroke="#003a50" stroke-miterlimit="10"/><path d="M277.64,241.29a.8.8,0,0,1,.7.43.78.78,0,0,1-.36,1.05,22.44,22.44,0,0,1-19.67,0,.78.78,0,1,1,.69-1.4,20.87,20.87,0,0,0,18.29,0A.72.72,0,0,1,277.64,241.29Z" fill="none" stroke="#003a50" stroke-miterlimit="10"/><path d="M277.64,245.62a.79.79,0,0,1,.7.44.78.78,0,0,1-.36,1,22.35,22.35,0,0,1-19.67,0,.78.78,0,0,1-.36-1,.78.78,0,0,1,1.05-.36,20.78,20.78,0,0,0,18.29,0A.72.72,0,0,1,277.64,245.62Z" fill="none" stroke="#003a50" stroke-miterlimit="10"/><path d="M277.64,250a.8.8,0,0,1,.7.43.78.78,0,0,1-.36,1.05,22.44,22.44,0,0,1-19.67,0A.78.78,0,1,1,259,250a20.87,20.87,0,0,0,18.29,0A.72.72,0,0,1,277.64,250Z" fill="none" stroke="#003a50" stroke-miterlimit="10"/><path d="M277.64,254.29a.79.79,0,0,1,.7.44.78.78,0,0,1-.36,1,22.35,22.35,0,0,1-19.67,0,.78.78,0,0,1-.36-1,.78.78,0,0,1,1.05-.36,20.78,20.78,0,0,0,18.29,0A.72.72,0,0,1,277.64,254.29Z" fill="none" stroke="#003a50" stroke-miterlimit="10"/><path d="M277.64,228.28a.78.78,0,0,1,.34,1.49,22.44,22.44,0,0,1-19.67,0,.78.78,0,1,1,.69-1.41,20.78,20.78,0,0,0,18.29,0A.85.85,0,0,1,277.64,228.28Z" fill="none" stroke="#003a50" stroke-miterlimit="10"/><path d="M277.64,224a.8.8,0,0,1,.7.43.78.78,0,0,1-.36,1.05,22.44,22.44,0,0,1-19.67,0A.78.78,0,1,1,259,224a20.87,20.87,0,0,0,18.29,0A.72.72,0,0,1,277.64,224Z" fill="none" stroke="#003a50" stroke-miterlimit="10"/></g><line x1="268.14" y1="219.28" x2="268.14" y2="367.26" fill="none" stroke="#003a50" stroke-miterlimit="10"/><g clip-path="url(#clip-path)"><path d="M277.64,259.09a.78.78,0,0,1,.34,1.49,22.44,22.44,0,0,1-19.67,0,.78.78,0,0,1-.36-1.05.79.79,0,0,1,1.05-.36,20.78,20.78,0,0,0,18.29,0A.85.85,0,0,1,277.64,259.09Z" fill="none" stroke="#003a50" stroke-miterlimit="10"/><path d="M277.64,263.43a.8.8,0,0,1,.7.43.78.78,0,0,1-.36,1.05,22.44,22.44,0,0,1-19.67,0,.78.78,0,0,1-.36-1,.78.78,0,0,1,1.05-.36,20.87,20.87,0,0,0,18.29,0A.72.72,0,0,1,277.64,263.43Z" fill="none" stroke="#003a50" stroke-miterlimit="10"/><path d="M277.64,267.76a.78.78,0,0,1,.34,1.49,22.44,22.44,0,0,1-19.67,0,.78.78,0,0,1,.69-1.41,20.78,20.78,0,0,0,18.29,0A.85.85,0,0,1,277.64,267.76Z" fill="none" stroke="#003a50" stroke-miterlimit="10"/></g><rect x="281.45" y="219.16" width="34.54" height="26.5" fill="none" stroke="#003a50" stroke-miterlimit="10"/><g clip-path="url(#clip-path)"><path d="M294.91,241.84a.78.78,0,0,0,.43.7.78.78,0,0,0,1.05-.36,22.44,22.44,0,0,0,0-19.67.78.78,0,0,0-1.4.69,20.89,20.89,0,0,1,0,18.3A.68.68,0,0,0,294.91,241.84Z" fill="none" stroke="#003a50" stroke-miterlimit="10"/><path d="M299.24,241.84a.77.77,0,0,0,.44.7.78.78,0,0,0,1-.36,22.35,22.35,0,0,0,0-19.67.78.78,0,0,0-1.4.69,20.81,20.81,0,0,1,0,18.3A.68.68,0,0,0,299.24,241.84Z" fill="none" stroke="#003a50" stroke-miterlimit="10"/><path d="M290.57,241.84a.77.77,0,0,0,.44.7.79.79,0,0,0,1.05-.36,22.44,22.44,0,0,0,0-19.67.78.78,0,0,0-1.41.69,20.81,20.81,0,0,1,0,18.3A.81.81,0,0,0,290.57,241.84Z" fill="none" stroke="#003a50" stroke-miterlimit="10"/><path d="M286.24,241.84a.78.78,0,0,0,.43.7.78.78,0,0,0,1.05-.36,22.44,22.44,0,0,0,0-19.67.78.78,0,0,0-1.4.69,20.89,20.89,0,0,1,0,18.3A.68.68,0,0,0,286.24,241.84Z" fill="none" stroke="#003a50" stroke-miterlimit="10"/></g><line x1="281.57" y1="232.35" x2="315.85" y2="232.35" fill="none" stroke="#003a50" stroke-miterlimit="10"/><rect x="281.45" y="340.91" width="34.54" height="26.5" fill="none" stroke="#003a50" stroke-miterlimit="10"/><g clip-path="url(#clip-path)"><path d="M294.91,363.59a.78.78,0,0,0,.43.7.78.78,0,0,0,1.05-.36,22.44,22.44,0,0,0,0-19.67.78.78,0,0,0-1.4.69,20.89,20.89,0,0,1,0,18.3A.68.68,0,0,0,294.91,363.59Z" fill="none" stroke="#003a50" stroke-miterlimit="10"/><path d="M299.24,363.59a.77.77,0,0,0,.44.7.78.78,0,0,0,1-.36,22.35,22.35,0,0,0,0-19.67.78.78,0,0,0-1.4.69,20.81,20.81,0,0,1,0,18.3A.68.68,0,0,0,299.24,363.59Z" fill="none" stroke="#003a50" stroke-miterlimit="10"/><path d="M290.57,363.59a.77.77,0,0,0,.44.7.79.79,0,0,0,1.05-.36,22.44,22.44,0,0,0,0-19.67.78.78,0,0,0-1.41.69,20.81,20.81,0,0,1,0,18.3A.81.81,0,0,0,290.57,363.59Z" fill="none" stroke="#003a50" stroke-miterlimit="10"/><path d="M286.24,363.59a.78.78,0,0,0,.43.7.78.78,0,0,0,1.05-.36,22.44,22.44,0,0,0,0-19.67.78.78,0,0,0-1.4.69,20.89,20.89,0,0,1,0,18.3A.68.68,0,0,0,286.24,363.59Z" fill="none" stroke="#003a50" stroke-miterlimit="10"/></g><line x1="281.57" y1="354.1" x2="315.85" y2="354.1" fill="none" stroke="#003a50" stroke-miterlimit="10"/><rect x="429.07" y="157.79" width="102.05" height="16.75" fill="none" stroke="#003a50" stroke-miterlimit="10"/><polygon points="523.09 165.63 480.2 169.11 437.09 165.63 437.09 163.22 523.09 163.22 523.09 165.63" fill="none" stroke="#003a50" stroke-miterlimit="10"/><g clip-path="url(#clip-path)"><rect x="401.1" y="-17.12" width="102.05" height="16.75" fill="none" stroke="#003a50" stroke-miterlimit="10"/></g><rect x="401.1" y="193.79" width="102.05" height="16.75" fill="none" stroke="#003a50" stroke-miterlimit="10"/><polygon points="409.12 202.7 452.02 199.23 495.12 202.7 495.12 205.12 409.12 205.12 409.12 202.7" fill="none" stroke="#003a50" stroke-miterlimit="10"/><g clip-path="url(#clip-path)"><path d="M306.46,78.21a1.27,1.27,0,0,1,1,1.51,13.78,13.78,0,1,0,26.87,6.16,1.26,1.26,0,0,1,2.45.57A16.3,16.3,0,0,1,305,79.16,1.27,1.27,0,0,1,306.46,78.21Z" fill="none" stroke="#003a50" stroke-miterlimit="10"/><path d="M361.63,87.93a1.25,1.25,0,0,1,1.75-.33A13.79,13.79,0,0,0,378.9,64.81a1.26,1.26,0,0,1,1.42-2.08,16.3,16.3,0,0,1-18.36,27A1.26,1.26,0,0,1,361.63,87.93Z" fill="none" stroke="#003a50" stroke-miterlimit="10"/><path d="M364.14,40.53a1.27,1.27,0,0,1-1.34-1.18A13.78,13.78,0,0,0,335.28,41a1.26,1.26,0,1,1-2.51.16,16.3,16.3,0,0,1,32.55-1.94A1.26,1.26,0,0,1,364.14,40.53Z" fill="none" stroke="#003a50" stroke-miterlimit="10"/><path d="M320.66,94.83a12.69,12.69,0,0,1-12-15.48l2-8.88a3.53,3.53,0,0,1,4.24-2.68l13.44,3.08a23.73,23.73,0,0,0,6,9.44l-1,4.2C332.06,90.47,326.78,95,320.66,94.83Z" fill="none" stroke="#003a50" stroke-miterlimit="10"/><path d="M363.46,86.3l-2.32-1.6a23.81,23.81,0,0,0,13.64-21.32l2.52,1.72c5,3.44,7.4,10,5,15.64A12.7,12.7,0,0,1,363.46,86.3Z" fill="none" stroke="#003a50" stroke-miterlimit="10"/><path d="M336.62,44l-.12-2c-.36-6.12,3.4-12,9.32-13.48A12.66,12.66,0,0,1,361.7,40.07l.12,1.83A24,24,0,0,0,345.18,40,23.32,23.32,0,0,0,336.62,44Z" fill="none" stroke="#003a50" stroke-miterlimit="10"/><path d="M334.38,80.3a23.73,23.73,0,0,1-6-9.44,16.51,16.51,0,0,1-.6-2A23.85,23.85,0,0,1,336.62,44a23.5,23.5,0,0,1,8.56-4,23.87,23.87,0,0,1,28.92,17.4,22.12,22.12,0,0,1,.68,6A23.81,23.81,0,0,1,361.14,84.7a22.85,22.85,0,0,1-4.48,1.6A23.8,23.8,0,0,1,334.38,80.3Z" fill="none" stroke="#003a50" stroke-miterlimit="10"/></g><rect x="169.59" y="116.98" width="43.96" height="95.52" fill="none" stroke="#003a50" stroke-miterlimit="10"/><g clip-path="url(#clip-path)"><rect x="174.75" y="121.18" width="33.22" height="87.39" rx="13.7" fill="none" stroke="#003a50" stroke-miterlimit="10"/><circle cx="191.45" cy="193.44" r="2.28" transform="translate(-40.8 335.32) rotate(-76.72)" fill="none" stroke="#003a50" stroke-miterlimit="10"/><path d="M132.46,167.36H103.9V144.29h28.56a11.54,11.54,0,1,1,0,23.07Z" fill="none" stroke="#003a50" stroke-miterlimit="10"/></g><rect x="103.9" y="144.29" width="11.08" height="23.08" fill="none" stroke="#003a50" stroke-miterlimit="10"/><rect x="219.57" y="178.64" width="98.07" height="33.86" fill="none" stroke="#003a50" stroke-miterlimit="10"/><rect x="219.57" y="146.99" width="31.65" height="31.65" fill="none" stroke="#003a50" stroke-miterlimit="10"/><polyline points="222.86 156.58 222.86 162.84 222.86 169.08" fill="none" stroke="#003a50" stroke-miterlimit="10"/><line x1="235.41" y1="162.85" x2="222.87" y2="162.85" fill="none" stroke="#003a50" stroke-miterlimit="10"/><g clip-path="url(#clip-path)"><path d="M245,149H231.46a3.24,3.24,0,0,0-3.23,3.24v21.21a3.23,3.23,0,0,0,3.23,3.23H245a3.22,3.22,0,0,0,3.23-3.23V152.21A3.23,3.23,0,0,0,245,149Z" fill="none" stroke="#003a50" stroke-miterlimit="10"/><path d="M237,162.85a2.24,2.24,0,1,0-2.24,2.23A2.23,2.23,0,0,0,237,162.85Z" fill="none" stroke="#003a50" stroke-miterlimit="10"/></g><polygon points="169.36 182.1 103.76 182.31 103.76 212.86 169.36 212.65 169.36 182.1" fill="none" stroke="#003a50" stroke-miterlimit="10"/><g clip-path="url(#clip-path)"><path d="M138.33,188.12v23a3.37,3.37,0,0,0,3.36,3.36h22.25a3.36,3.36,0,0,0,3.35-3.36v-23a3.36,3.36,0,0,0-3.35-3.36H141.69A3.37,3.37,0,0,0,138.33,188.12Z" fill="none" stroke="#003a50" stroke-miterlimit="10"/><circle cx="152.81" cy="199.62" r="2.27" fill="none" stroke="#003a50" stroke-miterlimit="10"/></g><rect x="256.22" y="15.9" width="36.34" height="30.5" fill="none" stroke="#003a50" stroke-miterlimit="10"/><rect x="97.57" y="16.52" width="122.19" height="29.57" fill="none" stroke="#003a50" stroke-miterlimit="10"/><g clip-path="url(#clip-path)"><path d="M112.45,20.71a.87.87,0,0,1,.49-.78.88.88,0,0,1,1.17.4,25.09,25.09,0,0,1,0,22,.87.87,0,0,1-1.57-.77,23.27,23.27,0,0,0,0-20.42A.92.92,0,0,1,112.45,20.71Z" fill="none" stroke="#003a50" stroke-miterlimit="10"/><path d="M117.29,20.71a.87.87,0,0,1,.49-.78.88.88,0,0,1,1.17.4,25.09,25.09,0,0,1,0,22,.87.87,0,0,1-1.57-.77,23.27,23.27,0,0,0,0-20.42A.92.92,0,0,1,117.29,20.71Z" fill="none" stroke="#003a50" stroke-miterlimit="10"/><path d="M122.13,20.71a.87.87,0,0,1,1.65-.38,25,25,0,0,1,0,22,.87.87,0,1,1-1.56-.77,23.27,23.27,0,0,0,0-20.42A.92.92,0,0,1,122.13,20.71Z" fill="none" stroke="#003a50" stroke-miterlimit="10"/><path d="M127,20.71a.87.87,0,0,1,1.65-.38,25,25,0,0,1,0,22,.87.87,0,1,1-1.56-.77,23.27,23.27,0,0,0,0-20.42A.8.8,0,0,1,127,20.71Z" fill="none" stroke="#003a50" stroke-miterlimit="10"/><path d="M131.8,20.71a.87.87,0,0,1,.49-.78.88.88,0,0,1,1.17.4,25,25,0,0,1,0,22,.87.87,0,1,1-1.56-.77,23.27,23.27,0,0,0,0-20.42A.81.81,0,0,1,131.8,20.71Z" fill="none" stroke="#003a50" stroke-miterlimit="10"/><path d="M136.64,20.71a.87.87,0,0,1,.49-.78.88.88,0,0,1,1.17.4,25,25,0,0,1,0,22,.87.87,0,1,1-1.56-.77,23.27,23.27,0,0,0,0-20.42A.81.81,0,0,1,136.64,20.71Z" fill="none" stroke="#003a50" stroke-miterlimit="10"/><path d="M107.61,20.71a.87.87,0,0,1,.49-.78.88.88,0,0,1,1.17.4,25.09,25.09,0,0,1,0,22,.87.87,0,0,1-1.57-.77,23.27,23.27,0,0,0,0-20.42A.92.92,0,0,1,107.61,20.71Z" fill="none" stroke="#003a50" stroke-miterlimit="10"/><path d="M102.77,20.71a.87.87,0,0,1,.49-.78.88.88,0,0,1,1.17.4,25,25,0,0,1,0,22,.87.87,0,1,1-1.56-.77,23.27,23.27,0,0,0,0-20.42A.81.81,0,0,1,102.77,20.71Z" fill="none" stroke="#003a50" stroke-miterlimit="10"/></g><line x1="97.57" y1="31.31" x2="219.76" y2="31.31" fill="none" stroke="#003a50" stroke-miterlimit="10"/><rect x="225.96" y="16.15" width="30.26" height="30.26" fill="none" stroke="#003a50" stroke-miterlimit="10"/><line x1="232.21" y1="31.28" x2="249.96" y2="31.28" fill="none" stroke="#003a50" stroke-miterlimit="10"/><line x1="241.09" y1="40.16" x2="241.09" y2="22.4" fill="none" stroke="#003a50" stroke-miterlimit="10"/><line x1="234.81" y1="37.56" x2="247.36" y2="25" fill="none" stroke="#003a50" stroke-miterlimit="10"/><line x1="247.37" y1="37.56" x2="234.81" y2="25" fill="none" stroke="#003a50" stroke-miterlimit="10"/><g clip-path="url(#clip-path)"><rect x="154.29" y="-34.11" width="40.34" height="34.69" fill="none" stroke="#003a50" stroke-miterlimit="10"/><rect x="97.57" y="-34.11" width="56.72" height="34.69" fill="none" stroke="#003a50" stroke-miterlimit="10"/><rect x="228.66" y="-34.33" width="34.02" height="34.02" fill="none" stroke="#003a50" stroke-miterlimit="10"/><rect x="322.22" y="-34.33" width="34.02" height="34.02" fill="none" stroke="#003a50" stroke-miterlimit="10"/><rect x="262.69" y="-34.33" width="93.55" height="34.02" fill="none" stroke="#003a50" stroke-miterlimit="10"/><rect x="253.9" y="383.82" width="34.02" height="105.94" fill="none" stroke="#003a50" stroke-miterlimit="10"/><path d="M473.52,62.54v-41H427.75V64.75H471.3A2.21,2.21,0,0,0,473.52,62.54Z" fill="none" stroke="#003a50" stroke-miterlimit="10"/><path d="M519.39,62.77V21.51H473.61V62.77a2,2,0,0,0,2,2h41.8A2,2,0,0,0,519.39,62.77Z" fill="none" stroke="#003a50" stroke-miterlimit="10"/><path d="M427.75,64.75a3.11,3.11,0,0,1-3.33,2.83H420.2a3.11,3.11,0,0,1-3.33-2.83V16.55H530.26V64.33a3.1,3.1,0,0,1-3.33,2.82h-4.22a3.1,3.1,0,0,1-3.32-2.82V21.5H427.75Z" fill="none" stroke="#003a50" stroke-miterlimit="10"/></g><rect x="427.75" y="21.51" width="91.64" height="9.25" fill="none" stroke="#003a50" stroke-miterlimit="10"/><g clip-path="url(#clip-path)"><rect x="446.84" y="383.87" width="22.68" height="22.68" fill="none" stroke="#003a50" stroke-miterlimit="10"/><rect x="312.75" y="383.87" width="22.68" height="22.68" fill="none" stroke="#003a50" stroke-miterlimit="10"/><rect x="340.22" y="383.87" width="102.05" height="113.39" fill="none" stroke="#003a50" stroke-miterlimit="10"/></g><rect x="368.18" y="344.37" width="22.68" height="22.68" fill="none" stroke="#003a50" stroke-miterlimit="10"/><g clip-path="url(#clip-path)"><path d="M373,349.21a9.2,9.2,0,1,1,0,13A9.2,9.2,0,0,1,373,349.21Z" fill="none" stroke="#003a50" stroke-miterlimit="10"/><path d="M372.39,349.9c1.7.17,3.41-.48,5.06,1.17,2.44,2.44-.14,5,2.3,7.45s5-.13,7.46,2.3" fill="none" stroke="#003a50" stroke-miterlimit="10"/></g><rect x="502.27" y="344.37" width="22.68" height="22.68" fill="none" stroke="#003a50" stroke-miterlimit="10"/><g clip-path="url(#clip-path)"><path d="M507.11,349.21a9.2,9.2,0,1,1,0,13A9.2,9.2,0,0,1,507.11,349.21Z" fill="none" stroke="#003a50" stroke-miterlimit="10"/><path d="M506.49,349.9c1.69.17,3.41-.48,5.06,1.17,2.44,2.44-.14,5,2.3,7.45s5-.13,7.46,2.3" fill="none" stroke="#003a50" stroke-miterlimit="10"/></g><rect x="395.43" y="253.66" width="102.05" height="113.39" fill="none" stroke="#003a50" stroke-miterlimit="10"/><g clip-path="url(#clip-path)"><path d="M405.43,263.4h82.05a2.08,2.08,0,0,1,2.08,2.08v67.64H403.34V265.48A2.09,2.09,0,0,1,405.43,263.4Z" fill="none" stroke="#003a50" stroke-miterlimit="10"/><rect x="447.32" y="336.74" width="42.5" height="22.88" rx="1.98" fill="none" stroke="#003a50" stroke-miterlimit="10"/><rect x="403.09" y="336.74" width="42.5" height="22.88" rx="1.98" fill="none" stroke="#003a50" stroke-miterlimit="10"/></g><line x1="403.09" y1="319.27" x2="489.82" y2="319.27" fill="none" stroke="#003a50" stroke-miterlimit="10"/><g clip-path="url(#clip-path)"><path d="M166.74,117.66v-3.08A38.73,38.73,0,0,0,128,75.86v41.8" fill="none" stroke="#003a50" stroke-miterlimit="10" stroke-width="1.6"/><path d="M369.87,177.42v3.52a44.37,44.37,0,0,1-44.37,44.38v-47.9" fill="none" stroke="#003a50" stroke-miterlimit="10" stroke-width="1.6"/><path d="M57.57,109H53.51A51.12,51.12,0,0,1,2.38,57.9H57.57" fill="none" stroke="#003a50" stroke-miterlimit="10" stroke-width="1.6"/><path d="M58.11,375.65H54.05A51.13,51.13,0,0,0,2.92,426.77H58.11" fill="none" stroke="#003a50" stroke-miterlimit="10" stroke-width="1.6"/><rect x="52.33" y="36.33" width="16.32" height="22.32" fill="#003a50"/><rect x="52.33" y="107.99" width="16.32" height="100.85" fill="#003a50"/><rect x="52.33" y="36.34" width="45.82" height="10" fill="#003a50"/><rect x="52.33" y="198.13" width="51.56" height="11.71" fill="#003a50"/><rect x="92.19" y="198.13" width="11.71" height="31.86" fill="#003a50"/><rect x="52.33" y="201.34" width="10.82" height="175.07" fill="#003a50"/><rect x="87.4" y="-32.33" width="10.75" height="78.67" fill="#003a50"/><rect x="87.4" y="-0.04" width="447.72" height="16.32" fill="#003a50"/><rect x="460.15" y="172.66" width="74.97" height="21.34" fill="#003a50"/><rect x="247.15" y="367.33" width="287.97" height="16.26" fill="#003a50"/><rect x="93.15" y="212.5" width="160.47" height="17.49" fill="#003a50"/><rect x="237.36" y="214.33" width="17.28" height="252.92" fill="#003a50"/><rect x="531.11" y="-21.63" width="36.1" height="96.07" fill="#003a50"/><rect x="535.11" y="48.53" width="44.33" height="25.9" fill="#003a50"/><rect x="531.11" y="345.37" width="37.77" height="96.07" fill="#003a50"/><rect x="531.11" y="166.02" width="46.1" height="96.07" fill="#003a50"/><rect x="165.9" y="114.03" width="50.48" height="6.38" fill="#003a50"/><rect x="63.15" y="114.03" width="65.7" height="6.38" fill="#003a50"/><rect x="63.15" y="150.53" width="39.24" height="6.38" fill="#003a50"/><rect x="97.52" y="117.22" width="6.38" height="82.4" fill="#003a50"/><rect x="315.92" y="174.67" width="10.41" height="6.38" fill="#003a50"/><rect x="213.19" y="114.03" width="6.38" height="100.79" fill="#003a50"/><rect x="315.92" y="174.67" width="6.38" height="87.74" fill="#003a50"/><rect x="315.92" y="317.15" width="6.38" height="59.44" fill="#003a50"/><rect x="52.33" y="-26.91" width="6.38" height="73.25" fill="#003a50"/><rect x="251.22" y="212.5" width="66.42" height="6.38" fill="#003a50"/><rect x="368.97" y="174.67" width="102.25" height="6.38" fill="#003a50"/><rect x="83.8" y="-21.34" width="6.38" height="58.66" fill="#003a50"/><line x1="218.38" y1="46.09" x2="218.38" y2="48.93" fill="none" stroke="#003a50" stroke-miterlimit="10"/><line x1="218.38" y1="55.03" x2="218.38" y2="113.02" fill="none" stroke="#003a50" stroke-miterlimit="10" stroke-dasharray="6.1 6.1"/><line x1="218.38" y1="116.07" x2="218.38" y2="118.91" fill="none" stroke="#003a50" stroke-miterlimit="10"/><rect x="219.71" y="7" width="6.38" height="39.84" fill="#003a50"/><rect x="222.19" y="-34.33" width="6.38" height="40.24" fill="#003a50"/><rect x="194.63" y="-34.4" width="6.38" height="40.31" fill="#003a50"/><rect x="210" y="251.83" width="6.38" height="176.75" fill="#003a50"/><rect x="84.26" y="245.77" width="6.38" height="121.57" fill="#003a50"/><rect x="84.88" y="245.77" width="131.33" height="6.38" fill="#003a50"/><rect x="59.05" y="364.14" width="31.58" height="6.38" fill="#003a50"/></g><g clip-path="url(#clip-path)"><path d="M307.88,282.59h-5.82v-1.84h8.86v1.84l-4.53,2.65v.07h1.28a3.9,3.9,0,0,1,2.79,1,3.5,3.5,0,0,1,1.06,2.67,3.35,3.35,0,0,1-1.33,2.82,7,7,0,0,1-7.24,0,3.36,3.36,0,0,1-1.33-2.86v-.32h2.11V289c0,1.37.94,2,2.84,2s2.84-.67,2.84-2-1-2-2.84-2H303.3v-1.67l4.58-2.68Z" fill="#003a50"/><path d="M313.62,292.52a1,1,0,0,1-.33-.8,1,1,0,0,1,.33-.81,1.4,1.4,0,0,1,1.73,0,1,1,0,0,1,.33.81,1,1,0,0,1-.33.8,1.4,1.4,0,0,1-1.73,0Z" fill="#003a50"/><path d="M319.52,283.31,317,285.26V283l2.73-2.27h1.86v11.91h-2.11Z" fill="#003a50"/><path d="M457.36,228.3l-2.48,1.95V228l2.73-2.27h1.86v11.91h-2.11Z" fill="#003a50"/><path d="M471.86,237.65h-9.93v-1.56a2.74,2.74,0,0,1,.58-1.74,4,4,0,0,1,1.45-1.2c.49-.25,1.12-.54,1.86-.86s1.33-.56,1.88-.77a4.23,4.23,0,0,0,1.45-.92,1.78,1.78,0,0,0,.57-1.3q0-1.89-2.67-1.89t-2.67,2.16V230h-2.11v-.41a3.62,3.62,0,0,1,1.26-3,5.38,5.38,0,0,1,3.51-1,5.66,5.66,0,0,1,3.52,1,3.31,3.31,0,0,1,1.27,2.75,3.12,3.12,0,0,1-.56,1.83,4.18,4.18,0,0,1-1.4,1.31c-.6.34-1.21.65-1.84.93s-1.23.52-1.82.75a5.46,5.46,0,0,0-1.41.74,1.26,1.26,0,0,0-.56,1h7.62Z" fill="#003a50"/><path d="M474,237.52a1,1,0,0,1-.32-.8,1.07,1.07,0,0,1,.32-.81,1.41,1.41,0,0,1,1.74,0,1.07,1.07,0,0,1,.32.81,1,1,0,0,1-.32.8,1.41,1.41,0,0,1-1.74,0Z" fill="#003a50"/><path d="M481.07,237.65h-2.35l5.42-10h-6.93v-1.88h9.28v1.88Z" fill="#003a50"/><path d="M459.93,104.67l-2.48,2v-2.24l2.73-2.27H462V114h-2.11Z" fill="#003a50"/><path d="M467.76,114h-2.35l5.42-10H463.9v-1.88h9.28V104Z" fill="#003a50"/><path d="M474.61,113.89a1,1,0,0,1-.32-.81,1.06,1.06,0,0,1,.32-.8,1.41,1.41,0,0,1,1.74,0,1.06,1.06,0,0,1,.32.8,1,1,0,0,1-.32.81,1.41,1.41,0,0,1-1.74,0Z" fill="#003a50"/><path d="M488.23,105.47H486s0-.06,0-.18a2.94,2.94,0,0,0-.22-.44,2.63,2.63,0,0,0-.39-.49,1.67,1.67,0,0,0-.71-.41,2.93,2.93,0,0,0-1-.17,2.53,2.53,0,0,0-2.15,1,4.44,4.44,0,0,0-.76,2.69h.06a1.5,1.5,0,0,1,.44-.44,4.76,4.76,0,0,1,.6-.36,4.41,4.41,0,0,1,.95-.31,6.23,6.23,0,0,1,1.22-.12,5,5,0,0,1,3.37,1.11,3.52,3.52,0,0,1,1.31,2.8,3.57,3.57,0,0,1-1.37,2.9,5.49,5.49,0,0,1-3.6,1.11,4.81,4.81,0,0,1-3.87-1.55,6.35,6.35,0,0,1-1.32-4.26V108a6.85,6.85,0,0,1,1.32-4.31,4.52,4.52,0,0,1,3.8-1.71,5.66,5.66,0,0,1,2.13.37,4,4,0,0,1,1.44.94A3.45,3.45,0,0,1,488.23,105.47Zm-2.51,3.15a3.65,3.65,0,0,0-4,0,2,2,0,0,0,0,3.14,3.63,3.63,0,0,0,4,0,2,2,0,0,0,0-3.14Z" fill="#003a50"/><path d="M136.88,121.34h-5.82V119.5h8.86v1.84L135.39,124v.07h1.28a3.86,3.86,0,0,1,2.79,1,3.49,3.49,0,0,1,1.06,2.66,3.35,3.35,0,0,1-1.33,2.83,7,7,0,0,1-7.24,0,3.36,3.36,0,0,1-1.33-2.86v-.32h2.11v.32c0,1.36.94,2,2.84,2s2.84-.67,2.84-2-.95-2-2.84-2H132.3v-1.67l4.58-2.68Z" fill="#003a50"/><path d="M142.62,131.27a1,1,0,0,1-.33-.8,1,1,0,0,1,.33-.81,1.23,1.23,0,0,1,.87-.3,1.2,1.2,0,0,1,.86.3,1,1,0,0,1,.33.81,1,1,0,0,1-.33.8,1.2,1.2,0,0,1-.86.3A1.23,1.23,0,0,1,142.62,131.27Z" fill="#003a50"/><path d="M156.24,122.85H154s0-.06,0-.17a2.36,2.36,0,0,0-.21-.44,2.4,2.4,0,0,0-.39-.5,1.85,1.85,0,0,0-.71-.41,3,3,0,0,0-1-.16,2.51,2.51,0,0,0-2.15,1,4.44,4.44,0,0,0-.76,2.69h.05a1.8,1.8,0,0,1,.44-.43,3.58,3.58,0,0,1,1.56-.67,5.49,5.49,0,0,1,1.22-.13,5.05,5.05,0,0,1,3.37,1.11,3.51,3.51,0,0,1,1.3,2.8,3.58,3.58,0,0,1-1.36,2.91,5.55,5.55,0,0,1-3.6,1.1,4.81,4.81,0,0,1-3.87-1.54,6.38,6.38,0,0,1-1.32-4.27v-.41a6.85,6.85,0,0,1,1.32-4.31,4.52,4.52,0,0,1,3.8-1.71,5.66,5.66,0,0,1,2.13.37,3.91,3.91,0,0,1,1.43.94A3.46,3.46,0,0,1,156.24,122.85ZM153.73,126a3.65,3.65,0,0,0-3.95,0,2,2,0,0,0,0,3.15,3.21,3.21,0,0,0,2,.59,3.26,3.26,0,0,0,2-.59,2,2,0,0,0,0-3.15Z" fill="#003a50"/><path d="M88.86,90.4H86.75V87.75h-7V85.91l6.29-7.42h2.79v7.42h1.6v1.84h-1.6Zm-2.11-4.49V80.58h-.06l-4.48,5.28v0Z" fill="#003a50"/><path d="M92.14,90.27a1,1,0,0,1-.32-.81,1.07,1.07,0,0,1,.32-.81,1.3,1.3,0,0,1,.88-.29,1.26,1.26,0,0,1,.86.29,1,1,0,0,1,.32.81,1,1,0,0,1-.32.81,1.26,1.26,0,0,1-.86.29A1.3,1.3,0,0,1,92.14,90.27Z" fill="#003a50"/><path d="M105.76,81.84h-2.2s0-.06,0-.17a2.53,2.53,0,0,0-.22-.44,2.64,2.64,0,0,0-.38-.5,2.08,2.08,0,0,0-.71-.41,3,3,0,0,0-1-.16,2.49,2.49,0,0,0-2.15,1,4.39,4.39,0,0,0-.77,2.68h.06a1.63,1.63,0,0,1,.44-.43,4.31,4.31,0,0,1,.61-.37,4.66,4.66,0,0,1,1-.3,5.41,5.41,0,0,1,1.21-.13,5.06,5.06,0,0,1,3.38,1.11,3.73,3.73,0,0,1-.06,5.71,5.54,5.54,0,0,1-3.61,1.1A4.81,4.81,0,0,1,97.39,89a6.36,6.36,0,0,1-1.32-4.27v-.41A6.85,6.85,0,0,1,97.39,80a4.52,4.52,0,0,1,3.81-1.71,5.64,5.64,0,0,1,2.12.38,3.72,3.72,0,0,1,1.44.94A3.42,3.42,0,0,1,105.76,81.84ZM103.26,85a3.67,3.67,0,0,0-4,0,2,2,0,0,0,0,3.15,3.26,3.26,0,0,0,2,.59,3.21,3.21,0,0,0,2-.59,2,2,0,0,0,0-3.15Z" fill="#003a50"/></g></svg>