<svg id="Слой_1" data-name="Слой 1" xmlns="http://www.w3.org/2000/svg" xmlns:xlink="http://www.w3.org/1999/xlink" viewBox="0 0 581.1 382.68"><defs><clipPath id="clip-path"><polygon points="235.93 0.68 235.93 84.11 0 84.11 0 382.25 580.82 382.25 580.82 0.68 235.93 0.68" fill="none"/></clipPath></defs><polygon points="66.88 377.9 66.97 382.25 530.32 382.25 530.32 377.9 66.88 377.9" fill="#fff"/><polygon points="246.35 9.46 246.35 98.5 63.96 94.53 67.86 274.77 67.86 324.39 67.93 369.53 531.75 369.53 531.75 177.64 531.75 125.83 531.75 9.46 246.35 9.46" fill="#fff"/><rect x="241.73" y="0.68" width="290.02" height="13.64" fill="#fff"/><g clip-path="url(#clip-path)"><rect x="-561.43" y="-1010.11" width="1115.44" height="2194.74" fill="none" stroke="#003a50" stroke-miterlimit="10"/><polygon points="-535.81 75.88 -535.81 1161.68 530.66 1161.68 530.66 -985.66 -535.81 -985.81 -535.81 7.1 -535.81 75.88" fill="none" stroke="#003a50" stroke-miterlimit="10"/></g><rect x="540.78" y="263.74" width="4.56" height="81.6" fill="#fff"/><rect x="540.78" y="263.74" width="4.56" height="81.6" fill="none" stroke="#003a50" stroke-miterlimit="10"/><line x1="543.06" y1="345.33" x2="543.06" y2="263.73" fill="none" stroke="#003a50" stroke-miterlimit="10"/><rect x="540.78" y="341.22" width="4.56" height="4.12" fill="#fff"/><rect x="540.78" y="341.22" width="4.56" height="4.12" fill="none" stroke="#003a50" stroke-miterlimit="10"/><rect x="540.78" y="263.73" width="4.56" height="4.12" fill="#fff"/><rect x="540.78" y="263.73" width="4.56" height="4.12" fill="none" stroke="#003a50" stroke-miterlimit="10"/><rect x="540.78" y="302.48" width="4.56" height="4.12" fill="#fff"/><rect x="540.78" y="302.48" width="4.56" height="4.12" fill="none" stroke="#003a50" stroke-miterlimit="10"/><rect x="540.78" y="75.01" width="4.56" height="91.66" fill="#fff"/><rect x="540.78" y="75.01" width="4.56" height="91.66" fill="none" stroke="#003a50" stroke-miterlimit="10"/><line x1="543.06" y1="166.67" x2="543.06" y2="75.01" fill="none" stroke="#003a50" stroke-miterlimit="10"/><rect x="540.78" y="162.04" width="4.56" height="4.63" fill="#fff"/><rect x="540.78" y="162.04" width="4.56" height="4.63" fill="none" stroke="#003a50" stroke-miterlimit="10"/><rect x="540.78" y="75.02" width="4.56" height="4.62" fill="#fff"/><rect x="540.78" y="75.02" width="4.56" height="4.62" fill="none" stroke="#003a50" stroke-miterlimit="10"/><rect x="540.78" y="118.53" width="4.56" height="4.63" fill="#fff"/><rect x="540.78" y="118.53" width="4.56" height="4.63" fill="none" stroke="#003a50" stroke-miterlimit="10"/><rect x="102.8" y="97.66" width="43.96" height="95.52" fill="none" stroke="#003a50" stroke-miterlimit="10"/><g clip-path="url(#clip-path)"><rect x="108.37" y="101.86" width="33.22" height="87.39" rx="13.7" fill="none" stroke="#003a50" stroke-miterlimit="10"/><circle cx="124.9" cy="174.12" r="2.28" transform="translate(-26.28 22.25) rotate(-9.22)" fill="none" stroke="#003a50" stroke-miterlimit="10"/><path d="M163.3,164.59v28.57h23.08V164.59a11.54,11.54,0,0,0-23.08,0Z" fill="none" stroke="#003a50" stroke-miterlimit="10"/></g><rect x="163.3" y="182.07" width="23.08" height="11.08" fill="none" stroke="#003a50" stroke-miterlimit="10"/><g clip-path="url(#clip-path)"><path d="M159.39,240.46a3.16,3.16,0,0,0,2.91-2h1.79l4.73,2.83-2.15,3.49-2.46-1.35v11h-10.3v-11l-2.47,1.35-2.15-3.49,4.78-2.83h2.38A3.21,3.21,0,0,0,159.39,240.46Z" fill="none" stroke="#003a50" stroke-miterlimit="10"/></g><rect x="143.27" y="230.8" width="31.57" height="30.9" fill="none" stroke="#003a50" stroke-miterlimit="10"/><g clip-path="url(#clip-path)"><rect x="254.16" y="-147.79" width="26.5" height="148.24" fill="none" stroke="#003a50" stroke-miterlimit="10"/><line x1="267.35" y1="-147.66" x2="267.35" y2="0.32" fill="none" stroke="#003a50" stroke-miterlimit="10"/><rect x="280.65" y="-26.04" width="34.54" height="26.5" fill="none" stroke="#003a50" stroke-miterlimit="10"/></g><rect x="270.25" y="331.77" width="34.02" height="34.02" fill="none" stroke="#003a50" stroke-miterlimit="10"/><g clip-path="url(#clip-path)"><path d="M299.66,356.39a4.64,4.64,0,1,1-4.63-4.64A4.63,4.63,0,0,1,299.66,356.39Z" fill="none" stroke="#003a50" stroke-miterlimit="10"/><path d="M284.18,356.39a4.64,4.64,0,1,1-4.64-4.64A4.64,4.64,0,0,1,284.18,356.39Z" fill="none" stroke="#003a50" stroke-miterlimit="10"/><path d="M299.66,341.3a4.64,4.64,0,1,1-4.63-4.64A4.63,4.63,0,0,1,299.66,341.3Z" fill="none" stroke="#003a50" stroke-miterlimit="10"/><path d="M284.18,341.3a4.64,4.64,0,1,1-4.64-4.64A4.64,4.64,0,0,1,284.18,341.3Z" fill="none" stroke="#003a50" stroke-miterlimit="10"/></g><rect x="428.27" y="186.97" width="102.05" height="17.01" fill="none" stroke="#003a50" stroke-miterlimit="10"/><polygon points="522.3 196.01 479.4 192.49 436.3 196.01 436.3 198.47 522.3 198.47 522.3 196.01" fill="none" stroke="#003a50" stroke-miterlimit="10"/><rect x="339.32" y="163.9" width="102.05" height="17.01" fill="none" stroke="#003a50" stroke-miterlimit="10"/><polygon points="347.34 171.86 390.23 175.39 433.34 171.86 433.34 169.41 347.34 169.41 347.34 171.86" fill="none" stroke="#003a50" stroke-miterlimit="10"/><g clip-path="url(#clip-path)"><rect x="355.29" y="381.97" width="175.03" height="17.01" fill="none" stroke="#003a50" stroke-miterlimit="10"/></g><rect x="214.06" y="331.64" width="152.36" height="34.28" fill="none" stroke="#003a50" stroke-miterlimit="10"/><g clip-path="url(#clip-path)"><path d="M322.63,246a1.25,1.25,0,0,1,.94,1.51,13.79,13.79,0,0,0,26.88,6.16,1.26,1.26,0,1,1,2.45.56A16.3,16.3,0,1,1,321.12,247,1.26,1.26,0,0,1,322.63,246Z" fill="none" stroke="#003a50" stroke-miterlimit="10"/><path d="M377.8,255.76a1.26,1.26,0,0,1,1.75-.34,13.78,13.78,0,0,0,15.52-22.78,1.26,1.26,0,1,1,1.42-2.08,16.3,16.3,0,1,1-18.36,26.94A1.25,1.25,0,0,1,377.8,255.76Z" fill="none" stroke="#003a50" stroke-miterlimit="10"/><path d="M380.3,208.35a1.27,1.27,0,0,1-1.33-1.18,13.78,13.78,0,1,0-27.52,1.63,1.25,1.25,0,0,1-1.18,1.33,1.26,1.26,0,0,1-1.33-1.18A16.3,16.3,0,1,1,381.48,207,1.24,1.24,0,0,1,380.3,208.35Z" fill="none" stroke="#003a50" stroke-miterlimit="10"/><path d="M336.83,262.65a12.69,12.69,0,0,1-12-15.48l2-8.88a3.53,3.53,0,0,1,4.24-2.68l13.44,3.08a23.73,23.73,0,0,0,6,9.44l-1,4.2C348.23,258.29,343,262.85,336.83,262.65Z" fill="none" stroke="#003a50" stroke-miterlimit="10"/><path d="M379.63,254.13l-2.32-1.6A23.81,23.81,0,0,0,391,231.21l2.52,1.72c5,3.44,7.4,10,5,15.64A12.7,12.7,0,0,1,379.63,254.13Z" fill="none" stroke="#003a50" stroke-miterlimit="10"/><path d="M352.79,211.85l-.12-2c-.36-6.12,3.4-12,9.32-13.48a12.66,12.66,0,0,1,15.88,11.48l.12,1.84a23.93,23.93,0,0,0-16.64-1.92A23.5,23.5,0,0,0,352.79,211.85Z" fill="none" stroke="#003a50" stroke-miterlimit="10"/><path d="M350.55,248.13a23.73,23.73,0,0,1-6-9.44,16.51,16.51,0,0,1-.6-2,23.85,23.85,0,0,1,8.84-24.84,23.5,23.5,0,0,1,8.56-4,23.87,23.87,0,0,1,28.92,17.4,22.12,22.12,0,0,1,.68,6,23.81,23.81,0,0,1-13.64,21.32,22.85,22.85,0,0,1-4.48,1.6A23.8,23.8,0,0,1,350.55,248.13Z" fill="none" stroke="#003a50" stroke-miterlimit="10"/></g><rect x="147.28" y="100.44" width="99.69" height="25.39" fill="none" stroke="#003a50" stroke-miterlimit="10"/><g clip-path="url(#clip-path)"><rect x="206.27" y="98.73" width="24.4" height="25.04" rx="2.83" fill="none" stroke="#003a50" stroke-miterlimit="10"/><circle cx="218.47" cy="111.25" r="1.91" fill="none" stroke="#003a50" stroke-miterlimit="10"/><rect x="163.54" y="98.73" width="24.4" height="25.04" rx="2.83" fill="none" stroke="#003a50" stroke-miterlimit="10"/><circle cx="175.74" cy="111.25" r="1.91" fill="none" stroke="#003a50" stroke-miterlimit="10"/></g><polyline points="226.46 362.75 233.26 362.75 240.04 362.75" fill="none" stroke="#003a50" stroke-miterlimit="10"/><line x1="233.28" y1="349.13" x2="233.28" y2="362.75" fill="none" stroke="#003a50" stroke-miterlimit="10"/><g clip-path="url(#clip-path)"><path d="M218.2,338.49v15.2a3.23,3.23,0,0,0,3.24,3.23H245a3.23,3.23,0,0,0,3.24-3.23v-15.2a3.23,3.23,0,0,0-3.24-3.23H221.44A3.23,3.23,0,0,0,218.2,338.49Z" fill="none" stroke="#003a50" stroke-miterlimit="10"/><path d="M233.28,347.44a2.43,2.43,0,1,0,2.42,2.42A2.42,2.42,0,0,0,233.28,347.44Z" fill="none" stroke="#003a50" stroke-miterlimit="10"/></g><rect x="215.58" y="230.8" width="32.18" height="30.88" fill="none" stroke="#003a50" stroke-miterlimit="10"/><polygon points="92.49 261.8 92.32 199.63 67.68 199.63 67.85 261.8 92.49 261.8" fill="none" stroke="#003a50" stroke-miterlimit="10"/><g clip-path="url(#clip-path)"><path d="M87.63,235H69.09a2.71,2.71,0,0,0-2.71,2.71v17.94a2.7,2.7,0,0,0,2.71,2.7H87.63a2.7,2.7,0,0,0,2.71-2.7V237.68A2.71,2.71,0,0,0,87.63,235Z" fill="none" stroke="#003a50" stroke-miterlimit="10"/><circle cx="78.36" cy="246.64" r="1.83" transform="matrix(0.99, -0.16, 0.16, 0.99, -38.5, 15.74)" fill="none" stroke="#003a50" stroke-miterlimit="10"/><path d="M103.48,228.55V199.7h22.8v28.85a11.4,11.4,0,0,1-22.8,0Z" fill="none" stroke="#003a50" stroke-miterlimit="10"/></g><line x1="126.28" y1="210.92" x2="103.49" y2="210.92" fill="none" stroke="#003a50" stroke-miterlimit="10"/><rect x="180.02" y="331.63" width="34.02" height="34.02" fill="none" stroke="#003a50" stroke-miterlimit="10"/><line x1="197.02" y1="351.4" x2="197.02" y2="361.96" fill="none" stroke="#003a50" stroke-miterlimit="10"/><g clip-path="url(#clip-path)"><path d="M197.93,351.4h-1.82a3.4,3.4,0,0,1-3.39-3.4V336.8h8.6V348A3.4,3.4,0,0,1,197.93,351.4Z" fill="none" stroke="#003a50" stroke-miterlimit="10"/></g><line x1="193.55" y1="361.96" x2="200.49" y2="361.96" fill="none" stroke="#003a50" stroke-miterlimit="10"/><g clip-path="url(#clip-path)"><rect x="207.7" y="381.97" width="147.59" height="34.02" fill="none" stroke="#003a50" stroke-miterlimit="10"/></g><rect x="67.86" y="331.77" width="105.88" height="33.88" fill="none" stroke="#003a50" stroke-miterlimit="10"/><g clip-path="url(#clip-path)"><path d="M83.83,336.57a1,1,0,0,1,.52-.89.9.9,0,0,1,1.25.45,30.35,30.35,0,0,1,0,25.16.91.91,0,0,1-1.25.46,1,1,0,0,1-.43-1.34,28.22,28.22,0,0,0,0-23.4A1,1,0,0,1,83.83,336.57Z" fill="none" stroke="#003a50" stroke-miterlimit="10"/><path d="M89,336.57a1,1,0,0,1,.52-.89.9.9,0,0,1,1.25.45,30.35,30.35,0,0,1,0,25.16.9.9,0,0,1-1.24.46,1,1,0,0,1-.44-1.34,28.22,28.22,0,0,0,0-23.4A1.12,1.12,0,0,1,89,336.57Z" fill="none" stroke="#003a50" stroke-miterlimit="10"/><path d="M94.21,336.57a1,1,0,0,1,.53-.89.9.9,0,0,1,1.25.45,30.45,30.45,0,0,1,0,25.16.91.91,0,0,1-1.25.46,1,1,0,0,1-.43-1.34,28.32,28.32,0,0,0,0-23.4A1,1,0,0,1,94.21,336.57Z" fill="none" stroke="#003a50" stroke-miterlimit="10"/><path d="M99.4,336.57a1,1,0,0,1,.53-.89.9.9,0,0,1,1.25.45,30.45,30.45,0,0,1,0,25.16.91.91,0,0,1-1.25.46,1,1,0,0,1-.43-1.34,28.22,28.22,0,0,0,0-23.4A1,1,0,0,1,99.4,336.57Z" fill="none" stroke="#003a50" stroke-miterlimit="10"/><path d="M104.6,336.57a1,1,0,0,1,.52-.89.9.9,0,0,1,1.25.45,30.35,30.35,0,0,1,0,25.16.91.91,0,0,1-1.25.46,1,1,0,0,1-.43-1.34,28.22,28.22,0,0,0,0-23.4A1,1,0,0,1,104.6,336.57Z" fill="none" stroke="#003a50" stroke-miterlimit="10"/><path d="M109.79,336.57a1,1,0,0,1,.52-.89.91.91,0,0,1,1.26.45,30.45,30.45,0,0,1,0,25.16.91.91,0,0,1-1.25.46,1,1,0,0,1-.43-1.34,28.32,28.32,0,0,0,0-23.4A1,1,0,0,1,109.79,336.57Z" fill="none" stroke="#003a50" stroke-miterlimit="10"/><path d="M78.63,336.57a1,1,0,0,1,.53-.89.9.9,0,0,1,1.25.45,30.45,30.45,0,0,1,0,25.16.91.91,0,0,1-1.25.46,1,1,0,0,1-.43-1.34,28.22,28.22,0,0,0,0-23.4A1,1,0,0,1,78.63,336.57Z" fill="none" stroke="#003a50" stroke-miterlimit="10"/><path d="M73.44,336.57a1,1,0,0,1,.52-.89.91.91,0,0,1,1.26.45,30.45,30.45,0,0,1,0,25.16.91.91,0,0,1-1.25.46,1,1,0,0,1-.43-1.34,28.32,28.32,0,0,0,0-23.4A1,1,0,0,1,73.44,336.57Z" fill="none" stroke="#003a50" stroke-miterlimit="10"/></g><line x1="67.86" y1="348.71" x2="173.74" y2="348.71" fill="none" stroke="#003a50" stroke-miterlimit="10"/><g clip-path="url(#clip-path)"><rect x="67.86" y="382.04" width="133.47" height="33.88" fill="none" stroke="#003a50" stroke-miterlimit="10"/></g><rect x="332.13" y="331.64" width="34.02" height="34.02" fill="none" stroke="#003a50" stroke-miterlimit="10"/><line x1="339.16" y1="348.64" x2="359.12" y2="348.64" fill="none" stroke="#003a50" stroke-miterlimit="10"/><line x1="349.14" y1="358.62" x2="349.14" y2="338.66" fill="none" stroke="#003a50" stroke-miterlimit="10"/><line x1="342.08" y1="355.7" x2="356.2" y2="341.59" fill="none" stroke="#003a50" stroke-miterlimit="10"/><line x1="356.2" y1="355.7" x2="342.08" y2="341.59" fill="none" stroke="#003a50" stroke-miterlimit="10"/><rect x="143.53" y="199.67" width="103.82" height="31.12" fill="none" stroke="#003a50" stroke-miterlimit="10"/><g clip-path="url(#clip-path)"><path d="M159.19,204.08a.92.92,0,0,1,1.74-.41,26.36,26.36,0,0,1,0,23.12.92.92,0,1,1-1.65-.81,24.43,24.43,0,0,0,0-21.49A1,1,0,0,1,159.19,204.08Z" fill="none" stroke="#003a50" stroke-miterlimit="10"/><path d="M164.28,204.08a.92.92,0,0,1,1.74-.41,26.36,26.36,0,0,1,0,23.12.91.91,0,1,1-1.64-.81,24.52,24.52,0,0,0,0-21.49A.86.86,0,0,1,164.28,204.08Z" fill="none" stroke="#003a50" stroke-miterlimit="10"/><path d="M169.37,204.08a.91.91,0,0,1,.51-.82.93.93,0,0,1,1.24.41,26.45,26.45,0,0,1,0,23.12.93.93,0,0,1-1.23.42.91.91,0,0,1-.42-1.23,24.52,24.52,0,0,0,0-21.49A.86.86,0,0,1,169.37,204.08Z" fill="none" stroke="#003a50" stroke-miterlimit="10"/><path d="M174.46,204.08a.93.93,0,0,1,1.75-.41,26.36,26.36,0,0,1,0,23.12.93.93,0,0,1-1.23.42.92.92,0,0,1-.42-1.23,24.52,24.52,0,0,0,0-21.49A.86.86,0,0,1,174.46,204.08Z" fill="none" stroke="#003a50" stroke-miterlimit="10"/><path d="M179.56,204.08a.91.91,0,0,1,.51-.82.92.92,0,0,1,1.23.41,26.36,26.36,0,0,1,0,23.12.92.92,0,1,1-1.65-.81,24.43,24.43,0,0,0,0-21.49A.85.85,0,0,1,179.56,204.08Z" fill="none" stroke="#003a50" stroke-miterlimit="10"/><path d="M184.65,204.08a.92.92,0,0,1,1.74-.41,26.36,26.36,0,0,1,0,23.12.92.92,0,1,1-1.65-.81,24.43,24.43,0,0,0,0-21.49A1,1,0,0,1,184.65,204.08Z" fill="none" stroke="#003a50" stroke-miterlimit="10"/><path d="M154.1,204.08a.91.91,0,0,1,.51-.82.92.92,0,0,1,1.23.41,26.36,26.36,0,0,1,0,23.12.92.92,0,0,1-1.65-.81,24.43,24.43,0,0,0,0-21.49A.85.85,0,0,1,154.1,204.08Z" fill="none" stroke="#003a50" stroke-miterlimit="10"/><path d="M149,204.08a.93.93,0,0,1,1.75-.41,26.36,26.36,0,0,1,0,23.12.93.93,0,0,1-1.23.42.92.92,0,0,1-.42-1.23,24.52,24.52,0,0,0,0-21.49A.86.86,0,0,1,149,204.08Z" fill="none" stroke="#003a50" stroke-miterlimit="10"/></g><line x1="143.53" y1="215.23" x2="247.35" y2="215.23" fill="none" stroke="#003a50" stroke-miterlimit="10"/><rect x="253.1" y="16.87" width="34.02" height="105.94" fill="none" stroke="#003a50" stroke-miterlimit="10"/><g clip-path="url(#clip-path)"><path d="M282.23,34.2a1,1,0,0,1,.44,1.91,28.77,28.77,0,0,1-25.26,0,1,1,0,0,1-.45-1.34,1,1,0,0,1,1.34-.46,26.81,26.81,0,0,0,23.49,0A1,1,0,0,1,282.23,34.2Z" fill="none" stroke="#003a50" stroke-miterlimit="10"/><path d="M282.23,39.77a1,1,0,0,1,.44,1.9,28.77,28.77,0,0,1-25.26,0,1,1,0,0,1,.89-1.8,26.72,26.72,0,0,0,23.49,0A1,1,0,0,1,282.23,39.77Z" fill="none" stroke="#003a50" stroke-miterlimit="10"/><path d="M282.23,45.33a1,1,0,0,1,.44,1.91,28.77,28.77,0,0,1-25.26,0A1,1,0,0,1,257,45.9a1,1,0,0,1,1.34-.46,26.81,26.81,0,0,0,23.49,0A1,1,0,0,1,282.23,45.33Z" fill="none" stroke="#003a50" stroke-miterlimit="10"/><path d="M282.23,50.9a1,1,0,0,1,.44,1.9,28.77,28.77,0,0,1-25.26,0,1,1,0,0,1,.89-1.8,26.72,26.72,0,0,0,23.49,0A1,1,0,0,1,282.23,50.9Z" fill="none" stroke="#003a50" stroke-miterlimit="10"/><path d="M282.23,56.47a1,1,0,0,1,.9.56,1,1,0,0,1-.46,1.34,28.77,28.77,0,0,1-25.26,0,1,1,0,0,1,.89-1.8,26.72,26.72,0,0,0,23.49,0A1,1,0,0,1,282.23,56.47Z" fill="none" stroke="#003a50" stroke-miterlimit="10"/><path d="M282.23,62a1,1,0,0,1,.44,1.9,28.77,28.77,0,0,1-25.26,0,1,1,0,0,1,.89-1.8,26.72,26.72,0,0,0,23.49,0A1,1,0,0,1,282.23,62Z" fill="none" stroke="#003a50" stroke-miterlimit="10"/><path d="M282.23,28.64a1,1,0,0,1,.44,1.9,28.77,28.77,0,0,1-25.26,0,1,1,0,0,1,.89-1.8,26.72,26.72,0,0,0,23.49,0A1,1,0,0,1,282.23,28.64Z" fill="none" stroke="#003a50" stroke-miterlimit="10"/><path d="M282.23,23.07a1,1,0,0,1,.44,1.91A28.54,28.54,0,0,1,270,27.9,28.57,28.57,0,0,1,257.41,25a1,1,0,0,1-.45-1.34,1,1,0,0,1,1.34-.46A26.43,26.43,0,0,0,270,25.89a26.44,26.44,0,0,0,11.75-2.71A1,1,0,0,1,282.23,23.07Z" fill="none" stroke="#003a50" stroke-miterlimit="10"/></g><line x1="270.04" y1="17.09" x2="270.04" y2="122.81" fill="none" stroke="#003a50" stroke-miterlimit="10"/><g clip-path="url(#clip-path)"><path d="M282.23,68.2a1,1,0,0,1,.44,1.9,28.77,28.77,0,0,1-25.26,0,1,1,0,0,1,.89-1.8,26.72,26.72,0,0,0,23.49,0A1,1,0,0,1,282.23,68.2Z" fill="none" stroke="#003a50" stroke-miterlimit="10"/><path d="M282.23,73.76a1,1,0,0,1,.44,1.91,28.77,28.77,0,0,1-25.26,0,1,1,0,0,1-.45-1.34,1,1,0,0,1,1.34-.46,26.81,26.81,0,0,0,23.49,0A.87.87,0,0,1,282.23,73.76Z" fill="none" stroke="#003a50" stroke-miterlimit="10"/><path d="M282.23,79.33a1,1,0,0,1,.44,1.9,28.77,28.77,0,0,1-25.26,0,1,1,0,0,1,.89-1.8,26.72,26.72,0,0,0,23.49,0A1,1,0,0,1,282.23,79.33Z" fill="none" stroke="#003a50" stroke-miterlimit="10"/><path d="M470,319v41H424.23V316.76h43.56A2.22,2.22,0,0,1,470,319Z" fill="none" stroke="#003a50" stroke-miterlimit="10"/><path d="M515.87,318.75V360H470.1V318.75a2,2,0,0,1,2-2h41.81A2,2,0,0,1,515.87,318.75Z" fill="none" stroke="#003a50" stroke-miterlimit="10"/><path d="M424.23,316.76a3.1,3.1,0,0,0-3.32-2.82h-4.23a3.1,3.1,0,0,0-3.32,2.82V365H526.74V317.19a3.1,3.1,0,0,0-3.32-2.83H519.2a3.11,3.11,0,0,0-3.33,2.83V360H424.23Z" fill="none" stroke="#003a50" stroke-miterlimit="10"/></g><rect x="424.23" y="350.76" width="91.64" height="9.25" fill="none" stroke="#003a50" stroke-miterlimit="10"/><rect x="446.05" y="16.92" width="22.68" height="22.68" fill="none" stroke="#003a50" stroke-miterlimit="10"/><g clip-path="url(#clip-path)"><path d="M463.89,34.76a9.2,9.2,0,1,1,0-13A9.19,9.19,0,0,1,463.89,34.76Z" fill="none" stroke="#003a50" stroke-miterlimit="10"/><path d="M464.51,34.07c-1.69-.17-3.41.49-5.06-1.17-2.44-2.44.14-5-2.3-7.45s-5,.13-7.46-2.3" fill="none" stroke="#003a50" stroke-miterlimit="10"/></g><rect x="311.95" y="16.92" width="22.68" height="22.68" fill="none" stroke="#003a50" stroke-miterlimit="10"/><g clip-path="url(#clip-path)"><path d="M329.79,34.76a9.19,9.19,0,1,1,0-13A9.17,9.17,0,0,1,329.79,34.76Z" fill="none" stroke="#003a50" stroke-miterlimit="10"/><path d="M330.42,34.07c-1.7-.17-3.42.49-5.07-1.17-2.44-2.44.15-5-2.3-7.45s-5,.13-7.45-2.3" fill="none" stroke="#003a50" stroke-miterlimit="10"/></g><rect x="339.43" y="16.92" width="102.05" height="113.39" fill="none" stroke="#003a50" stroke-miterlimit="10"/><g clip-path="url(#clip-path)"><path d="M431.47,120.57h-82a2.08,2.08,0,0,1-2.09-2.08V50.85h86.22v67.64A2.08,2.08,0,0,1,431.47,120.57Z" fill="none" stroke="#003a50" stroke-miterlimit="10"/><rect x="347.09" y="24.36" width="42.5" height="22.88" rx="1.98" fill="none" stroke="#003a50" stroke-miterlimit="10"/><rect x="391.31" y="24.36" width="42.5" height="22.88" rx="1.98" fill="none" stroke="#003a50" stroke-miterlimit="10"/></g><line x1="433.81" y1="64.7" x2="347.09" y2="64.7" fill="none" stroke="#003a50" stroke-miterlimit="10"/><g clip-path="url(#clip-path)"><rect x="367.38" y="-22.58" width="22.68" height="22.68" fill="none" stroke="#003a50" stroke-miterlimit="10"/><rect x="501.48" y="-22.58" width="22.68" height="22.68" fill="none" stroke="#003a50" stroke-miterlimit="10"/><rect x="394.64" y="-113.29" width="102.05" height="113.39" fill="none" stroke="#003a50" stroke-miterlimit="10"/><path d="M243.7,251a1,1,0,0,1,.44,1.9,28.77,28.77,0,0,1-25.26,0,1,1,0,0,1,.89-1.8,26.72,26.72,0,0,0,23.49,0A1,1,0,0,1,243.7,251Z" fill="none" stroke="#003a50" stroke-miterlimit="10"/><path d="M243.7,245.44a1,1,0,0,1,.44,1.91,28.77,28.77,0,0,1-25.26,0,1,1,0,0,1-.45-1.34,1,1,0,0,1,1.34-.46,26.81,26.81,0,0,0,23.49,0A1,1,0,0,1,243.7,245.44Z" fill="none" stroke="#003a50" stroke-miterlimit="10"/><path d="M243.7,239.88a1,1,0,0,1,.44,1.9,28.77,28.77,0,0,1-25.26,0,1,1,0,0,1,.89-1.8,26.72,26.72,0,0,0,23.49,0A1,1,0,0,1,243.7,239.88Z" fill="none" stroke="#003a50" stroke-miterlimit="10"/></g><line x1="231.51" y1="231.05" x2="231.51" y2="261.47" fill="none" stroke="#003a50" stroke-miterlimit="10"/><g clip-path="url(#clip-path)"><path d="M134.75,264.44v3.08A38.72,38.72,0,0,1,96,306.23V264.44" fill="none" stroke="#003a50" stroke-miterlimit="10" stroke-width="1.6"/><path d="M302.67,183.34v3.38a42.58,42.58,0,0,1-42.58,42.59v-46" fill="none" stroke="#003a50" stroke-miterlimit="10" stroke-width="1.6"/><path d="M249.22,133.69h3.07A38.72,38.72,0,0,1,291,172.41H249.22" fill="none" stroke="#003a50" stroke-miterlimit="10" stroke-width="1.6"/><path d="M57.32,274.23H53.25A51.11,51.11,0,0,0,2.13,325.35H57.32" fill="none" stroke="#003a50" stroke-miterlimit="10" stroke-width="1.6"/><path d="M57.32,8.7H53.25A51.12,51.12,0,0,0,2.13,59.83H57.32" fill="none" stroke="#003a50" stroke-miterlimit="10" stroke-width="1.6"/><rect x="51.54" y="97.93" width="16.32" height="176.83" fill="#003a50"/><rect x="51.54" y="324.39" width="16.32" height="98.25" fill="#003a50"/><rect x="64.01" y="365.63" width="474.34" height="16.32" fill="#003a50"/><rect x="51.54" y="-165.61" width="10.82" height="175.07" fill="#003a50"/><rect x="51.54" y="58.38" width="10.82" height="37.76" fill="#003a50"/><rect x="246.35" y="0.38" width="287.97" height="16.26" fill="#003a50"/><rect x="51.54" y="84.05" width="201.28" height="16.26" fill="#003a50"/><rect x="236.57" y="-152.61" width="17.28" height="252.92" fill="#003a50"/><rect x="530.32" y="-21.58" width="37.77" height="96.07" fill="#003a50"/><rect x="534.32" y="48.59" width="44.33" height="25.9" fill="#003a50"/><rect x="530.32" y="345.81" width="37.77" height="96.07" fill="#003a50"/><rect x="530.32" y="167.2" width="48.33" height="96.07" fill="#003a50"/><rect x="133.73" y="261.69" width="44.36" height="6.38" fill="#003a50"/><rect x="63.76" y="193.19" width="187.46" height="6.38" fill="#003a50"/><rect x="136.9" y="198.38" width="6.38" height="65.34" fill="#003a50"/><rect x="173.74" y="331.78" width="6.38" height="40.91" fill="#003a50"/><rect x="201.32" y="377.82" width="6.38" height="38.58" fill="#003a50"/><rect x="173.74" y="331.21" width="6.38" height="41.48" fill="#003a50"/><rect x="152.72" y="344.46" width="24.71" height="6.38" fill="#003a50"/><rect x="152.72" y="344.46" width="6.38" height="26.75" fill="#003a50"/><rect x="179.26" y="377.9" width="6.38" height="26.75" fill="#003a50"/><rect x="215.26" y="261.69" width="35.96" height="6.38" fill="#003a50"/><rect x="57.32" y="261.69" width="39.55" height="6.38" fill="#003a50"/><rect x="247.48" y="84.05" width="6.38" height="50.48" fill="#003a50"/><rect x="96.86" y="96.14" width="6.38" height="97.9" fill="#003a50"/><rect x="63.76" y="156.57" width="37.83" height="6.38" fill="#003a50"/><rect x="247.48" y="171.58" width="6.38" height="96.49" fill="#003a50"/><rect x="315.12" y="-49.79" width="6.38" height="59.44" fill="#003a50"/><rect x="301.84" y="180.59" width="228.49" height="6.38" fill="#003a50"/><rect x="249.59" y="180.59" width="11.25" height="6.38" fill="#003a50"/><line x1="178.09" y1="268.07" x2="178.09" y2="270.9" fill="none" stroke="#003a50" stroke-miterlimit="10"/><line x1="178.09" y1="276.27" x2="178.09" y2="327.31" fill="none" stroke="#003a50" stroke-miterlimit="10" stroke-dasharray="5.37 5.37"/><line x1="178.09" y1="330" x2="178.09" y2="332.84" fill="none" stroke="#003a50" stroke-miterlimit="10"/><rect x="209.21" y="-115.11" width="6.38" height="176.75" fill="#003a50"/><rect x="83.46" y="-121.18" width="6.38" height="121.57" fill="#003a50"/><rect x="58.26" y="61.64" width="157.33" height="6.38" fill="#003a50"/><rect x="58.26" y="-2.8" width="31.58" height="6.38" fill="#003a50"/></g><g clip-path="url(#clip-path)"><path d="M459.7,290.5l-2.49,2v-2.25L460,288h1.86v11.9H459.7Z" fill="#003a50"/><path d="M464.56,296.51h2.2s0,.07.05.18a2.18,2.18,0,0,0,.22.43,2.41,2.41,0,0,0,.42.48,2,2,0,0,0,.75.42,3.21,3.21,0,0,0,1.05.17,2.67,2.67,0,0,0,2.24-1.07,4.29,4.29,0,0,0,.8-2.7h-.05a2.55,2.55,0,0,1-.44.46,3,3,0,0,1-.6.4,3.88,3.88,0,0,1-.95.32,5.59,5.59,0,0,1-1.23.14,5,5,0,0,1-3.36-1.13,3.74,3.74,0,0,1,0-5.73,5.55,5.55,0,0,1,3.6-1.1,4.81,4.81,0,0,1,3.87,1.54,6.4,6.4,0,0,1,1.32,4.27V294a6.64,6.64,0,0,1-1.37,4.31,4.69,4.69,0,0,1-3.88,1.71,5.91,5.91,0,0,1-2.17-.37,3.86,3.86,0,0,1-1.48-.95A3.31,3.31,0,0,1,464.56,296.51Zm2.77-3.17a3.58,3.58,0,0,0,3.94,0,2,2,0,0,0,0-3.14,3.21,3.21,0,0,0-2-.58,3.17,3.17,0,0,0-2,.58,2,2,0,0,0,0,3.14Z" fill="#003a50"/><path d="M476.69,299.72a1,1,0,0,1-.33-.8,1,1,0,0,1,.33-.81,1.23,1.23,0,0,1,.87-.3,1.2,1.2,0,0,1,.86.3,1,1,0,0,1,.33.81,1,1,0,0,1-.33.8,1.2,1.2,0,0,1-.86.3A1.23,1.23,0,0,1,476.69,299.72Z" fill="#003a50"/><path d="M482.59,290.5l-2.48,2v-2.25l2.73-2.26h1.86v11.9h-2.11Z" fill="#003a50"/><path d="M193.35,256.31h-9.93v-1.56A2.74,2.74,0,0,1,184,253a4,4,0,0,1,1.44-1.2c.5-.25,1.12-.54,1.87-.86s1.33-.56,1.88-.77a4.09,4.09,0,0,0,1.44-.92,1.76,1.76,0,0,0,.58-1.3c0-1.26-.89-1.88-2.67-1.88s-2.67.72-2.67,2.15v.41h-2.11v-.41a3.62,3.62,0,0,1,1.26-3,5.38,5.38,0,0,1,3.51-1,5.66,5.66,0,0,1,3.52,1,3.31,3.31,0,0,1,1.27,2.75,3.17,3.17,0,0,1-.56,1.84,4.26,4.26,0,0,1-1.4,1.3c-.6.34-1.21.65-1.84.93s-1.23.53-1.83.75a5.55,5.55,0,0,0-1.4.74,1.24,1.24,0,0,0-.56,1h7.62Z" fill="#003a50"/><path d="M195.45,256.18a1,1,0,0,1-.32-.8,1.07,1.07,0,0,1,.32-.81,1.41,1.41,0,0,1,1.74,0,1.07,1.07,0,0,1,.32.81,1,1,0,0,1-.32.8,1.41,1.41,0,0,1-1.74,0Z" fill="#003a50"/><path d="M209.23,256.31H199.3v-1.56a2.74,2.74,0,0,1,.58-1.74,4,4,0,0,1,1.44-1.2c.5-.25,1.12-.54,1.87-.86s1.32-.56,1.88-.77a4.09,4.09,0,0,0,1.44-.92,1.8,1.8,0,0,0,.58-1.3c0-1.26-.89-1.88-2.67-1.88s-2.67.72-2.67,2.15v.41h-2.11v-.41a3.62,3.62,0,0,1,1.26-3,5.36,5.36,0,0,1,3.51-1,5.61,5.61,0,0,1,3.51,1A3.29,3.29,0,0,1,209.2,248a3.17,3.17,0,0,1-.56,1.84,4.36,4.36,0,0,1-1.4,1.3c-.6.34-1.21.65-1.84.93s-1.23.53-1.83.75a5.55,5.55,0,0,0-1.4.74,1.25,1.25,0,0,0-.57,1h7.63Z" fill="#003a50"/><path d="M150.78,289.81H145V288h8.86v1.85l-4.52,2.65v.06h1.27a3.83,3.83,0,0,1,2.79,1,3.47,3.47,0,0,1,1.06,2.66,3.34,3.34,0,0,1-1.33,2.83,7,7,0,0,1-7.24,0,3.37,3.37,0,0,1-1.33-2.86v-.33h2.11v.33c0,1.36,1,2,2.84,2s2.84-.66,2.84-2-.95-2-2.84-2h-3.26v-1.66l4.57-2.69Z" fill="#003a50"/><path d="M156.52,299.74a1,1,0,0,1-.32-.81,1,1,0,0,1,.32-.8,1.41,1.41,0,0,1,1.74,0,1.06,1.06,0,0,1,.32.8,1,1,0,0,1-.32.81,1.41,1.41,0,0,1-1.74,0Z" fill="#003a50"/><path d="M165.8,291.89a5,5,0,0,1,3.34,1.06,4.17,4.17,0,0,1,0,6,5.38,5.38,0,0,1-3.54,1.08,5.87,5.87,0,0,1-3.57-1,3.16,3.16,0,0,1-1.28-2.69h2.1a1.55,1.55,0,0,0,.71,1.34,3.57,3.57,0,0,0,2,.48,3.17,3.17,0,0,0,2-.57,2.36,2.36,0,0,0,0-3.39,3.25,3.25,0,0,0-2.07-.58,3.6,3.6,0,0,0-1.92.42,2,2,0,0,0-.7.64l-.05.12h-2.1V288h8.87v1.85h-6.77v2.95h.05a2.77,2.77,0,0,1,.4-.3,3.11,3.11,0,0,1,.55-.27A5.63,5.63,0,0,1,165.8,291.89Z" fill="#003a50"/><path d="M106.29,250.36l-2.49,2v-2.25l2.74-2.26h1.86v11.91h-2.11Z" fill="#003a50"/><path d="M110.92,259.58a1,1,0,0,1-.32-.8,1.07,1.07,0,0,1,.32-.81,1.41,1.41,0,0,1,1.74,0,1.07,1.07,0,0,1,.32.81,1,1,0,0,1-.32.8,1.41,1.41,0,0,1-1.74,0Z" fill="#003a50"/><path d="M120.21,251.74a5,5,0,0,1,3.33,1.06,4.16,4.16,0,0,1,0,6,5.38,5.38,0,0,1-3.54,1.08,5.8,5.8,0,0,1-3.57-1,3.18,3.18,0,0,1-1.28-2.68h2.11a1.53,1.53,0,0,0,.7,1.33,3.53,3.53,0,0,0,2,.49,3.11,3.11,0,0,0,2-.58,2.34,2.34,0,0,0,0-3.38,3.25,3.25,0,0,0-2.07-.59,3.6,3.6,0,0,0-1.92.42,1.87,1.87,0,0,0-.69.64l0,.12h-2.11v-6.87H124v1.84h-6.76v3h0a1.68,1.68,0,0,1,.4-.31,3.4,3.4,0,0,1,.54-.27A5.92,5.92,0,0,1,120.21,251.74Z" fill="#003a50"/><path d="M185.22,146.72h-2.11v-2.65h-7v-1.85l6.29-7.41h2.79v7.41h1.6v1.85h-1.6Zm-2.11-4.5V136.9H183l-4.47,5.27v.05Z" fill="#003a50"/><path d="M188.5,146.58a1,1,0,0,1-.32-.8,1.07,1.07,0,0,1,.32-.81,1.41,1.41,0,0,1,1.74,0,1.07,1.07,0,0,1,.32.81,1,1,0,0,1-.32.8,1.41,1.41,0,0,1-1.74,0Z" fill="#003a50"/><path d="M197.79,138.73a5,5,0,0,1,3.33,1.07,4.16,4.16,0,0,1,0,6,5.38,5.38,0,0,1-3.54,1.08,5.8,5.8,0,0,1-3.57-1,3.18,3.18,0,0,1-1.28-2.68h2.11a1.53,1.53,0,0,0,.7,1.33,3.61,3.61,0,0,0,2,.49,3.17,3.17,0,0,0,2-.58,2.36,2.36,0,0,0,0-3.39,3.31,3.31,0,0,0-2.07-.58,3.6,3.6,0,0,0-1.92.42,1.87,1.87,0,0,0-.69.64l0,.12h-2.11v-6.87h8.87v1.84H194.8v3h0a1.83,1.83,0,0,1,.39-.31,4,4,0,0,1,.55-.27A5.66,5.66,0,0,1,197.79,138.73Z" fill="#003a50"/><path d="M457.16,137.36l-2.48,2v-2.25l2.73-2.26h1.86v11.91h-2.11Z" fill="#003a50"/><path d="M467.17,138.73a5,5,0,0,1,3.34,1.07,4.18,4.18,0,0,1,0,6,5.39,5.39,0,0,1-3.55,1.08,5.77,5.77,0,0,1-3.56-1,3.16,3.16,0,0,1-1.29-2.68h2.11a1.53,1.53,0,0,0,.7,1.33,3.61,3.61,0,0,0,2,.49,3.15,3.15,0,0,0,2-.58,2,2,0,0,0,.7-1.68,2.05,2.05,0,0,0-.73-1.71,3.31,3.31,0,0,0-2.07-.58,3.58,3.58,0,0,0-1.92.42,1.84,1.84,0,0,0-.7.64l-.05.12h-2.11v-6.87H471v1.84h-6.77v3h.05a1.91,1.91,0,0,1,.4-.31,4,4,0,0,1,.55-.27A5.6,5.6,0,0,1,467.17,138.73Z" fill="#003a50"/><path d="M473.87,146.58a1,1,0,0,1-.32-.8,1.07,1.07,0,0,1,.32-.81,1.41,1.41,0,0,1,1.74,0,1.07,1.07,0,0,1,.32.81,1,1,0,0,1-.32.8,1.41,1.41,0,0,1-1.74,0Z" fill="#003a50"/><path d="M479.78,137.36l-2.49,2v-2.25l2.74-2.26h1.86v11.91h-2.11Z" fill="#003a50"/></g></svg>