<svg id="Слой_1" data-name="Слой 1" xmlns="http://www.w3.org/2000/svg" xmlns:xlink="http://www.w3.org/1999/xlink" viewBox="0 0 581.1 228.47"><defs><clipPath id="clip-path"><rect width="581.1" height="228.47" fill="none"/></clipPath></defs><polygon points="54.13 224.36 54.13 228.47 530.19 228.47 530.19 225.11 75.29 225.11 75.29 224.36 54.13 224.36" fill="#fff"/><polygon points="66.88 12.12 530.32 12.12 530.32 222.14 66.88 222.14 67.86 106.36 67.86 56.86 66.88 12.12" fill="#fff"/><rect x="67.92" width="463.83" height="3.75" transform="translate(0 0.48) rotate(-0.09)" fill="#fff"/><g clip-path="url(#clip-path)"><rect x="-561.43" y="-1375.89" width="1115.44" height="2194.74" fill="none" stroke="#003a50" stroke-miterlimit="10"/><polygon points="-535.81 -289.9 -535.81 795.89 530.66 795.89 530.66 -1351.44 -535.81 -1351.59 -535.81 -358.69 -535.81 -289.9" fill="none" stroke="#003a50" stroke-miterlimit="10"/></g><rect x="540.78" y="76.56" width="4.56" height="87.34" fill="#fff"/><rect x="540.78" y="76.56" width="4.56" height="87.34" fill="none" stroke="#003a50" stroke-miterlimit="10"/><line x1="543.06" y1="163.91" x2="543.06" y2="76.56" fill="none" stroke="#003a50" stroke-miterlimit="10"/><rect x="540.78" y="159.5" width="4.56" height="4.41" fill="#fff"/><rect x="540.78" y="159.5" width="4.56" height="4.41" fill="none" stroke="#003a50" stroke-miterlimit="10"/><rect x="540.78" y="76.56" width="4.56" height="4.41" fill="#fff"/><rect x="540.78" y="76.56" width="4.56" height="4.41" fill="none" stroke="#003a50" stroke-miterlimit="10"/><rect x="540.78" y="118.03" width="4.56" height="4.41" fill="#fff"/><rect x="540.78" y="118.03" width="4.56" height="4.41" fill="none" stroke="#003a50" stroke-miterlimit="10"/><rect x="168.4" y="120.75" width="43.96" height="95.52" fill="none" stroke="#003a50" stroke-miterlimit="10"/><g clip-path="url(#clip-path)"><rect x="173.56" y="124.95" width="33.22" height="87.39" rx="13.7" fill="none" stroke="#003a50" stroke-miterlimit="10"/><circle cx="190.26" cy="197.21" r="2.28" fill="none" stroke="#003a50" stroke-miterlimit="10"/><path d="M131.55,168H103V144.91h28.57a11.54,11.54,0,1,1,0,23.08Z" fill="none" stroke="#003a50" stroke-miterlimit="10"/></g><rect x="102.98" y="144.91" width="11.08" height="23.08" fill="none" stroke="#003a50" stroke-miterlimit="10"/><g clip-path="url(#clip-path)"><path d="M119.61,194.65a3.14,3.14,0,0,0,2.9-2h1.79l4.73,2.83L126.89,199l-2.47-1.35v11h-10.3v-11L111.66,199l-2.15-3.49,4.77-2.83h2.39A3.2,3.2,0,0,0,119.61,194.65Z" fill="none" stroke="#003a50" stroke-miterlimit="10"/></g><rect x="103.49" y="185.46" width="31.57" height="30.42" fill="none" stroke="#003a50" stroke-miterlimit="10"/><g clip-path="url(#clip-path)"><rect x="355.56" y="228.29" width="33.97" height="34.02" fill="none" stroke="#003a50" stroke-miterlimit="10"/></g><rect x="219.22" y="147.59" width="34.02" height="33.97" fill="none" stroke="#003a50" stroke-miterlimit="10"/><g clip-path="url(#clip-path)"><path d="M231.93,163.05V152h8.61v11.05a3.55,3.55,0,0,1-3.55,3.54h-1.51A3.55,3.55,0,0,1,231.93,163.05Z" fill="none" stroke="#003a50" stroke-miterlimit="10"/></g><polyline points="239.71 177.15 236.23 177.15 232.76 177.15" fill="none" stroke="#003a50" stroke-miterlimit="10"/><line x1="236.23" y1="166.59" x2="236.23" y2="177.15" fill="none" stroke="#003a50" stroke-miterlimit="10"/><g clip-path="url(#clip-path)"><rect x="436.03" y="228.29" width="34.02" height="34.02" fill="none" stroke="#003a50" stroke-miterlimit="10"/></g><rect x="292.79" y="181.55" width="34.02" height="34.02" fill="none" stroke="#003a50" stroke-miterlimit="10"/><g clip-path="url(#clip-path)"><path d="M322.2,206.17a4.64,4.64,0,1,1-4.63-4.64A4.63,4.63,0,0,1,322.2,206.17Z" fill="none" stroke="#003a50" stroke-miterlimit="10"/><path d="M306.72,206.17a4.64,4.64,0,1,1-4.64-4.64A4.63,4.63,0,0,1,306.72,206.17Z" fill="none" stroke="#003a50" stroke-miterlimit="10"/><path d="M322.2,191.08a4.64,4.64,0,1,1-4.63-4.64A4.63,4.63,0,0,1,322.2,191.08Z" fill="none" stroke="#003a50" stroke-miterlimit="10"/><path d="M306.72,191.08a4.64,4.64,0,1,1-4.64-4.64A4.63,4.63,0,0,1,306.72,191.08Z" fill="none" stroke="#003a50" stroke-miterlimit="10"/><rect x="270.25" y="-34.01" width="34.02" height="34.02" fill="none" stroke="#003a50" stroke-miterlimit="10"/></g><rect x="355.29" y="16.19" width="175.03" height="17.01" fill="none" stroke="#003a50" stroke-miterlimit="10"/><polygon points="507.11 25.23 464.21 21.7 421.11 25.23 421.11 27.69 507.11 27.69 507.11 25.23" fill="none" stroke="#003a50" stroke-miterlimit="10"/><g clip-path="url(#clip-path)"><rect x="296.6" y="228.15" width="199.42" height="34.28" fill="none" stroke="#003a50" stroke-miterlimit="10"/><rect x="214.06" y="-34.14" width="152.36" height="34.28" fill="none" stroke="#003a50" stroke-miterlimit="10"/><rect x="248.24" y="227.94" width="42.22" height="83.62" fill="none" stroke="#003a50" stroke-miterlimit="10"/></g><polyline points="265.39 211.84 272.19 211.84 278.97 211.84" fill="none" stroke="#003a50" stroke-miterlimit="10"/><line x1="272.2" y1="198.22" x2="272.2" y2="211.84" fill="none" stroke="#003a50" stroke-miterlimit="10"/><g clip-path="url(#clip-path)"><path d="M257.13,187.58v15.2a3.24,3.24,0,0,0,3.24,3.23H284a3.23,3.23,0,0,0,3.23-3.23v-15.2a3.23,3.23,0,0,0-3.23-3.24H260.37A3.24,3.24,0,0,0,257.13,187.58Z" fill="none" stroke="#003a50" stroke-miterlimit="10"/><path d="M272.2,196.52a2.43,2.43,0,1,0,2.43,2.43A2.42,2.42,0,0,0,272.2,196.52Z" fill="none" stroke="#003a50" stroke-miterlimit="10"/></g><rect x="219.22" y="181.55" width="136.06" height="34.02" fill="none" stroke="#003a50" stroke-miterlimit="10"/><g clip-path="url(#clip-path)"><polygon points="247.99 259.26 174.52 259.05 174.52 228.5 247.99 228.72 247.99 259.26" fill="none" stroke="#003a50" stroke-miterlimit="10"/><path d="M215.35,253.24v-23a3.36,3.36,0,0,1,3.36-3.36H241a3.35,3.35,0,0,1,3.35,3.36v23A3.35,3.35,0,0,1,241,256.6H218.71A3.36,3.36,0,0,1,215.35,253.24Z" fill="none" stroke="#003a50" stroke-miterlimit="10"/></g><polygon points="168.17 185.37 103.21 185.58 103.21 216.13 168.17 215.91 168.17 185.37" fill="none" stroke="#003a50" stroke-miterlimit="10"/><g clip-path="url(#clip-path)"><path d="M137.78,191.39v23a3.36,3.36,0,0,0,3.36,3.36h22.25a3.35,3.35,0,0,0,3.35-3.36v-23a3.35,3.35,0,0,0-3.35-3.36H141.14A3.36,3.36,0,0,0,137.78,191.39Z" fill="none" stroke="#003a50" stroke-miterlimit="10"/><circle cx="152.26" cy="202.89" r="2.27" fill="none" stroke="#003a50" stroke-miterlimit="10"/></g><rect x="219.22" y="113.51" width="34.02" height="34.02" fill="none" stroke="#003a50" stroke-miterlimit="10"/><line x1="236.23" y1="140.5" x2="236.23" y2="120.54" fill="none" stroke="#003a50" stroke-miterlimit="10"/><line x1="246.21" y1="130.52" x2="226.25" y2="130.52" fill="none" stroke="#003a50" stroke-miterlimit="10"/><line x1="243.29" y1="137.58" x2="229.18" y2="123.47" fill="none" stroke="#003a50" stroke-miterlimit="10"/><line x1="243.29" y1="123.46" x2="229.18" y2="137.58" fill="none" stroke="#003a50" stroke-miterlimit="10"/><g clip-path="url(#clip-path)"><rect x="496.02" y="228.43" width="34.02" height="34.02" fill="none" stroke="#003a50" stroke-miterlimit="10"/><rect x="180.02" y="-34.15" width="34.02" height="34.02" fill="none" stroke="#003a50" stroke-miterlimit="10"/></g><rect x="207.7" y="16.19" width="147.59" height="34.02" fill="none" stroke="#003a50" stroke-miterlimit="10"/><g clip-path="url(#clip-path)"><path d="M338.17,21a1,1,0,0,0-.56-.9,1,1,0,0,0-1.34.45,28.77,28.77,0,0,0,0,25.26,1,1,0,0,0,1.8-.88,26.72,26.72,0,0,1,0-23.49A1,1,0,0,0,338.17,21Z" fill="none" stroke="#003a50" stroke-miterlimit="10"/><path d="M332.61,21a1,1,0,0,0-.56-.9,1,1,0,0,0-1.35.45,28.77,28.77,0,0,0,0,25.26,1,1,0,0,0,1.34.46,1,1,0,0,0,.46-1.34,26.81,26.81,0,0,1,0-23.49A.9.9,0,0,0,332.61,21Z" fill="none" stroke="#003a50" stroke-miterlimit="10"/><path d="M327,21a1,1,0,0,0-.56-.9,1,1,0,0,0-1.34.45,28.77,28.77,0,0,0,0,25.26,1,1,0,0,0,1.8-.88,26.72,26.72,0,0,1,0-23.49A1,1,0,0,0,327,21Z" fill="none" stroke="#003a50" stroke-miterlimit="10"/><path d="M321.48,21a1,1,0,0,0-.56-.9,1,1,0,0,0-1.35.45,28.77,28.77,0,0,0,0,25.26,1,1,0,0,0,1.34.46,1,1,0,0,0,.46-1.34,26.81,26.81,0,0,1,0-23.49A.9.9,0,0,0,321.48,21Z" fill="none" stroke="#003a50" stroke-miterlimit="10"/><path d="M315.91,21a1,1,0,0,0-1.9-.45,28.77,28.77,0,0,0,0,25.26,1,1,0,0,0,1.8-.88,26.72,26.72,0,0,1,0-23.49A1,1,0,0,0,315.91,21Z" fill="none" stroke="#003a50" stroke-miterlimit="10"/><path d="M310.35,21a1,1,0,0,0-.56-.9,1,1,0,0,0-1.35.45,28.77,28.77,0,0,0,0,25.26,1,1,0,0,0,1.34.46,1,1,0,0,0,.46-1.34,26.81,26.81,0,0,1,0-23.49A.9.9,0,0,0,310.35,21Z" fill="none" stroke="#003a50" stroke-miterlimit="10"/><path d="M343.74,21a1,1,0,0,0-1.9-.45,28.77,28.77,0,0,0,0,25.26,1,1,0,0,0,1.8-.88,26.72,26.72,0,0,1,0-23.49A1,1,0,0,0,343.74,21Z" fill="none" stroke="#003a50" stroke-miterlimit="10"/><path d="M349.3,21a1,1,0,0,0-.56-.9,1,1,0,0,0-1.34.45,28.77,28.77,0,0,0,0,25.26,1,1,0,0,0,1.8-.88,26.72,26.72,0,0,1,0-23.49A1,1,0,0,0,349.3,21Z" fill="none" stroke="#003a50" stroke-miterlimit="10"/></g><line x1="355.29" y1="33.19" x2="207.7" y2="33.19" fill="none" stroke="#003a50" stroke-miterlimit="10"/><g clip-path="url(#clip-path)"><rect x="67.86" y="-34.01" width="105.88" height="33.88" fill="none" stroke="#003a50" stroke-miterlimit="10"/></g><rect x="67.86" y="16.25" width="133.47" height="33.88" fill="none" stroke="#003a50" stroke-miterlimit="10"/><g clip-path="url(#clip-path)"><path d="M83.83,21.05a1,1,0,0,1,.52-.89.9.9,0,0,1,1.25.45,30.35,30.35,0,0,1,0,25.16.91.91,0,0,1-1.25.46,1,1,0,0,1-.43-1.34,28.22,28.22,0,0,0,0-23.4A1,1,0,0,1,83.83,21.05Z" fill="none" stroke="#003a50" stroke-miterlimit="10"/><path d="M89,21.05a1,1,0,0,1,.52-.89.9.9,0,0,1,1.25.45,30.35,30.35,0,0,1,0,25.16.9.9,0,0,1-1.24.46,1,1,0,0,1-.44-1.34,28.22,28.22,0,0,0,0-23.4A1.12,1.12,0,0,1,89,21.05Z" fill="none" stroke="#003a50" stroke-miterlimit="10"/><path d="M94.21,21.05a1,1,0,0,1,.53-.89.9.9,0,0,1,1.25.45,30.45,30.45,0,0,1,0,25.16.91.91,0,0,1-1.25.46,1,1,0,0,1-.43-1.34,28.32,28.32,0,0,0,0-23.4A1,1,0,0,1,94.21,21.05Z" fill="none" stroke="#003a50" stroke-miterlimit="10"/><path d="M99.4,21.05a1,1,0,0,1,.53-.89.9.9,0,0,1,1.25.45,30.45,30.45,0,0,1,0,25.16.91.91,0,0,1-1.25.46,1,1,0,0,1-.43-1.34,28.22,28.22,0,0,0,0-23.4A1,1,0,0,1,99.4,21.05Z" fill="none" stroke="#003a50" stroke-miterlimit="10"/><path d="M104.6,21.05a1,1,0,0,1,.52-.89.9.9,0,0,1,1.25.45,30.35,30.35,0,0,1,0,25.16.91.91,0,0,1-1.25.46,1,1,0,0,1-.43-1.34,28.22,28.22,0,0,0,0-23.4A1,1,0,0,1,104.6,21.05Z" fill="none" stroke="#003a50" stroke-miterlimit="10"/><path d="M109.79,21.05a1,1,0,0,1,.52-.89.91.91,0,0,1,1.26.45,30.45,30.45,0,0,1,0,25.16.91.91,0,0,1-1.25.46,1,1,0,0,1-.43-1.34,28.32,28.32,0,0,0,0-23.4A1,1,0,0,1,109.79,21.05Z" fill="none" stroke="#003a50" stroke-miterlimit="10"/><path d="M78.63,21.05a1,1,0,0,1,.53-.89.9.9,0,0,1,1.25.45,30.45,30.45,0,0,1,0,25.16.91.91,0,0,1-1.25.46,1,1,0,0,1-.43-1.34,28.22,28.22,0,0,0,0-23.4A1,1,0,0,1,78.63,21.05Z" fill="none" stroke="#003a50" stroke-miterlimit="10"/><path d="M73.44,21.05a1,1,0,0,1,.52-.89.91.91,0,0,1,1.26.45,30.45,30.45,0,0,1,0,25.16.91.91,0,0,1-1.25.46,1,1,0,0,1-.43-1.34,28.32,28.32,0,0,0,0-23.4A1,1,0,0,1,73.44,21.05Z" fill="none" stroke="#003a50" stroke-miterlimit="10"/></g><line x1="67.86" y1="33.19" x2="201.32" y2="33.19" fill="none" stroke="#003a50" stroke-miterlimit="10"/><g clip-path="url(#clip-path)"><rect x="332.13" y="-34.15" width="34.02" height="34.02" fill="none" stroke="#003a50" stroke-miterlimit="10"/><path d="M470,169.7v41H424.23V167.49h43.56A2.21,2.21,0,0,1,470,169.7Z" fill="none" stroke="#003a50" stroke-miterlimit="10"/><path d="M515.87,169.47v41.26H470.1V169.47a2,2,0,0,1,2-2h41.81A2,2,0,0,1,515.87,169.47Z" fill="none" stroke="#003a50" stroke-miterlimit="10"/><path d="M424.23,167.49a3.1,3.1,0,0,0-3.32-2.83h-4.23a3.1,3.1,0,0,0-3.32,2.83v48.19H526.74V167.91a3.1,3.1,0,0,0-3.32-2.83H519.2a3.11,3.11,0,0,0-3.33,2.83v42.83H424.23Z" fill="none" stroke="#003a50" stroke-miterlimit="10"/></g><rect x="424.23" y="201.48" width="91.64" height="9.25" fill="none" stroke="#003a50" stroke-miterlimit="10"/><g clip-path="url(#clip-path)"><path d="M360.21,115.44a1.13,1.13,0,0,0-1.14,1.14,1.15,1.15,0,0,0,1.14,1.14,12.51,12.51,0,0,1,0,25,1.14,1.14,0,0,0,0,2.28,14.79,14.79,0,0,0,0-29.57Z" fill="none" stroke="#003a50" stroke-miterlimit="10"/><path d="M359.68,140.88a10.66,10.66,0,1,0-4.37-20.36v19.4A10.5,10.5,0,0,0,359.68,140.88Z" fill="none" stroke="#003a50" stroke-miterlimit="10"/><path d="M360.21,150.19a1.14,1.14,0,0,0,0,2.28,12.51,12.51,0,0,1,0,25,1.14,1.14,0,0,0,0,2.28,14.79,14.79,0,0,0,0-29.57Z" fill="none" stroke="#003a50" stroke-miterlimit="10"/><path d="M359.68,175.63a10.66,10.66,0,1,0-4.37-20.36v19.4A10.5,10.5,0,0,0,359.68,175.63Z" fill="none" stroke="#003a50" stroke-miterlimit="10"/></g><rect x="326.81" y="113.55" width="28.5" height="68.04" fill="none" stroke="#003a50" stroke-miterlimit="10"/><rect x="67.71" y="114.87" width="28.89" height="16.34" fill="none" stroke="#003a50" stroke-miterlimit="10"/><g clip-path="url(#clip-path)"><path d="M163.07,118v-3.08a38.72,38.72,0,0,0-38.72-38.71V118" fill="none" stroke="#003a50" stroke-miterlimit="10" stroke-width="1.6"/><path d="M57.32,56.23H53.25A51.12,51.12,0,0,0,2.13,107.36H57.32" fill="none" stroke="#003a50" stroke-miterlimit="10" stroke-width="1.6"/><rect x="51.54" y="-41.39" width="16.32" height="98.25" fill="#003a50"/><rect x="51.54" y="106.36" width="16.32" height="115.78" fill="#003a50"/><rect x="75.29" y="227.57" width="11.82" height="64.29" fill="#003a50"/><rect x="64.01" y="-0.15" width="474.34" height="16.32" fill="#003a50"/><rect x="51.54" y="215.85" width="486.82" height="12.6" fill="#003a50"/><polygon points="530.32 164.38 530.32 260.12 579.65 260.12 567.99 164.38 530.32 164.38" fill="#003a50" fill-rule="evenodd"/><rect x="530.32" y="-19.97" width="37.77" height="96.07" fill="#003a50"/><rect x="534.32" y="50.19" width="39.53" height="25.9" fill="#003a50"/><rect x="162.23" y="114.37" width="53.52" height="6.38" fill="#003a50"/><rect x="212.57" y="114.37" width="6.38" height="103.38" fill="#003a50"/><rect x="96.6" y="114.37" width="28.58" height="6.38" fill="#003a50"/><rect x="173.74" y="-34.01" width="6.38" height="40.91" fill="#003a50"/><rect x="67.23" y="131.2" width="33.64" height="6.38" fill="#003a50"/><rect x="201.32" y="12.04" width="6.38" height="38.58" fill="#003a50"/><rect x="173.74" y="-34.57" width="6.38" height="41.48" fill="#003a50"/><rect x="152.72" y="-21.32" width="6.38" height="26.75" fill="#003a50"/><rect x="179.26" y="32.49" width="24.71" height="6.38" fill="#003a50"/><rect x="179.26" y="12.11" width="6.38" height="26.75" fill="#003a50"/><rect x="67.23" y="167.04" width="33.64" height="6.38" fill="#003a50"/><rect x="96.6" y="116.56" width="6.38" height="101.24" fill="#003a50"/><rect x="290.23" y="226.11" width="6.38" height="88.64" fill="#003a50"/><rect x="167.89" y="226.11" width="6.38" height="88.64" fill="#003a50"/><rect x="142.39" y="225.11" width="6.38" height="26.49" fill="#003a50"/><rect x="51.54" y="217.8" width="5.98" height="81.48" fill="#003a50"/><line x1="216.59" y1="50.13" x2="216.59" y2="52.97" fill="none" stroke="#003a50" stroke-miterlimit="10"/><line x1="216.59" y1="58.36" x2="216.59" y2="109.62" fill="none" stroke="#003a50" stroke-miterlimit="10" stroke-dasharray="5.4 5.4"/><line x1="216.59" y1="112.32" x2="216.59" y2="115.15" fill="none" stroke="#003a50" stroke-miterlimit="10"/></g><path d="M143,132.35h-5.82v-1.84H146v1.84L141.47,135v.07h1.28a3.9,3.9,0,0,1,2.79,1,3.53,3.53,0,0,1,1.06,2.67,3.35,3.35,0,0,1-1.33,2.82,7,7,0,0,1-7.25,0,3.37,3.37,0,0,1-1.32-2.85v-.33h2.11v.33c0,1.36.94,2,2.84,2s2.84-.67,2.84-2-1-2-2.84-2h-3.27V135.1l4.58-2.68Z" fill="#003a50"/><path d="M148.7,142.29a1.15,1.15,0,0,1,0-1.61,1.4,1.4,0,0,1,1.73,0,1.15,1.15,0,0,1,0,1.61,1.4,1.4,0,0,1-1.73,0Z" fill="#003a50"/><path d="M158,134.44a5,5,0,0,1,3.34,1.06,3.69,3.69,0,0,1,1.25,3,3.73,3.73,0,0,1-1.29,3,5.39,5.39,0,0,1-3.55,1.08,5.77,5.77,0,0,1-3.56-1,3.15,3.15,0,0,1-1.29-2.68H155a1.54,1.54,0,0,0,.7,1.33,3.53,3.53,0,0,0,2,.49,3.15,3.15,0,0,0,2-.57,2.37,2.37,0,0,0,0-3.39,3.25,3.25,0,0,0-2.07-.58,3.7,3.7,0,0,0-1.92.41,2,2,0,0,0-.7.64l0,.13h-2.11v-6.88h8.88v1.84H155v3h0a2.78,2.78,0,0,1,.4-.31,3.94,3.94,0,0,1,.55-.26A5.6,5.6,0,0,1,158,134.44Z" fill="#003a50"/><path d="M89.24,77.93H87.13V75.28h-7V73.43L86.45,66h2.79v7.41h1.6v1.85h-1.6Zm-2.11-4.5V68.11h-.06l-4.48,5.27v.05Z" fill="#003a50"/><path d="M92.52,77.79a1,1,0,0,1-.32-.8,1.07,1.07,0,0,1,.32-.81,1.25,1.25,0,0,1,.88-.3,1.22,1.22,0,0,1,.86.3,1,1,0,0,1,.32.81,1,1,0,0,1-.32.8,1.22,1.22,0,0,1-.86.3A1.25,1.25,0,0,1,92.52,77.79Z" fill="#003a50"/><path d="M101.81,69.94A5,5,0,0,1,105.15,71a4.18,4.18,0,0,1,0,6,5.41,5.41,0,0,1-3.55,1.08,5.77,5.77,0,0,1-3.56-1,3.16,3.16,0,0,1-1.29-2.68h2.11a1.53,1.53,0,0,0,.7,1.33,3.61,3.61,0,0,0,2,.49,3.09,3.09,0,0,0,2-.58,2.36,2.36,0,0,0,0-3.38,3.25,3.25,0,0,0-2.07-.59,3.55,3.55,0,0,0-1.92.42,1.84,1.84,0,0,0-.7.64l-.05.12H96.71V66h8.88v1.84H98.82v3h.05a1.91,1.91,0,0,1,.4-.31,4,4,0,0,1,.55-.27A5.6,5.6,0,0,1,101.81,69.94Z" fill="#003a50"/><path d="M454.85,105.19l-2.48,2V104.9l2.73-2.26H457v11.9h-2.11Z" fill="#003a50"/><path d="M462.68,114.54h-2.35l5.42-10h-6.93v-1.87h9.28v1.87Z" fill="#003a50"/><path d="M469.53,114.41a1,1,0,0,1-.32-.8,1.07,1.07,0,0,1,.32-.81,1.41,1.41,0,0,1,1.74,0,1.07,1.07,0,0,1,.32.81,1,1,0,0,1-.32.8,1.41,1.41,0,0,1-1.74,0Z" fill="#003a50"/><path d="M473.67,111.2h2.21s0,.07,0,.18a2.36,2.36,0,0,0,.23.43,2.09,2.09,0,0,0,.41.48,2,2,0,0,0,.75.42,3.21,3.21,0,0,0,1.05.16,2.66,2.66,0,0,0,2.24-1.06,4.3,4.3,0,0,0,.81-2.71h-.06a2,2,0,0,1-.44.47,2.73,2.73,0,0,1-.6.4,3.74,3.74,0,0,1-.95.32,5.49,5.49,0,0,1-1.22.13,5,5,0,0,1-3.37-1.12,3.74,3.74,0,0,1,.05-5.73,5.57,5.57,0,0,1,3.61-1.1A4.81,4.81,0,0,1,482.3,104a6.4,6.4,0,0,1,1.32,4.27v.41a6.7,6.7,0,0,1-1.37,4.31,4.71,4.71,0,0,1-3.89,1.71,6,6,0,0,1-2.17-.37,3.86,3.86,0,0,1-1.48-1A3.35,3.35,0,0,1,473.67,111.2Zm2.77-3.17a3.6,3.6,0,0,0,3.95,0,2,2,0,0,0,0-3.14,3.21,3.21,0,0,0-2-.59,3.17,3.17,0,0,0-2,.59,1.85,1.85,0,0,0-.78,1.57A1.87,1.87,0,0,0,476.44,108Z" fill="#003a50"/><path d="M268.1,67.86h-5.82V66h8.86v1.84l-4.52,2.65v.07h1.28a3.86,3.86,0,0,1,2.79,1,3.52,3.52,0,0,1,1.05,2.66,3.33,3.33,0,0,1-1.33,2.83,7,7,0,0,1-7.24,0,3.36,3.36,0,0,1-1.33-2.86V73.9H264v.32c0,1.36.95,2,2.84,2s2.84-.67,2.84-2-.95-2-2.84-2h-3.26V70.61l4.57-2.68Z" fill="#003a50"/><path d="M273.84,77.79a1,1,0,0,1-.32-.8,1.07,1.07,0,0,1,.32-.81,1.41,1.41,0,0,1,1.74,0,1.07,1.07,0,0,1,.32.81,1,1,0,0,1-.32.8,1.41,1.41,0,0,1-1.74,0Z" fill="#003a50"/><path d="M279.75,68.57l-2.49,2V68.28L280,66h1.86V77.93h-2.11Z" fill="#003a50"/></svg>