<svg id="Слой_1" data-name="Слой 1" xmlns="http://www.w3.org/2000/svg" xmlns:xlink="http://www.w3.org/1999/xlink" viewBox="0 0 583.94 629.29"><defs><clipPath id="clip-path"><polygon points="0 0.04 0 161.43 50.85 161.43 50.85 228.16 157.38 228.16 157.38 629.29 581.39 629.29 581.39 0.04 0 0.04" fill="none"/></clipPath></defs><polygon points="50.85 227.87 50.85 228.16 157.38 228.16 157.38 588.46 173.82 588.46 166.5 225.28 50.85 227.87" fill="#fff"/><polygon points="53.53 8.53 53.53 77.47 67.26 109.78 67.26 159.28 67.26 227.64 161.74 225.28 168.26 588.46 531.16 588.46 529.86 214.5 529.6 214.5 529.6 9.28 74.69 9.28 74.69 8.53 53.53 8.53" fill="#fff"/><polygon points="66.34 0.04 66.28 6.31 529.73 6.31 529.73 0.04 66.34 0.04" fill="#fff"/><g clip-path="url(#clip-path)"><rect x="-562.03" y="-1591.72" width="1115.44" height="2194.74" fill="none" stroke="#003a50" stroke-miterlimit="10"/><polygon points="-536.41 -505.73 -536.41 580.06 530.07 580.06 530.07 -1567.27 -536.41 -1567.42 -536.41 -574.52 -536.41 -505.73" fill="none" stroke="#003a50" stroke-miterlimit="10"/></g><rect x="195.71" y="588" width="85.68" height="4.56" fill="#fff"/><rect x="195.71" y="588" width="85.68" height="4.56" fill="none" stroke="#003a50" stroke-miterlimit="10"/><line x1="195.71" y1="590.29" x2="281.39" y2="590.29" fill="none" stroke="#003a50" stroke-miterlimit="10"/><rect x="195.71" y="588" width="4.33" height="4.56" fill="#fff"/><rect x="195.71" y="588" width="4.33" height="4.56" fill="none" stroke="#003a50" stroke-miterlimit="10"/><rect x="277.07" y="588" width="4.33" height="4.56" fill="#fff"/><rect x="277.07" y="588" width="4.33" height="4.56" fill="none" stroke="#003a50" stroke-miterlimit="10"/><rect x="236.39" y="588" width="4.33" height="4.56" fill="#fff"/><rect x="236.39" y="588" width="4.33" height="4.56" fill="none" stroke="#003a50" stroke-miterlimit="10"/><rect x="377.74" y="588" width="89.52" height="4.56" fill="#fff"/><rect x="377.74" y="588" width="89.52" height="4.56" fill="none" stroke="#003a50" stroke-miterlimit="10"/><line x1="377.74" y1="590.29" x2="467.26" y2="590.29" fill="none" stroke="#003a50" stroke-miterlimit="10"/><rect x="377.74" y="588" width="4.52" height="4.56" fill="#fff"/><rect x="377.74" y="588" width="4.52" height="4.56" fill="none" stroke="#003a50" stroke-miterlimit="10"/><rect x="462.74" y="588" width="4.52" height="4.56" fill="#fff"/><rect x="462.74" y="588" width="4.52" height="4.56" fill="none" stroke="#003a50" stroke-miterlimit="10"/><rect x="420.24" y="588" width="4.52" height="4.56" fill="#fff"/><rect x="420.24" y="588" width="4.52" height="4.56" fill="none" stroke="#003a50" stroke-miterlimit="10"/><rect x="540.19" y="226.87" width="4.56" height="86.99" fill="#fff"/><rect x="540.19" y="226.87" width="4.56" height="86.99" fill="none" stroke="#003a50" stroke-miterlimit="10"/><line x1="542.47" y1="313.86" x2="542.47" y2="226.87" fill="none" stroke="#003a50" stroke-miterlimit="10"/><rect x="540.19" y="309.47" width="4.56" height="4.39" fill="#fff"/><rect x="540.19" y="309.47" width="4.56" height="4.39" fill="none" stroke="#003a50" stroke-miterlimit="10"/><rect x="540.19" y="226.87" width="4.56" height="4.39" fill="#fff"/><rect x="540.19" y="226.87" width="4.56" height="4.39" fill="none" stroke="#003a50" stroke-miterlimit="10"/><rect x="540.19" y="268.17" width="4.56" height="4.39" fill="#fff"/><rect x="540.19" y="268.17" width="4.56" height="4.39" fill="none" stroke="#003a50" stroke-miterlimit="10"/><rect x="540.19" y="409.84" width="4.56" height="90.53" fill="#fff"/><rect x="540.19" y="409.84" width="4.56" height="90.53" fill="none" stroke="#003a50" stroke-miterlimit="10"/><line x1="542.47" y1="500.37" x2="542.47" y2="409.83" fill="none" stroke="#003a50" stroke-miterlimit="10"/><rect x="540.19" y="495.8" width="4.56" height="4.57" fill="#fff"/><rect x="540.19" y="495.8" width="4.56" height="4.57" fill="none" stroke="#003a50" stroke-miterlimit="10"/><rect x="540.19" y="409.83" width="4.56" height="4.57" fill="#fff"/><rect x="540.19" y="409.83" width="4.56" height="4.57" fill="none" stroke="#003a50" stroke-miterlimit="10"/><rect x="540.19" y="452.82" width="4.56" height="4.57" fill="#fff"/><rect x="540.19" y="452.82" width="4.56" height="4.57" fill="none" stroke="#003a50" stroke-miterlimit="10"/><rect x="540.19" y="44.72" width="4.56" height="87.34" fill="#fff"/><rect x="540.19" y="44.72" width="4.56" height="87.34" fill="none" stroke="#003a50" stroke-miterlimit="10"/><line x1="542.47" y1="132.07" x2="542.47" y2="44.72" fill="none" stroke="#003a50" stroke-miterlimit="10"/><rect x="540.19" y="127.66" width="4.56" height="4.41" fill="#fff"/><rect x="540.19" y="127.66" width="4.56" height="4.41" fill="none" stroke="#003a50" stroke-miterlimit="10"/><rect x="540.19" y="44.72" width="4.56" height="4.41" fill="#fff"/><rect x="540.19" y="44.72" width="4.56" height="4.41" fill="none" stroke="#003a50" stroke-miterlimit="10"/><rect x="540.19" y="86.19" width="4.56" height="4.41" fill="#fff"/><rect x="540.19" y="86.19" width="4.56" height="4.41" fill="none" stroke="#003a50" stroke-miterlimit="10"/><rect x="248.81" y="174.4" width="42.38" height="92.09" fill="none" stroke="#003a50" stroke-miterlimit="10"/><g clip-path="url(#clip-path)"><rect x="253.79" y="178.2" width="32.03" height="84.24" rx="13.7" fill="none" stroke="#003a50" stroke-miterlimit="10"/><path d="M272.09,192.78a2.2,2.2,0,1,0-2.2,2.2A2.19,2.19,0,0,0,272.09,192.78Z" fill="none" stroke="#003a50" stroke-miterlimit="10"/><path d="M201.92,222.69H173.36v23.07h28.56a11.54,11.54,0,1,0,0-23.07Z" fill="none" stroke="#003a50" stroke-miterlimit="10"/></g><rect x="173.36" y="222.69" width="11.08" height="23.08" fill="none" stroke="#003a50" stroke-miterlimit="10"/><g clip-path="url(#clip-path)"><rect x="167.8" y="-95.08" width="43.96" height="95.52" fill="none" stroke="#003a50" stroke-miterlimit="10"/><path d="M201.92,49.75H173.36V72.83h28.56a11.54,11.54,0,1,0,0-23.08Z" fill="none" stroke="#003a50" stroke-miterlimit="10"/></g><rect x="173.36" y="49.75" width="11.08" height="23.08" fill="none" stroke="#003a50" stroke-miterlimit="10"/><g clip-path="url(#clip-path)"><rect x="102.89" y="-30.37" width="31.57" height="30.42" fill="none" stroke="#003a50" stroke-miterlimit="10"/><path d="M151.88,74.5a3.16,3.16,0,0,0,2.91-1.94h1.78l4.74,2.82-2.15,3.5-2.47-1.36v11h-10.3v-11l-2.46,1.36-2.15-3.5,4.77-2.82h2.39A3.2,3.2,0,0,0,151.88,74.5Z" fill="none" stroke="#003a50" stroke-miterlimit="10"/></g><rect x="135.76" y="65.34" width="31.57" height="30.36" fill="none" stroke="#003a50" stroke-miterlimit="10"/><rect x="354.97" y="12.46" width="33.97" height="34.02" fill="none" stroke="#003a50" stroke-miterlimit="10"/><g clip-path="url(#clip-path)"><path d="M376.28,28.67v-11h-8.61V28.67a3.55,3.55,0,0,0,3.55,3.55h1.51A3.55,3.55,0,0,0,376.28,28.67Z" fill="none" stroke="#003a50" stroke-miterlimit="10"/></g><polyline points="368.5 42.77 371.98 42.77 375.45 42.77" fill="none" stroke="#003a50" stroke-miterlimit="10"/><line x1="371.98" y1="32.21" x2="371.98" y2="42.77" fill="none" stroke="#003a50" stroke-miterlimit="10"/><g clip-path="url(#clip-path)"><rect x="123.67" y="260.75" width="34.02" height="33.97" fill="none" stroke="#003a50" stroke-miterlimit="10"/><path d="M145,276.22v-11h-8.6v11a3.54,3.54,0,0,0,3.54,3.55h1.52A3.55,3.55,0,0,0,145,276.22Z" fill="none" stroke="#003a50" stroke-miterlimit="10"/></g><rect x="435.44" y="12.46" width="34.02" height="34.02" fill="none" stroke="#003a50" stroke-miterlimit="10"/><g clip-path="url(#clip-path)"><path d="M464.85,37.07a4.64,4.64,0,1,1-4.63-4.63A4.63,4.63,0,0,1,464.85,37.07Z" fill="none" stroke="#003a50" stroke-miterlimit="10"/><path d="M449.37,37.07a4.64,4.64,0,1,1-4.64-4.63A4.64,4.64,0,0,1,449.37,37.07Z" fill="none" stroke="#003a50" stroke-miterlimit="10"/><path d="M464.85,22a4.64,4.64,0,1,1-4.63-4.64A4.63,4.63,0,0,1,464.85,22Z" fill="none" stroke="#003a50" stroke-miterlimit="10"/><path d="M449.37,22a4.64,4.64,0,1,1-4.64-4.64A4.64,4.64,0,0,1,449.37,22Z" fill="none" stroke="#003a50" stroke-miterlimit="10"/><rect x="292.19" y="-34.28" width="34.02" height="34.02" fill="none" stroke="#003a50" stroke-miterlimit="10"/><rect x="123.76" y="301.86" width="34.02" height="34.02" fill="none" stroke="#003a50" stroke-miterlimit="10"/><path d="M133.16,331.28a4.64,4.64,0,1,1,4.64-4.64A4.64,4.64,0,0,1,133.16,331.28Z" fill="none" stroke="#003a50" stroke-miterlimit="10"/><path d="M133.16,315.79a4.64,4.64,0,1,1,4.64-4.63A4.63,4.63,0,0,1,133.16,315.79Z" fill="none" stroke="#003a50" stroke-miterlimit="10"/><path d="M148.25,331.28a4.64,4.64,0,1,1,4.64-4.64A4.64,4.64,0,0,1,148.25,331.28Z" fill="none" stroke="#003a50" stroke-miterlimit="10"/><path d="M148.25,315.79a4.64,4.64,0,1,1,4.64-4.63A4.63,4.63,0,0,1,148.25,315.79Z" fill="none" stroke="#003a50" stroke-miterlimit="10"/></g><rect x="415.5" y="348.29" width="102.05" height="17.01" fill="none" stroke="#003a50" stroke-miterlimit="10"/><polygon points="509.52 356.25 466.63 359.78 423.52 356.25 423.52 353.79 509.52 353.79 509.52 356.25" fill="none" stroke="#003a50" stroke-miterlimit="10"/><rect x="337.26" y="438.72" width="17.01" height="102.05" fill="none" stroke="#003a50" stroke-miterlimit="10"/><polygon points="345.22 446.74 348.75 489.64 345.22 532.74 342.76 532.74 342.76 446.74 345.22 446.74" fill="none" stroke="#003a50" stroke-miterlimit="10"/><g clip-path="url(#clip-path)"><rect x="123.76" y="260.85" width="33.59" height="122.25" fill="none" stroke="#003a50" stroke-miterlimit="10"/><rect x="76.7" y="228.12" width="80.66" height="32.72" fill="none" stroke="#003a50" stroke-miterlimit="10"/></g><rect x="296.01" y="12.32" width="199.42" height="34.28" fill="none" stroke="#003a50" stroke-miterlimit="10"/><rect x="359.12" y="458.29" width="52.33" height="113.67" fill="none" stroke="#003a50" stroke-miterlimit="10"/><g clip-path="url(#clip-path)"><path d="M402.51,468h-34a2.11,2.11,0,0,0-2.11,2.11v67.62h38.26V470.1A2.11,2.11,0,0,0,402.51,468Z" fill="none" stroke="#003a50" stroke-miterlimit="10"/></g><rect x="366.36" y="523.87" width="38.26" height="13.85" fill="none" stroke="#003a50" stroke-miterlimit="10"/><g clip-path="url(#clip-path)"><path d="M402.81,564.21h-34.3a2.19,2.19,0,0,1-2.2-2.2V543.54a2.2,2.2,0,0,1,2.2-2.21h34.3a2.2,2.2,0,0,1,2.2,2.21V562A2.19,2.19,0,0,1,402.81,564.21Z" fill="none" stroke="#003a50" stroke-miterlimit="10"/></g><rect x="247.65" y="12.11" width="42.22" height="83.62" fill="none" stroke="#003a50" stroke-miterlimit="10"/><g clip-path="url(#clip-path)"><path d="M271.22,32.06a2.46,2.46,0,1,1-2.46-2.46A2.46,2.46,0,0,1,271.22,32.06Z" fill="none" stroke="#003a50" stroke-miterlimit="10"/><path d="M118.39,255.05v-15.2a3.23,3.23,0,0,0-3.23-3.23H91.57a3.24,3.24,0,0,0-3.24,3.23v15.2a3.24,3.24,0,0,0,3.24,3.24h23.59A3.23,3.23,0,0,0,118.39,255.05Z" fill="none" stroke="#003a50" stroke-miterlimit="10"/><path d="M103.32,246.1a2.43,2.43,0,1,0-2.42-2.42A2.42,2.42,0,0,0,103.32,246.1Z" fill="none" stroke="#003a50" stroke-miterlimit="10"/></g><polyline points="329.61 15.11 322.81 15.11 316.03 15.11" fill="none" stroke="#003a50" stroke-miterlimit="10"/><line x1="322.79" y1="28.73" x2="322.79" y2="15.11" fill="none" stroke="#003a50" stroke-miterlimit="10"/><g clip-path="url(#clip-path)"><rect x="307.81" y="20.94" width="30.06" height="21.67" rx="3.24" fill="none" stroke="#003a50" stroke-miterlimit="10"/><path d="M322.79,30.42A2.43,2.43,0,1,0,320.37,28,2.42,2.42,0,0,0,322.79,30.42Z" fill="none" stroke="#003a50" stroke-miterlimit="10"/><path d="M28.29,431.3a1.25,1.25,0,0,1,.94,1.51A13.79,13.79,0,0,0,56.11,439a1.26,1.26,0,1,1,2.45.56,16.3,16.3,0,1,1-31.78-7.29A1.26,1.26,0,0,1,28.29,431.3Z" fill="none" stroke="#003a50" stroke-miterlimit="10"/><path d="M83.46,441a1.25,1.25,0,0,1,1.75-.33,13.79,13.79,0,0,0,15.52-22.79,1.26,1.26,0,1,1,1.42-2.08,16.3,16.3,0,0,1-18.36,26.95A1.26,1.26,0,0,1,83.46,441Z" fill="none" stroke="#003a50" stroke-miterlimit="10"/><path d="M86,393.61a1.26,1.26,0,0,1-1.33-1.18,13.78,13.78,0,1,0-27.52,1.63,1.26,1.26,0,1,1-2.51.15,16.3,16.3,0,1,1,32.54-1.93A1.24,1.24,0,0,1,86,393.61Z" fill="none" stroke="#003a50" stroke-miterlimit="10"/><path d="M42.49,447.91a12.69,12.69,0,0,1-12-15.48l2-8.88a3.53,3.53,0,0,1,4.24-2.68L50.21,424a23.73,23.73,0,0,0,6,9.44l-1,4.2C53.89,443.55,48.61,448.11,42.49,447.91Z" fill="none" stroke="#003a50" stroke-miterlimit="10"/><path d="M85.29,439.39,83,437.79a23.81,23.81,0,0,0,13.64-21.32l2.52,1.72c5,3.44,7.4,10,5,15.64A12.7,12.7,0,0,1,85.29,439.39Z" fill="none" stroke="#003a50" stroke-miterlimit="10"/><path d="M58.45,397.11l-.12-2c-.36-6.12,3.4-12,9.32-13.48a12.66,12.66,0,0,1,15.88,11.48l.12,1.84A23.93,23.93,0,0,0,67,393.07,23.5,23.5,0,0,0,58.45,397.11Z" fill="none" stroke="#003a50" stroke-miterlimit="10"/><path d="M56.21,433.39a23.73,23.73,0,0,1-6-9.44,16.51,16.51,0,0,1-.6-2,23.85,23.85,0,0,1,8.84-24.84,23.5,23.5,0,0,1,8.56-4,23.87,23.87,0,0,1,28.92,17.4,22.12,22.12,0,0,1,.68,6A23.81,23.81,0,0,1,83,437.79a22.85,22.85,0,0,1-4.48,1.6A23.8,23.8,0,0,1,56.21,433.39Z" fill="none" stroke="#003a50" stroke-miterlimit="10"/><rect x="218.63" y="-34.28" width="136.06" height="34.02" fill="none" stroke="#003a50" stroke-miterlimit="10"/></g><rect x="296.29" y="168.14" width="22.68" height="65.6" fill="none" stroke="#003a50" stroke-miterlimit="10"/><rect x="296.29" y="233.73" width="22.68" height="65.6" fill="none" stroke="#003a50" stroke-miterlimit="10"/><polygon points="248.55 205.39 173.62 205.18 173.62 174.62 248.55 174.84 248.55 205.39" fill="none" stroke="#003a50" stroke-miterlimit="10"/><g clip-path="url(#clip-path)"><rect x="179.69" y="173.01" width="28.96" height="29.71" rx="3.36" fill="none" stroke="#003a50" stroke-miterlimit="10"/><circle cx="194.17" cy="187.87" r="2.27" fill="none" stroke="#003a50" stroke-miterlimit="10"/><path d="M215.55,199.37v-23A3.36,3.36,0,0,1,218.9,173h22.25a3.37,3.37,0,0,1,3.36,3.36v23a3.36,3.36,0,0,1-3.36,3.35H218.9A3.35,3.35,0,0,1,215.55,199.37Z" fill="none" stroke="#003a50" stroke-miterlimit="10"/><circle cx="230.03" cy="187.87" r="2.27" fill="none" stroke="#003a50" stroke-miterlimit="10"/></g><polygon points="247.4 43.43 173.93 43.22 173.93 12.67 247.4 12.88 247.4 43.43" fill="none" stroke="#003a50" stroke-miterlimit="10"/><g clip-path="url(#clip-path)"><path d="M214.76,37.41v-23a3.35,3.35,0,0,1,3.35-3.36h22.25a3.36,3.36,0,0,1,3.36,3.36v23a3.36,3.36,0,0,1-3.36,3.36H218.11A3.35,3.35,0,0,1,214.76,37.41Z" fill="none" stroke="#003a50" stroke-miterlimit="10"/><path d="M229.24,28.18a2.27,2.27,0,1,1,2.26-2.27A2.26,2.26,0,0,1,229.24,28.18Z" fill="none" stroke="#003a50" stroke-miterlimit="10"/><polygon points="167.58 -30.46 102.61 -30.25 102.61 0.3 167.58 0.08 167.58 -30.46" fill="none" stroke="#003a50" stroke-miterlimit="10"/><path d="M137.19-24.44v23a3.35,3.35,0,0,0,3.35,3.36h22.25a3.36,3.36,0,0,0,3.36-3.36v-23a3.36,3.36,0,0,0-3.36-3.36H140.54A3.35,3.35,0,0,0,137.19-24.44Z" fill="none" stroke="#003a50" stroke-miterlimit="10"/><rect x="123.71" y="349.51" width="33.52" height="33.52" fill="none" stroke="#003a50" stroke-miterlimit="10"/></g><rect x="495.43" y="12.6" width="34.02" height="34.02" fill="none" stroke="#003a50" stroke-miterlimit="10"/><line x1="522.42" y1="29.6" x2="502.46" y2="29.6" fill="none" stroke="#003a50" stroke-miterlimit="10"/><line x1="512.44" y1="19.62" x2="512.44" y2="39.58" fill="none" stroke="#003a50" stroke-miterlimit="10"/><line x1="519.5" y1="22.55" x2="505.38" y2="36.66" fill="none" stroke="#003a50" stroke-miterlimit="10"/><line x1="505.38" y1="22.55" x2="519.49" y2="36.66" fill="none" stroke="#003a50" stroke-miterlimit="10"/><rect x="173.71" y="272.89" width="26.62" height="97.42" fill="none" stroke="#003a50" stroke-miterlimit="10"/><g clip-path="url(#clip-path)"><path d="M177.49,356.57a.79.79,0,0,1-.71-.44.78.78,0,0,1,.36-1.05,22.57,22.57,0,0,1,19.77,0,.78.78,0,0,1-.69,1.41,20.91,20.91,0,0,0-18.39,0A.71.71,0,0,1,177.49,356.57Z" fill="none" stroke="#003a50" stroke-miterlimit="10"/><path d="M177.49,352.22a.81.81,0,0,1-.71-.44.8.8,0,0,1,.36-1.06,22.57,22.57,0,0,1,19.77,0,.79.79,0,0,1-.69,1.42,20.91,20.91,0,0,0-18.39,0A.84.84,0,0,1,177.49,352.22Z" fill="none" stroke="#003a50" stroke-miterlimit="10"/><path d="M177.49,347.86a.79.79,0,0,1-.71-.44.78.78,0,0,1,.36-1.05,22.48,22.48,0,0,1,19.77,0,.78.78,0,0,1-.69,1.41,20.91,20.91,0,0,0-18.39,0A.71.71,0,0,1,177.49,347.86Z" fill="none" stroke="#003a50" stroke-miterlimit="10"/><path d="M177.49,343.5a.78.78,0,0,1-.35-1.49,22.57,22.57,0,0,1,19.77,0,.78.78,0,0,1-.69,1.41,21,21,0,0,0-18.39,0A.71.71,0,0,1,177.49,343.5Z" fill="none" stroke="#003a50" stroke-miterlimit="10"/><path d="M177.49,339.15a.81.81,0,0,1-.71-.44.78.78,0,0,1,.36-1,22.48,22.48,0,0,1,19.77,0,.78.78,0,1,1-.69,1.41,20.91,20.91,0,0,0-18.39,0A.84.84,0,0,1,177.49,339.15Z" fill="none" stroke="#003a50" stroke-miterlimit="10"/><path d="M177.49,334.79a.79.79,0,0,1-.71-.44.78.78,0,0,1,.36-1.05,22.57,22.57,0,0,1,19.77,0,.78.78,0,0,1-.69,1.41,20.91,20.91,0,0,0-18.39,0A.71.71,0,0,1,177.49,334.79Z" fill="none" stroke="#003a50" stroke-miterlimit="10"/><path d="M177.49,360.93a.81.81,0,0,1-.71-.44.78.78,0,0,1,.36-1.05,22.48,22.48,0,0,1,19.77,0,.78.78,0,0,1-.69,1.41,20.91,20.91,0,0,0-18.39,0A.84.84,0,0,1,177.49,360.93Z" fill="none" stroke="#003a50" stroke-miterlimit="10"/><path d="M177.49,365.28a.78.78,0,0,1-.35-1.49,22.57,22.57,0,0,1,19.77,0,.78.78,0,1,1-.69,1.41,21,21,0,0,0-18.39,0A.71.71,0,0,1,177.49,365.28Z" fill="none" stroke="#003a50" stroke-miterlimit="10"/></g><line x1="187.03" y1="369.97" x2="187.03" y2="272.89" fill="none" stroke="#003a50" stroke-miterlimit="10"/><rect x="264.32" y="272.89" width="26.62" height="97.42" fill="none" stroke="#003a50" stroke-miterlimit="10"/><g clip-path="url(#clip-path)"><path d="M268.09,356.57a.79.79,0,0,1-.35-1.49,22.57,22.57,0,0,1,19.77,0,.78.78,0,1,1-.69,1.41,20.91,20.91,0,0,0-18.39,0A.66.66,0,0,1,268.09,356.57Z" fill="none" stroke="#003a50" stroke-miterlimit="10"/><path d="M268.09,352.22a.79.79,0,0,1-.35-1.5,22.57,22.57,0,0,1,19.77,0,.79.79,0,0,1-.69,1.42,20.91,20.91,0,0,0-18.39,0A.77.77,0,0,1,268.09,352.22Z" fill="none" stroke="#003a50" stroke-miterlimit="10"/><path d="M268.09,347.86a.79.79,0,0,1-.35-1.49,22.48,22.48,0,0,1,19.77,0,.78.78,0,1,1-.69,1.41,20.91,20.91,0,0,0-18.39,0A.66.66,0,0,1,268.09,347.86Z" fill="none" stroke="#003a50" stroke-miterlimit="10"/><path d="M268.09,343.5a.79.79,0,0,1-.35-1.49,22.57,22.57,0,0,1,19.77,0,.78.78,0,1,1-.69,1.41,21,21,0,0,0-18.39,0A.66.66,0,0,1,268.09,343.5Z" fill="none" stroke="#003a50" stroke-miterlimit="10"/><path d="M268.09,339.15a.79.79,0,0,1-.7-.44.77.77,0,0,1,.35-1,22.48,22.48,0,0,1,19.77,0,.78.78,0,1,1-.69,1.41,20.91,20.91,0,0,0-18.39,0A.77.77,0,0,1,268.09,339.15Z" fill="none" stroke="#003a50" stroke-miterlimit="10"/><path d="M268.09,334.79a.79.79,0,0,1-.35-1.49,22.57,22.57,0,0,1,19.77,0,.78.78,0,1,1-.69,1.41,20.91,20.91,0,0,0-18.39,0A.66.66,0,0,1,268.09,334.79Z" fill="none" stroke="#003a50" stroke-miterlimit="10"/><path d="M268.09,360.93a.79.79,0,0,1-.7-.44.77.77,0,0,1,.35-1.05,22.48,22.48,0,0,1,19.77,0,.78.78,0,1,1-.69,1.41,20.91,20.91,0,0,0-18.39,0A.77.77,0,0,1,268.09,360.93Z" fill="none" stroke="#003a50" stroke-miterlimit="10"/><path d="M268.09,365.28a.79.79,0,0,1-.35-1.49,22.57,22.57,0,0,1,19.77,0,.78.78,0,1,1-.69,1.41,21,21,0,0,0-18.39,0A.66.66,0,0,1,268.09,365.28Z" fill="none" stroke="#003a50" stroke-miterlimit="10"/></g><line x1="277.63" y1="369.97" x2="277.63" y2="272.89" fill="none" stroke="#003a50" stroke-miterlimit="10"/><g clip-path="url(#clip-path)"><path d="M153.37,61.6a.78.78,0,0,1-1.49.34,22.48,22.48,0,0,1,0-19.77.78.78,0,0,1,1.41.69,20.91,20.91,0,0,0,0,18.39A.72.72,0,0,1,153.37,61.6Z" fill="none" stroke="#003a50" stroke-miterlimit="10"/><path d="M149,61.6a.78.78,0,0,1-.44.7.79.79,0,0,1-1-.36,22.57,22.57,0,0,1,0-19.77.78.78,0,0,1,1.41.69,21,21,0,0,0,0,18.39A.72.72,0,0,1,149,61.6Z" fill="none" stroke="#003a50" stroke-miterlimit="10"/><path d="M144.66,61.6a.8.8,0,0,1-.44.7.78.78,0,0,1-1.05-.36,22.48,22.48,0,0,1,0-19.77.78.78,0,0,1,1.41.69,20.91,20.91,0,0,0,0,18.39A.85.85,0,0,1,144.66,61.6Z" fill="none" stroke="#003a50" stroke-miterlimit="10"/><path d="M140.3,61.6a.78.78,0,0,1-1.49.34,22.57,22.57,0,0,1,0-19.77.78.78,0,0,1,1.41.69,20.91,20.91,0,0,0,0,18.39A.72.72,0,0,1,140.3,61.6Z" fill="none" stroke="#003a50" stroke-miterlimit="10"/><path d="M136,61.6a.79.79,0,0,1-1.5.34,22.57,22.57,0,0,1,0-19.77.79.79,0,0,1,1.42.69,20.91,20.91,0,0,0,0,18.39A.85.85,0,0,1,136,61.6Z" fill="none" stroke="#003a50" stroke-miterlimit="10"/><path d="M131.59,61.6a.78.78,0,0,1-1.49.34,22.48,22.48,0,0,1,0-19.77.78.78,0,0,1,1.41.69,20.91,20.91,0,0,0,0,18.39A.72.72,0,0,1,131.59,61.6Z" fill="none" stroke="#003a50" stroke-miterlimit="10"/><path d="M157.73,61.6a.79.79,0,0,1-1.5.34,22.57,22.57,0,0,1,0-19.77.79.79,0,0,1,1.42.69,20.91,20.91,0,0,0,0,18.39A.85.85,0,0,1,157.73,61.6Z" fill="none" stroke="#003a50" stroke-miterlimit="10"/><path d="M162.08,61.6a.78.78,0,0,1-1.49.34,22.57,22.57,0,0,1,0-19.77.78.78,0,0,1,1.41.69,20.91,20.91,0,0,0,0,18.39A.72.72,0,0,1,162.08,61.6Z" fill="none" stroke="#003a50" stroke-miterlimit="10"/></g><line x1="166.77" y1="52.06" x2="86.62" y2="52.06" fill="none" stroke="#003a50" stroke-miterlimit="10"/><rect x="86.62" y="38.75" width="80.49" height="26.6" fill="none" stroke="#003a50" stroke-miterlimit="10"/><rect x="412.68" y="370.57" width="118.13" height="34.02" fill="none" stroke="#003a50" stroke-miterlimit="10"/><g clip-path="url(#clip-path)"><path d="M429.8,399.76a1,1,0,0,0,1.91.44,28.77,28.77,0,0,0,0-25.26,1,1,0,0,0-1.34-.45,1,1,0,0,0-.46,1.34,26.81,26.81,0,0,1,0,23.49A.87.87,0,0,0,429.8,399.76Z" fill="none" stroke="#003a50" stroke-miterlimit="10"/><path d="M435.37,399.76a1,1,0,0,0,1.9.44,28.77,28.77,0,0,0,0-25.26,1,1,0,0,0-1.8.89,26.72,26.72,0,0,1,0,23.49A1,1,0,0,0,435.37,399.76Z" fill="none" stroke="#003a50" stroke-miterlimit="10"/><path d="M440.93,399.76a1,1,0,0,0,1.91.44,28.77,28.77,0,0,0,0-25.26,1,1,0,0,0-1.34-.45,1,1,0,0,0-.46,1.34,26.81,26.81,0,0,1,0,23.49A1,1,0,0,0,440.93,399.76Z" fill="none" stroke="#003a50" stroke-miterlimit="10"/><path d="M446.5,399.76a1,1,0,0,0,1.9.44,28.77,28.77,0,0,0,0-25.26,1,1,0,0,0-1.8.89,26.72,26.72,0,0,1,0,23.49A1,1,0,0,0,446.5,399.76Z" fill="none" stroke="#003a50" stroke-miterlimit="10"/><path d="M452.06,399.76a1,1,0,0,0,1.91.44,28.77,28.77,0,0,0,0-25.26,1,1,0,0,0-1.34-.45,1,1,0,0,0-.46,1.34,26.81,26.81,0,0,1,0,23.49A1,1,0,0,0,452.06,399.76Z" fill="none" stroke="#003a50" stroke-miterlimit="10"/><path d="M457.63,399.76a1,1,0,0,0,1.9.44,28.77,28.77,0,0,0,0-25.26,1,1,0,0,0-1.8.89,26.72,26.72,0,0,1,0,23.49A1,1,0,0,0,457.63,399.76Z" fill="none" stroke="#003a50" stroke-miterlimit="10"/><path d="M424.24,399.76a1,1,0,0,0,1.9.44,28.77,28.77,0,0,0,0-25.26,1,1,0,0,0-1.8.89,26.72,26.72,0,0,1,0,23.49A1,1,0,0,0,424.24,399.76Z" fill="none" stroke="#003a50" stroke-miterlimit="10"/><path d="M418.67,399.76a1,1,0,0,0,1.91.44,28.77,28.77,0,0,0,0-25.26,1,1,0,0,0-1.34-.45,1,1,0,0,0-.46,1.34,26.81,26.81,0,0,1,0,23.49A.87.87,0,0,0,418.67,399.76Z" fill="none" stroke="#003a50" stroke-miterlimit="10"/></g><line x1="412.69" y1="387.57" x2="530.27" y2="387.57" fill="none" stroke="#003a50" stroke-miterlimit="10"/><g clip-path="url(#clip-path)"><path d="M423.64-48.34a3.11,3.11,0,0,0-3.33-2.83h-4.22a3.11,3.11,0,0,0-3.33,2.83V-.15H526.15V-47.92a3.11,3.11,0,0,0-3.33-2.83H518.6a3.1,3.1,0,0,0-3.32,2.83V-5.09H423.64Z" fill="none" stroke="#003a50" stroke-miterlimit="10"/><path d="M111,515.49h41v45.77H108.8V517.7A2.2,2.2,0,0,1,111,515.49Z" fill="none" stroke="#003a50" stroke-miterlimit="10"/><path d="M110.78,469.62H152v45.77H110.78a2,2,0,0,1-2-2V471.6A2,2,0,0,1,110.78,469.62Z" fill="none" stroke="#003a50" stroke-miterlimit="10"/><path d="M108.8,561.26a3.11,3.11,0,0,0-2.83,3.33v4.22a3.1,3.1,0,0,0,2.83,3.32H157V458.75H109.22a3.11,3.11,0,0,0-2.83,3.32v4.23a3.11,3.11,0,0,0,2.83,3.32H152v91.64Z" fill="none" stroke="#003a50" stroke-miterlimit="10"/><path d="M466.57,265v-41h45.77v43.25H468.78A2.21,2.21,0,0,1,466.57,265Z" fill="none" stroke="#003a50" stroke-miterlimit="10"/><path d="M420.7,265.18V223.92h45.77v41.26a2,2,0,0,1-2,2h-41.8A2,2,0,0,1,420.7,265.18Z" fill="none" stroke="#003a50" stroke-miterlimit="10"/><path d="M512.34,267.17a3.11,3.11,0,0,0,3.33,2.83h4.22a3.11,3.11,0,0,0,3.33-2.83V219H409.83v47.77a3.11,3.11,0,0,0,3.33,2.83h4.22a3.1,3.1,0,0,0,3.32-2.83V223.92h91.64Z" fill="none" stroke="#003a50" stroke-miterlimit="10"/></g><rect x="420.7" y="223.92" width="91.64" height="9.25" fill="none" stroke="#003a50" stroke-miterlimit="10"/><g clip-path="url(#clip-path)"><path d="M494,493.54a14.78,14.78,0,0,0-15.93,23.39,1.14,1.14,0,0,0,1.61.17,1.13,1.13,0,0,0,.17-1.6A12.47,12.47,0,0,1,494,496Z" fill="none" stroke="#003a50" stroke-miterlimit="10"/><rect x="493.99" y="463.77" width="34.02" height="84.03" rx="3.31" fill="none" stroke="#003a50" stroke-miterlimit="10"/><path d="M524.3,466.32a1.4,1.4,0,0,0-1.4,1.39v76.15a1.4,1.4,0,0,0,2.79,0V467.71a1.39,1.39,0,0,0-1.39-1.39" fill="none" stroke="#003a50" stroke-miterlimit="10"/><path d="M509.72,534.13a5.5,5.5,0,1,1,0,7.78A5.49,5.49,0,0,1,509.72,534.13Z" fill="none" stroke="#003a50" stroke-miterlimit="10"/><path d="M509.35,534.54c1,.1,2-.29,3,.7,1.46,1.46-.09,3,1.38,4.47s3-.09,4.47,1.38" fill="none" stroke="#003a50" stroke-miterlimit="10"/><path d="M494,498.25a10.63,10.63,0,1,0,0,19.59Z" fill="none" stroke="#003a50" stroke-miterlimit="10"/></g><rect x="173.54" y="550.86" width="22.68" height="22.68" fill="none" stroke="#003a50" stroke-miterlimit="10"/><g clip-path="url(#clip-path)"><path d="M191.38,568.7a9.2,9.2,0,1,1,0-13A9.2,9.2,0,0,1,191.38,568.7Z" fill="none" stroke="#003a50" stroke-miterlimit="10"/><path d="M192,568c-1.69-.17-3.41.48-5.06-1.17-2.44-2.44.14-5-2.3-7.46s-5,.14-7.46-2.3" fill="none" stroke="#003a50" stroke-miterlimit="10"/></g><rect x="173.54" y="412.42" width="22.68" height="22.68" fill="none" stroke="#003a50" stroke-miterlimit="10"/><g clip-path="url(#clip-path)"><path d="M191.38,430.26a9.2,9.2,0,1,1,0-13A9.2,9.2,0,0,1,191.38,430.26Z" fill="none" stroke="#003a50" stroke-miterlimit="10"/><path d="M192,429.57c-1.7-.17-3.41.49-5.06-1.17-2.44-2.44.14-5-2.3-7.45s-5,.13-7.46-2.3" fill="none" stroke="#003a50" stroke-miterlimit="10"/></g><rect x="173.54" y="441.96" width="113.38" height="102.05" fill="none" stroke="#003a50" stroke-miterlimit="10"/><g clip-path="url(#clip-path)"><path d="M277.18,452V534a2.09,2.09,0,0,1-2.08,2.09H207.46V449.87H275.1A2.08,2.08,0,0,1,277.18,452Z" fill="none" stroke="#003a50" stroke-miterlimit="10"/><path d="M203.85,495.83v38.53a2,2,0,0,1-2,2H183a2,2,0,0,1-2-2V495.83a2,2,0,0,1,2-2h18.91A2,2,0,0,1,203.85,495.83Z" fill="none" stroke="#003a50" stroke-miterlimit="10"/><path d="M203.85,451.59v38.54a2,2,0,0,1-2,2H183a2,2,0,0,1-2-2V451.59a2,2,0,0,1,2-2h18.91A2,2,0,0,1,203.85,451.59Z" fill="none" stroke="#003a50" stroke-miterlimit="10"/></g><line x1="221.31" y1="449.61" x2="221.31" y2="536.34" fill="none" stroke="#003a50" stroke-miterlimit="10"/><g clip-path="url(#clip-path)"><path d="M486.55,119.47a1.25,1.25,0,0,1-1.25-1.25,13.66,13.66,0,0,0-27.32,0,1.25,1.25,0,1,1-2.5,0,16.16,16.16,0,0,1,32.32,0A1.25,1.25,0,0,1,486.55,119.47Z" fill="none" stroke="#003a50" stroke-miterlimit="10"/><path d="M456.73,172.16a1.25,1.25,0,0,1,1.25,1.25,13.66,13.66,0,0,0,27.32,0,1.25,1.25,0,1,1,2.49,0,16.16,16.16,0,1,1-32.31,0A1.25,1.25,0,0,1,456.73,172.16Z" fill="none" stroke="#003a50" stroke-miterlimit="10"/><path d="M445.1,119.47a1.25,1.25,0,0,1-1.24-1.25,13.67,13.67,0,0,0-27.33,0,1.25,1.25,0,1,1-2.49,0,16.16,16.16,0,1,1,32.31,0A1.25,1.25,0,0,1,445.1,119.47Z" fill="none" stroke="#003a50" stroke-miterlimit="10"/><path d="M415.29,172.16a1.25,1.25,0,0,1,1.24,1.25,13.67,13.67,0,0,0,27.33,0,1.25,1.25,0,1,1,2.49,0,16.16,16.16,0,1,1-32.31,0A1.25,1.25,0,0,1,415.29,172.16Z" fill="none" stroke="#003a50" stroke-miterlimit="10"/><path d="M392.2,133.1a1.25,1.25,0,0,1-1.25,1.25,13.66,13.66,0,1,0,0,27.32,1.25,1.25,0,0,1,0,2.5,16.16,16.16,0,0,1,0-32.32A1.25,1.25,0,0,1,392.2,133.1Z" fill="none" stroke="#003a50" stroke-miterlimit="10"/><path d="M504.76,162.92a1.25,1.25,0,0,1,1.25-1.25,13.66,13.66,0,0,0,0-27.32,1.25,1.25,0,0,1,0-2.5,16.16,16.16,0,0,1,0,32.32A1.25,1.25,0,0,1,504.76,162.92Z" fill="none" stroke="#003a50" stroke-miterlimit="10"/><path d="M471.62,106.34a12.57,12.57,0,0,1,12.56,12.52v5.8a23.7,23.7,0,0,0-6.08-.8h-19v-5A12.56,12.56,0,0,1,471.62,106.34Z" fill="none" stroke="#003a50" stroke-miterlimit="10"/><path d="M484.18,171.38v1.36a12.54,12.54,0,1,1-25.08,0v-.56h19A25.59,25.59,0,0,0,484.18,171.38Z" fill="none" stroke="#003a50" stroke-miterlimit="10"/><path d="M430.18,106.34a12.57,12.57,0,0,1,12.56,12.52v5H418.9c-.4,0-.84,0-1.24.08v-5.08A12.54,12.54,0,0,1,430.18,106.34Z" fill="none" stroke="#003a50" stroke-miterlimit="10"/><path d="M417.66,172.1c.4,0,.84.08,1.24.08h23.84v.56a12.54,12.54,0,1,1-25.08,0Z" fill="none" stroke="#003a50" stroke-miterlimit="10"/><path d="M498.7,135.46h6.64a12.54,12.54,0,1,1,0,25.08H498.7A23.81,23.81,0,0,0,502.26,148,24.06,24.06,0,0,0,498.7,135.46Z" fill="none" stroke="#003a50" stroke-miterlimit="10"/><path d="M391.62,135.46h6.68A24.06,24.06,0,0,0,394.74,148a23.81,23.81,0,0,0,3.56,12.52h-6.68a12.54,12.54,0,1,1,0-25.08Z" fill="none" stroke="#003a50" stroke-miterlimit="10"/><path d="M418.9,123.86h59.2a23.7,23.7,0,0,1,6.08.8A24.24,24.24,0,0,1,502.26,148a23.81,23.81,0,0,1-3.56,12.52,24.19,24.19,0,0,1-14.52,10.84,25.59,25.59,0,0,1-6.08.8H418.9c-.4,0-.84,0-1.24-.08a24.11,24.11,0,0,1,0-48.16C418.06,123.9,418.5,123.86,418.9,123.86Z" fill="none" stroke="#003a50" stroke-miterlimit="10"/><path d="M244.79,98.48v3.1a39,39,0,0,1-39,39V98.48" fill="none" stroke="#003a50" stroke-miterlimit="10" stroke-width="1.6"/><path d="M244.79,269.15v3.1a39,39,0,0,1-39,39V269.15" fill="none" stroke="#003a50" stroke-miterlimit="10" stroke-width="1.6"/><path d="M302.79,367.82v3.5a44.07,44.07,0,0,0,44.08,44.08V367.82" fill="none" stroke="#003a50" stroke-miterlimit="10" stroke-width="1.6"/><path d="M409.55,367.82v3.5a44.07,44.07,0,0,1-44.08,44.08V367.82" fill="none" stroke="#003a50" stroke-miterlimit="10" stroke-width="1.6"/><path d="M-10.64,218.25v-4.07a51.12,51.12,0,0,1,51.13-51.12v55.19" fill="none" stroke="#003a50" stroke-miterlimit="10" stroke-width="1.6"/><path d="M56.72,109.07H52.66A51.13,51.13,0,0,0,1.53,160.19H56.72" fill="none" stroke="#003a50" stroke-miterlimit="10" stroke-width="1.6"/><line x1="159" y1="104.86" x2="104.51" y2="104.86" fill="none" stroke="#003a50" stroke-miterlimit="10" stroke-width="1.6"/><polygon points="11.93 579.61 -83.81 579.61 -83.81 628.94 11.93 617.28 11.93 579.61" fill="#003a50" fill-rule="evenodd"/><polygon points="377.48 579.61 281.74 579.61 281.74 628.94 377.48 617.28 377.48 579.61" fill="#003a50" fill-rule="evenodd"/><rect x="50.94" y="-109.47" width="16.32" height="115.78" fill="#003a50"/><rect x="50.94" y="64.99" width="16.32" height="44.79" fill="#003a50"/><rect x="74.69" y="11.74" width="11.82" height="64.29" fill="#003a50"/><rect x="54.37" y="64.99" width="32.14" height="11.82" fill="#003a50"/><rect x="50.94" y="159.28" width="16.32" height="66" fill="#003a50"/><rect x="39.63" y="211.81" width="131.96" height="16.32" fill="#003a50"/><rect x="157.35" y="211.81" width="16.32" height="380.64" fill="#003a50"/><rect x="50.94" y="0.02" width="486.82" height="12.6" fill="#003a50"/><rect x="288.26" y="573.36" width="82.83" height="27.12" fill="#003a50"/><rect x="-77.49" y="573.36" width="82.83" height="27.12" fill="#003a50"/><rect x="467.23" y="579.53" width="96" height="41.92" fill="#003a50"/><rect x="100.09" y="579.53" width="95.33" height="38.32" fill="#003a50"/><rect x="168.26" y="583.53" width="27.17" height="41.92" fill="#003a50"/><polygon points="529.73 313.86 529.73 409.6 579.06 409.6 567.39 313.86 529.73 313.86" fill="#003a50" fill-rule="evenodd"/><rect x="528.37" y="500.6" width="49.15" height="100.31" fill="#003a50"/><rect x="523.26" y="315.11" width="9.5" height="61.67" fill="#003a50"/><rect x="523.26" y="145.86" width="9.5" height="76.42" fill="#003a50"/><rect x="551.89" y="600.9" width="25.83" height="25" fill="#003a50"/><rect x="529.72" y="132.57" width="37.77" height="94.57" fill="#003a50"/><rect x="533.72" y="201.24" width="39.53" height="25.9" fill="#003a50"/><polygon points="529.73 -51.45 529.73 44.29 579.06 44.29 567.39 -51.45 529.73 -51.45" fill="#003a50" fill-rule="evenodd"/><rect x="211.97" y="-101.46" width="6.38" height="103.38" fill="#003a50"/><rect x="96.01" y="-99.27" width="6.38" height="101.24" fill="#003a50"/><rect x="244" y="95.74" width="52.01" height="6.38" fill="#003a50"/><rect x="289.63" y="10.28" width="6.38" height="88.64" fill="#003a50"/><rect x="167.29" y="10.28" width="6.38" height="88.64" fill="#003a50"/><rect x="81.84" y="32.58" width="88.64" height="6.38" fill="#003a50"/><rect x="141.79" y="9.28" width="6.38" height="26.49" fill="#003a50"/><rect x="131.75" y="95.74" width="75" height="6.38" fill="#003a50"/><rect x="59.1" y="95.74" width="35.29" height="6.38" fill="#003a50"/><rect x="167.29" y="167.95" width="6.38" height="52.01" fill="#003a50"/><rect x="63.43" y="186.02" width="108.92" height="6.38" fill="#003a50"/><rect x="114.7" y="188.28" width="6.38" height="33.17" fill="#003a50"/><rect x="167.29" y="168.03" width="128.72" height="6.38" fill="#003a50"/><rect x="167.29" y="266.4" width="39.47" height="6.38" fill="#003a50"/><rect x="244" y="266.4" width="48.82" height="6.38" fill="#003a50"/><rect x="290.76" y="365.07" width="12.92" height="6.38" fill="#003a50"/><rect x="345.76" y="365.07" width="20.5" height="6.38" fill="#003a50"/><rect x="408.74" y="365.07" width="126.02" height="6.38" fill="#003a50"/><rect x="353.49" y="368.26" width="6.38" height="211.27" fill="#003a50"/><rect x="290.85" y="168.03" width="6.38" height="203.42" fill="#003a50"/><rect x="50.35" y="225.28" width="6.38" height="25.25" fill="#003a50"/><rect x="70.32" y="226.03" width="6.38" height="24.5" fill="#003a50"/><rect x="52.2" y="244.15" width="24.5" height="6.38" fill="#003a50"/><rect x="50.94" y="1.97" width="5.98" height="81.48" fill="#003a50"/><line x1="263.92" y1="370.29" x2="261.08" y2="370.29" fill="none" stroke="#003a50" stroke-miterlimit="10"/><line x1="255.89" y1="370.29" x2="206.53" y2="370.29" fill="none" stroke="#003a50" stroke-miterlimit="10" stroke-dasharray="5.2 5.2"/><line x1="203.94" y1="370.29" x2="201.1" y2="370.29" fill="none" stroke="#003a50" stroke-miterlimit="10"/><line x1="-9.37" y1="318.28" x2="45.24" y2="318.28" fill="none" stroke="#003a50" stroke-miterlimit="10" stroke-dasharray="5.75 5.75"/><polyline points="48.11 318.28 50.95 318.28 50.95 315.45" fill="none" stroke="#003a50" stroke-miterlimit="10"/><line x1="50.94" y1="309.6" x2="50.94" y2="254.07" fill="none" stroke="#003a50" stroke-miterlimit="10" stroke-dasharray="5.85 5.85"/><line x1="50.94" y1="251.14" x2="50.94" y2="248.31" fill="none" stroke="#003a50" stroke-miterlimit="10"/><line x1="295.29" y1="102.06" x2="295.29" y2="104.9" fill="none" stroke="#003a50" stroke-miterlimit="10"/><line x1="295.29" y1="110.38" x2="295.29" y2="162.52" fill="none" stroke="#003a50" stroke-miterlimit="10" stroke-dasharray="5.49 5.49"/><line x1="295.29" y1="165.26" x2="295.29" y2="168.1" fill="none" stroke="#003a50" stroke-miterlimit="10"/><rect x="64.33" y="65.37" width="29.67" height="30.36" fill="none" stroke="#003a50" stroke-miterlimit="10" stroke-width="0.6"/></g><g clip-path="url(#clip-path)"><path d="M422.94,418.41l-2.48,1.95v-2.24l2.73-2.27h1.86v11.91h-2.11Z" fill="#003a50"/><path d="M429.57,418.41l-2.48,1.95v-2.24l2.73-2.27h1.86v11.91h-2.11Z" fill="#003a50"/><path d="M434.2,427.63a1,1,0,0,1-.32-.8,1.07,1.07,0,0,1,.32-.81,1.25,1.25,0,0,1,.88-.3,1.23,1.23,0,0,1,.86.3,1.07,1.07,0,0,1,.32.81,1,1,0,0,1-.32.8,1.23,1.23,0,0,1-.86.3A1.25,1.25,0,0,1,434.2,427.63Z" fill="#003a50"/><path d="M441.31,427.76H439l5.42-10h-6.93v-1.88h9.29v1.88Z" fill="#003a50"/><path d="M263.24,418.41l-2.49,1.95v-2.24l2.74-2.27h1.86v11.91h-2.11Z" fill="#003a50"/><path d="M277.74,427.76H267.8V426.2a2.75,2.75,0,0,1,.59-1.74,4,4,0,0,1,1.44-1.2c.5-.25,1.12-.54,1.87-.86s1.32-.56,1.88-.77a4.09,4.09,0,0,0,1.44-.92,1.78,1.78,0,0,0,.57-1.3c0-1.26-.88-1.89-2.66-1.89s-2.68.72-2.68,2.16v.41h-2.1v-.41a3.62,3.62,0,0,1,1.26-3,5.34,5.34,0,0,1,3.51-1,5.61,5.61,0,0,1,3.51,1,3.29,3.29,0,0,1,1.27,2.75,3.11,3.11,0,0,1-.55,1.83,4.31,4.31,0,0,1-1.41,1.31c-.59.34-1.21.65-1.83.93s-1.24.52-1.83.75a5.55,5.55,0,0,0-1.4.74,1.23,1.23,0,0,0-.57,1h7.63Z" fill="#003a50"/><path d="M279.84,427.63a1,1,0,0,1-.33-.8,1,1,0,0,1,.33-.81,1.23,1.23,0,0,1,.87-.3,1.2,1.2,0,0,1,.86.3,1,1,0,0,1,.33.81,1,1,0,0,1-.33.8,1.2,1.2,0,0,1-.86.3A1.23,1.23,0,0,1,279.84,427.63Z" fill="#003a50"/><path d="M292.17,427.76h-2.11v-2.65h-7v-1.84l6.29-7.42h2.79v7.42h1.6v1.84h-1.6Zm-2.11-4.49V418H290l-4.48,5.27v0Z" fill="#003a50"/><path d="M222.11,338.36h-5.82v-1.85h8.86v1.85L220.63,341v.06h1.28a3.9,3.9,0,0,1,2.79,1,3.52,3.52,0,0,1,1.05,2.67,3.34,3.34,0,0,1-1.33,2.83,7,7,0,0,1-7.24,0,3.37,3.37,0,0,1-1.33-2.86v-.33H218v.33c0,1.36.95,2,2.84,2s2.84-.66,2.84-2-.95-2-2.84-2h-3.26v-1.66l4.57-2.69Z" fill="#003a50"/><path d="M227.85,348.29a1,1,0,0,1-.32-.81,1.06,1.06,0,0,1,.32-.8,1.41,1.41,0,0,1,1.74,0,1.06,1.06,0,0,1,.32.8,1,1,0,0,1-.32.81,1.41,1.41,0,0,1-1.74,0Z" fill="#003a50"/><path d="M232,345.08h2.21s0,.07,0,.17a2.51,2.51,0,0,0,.64.92,2,2,0,0,0,.75.42,3.21,3.21,0,0,0,1.05.16,2.66,2.66,0,0,0,2.24-1.06,4.32,4.32,0,0,0,.81-2.71h-.06a2,2,0,0,1-.44.47,2.73,2.73,0,0,1-.6.4,4.18,4.18,0,0,1-.95.32,5.49,5.49,0,0,1-1.22.13,4.92,4.92,0,0,1-3.37-1.13,3.73,3.73,0,0,1,0-5.72,5.52,5.52,0,0,1,3.61-1.1,4.81,4.81,0,0,1,3.87,1.54,6.4,6.4,0,0,1,1.32,4.27v.41a6.7,6.7,0,0,1-1.37,4.31,4.71,4.71,0,0,1-3.89,1.71,6,6,0,0,1-2.17-.38,3.85,3.85,0,0,1-1.48-.94A3.35,3.35,0,0,1,232,345.08Zm2.77-3.17a3.6,3.6,0,0,0,4,0,1.86,1.86,0,0,0,.78-1.57,1.89,1.89,0,0,0-.78-1.58,3.27,3.27,0,0,0-2-.58,3.23,3.23,0,0,0-2,.58,2,2,0,0,0,0,3.15Z" fill="#003a50"/><path d="M220.75,244h-5.82v-1.84h8.86V244l-4.52,2.65v.07h1.27a3.87,3.87,0,0,1,2.8,1,3.52,3.52,0,0,1,1,2.66,3.33,3.33,0,0,1-1.33,2.83,7,7,0,0,1-7.24,0,3.36,3.36,0,0,1-1.33-2.86v-.32h2.11v.32c0,1.36,1,2,2.84,2s2.84-.67,2.84-2-.95-2-2.84-2h-3.26v-1.67l4.57-2.68Z" fill="#003a50"/><path d="M226.49,254a1,1,0,0,1-.32-.8,1,1,0,0,1,.32-.81,1.41,1.41,0,0,1,1.74,0,1.07,1.07,0,0,1,.32.81,1,1,0,0,1-.32.8,1.41,1.41,0,0,1-1.74,0Z" fill="#003a50"/><path d="M233.6,254.1h-2.35l5.41-10h-6.92v-1.87H239v1.87Z" fill="#003a50"/><path d="M340.57,163.05h-9.93v-1.56a2.74,2.74,0,0,1,.58-1.74,4,4,0,0,1,1.45-1.2c.49-.25,1.12-.54,1.86-.86l1.88-.78a4.21,4.21,0,0,0,1.45-.91,1.8,1.8,0,0,0,.57-1.3q0-1.89-2.67-1.89T333.09,155v.41H331V155a3.62,3.62,0,0,1,1.26-3,5.38,5.38,0,0,1,3.51-1,5.66,5.66,0,0,1,3.52,1,3.3,3.3,0,0,1,1.27,2.75,3.14,3.14,0,0,1-.56,1.83,4.29,4.29,0,0,1-1.4,1.31c-.6.34-1.21.65-1.84.93s-1.23.52-1.82.74a5.18,5.18,0,0,0-1.41.75,1.23,1.23,0,0,0-.56,1h7.62Z" fill="#003a50"/><path d="M345.87,163.05h-2.35l5.41-10H342v-1.88h9.28V153Z" fill="#003a50"/><path d="M352.72,162.92a1,1,0,0,1-.32-.81,1,1,0,0,1,.32-.8,1.41,1.41,0,0,1,1.74,0,1.06,1.06,0,0,1,.32.8,1,1,0,0,1-.32.81,1.41,1.41,0,0,1-1.74,0Z" fill="#003a50"/><path d="M358.62,153.7l-2.48,2v-2.24l2.73-2.27h1.86v11.91h-2.11Z" fill="#003a50"/><path d="M217.78,78H212V76.19h8.87V78l-4.53,2.65v.07h1.28a3.9,3.9,0,0,1,2.79,1,3.52,3.52,0,0,1,1,2.67,3.32,3.32,0,0,1-1.33,2.82,7,7,0,0,1-7.24,0,3.39,3.39,0,0,1-1.33-2.86v-.32h2.11v.32c0,1.37.95,2,2.84,2s2.84-.67,2.84-2-.94-2-2.84-2H213.2V80.78l4.58-2.68Z" fill="#003a50"/><path d="M223.51,88a1,1,0,0,1-.32-.8,1.07,1.07,0,0,1,.32-.81,1.25,1.25,0,0,1,.88-.3,1.22,1.22,0,0,1,.86.3,1,1,0,0,1,.32.81,1,1,0,0,1-.32.8,1.22,1.22,0,0,1-.86.3A1.25,1.25,0,0,1,223.51,88Z" fill="#003a50"/><path d="M233.62,78H227.8V76.19h8.86V78l-4.52,2.65v.07h1.27a3.87,3.87,0,0,1,2.79,1,3.5,3.5,0,0,1,1.06,2.67,3.32,3.32,0,0,1-1.33,2.82,7,7,0,0,1-7.24,0,3.36,3.36,0,0,1-1.33-2.86v-.32h2.11v.32c0,1.37.95,2,2.84,2s2.84-.67,2.84-2-1-2-2.84-2h-3.26V80.78l4.57-2.68Z" fill="#003a50"/><path d="M109,155.07a5,5,0,0,1,3.34,1.06,3.69,3.69,0,0,1,1.26,3,3.73,3.73,0,0,1-1.3,3,5.39,5.39,0,0,1-3.55,1.08,5.86,5.86,0,0,1-3.56-1,3.18,3.18,0,0,1-1.29-2.69H106a1.55,1.55,0,0,0,.71,1.34,3.56,3.56,0,0,0,2,.48,3.13,3.13,0,0,0,2-.57,2.34,2.34,0,0,0,0-3.39,3.25,3.25,0,0,0-2.07-.58,3.7,3.7,0,0,0-1.92.41,2.24,2.24,0,0,0-.7.64L106,158h-2.11v-6.88h8.88V153H106v2.95H106a2.77,2.77,0,0,1,.4-.3,3.11,3.11,0,0,1,.55-.27A5.63,5.63,0,0,1,109,155.07Z" fill="#003a50"/><path d="M115.66,162.92a1,1,0,0,1-.33-.81,1,1,0,0,1,.33-.8,1.4,1.4,0,0,1,1.73,0,1,1,0,0,1,.32.8,1,1,0,0,1-.32.81,1.4,1.4,0,0,1-1.73,0Z" fill="#003a50"/><path d="M122.76,163.05h-2.35l5.42-10H118.9v-1.88h9.29V153Z" fill="#003a50"/><path d="M105.23,78.75l-2.48,2V78.46l2.73-2.27h1.86V88.1h-2.11Z" fill="#003a50"/><path d="M109.87,88a1,1,0,0,1-.33-.8,1,1,0,0,1,.33-.81,1.4,1.4,0,0,1,1.73,0,1,1,0,0,1,.33.81,1,1,0,0,1-.33.8,1.4,1.4,0,0,1-1.73,0Z" fill="#003a50"/><path d="M117,88.1h-2.35l5.41-10h-6.93V76.19h9.29v1.87Z" fill="#003a50"/><path d="M8.75,277.69H-1.19v-1.57a2.83,2.83,0,0,1,.58-1.74,4.12,4.12,0,0,1,1.45-1.2c.5-.25,1.12-.54,1.87-.86s1.32-.56,1.87-.77A4.14,4.14,0,0,0,6,270.63a1.78,1.78,0,0,0,.57-1.3c0-1.26-.89-1.88-2.66-1.88s-2.68.72-2.68,2.15V270H-.85v-.41a3.59,3.59,0,0,1,1.27-3,5.34,5.34,0,0,1,3.51-1,5.65,5.65,0,0,1,3.51,1,3.29,3.29,0,0,1,1.27,2.75,3.17,3.17,0,0,1-.55,1.84,4.39,4.39,0,0,1-1.41,1.3q-.9.51-1.83.93t-1.83.75a5.11,5.11,0,0,0-1.4.75,1.22,1.22,0,0,0-.57,1H8.75Z" fill="#003a50"/><path d="M10.85,277.55a1,1,0,0,1-.33-.8,1,1,0,0,1,.33-.81,1.21,1.21,0,0,1,.87-.3,1.2,1.2,0,0,1,.86.3,1,1,0,0,1,.33.81,1,1,0,0,1-.33.8,1.2,1.2,0,0,1-.86.3A1.21,1.21,0,0,1,10.85,277.55Z" fill="#003a50"/><path d="M16.25,276.15a7.34,7.34,0,0,1,0-8.84,5.12,5.12,0,0,1,4.07-1.7,5.1,5.1,0,0,1,4.06,1.7,7.34,7.34,0,0,1,0,8.84,5.1,5.1,0,0,1-4.06,1.7A5.12,5.12,0,0,1,16.25,276.15Zm6.53-1.39a5,5,0,0,0,.87-3,5,5,0,0,0-.87-3,2.92,2.92,0,0,0-2.46-1.18,2.89,2.89,0,0,0-2.46,1.18,5,5,0,0,0-.88,3,5,5,0,0,0,.88,3A2.88,2.88,0,0,0,20.32,276,2.9,2.9,0,0,0,22.78,274.76Z" fill="#003a50"/><path d="M-.88,426.93a6.4,6.4,0,0,1-3.68.93,6.41,6.41,0,0,1-3.68-.94,2.91,2.91,0,0,1-1.37-2.55,2.7,2.7,0,0,1,.25-1.17,2.51,2.51,0,0,1,.66-.85,3.89,3.89,0,0,1,1.4-.77l.25-.07v-.09a3.51,3.51,0,0,1-.76-.29,3.24,3.24,0,0,1-.67-.44,2.19,2.19,0,0,1-.53-.76,2.39,2.39,0,0,1-.23-1A2.8,2.8,0,0,1-8,416.52a5.74,5.74,0,0,1,3.42-.9,5.84,5.84,0,0,1,3.43.9A2.82,2.82,0,0,1,.11,418.9a2.43,2.43,0,0,1-.22,1,1.83,1.83,0,0,1-.55.75,3.72,3.72,0,0,1-1.2.68l-.22.05v.09l.28.07a3.62,3.62,0,0,1,.62.26,4.79,4.79,0,0,1,.78.51,2.69,2.69,0,0,1,.61.82,2.68,2.68,0,0,1,.28,1.2A3,3,0,0,1-.88,426.93Zm-5.78-1.35a3.79,3.79,0,0,0,2.1.48,4,4,0,0,0,2.1-.47,1.53,1.53,0,0,0,.74-1.35,1.52,1.52,0,0,0-.74-1.35,4,4,0,0,0-2.1-.47,3.94,3.94,0,0,0-2.1.47,1.5,1.5,0,0,0-.74,1.35A1.49,1.49,0,0,0-6.66,425.58ZM-7,419.06a1.36,1.36,0,0,0,.64,1.19,3.25,3.25,0,0,0,1.83.44,3.24,3.24,0,0,0,1.82-.44,1.36,1.36,0,0,0,.64-1.19,1.38,1.38,0,0,0-.65-1.2,3.25,3.25,0,0,0-1.81-.44,3.23,3.23,0,0,0-1.81.44A1.36,1.36,0,0,0-7,419.06Z" fill="#003a50"/><path d="M2.6,427.56a1,1,0,0,1-.33-.8A1,1,0,0,1,2.6,426a1.21,1.21,0,0,1,.87-.3,1.2,1.2,0,0,1,.86.3,1,1,0,0,1,.32.81,1,1,0,0,1-.32.8,1.2,1.2,0,0,1-.86.3A1.21,1.21,0,0,1,2.6,427.56Z" fill="#003a50"/><path d="M12.7,417.63H6.88v-1.84h8.86v1.84l-4.52,2.65v.07h1.27a3.87,3.87,0,0,1,2.8,1A3.52,3.52,0,0,1,16.34,424,3.32,3.32,0,0,1,15,426.85a5.89,5.89,0,0,1-3.62,1,5.85,5.85,0,0,1-3.62-1A3.36,3.36,0,0,1,6.44,424v-.32H8.55V424c0,1.36.95,2,2.84,2s2.84-.67,2.84-2-1-2-2.84-2H8.13v-1.67l4.57-2.68Z" fill="#003a50"/></g></svg>