<svg id="Слой_1" data-name="Слой 1" xmlns="http://www.w3.org/2000/svg" xmlns:xlink="http://www.w3.org/1999/xlink" viewBox="0 0 375.02 470.55"><defs><clipPath id="clip-path"><polygon points="196.02 0 196.02 21.26 189.21 21.26 189.21 50.23 0 50.23 0 469.42 367.8 469.42 367.8 456.32 375.02 456.32 375.02 50.23 245.34 50.23 245.34 0 196.02 0" fill="none"/></clipPath></defs><polygon points="0 50.23 0 426.92 6.7 426.92 6.7 54.92 127.41 54.92 127.35 50.23 0 50.23" fill="#fff"/><polygon points="1.89 426.92 375.02 426.92 375.02 375.47 368.74 63.73 241.88 66.58 192.25 66.58 7.17 62.68 1.89 426.92" fill="#fff"/><polygon points="269.5 50.23 269.5 66.09 363.99 63.73 370.5 426.92 375.02 426.92 375.02 50.23 269.5 50.23" fill="#fff"/><g clip-path="url(#clip-path)"><rect x="-359.78" y="-1753.27" width="1115.44" height="2194.74" fill="none" stroke="#003a50" stroke-miterlimit="10"/><polygon points="-334.16 -667.28 -334.16 418.52 732.32 418.52 732.32 -1728.82 -334.16 -1728.97 -334.16 -736.06 -334.16 -667.28" fill="none" stroke="#003a50" stroke-miterlimit="10"/></g><rect x="214.27" y="426.46" width="87.59" height="4.56" fill="#fff"/><rect x="214.27" y="426.46" width="87.59" height="4.56" fill="none" stroke="#003a50" stroke-miterlimit="10"/><line x1="214.27" y1="428.74" x2="301.86" y2="428.74" fill="none" stroke="#003a50" stroke-miterlimit="10"/><rect x="214.27" y="426.46" width="4.42" height="4.56" fill="#fff"/><rect x="214.27" y="426.46" width="4.42" height="4.56" fill="none" stroke="#003a50" stroke-miterlimit="10"/><rect x="297.44" y="426.46" width="4.42" height="4.56" fill="#fff"/><rect x="297.44" y="426.46" width="4.42" height="4.56" fill="none" stroke="#003a50" stroke-miterlimit="10"/><rect x="255.86" y="426.46" width="4.42" height="4.56" fill="#fff"/><rect x="255.86" y="426.46" width="4.42" height="4.56" fill="none" stroke="#003a50" stroke-miterlimit="10"/><rect x="30.31" y="426.46" width="87.79" height="4.56" fill="#fff"/><rect x="30.31" y="426.46" width="87.79" height="4.56" fill="none" stroke="#003a50" stroke-miterlimit="10"/><line x1="30.31" y1="428.74" x2="118.1" y2="428.74" fill="none" stroke="#003a50" stroke-miterlimit="10"/><rect x="30.31" y="426.46" width="4.43" height="4.56" fill="#fff"/><rect x="30.31" y="426.46" width="4.43" height="4.56" fill="none" stroke="#003a50" stroke-miterlimit="10"/><rect x="113.66" y="426.46" width="4.43" height="4.56" fill="#fff"/><rect x="113.66" y="426.46" width="4.43" height="4.56" fill="none" stroke="#003a50" stroke-miterlimit="10"/><rect x="71.99" y="426.46" width="4.43" height="4.56" fill="#fff"/><rect x="71.99" y="426.46" width="4.43" height="4.56" fill="none" stroke="#003a50" stroke-miterlimit="10"/><rect x="15.25" y="91.67" width="42.38" height="92.09" fill="none" stroke="#003a50" stroke-miterlimit="10"/><g clip-path="url(#clip-path)"><rect x="20.23" y="95.46" width="32.03" height="84.24" rx="13.7" fill="none" stroke="#003a50" stroke-miterlimit="10"/><path d="M38.53,110a2.2,2.2,0,1,0-2.2,2.2A2.2,2.2,0,0,0,38.53,110Z" fill="none" stroke="#003a50" stroke-miterlimit="10"/><rect x="-41.47" y="91.67" width="42.38" height="92.09" fill="none" stroke="#003a50" stroke-miterlimit="10"/><path d="M100.28,119.74V91.18H77.2v28.56a11.54,11.54,0,1,0,23.08,0Z" fill="none" stroke="#003a50" stroke-miterlimit="10"/></g><rect x="77.2" y="91.18" width="23.08" height="11.08" fill="none" stroke="#003a50" stroke-miterlimit="10"/><g clip-path="url(#clip-path)"><path d="M143.82,76.45a3.38,3.38,0,0,0,3.13-2.1h1.93l5.1,3-2.32,3.77L149,79.71V91.53h-11.1V79.71l-2.65,1.45-2.32-3.77,5.14-3h2.58A3.43,3.43,0,0,0,143.82,76.45Z" fill="none" stroke="#003a50" stroke-miterlimit="10"/></g><rect x="126.45" y="66.55" width="34.02" height="32.78" fill="none" stroke="#003a50" stroke-miterlimit="10"/><rect x="325.91" y="99.2" width="34.02" height="33.97" fill="none" stroke="#003a50" stroke-miterlimit="10"/><g clip-path="url(#clip-path)"><path d="M347.23,114.68V103.63h-8.61v11.05a3.55,3.55,0,0,0,3.55,3.54h1.51A3.55,3.55,0,0,0,347.23,114.68Z" fill="none" stroke="#003a50" stroke-miterlimit="10"/></g><polyline points="339.45 128.78 342.93 128.78 346.4 128.78" fill="none" stroke="#003a50" stroke-miterlimit="10"/><line x1="342.93" y1="118.22" x2="342.93" y2="128.78" fill="none" stroke="#003a50" stroke-miterlimit="10"/><rect x="326" y="140.31" width="34.02" height="34.02" fill="none" stroke="#003a50" stroke-miterlimit="10"/><g clip-path="url(#clip-path)"><path d="M335.41,169.73a4.64,4.64,0,1,1,4.63-4.64A4.64,4.64,0,0,1,335.41,169.73Z" fill="none" stroke="#003a50" stroke-miterlimit="10"/><path d="M335.41,154.24a4.64,4.64,0,1,1,4.63-4.63A4.63,4.63,0,0,1,335.41,154.24Z" fill="none" stroke="#003a50" stroke-miterlimit="10"/><path d="M350.5,169.73a4.64,4.64,0,1,1,4.63-4.64A4.64,4.64,0,0,1,350.5,169.73Z" fill="none" stroke="#003a50" stroke-miterlimit="10"/><path d="M350.5,154.24a4.64,4.64,0,1,1,4.63-4.63A4.63,4.63,0,0,1,350.5,154.24Z" fill="none" stroke="#003a50" stroke-miterlimit="10"/></g><rect x="184.29" y="302.87" width="17.01" height="102.05" fill="none" stroke="#003a50" stroke-miterlimit="10"/><polygon points="193.34 396.89 189.81 354 193.34 310.89 195.8 310.89 195.8 396.89 193.34 396.89" fill="none" stroke="#003a50" stroke-miterlimit="10"/><rect x="161.64" y="285.88" width="17.01" height="102.05" fill="none" stroke="#003a50" stroke-miterlimit="10"/><polygon points="169.6 379.9 173.13 337.01 169.6 293.9 167.15 293.9 167.15 379.9 169.6 379.9" fill="none" stroke="#003a50" stroke-miterlimit="10"/><rect x="326.01" y="99.3" width="33.59" height="122.25" fill="none" stroke="#003a50" stroke-miterlimit="10"/><rect x="278.94" y="66.58" width="80.66" height="32.72" fill="none" stroke="#003a50" stroke-miterlimit="10"/><g clip-path="url(#clip-path)"><rect x="-51.91" y="296.74" width="52.33" height="113.67" fill="none" stroke="#003a50" stroke-miterlimit="10"/></g><rect x="160.7" y="66.58" width="21.14" height="32.72" fill="none" stroke="#003a50" stroke-miterlimit="10"/><rect x="126.22" y="156.74" width="55.62" height="26.49" fill="none" stroke="#003a50" stroke-miterlimit="10"/><polyline points="312.38 69.25 305.58 69.25 298.8 69.25" fill="none" stroke="#003a50" stroke-miterlimit="10"/><line x1="305.57" y1="82.86" x2="305.57" y2="69.24" fill="none" stroke="#003a50" stroke-miterlimit="10"/><g clip-path="url(#clip-path)"><path d="M320.64,93.5V78.3a3.24,3.24,0,0,0-3.24-3.23H293.81a3.23,3.23,0,0,0-3.23,3.23V93.5a3.23,3.23,0,0,0,3.23,3.24H317.4A3.24,3.24,0,0,0,320.64,93.5Z" fill="none" stroke="#003a50" stroke-miterlimit="10"/><path d="M305.57,84.56a2.43,2.43,0,1,0-2.43-2.43A2.42,2.42,0,0,0,305.57,84.56Z" fill="none" stroke="#003a50" stroke-miterlimit="10"/><path d="M230.53,269.75a1.27,1.27,0,0,1,.95,1.51,13.78,13.78,0,1,0,26.87,6.16,1.26,1.26,0,0,1,2.46.57A16.3,16.3,0,0,1,229,270.7,1.25,1.25,0,0,1,230.53,269.75Z" fill="none" stroke="#003a50" stroke-miterlimit="10"/><path d="M285.7,279.47a1.27,1.27,0,0,1,1.75-.33A13.79,13.79,0,0,0,303,256.35a1.25,1.25,0,0,1-.34-1.74,1.26,1.26,0,0,1,1.75-.34,16.3,16.3,0,0,1-18.35,27A1.26,1.26,0,0,1,285.7,279.47Z" fill="none" stroke="#003a50" stroke-miterlimit="10"/><path d="M288.21,232.07a1.26,1.26,0,0,1-1.33-1.18,13.78,13.78,0,1,0-27.52,1.62,1.26,1.26,0,0,1-2.52.16,16.3,16.3,0,0,1,32.55-1.94A1.26,1.26,0,0,1,288.21,232.07Z" fill="none" stroke="#003a50" stroke-miterlimit="10"/><path d="M244.73,286.37a12.69,12.69,0,0,1-12-15.48l2-8.88a3.53,3.53,0,0,1,4.24-2.68l13.44,3.08a23.73,23.73,0,0,0,6,9.44l-1,4.2C256.13,282,250.85,286.57,244.73,286.37Z" fill="none" stroke="#003a50" stroke-miterlimit="10"/><path d="M287.53,277.85l-2.32-1.6a23.81,23.81,0,0,0,13.64-21.32l2.52,1.72c5,3.44,7.4,10,5,15.64A12.7,12.7,0,0,1,287.53,277.85Z" fill="none" stroke="#003a50" stroke-miterlimit="10"/><path d="M260.69,235.57l-.12-2c-.36-6.12,3.4-12,9.32-13.48a12.66,12.66,0,0,1,15.88,11.48l.12,1.84a23.93,23.93,0,0,0-16.64-1.92A23.5,23.5,0,0,0,260.69,235.57Z" fill="none" stroke="#003a50" stroke-miterlimit="10"/><path d="M258.45,271.85a23.73,23.73,0,0,1-6-9.44,16.51,16.51,0,0,1-.6-2,23.85,23.85,0,0,1,8.84-24.84,23.5,23.5,0,0,1,8.56-4,23.87,23.87,0,0,1,28.92,17.4,22.12,22.12,0,0,1,.68,6,23.81,23.81,0,0,1-13.64,21.32,22.85,22.85,0,0,1-4.48,1.6A23.8,23.8,0,0,1,258.45,271.85Z" fill="none" stroke="#003a50" stroke-miterlimit="10"/><path d="M55.6,218.64a1,1,0,0,1-.54.9.94.94,0,0,1-1.29-.45,29.69,29.69,0,0,1,0-25.26,1,1,0,0,1,1.29-.46,1,1,0,0,1,.44,1.34,27.64,27.64,0,0,0,0,23.49A1,1,0,0,1,55.6,218.64Z" fill="none" stroke="#003a50" stroke-miterlimit="10"/><path d="M50.23,218.64a1,1,0,0,1-.54.9.94.94,0,0,1-1.29-.45,29.69,29.69,0,0,1,0-25.26,1,1,0,0,1,1.29-.46,1,1,0,0,1,.44,1.34,27.64,27.64,0,0,0,0,23.49A1,1,0,0,1,50.23,218.64Z" fill="none" stroke="#003a50" stroke-miterlimit="10"/><path d="M44.86,218.64a1,1,0,0,1-.54.9.94.94,0,0,1-1.29-.45,29.69,29.69,0,0,1,0-25.26,1,1,0,0,1,1.29-.46,1,1,0,0,1,.44,1.34,27.64,27.64,0,0,0,0,23.49A1,1,0,0,1,44.86,218.64Z" fill="none" stroke="#003a50" stroke-miterlimit="10"/><path d="M39.49,218.64a1,1,0,0,1-.54.9,1,1,0,0,1-1.3-.45,29.69,29.69,0,0,1,0-25.26,1,1,0,0,1,1.3-.46,1,1,0,0,1,.44,1.34,27.64,27.64,0,0,0,0,23.49A1,1,0,0,1,39.49,218.64Z" fill="none" stroke="#003a50" stroke-miterlimit="10"/><path d="M34.12,218.64a1,1,0,0,1-.54.9,1,1,0,0,1-1.3-.45,29.69,29.69,0,0,1,0-25.26,1,1,0,0,1,1.29-.46,1,1,0,0,1,.45,1.34,27.64,27.64,0,0,0,0,23.49A1,1,0,0,1,34.12,218.64Z" fill="none" stroke="#003a50" stroke-miterlimit="10"/><path d="M28.75,218.64a1,1,0,0,1-.54.9,1,1,0,0,1-1.3-.45,29.69,29.69,0,0,1,0-25.26,1,1,0,0,1,1.29-.46,1,1,0,0,1,.45,1.34,27.64,27.64,0,0,0,0,23.49A1,1,0,0,1,28.75,218.64Z" fill="none" stroke="#003a50" stroke-miterlimit="10"/><path d="M61,218.64a1,1,0,0,1-.54.9,1,1,0,0,1-1.3-.45,29.69,29.69,0,0,1,0-25.26,1,1,0,0,1,1.29-.46,1,1,0,0,1,.45,1.34,27.64,27.64,0,0,0,0,23.49A1.13,1.13,0,0,1,61,218.64Z" fill="none" stroke="#003a50" stroke-miterlimit="10"/><path d="M66.35,218.64a1,1,0,0,1-.54.9,1,1,0,0,1-1.3-.45,29.69,29.69,0,0,1,0-25.26,1,1,0,0,1,1.29-.46,1,1,0,0,1,.45,1.34,27.64,27.64,0,0,0,0,23.49A1,1,0,0,1,66.35,218.64Z" fill="none" stroke="#003a50" stroke-miterlimit="10"/></g><line x1="178.38" y1="206.45" x2="14.51" y2="206.45" fill="none" stroke="#003a50" stroke-miterlimit="10"/><rect x="15.52" y="189.17" width="162.86" height="34.02" fill="none" stroke="#003a50" stroke-miterlimit="10"/><g clip-path="url(#clip-path)"><path d="M48.27,45.44a1,1,0,0,1-.54.9,1,1,0,0,1-1.3-.46,29.69,29.69,0,0,1,0-25.26.94.94,0,0,1,1.29-.45,1,1,0,0,1,.45,1.34,27.64,27.64,0,0,0,0,23.49A1.13,1.13,0,0,1,48.27,45.44Z" fill="none" stroke="#003a50" stroke-miterlimit="10"/><path d="M42.89,45.44a1,1,0,0,1-.54.9,1,1,0,0,1-1.29-.46,29.69,29.69,0,0,1,0-25.26.94.94,0,0,1,1.29-.45,1,1,0,0,1,.44,1.34,27.64,27.64,0,0,0,0,23.49A1,1,0,0,1,42.89,45.44Z" fill="none" stroke="#003a50" stroke-miterlimit="10"/><path d="M37.52,45.44a1,1,0,0,1-.54.9,1,1,0,0,1-1.29-.46,29.69,29.69,0,0,1,0-25.26A.94.94,0,0,1,37,20.17a1,1,0,0,1,.44,1.34,27.64,27.64,0,0,0,0,23.49A1,1,0,0,1,37.52,45.44Z" fill="none" stroke="#003a50" stroke-miterlimit="10"/><path d="M32.15,45.44a1,1,0,0,1-.54.9,1,1,0,0,1-1.29-.46,29.69,29.69,0,0,1,0-25.26.94.94,0,0,1,1.29-.45,1,1,0,0,1,.44,1.34,27.64,27.64,0,0,0,0,23.49A1,1,0,0,1,32.15,45.44Z" fill="none" stroke="#003a50" stroke-miterlimit="10"/><path d="M26.78,45.44a1,1,0,0,1-.54.9,1,1,0,0,1-1.3-.46,29.69,29.69,0,0,1,0-25.26,1,1,0,0,1,1.3-.45,1,1,0,0,1,.44,1.34,27.64,27.64,0,0,0,0,23.49A1,1,0,0,1,26.78,45.44Z" fill="none" stroke="#003a50" stroke-miterlimit="10"/><path d="M21.41,45.44a1,1,0,0,1-.54.9,1,1,0,0,1-1.3-.46,29.69,29.69,0,0,1,0-25.26.94.94,0,0,1,1.29-.45,1,1,0,0,1,.45,1.34,27.64,27.64,0,0,0,0,23.49A1,1,0,0,1,21.41,45.44Z" fill="none" stroke="#003a50" stroke-miterlimit="10"/><path d="M53.64,45.44a1,1,0,0,1-.54.9,1,1,0,0,1-1.3-.46,29.69,29.69,0,0,1,0-25.26.94.94,0,0,1,1.29-.45,1,1,0,0,1,.45,1.34,27.64,27.64,0,0,0,0,23.49A1,1,0,0,1,53.64,45.44Z" fill="none" stroke="#003a50" stroke-miterlimit="10"/><path d="M59,45.44a1,1,0,0,1-.54.9,1,1,0,0,1-1.3-.46,29.69,29.69,0,0,1,0-25.26.94.94,0,0,1,1.29-.45,1,1,0,0,1,.45,1.34,27.64,27.64,0,0,0,0,23.49A1,1,0,0,1,59,45.44Z" fill="none" stroke="#003a50" stroke-miterlimit="10"/></g><rect x="7.92" y="50.23" width="119.14" height="0.03" fill="#003a50"/><rect x="57.96" y="157.88" width="61.57" height="25.39" fill="none" stroke="#003a50" stroke-miterlimit="10"/><g clip-path="url(#clip-path)"><rect x="76.06" y="159.94" width="24.4" height="25.04" rx="2.83" fill="none" stroke="#003a50" stroke-miterlimit="10"/><path d="M88.26,170.55a1.91,1.91,0,1,1-1.91,1.91A1.9,1.9,0,0,1,88.26,170.55Z" fill="none" stroke="#003a50" stroke-miterlimit="10"/></g><rect x="325.95" y="187.96" width="33.52" height="33.52" fill="none" stroke="#003a50" stroke-miterlimit="10"/><line x1="342.71" y1="214.57" x2="342.71" y2="194.89" fill="none" stroke="#003a50" stroke-miterlimit="10"/><line x1="352.55" y1="204.73" x2="332.88" y2="204.73" fill="none" stroke="#003a50" stroke-miterlimit="10"/><line x1="349.67" y1="211.68" x2="335.76" y2="197.78" fill="none" stroke="#003a50" stroke-miterlimit="10"/><line x1="349.67" y1="197.77" x2="335.76" y2="211.68" fill="none" stroke="#003a50" stroke-miterlimit="10"/><g clip-path="url(#clip-path)"><rect x="-88.28" y="189.17" width="90.71" height="34.02" fill="none" stroke="#003a50" stroke-miterlimit="10"/><line x1="2.43" y1="206.18" x2="-88.28" y2="206.18" fill="none" stroke="#003a50" stroke-miterlimit="10"/><path d="M313.25,353.94h41v45.77H311V356.15A2.21,2.21,0,0,1,313.25,353.94Z" fill="none" stroke="#003a50" stroke-miterlimit="10"/><path d="M313,308.07h41.26v45.77H313a2,2,0,0,1-2-2v-41.8A2,2,0,0,1,313,308.07Z" fill="none" stroke="#003a50" stroke-miterlimit="10"/><path d="M311,399.71a3.11,3.11,0,0,0-2.83,3.33v4.22a3.11,3.11,0,0,0,2.83,3.33h48.2V297.2H311.47a3.11,3.11,0,0,0-2.83,3.33v4.22a3.11,3.11,0,0,0,2.83,3.33h42.82v91.63Z" fill="none" stroke="#003a50" stroke-miterlimit="10"/></g><rect x="345.03" y="308.07" width="9.25" height="91.64" fill="none" stroke="#003a50" stroke-miterlimit="10"/><rect x="16.77" y="250.82" width="22.68" height="22.68" fill="none" stroke="#003a50" stroke-miterlimit="10"/><g clip-path="url(#clip-path)"><path d="M34.61,268.67a9.2,9.2,0,1,1,0-13A9.2,9.2,0,0,1,34.61,268.67Z" fill="none" stroke="#003a50" stroke-miterlimit="10"/><path d="M35.23,268c-1.69-.17-3.41.48-5.06-1.17-2.44-2.44.14-5-2.3-7.46s-5,.14-7.46-2.3" fill="none" stroke="#003a50" stroke-miterlimit="10"/></g><rect x="16.77" y="391.96" width="22.68" height="22.68" fill="none" stroke="#003a50" stroke-miterlimit="10"/><g clip-path="url(#clip-path)"><path d="M34.61,409.8a9.19,9.19,0,1,1,0-13A9.19,9.19,0,0,1,34.61,409.8Z" fill="none" stroke="#003a50" stroke-miterlimit="10"/><path d="M35.23,409.11c-1.69-.17-3.41.48-5.06-1.17-2.44-2.44.14-5-2.3-7.45s-5,.13-7.46-2.31" fill="none" stroke="#003a50" stroke-miterlimit="10"/></g><rect x="16.77" y="280.98" width="113.38" height="102.05" fill="none" stroke="#003a50" stroke-miterlimit="10"/><g clip-path="url(#clip-path)"><path d="M120.42,291v82a2.09,2.09,0,0,1-2.09,2.09H50.69V288.89h67.64A2.09,2.09,0,0,1,120.42,291Z" fill="none" stroke="#003a50" stroke-miterlimit="10"/><rect x="24.2" y="332.86" width="22.88" height="42.5" rx="1.98" fill="none" stroke="#003a50" stroke-miterlimit="10"/><rect x="24.2" y="288.64" width="22.88" height="42.5" rx="1.98" fill="none" stroke="#003a50" stroke-miterlimit="10"/></g><line x1="64.54" y1="288.64" x2="64.54" y2="375.36" fill="none" stroke="#003a50" stroke-miterlimit="10"/><g clip-path="url(#clip-path)"><rect x="-26.18" y="15.96" width="34.02" height="34.02" fill="none" stroke="#003a50" stroke-miterlimit="10"/><path d="M182.28,280.15h-3.46a43.48,43.48,0,0,1-43.48-43.48h46.94" fill="none" stroke="#003a50" stroke-miterlimit="10" stroke-width="1.6"/><path d="M124.79,114.86h3.12a39.34,39.34,0,0,1,39.34,39.34H124.79" fill="none" stroke="#003a50" stroke-miterlimit="10" stroke-width="1.6"/><path d="M191.61,56.7V52.64A51.13,51.13,0,0,1,242.73,1.51V56.7" fill="none" stroke="#003a50" stroke-miterlimit="10" stroke-width="1.6"/><path d="M138-36.52h4.07a51.13,51.13,0,0,1,51.13,51.13H138" fill="none" stroke="#003a50" stroke-miterlimit="10" stroke-width="1.6"/><polygon points="214.17 418.06 118.43 418.06 118.43 467.4 214.17 455.73 214.17 418.06" fill="#003a50" fill-rule="evenodd"/><rect x="253.19" y="-2.27" width="16.32" height="66" fill="#003a50"/><rect x="241.88" y="50.26" width="131.96" height="16.32" fill="#003a50"/><rect x="0.42" y="50.26" width="191.83" height="16.32" fill="#003a50"/><rect x="0.42" y="58.42" width="16.32" height="372.48" fill="#003a50"/><rect x="126.92" y="13.73" width="16.32" height="40.5" fill="#003a50"/><rect x="359.6" y="50.26" width="16.32" height="380.64" fill="#003a50"/><rect x="-0.78" y="417.98" width="27.03" height="46.75" fill="#003a50"/><rect x="3.22" y="417.98" width="27.03" height="23.38" fill="#003a50"/><rect x="124.76" y="411.82" width="82.83" height="27.12" fill="#003a50"/><rect x="302.34" y="417.98" width="95.33" height="38.32" fill="#003a50"/><rect x="370.5" y="421.98" width="27.17" height="41.92" fill="#003a50"/><rect x="-91.31" y="184.12" width="94.48" height="6.38" fill="#003a50"/><rect x="-94.93" y="50.23" width="99.68" height="6.38" fill="#003a50"/><rect x="-94.93" y="85.86" width="99.68" height="6.38" fill="#003a50"/><rect x="178.65" y="279.36" width="6.38" height="136.12" fill="#003a50"/><rect x="178.65" y="183.23" width="6.38" height="54.19" fill="#003a50"/><rect x="369.54" y="6.4" width="6.38" height="52.01" fill="#003a50"/><rect x="265.67" y="24.47" width="108.92" height="6.38" fill="#003a50"/><rect x="316.94" y="26.73" width="6.38" height="33.17" fill="#003a50"/><rect x="369.54" y="6.48" width="128.72" height="6.38" fill="#003a50"/><rect x="369.54" y="104.86" width="39.47" height="6.38" fill="#003a50"/><rect x="119.84" y="65.4" width="6.38" height="50.21" fill="#003a50"/><rect x="119.84" y="153.36" width="6.38" height="32.88" fill="#003a50"/><rect x="181.84" y="156.39" width="3.19" height="29.85" fill="#003a50"/><rect x="181.84" y="66.55" width="3.19" height="36.33" fill="#003a50"/><rect x="15.25" y="85.29" width="107.78" height="6.38" fill="#003a50"/><rect x="83.7" y="62.68" width="6.38" height="26.37" fill="#003a50"/><rect x="252.59" y="63.73" width="6.38" height="25.25" fill="#003a50"/><rect x="272.57" y="64.48" width="6.38" height="24.5" fill="#003a50"/><rect x="254.44" y="82.6" width="24.5" height="6.38" fill="#003a50"/><rect x="15.25" y="183.42" width="166.58" height="6.38" fill="#003a50"/><line x1="184.3" y1="156.74" x2="187.13" y2="156.74" fill="none" stroke="#003a50" stroke-miterlimit="10"/><line x1="192.88" y1="156.74" x2="247.48" y2="156.74" fill="none" stroke="#003a50" stroke-miterlimit="10" stroke-dasharray="5.75 5.75"/><polyline points="250.35 156.74 253.19 156.74 253.19 153.9" fill="none" stroke="#003a50" stroke-miterlimit="10"/><line x1="253.19" y1="148.06" x2="253.19" y2="92.52" fill="none" stroke="#003a50" stroke-miterlimit="10" stroke-dasharray="5.85 5.85"/><line x1="253.19" y1="89.6" x2="253.19" y2="86.76" fill="none" stroke="#003a50" stroke-miterlimit="10"/><line x1="10.06" y1="16.25" x2="10.06" y2="-54.97" fill="none" stroke="#003a50" stroke-miterlimit="10" stroke-dasharray="5.67 5.67"/></g><g clip-path="url(#clip-path)"><path d="M81.48,139.68H75.66v-1.84h8.86v1.84L80,142.33v.07h1.28a3.9,3.9,0,0,1,2.79,1,3.52,3.52,0,0,1,1,2.67,3.34,3.34,0,0,1-1.32,2.82,7,7,0,0,1-7.25,0A3.38,3.38,0,0,1,75.22,146v-.32h2.1V146q0,2,2.85,2c1.89,0,2.83-.67,2.83-2s-.94-2-2.83-2H76.9v-1.67l4.58-2.68Z" fill="#003a50"/><path d="M87.22,149.61a1,1,0,0,1-.33-.8,1,1,0,0,1,.33-.81A1.4,1.4,0,0,1,89,148a1,1,0,0,1,.32.81,1,1,0,0,1-.32.8,1.4,1.4,0,0,1-1.73,0Z" fill="#003a50"/><path d="M97.32,139.68H91.5v-1.84h8.86v1.84l-4.52,2.65v.07h1.27a3.91,3.91,0,0,1,2.8,1,3.52,3.52,0,0,1,1,2.67,3.32,3.32,0,0,1-1.33,2.82,7,7,0,0,1-7.24,0A3.36,3.36,0,0,1,91.06,146v-.32h2.11V146c0,1.36,1,2,2.84,2s2.84-.67,2.84-2-.95-2-2.84-2H92.75v-1.67l4.57-2.68Z" fill="#003a50"/><path d="M157.82,116.21h-9.93v-1.56a2.79,2.79,0,0,1,.58-1.75,3.91,3.91,0,0,1,1.45-1.19c.5-.26,1.12-.55,1.87-.87s1.32-.55,1.87-.77a4.36,4.36,0,0,0,1.45-.91,1.82,1.82,0,0,0,.57-1.31c0-1.25-.89-1.88-2.67-1.88s-2.67.72-2.67,2.16v.4h-2.11v-.4a3.62,3.62,0,0,1,1.26-3,5.45,5.45,0,0,1,3.52-1,5.72,5.72,0,0,1,3.51,1,3.29,3.29,0,0,1,1.27,2.75,3.17,3.17,0,0,1-.56,1.84,4.16,4.16,0,0,1-1.4,1.3,16.7,16.7,0,0,1-1.84.93c-.62.28-1.23.53-1.82.75a5.18,5.18,0,0,0-1.41.75,1.23,1.23,0,0,0-.56,1h7.62Z" fill="#003a50"/><path d="M159.92,116.07a1,1,0,0,1-.32-.8,1.07,1.07,0,0,1,.32-.81,1.25,1.25,0,0,1,.88-.3,1.22,1.22,0,0,1,.86.3,1,1,0,0,1,.32.81,1,1,0,0,1-.32.8,1.22,1.22,0,0,1-.86.3A1.25,1.25,0,0,1,159.92,116.07Z" fill="#003a50"/><path d="M173.7,116.21h-9.93v-1.56a2.79,2.79,0,0,1,.58-1.75,3.83,3.83,0,0,1,1.45-1.19c.49-.26,1.12-.55,1.86-.87s1.33-.55,1.88-.77a4.36,4.36,0,0,0,1.45-.91,1.82,1.82,0,0,0,.57-1.31c0-1.25-.89-1.88-2.67-1.88s-2.67.72-2.67,2.16v.4h-2.11v-.4a3.62,3.62,0,0,1,1.26-3,5.44,5.44,0,0,1,3.51-1,5.73,5.73,0,0,1,3.52,1,3.31,3.31,0,0,1,1.27,2.75,3.17,3.17,0,0,1-.56,1.84,4.16,4.16,0,0,1-1.4,1.3,16.7,16.7,0,0,1-1.84.93c-.62.28-1.23.53-1.82.75a5.18,5.18,0,0,0-1.41.75,1.23,1.23,0,0,0-.56,1h7.62Z" fill="#003a50"/><path d="M311.2-6.48a5,5,0,0,1,3.34,1.07,3.7,3.7,0,0,1,1.25,3,3.71,3.71,0,0,1-1.29,3A5.41,5.41,0,0,1,311,1.67a5.75,5.75,0,0,1-3.56-1A3.16,3.16,0,0,1,306.1-2h2.11a1.53,1.53,0,0,0,.7,1.33,3.61,3.61,0,0,0,2,.49,3.17,3.17,0,0,0,2-.58,2,2,0,0,0,.7-1.68A2.05,2.05,0,0,0,313-4.13a3.32,3.32,0,0,0-2.08-.58,3.54,3.54,0,0,0-1.91.42,1.84,1.84,0,0,0-.7.64l-.05.12H306.1V-10.4H315v1.84h-6.77v3h.05a1.91,1.91,0,0,1,.4-.31,3.51,3.51,0,0,1,.55-.27A5.6,5.6,0,0,1,311.2-6.48Z" fill="#003a50"/><path d="M317.9,1.37a1,1,0,0,1-.32-.8,1,1,0,0,1,.32-.81,1.41,1.41,0,0,1,1.74,0,1.07,1.07,0,0,1,.32.81,1,1,0,0,1-.32.8,1.41,1.41,0,0,1-1.74,0Z" fill="#003a50"/><path d="M325,1.51h-2.35l5.41-10h-6.92V-10.4h9.28v1.87Z" fill="#003a50"/><path d="M38.35-8.61H32.52v-1.84h8.86v1.84L36.86-6v.06h1.28a3.87,3.87,0,0,1,2.79,1,3.52,3.52,0,0,1,1,2.66A3.33,3.33,0,0,1,40.65.61a5.87,5.87,0,0,1-3.62,1,5.87,5.87,0,0,1-3.62-1,3.39,3.39,0,0,1-1.33-2.86v-.32h2.11v.32c0,1.36,1,2,2.84,2s2.84-.66,2.84-2-.94-2-2.84-2H33.77V-5.86l4.58-2.68Z" fill="#003a50"/><path d="M44.08,1.32a1,1,0,0,1-.32-.8,1.07,1.07,0,0,1,.32-.81A1.25,1.25,0,0,1,45-.59a1.22,1.22,0,0,1,.86.3,1,1,0,0,1,.32.81,1,1,0,0,1-.32.8,1.22,1.22,0,0,1-.86.3A1.25,1.25,0,0,1,44.08,1.32Z" fill="#003a50"/><path d="M56.67.69A6.45,6.45,0,0,1,53,1.62,6.43,6.43,0,0,1,49.3.68a3,3,0,0,1-1.37-2.56A2.56,2.56,0,0,1,48.19-3a2.37,2.37,0,0,1,.65-.85,3.94,3.94,0,0,1,1.4-.78l.25-.06v-.09a3.51,3.51,0,0,1-.76-.29,2.91,2.91,0,0,1-.66-.44,2.35,2.35,0,0,1-.54-.76,2.39,2.39,0,0,1-.23-1,2.79,2.79,0,0,1,1.26-2.38,5.74,5.74,0,0,1,3.42-.9,5.81,5.81,0,0,1,3.43.9,2.82,2.82,0,0,1,1.24,2.38,2.43,2.43,0,0,1-.22,1,1.9,1.9,0,0,1-.55.75,3.69,3.69,0,0,1-1.19.68l-.23,0v.09a2.45,2.45,0,0,1,.28.06,6.14,6.14,0,0,1,.63.27,3.68,3.68,0,0,1,.77.51,2.69,2.69,0,0,1,.61.82A2.52,2.52,0,0,1,58-1.88,3,3,0,0,1,56.67.69ZM50.88-.66A3.79,3.79,0,0,0,53-.18a3.84,3.84,0,0,0,2.1-.48A1.5,1.5,0,0,0,55.82-2a1.51,1.51,0,0,0-.74-1.35,4.93,4.93,0,0,0-4.2,0A1.49,1.49,0,0,0,50.14-2,1.49,1.49,0,0,0,50.88-.66Zm-.37-6.52A1.37,1.37,0,0,0,51.16-6,3.2,3.2,0,0,0,53-5.55,3.24,3.24,0,0,0,54.8-6a1.36,1.36,0,0,0,.64-1.19,1.35,1.35,0,0,0-.65-1.2A3.25,3.25,0,0,0,53-8.82a3.23,3.23,0,0,0-1.81.44A1.36,1.36,0,0,0,50.51-7.18Z" fill="#003a50"/><path d="M83,256.8l-2.49,1.95v-2.24l2.74-2.27h1.86v11.91H83Z" fill="#003a50"/><path d="M97.46,266.15H87.52v-1.56a2.85,2.85,0,0,1,.58-1.75,4.2,4.2,0,0,1,1.45-1.19c.5-.26,1.12-.54,1.87-.87L93.3,260a4.07,4.07,0,0,0,1.44-.91,1.8,1.8,0,0,0,.57-1.3c0-1.26-.89-1.89-2.66-1.89s-2.68.72-2.68,2.16v.41H87.86v-.41a3.61,3.61,0,0,1,1.27-3,5.4,5.4,0,0,1,3.51-1,5.65,5.65,0,0,1,3.51,1,3.27,3.27,0,0,1,1.27,2.75,3.16,3.16,0,0,1-.55,1.83,4.28,4.28,0,0,1-1.41,1.3,17.49,17.49,0,0,1-1.83.93q-.94.42-1.83.75a5.26,5.26,0,0,0-1.4.75,1.22,1.22,0,0,0-.57.95h7.63Z" fill="#003a50"/><path d="M99.56,266a1.15,1.15,0,0,1,0-1.61,1.4,1.4,0,0,1,1.73,0,1.15,1.15,0,0,1,0,1.61,1.4,1.4,0,0,1-1.73,0Z" fill="#003a50"/><path d="M111.89,266.15h-2.11V263.5h-7v-1.84l6.3-7.42h2.79v7.42h1.59v1.84h-1.59Zm-2.11-4.49v-5.33h-.07l-4.47,5.28v.05Z" fill="#003a50"/><path d="M211,116.14h-9.93v-1.56a2.79,2.79,0,0,1,.58-1.75,4,4,0,0,1,1.44-1.19c.5-.26,1.13-.54,1.87-.87l1.88-.77a4.07,4.07,0,0,0,1.44-.91,1.78,1.78,0,0,0,.58-1.31c0-1.25-.89-1.88-2.67-1.88s-2.67.72-2.67,2.16v.41H201.4v-.41a3.64,3.64,0,0,1,1.26-3,5.44,5.44,0,0,1,3.51-1,5.66,5.66,0,0,1,3.52,1,3.28,3.28,0,0,1,1.27,2.74,3.17,3.17,0,0,1-.56,1.84,4.16,4.16,0,0,1-1.4,1.3,16.7,16.7,0,0,1-1.84.93q-.93.42-1.83.75a5.26,5.26,0,0,0-1.4.75,1.2,1.2,0,0,0-.56,1H211Z" fill="#003a50"/><path d="M213.09,116a1,1,0,0,1-.32-.81,1.07,1.07,0,0,1,.32-.81,1.45,1.45,0,0,1,1.74,0,1.07,1.07,0,0,1,.32.81,1,1,0,0,1-.32.81,1.45,1.45,0,0,1-1.74,0Z" fill="#003a50"/><path d="M218.5,114.6a7.33,7.33,0,0,1,0-8.83,5.69,5.69,0,0,1,8.13,0,7.33,7.33,0,0,1,0,8.83,5.71,5.71,0,0,1-8.13,0Zm6.53-1.38a5.75,5.75,0,0,0,0-6.08,3.17,3.17,0,0,0-4.92,0,5.69,5.69,0,0,0,0,6.08,2.87,2.87,0,0,0,2.46,1.18A2.92,2.92,0,0,0,225,113.22Z" fill="#003a50"/><path d="M188.07,256.8l-2.49,1.95v-2.24l2.73-2.27h1.86v11.91h-2.1Z" fill="#003a50"/><path d="M201.37,265.39a6.43,6.43,0,0,1-3.68.93,6.5,6.5,0,0,1-3.69-.94,3,3,0,0,1-1.37-2.56,2.66,2.66,0,0,1,.26-1.16,2.32,2.32,0,0,1,.66-.86,4,4,0,0,1,1.39-.77l.26-.07v-.09a3.57,3.57,0,0,1-.77-.29,2.61,2.61,0,0,1-.66-.44,2.15,2.15,0,0,1-.54-.76,2.38,2.38,0,0,1-.22-1,2.8,2.8,0,0,1,1.25-2.38,7,7,0,0,1,6.85,0,2.84,2.84,0,0,1,1.25,2.38,2.63,2.63,0,0,1-.22,1,1.88,1.88,0,0,1-.56.74,3.59,3.59,0,0,1-1.19.68l-.22.05V260l.28.07a6.35,6.35,0,0,1,.62.27,3.79,3.79,0,0,1,.77.5,2.83,2.83,0,0,1,.62.82,2.71,2.71,0,0,1,.27,1.2A3,3,0,0,1,201.37,265.39ZM195.58,264a4.88,4.88,0,0,0,4.2,0,1.6,1.6,0,0,0,0-2.7,5,5,0,0,0-4.2,0,1.53,1.53,0,0,0-.74,1.35A1.5,1.5,0,0,0,195.58,264Zm-.36-6.52a1.35,1.35,0,0,0,.64,1.19,3.16,3.16,0,0,0,1.82.44,3.12,3.12,0,0,0,1.82-.44,1.42,1.42,0,0,0,0-2.39,4,4,0,0,0-3.62,0A1.35,1.35,0,0,0,195.22,257.51Z" fill="#003a50"/><path d="M204.84,266a1.17,1.17,0,0,1,0-1.61,1.41,1.41,0,0,1,1.74,0,1.17,1.17,0,0,1,0,1.61,1.41,1.41,0,0,1-1.74,0Z" fill="#003a50"/><path d="M215,256.08h-5.82v-1.84H218v1.84l-4.53,2.65v.07h1.28a3.9,3.9,0,0,1,2.79,1,3.52,3.52,0,0,1,1.05,2.67,3.34,3.34,0,0,1-1.32,2.82,7,7,0,0,1-7.25,0,3.37,3.37,0,0,1-1.32-2.85v-.33h2.1v.33c0,1.36,1,2,2.84,2s2.85-.67,2.85-2-.95-2-2.85-2h-3.26v-1.67l4.58-2.68Z" fill="#003a50"/></g></svg>