<svg id="Слой_1" data-name="Слой 1" xmlns="http://www.w3.org/2000/svg" xmlns:xlink="http://www.w3.org/1999/xlink" viewBox="0 0 583.94 632.13"><defs><clipPath id="clip-path"><polygon points="0.14 0 0.14 632.13 383.98 632.13 383.98 615.6 405.41 615.6 405.41 231.19 531.97 231.19 531.97 180.57 583.94 180.57 583.94 0 0.14 0" fill="none"/></clipPath></defs><polygon points="54.3 0 54.3 0.42 246.31 0 54.3 0" fill="#fff"/><polygon points="509.55 11.68 509.55 11.98 53.34 11.98 53.34 203 53.34 231.21 53.34 591.61 396.18 591.61 396.18 219.61 516.89 219.61 516.4 178.43 516.4 129.09 523.22 121.58 529.73 112.92 529.73 11.68 509.55 11.68" fill="#fff"/><polygon points="391.37 591.61 405.41 591.61 405.41 231.19 531.97 231.19 531.97 230.22 396.65 227.37 391.37 591.61" fill="#fff"/><g clip-path="url(#clip-path)"><rect x="29.7" y="-1588.57" width="1115.44" height="2194.74" fill="none" stroke="#003a50" stroke-miterlimit="10"/><polygon points="55.32 -502.58 55.32 583.21 1121.8 583.21 1121.8 -1564.12 55.32 -1564.28 55.32 -571.37 55.32 -502.58" fill="none" stroke="#003a50" stroke-miterlimit="10"/></g><rect x="39.42" y="50.27" width="4.55" height="89.48" fill="#fff"/><rect x="39.42" y="50.27" width="4.55" height="89.48" fill="none" stroke="#003a50" stroke-miterlimit="10"/><line x1="41.7" y1="50.27" x2="41.7" y2="139.75" fill="none" stroke="#003a50" stroke-miterlimit="10"/><rect x="39.42" y="50.27" width="4.55" height="4.52" fill="#fff"/><rect x="39.42" y="50.27" width="4.55" height="4.52" fill="none" stroke="#003a50" stroke-miterlimit="10"/><rect x="39.42" y="135.23" width="4.55" height="4.52" fill="#fff"/><rect x="39.42" y="135.23" width="4.55" height="4.52" fill="none" stroke="#003a50" stroke-miterlimit="10"/><rect x="39.42" y="92.75" width="4.55" height="4.52" fill="#fff"/><rect x="39.42" y="92.75" width="4.55" height="4.52" fill="none" stroke="#003a50" stroke-miterlimit="10"/><rect x="39.42" y="230.42" width="4.55" height="88.8" fill="#fff"/><rect x="39.42" y="230.42" width="4.55" height="88.8" fill="none" stroke="#003a50" stroke-miterlimit="10"/><line x1="41.7" y1="230.42" x2="41.7" y2="319.22" fill="none" stroke="#003a50" stroke-miterlimit="10"/><rect x="39.42" y="230.42" width="4.55" height="4.48" fill="#fff"/><rect x="39.42" y="230.42" width="4.55" height="4.48" fill="none" stroke="#003a50" stroke-miterlimit="10"/><rect x="39.42" y="314.74" width="4.55" height="4.48" fill="#fff"/><rect x="39.42" y="314.74" width="4.55" height="4.48" fill="none" stroke="#003a50" stroke-miterlimit="10"/><rect x="39.42" y="272.58" width="4.55" height="4.48" fill="#fff"/><rect x="39.42" y="272.58" width="4.55" height="4.48" fill="none" stroke="#003a50" stroke-miterlimit="10"/><rect x="39.42" y="414.79" width="4.55" height="87.43" fill="#fff"/><rect x="39.42" y="414.79" width="4.55" height="87.43" fill="none" stroke="#003a50" stroke-miterlimit="10"/><line x1="41.7" y1="414.79" x2="41.7" y2="502.21" fill="none" stroke="#003a50" stroke-miterlimit="10"/><rect x="39.42" y="414.79" width="4.55" height="4.42" fill="#fff"/><rect x="39.42" y="414.79" width="4.55" height="4.42" fill="none" stroke="#003a50" stroke-miterlimit="10"/><rect x="39.42" y="497.8" width="4.55" height="4.42" fill="#fff"/><rect x="39.42" y="497.8" width="4.55" height="4.42" fill="none" stroke="#003a50" stroke-miterlimit="10"/><rect x="39.42" y="456.29" width="4.55" height="4.42" fill="#fff"/><rect x="39.42" y="456.29" width="4.55" height="4.42" fill="none" stroke="#003a50" stroke-miterlimit="10"/><rect x="300.27" y="591.15" width="88.21" height="4.56" fill="#fff"/><rect x="300.27" y="591.15" width="88.21" height="4.56" fill="none" stroke="#003a50" stroke-miterlimit="10"/><line x1="300.27" y1="593.43" x2="388.48" y2="593.43" fill="none" stroke="#003a50" stroke-miterlimit="10"/><rect x="300.27" y="591.15" width="4.45" height="4.56" fill="#fff"/><rect x="300.27" y="591.15" width="4.45" height="4.56" fill="none" stroke="#003a50" stroke-miterlimit="10"/><rect x="384.03" y="591.15" width="4.45" height="4.56" fill="#fff"/><rect x="384.03" y="591.15" width="4.45" height="4.56" fill="none" stroke="#003a50" stroke-miterlimit="10"/><rect x="342.15" y="591.15" width="4.45" height="4.56" fill="#fff"/><rect x="342.15" y="591.15" width="4.45" height="4.56" fill="none" stroke="#003a50" stroke-miterlimit="10"/><rect x="62.19" y="591.16" width="142.38" height="4.56" fill="#fff"/><rect x="62.19" y="591.16" width="142.38" height="4.56" fill="none" stroke="#003a50" stroke-miterlimit="10"/><line x1="62.19" y1="593.43" x2="204.57" y2="593.43" fill="none" stroke="#003a50" stroke-miterlimit="10"/><rect x="96.65" y="591.16" width="4.55" height="4.56" fill="#fff"/><rect x="96.65" y="591.16" width="4.55" height="4.56" fill="none" stroke="#003a50" stroke-miterlimit="10"/><rect x="131.11" y="591.16" width="4.55" height="4.56" fill="#fff"/><rect x="131.11" y="591.16" width="4.55" height="4.56" fill="none" stroke="#003a50" stroke-miterlimit="10"/><rect x="62.19" y="591.16" width="4.55" height="4.56" fill="#fff"/><rect x="62.19" y="591.16" width="4.55" height="4.56" fill="none" stroke="#003a50" stroke-miterlimit="10"/><rect x="200.02" y="591.16" width="4.55" height="4.56" fill="#fff"/><rect x="200.02" y="591.16" width="4.55" height="4.56" fill="none" stroke="#003a50" stroke-miterlimit="10"/><rect x="165.57" y="591.16" width="4.55" height="4.56" fill="#fff"/><rect x="165.57" y="591.16" width="4.55" height="4.56" fill="none" stroke="#003a50" stroke-miterlimit="10"/><g clip-path="url(#clip-path)"><rect x="404.73" y="256.36" width="42.38" height="92.09" fill="none" stroke="#003a50" stroke-miterlimit="10"/><rect x="409.71" y="260.16" width="32.03" height="84.24" rx="13.7" fill="none" stroke="#003a50" stroke-miterlimit="10"/><path d="M428,274.74a2.2,2.2,0,1,0-2.2,2.2A2.19,2.19,0,0,0,428,274.74Z" fill="none" stroke="#003a50" stroke-miterlimit="10"/></g><rect x="348.01" y="256.36" width="42.38" height="92.09" fill="none" stroke="#003a50" stroke-miterlimit="10"/><g clip-path="url(#clip-path)"><rect x="352.99" y="260.16" width="32.03" height="84.24" rx="13.7" fill="none" stroke="#003a50" stroke-miterlimit="10"/><path d="M371.29,274.74a2.21,2.21,0,1,0-2.2,2.2A2.2,2.2,0,0,0,371.29,274.74Z" fill="none" stroke="#003a50" stroke-miterlimit="10"/><path d="M489.76,284.44V255.87H466.68v28.57a11.54,11.54,0,1,0,23.08,0Z" fill="none" stroke="#003a50" stroke-miterlimit="10"/><path d="M334.22,284.44V255.87H311.15v28.57a11.54,11.54,0,1,0,23.07,0Z" fill="none" stroke="#003a50" stroke-miterlimit="10"/></g><rect x="311.15" y="255.87" width="23.08" height="11.08" fill="none" stroke="#003a50" stroke-miterlimit="10"/><rect x="55.23" y="221.79" width="42.38" height="92.09" fill="none" stroke="#003a50" stroke-miterlimit="10"/><g clip-path="url(#clip-path)"><rect x="60.61" y="225.58" width="32.03" height="84.24" rx="13.7" fill="none" stroke="#003a50" stroke-miterlimit="10"/><path d="M74.33,240.16a2.21,2.21,0,1,1,2.2,2.2A2.21,2.21,0,0,1,74.33,240.16Z" fill="none" stroke="#003a50" stroke-miterlimit="10"/><path d="M144.31,249.87V221.3h23.07v28.57a11.54,11.54,0,1,1-23.07,0Z" fill="none" stroke="#003a50" stroke-miterlimit="10"/></g><rect x="144.31" y="221.3" width="23.08" height="11.08" fill="none" stroke="#003a50" stroke-miterlimit="10"/><g clip-path="url(#clip-path)"><path d="M533.3,241.14a3.38,3.38,0,0,0,3.13-2.1h1.93l5.1,3.05-2.32,3.76-2.65-1.45v11.82h-11.1V244.4l-2.65,1.45-2.32-3.76,5.14-3.05h2.58A3.43,3.43,0,0,0,533.3,241.14Z" fill="none" stroke="#003a50" stroke-miterlimit="10"/><rect x="515.93" y="231.24" width="34.02" height="32.78" fill="none" stroke="#003a50" stroke-miterlimit="10"/><path d="M422.1,89.81a3.16,3.16,0,0,0,2.9-2h1.79l4.73,2.83-2.14,3.49-2.47-1.35v11h-10.3v-11l-2.46,1.35L412,90.69l4.77-2.83h2.39A3.21,3.21,0,0,0,422.1,89.81Z" fill="none" stroke="#003a50" stroke-miterlimit="10"/></g><rect x="405.98" y="80.62" width="31.57" height="30.42" fill="none" stroke="#003a50" stroke-miterlimit="10"/><rect x="366.76" y="82.67" width="32.72" height="33.97" fill="none" stroke="#003a50" stroke-miterlimit="10"/><g clip-path="url(#clip-path)"><path d="M387.43,98.13v-11h-8.61v11a3.55,3.55,0,0,0,3.55,3.55h1.51A3.55,3.55,0,0,0,387.43,98.13Z" fill="none" stroke="#003a50" stroke-miterlimit="10"/></g><polyline points="379.65 112.23 383.13 112.23 386.6 112.23" fill="none" stroke="#003a50" stroke-miterlimit="10"/><line x1="383.13" y1="101.67" x2="383.13" y2="112.23" fill="none" stroke="#003a50" stroke-miterlimit="10"/><rect x="321.82" y="13.65" width="34.02" height="34.02" fill="none" stroke="#003a50" stroke-miterlimit="10"/><g clip-path="url(#clip-path)"><path d="M351.23,38.26a4.64,4.64,0,1,1-4.63-4.63A4.63,4.63,0,0,1,351.23,38.26Z" fill="none" stroke="#003a50" stroke-miterlimit="10"/><path d="M335.75,38.26a4.64,4.64,0,1,1-4.64-4.63A4.64,4.64,0,0,1,335.75,38.26Z" fill="none" stroke="#003a50" stroke-miterlimit="10"/><path d="M351.23,23.17a4.64,4.64,0,1,1-4.63-4.63A4.63,4.63,0,0,1,351.23,23.17Z" fill="none" stroke="#003a50" stroke-miterlimit="10"/><path d="M335.75,23.17a4.64,4.64,0,1,1-4.64-4.63A4.64,4.64,0,0,1,335.75,23.17Z" fill="none" stroke="#003a50" stroke-miterlimit="10"/></g><rect x="54.62" y="185.29" width="102.05" height="17.01" fill="none" stroke="#003a50" stroke-miterlimit="10"/><polygon points="62.64 193.26 105.54 196.79 148.64 193.26 148.64 190.8 62.64 190.8 62.64 193.26" fill="none" stroke="#003a50" stroke-miterlimit="10"/><rect x="55.42" y="443.3" width="17.01" height="102.05" fill="none" stroke="#003a50" stroke-miterlimit="10"/><polygon points="64.46 451.32 60.94 494.22 64.46 537.32 66.92 537.32 66.92 451.32 64.46 451.32" fill="none" stroke="#003a50" stroke-miterlimit="10"/><rect x="307.97" y="14.07" width="58.79" height="33.59" fill="none" stroke="#003a50" stroke-miterlimit="10"/><rect x="366.76" y="14.07" width="32.72" height="102.57" fill="none" stroke="#003a50" stroke-miterlimit="10"/><rect x="337.57" y="461.44" width="52.33" height="113.67" fill="none" stroke="#003a50" stroke-miterlimit="10"/><g clip-path="url(#clip-path)"><path d="M381,471.14h-34a2.1,2.1,0,0,0-2.1,2.1v67.63h38.25V473.24A2.1,2.1,0,0,0,381,471.14Z" fill="none" stroke="#003a50" stroke-miterlimit="10"/></g><rect x="344.81" y="527.01" width="38.26" height="13.85" fill="none" stroke="#003a50" stroke-miterlimit="10"/><g clip-path="url(#clip-path)"><rect x="344.76" y="544.48" width="38.71" height="22.88" rx="2.2" fill="none" stroke="#003a50" stroke-miterlimit="10"/></g><rect x="197.32" y="242.37" width="25.39" height="80.92" fill="none" stroke="#003a50" stroke-miterlimit="10"/><g clip-path="url(#clip-path)"><rect x="199.38" y="288.58" width="25.04" height="24.4" rx="2.83" fill="none" stroke="#003a50" stroke-miterlimit="10"/><path d="M210,300.78a1.91,1.91,0,1,0,1.91-1.91A1.91,1.91,0,0,0,210,300.78Z" fill="none" stroke="#003a50" stroke-miterlimit="10"/><rect x="199.38" y="252.81" width="25.04" height="24.4" rx="2.83" fill="none" stroke="#003a50" stroke-miterlimit="10"/><path d="M210,265a1.91,1.91,0,1,0,1.91-1.91A1.9,1.9,0,0,0,210,265Z" fill="none" stroke="#003a50" stroke-miterlimit="10"/><path d="M206,57.09a1.27,1.27,0,0,1-1.21,1.31A13.79,13.79,0,0,0,205.88,86a1.26,1.26,0,0,1,.1,2.51,16.3,16.3,0,0,1-1.27-32.58A1.28,1.28,0,0,1,206,57.09Z" fill="none" stroke="#003a50" stroke-miterlimit="10"/><path d="M213,94.65a1.25,1.25,0,0,1,.87,1.55,13.78,13.78,0,0,0,26.53,7.5,1.27,1.27,0,0,1,1.56-.88,1.26,1.26,0,0,1,.86,1.56,16.3,16.3,0,1,1-31.37-8.86A1.26,1.26,0,0,1,213,94.65Z" fill="none" stroke="#003a50" stroke-miterlimit="10"/><path d="M250.74,99a1.25,1.25,0,0,1,1.74-.35,13.78,13.78,0,0,0,15.33-22.91,1.26,1.26,0,0,1,1.4-2.1,16.3,16.3,0,1,1-18.13,27.1A1.24,1.24,0,0,1,250.74,99Z" fill="none" stroke="#003a50" stroke-miterlimit="10"/><path d="M267.92,64.44a1.26,1.26,0,0,1,.21-1.77A13.78,13.78,0,1,0,251.07,41a1.26,1.26,0,0,1-1.56-2,16.3,16.3,0,0,1,20.18,25.61A1.26,1.26,0,0,1,267.92,64.44Z" fill="none" stroke="#003a50" stroke-miterlimit="10"/><path d="M239.09,40.39a1.27,1.27,0,0,1-.85-1.56,13.79,13.79,0,1,0-26.46-7.75,1.26,1.26,0,0,1-2.41-.71,16.3,16.3,0,1,1,31.28,9.16A1.26,1.26,0,0,1,239.09,40.39Z" fill="none" stroke="#003a50" stroke-miterlimit="10"/><path d="M215.85,84.41l-9.36.36a12.65,12.65,0,1,1-1-25.28l9-.32a23.7,23.7,0,0,0,1.28,25.24Z" fill="none" stroke="#003a50" stroke-miterlimit="10"/><path d="M242,93.65l-2.56,9.08a12.65,12.65,0,1,1-24.36-6.84l2.6-9.2a23.6,23.6,0,0,0,24.32,7Z" fill="none" stroke="#003a50" stroke-miterlimit="10"/><path d="M270.09,93.85a12.67,12.67,0,0,1-17.52,3.52l-7.28-4.88a23.88,23.88,0,0,0,13.12-15.24,24.8,24.8,0,0,0,.84-5.84l7.36,4.92A12.63,12.63,0,0,1,270.09,93.85Z" fill="none" stroke="#003a50" stroke-miterlimit="10"/><path d="M266.89,62.21l-7.72,6.08a23.88,23.88,0,0,0-15.56-20l7.64-6a12.65,12.65,0,1,1,15.64,19.88Z" fill="none" stroke="#003a50" stroke-miterlimit="10"/><path d="M237,39.13l-2.28,7.76A23.58,23.58,0,0,0,225.61,49l-15.28-4.48a1.21,1.21,0,0,1-.84-1.52l3.08-10.64a12.87,12.87,0,0,1,13.2-9.4A12.67,12.67,0,0,1,237,39.13Z" fill="none" stroke="#003a50" stroke-miterlimit="10"/><path d="M259.25,71.41a24.8,24.8,0,0,1-.84,5.84,23.88,23.88,0,0,1-13.12,15.24A24.6,24.6,0,0,1,242,93.65a23.6,23.6,0,0,1-24.32-7,25.46,25.46,0,0,1-1.84-2.28,23.7,23.7,0,0,1-1.28-25.24,24,24,0,0,1,11-10.16,23.84,23.84,0,0,1,16.32-1.24c.56.16,1.12.36,1.68.56a23.88,23.88,0,0,1,15.56,20A27.09,27.09,0,0,1,259.25,71.41Z" fill="none" stroke="#003a50" stroke-miterlimit="10"/><path d="M445.08,383.33a1,1,0,0,1-.54.9.94.94,0,0,1-1.29-.45,29.69,29.69,0,0,1,0-25.26,1,1,0,0,1,1.29-.46,1,1,0,0,1,.44,1.34,27.64,27.64,0,0,0,0,23.49A1,1,0,0,1,445.08,383.33Z" fill="none" stroke="#003a50" stroke-miterlimit="10"/><path d="M439.71,383.33a1,1,0,0,1-.54.9.94.94,0,0,1-1.29-.45,29.69,29.69,0,0,1,0-25.26,1,1,0,0,1,1.29-.46,1,1,0,0,1,.44,1.34,27.64,27.64,0,0,0,0,23.49A1,1,0,0,1,439.71,383.33Z" fill="none" stroke="#003a50" stroke-miterlimit="10"/><path d="M434.34,383.33a1,1,0,0,1-.54.9.94.94,0,0,1-1.29-.45,29.69,29.69,0,0,1,0-25.26,1,1,0,0,1,1.29-.46,1,1,0,0,1,.44,1.34,27.64,27.64,0,0,0,0,23.49A1,1,0,0,1,434.34,383.33Z" fill="none" stroke="#003a50" stroke-miterlimit="10"/><path d="M429,383.33a1,1,0,0,1-.54.9,1,1,0,0,1-1.3-.45,29.69,29.69,0,0,1,0-25.26,1,1,0,0,1,1.3-.46,1,1,0,0,1,.44,1.34,27.64,27.64,0,0,0,0,23.49A1,1,0,0,1,429,383.33Z" fill="none" stroke="#003a50" stroke-miterlimit="10"/><path d="M423.6,383.33a1,1,0,0,1-.54.9,1,1,0,0,1-1.3-.45,29.69,29.69,0,0,1,0-25.26,1,1,0,0,1,1.29-.46,1,1,0,0,1,.45,1.34,27.64,27.64,0,0,0,0,23.49A1,1,0,0,1,423.6,383.33Z" fill="none" stroke="#003a50" stroke-miterlimit="10"/><path d="M418.23,383.33a1,1,0,0,1-.54.9,1,1,0,0,1-1.3-.45,29.69,29.69,0,0,1,0-25.26,1,1,0,0,1,1.29-.46,1,1,0,0,1,.45,1.34,27.64,27.64,0,0,0,0,23.49A1,1,0,0,1,418.23,383.33Z" fill="none" stroke="#003a50" stroke-miterlimit="10"/><path d="M450.46,383.33a1,1,0,0,1-.54.9,1,1,0,0,1-1.3-.45,29.69,29.69,0,0,1,0-25.26,1,1,0,0,1,1.29-.46,1,1,0,0,1,.45,1.34,27.64,27.64,0,0,0,0,23.49A1.17,1.17,0,0,1,450.46,383.33Z" fill="none" stroke="#003a50" stroke-miterlimit="10"/><path d="M455.83,383.33a1,1,0,0,1-.54.9,1,1,0,0,1-1.3-.45,29.69,29.69,0,0,1,0-25.26,1,1,0,0,1,1.29-.46,1,1,0,0,1,.45,1.34,27.64,27.64,0,0,0,0,23.49A1,1,0,0,1,455.83,383.33Z" fill="none" stroke="#003a50" stroke-miterlimit="10"/><line x1="567.86" y1="371.15" x2="403.99" y2="371.15" fill="none" stroke="#003a50" stroke-miterlimit="10"/><rect x="405" y="353.86" width="162.86" height="34.02" fill="none" stroke="#003a50" stroke-miterlimit="10"/><path d="M437.75,210.13a1,1,0,0,1-.54.9,1,1,0,0,1-1.3-.45,29.69,29.69,0,0,1,0-25.26,1,1,0,0,1,1.29-.46,1,1,0,0,1,.45,1.34,27.64,27.64,0,0,0,0,23.49A1.17,1.17,0,0,1,437.75,210.13Z" fill="none" stroke="#003a50" stroke-miterlimit="10"/><path d="M432.37,210.13a1,1,0,0,1-.54.9.94.94,0,0,1-1.29-.45,29.69,29.69,0,0,1,0-25.26,1,1,0,0,1,1.29-.46,1,1,0,0,1,.44,1.34,27.64,27.64,0,0,0,0,23.49A1,1,0,0,1,432.37,210.13Z" fill="none" stroke="#003a50" stroke-miterlimit="10"/><path d="M427,210.13a1,1,0,0,1-.54.9.94.94,0,0,1-1.29-.45,29.69,29.69,0,0,1,0-25.26,1,1,0,0,1,1.29-.46,1,1,0,0,1,.44,1.34,27.64,27.64,0,0,0,0,23.49A1,1,0,0,1,427,210.13Z" fill="none" stroke="#003a50" stroke-miterlimit="10"/><path d="M421.63,210.13a1,1,0,0,1-.54.9.94.94,0,0,1-1.29-.45,29.69,29.69,0,0,1,0-25.26,1,1,0,0,1,1.29-.46,1,1,0,0,1,.44,1.34,27.64,27.64,0,0,0,0,23.49A1,1,0,0,1,421.63,210.13Z" fill="none" stroke="#003a50" stroke-miterlimit="10"/><path d="M416.26,210.13a1,1,0,0,1-.54.9,1,1,0,0,1-1.3-.45,29.69,29.69,0,0,1,0-25.26,1,1,0,0,1,1.3-.46,1,1,0,0,1,.44,1.34,27.64,27.64,0,0,0,0,23.49A1,1,0,0,1,416.26,210.13Z" fill="none" stroke="#003a50" stroke-miterlimit="10"/><path d="M410.89,210.13a1,1,0,0,1-.54.9,1,1,0,0,1-1.3-.45,29.69,29.69,0,0,1,0-25.26,1,1,0,0,1,1.29-.46,1,1,0,0,1,.45,1.34,27.64,27.64,0,0,0,0,23.49A1,1,0,0,1,410.89,210.13Z" fill="none" stroke="#003a50" stroke-miterlimit="10"/><path d="M443.12,210.13a1,1,0,0,1-.54.9,1,1,0,0,1-1.3-.45,29.69,29.69,0,0,1,0-25.26,1,1,0,0,1,1.29-.46,1,1,0,0,1,.45,1.34,27.64,27.64,0,0,0,0,23.49A1,1,0,0,1,443.12,210.13Z" fill="none" stroke="#003a50" stroke-miterlimit="10"/><path d="M448.49,210.13a1,1,0,0,1-.54.9,1,1,0,0,1-1.3-.45,29.69,29.69,0,0,1,0-25.26,1,1,0,0,1,1.3-.46,1,1,0,0,1,.44,1.34,27.64,27.64,0,0,0,0,23.49A1,1,0,0,1,448.49,210.13Z" fill="none" stroke="#003a50" stroke-miterlimit="10"/></g><line x1="516.27" y1="197.95" x2="396.65" y2="197.95" fill="none" stroke="#003a50" stroke-miterlimit="10"/><path d="M398.4,181.38H515.54V214H398.4Zm-1,33.57H516.54V180.38H397.4Z" fill="#003a50"/><rect x="300.59" y="323.51" width="47.18" height="25.39" fill="none" stroke="#003a50" stroke-miterlimit="10"/><g clip-path="url(#clip-path)"><rect x="310.48" y="325.57" width="24.4" height="25.04" rx="2.83" fill="none" stroke="#003a50" stroke-miterlimit="10"/><path d="M322.68,336.18a1.91,1.91,0,1,1-1.91,1.91A1.92,1.92,0,0,1,322.68,336.18Z" fill="none" stroke="#003a50" stroke-miterlimit="10"/><rect x="465.54" y="324.63" width="24.4" height="25.04" rx="2.83" fill="none" stroke="#003a50" stroke-miterlimit="10"/><path d="M477.74,335.24a1.91,1.91,0,1,1-1.91,1.91A1.91,1.91,0,0,1,477.74,335.24Z" fill="none" stroke="#003a50" stroke-miterlimit="10"/><rect x="329.01" y="-34.34" width="34.02" height="34.02" fill="none" stroke="#003a50" stroke-miterlimit="10"/></g><rect x="406.2" y="40.41" width="81.73" height="27.04" fill="none" stroke="#003a50" stroke-miterlimit="10"/><g clip-path="url(#clip-path)"><path d="M474,63.62a.8.8,0,0,1-1.51.35,22.88,22.88,0,0,1,0-20.08.8.8,0,0,1,1.43.71,21.25,21.25,0,0,0,0,18.67A.72.72,0,0,1,474,63.62Z" fill="none" stroke="#003a50" stroke-miterlimit="10"/><path d="M469.56,63.62a.79.79,0,0,1-.45.71.78.78,0,0,1-1.06-.36,22.8,22.8,0,0,1,0-20.08.79.79,0,1,1,1.42.71,21.34,21.34,0,0,0,0,18.67A.73.73,0,0,1,469.56,63.62Z" fill="none" stroke="#003a50" stroke-miterlimit="10"/><path d="M465.13,63.62a.8.8,0,0,1-1.51.35,22.88,22.88,0,0,1,0-20.08.8.8,0,0,1,1.07-.36.8.8,0,0,1,.36,1.07,21.25,21.25,0,0,0,0,18.67A.72.72,0,0,1,465.13,63.62Z" fill="none" stroke="#003a50" stroke-miterlimit="10"/><path d="M460.71,63.62a.8.8,0,0,1-1.51.35,22.88,22.88,0,0,1,0-20.08.8.8,0,0,1,1.43.71,21.25,21.25,0,0,0,0,18.67A.72.72,0,0,1,460.71,63.62Z" fill="none" stroke="#003a50" stroke-miterlimit="10"/><path d="M456.29,63.62a.79.79,0,0,1-.45.71.78.78,0,0,1-1.06-.36,22.8,22.8,0,0,1,0-20.08.79.79,0,1,1,1.42.71,21.34,21.34,0,0,0,0,18.67A.73.73,0,0,1,456.29,63.62Z" fill="none" stroke="#003a50" stroke-miterlimit="10"/><path d="M451.86,63.62a.8.8,0,0,1-1.51.35,22.88,22.88,0,0,1,0-20.08.8.8,0,0,1,1.07-.36.8.8,0,0,1,.36,1.07,21.25,21.25,0,0,0,0,18.67A.72.72,0,0,1,451.86,63.62Z" fill="none" stroke="#003a50" stroke-miterlimit="10"/><path d="M478.4,63.62a.8.8,0,0,1-1.51.35,22.88,22.88,0,0,1,0-20.08.8.8,0,0,1,1.07-.36.8.8,0,0,1,.36,1.07,21.25,21.25,0,0,0,0,18.67A.72.72,0,0,1,478.4,63.62Z" fill="none" stroke="#003a50" stroke-miterlimit="10"/><path d="M482.83,63.62a.79.79,0,0,1-.45.71.78.78,0,0,1-1.06-.36,22.8,22.8,0,0,1,0-20.08.79.79,0,1,1,1.42.71,21.34,21.34,0,0,0,0,18.67A.73.73,0,0,1,482.83,63.62Z" fill="none" stroke="#003a50" stroke-miterlimit="10"/></g><line x1="487.59" y1="53.93" x2="406.2" y2="53.93" fill="none" stroke="#003a50" stroke-miterlimit="10"/><rect x="301.2" y="353.86" width="90.71" height="34.02" fill="none" stroke="#003a50" stroke-miterlimit="10"/><g clip-path="url(#clip-path)"><path d="M343.77,383.05a1,1,0,0,1-.56.9,1,1,0,0,1-1.34-.45,28.77,28.77,0,0,1,0-25.26,1,1,0,1,1,1.8.88,26.72,26.72,0,0,0,0,23.49A1,1,0,0,1,343.77,383.05Z" fill="none" stroke="#003a50" stroke-miterlimit="10"/><path d="M338.21,383.05a1,1,0,0,1-1.9.45,28.77,28.77,0,0,1,0-25.26,1,1,0,1,1,1.8.88,26.72,26.72,0,0,0,0,23.49A1,1,0,0,1,338.21,383.05Z" fill="none" stroke="#003a50" stroke-miterlimit="10"/><path d="M332.64,383.05a1,1,0,0,1-.56.9,1,1,0,0,1-1.34-.45,28.77,28.77,0,0,1,0-25.26,1,1,0,1,1,1.8.88,26.72,26.72,0,0,0,0,23.49A1,1,0,0,1,332.64,383.05Z" fill="none" stroke="#003a50" stroke-miterlimit="10"/><path d="M327.08,383.05a1,1,0,0,1-.56.9,1,1,0,0,1-1.35-.45,28.77,28.77,0,0,1,0-25.26,1,1,0,0,1,1.34-.46,1,1,0,0,1,.46,1.34,26.81,26.81,0,0,0,0,23.49A.9.9,0,0,1,327.08,383.05Z" fill="none" stroke="#003a50" stroke-miterlimit="10"/><path d="M321.51,383.05a1,1,0,0,1-.56.9,1,1,0,0,1-1.34-.45,28.77,28.77,0,0,1,0-25.26,1,1,0,1,1,1.8.88,26.72,26.72,0,0,0,0,23.49A1,1,0,0,1,321.51,383.05Z" fill="none" stroke="#003a50" stroke-miterlimit="10"/><path d="M316,383.05a1,1,0,0,1-.56.9,1,1,0,0,1-1.35-.45,28.77,28.77,0,0,1,0-25.26,1,1,0,0,1,1.34-.46,1,1,0,0,1,.46,1.34,26.81,26.81,0,0,0,0,23.49A.9.9,0,0,1,316,383.05Z" fill="none" stroke="#003a50" stroke-miterlimit="10"/><path d="M349.34,383.05a1,1,0,0,1-1.9.45,28.77,28.77,0,0,1,0-25.26,1,1,0,1,1,1.8.88,26.72,26.72,0,0,0,0,23.49A1,1,0,0,1,349.34,383.05Z" fill="none" stroke="#003a50" stroke-miterlimit="10"/><path d="M354.91,383.05a1,1,0,0,1-.56.9,1,1,0,0,1-1.35-.45,28.77,28.77,0,0,1,0-25.26,1,1,0,0,1,1.34-.46,1,1,0,0,1,.46,1.34,26.81,26.81,0,0,0,0,23.49A1,1,0,0,1,354.91,383.05Z" fill="none" stroke="#003a50" stroke-miterlimit="10"/></g><line x1="391.91" y1="370.87" x2="301.2" y2="370.87" fill="none" stroke="#003a50" stroke-miterlimit="10"/><rect x="54.9" y="329.46" width="88.65" height="34.02" fill="none" stroke="#003a50" stroke-miterlimit="10"/><g clip-path="url(#clip-path)"><path d="M97.47,358.65a1,1,0,0,1-1.9.45,28.77,28.77,0,0,1,0-25.26,1,1,0,1,1,1.8.88,26.72,26.72,0,0,0,0,23.49A1,1,0,0,1,97.47,358.65Z" fill="none" stroke="#003a50" stroke-miterlimit="10"/><path d="M91.91,358.65a1,1,0,0,1-.56.9A1,1,0,0,1,90,359.1a28.77,28.77,0,0,1,0-25.26,1,1,0,0,1,1.34-.46,1,1,0,0,1,.46,1.34,26.81,26.81,0,0,0,0,23.49A1,1,0,0,1,91.91,358.65Z" fill="none" stroke="#003a50" stroke-miterlimit="10"/><path d="M86.34,358.65a1,1,0,0,1-1.9.45,28.77,28.77,0,0,1,0-25.26,1,1,0,1,1,1.8.88,26.72,26.72,0,0,0,0,23.49A1,1,0,0,1,86.34,358.65Z" fill="none" stroke="#003a50" stroke-miterlimit="10"/><path d="M80.77,358.65a1,1,0,0,1-.56.9,1,1,0,0,1-1.34-.45,28.77,28.77,0,0,1,0-25.26,1,1,0,1,1,1.8.88,26.72,26.72,0,0,0,0,23.49A1,1,0,0,1,80.77,358.65Z" fill="none" stroke="#003a50" stroke-miterlimit="10"/><path d="M75.21,358.65a1,1,0,0,1-1.9.45,28.77,28.77,0,0,1,0-25.26,1,1,0,1,1,1.8.88,26.72,26.72,0,0,0,0,23.49A1,1,0,0,1,75.21,358.65Z" fill="none" stroke="#003a50" stroke-miterlimit="10"/><path d="M69.64,358.65a1,1,0,0,1-.56.9,1,1,0,0,1-1.34-.45,28.77,28.77,0,0,1,0-25.26,1,1,0,1,1,1.8.88,26.72,26.72,0,0,0,0,23.49A1,1,0,0,1,69.64,358.65Z" fill="none" stroke="#003a50" stroke-miterlimit="10"/><path d="M103,358.65a1,1,0,0,1-.56.9,1,1,0,0,1-1.35-.45,28.77,28.77,0,0,1,0-25.26,1,1,0,0,1,1.34-.46,1,1,0,0,1,.46,1.34,26.81,26.81,0,0,0,0,23.49A1,1,0,0,1,103,358.65Z" fill="none" stroke="#003a50" stroke-miterlimit="10"/><path d="M108.6,358.65a1,1,0,0,1-1.9.45,28.77,28.77,0,0,1,0-25.26,1,1,0,1,1,1.8.88,26.72,26.72,0,0,0,0,23.49A1,1,0,0,1,108.6,358.65Z" fill="none" stroke="#003a50" stroke-miterlimit="10"/></g><line x1="143.55" y1="346.47" x2="54.9" y2="346.47" fill="none" stroke="#003a50" stroke-miterlimit="10"/><rect x="109.67" y="363.61" width="34.02" height="41.8" fill="none" stroke="#003a50" stroke-miterlimit="10"/><g clip-path="url(#clip-path)"><path d="M138.87,381.65a1,1,0,0,1,.44,1.9,28.77,28.77,0,0,1-25.26,0,1,1,0,1,1,.88-1.8,26.74,26.74,0,0,0,23.5,0A1,1,0,0,1,138.87,381.65Z" fill="none" stroke="#003a50" stroke-miterlimit="10"/><path d="M138.87,387.21a1,1,0,0,1,.44,1.91,28.77,28.77,0,0,1-25.26,0,1,1,0,0,1-.46-1.34,1,1,0,0,1,1.34-.46,26.83,26.83,0,0,0,23.5,0A.87.87,0,0,1,138.87,387.21Z" fill="none" stroke="#003a50" stroke-miterlimit="10"/><path d="M138.87,392.78a1,1,0,0,1,.9.56,1,1,0,0,1-.46,1.34,28.77,28.77,0,0,1-25.26,0,1,1,0,1,1,.88-1.8,26.74,26.74,0,0,0,23.5,0A1,1,0,0,1,138.87,392.78Z" fill="none" stroke="#003a50" stroke-miterlimit="10"/><path d="M138.87,398.34a1,1,0,0,1,.44,1.91,28.77,28.77,0,0,1-25.26,0,1,1,0,0,1-.46-1.34,1,1,0,0,1,1.34-.46,26.83,26.83,0,0,0,23.5,0A.87.87,0,0,1,138.87,398.34Z" fill="none" stroke="#003a50" stroke-miterlimit="10"/></g><line x1="126.68" y1="363.47" x2="126.68" y2="405.42" fill="none" stroke="#003a50" stroke-miterlimit="10"/><g clip-path="url(#clip-path)"><rect x="363.02" y="-34.34" width="153.07" height="34.02" fill="none" stroke="#003a50" stroke-miterlimit="10"/><path d="M263.53,521.17a14.78,14.78,0,0,0,15.93-23.38,1.14,1.14,0,1,0-1.77,1.43,12.47,12.47,0,0,1-14.16,19.5Z" fill="none" stroke="#003a50" stroke-miterlimit="10"/><rect x="229.51" y="466.92" width="34.02" height="84.03" rx="3.31" fill="none" stroke="#003a50" stroke-miterlimit="10"/><path d="M233.23,548.4a1.4,1.4,0,0,0,1.4-1.4V470.86a1.4,1.4,0,0,0-2.8,0V547a1.4,1.4,0,0,0,1.4,1.4" fill="none" stroke="#003a50" stroke-miterlimit="10"/><path d="M247.81,480.59a5.51,5.51,0,1,1,0-7.79A5.51,5.51,0,0,1,247.81,480.59Z" fill="none" stroke="#003a50" stroke-miterlimit="10"/><path d="M248.18,480.18c-1-.1-2.05.28-3-.7-1.46-1.46.08-3-1.38-4.47s-3,.08-4.47-1.38" fill="none" stroke="#003a50" stroke-miterlimit="10"/><path d="M263.53,516.46a10.63,10.63,0,1,0,0-19.59Z" fill="none" stroke="#003a50" stroke-miterlimit="10"/></g><rect x="200.91" y="553.55" width="22.68" height="22.68" fill="none" stroke="#003a50" stroke-miterlimit="10"/><g clip-path="url(#clip-path)"><path d="M218.75,571.39a9.2,9.2,0,1,1,0-13A9.2,9.2,0,0,1,218.75,571.39Z" fill="none" stroke="#003a50" stroke-miterlimit="10"/><path d="M219.37,570.7c-1.69-.17-3.41.48-5.06-1.17-2.44-2.44.14-5-2.3-7.45s-5,.13-7.46-2.31" fill="none" stroke="#003a50" stroke-miterlimit="10"/></g><rect x="200.91" y="412.41" width="22.68" height="22.68" fill="none" stroke="#003a50" stroke-miterlimit="10"/><g clip-path="url(#clip-path)"><path d="M218.75,430.26a9.2,9.2,0,1,1,0-13A9.2,9.2,0,0,1,218.75,430.26Z" fill="none" stroke="#003a50" stroke-miterlimit="10"/><path d="M219.37,429.56c-1.69-.16-3.41.49-5.06-1.16-2.44-2.44.14-5-2.3-7.46s-5,.14-7.46-2.3" fill="none" stroke="#003a50" stroke-miterlimit="10"/></g><rect x="110.2" y="442.56" width="113.39" height="102.05" fill="none" stroke="#003a50" stroke-miterlimit="10"/><g clip-path="url(#clip-path)"><path d="M119.94,534.61V452.56a2.08,2.08,0,0,1,2.08-2.08h67.64V536.7H122A2.09,2.09,0,0,1,119.94,534.61Z" fill="none" stroke="#003a50" stroke-miterlimit="10"/><rect x="193.28" y="450.22" width="22.88" height="42.5" rx="1.98" fill="none" stroke="#003a50" stroke-miterlimit="10"/><rect x="193.28" y="494.45" width="22.88" height="42.5" rx="1.98" fill="none" stroke="#003a50" stroke-miterlimit="10"/></g><line x1="175.81" y1="536.95" x2="175.81" y2="450.22" fill="none" stroke="#003a50" stroke-miterlimit="10"/><g clip-path="url(#clip-path)"><rect x="406.25" y="415.52" width="22.68" height="22.68" fill="none" stroke="#003a50" stroke-miterlimit="10"/><path d="M424.09,433.36a9.2,9.2,0,1,1,0-13A9.2,9.2,0,0,1,424.09,433.36Z" fill="none" stroke="#003a50" stroke-miterlimit="10"/><path d="M424.71,432.67c-1.69-.17-3.41.48-5.06-1.17-2.44-2.43.14-5-2.3-7.45s-5,.14-7.46-2.3" fill="none" stroke="#003a50" stroke-miterlimit="10"/><rect x="406.25" y="556.66" width="22.68" height="22.68" fill="none" stroke="#003a50" stroke-miterlimit="10"/><path d="M424.09,574.5a9.2,9.2,0,1,1,0-13A9.19,9.19,0,0,1,424.09,574.5Z" fill="none" stroke="#003a50" stroke-miterlimit="10"/><path d="M424.71,573.81c-1.69-.17-3.41.48-5.06-1.18-2.44-2.43.14-5-2.3-7.45s-5,.14-7.46-2.3" fill="none" stroke="#003a50" stroke-miterlimit="10"/><rect x="406.25" y="445.67" width="113.38" height="102.05" fill="none" stroke="#003a50" stroke-miterlimit="10"/><path d="M509.9,455.67v82.05a2.09,2.09,0,0,1-2.09,2.08H440.17V453.59h67.64A2.09,2.09,0,0,1,509.9,455.67Z" fill="none" stroke="#003a50" stroke-miterlimit="10"/><rect x="413.68" y="497.56" width="22.88" height="42.5" rx="1.98" fill="none" stroke="#003a50" stroke-miterlimit="10"/><rect x="413.68" y="453.33" width="22.88" height="42.5" rx="1.98" fill="none" stroke="#003a50" stroke-miterlimit="10"/></g><rect x="363.3" y="180.66" width="34.02" height="34.02" fill="none" stroke="#003a50" stroke-miterlimit="10"/><line x1="370.33" y1="197.67" x2="390.29" y2="197.67" fill="none" stroke="#003a50" stroke-miterlimit="10"/><line x1="380.31" y1="187.69" x2="380.31" y2="207.65" fill="none" stroke="#003a50" stroke-miterlimit="10"/><line x1="373.25" y1="190.61" x2="387.36" y2="204.72" fill="none" stroke="#003a50" stroke-miterlimit="10"/><line x1="387.37" y1="190.61" x2="373.25" y2="204.72" fill="none" stroke="#003a50" stroke-miterlimit="10"/><g clip-path="url(#clip-path)"><path d="M390.33,76.67V53.32A3.35,3.35,0,0,0,387,50H372a3.36,3.36,0,0,0-3.36,3.35V76.67A3.36,3.36,0,0,0,372,80h15A3.35,3.35,0,0,0,390.33,76.67Z" fill="none" stroke="#003a50" stroke-miterlimit="10"/><circle cx="383.29" cy="65" r="2.46" transform="translate(176.56 394.24) rotate(-67.5)" fill="none" stroke="#003a50" stroke-miterlimit="10"/></g><line x1="382.53" y1="65" x2="396.15" y2="65" fill="none" stroke="#003a50" stroke-miterlimit="10"/><line x1="396.15" y1="58.19" x2="396.15" y2="71.81" fill="none" stroke="#003a50" stroke-miterlimit="10"/><g clip-path="url(#clip-path)"><path d="M113.71,60.41v-41H68V62.63H111.5A2.21,2.21,0,0,0,113.71,60.41Z" fill="none" stroke="#003a50" stroke-miterlimit="10"/><path d="M159.58,60.64V19.38H113.81V60.64a2,2,0,0,0,2,2H157.6A2,2,0,0,0,159.58,60.64Z" fill="none" stroke="#003a50" stroke-miterlimit="10"/><path d="M67.94,62.63a3.1,3.1,0,0,1-3.32,2.82H60.39a3.1,3.1,0,0,1-3.32-2.82V14.43H170.46V62.2A3.12,3.12,0,0,1,167.13,65H162.9a3.11,3.11,0,0,1-3.32-2.83V19.38H67.94Z" fill="none" stroke="#003a50" stroke-miterlimit="10"/></g><rect x="67.95" y="19.38" width="91.64" height="9.25" fill="none" stroke="#003a50" stroke-miterlimit="10"/><rect x="307.72" y="180.58" width="55.58" height="34.35" fill="none" stroke="#003a50" stroke-miterlimit="10"/><g clip-path="url(#clip-path)"><path d="M283.11,384.39V388a45.35,45.35,0,0,1-45.35,45.35v-49" fill="none" stroke="#003a50" stroke-miterlimit="10" stroke-width="1.6"/><path d="M226.63,335.42h-3.42a43,43,0,0,0-43,43h46.39" fill="none" stroke="#003a50" stroke-miterlimit="10" stroke-width="1.6"/><path d="M298.17,281.26H295.1A38.71,38.71,0,0,0,256.38,320h41.79" fill="none" stroke="#003a50" stroke-miterlimit="10" stroke-width="1.6"/><path d="M571.76,444.84H568.3a43.48,43.48,0,0,1-43.48-43.48h46.94" fill="none" stroke="#003a50" stroke-miterlimit="10" stroke-width="1.6"/><path d="M514.27,279.55h3.12a39.34,39.34,0,0,1,39.34,39.34H514.27" fill="none" stroke="#003a50" stroke-miterlimit="10" stroke-width="1.6"/><path d="M581.09,221.39v-4.06a51.13,51.13,0,0,1,51.12-51.13v55.19" fill="none" stroke="#003a50" stroke-miterlimit="10" stroke-width="1.6"/><path d="M527.49,128.17h4.07a51.13,51.13,0,0,1,51.13,51.13h-55.2" fill="none" stroke="#003a50" stroke-miterlimit="10" stroke-width="1.6"/><path d="M191,324.69v3.07a38.59,38.59,0,0,1-38.59,38.59V324.69" fill="none" stroke="#003a50" stroke-miterlimit="10" stroke-width="1.6"/><line x1="468.92" y1="121.1" x2="414.43" y2="121.1" fill="none" stroke="#003a50" stroke-miterlimit="10" stroke-width="1.6"/><polygon points="55.32 319 55.32 414.74 5.99 414.74 17.65 319 55.32 319" fill="#003a50" fill-rule="evenodd"/><polygon points="603.65 582.76 507.91 582.76 507.91 632.09 603.65 620.43 603.65 582.76" fill="#003a50" fill-rule="evenodd"/><rect x="5.99" y="-44.2" width="49.33" height="94.57" fill="#003a50"/><rect x="389.9" y="214.95" width="191.83" height="16.32" fill="#003a50"/><rect x="389.9" y="223.11" width="16.32" height="372.48" fill="#003a50"/><rect x="516.4" y="178.43" width="16.32" height="40.5" fill="#003a50"/><rect x="50.15" y="202.3" width="74.57" height="19" fill="#003a50"/><rect x="516.4" y="105.11" width="16.32" height="23.98" fill="#003a50"/><rect x="516.4" y="-39.89" width="16.32" height="50.48" fill="#003a50"/><rect x="488.15" y="105.11" width="40.56" height="11.86" fill="#003a50"/><rect x="488.15" y="8.11" width="13.08" height="108.53" fill="#003a50"/><rect x="51.32" y="-0.04" width="481.33" height="13.79" fill="#003a50"/><rect x="20.32" y="139.67" width="35" height="90.82" fill="#003a50"/><rect x="6.99" y="204.59" width="44.33" height="25.9" fill="#003a50"/><rect x="20.32" y="502.3" width="35" height="114.12" fill="#003a50"/><rect x="24.32" y="582.67" width="38.17" height="33.75" fill="#003a50"/><rect x="204.11" y="582.67" width="96" height="41.92" fill="#003a50"/><rect x="388.7" y="582.67" width="27.03" height="46.75" fill="#003a50"/><rect x="392.7" y="582.67" width="27.03" height="23.38" fill="#003a50"/><rect x="514.24" y="576.51" width="82.83" height="27.12" fill="#003a50"/><rect x="213.15" y="576.51" width="78.17" height="27.12" fill="#003a50"/><rect x="6.99" y="603.09" width="25.9" height="25.9" fill="#003a50"/><rect x="120.23" y="214.93" width="109" height="6.38" fill="#003a50"/><rect x="222.86" y="219.61" width="6.38" height="116.6" fill="#003a50"/><rect x="222.86" y="377.57" width="6.38" height="212.5" fill="#003a50"/><rect x="200.53" y="219.61" width="6.38" height="22.98" fill="#003a50"/><rect x="202.39" y="236.21" width="22.98" height="6.38" fill="#003a50"/><rect x="190.4" y="323.71" width="33.79" height="6.38" fill="#003a50"/><rect x="106.08" y="405.61" width="41.2" height="3.69" fill="#003a50"/><rect x="143.76" y="328.12" width="3.69" height="80.64" fill="#003a50"/><rect x="49.45" y="405.61" width="19.39" height="3.69" fill="#003a50"/><rect x="50.15" y="323.71" width="103.25" height="6.38" fill="#003a50"/><rect x="282.32" y="381.65" width="18" height="6.38" fill="#003a50"/><rect x="298.17" y="348.81" width="94.48" height="6.38" fill="#003a50"/><rect x="226.05" y="381.65" width="12.54" height="6.38" fill="#003a50"/><rect x="294.55" y="214.92" width="6.38" height="67.17" fill="#003a50"/><rect x="294.55" y="319.14" width="6.38" height="68.88" fill="#003a50"/><rect x="399.49" y="110.59" width="42.19" height="6.38" fill="#003a50"/><rect x="399.6" y="10.26" width="6.38" height="106.38" fill="#003a50"/><rect x="402.79" y="33.81" width="91.1" height="6.38" fill="#003a50"/><rect x="294.55" y="214.93" width="99.68" height="6.38" fill="#003a50"/><rect x="294.55" y="250.55" width="99.68" height="6.38" fill="#003a50"/><rect x="338.72" y="214.92" width="6.38" height="38.25" fill="#003a50"/><rect x="478.73" y="110.59" width="12.54" height="6.38" fill="#003a50"/><rect x="568.13" y="444.05" width="6.38" height="136.12" fill="#003a50"/><rect x="568.13" y="347.93" width="6.38" height="54.19" fill="#003a50"/><rect x="509.32" y="230.09" width="6.38" height="50.21" fill="#003a50"/><rect x="509.32" y="318.05" width="6.38" height="32.88" fill="#003a50"/><rect x="571.32" y="321.08" width="3.19" height="29.85" fill="#003a50"/><rect x="571.32" y="231.25" width="3.19" height="36.33" fill="#003a50"/><rect x="404.73" y="249.99" width="107.78" height="6.38" fill="#003a50"/><rect x="473.18" y="227.37" width="6.38" height="26.37" fill="#003a50"/><rect x="404.73" y="348.11" width="166.58" height="6.38" fill="#003a50"/><rect x="526.73" y="11.67" width="5.98" height="101.5" fill="#003a50"/><line x1="573.78" y1="321.43" x2="576.61" y2="321.43" fill="none" stroke="#003a50" stroke-miterlimit="10"/><line x1="582.36" y1="321.43" x2="636.96" y2="321.43" fill="none" stroke="#003a50" stroke-miterlimit="10" stroke-dasharray="5.75 5.75"/><line x1="226.81" y1="215.46" x2="303.55" y2="215.46" fill="none" stroke="#003a50" stroke-miterlimit="10" stroke-dasharray="5.67 5.67"/><line x1="399.54" y1="180.94" x2="399.54" y2="109.73" fill="none" stroke="#003a50" stroke-miterlimit="10" stroke-dasharray="5.67 5.67"/></g><g clip-path="url(#clip-path)"><path d="M471,304.38h-5.82v-1.85H474v1.85L469.47,307v.07h1.28a3.9,3.9,0,0,1,2.79,1,3.52,3.52,0,0,1,1,2.67,3.34,3.34,0,0,1-1.32,2.82,7,7,0,0,1-7.25,0,3.37,3.37,0,0,1-1.32-2.85v-.33h2.1v.33c0,1.36.95,2,2.84,2s2.85-.67,2.85-2-.95-2-2.85-2h-3.26v-1.67l4.58-2.68Z" fill="#003a50"/><path d="M476.7,314.31a1.15,1.15,0,0,1,0-1.61,1.4,1.4,0,0,1,1.73,0,1.17,1.17,0,0,1,0,1.61,1.4,1.4,0,0,1-1.73,0Z" fill="#003a50"/><path d="M486.8,304.38H481v-1.85h8.86v1.85L485.32,307v.07h1.27a3.91,3.91,0,0,1,2.8,1,3.52,3.52,0,0,1,1.05,2.67,3.32,3.32,0,0,1-1.33,2.82,6.93,6.93,0,0,1-7.24,0,3.35,3.35,0,0,1-1.33-2.85v-.33h2.11v.33c0,1.36,1,2,2.84,2s2.84-.67,2.84-2-.95-2-2.84-2h-3.26v-1.67l4.57-2.68Z" fill="#003a50"/><path d="M547.3,280.9h-9.93v-1.56a2.74,2.74,0,0,1,.58-1.74,4,4,0,0,1,1.45-1.2c.5-.26,1.12-.54,1.87-.86s1.32-.56,1.87-.78a4.21,4.21,0,0,0,1.45-.91,1.8,1.8,0,0,0,.57-1.3c0-1.26-.89-1.89-2.66-1.89s-2.68.72-2.68,2.16v.41h-2.11v-.41a3.65,3.65,0,0,1,1.26-3,5.45,5.45,0,0,1,3.52-1,5.65,5.65,0,0,1,3.51,1,3.27,3.27,0,0,1,1.27,2.75,3.17,3.17,0,0,1-.56,1.83,4.29,4.29,0,0,1-1.4,1.31c-.6.34-1.21.65-1.84.93s-1.23.52-1.82.74a5.33,5.33,0,0,0-1.41.75,1.23,1.23,0,0,0-.56.95h7.62Z" fill="#003a50"/><path d="M549.4,280.77a1.17,1.17,0,0,1,0-1.61,1.25,1.25,0,0,1,.88-.3,1.22,1.22,0,0,1,.86.3,1.17,1.17,0,0,1,0,1.61,1.22,1.22,0,0,1-.86.3A1.25,1.25,0,0,1,549.4,280.77Z" fill="#003a50"/><path d="M563.18,280.9h-9.93v-1.56a2.74,2.74,0,0,1,.58-1.74,4,4,0,0,1,1.45-1.2c.49-.26,1.12-.54,1.86-.86l1.88-.78a4.21,4.21,0,0,0,1.45-.91,1.8,1.8,0,0,0,.57-1.3q0-1.89-2.67-1.89t-2.67,2.16v.41h-2.11v-.41a3.65,3.65,0,0,1,1.26-3,5.45,5.45,0,0,1,3.52-1,5.65,5.65,0,0,1,3.51,1,3.27,3.27,0,0,1,1.27,2.75,3.17,3.17,0,0,1-.56,1.83,4.29,4.29,0,0,1-1.4,1.31c-.6.34-1.21.65-1.84.93s-1.23.52-1.82.74a5.18,5.18,0,0,0-1.41.75,1.23,1.23,0,0,0-.56.95h7.62Z" fill="#003a50"/><path d="M112.82,158.15h-9.94v-1.56a2.75,2.75,0,0,1,.59-1.74,4,4,0,0,1,1.44-1.2c.5-.25,1.12-.54,1.87-.86s1.32-.56,1.88-.77a4.09,4.09,0,0,0,1.44-.92,1.78,1.78,0,0,0,.57-1.3c0-1.26-.88-1.89-2.66-1.89s-2.68.72-2.68,2.16v.41h-2.1v-.41a3.62,3.62,0,0,1,1.26-3,5.34,5.34,0,0,1,3.51-1,5.61,5.61,0,0,1,3.51,1,3.29,3.29,0,0,1,1.27,2.75,3.11,3.11,0,0,1-.55,1.83,4.31,4.31,0,0,1-1.41,1.31c-.59.34-1.21.65-1.83.93s-1.24.52-1.83.75a5.55,5.55,0,0,0-1.4.74,1.25,1.25,0,0,0-.57,1h7.63Z" fill="#003a50"/><path d="M124.78,158.15h-9.93v-1.56a2.8,2.8,0,0,1,.58-1.74,4,4,0,0,1,1.45-1.2c.5-.25,1.12-.54,1.87-.86s1.32-.56,1.87-.77a4.14,4.14,0,0,0,1.45-.92,1.78,1.78,0,0,0,.57-1.3c0-1.26-.89-1.89-2.66-1.89s-2.68.72-2.68,2.16v.41h-2.11v-.41a3.62,3.62,0,0,1,1.26-3,5.39,5.39,0,0,1,3.52-1,5.65,5.65,0,0,1,3.51,1,3.29,3.29,0,0,1,1.27,2.75,3.12,3.12,0,0,1-.56,1.83,4.18,4.18,0,0,1-1.4,1.31q-.9.51-1.83.93c-.63.28-1.24.52-1.83.75a5.38,5.38,0,0,0-1.4.74,1.25,1.25,0,0,0-.57,1h7.62Z" fill="#003a50"/><path d="M126.89,158a1,1,0,0,1-.33-.8,1,1,0,0,1,.33-.81,1.4,1.4,0,0,1,1.73,0,1,1,0,0,1,.32.81,1,1,0,0,1-.32.8,1.4,1.4,0,0,1-1.73,0Z" fill="#003a50"/><path d="M139.47,157.39a7.73,7.73,0,0,1-7.37,0,3,3,0,0,1-1.37-2.56,2.7,2.7,0,0,1,.26-1.16,2.37,2.37,0,0,1,.65-.85A4,4,0,0,1,133,152l.26-.06v-.09a3,3,0,0,1-.77-.3,2.37,2.37,0,0,1-.66-.44,2.2,2.2,0,0,1-.54-.75,2.42,2.42,0,0,1-.23-1,2.79,2.79,0,0,1,1.26-2.38,5.74,5.74,0,0,1,3.42-.9,5.81,5.81,0,0,1,3.43.9,2.81,2.81,0,0,1,1.25,2.38,2.58,2.58,0,0,1-.22,1,1.9,1.9,0,0,1-.56.74,3.63,3.63,0,0,1-1.19.69l-.23,0V152a1.44,1.44,0,0,1,.29.06,6.35,6.35,0,0,1,.62.27,3.68,3.68,0,0,1,.77.51,2.77,2.77,0,0,1,.89,2A3,3,0,0,1,139.47,157.39ZM133.68,156a4.83,4.83,0,0,0,4.2,0,1.59,1.59,0,0,0,0-2.69,4.93,4.93,0,0,0-4.2,0,1.51,1.51,0,0,0-.74,1.35A1.52,1.52,0,0,0,133.68,156Zm-.37-6.52a1.37,1.37,0,0,0,.65,1.19,4.07,4.07,0,0,0,3.64,0,1.42,1.42,0,0,0,0-2.39,3.94,3.94,0,0,0-3.62,0A1.36,1.36,0,0,0,133.31,149.52Z" fill="#003a50"/><path d="M427.83,156.08H422v-1.84h8.86v1.84l-4.52,2.65v.07h1.28a3.9,3.9,0,0,1,2.79,1,3.52,3.52,0,0,1,1,2.67,3.32,3.32,0,0,1-1.33,2.82,7,7,0,0,1-7.24,0,3.39,3.39,0,0,1-1.33-2.86v-.32h2.11v.32c0,1.37.95,2,2.84,2s2.84-.67,2.84-2-.94-2-2.84-2h-3.26v-1.67l4.58-2.68Z" fill="#003a50"/><path d="M433.56,166a1,1,0,0,1-.32-.8,1.07,1.07,0,0,1,.32-.81,1.25,1.25,0,0,1,.88-.3,1.23,1.23,0,0,1,.86.3,1.07,1.07,0,0,1,.32.81,1,1,0,0,1-.32.8,1.23,1.23,0,0,1-.86.3A1.25,1.25,0,0,1,433.56,166Z" fill="#003a50"/><path d="M446.15,165.38a7.77,7.77,0,0,1-7.37,0,3,3,0,0,1-1.37-2.56,2.71,2.71,0,0,1,.26-1.17,2.37,2.37,0,0,1,.65-.85,3.89,3.89,0,0,1,1.4-.77L440,160v-.09a3.38,3.38,0,0,1-.77-.29,2.61,2.61,0,0,1-.66-.44,2.24,2.24,0,0,1-.54-.76,2.39,2.39,0,0,1-.23-1A2.8,2.8,0,0,1,439,155a5.74,5.74,0,0,1,3.42-.9,5.81,5.81,0,0,1,3.43.9,2.82,2.82,0,0,1,1.24,2.38,2.5,2.5,0,0,1-.22,1.05,1.87,1.87,0,0,1-.55.74,3.59,3.59,0,0,1-1.19.68l-.23.05V160l.28.07a4,4,0,0,1,.63.26,4.67,4.67,0,0,1,.77.51,2.82,2.82,0,0,1,.61.82,2.58,2.58,0,0,1,.28,1.2A3,3,0,0,1,446.15,165.38ZM440.36,164a3.79,3.79,0,0,0,2.1.48,3.94,3.94,0,0,0,2.1-.47,1.6,1.6,0,0,0,0-2.7,4.93,4.93,0,0,0-4.2,0,1.51,1.51,0,0,0-.74,1.35A1.49,1.49,0,0,0,440.36,164Zm-.37-6.52a1.37,1.37,0,0,0,.65,1.19,3.2,3.2,0,0,0,1.82.44,3.24,3.24,0,0,0,1.82-.44,1.43,1.43,0,0,0,0-2.39,3.94,3.94,0,0,0-3.62,0A1.36,1.36,0,0,0,440,157.51Z" fill="#003a50"/><path d="M461.8,91.19h-9.93V89.63a2.8,2.8,0,0,1,.58-1.74,4,4,0,0,1,1.45-1.2c.5-.25,1.12-.54,1.87-.86s1.32-.56,1.87-.77a4.29,4.29,0,0,0,1.45-.92,1.78,1.78,0,0,0,.57-1.3c0-1.26-.89-1.89-2.66-1.89s-2.68.72-2.68,2.16v.41h-2.11v-.41a3.62,3.62,0,0,1,1.26-3,5.39,5.39,0,0,1,3.52-1,5.65,5.65,0,0,1,3.51,1,3.29,3.29,0,0,1,1.27,2.75,3.05,3.05,0,0,1-.56,1.83,4.18,4.18,0,0,1-1.4,1.31q-.9.51-1.83.93c-.63.28-1.24.52-1.83.75a5.38,5.38,0,0,0-1.4.74,1.23,1.23,0,0,0-.57,1h7.62Z" fill="#003a50"/><path d="M463.91,91.06a1,1,0,0,1-.33-.81,1,1,0,0,1,.33-.8,1.4,1.4,0,0,1,1.73,0,1,1,0,0,1,.32.8,1,1,0,0,1-.32.81,1.4,1.4,0,0,1-1.73,0Z" fill="#003a50"/><path d="M469.31,89.66a7.34,7.34,0,0,1,0-8.84,5.71,5.71,0,0,1,8.13,0,7.34,7.34,0,0,1,0,8.84,5.71,5.71,0,0,1-8.13,0Zm6.53-1.39a5.73,5.73,0,0,0,0-6.07,3.15,3.15,0,0,0-4.92,0,5.67,5.67,0,0,0,0,6.07,3.14,3.14,0,0,0,4.92,0Z" fill="#003a50"/><path d="M251.47,343.46h-5.82v-1.84h8.86v1.84L250,346.11v.06h1.28a3.87,3.87,0,0,1,2.79,1,3.49,3.49,0,0,1,1.06,2.66,3.35,3.35,0,0,1-1.33,2.83,7,7,0,0,1-7.24,0,3.36,3.36,0,0,1-1.33-2.86v-.32h2.11v.32c0,1.36.94,2,2.84,2s2.84-.67,2.84-2-.95-2-2.84-2h-3.27v-1.67l4.58-2.68Z" fill="#003a50"/><path d="M257.21,353.39a1,1,0,0,1-.33-.8,1,1,0,0,1,.33-.81,1.4,1.4,0,0,1,1.73,0,1,1,0,0,1,.33.81,1,1,0,0,1-.33.8,1.4,1.4,0,0,1-1.73,0Z" fill="#003a50"/><path d="M264.32,353.52H262l5.41-10h-6.92v-1.87h9.28v1.87Z" fill="#003a50"/><path d="M318.65,314.37h-9.93v-1.56a2.74,2.74,0,0,1,.58-1.74,4,4,0,0,1,1.44-1.2c.5-.25,1.12-.54,1.87-.86s1.32-.56,1.88-.78a4.07,4.07,0,0,0,1.44-.91,1.81,1.81,0,0,0,.58-1.3q0-1.89-2.67-1.89t-2.67,2.16v.41h-2.11v-.41a3.62,3.62,0,0,1,1.26-3,5.36,5.36,0,0,1,3.51-1,5.61,5.61,0,0,1,3.51,1,3.28,3.28,0,0,1,1.28,2.75,3.14,3.14,0,0,1-.56,1.83,4.39,4.39,0,0,1-1.4,1.31c-.6.34-1.21.65-1.84.93s-1.24.52-1.83.74a5.26,5.26,0,0,0-1.4.75,1.23,1.23,0,0,0-.57,1h7.63Z" fill="#003a50"/><path d="M320.75,314.24a1,1,0,0,1-.33-.81,1,1,0,0,1,.33-.8,1.23,1.23,0,0,1,.87-.3,1.2,1.2,0,0,1,.86.3,1,1,0,0,1,.33.8,1,1,0,0,1-.33.81,1.2,1.2,0,0,1-.86.3A1.23,1.23,0,0,1,320.75,314.24Z" fill="#003a50"/><path d="M333.33,313.61a7.73,7.73,0,0,1-7.37,0,3,3,0,0,1-1.37-2.56,2.7,2.7,0,0,1,.26-1.16,2.32,2.32,0,0,1,.66-.86,4,4,0,0,1,1.39-.77l.26-.06v-.1a2.91,2.91,0,0,1-.76-.29,2.68,2.68,0,0,1-.67-.44,2.2,2.2,0,0,1-.54-.75,2.41,2.41,0,0,1-.22-1,2.83,2.83,0,0,1,1.25-2.39,7,7,0,0,1,6.85,0,2.84,2.84,0,0,1,1.25,2.39,2.43,2.43,0,0,1-.22,1,2,2,0,0,1-.55.74,3.54,3.54,0,0,1-1.2.68l-.22,0v.1l.28.06a5.42,5.42,0,0,1,.62.27,3.79,3.79,0,0,1,.77.5,2.72,2.72,0,0,1,.62.83,2.63,2.63,0,0,1,.27,1.19A3,3,0,0,1,333.33,313.61Zm-5.79-1.36a3.75,3.75,0,0,0,2.1.49,3.9,3.9,0,0,0,2.11-.48,1.6,1.6,0,0,0,0-2.69,4.95,4.95,0,0,0-4.21,0,1.58,1.58,0,0,0,0,2.68Zm-.36-6.51a1.36,1.36,0,0,0,.64,1.19,4.09,4.09,0,0,0,3.65,0,1.42,1.42,0,0,0,0-2.39,3.94,3.94,0,0,0-3.62,0A1.38,1.38,0,0,0,327.18,305.74Z" fill="#003a50"/><path d="M115.31,306.39a5,5,0,0,1,3.34,1.06,4.17,4.17,0,0,1,0,6,5.38,5.38,0,0,1-3.54,1.08,5.87,5.87,0,0,1-3.57-1,3.17,3.17,0,0,1-1.28-2.69h2.1a1.55,1.55,0,0,0,.71,1.34,3.57,3.57,0,0,0,2,.48,3.17,3.17,0,0,0,2-.57,2.36,2.36,0,0,0,0-3.39,3.25,3.25,0,0,0-2.07-.58,3.6,3.6,0,0,0-1.92.42,2.13,2.13,0,0,0-.7.63l-.05.13h-2.1v-6.88h8.87v1.85h-6.77v2.95h.05a2.77,2.77,0,0,1,.4-.3,3.11,3.11,0,0,1,.55-.27A5.63,5.63,0,0,1,115.31,306.39Z" fill="#003a50"/><path d="M122,314.24a1,1,0,0,1-.33-.81,1,1,0,0,1,.33-.8,1.4,1.4,0,0,1,1.73,0,1,1,0,0,1,.33.8,1,1,0,0,1-.33.81,1.4,1.4,0,0,1-1.73,0Z" fill="#003a50"/><path d="M129.12,314.37h-2.35l5.42-10h-6.93v-1.88h9.29v1.88Z" fill="#003a50"/><path d="M79.77,386.18H69.84v-1.56a2.79,2.79,0,0,1,.58-1.75,4.08,4.08,0,0,1,1.44-1.19c.5-.26,1.13-.54,1.87-.87l1.88-.77a4.21,4.21,0,0,0,1.45-.91,1.8,1.8,0,0,0,.57-1.3q0-1.89-2.67-1.89t-2.67,2.16v.41H70.18v-.41a3.64,3.64,0,0,1,1.26-3,5.44,5.44,0,0,1,3.51-1,5.66,5.66,0,0,1,3.52,1,3.3,3.3,0,0,1,1.27,2.75,3.17,3.17,0,0,1-.56,1.83,4.16,4.16,0,0,1-1.4,1.3,16.7,16.7,0,0,1-1.84.93c-.62.28-1.23.53-1.82.75a5.18,5.18,0,0,0-1.41.75,1.23,1.23,0,0,0-.56.95h7.62Z" fill="#003a50"/><path d="M81.87,386.05a1.17,1.17,0,0,1,0-1.61,1.41,1.41,0,0,1,1.74,0,1.17,1.17,0,0,1,0,1.61,1.41,1.41,0,0,1-1.74,0Z" fill="#003a50"/><path d="M95.65,386.18H85.72v-1.56a2.79,2.79,0,0,1,.58-1.75,4.08,4.08,0,0,1,1.44-1.19c.5-.26,1.12-.54,1.87-.87l1.88-.77a4.07,4.07,0,0,0,1.44-.91,1.77,1.77,0,0,0,.58-1.3q0-1.89-2.67-1.89t-2.67,2.16v.41H86.06v-.41a3.64,3.64,0,0,1,1.26-3,5.44,5.44,0,0,1,3.51-1,5.66,5.66,0,0,1,3.52,1,3.3,3.3,0,0,1,1.27,2.75,3.17,3.17,0,0,1-.56,1.83,4.25,4.25,0,0,1-1.4,1.3,16.7,16.7,0,0,1-1.84.93c-.63.28-1.23.53-1.83.75a5.26,5.26,0,0,0-1.4.75,1.2,1.2,0,0,0-.56.95h7.62Z" fill="#003a50"/><path d="M110.3,421.49l-2.48,1.95V421.2l2.73-2.27h1.86v11.91H110.3Z" fill="#003a50"/><path d="M116.93,421.49l-2.48,1.95V421.2l2.73-2.27H119v11.91h-2.11Z" fill="#003a50"/><path d="M121.56,430.71a1,1,0,0,1-.32-.81,1.06,1.06,0,0,1,.32-.8,1.25,1.25,0,0,1,.88-.3,1.23,1.23,0,0,1,.86.3,1.06,1.06,0,0,1,.32.8,1,1,0,0,1-.32.81,1.23,1.23,0,0,1-.86.3A1.25,1.25,0,0,1,121.56,430.71Z" fill="#003a50"/><path d="M134.14,430.08a7.71,7.71,0,0,1-7.36,0,2.93,2.93,0,0,1-1.37-2.56,2.56,2.56,0,0,1,.26-1.16,2.51,2.51,0,0,1,.65-.86,4.05,4.05,0,0,1,1.4-.77l.25-.06v-.1a3.05,3.05,0,0,1-.76-.29,2.61,2.61,0,0,1-.66-.44,2.2,2.2,0,0,1-.54-.75,2.42,2.42,0,0,1-.23-1,2.79,2.79,0,0,1,1.26-2.38,5.74,5.74,0,0,1,3.42-.9,5.81,5.81,0,0,1,3.43.9,2.8,2.8,0,0,1,1.24,2.38,2.43,2.43,0,0,1-.22,1,1.87,1.87,0,0,1-.55.74,3.45,3.45,0,0,1-1.2.68l-.22.05v.1a1.39,1.39,0,0,1,.28.06,6.14,6.14,0,0,1,.63.27,4.45,4.45,0,0,1,.77.5,2.88,2.88,0,0,1,.61.83,2.52,2.52,0,0,1,.28,1.19A3,3,0,0,1,134.14,430.08Zm-5.78-1.36a3.7,3.7,0,0,0,2.1.49,3.84,3.84,0,0,0,2.1-.48,1.59,1.59,0,0,0,0-2.69,4.93,4.93,0,0,0-4.2,0,1.58,1.58,0,0,0,0,2.68Zm-.37-6.51a1.38,1.38,0,0,0,.64,1.19,4.09,4.09,0,0,0,3.65,0,1.43,1.43,0,0,0,0-2.39,3.94,3.94,0,0,0-3.62,0A1.36,1.36,0,0,0,128,422.21Z" fill="#003a50"/><path d="M306.61,421.49l-2.49,1.95V421.2l2.74-2.27h1.86v11.91h-2.11Z" fill="#003a50"/><path d="M313.24,421.49l-2.49,1.95V421.2l2.73-2.27h1.86v11.91h-2.1Z" fill="#003a50"/><path d="M317.87,430.71a1,1,0,0,1-.33-.81,1,1,0,0,1,.33-.8,1.23,1.23,0,0,1,.87-.3,1.2,1.2,0,0,1,.86.3,1,1,0,0,1,.33.8,1,1,0,0,1-.33.81,1.2,1.2,0,0,1-.86.3A1.23,1.23,0,0,1,317.87,430.71Z" fill="#003a50"/><path d="M323.28,429.31a7.34,7.34,0,0,1,0-8.84,5.71,5.71,0,0,1,8.13,0,7.38,7.38,0,0,1,0,8.84,5.71,5.71,0,0,1-8.13,0Zm6.52-1.39a5.67,5.67,0,0,0,0-6.07,3.14,3.14,0,0,0-4.91,0,5.67,5.67,0,0,0,0,6.07,3.13,3.13,0,0,0,4.91,0Z" fill="#003a50"/><path d="M472.44,421.49,470,423.44V421.2l2.74-2.27h1.86v11.91h-2.11Z" fill="#003a50"/><path d="M486.94,430.84H477v-1.56a2.8,2.8,0,0,1,.58-1.74,4.12,4.12,0,0,1,1.45-1.2c.5-.25,1.12-.54,1.87-.86s1.32-.56,1.88-.77a4.24,4.24,0,0,0,1.44-.92,1.78,1.78,0,0,0,.57-1.3c0-1.26-.88-1.89-2.66-1.89s-2.68.72-2.68,2.16v.41h-2.11v-.41a3.59,3.59,0,0,1,1.27-3,5.34,5.34,0,0,1,3.51-1,5.63,5.63,0,0,1,3.51,1,3.27,3.27,0,0,1,1.27,2.75,3.14,3.14,0,0,1-.55,1.83,4.42,4.42,0,0,1-1.41,1.31c-.59.34-1.21.65-1.83.93s-1.24.52-1.83.74a5.56,5.56,0,0,0-1.4.75,1.23,1.23,0,0,0-.57,1h7.63Z" fill="#003a50"/><path d="M489,430.71a1,1,0,0,1-.33-.81,1,1,0,0,1,.33-.8,1.4,1.4,0,0,1,1.73,0,1,1,0,0,1,.33.8,1,1,0,0,1-.33.81,1.4,1.4,0,0,1-1.73,0Z" fill="#003a50"/><path d="M501.37,430.84h-2.11v-2.65h-7v-1.84l6.29-7.42h2.79v7.42H503v1.84h-1.59Zm-2.11-4.49V421h-.07l-4.47,5.27v.05Z" fill="#003a50"/><path d="M577.55,421.49l-2.49,1.95V421.2l2.73-2.27h1.87v11.91h-2.11Z" fill="#003a50"/><path d="M590.85,430.08a7.73,7.73,0,0,1-7.37,0,3,3,0,0,1-1.37-2.56,2.7,2.7,0,0,1,.26-1.16,2.41,2.41,0,0,1,.66-.86,4,4,0,0,1,1.39-.77l.26-.06v-.1a2.91,2.91,0,0,1-.76-.29,2.51,2.51,0,0,1-.67-.44,2.2,2.2,0,0,1-.54-.75,2.41,2.41,0,0,1-.22-1,2.8,2.8,0,0,1,1.25-2.38,7,7,0,0,1,6.85,0,2.81,2.81,0,0,1,1.25,2.38,2.58,2.58,0,0,1-.22,1,2,2,0,0,1-.55.74,3.54,3.54,0,0,1-1.2.68l-.22.05v.1l.28.06a5.42,5.42,0,0,1,.62.27,3.79,3.79,0,0,1,.77.5,2.89,2.89,0,0,1,.62.83,2.63,2.63,0,0,1,.27,1.19A3,3,0,0,1,590.85,430.08Zm-5.79-1.36a3.75,3.75,0,0,0,2.1.49,3.84,3.84,0,0,0,2.1-.48,1.59,1.59,0,0,0,0-2.69,4.93,4.93,0,0,0-4.2,0,1.58,1.58,0,0,0,0,2.68Zm-.36-6.51a1.36,1.36,0,0,0,.64,1.19,4.09,4.09,0,0,0,3.65,0,1.38,1.38,0,0,0,.64-1.19A1.36,1.36,0,0,0,589,421a3.94,3.94,0,0,0-3.62,0A1.38,1.38,0,0,0,584.7,422.21Z" fill="#003a50"/></g></svg>