<svg id="Слой_1" data-name="Слой 1" xmlns="http://www.w3.org/2000/svg" xmlns:xlink="http://www.w3.org/1999/xlink" viewBox="0 0 581.1 362.83"><defs><clipPath id="clip-path"><polygon points="0 0.21 0 362.62 581.1 362.62 581.1 190.06 493.54 190.06 493.54 134.55 310.45 134.55 310.45 0.21 0 0.21" fill="none"/></clipPath></defs><polygon points="49.88 7.33 51.47 349.35 513.26 348.34 513.57 309.05 513.57 259.8 515.84 190.06 493.54 190.06 493.54 134.55 492.89 134.55 492.89 135.7 308.39 139.17 309.39 6.31 49.88 7.33" fill="#fff"/><polygon points="506.72 360.61 506.72 360.92 50.51 360.92 50.51 362.62 526.89 362.62 526.89 360.61 506.72 360.61" fill="#fff"/><g clip-path="url(#clip-path)"><rect x="26.86" y="-1239.64" width="1115.44" height="2194.74" fill="none" stroke="#003a50" stroke-miterlimit="10"/><polygon points="52.48 -153.65 52.48 932.14 1118.96 932.14 1118.96 -1215.19 52.48 -1215.34 52.48 -222.44 52.48 -153.65" fill="none" stroke="#003a50" stroke-miterlimit="10"/></g><rect x="36.59" y="215.52" width="4.55" height="89.48" fill="#fff"/><rect x="36.59" y="215.52" width="4.55" height="89.48" fill="none" stroke="#003a50" stroke-miterlimit="10"/><line x1="38.86" y1="215.52" x2="38.86" y2="305" fill="none" stroke="#003a50" stroke-miterlimit="10"/><rect x="36.59" y="215.52" width="4.55" height="4.52" fill="#fff"/><rect x="36.59" y="215.52" width="4.55" height="4.52" fill="none" stroke="#003a50" stroke-miterlimit="10"/><rect x="36.59" y="300.49" width="4.55" height="4.52" fill="#fff"/><rect x="36.59" y="300.49" width="4.55" height="4.52" fill="none" stroke="#003a50" stroke-miterlimit="10"/><rect x="36.59" y="258.01" width="4.55" height="4.52" fill="#fff"/><rect x="36.59" y="258.01" width="4.55" height="4.52" fill="none" stroke="#003a50" stroke-miterlimit="10"/><rect x="36.59" y="36.37" width="4.55" height="88.23" fill="#fff"/><rect x="36.59" y="36.37" width="4.55" height="88.23" fill="none" stroke="#003a50" stroke-miterlimit="10"/><line x1="38.86" y1="36.37" x2="38.86" y2="124.6" fill="none" stroke="#003a50" stroke-miterlimit="10"/><rect x="36.59" y="36.37" width="4.55" height="4.45" fill="#fff"/><rect x="36.59" y="36.37" width="4.55" height="4.45" fill="none" stroke="#003a50" stroke-miterlimit="10"/><rect x="36.59" y="120.14" width="4.55" height="4.46" fill="#fff"/><rect x="36.59" y="120.14" width="4.55" height="4.46" fill="none" stroke="#003a50" stroke-miterlimit="10"/><rect x="36.59" y="78.26" width="4.55" height="4.45" fill="#fff"/><rect x="36.59" y="78.26" width="4.55" height="4.45" fill="none" stroke="#003a50" stroke-miterlimit="10"/><rect x="371.68" y="151.54" width="42.38" height="92.09" fill="none" stroke="#003a50" stroke-miterlimit="10"/><g clip-path="url(#clip-path)"><rect x="376.66" y="155.34" width="32.03" height="84.24" rx="13.7" fill="none" stroke="#003a50" stroke-miterlimit="10"/><path d="M395,169.91a2.21,2.21,0,1,0-2.2,2.2A2.21,2.21,0,0,0,395,169.91Z" fill="none" stroke="#003a50" stroke-miterlimit="10"/><path d="M459.58,224h28.57V200.87H459.58a11.54,11.54,0,1,0,0,23.08Z" fill="none" stroke="#003a50" stroke-miterlimit="10"/></g><rect x="477.07" y="200.87" width="11.08" height="23.08" fill="none" stroke="#003a50" stroke-miterlimit="10"/><g clip-path="url(#clip-path)"><path d="M472.22,157.51a3.38,3.38,0,0,0,3.13-2.1h1.93l5.1,3.05-2.32,3.77-2.65-1.46v11.82h-11.1V160.77l-2.65,1.46-2.32-3.77,5.14-3.05h2.58A3.43,3.43,0,0,0,472.22,157.51Z" fill="none" stroke="#003a50" stroke-miterlimit="10"/></g><rect x="454.9" y="151.19" width="33.92" height="25.63" fill="none" stroke="#003a50" stroke-miterlimit="10"/><rect x="332.58" y="215.53" width="32.72" height="33.97" fill="none" stroke="#003a50" stroke-miterlimit="10"/><g clip-path="url(#clip-path)"><path d="M353.24,231V219.94h-8.6V231a3.55,3.55,0,0,0,3.54,3.55h1.52A3.55,3.55,0,0,0,353.24,231Z" fill="none" stroke="#003a50" stroke-miterlimit="10"/></g><polyline points="345.47 245.09 348.94 245.09 352.41 245.09" fill="none" stroke="#003a50" stroke-miterlimit="10"/><line x1="348.94" y1="234.53" x2="348.94" y2="245.09" fill="none" stroke="#003a50" stroke-miterlimit="10"/><rect x="277.3" y="151.11" width="31.88" height="31.88" fill="none" stroke="#003a50" stroke-miterlimit="10"/><g clip-path="url(#clip-path)"><path d="M304.86,174.18a4.35,4.35,0,1,1-4.35-4.35A4.34,4.34,0,0,1,304.86,174.18Z" fill="none" stroke="#003a50" stroke-miterlimit="10"/><path d="M290.35,174.18a4.35,4.35,0,1,1-4.35-4.35A4.34,4.34,0,0,1,290.35,174.18Z" fill="none" stroke="#003a50" stroke-miterlimit="10"/><path d="M304.86,160a4.35,4.35,0,1,1-4.35-4.34A4.35,4.35,0,0,1,304.86,160Z" fill="none" stroke="#003a50" stroke-miterlimit="10"/><path d="M290.35,160a4.35,4.35,0,1,1-4.35-4.34A4.35,4.35,0,0,1,290.35,160Z" fill="none" stroke="#003a50" stroke-miterlimit="10"/><rect x="318.98" y="362.58" width="34.02" height="34.02" fill="none" stroke="#003a50" stroke-miterlimit="10"/></g><rect x="83.63" y="159.99" width="102.05" height="17.01" fill="none" stroke="#003a50" stroke-miterlimit="10"/><polygon points="91.65 167.96 134.55 171.48 177.65 167.96 177.65 165.5 91.65 165.5 91.65 167.96" fill="none" stroke="#003a50" stroke-miterlimit="10"/><rect x="51.78" y="183.38" width="102.05" height="17.01" fill="none" stroke="#003a50" stroke-miterlimit="10"/><polygon points="145.81 192.42 102.91 188.89 59.81 192.42 59.81 194.88 145.81 194.88 145.81 192.42" fill="none" stroke="#003a50" stroke-miterlimit="10"/><g clip-path="url(#clip-path)"><rect x="305.14" y="363" width="58.79" height="33.59" fill="none" stroke="#003a50" stroke-miterlimit="10"/><rect x="363.93" y="363" width="32.72" height="102.57" fill="none" stroke="#003a50" stroke-miterlimit="10"/></g><rect x="268.09" y="149.39" width="64.49" height="33.59" fill="none" stroke="#003a50" stroke-miterlimit="10"/><rect x="332.58" y="146.93" width="32.72" height="102.57" fill="none" stroke="#003a50" stroke-miterlimit="10"/><g clip-path="url(#clip-path)"><path d="M299.15,283.89a1.26,1.26,0,0,1-.94-1.51,13.78,13.78,0,0,0-26.87-6.16,1.26,1.26,0,0,1-2.46-.56A16.3,16.3,0,0,1,300.66,283,1.26,1.26,0,0,1,299.15,283.89Z" fill="none" stroke="#003a50" stroke-miterlimit="10"/><path d="M244,274.17a1.25,1.25,0,0,1-1.74.34,13.79,13.79,0,1,0-15.53,22.78,1.26,1.26,0,0,1-1.41,2.08,16.3,16.3,0,1,1,18.35-26.94A1.24,1.24,0,0,1,244,274.17Z" fill="none" stroke="#003a50" stroke-miterlimit="10"/><path d="M241.48,321.58a1.26,1.26,0,0,1,1.33,1.18,13.78,13.78,0,1,0,27.52-1.63,1.26,1.26,0,0,1,2.51-.15,16.3,16.3,0,1,1-32.54,1.93A1.25,1.25,0,0,1,241.48,321.58Z" fill="none" stroke="#003a50" stroke-miterlimit="10"/><path d="M285,267.28a12.69,12.69,0,0,1,12,15.48l-2,8.88a3.53,3.53,0,0,1-4.24,2.68l-13.44-3.08a23.73,23.73,0,0,0-6-9.44l1-4.2C273.56,271.64,278.84,267.08,285,267.28Z" fill="none" stroke="#003a50" stroke-miterlimit="10"/><path d="M242.16,275.8l2.32,1.6a23.81,23.81,0,0,0-13.64,21.32L228.32,297c-5-3.44-7.4-10-5-15.64A12.7,12.7,0,0,1,242.16,275.8Z" fill="none" stroke="#003a50" stroke-miterlimit="10"/><path d="M269,318.08l.12,2c.36,6.12-3.4,12-9.32,13.48A12.66,12.66,0,0,1,243.92,322l-.12-1.84a23.93,23.93,0,0,0,16.64,1.92A23.5,23.5,0,0,0,269,318.08Z" fill="none" stroke="#003a50" stroke-miterlimit="10"/><path d="M271.24,281.8a23.73,23.73,0,0,1,6,9.44,16.51,16.51,0,0,1,.6,2A23.85,23.85,0,0,1,269,318.08a23.5,23.5,0,0,1-8.56,4,23.87,23.87,0,0,1-28.92-17.4,22.12,22.12,0,0,1-.68-6,23.81,23.81,0,0,1,13.64-21.32,22.85,22.85,0,0,1,4.48-1.6A23.8,23.8,0,0,1,271.24,281.8Z" fill="none" stroke="#003a50" stroke-miterlimit="10"/><path d="M289.76,106a1,1,0,0,1,.85.51.9.9,0,0,1-.43,1.22,28,28,0,0,1-23.81,0,.9.9,0,0,1-.43-1.22,1,1,0,0,1,1.26-.42,26,26,0,0,0,22.14,0A1,1,0,0,1,289.76,106Z" fill="none" stroke="#003a50" stroke-miterlimit="10"/><path d="M289.76,111a1,1,0,0,1,.85.51.9.9,0,0,1-.43,1.22,28,28,0,0,1-23.81,0,.9.9,0,0,1-.43-1.22.94.94,0,0,1,1.26-.41,26.14,26.14,0,0,0,22.14,0A.9.9,0,0,1,289.76,111Z" fill="none" stroke="#003a50" stroke-miterlimit="10"/><path d="M289.76,116.09a1,1,0,0,1,.85.51.9.9,0,0,1-.43,1.23,28.07,28.07,0,0,1-23.81,0,.9.9,0,0,1-.43-1.22,1,1,0,0,1,1.26-.42,26,26,0,0,0,22.14,0A.9.9,0,0,1,289.76,116.09Z" fill="none" stroke="#003a50" stroke-miterlimit="10"/><path d="M289.76,121.16a.94.94,0,0,1,.85.5.9.9,0,0,1-.43,1.23,28.07,28.07,0,0,1-23.81,0,.9.9,0,0,1-.43-1.22,1,1,0,0,1,1.26-.42,26,26,0,0,0,22.14,0A.88.88,0,0,1,289.76,121.16Z" fill="none" stroke="#003a50" stroke-miterlimit="10"/><path d="M289.76,126.22a1,1,0,0,1,.85.51.9.9,0,0,1-.43,1.22,28,28,0,0,1-23.81,0,.9.9,0,0,1-.43-1.22.94.94,0,0,1,1.26-.41,26.14,26.14,0,0,0,22.14,0A.9.9,0,0,1,289.76,126.22Z" fill="none" stroke="#003a50" stroke-miterlimit="10"/><path d="M289.76,131.28a1,1,0,0,1,.85.51.89.89,0,0,1-.43,1.22,28,28,0,0,1-23.81,0,.89.89,0,0,1-.43-1.22.94.94,0,0,1,1.26-.41,26,26,0,0,0,22.14,0A.9.9,0,0,1,289.76,131.28Z" fill="none" stroke="#003a50" stroke-miterlimit="10"/><path d="M289.76,100.9a1,1,0,0,1,.85.51.9.9,0,0,1-.43,1.23,28.07,28.07,0,0,1-23.81,0,.9.9,0,0,1-.43-1.22,1,1,0,0,1,1.26-.42,26,26,0,0,0,22.14,0A.9.9,0,0,1,289.76,100.9Z" fill="none" stroke="#003a50" stroke-miterlimit="10"/><path d="M289.76,95.84a1,1,0,0,1,.85.51.89.89,0,0,1-.43,1.22,28,28,0,0,1-23.81,0,.89.89,0,0,1-.43-1.22.94.94,0,0,1,1.26-.41,26,26,0,0,0,22.14,0A.9.9,0,0,1,289.76,95.84Z" fill="none" stroke="#003a50" stroke-miterlimit="10"/></g><line x1="278.27" y1="13.84" x2="278.27" y2="144.7" fill="none" stroke="#003a50" stroke-miterlimit="10"/><rect x="261.71" y="13.59" width="32.59" height="130.41" fill="none" stroke="#003a50" stroke-miterlimit="10"/><rect x="414.44" y="151.43" width="73.99" height="25.39" fill="none" stroke="#003a50" stroke-miterlimit="10"/><g clip-path="url(#clip-path)"><rect x="418.48" y="149.71" width="24.4" height="25.04" rx="2.83" fill="none" stroke="#003a50" stroke-miterlimit="10"/><path d="M430.68,164.15a1.92,1.92,0,1,1,1.91-1.91A1.92,1.92,0,0,1,430.68,164.15Z" fill="none" stroke="#003a50" stroke-miterlimit="10"/></g><rect x="326.17" y="314.59" width="34.02" height="34.02" fill="none" stroke="#003a50" stroke-miterlimit="10"/><line x1="343.18" y1="341.58" x2="343.18" y2="321.62" fill="none" stroke="#003a50" stroke-miterlimit="10"/><line x1="353.16" y1="331.6" x2="333.2" y2="331.6" fill="none" stroke="#003a50" stroke-miterlimit="10"/><line x1="350.24" y1="338.66" x2="336.12" y2="324.55" fill="none" stroke="#003a50" stroke-miterlimit="10"/><line x1="350.24" y1="324.55" x2="336.12" y2="338.66" fill="none" stroke="#003a50" stroke-miterlimit="10"/><rect x="360.19" y="314.59" width="153.07" height="34.02" fill="none" stroke="#003a50" stroke-miterlimit="10"/><g clip-path="url(#clip-path)"><path d="M377.3,319.42a1,1,0,0,1,.56-.9,1,1,0,0,1,1.35.45,28.77,28.77,0,0,1,0,25.26,1,1,0,0,1-1.34.46,1,1,0,0,1-.46-1.34,26.81,26.81,0,0,0,0-23.49A1,1,0,0,1,377.3,319.42Z" fill="none" stroke="#003a50" stroke-miterlimit="10"/><path d="M382.87,319.42a1,1,0,0,1,1.9-.45,28.77,28.77,0,0,1,0,25.26,1,1,0,1,1-1.8-.88,26.72,26.72,0,0,0,0-23.49A1,1,0,0,1,382.87,319.42Z" fill="none" stroke="#003a50" stroke-miterlimit="10"/><path d="M388.43,319.42a1,1,0,0,1,.56-.9,1,1,0,0,1,1.35.45,28.77,28.77,0,0,1,0,25.26,1,1,0,0,1-1.34.46,1,1,0,0,1-.46-1.34,26.81,26.81,0,0,0,0-23.49A1,1,0,0,1,388.43,319.42Z" fill="none" stroke="#003a50" stroke-miterlimit="10"/><path d="M394,319.42a1,1,0,0,1,1.9-.45,28.77,28.77,0,0,1,0,25.26,1,1,0,1,1-1.8-.88,26.72,26.72,0,0,0,0-23.49A1,1,0,0,1,394,319.42Z" fill="none" stroke="#003a50" stroke-miterlimit="10"/><path d="M399.57,319.42a1,1,0,0,1,.56-.9,1,1,0,0,1,1.34.45,28.77,28.77,0,0,1,0,25.26,1,1,0,0,1-1.8-.88,26.72,26.72,0,0,0,0-23.49A1,1,0,0,1,399.57,319.42Z" fill="none" stroke="#003a50" stroke-miterlimit="10"/><path d="M405.13,319.42A1,1,0,0,1,407,319a28.77,28.77,0,0,1,0,25.26,1,1,0,1,1-1.8-.88,26.72,26.72,0,0,0,0-23.49A1,1,0,0,1,405.13,319.42Z" fill="none" stroke="#003a50" stroke-miterlimit="10"/><path d="M371.74,319.42a1,1,0,0,1,1.9-.45,28.77,28.77,0,0,1,0,25.26,1,1,0,0,1-1.8-.88,26.72,26.72,0,0,0,0-23.49A1,1,0,0,1,371.74,319.42Z" fill="none" stroke="#003a50" stroke-miterlimit="10"/><path d="M366.17,319.42a1,1,0,0,1,.56-.9,1,1,0,0,1,1.35.45,28.77,28.77,0,0,1,0,25.26,1,1,0,0,1-1.34.46,1,1,0,0,1-.46-1.34,26.81,26.81,0,0,0,0-23.49A1,1,0,0,1,366.17,319.42Z" fill="none" stroke="#003a50" stroke-miterlimit="10"/></g><line x1="360.19" y1="331.6" x2="513.26" y2="331.6" fill="none" stroke="#003a50" stroke-miterlimit="10"/><g clip-path="url(#clip-path)"><path d="M108.91,302.3v41H63.14V300.09H106.7A2.2,2.2,0,0,1,108.91,302.3Z" fill="none" stroke="#003a50" stroke-miterlimit="10"/><path d="M154.78,302.07v41.26H109V302.07a2,2,0,0,1,2-2H152.8A2,2,0,0,1,154.78,302.07Z" fill="none" stroke="#003a50" stroke-miterlimit="10"/><path d="M63.14,300.09a3.11,3.11,0,0,0-3.33-2.83H55.59a3.1,3.1,0,0,0-3.32,2.83v48.19H165.65V300.51a3.1,3.1,0,0,0-3.32-2.83h-4.22a3.11,3.11,0,0,0-3.33,2.83v42.83H63.14Z" fill="none" stroke="#003a50" stroke-miterlimit="10"/></g><rect x="63.14" y="334.08" width="91.64" height="9.25" fill="none" stroke="#003a50" stroke-miterlimit="10"/><rect x="54.66" y="13.99" width="22.68" height="22.68" fill="none" stroke="#003a50" stroke-miterlimit="10"/><g clip-path="url(#clip-path)"><path d="M72.51,31.83a9.2,9.2,0,1,1,0-13A9.2,9.2,0,0,1,72.51,31.83Z" fill="none" stroke="#003a50" stroke-miterlimit="10"/><path d="M73.13,31.14c-1.69-.17-3.41.49-5.07-1.17-2.43-2.44.14-5-2.29-7.45s-5,.13-7.46-2.3" fill="none" stroke="#003a50" stroke-miterlimit="10"/></g><rect x="191.96" y="13.99" width="22.68" height="22.68" fill="none" stroke="#003a50" stroke-miterlimit="10"/><g clip-path="url(#clip-path)"><path d="M209.81,31.83a9.2,9.2,0,1,1,0-13A9.2,9.2,0,0,1,209.81,31.83Z" fill="none" stroke="#003a50" stroke-miterlimit="10"/><path d="M210.43,31.14c-1.69-.17-3.41.49-5.06-1.17-2.44-2.44.14-5-2.3-7.45s-5,.13-7.46-2.3" fill="none" stroke="#003a50" stroke-miterlimit="10"/></g><rect x="83.67" y="13.99" width="102.05" height="113.39" fill="none" stroke="#003a50" stroke-miterlimit="10"/><g clip-path="url(#clip-path)"><path d="M175.72,117.64h-82a2.09,2.09,0,0,1-2.09-2.08V47.91H177.8v67.65A2.08,2.08,0,0,1,175.72,117.64Z" fill="none" stroke="#003a50" stroke-miterlimit="10"/><rect x="91.33" y="21.42" width="42.5" height="22.88" rx="1.98" fill="none" stroke="#003a50" stroke-miterlimit="10"/><rect x="135.56" y="21.42" width="42.5" height="22.88" rx="1.98" fill="none" stroke="#003a50" stroke-miterlimit="10"/></g><line x1="178.06" y1="61.77" x2="91.33" y2="61.77" fill="none" stroke="#003a50" stroke-miterlimit="10"/><g clip-path="url(#clip-path)"><path d="M356.15,209.54V186.18a3.36,3.36,0,0,0-3.36-3.35h-15a3.35,3.35,0,0,0-3.35,3.35v23.36a3.35,3.35,0,0,0,3.35,3.35h15A3.36,3.36,0,0,0,356.15,209.54Z" fill="none" stroke="#003a50" stroke-miterlimit="10"/><circle cx="349.11" cy="197.86" r="2.46" transform="translate(-51.88 213.09) rotate(-31.72)" fill="none" stroke="#003a50" stroke-miterlimit="10"/></g><line x1="348.35" y1="197.86" x2="361.97" y2="197.86" fill="none" stroke="#003a50" stroke-miterlimit="10"/><line x1="361.97" y1="191.05" x2="361.97" y2="204.67" fill="none" stroke="#003a50" stroke-miterlimit="10"/><g clip-path="url(#clip-path)"><line x1="118.18" y1="1.45" x2="118.18" y2="-58" fill="none" stroke="#003a50" stroke-linecap="round" stroke-linejoin="round" stroke-width="0.96"/><line x1="292.06" y1="1.45" x2="292.06" y2="-58" fill="none" stroke="#003a50" stroke-linecap="round" stroke-linejoin="round" stroke-width="0.96"/><line x1="260.45" y1="1.45" x2="260.45" y2="-58" fill="none" stroke="#003a50" stroke-linecap="round" stroke-linejoin="round" stroke-width="0.96"/><line x1="133.99" y1="1.45" x2="133.99" y2="-58" fill="none" stroke="#003a50" stroke-linecap="round" stroke-linejoin="round" stroke-width="0.96"/><line x1="149.79" y1="1.45" x2="149.79" y2="-58" fill="none" stroke="#003a50" stroke-linecap="round" stroke-linejoin="round" stroke-width="0.96"/><line x1="165.6" y1="1.45" x2="165.6" y2="-58" fill="none" stroke="#003a50" stroke-linecap="round" stroke-linejoin="round" stroke-width="0.96"/><line x1="181.41" y1="1.45" x2="181.41" y2="-58" fill="none" stroke="#003a50" stroke-linecap="round" stroke-linejoin="round" stroke-width="0.96"/><line x1="197.22" y1="1.45" x2="197.22" y2="-58" fill="none" stroke="#003a50" stroke-linecap="round" stroke-linejoin="round" stroke-width="0.96"/><line x1="213.03" y1="1.45" x2="213.03" y2="-58" fill="none" stroke="#003a50" stroke-linecap="round" stroke-linejoin="round" stroke-width="0.96"/><line x1="228.83" y1="1.45" x2="228.83" y2="-58" fill="none" stroke="#003a50" stroke-linecap="round" stroke-linejoin="round" stroke-width="0.96"/><line x1="244.64" y1="1.45" x2="244.64" y2="-58" fill="none" stroke="#003a50" stroke-linecap="round" stroke-linejoin="round" stroke-width="0.96"/><line x1="260.45" y1="1.45" x2="260.45" y2="-58" fill="none" stroke="#003a50" stroke-linecap="round" stroke-linejoin="round" stroke-width="0.96"/><line x1="276.26" y1="1.45" x2="276.26" y2="-58" fill="none" stroke="#003a50" stroke-linecap="round" stroke-linejoin="round" stroke-width="0.96"/><line x1="292.06" y1="1.45" x2="292.06" y2="-58" fill="none" stroke="#003a50" stroke-linecap="round" stroke-linejoin="round" stroke-width="0.96"/><line x1="133.99" y1="1.45" x2="133.99" y2="-58" fill="none" stroke="#003a50" stroke-linecap="round" stroke-linejoin="round" stroke-width="0.96"/><line x1="149.79" y1="1.45" x2="149.79" y2="-58" fill="none" stroke="#003a50" stroke-linecap="round" stroke-linejoin="round" stroke-width="0.96"/><line x1="165.6" y1="1.45" x2="165.6" y2="-58" fill="none" stroke="#003a50" stroke-linecap="round" stroke-linejoin="round" stroke-width="0.96"/><line x1="181.41" y1="1.45" x2="181.41" y2="-58" fill="none" stroke="#003a50" stroke-linecap="round" stroke-linejoin="round" stroke-width="0.96"/><line x1="197.22" y1="1.45" x2="197.22" y2="-58" fill="none" stroke="#003a50" stroke-linecap="round" stroke-linejoin="round" stroke-width="0.96"/><line x1="213.03" y1="1.45" x2="213.03" y2="-58" fill="none" stroke="#003a50" stroke-linecap="round" stroke-linejoin="round" stroke-width="0.96"/><line x1="228.83" y1="1.45" x2="228.83" y2="-58" fill="none" stroke="#003a50" stroke-linecap="round" stroke-linejoin="round" stroke-width="0.96"/><line x1="244.64" y1="1.45" x2="244.64" y2="-58" fill="none" stroke="#003a50" stroke-linecap="round" stroke-linejoin="round" stroke-width="0.96"/><line x1="260.45" y1="1.45" x2="260.45" y2="-58" fill="none" stroke="#003a50" stroke-linecap="round" stroke-linejoin="round" stroke-width="0.96"/><line x1="133.99" y1="1.45" x2="133.99" y2="-58" fill="none" stroke="#003a50" stroke-linecap="round" stroke-linejoin="round" stroke-width="0.96"/><line x1="149.79" y1="1.45" x2="149.79" y2="-58" fill="none" stroke="#003a50" stroke-linecap="round" stroke-linejoin="round" stroke-width="0.96"/><line x1="165.6" y1="1.45" x2="165.6" y2="-58" fill="none" stroke="#003a50" stroke-linecap="round" stroke-linejoin="round" stroke-width="0.96"/><line x1="181.41" y1="1.45" x2="181.41" y2="-58" fill="none" stroke="#003a50" stroke-linecap="round" stroke-linejoin="round" stroke-width="0.96"/><line x1="197.22" y1="1.45" x2="197.22" y2="-58" fill="none" stroke="#003a50" stroke-linecap="round" stroke-linejoin="round" stroke-width="0.96"/><line x1="213.03" y1="1.45" x2="213.03" y2="-58" fill="none" stroke="#003a50" stroke-linecap="round" stroke-linejoin="round" stroke-width="0.96"/><line x1="228.83" y1="1.45" x2="228.83" y2="-58" fill="none" stroke="#003a50" stroke-linecap="round" stroke-linejoin="round" stroke-width="0.96"/><line x1="244.64" y1="1.45" x2="244.64" y2="-58" fill="none" stroke="#003a50" stroke-linecap="round" stroke-linejoin="round" stroke-width="0.96"/><line x1="260.45" y1="1.45" x2="260.45" y2="-58" fill="none" stroke="#003a50" stroke-linecap="round" stroke-linejoin="round" stroke-width="0.96"/><line x1="276.26" y1="1.45" x2="276.26" y2="-58" fill="none" stroke="#003a50" stroke-linecap="round" stroke-linejoin="round" stroke-width="0.96"/><line x1="133.99" y1="1.45" x2="133.99" y2="-58" fill="none" stroke="#003a50" stroke-linecap="round" stroke-linejoin="round" stroke-width="0.96"/><line x1="149.79" y1="1.45" x2="149.79" y2="-58" fill="none" stroke="#003a50" stroke-linecap="round" stroke-linejoin="round" stroke-width="0.96"/><line x1="165.6" y1="1.45" x2="165.6" y2="-58" fill="none" stroke="#003a50" stroke-linecap="round" stroke-linejoin="round" stroke-width="0.96"/><line x1="181.41" y1="1.45" x2="181.41" y2="-58" fill="none" stroke="#003a50" stroke-linecap="round" stroke-linejoin="round" stroke-width="0.96"/><line x1="197.22" y1="1.45" x2="197.22" y2="-58" fill="none" stroke="#003a50" stroke-linecap="round" stroke-linejoin="round" stroke-width="0.96"/><line x1="213.03" y1="1.45" x2="213.03" y2="-58" fill="none" stroke="#003a50" stroke-linecap="round" stroke-linejoin="round" stroke-width="0.96"/><line x1="228.83" y1="1.45" x2="228.83" y2="-58" fill="none" stroke="#003a50" stroke-linecap="round" stroke-linejoin="round" stroke-width="0.96"/><line x1="244.64" y1="1.45" x2="244.64" y2="-58" fill="none" stroke="#003a50" stroke-linecap="round" stroke-linejoin="round" stroke-width="0.96"/><line x1="118.18" y1="1.45" x2="118.18" y2="-58" fill="none" stroke="#003a50" stroke-linecap="round" stroke-linejoin="round" stroke-width="0.96"/><line x1="292.06" y1="1.45" x2="292.06" y2="-58" fill="none" stroke="#003a50" stroke-linecap="round" stroke-linejoin="round" stroke-width="0.96"/><line x1="133.99" y1="1.45" x2="133.99" y2="-58" fill="none" stroke="#003a50" stroke-linecap="round" stroke-linejoin="round" stroke-width="0.96"/><line x1="149.79" y1="1.45" x2="149.79" y2="-58" fill="none" stroke="#003a50" stroke-linecap="round" stroke-linejoin="round" stroke-width="0.96"/><line x1="165.6" y1="1.45" x2="165.6" y2="-58" fill="none" stroke="#003a50" stroke-linecap="round" stroke-linejoin="round" stroke-width="0.96"/><line x1="181.41" y1="1.45" x2="181.41" y2="-58" fill="none" stroke="#003a50" stroke-linecap="round" stroke-linejoin="round" stroke-width="0.96"/><line x1="197.22" y1="1.45" x2="197.22" y2="-58" fill="none" stroke="#003a50" stroke-linecap="round" stroke-linejoin="round" stroke-width="0.96"/><line x1="213.03" y1="1.45" x2="213.03" y2="-58" fill="none" stroke="#003a50" stroke-linecap="round" stroke-linejoin="round" stroke-width="0.96"/><line x1="228.83" y1="1.45" x2="228.83" y2="-58" fill="none" stroke="#003a50" stroke-linecap="round" stroke-linejoin="round" stroke-width="0.96"/><line x1="244.64" y1="1.45" x2="244.64" y2="-58" fill="none" stroke="#003a50" stroke-linecap="round" stroke-linejoin="round" stroke-width="0.96"/><line x1="260.45" y1="1.45" x2="260.45" y2="-58" fill="none" stroke="#003a50" stroke-linecap="round" stroke-linejoin="round" stroke-width="0.96"/><line x1="276.26" y1="1.45" x2="276.26" y2="-58" fill="none" stroke="#003a50" stroke-linecap="round" stroke-linejoin="round" stroke-width="0.96"/><line x1="292.06" y1="1.45" x2="292.06" y2="-58" fill="none" stroke="#003a50" stroke-linecap="round" stroke-linejoin="round" stroke-width="0.96"/><line x1="133.99" y1="1.45" x2="133.99" y2="-58" fill="none" stroke="#003a50" stroke-linecap="round" stroke-linejoin="round" stroke-width="0.96"/><line x1="149.79" y1="1.45" x2="149.79" y2="-58" fill="none" stroke="#003a50" stroke-linecap="round" stroke-linejoin="round" stroke-width="0.96"/><line x1="165.6" y1="1.45" x2="165.6" y2="-58" fill="none" stroke="#003a50" stroke-linecap="round" stroke-linejoin="round" stroke-width="0.96"/><line x1="181.41" y1="1.45" x2="181.41" y2="-58" fill="none" stroke="#003a50" stroke-linecap="round" stroke-linejoin="round" stroke-width="0.96"/><line x1="197.22" y1="1.45" x2="197.22" y2="-58" fill="none" stroke="#003a50" stroke-linecap="round" stroke-linejoin="round" stroke-width="0.96"/><line x1="213.03" y1="1.45" x2="213.03" y2="-58" fill="none" stroke="#003a50" stroke-linecap="round" stroke-linejoin="round" stroke-width="0.96"/><line x1="228.83" y1="1.45" x2="228.83" y2="-58" fill="none" stroke="#003a50" stroke-linecap="round" stroke-linejoin="round" stroke-width="0.96"/><line x1="244.64" y1="1.45" x2="244.64" y2="-58" fill="none" stroke="#003a50" stroke-linecap="round" stroke-linejoin="round" stroke-width="0.96"/><line x1="260.45" y1="1.45" x2="260.45" y2="-58" fill="none" stroke="#003a50" stroke-linecap="round" stroke-linejoin="round" stroke-width="0.96"/><line x1="276.26" y1="1.45" x2="276.26" y2="-58" fill="none" stroke="#003a50" stroke-linecap="round" stroke-linejoin="round" stroke-width="0.96"/><path d="M418.51,246.28v3.07a38.71,38.71,0,0,0,38.71,38.72V246.28" fill="none" stroke="#003a50" stroke-miterlimit="10" stroke-width="1.6"/><path d="M196.35,180.63v-3.58A45.06,45.06,0,0,1,241.41,132v48.65" fill="none" stroke="#003a50" stroke-miterlimit="10" stroke-width="1.6"/><path d="M524.66,258.93h4.06a51.12,51.12,0,0,1,51.13,51.12H524.66" fill="none" stroke="#003a50" stroke-miterlimit="10" stroke-width="1.6"/><path d="M440.38,6.29V2.1a52.73,52.73,0,0,0-52.73-52.74V6.29" fill="none" stroke="#003a50" stroke-miterlimit="10" stroke-width="1.6"/><polygon points="52.48 -59.46 52.48 36.28 3.15 36.28 14.82 -59.46 52.48 -59.46" fill="#003a50" fill-rule="evenodd"/><rect x="3.15" y="304.73" width="49.33" height="94.57" fill="#003a50"/><rect x="48.48" y="-0.08" width="339.98" height="13.79" fill="#003a50"/><rect x="513.57" y="309.05" width="16.32" height="50.48" fill="#003a50"/><rect x="513.57" y="109.71" width="16.32" height="150.09" fill="#003a50"/><rect x="519.82" y="-6.29" width="10.07" height="146.14" fill="#003a50"/><rect x="515.48" y="-76.95" width="14.4" height="90.54" fill="#003a50"/><rect x="485.32" y="357.05" width="13.08" height="108.53" fill="#003a50"/><rect x="348.09" y="-83.45" width="13.79" height="92.72" fill="#003a50"/><rect x="48.49" y="348.89" width="481.33" height="13.79" fill="#003a50"/><rect x="439.38" y="-0.08" width="90.5" height="13.79" fill="#003a50"/><rect x="294.4" y="12.05" width="16.74" height="137.8" fill="#003a50"/><rect x="305.94" y="134.33" width="187.71" height="16.78" fill="#003a50"/><rect x="485.32" y="109.71" width="34.5" height="10.81" fill="#003a50"/><rect x="483.41" y="110.48" width="10.81" height="39.38" fill="#003a50"/><rect x="19.9" y="124.61" width="32.58" height="90.82" fill="#003a50"/><rect x="4.15" y="189.52" width="44.33" height="25.9" fill="#003a50"/><rect x="396.77" y="359.19" width="6.38" height="106.38" fill="#003a50"/><rect x="365.82" y="243.53" width="53.52" height="6.38" fill="#003a50"/><rect x="365.22" y="146.52" width="6.38" height="103.38" fill="#003a50"/><rect x="456.39" y="243.53" width="63.43" height="6.38" fill="#003a50"/><rect x="489.98" y="189.86" width="29.83" height="6.38" fill="#003a50"/><rect x="487.87" y="148.5" width="6.38" height="98.21" fill="#003a50"/><rect x="46.15" y="177" width="151.03" height="6.38" fill="#003a50"/><rect x="240.65" y="177" width="26.25" height="6.38" fill="#003a50"/><rect x="261.71" y="143.42" width="6.38" height="39.96" fill="#003a50"/><rect x="265.3" y="143.42" width="44.1" height="7.69" fill="#003a50"/><rect x="523.9" y="360.61" width="5.98" height="101.5" fill="#003a50"/><line x1="365.3" y1="314.59" x2="365.3" y2="248.21" fill="none" stroke="#003a50" stroke-miterlimit="10" stroke-dasharray="5.67 5.67"/><rect x="483.41" y="13.84" width="6.38" height="95.53" fill="#003a50"/><rect x="371.12" y="9.75" width="6.38" height="105.99" fill="#003a50"/><rect x="374.31" y="109.37" width="148.38" height="6.38" fill="#003a50"/></g><g clip-path="url(#clip-path)"><path d="M104.22,139.12l-2.48,1.95v-2.24l2.73-2.27h1.86v11.91h-2.11Z" fill="#003a50"/><path d="M115.05,138.41h-5.82v-1.85h8.86v1.85l-4.53,2.65v.06h1.28a3.87,3.87,0,0,1,2.79,1,3.51,3.51,0,0,1,1.06,2.66,3.35,3.35,0,0,1-1.33,2.82,7,7,0,0,1-7.25,0,3.37,3.37,0,0,1-1.32-2.85v-.33h2.11v.33c0,1.36.94,2,2.84,2s2.84-.66,2.84-2-1-2-2.84-2h-3.27v-1.66l4.58-2.69Z" fill="#003a50"/><path d="M120.79,148.34a1,1,0,0,1-.33-.81,1,1,0,0,1,.33-.8,1.4,1.4,0,0,1,1.73,0,1,1,0,0,1,.33.8,1,1,0,0,1-.33.81,1.4,1.4,0,0,1-1.73,0Z" fill="#003a50"/><path d="M126.19,146.94a7.34,7.34,0,0,1,0-8.84,5.71,5.71,0,0,1,8.13,0,7.34,7.34,0,0,1,0,8.84,5.71,5.71,0,0,1-8.13,0Zm6.53-1.39a5.73,5.73,0,0,0,0-6.07,3.15,3.15,0,0,0-4.92,0,5.67,5.67,0,0,0,0,6.07,3.14,3.14,0,0,0,4.92,0Z" fill="#003a50"/><path d="M426.57,204.07h-5.82v-1.84h8.86v1.84l-4.52,2.65v.07h1.27a3.91,3.91,0,0,1,2.8,1,3.52,3.52,0,0,1,1,2.67,3.32,3.32,0,0,1-1.33,2.82,6.93,6.93,0,0,1-7.24,0,3.35,3.35,0,0,1-1.33-2.85v-.33h2.11v.33c0,1.36.95,2,2.84,2s2.84-.67,2.84-2-1-2-2.84-2H422v-1.67l4.57-2.68Z" fill="#003a50"/><path d="M432.31,214a1.17,1.17,0,0,1,0-1.61,1.41,1.41,0,0,1,1.74,0,1.17,1.17,0,0,1,0,1.61,1.41,1.41,0,0,1-1.74,0Z" fill="#003a50"/><path d="M439.42,214.14h-2.35l5.41-10h-6.92v-1.88h9.28v1.88Z" fill="#003a50"/><path d="M482,278.63h-2.11V276h-7v-1.84l6.3-7.42H482v7.42h1.59V276H482Zm-2.11-4.49v-5.32h-.07l-4.47,5.27v.05Z" fill="#003a50"/><path d="M485.28,278.5a1,1,0,0,1-.32-.8,1,1,0,0,1,.32-.81,1.24,1.24,0,0,1,.87-.3,1.2,1.2,0,0,1,.86.3,1,1,0,0,1,.33.81,1,1,0,0,1-.33.8,1.2,1.2,0,0,1-.86.3A1.24,1.24,0,0,1,485.28,278.5Z" fill="#003a50"/><path d="M489.42,275.29h2.2s0,.07.05.18a2.93,2.93,0,0,0,.22.43,2.41,2.41,0,0,0,.42.48,2,2,0,0,0,.75.42,3.21,3.21,0,0,0,1.05.16,2.66,2.66,0,0,0,2.24-1.06,4.3,4.3,0,0,0,.81-2.71h-.06a2.27,2.27,0,0,1-.44.47,3,3,0,0,1-.6.4,3.88,3.88,0,0,1-.95.32,5.58,5.58,0,0,1-1.23.13,4.92,4.92,0,0,1-3.36-1.13,3.73,3.73,0,0,1,.05-5.72,5.55,5.55,0,0,1,3.6-1.1A4.81,4.81,0,0,1,498,268.1a6.4,6.4,0,0,1,1.32,4.27v.41a6.64,6.64,0,0,1-1.37,4.31,4.67,4.67,0,0,1-3.88,1.71,5.91,5.91,0,0,1-2.17-.37,3.86,3.86,0,0,1-1.48-.95A3.31,3.31,0,0,1,489.42,275.29Zm2.77-3.17a3.58,3.58,0,0,0,3.94,0,2,2,0,0,0,0-3.14,3.21,3.21,0,0,0-2-.59,3.17,3.17,0,0,0-2,.59,2,2,0,0,0,0,3.14Z" fill="#003a50"/><path d="M104.8,241.41l-2.49,2v-2.24l2.74-2.27h1.86v11.91H104.8Z" fill="#003a50"/><path d="M118.1,250a6.43,6.43,0,0,1-3.68.93,6.51,6.51,0,0,1-3.69-.93,3,3,0,0,1-1.37-2.56,2.74,2.74,0,0,1,.26-1.17,2.37,2.37,0,0,1,.66-.85,3.86,3.86,0,0,1,1.39-.77l.26-.07v-.09a3.32,3.32,0,0,1-.76-.29,2.68,2.68,0,0,1-.67-.44A2.24,2.24,0,0,1,110,243a2.38,2.38,0,0,1-.22-1,2.81,2.81,0,0,1,1.25-2.38,7,7,0,0,1,6.85,0,2.83,2.83,0,0,1,1.25,2.38,2.5,2.5,0,0,1-.22,1,2,2,0,0,1-.55.74,3.72,3.72,0,0,1-1.2.68l-.22,0v.09l.28.07a4.76,4.76,0,0,1,.62.26,4.28,4.28,0,0,1,.77.51,2.83,2.83,0,0,1,.62.82,2.71,2.71,0,0,1,.27,1.2A2.94,2.94,0,0,1,118.1,250Zm-5.79-1.35a3.84,3.84,0,0,0,2.1.48,3.94,3.94,0,0,0,2.1-.47,1.6,1.6,0,0,0,0-2.7,3.94,3.94,0,0,0-2.1-.47,4,4,0,0,0-2.1.47,1.53,1.53,0,0,0-.74,1.35A1.51,1.51,0,0,0,112.31,248.64Zm-.36-6.52a1.35,1.35,0,0,0,.64,1.19,4,4,0,0,0,3.65,0,1.42,1.42,0,0,0,0-2.39,4,4,0,0,0-3.62,0A1.38,1.38,0,0,0,112,242.12Z" fill="#003a50"/><path d="M121.57,250.63a1,1,0,0,1-.32-.81,1.07,1.07,0,0,1,.32-.81,1.41,1.41,0,0,1,1.74,0,1.07,1.07,0,0,1,.32.81,1,1,0,0,1-.32.81,1.45,1.45,0,0,1-1.74,0Z" fill="#003a50"/><path d="M131.68,240.69h-5.82v-1.84h8.86v1.84l-4.53,2.65v.07h1.28a3.9,3.9,0,0,1,2.79,1,3.53,3.53,0,0,1,1.06,2.67,3.35,3.35,0,0,1-1.33,2.82,7,7,0,0,1-7.24,0,3.36,3.36,0,0,1-1.33-2.86v-.32h2.11v.32c0,1.37.94,2,2.84,2s2.84-.67,2.84-2-1-2-2.84-2H127.1v-1.67l4.58-2.68Z" fill="#003a50"/></g></svg>