<svg id="Слой_1" data-name="Слой 1" xmlns="http://www.w3.org/2000/svg" xmlns:xlink="http://www.w3.org/1999/xlink" viewBox="0 0 581.1 365.67"><defs><clipPath id="clip-path"><polygon points="0 0.14 0 317.14 15.08 317.14 15.08 365.53 581.1 365.53 581.1 66.41 288.4 66.41 288.4 0.14 0 0.14" fill="none"/></clipPath></defs><path d="M290.47,66.41l235.83,4-.12-4ZM15.6.14V2.06H285V66.31l3.38.06V.14Z" fill="#fff"/><polygon points="15.6 357.58 221.76 357.58 285.88 357.58 489.55 357.58 489.55 358.54 526.75 358.54 526.75 254.05 512.68 242.98 512.68 193.67 519.37 71.28 283.08 69.58 282.04 3.8 15.6 0.77 15.6 357.58" fill="#fff"/><g clip-path="url(#clip-path)"><rect x="3.24" y="-465.14" width="1162.95" height="2240.57" fill="none" stroke="#003a50" stroke-miterlimit="10"/><polygon points="15.82 639.03 15.82 1762.58 1153.21 1762.58 1153.21 -452.19 15.82 -452.35 15.82 568.32 15.82 639.03" fill="none" stroke="#003a50" stroke-miterlimit="10"/></g><rect x="36.44" y="204.58" width="4.55" height="86.56" fill="#fff"/><rect x="36.44" y="204.58" width="4.55" height="86.56" fill="none" stroke="#003a50" stroke-miterlimit="10"/><line x1="38.71" y1="291.14" x2="38.71" y2="204.58" fill="none" stroke="#003a50" stroke-miterlimit="10"/><rect x="36.44" y="286.65" width="4.55" height="4.49" fill="#fff"/><rect x="36.44" y="286.65" width="4.55" height="4.49" fill="none" stroke="#003a50" stroke-miterlimit="10"/><rect x="36.44" y="204.58" width="4.55" height="4.49" fill="#fff"/><rect x="36.44" y="204.58" width="4.55" height="4.49" fill="none" stroke="#003a50" stroke-miterlimit="10"/><rect x="36.44" y="244.56" width="4.55" height="4.49" fill="#fff"/><rect x="36.44" y="244.56" width="4.55" height="4.49" fill="none" stroke="#003a50" stroke-miterlimit="10"/><g clip-path="url(#clip-path)"><path d="M41,244.56h2.9C64,244.56,77,228.67,77,209.07H41" fill="none" stroke="#003a50" stroke-miterlimit="10"/></g><rect x="36.44" y="21.8" width="4.55" height="86.06" fill="#fff"/><rect x="36.44" y="21.8" width="4.55" height="86.06" fill="none" stroke="#003a50" stroke-miterlimit="10"/><line x1="38.71" y1="21.8" x2="38.71" y2="107.87" fill="none" stroke="#003a50" stroke-miterlimit="10"/><rect x="36.44" y="21.8" width="4.55" height="4.46" fill="#fff"/><rect x="36.44" y="21.8" width="4.55" height="4.46" fill="none" stroke="#003a50" stroke-miterlimit="10"/><rect x="36.44" y="103.4" width="4.55" height="4.46" fill="#fff"/><rect x="36.44" y="103.4" width="4.55" height="4.46" fill="none" stroke="#003a50" stroke-miterlimit="10"/><rect x="36.44" y="63.66" width="4.55" height="4.46" fill="#fff"/><rect x="36.44" y="63.66" width="4.55" height="4.46" fill="none" stroke="#003a50" stroke-miterlimit="10"/><g clip-path="url(#clip-path)"><path d="M41,68.12h2.9C64,68.12,77,83.91,77,103.4H41" fill="none" stroke="#003a50" stroke-miterlimit="10"/><rect x="313.66" y="37.47" width="72.48" height="29.76" fill="none" stroke="#003a50" stroke-miterlimit="10"/></g><rect x="359.61" y="251.88" width="34.02" height="99.6" fill="none" stroke="#003a50" stroke-miterlimit="10"/><g clip-path="url(#clip-path)"><rect x="51.94" y="-33.53" width="230.49" height="34.02" fill="none" stroke="#003a50" stroke-miterlimit="10"/><rect x="386.18" y="-28.84" width="43.33" height="96.06" fill="none" stroke="#003a50" stroke-miterlimit="10"/><path d="M391.55,47.07V-8.69a15.93,15.93,0,0,1,15.93-15.93h.73A15.94,15.94,0,0,1,424.15-8.69V47.07A15.94,15.94,0,0,1,408.21,63h-.73A15.93,15.93,0,0,1,391.55,47.07Z" fill="none" stroke="#003a50" stroke-miterlimit="10"/><path d="M407.85,45.48a2.27,2.27,0,1,1-2.27,2.27A2.27,2.27,0,0,1,407.85,45.48Z" fill="none" stroke="#003a50" stroke-miterlimit="10"/></g><rect x="378.65" y="79.69" width="41.13" height="98.9" fill="none" stroke="#003a50" stroke-miterlimit="10"/><g clip-path="url(#clip-path)"><path d="M414.68,99.5v59.28a15.47,15.47,0,0,1-30.94,0V99.5a15.47,15.47,0,0,1,30.94,0Z" fill="none" stroke="#003a50" stroke-miterlimit="10"/><path d="M399.21,101.94a2.2,2.2,0,1,1,2.2-2.2A2.21,2.21,0,0,1,399.21,101.94Z" fill="none" stroke="#003a50" stroke-miterlimit="10"/><path d="M342.58,10.6H313.73V-12.19h28.85A11.4,11.4,0,0,1,354-.79,11.4,11.4,0,0,1,342.58,10.6Z" fill="none" stroke="#003a50" stroke-miterlimit="10"/><path d="M458.28,130.4h28.85v22.8H458.28a11.4,11.4,0,1,1,0-22.8Z" fill="none" stroke="#003a50" stroke-miterlimit="10"/></g><line x1="475.91" y1="153.2" x2="475.91" y2="130.4" fill="none" stroke="#003a50" stroke-miterlimit="10"/><g clip-path="url(#clip-path)"><rect x="353.42" y="39.87" width="28.96" height="29.71" rx="3.36" fill="none" stroke="#003a50" stroke-miterlimit="10"/><circle cx="367.9" cy="54.72" r="2.27" transform="translate(254.96 409.11) rotate(-80.78)" fill="none" stroke="#003a50" stroke-miterlimit="10"/></g><rect x="419.89" y="80.04" width="37.82" height="26.34" fill="none" stroke="#003a50" stroke-miterlimit="10"/><g clip-path="url(#clip-path)"><rect x="425.49" y="77.94" width="25.64" height="26.31" rx="2.97" fill="none" stroke="#003a50" stroke-miterlimit="10"/><path d="M438.31,93.1a2,2,0,1,1,2-2A2,2,0,0,1,438.31,93.1Z" fill="none" stroke="#003a50" stroke-miterlimit="10"/><rect x="313.97" y="37.48" width="34.02" height="28.84" fill="none" stroke="#003a50" stroke-miterlimit="10"/><path d="M336.28,43.59h-2.11a3.07,3.07,0,0,1-5.72,0h-2.78l-5.29,3,2.53,4,2.38-1.27V60.2h11.37V49.34L339,50.61l2.52-4Z" fill="none" stroke="#003a50" stroke-miterlimit="10"/></g><rect x="457.71" y="80.22" width="30.12" height="25.9" fill="none" stroke="#003a50" stroke-miterlimit="10"/><g clip-path="url(#clip-path)"><path d="M477.47,86.22H475.6a2.73,2.73,0,0,1-5.07,0h-2.46l-4.68,2.68,2.24,3.53,2.11-1.12v9.62H477.8V91.31l2.11,1.12,2.24-3.53Z" fill="none" stroke="#003a50" stroke-miterlimit="10"/><rect x="107.61" y="-33.53" width="34.02" height="34.02" fill="none" stroke="#003a50" stroke-miterlimit="10"/><rect x="217.23" y="-33.53" width="34.02" height="34.02" fill="none" stroke="#003a50" stroke-miterlimit="10"/><rect x="51.96" y="-33.53" width="34.02" height="34.02" fill="none" stroke="#003a50" stroke-miterlimit="10"/></g><rect x="338.81" y="153.12" width="33.05" height="33.05" fill="none" stroke="#003a50" stroke-miterlimit="10"/><line x1="355.33" y1="179.34" x2="355.33" y2="159.95" fill="none" stroke="#003a50" stroke-miterlimit="10"/><line x1="365.03" y1="169.64" x2="345.63" y2="169.64" fill="none" stroke="#003a50" stroke-miterlimit="10"/><line x1="362.19" y1="176.5" x2="348.47" y2="162.79" fill="none" stroke="#003a50" stroke-miterlimit="10"/><line x1="362.19" y1="162.79" x2="348.47" y2="176.5" fill="none" stroke="#003a50" stroke-miterlimit="10"/><g clip-path="url(#clip-path)"><rect x="363.08" y="303.28" width="21.66" height="30.06" rx="3.36" fill="none" stroke="#003a50" stroke-miterlimit="10"/><circle cx="377.7" cy="318.31" r="2.46" transform="matrix(0.53, -0.85, 0.85, 0.53, -91.64, 472.26)" fill="none" stroke="#003a50" stroke-miterlimit="10"/></g><line x1="376.94" y1="318.31" x2="390.56" y2="318.31" fill="none" stroke="#003a50" stroke-miterlimit="10"/><line x1="390.56" y1="325.12" x2="390.56" y2="311.5" fill="none" stroke="#003a50" stroke-miterlimit="10"/><rect x="338.11" y="80.38" width="34.02" height="68.03" fill="none" stroke="#003a50" stroke-miterlimit="10"/><g clip-path="url(#clip-path)"><path d="M342.93,131.29a1,1,0,0,1-.9-.56,1,1,0,0,1,.46-1.34,28.77,28.77,0,0,1,25.26,0,1,1,0,0,1-.89,1.8,26.72,26.72,0,0,0-23.49,0A1,1,0,0,1,342.93,131.29Z" fill="none" stroke="#003a50" stroke-miterlimit="10"/><path d="M342.93,125.73a1,1,0,0,1-.44-1.91,28.77,28.77,0,0,1,25.26,0,1,1,0,0,1,.45,1.34,1,1,0,0,1-1.34.46,26.81,26.81,0,0,0-23.49,0A.87.87,0,0,1,342.93,125.73Z" fill="none" stroke="#003a50" stroke-miterlimit="10"/><path d="M342.93,120.16a1,1,0,0,1-.44-1.9,28.77,28.77,0,0,1,25.26,0,1,1,0,0,1-.89,1.8,26.72,26.72,0,0,0-23.49,0A1,1,0,0,1,342.93,120.16Z" fill="none" stroke="#003a50" stroke-miterlimit="10"/><path d="M342.93,114.6a1,1,0,0,1-.44-1.91,28.77,28.77,0,0,1,25.26,0,1,1,0,0,1,.45,1.34,1,1,0,0,1-1.34.46,26.81,26.81,0,0,0-23.49,0A.87.87,0,0,1,342.93,114.6Z" fill="none" stroke="#003a50" stroke-miterlimit="10"/><path d="M342.93,109a1,1,0,0,1-.44-1.9,28.77,28.77,0,0,1,25.26,0,1,1,0,0,1-.89,1.8,26.72,26.72,0,0,0-23.49,0A1,1,0,0,1,342.93,109Z" fill="none" stroke="#003a50" stroke-miterlimit="10"/><path d="M342.93,103.47a1,1,0,0,1-.44-1.91,28.77,28.77,0,0,1,25.26,0,1,1,0,0,1,.45,1.34,1,1,0,0,1-1.34.46,26.81,26.81,0,0,0-23.49,0A1,1,0,0,1,342.93,103.47Z" fill="none" stroke="#003a50" stroke-miterlimit="10"/><path d="M342.93,136.86a1,1,0,0,1-.44-1.91,28.77,28.77,0,0,1,25.26,0,1,1,0,0,1,.45,1.34,1,1,0,0,1-1.34.46,26.81,26.81,0,0,0-23.49,0A.87.87,0,0,1,342.93,136.86Z" fill="none" stroke="#003a50" stroke-miterlimit="10"/><path d="M342.93,142.42a1,1,0,0,1-.9-.56,1,1,0,0,1,.46-1.34,28.77,28.77,0,0,1,25.26,0,1,1,0,0,1-.89,1.8,26.72,26.72,0,0,0-23.49,0A1,1,0,0,1,342.93,142.42Z" fill="none" stroke="#003a50" stroke-miterlimit="10"/></g><line x1="355.12" y1="148.41" x2="355.12" y2="80.77" fill="none" stroke="#003a50" stroke-miterlimit="10"/><g clip-path="url(#clip-path)"><path d="M290.75,82.52a1,1,0,0,1,1.91-.44,28.77,28.77,0,0,1,0,25.26,1,1,0,0,1-1.34.45,1,1,0,0,1-.46-1.34,26.81,26.81,0,0,0,0-23.49A1,1,0,0,1,290.75,82.52Z" fill="none" stroke="#003a50" stroke-miterlimit="10"/><path d="M296.32,82.52a1,1,0,0,1,1.9-.44,28.77,28.77,0,0,1,0,25.26,1,1,0,0,1-1.8-.89,26.72,26.72,0,0,0,0-23.49A1,1,0,0,1,296.32,82.52Z" fill="none" stroke="#003a50" stroke-miterlimit="10"/><path d="M301.88,82.52a1,1,0,0,1,1.91-.44,28.77,28.77,0,0,1,0,25.26,1,1,0,0,1-1.34.45,1,1,0,0,1-.46-1.34A26.81,26.81,0,0,0,302,83,1,1,0,0,1,301.88,82.52Z" fill="none" stroke="#003a50" stroke-miterlimit="10"/><path d="M307.45,82.52a1,1,0,0,1,1.9-.44,28.77,28.77,0,0,1,0,25.26,1,1,0,0,1-1.8-.89,26.72,26.72,0,0,0,0-23.49A1,1,0,0,1,307.45,82.52Z" fill="none" stroke="#003a50" stroke-miterlimit="10"/><path d="M313,82.52a1,1,0,0,1,.56-.9,1,1,0,0,1,1.34.46,28.77,28.77,0,0,1,0,25.26,1,1,0,0,1-1.8-.89,26.72,26.72,0,0,0,0-23.49A1,1,0,0,1,313,82.52Z" fill="none" stroke="#003a50" stroke-miterlimit="10"/><path d="M318.58,82.52a1,1,0,0,1,1.9-.44,28.77,28.77,0,0,1,0,25.26,1,1,0,0,1-1.8-.89,26.72,26.72,0,0,0,0-23.49A1,1,0,0,1,318.58,82.52Z" fill="none" stroke="#003a50" stroke-miterlimit="10"/><path d="M285.19,82.52a1,1,0,0,1,1.9-.44,28.77,28.77,0,0,1,0,25.26,1,1,0,0,1-1.8-.89,26.72,26.72,0,0,0,0-23.49A1,1,0,0,1,285.19,82.52Z" fill="none" stroke="#003a50" stroke-miterlimit="10"/><path d="M279.62,82.52a1,1,0,0,1,1.91-.44,28.77,28.77,0,0,1,0,25.26,1,1,0,0,1-1.34.45,1,1,0,0,1-.46-1.34,26.81,26.81,0,0,0,0-23.49A1,1,0,0,1,279.62,82.52Z" fill="none" stroke="#003a50" stroke-miterlimit="10"/></g><line x1="272.9" y1="94.71" x2="338.11" y2="94.71" fill="none" stroke="#003a50" stroke-miterlimit="10"/><rect x="272.9" y="79.69" width="65.21" height="29.22" fill="none" stroke="#003a50" stroke-miterlimit="10"/><g clip-path="url(#clip-path)"><rect x="436.46" y="35.26" width="56.47" height="30.8" fill="none" stroke="#003a50" stroke-miterlimit="10"/><path d="M452,39.63a.9.9,0,0,1,1.72-.4,26.06,26.06,0,0,1,0,22.86.91.91,0,1,1-1.63-.8,24.2,24.2,0,0,0,0-21.26A.83.83,0,0,1,452,39.63Z" fill="none" stroke="#003a50" stroke-miterlimit="10"/><path d="M457,39.63a.9.9,0,0,1,1.72-.4,26.06,26.06,0,0,1,0,22.86.91.91,0,1,1-1.63-.8,24.2,24.2,0,0,0,0-21.26A.83.83,0,0,1,457,39.63Z" fill="none" stroke="#003a50" stroke-miterlimit="10"/><path d="M462,39.63a.91.91,0,0,1,1.73-.4,26.06,26.06,0,0,1,0,22.86.91.91,0,1,1-1.63-.8,24.2,24.2,0,0,0,0-21.26A.85.85,0,0,1,462,39.63Z" fill="none" stroke="#003a50" stroke-miterlimit="10"/><path d="M467.07,39.63a.91.91,0,0,1,1.73-.4,26.06,26.06,0,0,1,0,22.86.91.91,0,1,1-1.63-.8,24.2,24.2,0,0,0,0-21.26A.85.85,0,0,1,467.07,39.63Z" fill="none" stroke="#003a50" stroke-miterlimit="10"/><path d="M472.11,39.63a.91.91,0,0,1,1.73-.4,26.06,26.06,0,0,1,0,22.86.91.91,0,1,1-1.63-.8,24.29,24.29,0,0,0,0-21.26A.85.85,0,0,1,472.11,39.63Z" fill="none" stroke="#003a50" stroke-miterlimit="10"/><path d="M477.15,39.63a.91.91,0,0,1,1.73-.4,26.06,26.06,0,0,1,0,22.86.91.91,0,1,1-1.63-.8,24.29,24.29,0,0,0,0-21.26A.85.85,0,0,1,477.15,39.63Z" fill="none" stroke="#003a50" stroke-miterlimit="10"/><path d="M446.92,39.63a.92.92,0,0,1,.51-.82.9.9,0,0,1,1.21.42,26,26,0,0,1,0,22.86.91.91,0,1,1-1.63-.8A24.2,24.2,0,0,0,447,40,1,1,0,0,1,446.92,39.63Z" fill="none" stroke="#003a50" stroke-miterlimit="10"/><path d="M441.88,39.63a.92.92,0,0,1,.51-.82.9.9,0,0,1,1.21.42,26,26,0,0,1,0,22.86.91.91,0,1,1-1.63-.8A24.2,24.2,0,0,0,442,40,1,1,0,0,1,441.88,39.63Z" fill="none" stroke="#003a50" stroke-miterlimit="10"/></g><rect x="399.57" y="257.04" width="34.02" height="70.33" fill="none" stroke="#003a50" stroke-miterlimit="10"/><rect x="436.01" y="327.84" width="39.54" height="23.61" fill="none" stroke="#003a50" stroke-miterlimit="10"/><rect x="291.82" y="152.84" width="33.59" height="33.59" fill="none" stroke="#003a50" stroke-miterlimit="10"/><g clip-path="url(#clip-path)"><circle cx="316.29" cy="177.15" r="4.58" fill="none" stroke="#003a50" stroke-miterlimit="10"/><circle cx="301" cy="177.15" r="4.58" fill="none" stroke="#003a50" stroke-miterlimit="10"/><circle cx="316.29" cy="162.25" r="4.58" fill="none" stroke="#003a50" stroke-miterlimit="10"/><circle cx="301" cy="162.25" r="4.58" fill="none" stroke="#003a50" stroke-miterlimit="10"/></g><rect x="83.57" y="163.44" width="102.05" height="17.01" fill="none" stroke="#003a50" stroke-miterlimit="10"/><polygon points="91.6 171.41 134.49 174.94 177.6 171.41 177.6 168.95 91.6 168.95 91.6 171.41" fill="none" stroke="#003a50" stroke-miterlimit="10"/><rect x="83.61" y="186.83" width="102.05" height="17.01" fill="none" stroke="#003a50" stroke-miterlimit="10"/><polygon points="177.64 195.87 134.74 192.34 91.64 195.87 91.64 198.33 177.64 198.33 177.64 195.87" fill="none" stroke="#003a50" stroke-miterlimit="10"/><rect x="272.74" y="152.85" width="100" height="33.59" fill="none" stroke="#003a50" stroke-miterlimit="10"/><g clip-path="url(#clip-path)"><path d="M300.66,293.93a1.25,1.25,0,0,1-.94-1.5,13.78,13.78,0,1,0-26.87-6.16,1.26,1.26,0,0,1-2.46-.57A16.3,16.3,0,0,1,302.17,293,1.25,1.25,0,0,1,300.66,293.93Z" fill="none" stroke="#003a50" stroke-miterlimit="10"/><path d="M245.49,284.22a1.26,1.26,0,0,1-1.75.33,13.78,13.78,0,1,0-15.52,22.78,1.26,1.26,0,0,1-1.42,2.08,16.3,16.3,0,0,1,18.36-26.94A1.25,1.25,0,0,1,245.49,284.22Z" fill="none" stroke="#003a50" stroke-miterlimit="10"/><path d="M243,331.62a1.26,1.26,0,0,1,1.33,1.18,13.78,13.78,0,1,0,27.52-1.63,1.26,1.26,0,1,1,2.51-.15A16.3,16.3,0,1,1,241.81,333,1.25,1.25,0,0,1,243,331.62Z" fill="none" stroke="#003a50" stroke-miterlimit="10"/><path d="M286.46,277.32a12.69,12.69,0,0,1,12,15.48l-2,8.88a3.53,3.53,0,0,1-4.24,2.68l-13.44-3.08a23.73,23.73,0,0,0-6-9.44l1-4.2C275.06,281.68,280.34,277.12,286.46,277.32Z" fill="none" stroke="#003a50" stroke-miterlimit="10"/><path d="M243.66,285.84l2.32,1.6a23.81,23.81,0,0,0-13.64,21.32L229.82,307c-5-3.44-7.4-10-5-15.64A12.7,12.7,0,0,1,243.66,285.84Z" fill="none" stroke="#003a50" stroke-miterlimit="10"/><path d="M270.5,328.12l.12,2c.36,6.12-3.4,12-9.32,13.48a12.66,12.66,0,0,1-15.88-11.48l-.12-1.84a23.93,23.93,0,0,0,16.64,1.92A23.5,23.5,0,0,0,270.5,328.12Z" fill="none" stroke="#003a50" stroke-miterlimit="10"/><path d="M272.74,291.84a23.73,23.73,0,0,1,6,9.44,16.51,16.51,0,0,1,.6,2,23.85,23.85,0,0,1-8.84,24.84,23.5,23.5,0,0,1-8.56,4A23.87,23.87,0,0,1,233,314.76a22.12,22.12,0,0,1-.68-6A23.81,23.81,0,0,1,246,287.44a22.85,22.85,0,0,1,4.48-1.6A23.8,23.8,0,0,1,272.74,291.84Z" fill="none" stroke="#003a50" stroke-miterlimit="10"/><path d="M141.8,305.75v41H96V303.54h43.56A2.21,2.21,0,0,1,141.8,305.75Z" fill="none" stroke="#003a50" stroke-miterlimit="10"/><path d="M187.67,305.52v41.26H141.9V305.52a2,2,0,0,1,2-2h41.8A2,2,0,0,1,187.67,305.52Z" fill="none" stroke="#003a50" stroke-miterlimit="10"/><path d="M96,303.54a3.11,3.11,0,0,0-3.33-2.83H88.48a3.12,3.12,0,0,0-3.33,2.83v48.2H198.54V304a3.11,3.11,0,0,0-3.33-2.83H191a3.11,3.11,0,0,0-3.32,2.83v42.83H96Z" fill="none" stroke="#003a50" stroke-miterlimit="10"/></g><rect x="96.03" y="337.54" width="91.64" height="9.25" fill="none" stroke="#003a50" stroke-miterlimit="10"/><rect x="54.61" y="13.85" width="22.68" height="22.68" fill="none" stroke="#003a50" stroke-miterlimit="10"/><g clip-path="url(#clip-path)"><path d="M72.45,31.69a9.2,9.2,0,1,1,0-13A9.21,9.21,0,0,1,72.45,31.69Z" fill="none" stroke="#003a50" stroke-miterlimit="10"/><path d="M73.07,31c-1.69-.16-3.41.49-5.06-1.17-2.44-2.43.14-5-2.3-7.45s-5,.14-7.46-2.3" fill="none" stroke="#003a50" stroke-miterlimit="10"/></g><rect x="191.91" y="13.85" width="22.68" height="22.68" fill="none" stroke="#003a50" stroke-miterlimit="10"/><g clip-path="url(#clip-path)"><path d="M209.75,31.69a9.2,9.2,0,1,1,0-13A9.21,9.21,0,0,1,209.75,31.69Z" fill="none" stroke="#003a50" stroke-miterlimit="10"/><path d="M210.37,31c-1.69-.16-3.41.49-5.06-1.17-2.44-2.43.14-5-2.3-7.45s-5,.14-7.46-2.3" fill="none" stroke="#003a50" stroke-miterlimit="10"/></g><rect x="83.61" y="13.85" width="102.05" height="113.39" fill="none" stroke="#003a50" stroke-miterlimit="10"/><g clip-path="url(#clip-path)"><path d="M175.66,117.49h-82a2.08,2.08,0,0,1-2.09-2.08V47.77h86.22v67.64A2.08,2.08,0,0,1,175.66,117.49Z" fill="none" stroke="#003a50" stroke-miterlimit="10"/><rect x="91.28" y="21.28" width="42.5" height="22.88" rx="1.98" fill="none" stroke="#003a50" stroke-miterlimit="10"/><rect x="135.5" y="21.28" width="42.5" height="22.88" rx="1.98" fill="none" stroke="#003a50" stroke-miterlimit="10"/></g><line x1="178" y1="61.62" x2="91.28" y2="61.62" fill="none" stroke="#003a50" stroke-miterlimit="10"/><g clip-path="url(#clip-path)"><path d="M404.41,310.25a1,1,0,0,1-.45-1.9,28.77,28.77,0,0,1,25.26,0,1,1,0,0,1-.88,1.8,26.72,26.72,0,0,0-23.49,0A1,1,0,0,1,404.41,310.25Z" fill="none" stroke="#003a50" stroke-miterlimit="10"/><path d="M404.41,304.69a1,1,0,0,1-.45-1.9,28.77,28.77,0,0,1,25.26,0,1,1,0,0,1-.88,1.8,26.72,26.72,0,0,0-23.49,0A1,1,0,0,1,404.41,304.69Z" fill="none" stroke="#003a50" stroke-miterlimit="10"/><path d="M404.41,299.12a1,1,0,0,1-.45-1.9,28.77,28.77,0,0,1,25.26,0,1,1,0,0,1-.88,1.8,26.72,26.72,0,0,0-23.49,0A1,1,0,0,1,404.41,299.12Z" fill="none" stroke="#003a50" stroke-miterlimit="10"/><path d="M404.41,293.56a1,1,0,0,1-.45-1.91,28.77,28.77,0,0,1,25.26,0,1,1,0,0,1,.46,1.34,1,1,0,0,1-1.34.46,26.81,26.81,0,0,0-23.49,0A.87.87,0,0,1,404.41,293.56Z" fill="none" stroke="#003a50" stroke-miterlimit="10"/><path d="M404.41,288a1,1,0,0,1-.45-1.9,28.77,28.77,0,0,1,25.26,0,1,1,0,0,1-.88,1.8,26.72,26.72,0,0,0-23.49,0A1,1,0,0,1,404.41,288Z" fill="none" stroke="#003a50" stroke-miterlimit="10"/><path d="M404.41,282.43a1,1,0,0,1-.45-1.91,28.77,28.77,0,0,1,25.26,0,1,1,0,0,1,.46,1.34,1,1,0,0,1-1.34.46,26.81,26.81,0,0,0-23.49,0A.87.87,0,0,1,404.41,282.43Z" fill="none" stroke="#003a50" stroke-miterlimit="10"/><path d="M404.41,315.82a1,1,0,0,1-.45-1.9,28.77,28.77,0,0,1,25.26,0,1,1,0,0,1-.88,1.8,26.72,26.72,0,0,0-23.49,0A1,1,0,0,1,404.41,315.82Z" fill="none" stroke="#003a50" stroke-miterlimit="10"/><path d="M404.41,321.39a1,1,0,0,1-.45-1.91,28.77,28.77,0,0,1,25.26,0,1,1,0,0,1,.46,1.34,1,1,0,0,1-1.34.46,26.81,26.81,0,0,0-23.49,0A1,1,0,0,1,404.41,321.39Z" fill="none" stroke="#003a50" stroke-miterlimit="10"/></g><line x1="416.59" y1="327.37" x2="416.59" y2="257.04" fill="none" stroke="#003a50" stroke-miterlimit="10"/><g clip-path="url(#clip-path)"><path d="M232.18,43.46a14.77,14.77,0,0,0-15.92,23.38,1.13,1.13,0,0,0,1.6.18,1.14,1.14,0,0,0,.17-1.61,12.47,12.47,0,0,1,14.15-19.5Z" fill="none" stroke="#003a50" stroke-miterlimit="10"/><rect x="232.18" y="13.68" width="34.02" height="84.03" rx="3.31" fill="none" stroke="#003a50" stroke-miterlimit="10"/><path d="M262.49,16.23a1.4,1.4,0,0,0-1.4,1.4V93.77a1.4,1.4,0,0,0,2.79,0V17.63a1.39,1.39,0,0,0-1.39-1.4" fill="none" stroke="#003a50" stroke-miterlimit="10"/><path d="M247.91,84a5.51,5.51,0,1,1,0,7.79A5.51,5.51,0,0,1,247.91,84Z" fill="none" stroke="#003a50" stroke-miterlimit="10"/><path d="M247.54,84.45c1,.1,2-.29,3,.7,1.46,1.46-.08,3,1.38,4.47s3-.08,4.47,1.38" fill="none" stroke="#003a50" stroke-miterlimit="10"/><path d="M232.18,48.16a10.64,10.64,0,1,0,0,19.6Z" fill="none" stroke="#003a50" stroke-miterlimit="10"/></g><rect x="359.61" y="251.6" width="34.02" height="34.02" fill="none" stroke="#003a50" stroke-miterlimit="10"/><line x1="375.89" y1="270.62" x2="375.89" y2="281.18" fill="none" stroke="#003a50" stroke-miterlimit="10"/><g clip-path="url(#clip-path)"><path d="M376.8,270.62H375a3.4,3.4,0,0,1-3.4-3.39V256h8.61v11.2A3.39,3.39,0,0,1,376.8,270.62Z" fill="none" stroke="#003a50" stroke-miterlimit="10"/></g><line x1="372.41" y1="281.19" x2="379.36" y2="281.19" fill="none" stroke="#003a50" stroke-miterlimit="10"/><g clip-path="url(#clip-path)"><path d="M425.44,181.61v3.08a38.72,38.72,0,0,0,38.71,38.72v-41.8" fill="none" stroke="#003a50" stroke-miterlimit="10" stroke-width="1.6"/><path d="M216.83,183.75v-3.58a45.06,45.06,0,0,1,45.06-45.06v48.64" fill="none" stroke="#003a50" stroke-miterlimit="10" stroke-width="1.6"/><path d="M524,244h4.07A51.13,51.13,0,0,0,579.2,192.9H524" fill="none" stroke="#003a50" stroke-miterlimit="10" stroke-width="1.6"/><line x1="492.99" y1="246.87" x2="438.5" y2="246.87" fill="none" stroke="#003a50" stroke-miterlimit="10" stroke-width="1.6"/><rect x="11.24" y="-73.26" width="40.43" height="94.57" fill="#003a50"/><rect x="16.08" y="291.35" width="35.6" height="97.19" fill="#003a50"/><rect x="3.35" y="291.35" width="44.33" height="25.9" fill="#003a50"/><rect x="37.51" y="351.98" width="491.33" height="13.79" fill="#003a50"/><rect x="37.51" y="-0.02" width="249.5" height="13.79" fill="#003a50"/><rect x="277.18" y="66.31" width="249.5" height="13.79" fill="#003a50"/><rect x="512.68" y="66.12" width="16.81" height="127.55" fill="#003a50"/><rect x="512.68" y="242.98" width="16.81" height="17.72" fill="#003a50"/><rect x="475.72" y="250.98" width="53.77" height="11.84" fill="#003a50"/><rect x="475.72" y="256.9" width="10.5" height="98.45" fill="#003a50"/><rect x="493.18" y="-33.04" width="11.67" height="106.25" fill="#003a50"/><rect x="271.17" y="-0.02" width="15.84" height="80.12" fill="#003a50"/><rect x="3.34" y="107.9" width="48.33" height="96.47" fill="#003a50"/><rect x="307.07" y="-28.56" width="6.38" height="99.52" fill="#003a50"/><rect x="266.53" y="6.87" width="6.38" height="102.03" fill="#003a50"/><rect x="266.53" y="146.54" width="6.38" height="39.96" fill="#003a50"/><rect x="429.83" y="-28.56" width="6.38" height="99.52" fill="#003a50"/><rect x="282.08" y="-28.56" width="6.38" height="99.52" fill="#003a50"/><rect x="523.11" y="256.14" width="6.38" height="132.4" fill="#003a50"/><rect x="393.13" y="251.84" width="6.38" height="106.7" fill="#003a50"/><rect x="523.11" y="-37.04" width="6.38" height="107.23" fill="#003a50"/><rect x="372.75" y="178.86" width="53.52" height="6.38" fill="#003a50"/><rect x="372.15" y="75.92" width="6.38" height="108.39" fill="#003a50"/><rect x="463.32" y="178.87" width="63.43" height="6.38" fill="#003a50"/><rect x="393.13" y="250.86" width="41.3" height="6.38" fill="#003a50"/><rect x="395.47" y="327.55" width="40.36" height="6.38" fill="#003a50"/><rect x="429.45" y="327.55" width="6.38" height="25.8" fill="#003a50"/><rect x="471.49" y="250.86" width="55.26" height="6.38" fill="#003a50"/><rect x="489.54" y="157.07" width="29.83" height="6.38" fill="#003a50"/><rect x="487.43" y="77.17" width="6.38" height="104.88" fill="#003a50"/><rect x="41.91" y="180.13" width="175.76" height="6.38" fill="#003a50"/><rect x="261.13" y="180.13" width="11.77" height="6.38" fill="#003a50"/><rect x="269.08" y="146.54" width="107.25" height="7.69" fill="#003a50"/><line x1="393.63" y1="265.11" x2="393.63" y2="262.27" fill="none" stroke="#003a50" stroke-miterlimit="10"/><line x1="393.63" y1="256.51" x2="393.63" y2="190.18" fill="none" stroke="#003a50" stroke-miterlimit="10" stroke-dasharray="5.77 5.77"/><line x1="393.63" y1="187.3" x2="393.63" y2="184.46" fill="none" stroke="#003a50" stroke-miterlimit="10"/></g><g clip-path="url(#clip-path)"><path d="M29.85,276.25a4.61,4.61,0,0,1-3.12,1,4.61,4.61,0,0,1-3.12-1,4,4,0,0,1,0-5.74,4.61,4.61,0,0,1,3.12-1,4.61,4.61,0,0,1,3.12,1,4,4,0,0,1,0,5.74Zm-1-4.61a3.52,3.52,0,0,0-2.14-.61,3.55,3.55,0,0,0-2.15.61,2.23,2.23,0,0,0,0,3.47,3.53,3.53,0,0,0,2.15.62,3.52,3.52,0,0,0,2.14-.62,2,2,0,0,0,.84-1.73A2.05,2.05,0,0,0,28.87,271.64Z" fill="#003a50"/><path d="M30.84,267.92a.82.82,0,0,1-1.14,0,.87.87,0,0,1-.21-.61.85.85,0,0,1,.21-.61.82.82,0,0,1,1.14,0,.85.85,0,0,1,.21.61A.87.87,0,0,1,30.84,267.92Z" fill="#003a50"/><path d="M24.9,258.31v1.56s0,0-.13,0a1.2,1.2,0,0,0-.31.15,2.33,2.33,0,0,0-.35.27,1.4,1.4,0,0,0-.29.5,2.07,2.07,0,0,0-.11.71,1.77,1.77,0,0,0,.72,1.52,3.12,3.12,0,0,0,1.9.54v0a1.12,1.12,0,0,1-.31-.31,2.73,2.73,0,0,1-.26-.43,3.14,3.14,0,0,1-.21-.67,4,4,0,0,1-.09-.86,3.57,3.57,0,0,1,.78-2.38,2.49,2.49,0,0,1,2-.92,2.52,2.52,0,0,1,2.05,1,3.92,3.92,0,0,1,.78,2.55A3.41,3.41,0,0,1,30,264.22a4.5,4.5,0,0,1-3,.93h-.29a4.83,4.83,0,0,1-3-.93,3.18,3.18,0,0,1-1.21-2.69,4.14,4.14,0,0,1,.26-1.5,2.83,2.83,0,0,1,.67-1A2.44,2.44,0,0,1,24.9,258.31Zm2.22,1.77a2.58,2.58,0,0,0,0,2.79,1.3,1.3,0,0,0,1.11.55,1.34,1.34,0,0,0,1.11-.54,2.6,2.6,0,0,0,0-2.8,1.32,1.32,0,0,0-1.11-.55A1.3,1.3,0,0,0,27.12,260.08Z" fill="#003a50"/><path d="M29.85,93.82a4.57,4.57,0,0,1-3.12,1.05,4.57,4.57,0,0,1-3.12-1.05,4,4,0,0,1,0-5.73,4.57,4.57,0,0,1,3.12-1,4.57,4.57,0,0,1,3.12,1,4,4,0,0,1,0,5.73Zm-1-4.6a3.52,3.52,0,0,0-2.14-.62,3.56,3.56,0,0,0-2.15.62,2.23,2.23,0,0,0,0,3.47,3.53,3.53,0,0,0,2.15.62,3.52,3.52,0,0,0,2.14-.62,2.21,2.21,0,0,0,0-3.47Z" fill="#003a50"/><path d="M30.84,85.5a.82.82,0,0,1-1.14,0,.9.9,0,0,1-.21-.62.87.87,0,0,1,.21-.61.82.82,0,0,1,1.14,0,.87.87,0,0,1,.21.61A.9.9,0,0,1,30.84,85.5Z" fill="#003a50"/><path d="M24.9,75.89v1.56s0,0-.13,0a1.85,1.85,0,0,0-.31.16,1.49,1.49,0,0,0-.35.27,1.25,1.25,0,0,0-.29.5,2,2,0,0,0-.11.71,1.78,1.78,0,0,0,.72,1.52,3.12,3.12,0,0,0,1.9.54v0a1.28,1.28,0,0,1-.31-.31,4.1,4.1,0,0,1-.26-.43,3.14,3.14,0,0,1-.21-.67,4.12,4.12,0,0,1-.09-.86,3.57,3.57,0,0,1,.78-2.38,2.49,2.49,0,0,1,2-.92,2.52,2.52,0,0,1,2.05,1,3.89,3.89,0,0,1,.78,2.54A3.41,3.41,0,0,1,30,81.79a4.45,4.45,0,0,1-3,.94h-.29a4.77,4.77,0,0,1-3-.94,3.16,3.16,0,0,1-1.21-2.68,4.14,4.14,0,0,1,.26-1.5,2.74,2.74,0,0,1,.67-1A2.39,2.39,0,0,1,24.9,75.89Zm2.22,1.77a2.21,2.21,0,0,0-.41,1.39,2.26,2.26,0,0,0,.41,1.4,1.4,1.4,0,0,0,2.22,0,2.28,2.28,0,0,0,.41-1.4,2.32,2.32,0,0,0-.41-1.4,1.34,1.34,0,0,0-1.11-.54A1.3,1.3,0,0,0,27.12,77.66Z" fill="#003a50"/><path d="M465.11,10.38l-2.48,2V10.09l2.73-2.26h1.86V19.74h-2.11Z" fill="#003a50"/><path d="M469.74,19.6a1,1,0,0,1-.32-.8,1.07,1.07,0,0,1,.32-.81,1.25,1.25,0,0,1,.88-.3,1.22,1.22,0,0,1,.86.3,1,1,0,0,1,.32.81,1,1,0,0,1-.32.8,1.22,1.22,0,0,1-.86.3A1.25,1.25,0,0,1,469.74,19.6Z" fill="#003a50"/><path d="M482.33,19A7.73,7.73,0,0,1,475,19a2.94,2.94,0,0,1-1.37-2.55,2.71,2.71,0,0,1,.26-1.17,2.37,2.37,0,0,1,.65-.85,4,4,0,0,1,1.4-.78l.26-.06v-.09a3.38,3.38,0,0,1-.77-.29,2.91,2.91,0,0,1-.66-.44,2.35,2.35,0,0,1-.54-.76,2.39,2.39,0,0,1-.23-1,2.8,2.8,0,0,1,1.26-2.38,5.74,5.74,0,0,1,3.42-.9,5.81,5.81,0,0,1,3.43.9,2.82,2.82,0,0,1,1.24,2.38,2.43,2.43,0,0,1-.22,1,1.9,1.9,0,0,1-.55.75,3.59,3.59,0,0,1-1.19.68l-.23.05v.09a2.45,2.45,0,0,1,.28.06,6.14,6.14,0,0,1,.63.27,4.12,4.12,0,0,1,.77.51,2.77,2.77,0,0,1,.89,2A3,3,0,0,1,482.33,19Zm-5.79-1.35a3.84,3.84,0,0,0,2.1.48,3.94,3.94,0,0,0,2.1-.47,1.53,1.53,0,0,0,.74-1.35,1.51,1.51,0,0,0-.74-1.35,4.93,4.93,0,0,0-4.2,0,1.59,1.59,0,0,0,0,2.69Zm-.37-6.52a1.37,1.37,0,0,0,.65,1.19,4,4,0,0,0,3.64,0,1.42,1.42,0,0,0,0-2.39,3.94,3.94,0,0,0-3.62,0A1.36,1.36,0,0,0,476.17,11.1Z" fill="#003a50"/><path d="M361.53,9.67h-5.82V7.83h8.86V9.67l-4.52,2.65v.07h1.27a3.87,3.87,0,0,1,2.8,1,3.52,3.52,0,0,1,1.05,2.66,3.33,3.33,0,0,1-1.33,2.83,7,7,0,0,1-7.24,0A3.36,3.36,0,0,1,355.27,16v-.32h2.11V16c0,1.36.95,2,2.84,2s2.84-.67,2.84-2-.95-2-2.84-2H357V12.42l4.57-2.68Z" fill="#003a50"/><path d="M367.27,19.6a1,1,0,0,1-.32-.8,1,1,0,0,1,.32-.81A1.41,1.41,0,0,1,369,18a1.07,1.07,0,0,1,.32.81,1,1,0,0,1-.32.8,1.41,1.41,0,0,1-1.74,0Z" fill="#003a50"/><path d="M379.85,19a7.71,7.71,0,0,1-7.36,0,2.92,2.92,0,0,1-1.37-2.55,2.7,2.7,0,0,1,.25-1.17,2.29,2.29,0,0,1,.66-.85,4,4,0,0,1,1.39-.78l.26-.06v-.09a3.51,3.51,0,0,1-.76-.29,3.24,3.24,0,0,1-.67-.44,2.35,2.35,0,0,1-.54-.76,2.38,2.38,0,0,1-.22-1,2.81,2.81,0,0,1,1.25-2.38,5.75,5.75,0,0,1,3.43-.9,5.84,5.84,0,0,1,3.43.9,2.82,2.82,0,0,1,1.24,2.38,2.43,2.43,0,0,1-.22,1,2,2,0,0,1-.55.75,3.72,3.72,0,0,1-1.2.68l-.22.05v.09l.28.06a5.42,5.42,0,0,1,.62.27,4.21,4.21,0,0,1,.78.51,2.69,2.69,0,0,1,.61.82,2.65,2.65,0,0,1,.27,1.2A2.94,2.94,0,0,1,379.85,19Zm-5.79-1.35a3.85,3.85,0,0,0,2.11.48,4,4,0,0,0,2.1-.47,1.53,1.53,0,0,0,.74-1.35,1.51,1.51,0,0,0-.74-1.35,4.95,4.95,0,0,0-4.21,0,1.6,1.6,0,0,0,0,2.69Zm-.36-6.52a1.36,1.36,0,0,0,.64,1.19,4,4,0,0,0,3.65,0,1.36,1.36,0,0,0,.64-1.19A1.38,1.38,0,0,0,378,9.9a3.27,3.27,0,0,0-1.81-.44,3.23,3.23,0,0,0-1.81.44A1.36,1.36,0,0,0,373.7,11.1Z" fill="#003a50"/><path d="M154.71,139.34l-2.48,1.95v-2.24l2.73-2.27h1.86v11.91h-2.11Z" fill="#003a50"/><path d="M169.21,148.69h-9.93v-1.56a2.85,2.85,0,0,1,.58-1.75,4.11,4.11,0,0,1,1.45-1.19c.5-.26,1.12-.54,1.87-.86s1.32-.56,1.87-.78a4.21,4.21,0,0,0,1.45-.91,1.8,1.8,0,0,0,.57-1.3c0-1.26-.89-1.89-2.66-1.89s-2.68.72-2.68,2.16V141h-2.11v-.41a3.65,3.65,0,0,1,1.26-3,5.45,5.45,0,0,1,3.52-1,5.65,5.65,0,0,1,3.51,1,3.27,3.27,0,0,1,1.27,2.75,3.17,3.17,0,0,1-.56,1.83,4.16,4.16,0,0,1-1.4,1.3,17.49,17.49,0,0,1-1.83.93q-.94.42-1.83.75a5.33,5.33,0,0,0-1.41.75,1.23,1.23,0,0,0-.56.95h7.62Z" fill="#003a50"/><path d="M171.31,148.56a1.17,1.17,0,0,1,0-1.61,1.25,1.25,0,0,1,.88-.3,1.22,1.22,0,0,1,.86.3,1.17,1.17,0,0,1,0,1.61,1.22,1.22,0,0,1-.86.3A1.25,1.25,0,0,1,171.31,148.56Z" fill="#003a50"/><path d="M185.09,148.69h-9.93v-1.56a2.79,2.79,0,0,1,.58-1.75,4,4,0,0,1,1.45-1.19c.49-.26,1.12-.54,1.87-.86s1.32-.56,1.87-.78a4.21,4.21,0,0,0,1.45-.91,1.8,1.8,0,0,0,.57-1.3q0-1.89-2.67-1.89t-2.67,2.16V141H175.5v-.41a3.65,3.65,0,0,1,1.26-3,5.45,5.45,0,0,1,3.52-1,5.65,5.65,0,0,1,3.51,1,3.27,3.27,0,0,1,1.27,2.75,3.17,3.17,0,0,1-.56,1.83,4.16,4.16,0,0,1-1.4,1.3,16.7,16.7,0,0,1-1.84.93c-.62.28-1.23.53-1.82.75a5.18,5.18,0,0,0-1.41.75,1.23,1.23,0,0,0-.56.95h7.62Z" fill="#003a50"/><path d="M436.79,162.5H431v-1.84h8.86v1.84l-4.52,2.65v.07h1.27a3.91,3.91,0,0,1,2.8,1,3.52,3.52,0,0,1,1.05,2.67,3.32,3.32,0,0,1-1.33,2.82,6.93,6.93,0,0,1-7.24,0,3.35,3.35,0,0,1-1.33-2.85v-.33h2.11v.33c0,1.36.95,2,2.84,2s2.84-.67,2.84-2-.95-2-2.84-2h-3.26v-1.67l4.57-2.68Z" fill="#003a50"/><path d="M442.53,172.44a1.17,1.17,0,0,1,0-1.61,1.41,1.41,0,0,1,1.74,0,1.17,1.17,0,0,1,0,1.61,1.41,1.41,0,0,1-1.74,0Z" fill="#003a50"/><path d="M455.11,171.81a6.4,6.4,0,0,1-3.68.93,6.49,6.49,0,0,1-3.68-.94,2.94,2.94,0,0,1-1.37-2.56,2.66,2.66,0,0,1,.25-1.16,2.43,2.43,0,0,1,.66-.86,4.05,4.05,0,0,1,1.4-.77l.25-.07v-.09a3.51,3.51,0,0,1-.76-.29,2.88,2.88,0,0,1-.67-.44,2.15,2.15,0,0,1-.54-.76,2.54,2.54,0,0,1-.22-1,2.81,2.81,0,0,1,1.25-2.38,5.77,5.77,0,0,1,3.43-.9,5.84,5.84,0,0,1,3.43.9,2.82,2.82,0,0,1,1.24,2.38,2.47,2.47,0,0,1-.22,1,1.87,1.87,0,0,1-.55.74,3.72,3.72,0,0,1-1.2.68l-.22,0v.09l.28.07c.1,0,.31.12.62.26a4.79,4.79,0,0,1,.78.51,2.82,2.82,0,0,1,.61.82,2.71,2.71,0,0,1,.28,1.2A3,3,0,0,1,455.11,171.81Zm-5.78-1.36a3.79,3.79,0,0,0,2.1.48,3.89,3.89,0,0,0,2.1-.47,1.52,1.52,0,0,0,.74-1.35,1.5,1.5,0,0,0-.74-1.34,3.89,3.89,0,0,0-2.1-.47,3.85,3.85,0,0,0-2.1.47,1.58,1.58,0,0,0,0,2.68Zm-.37-6.52a1.35,1.35,0,0,0,.64,1.19,4,4,0,0,0,3.65,0,1.35,1.35,0,0,0,.64-1.19,1.38,1.38,0,0,0-.65-1.2,4,4,0,0,0-3.62,0A1.36,1.36,0,0,0,449,163.93Z" fill="#003a50"/><path d="M482.44,232.79h-9.93v-1.56a2.76,2.76,0,0,1,.58-1.74,4,4,0,0,1,1.44-1.2c.5-.25,1.12-.54,1.87-.86s1.32-.56,1.88-.77a4.09,4.09,0,0,0,1.44-.92,1.76,1.76,0,0,0,.58-1.3c0-1.26-.89-1.88-2.67-1.88s-2.67.72-2.67,2.15v.41h-2.11v-.41a3.62,3.62,0,0,1,1.26-3,5.38,5.38,0,0,1,3.51-1,5.66,5.66,0,0,1,3.52,1,3.31,3.31,0,0,1,1.27,2.75,3.17,3.17,0,0,1-.56,1.84,4.36,4.36,0,0,1-1.4,1.3c-.6.34-1.21.65-1.84.93s-1.23.53-1.83.75a5.55,5.55,0,0,0-1.4.74,1.24,1.24,0,0,0-.56,1h7.62Z" fill="#003a50"/><path d="M484.54,232.66a1,1,0,0,1-.32-.8,1,1,0,0,1,.32-.81,1.41,1.41,0,0,1,1.74,0,1.07,1.07,0,0,1,.32.81,1,1,0,0,1-.32.8,1.41,1.41,0,0,1-1.74,0Z" fill="#003a50"/><path d="M498.16,224.24H496s0-.06,0-.17a1.85,1.85,0,0,0-.21-.44,2.4,2.4,0,0,0-.39-.5,1.77,1.77,0,0,0-.71-.41,3,3,0,0,0-1-.16,2.51,2.51,0,0,0-2.15,1,4.39,4.39,0,0,0-.76,2.68h.06a1.49,1.49,0,0,1,.44-.43,3.9,3.9,0,0,1,.6-.37,4,4,0,0,1,1-.3A5.49,5.49,0,0,1,494,225a5,5,0,0,1,3.37,1.11,3.51,3.51,0,0,1,1.3,2.8,3.58,3.58,0,0,1-1.36,2.91,5.55,5.55,0,0,1-3.6,1.1,4.81,4.81,0,0,1-3.87-1.54,6.38,6.38,0,0,1-1.32-4.27v-.41a6.85,6.85,0,0,1,1.32-4.31,4.52,4.52,0,0,1,3.8-1.71,5.66,5.66,0,0,1,2.13.37,4,4,0,0,1,1.44.94A3.45,3.45,0,0,1,498.16,224.24Zm-2.51,3.15a3.65,3.65,0,0,0-3.95,0,2,2,0,0,0,0,3.15,3.63,3.63,0,0,0,4,0,2,2,0,0,0,0-3.15Z" fill="#003a50"/><path d="M452.54,312.8h-9.93v-1.56a2.74,2.74,0,0,1,.58-1.74,4,4,0,0,1,1.44-1.2c.5-.26,1.12-.54,1.87-.86s1.32-.56,1.88-.78a4.07,4.07,0,0,0,1.44-.91,1.77,1.77,0,0,0,.58-1.3q0-1.89-2.67-1.89t-2.67,2.16v.41H443v-.41a3.62,3.62,0,0,1,1.26-3,5.36,5.36,0,0,1,3.51-1,5.66,5.66,0,0,1,3.52,1,3.3,3.3,0,0,1,1.27,2.75,3.14,3.14,0,0,1-.56,1.83,4.39,4.39,0,0,1-1.4,1.31c-.6.34-1.21.65-1.84.93s-1.23.52-1.83.74a5.26,5.26,0,0,0-1.4.75,1.21,1.21,0,0,0-.56,1h7.62Z" fill="#003a50"/><path d="M454.64,312.67a1.17,1.17,0,0,1,0-1.61,1.41,1.41,0,0,1,1.74,0,1.17,1.17,0,0,1,0,1.61,1.41,1.41,0,0,1-1.74,0Z" fill="#003a50"/><path d="M468.42,312.8h-9.93v-1.56a2.74,2.74,0,0,1,.58-1.74,4,4,0,0,1,1.44-1.2c.5-.26,1.12-.54,1.87-.86s1.32-.56,1.88-.78a4.07,4.07,0,0,0,1.44-.91,1.81,1.81,0,0,0,.58-1.3q0-1.89-2.67-1.89t-2.67,2.16v.41h-2.11v-.41a3.62,3.62,0,0,1,1.26-3,5.34,5.34,0,0,1,3.51-1,5.61,5.61,0,0,1,3.51,1,3.27,3.27,0,0,1,1.27,2.75,3.14,3.14,0,0,1-.55,1.83,4.32,4.32,0,0,1-1.41,1.31c-.59.34-1.21.65-1.83.93s-1.24.52-1.83.74a5.26,5.26,0,0,0-1.4.75,1.22,1.22,0,0,0-.57,1h7.63Z" fill="#003a50"/><path d="M228.54,232.79h-9.93v-1.56a2.83,2.83,0,0,1,.58-1.74,4,4,0,0,1,1.45-1.2c.5-.25,1.12-.54,1.87-.86s1.32-.56,1.87-.77a4.14,4.14,0,0,0,1.45-.92,1.78,1.78,0,0,0,.57-1.3c0-1.26-.89-1.88-2.66-1.88s-2.68.72-2.68,2.15v.41H219v-.41a3.62,3.62,0,0,1,1.26-3,5.39,5.39,0,0,1,3.52-1,5.65,5.65,0,0,1,3.51,1,3.29,3.29,0,0,1,1.27,2.75,3.17,3.17,0,0,1-.56,1.84,4.26,4.26,0,0,1-1.4,1.3q-.9.51-1.83.93t-1.83.75a5.63,5.63,0,0,0-1.41.74,1.26,1.26,0,0,0-.56,1h7.62Z" fill="#003a50"/><path d="M232.14,231.26a7.34,7.34,0,0,1,0-8.84,5.71,5.71,0,0,1,8.13,0,7.34,7.34,0,0,1,0,8.84,5.71,5.71,0,0,1-8.13,0Zm6.53-1.39a5,5,0,0,0,.87-3,5,5,0,0,0-.87-3,3.15,3.15,0,0,0-4.92,0,4.94,4.94,0,0,0-.88,3,4.89,4.89,0,0,0,.88,3,2.88,2.88,0,0,0,2.46,1.19A2.93,2.93,0,0,0,238.67,229.87Z" fill="#003a50"/><path d="M243.94,232.66a1,1,0,0,1-.32-.8,1,1,0,0,1,.32-.81,1.41,1.41,0,0,1,1.74,0,1.07,1.07,0,0,1,.32.81,1,1,0,0,1-.32.8,1.41,1.41,0,0,1-1.74,0Z" fill="#003a50"/><path d="M253.23,224.81a5,5,0,0,1,3.33,1.07,4.16,4.16,0,0,1,0,6A5.38,5.38,0,0,1,253,233a5.8,5.8,0,0,1-3.57-1,3.18,3.18,0,0,1-1.28-2.68h2.11a1.53,1.53,0,0,0,.7,1.33,3.59,3.59,0,0,0,2,.49,3.17,3.17,0,0,0,2-.58,2.36,2.36,0,0,0,0-3.39,3.31,3.31,0,0,0-2.07-.58A3.6,3.6,0,0,0,251,227a1.87,1.87,0,0,0-.69.64l0,.12h-2.11v-6.87H257v1.84h-6.76v3h0a1.83,1.83,0,0,1,.39-.31,4,4,0,0,1,.55-.27A5.66,5.66,0,0,1,253.23,224.81Z" fill="#003a50"/><path d="M298,128.79h-9.93v-1.56a2.74,2.74,0,0,1,.58-1.74,4,4,0,0,1,1.44-1.2c.5-.25,1.12-.54,1.87-.86s1.32-.56,1.88-.78a4.07,4.07,0,0,0,1.44-.91,1.77,1.77,0,0,0,.58-1.3q0-1.89-2.67-1.89t-2.67,2.16v.41h-2.11v-.41a3.62,3.62,0,0,1,1.26-3,5.36,5.36,0,0,1,3.51-1,5.66,5.66,0,0,1,3.52,1,3.3,3.3,0,0,1,1.27,2.75,3.17,3.17,0,0,1-.56,1.83,4.39,4.39,0,0,1-1.4,1.31c-.6.34-1.21.65-1.84.93s-1.23.52-1.83.74a5.26,5.26,0,0,0-1.4.75,1.21,1.21,0,0,0-.56,1H298Z" fill="#003a50"/><path d="M300.14,128.66a1,1,0,0,1-.32-.81,1,1,0,0,1,.32-.8,1.41,1.41,0,0,1,1.74,0,1.06,1.06,0,0,1,.32.8,1,1,0,0,1-.32.81,1.41,1.41,0,0,1-1.74,0Z" fill="#003a50"/><path d="M306,119.44l-2.48,2v-2.24l2.73-2.27h1.86v11.91H306Z" fill="#003a50"/></g></svg>