<svg id="Слой_1" data-name="Слой 1" xmlns="http://www.w3.org/2000/svg" xmlns:xlink="http://www.w3.org/1999/xlink" viewBox="0 0 581.1 212.6"><defs><clipPath id="clip-path"><polygon points="0 0.85 0 176.77 82.38 176.77 82.38 212.1 580.82 212.1 580.82 0.85 0 0.85" fill="none"/></clipPath></defs><polygon points="56.12 174.67 56.12 176.77 82.38 176.77 82.38 212.1 83.38 212.1 83.38 174.67 56.12 174.67" fill="#fff"/><polygon points="67.15 5.25 67.19 107.84 67.19 155.5 66.56 167.99 86.76 173.41 91.31 198.74 566.04 198.74 566.04 5.25 67.15 5.25" fill="#fff"/><polygon points="65.16 0.85 65.05 2.92 565.26 1.01 565.26 0.85 65.16 0.85" fill="#fff"/><g clip-path="url(#clip-path)"><rect x="-584.92" y="-470.77" width="1162.95" height="2240.57" fill="none" stroke="#003a50" stroke-miterlimit="10"/><polygon points="-572.33 633.4 -572.33 1756.95 565.06 1756.95 565.06 -457.82 -572.33 -457.98 -572.33 562.69 -572.33 633.4" fill="none" stroke="#003a50" stroke-miterlimit="10"/></g><rect x="540.74" y="88.73" width="4.56" height="90.17" fill="#fff"/><rect x="540.74" y="88.72" width="4.56" height="90.17" fill="none" stroke="#003a50" stroke-miterlimit="10"/><line x1="543.02" y1="88.72" x2="543.02" y2="178.9" fill="none" stroke="#003a50" stroke-miterlimit="10"/><rect x="540.74" y="88.73" width="4.56" height="4.55" fill="#fff"/><rect x="540.74" y="88.72" width="4.56" height="4.55" fill="none" stroke="#003a50" stroke-miterlimit="10"/><rect x="540.74" y="174.35" width="4.56" height="4.55" fill="#fff"/><rect x="540.74" y="174.34" width="4.56" height="4.55" fill="none" stroke="#003a50" stroke-miterlimit="10"/><rect x="540.74" y="133.79" width="4.56" height="4.55" fill="#fff"/><rect x="540.74" y="133.79" width="4.56" height="4.55" fill="none" stroke="#003a50" stroke-miterlimit="10"/><g clip-path="url(#clip-path)"><path d="M540.74,138.34h-2.9c-20.15,0-33.1,16.12-33.1,36h36" fill="none" stroke="#003a50" stroke-miterlimit="10"/></g><rect x="399.64" y="178.9" width="102.05" height="16.75" fill="none" stroke="#003a50" stroke-miterlimit="10"/><polygon points="493.67 186.74 450.77 190.22 407.67 186.74 407.67 184.32 493.67 184.32 493.67 186.74" fill="none" stroke="#003a50" stroke-miterlimit="10"/><g clip-path="url(#clip-path)"><path d="M274.59,75.38a1.24,1.24,0,0,1,.94,1.5A13.79,13.79,0,0,0,302.41,83a1.25,1.25,0,0,1,1.5-.94,1.27,1.27,0,0,1,.95,1.51,16.3,16.3,0,0,1-31.78-7.29A1.25,1.25,0,0,1,274.59,75.38Z" fill="none" stroke="#003a50" stroke-miterlimit="10"/><path d="M329.76,85.09a1.26,1.26,0,0,1,1.75-.33A13.78,13.78,0,1,0,347,62a1.27,1.27,0,0,1-.33-1.75,1.25,1.25,0,0,1,1.75-.33,16.3,16.3,0,0,1-18.36,26.94A1.26,1.26,0,0,1,329.76,85.09Z" fill="none" stroke="#003a50" stroke-miterlimit="10"/><path d="M332.26,37.69a1.27,1.27,0,0,1-1.33-1.18,13.78,13.78,0,1,0-27.52,1.63,1.26,1.26,0,0,1-2.51.15,16.3,16.3,0,1,1,32.54-1.93A1.25,1.25,0,0,1,332.26,37.69Z" fill="none" stroke="#003a50" stroke-miterlimit="10"/><path d="M288.79,92a12.69,12.69,0,0,1-12-15.48l2-8.88A3.53,3.53,0,0,1,283.07,65L296.51,68a23.73,23.73,0,0,0,6,9.44l-1,4.2C300.19,87.63,294.91,92.19,288.79,92Z" fill="none" stroke="#003a50" stroke-miterlimit="10"/><path d="M331.59,83.47l-2.32-1.6a23.81,23.81,0,0,0,13.64-21.32l2.52,1.72c5,3.44,7.4,10,5,15.64A12.7,12.7,0,0,1,331.59,83.47Z" fill="none" stroke="#003a50" stroke-miterlimit="10"/><path d="M304.75,41.19l-.12-2c-.36-6.12,3.4-12,9.32-13.48a12.66,12.66,0,0,1,15.88,11.48l.12,1.84a23.93,23.93,0,0,0-16.64-1.92A23.5,23.5,0,0,0,304.75,41.19Z" fill="none" stroke="#003a50" stroke-miterlimit="10"/><path d="M302.51,77.47a23.73,23.73,0,0,1-6-9.44,16.51,16.51,0,0,1-.6-2,23.85,23.85,0,0,1,8.84-24.84,23.5,23.5,0,0,1,8.56-4,23.87,23.87,0,0,1,28.92,17.4,22.12,22.12,0,0,1,.68,6,23.81,23.81,0,0,1-13.64,21.32,22.85,22.85,0,0,1-4.48,1.6A23.8,23.8,0,0,1,302.51,77.47Z" fill="none" stroke="#003a50" stroke-miterlimit="10"/><rect x="216.94" y="-24.61" width="103.02" height="25.39" fill="none" stroke="#003a50" stroke-miterlimit="10"/><rect x="234.79" y="-22.55" width="24.4" height="25.04" rx="2.83" fill="none" stroke="#003a50" stroke-miterlimit="10"/><rect x="277.52" y="-22.55" width="24.4" height="25.04" rx="2.83" fill="none" stroke="#003a50" stroke-miterlimit="10"/><rect x="248.51" y="211.56" width="34.42" height="30.54" fill="none" stroke="#003a50" stroke-miterlimit="10"/></g><rect x="167.94" y="14.07" width="43.96" height="79.58" fill="none" stroke="#003a50" stroke-miterlimit="10"/><g clip-path="url(#clip-path)"><path d="M189.71,89.66h0a19.52,19.52,0,0,1-19.52-19.52V37.52a19.53,19.53,0,0,1,39.05,0V70.14A19.52,19.52,0,0,1,189.71,89.66Z" fill="none" stroke="#003a50" stroke-miterlimit="10"/><circle cx="189.71" cy="38.08" r="2.28" fill="none" stroke="#003a50" stroke-miterlimit="10"/></g><rect x="102.8" y="14.29" width="65.14" height="27.38" fill="none" stroke="#003a50" stroke-miterlimit="10"/><rect x="218.56" y="14.97" width="34.02" height="50.68" fill="none" stroke="#003a50" stroke-miterlimit="10"/><g clip-path="url(#clip-path)"><path d="M131.44,79.58H102.59V56.78h28.85a11.4,11.4,0,1,1,0,22.8Z" fill="none" stroke="#003a50" stroke-miterlimit="10"/></g><line x1="113.82" y1="56.78" x2="113.82" y2="79.58" fill="none" stroke="#003a50" stroke-miterlimit="10"/><g clip-path="url(#clip-path)"><path d="M136.19,36.09v-23a3.36,3.36,0,0,1,3.35-3.36h22.25a3.37,3.37,0,0,1,3.36,3.36v23a3.37,3.37,0,0,1-3.36,3.36H139.54A3.36,3.36,0,0,1,136.19,36.09Z" fill="none" stroke="#003a50" stroke-miterlimit="10"/><circle cx="150.67" cy="24.59" r="2.27" fill="none" stroke="#003a50" stroke-miterlimit="10"/></g><rect x="218.56" y="65.65" width="34.02" height="34.02" fill="none" stroke="#003a50" stroke-miterlimit="10"/><line x1="235.57" y1="92.64" x2="235.57" y2="72.68" fill="none" stroke="#003a50" stroke-miterlimit="10"/><line x1="245.55" y1="82.66" x2="225.59" y2="82.66" fill="none" stroke="#003a50" stroke-miterlimit="10"/><line x1="242.63" y1="89.72" x2="228.51" y2="75.61" fill="none" stroke="#003a50" stroke-miterlimit="10"/><line x1="242.63" y1="75.6" x2="228.51" y2="89.72" fill="none" stroke="#003a50" stroke-miterlimit="10"/><g clip-path="url(#clip-path)"><rect x="67.12" y="-33.63" width="70.69" height="34.02" fill="none" stroke="#003a50" stroke-miterlimit="10"/><rect x="326.78" y="-95.17" width="31.72" height="95.46" fill="none" stroke="#003a50" stroke-miterlimit="10"/><line x1="342.64" y1="0.28" x2="342.64" y2="-94.52" fill="none" stroke="#003a50" stroke-miterlimit="10"/><rect x="175.92" y="-94.52" width="40.48" height="94.87" fill="none" stroke="#003a50" stroke-miterlimit="10"/><rect x="137.81" y="-94.61" width="31.48" height="95.25" fill="none" stroke="#003a50" stroke-miterlimit="10"/><line x1="153.55" y1="0.46" x2="153.55" y2="-94.43" fill="none" stroke="#003a50" stroke-miterlimit="10"/><rect x="96.11" y="212.54" width="115.74" height="29.57" fill="none" stroke="#003a50" stroke-miterlimit="10"/><rect x="366.63" y="-22.4" width="22.68" height="22.68" fill="none" stroke="#003a50" stroke-miterlimit="10"/></g><rect x="367.78" y="14.57" width="22.68" height="22.68" fill="none" stroke="#003a50" stroke-miterlimit="10"/><g clip-path="url(#clip-path)"><path d="M385.62,32.41a9.19,9.19,0,1,1,0-13A9.19,9.19,0,0,1,385.62,32.41Z" fill="none" stroke="#003a50" stroke-miterlimit="10"/><path d="M386.25,31.72c-1.7-.17-3.41.48-5.07-1.17-2.44-2.44.15-5-2.3-7.45s-5,.13-7.45-2.31" fill="none" stroke="#003a50" stroke-miterlimit="10"/></g><rect x="501.88" y="14.57" width="22.68" height="22.68" fill="none" stroke="#003a50" stroke-miterlimit="10"/><g clip-path="url(#clip-path)"><path d="M519.72,32.41a9.19,9.19,0,1,1,0-13A9.19,9.19,0,0,1,519.72,32.41Z" fill="none" stroke="#003a50" stroke-miterlimit="10"/><path d="M520.35,31.72c-1.7-.17-3.42.48-5.07-1.17-2.44-2.44.15-5-2.3-7.45s-5,.13-7.45-2.31" fill="none" stroke="#003a50" stroke-miterlimit="10"/><path d="M426.29,260.77a3.1,3.1,0,0,1-3.33,2.82h-4.22a3.1,3.1,0,0,1-3.33-2.82v-48.2H528.8v47.77a3.11,3.11,0,0,1-3.32,2.83h-4.23a3.11,3.11,0,0,1-3.32-2.83V217.52H426.29Z" fill="none" stroke="#003a50" stroke-miterlimit="10"/><rect x="394.11" y="-113.11" width="102.05" height="113.39" fill="none" stroke="#003a50" stroke-miterlimit="10"/></g><rect x="395.26" y="14.57" width="102.05" height="113.38" fill="none" stroke="#003a50" stroke-miterlimit="10"/><g clip-path="url(#clip-path)"><path d="M487.31,118.22H405.26a2.09,2.09,0,0,1-2.09-2.08V48.5h86.22v67.64A2.08,2.08,0,0,1,487.31,118.22Z" fill="none" stroke="#003a50" stroke-miterlimit="10"/><rect x="402.92" y="22" width="42.5" height="22.88" rx="1.98" fill="none" stroke="#003a50" stroke-miterlimit="10"/><rect x="447.15" y="22" width="42.5" height="22.88" rx="1.98" fill="none" stroke="#003a50" stroke-miterlimit="10"/></g><line x1="489.65" y1="62.35" x2="402.92" y2="62.35" fill="none" stroke="#003a50" stroke-miterlimit="10"/><g clip-path="url(#clip-path)"><rect x="218.25" y="211.81" width="30.26" height="30.26" fill="none" stroke="#003a50" stroke-miterlimit="10"/></g><rect x="152.83" y="161.9" width="40.34" height="34.69" fill="none" stroke="#003a50" stroke-miterlimit="10"/><g clip-path="url(#clip-path)"><path d="M179.3,169.93h-2.51a3.64,3.64,0,0,1-6.78,0H166.7l-6.26,3.6,3,4.72,2.83-1.5v12.88h13.48V176.75l2.82,1.5,3-4.72Z" fill="none" stroke="#003a50" stroke-miterlimit="10"/></g><rect x="96.11" y="161.9" width="56.72" height="34.69" fill="none" stroke="#003a50" stroke-miterlimit="10"/><g clip-path="url(#clip-path)"><path d="M111,168.65a.87.87,0,0,1,1.66-.38,25.09,25.09,0,0,1,0,22,.88.88,0,0,1-1.17.39.87.87,0,0,1-.4-1.16,23.29,23.29,0,0,0,0-20.43A.85.85,0,0,1,111,168.65Z" fill="none" stroke="#003a50" stroke-miterlimit="10"/><path d="M115.83,168.65a.87.87,0,0,1,1.66-.38,25.09,25.09,0,0,1,0,22,.89.89,0,0,1-1.17.39.87.87,0,0,1-.4-1.16,23.29,23.29,0,0,0,0-20.43A.85.85,0,0,1,115.83,168.65Z" fill="none" stroke="#003a50" stroke-miterlimit="10"/><path d="M120.67,168.65a.87.87,0,0,1,1.66-.38,25.09,25.09,0,0,1,0,22,.89.89,0,0,1-1.17.39.87.87,0,0,1-.4-1.16,23.29,23.29,0,0,0,0-20.43A.85.85,0,0,1,120.67,168.65Z" fill="none" stroke="#003a50" stroke-miterlimit="10"/><path d="M125.51,168.65a.87.87,0,0,1,.49-.78.85.85,0,0,1,1.16.4,25,25,0,0,1,0,22,.87.87,0,0,1-1.16.39.86.86,0,0,1-.4-1.16,23.29,23.29,0,0,0,0-20.43A.85.85,0,0,1,125.51,168.65Z" fill="none" stroke="#003a50" stroke-miterlimit="10"/><path d="M106.15,168.65a.87.87,0,0,1,1.66-.38,25,25,0,0,1,0,22,.88.88,0,0,1-1.16.39.85.85,0,0,1-.4-1.16,23.29,23.29,0,0,0,0-20.43A.75.75,0,0,1,106.15,168.65Z" fill="none" stroke="#003a50" stroke-miterlimit="10"/><path d="M101.32,168.65a.88.88,0,0,1,.48-.78.86.86,0,0,1,1.17.4,25,25,0,0,1,0,22,.87.87,0,0,1-1.16.39.86.86,0,0,1-.4-1.16,23.29,23.29,0,0,0,0-20.43A.73.73,0,0,1,101.32,168.65Z" fill="none" stroke="#003a50" stroke-miterlimit="10"/></g><line x1="96.11" y1="179.25" x2="152.83" y2="179.25" fill="none" stroke="#003a50" stroke-miterlimit="10"/><rect x="227.2" y="161.68" width="34.02" height="34.02" fill="none" stroke="#003a50" stroke-miterlimit="10"/><line x1="243.47" y1="180.7" x2="243.47" y2="191.26" fill="none" stroke="#003a50" stroke-miterlimit="10"/><g clip-path="url(#clip-path)"><path d="M244.38,180.7h-1.82a3.39,3.39,0,0,1-3.39-3.39v-11.2h8.6v11.2A3.39,3.39,0,0,1,244.38,180.7Z" fill="none" stroke="#003a50" stroke-miterlimit="10"/></g><line x1="240" y1="191.26" x2="246.94" y2="191.26" fill="none" stroke="#003a50" stroke-miterlimit="10"/><rect x="320.76" y="161.68" width="34.02" height="34.02" fill="none" stroke="#003a50" stroke-miterlimit="10"/><g clip-path="url(#clip-path)"><path d="M350.18,186.27a4.69,4.69,0,1,1-4.69-4.69A4.69,4.69,0,0,1,350.18,186.27Z" fill="none" stroke="#003a50" stroke-miterlimit="10"/><path d="M334.74,186.27a4.69,4.69,0,1,1-4.69-4.69A4.69,4.69,0,0,1,334.74,186.27Z" fill="none" stroke="#003a50" stroke-miterlimit="10"/><path d="M350.18,171.1a4.69,4.69,0,1,1-4.69-4.69A4.69,4.69,0,0,1,350.18,171.1Z" fill="none" stroke="#003a50" stroke-miterlimit="10"/><path d="M334.74,171.1a4.69,4.69,0,1,1-4.69-4.69A4.69,4.69,0,0,1,334.74,171.1Z" fill="none" stroke="#003a50" stroke-miterlimit="10"/><path d="M302.78,186.81H279.43a3.35,3.35,0,0,1-3.36-3.36V168.5a3.35,3.35,0,0,1,3.36-3.36h23.35a3.36,3.36,0,0,1,3.36,3.36v14.95A3.36,3.36,0,0,1,302.78,186.81Z" fill="none" stroke="#003a50" stroke-miterlimit="10"/><circle cx="291.1" cy="179.77" r="2.46" fill="none" stroke="#003a50" stroke-miterlimit="10"/></g><line x1="291.1" y1="179.01" x2="291.1" y2="192.63" fill="none" stroke="#003a50" stroke-miterlimit="10"/><line x1="284.29" y1="192.63" x2="297.91" y2="192.63" fill="none" stroke="#003a50" stroke-miterlimit="10"/><rect x="261.23" y="161.68" width="93.55" height="34.02" fill="none" stroke="#003a50" stroke-miterlimit="10"/><g clip-path="url(#clip-path)"><path d="M162.4,96.06v3.08a38.71,38.71,0,0,1-38.71,38.71V96.06" fill="none" stroke="#003a50" stroke-miterlimit="10" stroke-width="1.6"/><path d="M54.35,156.73H50.47a48.89,48.89,0,0,1-48.9-48.89H54.35" fill="none" stroke="#003a50" stroke-miterlimit="10" stroke-width="1.6"/><rect x="56.69" y="0.67" width="488" height="13.79" fill="#003a50"/><rect x="50.87" y="-37.39" width="16.32" height="145.23" fill="#003a50"/><rect x="50.87" y="155.51" width="16.32" height="21.06" fill="#003a50"/><rect x="85.94" y="163.69" width="10.75" height="78.67" fill="#003a50"/><rect x="54.35" y="161.33" width="42.34" height="15.54" fill="#003a50"/><rect x="85.94" y="195.98" width="447.72" height="16.32" fill="#003a50"/><polygon points="529.66 88.22 529.66 -7.52 578.99 -7.52 567.33 88.22 529.66 88.22" fill="#003a50" fill-rule="evenodd"/><rect x="529.66" y="179.14" width="38.77" height="96.07" fill="#003a50"/><rect x="523.69" y="-5.56" width="11.25" height="77.3" fill="#003a50"/><rect x="320.29" y="-99.08" width="6.38" height="102.25" fill="#003a50"/><rect x="169.62" y="-99.58" width="6.38" height="102.75" fill="#003a50"/><rect x="50.88" y="169.11" width="6.38" height="73.25" fill="#003a50"/><rect x="211.73" y="203.02" width="6.38" height="39.5" fill="#003a50"/><rect x="161.57" y="93.31" width="53.52" height="6.38" fill="#003a50"/><rect x="194.3" y="161.61" width="32.9" height="6.38" fill="#003a50"/><rect x="220.73" y="161.68" width="6.38" height="40.24" fill="#003a50"/><rect x="193.17" y="161.61" width="6.38" height="40.31" fill="#003a50"/><rect x="211.9" y="5.17" width="6.38" height="94.52" fill="#003a50"/><rect x="61.09" y="93.31" width="63.43" height="6.38" fill="#003a50"/><rect x="66.56" y="58.64" width="33.64" height="6.38" fill="#003a50"/><rect x="82.34" y="174.67" width="6.38" height="58.66" fill="#003a50"/><rect x="95.94" y="5.17" width="6.38" height="92.32" fill="#003a50"/><line x1="216.92" y1="97.5" x2="216.92" y2="100.33" fill="none" stroke="#003a50" stroke-miterlimit="10"/><line x1="216.92" y1="105.65" x2="216.92" y2="156.19" fill="none" stroke="#003a50" stroke-miterlimit="10" stroke-dasharray="5.32 5.32"/><line x1="216.92" y1="158.85" x2="216.92" y2="161.68" fill="none" stroke="#003a50" stroke-miterlimit="10"/></g><g clip-path="url(#clip-path)"><path d="M556.37,162.78a5.19,5.19,0,0,1-6.23,0,3.63,3.63,0,0,1-1.2-2.88,3.59,3.59,0,0,1,1.2-2.86,5.19,5.19,0,0,1,6.23,0,3.59,3.59,0,0,1,1.2,2.86A3.63,3.63,0,0,1,556.37,162.78Zm-1-4.61a3.48,3.48,0,0,0-2.14-.61,3.52,3.52,0,0,0-2.14.61,2.23,2.23,0,0,0,0,3.47,3.52,3.52,0,0,0,2.14.62,3.48,3.48,0,0,0,2.14-.62,2.21,2.21,0,0,0,0-3.47Z" fill="#003a50"/><path d="M557.36,154.45a.72.72,0,0,1-.57.23.74.74,0,0,1-.56-.23,1,1,0,0,1,0-1.23.73.73,0,0,1,.56-.22.71.71,0,0,1,.57.22,1,1,0,0,1,0,1.23Z" fill="#003a50"/><path d="M551.42,144.84v1.56s0,0-.12,0a1.2,1.2,0,0,0-.31.15,1.31,1.31,0,0,0-.35.27,1.2,1.2,0,0,0-.29.5,2.08,2.08,0,0,0-.12.71,1.76,1.76,0,0,0,.73,1.52,3.11,3.11,0,0,0,1.89.54v0a1.27,1.27,0,0,1-.3-.31,2.46,2.46,0,0,1-.26-.43,3.09,3.09,0,0,1-.22-.67,4.12,4.12,0,0,1-.09-.86,3.58,3.58,0,0,1,.79-2.38,2.62,2.62,0,0,1,4,0,3.92,3.92,0,0,1,.78,2.55,3.38,3.38,0,0,1-1.09,2.73,4.48,4.48,0,0,1-3,.93h-.29a4.85,4.85,0,0,1-3-.93,3.2,3.2,0,0,1-1.2-2.69,3.93,3.93,0,0,1,.26-1.5,2.69,2.69,0,0,1,.66-1A2.46,2.46,0,0,1,551.42,144.84Zm2.22,1.77a2.58,2.58,0,0,0,0,2.79,1.32,1.32,0,0,0,1.11.55,1.3,1.3,0,0,0,1.11-.55,2.22,2.22,0,0,0,.42-1.4,2.26,2.26,0,0,0-.42-1.4,1.4,1.4,0,0,0-2.22,0Z" fill="#003a50"/><path d="M87.77,136.43H85.66v-2.65h-7v-1.84l6.3-7.42h2.79v7.42h1.59v1.84H87.77Zm-2.11-4.49v-5.33h-.07l-4.47,5.28v.05Z" fill="#003a50"/><path d="M91.05,136.3a1.17,1.17,0,0,1,0-1.61,1.41,1.41,0,0,1,1.74,0,1.17,1.17,0,0,1,0,1.61,1.41,1.41,0,0,1-1.74,0Z" fill="#003a50"/><path d="M101.16,126.36H95.33v-1.84h8.87v1.84L99.67,129v.07H101a3.9,3.9,0,0,1,2.79,1,3.52,3.52,0,0,1,1.05,2.67,3.32,3.32,0,0,1-1.33,2.82,6.93,6.93,0,0,1-7.24,0,3.38,3.38,0,0,1-1.33-2.85v-.33H97v.33c0,1.36,1,2,2.84,2s2.84-.67,2.84-2-.94-2-2.84-2H96.58v-1.67l4.58-2.68Z" fill="#003a50"/><path d="M135.46,86h-5.82V84.16h8.86V86L134,88.65v.07h1.27a3.87,3.87,0,0,1,2.79,1,3.5,3.5,0,0,1,1.06,2.67,3.32,3.32,0,0,1-1.33,2.82,6.93,6.93,0,0,1-7.24,0,3.35,3.35,0,0,1-1.33-2.85V92h2.11v.33c0,1.36.95,2,2.84,2s2.84-.67,2.84-2-1-2-2.84-2h-3.26V88.75l4.57-2.68Z" fill="#003a50"/><path d="M141.2,95.94a1.17,1.17,0,0,1,0-1.61,1.41,1.41,0,0,1,1.74,0,1.17,1.17,0,0,1,0,1.61,1.41,1.41,0,0,1-1.74,0Z" fill="#003a50"/><path d="M146.61,94.53a7.33,7.33,0,0,1,0-8.83,5.69,5.69,0,0,1,8.13,0,7.33,7.33,0,0,1,0,8.83,5.69,5.69,0,0,1-8.13,0Zm6.52-1.38a5.67,5.67,0,0,0,0-6.07,3.14,3.14,0,0,0-4.91,0,5.67,5.67,0,0,0,0,6.07,3.14,3.14,0,0,0,4.91,0Z" fill="#003a50"/><path d="M457.46,147.39l-2.49,2V147.1l2.74-2.27h1.86v11.91h-2.11Z" fill="#003a50"/><path d="M471.8,148.18h-2.21s0-.06,0-.17a2.36,2.36,0,0,0-.21-.44,2.69,2.69,0,0,0-.39-.5,1.85,1.85,0,0,0-.71-.41,3,3,0,0,0-1-.16,2.49,2.49,0,0,0-2.15,1,4.39,4.39,0,0,0-.76,2.68h.05a1.8,1.8,0,0,1,.44-.43,3.55,3.55,0,0,1,.61-.37,4.87,4.87,0,0,1,.95-.3,5.49,5.49,0,0,1,1.22-.13,5.05,5.05,0,0,1,3.37,1.11,3.51,3.51,0,0,1,1.3,2.8,3.57,3.57,0,0,1-1.36,2.91,5.49,5.49,0,0,1-3.6,1.1,4.81,4.81,0,0,1-3.87-1.54,6.36,6.36,0,0,1-1.32-4.27v-.41a6.85,6.85,0,0,1,1.32-4.31,4.52,4.52,0,0,1,3.8-1.71,5.66,5.66,0,0,1,2.13.38,3.78,3.78,0,0,1,1.43.93A3.46,3.46,0,0,1,471.8,148.18Zm-2.51,3.15a3.65,3.65,0,0,0-4,0,2,2,0,0,0,0,3.15,3.21,3.21,0,0,0,2,.59,3.26,3.26,0,0,0,2-.59,2,2,0,0,0,0-3.15Z" fill="#003a50"/><path d="M474.45,156.6a1,1,0,0,1-.33-.8,1,1,0,0,1,.33-.81,1.4,1.4,0,0,1,1.73,0,1,1,0,0,1,.33.81,1,1,0,0,1-.33.8,1.4,1.4,0,0,1-1.73,0Z" fill="#003a50"/><path d="M488.23,156.74h-9.94v-1.56a2.85,2.85,0,0,1,.58-1.75,4,4,0,0,1,1.45-1.19c.5-.26,1.12-.55,1.87-.87s1.32-.55,1.87-.77a4.26,4.26,0,0,0,1.45-.91,1.81,1.81,0,0,0,.57-1.31c0-1.25-.89-1.88-2.66-1.88s-2.68.72-2.68,2.16v.4h-2.11v-.4a3.6,3.6,0,0,1,1.27-3,5.4,5.4,0,0,1,3.51-1,5.72,5.72,0,0,1,3.51,1,3.29,3.29,0,0,1,1.27,2.75,3.17,3.17,0,0,1-.55,1.84,4.28,4.28,0,0,1-1.41,1.3,17.49,17.49,0,0,1-1.83.93q-.94.42-1.83.75a5.11,5.11,0,0,0-1.4.75,1.22,1.22,0,0,0-.57,1h7.63Z" fill="#003a50"/><path d="M279.72,147.57h-9.93V146a2.79,2.79,0,0,1,.58-1.75,4.08,4.08,0,0,1,1.44-1.19c.5-.26,1.13-.54,1.87-.86l1.88-.78a4.21,4.21,0,0,0,1.45-.91,1.8,1.8,0,0,0,.57-1.3q0-1.89-2.67-1.89t-2.67,2.16v.41h-2.11v-.41a3.62,3.62,0,0,1,1.26-3,5.38,5.38,0,0,1,3.51-1,5.66,5.66,0,0,1,3.52,1,3.3,3.3,0,0,1,1.27,2.75,3.17,3.17,0,0,1-.56,1.83,4.16,4.16,0,0,1-1.4,1.3,18.74,18.74,0,0,1-1.84.94c-.62.27-1.23.52-1.82.74a5.18,5.18,0,0,0-1.41.75,1.23,1.23,0,0,0-.56,1h7.62Z" fill="#003a50"/><path d="M281.82,147.44a1.17,1.17,0,0,1,0-1.61,1.41,1.41,0,0,1,1.74,0,1.17,1.17,0,0,1,0,1.61,1.41,1.41,0,0,1-1.74,0Z" fill="#003a50"/><path d="M295.44,139h-2.21s0-.07,0-.18a2.94,2.94,0,0,0-.22-.44,2.69,2.69,0,0,0-.39-.5,1.9,1.9,0,0,0-.71-.41,3.19,3.19,0,0,0-1-.16,2.51,2.51,0,0,0-2.15,1A4.41,4.41,0,0,0,288,141H288a1.63,1.63,0,0,1,.44-.43,4.76,4.76,0,0,1,.6-.36,4.41,4.41,0,0,1,.95-.31,6.24,6.24,0,0,1,1.22-.13,5,5,0,0,1,3.37,1.12,3.51,3.51,0,0,1,1.31,2.8,3.57,3.57,0,0,1-1.37,2.9,5.49,5.49,0,0,1-3.6,1.11,4.81,4.81,0,0,1-3.87-1.55,6.36,6.36,0,0,1-1.32-4.27v-.4a6.83,6.83,0,0,1,1.32-4.31,4.52,4.52,0,0,1,3.8-1.71,5.66,5.66,0,0,1,2.13.37,3.84,3.84,0,0,1,1.44.94A3.43,3.43,0,0,1,295.44,139Zm-2.51,3.14a3.65,3.65,0,0,0-3.95,0,2,2,0,0,0,0,3.15,3.63,3.63,0,0,0,4,0,1.85,1.85,0,0,0,.77-1.57A1.88,1.88,0,0,0,292.93,142.16Z" fill="#003a50"/></g></svg>