<svg id="Слой_1" data-name="Слой 1" xmlns="http://www.w3.org/2000/svg" xmlns:xlink="http://www.w3.org/1999/xlink" viewBox="0 0 583.94 629.29"><defs><clipPath id="clip-path"><polygon points="0 0 0 161.46 50.85 161.46 50.85 228.47 157.32 228.47 157.32 613.67 168.28 613.67 168.28 627.31 581.39 627.31 581.39 0 0 0" fill="none"/></clipPath></defs><polygon points="50.85 227.91 50.85 228.47 157.32 228.47 157.32 611.36 165.47 611.36 165.47 226.32 50.85 227.91" fill="#fff"/><polygon points="53.49 8.47 53.49 77.42 67.22 109.72 67.22 159.22 68.08 222.04 162.39 225.41 167.25 611.36 564.77 610.59 564.77 214.44 564.51 214.44 564.51 9.22 74.65 9.22 74.65 8.47 53.49 8.47" fill="#fff"/><polygon points="66.3 0 66.24 6.26 564.64 6.26 564.64 0 66.3 0" fill="#fff"/><g clip-path="url(#clip-path)"><rect x="-584.89" y="-1615.4" width="1162.95" height="2240.57" fill="none" stroke="#003a50" stroke-miterlimit="10"/><polygon points="-572.3 -511.23 -572.3 612.32 565.09 612.32 565.09 -1602.45 -572.3 -1602.61 -572.3 -581.94 -572.3 -511.23" fill="none" stroke="#003a50" stroke-miterlimit="10"/></g><rect x="540.77" y="413.37" width="4.56" height="139.51" fill="#fff"/><rect x="540.76" y="413.37" width="4.56" height="139.51" fill="none" stroke="#003a50" stroke-miterlimit="10"/><line x1="543.04" y1="552.89" x2="543.04" y2="413.38" fill="none" stroke="#003a50" stroke-miterlimit="10"/><rect x="540.77" y="516.7" width="4.56" height="4.48" fill="#fff"/><rect x="540.76" y="516.69" width="4.56" height="4.48" fill="none" stroke="#003a50" stroke-miterlimit="10"/><rect x="540.77" y="484.99" width="4.56" height="4.48" fill="#fff"/><rect x="540.76" y="484.99" width="4.56" height="4.48" fill="none" stroke="#003a50" stroke-miterlimit="10"/><rect x="540.77" y="548.41" width="4.56" height="4.48" fill="#fff"/><rect x="540.76" y="548.41" width="4.56" height="4.48" fill="none" stroke="#003a50" stroke-miterlimit="10"/><rect x="540.77" y="413.37" width="4.56" height="4.48" fill="#fff"/><rect x="540.76" y="413.37" width="4.56" height="4.48" fill="none" stroke="#003a50" stroke-miterlimit="10"/><rect x="540.77" y="453.28" width="4.56" height="4.48" fill="#fff"/><rect x="540.76" y="453.28" width="4.56" height="4.48" fill="none" stroke="#003a50" stroke-miterlimit="10"/><g clip-path="url(#clip-path)"><path d="M540.77,453.28h-2.9c-20.15,0-33.1-15.86-33.1-35.43h36" fill="none" stroke="#003a50" stroke-miterlimit="10"/><path d="M52.94,586.77v-2.9c0-20.15-16.12-33.1-36-33.1v36" fill="none" stroke="#003a50" stroke-miterlimit="10"/></g><rect x="195.23" y="586.77" width="86.13" height="4.56" fill="#fff"/><rect x="195.23" y="586.77" width="86.13" height="4.56" fill="none" stroke="#003a50" stroke-miterlimit="10"/><line x1="195.23" y1="589.05" x2="281.36" y2="589.05" fill="none" stroke="#003a50" stroke-miterlimit="10"/><rect x="195.23" y="586.77" width="4.46" height="4.56" fill="#fff"/><rect x="195.23" y="586.77" width="4.46" height="4.56" fill="none" stroke="#003a50" stroke-miterlimit="10"/><rect x="276.89" y="586.77" width="4.46" height="4.56" fill="#fff"/><rect x="276.89" y="586.77" width="4.46" height="4.56" fill="none" stroke="#003a50" stroke-miterlimit="10"/><rect x="237.11" y="586.77" width="4.47" height="4.56" fill="#fff"/><rect x="237.11" y="586.77" width="4.47" height="4.56" fill="none" stroke="#003a50" stroke-miterlimit="10"/><g clip-path="url(#clip-path)"><path d="M241.58,586.77v-2.9c0-20.15,15.81-33.1,35.31-33.1v36" fill="none" stroke="#003a50" stroke-miterlimit="10"/></g><rect x="377.68" y="586.77" width="87.96" height="4.56" fill="#fff"/><rect x="377.68" y="586.77" width="87.96" height="4.56" fill="none" stroke="#003a50" stroke-miterlimit="10"/><line x1="377.68" y1="589.05" x2="465.64" y2="589.05" fill="none" stroke="#003a50" stroke-miterlimit="10"/><rect x="377.68" y="586.77" width="4.56" height="4.56" fill="#fff"/><rect x="377.68" y="586.77" width="4.56" height="4.56" fill="none" stroke="#003a50" stroke-miterlimit="10"/><rect x="461.08" y="586.77" width="4.56" height="4.56" fill="#fff"/><rect x="461.08" y="586.77" width="4.56" height="4.56" fill="none" stroke="#003a50" stroke-miterlimit="10"/><rect x="420.46" y="586.77" width="4.56" height="4.56" fill="#fff"/><rect x="420.46" y="586.77" width="4.56" height="4.56" fill="none" stroke="#003a50" stroke-miterlimit="10"/><g clip-path="url(#clip-path)"><path d="M425,586.77v-2.9c0-20.15,16.14-33.1,36.06-33.1v36" fill="none" stroke="#003a50" stroke-miterlimit="10"/></g><rect x="540.77" y="44.74" width="4.56" height="87.58" fill="#fff"/><rect x="540.76" y="44.74" width="4.56" height="87.58" fill="none" stroke="#003a50" stroke-miterlimit="10"/><line x1="543.04" y1="132.32" x2="543.04" y2="44.74" fill="none" stroke="#003a50" stroke-miterlimit="10"/><rect x="540.77" y="127.66" width="4.56" height="4.67" fill="#fff"/><rect x="540.76" y="127.65" width="4.56" height="4.67" fill="none" stroke="#003a50" stroke-miterlimit="10"/><rect x="540.77" y="44.74" width="4.56" height="4.67" fill="#fff"/><rect x="540.76" y="44.74" width="4.56" height="4.67" fill="none" stroke="#003a50" stroke-miterlimit="10"/><rect x="540.77" y="86.33" width="4.56" height="4.67" fill="#fff"/><rect x="540.76" y="86.33" width="4.56" height="4.67" fill="none" stroke="#003a50" stroke-miterlimit="10"/><g clip-path="url(#clip-path)"><path d="M540.77,86.32h-2.9c-20.15,0-33.1-16.52-33.1-36.91h36" fill="none" stroke="#003a50" stroke-miterlimit="10"/></g><rect x="540.77" y="227.67" width="4.56" height="89.08" fill="#fff"/><rect x="540.76" y="227.67" width="4.56" height="89.08" fill="none" stroke="#003a50" stroke-miterlimit="10"/><line x1="543.04" y1="227.67" x2="543.04" y2="316.76" fill="none" stroke="#003a50" stroke-miterlimit="10"/><rect x="540.77" y="227.67" width="4.56" height="4.62" fill="#fff"/><rect x="540.76" y="227.67" width="4.56" height="4.62" fill="none" stroke="#003a50" stroke-miterlimit="10"/><rect x="540.77" y="312.14" width="4.56" height="4.62" fill="#fff"/><rect x="540.76" y="312.14" width="4.56" height="4.62" fill="none" stroke="#003a50" stroke-miterlimit="10"/><rect x="540.77" y="271" width="4.56" height="4.61" fill="#fff"/><rect x="540.76" y="270.99" width="4.56" height="4.62" fill="none" stroke="#003a50" stroke-miterlimit="10"/><g clip-path="url(#clip-path)"><path d="M540.77,275.61h-2.9c-20.15,0-33.1,16.35-33.1,36.53h36" fill="none" stroke="#003a50" stroke-miterlimit="10"/></g><rect x="248.77" y="174.35" width="42.38" height="92.09" fill="none" stroke="#003a50" stroke-miterlimit="10"/><g clip-path="url(#clip-path)"><rect x="253.75" y="178.14" width="32.03" height="84.24" rx="13.7" fill="none" stroke="#003a50" stroke-miterlimit="10"/><path d="M272.05,192.72a2.21,2.21,0,1,0-2.2,2.2A2.21,2.21,0,0,0,272.05,192.72Z" fill="none" stroke="#003a50" stroke-miterlimit="10"/><path d="M201.88,222.63H173.32v23.08h28.56a11.54,11.54,0,0,0,0-23.08Z" fill="none" stroke="#003a50" stroke-miterlimit="10"/></g><rect x="173.32" y="222.63" width="11.08" height="23.08" fill="none" stroke="#003a50" stroke-miterlimit="10"/><g clip-path="url(#clip-path)"><rect x="167.76" y="-95.14" width="43.96" height="95.52" fill="none" stroke="#003a50" stroke-miterlimit="10"/><path d="M201.88,49.69H173.32V72.77h28.56a11.54,11.54,0,0,0,0-23.08Z" fill="none" stroke="#003a50" stroke-miterlimit="10"/></g><rect x="173.32" y="49.69" width="11.08" height="23.08" fill="none" stroke="#003a50" stroke-miterlimit="10"/><g clip-path="url(#clip-path)"><rect x="102.85" y="-30.42" width="31.57" height="30.42" fill="none" stroke="#003a50" stroke-miterlimit="10"/><path d="M151.84,74.45a3.16,3.16,0,0,0,2.9-2h1.79l4.73,2.82-2.14,3.5-2.47-1.35v11h-10.3v-11l-2.46,1.35-2.15-3.5,4.77-2.82h2.39A3.21,3.21,0,0,0,151.84,74.45Z" fill="none" stroke="#003a50" stroke-miterlimit="10"/></g><rect x="135.72" y="65.29" width="31.57" height="30.36" fill="none" stroke="#003a50" stroke-miterlimit="10"/><rect x="354.93" y="12.4" width="33.97" height="34.02" fill="none" stroke="#003a50" stroke-miterlimit="10"/><g clip-path="url(#clip-path)"><path d="M376.24,28.62v-11h-8.61V28.62a3.55,3.55,0,0,0,3.55,3.54h1.51A3.55,3.55,0,0,0,376.24,28.62Z" fill="none" stroke="#003a50" stroke-miterlimit="10"/></g><polyline points="368.46 42.72 371.94 42.72 375.41 42.72" fill="none" stroke="#003a50" stroke-miterlimit="10"/><line x1="371.94" y1="32.16" x2="371.94" y2="42.72" fill="none" stroke="#003a50" stroke-miterlimit="10"/><g clip-path="url(#clip-path)"><rect x="123.63" y="260.69" width="34.02" height="33.97" fill="none" stroke="#003a50" stroke-miterlimit="10"/><path d="M144.94,276.17V265.12h-8.6v11.05a3.53,3.53,0,0,0,3.54,3.54h1.52A3.54,3.54,0,0,0,144.94,276.17Z" fill="none" stroke="#003a50" stroke-miterlimit="10"/></g><rect x="435.4" y="12.4" width="34.02" height="34.02" fill="none" stroke="#003a50" stroke-miterlimit="10"/><g clip-path="url(#clip-path)"><path d="M464.81,37a4.64,4.64,0,1,1-4.64-4.64A4.63,4.63,0,0,1,464.81,37Z" fill="none" stroke="#003a50" stroke-miterlimit="10"/><path d="M449.33,37a4.64,4.64,0,1,1-4.64-4.64A4.63,4.63,0,0,1,449.33,37Z" fill="none" stroke="#003a50" stroke-miterlimit="10"/><path d="M464.81,21.93a4.64,4.64,0,1,1-4.64-4.64A4.63,4.63,0,0,1,464.81,21.93Z" fill="none" stroke="#003a50" stroke-miterlimit="10"/><path d="M449.33,21.93a4.64,4.64,0,1,1-4.64-4.64A4.63,4.63,0,0,1,449.33,21.93Z" fill="none" stroke="#003a50" stroke-miterlimit="10"/><rect x="292.15" y="-34.34" width="34.02" height="34.02" fill="none" stroke="#003a50" stroke-miterlimit="10"/><rect x="123.72" y="301.81" width="34.02" height="34.02" fill="none" stroke="#003a50" stroke-miterlimit="10"/><path d="M133.12,331.22a4.64,4.64,0,1,1,4.64-4.64A4.64,4.64,0,0,1,133.12,331.22Z" fill="none" stroke="#003a50" stroke-miterlimit="10"/><path d="M133.12,315.74a4.64,4.64,0,1,1,4.64-4.64A4.64,4.64,0,0,1,133.12,315.74Z" fill="none" stroke="#003a50" stroke-miterlimit="10"/><path d="M148.21,331.22a4.64,4.64,0,1,1,4.64-4.64A4.64,4.64,0,0,1,148.21,331.22Z" fill="none" stroke="#003a50" stroke-miterlimit="10"/><path d="M148.21,315.74a4.64,4.64,0,1,1,4.64-4.64A4.64,4.64,0,0,1,148.21,315.74Z" fill="none" stroke="#003a50" stroke-miterlimit="10"/></g><rect x="297.78" y="202.73" width="17.01" height="102.05" fill="none" stroke="#003a50" stroke-miterlimit="10"/><polygon points="306.83 296.75 303.3 253.86 306.83 210.75 309.29 210.75 309.29 296.75 306.83 296.75" fill="none" stroke="#003a50" stroke-miterlimit="10"/><rect x="337.21" y="438.66" width="17.01" height="102.05" fill="none" stroke="#003a50" stroke-miterlimit="10"/><polygon points="345.18 446.69 348.7 489.58 345.18 532.68 342.72 532.68 342.72 446.69 345.18 446.69" fill="none" stroke="#003a50" stroke-miterlimit="10"/><g clip-path="url(#clip-path)"><rect x="123.72" y="260.79" width="33.59" height="122.25" fill="none" stroke="#003a50" stroke-miterlimit="10"/><rect x="76.66" y="228.07" width="80.66" height="32.72" fill="none" stroke="#003a50" stroke-miterlimit="10"/></g><rect x="295.97" y="12.27" width="199.76" height="34.28" fill="none" stroke="#003a50" stroke-miterlimit="10"/><rect x="360.1" y="459" width="52.33" height="113.67" fill="none" stroke="#003a50" stroke-miterlimit="10"/><g clip-path="url(#clip-path)"><path d="M369,468.71h34a2.1,2.1,0,0,1,2.1,2.1v67.62H366.94V470.81A2.1,2.1,0,0,1,369,468.71Z" fill="none" stroke="#003a50" stroke-miterlimit="10"/></g><rect x="366.94" y="524.58" width="38.26" height="13.85" fill="none" stroke="#003a50" stroke-miterlimit="10"/><g clip-path="url(#clip-path)"><path d="M368.75,564.93h34.3a2.2,2.2,0,0,0,2.2-2.21V544.25a2.19,2.19,0,0,0-2.2-2.2h-34.3a2.2,2.2,0,0,0-2.21,2.2v18.47A2.21,2.21,0,0,0,368.75,564.93Z" fill="none" stroke="#003a50" stroke-miterlimit="10"/></g><rect x="247.61" y="12.06" width="42.22" height="83.62" fill="none" stroke="#003a50" stroke-miterlimit="10"/><g clip-path="url(#clip-path)"><path d="M271.18,32a2.46,2.46,0,1,1-2.46-2.46A2.46,2.46,0,0,1,271.18,32Z" fill="none" stroke="#003a50" stroke-miterlimit="10"/><path d="M118.35,255.85v-15.2a3.23,3.23,0,0,0-3.23-3.23H91.53a3.24,3.24,0,0,0-3.24,3.23v15.2a3.24,3.24,0,0,0,3.24,3.24h23.59A3.23,3.23,0,0,0,118.35,255.85Z" fill="none" stroke="#003a50" stroke-miterlimit="10"/><path d="M103.28,246.91a2.43,2.43,0,1,0-2.42-2.43A2.42,2.42,0,0,0,103.28,246.91Z" fill="none" stroke="#003a50" stroke-miterlimit="10"/></g><polyline points="329.57 15.06 322.77 15.06 315.99 15.06" fill="none" stroke="#003a50" stroke-miterlimit="10"/><line x1="322.75" y1="28.68" x2="322.75" y2="15.06" fill="none" stroke="#003a50" stroke-miterlimit="10"/><g clip-path="url(#clip-path)"><path d="M337.83,39.31V24.11a3.24,3.24,0,0,0-3.24-3.23H311a3.24,3.24,0,0,0-3.24,3.23v15.2A3.24,3.24,0,0,0,311,42.55h23.59A3.24,3.24,0,0,0,337.83,39.31Z" fill="none" stroke="#003a50" stroke-miterlimit="10"/><path d="M322.75,30.37A2.43,2.43,0,1,0,320.33,28,2.42,2.42,0,0,0,322.75,30.37Z" fill="none" stroke="#003a50" stroke-miterlimit="10"/><path d="M28.25,431.25a1.25,1.25,0,0,1,.94,1.5,13.78,13.78,0,1,0,26.87,6.16,1.26,1.26,0,0,1,2.46.57,16.3,16.3,0,0,1-31.78-7.29A1.25,1.25,0,0,1,28.25,431.25Z" fill="none" stroke="#003a50" stroke-miterlimit="10"/><path d="M83.42,441a1.26,1.26,0,0,1,1.75-.33,13.78,13.78,0,0,0,15.52-22.78,1.26,1.26,0,1,1,1.42-2.08,16.3,16.3,0,1,1-18.36,26.94A1.25,1.25,0,0,1,83.42,441Z" fill="none" stroke="#003a50" stroke-miterlimit="10"/><path d="M85.92,393.56a1.26,1.26,0,0,1-1.33-1.18A13.78,13.78,0,1,0,57.07,394a1.26,1.26,0,1,1-2.51.15,16.3,16.3,0,1,1,32.54-1.93A1.25,1.25,0,0,1,85.92,393.56Z" fill="none" stroke="#003a50" stroke-miterlimit="10"/><path d="M42.45,447.86a12.69,12.69,0,0,1-12-15.48l2-8.88a3.53,3.53,0,0,1,4.24-2.68l13.44,3.08a23.73,23.73,0,0,0,6,9.44l-1,4.2C53.85,443.5,48.57,448.06,42.45,447.86Z" fill="none" stroke="#003a50" stroke-miterlimit="10"/><path d="M85.25,439.34l-2.32-1.6a23.81,23.81,0,0,0,13.64-21.32l2.52,1.72c5,3.44,7.4,10,5,15.64A12.7,12.7,0,0,1,85.25,439.34Z" fill="none" stroke="#003a50" stroke-miterlimit="10"/><path d="M58.41,397.06l-.12-2c-.36-6.12,3.4-12,9.32-13.48A12.66,12.66,0,0,1,83.49,393.1l.12,1.84A23.93,23.93,0,0,0,67,393,23.5,23.5,0,0,0,58.41,397.06Z" fill="none" stroke="#003a50" stroke-miterlimit="10"/><path d="M56.17,433.34a23.73,23.73,0,0,1-6-9.44,16.51,16.51,0,0,1-.6-2,23.85,23.85,0,0,1,8.84-24.84A23.5,23.5,0,0,1,67,393a23.87,23.87,0,0,1,28.92,17.4,22.12,22.12,0,0,1,.68,6,23.81,23.81,0,0,1-13.64,21.32,22.85,22.85,0,0,1-4.48,1.6A23.8,23.8,0,0,1,56.17,433.34Z" fill="none" stroke="#003a50" stroke-miterlimit="10"/><rect x="218.59" y="-34.33" width="136.06" height="34.02" fill="none" stroke="#003a50" stroke-miterlimit="10"/></g><rect x="408.7" y="342.34" width="57.24" height="22.68" fill="none" stroke="#003a50" stroke-miterlimit="10"/><rect x="465.94" y="342.34" width="57.24" height="22.68" fill="none" stroke="#003a50" stroke-miterlimit="10"/><polygon points="248.51 205.33 173.58 205.12 173.58 174.57 248.51 174.78 248.51 205.33" fill="none" stroke="#003a50" stroke-miterlimit="10"/><g clip-path="url(#clip-path)"><path d="M179.65,199.31v-23A3.35,3.35,0,0,1,183,173h22.25a3.36,3.36,0,0,1,3.36,3.36v23a3.37,3.37,0,0,1-3.36,3.36H183A3.36,3.36,0,0,1,179.65,199.31Z" fill="none" stroke="#003a50" stroke-miterlimit="10"/><circle cx="194.13" cy="187.81" r="2.27" fill="none" stroke="#003a50" stroke-miterlimit="10"/><path d="M215.5,199.31v-23a3.36,3.36,0,0,1,3.36-3.36h22.25a3.35,3.35,0,0,1,3.35,3.36v23a3.36,3.36,0,0,1-3.35,3.36H218.86A3.37,3.37,0,0,1,215.5,199.31Z" fill="none" stroke="#003a50" stroke-miterlimit="10"/><circle cx="229.98" cy="187.81" r="2.27" fill="none" stroke="#003a50" stroke-miterlimit="10"/></g><polygon points="247.35 43.38 173.88 43.17 173.88 12.61 247.35 12.83 247.35 43.38" fill="none" stroke="#003a50" stroke-miterlimit="10"/><g clip-path="url(#clip-path)"><path d="M214.71,37.36v-23A3.37,3.37,0,0,1,218.07,11h22.25a3.36,3.36,0,0,1,3.35,3.36v23a3.35,3.35,0,0,1-3.35,3.35H218.07A3.36,3.36,0,0,1,214.71,37.36Z" fill="none" stroke="#003a50" stroke-miterlimit="10"/><path d="M229.19,28.13a2.27,2.27,0,1,1,2.27-2.27A2.27,2.27,0,0,1,229.19,28.13Z" fill="none" stroke="#003a50" stroke-miterlimit="10"/><polygon points="167.53 -30.52 102.57 -30.31 102.57 0.24 167.53 0.03 167.53 -30.52" fill="none" stroke="#003a50" stroke-miterlimit="10"/><path d="M137.15-24.5v23a3.36,3.36,0,0,0,3.35,3.36h22.25a3.37,3.37,0,0,0,3.36-3.36v-23a3.37,3.37,0,0,0-3.36-3.36H140.5A3.36,3.36,0,0,0,137.15-24.5Z" fill="none" stroke="#003a50" stroke-miterlimit="10"/><rect x="123.66" y="349.46" width="33.52" height="33.52" fill="none" stroke="#003a50" stroke-miterlimit="10"/></g><rect x="495.39" y="12.54" width="34.02" height="34.02" fill="none" stroke="#003a50" stroke-miterlimit="10"/><line x1="522.38" y1="29.55" x2="502.42" y2="29.55" fill="none" stroke="#003a50" stroke-miterlimit="10"/><line x1="512.4" y1="19.57" x2="512.4" y2="39.53" fill="none" stroke="#003a50" stroke-miterlimit="10"/><line x1="519.45" y1="22.49" x2="505.34" y2="36.6" fill="none" stroke="#003a50" stroke-miterlimit="10"/><line x1="505.34" y1="22.49" x2="519.45" y2="36.6" fill="none" stroke="#003a50" stroke-miterlimit="10"/><rect x="173.67" y="272.83" width="26.62" height="97.42" fill="none" stroke="#003a50" stroke-miterlimit="10"/><g clip-path="url(#clip-path)"><path d="M177.45,356.52a.79.79,0,0,1-.35-1.5,22.57,22.57,0,0,1,19.77,0,.79.79,0,0,1-.69,1.42,20.91,20.91,0,0,0-18.39,0A.84.84,0,0,1,177.45,356.52Z" fill="none" stroke="#003a50" stroke-miterlimit="10"/><path d="M177.45,352.16a.78.78,0,0,1-.35-1.49,22.48,22.48,0,0,1,19.77,0,.78.78,0,1,1-.69,1.41,20.91,20.91,0,0,0-18.39,0A.71.71,0,0,1,177.45,352.16Z" fill="none" stroke="#003a50" stroke-miterlimit="10"/><path d="M177.45,347.8a.78.78,0,0,1-.35-1.49,22.57,22.57,0,0,1,19.77,0,.78.78,0,1,1-.69,1.41,21,21,0,0,0-18.39,0A.71.71,0,0,1,177.45,347.8Z" fill="none" stroke="#003a50" stroke-miterlimit="10"/><path d="M177.45,343.45a.8.8,0,0,1-.71-.44.78.78,0,0,1,.36-1.05,22.48,22.48,0,0,1,19.77,0,.78.78,0,1,1-.69,1.41,20.91,20.91,0,0,0-18.39,0A.84.84,0,0,1,177.45,343.45Z" fill="none" stroke="#003a50" stroke-miterlimit="10"/><path d="M177.45,339.09a.78.78,0,0,1-.35-1.49,22.57,22.57,0,0,1,19.77,0,.78.78,0,0,1-.69,1.41,20.91,20.91,0,0,0-18.39,0A.71.71,0,0,1,177.45,339.09Z" fill="none" stroke="#003a50" stroke-miterlimit="10"/><path d="M177.45,334.74a.79.79,0,0,1-.35-1.5,22.57,22.57,0,0,1,19.77,0,.79.79,0,0,1-.69,1.42,20.91,20.91,0,0,0-18.39,0A.84.84,0,0,1,177.45,334.74Z" fill="none" stroke="#003a50" stroke-miterlimit="10"/><path d="M177.45,360.87a.78.78,0,0,1-.35-1.49,22.57,22.57,0,0,1,19.77,0,.78.78,0,1,1-.69,1.41,20.91,20.91,0,0,0-18.39,0A.71.71,0,0,1,177.45,360.87Z" fill="none" stroke="#003a50" stroke-miterlimit="10"/><path d="M177.45,365.23a.8.8,0,0,1-.71-.44.78.78,0,0,1,.36-1.05,22.48,22.48,0,0,1,19.77,0,.78.78,0,1,1-.69,1.41,20.91,20.91,0,0,0-18.39,0A.84.84,0,0,1,177.45,365.23Z" fill="none" stroke="#003a50" stroke-miterlimit="10"/></g><line x1="186.99" y1="369.91" x2="186.99" y2="272.83" fill="none" stroke="#003a50" stroke-miterlimit="10"/><rect x="264.28" y="272.83" width="26.62" height="97.42" fill="none" stroke="#003a50" stroke-miterlimit="10"/><g clip-path="url(#clip-path)"><path d="M268.05,356.52a.79.79,0,0,1-.35-1.5,22.57,22.57,0,0,1,19.77,0,.79.79,0,0,1-.69,1.42,20.91,20.91,0,0,0-18.39,0A.77.77,0,0,1,268.05,356.52Z" fill="none" stroke="#003a50" stroke-miterlimit="10"/><path d="M268.05,352.16a.79.79,0,0,1-.35-1.49,22.48,22.48,0,0,1,19.77,0,.78.78,0,1,1-.69,1.41,20.91,20.91,0,0,0-18.39,0A.66.66,0,0,1,268.05,352.16Z" fill="none" stroke="#003a50" stroke-miterlimit="10"/><path d="M268.05,347.8a.79.79,0,0,1-.35-1.49,22.57,22.57,0,0,1,19.77,0,.78.78,0,1,1-.69,1.41,21,21,0,0,0-18.39,0A.66.66,0,0,1,268.05,347.8Z" fill="none" stroke="#003a50" stroke-miterlimit="10"/><path d="M268.05,343.45a.79.79,0,0,1-.7-.44.77.77,0,0,1,.35-1.05,22.48,22.48,0,0,1,19.77,0,.78.78,0,1,1-.69,1.41,20.91,20.91,0,0,0-18.39,0A.77.77,0,0,1,268.05,343.45Z" fill="none" stroke="#003a50" stroke-miterlimit="10"/><path d="M268.05,339.09a.79.79,0,0,1-.35-1.49,22.57,22.57,0,0,1,19.77,0,.78.78,0,1,1-.69,1.41,20.91,20.91,0,0,0-18.39,0A.66.66,0,0,1,268.05,339.09Z" fill="none" stroke="#003a50" stroke-miterlimit="10"/><path d="M268.05,334.74a.79.79,0,0,1-.35-1.5,22.57,22.57,0,0,1,19.77,0,.79.79,0,0,1-.69,1.42,20.91,20.91,0,0,0-18.39,0A.77.77,0,0,1,268.05,334.74Z" fill="none" stroke="#003a50" stroke-miterlimit="10"/><path d="M268.05,360.87a.79.79,0,0,1-.35-1.49,22.57,22.57,0,0,1,19.77,0,.78.78,0,1,1-.69,1.41,20.91,20.91,0,0,0-18.39,0A.66.66,0,0,1,268.05,360.87Z" fill="none" stroke="#003a50" stroke-miterlimit="10"/><path d="M268.05,365.23a.79.79,0,0,1-.7-.44.77.77,0,0,1,.35-1.05,22.48,22.48,0,0,1,19.77,0,.78.78,0,1,1-.69,1.41,20.91,20.91,0,0,0-18.39,0A.77.77,0,0,1,268.05,365.23Z" fill="none" stroke="#003a50" stroke-miterlimit="10"/></g><line x1="277.59" y1="369.91" x2="277.59" y2="272.83" fill="none" stroke="#003a50" stroke-miterlimit="10"/><g clip-path="url(#clip-path)"><path d="M153.33,61.54a.79.79,0,0,1-.44.71.78.78,0,0,1-1-.36,22.48,22.48,0,0,1,0-19.77.78.78,0,0,1,1.41.69,20.91,20.91,0,0,0,0,18.39A.71.71,0,0,1,153.33,61.54Z" fill="none" stroke="#003a50" stroke-miterlimit="10"/><path d="M149,61.54a.78.78,0,0,1-1.49.35,22.57,22.57,0,0,1,0-19.77.78.78,0,1,1,1.41.69,21,21,0,0,0,0,18.39A.71.71,0,0,1,149,61.54Z" fill="none" stroke="#003a50" stroke-miterlimit="10"/><path d="M144.62,61.54a.81.81,0,0,1-.44.71.78.78,0,0,1-1.05-.36,22.48,22.48,0,0,1,0-19.77.78.78,0,1,1,1.41.69,20.91,20.91,0,0,0,0,18.39A.84.84,0,0,1,144.62,61.54Z" fill="none" stroke="#003a50" stroke-miterlimit="10"/><path d="M140.26,61.54a.79.79,0,0,1-.44.71.78.78,0,0,1-1-.36,22.57,22.57,0,0,1,0-19.77.78.78,0,0,1,1.41.69,20.91,20.91,0,0,0,0,18.39A.71.71,0,0,1,140.26,61.54Z" fill="none" stroke="#003a50" stroke-miterlimit="10"/><path d="M135.9,61.54a.78.78,0,0,1-1.49.35,22.57,22.57,0,0,1,0-19.77.78.78,0,1,1,1.41.69,21,21,0,0,0,0,18.39A.71.71,0,0,1,135.9,61.54Z" fill="none" stroke="#003a50" stroke-miterlimit="10"/><path d="M131.55,61.54a.81.81,0,0,1-.44.71.78.78,0,0,1-1.05-.36,22.48,22.48,0,0,1,0-19.77.78.78,0,1,1,1.41.69,20.91,20.91,0,0,0,0,18.39A.84.84,0,0,1,131.55,61.54Z" fill="none" stroke="#003a50" stroke-miterlimit="10"/><path d="M157.69,61.54a.81.81,0,0,1-.44.71.8.8,0,0,1-1.06-.36,22.57,22.57,0,0,1,0-19.77.79.79,0,0,1,1.42.69,20.91,20.91,0,0,0,0,18.39A.84.84,0,0,1,157.69,61.54Z" fill="none" stroke="#003a50" stroke-miterlimit="10"/><path d="M162,61.54a.79.79,0,0,1-.44.71.78.78,0,0,1-1-.36,22.57,22.57,0,0,1,0-19.77.78.78,0,0,1,1.41.69,20.91,20.91,0,0,0,0,18.39A.71.71,0,0,1,162,61.54Z" fill="none" stroke="#003a50" stroke-miterlimit="10"/></g><line x1="166.73" y1="52" x2="86.58" y2="52" fill="none" stroke="#003a50" stroke-miterlimit="10"/><rect x="86.58" y="38.69" width="80.49" height="26.6" fill="none" stroke="#003a50" stroke-miterlimit="10"/><rect x="431.72" y="371.39" width="90.71" height="34.02" fill="none" stroke="#003a50" stroke-miterlimit="10"/><g clip-path="url(#clip-path)"><path d="M474.29,400.58a1,1,0,0,1-1.9.45,28.77,28.77,0,0,1,0-25.26,1,1,0,0,1,1.8.88,26.72,26.72,0,0,0,0,23.49A1,1,0,0,1,474.29,400.58Z" fill="none" stroke="#003a50" stroke-miterlimit="10"/><path d="M468.73,400.58a1,1,0,0,1-.56.9,1,1,0,0,1-1.35-.45,28.77,28.77,0,0,1,0-25.26,1,1,0,0,1,1.34-.46,1,1,0,0,1,.46,1.34,26.81,26.81,0,0,0,0,23.49A.9.9,0,0,1,468.73,400.58Z" fill="none" stroke="#003a50" stroke-miterlimit="10"/><path d="M463.16,400.58a1,1,0,0,1-1.9.45,28.77,28.77,0,0,1,0-25.26,1,1,0,0,1,1.8.88,26.72,26.72,0,0,0,0,23.49A1,1,0,0,1,463.16,400.58Z" fill="none" stroke="#003a50" stroke-miterlimit="10"/><path d="M457.6,400.58a1,1,0,0,1-.56.9,1,1,0,0,1-1.35-.45,28.77,28.77,0,0,1,0-25.26,1,1,0,0,1,1.34-.46,1,1,0,0,1,.46,1.34,26.81,26.81,0,0,0,0,23.49A1,1,0,0,1,457.6,400.58Z" fill="none" stroke="#003a50" stroke-miterlimit="10"/><path d="M452,400.58a1,1,0,0,1-1.9.45,28.77,28.77,0,0,1,0-25.26,1,1,0,0,1,1.8.88,26.72,26.72,0,0,0,0,23.49A1,1,0,0,1,452,400.58Z" fill="none" stroke="#003a50" stroke-miterlimit="10"/><path d="M446.47,400.58a1,1,0,0,1-.56.9,1,1,0,0,1-1.35-.45,28.77,28.77,0,0,1,0-25.26,1,1,0,0,1,1.34-.46,1,1,0,0,1,.46,1.34,26.81,26.81,0,0,0,0,23.49A1,1,0,0,1,446.47,400.58Z" fill="none" stroke="#003a50" stroke-miterlimit="10"/><path d="M479.86,400.58a1,1,0,0,1-.56.9A1,1,0,0,1,478,401a28.77,28.77,0,0,1,0-25.26,1,1,0,0,1,1.34-.46,1,1,0,0,1,.46,1.34,26.81,26.81,0,0,0,0,23.49A.9.9,0,0,1,479.86,400.58Z" fill="none" stroke="#003a50" stroke-miterlimit="10"/><path d="M485.42,400.58a1,1,0,0,1-.56.9,1,1,0,0,1-1.34-.45,28.77,28.77,0,0,1,0-25.26,1,1,0,0,1,1.8.88,26.72,26.72,0,0,0,0,23.49A1,1,0,0,1,485.42,400.58Z" fill="none" stroke="#003a50" stroke-miterlimit="10"/></g><line x1="522.43" y1="388.4" x2="431.72" y2="388.4" fill="none" stroke="#003a50" stroke-miterlimit="10"/><g clip-path="url(#clip-path)"><path d="M423.6-48.4a3.11,3.11,0,0,0-3.33-2.83h-4.22a3.11,3.11,0,0,0-3.33,2.83V-.2H526.11V-48a3.11,3.11,0,0,0-3.33-2.83h-4.22A3.1,3.1,0,0,0,515.24-48V-5.15H423.6Z" fill="none" stroke="#003a50" stroke-miterlimit="10"/><path d="M111,515.43h41V561.2H108.76V517.64A2.2,2.2,0,0,1,111,515.43Z" fill="none" stroke="#003a50" stroke-miterlimit="10"/><path d="M110.74,469.57H152v45.76H110.74a2,2,0,0,1-2-2v-41.8A2,2,0,0,1,110.74,469.57Z" fill="none" stroke="#003a50" stroke-miterlimit="10"/><path d="M108.75,561.2a3.1,3.1,0,0,0-2.82,3.33v4.22a3.1,3.1,0,0,0,2.82,3.33H157V458.69H109.18a3.11,3.11,0,0,0-2.83,3.33v4.22a3.11,3.11,0,0,0,2.83,3.33H152V561.2Z" fill="none" stroke="#003a50" stroke-miterlimit="10"/><path d="M389,253.8h41v45.77H386.82V256A2.2,2.2,0,0,1,389,253.8Z" fill="none" stroke="#003a50" stroke-miterlimit="10"/><path d="M388.8,207.94h41.26V253.7H388.8a2,2,0,0,1-2-2v-41.8A2,2,0,0,1,388.8,207.94Z" fill="none" stroke="#003a50" stroke-miterlimit="10"/><path d="M386.81,299.57A3.1,3.1,0,0,0,384,302.9v4.22a3.1,3.1,0,0,0,2.82,3.33H435V197.06H387.24a3.11,3.11,0,0,0-2.83,3.33v4.22a3.11,3.11,0,0,0,2.83,3.33h42.82v91.63Z" fill="none" stroke="#003a50" stroke-miterlimit="10"/></g><rect x="420.81" y="207.93" width="9.25" height="91.64" fill="none" stroke="#003a50" stroke-miterlimit="10"/><g clip-path="url(#clip-path)"><path d="M506.35,512.27a14.78,14.78,0,0,1-15.93-23.39,1.14,1.14,0,0,1,1.78,1.43,12.47,12.47,0,0,0,14.15,19.5Z" fill="none" stroke="#003a50" stroke-miterlimit="10"/><rect x="506.35" y="458.01" width="34.02" height="84.03" rx="3.31" fill="none" stroke="#003a50" stroke-miterlimit="10"/><path d="M536.65,539.49a1.4,1.4,0,0,0,1.4-1.39V462a1.4,1.4,0,0,0-2.79,0V538.1a1.39,1.39,0,0,0,1.39,1.39" fill="none" stroke="#003a50" stroke-miterlimit="10"/><path d="M522.07,471.68a5.51,5.51,0,1,0,0-7.78A5.5,5.5,0,0,0,522.07,471.68Z" fill="none" stroke="#003a50" stroke-miterlimit="10"/><path d="M521.7,471.27c1-.1,2,.29,3-.7,1.46-1.46-.08-3,1.38-4.47s3,.09,4.47-1.38" fill="none" stroke="#003a50" stroke-miterlimit="10"/><path d="M506.35,507.56a10.64,10.64,0,1,1,0-19.6Z" fill="none" stroke="#003a50" stroke-miterlimit="10"/></g><rect x="173.49" y="550.8" width="22.68" height="22.68" fill="none" stroke="#003a50" stroke-miterlimit="10"/><g clip-path="url(#clip-path)"><path d="M191.33,568.64a9.19,9.19,0,1,1,0-13A9.19,9.19,0,0,1,191.33,568.64Z" fill="none" stroke="#003a50" stroke-miterlimit="10"/><path d="M192,568c-1.69-.17-3.41.48-5.07-1.17-2.43-2.44.15-5-2.29-7.45s-5,.14-7.46-2.3" fill="none" stroke="#003a50" stroke-miterlimit="10"/></g><rect x="173.49" y="412.37" width="22.68" height="22.68" fill="none" stroke="#003a50" stroke-miterlimit="10"/><g clip-path="url(#clip-path)"><path d="M191.33,430.21a9.2,9.2,0,1,1,0-13A9.19,9.19,0,0,1,191.33,430.21Z" fill="none" stroke="#003a50" stroke-miterlimit="10"/><path d="M192,429.52c-1.7-.17-3.41.48-5.06-1.17-2.44-2.44.14-5-2.3-7.46s-5,.14-7.46-2.3" fill="none" stroke="#003a50" stroke-miterlimit="10"/></g><rect x="173.49" y="441.9" width="113.38" height="102.05" fill="none" stroke="#003a50" stroke-miterlimit="10"/><g clip-path="url(#clip-path)"><path d="M277.14,451.9V534a2.08,2.08,0,0,1-2.08,2.08H207.42V449.81h67.64A2.09,2.09,0,0,1,277.14,451.9Z" fill="none" stroke="#003a50" stroke-miterlimit="10"/><path d="M203.8,495.77v38.54a2,2,0,0,1-2,2H182.91a2,2,0,0,1-2-2V495.77a2,2,0,0,1,2-2h18.91A2,2,0,0,1,203.8,495.77Z" fill="none" stroke="#003a50" stroke-miterlimit="10"/><path d="M203.8,451.54v38.54a2,2,0,0,1-2,2H182.91a2,2,0,0,1-2-2V451.54a2,2,0,0,1,2-2h18.91A2,2,0,0,1,203.8,451.54Z" fill="none" stroke="#003a50" stroke-miterlimit="10"/></g><line x1="221.27" y1="449.56" x2="221.27" y2="536.29" fill="none" stroke="#003a50" stroke-miterlimit="10"/><g clip-path="url(#clip-path)"><path d="M486.51,102.85a1.24,1.24,0,0,1-1.25-1.24,13.67,13.67,0,0,0-27.33,0,1.25,1.25,0,0,1-2.49,0,16.16,16.16,0,1,1,32.31,0A1.24,1.24,0,0,1,486.51,102.85Z" fill="none" stroke="#003a50" stroke-miterlimit="10"/><path d="M456.69,155.55a1.25,1.25,0,0,1,1.25,1.25,13.66,13.66,0,1,0,27.32,0,1.25,1.25,0,1,1,2.49,0,16.16,16.16,0,1,1-32.31,0A1.25,1.25,0,0,1,456.69,155.55Z" fill="none" stroke="#003a50" stroke-miterlimit="10"/><path d="M445.06,102.85a1.24,1.24,0,0,1-1.24-1.24,13.67,13.67,0,0,0-27.33,0,1.25,1.25,0,0,1-2.49,0,16.16,16.16,0,1,1,32.31,0A1.24,1.24,0,0,1,445.06,102.85Z" fill="none" stroke="#003a50" stroke-miterlimit="10"/><path d="M415.24,155.55a1.25,1.25,0,0,1,1.25,1.25,13.67,13.67,0,0,0,27.33,0,1.25,1.25,0,1,1,2.49,0,16.16,16.16,0,1,1-32.31,0A1.25,1.25,0,0,1,415.24,155.55Z" fill="none" stroke="#003a50" stroke-miterlimit="10"/><path d="M392.16,116.49a1.25,1.25,0,0,1-1.25,1.25,13.66,13.66,0,0,0,0,27.32,1.25,1.25,0,1,1,0,2.49,16.16,16.16,0,1,1,0-32.31A1.25,1.25,0,0,1,392.16,116.49Z" fill="none" stroke="#003a50" stroke-miterlimit="10"/><path d="M504.72,146.31a1.25,1.25,0,0,1,1.25-1.25,13.67,13.67,0,0,0,0-27.33,1.25,1.25,0,1,1,0-2.49,16.16,16.16,0,0,1,0,32.31A1.25,1.25,0,0,1,504.72,146.31Z" fill="none" stroke="#003a50" stroke-miterlimit="10"/><path d="M471.58,89.72a12.57,12.57,0,0,1,12.56,12.52V108a23.7,23.7,0,0,0-6.08-.8h-19v-5A12.56,12.56,0,0,1,471.58,89.72Z" fill="none" stroke="#003a50" stroke-miterlimit="10"/><path d="M484.14,154.76v1.36a12.54,12.54,0,1,1-25.08,0v-.56h19A25.59,25.59,0,0,0,484.14,154.76Z" fill="none" stroke="#003a50" stroke-miterlimit="10"/><path d="M430.14,89.72a12.57,12.57,0,0,1,12.56,12.52v5H418.86c-.4,0-.84,0-1.24.08v-5.08A12.54,12.54,0,0,1,430.14,89.72Z" fill="none" stroke="#003a50" stroke-miterlimit="10"/><path d="M417.62,155.48c.4,0,.84.08,1.24.08H442.7v.56a12.54,12.54,0,1,1-25.08,0Z" fill="none" stroke="#003a50" stroke-miterlimit="10"/><path d="M498.66,118.84h6.64a12.54,12.54,0,1,1,0,25.08h-6.64a23.81,23.81,0,0,0,3.56-12.52A24.06,24.06,0,0,0,498.66,118.84Z" fill="none" stroke="#003a50" stroke-miterlimit="10"/><path d="M391.58,118.84h6.68a24.06,24.06,0,0,0-3.56,12.56,23.81,23.81,0,0,0,3.56,12.52h-6.68a12.54,12.54,0,1,1,0-25.08Z" fill="none" stroke="#003a50" stroke-miterlimit="10"/><path d="M418.86,107.24h59.2a23.7,23.7,0,0,1,6.08.8,24.24,24.24,0,0,1,18.08,23.36,23.81,23.81,0,0,1-3.56,12.52,24.19,24.19,0,0,1-14.52,10.84,25.59,25.59,0,0,1-6.08.8h-59.2c-.4,0-.84,0-1.24-.08a24.11,24.11,0,0,1,0-48.16C418,107.28,418.46,107.24,418.86,107.24Z" fill="none" stroke="#003a50" stroke-miterlimit="10"/><path d="M244.74,98.43v3.1a39,39,0,0,1-39,39V98.43" fill="none" stroke="#003a50" stroke-miterlimit="10" stroke-width="1.6"/><path d="M244.74,269.1v3.1a39,39,0,0,1-39,39V269.1" fill="none" stroke="#003a50" stroke-miterlimit="10" stroke-width="1.6"/><path d="M302.75,367.76v3.51a44.08,44.08,0,0,0,44.08,44.08V367.76" fill="none" stroke="#003a50" stroke-miterlimit="10" stroke-width="1.6"/><path d="M409.51,367.76v3.51a44.08,44.08,0,0,1-44.08,44.08V367.76" fill="none" stroke="#003a50" stroke-miterlimit="10" stroke-width="1.6"/><path d="M-10.68,218.19v-4.06A51.13,51.13,0,0,1,40.45,163v55.19" fill="none" stroke="#003a50" stroke-miterlimit="10" stroke-width="1.6"/><path d="M56.68,109H52.62A51.13,51.13,0,0,0,1.49,160.14H56.68" fill="none" stroke="#003a50" stroke-miterlimit="10" stroke-width="1.6"/><line x1="158.96" y1="104.81" x2="104.47" y2="104.81" fill="none" stroke="#003a50" stroke-miterlimit="10" stroke-width="1.6"/><rect x="50.9" y="-109.53" width="16.32" height="115.78" fill="#003a50"/><rect x="50.9" y="64.93" width="16.32" height="44.79" fill="#003a50"/><rect x="74.65" y="11.68" width="11.82" height="64.29" fill="#003a50"/><rect x="54.33" y="64.93" width="32.14" height="11.82" fill="#003a50"/><rect x="50.9" y="159.22" width="16.32" height="66" fill="#003a50"/><rect x="39.59" y="211.75" width="131.96" height="16.32" fill="#003a50"/><rect x="157.31" y="211.75" width="16.32" height="380.64" fill="#003a50"/><rect x="50.9" y="-0.04" width="486.82" height="12.6" fill="#003a50"/><rect x="-83.18" y="579.47" width="95.77" height="46.75" fill="#003a50"/><rect x="281.68" y="579.47" width="95.77" height="46.75" fill="#003a50"/><rect x="288.22" y="573.31" width="82.83" height="27.12" fill="#003a50"/><rect x="-77.53" y="573.31" width="82.83" height="27.12" fill="#003a50"/><rect x="528.94" y="579.47" width="34.25" height="34.25" fill="#003a50"/><rect x="100.05" y="579.47" width="95.33" height="38.9" fill="#003a50"/><rect x="465.75" y="579.47" width="95.33" height="34.25" fill="#003a50"/><rect x="168.22" y="583.47" width="27.17" height="41.92" fill="#003a50"/><rect x="528.33" y="552.7" width="49.36" height="48.15" fill="#003a50"/><rect x="523.22" y="317.14" width="9.5" height="59.58" fill="#003a50"/><rect x="523.22" y="145.81" width="9.5" height="76.42" fill="#003a50"/><rect x="551.85" y="600.85" width="25.83" height="25" fill="#003a50"/><rect x="529.68" y="132.51" width="23.77" height="94.57" fill="#003a50"/><rect x="533.68" y="201.18" width="39.53" height="25.9" fill="#003a50"/><polygon points="529.68 44.23 529.68 -51.51 579.02 -51.51 567.35 44.23 529.68 44.23" fill="#003a50" fill-rule="evenodd"/><polygon points="529.68 412.88 529.68 317.14 579.02 317.14 567.35 412.88 529.68 412.88" fill="#003a50" fill-rule="evenodd"/><rect x="211.93" y="-101.51" width="6.38" height="103.38" fill="#003a50"/><rect x="95.97" y="-99.33" width="6.38" height="101.24" fill="#003a50"/><rect x="243.96" y="95.68" width="52.01" height="6.38" fill="#003a50"/><rect x="289.59" y="10.22" width="6.38" height="88.64" fill="#003a50"/><rect x="167.25" y="10.22" width="6.38" height="88.64" fill="#003a50"/><rect x="81.79" y="32.53" width="88.64" height="6.38" fill="#003a50"/><rect x="141.75" y="9.22" width="6.38" height="26.49" fill="#003a50"/><rect x="131.71" y="95.68" width="75" height="6.38" fill="#003a50"/><rect x="59.06" y="95.68" width="35.29" height="6.38" fill="#003a50"/><rect x="167.25" y="167.89" width="6.38" height="52.01" fill="#003a50"/><rect x="63.38" y="185.96" width="108.92" height="6.38" fill="#003a50"/><rect x="114.66" y="188.22" width="6.38" height="33.17" fill="#003a50"/><rect x="167.25" y="167.97" width="128.72" height="6.38" fill="#003a50"/><rect x="167.25" y="266.35" width="39.47" height="6.38" fill="#003a50"/><rect x="243.96" y="266.35" width="48.82" height="6.38" fill="#003a50"/><rect x="290.72" y="365.01" width="12.92" height="6.38" fill="#003a50"/><rect x="345.72" y="365.01" width="20.5" height="6.38" fill="#003a50"/><rect x="408.7" y="365.01" width="126.02" height="6.38" fill="#003a50"/><rect x="353.45" y="368.2" width="6.38" height="211.27" fill="#003a50"/><rect x="290.8" y="167.97" width="6.38" height="203.42" fill="#003a50"/><rect x="50.31" y="225.23" width="6.38" height="25.25" fill="#003a50"/><rect x="70.28" y="225.97" width="6.38" height="24.5" fill="#003a50"/><rect x="52.16" y="244.1" width="24.5" height="6.38" fill="#003a50"/><rect x="50.9" y="1.91" width="5.98" height="81.48" fill="#003a50"/><line x1="263.87" y1="370.23" x2="261.04" y2="370.23" fill="none" stroke="#003a50" stroke-miterlimit="10"/><line x1="255.84" y1="370.23" x2="206.49" y2="370.23" fill="none" stroke="#003a50" stroke-miterlimit="10" stroke-dasharray="5.2 5.2"/><line x1="203.9" y1="370.23" x2="201.06" y2="370.23" fill="none" stroke="#003a50" stroke-miterlimit="10"/><line x1="-9.41" y1="318.23" x2="45.2" y2="318.23" fill="none" stroke="#003a50" stroke-miterlimit="10" stroke-dasharray="5.75 5.75"/><polyline points="48.07 318.23 50.91 318.23 50.91 315.39" fill="none" stroke="#003a50" stroke-miterlimit="10"/><line x1="50.9" y1="309.55" x2="50.9" y2="254.01" fill="none" stroke="#003a50" stroke-miterlimit="10" stroke-dasharray="5.85 5.85"/><line x1="50.9" y1="251.09" x2="50.9" y2="248.25" fill="none" stroke="#003a50" stroke-miterlimit="10"/><line x1="295.25" y1="102.01" x2="295.25" y2="104.84" fill="none" stroke="#003a50" stroke-miterlimit="10"/><line x1="295.25" y1="110.33" x2="295.25" y2="162.46" fill="none" stroke="#003a50" stroke-miterlimit="10" stroke-dasharray="5.49 5.49"/><line x1="295.25" y1="165.21" x2="295.25" y2="168.04" fill="none" stroke="#003a50" stroke-miterlimit="10"/><rect x="64.28" y="65.31" width="29.67" height="30.36" fill="none" stroke="#003a50" stroke-miterlimit="10" stroke-width="0.6"/></g><g clip-path="url(#clip-path)"><path d="M383.85,418.36l-2.49,1.95v-2.24l2.73-2.27H386v11.91h-2.11Z" fill="#003a50"/><path d="M398.35,427.71h-9.94v-1.56a2.8,2.8,0,0,1,.58-1.74,4.12,4.12,0,0,1,1.45-1.2c.5-.25,1.12-.54,1.87-.86l1.87-.78a4.12,4.12,0,0,0,1.45-.91,1.8,1.8,0,0,0,.57-1.3c0-1.26-.89-1.89-2.66-1.89s-2.68.72-2.68,2.16V420h-2.11v-.41a3.59,3.59,0,0,1,1.27-3,5.34,5.34,0,0,1,3.51-1,5.65,5.65,0,0,1,3.51,1,3.27,3.27,0,0,1,1.27,2.75,3.14,3.14,0,0,1-.55,1.83,4.42,4.42,0,0,1-1.41,1.31q-.9.51-1.83.93c-.63.27-1.24.52-1.83.74a5.11,5.11,0,0,0-1.4.75,1.22,1.22,0,0,0-.57,1h7.63Z" fill="#003a50"/><path d="M400.45,427.58a1.15,1.15,0,0,1,0-1.61,1.4,1.4,0,0,1,1.73,0,1.15,1.15,0,0,1,0,1.61,1.4,1.4,0,0,1-1.73,0Z" fill="#003a50"/><path d="M414.07,419.16h-2.21s0-.07,0-.18a2.94,2.94,0,0,0-.22-.44,2.28,2.28,0,0,0-.38-.5,2,2,0,0,0-.71-.41,3.29,3.29,0,0,0-1-.16,2.49,2.49,0,0,0-2.15,1,4.41,4.41,0,0,0-.77,2.68h.06a2,2,0,0,1,.44-.43,3.93,3.93,0,0,1,1.56-.67,6.16,6.16,0,0,1,1.22-.13,5.06,5.06,0,0,1,3.37,1.12,3.5,3.5,0,0,1,1.3,2.8,3.56,3.56,0,0,1-1.36,2.9,5.49,5.49,0,0,1-3.6,1.11,4.81,4.81,0,0,1-3.87-1.55,6.36,6.36,0,0,1-1.32-4.27v-.4a6.83,6.83,0,0,1,1.32-4.31,4.5,4.5,0,0,1,3.8-1.71,5.61,5.61,0,0,1,2.12.37,3.84,3.84,0,0,1,1.44.94A3.44,3.44,0,0,1,414.07,419.16Zm-2.51,3.14a3.65,3.65,0,0,0-3.95,0,2,2,0,0,0,0,3.15,3.15,3.15,0,0,0,2,.59,3.2,3.2,0,0,0,2-.59,2,2,0,0,0,0-3.15Z" fill="#003a50"/><path d="M263.21,418.34l-2.49,2v-2.24l2.74-2.26h1.86v11.9h-2.11Z" fill="#003a50"/><path d="M277.71,427.69h-9.94v-1.56a2.75,2.75,0,0,1,.59-1.74,4,4,0,0,1,1.44-1.2c.5-.25,1.12-.54,1.87-.86s1.32-.56,1.88-.77a4.09,4.09,0,0,0,1.44-.92,1.78,1.78,0,0,0,.57-1.3c0-1.26-.88-1.88-2.66-1.88s-2.68.71-2.68,2.15V420h-2.1v-.41a3.62,3.62,0,0,1,1.26-3,5.34,5.34,0,0,1,3.51-1,5.61,5.61,0,0,1,3.51,1,3.29,3.29,0,0,1,1.27,2.75,3.11,3.11,0,0,1-.55,1.83,4.31,4.31,0,0,1-1.41,1.31c-.59.34-1.21.65-1.83.93s-1.24.53-1.83.75a5.55,5.55,0,0,0-1.4.74,1.25,1.25,0,0,0-.57,1h7.63Z" fill="#003a50"/><path d="M279.81,427.56a1,1,0,0,1-.33-.8,1,1,0,0,1,.33-.81,1.23,1.23,0,0,1,.87-.3,1.2,1.2,0,0,1,.86.3,1,1,0,0,1,.33.81,1,1,0,0,1-.33.8,1.2,1.2,0,0,1-.86.3A1.23,1.23,0,0,1,279.81,427.56Z" fill="#003a50"/><path d="M286.92,427.69h-2.35l5.41-10h-6.92v-1.87h9.28v1.87Z" fill="#003a50"/><path d="M222.08,338.29h-5.82v-1.85h8.86v1.85l-4.52,2.65V341h1.28a3.9,3.9,0,0,1,2.79,1,3.52,3.52,0,0,1,1.05,2.67,3.32,3.32,0,0,1-1.33,2.82,6.93,6.93,0,0,1-7.24,0,3.35,3.35,0,0,1-1.33-2.85v-.33h2.11v.33c0,1.36.95,2,2.84,2s2.84-.66,2.84-2-.94-2-2.84-2h-3.26V341l4.57-2.69Z" fill="#003a50"/><path d="M227.82,348.22a1,1,0,0,1-.32-.81,1.06,1.06,0,0,1,.32-.8,1.41,1.41,0,0,1,1.74,0,1.06,1.06,0,0,1,.32.8,1,1,0,0,1-.32.81,1.41,1.41,0,0,1-1.74,0Z" fill="#003a50"/><path d="M232,345h2.21s0,.08,0,.18a2.1,2.1,0,0,0,.23.44,2.32,2.32,0,0,0,.41.48,2,2,0,0,0,.75.42,3.21,3.21,0,0,0,1.05.16,2.66,2.66,0,0,0,2.24-1.06,4.32,4.32,0,0,0,.81-2.71h-.06a2.24,2.24,0,0,1-.44.47,2.73,2.73,0,0,1-.6.4,4.18,4.18,0,0,1-.95.32,5.49,5.49,0,0,1-1.22.13,4.92,4.92,0,0,1-3.37-1.13,3.73,3.73,0,0,1,.05-5.72,5.52,5.52,0,0,1,3.61-1.1,4.81,4.81,0,0,1,3.87,1.54,6.4,6.4,0,0,1,1.32,4.27v.41a6.7,6.7,0,0,1-1.37,4.31,4.71,4.71,0,0,1-3.89,1.71,6,6,0,0,1-2.17-.38,3.85,3.85,0,0,1-1.48-.94A3.36,3.36,0,0,1,232,345Zm2.77-3.16a3.6,3.6,0,0,0,4,0,1.86,1.86,0,0,0,.78-1.57,1.89,1.89,0,0,0-.78-1.58,3.27,3.27,0,0,0-2-.58,3.23,3.23,0,0,0-2,.58,2,2,0,0,0,0,3.15Z" fill="#003a50"/><path d="M220.72,243.94H214.9V242.1h8.86v1.84l-4.52,2.65v.07h1.28a3.9,3.9,0,0,1,2.79,1,3.52,3.52,0,0,1,1.05,2.67,3.32,3.32,0,0,1-1.33,2.82,7,7,0,0,1-7.24,0,3.36,3.36,0,0,1-1.33-2.86V250h2.11v.32c0,1.37,1,2,2.84,2s2.84-.67,2.84-2-.95-2-2.84-2h-3.26v-1.67l4.57-2.68Z" fill="#003a50"/><path d="M226.46,253.88a1,1,0,0,1-.32-.81,1.07,1.07,0,0,1,.32-.81,1.45,1.45,0,0,1,1.74,0,1.07,1.07,0,0,1,.32.81,1,1,0,0,1-.32.81,1.45,1.45,0,0,1-1.74,0Z" fill="#003a50"/><path d="M233.57,254h-2.35l5.41-10h-6.92V242.1H239V244Z" fill="#003a50"/><path d="M340.54,163h-9.93V161.4a2.74,2.74,0,0,1,.58-1.74,4,4,0,0,1,1.44-1.2c.5-.25,1.13-.54,1.87-.86s1.33-.56,1.88-.77a4.23,4.23,0,0,0,1.45-.92,1.78,1.78,0,0,0,.57-1.3c0-1.26-.89-1.88-2.67-1.88s-2.67.71-2.67,2.15v.41H331v-.41a3.62,3.62,0,0,1,1.26-3,5.38,5.38,0,0,1,3.51-1,5.66,5.66,0,0,1,3.52,1,3.31,3.31,0,0,1,1.27,2.75,3.17,3.17,0,0,1-.56,1.84,4.26,4.26,0,0,1-1.4,1.3c-.6.34-1.21.65-1.84.93s-1.23.53-1.82.75a5.46,5.46,0,0,0-1.41.74,1.26,1.26,0,0,0-.56,1h7.62Z" fill="#003a50"/><path d="M345.84,163h-2.35l5.41-10H342v-1.87h9.28v1.87Z" fill="#003a50"/><path d="M352.69,162.83a1,1,0,0,1-.32-.8,1,1,0,0,1,.32-.81,1.41,1.41,0,0,1,1.74,0,1.07,1.07,0,0,1,.32.81,1,1,0,0,1-.32.8,1.41,1.41,0,0,1-1.74,0Z" fill="#003a50"/><path d="M359.8,163h-2.35l5.41-10h-6.92v-1.87h9.28v1.87Z" fill="#003a50"/><path d="M217.75,77.94h-5.83V76.1h8.87v1.84l-4.53,2.65v.07h1.28a3.9,3.9,0,0,1,2.79,1,3.52,3.52,0,0,1,1,2.67,3.34,3.34,0,0,1-1.32,2.82,7,7,0,0,1-7.25,0,3.38,3.38,0,0,1-1.33-2.85V84h2.11v.33c0,1.36.95,2,2.84,2s2.84-.67,2.84-2-.94-2-2.84-2h-3.26V80.69L217.75,78Z" fill="#003a50"/><path d="M223.48,87.88a1.17,1.17,0,0,1,0-1.61,1.25,1.25,0,0,1,.88-.3,1.22,1.22,0,0,1,.86.3,1.17,1.17,0,0,1,0,1.61,1.22,1.22,0,0,1-.86.3A1.25,1.25,0,0,1,223.48,87.88Z" fill="#003a50"/><path d="M233.59,77.94h-5.82V76.1h8.86v1.84l-4.52,2.65v.07h1.27a3.87,3.87,0,0,1,2.79,1,3.5,3.5,0,0,1,1.06,2.67,3.32,3.32,0,0,1-1.33,2.82,6.93,6.93,0,0,1-7.24,0,3.35,3.35,0,0,1-1.33-2.85V84h2.11v.33c0,1.36.95,2,2.84,2s2.84-.67,2.84-2-1-2-2.84-2H229V80.69L233.59,78Z" fill="#003a50"/><path d="M108.92,155a5,5,0,0,1,3.34,1.07,4.16,4.16,0,0,1,0,6,5.39,5.39,0,0,1-3.55,1.08,5.79,5.79,0,0,1-3.56-1,3.16,3.16,0,0,1-1.29-2.68h2.11a1.53,1.53,0,0,0,.71,1.33,3.55,3.55,0,0,0,2,.49,3.13,3.13,0,0,0,2-.58,2,2,0,0,0,.71-1.68,2.06,2.06,0,0,0-.74-1.71,3.31,3.31,0,0,0-2.07-.58,3.6,3.6,0,0,0-1.92.42,2,2,0,0,0-.7.64l0,.12h-2.11v-6.87h8.88v1.84h-6.77v3h0a2.22,2.22,0,0,1,.4-.31,3.11,3.11,0,0,1,.55-.27A5.63,5.63,0,0,1,108.92,155Z" fill="#003a50"/><path d="M115.63,162.83a1,1,0,0,1-.33-.8,1,1,0,0,1,.33-.81,1.4,1.4,0,0,1,1.73,0,1,1,0,0,1,.33.81,1,1,0,0,1-.33.8,1.4,1.4,0,0,1-1.73,0Z" fill="#003a50"/><path d="M122.73,163h-2.35l5.42-10h-6.93v-1.87h9.29v1.87Z" fill="#003a50"/><path d="M105.2,78.66l-2.48,2V78.37l2.73-2.27h1.86V88H105.2Z" fill="#003a50"/><path d="M109.84,87.88a1.15,1.15,0,0,1,0-1.61,1.4,1.4,0,0,1,1.73,0,1.15,1.15,0,0,1,0,1.61,1.4,1.4,0,0,1-1.73,0Z" fill="#003a50"/><path d="M117,88H114.6L120,78h-6.93V76.1h9.29V78Z" fill="#003a50"/><path d="M211.13,603.48a5.16,5.16,0,0,1,0-6.24,4,4,0,0,1,5.73,0,5.16,5.16,0,0,1,0,6.24,4,4,0,0,1-5.73,0Zm4.6-1a4,4,0,0,0,0-4.29,2.23,2.23,0,0,0-3.47,0,4,4,0,0,0,0,4.29,2.23,2.23,0,0,0,3.47,0Z" fill="#003a50"/><path d="M219.45,604.47a.85.85,0,0,1,0-1.14.9.9,0,0,1,.62-.21.87.87,0,0,1,.61.21.82.82,0,0,1,0,1.14.87.87,0,0,1-.61.21A.9.9,0,0,1,219.45,604.47Z" fill="#003a50"/><path d="M229.06,598.52H227.5s0,0,0-.12a2.73,2.73,0,0,0-.15-.31,1.6,1.6,0,0,0-.28-.35,1.25,1.25,0,0,0-.5-.29,2,2,0,0,0-.71-.12,1.79,1.79,0,0,0-1.52.73,3.11,3.11,0,0,0-.54,1.89h.05a1,1,0,0,1,.31-.3,3.19,3.19,0,0,1,.42-.26,3.33,3.33,0,0,1,.67-.21,4.12,4.12,0,0,1,.86-.09,3.57,3.57,0,0,1,2.38.78,2.49,2.49,0,0,1,.92,2,2.54,2.54,0,0,1-1,2,3.89,3.89,0,0,1-2.54.78,3.41,3.41,0,0,1-2.73-1.09,4.5,4.5,0,0,1-.93-3v-.29a4.83,4.83,0,0,1,.93-3,3.16,3.16,0,0,1,2.68-1.21,4.14,4.14,0,0,1,1.5.26,2.74,2.74,0,0,1,1,.67A2.38,2.38,0,0,1,229.06,598.52Zm-1.77,2.23a2.21,2.21,0,0,0-1.39-.42,2.26,2.26,0,0,0-1.4.42,1.32,1.32,0,0,0-.55,1.11,1.35,1.35,0,0,0,.55,1.11,2.6,2.6,0,0,0,2.8,0,1.34,1.34,0,0,0,.54-1.11A1.3,1.3,0,0,0,227.29,600.75Z" fill="#003a50"/><path d="M391.32,603.48a5.2,5.2,0,0,1,0-6.24,4,4,0,0,1,5.74,0,5.2,5.2,0,0,1,0,6.24,4,4,0,0,1-5.74,0Zm4.61-1a4.08,4.08,0,0,0,0-4.29,2.07,2.07,0,0,0-1.74-.83,2,2,0,0,0-1.73.83,4,4,0,0,0,0,4.29,2,2,0,0,0,1.73.83A2,2,0,0,0,395.93,602.5Z" fill="#003a50"/><path d="M399.65,604.47a.82.82,0,0,1,0-1.14,1,1,0,0,1,1.22,0,.82.82,0,0,1,0,1.14,1,1,0,0,1-1.22,0Z" fill="#003a50"/><path d="M409.26,598.52H407.7s0,0,0-.12a1.67,1.67,0,0,0-.15-.31,1.91,1.91,0,0,0-.27-.35,1.4,1.4,0,0,0-.5-.29,2.09,2.09,0,0,0-.72-.12,1.77,1.77,0,0,0-1.51.73A3.11,3.11,0,0,0,404,600h0a1.11,1.11,0,0,1,.31-.3,2.73,2.73,0,0,1,.43-.26,3,3,0,0,1,.67-.21,4,4,0,0,1,.86-.09,3.54,3.54,0,0,1,2.37.78,2.46,2.46,0,0,1,.92,2,2.54,2.54,0,0,1-1,2,3.87,3.87,0,0,1-2.54.78,3.41,3.41,0,0,1-2.73-1.09,4.5,4.5,0,0,1-.93-3v-.29a4.83,4.83,0,0,1,.93-3A3.18,3.18,0,0,1,406,596a4.06,4.06,0,0,1,1.5.26,2.87,2.87,0,0,1,1,.67A2.43,2.43,0,0,1,409.26,598.52Zm-1.77,2.23a2.26,2.26,0,0,0-1.4-.42,2.21,2.21,0,0,0-1.39.42,1.3,1.3,0,0,0-.55,1.11,1.34,1.34,0,0,0,.54,1.11,2.6,2.6,0,0,0,2.8,0,1.4,1.4,0,0,0,0-2.22Z" fill="#003a50"/><path d="M25.6,603.48a5.16,5.16,0,0,1,0-6.24,3.59,3.59,0,0,1,2.87-1.2,3.59,3.59,0,0,1,2.86,1.2,5.16,5.16,0,0,1,0,6.24,3.59,3.59,0,0,1-2.86,1.2A3.59,3.59,0,0,1,25.6,603.48Zm4.6-1a4,4,0,0,0,0-4.29,2.23,2.23,0,0,0-3.47,0,4,4,0,0,0,0,4.29,2.23,2.23,0,0,0,3.47,0Z" fill="#003a50"/><path d="M33.92,604.47a.82.82,0,0,1,0-1.14,1,1,0,0,1,1.23,0,.82.82,0,0,1,0,1.14,1,1,0,0,1-1.23,0Z" fill="#003a50"/><path d="M43.53,598.52H42s0,0,0-.12a1.85,1.85,0,0,0-.16-.31,1.32,1.32,0,0,0-.77-.64,2,2,0,0,0-.71-.12,1.79,1.79,0,0,0-1.52.73,3.11,3.11,0,0,0-.54,1.89h0a1.27,1.27,0,0,1,.31-.3,3.28,3.28,0,0,1,.43-.26,3.14,3.14,0,0,1,.67-.21,4.12,4.12,0,0,1,.86-.09,3.57,3.57,0,0,1,2.38.78,2.49,2.49,0,0,1,.92,2,2.54,2.54,0,0,1-1,2,3.91,3.91,0,0,1-2.54.78,3.45,3.45,0,0,1-2.74-1.09,4.5,4.5,0,0,1-.93-3v-.29a4.83,4.83,0,0,1,.93-3A3.2,3.2,0,0,1,40.31,596a4.14,4.14,0,0,1,1.5.26,2.74,2.74,0,0,1,1,.67A2.43,2.43,0,0,1,43.53,598.52Zm-1.77,2.23a2.53,2.53,0,0,0-2.79,0A1.4,1.4,0,0,0,39,603a2.28,2.28,0,0,0,1.4.41,2.32,2.32,0,0,0,1.4-.41,1.34,1.34,0,0,0,.54-1.11A1.3,1.3,0,0,0,41.76,600.75Z" fill="#003a50"/><path d="M556.4,77.48a5.19,5.19,0,0,1-6.23,0,4,4,0,0,1,0-5.73,5.15,5.15,0,0,1,6.23,0,4,4,0,0,1,0,5.73Zm-1-4.6a4,4,0,0,0-4.28,0,2.22,2.22,0,0,0,0,3.46,3.95,3.95,0,0,0,4.28,0,2.2,2.2,0,0,0,0-3.46Z" fill="#003a50"/><path d="M557.39,69.16a.71.71,0,0,1-.57.22.74.74,0,0,1-.57-.22.9.9,0,0,1-.21-.62.87.87,0,0,1,.21-.61.75.75,0,0,1,.57-.23.72.72,0,0,1,.57.23.87.87,0,0,1,.21.61A.9.9,0,0,1,557.39,69.16Z" fill="#003a50"/><path d="M551.45,59.55V61.1l-.12,0a2.1,2.1,0,0,0-.31.15,1.93,1.93,0,0,0-.36.28,1.24,1.24,0,0,0-.28.5,2,2,0,0,0-.12.71,1.78,1.78,0,0,0,.73,1.52,3.09,3.09,0,0,0,1.89.54v0a1.11,1.11,0,0,1-.31-.31,3.09,3.09,0,0,1-.25-.42,2.77,2.77,0,0,1-.22-.67,4.12,4.12,0,0,1-.09-.86,3.51,3.51,0,0,1,.79-2.38,2.44,2.44,0,0,1,2-.92,2.51,2.51,0,0,1,2.05,1,3.89,3.89,0,0,1,.78,2.54,3.38,3.38,0,0,1-1.09,2.73,4.48,4.48,0,0,1-3,.93h-.29a4.85,4.85,0,0,1-3-.93A3.19,3.19,0,0,1,549,62.77a3.93,3.93,0,0,1,.27-1.5,2.73,2.73,0,0,1,.66-1A2.42,2.42,0,0,1,551.45,59.55Zm2.22,1.77a2.56,2.56,0,0,0,0,2.78,1.3,1.3,0,0,0,1.11.56,1.32,1.32,0,0,0,1.11-.55,2.54,2.54,0,0,0,0-2.8,1.32,1.32,0,0,0-1.11-.55A1.3,1.3,0,0,0,553.67,61.32Z" fill="#003a50"/><path d="M556.4,260.9a5.19,5.19,0,0,1-6.23,0,4,4,0,0,1,0-5.73,5.15,5.15,0,0,1,6.23,0,4,4,0,0,1,0,5.73Zm-1-4.6a4,4,0,0,0-4.28,0,2.22,2.22,0,0,0,0,3.46,3.95,3.95,0,0,0,4.28,0,2.2,2.2,0,0,0,0-3.46Z" fill="#003a50"/><path d="M557.39,252.58a.71.71,0,0,1-.57.22.74.74,0,0,1-.57-.22A.9.9,0,0,1,556,252a.87.87,0,0,1,.21-.61.75.75,0,0,1,.57-.23.72.72,0,0,1,.57.23.87.87,0,0,1,.21.61A.9.9,0,0,1,557.39,252.58Z" fill="#003a50"/><path d="M551.45,243v1.55l-.12,0a2.1,2.1,0,0,0-.31.15,1.93,1.93,0,0,0-.36.28,1.24,1.24,0,0,0-.28.5,2,2,0,0,0-.12.71,1.78,1.78,0,0,0,.73,1.52,3.09,3.09,0,0,0,1.89.54v-.05a1.11,1.11,0,0,1-.31-.31,3.09,3.09,0,0,1-.25-.42,2.71,2.71,0,0,1-.22-.68,4,4,0,0,1-.09-.85,3.51,3.51,0,0,1,.79-2.38,2.44,2.44,0,0,1,2-.92,2.51,2.51,0,0,1,2.05,1,3.89,3.89,0,0,1,.78,2.54,3.38,3.38,0,0,1-1.09,2.73,4.48,4.48,0,0,1-3,.93h-.29a4.85,4.85,0,0,1-3-.93,3.19,3.19,0,0,1-1.21-2.68,3.93,3.93,0,0,1,.27-1.5,2.73,2.73,0,0,1,.66-1A2.42,2.42,0,0,1,551.45,243Zm2.22,1.77a2.56,2.56,0,0,0,0,2.78,1.3,1.3,0,0,0,1.11.56,1.32,1.32,0,0,0,1.11-.55,2.54,2.54,0,0,0,0-2.8,1.32,1.32,0,0,0-1.11-.55A1.3,1.3,0,0,0,553.67,244.74Z" fill="#003a50"/><path d="M556.4,447.27a5.15,5.15,0,0,1-6.23,0,4,4,0,0,1,0-5.73,5.15,5.15,0,0,1,6.23,0,4,4,0,0,1,0,5.73Zm-1-4.6a3.48,3.48,0,0,0-2.14-.62,3.52,3.52,0,0,0-2.14.62,2.23,2.23,0,0,0,0,3.47,4,4,0,0,0,4.28,0,2.21,2.21,0,0,0,0-3.47Z" fill="#003a50"/><path d="M557.39,439a.71.71,0,0,1-.57.22.75.75,0,0,1-.57-.22.9.9,0,0,1-.21-.62.87.87,0,0,1,.21-.61.76.76,0,0,1,.57-.23.72.72,0,0,1,.57.23.87.87,0,0,1,.21.61A.9.9,0,0,1,557.39,439Z" fill="#003a50"/><path d="M551.45,429.34v1.56l-.12,0-.31.15a1.6,1.6,0,0,0-.35.28,1.14,1.14,0,0,0-.29.5,2,2,0,0,0-.12.71,1.76,1.76,0,0,0,.73,1.52,3.11,3.11,0,0,0,1.89.54v0a1.18,1.18,0,0,1-.3-.32,2.4,2.4,0,0,1-.26-.42,3.09,3.09,0,0,1-.22-.67,4.12,4.12,0,0,1-.09-.86,3.53,3.53,0,0,1,.79-2.38,2.62,2.62,0,0,1,4,0,3.89,3.89,0,0,1,.78,2.54,3.38,3.38,0,0,1-1.09,2.73,4.48,4.48,0,0,1-3,.93h-.29a4.85,4.85,0,0,1-3-.93,3.18,3.18,0,0,1-1.2-2.68,3.93,3.93,0,0,1,.26-1.5,2.61,2.61,0,0,1,.66-1A2.39,2.39,0,0,1,551.45,429.34Zm2.22,1.77a2.27,2.27,0,0,0-.41,1.39,2.32,2.32,0,0,0,.41,1.4,1.4,1.4,0,0,0,2.22,0,2.54,2.54,0,0,0,0-2.8,1.4,1.4,0,0,0-2.22,0Z" fill="#003a50"/><path d="M8.74,277.66H-1.19v-1.57a2.83,2.83,0,0,1,.58-1.74,4,4,0,0,1,1.45-1.2c.5-.25,1.12-.54,1.87-.86s1.32-.56,1.87-.77A4.14,4.14,0,0,0,6,270.6a1.78,1.78,0,0,0,.57-1.3c0-1.26-.89-1.88-2.66-1.88s-2.68.72-2.68,2.15V270H-.85v-.41a3.62,3.62,0,0,1,1.26-3,5.39,5.39,0,0,1,3.52-1,5.65,5.65,0,0,1,3.51,1,3.29,3.29,0,0,1,1.27,2.75,3.17,3.17,0,0,1-.56,1.84,4.26,4.26,0,0,1-1.4,1.3q-.9.51-1.83.93t-1.83.75a5.38,5.38,0,0,0-1.4.74,1.25,1.25,0,0,0-.57,1H8.74Z" fill="#003a50"/><path d="M10.84,277.52a1,1,0,0,1-.32-.8,1.07,1.07,0,0,1,.32-.81,1.25,1.25,0,0,1,.88-.3,1.22,1.22,0,0,1,.86.3,1,1,0,0,1,.32.81,1,1,0,0,1-.32.8,1.22,1.22,0,0,1-.86.3A1.25,1.25,0,0,1,10.84,277.52Z" fill="#003a50"/><path d="M16.25,276.12a7.34,7.34,0,0,1,0-8.84,5.12,5.12,0,0,1,4.07-1.7,5.1,5.1,0,0,1,4.06,1.7,7.34,7.34,0,0,1,0,8.84,5.1,5.1,0,0,1-4.06,1.7A5.12,5.12,0,0,1,16.25,276.12Zm6.53-1.39a5,5,0,0,0,.87-3,5,5,0,0,0-.87-3,2.92,2.92,0,0,0-2.46-1.18,2.89,2.89,0,0,0-2.46,1.18,5,5,0,0,0-.88,3,5,5,0,0,0,.88,3,2.88,2.88,0,0,0,2.46,1.19A2.9,2.9,0,0,0,22.78,274.73Z" fill="#003a50"/><path d="M-.88,426.9a6.43,6.43,0,0,1-3.68.93,6.39,6.39,0,0,1-3.68-.94,2.91,2.91,0,0,1-1.37-2.55,2.7,2.7,0,0,1,.25-1.17,2.39,2.39,0,0,1,.66-.85,3.94,3.94,0,0,1,1.39-.77l.26-.07v-.09a3.51,3.51,0,0,1-.76-.29,3.24,3.24,0,0,1-.67-.44A2.35,2.35,0,0,1-9,419.9a2.38,2.38,0,0,1-.22-1A2.81,2.81,0,0,1-8,416.49a5.75,5.75,0,0,1,3.43-.9,5.84,5.84,0,0,1,3.43.9,2.82,2.82,0,0,1,1.24,2.38,2.43,2.43,0,0,1-.22,1,1.93,1.93,0,0,1-.55.75,3.72,3.72,0,0,1-1.2.68l-.22.05v.09l.28.07a3.62,3.62,0,0,1,.62.26,4.21,4.21,0,0,1,.78.51,2.69,2.69,0,0,1,.61.82,2.65,2.65,0,0,1,.27,1.2A2.94,2.94,0,0,1-.88,426.9Zm-5.79-1.35a3.85,3.85,0,0,0,2.11.48,4,4,0,0,0,2.1-.47,1.53,1.53,0,0,0,.74-1.35,1.51,1.51,0,0,0-.74-1.35,4,4,0,0,0-2.1-.47,4,4,0,0,0-2.11.47,1.5,1.5,0,0,0-.73,1.35A1.5,1.5,0,0,0-6.67,425.55ZM-7,419a1.36,1.36,0,0,0,.64,1.19,3.25,3.25,0,0,0,1.83.44,3.24,3.24,0,0,0,1.82-.44A1.36,1.36,0,0,0-2.1,419a1.38,1.38,0,0,0-.65-1.2,3.25,3.25,0,0,0-1.81-.44,3.29,3.29,0,0,0-1.82.44A1.38,1.38,0,0,0-7,419Z" fill="#003a50"/><path d="M2.59,427.53a1,1,0,0,1-.32-.8,1.07,1.07,0,0,1,.32-.81,1.25,1.25,0,0,1,.88-.3,1.22,1.22,0,0,1,.86.3,1,1,0,0,1,.32.81,1,1,0,0,1-.32.8,1.22,1.22,0,0,1-.86.3A1.25,1.25,0,0,1,2.59,427.53Z" fill="#003a50"/><path d="M16.21,419.11H14s0-.06,0-.17a2.53,2.53,0,0,0-.22-.44,2.36,2.36,0,0,0-.38-.5,1.93,1.93,0,0,0-.71-.41,3,3,0,0,0-1-.16,2.49,2.49,0,0,0-2.15,1,4.39,4.39,0,0,0-.77,2.68h.06a1.63,1.63,0,0,1,.44-.43,3.55,3.55,0,0,1,.61-.37,3.67,3.67,0,0,1,.95-.3,5.41,5.41,0,0,1,1.21-.13A5.06,5.06,0,0,1,15.38,421a3.73,3.73,0,0,1-.06,5.71,5.59,5.59,0,0,1-3.61,1.1,4.81,4.81,0,0,1-3.87-1.54A6.38,6.38,0,0,1,6.52,422v-.41a6.85,6.85,0,0,1,1.32-4.31,4.52,4.52,0,0,1,3.81-1.71,5.85,5.85,0,0,1,2.12.37,4,4,0,0,1,1.44.94A3.45,3.45,0,0,1,16.21,419.11Zm-2.5,3.15a3.21,3.21,0,0,0-2-.58,3.21,3.21,0,0,0-2,.58,2,2,0,0,0,0,3.15,3.26,3.26,0,0,0,2,.59,3.21,3.21,0,0,0,2-.59,2,2,0,0,0,0-3.15Z" fill="#003a50"/></g></svg>