<svg id="Слой_1" data-name="Слой 1" xmlns="http://www.w3.org/2000/svg" xmlns:xlink="http://www.w3.org/1999/xlink" viewBox="0 0 583.94 632.13"><defs><clipPath id="clip-path"><polygon points="0.14 0 0.14 632.13 405.47 632.13 405.47 231.05 532.06 231.05 532.06 181.13 583.94 181.13 583.94 0 0.14 0" fill="none"/></clipPath></defs><polygon points="19.53 0 19.53 0.28 520.18 3.35 519.84 0 19.53 0" fill="#fff"/><polygon points="508.89 11.53 508.89 11.84 18.58 11.84 18.58 202.86 18.58 231.07 18.58 615.19 393.81 614.42 395.51 219.47 516.22 219.47 515.74 178.29 515.74 128.95 516.22 112.78 529.06 112.78 529.06 11.53 508.89 11.53" fill="#fff"/><polygon points="400.05 614.42 405.47 614.42 405.47 231.05 532.06 231.05 532.06 229.33 398.88 224.45 400.05 614.42" fill="#fff"/><g clip-path="url(#clip-path)"><rect x="6.21" y="-1612.34" width="1162.95" height="2240.57" fill="none" stroke="#003a50" stroke-miterlimit="10"/><polygon points="18.8 -508.17 18.8 615.38 1156.19 615.38 1156.19 -1599.39 18.8 -1599.55 18.8 -578.88 18.8 -508.17" fill="none" stroke="#003a50" stroke-miterlimit="10"/></g><rect x="39.42" y="49.9" width="4.55" height="87.8" fill="#fff"/><rect x="39.41" y="49.9" width="4.55" height="87.8" fill="none" stroke="#003a50" stroke-miterlimit="10"/><line x1="41.69" y1="49.91" x2="41.69" y2="137.71" fill="none" stroke="#003a50" stroke-miterlimit="10"/><rect x="39.42" y="49.9" width="4.55" height="4.55" fill="#fff"/><rect x="39.41" y="49.9" width="4.55" height="4.55" fill="none" stroke="#003a50" stroke-miterlimit="10"/><rect x="39.42" y="133.16" width="4.55" height="4.55" fill="#fff"/><rect x="39.41" y="133.16" width="4.55" height="4.55" fill="none" stroke="#003a50" stroke-miterlimit="10"/><rect x="39.42" y="92.6" width="4.55" height="4.55" fill="#fff"/><rect x="39.41" y="92.6" width="4.55" height="4.55" fill="none" stroke="#003a50" stroke-miterlimit="10"/><g clip-path="url(#clip-path)"><path d="M44,97.16h2.9c20.14,0,33.1,16.11,33.1,36H44" fill="none" stroke="#003a50" stroke-miterlimit="10"/></g><rect x="39.42" y="230.36" width="4.55" height="88.56" fill="#fff"/><rect x="39.41" y="230.36" width="4.55" height="88.56" fill="none" stroke="#003a50" stroke-miterlimit="10"/><line x1="41.69" y1="230.35" x2="41.69" y2="318.91" fill="none" stroke="#003a50" stroke-miterlimit="10"/><rect x="39.42" y="230.36" width="4.55" height="4.47" fill="#fff"/><rect x="39.41" y="230.36" width="4.55" height="4.47" fill="none" stroke="#003a50" stroke-miterlimit="10"/><rect x="39.42" y="314.44" width="4.55" height="4.47" fill="#fff"/><rect x="39.41" y="314.44" width="4.55" height="4.47" fill="none" stroke="#003a50" stroke-miterlimit="10"/><rect x="39.42" y="274.61" width="4.55" height="4.47" fill="#fff"/><rect x="39.41" y="274.61" width="4.55" height="4.47" fill="none" stroke="#003a50" stroke-miterlimit="10"/><g clip-path="url(#clip-path)"><path d="M44,279.08h2.9C67,279.08,80,294.91,80,314.44H44" fill="none" stroke="#003a50" stroke-miterlimit="10"/></g><rect x="39.42" y="415.86" width="4.55" height="87.26" fill="#fff"/><rect x="39.41" y="415.86" width="4.55" height="87.26" fill="none" stroke="#003a50" stroke-miterlimit="10"/><line x1="41.69" y1="503.12" x2="41.69" y2="415.86" fill="none" stroke="#003a50" stroke-miterlimit="10"/><rect x="39.42" y="498.71" width="4.55" height="4.41" fill="#fff"/><rect x="39.41" y="498.71" width="4.55" height="4.41" fill="none" stroke="#003a50" stroke-miterlimit="10"/><rect x="39.42" y="415.86" width="4.55" height="4.41" fill="#fff"/><rect x="39.41" y="415.86" width="4.55" height="4.41" fill="none" stroke="#003a50" stroke-miterlimit="10"/><rect x="39.42" y="455.1" width="4.55" height="4.41" fill="#fff"/><rect x="39.41" y="455.1" width="4.55" height="4.41" fill="none" stroke="#003a50" stroke-miterlimit="10"/><g clip-path="url(#clip-path)"><path d="M44,455.1h2.9C67,455.1,80,439.51,80,420.27H44" fill="none" stroke="#003a50" stroke-miterlimit="10"/></g><rect x="62.1" y="589.83" width="141.78" height="4.56" fill="#fff"/><rect x="62.09" y="589.83" width="141.78" height="4.56" fill="none" stroke="#003a50" stroke-miterlimit="10"/><line x1="203.88" y1="592.11" x2="62.09" y2="592.11" fill="none" stroke="#003a50" stroke-miterlimit="10"/><rect x="167.1" y="589.83" width="4.55" height="4.56" fill="#fff"/><rect x="167.1" y="589.83" width="4.55" height="4.56" fill="none" stroke="#003a50" stroke-miterlimit="10"/><rect x="134.87" y="589.83" width="4.55" height="4.56" fill="#fff"/><rect x="134.87" y="589.83" width="4.55" height="4.56" fill="none" stroke="#003a50" stroke-miterlimit="10"/><rect x="199.33" y="589.83" width="4.55" height="4.56" fill="#fff"/><rect x="199.33" y="589.83" width="4.55" height="4.56" fill="none" stroke="#003a50" stroke-miterlimit="10"/><rect x="62.1" y="589.83" width="4.55" height="4.56" fill="#fff"/><rect x="62.09" y="589.83" width="4.55" height="4.56" fill="none" stroke="#003a50" stroke-miterlimit="10"/><rect x="102.65" y="589.83" width="4.55" height="4.56" fill="#fff"/><rect x="102.65" y="589.83" width="4.55" height="4.56" fill="none" stroke="#003a50" stroke-miterlimit="10"/><g clip-path="url(#clip-path)"><path d="M102.65,589.83v-2.9c0-20.15-16.12-33.1-36-33.1v36" fill="none" stroke="#003a50" stroke-miterlimit="10"/></g><rect x="299.93" y="589.83" width="87.81" height="4.56" fill="#fff"/><rect x="299.93" y="589.83" width="87.81" height="4.56" fill="none" stroke="#003a50" stroke-miterlimit="10"/><line x1="387.74" y1="592.11" x2="299.93" y2="592.11" fill="none" stroke="#003a50" stroke-miterlimit="10"/><rect x="383.19" y="589.83" width="4.55" height="4.56" fill="#fff"/><rect x="383.19" y="589.83" width="4.55" height="4.56" fill="none" stroke="#003a50" stroke-miterlimit="10"/><rect x="299.93" y="589.83" width="4.55" height="4.56" fill="#fff"/><rect x="299.93" y="589.83" width="4.55" height="4.56" fill="none" stroke="#003a50" stroke-miterlimit="10"/><rect x="340.49" y="589.83" width="4.55" height="4.56" fill="#fff"/><rect x="340.49" y="589.83" width="4.55" height="4.56" fill="none" stroke="#003a50" stroke-miterlimit="10"/><g clip-path="url(#clip-path)"><path d="M340.49,589.83v-2.9c0-20.15-16.12-33.1-36-33.1v36" fill="none" stroke="#003a50" stroke-miterlimit="10"/><path d="M466.54,589.83v-2.9c0-20.15,16.25-33.1,36.29-33.1v36" fill="none" stroke="#003a50" stroke-miterlimit="10"/><rect x="404.07" y="256.22" width="42.38" height="92.09" fill="none" stroke="#003a50" stroke-miterlimit="10"/><rect x="409.05" y="260.02" width="32.03" height="84.24" rx="13.7" fill="none" stroke="#003a50" stroke-miterlimit="10"/><path d="M427.35,274.6a2.21,2.21,0,1,0-2.2,2.2A2.2,2.2,0,0,0,427.35,274.6Z" fill="none" stroke="#003a50" stroke-miterlimit="10"/></g><rect x="347.34" y="256.22" width="42.38" height="92.54" fill="none" stroke="#003a50" stroke-miterlimit="10"/><g clip-path="url(#clip-path)"><rect x="352.32" y="260.02" width="32.03" height="84.24" rx="13.7" fill="none" stroke="#003a50" stroke-miterlimit="10"/><path d="M370.62,274.6a2.2,2.2,0,1,0-2.2,2.2A2.19,2.19,0,0,0,370.62,274.6Z" fill="none" stroke="#003a50" stroke-miterlimit="10"/><path d="M489.09,284.3V255.73H466V284.3a11.54,11.54,0,1,0,23.07,0Z" fill="none" stroke="#003a50" stroke-miterlimit="10"/><path d="M333.56,284.3V255.73H310.48V284.3a11.54,11.54,0,1,0,23.08,0Z" fill="none" stroke="#003a50" stroke-miterlimit="10"/></g><rect x="310.48" y="255.73" width="23.08" height="11.08" fill="none" stroke="#003a50" stroke-miterlimit="10"/><rect x="54.72" y="221.26" width="92.09" height="42.38" fill="none" stroke="#003a50" stroke-miterlimit="10"/><g clip-path="url(#clip-path)"><rect x="58.77" y="226.64" width="84.24" height="32.03" rx="13.7" fill="none" stroke="#003a50" stroke-miterlimit="10"/><path d="M128.43,240.36a2.21,2.21,0,1,1-2.2,2.2A2.2,2.2,0,0,1,128.43,240.36Z" fill="none" stroke="#003a50" stroke-miterlimit="10"/><path d="M194.25,296.61h28.57V273.53H194.25a11.54,11.54,0,1,0,0,23.08Z" fill="none" stroke="#003a50" stroke-miterlimit="10"/></g><rect x="211.74" y="273.53" width="11.08" height="23.08" fill="none" stroke="#003a50" stroke-miterlimit="10"/><g clip-path="url(#clip-path)"><path d="M532.64,241a3.4,3.4,0,0,0,3.13-2.1h1.93l5.09,3-2.31,3.76-2.66-1.45v11.82H526.73V244.26l-2.66,1.45L521.76,242l5.14-3h2.57A3.45,3.45,0,0,0,532.64,241Z" fill="none" stroke="#003a50" stroke-miterlimit="10"/><rect x="515.27" y="231.1" width="34.02" height="32.78" fill="none" stroke="#003a50" stroke-miterlimit="10"/><path d="M421.43,89.67a3.16,3.16,0,0,0,2.91-2h1.79l4.73,2.82L428.71,94l-2.46-1.35v11H416v-11L413.48,94l-2.15-3.5,4.78-2.82h2.38A3.21,3.21,0,0,0,421.43,89.67Z" fill="none" stroke="#003a50" stroke-miterlimit="10"/></g><rect x="405.31" y="80.48" width="31.57" height="30.42" fill="none" stroke="#003a50" stroke-miterlimit="10"/><rect x="366.09" y="82.53" width="32.72" height="33.97" fill="none" stroke="#003a50" stroke-miterlimit="10"/><g clip-path="url(#clip-path)"><path d="M386.76,98v-11h-8.6V98a3.53,3.53,0,0,0,3.54,3.54h1.52A3.54,3.54,0,0,0,386.76,98Z" fill="none" stroke="#003a50" stroke-miterlimit="10"/></g><polyline points="378.98 112.09 382.46 112.09 385.93 112.09" fill="none" stroke="#003a50" stroke-miterlimit="10"/><line x1="382.46" y1="101.53" x2="382.46" y2="112.09" fill="none" stroke="#003a50" stroke-miterlimit="10"/><rect x="321.15" y="13.5" width="34.02" height="34.02" fill="none" stroke="#003a50" stroke-miterlimit="10"/><g clip-path="url(#clip-path)"><path d="M350.57,38.12a4.64,4.64,0,1,1-4.64-4.64A4.64,4.64,0,0,1,350.57,38.12Z" fill="none" stroke="#003a50" stroke-miterlimit="10"/><path d="M335.08,38.12a4.64,4.64,0,1,1-4.63-4.64A4.63,4.63,0,0,1,335.08,38.12Z" fill="none" stroke="#003a50" stroke-miterlimit="10"/><path d="M350.57,23a4.64,4.64,0,1,1-4.64-4.64A4.64,4.64,0,0,1,350.57,23Z" fill="none" stroke="#003a50" stroke-miterlimit="10"/><path d="M335.08,23a4.64,4.64,0,1,1-4.63-4.64A4.63,4.63,0,0,1,335.08,23Z" fill="none" stroke="#003a50" stroke-miterlimit="10"/></g><rect x="53.95" y="185.16" width="102.05" height="17.01" fill="none" stroke="#003a50" stroke-miterlimit="10"/><polygon points="61.98 193.12 104.87 196.65 147.98 193.12 147.98 190.66 61.98 190.66 61.98 193.12" fill="none" stroke="#003a50" stroke-miterlimit="10"/><rect x="307.31" y="13.93" width="58.79" height="33.59" fill="none" stroke="#003a50" stroke-miterlimit="10"/><rect x="366.09" y="13.93" width="32.72" height="102.57" fill="none" stroke="#003a50" stroke-miterlimit="10"/><rect x="336.91" y="429.42" width="52.33" height="113.67" fill="none" stroke="#003a50" stroke-miterlimit="10"/><g clip-path="url(#clip-path)"><path d="M380.3,439.13H346.25a2.1,2.1,0,0,0-2.1,2.1v67.62H382.4V441.23A2.1,2.1,0,0,0,380.3,439.13Z" fill="none" stroke="#003a50" stroke-miterlimit="10"/></g><rect x="344.15" y="495" width="38.26" height="13.85" fill="none" stroke="#003a50" stroke-miterlimit="10"/><g clip-path="url(#clip-path)"><rect x="344.09" y="512.47" width="38.71" height="22.88" rx="2.2" fill="none" stroke="#003a50" stroke-miterlimit="10"/><path d="M205.35,57a1.26,1.26,0,0,1-1.21,1.31,13.79,13.79,0,1,0,1.08,27.55,1.26,1.26,0,1,1,.09,2.51A16.3,16.3,0,0,1,204,55.74,1.26,1.26,0,0,1,205.35,57Z" fill="none" stroke="#003a50" stroke-miterlimit="10"/><path d="M212.3,94.51a1.25,1.25,0,0,1,.87,1.55,13.78,13.78,0,0,0,26.53,7.5,1.26,1.26,0,1,1,2.42.68,16.3,16.3,0,1,1-31.37-8.86A1.25,1.25,0,0,1,212.3,94.51Z" fill="none" stroke="#003a50" stroke-miterlimit="10"/><path d="M250.07,98.87a1.27,1.27,0,0,1,1.75-.35,13.78,13.78,0,1,0,15.32-22.91,1.26,1.26,0,0,1,1.4-2.1,16.3,16.3,0,1,1-18.12,27.1A1.25,1.25,0,0,1,250.07,98.87Z" fill="none" stroke="#003a50" stroke-miterlimit="10"/><path d="M267.25,64.3a1.27,1.27,0,0,1,.21-1.77A13.79,13.79,0,1,0,250.4,40.87a1.26,1.26,0,0,1-1.56-2A16.3,16.3,0,1,1,269,64.51,1.26,1.26,0,0,1,267.25,64.3Z" fill="none" stroke="#003a50" stroke-miterlimit="10"/><path d="M238.43,40.24a1.26,1.26,0,0,1-.86-1.56,13.78,13.78,0,1,0-26.45-7.74,1.27,1.27,0,0,1-1.56.85,1.25,1.25,0,0,1-.86-1.56A16.3,16.3,0,1,1,240,39.39,1.25,1.25,0,0,1,238.43,40.24Z" fill="none" stroke="#003a50" stroke-miterlimit="10"/><path d="M215.19,84.27l-9.36.36a12.65,12.65,0,1,1-1-25.28l9-.32a23.7,23.7,0,0,0,1.28,25.24Z" fill="none" stroke="#003a50" stroke-miterlimit="10"/><path d="M241.35,93.51l-2.56,9.08a12.65,12.65,0,1,1-24.36-6.84l2.6-9.2a23.6,23.6,0,0,0,24.32,7Z" fill="none" stroke="#003a50" stroke-miterlimit="10"/><path d="M269.43,93.71a12.67,12.67,0,0,1-17.52,3.52l-7.28-4.88a23.88,23.88,0,0,0,13.12-15.24,24.8,24.8,0,0,0,.84-5.84L266,76.19A12.63,12.63,0,0,1,269.43,93.71Z" fill="none" stroke="#003a50" stroke-miterlimit="10"/><path d="M266.23,62.07l-7.72,6.08a23.88,23.88,0,0,0-15.56-20l7.64-6a12.65,12.65,0,1,1,15.64,19.88Z" fill="none" stroke="#003a50" stroke-miterlimit="10"/><path d="M236.31,39,234,46.75A23.58,23.58,0,0,0,225,48.87l-15.28-4.48a1.21,1.21,0,0,1-.84-1.52l3.08-10.64a12.87,12.87,0,0,1,13.2-9.4A12.67,12.67,0,0,1,236.31,39Z" fill="none" stroke="#003a50" stroke-miterlimit="10"/><path d="M258.59,71.27a24.8,24.8,0,0,1-.84,5.84,23.88,23.88,0,0,1-13.12,15.24,24.6,24.6,0,0,1-3.28,1.16,23.6,23.6,0,0,1-24.32-7,25.46,25.46,0,0,1-1.84-2.28A23.7,23.7,0,0,1,213.91,59a24,24,0,0,1,11-10.16,23.84,23.84,0,0,1,16.32-1.24c.56.16,1.12.36,1.68.56a23.88,23.88,0,0,1,15.56,20A27.09,27.09,0,0,1,258.59,71.27Z" fill="none" stroke="#003a50" stroke-miterlimit="10"/><path d="M444.42,383.19a1,1,0,0,1-.54.9,1,1,0,0,1-1.3-.45,29.69,29.69,0,0,1,0-25.26,1,1,0,0,1,1.3-.46,1,1,0,0,1,.44,1.34,27.64,27.64,0,0,0,0,23.49A1,1,0,0,1,444.42,383.19Z" fill="none" stroke="#003a50" stroke-miterlimit="10"/><path d="M439.05,383.19a1,1,0,0,1-.54.9,1,1,0,0,1-1.3-.45,29.69,29.69,0,0,1,0-25.26,1,1,0,0,1,1.29-.46,1,1,0,0,1,.45,1.34,27.64,27.64,0,0,0,0,23.49A1,1,0,0,1,439.05,383.19Z" fill="none" stroke="#003a50" stroke-miterlimit="10"/><path d="M433.68,383.19a1,1,0,0,1-.54.9,1,1,0,0,1-1.3-.45,29.69,29.69,0,0,1,0-25.26,1,1,0,0,1,1.29-.46,1,1,0,0,1,.45,1.34,27.64,27.64,0,0,0,0,23.49A1,1,0,0,1,433.68,383.19Z" fill="none" stroke="#003a50" stroke-miterlimit="10"/><path d="M428.31,383.19a1,1,0,0,1-.54.9,1,1,0,0,1-1.3-.45,29.69,29.69,0,0,1,0-25.26,1,1,0,0,1,1.29-.46,1,1,0,0,1,.45,1.34,27.64,27.64,0,0,0,0,23.49A1.17,1.17,0,0,1,428.31,383.19Z" fill="none" stroke="#003a50" stroke-miterlimit="10"/><path d="M422.93,383.19a1,1,0,0,1-.54.9.94.94,0,0,1-1.29-.45,29.69,29.69,0,0,1,0-25.26,1,1,0,0,1,1.29-.46,1,1,0,0,1,.44,1.34,27.64,27.64,0,0,0,0,23.49A1,1,0,0,1,422.93,383.19Z" fill="none" stroke="#003a50" stroke-miterlimit="10"/><path d="M417.56,383.19a1,1,0,0,1-.54.9.94.94,0,0,1-1.29-.45,29.69,29.69,0,0,1,0-25.26,1,1,0,0,1,1.29-.46,1,1,0,0,1,.44,1.34,27.64,27.64,0,0,0,0,23.49A1,1,0,0,1,417.56,383.19Z" fill="none" stroke="#003a50" stroke-miterlimit="10"/><path d="M449.79,383.19a1,1,0,0,1-.54.9.94.94,0,0,1-1.29-.45,29.69,29.69,0,0,1,0-25.26,1,1,0,0,1,1.29-.46,1,1,0,0,1,.44,1.34,27.64,27.64,0,0,0,0,23.49A1,1,0,0,1,449.79,383.19Z" fill="none" stroke="#003a50" stroke-miterlimit="10"/><path d="M455.16,383.19a1,1,0,0,1-.54.9.94.94,0,0,1-1.29-.45,29.69,29.69,0,0,1,0-25.26,1,1,0,0,1,1.29-.46,1,1,0,0,1,.44,1.34,27.64,27.64,0,0,0,0,23.49A1,1,0,0,1,455.16,383.19Z" fill="none" stroke="#003a50" stroke-miterlimit="10"/><line x1="567.2" y1="371.01" x2="403.33" y2="371.01" fill="none" stroke="#003a50" stroke-miterlimit="10"/><rect x="404.34" y="353.72" width="162.86" height="34.02" fill="none" stroke="#003a50" stroke-miterlimit="10"/><path d="M437.08,210a1,1,0,0,1-.54.9.94.94,0,0,1-1.29-.45,29.69,29.69,0,0,1,0-25.26,1,1,0,0,1,1.29-.46,1,1,0,0,1,.44,1.34,27.64,27.64,0,0,0,0,23.49A1,1,0,0,1,437.08,210Z" fill="none" stroke="#003a50" stroke-miterlimit="10"/><path d="M431.71,210a1,1,0,0,1-.54.9,1,1,0,0,1-1.3-.45,29.69,29.69,0,0,1,0-25.26,1,1,0,0,1,1.3-.46,1,1,0,0,1,.44,1.34,27.64,27.64,0,0,0,0,23.49A1,1,0,0,1,431.71,210Z" fill="none" stroke="#003a50" stroke-miterlimit="10"/><path d="M426.34,210a1,1,0,0,1-.54.9,1,1,0,0,1-1.3-.45,29.69,29.69,0,0,1,0-25.26,1,1,0,0,1,1.29-.46,1,1,0,0,1,.45,1.34,27.64,27.64,0,0,0,0,23.49A1,1,0,0,1,426.34,210Z" fill="none" stroke="#003a50" stroke-miterlimit="10"/><path d="M421,210a1,1,0,0,1-.54.9,1,1,0,0,1-1.3-.45,29.69,29.69,0,0,1,0-25.26,1,1,0,0,1,1.29-.46,1,1,0,0,1,.45,1.34,27.64,27.64,0,0,0,0,23.49A1.13,1.13,0,0,1,421,210Z" fill="none" stroke="#003a50" stroke-miterlimit="10"/><path d="M415.6,210a1,1,0,0,1-.54.9,1,1,0,0,1-1.3-.45,29.69,29.69,0,0,1,0-25.26,1,1,0,0,1,1.29-.46,1,1,0,0,1,.45,1.34,27.64,27.64,0,0,0,0,23.49A1.13,1.13,0,0,1,415.6,210Z" fill="none" stroke="#003a50" stroke-miterlimit="10"/><path d="M410.22,210a1,1,0,0,1-.54.9.94.94,0,0,1-1.29-.45,29.69,29.69,0,0,1,0-25.26,1,1,0,0,1,1.29-.46,1,1,0,0,1,.44,1.34,27.64,27.64,0,0,0,0,23.49A1,1,0,0,1,410.22,210Z" fill="none" stroke="#003a50" stroke-miterlimit="10"/><path d="M442.45,210a1,1,0,0,1-.54.9.94.94,0,0,1-1.29-.45,29.69,29.69,0,0,1,0-25.26,1,1,0,0,1,1.29-.46,1,1,0,0,1,.44,1.34,27.64,27.64,0,0,0,0,23.49A1,1,0,0,1,442.45,210Z" fill="none" stroke="#003a50" stroke-miterlimit="10"/><path d="M447.82,210a1,1,0,0,1-.54.9.94.94,0,0,1-1.29-.45,29.69,29.69,0,0,1,0-25.26,1,1,0,0,1,1.29-.46,1,1,0,0,1,.44,1.34,27.64,27.64,0,0,0,0,23.49A1,1,0,0,1,447.82,210Z" fill="none" stroke="#003a50" stroke-miterlimit="10"/></g><line x1="515.61" y1="197.81" x2="395.99" y2="197.81" fill="none" stroke="#003a50" stroke-miterlimit="10"/><path d="M397.73,181.24H514.88v32.58H397.73Zm-1,33.58H515.88V180.24H396.73Z" fill="#003a50"/><rect x="299.92" y="323.37" width="47.18" height="25.39" fill="none" stroke="#003a50" stroke-miterlimit="10"/><g clip-path="url(#clip-path)"><rect x="309.82" y="325.43" width="24.4" height="25.04" rx="2.83" fill="none" stroke="#003a50" stroke-miterlimit="10"/><path d="M322,336a1.91,1.91,0,1,1-1.91,1.91A1.91,1.91,0,0,1,322,336Z" fill="none" stroke="#003a50" stroke-miterlimit="10"/><rect x="464.87" y="324.49" width="24.4" height="25.04" rx="2.83" fill="none" stroke="#003a50" stroke-miterlimit="10"/><path d="M477.08,335.1a1.91,1.91,0,1,1-1.92,1.91A1.92,1.92,0,0,1,477.08,335.1Z" fill="none" stroke="#003a50" stroke-miterlimit="10"/><rect x="328.34" y="-34.48" width="34.02" height="34.02" fill="none" stroke="#003a50" stroke-miterlimit="10"/></g><rect x="405.53" y="40.27" width="81.73" height="27.04" fill="none" stroke="#003a50" stroke-miterlimit="10"/><g clip-path="url(#clip-path)"><path d="M473.32,63.48a.79.79,0,0,1-.45.71.81.81,0,0,1-1.07-.36,22.88,22.88,0,0,1,0-20.08.81.81,0,0,1,1.07-.36.8.8,0,0,1,.36,1.07,21.34,21.34,0,0,0,0,18.67A.73.73,0,0,1,473.32,63.48Z" fill="none" stroke="#003a50" stroke-miterlimit="10"/><path d="M468.89,63.48a.78.78,0,0,1-.44.71.8.8,0,0,1-1.07-.36,22.88,22.88,0,0,1,0-20.08.8.8,0,0,1,1.07-.36.8.8,0,0,1,.36,1.07,21.25,21.25,0,0,0,0,18.67A.72.72,0,0,1,468.89,63.48Z" fill="none" stroke="#003a50" stroke-miterlimit="10"/><path d="M464.47,63.48a.78.78,0,0,1-.44.71.8.8,0,0,1-1.07-.36,22.8,22.8,0,0,1,0-20.08.8.8,0,0,1,1.43.71,21.25,21.25,0,0,0,0,18.67A.72.72,0,0,1,464.47,63.48Z" fill="none" stroke="#003a50" stroke-miterlimit="10"/><path d="M460.05,63.48a.79.79,0,0,1-.45.71.81.81,0,0,1-1.07-.36,22.88,22.88,0,0,1,0-20.08.81.81,0,0,1,1.07-.36.8.8,0,0,1,.36,1.07,21.34,21.34,0,0,0,0,18.67A.73.73,0,0,1,460.05,63.48Z" fill="none" stroke="#003a50" stroke-miterlimit="10"/><path d="M455.62,63.48a.78.78,0,0,1-.44.71.8.8,0,0,1-1.07-.36,22.88,22.88,0,0,1,0-20.08.8.8,0,0,1,1.07-.36.8.8,0,0,1,.36,1.07,21.25,21.25,0,0,0,0,18.67A.72.72,0,0,1,455.62,63.48Z" fill="none" stroke="#003a50" stroke-miterlimit="10"/><path d="M451.2,63.48a.78.78,0,0,1-.44.71.8.8,0,0,1-1.07-.36,22.8,22.8,0,0,1,0-20.08.8.8,0,0,1,1.43.71,21.25,21.25,0,0,0,0,18.67A.72.72,0,0,1,451.2,63.48Z" fill="none" stroke="#003a50" stroke-miterlimit="10"/><path d="M477.74,63.48a.78.78,0,0,1-.44.71.8.8,0,0,1-1.07-.36,22.8,22.8,0,0,1,0-20.08.8.8,0,0,1,1.43.71,21.25,21.25,0,0,0,0,18.67A.72.72,0,0,1,477.74,63.48Z" fill="none" stroke="#003a50" stroke-miterlimit="10"/><path d="M482.16,63.48a.78.78,0,0,1-.44.71.8.8,0,0,1-1.07-.36,22.88,22.88,0,0,1,0-20.08.8.8,0,0,1,1.07-.36.8.8,0,0,1,.36,1.07,21.25,21.25,0,0,0,0,18.67A.72.72,0,0,1,482.16,63.48Z" fill="none" stroke="#003a50" stroke-miterlimit="10"/></g><line x1="486.92" y1="53.79" x2="405.53" y2="53.79" fill="none" stroke="#003a50" stroke-miterlimit="10"/><rect x="300.54" y="353.72" width="90.71" height="34.02" fill="none" stroke="#003a50" stroke-miterlimit="10"/><g clip-path="url(#clip-path)"><path d="M343.11,382.91a1,1,0,0,1-1.9.45,28.77,28.77,0,0,1,0-25.26,1,1,0,1,1,1.8.88,26.72,26.72,0,0,0,0,23.49A1,1,0,0,1,343.11,382.91Z" fill="none" stroke="#003a50" stroke-miterlimit="10"/><path d="M337.54,382.91a1,1,0,0,1-.56.9,1,1,0,0,1-1.34-.45,28.77,28.77,0,0,1,0-25.26,1,1,0,1,1,1.8.88,26.72,26.72,0,0,0,0,23.49A1,1,0,0,1,337.54,382.91Z" fill="none" stroke="#003a50" stroke-miterlimit="10"/><path d="M332,382.91a1,1,0,0,1-1.9.45,28.77,28.77,0,0,1,0-25.26,1,1,0,1,1,1.8.88,26.72,26.72,0,0,0,0,23.49A1,1,0,0,1,332,382.91Z" fill="none" stroke="#003a50" stroke-miterlimit="10"/><path d="M326.41,382.91a1,1,0,0,1-.56.9,1,1,0,0,1-1.34-.45,28.77,28.77,0,0,1,0-25.26,1,1,0,1,1,1.8.88,26.72,26.72,0,0,0,0,23.49A1,1,0,0,1,326.41,382.91Z" fill="none" stroke="#003a50" stroke-miterlimit="10"/><path d="M320.85,382.91a1,1,0,0,1-.56.9,1,1,0,0,1-1.35-.45,28.77,28.77,0,0,1,0-25.26,1,1,0,0,1,1.34-.46,1,1,0,0,1,.46,1.34,26.81,26.81,0,0,0,0,23.49A.9.9,0,0,1,320.85,382.91Z" fill="none" stroke="#003a50" stroke-miterlimit="10"/><path d="M315.28,382.91a1,1,0,0,1-.56.9,1,1,0,0,1-1.34-.45,28.77,28.77,0,0,1,0-25.26,1,1,0,1,1,1.8.88,26.72,26.72,0,0,0,0,23.49A1,1,0,0,1,315.28,382.91Z" fill="none" stroke="#003a50" stroke-miterlimit="10"/><path d="M348.68,382.91a1,1,0,0,1-.56.9,1,1,0,0,1-1.35-.45,28.77,28.77,0,0,1,0-25.26,1,1,0,0,1,1.34-.46,1,1,0,0,1,.46,1.34,26.81,26.81,0,0,0,0,23.49A1,1,0,0,1,348.68,382.91Z" fill="none" stroke="#003a50" stroke-miterlimit="10"/><path d="M354.24,382.91a1,1,0,0,1-1.9.45,28.77,28.77,0,0,1,0-25.26,1,1,0,1,1,1.8.88,26.72,26.72,0,0,0,0,23.49A1,1,0,0,1,354.24,382.91Z" fill="none" stroke="#003a50" stroke-miterlimit="10"/></g><line x1="391.25" y1="370.73" x2="300.54" y2="370.73" fill="none" stroke="#003a50" stroke-miterlimit="10"/><rect x="54.23" y="329.32" width="88.65" height="34.02" fill="none" stroke="#003a50" stroke-miterlimit="10"/><g clip-path="url(#clip-path)"><path d="M96.81,358.51a1,1,0,0,1-.56.9A1,1,0,0,1,94.9,359a28.77,28.77,0,0,1,0-25.26,1,1,0,0,1,1.34-.46,1,1,0,0,1,.46,1.34,26.81,26.81,0,0,0,0,23.49A1,1,0,0,1,96.81,358.51Z" fill="none" stroke="#003a50" stroke-miterlimit="10"/><path d="M91.24,358.51a1,1,0,0,1-1.9.45,28.77,28.77,0,0,1,0-25.26,1,1,0,1,1,1.8.88,26.72,26.72,0,0,0,0,23.49A1,1,0,0,1,91.24,358.51Z" fill="none" stroke="#003a50" stroke-miterlimit="10"/><path d="M85.68,358.51a1,1,0,0,1-.56.9,1,1,0,0,1-1.35-.45,28.77,28.77,0,0,1,0-25.26,1,1,0,0,1,1.34-.46,1,1,0,0,1,.46,1.34,26.81,26.81,0,0,0,0,23.49A1,1,0,0,1,85.68,358.51Z" fill="none" stroke="#003a50" stroke-miterlimit="10"/><path d="M80.11,358.51a1,1,0,0,1-1.9.45,28.77,28.77,0,0,1,0-25.26,1,1,0,0,1,1.8.88,26.72,26.72,0,0,0,0,23.49A1,1,0,0,1,80.11,358.51Z" fill="none" stroke="#003a50" stroke-miterlimit="10"/><path d="M74.54,358.51a1,1,0,0,1-.56.9,1,1,0,0,1-1.34-.45,28.77,28.77,0,0,1,0-25.26,1,1,0,1,1,1.8.88,26.72,26.72,0,0,0,0,23.49A1,1,0,0,1,74.54,358.51Z" fill="none" stroke="#003a50" stroke-miterlimit="10"/><path d="M69,358.51a1,1,0,0,1-1.9.45,28.77,28.77,0,0,1,0-25.26,1,1,0,0,1,1.8.88,26.72,26.72,0,0,0,0,23.49A1,1,0,0,1,69,358.51Z" fill="none" stroke="#003a50" stroke-miterlimit="10"/><path d="M102.37,358.51a1,1,0,0,1-1.9.45,28.77,28.77,0,0,1,0-25.26,1,1,0,0,1,1.8.88,26.72,26.72,0,0,0,0,23.49A1,1,0,0,1,102.37,358.51Z" fill="none" stroke="#003a50" stroke-miterlimit="10"/><path d="M107.94,358.51a1,1,0,0,1-.56.9A1,1,0,0,1,106,359a28.77,28.77,0,0,1,0-25.26,1,1,0,0,1,1.34-.46,1,1,0,0,1,.46,1.34,26.81,26.81,0,0,0,0,23.49A1,1,0,0,1,107.94,358.51Z" fill="none" stroke="#003a50" stroke-miterlimit="10"/></g><line x1="142.88" y1="346.33" x2="54.23" y2="346.33" fill="none" stroke="#003a50" stroke-miterlimit="10"/><rect x="109.01" y="363.47" width="34.02" height="41.8" fill="none" stroke="#003a50" stroke-miterlimit="10"/><g clip-path="url(#clip-path)"><path d="M138.2,381.51a1,1,0,0,1,.45,1.9,28.77,28.77,0,0,1-25.26,0,1,1,0,1,1,.88-1.8,26.72,26.72,0,0,0,23.49,0A1,1,0,0,1,138.2,381.51Z" fill="none" stroke="#003a50" stroke-miterlimit="10"/><path d="M138.2,387.07a1,1,0,0,1,.45,1.91,28.77,28.77,0,0,1-25.26,0,1,1,0,0,1-.46-1.34,1,1,0,0,1,1.34-.46,26.81,26.81,0,0,0,23.49,0A.87.87,0,0,1,138.2,387.07Z" fill="none" stroke="#003a50" stroke-miterlimit="10"/><path d="M138.2,392.64a1,1,0,0,1,.45,1.9,28.77,28.77,0,0,1-25.26,0,1,1,0,1,1,.88-1.8,26.72,26.72,0,0,0,23.49,0A1,1,0,0,1,138.2,392.64Z" fill="none" stroke="#003a50" stroke-miterlimit="10"/><path d="M138.2,398.2a1,1,0,0,1,.45,1.91,28.77,28.77,0,0,1-25.26,0,1,1,0,0,1-.46-1.34,1,1,0,0,1,1.34-.46,26.81,26.81,0,0,0,23.49,0A.87.87,0,0,1,138.2,398.2Z" fill="none" stroke="#003a50" stroke-miterlimit="10"/></g><line x1="126.01" y1="363.33" x2="126.01" y2="405.28" fill="none" stroke="#003a50" stroke-miterlimit="10"/><g clip-path="url(#clip-path)"><rect x="362.35" y="-34.48" width="153.07" height="34.02" fill="none" stroke="#003a50" stroke-miterlimit="10"/><path d="M262.87,521a14.78,14.78,0,0,0,15.93-23.38,1.14,1.14,0,1,0-1.78,1.43,12.47,12.47,0,0,1-14.15,19.5Z" fill="none" stroke="#003a50" stroke-miterlimit="10"/><rect x="228.85" y="466.77" width="34.02" height="84.03" rx="3.31" fill="none" stroke="#003a50" stroke-miterlimit="10"/><path d="M232.56,548.26a1.4,1.4,0,0,0,1.4-1.4V470.72a1.4,1.4,0,0,0-2.79,0v76.14a1.4,1.4,0,0,0,1.39,1.4" fill="none" stroke="#003a50" stroke-miterlimit="10"/><path d="M247.14,480.45a5.51,5.51,0,1,1,0-7.79A5.51,5.51,0,0,1,247.14,480.45Z" fill="none" stroke="#003a50" stroke-miterlimit="10"/><path d="M247.51,480c-1-.1-2,.28-3-.7-1.46-1.46.09-3-1.38-4.47s-3,.08-4.47-1.38" fill="none" stroke="#003a50" stroke-miterlimit="10"/><path d="M262.87,516.32a10.63,10.63,0,1,0,0-19.59Z" fill="none" stroke="#003a50" stroke-miterlimit="10"/></g><rect x="200.24" y="553.42" width="22.68" height="22.68" fill="none" stroke="#003a50" stroke-miterlimit="10"/><g clip-path="url(#clip-path)"><path d="M218.08,571.25a9.19,9.19,0,1,1,0-13A9.19,9.19,0,0,1,218.08,571.25Z" fill="none" stroke="#003a50" stroke-miterlimit="10"/><path d="M218.71,570.56c-1.7-.17-3.42.48-5.07-1.17-2.43-2.44.14-5-2.29-7.45s-5,.13-7.46-2.31" fill="none" stroke="#003a50" stroke-miterlimit="10"/></g><rect x="200.24" y="412.28" width="22.68" height="22.68" fill="none" stroke="#003a50" stroke-miterlimit="10"/><g clip-path="url(#clip-path)"><path d="M218.08,430.12a9.2,9.2,0,1,1,0-13A9.19,9.19,0,0,1,218.08,430.12Z" fill="none" stroke="#003a50" stroke-miterlimit="10"/><path d="M218.71,429.42c-1.7-.16-3.42.49-5.07-1.16-2.43-2.44.14-5-2.29-7.46s-5,.14-7.46-2.3" fill="none" stroke="#003a50" stroke-miterlimit="10"/></g><rect x="109.53" y="442.42" width="113.39" height="102.05" fill="none" stroke="#003a50" stroke-miterlimit="10"/><g clip-path="url(#clip-path)"><path d="M119.27,534.47V452.42a2.08,2.08,0,0,1,2.08-2.08H189v86.22H121.35A2.09,2.09,0,0,1,119.27,534.47Z" fill="none" stroke="#003a50" stroke-miterlimit="10"/><rect x="192.61" y="450.08" width="22.88" height="42.5" rx="1.98" fill="none" stroke="#003a50" stroke-miterlimit="10"/><rect x="192.61" y="494.31" width="22.88" height="42.5" rx="1.98" fill="none" stroke="#003a50" stroke-miterlimit="10"/></g><line x1="175.14" y1="536.81" x2="175.14" y2="450.08" fill="none" stroke="#003a50" stroke-miterlimit="10"/><g clip-path="url(#clip-path)"><rect x="405.59" y="415.38" width="22.68" height="22.68" fill="none" stroke="#003a50" stroke-miterlimit="10"/><path d="M423.42,433.22a9.19,9.19,0,1,1,0-13A9.19,9.19,0,0,1,423.42,433.22Z" fill="none" stroke="#003a50" stroke-miterlimit="10"/><path d="M424.05,432.53c-1.7-.17-3.42.48-5.07-1.17-2.43-2.44.15-5-2.29-7.46s-5,.14-7.46-2.3" fill="none" stroke="#003a50" stroke-miterlimit="10"/><rect x="405.58" y="445.53" width="113.38" height="102.05" fill="none" stroke="#003a50" stroke-miterlimit="10"/><path d="M509.23,455.53v82.05a2.08,2.08,0,0,1-2.08,2.08H439.51V453.44h67.64A2.09,2.09,0,0,1,509.23,455.53Z" fill="none" stroke="#003a50" stroke-miterlimit="10"/><rect x="413.02" y="497.42" width="22.88" height="42.5" rx="1.98" fill="none" stroke="#003a50" stroke-miterlimit="10"/><rect x="413.02" y="453.19" width="22.88" height="42.5" rx="1.98" fill="none" stroke="#003a50" stroke-miterlimit="10"/></g><rect x="362.63" y="180.52" width="34.02" height="34.02" fill="none" stroke="#003a50" stroke-miterlimit="10"/><line x1="369.66" y1="197.53" x2="389.62" y2="197.53" fill="none" stroke="#003a50" stroke-miterlimit="10"/><line x1="379.64" y1="187.55" x2="379.64" y2="207.51" fill="none" stroke="#003a50" stroke-miterlimit="10"/><line x1="372.59" y1="190.47" x2="386.7" y2="204.58" fill="none" stroke="#003a50" stroke-miterlimit="10"/><line x1="386.7" y1="190.47" x2="372.59" y2="204.58" fill="none" stroke="#003a50" stroke-miterlimit="10"/><g clip-path="url(#clip-path)"><path d="M389.67,76.53V53.18a3.36,3.36,0,0,0-3.36-3.35h-15A3.35,3.35,0,0,0,368,53.18V76.53a3.35,3.35,0,0,0,3.35,3.36h15A3.36,3.36,0,0,0,389.67,76.53Z" fill="none" stroke="#003a50" stroke-miterlimit="10"/><circle cx="382.63" cy="64.86" r="2.46" transform="translate(176.28 393.54) rotate(-67.5)" fill="none" stroke="#003a50" stroke-miterlimit="10"/></g><line x1="381.87" y1="64.86" x2="395.48" y2="64.86" fill="none" stroke="#003a50" stroke-miterlimit="10"/><line x1="395.49" y1="58.05" x2="395.49" y2="71.67" fill="none" stroke="#003a50" stroke-miterlimit="10"/><g clip-path="url(#clip-path)"><path d="M113.05,60.27v-41H67.28V62.48h43.56A2.2,2.2,0,0,0,113.05,60.27Z" fill="none" stroke="#003a50" stroke-miterlimit="10"/><path d="M158.92,60.5V19.24H113.15V60.5a2,2,0,0,0,2,2h41.8A2,2,0,0,0,158.92,60.5Z" fill="none" stroke="#003a50" stroke-miterlimit="10"/><path d="M67.28,62.49A3.1,3.1,0,0,1,64,65.31H59.73a3.1,3.1,0,0,1-3.33-2.82V14.29H169.79V62.06a3.11,3.11,0,0,1-3.33,2.83h-4.22a3.1,3.1,0,0,1-3.32-2.83V19.24H67.28Z" fill="none" stroke="#003a50" stroke-miterlimit="10"/></g><rect x="67.28" y="19.24" width="91.64" height="9.25" fill="none" stroke="#003a50" stroke-miterlimit="10"/><rect x="307.05" y="180.44" width="55.58" height="34.35" fill="none" stroke="#003a50" stroke-miterlimit="10"/><rect x="146.81" y="218.49" width="53.05" height="23.96" fill="none" stroke="#003a50" stroke-miterlimit="10"/><g clip-path="url(#clip-path)"><path d="M160.38,237.84V219.55a2.67,2.67,0,0,1,2.68-2.67h17.76a2.67,2.67,0,0,1,2.68,2.67v18.29a2.67,2.67,0,0,1-2.68,2.66H163.06A2.67,2.67,0,0,1,160.38,237.84Z" fill="none" stroke="#003a50" stroke-miterlimit="10"/><ellipse cx="171.94" cy="228.69" rx="1.81" ry="1.8" fill="none" stroke="#003a50" stroke-miterlimit="10"/><path d="M282.44,384.25v3.61a45.35,45.35,0,0,1-45.35,45.35v-49" fill="none" stroke="#003a50" stroke-miterlimit="10" stroke-width="1.6"/><path d="M297.51,281.12h-3.08a38.71,38.71,0,0,0-38.71,38.71h41.79" fill="none" stroke="#003a50" stroke-miterlimit="10" stroke-width="1.6"/><path d="M571.09,444.7h-3.45a43.48,43.48,0,0,1-43.48-43.48h46.93" fill="none" stroke="#003a50" stroke-miterlimit="10" stroke-width="1.6"/><path d="M513.6,279.41h3.13a39.34,39.34,0,0,1,39.34,39.34H513.6" fill="none" stroke="#003a50" stroke-miterlimit="10" stroke-width="1.6"/><path d="M580.42,221.25v-4.06a51.13,51.13,0,0,1,51.13-51.13v55.19" fill="none" stroke="#003a50" stroke-miterlimit="10" stroke-width="1.6"/><path d="M526.83,128h4.06A51.13,51.13,0,0,1,582,179.16H526.83" fill="none" stroke="#003a50" stroke-miterlimit="10" stroke-width="1.6"/><path d="M190.32,324.55v3.07a38.58,38.58,0,0,1-38.58,38.58V324.55" fill="none" stroke="#003a50" stroke-miterlimit="10" stroke-width="1.6"/><path d="M226,335.28h-3.41a43,43,0,0,0-43,43H226" fill="none" stroke="#003a50" stroke-miterlimit="10" stroke-width="1.6"/><line x1="468.26" y1="120.96" x2="413.77" y2="120.96" fill="none" stroke="#003a50" stroke-miterlimit="10" stroke-width="1.6"/><polygon points="54.65 50.07 54.65 -45.67 5.32 -45.67 16.99 50.07 54.65 50.07" fill="#003a50" fill-rule="evenodd"/><polygon points="54.65 416.17 54.65 320.43 5.32 320.43 16.99 416.17 54.65 416.17" fill="#003a50" fill-rule="evenodd"/><rect x="389.24" y="214.81" width="191.83" height="16.32" fill="#003a50"/><rect x="389.24" y="222.97" width="16.32" height="372.48" fill="#003a50"/><rect x="515.74" y="178.28" width="16.32" height="40.5" fill="#003a50"/><rect x="49.49" y="202.16" width="74.57" height="19" fill="#003a50"/><rect x="515.74" y="104.97" width="16.32" height="23.98" fill="#003a50"/><rect x="515.74" y="-40.03" width="16.32" height="50.48" fill="#003a50"/><rect x="487.49" y="104.97" width="40.56" height="11.86" fill="#003a50"/><rect x="487.49" y="7.97" width="13.08" height="108.53" fill="#003a50"/><rect x="50.65" y="-0.18" width="481.33" height="13.79" fill="#003a50"/><rect x="17.22" y="137.77" width="37.5" height="92.58" fill="#003a50"/><rect x="17.22" y="319" width="42.83" height="60.43" fill="#003a50"/><rect x="6.32" y="204.45" width="44.33" height="25.9" fill="#003a50"/><rect x="17.22" y="503.6" width="37.43" height="112.68" fill="#003a50"/><rect x="23.65" y="582.53" width="38.17" height="33.75" fill="#003a50"/><rect x="388.04" y="582.53" width="27.03" height="46.75" fill="#003a50"/><rect x="507.92" y="582.53" width="95.77" height="46.75" fill="#003a50"/><rect x="392.04" y="582.53" width="27.03" height="23.38" fill="#003a50"/><rect x="513.57" y="576.37" width="82.83" height="27.12" fill="#003a50"/><rect x="212.49" y="576.37" width="78.17" height="27.12" fill="#003a50"/><rect x="6.32" y="602.95" width="25.9" height="25.9" fill="#003a50"/><polygon points="203.89 580.03 299.63 580.03 299.63 628.7 203.89 617.19 203.89 580.03" fill="#003a50" fill-rule="evenodd"/><rect x="119.57" y="214.78" width="109" height="6.38" fill="#003a50"/><rect x="222.19" y="219.47" width="6.38" height="116.6" fill="#003a50"/><rect x="222.19" y="377.43" width="6.38" height="212.5" fill="#003a50"/><rect x="199.86" y="219.47" width="6.38" height="22.98" fill="#003a50"/><rect x="201.73" y="236.08" width="22.98" height="6.38" fill="#003a50"/><rect x="189.74" y="323.56" width="33.79" height="6.38" fill="#003a50"/><rect x="105.41" y="405.47" width="41.2" height="3.69" fill="#003a50"/><rect x="143.1" y="327.98" width="3.69" height="80.64" fill="#003a50"/><rect x="48.79" y="405.47" width="19.39" height="3.69" fill="#003a50"/><rect x="49.49" y="323.56" width="103.25" height="6.38" fill="#003a50"/><rect x="281.65" y="381.5" width="18" height="6.38" fill="#003a50"/><rect x="297.51" y="348.67" width="94.48" height="6.38" fill="#003a50"/><rect x="225.38" y="381.5" width="12.54" height="6.38" fill="#003a50"/><rect x="293.88" y="214.78" width="6.38" height="67.17" fill="#003a50"/><rect x="293.88" y="319" width="6.38" height="68.88" fill="#003a50"/><rect x="398.82" y="110.46" width="42.19" height="6.38" fill="#003a50"/><rect x="398.94" y="10.12" width="6.38" height="106.38" fill="#003a50"/><rect x="402.12" y="33.68" width="91.1" height="6.38" fill="#003a50"/><rect x="293.88" y="214.78" width="99.68" height="6.38" fill="#003a50"/><rect x="293.88" y="250.41" width="99.68" height="6.38" fill="#003a50"/><rect x="338.05" y="214.78" width="6.38" height="38.25" fill="#003a50"/><rect x="478.06" y="110.46" width="12.54" height="6.38" fill="#003a50"/><rect x="567.47" y="443.91" width="6.38" height="136.12" fill="#003a50"/><rect x="567.47" y="347.78" width="6.38" height="54.19" fill="#003a50"/><rect x="508.66" y="229.95" width="6.38" height="50.21" fill="#003a50"/><rect x="508.66" y="317.91" width="6.38" height="32.88" fill="#003a50"/><rect x="570.65" y="320.94" width="3.19" height="29.85" fill="#003a50"/><rect x="570.65" y="231.1" width="3.19" height="36.33" fill="#003a50"/><rect x="404.07" y="249.85" width="107.78" height="6.38" fill="#003a50"/><rect x="472.51" y="227.23" width="6.38" height="26.37" fill="#003a50"/><rect x="404.07" y="347.97" width="166.58" height="6.38" fill="#003a50"/><rect x="526.07" y="11.54" width="5.98" height="101.5" fill="#003a50"/><line x1="573.11" y1="321.29" x2="575.95" y2="321.29" fill="none" stroke="#003a50" stroke-miterlimit="10"/><line x1="581.69" y1="321.29" x2="636.3" y2="321.29" fill="none" stroke="#003a50" stroke-miterlimit="10" stroke-dasharray="5.75 5.75"/><line x1="226.15" y1="215.32" x2="302.89" y2="215.32" fill="none" stroke="#003a50" stroke-miterlimit="10" stroke-dasharray="5.67 5.67"/><line x1="398.88" y1="180.8" x2="398.88" y2="109.59" fill="none" stroke="#003a50" stroke-miterlimit="10" stroke-dasharray="5.67 5.67"/></g><g clip-path="url(#clip-path)"><path d="M470.3,304.22h-5.82v-1.84h8.86v1.84l-4.52,2.65v.07h1.28a3.86,3.86,0,0,1,2.79,1,3.52,3.52,0,0,1,1.05,2.66,3.33,3.33,0,0,1-1.33,2.83,7,7,0,0,1-7.24,0,3.36,3.36,0,0,1-1.33-2.86v-.32h2.11v.32c0,1.36,1,2,2.84,2s2.84-.67,2.84-2-.95-2-2.84-2h-3.26V307l4.57-2.68Z" fill="#003a50"/><path d="M476,314.15a1,1,0,0,1-.32-.8,1.07,1.07,0,0,1,.32-.81,1.41,1.41,0,0,1,1.74,0,1.07,1.07,0,0,1,.32.81,1,1,0,0,1-.32.8,1.41,1.41,0,0,1-1.74,0Z" fill="#003a50"/><path d="M486.15,304.22h-5.82v-1.84h8.86v1.84l-4.53,2.65v.07h1.28a3.86,3.86,0,0,1,2.79,1,3.49,3.49,0,0,1,1.06,2.66,3.35,3.35,0,0,1-1.33,2.83,7,7,0,0,1-7.24,0,3.36,3.36,0,0,1-1.33-2.86v-.32H482v.32c0,1.36.94,2,2.84,2s2.84-.67,2.84-2-.95-2-2.84-2h-3.27V307l4.58-2.68Z" fill="#003a50"/><path d="M546.65,280.75h-9.93v-1.57a2.74,2.74,0,0,1,.58-1.74,4,4,0,0,1,1.44-1.2c.5-.25,1.13-.54,1.87-.86s1.33-.56,1.88-.77a4.09,4.09,0,0,0,1.44-.92,1.76,1.76,0,0,0,.58-1.3c0-1.26-.89-1.88-2.67-1.88s-2.67.72-2.67,2.15v.41h-2.11v-.41a3.62,3.62,0,0,1,1.26-3,5.38,5.38,0,0,1,3.51-1,5.66,5.66,0,0,1,3.52,1,3.31,3.31,0,0,1,1.27,2.75,3.17,3.17,0,0,1-.56,1.84,4.26,4.26,0,0,1-1.4,1.3c-.6.34-1.21.65-1.84.93s-1.23.53-1.82.75a5.46,5.46,0,0,0-1.41.74,1.24,1.24,0,0,0-.56,1h7.62Z" fill="#003a50"/><path d="M548.75,280.61a1,1,0,0,1-.32-.8,1.07,1.07,0,0,1,.32-.81,1.41,1.41,0,0,1,1.74,0,1.07,1.07,0,0,1,.32.81,1,1,0,0,1-.32.8,1.41,1.41,0,0,1-1.74,0Z" fill="#003a50"/><path d="M562.53,280.75H552.6v-1.57a2.74,2.74,0,0,1,.58-1.74,4,4,0,0,1,1.44-1.2c.5-.25,1.12-.54,1.87-.86s1.32-.56,1.88-.77a4.09,4.09,0,0,0,1.44-.92,1.76,1.76,0,0,0,.58-1.3c0-1.26-.89-1.88-2.67-1.88s-2.67.72-2.67,2.15v.41h-2.11v-.41a3.62,3.62,0,0,1,1.26-3,5.38,5.38,0,0,1,3.51-1,5.66,5.66,0,0,1,3.52,1,3.31,3.31,0,0,1,1.27,2.75,3.17,3.17,0,0,1-.56,1.84,4.36,4.36,0,0,1-1.4,1.3c-.6.34-1.21.65-1.84.93s-1.23.53-1.83.75a5.55,5.55,0,0,0-1.4.74,1.24,1.24,0,0,0-.56,1h7.62Z" fill="#003a50"/><path d="M78.56,601l-1.75,1.38v-1.58l1.93-1.6h1.31v8.4H78.56Z" fill="#003a50"/><path d="M81.83,607.53a.73.73,0,0,1-.23-.57.75.75,0,0,1,.23-.57,1,1,0,0,1,1.23,0,.74.74,0,0,1,.22.57.72.72,0,0,1-.22.57,1,1,0,0,1-1.23,0Z" fill="#003a50"/><path d="M85.65,606.54a5.16,5.16,0,0,1,0-6.24,4,4,0,0,1,5.73,0,5.2,5.2,0,0,1,0,6.24,4,4,0,0,1-5.73,0Zm4.6-1a4,4,0,0,0,0-4.28,2.21,2.21,0,0,0-3.47,0,3.48,3.48,0,0,0-.62,2.14,3.52,3.52,0,0,0,.62,2.14,2.21,2.21,0,0,0,3.47,0Z" fill="#003a50"/><path d="M435.45,606.54a5.2,5.2,0,0,1,0-6.24,4,4,0,0,1,5.74,0,5.2,5.2,0,0,1,0,6.24,4,4,0,0,1-5.74,0Zm4.6-1a4,4,0,0,0,0-4.28,2.2,2.2,0,0,0-3.46,0,3.42,3.42,0,0,0-.63,2.14,3.46,3.46,0,0,0,.63,2.14,2.2,2.2,0,0,0,3.46,0Z" fill="#003a50"/><path d="M443.78,607.53a.7.7,0,0,1-.23-.57.71.71,0,0,1,.23-.57.85.85,0,0,1,.61-.21.87.87,0,0,1,.61.21.75.75,0,0,1,.23.57.73.73,0,0,1-.23.57.87.87,0,0,1-.61.21A.85.85,0,0,1,443.78,607.53Z" fill="#003a50"/><path d="M453.38,601.59h-1.55a.37.37,0,0,0,0-.13,2.73,2.73,0,0,0-.15-.31,2.33,2.33,0,0,0-.27-.35,1.37,1.37,0,0,0-.51-.29,2,2,0,0,0-.71-.11,1.79,1.79,0,0,0-1.52.72,3.19,3.19,0,0,0-.53,1.9h0a1,1,0,0,1,.31-.31,3.19,3.19,0,0,1,.42-.26,3.25,3.25,0,0,1,.68-.21,4,4,0,0,1,.85-.09,3.55,3.55,0,0,1,2.38.78,2.46,2.46,0,0,1,.92,2,2.52,2.52,0,0,1-1,2.05,3.87,3.87,0,0,1-2.54.78,3.38,3.38,0,0,1-2.73-1.09,4.5,4.5,0,0,1-.93-3v-.29a4.83,4.83,0,0,1,.93-3,3.16,3.16,0,0,1,2.68-1.21,3.93,3.93,0,0,1,1.5.27,2.73,2.73,0,0,1,1,.66A2.42,2.42,0,0,1,453.38,601.59Zm-1.76,2.22a2.26,2.26,0,0,0-1.4-.41,2.21,2.21,0,0,0-1.39.41,1.3,1.3,0,0,0-.55,1.11,1.34,1.34,0,0,0,.54,1.11,2.6,2.6,0,0,0,2.8,0,1.35,1.35,0,0,0,.55-1.11A1.32,1.32,0,0,0,451.62,603.81Z" fill="#003a50"/><path d="M315.64,606.54a5.2,5.2,0,0,1,0-6.24,4,4,0,0,1,5.74,0,5.2,5.2,0,0,1,0,6.24,4,4,0,0,1-5.74,0Zm4.61-1a4.06,4.06,0,0,0,0-4.28,2.05,2.05,0,0,0-1.74-.84,2,2,0,0,0-1.73.84,3.42,3.42,0,0,0-.62,2.14,3.46,3.46,0,0,0,.62,2.14,2,2,0,0,0,1.73.84A2.05,2.05,0,0,0,320.25,605.56Z" fill="#003a50"/><path d="M324,607.53a.73.73,0,0,1-.23-.57.75.75,0,0,1,.23-.57.87.87,0,0,1,.61-.21.85.85,0,0,1,.61.21.75.75,0,0,1,.23.57.73.73,0,0,1-.23.57.85.85,0,0,1-.61.21A.87.87,0,0,1,324,607.53Z" fill="#003a50"/><path d="M333.58,601.59H332s0-.05,0-.13a1.2,1.2,0,0,0-.15-.31,2.33,2.33,0,0,0-.27-.35,1.4,1.4,0,0,0-.5-.29,2.09,2.09,0,0,0-.72-.11,1.76,1.76,0,0,0-1.51.72,3.12,3.12,0,0,0-.54,1.9h0a1.12,1.12,0,0,1,.31-.31,2.73,2.73,0,0,1,.43-.26,3.14,3.14,0,0,1,.67-.21,4,4,0,0,1,.86-.09,3.57,3.57,0,0,1,2.38.78,2.49,2.49,0,0,1,.92,2,2.53,2.53,0,0,1-1,2.05,3.87,3.87,0,0,1-2.54.78,3.38,3.38,0,0,1-2.73-1.09,4.5,4.5,0,0,1-.93-3v-.29a4.83,4.83,0,0,1,.93-3,3.18,3.18,0,0,1,2.68-1.21,3.86,3.86,0,0,1,1.5.27,2.73,2.73,0,0,1,1,.66A2.44,2.44,0,0,1,333.58,601.59Zm-1.77,2.22a2.58,2.58,0,0,0-2.79,0,1.3,1.3,0,0,0-.55,1.11A1.34,1.34,0,0,0,329,606a2.6,2.6,0,0,0,2.8,0,1.4,1.4,0,0,0,0-2.22Z" fill="#003a50"/><path d="M32.82,124.73a4.57,4.57,0,0,1-3.11,1,4.61,4.61,0,0,1-3.12-1,4,4,0,0,1,0-5.74,4.61,4.61,0,0,1,3.12-1,4.57,4.57,0,0,1,3.11,1,4,4,0,0,1,0,5.74Zm-1-4.61a3.47,3.47,0,0,0-2.13-.61,3.53,3.53,0,0,0-2.15.61,2.23,2.23,0,0,0,0,3.47,3.53,3.53,0,0,0,2.15.62,3.47,3.47,0,0,0,2.13-.62,2,2,0,0,0,.84-1.73A2.05,2.05,0,0,0,31.84,120.12Z" fill="#003a50"/><path d="M33.81,116.4a.71.71,0,0,1-.56.23.75.75,0,0,1-.57-.23.87.87,0,0,1-.21-.61.85.85,0,0,1,.21-.61.71.71,0,0,1,.57-.23.68.68,0,0,1,.56.23.85.85,0,0,1,.21.61A.87.87,0,0,1,33.81,116.4Z" fill="#003a50"/><path d="M27.87,106.79v1.56s0,0-.12,0a1.2,1.2,0,0,0-.31.15,1.91,1.91,0,0,0-.35.27,1.27,1.27,0,0,0-.29.5,2.08,2.08,0,0,0-.12.71,1.75,1.75,0,0,0,.73,1.52,3.11,3.11,0,0,0,1.89.54v0a1.11,1.11,0,0,1-.3-.31,2.73,2.73,0,0,1-.26-.43,3.14,3.14,0,0,1-.21-.67,3.49,3.49,0,0,1-.1-.86,3.58,3.58,0,0,1,.79-2.38,2.49,2.49,0,0,1,2-.92,2.54,2.54,0,0,1,2.06,1A4,4,0,0,1,34,110a3.38,3.38,0,0,1-1.09,2.73,4.48,4.48,0,0,1-3,.93h-.28a4.86,4.86,0,0,1-3.05-.93,3.2,3.2,0,0,1-1.2-2.69,4.14,4.14,0,0,1,.26-1.5,2.69,2.69,0,0,1,.66-1A2.48,2.48,0,0,1,27.87,106.79Zm2.22,1.77a2.58,2.58,0,0,0,0,2.79,1.33,1.33,0,0,0,1.12.55,1.31,1.31,0,0,0,1.1-.54,2.54,2.54,0,0,0,0-2.8,1.29,1.29,0,0,0-1.1-.55A1.33,1.33,0,0,0,30.09,108.56Z" fill="#003a50"/><path d="M32.82,447.74a4.52,4.52,0,0,1-3.11,1.05,4.57,4.57,0,0,1-3.12-1.05,4,4,0,0,1,0-5.73A4.57,4.57,0,0,1,29.71,441,4.52,4.52,0,0,1,32.82,442a4,4,0,0,1,0,5.73Zm-1-4.6a3.47,3.47,0,0,0-2.13-.62,3.53,3.53,0,0,0-2.15.62,2.23,2.23,0,0,0,0,3.47,3.53,3.53,0,0,0,2.15.62,3.47,3.47,0,0,0,2.13-.62,2.21,2.21,0,0,0,0-3.47Z" fill="#003a50"/><path d="M33.81,439.42a.72.72,0,0,1-.57.23.74.74,0,0,1-.56-.23.9.9,0,0,1-.21-.62.87.87,0,0,1,.21-.61.74.74,0,0,1,.56-.23.72.72,0,0,1,.57.23.87.87,0,0,1,.21.61A.9.9,0,0,1,33.81,439.42Z" fill="#003a50"/><path d="M27.87,429.81v1.56l-.12,0-.31.15a1.6,1.6,0,0,0-.35.28,1.14,1.14,0,0,0-.29.5,2,2,0,0,0-.12.71,1.76,1.76,0,0,0,.73,1.52,3.11,3.11,0,0,0,1.89.54v0a1.27,1.27,0,0,1-.3-.31,4.1,4.1,0,0,1-.26-.43,3.75,3.75,0,0,1-.22-.67,4.12,4.12,0,0,1-.09-.86,3.58,3.58,0,0,1,.79-2.38,2.62,2.62,0,0,1,4,0A3.89,3.89,0,0,1,34,433a3.38,3.38,0,0,1-1.09,2.73,4.48,4.48,0,0,1-3,.94h-.28a4.86,4.86,0,0,1-3.05-.94,3.18,3.18,0,0,1-1.2-2.68,4.14,4.14,0,0,1,.26-1.5,2.61,2.61,0,0,1,.66-1A2.43,2.43,0,0,1,27.87,429.81Zm2.22,1.77a2.27,2.27,0,0,0-.41,1.39,2.32,2.32,0,0,0,.41,1.4,1.35,1.35,0,0,0,1.12.55,1.29,1.29,0,0,0,1.1-.55,2.54,2.54,0,0,0,0-2.8,1.31,1.31,0,0,0-1.1-.54A1.33,1.33,0,0,0,30.09,431.58Z" fill="#003a50"/><path d="M32.82,304.45a4.52,4.52,0,0,1-3.11,1,4.56,4.56,0,0,1-3.12-1,4,4,0,0,1,0-5.74,4.61,4.61,0,0,1,3.12-1,4.57,4.57,0,0,1,3.11,1,4,4,0,0,1,0,5.74Zm-1-4.6a3.47,3.47,0,0,0-2.13-.62,3.53,3.53,0,0,0-2.15.62,2.22,2.22,0,0,0,0,3.46,3.47,3.47,0,0,0,2.15.63,3.41,3.41,0,0,0,2.13-.63,2.2,2.2,0,0,0,0-3.46Z" fill="#003a50"/><path d="M33.81,296.12a.69.69,0,0,1-.57.23.7.7,0,0,1-.56-.23.85.85,0,0,1-.21-.61.87.87,0,0,1,.21-.61.74.74,0,0,1,.56-.23.72.72,0,0,1,.57.23.87.87,0,0,1,.21.61A.85.85,0,0,1,33.81,296.12Z" fill="#003a50"/><path d="M27.87,286.52v1.55l-.12,0-.31.15a1.6,1.6,0,0,0-.35.28,1.14,1.14,0,0,0-.29.5,2,2,0,0,0-.12.71,1.78,1.78,0,0,0,.73,1.52,3.11,3.11,0,0,0,1.89.53v0a1,1,0,0,1-.3-.31,3.19,3.19,0,0,1-.26-.42,3.89,3.89,0,0,1-.22-.68,4,4,0,0,1-.09-.85,3.56,3.56,0,0,1,.79-2.38,2.46,2.46,0,0,1,2-.92,2.51,2.51,0,0,1,2.05,1,3.89,3.89,0,0,1,.78,2.54,3.38,3.38,0,0,1-1.09,2.73,4.48,4.48,0,0,1-3,.93h-.28a4.86,4.86,0,0,1-3.05-.93,3.18,3.18,0,0,1-1.2-2.68,4.14,4.14,0,0,1,.26-1.5,2.73,2.73,0,0,1,.66-1A2.46,2.46,0,0,1,27.87,286.52Zm2.22,1.77a2.56,2.56,0,0,0,0,2.78,1.33,1.33,0,0,0,1.12.55,1.31,1.31,0,0,0,1.1-.54,2.54,2.54,0,0,0,0-2.8,1.32,1.32,0,0,0-1.1-.55A1.33,1.33,0,0,0,30.09,288.29Z" fill="#003a50"/><path d="M112.19,158h-9.93v-1.56a2.79,2.79,0,0,1,.58-1.75,3.83,3.83,0,0,1,1.45-1.19c.49-.26,1.12-.55,1.86-.87s1.33-.55,1.88-.77a4.21,4.21,0,0,0,1.45-.91,1.81,1.81,0,0,0,.57-1.31c0-1.25-.89-1.88-2.67-1.88s-2.67.72-2.67,2.16v.4H102.6V150a3.64,3.64,0,0,1,1.26-3,5.45,5.45,0,0,1,3.52-1,5.72,5.72,0,0,1,3.51,1,3.29,3.29,0,0,1,1.27,2.75,3.17,3.17,0,0,1-.56,1.84,4.16,4.16,0,0,1-1.4,1.3,16.7,16.7,0,0,1-1.84.93c-.62.28-1.23.53-1.82.75a5.18,5.18,0,0,0-1.41.75,1.23,1.23,0,0,0-.56.95h7.62Z" fill="#003a50"/><path d="M120.49,148h-5.82v-1.84h8.86V148L119,150.62v.07h1.28a3.9,3.9,0,0,1,2.79,1,3.53,3.53,0,0,1,1.06,2.67,3.35,3.35,0,0,1-1.33,2.82,7,7,0,0,1-7.24,0,3.36,3.36,0,0,1-1.33-2.86V154h2.11v.32c0,1.37.94,2,2.84,2s2.84-.67,2.84-2-1-2-2.84-2h-3.27v-1.67l4.58-2.68Z" fill="#003a50"/><path d="M126.23,157.91a1,1,0,0,1-.33-.81,1,1,0,0,1,.33-.81,1.44,1.44,0,0,1,1.73,0,1,1,0,0,1,.33.81,1,1,0,0,1-.33.81,1.44,1.44,0,0,1-1.73,0Z" fill="#003a50"/><path d="M140,158h-9.93v-1.56a2.85,2.85,0,0,1,.58-1.75,4,4,0,0,1,1.45-1.19c.5-.26,1.12-.55,1.87-.87s1.32-.55,1.87-.77a4.12,4.12,0,0,0,1.45-.91,1.81,1.81,0,0,0,.57-1.31c0-1.25-.89-1.88-2.66-1.88s-2.68.72-2.68,2.16v.4h-2.11V150a3.61,3.61,0,0,1,1.27-3,5.4,5.4,0,0,1,3.51-1,5.72,5.72,0,0,1,3.51,1,3.29,3.29,0,0,1,1.27,2.75,3.17,3.17,0,0,1-.55,1.84,4.28,4.28,0,0,1-1.41,1.3,17.49,17.49,0,0,1-1.83.93q-.94.42-1.83.75a5.11,5.11,0,0,0-1.4.75,1.22,1.22,0,0,0-.57.95H140Z" fill="#003a50"/><path d="M427.2,156h-5.82v-1.85h8.86V156l-4.53,2.65v.06H427a3.87,3.87,0,0,1,2.79,1,3.47,3.47,0,0,1,1.06,2.66,3.37,3.37,0,0,1-1.33,2.83,7,7,0,0,1-7.24,0,3.37,3.37,0,0,1-1.33-2.86V162h2.11v.33c0,1.36.94,2,2.84,2s2.84-.66,2.84-2-1-2-2.84-2h-3.27v-1.67L427.2,156Z" fill="#003a50"/><path d="M432.94,165.9a1,1,0,0,1-.33-.81,1,1,0,0,1,.33-.8,1.23,1.23,0,0,1,.87-.3,1.2,1.2,0,0,1,.86.3,1,1,0,0,1,.33.8,1,1,0,0,1-.33.81,1.2,1.2,0,0,1-.86.3A1.23,1.23,0,0,1,432.94,165.9Z" fill="#003a50"/><path d="M445.52,165.27a7.73,7.73,0,0,1-7.37,0,3,3,0,0,1-1.37-2.56,2.7,2.7,0,0,1,.26-1.16,2.32,2.32,0,0,1,.66-.86,4,4,0,0,1,1.39-.77l.26-.06v-.1a2.91,2.91,0,0,1-.76-.29,2.68,2.68,0,0,1-.67-.44,2.2,2.2,0,0,1-.54-.75,2.41,2.41,0,0,1-.22-1,2.83,2.83,0,0,1,1.25-2.39,7,7,0,0,1,6.85,0,2.84,2.84,0,0,1,1.25,2.39,2.43,2.43,0,0,1-.22,1,2,2,0,0,1-.55.74,3.54,3.54,0,0,1-1.2.68l-.22.05v.1l.28.06a5.42,5.42,0,0,1,.62.27,3.79,3.79,0,0,1,.77.5,2.72,2.72,0,0,1,.62.83,2.63,2.63,0,0,1,.27,1.19A3,3,0,0,1,445.52,165.27Zm-5.79-1.36a3.75,3.75,0,0,0,2.1.49,3.84,3.84,0,0,0,2.1-.48,1.59,1.59,0,0,0,0-2.69,4.93,4.93,0,0,0-4.2,0,1.58,1.58,0,0,0,0,2.68Zm-.36-6.51a1.36,1.36,0,0,0,.64,1.19,4.09,4.09,0,0,0,3.65,0,1.38,1.38,0,0,0,.64-1.19,1.36,1.36,0,0,0-.66-1.2,3.94,3.94,0,0,0-3.62,0A1.38,1.38,0,0,0,439.37,157.4Z" fill="#003a50"/><path d="M461.18,91.08h-9.93V89.52a2.79,2.79,0,0,1,.58-1.75,3.87,3.87,0,0,1,1.44-1.19c.5-.26,1.12-.55,1.87-.87s1.32-.55,1.88-.77a4.07,4.07,0,0,0,1.44-.91,1.78,1.78,0,0,0,.58-1.31c0-1.25-.89-1.88-2.67-1.88s-2.67.72-2.67,2.16v.4h-2.11V83a3.64,3.64,0,0,1,1.26-3,5.44,5.44,0,0,1,3.51-1,5.73,5.73,0,0,1,3.52,1,3.31,3.31,0,0,1,1.27,2.75,3.17,3.17,0,0,1-.56,1.84,4.25,4.25,0,0,1-1.4,1.3,16.7,16.7,0,0,1-1.84.93q-.93.42-1.83.75a5.26,5.26,0,0,0-1.4.75,1.2,1.2,0,0,0-.56.95h7.62Z" fill="#003a50"/><path d="M463.28,91a1,1,0,0,1-.32-.81,1,1,0,0,1,.32-.81,1.45,1.45,0,0,1,1.74,0,1.07,1.07,0,0,1,.32.81A1,1,0,0,1,465,91a1.45,1.45,0,0,1-1.74,0Z" fill="#003a50"/><path d="M468.69,89.54a7.33,7.33,0,0,1,0-8.83,5.69,5.69,0,0,1,8.13,0,7.33,7.33,0,0,1,0,8.83,5.71,5.71,0,0,1-8.13,0Zm6.52-1.39a4.89,4.89,0,0,0,.88-3,5,5,0,0,0-.88-3,3.14,3.14,0,0,0-4.91,0,4.94,4.94,0,0,0-.88,3,4.89,4.89,0,0,0,.88,3,3.13,3.13,0,0,0,4.91,0Z" fill="#003a50"/><path d="M250.84,343.34H245V341.5h8.86v1.84L249.36,346v.07h1.28a3.9,3.9,0,0,1,2.79,1,3.52,3.52,0,0,1,1,2.67,3.32,3.32,0,0,1-1.33,2.82,6.93,6.93,0,0,1-7.24,0,3.38,3.38,0,0,1-1.33-2.85v-.33h2.11v.33c0,1.36.95,2,2.84,2s2.84-.67,2.84-2-.94-2-2.84-2h-3.26v-1.67l4.57-2.68Z" fill="#003a50"/><path d="M256.58,353.28a1.17,1.17,0,0,1,0-1.61,1.41,1.41,0,0,1,1.74,0,1.17,1.17,0,0,1,0,1.61,1.41,1.41,0,0,1-1.74,0Z" fill="#003a50"/><path d="M263.69,353.41h-2.35l5.42-10h-6.93V341.5h9.28v1.88Z" fill="#003a50"/><path d="M318,314.26h-9.93V312.7a2.79,2.79,0,0,1,.58-1.75,3.91,3.91,0,0,1,1.45-1.19c.5-.26,1.12-.55,1.87-.87s1.32-.55,1.87-.77a4.36,4.36,0,0,0,1.45-.91,1.82,1.82,0,0,0,.57-1.31c0-1.25-.89-1.88-2.67-1.88s-2.67.72-2.67,2.16v.4h-2.11v-.4a3.62,3.62,0,0,1,1.26-3,5.45,5.45,0,0,1,3.52-1,5.72,5.72,0,0,1,3.51,1A3.29,3.29,0,0,1,318,305.9a3.17,3.17,0,0,1-.56,1.84A4.26,4.26,0,0,1,316,309c-.6.34-1.21.65-1.84.93s-1.23.53-1.82.75a5.18,5.18,0,0,0-1.41.75,1.23,1.23,0,0,0-.56.95H318Z" fill="#003a50"/><path d="M320.12,314.12a1,1,0,0,1-.32-.8,1.07,1.07,0,0,1,.32-.81,1.25,1.25,0,0,1,.88-.3,1.22,1.22,0,0,1,.86.3,1,1,0,0,1,.32.81,1,1,0,0,1-.32.8,1.22,1.22,0,0,1-.86.3A1.25,1.25,0,0,1,320.12,314.12Z" fill="#003a50"/><path d="M332.71,313.49a7.73,7.73,0,0,1-7.37,0,2.93,2.93,0,0,1-1.37-2.55,2.71,2.71,0,0,1,.26-1.17,2.37,2.37,0,0,1,.65-.85,4,4,0,0,1,1.4-.77l.26-.07V308a3.38,3.38,0,0,1-.77-.29,2.61,2.61,0,0,1-.66-.44,2.35,2.35,0,0,1-.54-.76,2.39,2.39,0,0,1-.23-1,2.8,2.8,0,0,1,1.26-2.38,5.74,5.74,0,0,1,3.42-.9,5.81,5.81,0,0,1,3.43.9,2.82,2.82,0,0,1,1.24,2.38,2.43,2.43,0,0,1-.22,1,1.83,1.83,0,0,1-.55.75,3.59,3.59,0,0,1-1.19.68l-.23.05v.09l.28.07a4,4,0,0,1,.63.26,4.67,4.67,0,0,1,.77.51,2.65,2.65,0,0,1,.61.82,2.56,2.56,0,0,1,.28,1.2A3,3,0,0,1,332.71,313.49Zm-5.79-1.35a3.84,3.84,0,0,0,2.1.48,3.94,3.94,0,0,0,2.1-.47,1.6,1.6,0,0,0,0-2.7,4.93,4.93,0,0,0-4.2,0,1.51,1.51,0,0,0-.74,1.35A1.49,1.49,0,0,0,326.92,312.14Zm-.37-6.52a1.37,1.37,0,0,0,.65,1.19,3.2,3.2,0,0,0,1.82.44,3.24,3.24,0,0,0,1.82-.44,1.42,1.42,0,0,0,0-2.39,3.94,3.94,0,0,0-3.62,0A1.36,1.36,0,0,0,326.55,305.62Z" fill="#003a50"/><path d="M119,305.7h-2.2s0-.06,0-.17a2.53,2.53,0,0,0-.22-.44,2.64,2.64,0,0,0-.38-.5,1.93,1.93,0,0,0-.71-.41,3,3,0,0,0-1-.16,2.49,2.49,0,0,0-2.15,1,4.39,4.39,0,0,0-.77,2.68h.06a1.63,1.63,0,0,1,.44-.43,3.55,3.55,0,0,1,.61-.37,4.11,4.11,0,0,1,.95-.3,5.41,5.41,0,0,1,1.21-.13,5.06,5.06,0,0,1,3.38,1.11,3.51,3.51,0,0,1,1.3,2.8,3.57,3.57,0,0,1-1.36,2.91,5.57,5.57,0,0,1-3.61,1.1,4.81,4.81,0,0,1-3.87-1.54,6.36,6.36,0,0,1-1.32-4.27v-.41a6.85,6.85,0,0,1,1.32-4.31,4.52,4.52,0,0,1,3.81-1.71,5.64,5.64,0,0,1,2.12.38,3.82,3.82,0,0,1,1.44.93A3.45,3.45,0,0,1,119,305.7Zm-2.5,3.15a3.67,3.67,0,0,0-4,0,2,2,0,0,0,0,3.15,3.62,3.62,0,0,0,4,0,2,2,0,0,0,0-3.15Z" fill="#003a50"/><path d="M121.67,314.12a1,1,0,0,1-.32-.8,1.07,1.07,0,0,1,.32-.81,1.25,1.25,0,0,1,.88-.3,1.22,1.22,0,0,1,.86.3,1,1,0,0,1,.32.81,1,1,0,0,1-.32.8,1.22,1.22,0,0,1-.86.3A1.25,1.25,0,0,1,121.67,314.12Z" fill="#003a50"/><path d="M127.08,312.72a7.34,7.34,0,0,1,0-8.84,5.71,5.71,0,0,1,8.13,0,7.34,7.34,0,0,1,0,8.84,5.71,5.71,0,0,1-8.13,0Zm6.53-1.39a5,5,0,0,0,.87-3,5,5,0,0,0-.87-3,3.15,3.15,0,0,0-4.92,0,4.94,4.94,0,0,0-.88,3,4.89,4.89,0,0,0,.88,3,3.14,3.14,0,0,0,4.92,0Z" fill="#003a50"/><path d="M79.15,386.06H69.21V384.5a2.8,2.8,0,0,1,.58-1.74,4.12,4.12,0,0,1,1.45-1.2c.5-.25,1.12-.54,1.87-.86s1.32-.56,1.88-.77a4.09,4.09,0,0,0,1.44-.92,1.78,1.78,0,0,0,.57-1.3c0-1.26-.89-1.88-2.66-1.88s-2.68.71-2.68,2.15v.41H69.55V378a3.59,3.59,0,0,1,1.27-3,5.34,5.34,0,0,1,3.51-1,5.65,5.65,0,0,1,3.51,1,3.29,3.29,0,0,1,1.27,2.75,3.11,3.11,0,0,1-.55,1.83,4.31,4.31,0,0,1-1.41,1.31q-.9.51-1.83.93t-1.83.75a5.55,5.55,0,0,0-1.4.74,1.25,1.25,0,0,0-.57,1h7.63Z" fill="#003a50"/><path d="M81.25,385.93a1,1,0,0,1-.33-.8,1,1,0,0,1,.33-.81,1.4,1.4,0,0,1,1.73,0,1,1,0,0,1,.33.81,1,1,0,0,1-.33.8,1.4,1.4,0,0,1-1.73,0Z" fill="#003a50"/><path d="M95,386.06H85.09V384.5a2.8,2.8,0,0,1,.58-1.74,4.12,4.12,0,0,1,1.45-1.2c.5-.25,1.12-.54,1.87-.86s1.32-.56,1.87-.77a4.14,4.14,0,0,0,1.45-.92,1.78,1.78,0,0,0,.57-1.3c0-1.26-.89-1.88-2.66-1.88s-2.68.71-2.68,2.15v.41H85.43V378a3.62,3.62,0,0,1,1.26-3,5.39,5.39,0,0,1,3.52-1,5.65,5.65,0,0,1,3.51,1A3.29,3.29,0,0,1,95,377.71a3.05,3.05,0,0,1-.56,1.83,4.18,4.18,0,0,1-1.4,1.31q-.9.51-1.83.93t-1.83.75a5.38,5.38,0,0,0-1.4.74,1.25,1.25,0,0,0-.57,1H95Z" fill="#003a50"/><path d="M109.68,421.38l-2.49,1.95v-2.24l2.74-2.27h1.86v11.91h-2.11Z" fill="#003a50"/><path d="M124.18,430.73h-9.94v-1.56a2.8,2.8,0,0,1,.59-1.75,3.87,3.87,0,0,1,1.44-1.19c.5-.26,1.12-.55,1.87-.87s1.32-.55,1.88-.77a4.22,4.22,0,0,0,1.44-.91,1.82,1.82,0,0,0,.57-1.31c0-1.25-.88-1.88-2.66-1.88s-2.68.72-2.68,2.16v.4h-2.11v-.4a3.63,3.63,0,0,1,1.27-3,5.4,5.4,0,0,1,3.51-1,5.7,5.7,0,0,1,3.51,1,3.29,3.29,0,0,1,1.27,2.75,3.17,3.17,0,0,1-.55,1.84,4.28,4.28,0,0,1-1.41,1.3,16.56,16.56,0,0,1-1.83.93q-.94.42-1.83.75a5.26,5.26,0,0,0-1.4.75,1.22,1.22,0,0,0-.57.95h7.63Z" fill="#003a50"/><path d="M126.28,430.59a1,1,0,0,1-.33-.8,1,1,0,0,1,.33-.81,1.4,1.4,0,0,1,1.73,0,1,1,0,0,1,.33.81,1,1,0,0,1-.33.8,1.4,1.4,0,0,1-1.73,0Z" fill="#003a50"/><path d="M139.9,422.17h-2.21s0-.06,0-.17a2.36,2.36,0,0,0-.21-.44,2.69,2.69,0,0,0-.39-.5,1.85,1.85,0,0,0-.71-.41,3,3,0,0,0-1-.16,2.49,2.49,0,0,0-2.15,1,4.39,4.39,0,0,0-.76,2.68h.05a1.8,1.8,0,0,1,.44-.43,3.55,3.55,0,0,1,.61-.37,4.87,4.87,0,0,1,.95-.3,5.49,5.49,0,0,1,1.22-.13,5.05,5.05,0,0,1,3.37,1.11,3.51,3.51,0,0,1,1.3,2.8,3.57,3.57,0,0,1-1.36,2.91,5.49,5.49,0,0,1-3.6,1.1,4.81,4.81,0,0,1-3.87-1.54,6.36,6.36,0,0,1-1.32-4.27v-.41a6.85,6.85,0,0,1,1.32-4.31,4.5,4.5,0,0,1,3.8-1.71,5.66,5.66,0,0,1,2.13.38,3.86,3.86,0,0,1,1.43.93A3.46,3.46,0,0,1,139.9,422.17Zm-2.51,3.15a3.65,3.65,0,0,0-3.95,0,2,2,0,0,0,0,3.15,3.21,3.21,0,0,0,2,.59,3.26,3.26,0,0,0,2-.59,2,2,0,0,0,0-3.15Z" fill="#003a50"/><path d="M306,421.38l-2.48,1.95v-2.24l2.73-2.27h1.86v11.91H306Z" fill="#003a50"/><path d="M312.61,421.38l-2.48,1.95v-2.24l2.73-2.27h1.86v11.91h-2.11Z" fill="#003a50"/><path d="M317.24,430.59a1,1,0,0,1-.32-.8,1.07,1.07,0,0,1,.32-.81,1.25,1.25,0,0,1,.88-.3,1.22,1.22,0,0,1,.86.3,1,1,0,0,1,.32.81,1,1,0,0,1-.32.8,1.22,1.22,0,0,1-.86.3A1.25,1.25,0,0,1,317.24,430.59Z" fill="#003a50"/><path d="M327.35,420.66h-5.82v-1.84h8.86v1.84l-4.52,2.65v.07h1.27a3.87,3.87,0,0,1,2.79,1,3.5,3.5,0,0,1,1.06,2.67,3.32,3.32,0,0,1-1.33,2.82,7,7,0,0,1-7.24,0,3.36,3.36,0,0,1-1.33-2.86v-.32h2.11V427c0,1.37.95,2,2.84,2s2.84-.67,2.84-2-.95-2-2.84-2h-3.26v-1.67l4.57-2.68Z" fill="#003a50"/><path d="M471.81,421.38l-2.48,1.95v-2.24l2.73-2.27h1.86v11.91h-2.11Z" fill="#003a50"/><path d="M486.31,430.73h-9.93v-1.56a2.79,2.79,0,0,1,.58-1.75,3.83,3.83,0,0,1,1.45-1.19c.49-.26,1.12-.55,1.86-.87s1.33-.55,1.88-.77a4.36,4.36,0,0,0,1.45-.91,1.82,1.82,0,0,0,.57-1.31c0-1.25-.89-1.88-2.67-1.88s-2.67.72-2.67,2.16v.4h-2.11v-.4a3.62,3.62,0,0,1,1.26-3,5.44,5.44,0,0,1,3.51-1,5.73,5.73,0,0,1,3.52,1,3.31,3.31,0,0,1,1.27,2.75,3.17,3.17,0,0,1-.56,1.84,4.16,4.16,0,0,1-1.4,1.3,16.7,16.7,0,0,1-1.84.93c-.62.28-1.23.53-1.82.75a5.18,5.18,0,0,0-1.41.75,1.23,1.23,0,0,0-.56.95h7.62Z" fill="#003a50"/><path d="M488.41,430.59a1,1,0,0,1-.32-.8,1.07,1.07,0,0,1,.32-.81,1.41,1.41,0,0,1,1.74,0,1.07,1.07,0,0,1,.32.81,1,1,0,0,1-.32.8,1.41,1.41,0,0,1-1.74,0Z" fill="#003a50"/><path d="M495.52,430.73h-2.35l5.42-10h-6.93v-1.88h9.28v1.88Z" fill="#003a50"/><path d="M576.92,421.38l-2.48,1.95v-2.24l2.73-2.27H579v11.91h-2.11Z" fill="#003a50"/><path d="M590.22,430a6.39,6.39,0,0,1-3.67.93,6.51,6.51,0,0,1-3.69-.93,3,3,0,0,1-1.37-2.56,2.57,2.57,0,0,1,.26-1.17,2.46,2.46,0,0,1,.65-.85,3.89,3.89,0,0,1,1.4-.77l.25-.07v-.09a3.51,3.51,0,0,1-.76-.29,2.61,2.61,0,0,1-.66-.44,2.24,2.24,0,0,1-.54-.76,2.39,2.39,0,0,1-.23-1,2.8,2.8,0,0,1,1.26-2.38,5.74,5.74,0,0,1,3.42-.9,5.81,5.81,0,0,1,3.43.9,2.82,2.82,0,0,1,1.24,2.38A2.5,2.5,0,0,1,591,423a1.87,1.87,0,0,1-.55.74,3.69,3.69,0,0,1-1.19.68l-.23.05v.09l.28.07a4,4,0,0,1,.63.26,5.14,5.14,0,0,1,.77.51,2.82,2.82,0,0,1,.61.82,2.58,2.58,0,0,1,.28,1.2A3,3,0,0,1,590.22,430Zm-5.78-1.35a3.79,3.79,0,0,0,2.1.48,3.94,3.94,0,0,0,2.1-.47,1.6,1.6,0,0,0,0-2.7,4.93,4.93,0,0,0-4.2,0,1.51,1.51,0,0,0-.74,1.35A1.49,1.49,0,0,0,584.44,428.61Zm-.37-6.52a1.38,1.38,0,0,0,.64,1.19,4,4,0,0,0,3.65,0,1.43,1.43,0,0,0,0-2.39,4,4,0,0,0-3.62,0A1.36,1.36,0,0,0,584.07,422.09Z" fill="#003a50"/></g></svg>