<svg id="Слой_1" data-name="Слой 1" xmlns="http://www.w3.org/2000/svg" xmlns:xlink="http://www.w3.org/1999/xlink" viewBox="0 0 581.1 362.83"><defs><clipPath id="clip-path"><polygon points="0 0.21 0 362.62 581.1 362.62 581.1 190.06 493.54 190.06 493.54 134.55 310.45 134.55 310.45 0.21 0 0.21" fill="none"/></clipPath></defs><polygon points="16.7 7.53 16.7 349.55 517.35 352.63 512.91 309.25 512.91 260 512.89 190.06 493.54 190.06 493.54 134.55 492.22 134.55 492.22 135.9 308.72 135.9 308.72 6.51 16.7 7.53" fill="#fff"/><polygon points="506.05 360.81 506.05 361.11 15.74 361.11 15.74 362.62 526.23 362.62 526.23 360.81 506.05 360.81" fill="#fff"/><g clip-path="url(#clip-path)"><rect x="3.38" y="-1263.06" width="1162.95" height="2240.57" fill="none" stroke="#003a50" stroke-miterlimit="10"/><polygon points="15.96 -158.9 15.96 964.65 1153.35 964.65 1153.35 -1250.12 15.96 -1250.28 15.96 -229.61 15.96 -158.9" fill="none" stroke="#003a50" stroke-miterlimit="10"/></g><rect x="36.58" y="215.72" width="4.55" height="87.8" fill="#fff"/><rect x="36.58" y="215.72" width="4.55" height="87.8" fill="none" stroke="#003a50" stroke-miterlimit="10"/><line x1="38.86" y1="303.53" x2="38.86" y2="215.73" fill="none" stroke="#003a50" stroke-miterlimit="10"/><rect x="36.58" y="298.98" width="4.55" height="4.55" fill="#fff"/><rect x="36.58" y="298.98" width="4.55" height="4.55" fill="none" stroke="#003a50" stroke-miterlimit="10"/><rect x="36.58" y="215.72" width="4.55" height="4.55" fill="#fff"/><rect x="36.58" y="215.72" width="4.55" height="4.55" fill="none" stroke="#003a50" stroke-miterlimit="10"/><rect x="36.58" y="256.28" width="4.55" height="4.55" fill="#fff"/><rect x="36.58" y="256.28" width="4.55" height="4.55" fill="none" stroke="#003a50" stroke-miterlimit="10"/><g clip-path="url(#clip-path)"><path d="M41.13,256.28H44c20.15,0,33.1-16.12,33.1-36h-36" fill="none" stroke="#003a50" stroke-miterlimit="10"/></g><rect x="36.58" y="36.48" width="4.55" height="85.42" fill="#fff"/><rect x="36.58" y="36.48" width="4.55" height="85.42" fill="none" stroke="#003a50" stroke-miterlimit="10"/><line x1="38.86" y1="36.47" x2="38.86" y2="121.89" fill="none" stroke="#003a50" stroke-miterlimit="10"/><rect x="36.58" y="36.48" width="4.55" height="4.56" fill="#fff"/><rect x="36.58" y="36.48" width="4.55" height="4.56" fill="none" stroke="#003a50" stroke-miterlimit="10"/><rect x="36.58" y="117.34" width="4.55" height="4.55" fill="#fff"/><rect x="36.58" y="117.34" width="4.55" height="4.55" fill="none" stroke="#003a50" stroke-miterlimit="10"/><rect x="36.58" y="76.79" width="4.55" height="4.55" fill="#fff"/><rect x="36.58" y="76.79" width="4.55" height="4.55" fill="none" stroke="#003a50" stroke-miterlimit="10"/><g clip-path="url(#clip-path)"><path d="M41.13,81.34H44c20.15,0,33.1,16.11,33.1,36h-36" fill="none" stroke="#003a50" stroke-miterlimit="10"/></g><rect x="371.02" y="151.74" width="42.38" height="92.09" fill="none" stroke="#003a50" stroke-miterlimit="10"/><g clip-path="url(#clip-path)"><rect x="375.99" y="155.53" width="32.03" height="84.24" rx="13.7" fill="none" stroke="#003a50" stroke-miterlimit="10"/><path d="M394.29,170.11a2.2,2.2,0,1,0-2.2,2.2A2.2,2.2,0,0,0,394.29,170.11Z" fill="none" stroke="#003a50" stroke-miterlimit="10"/><path d="M458.92,224.15h28.56V201.07H458.92a11.54,11.54,0,0,0,0,23.08Z" fill="none" stroke="#003a50" stroke-miterlimit="10"/></g><rect x="476.4" y="201.07" width="11.08" height="23.08" fill="none" stroke="#003a50" stroke-miterlimit="10"/><g clip-path="url(#clip-path)"><path d="M471.56,157.71a3.4,3.4,0,0,0,3.13-2.1h1.93l5.09,3-2.31,3.76L476.74,161v11.82H465.65V161L463,162.42l-2.31-3.76,5.14-3h2.57A3.45,3.45,0,0,0,471.56,157.71Z" fill="none" stroke="#003a50" stroke-miterlimit="10"/></g><rect x="454.24" y="151.39" width="33.92" height="25.63" fill="none" stroke="#003a50" stroke-miterlimit="10"/><rect x="331.91" y="215.73" width="32.72" height="33.97" fill="none" stroke="#003a50" stroke-miterlimit="10"/><g clip-path="url(#clip-path)"><path d="M352.58,231.19V220.14H344v11.05a3.55,3.55,0,0,0,3.55,3.55H349A3.55,3.55,0,0,0,352.58,231.19Z" fill="none" stroke="#003a50" stroke-miterlimit="10"/></g><polyline points="344.8 245.29 348.28 245.29 351.75 245.29" fill="none" stroke="#003a50" stroke-miterlimit="10"/><line x1="348.28" y1="234.73" x2="348.28" y2="245.29" fill="none" stroke="#003a50" stroke-miterlimit="10"/><rect x="276.63" y="151.31" width="31.88" height="31.88" fill="none" stroke="#003a50" stroke-miterlimit="10"/><g clip-path="url(#clip-path)"><path d="M304.19,174.38a4.35,4.35,0,1,1-4.34-4.35A4.34,4.34,0,0,1,304.19,174.38Z" fill="none" stroke="#003a50" stroke-miterlimit="10"/><path d="M289.68,174.38a4.35,4.35,0,1,1-4.34-4.35A4.34,4.34,0,0,1,289.68,174.38Z" fill="none" stroke="#003a50" stroke-miterlimit="10"/><path d="M304.19,160.23a4.35,4.35,0,1,1-4.34-4.34A4.34,4.34,0,0,1,304.19,160.23Z" fill="none" stroke="#003a50" stroke-miterlimit="10"/><path d="M289.68,160.23a4.35,4.35,0,1,1-4.34-4.34A4.34,4.34,0,0,1,289.68,160.23Z" fill="none" stroke="#003a50" stroke-miterlimit="10"/><rect x="318.32" y="362.78" width="34.02" height="34.02" fill="none" stroke="#003a50" stroke-miterlimit="10"/></g><rect x="86.96" y="160.19" width="102.05" height="17.01" fill="none" stroke="#003a50" stroke-miterlimit="10"/><polygon points="94.99 168.16 137.88 171.68 180.99 168.16 180.99 165.7 94.99 165.7 94.99 168.16" fill="none" stroke="#003a50" stroke-miterlimit="10"/><rect x="86.96" y="183.58" width="102.05" height="17.01" fill="none" stroke="#003a50" stroke-miterlimit="10"/><polygon points="180.99 192.62 138.09 189.09 94.99 192.62 94.99 195.08 180.99 195.08 180.99 192.62" fill="none" stroke="#003a50" stroke-miterlimit="10"/><g clip-path="url(#clip-path)"><rect x="304.47" y="363.2" width="58.79" height="33.59" fill="none" stroke="#003a50" stroke-miterlimit="10"/><rect x="363.26" y="363.2" width="32.72" height="102.57" fill="none" stroke="#003a50" stroke-miterlimit="10"/></g><rect x="267.42" y="149.6" width="64.49" height="33.59" fill="none" stroke="#003a50" stroke-miterlimit="10"/><rect x="331.91" y="147.13" width="32.72" height="102.57" fill="none" stroke="#003a50" stroke-miterlimit="10"/><g clip-path="url(#clip-path)"><path d="M298.49,284.09a1.26,1.26,0,0,1-.95-1.51,13.78,13.78,0,0,0-26.87-6.16,1.26,1.26,0,1,1-2.45-.56A16.3,16.3,0,0,1,300,283.15,1.26,1.26,0,0,1,298.49,284.09Z" fill="none" stroke="#003a50" stroke-miterlimit="10"/><path d="M243.32,274.37a1.26,1.26,0,0,1-1.75.34,13.78,13.78,0,1,0-15.52,22.78,1.26,1.26,0,0,1-1.42,2.08A16.3,16.3,0,0,1,243,272.63,1.25,1.25,0,0,1,243.32,274.37Z" fill="none" stroke="#003a50" stroke-miterlimit="10"/><path d="M240.81,321.78a1.27,1.27,0,0,1,1.34,1.18,13.78,13.78,0,1,0,27.52-1.63,1.25,1.25,0,0,1,1.18-1.33,1.26,1.26,0,0,1,1.33,1.18,16.3,16.3,0,0,1-32.55,1.93A1.26,1.26,0,0,1,240.81,321.78Z" fill="none" stroke="#003a50" stroke-miterlimit="10"/><path d="M284.29,267.48a12.69,12.69,0,0,1,12,15.48l-2,8.88a3.53,3.53,0,0,1-4.24,2.68l-13.44-3.08a23.73,23.73,0,0,0-6-9.44l1-4.2C272.89,271.84,278.17,267.28,284.29,267.48Z" fill="none" stroke="#003a50" stroke-miterlimit="10"/><path d="M241.49,276l2.32,1.6a23.81,23.81,0,0,0-13.64,21.32l-2.52-1.72c-5-3.44-7.4-10-5-15.64A12.7,12.7,0,0,1,241.49,276Z" fill="none" stroke="#003a50" stroke-miterlimit="10"/><path d="M268.33,318.28l.12,2c.36,6.12-3.4,12-9.32,13.48a12.66,12.66,0,0,1-15.88-11.48l-.12-1.84a23.93,23.93,0,0,0,16.64,1.92A23.5,23.5,0,0,0,268.33,318.28Z" fill="none" stroke="#003a50" stroke-miterlimit="10"/><path d="M270.57,282a23.73,23.73,0,0,1,6,9.44,16.51,16.51,0,0,1,.6,2,23.85,23.85,0,0,1-8.84,24.84,23.5,23.5,0,0,1-8.56,4,23.87,23.87,0,0,1-28.92-17.4,22.12,22.12,0,0,1-.68-6,23.81,23.81,0,0,1,13.64-21.32,22.85,22.85,0,0,1,4.48-1.6A23.8,23.8,0,0,1,270.57,282Z" fill="none" stroke="#003a50" stroke-miterlimit="10"/><path d="M289.09,106.17a.94.94,0,0,1,.85.51.9.9,0,0,1-.43,1.22,28,28,0,0,1-23.81,0,.9.9,0,0,1-.43-1.22,1,1,0,0,1,1.27-.42,26,26,0,0,0,22.14,0A1,1,0,0,1,289.09,106.17Z" fill="none" stroke="#003a50" stroke-miterlimit="10"/><path d="M289.09,111.23a.94.94,0,0,1,.85.51.9.9,0,0,1-.43,1.22,28,28,0,0,1-23.81,0,.9.9,0,0,1-.43-1.22,1,1,0,0,1,1.27-.41,26.14,26.14,0,0,0,22.14,0A.86.86,0,0,1,289.09,111.23Z" fill="none" stroke="#003a50" stroke-miterlimit="10"/><path d="M289.09,116.29a.94.94,0,0,1,.85.51.9.9,0,0,1-.43,1.23,28.07,28.07,0,0,1-23.81,0,.9.9,0,0,1-.43-1.22,1,1,0,0,1,1.27-.42,26,26,0,0,0,22.14,0A.86.86,0,0,1,289.09,116.29Z" fill="none" stroke="#003a50" stroke-miterlimit="10"/><path d="M289.09,121.36a.93.93,0,0,1,.85.5.9.9,0,0,1-.43,1.23,28.07,28.07,0,0,1-23.81,0,.9.9,0,0,1-.43-1.22,1,1,0,0,1,1.27-.42,26,26,0,0,0,22.14,0A.85.85,0,0,1,289.09,121.36Z" fill="none" stroke="#003a50" stroke-miterlimit="10"/><path d="M289.09,126.42a.94.94,0,0,1,.85.51.9.9,0,0,1-.43,1.22,28,28,0,0,1-23.81,0,.9.9,0,0,1-.43-1.22,1,1,0,0,1,1.27-.41,26.14,26.14,0,0,0,22.14,0A.86.86,0,0,1,289.09,126.42Z" fill="none" stroke="#003a50" stroke-miterlimit="10"/><path d="M289.09,131.48a.94.94,0,0,1,.85.51.89.89,0,0,1-.43,1.22,28,28,0,0,1-23.81,0,.89.89,0,0,1-.43-1.22,1,1,0,0,1,1.27-.41,26,26,0,0,0,22.14,0A.86.86,0,0,1,289.09,131.48Z" fill="none" stroke="#003a50" stroke-miterlimit="10"/><path d="M289.09,101.1a.94.94,0,0,1,.85.51.9.9,0,0,1-.43,1.23,28.07,28.07,0,0,1-23.81,0,.9.9,0,0,1-.43-1.22,1,1,0,0,1,1.27-.42,26,26,0,0,0,22.14,0A.86.86,0,0,1,289.09,101.1Z" fill="none" stroke="#003a50" stroke-miterlimit="10"/><path d="M289.09,96a.94.94,0,0,1,.85.51.89.89,0,0,1-.43,1.22,28,28,0,0,1-23.81,0,.89.89,0,0,1-.43-1.22,1,1,0,0,1,1.27-.41,26,26,0,0,0,22.14,0A.86.86,0,0,1,289.09,96Z" fill="none" stroke="#003a50" stroke-miterlimit="10"/></g><line x1="277.61" y1="14.04" x2="277.61" y2="144.9" fill="none" stroke="#003a50" stroke-miterlimit="10"/><rect x="261.05" y="13.79" width="32.59" height="130.41" fill="none" stroke="#003a50" stroke-miterlimit="10"/><rect x="413.78" y="151.63" width="73.99" height="25.39" fill="none" stroke="#003a50" stroke-miterlimit="10"/><g clip-path="url(#clip-path)"><rect x="417.81" y="149.91" width="24.4" height="25.04" rx="2.83" fill="none" stroke="#003a50" stroke-miterlimit="10"/><path d="M430,164.35a1.92,1.92,0,1,1,1.91-1.92A1.92,1.92,0,0,1,430,164.35Z" fill="none" stroke="#003a50" stroke-miterlimit="10"/></g><rect x="325.5" y="314.79" width="34.02" height="34.02" fill="none" stroke="#003a50" stroke-miterlimit="10"/><line x1="342.51" y1="341.78" x2="342.51" y2="321.82" fill="none" stroke="#003a50" stroke-miterlimit="10"/><line x1="352.49" y1="331.8" x2="332.53" y2="331.8" fill="none" stroke="#003a50" stroke-miterlimit="10"/><line x1="349.57" y1="338.86" x2="335.46" y2="324.75" fill="none" stroke="#003a50" stroke-miterlimit="10"/><line x1="349.57" y1="324.75" x2="335.46" y2="338.86" fill="none" stroke="#003a50" stroke-miterlimit="10"/><rect x="359.52" y="314.79" width="153.07" height="34.02" fill="none" stroke="#003a50" stroke-miterlimit="10"/><g clip-path="url(#clip-path)"><path d="M376.64,319.62a1,1,0,0,1,1.9-.45,28.77,28.77,0,0,1,0,25.26,1,1,0,0,1-1.8-.88,26.72,26.72,0,0,0,0-23.49A1,1,0,0,1,376.64,319.62Z" fill="none" stroke="#003a50" stroke-miterlimit="10"/><path d="M382.2,319.62a1,1,0,0,1,.56-.9,1,1,0,0,1,1.35.45,28.77,28.77,0,0,1,0,25.26,1,1,0,0,1-1.34.46,1,1,0,0,1-.46-1.34,26.81,26.81,0,0,0,0-23.49A1,1,0,0,1,382.2,319.62Z" fill="none" stroke="#003a50" stroke-miterlimit="10"/><path d="M387.77,319.62a1,1,0,0,1,1.9-.45,28.77,28.77,0,0,1,0,25.26,1,1,0,1,1-1.8-.88,26.72,26.72,0,0,0,0-23.49A1,1,0,0,1,387.77,319.62Z" fill="none" stroke="#003a50" stroke-miterlimit="10"/><path d="M393.33,319.62a1,1,0,0,1,.56-.9,1,1,0,0,1,1.35.45,28.77,28.77,0,0,1,0,25.26,1,1,0,0,1-1.34.46,1,1,0,0,1-.46-1.34,26.81,26.81,0,0,0,0-23.49A1,1,0,0,1,393.33,319.62Z" fill="none" stroke="#003a50" stroke-miterlimit="10"/><path d="M398.9,319.62a1,1,0,0,1,1.9-.45,28.77,28.77,0,0,1,0,25.26,1,1,0,1,1-1.8-.88,26.72,26.72,0,0,0,0-23.49A1,1,0,0,1,398.9,319.62Z" fill="none" stroke="#003a50" stroke-miterlimit="10"/><path d="M404.47,319.62a1,1,0,0,1,.56-.9,1,1,0,0,1,1.34.45,28.77,28.77,0,0,1,0,25.26,1,1,0,1,1-1.8-.88,26.72,26.72,0,0,0,0-23.49A1,1,0,0,1,404.47,319.62Z" fill="none" stroke="#003a50" stroke-miterlimit="10"/><path d="M371.07,319.62a1,1,0,0,1,.56-.9,1,1,0,0,1,1.35.45,28.77,28.77,0,0,1,0,25.26,1,1,0,0,1-1.34.46,1,1,0,0,1-.46-1.34,26.81,26.81,0,0,0,0-23.49A1,1,0,0,1,371.07,319.62Z" fill="none" stroke="#003a50" stroke-miterlimit="10"/><path d="M365.51,319.62a1,1,0,0,1,1.9-.45,28.77,28.77,0,0,1,0,25.26,1,1,0,0,1-1.8-.88,26.72,26.72,0,0,0,0-23.49A1,1,0,0,1,365.51,319.62Z" fill="none" stroke="#003a50" stroke-miterlimit="10"/></g><line x1="359.52" y1="331.8" x2="512.59" y2="331.8" fill="none" stroke="#003a50" stroke-miterlimit="10"/><g clip-path="url(#clip-path)"><path d="M137.94,302.5v41H92.17V300.29h43.56A2.2,2.2,0,0,1,137.94,302.5Z" fill="none" stroke="#003a50" stroke-miterlimit="10"/><path d="M183.81,302.27v41.26H138V302.27a2,2,0,0,1,2-2h41.81A2,2,0,0,1,183.81,302.27Z" fill="none" stroke="#003a50" stroke-miterlimit="10"/><path d="M92.17,300.29a3.11,3.11,0,0,0-3.33-2.83H84.62a3.11,3.11,0,0,0-3.33,2.83v48.19H194.68V300.71a3.11,3.11,0,0,0-3.33-2.83h-4.22a3.11,3.11,0,0,0-3.32,2.83v42.83H92.17Z" fill="none" stroke="#003a50" stroke-miterlimit="10"/></g><rect x="92.17" y="334.28" width="91.64" height="9.25" fill="none" stroke="#003a50" stroke-miterlimit="10"/><rect x="54" y="14.2" width="22.68" height="22.68" fill="none" stroke="#003a50" stroke-miterlimit="10"/><g clip-path="url(#clip-path)"><path d="M71.84,32a9.19,9.19,0,1,1,0-13A9.19,9.19,0,0,1,71.84,32Z" fill="none" stroke="#003a50" stroke-miterlimit="10"/><path d="M72.46,31.34c-1.69-.17-3.41.49-5.06-1.17-2.44-2.44.14-5-2.3-7.45s-5,.13-7.46-2.3" fill="none" stroke="#003a50" stroke-miterlimit="10"/></g><rect x="191.3" y="14.2" width="22.68" height="22.68" fill="none" stroke="#003a50" stroke-miterlimit="10"/><g clip-path="url(#clip-path)"><path d="M209.14,32a9.19,9.19,0,1,1,0-13A9.19,9.19,0,0,1,209.14,32Z" fill="none" stroke="#003a50" stroke-miterlimit="10"/><path d="M209.76,31.34c-1.69-.17-3.41.49-5.06-1.17-2.44-2.44.14-5-2.3-7.45s-5,.13-7.46-2.3" fill="none" stroke="#003a50" stroke-miterlimit="10"/></g><rect x="83" y="14.19" width="102.05" height="113.39" fill="none" stroke="#003a50" stroke-miterlimit="10"/><g clip-path="url(#clip-path)"><path d="M175.05,117.84H93a2.08,2.08,0,0,1-2.09-2.08V48.11h86.22v67.65A2.08,2.08,0,0,1,175.05,117.84Z" fill="none" stroke="#003a50" stroke-miterlimit="10"/><rect x="90.67" y="21.62" width="42.5" height="22.88" rx="1.98" fill="none" stroke="#003a50" stroke-miterlimit="10"/><rect x="134.89" y="21.62" width="42.5" height="22.88" rx="1.98" fill="none" stroke="#003a50" stroke-miterlimit="10"/></g><line x1="177.39" y1="61.97" x2="90.67" y2="61.97" fill="none" stroke="#003a50" stroke-miterlimit="10"/><g clip-path="url(#clip-path)"><path d="M355.48,209.73V186.38a3.35,3.35,0,0,0-3.36-3.35H337.17a3.36,3.36,0,0,0-3.36,3.35v23.35a3.36,3.36,0,0,0,3.36,3.36h14.95A3.35,3.35,0,0,0,355.48,209.73Z" fill="none" stroke="#003a50" stroke-miterlimit="10"/><circle cx="348.44" cy="198.06" r="2.46" transform="translate(-52.09 212.77) rotate(-31.72)" fill="none" stroke="#003a50" stroke-miterlimit="10"/></g><line x1="347.68" y1="198.06" x2="361.3" y2="198.06" fill="none" stroke="#003a50" stroke-miterlimit="10"/><line x1="361.3" y1="191.25" x2="361.3" y2="204.87" fill="none" stroke="#003a50" stroke-miterlimit="10"/><g clip-path="url(#clip-path)"><line x1="118.18" y1="0.71" x2="118.18" y2="-58.74" fill="none" stroke="#003a50" stroke-linecap="round" stroke-linejoin="round" stroke-width="0.96"/><line x1="292.06" y1="0.71" x2="292.06" y2="-58.74" fill="none" stroke="#003a50" stroke-linecap="round" stroke-linejoin="round" stroke-width="0.96"/><line x1="260.45" y1="0.71" x2="260.45" y2="-58.74" fill="none" stroke="#003a50" stroke-linecap="round" stroke-linejoin="round" stroke-width="0.96"/><line x1="133.99" y1="0.71" x2="133.99" y2="-58.74" fill="none" stroke="#003a50" stroke-linecap="round" stroke-linejoin="round" stroke-width="0.96"/><line x1="149.79" y1="0.71" x2="149.79" y2="-58.74" fill="none" stroke="#003a50" stroke-linecap="round" stroke-linejoin="round" stroke-width="0.96"/><line x1="165.6" y1="0.71" x2="165.6" y2="-58.74" fill="none" stroke="#003a50" stroke-linecap="round" stroke-linejoin="round" stroke-width="0.96"/><line x1="181.41" y1="0.71" x2="181.41" y2="-58.74" fill="none" stroke="#003a50" stroke-linecap="round" stroke-linejoin="round" stroke-width="0.96"/><line x1="197.22" y1="0.71" x2="197.22" y2="-58.74" fill="none" stroke="#003a50" stroke-linecap="round" stroke-linejoin="round" stroke-width="0.96"/><line x1="213.03" y1="0.71" x2="213.03" y2="-58.74" fill="none" stroke="#003a50" stroke-linecap="round" stroke-linejoin="round" stroke-width="0.96"/><line x1="228.83" y1="0.71" x2="228.83" y2="-58.74" fill="none" stroke="#003a50" stroke-linecap="round" stroke-linejoin="round" stroke-width="0.96"/><line x1="244.64" y1="0.71" x2="244.64" y2="-58.74" fill="none" stroke="#003a50" stroke-linecap="round" stroke-linejoin="round" stroke-width="0.96"/><line x1="260.45" y1="0.71" x2="260.45" y2="-58.74" fill="none" stroke="#003a50" stroke-linecap="round" stroke-linejoin="round" stroke-width="0.96"/><line x1="276.26" y1="0.71" x2="276.26" y2="-58.74" fill="none" stroke="#003a50" stroke-linecap="round" stroke-linejoin="round" stroke-width="0.96"/><line x1="292.06" y1="0.71" x2="292.06" y2="-58.74" fill="none" stroke="#003a50" stroke-linecap="round" stroke-linejoin="round" stroke-width="0.96"/><line x1="133.99" y1="0.71" x2="133.99" y2="-58.74" fill="none" stroke="#003a50" stroke-linecap="round" stroke-linejoin="round" stroke-width="0.96"/><line x1="149.79" y1="0.71" x2="149.79" y2="-58.74" fill="none" stroke="#003a50" stroke-linecap="round" stroke-linejoin="round" stroke-width="0.96"/><line x1="165.6" y1="0.71" x2="165.6" y2="-58.74" fill="none" stroke="#003a50" stroke-linecap="round" stroke-linejoin="round" stroke-width="0.96"/><line x1="181.41" y1="0.71" x2="181.41" y2="-58.74" fill="none" stroke="#003a50" stroke-linecap="round" stroke-linejoin="round" stroke-width="0.96"/><line x1="197.22" y1="0.71" x2="197.22" y2="-58.74" fill="none" stroke="#003a50" stroke-linecap="round" stroke-linejoin="round" stroke-width="0.96"/><line x1="213.03" y1="0.71" x2="213.03" y2="-58.74" fill="none" stroke="#003a50" stroke-linecap="round" stroke-linejoin="round" stroke-width="0.96"/><line x1="228.83" y1="0.71" x2="228.83" y2="-58.74" fill="none" stroke="#003a50" stroke-linecap="round" stroke-linejoin="round" stroke-width="0.96"/><line x1="244.64" y1="0.71" x2="244.64" y2="-58.74" fill="none" stroke="#003a50" stroke-linecap="round" stroke-linejoin="round" stroke-width="0.96"/><line x1="260.45" y1="0.71" x2="260.45" y2="-58.74" fill="none" stroke="#003a50" stroke-linecap="round" stroke-linejoin="round" stroke-width="0.96"/><line x1="133.99" y1="0.71" x2="133.99" y2="-58.74" fill="none" stroke="#003a50" stroke-linecap="round" stroke-linejoin="round" stroke-width="0.96"/><line x1="149.79" y1="0.71" x2="149.79" y2="-58.74" fill="none" stroke="#003a50" stroke-linecap="round" stroke-linejoin="round" stroke-width="0.96"/><line x1="165.6" y1="0.71" x2="165.6" y2="-58.74" fill="none" stroke="#003a50" stroke-linecap="round" stroke-linejoin="round" stroke-width="0.96"/><line x1="181.41" y1="0.71" x2="181.41" y2="-58.74" fill="none" stroke="#003a50" stroke-linecap="round" stroke-linejoin="round" stroke-width="0.96"/><line x1="197.22" y1="0.71" x2="197.22" y2="-58.74" fill="none" stroke="#003a50" stroke-linecap="round" stroke-linejoin="round" stroke-width="0.96"/><line x1="213.03" y1="0.71" x2="213.03" y2="-58.74" fill="none" stroke="#003a50" stroke-linecap="round" stroke-linejoin="round" stroke-width="0.96"/><line x1="228.83" y1="0.71" x2="228.83" y2="-58.74" fill="none" stroke="#003a50" stroke-linecap="round" stroke-linejoin="round" stroke-width="0.96"/><line x1="244.64" y1="0.71" x2="244.64" y2="-58.74" fill="none" stroke="#003a50" stroke-linecap="round" stroke-linejoin="round" stroke-width="0.96"/><line x1="260.45" y1="0.71" x2="260.45" y2="-58.74" fill="none" stroke="#003a50" stroke-linecap="round" stroke-linejoin="round" stroke-width="0.96"/><line x1="276.26" y1="0.71" x2="276.26" y2="-58.74" fill="none" stroke="#003a50" stroke-linecap="round" stroke-linejoin="round" stroke-width="0.96"/><line x1="133.99" y1="0.71" x2="133.99" y2="-58.74" fill="none" stroke="#003a50" stroke-linecap="round" stroke-linejoin="round" stroke-width="0.96"/><line x1="149.79" y1="0.71" x2="149.79" y2="-58.74" fill="none" stroke="#003a50" stroke-linecap="round" stroke-linejoin="round" stroke-width="0.96"/><line x1="165.6" y1="0.71" x2="165.6" y2="-58.74" fill="none" stroke="#003a50" stroke-linecap="round" stroke-linejoin="round" stroke-width="0.96"/><line x1="181.41" y1="0.71" x2="181.41" y2="-58.74" fill="none" stroke="#003a50" stroke-linecap="round" stroke-linejoin="round" stroke-width="0.96"/><line x1="197.22" y1="0.71" x2="197.22" y2="-58.74" fill="none" stroke="#003a50" stroke-linecap="round" stroke-linejoin="round" stroke-width="0.96"/><line x1="213.03" y1="0.71" x2="213.03" y2="-58.74" fill="none" stroke="#003a50" stroke-linecap="round" stroke-linejoin="round" stroke-width="0.96"/><line x1="228.83" y1="0.71" x2="228.83" y2="-58.74" fill="none" stroke="#003a50" stroke-linecap="round" stroke-linejoin="round" stroke-width="0.96"/><line x1="244.64" y1="0.71" x2="244.64" y2="-58.74" fill="none" stroke="#003a50" stroke-linecap="round" stroke-linejoin="round" stroke-width="0.96"/><line x1="118.18" y1="0.71" x2="118.18" y2="-58.74" fill="none" stroke="#003a50" stroke-linecap="round" stroke-linejoin="round" stroke-width="0.96"/><line x1="292.06" y1="0.71" x2="292.06" y2="-58.74" fill="none" stroke="#003a50" stroke-linecap="round" stroke-linejoin="round" stroke-width="0.96"/><line x1="133.99" y1="0.71" x2="133.99" y2="-58.74" fill="none" stroke="#003a50" stroke-linecap="round" stroke-linejoin="round" stroke-width="0.96"/><line x1="149.79" y1="0.71" x2="149.79" y2="-58.74" fill="none" stroke="#003a50" stroke-linecap="round" stroke-linejoin="round" stroke-width="0.96"/><line x1="165.6" y1="0.71" x2="165.6" y2="-58.74" fill="none" stroke="#003a50" stroke-linecap="round" stroke-linejoin="round" stroke-width="0.96"/><line x1="181.41" y1="0.71" x2="181.41" y2="-58.74" fill="none" stroke="#003a50" stroke-linecap="round" stroke-linejoin="round" stroke-width="0.96"/><line x1="197.22" y1="0.71" x2="197.22" y2="-58.74" fill="none" stroke="#003a50" stroke-linecap="round" stroke-linejoin="round" stroke-width="0.96"/><line x1="213.03" y1="0.71" x2="213.03" y2="-58.74" fill="none" stroke="#003a50" stroke-linecap="round" stroke-linejoin="round" stroke-width="0.96"/><line x1="228.83" y1="0.71" x2="228.83" y2="-58.74" fill="none" stroke="#003a50" stroke-linecap="round" stroke-linejoin="round" stroke-width="0.96"/><line x1="244.64" y1="0.71" x2="244.64" y2="-58.74" fill="none" stroke="#003a50" stroke-linecap="round" stroke-linejoin="round" stroke-width="0.96"/><line x1="260.45" y1="0.71" x2="260.45" y2="-58.74" fill="none" stroke="#003a50" stroke-linecap="round" stroke-linejoin="round" stroke-width="0.96"/><line x1="276.26" y1="0.71" x2="276.26" y2="-58.74" fill="none" stroke="#003a50" stroke-linecap="round" stroke-linejoin="round" stroke-width="0.96"/><line x1="292.06" y1="0.71" x2="292.06" y2="-58.74" fill="none" stroke="#003a50" stroke-linecap="round" stroke-linejoin="round" stroke-width="0.96"/><line x1="133.99" y1="0.71" x2="133.99" y2="-58.74" fill="none" stroke="#003a50" stroke-linecap="round" stroke-linejoin="round" stroke-width="0.96"/><line x1="149.79" y1="0.71" x2="149.79" y2="-58.74" fill="none" stroke="#003a50" stroke-linecap="round" stroke-linejoin="round" stroke-width="0.96"/><line x1="165.6" y1="0.71" x2="165.6" y2="-58.74" fill="none" stroke="#003a50" stroke-linecap="round" stroke-linejoin="round" stroke-width="0.96"/><line x1="181.41" y1="0.71" x2="181.41" y2="-58.74" fill="none" stroke="#003a50" stroke-linecap="round" stroke-linejoin="round" stroke-width="0.96"/><line x1="197.22" y1="0.71" x2="197.22" y2="-58.74" fill="none" stroke="#003a50" stroke-linecap="round" stroke-linejoin="round" stroke-width="0.96"/><line x1="213.03" y1="0.71" x2="213.03" y2="-58.74" fill="none" stroke="#003a50" stroke-linecap="round" stroke-linejoin="round" stroke-width="0.96"/><line x1="228.83" y1="0.71" x2="228.83" y2="-58.74" fill="none" stroke="#003a50" stroke-linecap="round" stroke-linejoin="round" stroke-width="0.96"/><line x1="244.64" y1="0.71" x2="244.64" y2="-58.74" fill="none" stroke="#003a50" stroke-linecap="round" stroke-linejoin="round" stroke-width="0.96"/><line x1="260.45" y1="0.71" x2="260.45" y2="-58.74" fill="none" stroke="#003a50" stroke-linecap="round" stroke-linejoin="round" stroke-width="0.96"/><line x1="276.26" y1="0.71" x2="276.26" y2="-58.74" fill="none" stroke="#003a50" stroke-linecap="round" stroke-linejoin="round" stroke-width="0.96"/><path d="M417.84,246.48v3.07a38.72,38.72,0,0,0,38.72,38.72V246.48" fill="none" stroke="#003a50" stroke-miterlimit="10" stroke-width="1.6"/><path d="M195.68,180.83v-3.58a45.07,45.07,0,0,1,45.06-45.07v48.65" fill="none" stroke="#003a50" stroke-miterlimit="10" stroke-width="1.6"/><path d="M524,259.12h4.06a51.13,51.13,0,0,1,51.13,51.13H524" fill="none" stroke="#003a50" stroke-miterlimit="10" stroke-width="1.6"/><path d="M439.72,6.49V2.3A52.74,52.74,0,0,0,387-50.44V6.49" fill="none" stroke="#003a50" stroke-miterlimit="10" stroke-width="1.6"/><polygon points="51.82 399.34 51.82 303.6 2.49 303.6 14.15 399.34 51.82 399.34" fill="#003a50" fill-rule="evenodd"/><polygon points="51.82 36.48 51.82 -59.27 2.49 -59.27 14.15 36.48 51.82 36.48" fill="#003a50" fill-rule="evenodd"/><rect x="47.82" y="0.12" width="339.98" height="13.79" fill="#003a50"/><rect x="512.9" y="309.24" width="16.32" height="50.48" fill="#003a50"/><rect x="512.9" y="109.91" width="16.32" height="150.09" fill="#003a50"/><rect x="519.15" y="-6.09" width="10.07" height="146.14" fill="#003a50"/><rect x="514.82" y="-76.75" width="14.4" height="90.54" fill="#003a50"/><rect x="484.66" y="357.24" width="13.08" height="108.53" fill="#003a50"/><rect x="347.42" y="-83.25" width="13.79" height="92.72" fill="#003a50"/><rect x="47.82" y="349.09" width="481.33" height="13.79" fill="#003a50"/><rect x="438.72" y="0.12" width="90.5" height="13.79" fill="#003a50"/><rect x="293.74" y="12.25" width="16.74" height="137.8" fill="#003a50"/><rect x="305.28" y="134.53" width="187.71" height="16.78" fill="#003a50"/><rect x="484.66" y="109.91" width="34.5" height="10.81" fill="#003a50"/><rect x="482.75" y="110.68" width="10.81" height="39.38" fill="#003a50"/><rect x="16.22" y="122.37" width="35.6" height="93.25" fill="#003a50"/><rect x="3.49" y="189.72" width="44.33" height="25.9" fill="#003a50"/><rect x="396.1" y="359.39" width="6.38" height="106.38" fill="#003a50"/><rect x="365.15" y="243.73" width="53.52" height="6.38" fill="#003a50"/><rect x="364.56" y="146.72" width="6.38" height="103.38" fill="#003a50"/><rect x="455.72" y="243.73" width="63.43" height="6.38" fill="#003a50"/><rect x="489.32" y="190.06" width="29.83" height="6.38" fill="#003a50"/><rect x="487.2" y="148.7" width="6.38" height="98.21" fill="#003a50"/><rect x="45.49" y="177.2" width="151.03" height="6.38" fill="#003a50"/><rect x="239.99" y="177.2" width="26.25" height="6.38" fill="#003a50"/><rect x="261.05" y="143.62" width="6.38" height="39.96" fill="#003a50"/><rect x="264.63" y="143.62" width="44.1" height="7.69" fill="#003a50"/><rect x="523.24" y="360.81" width="5.98" height="101.5" fill="#003a50"/><line x1="364.64" y1="314.79" x2="364.64" y2="248.41" fill="none" stroke="#003a50" stroke-miterlimit="10" stroke-dasharray="5.67 5.67"/><rect x="482.75" y="14.04" width="6.38" height="95.53" fill="#003a50"/><rect x="370.46" y="9.95" width="6.38" height="105.99" fill="#003a50"/><rect x="373.64" y="109.57" width="148.38" height="6.38" fill="#003a50"/></g><g clip-path="url(#clip-path)"><path d="M30,109.06a4.57,4.57,0,0,1-3.12,1,4.61,4.61,0,0,1-3.12-1,3.63,3.63,0,0,1-1.2-2.88,3.59,3.59,0,0,1,1.2-2.86,4.56,4.56,0,0,1,3.12-1,4.53,4.53,0,0,1,3.12,1,3.59,3.59,0,0,1,1.2,2.86A3.63,3.63,0,0,1,30,109.06Zm-1-4.61a3.5,3.5,0,0,0-2.14-.62,3.52,3.52,0,0,0-2.14.62,2.21,2.21,0,0,0,0,3.47,3.5,3.5,0,0,0,2.14.62,3.5,3.5,0,0,0,2.14-.62,2.21,2.21,0,0,0,0-3.47Z" fill="#003a50"/><path d="M31,100.73a.72.72,0,0,1-.57.23.75.75,0,0,1-.57-.23,1,1,0,0,1,0-1.23.74.74,0,0,1,.57-.22.71.71,0,0,1,.57.22,1,1,0,0,1,0,1.23Z" fill="#003a50"/><path d="M25,91.12v1.56s-.05,0-.13,0a1.38,1.38,0,0,0-.31.15,1.49,1.49,0,0,0-.35.27,1.32,1.32,0,0,0-.29.5,2.3,2.3,0,0,0-.11.71,1.78,1.78,0,0,0,.72,1.52,3.12,3.12,0,0,0,1.9.54v0a1.49,1.49,0,0,1-.31-.31,3.28,3.28,0,0,1-.26-.43,3.14,3.14,0,0,1-.21-.67,4.12,4.12,0,0,1-.09-.86,3.57,3.57,0,0,1,.78-2.38,2.49,2.49,0,0,1,2-.92,2.52,2.52,0,0,1,2.05,1,3.92,3.92,0,0,1,.78,2.55A3.38,3.38,0,0,1,30.1,97a4.5,4.5,0,0,1-3,.93H26.8a4.83,4.83,0,0,1-3-.93,3.21,3.21,0,0,1-1.21-2.69,3.93,3.93,0,0,1,.27-1.5,2.69,2.69,0,0,1,.66-1A2.44,2.44,0,0,1,25,91.12Zm2.22,1.77a2.58,2.58,0,0,0,0,2.79,1.4,1.4,0,0,0,2.22,0,2.22,2.22,0,0,0,.41-1.4,2.26,2.26,0,0,0-.41-1.4,1.31,1.31,0,0,0-1.11-.54A1.3,1.3,0,0,0,27.26,92.89Z" fill="#003a50"/><path d="M30,289.74a4.57,4.57,0,0,1-3.12,1,4.61,4.61,0,0,1-3.12-1,4,4,0,0,1,0-5.74,4.61,4.61,0,0,1,3.12-1A4.57,4.57,0,0,1,30,284a4,4,0,0,1,0,5.74Zm-1-4.61a3.5,3.5,0,0,0-2.14-.61,3.52,3.52,0,0,0-2.14.61,2.05,2.05,0,0,0-.84,1.74,2,2,0,0,0,.84,1.73,3.44,3.44,0,0,0,2.14.62A3.44,3.44,0,0,0,29,288.6a2,2,0,0,0,.84-1.73A2.05,2.05,0,0,0,29,285.13Z" fill="#003a50"/><path d="M31,281.41a.69.69,0,0,1-.57.23.71.71,0,0,1-.57-.23,1,1,0,0,1,0-1.22.75.75,0,0,1,.57-.23.72.72,0,0,1,.57.23,1,1,0,0,1,0,1.22Z" fill="#003a50"/><path d="M25,271.8v1.56s-.05,0-.13,0a1.38,1.38,0,0,0-.31.15,2.33,2.33,0,0,0-.35.27,1.4,1.4,0,0,0-.29.5,2.36,2.36,0,0,0-.11.72,1.76,1.76,0,0,0,.72,1.51,3.12,3.12,0,0,0,1.9.54v0a1.27,1.27,0,0,1-.31-.31,2.73,2.73,0,0,1-.26-.43,3,3,0,0,1-.21-.67,4,4,0,0,1-.09-.86,3.54,3.54,0,0,1,.78-2.37,2.46,2.46,0,0,1,2-.92,2.52,2.52,0,0,1,2.05,1,3.87,3.87,0,0,1,.78,2.54,3.38,3.38,0,0,1-1.09,2.73,4.5,4.5,0,0,1-3,.93H26.8a4.83,4.83,0,0,1-3-.93A3.2,3.2,0,0,1,22.55,275a3.86,3.86,0,0,1,.27-1.5,2.73,2.73,0,0,1,.66-1A2.44,2.44,0,0,1,25,271.8Zm2.22,1.77a2.26,2.26,0,0,0-.41,1.4,2.21,2.21,0,0,0,.41,1.39,1.3,1.3,0,0,0,1.11.55,1.31,1.31,0,0,0,1.11-.54,2.6,2.6,0,0,0,0-2.8,1.3,1.3,0,0,0-1.11-.55A1.32,1.32,0,0,0,27.26,273.57Z" fill="#003a50"/><path d="M103.61,139.35l-2.48,2v-2.25l2.73-2.26h1.86V148.7h-2.11Z" fill="#003a50"/><path d="M114.44,138.63h-5.82v-1.84h8.86v1.84L113,141.28v.07h1.28a3.86,3.86,0,0,1,2.79,1,3.5,3.5,0,0,1,1.06,2.67,3.35,3.35,0,0,1-1.33,2.82,7,7,0,0,1-7.24,0,3.36,3.36,0,0,1-1.33-2.86v-.32h2.11V145c0,1.36.94,2,2.84,2s2.84-.67,2.84-2-1-2-2.84-2h-3.27v-1.67l4.58-2.68Z" fill="#003a50"/><path d="M120.18,148.56a1,1,0,0,1-.33-.8,1,1,0,0,1,.33-.81,1.23,1.23,0,0,1,.87-.3,1.2,1.2,0,0,1,.86.3,1,1,0,0,1,.33.81,1,1,0,0,1-.33.8,1.2,1.2,0,0,1-.86.3A1.23,1.23,0,0,1,120.18,148.56Z" fill="#003a50"/><path d="M130.29,138.63h-5.83v-1.84h8.86v1.84l-4.52,2.65v.07h1.28a3.86,3.86,0,0,1,2.79,1,3.52,3.52,0,0,1,1,2.67,3.32,3.32,0,0,1-1.33,2.82,7,7,0,0,1-7.24,0A3.39,3.39,0,0,1,124,145v-.32h2.11V145c0,1.36,1,2,2.84,2s2.84-.67,2.84-2-.94-2-2.84-2h-3.26v-1.67l4.58-2.68Z" fill="#003a50"/><path d="M426,204.3h-5.82v-1.84H429v1.84L424.48,207V207h1.28a3.87,3.87,0,0,1,2.79,1,3.52,3.52,0,0,1,1.05,2.66,3.33,3.33,0,0,1-1.33,2.83,7,7,0,0,1-7.24,0,3.39,3.39,0,0,1-1.33-2.86v-.32h2.11v.32c0,1.36.95,2,2.84,2s2.84-.67,2.84-2-.94-2-2.84-2h-3.26v-1.67l4.57-2.68Z" fill="#003a50"/><path d="M431.7,214.23a1,1,0,0,1-.32-.8,1.07,1.07,0,0,1,.32-.81,1.25,1.25,0,0,1,.88-.3,1.23,1.23,0,0,1,.86.3,1.07,1.07,0,0,1,.32.81,1,1,0,0,1-.32.8,1.23,1.23,0,0,1-.86.3A1.25,1.25,0,0,1,431.7,214.23Z" fill="#003a50"/><path d="M438.81,214.36h-2.35l5.42-10H435v-1.87h9.29v1.87Z" fill="#003a50"/><path d="M481.37,278.86h-2.11v-2.65h-7v-1.84l6.29-7.42h2.79v7.42H483v1.84h-1.6Zm-2.11-4.49V269h-.06l-4.48,5.28v.05Z" fill="#003a50"/><path d="M484.65,278.73a1,1,0,0,1-.32-.81,1.07,1.07,0,0,1,.32-.81,1.3,1.3,0,0,1,.88-.29,1.26,1.26,0,0,1,.86.29,1,1,0,0,1,.32.81,1,1,0,0,1-.32.81,1.26,1.26,0,0,1-.86.29A1.3,1.3,0,0,1,484.65,278.73Z" fill="#003a50"/><path d="M488.79,275.51H491s0,.07,0,.18a2.71,2.71,0,0,0,.23.43,2.37,2.37,0,0,0,.41.49,2.2,2.2,0,0,0,.75.41,3.21,3.21,0,0,0,1.05.17,2.68,2.68,0,0,0,2.24-1.06,4.34,4.34,0,0,0,.81-2.71h-.06a2,2,0,0,1-.44.46,2.42,2.42,0,0,1-.6.4,3.58,3.58,0,0,1-.95.33,5.43,5.43,0,0,1-1.22.13,5,5,0,0,1-3.36-1.13,3.71,3.71,0,0,1,.05-5.72,5.49,5.49,0,0,1,3.6-1.11,4.81,4.81,0,0,1,3.87,1.55,6.38,6.38,0,0,1,1.32,4.27v.4a6.68,6.68,0,0,1-1.37,4.31,4.69,4.69,0,0,1-3.89,1.71,5.9,5.9,0,0,1-2.16-.37,3.68,3.68,0,0,1-1.48-.95A3.31,3.31,0,0,1,488.79,275.51Zm2.77-3.16a3.6,3.6,0,0,0,3.95,0,1.86,1.86,0,0,0,.78-1.57,1.89,1.89,0,0,0-.77-1.58,3.24,3.24,0,0,0-2-.58,3.14,3.14,0,0,0-2,.58,1.86,1.86,0,0,0-.78,1.58A1.88,1.88,0,0,0,491.56,272.35Z" fill="#003a50"/><path d="M104.17,241.63l-2.48,2v-2.24l2.73-2.27h1.86V251h-2.11Z" fill="#003a50"/><path d="M117.48,250.22a7.73,7.73,0,0,1-7.37,0,3,3,0,0,1-1.37-2.56,2.7,2.7,0,0,1,.26-1.16,2.41,2.41,0,0,1,.65-.86,4.05,4.05,0,0,1,1.4-.77l.26-.06v-.1a3,3,0,0,1-.77-.29,2.61,2.61,0,0,1-.66-.44,2.2,2.2,0,0,1-.54-.75,2.42,2.42,0,0,1-.23-1,2.82,2.82,0,0,1,1.26-2.39,5.81,5.81,0,0,1,3.42-.89,5.89,5.89,0,0,1,3.43.89,2.83,2.83,0,0,1,1.24,2.39,2.43,2.43,0,0,1-.22,1,1.87,1.87,0,0,1-.55.74,3.42,3.42,0,0,1-1.19.68l-.23,0v.1a1.27,1.27,0,0,1,.28.06,6.14,6.14,0,0,1,.63.27,4.09,4.09,0,0,1,.77.5,2.71,2.71,0,0,1,.61.83,2.52,2.52,0,0,1,.28,1.19A3,3,0,0,1,117.48,250.22Zm-5.79-1.36a3.73,3.73,0,0,0,2.1.49,3.84,3.84,0,0,0,2.1-.48,1.59,1.59,0,0,0,0-2.69,4.93,4.93,0,0,0-4.2,0,1.58,1.58,0,0,0,0,2.68Zm-.37-6.51a1.37,1.37,0,0,0,.65,1.19,3.2,3.2,0,0,0,1.82.43,3.24,3.24,0,0,0,1.82-.43,1.43,1.43,0,0,0,0-2.39,3.94,3.94,0,0,0-3.62,0A1.36,1.36,0,0,0,111.32,242.35Z" fill="#003a50"/><path d="M121,250.85a1,1,0,0,1-.33-.81,1,1,0,0,1,.33-.8,1.4,1.4,0,0,1,1.73,0,1,1,0,0,1,.33.8,1,1,0,0,1-.33.81,1.4,1.4,0,0,1-1.73,0Z" fill="#003a50"/><path d="M134.57,242.43h-2.21s0-.06,0-.18a2.94,2.94,0,0,0-.22-.44,2,2,0,0,0-.38-.49,1.86,1.86,0,0,0-.71-.42,3.29,3.29,0,0,0-1-.16,2.52,2.52,0,0,0-2.15,1,4.42,4.42,0,0,0-.77,2.69h.06a1.81,1.81,0,0,1,.44-.44,3.93,3.93,0,0,1,1.56-.67,6.16,6.16,0,0,1,1.22-.12,5.05,5.05,0,0,1,3.37,1.11,3.51,3.51,0,0,1,1.3,2.8,3.56,3.56,0,0,1-1.36,2.9,5.49,5.49,0,0,1-3.6,1.11,4.81,4.81,0,0,1-3.87-1.55,6.36,6.36,0,0,1-1.32-4.27v-.4a6.85,6.85,0,0,1,1.32-4.31,4.5,4.5,0,0,1,3.8-1.71,5.66,5.66,0,0,1,2.13.37,3.87,3.87,0,0,1,1.43.94A3.46,3.46,0,0,1,134.57,242.43Zm-2.51,3.15a3.65,3.65,0,0,0-3.95,0,2,2,0,0,0,0,3.14,3.15,3.15,0,0,0,2,.59,3.2,3.2,0,0,0,2-.59,2,2,0,0,0,0-3.14Z" fill="#003a50"/></g></svg>