<svg id="Слой_1" data-name="Слой 1" xmlns="http://www.w3.org/2000/svg" xmlns:xlink="http://www.w3.org/1999/xlink" viewBox="0 0 586.77 547.09"><defs><clipPath id="clip-path"><polygon points="0.85 0 0.85 480.67 267.93 480.67 267.93 547.09 586.77 547.09 586.77 0 0.85 0" fill="none"/></clipPath></defs><polygon points="581.48 49.72 581.48 367.84 586.77 368.21 586.77 49.72 581.48 49.72" fill="#fff"/><polygon points="49.93 48.78 49.93 471.5 285.25 471.5 285.25 535.75 512.18 535.75 526.98 537.9 524.11 429.9 524.11 382.61 529.08 371.67 574.83 369.78 573.83 48.78 49.93 48.78" fill="#fff"/><polygon points="50.7 473.81 50.7 480.67 267.93 480.67 267.93 547.09 521.92 547.09 522.08 544.88 287.95 534.6 281.06 473.81 50.7 473.81" fill="#fff"/><g clip-path="url(#clip-path)"><rect x="27.76" y="25.42" width="1115.44" height="2194.74" fill="none" stroke="#003a50" stroke-miterlimit="10"/><polygon points="52.58 1111.41 52.58 2197.21 1119.06 2197.21 1119.06 49.87 52.58 49.72 52.58 1042.63 52.58 1111.41" fill="none" stroke="#003a50" stroke-miterlimit="10"/></g><rect x="419.18" y="35.4" width="85.55" height="4.55" fill="#fff"/><rect x="419.18" y="35.4" width="85.55" height="4.55" fill="none" stroke="#003a50" stroke-miterlimit="10"/><line x1="504.72" y1="37.68" x2="419.17" y2="37.68" fill="none" stroke="#003a50" stroke-miterlimit="10"/><rect x="500.4" y="35.4" width="4.32" height="4.55" fill="#fff"/><rect x="500.4" y="35.4" width="4.32" height="4.55" fill="none" stroke="#003a50" stroke-miterlimit="10"/><rect x="419.17" y="35.4" width="4.32" height="4.55" fill="#fff"/><rect x="419.17" y="35.4" width="4.32" height="4.55" fill="none" stroke="#003a50" stroke-miterlimit="10"/><rect x="459.79" y="35.4" width="4.32" height="4.55" fill="#fff"/><rect x="459.79" y="35.4" width="4.32" height="4.55" fill="none" stroke="#003a50" stroke-miterlimit="10"/><rect x="297.65" y="35.4" width="86.94" height="4.55" fill="#fff"/><rect x="297.65" y="35.4" width="86.94" height="4.55" fill="none" stroke="#003a50" stroke-miterlimit="10"/><line x1="384.59" y1="37.68" x2="297.65" y2="37.68" fill="none" stroke="#003a50" stroke-miterlimit="10"/><rect x="380.2" y="35.4" width="4.39" height="4.55" fill="#fff"/><rect x="380.2" y="35.4" width="4.39" height="4.55" fill="none" stroke="#003a50" stroke-miterlimit="10"/><rect x="297.65" y="35.4" width="4.39" height="4.55" fill="#fff"/><rect x="297.65" y="35.4" width="4.39" height="4.55" fill="none" stroke="#003a50" stroke-miterlimit="10"/><rect x="338.92" y="35.4" width="4.39" height="4.55" fill="#fff"/><rect x="338.92" y="35.4" width="4.39" height="4.55" fill="none" stroke="#003a50" stroke-miterlimit="10"/><rect x="37.49" y="305.21" width="4.55" height="88.24" fill="#fff"/><rect x="37.49" y="305.21" width="4.55" height="88.24" fill="none" stroke="#003a50" stroke-miterlimit="10"/><line x1="39.76" y1="305.21" x2="39.76" y2="393.45" fill="none" stroke="#003a50" stroke-miterlimit="10"/><rect x="37.49" y="305.21" width="4.55" height="4.46" fill="#fff"/><rect x="37.49" y="305.21" width="4.55" height="4.46" fill="none" stroke="#003a50" stroke-miterlimit="10"/><rect x="37.49" y="389" width="4.55" height="4.45" fill="#fff"/><rect x="37.49" y="389" width="4.55" height="4.45" fill="none" stroke="#003a50" stroke-miterlimit="10"/><rect x="37.49" y="347.11" width="4.55" height="4.45" fill="#fff"/><rect x="37.49" y="347.11" width="4.55" height="4.45" fill="none" stroke="#003a50" stroke-miterlimit="10"/><rect x="37.49" y="122.74" width="4.55" height="86.28" fill="#fff"/><rect x="37.49" y="122.74" width="4.55" height="86.28" fill="none" stroke="#003a50" stroke-miterlimit="10"/><line x1="39.76" y1="122.74" x2="39.76" y2="209.03" fill="none" stroke="#003a50" stroke-miterlimit="10"/><rect x="37.49" y="122.74" width="4.55" height="4.36" fill="#fff"/><rect x="37.49" y="122.74" width="4.55" height="4.36" fill="none" stroke="#003a50" stroke-miterlimit="10"/><rect x="37.49" y="204.67" width="4.55" height="4.36" fill="#fff"/><rect x="37.49" y="204.67" width="4.55" height="4.36" fill="none" stroke="#003a50" stroke-miterlimit="10"/><rect x="37.49" y="163.71" width="4.55" height="4.36" fill="#fff"/><rect x="37.49" y="163.71" width="4.55" height="4.36" fill="none" stroke="#003a50" stroke-miterlimit="10"/><rect x="61.56" y="35.4" width="140.86" height="4.56" fill="#fff"/><rect x="61.56" y="35.4" width="140.86" height="4.56" fill="none" stroke="#003a50" stroke-miterlimit="10"/><line x1="202.42" y1="37.68" x2="61.56" y2="37.68" fill="none" stroke="#003a50" stroke-miterlimit="10"/><rect x="163.83" y="35.4" width="4.5" height="4.56" fill="#fff"/><rect x="163.83" y="35.4" width="4.5" height="4.56" fill="none" stroke="#003a50" stroke-miterlimit="10"/><rect x="129.74" y="35.4" width="4.5" height="4.56" fill="#fff"/><rect x="129.74" y="35.4" width="4.5" height="4.56" fill="none" stroke="#003a50" stroke-miterlimit="10"/><rect x="197.91" y="35.4" width="4.51" height="4.56" fill="#fff"/><rect x="197.92" y="35.4" width="4.5" height="4.56" fill="none" stroke="#003a50" stroke-miterlimit="10"/><rect x="61.56" y="35.4" width="4.5" height="4.56" fill="#fff"/><rect x="61.56" y="35.4" width="4.5" height="4.56" fill="none" stroke="#003a50" stroke-miterlimit="10"/><rect x="95.65" y="35.4" width="4.5" height="4.56" fill="#fff"/><rect x="95.65" y="35.4" width="4.5" height="4.56" fill="none" stroke="#003a50" stroke-miterlimit="10"/><g clip-path="url(#clip-path)"><path d="M86.94,317.51a1.25,1.25,0,0,1-1.21,1.3,13.79,13.79,0,1,0,1.07,27.55,1.26,1.26,0,1,1,.1,2.51,16.3,16.3,0,1,1-1.27-32.57A1.26,1.26,0,0,1,86.94,317.51Z" fill="none" stroke="#003a50" stroke-miterlimit="10"/><path d="M93.88,355.06a1.26,1.26,0,0,1,.87,1.56,13.78,13.78,0,0,0,26.53,7.49,1.26,1.26,0,0,1,1.56-.87,1.25,1.25,0,0,1,.86,1.56,16.3,16.3,0,0,1-31.37-8.87A1.27,1.27,0,0,1,93.88,355.06Z" fill="none" stroke="#003a50" stroke-miterlimit="10"/><path d="M131.66,359.43a1.25,1.25,0,0,1,1.74-.35,13.79,13.79,0,1,0,15.33-22.92,1.25,1.25,0,0,1-.35-1.74,1.27,1.27,0,0,1,1.75-.35A16.3,16.3,0,0,1,132,361.17,1.25,1.25,0,0,1,131.66,359.43Z" fill="none" stroke="#003a50" stroke-miterlimit="10"/><path d="M148.84,324.86a1.26,1.26,0,0,1,.21-1.77A13.79,13.79,0,1,0,132,301.43a1.26,1.26,0,1,1-1.56-2,16.3,16.3,0,1,1,20.18,25.6A1.26,1.26,0,0,1,148.84,324.86Z" fill="none" stroke="#003a50" stroke-miterlimit="10"/><path d="M120,300.8a1.26,1.26,0,0,1-.85-1.56,13.79,13.79,0,0,0-26.46-7.75,1.25,1.25,0,1,1-2.41-.7A16.3,16.3,0,1,1,121.57,300,1.25,1.25,0,0,1,120,300.8Z" fill="none" stroke="#003a50" stroke-miterlimit="10"/><path d="M96.77,344.82l-9.36.36a12.65,12.65,0,1,1-1-25.28l9-.32a23.7,23.7,0,0,0,1.28,25.24Z" fill="none" stroke="#003a50" stroke-miterlimit="10"/><path d="M122.93,354.06l-2.56,9.08A12.65,12.65,0,0,1,96,356.3l2.6-9.2a23.6,23.6,0,0,0,24.32,7Z" fill="none" stroke="#003a50" stroke-miterlimit="10"/><path d="M151,354.26a12.67,12.67,0,0,1-17.52,3.52l-7.28-4.88a23.88,23.88,0,0,0,13.12-15.24,24.8,24.8,0,0,0,.84-5.84l7.36,4.92A12.63,12.63,0,0,1,151,354.26Z" fill="none" stroke="#003a50" stroke-miterlimit="10"/><path d="M147.81,322.62l-7.72,6.08a23.88,23.88,0,0,0-15.56-20l7.64-6a12.65,12.65,0,1,1,15.64,19.88Z" fill="none" stroke="#003a50" stroke-miterlimit="10"/><path d="M117.89,299.54l-2.28,7.76a23.58,23.58,0,0,0-9.08,2.12l-15.28-4.48a1.21,1.21,0,0,1-.84-1.52l3.08-10.64a12.87,12.87,0,0,1,13.2-9.4A12.67,12.67,0,0,1,117.89,299.54Z" fill="none" stroke="#003a50" stroke-miterlimit="10"/><path d="M140.17,331.82a24.8,24.8,0,0,1-.84,5.84,23.88,23.88,0,0,1-13.12,15.24,24.6,24.6,0,0,1-3.28,1.16,23.6,23.6,0,0,1-24.32-7,25.46,25.46,0,0,1-1.84-2.28,23.7,23.7,0,0,1-1.28-25.24,24,24,0,0,1,11-10.16,23.84,23.84,0,0,1,16.32-1.24c.56.16,1.12.36,1.68.56a23.88,23.88,0,0,1,15.56,20A27.09,27.09,0,0,1,140.17,331.82Z" fill="none" stroke="#003a50" stroke-miterlimit="10"/></g><rect x="314.66" y="504.41" width="72.48" height="29.76" fill="none" stroke="#003a50" stroke-miterlimit="10"/><rect x="52.94" y="433.41" width="230.49" height="34.02" fill="none" stroke="#003a50" stroke-miterlimit="10"/><g clip-path="url(#clip-path)"><path d="M508.23,333.52v28.85h-22.8V333.52a11.4,11.4,0,0,1,22.8,0Z" fill="none" stroke="#003a50" stroke-miterlimit="10"/></g><line x1="485.43" y1="351.14" x2="508.23" y2="351.14" fill="none" stroke="#003a50" stroke-miterlimit="10"/><g clip-path="url(#clip-path)"><path d="M524.12,298.32h23a3.35,3.35,0,0,1,3.36,3.35v22.25a3.36,3.36,0,0,1-3.36,3.36h-23a3.36,3.36,0,0,1-3.36-3.36V301.67A3.35,3.35,0,0,1,524.12,298.32Z" fill="none" stroke="#003a50" stroke-miterlimit="10"/><path d="M533.35,312.8a2.27,2.27,0,1,1,2.27,2.26A2.26,2.26,0,0,1,533.35,312.8Z" fill="none" stroke="#003a50" stroke-miterlimit="10"/><path d="M524.12,331.9h23a3.36,3.36,0,0,1,3.36,3.36v22.25a3.35,3.35,0,0,1-3.36,3.35h-23a3.36,3.36,0,0,1-3.36-3.35V335.26A3.37,3.37,0,0,1,524.12,331.9Z" fill="none" stroke="#003a50" stroke-miterlimit="10"/><path d="M533.35,346.38a2.27,2.27,0,1,1,2.27,2.27A2.26,2.26,0,0,1,533.35,346.38Z" fill="none" stroke="#003a50" stroke-miterlimit="10"/></g><rect x="387.18" y="438.1" width="43.33" height="96.06" fill="none" stroke="#003a50" stroke-miterlimit="10"/><g clip-path="url(#clip-path)"><path d="M392.55,514V458.25a15.93,15.93,0,0,1,15.93-15.93h.73a15.94,15.94,0,0,1,15.94,15.93V514a15.94,15.94,0,0,1-15.94,15.93h-.73A15.93,15.93,0,0,1,392.55,514Z" fill="none" stroke="#003a50" stroke-miterlimit="10"/><path d="M408.85,512.42a2.27,2.27,0,1,1-2.27,2.27A2.27,2.27,0,0,1,408.85,512.42Z" fill="none" stroke="#003a50" stroke-miterlimit="10"/><rect x="379.65" y="546.63" width="41.13" height="98.9" fill="none" stroke="#003a50" stroke-miterlimit="10"/><path d="M343.58,477.54H314.73V454.75h28.85a11.4,11.4,0,1,1,0,22.79Z" fill="none" stroke="#003a50" stroke-miterlimit="10"/></g><line x1="325.96" y1="454.75" x2="325.96" y2="477.54" fill="none" stroke="#003a50" stroke-miterlimit="10"/><g clip-path="url(#clip-path)"><rect x="354.42" y="506.81" width="28.96" height="29.71" rx="3.36" fill="none" stroke="#003a50" stroke-miterlimit="10"/><circle cx="368.9" cy="521.66" r="2.27" transform="translate(-216.7 777.19) rotate(-78.31)" fill="none" stroke="#003a50" stroke-miterlimit="10"/><rect x="420.89" y="546.98" width="37.82" height="26.34" fill="none" stroke="#003a50" stroke-miterlimit="10"/><rect x="426.49" y="544.88" width="25.64" height="26.31" rx="2.97" fill="none" stroke="#003a50" stroke-miterlimit="10"/></g><rect x="314.97" y="504.42" width="34.02" height="28.84" fill="none" stroke="#003a50" stroke-miterlimit="10"/><g clip-path="url(#clip-path)"><path d="M337.28,510.53h-2.11a3.07,3.07,0,0,1-5.72,0h-2.78l-5.29,3,2.53,4,2.38-1.27v10.86h11.37V516.28l2.38,1.27,2.52-4Z" fill="none" stroke="#003a50" stroke-miterlimit="10"/><rect x="458.71" y="547.16" width="30.12" height="25.9" fill="none" stroke="#003a50" stroke-miterlimit="10"/></g><rect x="108.62" y="433.41" width="34.02" height="34.02" fill="none" stroke="#003a50" stroke-miterlimit="10"/><g clip-path="url(#clip-path)"><path d="M138,458a4.69,4.69,0,1,1-4.69-4.7A4.69,4.69,0,0,1,138,458Z" fill="none" stroke="#003a50" stroke-miterlimit="10"/><path d="M122.6,458a4.69,4.69,0,1,1-4.7-4.7A4.69,4.69,0,0,1,122.6,458Z" fill="none" stroke="#003a50" stroke-miterlimit="10"/><path d="M138,442.84a4.69,4.69,0,1,1-4.69-4.7A4.69,4.69,0,0,1,138,442.84Z" fill="none" stroke="#003a50" stroke-miterlimit="10"/><path d="M122.6,442.84a4.69,4.69,0,1,1-4.7-4.7A4.69,4.69,0,0,1,122.6,442.84Z" fill="none" stroke="#003a50" stroke-miterlimit="10"/></g><rect x="218.23" y="433.41" width="34.02" height="34.02" fill="none" stroke="#003a50" stroke-miterlimit="10"/><line x1="235.24" y1="453.17" x2="235.24" y2="463.73" fill="none" stroke="#003a50" stroke-miterlimit="10"/><g clip-path="url(#clip-path)"><path d="M236.15,453.17h-1.82a3.4,3.4,0,0,1-3.4-3.39v-11.2h8.61v11.2A3.39,3.39,0,0,1,236.15,453.17Z" fill="none" stroke="#003a50" stroke-miterlimit="10"/></g><line x1="231.76" y1="463.73" x2="238.71" y2="463.73" fill="none" stroke="#003a50" stroke-miterlimit="10"/><rect x="52.96" y="433.41" width="34.02" height="34.02" fill="none" stroke="#003a50" stroke-miterlimit="10"/><line x1="69.97" y1="460.4" x2="69.97" y2="440.44" fill="none" stroke="#003a50" stroke-miterlimit="10"/><line x1="79.95" y1="450.42" x2="59.99" y2="450.42" fill="none" stroke="#003a50" stroke-miterlimit="10"/><line x1="77.02" y1="457.48" x2="62.91" y2="443.37" fill="none" stroke="#003a50" stroke-miterlimit="10"/><line x1="77.02" y1="443.36" x2="62.91" y2="457.48" fill="none" stroke="#003a50" stroke-miterlimit="10"/><g clip-path="url(#clip-path)"><path d="M192.05,459.06H168.7a3.35,3.35,0,0,1-3.36-3.36V440.75a3.36,3.36,0,0,1,3.36-3.36h23.35a3.37,3.37,0,0,1,3.36,3.36V455.7A3.36,3.36,0,0,1,192.05,459.06Z" fill="none" stroke="#003a50" stroke-miterlimit="10"/><circle cx="180.38" cy="452.02" r="2.46" fill="none" stroke="#003a50" stroke-miterlimit="10"/></g><line x1="180.38" y1="451.27" x2="180.38" y2="464.88" fill="none" stroke="#003a50" stroke-miterlimit="10"/><line x1="173.57" y1="464.88" x2="187.18" y2="464.88" fill="none" stroke="#003a50" stroke-miterlimit="10"/><g clip-path="url(#clip-path)"><rect x="339.11" y="547.32" width="34.02" height="68.03" fill="none" stroke="#003a50" stroke-miterlimit="10"/><rect x="273.9" y="546.63" width="65.21" height="29.22" fill="none" stroke="#003a50" stroke-miterlimit="10"/></g><rect x="437.46" y="502.2" width="56.47" height="30.8" fill="none" stroke="#003a50" stroke-miterlimit="10"/><g clip-path="url(#clip-path)"><path d="M453,506.57a.9.9,0,0,1,1.72-.4,26.06,26.06,0,0,1,0,22.86.91.91,0,1,1-1.63-.8,24.2,24.2,0,0,0,0-21.26A.83.83,0,0,1,453,506.57Z" fill="none" stroke="#003a50" stroke-miterlimit="10"/><path d="M458,506.57a.9.9,0,0,1,1.72-.4,26.06,26.06,0,0,1,0,22.86.91.91,0,1,1-1.63-.8,24.2,24.2,0,0,0,0-21.26A.83.83,0,0,1,458,506.57Z" fill="none" stroke="#003a50" stroke-miterlimit="10"/><path d="M463,506.57a.91.91,0,0,1,1.73-.4,26.06,26.06,0,0,1,0,22.86.91.91,0,1,1-1.63-.8,24.2,24.2,0,0,0,0-21.26A.85.85,0,0,1,463,506.57Z" fill="none" stroke="#003a50" stroke-miterlimit="10"/><path d="M468.07,506.57a.91.91,0,0,1,1.73-.4,26.06,26.06,0,0,1,0,22.86.91.91,0,1,1-1.63-.8,24.2,24.2,0,0,0,0-21.26A.85.85,0,0,1,468.07,506.57Z" fill="none" stroke="#003a50" stroke-miterlimit="10"/><path d="M473.11,506.57a.91.91,0,0,1,1.73-.4,26.06,26.06,0,0,1,0,22.86.91.91,0,1,1-1.63-.8,24.29,24.29,0,0,0,0-21.26A.85.85,0,0,1,473.11,506.57Z" fill="none" stroke="#003a50" stroke-miterlimit="10"/><path d="M478.15,506.57a.91.91,0,0,1,1.73-.4,26.06,26.06,0,0,1,0,22.86.91.91,0,1,1-1.63-.8,24.29,24.29,0,0,0,0-21.26A.85.85,0,0,1,478.15,506.57Z" fill="none" stroke="#003a50" stroke-miterlimit="10"/><path d="M447.92,506.57a.92.92,0,0,1,.51-.82.9.9,0,0,1,1.21.42,26,26,0,0,1,0,22.86.91.91,0,1,1-1.63-.8A24.2,24.2,0,0,0,448,507,1,1,0,0,1,447.92,506.57Z" fill="none" stroke="#003a50" stroke-miterlimit="10"/><path d="M442.88,506.57a.92.92,0,0,1,.51-.82.9.9,0,0,1,1.21.42,26,26,0,0,1,0,22.86.91.91,0,1,1-1.63-.8A24.2,24.2,0,0,0,443,507,1,1,0,0,1,442.88,506.57Z" fill="none" stroke="#003a50" stroke-miterlimit="10"/></g><line x1="437.46" y1="517.6" x2="493.93" y2="517.6" fill="none" stroke="#003a50" stroke-miterlimit="10"/><g clip-path="url(#clip-path)"><rect x="55.61" y="480.79" width="22.68" height="22.68" fill="none" stroke="#003a50" stroke-miterlimit="10"/><path d="M73.45,498.63a9.2,9.2,0,1,1,0-13A9.19,9.19,0,0,1,73.45,498.63Z" fill="none" stroke="#003a50" stroke-miterlimit="10"/><path d="M74.07,497.94c-1.69-.17-3.41.48-5.06-1.18-2.44-2.43.14-5-2.3-7.45s-5,.14-7.46-2.3" fill="none" stroke="#003a50" stroke-miterlimit="10"/><rect x="192.91" y="480.79" width="22.68" height="22.68" fill="none" stroke="#003a50" stroke-miterlimit="10"/><path d="M210.75,498.63a9.2,9.2,0,1,1,0-13A9.19,9.19,0,0,1,210.75,498.63Z" fill="none" stroke="#003a50" stroke-miterlimit="10"/><path d="M211.37,497.94c-1.69-.17-3.41.48-5.06-1.18-2.44-2.43.14-5-2.3-7.45s-5,.14-7.46-2.3" fill="none" stroke="#003a50" stroke-miterlimit="10"/><rect x="84.62" y="480.79" width="102.05" height="113.39" fill="none" stroke="#003a50" stroke-miterlimit="10"/><path d="M176.66,584.44h-82a2.09,2.09,0,0,1-2.09-2.09V514.71h86.22v67.64A2.09,2.09,0,0,1,176.66,584.44Z" fill="none" stroke="#003a50" stroke-miterlimit="10"/><rect x="92.28" y="488.22" width="42.5" height="22.88" rx="1.98" fill="none" stroke="#003a50" stroke-miterlimit="10"/><rect x="136.5" y="488.22" width="42.5" height="22.88" rx="1.98" fill="none" stroke="#003a50" stroke-miterlimit="10"/></g><rect x="300.33" y="234.98" width="79.37" height="34.02" fill="none" stroke="#003a50" stroke-miterlimit="10"/><rect x="320.06" y="275.33" width="34.02" height="87.1" fill="none" stroke="#003a50" stroke-miterlimit="10"/><g clip-path="url(#clip-path)"><path d="M324.89,345.36a1,1,0,0,1-.45-1.9,28.77,28.77,0,0,1,25.26,0,1,1,0,1,1-.88,1.8,26.72,26.72,0,0,0-23.49,0A1,1,0,0,1,324.89,345.36Z" fill="none" stroke="#003a50" stroke-miterlimit="10"/><path d="M324.89,339.8a1,1,0,0,1-.45-1.91,28.77,28.77,0,0,1,25.26,0,1,1,0,0,1,.46,1.34,1,1,0,0,1-1.34.46,26.81,26.81,0,0,0-23.49,0A1,1,0,0,1,324.89,339.8Z" fill="none" stroke="#003a50" stroke-miterlimit="10"/><path d="M324.89,334.23a1,1,0,0,1-.45-1.9,28.77,28.77,0,0,1,25.26,0,1,1,0,1,1-.88,1.8,26.72,26.72,0,0,0-23.49,0A1,1,0,0,1,324.89,334.23Z" fill="none" stroke="#003a50" stroke-miterlimit="10"/><path d="M324.89,328.67a1,1,0,0,1-.45-1.91,28.77,28.77,0,0,1,25.26,0,1,1,0,0,1,.46,1.34,1,1,0,0,1-1.34.46,26.81,26.81,0,0,0-23.49,0A1,1,0,0,1,324.89,328.67Z" fill="none" stroke="#003a50" stroke-miterlimit="10"/><path d="M324.89,323.1a1,1,0,0,1-.45-1.9,28.77,28.77,0,0,1,25.26,0,1,1,0,1,1-.88,1.8,26.72,26.72,0,0,0-23.49,0A1,1,0,0,1,324.89,323.1Z" fill="none" stroke="#003a50" stroke-miterlimit="10"/><path d="M324.89,317.53a1,1,0,0,1-.45-1.9,28.77,28.77,0,0,1,25.26,0,1,1,0,1,1-.88,1.8,26.72,26.72,0,0,0-23.49,0A1,1,0,0,1,324.89,317.53Z" fill="none" stroke="#003a50" stroke-miterlimit="10"/><path d="M324.89,350.93a1,1,0,0,1-.45-1.91,28.77,28.77,0,0,1,25.26,0,1,1,0,0,1,.46,1.34,1,1,0,0,1-1.34.46,26.81,26.81,0,0,0-23.49,0A1,1,0,0,1,324.89,350.93Z" fill="none" stroke="#003a50" stroke-miterlimit="10"/><path d="M324.89,356.49a1,1,0,0,1-.45-1.9,28.77,28.77,0,0,1,25.26,0,1,1,0,1,1-.88,1.8,26.72,26.72,0,0,0-23.49,0A1,1,0,0,1,324.89,356.49Z" fill="none" stroke="#003a50" stroke-miterlimit="10"/></g><line x1="337.07" y1="362.48" x2="337.07" y2="275.33" fill="none" stroke="#003a50" stroke-miterlimit="10"/><rect x="354.08" y="275.19" width="42.37" height="34.02" fill="none" stroke="#003a50" stroke-miterlimit="10"/><g clip-path="url(#clip-path)"><path d="M371.2,280a1,1,0,0,1,1.9-.44,28.77,28.77,0,0,1,0,25.26,1,1,0,0,1-1.8-.89,26.72,26.72,0,0,0,0-23.49A1,1,0,0,1,371.2,280Z" fill="none" stroke="#003a50" stroke-miterlimit="10"/><path d="M376.76,280a1,1,0,0,1,1.91-.44,28.77,28.77,0,0,1,0,25.26,1,1,0,0,1-1.34.45,1,1,0,0,1-.46-1.34,26.81,26.81,0,0,0,0-23.49A1,1,0,0,1,376.76,280Z" fill="none" stroke="#003a50" stroke-miterlimit="10"/><path d="M365.63,280a1,1,0,0,1,1.91-.44,28.77,28.77,0,0,1,0,25.26,1,1,0,0,1-1.34.45,1,1,0,0,1-.46-1.34,26.81,26.81,0,0,0,0-23.49A.87.87,0,0,1,365.63,280Z" fill="none" stroke="#003a50" stroke-miterlimit="10"/><path d="M360.07,280a1,1,0,0,1,1.9-.44,28.77,28.77,0,0,1,0,25.26,1,1,0,0,1-1.8-.89,26.72,26.72,0,0,0,0-23.49A1,1,0,0,1,360.07,280Z" fill="none" stroke="#003a50" stroke-miterlimit="10"/></g><line x1="354.08" y1="292.2" x2="396.45" y2="292.2" fill="none" stroke="#003a50" stroke-miterlimit="10"/><rect x="279.12" y="275.47" width="34.02" height="92.09" fill="none" stroke="#003a50" stroke-miterlimit="10"/><g clip-path="url(#clip-path)"><path d="M283.94,350.5a1,1,0,0,1-.45-1.91,28.77,28.77,0,0,1,25.26,0,1,1,0,0,1,.46,1.34,1,1,0,0,1-1.34.46,26.81,26.81,0,0,0-23.49,0A1,1,0,0,1,283.94,350.5Z" fill="none" stroke="#003a50" stroke-miterlimit="10"/><path d="M283.94,344.93a1,1,0,0,1-.45-1.9,28.77,28.77,0,0,1,25.26,0,1,1,0,0,1-.88,1.8,26.72,26.72,0,0,0-23.49,0A1,1,0,0,1,283.94,344.93Z" fill="none" stroke="#003a50" stroke-miterlimit="10"/><path d="M283.94,339.37a1,1,0,0,1-.45-1.91,28.77,28.77,0,0,1,25.26,0,1,1,0,0,1,.46,1.34,1,1,0,0,1-1.34.46,26.81,26.81,0,0,0-23.49,0A1,1,0,0,1,283.94,339.37Z" fill="none" stroke="#003a50" stroke-miterlimit="10"/><path d="M283.94,333.8a1,1,0,0,1-.45-1.9,28.77,28.77,0,0,1,25.26,0,1,1,0,0,1-.88,1.8,26.72,26.72,0,0,0-23.49,0A1,1,0,0,1,283.94,333.8Z" fill="none" stroke="#003a50" stroke-miterlimit="10"/><path d="M283.94,328.24a1,1,0,0,1-.45-1.91,28.77,28.77,0,0,1,25.26,0,1,1,0,0,1,.46,1.34,1,1,0,0,1-1.34.46,26.81,26.81,0,0,0-23.49,0A1,1,0,0,1,283.94,328.24Z" fill="none" stroke="#003a50" stroke-miterlimit="10"/><path d="M283.94,322.67a1,1,0,0,1-.45-1.9,28.77,28.77,0,0,1,25.26,0,1,1,0,0,1-.88,1.8,26.72,26.72,0,0,0-23.49,0A1,1,0,0,1,283.94,322.67Z" fill="none" stroke="#003a50" stroke-miterlimit="10"/><path d="M283.94,356.06a1,1,0,0,1-.45-1.9,28.77,28.77,0,0,1,25.26,0,1,1,0,0,1-.88,1.8,26.72,26.72,0,0,0-23.49,0A1,1,0,0,1,283.94,356.06Z" fill="none" stroke="#003a50" stroke-miterlimit="10"/><path d="M283.94,361.63a1,1,0,0,1-.45-1.91,28.77,28.77,0,0,1,25.26,0,1,1,0,0,1,.46,1.34,1,1,0,0,1-1.34.46,26.81,26.81,0,0,0-23.49,0A.87.87,0,0,1,283.94,361.63Z" fill="none" stroke="#003a50" stroke-miterlimit="10"/></g><line x1="296.13" y1="367.61" x2="296.13" y2="275.47" fill="none" stroke="#003a50" stroke-miterlimit="10"/><g clip-path="url(#clip-path)"><path d="M317.44,239.8a1,1,0,0,1,1.91-.44,28.77,28.77,0,0,1,0,25.26,1,1,0,0,1-1.34.46,1,1,0,0,1-.46-1.34,26.83,26.83,0,0,0,0-23.5A1,1,0,0,1,317.44,239.8Z" fill="none" stroke="#003a50" stroke-miterlimit="10"/><path d="M323,239.8a1,1,0,0,1,.56-.9,1,1,0,0,1,1.34.46,28.77,28.77,0,0,1,0,25.26,1,1,0,0,1-1.8-.88,26.74,26.74,0,0,0,0-23.5A1,1,0,0,1,323,239.8Z" fill="none" stroke="#003a50" stroke-miterlimit="10"/><path d="M328.58,239.8a1,1,0,0,1,1.9-.44,28.77,28.77,0,0,1,0,25.26,1,1,0,0,1-1.8-.88,26.74,26.74,0,0,0,0-23.5A1,1,0,0,1,328.58,239.8Z" fill="none" stroke="#003a50" stroke-miterlimit="10"/><path d="M334.14,239.8a1,1,0,0,1,.56-.9,1,1,0,0,1,1.34.46,28.77,28.77,0,0,1,0,25.26,1,1,0,1,1-1.8-.88,26.74,26.74,0,0,0,0-23.5A1,1,0,0,1,334.14,239.8Z" fill="none" stroke="#003a50" stroke-miterlimit="10"/><path d="M339.71,239.8a1,1,0,0,1,1.9-.44,28.77,28.77,0,0,1,0,25.26,1,1,0,0,1-1.8-.88,26.74,26.74,0,0,0,0-23.5A1,1,0,0,1,339.71,239.8Z" fill="none" stroke="#003a50" stroke-miterlimit="10"/><path d="M345.27,239.8a1,1,0,0,1,1.91-.44,28.77,28.77,0,0,1,0,25.26,1,1,0,0,1-1.34.46,1,1,0,0,1-.46-1.34,26.83,26.83,0,0,0,0-23.5A.87.87,0,0,1,345.27,239.8Z" fill="none" stroke="#003a50" stroke-miterlimit="10"/><path d="M311.88,239.8a1,1,0,0,1,.56-.9,1,1,0,0,1,1.34.46,28.77,28.77,0,0,1,0,25.26,1,1,0,1,1-1.8-.88,26.74,26.74,0,0,0,0-23.5A1,1,0,0,1,311.88,239.8Z" fill="none" stroke="#003a50" stroke-miterlimit="10"/><path d="M306.31,239.8a1,1,0,0,1,1.91-.44,28.77,28.77,0,0,1,0,25.26,1,1,0,0,1-1.34.46,1,1,0,0,1-.46-1.34,26.83,26.83,0,0,0,0-23.5A1,1,0,0,1,306.31,239.8Z" fill="none" stroke="#003a50" stroke-miterlimit="10"/></g><line x1="300.33" y1="251.99" x2="379.7" y2="251.99" fill="none" stroke="#003a50" stroke-miterlimit="10"/><g clip-path="url(#clip-path)"><path d="M107.72,135.34h-41v45.77h43.25V137.56A2.22,2.22,0,0,0,107.72,135.34Z" fill="none" stroke="#003a50" stroke-miterlimit="10"/><path d="M108,89.47H66.69v45.78H108a2,2,0,0,0,2-2V91.46A2,2,0,0,0,108,89.47Z" fill="none" stroke="#003a50" stroke-miterlimit="10"/><path d="M109.93,181.11a3.11,3.11,0,0,1,2.83,3.33v4.22a3.11,3.11,0,0,1-2.83,3.33H61.74V78.6h47.77a3.11,3.11,0,0,1,2.83,3.33v4.22a3.1,3.1,0,0,1-2.83,3.32H66.69v91.64Z" fill="none" stroke="#003a50" stroke-miterlimit="10"/></g><rect x="66.69" y="89.47" width="9.25" height="91.64" fill="none" stroke="#003a50" stroke-miterlimit="10"/><rect x="202.97" y="50.64" width="17.01" height="224.22" fill="none" stroke="#003a50" stroke-miterlimit="10"/><rect x="396.74" y="95.86" width="17.01" height="101.63" fill="none" stroke="#003a50" stroke-miterlimit="10"/><polygon points="405.78 103.68 408.23 103.68 408.23 189.68 405.78 189.68 402.24 146.68 405.78 103.68" fill="none" stroke="#003a50" stroke-miterlimit="10"/><polygon points="210.94 205.75 208.48 205.75 208.48 119.75 210.94 119.75 214.47 162.75 210.94 205.75" fill="none" stroke="#003a50" stroke-miterlimit="10"/><g clip-path="url(#clip-path)"><path d="M259.93,120.66a14.78,14.78,0,0,0,15.93-23.39,1.14,1.14,0,1,0-1.77,1.43,12.47,12.47,0,0,1-14.16,19.5Z" fill="none" stroke="#003a50" stroke-miterlimit="10"/><rect x="225.91" y="66.4" width="34.02" height="84.03" rx="3.31" fill="none" stroke="#003a50" stroke-miterlimit="10"/><path d="M229.63,147.88a1.4,1.4,0,0,0,1.4-1.39V70.34a1.4,1.4,0,0,0-2.8,0v76.15a1.4,1.4,0,0,0,1.4,1.39" fill="none" stroke="#003a50" stroke-miterlimit="10"/><path d="M244.21,80.07a5.5,5.5,0,1,1,0-7.78A5.49,5.49,0,0,1,244.21,80.07Z" fill="none" stroke="#003a50" stroke-miterlimit="10"/><path d="M244.58,79.66c-1-.1-2.05.29-3-.7-1.46-1.46.08-3-1.38-4.47s-3,.09-4.47-1.38" fill="none" stroke="#003a50" stroke-miterlimit="10"/><path d="M259.93,116a10.64,10.64,0,1,0,0-19.6Z" fill="none" stroke="#003a50" stroke-miterlimit="10"/><path d="M233.58,510.4a14.77,14.77,0,0,0-15.92,23.38,1.13,1.13,0,0,0,1.6.18,1.14,1.14,0,0,0,.17-1.61,12.47,12.47,0,0,1,14.15-19.5Z" fill="none" stroke="#003a50" stroke-miterlimit="10"/><rect x="233.58" y="480.62" width="34.02" height="84.03" rx="3.31" fill="none" stroke="#003a50" stroke-miterlimit="10"/><path d="M263.89,483.17a1.4,1.4,0,0,0-1.4,1.4v76.14a1.4,1.4,0,0,0,2.79,0V484.57a1.39,1.39,0,0,0-1.39-1.4" fill="none" stroke="#003a50" stroke-miterlimit="10"/><path d="M233.58,515.11a10.63,10.63,0,1,0,0,19.59Z" fill="none" stroke="#003a50" stroke-miterlimit="10"/></g><rect x="337.44" y="59.87" width="52.33" height="113.67" fill="none" stroke="#003a50" stroke-miterlimit="10"/><g clip-path="url(#clip-path)"><path d="M346.38,163.83h34.05a2.1,2.1,0,0,0,2.1-2.1V94.11H344.28v67.62A2.1,2.1,0,0,0,346.38,163.83Z" fill="none" stroke="#003a50" stroke-miterlimit="10"/></g><rect x="344.28" y="94.11" width="38.26" height="13.85" fill="none" stroke="#003a50" stroke-miterlimit="10"/><g clip-path="url(#clip-path)"><path d="M346.09,67.62h34.3a2.19,2.19,0,0,1,2.2,2.2V88.29a2.2,2.2,0,0,1-2.2,2.21h-34.3a2.21,2.21,0,0,1-2.21-2.21V69.82A2.2,2.2,0,0,1,346.09,67.62Z" fill="none" stroke="#003a50" stroke-miterlimit="10"/></g><rect x="547.82" y="66.67" width="22.68" height="22.68" fill="none" stroke="#003a50" stroke-miterlimit="10"/><g clip-path="url(#clip-path)"><path d="M565.66,84.51a9.19,9.19,0,1,1,0-13A9.19,9.19,0,0,1,565.66,84.51Z" fill="none" stroke="#003a50" stroke-miterlimit="10"/><path d="M566.29,83.82c-1.69-.17-3.41.48-5.07-1.17-2.43-2.44.15-5-2.29-7.46s-5,.14-7.46-2.3" fill="none" stroke="#003a50" stroke-miterlimit="10"/></g><rect x="547.84" y="204.01" width="22.68" height="22.68" fill="none" stroke="#003a50" stroke-miterlimit="10"/><g clip-path="url(#clip-path)"><path d="M565.69,221.85a9.2,9.2,0,1,1,0-13A9.19,9.19,0,0,1,565.69,221.85Z" fill="none" stroke="#003a50" stroke-miterlimit="10"/><path d="M566.31,221.16c-1.69-.17-3.41.49-5.06-1.17-2.44-2.44.14-5-2.3-7.45s-5,.13-7.46-2.31" fill="none" stroke="#003a50" stroke-miterlimit="10"/></g><rect x="457.12" y="95.15" width="113.38" height="102.05" fill="none" stroke="#003a50" stroke-miterlimit="10"/><g clip-path="url(#clip-path)"><path d="M466.85,187.2v-82a2.1,2.1,0,0,1,2.09-2.09h67.64v86.22H468.94A2.09,2.09,0,0,1,466.85,187.2Z" fill="none" stroke="#003a50" stroke-miterlimit="10"/><rect x="540.19" y="102.81" width="22.88" height="42.5" rx="1.98" fill="none" stroke="#003a50" stroke-miterlimit="10"/><rect x="540.19" y="147.04" width="22.88" height="42.5" rx="1.98" fill="none" stroke="#003a50" stroke-miterlimit="10"/></g><line x1="522.73" y1="189.54" x2="522.73" y2="102.81" fill="none" stroke="#003a50" stroke-miterlimit="10"/><rect x="518.36" y="288.75" width="29.48" height="73.78" fill="none" stroke="#003a50" stroke-miterlimit="10"/><rect x="453.92" y="247.11" width="93.07" height="41.64" fill="none" stroke="#003a50" stroke-miterlimit="10"/><g clip-path="url(#clip-path)"><path d="M527.8,283.6H473.12A15.39,15.39,0,0,1,458,268v0a15.38,15.38,0,0,1,15.11-15.64H527.8a15.38,15.38,0,0,1,15.11,15.64v0A15.39,15.39,0,0,1,527.8,283.6Z" fill="none" stroke="#003a50" stroke-miterlimit="10"/><path d="M525.94,267.93a2.19,2.19,0,1,1,2.19,2.27A2.22,2.22,0,0,1,525.94,267.93Z" fill="none" stroke="#003a50" stroke-miterlimit="10"/><path d="M270.74,272.44v-3.07A38.71,38.71,0,0,0,232,230.65v41.79" fill="none" stroke="#003a50" stroke-miterlimit="10" stroke-width="1.6"/><path d="M452.54,339.23h-3.07a38.71,38.71,0,0,1-38.72-38.71h41.79" fill="none" stroke="#003a50" stroke-miterlimit="10" stroke-width="1.6"/><path d="M384.5,436.76v-3.14A39.51,39.51,0,0,0,345,394.11v42.65" fill="none" stroke="#003a50" stroke-miterlimit="10" stroke-width="1.6"/><path d="M527.3,430.67h3.88a48.89,48.89,0,0,0,48.9-48.89H527.3" fill="none" stroke="#003a50" stroke-miterlimit="10" stroke-width="1.6"/><path d="M443.74,366.23v3.37a42.33,42.33,0,0,1-42.33,42.33v-45.7" fill="none" stroke="#003a50" stroke-miterlimit="10" stroke-width="1.6"/><line x1="507.58" y1="429.13" x2="453.09" y2="429.13" fill="none" stroke="#003a50" stroke-miterlimit="10" stroke-width="1.6"/><polygon points="52.68 305.25 52.68 209.51 3.35 209.51 15.01 305.25 52.68 305.25" fill="#003a50" fill-rule="evenodd"/><polygon points="504.7 50.09 600.44 50.09 600.44 0.76 504.7 12.42 504.7 50.09" fill="#003a50" fill-rule="evenodd"/><rect x="6.68" y="24.51" width="46" height="97.74" fill="#003a50"/><rect x="10.68" y="24.51" width="50.83" height="25.57" fill="#003a50"/><rect x="202.68" y="2.25" width="95" height="47.83" fill="#003a50"/><rect x="384.77" y="2.25" width="34.46" height="47.83" fill="#003a50"/><rect x="210.68" y="6.25" width="77.33" height="50" fill="#003a50"/><rect x="515.99" y="28.92" width="77.33" height="27.33" fill="#003a50"/><rect x="4.68" y="4.25" width="25.83" height="25" fill="#003a50"/><rect x="13.68" y="393.68" width="39" height="94.57" fill="#003a50"/><rect x="4.34" y="393.68" width="44.33" height="25.9" fill="#003a50"/><rect x="38.51" y="466.92" width="249.5" height="13.79" fill="#003a50"/><rect x="278.18" y="533.25" width="249.5" height="13.79" fill="#003a50"/><rect x="513.68" y="534.18" width="16.81" height="126.44" fill="#003a50"/><rect x="494.18" y="433.9" width="11.67" height="106.25" fill="#003a50"/><rect x="494.18" y="433.15" width="36.31" height="11.67" fill="#003a50"/><rect x="514.34" y="362.61" width="142" height="16.69" fill="#003a50"/><rect x="570.8" y="51.89" width="16.32" height="314.78" fill="#003a50"/><rect x="379.14" y="192.25" width="16.32" height="82.94" fill="#003a50"/><rect x="272.8" y="466.92" width="15.21" height="80.12" fill="#003a50"/><rect x="447.17" y="338.39" width="6.38" height="28.28" fill="#003a50"/><rect x="269.91" y="268.81" width="120.92" height="6.38" fill="#003a50"/><rect x="219.91" y="268.81" width="12.94" height="6.38" fill="#003a50"/><rect x="585.6" y="246.92" width="70.74" height="6.38" fill="#003a50"/><rect x="585.6" y="278.53" width="25.64" height="6.38" fill="#003a50"/><rect x="546.99" y="326.4" width="25.64" height="6.38" fill="#003a50"/><rect x="545.73" y="244.57" width="6.38" height="124.41" fill="#003a50"/><rect x="447.17" y="244.22" width="6.38" height="57.12" fill="#003a50"/><rect x="442.91" y="362.61" width="91.5" height="6.38" fill="#003a50"/><rect x="313.41" y="362.61" width="88.83" height="6.38" fill="#003a50"/><rect x="313.41" y="272.44" width="6.38" height="94.76" fill="#003a50"/><rect x="219.91" y="48.49" width="6.38" height="222.42" fill="#003a50"/><rect x="390.08" y="48.49" width="6.38" height="226.7" fill="#003a50"/><rect x="383.66" y="433.13" width="59.1" height="6.38" fill="#003a50"/><rect x="480.79" y="433.13" width="18.35" height="6.38" fill="#003a50"/><rect x="283.08" y="433.13" width="62.74" height="6.38" fill="#003a50"/><rect x="308.08" y="438.39" width="6.38" height="99.52" fill="#003a50"/><rect x="430.83" y="438.39" width="6.38" height="99.52" fill="#003a50"/><rect x="283.08" y="438.39" width="6.38" height="99.52" fill="#003a50"/><rect x="287.01" y="455.2" width="26.4" height="6.38" fill="#003a50"/><rect x="524.11" y="429.91" width="6.38" height="107.23" fill="#003a50"/><rect x="524.11" y="368.98" width="6.38" height="13.63" fill="#003a50"/><rect x="373.16" y="542.87" width="6.38" height="108.39" fill="#003a50"/><rect x="488.42" y="544.11" width="6.38" height="104.88" fill="#003a50"/><line x1="313.41" y1="443.22" x2="313.41" y2="440.38" fill="none" stroke="#003a50" stroke-miterlimit="10"/><line x1="313.41" y1="434.88" x2="313.41" y2="371.59" fill="none" stroke="#003a50" stroke-miterlimit="10" stroke-dasharray="5.5 5.5"/><line x1="313.41" y1="368.84" x2="313.41" y2="366" fill="none" stroke="#003a50" stroke-miterlimit="10"/><line x1="389.32" y1="240.99" x2="392.15" y2="240.99" fill="none" stroke="#003a50" stroke-miterlimit="10"/><line x1="398.02" y1="240.99" x2="488.98" y2="240.99" fill="none" stroke="#003a50" stroke-miterlimit="10" stroke-dasharray="5.87 5.87"/><line x1="491.91" y1="240.99" x2="494.75" y2="240.99" fill="none" stroke="#003a50" stroke-miterlimit="10"/><rect x="267.53" y="473.81" width="6.38" height="102.03" fill="#003a50"/><rect x="447.17" y="240.3" width="125.47" height="6.38" fill="#003a50"/></g><g clip-path="url(#clip-path)"><path d="M450.2,214.29l-2.48,2V214l2.73-2.27h1.86v11.91H450.2Z" fill="#003a50"/><path d="M456.83,214.29l-2.49,2V214l2.74-2.27h1.86v11.91h-2.11Z" fill="#003a50"/><path d="M461.46,223.51a1.17,1.17,0,0,1,0-1.61,1.41,1.41,0,0,1,1.74,0,1.17,1.17,0,0,1,0,1.61,1.41,1.41,0,0,1-1.74,0Z" fill="#003a50"/><path d="M467.37,214.29l-2.49,2V214l2.74-2.27h1.86v11.91h-2.11Z" fill="#003a50"/><path d="M462.29,310.47h-5.82v-1.84h8.86v1.84l-4.52,2.65v.06h1.28a3.87,3.87,0,0,1,2.79,1,3.52,3.52,0,0,1,1.05,2.66,3.33,3.33,0,0,1-1.33,2.83,7,7,0,0,1-7.24,0,3.39,3.39,0,0,1-1.33-2.86v-.32h2.11v.32c0,1.36.95,2,2.84,2s2.84-.67,2.84-2-.94-2-2.84-2h-3.26v-1.67l4.57-2.68Z" fill="#003a50"/><path d="M468,320.4a1,1,0,0,1-.32-.8,1.07,1.07,0,0,1,.32-.81,1.25,1.25,0,0,1,.88-.3,1.23,1.23,0,0,1,.86.3,1.07,1.07,0,0,1,.32.81,1,1,0,0,1-.32.8,1.23,1.23,0,0,1-.86.3A1.25,1.25,0,0,1,468,320.4Z" fill="#003a50"/><path d="M481.65,312h-2.21s0-.06,0-.17a2.53,2.53,0,0,0-.22-.44,2.4,2.4,0,0,0-.39-.5,1.67,1.67,0,0,0-.71-.41,2.91,2.91,0,0,0-1-.17,2.55,2.55,0,0,0-2.16,1,4.51,4.51,0,0,0-.76,2.69h.06a1.63,1.63,0,0,1,.44-.43,3.55,3.55,0,0,1,.61-.37,3.67,3.67,0,0,1,1-.3,5.41,5.41,0,0,1,1.21-.13,5,5,0,0,1,3.37,1.11,3.52,3.52,0,0,1,1.31,2.8,3.62,3.62,0,0,1-1.36,2.91,5.59,5.59,0,0,1-3.61,1.1,4.81,4.81,0,0,1-3.87-1.54,6.38,6.38,0,0,1-1.32-4.27v-.41a6.85,6.85,0,0,1,1.32-4.31,4.52,4.52,0,0,1,3.81-1.71,5.64,5.64,0,0,1,2.12.37,4,4,0,0,1,1.44.94A3.45,3.45,0,0,1,481.65,312Zm-2.5,3.15a3.67,3.67,0,0,0-4,0,1.86,1.86,0,0,0-.78,1.58,1.89,1.89,0,0,0,.77,1.57,3.63,3.63,0,0,0,4,0,2,2,0,0,0,0-3.15Z" fill="#003a50"/><path d="M371.28,327.34h-2.11v-2.65h-7v-1.85l6.29-7.41h2.79v7.41h1.6v1.85h-1.6Zm-2.11-4.5v-5.32h-.06l-4.48,5.27v0Z" fill="#003a50"/><path d="M374.56,327.2a1,1,0,0,1-.32-.8,1.07,1.07,0,0,1,.32-.81,1.41,1.41,0,0,1,1.74,0,1.07,1.07,0,0,1,.32.81,1,1,0,0,1-.32.8,1.41,1.41,0,0,1-1.74,0Z" fill="#003a50"/><path d="M384.67,317.27h-5.82v-1.84h8.86v1.84l-4.53,2.65V320h1.28a3.9,3.9,0,0,1,2.79,1,3.5,3.5,0,0,1,1.06,2.67,3.35,3.35,0,0,1-1.33,2.82,7,7,0,0,1-7.24,0,3.36,3.36,0,0,1-1.33-2.86v-.32h2.11v.32c0,1.37.94,2,2.84,2s2.84-.67,2.84-2-.95-2-2.84-2h-3.27V320l4.58-2.68Z" fill="#003a50"/><path d="M482.41,409H480.3v-2.65h-7v-1.84l6.29-7.42h2.79v7.42H484v1.84h-1.6Zm-2.11-4.49v-5.33h-.06l-4.48,5.28v0Z" fill="#003a50"/><path d="M485.69,408.88a1.17,1.17,0,0,1,0-1.61,1.25,1.25,0,0,1,.88-.3,1.23,1.23,0,0,1,.86.3,1.17,1.17,0,0,1,0,1.61,1.23,1.23,0,0,1-.86.3A1.25,1.25,0,0,1,485.69,408.88Z" fill="#003a50"/><path d="M498,409h-2.11v-2.65h-7v-1.84l6.3-7.42H498v7.42h1.59v1.84H498Zm-2.11-4.49v-5.33h-.07l-4.48,5.28v0Z" fill="#003a50"/><path d="M270.36,214.29l-2.48,2V214l2.73-2.27h1.86v11.91h-2.11Z" fill="#003a50"/><path d="M277,214.29l-2.49,2V214l2.73-2.27h1.86v11.91H277Z" fill="#003a50"/><path d="M281.62,223.51a1.17,1.17,0,0,1,0-1.61,1.41,1.41,0,0,1,1.74,0,1.17,1.17,0,0,1,0,1.61,1.41,1.41,0,0,1-1.74,0Z" fill="#003a50"/><path d="M295.24,215.09H293s0-.07,0-.18a1.85,1.85,0,0,0-.21-.44,2.69,2.69,0,0,0-.39-.5,2,2,0,0,0-.71-.41,3,3,0,0,0-1-.16,2.49,2.49,0,0,0-2.15,1,4.41,4.41,0,0,0-.76,2.68h.05a1.7,1.7,0,0,1,.45-.43,4.22,4.22,0,0,1,.6-.37,5.11,5.11,0,0,1,.95-.3,6.16,6.16,0,0,1,1.22-.13A5,5,0,0,1,294.4,217a3.48,3.48,0,0,1,1.3,2.79,3.57,3.57,0,0,1-1.36,2.91,5.49,5.49,0,0,1-3.6,1.11,4.81,4.81,0,0,1-3.87-1.55,6.36,6.36,0,0,1-1.32-4.27v-.4a6.88,6.88,0,0,1,1.32-4.32,4.52,4.52,0,0,1,3.8-1.71,5.66,5.66,0,0,1,2.13.38,3.6,3.6,0,0,1,1.43.94A3.44,3.44,0,0,1,295.24,215.09Zm-2.51,3.14a3.65,3.65,0,0,0-4,0,2,2,0,0,0,0,3.15,3.21,3.21,0,0,0,2,.59,3.26,3.26,0,0,0,2-.59,2,2,0,0,0,0-3.15Z" fill="#003a50"/><path d="M115.29,223.64h-9.93v-1.56a2.85,2.85,0,0,1,.58-1.75,4.09,4.09,0,0,1,1.45-1.19c.5-.26,1.12-.54,1.87-.87l1.87-.77a4.12,4.12,0,0,0,1.45-.91,1.81,1.81,0,0,0,.57-1.31c0-1.25-.89-1.88-2.66-1.88s-2.68.72-2.68,2.16V216H105.7v-.41a3.64,3.64,0,0,1,1.26-3,5.45,5.45,0,0,1,3.52-1,5.65,5.65,0,0,1,3.51,1,3.25,3.25,0,0,1,1.27,2.74,3.1,3.1,0,0,1-.56,1.84,4.16,4.16,0,0,1-1.4,1.3,17.49,17.49,0,0,1-1.83.93q-.94.42-1.83.75a5.11,5.11,0,0,0-1.4.75,1.22,1.22,0,0,0-.57,1h7.62Z" fill="#003a50"/><path d="M123.59,213.57h-5.82v-1.84h8.86v1.84l-4.53,2.65v.07h1.28a3.9,3.9,0,0,1,2.79,1,3.5,3.5,0,0,1,1.06,2.67,3.32,3.32,0,0,1-1.33,2.82,6.93,6.93,0,0,1-7.24,0,3.35,3.35,0,0,1-1.33-2.85v-.33h2.11v.33c0,1.36,1,2,2.84,2s2.84-.67,2.84-2-1-2-2.84-2H119v-1.67l4.57-2.68Z" fill="#003a50"/><path d="M129.33,223.51a1.17,1.17,0,0,1,0-1.61,1.23,1.23,0,0,1,.87-.3,1.2,1.2,0,0,1,.86.3,1.15,1.15,0,0,1,0,1.61,1.2,1.2,0,0,1-.86.3A1.23,1.23,0,0,1,129.33,223.51Z" fill="#003a50"/><path d="M143,215.09h-2.21s0-.07,0-.18a2.36,2.36,0,0,0-.21-.44,2.69,2.69,0,0,0-.39-.5,2,2,0,0,0-.71-.41,3,3,0,0,0-1-.16,2.49,2.49,0,0,0-2.15,1,4.41,4.41,0,0,0-.76,2.68h.05a1.8,1.8,0,0,1,.44-.43,5,5,0,0,1,.61-.37,5.11,5.11,0,0,1,1-.3,6.16,6.16,0,0,1,1.22-.13,5,5,0,0,1,3.37,1.12,3.48,3.48,0,0,1,1.3,2.79,3.57,3.57,0,0,1-1.36,2.91,5.49,5.49,0,0,1-3.6,1.11,4.81,4.81,0,0,1-3.87-1.55,6.36,6.36,0,0,1-1.32-4.27v-.4a6.88,6.88,0,0,1,1.32-4.32,4.52,4.52,0,0,1,3.8-1.71,5.66,5.66,0,0,1,2.13.38,3.6,3.6,0,0,1,1.43.94A3.44,3.44,0,0,1,143,215.09Zm-2.51,3.14a3.65,3.65,0,0,0-3.95,0,1.88,1.88,0,0,0-.78,1.58,1.85,1.85,0,0,0,.77,1.57,3.21,3.21,0,0,0,2,.59,3.26,3.26,0,0,0,2-.59,2,2,0,0,0,0-3.15Z" fill="#003a50"/><path d="M139.8,418.46a5.06,5.06,0,0,1,3.34,1.06,4.19,4.19,0,0,1,0,6,5.39,5.39,0,0,1-3.55,1.08,5.84,5.84,0,0,1-3.56-1A3.16,3.16,0,0,1,134.7,423h2.11a1.54,1.54,0,0,0,.7,1.34,3.62,3.62,0,0,0,2,.48,3.15,3.15,0,0,0,2-.57,2.37,2.37,0,0,0,0-3.39,3.25,3.25,0,0,0-2.07-.58,3.58,3.58,0,0,0-1.92.42,1.84,1.84,0,0,0-.7.64l-.05.12H134.7v-6.88h8.88v1.85h-6.77v2.95h.05a2.77,2.77,0,0,1,.4-.3,3.11,3.11,0,0,1,.55-.27A5.6,5.6,0,0,1,139.8,418.46Z" fill="#003a50"/><path d="M146.5,426.31a1,1,0,0,1-.32-.81,1.06,1.06,0,0,1,.32-.8,1.41,1.41,0,0,1,1.74,0,1.06,1.06,0,0,1,.32.8,1,1,0,0,1-.32.81,1.41,1.41,0,0,1-1.74,0Z" fill="#003a50"/><path d="M158.83,426.44h-2.11v-2.65h-7V422l6.29-7.42h2.79V422h1.6v1.84h-1.6ZM156.72,422v-5.32h-.06l-4.48,5.27V422Z" fill="#003a50"/><path d="M466.09,477.3l-2.49,1.95V477l2.73-2.27h1.87v11.91h-2.11Z" fill="#003a50"/><path d="M470.72,486.52a1,1,0,0,1-.32-.81,1,1,0,0,1,.32-.8,1.41,1.41,0,0,1,1.74,0,1.06,1.06,0,0,1,.32.8,1,1,0,0,1-.32.81,1.41,1.41,0,0,1-1.74,0Z" fill="#003a50"/><path d="M483.3,485.89a7.71,7.71,0,0,1-7.36,0,2.94,2.94,0,0,1-1.37-2.56,2.69,2.69,0,0,1,.25-1.16,2.32,2.32,0,0,1,.66-.86,4.11,4.11,0,0,1,1.39-.77l.26-.07v-.09a2.91,2.91,0,0,1-.76-.29,2.88,2.88,0,0,1-.67-.44,2.2,2.2,0,0,1-.54-.75,2.41,2.41,0,0,1-.22-1,2.83,2.83,0,0,1,1.25-2.39,7,7,0,0,1,6.85,0,2.82,2.82,0,0,1,1.25,2.39,2.43,2.43,0,0,1-.22,1,2,2,0,0,1-.55.74,3.54,3.54,0,0,1-1.2.68l-.22.05v.09l.28.07a5.42,5.42,0,0,1,.62.27,4.19,4.19,0,0,1,.78.5,2.88,2.88,0,0,1,.61.83,2.63,2.63,0,0,1,.27,1.19A3,3,0,0,1,483.3,485.89Zm-5.79-1.36a3.83,3.83,0,0,0,2.1.49,3.9,3.9,0,0,0,2.11-.48,1.59,1.59,0,0,0,0-2.69,4.95,4.95,0,0,0-4.21,0,1.58,1.58,0,0,0,0,2.68Zm-.36-6.52a1.37,1.37,0,0,0,.64,1.2,4.09,4.09,0,0,0,3.65,0,1.43,1.43,0,0,0,0-2.4,4,4,0,0,0-3.62,0A1.39,1.39,0,0,0,477.15,478Z" fill="#003a50"/><path d="M362.51,476.59h-5.82v-1.85h8.86v1.85L361,479.24v.06h1.28a3.9,3.9,0,0,1,2.79,1,3.53,3.53,0,0,1,1.06,2.67,3.35,3.35,0,0,1-1.33,2.82,6.93,6.93,0,0,1-7.24,0,3.35,3.35,0,0,1-1.33-2.85v-.33h2.11V483c0,1.36.94,2,2.84,2s2.84-.66,2.84-2-1-2-2.84-2h-3.27v-1.66l4.58-2.69Z" fill="#003a50"/><path d="M368.25,486.52a1,1,0,0,1-.33-.81,1,1,0,0,1,.33-.8,1.4,1.4,0,0,1,1.73,0,1,1,0,0,1,.33.8,1,1,0,0,1-.33.81,1.4,1.4,0,0,1-1.73,0Z" fill="#003a50"/><path d="M380.83,485.89a6.43,6.43,0,0,1-3.68.93,6.5,6.5,0,0,1-3.69-.94,3,3,0,0,1-1.37-2.56,2.7,2.7,0,0,1,.26-1.16,2.32,2.32,0,0,1,.66-.86,4,4,0,0,1,1.39-.77l.26-.07v-.09a3.11,3.11,0,0,1-.77-.29,2.61,2.61,0,0,1-.66-.44,2.2,2.2,0,0,1-.54-.75,2.41,2.41,0,0,1-.22-1,2.81,2.81,0,0,1,1.25-2.39,7,7,0,0,1,6.85,0,2.84,2.84,0,0,1,1.25,2.39,2.58,2.58,0,0,1-.22,1,1.88,1.88,0,0,1-.56.74,3.42,3.42,0,0,1-1.19.68l-.23.05v.09l.29.07a6.35,6.35,0,0,1,.62.27,3.79,3.79,0,0,1,.77.5,2.89,2.89,0,0,1,.62.83,2.63,2.63,0,0,1,.27,1.19A3,3,0,0,1,380.83,485.89ZM375,484.53a4.79,4.79,0,0,0,4.2,0,1.59,1.59,0,0,0,0-2.69,4.93,4.93,0,0,0-4.2,0,1.58,1.58,0,0,0,0,2.68Zm-.36-6.52a1.37,1.37,0,0,0,.64,1.2,3.24,3.24,0,0,0,1.82.43,3.2,3.2,0,0,0,1.82-.43,1.43,1.43,0,0,0,0-2.4,4,4,0,0,0-3.62,0A1.37,1.37,0,0,0,374.68,478Z" fill="#003a50"/></g></svg>