<svg id="Слой_1" data-name="Слой 1" xmlns="http://www.w3.org/2000/svg" xmlns:xlink="http://www.w3.org/1999/xlink" viewBox="0 0 600.95 487.56"><defs><clipPath id="clip-path"><polygon points="0 0.28 0 380.41 18.27 380.41 18.27 487.56 599.81 487.56 599.81 0.28 0 0.28" fill="none"/></clipPath></defs><polygon points="78.92 479.58 79.4 487.56 548.92 487.56 548.92 478.42 78.92 479.58" fill="#fff"/><polygon points="10.16 50.32 10.16 368.44 64.75 372.27 85.02 388.52 85.02 435.78 82.92 478.33 549.08 477.5 548.25 354.59 548.25 283.67 548.25 50.32 10.16 50.32" fill="#fff"/><polygon points="0 49.38 0 370.52 3.5 370.37 2.5 49.38 0 49.38" fill="#fff"/><g clip-path="url(#clip-path)"><rect x="-543.56" y="26.02" width="1115.44" height="2194.74" fill="none" stroke="#003a50" stroke-miterlimit="10"/><polygon points="-518.74 1112.01 -518.74 2197.8 547.73 2197.8 547.73 50.47 -518.74 50.32 -518.74 1043.22 -518.74 1112.01" fill="none" stroke="#003a50" stroke-miterlimit="10"/></g><rect x="28.95" y="36" width="87.83" height="4.55" fill="#fff"/><rect x="28.95" y="36" width="87.83" height="4.55" fill="none" stroke="#003a50" stroke-miterlimit="10"/><line x1="116.78" y1="38.28" x2="28.95" y2="38.28" fill="none" stroke="#003a50" stroke-miterlimit="10"/><rect x="112.35" y="36" width="4.43" height="4.55" fill="#fff"/><rect x="112.35" y="36" width="4.43" height="4.55" fill="none" stroke="#003a50" stroke-miterlimit="10"/><rect x="28.95" y="36" width="4.44" height="4.55" fill="#fff"/><rect x="28.95" y="36" width="4.44" height="4.55" fill="none" stroke="#003a50" stroke-miterlimit="10"/><rect x="70.65" y="36" width="4.43" height="4.55" fill="#fff"/><rect x="70.65" y="36" width="4.43" height="4.55" fill="none" stroke="#003a50" stroke-miterlimit="10"/><rect x="212.35" y="36" width="87.01" height="4.55" fill="#fff"/><rect x="212.35" y="36" width="87.01" height="4.55" fill="none" stroke="#003a50" stroke-miterlimit="10"/><line x1="299.36" y1="38.28" x2="212.35" y2="38.28" fill="none" stroke="#003a50" stroke-miterlimit="10"/><rect x="294.96" y="36" width="4.39" height="4.55" fill="#fff"/><rect x="294.96" y="36" width="4.39" height="4.55" fill="none" stroke="#003a50" stroke-miterlimit="10"/><rect x="212.35" y="36" width="4.39" height="4.55" fill="#fff"/><rect x="212.35" y="36" width="4.39" height="4.55" fill="none" stroke="#003a50" stroke-miterlimit="10"/><rect x="253.66" y="36" width="4.39" height="4.55" fill="#fff"/><rect x="253.66" y="36" width="4.39" height="4.55" fill="none" stroke="#003a50" stroke-miterlimit="10"/><rect x="395.66" y="36" width="88.31" height="4.55" fill="#fff"/><rect x="395.66" y="36" width="88.31" height="4.55" fill="none" stroke="#003a50" stroke-miterlimit="10"/><line x1="483.98" y1="38.28" x2="395.66" y2="38.28" fill="none" stroke="#003a50" stroke-miterlimit="10"/><rect x="479.52" y="36" width="4.46" height="4.55" fill="#fff"/><rect x="479.52" y="36" width="4.46" height="4.55" fill="none" stroke="#003a50" stroke-miterlimit="10"/><rect x="395.66" y="36" width="4.46" height="4.55" fill="#fff"/><rect x="395.66" y="36" width="4.46" height="4.55" fill="none" stroke="#003a50" stroke-miterlimit="10"/><rect x="437.6" y="36" width="4.46" height="4.55" fill="#fff"/><rect x="437.6" y="36" width="4.46" height="4.55" fill="none" stroke="#003a50" stroke-miterlimit="10"/><rect x="558.65" y="102.82" width="4.56" height="86.79" fill="#fff"/><rect x="558.65" y="102.82" width="4.56" height="86.79" fill="none" stroke="#003a50" stroke-miterlimit="10"/><line x1="560.93" y1="189.61" x2="560.93" y2="102.82" fill="none" stroke="#003a50" stroke-miterlimit="10"/><rect x="558.65" y="185.22" width="4.56" height="4.39" fill="#fff"/><rect x="558.65" y="185.23" width="4.56" height="4.38" fill="none" stroke="#003a50" stroke-miterlimit="10"/><rect x="558.65" y="102.82" width="4.56" height="4.38" fill="#fff"/><rect x="558.65" y="102.82" width="4.56" height="4.38" fill="none" stroke="#003a50" stroke-miterlimit="10"/><rect x="558.65" y="144.02" width="4.56" height="4.38" fill="#fff"/><rect x="558.65" y="144.02" width="4.56" height="4.38" fill="none" stroke="#003a50" stroke-miterlimit="10"/><rect x="558.65" y="285.7" width="4.56" height="75.38" fill="#fff"/><rect x="558.65" y="285.7" width="4.56" height="75.38" fill="none" stroke="#003a50" stroke-miterlimit="10"/><line x1="560.93" y1="361.08" x2="560.93" y2="285.7" fill="none" stroke="#003a50" stroke-miterlimit="10"/><rect x="558.65" y="357.28" width="4.56" height="3.8" fill="#fff"/><rect x="558.65" y="357.28" width="4.56" height="3.8" fill="none" stroke="#003a50" stroke-miterlimit="10"/><rect x="558.65" y="285.71" width="4.56" height="3.8" fill="#fff"/><rect x="558.65" y="285.7" width="4.56" height="3.8" fill="none" stroke="#003a50" stroke-miterlimit="10"/><rect x="558.65" y="321.48" width="4.56" height="3.81" fill="#fff"/><rect x="558.65" y="321.49" width="4.56" height="3.81" fill="none" stroke="#003a50" stroke-miterlimit="10"/><rect x="558.65" y="387.95" width="4.56" height="77.57" fill="#fff"/><rect x="558.65" y="387.95" width="4.56" height="77.57" fill="none" stroke="#003a50" stroke-miterlimit="10"/><line x1="560.93" y1="465.52" x2="560.93" y2="387.95" fill="none" stroke="#003a50" stroke-miterlimit="10"/><rect x="558.65" y="461.61" width="4.56" height="3.91" fill="#fff"/><rect x="558.65" y="461.61" width="4.56" height="3.92" fill="none" stroke="#003a50" stroke-miterlimit="10"/><rect x="558.65" y="387.96" width="4.56" height="3.92" fill="#fff"/><rect x="558.65" y="387.96" width="4.56" height="3.92" fill="none" stroke="#003a50" stroke-miterlimit="10"/><rect x="558.65" y="424.78" width="4.56" height="3.91" fill="#fff"/><rect x="558.65" y="424.78" width="4.56" height="3.92" fill="none" stroke="#003a50" stroke-miterlimit="10"/><rect x="344.05" y="64.81" width="16.75" height="102.05" fill="none" stroke="#003a50" stroke-miterlimit="10"/><polygon points="351.89 72.83 355.37 115.73 351.89 158.83 349.48 158.83 349.48 72.83 351.89 72.83" fill="none" stroke="#003a50" stroke-miterlimit="10"/><rect x="427.85" y="195.27" width="113.67" height="52.33" fill="none" stroke="#003a50" stroke-miterlimit="10"/><g clip-path="url(#clip-path)"><path d="M437.55,204.21v34a2.1,2.1,0,0,0,2.1,2.11h67.63V202.11H439.65A2.1,2.1,0,0,0,437.55,204.21Z" fill="none" stroke="#003a50" stroke-miterlimit="10"/></g><rect x="493.42" y="202.11" width="13.85" height="38.26" fill="none" stroke="#003a50" stroke-miterlimit="10"/><g clip-path="url(#clip-path)"><path d="M533.77,203.91v34.31a2.21,2.21,0,0,1-2.2,2.2H513.09a2.21,2.21,0,0,1-2.2-2.2V203.91a2.21,2.21,0,0,1,2.2-2.2h18.48A2.21,2.21,0,0,1,533.77,203.91Z" fill="none" stroke="#003a50" stroke-miterlimit="10"/></g><rect x="234.77" y="448.55" width="103.02" height="25.39" fill="none" stroke="#003a50" stroke-miterlimit="10"/><g clip-path="url(#clip-path)"><rect x="252.62" y="450.61" width="24.4" height="25.04" rx="2.83" fill="none" stroke="#003a50" stroke-miterlimit="10"/><path d="M264.82,461.22a1.91,1.91,0,1,0,1.91,1.91A1.91,1.91,0,0,0,264.82,461.22Z" fill="none" stroke="#003a50" stroke-miterlimit="10"/><rect x="295.35" y="450.61" width="24.4" height="25.04" rx="2.83" fill="none" stroke="#003a50" stroke-miterlimit="10"/><path d="M307.55,461.22a1.91,1.91,0,1,0,1.91,1.91A1.91,1.91,0,0,0,307.55,461.22Z" fill="none" stroke="#003a50" stroke-miterlimit="10"/><rect x="185.77" y="487.23" width="43.96" height="79.58" fill="none" stroke="#003a50" stroke-miterlimit="10"/><rect x="120.62" y="487.45" width="65.14" height="27.38" fill="none" stroke="#003a50" stroke-miterlimit="10"/><path d="M107.1,92.66A1.26,1.26,0,0,1,105.89,94,13.78,13.78,0,1,0,107,121.51a1.26,1.26,0,0,1,.1,2.52,16.3,16.3,0,0,1-1.27-32.58A1.26,1.26,0,0,1,107.1,92.66Z" fill="none" stroke="#003a50" stroke-miterlimit="10"/><path d="M114.05,130.21a1.26,1.26,0,0,1,.86,1.56,13.79,13.79,0,0,0,26.54,7.49,1.26,1.26,0,1,1,2.42.69,16.3,16.3,0,0,1-31.38-8.87A1.27,1.27,0,0,1,114.05,130.21Z" fill="none" stroke="#003a50" stroke-miterlimit="10"/><path d="M151.82,134.58a1.25,1.25,0,0,1,1.74-.35,13.79,13.79,0,1,0,15.33-22.92,1.26,1.26,0,1,1,1.4-2.09,16.3,16.3,0,0,1-18.12,27.1A1.25,1.25,0,0,1,151.82,134.58Z" fill="none" stroke="#003a50" stroke-miterlimit="10"/><path d="M169,100a1.26,1.26,0,0,1,.21-1.77,13.79,13.79,0,1,0-17.06-21.66,1.26,1.26,0,1,1-1.56-2,16.3,16.3,0,1,1,20.18,25.6A1.26,1.26,0,0,1,169,100Z" fill="none" stroke="#003a50" stroke-miterlimit="10"/><path d="M140.18,76a1.26,1.26,0,0,1-.86-1.56,13.79,13.79,0,0,0-26.46-7.75,1.25,1.25,0,1,1-2.41-.7,16.3,16.3,0,1,1,31.29,9.16A1.26,1.26,0,0,1,140.18,76Z" fill="none" stroke="#003a50" stroke-miterlimit="10"/><path d="M116.93,120l-9.36.36a12.65,12.65,0,1,1-1-25.28l9-.32A23.7,23.7,0,0,0,116.93,120Z" fill="none" stroke="#003a50" stroke-miterlimit="10"/><path d="M143.09,129.22l-2.56,9.08a12.65,12.65,0,0,1-24.36-6.84l2.6-9.2a23.6,23.6,0,0,0,24.32,7Z" fill="none" stroke="#003a50" stroke-miterlimit="10"/><path d="M171.17,129.42a12.67,12.67,0,0,1-17.52,3.52l-7.28-4.88a23.88,23.88,0,0,0,13.12-15.24,24.8,24.8,0,0,0,.84-5.84l7.36,4.92A12.63,12.63,0,0,1,171.17,129.42Z" fill="none" stroke="#003a50" stroke-miterlimit="10"/><path d="M168,97.78l-7.72,6.08a23.88,23.88,0,0,0-15.56-20l7.64-6A12.65,12.65,0,1,1,168,97.78Z" fill="none" stroke="#003a50" stroke-miterlimit="10"/><path d="M138.05,74.7l-2.28,7.76a23.58,23.58,0,0,0-9.08,2.12L111.41,80.1a1.21,1.21,0,0,1-.84-1.52l3.08-10.64a12.87,12.87,0,0,1,13.2-9.4A12.67,12.67,0,0,1,138.05,74.7Z" fill="none" stroke="#003a50" stroke-miterlimit="10"/><path d="M160.33,107a24.8,24.8,0,0,1-.84,5.84,23.88,23.88,0,0,1-13.12,15.24,24.6,24.6,0,0,1-3.28,1.16,23.6,23.6,0,0,1-24.32-7,25.46,25.46,0,0,1-1.84-2.28,23.7,23.7,0,0,1-1.28-25.24,24,24,0,0,1,11-10.16A23.84,23.84,0,0,1,143,83.34c.56.16,1.12.36,1.68.56a23.88,23.88,0,0,1,15.56,20A27.09,27.09,0,0,1,160.33,107Z" fill="none" stroke="#003a50" stroke-miterlimit="10"/></g><rect x="16.07" y="51.49" width="34.02" height="196" fill="none" stroke="#003a50" stroke-miterlimit="10"/><g clip-path="url(#clip-path)"><path d="M154,509.25v-23a3.36,3.36,0,0,1,3.36-3.36h22.25a3.35,3.35,0,0,1,3.35,3.36v23a3.35,3.35,0,0,1-3.35,3.36H157.37A3.36,3.36,0,0,1,154,509.25Z" fill="none" stroke="#003a50" stroke-miterlimit="10"/></g><rect x="16.08" y="164.91" width="34.02" height="34.02" fill="none" stroke="#003a50" stroke-miterlimit="10"/><line x1="33.08" y1="183.93" x2="33.08" y2="194.49" fill="none" stroke="#003a50" stroke-miterlimit="10"/><g clip-path="url(#clip-path)"><path d="M34,183.93H32.17a3.39,3.39,0,0,1-3.39-3.39v-11.2h8.6v11.2A3.39,3.39,0,0,1,34,183.93Z" fill="none" stroke="#003a50" stroke-miterlimit="10"/></g><line x1="29.61" y1="194.49" x2="36.55" y2="194.49" fill="none" stroke="#003a50" stroke-miterlimit="10"/><rect x="16.07" y="92" width="34.02" height="34.02" fill="none" stroke="#003a50" stroke-miterlimit="10"/><g clip-path="url(#clip-path)"><path d="M45.49,116.6a4.69,4.69,0,1,1-4.69-4.7A4.69,4.69,0,0,1,45.49,116.6Z" fill="none" stroke="#003a50" stroke-miterlimit="10"/><path d="M30.05,116.6a4.69,4.69,0,1,1-4.69-4.7A4.69,4.69,0,0,1,30.05,116.6Z" fill="none" stroke="#003a50" stroke-miterlimit="10"/><path d="M45.49,101.43a4.69,4.69,0,1,1-4.69-4.7A4.69,4.69,0,0,1,45.49,101.43Z" fill="none" stroke="#003a50" stroke-miterlimit="10"/><path d="M30.05,101.43a4.69,4.69,0,1,1-4.69-4.7A4.69,4.69,0,0,1,30.05,101.43Z" fill="none" stroke="#003a50" stroke-miterlimit="10"/></g><rect x="41.34" y="329.57" width="34.02" height="34.02" fill="none" stroke="#003a50" stroke-miterlimit="10"/><g clip-path="url(#clip-path)"><path d="M63.72,338.27H61.61a3.08,3.08,0,0,1-5.72,0H53.1l-5.28,3,2.53,4L52.73,344v10.85H64.1V344l2.38,1.26,2.52-4Z" fill="none" stroke="#003a50" stroke-miterlimit="10"/></g><rect x="16.07" y="51.24" width="34.02" height="33.41" fill="none" stroke="#003a50" stroke-miterlimit="10"/><line x1="33.08" y1="77.75" x2="33.08" y2="58.14" fill="none" stroke="#003a50" stroke-miterlimit="10"/><line x1="43.06" y1="67.95" x2="23.1" y2="67.95" fill="none" stroke="#003a50" stroke-miterlimit="10"/><line x1="40.14" y1="74.88" x2="26.02" y2="61.01" fill="none" stroke="#003a50" stroke-miterlimit="10"/><line x1="40.14" y1="61.01" x2="26.02" y2="74.88" fill="none" stroke="#003a50" stroke-miterlimit="10"/><g clip-path="url(#clip-path)"><rect x="24.96" y="208.38" width="21.66" height="30.06" rx="3.36" fill="none" stroke="#003a50" stroke-miterlimit="10"/><circle cx="32" cy="223.41" r="2.46" transform="translate(-192.64 245.25) rotate(-87.4)" fill="none" stroke="#003a50" stroke-miterlimit="10"/></g><line x1="32.76" y1="223.41" x2="19.14" y2="223.41" fill="none" stroke="#003a50" stroke-miterlimit="10"/><line x1="19.14" y1="216.6" x2="19.14" y2="230.22" fill="none" stroke="#003a50" stroke-miterlimit="10"/><rect x="367.67" y="50.96" width="34.02" height="113.38" fill="none" stroke="#003a50" stroke-miterlimit="10"/><g clip-path="url(#clip-path)"><path d="M372.49,146.54a1,1,0,0,1-.44-1.91,28.77,28.77,0,0,1,25.26,0,1,1,0,0,1,.45,1.34,1,1,0,0,1-1.34.46,26.81,26.81,0,0,0-23.49,0A.87.87,0,0,1,372.49,146.54Z" fill="none" stroke="#003a50" stroke-miterlimit="10"/><path d="M372.49,141a1,1,0,0,1-.44-1.9,28.77,28.77,0,0,1,25.26,0,1,1,0,0,1-.89,1.8,26.72,26.72,0,0,0-23.49,0A1,1,0,0,1,372.49,141Z" fill="none" stroke="#003a50" stroke-miterlimit="10"/><path d="M372.49,135.41a1,1,0,0,1-.44-1.91,28.77,28.77,0,0,1,25.26,0,1,1,0,0,1,.45,1.34,1,1,0,0,1-1.34.46,26.81,26.81,0,0,0-23.49,0A.87.87,0,0,1,372.49,135.41Z" fill="none" stroke="#003a50" stroke-miterlimit="10"/><path d="M372.49,129.84a1,1,0,0,1-.44-1.9,28.77,28.77,0,0,1,25.26,0,1,1,0,0,1-.89,1.8,26.72,26.72,0,0,0-23.49,0A1,1,0,0,1,372.49,129.84Z" fill="none" stroke="#003a50" stroke-miterlimit="10"/><path d="M372.49,124.28a1,1,0,0,1-.44-1.91,28.77,28.77,0,0,1,25.26,0,1,1,0,0,1,.45,1.34,1,1,0,0,1-1.34.46,26.81,26.81,0,0,0-23.49,0A1,1,0,0,1,372.49,124.28Z" fill="none" stroke="#003a50" stroke-miterlimit="10"/><path d="M372.49,118.71a1,1,0,0,1-.44-1.9,28.77,28.77,0,0,1,25.26,0,1,1,0,0,1-.89,1.8,26.72,26.72,0,0,0-23.49,0A1,1,0,0,1,372.49,118.71Z" fill="none" stroke="#003a50" stroke-miterlimit="10"/><path d="M372.49,152.1a1,1,0,0,1-.9-.56,1,1,0,0,1,.46-1.34,28.77,28.77,0,0,1,25.26,0,1,1,0,0,1-.89,1.8,26.72,26.72,0,0,0-23.49,0A1,1,0,0,1,372.49,152.1Z" fill="none" stroke="#003a50" stroke-miterlimit="10"/><path d="M372.49,157.67a1,1,0,0,1-.44-1.91,28.77,28.77,0,0,1,25.26,0,1,1,0,0,1,.45,1.34,1,1,0,0,1-1.34.46,26.81,26.81,0,0,0-23.49,0A.87.87,0,0,1,372.49,157.67Z" fill="none" stroke="#003a50" stroke-miterlimit="10"/></g><line x1="384.68" y1="163.66" x2="384.68" y2="50.96" fill="none" stroke="#003a50" stroke-miterlimit="10"/><rect x="518.56" y="450.77" width="22.68" height="22.68" fill="none" stroke="#003a50" stroke-miterlimit="10"/><g clip-path="url(#clip-path)"><circle cx="529.9" cy="462.1" r="9.2" fill="none" stroke="#003a50" stroke-miterlimit="10"/><path d="M537,467.91c-1.69-.17-3.41.48-5.06-1.17-2.44-2.44.14-5-2.3-7.45s-5,.13-7.46-2.3" fill="none" stroke="#003a50" stroke-miterlimit="10"/></g><rect x="384.46" y="450.77" width="22.68" height="22.68" fill="none" stroke="#003a50" stroke-miterlimit="10"/><g clip-path="url(#clip-path)"><circle cx="395.8" cy="462.1" r="9.2" fill="none" stroke="#003a50" stroke-miterlimit="10"/><path d="M402.92,467.91c-1.69-.17-3.41.48-5.06-1.17-2.44-2.44.14-5-2.3-7.45s-5,.13-7.46-2.3" fill="none" stroke="#003a50" stroke-miterlimit="10"/><rect x="385.61" y="487.73" width="22.68" height="22.68" fill="none" stroke="#003a50" stroke-miterlimit="10"/><rect x="519.7" y="487.73" width="22.68" height="22.68" fill="none" stroke="#003a50" stroke-miterlimit="10"/><path d="M271.74,150.65v39h40.81v-39a1.91,1.91,0,0,0-1.92-1.91h-37A1.91,1.91,0,0,0,271.74,150.65Z" fill="none" stroke="#003a50" stroke-miterlimit="10"/><path d="M269.82,108.07h-43.4v40.78h43.4a1.92,1.92,0,0,0,1.92-1.92V110A1.92,1.92,0,0,0,269.82,108.07Z" fill="none" stroke="#003a50" stroke-miterlimit="10"/><path d="M269.82,67.28h-43.4v40.78h43.4a1.91,1.91,0,0,0,1.92-1.91V69.2A1.92,1.92,0,0,0,269.82,67.28Z" fill="none" stroke="#003a50" stroke-miterlimit="10"/><path d="M311.81,189.64a3,3,0,0,1,3,3v3.76a3,3,0,0,1-3,3H221.23V57.59h50.06a3,3,0,0,1,3,3v3.76a3,3,0,0,1-3,3H226.42V189.64Z" fill="none" stroke="#003a50" stroke-miterlimit="10"/></g><rect x="226.42" y="67.28" width="9.7" height="122.36" fill="none" stroke="#003a50" stroke-miterlimit="10"/><g clip-path="url(#clip-path)"><path d="M269.6,148.85H226.42v40.78h45.32V151A2.14,2.14,0,0,0,269.6,148.85Z" fill="none" stroke="#003a50" stroke-miterlimit="10"/></g><rect x="343.92" y="65.02" width="17.01" height="101.63" fill="none" stroke="#003a50" stroke-miterlimit="10"/><polygon points="351.89 158.84 349.43 158.84 349.43 72.83 351.89 72.83 355.43 115.83 351.89 158.84" fill="none" stroke="#003a50" stroke-miterlimit="10"/><g clip-path="url(#clip-path)"><path d="M476.8,84.33a14.78,14.78,0,0,0,23.38,15.93,1.13,1.13,0,0,0,.18-1.6,1.14,1.14,0,0,0-1.61-.17,12.47,12.47,0,0,1-19.5-14.16Z" fill="none" stroke="#003a50" stroke-miterlimit="10"/><rect x="447.02" y="50.31" width="84.03" height="34.02" rx="3.31" fill="none" stroke="#003a50" stroke-miterlimit="10"/><path d="M449.57,54a1.4,1.4,0,0,0,1.4,1.4h76.14a1.4,1.4,0,0,0,0-2.8H451a1.4,1.4,0,0,0-1.4,1.4" fill="none" stroke="#003a50" stroke-miterlimit="10"/><path d="M517.38,68.61a5.51,5.51,0,1,1,7.79,0A5.51,5.51,0,0,1,517.38,68.61Z" fill="none" stroke="#003a50" stroke-miterlimit="10"/><path d="M517.79,69c.1-1-.29-2,.7-3,1.46-1.46,3,.08,4.47-1.38s-.08-3,1.38-4.47" fill="none" stroke="#003a50" stroke-miterlimit="10"/><path d="M481.5,84.33a10.64,10.64,0,1,0,19.6,0Z" fill="none" stroke="#003a50" stroke-miterlimit="10"/></g><rect x="411.94" y="360.05" width="102.05" height="113.39" fill="none" stroke="#003a50" stroke-miterlimit="10"/><g clip-path="url(#clip-path)"><path d="M421.94,369.79h82a2.08,2.08,0,0,1,2.09,2.09v67.64H419.85V371.88A2.08,2.08,0,0,1,421.94,369.79Z" fill="none" stroke="#003a50" stroke-miterlimit="10"/><rect x="463.82" y="443.13" width="42.5" height="22.88" rx="1.98" fill="none" stroke="#003a50" stroke-miterlimit="10"/><rect x="419.6" y="443.13" width="42.5" height="22.88" rx="1.98" fill="none" stroke="#003a50" stroke-miterlimit="10"/></g><line x1="419.6" y1="425.66" x2="506.32" y2="425.66" fill="none" stroke="#003a50" stroke-miterlimit="10"/><g clip-path="url(#clip-path)"><rect x="413.08" y="487.73" width="102.05" height="113.38" fill="none" stroke="#003a50" stroke-miterlimit="10"/></g><rect x="41.34" y="253.73" width="34.02" height="75.73" fill="none" stroke="#003a50" stroke-miterlimit="10"/><g clip-path="url(#clip-path)"><path d="M46.16,299.1a1,1,0,0,1-.45-1.9,28.77,28.77,0,0,1,25.26,0,1,1,0,0,1-.88,1.8,26.72,26.72,0,0,0-23.49,0A1,1,0,0,1,46.16,299.1Z" fill="none" stroke="#003a50" stroke-miterlimit="10"/><path d="M46.16,293.54a1,1,0,0,1-.45-1.91,28.77,28.77,0,0,1,25.26,0,1,1,0,0,1,.46,1.34,1,1,0,0,1-1.34.46,26.81,26.81,0,0,0-23.49,0A1,1,0,0,1,46.16,293.54Z" fill="none" stroke="#003a50" stroke-miterlimit="10"/><path d="M46.16,288a1,1,0,0,1-.45-1.9,28.77,28.77,0,0,1,25.26,0,1,1,0,0,1-.88,1.8,26.72,26.72,0,0,0-23.49,0A1,1,0,0,1,46.16,288Z" fill="none" stroke="#003a50" stroke-miterlimit="10"/><path d="M46.16,282.41a1,1,0,0,1-.45-1.91,28.77,28.77,0,0,1,25.26,0,1,1,0,0,1,.46,1.34,1,1,0,0,1-1.34.46,26.81,26.81,0,0,0-23.49,0A1,1,0,0,1,46.16,282.41Z" fill="none" stroke="#003a50" stroke-miterlimit="10"/><path d="M46.16,276.84a1,1,0,0,1-.45-1.9,28.77,28.77,0,0,1,25.26,0,1,1,0,1,1-.88,1.8,26.72,26.72,0,0,0-23.49,0A1,1,0,0,1,46.16,276.84Z" fill="none" stroke="#003a50" stroke-miterlimit="10"/><path d="M46.16,271.27a1,1,0,0,1-.45-1.9,28.77,28.77,0,0,1,25.26,0,1,1,0,1,1-.88,1.8,26.72,26.72,0,0,0-23.49,0A1,1,0,0,1,46.16,271.27Z" fill="none" stroke="#003a50" stroke-miterlimit="10"/><path d="M46.16,304.67a1,1,0,0,1-.45-1.91,28.77,28.77,0,0,1,25.26,0,1,1,0,0,1,.46,1.34,1,1,0,0,1-1.34.46,26.81,26.81,0,0,0-23.49,0A1,1,0,0,1,46.16,304.67Z" fill="none" stroke="#003a50" stroke-miterlimit="10"/><path d="M46.16,310.23a1,1,0,0,1-.45-1.9,28.77,28.77,0,0,1,25.26,0,1,1,0,0,1-.88,1.8,26.72,26.72,0,0,0-23.49,0A1,1,0,0,1,46.16,310.23Z" fill="none" stroke="#003a50" stroke-miterlimit="10"/></g><line x1="58.35" y1="329.56" x2="58.35" y2="253.74" fill="none" stroke="#003a50" stroke-miterlimit="10"/><rect x="84.95" y="439.53" width="70.69" height="34.02" fill="none" stroke="#003a50" stroke-miterlimit="10"/><g clip-path="url(#clip-path)"><path d="M110.27,444.36a1,1,0,0,1,1.9-.45,28.77,28.77,0,0,1,0,25.26,1,1,0,1,1-1.8-.88,26.72,26.72,0,0,0,0-23.49A1,1,0,0,1,110.27,444.36Z" fill="none" stroke="#003a50" stroke-miterlimit="10"/><path d="M115.84,444.36a1,1,0,0,1,1.9-.45,28.77,28.77,0,0,1,0,25.26,1,1,0,1,1-1.8-.88,26.72,26.72,0,0,0,0-23.49A1,1,0,0,1,115.84,444.36Z" fill="none" stroke="#003a50" stroke-miterlimit="10"/><path d="M121.4,444.36a1,1,0,0,1,1.9-.45,28.77,28.77,0,0,1,0,25.26,1,1,0,0,1-1.8-.88,26.72,26.72,0,0,0,0-23.49A1,1,0,0,1,121.4,444.36Z" fill="none" stroke="#003a50" stroke-miterlimit="10"/><path d="M127,444.36a1,1,0,0,1,1.9-.45,28.77,28.77,0,0,1,0,25.26,1,1,0,0,1-1.8-.88,26.72,26.72,0,0,0,0-23.49A1,1,0,0,1,127,444.36Z" fill="none" stroke="#003a50" stroke-miterlimit="10"/><path d="M132.53,444.36a1,1,0,0,1,1.91-.45,28.77,28.77,0,0,1,0,25.26,1,1,0,0,1-1.34.46,1,1,0,0,1-.46-1.34,26.81,26.81,0,0,0,0-23.49A.87.87,0,0,1,132.53,444.36Z" fill="none" stroke="#003a50" stroke-miterlimit="10"/><path d="M138.1,444.36a1,1,0,0,1,1.9-.45,28.77,28.77,0,0,1,0,25.26,1,1,0,0,1-1.8-.88,26.72,26.72,0,0,0,0-23.49A1,1,0,0,1,138.1,444.36Z" fill="none" stroke="#003a50" stroke-miterlimit="10"/><path d="M104.7,444.36a1,1,0,0,1,1.91-.45,28.77,28.77,0,0,1,0,25.26,1,1,0,0,1-1.34.46,1,1,0,0,1-.46-1.34,26.81,26.81,0,0,0,0-23.49A1,1,0,0,1,104.7,444.36Z" fill="none" stroke="#003a50" stroke-miterlimit="10"/><path d="M99.14,444.36a1,1,0,0,1,1.9-.45,28.77,28.77,0,0,1,0,25.26,1,1,0,1,1-1.8-.88,26.72,26.72,0,0,0,0-23.49A1,1,0,0,1,99.14,444.36Z" fill="none" stroke="#003a50" stroke-miterlimit="10"/></g><line x1="85.29" y1="456.54" x2="155.64" y2="456.54" fill="none" stroke="#003a50" stroke-miterlimit="10"/><rect x="344.61" y="377.99" width="31.72" height="95.46" fill="none" stroke="#003a50" stroke-miterlimit="10"/><g clip-path="url(#clip-path)"><path d="M349.1,457.49a.93.93,0,0,1-.84-.53,1,1,0,0,1,.43-1.25,26.85,26.85,0,0,1,23.55,0,.93.93,0,0,1-.82,1.68,25,25,0,0,0-21.9,0A.92.92,0,0,1,349.1,457.49Z" fill="none" stroke="#003a50" stroke-miterlimit="10"/><path d="M349.1,452.3a.93.93,0,0,1-.84-.53,1,1,0,0,1,.43-1.25,26.85,26.85,0,0,1,23.55,0,.93.93,0,0,1-.82,1.68,25,25,0,0,0-21.9,0A.92.92,0,0,1,349.1,452.3Z" fill="none" stroke="#003a50" stroke-miterlimit="10"/><path d="M349.1,447.11a.94.94,0,0,1-.84-.52,1,1,0,0,1,.43-1.26,26.85,26.85,0,0,1,23.55,0,1,1,0,0,1,.43,1.26.93.93,0,0,1-1.25.42,25,25,0,0,0-21.9,0A.92.92,0,0,1,349.1,447.11Z" fill="none" stroke="#003a50" stroke-miterlimit="10"/><path d="M349.1,441.92a.94.94,0,0,1-.84-.52,1,1,0,0,1,.43-1.26,26.85,26.85,0,0,1,23.55,0,1,1,0,0,1,.43,1.26.93.93,0,0,1-1.25.42,25,25,0,0,0-21.9,0A.92.92,0,0,1,349.1,441.92Z" fill="none" stroke="#003a50" stroke-miterlimit="10"/><path d="M349.1,436.73a.93.93,0,0,1-.41-1.77,26.85,26.85,0,0,1,23.55,0,.93.93,0,0,1,.43,1.25,1,1,0,0,1-1.25.43,24.87,24.87,0,0,0-21.9,0A1.06,1.06,0,0,1,349.1,436.73Z" fill="none" stroke="#003a50" stroke-miterlimit="10"/><path d="M349.1,431.54a.93.93,0,0,1-.41-1.77,26.85,26.85,0,0,1,23.55,0,.93.93,0,0,1,.43,1.25,1,1,0,0,1-1.25.43,24.87,24.87,0,0,0-21.9,0A1.06,1.06,0,0,1,349.1,431.54Z" fill="none" stroke="#003a50" stroke-miterlimit="10"/><path d="M349.1,462.68a.94.94,0,0,1-.41-1.78,26.85,26.85,0,0,1,23.55,0,.93.93,0,0,1-.82,1.68,25,25,0,0,0-21.9,0A.92.92,0,0,1,349.1,462.68Z" fill="none" stroke="#003a50" stroke-miterlimit="10"/><path d="M349.1,467.87a.94.94,0,0,1-.41-1.78,26.85,26.85,0,0,1,23.55,0,.93.93,0,0,1-.82,1.68,25,25,0,0,0-21.9,0A.92.92,0,0,1,349.1,467.87Z" fill="none" stroke="#003a50" stroke-miterlimit="10"/></g><line x1="360.47" y1="473.45" x2="360.47" y2="378.64" fill="none" stroke="#003a50" stroke-miterlimit="10"/><g clip-path="url(#clip-path)"><path d="M273.22,407.3V378.74H250.15V407.3a11.54,11.54,0,1,0,23.07,0Z" fill="none" stroke="#003a50" stroke-miterlimit="10"/></g><rect x="250.15" y="378.73" width="23.08" height="11.08" fill="none" stroke="#003a50" stroke-miterlimit="10"/><rect x="162.01" y="328.89" width="90.98" height="43.38" fill="none" stroke="#003a50" stroke-miterlimit="10"/><g clip-path="url(#clip-path)"><path d="M182.66,334.27h49.69a16.26,16.26,0,0,1,16.26,16.25v.12a16.26,16.26,0,0,1-16.26,16.26H182.66a16.25,16.25,0,0,1-16.26-16.26v-.12A16.25,16.25,0,0,1,182.66,334.27Z" fill="none" stroke="#003a50" stroke-miterlimit="10"/><path d="M184.61,350.58a2.35,2.35,0,1,1-2.35-2.35A2.35,2.35,0,0,1,184.61,350.58Z" fill="none" stroke="#003a50" stroke-miterlimit="10"/></g><rect x="193.75" y="378.65" width="40.48" height="94.87" fill="none" stroke="#003a50" stroke-miterlimit="10"/><g clip-path="url(#clip-path)"><rect x="198.89" y="382.52" width="30.6" height="87.38" rx="13.7" fill="none" stroke="#003a50" stroke-miterlimit="10"/><circle cx="215.85" cy="454.46" r="2.28" fill="none" stroke="#003a50" stroke-miterlimit="10"/></g><rect x="155.64" y="378.56" width="31.48" height="95.25" fill="none" stroke="#003a50" stroke-miterlimit="10"/><g clip-path="url(#clip-path)"><path d="M159.19,456.51a1,1,0,0,1-.44-1.91,28.77,28.77,0,0,1,25.26,0,1,1,0,0,1,.45,1.34,1,1,0,0,1-1.34.46,26.81,26.81,0,0,0-23.49,0A.87.87,0,0,1,159.19,456.51Z" fill="none" stroke="#003a50" stroke-miterlimit="10"/><path d="M159.19,450.94a1,1,0,0,1-.9-.56,1,1,0,0,1,.46-1.34A28.77,28.77,0,0,1,184,449a1,1,0,0,1-.89,1.8,26.72,26.72,0,0,0-23.49,0A1,1,0,0,1,159.19,450.94Z" fill="none" stroke="#003a50" stroke-miterlimit="10"/><path d="M159.19,445.38a1,1,0,0,1-.44-1.91,28.77,28.77,0,0,1,25.26,0,1,1,0,0,1,.45,1.34,1,1,0,0,1-1.34.46,26.81,26.81,0,0,0-23.49,0A.87.87,0,0,1,159.19,445.38Z" fill="none" stroke="#003a50" stroke-miterlimit="10"/><path d="M159.19,439.81a1,1,0,0,1-.44-1.9,28.77,28.77,0,0,1,25.26,0,1,1,0,0,1-.89,1.8,26.72,26.72,0,0,0-23.49,0A1,1,0,0,1,159.19,439.81Z" fill="none" stroke="#003a50" stroke-miterlimit="10"/><path d="M159.19,434.25a1,1,0,0,1-.44-1.91,28.77,28.77,0,0,1,25.26,0,1,1,0,0,1,.45,1.34,1,1,0,0,1-1.34.46,26.81,26.81,0,0,0-23.49,0A.87.87,0,0,1,159.19,434.25Z" fill="none" stroke="#003a50" stroke-miterlimit="10"/><path d="M159.19,428.68a1,1,0,0,1-.44-1.9,28.77,28.77,0,0,1,25.26,0,1,1,0,0,1-.89,1.8,26.72,26.72,0,0,0-23.49,0A1,1,0,0,1,159.19,428.68Z" fill="none" stroke="#003a50" stroke-miterlimit="10"/><path d="M159.19,462.07a1,1,0,0,1-.9-.56,1,1,0,0,1,.46-1.34,28.77,28.77,0,0,1,25.26,0,1,1,0,0,1-.89,1.8,26.72,26.72,0,0,0-23.49,0A1,1,0,0,1,159.19,462.07Z" fill="none" stroke="#003a50" stroke-miterlimit="10"/><path d="M159.19,467.64a1,1,0,0,1-.44-1.9,28.77,28.77,0,0,1,25.26,0,1,1,0,0,1-.89,1.8,26.72,26.72,0,0,0-23.49,0A1,1,0,0,1,159.19,467.64Z" fill="none" stroke="#003a50" stroke-miterlimit="10"/></g><line x1="171.38" y1="473.63" x2="171.38" y2="378.73" fill="none" stroke="#003a50" stroke-miterlimit="10"/><rect x="225.39" y="280.68" width="27.58" height="48.22" fill="none" stroke="#003a50" stroke-miterlimit="10"/><g clip-path="url(#clip-path)"><rect x="227.82" y="295.2" width="29.71" height="28.96" rx="3.36" fill="none" stroke="#003a50" stroke-miterlimit="10"/><circle cx="242.67" cy="309.68" r="2.27" transform="translate(-114.48 474.71) rotate(-76.72)" fill="none" stroke="#003a50" stroke-miterlimit="10"/><path d="M203.77,283V254.18H181V283a11.4,11.4,0,1,0,22.8,0Z" fill="none" stroke="#003a50" stroke-miterlimit="10"/></g><line x1="180.97" y1="265.4" x2="203.77" y2="265.4" fill="none" stroke="#003a50" stroke-miterlimit="10"/><rect x="411.94" y="253.77" width="102.05" height="16.75" fill="none" stroke="#003a50" stroke-miterlimit="10"/><polygon points="419.96 262.68 462.86 259.2 505.96 262.68 505.96 265.1 419.96 265.1 419.96 262.68" fill="none" stroke="#003a50" stroke-miterlimit="10"/><g clip-path="url(#clip-path)"><path d="M159.26,285.5h-3.07a38.71,38.71,0,0,0-38.72,38.71h41.79" fill="none" stroke="#003a50" stroke-miterlimit="10" stroke-width="1.6"/><path d="M293.23,378v-3.07a38.71,38.71,0,0,1,38.71-38.72V378" fill="none" stroke="#003a50" stroke-miterlimit="10" stroke-width="1.6"/><path d="M358.33,250.26v3.6A45.3,45.3,0,0,1,313,299.17V250.26" fill="none" stroke="#003a50" stroke-miterlimit="10" stroke-width="1.6"/><path d="M363.76,194.11h3.43a43.17,43.17,0,0,1,43.18,43.18H363.76" fill="none" stroke="#003a50" stroke-miterlimit="10" stroke-width="1.6"/><path d="M-44,431.26h3.89A48.89,48.89,0,0,0,8.75,382.37H-44" fill="none" stroke="#003a50" stroke-miterlimit="10" stroke-width="1.6"/><path d="M72.18,436.72H68.29A48.88,48.88,0,0,1,19.4,387.84H72.18" fill="none" stroke="#003a50" stroke-miterlimit="10" stroke-width="1.6"/><polygon points="-66.62 50.68 29.12 50.68 29.12 1.35 -66.62 13.01 -66.62 50.68" fill="#003a50" fill-rule="evenodd"/><rect x="185.85" y="2.85" width="26.7" height="47.83" fill="#003a50"/><rect x="116.88" y="16.68" width="91.66" height="34" fill="#003a50"/><rect x="-55.34" y="29.52" width="77.33" height="27.33" fill="#003a50"/><polygon points="299.61 50.68 395.35 50.68 395.35 1.35 299.61 13.01 299.61 50.68" fill="#003a50" fill-rule="evenodd"/><rect x="310.9" y="29.52" width="77.33" height="27.33" fill="#003a50"/><rect x="74.52" y="473.83" width="488" height="13.79" fill="#003a50"/><rect x="-56.98" y="363.2" width="142" height="16.69" fill="#003a50"/><rect x="68.7" y="371.73" width="16.32" height="16.79" fill="#003a50"/><rect x="68.7" y="435.78" width="16.32" height="145.23" fill="#003a50"/><rect x="-0.52" y="52.48" width="16.32" height="314.78" fill="#003a50"/><rect x="268.25" y="247.52" width="16.32" height="83.12" fill="#003a50"/><polygon points="547.48 561.38 547.48 465.64 596.82 465.64 585.15 561.38 547.48 561.38" fill="#003a50" fill-rule="evenodd"/><polygon points="547.48 189.49 547.48 285.23 596.82 285.23 585.15 189.49 547.48 189.49" fill="#003a50" fill-rule="evenodd"/><rect x="547.48" y="361.58" width="48.33" height="25.9" fill="#003a50"/><rect x="541.52" y="209.26" width="11.25" height="75.96" fill="#003a50"/><rect x="541.52" y="467.6" width="11.25" height="77.3" fill="#003a50"/><rect x="547.14" y="15.64" width="35.34" height="87.38" fill="#003a50"/><rect x="484.18" y="15.64" width="94.3" height="33.75" fill="#003a50"/><rect x="569.91" y="3.08" width="25.9" height="25.9" fill="#003a50"/><rect x="155.64" y="247.51" width="6.38" height="38.82" fill="#003a50"/><rect x="14.28" y="247.52" width="70.74" height="6.38" fill="#003a50"/><rect x="14.27" y="279.12" width="25.64" height="6.38" fill="#003a50"/><rect x="357.92" y="247.52" width="190.58" height="6.38" fill="#003a50"/><rect x="155.64" y="247.52" width="158.22" height="6.38" fill="#003a50"/><rect x="361.02" y="52.08" width="6.38" height="142.86" fill="#003a50"/><rect x="361.02" y="236.53" width="6.38" height="15.18" fill="#003a50"/><rect x="78.64" y="250.92" width="6.38" height="41.17" fill="#003a50"/><rect x="34.81" y="250.92" width="6.38" height="118.66" fill="#003a50"/><rect x="-24.34" y="327" width="25.64" height="6.38" fill="#003a50"/><rect x="78.64" y="345.58" width="6.38" height="25.17" fill="#003a50"/><rect x="229.73" y="478.33" width="6.38" height="94.52" fill="#003a50"/><rect x="113.76" y="478.33" width="6.38" height="92.32" fill="#003a50"/><line x1="376.99" y1="251.67" x2="376.99" y2="254.5" fill="none" stroke="#003a50" stroke-miterlimit="10"/><line x1="376.99" y1="260.25" x2="376.99" y2="372.29" fill="none" stroke="#003a50" stroke-miterlimit="10" stroke-dasharray="5.74 5.74"/><line x1="376.99" y1="375.16" x2="376.99" y2="378" fill="none" stroke="#003a50" stroke-miterlimit="10"/><line x1="83.77" y1="249.28" x2="86.61" y2="249.28" fill="none" stroke="#003a50" stroke-miterlimit="10"/><line x1="92.47" y1="249.28" x2="183.43" y2="249.28" fill="none" stroke="#003a50" stroke-miterlimit="10" stroke-dasharray="5.87 5.87"/><line x1="186.37" y1="249.28" x2="189.2" y2="249.28" fill="none" stroke="#003a50" stroke-miterlimit="10"/><rect x="-124.16" y="240.9" width="125.47" height="6.38" fill="#003a50"/><rect x="155.64" y="372.27" width="138.43" height="6.38" fill="#003a50"/><rect x="331.12" y="372.27" width="46.22" height="6.38" fill="#003a50"/><rect x="338.12" y="374.08" width="6.38" height="102.25" fill="#003a50"/><rect x="187.45" y="373.58" width="6.38" height="102.75" fill="#003a50"/><rect x="243.91" y="251.56" width="6.38" height="29.12" fill="#003a50"/><rect x="253" y="276" width="6.38" height="100.33" fill="#003a50"/><rect x="243.91" y="274.3" width="31.09" height="6.38" fill="#003a50"/><rect x="155.64" y="323.38" width="6.38" height="52.71" fill="#003a50"/><rect x="268.25" y="306.8" width="6.38" height="69.54" fill="#003a50"/></g><g clip-path="url(#clip-path)"><path d="M474.2,310.79l-2.48,1.95V310.5l2.73-2.27h1.86v11.91H474.2Z" fill="#003a50"/><path d="M485,310.08h-5.82v-1.85h8.86v1.85l-4.52,2.65v.06h1.28a3.87,3.87,0,0,1,2.79,1,3.5,3.5,0,0,1,1.05,2.66,3.34,3.34,0,0,1-1.33,2.83,7,7,0,0,1-7.24,0,3.37,3.37,0,0,1-1.33-2.86v-.33h2.11v.33c0,1.36.95,2,2.84,2s2.84-.66,2.84-2-.95-2-2.84-2h-3.26v-1.66l4.57-2.69Z" fill="#003a50"/><path d="M490.77,320a1,1,0,0,1-.32-.81,1.06,1.06,0,0,1,.32-.8,1.41,1.41,0,0,1,1.74,0,1.06,1.06,0,0,1,.32.8,1,1,0,0,1-.32.81,1.41,1.41,0,0,1-1.74,0Z" fill="#003a50"/><path d="M503.1,320.14H501v-2.65h-7v-1.84l6.29-7.42h2.79v7.42h1.6v1.84h-1.6Zm-2.1-4.49v-5.32h-.07l-4.48,5.27v0Z" fill="#003a50"/><path d="M328.5,310.08h-5.82v-1.85h8.86v1.85L327,312.73v.06h1.28a3.87,3.87,0,0,1,2.79,1,3.5,3.5,0,0,1,1.05,2.66,3.36,3.36,0,0,1-1.32,2.83,7,7,0,0,1-7.25,0,3.39,3.39,0,0,1-1.32-2.86v-.33h2.1v.33c0,1.36,1,2,2.84,2s2.85-.66,2.85-2-.95-2-2.85-2h-3.26v-1.66l4.58-2.69Z" fill="#003a50"/><path d="M334.24,320a1,1,0,0,1-.33-.81,1,1,0,0,1,.33-.8,1.4,1.4,0,0,1,1.73,0,1,1,0,0,1,.32.8,1,1,0,0,1-.32.81,1.4,1.4,0,0,1-1.73,0Z" fill="#003a50"/><path d="M346.82,319.38a7.73,7.73,0,0,1-7.37,0,3,3,0,0,1-1.37-2.56,2.7,2.7,0,0,1,.26-1.16,2.41,2.41,0,0,1,.65-.86,4.14,4.14,0,0,1,1.4-.77l.26-.06v-.1a3.11,3.11,0,0,1-.77-.29,2.61,2.61,0,0,1-.66-.44,2.2,2.2,0,0,1-.54-.75,2.41,2.41,0,0,1-.22-1,2.81,2.81,0,0,1,1.25-2.39,7,7,0,0,1,6.85,0,2.84,2.84,0,0,1,1.25,2.39,2.58,2.58,0,0,1-.22,1,2,2,0,0,1-.56.74,3.42,3.42,0,0,1-1.19.68l-.23.05v.1a1.44,1.44,0,0,1,.29.06,6.35,6.35,0,0,1,.62.27,3.79,3.79,0,0,1,.77.5,2.89,2.89,0,0,1,.62.83,2.63,2.63,0,0,1,.27,1.19A3,3,0,0,1,346.82,319.38ZM341,318a3.75,3.75,0,0,0,2.1.49,3.84,3.84,0,0,0,2.1-.48,1.59,1.59,0,0,0,0-2.69,4.93,4.93,0,0,0-4.2,0,1.58,1.58,0,0,0,0,2.68Zm-.37-6.51a1.37,1.37,0,0,0,.65,1.19,4.07,4.07,0,0,0,3.64,0,1.42,1.42,0,0,0,0-2.39,3.94,3.94,0,0,0-3.62,0A1.36,1.36,0,0,0,340.66,311.51Z" fill="#003a50"/><path d="M295.72,419.84h-2.11v-2.65h-7v-1.84l6.29-7.42h2.79v7.42h1.6v1.84h-1.6Zm-2.11-4.49V410h-.07l-4.47,5.27v.05Z" fill="#003a50"/><path d="M299,419.71a1,1,0,0,1-.32-.81,1.06,1.06,0,0,1,.32-.8,1.41,1.41,0,0,1,1.74,0,1.06,1.06,0,0,1,.32.8,1,1,0,0,1-.32.81,1.41,1.41,0,0,1-1.74,0Z" fill="#003a50"/><path d="M312.62,411.29h-2.21s0-.06,0-.18a1.82,1.82,0,0,0-.21-.43,2.4,2.4,0,0,0-.39-.5,1.67,1.67,0,0,0-.71-.41,3,3,0,0,0-1-.17,2.53,2.53,0,0,0-2.15,1,4.44,4.44,0,0,0-.76,2.69h.06a1.5,1.5,0,0,1,.44-.44,4.14,4.14,0,0,1,.6-.36,4,4,0,0,1,.95-.3,5.49,5.49,0,0,1,1.22-.13,5,5,0,0,1,3.37,1.11,3.51,3.51,0,0,1,1.3,2.8,3.56,3.56,0,0,1-1.36,2.9,5.49,5.49,0,0,1-3.6,1.11,4.81,4.81,0,0,1-3.87-1.55,6.35,6.35,0,0,1-1.32-4.26v-.41a6.85,6.85,0,0,1,1.32-4.31,4.52,4.52,0,0,1,3.8-1.71,5.66,5.66,0,0,1,2.13.37,4,4,0,0,1,1.44.94A3.45,3.45,0,0,1,312.62,411.29Zm-2.51,3.15a3.65,3.65,0,0,0-3.95,0,2,2,0,0,0,0,3.14,3.63,3.63,0,0,0,4,0,1.83,1.83,0,0,0,.77-1.56A1.85,1.85,0,0,0,310.11,414.44Z" fill="#003a50"/><path d="M110.54,224.25H100.6v-1.56a2.75,2.75,0,0,1,.59-1.74,4,4,0,0,1,1.44-1.2c.5-.25,1.12-.54,1.87-.86s1.32-.56,1.88-.78a4.07,4.07,0,0,0,1.44-.91,1.8,1.8,0,0,0,.57-1.3c0-1.26-.88-1.89-2.66-1.89s-2.68.72-2.68,2.16v.41h-2.11v-.41a3.62,3.62,0,0,1,1.27-3,5.34,5.34,0,0,1,3.51-1,5.63,5.63,0,0,1,3.51,1,3.27,3.27,0,0,1,1.27,2.75,3.14,3.14,0,0,1-.55,1.83,4.42,4.42,0,0,1-1.41,1.31c-.59.34-1.21.65-1.83.93s-1.24.52-1.83.74a5.26,5.26,0,0,0-1.4.75,1.22,1.22,0,0,0-.57,1h7.63Z" fill="#003a50"/><path d="M122.5,224.25h-9.93v-1.56a2.8,2.8,0,0,1,.58-1.74,4,4,0,0,1,1.45-1.2c.5-.25,1.12-.54,1.87-.86s1.32-.56,1.87-.78a4.12,4.12,0,0,0,1.45-.91,1.8,1.8,0,0,0,.57-1.3c0-1.26-.89-1.89-2.66-1.89s-2.68.72-2.68,2.16v.41h-2.11v-.41a3.62,3.62,0,0,1,1.26-3,5.39,5.39,0,0,1,3.52-1,5.65,5.65,0,0,1,3.51,1,3.27,3.27,0,0,1,1.27,2.75,3.14,3.14,0,0,1-.56,1.83,4.29,4.29,0,0,1-1.4,1.31q-.9.51-1.83.93c-.63.27-1.24.52-1.83.74a5.33,5.33,0,0,0-1.41.75,1.23,1.23,0,0,0-.56,1h7.62Z" fill="#003a50"/><path d="M124.6,224.12a1,1,0,0,1-.32-.81,1.06,1.06,0,0,1,.32-.8,1.25,1.25,0,0,1,.88-.3,1.22,1.22,0,0,1,.86.3,1,1,0,0,1,.32.8,1,1,0,0,1-.32.81,1.22,1.22,0,0,1-.86.3A1.25,1.25,0,0,1,124.6,224.12Z" fill="#003a50"/><path d="M138.22,215.7H136s0-.07,0-.18a2.94,2.94,0,0,0-.22-.44,2.64,2.64,0,0,0-.38-.5,2.08,2.08,0,0,0-.71-.41,3.29,3.29,0,0,0-1-.16,2.49,2.49,0,0,0-2.15,1,4.41,4.41,0,0,0-.77,2.68h.06a1.79,1.79,0,0,1,.44-.43,4.24,4.24,0,0,1,.61-.36,4.06,4.06,0,0,1,1-.31,6.06,6.06,0,0,1,1.21-.12,5.06,5.06,0,0,1,3.38,1.11,3.5,3.5,0,0,1,1.3,2.8,3.56,3.56,0,0,1-1.36,2.9,5.52,5.52,0,0,1-3.61,1.11,4.81,4.81,0,0,1-3.87-1.55,6.36,6.36,0,0,1-1.32-4.27v-.4a6.83,6.83,0,0,1,1.32-4.31,4.52,4.52,0,0,1,3.81-1.71,5.64,5.64,0,0,1,2.12.37,3.84,3.84,0,0,1,1.44.94A3.43,3.43,0,0,1,138.22,215.7Zm-2.5,3.15a3.62,3.62,0,0,0-4,0,2,2,0,0,0,0,3.14,3.15,3.15,0,0,0,2,.59,3.2,3.2,0,0,0,2-.59,1.88,1.88,0,0,0,.77-1.57A1.85,1.85,0,0,0,135.72,218.85Z" fill="#003a50"/><path d="M116.16,397.07H114s0-.06,0-.17a2.53,2.53,0,0,0-.22-.44,2.4,2.4,0,0,0-.39-.5,1.67,1.67,0,0,0-.71-.41,2.93,2.93,0,0,0-1-.16,2.52,2.52,0,0,0-2.15,1,4.44,4.44,0,0,0-.76,2.69h.06a1.49,1.49,0,0,1,.44-.43,3.9,3.9,0,0,1,.6-.37,4,4,0,0,1,1-.3,5.56,5.56,0,0,1,1.22-.13,5,5,0,0,1,3.37,1.11,3.52,3.52,0,0,1,1.31,2.8,3.61,3.61,0,0,1-1.36,2.91,5.59,5.59,0,0,1-3.61,1.1,4.81,4.81,0,0,1-3.87-1.54,6.38,6.38,0,0,1-1.32-4.27v-.41a6.85,6.85,0,0,1,1.32-4.31,4.52,4.52,0,0,1,3.8-1.71,5.66,5.66,0,0,1,2.13.37,4,4,0,0,1,1.44.94A3.45,3.45,0,0,1,116.16,397.07Zm-2.51,3.15a3.65,3.65,0,0,0-4,0,1.86,1.86,0,0,0-.78,1.58,1.89,1.89,0,0,0,.77,1.57,3.63,3.63,0,0,0,4,0,2,2,0,0,0,0-3.15Z" fill="#003a50"/><path d="M118.81,405.49a1,1,0,0,1-.32-.8,1.07,1.07,0,0,1,.32-.81,1.41,1.41,0,0,1,1.74,0,1.07,1.07,0,0,1,.32.81,1,1,0,0,1-.32.8,1.41,1.41,0,0,1-1.74,0Z" fill="#003a50"/><path d="M131.14,405.62H129V403h-7v-1.85l6.29-7.41h2.79v7.41h1.6V403h-1.6ZM129,401.13v-5.32H129l-4.48,5.27v.05Z" fill="#003a50"/><path d="M184.24,303.36h-5.83v-1.84h8.87v1.84L182.75,306v.06H184a3.87,3.87,0,0,1,2.79,1,3.52,3.52,0,0,1,1.05,2.66,3.33,3.33,0,0,1-1.33,2.83,7,7,0,0,1-7.24,0,3.39,3.39,0,0,1-1.33-2.86v-.32h2.11v.32c0,1.36.95,2,2.84,2s2.84-.67,2.84-2-.94-2-2.84-2h-3.26v-1.67l4.58-2.68Z" fill="#003a50"/><path d="M190,313.29a1,1,0,0,1-.32-.8,1.07,1.07,0,0,1,.32-.81,1.25,1.25,0,0,1,.88-.3,1.22,1.22,0,0,1,.86.3,1,1,0,0,1,.32.81,1,1,0,0,1-.32.8,1.22,1.22,0,0,1-.86.3A1.25,1.25,0,0,1,190,313.29Z" fill="#003a50"/><path d="M203.59,304.87h-2.21s0-.06,0-.17a2.53,2.53,0,0,0-.22-.44,2.36,2.36,0,0,0-.38-.5,1.8,1.8,0,0,0-.71-.41,3,3,0,0,0-1-.17,2.52,2.52,0,0,0-2.15,1,4.44,4.44,0,0,0-.77,2.69h.06a1.63,1.63,0,0,1,.44-.43,3.55,3.55,0,0,1,.61-.37,3.67,3.67,0,0,1,.95-.3,5.41,5.41,0,0,1,1.21-.13,5.06,5.06,0,0,1,3.38,1.11,3.54,3.54,0,0,1,1.3,2.8,3.62,3.62,0,0,1-1.36,2.91,5.59,5.59,0,0,1-3.61,1.1,4.81,4.81,0,0,1-3.87-1.54,6.38,6.38,0,0,1-1.32-4.27v-.41a6.85,6.85,0,0,1,1.32-4.31,4.52,4.52,0,0,1,3.81-1.71,5.64,5.64,0,0,1,2.12.37,4,4,0,0,1,1.44.94A3.45,3.45,0,0,1,203.59,304.87Zm-2.5,3.15a3.67,3.67,0,0,0-4,0,1.86,1.86,0,0,0-.78,1.58,1.89,1.89,0,0,0,.77,1.57,3.26,3.26,0,0,0,2,.59,3.21,3.21,0,0,0,2-.59,2,2,0,0,0,0-3.15Z" fill="#003a50"/><path d="M477,142.74l-2.48,1.95v-2.25l2.73-2.26h1.86v11.91H477Z" fill="#003a50"/><path d="M483.59,142.74l-2.49,1.95v-2.25l2.73-2.26h1.87v11.91h-2.11Z" fill="#003a50"/><path d="M488.22,152a1,1,0,0,1-.32-.8,1,1,0,0,1,.32-.81,1.41,1.41,0,0,1,1.74,0,1.07,1.07,0,0,1,.32.81,1,1,0,0,1-.32.8,1.41,1.41,0,0,1-1.74,0Z" fill="#003a50"/><path d="M500.8,151.32a7.71,7.71,0,0,1-7.36,0,2.91,2.91,0,0,1-1.37-2.55,2.7,2.7,0,0,1,.25-1.17,2.29,2.29,0,0,1,.66-.85,3.94,3.94,0,0,1,1.39-.77l.26-.07v-.09a3.32,3.32,0,0,1-.76-.29,3.24,3.24,0,0,1-.67-.44,2.35,2.35,0,0,1-.54-.76,2.38,2.38,0,0,1-.22-1,2.81,2.81,0,0,1,1.25-2.38,7,7,0,0,1,6.85,0,2.8,2.8,0,0,1,1.25,2.38,2.43,2.43,0,0,1-.22,1,1.93,1.93,0,0,1-.55.75,3.72,3.72,0,0,1-1.2.68l-.22.05v.09l.28.07a3.62,3.62,0,0,1,.62.26,4.79,4.79,0,0,1,.78.51,2.71,2.71,0,0,1,.88,2A2.94,2.94,0,0,1,500.8,151.32ZM495,150a3.84,3.84,0,0,0,2.1.48,4,4,0,0,0,2.11-.47,1.6,1.6,0,0,0,0-2.7,4.95,4.95,0,0,0-4.21,0,1.59,1.59,0,0,0,0,2.69Zm-.36-6.52a1.36,1.36,0,0,0,.64,1.19,4,4,0,0,0,3.65,0,1.42,1.42,0,0,0,0-2.39,3.94,3.94,0,0,0-3.62,0A1.38,1.38,0,0,0,494.65,143.45Z" fill="#003a50"/><path d="M79.4,314.18l-2.49,1.95v-2.24l2.74-2.27h1.86v11.91H79.4Z" fill="#003a50"/><path d="M84,323.39a1,1,0,0,1-.32-.8,1.07,1.07,0,0,1,.32-.81,1.41,1.41,0,0,1,1.74,0,1.07,1.07,0,0,1,.32.81,1,1,0,0,1-.32.8,1.41,1.41,0,0,1-1.74,0Z" fill="#003a50"/><path d="M93.32,315.55a5,5,0,0,1,3.33,1.06,4.16,4.16,0,0,1,0,6,5.38,5.38,0,0,1-3.54,1.08,5.8,5.8,0,0,1-3.57-1A3.18,3.18,0,0,1,88.22,320h2.11a1.53,1.53,0,0,0,.7,1.33,3.53,3.53,0,0,0,2,.49,3.11,3.11,0,0,0,2-.58,2.06,2.06,0,0,0,.7-1.68,2,2,0,0,0-.74-1.7,3.25,3.25,0,0,0-2.07-.59,3.6,3.6,0,0,0-1.92.42,1.87,1.87,0,0,0-.69.64l0,.12H88.22v-6.87h8.87v1.84H90.33v3h0a1.83,1.83,0,0,1,.39-.31,3.94,3.94,0,0,1,.55-.26A5.66,5.66,0,0,1,93.32,315.55Z" fill="#003a50"/></g></svg>