<svg id="Слой_1" data-name="Слой 1" xmlns="http://www.w3.org/2000/svg" xmlns:xlink="http://www.w3.org/1999/xlink" viewBox="0 0 581.1 212.6"><defs><clipPath id="clip-path"><polygon points="0 0.65 0 176.77 82.38 176.77 82.38 212.1 580.82 212.1 580.82 0.65 0 0.65" fill="none"/></clipPath></defs><path d="M86.43,212.1H531.05v-2.85ZM56.07,176.77h26.3V212.1h1V174.5l-27.27-1.26Z" fill="#fff"/><polygon points="61.05 6.25 67.15 107.67 67.15 155.34 65.39 168.45 87.55 172.25 89.25 203.83 531.05 198.57 531.05 5.08 61.05 6.25" fill="#fff"/><polygon points="65.27 0.65 65.05 5 531.22 4.17 531.19 0.65 65.27 0.65" fill="#fff"/><g clip-path="url(#clip-path)"><rect x="-561.43" y="-447.32" width="1115.44" height="2194.74" fill="none" stroke="#003a50" stroke-miterlimit="10"/><polygon points="-536.61 638.67 -536.61 1724.47 529.87 1724.47 529.87 -422.87 -536.61 -423.02 -536.61 569.89 -536.61 638.67" fill="none" stroke="#003a50" stroke-miterlimit="10"/></g><rect x="540.78" y="88.26" width="4.56" height="85.76" fill="#fff"/><rect x="540.78" y="88.26" width="4.56" height="85.76" fill="none" stroke="#003a50" stroke-miterlimit="10"/><line x1="543.06" y1="174.02" x2="543.06" y2="88.26" fill="none" stroke="#003a50" stroke-miterlimit="10"/><rect x="540.78" y="169.69" width="4.56" height="4.33" fill="#fff"/><rect x="540.78" y="169.69" width="4.56" height="4.33" fill="none" stroke="#003a50" stroke-miterlimit="10"/><rect x="540.78" y="88.26" width="4.56" height="4.33" fill="#fff"/><rect x="540.78" y="88.26" width="4.56" height="4.33" fill="none" stroke="#003a50" stroke-miterlimit="10"/><rect x="540.78" y="128.97" width="4.56" height="4.33" fill="#fff"/><rect x="540.78" y="128.97" width="4.56" height="4.33" fill="none" stroke="#003a50" stroke-miterlimit="10"/><g clip-path="url(#clip-path)"><rect x="248.05" y="212.12" width="34.83" height="30.54" fill="none" stroke="#003a50" stroke-miterlimit="10"/><rect x="96.07" y="212.37" width="115.74" height="29.57" fill="none" stroke="#003a50" stroke-miterlimit="10"/><rect x="218.21" y="212.37" width="30.26" height="30.26" fill="none" stroke="#003a50" stroke-miterlimit="10"/></g><rect x="152.78" y="161.73" width="40.34" height="34.69" fill="none" stroke="#003a50" stroke-miterlimit="10"/><g clip-path="url(#clip-path)"><path d="M179.25,169.76h-2.5a3.64,3.64,0,0,1-6.78,0h-3.31l-6.27,3.6,3,4.72,2.83-1.5v12.88H179.7V176.58l2.82,1.5,3-4.72Z" fill="none" stroke="#003a50" stroke-miterlimit="10"/></g><rect x="96.07" y="161.73" width="56.72" height="34.69" fill="none" stroke="#003a50" stroke-miterlimit="10"/><g clip-path="url(#clip-path)"><path d="M111,168.48a.87.87,0,0,1,1.66-.38,25.09,25.09,0,0,1,0,22,.89.89,0,0,1-1.17.39.87.87,0,0,1-.4-1.16,23.29,23.29,0,0,0,0-20.43A.85.85,0,0,1,111,168.48Z" fill="none" stroke="#003a50" stroke-miterlimit="10"/><path d="M115.79,168.48a.87.87,0,0,1,1.66-.38,25.09,25.09,0,0,1,0,22,.89.89,0,0,1-1.17.39.87.87,0,0,1-.4-1.16,23.29,23.29,0,0,0,0-20.43A.85.85,0,0,1,115.79,168.48Z" fill="none" stroke="#003a50" stroke-miterlimit="10"/><path d="M120.63,168.48a.87.87,0,0,1,.49-.78.85.85,0,0,1,1.16.4,25,25,0,0,1,0,22,.87.87,0,0,1-1.16.39.86.86,0,0,1-.4-1.16,23.29,23.29,0,0,0,0-20.43A.85.85,0,0,1,120.63,168.48Z" fill="none" stroke="#003a50" stroke-miterlimit="10"/><path d="M125.47,168.48a.88.88,0,0,1,.48-.78.86.86,0,0,1,1.17.4,25,25,0,0,1,0,22,.87.87,0,0,1-1.16.39.86.86,0,0,1-.4-1.16,23.29,23.29,0,0,0,0-20.43A.73.73,0,0,1,125.47,168.48Z" fill="none" stroke="#003a50" stroke-miterlimit="10"/><path d="M106.11,168.48a.87.87,0,0,1,1.66-.38,25.09,25.09,0,0,1,0,22,.88.88,0,0,1-1.17.39.87.87,0,0,1-.4-1.16,23.29,23.29,0,0,0,0-20.43A.85.85,0,0,1,106.11,168.48Z" fill="none" stroke="#003a50" stroke-miterlimit="10"/><path d="M101.27,168.48a.87.87,0,0,1,1.66-.38,25,25,0,0,1,0,22,.88.88,0,0,1-1.16.39.85.85,0,0,1-.4-1.16,23.29,23.29,0,0,0,0-20.43A.75.75,0,0,1,101.27,168.48Z" fill="none" stroke="#003a50" stroke-miterlimit="10"/></g><line x1="96.07" y1="179.07" x2="152.79" y2="179.07" fill="none" stroke="#003a50" stroke-miterlimit="10"/><rect x="227.16" y="161.51" width="34.02" height="34.02" fill="none" stroke="#003a50" stroke-miterlimit="10"/><line x1="243.43" y1="180.53" x2="243.43" y2="191.09" fill="none" stroke="#003a50" stroke-miterlimit="10"/><g clip-path="url(#clip-path)"><path d="M244.34,180.53h-1.82a3.39,3.39,0,0,1-3.39-3.39v-11.2h8.6v11.2A3.39,3.39,0,0,1,244.34,180.53Z" fill="none" stroke="#003a50" stroke-miterlimit="10"/></g><line x1="239.96" y1="191.09" x2="246.9" y2="191.09" fill="none" stroke="#003a50" stroke-miterlimit="10"/><rect x="320.72" y="161.51" width="34.02" height="34.02" fill="none" stroke="#003a50" stroke-miterlimit="10"/><g clip-path="url(#clip-path)"><path d="M350.14,186.1a4.69,4.69,0,1,1-4.69-4.69A4.69,4.69,0,0,1,350.14,186.1Z" fill="none" stroke="#003a50" stroke-miterlimit="10"/><path d="M334.7,186.1a4.69,4.69,0,1,1-4.69-4.69A4.69,4.69,0,0,1,334.7,186.1Z" fill="none" stroke="#003a50" stroke-miterlimit="10"/><path d="M350.14,170.93a4.69,4.69,0,1,1-4.69-4.69A4.69,4.69,0,0,1,350.14,170.93Z" fill="none" stroke="#003a50" stroke-miterlimit="10"/><path d="M334.7,170.93a4.69,4.69,0,1,1-4.69-4.69A4.69,4.69,0,0,1,334.7,170.93Z" fill="none" stroke="#003a50" stroke-miterlimit="10"/><path d="M302.74,186.64H279.39a3.35,3.35,0,0,1-3.36-3.36V168.33a3.35,3.35,0,0,1,3.36-3.36h23.35a3.36,3.36,0,0,1,3.36,3.36v14.95A3.36,3.36,0,0,1,302.74,186.64Z" fill="none" stroke="#003a50" stroke-miterlimit="10"/><circle cx="291.06" cy="179.6" r="2.46" fill="none" stroke="#003a50" stroke-miterlimit="10"/></g><line x1="291.06" y1="178.84" x2="291.06" y2="192.46" fill="none" stroke="#003a50" stroke-miterlimit="10"/><line x1="284.25" y1="192.46" x2="297.87" y2="192.46" fill="none" stroke="#003a50" stroke-miterlimit="10"/><rect x="261.19" y="161.51" width="93.55" height="34.02" fill="none" stroke="#003a50" stroke-miterlimit="10"/><rect x="399.6" y="178.73" width="102.05" height="16.75" fill="none" stroke="#003a50" stroke-miterlimit="10"/><polygon points="493.62 186.57 450.73 190.05 407.62 186.57 407.62 184.15 493.62 184.15 493.62 186.57" fill="none" stroke="#003a50" stroke-miterlimit="10"/><g clip-path="url(#clip-path)"><path d="M274.55,75.2a1.26,1.26,0,0,1,.94,1.51,13.78,13.78,0,1,0,26.87,6.16,1.26,1.26,0,0,1,2.46.57A16.3,16.3,0,0,1,273,76.15,1.27,1.27,0,0,1,274.55,75.2Z" fill="none" stroke="#003a50" stroke-miterlimit="10"/><path d="M329.72,84.92a1.26,1.26,0,0,1,1.75-.33A13.78,13.78,0,1,0,347,61.81a1.26,1.26,0,1,1,1.42-2.08,16.3,16.3,0,0,1-18.36,26.94A1.25,1.25,0,0,1,329.72,84.92Z" fill="none" stroke="#003a50" stroke-miterlimit="10"/><path d="M332.22,37.52a1.26,1.26,0,0,1-1.33-1.18A13.78,13.78,0,1,0,303.37,38a1.26,1.26,0,1,1-2.51.16,16.3,16.3,0,0,1,32.54-1.94A1.25,1.25,0,0,1,332.22,37.52Z" fill="none" stroke="#003a50" stroke-miterlimit="10"/><path d="M288.75,91.82a12.69,12.69,0,0,1-12-15.48l2-8.88A3.53,3.53,0,0,1,283,64.78l13.44,3.08a23.73,23.73,0,0,0,6,9.44l-1,4.2C300.15,87.46,294.87,92,288.75,91.82Z" fill="none" stroke="#003a50" stroke-miterlimit="10"/><path d="M331.55,83.3l-2.32-1.6a23.81,23.81,0,0,0,13.64-21.32l2.52,1.72c5,3.44,7.4,10,5,15.64A12.7,12.7,0,0,1,331.55,83.3Z" fill="none" stroke="#003a50" stroke-miterlimit="10"/><path d="M304.71,41l-.12-2c-.36-6.12,3.4-12,9.32-13.48a12.66,12.66,0,0,1,15.88,11.48l.12,1.84A23.93,23.93,0,0,0,313.27,37,23.5,23.5,0,0,0,304.71,41Z" fill="none" stroke="#003a50" stroke-miterlimit="10"/><path d="M302.47,77.3a23.73,23.73,0,0,1-6-9.44,16.51,16.51,0,0,1-.6-2A23.85,23.85,0,0,1,304.71,41a23.5,23.5,0,0,1,8.56-4,23.87,23.87,0,0,1,28.92,17.4,22.12,22.12,0,0,1,.68,6A23.81,23.81,0,0,1,329.23,81.7a22.85,22.85,0,0,1-4.48,1.6A23.8,23.8,0,0,1,302.47,77.3Z" fill="none" stroke="#003a50" stroke-miterlimit="10"/><rect x="216.9" y="-24.78" width="103.02" height="25.39" fill="none" stroke="#003a50" stroke-miterlimit="10"/><rect x="234.75" y="-22.72" width="24.4" height="25.04" rx="2.83" fill="none" stroke="#003a50" stroke-miterlimit="10"/><rect x="277.48" y="-22.72" width="24.4" height="25.04" rx="2.83" fill="none" stroke="#003a50" stroke-miterlimit="10"/></g><rect x="167.9" y="13.9" width="43.96" height="79.58" fill="none" stroke="#003a50" stroke-miterlimit="10"/><g clip-path="url(#clip-path)"><path d="M189.67,89.49h0A19.52,19.52,0,0,1,170.15,70V37.35a19.53,19.53,0,0,1,39,0V70A19.52,19.52,0,0,1,189.67,89.49Z" fill="none" stroke="#003a50" stroke-miterlimit="10"/><circle cx="189.67" cy="37.91" r="2.28" fill="none" stroke="#003a50" stroke-miterlimit="10"/></g><rect x="102.76" y="14.12" width="65.14" height="27.38" fill="none" stroke="#003a50" stroke-miterlimit="10"/><rect x="218.52" y="14.8" width="34.02" height="50.68" fill="none" stroke="#003a50" stroke-miterlimit="10"/><g clip-path="url(#clip-path)"><path d="M131.4,79.41H102.55V56.61H131.4a11.4,11.4,0,1,1,0,22.8Z" fill="none" stroke="#003a50" stroke-miterlimit="10"/></g><line x1="113.78" y1="56.61" x2="113.78" y2="79.41" fill="none" stroke="#003a50" stroke-miterlimit="10"/><g clip-path="url(#clip-path)"><path d="M136.14,35.92v-23a3.37,3.37,0,0,1,3.36-3.36h22.25a3.36,3.36,0,0,1,3.35,3.36v23a3.36,3.36,0,0,1-3.35,3.36H139.5A3.37,3.37,0,0,1,136.14,35.92Z" fill="none" stroke="#003a50" stroke-miterlimit="10"/><circle cx="150.62" cy="24.42" r="2.27" fill="none" stroke="#003a50" stroke-miterlimit="10"/></g><rect x="218.52" y="65.48" width="34.02" height="34.02" fill="none" stroke="#003a50" stroke-miterlimit="10"/><line x1="235.53" y1="92.47" x2="235.53" y2="72.51" fill="none" stroke="#003a50" stroke-miterlimit="10"/><line x1="245.51" y1="82.49" x2="225.55" y2="82.49" fill="none" stroke="#003a50" stroke-miterlimit="10"/><line x1="242.58" y1="89.55" x2="228.47" y2="75.44" fill="none" stroke="#003a50" stroke-miterlimit="10"/><line x1="242.58" y1="75.43" x2="228.47" y2="89.55" fill="none" stroke="#003a50" stroke-miterlimit="10"/><g clip-path="url(#clip-path)"><rect x="500.69" y="-22.57" width="22.68" height="22.68" fill="none" stroke="#003a50" stroke-miterlimit="10"/><rect x="366.59" y="-22.57" width="22.68" height="22.68" fill="none" stroke="#003a50" stroke-miterlimit="10"/></g><rect x="367.74" y="14.4" width="22.68" height="22.68" fill="none" stroke="#003a50" stroke-miterlimit="10"/><g clip-path="url(#clip-path)"><path d="M385.58,32.24a9.19,9.19,0,1,1,0-13A9.19,9.19,0,0,1,385.58,32.24Z" fill="none" stroke="#003a50" stroke-miterlimit="10"/><path d="M386.21,31.55c-1.7-.17-3.42.48-5.07-1.17-2.44-2.44.15-5-2.3-7.45s-5,.13-7.45-2.31" fill="none" stroke="#003a50" stroke-miterlimit="10"/></g><rect x="501.84" y="14.4" width="22.68" height="22.68" fill="none" stroke="#003a50" stroke-miterlimit="10"/><g clip-path="url(#clip-path)"><path d="M519.68,32.24a9.19,9.19,0,1,1,0-13A9.19,9.19,0,0,1,519.68,32.24Z" fill="none" stroke="#003a50" stroke-miterlimit="10"/><path d="M520.3,31.55c-1.69-.17-3.41.48-5.06-1.17-2.44-2.44.14-5-2.3-7.45s-5,.13-7.46-2.31" fill="none" stroke="#003a50" stroke-miterlimit="10"/><path d="M426.25,260.59a3.11,3.11,0,0,1-3.33,2.83H418.7a3.11,3.11,0,0,1-3.33-2.83V212.4H528.76v47.77a3.11,3.11,0,0,1-3.33,2.83h-4.22a3.1,3.1,0,0,1-3.32-2.83V217.35H426.25Z" fill="none" stroke="#003a50" stroke-miterlimit="10"/><rect x="394.07" y="-113.28" width="102.05" height="113.39" fill="none" stroke="#003a50" stroke-miterlimit="10"/></g><rect x="395.22" y="14.4" width="102.05" height="113.38" fill="none" stroke="#003a50" stroke-miterlimit="10"/><g clip-path="url(#clip-path)"><path d="M487.27,118.05h-82a2.09,2.09,0,0,1-2.09-2.08V48.33h86.22V116A2.08,2.08,0,0,1,487.27,118.05Z" fill="none" stroke="#003a50" stroke-miterlimit="10"/><rect x="402.88" y="21.83" width="42.5" height="22.88" rx="1.98" fill="none" stroke="#003a50" stroke-miterlimit="10"/><rect x="447.11" y="21.83" width="42.5" height="22.88" rx="1.98" fill="none" stroke="#003a50" stroke-miterlimit="10"/></g><line x1="489.61" y1="62.18" x2="402.88" y2="62.18" fill="none" stroke="#003a50" stroke-miterlimit="10"/><g clip-path="url(#clip-path)"><rect x="67.08" y="-33.8" width="70.69" height="34.02" fill="none" stroke="#003a50" stroke-miterlimit="10"/><rect x="326.74" y="-95.34" width="31.72" height="95.46" fill="none" stroke="#003a50" stroke-miterlimit="10"/><line x1="342.6" y1="0.11" x2="342.6" y2="-94.69" fill="none" stroke="#003a50" stroke-miterlimit="10"/><rect x="175.88" y="-94.69" width="40.48" height="94.87" fill="none" stroke="#003a50" stroke-miterlimit="10"/><rect x="137.77" y="-94.78" width="31.48" height="95.25" fill="none" stroke="#003a50" stroke-miterlimit="10"/><line x1="153.51" y1="0.29" x2="153.51" y2="-94.6" fill="none" stroke="#003a50" stroke-miterlimit="10"/><path d="M162.36,95.89V99a38.71,38.71,0,0,1-38.71,38.71V95.89" fill="none" stroke="#003a50" stroke-miterlimit="10" stroke-width="1.6"/><path d="M54.31,156.56H50.43a48.89,48.89,0,0,1-48.9-48.89H54.31" fill="none" stroke="#003a50" stroke-miterlimit="10" stroke-width="1.6"/><rect x="56.65" y="0.5" width="488" height="13.79" fill="#003a50"/><rect x="50.83" y="-37.56" width="16.32" height="145.23" fill="#003a50"/><rect x="50.83" y="155.34" width="16.32" height="21.06" fill="#003a50"/><rect x="85.9" y="163.52" width="10.75" height="78.67" fill="#003a50"/><rect x="54.31" y="161.16" width="42.34" height="15.54" fill="#003a50"/><rect x="85.9" y="195.81" width="447.72" height="16.32" fill="#003a50"/><polygon points="529.62 88.05 529.62 -7.69 578.95 -7.69 567.28 88.05 529.62 88.05" fill="#003a50" fill-rule="evenodd"/><rect x="529.62" y="174.21" width="25.28" height="96.07" fill="#003a50"/><rect x="523.65" y="-5.73" width="11.25" height="77.3" fill="#003a50"/><rect x="50.83" y="168.93" width="6.38" height="73.25" fill="#003a50"/><rect x="161.53" y="93.14" width="53.52" height="6.38" fill="#003a50"/><rect x="211.86" y="5" width="6.38" height="94.52" fill="#003a50"/><rect x="211.69" y="202.85" width="6.38" height="39.33" fill="#003a50"/><rect x="194.26" y="161.44" width="32.9" height="6.38" fill="#003a50"/><rect x="220.69" y="161.51" width="6.38" height="40.24" fill="#003a50"/><rect x="193.13" y="161.44" width="6.38" height="40.31" fill="#003a50"/><rect x="61.05" y="93.14" width="63.43" height="6.38" fill="#003a50"/><rect x="66.52" y="58.47" width="33.64" height="6.38" fill="#003a50"/><rect x="82.3" y="174.5" width="6.38" height="58.66" fill="#003a50"/><rect x="95.9" y="5" width="6.38" height="92.32" fill="#003a50"/><line x1="216.88" y1="97.33" x2="216.88" y2="100.16" fill="none" stroke="#003a50" stroke-miterlimit="10"/><line x1="216.88" y1="105.48" x2="216.88" y2="156.02" fill="none" stroke="#003a50" stroke-miterlimit="10" stroke-dasharray="5.32 5.32"/><line x1="216.88" y1="158.68" x2="216.88" y2="161.51" fill="none" stroke="#003a50" stroke-miterlimit="10"/><rect x="320.25" y="-99.25" width="6.38" height="102.25" fill="#003a50"/><rect x="169.58" y="-99.75" width="6.38" height="102.75" fill="#003a50"/></g><g clip-path="url(#clip-path)"><path d="M87.69,136.25H85.58V133.6h-7v-1.84l6.3-7.42h2.79v7.42h1.59v1.84H87.69Zm-2.11-4.49v-5.33h-.07L81,131.71v0Z" fill="#003a50"/><path d="M91,136.12a1.15,1.15,0,0,1,0-1.61,1.4,1.4,0,0,1,1.73,0,1.15,1.15,0,0,1,0,1.61,1.4,1.4,0,0,1-1.73,0Z" fill="#003a50"/><path d="M101.07,126.18H95.25v-1.84h8.86v1.84l-4.52,2.65v.07h1.28a3.9,3.9,0,0,1,2.79,1,3.52,3.52,0,0,1,1,2.67,3.32,3.32,0,0,1-1.33,2.82,6.93,6.93,0,0,1-7.24,0,3.35,3.35,0,0,1-1.33-2.85v-.33h2.11v.33c0,1.36,1,2,2.84,2s2.84-.67,2.84-2-.94-2-2.84-2H96.5v-1.67l4.57-2.68Z" fill="#003a50"/><path d="M135.38,85.83h-5.82V84h8.86v1.85l-4.53,2.64v.07h1.28a3.9,3.9,0,0,1,2.79,1A3.5,3.5,0,0,1,139,92.22,3.35,3.35,0,0,1,137.69,95a6.93,6.93,0,0,1-7.24,0,3.35,3.35,0,0,1-1.33-2.85v-.33h2.11v.33c0,1.36.94,2,2.84,2s2.84-.67,2.84-2-.95-2-2.84-2H130.8V88.57l4.58-2.68Z" fill="#003a50"/><path d="M141.12,95.76a1.15,1.15,0,0,1,0-1.61,1.4,1.4,0,0,1,1.73,0,1.15,1.15,0,0,1,0,1.61,1.4,1.4,0,0,1-1.73,0Z" fill="#003a50"/><path d="M146.52,94.35a7.37,7.37,0,0,1,0-8.83,5.71,5.71,0,0,1,8.13,0,7.33,7.33,0,0,1,0,8.83,5.69,5.69,0,0,1-8.13,0ZM153.05,93a5.73,5.73,0,0,0,0-6.07,3.14,3.14,0,0,0-4.91,0,5.62,5.62,0,0,0,0,6.07,2.86,2.86,0,0,0,2.45,1.18A2.89,2.89,0,0,0,153.05,93Z" fill="#003a50"/><path d="M279.66,147.41h-9.94v-1.56a2.85,2.85,0,0,1,.58-1.75,4,4,0,0,1,1.45-1.19c.5-.26,1.12-.55,1.87-.87s1.32-.55,1.88-.77a4.32,4.32,0,0,0,1.44-.91,1.82,1.82,0,0,0,.57-1.31c0-1.25-.89-1.88-2.66-1.88s-2.68.72-2.68,2.16v.4h-2.11v-.4a3.6,3.6,0,0,1,1.27-3,5.4,5.4,0,0,1,3.51-1,5.72,5.72,0,0,1,3.51,1,3.29,3.29,0,0,1,1.27,2.75,3.17,3.17,0,0,1-.55,1.84,4.28,4.28,0,0,1-1.41,1.3,17.49,17.49,0,0,1-1.83.93q-.94.42-1.83.75a5.26,5.26,0,0,0-1.4.75,1.22,1.22,0,0,0-.57.95h7.63Z" fill="#003a50"/><path d="M281.76,147.27a1,1,0,0,1-.33-.8,1,1,0,0,1,.33-.81,1.4,1.4,0,0,1,1.73,0,1,1,0,0,1,.33.81,1,1,0,0,1-.33.8,1.4,1.4,0,0,1-1.73,0Z" fill="#003a50"/><path d="M295.38,138.85h-2.21s0-.06,0-.17a2.53,2.53,0,0,0-.22-.44,2.28,2.28,0,0,0-.38-.5,1.93,1.93,0,0,0-.71-.41,3,3,0,0,0-1-.16,2.49,2.49,0,0,0-2.15,1,4.39,4.39,0,0,0-.77,2.68H288a1.8,1.8,0,0,1,.44-.43,3.55,3.55,0,0,1,.61-.37,4.87,4.87,0,0,1,.95-.3,5.43,5.43,0,0,1,1.22-.13,5.05,5.05,0,0,1,3.37,1.11,3.51,3.51,0,0,1,1.3,2.8,3.57,3.57,0,0,1-1.36,2.91,5.49,5.49,0,0,1-3.6,1.1A4.84,4.84,0,0,1,287,146a6.36,6.36,0,0,1-1.32-4.27v-.41A6.85,6.85,0,0,1,287,137a4.54,4.54,0,0,1,3.81-1.71,5.61,5.61,0,0,1,2.12.38,3.82,3.82,0,0,1,1.44.93A3.46,3.46,0,0,1,295.38,138.85ZM292.87,142a3.65,3.65,0,0,0-3.95,0,2,2,0,0,0,0,3.15,3.21,3.21,0,0,0,2,.59,3.26,3.26,0,0,0,2-.59,2,2,0,0,0,0-3.15Z" fill="#003a50"/><path d="M457.39,147.22l-2.48,2v-2.25l2.73-2.26h1.86v11.9h-2.11Z" fill="#003a50"/><path d="M467.4,148.59a5,5,0,0,1,3.34,1.07,4.17,4.17,0,0,1-.05,6,5.37,5.37,0,0,1-3.54,1.08,5.75,5.75,0,0,1-3.56-1,3.16,3.16,0,0,1-1.29-2.68h2.11a1.53,1.53,0,0,0,.7,1.33,3.61,3.61,0,0,0,2,.49,3.17,3.17,0,0,0,2-.58,2,2,0,0,0,.7-1.68,2.05,2.05,0,0,0-.73-1.71,3.34,3.34,0,0,0-2.08-.58,3.54,3.54,0,0,0-1.91.42,1.84,1.84,0,0,0-.7.64l0,.12H462.3v-6.87h8.88v1.84h-6.77v3h0a1.91,1.91,0,0,1,.4-.31,3.89,3.89,0,0,1,.54-.27A5.66,5.66,0,0,1,467.4,148.59Z" fill="#003a50"/><path d="M474.1,156.44a1,1,0,0,1-.32-.8,1,1,0,0,1,.32-.81,1.24,1.24,0,0,1,.87-.3,1.2,1.2,0,0,1,.86.3,1,1,0,0,1,.33.81,1,1,0,0,1-.33.8,1.2,1.2,0,0,1-.86.3A1.24,1.24,0,0,1,474.1,156.44Z" fill="#003a50"/><path d="M486.68,155.81a7.73,7.73,0,0,1-7.37,0,3,3,0,0,1-1.37-2.56,2.7,2.7,0,0,1,.26-1.16,2.29,2.29,0,0,1,.66-.85,3.91,3.91,0,0,1,1.39-.78l.26-.06v-.09a3.32,3.32,0,0,1-.76-.29,3,3,0,0,1-.67-.44,2.35,2.35,0,0,1-.54-.76,2.41,2.41,0,0,1-.22-1,2.8,2.8,0,0,1,1.25-2.38,7,7,0,0,1,6.85,0,2.83,2.83,0,0,1,1.25,2.38,2.43,2.43,0,0,1-.22,1,2,2,0,0,1-.55.75,3.72,3.72,0,0,1-1.2.68l-.22.05v.09l.28.06a5.42,5.42,0,0,1,.62.27,3.43,3.43,0,0,1,.77.51,2.55,2.55,0,0,1,.62.82,2.63,2.63,0,0,1,.27,1.19A3,3,0,0,1,486.68,155.81Zm-5.79-1.35a3.84,3.84,0,0,0,2.1.48,3.94,3.94,0,0,0,2.1-.47,1.51,1.51,0,0,0,.74-1.35,1.49,1.49,0,0,0-.74-1.35,4.93,4.93,0,0,0-4.2,0,1.59,1.59,0,0,0,0,2.69Zm-.36-6.52a1.36,1.36,0,0,0,.64,1.19,4,4,0,0,0,3.65,0,1.42,1.42,0,0,0,0-2.39,3.94,3.94,0,0,0-3.62,0A1.38,1.38,0,0,0,480.53,147.94Z" fill="#003a50"/></g></svg>