<svg id="Слой_1" data-name="Слой 1" xmlns="http://www.w3.org/2000/svg" xmlns:xlink="http://www.w3.org/1999/xlink" viewBox="0 0 583.94 383.81"><defs><clipPath id="clip-path"><polygon points="83.19 0.42 83.19 36.57 0 36.57 0 209.82 91.69 209.82 91.69 230.09 236.75 230.09 236.75 383.39 582.24 383.39 582.24 0.42 83.19 0.42" fill="none"/></clipPath></defs><rect x="246.44" y="376.41" width="285.4" height="6.98" fill="#fff"/><polygon points="83.19 0.42 83.19 36.57 56.87 36.57 56.87 42.38 67.94 58.66 67.94 107.99 65.46 199.62 94 199.62 94 218.54 241.82 218.54 241.82 381.26 531.84 381.26 531.84 13.4 84.14 16.28 84.14 0.42 83.19 0.42" fill="#fff"/><polygon points="89.64 0.42 90.04 7.99 531.84 2.72 531.84 0.42 89.64 0.42" fill="#fff"/><g clip-path="url(#clip-path)"><rect x="-560.64" y="-643.16" width="1115.44" height="2194.74" fill="none" stroke="#003a50" stroke-miterlimit="10"/><polygon points="-535.82 442.83 -535.82 1528.62 530.66 1528.62 530.66 -618.71 -535.82 -618.86 -535.82 374.04 -535.82 442.83" fill="none" stroke="#003a50" stroke-miterlimit="10"/></g><rect x="541.58" y="74.65" width="4.56" height="87.58" fill="#fff"/><rect x="541.58" y="74.65" width="4.56" height="87.58" fill="none" stroke="#003a50" stroke-miterlimit="10"/><line x1="543.86" y1="162.23" x2="543.86" y2="74.65" fill="none" stroke="#003a50" stroke-miterlimit="10"/><rect x="541.58" y="157.81" width="4.56" height="4.42" fill="#fff"/><rect x="541.58" y="157.81" width="4.56" height="4.42" fill="none" stroke="#003a50" stroke-miterlimit="10"/><rect x="541.58" y="74.65" width="4.56" height="4.42" fill="#fff"/><rect x="541.58" y="74.65" width="4.56" height="4.42" fill="none" stroke="#003a50" stroke-miterlimit="10"/><rect x="541.58" y="116.23" width="4.56" height="4.42" fill="#fff"/><rect x="541.58" y="116.23" width="4.56" height="4.42" fill="none" stroke="#003a50" stroke-miterlimit="10"/><rect x="541.58" y="258.97" width="4.56" height="85.9" fill="#fff"/><rect x="541.58" y="258.97" width="4.56" height="85.9" fill="none" stroke="#003a50" stroke-miterlimit="10"/><line x1="543.86" y1="344.87" x2="543.86" y2="258.97" fill="none" stroke="#003a50" stroke-miterlimit="10"/><rect x="541.58" y="340.53" width="4.56" height="4.34" fill="#fff"/><rect x="541.58" y="340.53" width="4.56" height="4.34" fill="none" stroke="#003a50" stroke-miterlimit="10"/><rect x="541.58" y="258.97" width="4.56" height="4.34" fill="#fff"/><rect x="541.58" y="258.97" width="4.56" height="4.34" fill="none" stroke="#003a50" stroke-miterlimit="10"/><rect x="541.58" y="299.75" width="4.56" height="4.33" fill="#fff"/><rect x="541.58" y="299.75" width="4.56" height="4.34" fill="none" stroke="#003a50" stroke-miterlimit="10"/><g clip-path="url(#clip-path)"><path d="M119.45,191.39a3.17,3.17,0,0,0,2.91-1.95h1.78l4.74,2.82-2.15,3.5-2.47-1.35v11H114v-11l-2.46,1.35-2.15-3.5,4.77-2.82h2.39A3.21,3.21,0,0,0,119.45,191.39Z" fill="none" stroke="#003a50" stroke-miterlimit="10"/></g><rect x="103.33" y="182.2" width="31.57" height="30.42" fill="none" stroke="#003a50" stroke-miterlimit="10"/><rect x="218.86" y="115.29" width="31.65" height="31.61" fill="none" stroke="#003a50" stroke-miterlimit="10"/><g clip-path="url(#clip-path)"><path d="M230.68,129.67V119.39h8v10.28a3.29,3.29,0,0,1-3.3,3.29H234A3.29,3.29,0,0,1,230.68,129.67Z" fill="none" stroke="#003a50" stroke-miterlimit="10"/></g><polyline points="237.92 142.79 234.68 142.79 231.46 142.79" fill="none" stroke="#003a50" stroke-miterlimit="10"/><line x1="234.68" y1="132.96" x2="234.68" y2="142.79" fill="none" stroke="#003a50" stroke-miterlimit="10"/><rect x="248.85" y="16.28" width="34.83" height="30.54" fill="none" stroke="#003a50" stroke-miterlimit="10"/><rect x="96.86" y="16.52" width="115.74" height="29.57" fill="none" stroke="#003a50" stroke-miterlimit="10"/><g clip-path="url(#clip-path)"><path d="M111.74,20.71a.87.87,0,0,1,.49-.78.88.88,0,0,1,1.17.4,25,25,0,0,1,0,22,.87.87,0,1,1-1.56-.77,23.27,23.27,0,0,0,0-20.42A.81.81,0,0,1,111.74,20.71Z" fill="none" stroke="#003a50" stroke-miterlimit="10"/><path d="M116.58,20.71a.87.87,0,0,1,.49-.78.88.88,0,0,1,1.17.4,25,25,0,0,1,0,22,.87.87,0,1,1-1.56-.77,23.27,23.27,0,0,0,0-20.42A.81.81,0,0,1,116.58,20.71Z" fill="none" stroke="#003a50" stroke-miterlimit="10"/><path d="M121.42,20.71a.87.87,0,0,1,.49-.78.88.88,0,0,1,1.17.4,25.09,25.09,0,0,1,0,22,.87.87,0,0,1-1.57-.77,23.27,23.27,0,0,0,0-20.42A.92.92,0,0,1,121.42,20.71Z" fill="none" stroke="#003a50" stroke-miterlimit="10"/><path d="M126.26,20.71a.87.87,0,0,1,.49-.78.88.88,0,0,1,1.17.4,25.09,25.09,0,0,1,0,22,.87.87,0,0,1-1.57-.77,23.27,23.27,0,0,0,0-20.42A.92.92,0,0,1,126.26,20.71Z" fill="none" stroke="#003a50" stroke-miterlimit="10"/><path d="M131.1,20.71a.87.87,0,0,1,1.65-.38,25,25,0,0,1,0,22,.87.87,0,1,1-1.56-.77,23.27,23.27,0,0,0,0-20.42A.92.92,0,0,1,131.1,20.71Z" fill="none" stroke="#003a50" stroke-miterlimit="10"/><path d="M135.94,20.71a.87.87,0,0,1,1.65-.38,25,25,0,0,1,0,22,.87.87,0,1,1-1.56-.77,23.27,23.27,0,0,0,0-20.42A.8.8,0,0,1,135.94,20.71Z" fill="none" stroke="#003a50" stroke-miterlimit="10"/><path d="M106.91,20.71a.87.87,0,0,1,1.65-.38,25,25,0,0,1,0,22,.87.87,0,1,1-1.56-.77,23.27,23.27,0,0,0,0-20.42A.8.8,0,0,1,106.91,20.71Z" fill="none" stroke="#003a50" stroke-miterlimit="10"/><path d="M102.07,20.71a.87.87,0,0,1,1.65-.38,25,25,0,0,1,0,22,.87.87,0,1,1-1.56-.77,23.27,23.27,0,0,0,0-20.42A.92.92,0,0,1,102.07,20.71Z" fill="none" stroke="#003a50" stroke-miterlimit="10"/></g><line x1="96.86" y1="31.31" x2="212.6" y2="31.31" fill="none" stroke="#003a50" stroke-miterlimit="10"/><rect x="219" y="16.53" width="30.26" height="30.26" fill="none" stroke="#003a50" stroke-miterlimit="10"/><line x1="225.26" y1="31.65" x2="243.01" y2="31.65" fill="none" stroke="#003a50" stroke-miterlimit="10"/><line x1="234.13" y1="40.53" x2="234.13" y2="22.78" fill="none" stroke="#003a50" stroke-miterlimit="10"/><line x1="227.86" y1="37.93" x2="240.41" y2="25.38" fill="none" stroke="#003a50" stroke-miterlimit="10"/><line x1="240.41" y1="37.93" x2="227.86" y2="25.38" fill="none" stroke="#003a50" stroke-miterlimit="10"/><g clip-path="url(#clip-path)"><rect x="153.58" y="-34.11" width="40.34" height="34.69" fill="none" stroke="#003a50" stroke-miterlimit="10"/><rect x="96.86" y="-34.11" width="56.72" height="34.69" fill="none" stroke="#003a50" stroke-miterlimit="10"/><rect x="227.95" y="-34.33" width="34.02" height="34.02" fill="none" stroke="#003a50" stroke-miterlimit="10"/><rect x="321.51" y="-34.33" width="34.02" height="34.02" fill="none" stroke="#003a50" stroke-miterlimit="10"/><rect x="261.99" y="-34.33" width="93.55" height="34.02" fill="none" stroke="#003a50" stroke-miterlimit="10"/></g><rect x="260.12" y="178.63" width="34.02" height="34.02" fill="none" stroke="#003a50" stroke-miterlimit="10"/><g clip-path="url(#clip-path)"><path d="M269.52,208.05a4.64,4.64,0,1,1,4.64-4.64A4.63,4.63,0,0,1,269.52,208.05Z" fill="none" stroke="#003a50" stroke-miterlimit="10"/><path d="M269.52,192.57a4.64,4.64,0,1,1,4.64-4.64A4.63,4.63,0,0,1,269.52,192.57Z" fill="none" stroke="#003a50" stroke-miterlimit="10"/><path d="M284.61,208.05a4.64,4.64,0,1,1,4.64-4.64A4.63,4.63,0,0,1,284.61,208.05Z" fill="none" stroke="#003a50" stroke-miterlimit="10"/><path d="M284.61,192.57a4.64,4.64,0,1,1,4.64-4.64A4.63,4.63,0,0,1,284.61,192.57Z" fill="none" stroke="#003a50" stroke-miterlimit="10"/></g><rect x="254.24" y="219.15" width="26.5" height="148.24" fill="none" stroke="#003a50" stroke-miterlimit="10"/><g clip-path="url(#clip-path)"><path d="M276.93,232.62a.78.78,0,0,1,.7.43.78.78,0,0,1-.36,1,22.44,22.44,0,0,1-19.67,0,.78.78,0,0,1,.69-1.4,20.89,20.89,0,0,0,18.3,0A.68.68,0,0,1,276.93,232.62Z" fill="none" stroke="#003a50" stroke-miterlimit="10"/><path d="M276.93,237a.77.77,0,0,1,.7.44.78.78,0,0,1-.36,1,22.35,22.35,0,0,1-19.67,0,.78.78,0,0,1,.69-1.4,20.81,20.81,0,0,0,18.3,0A.68.68,0,0,1,276.93,237Z" fill="none" stroke="#003a50" stroke-miterlimit="10"/><path d="M276.93,241.29a.78.78,0,0,1,.7.43.78.78,0,0,1-.36,1.05,22.44,22.44,0,0,1-19.67,0,.78.78,0,0,1,.69-1.4,20.89,20.89,0,0,0,18.3,0A.68.68,0,0,1,276.93,241.29Z" fill="none" stroke="#003a50" stroke-miterlimit="10"/><path d="M276.93,245.62a.77.77,0,0,1,.7.44.78.78,0,0,1-.36,1,22.35,22.35,0,0,1-19.67,0,.78.78,0,0,1,.69-1.4,20.81,20.81,0,0,0,18.3,0A.68.68,0,0,1,276.93,245.62Z" fill="none" stroke="#003a50" stroke-miterlimit="10"/><path d="M276.93,250a.78.78,0,0,1,.7.43.78.78,0,0,1-.36,1.05,22.44,22.44,0,0,1-19.67,0,.78.78,0,0,1,.69-1.4,20.89,20.89,0,0,0,18.3,0A.68.68,0,0,1,276.93,250Z" fill="none" stroke="#003a50" stroke-miterlimit="10"/><path d="M276.93,254.29a.77.77,0,0,1,.7.44.78.78,0,0,1-.36,1,22.35,22.35,0,0,1-19.67,0,.78.78,0,0,1,.69-1.4,20.81,20.81,0,0,0,18.3,0A.68.68,0,0,1,276.93,254.29Z" fill="none" stroke="#003a50" stroke-miterlimit="10"/><path d="M276.93,228.28a.77.77,0,0,1,.7.44.79.79,0,0,1-.36,1.05,22.44,22.44,0,0,1-19.67,0,.78.78,0,0,1,.69-1.41,20.81,20.81,0,0,0,18.3,0A.81.81,0,0,1,276.93,228.28Z" fill="none" stroke="#003a50" stroke-miterlimit="10"/><path d="M276.93,224a.78.78,0,0,1,.7.43.78.78,0,0,1-.36,1.05,22.44,22.44,0,0,1-19.67,0,.78.78,0,0,1,.69-1.4,20.89,20.89,0,0,0,18.3,0A.68.68,0,0,1,276.93,224Z" fill="none" stroke="#003a50" stroke-miterlimit="10"/></g><line x1="267.44" y1="219.28" x2="267.44" y2="367.26" fill="none" stroke="#003a50" stroke-miterlimit="10"/><g clip-path="url(#clip-path)"><path d="M276.93,259.09a.77.77,0,0,1,.7.44.78.78,0,0,1-.36,1.05,22.44,22.44,0,0,1-19.67,0,.78.78,0,0,1,.69-1.41,20.81,20.81,0,0,0,18.3,0A.81.81,0,0,1,276.93,259.09Z" fill="none" stroke="#003a50" stroke-miterlimit="10"/><path d="M276.93,263.43a.78.78,0,0,1,.7.43.78.78,0,0,1-.36,1.05,22.44,22.44,0,0,1-19.67,0,.78.78,0,0,1,.69-1.4,20.89,20.89,0,0,0,18.3,0A.68.68,0,0,1,276.93,263.43Z" fill="none" stroke="#003a50" stroke-miterlimit="10"/><path d="M276.93,267.76a.77.77,0,0,1,.7.44.79.79,0,0,1-.36,1.05,22.44,22.44,0,0,1-19.67,0,.78.78,0,0,1,.69-1.41,20.81,20.81,0,0,0,18.3,0A.81.81,0,0,1,276.93,267.76Z" fill="none" stroke="#003a50" stroke-miterlimit="10"/></g><rect x="280.74" y="219.16" width="34.54" height="26.5" fill="none" stroke="#003a50" stroke-miterlimit="10"/><g clip-path="url(#clip-path)"><path d="M294.2,241.84a.77.77,0,0,0,.44.7.78.78,0,0,0,1-.36,22.35,22.35,0,0,0,0-19.67.78.78,0,0,0-1.4.69,20.81,20.81,0,0,1,0,18.3A.68.68,0,0,0,294.2,241.84Z" fill="none" stroke="#003a50" stroke-miterlimit="10"/><path d="M298.53,241.84a.77.77,0,0,0,.44.7.78.78,0,0,0,1-.36,22.44,22.44,0,0,0,0-19.67.78.78,0,0,0-1.41.69,20.81,20.81,0,0,1,0,18.3A.81.81,0,0,0,298.53,241.84Z" fill="none" stroke="#003a50" stroke-miterlimit="10"/><path d="M289.86,241.84a.77.77,0,0,0,.44.7.78.78,0,0,0,1.05-.36,22.44,22.44,0,0,0,0-19.67.78.78,0,0,0-1.41.69,20.81,20.81,0,0,1,0,18.3A.81.81,0,0,0,289.86,241.84Z" fill="none" stroke="#003a50" stroke-miterlimit="10"/><path d="M285.53,241.84a.77.77,0,0,0,.44.7.78.78,0,0,0,1-.36,22.35,22.35,0,0,0,0-19.67.78.78,0,0,0-1.4.69,20.81,20.81,0,0,1,0,18.3A.68.68,0,0,0,285.53,241.84Z" fill="none" stroke="#003a50" stroke-miterlimit="10"/></g><line x1="280.87" y1="232.35" x2="315.14" y2="232.35" fill="none" stroke="#003a50" stroke-miterlimit="10"/><rect x="280.74" y="340.91" width="34.54" height="26.5" fill="none" stroke="#003a50" stroke-miterlimit="10"/><g clip-path="url(#clip-path)"><path d="M294.2,363.59a.77.77,0,0,0,.44.7.78.78,0,0,0,1-.36,22.35,22.35,0,0,0,0-19.67.78.78,0,0,0-1.4.69,20.81,20.81,0,0,1,0,18.3A.68.68,0,0,0,294.2,363.59Z" fill="none" stroke="#003a50" stroke-miterlimit="10"/><path d="M298.53,363.59a.77.77,0,0,0,.44.7.78.78,0,0,0,1-.36,22.44,22.44,0,0,0,0-19.67.78.78,0,0,0-1.41.69,20.81,20.81,0,0,1,0,18.3A.81.81,0,0,0,298.53,363.59Z" fill="none" stroke="#003a50" stroke-miterlimit="10"/><path d="M289.86,363.59a.77.77,0,0,0,.44.7.78.78,0,0,0,1.05-.36,22.44,22.44,0,0,0,0-19.67.78.78,0,0,0-1.41.69,20.81,20.81,0,0,1,0,18.3A.81.81,0,0,0,289.86,363.59Z" fill="none" stroke="#003a50" stroke-miterlimit="10"/><path d="M285.53,363.59a.77.77,0,0,0,.44.7.78.78,0,0,0,1-.36,22.35,22.35,0,0,0,0-19.67.78.78,0,0,0-1.4.69,20.81,20.81,0,0,1,0,18.3A.68.68,0,0,0,285.53,363.59Z" fill="none" stroke="#003a50" stroke-miterlimit="10"/></g><line x1="280.87" y1="354.1" x2="315.14" y2="354.1" fill="none" stroke="#003a50" stroke-miterlimit="10"/><rect x="428.36" y="158.99" width="102.05" height="16.75" fill="none" stroke="#003a50" stroke-miterlimit="10"/><polygon points="522.39 166.83 479.49 170.31 436.39 166.83 436.39 164.41 522.39 164.41 522.39 166.83" fill="none" stroke="#003a50" stroke-miterlimit="10"/><g clip-path="url(#clip-path)"><rect x="400.39" y="-17.12" width="102.05" height="16.75" fill="none" stroke="#003a50" stroke-miterlimit="10"/></g><rect x="400.39" y="192.99" width="102.05" height="16.75" fill="none" stroke="#003a50" stroke-miterlimit="10"/><polygon points="408.42 201.9 451.31 198.43 494.42 201.9 494.42 204.32 408.42 204.32 408.42 201.9" fill="none" stroke="#003a50" stroke-miterlimit="10"/><g clip-path="url(#clip-path)"><path d="M305.76,78.21a1.26,1.26,0,0,1,.94,1.51,13.78,13.78,0,1,0,26.87,6.16,1.26,1.26,0,0,1,2.46.57,16.3,16.3,0,0,1-31.78-7.29A1.26,1.26,0,0,1,305.76,78.21Z" fill="none" stroke="#003a50" stroke-miterlimit="10"/><path d="M360.93,87.93a1.24,1.24,0,0,1,1.74-.33A13.79,13.79,0,1,0,378.2,64.81a1.26,1.26,0,0,1,1.41-2.08,16.3,16.3,0,1,1-18.35,27A1.25,1.25,0,0,1,360.93,87.93Z" fill="none" stroke="#003a50" stroke-miterlimit="10"/><path d="M363.43,40.53a1.26,1.26,0,0,1-1.33-1.18A13.78,13.78,0,1,0,334.58,41a1.26,1.26,0,0,1-2.52.16,16.3,16.3,0,0,1,32.55-1.94A1.26,1.26,0,0,1,363.43,40.53Z" fill="none" stroke="#003a50" stroke-miterlimit="10"/><path d="M320,94.83a12.69,12.69,0,0,1-12-15.48l2-8.88a3.53,3.53,0,0,1,4.24-2.68l13.44,3.08a23.73,23.73,0,0,0,6,9.44l-1,4.2C331.35,90.47,326.07,95,320,94.83Z" fill="none" stroke="#003a50" stroke-miterlimit="10"/><path d="M362.75,86.3l-2.32-1.6a23.81,23.81,0,0,0,13.64-21.32l2.52,1.72c5,3.44,7.4,10,5,15.64A12.7,12.7,0,0,1,362.75,86.3Z" fill="none" stroke="#003a50" stroke-miterlimit="10"/><path d="M335.91,44l-.12-2c-.36-6.12,3.4-12,9.32-13.48A12.66,12.66,0,0,1,361,40.07l.12,1.83A24,24,0,0,0,344.47,40,23.32,23.32,0,0,0,335.91,44Z" fill="none" stroke="#003a50" stroke-miterlimit="10"/><path d="M333.67,80.3a23.73,23.73,0,0,1-6-9.44,16.51,16.51,0,0,1-.6-2A23.85,23.85,0,0,1,335.91,44a23.5,23.5,0,0,1,8.56-4,23.87,23.87,0,0,1,28.92,17.4,22.12,22.12,0,0,1,.68,6A23.81,23.81,0,0,1,360.43,84.7,22.85,22.85,0,0,1,356,86.3,23.8,23.8,0,0,1,333.67,80.3Z" fill="none" stroke="#003a50" stroke-miterlimit="10"/><path d="M131.76,167.36H103.19V144.29h28.57a11.54,11.54,0,1,1,0,23.07Z" fill="none" stroke="#003a50" stroke-miterlimit="10"/></g><rect x="103.19" y="144.29" width="11.08" height="23.08" fill="none" stroke="#003a50" stroke-miterlimit="10"/><rect x="218.86" y="178.64" width="98.15" height="33.86" fill="none" stroke="#003a50" stroke-miterlimit="10"/><rect x="218.86" y="146.99" width="31.65" height="31.65" fill="none" stroke="#003a50" stroke-miterlimit="10"/><polyline points="222.16 156.58 222.16 162.84 222.16 169.08" fill="none" stroke="#003a50" stroke-miterlimit="10"/><line x1="234.7" y1="162.85" x2="222.16" y2="162.85" fill="none" stroke="#003a50" stroke-miterlimit="10"/><g clip-path="url(#clip-path)"><path d="M244.24,149H230.76a3.24,3.24,0,0,0-3.24,3.24v21.21a3.23,3.23,0,0,0,3.24,3.23h13.48a3.23,3.23,0,0,0,3.24-3.23V152.21A3.24,3.24,0,0,0,244.24,149Z" fill="none" stroke="#003a50" stroke-miterlimit="10"/><path d="M236.26,162.85a2.24,2.24,0,1,0-2.23,2.23A2.23,2.23,0,0,0,236.26,162.85Z" fill="none" stroke="#003a50" stroke-miterlimit="10"/></g><polygon points="168.65 182.1 103.06 182.31 103.06 212.86 168.65 212.65 168.65 182.1" fill="none" stroke="#003a50" stroke-miterlimit="10"/><g clip-path="url(#clip-path)"><path d="M137.63,188.12v23a3.36,3.36,0,0,0,3.35,3.36h22.25a3.37,3.37,0,0,0,3.36-3.36v-23a3.37,3.37,0,0,0-3.36-3.36H141A3.36,3.36,0,0,0,137.63,188.12Z" fill="none" stroke="#003a50" stroke-miterlimit="10"/><circle cx="152.11" cy="199.62" r="2.27" fill="none" stroke="#003a50" stroke-miterlimit="10"/><rect x="253.19" y="383.82" width="34.02" height="105.94" fill="none" stroke="#003a50" stroke-miterlimit="10"/><path d="M472.81,62.54v-41H427V64.75H470.6A2.21,2.21,0,0,0,472.81,62.54Z" fill="none" stroke="#003a50" stroke-miterlimit="10"/><path d="M518.68,62.77V21.51H472.91V62.77a2,2,0,0,0,2,2H516.7A2,2,0,0,0,518.68,62.77Z" fill="none" stroke="#003a50" stroke-miterlimit="10"/><path d="M427,64.75a3.11,3.11,0,0,1-3.32,2.83h-4.23a3.12,3.12,0,0,1-3.33-2.83V16.55H529.55V64.33a3.1,3.1,0,0,1-3.32,2.82H522a3.1,3.1,0,0,1-3.32-2.82V21.5H427Z" fill="none" stroke="#003a50" stroke-miterlimit="10"/></g><rect x="427.04" y="21.51" width="91.64" height="9.25" fill="none" stroke="#003a50" stroke-miterlimit="10"/><g clip-path="url(#clip-path)"><rect x="446.13" y="383.87" width="22.68" height="22.68" fill="none" stroke="#003a50" stroke-miterlimit="10"/><rect x="312.04" y="383.87" width="22.68" height="22.68" fill="none" stroke="#003a50" stroke-miterlimit="10"/><rect x="339.51" y="383.87" width="102.05" height="113.39" fill="none" stroke="#003a50" stroke-miterlimit="10"/></g><rect x="367.47" y="344.37" width="22.68" height="22.68" fill="none" stroke="#003a50" stroke-miterlimit="10"/><g clip-path="url(#clip-path)"><path d="M372.31,349.21a9.19,9.19,0,1,1,0,13A9.19,9.19,0,0,1,372.31,349.21Z" fill="none" stroke="#003a50" stroke-miterlimit="10"/><path d="M371.68,349.9c1.7.17,3.42-.48,5.07,1.17,2.44,2.44-.15,5,2.3,7.45s5-.13,7.45,2.3" fill="none" stroke="#003a50" stroke-miterlimit="10"/></g><rect x="501.57" y="344.37" width="22.68" height="22.68" fill="none" stroke="#003a50" stroke-miterlimit="10"/><g clip-path="url(#clip-path)"><path d="M506.41,349.21a9.19,9.19,0,1,1,0,13A9.19,9.19,0,0,1,506.41,349.21Z" fill="none" stroke="#003a50" stroke-miterlimit="10"/><path d="M505.78,349.9c1.7.17,3.41-.48,5.06,1.17,2.44,2.44-.14,5,2.3,7.45s5-.13,7.46,2.3" fill="none" stroke="#003a50" stroke-miterlimit="10"/></g><rect x="394.72" y="253.66" width="102.05" height="113.39" fill="none" stroke="#003a50" stroke-miterlimit="10"/><g clip-path="url(#clip-path)"><path d="M404.72,263.4h82a2.09,2.09,0,0,1,2.09,2.08v67.64H402.64V265.48A2.08,2.08,0,0,1,404.72,263.4Z" fill="none" stroke="#003a50" stroke-miterlimit="10"/><rect x="446.61" y="336.74" width="42.5" height="22.88" rx="1.98" fill="none" stroke="#003a50" stroke-miterlimit="10"/><rect x="402.38" y="336.74" width="42.5" height="22.88" rx="1.98" fill="none" stroke="#003a50" stroke-miterlimit="10"/></g><line x1="402.38" y1="319.27" x2="489.11" y2="319.27" fill="none" stroke="#003a50" stroke-miterlimit="10"/><rect x="168.88" y="118.91" width="43.96" height="93.6" fill="none" stroke="#003a50" stroke-miterlimit="10"/><g clip-path="url(#clip-path)"><rect x="174.04" y="123.02" width="33.22" height="85.62" rx="13.7" fill="none" stroke="#003a50" stroke-miterlimit="10"/><ellipse cx="190.74" cy="193.83" rx="2.28" ry="2.24" fill="none" stroke="#003a50" stroke-miterlimit="10"/><path d="M166,117.66v-3.08a38.72,38.72,0,0,0-38.71-38.72v41.8" fill="none" stroke="#003a50" stroke-miterlimit="10" stroke-width="1.6"/><path d="M369.17,177.42v3.52a44.37,44.37,0,0,1-44.38,44.38v-47.9" fill="none" stroke="#003a50" stroke-miterlimit="10" stroke-width="1.6"/><path d="M56.87,109H52.8A51.11,51.11,0,0,1,1.68,57.9H56.87" fill="none" stroke="#003a50" stroke-miterlimit="10" stroke-width="1.6"/><path d="M57.4,375.65H53.34A51.13,51.13,0,0,0,2.21,426.77H57.4" fill="none" stroke="#003a50" stroke-miterlimit="10" stroke-width="1.6"/><rect x="51.63" y="36.33" width="16.32" height="22.32" fill="#003a50"/><rect x="51.63" y="107.99" width="16.32" height="100.85" fill="#003a50"/><rect x="51.63" y="36.34" width="45.82" height="10" fill="#003a50"/><rect x="51.63" y="198.13" width="51.56" height="11.71" fill="#003a50"/><rect x="91.48" y="198.13" width="11.71" height="31.86" fill="#003a50"/><rect x="51.63" y="201.34" width="10.82" height="175.07" fill="#003a50"/><rect x="86.69" y="-32.33" width="10.75" height="78.67" fill="#003a50"/><rect x="86.69" y="-0.04" width="447.72" height="16.32" fill="#003a50"/><rect x="459.44" y="172.66" width="74.97" height="21.34" fill="#003a50"/><rect x="246.44" y="367.33" width="287.97" height="16.26" fill="#003a50"/><rect x="92.44" y="212.5" width="160.47" height="17.49" fill="#003a50"/><rect x="236.66" y="214.33" width="17.28" height="252.92" fill="#003a50"/><polygon points="530.41 258.45 530.41 162.71 579.74 162.71 568.08 258.45 530.41 258.45" fill="#003a50" fill-rule="evenodd"/><rect x="530.41" y="-21.63" width="25.28" height="96.07" fill="#003a50"/><rect x="534.41" y="48.53" width="44.33" height="25.9" fill="#003a50"/><rect x="530.41" y="345.37" width="25.28" height="96.07" fill="#003a50"/><rect x="165.19" y="114.03" width="50.48" height="6.38" fill="#003a50"/><rect x="62.44" y="114.03" width="65.7" height="6.38" fill="#003a50"/><rect x="62.44" y="150.53" width="39.24" height="6.38" fill="#003a50"/><rect x="96.82" y="117.22" width="6.38" height="82.4" fill="#003a50"/><rect x="315.21" y="174.67" width="10.41" height="6.38" fill="#003a50"/><rect x="315.21" y="174.67" width="6.38" height="87.74" fill="#003a50"/><rect x="315.21" y="317.15" width="6.38" height="59.44" fill="#003a50"/><rect x="212.48" y="114.03" width="6.38" height="100.79" fill="#003a50"/><rect x="51.63" y="-26.91" width="6.38" height="73.25" fill="#003a50"/><rect x="250.51" y="212.5" width="67.89" height="6.38" fill="#003a50"/><rect x="368.26" y="174.67" width="102.25" height="6.38" fill="#003a50"/><rect x="212.48" y="7" width="6.38" height="39.33" fill="#003a50"/><rect x="221.48" y="-34.33" width="6.38" height="40.24" fill="#003a50"/><rect x="193.92" y="-34.4" width="6.38" height="40.31" fill="#003a50"/><rect x="83.1" y="-21.34" width="6.38" height="58.66" fill="#003a50"/><rect x="209.29" y="251.83" width="6.38" height="176.75" fill="#003a50"/><rect x="83.55" y="245.77" width="6.38" height="121.57" fill="#003a50"/><rect x="84.18" y="245.77" width="131.33" height="6.38" fill="#003a50"/><rect x="58.35" y="364.14" width="31.58" height="6.38" fill="#003a50"/></g><g clip-path="url(#clip-path)"><path d="M307.17,282.59h-5.82v-1.84h8.86v1.84l-4.52,2.65v.07H307a3.87,3.87,0,0,1,2.79,1,3.5,3.5,0,0,1,1.06,2.67,3.32,3.32,0,0,1-1.33,2.82,7,7,0,0,1-7.24,0,3.36,3.36,0,0,1-1.33-2.86v-.32H303V289c0,1.37,1,2,2.84,2s2.84-.67,2.84-2-.95-2-2.84-2H302.6v-1.67l4.57-2.68Z" fill="#003a50"/><path d="M312.91,292.52a1,1,0,0,1-.32-.8,1,1,0,0,1,.32-.81,1.41,1.41,0,0,1,1.74,0,1.07,1.07,0,0,1,.32.81,1,1,0,0,1-.32.8,1.41,1.41,0,0,1-1.74,0Z" fill="#003a50"/><path d="M318.82,283.31l-2.49,1.95V283l2.73-2.27h1.86v11.91h-2.1Z" fill="#003a50"/><path d="M456.65,228.3l-2.48,1.95V228l2.73-2.27h1.86v11.91h-2.11Z" fill="#003a50"/><path d="M471.15,237.65h-9.93v-1.56a2.74,2.74,0,0,1,.58-1.74,4,4,0,0,1,1.45-1.2c.5-.25,1.12-.54,1.87-.86s1.32-.56,1.87-.77a4.23,4.23,0,0,0,1.45-.92,1.78,1.78,0,0,0,.57-1.3q0-1.89-2.67-1.89t-2.67,2.16V230h-2.11v-.41a3.62,3.62,0,0,1,1.26-3,5.39,5.39,0,0,1,3.52-1,5.65,5.65,0,0,1,3.51,1,3.29,3.29,0,0,1,1.27,2.75,3.12,3.12,0,0,1-.56,1.83,4.18,4.18,0,0,1-1.4,1.31c-.6.34-1.21.65-1.84.93s-1.23.52-1.82.75a5.46,5.46,0,0,0-1.41.74,1.26,1.26,0,0,0-.56,1h7.62Z" fill="#003a50"/><path d="M473.25,237.52a1,1,0,0,1-.32-.8,1.07,1.07,0,0,1,.32-.81,1.25,1.25,0,0,1,.88-.3,1.22,1.22,0,0,1,.86.3,1,1,0,0,1,.32.81,1,1,0,0,1-.32.8,1.22,1.22,0,0,1-.86.3A1.25,1.25,0,0,1,473.25,237.52Z" fill="#003a50"/><path d="M480.36,237.65H478l5.42-10H476.5v-1.88h9.29v1.88Z" fill="#003a50"/><path d="M459.22,104.67l-2.48,2v-2.24l2.73-2.27h1.86V114h-2.11Z" fill="#003a50"/><path d="M467.05,114H464.7l5.42-10h-6.93v-1.88h9.29V104Z" fill="#003a50"/><path d="M473.9,113.89a1,1,0,0,1-.32-.81,1.06,1.06,0,0,1,.32-.8,1.25,1.25,0,0,1,.88-.3,1.22,1.22,0,0,1,.86.3,1,1,0,0,1,.32.8,1,1,0,0,1-.32.81,1.22,1.22,0,0,1-.86.3A1.25,1.25,0,0,1,473.9,113.89Z" fill="#003a50"/><path d="M487.52,105.47h-2.21s0-.06,0-.18a2.94,2.94,0,0,0-.22-.44,2.63,2.63,0,0,0-.39-.49A1.67,1.67,0,0,0,484,104a2.91,2.91,0,0,0-1-.17,2.55,2.55,0,0,0-2.16,1,4.51,4.51,0,0,0-.76,2.69h.06a1.64,1.64,0,0,1,.44-.44,4.24,4.24,0,0,1,.61-.36,4.06,4.06,0,0,1,1-.31,6.06,6.06,0,0,1,1.21-.12,5,5,0,0,1,3.37,1.11,3.52,3.52,0,0,1,1.31,2.8,3.59,3.59,0,0,1-1.36,2.9,5.54,5.54,0,0,1-3.61,1.11,4.81,4.81,0,0,1-3.87-1.55,6.35,6.35,0,0,1-1.32-4.26V108a6.85,6.85,0,0,1,1.32-4.31A4.52,4.52,0,0,1,483,102a5.64,5.64,0,0,1,2.12.37,4,4,0,0,1,1.44.94A3.45,3.45,0,0,1,487.52,105.47Zm-2.5,3.15a3.67,3.67,0,0,0-4,0,2,2,0,0,0,0,3.14,3.63,3.63,0,0,0,4,0,2,2,0,0,0,0-3.14Z" fill="#003a50"/><path d="M136.17,121.34h-5.82V119.5h8.86v1.84L134.69,124v.07H136a3.86,3.86,0,0,1,2.79,1,3.52,3.52,0,0,1,1.05,2.66,3.33,3.33,0,0,1-1.33,2.83,7,7,0,0,1-7.24,0,3.36,3.36,0,0,1-1.33-2.86v-.32H132v.32c0,1.36.95,2,2.84,2s2.84-.67,2.84-2-.95-2-2.84-2H131.6v-1.67l4.57-2.68Z" fill="#003a50"/><path d="M141.91,131.27a1,1,0,0,1-.32-.8,1.07,1.07,0,0,1,.32-.81,1.41,1.41,0,0,1,1.74,0,1.07,1.07,0,0,1,.32.81,1,1,0,0,1-.32.8,1.41,1.41,0,0,1-1.74,0Z" fill="#003a50"/><path d="M155.53,122.85h-2.21s0-.06,0-.17a2.53,2.53,0,0,0-.22-.44,2.4,2.4,0,0,0-.39-.5,1.77,1.77,0,0,0-.71-.41,2.93,2.93,0,0,0-1-.16,2.52,2.52,0,0,0-2.15,1,4.44,4.44,0,0,0-.76,2.69h.06a1.49,1.49,0,0,1,.44-.43,3.9,3.9,0,0,1,.6-.37,4,4,0,0,1,.95-.3,5.56,5.56,0,0,1,1.22-.13,5,5,0,0,1,3.37,1.11,3.52,3.52,0,0,1,1.31,2.8,3.59,3.59,0,0,1-1.37,2.91,5.55,5.55,0,0,1-3.6,1.1,4.81,4.81,0,0,1-3.87-1.54,6.38,6.38,0,0,1-1.32-4.27v-.41a6.85,6.85,0,0,1,1.32-4.31,4.52,4.52,0,0,1,3.8-1.71,5.66,5.66,0,0,1,2.13.37,4,4,0,0,1,1.44.94A3.45,3.45,0,0,1,155.53,122.85ZM153,126a3.65,3.65,0,0,0-4,0,2,2,0,0,0,0,3.15,3.63,3.63,0,0,0,4,0,2,2,0,0,0,0-3.15Z" fill="#003a50"/><path d="M88.16,90.4H86.05V87.75h-7V85.91l6.3-7.42h2.79v7.42h1.59v1.84H88.16Zm-2.11-4.49V80.58H86l-4.47,5.28v0Z" fill="#003a50"/><path d="M91.44,90.27a1,1,0,0,1-.33-.81,1,1,0,0,1,.33-.81,1.44,1.44,0,0,1,1.73,0,1,1,0,0,1,.33.81,1,1,0,0,1-.33.81,1.44,1.44,0,0,1-1.73,0Z" fill="#003a50"/><path d="M105.06,81.84h-2.21s0-.06,0-.17a3.24,3.24,0,0,0-.21-.44,2.69,2.69,0,0,0-.39-.5,2,2,0,0,0-.71-.41,3,3,0,0,0-1-.16,2.49,2.49,0,0,0-2.15,1,4.39,4.39,0,0,0-.77,2.68h.06a1.8,1.8,0,0,1,.44-.43,4.31,4.31,0,0,1,.61-.37,4.87,4.87,0,0,1,.95-.3,5.49,5.49,0,0,1,1.22-.13,5.05,5.05,0,0,1,3.37,1.11,3.51,3.51,0,0,1,1.3,2.8,3.57,3.57,0,0,1-1.36,2.91,5.49,5.49,0,0,1-3.6,1.1A4.81,4.81,0,0,1,96.69,89a6.36,6.36,0,0,1-1.32-4.27v-.41A6.85,6.85,0,0,1,96.69,80a4.5,4.5,0,0,1,3.8-1.71,5.66,5.66,0,0,1,2.13.38,3.75,3.75,0,0,1,1.43.94A3.44,3.44,0,0,1,105.06,81.84ZM102.55,85a3.65,3.65,0,0,0-4,0,1.88,1.88,0,0,0-.78,1.58,1.85,1.85,0,0,0,.77,1.57,3.21,3.21,0,0,0,2,.59,3.26,3.26,0,0,0,2-.59,2,2,0,0,0,0-3.15Z" fill="#003a50"/></g></svg>