<svg id="Слой_1" data-name="Слой 1" xmlns="http://www.w3.org/2000/svg" xmlns:xlink="http://www.w3.org/1999/xlink" viewBox="0 0 581.1 382.68"><defs><clipPath id="clip-path"><polygon points="235.93 0.68 235.93 84.11 0 84.11 0 382.25 580.82 382.25 580.82 0.68 235.93 0.68" fill="none"/></clipPath></defs><polygon points="60.72 377.9 61.34 382.25 531.06 382.25 531.05 377.9 60.72 377.9" fill="#fff"/><polygon points="245.65 9.46 245.65 98.5 58.99 96.14 67.15 274.77 67.15 324.39 67.22 369.53 531.05 369.53 531.05 9.46 245.65 9.46" fill="#fff"/><rect x="241.02" y="0.68" width="290.02" height="13.64" fill="#fff"/><g clip-path="url(#clip-path)"><rect x="-561.43" y="-1010.11" width="1115.44" height="2194.74" fill="none" stroke="#003a50" stroke-miterlimit="10"/><polygon points="-536.61 75.88 -536.61 1161.68 529.87 1161.68 529.87 -985.66 -536.61 -985.81 -536.61 7.1 -536.61 75.88" fill="none" stroke="#003a50" stroke-miterlimit="10"/></g><rect x="540.78" y="259.04" width="4.56" height="86.27" fill="#fff"/><rect x="540.78" y="259.04" width="4.56" height="86.27" fill="none" stroke="#003a50" stroke-miterlimit="10"/><line x1="543.06" y1="345.3" x2="543.06" y2="259.04" fill="none" stroke="#003a50" stroke-miterlimit="10"/><rect x="540.78" y="340.95" width="4.56" height="4.36" fill="#fff"/><rect x="540.78" y="340.95" width="4.56" height="4.36" fill="none" stroke="#003a50" stroke-miterlimit="10"/><rect x="540.78" y="259.03" width="4.56" height="4.36" fill="#fff"/><rect x="540.78" y="259.03" width="4.56" height="4.36" fill="none" stroke="#003a50" stroke-miterlimit="10"/><rect x="540.78" y="299.99" width="4.56" height="4.36" fill="#fff"/><rect x="540.78" y="299.99" width="4.56" height="4.36" fill="none" stroke="#003a50" stroke-miterlimit="10"/><rect x="540.78" y="74.99" width="4.56" height="87.3" fill="#fff"/><rect x="540.78" y="74.99" width="4.56" height="87.3" fill="none" stroke="#003a50" stroke-miterlimit="10"/><line x1="543.06" y1="162.29" x2="543.06" y2="74.99" fill="none" stroke="#003a50" stroke-miterlimit="10"/><rect x="540.78" y="157.88" width="4.56" height="4.41" fill="#fff"/><rect x="540.78" y="157.88" width="4.56" height="4.41" fill="none" stroke="#003a50" stroke-miterlimit="10"/><rect x="540.78" y="74.99" width="4.56" height="4.41" fill="#fff"/><rect x="540.78" y="74.99" width="4.56" height="4.41" fill="none" stroke="#003a50" stroke-miterlimit="10"/><rect x="540.78" y="116.43" width="4.56" height="4.41" fill="#fff"/><rect x="540.78" y="116.43" width="4.56" height="4.41" fill="none" stroke="#003a50" stroke-miterlimit="10"/><rect x="102.09" y="97.66" width="43.96" height="95.52" fill="none" stroke="#003a50" stroke-miterlimit="10"/><g clip-path="url(#clip-path)"><rect x="107.67" y="101.86" width="33.22" height="87.39" rx="13.7" fill="none" stroke="#003a50" stroke-miterlimit="10"/><circle cx="124.19" cy="174.12" r="2.28" transform="translate(-26.29 22.14) rotate(-9.22)" fill="none" stroke="#003a50" stroke-miterlimit="10"/><path d="M162.6,164.59v28.57h23.07V164.59a11.54,11.54,0,1,0-23.07,0Z" fill="none" stroke="#003a50" stroke-miterlimit="10"/></g><rect x="162.6" y="182.07" width="23.08" height="11.08" fill="none" stroke="#003a50" stroke-miterlimit="10"/><g clip-path="url(#clip-path)"><path d="M158.69,240.46a3.16,3.16,0,0,0,2.9-2h1.79l4.73,2.83L166,244.83l-2.46-1.35v11H153.2v-11l-2.46,1.35-2.15-3.49,4.77-2.83h2.39A3.2,3.2,0,0,0,158.69,240.46Z" fill="none" stroke="#003a50" stroke-miterlimit="10"/></g><rect x="142.57" y="230.8" width="31.57" height="30.9" fill="none" stroke="#003a50" stroke-miterlimit="10"/><g clip-path="url(#clip-path)"><rect x="253.45" y="-147.79" width="26.5" height="148.24" fill="none" stroke="#003a50" stroke-miterlimit="10"/><line x1="266.64" y1="-147.66" x2="266.64" y2="0.32" fill="none" stroke="#003a50" stroke-miterlimit="10"/><rect x="279.94" y="-26.04" width="34.54" height="26.5" fill="none" stroke="#003a50" stroke-miterlimit="10"/></g><rect x="269.54" y="331.77" width="34.02" height="34.02" fill="none" stroke="#003a50" stroke-miterlimit="10"/><g clip-path="url(#clip-path)"><path d="M299,356.39a4.64,4.64,0,1,1-4.64-4.64A4.64,4.64,0,0,1,299,356.39Z" fill="none" stroke="#003a50" stroke-miterlimit="10"/><path d="M283.47,356.39a4.64,4.64,0,1,1-4.63-4.64A4.63,4.63,0,0,1,283.47,356.39Z" fill="none" stroke="#003a50" stroke-miterlimit="10"/><path d="M299,341.3a4.64,4.64,0,1,1-4.64-4.64A4.64,4.64,0,0,1,299,341.3Z" fill="none" stroke="#003a50" stroke-miterlimit="10"/><path d="M283.47,341.3a4.64,4.64,0,1,1-4.63-4.64A4.63,4.63,0,0,1,283.47,341.3Z" fill="none" stroke="#003a50" stroke-miterlimit="10"/></g><rect x="427.57" y="186.97" width="102.05" height="17.01" fill="none" stroke="#003a50" stroke-miterlimit="10"/><polygon points="521.59 196.01 478.7 192.49 435.59 196.01 435.59 198.47 521.59 198.47 521.59 196.01" fill="none" stroke="#003a50" stroke-miterlimit="10"/><rect x="338.61" y="163.9" width="102.05" height="17.01" fill="none" stroke="#003a50" stroke-miterlimit="10"/><polygon points="346.63 171.86 389.53 175.39 432.63 171.86 432.63 169.41 346.63 169.41 346.63 171.86" fill="none" stroke="#003a50" stroke-miterlimit="10"/><g clip-path="url(#clip-path)"><rect x="354.58" y="381.97" width="175.03" height="17.01" fill="none" stroke="#003a50" stroke-miterlimit="10"/></g><rect x="213.36" y="331.64" width="152.36" height="34.28" fill="none" stroke="#003a50" stroke-miterlimit="10"/><g clip-path="url(#clip-path)"><path d="M321.92,246a1.27,1.27,0,0,1,.95,1.51,13.78,13.78,0,0,0,26.87,6.16,1.26,1.26,0,1,1,2.46.56A16.3,16.3,0,1,1,320.42,247,1.25,1.25,0,0,1,321.92,246Z" fill="none" stroke="#003a50" stroke-miterlimit="10"/><path d="M377.09,255.76a1.26,1.26,0,0,1,1.75-.34,13.79,13.79,0,0,0,15.53-22.78,1.26,1.26,0,1,1,1.41-2.08,16.3,16.3,0,0,1-18.35,26.94A1.25,1.25,0,0,1,377.09,255.76Z" fill="none" stroke="#003a50" stroke-miterlimit="10"/><path d="M379.6,208.35a1.26,1.26,0,0,1-1.33-1.18,13.78,13.78,0,1,0-27.52,1.63,1.26,1.26,0,0,1-2.52.15A16.3,16.3,0,1,1,380.78,207,1.26,1.26,0,0,1,379.6,208.35Z" fill="none" stroke="#003a50" stroke-miterlimit="10"/><path d="M336.12,262.65a12.69,12.69,0,0,1-12-15.48l2-8.88a3.53,3.53,0,0,1,4.24-2.68l13.44,3.08a23.73,23.73,0,0,0,6,9.44l-1,4.2C347.52,258.29,342.24,262.85,336.12,262.65Z" fill="none" stroke="#003a50" stroke-miterlimit="10"/><path d="M378.92,254.13l-2.32-1.6a23.81,23.81,0,0,0,13.64-21.32l2.52,1.72c5,3.44,7.4,10,5,15.64A12.7,12.7,0,0,1,378.92,254.13Z" fill="none" stroke="#003a50" stroke-miterlimit="10"/><path d="M352.08,211.85l-.12-2c-.36-6.12,3.4-12,9.32-13.48a12.66,12.66,0,0,1,15.88,11.48l.12,1.84a23.93,23.93,0,0,0-16.64-1.92A23.5,23.5,0,0,0,352.08,211.85Z" fill="none" stroke="#003a50" stroke-miterlimit="10"/><path d="M349.84,248.13a23.73,23.73,0,0,1-6-9.44,16.51,16.51,0,0,1-.6-2,23.85,23.85,0,0,1,8.84-24.84,23.5,23.5,0,0,1,8.56-4,23.87,23.87,0,0,1,28.92,17.4,22.12,22.12,0,0,1,.68,6,23.81,23.81,0,0,1-13.64,21.32,22.85,22.85,0,0,1-4.48,1.6A23.8,23.8,0,0,1,349.84,248.13Z" fill="none" stroke="#003a50" stroke-miterlimit="10"/></g><rect x="146.57" y="100.44" width="99.69" height="25.39" fill="none" stroke="#003a50" stroke-miterlimit="10"/><g clip-path="url(#clip-path)"><rect x="205.57" y="98.73" width="24.4" height="25.04" rx="2.83" fill="none" stroke="#003a50" stroke-miterlimit="10"/><circle cx="217.77" cy="111.25" r="1.91" fill="none" stroke="#003a50" stroke-miterlimit="10"/><rect x="162.83" y="98.73" width="24.4" height="25.04" rx="2.83" fill="none" stroke="#003a50" stroke-miterlimit="10"/><circle cx="175.04" cy="111.25" r="1.91" fill="none" stroke="#003a50" stroke-miterlimit="10"/></g><polyline points="225.76 362.75 232.55 362.75 239.34 362.75" fill="none" stroke="#003a50" stroke-miterlimit="10"/><line x1="232.57" y1="349.13" x2="232.57" y2="362.75" fill="none" stroke="#003a50" stroke-miterlimit="10"/><g clip-path="url(#clip-path)"><path d="M217.5,338.49v15.2a3.23,3.23,0,0,0,3.23,3.23h23.6a3.23,3.23,0,0,0,3.23-3.23v-15.2a3.23,3.23,0,0,0-3.23-3.23h-23.6A3.23,3.23,0,0,0,217.5,338.49Z" fill="none" stroke="#003a50" stroke-miterlimit="10"/><path d="M232.57,347.44a2.43,2.43,0,1,0,2.43,2.42A2.42,2.42,0,0,0,232.57,347.44Z" fill="none" stroke="#003a50" stroke-miterlimit="10"/></g><rect x="214.87" y="230.8" width="32.18" height="30.88" fill="none" stroke="#003a50" stroke-miterlimit="10"/><polygon points="91.78 261.8 91.61 199.63 66.97 199.63 67.15 261.8 91.78 261.8" fill="none" stroke="#003a50" stroke-miterlimit="10"/><g clip-path="url(#clip-path)"><path d="M86.93,235H68.38a2.71,2.71,0,0,0-2.71,2.71v17.94a2.71,2.71,0,0,0,2.71,2.7H86.93a2.71,2.71,0,0,0,2.71-2.7V237.68A2.71,2.71,0,0,0,86.93,235Z" fill="none" stroke="#003a50" stroke-miterlimit="10"/><circle cx="77.66" cy="246.64" r="1.83" transform="matrix(0.99, -0.16, 0.16, 0.99, -38.51, 15.62)" fill="none" stroke="#003a50" stroke-miterlimit="10"/><path d="M102.78,228.55V199.7h22.79v28.85a11.4,11.4,0,1,1-22.79,0Z" fill="none" stroke="#003a50" stroke-miterlimit="10"/></g><line x1="125.57" y1="210.92" x2="102.78" y2="210.92" fill="none" stroke="#003a50" stroke-miterlimit="10"/><rect x="179.31" y="331.63" width="34.02" height="34.02" fill="none" stroke="#003a50" stroke-miterlimit="10"/><line x1="196.31" y1="351.4" x2="196.31" y2="361.96" fill="none" stroke="#003a50" stroke-miterlimit="10"/><g clip-path="url(#clip-path)"><path d="M197.22,351.4H195.4A3.4,3.4,0,0,1,192,348V336.8h8.61V348A3.4,3.4,0,0,1,197.22,351.4Z" fill="none" stroke="#003a50" stroke-miterlimit="10"/></g><line x1="192.84" y1="361.96" x2="199.79" y2="361.96" fill="none" stroke="#003a50" stroke-miterlimit="10"/><rect x="331.42" y="331.64" width="34.02" height="34.02" fill="none" stroke="#003a50" stroke-miterlimit="10"/><line x1="338.45" y1="348.64" x2="358.41" y2="348.64" fill="none" stroke="#003a50" stroke-miterlimit="10"/><line x1="348.43" y1="358.62" x2="348.43" y2="338.66" fill="none" stroke="#003a50" stroke-miterlimit="10"/><line x1="341.38" y1="355.7" x2="355.49" y2="341.59" fill="none" stroke="#003a50" stroke-miterlimit="10"/><line x1="355.49" y1="355.7" x2="341.38" y2="341.59" fill="none" stroke="#003a50" stroke-miterlimit="10"/><rect x="142.82" y="199.67" width="103.82" height="31.12" fill="none" stroke="#003a50" stroke-miterlimit="10"/><g clip-path="url(#clip-path)"><path d="M158.48,204.08a.91.91,0,0,1,.51-.82.93.93,0,0,1,1.24.41,26.45,26.45,0,0,1,0,23.12.93.93,0,0,1-1.23.42.91.91,0,0,1-.42-1.23,24.52,24.52,0,0,0,0-21.49A.86.86,0,0,1,158.48,204.08Z" fill="none" stroke="#003a50" stroke-miterlimit="10"/><path d="M163.57,204.08a.93.93,0,0,1,1.75-.41,26.36,26.36,0,0,1,0,23.12.93.93,0,0,1-1.23.42.92.92,0,0,1-.42-1.23,24.52,24.52,0,0,0,0-21.49A.86.86,0,0,1,163.57,204.08Z" fill="none" stroke="#003a50" stroke-miterlimit="10"/><path d="M168.67,204.08a.91.91,0,0,1,.51-.82.92.92,0,0,1,1.23.41,26.36,26.36,0,0,1,0,23.12.92.92,0,0,1-1.65-.81,24.43,24.43,0,0,0,0-21.49A.85.85,0,0,1,168.67,204.08Z" fill="none" stroke="#003a50" stroke-miterlimit="10"/><path d="M173.76,204.08a.92.92,0,0,1,1.74-.41,26.36,26.36,0,0,1,0,23.12.92.92,0,0,1-1.65-.81,24.43,24.43,0,0,0,0-21.49A1,1,0,0,1,173.76,204.08Z" fill="none" stroke="#003a50" stroke-miterlimit="10"/><path d="M178.85,204.08a.92.92,0,0,1,1.74-.41,26.36,26.36,0,0,1,0,23.12A.91.91,0,1,1,179,226a24.52,24.52,0,0,0,0-21.49A.86.86,0,0,1,178.85,204.08Z" fill="none" stroke="#003a50" stroke-miterlimit="10"/><path d="M183.94,204.08a.92.92,0,0,1,1.74-.41,26.36,26.36,0,0,1,0,23.12A.91.91,0,1,1,184,226a24.52,24.52,0,0,0,0-21.49A.86.86,0,0,1,183.94,204.08Z" fill="none" stroke="#003a50" stroke-miterlimit="10"/><path d="M153.39,204.08a.92.92,0,0,1,1.74-.41,26.36,26.36,0,0,1,0,23.12.91.91,0,1,1-1.64-.81,24.52,24.52,0,0,0,0-21.49A.86.86,0,0,1,153.39,204.08Z" fill="none" stroke="#003a50" stroke-miterlimit="10"/><path d="M148.3,204.08a.92.92,0,0,1,1.74-.41,26.36,26.36,0,0,1,0,23.12.92.92,0,0,1-1.65-.81,24.43,24.43,0,0,0,0-21.49A1,1,0,0,1,148.3,204.08Z" fill="none" stroke="#003a50" stroke-miterlimit="10"/></g><line x1="142.82" y1="215.23" x2="246.65" y2="215.23" fill="none" stroke="#003a50" stroke-miterlimit="10"/><g clip-path="url(#clip-path)"><rect x="206.99" y="381.97" width="147.59" height="34.02" fill="none" stroke="#003a50" stroke-miterlimit="10"/></g><rect x="67.15" y="331.77" width="105.88" height="33.88" fill="none" stroke="#003a50" stroke-miterlimit="10"/><g clip-path="url(#clip-path)"><path d="M83.12,336.57a1,1,0,0,1,.52-.89.91.91,0,0,1,1.26.45,30.45,30.45,0,0,1,0,25.16.91.91,0,0,1-1.25.46,1,1,0,0,1-.43-1.34,28.32,28.32,0,0,0,0-23.4A1,1,0,0,1,83.12,336.57Z" fill="none" stroke="#003a50" stroke-miterlimit="10"/><path d="M88.31,336.57a1,1,0,0,1,.53-.89.9.9,0,0,1,1.25.45,30.45,30.45,0,0,1,0,25.16.91.91,0,0,1-1.25.46,1,1,0,0,1-.43-1.34,28.32,28.32,0,0,0,0-23.4A1,1,0,0,1,88.31,336.57Z" fill="none" stroke="#003a50" stroke-miterlimit="10"/><path d="M93.5,336.57a1,1,0,0,1,.53-.89.9.9,0,0,1,1.25.45,30.45,30.45,0,0,1,0,25.16.91.91,0,0,1-1.25.46,1,1,0,0,1-.43-1.34,28.22,28.22,0,0,0,0-23.4A1,1,0,0,1,93.5,336.57Z" fill="none" stroke="#003a50" stroke-miterlimit="10"/><path d="M98.7,336.57a1,1,0,0,1,.52-.89.9.9,0,0,1,1.25.45,30.35,30.35,0,0,1,0,25.16.9.9,0,0,1-1.24.46,1,1,0,0,1-.44-1.34,28.22,28.22,0,0,0,0-23.4A1.12,1.12,0,0,1,98.7,336.57Z" fill="none" stroke="#003a50" stroke-miterlimit="10"/><path d="M103.89,336.57a1,1,0,0,1,.52-.89.91.91,0,0,1,1.26.45,30.45,30.45,0,0,1,0,25.16.91.91,0,0,1-1.25.46,1,1,0,0,1-.43-1.34,28.32,28.32,0,0,0,0-23.4A1,1,0,0,1,103.89,336.57Z" fill="none" stroke="#003a50" stroke-miterlimit="10"/><path d="M109.08,336.57a1,1,0,0,1,.53-.89.9.9,0,0,1,1.25.45,30.45,30.45,0,0,1,0,25.16.91.91,0,0,1-1.25.46,1,1,0,0,1-.43-1.34,28.22,28.22,0,0,0,0-23.4A1,1,0,0,1,109.08,336.57Z" fill="none" stroke="#003a50" stroke-miterlimit="10"/><path d="M77.93,336.57a1,1,0,0,1,.52-.89.9.9,0,0,1,1.25.45,30.35,30.35,0,0,1,0,25.16.91.91,0,0,1-1.25.46,1,1,0,0,1-.43-1.34A28.22,28.22,0,0,0,78,337,1,1,0,0,1,77.93,336.57Z" fill="none" stroke="#003a50" stroke-miterlimit="10"/><path d="M72.73,336.57a1,1,0,0,1,.53-.89.9.9,0,0,1,1.25.45,30.45,30.45,0,0,1,0,25.16.91.91,0,0,1-1.25.46,1,1,0,0,1-.43-1.34,28.22,28.22,0,0,0,0-23.4A1,1,0,0,1,72.73,336.57Z" fill="none" stroke="#003a50" stroke-miterlimit="10"/></g><line x1="67.15" y1="348.71" x2="173.03" y2="348.71" fill="none" stroke="#003a50" stroke-miterlimit="10"/><g clip-path="url(#clip-path)"><rect x="67.15" y="382.04" width="133.47" height="33.88" fill="none" stroke="#003a50" stroke-miterlimit="10"/></g><rect x="252.4" y="16.87" width="34.02" height="105.94" fill="none" stroke="#003a50" stroke-miterlimit="10"/><g clip-path="url(#clip-path)"><path d="M281.52,34.2a1,1,0,0,1,.9.56,1,1,0,0,1-.45,1.35,28.77,28.77,0,0,1-25.26,0,1,1,0,0,1-.46-1.34,1,1,0,0,1,1.34-.46,26.81,26.81,0,0,0,23.49,0A1,1,0,0,1,281.52,34.2Z" fill="none" stroke="#003a50" stroke-miterlimit="10"/><path d="M281.52,39.77a1,1,0,0,1,.45,1.9,28.77,28.77,0,0,1-25.26,0,1,1,0,0,1,.88-1.8,26.72,26.72,0,0,0,23.49,0A1,1,0,0,1,281.52,39.77Z" fill="none" stroke="#003a50" stroke-miterlimit="10"/><path d="M281.52,45.33a1,1,0,0,1,.9.56,1,1,0,0,1-.45,1.35,28.77,28.77,0,0,1-25.26,0,1,1,0,0,1-.46-1.34,1,1,0,0,1,1.34-.46,26.81,26.81,0,0,0,23.49,0A1,1,0,0,1,281.52,45.33Z" fill="none" stroke="#003a50" stroke-miterlimit="10"/><path d="M281.52,50.9a1,1,0,0,1,.45,1.9,28.77,28.77,0,0,1-25.26,0,1,1,0,0,1,.88-1.8,26.72,26.72,0,0,0,23.49,0A1,1,0,0,1,281.52,50.9Z" fill="none" stroke="#003a50" stroke-miterlimit="10"/><path d="M281.52,56.47a1,1,0,0,1,.9.56,1,1,0,0,1-.45,1.34,28.77,28.77,0,0,1-25.26,0,1,1,0,0,1,.88-1.8,26.72,26.72,0,0,0,23.49,0A1,1,0,0,1,281.52,56.47Z" fill="none" stroke="#003a50" stroke-miterlimit="10"/><path d="M281.52,62a1,1,0,0,1,.45,1.9,28.77,28.77,0,0,1-25.26,0,1,1,0,0,1,.88-1.8,26.72,26.72,0,0,0,23.49,0A1,1,0,0,1,281.52,62Z" fill="none" stroke="#003a50" stroke-miterlimit="10"/><path d="M281.52,28.64a1,1,0,0,1,.45,1.9,28.77,28.77,0,0,1-25.26,0,1,1,0,0,1,.88-1.8,26.72,26.72,0,0,0,23.49,0A1,1,0,0,1,281.52,28.64Z" fill="none" stroke="#003a50" stroke-miterlimit="10"/><path d="M281.52,23.07a1,1,0,0,1,.9.56A1,1,0,0,1,282,25a28.54,28.54,0,0,1-12.63,2.92A28.54,28.54,0,0,1,256.71,25a1,1,0,0,1-.46-1.34,1,1,0,0,1,1.34-.46,26.48,26.48,0,0,0,11.75,2.71,26.43,26.43,0,0,0,11.74-2.71A1,1,0,0,1,281.52,23.07Z" fill="none" stroke="#003a50" stroke-miterlimit="10"/></g><line x1="269.34" y1="17.09" x2="269.34" y2="122.81" fill="none" stroke="#003a50" stroke-miterlimit="10"/><g clip-path="url(#clip-path)"><path d="M281.52,68.2a1,1,0,0,1,.45,1.9,28.77,28.77,0,0,1-25.26,0,1,1,0,0,1,.88-1.8,26.72,26.72,0,0,0,23.49,0A1,1,0,0,1,281.52,68.2Z" fill="none" stroke="#003a50" stroke-miterlimit="10"/><path d="M281.52,73.76a1,1,0,0,1,.9.56,1,1,0,0,1-.45,1.35,28.77,28.77,0,0,1-25.26,0,1,1,0,0,1-.46-1.34,1,1,0,0,1,1.34-.46,26.81,26.81,0,0,0,23.49,0A.9.9,0,0,1,281.52,73.76Z" fill="none" stroke="#003a50" stroke-miterlimit="10"/><path d="M281.52,79.33a1,1,0,0,1,.45,1.9,28.77,28.77,0,0,1-25.26,0,1,1,0,0,1,.88-1.8,26.72,26.72,0,0,0,23.49,0A1,1,0,0,1,281.52,79.33Z" fill="none" stroke="#003a50" stroke-miterlimit="10"/><path d="M469.29,319v41H423.53V316.76h43.55A2.21,2.21,0,0,1,469.29,319Z" fill="none" stroke="#003a50" stroke-miterlimit="10"/><path d="M515.17,318.75V360H469.39V318.75a2,2,0,0,1,2-2h41.8A2,2,0,0,1,515.17,318.75Z" fill="none" stroke="#003a50" stroke-miterlimit="10"/><path d="M423.53,316.76a3.1,3.1,0,0,0-3.33-2.82H416a3.1,3.1,0,0,0-3.33,2.82V365H526V317.19a3.11,3.11,0,0,0-3.33-2.83h-4.22a3.1,3.1,0,0,0-3.32,2.83V360H423.53Z" fill="none" stroke="#003a50" stroke-miterlimit="10"/></g><rect x="423.52" y="350.76" width="91.64" height="9.25" fill="none" stroke="#003a50" stroke-miterlimit="10"/><rect x="445.34" y="16.92" width="22.68" height="22.68" fill="none" stroke="#003a50" stroke-miterlimit="10"/><g clip-path="url(#clip-path)"><path d="M463.18,34.76a9.19,9.19,0,1,1,0-13A9.17,9.17,0,0,1,463.18,34.76Z" fill="none" stroke="#003a50" stroke-miterlimit="10"/><path d="M463.81,34.07c-1.7-.17-3.42.49-5.07-1.17-2.44-2.44.15-5-2.3-7.45s-5,.13-7.45-2.3" fill="none" stroke="#003a50" stroke-miterlimit="10"/></g><rect x="311.24" y="16.92" width="22.68" height="22.68" fill="none" stroke="#003a50" stroke-miterlimit="10"/><g clip-path="url(#clip-path)"><path d="M329.08,34.76a9.19,9.19,0,1,1,0-13A9.17,9.17,0,0,1,329.08,34.76Z" fill="none" stroke="#003a50" stroke-miterlimit="10"/><path d="M329.71,34.07c-1.7-.17-3.41.49-5.07-1.17-2.44-2.44.15-5-2.3-7.45s-5,.13-7.45-2.3" fill="none" stroke="#003a50" stroke-miterlimit="10"/></g><rect x="338.72" y="16.92" width="102.05" height="113.39" fill="none" stroke="#003a50" stroke-miterlimit="10"/><g clip-path="url(#clip-path)"><path d="M430.77,120.57h-82a2.09,2.09,0,0,1-2.09-2.08V50.85h86.22v67.64A2.08,2.08,0,0,1,430.77,120.57Z" fill="none" stroke="#003a50" stroke-miterlimit="10"/><rect x="346.38" y="24.36" width="42.5" height="22.88" rx="1.98" fill="none" stroke="#003a50" stroke-miterlimit="10"/><rect x="390.61" y="24.36" width="42.5" height="22.88" rx="1.98" fill="none" stroke="#003a50" stroke-miterlimit="10"/></g><line x1="433.11" y1="64.7" x2="346.38" y2="64.7" fill="none" stroke="#003a50" stroke-miterlimit="10"/><g clip-path="url(#clip-path)"><rect x="366.68" y="-22.58" width="22.68" height="22.68" fill="none" stroke="#003a50" stroke-miterlimit="10"/><rect x="500.77" y="-22.58" width="22.68" height="22.68" fill="none" stroke="#003a50" stroke-miterlimit="10"/><rect x="393.93" y="-113.29" width="102.05" height="113.39" fill="none" stroke="#003a50" stroke-miterlimit="10"/><path d="M243,251a1,1,0,0,1,.45,1.9,28.77,28.77,0,0,1-25.26,0,1,1,0,0,1,.88-1.8,26.72,26.72,0,0,0,23.49,0A1,1,0,0,1,243,251Z" fill="none" stroke="#003a50" stroke-miterlimit="10"/><path d="M243,245.44a1,1,0,0,1,.9.56,1,1,0,0,1-.45,1.35,28.77,28.77,0,0,1-25.26,0,1,1,0,0,1-.46-1.34,1,1,0,0,1,1.34-.46,26.81,26.81,0,0,0,23.49,0A1,1,0,0,1,243,245.44Z" fill="none" stroke="#003a50" stroke-miterlimit="10"/><path d="M243,239.88a1,1,0,0,1,.45,1.9,28.77,28.77,0,0,1-25.26,0,1,1,0,0,1,.88-1.8,26.72,26.72,0,0,0,23.49,0A1,1,0,0,1,243,239.88Z" fill="none" stroke="#003a50" stroke-miterlimit="10"/></g><line x1="230.81" y1="231.05" x2="230.81" y2="261.47" fill="none" stroke="#003a50" stroke-miterlimit="10"/><g clip-path="url(#clip-path)"><path d="M134,264.44v3.08a38.71,38.71,0,0,1-38.71,38.71V264.44" fill="none" stroke="#003a50" stroke-miterlimit="10" stroke-width="1.6"/><path d="M250.4,133.69h-3.08a38.72,38.72,0,0,0-38.71,38.72H250.4" fill="none" stroke="#003a50" stroke-miterlimit="10" stroke-width="1.6"/><path d="M302,183.34v3.38a42.58,42.58,0,0,1-42.58,42.59v-46" fill="none" stroke="#003a50" stroke-miterlimit="10" stroke-width="1.6"/><path d="M56.61,274.23H52.55A51.12,51.12,0,0,0,1.42,325.35H56.61" fill="none" stroke="#003a50" stroke-miterlimit="10" stroke-width="1.6"/><path d="M56.61,8.7H52.55A51.13,51.13,0,0,0,1.42,59.83H56.61" fill="none" stroke="#003a50" stroke-miterlimit="10" stroke-width="1.6"/><rect x="50.83" y="97.93" width="16.32" height="176.83" fill="#003a50"/><rect x="50.83" y="324.39" width="16.32" height="98.25" fill="#003a50"/><rect x="63.3" y="365.63" width="474.34" height="16.32" fill="#003a50"/><rect x="50.83" y="-165.61" width="10.82" height="175.07" fill="#003a50"/><rect x="50.83" y="58.38" width="10.82" height="37.76" fill="#003a50"/><rect x="245.65" y="0.38" width="287.97" height="16.26" fill="#003a50"/><rect x="50.84" y="84.05" width="201.28" height="16.26" fill="#003a50"/><rect x="235.86" y="-152.61" width="17.28" height="252.92" fill="#003a50"/><polygon points="529.62 258.5 529.62 162.76 578.95 162.76 567.28 258.5 529.62 258.5" fill="#003a50" fill-rule="evenodd"/><rect x="529.62" y="-21.58" width="25.28" height="96.07" fill="#003a50"/><rect x="533.62" y="48.59" width="44.33" height="25.9" fill="#003a50"/><rect x="529.62" y="345.81" width="25.28" height="96.07" fill="#003a50"/><rect x="133.02" y="261.69" width="44.36" height="6.38" fill="#003a50"/><rect x="63.05" y="193.19" width="187.46" height="6.38" fill="#003a50"/><rect x="136.19" y="198.38" width="6.38" height="65.34" fill="#003a50"/><rect x="173.03" y="331.78" width="6.38" height="40.91" fill="#003a50"/><rect x="152.02" y="344.46" width="24.71" height="6.38" fill="#003a50"/><rect x="152.02" y="344.46" width="6.38" height="26.75" fill="#003a50"/><rect x="178.56" y="377.9" width="6.38" height="26.75" fill="#003a50"/><rect x="200.62" y="377.82" width="6.38" height="38.4" fill="#003a50"/><rect x="214.55" y="261.69" width="35.96" height="6.38" fill="#003a50"/><rect x="56.61" y="261.69" width="39.55" height="6.38" fill="#003a50"/><rect x="246.77" y="84.05" width="6.38" height="50.48" fill="#003a50"/><rect x="96.16" y="96.14" width="6.38" height="97.9" fill="#003a50"/><rect x="63.05" y="156.57" width="37.83" height="6.38" fill="#003a50"/><rect x="246.77" y="171.58" width="6.38" height="96.49" fill="#003a50"/><rect x="314.42" y="-49.79" width="6.38" height="59.44" fill="#003a50"/><rect x="301.13" y="180.59" width="228.49" height="6.38" fill="#003a50"/><rect x="248.88" y="180.59" width="11.25" height="6.38" fill="#003a50"/><line x1="177.38" y1="268.07" x2="177.38" y2="270.9" fill="none" stroke="#003a50" stroke-miterlimit="10"/><line x1="177.38" y1="276.27" x2="177.38" y2="327.31" fill="none" stroke="#003a50" stroke-miterlimit="10" stroke-dasharray="5.37 5.37"/><line x1="177.38" y1="330" x2="177.38" y2="332.84" fill="none" stroke="#003a50" stroke-miterlimit="10"/><rect x="208.5" y="-115.11" width="6.38" height="176.75" fill="#003a50"/><rect x="82.76" y="-121.18" width="6.38" height="121.57" fill="#003a50"/><rect x="57.55" y="61.64" width="157.33" height="6.38" fill="#003a50"/><rect x="57.55" y="-2.8" width="31.58" height="6.38" fill="#003a50"/></g><g clip-path="url(#clip-path)"><path d="M459,290.5l-2.48,2v-2.25l2.73-2.26h1.86v11.9H459Z" fill="#003a50"/><path d="M463.85,296.51h2.21s0,.07,0,.18a2.36,2.36,0,0,0,.23.43,2.09,2.09,0,0,0,.41.48,2,2,0,0,0,.75.42,3.21,3.21,0,0,0,1.05.17,2.67,2.67,0,0,0,2.24-1.07,4.29,4.29,0,0,0,.81-2.7h-.06a2.24,2.24,0,0,1-.44.46,2.73,2.73,0,0,1-.6.4,3.74,3.74,0,0,1-.95.32,5.5,5.5,0,0,1-1.22.14,5,5,0,0,1-3.37-1.13,3.74,3.74,0,0,1,.05-5.73,5.57,5.57,0,0,1,3.61-1.1,4.81,4.81,0,0,1,3.87,1.54,6.4,6.4,0,0,1,1.32,4.27V294a6.7,6.7,0,0,1-1.37,4.31,4.71,4.71,0,0,1-3.89,1.71,6,6,0,0,1-2.17-.37,3.86,3.86,0,0,1-1.48-.95A3.35,3.35,0,0,1,463.85,296.51Zm2.77-3.17a3.6,3.6,0,0,0,3.95,0,1.85,1.85,0,0,0,.78-1.57,1.87,1.87,0,0,0-.78-1.57,3.21,3.21,0,0,0-2-.58,3.17,3.17,0,0,0-2,.58,2,2,0,0,0,0,3.14Z" fill="#003a50"/><path d="M476,299.72a1,1,0,0,1-.32-.8,1,1,0,0,1,.32-.81,1.41,1.41,0,0,1,1.74,0,1.07,1.07,0,0,1,.32.81,1,1,0,0,1-.32.8,1.41,1.41,0,0,1-1.74,0Z" fill="#003a50"/><path d="M481.89,290.5l-2.49,2v-2.25l2.73-2.26H484v11.9h-2.11Z" fill="#003a50"/><path d="M192.64,256.31h-9.93v-1.56a2.74,2.74,0,0,1,.58-1.74,4,4,0,0,1,1.45-1.2c.49-.25,1.12-.54,1.86-.86s1.33-.56,1.88-.77a4.23,4.23,0,0,0,1.45-.92,1.78,1.78,0,0,0,.57-1.3c0-1.26-.89-1.88-2.67-1.88s-2.67.72-2.67,2.15v.41h-2.11v-.41a3.62,3.62,0,0,1,1.26-3,5.39,5.39,0,0,1,3.52-1,5.65,5.65,0,0,1,3.51,1,3.29,3.29,0,0,1,1.27,2.75,3.17,3.17,0,0,1-.56,1.84,4.26,4.26,0,0,1-1.4,1.3c-.6.34-1.21.65-1.84.93s-1.23.53-1.82.75a5.46,5.46,0,0,0-1.41.74,1.26,1.26,0,0,0-.56,1h7.62Z" fill="#003a50"/><path d="M194.74,256.18a1,1,0,0,1-.32-.8,1.07,1.07,0,0,1,.32-.81,1.25,1.25,0,0,1,.88-.3,1.22,1.22,0,0,1,.86.3,1.07,1.07,0,0,1,.32.81,1,1,0,0,1-.32.8,1.22,1.22,0,0,1-.86.3A1.25,1.25,0,0,1,194.74,256.18Z" fill="#003a50"/><path d="M208.52,256.31h-9.93v-1.56a2.74,2.74,0,0,1,.58-1.74,4,4,0,0,1,1.44-1.2c.5-.25,1.13-.54,1.87-.86s1.33-.56,1.88-.77a4.23,4.23,0,0,0,1.45-.92,1.78,1.78,0,0,0,.57-1.3c0-1.26-.89-1.88-2.67-1.88s-2.67.72-2.67,2.15v.41h-2.11v-.41a3.62,3.62,0,0,1,1.26-3,5.38,5.38,0,0,1,3.51-1,5.66,5.66,0,0,1,3.52,1,3.31,3.31,0,0,1,1.27,2.75,3.17,3.17,0,0,1-.56,1.84,4.26,4.26,0,0,1-1.4,1.3c-.6.34-1.21.65-1.84.93s-1.23.53-1.82.75a5.46,5.46,0,0,0-1.41.74,1.26,1.26,0,0,0-.56,1h7.62Z" fill="#003a50"/><path d="M150.07,289.81h-5.82V288h8.86v1.85l-4.52,2.65v.06h1.28a3.87,3.87,0,0,1,2.79,1,3.5,3.5,0,0,1,1.05,2.66,3.34,3.34,0,0,1-1.33,2.83,7,7,0,0,1-7.24,0,3.4,3.4,0,0,1-1.33-2.86v-.33h2.11v.33c0,1.36,1,2,2.84,2s2.84-.66,2.84-2-.94-2-2.84-2H145.5v-1.66l4.57-2.69Z" fill="#003a50"/><path d="M155.81,299.74a1,1,0,0,1-.32-.81,1.06,1.06,0,0,1,.32-.8,1.41,1.41,0,0,1,1.74,0,1.06,1.06,0,0,1,.32.8,1,1,0,0,1-.32.81,1.41,1.41,0,0,1-1.74,0Z" fill="#003a50"/><path d="M165.1,291.89a5.08,5.08,0,0,1,3.34,1.06,4.18,4.18,0,0,1-.05,6,5.38,5.38,0,0,1-3.54,1.08,5.82,5.82,0,0,1-3.56-1,3.16,3.16,0,0,1-1.29-2.69h2.11a1.54,1.54,0,0,0,.7,1.34,3.62,3.62,0,0,0,2,.48,3.17,3.17,0,0,0,2-.57,2.37,2.37,0,0,0,0-3.39,3.28,3.28,0,0,0-2.08-.58,3.6,3.6,0,0,0-1.92.42,1.87,1.87,0,0,0-.69.64l0,.12H160V288h8.88v1.85h-6.77v2.95h0a2.31,2.31,0,0,1,.4-.3,3,3,0,0,1,.54-.27A5.66,5.66,0,0,1,165.1,291.89Z" fill="#003a50"/><path d="M105.58,250.36l-2.48,2v-2.25l2.73-2.26h1.86v11.91h-2.11Z" fill="#003a50"/><path d="M110.21,259.58a1,1,0,0,1-.32-.8,1.07,1.07,0,0,1,.32-.81,1.25,1.25,0,0,1,.88-.3,1.22,1.22,0,0,1,.86.3,1,1,0,0,1,.32.81,1,1,0,0,1-.32.8,1.22,1.22,0,0,1-.86.3A1.25,1.25,0,0,1,110.21,259.58Z" fill="#003a50"/><path d="M119.5,251.74a5,5,0,0,1,3.34,1.06,4.18,4.18,0,0,1,0,6,5.41,5.41,0,0,1-3.55,1.08,5.77,5.77,0,0,1-3.56-1,3.16,3.16,0,0,1-1.29-2.68h2.11a1.53,1.53,0,0,0,.7,1.33,3.53,3.53,0,0,0,2,.49,3.09,3.09,0,0,0,2-.58,2.36,2.36,0,0,0,0-3.38,3.25,3.25,0,0,0-2.07-.59,3.55,3.55,0,0,0-1.92.42,1.84,1.84,0,0,0-.7.64l0,.12H114.4v-6.87h8.88v1.84h-6.77v3h0a1.91,1.91,0,0,1,.4-.31,4,4,0,0,1,.55-.27A5.85,5.85,0,0,1,119.5,251.74Z" fill="#003a50"/><path d="M184.51,146.72H182.4v-2.65h-7v-1.85l6.29-7.41h2.79v7.41h1.6v1.85h-1.6Zm-2.11-4.5V136.9h-.06l-4.48,5.27v.05Z" fill="#003a50"/><path d="M187.79,146.58a1,1,0,0,1-.32-.8,1.07,1.07,0,0,1,.32-.81,1.25,1.25,0,0,1,.88-.3,1.22,1.22,0,0,1,.86.3,1,1,0,0,1,.32.81,1,1,0,0,1-.32.8,1.22,1.22,0,0,1-.86.3A1.25,1.25,0,0,1,187.79,146.58Z" fill="#003a50"/><path d="M197.08,138.73a5,5,0,0,1,3.34,1.07,4.18,4.18,0,0,1,0,6,5.41,5.41,0,0,1-3.55,1.08,5.75,5.75,0,0,1-3.56-1,3.16,3.16,0,0,1-1.29-2.68h2.11a1.53,1.53,0,0,0,.7,1.33,3.61,3.61,0,0,0,2,.49,3.17,3.17,0,0,0,2-.58,2,2,0,0,0,.7-1.68,2.05,2.05,0,0,0-.73-1.71,3.32,3.32,0,0,0-2.08-.58,3.54,3.54,0,0,0-1.91.42,1.84,1.84,0,0,0-.7.64l0,.12H192v-6.87h8.88v1.84h-6.77v3h0a1.91,1.91,0,0,1,.4-.31,3.89,3.89,0,0,1,.54-.27A5.69,5.69,0,0,1,197.08,138.73Z" fill="#003a50"/><path d="M456.46,137.36l-2.49,2v-2.25l2.73-2.26h1.86v11.91h-2.1Z" fill="#003a50"/><path d="M466.46,138.73a5,5,0,0,1,3.34,1.07,4.18,4.18,0,0,1,0,6,5.39,5.39,0,0,1-3.55,1.08,5.79,5.79,0,0,1-3.56-1,3.16,3.16,0,0,1-1.29-2.68h2.11a1.55,1.55,0,0,0,.7,1.33,3.61,3.61,0,0,0,2,.49,3.13,3.13,0,0,0,2-.58,2,2,0,0,0,.71-1.68,2.06,2.06,0,0,0-.74-1.71,3.31,3.31,0,0,0-2.07-.58,3.6,3.6,0,0,0-1.92.42,1.93,1.93,0,0,0-.7.64l0,.12h-2.11v-6.87h8.88v1.84h-6.77v3h0a2.22,2.22,0,0,1,.4-.31,4,4,0,0,1,.55-.27A5.6,5.6,0,0,1,466.46,138.73Z" fill="#003a50"/><path d="M473.16,146.58a1,1,0,0,1-.32-.8,1.07,1.07,0,0,1,.32-.81,1.25,1.25,0,0,1,.88-.3,1.22,1.22,0,0,1,.86.3,1,1,0,0,1,.32.81,1,1,0,0,1-.32.8,1.22,1.22,0,0,1-.86.3A1.25,1.25,0,0,1,473.16,146.58Z" fill="#003a50"/><path d="M479.07,137.36l-2.49,2v-2.25l2.74-2.26h1.86v11.91h-2.11Z" fill="#003a50"/></g></svg>