<svg id="Слой_1" data-name="Слой 1" xmlns="http://www.w3.org/2000/svg" xmlns:xlink="http://www.w3.org/1999/xlink" viewBox="0 0 581.1 228.47"><defs><clipPath id="clip-path"><rect width="581.1" height="228.47" fill="none"/></clipPath></defs><polygon points="53.42 224.36 53.42 228.47 531.05 228.47 531.05 225.11 74.58 225.11 74.58 224.36 53.42 224.36" fill="#fff"/><polygon points="60.72 12.12 531.05 12.12 531.76 221.18 63.3 222.14 67.15 106.36 67.15 56.86 60.72 12.12" fill="#fff"/><rect x="67.22" width="463.83" height="3.75" transform="translate(0 0.48) rotate(-0.09)" fill="#fff"/><g clip-path="url(#clip-path)"><rect x="-561.43" y="-1375.89" width="1115.44" height="2194.74" fill="none" stroke="#003a50" stroke-miterlimit="10"/><polygon points="-536.61 -289.9 -536.61 795.89 529.87 795.89 529.87 -1351.44 -536.61 -1351.59 -536.61 -358.69 -536.61 -289.9" fill="none" stroke="#003a50" stroke-miterlimit="10"/></g><rect x="540.78" y="76.56" width="4.56" height="87.34" fill="#fff"/><rect x="540.78" y="76.56" width="4.56" height="87.34" fill="none" stroke="#003a50" stroke-miterlimit="10"/><line x1="543.06" y1="163.91" x2="543.06" y2="76.56" fill="none" stroke="#003a50" stroke-miterlimit="10"/><rect x="540.78" y="159.5" width="4.56" height="4.41" fill="#fff"/><rect x="540.78" y="159.5" width="4.56" height="4.41" fill="none" stroke="#003a50" stroke-miterlimit="10"/><rect x="540.78" y="76.56" width="4.56" height="4.41" fill="#fff"/><rect x="540.78" y="76.56" width="4.56" height="4.41" fill="none" stroke="#003a50" stroke-miterlimit="10"/><rect x="540.78" y="118.03" width="4.56" height="4.41" fill="#fff"/><rect x="540.78" y="118.03" width="4.56" height="4.41" fill="none" stroke="#003a50" stroke-miterlimit="10"/><rect x="167.69" y="120.75" width="43.96" height="95.52" fill="none" stroke="#003a50" stroke-miterlimit="10"/><g clip-path="url(#clip-path)"><rect x="172.85" y="124.95" width="33.22" height="87.39" rx="13.7" fill="none" stroke="#003a50" stroke-miterlimit="10"/><circle cx="189.55" cy="197.21" r="2.28" fill="none" stroke="#003a50" stroke-miterlimit="10"/><path d="M130.84,168H102.27V144.91h28.57a11.54,11.54,0,1,1,0,23.08Z" fill="none" stroke="#003a50" stroke-miterlimit="10"/></g><rect x="102.28" y="144.91" width="11.08" height="23.08" fill="none" stroke="#003a50" stroke-miterlimit="10"/><g clip-path="url(#clip-path)"><path d="M118.9,194.65a3.15,3.15,0,0,0,2.91-2h1.79l4.73,2.83L126.18,199l-2.46-1.35v11h-10.3v-11L111,199l-2.15-3.49,4.78-2.83H116A3.2,3.2,0,0,0,118.9,194.65Z" fill="none" stroke="#003a50" stroke-miterlimit="10"/></g><rect x="102.78" y="185.46" width="31.57" height="30.42" fill="none" stroke="#003a50" stroke-miterlimit="10"/><g clip-path="url(#clip-path)"><rect x="354.86" y="228.29" width="33.97" height="34.02" fill="none" stroke="#003a50" stroke-miterlimit="10"/></g><rect x="218.52" y="147.59" width="34.02" height="33.97" fill="none" stroke="#003a50" stroke-miterlimit="10"/><g clip-path="url(#clip-path)"><path d="M231.23,163.05V152h8.6v11.05a3.55,3.55,0,0,1-3.54,3.54h-1.52A3.54,3.54,0,0,1,231.23,163.05Z" fill="none" stroke="#003a50" stroke-miterlimit="10"/></g><polyline points="239 177.15 235.53 177.15 232.05 177.15" fill="none" stroke="#003a50" stroke-miterlimit="10"/><line x1="235.53" y1="166.59" x2="235.53" y2="177.15" fill="none" stroke="#003a50" stroke-miterlimit="10"/><g clip-path="url(#clip-path)"><rect x="435.33" y="228.29" width="34.02" height="34.02" fill="none" stroke="#003a50" stroke-miterlimit="10"/></g><rect x="292.08" y="181.55" width="34.02" height="34.02" fill="none" stroke="#003a50" stroke-miterlimit="10"/><g clip-path="url(#clip-path)"><path d="M321.5,206.17a4.64,4.64,0,1,1-4.64-4.64A4.63,4.63,0,0,1,321.5,206.17Z" fill="none" stroke="#003a50" stroke-miterlimit="10"/><path d="M306,206.17a4.64,4.64,0,1,1-4.63-4.64A4.63,4.63,0,0,1,306,206.17Z" fill="none" stroke="#003a50" stroke-miterlimit="10"/><path d="M321.5,191.08a4.64,4.64,0,1,1-4.64-4.64A4.63,4.63,0,0,1,321.5,191.08Z" fill="none" stroke="#003a50" stroke-miterlimit="10"/><path d="M306,191.08a4.64,4.64,0,1,1-4.63-4.64A4.63,4.63,0,0,1,306,191.08Z" fill="none" stroke="#003a50" stroke-miterlimit="10"/><rect x="269.54" y="-34.01" width="34.02" height="34.02" fill="none" stroke="#003a50" stroke-miterlimit="10"/></g><rect x="354.58" y="16.19" width="175.03" height="17.01" fill="none" stroke="#003a50" stroke-miterlimit="10"/><polygon points="506.4 25.23 463.5 21.7 420.4 25.23 420.4 27.69 506.4 27.69 506.4 25.23" fill="none" stroke="#003a50" stroke-miterlimit="10"/><g clip-path="url(#clip-path)"><rect x="295.9" y="228.15" width="199.76" height="34.28" fill="none" stroke="#003a50" stroke-miterlimit="10"/><rect x="213.36" y="-34.14" width="152.36" height="34.28" fill="none" stroke="#003a50" stroke-miterlimit="10"/><rect x="247.54" y="227.94" width="42.22" height="83.62" fill="none" stroke="#003a50" stroke-miterlimit="10"/></g><polyline points="264.68 211.84 271.48 211.84 278.26 211.84" fill="none" stroke="#003a50" stroke-miterlimit="10"/><line x1="271.5" y1="198.22" x2="271.5" y2="211.84" fill="none" stroke="#003a50" stroke-miterlimit="10"/><g clip-path="url(#clip-path)"><path d="M256.42,187.58v15.2a3.24,3.24,0,0,0,3.24,3.23h23.59a3.24,3.24,0,0,0,3.24-3.23v-15.2a3.24,3.24,0,0,0-3.24-3.24H259.66A3.24,3.24,0,0,0,256.42,187.58Z" fill="none" stroke="#003a50" stroke-miterlimit="10"/><path d="M271.5,196.52a2.43,2.43,0,1,0,2.42,2.43A2.43,2.43,0,0,0,271.5,196.52Z" fill="none" stroke="#003a50" stroke-miterlimit="10"/></g><rect x="218.52" y="181.55" width="136.06" height="34.02" fill="none" stroke="#003a50" stroke-miterlimit="10"/><g clip-path="url(#clip-path)"><polygon points="247.28 259.26 173.82 259.05 173.82 228.5 247.28 228.72 247.28 259.26" fill="none" stroke="#003a50" stroke-miterlimit="10"/><path d="M214.65,253.24v-23a3.35,3.35,0,0,1,3.35-3.36h22.25a3.36,3.36,0,0,1,3.36,3.36v23a3.36,3.36,0,0,1-3.36,3.36H218A3.35,3.35,0,0,1,214.65,253.24Z" fill="none" stroke="#003a50" stroke-miterlimit="10"/></g><polygon points="167.47 185.37 102.5 185.58 102.5 216.13 167.47 215.91 167.47 185.37" fill="none" stroke="#003a50" stroke-miterlimit="10"/><g clip-path="url(#clip-path)"><path d="M136.45,191.39v23a3.36,3.36,0,0,0,3.36,3.36h22.25a3.35,3.35,0,0,0,3.35-3.36v-23a3.35,3.35,0,0,0-3.35-3.36H139.81A3.36,3.36,0,0,0,136.45,191.39Z" fill="none" stroke="#003a50" stroke-miterlimit="10"/><circle cx="150.93" cy="202.89" r="2.27" fill="none" stroke="#003a50" stroke-miterlimit="10"/></g><rect x="218.52" y="114.86" width="34.02" height="32.67" fill="none" stroke="#003a50" stroke-miterlimit="10"/><line x1="235.53" y1="141.17" x2="235.53" y2="121.21" fill="none" stroke="#003a50" stroke-miterlimit="10"/><line x1="245.51" y1="131.19" x2="225.55" y2="131.19" fill="none" stroke="#003a50" stroke-miterlimit="10"/><line x1="242.58" y1="138.25" x2="228.47" y2="124.14" fill="none" stroke="#003a50" stroke-miterlimit="10"/><line x1="242.58" y1="124.14" x2="228.47" y2="138.25" fill="none" stroke="#003a50" stroke-miterlimit="10"/><g clip-path="url(#clip-path)"><rect x="495.32" y="228.43" width="34.02" height="34.02" fill="none" stroke="#003a50" stroke-miterlimit="10"/><rect x="179.31" y="-34.15" width="34.02" height="34.02" fill="none" stroke="#003a50" stroke-miterlimit="10"/><rect x="331.42" y="-34.15" width="34.02" height="34.02" fill="none" stroke="#003a50" stroke-miterlimit="10"/></g><rect x="206.99" y="16.19" width="147.59" height="34.02" fill="none" stroke="#003a50" stroke-miterlimit="10"/><g clip-path="url(#clip-path)"><path d="M337.47,21a1,1,0,0,0-.56-.9,1,1,0,0,0-1.35.45,28.77,28.77,0,0,0,0,25.26,1,1,0,0,0,1.34.46,1,1,0,0,0,.46-1.34,26.81,26.81,0,0,1,0-23.49A.9.9,0,0,0,337.47,21Z" fill="none" stroke="#003a50" stroke-miterlimit="10"/><path d="M331.9,21a1,1,0,0,0-1.9-.45,28.77,28.77,0,0,0,0,25.26,1,1,0,1,0,1.8-.88,26.72,26.72,0,0,1,0-23.49A1,1,0,0,0,331.9,21Z" fill="none" stroke="#003a50" stroke-miterlimit="10"/><path d="M326.34,21a1,1,0,0,0-.56-.9,1,1,0,0,0-1.35.45,28.77,28.77,0,0,0,0,25.26,1,1,0,0,0,1.34.46,1,1,0,0,0,.46-1.34,26.81,26.81,0,0,1,0-23.49A.9.9,0,0,0,326.34,21Z" fill="none" stroke="#003a50" stroke-miterlimit="10"/><path d="M320.77,21a1,1,0,0,0-1.9-.45,28.77,28.77,0,0,0,0,25.26,1,1,0,1,0,1.8-.88,26.72,26.72,0,0,1,0-23.49A1,1,0,0,0,320.77,21Z" fill="none" stroke="#003a50" stroke-miterlimit="10"/><path d="M315.21,21a1,1,0,0,0-.56-.9,1,1,0,0,0-1.35.45,28.77,28.77,0,0,0,0,25.26,1,1,0,0,0,1.34.46,1,1,0,0,0,.46-1.34,26.81,26.81,0,0,1,0-23.49A1,1,0,0,0,315.21,21Z" fill="none" stroke="#003a50" stroke-miterlimit="10"/><path d="M309.64,21a1,1,0,0,0-1.9-.45,28.77,28.77,0,0,0,0,25.26,1,1,0,1,0,1.8-.88,26.72,26.72,0,0,1,0-23.49A1,1,0,0,0,309.64,21Z" fill="none" stroke="#003a50" stroke-miterlimit="10"/><path d="M343,21a1,1,0,0,0-.56-.9,1,1,0,0,0-1.34.45,28.77,28.77,0,0,0,0,25.26,1,1,0,0,0,1.8-.88,26.72,26.72,0,0,1,0-23.49A1,1,0,0,0,343,21Z" fill="none" stroke="#003a50" stroke-miterlimit="10"/><path d="M348.6,21a1,1,0,0,0-.56-.9,1,1,0,0,0-1.35.45,28.77,28.77,0,0,0,0,25.26,1,1,0,0,0,1.34.46,1,1,0,0,0,.46-1.34,26.81,26.81,0,0,1,0-23.49A.9.9,0,0,0,348.6,21Z" fill="none" stroke="#003a50" stroke-miterlimit="10"/></g><line x1="354.58" y1="33.19" x2="206.99" y2="33.19" fill="none" stroke="#003a50" stroke-miterlimit="10"/><g clip-path="url(#clip-path)"><rect x="67.15" y="-34.01" width="105.88" height="33.88" fill="none" stroke="#003a50" stroke-miterlimit="10"/></g><rect x="67.15" y="16.25" width="133.47" height="33.88" fill="none" stroke="#003a50" stroke-miterlimit="10"/><g clip-path="url(#clip-path)"><path d="M83.12,21.05a1,1,0,0,1,.52-.89.91.91,0,0,1,1.26.45,30.45,30.45,0,0,1,0,25.16.91.91,0,0,1-1.25.46,1,1,0,0,1-.43-1.34,28.32,28.32,0,0,0,0-23.4A1,1,0,0,1,83.12,21.05Z" fill="none" stroke="#003a50" stroke-miterlimit="10"/><path d="M88.31,21.05a1,1,0,0,1,.53-.89.9.9,0,0,1,1.25.45,30.45,30.45,0,0,1,0,25.16.91.91,0,0,1-1.25.46,1,1,0,0,1-.43-1.34,28.32,28.32,0,0,0,0-23.4A1,1,0,0,1,88.31,21.05Z" fill="none" stroke="#003a50" stroke-miterlimit="10"/><path d="M93.5,21.05a1,1,0,0,1,.53-.89.9.9,0,0,1,1.25.45,30.45,30.45,0,0,1,0,25.16.91.91,0,0,1-1.25.46,1,1,0,0,1-.43-1.34,28.22,28.22,0,0,0,0-23.4A1,1,0,0,1,93.5,21.05Z" fill="none" stroke="#003a50" stroke-miterlimit="10"/><path d="M98.7,21.05a1,1,0,0,1,.52-.89.9.9,0,0,1,1.25.45,30.35,30.35,0,0,1,0,25.16.9.9,0,0,1-1.24.46,1,1,0,0,1-.44-1.34,28.22,28.22,0,0,0,0-23.4A1.12,1.12,0,0,1,98.7,21.05Z" fill="none" stroke="#003a50" stroke-miterlimit="10"/><path d="M103.89,21.05a1,1,0,0,1,.52-.89.91.91,0,0,1,1.26.45,30.45,30.45,0,0,1,0,25.16.91.91,0,0,1-1.25.46,1,1,0,0,1-.43-1.34,28.32,28.32,0,0,0,0-23.4A1,1,0,0,1,103.89,21.05Z" fill="none" stroke="#003a50" stroke-miterlimit="10"/><path d="M109.08,21.05a1,1,0,0,1,.53-.89.9.9,0,0,1,1.25.45,30.45,30.45,0,0,1,0,25.16.91.91,0,0,1-1.25.46,1,1,0,0,1-.43-1.34,28.22,28.22,0,0,0,0-23.4A1,1,0,0,1,109.08,21.05Z" fill="none" stroke="#003a50" stroke-miterlimit="10"/><path d="M77.93,21.05a1,1,0,0,1,.52-.89.9.9,0,0,1,1.25.45,30.35,30.35,0,0,1,0,25.16.91.91,0,0,1-1.25.46A1,1,0,0,1,78,44.89a28.22,28.22,0,0,0,0-23.4A1,1,0,0,1,77.93,21.05Z" fill="none" stroke="#003a50" stroke-miterlimit="10"/><path d="M72.73,21.05a1,1,0,0,1,.53-.89.9.9,0,0,1,1.25.45,30.45,30.45,0,0,1,0,25.16.91.91,0,0,1-1.25.46,1,1,0,0,1-.43-1.34,28.22,28.22,0,0,0,0-23.4A1,1,0,0,1,72.73,21.05Z" fill="none" stroke="#003a50" stroke-miterlimit="10"/></g><line x1="67.15" y1="33.19" x2="200.62" y2="33.19" fill="none" stroke="#003a50" stroke-miterlimit="10"/><g clip-path="url(#clip-path)"><path d="M469.29,169.7v41H423.53V167.49h43.55A2.2,2.2,0,0,1,469.29,169.7Z" fill="none" stroke="#003a50" stroke-miterlimit="10"/><path d="M515.17,169.47v41.26H469.39V169.47a2,2,0,0,1,2-2h41.8A2,2,0,0,1,515.17,169.47Z" fill="none" stroke="#003a50" stroke-miterlimit="10"/><path d="M423.53,167.49a3.11,3.11,0,0,0-3.33-2.83H416a3.11,3.11,0,0,0-3.33,2.83v48.19H526V167.91a3.11,3.11,0,0,0-3.33-2.83h-4.22a3.1,3.1,0,0,0-3.32,2.83v42.83H423.53Z" fill="none" stroke="#003a50" stroke-miterlimit="10"/></g><rect x="423.52" y="201.48" width="91.64" height="9.25" fill="none" stroke="#003a50" stroke-miterlimit="10"/><g clip-path="url(#clip-path)"><path d="M359.5,115.44a1.13,1.13,0,0,0-1.14,1.14,1.15,1.15,0,0,0,1.14,1.14,12.51,12.51,0,0,1,0,25,1.14,1.14,0,0,0,0,2.28,14.79,14.79,0,1,0,0-29.57Z" fill="none" stroke="#003a50" stroke-miterlimit="10"/><path d="M359,140.88a10.66,10.66,0,1,0-4.38-20.36v19.4A10.51,10.51,0,0,0,359,140.88Z" fill="none" stroke="#003a50" stroke-miterlimit="10"/><path d="M359.5,150.19a1.14,1.14,0,0,0,0,2.28,12.51,12.51,0,0,1,0,25,1.14,1.14,0,0,0,0,2.28,14.79,14.79,0,1,0,0-29.57Z" fill="none" stroke="#003a50" stroke-miterlimit="10"/><path d="M359,175.63a10.66,10.66,0,1,0-4.38-20.36v19.4A10.51,10.51,0,0,0,359,175.63Z" fill="none" stroke="#003a50" stroke-miterlimit="10"/></g><rect x="326.1" y="113.55" width="28.5" height="68.04" fill="none" stroke="#003a50" stroke-miterlimit="10"/><rect x="67" y="114.87" width="28.89" height="16.34" fill="none" stroke="#003a50" stroke-miterlimit="10"/><g clip-path="url(#clip-path)"><path d="M162.36,118v-3.08a38.71,38.71,0,0,0-38.71-38.71V118" fill="none" stroke="#003a50" stroke-miterlimit="10" stroke-width="1.6"/><path d="M56.61,56.23H52.55A51.13,51.13,0,0,0,1.42,107.36H56.61" fill="none" stroke="#003a50" stroke-miterlimit="10" stroke-width="1.6"/><rect x="50.83" y="-41.39" width="16.32" height="98.25" fill="#003a50"/><rect x="50.83" y="106.36" width="16.32" height="115.78" fill="#003a50"/><rect x="74.58" y="227.57" width="11.82" height="64.29" fill="#003a50"/><rect x="63.3" y="-0.15" width="474.34" height="16.32" fill="#003a50"/><rect x="50.83" y="215.85" width="486.82" height="12.6" fill="#003a50"/><polygon points="529.62 260.12 529.62 164.38 578.95 164.38 567.28 260.12 529.62 260.12" fill="#003a50" fill-rule="evenodd"/><rect x="529.62" y="-19.97" width="25.28" height="96.07" fill="#003a50"/><rect x="533.62" y="50.19" width="39.53" height="25.9" fill="#003a50"/><rect x="161.53" y="114.37" width="53.52" height="6.38" fill="#003a50"/><rect x="211.86" y="114.37" width="6.38" height="103.38" fill="#003a50"/><rect x="173.03" y="-34.01" width="6.38" height="40.91" fill="#003a50"/><rect x="152.02" y="-21.33" width="6.38" height="26.75" fill="#003a50"/><rect x="178.56" y="32.49" width="24.71" height="6.38" fill="#003a50"/><rect x="178.56" y="12.11" width="6.38" height="26.75" fill="#003a50"/><rect x="200.62" y="12.04" width="6.38" height="38.4" fill="#003a50"/><rect x="66.52" y="167.04" width="33.64" height="6.38" fill="#003a50"/><rect x="95.9" y="116.56" width="6.38" height="101.24" fill="#003a50"/><rect x="289.52" y="226.11" width="6.38" height="88.64" fill="#003a50"/><rect x="167.18" y="226.11" width="6.38" height="88.64" fill="#003a50"/><rect x="141.68" y="225.11" width="6.38" height="26.49" fill="#003a50"/><rect x="50.83" y="217.8" width="5.98" height="81.48" fill="#003a50"/><line x1="215.88" y1="49.12" x2="215.88" y2="51.95" fill="none" stroke="#003a50" stroke-miterlimit="10"/><line x1="215.88" y1="57.44" x2="215.88" y2="109.57" fill="none" stroke="#003a50" stroke-miterlimit="10" stroke-dasharray="5.49 5.49"/><line x1="215.88" y1="112.32" x2="215.88" y2="115.15" fill="none" stroke="#003a50" stroke-miterlimit="10"/><rect x="95.9" y="114.37" width="28.58" height="6.38" fill="#003a50"/><rect x="66.52" y="131.2" width="33.64" height="6.38" fill="#003a50"/></g><path d="M142.25,132.35h-5.82v-1.84h8.86v1.84L140.76,135v.07H142a3.9,3.9,0,0,1,2.79,1,3.5,3.5,0,0,1,1.06,2.67,3.32,3.32,0,0,1-1.33,2.82,6.93,6.93,0,0,1-7.24,0,3.35,3.35,0,0,1-1.33-2.85v-.33h2.11v.33c0,1.36,1,2,2.84,2s2.84-.67,2.84-2-.95-2-2.84-2h-3.26V135.1l4.57-2.68Z" fill="#003a50"/><path d="M148,142.29a1.17,1.17,0,0,1,0-1.61,1.41,1.41,0,0,1,1.74,0,1.17,1.17,0,0,1,0,1.61,1.41,1.41,0,0,1-1.74,0Z" fill="#003a50"/><path d="M157.27,134.44a5,5,0,0,1,3.34,1.06,3.69,3.69,0,0,1,1.26,3,3.73,3.73,0,0,1-1.3,3,5.39,5.39,0,0,1-3.55,1.08,5.79,5.79,0,0,1-3.56-1,3.15,3.15,0,0,1-1.29-2.68h2.11a1.52,1.52,0,0,0,.71,1.33,3.48,3.48,0,0,0,2,.49,3.18,3.18,0,0,0,2-.57,2.08,2.08,0,0,0,.7-1.69,2,2,0,0,0-.74-1.7,3.25,3.25,0,0,0-2.07-.58,3.7,3.7,0,0,0-1.92.41,2.12,2.12,0,0,0-.7.64l-.05.13h-2.11v-6.88h8.88v1.84h-6.77v3h.05a2.78,2.78,0,0,1,.4-.31,3.94,3.94,0,0,1,.55-.26A5.63,5.63,0,0,1,157.27,134.44Z" fill="#003a50"/><path d="M88.54,77.93H86.43V75.28h-7V73.43L85.75,66h2.79v7.41h1.59v1.85H88.54Zm-2.11-4.5V68.11h-.07l-4.47,5.27v.05Z" fill="#003a50"/><path d="M91.82,77.79a1,1,0,0,1-.33-.8,1,1,0,0,1,.33-.81,1.4,1.4,0,0,1,1.73,0,1,1,0,0,1,.33.81,1,1,0,0,1-.33.8,1.4,1.4,0,0,1-1.73,0Z" fill="#003a50"/><path d="M101.1,69.94A5,5,0,0,1,104.44,71a4.18,4.18,0,0,1,0,6,5.39,5.39,0,0,1-3.55,1.08,5.79,5.79,0,0,1-3.56-1A3.16,3.16,0,0,1,96,74.44h2.11a1.55,1.55,0,0,0,.7,1.33,3.61,3.61,0,0,0,2,.49,3.07,3.07,0,0,0,2-.58,2.33,2.33,0,0,0,0-3.38,3.25,3.25,0,0,0-2.07-.59,3.6,3.6,0,0,0-1.92.42,1.93,1.93,0,0,0-.7.64l0,.12H96V66h8.88v1.84H98.11v3h0a2.22,2.22,0,0,1,.4-.31,4,4,0,0,1,.55-.27A5.6,5.6,0,0,1,101.1,69.94Z" fill="#003a50"/><path d="M454.14,105.19l-2.48,2V104.9l2.73-2.26h1.86v11.9h-2.11Z" fill="#003a50"/><path d="M462,114.54h-2.35l5.42-10h-6.93v-1.87h9.29v1.87Z" fill="#003a50"/><path d="M468.83,114.41a1,1,0,0,1-.33-.8,1,1,0,0,1,.33-.81,1.4,1.4,0,0,1,1.73,0,1,1,0,0,1,.32.81,1,1,0,0,1-.32.8,1.4,1.4,0,0,1-1.73,0Z" fill="#003a50"/><path d="M473,111.2h2.21s0,.07,0,.18a3.22,3.22,0,0,0,.23.43,2.09,2.09,0,0,0,.41.48,2,2,0,0,0,.75.42,3.21,3.21,0,0,0,1,.16,2.66,2.66,0,0,0,2.24-1.06,4.3,4.3,0,0,0,.81-2.71h-.06a2,2,0,0,1-.44.47,2.73,2.73,0,0,1-.6.4,3.61,3.61,0,0,1-1,.32,5.43,5.43,0,0,1-1.22.13,4.94,4.94,0,0,1-3.36-1.12,3.72,3.72,0,0,1,.05-5.73,5.55,5.55,0,0,1,3.6-1.1,4.81,4.81,0,0,1,3.87,1.54,6.4,6.4,0,0,1,1.32,4.27v.41a6.7,6.7,0,0,1-1.37,4.31,4.69,4.69,0,0,1-3.89,1.71,5.9,5.9,0,0,1-2.16-.37,3.79,3.79,0,0,1-1.48-1A3.33,3.33,0,0,1,473,111.2Zm2.77-3.17a3.6,3.6,0,0,0,3.95,0,1.85,1.85,0,0,0,.78-1.57,1.88,1.88,0,0,0-.77-1.57,3.24,3.24,0,0,0-2-.59,3.14,3.14,0,0,0-2,.59,2,2,0,0,0,0,3.14Z" fill="#003a50"/><path d="M267.4,67.86h-5.83V66h8.87v1.84l-4.53,2.65v.07h1.28a3.86,3.86,0,0,1,2.79,1,3.52,3.52,0,0,1,1,2.66,3.33,3.33,0,0,1-1.33,2.83,7,7,0,0,1-7.24,0,3.39,3.39,0,0,1-1.33-2.86V73.9h2.11v.32c0,1.36.95,2,2.84,2s2.84-.67,2.84-2-.94-2-2.84-2h-3.26V70.61l4.58-2.68Z" fill="#003a50"/><path d="M273.13,77.79a1,1,0,0,1-.32-.8,1.07,1.07,0,0,1,.32-.81,1.25,1.25,0,0,1,.88-.3,1.22,1.22,0,0,1,.86.3,1,1,0,0,1,.32.81,1,1,0,0,1-.32.8,1.22,1.22,0,0,1-.86.3A1.25,1.25,0,0,1,273.13,77.79Z" fill="#003a50"/><path d="M279,68.57l-2.48,2V68.28L279.29,66h1.86V77.93H279Z" fill="#003a50"/></svg>