<svg id="Слой_1" data-name="Слой 1" xmlns="http://www.w3.org/2000/svg" xmlns:xlink="http://www.w3.org/1999/xlink" viewBox="0 0 583.94 629.29"><defs><clipPath id="clip-path"><polygon points="0.17 0.04 0.17 161.43 51.02 161.43 51.02 228.16 157.55 228.16 157.55 629.29 581.56 629.29 581.56 0.04 0.17 0.04" fill="none"/></clipPath></defs><polygon points="51.02 227.78 51.02 228.16 157.55 228.16 157.55 588.46 168.13 588.46 166.76 224.43 51.02 227.78" fill="#fff"/><polygon points="53 8.53 53 77.48 66.72 109.78 66.72 159.28 64.79 224.76 162.79 225.28 166.96 588.46 530.63 588.46 530.63 9.28 74.16 9.28 74.16 8.53 53 8.53" fill="#fff"/><polygon points="63.09 0.04 62.88 6.31 531.33 5.34 531.31 0.04 63.09 0.04" fill="#fff"/><g clip-path="url(#clip-path)"><rect x="-561.86" y="-1591.72" width="1115.44" height="2194.74" fill="none" stroke="#003a50" stroke-miterlimit="10"/><polygon points="-537.04 -505.73 -537.04 580.06 529.44 580.06 529.44 -1567.27 -537.04 -1567.42 -537.04 -574.52 -537.04 -505.73" fill="none" stroke="#003a50" stroke-miterlimit="10"/></g><rect x="195.09" y="588" width="87.19" height="4.56" fill="#fff"/><rect x="195.09" y="588" width="87.19" height="4.56" fill="none" stroke="#003a50" stroke-miterlimit="10"/><line x1="195.09" y1="590.29" x2="282.28" y2="590.29" fill="none" stroke="#003a50" stroke-miterlimit="10"/><rect x="195.09" y="588" width="4.4" height="4.56" fill="#fff"/><rect x="195.09" y="588" width="4.4" height="4.56" fill="none" stroke="#003a50" stroke-miterlimit="10"/><rect x="277.88" y="588" width="4.4" height="4.56" fill="#fff"/><rect x="277.88" y="588" width="4.4" height="4.56" fill="none" stroke="#003a50" stroke-miterlimit="10"/><rect x="236.49" y="588" width="4.4" height="4.56" fill="#fff"/><rect x="236.49" y="588" width="4.4" height="4.56" fill="none" stroke="#003a50" stroke-miterlimit="10"/><rect x="377.91" y="588" width="89.52" height="4.56" fill="#fff"/><rect x="377.91" y="588" width="89.52" height="4.56" fill="none" stroke="#003a50" stroke-miterlimit="10"/><line x1="377.91" y1="590.29" x2="467.43" y2="590.29" fill="none" stroke="#003a50" stroke-miterlimit="10"/><rect x="377.91" y="588" width="4.52" height="4.56" fill="#fff"/><rect x="377.91" y="588" width="4.52" height="4.56" fill="none" stroke="#003a50" stroke-miterlimit="10"/><rect x="462.91" y="588" width="4.52" height="4.56" fill="#fff"/><rect x="462.91" y="588" width="4.52" height="4.56" fill="none" stroke="#003a50" stroke-miterlimit="10"/><rect x="420.41" y="588" width="4.52" height="4.56" fill="#fff"/><rect x="420.41" y="588" width="4.52" height="4.56" fill="none" stroke="#003a50" stroke-miterlimit="10"/><rect x="540.36" y="226.87" width="4.56" height="86.99" fill="#fff"/><rect x="540.36" y="226.87" width="4.56" height="86.99" fill="none" stroke="#003a50" stroke-miterlimit="10"/><line x1="542.64" y1="313.86" x2="542.64" y2="226.87" fill="none" stroke="#003a50" stroke-miterlimit="10"/><rect x="540.36" y="309.47" width="4.56" height="4.39" fill="#fff"/><rect x="540.36" y="309.47" width="4.56" height="4.39" fill="none" stroke="#003a50" stroke-miterlimit="10"/><rect x="540.36" y="226.87" width="4.56" height="4.39" fill="#fff"/><rect x="540.36" y="226.87" width="4.56" height="4.39" fill="none" stroke="#003a50" stroke-miterlimit="10"/><rect x="540.36" y="268.17" width="4.56" height="4.39" fill="#fff"/><rect x="540.36" y="268.17" width="4.56" height="4.39" fill="none" stroke="#003a50" stroke-miterlimit="10"/><rect x="540.36" y="410.03" width="4.56" height="142.95" fill="#fff"/><rect x="540.36" y="410.03" width="4.56" height="142.95" fill="none" stroke="#003a50" stroke-miterlimit="10"/><line x1="542.64" y1="410.03" x2="542.64" y2="552.97" fill="none" stroke="#003a50" stroke-miterlimit="10"/><rect x="540.36" y="444.62" width="4.56" height="4.57" fill="#fff"/><rect x="540.36" y="444.62" width="4.56" height="4.57" fill="none" stroke="#003a50" stroke-miterlimit="10"/><rect x="540.36" y="479.22" width="4.56" height="4.57" fill="#fff"/><rect x="540.36" y="479.22" width="4.56" height="4.57" fill="none" stroke="#003a50" stroke-miterlimit="10"/><rect x="540.36" y="410.03" width="4.56" height="4.57" fill="#fff"/><rect x="540.36" y="410.03" width="4.56" height="4.57" fill="none" stroke="#003a50" stroke-miterlimit="10"/><rect x="540.36" y="548.4" width="4.56" height="4.57" fill="#fff"/><rect x="540.36" y="548.4" width="4.56" height="4.57" fill="none" stroke="#003a50" stroke-miterlimit="10"/><rect x="540.36" y="513.81" width="4.56" height="4.57" fill="#fff"/><rect x="540.36" y="513.81" width="4.56" height="4.57" fill="none" stroke="#003a50" stroke-miterlimit="10"/><rect x="540.36" y="44.72" width="4.56" height="87.34" fill="#fff"/><rect x="540.36" y="44.72" width="4.56" height="87.34" fill="none" stroke="#003a50" stroke-miterlimit="10"/><line x1="542.64" y1="132.07" x2="542.64" y2="44.72" fill="none" stroke="#003a50" stroke-miterlimit="10"/><rect x="540.36" y="127.66" width="4.56" height="4.41" fill="#fff"/><rect x="540.36" y="127.66" width="4.56" height="4.41" fill="none" stroke="#003a50" stroke-miterlimit="10"/><rect x="540.36" y="44.72" width="4.56" height="4.41" fill="#fff"/><rect x="540.36" y="44.72" width="4.56" height="4.41" fill="none" stroke="#003a50" stroke-miterlimit="10"/><rect x="540.36" y="86.19" width="4.56" height="4.41" fill="#fff"/><rect x="540.36" y="86.19" width="4.56" height="4.41" fill="none" stroke="#003a50" stroke-miterlimit="10"/><rect x="248.28" y="174.4" width="42.38" height="92.09" fill="none" stroke="#003a50" stroke-miterlimit="10"/><g clip-path="url(#clip-path)"><rect x="253.25" y="178.2" width="32.03" height="84.24" rx="13.7" fill="none" stroke="#003a50" stroke-miterlimit="10"/><path d="M271.55,192.78a2.2,2.2,0,1,0-2.2,2.2A2.19,2.19,0,0,0,271.55,192.78Z" fill="none" stroke="#003a50" stroke-miterlimit="10"/><path d="M201.39,222.69H172.82v23.07h28.57a11.54,11.54,0,1,0,0-23.07Z" fill="none" stroke="#003a50" stroke-miterlimit="10"/></g><rect x="172.82" y="222.69" width="11.08" height="23.08" fill="none" stroke="#003a50" stroke-miterlimit="10"/><g clip-path="url(#clip-path)"><rect x="167.27" y="-95.08" width="43.96" height="95.52" fill="none" stroke="#003a50" stroke-miterlimit="10"/><path d="M201.39,49.75H172.82V72.83h28.57a11.54,11.54,0,1,0,0-23.08Z" fill="none" stroke="#003a50" stroke-miterlimit="10"/></g><rect x="172.82" y="49.75" width="11.08" height="23.08" fill="none" stroke="#003a50" stroke-miterlimit="10"/><g clip-path="url(#clip-path)"><rect x="102.36" y="-30.37" width="31.57" height="30.42" fill="none" stroke="#003a50" stroke-miterlimit="10"/><path d="M151.35,74.5a3.15,3.15,0,0,0,2.9-1.94H156l4.73,2.82-2.15,3.5-2.46-1.36v11h-10.3v-11l-2.47,1.36-2.14-3.5L146,72.56h2.39A3.18,3.18,0,0,0,151.35,74.5Z" fill="none" stroke="#003a50" stroke-miterlimit="10"/></g><rect x="135.22" y="65.34" width="31.57" height="30.36" fill="none" stroke="#003a50" stroke-miterlimit="10"/><rect x="354.44" y="12.46" width="33.97" height="34.02" fill="none" stroke="#003a50" stroke-miterlimit="10"/><g clip-path="url(#clip-path)"><path d="M375.74,28.67v-11h-8.6V28.67a3.55,3.55,0,0,0,3.54,3.55h1.52A3.55,3.55,0,0,0,375.74,28.67Z" fill="none" stroke="#003a50" stroke-miterlimit="10"/></g><polyline points="367.97 42.77 371.44 42.77 374.91 42.77" fill="none" stroke="#003a50" stroke-miterlimit="10"/><line x1="371.44" y1="32.21" x2="371.44" y2="42.77" fill="none" stroke="#003a50" stroke-miterlimit="10"/><g clip-path="url(#clip-path)"><rect x="123.14" y="260.75" width="34.02" height="33.97" fill="none" stroke="#003a50" stroke-miterlimit="10"/><path d="M144.44,276.22v-11h-8.6v11a3.55,3.55,0,0,0,3.54,3.55h1.52A3.54,3.54,0,0,0,144.44,276.22Z" fill="none" stroke="#003a50" stroke-miterlimit="10"/></g><rect x="434.9" y="12.46" width="34.02" height="34.02" fill="none" stroke="#003a50" stroke-miterlimit="10"/><g clip-path="url(#clip-path)"><path d="M464.32,37.07a4.64,4.64,0,1,1-4.64-4.63A4.64,4.64,0,0,1,464.32,37.07Z" fill="none" stroke="#003a50" stroke-miterlimit="10"/><path d="M448.83,37.07a4.64,4.64,0,1,1-4.63-4.63A4.63,4.63,0,0,1,448.83,37.07Z" fill="none" stroke="#003a50" stroke-miterlimit="10"/><path d="M464.32,22a4.64,4.64,0,1,1-4.64-4.64A4.64,4.64,0,0,1,464.32,22Z" fill="none" stroke="#003a50" stroke-miterlimit="10"/><path d="M448.83,22a4.64,4.64,0,1,1-4.63-4.64A4.63,4.63,0,0,1,448.83,22Z" fill="none" stroke="#003a50" stroke-miterlimit="10"/><rect x="291.66" y="-34.28" width="34.02" height="34.02" fill="none" stroke="#003a50" stroke-miterlimit="10"/><rect x="123.22" y="301.86" width="34.02" height="34.02" fill="none" stroke="#003a50" stroke-miterlimit="10"/><path d="M132.62,331.28a4.64,4.64,0,1,1,4.64-4.64A4.63,4.63,0,0,1,132.62,331.28Z" fill="none" stroke="#003a50" stroke-miterlimit="10"/><path d="M132.62,315.79a4.64,4.64,0,1,1,4.64-4.63A4.63,4.63,0,0,1,132.62,315.79Z" fill="none" stroke="#003a50" stroke-miterlimit="10"/><path d="M147.71,331.28a4.64,4.64,0,1,1,4.64-4.64A4.63,4.63,0,0,1,147.71,331.28Z" fill="none" stroke="#003a50" stroke-miterlimit="10"/><path d="M147.71,315.79a4.64,4.64,0,1,1,4.64-4.63A4.63,4.63,0,0,1,147.71,315.79Z" fill="none" stroke="#003a50" stroke-miterlimit="10"/></g><rect x="414.96" y="348.29" width="102.05" height="17.01" fill="none" stroke="#003a50" stroke-miterlimit="10"/><polygon points="508.99 356.25 466.09 359.78 422.99 356.25 422.99 353.79 508.99 353.79 508.99 356.25" fill="none" stroke="#003a50" stroke-miterlimit="10"/><rect x="336.72" y="438.72" width="17.01" height="102.05" fill="none" stroke="#003a50" stroke-miterlimit="10"/><polygon points="344.68 446.74 348.21 489.64 344.68 532.74 342.23 532.74 342.23 446.74 344.68 446.74" fill="none" stroke="#003a50" stroke-miterlimit="10"/><g clip-path="url(#clip-path)"><rect x="123.22" y="260.85" width="33.59" height="122.25" fill="none" stroke="#003a50" stroke-miterlimit="10"/><rect x="76.16" y="228.12" width="80.66" height="32.72" fill="none" stroke="#003a50" stroke-miterlimit="10"/></g><rect x="295.47" y="12.32" width="199.76" height="34.28" fill="none" stroke="#003a50" stroke-miterlimit="10"/><rect x="358.58" y="458.29" width="52.33" height="113.67" fill="none" stroke="#003a50" stroke-miterlimit="10"/><g clip-path="url(#clip-path)"><path d="M402,468H367.93a2.11,2.11,0,0,0-2.1,2.11v67.62h38.25V470.1A2.11,2.11,0,0,0,402,468Z" fill="none" stroke="#003a50" stroke-miterlimit="10"/></g><rect x="365.83" y="523.87" width="38.26" height="13.85" fill="none" stroke="#003a50" stroke-miterlimit="10"/><g clip-path="url(#clip-path)"><path d="M402.27,564.21H368a2.19,2.19,0,0,1-2.2-2.2V543.54a2.2,2.2,0,0,1,2.2-2.21h34.3a2.21,2.21,0,0,1,2.21,2.21V562A2.2,2.2,0,0,1,402.27,564.21Z" fill="none" stroke="#003a50" stroke-miterlimit="10"/></g><rect x="247.11" y="12.11" width="42.22" height="83.62" fill="none" stroke="#003a50" stroke-miterlimit="10"/><g clip-path="url(#clip-path)"><path d="M270.68,32.06a2.46,2.46,0,1,1-2.46-2.46A2.46,2.46,0,0,1,270.68,32.06Z" fill="none" stroke="#003a50" stroke-miterlimit="10"/><path d="M117.86,255.91v-15.2a3.23,3.23,0,0,0-3.24-3.23H91a3.23,3.23,0,0,0-3.24,3.23v15.2A3.23,3.23,0,0,0,91,259.14h23.59A3.23,3.23,0,0,0,117.86,255.91Z" fill="none" stroke="#003a50" stroke-miterlimit="10"/><path d="M102.78,247a2.43,2.43,0,1,0-2.42-2.42A2.42,2.42,0,0,0,102.78,247Z" fill="none" stroke="#003a50" stroke-miterlimit="10"/></g><polyline points="329.07 15.11 322.28 15.11 315.49 15.11" fill="none" stroke="#003a50" stroke-miterlimit="10"/><line x1="322.26" y1="28.73" x2="322.26" y2="15.11" fill="none" stroke="#003a50" stroke-miterlimit="10"/><g clip-path="url(#clip-path)"><path d="M337.33,39.37V24.17a3.23,3.23,0,0,0-3.23-3.23H310.51a3.24,3.24,0,0,0-3.24,3.23v15.2a3.24,3.24,0,0,0,3.24,3.24H334.1A3.23,3.23,0,0,0,337.33,39.37Z" fill="none" stroke="#003a50" stroke-miterlimit="10"/><path d="M322.26,30.42A2.43,2.43,0,1,0,319.83,28,2.42,2.42,0,0,0,322.26,30.42Z" fill="none" stroke="#003a50" stroke-miterlimit="10"/><path d="M27.75,431.3a1.27,1.27,0,0,1,.95,1.51A13.78,13.78,0,0,0,55.57,439a1.26,1.26,0,1,1,2.45.56,16.3,16.3,0,1,1-31.78-7.29A1.26,1.26,0,0,1,27.75,431.3Z" fill="none" stroke="#003a50" stroke-miterlimit="10"/><path d="M82.92,441a1.25,1.25,0,0,1,1.75-.33,13.79,13.79,0,0,0,15.52-22.79,1.26,1.26,0,1,1,1.42-2.08,16.3,16.3,0,0,1-18.36,26.95A1.27,1.27,0,0,1,82.92,441Z" fill="none" stroke="#003a50" stroke-miterlimit="10"/><path d="M85.43,393.61a1.27,1.27,0,0,1-1.34-1.18,13.78,13.78,0,1,0-27.52,1.63,1.24,1.24,0,0,1-1.18,1.33,1.26,1.26,0,0,1-1.33-1.18,16.3,16.3,0,0,1,32.55-1.93A1.26,1.26,0,0,1,85.43,393.61Z" fill="none" stroke="#003a50" stroke-miterlimit="10"/><path d="M42,447.91a12.69,12.69,0,0,1-12-15.48l2-8.88a3.53,3.53,0,0,1,4.24-2.68L49.67,424a23.73,23.73,0,0,0,6,9.44l-1,4.2C53.35,443.55,48.07,448.11,42,447.91Z" fill="none" stroke="#003a50" stroke-miterlimit="10"/><path d="M84.75,439.39l-2.32-1.6a23.81,23.81,0,0,0,13.64-21.32l2.52,1.72c5,3.44,7.4,10,5,15.64A12.7,12.7,0,0,1,84.75,439.39Z" fill="none" stroke="#003a50" stroke-miterlimit="10"/><path d="M57.91,397.11l-.12-2c-.36-6.12,3.4-12,9.32-13.48A12.66,12.66,0,0,1,83,393.15l.12,1.84a23.93,23.93,0,0,0-16.64-1.92A23.5,23.5,0,0,0,57.91,397.11Z" fill="none" stroke="#003a50" stroke-miterlimit="10"/><path d="M55.67,433.39a23.73,23.73,0,0,1-6-9.44,16.51,16.51,0,0,1-.6-2,23.85,23.85,0,0,1,8.84-24.84,23.5,23.5,0,0,1,8.56-4,23.87,23.87,0,0,1,28.92,17.4,22.12,22.12,0,0,1,.68,6,23.81,23.81,0,0,1-13.64,21.32,22.85,22.85,0,0,1-4.48,1.6A23.8,23.8,0,0,1,55.67,433.39Z" fill="none" stroke="#003a50" stroke-miterlimit="10"/><rect x="218.1" y="-34.28" width="136.06" height="34.02" fill="none" stroke="#003a50" stroke-miterlimit="10"/></g><rect x="295.76" y="168.14" width="22.68" height="65.6" fill="none" stroke="#003a50" stroke-miterlimit="10"/><rect x="295.76" y="233.73" width="22.68" height="65.6" fill="none" stroke="#003a50" stroke-miterlimit="10"/><polygon points="248.02 205.39 173.08 205.18 173.08 174.62 248.02 174.84 248.02 205.39" fill="none" stroke="#003a50" stroke-miterlimit="10"/><g clip-path="url(#clip-path)"><rect x="179.15" y="173.01" width="28.96" height="29.71" rx="3.36" fill="none" stroke="#003a50" stroke-miterlimit="10"/><circle cx="193.63" cy="187.87" r="2.27" fill="none" stroke="#003a50" stroke-miterlimit="10"/><rect x="215.01" y="173.01" width="28.96" height="29.71" rx="3.36" fill="none" stroke="#003a50" stroke-miterlimit="10"/><circle cx="229.49" cy="187.87" r="2.27" fill="none" stroke="#003a50" stroke-miterlimit="10"/></g><polygon points="246.86 43.43 173.39 43.22 173.39 12.67 246.86 12.88 246.86 43.43" fill="none" stroke="#003a50" stroke-miterlimit="10"/><g clip-path="url(#clip-path)"><path d="M214.22,37.41v-23a3.35,3.35,0,0,1,3.36-3.36h22.24a3.35,3.35,0,0,1,3.36,3.36v23a3.35,3.35,0,0,1-3.36,3.36H217.58A3.35,3.35,0,0,1,214.22,37.41Z" fill="none" stroke="#003a50" stroke-miterlimit="10"/><path d="M228.7,28.18A2.27,2.27,0,1,1,231,25.91,2.27,2.27,0,0,1,228.7,28.18Z" fill="none" stroke="#003a50" stroke-miterlimit="10"/><polygon points="167.04 -30.46 102.08 -30.25 102.08 0.3 167.04 0.08 167.04 -30.46" fill="none" stroke="#003a50" stroke-miterlimit="10"/><path d="M136-24.44v23a3.35,3.35,0,0,0,3.35,3.36h22.25A3.36,3.36,0,0,0,165-1.45v-23a3.36,3.36,0,0,0-3.36-3.36H139.38A3.35,3.35,0,0,0,136-24.44Z" fill="none" stroke="#003a50" stroke-miterlimit="10"/><rect x="123.17" y="349.51" width="33.52" height="33.52" fill="none" stroke="#003a50" stroke-miterlimit="10"/></g><rect x="494.9" y="12.6" width="34.02" height="34.02" fill="none" stroke="#003a50" stroke-miterlimit="10"/><line x1="521.88" y1="29.6" x2="501.92" y2="29.6" fill="none" stroke="#003a50" stroke-miterlimit="10"/><line x1="511.9" y1="19.62" x2="511.9" y2="39.58" fill="none" stroke="#003a50" stroke-miterlimit="10"/><line x1="518.96" y1="22.55" x2="504.85" y2="36.66" fill="none" stroke="#003a50" stroke-miterlimit="10"/><line x1="504.85" y1="22.55" x2="518.96" y2="36.66" fill="none" stroke="#003a50" stroke-miterlimit="10"/><rect x="173.18" y="272.89" width="26.62" height="97.42" fill="none" stroke="#003a50" stroke-miterlimit="10"/><g clip-path="url(#clip-path)"><path d="M177,356.57a.77.77,0,0,1-.7-.44.79.79,0,0,1,.35-1.05,22.59,22.59,0,0,1,19.78,0,.79.79,0,0,1-.7,1.41,20.89,20.89,0,0,0-18.38,0A.72.72,0,0,1,177,356.57Z" fill="none" stroke="#003a50" stroke-miterlimit="10"/><path d="M177,352.22a.79.79,0,0,1-.7-.44.8.8,0,0,1,.35-1.06,22.59,22.59,0,0,1,19.78,0,.79.79,0,0,1-.7,1.42,20.89,20.89,0,0,0-18.38,0A.85.85,0,0,1,177,352.22Z" fill="none" stroke="#003a50" stroke-miterlimit="10"/><path d="M177,347.86a.77.77,0,0,1-.7-.44.79.79,0,0,1,.35-1.05,22.5,22.5,0,0,1,19.78,0,.79.79,0,0,1-.7,1.41,20.89,20.89,0,0,0-18.38,0A.72.72,0,0,1,177,347.86Z" fill="none" stroke="#003a50" stroke-miterlimit="10"/><path d="M177,343.5a.77.77,0,0,1-.7-.44.79.79,0,0,1,.35-1.05,22.59,22.59,0,0,1,19.78,0,.79.79,0,0,1-.7,1.41,21,21,0,0,0-18.38,0A.72.72,0,0,1,177,343.5Z" fill="none" stroke="#003a50" stroke-miterlimit="10"/><path d="M177,339.15a.79.79,0,0,1-.35-1.49,22.5,22.5,0,0,1,19.78,0,.79.79,0,0,1-.7,1.41,20.89,20.89,0,0,0-18.38,0A.85.85,0,0,1,177,339.15Z" fill="none" stroke="#003a50" stroke-miterlimit="10"/><path d="M177,334.79a.77.77,0,0,1-.7-.44.79.79,0,0,1,.35-1.05,22.59,22.59,0,0,1,19.78,0,.79.79,0,0,1-.7,1.41,20.89,20.89,0,0,0-18.38,0A.72.72,0,0,1,177,334.79Z" fill="none" stroke="#003a50" stroke-miterlimit="10"/><path d="M177,360.93a.79.79,0,0,1-.35-1.49,22.5,22.5,0,0,1,19.78,0,.79.79,0,0,1-.7,1.41,20.89,20.89,0,0,0-18.38,0A.85.85,0,0,1,177,360.93Z" fill="none" stroke="#003a50" stroke-miterlimit="10"/><path d="M177,365.28a.77.77,0,0,1-.7-.44.79.79,0,0,1,.35-1,22.59,22.59,0,0,1,19.78,0,.79.79,0,0,1-.7,1.41,21,21,0,0,0-18.38,0A.72.72,0,0,1,177,365.28Z" fill="none" stroke="#003a50" stroke-miterlimit="10"/></g><line x1="186.49" y1="369.97" x2="186.49" y2="272.89" fill="none" stroke="#003a50" stroke-miterlimit="10"/><rect x="263.78" y="272.89" width="26.62" height="97.42" fill="none" stroke="#003a50" stroke-miterlimit="10"/><g clip-path="url(#clip-path)"><path d="M267.55,356.57a.78.78,0,0,1-.34-1.49,22.57,22.57,0,0,1,19.77,0,.78.78,0,0,1-.69,1.41,20.91,20.91,0,0,0-18.39,0A.72.72,0,0,1,267.55,356.57Z" fill="none" stroke="#003a50" stroke-miterlimit="10"/><path d="M267.55,352.22a.79.79,0,0,1-.34-1.5,22.57,22.57,0,0,1,19.77,0,.79.79,0,0,1-.69,1.42,20.91,20.91,0,0,0-18.39,0A.85.85,0,0,1,267.55,352.22Z" fill="none" stroke="#003a50" stroke-miterlimit="10"/><path d="M267.55,347.86a.78.78,0,0,1-.34-1.49,22.48,22.48,0,0,1,19.77,0,.78.78,0,0,1-.69,1.41,20.91,20.91,0,0,0-18.39,0A.72.72,0,0,1,267.55,347.86Z" fill="none" stroke="#003a50" stroke-miterlimit="10"/><path d="M267.55,343.5a.78.78,0,0,1-.7-.44.79.79,0,0,1,.36-1.05A22.57,22.57,0,0,1,287,342a.78.78,0,0,1-.69,1.41,21,21,0,0,0-18.39,0A.72.72,0,0,1,267.55,343.5Z" fill="none" stroke="#003a50" stroke-miterlimit="10"/><path d="M267.55,339.15a.8.8,0,0,1-.7-.44.78.78,0,0,1,.36-1,22.48,22.48,0,0,1,19.77,0,.78.78,0,0,1-.69,1.41,20.91,20.91,0,0,0-18.39,0A.85.85,0,0,1,267.55,339.15Z" fill="none" stroke="#003a50" stroke-miterlimit="10"/><path d="M267.55,334.79a.78.78,0,0,1-.34-1.49,22.57,22.57,0,0,1,19.77,0,.78.78,0,0,1-.69,1.41,20.91,20.91,0,0,0-18.39,0A.72.72,0,0,1,267.55,334.79Z" fill="none" stroke="#003a50" stroke-miterlimit="10"/><path d="M267.55,360.93a.8.8,0,0,1-.7-.44.78.78,0,0,1,.36-1.05,22.48,22.48,0,0,1,19.77,0,.78.78,0,0,1-.69,1.41,20.91,20.91,0,0,0-18.39,0A.85.85,0,0,1,267.55,360.93Z" fill="none" stroke="#003a50" stroke-miterlimit="10"/><path d="M267.55,365.28a.78.78,0,0,1-.7-.44.79.79,0,0,1,.36-1,22.57,22.57,0,0,1,19.77,0,.78.78,0,0,1-.69,1.41,21,21,0,0,0-18.39,0A.72.72,0,0,1,267.55,365.28Z" fill="none" stroke="#003a50" stroke-miterlimit="10"/></g><line x1="277.09" y1="369.97" x2="277.09" y2="272.89" fill="none" stroke="#003a50" stroke-miterlimit="10"/><g clip-path="url(#clip-path)"><path d="M152.83,61.6a.78.78,0,0,1-.44.7.79.79,0,0,1-1-.36,22.57,22.57,0,0,1,0-19.77.78.78,0,0,1,1.41.69,21,21,0,0,0,0,18.39A.72.72,0,0,1,152.83,61.6Z" fill="none" stroke="#003a50" stroke-miterlimit="10"/><path d="M148.48,61.6a.8.8,0,0,1-.44.7.78.78,0,0,1-1-.36,22.48,22.48,0,0,1,0-19.77.78.78,0,0,1,1.41.69,20.91,20.91,0,0,0,0,18.39A.85.85,0,0,1,148.48,61.6Z" fill="none" stroke="#003a50" stroke-miterlimit="10"/><path d="M144.12,61.6a.78.78,0,0,1-1.49.34,22.57,22.57,0,0,1,0-19.77.78.78,0,0,1,1.41.69,20.91,20.91,0,0,0,0,18.39A.72.72,0,0,1,144.12,61.6Z" fill="none" stroke="#003a50" stroke-miterlimit="10"/><path d="M139.77,61.6a.79.79,0,0,1-1.5.34,22.57,22.57,0,0,1,0-19.77.79.79,0,0,1,1.42.69,20.91,20.91,0,0,0,0,18.39A.85.85,0,0,1,139.77,61.6Z" fill="none" stroke="#003a50" stroke-miterlimit="10"/><path d="M135.41,61.6a.78.78,0,0,1-1.49.34,22.48,22.48,0,0,1,0-19.77.78.78,0,0,1,1.41.69,20.91,20.91,0,0,0,0,18.39A.72.72,0,0,1,135.41,61.6Z" fill="none" stroke="#003a50" stroke-miterlimit="10"/><path d="M131.05,61.6a.78.78,0,0,1-.44.7.79.79,0,0,1-1.05-.36,22.57,22.57,0,0,1,0-19.77.78.78,0,0,1,1.41.69,21,21,0,0,0,0,18.39A.72.72,0,0,1,131.05,61.6Z" fill="none" stroke="#003a50" stroke-miterlimit="10"/><path d="M157.19,61.6a.78.78,0,0,1-1.49.34,22.48,22.48,0,0,1,0-19.77.78.78,0,0,1,1.41.69,20.91,20.91,0,0,0,0,18.39A.72.72,0,0,1,157.19,61.6Z" fill="none" stroke="#003a50" stroke-miterlimit="10"/><path d="M161.55,61.6a.79.79,0,0,1-1.5.34,22.57,22.57,0,0,1,0-19.77.79.79,0,0,1,1.42.69,20.91,20.91,0,0,0,0,18.39A.85.85,0,0,1,161.55,61.6Z" fill="none" stroke="#003a50" stroke-miterlimit="10"/></g><line x1="166.23" y1="52.06" x2="86.08" y2="52.06" fill="none" stroke="#003a50" stroke-miterlimit="10"/><rect x="86.08" y="38.75" width="80.49" height="26.6" fill="none" stroke="#003a50" stroke-miterlimit="10"/><rect x="412.15" y="370.57" width="118.13" height="34.02" fill="none" stroke="#003a50" stroke-miterlimit="10"/><g clip-path="url(#clip-path)"><path d="M429.27,399.76a1,1,0,0,0,.56.9,1,1,0,0,0,1.34-.46,28.77,28.77,0,0,0,0-25.26,1,1,0,0,0-1.8.89,26.72,26.72,0,0,1,0,23.49A1,1,0,0,0,429.27,399.76Z" fill="none" stroke="#003a50" stroke-miterlimit="10"/><path d="M434.83,399.76a1,1,0,0,0,1.91.44,28.77,28.77,0,0,0,0-25.26,1,1,0,0,0-1.34-.45,1,1,0,0,0-.46,1.34,26.81,26.81,0,0,1,0,23.49A.87.87,0,0,0,434.83,399.76Z" fill="none" stroke="#003a50" stroke-miterlimit="10"/><path d="M440.4,399.76a1,1,0,0,0,1.9.44,28.77,28.77,0,0,0,0-25.26,1,1,0,0,0-1.8.89,26.72,26.72,0,0,1,0,23.49A1,1,0,0,0,440.4,399.76Z" fill="none" stroke="#003a50" stroke-miterlimit="10"/><path d="M446,399.76a1,1,0,0,0,1.91.44,28.77,28.77,0,0,0,0-25.26,1,1,0,0,0-1.34-.45,1,1,0,0,0-.46,1.34,26.81,26.81,0,0,1,0,23.49A.87.87,0,0,0,446,399.76Z" fill="none" stroke="#003a50" stroke-miterlimit="10"/><path d="M451.53,399.76a1,1,0,0,0,1.9.44,28.77,28.77,0,0,0,0-25.26,1,1,0,0,0-1.8.89,26.72,26.72,0,0,1,0,23.49A1,1,0,0,0,451.53,399.76Z" fill="none" stroke="#003a50" stroke-miterlimit="10"/><path d="M457.09,399.76a1,1,0,0,0,1.91.44,28.77,28.77,0,0,0,0-25.26,1,1,0,0,0-1.34-.45,1,1,0,0,0-.46,1.34,26.81,26.81,0,0,1,0,23.49A1,1,0,0,0,457.09,399.76Z" fill="none" stroke="#003a50" stroke-miterlimit="10"/><path d="M423.7,399.76a1,1,0,0,0,1.91.44,28.77,28.77,0,0,0,0-25.26,1,1,0,0,0-1.34-.45,1,1,0,0,0-.46,1.34,26.81,26.81,0,0,1,0,23.49A.87.87,0,0,0,423.7,399.76Z" fill="none" stroke="#003a50" stroke-miterlimit="10"/><path d="M418.14,399.76a1,1,0,0,0,.56.9,1,1,0,0,0,1.34-.46,28.77,28.77,0,0,0,0-25.26,1,1,0,0,0-1.8.89,26.72,26.72,0,0,1,0,23.49A1,1,0,0,0,418.14,399.76Z" fill="none" stroke="#003a50" stroke-miterlimit="10"/></g><line x1="412.15" y1="387.57" x2="529.73" y2="387.57" fill="none" stroke="#003a50" stroke-miterlimit="10"/><g clip-path="url(#clip-path)"><path d="M423.1-48.34a3.1,3.1,0,0,0-3.32-2.83h-4.23a3.11,3.11,0,0,0-3.33,2.83V-.15H525.61V-47.92a3.11,3.11,0,0,0-3.32-2.83h-4.23a3.11,3.11,0,0,0-3.32,2.83V-5.09H423.1Z" fill="none" stroke="#003a50" stroke-miterlimit="10"/><path d="M110.47,515.49h41v45.77H108.26V517.7A2.21,2.21,0,0,1,110.47,515.49Z" fill="none" stroke="#003a50" stroke-miterlimit="10"/><path d="M110.24,469.62H151.5v45.77H110.24a2,2,0,0,1-2-2V471.6A2,2,0,0,1,110.24,469.62Z" fill="none" stroke="#003a50" stroke-miterlimit="10"/><path d="M108.26,561.26a3.11,3.11,0,0,0-2.83,3.33v4.22a3.1,3.1,0,0,0,2.83,3.32h48.2V458.75H108.68a3.1,3.1,0,0,0-2.82,3.32v4.23a3.1,3.1,0,0,0,2.82,3.32h42.83v91.64Z" fill="none" stroke="#003a50" stroke-miterlimit="10"/><path d="M466,265v-41H511.8v43.25H468.25A2.21,2.21,0,0,1,466,265Z" fill="none" stroke="#003a50" stroke-miterlimit="10"/><path d="M420.17,265.18V223.92h45.77v41.26a2,2,0,0,1-2,2H422.15A2,2,0,0,1,420.17,265.18Z" fill="none" stroke="#003a50" stroke-miterlimit="10"/><path d="M511.8,267.17a3.12,3.12,0,0,0,3.33,2.83h4.23a3.11,3.11,0,0,0,3.32-2.83V219H409.29v47.77a3.11,3.11,0,0,0,3.33,2.83h4.22a3.11,3.11,0,0,0,3.33-2.83V223.92H511.8Z" fill="none" stroke="#003a50" stroke-miterlimit="10"/></g><rect x="420.17" y="223.92" width="91.64" height="9.25" fill="none" stroke="#003a50" stroke-miterlimit="10"/><g clip-path="url(#clip-path)"><path d="M495.85,493.54a14.78,14.78,0,0,0-15.92,23.39,1.14,1.14,0,0,0,1.77-1.43A12.47,12.47,0,0,1,495.85,496Z" fill="none" stroke="#003a50" stroke-miterlimit="10"/><rect x="495.85" y="463.77" width="34.02" height="84.03" rx="3.31" fill="none" stroke="#003a50" stroke-miterlimit="10"/><path d="M526.16,466.32a1.4,1.4,0,0,0-1.4,1.39v76.15a1.4,1.4,0,0,0,2.8,0V467.71a1.4,1.4,0,0,0-1.4-1.39" fill="none" stroke="#003a50" stroke-miterlimit="10"/><path d="M511.58,534.13a5.5,5.5,0,1,1,0,7.78A5.49,5.49,0,0,1,511.58,534.13Z" fill="none" stroke="#003a50" stroke-miterlimit="10"/><path d="M511.21,534.54c1,.1,2-.29,3,.7,1.46,1.46-.08,3,1.38,4.47s3-.09,4.47,1.38" fill="none" stroke="#003a50" stroke-miterlimit="10"/><path d="M495.85,498.25a10.63,10.63,0,1,0,0,19.59Z" fill="none" stroke="#003a50" stroke-miterlimit="10"/></g><rect x="173" y="550.86" width="22.68" height="22.68" fill="none" stroke="#003a50" stroke-miterlimit="10"/><g clip-path="url(#clip-path)"><path d="M190.84,568.7a9.2,9.2,0,1,1,0-13A9.19,9.19,0,0,1,190.84,568.7Z" fill="none" stroke="#003a50" stroke-miterlimit="10"/><path d="M191.46,568c-1.69-.17-3.41.48-5.06-1.17-2.44-2.44.14-5-2.3-7.46s-5,.14-7.46-2.3" fill="none" stroke="#003a50" stroke-miterlimit="10"/></g><rect x="173" y="412.42" width="22.68" height="22.68" fill="none" stroke="#003a50" stroke-miterlimit="10"/><g clip-path="url(#clip-path)"><path d="M190.84,430.26a9.19,9.19,0,1,1,0-13A9.19,9.19,0,0,1,190.84,430.26Z" fill="none" stroke="#003a50" stroke-miterlimit="10"/><path d="M191.46,429.57c-1.69-.17-3.41.49-5.06-1.17-2.44-2.44.14-5-2.3-7.45s-5,.13-7.46-2.3" fill="none" stroke="#003a50" stroke-miterlimit="10"/></g><rect x="173" y="441.96" width="113.38" height="102.05" fill="none" stroke="#003a50" stroke-miterlimit="10"/><g clip-path="url(#clip-path)"><path d="M276.65,452V534a2.1,2.1,0,0,1-2.09,2.09H206.92V449.87h67.64A2.09,2.09,0,0,1,276.65,452Z" fill="none" stroke="#003a50" stroke-miterlimit="10"/><rect x="180.43" y="493.85" width="22.88" height="42.5" rx="1.98" fill="none" stroke="#003a50" stroke-miterlimit="10"/><rect x="180.43" y="449.61" width="22.88" height="42.5" rx="1.98" fill="none" stroke="#003a50" stroke-miterlimit="10"/></g><line x1="220.77" y1="449.61" x2="220.77" y2="536.34" fill="none" stroke="#003a50" stroke-miterlimit="10"/><g clip-path="url(#clip-path)"><path d="M486,119.47a1.25,1.25,0,0,1-1.25-1.25,13.66,13.66,0,1,0-27.32,0,1.25,1.25,0,0,1-2.5,0,16.16,16.16,0,1,1,32.32,0A1.25,1.25,0,0,1,486,119.47Z" fill="none" stroke="#003a50" stroke-miterlimit="10"/><path d="M456.19,172.16a1.25,1.25,0,0,1,1.25,1.25,13.66,13.66,0,1,0,27.32,0,1.25,1.25,0,1,1,2.5,0,16.16,16.16,0,1,1-32.32,0A1.25,1.25,0,0,1,456.19,172.16Z" fill="none" stroke="#003a50" stroke-miterlimit="10"/><path d="M444.57,119.47a1.25,1.25,0,0,1-1.25-1.25,13.66,13.66,0,1,0-27.32,0,1.25,1.25,0,1,1-2.5,0,16.16,16.16,0,1,1,32.32,0A1.25,1.25,0,0,1,444.57,119.47Z" fill="none" stroke="#003a50" stroke-miterlimit="10"/><path d="M414.75,172.16a1.25,1.25,0,0,1,1.25,1.25,13.66,13.66,0,1,0,27.32,0,1.25,1.25,0,0,1,2.5,0,16.16,16.16,0,1,1-32.32,0A1.25,1.25,0,0,1,414.75,172.16Z" fill="none" stroke="#003a50" stroke-miterlimit="10"/><path d="M391.66,133.1a1.25,1.25,0,0,1-1.24,1.25,13.66,13.66,0,1,0,0,27.32,1.25,1.25,0,0,1,0,2.5,16.16,16.16,0,0,1,0-32.32A1.25,1.25,0,0,1,391.66,133.1Z" fill="none" stroke="#003a50" stroke-miterlimit="10"/><path d="M504.22,162.92a1.25,1.25,0,0,1,1.25-1.25,13.66,13.66,0,0,0,0-27.32,1.25,1.25,0,0,1,0-2.5,16.16,16.16,0,0,1,0,32.32A1.25,1.25,0,0,1,504.22,162.92Z" fill="none" stroke="#003a50" stroke-miterlimit="10"/><path d="M471.09,106.34a12.57,12.57,0,0,1,12.56,12.52v5.8a23.7,23.7,0,0,0-6.08-.8h-19v-5A12.56,12.56,0,0,1,471.09,106.34Z" fill="none" stroke="#003a50" stroke-miterlimit="10"/><path d="M483.65,171.38v1.36a12.54,12.54,0,1,1-25.08,0v-.56h19A25.59,25.59,0,0,0,483.65,171.38Z" fill="none" stroke="#003a50" stroke-miterlimit="10"/><path d="M429.65,106.34a12.57,12.57,0,0,1,12.56,12.52v5H418.37c-.4,0-.84,0-1.24.08v-5.08A12.54,12.54,0,0,1,429.65,106.34Z" fill="none" stroke="#003a50" stroke-miterlimit="10"/><path d="M417.13,172.1c.4,0,.84.08,1.24.08h23.84v.56a12.54,12.54,0,1,1-25.08,0Z" fill="none" stroke="#003a50" stroke-miterlimit="10"/><path d="M498.17,135.46h6.64a12.54,12.54,0,1,1,0,25.08h-6.64A23.81,23.81,0,0,0,501.73,148,24.06,24.06,0,0,0,498.17,135.46Z" fill="none" stroke="#003a50" stroke-miterlimit="10"/><path d="M391.09,135.46h6.68A24.06,24.06,0,0,0,394.21,148a23.81,23.81,0,0,0,3.56,12.52h-6.68a12.54,12.54,0,1,1,0-25.08Z" fill="none" stroke="#003a50" stroke-miterlimit="10"/><path d="M418.37,123.86h59.2a23.7,23.7,0,0,1,6.08.8A24.24,24.24,0,0,1,501.73,148a23.81,23.81,0,0,1-3.56,12.52,24.19,24.19,0,0,1-14.52,10.84,25.59,25.59,0,0,1-6.08.8h-59.2c-.4,0-.84,0-1.24-.08a24.11,24.11,0,0,1,0-48.16C417.53,123.9,418,123.86,418.37,123.86Z" fill="none" stroke="#003a50" stroke-miterlimit="10"/><path d="M244.25,98.48v3.1a39,39,0,0,1-39,39V98.48" fill="none" stroke="#003a50" stroke-miterlimit="10" stroke-width="1.6"/><path d="M244.25,269.15v3.1a39,39,0,0,1-39,39V269.15" fill="none" stroke="#003a50" stroke-miterlimit="10" stroke-width="1.6"/><path d="M302.25,367.82v3.5a44.08,44.08,0,0,0,44.08,44.08V367.82" fill="none" stroke="#003a50" stroke-miterlimit="10" stroke-width="1.6"/><path d="M409,367.82v3.5a44.07,44.07,0,0,1-44.08,44.08V367.82" fill="none" stroke="#003a50" stroke-miterlimit="10" stroke-width="1.6"/><path d="M-11.17,218.25v-4.07A51.12,51.12,0,0,1,40,163.06v55.19" fill="none" stroke="#003a50" stroke-miterlimit="10" stroke-width="1.6"/><path d="M56.19,109.07H52.12A51.13,51.13,0,0,0,1,160.19h55.2" fill="none" stroke="#003a50" stroke-miterlimit="10" stroke-width="1.6"/><line x1="158.46" y1="104.86" x2="103.97" y2="104.86" fill="none" stroke="#003a50" stroke-miterlimit="10" stroke-width="1.6"/><rect x="50.41" y="-109.47" width="16.32" height="115.78" fill="#003a50"/><rect x="50.41" y="64.99" width="16.32" height="44.79" fill="#003a50"/><rect x="74.16" y="11.74" width="11.82" height="64.29" fill="#003a50"/><rect x="53.83" y="64.99" width="32.14" height="11.82" fill="#003a50"/><rect x="50.41" y="159.28" width="16.32" height="66" fill="#003a50"/><rect x="39.09" y="211.81" width="131.96" height="16.32" fill="#003a50"/><rect x="156.82" y="211.81" width="16.32" height="380.64" fill="#003a50"/><rect x="50.41" y="0.02" width="486.82" height="12.6" fill="#003a50"/><rect x="-84.61" y="579.53" width="96" height="41.92" fill="#003a50"/><rect x="282.79" y="579.53" width="96" height="43.92" fill="#003a50"/><rect x="287.72" y="573.36" width="82.83" height="27.12" fill="#003a50"/><rect x="-78.03" y="573.36" width="82.83" height="27.12" fill="#003a50"/><rect x="466.69" y="579.53" width="96" height="34.25" fill="#003a50"/><rect x="99.56" y="579.53" width="95.33" height="34.25" fill="#003a50"/><rect x="167.72" y="583.53" width="27.17" height="41.92" fill="#003a50"/><polygon points="529.19 409.6 529.19 313.86 578.52 313.86 566.86 409.6 529.19 409.6" fill="#003a50" fill-rule="evenodd"/><rect x="527.83" y="553.11" width="49.15" height="47.79" fill="#003a50"/><rect x="522.72" y="315.11" width="9.5" height="61.67" fill="#003a50"/><rect x="522.72" y="145.86" width="9.5" height="76.42" fill="#003a50"/><rect x="551.35" y="600.9" width="25.83" height="25" fill="#003a50"/><rect x="529.19" y="132.57" width="26.17" height="94.57" fill="#003a50"/><rect x="533.19" y="201.24" width="39.53" height="25.9" fill="#003a50"/><polygon points="529.19 44.29 529.19 -51.45 578.52 -51.45 566.86 44.29 529.19 44.29" fill="#003a50" fill-rule="evenodd"/><rect x="211.44" y="-101.46" width="6.38" height="103.38" fill="#003a50"/><rect x="95.47" y="-99.27" width="6.38" height="101.24" fill="#003a50"/><rect x="243.46" y="95.74" width="52.01" height="6.38" fill="#003a50"/><rect x="289.1" y="10.28" width="6.38" height="88.64" fill="#003a50"/><rect x="166.76" y="10.28" width="6.38" height="88.64" fill="#003a50"/><rect x="81.3" y="32.58" width="88.64" height="6.38" fill="#003a50"/><rect x="141.25" y="9.28" width="6.38" height="26.49" fill="#003a50"/><rect x="131.22" y="95.74" width="75" height="6.38" fill="#003a50"/><rect x="58.57" y="95.74" width="35.29" height="6.38" fill="#003a50"/><rect x="166.76" y="167.95" width="6.38" height="52.01" fill="#003a50"/><rect x="62.89" y="186.02" width="108.92" height="6.38" fill="#003a50"/><rect x="114.16" y="188.28" width="6.38" height="33.17" fill="#003a50"/><rect x="166.76" y="168.03" width="128.72" height="6.38" fill="#003a50"/><rect x="166.76" y="266.4" width="39.47" height="6.38" fill="#003a50"/><rect x="243.46" y="266.4" width="48.82" height="6.38" fill="#003a50"/><rect x="290.22" y="365.07" width="12.92" height="6.38" fill="#003a50"/><rect x="345.22" y="365.07" width="20.5" height="6.38" fill="#003a50"/><rect x="408.21" y="365.07" width="126.02" height="6.38" fill="#003a50"/><rect x="352.95" y="368.26" width="6.38" height="211.27" fill="#003a50"/><rect x="290.31" y="168.03" width="6.38" height="203.42" fill="#003a50"/><rect x="49.81" y="225.28" width="6.38" height="25.25" fill="#003a50"/><rect x="69.79" y="226.03" width="6.38" height="24.5" fill="#003a50"/><rect x="51.66" y="244.15" width="24.5" height="6.38" fill="#003a50"/><rect x="50.41" y="1.97" width="5.98" height="81.48" fill="#003a50"/><line x1="263.38" y1="370.29" x2="260.54" y2="370.29" fill="none" stroke="#003a50" stroke-miterlimit="10"/><line x1="255.35" y1="370.29" x2="206" y2="370.29" fill="none" stroke="#003a50" stroke-miterlimit="10" stroke-dasharray="5.2 5.2"/><line x1="203.4" y1="370.29" x2="200.57" y2="370.29" fill="none" stroke="#003a50" stroke-miterlimit="10"/><line x1="-9.9" y1="318.28" x2="44.7" y2="318.28" fill="none" stroke="#003a50" stroke-miterlimit="10" stroke-dasharray="5.75 5.75"/><polyline points="47.57 318.28 50.41 318.28 50.41 315.45" fill="none" stroke="#003a50" stroke-miterlimit="10"/><line x1="50.41" y1="309.6" x2="50.41" y2="254.07" fill="none" stroke="#003a50" stroke-miterlimit="10" stroke-dasharray="5.85 5.85"/><line x1="50.41" y1="251.14" x2="50.41" y2="248.31" fill="none" stroke="#003a50" stroke-miterlimit="10"/><line x1="294.76" y1="102.06" x2="294.76" y2="104.9" fill="none" stroke="#003a50" stroke-miterlimit="10"/><line x1="294.76" y1="110.38" x2="294.76" y2="162.52" fill="none" stroke="#003a50" stroke-miterlimit="10" stroke-dasharray="5.49 5.49"/><line x1="294.76" y1="165.26" x2="294.76" y2="168.1" fill="none" stroke="#003a50" stroke-miterlimit="10"/><rect x="63.79" y="65.37" width="29.67" height="30.36" fill="none" stroke="#003a50" stroke-miterlimit="10" stroke-width="0.6"/></g><g clip-path="url(#clip-path)"><path d="M422.41,418.41l-2.49,1.95v-2.24l2.73-2.27h1.86v11.91h-2.1Z" fill="#003a50"/><path d="M429,418.41l-2.48,1.95v-2.24l2.73-2.27h1.86v11.91H429Z" fill="#003a50"/><path d="M433.67,427.63a1,1,0,0,1-.33-.8,1,1,0,0,1,.33-.81,1.4,1.4,0,0,1,1.73,0,1,1,0,0,1,.33.81,1,1,0,0,1-.33.8,1.4,1.4,0,0,1-1.73,0Z" fill="#003a50"/><path d="M440.78,427.76h-2.36l5.42-10h-6.93v-1.88h9.29v1.88Z" fill="#003a50"/><path d="M262.7,418.41l-2.48,1.95v-2.24l2.73-2.27h1.86v11.91H262.7Z" fill="#003a50"/><path d="M277.2,427.76h-9.93V426.2a2.74,2.74,0,0,1,.58-1.74,4,4,0,0,1,1.44-1.2c.5-.25,1.13-.54,1.87-.86s1.33-.56,1.88-.77a4.09,4.09,0,0,0,1.44-.92,1.76,1.76,0,0,0,.58-1.3q0-1.89-2.67-1.89t-2.67,2.16v.41h-2.11v-.41a3.62,3.62,0,0,1,1.26-3,5.38,5.38,0,0,1,3.51-1,5.66,5.66,0,0,1,3.52,1,3.31,3.31,0,0,1,1.27,2.75,3.12,3.12,0,0,1-.56,1.83,4.18,4.18,0,0,1-1.4,1.31c-.6.34-1.21.65-1.84.93s-1.23.52-1.83.75a5.55,5.55,0,0,0-1.4.74,1.22,1.22,0,0,0-.56,1h7.62Z" fill="#003a50"/><path d="M279.3,427.63a1,1,0,0,1-.32-.8,1.07,1.07,0,0,1,.32-.81,1.41,1.41,0,0,1,1.74,0,1.07,1.07,0,0,1,.32.81,1,1,0,0,1-.32.8,1.41,1.41,0,0,1-1.74,0Z" fill="#003a50"/><path d="M291.63,427.76h-2.11v-2.65h-7v-1.84l6.29-7.42h2.79v7.42h1.6v1.84h-1.6Zm-2.11-4.49V418h-.06L285,423.22v0Z" fill="#003a50"/><path d="M221.58,338.36h-5.83v-1.85h8.87v1.85L220.09,341v.06h1.28a3.9,3.9,0,0,1,2.79,1,3.52,3.52,0,0,1,1.05,2.67,3.34,3.34,0,0,1-1.33,2.83,7,7,0,0,1-7.24,0,3.4,3.4,0,0,1-1.33-2.86v-.33h2.11v.33c0,1.36,1,2,2.84,2s2.84-.66,2.84-2-.94-2-2.84-2H217v-1.66l4.58-2.69Z" fill="#003a50"/><path d="M227.31,348.29a1,1,0,0,1-.32-.81,1.06,1.06,0,0,1,.32-.8,1.25,1.25,0,0,1,.88-.3,1.22,1.22,0,0,1,.86.3,1,1,0,0,1,.32.8,1,1,0,0,1-.32.81,1.22,1.22,0,0,1-.86.3A1.25,1.25,0,0,1,227.31,348.29Z" fill="#003a50"/><path d="M231.45,345.08h2.21s0,.07,0,.17a2.72,2.72,0,0,0,.23.44,2.09,2.09,0,0,0,.41.48,2,2,0,0,0,.75.42,3.21,3.21,0,0,0,1,.16,2.66,2.66,0,0,0,2.24-1.06,4.32,4.32,0,0,0,.81-2.71h-.06a2,2,0,0,1-.44.47,2.73,2.73,0,0,1-.6.4,4,4,0,0,1-1,.32,5.43,5.43,0,0,1-1.22.13,4.92,4.92,0,0,1-3.37-1.13,3.73,3.73,0,0,1,0-5.72,5.54,5.54,0,0,1,3.61-1.1,4.81,4.81,0,0,1,3.87,1.54,6.4,6.4,0,0,1,1.32,4.27v.41a6.7,6.7,0,0,1-1.37,4.31,4.69,4.69,0,0,1-3.89,1.71,5.9,5.9,0,0,1-2.16-.38,3.78,3.78,0,0,1-1.48-.94A3.33,3.33,0,0,1,231.45,345.08Zm2.77-3.17a3.6,3.6,0,0,0,3.95,0,1.86,1.86,0,0,0,.78-1.57,1.91,1.91,0,0,0-.77-1.58,3.28,3.28,0,0,0-2-.58,3.2,3.2,0,0,0-2,.58,2,2,0,0,0,0,3.15Z" fill="#003a50"/><path d="M220.22,244h-5.83v-1.84h8.86V244l-4.52,2.65v.07H220a3.86,3.86,0,0,1,2.79,1,3.52,3.52,0,0,1,1,2.66,3.33,3.33,0,0,1-1.33,2.83,7,7,0,0,1-7.24,0,3.39,3.39,0,0,1-1.33-2.86v-.32h2.11v.32c0,1.36.95,2,2.84,2s2.84-.67,2.84-2-.94-2-2.84-2h-3.26v-1.67l4.58-2.68Z" fill="#003a50"/><path d="M226,254a1,1,0,0,1-.32-.8,1.07,1.07,0,0,1,.32-.81,1.25,1.25,0,0,1,.88-.3,1.22,1.22,0,0,1,.86.3,1,1,0,0,1,.32.81,1,1,0,0,1-.32.8,1.22,1.22,0,0,1-.86.3A1.25,1.25,0,0,1,226,254Z" fill="#003a50"/><path d="M233.06,254.1h-2.35l5.42-10H229.2v-1.87h9.29v1.87Z" fill="#003a50"/><path d="M340,163.05H330.1v-1.56a2.74,2.74,0,0,1,.58-1.74,4,4,0,0,1,1.45-1.2c.5-.25,1.12-.54,1.87-.86s1.32-.56,1.87-.78a4.21,4.21,0,0,0,1.45-.91,1.8,1.8,0,0,0,.57-1.3c0-1.26-.89-1.89-2.66-1.89s-2.68.72-2.68,2.16v.41h-2.11V155a3.62,3.62,0,0,1,1.26-3,5.39,5.39,0,0,1,3.52-1,5.65,5.65,0,0,1,3.51,1A3.27,3.27,0,0,1,340,154.7a3.07,3.07,0,0,1-.56,1.83,4.29,4.29,0,0,1-1.4,1.31q-.9.51-1.83.93c-.63.27-1.24.52-1.83.74a5.33,5.33,0,0,0-1.41.75,1.23,1.23,0,0,0-.56,1H340Z" fill="#003a50"/><path d="M345.33,163.05H343l5.42-10h-6.93v-1.88h9.28V153Z" fill="#003a50"/><path d="M352.18,162.92a1,1,0,0,1-.32-.81,1.06,1.06,0,0,1,.32-.8,1.25,1.25,0,0,1,.88-.3,1.22,1.22,0,0,1,.86.3,1.06,1.06,0,0,1,.32.8,1,1,0,0,1-.32.81,1.22,1.22,0,0,1-.86.3A1.25,1.25,0,0,1,352.18,162.92Z" fill="#003a50"/><path d="M358.09,153.7l-2.49,2v-2.24l2.74-2.27h1.86v11.91h-2.11Z" fill="#003a50"/><path d="M217.24,78h-5.82V76.19h8.86V78l-4.53,2.65v.07H217a3.9,3.9,0,0,1,2.79,1,3.53,3.53,0,0,1,1.06,2.67,3.35,3.35,0,0,1-1.33,2.82,7,7,0,0,1-7.24,0A3.36,3.36,0,0,1,211,84.39v-.32h2.11v.32c0,1.37.94,2,2.84,2s2.84-.67,2.84-2-1-2-2.84-2h-3.27V80.78l4.58-2.68Z" fill="#003a50"/><path d="M223,88a1,1,0,0,1-.33-.8,1,1,0,0,1,.33-.81,1.4,1.4,0,0,1,1.73,0,1,1,0,0,1,.33.81,1,1,0,0,1-.33.8A1.4,1.4,0,0,1,223,88Z" fill="#003a50"/><path d="M233.08,78h-5.82V76.19h8.86V78l-4.52,2.65v.07h1.28a3.9,3.9,0,0,1,2.79,1,3.52,3.52,0,0,1,1.05,2.67,3.32,3.32,0,0,1-1.33,2.82,7,7,0,0,1-7.24,0,3.39,3.39,0,0,1-1.33-2.86v-.32h2.11v.32c0,1.37.95,2,2.84,2s2.84-.67,2.84-2-.94-2-2.84-2h-3.26V80.78l4.57-2.68Z" fill="#003a50"/><path d="M108.42,155.07a5,5,0,0,1,3.33,1.06,4.17,4.17,0,0,1,0,6,5.38,5.38,0,0,1-3.54,1.08,5.87,5.87,0,0,1-3.57-1,3.19,3.19,0,0,1-1.28-2.69h2.11a1.54,1.54,0,0,0,.7,1.34,3.62,3.62,0,0,0,2,.48,3.17,3.17,0,0,0,2-.57,2.36,2.36,0,0,0,0-3.39,3.25,3.25,0,0,0-2.07-.58,3.7,3.7,0,0,0-1.92.41,2.05,2.05,0,0,0-.69.64l0,.13h-2.11v-6.88h8.87V153h-6.76v2.95h0a2,2,0,0,1,.4-.3,2.73,2.73,0,0,1,.54-.27A5.66,5.66,0,0,1,108.42,155.07Z" fill="#003a50"/><path d="M115.12,162.92a1,1,0,0,1-.33-.81,1,1,0,0,1,.33-.8,1.4,1.4,0,0,1,1.73,0,1,1,0,0,1,.33.8,1,1,0,0,1-.33.81,1.4,1.4,0,0,1-1.73,0Z" fill="#003a50"/><path d="M122.23,163.05h-2.35l5.41-10h-6.93v-1.88h9.29V153Z" fill="#003a50"/><path d="M104.7,78.75l-2.49,2V78.46l2.73-2.27h1.87V88.1H104.7Z" fill="#003a50"/><path d="M109.33,88a1,1,0,0,1-.32-.8,1,1,0,0,1,.32-.81,1.41,1.41,0,0,1,1.74,0,1.07,1.07,0,0,1,.32.81,1,1,0,0,1-.32.8,1.41,1.41,0,0,1-1.74,0Z" fill="#003a50"/><path d="M116.44,88.1h-2.35l5.41-10h-6.92V76.19h9.28v1.87Z" fill="#003a50"/><path d="M8.23,277.69H-1.71v-1.57a2.83,2.83,0,0,1,.58-1.74,4.12,4.12,0,0,1,1.45-1.2c.5-.25,1.12-.54,1.87-.86s1.32-.56,1.87-.77a4.14,4.14,0,0,0,1.45-.92,1.78,1.78,0,0,0,.57-1.3c0-1.26-.89-1.88-2.66-1.88s-2.68.72-2.68,2.15V270H-1.37v-.41a3.59,3.59,0,0,1,1.27-3,5.34,5.34,0,0,1,3.51-1,5.65,5.65,0,0,1,3.51,1,3.29,3.29,0,0,1,1.27,2.75,3.17,3.17,0,0,1-.55,1.84,4.39,4.39,0,0,1-1.41,1.3q-.9.51-1.83.93t-1.83.75a5.11,5.11,0,0,0-1.4.75,1.22,1.22,0,0,0-.57,1H8.23Z" fill="#003a50"/><path d="M10.33,277.55a1,1,0,0,1-.33-.8,1,1,0,0,1,.33-.81,1.21,1.21,0,0,1,.87-.3,1.2,1.2,0,0,1,.86.3,1,1,0,0,1,.33.81,1,1,0,0,1-.33.8,1.2,1.2,0,0,1-.86.3A1.21,1.21,0,0,1,10.33,277.55Z" fill="#003a50"/><path d="M15.73,276.15a7.34,7.34,0,0,1,0-8.84,5.12,5.12,0,0,1,4.07-1.7,5.1,5.1,0,0,1,4.06,1.7,7.34,7.34,0,0,1,0,8.84,5.1,5.1,0,0,1-4.06,1.7A5.12,5.12,0,0,1,15.73,276.15Zm6.53-1.39a5,5,0,0,0,.87-3,5,5,0,0,0-.87-3,2.92,2.92,0,0,0-2.46-1.18,2.89,2.89,0,0,0-2.46,1.18,5,5,0,0,0-.88,3,5,5,0,0,0,.88,3A2.88,2.88,0,0,0,19.8,276,2.9,2.9,0,0,0,22.26,274.76Z" fill="#003a50"/><path d="M2.08,427.56a1,1,0,0,1-.33-.8,1,1,0,0,1,.33-.81,1.21,1.21,0,0,1,.87-.3,1.2,1.2,0,0,1,.86.3,1,1,0,0,1,.32.81,1,1,0,0,1-.32.8,1.2,1.2,0,0,1-.86.3A1.21,1.21,0,0,1,2.08,427.56Z" fill="#003a50"/><path d="M12.18,417.63H6.36v-1.84h8.86v1.84l-4.52,2.65v.07H12a3.87,3.87,0,0,1,2.8,1A3.52,3.52,0,0,1,15.82,424a3.32,3.32,0,0,1-1.33,2.82,5.89,5.89,0,0,1-3.62,1,5.85,5.85,0,0,1-3.62-1A3.36,3.36,0,0,1,5.92,424v-.32H8V424c0,1.36,1,2,2.84,2s2.84-.67,2.84-2-1-2-2.84-2H7.61v-1.67l4.57-2.68Z" fill="#003a50"/></g></svg>