<svg id="Слой_1" data-name="Слой 1" xmlns="http://www.w3.org/2000/svg" xmlns:xlink="http://www.w3.org/1999/xlink" viewBox="0 0 375.02 470.55"><defs><clipPath id="clip-path"><polygon points="196.02 0 196.02 21.26 189.21 21.26 189.21 50.23 0 50.23 0 469.42 367.8 469.42 367.8 456.32 375.02 456.32 375.02 50.23 245.34 50.23 245.34 0 196.02 0" fill="none"/></clipPath></defs><polygon points="0 50.23 0 426.92 5.99 426.92 5.99 54.92 126.7 54.92 126.64 50.23 0 50.23" fill="#fff"/><polygon points="4.53 426.92 370.2 426.92 368.83 62.88 241.17 66.58 191.55 66.58 9.36 60.92 4.53 426.92" fill="#fff"/><polygon points="267.25 50.23 266.87 63.22 364.86 63.73 369.03 426.92 375.02 426.92 375.02 50.23 267.25 50.23" fill="#fff"/><g clip-path="url(#clip-path)"><rect x="-359.78" y="-1753.27" width="1115.44" height="2194.74" fill="none" stroke="#003a50" stroke-miterlimit="10"/><polygon points="-334.96 -667.28 -334.96 418.52 731.51 418.52 731.51 -1728.82 -334.96 -1728.97 -334.96 -736.06 -334.96 -667.28" fill="none" stroke="#003a50" stroke-miterlimit="10"/></g><rect x="213.87" y="426.46" width="87.59" height="4.56" fill="#fff"/><rect x="213.87" y="426.46" width="87.59" height="4.56" fill="none" stroke="#003a50" stroke-miterlimit="10"/><line x1="213.87" y1="428.74" x2="301.46" y2="428.74" fill="none" stroke="#003a50" stroke-miterlimit="10"/><rect x="213.87" y="426.46" width="4.42" height="4.56" fill="#fff"/><rect x="213.87" y="426.46" width="4.42" height="4.56" fill="none" stroke="#003a50" stroke-miterlimit="10"/><rect x="297.04" y="426.46" width="4.42" height="4.56" fill="#fff"/><rect x="297.04" y="426.46" width="4.42" height="4.56" fill="none" stroke="#003a50" stroke-miterlimit="10"/><rect x="255.46" y="426.46" width="4.42" height="4.56" fill="#fff"/><rect x="255.46" y="426.46" width="4.42" height="4.56" fill="none" stroke="#003a50" stroke-miterlimit="10"/><rect x="29.51" y="426.46" width="87.79" height="4.56" fill="#fff"/><rect x="29.51" y="426.46" width="87.79" height="4.56" fill="none" stroke="#003a50" stroke-miterlimit="10"/><line x1="29.51" y1="428.74" x2="117.29" y2="428.74" fill="none" stroke="#003a50" stroke-miterlimit="10"/><rect x="29.51" y="426.46" width="4.43" height="4.56" fill="#fff"/><rect x="29.51" y="426.46" width="4.43" height="4.56" fill="none" stroke="#003a50" stroke-miterlimit="10"/><rect x="112.86" y="426.46" width="4.43" height="4.56" fill="#fff"/><rect x="112.86" y="426.46" width="4.43" height="4.56" fill="none" stroke="#003a50" stroke-miterlimit="10"/><rect x="71.19" y="426.46" width="4.43" height="4.56" fill="#fff"/><rect x="71.19" y="426.46" width="4.43" height="4.56" fill="none" stroke="#003a50" stroke-miterlimit="10"/><rect x="14.55" y="91.67" width="42.38" height="92.09" fill="none" stroke="#003a50" stroke-miterlimit="10"/><g clip-path="url(#clip-path)"><rect x="19.53" y="95.46" width="32.03" height="84.24" rx="13.7" fill="none" stroke="#003a50" stroke-miterlimit="10"/><path d="M37.83,110a2.21,2.21,0,1,0-2.2,2.2A2.21,2.21,0,0,0,37.83,110Z" fill="none" stroke="#003a50" stroke-miterlimit="10"/><rect x="-42.18" y="91.67" width="42.38" height="92.09" fill="none" stroke="#003a50" stroke-miterlimit="10"/><path d="M99.57,119.74V91.18H76.5v28.56a11.54,11.54,0,1,0,23.07,0Z" fill="none" stroke="#003a50" stroke-miterlimit="10"/></g><rect x="76.5" y="91.18" width="23.08" height="11.08" fill="none" stroke="#003a50" stroke-miterlimit="10"/><g clip-path="url(#clip-path)"><path d="M403.46,61.14H374.89V84.22h28.57a11.54,11.54,0,1,0,0-23.08Z" fill="none" stroke="#003a50" stroke-miterlimit="10"/><rect x="374.9" y="61.14" width="11.08" height="23.08" fill="none" stroke="#003a50" stroke-miterlimit="10"/><path d="M143.12,76.45a3.4,3.4,0,0,0,3.13-2.1h1.92l5.1,3L151,81.16l-2.66-1.45V91.53H137.21V79.71l-2.66,1.45-2.31-3.77,5.14-3H140A3.45,3.45,0,0,0,143.12,76.45Z" fill="none" stroke="#003a50" stroke-miterlimit="10"/></g><rect x="125.75" y="66.55" width="34.02" height="32.78" fill="none" stroke="#003a50" stroke-miterlimit="10"/><rect x="325.21" y="99.2" width="34.02" height="33.97" fill="none" stroke="#003a50" stroke-miterlimit="10"/><g clip-path="url(#clip-path)"><path d="M346.52,114.68V103.63h-8.61v11.05a3.55,3.55,0,0,0,3.55,3.54H343A3.55,3.55,0,0,0,346.52,114.68Z" fill="none" stroke="#003a50" stroke-miterlimit="10"/></g><polyline points="338.74 128.78 342.22 128.78 345.69 128.78" fill="none" stroke="#003a50" stroke-miterlimit="10"/><line x1="342.22" y1="118.22" x2="342.22" y2="128.78" fill="none" stroke="#003a50" stroke-miterlimit="10"/><rect x="325.29" y="140.31" width="34.02" height="34.02" fill="none" stroke="#003a50" stroke-miterlimit="10"/><g clip-path="url(#clip-path)"><path d="M334.7,169.73a4.64,4.64,0,1,1,4.63-4.64A4.64,4.64,0,0,1,334.7,169.73Z" fill="none" stroke="#003a50" stroke-miterlimit="10"/><path d="M334.7,154.24a4.64,4.64,0,1,1,4.63-4.63A4.63,4.63,0,0,1,334.7,154.24Z" fill="none" stroke="#003a50" stroke-miterlimit="10"/><path d="M349.79,169.73a4.64,4.64,0,1,1,4.64-4.64A4.64,4.64,0,0,1,349.79,169.73Z" fill="none" stroke="#003a50" stroke-miterlimit="10"/><path d="M349.79,154.24a4.64,4.64,0,1,1,4.64-4.63A4.63,4.63,0,0,1,349.79,154.24Z" fill="none" stroke="#003a50" stroke-miterlimit="10"/></g><rect x="183.59" y="302.87" width="17.01" height="102.05" fill="none" stroke="#003a50" stroke-miterlimit="10"/><polygon points="192.63 396.89 189.11 354 192.63 310.89 195.09 310.89 195.09 396.89 192.63 396.89" fill="none" stroke="#003a50" stroke-miterlimit="10"/><rect x="160.93" y="285.88" width="17.01" height="102.05" fill="none" stroke="#003a50" stroke-miterlimit="10"/><polygon points="168.9 379.9 172.43 337.01 168.9 293.9 166.44 293.9 166.44 379.9 168.9 379.9" fill="none" stroke="#003a50" stroke-miterlimit="10"/><rect x="325.3" y="99.3" width="33.59" height="122.25" fill="none" stroke="#003a50" stroke-miterlimit="10"/><rect x="278.23" y="66.58" width="80.66" height="32.72" fill="none" stroke="#003a50" stroke-miterlimit="10"/><g clip-path="url(#clip-path)"><rect x="-52.62" y="296.74" width="52.33" height="113.67" fill="none" stroke="#003a50" stroke-miterlimit="10"/></g><rect x="159.99" y="66.58" width="21.14" height="32.72" fill="none" stroke="#003a50" stroke-miterlimit="10"/><rect x="125.51" y="156.74" width="55.62" height="26.49" fill="none" stroke="#003a50" stroke-miterlimit="10"/><polyline points="311.67 70.1 304.88 70.1 298.09 70.1" fill="none" stroke="#003a50" stroke-miterlimit="10"/><line x1="304.86" y1="83.72" x2="304.86" y2="70.1" fill="none" stroke="#003a50" stroke-miterlimit="10"/><g clip-path="url(#clip-path)"><path d="M319.93,94.36V79.16a3.23,3.23,0,0,0-3.23-3.23H293.11a3.24,3.24,0,0,0-3.24,3.23v15.2a3.24,3.24,0,0,0,3.24,3.24H316.7A3.23,3.23,0,0,0,319.93,94.36Z" fill="none" stroke="#003a50" stroke-miterlimit="10"/><path d="M304.86,85.42A2.43,2.43,0,1,0,302.43,83,2.42,2.42,0,0,0,304.86,85.42Z" fill="none" stroke="#003a50" stroke-miterlimit="10"/><path d="M229.83,269.75a1.26,1.26,0,0,1,.94,1.51,13.78,13.78,0,1,0,26.87,6.16,1.26,1.26,0,0,1,2.46.57,16.3,16.3,0,0,1-31.78-7.29A1.27,1.27,0,0,1,229.83,269.75Z" fill="none" stroke="#003a50" stroke-miterlimit="10"/><path d="M285,279.47a1.26,1.26,0,0,1,1.75-.33,13.79,13.79,0,0,0,15.52-22.79,1.26,1.26,0,0,1,1.42-2.08,16.3,16.3,0,0,1-18.36,27A1.25,1.25,0,0,1,285,279.47Z" fill="none" stroke="#003a50" stroke-miterlimit="10"/><path d="M287.5,232.07a1.26,1.26,0,0,1-1.33-1.18,13.78,13.78,0,1,0-27.52,1.62,1.26,1.26,0,1,1-2.51.16,16.3,16.3,0,0,1,32.54-1.94A1.25,1.25,0,0,1,287.5,232.07Z" fill="none" stroke="#003a50" stroke-miterlimit="10"/><path d="M244,286.37a12.69,12.69,0,0,1-12-15.48l2-8.88a3.53,3.53,0,0,1,4.24-2.68l13.44,3.08a23.73,23.73,0,0,0,6,9.44l-1,4.2C255.43,282,250.15,286.57,244,286.37Z" fill="none" stroke="#003a50" stroke-miterlimit="10"/><path d="M286.83,277.85l-2.32-1.6a23.81,23.81,0,0,0,13.64-21.32l2.52,1.72c5,3.44,7.4,10,5,15.64A12.7,12.7,0,0,1,286.83,277.85Z" fill="none" stroke="#003a50" stroke-miterlimit="10"/><path d="M260,235.57l-.12-2c-.36-6.12,3.4-12,9.32-13.48a12.66,12.66,0,0,1,15.88,11.48l.12,1.84a23.93,23.93,0,0,0-16.64-1.92A23.5,23.5,0,0,0,260,235.57Z" fill="none" stroke="#003a50" stroke-miterlimit="10"/><path d="M257.75,271.85a23.73,23.73,0,0,1-6-9.44,16.51,16.51,0,0,1-.6-2A23.85,23.85,0,0,1,260,235.57a23.5,23.5,0,0,1,8.56-4,23.87,23.87,0,0,1,28.92,17.4,22.12,22.12,0,0,1,.68,6,23.81,23.81,0,0,1-13.64,21.32,22.85,22.85,0,0,1-4.48,1.6A23.8,23.8,0,0,1,257.75,271.85Z" fill="none" stroke="#003a50" stroke-miterlimit="10"/><path d="M54.9,218.64a1,1,0,0,1-.54.9,1,1,0,0,1-1.3-.45,29.69,29.69,0,0,1,0-25.26,1,1,0,0,1,1.29-.46,1,1,0,0,1,.45,1.34,27.64,27.64,0,0,0,0,23.49A1,1,0,0,1,54.9,218.64Z" fill="none" stroke="#003a50" stroke-miterlimit="10"/><path d="M49.53,218.64a1,1,0,0,1-.54.9,1,1,0,0,1-1.3-.45,29.69,29.69,0,0,1,0-25.26,1,1,0,0,1,1.29-.46,1,1,0,0,1,.45,1.34,27.64,27.64,0,0,0,0,23.49A1.13,1.13,0,0,1,49.53,218.64Z" fill="none" stroke="#003a50" stroke-miterlimit="10"/><path d="M44.16,218.64a1,1,0,0,1-.54.9,1,1,0,0,1-1.3-.45,29.69,29.69,0,0,1,0-25.26,1,1,0,0,1,1.29-.46,1,1,0,0,1,.45,1.34,27.64,27.64,0,0,0,0,23.49A1.13,1.13,0,0,1,44.16,218.64Z" fill="none" stroke="#003a50" stroke-miterlimit="10"/><path d="M38.78,218.64a1,1,0,0,1-.54.9.94.94,0,0,1-1.29-.45,29.69,29.69,0,0,1,0-25.26,1,1,0,0,1,1.29-.46,1,1,0,0,1,.44,1.34,27.64,27.64,0,0,0,0,23.49A1,1,0,0,1,38.78,218.64Z" fill="none" stroke="#003a50" stroke-miterlimit="10"/><path d="M33.41,218.64a1,1,0,0,1-.54.9.94.94,0,0,1-1.29-.45,29.69,29.69,0,0,1,0-25.26,1,1,0,0,1,1.29-.46,1,1,0,0,1,.44,1.34,27.64,27.64,0,0,0,0,23.49A1,1,0,0,1,33.41,218.64Z" fill="none" stroke="#003a50" stroke-miterlimit="10"/><path d="M28,218.64a1,1,0,0,1-.54.9,1,1,0,0,1-1.3-.45,29.69,29.69,0,0,1,0-25.26,1,1,0,0,1,1.3-.46,1,1,0,0,1,.44,1.34,27.64,27.64,0,0,0,0,23.49A1,1,0,0,1,28,218.64Z" fill="none" stroke="#003a50" stroke-miterlimit="10"/><path d="M60.27,218.64a1,1,0,0,1-.54.9,1,1,0,0,1-1.3-.45,29.69,29.69,0,0,1,0-25.26,1,1,0,0,1,1.3-.46,1,1,0,0,1,.44,1.34,27.64,27.64,0,0,0,0,23.49A1,1,0,0,1,60.27,218.64Z" fill="none" stroke="#003a50" stroke-miterlimit="10"/><path d="M65.64,218.64a1,1,0,0,1-.54.9.94.94,0,0,1-1.29-.45,29.69,29.69,0,0,1,0-25.26,1,1,0,0,1,1.29-.46,1,1,0,0,1,.44,1.34,27.64,27.64,0,0,0,0,23.49A1,1,0,0,1,65.64,218.64Z" fill="none" stroke="#003a50" stroke-miterlimit="10"/></g><line x1="177.68" y1="206.45" x2="13.81" y2="206.45" fill="none" stroke="#003a50" stroke-miterlimit="10"/><rect x="14.82" y="189.17" width="162.86" height="34.02" fill="none" stroke="#003a50" stroke-miterlimit="10"/><g clip-path="url(#clip-path)"><path d="M47.56,45.44a1,1,0,0,1-.54.9,1,1,0,0,1-1.3-.46,29.69,29.69,0,0,1,0-25.26,1,1,0,0,1,1.3-.45,1,1,0,0,1,.44,1.34,27.64,27.64,0,0,0,0,23.49A1,1,0,0,1,47.56,45.44Z" fill="none" stroke="#003a50" stroke-miterlimit="10"/><path d="M42.19,45.44a1,1,0,0,1-.54.9,1,1,0,0,1-1.3-.46,29.69,29.69,0,0,1,0-25.26.94.94,0,0,1,1.29-.45,1,1,0,0,1,.45,1.34,27.64,27.64,0,0,0,0,23.49A1,1,0,0,1,42.19,45.44Z" fill="none" stroke="#003a50" stroke-miterlimit="10"/><path d="M36.82,45.44a1,1,0,0,1-.54.9,1,1,0,0,1-1.3-.46,29.69,29.69,0,0,1,0-25.26.94.94,0,0,1,1.29-.45,1,1,0,0,1,.45,1.34,27.64,27.64,0,0,0,0,23.49A1.13,1.13,0,0,1,36.82,45.44Z" fill="none" stroke="#003a50" stroke-miterlimit="10"/><path d="M31.44,45.44a1,1,0,0,1-.54.9,1,1,0,0,1-1.29-.46,29.69,29.69,0,0,1,0-25.26.94.94,0,0,1,1.29-.45,1,1,0,0,1,.44,1.34,27.64,27.64,0,0,0,0,23.49A1,1,0,0,1,31.44,45.44Z" fill="none" stroke="#003a50" stroke-miterlimit="10"/><path d="M26.07,45.44a1,1,0,0,1-.54.9,1,1,0,0,1-1.29-.46,29.69,29.69,0,0,1,0-25.26.94.94,0,0,1,1.29-.45A1,1,0,0,1,26,21.51,27.64,27.64,0,0,0,26,45,1,1,0,0,1,26.07,45.44Z" fill="none" stroke="#003a50" stroke-miterlimit="10"/><path d="M20.7,45.44a1,1,0,0,1-.54.9,1,1,0,0,1-1.29-.46,29.69,29.69,0,0,1,0-25.26.94.94,0,0,1,1.29-.45,1,1,0,0,1,.44,1.34A27.64,27.64,0,0,0,20.6,45,1,1,0,0,1,20.7,45.44Z" fill="none" stroke="#003a50" stroke-miterlimit="10"/><path d="M52.93,45.44a1,1,0,0,1-.54.9,1,1,0,0,1-1.3-.46,29.69,29.69,0,0,1,0-25.26,1,1,0,0,1,1.3-.45,1,1,0,0,1,.44,1.34,27.64,27.64,0,0,0,0,23.49A1,1,0,0,1,52.93,45.44Z" fill="none" stroke="#003a50" stroke-miterlimit="10"/><path d="M58.3,45.44a1,1,0,0,1-.54.9,1,1,0,0,1-1.29-.46,29.69,29.69,0,0,1,0-25.26.94.94,0,0,1,1.29-.45,1,1,0,0,1,.44,1.34A27.64,27.64,0,0,0,58.2,45,1,1,0,0,1,58.3,45.44Z" fill="none" stroke="#003a50" stroke-miterlimit="10"/><rect x="7.21" y="15.68" width="119.14" height="34.58" fill="none" stroke="#003a50" stroke-miterlimit="10"/></g><rect x="57.25" y="157.88" width="61.57" height="25.39" fill="none" stroke="#003a50" stroke-miterlimit="10"/><g clip-path="url(#clip-path)"><rect x="75.35" y="159.94" width="24.4" height="25.04" rx="2.83" fill="none" stroke="#003a50" stroke-miterlimit="10"/><path d="M87.55,170.55a1.91,1.91,0,1,1-1.91,1.91A1.91,1.91,0,0,1,87.55,170.55Z" fill="none" stroke="#003a50" stroke-miterlimit="10"/></g><rect x="325.25" y="187.96" width="33.52" height="33.52" fill="none" stroke="#003a50" stroke-miterlimit="10"/><line x1="342.01" y1="214.57" x2="342.01" y2="194.89" fill="none" stroke="#003a50" stroke-miterlimit="10"/><line x1="351.84" y1="204.73" x2="332.17" y2="204.73" fill="none" stroke="#003a50" stroke-miterlimit="10"/><line x1="348.96" y1="211.68" x2="335.05" y2="197.78" fill="none" stroke="#003a50" stroke-miterlimit="10"/><line x1="348.96" y1="197.77" x2="335.05" y2="211.68" fill="none" stroke="#003a50" stroke-miterlimit="10"/><g clip-path="url(#clip-path)"><rect x="375.25" y="111.34" width="26.62" height="97.42" fill="none" stroke="#003a50" stroke-miterlimit="10"/><rect x="-88.98" y="189.17" width="90.71" height="34.02" fill="none" stroke="#003a50" stroke-miterlimit="10"/><line x1="1.72" y1="206.18" x2="-88.98" y2="206.18" fill="none" stroke="#003a50" stroke-miterlimit="10"/><path d="M312.55,353.94h41v45.77H310.34V356.15A2.2,2.2,0,0,1,312.55,353.94Z" fill="none" stroke="#003a50" stroke-miterlimit="10"/><path d="M312.32,308.07h41.26v45.77H312.32a2,2,0,0,1-2-2v-41.8A2,2,0,0,1,312.32,308.07Z" fill="none" stroke="#003a50" stroke-miterlimit="10"/><path d="M310.33,399.71a3.1,3.1,0,0,0-2.82,3.33v4.22a3.1,3.1,0,0,0,2.82,3.33h48.2V297.2H310.76a3.11,3.11,0,0,0-2.83,3.33v4.22a3.11,3.11,0,0,0,2.83,3.33h42.82v91.63Z" fill="none" stroke="#003a50" stroke-miterlimit="10"/></g><rect x="344.33" y="308.07" width="9.25" height="91.64" fill="none" stroke="#003a50" stroke-miterlimit="10"/><rect x="16.06" y="250.82" width="22.68" height="22.68" fill="none" stroke="#003a50" stroke-miterlimit="10"/><g clip-path="url(#clip-path)"><path d="M33.9,268.67a9.2,9.2,0,1,1,0-13A9.19,9.19,0,0,1,33.9,268.67Z" fill="none" stroke="#003a50" stroke-miterlimit="10"/><path d="M34.52,268c-1.69-.17-3.41.48-5.06-1.17-2.44-2.44.14-5-2.3-7.46s-5,.14-7.46-2.3" fill="none" stroke="#003a50" stroke-miterlimit="10"/></g><rect x="16.06" y="391.96" width="22.68" height="22.68" fill="none" stroke="#003a50" stroke-miterlimit="10"/><g clip-path="url(#clip-path)"><path d="M33.9,409.8a9.19,9.19,0,1,1,0-13A9.19,9.19,0,0,1,33.9,409.8Z" fill="none" stroke="#003a50" stroke-miterlimit="10"/><path d="M34.53,409.11c-1.7-.17-3.42.48-5.07-1.17-2.43-2.44.14-5-2.3-7.45s-5,.13-7.46-2.31" fill="none" stroke="#003a50" stroke-miterlimit="10"/></g><rect x="16.06" y="280.98" width="113.38" height="102.05" fill="none" stroke="#003a50" stroke-miterlimit="10"/><g clip-path="url(#clip-path)"><path d="M119.71,291v82a2.09,2.09,0,0,1-2.08,2.09H50V288.89h67.64A2.09,2.09,0,0,1,119.71,291Z" fill="none" stroke="#003a50" stroke-miterlimit="10"/><rect x="23.49" y="332.86" width="22.88" height="42.5" rx="1.98" fill="none" stroke="#003a50" stroke-miterlimit="10"/><rect x="23.49" y="288.64" width="22.88" height="42.5" rx="1.98" fill="none" stroke="#003a50" stroke-miterlimit="10"/></g><line x1="63.84" y1="288.64" x2="63.84" y2="375.36" fill="none" stroke="#003a50" stroke-miterlimit="10"/><g clip-path="url(#clip-path)"><rect x="375.08" y="389.31" width="22.68" height="22.68" fill="none" stroke="#003a50" stroke-miterlimit="10"/><rect x="375.07" y="250.88" width="22.68" height="22.68" fill="none" stroke="#003a50" stroke-miterlimit="10"/><rect x="375.07" y="280.41" width="113.38" height="102.05" fill="none" stroke="#003a50" stroke-miterlimit="10"/><rect x="-26.89" y="15.96" width="34.02" height="34.02" fill="none" stroke="#003a50" stroke-miterlimit="10"/><path d="M181.57,280.15h-3.46a43.48,43.48,0,0,1-43.48-43.48h46.94" fill="none" stroke="#003a50" stroke-miterlimit="10" stroke-width="1.6"/><path d="M124.08,114.86h3.13a39.34,39.34,0,0,1,39.34,39.34H124.08" fill="none" stroke="#003a50" stroke-miterlimit="10" stroke-width="1.6"/><path d="M190.9,56.7V52.64A51.13,51.13,0,0,1,242,1.51V56.7" fill="none" stroke="#003a50" stroke-miterlimit="10" stroke-width="1.6"/><path d="M137.31-36.52h4.06A51.13,51.13,0,0,1,192.5,14.61H137.31" fill="none" stroke="#003a50" stroke-miterlimit="10" stroke-width="1.6"/><rect x="252.48" y="-2.27" width="16.32" height="66" fill="#003a50"/><rect x="241.17" y="50.26" width="131.96" height="16.32" fill="#003a50"/><rect x="-0.28" y="50.26" width="191.83" height="16.32" fill="#003a50"/><rect x="-0.28" y="58.42" width="16.32" height="372.48" fill="#003a50"/><rect x="126.22" y="13.73" width="16.32" height="40.5" fill="#003a50"/><rect x="358.89" y="50.26" width="16.32" height="380.64" fill="#003a50"/><rect x="117.46" y="417.98" width="96" height="41.92" fill="#003a50"/><rect x="-1.48" y="417.98" width="27.03" height="46.75" fill="#003a50"/><rect x="2.52" y="417.98" width="27.03" height="23.38" fill="#003a50"/><rect x="124.05" y="411.82" width="82.83" height="27.12" fill="#003a50"/><rect x="301.63" y="417.98" width="95.33" height="34.25" fill="#003a50"/><rect x="369.8" y="421.98" width="27.17" height="41.92" fill="#003a50"/><rect x="-92.01" y="184.12" width="94.48" height="6.38" fill="#003a50"/><rect x="-95.64" y="50.23" width="99.68" height="6.38" fill="#003a50"/><rect x="-95.64" y="85.86" width="99.68" height="6.38" fill="#003a50"/><rect x="177.94" y="279.36" width="6.38" height="136.12" fill="#003a50"/><rect x="177.94" y="183.23" width="6.38" height="54.19" fill="#003a50"/><rect x="368.83" y="6.4" width="6.38" height="52.01" fill="#003a50"/><rect x="264.97" y="24.47" width="108.92" height="6.38" fill="#003a50"/><rect x="316.23" y="26.73" width="6.38" height="33.17" fill="#003a50"/><rect x="368.83" y="6.48" width="128.72" height="6.38" fill="#003a50"/><rect x="368.83" y="104.86" width="39.47" height="6.38" fill="#003a50"/><rect x="119.14" y="65.4" width="6.38" height="50.21" fill="#003a50"/><rect x="119.13" y="153.36" width="6.38" height="32.88" fill="#003a50"/><rect x="181.13" y="156.39" width="3.19" height="29.85" fill="#003a50"/><rect x="181.13" y="66.55" width="3.19" height="36.33" fill="#003a50"/><rect x="14.55" y="85.29" width="107.78" height="6.38" fill="#003a50"/><rect x="82.99" y="62.68" width="6.38" height="26.37" fill="#003a50"/><rect x="251.89" y="63.73" width="6.38" height="25.25" fill="#003a50"/><rect x="271.86" y="64.48" width="6.38" height="24.5" fill="#003a50"/><rect x="253.73" y="82.6" width="24.5" height="6.38" fill="#003a50"/><rect x="14.55" y="183.42" width="166.58" height="6.38" fill="#003a50"/><line x1="183.59" y1="156.74" x2="186.42" y2="156.74" fill="none" stroke="#003a50" stroke-miterlimit="10"/><line x1="192.17" y1="156.74" x2="246.78" y2="156.74" fill="none" stroke="#003a50" stroke-miterlimit="10" stroke-dasharray="5.75 5.75"/><polyline points="249.65 156.74 252.48 156.74 252.48 153.9" fill="none" stroke="#003a50" stroke-miterlimit="10"/><line x1="252.48" y1="148.06" x2="252.48" y2="92.52" fill="none" stroke="#003a50" stroke-miterlimit="10" stroke-dasharray="5.85 5.85"/><line x1="252.48" y1="89.6" x2="252.48" y2="86.76" fill="none" stroke="#003a50" stroke-miterlimit="10"/><line x1="9.36" y1="16.25" x2="9.36" y2="-54.97" fill="none" stroke="#003a50" stroke-miterlimit="10" stroke-dasharray="5.67 5.67"/></g><g clip-path="url(#clip-path)"><path d="M80.77,139.68H75v-1.84h8.86v1.84l-4.53,2.65v.07h1.28a3.9,3.9,0,0,1,2.79,1,3.5,3.5,0,0,1,1.06,2.67,3.35,3.35,0,0,1-1.33,2.82,7,7,0,0,1-7.24,0A3.36,3.36,0,0,1,74.51,146v-.32h2.11V146c0,1.36.94,2,2.84,2s2.84-.67,2.84-2-1-2-2.84-2H76.19v-1.67l4.58-2.68Z" fill="#003a50"/><path d="M86.51,149.61a1,1,0,0,1-.33-.8,1,1,0,0,1,.33-.81,1.4,1.4,0,0,1,1.73,0,1,1,0,0,1,.33.81,1,1,0,0,1-.33.8,1.4,1.4,0,0,1-1.73,0Z" fill="#003a50"/><path d="M96.61,139.68H90.79v-1.84h8.86v1.84l-4.52,2.65v.07h1.28a3.9,3.9,0,0,1,2.79,1,3.52,3.52,0,0,1,1,2.67,3.32,3.32,0,0,1-1.33,2.82,7,7,0,0,1-7.24,0A3.39,3.39,0,0,1,90.35,146v-.32h2.11V146c0,1.36,1,2,2.84,2s2.84-.67,2.84-2-.94-2-2.84-2H92v-1.67l4.57-2.68Z" fill="#003a50"/><path d="M157.1,116.21h-9.93v-1.56a2.79,2.79,0,0,1,.58-1.75,3.87,3.87,0,0,1,1.44-1.19c.5-.26,1.12-.55,1.87-.87s1.32-.55,1.88-.77a4.22,4.22,0,0,0,1.44-.91,1.83,1.83,0,0,0,.58-1.31c0-1.25-.89-1.88-2.67-1.88s-2.67.72-2.67,2.16v.4h-2.11v-.4a3.62,3.62,0,0,1,1.26-3,5.42,5.42,0,0,1,3.51-1,5.68,5.68,0,0,1,3.51,1,3.29,3.29,0,0,1,1.28,2.75,3.17,3.17,0,0,1-.56,1.84,4.25,4.25,0,0,1-1.4,1.3,16.7,16.7,0,0,1-1.84.93c-.63.28-1.23.53-1.83.75a5.26,5.26,0,0,0-1.4.75,1.22,1.22,0,0,0-.57,1h7.63Z" fill="#003a50"/><path d="M159.2,116.07a1,1,0,0,1-.32-.8,1,1,0,0,1,.32-.81,1.41,1.41,0,0,1,1.74,0,1.07,1.07,0,0,1,.32.81,1,1,0,0,1-.32.8,1.41,1.41,0,0,1-1.74,0Z" fill="#003a50"/><path d="M173,116.21H163v-1.56a2.8,2.8,0,0,1,.59-1.75,3.87,3.87,0,0,1,1.44-1.19c.5-.26,1.12-.55,1.87-.87s1.32-.55,1.88-.77a4.22,4.22,0,0,0,1.44-.91,1.82,1.82,0,0,0,.57-1.31c0-1.25-.88-1.88-2.66-1.88s-2.68.72-2.68,2.16v.4h-2.11v-.4a3.63,3.63,0,0,1,1.27-3,5.4,5.4,0,0,1,3.51-1,5.7,5.7,0,0,1,3.51,1,3.29,3.29,0,0,1,1.27,2.75,3.17,3.17,0,0,1-.55,1.84A4.28,4.28,0,0,1,171,111a16.56,16.56,0,0,1-1.83.93q-.94.42-1.83.75a5.26,5.26,0,0,0-1.4.75,1.22,1.22,0,0,0-.57,1H173Z" fill="#003a50"/><path d="M310.49-6.48a5,5,0,0,1,3.34,1.07,3.67,3.67,0,0,1,1.25,3,3.71,3.71,0,0,1-1.29,3,5.39,5.39,0,0,1-3.55,1.08,5.79,5.79,0,0,1-3.56-1A3.16,3.16,0,0,1,305.39-2h2.11a1.55,1.55,0,0,0,.7,1.33,3.61,3.61,0,0,0,2,.49,3.15,3.15,0,0,0,2-.58,2,2,0,0,0,.7-1.68,2.05,2.05,0,0,0-.73-1.71,3.31,3.31,0,0,0-2.07-.58,3.6,3.6,0,0,0-1.92.42,1.93,1.93,0,0,0-.7.64l-.05.12h-2.11V-10.4h8.88v1.84H307.5v3h.05a2.22,2.22,0,0,1,.4-.31,4,4,0,0,1,.55-.27A5.6,5.6,0,0,1,310.49-6.48Z" fill="#003a50"/><path d="M317.19,1.37a1,1,0,0,1-.32-.8,1.07,1.07,0,0,1,.32-.81,1.25,1.25,0,0,1,.88-.3,1.23,1.23,0,0,1,.86.3,1.07,1.07,0,0,1,.32.81,1,1,0,0,1-.32.8,1.23,1.23,0,0,1-.86.3A1.25,1.25,0,0,1,317.19,1.37Z" fill="#003a50"/><path d="M324.3,1.51H322l5.42-10h-6.93V-10.4h9.28v1.87Z" fill="#003a50"/><path d="M37.67-8.61H31.85v-1.84h8.86v1.84L36.19-6v.06h1.27a3.83,3.83,0,0,1,2.79,1,3.49,3.49,0,0,1,1.06,2.66A3.33,3.33,0,0,1,40,.61a5.89,5.89,0,0,1-3.62,1,5.85,5.85,0,0,1-3.62-1,3.36,3.36,0,0,1-1.33-2.86v-.32h2.11v.32c0,1.36.95,2,2.84,2s2.84-.66,2.84-2-1-2-2.84-2H33.1V-5.86l4.57-2.68Z" fill="#003a50"/><path d="M43.41,1.32a1,1,0,0,1-.32-.8,1,1,0,0,1,.32-.81,1.41,1.41,0,0,1,1.74,0,1.07,1.07,0,0,1,.32.81,1,1,0,0,1-.32.8,1.41,1.41,0,0,1-1.74,0Z" fill="#003a50"/><path d="M56,.69a6.43,6.43,0,0,1-3.68.93A6.37,6.37,0,0,1,48.63.68a2.93,2.93,0,0,1-1.37-2.56A2.69,2.69,0,0,1,47.51-3a2.29,2.29,0,0,1,.66-.85,4,4,0,0,1,1.39-.78l.26-.06v-.09a3.32,3.32,0,0,1-.76-.29,3,3,0,0,1-.67-.44,2.35,2.35,0,0,1-.54-.76,2.38,2.38,0,0,1-.22-1,2.8,2.8,0,0,1,1.25-2.38,5.74,5.74,0,0,1,3.42-.9,5.79,5.79,0,0,1,3.43.9A2.83,2.83,0,0,1,57-7.34a2.43,2.43,0,0,1-.22,1,2,2,0,0,1-.55.75,3.72,3.72,0,0,1-1.2.68l-.22,0v.09l.28.06a5.42,5.42,0,0,1,.62.27,3.76,3.76,0,0,1,.78.51,2.69,2.69,0,0,1,.61.82,2.63,2.63,0,0,1,.27,1.19A3,3,0,0,1,56,.69ZM50.2-.66a3.84,3.84,0,0,0,2.1.48,3.9,3.9,0,0,0,2.11-.48A1.5,1.5,0,0,0,55.15-2a1.51,1.51,0,0,0-.74-1.35,4,4,0,0,0-2.11-.47,4,4,0,0,0-2.1.47A1.51,1.51,0,0,0,49.46-2,1.51,1.51,0,0,0,50.2-.66Zm-.36-6.52A1.36,1.36,0,0,0,50.48-6a3.24,3.24,0,0,0,1.82.44A3.25,3.25,0,0,0,54.13-6a1.36,1.36,0,0,0,.64-1.19,1.38,1.38,0,0,0-.65-1.2,3.29,3.29,0,0,0-1.82-.44,3.27,3.27,0,0,0-1.81.44A1.38,1.38,0,0,0,49.84-7.18Z" fill="#003a50"/><path d="M82.27,256.8l-2.49,1.95v-2.24l2.73-2.27h1.87v11.91H82.27Z" fill="#003a50"/><path d="M96.77,266.15H86.83v-1.56a2.85,2.85,0,0,1,.58-1.75,4.2,4.2,0,0,1,1.45-1.19c.5-.26,1.12-.54,1.87-.87L92.6,260a4.12,4.12,0,0,0,1.45-.91,1.8,1.8,0,0,0,.57-1.3c0-1.26-.89-1.89-2.66-1.89s-2.68.72-2.68,2.16v.41H87.17v-.41a3.61,3.61,0,0,1,1.27-3,5.4,5.4,0,0,1,3.51-1,5.65,5.65,0,0,1,3.51,1,3.27,3.27,0,0,1,1.27,2.75,3.16,3.16,0,0,1-.55,1.83,4.28,4.28,0,0,1-1.41,1.3,17.49,17.49,0,0,1-1.83.93q-.94.42-1.83.75a5.26,5.26,0,0,0-1.4.75,1.22,1.22,0,0,0-.57.95h7.63Z" fill="#003a50"/><path d="M98.87,266a1.15,1.15,0,0,1,0-1.61,1.4,1.4,0,0,1,1.73,0,1.15,1.15,0,0,1,0,1.61,1.4,1.4,0,0,1-1.73,0Z" fill="#003a50"/><path d="M111.2,266.15h-2.11V263.5h-7v-1.84l6.3-7.42h2.79v7.42h1.59v1.84H111.2Zm-2.11-4.49v-5.33H109l-4.47,5.28v.05Z" fill="#003a50"/><path d="M210.3,116.14h-9.93v-1.56a2.79,2.79,0,0,1,.58-1.75,4,4,0,0,1,1.44-1.19c.5-.26,1.12-.54,1.87-.87l1.88-.77a4.07,4.07,0,0,0,1.44-.91,1.78,1.78,0,0,0,.58-1.31c0-1.25-.89-1.88-2.67-1.88s-2.67.72-2.67,2.16v.41h-2.11v-.41a3.64,3.64,0,0,1,1.26-3,5.44,5.44,0,0,1,3.51-1,5.66,5.66,0,0,1,3.52,1,3.28,3.28,0,0,1,1.27,2.74,3.17,3.17,0,0,1-.56,1.84,4.25,4.25,0,0,1-1.4,1.3,16.7,16.7,0,0,1-1.84.93q-.93.42-1.83.75a5.26,5.26,0,0,0-1.4.75,1.2,1.2,0,0,0-.56,1h7.62Z" fill="#003a50"/><path d="M212.4,116a1,1,0,0,1-.32-.81,1,1,0,0,1,.32-.81,1.45,1.45,0,0,1,1.74,0,1.07,1.07,0,0,1,.32.81,1,1,0,0,1-.32.81,1.45,1.45,0,0,1-1.74,0Z" fill="#003a50"/><path d="M217.81,114.6a7.33,7.33,0,0,1,0-8.83,5.69,5.69,0,0,1,8.13,0,7.33,7.33,0,0,1,0,8.83,5.71,5.71,0,0,1-8.13,0Zm6.52-1.38a5.69,5.69,0,0,0,0-6.08,3.16,3.16,0,0,0-4.91,0,5.69,5.69,0,0,0,0,6.08,3.14,3.14,0,0,0,4.91,0Z" fill="#003a50"/><path d="M187.38,256.8l-2.49,1.95v-2.24l2.73-2.27h1.86v11.91h-2.1Z" fill="#003a50"/><path d="M200.68,265.39a7.73,7.73,0,0,1-7.37,0,3,3,0,0,1-1.37-2.56,2.66,2.66,0,0,1,.26-1.16,2.32,2.32,0,0,1,.66-.86,4,4,0,0,1,1.39-.77l.26-.07v-.09a3.57,3.57,0,0,1-.77-.29,2.61,2.61,0,0,1-.66-.44,2.15,2.15,0,0,1-.54-.76,2.38,2.38,0,0,1-.22-1,2.8,2.8,0,0,1,1.25-2.38,7,7,0,0,1,6.85,0,2.84,2.84,0,0,1,1.25,2.38,2.63,2.63,0,0,1-.22,1,1.88,1.88,0,0,1-.56.74,3.59,3.59,0,0,1-1.19.68l-.23.05V260l.29.07a6.35,6.35,0,0,1,.62.27,3.79,3.79,0,0,1,.77.5,2.83,2.83,0,0,1,.62.82,2.71,2.71,0,0,1,.27,1.2A3,3,0,0,1,200.68,265.39ZM194.89,264a4.88,4.88,0,0,0,4.2,0,1.6,1.6,0,0,0,0-2.7,5,5,0,0,0-4.2,0,1.53,1.53,0,0,0-.74,1.35A1.5,1.5,0,0,0,194.89,264Zm-.36-6.52a1.35,1.35,0,0,0,.64,1.19,3.16,3.16,0,0,0,1.82.44,3.12,3.12,0,0,0,1.82-.44,1.42,1.42,0,0,0,0-2.39,4,4,0,0,0-3.62,0A1.35,1.35,0,0,0,194.53,257.51Z" fill="#003a50"/><path d="M204.15,266a1.17,1.17,0,0,1,0-1.61,1.41,1.41,0,0,1,1.74,0,1.17,1.17,0,0,1,0,1.61,1.41,1.41,0,0,1-1.74,0Z" fill="#003a50"/><path d="M214.26,256.08h-5.82v-1.84h8.86v1.84l-4.53,2.65v.07h1.28a3.9,3.9,0,0,1,2.79,1,3.52,3.52,0,0,1,1,2.67,3.34,3.34,0,0,1-1.32,2.82,7,7,0,0,1-7.25,0,3.37,3.37,0,0,1-1.32-2.85v-.33h2.1v.33c0,1.36,1,2,2.84,2s2.85-.67,2.85-2-.95-2-2.85-2h-3.26v-1.67l4.58-2.68Z" fill="#003a50"/></g></svg>