<svg id="Слой_1" data-name="Слой 1" xmlns="http://www.w3.org/2000/svg" xmlns:xlink="http://www.w3.org/1999/xlink" viewBox="0 0 583.94 629.29"><defs><clipPath id="clip-path"><polygon points="0 0 0 161.46 50.85 161.46 50.85 228.08 157.32 228.08 157.32 613.67 168.28 613.67 168.28 627.31 581.39 627.31 581.39 0 0 0" fill="none"/></clipPath></defs><polygon points="50.85 227.38 50.85 228.08 157.32 228.08 157.32 611.36 165.47 611.36 165.47 220.39 50.85 227.38" fill="#fff"/><polygon points="53.49 77.42 67.22 109.72 67.22 159.22 60.2 218.19 160.7 225.22 161.2 610.59 564.77 610.59 564.77 214.44 564.51 214.44 564.51 9.22 53.49 8.47 53.49 77.42" fill="#fff"/><polygon points="62 0 61.7 6.26 564.64 6.26 564.64 0 62 0" fill="#fff"/><g clip-path="url(#clip-path)"><rect x="-584.89" y="-1615.4" width="1162.95" height="2240.57" fill="none" stroke="#003a50" stroke-miterlimit="10"/><polygon points="-572.3 -511.23 -572.3 612.32 565.09 612.32 565.09 -1602.45 -572.3 -1602.61 -572.3 -581.94 -572.3 -511.23" fill="none" stroke="#003a50" stroke-miterlimit="10"/></g><rect x="380.52" y="586.77" width="147.9" height="4.56" fill="#fff"/><rect x="380.52" y="586.77" width="147.9" height="4.56" fill="none" stroke="#003a50" stroke-miterlimit="10"/><line x1="380.52" y1="589.05" x2="528.42" y2="589.05" fill="none" stroke="#003a50" stroke-miterlimit="10"/><rect x="414.14" y="586.77" width="4.75" height="4.56" fill="#fff"/><rect x="414.14" y="586.77" width="4.75" height="4.56" fill="none" stroke="#003a50" stroke-miterlimit="10"/><rect x="447.75" y="586.77" width="4.75" height="4.56" fill="#fff"/><rect x="447.75" y="586.77" width="4.75" height="4.56" fill="none" stroke="#003a50" stroke-miterlimit="10"/><rect x="380.52" y="586.77" width="4.75" height="4.56" fill="#fff"/><rect x="380.52" y="586.77" width="4.75" height="4.56" fill="none" stroke="#003a50" stroke-miterlimit="10"/><rect x="523.67" y="586.77" width="4.75" height="4.56" fill="#fff"/><rect x="523.67" y="586.77" width="4.75" height="4.56" fill="none" stroke="#003a50" stroke-miterlimit="10"/><rect x="481.37" y="586.77" width="4.75" height="4.56" fill="#fff"/><rect x="481.37" y="586.77" width="4.75" height="4.56" fill="none" stroke="#003a50" stroke-miterlimit="10"/><g clip-path="url(#clip-path)"><path d="M486.11,586.77v-2.9c0-20.15,16.82-33.1,37.56-33.1v36" fill="none" stroke="#003a50" stroke-miterlimit="10"/></g><rect x="540.77" y="410.29" width="4.56" height="142.59" fill="#fff"/><rect x="540.76" y="410.29" width="4.56" height="142.59" fill="none" stroke="#003a50" stroke-miterlimit="10"/><line x1="543.04" y1="552.88" x2="543.04" y2="410.29" fill="none" stroke="#003a50" stroke-miterlimit="10"/><rect x="540.77" y="515.89" width="4.56" height="4.58" fill="#fff"/><rect x="540.76" y="515.89" width="4.56" height="4.58" fill="none" stroke="#003a50" stroke-miterlimit="10"/><rect x="540.77" y="483.48" width="4.56" height="4.58" fill="#fff"/><rect x="540.76" y="483.48" width="4.56" height="4.58" fill="none" stroke="#003a50" stroke-miterlimit="10"/><rect x="540.77" y="548.3" width="4.56" height="4.58" fill="#fff"/><rect x="540.76" y="548.29" width="4.56" height="4.58" fill="none" stroke="#003a50" stroke-miterlimit="10"/><rect x="540.77" y="410.28" width="4.56" height="4.58" fill="#fff"/><rect x="540.76" y="410.28" width="4.56" height="4.58" fill="none" stroke="#003a50" stroke-miterlimit="10"/><rect x="540.77" y="451.07" width="4.56" height="4.58" fill="#fff"/><rect x="540.76" y="451.07" width="4.56" height="4.58" fill="none" stroke="#003a50" stroke-miterlimit="10"/><g clip-path="url(#clip-path)"><path d="M540.77,451.07h-2.9c-20.15,0-33.1-16.21-33.1-36.21h36" fill="none" stroke="#003a50" stroke-miterlimit="10"/><path d="M52.94,586.77v-2.9c0-20.15-16.12-33.1-36-33.1v36" fill="none" stroke="#003a50" stroke-miterlimit="10"/></g><rect x="195.87" y="586.77" width="88.11" height="4.56" fill="#fff"/><rect x="195.87" y="586.77" width="88.11" height="4.56" fill="none" stroke="#003a50" stroke-miterlimit="10"/><line x1="195.87" y1="589.05" x2="283.98" y2="589.05" fill="none" stroke="#003a50" stroke-miterlimit="10"/><rect x="195.87" y="586.77" width="4.57" height="4.56" fill="#fff"/><rect x="195.87" y="586.77" width="4.57" height="4.56" fill="none" stroke="#003a50" stroke-miterlimit="10"/><rect x="279.41" y="586.77" width="4.57" height="4.56" fill="#fff"/><rect x="279.41" y="586.77" width="4.57" height="4.56" fill="none" stroke="#003a50" stroke-miterlimit="10"/><rect x="238.72" y="586.77" width="4.57" height="4.56" fill="#fff"/><rect x="238.72" y="586.77" width="4.57" height="4.56" fill="none" stroke="#003a50" stroke-miterlimit="10"/><g clip-path="url(#clip-path)"><path d="M243.28,586.77v-2.9c0-20.15,16.18-33.1,36.13-33.1v36" fill="none" stroke="#003a50" stroke-miterlimit="10"/></g><rect x="540.77" y="46.92" width="4.56" height="85.42" fill="#fff"/><rect x="540.76" y="46.92" width="4.56" height="85.42" fill="none" stroke="#003a50" stroke-miterlimit="10"/><line x1="543.04" y1="132.34" x2="543.04" y2="46.92" fill="none" stroke="#003a50" stroke-miterlimit="10"/><rect x="540.77" y="127.78" width="4.56" height="4.56" fill="#fff"/><rect x="540.76" y="127.78" width="4.56" height="4.56" fill="none" stroke="#003a50" stroke-miterlimit="10"/><rect x="540.77" y="46.92" width="4.56" height="4.55" fill="#fff"/><rect x="540.76" y="46.92" width="4.56" height="4.55" fill="none" stroke="#003a50" stroke-miterlimit="10"/><rect x="540.77" y="87.47" width="4.56" height="4.55" fill="#fff"/><rect x="540.76" y="87.47" width="4.56" height="4.55" fill="none" stroke="#003a50" stroke-miterlimit="10"/><g clip-path="url(#clip-path)"><path d="M540.77,87.47h-2.9c-20.15,0-33.1-16.12-33.1-36h36" fill="none" stroke="#003a50" stroke-miterlimit="10"/></g><rect x="540.77" y="227.28" width="4.56" height="87.81" fill="#fff"/><rect x="540.76" y="227.28" width="4.56" height="87.81" fill="none" stroke="#003a50" stroke-miterlimit="10"/><line x1="543.04" y1="227.28" x2="543.04" y2="315.09" fill="none" stroke="#003a50" stroke-miterlimit="10"/><rect x="540.77" y="227.28" width="4.56" height="4.56" fill="#fff"/><rect x="540.76" y="227.28" width="4.56" height="4.56" fill="none" stroke="#003a50" stroke-miterlimit="10"/><rect x="540.77" y="310.54" width="4.56" height="4.55" fill="#fff"/><rect x="540.76" y="310.53" width="4.56" height="4.55" fill="none" stroke="#003a50" stroke-miterlimit="10"/><rect x="540.77" y="269.98" width="4.56" height="4.55" fill="#fff"/><rect x="540.76" y="269.98" width="4.56" height="4.55" fill="none" stroke="#003a50" stroke-miterlimit="10"/><g clip-path="url(#clip-path)"><path d="M540.77,274.53h-2.9c-20.15,0-33.1,16.12-33.1,36h36" fill="none" stroke="#003a50" stroke-miterlimit="10"/></g><rect x="248.77" y="174.35" width="42.38" height="92.09" fill="none" stroke="#003a50" stroke-miterlimit="10"/><g clip-path="url(#clip-path)"><rect x="253.75" y="178.14" width="32.03" height="84.24" rx="13.7" fill="none" stroke="#003a50" stroke-miterlimit="10"/><path d="M272.05,192.72a2.21,2.21,0,1,0-2.2,2.2A2.21,2.21,0,0,0,272.05,192.72Z" fill="none" stroke="#003a50" stroke-miterlimit="10"/><path d="M201.88,222.63H173.32v23.08h28.56a11.54,11.54,0,0,0,0-23.08Z" fill="none" stroke="#003a50" stroke-miterlimit="10"/></g><rect x="173.32" y="222.63" width="11.08" height="23.08" fill="none" stroke="#003a50" stroke-miterlimit="10"/><g clip-path="url(#clip-path)"><rect x="167.76" y="-95.14" width="43.96" height="95.52" fill="none" stroke="#003a50" stroke-miterlimit="10"/><path d="M201.88,49.69H173.32V72.77h28.56a11.54,11.54,0,0,0,0-23.08Z" fill="none" stroke="#003a50" stroke-miterlimit="10"/></g><rect x="173.32" y="49.69" width="11.08" height="23.08" fill="none" stroke="#003a50" stroke-miterlimit="10"/><g clip-path="url(#clip-path)"><rect x="102.85" y="-30.42" width="31.57" height="30.42" fill="none" stroke="#003a50" stroke-miterlimit="10"/><path d="M151.84,74.45a3.16,3.16,0,0,0,2.9-2h1.79l4.73,2.82-2.14,3.5-2.47-1.35v11h-10.3v-11l-2.46,1.35-2.15-3.5,4.77-2.82h2.39A3.21,3.21,0,0,0,151.84,74.45Z" fill="none" stroke="#003a50" stroke-miterlimit="10"/></g><rect x="135.72" y="65.29" width="31.57" height="30.36" fill="none" stroke="#003a50" stroke-miterlimit="10"/><rect x="354.93" y="12.4" width="33.97" height="34.02" fill="none" stroke="#003a50" stroke-miterlimit="10"/><g clip-path="url(#clip-path)"><path d="M376.24,28.62v-11h-8.61V28.62a3.55,3.55,0,0,0,3.55,3.54h1.51A3.55,3.55,0,0,0,376.24,28.62Z" fill="none" stroke="#003a50" stroke-miterlimit="10"/></g><polyline points="368.46 42.72 371.94 42.72 375.41 42.72" fill="none" stroke="#003a50" stroke-miterlimit="10"/><line x1="371.94" y1="32.16" x2="371.94" y2="42.72" fill="none" stroke="#003a50" stroke-miterlimit="10"/><g clip-path="url(#clip-path)"><rect x="123.63" y="260.69" width="34.02" height="33.97" fill="none" stroke="#003a50" stroke-miterlimit="10"/><path d="M144.94,276.17V265.12h-8.6v11.05a3.53,3.53,0,0,0,3.54,3.54h1.52A3.54,3.54,0,0,0,144.94,276.17Z" fill="none" stroke="#003a50" stroke-miterlimit="10"/></g><rect x="435.4" y="12.4" width="34.02" height="34.02" fill="none" stroke="#003a50" stroke-miterlimit="10"/><g clip-path="url(#clip-path)"><path d="M464.81,37a4.64,4.64,0,1,1-4.64-4.64A4.63,4.63,0,0,1,464.81,37Z" fill="none" stroke="#003a50" stroke-miterlimit="10"/><path d="M449.33,37a4.64,4.64,0,1,1-4.64-4.64A4.63,4.63,0,0,1,449.33,37Z" fill="none" stroke="#003a50" stroke-miterlimit="10"/><path d="M464.81,21.93a4.64,4.64,0,1,1-4.64-4.64A4.63,4.63,0,0,1,464.81,21.93Z" fill="none" stroke="#003a50" stroke-miterlimit="10"/><path d="M449.33,21.93a4.64,4.64,0,1,1-4.64-4.64A4.63,4.63,0,0,1,449.33,21.93Z" fill="none" stroke="#003a50" stroke-miterlimit="10"/><rect x="292.15" y="-34.34" width="34.02" height="34.02" fill="none" stroke="#003a50" stroke-miterlimit="10"/><rect x="123.72" y="301.81" width="34.02" height="34.02" fill="none" stroke="#003a50" stroke-miterlimit="10"/><path d="M133.12,331.22a4.64,4.64,0,1,1,4.64-4.64A4.64,4.64,0,0,1,133.12,331.22Z" fill="none" stroke="#003a50" stroke-miterlimit="10"/><path d="M133.12,315.74a4.64,4.64,0,1,1,4.64-4.64A4.64,4.64,0,0,1,133.12,315.74Z" fill="none" stroke="#003a50" stroke-miterlimit="10"/><path d="M148.21,331.22a4.64,4.64,0,1,1,4.64-4.64A4.64,4.64,0,0,1,148.21,331.22Z" fill="none" stroke="#003a50" stroke-miterlimit="10"/><path d="M148.21,315.74a4.64,4.64,0,1,1,4.64-4.64A4.64,4.64,0,0,1,148.21,315.74Z" fill="none" stroke="#003a50" stroke-miterlimit="10"/></g><rect x="297.78" y="202.73" width="17.01" height="102.05" fill="none" stroke="#003a50" stroke-miterlimit="10"/><polygon points="306.83 296.75 303.3 253.86 306.83 210.75 309.29 210.75 309.29 296.75 306.83 296.75" fill="none" stroke="#003a50" stroke-miterlimit="10"/><rect x="337.21" y="438.66" width="17.01" height="102.05" fill="none" stroke="#003a50" stroke-miterlimit="10"/><polygon points="345.18 446.69 348.7 489.58 345.18 532.68 342.72 532.68 342.72 446.69 345.18 446.69" fill="none" stroke="#003a50" stroke-miterlimit="10"/><g clip-path="url(#clip-path)"><rect x="123.72" y="260.79" width="33.59" height="122.25" fill="none" stroke="#003a50" stroke-miterlimit="10"/><rect x="76.66" y="228.07" width="80.66" height="32.72" fill="none" stroke="#003a50" stroke-miterlimit="10"/></g><rect x="295.97" y="12.27" width="199.76" height="34.28" fill="none" stroke="#003a50" stroke-miterlimit="10"/><rect x="247.61" y="12.06" width="42.22" height="83.62" fill="none" stroke="#003a50" stroke-miterlimit="10"/><g clip-path="url(#clip-path)"><path d="M271.18,32a2.46,2.46,0,1,1-2.46-2.46A2.46,2.46,0,0,1,271.18,32Z" fill="none" stroke="#003a50" stroke-miterlimit="10"/><path d="M118.35,255.85v-15.2a3.23,3.23,0,0,0-3.23-3.23H91.53a3.24,3.24,0,0,0-3.24,3.23v15.2a3.24,3.24,0,0,0,3.24,3.24h23.59A3.23,3.23,0,0,0,118.35,255.85Z" fill="none" stroke="#003a50" stroke-miterlimit="10"/><path d="M103.28,246.91a2.43,2.43,0,1,0-2.42-2.43A2.42,2.42,0,0,0,103.28,246.91Z" fill="none" stroke="#003a50" stroke-miterlimit="10"/></g><polyline points="329.57 15.06 322.77 15.06 315.99 15.06" fill="none" stroke="#003a50" stroke-miterlimit="10"/><line x1="322.75" y1="28.68" x2="322.75" y2="15.06" fill="none" stroke="#003a50" stroke-miterlimit="10"/><g clip-path="url(#clip-path)"><path d="M337.83,39.31V24.11a3.24,3.24,0,0,0-3.24-3.23H311a3.24,3.24,0,0,0-3.24,3.23v15.2A3.24,3.24,0,0,0,311,42.55h23.59A3.24,3.24,0,0,0,337.83,39.31Z" fill="none" stroke="#003a50" stroke-miterlimit="10"/><path d="M322.75,30.37A2.43,2.43,0,1,0,320.33,28,2.42,2.42,0,0,0,322.75,30.37Z" fill="none" stroke="#003a50" stroke-miterlimit="10"/><path d="M28.25,431.25a1.25,1.25,0,0,1,.94,1.5,13.78,13.78,0,1,0,26.87,6.16,1.26,1.26,0,0,1,2.46.57,16.3,16.3,0,0,1-31.78-7.29A1.25,1.25,0,0,1,28.25,431.25Z" fill="none" stroke="#003a50" stroke-miterlimit="10"/><path d="M83.42,441a1.26,1.26,0,0,1,1.75-.33,13.78,13.78,0,0,0,15.52-22.78,1.26,1.26,0,1,1,1.42-2.08,16.3,16.3,0,1,1-18.36,26.94A1.25,1.25,0,0,1,83.42,441Z" fill="none" stroke="#003a50" stroke-miterlimit="10"/><path d="M85.92,393.56a1.26,1.26,0,0,1-1.33-1.18A13.78,13.78,0,1,0,57.07,394a1.26,1.26,0,1,1-2.51.15,16.3,16.3,0,1,1,32.54-1.93A1.25,1.25,0,0,1,85.92,393.56Z" fill="none" stroke="#003a50" stroke-miterlimit="10"/><path d="M42.45,447.86a12.69,12.69,0,0,1-12-15.48l2-8.88a3.53,3.53,0,0,1,4.24-2.68l13.44,3.08a23.73,23.73,0,0,0,6,9.44l-1,4.2C53.85,443.5,48.57,448.06,42.45,447.86Z" fill="none" stroke="#003a50" stroke-miterlimit="10"/><path d="M85.25,439.34l-2.32-1.6a23.81,23.81,0,0,0,13.64-21.32l2.52,1.72c5,3.44,7.4,10,5,15.64A12.7,12.7,0,0,1,85.25,439.34Z" fill="none" stroke="#003a50" stroke-miterlimit="10"/><path d="M58.41,397.06l-.12-2c-.36-6.12,3.4-12,9.32-13.48A12.66,12.66,0,0,1,83.49,393.1l.12,1.84A23.93,23.93,0,0,0,67,393,23.5,23.5,0,0,0,58.41,397.06Z" fill="none" stroke="#003a50" stroke-miterlimit="10"/><path d="M56.17,433.34a23.73,23.73,0,0,1-6-9.44,16.51,16.51,0,0,1-.6-2,23.85,23.85,0,0,1,8.84-24.84A23.5,23.5,0,0,1,67,393a23.87,23.87,0,0,1,28.92,17.4,22.12,22.12,0,0,1,.68,6,23.81,23.81,0,0,1-13.64,21.32,22.85,22.85,0,0,1-4.48,1.6A23.8,23.8,0,0,1,56.17,433.34Z" fill="none" stroke="#003a50" stroke-miterlimit="10"/><rect x="218.59" y="-34.33" width="136.06" height="34.02" fill="none" stroke="#003a50" stroke-miterlimit="10"/></g><rect x="408.7" y="342.34" width="57.24" height="22.68" fill="none" stroke="#003a50" stroke-miterlimit="10"/><rect x="465.94" y="342.34" width="57.24" height="22.68" fill="none" stroke="#003a50" stroke-miterlimit="10"/><polygon points="248.51 205.33 173.58 205.12 173.58 174.57 248.51 174.78 248.51 205.33" fill="none" stroke="#003a50" stroke-miterlimit="10"/><g clip-path="url(#clip-path)"><path d="M179.65,199.31v-23A3.35,3.35,0,0,1,183,173h22.25a3.36,3.36,0,0,1,3.36,3.36v23a3.37,3.37,0,0,1-3.36,3.36H183A3.36,3.36,0,0,1,179.65,199.31Z" fill="none" stroke="#003a50" stroke-miterlimit="10"/><circle cx="194.13" cy="187.81" r="2.27" fill="none" stroke="#003a50" stroke-miterlimit="10"/><path d="M215.5,199.31v-23a3.36,3.36,0,0,1,3.36-3.36h22.25a3.35,3.35,0,0,1,3.35,3.36v23a3.36,3.36,0,0,1-3.35,3.36H218.86A3.37,3.37,0,0,1,215.5,199.31Z" fill="none" stroke="#003a50" stroke-miterlimit="10"/><circle cx="229.98" cy="187.81" r="2.27" fill="none" stroke="#003a50" stroke-miterlimit="10"/></g><polygon points="247.35 43.38 173.88 43.17 173.88 12.61 247.35 12.83 247.35 43.38" fill="none" stroke="#003a50" stroke-miterlimit="10"/><g clip-path="url(#clip-path)"><path d="M214.71,37.36v-23A3.37,3.37,0,0,1,218.07,11h22.25a3.36,3.36,0,0,1,3.35,3.36v23a3.35,3.35,0,0,1-3.35,3.35H218.07A3.36,3.36,0,0,1,214.71,37.36Z" fill="none" stroke="#003a50" stroke-miterlimit="10"/><path d="M229.19,28.13a2.27,2.27,0,1,1,2.27-2.27A2.27,2.27,0,0,1,229.19,28.13Z" fill="none" stroke="#003a50" stroke-miterlimit="10"/><polygon points="167.53 -30.52 102.57 -30.31 102.57 0.24 167.53 0.03 167.53 -30.52" fill="none" stroke="#003a50" stroke-miterlimit="10"/><path d="M137.15-24.5v23a3.36,3.36,0,0,0,3.35,3.36h22.25a3.37,3.37,0,0,0,3.36-3.36v-23a3.37,3.37,0,0,0-3.36-3.36H140.5A3.36,3.36,0,0,0,137.15-24.5Z" fill="none" stroke="#003a50" stroke-miterlimit="10"/><rect x="123.66" y="349.46" width="33.52" height="33.52" fill="none" stroke="#003a50" stroke-miterlimit="10"/></g><rect x="495.39" y="12.54" width="34.02" height="34.02" fill="none" stroke="#003a50" stroke-miterlimit="10"/><line x1="522.38" y1="29.55" x2="502.42" y2="29.55" fill="none" stroke="#003a50" stroke-miterlimit="10"/><line x1="512.4" y1="19.57" x2="512.4" y2="39.53" fill="none" stroke="#003a50" stroke-miterlimit="10"/><line x1="519.45" y1="22.49" x2="505.34" y2="36.6" fill="none" stroke="#003a50" stroke-miterlimit="10"/><line x1="505.34" y1="22.49" x2="519.45" y2="36.6" fill="none" stroke="#003a50" stroke-miterlimit="10"/><rect x="173.67" y="272.83" width="26.62" height="97.42" fill="none" stroke="#003a50" stroke-miterlimit="10"/><g clip-path="url(#clip-path)"><path d="M177.45,356.52a.79.79,0,0,1-.35-1.5,22.57,22.57,0,0,1,19.77,0,.79.79,0,0,1-.69,1.42,20.91,20.91,0,0,0-18.39,0A.84.84,0,0,1,177.45,356.52Z" fill="none" stroke="#003a50" stroke-miterlimit="10"/><path d="M177.45,352.16a.78.78,0,0,1-.35-1.49,22.48,22.48,0,0,1,19.77,0,.78.78,0,1,1-.69,1.41,20.91,20.91,0,0,0-18.39,0A.71.71,0,0,1,177.45,352.16Z" fill="none" stroke="#003a50" stroke-miterlimit="10"/><path d="M177.45,347.8a.78.78,0,0,1-.35-1.49,22.57,22.57,0,0,1,19.77,0,.78.78,0,1,1-.69,1.41,21,21,0,0,0-18.39,0A.71.71,0,0,1,177.45,347.8Z" fill="none" stroke="#003a50" stroke-miterlimit="10"/><path d="M177.45,343.45a.8.8,0,0,1-.71-.44.78.78,0,0,1,.36-1.05,22.48,22.48,0,0,1,19.77,0,.78.78,0,1,1-.69,1.41,20.91,20.91,0,0,0-18.39,0A.84.84,0,0,1,177.45,343.45Z" fill="none" stroke="#003a50" stroke-miterlimit="10"/><path d="M177.45,339.09a.78.78,0,0,1-.35-1.49,22.57,22.57,0,0,1,19.77,0,.78.78,0,0,1-.69,1.41,20.91,20.91,0,0,0-18.39,0A.71.71,0,0,1,177.45,339.09Z" fill="none" stroke="#003a50" stroke-miterlimit="10"/><path d="M177.45,334.74a.79.79,0,0,1-.35-1.5,22.57,22.57,0,0,1,19.77,0,.79.79,0,0,1-.69,1.42,20.91,20.91,0,0,0-18.39,0A.84.84,0,0,1,177.45,334.74Z" fill="none" stroke="#003a50" stroke-miterlimit="10"/><path d="M177.45,360.87a.78.78,0,0,1-.35-1.49,22.57,22.57,0,0,1,19.77,0,.78.78,0,1,1-.69,1.41,20.91,20.91,0,0,0-18.39,0A.71.71,0,0,1,177.45,360.87Z" fill="none" stroke="#003a50" stroke-miterlimit="10"/><path d="M177.45,365.23a.8.8,0,0,1-.71-.44.78.78,0,0,1,.36-1.05,22.48,22.48,0,0,1,19.77,0,.78.78,0,1,1-.69,1.41,20.91,20.91,0,0,0-18.39,0A.84.84,0,0,1,177.45,365.23Z" fill="none" stroke="#003a50" stroke-miterlimit="10"/></g><line x1="186.99" y1="369.91" x2="186.99" y2="272.83" fill="none" stroke="#003a50" stroke-miterlimit="10"/><rect x="264.28" y="272.83" width="26.62" height="97.42" fill="none" stroke="#003a50" stroke-miterlimit="10"/><g clip-path="url(#clip-path)"><path d="M268.05,356.52a.79.79,0,0,1-.35-1.5,22.57,22.57,0,0,1,19.77,0,.79.79,0,0,1-.69,1.42,20.91,20.91,0,0,0-18.39,0A.77.77,0,0,1,268.05,356.52Z" fill="none" stroke="#003a50" stroke-miterlimit="10"/><path d="M268.05,352.16a.79.79,0,0,1-.35-1.49,22.48,22.48,0,0,1,19.77,0,.78.78,0,1,1-.69,1.41,20.91,20.91,0,0,0-18.39,0A.66.66,0,0,1,268.05,352.16Z" fill="none" stroke="#003a50" stroke-miterlimit="10"/><path d="M268.05,347.8a.79.79,0,0,1-.35-1.49,22.57,22.57,0,0,1,19.77,0,.78.78,0,1,1-.69,1.41,21,21,0,0,0-18.39,0A.66.66,0,0,1,268.05,347.8Z" fill="none" stroke="#003a50" stroke-miterlimit="10"/><path d="M268.05,343.45a.79.79,0,0,1-.7-.44.77.77,0,0,1,.35-1.05,22.48,22.48,0,0,1,19.77,0,.78.78,0,1,1-.69,1.41,20.91,20.91,0,0,0-18.39,0A.77.77,0,0,1,268.05,343.45Z" fill="none" stroke="#003a50" stroke-miterlimit="10"/><path d="M268.05,339.09a.79.79,0,0,1-.35-1.49,22.57,22.57,0,0,1,19.77,0,.78.78,0,1,1-.69,1.41,20.91,20.91,0,0,0-18.39,0A.66.66,0,0,1,268.05,339.09Z" fill="none" stroke="#003a50" stroke-miterlimit="10"/><path d="M268.05,334.74a.79.79,0,0,1-.35-1.5,22.57,22.57,0,0,1,19.77,0,.79.79,0,0,1-.69,1.42,20.91,20.91,0,0,0-18.39,0A.77.77,0,0,1,268.05,334.74Z" fill="none" stroke="#003a50" stroke-miterlimit="10"/><path d="M268.05,360.87a.79.79,0,0,1-.35-1.49,22.57,22.57,0,0,1,19.77,0,.78.78,0,1,1-.69,1.41,20.91,20.91,0,0,0-18.39,0A.66.66,0,0,1,268.05,360.87Z" fill="none" stroke="#003a50" stroke-miterlimit="10"/><path d="M268.05,365.23a.79.79,0,0,1-.7-.44.77.77,0,0,1,.35-1.05,22.48,22.48,0,0,1,19.77,0,.78.78,0,1,1-.69,1.41,20.91,20.91,0,0,0-18.39,0A.77.77,0,0,1,268.05,365.23Z" fill="none" stroke="#003a50" stroke-miterlimit="10"/></g><line x1="277.59" y1="369.91" x2="277.59" y2="272.83" fill="none" stroke="#003a50" stroke-miterlimit="10"/><g clip-path="url(#clip-path)"><path d="M153.33,61.54a.79.79,0,0,1-.44.71.78.78,0,0,1-1-.36,22.48,22.48,0,0,1,0-19.77.78.78,0,0,1,1.41.69,20.91,20.91,0,0,0,0,18.39A.71.71,0,0,1,153.33,61.54Z" fill="none" stroke="#003a50" stroke-miterlimit="10"/><path d="M149,61.54a.78.78,0,0,1-1.49.35,22.57,22.57,0,0,1,0-19.77.78.78,0,1,1,1.41.69,21,21,0,0,0,0,18.39A.71.71,0,0,1,149,61.54Z" fill="none" stroke="#003a50" stroke-miterlimit="10"/><path d="M144.62,61.54a.81.81,0,0,1-.44.71.78.78,0,0,1-1.05-.36,22.48,22.48,0,0,1,0-19.77.78.78,0,1,1,1.41.69,20.91,20.91,0,0,0,0,18.39A.84.84,0,0,1,144.62,61.54Z" fill="none" stroke="#003a50" stroke-miterlimit="10"/><path d="M140.26,61.54a.79.79,0,0,1-.44.71.78.78,0,0,1-1-.36,22.57,22.57,0,0,1,0-19.77.78.78,0,0,1,1.41.69,20.91,20.91,0,0,0,0,18.39A.71.71,0,0,1,140.26,61.54Z" fill="none" stroke="#003a50" stroke-miterlimit="10"/><path d="M135.9,61.54a.78.78,0,0,1-1.49.35,22.57,22.57,0,0,1,0-19.77.78.78,0,1,1,1.41.69,21,21,0,0,0,0,18.39A.71.71,0,0,1,135.9,61.54Z" fill="none" stroke="#003a50" stroke-miterlimit="10"/><path d="M131.55,61.54a.81.81,0,0,1-.44.71.78.78,0,0,1-1.05-.36,22.48,22.48,0,0,1,0-19.77.78.78,0,1,1,1.41.69,20.91,20.91,0,0,0,0,18.39A.84.84,0,0,1,131.55,61.54Z" fill="none" stroke="#003a50" stroke-miterlimit="10"/><path d="M157.69,61.54a.81.81,0,0,1-.44.71.8.8,0,0,1-1.06-.36,22.57,22.57,0,0,1,0-19.77.79.79,0,0,1,1.42.69,20.91,20.91,0,0,0,0,18.39A.84.84,0,0,1,157.69,61.54Z" fill="none" stroke="#003a50" stroke-miterlimit="10"/><path d="M162,61.54a.79.79,0,0,1-.44.71.78.78,0,0,1-1-.36,22.57,22.57,0,0,1,0-19.77.78.78,0,0,1,1.41.69,20.91,20.91,0,0,0,0,18.39A.71.71,0,0,1,162,61.54Z" fill="none" stroke="#003a50" stroke-miterlimit="10"/></g><line x1="166.73" y1="52" x2="86.58" y2="52" fill="none" stroke="#003a50" stroke-miterlimit="10"/><rect x="86.58" y="38.69" width="80.49" height="26.6" fill="none" stroke="#003a50" stroke-miterlimit="10"/><g clip-path="url(#clip-path)"><path d="M423.6-48.4a3.11,3.11,0,0,0-3.33-2.83h-4.22a3.11,3.11,0,0,0-3.33,2.83V-.2H526.11V-48a3.11,3.11,0,0,0-3.33-2.83h-4.22A3.1,3.1,0,0,0,515.24-48V-5.15H423.6Z" fill="none" stroke="#003a50" stroke-miterlimit="10"/><path d="M111,515.43h41V561.2H108.76V517.64A2.2,2.2,0,0,1,111,515.43Z" fill="none" stroke="#003a50" stroke-miterlimit="10"/><path d="M110.74,469.57H152v45.76H110.74a2,2,0,0,1-2-2v-41.8A2,2,0,0,1,110.74,469.57Z" fill="none" stroke="#003a50" stroke-miterlimit="10"/><path d="M108.75,561.2a3.1,3.1,0,0,0-2.82,3.33v4.22a3.1,3.1,0,0,0,2.82,3.33H157V458.69H109.18a3.11,3.11,0,0,0-2.83,3.33v4.22a3.11,3.11,0,0,0,2.83,3.33H152V561.2Z" fill="none" stroke="#003a50" stroke-miterlimit="10"/><path d="M389,253.8h41v45.77H386.82V256A2.2,2.2,0,0,1,389,253.8Z" fill="none" stroke="#003a50" stroke-miterlimit="10"/><path d="M388.8,207.94h41.26V253.7H388.8a2,2,0,0,1-2-2v-41.8A2,2,0,0,1,388.8,207.94Z" fill="none" stroke="#003a50" stroke-miterlimit="10"/><path d="M386.81,299.57A3.1,3.1,0,0,0,384,302.9v4.22a3.1,3.1,0,0,0,2.82,3.33H435V197.06H387.24a3.11,3.11,0,0,0-2.83,3.33v4.22a3.11,3.11,0,0,0,2.83,3.33h42.82v91.63Z" fill="none" stroke="#003a50" stroke-miterlimit="10"/></g><rect x="420.81" y="207.93" width="9.25" height="91.64" fill="none" stroke="#003a50" stroke-miterlimit="10"/><rect x="173.49" y="550.8" width="22.68" height="22.68" fill="none" stroke="#003a50" stroke-miterlimit="10"/><g clip-path="url(#clip-path)"><path d="M191.33,568.64a9.19,9.19,0,1,1,0-13A9.19,9.19,0,0,1,191.33,568.64Z" fill="none" stroke="#003a50" stroke-miterlimit="10"/><path d="M192,568c-1.69-.17-3.41.48-5.07-1.17-2.43-2.44.15-5-2.29-7.45s-5,.14-7.46-2.3" fill="none" stroke="#003a50" stroke-miterlimit="10"/></g><rect x="173.49" y="412.37" width="22.68" height="22.68" fill="none" stroke="#003a50" stroke-miterlimit="10"/><g clip-path="url(#clip-path)"><path d="M191.33,430.21a9.2,9.2,0,1,1,0-13A9.19,9.19,0,0,1,191.33,430.21Z" fill="none" stroke="#003a50" stroke-miterlimit="10"/><path d="M192,429.52c-1.7-.17-3.41.48-5.06-1.17-2.44-2.44.14-5-2.3-7.46s-5,.14-7.46-2.3" fill="none" stroke="#003a50" stroke-miterlimit="10"/></g><rect x="173.49" y="441.9" width="113.38" height="102.05" fill="none" stroke="#003a50" stroke-miterlimit="10"/><g clip-path="url(#clip-path)"><path d="M277.14,451.9V534a2.08,2.08,0,0,1-2.08,2.08H207.42V449.81h67.64A2.09,2.09,0,0,1,277.14,451.9Z" fill="none" stroke="#003a50" stroke-miterlimit="10"/><path d="M203.8,495.77v38.54a2,2,0,0,1-2,2H182.91a2,2,0,0,1-2-2V495.77a2,2,0,0,1,2-2h18.91A2,2,0,0,1,203.8,495.77Z" fill="none" stroke="#003a50" stroke-miterlimit="10"/><path d="M203.8,451.54v38.54a2,2,0,0,1-2,2H182.91a2,2,0,0,1-2-2V451.54a2,2,0,0,1,2-2h18.91A2,2,0,0,1,203.8,451.54Z" fill="none" stroke="#003a50" stroke-miterlimit="10"/></g><line x1="221.27" y1="449.56" x2="221.27" y2="536.29" fill="none" stroke="#003a50" stroke-miterlimit="10"/><g clip-path="url(#clip-path)"><path d="M486.51,102.85a1.24,1.24,0,0,1-1.25-1.24,13.67,13.67,0,0,0-27.33,0,1.25,1.25,0,0,1-2.49,0,16.16,16.16,0,1,1,32.31,0A1.24,1.24,0,0,1,486.51,102.85Z" fill="none" stroke="#003a50" stroke-miterlimit="10"/><path d="M456.69,155.55a1.25,1.25,0,0,1,1.25,1.25,13.66,13.66,0,1,0,27.32,0,1.25,1.25,0,1,1,2.49,0,16.16,16.16,0,1,1-32.31,0A1.25,1.25,0,0,1,456.69,155.55Z" fill="none" stroke="#003a50" stroke-miterlimit="10"/><path d="M445.06,102.85a1.24,1.24,0,0,1-1.24-1.24,13.67,13.67,0,0,0-27.33,0,1.25,1.25,0,0,1-2.49,0,16.16,16.16,0,1,1,32.31,0A1.24,1.24,0,0,1,445.06,102.85Z" fill="none" stroke="#003a50" stroke-miterlimit="10"/><path d="M415.24,155.55a1.25,1.25,0,0,1,1.25,1.25,13.67,13.67,0,0,0,27.33,0,1.25,1.25,0,1,1,2.49,0,16.16,16.16,0,1,1-32.31,0A1.25,1.25,0,0,1,415.24,155.55Z" fill="none" stroke="#003a50" stroke-miterlimit="10"/><path d="M392.16,116.49a1.25,1.25,0,0,1-1.25,1.25,13.66,13.66,0,0,0,0,27.32,1.25,1.25,0,1,1,0,2.49,16.16,16.16,0,1,1,0-32.31A1.25,1.25,0,0,1,392.16,116.49Z" fill="none" stroke="#003a50" stroke-miterlimit="10"/><path d="M504.72,146.31a1.25,1.25,0,0,1,1.25-1.25,13.67,13.67,0,0,0,0-27.33,1.25,1.25,0,1,1,0-2.49,16.16,16.16,0,0,1,0,32.31A1.25,1.25,0,0,1,504.72,146.31Z" fill="none" stroke="#003a50" stroke-miterlimit="10"/><path d="M471.58,89.72a12.57,12.57,0,0,1,12.56,12.52V108a23.7,23.7,0,0,0-6.08-.8h-19v-5A12.56,12.56,0,0,1,471.58,89.72Z" fill="none" stroke="#003a50" stroke-miterlimit="10"/><path d="M484.14,154.76v1.36a12.54,12.54,0,1,1-25.08,0v-.56h19A25.59,25.59,0,0,0,484.14,154.76Z" fill="none" stroke="#003a50" stroke-miterlimit="10"/><path d="M430.14,89.72a12.57,12.57,0,0,1,12.56,12.52v5H418.86c-.4,0-.84,0-1.24.08v-5.08A12.54,12.54,0,0,1,430.14,89.72Z" fill="none" stroke="#003a50" stroke-miterlimit="10"/><path d="M417.62,155.48c.4,0,.84.08,1.24.08H442.7v.56a12.54,12.54,0,1,1-25.08,0Z" fill="none" stroke="#003a50" stroke-miterlimit="10"/><path d="M498.66,118.84h6.64a12.54,12.54,0,1,1,0,25.08h-6.64a23.81,23.81,0,0,0,3.56-12.52A24.06,24.06,0,0,0,498.66,118.84Z" fill="none" stroke="#003a50" stroke-miterlimit="10"/><path d="M391.58,118.84h6.68a24.06,24.06,0,0,0-3.56,12.56,23.81,23.81,0,0,0,3.56,12.52h-6.68a12.54,12.54,0,1,1,0-25.08Z" fill="none" stroke="#003a50" stroke-miterlimit="10"/><path d="M418.86,107.24h59.2a23.7,23.7,0,0,1,6.08.8,24.24,24.24,0,0,1,18.08,23.36,23.81,23.81,0,0,1-3.56,12.52,24.19,24.19,0,0,1-14.52,10.84,25.59,25.59,0,0,1-6.08.8h-59.2c-.4,0-.84,0-1.24-.08a24.11,24.11,0,0,1,0-48.16C418,107.28,418.46,107.24,418.86,107.24Z" fill="none" stroke="#003a50" stroke-miterlimit="10"/></g><rect x="360.65" y="460.08" width="52.33" height="113.67" fill="none" stroke="#003a50" stroke-miterlimit="10"/><g clip-path="url(#clip-path)"><path d="M404,469.78H370a2.1,2.1,0,0,0-2.11,2.1v67.63h38.25V471.88A2.1,2.1,0,0,0,404,469.78Z" fill="none" stroke="#003a50" stroke-miterlimit="10"/></g><rect x="367.89" y="525.66" width="38.26" height="13.85" fill="none" stroke="#003a50" stroke-miterlimit="10"/><g clip-path="url(#clip-path)"><path d="M404.34,566H370a2.21,2.21,0,0,1-2.2-2.2V545.32a2.21,2.21,0,0,1,2.2-2.2h34.31a2.21,2.21,0,0,1,2.2,2.2V563.8A2.21,2.21,0,0,1,404.34,566Z" fill="none" stroke="#003a50" stroke-miterlimit="10"/></g><rect x="414.14" y="370.93" width="116.81" height="26.62" fill="none" stroke="#003a50" stroke-miterlimit="10"/><g clip-path="url(#clip-path)"><path d="M517.21,393.78a.79.79,0,0,1-1.49.35,22.57,22.57,0,0,1,0-19.77.78.78,0,0,1,1.41.69,21,21,0,0,0,0,18.39A.66.66,0,0,1,517.21,393.78Z" fill="none" stroke="#003a50" stroke-miterlimit="10"/><path d="M512.86,393.78a.79.79,0,0,1-.44.7.77.77,0,0,1-1-.35,22.48,22.48,0,0,1,0-19.77.78.78,0,0,1,1.41.69,20.91,20.91,0,0,0,0,18.39A.77.77,0,0,1,512.86,393.78Z" fill="none" stroke="#003a50" stroke-miterlimit="10"/><path d="M508.5,393.78a.79.79,0,0,1-1.49.35,22.57,22.57,0,0,1,0-19.77.78.78,0,1,1,1.41.69,20.91,20.91,0,0,0,0,18.39A.66.66,0,0,1,508.5,393.78Z" fill="none" stroke="#003a50" stroke-miterlimit="10"/><path d="M504.14,393.78a.79.79,0,0,1-1.49.35,22.57,22.57,0,0,1,0-19.77.78.78,0,1,1,1.41.69,21,21,0,0,0,0,18.39A.66.66,0,0,1,504.14,393.78Z" fill="none" stroke="#003a50" stroke-miterlimit="10"/><path d="M499.79,393.78a.79.79,0,0,1-.44.7.77.77,0,0,1-1.05-.35,22.48,22.48,0,0,1,0-19.77.78.78,0,0,1,1.41.69,20.91,20.91,0,0,0,0,18.39A.77.77,0,0,1,499.79,393.78Z" fill="none" stroke="#003a50" stroke-miterlimit="10"/><path d="M495.43,393.78a.79.79,0,0,1-1.49.35,22.57,22.57,0,0,1,0-19.77.78.78,0,1,1,1.41.69,20.91,20.91,0,0,0,0,18.39A.66.66,0,0,1,495.43,393.78Z" fill="none" stroke="#003a50" stroke-miterlimit="10"/><path d="M521.57,393.78a.79.79,0,0,1-1.49.35,22.48,22.48,0,0,1,0-19.77.78.78,0,0,1,1.41.69,20.91,20.91,0,0,0,0,18.39A.66.66,0,0,1,521.57,393.78Z" fill="none" stroke="#003a50" stroke-miterlimit="10"/><path d="M525.93,393.78a.79.79,0,0,1-1.5.35,22.57,22.57,0,0,1,0-19.77.79.79,0,0,1,1.42.69,20.91,20.91,0,0,0,0,18.39A.77.77,0,0,1,525.93,393.78Z" fill="none" stroke="#003a50" stroke-miterlimit="10"/></g><line x1="530.54" y1="384.24" x2="414.14" y2="384.24" fill="none" stroke="#003a50" stroke-miterlimit="10"/><g clip-path="url(#clip-path)"><path d="M505.08,512.13a14.78,14.78,0,0,1-15.93-23.38,1.14,1.14,0,1,1,1.78,1.43,12.47,12.47,0,0,0,14.15,19.5Z" fill="none" stroke="#003a50" stroke-miterlimit="10"/><rect x="505.08" y="457.88" width="34.02" height="84.03" rx="3.31" fill="none" stroke="#003a50" stroke-miterlimit="10"/><path d="M535.39,539.36a1.39,1.39,0,0,0,1.39-1.4V461.82a1.4,1.4,0,0,0-2.79,0V538a1.4,1.4,0,0,0,1.4,1.4" fill="none" stroke="#003a50" stroke-miterlimit="10"/><path d="M520.81,471.55a5.51,5.51,0,1,0,0-7.79A5.51,5.51,0,0,0,520.81,471.55Z" fill="none" stroke="#003a50" stroke-miterlimit="10"/><path d="M520.44,471.14c1-.1,2,.29,3-.7,1.46-1.46-.08-3,1.38-4.47s3,.08,4.47-1.38" fill="none" stroke="#003a50" stroke-miterlimit="10"/><path d="M505.08,507.42a10.63,10.63,0,1,1,0-19.59Z" fill="none" stroke="#003a50" stroke-miterlimit="10"/><path d="M244.74,98.43v3.1a39,39,0,0,1-39,39V98.43" fill="none" stroke="#003a50" stroke-miterlimit="10" stroke-width="1.6"/><path d="M244.74,269.1v3.1a39,39,0,0,1-39,39V269.1" fill="none" stroke="#003a50" stroke-miterlimit="10" stroke-width="1.6"/><path d="M302.75,367.76v3.51a44.08,44.08,0,0,0,44.08,44.08V367.76" fill="none" stroke="#003a50" stroke-miterlimit="10" stroke-width="1.6"/><path d="M409.51,367.76v3.51a44.08,44.08,0,0,1-44.08,44.08V367.76" fill="none" stroke="#003a50" stroke-miterlimit="10" stroke-width="1.6"/><path d="M-10.68,218.19v-4.06A51.13,51.13,0,0,1,40.45,163v55.19" fill="none" stroke="#003a50" stroke-miterlimit="10" stroke-width="1.6"/><path d="M56.68,109H52.62A51.13,51.13,0,0,0,1.49,160.14H56.68" fill="none" stroke="#003a50" stroke-miterlimit="10" stroke-width="1.6"/><line x1="158.96" y1="104.81" x2="104.47" y2="104.81" fill="none" stroke="#003a50" stroke-miterlimit="10" stroke-width="1.6"/><rect x="50.9" y="-109.53" width="16.32" height="115.78" fill="#003a50"/><rect x="50.9" y="64.93" width="16.32" height="44.79" fill="#003a50"/><rect x="74.65" y="11.68" width="11.82" height="64.29" fill="#003a50"/><rect x="54.33" y="64.93" width="32.14" height="11.82" fill="#003a50"/><rect x="50.9" y="159.22" width="16.32" height="66" fill="#003a50"/><rect x="39.59" y="211.75" width="131.96" height="16.32" fill="#003a50"/><rect x="157.31" y="211.75" width="16.32" height="380.64" fill="#003a50"/><rect x="50.9" y="-0.04" width="486.82" height="12.6" fill="#003a50"/><rect x="288.22" y="573.31" width="82.83" height="27.12" fill="#003a50"/><rect x="-77.53" y="573.31" width="82.83" height="27.12" fill="#003a50"/><rect x="528.94" y="579.47" width="34.25" height="34.25" fill="#003a50"/><rect x="100.05" y="579.47" width="95.33" height="34.25" fill="#003a50"/><rect x="168.22" y="583.47" width="27.17" height="41.92" fill="#003a50"/><rect x="528.33" y="553.05" width="40" height="60.67" fill="#003a50"/><rect x="523.22" y="315.05" width="9.5" height="61.67" fill="#003a50"/><rect x="523.22" y="145.81" width="9.5" height="76.42" fill="#003a50"/><rect x="551.85" y="600.85" width="25.83" height="23.82" fill="#003a50"/><rect x="529.68" y="132.51" width="39.1" height="94.57" fill="#003a50"/><rect x="533.68" y="201.18" width="39.53" height="25.9" fill="#003a50"/><polygon points="529.68 44.23 529.68 -51.51 579.02 -51.51 567.35 44.23 529.68 44.23" fill="#003a50" fill-rule="evenodd"/><polygon points="-83.15 576.97 12.59 576.97 12.59 625.64 -83.15 614.13 -83.15 576.97" fill="#003a50" fill-rule="evenodd"/><polygon points="284.35 576.97 380.09 576.97 380.09 625.64 284.35 614.13 284.35 576.97" fill="#003a50" fill-rule="evenodd"/><rect x="531.12" y="315.05" width="47" height="95.32" fill="#003a50"/><rect x="211.93" y="-101.51" width="6.38" height="103.38" fill="#003a50"/><rect x="95.97" y="-99.33" width="6.38" height="101.24" fill="#003a50"/><rect x="243.96" y="95.68" width="52.01" height="6.38" fill="#003a50"/><rect x="289.59" y="10.22" width="6.38" height="88.64" fill="#003a50"/><rect x="167.25" y="10.22" width="6.38" height="88.64" fill="#003a50"/><rect x="81.79" y="32.53" width="88.64" height="6.38" fill="#003a50"/><rect x="141.75" y="9.22" width="6.38" height="26.49" fill="#003a50"/><rect x="131.71" y="95.68" width="75" height="6.38" fill="#003a50"/><rect x="59.06" y="95.68" width="35.29" height="6.38" fill="#003a50"/><rect x="167.25" y="167.89" width="6.38" height="52.01" fill="#003a50"/><rect x="63.38" y="185.96" width="108.92" height="6.38" fill="#003a50"/><rect x="114.66" y="188.22" width="6.38" height="33.17" fill="#003a50"/><rect x="167.25" y="167.97" width="128.72" height="6.38" fill="#003a50"/><rect x="167.25" y="266.35" width="39.47" height="6.38" fill="#003a50"/><rect x="243.96" y="266.35" width="48.82" height="6.38" fill="#003a50"/><rect x="290.72" y="365.01" width="12.92" height="6.38" fill="#003a50"/><rect x="345.72" y="365.01" width="20.5" height="6.38" fill="#003a50"/><rect x="408.7" y="365.01" width="126.02" height="6.38" fill="#003a50"/><rect x="353.45" y="368.2" width="6.38" height="211.27" fill="#003a50"/><rect x="290.8" y="167.97" width="6.38" height="203.42" fill="#003a50"/><rect x="50.31" y="225.23" width="6.38" height="25.25" fill="#003a50"/><rect x="70.28" y="225.97" width="6.38" height="24.5" fill="#003a50"/><rect x="52.16" y="244.1" width="24.5" height="6.38" fill="#003a50"/><rect x="50.9" y="1.91" width="5.98" height="81.48" fill="#003a50"/><line x1="263.87" y1="370.23" x2="261.04" y2="370.23" fill="none" stroke="#003a50" stroke-miterlimit="10"/><line x1="255.84" y1="370.23" x2="206.49" y2="370.23" fill="none" stroke="#003a50" stroke-miterlimit="10" stroke-dasharray="5.2 5.2"/><line x1="203.9" y1="370.23" x2="201.06" y2="370.23" fill="none" stroke="#003a50" stroke-miterlimit="10"/><line x1="-9.41" y1="318.23" x2="45.2" y2="318.23" fill="none" stroke="#003a50" stroke-miterlimit="10" stroke-dasharray="5.75 5.75"/><polyline points="48.07 318.23 50.91 318.23 50.91 315.39" fill="none" stroke="#003a50" stroke-miterlimit="10"/><line x1="50.9" y1="309.55" x2="50.9" y2="254.01" fill="none" stroke="#003a50" stroke-miterlimit="10" stroke-dasharray="5.85 5.85"/><line x1="50.9" y1="251.09" x2="50.9" y2="248.25" fill="none" stroke="#003a50" stroke-miterlimit="10"/><line x1="295.25" y1="102.01" x2="295.25" y2="104.84" fill="none" stroke="#003a50" stroke-miterlimit="10"/><line x1="295.25" y1="110.33" x2="295.25" y2="162.46" fill="none" stroke="#003a50" stroke-miterlimit="10" stroke-dasharray="5.49 5.49"/><line x1="295.25" y1="165.21" x2="295.25" y2="168.04" fill="none" stroke="#003a50" stroke-miterlimit="10"/><rect x="64.28" y="65.31" width="29.67" height="30.36" fill="none" stroke="#003a50" stroke-miterlimit="10" stroke-width="0.6"/></g><g clip-path="url(#clip-path)"><path d="M417.08,418.36l-2.49,1.95v-2.24l2.73-2.27h1.86v11.91h-2.1Z" fill="#003a50"/><path d="M431.58,427.71h-9.94v-1.56a2.8,2.8,0,0,1,.58-1.74,4.12,4.12,0,0,1,1.45-1.2c.5-.25,1.12-.54,1.87-.86l1.87-.78a4.12,4.12,0,0,0,1.45-.91,1.8,1.8,0,0,0,.57-1.3c0-1.26-.89-1.89-2.66-1.89s-2.68.72-2.68,2.16V420H422v-.41a3.59,3.59,0,0,1,1.27-3,5.34,5.34,0,0,1,3.51-1,5.65,5.65,0,0,1,3.51,1,3.27,3.27,0,0,1,1.27,2.75,3.14,3.14,0,0,1-.55,1.83,4.42,4.42,0,0,1-1.41,1.31q-.9.51-1.83.93c-.63.27-1.24.52-1.83.74a5.11,5.11,0,0,0-1.4.75,1.22,1.22,0,0,0-.57,1h7.63Z" fill="#003a50"/><path d="M433.68,427.58a1.15,1.15,0,0,1,0-1.61,1.4,1.4,0,0,1,1.73,0,1.15,1.15,0,0,1,0,1.61,1.4,1.4,0,0,1-1.73,0Z" fill="#003a50"/><path d="M446.26,427a7.73,7.73,0,0,1-7.37,0,3,3,0,0,1-1.37-2.56,2.7,2.7,0,0,1,.26-1.16,2.41,2.41,0,0,1,.65-.86,4.14,4.14,0,0,1,1.4-.77l.26-.07v-.09a3.11,3.11,0,0,1-.77-.29,2.61,2.61,0,0,1-.66-.44,2.2,2.2,0,0,1-.54-.75,2.45,2.45,0,0,1-.22-1,2.81,2.81,0,0,1,1.25-2.39,7,7,0,0,1,6.85,0,2.84,2.84,0,0,1,1.25,2.39,2.62,2.62,0,0,1-.22,1,1.88,1.88,0,0,1-.56.74,3.59,3.59,0,0,1-1.19.68l-.23.05v.09l.29.07a6.35,6.35,0,0,1,.62.27,3.79,3.79,0,0,1,.77.5,3,3,0,0,1,.62.82,2.71,2.71,0,0,1,.27,1.2A3,3,0,0,1,446.26,427Zm-5.79-1.36a4.79,4.79,0,0,0,4.2,0,1.59,1.59,0,0,0,0-2.69,4.93,4.93,0,0,0-4.2,0,1.58,1.58,0,0,0,0,2.68Zm-.37-6.52a1.38,1.38,0,0,0,.65,1.2,4.07,4.07,0,0,0,3.64,0,1.43,1.43,0,0,0,0-2.4,4,4,0,0,0-3.62,0A1.38,1.38,0,0,0,440.1,419.07Z" fill="#003a50"/><path d="M263.2,418.34l-2.48,2v-2.24l2.73-2.26h1.86v11.9H263.2Z" fill="#003a50"/><path d="M277.7,427.69h-9.93v-1.56a2.8,2.8,0,0,1,.58-1.74,4,4,0,0,1,1.45-1.2c.5-.25,1.12-.54,1.87-.86s1.32-.56,1.87-.77a4.14,4.14,0,0,0,1.45-.92,1.78,1.78,0,0,0,.57-1.3c0-1.26-.89-1.88-2.66-1.88s-2.68.71-2.68,2.15V420h-2.11v-.41a3.62,3.62,0,0,1,1.26-3,5.39,5.39,0,0,1,3.52-1,5.65,5.65,0,0,1,3.51,1,3.29,3.29,0,0,1,1.27,2.75,3.12,3.12,0,0,1-.56,1.83,4.18,4.18,0,0,1-1.4,1.31q-.9.51-1.83.93t-1.83.75a5.38,5.38,0,0,0-1.4.74,1.25,1.25,0,0,0-.57,1h7.62Z" fill="#003a50"/><path d="M279.81,427.56a1,1,0,0,1-.33-.8,1,1,0,0,1,.33-.81,1.4,1.4,0,0,1,1.73,0,1,1,0,0,1,.32.81,1,1,0,0,1-.32.8,1.4,1.4,0,0,1-1.73,0Z" fill="#003a50"/><path d="M286.91,427.69h-2.35l5.42-10h-6.93v-1.87h9.29v1.87Z" fill="#003a50"/><path d="M222.08,338.29h-5.82v-1.85h8.86v1.85l-4.53,2.65V341h1.28a3.9,3.9,0,0,1,2.79,1,3.5,3.5,0,0,1,1.06,2.67,3.35,3.35,0,0,1-1.33,2.82,6.93,6.93,0,0,1-7.24,0,3.35,3.35,0,0,1-1.33-2.85v-.33h2.11v.33c0,1.36.94,2,2.84,2s2.84-.66,2.84-2-1-2-2.84-2H217.5V341l4.58-2.69Z" fill="#003a50"/><path d="M227.82,348.22a1,1,0,0,1-.33-.81,1,1,0,0,1,.33-.8,1.23,1.23,0,0,1,.87-.3,1.2,1.2,0,0,1,.86.3,1,1,0,0,1,.33.8,1,1,0,0,1-.33.81,1.2,1.2,0,0,1-.86.3A1.23,1.23,0,0,1,227.82,348.22Z" fill="#003a50"/><path d="M232,345h2.21s0,.08,0,.18a2.72,2.72,0,0,0,.23.44,2.67,2.67,0,0,0,.41.48,2.19,2.19,0,0,0,.76.42,3.13,3.13,0,0,0,1.05.16,2.66,2.66,0,0,0,2.24-1.06,4.32,4.32,0,0,0,.8-2.71h-.05a2.55,2.55,0,0,1-.44.47,3.3,3.3,0,0,1-.6.4,4.36,4.36,0,0,1-.95.32,5.58,5.58,0,0,1-1.23.13,4.92,4.92,0,0,1-3.36-1.13,3.73,3.73,0,0,1,.05-5.72,5.49,5.49,0,0,1,3.6-1.1,4.81,4.81,0,0,1,3.87,1.54,6.4,6.4,0,0,1,1.32,4.27v.41a6.64,6.64,0,0,1-1.37,4.31,4.69,4.69,0,0,1-3.88,1.71,5.91,5.91,0,0,1-2.17-.38,3.85,3.85,0,0,1-1.48-.94A3.33,3.33,0,0,1,232,345Zm2.78-3.16a3.58,3.58,0,0,0,3.94,0,1.86,1.86,0,0,0,.78-1.57,1.88,1.88,0,0,0-.77-1.58,3.27,3.27,0,0,0-2-.58,3.23,3.23,0,0,0-2,.58,1.88,1.88,0,0,0-.78,1.58A1.85,1.85,0,0,0,234.73,341.84Z" fill="#003a50"/><path d="M220.72,243.94H214.9V242.1h8.86v1.84l-4.53,2.65v.07h1.28a3.9,3.9,0,0,1,2.79,1,3.53,3.53,0,0,1,1.06,2.67,3.35,3.35,0,0,1-1.33,2.82,7,7,0,0,1-7.24,0,3.36,3.36,0,0,1-1.33-2.86V250h2.11v.32c0,1.37.94,2,2.84,2s2.84-.67,2.84-2-.95-2-2.84-2h-3.27v-1.67l4.58-2.68Z" fill="#003a50"/><path d="M226.46,253.88a1,1,0,0,1-.33-.81,1,1,0,0,1,.33-.81,1.44,1.44,0,0,1,1.73,0,1,1,0,0,1,.33.81,1,1,0,0,1-.33.81,1.44,1.44,0,0,1-1.73,0Z" fill="#003a50"/><path d="M233.57,254h-2.35l5.41-10H229.7V242.1H239V244Z" fill="#003a50"/><path d="M340.54,163h-9.93V161.4a2.74,2.74,0,0,1,.58-1.74,4,4,0,0,1,1.44-1.2c.5-.25,1.12-.54,1.87-.86s1.32-.56,1.88-.77a4.09,4.09,0,0,0,1.44-.92,1.8,1.8,0,0,0,.58-1.3c0-1.26-.89-1.88-2.67-1.88s-2.67.71-2.67,2.15v.41H331v-.41a3.62,3.62,0,0,1,1.26-3,5.34,5.34,0,0,1,3.51-1,5.61,5.61,0,0,1,3.51,1,3.29,3.29,0,0,1,1.27,2.75,3.17,3.17,0,0,1-.55,1.84,4.29,4.29,0,0,1-1.41,1.3c-.59.34-1.21.65-1.83.93s-1.24.53-1.83.75a5.55,5.55,0,0,0-1.4.74,1.25,1.25,0,0,0-.57,1h7.63Z" fill="#003a50"/><path d="M345.84,163h-2.35l5.41-10H342v-1.87h9.29v1.87Z" fill="#003a50"/><path d="M352.69,162.83a1,1,0,0,1-.33-.8,1,1,0,0,1,.33-.81,1.4,1.4,0,0,1,1.73,0,1,1,0,0,1,.33.81,1,1,0,0,1-.33.8,1.4,1.4,0,0,1-1.73,0Z" fill="#003a50"/><path d="M362,155a5,5,0,0,1,3.34,1.07,4.18,4.18,0,0,1,0,6,5.39,5.39,0,0,1-3.55,1.08,5.79,5.79,0,0,1-3.56-1,3.16,3.16,0,0,1-1.29-2.68H359a1.55,1.55,0,0,0,.7,1.33,3.61,3.61,0,0,0,2,.49,3.13,3.13,0,0,0,2-.58,2,2,0,0,0,.71-1.68,2.06,2.06,0,0,0-.74-1.71,3.31,3.31,0,0,0-2.07-.58,3.6,3.6,0,0,0-1.92.42,1.93,1.93,0,0,0-.7.64l0,.12h-2.11v-6.87h8.88v1.84H359v3h0a2.22,2.22,0,0,1,.4-.31,3.11,3.11,0,0,1,.55-.27A5.6,5.6,0,0,1,362,155Z" fill="#003a50"/><path d="M217.74,77.94h-5.82V76.1h8.86v1.84l-4.52,2.65v.07h1.28a3.9,3.9,0,0,1,2.79,1,3.52,3.52,0,0,1,1,2.67,3.32,3.32,0,0,1-1.33,2.82,6.93,6.93,0,0,1-7.24,0,3.35,3.35,0,0,1-1.33-2.85V84h2.11v.33c0,1.36.95,2,2.84,2s2.84-.67,2.84-2-1-2-2.84-2h-3.26V80.69L217.74,78Z" fill="#003a50"/><path d="M223.48,87.88a1.17,1.17,0,0,1,0-1.61,1.41,1.41,0,0,1,1.74,0,1.17,1.17,0,0,1,0,1.61,1.41,1.41,0,0,1-1.74,0Z" fill="#003a50"/><path d="M233.59,77.94h-5.82V76.1h8.86v1.84l-4.53,2.65v.07h1.28a3.9,3.9,0,0,1,2.79,1,3.53,3.53,0,0,1,1.06,2.67,3.35,3.35,0,0,1-1.33,2.82,6.93,6.93,0,0,1-7.24,0,3.35,3.35,0,0,1-1.33-2.85V84h2.11v.33c0,1.36.94,2,2.84,2s2.84-.67,2.84-2-1-2-2.84-2H229V80.69L233.59,78Z" fill="#003a50"/><path d="M108.92,155a5,5,0,0,1,3.34,1.07,4.18,4.18,0,0,1,0,6,5.39,5.39,0,0,1-3.55,1.08,5.77,5.77,0,0,1-3.56-1,3.16,3.16,0,0,1-1.29-2.68h2.11a1.53,1.53,0,0,0,.7,1.33,3.61,3.61,0,0,0,2,.49,3.15,3.15,0,0,0,2-.58,2,2,0,0,0,.7-1.68,2.05,2.05,0,0,0-.73-1.71,3.31,3.31,0,0,0-2.07-.58,3.58,3.58,0,0,0-1.92.42,1.84,1.84,0,0,0-.7.64l0,.12h-2.11v-6.87h8.88v1.84h-6.77v3h0a2.22,2.22,0,0,1,.4-.31,3.11,3.11,0,0,1,.55-.27A5.6,5.6,0,0,1,108.92,155Z" fill="#003a50"/><path d="M115.62,162.83a1,1,0,0,1-.32-.8,1.07,1.07,0,0,1,.32-.81,1.41,1.41,0,0,1,1.74,0,1.07,1.07,0,0,1,.32.81,1,1,0,0,1-.32.8,1.41,1.41,0,0,1-1.74,0Z" fill="#003a50"/><path d="M122.73,163h-2.35l5.41-10h-6.92v-1.87h9.28v1.87Z" fill="#003a50"/><path d="M105.2,78.66l-2.48,2V78.37l2.73-2.27h1.86V88H105.2Z" fill="#003a50"/><path d="M109.83,87.88a1.17,1.17,0,0,1,0-1.61,1.25,1.25,0,0,1,.88-.3,1.22,1.22,0,0,1,.86.3,1.17,1.17,0,0,1,0,1.61,1.22,1.22,0,0,1-.86.3A1.25,1.25,0,0,1,109.83,87.88Z" fill="#003a50"/><path d="M116.94,88h-2.35L120,78h-6.93V76.1h9.29V78Z" fill="#003a50"/><path d="M400.25,598l-1.75,1.38v-1.58l1.93-1.6h1.31v8.4h-1.49Z" fill="#003a50"/><path d="M403.52,604.47a.73.73,0,0,1-.23-.57.75.75,0,0,1,.23-.57,1,1,0,0,1,1.23,0,.74.74,0,0,1,.22.57.72.72,0,0,1-.22.57,1,1,0,0,1-1.23,0Z" fill="#003a50"/><path d="M407.33,603.48a5.2,5.2,0,0,1,0-6.24,3.63,3.63,0,0,1,2.88-1.2,3.59,3.59,0,0,1,2.86,1.2,5.2,5.2,0,0,1,0,6.24,3.59,3.59,0,0,1-2.86,1.2A3.63,3.63,0,0,1,407.33,603.48Zm4.61-1a4,4,0,0,0,0-4.28,2.21,2.21,0,0,0-3.47,0,4,4,0,0,0,0,4.28,2.21,2.21,0,0,0,3.47,0Z" fill="#003a50"/><path d="M211.13,603.48a5.16,5.16,0,0,1,0-6.24,4,4,0,0,1,5.73,0,5.16,5.16,0,0,1,0,6.24,4,4,0,0,1-5.73,0Zm4.6-1a4,4,0,0,0,0-4.28,2.21,2.21,0,0,0-3.47,0,4,4,0,0,0,0,4.28,2.21,2.21,0,0,0,3.47,0Z" fill="#003a50"/><path d="M219.45,604.47a.72.72,0,0,1-.22-.57.74.74,0,0,1,.22-.57.9.9,0,0,1,.62-.21.87.87,0,0,1,.61.21.75.75,0,0,1,.23.57.73.73,0,0,1-.23.57.87.87,0,0,1-.61.21A.9.9,0,0,1,219.45,604.47Z" fill="#003a50"/><path d="M229.06,598.53H227.5s0,0,0-.13-.08-.18-.15-.31a1.87,1.87,0,0,0-.28-.35,1.25,1.25,0,0,0-.5-.29,2.25,2.25,0,0,0-.71-.11,1.78,1.78,0,0,0-1.52.72,3.12,3.12,0,0,0-.54,1.9h.05a1,1,0,0,1,.31-.31,3.19,3.19,0,0,1,.42-.26,3.33,3.33,0,0,1,.67-.21,4.12,4.12,0,0,1,.86-.09,3.57,3.57,0,0,1,2.38.78,2.49,2.49,0,0,1,.92,2,2.52,2.52,0,0,1-1,2,3.89,3.89,0,0,1-2.54.78,3.38,3.38,0,0,1-2.73-1.09,4.5,4.5,0,0,1-.93-3v-.29a4.83,4.83,0,0,1,.93-3,3.16,3.16,0,0,1,2.68-1.21,3.93,3.93,0,0,1,1.5.27,2.61,2.61,0,0,1,1,.66A2.39,2.39,0,0,1,229.06,598.53Zm-1.77,2.22a2.21,2.21,0,0,0-1.39-.41,2.26,2.26,0,0,0-1.4.41,1.4,1.4,0,0,0,0,2.22,2.6,2.6,0,0,0,2.8,0,1.32,1.32,0,0,0,.54-1.11A1.3,1.3,0,0,0,227.29,600.75Z" fill="#003a50"/><path d="M25.6,603.48a5.16,5.16,0,0,1,0-6.24,3.59,3.59,0,0,1,2.87-1.2,3.59,3.59,0,0,1,2.86,1.2,5.16,5.16,0,0,1,0,6.24,3.59,3.59,0,0,1-2.86,1.2A3.59,3.59,0,0,1,25.6,603.48Zm4.6-1a4,4,0,0,0,0-4.28,2.21,2.21,0,0,0-3.47,0,4,4,0,0,0,0,4.28,2.21,2.21,0,0,0,3.47,0Z" fill="#003a50"/><path d="M33.92,604.47a.73.73,0,0,1-.23-.57.75.75,0,0,1,.23-.57,1,1,0,0,1,1.23,0,.75.75,0,0,1,.23.57.73.73,0,0,1-.23.57,1,1,0,0,1-1.23,0Z" fill="#003a50"/><path d="M43.53,598.53H42s0,0,0-.13a2.34,2.34,0,0,0-.16-.31,1.49,1.49,0,0,0-.27-.35,1.32,1.32,0,0,0-.5-.29,2.3,2.3,0,0,0-.71-.11,1.78,1.78,0,0,0-1.52.72,3.12,3.12,0,0,0-.54,1.9h0a1.28,1.28,0,0,1,.31-.31,3.28,3.28,0,0,1,.43-.26,3.14,3.14,0,0,1,.67-.21,4.12,4.12,0,0,1,.86-.09,3.57,3.57,0,0,1,2.38.78,2.49,2.49,0,0,1,.92,2,2.52,2.52,0,0,1-1,2,3.91,3.91,0,0,1-2.54.78,3.41,3.41,0,0,1-2.74-1.09,4.5,4.5,0,0,1-.93-3v-.29a4.83,4.83,0,0,1,.93-3A3.2,3.2,0,0,1,40.31,596a3.93,3.93,0,0,1,1.5.27,2.61,2.61,0,0,1,1,.66A2.44,2.44,0,0,1,43.53,598.53Zm-1.77,2.22a2.58,2.58,0,0,0-2.79,0A1.4,1.4,0,0,0,39,603a2.22,2.22,0,0,0,1.4.41,2.26,2.26,0,0,0,1.4-.41,1.32,1.32,0,0,0,.54-1.11A1.3,1.3,0,0,0,41.76,600.75Z" fill="#003a50"/><path d="M556.4,77.48a5.19,5.19,0,0,1-6.23,0,4,4,0,0,1,0-5.73,5.15,5.15,0,0,1,6.23,0,4,4,0,0,1,0,5.73Zm-1-4.6a4,4,0,0,0-4.28,0,2.22,2.22,0,0,0,0,3.46,3.95,3.95,0,0,0,4.28,0,2.2,2.2,0,0,0,0-3.46Z" fill="#003a50"/><path d="M557.39,69.16a.71.71,0,0,1-.57.22.74.74,0,0,1-.57-.22.9.9,0,0,1-.21-.62.87.87,0,0,1,.21-.61.75.75,0,0,1,.57-.23.72.72,0,0,1,.57.23.87.87,0,0,1,.21.61A.9.9,0,0,1,557.39,69.16Z" fill="#003a50"/><path d="M551.45,59.55V61.1l-.12,0a2.1,2.1,0,0,0-.31.15,1.93,1.93,0,0,0-.36.28,1.24,1.24,0,0,0-.28.5,2,2,0,0,0-.12.71,1.78,1.78,0,0,0,.73,1.52,3.09,3.09,0,0,0,1.89.54v0a1.11,1.11,0,0,1-.31-.31,3.09,3.09,0,0,1-.25-.42,2.77,2.77,0,0,1-.22-.67,4.12,4.12,0,0,1-.09-.86,3.51,3.51,0,0,1,.79-2.38,2.44,2.44,0,0,1,2-.92,2.51,2.51,0,0,1,2.05,1,3.89,3.89,0,0,1,.78,2.54,3.38,3.38,0,0,1-1.09,2.73,4.48,4.48,0,0,1-3,.93h-.29a4.85,4.85,0,0,1-3-.93A3.19,3.19,0,0,1,549,62.77a3.93,3.93,0,0,1,.27-1.5,2.73,2.73,0,0,1,.66-1A2.42,2.42,0,0,1,551.45,59.55Zm2.22,1.77a2.56,2.56,0,0,0,0,2.78,1.3,1.3,0,0,0,1.11.56,1.32,1.32,0,0,0,1.11-.55,2.54,2.54,0,0,0,0-2.8,1.32,1.32,0,0,0-1.11-.55A1.3,1.3,0,0,0,553.67,61.32Z" fill="#003a50"/><path d="M556.4,260.9a5.19,5.19,0,0,1-6.23,0,4,4,0,0,1,0-5.73,5.15,5.15,0,0,1,6.23,0,4,4,0,0,1,0,5.73Zm-1-4.6a4,4,0,0,0-4.28,0,2.22,2.22,0,0,0,0,3.46,3.95,3.95,0,0,0,4.28,0,2.2,2.2,0,0,0,0-3.46Z" fill="#003a50"/><path d="M557.39,252.58a.71.71,0,0,1-.57.22.74.74,0,0,1-.57-.22A.9.9,0,0,1,556,252a.87.87,0,0,1,.21-.61.75.75,0,0,1,.57-.23.72.72,0,0,1,.57.23.87.87,0,0,1,.21.61A.9.9,0,0,1,557.39,252.58Z" fill="#003a50"/><path d="M551.45,243v1.55l-.12,0a2.1,2.1,0,0,0-.31.15,1.93,1.93,0,0,0-.36.28,1.24,1.24,0,0,0-.28.5,2,2,0,0,0-.12.71,1.78,1.78,0,0,0,.73,1.52,3.09,3.09,0,0,0,1.89.54v-.05a1.11,1.11,0,0,1-.31-.31,3.09,3.09,0,0,1-.25-.42,2.71,2.71,0,0,1-.22-.68,4,4,0,0,1-.09-.85,3.51,3.51,0,0,1,.79-2.38,2.44,2.44,0,0,1,2-.92,2.51,2.51,0,0,1,2.05,1,3.89,3.89,0,0,1,.78,2.54,3.38,3.38,0,0,1-1.09,2.73,4.48,4.48,0,0,1-3,.93h-.29a4.85,4.85,0,0,1-3-.93,3.19,3.19,0,0,1-1.21-2.68,3.93,3.93,0,0,1,.27-1.5,2.73,2.73,0,0,1,.66-1A2.42,2.42,0,0,1,551.45,243Zm2.22,1.77a2.56,2.56,0,0,0,0,2.78,1.3,1.3,0,0,0,1.11.56,1.32,1.32,0,0,0,1.11-.55,2.54,2.54,0,0,0,0-2.8,1.32,1.32,0,0,0-1.11-.55A1.3,1.3,0,0,0,553.67,244.74Z" fill="#003a50"/><path d="M550.89,533l1.37,1.75h-1.58l-1.6-1.93v-1.31h8.41V533Z" fill="#003a50"/><path d="M557.39,529.68a.72.72,0,0,1-.57.23.76.76,0,0,1-.57-.23.87.87,0,0,1-.21-.61.85.85,0,0,1,.21-.61.73.73,0,0,1,.57-.23.69.69,0,0,1,.57.23.85.85,0,0,1,.21.61A.87.87,0,0,1,557.39,529.68Z" fill="#003a50"/><path d="M556.4,525.87a5.19,5.19,0,0,1-6.23,0,4,4,0,0,1,0-5.74,5.19,5.19,0,0,1,6.23,0,4,4,0,0,1,0,5.74Zm-1-4.61a3.48,3.48,0,0,0-2.14-.61,3.52,3.52,0,0,0-2.14.61,2.23,2.23,0,0,0,0,3.47,4,4,0,0,0,4.28,0,2,2,0,0,0,.84-1.73A2.05,2.05,0,0,0,555.42,521.26Z" fill="#003a50"/><path d="M8.74,277.64H-1.19v-1.56a2.85,2.85,0,0,1,.58-1.75,3.91,3.91,0,0,1,1.45-1.19c.5-.26,1.12-.55,1.87-.87s1.32-.55,1.87-.77A4.12,4.12,0,0,0,6,270.59a1.81,1.81,0,0,0,.57-1.31c0-1.25-.89-1.88-2.66-1.88s-2.68.72-2.68,2.16v.4H-.85v-.4a3.64,3.64,0,0,1,1.26-3,5.45,5.45,0,0,1,3.52-1,5.72,5.72,0,0,1,3.51,1,3.29,3.29,0,0,1,1.27,2.75,3.17,3.17,0,0,1-.56,1.84,4.16,4.16,0,0,1-1.4,1.3,17.49,17.49,0,0,1-1.83.93q-.94.42-1.83.75a5.11,5.11,0,0,0-1.4.75,1.22,1.22,0,0,0-.57.95H8.74Z" fill="#003a50"/><path d="M10.84,277.51a1,1,0,0,1-.32-.81,1.07,1.07,0,0,1,.32-.81,1.25,1.25,0,0,1,.88-.29,1.21,1.21,0,0,1,.86.29,1,1,0,0,1,.32.81,1,1,0,0,1-.32.81,1.26,1.26,0,0,1-.86.29A1.3,1.3,0,0,1,10.84,277.51Z" fill="#003a50"/><path d="M16.25,276.1a7.33,7.33,0,0,1,0-8.83,5.1,5.1,0,0,1,4.07-1.71,5.08,5.08,0,0,1,4.06,1.71,7.33,7.33,0,0,1,0,8.83,5.07,5.07,0,0,1-4.06,1.7A5.09,5.09,0,0,1,16.25,276.1Zm6.53-1.39a5,5,0,0,0,.87-3,5,5,0,0,0-.87-3,2.92,2.92,0,0,0-2.46-1.18,2.89,2.89,0,0,0-2.46,1.18,5,5,0,0,0-.88,3,5,5,0,0,0,.88,3,2.85,2.85,0,0,0,2.46,1.19A2.88,2.88,0,0,0,22.78,274.71Z" fill="#003a50"/><path d="M-.88,426.88a6.43,6.43,0,0,1-3.68.93,6.47,6.47,0,0,1-3.68-.93,2.94,2.94,0,0,1-1.37-2.56,2.66,2.66,0,0,1,.25-1.16,2.43,2.43,0,0,1,.66-.86,3.94,3.94,0,0,1,1.39-.77l.26-.07v-.09a3.51,3.51,0,0,1-.76-.29,2.88,2.88,0,0,1-.67-.44,2.15,2.15,0,0,1-.54-.76,2.38,2.38,0,0,1-.22-1A2.81,2.81,0,0,1-8,416.47a5.75,5.75,0,0,1,3.43-.9,5.84,5.84,0,0,1,3.43.9,2.82,2.82,0,0,1,1.24,2.38,2.5,2.5,0,0,1-.22,1,2,2,0,0,1-.55.74,3.72,3.72,0,0,1-1.2.68l-.22.05v.09l.28.07a4.76,4.76,0,0,1,.62.26,4.79,4.79,0,0,1,.78.51,2.82,2.82,0,0,1,.61.82,2.71,2.71,0,0,1,.27,1.2A2.94,2.94,0,0,1-.88,426.88Zm-5.79-1.35a3.85,3.85,0,0,0,2.11.48,4,4,0,0,0,2.1-.47,1.52,1.52,0,0,0,.74-1.35,1.53,1.53,0,0,0-.74-1.35,4,4,0,0,0-2.1-.46,4,4,0,0,0-2.11.46,1.52,1.52,0,0,0-.73,1.35A1.5,1.5,0,0,0-6.67,425.53ZM-7,419a1.35,1.35,0,0,0,.64,1.19,3.25,3.25,0,0,0,1.83.44,3.24,3.24,0,0,0,1.82-.44A1.35,1.35,0,0,0-2.1,419a1.38,1.38,0,0,0-.65-1.2,3.25,3.25,0,0,0-1.81-.43,3.29,3.29,0,0,0-1.82.43A1.38,1.38,0,0,0-7,419Z" fill="#003a50"/><path d="M2.59,427.52a1,1,0,0,1-.32-.81,1.07,1.07,0,0,1,.32-.81,1.3,1.3,0,0,1,.88-.29,1.26,1.26,0,0,1,.86.29,1,1,0,0,1,.32.81,1,1,0,0,1-.32.81,1.26,1.26,0,0,1-.86.29A1.3,1.3,0,0,1,2.59,427.52Z" fill="#003a50"/><path d="M11.88,419.67a5,5,0,0,1,3.34,1.06,4.19,4.19,0,0,1,0,6,5.41,5.41,0,0,1-3.55,1.07,5.77,5.77,0,0,1-3.56-1,3.15,3.15,0,0,1-1.29-2.68H8.89a1.51,1.51,0,0,0,.7,1.33,3.53,3.53,0,0,0,2,.49,3.15,3.15,0,0,0,2-.57,2.06,2.06,0,0,0,.7-1.69,2,2,0,0,0-.73-1.7,3.25,3.25,0,0,0-2.07-.58,3.65,3.65,0,0,0-1.92.41,1.92,1.92,0,0,0-.7.64l0,.13H6.78v-6.88h8.88v1.84H8.89v3h0a1.91,1.91,0,0,1,.4-.31,3.94,3.94,0,0,1,.55-.26A5.6,5.6,0,0,1,11.88,419.67Z" fill="#003a50"/></g></svg>