<svg id="Слой_1" data-name="Слой 1" xmlns="http://www.w3.org/2000/svg" xmlns:xlink="http://www.w3.org/1999/xlink" viewBox="0 0 600.95 685.98"><defs><clipPath id="clip-path"><polygon points="0 0.99 0 381.12 18.27 381.12 18.27 650.61 100.29 650.61 100.29 685.98 599.81 685.98 599.81 0.99 0 0.99" fill="none"/></clipPath></defs><path d="M129.28,686H548.93v-2.69ZM74,648.54v2.07h26.34V686h.93V648.54Z" fill="#fff"/><polygon points="8.88 48.38 8.88 366.5 85.03 370.28 85.03 436.48 79.87 644.34 106.56 642.97 110.26 674.38 549.14 671.67 546.98 352.66 546.98 281.73 546.98 48.38 8.88 48.38" fill="#fff"/><rect y="50.04" width="1.32" height="318.54" fill="#fff"/><g clip-path="url(#clip-path)"><rect x="-543.56" y="26.73" width="1115.44" height="2194.74" fill="none" stroke="#003a50" stroke-miterlimit="10"/><polygon points="-518.74 1112.44 -518.74 2198.51 547.73 2198.51 547.73 50.64 -518.74 50.48 -518.74 1043.64 -518.74 1112.44" fill="none" stroke="#003a50" stroke-miterlimit="10"/></g><rect x="28.95" y="36.71" width="87.83" height="4.55" fill="#fff"/><rect x="28.95" y="36.71" width="87.83" height="4.55" fill="none" stroke="#003a50" stroke-miterlimit="10"/><line x1="116.78" y1="38.98" x2="28.95" y2="38.98" fill="none" stroke="#003a50" stroke-miterlimit="10"/><rect x="112.35" y="36.71" width="4.43" height="4.55" fill="#fff"/><rect x="112.35" y="36.71" width="4.43" height="4.55" fill="none" stroke="#003a50" stroke-miterlimit="10"/><rect x="28.95" y="36.71" width="4.44" height="4.55" fill="#fff"/><rect x="28.95" y="36.71" width="4.44" height="4.55" fill="none" stroke="#003a50" stroke-miterlimit="10"/><rect x="70.65" y="36.71" width="4.43" height="4.55" fill="#fff"/><rect x="70.65" y="36.71" width="4.43" height="4.55" fill="none" stroke="#003a50" stroke-miterlimit="10"/><rect x="212.35" y="36.71" width="87.01" height="4.55" fill="#fff"/><rect x="212.35" y="36.71" width="87.01" height="4.55" fill="none" stroke="#003a50" stroke-miterlimit="10"/><line x1="299.36" y1="38.98" x2="212.35" y2="38.98" fill="none" stroke="#003a50" stroke-miterlimit="10"/><rect x="294.96" y="36.71" width="4.39" height="4.55" fill="#fff"/><rect x="294.96" y="36.71" width="4.39" height="4.55" fill="none" stroke="#003a50" stroke-miterlimit="10"/><rect x="212.35" y="36.71" width="4.39" height="4.55" fill="#fff"/><rect x="212.35" y="36.71" width="4.39" height="4.55" fill="none" stroke="#003a50" stroke-miterlimit="10"/><rect x="253.66" y="36.71" width="4.39" height="4.55" fill="#fff"/><rect x="253.66" y="36.71" width="4.39" height="4.55" fill="none" stroke="#003a50" stroke-miterlimit="10"/><rect x="395.66" y="36.71" width="88.31" height="4.55" fill="#fff"/><rect x="395.66" y="36.71" width="88.31" height="4.55" fill="none" stroke="#003a50" stroke-miterlimit="10"/><line x1="483.98" y1="38.98" x2="395.66" y2="38.98" fill="none" stroke="#003a50" stroke-miterlimit="10"/><rect x="479.52" y="36.71" width="4.46" height="4.55" fill="#fff"/><rect x="479.52" y="36.71" width="4.46" height="4.55" fill="none" stroke="#003a50" stroke-miterlimit="10"/><rect x="395.66" y="36.71" width="4.46" height="4.55" fill="#fff"/><rect x="395.66" y="36.71" width="4.46" height="4.55" fill="none" stroke="#003a50" stroke-miterlimit="10"/><rect x="437.6" y="36.71" width="4.46" height="4.55" fill="#fff"/><rect x="437.6" y="36.71" width="4.46" height="4.55" fill="none" stroke="#003a50" stroke-miterlimit="10"/><rect x="558.65" y="562.3" width="4.56" height="85.76" fill="#fff"/><rect x="558.65" y="562.3" width="4.56" height="85.76" fill="none" stroke="#003a50" stroke-miterlimit="10"/><line x1="560.93" y1="648.06" x2="560.93" y2="562.3" fill="none" stroke="#003a50" stroke-miterlimit="10"/><rect x="558.65" y="643.73" width="4.56" height="4.33" fill="#fff"/><rect x="558.65" y="643.73" width="4.56" height="4.33" fill="none" stroke="#003a50" stroke-miterlimit="10"/><rect x="558.65" y="562.3" width="4.56" height="4.33" fill="#fff"/><rect x="558.65" y="562.3" width="4.56" height="4.33" fill="none" stroke="#003a50" stroke-miterlimit="10"/><rect x="558.65" y="603.01" width="4.56" height="4.33" fill="#fff"/><rect x="558.65" y="603.01" width="4.56" height="4.33" fill="none" stroke="#003a50" stroke-miterlimit="10"/><rect x="558.65" y="50.41" width="4.56" height="139.42" fill="#fff"/><rect x="558.65" y="50.41" width="4.56" height="139.42" fill="none" stroke="#003a50" stroke-miterlimit="10"/><line x1="560.93" y1="50.41" x2="560.93" y2="189.84" fill="none" stroke="#003a50" stroke-miterlimit="10"/><rect x="558.65" y="84.16" width="4.56" height="4.46" fill="#fff"/><rect x="558.65" y="84.16" width="4.56" height="4.46" fill="none" stroke="#003a50" stroke-miterlimit="10"/><rect x="558.65" y="117.9" width="4.56" height="4.46" fill="#fff"/><rect x="558.65" y="117.9" width="4.56" height="4.46" fill="none" stroke="#003a50" stroke-miterlimit="10"/><rect x="558.65" y="50.41" width="4.56" height="4.46" fill="#fff"/><rect x="558.65" y="50.41" width="4.56" height="4.46" fill="none" stroke="#003a50" stroke-miterlimit="10"/><rect x="558.65" y="185.38" width="4.56" height="4.46" fill="#fff"/><rect x="558.65" y="185.38" width="4.56" height="4.46" fill="none" stroke="#003a50" stroke-miterlimit="10"/><rect x="558.65" y="151.64" width="4.56" height="4.46" fill="#fff"/><rect x="558.65" y="151.64" width="4.56" height="4.46" fill="none" stroke="#003a50" stroke-miterlimit="10"/><rect x="558.65" y="286.41" width="4.56" height="75.38" fill="#fff"/><rect x="558.65" y="286.41" width="4.56" height="75.38" fill="none" stroke="#003a50" stroke-miterlimit="10"/><line x1="560.93" y1="361.79" x2="560.93" y2="286.41" fill="none" stroke="#003a50" stroke-miterlimit="10"/><rect x="558.65" y="357.99" width="4.56" height="3.8" fill="#fff"/><rect x="558.65" y="357.99" width="4.56" height="3.8" fill="none" stroke="#003a50" stroke-miterlimit="10"/><rect x="558.65" y="286.41" width="4.56" height="3.8" fill="#fff"/><rect x="558.65" y="286.41" width="4.56" height="3.8" fill="none" stroke="#003a50" stroke-miterlimit="10"/><rect x="558.65" y="322.19" width="4.56" height="3.81" fill="#fff"/><rect x="558.65" y="322.19" width="4.56" height="3.81" fill="none" stroke="#003a50" stroke-miterlimit="10"/><rect x="558.65" y="388.66" width="4.56" height="77.57" fill="#fff"/><rect x="558.65" y="388.66" width="4.56" height="77.57" fill="none" stroke="#003a50" stroke-miterlimit="10"/><line x1="560.93" y1="466.23" x2="560.93" y2="388.66" fill="none" stroke="#003a50" stroke-miterlimit="10"/><rect x="558.65" y="462.32" width="4.56" height="3.91" fill="#fff"/><rect x="558.65" y="462.31" width="4.56" height="3.92" fill="none" stroke="#003a50" stroke-miterlimit="10"/><rect x="558.65" y="388.67" width="4.56" height="3.92" fill="#fff"/><rect x="558.65" y="388.67" width="4.56" height="3.92" fill="none" stroke="#003a50" stroke-miterlimit="10"/><rect x="558.65" y="425.49" width="4.56" height="3.91" fill="#fff"/><rect x="558.65" y="425.49" width="4.56" height="3.92" fill="none" stroke="#003a50" stroke-miterlimit="10"/><rect x="407.62" y="653.1" width="102.05" height="16.75" fill="none" stroke="#003a50" stroke-miterlimit="10"/><polygon points="501.65 660.94 458.75 664.41 415.65 660.94 415.65 658.52 501.65 658.52 501.65 660.94" fill="none" stroke="#003a50" stroke-miterlimit="10"/><rect x="367.53" y="65.52" width="16.75" height="102.05" fill="none" stroke="#003a50" stroke-miterlimit="10"/><polygon points="376.44 73.54 372.96 116.44 376.44 159.54 378.86 159.54 378.86 73.54 376.44 73.54" fill="none" stroke="#003a50" stroke-miterlimit="10"/><rect x="308.39" y="57.56" width="52.33" height="113.67" fill="none" stroke="#003a50" stroke-miterlimit="10"/><g clip-path="url(#clip-path)"><path d="M317.33,161.52h34a2.1,2.1,0,0,0,2.11-2.1V91.8H315.23v67.62A2.1,2.1,0,0,0,317.33,161.52Z" fill="none" stroke="#003a50" stroke-miterlimit="10"/></g><rect x="315.22" y="91.8" width="38.26" height="13.85" fill="none" stroke="#003a50" stroke-miterlimit="10"/><g clip-path="url(#clip-path)"><path d="M317,65.3h34.31a2.21,2.21,0,0,1,2.2,2.21V86a2.2,2.2,0,0,1-2.2,2.2H317a2.2,2.2,0,0,1-2.2-2.2V67.51A2.21,2.21,0,0,1,317,65.3Z" fill="none" stroke="#003a50" stroke-miterlimit="10"/><rect x="271.9" y="686.17" width="28.86" height="30.54" fill="none" stroke="#003a50" stroke-miterlimit="10"/><path d="M450.35,341.69a1.27,1.27,0,0,1-1.21,1.31,13.79,13.79,0,0,0,1.07,27.55,1.26,1.26,0,0,1,.1,2.51A16.3,16.3,0,0,1,449,340.48,1.28,1.28,0,0,1,450.35,341.69Z" fill="none" stroke="#003a50" stroke-miterlimit="10"/><path d="M457.29,379.25a1.25,1.25,0,0,1,.87,1.55,13.78,13.78,0,0,0,26.53,7.5,1.26,1.26,0,0,1,2.42.68,16.3,16.3,0,1,1-31.37-8.86A1.25,1.25,0,0,1,457.29,379.25Z" fill="none" stroke="#003a50" stroke-miterlimit="10"/><path d="M495.07,383.61a1.25,1.25,0,0,1,1.74-.35,13.78,13.78,0,0,0,15.33-22.91,1.26,1.26,0,1,1,1.4-2.09,16.3,16.3,0,1,1-18.13,27.1A1.26,1.26,0,0,1,495.07,383.61Z" fill="none" stroke="#003a50" stroke-miterlimit="10"/><path d="M512.25,349a1.26,1.26,0,0,1,.2-1.77,13.78,13.78,0,1,0-17.05-21.65,1.26,1.26,0,0,1-1.56-2A16.3,16.3,0,1,1,514,349.25,1.25,1.25,0,0,1,512.25,349Z" fill="none" stroke="#003a50" stroke-miterlimit="10"/><path d="M483.42,325a1.27,1.27,0,0,1-.85-1.56,13.79,13.79,0,1,0-26.46-7.75,1.26,1.26,0,0,1-2.41-.71A16.3,16.3,0,1,1,485,324.13,1.26,1.26,0,0,1,483.42,325Z" fill="none" stroke="#003a50" stroke-miterlimit="10"/><path d="M460.18,369l-9.36.36a12.65,12.65,0,1,1-1-25.28l9-.32A23.7,23.7,0,0,0,460.18,369Z" fill="none" stroke="#003a50" stroke-miterlimit="10"/><path d="M486.34,378.25l-2.56,9.08a12.65,12.65,0,0,1-24.36-6.84l2.6-9.2a23.6,23.6,0,0,0,24.32,7Z" fill="none" stroke="#003a50" stroke-miterlimit="10"/><path d="M514.42,378.45A12.67,12.67,0,0,1,496.9,382l-7.28-4.88a23.88,23.88,0,0,0,13.12-15.24,24.8,24.8,0,0,0,.84-5.84l7.36,4.92A12.63,12.63,0,0,1,514.42,378.45Z" fill="none" stroke="#003a50" stroke-miterlimit="10"/><path d="M511.22,346.81l-7.72,6.08a23.88,23.88,0,0,0-15.56-20l7.64-6a12.65,12.65,0,1,1,15.64,19.88Z" fill="none" stroke="#003a50" stroke-miterlimit="10"/><path d="M481.3,323.73,479,331.49a23.58,23.58,0,0,0-9.08,2.12l-15.28-4.48a1.21,1.21,0,0,1-.84-1.52L456.9,317a12.87,12.87,0,0,1,13.2-9.4A12.67,12.67,0,0,1,481.3,323.73Z" fill="none" stroke="#003a50" stroke-miterlimit="10"/><path d="M503.58,356a24.8,24.8,0,0,1-.84,5.84,23.88,23.88,0,0,1-13.12,15.24,24.6,24.6,0,0,1-3.28,1.16,23.6,23.6,0,0,1-24.32-7,25.46,25.46,0,0,1-1.84-2.28,23.7,23.7,0,0,1-1.28-25.24,24,24,0,0,1,11-10.16,23.84,23.84,0,0,1,16.32-1.24c.56.16,1.12.36,1.68.56a23.88,23.88,0,0,1,15.56,20A27.09,27.09,0,0,1,503.58,356Z" fill="none" stroke="#003a50" stroke-miterlimit="10"/><path d="M93.25,283.62V254.77H116v28.85a11.4,11.4,0,1,1-22.79,0Z" fill="none" stroke="#003a50" stroke-miterlimit="10"/></g><line x1="116.04" y1="265.99" x2="93.25" y2="265.99" fill="none" stroke="#003a50" stroke-miterlimit="10"/><rect x="120.15" y="526.81" width="92.51" height="38.47" fill="none" stroke="#003a50" stroke-miterlimit="10"/><g clip-path="url(#clip-path)"><path d="M138.69,560.5h55.44a14.47,14.47,0,1,0,0-28.93H138.69a14.47,14.47,0,1,0,0,28.93Z" fill="none" stroke="#003a50" stroke-miterlimit="10"/><circle cx="138.9" cy="546.04" r="2.06" fill="none" stroke="#003a50" stroke-miterlimit="10"/><path d="M164.47,641v28.85h22.79V641a11.4,11.4,0,0,0-22.79,0Z" fill="none" stroke="#003a50" stroke-miterlimit="10"/></g><line x1="187.26" y1="658.63" x2="164.47" y2="658.63" fill="none" stroke="#003a50" stroke-miterlimit="10"/><rect x="119.82" y="489.03" width="32.31" height="31.64" fill="none" stroke="#003a50" stroke-miterlimit="10"/><g clip-path="url(#clip-path)"><path d="M140.68,497.5h-1.87a2.71,2.71,0,0,1-5.06,0h-2.47l-4.68,2.69,2.24,3.52,2.11-1.12v9.62H141v-9.62l2.1,1.12,2.24-3.52Z" fill="none" stroke="#003a50" stroke-miterlimit="10"/></g><rect x="84.43" y="571.37" width="29.35" height="65.14" fill="none" stroke="#003a50" stroke-miterlimit="10"/><g clip-path="url(#clip-path)"><path d="M106.23,603.12h-23a3.36,3.36,0,0,1-3.36-3.35V577.52a3.37,3.37,0,0,1,3.36-3.36h23a3.36,3.36,0,0,1,3.35,3.36v22.25A3.35,3.35,0,0,1,106.23,603.12Z" fill="none" stroke="#003a50" stroke-miterlimit="10"/><circle cx="94.73" cy="588.64" r="2.27" fill="none" stroke="#003a50" stroke-miterlimit="10"/><path d="M106.23,633.64h-23a3.36,3.36,0,0,1-3.36-3.35V608a3.37,3.37,0,0,1,3.36-3.36h23a3.36,3.36,0,0,1,3.35,3.36v22.25A3.35,3.35,0,0,1,106.23,633.64Z" fill="none" stroke="#003a50" stroke-miterlimit="10"/><circle cx="94.73" cy="619.16" r="2.27" fill="none" stroke="#003a50" stroke-miterlimit="10"/></g><rect x="41.86" y="254.86" width="43.38" height="99.9" fill="none" stroke="#003a50" stroke-miterlimit="10"/><g clip-path="url(#clip-path)"><path d="M47.23,275.5v58.62a16.26,16.26,0,0,0,16.26,16.26h.12a16.26,16.26,0,0,0,16.26-16.26V275.5a16.26,16.26,0,0,0-16.26-16.26h-.12A16.26,16.26,0,0,0,47.23,275.5Z" fill="none" stroke="#003a50" stroke-miterlimit="10"/><path d="M63.55,277.46a2.35,2.35,0,1,0-2.35-2.35A2.35,2.35,0,0,0,63.55,277.46Z" fill="none" stroke="#003a50" stroke-miterlimit="10"/></g><rect x="85.42" y="333.85" width="39.36" height="27.58" fill="none" stroke="#003a50" stroke-miterlimit="10"/><g clip-path="url(#clip-path)"><rect x="90.62" y="336.27" width="28.96" height="29.71" rx="3.36" fill="none" stroke="#003a50" stroke-miterlimit="10"/><circle cx="105.11" cy="351.13" r="2.27" fill="none" stroke="#003a50" stroke-miterlimit="10"/></g><rect x="320.15" y="449.73" width="221.38" height="32.22" fill="none" stroke="#003a50" stroke-miterlimit="10"/><rect x="398.7" y="449.73" width="31.64" height="32.22" fill="none" stroke="#003a50" stroke-miterlimit="10"/><line x1="423.8" y1="465.84" x2="405.23" y2="465.84" fill="none" stroke="#003a50" stroke-miterlimit="10"/><line x1="414.52" y1="456.39" x2="414.52" y2="475.3" fill="none" stroke="#003a50" stroke-miterlimit="10"/><line x1="421.08" y1="459.16" x2="407.95" y2="472.52" fill="none" stroke="#003a50" stroke-miterlimit="10"/><line x1="407.95" y1="459.16" x2="421.08" y2="472.52" fill="none" stroke="#003a50" stroke-miterlimit="10"/><rect x="283.94" y="253.4" width="34.02" height="131.32" fill="none" stroke="#003a50" stroke-miterlimit="10"/><rect x="317.95" y="253.39" width="49.18" height="33.36" fill="none" stroke="#003a50" stroke-miterlimit="10"/><rect x="283.94" y="286.76" width="34.02" height="34.02" fill="none" stroke="#003a50" stroke-miterlimit="10"/><line x1="300.95" y1="305.78" x2="300.95" y2="316.34" fill="none" stroke="#003a50" stroke-miterlimit="10"/><g clip-path="url(#clip-path)"><path d="M300,305.78h1.82a3.39,3.39,0,0,0,3.39-3.39v-11.2h-8.61v11.2A3.4,3.4,0,0,0,300,305.78Z" fill="none" stroke="#003a50" stroke-miterlimit="10"/></g><line x1="304.42" y1="316.34" x2="297.47" y2="316.34" fill="none" stroke="#003a50" stroke-miterlimit="10"/><rect x="283.94" y="335.04" width="34.02" height="34.02" fill="none" stroke="#003a50" stroke-miterlimit="10"/><g clip-path="url(#clip-path)"><path d="M288.54,359.64a4.69,4.69,0,1,0,4.69-4.7A4.69,4.69,0,0,0,288.54,359.64Z" fill="none" stroke="#003a50" stroke-miterlimit="10"/><path d="M304,359.64a4.69,4.69,0,1,0,4.7-4.7A4.69,4.69,0,0,0,304,359.64Z" fill="none" stroke="#003a50" stroke-miterlimit="10"/><path d="M288.54,344.47a4.69,4.69,0,1,0,4.69-4.7A4.69,4.69,0,0,0,288.54,344.47Z" fill="none" stroke="#003a50" stroke-miterlimit="10"/><path d="M304,344.47a4.69,4.69,0,1,0,4.7-4.7A4.69,4.69,0,0,0,304,344.47Z" fill="none" stroke="#003a50" stroke-miterlimit="10"/><rect x="327.51" y="261.09" width="30.06" height="21.66" rx="3.36" fill="none" stroke="#003a50" stroke-miterlimit="10"/><circle cx="342.54" cy="268.13" r="2.46" fill="none" stroke="#003a50" stroke-miterlimit="10"/></g><line x1="342.54" y1="268.89" x2="342.54" y2="255.27" fill="none" stroke="#003a50" stroke-miterlimit="10"/><line x1="335.73" y1="255.27" x2="349.35" y2="255.27" fill="none" stroke="#003a50" stroke-miterlimit="10"/><g clip-path="url(#clip-path)"><rect x="113.95" y="686.41" width="122.14" height="29.57" fill="none" stroke="#003a50" stroke-miterlimit="10"/></g><rect x="247.17" y="213.95" width="113.38" height="34.02" fill="none" stroke="#003a50" stroke-miterlimit="10"/><g clip-path="url(#clip-path)"><path d="M342.74,243.15a1,1,0,0,1-1.91.44,28.77,28.77,0,0,1,0-25.26,1,1,0,0,1,1.34-.45,1,1,0,0,1,.46,1.34,26.81,26.81,0,0,0,0,23.49A.87.87,0,0,1,342.74,243.15Z" fill="none" stroke="#003a50" stroke-miterlimit="10"/><path d="M337.17,243.15a1,1,0,0,1-1.9.44,28.77,28.77,0,0,1,0-25.26,1,1,0,0,1,1.8.89,26.72,26.72,0,0,0,0,23.49A1,1,0,0,1,337.17,243.15Z" fill="none" stroke="#003a50" stroke-miterlimit="10"/><path d="M331.61,243.15a1,1,0,0,1-1.91.44,28.77,28.77,0,0,1,0-25.26,1,1,0,0,1,1.34-.45,1,1,0,0,1,.46,1.34,26.81,26.81,0,0,0,0,23.49A.87.87,0,0,1,331.61,243.15Z" fill="none" stroke="#003a50" stroke-miterlimit="10"/><path d="M326,243.15a1,1,0,0,1-1.9.44,28.77,28.77,0,0,1,0-25.26,1,1,0,0,1,1.8.89,26.72,26.72,0,0,0,0,23.49A1,1,0,0,1,326,243.15Z" fill="none" stroke="#003a50" stroke-miterlimit="10"/><path d="M320.48,243.15a1,1,0,0,1-1.91.44,28.77,28.77,0,0,1,0-25.26,1,1,0,0,1,1.34-.45,1,1,0,0,1,.46,1.34,26.81,26.81,0,0,0,0,23.49A.87.87,0,0,1,320.48,243.15Z" fill="none" stroke="#003a50" stroke-miterlimit="10"/><path d="M314.91,243.15a1,1,0,0,1-1.9.44,28.77,28.77,0,0,1,0-25.26,1,1,0,0,1,1.8.89,26.72,26.72,0,0,0,0,23.49A1,1,0,0,1,314.91,243.15Z" fill="none" stroke="#003a50" stroke-miterlimit="10"/><path d="M348.3,243.15a1,1,0,0,1-.56.9,1,1,0,0,1-1.34-.46,28.77,28.77,0,0,1,0-25.26,1,1,0,0,1,1.8.89,26.72,26.72,0,0,0,0,23.49A1,1,0,0,1,348.3,243.15Z" fill="none" stroke="#003a50" stroke-miterlimit="10"/><path d="M353.87,243.15a1,1,0,0,1-1.91.44,28.77,28.77,0,0,1,0-25.26,1,1,0,0,1,1.34-.45,1,1,0,0,1,.46,1.34,26.81,26.81,0,0,0,0,23.49A.87.87,0,0,1,353.87,243.15Z" fill="none" stroke="#003a50" stroke-miterlimit="10"/></g><line x1="359.86" y1="230.96" x2="247.16" y2="230.96" fill="none" stroke="#003a50" stroke-miterlimit="10"/><g clip-path="url(#clip-path)"><path d="M475.52,151.36v39H434.71v-39a1.91,1.91,0,0,1,1.92-1.91h37A1.91,1.91,0,0,1,475.52,151.36Z" fill="none" stroke="#003a50" stroke-miterlimit="10"/><path d="M477.44,108.77h43.4v40.79h-43.4a1.92,1.92,0,0,1-1.92-1.92V110.69A1.92,1.92,0,0,1,477.44,108.77Z" fill="none" stroke="#003a50" stroke-miterlimit="10"/><path d="M477.44,68h43.4v40.78h-43.4a1.91,1.91,0,0,1-1.92-1.91v-37A1.92,1.92,0,0,1,477.44,68Z" fill="none" stroke="#003a50" stroke-miterlimit="10"/><path d="M435.45,190.34a3,3,0,0,0-3,3v3.76a3,3,0,0,0,3,3H526V58.3H476a3,3,0,0,0-3,3V65a3,3,0,0,0,3,3h44.87V190.34Z" fill="none" stroke="#003a50" stroke-miterlimit="10"/></g><rect x="511.14" y="67.99" width="9.7" height="122.36" fill="none" stroke="#003a50" stroke-miterlimit="10"/><g clip-path="url(#clip-path)"><path d="M477.66,149.56h43.18v40.78H475.52V151.7A2.14,2.14,0,0,1,477.66,149.56Z" fill="none" stroke="#003a50" stroke-miterlimit="10"/><path d="M444.13,734.64a3.11,3.11,0,0,1-3.33,2.83h-4.22a3.11,3.11,0,0,1-3.33-2.83v-48.2H546.64v47.77a3.11,3.11,0,0,1-3.33,2.83h-4.22a3.1,3.1,0,0,1-3.32-2.83V691.39H444.13Z" fill="none" stroke="#003a50" stroke-miterlimit="10"/></g><rect x="367.4" y="65.73" width="17.01" height="101.63" fill="none" stroke="#003a50" stroke-miterlimit="10"/><polygon points="376.44 159.54 378.9 159.54 378.9 73.54 376.44 73.54 372.91 116.54 376.44 159.54" fill="none" stroke="#003a50" stroke-miterlimit="10"/><g clip-path="url(#clip-path)"><path d="M357.67,542.58a14.77,14.77,0,0,0,15.92-23.38A1.13,1.13,0,0,0,372,519a1.14,1.14,0,0,0-.17,1.61,12.47,12.47,0,0,1-14.15,19.5Z" fill="none" stroke="#003a50" stroke-miterlimit="10"/><rect x="323.65" y="488.33" width="34.02" height="84.03" rx="3.31" fill="none" stroke="#003a50" stroke-miterlimit="10"/><path d="M327.36,569.81a1.4,1.4,0,0,0,1.4-1.4V492.27a1.4,1.4,0,0,0-2.8,0v76.14a1.4,1.4,0,0,0,1.4,1.4" fill="none" stroke="#003a50" stroke-miterlimit="10"/><path d="M341.94,502a5.51,5.51,0,1,1,0-7.79A5.51,5.51,0,0,1,341.94,502Z" fill="none" stroke="#003a50" stroke-miterlimit="10"/><path d="M342.31,501.59c-1-.1-2,.29-3-.7-1.46-1.46.08-3-1.38-4.47s-3,.08-4.47-1.38" fill="none" stroke="#003a50" stroke-miterlimit="10"/><path d="M357.67,537.87a10.63,10.63,0,1,0,0-19.59Z" fill="none" stroke="#003a50" stroke-miterlimit="10"/><path d="M225.72,116.35A14.77,14.77,0,0,0,241.64,93a1.13,1.13,0,1,0-1.77,1.42,12.46,12.46,0,0,1-14.15,19.5Z" fill="none" stroke="#003a50" stroke-miterlimit="10"/><rect x="191.7" y="62.09" width="34.02" height="84.03" rx="3.31" fill="none" stroke="#003a50" stroke-miterlimit="10"/><path d="M195.41,143.58a1.4,1.4,0,0,0,1.4-1.4V66a1.4,1.4,0,0,0-2.8,0v76.14a1.4,1.4,0,0,0,1.4,1.4" fill="none" stroke="#003a50" stroke-miterlimit="10"/><path d="M210,75.77A5.51,5.51,0,1,1,210,68,5.51,5.51,0,0,1,210,75.77Z" fill="none" stroke="#003a50" stroke-miterlimit="10"/><path d="M210.36,75.35c-1-.1-2,.29-3-.7-1.46-1.46.08-3-1.38-4.46s-3,.08-4.47-1.38" fill="none" stroke="#003a50" stroke-miterlimit="10"/><path d="M225.72,111.64a10.63,10.63,0,1,0,0-19.59Z" fill="none" stroke="#003a50" stroke-miterlimit="10"/></g><rect x="16.11" y="56.37" width="52.33" height="113.67" fill="none" stroke="#003a50" stroke-miterlimit="10"/><g clip-path="url(#clip-path)"><path d="M59.5,160.34h-34a2.11,2.11,0,0,1-2.1-2.11V90.61H61.61v67.62A2.11,2.11,0,0,1,59.5,160.34Z" fill="none" stroke="#003a50" stroke-miterlimit="10"/></g><rect x="23.35" y="90.61" width="38.26" height="13.85" fill="none" stroke="#003a50" stroke-miterlimit="10"/><g clip-path="url(#clip-path)"><rect x="23.3" y="64.12" width="38.71" height="22.88" rx="2.2" fill="none" stroke="#003a50" stroke-miterlimit="10"/></g><rect x="14.92" y="213.95" width="113.38" height="34.02" fill="none" stroke="#003a50" stroke-miterlimit="10"/><g clip-path="url(#clip-path)"><path d="M32.73,243.15a1,1,0,0,0,1.9.44,28.77,28.77,0,0,0,0-25.26,1,1,0,0,0-1.8.89,26.72,26.72,0,0,1,0,23.49A1,1,0,0,0,32.73,243.15Z" fill="none" stroke="#003a50" stroke-miterlimit="10"/><path d="M38.3,243.15a1,1,0,0,0,.56.9,1,1,0,0,0,1.34-.46,28.77,28.77,0,0,0,0-25.26,1,1,0,0,0-1.8.89,26.72,26.72,0,0,1,0,23.49A1,1,0,0,0,38.3,243.15Z" fill="none" stroke="#003a50" stroke-miterlimit="10"/><path d="M43.86,243.15a1,1,0,0,0,1.91.44,28.77,28.77,0,0,0,0-25.26,1,1,0,0,0-1.34-.45,1,1,0,0,0-.46,1.34,26.81,26.81,0,0,1,0,23.49A.87.87,0,0,0,43.86,243.15Z" fill="none" stroke="#003a50" stroke-miterlimit="10"/><path d="M49.43,243.15a1,1,0,0,0,.56.9,1,1,0,0,0,1.34-.46,28.77,28.77,0,0,0,0-25.26,1,1,0,0,0-1.8.89,26.72,26.72,0,0,1,0,23.49A1,1,0,0,0,49.43,243.15Z" fill="none" stroke="#003a50" stroke-miterlimit="10"/><path d="M55,243.15a1,1,0,0,0,1.91.44,28.77,28.77,0,0,0,0-25.26,1,1,0,0,0-1.34-.45,1,1,0,0,0-.46,1.34,26.81,26.81,0,0,1,0,23.49A.87.87,0,0,0,55,243.15Z" fill="none" stroke="#003a50" stroke-miterlimit="10"/><path d="M60.56,243.15a1,1,0,0,0,1.9.44,28.77,28.77,0,0,0,0-25.26,1,1,0,0,0-1.8.89,26.72,26.72,0,0,1,0,23.49A1,1,0,0,0,60.56,243.15Z" fill="none" stroke="#003a50" stroke-miterlimit="10"/><path d="M27.17,243.15a1,1,0,0,0,.56.9,1,1,0,0,0,1.34-.46,28.77,28.77,0,0,0,0-25.26,1,1,0,0,0-1.8.89A26.44,26.44,0,0,1,30,231a26.48,26.48,0,0,1-2.72,11.75A1,1,0,0,0,27.17,243.15Z" fill="none" stroke="#003a50" stroke-miterlimit="10"/><path d="M21.6,243.15a1,1,0,0,0,1.9.44A28.41,28.41,0,0,0,26.42,231a28.41,28.41,0,0,0-2.92-12.63,1,1,0,0,0-1.8.89A26.44,26.44,0,0,1,24.42,231a26.48,26.48,0,0,1-2.72,11.75A1,1,0,0,0,21.6,243.15Z" fill="none" stroke="#003a50" stroke-miterlimit="10"/></g><line x1="15.61" y1="230.96" x2="128.31" y2="230.96" fill="none" stroke="#003a50" stroke-miterlimit="10"/><g clip-path="url(#clip-path)"><path d="M149.75,116.35A14.77,14.77,0,0,1,133.83,93a1.13,1.13,0,1,1,1.77,1.42,12.46,12.46,0,0,0,14.15,19.5Z" fill="none" stroke="#003a50" stroke-miterlimit="10"/><rect x="149.75" y="62.09" width="34.02" height="84.03" rx="3.31" fill="none" stroke="#003a50" stroke-miterlimit="10"/><path d="M180.06,143.58a1.4,1.4,0,0,0,1.39-1.4V66a1.4,1.4,0,1,0-2.79,0v76.14a1.4,1.4,0,0,0,1.4,1.4" fill="none" stroke="#003a50" stroke-miterlimit="10"/><path d="M165.48,75.77a5.51,5.51,0,1,0,0-7.79A5.51,5.51,0,0,0,165.48,75.77Z" fill="none" stroke="#003a50" stroke-miterlimit="10"/><path d="M165.11,75.35c1-.1,2,.29,3-.7,1.46-1.46-.08-3,1.38-4.46s3,.08,4.47-1.38" fill="none" stroke="#003a50" stroke-miterlimit="10"/><path d="M149.75,111.64a10.63,10.63,0,1,1,0-19.59Z" fill="none" stroke="#003a50" stroke-miterlimit="10"/></g><rect x="514.35" y="488.33" width="22.68" height="22.68" fill="none" stroke="#003a50" stroke-miterlimit="10"/><g clip-path="url(#clip-path)"><circle cx="525.69" cy="499.66" r="9.2" fill="none" stroke="#003a50" stroke-miterlimit="10"/><path d="M532.82,493.85c-1.7.17-3.41-.48-5.06,1.17-2.44,2.44.14,5-2.3,7.46s-5-.14-7.46,2.3" fill="none" stroke="#003a50" stroke-miterlimit="10"/></g><rect x="380.26" y="488.33" width="22.68" height="22.68" fill="none" stroke="#003a50" stroke-miterlimit="10"/><g clip-path="url(#clip-path)"><circle cx="391.6" cy="499.66" r="9.2" fill="none" stroke="#003a50" stroke-miterlimit="10"/><path d="M398.72,493.85c-1.69.17-3.41-.48-5.06,1.17-2.44,2.44.14,5-2.3,7.46s-5-.14-7.46,2.3" fill="none" stroke="#003a50" stroke-miterlimit="10"/></g><rect x="407.73" y="488.33" width="102.05" height="113.39" fill="none" stroke="#003a50" stroke-miterlimit="10"/><g clip-path="url(#clip-path)"><path d="M417.73,592h82a2.09,2.09,0,0,0,2.09-2.08V522.25H415.65v67.64A2.08,2.08,0,0,0,417.73,592Z" fill="none" stroke="#003a50" stroke-miterlimit="10"/><rect x="459.62" y="495.76" width="42.5" height="22.88" rx="1.98" fill="none" stroke="#003a50" stroke-miterlimit="10"/><rect x="415.4" y="495.76" width="42.5" height="22.88" rx="1.98" fill="none" stroke="#003a50" stroke-miterlimit="10"/></g><line x1="415.39" y1="536.1" x2="502.12" y2="536.1" fill="none" stroke="#003a50" stroke-miterlimit="10"/><g clip-path="url(#clip-path)"><rect x="241.64" y="686.41" width="30.26" height="30.26" fill="none" stroke="#003a50" stroke-miterlimit="10"/></g><rect x="239.09" y="253.15" width="28.93" height="101.7" fill="none" stroke="#003a50" stroke-miterlimit="10"/><g clip-path="url(#clip-path)"><path d="M242.36,338.49a.92.92,0,0,1-.41-1.75,26.49,26.49,0,0,1,23.22,0,.92.92,0,0,1,.41,1.23.9.9,0,0,1-1.22.42,24.67,24.67,0,0,0-21.6,0A.79.79,0,0,1,242.36,338.49Z" fill="none" stroke="#003a50" stroke-miterlimit="10"/><path d="M242.36,333.37a.92.92,0,0,1-.41-1.74,26.4,26.4,0,0,1,23.22,0,.92.92,0,0,1-.81,1.65,24.58,24.58,0,0,0-21.6,0A.78.78,0,0,1,242.36,333.37Z" fill="none" stroke="#003a50" stroke-miterlimit="10"/><path d="M242.36,328.26a.92.92,0,0,1-.41-1.75,26.49,26.49,0,0,1,23.22,0,.92.92,0,0,1,.41,1.23.9.9,0,0,1-1.22.42,24.67,24.67,0,0,0-21.6,0A.79.79,0,0,1,242.36,328.26Z" fill="none" stroke="#003a50" stroke-miterlimit="10"/><path d="M242.36,323.15a.94.94,0,0,1-.83-.52.92.92,0,0,1,.42-1.23,26.4,26.4,0,0,1,23.22,0,.92.92,0,0,1-.81,1.65,24.58,24.58,0,0,0-21.6,0A.79.79,0,0,1,242.36,323.15Z" fill="none" stroke="#003a50" stroke-miterlimit="10"/><path d="M242.36,318a.92.92,0,0,1-.41-1.75,26.49,26.49,0,0,1,23.22,0,.92.92,0,0,1,.41,1.23.9.9,0,0,1-1.22.42,24.67,24.67,0,0,0-21.6,0A.79.79,0,0,1,242.36,318Z" fill="none" stroke="#003a50" stroke-miterlimit="10"/><path d="M242.36,312.92a.94.94,0,0,1-.83-.52.92.92,0,0,1,.42-1.23,26.4,26.4,0,0,1,23.22,0,.92.92,0,0,1-.81,1.65,24.58,24.58,0,0,0-21.6,0A.79.79,0,0,1,242.36,312.92Z" fill="none" stroke="#003a50" stroke-miterlimit="10"/><path d="M242.36,343.6a.92.92,0,0,1-.41-1.74,26.4,26.4,0,0,1,23.22,0,.92.92,0,0,1-.81,1.65,24.58,24.58,0,0,0-21.6,0A.78.78,0,0,1,242.36,343.6Z" fill="none" stroke="#003a50" stroke-miterlimit="10"/><path d="M242.36,348.72A.92.92,0,0,1,242,347a26.49,26.49,0,0,1,23.22,0,.91.91,0,0,1,.41,1.23.9.9,0,0,1-1.22.42,24.67,24.67,0,0,0-21.6,0A.79.79,0,0,1,242.36,348.72Z" fill="none" stroke="#003a50" stroke-miterlimit="10"/></g><line x1="253.56" y1="354.86" x2="253.56" y2="280.04" fill="none" stroke="#003a50" stroke-miterlimit="10"/><rect x="286.2" y="455.95" width="30.76" height="125.1" fill="none" stroke="#003a50" stroke-miterlimit="10"/><g clip-path="url(#clip-path)"><path d="M289.67,564.14a1,1,0,0,1-.43-1.86,28.14,28.14,0,0,1,24.68,0,1,1,0,0,1-.86,1.76,26.19,26.19,0,0,0-23,0A.94.94,0,0,1,289.67,564.14Z" fill="none" stroke="#003a50" stroke-miterlimit="10"/><path d="M289.67,558.7a1,1,0,0,1-.43-1.86,28.14,28.14,0,0,1,24.68,0,1,1,0,0,1-.86,1.76,26.19,26.19,0,0,0-23,0A.94.94,0,0,1,289.67,558.7Z" fill="none" stroke="#003a50" stroke-miterlimit="10"/><path d="M289.67,553.26a1,1,0,0,1-.43-1.86,28.14,28.14,0,0,1,24.68,0,1,1,0,0,1-.86,1.76,26.19,26.19,0,0,0-23,0A.94.94,0,0,1,289.67,553.26Z" fill="none" stroke="#003a50" stroke-miterlimit="10"/><path d="M289.67,547.82a1,1,0,0,1-.43-1.86,28.14,28.14,0,0,1,24.68,0,1,1,0,0,1-.86,1.76,26.19,26.19,0,0,0-23,0A.94.94,0,0,1,289.67,547.82Z" fill="none" stroke="#003a50" stroke-miterlimit="10"/><path d="M289.67,542.39a1,1,0,0,1-.88-.55,1,1,0,0,1,.45-1.31,28.05,28.05,0,0,1,24.68,0,1,1,0,0,1,.45,1.3,1,1,0,0,1-1.31.46,26.1,26.1,0,0,0-23,0A1.08,1.08,0,0,1,289.67,542.39Z" fill="none" stroke="#003a50" stroke-miterlimit="10"/><path d="M289.67,537a1,1,0,0,1-.88-.55,1,1,0,0,1,.45-1.31,28.05,28.05,0,0,1,24.68,0,1,1,0,0,1,.45,1.31,1,1,0,0,1-1.31.45,26.1,26.1,0,0,0-23,0A.94.94,0,0,1,289.67,537Z" fill="none" stroke="#003a50" stroke-miterlimit="10"/><path d="M289.67,569.58a1,1,0,0,1-.43-1.86,28.05,28.05,0,0,1,24.68,0,1,1,0,0,1-.86,1.76,26.1,26.1,0,0,0-23,0A.94.94,0,0,1,289.67,569.58Z" fill="none" stroke="#003a50" stroke-miterlimit="10"/><path d="M289.67,575a1,1,0,0,1-.43-1.86,28.05,28.05,0,0,1,24.68,0,1,1,0,0,1-.86,1.76,26.1,26.1,0,0,0-23,0A.94.94,0,0,1,289.67,575Z" fill="none" stroke="#003a50" stroke-miterlimit="10"/></g><line x1="301.58" y1="580.87" x2="301.58" y2="456.12" fill="none" stroke="#003a50" stroke-miterlimit="10"/><rect x="218.36" y="639.09" width="98.7" height="30.76" fill="none" stroke="#003a50" stroke-miterlimit="10"/><g clip-path="url(#clip-path)"><path d="M300.16,666.38a1,1,0,0,1-1.86.43,28.05,28.05,0,0,1,0-24.68,1,1,0,1,1,1.76.86,26.1,26.1,0,0,0,0,23A.94.94,0,0,1,300.16,666.38Z" fill="none" stroke="#003a50" stroke-miterlimit="10"/><path d="M294.72,666.38a1,1,0,0,1-1.86.43,28.05,28.05,0,0,1,0-24.68,1,1,0,1,1,1.76.86,26.1,26.1,0,0,0,0,23A.94.94,0,0,1,294.72,666.38Z" fill="none" stroke="#003a50" stroke-miterlimit="10"/><path d="M289.28,666.38a1,1,0,0,1-1.86.43,28.14,28.14,0,0,1,0-24.68,1,1,0,1,1,1.76.86,26.19,26.19,0,0,0,0,23A.94.94,0,0,1,289.28,666.38Z" fill="none" stroke="#003a50" stroke-miterlimit="10"/><path d="M283.84,666.38a1,1,0,0,1-1.86.43,28.14,28.14,0,0,1,0-24.68,1,1,0,1,1,1.76.86,26.19,26.19,0,0,0,0,23A.94.94,0,0,1,283.84,666.38Z" fill="none" stroke="#003a50" stroke-miterlimit="10"/><path d="M278.4,666.38a1,1,0,0,1-1.86.43,28.14,28.14,0,0,1,0-24.68,1,1,0,1,1,1.76.86,26.19,26.19,0,0,0,0,23A.94.94,0,0,1,278.4,666.38Z" fill="none" stroke="#003a50" stroke-miterlimit="10"/><path d="M273,666.38a1,1,0,0,1-.55.88,1,1,0,0,1-1.31-.45,28.05,28.05,0,0,1,0-24.68,1,1,0,0,1,1.3-.45,1,1,0,0,1,.46,1.31,26.1,26.1,0,0,0,0,23A1.08,1.08,0,0,1,273,666.38Z" fill="none" stroke="#003a50" stroke-miterlimit="10"/><path d="M305.6,666.38a1,1,0,0,1-.55.88,1,1,0,0,1-1.31-.45,28.05,28.05,0,0,1,0-24.68,1,1,0,0,1,1.31-.45,1,1,0,0,1,.45,1.31,26.1,26.1,0,0,0,0,23A.94.94,0,0,1,305.6,666.38Z" fill="none" stroke="#003a50" stroke-miterlimit="10"/><path d="M311,666.38a1,1,0,0,1-.55.88,1,1,0,0,1-1.31-.45,28.05,28.05,0,0,1,0-24.68,1,1,0,0,1,1.3-.45,1,1,0,0,1,.46,1.31,26.1,26.1,0,0,0,0,23A1.08,1.08,0,0,1,311,666.38Z" fill="none" stroke="#003a50" stroke-miterlimit="10"/></g><line x1="316.89" y1="654.47" x2="241.64" y2="654.47" fill="none" stroke="#003a50" stroke-miterlimit="10"/><rect x="185.5" y="456.03" width="26.58" height="64.79" fill="none" stroke="#003a50" stroke-miterlimit="10"/><g clip-path="url(#clip-path)"><path d="M188.49,506.22a.85.85,0,0,1-.37-1.61,24.26,24.26,0,0,1,21.33,0,.84.84,0,0,1,.39,1.13.83.83,0,0,1-1.13.39,22.63,22.63,0,0,0-19.84,0A.85.85,0,0,1,188.49,506.22Z" fill="none" stroke="#003a50" stroke-miterlimit="10"/><path d="M188.49,501.52a.85.85,0,0,1-.37-1.61,24.26,24.26,0,0,1,21.33,0,.85.85,0,1,1-.74,1.52,22.63,22.63,0,0,0-19.84,0A.85.85,0,0,1,188.49,501.52Z" fill="none" stroke="#003a50" stroke-miterlimit="10"/><path d="M188.49,496.82a.85.85,0,0,1-.37-1.61,24.26,24.26,0,0,1,21.33,0,.85.85,0,1,1-.74,1.52,22.63,22.63,0,0,0-19.84,0A.85.85,0,0,1,188.49,496.82Z" fill="none" stroke="#003a50" stroke-miterlimit="10"/><path d="M188.49,492.12a.86.86,0,0,1-.76-.48.85.85,0,0,1,.39-1.13,24.26,24.26,0,0,1,21.33,0,.85.85,0,1,1-.74,1.52,22.63,22.63,0,0,0-19.84,0A.85.85,0,0,1,188.49,492.12Z" fill="none" stroke="#003a50" stroke-miterlimit="10"/><path d="M188.49,487.42a.85.85,0,0,1-.37-1.61,24.26,24.26,0,0,1,21.33,0,.85.85,0,1,1-.74,1.52,22.63,22.63,0,0,0-19.84,0A.85.85,0,0,1,188.49,487.42Z" fill="none" stroke="#003a50" stroke-miterlimit="10"/><path d="M188.49,482.71a.84.84,0,0,1-.37-1.6,24.26,24.26,0,0,1,21.33,0,.84.84,0,0,1,.39,1.13.85.85,0,0,1-1.13.39,22.54,22.54,0,0,0-19.84,0A.84.84,0,0,1,188.49,482.71Z" fill="none" stroke="#003a50" stroke-miterlimit="10"/><path d="M188.49,510.92a.85.85,0,0,1-.37-1.61,24.26,24.26,0,0,1,21.33,0,.84.84,0,0,1,.39,1.13.83.83,0,0,1-1.13.39,22.63,22.63,0,0,0-19.84,0A.85.85,0,0,1,188.49,510.92Z" fill="none" stroke="#003a50" stroke-miterlimit="10"/><path d="M188.49,515.62a.85.85,0,0,1-.37-1.61,24.26,24.26,0,0,1,21.33,0,.84.84,0,0,1,.39,1.13.83.83,0,0,1-1.13.39,22.63,22.63,0,0,0-19.84,0A.85.85,0,0,1,188.49,515.62Z" fill="none" stroke="#003a50" stroke-miterlimit="10"/></g><line x1="198.79" y1="520.67" x2="198.79" y2="456.19" fill="none" stroke="#003a50" stroke-miterlimit="10"/><rect x="186.1" y="354.86" width="81.53" height="24.26" fill="none" stroke="#003a50" stroke-miterlimit="10"/><g clip-path="url(#clip-path)"><path d="M202.64,357.59a.75.75,0,0,1,.44-.69.77.77,0,0,1,1,.35,22.19,22.19,0,0,1,0,19.47.77.77,0,0,1-1.39-.68,20.57,20.57,0,0,0,0-18.11A.81.81,0,0,1,202.64,357.59Z" fill="none" stroke="#003a50" stroke-miterlimit="10"/><path d="M206.93,357.59a.76.76,0,0,1,.43-.69.78.78,0,0,1,1,.35,22.19,22.19,0,0,1,0,19.47A.77.77,0,0,1,207,376a20.66,20.66,0,0,0,0-18.11A.81.81,0,0,1,206.93,357.59Z" fill="none" stroke="#003a50" stroke-miterlimit="10"/><path d="M211.22,357.59a.76.76,0,0,1,.43-.69.78.78,0,0,1,1,.35,22.19,22.19,0,0,1,0,19.47.77.77,0,0,1-1.39-.68,20.66,20.66,0,0,0,0-18.11A.68.68,0,0,1,211.22,357.59Z" fill="none" stroke="#003a50" stroke-miterlimit="10"/><path d="M215.51,357.59a.76.76,0,0,1,.43-.69.78.78,0,0,1,1,.35,22.19,22.19,0,0,1,0,19.47.77.77,0,0,1-1.39-.68,20.66,20.66,0,0,0,0-18.11A.68.68,0,0,1,215.51,357.59Z" fill="none" stroke="#003a50" stroke-miterlimit="10"/><path d="M219.8,357.59a.76.76,0,0,1,.43-.69.78.78,0,0,1,1,.35,22.27,22.27,0,0,1,0,19.47.78.78,0,0,1-1,.35.77.77,0,0,1-.35-1,20.66,20.66,0,0,0,0-18.11A.68.68,0,0,1,219.8,357.59Z" fill="none" stroke="#003a50" stroke-miterlimit="10"/><path d="M224.09,357.59a.77.77,0,0,1,1.46-.34,22.19,22.19,0,0,1,0,19.47.77.77,0,0,1-1.38-.68,20.66,20.66,0,0,0,0-18.11A.68.68,0,0,1,224.09,357.59Z" fill="none" stroke="#003a50" stroke-miterlimit="10"/><path d="M198.35,357.59a.75.75,0,0,1,.44-.69.77.77,0,0,1,1,.35,22.19,22.19,0,0,1,0,19.47.77.77,0,0,1-1.39-.68,20.57,20.57,0,0,0,0-18.11A.81.81,0,0,1,198.35,357.59Z" fill="none" stroke="#003a50" stroke-miterlimit="10"/><path d="M194.07,357.59a.77.77,0,0,1,1.46-.34,22.19,22.19,0,0,1,0,19.47.77.77,0,1,1-1.38-.68,20.66,20.66,0,0,0,0-18.11A.68.68,0,0,1,194.07,357.59Z" fill="none" stroke="#003a50" stroke-miterlimit="10"/></g><line x1="186.23" y1="366.98" x2="267.49" y2="366.98" fill="none" stroke="#003a50" stroke-miterlimit="10"/><rect x="85.03" y="451.21" width="49.86" height="31.33" fill="none" stroke="#003a50" stroke-miterlimit="10"/><g clip-path="url(#clip-path)"><path d="M103.05,477.1a.86.86,0,0,0,.46.76.85.85,0,0,0,1.13-.39,24.13,24.13,0,0,0,0-21.19.83.83,0,0,0-1.12-.38.84.84,0,0,0-.39,1.12,22.44,22.44,0,0,1,0,19.71A.83.83,0,0,0,103.05,477.1Z" fill="none" stroke="#003a50" stroke-miterlimit="10"/><path d="M107.72,477.1a.86.86,0,0,0,.46.76.85.85,0,0,0,1.13-.39,24.13,24.13,0,0,0,0-21.19.83.83,0,0,0-1.12-.38.84.84,0,0,0-.39,1.12,22.44,22.44,0,0,1,0,19.71A.83.83,0,0,0,107.72,477.1Z" fill="none" stroke="#003a50" stroke-miterlimit="10"/><path d="M112.39,477.1a.86.86,0,0,0,.46.76.85.85,0,0,0,1.13-.39,24.13,24.13,0,0,0,0-21.19.83.83,0,0,0-1.12-.38.84.84,0,0,0-.39,1.12,22.44,22.44,0,0,1,0,19.71A.83.83,0,0,0,112.39,477.1Z" fill="none" stroke="#003a50" stroke-miterlimit="10"/><path d="M117.05,477.1a.87.87,0,0,0,.47.76.85.85,0,0,0,1.13-.39,24.13,24.13,0,0,0,0-21.19.83.83,0,0,0-1.12-.38.84.84,0,0,0-.39,1.12,22.44,22.44,0,0,1,0,19.71A.84.84,0,0,0,117.05,477.1Z" fill="none" stroke="#003a50" stroke-miterlimit="10"/><path d="M121.72,477.1a.87.87,0,0,0,.47.76.85.85,0,0,0,1.13-.39,24.13,24.13,0,0,0,0-21.19.83.83,0,0,0-1.12-.38.84.84,0,0,0-.39,1.12,22.44,22.44,0,0,1,0,19.71A.84.84,0,0,0,121.72,477.1Z" fill="none" stroke="#003a50" stroke-miterlimit="10"/><path d="M126.39,477.1a.87.87,0,0,0,.47.76.85.85,0,0,0,1.13-.39,24.13,24.13,0,0,0,0-21.19.83.83,0,0,0-1.12-.38.84.84,0,0,0-.39,1.12,22.44,22.44,0,0,1,0,19.71A.84.84,0,0,0,126.39,477.1Z" fill="none" stroke="#003a50" stroke-miterlimit="10"/><path d="M98.38,477.1a.86.86,0,0,0,.46.76.85.85,0,0,0,1.13-.39,24.13,24.13,0,0,0,0-21.19.83.83,0,0,0-1.12-.38.84.84,0,0,0-.39,1.12,22.44,22.44,0,0,1,0,19.71A.83.83,0,0,0,98.38,477.1Z" fill="none" stroke="#003a50" stroke-miterlimit="10"/><path d="M93.71,477.1a.86.86,0,0,0,.46.76.85.85,0,0,0,1.13-.39,24.13,24.13,0,0,0,0-21.19.83.83,0,0,0-1.12-.38.84.84,0,0,0-.39,1.12,22.44,22.44,0,0,1,0,19.71A.83.83,0,0,0,93.71,477.1Z" fill="none" stroke="#003a50" stroke-miterlimit="10"/></g><line x1="85.18" y1="466.88" x2="134.74" y2="466.88" fill="none" stroke="#003a50" stroke-miterlimit="10"/><g clip-path="url(#clip-path)"><path d="M127.07,333.66h3.08A38.71,38.71,0,0,0,168.86,295H127.07" fill="none" stroke="#003a50" stroke-miterlimit="10" stroke-width="1.6"/><path d="M264.43,452.48v3.42a43,43,0,0,1-43,43V452.48" fill="none" stroke="#003a50" stroke-miterlimit="10" stroke-width="1.6"/><path d="M236.8,250.49v-3.42a43,43,0,0,0-43-43v46.4" fill="none" stroke="#003a50" stroke-miterlimit="10" stroke-width="1.6"/><path d="M133.76,250.49v-3.57A44.88,44.88,0,0,1,178.64,202v48.45" fill="none" stroke="#003a50" stroke-miterlimit="10" stroke-width="1.6"/><path d="M214.83,572h3.41a43,43,0,0,1,43,43H214.83" fill="none" stroke="#003a50" stroke-miterlimit="10" stroke-width="1.6"/><path d="M-44,432h3.89A48.89,48.89,0,0,0,8.76,383.08H-44" fill="none" stroke="#003a50" stroke-miterlimit="10" stroke-width="1.6"/><path d="M72.19,437.43H68.31a48.89,48.89,0,0,1-48.9-48.89H72.19" fill="none" stroke="#003a50" stroke-miterlimit="10" stroke-width="1.6"/><path d="M-46.31,712.27h4.06A51.13,51.13,0,0,0,8.88,661.15H-46.31" fill="none" stroke="#003a50" stroke-miterlimit="10" stroke-width="1.6"/><line x1="211.87" y1="445.73" x2="157.38" y2="445.73" fill="none" stroke="#003a50" stroke-miterlimit="10" stroke-width="1.6"/><polygon points="-66.61 51.39 29.13 51.39 29.13 2.06 -66.61 13.72 -66.61 51.39" fill="#003a50" fill-rule="evenodd"/><rect x="185.86" y="3.56" width="26.7" height="47.83" fill="#003a50"/><rect x="116.89" y="17.39" width="91.66" height="34" fill="#003a50"/><rect x="-55.32" y="30.23" width="77.33" height="27.33" fill="#003a50"/><polygon points="299.62 51.39 395.36 51.39 395.36 2.06 299.62 13.72 299.62 51.39" fill="#003a50" fill-rule="evenodd"/><rect x="310.91" y="30.23" width="77.33" height="27.33" fill="#003a50"/><rect x="316.96" y="474.54" width="80" height="13.79" fill="#003a50"/><rect x="-56.97" y="363.91" width="142" height="16.69" fill="#003a50"/><rect x="68.71" y="372.44" width="16.32" height="16.79" fill="#003a50"/><rect x="68.71" y="436.49" width="16.32" height="201.07" fill="#003a50"/><rect x="68.71" y="629.38" width="16.32" height="21.06" fill="#003a50"/><rect x="103.78" y="637.56" width="10.75" height="78.67" fill="#003a50"/><rect x="72.19" y="635.21" width="42.34" height="15.54" fill="#003a50"/><rect x="103.78" y="669.85" width="447.72" height="16.32" fill="#003a50"/><rect x="-0.51" y="53.19" width="16.32" height="314.78" fill="#003a50"/><polygon points="547.49 562.09 547.49 466.35 596.83 466.35 585.16 562.09 547.49 562.09" fill="#003a50" fill-rule="evenodd"/><polygon points="547.49 285.94 547.49 190.2 596.83 190.2 585.16 285.94 547.49 285.94" fill="#003a50" fill-rule="evenodd"/><rect x="547.5" y="648.25" width="37.77" height="96.07" fill="#003a50"/><rect x="547.5" y="362.29" width="48.33" height="25.9" fill="#003a50"/><rect x="541.53" y="209.97" width="11.25" height="75.96" fill="#003a50"/><rect x="541.53" y="468.31" width="11.25" height="77.3" fill="#003a50"/><rect x="547.15" y="16.35" width="35.34" height="33.74" fill="#003a50"/><rect x="484.2" y="3.79" width="94.3" height="46.32" fill="#003a50"/><rect x="569.92" y="3.79" width="25.9" height="30.61" fill="#003a50"/><rect x="124.32" y="250.97" width="6.38" height="44.81" fill="#003a50"/><rect x="14.29" y="248.23" width="70.74" height="6.38" fill="#003a50"/><rect x="14.28" y="279.83" width="25.64" height="6.38" fill="#003a50"/><rect x="124.32" y="332.83" width="6.38" height="52.05" fill="#003a50"/><rect x="263.6" y="449.73" width="58.83" height="6.38" fill="#003a50"/><rect x="235.96" y="246.86" width="131.44" height="6.38" fill="#003a50"/><rect x="184.84" y="47.54" width="6.38" height="200.68" fill="#003a50"/><rect x="178.64" y="246.86" width="16.12" height="6.38" fill="#003a50"/><rect x="316.96" y="449.73" width="6.38" height="131.31" fill="#003a50"/><rect x="388.84" y="481.95" width="158.31" height="6.38" fill="#003a50"/><rect x="316.96" y="636.29" width="6.38" height="41.71" fill="#003a50"/><rect x="212.08" y="452.49" width="6.38" height="120.39" fill="#003a50"/><rect x="116.97" y="520.83" width="98.3" height="6.38" fill="#003a50"/><rect x="83.47" y="482.66" width="57.8" height="6.38" fill="#003a50"/><rect x="134.89" y="449.73" width="6.38" height="37.04" fill="#003a50"/><rect x="212.08" y="613.9" width="6.38" height="60.48" fill="#003a50"/><rect x="137.22" y="449.73" width="6.38" height="6.38" fill="#003a50"/><rect x="184.62" y="449.73" width="37.95" height="6.38" fill="#003a50"/><rect x="185.73" y="378.65" width="86.7" height="6.38" fill="#003a50"/><rect x="267.56" y="250.05" width="6.38" height="134.83" fill="#003a50"/><rect x="267.56" y="250.05" width="16.38" height="134.97" fill="#003a50"/><rect x="242.95" y="251.97" width="6.38" height="29.3" fill="#003a50"/><rect x="246.98" y="274.89" width="35.15" height="6.38" fill="#003a50"/><rect x="37.26" y="361.43" width="91.06" height="8.85" fill="#003a50"/><rect x="4.1" y="248.23" width="130.29" height="6.38" fill="#003a50"/><rect x="361.03" y="52.79" width="6.38" height="200.44" fill="#003a50"/><rect x="34.82" y="251.63" width="6.38" height="118.66" fill="#003a50"/><rect x="-24.32" y="327.71" width="25.64" height="6.38" fill="#003a50"/><rect x="214.88" y="639.09" width="23.58" height="6.38" fill="#003a50"/><rect x="235.27" y="639.09" width="6.38" height="40.58" fill="#003a50"/><rect x="68.71" y="642.97" width="6.38" height="73.25" fill="#003a50"/><rect x="235.27" y="676.89" width="6.38" height="40.22" fill="#003a50"/><rect x="78.93" y="567.18" width="41.22" height="6.38" fill="#003a50"/><rect x="84.4" y="532.51" width="33.64" height="6.38" fill="#003a50"/><rect x="100.18" y="648.55" width="6.38" height="58.66" fill="#003a50"/><rect x="113.78" y="485.04" width="6.38" height="86.32" fill="#003a50"/><line x1="321.76" y1="567.79" x2="321.76" y2="570.63" fill="none" stroke="#003a50" stroke-miterlimit="10"/><line x1="321.76" y1="575.87" x2="321.76" y2="636.12" fill="none" stroke="#003a50" stroke-miterlimit="10" stroke-dasharray="5.24 5.24"/><line x1="321.76" y1="638.74" x2="321.76" y2="641.58" fill="none" stroke="#003a50" stroke-miterlimit="10"/><rect x="-124.15" y="241.61" width="125.47" height="6.38" fill="#003a50"/></g><g clip-path="url(#clip-path)"><path d="M156.71,602.3a5,5,0,0,1,3.33,1.06,4.16,4.16,0,0,1,0,6,5.38,5.38,0,0,1-3.54,1.08,5.8,5.8,0,0,1-3.57-1,3.18,3.18,0,0,1-1.28-2.68h2.11a1.53,1.53,0,0,0,.7,1.33,3.61,3.61,0,0,0,2,.49,3.11,3.11,0,0,0,2-.58,2.34,2.34,0,0,0,0-3.38,3.25,3.25,0,0,0-2.07-.59,3.6,3.6,0,0,0-1.92.42,1.87,1.87,0,0,0-.69.64l-.05.12h-2.11v-6.87h8.87v1.84h-6.76v3h.05a1.68,1.68,0,0,1,.4-.31,3.4,3.4,0,0,1,.54-.27A5.92,5.92,0,0,1,156.71,602.3Z" fill="#003a50"/><path d="M163.41,610.14a1,1,0,0,1-.33-.8,1,1,0,0,1,.33-.81,1.23,1.23,0,0,1,.87-.3,1.2,1.2,0,0,1,.86.3,1,1,0,0,1,.33.81,1,1,0,0,1-.33.8,1.2,1.2,0,0,1-.86.3A1.23,1.23,0,0,1,163.41,610.14Z" fill="#003a50"/><path d="M177.19,610.28h-9.94v-1.57a2.83,2.83,0,0,1,.58-1.74,4,4,0,0,1,1.45-1.19c.5-.26,1.12-.55,1.87-.87s1.32-.55,1.87-.77a4.26,4.26,0,0,0,1.45-.91,1.82,1.82,0,0,0,.57-1.31c0-1.26-.89-1.88-2.66-1.88s-2.68.72-2.68,2.16v.4h-2.11v-.4a3.6,3.6,0,0,1,1.27-3,5.34,5.34,0,0,1,3.51-1,5.72,5.72,0,0,1,3.51,1,3.29,3.29,0,0,1,1.27,2.75,3.17,3.17,0,0,1-.55,1.84,4.39,4.39,0,0,1-1.41,1.3q-.9.51-1.83.93t-1.83.75a5.26,5.26,0,0,0-1.4.75,1.22,1.22,0,0,0-.57,1h7.63Z" fill="#003a50"/><path d="M294.11,601.72H291.9s0-.06,0-.17a2.53,2.53,0,0,0-.22-.44,2.4,2.4,0,0,0-.39-.5,1.77,1.77,0,0,0-.71-.41,2.93,2.93,0,0,0-1-.16,2.51,2.51,0,0,0-2.15,1,4.39,4.39,0,0,0-.76,2.68h.06a1.49,1.49,0,0,1,.44-.43,3.9,3.9,0,0,1,.6-.37,4,4,0,0,1,.95-.3,5.56,5.56,0,0,1,1.22-.13,5,5,0,0,1,3.37,1.11,3.52,3.52,0,0,1,1.31,2.8,3.57,3.57,0,0,1-1.37,2.91,5.55,5.55,0,0,1-3.6,1.1,4.81,4.81,0,0,1-3.87-1.54,6.38,6.38,0,0,1-1.32-4.27v-.41a6.85,6.85,0,0,1,1.32-4.31,4.52,4.52,0,0,1,3.8-1.71,5.87,5.87,0,0,1,2.13.37,4,4,0,0,1,1.44.94A3.45,3.45,0,0,1,294.11,601.72Zm-2.51,3.15a3.65,3.65,0,0,0-4,0,2,2,0,0,0,0,3.15,3.63,3.63,0,0,0,4,0,2,2,0,0,0,0-3.15Z" fill="#003a50"/><path d="M296.76,610.14a1,1,0,0,1-.32-.8,1,1,0,0,1,.32-.81,1.41,1.41,0,0,1,1.74,0,1.07,1.07,0,0,1,.32.81,1,1,0,0,1-.32.8,1.41,1.41,0,0,1-1.74,0Z" fill="#003a50"/><path d="M300.9,606.93h2.21s0,.07,0,.18a2.07,2.07,0,0,0,.23.43,2.37,2.37,0,0,0,.41.49,2.2,2.2,0,0,0,.75.41,3.21,3.21,0,0,0,1,.17,2.67,2.67,0,0,0,2.24-1.07,4.29,4.29,0,0,0,.81-2.7h-.06a2.24,2.24,0,0,1-.44.46,2.42,2.42,0,0,1-.6.4,3.5,3.5,0,0,1-1,.32,5.5,5.5,0,0,1-1.22.14A5,5,0,0,1,302,605a3.6,3.6,0,0,1-1.31-2.82,3.56,3.56,0,0,1,1.36-2.9,5.49,5.49,0,0,1,3.6-1.11,4.83,4.83,0,0,1,3.88,1.55,6.35,6.35,0,0,1,1.32,4.26v.41a6.65,6.65,0,0,1-1.38,4.31,4.67,4.67,0,0,1-3.88,1.71,6,6,0,0,1-2.17-.37,3.86,3.86,0,0,1-1.48-1A3.35,3.35,0,0,1,300.9,606.93Zm2.77-3.16a3.6,3.6,0,0,0,3.95,0,1.9,1.9,0,0,0,.78-1.57,1.88,1.88,0,0,0-.78-1.58,3.21,3.21,0,0,0-2-.58,3.17,3.17,0,0,0-2,.58,2,2,0,0,0,0,3.15Z" fill="#003a50"/><path d="M153.33,465.17l-2.49,1.95v-2.24l2.74-2.27h1.86v11.91h-2.11Z" fill="#003a50"/><path d="M158,474.39a1,1,0,0,1-.32-.81,1,1,0,0,1,.32-.81,1.45,1.45,0,0,1,1.74,0,1.07,1.07,0,0,1,.32.81,1,1,0,0,1-.32.81,1.45,1.45,0,0,1-1.74,0Z" fill="#003a50"/><path d="M170.54,473.75a7.75,7.75,0,0,1-7.36,0,2.94,2.94,0,0,1-1.37-2.56,2.66,2.66,0,0,1,.25-1.16,2.32,2.32,0,0,1,.66-.86,3.94,3.94,0,0,1,1.39-.77l.26-.07v-.09a3.32,3.32,0,0,1-.76-.29,2.68,2.68,0,0,1-.67-.44,2.24,2.24,0,0,1-.54-.76,2.38,2.38,0,0,1-.22-1,2.81,2.81,0,0,1,1.25-2.38,7,7,0,0,1,6.85,0,2.83,2.83,0,0,1,1.25,2.38,2.5,2.5,0,0,1-.22,1,2,2,0,0,1-.55.74,3.72,3.72,0,0,1-1.2.68l-.22.05v.09l.28.07a4.41,4.41,0,0,1,1.4.77,2.82,2.82,0,0,1,.61.82,2.71,2.71,0,0,1,.27,1.2A2.94,2.94,0,0,1,170.54,473.75Zm-5.79-1.35a3.84,3.84,0,0,0,2.1.48,4,4,0,0,0,2.11-.47,1.61,1.61,0,0,0,0-2.7,4.95,4.95,0,0,0-4.21,0,1.53,1.53,0,0,0-.74,1.35A1.51,1.51,0,0,0,164.75,472.4Zm-.36-6.52a1.35,1.35,0,0,0,.64,1.19,4,4,0,0,0,3.65,0,1.35,1.35,0,0,0,.64-1.19,1.38,1.38,0,0,0-.65-1.2,3.29,3.29,0,0,0-1.82-.43,3.25,3.25,0,0,0-1.81.43A1.38,1.38,0,0,0,164.39,465.88Z" fill="#003a50"/><path d="M475.25,621.23l-2.48,1.95v-2.24l2.73-2.27h1.86v11.91h-2.11Z" fill="#003a50"/><path d="M486.08,620.52h-5.82v-1.85h8.86v1.85l-4.52,2.65v.06h1.28a3.87,3.87,0,0,1,2.79,1,3.52,3.52,0,0,1,1.05,2.66,3.33,3.33,0,0,1-1.33,2.83,7,7,0,0,1-7.24,0,3.37,3.37,0,0,1-1.33-2.86v-.32h2.11v.32c0,1.36.95,2,2.84,2s2.84-.66,2.84-2-.95-2-2.84-2h-3.26v-1.67l4.57-2.69Z" fill="#003a50"/><path d="M491.82,630.45a1,1,0,0,1-.32-.8,1.07,1.07,0,0,1,.32-.81,1.41,1.41,0,0,1,1.74,0,1.07,1.07,0,0,1,.32.81,1,1,0,0,1-.32.8,1.41,1.41,0,0,1-1.74,0Z" fill="#003a50"/><path d="M504.15,630.58H502v-2.65h-7v-1.84l6.29-7.42h2.79v7.42h1.6v1.84h-1.6ZM502,626.09v-5.32H502L497.5,626v.05Z" fill="#003a50"/><path d="M108.48,397,106,398.9v-2.24l2.74-2.27h1.86V406.3h-2.11Z" fill="#003a50"/><path d="M114.6,404.76a7.37,7.37,0,0,1,0-8.83,5.69,5.69,0,0,1,8.13,0,7.33,7.33,0,0,1,0,8.83,5.71,5.71,0,0,1-8.13,0Zm6.53-1.38a5.75,5.75,0,0,0,0-6.08,3.16,3.16,0,0,0-4.91,0,5.69,5.69,0,0,0,0,6.08,2.86,2.86,0,0,0,2.45,1.18A2.89,2.89,0,0,0,121.13,403.38Z" fill="#003a50"/><path d="M126.41,406.17a1,1,0,0,1-.33-.81,1,1,0,0,1,.33-.81,1.44,1.44,0,0,1,1.73,0,1,1,0,0,1,.33.81,1,1,0,0,1-.33.81,1.44,1.44,0,0,1-1.73,0Z" fill="#003a50"/><path d="M140,397.74h-2.21s0-.06,0-.17a2.53,2.53,0,0,0-.22-.44,2.28,2.28,0,0,0-.38-.5,2.08,2.08,0,0,0-.71-.41,3,3,0,0,0-1-.16,2.49,2.49,0,0,0-2.15,1,4.39,4.39,0,0,0-.77,2.68h.06a1.8,1.8,0,0,1,.44-.43,3.55,3.55,0,0,1,.61-.37,4.87,4.87,0,0,1,.95-.3,5.41,5.41,0,0,1,1.21-.13,5.06,5.06,0,0,1,3.38,1.11,3.51,3.51,0,0,1,1.3,2.8,3.57,3.57,0,0,1-1.36,2.91,5.52,5.52,0,0,1-3.61,1.1,4.81,4.81,0,0,1-3.87-1.54,6.36,6.36,0,0,1-1.32-4.27v-.41a6.85,6.85,0,0,1,1.32-4.31,4.52,4.52,0,0,1,3.81-1.71,5.61,5.61,0,0,1,2.12.38,3.72,3.72,0,0,1,1.44.94A3.44,3.44,0,0,1,140,397.74Zm-2.51,3.15a3.67,3.67,0,0,0-4,0,2,2,0,0,0,0,3.15,3.21,3.21,0,0,0,2,.59,3.26,3.26,0,0,0,2-.59,2,2,0,0,0,0-3.15Z" fill="#003a50"/><path d="M96.74,184.18l-2.48,1.95v-2.24L97,181.62h1.86v11.91H96.74Z" fill="#003a50"/><path d="M103.37,184.18l-2.49,1.95v-2.24l2.74-2.27h1.86v11.91h-2.11Z" fill="#003a50"/><path d="M108,193.4a1,1,0,0,1-.32-.81,1.07,1.07,0,0,1,.32-.81,1.45,1.45,0,0,1,1.74,0,1.07,1.07,0,0,1,.32.81,1,1,0,0,1-.32.81,1.45,1.45,0,0,1-1.74,0Z" fill="#003a50"/><path d="M113.91,184.18l-2.49,1.95v-2.24l2.74-2.27H116v11.91h-2.11Z" fill="#003a50"/><path d="M238.64,184.18l-2.48,1.95v-2.24l2.73-2.27h1.86v11.91h-2.11Z" fill="#003a50"/><path d="M245.27,184.18l-2.49,1.95v-2.24l2.73-2.27h1.86v11.91h-2.1Z" fill="#003a50"/><path d="M249.9,193.4a1,1,0,0,1-.32-.81,1,1,0,0,1,.32-.81,1.45,1.45,0,0,1,1.74,0,1.07,1.07,0,0,1,.32.81,1,1,0,0,1-.32.81,1.45,1.45,0,0,1-1.74,0Z" fill="#003a50"/><path d="M255.8,184.18l-2.48,1.95v-2.24l2.73-2.27h1.86v11.91H255.8Z" fill="#003a50"/><path d="M481.16,248.06h-5.83v-1.84h8.87v1.84l-4.53,2.65v.07H481a3.86,3.86,0,0,1,2.79,1,3.52,3.52,0,0,1,1.05,2.66,3.33,3.33,0,0,1-1.33,2.83,7,7,0,0,1-7.24,0,3.39,3.39,0,0,1-1.33-2.86v-.32H477v.32c0,1.36.95,2,2.84,2s2.84-.67,2.84-2-.94-2-2.84-2h-3.26v-1.67l4.58-2.68Z" fill="#003a50"/><path d="M488.89,248.77l-2.49,2v-2.25l2.74-2.26H491v11.91h-2.11Z" fill="#003a50"/><path d="M493.52,258a1,1,0,0,1-.32-.8,1.07,1.07,0,0,1,.32-.81,1.41,1.41,0,0,1,1.74,0,1.07,1.07,0,0,1,.32.81,1,1,0,0,1-.32.8,1.41,1.41,0,0,1-1.74,0Z" fill="#003a50"/><path d="M497.66,254.78h2.21s0,.07,0,.18a2.6,2.6,0,0,0,.64.91,2,2,0,0,0,.75.42,3.21,3.21,0,0,0,1.05.17,2.67,2.67,0,0,0,2.24-1.07,4.29,4.29,0,0,0,.81-2.7h-.06a2.24,2.24,0,0,1-.44.46,2.73,2.73,0,0,1-.6.4,3.74,3.74,0,0,1-.95.32,5.43,5.43,0,0,1-1.22.14,5,5,0,0,1-3.37-1.13,3.74,3.74,0,0,1,.05-5.73,5.57,5.57,0,0,1,3.61-1.1,4.84,4.84,0,0,1,3.87,1.54,6.4,6.4,0,0,1,1.32,4.27v.41a6.7,6.7,0,0,1-1.37,4.31,4.71,4.71,0,0,1-3.89,1.71,6,6,0,0,1-2.17-.37,3.94,3.94,0,0,1-1.48-.95A3.35,3.35,0,0,1,497.66,254.78Zm2.77-3.17a3.6,3.6,0,0,0,3.95,0,1.85,1.85,0,0,0,.78-1.57,1.87,1.87,0,0,0-.78-1.57,3.21,3.21,0,0,0-2-.58,3.17,3.17,0,0,0-2,.58,1.85,1.85,0,0,0-.78,1.57A1.87,1.87,0,0,0,500.43,251.61Z" fill="#003a50"/><path d="M108.1,314.17h-5.82v-1.84h8.86v1.84l-4.52,2.65v.07h1.28a3.86,3.86,0,0,1,2.79,1,3.52,3.52,0,0,1,1,2.66,3.33,3.33,0,0,1-1.33,2.83,7,7,0,0,1-7.24,0,3.36,3.36,0,0,1-1.33-2.86v-.32H104v.32c0,1.36,1,2,2.84,2s2.84-.67,2.84-2-.95-2-2.84-2h-3.26v-1.67l4.57-2.68Z" fill="#003a50"/><path d="M113.84,324.1a1,1,0,0,1-.32-.8,1.07,1.07,0,0,1,.32-.81,1.41,1.41,0,0,1,1.74,0,1.07,1.07,0,0,1,.32.81,1,1,0,0,1-.32.8,1.41,1.41,0,0,1-1.74,0Z" fill="#003a50"/><path d="M119.75,314.88l-2.49,2v-2.25l2.74-2.26h1.86v11.91h-2.11Z" fill="#003a50"/></g></svg>