<svg id="Слой_1" data-name="Слой 1" xmlns="http://www.w3.org/2000/svg" xmlns:xlink="http://www.w3.org/1999/xlink" viewBox="0 0 581.1 362.83"><defs><clipPath id="clip-path"><polygon points="0 0.21 0 362.62 581.1 362.62 581.1 190.06 493.54 190.06 493.54 134.55 310.45 134.55 310.45 0.21 0 0.21" fill="none"/></clipPath></defs><polygon points="16.91 7.33 16.91 129.98 16.91 169.68 16.91 349.36 517.55 353.01 512.9 309.04 512.9 259.8 514.13 190.06 493.54 190.06 493.54 134.55 492.22 134.55 492.22 135.7 308.72 135.7 308.72 6.31 16.91 7.33" fill="#fff"/><polygon points="505.91 360.91 15.82 360.91 15.82 362.62 526.09 362.62 526.09 360.61 505.91 360.91" fill="#fff"/><g clip-path="url(#clip-path)"><rect x="3.38" y="-1261.93" width="1162.95" height="2240.57" fill="none" stroke="#003a50" stroke-miterlimit="10"/><polygon points="15.96 -157.76 15.96 965.79 1153.35 965.79 1153.35 -1248.98 15.96 -1249.14 15.96 -228.47 15.96 -157.76" fill="none" stroke="#003a50" stroke-miterlimit="10"/></g><rect x="36.58" y="214.86" width="4.55" height="87.8" fill="#fff"/><rect x="36.58" y="214.86" width="4.55" height="87.8" fill="none" stroke="#003a50" stroke-miterlimit="10"/><line x1="38.86" y1="302.66" x2="38.86" y2="214.86" fill="none" stroke="#003a50" stroke-miterlimit="10"/><rect x="36.58" y="298.11" width="4.55" height="4.55" fill="#fff"/><rect x="36.58" y="298.11" width="4.55" height="4.55" fill="none" stroke="#003a50" stroke-miterlimit="10"/><rect x="36.58" y="214.86" width="4.55" height="4.55" fill="#fff"/><rect x="36.58" y="214.86" width="4.55" height="4.55" fill="none" stroke="#003a50" stroke-miterlimit="10"/><rect x="36.58" y="255.41" width="4.55" height="4.55" fill="#fff"/><rect x="36.58" y="255.41" width="4.55" height="4.55" fill="none" stroke="#003a50" stroke-miterlimit="10"/><g clip-path="url(#clip-path)"><path d="M41.13,255.41H44c20.15,0,33.1-16.12,33.1-36h-36" fill="none" stroke="#003a50" stroke-miterlimit="10"/></g><rect x="36.58" y="35.82" width="4.55" height="89.18" fill="#fff"/><rect x="36.58" y="35.82" width="4.55" height="89.18" fill="none" stroke="#003a50" stroke-miterlimit="10"/><line x1="38.86" y1="35.82" x2="38.86" y2="125.01" fill="none" stroke="#003a50" stroke-miterlimit="10"/><rect x="36.58" y="35.82" width="4.55" height="4.75" fill="#fff"/><rect x="36.58" y="35.82" width="4.55" height="4.75" fill="none" stroke="#003a50" stroke-miterlimit="10"/><rect x="36.58" y="120.25" width="4.55" height="4.75" fill="#fff"/><rect x="36.58" y="120.25" width="4.55" height="4.75" fill="none" stroke="#003a50" stroke-miterlimit="10"/><rect x="36.58" y="77.91" width="4.55" height="4.75" fill="#fff"/><rect x="36.58" y="77.91" width="4.55" height="4.75" fill="none" stroke="#003a50" stroke-miterlimit="10"/><g clip-path="url(#clip-path)"><path d="M41.13,82.66H44c20.15,0,33.1,16.83,33.1,37.59h-36" fill="none" stroke="#003a50" stroke-miterlimit="10"/></g><rect x="371.02" y="151.54" width="42.38" height="92.09" fill="none" stroke="#003a50" stroke-miterlimit="10"/><g clip-path="url(#clip-path)"><rect x="375.99" y="155.34" width="32.03" height="84.24" rx="13.7" fill="none" stroke="#003a50" stroke-miterlimit="10"/><path d="M394.29,169.91a2.2,2.2,0,1,0-2.2,2.2A2.2,2.2,0,0,0,394.29,169.91Z" fill="none" stroke="#003a50" stroke-miterlimit="10"/><path d="M458.92,224h28.56V200.87H458.92a11.54,11.54,0,0,0,0,23.08Z" fill="none" stroke="#003a50" stroke-miterlimit="10"/></g><rect x="476.4" y="200.87" width="11.08" height="23.08" fill="none" stroke="#003a50" stroke-miterlimit="10"/><g clip-path="url(#clip-path)"><path d="M471.56,157.51a3.4,3.4,0,0,0,3.13-2.1h1.93l5.09,3.05-2.31,3.77-2.66-1.46v11.82H465.65V160.77L463,162.23l-2.31-3.77,5.14-3.05h2.57A3.45,3.45,0,0,0,471.56,157.51Z" fill="none" stroke="#003a50" stroke-miterlimit="10"/></g><rect x="454.24" y="151.19" width="33.92" height="25.63" fill="none" stroke="#003a50" stroke-miterlimit="10"/><rect x="331.91" y="215.53" width="32.72" height="33.97" fill="none" stroke="#003a50" stroke-miterlimit="10"/><g clip-path="url(#clip-path)"><path d="M352.58,231V219.94H344V231a3.55,3.55,0,0,0,3.55,3.55H349A3.55,3.55,0,0,0,352.58,231Z" fill="none" stroke="#003a50" stroke-miterlimit="10"/></g><polyline points="344.8 245.09 348.28 245.09 351.75 245.09" fill="none" stroke="#003a50" stroke-miterlimit="10"/><line x1="348.28" y1="234.53" x2="348.28" y2="245.09" fill="none" stroke="#003a50" stroke-miterlimit="10"/><rect x="276.63" y="151.11" width="31.88" height="31.88" fill="none" stroke="#003a50" stroke-miterlimit="10"/><g clip-path="url(#clip-path)"><path d="M304.19,174.18a4.35,4.35,0,1,1-4.34-4.35A4.34,4.34,0,0,1,304.19,174.18Z" fill="none" stroke="#003a50" stroke-miterlimit="10"/><path d="M289.68,174.18a4.35,4.35,0,1,1-4.34-4.35A4.34,4.34,0,0,1,289.68,174.18Z" fill="none" stroke="#003a50" stroke-miterlimit="10"/><path d="M304.19,160a4.35,4.35,0,1,1-4.34-4.34A4.34,4.34,0,0,1,304.19,160Z" fill="none" stroke="#003a50" stroke-miterlimit="10"/><path d="M289.68,160a4.35,4.35,0,1,1-4.34-4.34A4.34,4.34,0,0,1,289.68,160Z" fill="none" stroke="#003a50" stroke-miterlimit="10"/><rect x="318.32" y="362.58" width="34.02" height="34.02" fill="none" stroke="#003a50" stroke-miterlimit="10"/></g><rect x="82.96" y="159.99" width="102.05" height="17.01" fill="none" stroke="#003a50" stroke-miterlimit="10"/><polygon points="90.99 167.96 133.88 171.48 176.99 167.96 176.99 165.5 90.99 165.5 90.99 167.96" fill="none" stroke="#003a50" stroke-miterlimit="10"/><rect x="74.3" y="183.38" width="102.05" height="17.01" fill="none" stroke="#003a50" stroke-miterlimit="10"/><polygon points="168.32 192.42 125.42 188.89 82.32 192.42 82.32 194.88 168.32 194.88 168.32 192.42" fill="none" stroke="#003a50" stroke-miterlimit="10"/><g clip-path="url(#clip-path)"><rect x="304.47" y="363" width="58.79" height="33.59" fill="none" stroke="#003a50" stroke-miterlimit="10"/><rect x="363.26" y="363" width="32.72" height="102.57" fill="none" stroke="#003a50" stroke-miterlimit="10"/></g><rect x="267.42" y="149.39" width="64.49" height="33.59" fill="none" stroke="#003a50" stroke-miterlimit="10"/><rect x="331.91" y="146.93" width="32.72" height="102.57" fill="none" stroke="#003a50" stroke-miterlimit="10"/><g clip-path="url(#clip-path)"><path d="M298.49,283.89a1.26,1.26,0,0,1-.95-1.51,13.78,13.78,0,0,0-26.87-6.16,1.26,1.26,0,1,1-2.45-.56A16.3,16.3,0,0,1,300,283,1.26,1.26,0,0,1,298.49,283.89Z" fill="none" stroke="#003a50" stroke-miterlimit="10"/><path d="M243.32,274.17a1.26,1.26,0,0,1-1.75.34,13.78,13.78,0,1,0-15.52,22.78,1.26,1.26,0,0,1-1.42,2.08A16.3,16.3,0,0,1,243,272.43,1.25,1.25,0,0,1,243.32,274.17Z" fill="none" stroke="#003a50" stroke-miterlimit="10"/><path d="M240.81,321.58a1.27,1.27,0,0,1,1.34,1.18,13.78,13.78,0,1,0,27.52-1.63,1.25,1.25,0,0,1,1.18-1.33,1.26,1.26,0,0,1,1.33,1.18,16.3,16.3,0,0,1-32.55,1.93A1.26,1.26,0,0,1,240.81,321.58Z" fill="none" stroke="#003a50" stroke-miterlimit="10"/><path d="M284.29,267.28a12.69,12.69,0,0,1,12,15.48l-2,8.88a3.53,3.53,0,0,1-4.24,2.68l-13.44-3.08a23.73,23.73,0,0,0-6-9.44l1-4.2C272.89,271.64,278.17,267.08,284.29,267.28Z" fill="none" stroke="#003a50" stroke-miterlimit="10"/><path d="M241.49,275.8l2.32,1.6a23.81,23.81,0,0,0-13.64,21.32L227.65,297c-5-3.44-7.4-10-5-15.64A12.7,12.7,0,0,1,241.49,275.8Z" fill="none" stroke="#003a50" stroke-miterlimit="10"/><path d="M268.33,318.08l.12,2c.36,6.12-3.4,12-9.32,13.48A12.66,12.66,0,0,1,243.25,322l-.12-1.84a23.93,23.93,0,0,0,16.64,1.92A23.5,23.5,0,0,0,268.33,318.08Z" fill="none" stroke="#003a50" stroke-miterlimit="10"/><path d="M270.57,281.8a23.73,23.73,0,0,1,6,9.44,16.51,16.51,0,0,1,.6,2,23.85,23.85,0,0,1-8.84,24.84,23.5,23.5,0,0,1-8.56,4,23.87,23.87,0,0,1-28.92-17.4,22.12,22.12,0,0,1-.68-6,23.81,23.81,0,0,1,13.64-21.32,22.85,22.85,0,0,1,4.48-1.6A23.8,23.8,0,0,1,270.57,281.8Z" fill="none" stroke="#003a50" stroke-miterlimit="10"/><path d="M289.09,106a.94.94,0,0,1,.85.51.9.9,0,0,1-.43,1.22,28,28,0,0,1-23.81,0,.9.9,0,0,1-.43-1.22,1,1,0,0,1,1.27-.42,26,26,0,0,0,22.14,0A1,1,0,0,1,289.09,106Z" fill="none" stroke="#003a50" stroke-miterlimit="10"/><path d="M289.09,111a.94.94,0,0,1,.85.51.9.9,0,0,1-.43,1.22,28,28,0,0,1-23.81,0,.9.9,0,0,1-.43-1.22,1,1,0,0,1,1.27-.41,26.14,26.14,0,0,0,22.14,0A.86.86,0,0,1,289.09,111Z" fill="none" stroke="#003a50" stroke-miterlimit="10"/><path d="M289.09,116.09a.94.94,0,0,1,.85.51.9.9,0,0,1-.43,1.23,28.07,28.07,0,0,1-23.81,0,.9.9,0,0,1-.43-1.22,1,1,0,0,1,1.27-.42,26,26,0,0,0,22.14,0A.86.86,0,0,1,289.09,116.09Z" fill="none" stroke="#003a50" stroke-miterlimit="10"/><path d="M289.09,121.16a.93.93,0,0,1,.85.5.9.9,0,0,1-.43,1.23,28.07,28.07,0,0,1-23.81,0,.9.9,0,0,1-.43-1.22,1,1,0,0,1,1.27-.42,26,26,0,0,0,22.14,0A.85.85,0,0,1,289.09,121.16Z" fill="none" stroke="#003a50" stroke-miterlimit="10"/><path d="M289.09,126.22a.94.94,0,0,1,.85.51.9.9,0,0,1-.43,1.22,28,28,0,0,1-23.81,0,.9.9,0,0,1-.43-1.22,1,1,0,0,1,1.27-.41,26.14,26.14,0,0,0,22.14,0A.86.86,0,0,1,289.09,126.22Z" fill="none" stroke="#003a50" stroke-miterlimit="10"/><path d="M289.09,131.28a.94.94,0,0,1,.85.51.89.89,0,0,1-.43,1.22,28,28,0,0,1-23.81,0,.89.89,0,0,1-.43-1.22,1,1,0,0,1,1.27-.41,26,26,0,0,0,22.14,0A.86.86,0,0,1,289.09,131.28Z" fill="none" stroke="#003a50" stroke-miterlimit="10"/><path d="M289.09,100.9a.94.94,0,0,1,.85.51.9.9,0,0,1-.43,1.23,28.07,28.07,0,0,1-23.81,0,.9.9,0,0,1-.43-1.22,1,1,0,0,1,1.27-.42,26,26,0,0,0,22.14,0A.86.86,0,0,1,289.09,100.9Z" fill="none" stroke="#003a50" stroke-miterlimit="10"/><path d="M289.09,95.84a.94.94,0,0,1,.85.51.89.89,0,0,1-.43,1.22,28,28,0,0,1-23.81,0,.89.89,0,0,1-.43-1.22,1,1,0,0,1,1.27-.41,26,26,0,0,0,22.14,0A.86.86,0,0,1,289.09,95.84Z" fill="none" stroke="#003a50" stroke-miterlimit="10"/></g><line x1="277.61" y1="13.84" x2="277.61" y2="144.7" fill="none" stroke="#003a50" stroke-miterlimit="10"/><path d="M262.05,14.59h30.59V143H262.05Zm-1,129.41h32.59V13.59H261.05Z" fill="#003a50"/><rect x="413.78" y="151.43" width="73.99" height="25.39" fill="none" stroke="#003a50" stroke-miterlimit="10"/><g clip-path="url(#clip-path)"><rect x="417.81" y="149.71" width="24.4" height="25.04" rx="2.83" fill="none" stroke="#003a50" stroke-miterlimit="10"/><path d="M430,164.15a1.92,1.92,0,1,1,1.91-1.91A1.92,1.92,0,0,1,430,164.15Z" fill="none" stroke="#003a50" stroke-miterlimit="10"/></g><rect x="325.5" y="314.59" width="34.02" height="34.02" fill="none" stroke="#003a50" stroke-miterlimit="10"/><line x1="342.51" y1="341.58" x2="342.51" y2="321.62" fill="none" stroke="#003a50" stroke-miterlimit="10"/><line x1="352.49" y1="331.6" x2="332.53" y2="331.6" fill="none" stroke="#003a50" stroke-miterlimit="10"/><line x1="349.57" y1="338.66" x2="335.46" y2="324.55" fill="none" stroke="#003a50" stroke-miterlimit="10"/><line x1="349.57" y1="324.55" x2="335.46" y2="338.66" fill="none" stroke="#003a50" stroke-miterlimit="10"/><rect x="359.52" y="314.59" width="153.07" height="34.02" fill="none" stroke="#003a50" stroke-miterlimit="10"/><g clip-path="url(#clip-path)"><path d="M376.64,319.42a1,1,0,0,1,1.9-.45,28.77,28.77,0,0,1,0,25.26,1,1,0,0,1-1.8-.88,26.72,26.72,0,0,0,0-23.49A1,1,0,0,1,376.64,319.42Z" fill="none" stroke="#003a50" stroke-miterlimit="10"/><path d="M382.2,319.42a1,1,0,0,1,.56-.9,1,1,0,0,1,1.35.45,28.77,28.77,0,0,1,0,25.26,1,1,0,0,1-1.34.46,1,1,0,0,1-.46-1.34,26.81,26.81,0,0,0,0-23.49A1,1,0,0,1,382.2,319.42Z" fill="none" stroke="#003a50" stroke-miterlimit="10"/><path d="M387.77,319.42a1,1,0,0,1,1.9-.45,28.77,28.77,0,0,1,0,25.26,1,1,0,0,1-1.8-.88,26.72,26.72,0,0,0,0-23.49A1,1,0,0,1,387.77,319.42Z" fill="none" stroke="#003a50" stroke-miterlimit="10"/><path d="M393.33,319.42a1,1,0,0,1,.56-.9,1,1,0,0,1,1.35.45,28.77,28.77,0,0,1,0,25.26,1,1,0,0,1-1.34.46,1,1,0,0,1-.46-1.34,26.81,26.81,0,0,0,0-23.49A1,1,0,0,1,393.33,319.42Z" fill="none" stroke="#003a50" stroke-miterlimit="10"/><path d="M398.9,319.42a1,1,0,0,1,1.9-.45,28.77,28.77,0,0,1,0,25.26,1,1,0,1,1-1.8-.88,26.72,26.72,0,0,0,0-23.49A1,1,0,0,1,398.9,319.42Z" fill="none" stroke="#003a50" stroke-miterlimit="10"/><path d="M404.47,319.42a1,1,0,0,1,.56-.9,1,1,0,0,1,1.34.45,28.77,28.77,0,0,1,0,25.26,1,1,0,0,1-1.8-.88,26.72,26.72,0,0,0,0-23.49A1,1,0,0,1,404.47,319.42Z" fill="none" stroke="#003a50" stroke-miterlimit="10"/><path d="M371.07,319.42a1,1,0,0,1,.56-.9A1,1,0,0,1,373,319a28.77,28.77,0,0,1,0,25.26,1,1,0,0,1-1.34.46,1,1,0,0,1-.46-1.34,26.81,26.81,0,0,0,0-23.49A1,1,0,0,1,371.07,319.42Z" fill="none" stroke="#003a50" stroke-miterlimit="10"/><path d="M365.51,319.42a1,1,0,0,1,1.9-.45,28.77,28.77,0,0,1,0,25.26,1,1,0,0,1-1.8-.88,26.72,26.72,0,0,0,0-23.49A1,1,0,0,1,365.51,319.42Z" fill="none" stroke="#003a50" stroke-miterlimit="10"/></g><line x1="359.52" y1="331.6" x2="512.59" y2="331.6" fill="none" stroke="#003a50" stroke-miterlimit="10"/><g clip-path="url(#clip-path)"><path d="M131.42,302.3v41H85.66V300.09h43.55A2.2,2.2,0,0,1,131.42,302.3Z" fill="none" stroke="#003a50" stroke-miterlimit="10"/><path d="M177.29,302.07v41.26H131.52V302.07a2,2,0,0,1,2-2h41.8A2,2,0,0,1,177.29,302.07Z" fill="none" stroke="#003a50" stroke-miterlimit="10"/><path d="M85.65,300.09a3.1,3.1,0,0,0-3.32-2.83H78.11a3.11,3.11,0,0,0-3.33,2.83v48.19H188.17V300.51a3.11,3.11,0,0,0-3.33-2.83h-4.22a3.11,3.11,0,0,0-3.33,2.83v42.83H85.65Z" fill="none" stroke="#003a50" stroke-miterlimit="10"/></g><rect x="85.65" y="334.08" width="91.64" height="9.25" fill="none" stroke="#003a50" stroke-miterlimit="10"/><rect x="54" y="13.99" width="22.68" height="22.68" fill="none" stroke="#003a50" stroke-miterlimit="10"/><g clip-path="url(#clip-path)"><path d="M71.84,31.83a9.19,9.19,0,1,1,0-13A9.19,9.19,0,0,1,71.84,31.83Z" fill="none" stroke="#003a50" stroke-miterlimit="10"/><path d="M72.46,31.14c-1.69-.17-3.41.49-5.06-1.17-2.44-2.44.14-5-2.3-7.45s-5,.13-7.46-2.3" fill="none" stroke="#003a50" stroke-miterlimit="10"/></g><rect x="191.3" y="13.99" width="22.68" height="22.68" fill="none" stroke="#003a50" stroke-miterlimit="10"/><g clip-path="url(#clip-path)"><path d="M209.14,31.83a9.19,9.19,0,1,1,0-13A9.19,9.19,0,0,1,209.14,31.83Z" fill="none" stroke="#003a50" stroke-miterlimit="10"/><path d="M209.76,31.14c-1.69-.17-3.41.49-5.06-1.17-2.44-2.44.14-5-2.3-7.45s-5,.13-7.46-2.3" fill="none" stroke="#003a50" stroke-miterlimit="10"/></g><rect x="83" y="13.99" width="102.05" height="113.39" fill="none" stroke="#003a50" stroke-miterlimit="10"/><g clip-path="url(#clip-path)"><path d="M175.05,117.64H93a2.08,2.08,0,0,1-2.09-2.08V47.91h86.22v67.65A2.08,2.08,0,0,1,175.05,117.64Z" fill="none" stroke="#003a50" stroke-miterlimit="10"/><rect x="90.67" y="21.42" width="42.5" height="22.88" rx="1.98" fill="none" stroke="#003a50" stroke-miterlimit="10"/><rect x="134.89" y="21.42" width="42.5" height="22.88" rx="1.98" fill="none" stroke="#003a50" stroke-miterlimit="10"/></g><line x1="177.39" y1="61.77" x2="90.67" y2="61.77" fill="none" stroke="#003a50" stroke-miterlimit="10"/><g clip-path="url(#clip-path)"><path d="M355.48,209.54V186.18a3.35,3.35,0,0,0-3.36-3.35H337.17a3.36,3.36,0,0,0-3.36,3.35v23.36a3.36,3.36,0,0,0,3.36,3.35h14.95A3.35,3.35,0,0,0,355.48,209.54Z" fill="none" stroke="#003a50" stroke-miterlimit="10"/><circle cx="348.44" cy="197.86" r="2.46" transform="translate(-51.98 212.74) rotate(-31.72)" fill="none" stroke="#003a50" stroke-miterlimit="10"/></g><line x1="347.68" y1="197.86" x2="361.3" y2="197.86" fill="none" stroke="#003a50" stroke-miterlimit="10"/><line x1="361.3" y1="191.05" x2="361.3" y2="204.67" fill="none" stroke="#003a50" stroke-miterlimit="10"/><g clip-path="url(#clip-path)"><line x1="118.18" y1="1.05" x2="118.18" y2="-58.4" fill="none" stroke="#003a50" stroke-linecap="round" stroke-linejoin="round" stroke-width="0.96"/><line x1="292.06" y1="1.05" x2="292.06" y2="-58.4" fill="none" stroke="#003a50" stroke-linecap="round" stroke-linejoin="round" stroke-width="0.96"/><line x1="260.45" y1="1.05" x2="260.45" y2="-58.4" fill="none" stroke="#003a50" stroke-linecap="round" stroke-linejoin="round" stroke-width="0.96"/><line x1="133.99" y1="1.05" x2="133.99" y2="-58.4" fill="none" stroke="#003a50" stroke-linecap="round" stroke-linejoin="round" stroke-width="0.96"/><line x1="149.79" y1="1.05" x2="149.79" y2="-58.4" fill="none" stroke="#003a50" stroke-linecap="round" stroke-linejoin="round" stroke-width="0.96"/><line x1="165.6" y1="1.05" x2="165.6" y2="-58.4" fill="none" stroke="#003a50" stroke-linecap="round" stroke-linejoin="round" stroke-width="0.96"/><line x1="181.41" y1="1.05" x2="181.41" y2="-58.4" fill="none" stroke="#003a50" stroke-linecap="round" stroke-linejoin="round" stroke-width="0.96"/><line x1="197.22" y1="1.05" x2="197.22" y2="-58.4" fill="none" stroke="#003a50" stroke-linecap="round" stroke-linejoin="round" stroke-width="0.96"/><line x1="213.03" y1="1.05" x2="213.03" y2="-58.4" fill="none" stroke="#003a50" stroke-linecap="round" stroke-linejoin="round" stroke-width="0.96"/><line x1="228.83" y1="1.05" x2="228.83" y2="-58.4" fill="none" stroke="#003a50" stroke-linecap="round" stroke-linejoin="round" stroke-width="0.96"/><line x1="244.64" y1="1.05" x2="244.64" y2="-58.4" fill="none" stroke="#003a50" stroke-linecap="round" stroke-linejoin="round" stroke-width="0.96"/><line x1="260.45" y1="1.05" x2="260.45" y2="-58.4" fill="none" stroke="#003a50" stroke-linecap="round" stroke-linejoin="round" stroke-width="0.96"/><line x1="276.26" y1="1.05" x2="276.26" y2="-58.4" fill="none" stroke="#003a50" stroke-linecap="round" stroke-linejoin="round" stroke-width="0.96"/><line x1="292.06" y1="1.05" x2="292.06" y2="-58.4" fill="none" stroke="#003a50" stroke-linecap="round" stroke-linejoin="round" stroke-width="0.96"/><line x1="133.99" y1="1.05" x2="133.99" y2="-58.4" fill="none" stroke="#003a50" stroke-linecap="round" stroke-linejoin="round" stroke-width="0.96"/><line x1="149.79" y1="1.05" x2="149.79" y2="-58.4" fill="none" stroke="#003a50" stroke-linecap="round" stroke-linejoin="round" stroke-width="0.96"/><line x1="165.6" y1="1.05" x2="165.6" y2="-58.4" fill="none" stroke="#003a50" stroke-linecap="round" stroke-linejoin="round" stroke-width="0.96"/><line x1="181.41" y1="1.05" x2="181.41" y2="-58.4" fill="none" stroke="#003a50" stroke-linecap="round" stroke-linejoin="round" stroke-width="0.96"/><line x1="197.22" y1="1.05" x2="197.22" y2="-58.4" fill="none" stroke="#003a50" stroke-linecap="round" stroke-linejoin="round" stroke-width="0.96"/><line x1="213.03" y1="1.05" x2="213.03" y2="-58.4" fill="none" stroke="#003a50" stroke-linecap="round" stroke-linejoin="round" stroke-width="0.96"/><line x1="228.83" y1="1.05" x2="228.83" y2="-58.4" fill="none" stroke="#003a50" stroke-linecap="round" stroke-linejoin="round" stroke-width="0.96"/><line x1="244.64" y1="1.05" x2="244.64" y2="-58.4" fill="none" stroke="#003a50" stroke-linecap="round" stroke-linejoin="round" stroke-width="0.96"/><line x1="260.45" y1="1.05" x2="260.45" y2="-58.4" fill="none" stroke="#003a50" stroke-linecap="round" stroke-linejoin="round" stroke-width="0.96"/><line x1="133.99" y1="1.05" x2="133.99" y2="-58.4" fill="none" stroke="#003a50" stroke-linecap="round" stroke-linejoin="round" stroke-width="0.96"/><line x1="149.79" y1="1.05" x2="149.79" y2="-58.4" fill="none" stroke="#003a50" stroke-linecap="round" stroke-linejoin="round" stroke-width="0.96"/><line x1="165.6" y1="1.05" x2="165.6" y2="-58.4" fill="none" stroke="#003a50" stroke-linecap="round" stroke-linejoin="round" stroke-width="0.96"/><line x1="181.41" y1="1.05" x2="181.41" y2="-58.4" fill="none" stroke="#003a50" stroke-linecap="round" stroke-linejoin="round" stroke-width="0.96"/><line x1="197.22" y1="1.05" x2="197.22" y2="-58.4" fill="none" stroke="#003a50" stroke-linecap="round" stroke-linejoin="round" stroke-width="0.96"/><line x1="213.03" y1="1.05" x2="213.03" y2="-58.4" fill="none" stroke="#003a50" stroke-linecap="round" stroke-linejoin="round" stroke-width="0.96"/><line x1="228.83" y1="1.05" x2="228.83" y2="-58.4" fill="none" stroke="#003a50" stroke-linecap="round" stroke-linejoin="round" stroke-width="0.96"/><line x1="244.64" y1="1.05" x2="244.64" y2="-58.4" fill="none" stroke="#003a50" stroke-linecap="round" stroke-linejoin="round" stroke-width="0.96"/><line x1="260.45" y1="1.05" x2="260.45" y2="-58.4" fill="none" stroke="#003a50" stroke-linecap="round" stroke-linejoin="round" stroke-width="0.96"/><line x1="276.26" y1="1.05" x2="276.26" y2="-58.4" fill="none" stroke="#003a50" stroke-linecap="round" stroke-linejoin="round" stroke-width="0.96"/><line x1="133.99" y1="1.05" x2="133.99" y2="-58.4" fill="none" stroke="#003a50" stroke-linecap="round" stroke-linejoin="round" stroke-width="0.96"/><line x1="149.79" y1="1.05" x2="149.79" y2="-58.4" fill="none" stroke="#003a50" stroke-linecap="round" stroke-linejoin="round" stroke-width="0.96"/><line x1="165.6" y1="1.05" x2="165.6" y2="-58.4" fill="none" stroke="#003a50" stroke-linecap="round" stroke-linejoin="round" stroke-width="0.96"/><line x1="181.41" y1="1.05" x2="181.41" y2="-58.4" fill="none" stroke="#003a50" stroke-linecap="round" stroke-linejoin="round" stroke-width="0.96"/><line x1="197.22" y1="1.05" x2="197.22" y2="-58.4" fill="none" stroke="#003a50" stroke-linecap="round" stroke-linejoin="round" stroke-width="0.96"/><line x1="213.03" y1="1.05" x2="213.03" y2="-58.4" fill="none" stroke="#003a50" stroke-linecap="round" stroke-linejoin="round" stroke-width="0.96"/><line x1="228.83" y1="1.05" x2="228.83" y2="-58.4" fill="none" stroke="#003a50" stroke-linecap="round" stroke-linejoin="round" stroke-width="0.96"/><line x1="244.64" y1="1.05" x2="244.64" y2="-58.4" fill="none" stroke="#003a50" stroke-linecap="round" stroke-linejoin="round" stroke-width="0.96"/><line x1="118.18" y1="1.05" x2="118.18" y2="-58.4" fill="none" stroke="#003a50" stroke-linecap="round" stroke-linejoin="round" stroke-width="0.96"/><line x1="292.06" y1="1.05" x2="292.06" y2="-58.4" fill="none" stroke="#003a50" stroke-linecap="round" stroke-linejoin="round" stroke-width="0.96"/><line x1="133.99" y1="1.05" x2="133.99" y2="-58.4" fill="none" stroke="#003a50" stroke-linecap="round" stroke-linejoin="round" stroke-width="0.96"/><line x1="149.79" y1="1.05" x2="149.79" y2="-58.4" fill="none" stroke="#003a50" stroke-linecap="round" stroke-linejoin="round" stroke-width="0.96"/><line x1="165.6" y1="1.05" x2="165.6" y2="-58.4" fill="none" stroke="#003a50" stroke-linecap="round" stroke-linejoin="round" stroke-width="0.96"/><line x1="181.41" y1="1.05" x2="181.41" y2="-58.4" fill="none" stroke="#003a50" stroke-linecap="round" stroke-linejoin="round" stroke-width="0.96"/><line x1="197.22" y1="1.05" x2="197.22" y2="-58.4" fill="none" stroke="#003a50" stroke-linecap="round" stroke-linejoin="round" stroke-width="0.96"/><line x1="213.03" y1="1.05" x2="213.03" y2="-58.4" fill="none" stroke="#003a50" stroke-linecap="round" stroke-linejoin="round" stroke-width="0.96"/><line x1="228.83" y1="1.05" x2="228.83" y2="-58.4" fill="none" stroke="#003a50" stroke-linecap="round" stroke-linejoin="round" stroke-width="0.96"/><line x1="244.64" y1="1.05" x2="244.64" y2="-58.4" fill="none" stroke="#003a50" stroke-linecap="round" stroke-linejoin="round" stroke-width="0.96"/><line x1="260.45" y1="1.05" x2="260.45" y2="-58.4" fill="none" stroke="#003a50" stroke-linecap="round" stroke-linejoin="round" stroke-width="0.96"/><line x1="276.26" y1="1.05" x2="276.26" y2="-58.4" fill="none" stroke="#003a50" stroke-linecap="round" stroke-linejoin="round" stroke-width="0.96"/><line x1="292.06" y1="1.05" x2="292.06" y2="-58.4" fill="none" stroke="#003a50" stroke-linecap="round" stroke-linejoin="round" stroke-width="0.96"/><line x1="133.99" y1="1.05" x2="133.99" y2="-58.4" fill="none" stroke="#003a50" stroke-linecap="round" stroke-linejoin="round" stroke-width="0.96"/><line x1="149.79" y1="1.05" x2="149.79" y2="-58.4" fill="none" stroke="#003a50" stroke-linecap="round" stroke-linejoin="round" stroke-width="0.96"/><line x1="165.6" y1="1.05" x2="165.6" y2="-58.4" fill="none" stroke="#003a50" stroke-linecap="round" stroke-linejoin="round" stroke-width="0.96"/><line x1="181.41" y1="1.05" x2="181.41" y2="-58.4" fill="none" stroke="#003a50" stroke-linecap="round" stroke-linejoin="round" stroke-width="0.96"/><line x1="197.22" y1="1.05" x2="197.22" y2="-58.4" fill="none" stroke="#003a50" stroke-linecap="round" stroke-linejoin="round" stroke-width="0.96"/><line x1="213.03" y1="1.05" x2="213.03" y2="-58.4" fill="none" stroke="#003a50" stroke-linecap="round" stroke-linejoin="round" stroke-width="0.96"/><line x1="228.83" y1="1.05" x2="228.83" y2="-58.4" fill="none" stroke="#003a50" stroke-linecap="round" stroke-linejoin="round" stroke-width="0.96"/><line x1="244.64" y1="1.05" x2="244.64" y2="-58.4" fill="none" stroke="#003a50" stroke-linecap="round" stroke-linejoin="round" stroke-width="0.96"/><line x1="260.45" y1="1.05" x2="260.45" y2="-58.4" fill="none" stroke="#003a50" stroke-linecap="round" stroke-linejoin="round" stroke-width="0.96"/><line x1="276.26" y1="1.05" x2="276.26" y2="-58.4" fill="none" stroke="#003a50" stroke-linecap="round" stroke-linejoin="round" stroke-width="0.96"/><path d="M417.84,246.28v3.07a38.72,38.72,0,0,0,38.72,38.72V246.28" fill="none" stroke="#003a50" stroke-miterlimit="10" stroke-width="1.6"/><path d="M195.68,180.63v-3.58A45.07,45.07,0,0,1,240.74,132v48.65" fill="none" stroke="#003a50" stroke-miterlimit="10" stroke-width="1.6"/><path d="M524,258.93h4.06a51.12,51.12,0,0,1,51.13,51.12H524" fill="none" stroke="#003a50" stroke-miterlimit="10" stroke-width="1.6"/><path d="M439.72,6.29V2.1A52.74,52.74,0,0,0,387-50.64V6.29" fill="none" stroke="#003a50" stroke-miterlimit="10" stroke-width="1.6"/><polygon points="51.82 -59.46 51.82 36.28 2.49 36.28 14.15 -59.46 51.82 -59.46" fill="#003a50" fill-rule="evenodd"/><rect x="47.82" y="-0.08" width="339.98" height="13.79" fill="#003a50"/><rect x="512.9" y="309.05" width="16.32" height="50.48" fill="#003a50"/><rect x="512.9" y="109.71" width="16.32" height="150.09" fill="#003a50"/><rect x="519.15" y="-6.29" width="10.07" height="146.14" fill="#003a50"/><rect x="514.82" y="-76.95" width="14.4" height="90.54" fill="#003a50"/><rect x="484.66" y="357.05" width="13.08" height="108.53" fill="#003a50"/><rect x="347.42" y="-83.45" width="13.79" height="92.72" fill="#003a50"/><rect x="47.82" y="348.89" width="481.33" height="13.79" fill="#003a50"/><rect x="438.72" y="-0.08" width="90.5" height="13.79" fill="#003a50"/><rect x="293.74" y="12.05" width="16.74" height="137.8" fill="#003a50"/><rect x="305.28" y="134.33" width="187.71" height="16.78" fill="#003a50"/><rect x="484.66" y="109.71" width="34.5" height="10.81" fill="#003a50"/><rect x="482.75" y="110.48" width="10.81" height="39.38" fill="#003a50"/><rect x="19.24" y="124.61" width="32.58" height="90.82" fill="#003a50"/><rect x="3.49" y="189.52" width="44.33" height="25.9" fill="#003a50"/><rect x="3.49" y="302.07" width="48.33" height="94.57" fill="#003a50"/><rect x="396.1" y="359.19" width="6.38" height="106.38" fill="#003a50"/><rect x="365.15" y="243.53" width="53.52" height="6.38" fill="#003a50"/><rect x="364.56" y="146.52" width="6.38" height="103.38" fill="#003a50"/><rect x="455.72" y="243.53" width="63.43" height="6.38" fill="#003a50"/><rect x="489.32" y="189.86" width="29.83" height="6.38" fill="#003a50"/><rect x="487.2" y="148.5" width="6.38" height="98.21" fill="#003a50"/><rect x="45.49" y="177" width="151.03" height="6.38" fill="#003a50"/><rect x="239.99" y="177" width="26.25" height="6.38" fill="#003a50"/><rect x="261.05" y="143.42" width="6.38" height="39.96" fill="#003a50"/><rect x="264.63" y="143.42" width="44.1" height="7.69" fill="#003a50"/><rect x="523.24" y="360.61" width="5.98" height="101.5" fill="#003a50"/><line x1="364.64" y1="314.59" x2="364.64" y2="248.21" fill="none" stroke="#003a50" stroke-miterlimit="10" stroke-dasharray="5.67 5.67"/><rect x="396.1" y="359.19" width="6.38" height="106.38" fill="#003a50"/><rect x="365.15" y="243.53" width="53.52" height="6.38" fill="#003a50"/><rect x="364.56" y="146.52" width="6.38" height="103.38" fill="#003a50"/><rect x="455.72" y="243.53" width="63.43" height="6.38" fill="#003a50"/><rect x="489.32" y="189.86" width="29.83" height="6.38" fill="#003a50"/><rect x="487.2" y="148.5" width="6.38" height="98.21" fill="#003a50"/><rect x="45.49" y="177" width="151.03" height="6.38" fill="#003a50"/><rect x="239.99" y="177" width="26.25" height="6.38" fill="#003a50"/><rect x="261.05" y="143.42" width="6.38" height="39.96" fill="#003a50"/><rect x="264.63" y="143.42" width="44.1" height="7.69" fill="#003a50"/><rect x="523.24" y="360.61" width="5.98" height="101.5" fill="#003a50"/><line x1="364.64" y1="314.59" x2="364.64" y2="248.21" fill="none" stroke="#003a50" stroke-miterlimit="10" stroke-dasharray="5.67 5.67"/></g><g clip-path="url(#clip-path)"><path d="M30,108.85a4.61,4.61,0,0,1-3.12,1,4.61,4.61,0,0,1-3.12-1,4,4,0,0,1,0-5.74,4.61,4.61,0,0,1,3.12-1,4.61,4.61,0,0,1,3.12,1,4,4,0,0,1,0,5.74Zm-1-4.61a3.52,3.52,0,0,0-2.14-.61,3.55,3.55,0,0,0-2.15.61,2.07,2.07,0,0,0-.83,1.74,2,2,0,0,0,.83,1.73,3.47,3.47,0,0,0,2.15.62,3.46,3.46,0,0,0,2.14-.62,2,2,0,0,0,.84-1.73A2.05,2.05,0,0,0,29,104.24Z" fill="#003a50"/><path d="M31,100.52a.82.82,0,0,1-1.14,0,1,1,0,0,1,0-1.22.82.82,0,0,1,1.14,0,1,1,0,0,1,0,1.22Z" fill="#003a50"/><path d="M25,90.91v1.56s-.05,0-.13,0a1.2,1.2,0,0,0-.31.15,2.33,2.33,0,0,0-.35.27,1.4,1.4,0,0,0-.29.5,2.09,2.09,0,0,0-.11.72,1.76,1.76,0,0,0,.72,1.51,3.11,3.11,0,0,0,1.89.54v0a1.27,1.27,0,0,1-.3-.31,2.73,2.73,0,0,1-.26-.43,3,3,0,0,1-.21-.67,4,4,0,0,1-.09-.86,3.59,3.59,0,0,1,.78-2.38,2.49,2.49,0,0,1,2-.92,2.54,2.54,0,0,1,2.05,1,3.87,3.87,0,0,1,.78,2.54,3.41,3.41,0,0,1-1.09,2.73,4.5,4.5,0,0,1-3,.93H26.8a4.83,4.83,0,0,1-3-.93,3.18,3.18,0,0,1-1.21-2.68,4.06,4.06,0,0,1,.26-1.5,2.87,2.87,0,0,1,.67-1A2.44,2.44,0,0,1,25,90.91Zm2.22,1.77a2.58,2.58,0,0,0,0,2.79,1.3,1.3,0,0,0,1.11.55,1.34,1.34,0,0,0,1.11-.54,2.6,2.6,0,0,0,0-2.8,1.4,1.4,0,0,0-2.22,0Z" fill="#003a50"/><path d="M30,289.53a4.57,4.57,0,0,1-3.12,1.05,4.57,4.57,0,0,1-3.12-1.05,4,4,0,0,1,0-5.73,4.57,4.57,0,0,1,3.12-1.05A4.57,4.57,0,0,1,30,283.8a4,4,0,0,1,0,5.73Zm-1-4.6a3.52,3.52,0,0,0-2.14-.62,3.56,3.56,0,0,0-2.15.62,2.23,2.23,0,0,0,0,3.47,3.53,3.53,0,0,0,2.15.62A3.52,3.52,0,0,0,29,288.4a2.21,2.21,0,0,0,0-3.47Z" fill="#003a50"/><path d="M31,281.21a.82.82,0,0,1-1.14,0,.9.9,0,0,1-.21-.62.87.87,0,0,1,.21-.61A.82.82,0,0,1,31,280a.87.87,0,0,1,.21.61A.9.9,0,0,1,31,281.21Z" fill="#003a50"/><path d="M25,271.6v1.56s-.05,0-.13,0l-.31.15a1.87,1.87,0,0,0-.35.28,1.25,1.25,0,0,0-.29.5,2,2,0,0,0-.11.71,1.78,1.78,0,0,0,.72,1.52,3.11,3.11,0,0,0,1.89.54v0a1.49,1.49,0,0,1-.3-.31,4.1,4.1,0,0,1-.26-.43,3.14,3.14,0,0,1-.21-.67,4.12,4.12,0,0,1-.09-.86,3.57,3.57,0,0,1,.78-2.38,2.49,2.49,0,0,1,2-.92,2.54,2.54,0,0,1,2.05,1,3.89,3.89,0,0,1,.78,2.54,3.41,3.41,0,0,1-1.09,2.73,4.45,4.45,0,0,1-3,.94H26.8a4.77,4.77,0,0,1-3-.94,3.16,3.16,0,0,1-1.21-2.68,4.14,4.14,0,0,1,.26-1.5,2.74,2.74,0,0,1,.67-1A2.39,2.39,0,0,1,25,271.6Zm2.22,1.77a2.21,2.21,0,0,0-.41,1.39,2.26,2.26,0,0,0,.41,1.4,1.4,1.4,0,0,0,2.22,0,2.6,2.6,0,0,0,0-2.8,1.34,1.34,0,0,0-1.11-.54A1.3,1.3,0,0,0,27.26,273.37Z" fill="#003a50"/><path d="M103.62,139.12l-2.48,1.95v-2.24l2.73-2.27h1.86v11.91h-2.11Z" fill="#003a50"/><path d="M114.45,138.41h-5.82v-1.85h8.86v1.85L113,141.06v.06h1.28a3.87,3.87,0,0,1,2.79,1,3.47,3.47,0,0,1,1.06,2.66,3.35,3.35,0,0,1-1.33,2.82,6.93,6.93,0,0,1-7.24,0,3.35,3.35,0,0,1-1.33-2.85v-.33h2.11v.33c0,1.36.94,2,2.84,2s2.84-.66,2.84-2-1-2-2.84-2h-3.27v-1.66l4.58-2.69Z" fill="#003a50"/><path d="M120.19,148.34a1,1,0,0,1-.33-.81,1,1,0,0,1,.33-.8,1.23,1.23,0,0,1,.87-.3,1.2,1.2,0,0,1,.86.3,1,1,0,0,1,.33.8,1,1,0,0,1-.33.81,1.2,1.2,0,0,1-.86.3A1.23,1.23,0,0,1,120.19,148.34Z" fill="#003a50"/><path d="M130.3,138.41h-5.83v-1.85h8.86v1.85l-4.52,2.65v.06h1.28a3.87,3.87,0,0,1,2.79,1,3.5,3.5,0,0,1,1.05,2.66,3.32,3.32,0,0,1-1.33,2.82,6.93,6.93,0,0,1-7.24,0,3.38,3.38,0,0,1-1.33-2.85v-.33h2.11v.33c0,1.36,1,2,2.84,2s2.84-.66,2.84-2-.94-2-2.84-2h-3.26v-1.66l4.58-2.69Z" fill="#003a50"/><path d="M426,204.07h-5.82v-1.84H429v1.84l-4.53,2.65v.07h1.28a3.87,3.87,0,0,1,2.79,1,3.5,3.5,0,0,1,1.06,2.67,3.32,3.32,0,0,1-1.33,2.82,6.93,6.93,0,0,1-7.24,0,3.35,3.35,0,0,1-1.33-2.85v-.33h2.11v.33c0,1.36,1,2,2.84,2s2.84-.67,2.84-2-.95-2-2.84-2h-3.26v-1.67l4.57-2.68Z" fill="#003a50"/><path d="M431.73,214a1.17,1.17,0,0,1,0-1.61,1.24,1.24,0,0,1,.87-.3,1.2,1.2,0,0,1,.86.3,1.15,1.15,0,0,1,0,1.61,1.2,1.2,0,0,1-.86.3A1.24,1.24,0,0,1,431.73,214Z" fill="#003a50"/><path d="M438.84,214.14h-2.35l5.41-10H435v-1.88h9.28v1.88Z" fill="#003a50"/><path d="M481.4,278.63h-2.11V276h-7v-1.84l6.29-7.42h2.79v7.42H483V276h-1.6Zm-2.11-4.49v-5.32h-.06l-4.48,5.27v.05Z" fill="#003a50"/><path d="M484.68,278.5a1,1,0,0,1-.32-.8,1.07,1.07,0,0,1,.32-.81,1.41,1.41,0,0,1,1.74,0,1.07,1.07,0,0,1,.32.81,1,1,0,0,1-.32.8,1.41,1.41,0,0,1-1.74,0Z" fill="#003a50"/><path d="M488.82,275.29H491s0,.07,0,.18a2.36,2.36,0,0,0,.23.43,2.09,2.09,0,0,0,.41.48,2,2,0,0,0,.75.42,3.21,3.21,0,0,0,1.05.16,2.66,2.66,0,0,0,2.24-1.06,4.3,4.3,0,0,0,.81-2.71h-.06a2,2,0,0,1-.44.47,2.73,2.73,0,0,1-.6.4,3.74,3.74,0,0,1-.95.32,5.43,5.43,0,0,1-1.22.13,4.92,4.92,0,0,1-3.37-1.13,3.73,3.73,0,0,1,.05-5.72,5.59,5.59,0,0,1,3.61-1.1,4.81,4.81,0,0,1,3.87,1.54,6.4,6.4,0,0,1,1.32,4.27v.41a6.7,6.7,0,0,1-1.37,4.31,4.71,4.71,0,0,1-3.89,1.71,6,6,0,0,1-2.17-.37,3.94,3.94,0,0,1-1.48-.95A3.35,3.35,0,0,1,488.82,275.29Zm2.77-3.17a3.6,3.6,0,0,0,4,0,2,2,0,0,0,0-3.14,3.21,3.21,0,0,0-2-.59,3.17,3.17,0,0,0-2,.59,1.85,1.85,0,0,0-.78,1.57A1.87,1.87,0,0,0,491.59,272.12Z" fill="#003a50"/><path d="M104.2,241.41l-2.48,2v-2.24l2.73-2.27h1.86v11.91H104.2Z" fill="#003a50"/><path d="M117.5,250a7.75,7.75,0,0,1-7.36,0,2.94,2.94,0,0,1-1.37-2.56,2.73,2.73,0,0,1,.25-1.17,2.49,2.49,0,0,1,.66-.85,3.94,3.94,0,0,1,1.39-.77l.26-.07v-.09a3.32,3.32,0,0,1-.76-.29,2.88,2.88,0,0,1-.67-.44,2.24,2.24,0,0,1-.54-.76,2.38,2.38,0,0,1-.22-1,2.81,2.81,0,0,1,1.25-2.38,5.75,5.75,0,0,1,3.43-.9,5.84,5.84,0,0,1,3.43.9,2.82,2.82,0,0,1,1.24,2.38,2.5,2.5,0,0,1-.22,1,2,2,0,0,1-.55.74,3.72,3.72,0,0,1-1.2.68l-.22,0v.09l.28.07a4.41,4.41,0,0,1,1.4.77,2.82,2.82,0,0,1,.61.82,2.71,2.71,0,0,1,.27,1.2A2.94,2.94,0,0,1,117.5,250Zm-5.79-1.35a3.85,3.85,0,0,0,2.11.48,4,4,0,0,0,2.1-.47,1.6,1.6,0,0,0,0-2.7,4.95,4.95,0,0,0-4.21,0,1.52,1.52,0,0,0-.73,1.35A1.5,1.5,0,0,0,111.71,248.64Zm-.36-6.52a1.35,1.35,0,0,0,.64,1.19,4,4,0,0,0,3.65,0,1.35,1.35,0,0,0,.64-1.19,1.38,1.38,0,0,0-.65-1.2,4,4,0,0,0-3.63,0A1.38,1.38,0,0,0,111.35,242.12Z" fill="#003a50"/><path d="M121,250.63a1,1,0,0,1-.32-.81A1.07,1.07,0,0,1,121,249a1.25,1.25,0,0,1,.88-.3,1.22,1.22,0,0,1,.86.3,1,1,0,0,1,.32.81,1,1,0,0,1-.32.81,1.26,1.26,0,0,1-.86.29A1.3,1.3,0,0,1,121,250.63Z" fill="#003a50"/><path d="M134.59,242.2h-2.21s0-.06,0-.17a2.53,2.53,0,0,0-.22-.44,2.64,2.64,0,0,0-.38-.5,1.93,1.93,0,0,0-.71-.41,3,3,0,0,0-1-.16,2.49,2.49,0,0,0-2.15,1,4.39,4.39,0,0,0-.77,2.68h.06a1.63,1.63,0,0,1,.44-.43,3.55,3.55,0,0,1,.61-.37,4.66,4.66,0,0,1,.95-.3,5.41,5.41,0,0,1,1.21-.13,5.06,5.06,0,0,1,3.38,1.11,3.54,3.54,0,0,1,1.3,2.8,3.59,3.59,0,0,1-1.36,2.91,5.54,5.54,0,0,1-3.61,1.1,4.81,4.81,0,0,1-3.87-1.54,6.36,6.36,0,0,1-1.32-4.27v-.41a6.85,6.85,0,0,1,1.32-4.31,4.52,4.52,0,0,1,3.81-1.71,5.64,5.64,0,0,1,2.12.38,3.72,3.72,0,0,1,1.44.94A3.4,3.4,0,0,1,134.59,242.2Zm-2.5,3.15a3.67,3.67,0,0,0-4,0,2,2,0,0,0,0,3.15,3.26,3.26,0,0,0,2,.59,3.21,3.21,0,0,0,2-.59,2,2,0,0,0,0-3.15Z" fill="#003a50"/></g></svg>