<svg id="Слой_1" data-name="Слой 1" xmlns="http://www.w3.org/2000/svg" xmlns:xlink="http://www.w3.org/1999/xlink" viewBox="0 0 581.1 362.83"><defs><clipPath id="clip-path"><polygon points="0 0.21 0 362.62 581.1 362.62 581.1 190.06 493.54 190.06 493.54 134.55 310.45 134.55 310.45 0.21 0 0.21" fill="none"/></clipPath></defs><polygon points="27.34 7.33 27.34 129.98 27.34 169.68 27.34 349.36 519.12 354.05 512.87 309.05 512.87 259.8 514.01 190.06 493.54 190.06 493.54 134.55 492.19 134.55 492.19 135.7 308.69 135.7 308.69 6.31 27.34 7.33" fill="#fff"/><polygon points="506.02 360.61 506.02 360.92 26.39 360.92 26.39 362.62 526.2 362.62 526.2 360.61 506.02 360.61" fill="#fff"/><g clip-path="url(#clip-path)"><rect x="26.86" y="-1239.64" width="1115.44" height="2194.74" fill="none" stroke="#003a50" stroke-miterlimit="10"/><polygon points="51.69 -153.92 51.69 932.14 1118.16 932.14 1118.16 -1215.73 51.69 -1215.88 51.69 -222.73 51.69 -153.92" fill="none" stroke="#003a50" stroke-miterlimit="10"/></g><rect x="36.59" y="215.51" width="4.55" height="86.57" fill="#fff"/><rect x="36.59" y="215.51" width="4.55" height="86.57" fill="none" stroke="#003a50" stroke-miterlimit="10"/><line x1="38.86" y1="215.51" x2="38.86" y2="302.08" fill="none" stroke="#003a50" stroke-miterlimit="10"/><rect x="36.59" y="215.51" width="4.55" height="4.37" fill="#fff"/><rect x="36.59" y="215.51" width="4.55" height="4.37" fill="none" stroke="#003a50" stroke-miterlimit="10"/><rect x="36.59" y="297.71" width="4.55" height="4.37" fill="#fff"/><rect x="36.59" y="297.71" width="4.55" height="4.37" fill="none" stroke="#003a50" stroke-miterlimit="10"/><rect x="36.59" y="256.61" width="4.55" height="4.37" fill="#fff"/><rect x="36.59" y="256.61" width="4.55" height="4.37" fill="none" stroke="#003a50" stroke-miterlimit="10"/><rect x="36.59" y="36.37" width="4.55" height="88.23" fill="#fff"/><rect x="36.59" y="36.37" width="4.55" height="88.23" fill="none" stroke="#003a50" stroke-miterlimit="10"/><line x1="38.86" y1="36.37" x2="38.86" y2="124.6" fill="none" stroke="#003a50" stroke-miterlimit="10"/><rect x="36.59" y="36.37" width="4.55" height="4.45" fill="#fff"/><rect x="36.59" y="36.37" width="4.55" height="4.45" fill="none" stroke="#003a50" stroke-miterlimit="10"/><rect x="36.59" y="120.14" width="4.55" height="4.46" fill="#fff"/><rect x="36.59" y="120.14" width="4.55" height="4.46" fill="none" stroke="#003a50" stroke-miterlimit="10"/><rect x="36.59" y="78.26" width="4.55" height="4.45" fill="#fff"/><rect x="36.59" y="78.26" width="4.55" height="4.45" fill="none" stroke="#003a50" stroke-miterlimit="10"/><rect x="370.98" y="151.54" width="42.38" height="92.09" fill="none" stroke="#003a50" stroke-miterlimit="10"/><g clip-path="url(#clip-path)"><rect x="375.96" y="155.34" width="32.03" height="84.24" rx="13.7" fill="none" stroke="#003a50" stroke-miterlimit="10"/><path d="M394.26,169.91a2.2,2.2,0,1,0-2.2,2.2A2.2,2.2,0,0,0,394.26,169.91Z" fill="none" stroke="#003a50" stroke-miterlimit="10"/><path d="M458.89,224h28.57V200.87H458.89a11.54,11.54,0,1,0,0,23.08Z" fill="none" stroke="#003a50" stroke-miterlimit="10"/></g><rect x="476.37" y="200.87" width="11.08" height="23.08" fill="none" stroke="#003a50" stroke-miterlimit="10"/><g clip-path="url(#clip-path)"><path d="M471.53,157.51a3.4,3.4,0,0,0,3.13-2.1h1.92l5.1,3.05-2.31,3.77-2.66-1.46v11.82H465.62V160.77L463,162.23l-2.31-3.77,5.14-3.05h2.57A3.45,3.45,0,0,0,471.53,157.51Z" fill="none" stroke="#003a50" stroke-miterlimit="10"/></g><rect x="454.21" y="151.19" width="33.92" height="25.63" fill="none" stroke="#003a50" stroke-miterlimit="10"/><rect x="331.88" y="215.53" width="32.72" height="33.97" fill="none" stroke="#003a50" stroke-miterlimit="10"/><g clip-path="url(#clip-path)"><path d="M352.55,231V219.94h-8.61V231a3.55,3.55,0,0,0,3.55,3.55H349A3.55,3.55,0,0,0,352.55,231Z" fill="none" stroke="#003a50" stroke-miterlimit="10"/></g><polyline points="344.77 245.09 348.25 245.09 351.72 245.09" fill="none" stroke="#003a50" stroke-miterlimit="10"/><line x1="348.25" y1="234.53" x2="348.25" y2="245.09" fill="none" stroke="#003a50" stroke-miterlimit="10"/><rect x="276.6" y="151.11" width="31.88" height="31.88" fill="none" stroke="#003a50" stroke-miterlimit="10"/><g clip-path="url(#clip-path)"><path d="M304.16,174.18a4.35,4.35,0,1,1-4.34-4.35A4.34,4.34,0,0,1,304.16,174.18Z" fill="none" stroke="#003a50" stroke-miterlimit="10"/><path d="M289.65,174.18a4.35,4.35,0,1,1-4.34-4.35A4.34,4.34,0,0,1,289.65,174.18Z" fill="none" stroke="#003a50" stroke-miterlimit="10"/><path d="M304.16,160a4.35,4.35,0,1,1-4.34-4.34A4.34,4.34,0,0,1,304.16,160Z" fill="none" stroke="#003a50" stroke-miterlimit="10"/><path d="M289.65,160a4.35,4.35,0,1,1-4.34-4.34A4.34,4.34,0,0,1,289.65,160Z" fill="none" stroke="#003a50" stroke-miterlimit="10"/><rect x="318.29" y="362.58" width="34.02" height="34.02" fill="none" stroke="#003a50" stroke-miterlimit="10"/></g><rect x="82.94" y="159.99" width="102.05" height="17.01" fill="none" stroke="#003a50" stroke-miterlimit="10"/><polygon points="90.96 167.96 133.85 171.48 176.96 167.96 176.96 165.5 90.96 165.5 90.96 167.96" fill="none" stroke="#003a50" stroke-miterlimit="10"/><rect x="51.09" y="183.38" width="102.05" height="17.01" fill="none" stroke="#003a50" stroke-miterlimit="10"/><polygon points="145.11 192.42 102.22 188.89 59.11 192.42 59.11 194.88 145.11 194.88 145.11 192.42" fill="none" stroke="#003a50" stroke-miterlimit="10"/><g clip-path="url(#clip-path)"><rect x="304.44" y="363" width="58.79" height="33.59" fill="none" stroke="#003a50" stroke-miterlimit="10"/><rect x="363.23" y="363" width="32.72" height="102.57" fill="none" stroke="#003a50" stroke-miterlimit="10"/></g><rect x="267.39" y="149.39" width="64.49" height="33.59" fill="none" stroke="#003a50" stroke-miterlimit="10"/><rect x="331.88" y="146.93" width="32.72" height="102.57" fill="none" stroke="#003a50" stroke-miterlimit="10"/><g clip-path="url(#clip-path)"><path d="M298.46,283.89a1.26,1.26,0,0,1-.95-1.51,13.78,13.78,0,0,0-26.87-6.16,1.26,1.26,0,1,1-2.45-.56A16.3,16.3,0,0,1,300,283,1.26,1.26,0,0,1,298.46,283.89Z" fill="none" stroke="#003a50" stroke-miterlimit="10"/><path d="M243.29,274.17a1.26,1.26,0,0,1-1.75.34A13.78,13.78,0,1,0,226,297.29a1.26,1.26,0,0,1-1.42,2.08A16.3,16.3,0,0,1,243,272.43,1.25,1.25,0,0,1,243.29,274.17Z" fill="none" stroke="#003a50" stroke-miterlimit="10"/><path d="M240.78,321.58a1.27,1.27,0,0,1,1.34,1.18,13.78,13.78,0,1,0,27.52-1.63,1.25,1.25,0,0,1,1.18-1.33,1.26,1.26,0,0,1,1.33,1.18,16.3,16.3,0,0,1-32.55,1.93A1.26,1.26,0,0,1,240.78,321.58Z" fill="none" stroke="#003a50" stroke-miterlimit="10"/><path d="M284.26,267.28a12.69,12.69,0,0,1,12,15.48l-2,8.88a3.53,3.53,0,0,1-4.24,2.68l-13.44-3.08a23.73,23.73,0,0,0-6-9.44l1-4.2C272.86,271.64,278.14,267.08,284.26,267.28Z" fill="none" stroke="#003a50" stroke-miterlimit="10"/><path d="M241.46,275.8l2.32,1.6a23.81,23.81,0,0,0-13.64,21.32L227.62,297c-5-3.44-7.4-10-5-15.64A12.7,12.7,0,0,1,241.46,275.8Z" fill="none" stroke="#003a50" stroke-miterlimit="10"/><path d="M268.3,318.08l.12,2c.36,6.12-3.4,12-9.32,13.48A12.66,12.66,0,0,1,243.22,322l-.12-1.84a23.93,23.93,0,0,0,16.64,1.92A23.5,23.5,0,0,0,268.3,318.08Z" fill="none" stroke="#003a50" stroke-miterlimit="10"/><path d="M270.54,281.8a23.73,23.73,0,0,1,6,9.44,16.51,16.51,0,0,1,.6,2,23.85,23.85,0,0,1-8.84,24.84,23.5,23.5,0,0,1-8.56,4,23.87,23.87,0,0,1-28.92-17.4,22.12,22.12,0,0,1-.68-6,23.81,23.81,0,0,1,13.64-21.32,22.85,22.85,0,0,1,4.48-1.6A23.8,23.8,0,0,1,270.54,281.8Z" fill="none" stroke="#003a50" stroke-miterlimit="10"/><path d="M289.06,106a.94.94,0,0,1,.85.51.9.9,0,0,1-.43,1.22,28,28,0,0,1-23.81,0,.9.9,0,0,1-.43-1.22,1,1,0,0,1,1.27-.42,26,26,0,0,0,22.14,0A1,1,0,0,1,289.06,106Z" fill="none" stroke="#003a50" stroke-miterlimit="10"/><path d="M289.06,111a.94.94,0,0,1,.85.51.9.9,0,0,1-.43,1.22,28,28,0,0,1-23.81,0,.9.9,0,0,1-.43-1.22,1,1,0,0,1,1.27-.41,26.14,26.14,0,0,0,22.14,0A.86.86,0,0,1,289.06,111Z" fill="none" stroke="#003a50" stroke-miterlimit="10"/><path d="M289.06,116.09a.94.94,0,0,1,.85.51.9.9,0,0,1-.43,1.23,28.07,28.07,0,0,1-23.81,0,.9.9,0,0,1-.43-1.22,1,1,0,0,1,1.27-.42,26,26,0,0,0,22.14,0A.86.86,0,0,1,289.06,116.09Z" fill="none" stroke="#003a50" stroke-miterlimit="10"/><path d="M289.06,121.16a.93.93,0,0,1,.85.5.9.9,0,0,1-.43,1.23,28.07,28.07,0,0,1-23.81,0,.9.9,0,0,1-.43-1.22,1,1,0,0,1,1.27-.42,26,26,0,0,0,22.14,0A.85.85,0,0,1,289.06,121.16Z" fill="none" stroke="#003a50" stroke-miterlimit="10"/><path d="M289.06,126.22a.94.94,0,0,1,.85.51.9.9,0,0,1-.43,1.22,28,28,0,0,1-23.81,0,.9.9,0,0,1-.43-1.22,1,1,0,0,1,1.27-.41,26.14,26.14,0,0,0,22.14,0A.86.86,0,0,1,289.06,126.22Z" fill="none" stroke="#003a50" stroke-miterlimit="10"/><path d="M289.06,131.28a.94.94,0,0,1,.85.51.89.89,0,0,1-.43,1.22,28,28,0,0,1-23.81,0,.89.89,0,0,1-.43-1.22,1,1,0,0,1,1.27-.41,26,26,0,0,0,22.14,0A.86.86,0,0,1,289.06,131.28Z" fill="none" stroke="#003a50" stroke-miterlimit="10"/><path d="M289.06,100.9a.94.94,0,0,1,.85.51.9.9,0,0,1-.43,1.23,28.07,28.07,0,0,1-23.81,0,.9.9,0,0,1-.43-1.22,1,1,0,0,1,1.27-.42,26,26,0,0,0,22.14,0A.86.86,0,0,1,289.06,100.9Z" fill="none" stroke="#003a50" stroke-miterlimit="10"/><path d="M289.06,95.84a.94.94,0,0,1,.85.51.89.89,0,0,1-.43,1.22,28,28,0,0,1-23.81,0,.89.89,0,0,1-.43-1.22,1,1,0,0,1,1.27-.41,26,26,0,0,0,22.14,0A.86.86,0,0,1,289.06,95.84Z" fill="none" stroke="#003a50" stroke-miterlimit="10"/></g><line x1="277.58" y1="13.84" x2="277.58" y2="144.7" fill="none" stroke="#003a50" stroke-miterlimit="10"/><rect x="261.02" y="13.59" width="32.59" height="130.41" fill="none" stroke="#003a50" stroke-miterlimit="10"/><rect x="413.75" y="151.43" width="73.99" height="25.39" fill="none" stroke="#003a50" stroke-miterlimit="10"/><g clip-path="url(#clip-path)"><rect x="417.78" y="149.71" width="24.4" height="25.04" rx="2.83" fill="none" stroke="#003a50" stroke-miterlimit="10"/><path d="M430,164.15a1.92,1.92,0,1,1,1.91-1.91A1.92,1.92,0,0,1,430,164.15Z" fill="none" stroke="#003a50" stroke-miterlimit="10"/></g><rect x="325.48" y="314.59" width="34.02" height="34.02" fill="none" stroke="#003a50" stroke-miterlimit="10"/><line x1="342.48" y1="341.58" x2="342.48" y2="321.62" fill="none" stroke="#003a50" stroke-miterlimit="10"/><line x1="352.46" y1="331.6" x2="332.5" y2="331.6" fill="none" stroke="#003a50" stroke-miterlimit="10"/><line x1="349.54" y1="338.66" x2="335.43" y2="324.55" fill="none" stroke="#003a50" stroke-miterlimit="10"/><line x1="349.54" y1="324.55" x2="335.43" y2="338.66" fill="none" stroke="#003a50" stroke-miterlimit="10"/><rect x="359.49" y="314.59" width="153.07" height="34.02" fill="none" stroke="#003a50" stroke-miterlimit="10"/><g clip-path="url(#clip-path)"><path d="M376.61,319.42a1,1,0,0,1,1.9-.45,28.77,28.77,0,0,1,0,25.26,1,1,0,0,1-1.8-.88,26.72,26.72,0,0,0,0-23.49A1,1,0,0,1,376.61,319.42Z" fill="none" stroke="#003a50" stroke-miterlimit="10"/><path d="M382.17,319.42a1,1,0,0,1,.56-.9,1,1,0,0,1,1.35.45,28.77,28.77,0,0,1,0,25.26,1,1,0,0,1-1.34.46,1,1,0,0,1-.46-1.34,26.81,26.81,0,0,0,0-23.49A1,1,0,0,1,382.17,319.42Z" fill="none" stroke="#003a50" stroke-miterlimit="10"/><path d="M387.74,319.42a1,1,0,0,1,1.9-.45,28.77,28.77,0,0,1,0,25.26,1,1,0,0,1-1.8-.88,26.72,26.72,0,0,0,0-23.49A1,1,0,0,1,387.74,319.42Z" fill="none" stroke="#003a50" stroke-miterlimit="10"/><path d="M393.3,319.42a1,1,0,0,1,.56-.9,1,1,0,0,1,1.35.45,28.77,28.77,0,0,1,0,25.26,1,1,0,0,1-1.34.46,1,1,0,0,1-.46-1.34,26.81,26.81,0,0,0,0-23.49A1,1,0,0,1,393.3,319.42Z" fill="none" stroke="#003a50" stroke-miterlimit="10"/><path d="M398.87,319.42a1,1,0,0,1,1.9-.45,28.77,28.77,0,0,1,0,25.26,1,1,0,1,1-1.8-.88,26.72,26.72,0,0,0,0-23.49A1,1,0,0,1,398.87,319.42Z" fill="none" stroke="#003a50" stroke-miterlimit="10"/><path d="M404.44,319.42a1,1,0,0,1,.56-.9,1,1,0,0,1,1.34.45,28.77,28.77,0,0,1,0,25.26,1,1,0,1,1-1.8-.88,26.72,26.72,0,0,0,0-23.49A1,1,0,0,1,404.44,319.42Z" fill="none" stroke="#003a50" stroke-miterlimit="10"/><path d="M371,319.42a1,1,0,0,1,.56-.9A1,1,0,0,1,373,319a28.77,28.77,0,0,1,0,25.26,1,1,0,0,1-1.34.46,1,1,0,0,1-.46-1.34,26.81,26.81,0,0,0,0-23.49A1,1,0,0,1,371,319.42Z" fill="none" stroke="#003a50" stroke-miterlimit="10"/><path d="M365.48,319.42a1,1,0,0,1,1.9-.45,28.77,28.77,0,0,1,0,25.26,1,1,0,0,1-1.8-.88,26.72,26.72,0,0,0,0-23.49A1,1,0,0,1,365.48,319.42Z" fill="none" stroke="#003a50" stroke-miterlimit="10"/></g><line x1="359.49" y1="331.6" x2="512.56" y2="331.6" fill="none" stroke="#003a50" stroke-miterlimit="10"/><g clip-path="url(#clip-path)"><path d="M108.22,302.3v41H62.45V300.09H106A2.2,2.2,0,0,1,108.22,302.3Z" fill="none" stroke="#003a50" stroke-miterlimit="10"/><path d="M154.09,302.07v41.26H108.31V302.07a2,2,0,0,1,2-2h41.8A2,2,0,0,1,154.09,302.07Z" fill="none" stroke="#003a50" stroke-miterlimit="10"/><path d="M62.45,300.09a3.11,3.11,0,0,0-3.33-2.83H54.9a3.11,3.11,0,0,0-3.33,2.83v48.19H165V300.51a3.11,3.11,0,0,0-3.33-2.83h-4.22a3.11,3.11,0,0,0-3.32,2.83v42.83H62.45Z" fill="none" stroke="#003a50" stroke-miterlimit="10"/></g><rect x="62.45" y="334.08" width="91.64" height="9.25" fill="none" stroke="#003a50" stroke-miterlimit="10"/><rect x="53.97" y="13.99" width="22.68" height="22.68" fill="none" stroke="#003a50" stroke-miterlimit="10"/><g clip-path="url(#clip-path)"><path d="M71.81,31.83a9.19,9.19,0,1,1,0-13A9.19,9.19,0,0,1,71.81,31.83Z" fill="none" stroke="#003a50" stroke-miterlimit="10"/><path d="M72.43,31.14C70.74,31,69,31.63,67.37,30c-2.44-2.44.14-5-2.3-7.45s-5,.13-7.46-2.3" fill="none" stroke="#003a50" stroke-miterlimit="10"/></g><rect x="191.27" y="13.99" width="22.68" height="22.68" fill="none" stroke="#003a50" stroke-miterlimit="10"/><g clip-path="url(#clip-path)"><path d="M209.11,31.83a9.19,9.19,0,1,1,0-13A9.19,9.19,0,0,1,209.11,31.83Z" fill="none" stroke="#003a50" stroke-miterlimit="10"/><path d="M209.73,31.14c-1.69-.17-3.41.49-5.06-1.17-2.44-2.44.14-5-2.3-7.45s-5,.13-7.46-2.3" fill="none" stroke="#003a50" stroke-miterlimit="10"/></g><rect x="82.98" y="13.99" width="102.05" height="113.39" fill="none" stroke="#003a50" stroke-miterlimit="10"/><g clip-path="url(#clip-path)"><path d="M175,117.64H93a2.08,2.08,0,0,1-2.09-2.08V47.91h86.22v67.65A2.08,2.08,0,0,1,175,117.64Z" fill="none" stroke="#003a50" stroke-miterlimit="10"/><rect x="90.64" y="21.42" width="42.5" height="22.88" rx="1.98" fill="none" stroke="#003a50" stroke-miterlimit="10"/><rect x="134.86" y="21.42" width="42.5" height="22.88" rx="1.98" fill="none" stroke="#003a50" stroke-miterlimit="10"/></g><line x1="177.36" y1="61.77" x2="90.64" y2="61.77" fill="none" stroke="#003a50" stroke-miterlimit="10"/><g clip-path="url(#clip-path)"><path d="M355.45,209.54V186.18a3.35,3.35,0,0,0-3.36-3.35H337.14a3.36,3.36,0,0,0-3.36,3.35v23.36a3.36,3.36,0,0,0,3.36,3.35h14.95A3.35,3.35,0,0,0,355.45,209.54Z" fill="none" stroke="#003a50" stroke-miterlimit="10"/><circle cx="348.41" cy="197.86" r="2.46" transform="translate(-51.99 212.72) rotate(-31.72)" fill="none" stroke="#003a50" stroke-miterlimit="10"/></g><line x1="347.65" y1="197.86" x2="361.27" y2="197.86" fill="none" stroke="#003a50" stroke-miterlimit="10"/><line x1="361.27" y1="191.05" x2="361.27" y2="204.67" fill="none" stroke="#003a50" stroke-miterlimit="10"/><g clip-path="url(#clip-path)"><line x1="118.18" y1="1.05" x2="118.18" y2="-58.4" fill="none" stroke="#003a50" stroke-linecap="round" stroke-linejoin="round" stroke-width="0.96"/><line x1="292.06" y1="1.05" x2="292.06" y2="-58.4" fill="none" stroke="#003a50" stroke-linecap="round" stroke-linejoin="round" stroke-width="0.96"/><line x1="260.45" y1="1.05" x2="260.45" y2="-58.4" fill="none" stroke="#003a50" stroke-linecap="round" stroke-linejoin="round" stroke-width="0.96"/><line x1="133.99" y1="1.05" x2="133.99" y2="-58.4" fill="none" stroke="#003a50" stroke-linecap="round" stroke-linejoin="round" stroke-width="0.96"/><line x1="149.79" y1="1.05" x2="149.79" y2="-58.4" fill="none" stroke="#003a50" stroke-linecap="round" stroke-linejoin="round" stroke-width="0.96"/><line x1="165.6" y1="1.05" x2="165.6" y2="-58.4" fill="none" stroke="#003a50" stroke-linecap="round" stroke-linejoin="round" stroke-width="0.96"/><line x1="181.41" y1="1.05" x2="181.41" y2="-58.4" fill="none" stroke="#003a50" stroke-linecap="round" stroke-linejoin="round" stroke-width="0.96"/><line x1="197.22" y1="1.05" x2="197.22" y2="-58.4" fill="none" stroke="#003a50" stroke-linecap="round" stroke-linejoin="round" stroke-width="0.96"/><line x1="213.03" y1="1.05" x2="213.03" y2="-58.4" fill="none" stroke="#003a50" stroke-linecap="round" stroke-linejoin="round" stroke-width="0.96"/><line x1="228.83" y1="1.05" x2="228.83" y2="-58.4" fill="none" stroke="#003a50" stroke-linecap="round" stroke-linejoin="round" stroke-width="0.96"/><line x1="244.64" y1="1.05" x2="244.64" y2="-58.4" fill="none" stroke="#003a50" stroke-linecap="round" stroke-linejoin="round" stroke-width="0.96"/><line x1="260.45" y1="1.05" x2="260.45" y2="-58.4" fill="none" stroke="#003a50" stroke-linecap="round" stroke-linejoin="round" stroke-width="0.96"/><line x1="276.26" y1="1.05" x2="276.26" y2="-58.4" fill="none" stroke="#003a50" stroke-linecap="round" stroke-linejoin="round" stroke-width="0.96"/><line x1="292.06" y1="1.05" x2="292.06" y2="-58.4" fill="none" stroke="#003a50" stroke-linecap="round" stroke-linejoin="round" stroke-width="0.96"/><line x1="133.99" y1="1.05" x2="133.99" y2="-58.4" fill="none" stroke="#003a50" stroke-linecap="round" stroke-linejoin="round" stroke-width="0.96"/><line x1="149.79" y1="1.05" x2="149.79" y2="-58.4" fill="none" stroke="#003a50" stroke-linecap="round" stroke-linejoin="round" stroke-width="0.96"/><line x1="165.6" y1="1.05" x2="165.6" y2="-58.4" fill="none" stroke="#003a50" stroke-linecap="round" stroke-linejoin="round" stroke-width="0.96"/><line x1="181.41" y1="1.05" x2="181.41" y2="-58.4" fill="none" stroke="#003a50" stroke-linecap="round" stroke-linejoin="round" stroke-width="0.96"/><line x1="197.22" y1="1.05" x2="197.22" y2="-58.4" fill="none" stroke="#003a50" stroke-linecap="round" stroke-linejoin="round" stroke-width="0.96"/><line x1="213.03" y1="1.05" x2="213.03" y2="-58.4" fill="none" stroke="#003a50" stroke-linecap="round" stroke-linejoin="round" stroke-width="0.96"/><line x1="228.83" y1="1.05" x2="228.83" y2="-58.4" fill="none" stroke="#003a50" stroke-linecap="round" stroke-linejoin="round" stroke-width="0.96"/><line x1="244.64" y1="1.05" x2="244.64" y2="-58.4" fill="none" stroke="#003a50" stroke-linecap="round" stroke-linejoin="round" stroke-width="0.96"/><line x1="260.45" y1="1.05" x2="260.45" y2="-58.4" fill="none" stroke="#003a50" stroke-linecap="round" stroke-linejoin="round" stroke-width="0.96"/><line x1="133.99" y1="1.05" x2="133.99" y2="-58.4" fill="none" stroke="#003a50" stroke-linecap="round" stroke-linejoin="round" stroke-width="0.96"/><line x1="149.79" y1="1.05" x2="149.79" y2="-58.4" fill="none" stroke="#003a50" stroke-linecap="round" stroke-linejoin="round" stroke-width="0.96"/><line x1="165.6" y1="1.05" x2="165.6" y2="-58.4" fill="none" stroke="#003a50" stroke-linecap="round" stroke-linejoin="round" stroke-width="0.96"/><line x1="181.41" y1="1.05" x2="181.41" y2="-58.4" fill="none" stroke="#003a50" stroke-linecap="round" stroke-linejoin="round" stroke-width="0.96"/><line x1="197.22" y1="1.05" x2="197.22" y2="-58.4" fill="none" stroke="#003a50" stroke-linecap="round" stroke-linejoin="round" stroke-width="0.96"/><line x1="213.03" y1="1.05" x2="213.03" y2="-58.4" fill="none" stroke="#003a50" stroke-linecap="round" stroke-linejoin="round" stroke-width="0.96"/><line x1="228.83" y1="1.05" x2="228.83" y2="-58.4" fill="none" stroke="#003a50" stroke-linecap="round" stroke-linejoin="round" stroke-width="0.96"/><line x1="244.64" y1="1.05" x2="244.64" y2="-58.4" fill="none" stroke="#003a50" stroke-linecap="round" stroke-linejoin="round" stroke-width="0.96"/><line x1="260.45" y1="1.05" x2="260.45" y2="-58.4" fill="none" stroke="#003a50" stroke-linecap="round" stroke-linejoin="round" stroke-width="0.96"/><line x1="276.26" y1="1.05" x2="276.26" y2="-58.4" fill="none" stroke="#003a50" stroke-linecap="round" stroke-linejoin="round" stroke-width="0.96"/><line x1="133.99" y1="1.05" x2="133.99" y2="-58.4" fill="none" stroke="#003a50" stroke-linecap="round" stroke-linejoin="round" stroke-width="0.96"/><line x1="149.79" y1="1.05" x2="149.79" y2="-58.4" fill="none" stroke="#003a50" stroke-linecap="round" stroke-linejoin="round" stroke-width="0.96"/><line x1="165.6" y1="1.05" x2="165.6" y2="-58.4" fill="none" stroke="#003a50" stroke-linecap="round" stroke-linejoin="round" stroke-width="0.96"/><line x1="181.41" y1="1.05" x2="181.41" y2="-58.4" fill="none" stroke="#003a50" stroke-linecap="round" stroke-linejoin="round" stroke-width="0.96"/><line x1="197.22" y1="1.05" x2="197.22" y2="-58.4" fill="none" stroke="#003a50" stroke-linecap="round" stroke-linejoin="round" stroke-width="0.96"/><line x1="213.03" y1="1.05" x2="213.03" y2="-58.4" fill="none" stroke="#003a50" stroke-linecap="round" stroke-linejoin="round" stroke-width="0.96"/><line x1="228.83" y1="1.05" x2="228.83" y2="-58.4" fill="none" stroke="#003a50" stroke-linecap="round" stroke-linejoin="round" stroke-width="0.96"/><line x1="244.64" y1="1.05" x2="244.64" y2="-58.4" fill="none" stroke="#003a50" stroke-linecap="round" stroke-linejoin="round" stroke-width="0.96"/><line x1="118.18" y1="1.05" x2="118.18" y2="-58.4" fill="none" stroke="#003a50" stroke-linecap="round" stroke-linejoin="round" stroke-width="0.96"/><line x1="292.06" y1="1.05" x2="292.06" y2="-58.4" fill="none" stroke="#003a50" stroke-linecap="round" stroke-linejoin="round" stroke-width="0.96"/><line x1="133.99" y1="1.05" x2="133.99" y2="-58.4" fill="none" stroke="#003a50" stroke-linecap="round" stroke-linejoin="round" stroke-width="0.96"/><line x1="149.79" y1="1.05" x2="149.79" y2="-58.4" fill="none" stroke="#003a50" stroke-linecap="round" stroke-linejoin="round" stroke-width="0.96"/><line x1="165.6" y1="1.05" x2="165.6" y2="-58.4" fill="none" stroke="#003a50" stroke-linecap="round" stroke-linejoin="round" stroke-width="0.96"/><line x1="181.41" y1="1.05" x2="181.41" y2="-58.4" fill="none" stroke="#003a50" stroke-linecap="round" stroke-linejoin="round" stroke-width="0.96"/><line x1="197.22" y1="1.05" x2="197.22" y2="-58.4" fill="none" stroke="#003a50" stroke-linecap="round" stroke-linejoin="round" stroke-width="0.96"/><line x1="213.03" y1="1.05" x2="213.03" y2="-58.4" fill="none" stroke="#003a50" stroke-linecap="round" stroke-linejoin="round" stroke-width="0.96"/><line x1="228.83" y1="1.05" x2="228.83" y2="-58.4" fill="none" stroke="#003a50" stroke-linecap="round" stroke-linejoin="round" stroke-width="0.96"/><line x1="244.64" y1="1.05" x2="244.64" y2="-58.4" fill="none" stroke="#003a50" stroke-linecap="round" stroke-linejoin="round" stroke-width="0.96"/><line x1="260.45" y1="1.05" x2="260.45" y2="-58.4" fill="none" stroke="#003a50" stroke-linecap="round" stroke-linejoin="round" stroke-width="0.96"/><line x1="276.26" y1="1.05" x2="276.26" y2="-58.4" fill="none" stroke="#003a50" stroke-linecap="round" stroke-linejoin="round" stroke-width="0.96"/><line x1="292.06" y1="1.05" x2="292.06" y2="-58.4" fill="none" stroke="#003a50" stroke-linecap="round" stroke-linejoin="round" stroke-width="0.96"/><line x1="133.99" y1="1.05" x2="133.99" y2="-58.4" fill="none" stroke="#003a50" stroke-linecap="round" stroke-linejoin="round" stroke-width="0.96"/><line x1="149.79" y1="1.05" x2="149.79" y2="-58.4" fill="none" stroke="#003a50" stroke-linecap="round" stroke-linejoin="round" stroke-width="0.96"/><line x1="165.6" y1="1.05" x2="165.6" y2="-58.4" fill="none" stroke="#003a50" stroke-linecap="round" stroke-linejoin="round" stroke-width="0.96"/><line x1="181.41" y1="1.05" x2="181.41" y2="-58.4" fill="none" stroke="#003a50" stroke-linecap="round" stroke-linejoin="round" stroke-width="0.96"/><line x1="197.22" y1="1.05" x2="197.22" y2="-58.4" fill="none" stroke="#003a50" stroke-linecap="round" stroke-linejoin="round" stroke-width="0.96"/><line x1="213.03" y1="1.05" x2="213.03" y2="-58.4" fill="none" stroke="#003a50" stroke-linecap="round" stroke-linejoin="round" stroke-width="0.96"/><line x1="228.83" y1="1.05" x2="228.83" y2="-58.4" fill="none" stroke="#003a50" stroke-linecap="round" stroke-linejoin="round" stroke-width="0.96"/><line x1="244.64" y1="1.05" x2="244.64" y2="-58.4" fill="none" stroke="#003a50" stroke-linecap="round" stroke-linejoin="round" stroke-width="0.96"/><line x1="260.45" y1="1.05" x2="260.45" y2="-58.4" fill="none" stroke="#003a50" stroke-linecap="round" stroke-linejoin="round" stroke-width="0.96"/><line x1="276.26" y1="1.05" x2="276.26" y2="-58.4" fill="none" stroke="#003a50" stroke-linecap="round" stroke-linejoin="round" stroke-width="0.96"/><path d="M417.81,246.28v3.07a38.72,38.72,0,0,0,38.72,38.72V246.28" fill="none" stroke="#003a50" stroke-miterlimit="10" stroke-width="1.6"/><path d="M195.65,180.63v-3.58A45.07,45.07,0,0,1,240.71,132v48.65" fill="none" stroke="#003a50" stroke-miterlimit="10" stroke-width="1.6"/><path d="M524,258.93H528a51.12,51.12,0,0,1,51.13,51.12H524" fill="none" stroke="#003a50" stroke-miterlimit="10" stroke-width="1.6"/><path d="M439.69,6.29V2.1A52.74,52.74,0,0,0,387-50.64V6.29" fill="none" stroke="#003a50" stroke-miterlimit="10" stroke-width="1.6"/><polygon points="51.79 -59.46 51.79 36.28 2.46 36.28 14.12 -59.46 51.79 -59.46" fill="#003a50" fill-rule="evenodd"/><rect x="47.79" y="-0.08" width="339.98" height="13.79" fill="#003a50"/><rect x="512.88" y="309.05" width="16.32" height="50.48" fill="#003a50"/><rect x="512.88" y="109.71" width="16.32" height="150.09" fill="#003a50"/><rect x="519.12" y="-6.29" width="10.07" height="146.14" fill="#003a50"/><rect x="514.79" y="-76.95" width="14.4" height="90.54" fill="#003a50"/><rect x="484.62" y="357.05" width="13.08" height="108.53" fill="#003a50"/><rect x="347.4" y="-83.45" width="13.79" height="92.72" fill="#003a50"/><rect x="47.79" y="348.89" width="481.33" height="13.79" fill="#003a50"/><rect x="438.69" y="-0.08" width="90.5" height="13.79" fill="#003a50"/><rect x="293.7" y="12.05" width="16.74" height="137.8" fill="#003a50"/><rect x="305.25" y="134.33" width="187.71" height="16.78" fill="#003a50"/><rect x="484.62" y="109.71" width="34.5" height="10.81" fill="#003a50"/><rect x="482.72" y="110.48" width="10.81" height="39.38" fill="#003a50"/><rect x="19.21" y="124.61" width="32.58" height="90.82" fill="#003a50"/><rect x="3.46" y="189.52" width="44.33" height="25.9" fill="#003a50"/><rect x="3.46" y="302.07" width="48.33" height="94.57" fill="#003a50"/><rect x="396.07" y="359.19" width="6.38" height="106.38" fill="#003a50"/><rect x="365.12" y="243.53" width="53.52" height="6.38" fill="#003a50"/><rect x="364.53" y="146.52" width="6.38" height="103.38" fill="#003a50"/><rect x="455.7" y="243.53" width="63.43" height="6.38" fill="#003a50"/><rect x="489.29" y="189.86" width="29.83" height="6.38" fill="#003a50"/><rect x="487.18" y="148.5" width="6.38" height="98.21" fill="#003a50"/><rect x="45.46" y="177" width="151.03" height="6.38" fill="#003a50"/><rect x="239.96" y="177" width="26.25" height="6.38" fill="#003a50"/><rect x="261.02" y="143.42" width="6.38" height="39.96" fill="#003a50"/><rect x="264.6" y="143.42" width="44.1" height="7.69" fill="#003a50"/><rect x="523.21" y="360.61" width="5.98" height="101.5" fill="#003a50"/><line x1="364.61" y1="314.59" x2="364.61" y2="248.21" fill="none" stroke="#003a50" stroke-miterlimit="10" stroke-dasharray="5.67 5.67"/><rect x="482.72" y="13.84" width="6.38" height="95.53" fill="#003a50"/><rect x="370.42" y="9.75" width="6.38" height="105.99" fill="#003a50"/><rect x="373.61" y="109.37" width="148.38" height="6.38" fill="#003a50"/></g><g clip-path="url(#clip-path)"><path d="M103.57,139.12l-2.48,1.95v-2.24l2.73-2.27h1.86v11.91h-2.11Z" fill="#003a50"/><path d="M114.4,138.41h-5.82v-1.85h8.86v1.85l-4.52,2.65v.06h1.28a3.87,3.87,0,0,1,2.79,1A3.5,3.5,0,0,1,118,144.8a3.32,3.32,0,0,1-1.33,2.82,6.93,6.93,0,0,1-7.24,0,3.35,3.35,0,0,1-1.33-2.85v-.33h2.11v.33c0,1.36,1,2,2.84,2s2.84-.66,2.84-2-1-2-2.84-2h-3.26v-1.66l4.57-2.69Z" fill="#003a50"/><path d="M120.14,148.34a1,1,0,0,1-.32-.81,1.06,1.06,0,0,1,.32-.8,1.41,1.41,0,0,1,1.74,0,1.06,1.06,0,0,1,.32.8,1,1,0,0,1-.32.81,1.41,1.41,0,0,1-1.74,0Z" fill="#003a50"/><path d="M125.55,146.94a7.34,7.34,0,0,1,0-8.84,5.71,5.71,0,0,1,8.13,0,7.34,7.34,0,0,1,0,8.84,5.71,5.71,0,0,1-8.13,0Zm6.53-1.39a5.73,5.73,0,0,0,0-6.07,3.15,3.15,0,0,0-4.92,0,5.67,5.67,0,0,0,0,6.07,2.88,2.88,0,0,0,2.46,1.19A2.93,2.93,0,0,0,132.08,145.55Z" fill="#003a50"/><path d="M425.93,204.07h-5.82v-1.84H429v1.84l-4.53,2.65v.07h1.28a3.9,3.9,0,0,1,2.79,1,3.53,3.53,0,0,1,1.06,2.67,3.35,3.35,0,0,1-1.33,2.82,5.85,5.85,0,0,1-3.62,1,5.79,5.79,0,0,1-3.62-1,3.35,3.35,0,0,1-1.33-2.85v-.33h2.11v.33c0,1.36.94,2,2.84,2s2.84-.67,2.84-2-.95-2-2.84-2h-3.27v-1.67l4.58-2.68Z" fill="#003a50"/><path d="M431.67,214a1.15,1.15,0,0,1,0-1.61,1.4,1.4,0,0,1,1.73,0,1.15,1.15,0,0,1,0,1.61,1.4,1.4,0,0,1-1.73,0Z" fill="#003a50"/><path d="M438.78,214.14h-2.36l5.42-10h-6.93v-1.88h9.29v1.88Z" fill="#003a50"/><path d="M481.35,278.63h-2.1V276h-7v-1.84l6.29-7.42h2.79v7.42H483V276h-1.6Zm-2.1-4.49v-5.32h-.07l-4.48,5.27v.05Z" fill="#003a50"/><path d="M484.63,278.5a1,1,0,0,1-.32-.8,1.07,1.07,0,0,1,.32-.81,1.25,1.25,0,0,1,.88-.3,1.22,1.22,0,0,1,.86.3,1,1,0,0,1,.32.81,1,1,0,0,1-.32.8,1.22,1.22,0,0,1-.86.3A1.25,1.25,0,0,1,484.63,278.5Z" fill="#003a50"/><path d="M488.77,275.29H491s0,.07,0,.18a3.22,3.22,0,0,0,.23.43,2.09,2.09,0,0,0,.41.48,2,2,0,0,0,.75.42,3.21,3.21,0,0,0,1,.16,2.68,2.68,0,0,0,2.25-1.06,4.36,4.36,0,0,0,.8-2.71h-.06a2,2,0,0,1-.44.47,2.92,2.92,0,0,1-.59.4,3.83,3.83,0,0,1-1,.32,5.43,5.43,0,0,1-1.22.13,4.92,4.92,0,0,1-3.36-1.13,3.55,3.55,0,0,1-1.32-2.81,3.59,3.59,0,0,1,1.37-2.91,5.55,5.55,0,0,1,3.6-1.1,4.81,4.81,0,0,1,3.87,1.54,6.4,6.4,0,0,1,1.32,4.27v.41a6.7,6.7,0,0,1-1.37,4.31,4.69,4.69,0,0,1-3.89,1.71,5.9,5.9,0,0,1-2.16-.37,3.86,3.86,0,0,1-1.48-.95A3.33,3.33,0,0,1,488.77,275.29Zm2.77-3.17a3.6,3.6,0,0,0,3.95,0,1.85,1.85,0,0,0,.78-1.57,1.88,1.88,0,0,0-.77-1.57,3.22,3.22,0,0,0-2-.59,3.16,3.16,0,0,0-2,.59,2,2,0,0,0,0,3.14Z" fill="#003a50"/><path d="M104.15,241.41l-2.48,2v-2.24l2.73-2.27h1.86v11.91h-2.11Z" fill="#003a50"/><path d="M117.46,250a7.77,7.77,0,0,1-7.37,0,3,3,0,0,1-1.37-2.56,2.74,2.74,0,0,1,.26-1.17,2.46,2.46,0,0,1,.65-.85,4,4,0,0,1,1.4-.77l.26-.07v-.09a3.38,3.38,0,0,1-.77-.29,2.61,2.61,0,0,1-.66-.44,2.24,2.24,0,0,1-.54-.76,2.39,2.39,0,0,1-.23-1,2.8,2.8,0,0,1,1.26-2.38,5.74,5.74,0,0,1,3.42-.9,5.81,5.81,0,0,1,3.43.9,2.82,2.82,0,0,1,1.24,2.38,2.66,2.66,0,0,1-.21,1,2,2,0,0,1-.56.74,3.59,3.59,0,0,1-1.19.68l-.23,0v.09l.29.07a6.37,6.37,0,0,1,.62.26,4.67,4.67,0,0,1,.77.51,2.65,2.65,0,0,1,.61.82,2.58,2.58,0,0,1,.28,1.2A3,3,0,0,1,117.46,250Zm-5.79-1.35a3.84,3.84,0,0,0,2.1.48,3.94,3.94,0,0,0,2.1-.47,1.6,1.6,0,0,0,0-2.7,4.93,4.93,0,0,0-4.2,0,1.53,1.53,0,0,0-.74,1.35A1.51,1.51,0,0,0,111.67,248.64Zm-.37-6.52a1.36,1.36,0,0,0,.65,1.19,4,4,0,0,0,3.64,0,1.42,1.42,0,0,0,0-2.39,4,4,0,0,0-3.62,0A1.36,1.36,0,0,0,111.3,242.12Z" fill="#003a50"/><path d="M120.93,250.63a1,1,0,0,1-.33-.81,1,1,0,0,1,.33-.81,1.23,1.23,0,0,1,.87-.3,1.2,1.2,0,0,1,.86.3,1,1,0,0,1,.33.81,1,1,0,0,1-.33.81,1.24,1.24,0,0,1-.86.29A1.27,1.27,0,0,1,120.93,250.63Z" fill="#003a50"/><path d="M131,240.69h-5.83v-1.84h8.86v1.84l-4.52,2.65v.07h1.28a3.9,3.9,0,0,1,2.79,1,3.52,3.52,0,0,1,1,2.67,3.32,3.32,0,0,1-1.33,2.82,7,7,0,0,1-7.24,0,3.39,3.39,0,0,1-1.33-2.86v-.32h2.11v.32c0,1.37,1,2,2.84,2s2.84-.67,2.84-2-.94-2-2.84-2h-3.26v-1.67l4.58-2.68Z" fill="#003a50"/></g></svg>