<svg id="Слой_1" data-name="Слой 1" xmlns="http://www.w3.org/2000/svg" xmlns:xlink="http://www.w3.org/1999/xlink" viewBox="0 0 586.77 547.09"><defs><clipPath id="clip-path"><polygon points="0.85 0 0.85 419.1 14.31 419.1 14.31 480.67 267.93 480.67 267.93 547.09 586.77 547.09 586.77 0 0.85 0" fill="none"/></clipPath></defs><polygon points="580.4 14.04 580.4 365.2 586.77 365.51 586.77 14.04 580.4 14.04" fill="#fff"/><polygon points="17.03 15.69 17.03 353.89 17.03 367.27 17.03 469 286.23 469 286.23 533.25 526.29 535.72 524.32 429.91 523.99 379.3 572.84 367.27 572.84 15.69 17.03 15.69" fill="#fff"/><polygon points="17.03 467.71 17.03 480.67 267.93 480.67 267.93 547.09 513.68 547.09 513.66 534.61 288.16 534.61 288.16 467.71 17.03 467.71" fill="#fff"/><g clip-path="url(#clip-path)"><rect x="4.28" y="3.13" width="1162.95" height="2240.57" fill="none" stroke="#003a50" stroke-miterlimit="10"/><polygon points="16.86 1107.3 16.86 2230.85 1154.25 2230.85 1154.25 16.08 16.86 15.92 16.86 1036.59 16.86 1107.3" fill="none" stroke="#003a50" stroke-miterlimit="10"/></g><rect x="419.6" y="35.37" width="85.42" height="4.56" fill="#fff"/><rect x="419.6" y="35.37" width="85.42" height="4.56" fill="none" stroke="#003a50" stroke-miterlimit="10"/><line x1="505.02" y1="37.65" x2="419.6" y2="37.65" fill="none" stroke="#003a50" stroke-miterlimit="10"/><rect x="500.47" y="35.37" width="4.55" height="4.56" fill="#fff"/><rect x="500.47" y="35.37" width="4.55" height="4.56" fill="none" stroke="#003a50" stroke-miterlimit="10"/><rect x="419.6" y="35.37" width="4.55" height="4.56" fill="#fff"/><rect x="419.6" y="35.37" width="4.55" height="4.56" fill="none" stroke="#003a50" stroke-miterlimit="10"/><rect x="460.16" y="35.37" width="4.55" height="4.56" fill="#fff"/><rect x="460.16" y="35.37" width="4.55" height="4.56" fill="none" stroke="#003a50" stroke-miterlimit="10"/><g clip-path="url(#clip-path)"><path d="M460.16,39.93v2.9c0,20.14-16.12,33.1-36,33.1v-36" fill="none" stroke="#003a50" stroke-miterlimit="10"/></g><rect x="297.58" y="35.37" width="87.81" height="4.56" fill="#fff"/><rect x="297.58" y="35.37" width="87.81" height="4.56" fill="none" stroke="#003a50" stroke-miterlimit="10"/><line x1="385.38" y1="37.65" x2="297.57" y2="37.65" fill="none" stroke="#003a50" stroke-miterlimit="10"/><rect x="380.83" y="35.37" width="4.55" height="4.56" fill="#fff"/><rect x="380.83" y="35.37" width="4.55" height="4.56" fill="none" stroke="#003a50" stroke-miterlimit="10"/><rect x="297.58" y="35.37" width="4.55" height="4.56" fill="#fff"/><rect x="297.58" y="35.37" width="4.55" height="4.56" fill="none" stroke="#003a50" stroke-miterlimit="10"/><rect x="338.13" y="35.37" width="4.55" height="4.56" fill="#fff"/><rect x="338.13" y="35.37" width="4.55" height="4.56" fill="none" stroke="#003a50" stroke-miterlimit="10"/><g clip-path="url(#clip-path)"><path d="M338.13,39.93v2.9c0,20.14-16.12,33.1-36,33.1v-36" fill="none" stroke="#003a50" stroke-miterlimit="10"/></g><rect x="59.96" y="35.37" width="143.24" height="4.56" fill="#fff"/><rect x="59.96" y="35.37" width="143.24" height="4.56" fill="none" stroke="#003a50" stroke-miterlimit="10"/><line x1="59.96" y1="37.65" x2="203.2" y2="37.65" fill="none" stroke="#003a50" stroke-miterlimit="10"/><rect x="92.52" y="35.37" width="4.6" height="4.56" fill="#fff"/><rect x="92.52" y="35.37" width="4.6" height="4.56" fill="none" stroke="#003a50" stroke-miterlimit="10"/><rect x="125.08" y="35.37" width="4.6" height="4.56" fill="#fff"/><rect x="125.08" y="35.37" width="4.6" height="4.56" fill="none" stroke="#003a50" stroke-miterlimit="10"/><rect x="59.96" y="35.37" width="4.6" height="4.56" fill="#fff"/><rect x="59.96" y="35.37" width="4.6" height="4.56" fill="none" stroke="#003a50" stroke-miterlimit="10"/><rect x="198.6" y="35.37" width="4.6" height="4.56" fill="#fff"/><rect x="198.6" y="35.37" width="4.6" height="4.56" fill="none" stroke="#003a50" stroke-miterlimit="10"/><rect x="157.63" y="35.37" width="4.6" height="4.56" fill="#fff"/><rect x="157.63" y="35.37" width="4.6" height="4.56" fill="none" stroke="#003a50" stroke-miterlimit="10"/><g clip-path="url(#clip-path)"><path d="M162.23,39.93v2.9c0,20.14,16.28,33.1,36.37,33.1v-36" fill="none" stroke="#003a50" stroke-miterlimit="10"/></g><rect x="37.48" y="304.83" width="4.55" height="88.36" fill="#fff"/><rect x="37.48" y="304.83" width="4.55" height="88.36" fill="none" stroke="#003a50" stroke-miterlimit="10"/><line x1="39.76" y1="393.19" x2="39.76" y2="304.83" fill="none" stroke="#003a50" stroke-miterlimit="10"/><rect x="37.48" y="388.73" width="4.55" height="4.46" fill="#fff"/><rect x="37.48" y="388.73" width="4.55" height="4.46" fill="none" stroke="#003a50" stroke-miterlimit="10"/><rect x="37.48" y="304.83" width="4.55" height="4.46" fill="#fff"/><rect x="37.48" y="304.83" width="4.55" height="4.46" fill="none" stroke="#003a50" stroke-miterlimit="10"/><rect x="37.48" y="344.57" width="4.55" height="4.46" fill="#fff"/><rect x="37.48" y="344.57" width="4.55" height="4.46" fill="none" stroke="#003a50" stroke-miterlimit="10"/><g clip-path="url(#clip-path)"><path d="M42,344.57h2.9c20.15,0,33.1-15.79,33.1-35.27H42" fill="none" stroke="#003a50" stroke-miterlimit="10"/></g><rect x="37.48" y="119.14" width="4.55" height="90.18" fill="#fff"/><rect x="37.48" y="119.14" width="4.55" height="90.18" fill="none" stroke="#003a50" stroke-miterlimit="10"/><line x1="39.76" y1="119.14" x2="39.76" y2="209.32" fill="none" stroke="#003a50" stroke-miterlimit="10"/><rect x="37.48" y="119.14" width="4.55" height="4.56" fill="#fff"/><rect x="37.48" y="119.14" width="4.55" height="4.56" fill="none" stroke="#003a50" stroke-miterlimit="10"/><rect x="37.48" y="204.76" width="4.55" height="4.56" fill="#fff"/><rect x="37.48" y="204.76" width="4.55" height="4.56" fill="none" stroke="#003a50" stroke-miterlimit="10"/><rect x="37.48" y="164.21" width="4.55" height="4.56" fill="#fff"/><rect x="37.48" y="164.21" width="4.55" height="4.56" fill="none" stroke="#003a50" stroke-miterlimit="10"/><g clip-path="url(#clip-path)"><path d="M42,168.76h2.9c20.15,0,33.1,16.12,33.1,36H42" fill="none" stroke="#003a50" stroke-miterlimit="10"/><path d="M42,534h2.9C65.08,534,78,549.52,78,568.68H42" fill="none" stroke="#003a50" stroke-miterlimit="10"/><path d="M103.15,317.51a1.26,1.26,0,0,1-1.21,1.3A13.79,13.79,0,0,0,103,346.36a1.26,1.26,0,0,1,.1,2.51,16.3,16.3,0,1,1-1.27-32.57A1.26,1.26,0,0,1,103.15,317.51Z" fill="none" stroke="#003a50" stroke-miterlimit="10"/><path d="M110.09,355.06a1.26,1.26,0,0,1,.87,1.56,13.78,13.78,0,0,0,26.53,7.49,1.26,1.26,0,1,1,2.42.69,16.3,16.3,0,0,1-31.37-8.87A1.26,1.26,0,0,1,110.09,355.06Z" fill="none" stroke="#003a50" stroke-miterlimit="10"/><path d="M147.87,359.43a1.25,1.25,0,0,1,1.74-.35,13.79,13.79,0,0,0,15.33-22.92,1.25,1.25,0,0,1-.35-1.74,1.27,1.27,0,0,1,1.75-.35,16.3,16.3,0,1,1-18.13,27.1A1.24,1.24,0,0,1,147.87,359.43Z" fill="none" stroke="#003a50" stroke-miterlimit="10"/><path d="M165.05,324.86a1.26,1.26,0,0,1,.2-1.77,13.78,13.78,0,0,0-17.05-21.66,1.26,1.26,0,1,1-1.56-2,16.3,16.3,0,1,1,20.17,25.6A1.25,1.25,0,0,1,165.05,324.86Z" fill="none" stroke="#003a50" stroke-miterlimit="10"/><path d="M136.22,300.8a1.25,1.25,0,0,1-.85-1.56,13.79,13.79,0,0,0-26.46-7.75,1.26,1.26,0,1,1-2.42-.7A16.3,16.3,0,1,1,137.78,300,1.25,1.25,0,0,1,136.22,300.8Z" fill="none" stroke="#003a50" stroke-miterlimit="10"/><path d="M113,344.82l-9.36.36a12.65,12.65,0,1,1-1-25.28l9-.32A23.7,23.7,0,0,0,113,344.82Z" fill="none" stroke="#003a50" stroke-miterlimit="10"/><path d="M139.14,354.06l-2.56,9.08a12.65,12.65,0,0,1-24.36-6.84l2.6-9.2a23.6,23.6,0,0,0,24.32,7Z" fill="none" stroke="#003a50" stroke-miterlimit="10"/><path d="M167.22,354.26a12.67,12.67,0,0,1-17.52,3.52l-7.28-4.88a23.88,23.88,0,0,0,13.12-15.24,24.8,24.8,0,0,0,.84-5.84l7.36,4.92A12.63,12.63,0,0,1,167.22,354.26Z" fill="none" stroke="#003a50" stroke-miterlimit="10"/><path d="M164,322.62l-7.72,6.08a23.88,23.88,0,0,0-15.56-20l7.64-6A12.65,12.65,0,1,1,164,322.62Z" fill="none" stroke="#003a50" stroke-miterlimit="10"/><path d="M134.1,299.54l-2.28,7.76a23.58,23.58,0,0,0-9.08,2.12l-15.28-4.48a1.21,1.21,0,0,1-.84-1.52l3.08-10.64a12.87,12.87,0,0,1,13.2-9.4A12.67,12.67,0,0,1,134.1,299.54Z" fill="none" stroke="#003a50" stroke-miterlimit="10"/><path d="M156.38,331.82a24.8,24.8,0,0,1-.84,5.84,23.88,23.88,0,0,1-13.12,15.24,24.6,24.6,0,0,1-3.28,1.16,23.6,23.6,0,0,1-24.32-7,25.46,25.46,0,0,1-1.84-2.28,23.7,23.7,0,0,1-1.28-25.24,24,24,0,0,1,11-10.16,23.84,23.84,0,0,1,16.32-1.24c.56.16,1.12.36,1.68.56a23.88,23.88,0,0,1,15.56,20A27.09,27.09,0,0,1,156.38,331.82Z" fill="none" stroke="#003a50" stroke-miterlimit="10"/></g><rect x="314.87" y="504.41" width="72.48" height="29.76" fill="none" stroke="#003a50" stroke-miterlimit="10"/><rect x="53.15" y="433.41" width="230.49" height="34.02" fill="none" stroke="#003a50" stroke-miterlimit="10"/><g clip-path="url(#clip-path)"><path d="M508.44,333.52v28.85h-22.8V333.52a11.4,11.4,0,1,1,22.8,0Z" fill="none" stroke="#003a50" stroke-miterlimit="10"/></g><line x1="485.64" y1="351.14" x2="508.44" y2="351.14" fill="none" stroke="#003a50" stroke-miterlimit="10"/><g clip-path="url(#clip-path)"><path d="M524.33,298.32h23a3.35,3.35,0,0,1,3.36,3.35v22.25a3.36,3.36,0,0,1-3.36,3.36h-23a3.36,3.36,0,0,1-3.36-3.36V301.67A3.35,3.35,0,0,1,524.33,298.32Z" fill="none" stroke="#003a50" stroke-miterlimit="10"/><path d="M533.56,312.8a2.27,2.27,0,1,1,2.26,2.26A2.26,2.26,0,0,1,533.56,312.8Z" fill="none" stroke="#003a50" stroke-miterlimit="10"/><path d="M524.33,331.9h23a3.36,3.36,0,0,1,3.36,3.36v22.25a3.35,3.35,0,0,1-3.36,3.35h-23a3.35,3.35,0,0,1-3.36-3.35V335.26A3.36,3.36,0,0,1,524.33,331.9Z" fill="none" stroke="#003a50" stroke-miterlimit="10"/><path d="M533.56,346.38a2.27,2.27,0,1,1,2.26,2.27A2.26,2.26,0,0,1,533.56,346.38Z" fill="none" stroke="#003a50" stroke-miterlimit="10"/></g><rect x="387.39" y="438.1" width="43.33" height="96.06" fill="none" stroke="#003a50" stroke-miterlimit="10"/><g clip-path="url(#clip-path)"><path d="M392.75,514V458.25a15.94,15.94,0,0,1,15.94-15.93h.73a15.93,15.93,0,0,1,15.93,15.93V514a15.93,15.93,0,0,1-15.93,15.93h-.73A15.94,15.94,0,0,1,392.75,514Z" fill="none" stroke="#003a50" stroke-miterlimit="10"/><path d="M409.05,512.42a2.27,2.27,0,1,1-2.26,2.27A2.27,2.27,0,0,1,409.05,512.42Z" fill="none" stroke="#003a50" stroke-miterlimit="10"/><rect x="379.86" y="546.63" width="41.13" height="98.9" fill="none" stroke="#003a50" stroke-miterlimit="10"/><path d="M343.79,477.54H314.94V454.75h28.85a11.4,11.4,0,1,1,0,22.79Z" fill="none" stroke="#003a50" stroke-miterlimit="10"/></g><line x1="326.16" y1="454.75" x2="326.16" y2="477.54" fill="none" stroke="#003a50" stroke-miterlimit="10"/><g clip-path="url(#clip-path)"><rect x="354.63" y="506.81" width="28.96" height="29.71" rx="3.36" fill="none" stroke="#003a50" stroke-miterlimit="10"/><circle cx="369.11" cy="521.66" r="2.27" transform="translate(-216.53 777.39) rotate(-78.31)" fill="none" stroke="#003a50" stroke-miterlimit="10"/><rect x="421.1" y="546.98" width="37.82" height="26.34" fill="none" stroke="#003a50" stroke-miterlimit="10"/><rect x="426.7" y="544.88" width="25.64" height="26.31" rx="2.97" fill="none" stroke="#003a50" stroke-miterlimit="10"/></g><rect x="315.18" y="504.42" width="34.02" height="28.84" fill="none" stroke="#003a50" stroke-miterlimit="10"/><g clip-path="url(#clip-path)"><path d="M337.49,510.53h-2.11a3.07,3.07,0,0,1-5.72,0h-2.78l-5.29,3,2.53,4,2.38-1.27v10.86h11.37V516.28l2.38,1.27,2.52-4Z" fill="none" stroke="#003a50" stroke-miterlimit="10"/><rect x="458.92" y="547.16" width="30.12" height="25.9" fill="none" stroke="#003a50" stroke-miterlimit="10"/></g><rect x="108.82" y="433.41" width="34.02" height="34.02" fill="none" stroke="#003a50" stroke-miterlimit="10"/><g clip-path="url(#clip-path)"><path d="M138.24,458a4.69,4.69,0,1,1-4.69-4.7A4.69,4.69,0,0,1,138.24,458Z" fill="none" stroke="#003a50" stroke-miterlimit="10"/><path d="M122.8,458a4.69,4.69,0,1,1-4.69-4.7A4.69,4.69,0,0,1,122.8,458Z" fill="none" stroke="#003a50" stroke-miterlimit="10"/><path d="M138.24,442.84a4.69,4.69,0,1,1-4.69-4.7A4.69,4.69,0,0,1,138.24,442.84Z" fill="none" stroke="#003a50" stroke-miterlimit="10"/><path d="M122.8,442.84a4.69,4.69,0,1,1-4.69-4.7A4.69,4.69,0,0,1,122.8,442.84Z" fill="none" stroke="#003a50" stroke-miterlimit="10"/></g><rect x="218.44" y="433.41" width="34.02" height="34.02" fill="none" stroke="#003a50" stroke-miterlimit="10"/><line x1="235.44" y1="453.17" x2="235.44" y2="463.73" fill="none" stroke="#003a50" stroke-miterlimit="10"/><g clip-path="url(#clip-path)"><path d="M236.35,453.17h-1.82a3.39,3.39,0,0,1-3.39-3.39v-11.2h8.61v11.2A3.4,3.4,0,0,1,236.35,453.17Z" fill="none" stroke="#003a50" stroke-miterlimit="10"/></g><line x1="231.97" y1="463.73" x2="238.92" y2="463.73" fill="none" stroke="#003a50" stroke-miterlimit="10"/><rect x="53.16" y="433.41" width="34.02" height="34.02" fill="none" stroke="#003a50" stroke-miterlimit="10"/><line x1="70.17" y1="460.4" x2="70.17" y2="440.44" fill="none" stroke="#003a50" stroke-miterlimit="10"/><line x1="80.15" y1="450.42" x2="60.19" y2="450.42" fill="none" stroke="#003a50" stroke-miterlimit="10"/><line x1="77.23" y1="457.48" x2="63.12" y2="443.37" fill="none" stroke="#003a50" stroke-miterlimit="10"/><line x1="77.23" y1="443.36" x2="63.12" y2="457.48" fill="none" stroke="#003a50" stroke-miterlimit="10"/><g clip-path="url(#clip-path)"><path d="M192.26,459.06H168.91a3.35,3.35,0,0,1-3.36-3.36V440.75a3.36,3.36,0,0,1,3.36-3.36h23.35a3.37,3.37,0,0,1,3.36,3.36V455.7A3.36,3.36,0,0,1,192.26,459.06Z" fill="none" stroke="#003a50" stroke-miterlimit="10"/><circle cx="180.58" cy="452.02" r="2.46" fill="none" stroke="#003a50" stroke-miterlimit="10"/></g><line x1="180.58" y1="451.27" x2="180.58" y2="464.88" fill="none" stroke="#003a50" stroke-miterlimit="10"/><line x1="173.78" y1="464.88" x2="187.39" y2="464.88" fill="none" stroke="#003a50" stroke-miterlimit="10"/><g clip-path="url(#clip-path)"><rect x="339.32" y="547.32" width="34.02" height="68.03" fill="none" stroke="#003a50" stroke-miterlimit="10"/><rect x="274.11" y="546.63" width="65.21" height="29.22" fill="none" stroke="#003a50" stroke-miterlimit="10"/></g><rect x="437.66" y="502.2" width="56.47" height="30.8" fill="none" stroke="#003a50" stroke-miterlimit="10"/><g clip-path="url(#clip-path)"><path d="M453.16,506.57a.91.91,0,0,1,1.73-.4,26.06,26.06,0,0,1,0,22.86.91.91,0,1,1-1.63-.8,24.2,24.2,0,0,0,0-21.26A.85.85,0,0,1,453.16,506.57Z" fill="none" stroke="#003a50" stroke-miterlimit="10"/><path d="M458.2,506.57a.91.91,0,0,1,1.73-.4,26.06,26.06,0,0,1,0,22.86.91.91,0,1,1-1.63-.8,24.2,24.2,0,0,0,0-21.26A.85.85,0,0,1,458.2,506.57Z" fill="none" stroke="#003a50" stroke-miterlimit="10"/><path d="M463.24,506.57a.91.91,0,0,1,1.73-.4A26.06,26.06,0,0,1,465,529a.91.91,0,1,1-1.63-.8,24.29,24.29,0,0,0,0-21.26A.85.85,0,0,1,463.24,506.57Z" fill="none" stroke="#003a50" stroke-miterlimit="10"/><path d="M468.28,506.57a.91.91,0,0,1,1.73-.4A26.06,26.06,0,0,1,470,529a.91.91,0,1,1-1.63-.8,24.29,24.29,0,0,0,0-21.26A.85.85,0,0,1,468.28,506.57Z" fill="none" stroke="#003a50" stroke-miterlimit="10"/><path d="M473.32,506.57a.92.92,0,0,1,.51-.82.9.9,0,0,1,1.21.42A26,26,0,0,1,475,529a.9.9,0,1,1-1.62-.8,24.29,24.29,0,0,0,0-21.26A.85.85,0,0,1,473.32,506.57Z" fill="none" stroke="#003a50" stroke-miterlimit="10"/><path d="M478.36,506.57a.92.92,0,0,1,.51-.82.9.9,0,0,1,1.21.42,26,26,0,0,1,0,22.86.9.9,0,1,1-1.62-.8,24.29,24.29,0,0,0,0-21.26A.85.85,0,0,1,478.36,506.57Z" fill="none" stroke="#003a50" stroke-miterlimit="10"/><path d="M448.13,506.57a.9.9,0,0,1,1.72-.4,26.06,26.06,0,0,1,0,22.86.91.91,0,1,1-1.63-.8,24.2,24.2,0,0,0,0-21.26A.83.83,0,0,1,448.13,506.57Z" fill="none" stroke="#003a50" stroke-miterlimit="10"/><path d="M443.09,506.57a.9.9,0,0,1,1.72-.4,26.06,26.06,0,0,1,0,22.86.91.91,0,1,1-1.63-.8,24.2,24.2,0,0,0,0-21.26A.83.83,0,0,1,443.09,506.57Z" fill="none" stroke="#003a50" stroke-miterlimit="10"/></g><line x1="437.67" y1="517.6" x2="494.13" y2="517.6" fill="none" stroke="#003a50" stroke-miterlimit="10"/><g clip-path="url(#clip-path)"><rect x="55.82" y="480.79" width="22.68" height="22.68" fill="none" stroke="#003a50" stroke-miterlimit="10"/><path d="M73.66,498.63a9.2,9.2,0,1,1,0-13A9.2,9.2,0,0,1,73.66,498.63Z" fill="none" stroke="#003a50" stroke-miterlimit="10"/><path d="M74.28,497.94c-1.69-.17-3.41.48-5.06-1.18-2.44-2.43.14-5-2.3-7.45s-5,.14-7.46-2.3" fill="none" stroke="#003a50" stroke-miterlimit="10"/><rect x="193.12" y="480.79" width="22.68" height="22.68" fill="none" stroke="#003a50" stroke-miterlimit="10"/><path d="M211,498.63a9.2,9.2,0,1,1,0-13A9.19,9.19,0,0,1,211,498.63Z" fill="none" stroke="#003a50" stroke-miterlimit="10"/><path d="M211.58,497.94c-1.69-.17-3.41.48-5.06-1.18-2.44-2.43.14-5-2.3-7.45s-5,.14-7.46-2.3" fill="none" stroke="#003a50" stroke-miterlimit="10"/><rect x="84.82" y="480.79" width="102.05" height="113.39" fill="none" stroke="#003a50" stroke-miterlimit="10"/><path d="M176.87,584.44H94.82a2.09,2.09,0,0,1-2.08-2.09V514.71H179v67.64A2.1,2.1,0,0,1,176.87,584.44Z" fill="none" stroke="#003a50" stroke-miterlimit="10"/><rect x="92.48" y="488.22" width="42.5" height="22.88" rx="1.98" fill="none" stroke="#003a50" stroke-miterlimit="10"/><rect x="136.71" y="488.22" width="42.5" height="22.88" rx="1.98" fill="none" stroke="#003a50" stroke-miterlimit="10"/></g><rect x="300.54" y="234.98" width="79.37" height="34.02" fill="none" stroke="#003a50" stroke-miterlimit="10"/><rect x="320.27" y="275.33" width="34.02" height="87.1" fill="none" stroke="#003a50" stroke-miterlimit="10"/><g clip-path="url(#clip-path)"><path d="M325.1,345.36a1,1,0,0,1-.45-1.9,28.77,28.77,0,0,1,25.26,0,1,1,0,0,1-.88,1.8,26.72,26.72,0,0,0-23.49,0A1,1,0,0,1,325.1,345.36Z" fill="none" stroke="#003a50" stroke-miterlimit="10"/><path d="M325.1,339.8a1,1,0,0,1-.9-.56,1,1,0,0,1,.45-1.35,28.77,28.77,0,0,1,25.26,0,1,1,0,0,1,.46,1.34,1,1,0,0,1-1.34.46,26.81,26.81,0,0,0-23.49,0A1,1,0,0,1,325.1,339.8Z" fill="none" stroke="#003a50" stroke-miterlimit="10"/><path d="M325.1,334.23a1,1,0,0,1-.45-1.9,28.77,28.77,0,0,1,25.26,0,1,1,0,0,1-.88,1.8,26.72,26.72,0,0,0-23.49,0A1,1,0,0,1,325.1,334.23Z" fill="none" stroke="#003a50" stroke-miterlimit="10"/><path d="M325.1,328.67a1,1,0,0,1-.9-.56,1,1,0,0,1,.45-1.35,28.77,28.77,0,0,1,25.26,0,1,1,0,0,1,.46,1.34,1,1,0,0,1-1.34.46,26.81,26.81,0,0,0-23.49,0A1,1,0,0,1,325.1,328.67Z" fill="none" stroke="#003a50" stroke-miterlimit="10"/><path d="M325.1,323.1a1,1,0,0,1-.45-1.9,28.77,28.77,0,0,1,25.26,0A1,1,0,0,1,349,323a26.72,26.72,0,0,0-23.49,0A1,1,0,0,1,325.1,323.1Z" fill="none" stroke="#003a50" stroke-miterlimit="10"/><path d="M325.1,317.53a1,1,0,0,1-.9-.56,1,1,0,0,1,.45-1.34,28.77,28.77,0,0,1,25.26,0,1,1,0,0,1-.88,1.8,26.72,26.72,0,0,0-23.49,0A1,1,0,0,1,325.1,317.53Z" fill="none" stroke="#003a50" stroke-miterlimit="10"/><path d="M325.1,350.93a1,1,0,0,1-.9-.56,1,1,0,0,1,.45-1.35,28.77,28.77,0,0,1,25.26,0,1,1,0,0,1,.46,1.34,1,1,0,0,1-1.34.46,26.81,26.81,0,0,0-23.49,0A1,1,0,0,1,325.1,350.93Z" fill="none" stroke="#003a50" stroke-miterlimit="10"/><path d="M325.1,356.49a1,1,0,0,1-.45-1.9,28.77,28.77,0,0,1,25.26,0,1,1,0,0,1-.88,1.8,26.72,26.72,0,0,0-23.49,0A1,1,0,0,1,325.1,356.49Z" fill="none" stroke="#003a50" stroke-miterlimit="10"/></g><line x1="337.28" y1="362.48" x2="337.28" y2="275.33" fill="none" stroke="#003a50" stroke-miterlimit="10"/><rect x="354.29" y="275.19" width="42.37" height="34.02" fill="none" stroke="#003a50" stroke-miterlimit="10"/><g clip-path="url(#clip-path)"><path d="M371.41,280a1,1,0,0,1,.56-.9,1,1,0,0,1,1.34.46,28.77,28.77,0,0,1,0,25.26,1,1,0,0,1-1.8-.89,26.72,26.72,0,0,0,0-23.49A1,1,0,0,1,371.41,280Z" fill="none" stroke="#003a50" stroke-miterlimit="10"/><path d="M377,280a1,1,0,0,1,1.91-.44,28.77,28.77,0,0,1,0,25.26,1,1,0,0,1-1.34.45,1,1,0,0,1-.46-1.34,26.81,26.81,0,0,0,0-23.49A.87.87,0,0,1,377,280Z" fill="none" stroke="#003a50" stroke-miterlimit="10"/><path d="M365.84,280a1,1,0,0,1,1.9-.44,28.77,28.77,0,0,1,0,25.26,1,1,0,0,1-1.8-.89,26.72,26.72,0,0,0,0-23.49A1,1,0,0,1,365.84,280Z" fill="none" stroke="#003a50" stroke-miterlimit="10"/><path d="M360.28,280a1,1,0,0,1,.56-.9,1,1,0,0,1,1.34.46,28.77,28.77,0,0,1,0,25.26,1,1,0,0,1-1.8-.89,26.72,26.72,0,0,0,0-23.49A1,1,0,0,1,360.28,280Z" fill="none" stroke="#003a50" stroke-miterlimit="10"/></g><line x1="354.29" y1="292.2" x2="396.66" y2="292.2" fill="none" stroke="#003a50" stroke-miterlimit="10"/><rect x="279.32" y="275.47" width="34.02" height="92.09" fill="none" stroke="#003a50" stroke-miterlimit="10"/><g clip-path="url(#clip-path)"><path d="M284.15,350.5a1,1,0,0,1-.45-1.91,28.77,28.77,0,0,1,25.26,0,1,1,0,0,1,.46,1.34,1,1,0,0,1-1.34.46,26.81,26.81,0,0,0-23.49,0A1,1,0,0,1,284.15,350.5Z" fill="none" stroke="#003a50" stroke-miterlimit="10"/><path d="M284.15,344.93a1,1,0,0,1-.45-1.9A28.77,28.77,0,0,1,309,343a1,1,0,1,1-.88,1.8,26.72,26.72,0,0,0-23.49,0A1,1,0,0,1,284.15,344.93Z" fill="none" stroke="#003a50" stroke-miterlimit="10"/><path d="M284.15,339.37a1,1,0,0,1-.45-1.91,28.77,28.77,0,0,1,25.26,0,1,1,0,0,1,.46,1.34,1,1,0,0,1-1.34.46,26.81,26.81,0,0,0-23.49,0A1,1,0,0,1,284.15,339.37Z" fill="none" stroke="#003a50" stroke-miterlimit="10"/><path d="M284.15,333.8a1,1,0,0,1-.45-1.9,28.77,28.77,0,0,1,25.26,0,1,1,0,1,1-.88,1.8,26.72,26.72,0,0,0-23.49,0A1,1,0,0,1,284.15,333.8Z" fill="none" stroke="#003a50" stroke-miterlimit="10"/><path d="M284.15,328.24a1,1,0,0,1-.45-1.91,28.77,28.77,0,0,1,25.26,0,1,1,0,0,1,.46,1.34,1,1,0,0,1-1.34.46,26.81,26.81,0,0,0-23.49,0A1,1,0,0,1,284.15,328.24Z" fill="none" stroke="#003a50" stroke-miterlimit="10"/><path d="M284.15,322.67a1,1,0,0,1-.45-1.9,28.77,28.77,0,0,1,25.26,0,1,1,0,1,1-.88,1.8,26.72,26.72,0,0,0-23.49,0A1,1,0,0,1,284.15,322.67Z" fill="none" stroke="#003a50" stroke-miterlimit="10"/><path d="M284.15,356.06a1,1,0,0,1-.45-1.9,28.77,28.77,0,0,1,25.26,0,1,1,0,0,1-.88,1.8,26.72,26.72,0,0,0-23.49,0A1,1,0,0,1,284.15,356.06Z" fill="none" stroke="#003a50" stroke-miterlimit="10"/><path d="M284.15,361.63a1,1,0,0,1-.45-1.91,28.77,28.77,0,0,1,25.26,0,1,1,0,0,1,.46,1.34,1,1,0,0,1-1.34.46,26.81,26.81,0,0,0-23.49,0A.87.87,0,0,1,284.15,361.63Z" fill="none" stroke="#003a50" stroke-miterlimit="10"/></g><line x1="296.33" y1="367.61" x2="296.33" y2="275.47" fill="none" stroke="#003a50" stroke-miterlimit="10"/><g clip-path="url(#clip-path)"><path d="M317.65,239.8a1,1,0,0,1,1.91-.44,28.77,28.77,0,0,1,0,25.26,1,1,0,0,1-1.34.46,1,1,0,0,1-.46-1.34,26.83,26.83,0,0,0,0-23.5A.87.87,0,0,1,317.65,239.8Z" fill="none" stroke="#003a50" stroke-miterlimit="10"/><path d="M323.22,239.8a1,1,0,0,1,.56-.9,1,1,0,0,1,1.34.46,28.77,28.77,0,0,1,0,25.26,1,1,0,0,1-1.8-.88,26.74,26.74,0,0,0,0-23.5A1,1,0,0,1,323.22,239.8Z" fill="none" stroke="#003a50" stroke-miterlimit="10"/><path d="M328.78,239.8a1,1,0,0,1,1.91-.44,28.77,28.77,0,0,1,0,25.26,1,1,0,0,1-1.34.46,1,1,0,0,1-.46-1.34,26.83,26.83,0,0,0,0-23.5A1,1,0,0,1,328.78,239.8Z" fill="none" stroke="#003a50" stroke-miterlimit="10"/><path d="M334.35,239.8a1,1,0,0,1,.56-.9,1,1,0,0,1,1.34.46,28.77,28.77,0,0,1,0,25.26,1,1,0,0,1-1.8-.88,26.74,26.74,0,0,0,0-23.5A1,1,0,0,1,334.35,239.8Z" fill="none" stroke="#003a50" stroke-miterlimit="10"/><path d="M339.91,239.8a1,1,0,0,1,1.91-.44,28.77,28.77,0,0,1,0,25.26,1,1,0,0,1-1.34.46,1,1,0,0,1-.46-1.34,26.83,26.83,0,0,0,0-23.5A1,1,0,0,1,339.91,239.8Z" fill="none" stroke="#003a50" stroke-miterlimit="10"/><path d="M345.48,239.8a1,1,0,0,1,.56-.9,1,1,0,0,1,1.34.46,28.77,28.77,0,0,1,0,25.26,1,1,0,0,1-1.8-.88,26.74,26.74,0,0,0,0-23.5A1,1,0,0,1,345.48,239.8Z" fill="none" stroke="#003a50" stroke-miterlimit="10"/><path d="M312.09,239.8a1,1,0,0,1,.56-.9,1,1,0,0,1,1.34.46,28.77,28.77,0,0,1,0,25.26,1,1,0,0,1-1.8-.88,26.74,26.74,0,0,0,0-23.5A1,1,0,0,1,312.09,239.8Z" fill="none" stroke="#003a50" stroke-miterlimit="10"/><path d="M306.52,239.8a1,1,0,0,1,1.91-.44,28.77,28.77,0,0,1,0,25.26,1,1,0,0,1-1.34.46,1,1,0,0,1-.46-1.34,26.83,26.83,0,0,0,0-23.5A.87.87,0,0,1,306.52,239.8Z" fill="none" stroke="#003a50" stroke-miterlimit="10"/></g><line x1="300.54" y1="251.99" x2="379.91" y2="251.99" fill="none" stroke="#003a50" stroke-miterlimit="10"/><g clip-path="url(#clip-path)"><path d="M141.2,143.34h-41v45.77h43.25V145.56A2.21,2.21,0,0,0,141.2,143.34Z" fill="none" stroke="#003a50" stroke-miterlimit="10"/><path d="M141.42,97.47H100.16v45.78h41.26a2,2,0,0,0,2-2V99.46A2,2,0,0,0,141.42,97.47Z" fill="none" stroke="#003a50" stroke-miterlimit="10"/><path d="M143.41,189.11a3.1,3.1,0,0,1,2.82,3.33v4.22a3.1,3.1,0,0,1-2.82,3.33H95.21V86.6H143a3.11,3.11,0,0,1,2.83,3.33v4.22A3.1,3.1,0,0,1,143,97.47H100.16v91.64Z" fill="none" stroke="#003a50" stroke-miterlimit="10"/></g><rect x="100.16" y="97.47" width="9.25" height="91.64" fill="none" stroke="#003a50" stroke-miterlimit="10"/><rect x="203.18" y="50.64" width="17.01" height="224.22" fill="none" stroke="#003a50" stroke-miterlimit="10"/><rect x="396.94" y="95.86" width="17.01" height="101.63" fill="none" stroke="#003a50" stroke-miterlimit="10"/><polygon points="405.98 103.68 408.44 103.68 408.44 189.68 405.98 189.68 402.45 146.68 405.98 103.68" fill="none" stroke="#003a50" stroke-miterlimit="10"/><polygon points="211.14 205.75 208.69 205.75 208.69 119.75 211.14 119.75 214.68 162.75 211.14 205.75" fill="none" stroke="#003a50" stroke-miterlimit="10"/><g clip-path="url(#clip-path)"><rect x="586.44" y="212.65" width="113.38" height="34.02" fill="none" stroke="#003a50" stroke-miterlimit="10"/><path d="M260.14,120.66a14.78,14.78,0,0,0,15.93-23.39,1.14,1.14,0,0,0-1.78,1.43,12.47,12.47,0,0,1-14.15,19.5Z" fill="none" stroke="#003a50" stroke-miterlimit="10"/><rect x="226.12" y="66.4" width="34.02" height="84.03" rx="3.31" fill="none" stroke="#003a50" stroke-miterlimit="10"/><path d="M229.84,147.88a1.39,1.39,0,0,0,1.39-1.39V70.34a1.4,1.4,0,0,0-2.79,0v76.15a1.4,1.4,0,0,0,1.4,1.39" fill="none" stroke="#003a50" stroke-miterlimit="10"/><path d="M244.42,80.07a5.51,5.51,0,1,1,0-7.78A5.5,5.5,0,0,1,244.42,80.07Z" fill="none" stroke="#003a50" stroke-miterlimit="10"/><path d="M244.79,79.66c-1-.1-2,.29-3-.7-1.46-1.46.09-3-1.38-4.47s-3,.09-4.46-1.38" fill="none" stroke="#003a50" stroke-miterlimit="10"/><path d="M260.14,116a10.64,10.64,0,1,0,0-19.6Z" fill="none" stroke="#003a50" stroke-miterlimit="10"/><path d="M233.39,510.4a14.78,14.78,0,0,0-15.93,23.38,1.14,1.14,0,1,0,1.78-1.43,12.47,12.47,0,0,1,14.15-19.5Z" fill="none" stroke="#003a50" stroke-miterlimit="10"/><rect x="233.39" y="480.62" width="34.02" height="84.03" rx="3.31" fill="none" stroke="#003a50" stroke-miterlimit="10"/><path d="M263.7,483.17a1.4,1.4,0,0,0-1.4,1.4v76.14a1.4,1.4,0,0,0,2.79,0V484.57a1.4,1.4,0,0,0-1.39-1.4" fill="none" stroke="#003a50" stroke-miterlimit="10"/><path d="M233.39,515.11a10.63,10.63,0,1,0,0,19.59Z" fill="none" stroke="#003a50" stroke-miterlimit="10"/></g><rect x="337.65" y="74.26" width="52.33" height="113.67" fill="none" stroke="#003a50" stroke-miterlimit="10"/><g clip-path="url(#clip-path)"><path d="M346.59,178.23h34.05a2.1,2.1,0,0,0,2.1-2.1V108.5H344.49v67.63A2.1,2.1,0,0,0,346.59,178.23Z" fill="none" stroke="#003a50" stroke-miterlimit="10"/></g><rect x="344.49" y="108.5" width="38.26" height="13.85" fill="none" stroke="#003a50" stroke-miterlimit="10"/><g clip-path="url(#clip-path)"><rect x="344.09" y="82.01" width="38.71" height="22.88" rx="2.2" fill="none" stroke="#003a50" stroke-miterlimit="10"/></g><rect x="548.03" y="66.67" width="22.68" height="22.68" fill="none" stroke="#003a50" stroke-miterlimit="10"/><g clip-path="url(#clip-path)"><path d="M565.87,84.51a9.19,9.19,0,1,1,0-13A9.19,9.19,0,0,1,565.87,84.51Z" fill="none" stroke="#003a50" stroke-miterlimit="10"/><path d="M566.5,83.82c-1.7-.17-3.42.48-5.07-1.17-2.43-2.44.15-5-2.29-7.46s-5,.14-7.46-2.3" fill="none" stroke="#003a50" stroke-miterlimit="10"/></g><rect x="548.05" y="204.01" width="22.68" height="22.68" fill="none" stroke="#003a50" stroke-miterlimit="10"/><g clip-path="url(#clip-path)"><path d="M565.9,221.85a9.2,9.2,0,1,1,0-13A9.19,9.19,0,0,1,565.9,221.85Z" fill="none" stroke="#003a50" stroke-miterlimit="10"/><path d="M566.52,221.16c-1.69-.17-3.41.49-5.06-1.17-2.44-2.44.14-5-2.3-7.45s-5,.13-7.46-2.31" fill="none" stroke="#003a50" stroke-miterlimit="10"/></g><rect x="457.32" y="95.15" width="113.38" height="102.05" fill="none" stroke="#003a50" stroke-miterlimit="10"/><g clip-path="url(#clip-path)"><path d="M467.06,187.2v-82a2.09,2.09,0,0,1,2.08-2.09h67.64v86.22H469.14A2.08,2.08,0,0,1,467.06,187.2Z" fill="none" stroke="#003a50" stroke-miterlimit="10"/><rect x="540.4" y="102.81" width="22.88" height="42.5" rx="1.98" fill="none" stroke="#003a50" stroke-miterlimit="10"/><rect x="540.4" y="147.04" width="22.88" height="42.5" rx="1.98" fill="none" stroke="#003a50" stroke-miterlimit="10"/></g><line x1="522.93" y1="189.54" x2="522.93" y2="102.81" fill="none" stroke="#003a50" stroke-miterlimit="10"/><rect x="518.56" y="288.75" width="29.48" height="73.78" fill="none" stroke="#003a50" stroke-miterlimit="10"/><rect x="454.13" y="247.11" width="93.07" height="41.64" fill="none" stroke="#003a50" stroke-miterlimit="10"/><g clip-path="url(#clip-path)"><path d="M528,283.6H473.33A15.39,15.39,0,0,1,458.22,268v0a15.38,15.38,0,0,1,15.11-15.64H528a15.39,15.39,0,0,1,15.12,15.64v0A15.39,15.39,0,0,1,528,283.6Z" fill="none" stroke="#003a50" stroke-miterlimit="10"/><path d="M526.15,267.93a2.19,2.19,0,1,1,2.19,2.27A2.22,2.22,0,0,1,526.15,267.93Z" fill="none" stroke="#003a50" stroke-miterlimit="10"/><path d="M271,272.44v-3.07a38.71,38.71,0,0,0-38.71-38.72v41.79" fill="none" stroke="#003a50" stroke-miterlimit="10" stroke-width="1.6"/><path d="M452.75,339.23h-3.07A38.71,38.71,0,0,1,411,300.52h41.79" fill="none" stroke="#003a50" stroke-miterlimit="10" stroke-width="1.6"/><path d="M384.7,436.76v-3.14a39.5,39.5,0,0,0-39.5-39.51v42.65" fill="none" stroke="#003a50" stroke-miterlimit="10" stroke-width="1.6"/><path d="M527.51,430.67h3.88a48.89,48.89,0,0,0,48.9-48.89H527.51" fill="none" stroke="#003a50" stroke-miterlimit="10" stroke-width="1.6"/><path d="M443.94,366.23v3.37a42.32,42.32,0,0,1-42.32,42.33v-45.7" fill="none" stroke="#003a50" stroke-miterlimit="10" stroke-width="1.6"/><line x1="507.79" y1="429.13" x2="453.3" y2="429.13" fill="none" stroke="#003a50" stroke-miterlimit="10" stroke-width="1.6"/><polygon points="504.91 50.09 600.65 50.09 600.65 0.76 504.91 12.42 504.91 50.09" fill="#003a50" fill-rule="evenodd"/><polygon points="52.88 304.58 52.88 208.84 3.55 208.84 15.22 304.58 52.88 304.58" fill="#003a50" fill-rule="evenodd"/><rect x="4.55" y="24.52" width="48.33" height="95.23" fill="#003a50"/><rect x="14.78" y="208.85" width="41.25" height="76.64" fill="#003a50"/><rect x="17.8" y="2.25" width="41.65" height="47.83" fill="#003a50"/><rect x="202.88" y="2.25" width="95" height="47.83" fill="#003a50"/><rect x="384.98" y="2.25" width="34.46" height="47.83" fill="#003a50"/><rect x="210.89" y="6.25" width="77.33" height="50" fill="#003a50"/><rect x="516.2" y="28.92" width="77.33" height="27.33" fill="#003a50"/><rect x="4.89" y="1.05" width="25.83" height="28.2" fill="#003a50"/><rect x="13.88" y="393.68" width="39" height="94.57" fill="#003a50"/><rect x="4.55" y="393.68" width="44.33" height="25.9" fill="#003a50"/><rect x="38.72" y="466.92" width="249.5" height="13.79" fill="#003a50"/><rect x="278.38" y="533.25" width="249.5" height="13.79" fill="#003a50"/><rect x="513.88" y="533.06" width="16.81" height="127.55" fill="#003a50"/><rect x="494.38" y="433.9" width="11.67" height="106.25" fill="#003a50"/><rect x="494.38" y="433.15" width="36.31" height="11.67" fill="#003a50"/><rect x="514.55" y="362.61" width="142" height="16.69" fill="#003a50"/><rect x="571.01" y="51.89" width="16.32" height="314.78" fill="#003a50"/><rect x="379.35" y="192.25" width="16.32" height="82.94" fill="#003a50"/><rect x="271.91" y="466.92" width="16.31" height="80.12" fill="#003a50"/><rect x="447.38" y="338.39" width="6.38" height="28.28" fill="#003a50"/><rect x="447.38" y="245.24" width="6.38" height="56.11" fill="#003a50"/><rect x="270.12" y="268.81" width="120.92" height="6.38" fill="#003a50"/><rect x="220.12" y="268.81" width="12.94" height="6.38" fill="#003a50"/><rect x="585.81" y="246.92" width="70.74" height="6.38" fill="#003a50"/><rect x="585.81" y="278.53" width="25.64" height="6.38" fill="#003a50"/><rect x="547.2" y="326.4" width="25.64" height="6.38" fill="#003a50"/><rect x="545.94" y="250.32" width="6.38" height="118.66" fill="#003a50"/><rect x="443.12" y="362.61" width="91.5" height="6.38" fill="#003a50"/><rect x="313.62" y="362.61" width="88.83" height="6.38" fill="#003a50"/><rect x="313.62" y="272.44" width="6.38" height="94.76" fill="#003a50"/><rect x="220.12" y="48.49" width="6.38" height="222.42" fill="#003a50"/><rect x="390.29" y="48.49" width="6.38" height="226.7" fill="#003a50"/><rect x="383.87" y="433.13" width="59.1" height="6.38" fill="#003a50"/><rect x="482.16" y="433.13" width="17.19" height="6.38" fill="#003a50"/><rect x="283.29" y="433.13" width="62.74" height="6.38" fill="#003a50"/><rect x="308.28" y="438.39" width="6.38" height="99.52" fill="#003a50"/><rect x="431.04" y="438.39" width="6.38" height="99.52" fill="#003a50"/><rect x="283.29" y="438.39" width="6.38" height="99.52" fill="#003a50"/><rect x="287.22" y="455.2" width="26.4" height="6.38" fill="#003a50"/><rect x="524.32" y="429.91" width="6.38" height="107.23" fill="#003a50"/><rect x="524.32" y="368.98" width="6.38" height="13.63" fill="#003a50"/><rect x="373.36" y="542.87" width="6.38" height="108.39" fill="#003a50"/><rect x="488.63" y="544.11" width="6.38" height="104.88" fill="#003a50"/><line x1="283.64" y1="443.22" x2="283.64" y2="440.38" fill="none" stroke="#003a50" stroke-miterlimit="10"/><line x1="283.64" y1="434.97" x2="283.64" y2="372.74" fill="none" stroke="#003a50" stroke-miterlimit="10" stroke-dasharray="5.41 5.41"/><line x1="283.64" y1="370.03" x2="283.64" y2="367.2" fill="none" stroke="#003a50" stroke-miterlimit="10"/><line x1="283.64" y1="399.36" x2="280.81" y2="399.36" fill="none" stroke="#003a50" stroke-miterlimit="10"/><line x1="275.22" y1="399.36" x2="54.51" y2="399.36" fill="none" stroke="#003a50" stroke-miterlimit="10" stroke-dasharray="5.59 5.59"/><line x1="51.72" y1="399.36" x2="48.88" y2="399.36" fill="none" stroke="#003a50" stroke-miterlimit="10"/><rect x="447.38" y="338.39" width="6.38" height="28.28" fill="#003a50"/><rect x="270.12" y="268.81" width="120.92" height="6.38" fill="#003a50"/><rect x="220.12" y="268.81" width="12.94" height="6.38" fill="#003a50"/><rect x="585.81" y="246.92" width="119.48" height="6.38" fill="#003a50"/><rect x="585.81" y="278.53" width="25.64" height="6.38" fill="#003a50"/><rect x="547.2" y="326.4" width="25.64" height="6.38" fill="#003a50"/><rect x="545.94" y="242.85" width="6.38" height="126.14" fill="#003a50"/><line x1="389.57" y1="240.75" x2="392.41" y2="240.75" fill="none" stroke="#003a50" stroke-miterlimit="10"/><line x1="398.41" y1="240.75" x2="443.45" y2="240.75" fill="none" stroke="#003a50" stroke-miterlimit="10" stroke-dasharray="6 6"/><line x1="446.45" y1="240.75" x2="449.29" y2="240.75" fill="none" stroke="#003a50" stroke-miterlimit="10"/><rect x="443.12" y="362.61" width="91.5" height="6.38" fill="#003a50"/><rect x="313.62" y="362.61" width="88.83" height="6.38" fill="#003a50"/><rect x="313.62" y="272.44" width="6.38" height="94.76" fill="#003a50"/><rect x="220.12" y="48.49" width="6.38" height="222.42" fill="#003a50"/><rect x="390.29" y="48.49" width="6.38" height="226.7" fill="#003a50"/><rect x="383.87" y="433.13" width="59.1" height="6.38" fill="#003a50"/><rect x="482.16" y="433.13" width="17.19" height="6.38" fill="#003a50"/><rect x="283.29" y="433.13" width="62.74" height="6.38" fill="#003a50"/><rect x="308.28" y="438.39" width="6.38" height="99.52" fill="#003a50"/><rect x="431.04" y="438.39" width="6.38" height="99.52" fill="#003a50"/><rect x="283.29" y="438.39" width="6.38" height="99.52" fill="#003a50"/><rect x="287.22" y="455.2" width="26.4" height="6.38" fill="#003a50"/><rect x="524.32" y="429.91" width="6.38" height="107.23" fill="#003a50"/><rect x="524.32" y="368.98" width="6.38" height="13.63" fill="#003a50"/><rect x="373.36" y="542.87" width="6.38" height="108.39" fill="#003a50"/><rect x="488.63" y="544.11" width="6.38" height="104.88" fill="#003a50"/><rect x="267.74" y="473.81" width="6.38" height="102.03" fill="#003a50"/></g><g clip-path="url(#clip-path)"><path d="M433.68,29.23a4.61,4.61,0,0,1-1-3.12,4.61,4.61,0,0,1,1-3.12,4,4,0,0,1,5.74,0,4.61,4.61,0,0,1,1,3.12,4.61,4.61,0,0,1-1,3.12,4,4,0,0,1-5.74,0Zm4.61-1a3.52,3.52,0,0,0,.61-2.14,3.55,3.55,0,0,0-.61-2.15,2.23,2.23,0,0,0-3.47,0,3.53,3.53,0,0,0-.62,2.15,3.52,3.52,0,0,0,.62,2.14,2,2,0,0,0,1.73.84A2.05,2.05,0,0,0,438.29,28.25Z" fill="#003a50"/><path d="M442,30.22a.82.82,0,0,1,0-1.14.87.87,0,0,1,.61-.21.85.85,0,0,1,.61.21.82.82,0,0,1,0,1.14.85.85,0,0,1-.61.21A.87.87,0,0,1,442,30.22Z" fill="#003a50"/><path d="M451.62,24.27h-1.56s0,0,0-.12a1.2,1.2,0,0,0-.15-.31,1.91,1.91,0,0,0-.27-.35,1.4,1.4,0,0,0-.5-.29,2.07,2.07,0,0,0-.71-.11,1.77,1.77,0,0,0-1.52.72,3.11,3.11,0,0,0-.54,1.89h0a1.11,1.11,0,0,1,.31-.3,2.73,2.73,0,0,1,.43-.26,3.14,3.14,0,0,1,.67-.21,4,4,0,0,1,.86-.09,3.57,3.57,0,0,1,2.38.78,2.49,2.49,0,0,1,.92,2,2.54,2.54,0,0,1-1,2,3.92,3.92,0,0,1-2.55.78,3.41,3.41,0,0,1-2.73-1.09,4.5,4.5,0,0,1-.93-3V26a4.83,4.83,0,0,1,.93-3,3.18,3.18,0,0,1,2.69-1.21,4.14,4.14,0,0,1,1.5.26,2.83,2.83,0,0,1,1,.67A2.43,2.43,0,0,1,451.62,24.27Zm-1.77,2.23a2.58,2.58,0,0,0-2.79,0,1.3,1.3,0,0,0-.55,1.11,1.34,1.34,0,0,0,.54,1.11,2.6,2.6,0,0,0,2.8,0,1.32,1.32,0,0,0,.55-1.11A1.3,1.3,0,0,0,449.85,26.5Z" fill="#003a50"/><path d="M313.88,29.23a4.57,4.57,0,0,1-1.05-3.12A4.57,4.57,0,0,1,313.88,23a4,4,0,0,1,5.73,0,4.56,4.56,0,0,1,1,3.12,4.56,4.56,0,0,1-1,3.12,4,4,0,0,1-5.73,0Zm4.6-1a3.52,3.52,0,0,0,.62-2.14,3.56,3.56,0,0,0-.62-2.15A2.23,2.23,0,0,0,315,24a3.53,3.53,0,0,0-.62,2.15,3.52,3.52,0,0,0,.62,2.14,2.21,2.21,0,0,0,3.47,0Z" fill="#003a50"/><path d="M322.2,30.22a.82.82,0,0,1,0-1.14,1,1,0,0,1,1.23,0,.85.85,0,0,1,0,1.14,1,1,0,0,1-1.23,0Z" fill="#003a50"/><path d="M331.81,24.27h-1.56s0,0,0-.12a1.85,1.85,0,0,0-.16-.31,1.32,1.32,0,0,0-.77-.64,2,2,0,0,0-.71-.11,1.78,1.78,0,0,0-1.52.72,3.11,3.11,0,0,0-.54,1.89h0a1.27,1.27,0,0,1,.31-.3,3.28,3.28,0,0,1,.43-.26,3.14,3.14,0,0,1,.67-.21,4.12,4.12,0,0,1,.86-.09,3.57,3.57,0,0,1,2.38.78,2.49,2.49,0,0,1,.92,2,2.54,2.54,0,0,1-1,2,3.92,3.92,0,0,1-2.55.78,3.44,3.44,0,0,1-2.73-1.09,4.5,4.5,0,0,1-.93-3V26a4.83,4.83,0,0,1,.93-3,3.2,3.2,0,0,1,2.69-1.21,4.14,4.14,0,0,1,1.5.26,2.74,2.74,0,0,1,1,.67A2.43,2.43,0,0,1,331.81,24.27ZM330,26.5a2.58,2.58,0,0,0-2.79,0,1.3,1.3,0,0,0-.55,1.11,1.32,1.32,0,0,0,.55,1.11,2.28,2.28,0,0,0,1.4.41,2.32,2.32,0,0,0,1.4-.41,1.34,1.34,0,0,0,.54-1.11A1.3,1.3,0,0,0,330,26.5Z" fill="#003a50"/><path d="M170,23.71l-1.75,1.38V23.51l1.92-1.6h1.32v8.4H170Z" fill="#003a50"/><path d="M173.27,30.22a.82.82,0,0,1,0-1.14,1,1,0,0,1,1.22,0,.82.82,0,0,1,0,1.14,1,1,0,0,1-1.22,0Z" fill="#003a50"/><path d="M177.08,29.23a4.61,4.61,0,0,1-1-3.12,4.61,4.61,0,0,1,1-3.12,4,4,0,0,1,5.74,0,4.61,4.61,0,0,1,1,3.12,4.61,4.61,0,0,1-1,3.12,4,4,0,0,1-5.74,0Zm4.61-1a3.52,3.52,0,0,0,.61-2.14,3.55,3.55,0,0,0-.61-2.15,2.23,2.23,0,0,0-3.47,0,3.47,3.47,0,0,0-.62,2.15,3.46,3.46,0,0,0,.62,2.14,2,2,0,0,0,1.73.84A2.05,2.05,0,0,0,181.69,28.25Z" fill="#003a50"/><path d="M26.09,542.81v1.56l-.12,0a1.2,1.2,0,0,0-.31.15,1.31,1.31,0,0,0-.35.27,1.2,1.2,0,0,0-.29.5,2.08,2.08,0,0,0-.12.71,1.75,1.75,0,0,0,.73,1.52,3.11,3.11,0,0,0,1.89.54v0a1.27,1.27,0,0,1-.3-.31,2.14,2.14,0,0,1-.26-.43,3.75,3.75,0,0,1-.22-.67,4.12,4.12,0,0,1-.09-.86,3.58,3.58,0,0,1,.79-2.38,2.62,2.62,0,0,1,4,0,3.92,3.92,0,0,1,.78,2.55,3.38,3.38,0,0,1-1.09,2.73,4.48,4.48,0,0,1-3,.93h-.29a4.85,4.85,0,0,1-3-.93,3.2,3.2,0,0,1-1.2-2.69,3.93,3.93,0,0,1,.26-1.5,2.69,2.69,0,0,1,.66-1A2.48,2.48,0,0,1,26.09,542.81Zm2.22,1.77a2.58,2.58,0,0,0,0,2.79,1.33,1.33,0,0,0,1.12.55,1.31,1.31,0,0,0,1.1-.54,2.56,2.56,0,0,0,0-2.81,1.31,1.31,0,0,0-1.1-.54A1.33,1.33,0,0,0,28.31,544.58Z" fill="#003a50"/><path d="M31,376.91a4.57,4.57,0,0,1-3.12,1,4.6,4.6,0,0,1-3.11-1,3.63,3.63,0,0,1-1.2-2.88,3.59,3.59,0,0,1,1.2-2.86,4.55,4.55,0,0,1,3.11-1,4.53,4.53,0,0,1,3.12,1,3.59,3.59,0,0,1,1.2,2.86A3.63,3.63,0,0,1,31,376.91Zm-1-4.61a3.48,3.48,0,0,0-2.14-.62,3.52,3.52,0,0,0-2.14.62,2.23,2.23,0,0,0,0,3.47,3.5,3.5,0,0,0,2.14.62,3.48,3.48,0,0,0,2.14-.62,2.21,2.21,0,0,0,0-3.47Z" fill="#003a50"/><path d="M32,368.58a.72.72,0,0,1-.57.23.74.74,0,0,1-.56-.23,1,1,0,0,1,0-1.23.73.73,0,0,1,.56-.22.71.71,0,0,1,.57.22,1,1,0,0,1,0,1.23Z" fill="#003a50"/><path d="M26.09,359v1.56l-.12,0a1.85,1.85,0,0,0-.31.16,1.31,1.31,0,0,0-.35.27,1.2,1.2,0,0,0-.29.5,2,2,0,0,0-.12.71,1.76,1.76,0,0,0,.73,1.52,3.11,3.11,0,0,0,1.89.54v0a1.27,1.27,0,0,1-.3-.31,2.46,2.46,0,0,1-.26-.43,3.09,3.09,0,0,1-.22-.67,4.12,4.12,0,0,1-.09-.86,3.53,3.53,0,0,1,.79-2.38,2.62,2.62,0,0,1,4,0,3.92,3.92,0,0,1,.78,2.55,3.41,3.41,0,0,1-1.09,2.73,4.48,4.48,0,0,1-3,.93h-.29a4.85,4.85,0,0,1-3-.93,3.22,3.22,0,0,1-1.2-2.69,3.93,3.93,0,0,1,.26-1.5,2.61,2.61,0,0,1,.66-1A2.44,2.44,0,0,1,26.09,359Zm2.22,1.77a2.58,2.58,0,0,0,0,2.79,1.4,1.4,0,0,0,2.22,0,2.22,2.22,0,0,0,.42-1.4,2.26,2.26,0,0,0-.42-1.4,1.4,1.4,0,0,0-2.22,0Z" fill="#003a50"/><path d="M31,192.92a4.53,4.53,0,0,1-3.12,1,4.55,4.55,0,0,1-3.11-1,4,4,0,0,1,0-5.73,4.56,4.56,0,0,1,3.11-1.05A4.53,4.53,0,0,1,31,187.19a4,4,0,0,1,0,5.73Zm-1-4.6a3.48,3.48,0,0,0-2.14-.62,3.52,3.52,0,0,0-2.14.62,2.23,2.23,0,0,0,0,3.47,3.5,3.5,0,0,0,2.14.62,3.48,3.48,0,0,0,2.14-.62,2.21,2.21,0,0,0,0-3.47Z" fill="#003a50"/><path d="M32,184.6a.71.71,0,0,1-.57.22.73.73,0,0,1-.56-.22.86.86,0,0,1-.22-.62.83.83,0,0,1,.22-.61.74.74,0,0,1,.56-.23.72.72,0,0,1,.57.23.87.87,0,0,1,.21.61A.9.9,0,0,1,32,184.6Z" fill="#003a50"/><path d="M26.09,175v1.55l-.12,0-.31.15a1.6,1.6,0,0,0-.35.28,1.14,1.14,0,0,0-.29.5,2,2,0,0,0-.12.71,1.76,1.76,0,0,0,.73,1.52,3.11,3.11,0,0,0,1.89.54v-.05a1,1,0,0,1-.3-.31,2.4,2.4,0,0,1-.26-.42,3.28,3.28,0,0,1-.22-.67,4.12,4.12,0,0,1-.09-.86,3.58,3.58,0,0,1,.79-2.38,2.46,2.46,0,0,1,2-.92,2.51,2.51,0,0,1,2.05,1,3.89,3.89,0,0,1,.78,2.54,3.38,3.38,0,0,1-1.09,2.73,4.48,4.48,0,0,1-3,.93h-.29a4.85,4.85,0,0,1-3-.93,3.18,3.18,0,0,1-1.2-2.68,3.93,3.93,0,0,1,.26-1.5,2.61,2.61,0,0,1,.66-1A2.41,2.41,0,0,1,26.09,175Zm2.22,1.77a2.56,2.56,0,0,0,0,2.78,1.39,1.39,0,0,0,2.22,0,2.54,2.54,0,0,0,0-2.8,1.4,1.4,0,0,0-2.22,0Z" fill="#003a50"/></g><rect x="447.38" y="240.3" width="125.47" height="6.38" fill="#003a50"/><g clip-path="url(#clip-path)"><path d="M450.44,214.27,448,216.22V214l2.73-2.27h1.86v11.91h-2.11Z" fill="#003a50"/><path d="M457.07,214.27l-2.48,1.95V214l2.73-2.27h1.86v11.91h-2.11Z" fill="#003a50"/><path d="M461.7,223.49a1,1,0,0,1-.32-.81,1.06,1.06,0,0,1,.32-.8,1.25,1.25,0,0,1,.88-.3,1.23,1.23,0,0,1,.86.3,1.06,1.06,0,0,1,.32.8,1,1,0,0,1-.32.81,1.23,1.23,0,0,1-.86.3A1.25,1.25,0,0,1,461.7,223.49Z" fill="#003a50"/><path d="M471,215.64a5.06,5.06,0,0,1,3.34,1.06,4.19,4.19,0,0,1,0,6,5.41,5.41,0,0,1-3.55,1.08,5.82,5.82,0,0,1-3.56-1,3.18,3.18,0,0,1-1.29-2.69H468a1.54,1.54,0,0,0,.7,1.34,3.62,3.62,0,0,0,2,.48,3.17,3.17,0,0,0,2-.57,2.37,2.37,0,0,0,0-3.39,3.26,3.26,0,0,0-2.08-.58,3.54,3.54,0,0,0-1.91.42,1.93,1.93,0,0,0-.7.63l-.05.13h-2.11v-6.88h8.88v1.85H468v2.95h.05a2.31,2.31,0,0,1,.4-.3,2.81,2.81,0,0,1,.55-.27A5.6,5.6,0,0,1,471,215.64Z" fill="#003a50"/><path d="M462.55,310.45h-5.82v-1.84h8.86v1.84l-4.52,2.65v.07h1.27a3.87,3.87,0,0,1,2.8,1,3.52,3.52,0,0,1,1.05,2.67,3.32,3.32,0,0,1-1.33,2.82,7,7,0,0,1-7.24,0,3.36,3.36,0,0,1-1.33-2.86v-.32h2.11v.32c0,1.36,1,2,2.84,2s2.84-.67,2.84-2-.95-2-2.84-2H458V313.2l4.57-2.68Z" fill="#003a50"/><path d="M468.29,320.38a1,1,0,0,1-.32-.8,1.07,1.07,0,0,1,.32-.81,1.41,1.41,0,0,1,1.74,0,1.07,1.07,0,0,1,.32.81,1,1,0,0,1-.32.8,1.41,1.41,0,0,1-1.74,0Z" fill="#003a50"/><path d="M481.91,312H479.7s0-.06,0-.17a2.53,2.53,0,0,0-.22-.44,2.69,2.69,0,0,0-.39-.5,1.77,1.77,0,0,0-.71-.41,2.93,2.93,0,0,0-1-.16,2.51,2.51,0,0,0-2.15,1,4.39,4.39,0,0,0-.76,2.68h.06a1.49,1.49,0,0,1,.44-.43,3.9,3.9,0,0,1,.6-.37,4.45,4.45,0,0,1,1-.3,5.56,5.56,0,0,1,1.22-.13,5,5,0,0,1,3.37,1.11,3.52,3.52,0,0,1,1.31,2.8,3.57,3.57,0,0,1-1.37,2.91,5.55,5.55,0,0,1-3.6,1.1,4.81,4.81,0,0,1-3.87-1.54,6.36,6.36,0,0,1-1.32-4.27v-.41a6.85,6.85,0,0,1,1.32-4.31,4.52,4.52,0,0,1,3.8-1.71,5.66,5.66,0,0,1,2.13.38,3.82,3.82,0,0,1,1.44.93A3.45,3.45,0,0,1,481.91,312Zm-2.51,3.15a3.65,3.65,0,0,0-3.95,0,2,2,0,0,0,0,3.15,3.63,3.63,0,0,0,4,0,2,2,0,0,0,0-3.15Z" fill="#003a50"/><path d="M371.54,327.32h-2.11v-2.65h-7v-1.84l6.29-7.42h2.79v7.42h1.6v1.84h-1.6Zm-2.11-4.49V317.5h-.06l-4.48,5.28v.05Z" fill="#003a50"/><path d="M374.82,327.19a1.17,1.17,0,0,1,0-1.61,1.41,1.41,0,0,1,1.74,0,1.17,1.17,0,0,1,0,1.61,1.41,1.41,0,0,1-1.74,0Z" fill="#003a50"/><path d="M384.93,317.25h-5.82v-1.84H388v1.84l-4.53,2.65V320h1.28a3.9,3.9,0,0,1,2.79,1,3.53,3.53,0,0,1,1.06,2.67,3.35,3.35,0,0,1-1.33,2.82,5.85,5.85,0,0,1-3.62,1,5.79,5.79,0,0,1-3.62-1,3.35,3.35,0,0,1-1.33-2.85v-.33h2.11v.33c0,1.36.94,2,2.84,2s2.84-.67,2.84-2-.95-2-2.84-2h-3.27V320l4.58-2.68Z" fill="#003a50"/><path d="M482.65,409h-2.11v-2.65h-7V404.5l6.29-7.42h2.79v7.42h1.6v1.84h-1.6Zm-2.11-4.49v-5.32h-.06L476,404.45v.05Z" fill="#003a50"/><path d="M485.93,408.86a1,1,0,0,1-.32-.81,1.06,1.06,0,0,1,.32-.8,1.25,1.25,0,0,1,.88-.3,1.22,1.22,0,0,1,.86.3,1,1,0,0,1,.32.8,1,1,0,0,1-.32.81,1.22,1.22,0,0,1-.86.3A1.25,1.25,0,0,1,485.93,408.86Z" fill="#003a50"/><path d="M498.27,409h-2.11v-2.65h-7V404.5l6.3-7.42h2.79v7.42h1.59v1.84h-1.59Zm-2.11-4.49v-5.32h-.07l-4.48,5.27v.05Z" fill="#003a50"/><path d="M270.58,214.27l-2.48,1.95V214l2.73-2.27h1.86v11.91h-2.11Z" fill="#003a50"/><path d="M285.08,223.62h-9.93v-1.56a2.74,2.74,0,0,1,.58-1.74,4,4,0,0,1,1.45-1.2c.49-.25,1.12-.54,1.86-.86l1.88-.78a4.21,4.21,0,0,0,1.45-.91,1.8,1.8,0,0,0,.57-1.3q0-1.89-2.67-1.89t-2.67,2.16V216h-2.11v-.41a3.62,3.62,0,0,1,1.26-3,5.39,5.39,0,0,1,3.52-1,5.65,5.65,0,0,1,3.51,1,3.27,3.27,0,0,1,1.27,2.75,3.14,3.14,0,0,1-.56,1.83,4.29,4.29,0,0,1-1.4,1.31c-.6.34-1.21.65-1.84.93s-1.23.52-1.82.74a5.18,5.18,0,0,0-1.41.75,1.25,1.25,0,0,0-.56,1h7.62Z" fill="#003a50"/><path d="M287.18,223.49a1,1,0,0,1-.32-.81,1.06,1.06,0,0,1,.32-.8,1.25,1.25,0,0,1,.88-.3,1.22,1.22,0,0,1,.86.3,1,1,0,0,1,.32.8,1,1,0,0,1-.32.81,1.22,1.22,0,0,1-.86.3A1.25,1.25,0,0,1,287.18,223.49Z" fill="#003a50"/><path d="M292.59,222.09a7.34,7.34,0,0,1,0-8.84,5.71,5.71,0,0,1,8.13,0,7.34,7.34,0,0,1,0,8.84,5.71,5.71,0,0,1-8.13,0Zm6.53-1.39a5.73,5.73,0,0,0,0-6.07,3.15,3.15,0,0,0-4.92,0,5.67,5.67,0,0,0,0,6.07,3.14,3.14,0,0,0,4.92,0Z" fill="#003a50"/><path d="M115.52,223.62h-9.93v-1.56a2.74,2.74,0,0,1,.58-1.74,4,4,0,0,1,1.44-1.2c.5-.25,1.12-.54,1.87-.86s1.32-.56,1.88-.78a4.07,4.07,0,0,0,1.44-.91,1.77,1.77,0,0,0,.58-1.3q0-1.89-2.67-1.89T108,215.54V216h-2.11v-.41a3.62,3.62,0,0,1,1.26-3,5.36,5.36,0,0,1,3.51-1,5.61,5.61,0,0,1,3.51,1,3.28,3.28,0,0,1,1.28,2.75,3.14,3.14,0,0,1-.56,1.83,4.39,4.39,0,0,1-1.4,1.31c-.6.34-1.21.65-1.84.93s-1.23.52-1.83.74a5.26,5.26,0,0,0-1.4.75,1.22,1.22,0,0,0-.56,1h7.62Z" fill="#003a50"/><path d="M126,223.62h-2.11V221h-7v-1.84l6.29-7.42H126v7.42h1.6V221H126Zm-2.11-4.49v-5.32h-.06l-4.48,5.27v0Z" fill="#003a50"/><path d="M129.32,223.49a1,1,0,0,1-.32-.81,1.06,1.06,0,0,1,.32-.8,1.41,1.41,0,0,1,1.74,0,1.06,1.06,0,0,1,.32.8,1,1,0,0,1-.32.81,1.41,1.41,0,0,1-1.74,0Z" fill="#003a50"/><path d="M133.46,220.28h2.21s0,.07,0,.17a2.51,2.51,0,0,0,.64.92,2,2,0,0,0,.75.42,3.21,3.21,0,0,0,1.05.16,2.66,2.66,0,0,0,2.24-1.06,4.32,4.32,0,0,0,.81-2.71h-.06a2,2,0,0,1-.44.47,2.73,2.73,0,0,1-.6.4,4.18,4.18,0,0,1-.95.32,5.52,5.52,0,0,1-1.23.13,4.92,4.92,0,0,1-3.36-1.13,3.73,3.73,0,0,1,.05-5.72,5.56,5.56,0,0,1,3.61-1.1,4.81,4.81,0,0,1,3.87,1.54,6.4,6.4,0,0,1,1.32,4.27v.41a6.7,6.7,0,0,1-1.37,4.31,4.71,4.71,0,0,1-3.89,1.71,6,6,0,0,1-2.17-.38,3.85,3.85,0,0,1-1.48-.94A3.35,3.35,0,0,1,133.46,220.28Zm2.77-3.17a3.6,3.6,0,0,0,4,0,1.86,1.86,0,0,0,.78-1.57,1.89,1.89,0,0,0-.78-1.58,3.27,3.27,0,0,0-2-.58,3.23,3.23,0,0,0-2,.58,1.88,1.88,0,0,0-.78,1.58A1.85,1.85,0,0,0,136.23,217.11Z" fill="#003a50"/><path d="M466.31,477.3l-2.48,1.95V477l2.73-2.27h1.86v11.91h-2.11Z" fill="#003a50"/><path d="M470.94,486.52a1,1,0,0,1-.32-.81,1.06,1.06,0,0,1,.32-.8,1.25,1.25,0,0,1,.88-.3,1.22,1.22,0,0,1,.86.3,1,1,0,0,1,.32.8,1,1,0,0,1-.32.81,1.22,1.22,0,0,1-.86.3A1.25,1.25,0,0,1,470.94,486.52Z" fill="#003a50"/><path d="M483.53,485.89a7.73,7.73,0,0,1-7.37,0,3,3,0,0,1-1.37-2.56,2.7,2.7,0,0,1,.26-1.16,2.41,2.41,0,0,1,.65-.86,4.14,4.14,0,0,1,1.4-.77l.26-.07v-.09a3,3,0,0,1-.77-.29,2.61,2.61,0,0,1-.66-.44,2.2,2.2,0,0,1-.54-.75,2.42,2.42,0,0,1-.23-1,2.82,2.82,0,0,1,1.26-2.39,5.81,5.81,0,0,1,3.42-.89,5.89,5.89,0,0,1,3.43.89,2.83,2.83,0,0,1,1.24,2.39,2.43,2.43,0,0,1-.22,1,1.87,1.87,0,0,1-.55.74,3.42,3.42,0,0,1-1.19.68l-.23.05v.09l.28.07a6.14,6.14,0,0,1,.63.27,4.09,4.09,0,0,1,.77.5,2.71,2.71,0,0,1,.61.83,2.52,2.52,0,0,1,.28,1.19A3,3,0,0,1,483.53,485.89Zm-5.79-1.36a4.79,4.79,0,0,0,4.2,0,1.59,1.59,0,0,0,0-2.69,4.93,4.93,0,0,0-4.2,0,1.58,1.58,0,0,0,0,2.68Zm-.37-6.52a1.38,1.38,0,0,0,.65,1.2,4.07,4.07,0,0,0,3.64,0,1.43,1.43,0,0,0,0-2.4,4,4,0,0,0-3.62,0A1.38,1.38,0,0,0,477.37,478Z" fill="#003a50"/><path d="M362.73,476.59h-5.82v-1.85h8.86v1.85l-4.52,2.65v.06h1.28a3.9,3.9,0,0,1,2.79,1,3.52,3.52,0,0,1,1.05,2.67A3.32,3.32,0,0,1,365,485.8a6.93,6.93,0,0,1-7.24,0,3.35,3.35,0,0,1-1.33-2.85v-.33h2.11V483c0,1.36.95,2,2.84,2s2.84-.66,2.84-2-.95-2-2.84-2h-3.26v-1.66l4.57-2.69Z" fill="#003a50"/><path d="M368.47,486.52a1,1,0,0,1-.32-.81,1.06,1.06,0,0,1,.32-.8,1.41,1.41,0,0,1,1.74,0,1.06,1.06,0,0,1,.32.8,1,1,0,0,1-.32.81,1.41,1.41,0,0,1-1.74,0Z" fill="#003a50"/><path d="M381.05,485.89a6.39,6.39,0,0,1-3.67.93,6.5,6.5,0,0,1-3.69-.94,2.94,2.94,0,0,1-1.37-2.56,2.56,2.56,0,0,1,.26-1.16,2.3,2.3,0,0,1,.65-.86,4.05,4.05,0,0,1,1.4-.77l.25-.07v-.09a3.05,3.05,0,0,1-.76-.29,2.61,2.61,0,0,1-.66-.44,2.07,2.07,0,0,1-.54-.75,2.42,2.42,0,0,1-.23-1,2.82,2.82,0,0,1,1.26-2.39,5.81,5.81,0,0,1,3.42-.89,5.89,5.89,0,0,1,3.43.89,2.83,2.83,0,0,1,1.24,2.39,2.43,2.43,0,0,1-.22,1,1.87,1.87,0,0,1-.55.74,3.54,3.54,0,0,1-1.2.68l-.22.05v.09l.28.07a5.42,5.42,0,0,1,.62.27,4.19,4.19,0,0,1,.78.5,2.88,2.88,0,0,1,.61.83,2.64,2.64,0,0,1,.28,1.19A3,3,0,0,1,381.05,485.89Zm-5.78-1.36a3.79,3.79,0,0,0,2.1.49,3.89,3.89,0,0,0,2.1-.48,1.59,1.59,0,0,0,0-2.69,3.89,3.89,0,0,0-2.1-.47,3.85,3.85,0,0,0-2.1.47,1.58,1.58,0,0,0,0,2.68ZM374.9,478a1.37,1.37,0,0,0,.64,1.2,4.09,4.09,0,0,0,3.65,0,1.37,1.37,0,0,0,.64-1.2,1.39,1.39,0,0,0-.65-1.2,4,4,0,0,0-3.62,0A1.38,1.38,0,0,0,374.9,478Z" fill="#003a50"/><path d="M140,418.39a5,5,0,0,1,3.34,1.07,4.18,4.18,0,0,1,0,6,5.39,5.39,0,0,1-3.55,1.08,5.79,5.79,0,0,1-3.56-1,3.16,3.16,0,0,1-1.29-2.68h2.11a1.55,1.55,0,0,0,.7,1.33,3.61,3.61,0,0,0,2,.49,3.15,3.15,0,0,0,2-.58,2,2,0,0,0,.7-1.68,2.05,2.05,0,0,0-.73-1.71,3.31,3.31,0,0,0-2.07-.58,3.6,3.6,0,0,0-1.92.42,1.93,1.93,0,0,0-.7.64l0,.12h-2.11v-6.87h8.88v1.84h-6.77v3h0a2.22,2.22,0,0,1,.4-.31,4,4,0,0,1,.55-.27A5.6,5.6,0,0,1,140,418.39Z" fill="#003a50"/><path d="M146.74,426.24a1,1,0,0,1-.32-.8,1.07,1.07,0,0,1,.32-.81,1.25,1.25,0,0,1,.88-.3,1.22,1.22,0,0,1,.86.3,1,1,0,0,1,.32.81,1,1,0,0,1-.32.8,1.22,1.22,0,0,1-.86.3A1.25,1.25,0,0,1,146.74,426.24Z" fill="#003a50"/><path d="M159.08,426.38H157v-2.65h-7v-1.85l6.3-7.41h2.79v7.41h1.59v1.85h-1.59Zm-2.11-4.5v-5.32h-.07l-4.48,5.27v.05Z" fill="#003a50"/></g></svg>