<svg id="Слой_1" data-name="Слой 1" xmlns="http://www.w3.org/2000/svg" xmlns:xlink="http://www.w3.org/1999/xlink" viewBox="0 0 600.95 685.98"><defs><clipPath id="clip-path"><polygon points="0 0.99 0 381.12 18.27 381.12 18.27 650.61 100.29 650.61 100.29 685.98 599.81 685.98 599.81 0.99 0 0.99" fill="none"/></clipPath></defs><polygon points="74.15 648.55 74.15 650.61 100.29 650.61 100.29 685.98 101.42 685.98 101.42 648.55 74.15 648.55" fill="#fff"/><polygon points="9.08 15.34 9.08 366.5 83.58 370.18 85.22 389.23 85.22 436.49 83.91 636.72 102.62 643.1 103.97 674.38 582.32 674.38 582.32 352.66 582.32 281.73 582.32 15.34 9.08 15.34" fill="#fff"/><polygon points="0 16.99 0 368.95 1.52 368.58 1.52 16.99 0 16.99" fill="#fff"/><g clip-path="url(#clip-path)"><rect x="-567.05" y="4.44" width="1162.95" height="2240.57" fill="none" stroke="#003a50" stroke-miterlimit="10"/><polygon points="-554.47 1108.61 -554.47 2232.15 582.93 2232.15 582.93 17.38 -554.47 17.23 -554.47 1037.89 -554.47 1108.61" fill="none" stroke="#003a50" stroke-miterlimit="10"/></g><rect x="212.41" y="36.67" width="87.81" height="4.56" fill="#fff"/><rect x="212.41" y="36.67" width="87.81" height="4.56" fill="none" stroke="#003a50" stroke-miterlimit="10"/><line x1="300.22" y1="38.95" x2="212.41" y2="38.95" fill="none" stroke="#003a50" stroke-miterlimit="10"/><rect x="295.67" y="36.67" width="4.55" height="4.56" fill="#fff"/><rect x="295.67" y="36.67" width="4.55" height="4.56" fill="none" stroke="#003a50" stroke-miterlimit="10"/><rect x="212.41" y="36.67" width="4.55" height="4.56" fill="#fff"/><rect x="212.41" y="36.67" width="4.55" height="4.56" fill="none" stroke="#003a50" stroke-miterlimit="10"/><rect x="252.97" y="36.67" width="4.55" height="4.56" fill="#fff"/><rect x="252.97" y="36.67" width="4.55" height="4.56" fill="none" stroke="#003a50" stroke-miterlimit="10"/><g clip-path="url(#clip-path)"><path d="M253,41.23v2.9c0,20.15-16.12,33.1-36,33.1v-36" fill="none" stroke="#003a50" stroke-miterlimit="10"/></g><rect x="395.22" y="36.67" width="87.8" height="4.56" fill="#fff"/><rect x="395.22" y="36.67" width="87.8" height="4.56" fill="none" stroke="#003a50" stroke-miterlimit="10"/><line x1="483.02" y1="38.95" x2="395.22" y2="38.95" fill="none" stroke="#003a50" stroke-miterlimit="10"/><rect x="478.47" y="36.67" width="4.55" height="4.56" fill="#fff"/><rect x="478.47" y="36.67" width="4.55" height="4.56" fill="none" stroke="#003a50" stroke-miterlimit="10"/><rect x="395.22" y="36.67" width="4.55" height="4.56" fill="#fff"/><rect x="395.22" y="36.67" width="4.55" height="4.56" fill="none" stroke="#003a50" stroke-miterlimit="10"/><rect x="435.77" y="36.67" width="4.55" height="4.56" fill="#fff"/><rect x="435.77" y="36.67" width="4.55" height="4.56" fill="none" stroke="#003a50" stroke-miterlimit="10"/><g clip-path="url(#clip-path)"><path d="M435.77,41.23v2.9c0,20.15-16.12,33.1-36,33.1v-36" fill="none" stroke="#003a50" stroke-miterlimit="10"/></g><rect x="29.39" y="36.67" width="87.81" height="4.56" fill="#fff"/><rect x="29.39" y="36.67" width="87.81" height="4.56" fill="none" stroke="#003a50" stroke-miterlimit="10"/><line x1="29.39" y1="38.95" x2="117.2" y2="38.95" fill="none" stroke="#003a50" stroke-miterlimit="10"/><rect x="29.39" y="36.67" width="4.55" height="4.56" fill="#fff"/><rect x="29.39" y="36.67" width="4.55" height="4.56" fill="none" stroke="#003a50" stroke-miterlimit="10"/><rect x="112.64" y="36.67" width="4.55" height="4.56" fill="#fff"/><rect x="112.64" y="36.67" width="4.55" height="4.56" fill="none" stroke="#003a50" stroke-miterlimit="10"/><rect x="72.09" y="36.67" width="4.55" height="4.56" fill="#fff"/><rect x="72.09" y="36.67" width="4.55" height="4.56" fill="none" stroke="#003a50" stroke-miterlimit="10"/><g clip-path="url(#clip-path)"><path d="M76.64,41.23v2.9c0,20.15,16.12,33.1,36,33.1v-36" fill="none" stroke="#003a50" stroke-miterlimit="10"/></g><rect x="558.68" y="286.07" width="4.48" height="75.84" fill="#fff"/><rect x="558.68" y="286.07" width="4.48" height="75.84" fill="none" stroke="#003a50" stroke-miterlimit="10"/><line x1="560.92" y1="361.92" x2="560.92" y2="286.07" fill="none" stroke="#003a50" stroke-miterlimit="10"/><rect x="558.68" y="357.37" width="4.48" height="4.55" fill="#fff"/><rect x="558.68" y="357.37" width="4.48" height="4.55" fill="none" stroke="#003a50" stroke-miterlimit="10"/><rect x="558.68" y="286.07" width="4.48" height="4.55" fill="#fff"/><rect x="558.68" y="286.07" width="4.48" height="4.55" fill="none" stroke="#003a50" stroke-miterlimit="10"/><rect x="558.68" y="326.63" width="4.48" height="4.55" fill="#fff"/><rect x="558.68" y="326.63" width="4.48" height="4.55" fill="none" stroke="#003a50" stroke-miterlimit="10"/><g clip-path="url(#clip-path)"><path d="M558.68,326.63h-2.85c-19.83,0-32.58-16.12-32.58-36h35.43" fill="none" stroke="#003a50" stroke-miterlimit="10"/></g><rect x="558.6" y="562.31" width="4.56" height="85.76" fill="#fff"/><rect x="558.6" y="562.31" width="4.56" height="85.76" fill="none" stroke="#003a50" stroke-miterlimit="10"/><line x1="560.88" y1="562.3" x2="560.88" y2="648.07" fill="none" stroke="#003a50" stroke-miterlimit="10"/><rect x="558.6" y="562.31" width="4.56" height="4.33" fill="#fff"/><rect x="558.6" y="562.31" width="4.56" height="4.33" fill="none" stroke="#003a50" stroke-miterlimit="10"/><rect x="558.6" y="643.74" width="4.56" height="4.33" fill="#fff"/><rect x="558.6" y="643.74" width="4.56" height="4.33" fill="none" stroke="#003a50" stroke-miterlimit="10"/><rect x="558.6" y="605.17" width="4.56" height="4.33" fill="#fff"/><rect x="558.6" y="605.17" width="4.56" height="4.33" fill="none" stroke="#003a50" stroke-miterlimit="10"/><g clip-path="url(#clip-path)"><path d="M558.61,609.5h-2.9c-20.15,0-33.1,15.33-33.1,34.24h36" fill="none" stroke="#003a50" stroke-miterlimit="10"/></g><rect x="558.6" y="105.51" width="4.56" height="84.74" fill="#fff"/><rect x="558.6" y="105.51" width="4.56" height="84.74" fill="none" stroke="#003a50" stroke-miterlimit="10"/><line x1="560.88" y1="105.52" x2="560.88" y2="190.26" fill="none" stroke="#003a50" stroke-miterlimit="10"/><rect x="558.6" y="105.51" width="4.56" height="4.28" fill="#fff"/><rect x="558.6" y="105.51" width="4.56" height="4.28" fill="none" stroke="#003a50" stroke-miterlimit="10"/><rect x="558.6" y="185.98" width="4.56" height="4.28" fill="#fff"/><rect x="558.6" y="185.98" width="4.56" height="4.28" fill="none" stroke="#003a50" stroke-miterlimit="10"/><rect x="558.6" y="147.87" width="4.56" height="4.28" fill="#fff"/><rect x="558.6" y="147.87" width="4.56" height="4.28" fill="none" stroke="#003a50" stroke-miterlimit="10"/><g clip-path="url(#clip-path)"><path d="M558.61,152.14h-2.9c-20.15,0-33.1,15.15-33.1,33.84h36" fill="none" stroke="#003a50" stroke-miterlimit="10"/></g><rect x="558.6" y="388.33" width="4.56" height="77.53" fill="#fff"/><rect x="558.6" y="388.33" width="4.56" height="77.53" fill="none" stroke="#003a50" stroke-miterlimit="10"/><line x1="560.88" y1="465.86" x2="560.88" y2="388.33" fill="none" stroke="#003a50" stroke-miterlimit="10"/><rect x="558.6" y="461.95" width="4.56" height="3.92" fill="#fff"/><rect x="558.6" y="461.95" width="4.56" height="3.92" fill="none" stroke="#003a50" stroke-miterlimit="10"/><rect x="558.6" y="388.33" width="4.56" height="3.92" fill="#fff"/><rect x="558.6" y="388.33" width="4.56" height="3.92" fill="none" stroke="#003a50" stroke-miterlimit="10"/><rect x="558.6" y="423.2" width="4.56" height="3.92" fill="#fff"/><rect x="558.6" y="423.2" width="4.56" height="3.92" fill="none" stroke="#003a50" stroke-miterlimit="10"/><g clip-path="url(#clip-path)"><path d="M558.61,423.2h-2.9c-20.15,0-33.1-13.86-33.1-30.95h36" fill="none" stroke="#003a50" stroke-miterlimit="10"/></g><rect x="407.82" y="653.1" width="102.05" height="16.75" fill="none" stroke="#003a50" stroke-miterlimit="10"/><polygon points="501.84 660.94 458.95 664.41 415.84 660.94 415.84 658.52 501.84 658.52 501.84 660.94" fill="none" stroke="#003a50" stroke-miterlimit="10"/><rect x="308.42" y="57.17" width="52.33" height="113.67" fill="none" stroke="#003a50" stroke-miterlimit="10"/><g clip-path="url(#clip-path)"><path d="M317.36,161.14h34.05a2.11,2.11,0,0,0,2.1-2.11V91.41H315.26V159A2.11,2.11,0,0,0,317.36,161.14Z" fill="none" stroke="#003a50" stroke-miterlimit="10"/></g><rect x="315.26" y="91.41" width="38.26" height="13.85" fill="none" stroke="#003a50" stroke-miterlimit="10"/><g clip-path="url(#clip-path)"><rect x="314.86" y="64.92" width="38.71" height="22.88" rx="2.2" fill="none" stroke="#003a50" stroke-miterlimit="10"/><path d="M450.54,341.69a1.25,1.25,0,0,1-1.2,1.31,13.79,13.79,0,0,0,1.07,27.55,1.26,1.26,0,1,1,.09,2.51,16.3,16.3,0,0,1-1.26-32.58A1.26,1.26,0,0,1,450.54,341.69Z" fill="none" stroke="#003a50" stroke-miterlimit="10"/><path d="M457.49,379.25a1.25,1.25,0,0,1,.87,1.55,13.78,13.78,0,0,0,26.53,7.5,1.26,1.26,0,0,1,2.42.68,16.3,16.3,0,1,1-31.37-8.86A1.25,1.25,0,0,1,457.49,379.25Z" fill="none" stroke="#003a50" stroke-miterlimit="10"/><path d="M495.26,383.61a1.27,1.27,0,0,1,1.75-.35,13.78,13.78,0,0,0,15.33-22.91,1.26,1.26,0,1,1,1.4-2.09,16.3,16.3,0,0,1-18.13,27.1A1.27,1.27,0,0,1,495.26,383.61Z" fill="none" stroke="#003a50" stroke-miterlimit="10"/><path d="M512.44,349a1.27,1.27,0,0,1,.21-1.77,13.78,13.78,0,0,0-17-21.65,1.26,1.26,0,0,1-1.56-2,16.3,16.3,0,1,1,20.17,25.61A1.26,1.26,0,0,1,512.44,349Z" fill="none" stroke="#003a50" stroke-miterlimit="10"/><path d="M483.62,325a1.27,1.27,0,0,1-.86-1.56,13.78,13.78,0,1,0-26.45-7.75,1.26,1.26,0,0,1-2.42-.71,16.3,16.3,0,0,1,31.29,9.16A1.26,1.26,0,0,1,483.62,325Z" fill="none" stroke="#003a50" stroke-miterlimit="10"/><path d="M460.38,369l-9.36.36a12.65,12.65,0,1,1-1-25.28l9-.32A23.7,23.7,0,0,0,460.38,369Z" fill="none" stroke="#003a50" stroke-miterlimit="10"/><path d="M486.54,378.25,484,387.33a12.65,12.65,0,0,1-24.36-6.84l2.6-9.2a23.6,23.6,0,0,0,24.32,7Z" fill="none" stroke="#003a50" stroke-miterlimit="10"/><path d="M514.62,378.45A12.67,12.67,0,0,1,497.1,382l-7.28-4.88a23.88,23.88,0,0,0,13.12-15.24,24.8,24.8,0,0,0,.84-5.84l7.36,4.92A12.63,12.63,0,0,1,514.62,378.45Z" fill="none" stroke="#003a50" stroke-miterlimit="10"/><path d="M511.42,346.81l-7.72,6.08a23.88,23.88,0,0,0-15.56-20l7.64-6a12.65,12.65,0,1,1,15.64,19.88Z" fill="none" stroke="#003a50" stroke-miterlimit="10"/><path d="M481.5,323.73l-2.28,7.76a23.58,23.58,0,0,0-9.08,2.12l-15.28-4.48a1.21,1.21,0,0,1-.84-1.52L457.1,317a12.87,12.87,0,0,1,13.2-9.4A12.67,12.67,0,0,1,481.5,323.73Z" fill="none" stroke="#003a50" stroke-miterlimit="10"/><path d="M503.78,356a24.8,24.8,0,0,1-.84,5.84,23.88,23.88,0,0,1-13.12,15.24,24.6,24.6,0,0,1-3.28,1.16,23.6,23.6,0,0,1-24.32-7,25.46,25.46,0,0,1-1.84-2.28,23.7,23.7,0,0,1-1.28-25.24,24,24,0,0,1,11-10.16,23.84,23.84,0,0,1,16.32-1.24c.56.16,1.12.36,1.68.56a23.88,23.88,0,0,1,15.56,20A27.09,27.09,0,0,1,503.78,356Z" fill="none" stroke="#003a50" stroke-miterlimit="10"/><path d="M93.44,279.11V250.26h22.8v28.85a11.4,11.4,0,1,1-22.8,0Z" fill="none" stroke="#003a50" stroke-miterlimit="10"/></g><line x1="116.24" y1="261.49" x2="93.44" y2="261.49" fill="none" stroke="#003a50" stroke-miterlimit="10"/><rect x="120.35" y="526.81" width="92.51" height="38.47" fill="none" stroke="#003a50" stroke-miterlimit="10"/><g clip-path="url(#clip-path)"><path d="M138.88,560.5h55.45a14.47,14.47,0,1,0,0-28.93H138.88a14.47,14.47,0,1,0,0,28.93Z" fill="none" stroke="#003a50" stroke-miterlimit="10"/><circle cx="139.1" cy="546.04" r="2.06" fill="none" stroke="#003a50" stroke-miterlimit="10"/><path d="M164.66,641v28.85h22.8V641a11.4,11.4,0,0,0-22.8,0Z" fill="none" stroke="#003a50" stroke-miterlimit="10"/></g><line x1="187.46" y1="658.63" x2="164.66" y2="658.63" fill="none" stroke="#003a50" stroke-miterlimit="10"/><rect x="120.02" y="489.03" width="32.31" height="31.64" fill="none" stroke="#003a50" stroke-miterlimit="10"/><g clip-path="url(#clip-path)"><path d="M140.88,497.5H139a2.72,2.72,0,0,1-5.07,0h-2.46l-4.68,2.69,2.24,3.52,2.11-1.12v9.62h10.06v-9.62l2.11,1.12,2.24-3.52Z" fill="none" stroke="#003a50" stroke-miterlimit="10"/></g><rect x="84.62" y="571.37" width="29.35" height="65.14" fill="none" stroke="#003a50" stroke-miterlimit="10"/><g clip-path="url(#clip-path)"><path d="M106.42,603.12h-23a3.35,3.35,0,0,1-3.36-3.35V577.52a3.36,3.36,0,0,1,3.36-3.36h23a3.36,3.36,0,0,1,3.36,3.36v22.25A3.35,3.35,0,0,1,106.42,603.12Z" fill="none" stroke="#003a50" stroke-miterlimit="10"/><circle cx="94.93" cy="588.64" r="2.27" fill="none" stroke="#003a50" stroke-miterlimit="10"/><path d="M106.42,633.64h-23a3.35,3.35,0,0,1-3.36-3.35V608a3.36,3.36,0,0,1,3.36-3.36h23a3.36,3.36,0,0,1,3.36,3.36v22.25A3.35,3.35,0,0,1,106.42,633.64Z" fill="none" stroke="#003a50" stroke-miterlimit="10"/><circle cx="94.93" cy="619.16" r="2.27" fill="none" stroke="#003a50" stroke-miterlimit="10"/></g><rect x="42.06" y="254.86" width="43.38" height="99.9" fill="none" stroke="#003a50" stroke-miterlimit="10"/><g clip-path="url(#clip-path)"><path d="M47.43,275.5v58.62a16.26,16.26,0,0,0,16.26,16.26h.11a16.26,16.26,0,0,0,16.26-16.26V275.5A16.26,16.26,0,0,0,63.8,259.24h-.11A16.26,16.26,0,0,0,47.43,275.5Z" fill="none" stroke="#003a50" stroke-miterlimit="10"/><path d="M63.74,277.46a2.35,2.35,0,1,0-2.34-2.35A2.36,2.36,0,0,0,63.74,277.46Z" fill="none" stroke="#003a50" stroke-miterlimit="10"/></g><rect x="85.62" y="333.85" width="39.36" height="27.58" fill="none" stroke="#003a50" stroke-miterlimit="10"/><g clip-path="url(#clip-path)"><rect x="90.82" y="336.27" width="28.96" height="29.71" rx="3.36" fill="none" stroke="#003a50" stroke-miterlimit="10"/><circle cx="105.3" cy="351.13" r="2.27" fill="none" stroke="#003a50" stroke-miterlimit="10"/></g><rect x="320.34" y="449.73" width="198.94" height="32.22" fill="none" stroke="#003a50" stroke-miterlimit="10"/><rect x="398.89" y="449.73" width="31.64" height="32.22" fill="none" stroke="#003a50" stroke-miterlimit="10"/><line x1="424" y1="465.84" x2="405.43" y2="465.84" fill="none" stroke="#003a50" stroke-miterlimit="10"/><line x1="414.71" y1="456.39" x2="414.71" y2="475.3" fill="none" stroke="#003a50" stroke-miterlimit="10"/><line x1="421.28" y1="459.16" x2="408.15" y2="472.52" fill="none" stroke="#003a50" stroke-miterlimit="10"/><line x1="408.15" y1="459.16" x2="421.28" y2="472.52" fill="none" stroke="#003a50" stroke-miterlimit="10"/><rect x="239.29" y="253.15" width="28.93" height="101.7" fill="none" stroke="#003a50" stroke-miterlimit="10"/><g clip-path="url(#clip-path)"><path d="M242.56,338.49a.92.92,0,0,1-.83-.52.91.91,0,0,1,.42-1.23,26.47,26.47,0,0,1,23.21,0,.92.92,0,0,1-.81,1.65,24.65,24.65,0,0,0-21.59,0A.85.85,0,0,1,242.56,338.49Z" fill="none" stroke="#003a50" stroke-miterlimit="10"/><path d="M242.56,333.37a.93.93,0,0,1-.83-.51.91.91,0,0,1,.42-1.23,26.38,26.38,0,0,1,23.21,0,.9.9,0,0,1,.42,1.22.92.92,0,0,1-1.23.43,24.56,24.56,0,0,0-21.59,0A.83.83,0,0,1,242.56,333.37Z" fill="none" stroke="#003a50" stroke-miterlimit="10"/><path d="M242.56,328.26a.92.92,0,0,1-.83-.52.91.91,0,0,1,.42-1.23,26.47,26.47,0,0,1,23.21,0,.92.92,0,0,1-.81,1.65,24.65,24.65,0,0,0-21.59,0A.85.85,0,0,1,242.56,328.26Z" fill="none" stroke="#003a50" stroke-miterlimit="10"/><path d="M242.56,323.15a.94.94,0,0,1-.83-.52.91.91,0,0,1,.42-1.23,26.38,26.38,0,0,1,23.21,0,.92.92,0,0,1-.81,1.65,24.56,24.56,0,0,0-21.59,0A.85.85,0,0,1,242.56,323.15Z" fill="none" stroke="#003a50" stroke-miterlimit="10"/><path d="M242.56,318a.92.92,0,0,1-.83-.52.91.91,0,0,1,.42-1.23,26.47,26.47,0,0,1,23.21,0,.92.92,0,0,1-.81,1.65,24.65,24.65,0,0,0-21.59,0A.85.85,0,0,1,242.56,318Z" fill="none" stroke="#003a50" stroke-miterlimit="10"/><path d="M242.56,312.92a.94.94,0,0,1-.83-.52.91.91,0,0,1,.42-1.23,26.38,26.38,0,0,1,23.21,0,.92.92,0,1,1-.81,1.65,24.56,24.56,0,0,0-21.59,0A.85.85,0,0,1,242.56,312.92Z" fill="none" stroke="#003a50" stroke-miterlimit="10"/><path d="M242.56,343.6a.93.93,0,0,1-.83-.51.91.91,0,0,1,.42-1.23,26.38,26.38,0,0,1,23.21,0,.9.9,0,0,1,.42,1.22.92.92,0,0,1-1.23.43,24.56,24.56,0,0,0-21.59,0A.83.83,0,0,1,242.56,343.6Z" fill="none" stroke="#003a50" stroke-miterlimit="10"/><path d="M242.56,348.72a.92.92,0,0,1-.83-.52.91.91,0,0,1,.42-1.23,26.47,26.47,0,0,1,23.21,0,.92.92,0,1,1-.81,1.65,24.65,24.65,0,0,0-21.59,0A.85.85,0,0,1,242.56,348.72Z" fill="none" stroke="#003a50" stroke-miterlimit="10"/></g><line x1="253.76" y1="354.86" x2="253.76" y2="280.04" fill="none" stroke="#003a50" stroke-miterlimit="10"/><rect x="186.29" y="354.86" width="81.53" height="24.26" fill="none" stroke="#003a50" stroke-miterlimit="10"/><g clip-path="url(#clip-path)"><path d="M202.84,357.59a.76.76,0,0,1,.43-.69.78.78,0,0,1,1,.35,22.19,22.19,0,0,1,0,19.47.77.77,0,0,1-1.39-.68,20.66,20.66,0,0,0,0-18.11A.68.68,0,0,1,202.84,357.59Z" fill="none" stroke="#003a50" stroke-miterlimit="10"/><path d="M207.13,357.59a.76.76,0,0,1,.43-.69.78.78,0,0,1,1,.35,22.19,22.19,0,0,1,0,19.47.77.77,0,0,1-1.39-.68,20.66,20.66,0,0,0,0-18.11A.68.68,0,0,1,207.13,357.59Z" fill="none" stroke="#003a50" stroke-miterlimit="10"/><path d="M211.42,357.59a.76.76,0,0,1,.43-.69.78.78,0,0,1,1,.35,22.27,22.27,0,0,1,0,19.47.78.78,0,0,1-1,.35.77.77,0,0,1-.35-1,20.66,20.66,0,0,0,0-18.11A.68.68,0,0,1,211.42,357.59Z" fill="none" stroke="#003a50" stroke-miterlimit="10"/><path d="M215.71,357.59a.77.77,0,0,1,1.46-.34,22.19,22.19,0,0,1,0,19.47.77.77,0,1,1-1.38-.68,20.66,20.66,0,0,0,0-18.11A.68.68,0,0,1,215.71,357.59Z" fill="none" stroke="#003a50" stroke-miterlimit="10"/><path d="M220,357.59a.77.77,0,0,1,1.46-.34,22.19,22.19,0,0,1,0,19.47.77.77,0,1,1-1.38-.68,20.66,20.66,0,0,0,0-18.11A.68.68,0,0,1,220,357.59Z" fill="none" stroke="#003a50" stroke-miterlimit="10"/><path d="M224.28,357.59a.75.75,0,0,1,.44-.69.77.77,0,0,1,1,.35,22.19,22.19,0,0,1,0,19.47.77.77,0,0,1-1.39-.68,20.57,20.57,0,0,0,0-18.11A.81.81,0,0,1,224.28,357.59Z" fill="none" stroke="#003a50" stroke-miterlimit="10"/><path d="M198.55,357.59a.76.76,0,0,1,.43-.69.78.78,0,0,1,1,.35,22.19,22.19,0,0,1,0,19.47.77.77,0,0,1-1.39-.68,20.66,20.66,0,0,0,0-18.11A.81.81,0,0,1,198.55,357.59Z" fill="none" stroke="#003a50" stroke-miterlimit="10"/><path d="M194.26,357.59a.75.75,0,0,1,.44-.69.77.77,0,0,1,1,.35,22.19,22.19,0,0,1,0,19.47.77.77,0,0,1-1.39-.68,20.57,20.57,0,0,0,0-18.11A.81.81,0,0,1,194.26,357.59Z" fill="none" stroke="#003a50" stroke-miterlimit="10"/></g><line x1="186.43" y1="366.98" x2="267.69" y2="366.98" fill="none" stroke="#003a50" stroke-miterlimit="10"/><rect x="247.36" y="213.95" width="113.38" height="34.02" fill="none" stroke="#003a50" stroke-miterlimit="10"/><g clip-path="url(#clip-path)"><path d="M342.94,243.15a1,1,0,0,1-1.91.44,28.77,28.77,0,0,1,0-25.26,1,1,0,0,1,1.34-.45,1,1,0,0,1,.46,1.34,26.81,26.81,0,0,0,0,23.49A1,1,0,0,1,342.94,243.15Z" fill="none" stroke="#003a50" stroke-miterlimit="10"/><path d="M337.37,243.15a1,1,0,0,1-1.9.44,28.77,28.77,0,0,1,0-25.26,1,1,0,0,1,1.8.89,26.72,26.72,0,0,0,0,23.49A1,1,0,0,1,337.37,243.15Z" fill="none" stroke="#003a50" stroke-miterlimit="10"/><path d="M331.8,243.15a1,1,0,0,1-.56.9,1,1,0,0,1-1.34-.46,28.77,28.77,0,0,1,0-25.26,1,1,0,0,1,1.8.89,26.72,26.72,0,0,0,0,23.49A1,1,0,0,1,331.8,243.15Z" fill="none" stroke="#003a50" stroke-miterlimit="10"/><path d="M326.24,243.15a1,1,0,0,1-1.9.44,28.77,28.77,0,0,1,0-25.26,1,1,0,0,1,1.8.89,26.72,26.72,0,0,0,0,23.49A1,1,0,0,1,326.24,243.15Z" fill="none" stroke="#003a50" stroke-miterlimit="10"/><path d="M320.67,243.15a1,1,0,0,1-.56.9,1,1,0,0,1-1.34-.46,28.77,28.77,0,0,1,0-25.26,1,1,0,0,1,1.8.89,26.72,26.72,0,0,0,0,23.49A1,1,0,0,1,320.67,243.15Z" fill="none" stroke="#003a50" stroke-miterlimit="10"/><path d="M315.11,243.15a1,1,0,0,1-1.91.44,28.77,28.77,0,0,1,0-25.26,1,1,0,0,1,1.34-.45,1,1,0,0,1,.46,1.34,26.81,26.81,0,0,0,0,23.49A.87.87,0,0,1,315.11,243.15Z" fill="none" stroke="#003a50" stroke-miterlimit="10"/><path d="M348.5,243.15a1,1,0,0,1-1.9.44,28.77,28.77,0,0,1,0-25.26,1,1,0,0,1,1.8.89,26.72,26.72,0,0,0,0,23.49A1,1,0,0,1,348.5,243.15Z" fill="none" stroke="#003a50" stroke-miterlimit="10"/><path d="M354.07,243.15a1,1,0,0,1-1.91.44,28.77,28.77,0,0,1,0-25.26,1,1,0,0,1,1.34-.45,1,1,0,0,1,.46,1.34,26.81,26.81,0,0,0,0,23.49A1,1,0,0,1,354.07,243.15Z" fill="none" stroke="#003a50" stroke-miterlimit="10"/></g><line x1="360.05" y1="230.96" x2="247.36" y2="230.96" fill="none" stroke="#003a50" stroke-miterlimit="10"/><g clip-path="url(#clip-path)"><path d="M466.39,123V84H425.58v39a1.91,1.91,0,0,0,1.91,1.92h37A1.92,1.92,0,0,0,466.39,123Z" fill="none" stroke="#003a50" stroke-miterlimit="10"/><path d="M468.3,165.56h43.41V124.77H468.3a1.91,1.91,0,0,0-1.91,1.92v36.95A1.91,1.91,0,0,0,468.3,165.56Z" fill="none" stroke="#003a50" stroke-miterlimit="10"/><path d="M468.3,206.34h43.41V165.56H468.3a1.91,1.91,0,0,0-1.91,1.92v37A1.91,1.91,0,0,0,468.3,206.34Z" fill="none" stroke="#003a50" stroke-miterlimit="10"/><path d="M426.31,84a3,3,0,0,1-3-3V77.26a3,3,0,0,1,3-3h90.58V216H466.83a3,3,0,0,1-3-3v-3.76a3,3,0,0,1,3-3H511.7V84Z" fill="none" stroke="#003a50" stroke-miterlimit="10"/></g><rect x="502.01" y="83.99" width="9.7" height="122.36" fill="none" stroke="#003a50" stroke-miterlimit="10"/><g clip-path="url(#clip-path)"><path d="M468.52,124.77H511.7V84H466.39v38.65A2.13,2.13,0,0,0,468.52,124.77Z" fill="none" stroke="#003a50" stroke-miterlimit="10"/><path d="M444.32,734.64a3.11,3.11,0,0,1-3.32,2.83h-4.23a3.11,3.11,0,0,1-3.32-2.83v-48.2H546.83v47.77a3.1,3.1,0,0,1-3.32,2.83h-4.22a3.11,3.11,0,0,1-3.33-2.83V691.39H444.32Z" fill="none" stroke="#003a50" stroke-miterlimit="10"/></g><rect x="367.6" y="77.73" width="17.01" height="101.63" fill="none" stroke="#003a50" stroke-miterlimit="10"/><polygon points="376.64 171.54 379.1 171.54 379.1 85.54 376.64 85.54 373.1 128.54 376.64 171.54" fill="none" stroke="#003a50" stroke-miterlimit="10"/><g clip-path="url(#clip-path)"><path d="M357.86,542.58a14.78,14.78,0,0,0,15.93-23.38,1.14,1.14,0,1,0-1.78,1.43,12.47,12.47,0,0,1-14.15,19.5Z" fill="none" stroke="#003a50" stroke-miterlimit="10"/><rect x="323.84" y="488.33" width="34.02" height="84.03" rx="3.31" fill="none" stroke="#003a50" stroke-miterlimit="10"/><path d="M327.56,569.81a1.39,1.39,0,0,0,1.39-1.4V492.27a1.4,1.4,0,0,0-2.79,0v76.14a1.4,1.4,0,0,0,1.4,1.4" fill="none" stroke="#003a50" stroke-miterlimit="10"/><path d="M342.14,502a5.51,5.51,0,1,1,0-7.79A5.52,5.52,0,0,1,342.14,502Z" fill="none" stroke="#003a50" stroke-miterlimit="10"/><path d="M342.51,501.59c-1-.1-2.05.29-3-.7-1.46-1.46.09-3-1.38-4.47s-3,.08-4.46-1.38" fill="none" stroke="#003a50" stroke-miterlimit="10"/><path d="M357.86,537.87a10.63,10.63,0,1,0,0-19.59Z" fill="none" stroke="#003a50" stroke-miterlimit="10"/><path d="M225.91,139a14.78,14.78,0,0,0,15.93-23.39,1.14,1.14,0,0,0-1.78,1.43,12.47,12.47,0,0,1-14.15,19.5Z" fill="none" stroke="#003a50" stroke-miterlimit="10"/><rect x="191.89" y="84.7" width="34.02" height="84.03" rx="3.31" fill="none" stroke="#003a50" stroke-miterlimit="10"/><path d="M195.61,166.18a1.39,1.39,0,0,0,1.39-1.39V88.64a1.4,1.4,0,0,0-2.79,0v76.15a1.4,1.4,0,0,0,1.4,1.39" fill="none" stroke="#003a50" stroke-miterlimit="10"/><path d="M210.19,98.38a5.51,5.51,0,1,1,0-7.79A5.52,5.52,0,0,1,210.19,98.38Z" fill="none" stroke="#003a50" stroke-miterlimit="10"/><path d="M210.56,98c-1-.1-2.05.29-3-.7-1.46-1.46.09-3-1.38-4.47s-3,.09-4.46-1.38" fill="none" stroke="#003a50" stroke-miterlimit="10"/><path d="M225.91,134.25a10.63,10.63,0,1,0,0-19.59Z" fill="none" stroke="#003a50" stroke-miterlimit="10"/></g><rect x="16.31" y="91.24" width="52.33" height="113.67" fill="none" stroke="#003a50" stroke-miterlimit="10"/><g clip-path="url(#clip-path)"><path d="M59.7,195.2h-34a2.1,2.1,0,0,1-2.11-2.1V125.47H61.81V193.1A2.1,2.1,0,0,1,59.7,195.2Z" fill="none" stroke="#003a50" stroke-miterlimit="10"/></g><rect x="23.55" y="125.47" width="38.26" height="13.85" fill="none" stroke="#003a50" stroke-miterlimit="10"/><g clip-path="url(#clip-path)"><path d="M60,99H25.69a2.21,2.21,0,0,0-2.2,2.21v18.47a2.21,2.21,0,0,0,2.2,2.2H60a2.21,2.21,0,0,0,2.2-2.2V101.19A2.21,2.21,0,0,0,60,99Z" fill="none" stroke="#003a50" stroke-miterlimit="10"/></g><rect x="15.12" y="213.95" width="113.38" height="34.02" fill="none" stroke="#003a50" stroke-miterlimit="10"/><g clip-path="url(#clip-path)"><path d="M32.93,243.15a1,1,0,0,0,1.9.44,28.77,28.77,0,0,0,0-25.26,1,1,0,0,0-1.8.89,26.72,26.72,0,0,1,0,23.49A1,1,0,0,0,32.93,243.15Z" fill="none" stroke="#003a50" stroke-miterlimit="10"/><path d="M38.49,243.15a1,1,0,0,0,1.91.44,28.77,28.77,0,0,0,0-25.26,1,1,0,0,0-1.34-.45,1,1,0,0,0-.46,1.34,26.81,26.81,0,0,1,0,23.49A.87.87,0,0,0,38.49,243.15Z" fill="none" stroke="#003a50" stroke-miterlimit="10"/><path d="M44.06,243.15a1,1,0,0,0,1.9.44,28.77,28.77,0,0,0,0-25.26,1,1,0,0,0-1.8.89,26.72,26.72,0,0,1,0,23.49A1,1,0,0,0,44.06,243.15Z" fill="none" stroke="#003a50" stroke-miterlimit="10"/><path d="M49.62,243.15a1,1,0,0,0,1.91.44,28.77,28.77,0,0,0,0-25.26,1,1,0,0,0-1.34-.45,1,1,0,0,0-.46,1.34,26.81,26.81,0,0,1,0,23.49A1,1,0,0,0,49.62,243.15Z" fill="none" stroke="#003a50" stroke-miterlimit="10"/><path d="M55.19,243.15a1,1,0,0,0,1.9.44,28.77,28.77,0,0,0,0-25.26,1,1,0,0,0-1.8.89,26.72,26.72,0,0,1,0,23.49A1,1,0,0,0,55.19,243.15Z" fill="none" stroke="#003a50" stroke-miterlimit="10"/><path d="M60.75,243.15a1,1,0,0,0,1.91.44,28.77,28.77,0,0,0,0-25.26,1,1,0,0,0-1.34-.45,1,1,0,0,0-.46,1.34,26.81,26.81,0,0,1,0,23.49A1,1,0,0,0,60.75,243.15Z" fill="none" stroke="#003a50" stroke-miterlimit="10"/><path d="M27.36,243.15a1,1,0,0,0,1.91.44,28.77,28.77,0,0,0,0-25.26,1,1,0,0,0-1.34-.45,1,1,0,0,0-.46,1.34A26.43,26.43,0,0,1,30.18,231a26.48,26.48,0,0,1-2.71,11.75A.87.87,0,0,0,27.36,243.15Z" fill="none" stroke="#003a50" stroke-miterlimit="10"/><path d="M21.8,243.15a1,1,0,0,0,.56.9,1,1,0,0,0,1.34-.46A28.41,28.41,0,0,0,26.62,231a28.41,28.41,0,0,0-2.92-12.63,1,1,0,0,0-1.8.89A26.44,26.44,0,0,1,24.62,231a26.48,26.48,0,0,1-2.72,11.75A1,1,0,0,0,21.8,243.15Z" fill="none" stroke="#003a50" stroke-miterlimit="10"/></g><line x1="15.81" y1="230.96" x2="128.5" y2="230.96" fill="none" stroke="#003a50" stroke-miterlimit="10"/><g clip-path="url(#clip-path)"><path d="M150,139A14.78,14.78,0,0,1,134,115.57,1.14,1.14,0,0,1,135.8,117,12.47,12.47,0,0,0,150,136.5Z" fill="none" stroke="#003a50" stroke-miterlimit="10"/><rect x="149.95" y="84.7" width="34.02" height="84.03" rx="3.31" fill="none" stroke="#003a50" stroke-miterlimit="10"/><path d="M180.26,166.18a1.39,1.39,0,0,0,1.39-1.39V88.64a1.4,1.4,0,0,0-2.79,0v76.15a1.4,1.4,0,0,0,1.4,1.39" fill="none" stroke="#003a50" stroke-miterlimit="10"/><path d="M165.68,98.38a5.51,5.51,0,1,0,0-7.79A5.51,5.51,0,0,0,165.68,98.38Z" fill="none" stroke="#003a50" stroke-miterlimit="10"/><path d="M165.31,98c1-.1,2,.29,3-.7,1.46-1.46-.09-3,1.38-4.47s3,.09,4.47-1.38" fill="none" stroke="#003a50" stroke-miterlimit="10"/><path d="M150,134.25a10.63,10.63,0,1,1,0-19.59Z" fill="none" stroke="#003a50" stroke-miterlimit="10"/></g><rect x="514.55" y="488.33" width="22.68" height="22.68" fill="none" stroke="#003a50" stroke-miterlimit="10"/><g clip-path="url(#clip-path)"><circle cx="525.89" cy="499.66" r="9.2" fill="none" stroke="#003a50" stroke-miterlimit="10"/><path d="M533,493.85c-1.7.17-3.41-.48-5.07,1.17-2.44,2.44.15,5-2.3,7.46s-5-.14-7.45,2.3" fill="none" stroke="#003a50" stroke-miterlimit="10"/></g><rect x="380.46" y="488.33" width="22.68" height="22.68" fill="none" stroke="#003a50" stroke-miterlimit="10"/><g clip-path="url(#clip-path)"><circle cx="391.79" cy="499.66" r="9.2" fill="none" stroke="#003a50" stroke-miterlimit="10"/><path d="M398.92,493.85c-1.7.17-3.41-.48-5.06,1.17-2.44,2.44.14,5-2.3,7.46s-5-.14-7.46,2.3" fill="none" stroke="#003a50" stroke-miterlimit="10"/></g><rect x="407.93" y="488.33" width="102.05" height="113.39" fill="none" stroke="#003a50" stroke-miterlimit="10"/><g clip-path="url(#clip-path)"><path d="M417.93,592H500a2.08,2.08,0,0,0,2.08-2.08V522.25H415.84v67.64A2.09,2.09,0,0,0,417.93,592Z" fill="none" stroke="#003a50" stroke-miterlimit="10"/><rect x="459.82" y="495.76" width="42.5" height="22.88" rx="1.98" fill="none" stroke="#003a50" stroke-miterlimit="10"/><rect x="415.59" y="495.76" width="42.5" height="22.88" rx="1.98" fill="none" stroke="#003a50" stroke-miterlimit="10"/></g><line x1="415.59" y1="536.1" x2="502.32" y2="536.1" fill="none" stroke="#003a50" stroke-miterlimit="10"/><rect x="286.4" y="455.95" width="30.76" height="125.1" fill="none" stroke="#003a50" stroke-miterlimit="10"/><g clip-path="url(#clip-path)"><path d="M289.87,564.14a1,1,0,0,1-.88-.55,1,1,0,0,1,.45-1.31,28.14,28.14,0,0,1,24.68,0,1,1,0,0,1,.44,1.31,1,1,0,0,1-1.3.45,26.19,26.19,0,0,0-23,0A1,1,0,0,1,289.87,564.14Z" fill="none" stroke="#003a50" stroke-miterlimit="10"/><path d="M289.87,558.7a1,1,0,0,1-.88-.55,1,1,0,0,1,.45-1.31,28.14,28.14,0,0,1,24.68,0,1,1,0,0,1,.44,1.31,1,1,0,0,1-1.3.45,26.19,26.19,0,0,0-23,0A1,1,0,0,1,289.87,558.7Z" fill="none" stroke="#003a50" stroke-miterlimit="10"/><path d="M289.87,553.26a1,1,0,0,1-.88-.54,1,1,0,0,1,.45-1.32,28.14,28.14,0,0,1,24.68,0,1,1,0,0,1,.44,1.31,1,1,0,0,1-1.3.45,26.19,26.19,0,0,0-23,0A1,1,0,0,1,289.87,553.26Z" fill="none" stroke="#003a50" stroke-miterlimit="10"/><path d="M289.87,547.82a1,1,0,0,1-.88-.54,1,1,0,0,1,.45-1.32,28.14,28.14,0,0,1,24.68,0,1,1,0,0,1,.44,1.31,1,1,0,0,1-1.3.45,26.19,26.19,0,0,0-23,0A1,1,0,0,1,289.87,547.82Z" fill="none" stroke="#003a50" stroke-miterlimit="10"/><path d="M289.87,542.39a1,1,0,0,1-.88-.55,1,1,0,0,1,.45-1.31,28.05,28.05,0,0,1,24.68,0,1,1,0,0,1-.86,1.76,26.1,26.1,0,0,0-23,0A1.12,1.12,0,0,1,289.87,542.39Z" fill="none" stroke="#003a50" stroke-miterlimit="10"/><path d="M289.87,537a1,1,0,0,1-.88-.55,1,1,0,0,1,.45-1.31,28.05,28.05,0,0,1,24.68,0,1,1,0,0,1-.86,1.76,26.1,26.1,0,0,0-23,0A1,1,0,0,1,289.87,537Z" fill="none" stroke="#003a50" stroke-miterlimit="10"/><path d="M289.87,569.58a1,1,0,0,1-.43-1.86,28.05,28.05,0,0,1,24.68,0,1,1,0,0,1,.44,1.31,1,1,0,0,1-1.3.45,26.1,26.1,0,0,0-23,0A1,1,0,0,1,289.87,569.58Z" fill="none" stroke="#003a50" stroke-miterlimit="10"/><path d="M289.87,575a1,1,0,0,1-.43-1.86,28.05,28.05,0,0,1,24.68,0,1,1,0,0,1,.44,1.31,1,1,0,0,1-1.3.45,26.1,26.1,0,0,0-23,0A1,1,0,0,1,289.87,575Z" fill="none" stroke="#003a50" stroke-miterlimit="10"/></g><line x1="301.78" y1="580.87" x2="301.78" y2="456.12" fill="none" stroke="#003a50" stroke-miterlimit="10"/><rect x="218.56" y="639.09" width="98.7" height="30.76" fill="none" stroke="#003a50" stroke-miterlimit="10"/><g clip-path="url(#clip-path)"><path d="M300.36,666.38a1,1,0,0,1-.55.88,1,1,0,0,1-1.31-.45,28.05,28.05,0,0,1,0-24.68,1,1,0,0,1,1.3-.45,1,1,0,0,1,.46,1.31,26.1,26.1,0,0,0,0,23A1.08,1.08,0,0,1,300.36,666.38Z" fill="none" stroke="#003a50" stroke-miterlimit="10"/><path d="M294.92,666.38a1,1,0,0,1-.55.88,1,1,0,0,1-1.31-.45,28.05,28.05,0,0,1,0-24.68,1,1,0,0,1,1.31-.45,1,1,0,0,1,.45,1.31,26.1,26.1,0,0,0,0,23A.94.94,0,0,1,294.92,666.38Z" fill="none" stroke="#003a50" stroke-miterlimit="10"/><path d="M289.48,666.38a1,1,0,0,1-.55.88,1,1,0,0,1-1.31-.45,28.05,28.05,0,0,1,0-24.68,1,1,0,0,1,1.31-.45,1,1,0,0,1,.45,1.31,26.1,26.1,0,0,0,0,23A.94.94,0,0,1,289.48,666.38Z" fill="none" stroke="#003a50" stroke-miterlimit="10"/><path d="M284,666.38a1,1,0,0,1-1.86.43,28.05,28.05,0,0,1,0-24.68,1,1,0,1,1,1.76.86,26.1,26.1,0,0,0,0,23A.94.94,0,0,1,284,666.38Z" fill="none" stroke="#003a50" stroke-miterlimit="10"/><path d="M278.6,666.38a1,1,0,0,1-1.86.43,28.05,28.05,0,0,1,0-24.68,1,1,0,1,1,1.76.86,26.1,26.1,0,0,0,0,23A.94.94,0,0,1,278.6,666.38Z" fill="none" stroke="#003a50" stroke-miterlimit="10"/><path d="M273.16,666.38a1,1,0,0,1-1.86.43,28.14,28.14,0,0,1,0-24.68,1,1,0,1,1,1.76.86,26.19,26.19,0,0,0,0,23A.94.94,0,0,1,273.16,666.38Z" fill="none" stroke="#003a50" stroke-miterlimit="10"/><path d="M305.79,666.38a1,1,0,0,1-1.86.43,28.14,28.14,0,0,1,0-24.68,1,1,0,1,1,1.76.86,26.19,26.19,0,0,0,0,23A.94.94,0,0,1,305.79,666.38Z" fill="none" stroke="#003a50" stroke-miterlimit="10"/><path d="M311.23,666.38a1,1,0,0,1-1.86.43,28.14,28.14,0,0,1,0-24.68,1,1,0,1,1,1.76.86,26.19,26.19,0,0,0,0,23A.94.94,0,0,1,311.23,666.38Z" fill="none" stroke="#003a50" stroke-miterlimit="10"/></g><line x1="317.08" y1="654.47" x2="241.84" y2="654.47" fill="none" stroke="#003a50" stroke-miterlimit="10"/><g clip-path="url(#clip-path)"><rect x="272.1" y="685.77" width="28.86" height="30.54" fill="none" stroke="#003a50" stroke-miterlimit="10"/><rect x="114.14" y="686.41" width="122.14" height="29.57" fill="none" stroke="#003a50" stroke-miterlimit="10"/><rect x="241.84" y="686.02" width="30.26" height="30.26" fill="none" stroke="#003a50" stroke-miterlimit="10"/></g><rect x="185.69" y="456.03" width="26.58" height="64.79" fill="none" stroke="#003a50" stroke-miterlimit="10"/><g clip-path="url(#clip-path)"><path d="M188.69,506.22a.84.84,0,0,1-.76-.47.86.86,0,0,1,.38-1.14,24.28,24.28,0,0,1,21.34,0,.85.85,0,0,1-.75,1.52,22.63,22.63,0,0,0-19.84,0A.84.84,0,0,1,188.69,506.22Z" fill="none" stroke="#003a50" stroke-miterlimit="10"/><path d="M188.69,501.52a.84.84,0,0,1-.76-.48.85.85,0,0,1,.38-1.13,24.28,24.28,0,0,1,21.34,0,.85.85,0,0,1-.75,1.52,22.63,22.63,0,0,0-19.84,0A.84.84,0,0,1,188.69,501.52Z" fill="none" stroke="#003a50" stroke-miterlimit="10"/><path d="M188.69,496.82a.84.84,0,0,1-.76-.48.85.85,0,0,1,.38-1.13,24.28,24.28,0,0,1,21.34,0,.85.85,0,0,1-.75,1.52,22.63,22.63,0,0,0-19.84,0A.84.84,0,0,1,188.69,496.82Z" fill="none" stroke="#003a50" stroke-miterlimit="10"/><path d="M188.69,492.12a.85.85,0,0,1-.38-1.61,24.28,24.28,0,0,1,21.34,0,.85.85,0,0,1-.75,1.52,22.63,22.63,0,0,0-19.84,0A.84.84,0,0,1,188.69,492.12Z" fill="none" stroke="#003a50" stroke-miterlimit="10"/><path d="M188.69,487.42a.84.84,0,0,1-.76-.48.85.85,0,0,1,.38-1.13,24.28,24.28,0,0,1,21.34,0,.85.85,0,0,1-.75,1.52,22.63,22.63,0,0,0-19.84,0A.84.84,0,0,1,188.69,487.42Z" fill="none" stroke="#003a50" stroke-miterlimit="10"/><path d="M188.69,482.71a.83.83,0,0,1-.76-.47.84.84,0,0,1,.38-1.13,24.28,24.28,0,0,1,21.34,0,.84.84,0,0,1,.38,1.13.85.85,0,0,1-1.13.39,22.54,22.54,0,0,0-19.84,0A.83.83,0,0,1,188.69,482.71Z" fill="none" stroke="#003a50" stroke-miterlimit="10"/><path d="M188.69,510.92a.84.84,0,0,1-.76-.47.86.86,0,0,1,.38-1.14,24.28,24.28,0,0,1,21.34,0,.85.85,0,0,1-.75,1.52,22.63,22.63,0,0,0-19.84,0A.84.84,0,0,1,188.69,510.92Z" fill="none" stroke="#003a50" stroke-miterlimit="10"/><path d="M188.69,515.62a.84.84,0,0,1-.76-.47.86.86,0,0,1,.38-1.14,24.28,24.28,0,0,1,21.34,0,.85.85,0,0,1-.75,1.52,22.63,22.63,0,0,0-19.84,0A.84.84,0,0,1,188.69,515.62Z" fill="none" stroke="#003a50" stroke-miterlimit="10"/></g><line x1="198.98" y1="520.67" x2="198.98" y2="456.19" fill="none" stroke="#003a50" stroke-miterlimit="10"/><rect x="85.22" y="451.21" width="49.86" height="31.33" fill="none" stroke="#003a50" stroke-miterlimit="10"/><g clip-path="url(#clip-path)"><path d="M103.24,477.1a.87.87,0,0,0,.47.76.85.85,0,0,0,1.13-.39,24.13,24.13,0,0,0,0-21.19.84.84,0,0,0-1.51.74,22.44,22.44,0,0,1,0,19.71A.84.84,0,0,0,103.24,477.1Z" fill="none" stroke="#003a50" stroke-miterlimit="10"/><path d="M107.91,477.1a.87.87,0,0,0,.47.76.85.85,0,0,0,1.13-.39,24.13,24.13,0,0,0,0-21.19A.84.84,0,0,0,108,457a22.44,22.44,0,0,1,0,19.71A.84.84,0,0,0,107.91,477.1Z" fill="none" stroke="#003a50" stroke-miterlimit="10"/><path d="M112.58,477.1a.87.87,0,0,0,.47.76.85.85,0,0,0,1.13-.39,24.13,24.13,0,0,0,0-21.19.84.84,0,0,0-1.51.74,22.44,22.44,0,0,1,0,19.71A.84.84,0,0,0,112.58,477.1Z" fill="none" stroke="#003a50" stroke-miterlimit="10"/><path d="M117.25,477.1a.87.87,0,0,0,.47.76.85.85,0,0,0,1.13-.39,24.13,24.13,0,0,0,0-21.19.84.84,0,0,0-1.51.74,22.44,22.44,0,0,1,0,19.71A.84.84,0,0,0,117.25,477.1Z" fill="none" stroke="#003a50" stroke-miterlimit="10"/><path d="M121.92,477.1a.87.87,0,0,0,.47.76.85.85,0,0,0,1.13-.39,24.13,24.13,0,0,0,0-21.19A.84.84,0,0,0,122,457a22.44,22.44,0,0,1,0,19.71A.84.84,0,0,0,121.92,477.1Z" fill="none" stroke="#003a50" stroke-miterlimit="10"/><path d="M126.59,477.1a.87.87,0,0,0,.47.76.85.85,0,0,0,1.13-.39,24.13,24.13,0,0,0,0-21.19.84.84,0,0,0-1.13-.38.83.83,0,0,0-.38,1.12,22.44,22.44,0,0,1,0,19.71A.84.84,0,0,0,126.59,477.1Z" fill="none" stroke="#003a50" stroke-miterlimit="10"/><path d="M98.57,477.1a.87.87,0,0,0,.47.76.85.85,0,0,0,1.13-.39,24.13,24.13,0,0,0,0-21.19.84.84,0,0,0-1.51.74,22.44,22.44,0,0,1,0,19.71A.84.84,0,0,0,98.57,477.1Z" fill="none" stroke="#003a50" stroke-miterlimit="10"/><path d="M93.9,477.1a.87.87,0,0,0,.47.76.85.85,0,0,0,1.13-.39,24.13,24.13,0,0,0,0-21.19.83.83,0,0,0-1.12-.38A.84.84,0,0,0,94,457a22.44,22.44,0,0,1,0,19.71A.84.84,0,0,0,93.9,477.1Z" fill="none" stroke="#003a50" stroke-miterlimit="10"/></g><line x1="85.37" y1="466.88" x2="134.93" y2="466.88" fill="none" stroke="#003a50" stroke-miterlimit="10"/><rect x="284.14" y="253.4" width="34.02" height="131.32" fill="none" stroke="#003a50" stroke-miterlimit="10"/><rect x="318.15" y="253.39" width="49.18" height="33.36" fill="none" stroke="#003a50" stroke-miterlimit="10"/><rect x="284.13" y="286.76" width="34.02" height="34.02" fill="none" stroke="#003a50" stroke-miterlimit="10"/><line x1="301.14" y1="305.78" x2="301.14" y2="316.34" fill="none" stroke="#003a50" stroke-miterlimit="10"/><g clip-path="url(#clip-path)"><path d="M300.23,305.78h1.82a3.39,3.39,0,0,0,3.39-3.39v-11.2h-8.6v11.2A3.39,3.39,0,0,0,300.23,305.78Z" fill="none" stroke="#003a50" stroke-miterlimit="10"/></g><line x1="304.62" y1="316.34" x2="297.67" y2="316.34" fill="none" stroke="#003a50" stroke-miterlimit="10"/><rect x="284.14" y="335.04" width="34.02" height="34.02" fill="none" stroke="#003a50" stroke-miterlimit="10"/><g clip-path="url(#clip-path)"><path d="M288.73,359.64a4.69,4.69,0,1,0,4.7-4.7A4.69,4.69,0,0,0,288.73,359.64Z" fill="none" stroke="#003a50" stroke-miterlimit="10"/><path d="M304.17,359.64a4.69,4.69,0,1,0,4.69-4.7A4.69,4.69,0,0,0,304.17,359.64Z" fill="none" stroke="#003a50" stroke-miterlimit="10"/><path d="M288.73,344.47a4.69,4.69,0,1,0,4.7-4.7A4.69,4.69,0,0,0,288.73,344.47Z" fill="none" stroke="#003a50" stroke-miterlimit="10"/><path d="M304.17,344.47a4.69,4.69,0,1,0,4.69-4.7A4.69,4.69,0,0,0,304.17,344.47Z" fill="none" stroke="#003a50" stroke-miterlimit="10"/><rect x="327.71" y="261.09" width="30.06" height="21.66" rx="3.36" fill="none" stroke="#003a50" stroke-miterlimit="10"/><circle cx="342.74" cy="268.13" r="2.46" fill="none" stroke="#003a50" stroke-miterlimit="10"/></g><line x1="342.74" y1="268.89" x2="342.74" y2="255.27" fill="none" stroke="#003a50" stroke-miterlimit="10"/><line x1="335.93" y1="255.27" x2="349.55" y2="255.27" fill="none" stroke="#003a50" stroke-miterlimit="10"/><g clip-path="url(#clip-path)"><path d="M127.27,333.66h3.07A38.71,38.71,0,0,0,169.06,295H127.27" fill="none" stroke="#003a50" stroke-miterlimit="10" stroke-width="1.6"/><path d="M264.63,452.48v3.42a43,43,0,0,1-43,43V452.48" fill="none" stroke="#003a50" stroke-miterlimit="10" stroke-width="1.6"/><path d="M237,250.49v-3.42a43,43,0,0,0-43-43v46.4" fill="none" stroke="#003a50" stroke-miterlimit="10" stroke-width="1.6"/><path d="M134,250.49v-3.57A44.87,44.87,0,0,1,178.83,202v48.45" fill="none" stroke="#003a50" stroke-miterlimit="10" stroke-width="1.6"/><path d="M215,572h3.42a43,43,0,0,1,43,43H215" fill="none" stroke="#003a50" stroke-miterlimit="10" stroke-width="1.6"/><path d="M-43.82,432h3.88A48.89,48.89,0,0,0,9,383.08H-43.82" fill="none" stroke="#003a50" stroke-miterlimit="10" stroke-width="1.6"/><path d="M72.39,437.43H68.5a48.89,48.89,0,0,1-48.89-48.89H72.39" fill="none" stroke="#003a50" stroke-miterlimit="10" stroke-width="1.6"/><path d="M-46.11,712.27H-42A51.13,51.13,0,0,0,9.08,661.15H-46.11" fill="none" stroke="#003a50" stroke-miterlimit="10" stroke-width="1.6"/><line x1="212.06" y1="445.73" x2="157.57" y2="445.73" fill="none" stroke="#003a50" stroke-miterlimit="10" stroke-width="1.6"/><polygon points="-66.42 51.39 29.32 51.39 29.32 2.06 -66.42 13.72 -66.42 51.39" fill="#003a50" fill-rule="evenodd"/><rect x="186.06" y="3.56" width="26.7" height="47.83" fill="#003a50"/><rect x="117.09" y="17.39" width="91.66" height="34" fill="#003a50"/><rect x="-55.13" y="30.23" width="77.33" height="27.33" fill="#003a50"/><polygon points="299.82 51.39 395.56 51.39 395.56 2.06 299.82 13.72 299.82 51.39" fill="#003a50" fill-rule="evenodd"/><rect x="311.11" y="30.23" width="77.33" height="27.33" fill="#003a50"/><rect x="317.16" y="474.54" width="80" height="13.79" fill="#003a50"/><rect x="-56.78" y="363.91" width="142" height="16.69" fill="#003a50"/><rect x="68.91" y="372.44" width="16.32" height="16.79" fill="#003a50"/><rect x="68.91" y="436.49" width="16.32" height="201.07" fill="#003a50"/><rect x="68.91" y="629.38" width="16.32" height="21.06" fill="#003a50"/><rect x="103.97" y="637.56" width="10.75" height="78.67" fill="#003a50"/><rect x="72.38" y="635.21" width="42.34" height="15.54" fill="#003a50"/><rect x="103.98" y="669.85" width="447.72" height="16.32" fill="#003a50"/><rect x="-0.32" y="53.19" width="16.32" height="314.78" fill="#003a50"/><polygon points="547.69 562.09 547.69 466.35 597.02 466.35 585.36 562.09 547.69 562.09" fill="#003a50" fill-rule="evenodd"/><polygon points="547.69 190.2 547.69 285.94 597.02 285.94 585.36 190.2 547.69 190.2" fill="#003a50" fill-rule="evenodd"/><rect x="547.69" y="648.25" width="26.17" height="96.07" fill="#003a50"/><rect x="547.69" y="362.29" width="48.33" height="25.9" fill="#003a50"/><rect x="541.72" y="209.97" width="11.25" height="75.96" fill="#003a50"/><rect x="541.72" y="468.31" width="11.25" height="77.3" fill="#003a50"/><rect x="547.35" y="16.35" width="35.34" height="33.74" fill="#003a50"/><rect x="544.96" y="17.39" width="37.36" height="87.65" fill="#003a50"/><rect x="481.97" y="16.17" width="84.49" height="34.96" fill="#003a50"/><rect x="570.12" y="3.79" width="25.9" height="30.61" fill="#003a50"/><rect x="124.52" y="250.97" width="6.38" height="44.81" fill="#003a50"/><rect x="14.48" y="248.23" width="70.74" height="6.38" fill="#003a50"/><rect x="14.48" y="279.83" width="25.64" height="6.38" fill="#003a50"/><rect x="124.52" y="332.83" width="6.38" height="52.05" fill="#003a50"/><rect x="263.79" y="449.73" width="58.83" height="6.38" fill="#003a50"/><rect x="236.16" y="246.86" width="131.44" height="6.38" fill="#003a50"/><rect x="185.04" y="47.54" width="6.38" height="200.68" fill="#003a50"/><rect x="178.84" y="246.86" width="16.12" height="6.38" fill="#003a50"/><rect x="317.16" y="449.73" width="6.38" height="131.31" fill="#003a50"/><rect x="389.04" y="481.95" width="158.31" height="6.38" fill="#003a50"/><rect x="317.16" y="636.29" width="6.38" height="41.71" fill="#003a50"/><rect x="212.28" y="452.49" width="6.38" height="120.39" fill="#003a50"/><rect x="117.16" y="520.83" width="98.3" height="6.38" fill="#003a50"/><rect x="83.66" y="482.66" width="57.8" height="6.38" fill="#003a50"/><rect x="135.08" y="449.73" width="6.38" height="37.04" fill="#003a50"/><rect x="212.28" y="613.9" width="6.38" height="60.48" fill="#003a50"/><rect x="215.08" y="639.09" width="23.58" height="6.38" fill="#003a50"/><rect x="235.46" y="639.09" width="6.38" height="40.58" fill="#003a50"/><rect x="137.42" y="449.73" width="6.38" height="6.38" fill="#003a50"/><rect x="184.82" y="449.73" width="37.95" height="6.38" fill="#003a50"/><rect x="185.93" y="378.65" width="86.7" height="6.38" fill="#003a50"/><rect x="267.76" y="250.05" width="16.38" height="134.97" fill="#003a50"/><rect x="37.46" y="361.43" width="91.06" height="8.85" fill="#003a50"/><rect x="361.22" y="52.79" width="6.38" height="200.44" fill="#003a50"/><rect x="35.02" y="251.63" width="6.38" height="118.66" fill="#003a50"/><rect x="-24.13" y="327.71" width="25.64" height="6.38" fill="#003a50"/><rect x="68.91" y="642.97" width="6.38" height="73.25" fill="#003a50"/><rect x="79.13" y="567.18" width="41.22" height="6.38" fill="#003a50"/><rect x="84.6" y="532.51" width="33.64" height="6.38" fill="#003a50"/><rect x="100.38" y="648.55" width="6.38" height="58.66" fill="#003a50"/><rect x="113.97" y="485.04" width="6.38" height="86.32" fill="#003a50"/><line x1="321.96" y1="567.79" x2="321.96" y2="570.63" fill="none" stroke="#003a50" stroke-miterlimit="10"/><line x1="321.96" y1="575.87" x2="321.96" y2="636.12" fill="none" stroke="#003a50" stroke-miterlimit="10" stroke-dasharray="5.24 5.24"/><line x1="321.96" y1="638.74" x2="321.96" y2="641.58" fill="none" stroke="#003a50" stroke-miterlimit="10"/><rect x="14.48" y="248.23" width="119.48" height="6.38" fill="#003a50"/><rect x="14.48" y="279.83" width="25.64" height="6.38" fill="#003a50"/><rect x="361.22" y="52.79" width="6.38" height="142.86" fill="#003a50"/><rect x="361.22" y="237.24" width="6.38" height="15.18" fill="#003a50"/><rect x="35.02" y="251.63" width="6.38" height="118.66" fill="#003a50"/><rect x="-24.13" y="327.71" width="25.64" height="6.38" fill="#003a50"/><rect x="68.91" y="642.97" width="6.38" height="73.25" fill="#003a50"/><rect x="84.6" y="532.51" width="33.64" height="6.38" fill="#003a50"/><rect x="100.38" y="648.55" width="6.38" height="58.66" fill="#003a50"/><rect x="113.97" y="485.38" width="6.38" height="85.99" fill="#003a50"/></g><g clip-path="url(#clip-path)"><path d="M229.13,30.53a4.57,4.57,0,0,1-1-3.12,4.63,4.63,0,0,1,1-3.12,3.63,3.63,0,0,1,2.88-1.2,3.59,3.59,0,0,1,2.86,1.2,4.58,4.58,0,0,1,1,3.12,4.53,4.53,0,0,1-1,3.12,3.59,3.59,0,0,1-2.86,1.2A3.63,3.63,0,0,1,229.13,30.53Zm4.61-1a3.5,3.5,0,0,0,.62-2.14,3.52,3.52,0,0,0-.62-2.14,2.23,2.23,0,0,0-3.47,0,3.5,3.5,0,0,0-.62,2.14,3.5,3.5,0,0,0,.62,2.14,2.21,2.21,0,0,0,3.47,0Z" fill="#003a50"/><path d="M237.46,31.52a.72.72,0,0,1-.23-.57.75.75,0,0,1,.23-.57,1,1,0,0,1,1.23,0,.74.74,0,0,1,.22.57.71.71,0,0,1-.22.57,1,1,0,0,1-1.23,0Z" fill="#003a50"/><path d="M247.07,25.58h-1.56s0,0,0-.13a2.34,2.34,0,0,0-.16-.31,1.73,1.73,0,0,0-.27-.35,1.46,1.46,0,0,0-.5-.29,2.3,2.3,0,0,0-.71-.11,1.78,1.78,0,0,0-1.52.72,3.12,3.12,0,0,0-.54,1.9h0a1.49,1.49,0,0,1,.31-.31,4.92,4.92,0,0,1,.43-.26,3.14,3.14,0,0,1,.67-.21,4.12,4.12,0,0,1,.86-.09,3.53,3.53,0,0,1,2.38.79,2.46,2.46,0,0,1,.92,2,2.52,2.52,0,0,1-1,2.05,3.92,3.92,0,0,1-2.55.78,3.41,3.41,0,0,1-2.73-1.09,4.5,4.5,0,0,1-.93-3v-.29a4.85,4.85,0,0,1,.93-3,3.22,3.22,0,0,1,2.69-1.21,3.93,3.93,0,0,1,1.5.27,2.61,2.61,0,0,1,1,.66A2.44,2.44,0,0,1,247.07,25.58ZM245.3,27.8a2.58,2.58,0,0,0-2.79,0,1.4,1.4,0,0,0,0,2.22,2.22,2.22,0,0,0,1.4.42,2.26,2.26,0,0,0,1.4-.42,1.31,1.31,0,0,0,.54-1.11A1.3,1.3,0,0,0,245.3,27.8Z" fill="#003a50"/><path d="M406.12,30.53a4.57,4.57,0,0,1-1-3.12,4.63,4.63,0,0,1,1-3.12,4,4,0,0,1,5.74,0,4.63,4.63,0,0,1,1,3.12,4.57,4.57,0,0,1-1,3.12,4,4,0,0,1-5.74,0Zm4.61-1a3.5,3.5,0,0,0,.61-2.14,3.52,3.52,0,0,0-.61-2.14,2.23,2.23,0,0,0-3.47,0,3.5,3.5,0,0,0-.62,2.14,3.5,3.5,0,0,0,.62,2.14,2,2,0,0,0,1.73.84A2.05,2.05,0,0,0,410.73,29.55Z" fill="#003a50"/><path d="M414.45,31.52a.72.72,0,0,1-.23-.57.75.75,0,0,1,.23-.57.87.87,0,0,1,.61-.21.85.85,0,0,1,.61.21.71.71,0,0,1,.23.57.69.69,0,0,1-.23.57.85.85,0,0,1-.61.21A.87.87,0,0,1,414.45,31.52Z" fill="#003a50"/><path d="M424.06,25.58H422.5s0,0,0-.13a1.38,1.38,0,0,0-.15-.31,2.19,2.19,0,0,0-.27-.35,1.57,1.57,0,0,0-.5-.29,2.35,2.35,0,0,0-.71-.11,1.77,1.77,0,0,0-1.52.72,3.12,3.12,0,0,0-.54,1.9h0a1.49,1.49,0,0,1,.31-.31,3.78,3.78,0,0,1,.43-.26,3.14,3.14,0,0,1,.67-.21,4,4,0,0,1,.86-.09,3.53,3.53,0,0,1,2.38.79,2.46,2.46,0,0,1,.92,2,2.52,2.52,0,0,1-1,2.05,3.92,3.92,0,0,1-2.55.78,3.38,3.38,0,0,1-2.73-1.09,4.5,4.5,0,0,1-.93-3v-.29a4.85,4.85,0,0,1,.93-3,3.21,3.21,0,0,1,2.69-1.21,3.93,3.93,0,0,1,1.5.27,2.69,2.69,0,0,1,1,.66A2.44,2.44,0,0,1,424.06,25.58Zm-1.77,2.22a2.58,2.58,0,0,0-2.79,0,1.3,1.3,0,0,0-.55,1.11,1.31,1.31,0,0,0,.54,1.11,2.54,2.54,0,0,0,2.8,0,1.4,1.4,0,0,0,0-2.22Z" fill="#003a50"/><path d="M43.6,30.53a4.57,4.57,0,0,1-1-3.12,4.63,4.63,0,0,1,1-3.12,4,4,0,0,1,5.74,0,4.63,4.63,0,0,1,1,3.12,4.57,4.57,0,0,1-1,3.12,4,4,0,0,1-5.74,0Zm4.61-1a3.5,3.5,0,0,0,.61-2.14,3.52,3.52,0,0,0-.61-2.14,2.23,2.23,0,0,0-3.47,0,3.5,3.5,0,0,0-.62,2.14,3.5,3.5,0,0,0,.62,2.14,2,2,0,0,0,1.73.84A2.05,2.05,0,0,0,48.21,29.55Z" fill="#003a50"/><path d="M51.93,31.52A.72.72,0,0,1,51.7,31a.75.75,0,0,1,.23-.57.87.87,0,0,1,.61-.21.85.85,0,0,1,.61.21.71.71,0,0,1,.23.57.69.69,0,0,1-.23.57.85.85,0,0,1-.61.21A.87.87,0,0,1,51.93,31.52Z" fill="#003a50"/><path d="M61.54,25.58H60s0,0,0-.13a1.38,1.38,0,0,0-.15-.31,2.19,2.19,0,0,0-.27-.35,1.57,1.57,0,0,0-.5-.29,2.35,2.35,0,0,0-.71-.11,1.77,1.77,0,0,0-1.52.72,3.12,3.12,0,0,0-.54,1.9h0a1.27,1.27,0,0,1,.31-.31,3.78,3.78,0,0,1,.43-.26,3.14,3.14,0,0,1,.67-.21,4,4,0,0,1,.86-.09,3.53,3.53,0,0,1,2.38.79,2.46,2.46,0,0,1,.92,2,2.52,2.52,0,0,1-1,2.05,3.92,3.92,0,0,1-2.55.78,3.38,3.38,0,0,1-2.73-1.09,4.5,4.5,0,0,1-.93-3v-.29a4.85,4.85,0,0,1,.93-3,3.21,3.21,0,0,1,2.69-1.21,3.93,3.93,0,0,1,1.5.27,2.69,2.69,0,0,1,1,.66A2.44,2.44,0,0,1,61.54,25.58ZM59.77,27.8a2.58,2.58,0,0,0-2.79,0,1.3,1.3,0,0,0-.55,1.11A1.31,1.31,0,0,0,57,30a2.54,2.54,0,0,0,2.8,0,1.4,1.4,0,0,0,0-2.22Z" fill="#003a50"/><path d="M574.41,636.64a5.2,5.2,0,0,1-6.24,0,4,4,0,0,1,0-5.74,5.2,5.2,0,0,1,6.24,0,4,4,0,0,1,0,5.74Zm-1-4.61a4.08,4.08,0,0,0-4.29,0,2.07,2.07,0,0,0-.83,1.74,2,2,0,0,0,.83,1.73,4,4,0,0,0,4.29,0,2,2,0,0,0,.84-1.73A2.05,2.05,0,0,0,573.43,632Z" fill="#003a50"/><path d="M575.4,628.31a.82.82,0,0,1-1.14,0,1,1,0,0,1,0-1.22.82.82,0,0,1,1.14,0,1,1,0,0,1,0,1.22Z" fill="#003a50"/><path d="M569.46,618.7v1.56a.37.37,0,0,0-.13,0l-.31.15a2.33,2.33,0,0,0-.35.27,1.37,1.37,0,0,0-.29.51,2,2,0,0,0-.11.71,1.76,1.76,0,0,0,.72,1.51,3.11,3.11,0,0,0,1.89.54v0a1.11,1.11,0,0,1-.3-.31,2.73,2.73,0,0,1-.26-.43,3,3,0,0,1-.21-.67,4,4,0,0,1-.09-.85,3.55,3.55,0,0,1,.78-2.38,2.46,2.46,0,0,1,2-.92,2.54,2.54,0,0,1,2.05,1,3.87,3.87,0,0,1,.78,2.54,3.41,3.41,0,0,1-1.09,2.73,4.5,4.5,0,0,1-3,.93h-.29a4.83,4.83,0,0,1-3-.93,3.16,3.16,0,0,1-1.21-2.68,4.06,4.06,0,0,1,.26-1.5,2.87,2.87,0,0,1,.67-1A2.44,2.44,0,0,1,569.46,618.7Zm2.22,1.77a2.26,2.26,0,0,0-.41,1.4,2.21,2.21,0,0,0,.41,1.39,1.3,1.3,0,0,0,1.11.55,1.34,1.34,0,0,0,1.11-.54,2.6,2.6,0,0,0,0-2.8,1.35,1.35,0,0,0-1.11-.55A1.32,1.32,0,0,0,571.68,620.47Z" fill="#003a50"/><path d="M574.41,176.17a5.2,5.2,0,0,1-6.24,0,3.63,3.63,0,0,1-1.2-2.88,3.59,3.59,0,0,1,1.2-2.86,5.2,5.2,0,0,1,6.24,0,3.59,3.59,0,0,1,1.2,2.86A3.63,3.63,0,0,1,574.41,176.17Zm-1-4.61a4,4,0,0,0-4.29,0,2.23,2.23,0,0,0,0,3.47,4,4,0,0,0,4.29,0,2.21,2.21,0,0,0,0-3.47Z" fill="#003a50"/><path d="M575.4,167.84a.82.82,0,0,1-1.14,0,1,1,0,0,1,0-1.23.85.85,0,0,1,1.14,0,1,1,0,0,1,0,1.23Z" fill="#003a50"/><path d="M569.46,158.23v1.56s-.05,0-.13,0a1.2,1.2,0,0,0-.31.15,1.49,1.49,0,0,0-.35.27,1.32,1.32,0,0,0-.29.5,2,2,0,0,0-.11.71A1.78,1.78,0,0,0,569,163a3.11,3.11,0,0,0,1.89.54v0a1.27,1.27,0,0,1-.3-.31,3.28,3.28,0,0,1-.26-.43,3.14,3.14,0,0,1-.21-.67,4.12,4.12,0,0,1-.09-.86,3.57,3.57,0,0,1,.78-2.38,2.49,2.49,0,0,1,2-.92,2.54,2.54,0,0,1,2.05,1,3.92,3.92,0,0,1,.78,2.55,3.41,3.41,0,0,1-1.09,2.73,4.5,4.5,0,0,1-3,.93h-.29a4.83,4.83,0,0,1-3-.93,3.18,3.18,0,0,1-1.21-2.69,4.14,4.14,0,0,1,.26-1.5,2.83,2.83,0,0,1,.67-1A2.44,2.44,0,0,1,569.46,158.23Zm2.22,1.77a2.58,2.58,0,0,0,0,2.79,1.3,1.3,0,0,0,1.11.55,1.32,1.32,0,0,0,1.11-.55,2.28,2.28,0,0,0,.41-1.4,2.32,2.32,0,0,0-.41-1.4,1.34,1.34,0,0,0-1.11-.54A1.3,1.3,0,0,0,571.68,160Z" fill="#003a50"/><path d="M574.31,457.06a5.19,5.19,0,0,1-6.23,0,4,4,0,0,1,0-5.74,5.19,5.19,0,0,1,6.23,0,4,4,0,0,1,0,5.74Zm-1-4.61a4.06,4.06,0,0,0-4.28,0,2,2,0,0,0-.83,1.74,2,2,0,0,0,.83,1.73,4,4,0,0,0,4.28,0,2,2,0,0,0,.84-1.73A2.05,2.05,0,0,0,573.33,452.45Z" fill="#003a50"/><path d="M575.3,448.73a.69.69,0,0,1-.57.23.71.71,0,0,1-.57-.23,1,1,0,0,1,0-1.22.75.75,0,0,1,.57-.23.72.72,0,0,1,.57.23,1,1,0,0,1,0,1.22Z" fill="#003a50"/><path d="M569.76,442.18a3.52,3.52,0,0,1,.75-2.35,2.94,2.94,0,0,1,4.24,0,3.77,3.77,0,0,1,.76,2.5,4.11,4.11,0,0,1-.68,2.51,2.24,2.24,0,0,1-1.9.91v-1.49a1.07,1.07,0,0,0,.94-.49,2.51,2.51,0,0,0,.35-1.44,2.2,2.2,0,0,0-.41-1.43,1.66,1.66,0,0,0-2.39,0,2.33,2.33,0,0,0-.41,1.46,2.62,2.62,0,0,0,.29,1.36,1.45,1.45,0,0,0,.46.49l.08,0v1.49H567v-6.26h1.3v4.77h2.09v0a1.6,1.6,0,0,1-.22-.28c-.07-.13-.13-.26-.19-.39A4,4,0,0,1,569.76,442.18Z" fill="#003a50"/><path d="M574.31,312.27a5.19,5.19,0,0,1-6.23,0,4,4,0,0,1,0-5.74,5.19,5.19,0,0,1,6.23,0,4,4,0,0,1,0,5.74Zm-1-4.61a4.06,4.06,0,0,0-4.28,0,2,2,0,0,0-.83,1.74,2,2,0,0,0,.83,1.73,4,4,0,0,0,4.28,0,2,2,0,0,0,.84-1.73A2.05,2.05,0,0,0,573.33,307.66Z" fill="#003a50"/><path d="M575.3,303.94a.69.69,0,0,1-.57.23.71.71,0,0,1-.57-.23,1,1,0,0,1,0-1.22.75.75,0,0,1,.57-.23.72.72,0,0,1,.57.23,1,1,0,0,1,0,1.22Z" fill="#003a50"/><path d="M569.76,297.39a3.52,3.52,0,0,1,.75-2.35,2.94,2.94,0,0,1,4.24,0,3.77,3.77,0,0,1,.76,2.5,4.11,4.11,0,0,1-.68,2.51,2.24,2.24,0,0,1-1.9.91V299.5a1.07,1.07,0,0,0,.94-.49,2.51,2.51,0,0,0,.35-1.44,2.2,2.2,0,0,0-.41-1.43,1.66,1.66,0,0,0-2.39,0,2.31,2.31,0,0,0-.41,1.46,2.58,2.58,0,0,0,.29,1.35,1.41,1.41,0,0,0,.46.5l.08,0V301H567v-6.26h1.3v4.77h2.09v0a1.6,1.6,0,0,1-.22-.28c-.07-.13-.13-.26-.19-.39A4,4,0,0,1,569.76,297.39Z" fill="#003a50"/></g><rect x="562.96" y="648.25" width="24.67" height="37.73" fill="#003a50"/><rect y="241.61" width="1.52" height="6.38" fill="#003a50"/><rect x="243.14" y="251.97" width="6.38" height="29.3" fill="#003a50"/><rect x="247.18" y="274.89" width="35.15" height="6.38" fill="#003a50"/><rect x="235.46" y="676.89" width="6.38" height="9.09" fill="#003a50"/><g clip-path="url(#clip-path)"><path d="M156.92,602.3a5,5,0,0,1,3.34,1.06,4.17,4.17,0,0,1,0,6,5.37,5.37,0,0,1-3.54,1.08,5.75,5.75,0,0,1-3.56-1,3.16,3.16,0,0,1-1.29-2.68h2.11a1.53,1.53,0,0,0,.7,1.33,3.61,3.61,0,0,0,2,.49,3.11,3.11,0,0,0,2-.58,2.36,2.36,0,0,0,0-3.38,3.26,3.26,0,0,0-2.08-.59,3.54,3.54,0,0,0-1.91.42,1.84,1.84,0,0,0-.7.64l0,.12h-2.11v-6.87h8.88v1.84h-6.77v3h0a1.91,1.91,0,0,1,.4-.31,3.89,3.89,0,0,1,.54-.27A6,6,0,0,1,156.92,602.3Z" fill="#003a50"/><path d="M163.62,610.14a1,1,0,0,1-.32-.8,1,1,0,0,1,.32-.81,1.41,1.41,0,0,1,1.74,0,1.07,1.07,0,0,1,.32.81,1,1,0,0,1-.32.8,1.41,1.41,0,0,1-1.74,0Z" fill="#003a50"/><path d="M177.4,610.28h-9.94v-1.57a2.77,2.77,0,0,1,.59-1.74,3.87,3.87,0,0,1,1.44-1.19c.5-.26,1.12-.55,1.87-.87s1.32-.55,1.88-.77a4.22,4.22,0,0,0,1.44-.91,1.82,1.82,0,0,0,.57-1.31c0-1.26-.88-1.88-2.66-1.88s-2.68.72-2.68,2.16v.4h-2.1v-.4a3.62,3.62,0,0,1,1.26-3,5.34,5.34,0,0,1,3.51-1,5.68,5.68,0,0,1,3.51,1,3.29,3.29,0,0,1,1.27,2.75,3.17,3.17,0,0,1-.55,1.84,4.39,4.39,0,0,1-1.41,1.3c-.59.34-1.21.65-1.83.93s-1.24.53-1.83.75a5.26,5.26,0,0,0-1.4.75,1.22,1.22,0,0,0-.57,1h7.63Z" fill="#003a50"/><path d="M294.32,601.72h-2.21s0-.06,0-.17a2.53,2.53,0,0,0-.22-.44,2.74,2.74,0,0,0-.38-.5,1.93,1.93,0,0,0-.71-.41,3,3,0,0,0-1-.16,2.49,2.49,0,0,0-2.15,1,4.39,4.39,0,0,0-.77,2.68h.06a1.63,1.63,0,0,1,.44-.43A3.55,3.55,0,0,1,288,603a3.67,3.67,0,0,1,.95-.3,5.41,5.41,0,0,1,1.21-.13,5.06,5.06,0,0,1,3.38,1.11,3.54,3.54,0,0,1,1.3,2.8,3.59,3.59,0,0,1-1.36,2.91,5.59,5.59,0,0,1-3.61,1.1A4.81,4.81,0,0,1,286,608.9a6.38,6.38,0,0,1-1.32-4.27v-.41a6.85,6.85,0,0,1,1.32-4.31,4.52,4.52,0,0,1,3.81-1.71,5.85,5.85,0,0,1,2.12.37,4,4,0,0,1,1.44.94A3.45,3.45,0,0,1,294.32,601.72Zm-2.5,3.15a3.67,3.67,0,0,0-4,0,2,2,0,0,0,0,3.15,3.26,3.26,0,0,0,2,.59,3.21,3.21,0,0,0,2-.59,2,2,0,0,0,0-3.15Z" fill="#003a50"/><path d="M297,610.14a1,1,0,0,1-.32-.8,1.07,1.07,0,0,1,.32-.81,1.25,1.25,0,0,1,.88-.3,1.22,1.22,0,0,1,.86.3,1.07,1.07,0,0,1,.32.81,1,1,0,0,1-.32.8,1.22,1.22,0,0,1-.86.3A1.25,1.25,0,0,1,297,610.14Z" fill="#003a50"/><path d="M301.11,606.93h2.21s0,.07,0,.18a2.07,2.07,0,0,0,.23.43,2.37,2.37,0,0,0,.41.49,2.2,2.2,0,0,0,.75.41,3.21,3.21,0,0,0,1.05.17,2.67,2.67,0,0,0,2.24-1.07,4.29,4.29,0,0,0,.81-2.7h-.06a2.24,2.24,0,0,1-.44.46,2.42,2.42,0,0,1-.6.4,3.39,3.39,0,0,1-.95.32,5.43,5.43,0,0,1-1.22.14,5,5,0,0,1-3.37-1.13,3.73,3.73,0,0,1,.05-5.72,5.54,5.54,0,0,1,3.61-1.11,4.81,4.81,0,0,1,3.87,1.55,6.35,6.35,0,0,1,1.32,4.26v.41a6.7,6.7,0,0,1-1.37,4.31,4.71,4.71,0,0,1-3.89,1.71,6,6,0,0,1-2.17-.37,3.82,3.82,0,0,1-1.47-1A3.33,3.33,0,0,1,301.11,606.93Zm2.77-3.16a3.6,3.6,0,0,0,3.95,0,1.87,1.87,0,0,0,.78-1.57,1.89,1.89,0,0,0-.77-1.58,3.24,3.24,0,0,0-2-.58,3.17,3.17,0,0,0-2,.58,1.86,1.86,0,0,0-.78,1.58A1.89,1.89,0,0,0,303.88,603.77Z" fill="#003a50"/><path d="M153.54,465.17l-2.48,1.95v-2.24l2.73-2.27h1.86v11.91h-2.11Z" fill="#003a50"/><path d="M158.17,474.39a1,1,0,0,1-.32-.81,1.07,1.07,0,0,1,.32-.81,1.45,1.45,0,0,1,1.74,0,1.07,1.07,0,0,1,.32.81,1,1,0,0,1-.32.81,1.45,1.45,0,0,1-1.74,0Z" fill="#003a50"/><path d="M170.75,473.75a6.4,6.4,0,0,1-3.68.93,6.49,6.49,0,0,1-3.68-.93,2.94,2.94,0,0,1-1.37-2.56,2.66,2.66,0,0,1,.25-1.16,2.55,2.55,0,0,1,.66-.86,3.89,3.89,0,0,1,1.4-.77l.25-.07v-.09a3.51,3.51,0,0,1-.76-.29,2.88,2.88,0,0,1-.67-.44,2.1,2.1,0,0,1-.53-.76,2.39,2.39,0,0,1-.23-1,2.8,2.8,0,0,1,1.26-2.38,5.74,5.74,0,0,1,3.42-.9,5.84,5.84,0,0,1,3.43.9,2.82,2.82,0,0,1,1.24,2.38,2.5,2.5,0,0,1-.22,1,1.87,1.87,0,0,1-.55.74,3.72,3.72,0,0,1-1.2.68l-.22.05v.09l.28.07a4.41,4.41,0,0,1,1.4.77,2.82,2.82,0,0,1,.61.82,2.71,2.71,0,0,1,.28,1.2A3,3,0,0,1,170.75,473.75ZM165,472.4a3.79,3.79,0,0,0,2.1.48,4,4,0,0,0,2.1-.47,1.6,1.6,0,0,0,0-2.7,4,4,0,0,0-2.1-.47,3.94,3.94,0,0,0-2.1.47,1.51,1.51,0,0,0-.74,1.35A1.49,1.49,0,0,0,165,472.4Zm-.37-6.52a1.35,1.35,0,0,0,.64,1.19,4,4,0,0,0,3.65,0,1.35,1.35,0,0,0,.64-1.19,1.38,1.38,0,0,0-.65-1.2,4,4,0,0,0-3.62,0A1.36,1.36,0,0,0,164.6,465.88Z" fill="#003a50"/><path d="M475.47,621.23,473,623.18v-2.24l2.73-2.27h1.87v11.91h-2.11Z" fill="#003a50"/><path d="M486.29,620.52h-5.82v-1.85h8.86v1.85l-4.52,2.65v.06h1.28a3.87,3.87,0,0,1,2.79,1,3.52,3.52,0,0,1,1.05,2.66,3.33,3.33,0,0,1-1.33,2.83,7,7,0,0,1-7.24,0,3.4,3.4,0,0,1-1.33-2.86v-.32h2.11v.32c0,1.36.95,2,2.84,2s2.84-.66,2.84-2-.94-2-2.84-2h-3.26v-1.67l4.57-2.69Z" fill="#003a50"/><path d="M492,630.45a1,1,0,0,1-.32-.8,1.07,1.07,0,0,1,.32-.81,1.25,1.25,0,0,1,.88-.3,1.23,1.23,0,0,1,.86.3,1.07,1.07,0,0,1,.32.81,1,1,0,0,1-.32.8,1.23,1.23,0,0,1-.86.3A1.25,1.25,0,0,1,492,630.45Z" fill="#003a50"/><path d="M504.62,629.82a7.73,7.73,0,0,1-7.37,0,3,3,0,0,1-1.37-2.56,2.56,2.56,0,0,1,.26-1.16,2.51,2.51,0,0,1,.65-.86,4.05,4.05,0,0,1,1.4-.77l.26-.06v-.09a3,3,0,0,1-.77-.3,2.61,2.61,0,0,1-.66-.44,2.2,2.2,0,0,1-.54-.75,2.42,2.42,0,0,1-.23-1,2.79,2.79,0,0,1,1.26-2.38,5.74,5.74,0,0,1,3.42-.9,5.81,5.81,0,0,1,3.43.9,2.8,2.8,0,0,1,1.24,2.38,2.43,2.43,0,0,1-.22,1,1.87,1.87,0,0,1-.55.74,3.46,3.46,0,0,1-1.19.69l-.23,0v.09a1.27,1.27,0,0,1,.28.06,6.14,6.14,0,0,1,.63.27,4.09,4.09,0,0,1,.77.5,2.88,2.88,0,0,1,.61.83,2.52,2.52,0,0,1,.28,1.19A3,3,0,0,1,504.62,629.82Zm-5.79-1.35a3.79,3.79,0,0,0,2.1.48,3.84,3.84,0,0,0,2.1-.48,1.59,1.59,0,0,0,0-2.69,4.93,4.93,0,0,0-4.2,0,1.49,1.49,0,0,0-.74,1.35A1.5,1.5,0,0,0,498.83,628.47Zm-.37-6.52a1.37,1.37,0,0,0,.65,1.19,3.2,3.2,0,0,0,1.82.43,3.24,3.24,0,0,0,1.82-.43,1.43,1.43,0,0,0,0-2.39,3.94,3.94,0,0,0-3.62,0A1.36,1.36,0,0,0,498.46,622Z" fill="#003a50"/><path d="M108.69,397l-2.48,1.95v-2.24l2.73-2.27h1.86V406.3h-2.11Z" fill="#003a50"/><path d="M114.82,404.76a7.33,7.33,0,0,1,0-8.83,5.69,5.69,0,0,1,8.13,0,7.33,7.33,0,0,1,0,8.83,5.71,5.71,0,0,1-8.13,0Zm6.52-1.38a5.69,5.69,0,0,0,0-6.08,3.16,3.16,0,0,0-4.91,0,5.69,5.69,0,0,0,0,6.08,3.14,3.14,0,0,0,4.91,0Z" fill="#003a50"/><path d="M126.62,406.17a1,1,0,0,1-.33-.81,1,1,0,0,1,.33-.81,1.44,1.44,0,0,1,1.73,0,1,1,0,0,1,.33.81,1,1,0,0,1-.33.81,1.44,1.44,0,0,1-1.73,0Z" fill="#003a50"/><path d="M140.24,397.74H138s0-.06,0-.17a2.36,2.36,0,0,0-.21-.44,2.69,2.69,0,0,0-.39-.5,2,2,0,0,0-.71-.41,3,3,0,0,0-1-.16,2.49,2.49,0,0,0-2.15,1,4.39,4.39,0,0,0-.77,2.68h.06a1.8,1.8,0,0,1,.44-.43,3.55,3.55,0,0,1,.61-.37,4.87,4.87,0,0,1,.95-.3,5.49,5.49,0,0,1,1.22-.13,5.05,5.05,0,0,1,3.37,1.11,3.51,3.51,0,0,1,1.3,2.8,3.57,3.57,0,0,1-1.36,2.91,5.49,5.49,0,0,1-3.6,1.1,4.81,4.81,0,0,1-3.87-1.54,6.36,6.36,0,0,1-1.32-4.27v-.41a6.85,6.85,0,0,1,1.32-4.31,4.5,4.5,0,0,1,3.8-1.71,5.66,5.66,0,0,1,2.13.38,3.75,3.75,0,0,1,1.43.94A3.44,3.44,0,0,1,140.24,397.74Zm-2.51,3.15a3.65,3.65,0,0,0-3.95,0,1.88,1.88,0,0,0-.78,1.58,1.85,1.85,0,0,0,.77,1.57,3.21,3.21,0,0,0,2,.59,3.26,3.26,0,0,0,2-.59,2,2,0,0,0,0-3.15Z" fill="#003a50"/><path d="M97,184.18l-2.48,1.95v-2.24l2.73-2.27h1.86v11.91H97Z" fill="#003a50"/><path d="M103.6,184.18l-2.49,1.95v-2.24l2.74-2.27h1.86v11.91H103.6Z" fill="#003a50"/><path d="M108.23,193.4a1,1,0,0,1-.32-.81,1.07,1.07,0,0,1,.32-.81,1.45,1.45,0,0,1,1.74,0,1.07,1.07,0,0,1,.32.81,1,1,0,0,1-.32.81,1.45,1.45,0,0,1-1.74,0Z" fill="#003a50"/><path d="M121.85,185h-2.21s0-.07,0-.18a1.85,1.85,0,0,0-.21-.44,2.69,2.69,0,0,0-.39-.5,1.9,1.9,0,0,0-.71-.41,3,3,0,0,0-1-.16,2.51,2.51,0,0,0-2.15,1,4.41,4.41,0,0,0-.76,2.68h.06a1.49,1.49,0,0,1,.44-.43,4.87,4.87,0,0,1,.6-.37,5.11,5.11,0,0,1,1-.3,6.24,6.24,0,0,1,1.22-.13,5,5,0,0,1,3.37,1.12,3.49,3.49,0,0,1,1.31,2.79,3.57,3.57,0,0,1-1.37,2.91,5.49,5.49,0,0,1-3.6,1.1,4.81,4.81,0,0,1-3.87-1.54,6.36,6.36,0,0,1-1.32-4.27v-.41a6.87,6.87,0,0,1,1.32-4.31,4.52,4.52,0,0,1,3.8-1.71,5.66,5.66,0,0,1,2.13.38,3.72,3.72,0,0,1,1.44.94A3.43,3.43,0,0,1,121.85,185Zm-2.51,3.14a3.65,3.65,0,0,0-4,0,2,2,0,0,0,0,3.15,3.63,3.63,0,0,0,4,0,1.85,1.85,0,0,0,.77-1.57A1.88,1.88,0,0,0,119.34,188.12Z" fill="#003a50"/><path d="M238.87,184.18l-2.49,1.95v-2.24l2.74-2.27H241v11.91h-2.11Z" fill="#003a50"/><path d="M245.49,184.18,243,186.13v-2.24l2.73-2.27h1.86v11.91h-2.11Z" fill="#003a50"/><path d="M250.13,193.4a1,1,0,0,1-.32-.81,1,1,0,0,1,.32-.81,1.27,1.27,0,0,1,.87-.29,1.24,1.24,0,0,1,.86.29,1,1,0,0,1,.33.81,1,1,0,0,1-.33.81,1.2,1.2,0,0,1-.86.29A1.22,1.22,0,0,1,250.13,193.4Z" fill="#003a50"/><path d="M259.41,185.55a5,5,0,0,1,3.34,1.06,3.68,3.68,0,0,1,1.26,3,3.73,3.73,0,0,1-1.3,3,5.39,5.39,0,0,1-3.55,1.07,5.79,5.79,0,0,1-3.56-1,3.15,3.15,0,0,1-1.29-2.68h2.11a1.52,1.52,0,0,0,.71,1.33,3.48,3.48,0,0,0,2,.49,3.13,3.13,0,0,0,2-.57,2.07,2.07,0,0,0,.71-1.69,2,2,0,0,0-.74-1.7,3.25,3.25,0,0,0-2.07-.58,3.7,3.7,0,0,0-1.92.41,2.12,2.12,0,0,0-.7.64l-.05.13h-2.11v-6.88h8.88v1.84h-6.77v3h.05a2.78,2.78,0,0,1,.4-.31,3.94,3.94,0,0,1,.55-.26A5.6,5.6,0,0,1,259.41,185.55Z" fill="#003a50"/><path d="M481.39,248.06h-5.83v-1.84h8.86v1.84l-4.52,2.65v.07h1.28a3.86,3.86,0,0,1,2.79,1,3.52,3.52,0,0,1,1,2.66,3.33,3.33,0,0,1-1.33,2.83,7,7,0,0,1-7.24,0,3.39,3.39,0,0,1-1.33-2.86v-.32h2.11v.32c0,1.36.95,2,2.84,2s2.84-.67,2.84-2-.94-2-2.84-2h-3.26v-1.67l4.58-2.68Z" fill="#003a50"/><path d="M493.32,248.06H487.5v-1.84h8.86v1.84l-4.53,2.65v.07h1.28a3.86,3.86,0,0,1,2.79,1,3.49,3.49,0,0,1,1.06,2.66,3.35,3.35,0,0,1-1.33,2.83,7,7,0,0,1-7.24,0,3.36,3.36,0,0,1-1.33-2.86v-.32h2.11v.32c0,1.36.94,2,2.84,2s2.84-.67,2.84-2-1-2-2.84-2h-3.27v-1.67l4.58-2.68Z" fill="#003a50"/><path d="M499.06,258a1,1,0,0,1-.33-.8,1,1,0,0,1,.33-.81,1.4,1.4,0,0,1,1.73,0,1,1,0,0,1,.33.81,1,1,0,0,1-.33.8,1.4,1.4,0,0,1-1.73,0Z" fill="#003a50"/><path d="M511.39,258.13h-2.11v-2.65h-7v-1.85l6.29-7.41h2.79v7.41H513v1.85h-1.6Zm-2.11-4.5v-5.32h-.07l-4.47,5.27v0Z" fill="#003a50"/><path d="M100.73,314.17H94.91v-1.84h8.86v1.84l-4.53,2.65v.07h1.28a3.86,3.86,0,0,1,2.79,1,3.49,3.49,0,0,1,1.06,2.66,3.35,3.35,0,0,1-1.33,2.83,7,7,0,0,1-7.24,0,3.36,3.36,0,0,1-1.33-2.86v-.32h2.11v.32c0,1.36.94,2,2.84,2s2.84-.67,2.84-2-1-2-2.84-2H96.15v-1.67l4.58-2.68Z" fill="#003a50"/><path d="M106.47,324.1a1,1,0,0,1-.33-.8,1,1,0,0,1,.33-.81,1.4,1.4,0,0,1,1.73,0,1,1,0,0,1,.33.81,1,1,0,0,1-.33.8,1.4,1.4,0,0,1-1.73,0Z" fill="#003a50"/><path d="M112.37,314.88l-2.48,2v-2.25l2.73-2.26h1.86v11.91h-2.11Z" fill="#003a50"/></g></svg>