<svg id="Слой_1" data-name="Слой 1" xmlns="http://www.w3.org/2000/svg" xmlns:xlink="http://www.w3.org/1999/xlink" viewBox="0 0 583.94 383.81"><defs><clipPath id="clip-path"><polygon points="83.19 0.42 83.19 36.57 0 36.57 0 209.82 91.69 209.82 91.69 230.09 236.75 230.09 236.75 383.39 582.24 383.39 582.24 48.61 570.19 48.61 570.19 0.42 83.19 0.42" fill="none"/></clipPath></defs><rect x="246.65" y="376.41" width="299.74" height="6.98" fill="#fff"/><polygon points="83.19 0.42 83.19 36.57 57.08 36.57 57.08 42.39 68.15 58.65 68.15 107.99 65.67 199.62 94.2 199.62 94.2 218.54 242.03 218.54 242.03 381.26 543.7 381.26 543.7 345.37 567.19 345.37 567.19 223.93 567.19 205.54 567.19 16.28 84.34 16.28 84.34 0.42 83.19 0.42" fill="#fff"/><polygon points="86.72 0.42 86.9 4.49 565.24 4.49 565.24 0.42 86.72 0.42" fill="#fff"/><g clip-path="url(#clip-path)"><rect x="-584.12" y="-665.45" width="1162.95" height="2240.57" fill="none" stroke="#003a50" stroke-miterlimit="10"/><polygon points="-571.54 438.72 -571.54 1562.27 565.85 1562.27 565.85 -652.5 -571.54 -652.66 -571.54 368.01 -571.54 438.72" fill="none" stroke="#003a50" stroke-miterlimit="10"/></g><rect x="541.53" y="258.35" width="4.56" height="86.54" fill="#fff"/><rect x="541.53" y="258.35" width="4.56" height="86.54" fill="none" stroke="#003a50" stroke-miterlimit="10"/><line x1="543.81" y1="344.89" x2="543.81" y2="258.35" fill="none" stroke="#003a50" stroke-miterlimit="10"/><rect x="541.53" y="340.52" width="4.56" height="4.37" fill="#fff"/><rect x="541.53" y="340.52" width="4.56" height="4.37" fill="none" stroke="#003a50" stroke-miterlimit="10"/><rect x="541.53" y="258.35" width="4.56" height="4.37" fill="#fff"/><rect x="541.53" y="258.35" width="4.56" height="4.37" fill="none" stroke="#003a50" stroke-miterlimit="10"/><rect x="541.53" y="297.27" width="4.56" height="4.37" fill="#fff"/><rect x="541.53" y="297.27" width="4.56" height="4.37" fill="none" stroke="#003a50" stroke-miterlimit="10"/><g clip-path="url(#clip-path)"><path d="M541.53,297.27h-2.9c-20.15,0-33.1-15.47-33.1-34.55h36" fill="none" stroke="#003a50" stroke-miterlimit="10"/></g><rect x="541.53" y="74.8" width="4.56" height="87.39" fill="#fff"/><rect x="541.53" y="74.8" width="4.56" height="87.39" fill="none" stroke="#003a50" stroke-miterlimit="10"/><line x1="543.81" y1="74.8" x2="543.81" y2="162.19" fill="none" stroke="#003a50" stroke-miterlimit="10"/><rect x="541.53" y="74.8" width="4.56" height="4.42" fill="#fff"/><rect x="541.53" y="74.8" width="4.56" height="4.42" fill="none" stroke="#003a50" stroke-miterlimit="10"/><rect x="541.53" y="157.78" width="4.56" height="4.42" fill="#fff"/><rect x="541.53" y="157.78" width="4.56" height="4.42" fill="none" stroke="#003a50" stroke-miterlimit="10"/><rect x="541.53" y="118.47" width="4.56" height="4.41" fill="#fff"/><rect x="541.53" y="118.47" width="4.56" height="4.41" fill="none" stroke="#003a50" stroke-miterlimit="10"/><g clip-path="url(#clip-path)"><path d="M541.53,122.89h-2.9c-20.15,0-33.1,15.62-33.1,34.89h36" fill="none" stroke="#003a50" stroke-miterlimit="10"/><path d="M119.66,191.39a3.17,3.17,0,0,0,2.91-1.95h1.78l4.74,2.82-2.15,3.5-2.47-1.35v11h-10.3v-11l-2.46,1.35-2.15-3.5,4.77-2.82h2.39A3.21,3.21,0,0,0,119.66,191.39Z" fill="none" stroke="#003a50" stroke-miterlimit="10"/></g><rect x="103.54" y="182.2" width="31.57" height="30.42" fill="none" stroke="#003a50" stroke-miterlimit="10"/><rect x="219.07" y="115.29" width="31.65" height="31.61" fill="none" stroke="#003a50" stroke-miterlimit="10"/><g clip-path="url(#clip-path)"><path d="M230.89,129.67V119.39h8v10.28a3.29,3.29,0,0,1-3.3,3.29h-1.41A3.29,3.29,0,0,1,230.89,129.67Z" fill="none" stroke="#003a50" stroke-miterlimit="10"/></g><polyline points="238.13 142.79 234.89 142.79 231.66 142.79" fill="none" stroke="#003a50" stroke-miterlimit="10"/><line x1="234.89" y1="132.96" x2="234.89" y2="142.79" fill="none" stroke="#003a50" stroke-miterlimit="10"/><rect x="260.33" y="178.63" width="34.02" height="34.02" fill="none" stroke="#003a50" stroke-miterlimit="10"/><g clip-path="url(#clip-path)"><path d="M269.73,208.05a4.64,4.64,0,1,1,4.64-4.64A4.64,4.64,0,0,1,269.73,208.05Z" fill="none" stroke="#003a50" stroke-miterlimit="10"/><path d="M269.73,192.57a4.64,4.64,0,1,1,4.64-4.64A4.64,4.64,0,0,1,269.73,192.57Z" fill="none" stroke="#003a50" stroke-miterlimit="10"/><path d="M284.82,208.05a4.64,4.64,0,1,1,4.64-4.64A4.63,4.63,0,0,1,284.82,208.05Z" fill="none" stroke="#003a50" stroke-miterlimit="10"/><path d="M284.82,192.57a4.64,4.64,0,1,1,4.64-4.64A4.63,4.63,0,0,1,284.82,192.57Z" fill="none" stroke="#003a50" stroke-miterlimit="10"/></g><rect x="254.45" y="219.15" width="26.5" height="148.24" fill="none" stroke="#003a50" stroke-miterlimit="10"/><g clip-path="url(#clip-path)"><path d="M277.14,232.62a.78.78,0,0,1,.7.43.78.78,0,0,1-.36,1,22.44,22.44,0,0,1-19.67,0,.78.78,0,1,1,.69-1.4,20.87,20.87,0,0,0,18.29,0A.74.74,0,0,1,277.14,232.62Z" fill="none" stroke="#003a50" stroke-miterlimit="10"/><path d="M277.14,237a.77.77,0,0,1,.7.44.78.78,0,0,1-.36,1,22.35,22.35,0,0,1-19.67,0,.78.78,0,0,1-.36-1,.78.78,0,0,1,1.05-.36,20.78,20.78,0,0,0,18.29,0A.74.74,0,0,1,277.14,237Z" fill="none" stroke="#003a50" stroke-miterlimit="10"/><path d="M277.14,241.29a.78.78,0,0,1,.7.43.78.78,0,0,1-.36,1.05,22.44,22.44,0,0,1-19.67,0,.78.78,0,1,1,.69-1.4,20.87,20.87,0,0,0,18.29,0A.74.74,0,0,1,277.14,241.29Z" fill="none" stroke="#003a50" stroke-miterlimit="10"/><path d="M277.14,245.62a.77.77,0,0,1,.7.44.78.78,0,0,1-.36,1,22.35,22.35,0,0,1-19.67,0,.78.78,0,0,1-.36-1,.78.78,0,0,1,1.05-.36,20.78,20.78,0,0,0,18.29,0A.74.74,0,0,1,277.14,245.62Z" fill="none" stroke="#003a50" stroke-miterlimit="10"/><path d="M277.14,250a.78.78,0,0,1,.7.43.78.78,0,0,1-.36,1.05,22.44,22.44,0,0,1-19.67,0,.78.78,0,1,1,.69-1.4,20.87,20.87,0,0,0,18.29,0A.74.74,0,0,1,277.14,250Z" fill="none" stroke="#003a50" stroke-miterlimit="10"/><path d="M277.14,254.29a.77.77,0,0,1,.7.44.78.78,0,0,1-.36,1,22.35,22.35,0,0,1-19.67,0,.78.78,0,0,1-.36-1,.78.78,0,0,1,1.05-.36,20.78,20.78,0,0,0,18.29,0A.74.74,0,0,1,277.14,254.29Z" fill="none" stroke="#003a50" stroke-miterlimit="10"/><path d="M277.14,228.28a.77.77,0,0,1,.7.44.79.79,0,0,1-.36,1.05,22.44,22.44,0,0,1-19.67,0,.78.78,0,1,1,.69-1.41,20.78,20.78,0,0,0,18.29,0A.89.89,0,0,1,277.14,228.28Z" fill="none" stroke="#003a50" stroke-miterlimit="10"/><path d="M277.14,224a.78.78,0,0,1,.7.43.78.78,0,0,1-.36,1.05,22.44,22.44,0,0,1-19.67,0,.78.78,0,1,1,.69-1.4,20.87,20.87,0,0,0,18.29,0A.74.74,0,0,1,277.14,224Z" fill="none" stroke="#003a50" stroke-miterlimit="10"/></g><line x1="267.65" y1="219.28" x2="267.65" y2="367.26" fill="none" stroke="#003a50" stroke-miterlimit="10"/><g clip-path="url(#clip-path)"><path d="M277.14,259.09a.77.77,0,0,1,.7.44.78.78,0,0,1-.36,1.05,22.44,22.44,0,0,1-19.67,0,.78.78,0,0,1-.36-1.05.79.79,0,0,1,1.05-.36,20.78,20.78,0,0,0,18.29,0A.89.89,0,0,1,277.14,259.09Z" fill="none" stroke="#003a50" stroke-miterlimit="10"/><path d="M277.14,263.43a.78.78,0,0,1,.7.43.78.78,0,0,1-.36,1.05,22.44,22.44,0,0,1-19.67,0,.78.78,0,0,1-.36-1,.78.78,0,0,1,1.05-.36,20.87,20.87,0,0,0,18.29,0A.74.74,0,0,1,277.14,263.43Z" fill="none" stroke="#003a50" stroke-miterlimit="10"/><path d="M277.14,267.76a.77.77,0,0,1,.7.44.79.79,0,0,1-.36,1.05,22.44,22.44,0,0,1-19.67,0,.78.78,0,0,1,.69-1.41,20.78,20.78,0,0,0,18.29,0A.89.89,0,0,1,277.14,267.76Z" fill="none" stroke="#003a50" stroke-miterlimit="10"/></g><rect x="280.95" y="219.16" width="34.54" height="26.5" fill="none" stroke="#003a50" stroke-miterlimit="10"/><g clip-path="url(#clip-path)"><path d="M294.41,241.84a.78.78,0,0,0,.43.7.78.78,0,0,0,1.05-.36,22.44,22.44,0,0,0,0-19.67.78.78,0,0,0-1.4.69,20.89,20.89,0,0,1,0,18.3A.68.68,0,0,0,294.41,241.84Z" fill="none" stroke="#003a50" stroke-miterlimit="10"/><path d="M298.74,241.84a.77.77,0,0,0,.44.7.79.79,0,0,0,1.05-.36,22.44,22.44,0,0,0,0-19.67.78.78,0,0,0-1.41.69,20.81,20.81,0,0,1,0,18.3A.81.81,0,0,0,298.74,241.84Z" fill="none" stroke="#003a50" stroke-miterlimit="10"/><path d="M290.07,241.84a.77.77,0,0,0,.44.7.78.78,0,0,0,1.05-.36,22.44,22.44,0,0,0,0-19.67.78.78,0,0,0-1.41.69,20.81,20.81,0,0,1,0,18.3A.81.81,0,0,0,290.07,241.84Z" fill="none" stroke="#003a50" stroke-miterlimit="10"/><path d="M285.74,241.84a.78.78,0,0,0,.43.7.78.78,0,0,0,1.05-.36,22.44,22.44,0,0,0,0-19.67.78.78,0,0,0-1.4.69,20.89,20.89,0,0,1,0,18.3A.68.68,0,0,0,285.74,241.84Z" fill="none" stroke="#003a50" stroke-miterlimit="10"/></g><line x1="281.08" y1="232.35" x2="315.35" y2="232.35" fill="none" stroke="#003a50" stroke-miterlimit="10"/><rect x="280.95" y="340.91" width="34.54" height="26.5" fill="none" stroke="#003a50" stroke-miterlimit="10"/><g clip-path="url(#clip-path)"><path d="M294.41,363.59a.78.78,0,0,0,.43.7.78.78,0,0,0,1.05-.36,22.44,22.44,0,0,0,0-19.67.78.78,0,0,0-1.4.69,20.89,20.89,0,0,1,0,18.3A.68.68,0,0,0,294.41,363.59Z" fill="none" stroke="#003a50" stroke-miterlimit="10"/><path d="M298.74,363.59a.77.77,0,0,0,.44.7.79.79,0,0,0,1.05-.36,22.44,22.44,0,0,0,0-19.67.78.78,0,0,0-1.41.69,20.81,20.81,0,0,1,0,18.3A.81.81,0,0,0,298.74,363.59Z" fill="none" stroke="#003a50" stroke-miterlimit="10"/><path d="M290.07,363.59a.77.77,0,0,0,.44.7.78.78,0,0,0,1.05-.36,22.44,22.44,0,0,0,0-19.67.78.78,0,0,0-1.41.69,20.81,20.81,0,0,1,0,18.3A.81.81,0,0,0,290.07,363.59Z" fill="none" stroke="#003a50" stroke-miterlimit="10"/><path d="M285.74,363.59a.78.78,0,0,0,.43.7.78.78,0,0,0,1.05-.36,22.44,22.44,0,0,0,0-19.67.78.78,0,0,0-1.4.69,20.89,20.89,0,0,1,0,18.3A.68.68,0,0,0,285.74,363.59Z" fill="none" stroke="#003a50" stroke-miterlimit="10"/></g><line x1="281.08" y1="354.1" x2="315.35" y2="354.1" fill="none" stroke="#003a50" stroke-miterlimit="10"/><rect x="400.57" y="158.99" width="102.05" height="16.75" fill="none" stroke="#003a50" stroke-miterlimit="10"/><polygon points="494.59 166.83 451.7 170.31 408.59 166.83 408.59 164.41 494.59 164.41 494.59 166.83" fill="none" stroke="#003a50" stroke-miterlimit="10"/><g clip-path="url(#clip-path)"><rect x="390.75" y="-16.79" width="102.05" height="16.75" fill="none" stroke="#003a50" stroke-miterlimit="10"/></g><rect x="400.6" y="192.99" width="102.05" height="16.75" fill="none" stroke="#003a50" stroke-miterlimit="10"/><polygon points="408.63 201.9 451.52 198.43 494.63 201.9 494.63 204.32 408.63 204.32 408.63 201.9" fill="none" stroke="#003a50" stroke-miterlimit="10"/><g clip-path="url(#clip-path)"><path d="M306,78.21a1.27,1.27,0,0,1,1,1.51,13.78,13.78,0,1,0,26.87,6.16,1.26,1.26,0,0,1,2.46.57,16.3,16.3,0,0,1-31.78-7.29A1.25,1.25,0,0,1,306,78.21Z" fill="none" stroke="#003a50" stroke-miterlimit="10"/><path d="M361.13,87.93a1.26,1.26,0,0,1,1.75-.33,13.79,13.79,0,0,0,15.53-22.79,1.25,1.25,0,0,1-.34-1.74,1.26,1.26,0,0,1,1.75-.34,16.3,16.3,0,0,1-18.35,27A1.26,1.26,0,0,1,361.13,87.93Z" fill="none" stroke="#003a50" stroke-miterlimit="10"/><path d="M363.64,40.53a1.26,1.26,0,0,1-1.33-1.18A13.78,13.78,0,1,0,334.79,41a1.26,1.26,0,1,1-2.52.16,16.3,16.3,0,0,1,32.55-1.94A1.26,1.26,0,0,1,363.64,40.53Z" fill="none" stroke="#003a50" stroke-miterlimit="10"/><path d="M320.16,94.83a12.69,12.69,0,0,1-12-15.48l2-8.88a3.53,3.53,0,0,1,4.24-2.68l13.44,3.08a23.73,23.73,0,0,0,6,9.44l-1,4.2C331.56,90.47,326.28,95,320.16,94.83Z" fill="none" stroke="#003a50" stroke-miterlimit="10"/><path d="M363,86.3l-2.32-1.6a23.81,23.81,0,0,0,13.64-21.32l2.52,1.72c5,3.44,7.4,10,5,15.64A12.7,12.7,0,0,1,363,86.3Z" fill="none" stroke="#003a50" stroke-miterlimit="10"/><path d="M336.12,44l-.12-2c-.36-6.12,3.4-12,9.32-13.48A12.66,12.66,0,0,1,361.2,40.07l.12,1.83A24,24,0,0,0,344.68,40,23.32,23.32,0,0,0,336.12,44Z" fill="none" stroke="#003a50" stroke-miterlimit="10"/><path d="M333.88,80.3a23.73,23.73,0,0,1-6-9.44,16.51,16.51,0,0,1-.6-2A23.85,23.85,0,0,1,336.12,44a23.5,23.5,0,0,1,8.56-4,23.87,23.87,0,0,1,28.92,17.4,22.12,22.12,0,0,1,.68,6A23.81,23.81,0,0,1,360.64,84.7a22.85,22.85,0,0,1-4.48,1.6A23.8,23.8,0,0,1,333.88,80.3Z" fill="none" stroke="#003a50" stroke-miterlimit="10"/></g><rect x="169.09" y="116.98" width="43.96" height="95.52" fill="none" stroke="#003a50" stroke-miterlimit="10"/><g clip-path="url(#clip-path)"><rect x="174.25" y="121.18" width="33.22" height="87.39" rx="13.7" fill="none" stroke="#003a50" stroke-miterlimit="10"/><circle cx="190.95" cy="193.44" r="2.28" transform="translate(-41.19 334.84) rotate(-76.72)" fill="none" stroke="#003a50" stroke-miterlimit="10"/><path d="M132,167.36H103.4V144.29H132a11.54,11.54,0,1,1,0,23.07Z" fill="none" stroke="#003a50" stroke-miterlimit="10"/></g><rect x="103.4" y="144.29" width="11.08" height="23.08" fill="none" stroke="#003a50" stroke-miterlimit="10"/><rect x="219.07" y="178.64" width="97.74" height="33.86" fill="none" stroke="#003a50" stroke-miterlimit="10"/><rect x="219.07" y="146.99" width="31.65" height="31.65" fill="none" stroke="#003a50" stroke-miterlimit="10"/><polyline points="222.37 156.58 222.37 162.84 222.37 169.08" fill="none" stroke="#003a50" stroke-miterlimit="10"/><line x1="234.91" y1="162.85" x2="222.37" y2="162.85" fill="none" stroke="#003a50" stroke-miterlimit="10"/><g clip-path="url(#clip-path)"><path d="M244.45,149H231a3.24,3.24,0,0,0-3.23,3.24v21.21a3.23,3.23,0,0,0,3.23,3.23h13.49a3.22,3.22,0,0,0,3.23-3.23V152.21A3.23,3.23,0,0,0,244.45,149Z" fill="none" stroke="#003a50" stroke-miterlimit="10"/><path d="M236.47,162.85a2.24,2.24,0,1,0-2.23,2.23A2.23,2.23,0,0,0,236.47,162.85Z" fill="none" stroke="#003a50" stroke-miterlimit="10"/><path d="M147.59-28.89V0h22.8V-28.89A11.4,11.4,0,0,0,159-40.28,11.39,11.39,0,0,0,147.59-28.89Z" fill="none" stroke="#003a50" stroke-miterlimit="10"/></g><polygon points="168.86 182.1 103.26 182.31 103.26 212.86 168.86 212.65 168.86 182.1" fill="none" stroke="#003a50" stroke-miterlimit="10"/><g clip-path="url(#clip-path)"><path d="M137.83,188.12v23a3.37,3.37,0,0,0,3.36,3.36h22.25a3.36,3.36,0,0,0,3.35-3.36v-23a3.36,3.36,0,0,0-3.35-3.36H141.19A3.37,3.37,0,0,0,137.83,188.12Z" fill="none" stroke="#003a50" stroke-miterlimit="10"/><circle cx="152.31" cy="199.62" r="2.27" fill="none" stroke="#003a50" stroke-miterlimit="10"/><rect x="253.4" y="383.82" width="34.02" height="105.94" fill="none" stroke="#003a50" stroke-miterlimit="10"/><path d="M473,62.54v-41H427.25V64.75h43.56A2.21,2.21,0,0,0,473,62.54Z" fill="none" stroke="#003a50" stroke-miterlimit="10"/><path d="M518.89,62.77V21.51H473.12V62.77a2,2,0,0,0,2,2h41.8A2,2,0,0,0,518.89,62.77Z" fill="none" stroke="#003a50" stroke-miterlimit="10"/><path d="M427.25,64.75a3.11,3.11,0,0,1-3.33,2.83H419.7a3.11,3.11,0,0,1-3.33-2.83V16.55H529.76V64.33a3.1,3.1,0,0,1-3.32,2.82h-4.23a3.1,3.1,0,0,1-3.32-2.82V21.5H427.25Z" fill="none" stroke="#003a50" stroke-miterlimit="10"/></g><rect x="427.25" y="21.51" width="91.64" height="9.25" fill="none" stroke="#003a50" stroke-miterlimit="10"/><g clip-path="url(#clip-path)"><rect x="446.34" y="383.87" width="22.68" height="22.68" fill="none" stroke="#003a50" stroke-miterlimit="10"/><rect x="312.25" y="383.87" width="22.68" height="22.68" fill="none" stroke="#003a50" stroke-miterlimit="10"/><rect x="339.72" y="383.87" width="102.05" height="113.39" fill="none" stroke="#003a50" stroke-miterlimit="10"/></g><rect x="367.68" y="344.37" width="22.68" height="22.68" fill="none" stroke="#003a50" stroke-miterlimit="10"/><g clip-path="url(#clip-path)"><path d="M372.52,349.21a9.19,9.19,0,1,1,0,13A9.19,9.19,0,0,1,372.52,349.21Z" fill="none" stroke="#003a50" stroke-miterlimit="10"/><path d="M371.89,349.9c1.7.17,3.41-.48,5.07,1.17,2.44,2.44-.15,5,2.3,7.45s5-.13,7.45,2.3" fill="none" stroke="#003a50" stroke-miterlimit="10"/></g><rect x="501.77" y="344.37" width="22.68" height="22.68" fill="none" stroke="#003a50" stroke-miterlimit="10"/><g clip-path="url(#clip-path)"><path d="M506.61,349.21a9.2,9.2,0,1,1,0,13A9.2,9.2,0,0,1,506.61,349.21Z" fill="none" stroke="#003a50" stroke-miterlimit="10"/><path d="M506,349.9c1.7.17,3.41-.48,5.06,1.17,2.44,2.44-.14,5,2.3,7.45s5-.13,7.46,2.3" fill="none" stroke="#003a50" stroke-miterlimit="10"/></g><rect x="394.93" y="253.66" width="102.05" height="113.39" fill="none" stroke="#003a50" stroke-miterlimit="10"/><g clip-path="url(#clip-path)"><path d="M404.93,263.4H487a2.09,2.09,0,0,1,2.09,2.08v67.64H402.85V265.48A2.08,2.08,0,0,1,404.93,263.4Z" fill="none" stroke="#003a50" stroke-miterlimit="10"/><rect x="446.82" y="336.74" width="42.5" height="22.88" rx="1.98" fill="none" stroke="#003a50" stroke-miterlimit="10"/><rect x="402.59" y="336.74" width="42.5" height="22.88" rx="1.98" fill="none" stroke="#003a50" stroke-miterlimit="10"/></g><line x1="402.59" y1="319.27" x2="489.32" y2="319.27" fill="none" stroke="#003a50" stroke-miterlimit="10"/><g clip-path="url(#clip-path)"><rect x="201.49" y="-30.8" width="98.7" height="30.76" fill="none" stroke="#003a50" stroke-miterlimit="10"/></g><rect x="255.02" y="15.88" width="28.86" height="30.54" fill="none" stroke="#003a50" stroke-miterlimit="10"/><rect x="97.07" y="16.52" width="122.14" height="29.57" fill="none" stroke="#003a50" stroke-miterlimit="10"/><g clip-path="url(#clip-path)"><path d="M112,20.71a.87.87,0,0,1,.49-.78.88.88,0,0,1,1.17.4,25.09,25.09,0,0,1,0,22,.87.87,0,0,1-1.57-.77,23.27,23.27,0,0,0,0-20.42A.92.92,0,0,1,112,20.71Z" fill="none" stroke="#003a50" stroke-miterlimit="10"/><path d="M116.79,20.71a.87.87,0,0,1,.49-.78.88.88,0,0,1,1.17.4,25.09,25.09,0,0,1,0,22,.87.87,0,0,1-1.57-.77,23.27,23.27,0,0,0,0-20.42A.92.92,0,0,1,116.79,20.71Z" fill="none" stroke="#003a50" stroke-miterlimit="10"/><path d="M121.63,20.71a.87.87,0,0,1,.49-.78.88.88,0,0,1,1.17.4,25.09,25.09,0,0,1,0,22,.87.87,0,0,1-1.57-.77,23.27,23.27,0,0,0,0-20.42A.92.92,0,0,1,121.63,20.71Z" fill="none" stroke="#003a50" stroke-miterlimit="10"/><path d="M126.47,20.71a.87.87,0,0,1,1.65-.38,25,25,0,0,1,0,22,.87.87,0,1,1-1.56-.77,23.27,23.27,0,0,0,0-20.42A.92.92,0,0,1,126.47,20.71Z" fill="none" stroke="#003a50" stroke-miterlimit="10"/><path d="M131.31,20.71a.87.87,0,0,1,1.65-.38,25,25,0,0,1,0,22,.87.87,0,1,1-1.56-.77,23.27,23.27,0,0,0,0-20.42A.8.8,0,0,1,131.31,20.71Z" fill="none" stroke="#003a50" stroke-miterlimit="10"/><path d="M136.14,20.71a.87.87,0,0,1,.49-.78.88.88,0,0,1,1.17.4,25,25,0,0,1,0,22,.87.87,0,1,1-1.56-.77,23.27,23.27,0,0,0,0-20.42A.81.81,0,0,1,136.14,20.71Z" fill="none" stroke="#003a50" stroke-miterlimit="10"/><path d="M107.11,20.71a.87.87,0,0,1,.49-.78.88.88,0,0,1,1.17.4,25,25,0,0,1,0,22,.87.87,0,1,1-1.56-.77,23.27,23.27,0,0,0,0-20.42A.81.81,0,0,1,107.11,20.71Z" fill="none" stroke="#003a50" stroke-miterlimit="10"/><path d="M102.28,20.71a.87.87,0,0,1,1.65-.38,25,25,0,0,1,0,22,.87.87,0,1,1-1.56-.77,23.27,23.27,0,0,0,0-20.42A.8.8,0,0,1,102.28,20.71Z" fill="none" stroke="#003a50" stroke-miterlimit="10"/></g><line x1="97.07" y1="31.31" x2="219.21" y2="31.31" fill="none" stroke="#003a50" stroke-miterlimit="10"/><rect x="224.77" y="16.13" width="30.26" height="30.26" fill="none" stroke="#003a50" stroke-miterlimit="10"/><line x1="231.02" y1="31.26" x2="248.77" y2="31.26" fill="none" stroke="#003a50" stroke-miterlimit="10"/><line x1="239.89" y1="40.14" x2="239.89" y2="22.38" fill="none" stroke="#003a50" stroke-miterlimit="10"/><line x1="233.62" y1="37.54" x2="246.17" y2="24.98" fill="none" stroke="#003a50" stroke-miterlimit="10"/><line x1="246.17" y1="37.54" x2="233.62" y2="24.98" fill="none" stroke="#003a50" stroke-miterlimit="10"/><g clip-path="url(#clip-path)"><path d="M166.24,117.66v-3.08a38.72,38.72,0,0,0-38.71-38.72v41.8" fill="none" stroke="#003a50" stroke-miterlimit="10" stroke-width="1.6"/><path d="M369.37,177.42v3.52A44.37,44.37,0,0,1,325,225.32v-47.9" fill="none" stroke="#003a50" stroke-miterlimit="10" stroke-width="1.6"/><path d="M57.08,109H53A51.12,51.12,0,0,1,1.88,57.9h55.2" fill="none" stroke="#003a50" stroke-miterlimit="10" stroke-width="1.6"/><path d="M57.61,375.65H53.55A51.13,51.13,0,0,0,2.42,426.77H57.61" fill="none" stroke="#003a50" stroke-miterlimit="10" stroke-width="1.6"/><rect x="51.83" y="36.33" width="16.32" height="22.32" fill="#003a50"/><rect x="51.83" y="107.99" width="16.32" height="100.85" fill="#003a50"/><rect x="51.83" y="36.34" width="45.82" height="10" fill="#003a50"/><rect x="51.84" y="198.13" width="51.56" height="11.71" fill="#003a50"/><rect x="91.69" y="198.13" width="11.71" height="31.86" fill="#003a50"/><rect x="51.83" y="201.34" width="10.82" height="175.07" fill="#003a50"/><rect x="86.9" y="-32.33" width="10.75" height="78.67" fill="#003a50"/><rect x="86.9" y="-0.04" width="447.72" height="16.32" fill="#003a50"/><rect x="459.65" y="172.66" width="74.97" height="21.34" fill="#003a50"/><rect x="246.65" y="367.33" width="287.97" height="16.26" fill="#003a50"/><rect x="92.65" y="212.5" width="160.47" height="17.49" fill="#003a50"/><rect x="236.87" y="214.33" width="17.28" height="252.92" fill="#003a50"/><polygon points="530.62 258.45 530.62 162.71 579.95 162.71 568.28 258.45 530.62 258.45" fill="#003a50" fill-rule="evenodd"/><rect x="530.62" y="-21.63" width="26.17" height="96.07" fill="#003a50"/><rect x="534.62" y="48.53" width="44.33" height="25.9" fill="#003a50"/><rect x="530.62" y="345.37" width="26.17" height="96.07" fill="#003a50"/><rect x="165.4" y="114.03" width="50.48" height="6.38" fill="#003a50"/><rect x="62.65" y="114.03" width="65.7" height="6.38" fill="#003a50"/><rect x="300.08" y="-33.59" width="6.38" height="41.71" fill="#003a50"/><rect x="195.2" y="-55.99" width="6.38" height="60.48" fill="#003a50"/><rect x="218.39" y="-30.8" width="6.38" height="40.58" fill="#003a50"/><rect x="62.65" y="150.53" width="39.24" height="6.38" fill="#003a50"/><rect x="97.03" y="117.22" width="6.38" height="82.4" fill="#003a50"/><rect x="212.69" y="114.03" width="6.38" height="100.79" fill="#003a50"/><rect x="51.83" y="-26.91" width="6.38" height="73.25" fill="#003a50"/><rect x="250.72" y="212.5" width="64" height="6.38" fill="#003a50"/><rect x="368.47" y="174.67" width="102.25" height="6.38" fill="#003a50"/><rect x="83.31" y="-21.34" width="6.38" height="58.66" fill="#003a50"/><rect x="165.4" y="114.03" width="50.48" height="6.38" fill="#003a50"/><rect x="62.65" y="114.03" width="65.7" height="6.38" fill="#003a50"/><rect x="62.65" y="150.53" width="39.24" height="6.38" fill="#003a50"/><rect x="97.03" y="117.22" width="6.38" height="82.4" fill="#003a50"/><rect x="212.69" y="114.03" width="6.38" height="100.79" fill="#003a50"/><rect x="51.83" y="-26.91" width="6.38" height="73.25" fill="#003a50"/><rect x="250.72" y="212.5" width="66.08" height="6.38" fill="#003a50"/><rect x="368.47" y="174.67" width="102.25" height="6.38" fill="#003a50"/><rect x="315.42" y="174.67" width="10.41" height="6.38" fill="#003a50"/><rect x="315.42" y="174.67" width="6.38" height="87.74" fill="#003a50"/><rect x="315.42" y="317.15" width="6.38" height="59.44" fill="#003a50"/><rect x="83.31" y="-21.34" width="6.38" height="58.66" fill="#003a50"/><line x1="219.02" y1="45.12" x2="219.02" y2="47.96" fill="none" stroke="#003a50" stroke-miterlimit="10"/><line x1="219.02" y1="53.2" x2="219.02" y2="113.45" fill="none" stroke="#003a50" stroke-miterlimit="10" stroke-dasharray="5.24 5.24"/><line x1="219.02" y1="116.07" x2="219.02" y2="118.91" fill="none" stroke="#003a50" stroke-miterlimit="10"/></g><g clip-path="url(#clip-path)"><path d="M557.33,110a5.15,5.15,0,0,1-6.23,0,4,4,0,0,1,0-5.73,5.15,5.15,0,0,1,6.23,0,4,4,0,0,1,0,5.73Zm-1-4.6a3.48,3.48,0,0,0-2.14-.62,3.52,3.52,0,0,0-2.14.62,2.23,2.23,0,0,0,0,3.47,4,4,0,0,0,4.28,0,2.21,2.21,0,0,0,0-3.47Z" fill="#003a50"/><path d="M558.32,101.65a.72.72,0,0,1-.57.23.74.74,0,0,1-.56-.23A.86.86,0,0,1,557,101a.83.83,0,0,1,.22-.61.74.74,0,0,1,.56-.23.72.72,0,0,1,.57.23.87.87,0,0,1,.21.61A.9.9,0,0,1,558.32,101.65Z" fill="#003a50"/><path d="M552.38,92V93.6l-.12,0-.31.15a1.6,1.6,0,0,0-.35.28,1.14,1.14,0,0,0-.29.5,2,2,0,0,0-.12.71,1.76,1.76,0,0,0,.73,1.52,3.11,3.11,0,0,0,1.89.54v0a1.27,1.27,0,0,1-.3-.31,2.9,2.9,0,0,1-.26-.43,3.09,3.09,0,0,1-.22-.67,4.12,4.12,0,0,1-.09-.86,3.58,3.58,0,0,1,.79-2.38,2.62,2.62,0,0,1,4,0,3.89,3.89,0,0,1,.78,2.54,3.38,3.38,0,0,1-1.09,2.73,4.48,4.48,0,0,1-3,.94h-.29a4.85,4.85,0,0,1-3-.94,3.18,3.18,0,0,1-1.2-2.68,3.93,3.93,0,0,1,.26-1.5,2.61,2.61,0,0,1,.66-1A2.41,2.41,0,0,1,552.38,92Zm2.22,1.77a2.27,2.27,0,0,0-.41,1.39,2.32,2.32,0,0,0,.41,1.4,1.35,1.35,0,0,0,1.11.55,1.3,1.3,0,0,0,1.11-.55,2.54,2.54,0,0,0,0-2.8,1.4,1.4,0,0,0-2.22,0Z" fill="#003a50"/><path d="M557.33,333.81a5.19,5.19,0,0,1-6.23,0,4,4,0,0,1,0-5.74,5.19,5.19,0,0,1,6.23,0,4,4,0,0,1,0,5.74Zm-1-4.61a3.48,3.48,0,0,0-2.14-.61,3.52,3.52,0,0,0-2.14.61,2.07,2.07,0,0,0-.83,1.74,2,2,0,0,0,.83,1.73,4,4,0,0,0,4.28,0,2,2,0,0,0,.84-1.73A2.05,2.05,0,0,0,556.35,329.2Z" fill="#003a50"/><path d="M558.32,325.48a.69.69,0,0,1-.57.23.7.7,0,0,1-.56-.23,1,1,0,0,1,0-1.22.74.74,0,0,1,.56-.23.72.72,0,0,1,.57.23,1,1,0,0,1,0,1.22Z" fill="#003a50"/><path d="M552.38,315.87v1.56l-.12,0a1.2,1.2,0,0,0-.31.15,1.91,1.91,0,0,0-.35.27,1.27,1.27,0,0,0-.29.5,2.09,2.09,0,0,0-.12.72,1.75,1.75,0,0,0,.73,1.51,3.11,3.11,0,0,0,1.89.54v0a1.11,1.11,0,0,1-.3-.31,2.14,2.14,0,0,1-.26-.43,2.91,2.91,0,0,1-.22-.67,4,4,0,0,1-.09-.86,3.55,3.55,0,0,1,.79-2.37,2.46,2.46,0,0,1,2-.92,2.51,2.51,0,0,1,2,1,3.87,3.87,0,0,1,.78,2.54,3.38,3.38,0,0,1-1.09,2.73,4.48,4.48,0,0,1-3,.93h-.29a4.85,4.85,0,0,1-3-.93,3.2,3.2,0,0,1-1.2-2.68,3.87,3.87,0,0,1,.26-1.5,2.73,2.73,0,0,1,.66-1A2.46,2.46,0,0,1,552.38,315.87Zm2.22,1.77a2.32,2.32,0,0,0-.41,1.4,2.29,2.29,0,0,0,.41,1.39,1.4,1.4,0,0,0,2.22,0,2.54,2.54,0,0,0,0-2.8,1.3,1.3,0,0,0-1.11-.55A1.35,1.35,0,0,0,554.6,317.64Z" fill="#003a50"/></g><polygon points="545.89 0.42 545.89 60.65 570.55 60.65 570.55 48.61 570.19 48.61 570.19 0.42 545.89 0.42" fill="#003a50"/><rect x="218.39" y="7" width="6.38" height="39.33" fill="#003a50"/><g clip-path="url(#clip-path)"><path d="M307.4,282.58h-5.83v-1.85h8.86v1.85l-4.52,2.65v.06h1.28a3.9,3.9,0,0,1,2.79,1,3.52,3.52,0,0,1,1,2.67,3.32,3.32,0,0,1-1.33,2.82,6.93,6.93,0,0,1-7.24,0,3.38,3.38,0,0,1-1.33-2.85v-.33h2.11v.33c0,1.36.95,2,2.84,2s2.84-.66,2.84-2-.94-2-2.84-2h-3.26v-1.67l4.58-2.68Z" fill="#003a50"/><path d="M313.13,292.51a1.17,1.17,0,0,1,0-1.61,1.25,1.25,0,0,1,.88-.3,1.22,1.22,0,0,1,.86.3,1.17,1.17,0,0,1,0,1.61,1.22,1.22,0,0,1-.86.3A1.25,1.25,0,0,1,313.13,292.51Z" fill="#003a50"/><path d="M319,283.29l-2.48,1.95V283l2.73-2.27h1.86v11.91H319Z" fill="#003a50"/><path d="M456.88,228.29l-2.49,2V228l2.74-2.27H459v11.91h-2.11Z" fill="#003a50"/><path d="M467.71,227.57h-5.82v-1.84h8.86v1.84l-4.53,2.65v.07h1.28a3.9,3.9,0,0,1,2.79,1,3.52,3.52,0,0,1,1,2.67,3.34,3.34,0,0,1-1.32,2.82,7,7,0,0,1-7.25,0,3.38,3.38,0,0,1-1.32-2.86v-.32h2.1v.32c0,1.37.95,2,2.84,2s2.85-.67,2.85-2-.95-2-2.85-2h-3.26v-1.67l4.58-2.68Z" fill="#003a50"/><path d="M473.45,237.5a1,1,0,0,1-.33-.8,1,1,0,0,1,.33-.81,1.4,1.4,0,0,1,1.73,0,1,1,0,0,1,.32.81,1,1,0,0,1-.32.8,1.4,1.4,0,0,1-1.73,0Z" fill="#003a50"/><path d="M479.35,228.29l-2.48,2V228l2.73-2.27h1.86v11.91h-2.11Z" fill="#003a50"/><path d="M459.45,104.65l-2.49,2v-2.25l2.74-2.26h1.86V114h-2.11Z" fill="#003a50"/><path d="M472.75,113.24a7.73,7.73,0,0,1-7.37,0,2.93,2.93,0,0,1-1.37-2.55,2.71,2.71,0,0,1,.26-1.17,2.29,2.29,0,0,1,.66-.85,3.71,3.71,0,0,1,1.39-.77l.26-.07v-.09a3.32,3.32,0,0,1-.76-.29,2.78,2.78,0,0,1-.67-.44,2.35,2.35,0,0,1-.54-.76,2.38,2.38,0,0,1-.22-1,2.81,2.81,0,0,1,1.25-2.38,7,7,0,0,1,6.85,0,2.83,2.83,0,0,1,1.25,2.38,2.43,2.43,0,0,1-.22,1,1.93,1.93,0,0,1-.55.75,3.72,3.72,0,0,1-1.2.68l-.22,0v.09l.28.07a3.62,3.62,0,0,1,.62.26,4.28,4.28,0,0,1,.77.51,2.67,2.67,0,0,1,.89,2A2.94,2.94,0,0,1,472.75,113.24ZM467,111.89a3.84,3.84,0,0,0,2.1.48,3.94,3.94,0,0,0,2.1-.47,1.51,1.51,0,0,0,.74-1.35,1.49,1.49,0,0,0-.74-1.35,4.93,4.93,0,0,0-4.2,0,1.59,1.59,0,0,0,0,2.69Zm-.36-6.52a1.36,1.36,0,0,0,.64,1.19,4,4,0,0,0,3.65,0,1.38,1.38,0,0,0,.64-1.19,1.36,1.36,0,0,0-.66-1.2,3.94,3.94,0,0,0-3.62,0A1.38,1.38,0,0,0,466.6,105.37Z" fill="#003a50"/><path d="M476.22,113.87a1,1,0,0,1-.32-.8,1.07,1.07,0,0,1,.32-.81,1.41,1.41,0,0,1,1.74,0,1.07,1.07,0,0,1,.32.81,1,1,0,0,1-.32.8,1.41,1.41,0,0,1-1.74,0Z" fill="#003a50"/><path d="M486.33,103.94h-5.82V102.1h8.86v1.84l-4.53,2.65v.07h1.28a3.86,3.86,0,0,1,2.79,1,3.52,3.52,0,0,1,1.06,2.66,3.35,3.35,0,0,1-1.33,2.83,7,7,0,0,1-7.24,0,3.36,3.36,0,0,1-1.33-2.86V110h2.11v.32c0,1.36.94,2,2.84,2s2.84-.67,2.84-2-.95-2-2.84-2h-3.27v-1.67l4.58-2.68Z" fill="#003a50"/><path d="M136.4,121.32h-5.82v-1.84h8.86v1.84L134.91,124V124h1.28a3.9,3.9,0,0,1,2.79,1,3.53,3.53,0,0,1,1.06,2.67,3.35,3.35,0,0,1-1.33,2.82,7,7,0,0,1-7.25,0,3.38,3.38,0,0,1-1.32-2.86v-.32h2.11v.32c0,1.37.94,2,2.84,2s2.84-.67,2.84-2-1-2-2.84-2h-3.27v-1.67l4.58-2.68Z" fill="#003a50"/><path d="M142.14,131.25a1,1,0,0,1-.33-.8,1,1,0,0,1,.33-.81,1.4,1.4,0,0,1,1.73,0,1,1,0,0,1,.33.81,1,1,0,0,1-.33.8,1.4,1.4,0,0,1-1.73,0Z" fill="#003a50"/><path d="M155.76,122.83h-2.21s0-.06,0-.17a2.53,2.53,0,0,0-.22-.44,2.28,2.28,0,0,0-.38-.5,2.08,2.08,0,0,0-.71-.41,3,3,0,0,0-1-.16,2.49,2.49,0,0,0-2.15,1,4.39,4.39,0,0,0-.77,2.68h.06a1.8,1.8,0,0,1,.44-.43,3.55,3.55,0,0,1,.61-.37,4.87,4.87,0,0,1,1-.3,5.41,5.41,0,0,1,1.21-.13,5.06,5.06,0,0,1,3.38,1.11,3.51,3.51,0,0,1,1.3,2.8,3.57,3.57,0,0,1-1.36,2.91,5.52,5.52,0,0,1-3.61,1.1,4.81,4.81,0,0,1-3.87-1.54,6.36,6.36,0,0,1-1.32-4.27v-.41a6.85,6.85,0,0,1,1.32-4.31,4.52,4.52,0,0,1,3.81-1.71,5.61,5.61,0,0,1,2.12.38,3.82,3.82,0,0,1,1.44.93A3.46,3.46,0,0,1,155.76,122.83ZM153.25,126a3.67,3.67,0,0,0-4,0,2,2,0,0,0,0,3.15,3.21,3.21,0,0,0,2,.59,3.26,3.26,0,0,0,2-.59,2,2,0,0,0,0-3.15Z" fill="#003a50"/><path d="M88.38,90.38H86.27V87.73h-7V85.89l6.29-7.42h2.79v7.42H90v1.84h-1.6Zm-2.11-4.49V80.57h-.06l-4.48,5.27v0Z" fill="#003a50"/><path d="M91.66,90.25a1,1,0,0,1-.32-.81,1.06,1.06,0,0,1,.32-.8,1.41,1.41,0,0,1,1.74,0,1.06,1.06,0,0,1,.32.8,1,1,0,0,1-.32.81,1.41,1.41,0,0,1-1.74,0Z" fill="#003a50"/><path d="M104.24,89.62a7.71,7.71,0,0,1-7.36,0,2.94,2.94,0,0,1-1.37-2.56,2.69,2.69,0,0,1,.25-1.16,2.43,2.43,0,0,1,.66-.86,4.05,4.05,0,0,1,1.4-.77l.25-.07V84.1a3.05,3.05,0,0,1-.76-.29,2.88,2.88,0,0,1-.67-.44,2.2,2.2,0,0,1-.54-.75,2.57,2.57,0,0,1-.22-1,2.83,2.83,0,0,1,1.25-2.39,5.85,5.85,0,0,1,3.43-.89,5.91,5.91,0,0,1,3.43.89,2.83,2.83,0,0,1,1.24,2.39,2.43,2.43,0,0,1-.22,1,2,2,0,0,1-.55.74,3.54,3.54,0,0,1-1.2.68l-.22,0v.09l.28.07a5.42,5.42,0,0,1,.62.27,4.19,4.19,0,0,1,.78.5,2.88,2.88,0,0,1,.61.83,2.64,2.64,0,0,1,.28,1.19A3,3,0,0,1,104.24,89.62Zm-5.78-1.36a3.7,3.7,0,0,0,2.1.49,3.89,3.89,0,0,0,2.1-.48,1.59,1.59,0,0,0,0-2.69,3.89,3.89,0,0,0-2.1-.47,3.85,3.85,0,0,0-2.1.47,1.58,1.58,0,0,0,0,2.68Zm-.37-6.51a1.36,1.36,0,0,0,.64,1.19,4.09,4.09,0,0,0,3.65,0,1.36,1.36,0,0,0,.64-1.19,1.4,1.4,0,0,0-.65-1.21,4,4,0,0,0-3.62,0A1.39,1.39,0,0,0,98.09,81.75Z" fill="#003a50"/></g></svg>