<svg id="Слой_1" data-name="Слой 1" xmlns="http://www.w3.org/2000/svg" xmlns:xlink="http://www.w3.org/1999/xlink" viewBox="0 0 581.1 382.68"><defs><clipPath id="clip-path"><polygon points="235.93 0.68 235.93 84.11 0 84.11 0 382.25 580.82 382.25 580.82 49.18 555.59 49.18 555.59 0.68 235.93 0.68" fill="none"/></clipPath></defs><polygon points="53.63 372.25 53.63 382.25 551.09 382.25 551.09 373 74.79 373 74.79 372.25 53.63 372.25" fill="#fff"/><polygon points="245.86 9.46 245.86 99.17 67.43 99.17 67.44 278.21 67.36 324.39 63.51 371.21 551.09 372.25 551.09 345.82 566.4 345.82 566.4 178.91 566.4 126.7 566.4 55.73 545.59 55.73 545.59 9.46 245.86 9.46" fill="#fff"/><rect x="241.24" y="0.68" width="301.67" height="13.64" fill="#fff"/><g clip-path="url(#clip-path)"><rect x="-584.92" y="-1032.4" width="1162.95" height="2240.57" fill="none" stroke="#003a50" stroke-miterlimit="10"/><polygon points="-572.33 71.77 -572.33 1195.32 565.06 1195.32 565.06 -1019.45 -572.33 -1019.61 -572.33 1.06 -572.33 71.77" fill="none" stroke="#003a50" stroke-miterlimit="10"/></g><rect x="540.74" y="74.68" width="4.56" height="87.57" fill="#fff"/><rect x="540.74" y="74.68" width="4.56" height="87.57" fill="none" stroke="#003a50" stroke-miterlimit="10"/><line x1="543.02" y1="74.68" x2="543.02" y2="162.25" fill="none" stroke="#003a50" stroke-miterlimit="10"/><rect x="540.74" y="74.68" width="4.56" height="4.67" fill="#fff"/><rect x="540.74" y="74.68" width="4.56" height="4.67" fill="none" stroke="#003a50" stroke-miterlimit="10"/><rect x="540.74" y="157.59" width="4.56" height="4.67" fill="#fff"/><rect x="540.74" y="157.58" width="4.56" height="4.67" fill="none" stroke="#003a50" stroke-miterlimit="10"/><rect x="540.74" y="116.01" width="4.56" height="4.66" fill="#fff"/><rect x="540.74" y="116.01" width="4.56" height="4.66" fill="none" stroke="#003a50" stroke-miterlimit="10"/><g clip-path="url(#clip-path)"><path d="M540.74,120.67h-2.9c-20.15,0-33.1,16.53-33.1,36.92h36" fill="none" stroke="#003a50" stroke-miterlimit="10"/></g><rect x="540.74" y="258.18" width="4.56" height="87.8" fill="#fff"/><rect x="540.74" y="258.18" width="4.56" height="87.8" fill="none" stroke="#003a50" stroke-miterlimit="10"/><line x1="543.02" y1="345.98" x2="543.02" y2="258.18" fill="none" stroke="#003a50" stroke-miterlimit="10"/><rect x="540.74" y="341.43" width="4.56" height="4.55" fill="#fff"/><rect x="540.74" y="341.43" width="4.56" height="4.55" fill="none" stroke="#003a50" stroke-miterlimit="10"/><rect x="540.74" y="258.17" width="4.56" height="4.55" fill="#fff"/><rect x="540.74" y="258.17" width="4.56" height="4.55" fill="none" stroke="#003a50" stroke-miterlimit="10"/><rect x="540.74" y="298.73" width="4.56" height="4.55" fill="#fff"/><rect x="540.74" y="298.73" width="4.56" height="4.55" fill="none" stroke="#003a50" stroke-miterlimit="10"/><g clip-path="url(#clip-path)"><path d="M540.74,298.73h-2.9c-20.15,0-33.1-16.12-33.1-36h36" fill="none" stroke="#003a50" stroke-miterlimit="10"/></g><rect x="102.3" y="97.66" width="43.96" height="95.52" fill="none" stroke="#003a50" stroke-miterlimit="10"/><g clip-path="url(#clip-path)"><rect x="107.88" y="101.86" width="33.22" height="87.39" rx="13.7" fill="none" stroke="#003a50" stroke-miterlimit="10"/><circle cx="124.4" cy="174.12" r="2.28" transform="translate(-26.28 22.17) rotate(-9.22)" fill="none" stroke="#003a50" stroke-miterlimit="10"/><path d="M162.8,164.59v28.57h23.08V164.59a11.54,11.54,0,0,0-23.08,0Z" fill="none" stroke="#003a50" stroke-miterlimit="10"/></g><rect x="162.8" y="182.07" width="23.08" height="11.08" fill="none" stroke="#003a50" stroke-miterlimit="10"/><g clip-path="url(#clip-path)"><path d="M158.9,240.46a3.16,3.16,0,0,0,2.9-2h1.79l4.73,2.83-2.15,3.49-2.46-1.35v11h-10.3v-11l-2.47,1.35-2.14-3.49,4.77-2.83H156A3.19,3.19,0,0,0,158.9,240.46Z" fill="none" stroke="#003a50" stroke-miterlimit="10"/></g><rect x="142.78" y="230.8" width="31.57" height="30.9" fill="none" stroke="#003a50" stroke-miterlimit="10"/><g clip-path="url(#clip-path)"><rect x="253.66" y="-147.79" width="26.5" height="148.24" fill="none" stroke="#003a50" stroke-miterlimit="10"/><line x1="266.85" y1="-147.66" x2="266.85" y2="0.32" fill="none" stroke="#003a50" stroke-miterlimit="10"/><rect x="280.16" y="-26.04" width="34.54" height="26.5" fill="none" stroke="#003a50" stroke-miterlimit="10"/></g><rect x="269.75" y="331.77" width="34.02" height="34.02" fill="none" stroke="#003a50" stroke-miterlimit="10"/><g clip-path="url(#clip-path)"><path d="M299.16,356.39a4.64,4.64,0,1,1-4.63-4.64A4.63,4.63,0,0,1,299.16,356.39Z" fill="none" stroke="#003a50" stroke-miterlimit="10"/><path d="M283.68,356.39a4.64,4.64,0,1,1-4.64-4.64A4.64,4.64,0,0,1,283.68,356.39Z" fill="none" stroke="#003a50" stroke-miterlimit="10"/><path d="M299.16,341.3a4.64,4.64,0,1,1-4.63-4.64A4.63,4.63,0,0,1,299.16,341.3Z" fill="none" stroke="#003a50" stroke-miterlimit="10"/><path d="M283.68,341.3a4.64,4.64,0,1,1-4.64-4.64A4.64,4.64,0,0,1,283.68,341.3Z" fill="none" stroke="#003a50" stroke-miterlimit="10"/></g><rect x="427.78" y="186.97" width="102.05" height="17.01" fill="none" stroke="#003a50" stroke-miterlimit="10"/><polygon points="521.8 196.01 478.9 192.49 435.8 196.01 435.8 198.47 521.8 198.47 521.8 196.01" fill="none" stroke="#003a50" stroke-miterlimit="10"/><rect x="338.82" y="163.9" width="102.05" height="17.01" fill="none" stroke="#003a50" stroke-miterlimit="10"/><polygon points="346.84 171.86 389.74 175.39 432.84 171.86 432.84 169.41 346.84 169.41 346.84 171.86" fill="none" stroke="#003a50" stroke-miterlimit="10"/><rect x="213.57" y="331.64" width="152.36" height="34.28" fill="none" stroke="#003a50" stroke-miterlimit="10"/><g clip-path="url(#clip-path)"><path d="M322.13,246a1.27,1.27,0,0,1,.95,1.51A13.78,13.78,0,0,0,350,253.71a1.26,1.26,0,1,1,2.45.56A16.3,16.3,0,1,1,320.62,247,1.26,1.26,0,0,1,322.13,246Z" fill="none" stroke="#003a50" stroke-miterlimit="10"/><path d="M377.3,255.76a1.26,1.26,0,0,1,1.75-.34,13.78,13.78,0,0,0,15.52-22.78,1.26,1.26,0,1,1,1.42-2.08,16.3,16.3,0,1,1-18.36,26.94A1.25,1.25,0,0,1,377.3,255.76Z" fill="none" stroke="#003a50" stroke-miterlimit="10"/><path d="M379.81,208.35a1.27,1.27,0,0,1-1.34-1.18A13.78,13.78,0,1,0,351,208.8a1.24,1.24,0,0,1-1.18,1.33,1.26,1.26,0,0,1-1.33-1.18A16.3,16.3,0,1,1,381,207,1.26,1.26,0,0,1,379.81,208.35Z" fill="none" stroke="#003a50" stroke-miterlimit="10"/><path d="M336.33,262.65a12.69,12.69,0,0,1-12-15.48l2-8.88a3.53,3.53,0,0,1,4.24-2.68l13.44,3.08a23.73,23.73,0,0,0,6,9.44l-1,4.2C347.73,258.29,342.45,262.85,336.33,262.65Z" fill="none" stroke="#003a50" stroke-miterlimit="10"/><path d="M379.13,254.13l-2.32-1.6a23.81,23.81,0,0,0,13.64-21.32l2.52,1.72c5,3.44,7.4,10,5,15.64A12.7,12.7,0,0,1,379.13,254.13Z" fill="none" stroke="#003a50" stroke-miterlimit="10"/><path d="M352.29,211.85l-.12-2c-.36-6.12,3.4-12,9.32-13.48a12.66,12.66,0,0,1,15.88,11.48l.12,1.84a23.93,23.93,0,0,0-16.64-1.92A23.5,23.5,0,0,0,352.29,211.85Z" fill="none" stroke="#003a50" stroke-miterlimit="10"/><path d="M350.05,248.13a23.73,23.73,0,0,1-6-9.44,16.51,16.51,0,0,1-.6-2,23.85,23.85,0,0,1,8.84-24.84,23.5,23.5,0,0,1,8.56-4,23.87,23.87,0,0,1,28.92,17.4,22.12,22.12,0,0,1,.68,6,23.81,23.81,0,0,1-13.64,21.32,22.85,22.85,0,0,1-4.48,1.6A23.8,23.8,0,0,1,350.05,248.13Z" fill="none" stroke="#003a50" stroke-miterlimit="10"/></g><rect x="146.78" y="100.44" width="99.69" height="25.39" fill="none" stroke="#003a50" stroke-miterlimit="10"/><g clip-path="url(#clip-path)"><rect x="205.77" y="98.73" width="24.4" height="25.04" rx="2.83" fill="none" stroke="#003a50" stroke-miterlimit="10"/><circle cx="217.97" cy="111.25" r="1.91" fill="none" stroke="#003a50" stroke-miterlimit="10"/><rect x="163.04" y="98.73" width="24.4" height="25.04" rx="2.83" fill="none" stroke="#003a50" stroke-miterlimit="10"/><circle cx="175.24" cy="111.25" r="1.91" fill="none" stroke="#003a50" stroke-miterlimit="10"/></g><polyline points="225.97 362.75 232.76 362.75 239.55 362.75" fill="none" stroke="#003a50" stroke-miterlimit="10"/><line x1="232.78" y1="349.13" x2="232.78" y2="362.75" fill="none" stroke="#003a50" stroke-miterlimit="10"/><g clip-path="url(#clip-path)"><path d="M217.71,338.49v15.2a3.22,3.22,0,0,0,3.23,3.23h23.59a3.23,3.23,0,0,0,3.24-3.23v-15.2a3.23,3.23,0,0,0-3.24-3.23H220.94A3.22,3.22,0,0,0,217.71,338.49Z" fill="none" stroke="#003a50" stroke-miterlimit="10"/><path d="M232.78,347.44a2.43,2.43,0,1,0,2.42,2.42A2.42,2.42,0,0,0,232.78,347.44Z" fill="none" stroke="#003a50" stroke-miterlimit="10"/><path d="M172.44,410.49V381.93H149.36v28.56a11.54,11.54,0,0,0,23.08,0Z" fill="none" stroke="#003a50" stroke-miterlimit="10"/><rect x="149.36" y="381.93" width="23.08" height="11.08" fill="none" stroke="#003a50" stroke-miterlimit="10"/><rect x="65.16" y="381.94" width="67.72" height="42.22" fill="none" stroke="#003a50" stroke-miterlimit="10"/></g><rect x="67.36" y="331.77" width="105.88" height="33.88" fill="none" stroke="#003a50" stroke-miterlimit="10"/><g clip-path="url(#clip-path)"><path d="M83.33,336.57a1,1,0,0,1,.52-.89.9.9,0,0,1,1.25.45,30.35,30.35,0,0,1,0,25.16.9.9,0,0,1-1.24.46,1,1,0,0,1-.44-1.34,28.22,28.22,0,0,0,0-23.4A1.12,1.12,0,0,1,83.33,336.57Z" fill="none" stroke="#003a50" stroke-miterlimit="10"/><path d="M88.52,336.57a1,1,0,0,1,.52-.89.91.91,0,0,1,1.26.45,30.45,30.45,0,0,1,0,25.16.91.91,0,0,1-1.25.46,1,1,0,0,1-.43-1.34,28.32,28.32,0,0,0,0-23.4A1,1,0,0,1,88.52,336.57Z" fill="none" stroke="#003a50" stroke-miterlimit="10"/><path d="M93.71,336.57a1,1,0,0,1,.53-.89.9.9,0,0,1,1.25.45,30.45,30.45,0,0,1,0,25.16.91.91,0,0,1-1.25.46,1,1,0,0,1-.43-1.34,28.32,28.32,0,0,0,0-23.4A1,1,0,0,1,93.71,336.57Z" fill="none" stroke="#003a50" stroke-miterlimit="10"/><path d="M98.91,336.57a1,1,0,0,1,.52-.89.9.9,0,0,1,1.25.45,30.35,30.35,0,0,1,0,25.16.91.91,0,0,1-1.25.46,1,1,0,0,1-.43-1.34A28.22,28.22,0,0,0,99,337,1,1,0,0,1,98.91,336.57Z" fill="none" stroke="#003a50" stroke-miterlimit="10"/><path d="M104.1,336.57a1,1,0,0,1,.52-.89.9.9,0,0,1,1.25.45,30.35,30.35,0,0,1,0,25.16.9.9,0,0,1-1.24.46,1,1,0,0,1-.44-1.34,28.22,28.22,0,0,0,0-23.4A1.12,1.12,0,0,1,104.1,336.57Z" fill="none" stroke="#003a50" stroke-miterlimit="10"/><path d="M109.29,336.57a1,1,0,0,1,.53-.89.9.9,0,0,1,1.25.45,30.45,30.45,0,0,1,0,25.16.91.91,0,0,1-1.25.46,1,1,0,0,1-.43-1.34,28.32,28.32,0,0,0,0-23.4A1,1,0,0,1,109.29,336.57Z" fill="none" stroke="#003a50" stroke-miterlimit="10"/><path d="M78.13,336.57a1,1,0,0,1,.53-.89.9.9,0,0,1,1.25.45,30.45,30.45,0,0,1,0,25.16.91.91,0,0,1-1.25.46,1,1,0,0,1-.43-1.34,28.22,28.22,0,0,0,0-23.4A1,1,0,0,1,78.13,336.57Z" fill="none" stroke="#003a50" stroke-miterlimit="10"/><path d="M72.94,336.57a1,1,0,0,1,.53-.89.9.9,0,0,1,1.25.45,30.45,30.45,0,0,1,0,25.16.91.91,0,0,1-1.25.46,1,1,0,0,1-.43-1.34A28.32,28.32,0,0,0,73,337,1,1,0,0,1,72.94,336.57Z" fill="none" stroke="#003a50" stroke-miterlimit="10"/></g><line x1="67.36" y1="348.71" x2="173.24" y2="348.71" fill="none" stroke="#003a50" stroke-miterlimit="10"/><rect x="215.08" y="230.8" width="32.18" height="30.88" fill="none" stroke="#003a50" stroke-miterlimit="10"/><polygon points="91.99 261.8 91.82 199.63 67.18 199.63 67.36 261.8 91.99 261.8" fill="none" stroke="#003a50" stroke-miterlimit="10"/><g clip-path="url(#clip-path)"><path d="M87.14,235H68.59a2.71,2.71,0,0,0-2.71,2.71v17.94a2.71,2.71,0,0,0,2.71,2.7H87.14a2.7,2.7,0,0,0,2.7-2.7V237.68A2.7,2.7,0,0,0,87.14,235Z" fill="none" stroke="#003a50" stroke-miterlimit="10"/><circle cx="77.86" cy="246.64" r="1.83" transform="matrix(0.99, -0.16, 0.16, 0.99, -38.5, 15.66)" fill="none" stroke="#003a50" stroke-miterlimit="10"/><path d="M103,228.55V199.7h22.79v28.85a11.4,11.4,0,1,1-22.79,0Z" fill="none" stroke="#003a50" stroke-miterlimit="10"/></g><line x1="125.78" y1="210.92" x2="102.99" y2="210.92" fill="none" stroke="#003a50" stroke-miterlimit="10"/><rect x="179.52" y="331.63" width="34.02" height="34.02" fill="none" stroke="#003a50" stroke-miterlimit="10"/><line x1="196.52" y1="351.4" x2="196.52" y2="361.96" fill="none" stroke="#003a50" stroke-miterlimit="10"/><g clip-path="url(#clip-path)"><path d="M197.43,351.4h-1.82a3.4,3.4,0,0,1-3.39-3.4V336.8h8.6V348A3.4,3.4,0,0,1,197.43,351.4Z" fill="none" stroke="#003a50" stroke-miterlimit="10"/></g><line x1="193.05" y1="361.96" x2="200" y2="361.96" fill="none" stroke="#003a50" stroke-miterlimit="10"/><rect x="331.63" y="331.64" width="34.02" height="34.02" fill="none" stroke="#003a50" stroke-miterlimit="10"/><line x1="338.66" y1="348.64" x2="358.62" y2="348.64" fill="none" stroke="#003a50" stroke-miterlimit="10"/><line x1="348.64" y1="358.62" x2="348.64" y2="338.66" fill="none" stroke="#003a50" stroke-miterlimit="10"/><line x1="341.58" y1="355.7" x2="355.7" y2="341.59" fill="none" stroke="#003a50" stroke-miterlimit="10"/><line x1="355.7" y1="355.7" x2="341.59" y2="341.59" fill="none" stroke="#003a50" stroke-miterlimit="10"/><rect x="143.03" y="199.67" width="103.82" height="31.12" fill="none" stroke="#003a50" stroke-miterlimit="10"/><g clip-path="url(#clip-path)"><path d="M158.69,204.08a.92.92,0,0,1,1.74-.41,26.36,26.36,0,0,1,0,23.12.91.91,0,1,1-1.64-.81,24.52,24.52,0,0,0,0-21.49A.86.86,0,0,1,158.69,204.08Z" fill="none" stroke="#003a50" stroke-miterlimit="10"/><path d="M163.78,204.08a.91.91,0,0,1,.51-.82.93.93,0,0,1,1.24.41,26.45,26.45,0,0,1,0,23.12.93.93,0,0,1-1.23.42.91.91,0,0,1-.42-1.23,24.52,24.52,0,0,0,0-21.49A.86.86,0,0,1,163.78,204.08Z" fill="none" stroke="#003a50" stroke-miterlimit="10"/><path d="M168.87,204.08a.93.93,0,0,1,1.75-.41,26.36,26.36,0,0,1,0,23.12.93.93,0,0,1-1.23.42A.92.92,0,0,1,169,226a24.52,24.52,0,0,0,0-21.49A.86.86,0,0,1,168.87,204.08Z" fill="none" stroke="#003a50" stroke-miterlimit="10"/><path d="M174,204.08a.91.91,0,0,1,.51-.82.92.92,0,0,1,1.23.41,26.36,26.36,0,0,1,0,23.12.92.92,0,1,1-1.65-.81,24.43,24.43,0,0,0,0-21.49A.85.85,0,0,1,174,204.08Z" fill="none" stroke="#003a50" stroke-miterlimit="10"/><path d="M179.06,204.08a.92.92,0,0,1,1.74-.41,26.36,26.36,0,0,1,0,23.12.92.92,0,1,1-1.65-.81,24.43,24.43,0,0,0,0-21.49A1,1,0,0,1,179.06,204.08Z" fill="none" stroke="#003a50" stroke-miterlimit="10"/><path d="M184.15,204.08a.92.92,0,0,1,1.74-.41,26.36,26.36,0,0,1,0,23.12.91.91,0,1,1-1.64-.81,24.52,24.52,0,0,0,0-21.49A.86.86,0,0,1,184.15,204.08Z" fill="none" stroke="#003a50" stroke-miterlimit="10"/><path d="M153.6,204.08a.92.92,0,0,1,1.74-.41,26.36,26.36,0,0,1,0,23.12.92.92,0,0,1-1.65-.81,24.43,24.43,0,0,0,0-21.49A1,1,0,0,1,153.6,204.08Z" fill="none" stroke="#003a50" stroke-miterlimit="10"/><path d="M148.51,204.08a.91.91,0,0,1,.51-.82.92.92,0,0,1,1.23.41,26.36,26.36,0,0,1,0,23.12.92.92,0,0,1-1.65-.81,24.43,24.43,0,0,0,0-21.49A.85.85,0,0,1,148.51,204.08Z" fill="none" stroke="#003a50" stroke-miterlimit="10"/></g><line x1="143.03" y1="215.23" x2="246.85" y2="215.23" fill="none" stroke="#003a50" stroke-miterlimit="10"/><rect x="252.61" y="16.87" width="34.02" height="105.94" fill="none" stroke="#003a50" stroke-miterlimit="10"/><g clip-path="url(#clip-path)"><path d="M281.73,34.2a1,1,0,0,1,.45,1.91,28.77,28.77,0,0,1-25.26,0,1,1,0,0,1-.46-1.34,1,1,0,0,1,1.34-.46,26.81,26.81,0,0,0,23.49,0A1,1,0,0,1,281.73,34.2Z" fill="none" stroke="#003a50" stroke-miterlimit="10"/><path d="M281.73,39.77a1,1,0,0,1,.45,1.9,28.77,28.77,0,0,1-25.26,0,1,1,0,1,1,.88-1.8,26.72,26.72,0,0,0,23.49,0A1,1,0,0,1,281.73,39.77Z" fill="none" stroke="#003a50" stroke-miterlimit="10"/><path d="M281.73,45.33a1,1,0,0,1,.45,1.91,28.77,28.77,0,0,1-25.26,0,1,1,0,0,1-.46-1.34,1,1,0,0,1,1.34-.46,26.81,26.81,0,0,0,23.49,0A1,1,0,0,1,281.73,45.33Z" fill="none" stroke="#003a50" stroke-miterlimit="10"/><path d="M281.73,50.9a1,1,0,0,1,.45,1.9,28.77,28.77,0,0,1-25.26,0,1,1,0,1,1,.88-1.8,26.72,26.72,0,0,0,23.49,0A1,1,0,0,1,281.73,50.9Z" fill="none" stroke="#003a50" stroke-miterlimit="10"/><path d="M281.73,56.47a1,1,0,0,1,.9.56,1,1,0,0,1-.45,1.34,28.77,28.77,0,0,1-25.26,0,1,1,0,1,1,.88-1.8,26.72,26.72,0,0,0,23.49,0A1,1,0,0,1,281.73,56.47Z" fill="none" stroke="#003a50" stroke-miterlimit="10"/><path d="M281.73,62a1,1,0,0,1,.45,1.9,28.77,28.77,0,0,1-25.26,0,1,1,0,1,1,.88-1.8,26.72,26.72,0,0,0,23.49,0A1,1,0,0,1,281.73,62Z" fill="none" stroke="#003a50" stroke-miterlimit="10"/><path d="M281.73,28.64a1,1,0,0,1,.45,1.9,28.45,28.45,0,0,1-12.64,2.92,28.4,28.4,0,0,1-12.62-2.92,1,1,0,1,1,.88-1.8,26.72,26.72,0,0,0,23.49,0A1,1,0,0,1,281.73,28.64Z" fill="none" stroke="#003a50" stroke-miterlimit="10"/><path d="M281.73,23.07a1,1,0,0,1,.45,1.91,28.58,28.58,0,0,1-12.64,2.92A28.53,28.53,0,0,1,256.92,25a1,1,0,0,1-.46-1.34,1,1,0,0,1,1.34-.46,26.43,26.43,0,0,0,11.74,2.71,26.44,26.44,0,0,0,11.75-2.71A1,1,0,0,1,281.73,23.07Z" fill="none" stroke="#003a50" stroke-miterlimit="10"/></g><line x1="269.54" y1="17.09" x2="269.54" y2="122.81" fill="none" stroke="#003a50" stroke-miterlimit="10"/><g clip-path="url(#clip-path)"><path d="M281.73,68.2a1,1,0,0,1,.45,1.9,28.77,28.77,0,0,1-25.26,0,1,1,0,0,1,.88-1.8,26.72,26.72,0,0,0,23.49,0A1,1,0,0,1,281.73,68.2Z" fill="none" stroke="#003a50" stroke-miterlimit="10"/><path d="M281.73,73.76a1,1,0,0,1,.45,1.91,28.77,28.77,0,0,1-25.26,0,1,1,0,0,1-.46-1.34,1,1,0,0,1,1.34-.46,26.81,26.81,0,0,0,23.49,0A.87.87,0,0,1,281.73,73.76Z" fill="none" stroke="#003a50" stroke-miterlimit="10"/><path d="M281.73,79.33a1,1,0,0,1,.45,1.9,28.77,28.77,0,0,1-25.26,0,1,1,0,1,1,.88-1.8,26.72,26.72,0,0,0,23.49,0A1,1,0,0,1,281.73,79.33Z" fill="none" stroke="#003a50" stroke-miterlimit="10"/><path d="M469.5,319v41H423.73V316.76h43.56A2.22,2.22,0,0,1,469.5,319Z" fill="none" stroke="#003a50" stroke-miterlimit="10"/><path d="M515.37,318.75V360H469.6V318.75a2,2,0,0,1,2-2h41.8A2,2,0,0,1,515.37,318.75Z" fill="none" stroke="#003a50" stroke-miterlimit="10"/><path d="M423.73,316.76a3.1,3.1,0,0,0-3.32-2.82h-4.22a3.1,3.1,0,0,0-3.33,2.82V365H526.25V317.19a3.11,3.11,0,0,0-3.33-2.83H518.7a3.11,3.11,0,0,0-3.33,2.83V360H423.73Z" fill="none" stroke="#003a50" stroke-miterlimit="10"/></g><rect x="423.73" y="350.76" width="91.64" height="9.25" fill="none" stroke="#003a50" stroke-miterlimit="10"/><g clip-path="url(#clip-path)"><rect x="299.34" y="381.85" width="34.02" height="84.03" rx="3.31" fill="none" stroke="#003a50" stroke-miterlimit="10"/><rect x="500.18" y="381.97" width="22.68" height="22.68" fill="none" stroke="#003a50" stroke-miterlimit="10"/><rect x="361.75" y="381.97" width="22.68" height="22.68" fill="none" stroke="#003a50" stroke-miterlimit="10"/><rect x="391.28" y="381.97" width="102.05" height="113.38" fill="none" stroke="#003a50" stroke-miterlimit="10"/></g><rect x="445.55" y="16.92" width="22.68" height="22.68" fill="none" stroke="#003a50" stroke-miterlimit="10"/><g clip-path="url(#clip-path)"><path d="M463.39,34.76a9.19,9.19,0,1,1,0-13A9.17,9.17,0,0,1,463.39,34.76Z" fill="none" stroke="#003a50" stroke-miterlimit="10"/><path d="M464,34.07c-1.69-.17-3.41.49-5.06-1.17-2.44-2.44.14-5-2.3-7.45s-5,.13-7.46-2.3" fill="none" stroke="#003a50" stroke-miterlimit="10"/></g><rect x="311.45" y="16.92" width="22.68" height="22.68" fill="none" stroke="#003a50" stroke-miterlimit="10"/><g clip-path="url(#clip-path)"><path d="M329.29,34.76a9.19,9.19,0,1,1,0-13A9.17,9.17,0,0,1,329.29,34.76Z" fill="none" stroke="#003a50" stroke-miterlimit="10"/><path d="M329.92,34.07c-1.7-.17-3.42.49-5.07-1.17-2.44-2.44.15-5-2.3-7.45s-5,.13-7.45-2.3" fill="none" stroke="#003a50" stroke-miterlimit="10"/></g><rect x="338.93" y="16.92" width="102.05" height="113.39" fill="none" stroke="#003a50" stroke-miterlimit="10"/><g clip-path="url(#clip-path)"><path d="M431,120.57H348.93a2.09,2.09,0,0,1-2.09-2.08V50.85h86.22v67.64A2.08,2.08,0,0,1,431,120.57Z" fill="none" stroke="#003a50" stroke-miterlimit="10"/><rect x="346.59" y="24.36" width="42.5" height="22.88" rx="1.98" fill="none" stroke="#003a50" stroke-miterlimit="10"/><rect x="390.82" y="24.36" width="42.5" height="22.88" rx="1.98" fill="none" stroke="#003a50" stroke-miterlimit="10"/></g><line x1="433.32" y1="64.7" x2="346.59" y2="64.7" fill="none" stroke="#003a50" stroke-miterlimit="10"/><g clip-path="url(#clip-path)"><rect x="366.88" y="-22.58" width="22.68" height="22.68" fill="none" stroke="#003a50" stroke-miterlimit="10"/><rect x="500.98" y="-22.58" width="22.68" height="22.68" fill="none" stroke="#003a50" stroke-miterlimit="10"/><rect x="394.14" y="-113.29" width="102.05" height="113.39" fill="none" stroke="#003a50" stroke-miterlimit="10"/><path d="M243.2,251a1,1,0,0,1,.45,1.9,28.77,28.77,0,0,1-25.26,0,1,1,0,1,1,.88-1.8,26.72,26.72,0,0,0,23.49,0A1,1,0,0,1,243.2,251Z" fill="none" stroke="#003a50" stroke-miterlimit="10"/><path d="M243.2,245.44a1,1,0,0,1,.45,1.91,28.77,28.77,0,0,1-25.26,0,1,1,0,0,1-.46-1.34,1,1,0,0,1,1.34-.46,26.81,26.81,0,0,0,23.49,0A1,1,0,0,1,243.2,245.44Z" fill="none" stroke="#003a50" stroke-miterlimit="10"/><path d="M243.2,239.88a1,1,0,0,1,.45,1.9,28.77,28.77,0,0,1-25.26,0,1,1,0,1,1,.88-1.8,26.72,26.72,0,0,0,23.49,0A1,1,0,0,1,243.2,239.88Z" fill="none" stroke="#003a50" stroke-miterlimit="10"/></g><line x1="231.02" y1="231.05" x2="231.02" y2="261.47" fill="none" stroke="#003a50" stroke-miterlimit="10"/><g clip-path="url(#clip-path)"><rect x="207.22" y="381.94" width="85.75" height="31.12" fill="none" stroke="#003a50" stroke-miterlimit="10"/><path d="M134.25,264.44v3.08a38.71,38.71,0,0,1-38.71,38.71V264.44" fill="none" stroke="#003a50" stroke-miterlimit="10" stroke-width="1.6"/><path d="M302.17,183.34v3.38a42.58,42.58,0,0,1-42.58,42.59v-46" fill="none" stroke="#003a50" stroke-miterlimit="10" stroke-width="1.6"/><path d="M248.65,133.69h3.08a38.72,38.72,0,0,1,38.71,38.72H248.65" fill="none" stroke="#003a50" stroke-miterlimit="10" stroke-width="1.6"/><path d="M56.82,274.23H52.76A51.12,51.12,0,0,0,1.63,325.35H56.82" fill="none" stroke="#003a50" stroke-miterlimit="10" stroke-width="1.6"/><path d="M56.82,8.7H52.76A51.13,51.13,0,0,0,1.63,59.83H56.82" fill="none" stroke="#003a50" stroke-miterlimit="10" stroke-width="1.6"/><rect x="51.04" y="97.93" width="16.32" height="176.83" fill="#003a50"/><rect x="51.04" y="324.39" width="16.32" height="181.89" fill="#003a50"/><rect x="63.51" y="365.63" width="474.34" height="16.32" fill="#003a50"/><rect x="51.04" y="-165.61" width="10.82" height="175.07" fill="#003a50"/><rect x="51.04" y="58.38" width="10.82" height="37.76" fill="#003a50"/><rect x="245.86" y="0.38" width="287.97" height="16.26" fill="#003a50"/><rect x="51.04" y="84.05" width="201.28" height="16.26" fill="#003a50"/><rect x="236.07" y="-152.61" width="17.28" height="252.92" fill="#003a50"/><polygon points="529.82 258.5 529.82 162.76 579.15 162.76 567.49 258.5 529.82 258.5" fill="#003a50" fill-rule="evenodd"/><rect x="529.82" y="-21.58" width="26.17" height="96.07" fill="#003a50"/><rect x="533.82" y="48.59" width="44.33" height="25.9" fill="#003a50"/><rect x="529.82" y="345.82" width="24.67" height="96.07" fill="#003a50"/><rect x="200.84" y="375.84" width="6.38" height="112.92" fill="#003a50"/><rect x="152.22" y="344.46" width="24.71" height="6.38" fill="#003a50"/><rect x="152.22" y="344.46" width="6.38" height="26.75" fill="#003a50"/><rect x="178.76" y="377.9" width="6.38" height="26.75" fill="#003a50"/><rect x="292.97" y="375.84" width="6.38" height="110.35" fill="#003a50"/><rect x="133.23" y="261.69" width="44.36" height="6.38" fill="#003a50"/><rect x="63.26" y="193.19" width="187.46" height="6.38" fill="#003a50"/><rect x="136.4" y="198.38" width="6.38" height="65.34" fill="#003a50"/><rect x="173.24" y="331.78" width="6.38" height="40.91" fill="#003a50"/><rect x="214.76" y="261.69" width="35.96" height="6.38" fill="#003a50"/><rect x="56.82" y="261.69" width="39.55" height="6.38" fill="#003a50"/><rect x="246.98" y="84.05" width="6.38" height="50.48" fill="#003a50"/><rect x="96.36" y="96.14" width="6.38" height="97.9" fill="#003a50"/><rect x="63.26" y="156.57" width="37.83" height="6.38" fill="#003a50"/><rect x="246.98" y="171.58" width="6.38" height="96.49" fill="#003a50"/><rect x="301.34" y="180.59" width="228.49" height="6.38" fill="#003a50"/><rect x="249.09" y="180.59" width="11.25" height="6.38" fill="#003a50"/><line x1="177.59" y1="268.07" x2="177.59" y2="270.9" fill="none" stroke="#003a50" stroke-miterlimit="10"/><line x1="177.59" y1="276.27" x2="177.59" y2="327.31" fill="none" stroke="#003a50" stroke-miterlimit="10" stroke-dasharray="5.37 5.37"/><line x1="177.59" y1="330" x2="177.59" y2="332.84" fill="none" stroke="#003a50" stroke-miterlimit="10"/><rect x="133.23" y="261.69" width="44.36" height="6.38" fill="#003a50"/><rect x="63.26" y="193.19" width="187.46" height="6.38" fill="#003a50"/><rect x="136.4" y="198.38" width="6.38" height="65.34" fill="#003a50"/><rect x="173.24" y="331.78" width="6.38" height="40.91" fill="#003a50"/><rect x="214.76" y="261.69" width="35.96" height="6.38" fill="#003a50"/><rect x="56.82" y="261.69" width="39.55" height="6.38" fill="#003a50"/><rect x="246.98" y="84.05" width="6.38" height="50.48" fill="#003a50"/><rect x="96.36" y="96.14" width="6.38" height="97.9" fill="#003a50"/><rect x="63.26" y="156.57" width="37.83" height="6.38" fill="#003a50"/><rect x="246.98" y="171.58" width="6.38" height="96.49" fill="#003a50"/><rect x="314.63" y="-49.79" width="6.38" height="59.44" fill="#003a50"/><rect x="301.34" y="180.59" width="228.49" height="6.38" fill="#003a50"/><rect x="249.09" y="180.59" width="11.25" height="6.38" fill="#003a50"/><line x1="177.59" y1="268.07" x2="177.59" y2="270.9" fill="none" stroke="#003a50" stroke-miterlimit="10"/><line x1="177.59" y1="276.27" x2="177.59" y2="327.31" fill="none" stroke="#003a50" stroke-miterlimit="10" stroke-dasharray="5.37 5.37"/><line x1="177.59" y1="330" x2="177.59" y2="332.84" fill="none" stroke="#003a50" stroke-miterlimit="10"/></g><g clip-path="url(#clip-path)"><path d="M556.54,108.91a4.57,4.57,0,0,1-3.12,1,4.63,4.63,0,0,1-3.12-1,4,4,0,0,1,0-5.74,4.63,4.63,0,0,1,3.12-1,4.57,4.57,0,0,1,3.12,1,4,4,0,0,1,0,5.74Zm-1-4.61a4.06,4.06,0,0,0-4.28,0,2.23,2.23,0,0,0,0,3.47,4,4,0,0,0,4.28,0,2,2,0,0,0,.84-1.73A2.05,2.05,0,0,0,555.56,104.3Z" fill="#003a50"/><path d="M557.53,100.58a.72.72,0,0,1-.57.23.75.75,0,0,1-.57-.23.87.87,0,0,1-.21-.61.85.85,0,0,1,.21-.61.71.71,0,0,1,.57-.23.69.69,0,0,1,.57.23.85.85,0,0,1,.21.61A.87.87,0,0,1,557.53,100.58Z" fill="#003a50"/><path d="M551.59,91v1.56s-.05,0-.13,0a1.38,1.38,0,0,0-.31.15,3,3,0,0,0-.35.27,1.57,1.57,0,0,0-.29.5,2.35,2.35,0,0,0-.11.71,1.77,1.77,0,0,0,.72,1.52,3.12,3.12,0,0,0,1.9.54v0a1.27,1.27,0,0,1-.31-.31,2.67,2.67,0,0,1-.25-.43,2.62,2.62,0,0,1-.22-.67,4,4,0,0,1-.09-.86,3.53,3.53,0,0,1,.79-2.38,2.47,2.47,0,0,1,2-.92,2.52,2.52,0,0,1,2.05,1,3.92,3.92,0,0,1,.78,2.55,3.38,3.38,0,0,1-1.09,2.73,4.5,4.5,0,0,1-3,.93h-.29a4.85,4.85,0,0,1-3-.93,3.21,3.21,0,0,1-1.21-2.69,3.93,3.93,0,0,1,.27-1.5,2.69,2.69,0,0,1,.66-1A2.44,2.44,0,0,1,551.59,91Zm2.22,1.77a2.58,2.58,0,0,0,0,2.79,1.3,1.3,0,0,0,1.11.55,1.31,1.31,0,0,0,1.11-.54,2.54,2.54,0,0,0,0-2.8,1.4,1.4,0,0,0-2.22,0Z" fill="#003a50"/><path d="M556.54,290.42a4.57,4.57,0,0,1-3.12,1,4.63,4.63,0,0,1-3.12-1,4,4,0,0,1,0-5.74,4.63,4.63,0,0,1,3.12-1,4.57,4.57,0,0,1,3.12,1,4,4,0,0,1,0,5.74Zm-1-4.61a4.06,4.06,0,0,0-4.28,0,2,2,0,0,0-.83,1.74,2,2,0,0,0,.83,1.73,4,4,0,0,0,4.28,0,2,2,0,0,0,.84-1.73A2.05,2.05,0,0,0,555.56,285.81Z" fill="#003a50"/><path d="M557.53,282.09a.69.69,0,0,1-.57.23.71.71,0,0,1-.57-.23,1,1,0,0,1,0-1.22.75.75,0,0,1,.57-.23.72.72,0,0,1,.57.23,1,1,0,0,1,0,1.22Z" fill="#003a50"/><path d="M551.59,272.48V274s-.05,0-.13,0a1.38,1.38,0,0,0-.31.15,3,3,0,0,0-.35.27,1.57,1.57,0,0,0-.29.5,2.36,2.36,0,0,0-.11.72,1.76,1.76,0,0,0,.72,1.51,3.12,3.12,0,0,0,1.9.54v0a1.27,1.27,0,0,1-.31-.31,2.67,2.67,0,0,1-.25-.43,2.5,2.5,0,0,1-.22-.67,4,4,0,0,1-.09-.86,3.5,3.5,0,0,1,.79-2.37,2.44,2.44,0,0,1,2-.92,2.52,2.52,0,0,1,2.05,1,3.87,3.87,0,0,1,.78,2.54,3.38,3.38,0,0,1-1.09,2.73,4.5,4.5,0,0,1-3,.93h-.29a4.85,4.85,0,0,1-3-.93,3.2,3.2,0,0,1-1.21-2.68,3.86,3.86,0,0,1,.27-1.5,2.73,2.73,0,0,1,.66-1A2.44,2.44,0,0,1,551.59,272.48Zm2.22,1.77a2.32,2.32,0,0,0-.41,1.4,2.27,2.27,0,0,0,.41,1.39,1.3,1.3,0,0,0,1.11.55,1.31,1.31,0,0,0,1.11-.54,2.54,2.54,0,0,0,0-2.8,1.3,1.3,0,0,0-1.11-.55A1.32,1.32,0,0,0,553.81,274.25Z" fill="#003a50"/><path d="M459.21,290.49l-2.48,1.95V290.2l2.73-2.27h1.86v11.91h-2.11Z" fill="#003a50"/><path d="M464.07,296.49h2.21s0,.07,0,.18a2.71,2.71,0,0,0,.23.43,2.37,2.37,0,0,0,.41.49,2.3,2.3,0,0,0,.75.41,3.21,3.21,0,0,0,1.05.17,2.7,2.7,0,0,0,2.25-1.06,4.4,4.4,0,0,0,.8-2.71h-.06a2,2,0,0,1-.44.46,2.56,2.56,0,0,1-.59.4,3.8,3.8,0,0,1-1,.33,5.43,5.43,0,0,1-1.22.13,5,5,0,0,1-3.36-1.13,3.71,3.71,0,0,1,.05-5.72,5.49,5.49,0,0,1,3.6-1.11,4.81,4.81,0,0,1,3.87,1.55,6.38,6.38,0,0,1,1.32,4.27v.4a6.68,6.68,0,0,1-1.37,4.31,4.69,4.69,0,0,1-3.89,1.71,5.9,5.9,0,0,1-2.16-.37,3.75,3.75,0,0,1-1.48-.95A3.31,3.31,0,0,1,464.07,296.49Zm2.78-3.16a3.19,3.19,0,0,0,2,.59,3.23,3.23,0,0,0,2-.59,1.86,1.86,0,0,0,.78-1.57,1.89,1.89,0,0,0-.77-1.58,3.22,3.22,0,0,0-2-.58,3.16,3.16,0,0,0-2,.58,2,2,0,0,0,0,3.15Z" fill="#003a50"/><path d="M476.21,299.71a1,1,0,0,1-.33-.81,1,1,0,0,1,.33-.81,1.44,1.44,0,0,1,1.73,0,1,1,0,0,1,.32.81,1,1,0,0,1-.32.81,1.44,1.44,0,0,1-1.73,0Z" fill="#003a50"/><path d="M485.49,291.86a5,5,0,0,1,3.34,1.06,3.67,3.67,0,0,1,1.25,3,3.73,3.73,0,0,1-1.29,3,5.45,5.45,0,0,1-3.55,1.07,5.77,5.77,0,0,1-3.56-1,3.15,3.15,0,0,1-1.29-2.68h2.11a1.51,1.51,0,0,0,.7,1.33,3.53,3.53,0,0,0,2,.49,3.15,3.15,0,0,0,2-.57,2.06,2.06,0,0,0,.7-1.69,2,2,0,0,0-.73-1.7,3.25,3.25,0,0,0-2.07-.58,3.61,3.61,0,0,0-1.92.41,1.84,1.84,0,0,0-.7.64l-.05.13h-2.11v-6.88h8.88v1.84H482.5v3h.05a2.22,2.22,0,0,1,.4-.31,3.94,3.94,0,0,1,.55-.26A5.6,5.6,0,0,1,485.49,291.86Z" fill="#003a50"/><path d="M192.87,256.3h-9.94v-1.56a2.8,2.8,0,0,1,.59-1.75A3.87,3.87,0,0,1,185,251.8c.5-.26,1.12-.55,1.87-.87s1.32-.55,1.88-.77a4.22,4.22,0,0,0,1.44-.91,1.82,1.82,0,0,0,.57-1.31c0-1.25-.88-1.88-2.66-1.88s-2.68.72-2.68,2.16v.4h-2.11v-.4a3.63,3.63,0,0,1,1.27-3,5.4,5.4,0,0,1,3.51-1,5.7,5.7,0,0,1,3.51,1,3.29,3.29,0,0,1,1.27,2.75,3.17,3.17,0,0,1-.55,1.84,4.39,4.39,0,0,1-1.41,1.3A16.56,16.56,0,0,1,189,252q-.94.42-1.83.75a5.26,5.26,0,0,0-1.4.75,1.22,1.22,0,0,0-.57,1h7.63Z" fill="#003a50"/><path d="M195,256.16a1,1,0,0,1-.33-.8,1,1,0,0,1,.33-.81,1.4,1.4,0,0,1,1.73,0,1,1,0,0,1,.33.81,1,1,0,0,1-.33.8,1.4,1.4,0,0,1-1.73,0Z" fill="#003a50"/><path d="M208.75,256.3h-9.94v-1.56a2.85,2.85,0,0,1,.58-1.75,4,4,0,0,1,1.45-1.19c.5-.26,1.12-.55,1.87-.87s1.32-.55,1.87-.77a4.26,4.26,0,0,0,1.45-.91,1.82,1.82,0,0,0,.57-1.31c0-1.25-.89-1.88-2.66-1.88s-2.68.72-2.68,2.16v.4h-2.11v-.4a3.6,3.6,0,0,1,1.27-3,5.4,5.4,0,0,1,3.51-1,5.72,5.72,0,0,1,3.51,1,3.29,3.29,0,0,1,1.27,2.75,3.17,3.17,0,0,1-.55,1.84,4.39,4.39,0,0,1-1.41,1.3,17.49,17.49,0,0,1-1.83.93q-.94.42-1.83.75a5.26,5.26,0,0,0-1.4.75,1.22,1.22,0,0,0-.57,1h7.63Z" fill="#003a50"/><path d="M150.3,289.79h-5.82V288h8.86v1.84l-4.53,2.65v.07h1.28a3.86,3.86,0,0,1,2.79,1,3.52,3.52,0,0,1,1.06,2.66,3.35,3.35,0,0,1-1.33,2.83,7,7,0,0,1-7.24,0,3.36,3.36,0,0,1-1.33-2.86v-.32h2.11v.32c0,1.36.94,2,2.84,2s2.84-.67,2.84-2-1-2-2.84-2h-3.27v-1.67l4.58-2.68Z" fill="#003a50"/><path d="M156,299.72a1,1,0,0,1-.33-.8,1,1,0,0,1,.33-.81,1.4,1.4,0,0,1,1.73,0,1,1,0,0,1,.33.81,1,1,0,0,1-.33.8,1.4,1.4,0,0,1-1.73,0Z" fill="#003a50"/><path d="M168.37,299.85h-2.11v-2.64h-7v-1.85l6.3-7.41h2.79v7.41H170v1.85h-1.59Zm-2.11-4.49V290h-.07l-4.47,5.27v.05Z" fill="#003a50"/><path d="M105.8,250.35l-2.48,2v-2.24l2.73-2.27h1.86V259.7H105.8Z" fill="#003a50"/><path d="M110.44,259.57a1.15,1.15,0,0,1,0-1.61,1.23,1.23,0,0,1,.87-.3,1.2,1.2,0,0,1,.86.3,1.15,1.15,0,0,1,0,1.61,1.2,1.2,0,0,1-.86.3A1.23,1.23,0,0,1,110.44,259.57Z" fill="#003a50"/><path d="M119.72,251.72a5,5,0,0,1,3.34,1.06,3.68,3.68,0,0,1,1.26,3,3.73,3.73,0,0,1-1.3,3,5.39,5.39,0,0,1-3.55,1.08,5.79,5.79,0,0,1-3.56-1,3.15,3.15,0,0,1-1.29-2.68h2.11a1.52,1.52,0,0,0,.71,1.33,3.48,3.48,0,0,0,2,.49,3.13,3.13,0,0,0,2-.57,2.34,2.34,0,0,0,0-3.39,3.25,3.25,0,0,0-2.07-.58,3.7,3.7,0,0,0-1.92.41,2.12,2.12,0,0,0-.7.64l0,.13h-2.11v-6.88h8.88v1.84h-6.77v3h0a2.78,2.78,0,0,1,.4-.31,3.94,3.94,0,0,1,.55-.26A5.63,5.63,0,0,1,119.72,251.72Z" fill="#003a50"/><path d="M184.74,146.7h-2.11v-2.65h-7v-1.84l6.3-7.42h2.79v7.42h1.59v1.84h-1.59Zm-2.11-4.49v-5.33h-.07l-4.47,5.28v.05Z" fill="#003a50"/><path d="M188,146.57a1,1,0,0,1-.33-.81A1,1,0,0,1,188,145a1.44,1.44,0,0,1,1.73,0,1,1,0,0,1,.33.81,1,1,0,0,1-.33.81,1.44,1.44,0,0,1-1.73,0Z" fill="#003a50"/><path d="M197.3,138.72a5,5,0,0,1,3.34,1.06,4.16,4.16,0,0,1,0,6,5.39,5.39,0,0,1-3.55,1.08,5.79,5.79,0,0,1-3.56-1,3.15,3.15,0,0,1-1.29-2.68h2.11a1.55,1.55,0,0,0,.7,1.33,3.53,3.53,0,0,0,2,.49,3.13,3.13,0,0,0,2-.57,2.07,2.07,0,0,0,.71-1.69,2,2,0,0,0-.74-1.7,3.25,3.25,0,0,0-2.07-.58,3.61,3.61,0,0,0-1.92.41,1.93,1.93,0,0,0-.7.64l-.05.13H192.2v-6.88h8.88v1.84h-6.77v3h.05a2.22,2.22,0,0,1,.4-.31,3.94,3.94,0,0,1,.55-.26A5.6,5.6,0,0,1,197.3,138.72Z" fill="#003a50"/><path d="M456.68,137.35l-2.48,2v-2.24l2.73-2.27h1.86V146.7h-2.11Z" fill="#003a50"/><path d="M466.69,138.72a5,5,0,0,1,3.34,1.06,4.17,4.17,0,0,1,0,6,5.38,5.38,0,0,1-3.54,1.08,5.75,5.75,0,0,1-3.56-1,3.15,3.15,0,0,1-1.29-2.68h2.11a1.53,1.53,0,0,0,.7,1.33,3.53,3.53,0,0,0,2,.49,3.17,3.17,0,0,0,2-.57,2.06,2.06,0,0,0,.7-1.69,2,2,0,0,0-.74-1.7,3.25,3.25,0,0,0-2.07-.58,3.61,3.61,0,0,0-1.92.41,1.87,1.87,0,0,0-.69.64l-.05.13h-2.11v-6.88h8.87v1.84H463.7v3h.05a1.68,1.68,0,0,1,.4-.31,3.36,3.36,0,0,1,.54-.26A5.66,5.66,0,0,1,466.69,138.72Z" fill="#003a50"/><path d="M473.39,146.57a1,1,0,0,1-.33-.81,1,1,0,0,1,.33-.81,1.22,1.22,0,0,1,.87-.29,1.2,1.2,0,0,1,.86.29,1,1,0,0,1,.33.81,1,1,0,0,1-.33.81,1.24,1.24,0,0,1-.86.29A1.27,1.27,0,0,1,473.39,146.57Z" fill="#003a50"/><path d="M487,138.14H484.8s0-.06,0-.17a2.36,2.36,0,0,0-.21-.44,2.69,2.69,0,0,0-.39-.5,2,2,0,0,0-.71-.41,3,3,0,0,0-1-.16,2.49,2.49,0,0,0-2.15,1,4.39,4.39,0,0,0-.76,2.68h.05a1.8,1.8,0,0,1,.44-.43,3.55,3.55,0,0,1,.61-.37,4.87,4.87,0,0,1,.95-.3,5.49,5.49,0,0,1,1.22-.13,5.05,5.05,0,0,1,3.37,1.11,3.51,3.51,0,0,1,1.3,2.8,3.57,3.57,0,0,1-1.36,2.91,5.49,5.49,0,0,1-3.6,1.1,4.81,4.81,0,0,1-3.87-1.54,6.36,6.36,0,0,1-1.32-4.27v-.41a6.85,6.85,0,0,1,1.32-4.31,4.52,4.52,0,0,1,3.8-1.71,5.66,5.66,0,0,1,2.13.38,3.68,3.68,0,0,1,1.43.94A3.42,3.42,0,0,1,487,138.14Zm-2.51,3.15a3.65,3.65,0,0,0-3.95,0,1.88,1.88,0,0,0-.78,1.58,1.85,1.85,0,0,0,.77,1.57,3.21,3.21,0,0,0,2,.59,3.26,3.26,0,0,0,2-.59,2,2,0,0,0,0-3.15Z" fill="#003a50"/></g></svg>