<svg id="Слой_1" data-name="Слой 1" xmlns="http://www.w3.org/2000/svg" xmlns:xlink="http://www.w3.org/1999/xlink" viewBox="0 0 583.94 844.72"><defs><clipPath id="clip-path"><polygon points="0.17 0 0.17 377.43 51.02 377.43 51.02 444.16 157.55 444.16 157.55 829.42 167.95 829.42 167.95 844.72 581.56 844.72 581.56 50.6 553.89 50.6 553.89 0 0.17 0" fill="none"/></clipPath></defs><polygon points="51.02 443.5 51.02 444.16 157.55 444.16 157.55 799.44 164.17 437.44 51.02 443.5" fill="#fff"/><polygon points="53.21 6.64 53.21 292.41 66.93 325.78 66.93 375.28 66.93 442.87 159.92 441.28 159.92 826.64 564.67 826.64 564.67 429.7 564.41 429.7 564.41 76.27 550.67 76.27 550.67 7.39 74.37 7.39 74.37 6.64 53.21 6.64" fill="#fff"/><polygon points="63.55 0 63.09 5.59 550.67 6.64 550.67 0 63.55 0" fill="#fff"/><g clip-path="url(#clip-path)"><rect x="-585.34" y="-1398.01" width="1162.95" height="2240.57" fill="none" stroke="#003a50" stroke-miterlimit="10"/><polygon points="-572.76 -293.84 -572.76 829.71 564.63 829.71 564.63 -1385.06 -572.76 -1385.22 -572.76 -364.55 -572.76 -293.84" fill="none" stroke="#003a50" stroke-miterlimit="10"/></g><rect x="540.31" y="629.66" width="4.56" height="136.26" fill="#fff"/><rect x="540.31" y="629.66" width="4.56" height="136.26" fill="none" stroke="#003a50" stroke-miterlimit="10"/><line x1="542.59" y1="765.91" x2="542.59" y2="629.66" fill="none" stroke="#003a50" stroke-miterlimit="10"/><rect x="540.31" y="730.57" width="4.56" height="4.38" fill="#fff"/><rect x="540.31" y="730.57" width="4.56" height="4.38" fill="none" stroke="#003a50" stroke-miterlimit="10"/><rect x="540.31" y="699.59" width="4.56" height="4.38" fill="#fff"/><rect x="540.31" y="699.6" width="4.56" height="4.38" fill="none" stroke="#003a50" stroke-miterlimit="10"/><rect x="540.31" y="761.53" width="4.56" height="4.38" fill="#fff"/><rect x="540.31" y="761.54" width="4.56" height="4.38" fill="none" stroke="#003a50" stroke-miterlimit="10"/><rect x="540.31" y="629.65" width="4.56" height="4.38" fill="#fff"/><rect x="540.31" y="629.66" width="4.56" height="4.38" fill="none" stroke="#003a50" stroke-miterlimit="10"/><rect x="540.31" y="668.63" width="4.56" height="4.38" fill="#fff"/><rect x="540.31" y="668.63" width="4.56" height="4.38" fill="none" stroke="#003a50" stroke-miterlimit="10"/><g clip-path="url(#clip-path)"><path d="M540.31,668.63h-2.9c-20.15,0-33.1-15.49-33.1-34.6h36" fill="none" stroke="#003a50" stroke-miterlimit="10"/><path d="M52.89,804.16v-2.9c0-20.15-16.12-33.1-36-33.1v36" fill="none" stroke="#003a50" stroke-miterlimit="10"/></g><rect x="195.16" y="804.16" width="87.96" height="4.56" fill="#fff"/><rect x="195.16" y="804.16" width="87.96" height="4.56" fill="none" stroke="#003a50" stroke-miterlimit="10"/><line x1="195.16" y1="806.44" x2="283.13" y2="806.44" fill="none" stroke="#003a50" stroke-miterlimit="10"/><rect x="195.16" y="804.16" width="4.56" height="4.56" fill="#fff"/><rect x="195.16" y="804.16" width="4.56" height="4.56" fill="none" stroke="#003a50" stroke-miterlimit="10"/><rect x="278.56" y="804.16" width="4.56" height="4.56" fill="#fff"/><rect x="278.56" y="804.16" width="4.56" height="4.56" fill="none" stroke="#003a50" stroke-miterlimit="10"/><rect x="237.94" y="804.16" width="4.56" height="4.56" fill="#fff"/><rect x="237.94" y="804.16" width="4.56" height="4.56" fill="none" stroke="#003a50" stroke-miterlimit="10"/><g clip-path="url(#clip-path)"><path d="M242.5,804.16v-2.9c0-20.15,16.15-33.1,36.07-33.1v36" fill="none" stroke="#003a50" stroke-miterlimit="10"/></g><rect x="378.88" y="804.16" width="83.35" height="4.56" fill="#fff"/><rect x="378.88" y="804.16" width="83.35" height="4.56" fill="none" stroke="#003a50" stroke-miterlimit="10"/><line x1="378.88" y1="806.44" x2="462.22" y2="806.44" fill="none" stroke="#003a50" stroke-miterlimit="10"/><rect x="378.88" y="804.16" width="4.32" height="4.56" fill="#fff"/><rect x="378.88" y="804.16" width="4.32" height="4.56" fill="none" stroke="#003a50" stroke-miterlimit="10"/><rect x="457.9" y="804.16" width="4.32" height="4.56" fill="#fff"/><rect x="457.9" y="804.16" width="4.32" height="4.56" fill="none" stroke="#003a50" stroke-miterlimit="10"/><rect x="419.41" y="804.16" width="4.32" height="4.56" fill="#fff"/><rect x="419.41" y="804.16" width="4.32" height="4.56" fill="none" stroke="#003a50" stroke-miterlimit="10"/><g clip-path="url(#clip-path)"><path d="M423.73,804.16v-2.9c0-20.15,15.3-33.1,34.17-33.1v36" fill="none" stroke="#003a50" stroke-miterlimit="10"/></g><rect x="540.31" y="76.13" width="4.56" height="88.73" fill="#fff"/><rect x="540.31" y="76.13" width="4.56" height="88.73" fill="none" stroke="#003a50" stroke-miterlimit="10"/><line x1="542.59" y1="76.13" x2="542.59" y2="164.86" fill="none" stroke="#003a50" stroke-miterlimit="10"/><rect x="540.31" y="76.13" width="4.56" height="4.48" fill="#fff"/><rect x="540.31" y="76.13" width="4.56" height="4.48" fill="none" stroke="#003a50" stroke-miterlimit="10"/><rect x="540.31" y="160.38" width="4.56" height="4.48" fill="#fff"/><rect x="540.31" y="160.38" width="4.56" height="4.48" fill="none" stroke="#003a50" stroke-miterlimit="10"/><rect x="540.31" y="120.47" width="4.56" height="4.48" fill="#fff"/><rect x="540.31" y="120.47" width="4.56" height="4.48" fill="none" stroke="#003a50" stroke-miterlimit="10"/><g clip-path="url(#clip-path)"><path d="M540.31,125h-2.9c-20.15,0-33.1,15.86-33.1,35.42h36" fill="none" stroke="#003a50" stroke-miterlimit="10"/></g><rect x="540.31" y="260.79" width="4.56" height="87.32" fill="#fff"/><rect x="540.31" y="260.8" width="4.56" height="87.32" fill="none" stroke="#003a50" stroke-miterlimit="10"/><line x1="542.59" y1="348.11" x2="542.59" y2="260.8" fill="none" stroke="#003a50" stroke-miterlimit="10"/><rect x="540.31" y="343.46" width="4.56" height="4.65" fill="#fff"/><rect x="540.31" y="343.46" width="4.56" height="4.65" fill="none" stroke="#003a50" stroke-miterlimit="10"/><rect x="540.31" y="260.79" width="4.56" height="4.66" fill="#fff"/><rect x="540.31" y="260.8" width="4.56" height="4.66" fill="none" stroke="#003a50" stroke-miterlimit="10"/><rect x="540.31" y="302.25" width="4.56" height="4.65" fill="#fff"/><rect x="540.31" y="302.25" width="4.56" height="4.65" fill="none" stroke="#003a50" stroke-miterlimit="10"/><g clip-path="url(#clip-path)"><path d="M540.31,302.25h-2.9c-20.15,0-33.1-16.47-33.1-36.8h36" fill="none" stroke="#003a50" stroke-miterlimit="10"/></g><rect x="540.31" y="442.65" width="4.56" height="90.84" fill="#fff"/><rect x="540.31" y="442.65" width="4.56" height="90.84" fill="none" stroke="#003a50" stroke-miterlimit="10"/><line x1="542.59" y1="442.65" x2="542.59" y2="533.49" fill="none" stroke="#003a50" stroke-miterlimit="10"/><rect x="540.31" y="442.65" width="4.56" height="4.71" fill="#fff"/><rect x="540.31" y="442.65" width="4.56" height="4.71" fill="none" stroke="#003a50" stroke-miterlimit="10"/><rect x="540.31" y="528.78" width="4.56" height="4.71" fill="#fff"/><rect x="540.31" y="528.78" width="4.56" height="4.71" fill="none" stroke="#003a50" stroke-miterlimit="10"/><rect x="540.31" y="486.82" width="4.56" height="4.71" fill="#fff"/><rect x="540.31" y="486.82" width="4.56" height="4.71" fill="none" stroke="#003a50" stroke-miterlimit="10"/><g clip-path="url(#clip-path)"><path d="M540.31,491.53h-2.9c-20.15,0-33.1,16.68-33.1,37.25h36" fill="none" stroke="#003a50" stroke-miterlimit="10"/></g><rect x="102.06" y="170.7" width="98.36" height="45.27" fill="none" stroke="#003a50" stroke-miterlimit="10"/><g clip-path="url(#clip-path)"><rect x="106.11" y="176.44" width="89.98" height="34.21" rx="13.7" fill="none" stroke="#003a50" stroke-miterlimit="10"/><path d="M121.68,191.1a2.36,2.36,0,1,0,2.35,2.36A2.36,2.36,0,0,0,121.68,191.1Z" fill="none" stroke="#003a50" stroke-miterlimit="10"/><path d="M201.6,265.75H173v23.08H201.6a11.54,11.54,0,0,0,0-23.08Z" fill="none" stroke="#003a50" stroke-miterlimit="10"/></g><rect x="173.03" y="265.75" width="11.08" height="23.08" fill="none" stroke="#003a50" stroke-miterlimit="10"/><rect x="227.78" y="433.51" width="33.97" height="34.02" fill="none" stroke="#003a50" stroke-miterlimit="10"/><g clip-path="url(#clip-path)"><path d="M249.09,449.73V438.68h-8.6v11.05a3.55,3.55,0,0,0,3.54,3.54h1.52A3.55,3.55,0,0,0,249.09,449.73Z" fill="none" stroke="#003a50" stroke-miterlimit="10"/></g><polyline points="241.31 463.83 244.79 463.83 248.26 463.83" fill="none" stroke="#003a50" stroke-miterlimit="10"/><line x1="244.79" y1="453.27" x2="244.79" y2="463.83" fill="none" stroke="#003a50" stroke-miterlimit="10"/><g clip-path="url(#clip-path)"><rect x="123.34" y="476.75" width="34.02" height="33.97" fill="none" stroke="#003a50" stroke-miterlimit="10"/><path d="M144.65,492.22v-11h-8.6v11a3.55,3.55,0,0,0,3.54,3.55h1.52A3.55,3.55,0,0,0,144.65,492.22Z" fill="none" stroke="#003a50" stroke-miterlimit="10"/></g><rect x="234.7" y="547.12" width="34.02" height="34.02" fill="none" stroke="#003a50" stroke-miterlimit="10"/><g clip-path="url(#clip-path)"><path d="M264.12,571.73a4.64,4.64,0,1,1-4.64-4.63A4.64,4.64,0,0,1,264.12,571.73Z" fill="none" stroke="#003a50" stroke-miterlimit="10"/><path d="M248.63,571.73A4.64,4.64,0,1,1,244,567.1,4.63,4.63,0,0,1,248.63,571.73Z" fill="none" stroke="#003a50" stroke-miterlimit="10"/><path d="M264.12,556.64a4.64,4.64,0,1,1-4.64-4.63A4.64,4.64,0,0,1,264.12,556.64Z" fill="none" stroke="#003a50" stroke-miterlimit="10"/><path d="M248.63,556.64A4.64,4.64,0,1,1,244,552,4.63,4.63,0,0,1,248.63,556.64Z" fill="none" stroke="#003a50" stroke-miterlimit="10"/><rect x="269.32" y="-33.84" width="34.02" height="34.02" fill="none" stroke="#003a50" stroke-miterlimit="10"/><rect x="123.43" y="517.86" width="34.02" height="34.02" fill="none" stroke="#003a50" stroke-miterlimit="10"/><path d="M132.83,547.28a4.64,4.64,0,1,1,4.64-4.64A4.63,4.63,0,0,1,132.83,547.28Z" fill="none" stroke="#003a50" stroke-miterlimit="10"/><path d="M132.83,531.79a4.64,4.64,0,1,1,4.64-4.63A4.63,4.63,0,0,1,132.83,531.79Z" fill="none" stroke="#003a50" stroke-miterlimit="10"/><path d="M147.92,547.28a4.64,4.64,0,1,1,4.64-4.64A4.63,4.63,0,0,1,147.92,547.28Z" fill="none" stroke="#003a50" stroke-miterlimit="10"/><path d="M147.92,531.79a4.64,4.64,0,1,1,4.64-4.63A4.63,4.63,0,0,1,147.92,531.79Z" fill="none" stroke="#003a50" stroke-miterlimit="10"/></g><rect x="380.14" y="228.61" width="102.05" height="17.01" fill="none" stroke="#003a50" stroke-miterlimit="10"/><polygon points="474.16 237.66 431.27 234.13 388.16 237.66 388.16 240.11 474.16 240.11 474.16 237.66" fill="none" stroke="#003a50" stroke-miterlimit="10"/><rect x="354.37" y="198.39" width="175.03" height="17.01" fill="none" stroke="#003a50" stroke-miterlimit="10"/><polygon points="484.88 206.35 441.99 209.88 398.88 206.35 398.88 203.9 484.88 203.9 484.88 206.35" fill="none" stroke="#003a50" stroke-miterlimit="10"/><g clip-path="url(#clip-path)"><rect x="123.43" y="476.85" width="33.59" height="122.25" fill="none" stroke="#003a50" stroke-miterlimit="10"/><rect x="76.37" y="444.12" width="80.66" height="32.72" fill="none" stroke="#003a50" stroke-miterlimit="10"/><rect x="213.14" y="-33.97" width="152.36" height="34.28" fill="none" stroke="#003a50" stroke-miterlimit="10"/></g><rect x="353.68" y="675.4" width="52.33" height="113.67" fill="none" stroke="#003a50" stroke-miterlimit="10"/><g clip-path="url(#clip-path)"><path d="M397.07,685.1H363a2.1,2.1,0,0,0-2.1,2.1v67.63h38.25V687.2A2.1,2.1,0,0,0,397.07,685.1Z" fill="none" stroke="#003a50" stroke-miterlimit="10"/></g><rect x="360.92" y="740.97" width="38.26" height="13.85" fill="none" stroke="#003a50" stroke-miterlimit="10"/><g clip-path="url(#clip-path)"><path d="M397.37,781.32h-34.3a2.2,2.2,0,0,1-2.2-2.21V760.64a2.2,2.2,0,0,1,2.2-2.2h34.3a2.21,2.21,0,0,1,2.21,2.2v18.47A2.21,2.21,0,0,1,397.37,781.32Z" fill="none" stroke="#003a50" stroke-miterlimit="10"/></g><rect x="247.32" y="228.11" width="42.22" height="88.73" fill="none" stroke="#003a50" stroke-miterlimit="10"/><g clip-path="url(#clip-path)"><path d="M270.89,249.28a2.46,2.46,0,1,1-2.46-2.61A2.54,2.54,0,0,1,270.89,249.28Z" fill="none" stroke="#003a50" stroke-miterlimit="10"/></g><rect x="66.44" y="58.56" width="25.39" height="71.99" fill="none" stroke="#003a50" stroke-miterlimit="10"/><g clip-path="url(#clip-path)"><rect x="64.73" y="101.82" width="25.04" height="24.4" rx="2.83" fill="none" stroke="#003a50" stroke-miterlimit="10"/><path d="M79.16,114a1.91,1.91,0,1,1-1.91-1.91A1.91,1.91,0,0,1,79.16,114Z" fill="none" stroke="#003a50" stroke-miterlimit="10"/><rect x="64.73" y="66.05" width="25.04" height="24.4" rx="2.83" fill="none" stroke="#003a50" stroke-miterlimit="10"/><path d="M79.16,78.26a1.91,1.91,0,1,1-1.91-1.92A1.91,1.91,0,0,1,79.16,78.26Z" fill="none" stroke="#003a50" stroke-miterlimit="10"/><rect x="88" y="453.48" width="30.06" height="21.67" rx="3.24" fill="none" stroke="#003a50" stroke-miterlimit="10"/><path d="M103,463a2.43,2.43,0,1,0-2.42-2.42A2.42,2.42,0,0,0,103,463Z" fill="none" stroke="#003a50" stroke-miterlimit="10"/></g><polygon points="205.98 546.99 205.98 467.66 261.76 467.66 261.76 433.38 168.82 433.38 168.82 467.66 171.7 467.66 171.7 546.99 168.82 546.99 168.82 581.26 295.92 581.26 295.92 546.99 205.98 546.99" fill="none" stroke="#003a50" stroke-miterlimit="10"/><polyline points="174.49 491.92 174.49 498.72 174.49 505.5" fill="none" stroke="#003a50" stroke-miterlimit="10"/><line x1="188.11" y1="498.74" x2="174.49" y2="498.74" fill="none" stroke="#003a50" stroke-miterlimit="10"/><g clip-path="url(#clip-path)"><path d="M198.75,483.66h-15.2a3.23,3.23,0,0,0-3.23,3.24v23.59a3.23,3.23,0,0,0,3.23,3.24h15.2a3.23,3.23,0,0,0,3.23-3.24V486.9A3.23,3.23,0,0,0,198.75,483.66Z" fill="none" stroke="#003a50" stroke-miterlimit="10"/><path d="M189.8,498.74a2.43,2.43,0,1,0-2.42,2.42A2.42,2.42,0,0,0,189.8,498.74Z" fill="none" stroke="#003a50" stroke-miterlimit="10"/><path d="M172,44.88V16.31H148.93V44.88a11.54,11.54,0,0,0,23.08,0Z" fill="none" stroke="#003a50" stroke-miterlimit="10"/></g><rect x="148.94" y="16.32" width="23.08" height="11.08" fill="none" stroke="#003a50" stroke-miterlimit="10"/><rect x="64.73" y="16.33" width="67.72" height="42.22" fill="none" stroke="#003a50" stroke-miterlimit="10"/><g clip-path="url(#clip-path)"><path d="M84.68,35a2.46,2.46,0,1,1-2.46,2.46A2.46,2.46,0,0,1,84.68,35Z" fill="none" stroke="#003a50" stroke-miterlimit="10"/><rect x="66.93" y="-33.84" width="105.88" height="33.88" fill="none" stroke="#003a50" stroke-miterlimit="10"/><path d="M28,647.3a1.25,1.25,0,0,1,.94,1.51A13.79,13.79,0,0,0,55.78,655a1.26,1.26,0,1,1,2.45.56,16.3,16.3,0,1,1-31.78-7.29A1.26,1.26,0,0,1,28,647.3Z" fill="none" stroke="#003a50" stroke-miterlimit="10"/><path d="M83.13,657a1.25,1.25,0,0,1,1.75-.33A13.79,13.79,0,0,0,100.4,633.9a1.26,1.26,0,1,1,1.42-2.08,16.3,16.3,0,0,1-18.36,26.95A1.27,1.27,0,0,1,83.13,657Z" fill="none" stroke="#003a50" stroke-miterlimit="10"/><path d="M85.63,609.61a1.27,1.27,0,0,1-1.33-1.18,13.78,13.78,0,1,0-27.52,1.63,1.25,1.25,0,0,1-1.18,1.33,1.26,1.26,0,0,1-1.33-1.18,16.3,16.3,0,1,1,32.54-1.93A1.24,1.24,0,0,1,85.63,609.61Z" fill="none" stroke="#003a50" stroke-miterlimit="10"/><path d="M42.16,663.91a12.69,12.69,0,0,1-12-15.48l2-8.88a3.53,3.53,0,0,1,4.24-2.68L49.88,640a23.73,23.73,0,0,0,6,9.44l-1,4.2C53.56,659.55,48.28,664.11,42.16,663.91Z" fill="none" stroke="#003a50" stroke-miterlimit="10"/><path d="M85,655.39l-2.32-1.6a23.81,23.81,0,0,0,13.64-21.32l2.52,1.72c5,3.44,7.4,10,5,15.64A12.7,12.7,0,0,1,85,655.39Z" fill="none" stroke="#003a50" stroke-miterlimit="10"/><path d="M58.12,613.11l-.12-2c-.36-6.12,3.4-12,9.32-13.48A12.66,12.66,0,0,1,83.2,609.15l.12,1.84a23.93,23.93,0,0,0-16.64-1.92A23.5,23.5,0,0,0,58.12,613.11Z" fill="none" stroke="#003a50" stroke-miterlimit="10"/><path d="M55.88,649.39a23.73,23.73,0,0,1-6-9.44,16.51,16.51,0,0,1-.6-2,23.85,23.85,0,0,1,8.84-24.84,23.5,23.5,0,0,1,8.56-4,23.87,23.87,0,0,1,28.92,17.4,22.12,22.12,0,0,1,.68,6,23.81,23.81,0,0,1-13.64,21.32,22.85,22.85,0,0,1-4.48,1.6A23.8,23.8,0,0,1,55.88,649.39Z" fill="none" stroke="#003a50" stroke-miterlimit="10"/><path d="M210,422.55a1,1,0,0,1-.53.89,1,1,0,0,1-1.27-.45,29.15,29.15,0,0,1,0-24.76.93.93,0,0,1,1.27-.45,1,1,0,0,1,.43,1.31,27.08,27.08,0,0,0,0,23A1,1,0,0,1,210,422.55Z" fill="none" stroke="#003a50" stroke-miterlimit="10"/><path d="M204.7,422.55a1,1,0,0,1-.53.89.94.94,0,0,1-1.27-.45,29.05,29.05,0,0,1,0-24.76.92.92,0,0,1,1.26-.45,1,1,0,0,1,.44,1.31,27.08,27.08,0,0,0,0,23A1.12,1.12,0,0,1,204.7,422.55Z" fill="none" stroke="#003a50" stroke-miterlimit="10"/><path d="M199.43,422.55a1,1,0,0,1-.53.89,1,1,0,0,1-1.27-.45,29.15,29.15,0,0,1,0-24.76.93.93,0,0,1,1.27-.45,1,1,0,0,1,.43,1.31,27.08,27.08,0,0,0,0,23A1,1,0,0,1,199.43,422.55Z" fill="none" stroke="#003a50" stroke-miterlimit="10"/><path d="M194.17,422.55a1,1,0,0,1-.53.89.94.94,0,0,1-1.27-.45,29.05,29.05,0,0,1,0-24.76.92.92,0,0,1,1.26-.45,1,1,0,0,1,.44,1.31,27.08,27.08,0,0,0,0,23A1.12,1.12,0,0,1,194.17,422.55Z" fill="none" stroke="#003a50" stroke-miterlimit="10"/><path d="M188.9,422.55a1,1,0,0,1-.53.89,1,1,0,0,1-1.27-.45,29.15,29.15,0,0,1,0-24.76.93.93,0,0,1,1.27-.45,1,1,0,0,1,.43,1.31,27.08,27.08,0,0,0,0,23A1,1,0,0,1,188.9,422.55Z" fill="none" stroke="#003a50" stroke-miterlimit="10"/><path d="M183.64,422.55a1,1,0,0,1-.53.89.94.94,0,0,1-1.27-.45,29.05,29.05,0,0,1,0-24.76.92.92,0,0,1,1.26-.45,1,1,0,0,1,.44,1.31,27.08,27.08,0,0,0,0,23A1.12,1.12,0,0,1,183.64,422.55Z" fill="none" stroke="#003a50" stroke-miterlimit="10"/><path d="M215.23,422.55a1,1,0,0,1-.53.89,1,1,0,0,1-1.27-.45,29.05,29.05,0,0,1,0-24.76.93.93,0,0,1,1.27-.45,1,1,0,0,1,.43,1.31,27.08,27.08,0,0,0,0,23A1,1,0,0,1,215.23,422.55Z" fill="none" stroke="#003a50" stroke-miterlimit="10"/><path d="M220.49,422.55a1,1,0,0,1-.53.89,1,1,0,0,1-1.27-.45,29.15,29.15,0,0,1,0-24.76.93.93,0,0,1,1.27-.45,1,1,0,0,1,.43,1.31,27.08,27.08,0,0,0,0,23A1,1,0,0,1,220.49,422.55Z" fill="none" stroke="#003a50" stroke-miterlimit="10"/></g><line x1="290.54" y1="410.61" x2="172.52" y2="410.61" fill="none" stroke="#003a50" stroke-miterlimit="10"/><rect x="172.52" y="393.66" width="118.02" height="33.34" fill="none" stroke="#003a50" stroke-miterlimit="10"/><g clip-path="url(#clip-path)"><path d="M210,615.8a1,1,0,0,1-.53.88.93.93,0,0,1-1.27-.45,29.15,29.15,0,0,1,0-24.76.93.93,0,0,1,1.27-.45,1,1,0,0,1,.43,1.32,27.06,27.06,0,0,0,0,23A1,1,0,0,1,210,615.8Z" fill="none" stroke="#003a50" stroke-miterlimit="10"/><path d="M204.7,615.8a1,1,0,0,1-.53.88.93.93,0,0,1-1.27-.45,29.05,29.05,0,0,1,0-24.76.92.92,0,0,1,1.26-.45,1,1,0,0,1,.44,1.32,27.06,27.06,0,0,0,0,23A1.13,1.13,0,0,1,204.7,615.8Z" fill="none" stroke="#003a50" stroke-miterlimit="10"/><path d="M199.43,615.8a1,1,0,0,1-.53.88.93.93,0,0,1-1.27-.45,29.15,29.15,0,0,1,0-24.76.93.93,0,0,1,1.27-.45,1,1,0,0,1,.43,1.32,27.06,27.06,0,0,0,0,23A1,1,0,0,1,199.43,615.8Z" fill="none" stroke="#003a50" stroke-miterlimit="10"/><path d="M194.17,615.8a1,1,0,0,1-.53.88.93.93,0,0,1-1.27-.45,29.05,29.05,0,0,1,0-24.76.92.92,0,0,1,1.26-.45,1,1,0,0,1,.44,1.32,27.06,27.06,0,0,0,0,23A1.13,1.13,0,0,1,194.17,615.8Z" fill="none" stroke="#003a50" stroke-miterlimit="10"/><path d="M188.9,615.8a1,1,0,0,1-.53.88.93.93,0,0,1-1.27-.45,29.15,29.15,0,0,1,0-24.76.93.93,0,0,1,1.27-.45,1,1,0,0,1,.43,1.32,27.06,27.06,0,0,0,0,23A1,1,0,0,1,188.9,615.8Z" fill="none" stroke="#003a50" stroke-miterlimit="10"/><path d="M183.64,615.8a1,1,0,0,1-.53.88.93.93,0,0,1-1.27-.45,29.05,29.05,0,0,1,0-24.76.92.92,0,0,1,1.26-.45,1,1,0,0,1,.44,1.32,27.06,27.06,0,0,0,0,23A1.13,1.13,0,0,1,183.64,615.8Z" fill="none" stroke="#003a50" stroke-miterlimit="10"/><path d="M215.23,615.8a1,1,0,0,1-.53.88.93.93,0,0,1-1.27-.45,29.05,29.05,0,0,1,0-24.76.93.93,0,0,1,1.27-.45,1,1,0,0,1,.43,1.32,27.06,27.06,0,0,0,0,23A1,1,0,0,1,215.23,615.8Z" fill="none" stroke="#003a50" stroke-miterlimit="10"/><path d="M220.49,615.8a1,1,0,0,1-.53.88.93.93,0,0,1-1.27-.45,29.15,29.15,0,0,1,0-24.76A.93.93,0,0,1,220,591a1,1,0,0,1,.43,1.32,27.06,27.06,0,0,0,0,23A1,1,0,0,1,220.49,615.8Z" fill="none" stroke="#003a50" stroke-miterlimit="10"/></g><line x1="290.54" y1="603.85" x2="172.52" y2="603.85" fill="none" stroke="#003a50" stroke-miterlimit="10"/><rect x="172.52" y="586.9" width="118.02" height="33.34" fill="none" stroke="#003a50" stroke-miterlimit="10"/><polygon points="247.07 259.43 173.6 259.22 173.6 228.67 247.07 228.88 247.07 259.43" fill="none" stroke="#003a50" stroke-miterlimit="10"/><g clip-path="url(#clip-path)"><path d="M214.43,253.41v-23a3.35,3.35,0,0,1,3.35-3.36H240a3.36,3.36,0,0,1,3.36,3.36v23a3.36,3.36,0,0,1-3.36,3.36H217.78A3.35,3.35,0,0,1,214.43,253.41Z" fill="none" stroke="#003a50" stroke-miterlimit="10"/><path d="M228.91,244.18a2.27,2.27,0,1,1,2.27-2.27A2.27,2.27,0,0,1,228.91,244.18Z" fill="none" stroke="#003a50" stroke-miterlimit="10"/><rect x="123.38" y="565.51" width="33.52" height="33.52" fill="none" stroke="#003a50" stroke-miterlimit="10"/></g><rect x="261.76" y="433.51" width="34.02" height="34.02" fill="none" stroke="#003a50" stroke-miterlimit="10"/><line x1="288.74" y1="450.52" x2="268.78" y2="450.52" fill="none" stroke="#003a50" stroke-miterlimit="10"/><line x1="278.76" y1="440.54" x2="278.76" y2="460.5" fill="none" stroke="#003a50" stroke-miterlimit="10"/><line x1="285.82" y1="443.46" x2="271.71" y2="457.57" fill="none" stroke="#003a50" stroke-miterlimit="10"/><line x1="271.71" y1="443.46" x2="285.82" y2="457.57" fill="none" stroke="#003a50" stroke-miterlimit="10"/><g clip-path="url(#clip-path)"><rect x="179.09" y="-33.98" width="34.02" height="34.02" fill="none" stroke="#003a50" stroke-miterlimit="10"/><rect x="331.21" y="-33.98" width="34.02" height="34.02" fill="none" stroke="#003a50" stroke-miterlimit="10"/><path d="M207.82,107.61a.79.79,0,0,1-.35-1.49,22.5,22.5,0,0,1,19.78,0,.79.79,0,0,1-.7,1.41,20.89,20.89,0,0,0-18.38,0A.85.85,0,0,1,207.82,107.61Z" fill="none" stroke="#003a50" stroke-miterlimit="10"/><path d="M207.82,103.25a.77.77,0,0,1-.7-.44.79.79,0,0,1,.35-1,22.59,22.59,0,0,1,19.78,0,.79.79,0,0,1-.7,1.41,20.89,20.89,0,0,0-18.38,0A.72.72,0,0,1,207.82,103.25Z" fill="none" stroke="#003a50" stroke-miterlimit="10"/><path d="M207.82,98.9a.79.79,0,0,1-.7-.44.8.8,0,0,1,.35-1.06,22.59,22.59,0,0,1,19.78,0,.79.79,0,0,1-.7,1.42,20.89,20.89,0,0,0-18.38,0A.85.85,0,0,1,207.82,98.9Z" fill="none" stroke="#003a50" stroke-miterlimit="10"/><path d="M207.82,94.54a.77.77,0,0,1-.7-.44.79.79,0,0,1,.35-1,22.5,22.5,0,0,1,19.78,0,.79.79,0,0,1-.7,1.41,20.89,20.89,0,0,0-18.38,0A.72.72,0,0,1,207.82,94.54Z" fill="none" stroke="#003a50" stroke-miterlimit="10"/><path d="M207.82,90.18a.77.77,0,0,1-.7-.44.79.79,0,0,1,.35-1,22.59,22.59,0,0,1,19.78,0,.79.79,0,0,1-.7,1.41,21,21,0,0,0-18.38,0A.72.72,0,0,1,207.82,90.18Z" fill="none" stroke="#003a50" stroke-miterlimit="10"/><path d="M207.82,85.83a.79.79,0,0,1-.35-1.49,22.5,22.5,0,0,1,19.78,0,.79.79,0,0,1-.7,1.41,20.89,20.89,0,0,0-18.38,0A.85.85,0,0,1,207.82,85.83Z" fill="none" stroke="#003a50" stroke-miterlimit="10"/><path d="M207.82,112a.77.77,0,0,1-.7-.44.79.79,0,0,1,.35-1,22.59,22.59,0,0,1,19.78,0,.79.79,0,0,1-.7,1.41,21,21,0,0,0-18.38,0A.72.72,0,0,1,207.82,112Z" fill="none" stroke="#003a50" stroke-miterlimit="10"/><path d="M207.82,116.32a.77.77,0,0,1-.7-.44.79.79,0,0,1,.35-1,22.5,22.5,0,0,1,19.78,0,.79.79,0,0,1-.7,1.41,20.89,20.89,0,0,0-18.38,0A.72.72,0,0,1,207.82,116.32Z" fill="none" stroke="#003a50" stroke-miterlimit="10"/></g><line x1="217.36" y1="121.01" x2="217.36" y2="47.45" fill="none" stroke="#003a50" stroke-miterlimit="10"/><rect x="206.27" y="47.46" width="22.4" height="73.89" fill="none" stroke="#003a50" stroke-miterlimit="10"/><g clip-path="url(#clip-path)"><path d="M271.7,107.61a.81.81,0,0,1-.71-.44.78.78,0,0,1,.36-1,22.48,22.48,0,0,1,19.77,0,.78.78,0,0,1-.69,1.41,20.91,20.91,0,0,0-18.39,0A.84.84,0,0,1,271.7,107.61Z" fill="none" stroke="#003a50" stroke-miterlimit="10"/><path d="M271.7,103.25a.79.79,0,0,1-.71-.44.78.78,0,0,1,.36-1,22.57,22.57,0,0,1,19.77,0,.78.78,0,0,1-.69,1.41,20.91,20.91,0,0,0-18.39,0A.71.71,0,0,1,271.7,103.25Z" fill="none" stroke="#003a50" stroke-miterlimit="10"/><path d="M271.7,98.9a.81.81,0,0,1-.71-.44.8.8,0,0,1,.36-1.06,22.57,22.57,0,0,1,19.77,0,.79.79,0,0,1-.69,1.42,20.91,20.91,0,0,0-18.39,0A.84.84,0,0,1,271.7,98.9Z" fill="none" stroke="#003a50" stroke-miterlimit="10"/><path d="M271.7,94.54a.79.79,0,0,1-.71-.44.78.78,0,0,1,.36-1,22.48,22.48,0,0,1,19.77,0,.78.78,0,0,1-.69,1.41,20.91,20.91,0,0,0-18.39,0A.71.71,0,0,1,271.7,94.54Z" fill="none" stroke="#003a50" stroke-miterlimit="10"/><path d="M271.7,90.18a.78.78,0,0,1-.35-1.49,22.57,22.57,0,0,1,19.77,0,.78.78,0,0,1-.69,1.41,21,21,0,0,0-18.39,0A.71.71,0,0,1,271.7,90.18Z" fill="none" stroke="#003a50" stroke-miterlimit="10"/><path d="M271.7,85.83a.81.81,0,0,1-.71-.44.78.78,0,0,1,.36-1,22.48,22.48,0,0,1,19.77,0,.78.78,0,0,1-.69,1.41,20.91,20.91,0,0,0-18.39,0A.84.84,0,0,1,271.7,85.83Z" fill="none" stroke="#003a50" stroke-miterlimit="10"/><path d="M271.7,112a.78.78,0,0,1-.35-1.49,22.57,22.57,0,0,1,19.77,0,.78.78,0,0,1-.69,1.41,21,21,0,0,0-18.39,0A.71.71,0,0,1,271.7,112Z" fill="none" stroke="#003a50" stroke-miterlimit="10"/><path d="M271.7,116.32a.79.79,0,0,1-.71-.44.78.78,0,0,1,.36-1,22.48,22.48,0,0,1,19.77,0,.78.78,0,0,1-.69,1.41,20.91,20.91,0,0,0-18.39,0A.71.71,0,0,1,271.7,116.32Z" fill="none" stroke="#003a50" stroke-miterlimit="10"/></g><line x1="281.24" y1="121.01" x2="281.24" y2="47.45" fill="none" stroke="#003a50" stroke-miterlimit="10"/><rect x="270.14" y="47.46" width="22.4" height="73.89" fill="none" stroke="#003a50" stroke-miterlimit="10"/><rect x="412.36" y="586.57" width="118.13" height="34.02" fill="none" stroke="#003a50" stroke-miterlimit="10"/><g clip-path="url(#clip-path)"><path d="M429.47,615.76a1,1,0,0,0,1.91.44,28.77,28.77,0,0,0,0-25.26,1,1,0,0,0-1.34-.45,1,1,0,0,0-.46,1.34,26.81,26.81,0,0,1,0,23.49A1,1,0,0,0,429.47,615.76Z" fill="none" stroke="#003a50" stroke-miterlimit="10"/><path d="M435,615.76a1,1,0,0,0,1.9.44,28.77,28.77,0,0,0,0-25.26,1,1,0,0,0-1.8.89,26.72,26.72,0,0,1,0,23.49A1,1,0,0,0,435,615.76Z" fill="none" stroke="#003a50" stroke-miterlimit="10"/><path d="M440.61,615.76a1,1,0,0,0,.56.9,1,1,0,0,0,1.34-.46,28.77,28.77,0,0,0,0-25.26,1,1,0,0,0-1.8.89,26.72,26.72,0,0,1,0,23.49A1,1,0,0,0,440.61,615.76Z" fill="none" stroke="#003a50" stroke-miterlimit="10"/><path d="M446.17,615.76a1,1,0,0,0,1.9.44,28.77,28.77,0,0,0,0-25.26,1,1,0,0,0-1.8.89,26.72,26.72,0,0,1,0,23.49A1,1,0,0,0,446.17,615.76Z" fill="none" stroke="#003a50" stroke-miterlimit="10"/><path d="M451.74,615.76a1,1,0,0,0,.56.9,1,1,0,0,0,1.34-.46,28.77,28.77,0,0,0,0-25.26,1,1,0,0,0-1.8.89,26.72,26.72,0,0,1,0,23.49A1,1,0,0,0,451.74,615.76Z" fill="none" stroke="#003a50" stroke-miterlimit="10"/><path d="M457.3,615.76a1,1,0,0,0,1.91.44,28.77,28.77,0,0,0,0-25.26,1,1,0,0,0-1.34-.45,1,1,0,0,0-.46,1.34,26.81,26.81,0,0,1,0,23.49A.87.87,0,0,0,457.3,615.76Z" fill="none" stroke="#003a50" stroke-miterlimit="10"/><path d="M423.91,615.76a1,1,0,0,0,1.9.44,28.77,28.77,0,0,0,0-25.26,1,1,0,0,0-1.8.89,26.72,26.72,0,0,1,0,23.49A1,1,0,0,0,423.91,615.76Z" fill="none" stroke="#003a50" stroke-miterlimit="10"/><path d="M418.34,615.76a1,1,0,0,0,1.91.44,28.77,28.77,0,0,0,0-25.26,1,1,0,0,0-1.34-.45,1,1,0,0,0-.46,1.34,26.81,26.81,0,0,1,0,23.49A1,1,0,0,0,418.34,615.76Z" fill="none" stroke="#003a50" stroke-miterlimit="10"/></g><line x1="412.36" y1="603.57" x2="529.94" y2="603.57" fill="none" stroke="#003a50" stroke-miterlimit="10"/><g clip-path="url(#clip-path)"><path d="M110.68,731.49h41v45.77H108.47V733.7A2.21,2.21,0,0,1,110.68,731.49Z" fill="none" stroke="#003a50" stroke-miterlimit="10"/><path d="M110.45,685.62h41.26v45.77H110.45a2,2,0,0,1-2-2V687.6A2,2,0,0,1,110.45,685.62Z" fill="none" stroke="#003a50" stroke-miterlimit="10"/><path d="M108.47,777.26a3.11,3.11,0,0,0-2.83,3.33v4.22a3.1,3.1,0,0,0,2.83,3.32h48.19V674.75H108.89a3.11,3.11,0,0,0-2.83,3.32v4.23a3.11,3.11,0,0,0,2.83,3.32h42.83v91.64Z" fill="none" stroke="#003a50" stroke-miterlimit="10"/><path d="M431.21,329v41H477V326.74H433.42A2.21,2.21,0,0,0,431.21,329Z" fill="none" stroke="#003a50" stroke-miterlimit="10"/><path d="M385.34,328.72V370h45.77V328.72a2,2,0,0,0-2-2h-41.8A2,2,0,0,0,385.34,328.72Z" fill="none" stroke="#003a50" stroke-miterlimit="10"/><path d="M477,326.74a3.11,3.11,0,0,1,3.33-2.83h4.22a3.11,3.11,0,0,1,3.33,2.83v48.19H374.47V327.16a3.11,3.11,0,0,1,3.33-2.83H382a3.1,3.1,0,0,1,3.32,2.83V370H477Z" fill="none" stroke="#003a50" stroke-miterlimit="10"/></g><rect x="385.34" y="360.74" width="91.64" height="9.25" fill="none" stroke="#003a50" stroke-miterlimit="10"/><g clip-path="url(#clip-path)"><path d="M503.66,709.54a14.78,14.78,0,0,0-15.92,23.39,1.14,1.14,0,1,0,1.77-1.43A12.47,12.47,0,0,1,503.66,712Z" fill="none" stroke="#003a50" stroke-miterlimit="10"/><rect x="503.66" y="679.77" width="34.02" height="84.03" rx="3.31" fill="none" stroke="#003a50" stroke-miterlimit="10"/><path d="M534,682.32a1.4,1.4,0,0,0-1.4,1.39v76.15a1.4,1.4,0,0,0,2.79,0V683.71a1.39,1.39,0,0,0-1.39-1.39" fill="none" stroke="#003a50" stroke-miterlimit="10"/><path d="M519.39,750.13a5.5,5.5,0,1,1,0,7.78A5.49,5.49,0,0,1,519.39,750.13Z" fill="none" stroke="#003a50" stroke-miterlimit="10"/><path d="M519,750.54c1,.1,2-.29,3,.7,1.46,1.46-.08,3,1.38,4.47s3-.09,4.47,1.38" fill="none" stroke="#003a50" stroke-miterlimit="10"/><path d="M503.66,714.25a10.63,10.63,0,1,0,0,19.59Z" fill="none" stroke="#003a50" stroke-miterlimit="10"/></g><rect x="173.49" y="646.6" width="52.33" height="113.67" fill="none" stroke="#003a50" stroke-miterlimit="10"/><g clip-path="url(#clip-path)"><path d="M216.88,656.3h-34a2.1,2.1,0,0,0-2.11,2.1V726H219V658.4A2.1,2.1,0,0,0,216.88,656.3Z" fill="none" stroke="#003a50" stroke-miterlimit="10"/></g><rect x="180.73" y="712.17" width="38.26" height="13.85" fill="none" stroke="#003a50" stroke-miterlimit="10"/><g clip-path="url(#clip-path)"><path d="M217.18,752.52H182.87a2.21,2.21,0,0,1-2.2-2.21V731.84a2.21,2.21,0,0,1,2.2-2.2h34.31a2.21,2.21,0,0,1,2.2,2.2v18.47A2.21,2.21,0,0,1,217.18,752.52Z" fill="none" stroke="#003a50" stroke-miterlimit="10"/><path d="M314.15,709.54a14.78,14.78,0,0,0-15.93,23.39A1.14,1.14,0,1,0,300,731.5,12.47,12.47,0,0,1,314.15,712Z" fill="none" stroke="#003a50" stroke-miterlimit="10"/><rect x="314.15" y="679.77" width="34.02" height="84.03" rx="3.31" fill="none" stroke="#003a50" stroke-miterlimit="10"/><path d="M344.45,682.32a1.39,1.39,0,0,0-1.39,1.39v76.15a1.4,1.4,0,0,0,2.79,0V683.71a1.4,1.4,0,0,0-1.4-1.39" fill="none" stroke="#003a50" stroke-miterlimit="10"/><path d="M329.87,750.13a5.51,5.51,0,1,1,0,7.78A5.5,5.5,0,0,1,329.87,750.13Z" fill="none" stroke="#003a50" stroke-miterlimit="10"/><path d="M329.5,750.54c1,.1,2.05-.29,3,.7,1.46,1.46-.08,3,1.38,4.47s3-.09,4.47,1.38" fill="none" stroke="#003a50" stroke-miterlimit="10"/><path d="M314.15,714.25a10.64,10.64,0,1,0,0,19.59Z" fill="none" stroke="#003a50" stroke-miterlimit="10"/><path d="M332.94,70.49a14.78,14.78,0,0,0,15.93-23.38,1.14,1.14,0,1,0-1.78,1.43A12.47,12.47,0,0,1,332.94,68Z" fill="none" stroke="#003a50" stroke-miterlimit="10"/><rect x="298.92" y="16.24" width="34.02" height="84.03" rx="3.31" fill="none" stroke="#003a50" stroke-miterlimit="10"/><path d="M302.63,97.72a1.4,1.4,0,0,0,1.4-1.39V20.18a1.4,1.4,0,0,0-2.79,0V96.33a1.39,1.39,0,0,0,1.39,1.39" fill="none" stroke="#003a50" stroke-miterlimit="10"/><path d="M317.21,29.91a5.51,5.51,0,1,1,0-7.79A5.51,5.51,0,0,1,317.21,29.91Z" fill="none" stroke="#003a50" stroke-miterlimit="10"/><path d="M317.58,29.5c-1-.1-2,.29-3-.7-1.46-1.46.08-3-1.38-4.47s-3,.08-4.47-1.38" fill="none" stroke="#003a50" stroke-miterlimit="10"/><path d="M332.94,65.79a10.64,10.64,0,1,0,0-19.6Z" fill="none" stroke="#003a50" stroke-miterlimit="10"/></g><rect x="499.76" y="16.36" width="22.68" height="22.68" fill="none" stroke="#003a50" stroke-miterlimit="10"/><g clip-path="url(#clip-path)"><path d="M517.6,34.2a9.2,9.2,0,1,0-13,0A9.2,9.2,0,0,0,517.6,34.2Z" fill="none" stroke="#003a50" stroke-miterlimit="10"/><path d="M516.91,34.82c-.17-1.69.48-3.41-1.17-5.07-2.44-2.43-5,.15-7.45-2.29s.14-5-2.3-7.46" fill="none" stroke="#003a50" stroke-miterlimit="10"/></g><rect x="361.33" y="16.36" width="22.68" height="22.68" fill="none" stroke="#003a50" stroke-miterlimit="10"/><g clip-path="url(#clip-path)"><path d="M379.17,34.2a9.2,9.2,0,1,0-13,0A9.2,9.2,0,0,0,379.17,34.2Z" fill="none" stroke="#003a50" stroke-miterlimit="10"/><path d="M378.48,34.82c-.17-1.7.48-3.41-1.17-5.06-2.44-2.44-5,.14-7.46-2.3s.14-5-2.3-7.46" fill="none" stroke="#003a50" stroke-miterlimit="10"/></g><rect x="390.86" y="16.35" width="102.05" height="113.38" fill="none" stroke="#003a50" stroke-miterlimit="10"/><g clip-path="url(#clip-path)"><path d="M400.86,120h82.05a2.08,2.08,0,0,0,2.08-2.08V50.28H398.78v67.64A2.08,2.08,0,0,0,400.86,120Z" fill="none" stroke="#003a50" stroke-miterlimit="10"/><path d="M444.73,46.66h38.54a2,2,0,0,0,2-2V25.77a2,2,0,0,0-2-2H444.73a2,2,0,0,0-2,2V44.68A2,2,0,0,0,444.73,46.66Z" fill="none" stroke="#003a50" stroke-miterlimit="10"/><path d="M400.5,46.66H439a2,2,0,0,0,2-2V25.77a2,2,0,0,0-2-2H400.5a2,2,0,0,0-2,2V44.68A2,2,0,0,0,400.5,46.66Z" fill="none" stroke="#003a50" stroke-miterlimit="10"/></g><line x1="398.52" y1="64.13" x2="485.25" y2="64.13" fill="none" stroke="#003a50" stroke-miterlimit="10"/><g clip-path="url(#clip-path)"><path d="M460.94,517.08a1.25,1.25,0,0,0-1.25,1.25,13.67,13.67,0,0,1-27.33,0,1.25,1.25,0,1,0-2.49,0,16.16,16.16,0,0,0,32.31,0A1.25,1.25,0,0,0,460.94,517.08Z" fill="none" stroke="#003a50" stroke-miterlimit="10"/><path d="M431.12,464.38a1.24,1.24,0,0,0,1.25-1.25,13.66,13.66,0,0,1,27.32,0,1.25,1.25,0,1,0,2.49,0,16.16,16.16,0,0,0-32.31,0A1.24,1.24,0,0,0,431.12,464.38Z" fill="none" stroke="#003a50" stroke-miterlimit="10"/><path d="M419.49,517.08a1.25,1.25,0,0,0-1.25,1.25,13.66,13.66,0,0,1-27.32,0,1.25,1.25,0,1,0-2.49,0,16.16,16.16,0,0,0,32.31,0A1.25,1.25,0,0,0,419.49,517.08Z" fill="none" stroke="#003a50" stroke-miterlimit="10"/><path d="M389.67,464.38a1.24,1.24,0,0,0,1.25-1.25,13.67,13.67,0,0,1,27.33,0,1.25,1.25,0,1,0,2.49,0,16.16,16.16,0,0,0-32.31,0A1.24,1.24,0,0,0,389.67,464.38Z" fill="none" stroke="#003a50" stroke-miterlimit="10"/><path d="M366.59,503.44a1.25,1.25,0,0,0-1.25-1.24,13.67,13.67,0,0,1,0-27.33,1.25,1.25,0,1,0,0-2.49,16.16,16.16,0,1,0,0,32.31A1.25,1.25,0,0,0,366.59,503.44Z" fill="none" stroke="#003a50" stroke-miterlimit="10"/><path d="M479.15,473.63a1.25,1.25,0,0,0,1.25,1.25,13.66,13.66,0,1,1,0,27.32,1.25,1.25,0,1,0,0,2.49,16.16,16.16,0,0,0,0-32.31A1.25,1.25,0,0,0,479.15,473.63Z" fill="none" stroke="#003a50" stroke-miterlimit="10"/><path d="M446,530.21a12.57,12.57,0,0,0,12.56-12.52v-5.8a23.7,23.7,0,0,1-6.08.8h-19v5A12.56,12.56,0,0,0,446,530.21Z" fill="none" stroke="#003a50" stroke-miterlimit="10"/><path d="M458.57,465.17v-1.36a12.54,12.54,0,1,0-25.08,0v.56h19A25.59,25.59,0,0,1,458.57,465.17Z" fill="none" stroke="#003a50" stroke-miterlimit="10"/><path d="M404.57,530.21a12.57,12.57,0,0,0,12.56-12.52v-5H393.29c-.4,0-.84,0-1.24-.08v5.08A12.54,12.54,0,0,0,404.57,530.21Z" fill="none" stroke="#003a50" stroke-miterlimit="10"/><path d="M392.05,464.45c.4,0,.84-.08,1.24-.08h23.84v-.56a12.54,12.54,0,1,0-25.08,0Z" fill="none" stroke="#003a50" stroke-miterlimit="10"/><path d="M473.09,501.09h6.64a12.54,12.54,0,1,0,0-25.08h-6.64a23.81,23.81,0,0,1,3.56,12.52A24.06,24.06,0,0,1,473.09,501.09Z" fill="none" stroke="#003a50" stroke-miterlimit="10"/><path d="M366,501.09h6.68a24.06,24.06,0,0,1-3.56-12.56A23.81,23.81,0,0,1,372.69,476H366a12.54,12.54,0,1,0,0,25.08Z" fill="none" stroke="#003a50" stroke-miterlimit="10"/><path d="M393.29,512.69h59.2a23.7,23.7,0,0,0,6.08-.8,24.24,24.24,0,0,0,18.08-23.36A23.81,23.81,0,0,0,473.09,476a24.19,24.19,0,0,0-14.52-10.84,25.59,25.59,0,0,0-6.08-.8h-59.2c-.4,0-.84,0-1.24.08a24.11,24.11,0,0,0,0,48.16C392.45,512.65,392.89,512.69,393.29,512.69Z" fill="none" stroke="#003a50" stroke-miterlimit="10"/></g><rect x="206.79" y="16.33" width="85.75" height="31.12" fill="none" stroke="#003a50" stroke-miterlimit="10"/><g clip-path="url(#clip-path)"><path d="M222.45,20.74a.92.92,0,0,1,1.74-.41,26.36,26.36,0,0,1,0,23.12.91.91,0,1,1-1.64-.81,24.52,24.52,0,0,0,0-21.49A.86.86,0,0,1,222.45,20.74Z" fill="none" stroke="#003a50" stroke-miterlimit="10"/><path d="M227.54,20.74a.93.93,0,0,1,1.75-.41,26.36,26.36,0,0,1,0,23.12.93.93,0,0,1-1.23.42.92.92,0,0,1-.42-1.23,24.52,24.52,0,0,0,0-21.49A.86.86,0,0,1,227.54,20.74Z" fill="none" stroke="#003a50" stroke-miterlimit="10"/><path d="M232.64,20.74a.91.91,0,0,1,.51-.82.92.92,0,0,1,1.23.41,26.36,26.36,0,0,1,0,23.12.92.92,0,0,1-1.65-.81,24.43,24.43,0,0,0,0-21.49A.85.85,0,0,1,232.64,20.74Z" fill="none" stroke="#003a50" stroke-miterlimit="10"/><path d="M237.73,20.74a.92.92,0,0,1,1.74-.41,26.36,26.36,0,0,1,0,23.12.92.92,0,0,1-1.65-.81,24.43,24.43,0,0,0,0-21.49A1,1,0,0,1,237.73,20.74Z" fill="none" stroke="#003a50" stroke-miterlimit="10"/><path d="M242.82,20.74a.92.92,0,0,1,1.74-.41,26.36,26.36,0,0,1,0,23.12.91.91,0,1,1-1.64-.81,24.52,24.52,0,0,0,0-21.49A.86.86,0,0,1,242.82,20.74Z" fill="none" stroke="#003a50" stroke-miterlimit="10"/><path d="M247.91,20.74a.92.92,0,0,1,1.74-.41,26.36,26.36,0,0,1,0,23.12.91.91,0,1,1-1.64-.81,24.52,24.52,0,0,0,0-21.49A.86.86,0,0,1,247.91,20.74Z" fill="none" stroke="#003a50" stroke-miterlimit="10"/><path d="M217.36,20.74a.92.92,0,0,1,1.74-.41,26.36,26.36,0,0,1,0,23.12.91.91,0,1,1-1.64-.81,24.52,24.52,0,0,0,0-21.49A.86.86,0,0,1,217.36,20.74Z" fill="none" stroke="#003a50" stroke-miterlimit="10"/><path d="M212.27,20.74a.92.92,0,0,1,1.74-.41,26.36,26.36,0,0,1,0,23.12.92.92,0,1,1-1.65-.81,24.43,24.43,0,0,0,0-21.49A1,1,0,0,1,212.27,20.74Z" fill="none" stroke="#003a50" stroke-miterlimit="10"/></g><line x1="206.79" y1="31.89" x2="292.54" y2="31.89" fill="none" stroke="#003a50" stroke-miterlimit="10"/><rect x="206.79" y="184.24" width="85.75" height="31.12" fill="none" stroke="#003a50" stroke-miterlimit="10"/><g clip-path="url(#clip-path)"><path d="M222.45,188.65a.92.92,0,0,1,1.74-.41,26.34,26.34,0,0,1,0,23.11.91.91,0,1,1-1.64-.81,24.52,24.52,0,0,0,0-21.49A.85.85,0,0,1,222.45,188.65Z" fill="none" stroke="#003a50" stroke-miterlimit="10"/><path d="M227.54,188.65a.94.94,0,0,1,.52-.83.93.93,0,0,1,1.23.42,26.34,26.34,0,0,1,0,23.11.92.92,0,0,1-1.65-.81,24.52,24.52,0,0,0,0-21.49A.85.85,0,0,1,227.54,188.65Z" fill="none" stroke="#003a50" stroke-miterlimit="10"/><path d="M232.64,188.65a.92.92,0,0,1,1.74-.41,26.34,26.34,0,0,1,0,23.11.92.92,0,0,1-1.65-.81,24.43,24.43,0,0,0,0-21.49A.83.83,0,0,1,232.64,188.65Z" fill="none" stroke="#003a50" stroke-miterlimit="10"/><path d="M237.73,188.65a.92.92,0,0,1,1.74-.41,26.34,26.34,0,0,1,0,23.11.92.92,0,0,1-1.65-.81,24.43,24.43,0,0,0,0-21.49A1,1,0,0,1,237.73,188.65Z" fill="none" stroke="#003a50" stroke-miterlimit="10"/><path d="M242.82,188.65a.92.92,0,0,1,1.74-.41,26.34,26.34,0,0,1,0,23.11.91.91,0,1,1-1.64-.81,24.52,24.52,0,0,0,0-21.49A.85.85,0,0,1,242.82,188.65Z" fill="none" stroke="#003a50" stroke-miterlimit="10"/><path d="M247.91,188.65a.92.92,0,0,1,1.74-.41,26.34,26.34,0,0,1,0,23.11.91.91,0,1,1-1.64-.81,24.52,24.52,0,0,0,0-21.49A.85.85,0,0,1,247.91,188.65Z" fill="none" stroke="#003a50" stroke-miterlimit="10"/><path d="M217.36,188.65a.92.92,0,0,1,1.74-.41,26.34,26.34,0,0,1,0,23.11.91.91,0,1,1-1.64-.81,24.52,24.52,0,0,0,0-21.49A.85.85,0,0,1,217.36,188.65Z" fill="none" stroke="#003a50" stroke-miterlimit="10"/><path d="M212.27,188.65a.92.92,0,0,1,1.74-.41,26.34,26.34,0,0,1,0,23.11.92.92,0,1,1-1.65-.81,24.43,24.43,0,0,0,0-21.49A1,1,0,0,1,212.27,188.65Z" fill="none" stroke="#003a50" stroke-miterlimit="10"/></g><line x1="206.79" y1="199.8" x2="292.54" y2="199.8" fill="none" stroke="#003a50" stroke-miterlimit="10"/><g clip-path="url(#clip-path)"><path d="M152.66,262.77a2.77,2.77,0,0,1-2.55-1.71h-1.56l-4.15,2.47,1.88,3.07,2.16-1.19V275h9v-9.62l2.16,1.19,1.88-3.07-4.18-2.47h-2.09A2.79,2.79,0,0,1,152.66,262.77Z" fill="none" stroke="#003a50" stroke-miterlimit="10"/></g><rect x="139.12" y="254.74" width="27.66" height="26.6" fill="none" stroke="#003a50" stroke-miterlimit="10"/><g clip-path="url(#clip-path)"><path d="M100.12,277.6a.78.78,0,0,0,1.49.34,22.48,22.48,0,0,0,0-19.77.78.78,0,0,0-1.41.69,20.91,20.91,0,0,1,0,18.39A.72.72,0,0,0,100.12,277.6Z" fill="none" stroke="#003a50" stroke-miterlimit="10"/><path d="M104.48,277.6a.78.78,0,0,0,.44.7.79.79,0,0,0,1-.36,22.57,22.57,0,0,0,0-19.77.78.78,0,0,0-1.41.69,21,21,0,0,1,0,18.39A.72.72,0,0,0,104.48,277.6Z" fill="none" stroke="#003a50" stroke-miterlimit="10"/><path d="M108.83,277.6a.8.8,0,0,0,.44.7.78.78,0,0,0,1-.36,22.48,22.48,0,0,0,0-19.77.78.78,0,0,0-1.41.69,20.91,20.91,0,0,1,0,18.39A.85.85,0,0,0,108.83,277.6Z" fill="none" stroke="#003a50" stroke-miterlimit="10"/><path d="M113.19,277.6a.78.78,0,0,0,1.49.34,22.57,22.57,0,0,0,0-19.77.78.78,0,0,0-1.41.69,20.91,20.91,0,0,1,0,18.39A.72.72,0,0,0,113.19,277.6Z" fill="none" stroke="#003a50" stroke-miterlimit="10"/><path d="M117.54,277.6a.79.79,0,0,0,1.5.34,22.57,22.57,0,0,0,0-19.77.79.79,0,0,0-1.42.69,20.91,20.91,0,0,1,0,18.39A.85.85,0,0,0,117.54,277.6Z" fill="none" stroke="#003a50" stroke-miterlimit="10"/><path d="M121.9,277.6a.78.78,0,0,0,1.49.34,22.48,22.48,0,0,0,0-19.77.78.78,0,0,0-1.41.69,20.91,20.91,0,0,1,0,18.39A.72.72,0,0,0,121.9,277.6Z" fill="none" stroke="#003a50" stroke-miterlimit="10"/><path d="M95.76,277.6a.79.79,0,0,0,1.5.34,22.57,22.57,0,0,0,0-19.77.79.79,0,0,0-1.42.69,20.91,20.91,0,0,1,0,18.39A.85.85,0,0,0,95.76,277.6Z" fill="none" stroke="#003a50" stroke-miterlimit="10"/><path d="M91.41,277.6a.78.78,0,0,0,1.49.34,22.57,22.57,0,0,0,0-19.77.78.78,0,0,0-1.41.69,20.91,20.91,0,0,1,0,18.39A.72.72,0,0,0,91.41,277.6Z" fill="none" stroke="#003a50" stroke-miterlimit="10"/></g><line x1="86.72" y1="268.06" x2="139.12" y2="268.06" fill="none" stroke="#003a50" stroke-miterlimit="10"/><rect x="86.38" y="254.75" width="52.74" height="26.6" fill="none" stroke="#003a50" stroke-miterlimit="10"/><g clip-path="url(#clip-path)"><path d="M350.33,222.45v-3.76a47.41,47.41,0,0,0-47.42-47.43v51.19" fill="none" stroke="#003a50" stroke-miterlimit="10" stroke-width="1.6"/><path d="M200.88,122.31H204A38.71,38.71,0,0,1,242.67,161H200.88" fill="none" stroke="#003a50" stroke-miterlimit="10" stroke-width="1.6"/><path d="M244.46,319.59v3.1a39,39,0,0,1-39,39V319.59" fill="none" stroke="#003a50" stroke-miterlimit="10" stroke-width="1.6"/><path d="M302.46,583.82v3.5a44.08,44.08,0,0,0,44.08,44.08V583.82" fill="none" stroke="#003a50" stroke-miterlimit="10" stroke-width="1.6"/><path d="M409.22,583.82v3.5a44.07,44.07,0,0,1-44.08,44.08V583.82" fill="none" stroke="#003a50" stroke-miterlimit="10" stroke-width="1.6"/><path d="M-11,434.25v-4.07a51.11,51.11,0,0,1,51.12-51.12v55.19" fill="none" stroke="#003a50" stroke-miterlimit="10" stroke-width="1.6"/><path d="M56.39,325.07H52.33A51.13,51.13,0,0,0,1.2,376.19H56.39" fill="none" stroke="#003a50" stroke-miterlimit="10" stroke-width="1.6"/><line x1="178.48" y1="327.22" x2="123.99" y2="327.22" fill="none" stroke="#003a50" stroke-miterlimit="10" stroke-width="1.6"/><rect x="50.61" y="-41.22" width="16.32" height="181.89" fill="#003a50"/><rect x="50.61" y="106.53" width="16.32" height="115.78" fill="#003a50"/><rect x="50.61" y="280.99" width="16.32" height="44.79" fill="#003a50"/><rect x="74.37" y="227.73" width="11.82" height="64.29" fill="#003a50"/><rect x="54.04" y="280.99" width="32.14" height="11.82" fill="#003a50"/><rect x="50.61" y="375.28" width="16.32" height="66" fill="#003a50"/><rect x="39.3" y="427.81" width="131.96" height="16.32" fill="#003a50"/><rect x="157.02" y="427.81" width="16.32" height="380.64" fill="#003a50"/><rect x="63.09" y="0.02" width="474.34" height="16.32" fill="#003a50"/><rect x="50.62" y="216.02" width="252.3" height="12.6" fill="#003a50"/><rect x="349.67" y="216.02" width="198.46" height="12.6" fill="#003a50"/><rect x="-83.45" y="795.53" width="96" height="41.92" fill="#003a50"/><rect x="283.16" y="795.53" width="96" height="41.92" fill="#003a50"/><rect x="287.93" y="789.36" width="82.83" height="27.12" fill="#003a50"/><rect x="-77.82" y="789.36" width="82.83" height="27.12" fill="#003a50"/><rect x="528.65" y="795.53" width="34.25" height="34.25" fill="#003a50"/><rect x="99.77" y="795.53" width="95.33" height="34.25" fill="#003a50"/><rect x="462.51" y="795.53" width="95.33" height="45.92" fill="#003a50"/><rect x="167.93" y="799.53" width="27.17" height="41.92" fill="#003a50"/><rect x="528.04" y="765.16" width="49.15" height="51.74" fill="#003a50"/><rect x="522.93" y="533.73" width="9.5" height="59.04" fill="#003a50"/><rect x="522.93" y="361.86" width="9.5" height="76.42" fill="#003a50"/><rect x="551.57" y="816.9" width="25.83" height="25" fill="#003a50"/><rect x="529.4" y="348.57" width="24.67" height="94.57" fill="#003a50"/><rect x="533.4" y="417.24" width="39.53" height="25.9" fill="#003a50"/><polygon points="529.4 260.29 529.4 164.55 578.73 164.55 567.07 260.29 529.4 260.29" fill="#003a50" fill-rule="evenodd"/><polygon points="529.4 629.47 529.4 533.73 578.73 533.73 567.07 629.47 529.4 629.47" fill="#003a50" fill-rule="evenodd"/><rect x="529.4" y="-19.8" width="24.67" height="96.07" fill="#003a50"/><rect x="533.4" y="50.36" width="39.53" height="25.9" fill="#003a50"/><rect x="200.41" y="10.22" width="6.38" height="112.92" fill="#003a50"/><rect x="151.8" y="-21.16" width="6.38" height="26.75" fill="#003a50"/><rect x="178.34" y="32.66" width="24.71" height="6.38" fill="#003a50"/><rect x="178.34" y="12.28" width="6.38" height="26.75" fill="#003a50"/><rect x="200.41" y="161.02" width="6.38" height="62.9" fill="#003a50"/><rect x="292.54" y="10.23" width="6.38" height="110.35" fill="#003a50"/><rect x="292.54" y="179.85" width="6.38" height="43.42" fill="#003a50"/><rect x="60.83" y="130.54" width="31" height="6.38" fill="#003a50"/><rect x="85.81" y="130.54" width="6.38" height="37.56" fill="#003a50"/><rect x="172.81" y="-33.84" width="6.38" height="40.91" fill="#003a50"/><rect x="66.31" y="167.21" width="33.64" height="6.38" fill="#003a50"/><rect x="95.68" y="168.1" width="6.38" height="49.87" fill="#003a50"/><rect x="243.67" y="316.84" width="52.01" height="6.38" fill="#003a50"/><rect x="289.31" y="226.27" width="6.38" height="95.32" fill="#003a50"/><rect x="166.96" y="222.32" width="6.38" height="97.72" fill="#003a50"/><rect x="81.51" y="248.58" width="88.64" height="6.38" fill="#003a50"/><rect x="141.46" y="225.28" width="6.38" height="26.49" fill="#003a50"/><rect x="151.01" y="316.84" width="55.42" height="6.38" fill="#003a50"/><rect x="52.17" y="316.84" width="60.64" height="6.38" fill="#003a50"/><rect x="166.96" y="402.01" width="6.38" height="33.94" fill="#003a50"/><rect x="63.1" y="402.01" width="108.92" height="6.38" fill="#003a50"/><rect x="114.37" y="404.28" width="6.38" height="33.17" fill="#003a50"/><rect x="166.96" y="427" width="128.72" height="6.38" fill="#003a50"/><rect x="290.43" y="581.07" width="12.92" height="6.38" fill="#003a50"/><rect x="173.49" y="581.07" width="122.43" height="6.38" fill="#003a50"/><rect x="345.43" y="581.07" width="20.5" height="6.38" fill="#003a50"/><rect x="408.42" y="581.07" width="126.02" height="6.38" fill="#003a50"/><rect x="348.05" y="584.26" width="6.38" height="211.27" fill="#003a50"/><rect x="290.52" y="393.1" width="6.38" height="40" fill="#003a50"/><rect x="50.02" y="441.28" width="6.38" height="25.25" fill="#003a50"/><rect x="70" y="442.03" width="6.38" height="24.5" fill="#003a50"/><rect x="51.87" y="460.15" width="24.5" height="6.38" fill="#003a50"/><rect x="50.62" y="217.97" width="5.98" height="81.48" fill="#003a50"/><line x1="-9.7" y1="534.28" x2="44.91" y2="534.28" fill="none" stroke="#003a50" stroke-miterlimit="10" stroke-dasharray="5.75 5.75"/><polyline points="47.78 534.28 50.62 534.28 50.62 531.45" fill="none" stroke="#003a50" stroke-miterlimit="10"/><line x1="50.62" y1="525.6" x2="50.62" y2="470.07" fill="none" stroke="#003a50" stroke-miterlimit="10" stroke-dasharray="5.85 5.85"/><line x1="50.62" y1="467.14" x2="50.62" y2="464.31" fill="none" stroke="#003a50" stroke-miterlimit="10"/><line x1="294.97" y1="316.22" x2="294.97" y2="319.06" fill="none" stroke="#003a50" stroke-miterlimit="10"/><line x1="294.97" y1="324.54" x2="294.97" y2="376.68" fill="none" stroke="#003a50" stroke-miterlimit="10" stroke-dasharray="5.49 5.49"/><line x1="294.97" y1="379.42" x2="294.97" y2="382.26" fill="none" stroke="#003a50" stroke-miterlimit="10"/><line x1="296.56" y1="119.25" x2="296.56" y2="122.09" fill="none" stroke="#003a50" stroke-miterlimit="10"/><line x1="296.56" y1="127.57" x2="296.56" y2="179.71" fill="none" stroke="#003a50" stroke-miterlimit="10" stroke-dasharray="5.49 5.49"/><line x1="296.56" y1="182.45" x2="296.56" y2="185.29" fill="none" stroke="#003a50" stroke-miterlimit="10"/><rect x="64" y="286.48" width="17.51" height="30.36" fill="none" stroke="#003a50" stroke-miterlimit="10" stroke-width="0.6"/><rect x="172.81" y="-33.84" width="6.38" height="40.91" fill="#003a50"/><rect x="66.31" y="167.21" width="35.75" height="6.38" fill="#003a50"/><rect x="289.31" y="226.28" width="6.38" height="88.64" fill="#003a50"/><rect x="166.96" y="226.28" width="6.38" height="88.64" fill="#003a50"/><rect x="81.51" y="248.58" width="88.64" height="6.38" fill="#003a50"/><rect x="141.46" y="225.28" width="6.38" height="26.49" fill="#003a50"/><rect x="63.1" y="402.01" width="108.92" height="6.38" fill="#003a50"/><rect x="114.37" y="404.28" width="6.38" height="33.17" fill="#003a50"/><rect x="290.43" y="581.07" width="12.92" height="6.38" fill="#003a50"/><rect x="345.43" y="581.07" width="20.5" height="6.38" fill="#003a50"/><rect x="408.42" y="581.07" width="126.02" height="6.38" fill="#003a50"/><rect x="50.02" y="441.28" width="6.38" height="25.25" fill="#003a50"/><rect x="70" y="442.03" width="6.38" height="24.5" fill="#003a50"/><rect x="51.87" y="460.15" width="24.5" height="6.38" fill="#003a50"/><rect x="50.62" y="217.97" width="5.98" height="81.48" fill="#003a50"/><line x1="263.59" y1="586.29" x2="260.75" y2="586.29" fill="none" stroke="#003a50" stroke-miterlimit="10"/><line x1="255.56" y1="586.29" x2="206.21" y2="586.29" fill="none" stroke="#003a50" stroke-miterlimit="10" stroke-dasharray="5.2 5.2"/><line x1="203.61" y1="586.29" x2="200.77" y2="586.29" fill="none" stroke="#003a50" stroke-miterlimit="10"/><line x1="-9.7" y1="534.28" x2="44.91" y2="534.28" fill="none" stroke="#003a50" stroke-miterlimit="10" stroke-dasharray="5.75 5.75"/><polyline points="47.78 534.28 50.62 534.28 50.62 531.45" fill="none" stroke="#003a50" stroke-miterlimit="10"/><line x1="50.62" y1="525.6" x2="50.62" y2="470.07" fill="none" stroke="#003a50" stroke-miterlimit="10" stroke-dasharray="5.85 5.85"/><line x1="50.62" y1="467.14" x2="50.62" y2="464.31" fill="none" stroke="#003a50" stroke-miterlimit="10"/><line x1="294.97" y1="318.06" x2="294.97" y2="320.9" fill="none" stroke="#003a50" stroke-miterlimit="10"/><line x1="294.97" y1="326.44" x2="294.97" y2="390.25" fill="none" stroke="#003a50" stroke-miterlimit="10" stroke-dasharray="5.55 5.55"/><line x1="294.97" y1="393.02" x2="294.97" y2="395.86" fill="none" stroke="#003a50" stroke-miterlimit="10"/></g><g clip-path="url(#clip-path)"><path d="M210.85,818.73a5.19,5.19,0,0,1,0-6.23,3.6,3.6,0,0,1,2.88-1.21,3.56,3.56,0,0,1,2.86,1.21,5.19,5.19,0,0,1,0,6.23,3.59,3.59,0,0,1-2.86,1.2A3.63,3.63,0,0,1,210.85,818.73Zm4.61-1a4,4,0,0,0,0-4.28,2.23,2.23,0,0,0-3.47,0,4,4,0,0,0,0,4.28,2.21,2.21,0,0,0,3.47,0Z" fill="#003a50"/><path d="M219.18,819.72a.72.72,0,0,1-.23-.57.75.75,0,0,1,.23-.57,1,1,0,0,1,1.23,0,.74.74,0,0,1,.22.57.71.71,0,0,1-.22.57,1,1,0,0,1-1.23,0Z" fill="#003a50"/><path d="M228.79,813.78h-1.56s0,0,0-.12a2.39,2.39,0,0,0-.43-.67,1.46,1.46,0,0,0-.5-.29,2.3,2.3,0,0,0-.71-.11,1.76,1.76,0,0,0-1.52.73,3.07,3.07,0,0,0-.54,1.89h0a1.49,1.49,0,0,1,.31-.31,3.18,3.18,0,0,1,.43-.25,2.62,2.62,0,0,1,.67-.22,4.12,4.12,0,0,1,.86-.09,3.53,3.53,0,0,1,2.38.79,2.47,2.47,0,0,1,.92,2,2.52,2.52,0,0,1-1,2,3.92,3.92,0,0,1-2.55.78,3.39,3.39,0,0,1-2.73-1.09,4.5,4.5,0,0,1-.93-3v-.29a4.85,4.85,0,0,1,.93-3,3.21,3.21,0,0,1,2.69-1.21,3.93,3.93,0,0,1,1.5.27,2.69,2.69,0,0,1,1,.66A2.44,2.44,0,0,1,228.79,813.78ZM227,816a2.58,2.58,0,0,0-2.79,0,1.4,1.4,0,0,0,0,2.22,2.22,2.22,0,0,0,1.4.42,2.26,2.26,0,0,0,1.4-.42,1.31,1.31,0,0,0,.54-1.11A1.3,1.3,0,0,0,227,816Z" fill="#003a50"/><path d="M393.75,818.73a5.15,5.15,0,0,1,0-6.23,4,4,0,0,1,5.73,0,5.15,5.15,0,0,1,0,6.23,4,4,0,0,1-5.73,0Zm4.6-1a4,4,0,0,0,0-4.28,2.23,2.23,0,0,0-3.47,0,4,4,0,0,0,0,4.28,2.21,2.21,0,0,0,3.47,0Z" fill="#003a50"/><path d="M402.07,819.72a.72.72,0,0,1-.23-.57.75.75,0,0,1,.23-.57,1,1,0,0,1,1.23,0,.75.75,0,0,1,.23.57.72.72,0,0,1-.23.57,1,1,0,0,1-1.23,0Z" fill="#003a50"/><path d="M411.68,813.78h-1.56s0,0,0-.12a2.39,2.39,0,0,0-.43-.67,1.46,1.46,0,0,0-.5-.29,2.3,2.3,0,0,0-.71-.11,1.76,1.76,0,0,0-1.52.73,3.07,3.07,0,0,0-.54,1.89h0a1.49,1.49,0,0,1,.31-.31,3.18,3.18,0,0,1,.43-.25,2.62,2.62,0,0,1,.67-.22,4.12,4.12,0,0,1,.86-.09,3.53,3.53,0,0,1,2.38.79,2.47,2.47,0,0,1,.92,2,2.52,2.52,0,0,1-1,2,3.91,3.91,0,0,1-2.54.78,3.38,3.38,0,0,1-2.73-1.09,4.45,4.45,0,0,1-.94-3v-.29a4.79,4.79,0,0,1,.94-3,3.19,3.19,0,0,1,2.68-1.21,3.93,3.93,0,0,1,1.5.27,2.61,2.61,0,0,1,1,.66A2.39,2.39,0,0,1,411.68,813.78ZM409.91,816a2.29,2.29,0,0,0-1.39-.41,2.32,2.32,0,0,0-1.4.41,1.32,1.32,0,0,0-.55,1.11,1.3,1.3,0,0,0,.55,1.11,2.22,2.22,0,0,0,1.4.42,2.26,2.26,0,0,0,1.4-.42,1.31,1.31,0,0,0,.54-1.11A1.3,1.3,0,0,0,409.91,816Z" fill="#003a50"/><path d="M25.33,818.73a5.19,5.19,0,0,1,0-6.23,3.6,3.6,0,0,1,2.88-1.21,3.56,3.56,0,0,1,2.86,1.21,5.19,5.19,0,0,1,0,6.23,3.59,3.59,0,0,1-2.86,1.2A3.63,3.63,0,0,1,25.33,818.73Zm4.61-1a4,4,0,0,0,0-4.28,2.23,2.23,0,0,0-3.47,0,4,4,0,0,0,0,4.28,2.21,2.21,0,0,0,3.47,0Z" fill="#003a50"/><path d="M33.66,819.72a.72.72,0,0,1-.23-.57.75.75,0,0,1,.23-.57,1,1,0,0,1,1.23,0,.74.74,0,0,1,.22.57.71.71,0,0,1-.22.57,1,1,0,0,1-1.23,0Z" fill="#003a50"/><path d="M43.27,813.78H41.71s0,0,0-.12a2.39,2.39,0,0,0-.43-.67,1.46,1.46,0,0,0-.5-.29,2.3,2.3,0,0,0-.71-.11,1.76,1.76,0,0,0-1.52.73,3.07,3.07,0,0,0-.54,1.89h0a1.49,1.49,0,0,1,.31-.31,3.18,3.18,0,0,1,.43-.25,2.62,2.62,0,0,1,.67-.22,4.12,4.12,0,0,1,.86-.09,3.53,3.53,0,0,1,2.38.79,2.47,2.47,0,0,1,.92,2,2.52,2.52,0,0,1-1,2,3.92,3.92,0,0,1-2.55.78,3.39,3.39,0,0,1-2.73-1.09,4.5,4.5,0,0,1-.93-3v-.29a4.85,4.85,0,0,1,.93-3,3.21,3.21,0,0,1,2.69-1.21,3.93,3.93,0,0,1,1.5.27,2.69,2.69,0,0,1,1,.66A2.44,2.44,0,0,1,43.27,813.78ZM41.5,816a2.58,2.58,0,0,0-2.79,0,1.4,1.4,0,0,0,0,2.22,2.22,2.22,0,0,0,1.4.42,2.26,2.26,0,0,0,1.4-.42,1.31,1.31,0,0,0,.54-1.11A1.3,1.3,0,0,0,41.5,816Z" fill="#003a50"/><path d="M556.11,149.65a5.19,5.19,0,0,1-6.23,0,4,4,0,0,1,0-5.74,5.19,5.19,0,0,1,6.23,0,4,4,0,0,1,0,5.74Zm-1-4.6a3.47,3.47,0,0,0-2.13-.62,3.53,3.53,0,0,0-2.15.62,2.22,2.22,0,0,0,0,3.46,3.47,3.47,0,0,0,2.15.63,3.41,3.41,0,0,0,2.13-.63,2.2,2.2,0,0,0,0-3.46Z" fill="#003a50"/><path d="M557.1,141.32a.68.68,0,0,1-.56.23.71.71,0,0,1-.57-.23.85.85,0,0,1-.21-.61.87.87,0,0,1,.21-.61.75.75,0,0,1,.57-.23.71.71,0,0,1,.56.23.87.87,0,0,1,.21.61A.85.85,0,0,1,557.1,141.32Z" fill="#003a50"/><path d="M551.16,131.72v1.55l-.12,0-.31.15a1.91,1.91,0,0,0-.35.27,1.24,1.24,0,0,0-.29.51,2,2,0,0,0-.12.71,1.78,1.78,0,0,0,.73,1.52,3.18,3.18,0,0,0,1.89.53v0a1,1,0,0,1-.3-.31,3.19,3.19,0,0,1-.26-.42,3.25,3.25,0,0,1-.21-.68,3.41,3.41,0,0,1-.1-.85,3.56,3.56,0,0,1,.79-2.38,2.46,2.46,0,0,1,2-.92,2.54,2.54,0,0,1,2.06,1,3.93,3.93,0,0,1,.77,2.54,3.38,3.38,0,0,1-1.09,2.73,4.48,4.48,0,0,1-3,.93h-.28a4.86,4.86,0,0,1-3-.93,3.18,3.18,0,0,1-1.2-2.68,4.14,4.14,0,0,1,.26-1.5,2.73,2.73,0,0,1,.66-1A2.46,2.46,0,0,1,551.16,131.72Zm2.22,1.76a2.32,2.32,0,0,0-.41,1.4,2.27,2.27,0,0,0,.41,1.39,1.33,1.33,0,0,0,1.12.55,1.31,1.31,0,0,0,1.1-.54,2.54,2.54,0,0,0,0-2.8,1.32,1.32,0,0,0-1.1-.55A1.35,1.35,0,0,0,553.38,133.48Z" fill="#003a50"/><path d="M556.11,293.53a5.19,5.19,0,0,1-6.23,0,4,4,0,0,1,0-5.74,5.19,5.19,0,0,1,6.23,0,4,4,0,0,1,0,5.74Zm-1-4.6a3.47,3.47,0,0,0-2.13-.62,3.53,3.53,0,0,0-2.15.62,2.22,2.22,0,0,0,0,3.46A3.47,3.47,0,0,0,553,293a3.41,3.41,0,0,0,2.13-.63,2.2,2.2,0,0,0,0-3.46Z" fill="#003a50"/><path d="M557.1,285.2a.68.68,0,0,1-.56.23.71.71,0,0,1-.57-.23.85.85,0,0,1-.21-.61A.87.87,0,0,1,556,284a.75.75,0,0,1,.57-.23.71.71,0,0,1,.56.23.87.87,0,0,1,.21.61A.85.85,0,0,1,557.1,285.2Z" fill="#003a50"/><path d="M551.16,275.6v1.55l-.12,0-.31.15a1.91,1.91,0,0,0-.35.27,1.24,1.24,0,0,0-.29.51,2,2,0,0,0-.12.71,1.78,1.78,0,0,0,.73,1.52,3.18,3.18,0,0,0,1.89.53v0a1,1,0,0,1-.3-.31,3.19,3.19,0,0,1-.26-.42,3.25,3.25,0,0,1-.21-.68,3.47,3.47,0,0,1-.1-.85,3.56,3.56,0,0,1,.79-2.38,2.46,2.46,0,0,1,2-.92,2.54,2.54,0,0,1,2.06,1,3.93,3.93,0,0,1,.77,2.54,3.38,3.38,0,0,1-1.09,2.73,4.48,4.48,0,0,1-3,.93h-.28a4.86,4.86,0,0,1-3-.93,3.18,3.18,0,0,1-1.2-2.68,4.14,4.14,0,0,1,.26-1.5,2.73,2.73,0,0,1,.66-1A2.46,2.46,0,0,1,551.16,275.6Zm2.22,1.76a2.32,2.32,0,0,0-.41,1.4,2.27,2.27,0,0,0,.41,1.39,1.33,1.33,0,0,0,1.12.55,1.31,1.31,0,0,0,1.1-.54,2.54,2.54,0,0,0,0-2.8,1.32,1.32,0,0,0-1.1-.55A1.35,1.35,0,0,0,553.38,277.36Z" fill="#003a50"/><path d="M556.11,476.94a5.19,5.19,0,0,1-6.23,0,4,4,0,0,1,0-5.74,5.19,5.19,0,0,1,6.23,0,4,4,0,0,1,0,5.74Zm-1-4.61a4.08,4.08,0,0,0-4.29,0,2.07,2.07,0,0,0-.83,1.74,2,2,0,0,0,.83,1.73,4,4,0,0,0,4.29,0,2,2,0,0,0,.83-1.73A2.07,2.07,0,0,0,555.14,472.33Z" fill="#003a50"/><path d="M557.1,468.61a.68.68,0,0,1-.56.23.71.71,0,0,1-.57-.23,1,1,0,0,1,0-1.22.75.75,0,0,1,.57-.23.71.71,0,0,1,.56.23,1,1,0,0,1,0,1.22Z" fill="#003a50"/><path d="M551.16,459v1.56l-.12,0a1.2,1.2,0,0,0-.31.15,1.91,1.91,0,0,0-.35.27,1.27,1.27,0,0,0-.29.5,2.09,2.09,0,0,0-.12.72,1.77,1.77,0,0,0,.73,1.51,3.11,3.11,0,0,0,1.89.54v0a1.11,1.11,0,0,1-.3-.31,2.73,2.73,0,0,1-.26-.43,3,3,0,0,1-.21-.67,4,4,0,0,1-.09-.86,3.54,3.54,0,0,1,.78-2.37,2.46,2.46,0,0,1,2-.92,2.54,2.54,0,0,1,2,1,3.87,3.87,0,0,1,.78,2.54,3.41,3.41,0,0,1-1.09,2.73,4.51,4.51,0,0,1-3,.93h-.28a4.81,4.81,0,0,1-3-.93,3.18,3.18,0,0,1-1.21-2.68,4.06,4.06,0,0,1,.26-1.5,2.73,2.73,0,0,1,.66-1A2.48,2.48,0,0,1,551.16,459Zm2.22,1.77a2.58,2.58,0,0,0,0,2.79,1.33,1.33,0,0,0,1.12.55,1.31,1.31,0,0,0,1.1-.54,2.54,2.54,0,0,0,0-2.8,1.29,1.29,0,0,0-1.1-.55A1.35,1.35,0,0,0,553.38,460.77Z" fill="#003a50"/><path d="M548.58,656.58l1.38,1.75h-1.58l-1.6-1.93v-1.31h8.4v1.49Z" fill="#003a50"/><path d="M555.09,653.31a.71.71,0,0,1-.57.22.74.74,0,0,1-.57-.22.9.9,0,0,1-.21-.62.87.87,0,0,1,.21-.61.75.75,0,0,1,.57-.23.72.72,0,0,1,.57.23.87.87,0,0,1,.21.61A.9.9,0,0,1,555.09,653.31Z" fill="#003a50"/><path d="M554.1,649.49a5.2,5.2,0,0,1-6.24,0,4,4,0,0,1,0-5.73,5.16,5.16,0,0,1,6.24,0,4,4,0,0,1,0,5.73Zm-1-4.6a4,4,0,0,0-4.28,0,2.2,2.2,0,0,0,0,3.46,3.95,3.95,0,0,0,4.28,0,2.2,2.2,0,0,0,0-3.46Z" fill="#003a50"/><path d="M422.61,634.41l-2.48,2v-2.24l2.73-2.27h1.86v11.91h-2.11Z" fill="#003a50"/><path d="M433.44,633.7h-5.82v-1.85h8.86v1.85L432,636.35v.06h1.27a3.83,3.83,0,0,1,2.79,1,3.49,3.49,0,0,1,1.06,2.66,3.33,3.33,0,0,1-1.33,2.83,7,7,0,0,1-7.24,0,3.36,3.36,0,0,1-1.33-2.86v-.32h2.11v.32c0,1.36.95,2,2.84,2s2.84-.67,2.84-2-1-2-2.84-2h-3.26v-1.67l4.57-2.68Z" fill="#003a50"/><path d="M439.18,643.63a1,1,0,0,1-.32-.8,1,1,0,0,1,.32-.81,1.41,1.41,0,0,1,1.74,0,1.07,1.07,0,0,1,.32.81,1,1,0,0,1-.32.8,1.41,1.41,0,0,1-1.74,0Z" fill="#003a50"/><path d="M444.59,642.23a7.34,7.34,0,0,1,0-8.84,5.71,5.71,0,0,1,8.13,0,7.34,7.34,0,0,1,0,8.84,5.71,5.71,0,0,1-8.13,0Zm6.52-1.39a5.67,5.67,0,0,0,0-6.07,3.14,3.14,0,0,0-4.91,0,5.67,5.67,0,0,0,0,6.07,3.13,3.13,0,0,0,4.91,0Z" fill="#003a50"/><path d="M262.91,634.41l-2.49,2v-2.24l2.74-2.27H265v11.91h-2.11Z" fill="#003a50"/><path d="M277.41,643.76h-9.93V642.2a2.74,2.74,0,0,1,.58-1.74,4,4,0,0,1,1.44-1.2c.5-.25,1.12-.54,1.87-.86s1.32-.56,1.88-.77a4.09,4.09,0,0,0,1.44-.92,1.78,1.78,0,0,0,.57-1.3c0-1.26-.88-1.89-2.66-1.89s-2.68.72-2.68,2.16v.41h-2.1v-.41a3.62,3.62,0,0,1,1.26-3,5.34,5.34,0,0,1,3.51-1,5.61,5.61,0,0,1,3.51,1,3.29,3.29,0,0,1,1.27,2.75,3.11,3.11,0,0,1-.55,1.83,4.31,4.31,0,0,1-1.41,1.31c-.59.34-1.21.65-1.83.93s-1.24.53-1.83.75a5.55,5.55,0,0,0-1.4.74,1.25,1.25,0,0,0-.57,1h7.63Z" fill="#003a50"/><path d="M279.51,643.63a1,1,0,0,1-.32-.8,1,1,0,0,1,.32-.81,1.23,1.23,0,0,1,.87-.3,1.2,1.2,0,0,1,.86.3,1,1,0,0,1,.33.81,1,1,0,0,1-.33.8,1.2,1.2,0,0,1-.86.3A1.23,1.23,0,0,1,279.51,643.63Z" fill="#003a50"/><path d="M291.84,643.76h-2.11v-2.65h-7v-1.84l6.29-7.42h2.79v7.42h1.6v1.84h-1.6Zm-2.11-4.49V634h-.06l-4.48,5.27v0Z" fill="#003a50"/><path d="M324.56,369h-5.82v-1.85h8.86V369l-4.52,2.65v.06h1.27a3.91,3.91,0,0,1,2.8,1,3.52,3.52,0,0,1,1.05,2.67,3.32,3.32,0,0,1-1.33,2.82,6.93,6.93,0,0,1-7.24,0,3.35,3.35,0,0,1-1.33-2.85V375h2.11v.33c0,1.36.95,2,2.84,2s2.84-.67,2.84-2-.95-2-2.84-2H320v-1.67l4.57-2.68Z" fill="#003a50"/><path d="M336.5,369h-5.83v-1.85h8.87V369L335,371.64v.06h1.28a3.9,3.9,0,0,1,2.79,1,3.52,3.52,0,0,1,1.05,2.67,3.32,3.32,0,0,1-1.33,2.82,6.93,6.93,0,0,1-7.24,0,3.38,3.38,0,0,1-1.33-2.85V375h2.11v.33c0,1.36,1,2,2.84,2s2.84-.67,2.84-2-.94-2-2.84-2h-3.26v-1.67l4.58-2.68Z" fill="#003a50"/><path d="M342.23,378.92a1,1,0,0,1-.32-.81,1.06,1.06,0,0,1,.32-.8,1.25,1.25,0,0,1,.88-.3,1.22,1.22,0,0,1,.86.3,1,1,0,0,1,.32.8,1,1,0,0,1-.32.81,1.22,1.22,0,0,1-.86.3A1.25,1.25,0,0,1,342.23,378.92Z" fill="#003a50"/><path d="M354.82,378.29a7.73,7.73,0,0,1-7.37,0,3,3,0,0,1-1.37-2.56,2.7,2.7,0,0,1,.26-1.16,2.41,2.41,0,0,1,.65-.86,4.14,4.14,0,0,1,1.4-.77l.26-.07v-.09a3,3,0,0,1-.77-.29,2.61,2.61,0,0,1-.66-.44,2.2,2.2,0,0,1-.54-.75,2.42,2.42,0,0,1-.23-1,2.82,2.82,0,0,1,1.26-2.39,5.81,5.81,0,0,1,3.42-.89,5.89,5.89,0,0,1,3.43.89,2.83,2.83,0,0,1,1.24,2.39,2.46,2.46,0,0,1-.22,1,1.87,1.87,0,0,1-.55.74,3.42,3.42,0,0,1-1.19.68l-.23,0v.09l.28.07a6.14,6.14,0,0,1,.63.27,4.09,4.09,0,0,1,.77.5,2.71,2.71,0,0,1,.61.83,2.52,2.52,0,0,1,.28,1.19A3,3,0,0,1,354.82,378.29ZM349,376.93a4.88,4.88,0,0,0,4.2,0,1.59,1.59,0,0,0,0-2.69,4.93,4.93,0,0,0-4.2,0,1.58,1.58,0,0,0,0,2.68Zm-.37-6.52a1.38,1.38,0,0,0,.65,1.2,4.07,4.07,0,0,0,3.64,0,1.43,1.43,0,0,0,0-2.4,4,4,0,0,0-3.62,0A1.38,1.38,0,0,0,348.66,370.41Z" fill="#003a50"/><path d="M217.45,294h-5.83v-1.84h8.87V294L216,296.68v.07h1.28a3.9,3.9,0,0,1,2.79,1,3.52,3.52,0,0,1,1.05,2.67,3.32,3.32,0,0,1-1.33,2.82,7,7,0,0,1-7.24,0,3.39,3.39,0,0,1-1.33-2.86v-.32h2.11v.32c0,1.37,1,2,2.84,2s2.84-.67,2.84-2-.94-2-2.84-2h-3.26v-1.67l4.58-2.68Z" fill="#003a50"/><path d="M223.18,304a1,1,0,0,1-.32-.8,1.07,1.07,0,0,1,.32-.81,1.25,1.25,0,0,1,.88-.3,1.22,1.22,0,0,1,.86.3,1,1,0,0,1,.32.81,1,1,0,0,1-.32.8,1.22,1.22,0,0,1-.86.3A1.25,1.25,0,0,1,223.18,304Z" fill="#003a50"/><path d="M232.47,296.12a5,5,0,0,1,3.34,1.06,4.18,4.18,0,0,1,0,6,5.41,5.41,0,0,1-3.55,1.08,5.77,5.77,0,0,1-3.56-1,3.15,3.15,0,0,1-1.29-2.68h2.11a1.53,1.53,0,0,0,.7,1.33,3.53,3.53,0,0,0,2,.49,3.09,3.09,0,0,0,2-.58,2.36,2.36,0,0,0,0-3.38,3.25,3.25,0,0,0-2.07-.58,3.56,3.56,0,0,0-1.92.41,1.84,1.84,0,0,0-.7.64l-.05.12h-2.11v-6.87h8.88V294h-6.77v3h.05a1.91,1.91,0,0,1,.4-.31,3.94,3.94,0,0,1,.55-.26A5.6,5.6,0,0,1,232.47,296.12Z" fill="#003a50"/><path d="M106.45,379.05H104.1l5.41-10h-6.92v-1.88h9.28V369Z" fill="#003a50"/><path d="M113.3,378.92a1,1,0,0,1-.32-.81,1,1,0,0,1,.32-.8,1.23,1.23,0,0,1,.87-.3,1.2,1.2,0,0,1,.86.3,1,1,0,0,1,.33.8,1,1,0,0,1-.33.81,1.2,1.2,0,0,1-.86.3A1.23,1.23,0,0,1,113.3,378.92Z" fill="#003a50"/><path d="M118.7,377.52a7.38,7.38,0,0,1,0-8.84,5.71,5.71,0,0,1,8.13,0,7.34,7.34,0,0,1,0,8.84,5.71,5.71,0,0,1-8.13,0Zm6.53-1.39a5.73,5.73,0,0,0,0-6.07,3.14,3.14,0,0,0-4.91,0,5.67,5.67,0,0,0,0,6.07,2.87,2.87,0,0,0,2.45,1.19A2.9,2.9,0,0,0,125.23,376.13Z" fill="#003a50"/><path d="M104.9,294.75l-2.48,1.95v-2.24l2.73-2.27H107V304.1H104.9Z" fill="#003a50"/><path d="M109.54,304a1,1,0,0,1-.33-.8,1,1,0,0,1,.33-.81,1.4,1.4,0,0,1,1.73,0,1,1,0,0,1,.33.81,1,1,0,0,1-.33.8,1.4,1.4,0,0,1-1.73,0Z" fill="#003a50"/><path d="M113.67,300.75h2.21s0,.07,0,.18a2.75,2.75,0,0,0,.64.92,2.41,2.41,0,0,0,.75.41,3.23,3.23,0,0,0,1.06.17,2.68,2.68,0,0,0,2.24-1.07,4.35,4.35,0,0,0,.8-2.7h-.06a2,2,0,0,1-.44.46,2.56,2.56,0,0,1-.59.4,3.86,3.86,0,0,1-.95.33,6.26,6.26,0,0,1-1.23.13,5,5,0,0,1-3.36-1.13,3.73,3.73,0,0,1,0-5.72,5.49,5.49,0,0,1,3.6-1.11,4.81,4.81,0,0,1,3.87,1.55,6.36,6.36,0,0,1,1.32,4.27v.4a6.64,6.64,0,0,1-1.37,4.31,4.69,4.69,0,0,1-3.88,1.71,5.91,5.91,0,0,1-2.17-.37,3.86,3.86,0,0,1-1.48-.95A3.33,3.33,0,0,1,113.67,300.75Zm2.78-3.16a3.58,3.58,0,0,0,3.94,0,1.86,1.86,0,0,0,.78-1.57,1.89,1.89,0,0,0-.77-1.58,3.21,3.21,0,0,0-2-.58,3.17,3.17,0,0,0-2,.58,2,2,0,0,0,0,3.15Z" fill="#003a50"/><path d="M116,142.59H113.6l5.42-10h-6.93v-1.88h9.29v1.88Z" fill="#003a50"/><path d="M122.81,142.46a1.15,1.15,0,0,1,0-1.61,1.4,1.4,0,0,1,1.73,0,1.15,1.15,0,0,1,0,1.61,1.4,1.4,0,0,1-1.73,0Z" fill="#003a50"/><path d="M126.94,139.24h2.21s0,.07,0,.18a2.71,2.71,0,0,0,.23.43,2.37,2.37,0,0,0,.41.49,2.3,2.3,0,0,0,.75.41,3.21,3.21,0,0,0,1,.17,2.68,2.68,0,0,0,2.25-1.06,4.4,4.4,0,0,0,.8-2.71h-.06a2,2,0,0,1-.44.46,2.28,2.28,0,0,1-.59.4,3.8,3.8,0,0,1-1,.33,5.43,5.43,0,0,1-1.22.13,5,5,0,0,1-3.36-1.13,3.71,3.71,0,0,1,0-5.72,5.49,5.49,0,0,1,3.6-1.11,4.81,4.81,0,0,1,3.87,1.55,6.38,6.38,0,0,1,1.32,4.27v.4a6.68,6.68,0,0,1-1.37,4.31,4.7,4.7,0,0,1-3.89,1.72,5.9,5.9,0,0,1-2.16-.38,3.75,3.75,0,0,1-1.48-.95A3.29,3.29,0,0,1,126.94,139.24Zm2.78-3.16a3.19,3.19,0,0,0,2,.59,3.23,3.23,0,0,0,2-.59,1.86,1.86,0,0,0,.78-1.57,1.89,1.89,0,0,0-.77-1.58,3.22,3.22,0,0,0-2-.58,3.16,3.16,0,0,0-2,.58,2,2,0,0,0,0,3.15Z" fill="#003a50"/><path d="M336,133.24l-2.49,1.95V133l2.74-2.27h1.86v11.91H336Z" fill="#003a50"/><path d="M346,134.61a5,5,0,0,1,3.34,1.06,4.17,4.17,0,0,1,0,6,5.38,5.38,0,0,1-3.54,1.08,5.8,5.8,0,0,1-3.57-1,3.14,3.14,0,0,1-1.28-2.68H343a1.51,1.51,0,0,0,.7,1.33,3.49,3.49,0,0,0,2,.49,3.17,3.17,0,0,0,2-.57,2.09,2.09,0,0,0,.7-1.69,2,2,0,0,0-.74-1.7,3.25,3.25,0,0,0-2.07-.58,3.7,3.7,0,0,0-1.92.41,2,2,0,0,0-.69.64l-.05.13h-2.11v-6.88h8.87v1.84H343v3h.05a2.21,2.21,0,0,1,.39-.31,3.94,3.94,0,0,1,.55-.26A5.63,5.63,0,0,1,346,134.61Z" fill="#003a50"/><path d="M352.72,142.46a1.15,1.15,0,0,1,0-1.61,1.4,1.4,0,0,1,1.73,0,1.15,1.15,0,0,1,0,1.61,1.4,1.4,0,0,1-1.73,0Z" fill="#003a50"/><path d="M365.3,141.83a7.73,7.73,0,0,1-7.37,0,3,3,0,0,1-1.37-2.56,2.66,2.66,0,0,1,.26-1.16,2.41,2.41,0,0,1,.65-.86,4.14,4.14,0,0,1,1.4-.77l.26-.07v-.09a3.57,3.57,0,0,1-.77-.29,2.61,2.61,0,0,1-.66-.44,2.15,2.15,0,0,1-.54-.76,2.38,2.38,0,0,1-.22-1,2.79,2.79,0,0,1,1.25-2.38,7,7,0,0,1,6.85,0,2.83,2.83,0,0,1,1.25,2.38,2.63,2.63,0,0,1-.22,1.05,1.88,1.88,0,0,1-.56.74,3.59,3.59,0,0,1-1.19.68l-.23.05v.09l.29.07a5.44,5.44,0,0,1,.62.26,4.28,4.28,0,0,1,.77.51,2.83,2.83,0,0,1,.62.82,2.71,2.71,0,0,1,.27,1.2A3,3,0,0,1,365.3,141.83Zm-5.79-1.36a4.88,4.88,0,0,0,4.2,0,1.52,1.52,0,0,0,.74-1.35,1.5,1.5,0,0,0-.74-1.34,4.93,4.93,0,0,0-4.2,0,1.58,1.58,0,0,0,0,2.68Zm-.37-6.52a1.36,1.36,0,0,0,.65,1.19,4,4,0,0,0,3.64,0,1.42,1.42,0,0,0,0-2.39,4,4,0,0,0-3.62,0A1.36,1.36,0,0,0,359.14,134Z" fill="#003a50"/><path d="M8.47,493.69H-1.47v-1.57a2.77,2.77,0,0,1,.59-1.74,4,4,0,0,1,1.44-1.2c.5-.25,1.12-.54,1.87-.86s1.32-.55,1.88-.77a4.22,4.22,0,0,0,1.44-.91,1.82,1.82,0,0,0,.57-1.31c0-1.26-.88-1.88-2.66-1.88S1,484.17,1,485.61v.4H-1.13v-.4a3.6,3.6,0,0,1,1.27-3,5.34,5.34,0,0,1,3.51-1,5.65,5.65,0,0,1,3.51,1,3.29,3.29,0,0,1,1.27,2.75,3.17,3.17,0,0,1-.55,1.84,4.39,4.39,0,0,1-1.41,1.3c-.59.34-1.21.65-1.83.93s-1.24.53-1.83.75a5.26,5.26,0,0,0-1.4.75,1.22,1.22,0,0,0-.57,1H8.47Z" fill="#003a50"/><path d="M10.57,493.55a1,1,0,0,1-.33-.8,1,1,0,0,1,.33-.81,1.21,1.21,0,0,1,.87-.3,1.2,1.2,0,0,1,.86.3,1,1,0,0,1,.33.81,1,1,0,0,1-.33.8,1.2,1.2,0,0,1-.86.3A1.21,1.21,0,0,1,10.57,493.55Z" fill="#003a50"/><path d="M16,492.15a7.38,7.38,0,0,1,0-8.84,5.14,5.14,0,0,1,4.07-1.7,5.1,5.1,0,0,1,4.06,1.7,7.34,7.34,0,0,1,0,8.84,5.1,5.1,0,0,1-4.06,1.7A5.14,5.14,0,0,1,16,492.15Zm6.53-1.39a5,5,0,0,0,.87-3,5,5,0,0,0-.87-3A2.92,2.92,0,0,0,20,483.51a2.92,2.92,0,0,0-2.46,1.18,5,5,0,0,0-.88,3,5,5,0,0,0,.88,3A2.9,2.9,0,0,0,20,492,2.9,2.9,0,0,0,22.5,490.76Z" fill="#003a50"/><path d="M-1.16,642.93a6.39,6.39,0,0,1-3.67.93,6.43,6.43,0,0,1-3.69-.94,2.92,2.92,0,0,1-1.37-2.55,2.57,2.57,0,0,1,.26-1.17,2.37,2.37,0,0,1,.65-.85,3.89,3.89,0,0,1,1.4-.77l.25-.07v-.09a3.51,3.51,0,0,1-.76-.29,2.91,2.91,0,0,1-.66-.44,2.35,2.35,0,0,1-.54-.76,2.39,2.39,0,0,1-.23-1,2.8,2.8,0,0,1,1.26-2.38,5.74,5.74,0,0,1,3.42-.9,5.81,5.81,0,0,1,3.43.9A2.82,2.82,0,0,1-.17,634.9a2.43,2.43,0,0,1-.22,1,1.83,1.83,0,0,1-.55.75,3.62,3.62,0,0,1-1.2.68l-.22,0v.09a1.54,1.54,0,0,1,.28.07,4,4,0,0,1,.63.26,4.47,4.47,0,0,1,.77.51,2.69,2.69,0,0,1,.61.82,2.53,2.53,0,0,1,.28,1.2A3,3,0,0,1-1.16,642.93Zm-5.78-1.35a3.79,3.79,0,0,0,2.1.48,3.94,3.94,0,0,0,2.1-.47A1.53,1.53,0,0,0-2,640.24a1.51,1.51,0,0,0-.74-1.35,3.94,3.94,0,0,0-2.1-.47,3.94,3.94,0,0,0-2.1.47,1.49,1.49,0,0,0-.74,1.35A1.49,1.49,0,0,0-6.94,641.58Zm-.37-6.52a1.38,1.38,0,0,0,.64,1.19,3.25,3.25,0,0,0,1.83.44A3.24,3.24,0,0,0-3,636.25a1.36,1.36,0,0,0,.64-1.19,1.35,1.35,0,0,0-.65-1.2,3.25,3.25,0,0,0-1.81-.44,3.23,3.23,0,0,0-1.81.44A1.36,1.36,0,0,0-7.31,635.06Z" fill="#003a50"/><path d="M2.32,643.56a1,1,0,0,1-.33-.8,1,1,0,0,1,.33-.81,1.21,1.21,0,0,1,.87-.3,1.2,1.2,0,0,1,.86.3,1,1,0,0,1,.33.81,1,1,0,0,1-.33.8,1.2,1.2,0,0,1-.86.3A1.21,1.21,0,0,1,2.32,643.56Z" fill="#003a50"/><path d="M15.94,635.14H13.73s0-.06,0-.17a2.53,2.53,0,0,0-.22-.44,2.07,2.07,0,0,0-.38-.5,1.85,1.85,0,0,0-.71-.41,3,3,0,0,0-1-.16,2.49,2.49,0,0,0-2.15,1,4.39,4.39,0,0,0-.77,2.68h.06a1.8,1.8,0,0,1,.44-.43,3.55,3.55,0,0,1,.61-.37,3.81,3.81,0,0,1,.95-.3,5.43,5.43,0,0,1,1.22-.13,5.05,5.05,0,0,1,3.37,1.11,3.51,3.51,0,0,1,1.3,2.8A3.57,3.57,0,0,1,15,642.76a5.55,5.55,0,0,1-3.6,1.1,4.84,4.84,0,0,1-3.88-1.54,6.38,6.38,0,0,1-1.32-4.27v-.41a6.85,6.85,0,0,1,1.32-4.31,4.54,4.54,0,0,1,3.81-1.71,5.81,5.81,0,0,1,2.12.37,4,4,0,0,1,1.44.94A3.46,3.46,0,0,1,15.94,635.14Zm-2.51,3.15a3.21,3.21,0,0,0-2-.58,3.18,3.18,0,0,0-2,.58,2,2,0,0,0,0,3.15,3.21,3.21,0,0,0,2,.59,3.26,3.26,0,0,0,2-.59,2,2,0,0,0,0-3.15Z" fill="#003a50"/><path d="M253.53,134.54a5,5,0,0,1,3.34,1.06,3.69,3.69,0,0,1,1.25,3,3.73,3.73,0,0,1-1.29,3,5.39,5.39,0,0,1-3.55,1.08,5.86,5.86,0,0,1-3.56-1,3.18,3.18,0,0,1-1.29-2.69h2.11a1.57,1.57,0,0,0,.7,1.34,3.62,3.62,0,0,0,2,.48,3.15,3.15,0,0,0,2-.57,2.37,2.37,0,0,0,0-3.39,3.25,3.25,0,0,0-2.07-.58,3.7,3.7,0,0,0-1.92.41,2.12,2.12,0,0,0-.7.64l-.05.13h-2.11v-6.88h8.88v1.85h-6.77v2.95h.05a2.19,2.19,0,0,1,.4-.3,3.11,3.11,0,0,1,.55-.27A5.6,5.6,0,0,1,253.53,134.54Z" fill="#003a50"/><path d="M260.23,142.39a1,1,0,0,1-.32-.81,1.06,1.06,0,0,1,.32-.8,1.25,1.25,0,0,1,.88-.3,1.22,1.22,0,0,1,.86.3,1,1,0,0,1,.32.8,1,1,0,0,1-.32.81,1.22,1.22,0,0,1-.86.3A1.25,1.25,0,0,1,260.23,142.39Z" fill="#003a50"/><path d="M272.81,141.76a6.39,6.39,0,0,1-3.67.93,6.5,6.5,0,0,1-3.69-.94,2.94,2.94,0,0,1-1.37-2.56,2.56,2.56,0,0,1,.26-1.16,2.41,2.41,0,0,1,.65-.86,4.05,4.05,0,0,1,1.4-.77l.25-.07v-.09a3.05,3.05,0,0,1-.76-.29,2.61,2.61,0,0,1-.66-.44,2.2,2.2,0,0,1-.54-.75,2.42,2.42,0,0,1-.23-1,2.82,2.82,0,0,1,1.26-2.39,5.81,5.81,0,0,1,3.42-.89,5.89,5.89,0,0,1,3.43.89,2.83,2.83,0,0,1,1.24,2.39,2.43,2.43,0,0,1-.22,1,1.87,1.87,0,0,1-.55.74,3.45,3.45,0,0,1-1.2.68l-.22.05v.09l.28.07a6.14,6.14,0,0,1,.63.27,4.45,4.45,0,0,1,.77.5,2.88,2.88,0,0,1,.61.83,2.52,2.52,0,0,1,.28,1.19A3,3,0,0,1,272.81,141.76ZM267,140.4a3.79,3.79,0,0,0,2.1.49,3.84,3.84,0,0,0,2.1-.48,1.59,1.59,0,0,0,0-2.69,4.93,4.93,0,0,0-4.2,0,1.58,1.58,0,0,0,0,2.68Zm-.37-6.52a1.39,1.39,0,0,0,.64,1.2,4.09,4.09,0,0,0,3.65,0,1.44,1.44,0,0,0,0-2.4,4,4,0,0,0-3.62,0A1.38,1.38,0,0,0,266.66,133.88Z" fill="#003a50"/></g></svg>