<svg id="Слой_1" data-name="Слой 1" xmlns="http://www.w3.org/2000/svg" xmlns:xlink="http://www.w3.org/1999/xlink" viewBox="0 0 375.02 470.55"><defs><clipPath id="clip-path"><polygon points="196.02 0 196.02 21.26 189.21 21.26 189.21 50.23 0 50.23 0 469.42 375.02 469.42 375.02 50.23 245.34 50.23 245.34 0 196.02 0" fill="none"/></clipPath></defs><polygon points="0 50.23 0 450.64 6.2 450.64 6.2 54.92 126.91 54.92 126.85 50.23 0 50.23" fill="#fff"/><polygon points="241.38 66.58 191.75 66.58 1.39 65.6 1.39 450.64 359.1 450.64 366.24 59.9 241.38 66.58" fill="#fff"/><polygon points="269 50.23 269 65.33 361.99 63.73 361.99 449.1 375.02 449.1 375.02 50.23 269 50.23" fill="#fff"/><g clip-path="url(#clip-path)"><rect x="-383.27" y="-1775.55" width="1162.95" height="2240.57" fill="none" stroke="#003a50" stroke-miterlimit="10"/><polygon points="-370.68 -671.39 -370.68 452.16 766.71 452.16 766.71 -1762.61 -370.68 -1762.77 -370.68 -742.1 -370.68 -671.39" fill="none" stroke="#003a50" stroke-miterlimit="10"/></g><rect x="214.41" y="426.61" width="87.81" height="4.56" fill="#fff"/><rect x="214.41" y="426.61" width="87.81" height="4.56" fill="none" stroke="#003a50" stroke-miterlimit="10"/><line x1="302.21" y1="428.89" x2="214.41" y2="428.89" fill="none" stroke="#003a50" stroke-miterlimit="10"/><rect x="297.66" y="426.61" width="4.55" height="4.56" fill="#fff"/><rect x="297.66" y="426.61" width="4.55" height="4.56" fill="none" stroke="#003a50" stroke-miterlimit="10"/><rect x="214.41" y="426.61" width="4.55" height="4.56" fill="#fff"/><rect x="214.41" y="426.61" width="4.55" height="4.56" fill="none" stroke="#003a50" stroke-miterlimit="10"/><rect x="254.96" y="426.61" width="4.55" height="4.56" fill="#fff"/><rect x="254.96" y="426.61" width="4.55" height="4.56" fill="none" stroke="#003a50" stroke-miterlimit="10"/><g clip-path="url(#clip-path)"><path d="M255,426.61v-2.9c0-20.15-16.12-33.1-36-33.1v36" fill="none" stroke="#003a50" stroke-miterlimit="10"/></g><rect x="29.43" y="426.61" width="88.7" height="4.56" fill="#fff"/><rect x="29.43" y="426.61" width="88.7" height="4.56" fill="none" stroke="#003a50" stroke-miterlimit="10"/><line x1="29.42" y1="428.89" x2="118.12" y2="428.89" fill="none" stroke="#003a50" stroke-miterlimit="10"/><rect x="29.43" y="426.61" width="4.59" height="4.56" fill="#fff"/><rect x="29.43" y="426.61" width="4.6" height="4.56" fill="none" stroke="#003a50" stroke-miterlimit="10"/><rect x="113.53" y="426.61" width="4.6" height="4.56" fill="#fff"/><rect x="113.53" y="426.61" width="4.6" height="4.56" fill="none" stroke="#003a50" stroke-miterlimit="10"/><rect x="72.56" y="426.61" width="4.6" height="4.56" fill="#fff"/><rect x="72.56" y="426.61" width="4.6" height="4.56" fill="none" stroke="#003a50" stroke-miterlimit="10"/><g clip-path="url(#clip-path)"><path d="M77.16,426.61v-2.9c0-20.15,16.28-33.1,36.36-33.1v36" fill="none" stroke="#003a50" stroke-miterlimit="10"/></g><rect x="14.75" y="91.67" width="42.38" height="92.09" fill="none" stroke="#003a50" stroke-miterlimit="10"/><g clip-path="url(#clip-path)"><rect x="19.73" y="95.46" width="32.03" height="84.24" rx="13.7" fill="none" stroke="#003a50" stroke-miterlimit="10"/><path d="M38,110a2.2,2.2,0,1,0-2.2,2.2A2.2,2.2,0,0,0,38,110Z" fill="none" stroke="#003a50" stroke-miterlimit="10"/><rect x="-41.97" y="91.67" width="42.38" height="92.78" fill="none" stroke="#003a50" stroke-miterlimit="10"/><path d="M99.78,119.74V91.18H76.7v28.56a11.54,11.54,0,1,0,23.08,0Z" fill="none" stroke="#003a50" stroke-miterlimit="10"/></g><rect x="76.71" y="91.18" width="23.08" height="11.08" fill="none" stroke="#003a50" stroke-miterlimit="10"/><g clip-path="url(#clip-path)"><path d="M143.33,76.45a3.37,3.37,0,0,0,3.12-2.1h1.93l5.1,3-2.31,3.77-2.66-1.45V91.53h-11.1V79.71l-2.65,1.45-2.31-3.77,5.14-3h2.57A3.43,3.43,0,0,0,143.33,76.45Z" fill="none" stroke="#003a50" stroke-miterlimit="10"/></g><rect x="125.95" y="66.55" width="34.02" height="32.78" fill="none" stroke="#003a50" stroke-miterlimit="10"/><rect x="325.42" y="99.2" width="34.02" height="33.97" fill="none" stroke="#003a50" stroke-miterlimit="10"/><g clip-path="url(#clip-path)"><path d="M346.73,114.68V103.63h-8.61v11.05a3.55,3.55,0,0,0,3.55,3.54h1.51A3.55,3.55,0,0,0,346.73,114.68Z" fill="none" stroke="#003a50" stroke-miterlimit="10"/></g><polyline points="338.95 128.78 342.43 128.78 345.9 128.78" fill="none" stroke="#003a50" stroke-miterlimit="10"/><line x1="342.43" y1="118.22" x2="342.43" y2="128.78" fill="none" stroke="#003a50" stroke-miterlimit="10"/><rect x="325.5" y="140.31" width="34.02" height="34.02" fill="none" stroke="#003a50" stroke-miterlimit="10"/><g clip-path="url(#clip-path)"><path d="M334.91,169.73a4.64,4.64,0,1,1,4.63-4.64A4.64,4.64,0,0,1,334.91,169.73Z" fill="none" stroke="#003a50" stroke-miterlimit="10"/><path d="M334.91,154.24a4.64,4.64,0,1,1,4.63-4.63A4.63,4.63,0,0,1,334.91,154.24Z" fill="none" stroke="#003a50" stroke-miterlimit="10"/><path d="M350,169.73a4.64,4.64,0,1,1,4.63-4.64A4.64,4.64,0,0,1,350,169.73Z" fill="none" stroke="#003a50" stroke-miterlimit="10"/><path d="M350,154.24a4.64,4.64,0,1,1,4.63-4.63A4.63,4.63,0,0,1,350,154.24Z" fill="none" stroke="#003a50" stroke-miterlimit="10"/></g><rect x="183.8" y="302.87" width="17.01" height="102.05" fill="none" stroke="#003a50" stroke-miterlimit="10"/><polygon points="192.84 396.89 189.31 354 192.84 310.89 195.3 310.89 195.3 396.89 192.84 396.89" fill="none" stroke="#003a50" stroke-miterlimit="10"/><rect x="161.15" y="285.88" width="17.01" height="102.05" fill="none" stroke="#003a50" stroke-miterlimit="10"/><polygon points="169.11 379.9 172.63 337.01 169.11 293.9 166.65 293.9 166.65 379.9 169.11 379.9" fill="none" stroke="#003a50" stroke-miterlimit="10"/><rect x="325.51" y="99.3" width="33.59" height="122.25" fill="none" stroke="#003a50" stroke-miterlimit="10"/><rect x="278.44" y="66.58" width="80.66" height="32.72" fill="none" stroke="#003a50" stroke-miterlimit="10"/><g clip-path="url(#clip-path)"><rect x="-52.41" y="280.07" width="52.33" height="113.67" fill="none" stroke="#003a50" stroke-miterlimit="10"/></g><rect x="160.2" y="66.58" width="21.14" height="32.72" fill="none" stroke="#003a50" stroke-miterlimit="10"/><rect x="125.72" y="156.74" width="55.62" height="26.49" fill="none" stroke="#003a50" stroke-miterlimit="10"/><polyline points="311.88 70.1 305.09 70.1 298.3 70.1" fill="none" stroke="#003a50" stroke-miterlimit="10"/><line x1="305.07" y1="83.72" x2="305.07" y2="70.1" fill="none" stroke="#003a50" stroke-miterlimit="10"/><g clip-path="url(#clip-path)"><path d="M320.14,94.36V79.16a3.23,3.23,0,0,0-3.23-3.23h-23.6a3.23,3.23,0,0,0-3.23,3.23v15.2a3.24,3.24,0,0,0,3.23,3.24h23.6A3.24,3.24,0,0,0,320.14,94.36Z" fill="none" stroke="#003a50" stroke-miterlimit="10"/><path d="M305.07,85.42A2.43,2.43,0,1,0,302.64,83,2.42,2.42,0,0,0,305.07,85.42Z" fill="none" stroke="#003a50" stroke-miterlimit="10"/><polygon points="408.06 169.44 408.06 90.11 463.83 90.11 463.83 55.83 370.9 55.83 370.9 90.11 373.78 90.11 373.78 169.44 370.9 169.44 370.9 203.72 497.99 203.72 497.99 169.44 408.06 169.44" fill="none" stroke="#003a50" stroke-miterlimit="10"/><path d="M230,269.75a1.26,1.26,0,0,1,.94,1.51,13.78,13.78,0,1,0,26.87,6.16,1.26,1.26,0,0,1,2.46.57,16.3,16.3,0,0,1-31.78-7.29A1.26,1.26,0,0,1,230,269.75Z" fill="none" stroke="#003a50" stroke-miterlimit="10"/><path d="M285.21,279.47a1.25,1.25,0,0,1,1.74-.33,13.79,13.79,0,1,0,15.53-22.79,1.26,1.26,0,0,1,1.41-2.08,16.3,16.3,0,1,1-18.35,27A1.25,1.25,0,0,1,285.21,279.47Z" fill="none" stroke="#003a50" stroke-miterlimit="10"/><path d="M287.71,232.07a1.26,1.26,0,0,1-1.33-1.18,13.78,13.78,0,1,0-27.52,1.62,1.26,1.26,0,1,1-2.51.16,16.3,16.3,0,0,1,32.54-1.94A1.26,1.26,0,0,1,287.71,232.07Z" fill="none" stroke="#003a50" stroke-miterlimit="10"/><path d="M244.23,286.37a12.69,12.69,0,0,1-12-15.48l2-8.88a3.53,3.53,0,0,1,4.24-2.68L252,262.41a23.73,23.73,0,0,0,6,9.44l-1,4.2C255.63,282,250.35,286.57,244.23,286.37Z" fill="none" stroke="#003a50" stroke-miterlimit="10"/><path d="M287,277.85l-2.32-1.6a23.81,23.81,0,0,0,13.64-21.32l2.52,1.72c5,3.44,7.4,10,5,15.64A12.7,12.7,0,0,1,287,277.85Z" fill="none" stroke="#003a50" stroke-miterlimit="10"/><path d="M260.19,235.57l-.12-2c-.36-6.12,3.4-12,9.32-13.48a12.66,12.66,0,0,1,15.88,11.48l.12,1.84a23.93,23.93,0,0,0-16.64-1.92A23.5,23.5,0,0,0,260.19,235.57Z" fill="none" stroke="#003a50" stroke-miterlimit="10"/><path d="M258,271.85a23.73,23.73,0,0,1-6-9.44,16.51,16.51,0,0,1-.6-2,23.85,23.85,0,0,1,8.84-24.84,23.5,23.5,0,0,1,8.56-4,23.87,23.87,0,0,1,28.92,17.4,22.12,22.12,0,0,1,.68,6,23.81,23.81,0,0,1-13.64,21.32,22.85,22.85,0,0,1-4.48,1.6A23.8,23.8,0,0,1,258,271.85Z" fill="none" stroke="#003a50" stroke-miterlimit="10"/><path d="M55.11,218.64a1,1,0,0,1-.54.9,1,1,0,0,1-1.3-.45,29.69,29.69,0,0,1,0-25.26,1,1,0,0,1,1.29-.46,1,1,0,0,1,.45,1.34,27.64,27.64,0,0,0,0,23.49A1.13,1.13,0,0,1,55.11,218.64Z" fill="none" stroke="#003a50" stroke-miterlimit="10"/><path d="M49.73,218.64a1,1,0,0,1-.54.9.94.94,0,0,1-1.29-.45,29.69,29.69,0,0,1,0-25.26,1,1,0,0,1,1.29-.46,1,1,0,0,1,.44,1.34,27.64,27.64,0,0,0,0,23.49A1,1,0,0,1,49.73,218.64Z" fill="none" stroke="#003a50" stroke-miterlimit="10"/><path d="M44.36,218.64a1,1,0,0,1-.54.9.94.94,0,0,1-1.29-.45,29.69,29.69,0,0,1,0-25.26,1,1,0,0,1,1.29-.46,1,1,0,0,1,.44,1.34,27.64,27.64,0,0,0,0,23.49A1,1,0,0,1,44.36,218.64Z" fill="none" stroke="#003a50" stroke-miterlimit="10"/><path d="M39,218.64a1,1,0,0,1-.54.9.94.94,0,0,1-1.29-.45,29.69,29.69,0,0,1,0-25.26,1,1,0,0,1,1.29-.46,1,1,0,0,1,.44,1.34,27.64,27.64,0,0,0,0,23.49A1,1,0,0,1,39,218.64Z" fill="none" stroke="#003a50" stroke-miterlimit="10"/><path d="M33.62,218.64a1,1,0,0,1-.54.9,1,1,0,0,1-1.3-.45,29.69,29.69,0,0,1,0-25.26,1,1,0,0,1,1.3-.46,1,1,0,0,1,.44,1.34,27.64,27.64,0,0,0,0,23.49A1,1,0,0,1,33.62,218.64Z" fill="none" stroke="#003a50" stroke-miterlimit="10"/><path d="M28.25,218.64a1,1,0,0,1-.54.9,1,1,0,0,1-1.3-.45,29.69,29.69,0,0,1,0-25.26,1,1,0,0,1,1.29-.46,1,1,0,0,1,.45,1.34,27.64,27.64,0,0,0,0,23.49A1,1,0,0,1,28.25,218.64Z" fill="none" stroke="#003a50" stroke-miterlimit="10"/><path d="M60.48,218.64a1,1,0,0,1-.54.9,1,1,0,0,1-1.3-.45,29.69,29.69,0,0,1,0-25.26,1,1,0,0,1,1.29-.46,1,1,0,0,1,.45,1.34,27.64,27.64,0,0,0,0,23.49A1,1,0,0,1,60.48,218.64Z" fill="none" stroke="#003a50" stroke-miterlimit="10"/><path d="M65.85,218.64a1,1,0,0,1-.54.9,1,1,0,0,1-1.3-.45,29.69,29.69,0,0,1,0-25.26,1,1,0,0,1,1.3-.46,1,1,0,0,1,.44,1.34,27.64,27.64,0,0,0,0,23.49A1,1,0,0,1,65.85,218.64Z" fill="none" stroke="#003a50" stroke-miterlimit="10"/></g><line x1="177.89" y1="206.45" x2="14.01" y2="206.45" fill="none" stroke="#003a50" stroke-miterlimit="10"/><rect x="15.03" y="189.17" width="162.86" height="34.02" fill="none" stroke="#003a50" stroke-miterlimit="10"/><g clip-path="url(#clip-path)"><rect x="374.59" y="16.11" width="118.02" height="33.34" fill="none" stroke="#003a50" stroke-miterlimit="10"/><line x1="492.62" y1="226.3" x2="374.59" y2="226.3" fill="none" stroke="#003a50" stroke-miterlimit="10"/><rect x="374.6" y="209.36" width="118.02" height="33.34" fill="none" stroke="#003a50" stroke-miterlimit="10"/><path d="M47.77,45.44a1,1,0,0,1-.54.9,1,1,0,0,1-1.3-.46,29.69,29.69,0,0,1,0-25.26.94.94,0,0,1,1.29-.45,1,1,0,0,1,.45,1.34,27.64,27.64,0,0,0,0,23.49A1,1,0,0,1,47.77,45.44Z" fill="none" stroke="#003a50" stroke-miterlimit="10"/><path d="M42.4,45.44a1,1,0,0,1-.54.9,1,1,0,0,1-1.3-.46,29.69,29.69,0,0,1,0-25.26.94.94,0,0,1,1.29-.45,1,1,0,0,1,.45,1.34A27.64,27.64,0,0,0,42.3,45,1.13,1.13,0,0,1,42.4,45.44Z" fill="none" stroke="#003a50" stroke-miterlimit="10"/><path d="M37,45.44a1,1,0,0,1-.54.9,1,1,0,0,1-1.29-.46,29.69,29.69,0,0,1,0-25.26.94.94,0,0,1,1.29-.45,1,1,0,0,1,.44,1.34,27.64,27.64,0,0,0,0,23.49A1,1,0,0,1,37,45.44Z" fill="none" stroke="#003a50" stroke-miterlimit="10"/><path d="M31.65,45.44a1,1,0,0,1-.54.9,1,1,0,0,1-1.29-.46,29.69,29.69,0,0,1,0-25.26.94.94,0,0,1,1.29-.45,1,1,0,0,1,.44,1.34,27.64,27.64,0,0,0,0,23.49A1,1,0,0,1,31.65,45.44Z" fill="none" stroke="#003a50" stroke-miterlimit="10"/><path d="M26.28,45.44a1,1,0,0,1-.54.9,1,1,0,0,1-1.29-.46,29.69,29.69,0,0,1,0-25.26.94.94,0,0,1,1.29-.45,1,1,0,0,1,.44,1.34,27.64,27.64,0,0,0,0,23.49A1,1,0,0,1,26.28,45.44Z" fill="none" stroke="#003a50" stroke-miterlimit="10"/><path d="M20.91,45.44a1,1,0,0,1-.54.9,1,1,0,0,1-1.3-.46,29.69,29.69,0,0,1,0-25.26,1,1,0,0,1,1.3-.45,1,1,0,0,1,.44,1.34,27.64,27.64,0,0,0,0,23.49A1,1,0,0,1,20.91,45.44Z" fill="none" stroke="#003a50" stroke-miterlimit="10"/><path d="M53.14,45.44a1,1,0,0,1-.54.9,1,1,0,0,1-1.3-.46,29.69,29.69,0,0,1,0-25.26.94.94,0,0,1,1.29-.45A1,1,0,0,1,53,21.51,27.64,27.64,0,0,0,53,45,1,1,0,0,1,53.14,45.44Z" fill="none" stroke="#003a50" stroke-miterlimit="10"/><path d="M58.51,45.44a1,1,0,0,1-.54.9,1,1,0,0,1-1.3-.46,29.69,29.69,0,0,1,0-25.26,1,1,0,0,1,1.3-.45,1,1,0,0,1,.44,1.34,27.64,27.64,0,0,0,0,23.49A1,1,0,0,1,58.51,45.44Z" fill="none" stroke="#003a50" stroke-miterlimit="10"/><rect x="7.42" y="15.68" width="119.14" height="34.58" fill="none" stroke="#003a50" stroke-miterlimit="10"/></g><rect x="57.46" y="157.88" width="61.57" height="25.39" fill="none" stroke="#003a50" stroke-miterlimit="10"/><g clip-path="url(#clip-path)"><rect x="75.56" y="159.94" width="24.4" height="25.04" rx="2.83" fill="none" stroke="#003a50" stroke-miterlimit="10"/><path d="M87.76,170.55a1.91,1.91,0,1,1-1.91,1.91A1.9,1.9,0,0,1,87.76,170.55Z" fill="none" stroke="#003a50" stroke-miterlimit="10"/></g><rect x="325.45" y="187.96" width="33.52" height="33.52" fill="none" stroke="#003a50" stroke-miterlimit="10"/><line x1="342.22" y1="214.57" x2="342.22" y2="194.89" fill="none" stroke="#003a50" stroke-miterlimit="10"/><line x1="352.05" y1="204.73" x2="332.38" y2="204.73" fill="none" stroke="#003a50" stroke-miterlimit="10"/><line x1="349.17" y1="211.68" x2="335.26" y2="197.78" fill="none" stroke="#003a50" stroke-miterlimit="10"/><line x1="349.17" y1="197.77" x2="335.26" y2="211.68" fill="none" stroke="#003a50" stroke-miterlimit="10"/><g clip-path="url(#clip-path)"><rect x="-88.77" y="189.17" width="90.71" height="34.02" fill="none" stroke="#003a50" stroke-miterlimit="10"/><line x1="1.93" y1="206.18" x2="-88.78" y2="206.18" fill="none" stroke="#003a50" stroke-miterlimit="10"/><path d="M312.76,353.94h41v45.77H310.54V356.15A2.21,2.21,0,0,1,312.76,353.94Z" fill="none" stroke="#003a50" stroke-miterlimit="10"/><path d="M312.53,308.07h41.26v45.77H312.53a2,2,0,0,1-2-2v-41.8A2,2,0,0,1,312.53,308.07Z" fill="none" stroke="#003a50" stroke-miterlimit="10"/><path d="M310.54,399.71a3.11,3.11,0,0,0-2.83,3.33v4.22a3.11,3.11,0,0,0,2.83,3.33h48.2V297.2H311a3.11,3.11,0,0,0-2.83,3.33v4.22a3.11,3.11,0,0,0,2.83,3.33h42.82v91.63Z" fill="none" stroke="#003a50" stroke-miterlimit="10"/></g><rect x="344.54" y="308.07" width="9.25" height="91.64" fill="none" stroke="#003a50" stroke-miterlimit="10"/><rect x="16.27" y="250.82" width="22.68" height="22.68" fill="none" stroke="#003a50" stroke-miterlimit="10"/><g clip-path="url(#clip-path)"><path d="M34.11,268.67a9.2,9.2,0,1,1,0-13A9.19,9.19,0,0,1,34.11,268.67Z" fill="none" stroke="#003a50" stroke-miterlimit="10"/><path d="M34.73,268c-1.69-.17-3.41.48-5.06-1.17-2.44-2.44.14-5-2.3-7.46s-5,.14-7.46-2.3" fill="none" stroke="#003a50" stroke-miterlimit="10"/></g><rect x="16.27" y="280.98" width="113.38" height="102.05" fill="none" stroke="#003a50" stroke-miterlimit="10"/><g clip-path="url(#clip-path)"><path d="M119.92,291v82a2.09,2.09,0,0,1-2.09,2.09H50.19V288.89h67.64A2.09,2.09,0,0,1,119.92,291Z" fill="none" stroke="#003a50" stroke-miterlimit="10"/><rect x="23.7" y="332.86" width="22.88" height="42.5" rx="1.98" fill="none" stroke="#003a50" stroke-miterlimit="10"/><rect x="23.7" y="288.64" width="22.88" height="42.5" rx="1.98" fill="none" stroke="#003a50" stroke-miterlimit="10"/></g><line x1="64.05" y1="288.64" x2="64.05" y2="375.36" fill="none" stroke="#003a50" stroke-miterlimit="10"/><g clip-path="url(#clip-path)"><rect x="-26.68" y="15.96" width="34.02" height="34.02" fill="none" stroke="#003a50" stroke-miterlimit="10"/><path d="M181.78,280.15h-3.46a43.48,43.48,0,0,1-43.48-43.48h46.94" fill="none" stroke="#003a50" stroke-miterlimit="10" stroke-width="1.6"/><path d="M124.29,114.86h3.13a39.34,39.34,0,0,1,39.34,39.34H124.29" fill="none" stroke="#003a50" stroke-miterlimit="10" stroke-width="1.6"/><path d="M191.11,56.7V52.64A51.13,51.13,0,0,1,242.23,1.51V56.7" fill="none" stroke="#003a50" stroke-miterlimit="10" stroke-width="1.6"/><path d="M137.52-36.52h4.06a51.13,51.13,0,0,1,51.13,51.13H137.52" fill="none" stroke="#003a50" stroke-miterlimit="10" stroke-width="1.6"/><rect x="252.69" y="-2.27" width="16.32" height="66" fill="#003a50"/><rect x="241.38" y="50.26" width="131.96" height="16.32" fill="#003a50"/><rect x="-0.07" y="50.26" width="191.83" height="16.32" fill="#003a50"/><rect x="-0.07" y="58.42" width="16.32" height="372.48" fill="#003a50"/><rect x="126.43" y="13.73" width="16.32" height="40.5" fill="#003a50"/><rect x="359.1" y="50.26" width="16.32" height="380.64" fill="#003a50"/><rect x="118.63" y="417.98" width="96" height="41.92" fill="#003a50"/><rect x="-1.27" y="417.98" width="27.03" height="46.75" fill="#003a50"/><rect x="2.73" y="417.98" width="27.03" height="23.38" fill="#003a50"/><rect x="124.26" y="411.82" width="82.83" height="27.12" fill="#003a50"/><rect x="301.84" y="417.98" width="95.33" height="34.25" fill="#003a50"/><rect x="370.01" y="421.98" width="27.17" height="41.92" fill="#003a50"/><rect x="-91.81" y="184.12" width="94.48" height="6.38" fill="#003a50"/><rect x="-95.43" y="50.23" width="99.68" height="6.38" fill="#003a50"/><rect x="-95.43" y="85.86" width="99.68" height="6.38" fill="#003a50"/><rect x="178.15" y="279.36" width="6.38" height="136.12" fill="#003a50"/><rect x="178.15" y="183.23" width="6.38" height="54.19" fill="#003a50"/><rect x="369.04" y="24.47" width="6.38" height="33.94" fill="#003a50"/><rect x="265.17" y="24.47" width="108.92" height="6.38" fill="#003a50"/><rect x="316.44" y="26.73" width="6.38" height="33.17" fill="#003a50"/><rect x="369.04" y="49.46" width="128.72" height="6.38" fill="#003a50"/><rect x="119.34" y="65.4" width="6.38" height="50.21" fill="#003a50"/><rect x="119.34" y="153.36" width="6.38" height="32.88" fill="#003a50"/><rect x="181.34" y="156.39" width="3.19" height="29.85" fill="#003a50"/><rect x="181.34" y="66.55" width="3.19" height="36.33" fill="#003a50"/><rect x="14.75" y="85.29" width="107.78" height="6.38" fill="#003a50"/><rect x="83.2" y="62.68" width="6.38" height="26.37" fill="#003a50"/><rect x="252.09" y="63.73" width="6.38" height="25.25" fill="#003a50"/><rect x="272.07" y="64.48" width="6.38" height="24.5" fill="#003a50"/><rect x="253.94" y="82.6" width="24.5" height="6.38" fill="#003a50"/><rect x="14.75" y="183.42" width="166.58" height="6.38" fill="#003a50"/><line x1="183.8" y1="156.74" x2="186.63" y2="156.74" fill="none" stroke="#003a50" stroke-miterlimit="10"/><line x1="192.38" y1="156.74" x2="246.98" y2="156.74" fill="none" stroke="#003a50" stroke-miterlimit="10" stroke-dasharray="5.75 5.75"/><polyline points="249.86 156.74 252.69 156.74 252.69 153.9" fill="none" stroke="#003a50" stroke-miterlimit="10"/><line x1="252.69" y1="148.06" x2="252.69" y2="92.52" fill="none" stroke="#003a50" stroke-miterlimit="10" stroke-dasharray="5.85 5.85"/><line x1="252.69" y1="89.6" x2="252.69" y2="86.76" fill="none" stroke="#003a50" stroke-miterlimit="10"/><line x1="9.56" y1="16.25" x2="9.56" y2="-54.97" fill="none" stroke="#003a50" stroke-miterlimit="10" stroke-dasharray="5.67 5.67"/><rect x="-91.81" y="184.12" width="94.48" height="6.38" fill="#003a50"/><rect x="-95.43" y="50.23" width="99.68" height="6.38" fill="#003a50"/><rect x="-95.43" y="85.86" width="99.68" height="6.38" fill="#003a50"/><rect x="178.15" y="279.36" width="6.38" height="136.12" fill="#003a50"/><rect x="178.15" y="183.23" width="6.38" height="54.19" fill="#003a50"/><rect x="265.17" y="24.47" width="108.92" height="6.38" fill="#003a50"/><rect x="316.44" y="26.73" width="6.38" height="33.17" fill="#003a50"/><rect x="119.34" y="65.4" width="6.38" height="50.21" fill="#003a50"/><rect x="119.34" y="153.36" width="6.38" height="32.88" fill="#003a50"/><rect x="181.34" y="156.39" width="3.19" height="29.85" fill="#003a50"/><rect x="181.34" y="66.55" width="3.19" height="36.33" fill="#003a50"/><rect x="14.75" y="85.29" width="107.78" height="6.38" fill="#003a50"/><rect x="83.2" y="62.68" width="6.38" height="26.37" fill="#003a50"/><rect x="252.09" y="63.73" width="6.38" height="25.25" fill="#003a50"/><rect x="272.07" y="64.48" width="6.38" height="24.5" fill="#003a50"/><rect x="253.94" y="82.6" width="24.5" height="6.38" fill="#003a50"/><rect x="14.75" y="183.42" width="166.58" height="6.38" fill="#003a50"/><line x1="183.8" y1="156.74" x2="186.63" y2="156.74" fill="none" stroke="#003a50" stroke-miterlimit="10"/><line x1="192.38" y1="156.74" x2="246.98" y2="156.74" fill="none" stroke="#003a50" stroke-miterlimit="10" stroke-dasharray="5.75 5.75"/><polyline points="249.86 156.74 252.69 156.74 252.69 153.9" fill="none" stroke="#003a50" stroke-miterlimit="10"/><line x1="252.69" y1="148.06" x2="252.69" y2="92.52" fill="none" stroke="#003a50" stroke-miterlimit="10" stroke-dasharray="5.85 5.85"/><line x1="252.69" y1="89.6" x2="252.69" y2="86.76" fill="none" stroke="#003a50" stroke-miterlimit="10"/><line x1="9.56" y1="16.25" x2="9.56" y2="-54.97" fill="none" stroke="#003a50" stroke-miterlimit="10" stroke-dasharray="5.67 5.67"/></g><g clip-path="url(#clip-path)"><path d="M227.41,441.18a5.19,5.19,0,0,1,0-6.23,4,4,0,0,1,5.74,0,5.19,5.19,0,0,1,0,6.23,4,4,0,0,1-5.74,0Zm4.6-1a4,4,0,0,0,0-4.29,2.22,2.22,0,0,0-3.46,0,4,4,0,0,0,0,4.29,2.22,2.22,0,0,0,3.46,0Z" fill="#003a50"/><path d="M235.74,442.17a.68.68,0,0,1-.23-.56.71.71,0,0,1,.23-.57.85.85,0,0,1,.61-.21.87.87,0,0,1,.61.21.75.75,0,0,1,.23.57.71.71,0,0,1-.23.56.87.87,0,0,1-.61.21A.85.85,0,0,1,235.74,442.17Z" fill="#003a50"/><path d="M245.34,436.23h-1.55a.39.39,0,0,0,0-.12,2.73,2.73,0,0,0-.15-.31,1.6,1.6,0,0,0-.28-.35,1.14,1.14,0,0,0-.5-.29,2,2,0,0,0-.71-.12,1.8,1.8,0,0,0-1.52.73,3.18,3.18,0,0,0-.53,1.89h0a1,1,0,0,1,.31-.3,3.19,3.19,0,0,1,.42-.26,3.25,3.25,0,0,1,.68-.21,4,4,0,0,1,.85-.09,3.55,3.55,0,0,1,2.38.78,2.46,2.46,0,0,1,.92,2,2.54,2.54,0,0,1-1,2.06,3.87,3.87,0,0,1-2.54.77,3.41,3.41,0,0,1-2.73-1.08,4.53,4.53,0,0,1-.93-3V438a4.81,4.81,0,0,1,.93-3,3.16,3.16,0,0,1,2.68-1.21,4.14,4.14,0,0,1,1.5.26,2.73,2.73,0,0,1,1,.66A2.46,2.46,0,0,1,245.34,436.23Zm-1.76,2.22a2.32,2.32,0,0,0-1.4-.41,2.27,2.27,0,0,0-1.39.41,1.33,1.33,0,0,0-.55,1.12,1.31,1.31,0,0,0,.54,1.1,2.54,2.54,0,0,0,2.8,0,1.32,1.32,0,0,0,.55-1.1A1.35,1.35,0,0,0,243.58,438.45Z" fill="#003a50"/><path d="M46.16,441.18a5.19,5.19,0,0,1,0-6.23,4,4,0,0,1,5.74,0,5.19,5.19,0,0,1,0,6.23,4,4,0,0,1-5.74,0Zm4.61-1a4.08,4.08,0,0,0,0-4.29,2.07,2.07,0,0,0-1.74-.83,2,2,0,0,0-1.73.83,4,4,0,0,0,0,4.29A2,2,0,0,0,49,441,2.07,2.07,0,0,0,50.77,440.21Z" fill="#003a50"/><path d="M54.49,442.17a.68.68,0,0,1-.23-.56.71.71,0,0,1,.23-.57,1,1,0,0,1,1.22,0,.75.75,0,0,1,.23.57.71.71,0,0,1-.23.56,1,1,0,0,1-1.22,0Z" fill="#003a50"/><path d="M64.1,436.23H62.54s0,0,0-.12a1.2,1.2,0,0,0-.15-.31,1.91,1.91,0,0,0-.27-.35,1.27,1.27,0,0,0-.5-.29,2.09,2.09,0,0,0-.72-.12,1.77,1.77,0,0,0-1.51.73,3.11,3.11,0,0,0-.54,1.89h0a1.11,1.11,0,0,1,.31-.3,2.73,2.73,0,0,1,.43-.26,3,3,0,0,1,.67-.21,4,4,0,0,1,.86-.09,3.54,3.54,0,0,1,2.37.78,2.46,2.46,0,0,1,.92,2,2.54,2.54,0,0,1-1,2.06,3.87,3.87,0,0,1-2.54.77,3.41,3.41,0,0,1-2.73-1.08,4.53,4.53,0,0,1-.93-3V438a4.81,4.81,0,0,1,.93-3,3.18,3.18,0,0,1,2.68-1.21,4.06,4.06,0,0,1,1.5.26,2.73,2.73,0,0,1,1,.66A2.48,2.48,0,0,1,64.1,436.23Zm-1.77,2.22a2.58,2.58,0,0,0-2.79,0,1.33,1.33,0,0,0-.55,1.12,1.31,1.31,0,0,0,.54,1.1,2.54,2.54,0,0,0,2.8,0,1.29,1.29,0,0,0,.55-1.1A1.35,1.35,0,0,0,62.33,438.45Z" fill="#003a50"/><path d="M81,139.68H75.16v-1.84H84v1.84l-4.53,2.65v.07h1.28a3.9,3.9,0,0,1,2.79,1,3.52,3.52,0,0,1,1,2.67,3.34,3.34,0,0,1-1.32,2.82,7,7,0,0,1-7.25,0A3.38,3.38,0,0,1,74.72,146v-.32h2.1V146q0,2,2.85,2c1.89,0,2.83-.67,2.83-2s-.94-2-2.83-2H76.4v-1.67L81,139.75Z" fill="#003a50"/><path d="M86.72,149.61a1,1,0,0,1-.33-.8,1,1,0,0,1,.33-.81,1.4,1.4,0,0,1,1.73,0,1,1,0,0,1,.32.81,1,1,0,0,1-.32.8,1.4,1.4,0,0,1-1.73,0Z" fill="#003a50"/><path d="M96.82,139.68H91v-1.84h8.86v1.84l-4.52,2.65v.07h1.27a3.91,3.91,0,0,1,2.8,1,3.52,3.52,0,0,1,1,2.67,3.32,3.32,0,0,1-1.33,2.82,7,7,0,0,1-7.24,0A3.36,3.36,0,0,1,90.56,146v-.32h2.11V146c0,1.36,1,2,2.84,2s2.84-.67,2.84-2-.95-2-2.84-2H92.25v-1.67l4.57-2.68Z" fill="#003a50"/><path d="M157.32,116.21h-9.93v-1.56a2.79,2.79,0,0,1,.58-1.75,3.91,3.91,0,0,1,1.45-1.19c.5-.26,1.12-.55,1.87-.87s1.32-.55,1.87-.77a4.36,4.36,0,0,0,1.45-.91,1.82,1.82,0,0,0,.57-1.31c0-1.25-.89-1.88-2.67-1.88s-2.67.72-2.67,2.16v.4h-2.11v-.4a3.62,3.62,0,0,1,1.26-3,5.45,5.45,0,0,1,3.52-1,5.72,5.72,0,0,1,3.51,1,3.29,3.29,0,0,1,1.27,2.75,3.17,3.17,0,0,1-.56,1.84,4.16,4.16,0,0,1-1.4,1.3,16.7,16.7,0,0,1-1.84.93c-.62.28-1.23.53-1.82.75a5.18,5.18,0,0,0-1.41.75,1.23,1.23,0,0,0-.56,1h7.62Z" fill="#003a50"/><path d="M159.42,116.07a1,1,0,0,1-.32-.8,1.07,1.07,0,0,1,.32-.81,1.25,1.25,0,0,1,.88-.3,1.22,1.22,0,0,1,.86.3,1,1,0,0,1,.32.81,1,1,0,0,1-.32.8,1.22,1.22,0,0,1-.86.3A1.25,1.25,0,0,1,159.42,116.07Z" fill="#003a50"/><path d="M173.2,116.21h-9.93v-1.56a2.79,2.79,0,0,1,.58-1.75,3.83,3.83,0,0,1,1.45-1.19c.49-.26,1.12-.55,1.86-.87s1.33-.55,1.88-.77a4.36,4.36,0,0,0,1.45-.91,1.82,1.82,0,0,0,.57-1.31c0-1.25-.89-1.88-2.67-1.88s-2.67.72-2.67,2.16v.4h-2.11v-.4a3.62,3.62,0,0,1,1.26-3,5.44,5.44,0,0,1,3.51-1,5.73,5.73,0,0,1,3.52,1,3.31,3.31,0,0,1,1.27,2.75,3.17,3.17,0,0,1-.56,1.84,4.16,4.16,0,0,1-1.4,1.3,16.7,16.7,0,0,1-1.84.93c-.62.28-1.23.53-1.82.75a5.18,5.18,0,0,0-1.41.75,1.23,1.23,0,0,0-.56,1h7.62Z" fill="#003a50"/><path d="M308.52,1.51h-2.35l5.42-10h-6.93V-10.4H314v1.87Z" fill="#003a50"/><path d="M315.37,1.37a1,1,0,0,1-.32-.8,1.07,1.07,0,0,1,.32-.81,1.25,1.25,0,0,1,.88-.3,1.22,1.22,0,0,1,.86.3,1,1,0,0,1,.32.81,1,1,0,0,1-.32.8,1.22,1.22,0,0,1-.86.3A1.25,1.25,0,0,1,315.37,1.37Z" fill="#003a50"/><path d="M320.78,0a6.45,6.45,0,0,1-1.48-4.42,6.49,6.49,0,0,1,1.48-4.42,5.12,5.12,0,0,1,4.07-1.7,5.12,5.12,0,0,1,4.06,1.7,6.49,6.49,0,0,1,1.48,4.42A6.45,6.45,0,0,1,328.91,0a5.12,5.12,0,0,1-4.06,1.7A5.12,5.12,0,0,1,320.78,0Zm6.53-1.39a5,5,0,0,0,.87-3,5,5,0,0,0-.87-3,2.89,2.89,0,0,0-2.46-1.18,2.87,2.87,0,0,0-2.46,1.18,4.94,4.94,0,0,0-.88,3,4.89,4.89,0,0,0,.88,3,2.88,2.88,0,0,0,2.46,1.19A2.91,2.91,0,0,0,327.31-1.42Z" fill="#003a50"/><path d="M37.9-8.61H32.07v-1.84h8.87v1.84L36.41-6v.06h1.28a3.87,3.87,0,0,1,2.79,1,3.52,3.52,0,0,1,1.05,2.66A3.33,3.33,0,0,1,40.2.61a5.87,5.87,0,0,1-3.62,1A5.89,5.89,0,0,1,33,.61a3.39,3.39,0,0,1-1.33-2.86v-.32h2.11v.32c0,1.36.95,2,2.84,2s2.84-.66,2.84-2-.94-2-2.84-2H33.32V-5.86L37.9-8.54Z" fill="#003a50"/><path d="M43.63,1.32a1,1,0,0,1-.32-.8,1.07,1.07,0,0,1,.32-.81,1.25,1.25,0,0,1,.88-.3,1.22,1.22,0,0,1,.86.3,1,1,0,0,1,.32.81,1,1,0,0,1-.32.8,1.22,1.22,0,0,1-.86.3A1.25,1.25,0,0,1,43.63,1.32Z" fill="#003a50"/><path d="M56.22.69a6.45,6.45,0,0,1-3.68.93A6.43,6.43,0,0,1,48.85.68a3,3,0,0,1-1.37-2.56A2.7,2.7,0,0,1,47.74-3a2.37,2.37,0,0,1,.65-.85,3.94,3.94,0,0,1,1.4-.78l.26-.06v-.09a3.38,3.38,0,0,1-.77-.29,2.91,2.91,0,0,1-.66-.44,2.35,2.35,0,0,1-.54-.76,2.39,2.39,0,0,1-.23-1,2.79,2.79,0,0,1,1.26-2.38,5.74,5.74,0,0,1,3.42-.9,5.81,5.81,0,0,1,3.43.9A2.82,2.82,0,0,1,57.2-7.34a2.43,2.43,0,0,1-.22,1,1.9,1.9,0,0,1-.55.75,3.59,3.59,0,0,1-1.19.68l-.23,0v.09a2.45,2.45,0,0,1,.28.06,6.14,6.14,0,0,1,.63.27,3.68,3.68,0,0,1,.77.51,2.53,2.53,0,0,1,.61.82,2.52,2.52,0,0,1,.28,1.19A3,3,0,0,1,56.22.69ZM50.43-.66a3.82,3.82,0,0,0,2.1.48,3.84,3.84,0,0,0,2.1-.48A1.5,1.5,0,0,0,55.37-2a1.51,1.51,0,0,0-.74-1.35,4.93,4.93,0,0,0-4.2,0A1.51,1.51,0,0,0,49.69-2,1.51,1.51,0,0,0,50.43-.66Zm-.37-6.52A1.37,1.37,0,0,0,50.71-6a3.2,3.2,0,0,0,1.82.44A3.24,3.24,0,0,0,54.35-6,1.37,1.37,0,0,0,55-7.18a1.36,1.36,0,0,0-.66-1.2,3.25,3.25,0,0,0-1.81-.44,3.25,3.25,0,0,0-1.81.44A1.36,1.36,0,0,0,50.06-7.18Z" fill="#003a50"/><path d="M82.51,256.8,80,258.75v-2.24l2.74-2.27h1.86v11.91H82.51Z" fill="#003a50"/><path d="M97,266.15H87.07v-1.56a2.8,2.8,0,0,1,.59-1.75,4.08,4.08,0,0,1,1.44-1.19c.5-.26,1.12-.54,1.87-.87l1.88-.77a4.07,4.07,0,0,0,1.44-.91,1.8,1.8,0,0,0,.57-1.3c0-1.26-.88-1.89-2.66-1.89s-2.68.72-2.68,2.16v.41H87.41v-.41a3.64,3.64,0,0,1,1.27-3,5.4,5.4,0,0,1,3.51-1,5.63,5.63,0,0,1,3.51,1A3.27,3.27,0,0,1,97,257.8a3.16,3.16,0,0,1-.55,1.83,4.28,4.28,0,0,1-1.41,1.3,16.56,16.56,0,0,1-1.83.93q-.95.42-1.83.75a5.26,5.26,0,0,0-1.4.75,1.22,1.22,0,0,0-.57.95H97Z" fill="#003a50"/><path d="M99.11,266a1.15,1.15,0,0,1,0-1.61,1.4,1.4,0,0,1,1.73,0,1.15,1.15,0,0,1,0,1.61,1.4,1.4,0,0,1-1.73,0Z" fill="#003a50"/><path d="M106.22,266.15h-2.35l5.41-10h-6.93v-1.88h9.29v1.88Z" fill="#003a50"/><path d="M210.54,116.14h-9.93v-1.56a2.79,2.79,0,0,1,.58-1.75,4,4,0,0,1,1.44-1.19c.5-.26,1.13-.54,1.87-.87l1.88-.77a4.21,4.21,0,0,0,1.45-.91,1.81,1.81,0,0,0,.57-1.31c0-1.25-.89-1.88-2.67-1.88s-2.67.72-2.67,2.16v.41H201v-.41a3.64,3.64,0,0,1,1.26-3,5.44,5.44,0,0,1,3.51-1,5.66,5.66,0,0,1,3.52,1,3.29,3.29,0,0,1,1.27,2.74,3.17,3.17,0,0,1-.56,1.84,4.16,4.16,0,0,1-1.4,1.3,16.7,16.7,0,0,1-1.84.93c-.62.28-1.23.53-1.82.75a5.18,5.18,0,0,0-1.41.75,1.23,1.23,0,0,0-.56,1h7.62Z" fill="#003a50"/><path d="M212.64,116a1.17,1.17,0,0,1,0-1.61,1.41,1.41,0,0,1,1.74,0,1.17,1.17,0,0,1,0,1.61,1.41,1.41,0,0,1-1.74,0Z" fill="#003a50"/><path d="M218.05,114.6a7.33,7.33,0,0,1,0-8.83,5.69,5.69,0,0,1,8.13,0,7.33,7.33,0,0,1,0,8.83,5.69,5.69,0,0,1-8.13,0Zm6.53-1.38a5.73,5.73,0,0,0,0-6.07,3.15,3.15,0,0,0-4.92,0,4.89,4.89,0,0,0-.88,3,4.94,4.94,0,0,0,.88,3,2.87,2.87,0,0,0,2.46,1.18A2.92,2.92,0,0,0,224.58,113.22Z" fill="#003a50"/><path d="M187.62,256.8l-2.49,1.95v-2.24l2.74-2.27h1.86v11.91h-2.11Z" fill="#003a50"/><path d="M200.92,265.39a6.43,6.43,0,0,1-3.68.93,6.5,6.5,0,0,1-3.69-.94,3,3,0,0,1-1.37-2.56,2.66,2.66,0,0,1,.26-1.16,2.32,2.32,0,0,1,.66-.86,4,4,0,0,1,1.39-.77l.26-.07v-.09a3.32,3.32,0,0,1-.76-.29,2.51,2.51,0,0,1-.67-.44,2.15,2.15,0,0,1-.54-.76,2.38,2.38,0,0,1-.22-1,2.83,2.83,0,0,1,1.25-2.38,7,7,0,0,1,6.85,0,2.84,2.84,0,0,1,1.25,2.38,2.63,2.63,0,0,1-.22,1,2,2,0,0,1-.55.74,3.72,3.72,0,0,1-1.2.68l-.22.05V260l.28.07a5.42,5.42,0,0,1,.62.27,3.79,3.79,0,0,1,.77.5,2.83,2.83,0,0,1,.62.82,2.71,2.71,0,0,1,.27,1.2A3,3,0,0,1,200.92,265.39ZM195.13,264a4.88,4.88,0,0,0,4.2,0,1.6,1.6,0,0,0,0-2.7,5,5,0,0,0-4.2,0,1.53,1.53,0,0,0-.74,1.35A1.5,1.5,0,0,0,195.13,264Zm-.36-6.52a1.35,1.35,0,0,0,.64,1.19,4,4,0,0,0,3.65,0,1.42,1.42,0,0,0,0-2.39,4,4,0,0,0-3.62,0A1.38,1.38,0,0,0,194.77,257.51Z" fill="#003a50"/><path d="M204.39,266a1.17,1.17,0,0,1,0-1.61,1.41,1.41,0,0,1,1.74,0,1.17,1.17,0,0,1,0,1.61,1.41,1.41,0,0,1-1.74,0Z" fill="#003a50"/><path d="M218,257.6H215.8s0-.07,0-.18a1.85,1.85,0,0,0-.21-.44,2.69,2.69,0,0,0-.39-.5,1.9,1.9,0,0,0-.71-.41,2.93,2.93,0,0,0-1-.16,2.51,2.51,0,0,0-2.15,1,4.41,4.41,0,0,0-.76,2.68h.06a1.63,1.63,0,0,1,.44-.43,6.49,6.49,0,0,1,.6-.37,5.11,5.11,0,0,1,1-.3,6.16,6.16,0,0,1,1.22-.13,5,5,0,0,1,3.37,1.12,3.5,3.5,0,0,1,1.31,2.79,3.57,3.57,0,0,1-1.37,2.91,5.49,5.49,0,0,1-3.6,1.11,4.81,4.81,0,0,1-3.87-1.55,6.36,6.36,0,0,1-1.32-4.27v-.4a6.83,6.83,0,0,1,1.32-4.31,4.5,4.5,0,0,1,3.8-1.72,5.66,5.66,0,0,1,2.13.38,3.84,3.84,0,0,1,1.44.94A3.43,3.43,0,0,1,218,257.6Zm-2.51,3.14a3.65,3.65,0,0,0-3.95,0,2,2,0,0,0,0,3.15,3.63,3.63,0,0,0,4,0,1.85,1.85,0,0,0,.77-1.57A1.88,1.88,0,0,0,215.5,260.74Z" fill="#003a50"/></g></svg>