<svg id="Слой_1" data-name="Слой 1" xmlns="http://www.w3.org/2000/svg" xmlns:xlink="http://www.w3.org/1999/xlink" viewBox="0 0 583.94 632.13"><defs><clipPath id="clip-path"><polygon points="0.14 0 0.14 632.13 405.41 632.13 405.41 231.19 531.97 231.19 531.97 180.57 583.94 180.57 583.94 0 0.14 0" fill="none"/></clipPath></defs><polygon points="19.91 0 19.91 0.42 520.55 2.75 520.26 0 19.91 0" fill="#fff"/><polygon points="509.05 11.68 509.05 11.98 18.96 11.98 18.96 203 18.96 231.21 18.96 615.33 395.68 615.33 395.68 219.61 516.39 219.61 515.9 178.43 515.9 129.09 516.39 112.92 529.23 112.92 529.23 11.68 509.05 11.68" fill="#fff"/><polygon points="390.87 615.33 405.41 615.33 405.41 231.19 531.97 231.19 531.97 231.02 390.87 230.29 390.87 615.33" fill="#fff"/><g clip-path="url(#clip-path)"><rect x="6.21" y="-1610.86" width="1162.95" height="2240.57" fill="none" stroke="#003a50" stroke-miterlimit="10"/><polygon points="18.8 -506.69 18.8 616.86 1156.19 616.86 1156.19 -1597.92 18.8 -1598.07 18.8 -577.4 18.8 -506.69" fill="none" stroke="#003a50" stroke-miterlimit="10"/></g><rect x="39.42" y="50.58" width="4.55" height="87.8" fill="#fff"/><rect x="39.41" y="50.58" width="4.55" height="87.8" fill="none" stroke="#003a50" stroke-miterlimit="10"/><line x1="41.69" y1="50.58" x2="41.69" y2="138.38" fill="none" stroke="#003a50" stroke-miterlimit="10"/><rect x="39.42" y="50.58" width="4.55" height="4.55" fill="#fff"/><rect x="39.41" y="50.58" width="4.55" height="4.55" fill="none" stroke="#003a50" stroke-miterlimit="10"/><rect x="39.42" y="133.83" width="4.55" height="4.55" fill="#fff"/><rect x="39.41" y="133.83" width="4.55" height="4.55" fill="none" stroke="#003a50" stroke-miterlimit="10"/><rect x="39.42" y="93.28" width="4.55" height="4.55" fill="#fff"/><rect x="39.41" y="93.28" width="4.55" height="4.55" fill="none" stroke="#003a50" stroke-miterlimit="10"/><g clip-path="url(#clip-path)"><path d="M44,97.83h2.9C67,97.83,80,114,80,133.83H44" fill="none" stroke="#003a50" stroke-miterlimit="10"/></g><rect x="39.42" y="230.17" width="4.55" height="87.81" fill="#fff"/><rect x="39.41" y="230.17" width="4.55" height="87.81" fill="none" stroke="#003a50" stroke-miterlimit="10"/><line x1="41.69" y1="230.17" x2="41.69" y2="317.98" fill="none" stroke="#003a50" stroke-miterlimit="10"/><rect x="39.42" y="230.17" width="4.55" height="4.55" fill="#fff"/><rect x="39.41" y="230.17" width="4.55" height="4.55" fill="none" stroke="#003a50" stroke-miterlimit="10"/><rect x="39.42" y="313.42" width="4.55" height="4.56" fill="#fff"/><rect x="39.41" y="313.42" width="4.55" height="4.56" fill="none" stroke="#003a50" stroke-miterlimit="10"/><rect x="39.42" y="272.87" width="4.55" height="4.56" fill="#fff"/><rect x="39.41" y="272.87" width="4.55" height="4.56" fill="none" stroke="#003a50" stroke-miterlimit="10"/><g clip-path="url(#clip-path)"><path d="M44,277.42h2.9c20.14,0,33.1,16.12,33.1,36H44" fill="none" stroke="#003a50" stroke-miterlimit="10"/></g><rect x="39.42" y="413.76" width="4.55" height="87.8" fill="#fff"/><rect x="39.41" y="413.76" width="4.55" height="87.8" fill="none" stroke="#003a50" stroke-miterlimit="10"/><line x1="41.69" y1="501.57" x2="41.69" y2="413.76" fill="none" stroke="#003a50" stroke-miterlimit="10"/><rect x="39.42" y="497.01" width="4.55" height="4.55" fill="#fff"/><rect x="39.41" y="497.01" width="4.55" height="4.55" fill="none" stroke="#003a50" stroke-miterlimit="10"/><rect x="39.42" y="413.76" width="4.55" height="4.55" fill="#fff"/><rect x="39.41" y="413.76" width="4.55" height="4.55" fill="none" stroke="#003a50" stroke-miterlimit="10"/><rect x="39.42" y="454.31" width="4.55" height="4.55" fill="#fff"/><rect x="39.41" y="454.31" width="4.55" height="4.55" fill="none" stroke="#003a50" stroke-miterlimit="10"/><g clip-path="url(#clip-path)"><path d="M44,454.32h2.9c20.14,0,33.1-16.12,33.1-36H44" fill="none" stroke="#003a50" stroke-miterlimit="10"/></g><rect x="62.1" y="591.31" width="141.78" height="4.56" fill="#fff"/><rect x="62.09" y="591.31" width="141.78" height="4.56" fill="none" stroke="#003a50" stroke-miterlimit="10"/><line x1="203.88" y1="593.58" x2="62.09" y2="593.58" fill="none" stroke="#003a50" stroke-miterlimit="10"/><rect x="167.1" y="591.31" width="4.55" height="4.56" fill="#fff"/><rect x="167.1" y="591.31" width="4.55" height="4.56" fill="none" stroke="#003a50" stroke-miterlimit="10"/><rect x="134.87" y="591.31" width="4.55" height="4.56" fill="#fff"/><rect x="134.87" y="591.31" width="4.55" height="4.56" fill="none" stroke="#003a50" stroke-miterlimit="10"/><rect x="199.33" y="591.31" width="4.55" height="4.56" fill="#fff"/><rect x="199.33" y="591.31" width="4.55" height="4.56" fill="none" stroke="#003a50" stroke-miterlimit="10"/><rect x="62.1" y="591.31" width="4.55" height="4.56" fill="#fff"/><rect x="62.09" y="591.31" width="4.55" height="4.56" fill="none" stroke="#003a50" stroke-miterlimit="10"/><rect x="102.65" y="591.31" width="4.55" height="4.56" fill="#fff"/><rect x="102.65" y="591.31" width="4.55" height="4.56" fill="none" stroke="#003a50" stroke-miterlimit="10"/><g clip-path="url(#clip-path)"><path d="M102.65,591.31v-2.9c0-20.15-16.12-33.1-36-33.1v36" fill="none" stroke="#003a50" stroke-miterlimit="10"/></g><rect x="299.93" y="591.31" width="87.81" height="4.56" fill="#fff"/><rect x="299.93" y="591.31" width="87.81" height="4.56" fill="none" stroke="#003a50" stroke-miterlimit="10"/><line x1="387.74" y1="593.58" x2="299.93" y2="593.58" fill="none" stroke="#003a50" stroke-miterlimit="10"/><rect x="383.19" y="591.31" width="4.55" height="4.56" fill="#fff"/><rect x="383.19" y="591.31" width="4.55" height="4.56" fill="none" stroke="#003a50" stroke-miterlimit="10"/><rect x="299.93" y="591.31" width="4.55" height="4.56" fill="#fff"/><rect x="299.93" y="591.31" width="4.55" height="4.56" fill="none" stroke="#003a50" stroke-miterlimit="10"/><rect x="340.49" y="591.31" width="4.55" height="4.56" fill="#fff"/><rect x="340.49" y="591.31" width="4.55" height="4.56" fill="none" stroke="#003a50" stroke-miterlimit="10"/><g clip-path="url(#clip-path)"><path d="M340.49,591.31v-2.9c0-20.15-16.12-33.1-36-33.1v36" fill="none" stroke="#003a50" stroke-miterlimit="10"/><path d="M466.64,591.31v-2.9c0-20.15,16.28-33.1,36.36-33.1v36" fill="none" stroke="#003a50" stroke-miterlimit="10"/><rect x="404.23" y="256.36" width="42.38" height="92.09" fill="none" stroke="#003a50" stroke-miterlimit="10"/><rect x="409.21" y="260.16" width="32.03" height="84.24" rx="13.7" fill="none" stroke="#003a50" stroke-miterlimit="10"/><path d="M427.52,274.74a2.21,2.21,0,1,0-2.2,2.2A2.2,2.2,0,0,0,427.52,274.74Z" fill="none" stroke="#003a50" stroke-miterlimit="10"/></g><rect x="347.51" y="256.36" width="42.38" height="92.78" fill="none" stroke="#003a50" stroke-miterlimit="10"/><g clip-path="url(#clip-path)"><rect x="352.49" y="260.16" width="32.03" height="84.24" rx="13.7" fill="none" stroke="#003a50" stroke-miterlimit="10"/><path d="M370.79,274.74a2.21,2.21,0,1,0-2.2,2.2A2.2,2.2,0,0,0,370.79,274.74Z" fill="none" stroke="#003a50" stroke-miterlimit="10"/><path d="M489.26,284.44V255.87H466.18v28.57a11.54,11.54,0,1,0,23.08,0Z" fill="none" stroke="#003a50" stroke-miterlimit="10"/><path d="M333.72,284.44V255.87H310.65v28.57a11.54,11.54,0,1,0,23.07,0Z" fill="none" stroke="#003a50" stroke-miterlimit="10"/></g><rect x="310.65" y="255.87" width="23.08" height="11.08" fill="none" stroke="#003a50" stroke-miterlimit="10"/><g clip-path="url(#clip-path)"><path d="M532.81,241.14a3.37,3.37,0,0,0,3.12-2.1h1.93l5.1,3.05-2.31,3.76L538,244.4v11.82h-11.1V244.4l-2.65,1.45-2.31-3.76,5.14-3.05h2.57A3.43,3.43,0,0,0,532.81,241.14Z" fill="none" stroke="#003a50" stroke-miterlimit="10"/><rect x="515.43" y="231.24" width="34.02" height="32.78" fill="none" stroke="#003a50" stroke-miterlimit="10"/><path d="M421.6,89.81a3.16,3.16,0,0,0,2.9-2h1.79L431,90.69l-2.14,3.49-2.47-1.35v11h-10.3v-11l-2.46,1.35-2.15-3.49,4.77-2.83h2.39A3.21,3.21,0,0,0,421.6,89.81Z" fill="none" stroke="#003a50" stroke-miterlimit="10"/></g><rect x="405.48" y="80.62" width="31.57" height="30.42" fill="none" stroke="#003a50" stroke-miterlimit="10"/><rect x="366.26" y="82.67" width="32.72" height="33.97" fill="none" stroke="#003a50" stroke-miterlimit="10"/><g clip-path="url(#clip-path)"><path d="M386.93,98.13v-11h-8.61v11a3.55,3.55,0,0,0,3.55,3.55h1.51A3.55,3.55,0,0,0,386.93,98.13Z" fill="none" stroke="#003a50" stroke-miterlimit="10"/></g><polyline points="379.15 112.23 382.63 112.23 386.1 112.23" fill="none" stroke="#003a50" stroke-miterlimit="10"/><line x1="382.63" y1="101.67" x2="382.63" y2="112.23" fill="none" stroke="#003a50" stroke-miterlimit="10"/><rect x="321.32" y="13.65" width="34.02" height="34.02" fill="none" stroke="#003a50" stroke-miterlimit="10"/><g clip-path="url(#clip-path)"><path d="M350.73,38.26a4.64,4.64,0,1,1-4.63-4.63A4.63,4.63,0,0,1,350.73,38.26Z" fill="none" stroke="#003a50" stroke-miterlimit="10"/><path d="M335.25,38.26a4.64,4.64,0,1,1-4.64-4.63A4.64,4.64,0,0,1,335.25,38.26Z" fill="none" stroke="#003a50" stroke-miterlimit="10"/><path d="M350.73,23.17a4.64,4.64,0,1,1-4.63-4.63A4.63,4.63,0,0,1,350.73,23.17Z" fill="none" stroke="#003a50" stroke-miterlimit="10"/><path d="M335.25,23.17a4.64,4.64,0,1,1-4.64-4.63A4.64,4.64,0,0,1,335.25,23.17Z" fill="none" stroke="#003a50" stroke-miterlimit="10"/></g><rect x="54.12" y="185.29" width="102.05" height="17.01" fill="none" stroke="#003a50" stroke-miterlimit="10"/><polygon points="62.14 193.26 105.04 196.79 148.14 193.26 148.14 190.8 62.14 190.8 62.14 193.26" fill="none" stroke="#003a50" stroke-miterlimit="10"/><rect x="307.47" y="14.07" width="58.79" height="33.59" fill="none" stroke="#003a50" stroke-miterlimit="10"/><rect x="366.26" y="14.07" width="32.72" height="102.57" fill="none" stroke="#003a50" stroke-miterlimit="10"/><rect x="337.07" y="444.76" width="52.33" height="113.67" fill="none" stroke="#003a50" stroke-miterlimit="10"/><g clip-path="url(#clip-path)"><path d="M380.47,454.46H346.42a2.11,2.11,0,0,0-2.1,2.11v67.62h38.25V456.57A2.11,2.11,0,0,0,380.47,454.46Z" fill="none" stroke="#003a50" stroke-miterlimit="10"/></g><rect x="344.31" y="510.34" width="38.26" height="13.85" fill="none" stroke="#003a50" stroke-miterlimit="10"/><g clip-path="url(#clip-path)"><rect x="344.26" y="527.8" width="38.71" height="22.88" rx="2.2" fill="none" stroke="#003a50" stroke-miterlimit="10"/><path d="M205.52,57.09a1.26,1.26,0,0,1-1.21,1.31A13.79,13.79,0,0,0,205.38,86a1.26,1.26,0,1,1,.1,2.51,16.3,16.3,0,0,1-1.27-32.58A1.27,1.27,0,0,1,205.52,57.09Z" fill="none" stroke="#003a50" stroke-miterlimit="10"/><path d="M212.46,94.65a1.25,1.25,0,0,1,.87,1.55,13.78,13.78,0,0,0,26.53,7.5,1.27,1.27,0,0,1,1.56-.88,1.26,1.26,0,0,1,.86,1.56,16.3,16.3,0,1,1-31.37-8.86A1.26,1.26,0,0,1,212.46,94.65Z" fill="none" stroke="#003a50" stroke-miterlimit="10"/><path d="M250.24,99a1.26,1.26,0,0,1,1.74-.35,13.78,13.78,0,1,0,15.33-22.91,1.26,1.26,0,0,1,1.4-2.1,16.3,16.3,0,1,1-18.12,27.1A1.25,1.25,0,0,1,250.24,99Z" fill="none" stroke="#003a50" stroke-miterlimit="10"/><path d="M267.42,64.44a1.26,1.26,0,0,1,.21-1.77A13.78,13.78,0,1,0,250.57,41,1.26,1.26,0,0,1,249,39a16.3,16.3,0,0,1,20.18,25.61A1.26,1.26,0,0,1,267.42,64.44Z" fill="none" stroke="#003a50" stroke-miterlimit="10"/><path d="M238.6,40.39a1.27,1.27,0,0,1-.86-1.56,13.79,13.79,0,1,0-26.46-7.75,1.26,1.26,0,0,1-2.41-.71,16.3,16.3,0,0,1,31.29,9.16A1.27,1.27,0,0,1,238.6,40.39Z" fill="none" stroke="#003a50" stroke-miterlimit="10"/><path d="M215.35,84.41l-9.36.36a12.65,12.65,0,1,1-1-25.28l9-.32a23.7,23.7,0,0,0,1.28,25.24Z" fill="none" stroke="#003a50" stroke-miterlimit="10"/><path d="M241.51,93.65,239,102.73a12.65,12.65,0,1,1-24.36-6.84l2.6-9.2a23.6,23.6,0,0,0,24.32,7Z" fill="none" stroke="#003a50" stroke-miterlimit="10"/><path d="M269.59,93.85a12.67,12.67,0,0,1-17.52,3.52l-7.28-4.88a23.88,23.88,0,0,0,13.12-15.24,24.8,24.8,0,0,0,.84-5.84l7.36,4.92A12.63,12.63,0,0,1,269.59,93.85Z" fill="none" stroke="#003a50" stroke-miterlimit="10"/><path d="M266.39,62.21l-7.72,6.08a23.88,23.88,0,0,0-15.56-20l7.64-6a12.65,12.65,0,1,1,15.64,19.88Z" fill="none" stroke="#003a50" stroke-miterlimit="10"/><path d="M236.47,39.13l-2.28,7.76A23.58,23.58,0,0,0,225.11,49l-15.28-4.48A1.21,1.21,0,0,1,209,43l3.08-10.64a12.87,12.87,0,0,1,13.2-9.4A12.67,12.67,0,0,1,236.47,39.13Z" fill="none" stroke="#003a50" stroke-miterlimit="10"/><path d="M258.75,71.41a24.8,24.8,0,0,1-.84,5.84,23.88,23.88,0,0,1-13.12,15.24,24.6,24.6,0,0,1-3.28,1.16,23.6,23.6,0,0,1-24.32-7,25.46,25.46,0,0,1-1.84-2.28,23.7,23.7,0,0,1-1.28-25.24,24,24,0,0,1,11-10.16,23.84,23.84,0,0,1,16.32-1.24c.56.16,1.12.36,1.68.56a23.88,23.88,0,0,1,15.56,20A27.09,27.09,0,0,1,258.75,71.41Z" fill="none" stroke="#003a50" stroke-miterlimit="10"/><path d="M444.59,383.33a1,1,0,0,1-.54.9,1,1,0,0,1-1.3-.45,29.69,29.69,0,0,1,0-25.26,1,1,0,0,1,1.29-.46,1,1,0,0,1,.45,1.34,27.64,27.64,0,0,0,0,23.49A1.17,1.17,0,0,1,444.59,383.33Z" fill="none" stroke="#003a50" stroke-miterlimit="10"/><path d="M439.22,383.33a1,1,0,0,1-.54.9,1,1,0,0,1-1.3-.45,29.69,29.69,0,0,1,0-25.26,1,1,0,0,1,1.29-.46,1,1,0,0,1,.45,1.34,27.64,27.64,0,0,0,0,23.49A1.17,1.17,0,0,1,439.22,383.33Z" fill="none" stroke="#003a50" stroke-miterlimit="10"/><path d="M433.84,383.33a1,1,0,0,1-.54.9.94.94,0,0,1-1.29-.45,29.69,29.69,0,0,1,0-25.26,1,1,0,0,1,1.29-.46,1,1,0,0,1,.44,1.34,27.64,27.64,0,0,0,0,23.49A1,1,0,0,1,433.84,383.33Z" fill="none" stroke="#003a50" stroke-miterlimit="10"/><path d="M428.47,383.33a1,1,0,0,1-.54.9.94.94,0,0,1-1.29-.45,29.69,29.69,0,0,1,0-25.26,1,1,0,0,1,1.29-.46,1,1,0,0,1,.44,1.34,27.64,27.64,0,0,0,0,23.49A1,1,0,0,1,428.47,383.33Z" fill="none" stroke="#003a50" stroke-miterlimit="10"/><path d="M423.1,383.33a1,1,0,0,1-.54.9,1,1,0,0,1-1.3-.45,29.69,29.69,0,0,1,0-25.26,1,1,0,0,1,1.3-.46,1,1,0,0,1,.44,1.34,27.64,27.64,0,0,0,0,23.49A1,1,0,0,1,423.1,383.33Z" fill="none" stroke="#003a50" stroke-miterlimit="10"/><path d="M417.73,383.33a1,1,0,0,1-.54.9,1,1,0,0,1-1.3-.45,29.69,29.69,0,0,1,0-25.26,1,1,0,0,1,1.3-.46,1,1,0,0,1,.44,1.34,27.64,27.64,0,0,0,0,23.49A1,1,0,0,1,417.73,383.33Z" fill="none" stroke="#003a50" stroke-miterlimit="10"/><path d="M450,383.33a1,1,0,0,1-.54.9,1,1,0,0,1-1.3-.45,29.69,29.69,0,0,1,0-25.26,1,1,0,0,1,1.29-.46,1,1,0,0,1,.45,1.34,27.64,27.64,0,0,0,0,23.49A1,1,0,0,1,450,383.33Z" fill="none" stroke="#003a50" stroke-miterlimit="10"/><path d="M455.33,383.33a1,1,0,0,1-.54.9,1,1,0,0,1-1.3-.45,29.69,29.69,0,0,1,0-25.26,1,1,0,0,1,1.3-.46,1,1,0,0,1,.44,1.34,27.64,27.64,0,0,0,0,23.49A1,1,0,0,1,455.33,383.33Z" fill="none" stroke="#003a50" stroke-miterlimit="10"/><line x1="567.37" y1="371.15" x2="403.49" y2="371.15" fill="none" stroke="#003a50" stroke-miterlimit="10"/><rect x="404.51" y="353.86" width="162.86" height="34.02" fill="none" stroke="#003a50" stroke-miterlimit="10"/><path d="M437.25,210.13a1,1,0,0,1-.54.9,1,1,0,0,1-1.3-.45,29.69,29.69,0,0,1,0-25.26,1,1,0,0,1,1.29-.46,1,1,0,0,1,.45,1.34,27.64,27.64,0,0,0,0,23.49A1,1,0,0,1,437.25,210.13Z" fill="none" stroke="#003a50" stroke-miterlimit="10"/><path d="M431.88,210.13a1,1,0,0,1-.54.9,1,1,0,0,1-1.3-.45,29.69,29.69,0,0,1,0-25.26,1,1,0,0,1,1.29-.46,1,1,0,0,1,.45,1.34,27.64,27.64,0,0,0,0,23.49A1.17,1.17,0,0,1,431.88,210.13Z" fill="none" stroke="#003a50" stroke-miterlimit="10"/><path d="M426.51,210.13a1,1,0,0,1-.54.9,1,1,0,0,1-1.3-.45,29.69,29.69,0,0,1,0-25.26,1,1,0,0,1,1.29-.46,1,1,0,0,1,.45,1.34,27.64,27.64,0,0,0,0,23.49A1.17,1.17,0,0,1,426.51,210.13Z" fill="none" stroke="#003a50" stroke-miterlimit="10"/><path d="M421.13,210.13a1,1,0,0,1-.54.9.94.94,0,0,1-1.29-.45,29.69,29.69,0,0,1,0-25.26,1,1,0,0,1,1.29-.46,1,1,0,0,1,.44,1.34,27.64,27.64,0,0,0,0,23.49A1,1,0,0,1,421.13,210.13Z" fill="none" stroke="#003a50" stroke-miterlimit="10"/><path d="M415.76,210.13a1,1,0,0,1-.54.9.94.94,0,0,1-1.29-.45,29.69,29.69,0,0,1,0-25.26,1,1,0,0,1,1.29-.46,1,1,0,0,1,.44,1.34,27.64,27.64,0,0,0,0,23.49A1,1,0,0,1,415.76,210.13Z" fill="none" stroke="#003a50" stroke-miterlimit="10"/><path d="M410.39,210.13a1,1,0,0,1-.54.9,1,1,0,0,1-1.3-.45,29.69,29.69,0,0,1,0-25.26,1,1,0,0,1,1.3-.46,1,1,0,0,1,.44,1.34,27.64,27.64,0,0,0,0,23.49A1,1,0,0,1,410.39,210.13Z" fill="none" stroke="#003a50" stroke-miterlimit="10"/><path d="M442.62,210.13a1,1,0,0,1-.54.9,1,1,0,0,1-1.3-.45,29.69,29.69,0,0,1,0-25.26,1,1,0,0,1,1.3-.46,1,1,0,0,1,.44,1.34,27.64,27.64,0,0,0,0,23.49A1,1,0,0,1,442.62,210.13Z" fill="none" stroke="#003a50" stroke-miterlimit="10"/><path d="M448,210.13a1,1,0,0,1-.54.9,1,1,0,0,1-1.3-.45,29.69,29.69,0,0,1,0-25.26,1,1,0,0,1,1.3-.46,1,1,0,0,1,.44,1.34,27.64,27.64,0,0,0,0,23.49A1,1,0,0,1,448,210.13Z" fill="none" stroke="#003a50" stroke-miterlimit="10"/></g><line x1="515.78" y1="197.95" x2="396.16" y2="197.95" fill="none" stroke="#003a50" stroke-miterlimit="10"/><rect x="396.9" y="180.38" width="119.14" height="34.58" fill="none" stroke="#003a50" stroke-miterlimit="10"/><rect x="300.09" y="323.51" width="47.18" height="25.39" fill="none" stroke="#003a50" stroke-miterlimit="10"/><g clip-path="url(#clip-path)"><rect x="309.98" y="325.57" width="24.4" height="25.04" rx="2.83" fill="none" stroke="#003a50" stroke-miterlimit="10"/><path d="M322.19,336.18a1.91,1.91,0,1,1-1.92,1.91A1.92,1.92,0,0,1,322.19,336.18Z" fill="none" stroke="#003a50" stroke-miterlimit="10"/><rect x="465.04" y="324.63" width="24.4" height="25.04" rx="2.83" fill="none" stroke="#003a50" stroke-miterlimit="10"/><path d="M477.24,335.24a1.91,1.91,0,1,1-1.91,1.91A1.92,1.92,0,0,1,477.24,335.24Z" fill="none" stroke="#003a50" stroke-miterlimit="10"/><rect x="328.51" y="-34.34" width="34.02" height="34.02" fill="none" stroke="#003a50" stroke-miterlimit="10"/></g><rect x="405.7" y="40.41" width="81.73" height="27.04" fill="none" stroke="#003a50" stroke-miterlimit="10"/><g clip-path="url(#clip-path)"><path d="M473.48,63.62A.8.8,0,0,1,472,64a22.88,22.88,0,0,1,0-20.08.8.8,0,0,1,1.07-.36.8.8,0,0,1,.36,1.07,21.25,21.25,0,0,0,0,18.67A.72.72,0,0,1,473.48,63.62Z" fill="none" stroke="#003a50" stroke-miterlimit="10"/><path d="M469.06,63.62a.8.8,0,0,1-1.51.35,22.8,22.8,0,0,1,0-20.08.8.8,0,0,1,1.43.71,21.25,21.25,0,0,0,0,18.67A.72.72,0,0,1,469.06,63.62Z" fill="none" stroke="#003a50" stroke-miterlimit="10"/><path d="M464.64,63.62a.8.8,0,0,1-1.52.35,22.88,22.88,0,0,1,0-20.08.81.81,0,0,1,1.07-.36.8.8,0,0,1,.36,1.07,21.34,21.34,0,0,0,0,18.67A.73.73,0,0,1,464.64,63.62Z" fill="none" stroke="#003a50" stroke-miterlimit="10"/><path d="M460.21,63.62a.8.8,0,0,1-1.51.35,22.88,22.88,0,0,1,0-20.08.8.8,0,0,1,1.07-.36.8.8,0,0,1,.36,1.07,21.25,21.25,0,0,0,0,18.67A.72.72,0,0,1,460.21,63.62Z" fill="none" stroke="#003a50" stroke-miterlimit="10"/><path d="M455.79,63.62a.8.8,0,0,1-1.51.35,22.8,22.8,0,0,1,0-20.08.8.8,0,0,1,1.43.71,21.25,21.25,0,0,0,0,18.67A.72.72,0,0,1,455.79,63.62Z" fill="none" stroke="#003a50" stroke-miterlimit="10"/><path d="M451.37,63.62a.8.8,0,0,1-1.52.35,22.88,22.88,0,0,1,0-20.08.81.81,0,0,1,1.07-.36.8.8,0,0,1,.36,1.07,21.34,21.34,0,0,0,0,18.67A.73.73,0,0,1,451.37,63.62Z" fill="none" stroke="#003a50" stroke-miterlimit="10"/><path d="M477.91,63.62a.8.8,0,0,1-1.52.35,22.88,22.88,0,0,1,0-20.08.81.81,0,0,1,1.07-.36.8.8,0,0,1,.36,1.07,21.34,21.34,0,0,0,0,18.67A.73.73,0,0,1,477.91,63.62Z" fill="none" stroke="#003a50" stroke-miterlimit="10"/><path d="M482.33,63.62a.8.8,0,0,1-1.51.35,22.8,22.8,0,0,1,0-20.08.8.8,0,0,1,1.43.71,21.25,21.25,0,0,0,0,18.67A.72.72,0,0,1,482.33,63.62Z" fill="none" stroke="#003a50" stroke-miterlimit="10"/></g><line x1="487.09" y1="53.93" x2="405.7" y2="53.93" fill="none" stroke="#003a50" stroke-miterlimit="10"/><rect x="300.71" y="353.86" width="90.71" height="34.02" fill="none" stroke="#003a50" stroke-miterlimit="10"/><g clip-path="url(#clip-path)"><path d="M343.28,383.05a1,1,0,0,1-.56.9,1,1,0,0,1-1.35-.45,28.77,28.77,0,0,1,0-25.26,1,1,0,0,1,1.34-.46,1,1,0,0,1,.46,1.34,26.81,26.81,0,0,0,0,23.49A1,1,0,0,1,343.28,383.05Z" fill="none" stroke="#003a50" stroke-miterlimit="10"/><path d="M337.71,383.05a1,1,0,0,1-1.9.45,28.77,28.77,0,0,1,0-25.26,1,1,0,1,1,1.8.88,26.72,26.72,0,0,0,0,23.49A1,1,0,0,1,337.71,383.05Z" fill="none" stroke="#003a50" stroke-miterlimit="10"/><path d="M332.15,383.05a1,1,0,0,1-.56.9,1,1,0,0,1-1.35-.45,28.77,28.77,0,0,1,0-25.26,1,1,0,0,1,1.34-.46,1,1,0,0,1,.46,1.34,26.81,26.81,0,0,0,0,23.49A1,1,0,0,1,332.15,383.05Z" fill="none" stroke="#003a50" stroke-miterlimit="10"/><path d="M326.58,383.05a1,1,0,0,1-1.9.45,28.77,28.77,0,0,1,0-25.26,1,1,0,1,1,1.8.88,26.72,26.72,0,0,0,0,23.49A1,1,0,0,1,326.58,383.05Z" fill="none" stroke="#003a50" stroke-miterlimit="10"/><path d="M321,383.05a1,1,0,0,1-.56.9,1,1,0,0,1-1.35-.45,28.77,28.77,0,0,1,0-25.26,1,1,0,0,1,1.34-.46,1,1,0,0,1,.46,1.34,26.81,26.81,0,0,0,0,23.49A1,1,0,0,1,321,383.05Z" fill="none" stroke="#003a50" stroke-miterlimit="10"/><path d="M315.45,383.05a1,1,0,0,1-1.9.45,28.77,28.77,0,0,1,0-25.26,1,1,0,1,1,1.8.88,26.72,26.72,0,0,0,0,23.49A1,1,0,0,1,315.45,383.05Z" fill="none" stroke="#003a50" stroke-miterlimit="10"/><path d="M348.84,383.05a1,1,0,0,1-1.9.45,28.77,28.77,0,0,1,0-25.26,1,1,0,1,1,1.8.88,26.72,26.72,0,0,0,0,23.49A1,1,0,0,1,348.84,383.05Z" fill="none" stroke="#003a50" stroke-miterlimit="10"/><path d="M354.41,383.05a1,1,0,0,1-.56.9,1,1,0,0,1-1.35-.45,28.77,28.77,0,0,1,0-25.26,1,1,0,0,1,1.34-.46,1,1,0,0,1,.46,1.34,26.81,26.81,0,0,0,0,23.49A.9.9,0,0,1,354.41,383.05Z" fill="none" stroke="#003a50" stroke-miterlimit="10"/></g><line x1="391.41" y1="370.87" x2="300.71" y2="370.87" fill="none" stroke="#003a50" stroke-miterlimit="10"/><rect x="54.4" y="329.46" width="88.65" height="34.02" fill="none" stroke="#003a50" stroke-miterlimit="10"/><g clip-path="url(#clip-path)"><path d="M97,358.65a1,1,0,0,1-1.9.45,28.77,28.77,0,0,1,0-25.26,1,1,0,1,1,1.8.88,26.72,26.72,0,0,0,0,23.49A1,1,0,0,1,97,358.65Z" fill="none" stroke="#003a50" stroke-miterlimit="10"/><path d="M91.41,358.65a1,1,0,0,1-.56.9,1,1,0,0,1-1.35-.45,28.77,28.77,0,0,1,0-25.26,1,1,0,0,1,1.34-.46,1,1,0,0,1,.46,1.34,26.81,26.81,0,0,0,0,23.49A.9.9,0,0,1,91.41,358.65Z" fill="none" stroke="#003a50" stroke-miterlimit="10"/><path d="M85.84,358.65a1,1,0,0,1-1.9.45,28.77,28.77,0,0,1,0-25.26,1,1,0,1,1,1.8.88,26.72,26.72,0,0,0,0,23.49A1,1,0,0,1,85.84,358.65Z" fill="none" stroke="#003a50" stroke-miterlimit="10"/><path d="M80.28,358.65a1,1,0,0,1-.56.9,1,1,0,0,1-1.35-.45,28.77,28.77,0,0,1,0-25.26,1,1,0,0,1,1.34-.46,1,1,0,0,1,.46,1.34,26.81,26.81,0,0,0,0,23.49A1,1,0,0,1,80.28,358.65Z" fill="none" stroke="#003a50" stroke-miterlimit="10"/><path d="M74.71,358.65a1,1,0,0,1-1.9.45,28.77,28.77,0,0,1,0-25.26,1,1,0,1,1,1.8.88,26.72,26.72,0,0,0,0,23.49A1,1,0,0,1,74.71,358.65Z" fill="none" stroke="#003a50" stroke-miterlimit="10"/><path d="M69.15,358.65a1,1,0,0,1-.56.9,1,1,0,0,1-1.35-.45,28.77,28.77,0,0,1,0-25.26,1,1,0,0,1,1.34-.46,1,1,0,0,1,.46,1.34,26.81,26.81,0,0,0,0,23.49A1,1,0,0,1,69.15,358.65Z" fill="none" stroke="#003a50" stroke-miterlimit="10"/><path d="M102.54,358.65a1,1,0,0,1-.56.9,1,1,0,0,1-1.35-.45,28.77,28.77,0,0,1,0-25.26,1,1,0,0,1,1.34-.46,1,1,0,0,1,.46,1.34,26.81,26.81,0,0,0,0,23.49A.9.9,0,0,1,102.54,358.65Z" fill="none" stroke="#003a50" stroke-miterlimit="10"/><path d="M108.1,358.65a1,1,0,0,1-.56.9,1,1,0,0,1-1.34-.45,28.77,28.77,0,0,1,0-25.26,1,1,0,1,1,1.8.88,26.72,26.72,0,0,0,0,23.49A1,1,0,0,1,108.1,358.65Z" fill="none" stroke="#003a50" stroke-miterlimit="10"/></g><line x1="143.05" y1="346.47" x2="54.4" y2="346.47" fill="none" stroke="#003a50" stroke-miterlimit="10"/><rect x="54.12" y="221.4" width="92.86" height="42.38" fill="none" stroke="#003a50" stroke-miterlimit="10"/><g clip-path="url(#clip-path)"><rect x="58.94" y="226.78" width="84.24" height="32.03" rx="13.7" fill="none" stroke="#003a50" stroke-miterlimit="10"/><path d="M128.6,240.5a2.21,2.21,0,1,1-2.2,2.2A2.2,2.2,0,0,1,128.6,240.5Z" fill="none" stroke="#003a50" stroke-miterlimit="10"/><path d="M194.42,296.75H223V273.67H194.42a11.54,11.54,0,0,0,0,23.08Z" fill="none" stroke="#003a50" stroke-miterlimit="10"/></g><rect x="211.9" y="273.67" width="11.08" height="23.08" fill="none" stroke="#003a50" stroke-miterlimit="10"/><rect x="109.17" y="363.61" width="34.02" height="41.8" fill="none" stroke="#003a50" stroke-miterlimit="10"/><g clip-path="url(#clip-path)"><path d="M138.37,381.65a1,1,0,0,1,.9.56,1,1,0,0,1-.46,1.34,28.77,28.77,0,0,1-25.26,0,1,1,0,0,1,.89-1.8,26.72,26.72,0,0,0,23.49,0A1,1,0,0,1,138.37,381.65Z" fill="none" stroke="#003a50" stroke-miterlimit="10"/><path d="M138.37,387.21a1,1,0,0,1,.44,1.91,28.77,28.77,0,0,1-25.26,0,1,1,0,0,1-.45-1.34,1,1,0,0,1,1.34-.46,26.81,26.81,0,0,0,23.49,0A.87.87,0,0,1,138.37,387.21Z" fill="none" stroke="#003a50" stroke-miterlimit="10"/><path d="M138.37,392.78a1,1,0,0,1,.44,1.9,28.77,28.77,0,0,1-25.26,0,1,1,0,0,1,.89-1.8,26.72,26.72,0,0,0,23.49,0A1,1,0,0,1,138.37,392.78Z" fill="none" stroke="#003a50" stroke-miterlimit="10"/><path d="M138.37,398.34a1,1,0,0,1,.44,1.91,28.77,28.77,0,0,1-25.26,0,1,1,0,0,1-.45-1.34,1,1,0,0,1,1.34-.46,26.81,26.81,0,0,0,23.49,0A.87.87,0,0,1,138.37,398.34Z" fill="none" stroke="#003a50" stroke-miterlimit="10"/></g><line x1="126.18" y1="363.47" x2="126.18" y2="405.42" fill="none" stroke="#003a50" stroke-miterlimit="10"/><g clip-path="url(#clip-path)"><rect x="362.52" y="-34.34" width="153.07" height="34.02" fill="none" stroke="#003a50" stroke-miterlimit="10"/><path d="M263,521.17A14.77,14.77,0,0,0,279,497.79a1.14,1.14,0,1,0-1.77,1.43A12.47,12.47,0,0,1,263,518.72Z" fill="none" stroke="#003a50" stroke-miterlimit="10"/><rect x="229.02" y="466.92" width="34.02" height="84.03" rx="3.31" fill="none" stroke="#003a50" stroke-miterlimit="10"/><path d="M232.73,548.4a1.4,1.4,0,0,0,1.4-1.4V470.86a1.4,1.4,0,0,0-2.8,0V547a1.4,1.4,0,0,0,1.4,1.4" fill="none" stroke="#003a50" stroke-miterlimit="10"/><path d="M247.31,480.59a5.51,5.51,0,1,1,0-7.79A5.51,5.51,0,0,1,247.31,480.59Z" fill="none" stroke="#003a50" stroke-miterlimit="10"/><path d="M247.68,480.18c-1-.1-2,.28-3-.7-1.46-1.46.08-3-1.38-4.47s-3,.08-4.47-1.38" fill="none" stroke="#003a50" stroke-miterlimit="10"/><path d="M263,516.46a10.63,10.63,0,1,0,0-19.59Z" fill="none" stroke="#003a50" stroke-miterlimit="10"/></g><rect x="200.41" y="549.55" width="22.68" height="22.68" fill="none" stroke="#003a50" stroke-miterlimit="10"/><g clip-path="url(#clip-path)"><path d="M218.25,567.39a9.19,9.19,0,1,1,0-13A9.19,9.19,0,0,1,218.25,567.39Z" fill="none" stroke="#003a50" stroke-miterlimit="10"/><path d="M218.87,566.7c-1.69-.17-3.41.48-5.06-1.17-2.44-2.44.14-5-2.3-7.45s-5,.13-7.46-2.31" fill="none" stroke="#003a50" stroke-miterlimit="10"/></g><rect x="200.41" y="408.41" width="22.68" height="22.68" fill="none" stroke="#003a50" stroke-miterlimit="10"/><g clip-path="url(#clip-path)"><path d="M218.25,426.26a9.2,9.2,0,1,1,0-13A9.19,9.19,0,0,1,218.25,426.26Z" fill="none" stroke="#003a50" stroke-miterlimit="10"/><path d="M218.87,425.56c-1.69-.16-3.41.49-5.06-1.16-2.44-2.44.14-5-2.3-7.46s-5,.14-7.46-2.3" fill="none" stroke="#003a50" stroke-miterlimit="10"/></g><rect x="109.7" y="438.56" width="113.39" height="102.05" fill="none" stroke="#003a50" stroke-miterlimit="10"/><g clip-path="url(#clip-path)"><path d="M119.44,530.61V448.56a2.08,2.08,0,0,1,2.08-2.08h67.64V532.7H121.52A2.09,2.09,0,0,1,119.44,530.61Z" fill="none" stroke="#003a50" stroke-miterlimit="10"/><rect x="192.78" y="446.22" width="22.88" height="42.5" rx="1.98" fill="none" stroke="#003a50" stroke-miterlimit="10"/><rect x="192.78" y="490.45" width="22.88" height="42.5" rx="1.98" fill="none" stroke="#003a50" stroke-miterlimit="10"/></g><line x1="175.31" y1="532.95" x2="175.31" y2="446.22" fill="none" stroke="#003a50" stroke-miterlimit="10"/><g clip-path="url(#clip-path)"><rect x="405.75" y="415.52" width="22.68" height="22.68" fill="none" stroke="#003a50" stroke-miterlimit="10"/><path d="M423.59,433.36a9.19,9.19,0,1,1,0-13A9.19,9.19,0,0,1,423.59,433.36Z" fill="none" stroke="#003a50" stroke-miterlimit="10"/><path d="M424.21,432.67c-1.69-.17-3.41.48-5.06-1.17-2.44-2.43.14-5-2.3-7.45s-5,.14-7.46-2.3" fill="none" stroke="#003a50" stroke-miterlimit="10"/><rect x="405.75" y="445.67" width="113.38" height="102.05" fill="none" stroke="#003a50" stroke-miterlimit="10"/><path d="M509.4,455.67v82.05a2.09,2.09,0,0,1-2.09,2.08H439.67V453.59h67.64A2.09,2.09,0,0,1,509.4,455.67Z" fill="none" stroke="#003a50" stroke-miterlimit="10"/><rect x="413.18" y="497.56" width="22.88" height="42.5" rx="1.98" fill="none" stroke="#003a50" stroke-miterlimit="10"/><rect x="413.18" y="453.33" width="22.88" height="42.5" rx="1.98" fill="none" stroke="#003a50" stroke-miterlimit="10"/></g><rect x="362.8" y="180.66" width="34.02" height="34.02" fill="none" stroke="#003a50" stroke-miterlimit="10"/><line x1="369.83" y1="197.67" x2="389.79" y2="197.67" fill="none" stroke="#003a50" stroke-miterlimit="10"/><line x1="379.81" y1="187.69" x2="379.81" y2="207.65" fill="none" stroke="#003a50" stroke-miterlimit="10"/><line x1="372.75" y1="190.61" x2="386.87" y2="204.72" fill="none" stroke="#003a50" stroke-miterlimit="10"/><line x1="386.87" y1="190.61" x2="372.76" y2="204.72" fill="none" stroke="#003a50" stroke-miterlimit="10"/><g clip-path="url(#clip-path)"><path d="M389.83,76.67V53.32A3.35,3.35,0,0,0,386.47,50h-15a3.36,3.36,0,0,0-3.36,3.35V76.67A3.36,3.36,0,0,0,371.52,80h15A3.35,3.35,0,0,0,389.83,76.67Z" fill="none" stroke="#003a50" stroke-miterlimit="10"/><circle cx="382.79" cy="65" r="2.46" transform="translate(176.25 393.78) rotate(-67.5)" fill="none" stroke="#003a50" stroke-miterlimit="10"/></g><line x1="382.03" y1="65" x2="395.65" y2="65" fill="none" stroke="#003a50" stroke-miterlimit="10"/><line x1="395.65" y1="58.19" x2="395.65" y2="71.81" fill="none" stroke="#003a50" stroke-miterlimit="10"/><g clip-path="url(#clip-path)"><path d="M113.22,60.41v-41H67.45V62.63H111A2.22,2.22,0,0,0,113.22,60.41Z" fill="none" stroke="#003a50" stroke-miterlimit="10"/><path d="M159.08,60.64V19.38H113.32V60.64a2,2,0,0,0,2,2h41.8A2,2,0,0,0,159.08,60.64Z" fill="none" stroke="#003a50" stroke-miterlimit="10"/><path d="M67.45,62.63a3.11,3.11,0,0,1-3.33,2.82H59.89a3.1,3.1,0,0,1-3.32-2.82V14.43H170V62.2A3.11,3.11,0,0,1,166.63,65h-4.22a3.11,3.11,0,0,1-3.33-2.83V19.38H67.45Z" fill="none" stroke="#003a50" stroke-miterlimit="10"/></g><rect x="67.45" y="19.38" width="91.64" height="9.25" fill="none" stroke="#003a50" stroke-miterlimit="10"/><rect x="307.22" y="180.58" width="55.58" height="34.35" fill="none" stroke="#003a50" stroke-miterlimit="10"/><rect x="146.98" y="218.63" width="53.05" height="23.96" fill="none" stroke="#003a50" stroke-miterlimit="10"/><g clip-path="url(#clip-path)"><path d="M160.55,238V219.69a2.67,2.67,0,0,1,2.68-2.67H181a2.67,2.67,0,0,1,2.68,2.67V238a2.68,2.68,0,0,1-2.68,2.67H163.23A2.68,2.68,0,0,1,160.55,238Z" fill="none" stroke="#003a50" stroke-miterlimit="10"/><ellipse cx="172.11" cy="228.83" rx="1.81" ry="1.8" fill="none" stroke="#003a50" stroke-miterlimit="10"/><path d="M282.61,384.39V388a45.35,45.35,0,0,1-45.35,45.35v-49" fill="none" stroke="#003a50" stroke-miterlimit="10" stroke-width="1.6"/><path d="M297.68,281.26H294.6A38.72,38.72,0,0,0,255.88,320h41.8" fill="none" stroke="#003a50" stroke-miterlimit="10" stroke-width="1.6"/><path d="M571.26,444.84H567.8a43.48,43.48,0,0,1-43.48-43.48h46.94" fill="none" stroke="#003a50" stroke-miterlimit="10" stroke-width="1.6"/><path d="M513.77,279.55h3.13a39.34,39.34,0,0,1,39.34,39.34H513.77" fill="none" stroke="#003a50" stroke-miterlimit="10" stroke-width="1.6"/><path d="M580.59,221.39v-4.06a51.13,51.13,0,0,1,51.12-51.13v55.19" fill="none" stroke="#003a50" stroke-miterlimit="10" stroke-width="1.6"/><path d="M527,128.17h4.06a51.13,51.13,0,0,1,51.13,51.13H527" fill="none" stroke="#003a50" stroke-miterlimit="10" stroke-width="1.6"/><path d="M190.49,324.69v3.07a38.59,38.59,0,0,1-38.59,38.59V324.69" fill="none" stroke="#003a50" stroke-miterlimit="10" stroke-width="1.6"/><path d="M226.13,335.42h-3.42a43,43,0,0,0-43,43h46.39" fill="none" stroke="#003a50" stroke-miterlimit="10" stroke-width="1.6"/><line x1="468.42" y1="121.1" x2="413.94" y2="121.1" fill="none" stroke="#003a50" stroke-miterlimit="10" stroke-width="1.6"/><polygon points="54.82 413.41 54.82 317.67 5.49 317.67 17.15 413.41 54.82 413.41" fill="#003a50" fill-rule="evenodd"/><polygon points="54.82 51.03 54.82 -44.71 5.49 -44.71 17.15 51.03 54.82 51.03" fill="#003a50" fill-rule="evenodd"/><polygon points="203.62 582.76 299.36 582.76 299.36 632.09 203.62 620.43 203.62 582.76" fill="#003a50" fill-rule="evenodd"/><rect x="389.41" y="214.95" width="191.83" height="16.32" fill="#003a50"/><rect x="389.41" y="223.11" width="16.32" height="372.48" fill="#003a50"/><rect x="515.91" y="178.43" width="16.32" height="40.5" fill="#003a50"/><rect x="49.65" y="202.3" width="74.57" height="19" fill="#003a50"/><rect x="515.91" y="105.11" width="16.32" height="23.98" fill="#003a50"/><rect x="515.91" y="-39.89" width="16.32" height="50.48" fill="#003a50"/><rect x="487.65" y="105.11" width="40.56" height="11.86" fill="#003a50"/><rect x="487.66" y="8.11" width="13.08" height="108.53" fill="#003a50"/><rect x="50.82" y="-0.04" width="481.33" height="13.79" fill="#003a50"/><rect x="13.72" y="137.78" width="40.4" height="92.71" fill="#003a50"/><rect x="13.72" y="317.67" width="44.93" height="61.96" fill="#003a50"/><rect x="6.49" y="204.59" width="44.33" height="25.9" fill="#003a50"/><rect x="19.82" y="501.6" width="35" height="114.83" fill="#003a50"/><rect x="23.82" y="582.67" width="38.17" height="33.75" fill="#003a50"/><rect x="508.11" y="582.67" width="96" height="41.92" fill="#003a50"/><rect x="388.2" y="582.67" width="27.03" height="46.75" fill="#003a50"/><rect x="392.2" y="582.67" width="27.03" height="23.38" fill="#003a50"/><rect x="513.74" y="576.51" width="82.83" height="27.12" fill="#003a50"/><rect x="212.65" y="576.51" width="78.17" height="27.12" fill="#003a50"/><rect x="6.49" y="603.09" width="25.9" height="25.9" fill="#003a50"/><rect x="119.74" y="214.93" width="109" height="6.38" fill="#003a50"/><rect x="222.36" y="219.61" width="6.38" height="116.6" fill="#003a50"/><rect x="222.36" y="377.57" width="6.38" height="212.5" fill="#003a50"/><rect x="200.03" y="219.61" width="6.38" height="22.98" fill="#003a50"/><rect x="201.89" y="236.21" width="22.98" height="6.38" fill="#003a50"/><rect x="189.9" y="323.71" width="33.79" height="6.38" fill="#003a50"/><rect x="105.58" y="405.61" width="41.2" height="3.69" fill="#003a50"/><rect x="143.26" y="328.12" width="3.69" height="80.64" fill="#003a50"/><rect x="48.95" y="405.61" width="19.39" height="3.69" fill="#003a50"/><rect x="49.65" y="323.71" width="103.25" height="6.38" fill="#003a50"/><rect x="281.82" y="381.65" width="18" height="6.38" fill="#003a50"/><rect x="297.67" y="348.81" width="94.48" height="6.38" fill="#003a50"/><rect x="225.55" y="381.65" width="12.54" height="6.38" fill="#003a50"/><rect x="294.05" y="214.92" width="6.38" height="67.17" fill="#003a50"/><rect x="294.05" y="319.14" width="6.38" height="68.88" fill="#003a50"/><rect x="398.99" y="110.59" width="42.19" height="6.38" fill="#003a50"/><rect x="399.1" y="10.26" width="6.38" height="106.38" fill="#003a50"/><rect x="402.29" y="33.81" width="91.1" height="6.38" fill="#003a50"/><rect x="294.05" y="214.93" width="99.68" height="6.38" fill="#003a50"/><rect x="294.05" y="250.55" width="99.68" height="6.38" fill="#003a50"/><rect x="338.22" y="214.92" width="6.38" height="38.25" fill="#003a50"/><rect x="478.23" y="110.59" width="12.54" height="6.38" fill="#003a50"/><rect x="567.63" y="444.05" width="6.38" height="136.12" fill="#003a50"/><rect x="567.63" y="347.93" width="6.38" height="54.19" fill="#003a50"/><rect x="508.82" y="230.09" width="6.38" height="50.21" fill="#003a50"/><rect x="508.82" y="318.05" width="6.38" height="32.88" fill="#003a50"/><rect x="570.82" y="321.08" width="3.19" height="29.85" fill="#003a50"/><rect x="570.82" y="231.25" width="3.19" height="36.33" fill="#003a50"/><rect x="404.23" y="249.99" width="107.78" height="6.38" fill="#003a50"/><rect x="472.68" y="227.37" width="6.38" height="26.37" fill="#003a50"/><rect x="404.23" y="348.11" width="166.58" height="6.38" fill="#003a50"/><rect x="526.24" y="11.67" width="5.98" height="101.5" fill="#003a50"/><line x1="573.28" y1="321.43" x2="576.11" y2="321.43" fill="none" stroke="#003a50" stroke-miterlimit="10"/><line x1="581.86" y1="321.43" x2="636.46" y2="321.43" fill="none" stroke="#003a50" stroke-miterlimit="10" stroke-dasharray="5.75 5.75"/><line x1="226.32" y1="215.46" x2="303.06" y2="215.46" fill="none" stroke="#003a50" stroke-miterlimit="10" stroke-dasharray="5.67 5.67"/><line x1="399.05" y1="180.94" x2="399.05" y2="109.73" fill="none" stroke="#003a50" stroke-miterlimit="10" stroke-dasharray="5.67 5.67"/><rect x="119.74" y="214.93" width="109" height="6.38" fill="#003a50"/><rect x="222.36" y="219.61" width="6.38" height="116.6" fill="#003a50"/><rect x="222.36" y="377.57" width="6.38" height="212.5" fill="#003a50"/><rect x="200.03" y="219.61" width="6.38" height="22.98" fill="#003a50"/><rect x="201.89" y="236.21" width="22.98" height="6.38" fill="#003a50"/><rect x="189.9" y="323.71" width="33.79" height="6.38" fill="#003a50"/><rect x="105.58" y="405.61" width="41.2" height="3.69" fill="#003a50"/><rect x="143.26" y="328.12" width="3.69" height="80.64" fill="#003a50"/><rect x="48.95" y="405.61" width="19.39" height="3.69" fill="#003a50"/><rect x="49.65" y="323.71" width="103.25" height="6.38" fill="#003a50"/><rect x="281.82" y="381.65" width="18" height="6.38" fill="#003a50"/><rect x="297.67" y="348.81" width="94.48" height="6.38" fill="#003a50"/><rect x="225.55" y="381.65" width="12.54" height="6.38" fill="#003a50"/><rect x="294.05" y="214.92" width="6.38" height="67.17" fill="#003a50"/><rect x="294.05" y="319.14" width="6.38" height="68.88" fill="#003a50"/><rect x="398.99" y="110.59" width="42.19" height="6.38" fill="#003a50"/><rect x="399.1" y="10.26" width="6.38" height="106.38" fill="#003a50"/><rect x="402.29" y="33.81" width="91.1" height="6.38" fill="#003a50"/><rect x="294.05" y="214.93" width="99.68" height="6.38" fill="#003a50"/><rect x="294.05" y="250.55" width="99.68" height="6.38" fill="#003a50"/><rect x="338.22" y="214.92" width="6.38" height="38.25" fill="#003a50"/><rect x="478.23" y="110.59" width="12.54" height="6.38" fill="#003a50"/><rect x="567.63" y="444.05" width="6.38" height="136.12" fill="#003a50"/><rect x="567.63" y="347.93" width="6.38" height="54.19" fill="#003a50"/><rect x="508.82" y="230.09" width="6.38" height="50.21" fill="#003a50"/><rect x="508.82" y="318.05" width="6.38" height="32.88" fill="#003a50"/><rect x="570.82" y="321.08" width="3.19" height="29.85" fill="#003a50"/><rect x="570.82" y="231.25" width="3.19" height="36.33" fill="#003a50"/><rect x="404.23" y="249.99" width="107.78" height="6.38" fill="#003a50"/><rect x="472.68" y="227.37" width="6.38" height="26.37" fill="#003a50"/><rect x="404.23" y="348.11" width="166.58" height="6.38" fill="#003a50"/><rect x="526.24" y="11.67" width="5.98" height="101.5" fill="#003a50"/><line x1="573.28" y1="321.43" x2="576.11" y2="321.43" fill="none" stroke="#003a50" stroke-miterlimit="10"/><line x1="581.86" y1="321.43" x2="636.46" y2="321.43" fill="none" stroke="#003a50" stroke-miterlimit="10" stroke-dasharray="5.75 5.75"/><line x1="226.32" y1="215.46" x2="303.06" y2="215.46" fill="none" stroke="#003a50" stroke-miterlimit="10" stroke-dasharray="5.67 5.67"/><line x1="399.05" y1="180.94" x2="399.05" y2="109.73" fill="none" stroke="#003a50" stroke-miterlimit="10" stroke-dasharray="5.67 5.67"/></g><g clip-path="url(#clip-path)"><path d="M79.62,600.36l-1.75,1.38v-1.58l1.92-1.6h1.32V607H79.62Z" fill="#003a50"/><path d="M82.89,606.87a.69.69,0,0,1-.23-.57.71.71,0,0,1,.23-.57,1,1,0,0,1,1.22,0,.75.75,0,0,1,.23.57.72.72,0,0,1-.23.57,1,1,0,0,1-1.22,0Z" fill="#003a50"/><path d="M86.7,605.88a5.2,5.2,0,0,1,0-6.24,4,4,0,0,1,5.74,0,5.2,5.2,0,0,1,0,6.24,4,4,0,0,1-5.74,0Zm4.61-1a4.06,4.06,0,0,0,0-4.28,2.05,2.05,0,0,0-1.74-.84,2,2,0,0,0-1.73.84,4,4,0,0,0,0,4.28,2,2,0,0,0,1.73.84A2.05,2.05,0,0,0,91.31,604.9Z" fill="#003a50"/><path d="M435.64,605.88a5.2,5.2,0,0,1,0-6.24,4,4,0,0,1,5.74,0,5.2,5.2,0,0,1,0,6.24,4,4,0,0,1-5.74,0Zm4.61-1a4.06,4.06,0,0,0,0-4.28,2.05,2.05,0,0,0-1.74-.84,2,2,0,0,0-1.73.84,4,4,0,0,0,0,4.28,2,2,0,0,0,1.73.84A2.05,2.05,0,0,0,440.25,604.9Z" fill="#003a50"/><path d="M444,606.87a.72.72,0,0,1-.23-.57.75.75,0,0,1,.23-.57.87.87,0,0,1,.61-.21.85.85,0,0,1,.61.21.75.75,0,0,1,.23.57.72.72,0,0,1-.23.57.85.85,0,0,1-.61.21A.87.87,0,0,1,444,606.87Z" fill="#003a50"/><path d="M453.58,600.93H452s0,0,0-.13a1.38,1.38,0,0,0-.15-.31,2.33,2.33,0,0,0-.27-.35,1.4,1.4,0,0,0-.5-.29,2.36,2.36,0,0,0-.72-.11,1.76,1.76,0,0,0-1.51.72,3.12,3.12,0,0,0-.54,1.9h0a1.27,1.27,0,0,1,.31-.31,2.73,2.73,0,0,1,.43-.26,3.14,3.14,0,0,1,.67-.21,4,4,0,0,1,.86-.09,3.57,3.57,0,0,1,2.38.78,2.49,2.49,0,0,1,.92,2,2.53,2.53,0,0,1-1,2,3.87,3.87,0,0,1-2.54.78,3.38,3.38,0,0,1-2.73-1.09,4.5,4.5,0,0,1-.93-3v-.29a4.83,4.83,0,0,1,.93-3,3.18,3.18,0,0,1,2.68-1.21,3.86,3.86,0,0,1,1.5.27,2.73,2.73,0,0,1,1,.66A2.44,2.44,0,0,1,453.58,600.93Zm-1.77,2.22a2.58,2.58,0,0,0-2.79,0,1.3,1.3,0,0,0-.55,1.11,1.32,1.32,0,0,0,.54,1.11,2.6,2.6,0,0,0,2.8,0,1.4,1.4,0,0,0,0-2.22Z" fill="#003a50"/><path d="M315.83,605.88a5.2,5.2,0,0,1,0-6.24,3.63,3.63,0,0,1,2.88-1.2,3.59,3.59,0,0,1,2.86,1.2,5.2,5.2,0,0,1,0,6.24,3.59,3.59,0,0,1-2.86,1.2A3.63,3.63,0,0,1,315.83,605.88Zm4.61-1a4.06,4.06,0,0,0,0-4.28,2.21,2.21,0,0,0-3.47,0,4,4,0,0,0,0,4.28,2.21,2.21,0,0,0,3.47,0Z" fill="#003a50"/><path d="M324.16,606.87a.72.72,0,0,1-.23-.57.75.75,0,0,1,.23-.57.88.88,0,0,1,.62-.21.84.84,0,0,1,.6.21.71.71,0,0,1,.23.57.69.69,0,0,1-.23.57.84.84,0,0,1-.6.21A.88.88,0,0,1,324.16,606.87Z" fill="#003a50"/><path d="M333.77,600.93h-1.56s0,0,0-.13a1.38,1.38,0,0,0-.15-.31,1.49,1.49,0,0,0-.27-.35,1.32,1.32,0,0,0-.5-.29,2.35,2.35,0,0,0-.71-.11,1.77,1.77,0,0,0-1.52.72,3.12,3.12,0,0,0-.54,1.9h0a1.49,1.49,0,0,1,.31-.31,2.73,2.73,0,0,1,.43-.26,3.14,3.14,0,0,1,.67-.21,4.12,4.12,0,0,1,.86-.09,3.57,3.57,0,0,1,2.38.78,2.49,2.49,0,0,1,.92,2,2.52,2.52,0,0,1-1,2,3.92,3.92,0,0,1-2.55.78,3.38,3.38,0,0,1-2.73-1.09,4.5,4.5,0,0,1-.93-3v-.29a4.83,4.83,0,0,1,.93-3,3.18,3.18,0,0,1,2.69-1.21,3.93,3.93,0,0,1,1.5.27,2.69,2.69,0,0,1,1,.66A2.44,2.44,0,0,1,333.77,600.93ZM332,603.15a2.58,2.58,0,0,0-2.79,0,1.4,1.4,0,0,0,0,2.22,2.22,2.22,0,0,0,1.4.41,2.28,2.28,0,0,0,1.4-.41,1.32,1.32,0,0,0,.54-1.11A1.3,1.3,0,0,0,332,603.15Z" fill="#003a50"/><path d="M33,124.85a4.59,4.59,0,0,1-3.12,1,4.61,4.61,0,0,1-3.12-1,4,4,0,0,1,0-5.74,4.61,4.61,0,0,1,3.12-1,4.59,4.59,0,0,1,3.12,1,4,4,0,0,1,0,5.74Zm-1-4.61a3.52,3.52,0,0,0-2.14-.61,3.5,3.5,0,0,0-2.14.61,2.05,2.05,0,0,0-.84,1.74,2,2,0,0,0,.84,1.73,3.42,3.42,0,0,0,2.14.62,3.46,3.46,0,0,0,2.14-.62,2,2,0,0,0,.84-1.73A2.05,2.05,0,0,0,32,120.24Z" fill="#003a50"/><path d="M34,116.52a.7.7,0,0,1-.57.23.71.71,0,0,1-.57-.23,1,1,0,0,1,0-1.22.75.75,0,0,1,.57-.23.73.73,0,0,1,.57.23,1,1,0,0,1,0,1.22Z" fill="#003a50"/><path d="M28,106.91v1.56s-.05,0-.13,0a1.2,1.2,0,0,0-.31.15,2.33,2.33,0,0,0-.35.27,1.4,1.4,0,0,0-.29.5,2.09,2.09,0,0,0-.11.72,1.76,1.76,0,0,0,.72,1.51,3.12,3.12,0,0,0,1.9.54v0a1.12,1.12,0,0,1-.31-.31,2.73,2.73,0,0,1-.26-.43,3,3,0,0,1-.21-.67,4,4,0,0,1-.09-.86,3.54,3.54,0,0,1,.78-2.37,2.46,2.46,0,0,1,2-.92,2.52,2.52,0,0,1,2,1,3.87,3.87,0,0,1,.78,2.54,3.41,3.41,0,0,1-1.09,2.73,4.5,4.5,0,0,1-3,.93h-.29a4.83,4.83,0,0,1-3-.93,3.18,3.18,0,0,1-1.21-2.68,3.86,3.86,0,0,1,.27-1.5,2.73,2.73,0,0,1,.66-1A2.44,2.44,0,0,1,28,106.91Zm2.22,1.77a2.26,2.26,0,0,0-.41,1.4,2.23,2.23,0,0,0,.41,1.39,1.3,1.3,0,0,0,1.11.55,1.34,1.34,0,0,0,1.11-.54,2.6,2.6,0,0,0,0-2.8,1.4,1.4,0,0,0-2.22,0Z" fill="#003a50"/><path d="M33,444.65a4.61,4.61,0,0,1-3.12,1,4.61,4.61,0,0,1-3.12-1,4,4,0,0,1,0-5.74,4.61,4.61,0,0,1,3.12-1,4.61,4.61,0,0,1,3.12,1,4,4,0,0,1,0,5.74ZM32,440a3.52,3.52,0,0,0-2.14-.61,3.55,3.55,0,0,0-2.15.61,2.07,2.07,0,0,0-.83,1.74,2,2,0,0,0,.83,1.73,3.47,3.47,0,0,0,2.15.62,3.46,3.46,0,0,0,2.14-.62,2,2,0,0,0,.84-1.73A2.05,2.05,0,0,0,32,440Z" fill="#003a50"/><path d="M34,436.32a.82.82,0,0,1-1.14,0,1,1,0,0,1,0-1.22.82.82,0,0,1,1.14,0,1,1,0,0,1,0,1.22Z" fill="#003a50"/><path d="M28,426.71v1.56s-.05,0-.13,0a1.2,1.2,0,0,0-.31.15,2.33,2.33,0,0,0-.35.27,1.4,1.4,0,0,0-.29.5,2.09,2.09,0,0,0-.11.72,1.76,1.76,0,0,0,.72,1.51,3.12,3.12,0,0,0,1.9.54v0a1.12,1.12,0,0,1-.31-.31,2.73,2.73,0,0,1-.26-.43,3,3,0,0,1-.21-.67,4,4,0,0,1-.09-.86,3.54,3.54,0,0,1,.78-2.37,2.46,2.46,0,0,1,2-.92,2.52,2.52,0,0,1,2,1,3.87,3.87,0,0,1,.78,2.54,3.41,3.41,0,0,1-1.09,2.73,4.5,4.5,0,0,1-3,.93h-.29a4.83,4.83,0,0,1-3-.93,3.18,3.18,0,0,1-1.21-2.68,4.06,4.06,0,0,1,.26-1.5,2.87,2.87,0,0,1,.67-1A2.44,2.44,0,0,1,28,426.71Zm2.22,1.77a2.26,2.26,0,0,0-.41,1.4,2.21,2.21,0,0,0,.41,1.39,1.3,1.3,0,0,0,1.11.55,1.34,1.34,0,0,0,1.11-.54,2.6,2.6,0,0,0,0-2.8,1.4,1.4,0,0,0-2.22,0Z" fill="#003a50"/><path d="M33,304.57a4.55,4.55,0,0,1-3.12,1.05,4.57,4.57,0,0,1-3.12-1.05,4,4,0,0,1,0-5.73,4.57,4.57,0,0,1,3.12-1,4.55,4.55,0,0,1,3.12,1,4,4,0,0,1,0,5.73ZM32,300a4,4,0,0,0-4.28,0,2.21,2.21,0,0,0,0,3.47,3.48,3.48,0,0,0,2.14.62,3.52,3.52,0,0,0,2.14-.62A2.21,2.21,0,0,0,32,300Z" fill="#003a50"/><path d="M34,296.25a.73.73,0,0,1-.57.23.75.75,0,0,1-.57-.23,1,1,0,0,1,0-1.23.75.75,0,0,1,.57-.23A.73.73,0,0,1,34,295a1,1,0,0,1,0,1.23Z" fill="#003a50"/><path d="M28,286.64v1.56s-.05,0-.13,0a1.85,1.85,0,0,0-.31.16,1.49,1.49,0,0,0-.35.27,1.32,1.32,0,0,0-.29.5,2,2,0,0,0-.11.71,1.78,1.78,0,0,0,.72,1.52,3.12,3.12,0,0,0,1.9.54v0a1.28,1.28,0,0,1-.31-.31,3.28,3.28,0,0,1-.26-.43,3.14,3.14,0,0,1-.21-.67,4.12,4.12,0,0,1-.09-.86,3.57,3.57,0,0,1,.78-2.38,2.49,2.49,0,0,1,2-.92,2.52,2.52,0,0,1,2,1,3.91,3.91,0,0,1,.78,2.54,3.41,3.41,0,0,1-1.09,2.73,4.45,4.45,0,0,1-3,.94h-.29a4.77,4.77,0,0,1-3-.94,3.16,3.16,0,0,1-1.21-2.68,3.93,3.93,0,0,1,.27-1.5,2.61,2.61,0,0,1,.66-1A2.39,2.39,0,0,1,28,286.64Zm2.22,1.77a2.21,2.21,0,0,0-.41,1.39,2.26,2.26,0,0,0,.41,1.4,1.4,1.4,0,0,0,2.22,0,2.28,2.28,0,0,0,.41-1.4,2.32,2.32,0,0,0-.41-1.4,1.34,1.34,0,0,0-1.11-.54A1.3,1.3,0,0,0,30.25,288.41Z" fill="#003a50"/><path d="M470.46,304.38h-5.82v-1.85h8.86v1.85L469,307v.07h1.28a3.9,3.9,0,0,1,2.79,1,3.52,3.52,0,0,1,1,2.67,3.34,3.34,0,0,1-1.32,2.82,7,7,0,0,1-7.25,0,3.37,3.37,0,0,1-1.32-2.85v-.33h2.1v.33c0,1.36.95,2,2.84,2s2.85-.67,2.85-2-.95-2-2.85-2h-3.26v-1.67l4.58-2.68Z" fill="#003a50"/><path d="M476.2,314.31a1.15,1.15,0,0,1,0-1.61,1.4,1.4,0,0,1,1.73,0,1.17,1.17,0,0,1,0,1.61,1.4,1.4,0,0,1-1.73,0Z" fill="#003a50"/><path d="M486.3,304.38h-5.82v-1.85h8.86v1.85L484.82,307v.07h1.27a3.91,3.91,0,0,1,2.8,1,3.52,3.52,0,0,1,1.05,2.67,3.32,3.32,0,0,1-1.33,2.82,6.93,6.93,0,0,1-7.24,0,3.35,3.35,0,0,1-1.33-2.85v-.33h2.11v.33c0,1.36,1,2,2.84,2s2.84-.67,2.84-2-.95-2-2.84-2h-3.26v-1.67l4.57-2.68Z" fill="#003a50"/><path d="M546.8,280.9h-9.93v-1.56a2.74,2.74,0,0,1,.58-1.74,4,4,0,0,1,1.45-1.2c.5-.26,1.12-.54,1.87-.86s1.32-.56,1.87-.78a4.21,4.21,0,0,0,1.45-.91,1.8,1.8,0,0,0,.57-1.3c0-1.26-.89-1.89-2.66-1.89s-2.68.72-2.68,2.16v.41h-2.11v-.41a3.65,3.65,0,0,1,1.26-3,5.45,5.45,0,0,1,3.52-1,5.65,5.65,0,0,1,3.51,1,3.27,3.27,0,0,1,1.27,2.75,3.17,3.17,0,0,1-.56,1.83,4.29,4.29,0,0,1-1.4,1.31c-.6.34-1.21.65-1.84.93s-1.23.52-1.82.74a5.33,5.33,0,0,0-1.41.75,1.23,1.23,0,0,0-.56.95h7.62Z" fill="#003a50"/><path d="M548.9,280.77a1.17,1.17,0,0,1,0-1.61,1.25,1.25,0,0,1,.88-.3,1.22,1.22,0,0,1,.86.3,1.17,1.17,0,0,1,0,1.61,1.22,1.22,0,0,1-.86.3A1.25,1.25,0,0,1,548.9,280.77Z" fill="#003a50"/><path d="M562.68,280.9h-9.93v-1.56a2.74,2.74,0,0,1,.58-1.74,4,4,0,0,1,1.45-1.2c.49-.26,1.12-.54,1.86-.86l1.88-.78a4.21,4.21,0,0,0,1.45-.91,1.8,1.8,0,0,0,.57-1.3q0-1.89-2.67-1.89t-2.67,2.16v.41h-2.11v-.41a3.65,3.65,0,0,1,1.26-3,5.45,5.45,0,0,1,3.52-1,5.65,5.65,0,0,1,3.51,1,3.27,3.27,0,0,1,1.27,2.75,3.17,3.17,0,0,1-.56,1.83,4.29,4.29,0,0,1-1.4,1.31c-.6.34-1.21.65-1.84.93s-1.23.52-1.82.74a5.18,5.18,0,0,0-1.41.75,1.23,1.23,0,0,0-.56.95h7.62Z" fill="#003a50"/><path d="M112.37,158.15h-9.93v-1.56a2.74,2.74,0,0,1,.58-1.74,4,4,0,0,1,1.44-1.2c.5-.25,1.12-.54,1.87-.86s1.32-.56,1.88-.77a4.09,4.09,0,0,0,1.44-.92,1.8,1.8,0,0,0,.58-1.3q0-1.89-2.67-1.89t-2.67,2.16v.41h-2.11v-.41a3.62,3.62,0,0,1,1.26-3,5.36,5.36,0,0,1,3.51-1,5.61,5.61,0,0,1,3.51,1,3.29,3.29,0,0,1,1.27,2.75,3.11,3.11,0,0,1-.55,1.83,4.38,4.38,0,0,1-1.4,1.31c-.6.34-1.21.65-1.84.93s-1.24.52-1.83.75a5.55,5.55,0,0,0-1.4.74,1.25,1.25,0,0,0-.57,1h7.63Z" fill="#003a50"/><path d="M120.66,148.09h-5.82v-1.84h8.86v1.84l-4.52,2.65v.06h1.28a3.87,3.87,0,0,1,2.79,1,3.52,3.52,0,0,1,1,2.66,3.33,3.33,0,0,1-1.33,2.83,7,7,0,0,1-7.24,0,3.4,3.4,0,0,1-1.33-2.86v-.32h2.11v.32c0,1.36.95,2,2.84,2s2.84-.66,2.84-2-.94-2-2.84-2h-3.26v-1.67l4.57-2.69Z" fill="#003a50"/><path d="M126.4,158a1,1,0,0,1-.32-.8,1.07,1.07,0,0,1,.32-.81,1.41,1.41,0,0,1,1.74,0,1.07,1.07,0,0,1,.32.81,1,1,0,0,1-.32.8,1.41,1.41,0,0,1-1.74,0Z" fill="#003a50"/><path d="M140.18,158.15h-9.93v-1.56a2.74,2.74,0,0,1,.58-1.74,4,4,0,0,1,1.44-1.2c.5-.25,1.13-.54,1.87-.86s1.33-.56,1.88-.77a4.09,4.09,0,0,0,1.44-.92,1.76,1.76,0,0,0,.58-1.3q0-1.89-2.67-1.89t-2.67,2.16v.41h-2.11v-.41a3.62,3.62,0,0,1,1.26-3,5.38,5.38,0,0,1,3.51-1,5.66,5.66,0,0,1,3.52,1,3.31,3.31,0,0,1,1.27,2.75,3.12,3.12,0,0,1-.56,1.83,4.18,4.18,0,0,1-1.4,1.31c-.6.34-1.21.65-1.84.93s-1.23.52-1.83.75a5.55,5.55,0,0,0-1.4.74,1.26,1.26,0,0,0-.56,1h7.62Z" fill="#003a50"/><path d="M427.38,156.08h-5.83v-1.84h8.87v1.84l-4.53,2.65v.07h1.28a3.9,3.9,0,0,1,2.79,1,3.52,3.52,0,0,1,1.05,2.67,3.32,3.32,0,0,1-1.33,2.82,7,7,0,0,1-7.24,0,3.39,3.39,0,0,1-1.33-2.86v-.32h2.11v.32c0,1.37.95,2,2.84,2s2.84-.67,2.84-2-.94-2-2.84-2H422.8v-1.67l4.58-2.68Z" fill="#003a50"/><path d="M433.11,166a1,1,0,0,1-.32-.8,1.07,1.07,0,0,1,.32-.81,1.25,1.25,0,0,1,.88-.3,1.22,1.22,0,0,1,.86.3,1,1,0,0,1,.32.81,1,1,0,0,1-.32.8,1.22,1.22,0,0,1-.86.3A1.25,1.25,0,0,1,433.11,166Z" fill="#003a50"/><path d="M445.7,165.38a7.77,7.77,0,0,1-7.37,0,3,3,0,0,1-1.37-2.56,2.71,2.71,0,0,1,.26-1.17,2.37,2.37,0,0,1,.65-.85,4,4,0,0,1,1.4-.77l.26-.07v-.09a3.38,3.38,0,0,1-.77-.29,2.61,2.61,0,0,1-.66-.44,2.24,2.24,0,0,1-.54-.76,2.39,2.39,0,0,1-.23-1,2.8,2.8,0,0,1,1.26-2.38,5.74,5.74,0,0,1,3.42-.9,5.81,5.81,0,0,1,3.43.9,2.82,2.82,0,0,1,1.24,2.38,2.5,2.5,0,0,1-.22,1.05,1.87,1.87,0,0,1-.55.74,3.59,3.59,0,0,1-1.19.68l-.23.05V160l.28.07a4,4,0,0,1,.63.26,4.67,4.67,0,0,1,.77.51,2.65,2.65,0,0,1,.61.82,2.58,2.58,0,0,1,.28,1.2A3,3,0,0,1,445.7,165.38ZM439.91,164a3.84,3.84,0,0,0,2.1.48,3.94,3.94,0,0,0,2.1-.47,1.6,1.6,0,0,0,0-2.7,4.93,4.93,0,0,0-4.2,0,1.53,1.53,0,0,0-.74,1.35A1.51,1.51,0,0,0,439.91,164Zm-.37-6.52a1.37,1.37,0,0,0,.65,1.19,4,4,0,0,0,3.64,0,1.42,1.42,0,0,0,0-2.39,3.94,3.94,0,0,0-3.62,0A1.36,1.36,0,0,0,439.54,157.51Z" fill="#003a50"/><path d="M461.36,91.19h-9.94V89.63a2.8,2.8,0,0,1,.58-1.74,4.12,4.12,0,0,1,1.45-1.2c.5-.25,1.12-.54,1.87-.86s1.32-.56,1.87-.77a4.29,4.29,0,0,0,1.45-.92,1.78,1.78,0,0,0,.57-1.3c0-1.26-.89-1.89-2.66-1.89s-2.68.72-2.68,2.16v.41h-2.11v-.41a3.59,3.59,0,0,1,1.27-3,5.34,5.34,0,0,1,3.51-1,5.65,5.65,0,0,1,3.51,1,3.29,3.29,0,0,1,1.27,2.75,3.11,3.11,0,0,1-.55,1.83A4.31,4.31,0,0,1,459.36,86q-.9.51-1.83.93c-.63.28-1.24.52-1.83.75a5.38,5.38,0,0,0-1.4.74,1.23,1.23,0,0,0-.57,1h7.63Z" fill="#003a50"/><path d="M463.46,91.06a1,1,0,0,1-.33-.81,1,1,0,0,1,.33-.8,1.4,1.4,0,0,1,1.73,0,1,1,0,0,1,.33.8,1,1,0,0,1-.33.81,1.4,1.4,0,0,1-1.73,0Z" fill="#003a50"/><path d="M468.86,89.66a7.34,7.34,0,0,1,0-8.84,5.71,5.71,0,0,1,8.13,0,7.34,7.34,0,0,1,0,8.84,5.71,5.71,0,0,1-8.13,0Zm6.53-1.39a5.73,5.73,0,0,0,0-6.07,3.15,3.15,0,0,0-4.92,0,5.67,5.67,0,0,0,0,6.07,3.14,3.14,0,0,0,4.92,0Z" fill="#003a50"/><path d="M251,343.46H245.2v-1.84h8.86v1.84l-4.53,2.65v.06h1.28a3.87,3.87,0,0,1,2.79,1,3.49,3.49,0,0,1,1.06,2.66,3.35,3.35,0,0,1-1.33,2.83,7,7,0,0,1-7.24,0,3.36,3.36,0,0,1-1.33-2.86v-.32h2.11v.32c0,1.36.94,2,2.84,2s2.84-.67,2.84-2-1-2-2.84-2h-3.27v-1.67l4.58-2.68Z" fill="#003a50"/><path d="M256.76,353.39a1,1,0,0,1-.32-.8,1,1,0,0,1,.32-.81,1.23,1.23,0,0,1,.87-.3,1.2,1.2,0,0,1,.86.3,1,1,0,0,1,.33.81,1,1,0,0,1-.33.8,1.2,1.2,0,0,1-.86.3A1.23,1.23,0,0,1,256.76,353.39Z" fill="#003a50"/><path d="M263.87,353.52h-2.35l5.41-10H260v-1.87h9.28v1.87Z" fill="#003a50"/><path d="M318.2,314.37h-9.93v-1.56a2.74,2.74,0,0,1,.58-1.74,4,4,0,0,1,1.44-1.2c.5-.25,1.12-.54,1.87-.86s1.32-.56,1.88-.77a4.24,4.24,0,0,0,1.44-.92,1.76,1.76,0,0,0,.58-1.3q0-1.89-2.67-1.89t-2.67,2.16v.41h-2.11v-.41a3.62,3.62,0,0,1,1.26-3,5.38,5.38,0,0,1,3.51-1,5.66,5.66,0,0,1,3.52,1,3.3,3.3,0,0,1,1.27,2.75,3.14,3.14,0,0,1-.56,1.83,4.28,4.28,0,0,1-1.4,1.31c-.6.34-1.21.65-1.84.93s-1.23.52-1.83.74a5.56,5.56,0,0,0-1.4.75,1.22,1.22,0,0,0-.56,1h7.62Z" fill="#003a50"/><path d="M320.3,314.24a1,1,0,0,1-.32-.81,1,1,0,0,1,.32-.8,1.41,1.41,0,0,1,1.74,0,1.06,1.06,0,0,1,.32.8,1,1,0,0,1-.32.81,1.41,1.41,0,0,1-1.74,0Z" fill="#003a50"/><path d="M332.88,313.61a7.71,7.71,0,0,1-7.36,0,2.94,2.94,0,0,1-1.37-2.56,2.69,2.69,0,0,1,.25-1.16,2.32,2.32,0,0,1,.66-.86,4.11,4.11,0,0,1,1.39-.77l.26-.06v-.1a2.91,2.91,0,0,1-.76-.29,2.88,2.88,0,0,1-.67-.44,2.2,2.2,0,0,1-.54-.75,2.41,2.41,0,0,1-.22-1,2.83,2.83,0,0,1,1.25-2.39,7,7,0,0,1,6.85,0,2.82,2.82,0,0,1,1.25,2.39,2.43,2.43,0,0,1-.22,1,2,2,0,0,1-.55.74,3.54,3.54,0,0,1-1.2.68l-.22,0v.1a1.39,1.39,0,0,1,.28.06,5.42,5.42,0,0,1,.62.27,4.19,4.19,0,0,1,.78.5,2.88,2.88,0,0,1,.61.83,2.63,2.63,0,0,1,.27,1.19A3,3,0,0,1,332.88,313.61Zm-5.79-1.36a3.75,3.75,0,0,0,2.1.49,3.9,3.9,0,0,0,2.11-.48,1.59,1.59,0,0,0,0-2.69,4.95,4.95,0,0,0-4.21,0,1.58,1.58,0,0,0,0,2.68Zm-.36-6.51a1.36,1.36,0,0,0,.64,1.19,4.09,4.09,0,0,0,3.65,0,1.42,1.42,0,0,0,0-2.39,3.94,3.94,0,0,0-3.62,0A1.38,1.38,0,0,0,326.73,305.74Z" fill="#003a50"/><path d="M119.2,305.82H117s0-.06,0-.18a2.05,2.05,0,0,0-.21-.44,2.63,2.63,0,0,0-.39-.49,1.78,1.78,0,0,0-.71-.42,3.24,3.24,0,0,0-1-.16,2.53,2.53,0,0,0-2.15,1,4.42,4.42,0,0,0-.76,2.69h.06a1.5,1.5,0,0,1,.44-.44,4.76,4.76,0,0,1,.6-.36,4.41,4.41,0,0,1,1-.31,6.16,6.16,0,0,1,1.22-.12,5,5,0,0,1,3.37,1.11,3.52,3.52,0,0,1,1.31,2.8,3.57,3.57,0,0,1-1.37,2.9,5.49,5.49,0,0,1-3.6,1.11,4.81,4.81,0,0,1-3.87-1.55,6.35,6.35,0,0,1-1.32-4.26v-.41a6.85,6.85,0,0,1,1.32-4.31,4.52,4.52,0,0,1,3.8-1.71,5.66,5.66,0,0,1,2.13.37,4,4,0,0,1,1.44.94A3.45,3.45,0,0,1,119.2,305.82ZM116.69,309a3.6,3.6,0,0,0-4,0,2,2,0,0,0,0,3.14,3.63,3.63,0,0,0,4,0,2,2,0,0,0,0-3.14Z" fill="#003a50"/><path d="M121.85,314.24a1,1,0,0,1-.32-.81,1,1,0,0,1,.32-.8,1.41,1.41,0,0,1,1.74,0,1.06,1.06,0,0,1,.32.8,1,1,0,0,1-.32.81,1.41,1.41,0,0,1-1.74,0Z" fill="#003a50"/><path d="M127.26,312.84a7.34,7.34,0,0,1,0-8.84,5.71,5.71,0,0,1,8.13,0,7.38,7.38,0,0,1,0,8.84,5.71,5.71,0,0,1-8.13,0Zm6.52-1.39a5.67,5.67,0,0,0,0-6.07,3.14,3.14,0,0,0-4.91,0,5.67,5.67,0,0,0,0,6.07,3.13,3.13,0,0,0,4.91,0Z" fill="#003a50"/><path d="M79.32,386.18H69.39v-1.56a2.74,2.74,0,0,1,.58-1.74,4,4,0,0,1,1.45-1.2c.49-.26,1.12-.54,1.86-.86l1.88-.78a4.21,4.21,0,0,0,1.45-.91,1.8,1.8,0,0,0,.57-1.3q0-1.89-2.67-1.89t-2.67,2.16v.41H69.73v-.41a3.62,3.62,0,0,1,1.26-3,5.38,5.38,0,0,1,3.51-1,5.66,5.66,0,0,1,3.52,1,3.3,3.3,0,0,1,1.27,2.75,3.17,3.17,0,0,1-.56,1.83,4.16,4.16,0,0,1-1.4,1.3,18.74,18.74,0,0,1-1.84.94c-.62.27-1.23.52-1.82.74a5.18,5.18,0,0,0-1.41.75,1.23,1.23,0,0,0-.56,1h7.62Z" fill="#003a50"/><path d="M81.42,386.05a1.17,1.17,0,0,1,0-1.61,1.41,1.41,0,0,1,1.74,0,1.17,1.17,0,0,1,0,1.61,1.41,1.41,0,0,1-1.74,0Z" fill="#003a50"/><path d="M95.2,386.18H85.27v-1.56a2.74,2.74,0,0,1,.58-1.74,4,4,0,0,1,1.44-1.2c.5-.26,1.13-.54,1.87-.86L91,380a4.07,4.07,0,0,0,1.44-.91,1.77,1.77,0,0,0,.58-1.3q0-1.89-2.67-1.89t-2.67,2.16v.41H85.61v-.41a3.62,3.62,0,0,1,1.26-3,5.38,5.38,0,0,1,3.51-1,5.66,5.66,0,0,1,3.52,1,3.3,3.3,0,0,1,1.27,2.75,3.17,3.17,0,0,1-.56,1.83,4.16,4.16,0,0,1-1.4,1.3,18.74,18.74,0,0,1-1.84.94c-.62.27-1.23.52-1.83.74a5.26,5.26,0,0,0-1.4.75,1.21,1.21,0,0,0-.56,1H95.2Z" fill="#003a50"/><path d="M109.85,421.49l-2.48,1.95V421.2l2.73-2.27H112v11.91h-2.11Z" fill="#003a50"/><path d="M124.35,430.84h-9.93v-1.56a2.74,2.74,0,0,1,.58-1.74,4,4,0,0,1,1.45-1.2c.49-.25,1.12-.54,1.86-.86s1.33-.56,1.88-.77a4.39,4.39,0,0,0,1.45-.92,1.78,1.78,0,0,0,.57-1.3q0-1.89-2.67-1.89t-2.67,2.16v.41h-2.11v-.41a3.62,3.62,0,0,1,1.26-3,5.39,5.39,0,0,1,3.52-1,5.65,5.65,0,0,1,3.51,1,3.27,3.27,0,0,1,1.27,2.75,3.14,3.14,0,0,1-.56,1.83,4.29,4.29,0,0,1-1.4,1.31c-.6.34-1.21.65-1.84.93s-1.23.52-1.82.74a5.46,5.46,0,0,0-1.41.75,1.25,1.25,0,0,0-.56,1h7.62Z" fill="#003a50"/><path d="M126.45,430.71a1,1,0,0,1-.32-.81,1.06,1.06,0,0,1,.32-.8,1.25,1.25,0,0,1,.88-.3,1.22,1.22,0,0,1,.86.3,1,1,0,0,1,.32.8,1,1,0,0,1-.32.81,1.22,1.22,0,0,1-.86.3A1.25,1.25,0,0,1,126.45,430.71Z" fill="#003a50"/><path d="M140.07,422.29h-2.21s0-.06,0-.18a2.94,2.94,0,0,0-.22-.44,3.05,3.05,0,0,0-.38-.49,1.9,1.9,0,0,0-.72-.42,3.18,3.18,0,0,0-1-.16,2.55,2.55,0,0,0-2.16,1,4.51,4.51,0,0,0-.76,2.69h.06a1.64,1.64,0,0,1,.44-.44,4.24,4.24,0,0,1,.61-.36,4.06,4.06,0,0,1,1-.31,6.06,6.06,0,0,1,1.21-.12,5,5,0,0,1,3.37,1.11,3.52,3.52,0,0,1,1.31,2.8,3.59,3.59,0,0,1-1.36,2.9,5.54,5.54,0,0,1-3.61,1.11,4.81,4.81,0,0,1-3.87-1.55,6.35,6.35,0,0,1-1.32-4.26v-.41a6.85,6.85,0,0,1,1.32-4.31,4.52,4.52,0,0,1,3.81-1.71,5.64,5.64,0,0,1,2.12.37,3.84,3.84,0,0,1,1.44.94A3.45,3.45,0,0,1,140.07,422.29Zm-2.5,3.15a3.67,3.67,0,0,0-4,0,2,2,0,0,0,0,3.14,3.63,3.63,0,0,0,4,0,2,2,0,0,0,0-3.14Z" fill="#003a50"/><path d="M306.16,421.49l-2.48,1.95V421.2l2.73-2.27h1.86v11.91h-2.11Z" fill="#003a50"/><path d="M312.79,421.49l-2.49,1.95V421.2l2.74-2.27h1.86v11.91h-2.11Z" fill="#003a50"/><path d="M317.42,430.71a1,1,0,0,1-.32-.81,1,1,0,0,1,.32-.8,1.41,1.41,0,0,1,1.74,0,1.06,1.06,0,0,1,.32.8,1,1,0,0,1-.32.81,1.41,1.41,0,0,1-1.74,0Z" fill="#003a50"/><path d="M327.53,420.78h-5.82v-1.85h8.86v1.85L326,423.43v.06h1.28a3.87,3.87,0,0,1,2.79,1,3.51,3.51,0,0,1,1.06,2.66,3.37,3.37,0,0,1-1.33,2.83,7,7,0,0,1-7.25,0,3.39,3.39,0,0,1-1.32-2.86v-.32h2.11v.32c0,1.36.94,2,2.83,2s2.85-.66,2.85-2-.95-2-2.85-2H323v-1.67l4.58-2.69Z" fill="#003a50"/><path d="M472,421.49l-2.49,1.95V421.2l2.74-2.27h1.86v11.91H472Z" fill="#003a50"/><path d="M486.49,430.84h-9.94v-1.56a2.75,2.75,0,0,1,.59-1.74,4,4,0,0,1,1.44-1.2c.5-.25,1.12-.54,1.87-.86s1.32-.56,1.88-.77a4.24,4.24,0,0,0,1.44-.92,1.78,1.78,0,0,0,.57-1.3c0-1.26-.88-1.89-2.66-1.89s-2.68.72-2.68,2.16v.41h-2.1v-.41a3.62,3.62,0,0,1,1.26-3,5.34,5.34,0,0,1,3.51-1,5.61,5.61,0,0,1,3.51,1,3.27,3.27,0,0,1,1.27,2.75,3.14,3.14,0,0,1-.55,1.83,4.42,4.42,0,0,1-1.41,1.31c-.59.34-1.21.65-1.83.93s-1.24.52-1.83.74a5.56,5.56,0,0,0-1.4.75,1.23,1.23,0,0,0-.57,1h7.63Z" fill="#003a50"/><path d="M488.59,430.71a1,1,0,0,1-.33-.81,1,1,0,0,1,.33-.8,1.4,1.4,0,0,1,1.73,0,1,1,0,0,1,.33.8,1,1,0,0,1-.33.81,1.4,1.4,0,0,1-1.73,0Z" fill="#003a50"/><path d="M495.7,430.84h-2.35l5.41-10h-6.92v-1.88h9.28v1.88Z" fill="#003a50"/><path d="M577.1,421.49l-2.49,1.95V421.2l2.74-2.27h1.86v11.91H577.1Z" fill="#003a50"/><path d="M590.4,430.08a7.73,7.73,0,0,1-7.37,0,3,3,0,0,1-1.37-2.56,2.7,2.7,0,0,1,.26-1.16,2.41,2.41,0,0,1,.66-.86,4,4,0,0,1,1.39-.77l.26-.06v-.1a2.91,2.91,0,0,1-.76-.29,2.68,2.68,0,0,1-.67-.44,2.2,2.2,0,0,1-.54-.75,2.41,2.41,0,0,1-.22-1,2.8,2.8,0,0,1,1.25-2.38,7,7,0,0,1,6.85,0,2.81,2.81,0,0,1,1.25,2.38,2.43,2.43,0,0,1-.22,1,2,2,0,0,1-.55.74,3.54,3.54,0,0,1-1.2.68l-.22.05v.1l.28.06a5.42,5.42,0,0,1,.62.27,3.79,3.79,0,0,1,.77.5,2.89,2.89,0,0,1,.62.83,2.63,2.63,0,0,1,.27,1.19A3,3,0,0,1,590.4,430.08Zm-5.79-1.36a3.75,3.75,0,0,0,2.1.49,3.84,3.84,0,0,0,2.1-.48,1.59,1.59,0,0,0,0-2.69,4.93,4.93,0,0,0-4.2,0,1.58,1.58,0,0,0,0,2.68Zm-.36-6.51a1.36,1.36,0,0,0,.64,1.19,4.09,4.09,0,0,0,3.65,0,1.38,1.38,0,0,0,.64-1.19,1.36,1.36,0,0,0-.66-1.2,3.94,3.94,0,0,0-3.62,0A1.38,1.38,0,0,0,584.25,422.21Z" fill="#003a50"/></g></svg>