<svg id="Слой_1" data-name="Слой 1" xmlns="http://www.w3.org/2000/svg" xmlns:xlink="http://www.w3.org/1999/xlink" viewBox="0 0 581.1 362.83"><defs><clipPath id="clip-path"><polygon points="0 0.21 0 362.62 581.1 362.62 581.1 190.06 493.54 190.06 493.54 134.55 310.45 134.55 310.45 0.21 0 0.21" fill="none"/></clipPath></defs><polygon points="17.08 7.33 17.08 129.98 17.08 169.68 17.08 349.36 517.72 351.68 513.07 309.05 513.07 259.8 514.82 190.06 493.54 190.06 493.54 134.55 492.39 134.55 492.39 135.7 308.89 135.7 308.89 6.31 17.08 7.33" fill="#fff"/><polygon points="506.22 360.61 506.22 360.92 16.13 360.92 16.13 362.62 526.39 362.62 526.39 360.61 506.22 360.61" fill="#fff"/><g clip-path="url(#clip-path)"><rect x="3.38" y="-1261.93" width="1162.95" height="2240.57" fill="none" stroke="#003a50" stroke-miterlimit="10"/><polygon points="15.96 -157.76 15.96 965.79 1153.35 965.79 1153.35 -1248.98 15.96 -1249.14 15.96 -228.47 15.96 -157.76" fill="none" stroke="#003a50" stroke-miterlimit="10"/></g><rect x="36.58" y="214.97" width="4.55" height="89.3" fill="#fff"/><rect x="36.58" y="214.97" width="4.55" height="89.3" fill="none" stroke="#003a50" stroke-miterlimit="10"/><line x1="38.86" y1="304.27" x2="38.86" y2="214.97" fill="none" stroke="#003a50" stroke-miterlimit="10"/><rect x="36.58" y="299.65" width="4.55" height="4.63" fill="#fff"/><rect x="36.58" y="299.65" width="4.55" height="4.63" fill="none" stroke="#003a50" stroke-miterlimit="10"/><rect x="36.58" y="214.97" width="4.55" height="4.63" fill="#fff"/><rect x="36.58" y="214.97" width="4.55" height="4.63" fill="none" stroke="#003a50" stroke-miterlimit="10"/><rect x="36.58" y="256.22" width="4.55" height="4.63" fill="#fff"/><rect x="36.58" y="256.22" width="4.55" height="4.63" fill="none" stroke="#003a50" stroke-miterlimit="10"/><g clip-path="url(#clip-path)"><path d="M41.13,256.22H44c20.15,0,33.1-16.4,33.1-36.62h-36" fill="none" stroke="#003a50" stroke-miterlimit="10"/></g><rect x="36.58" y="35.9" width="4.55" height="88.71" fill="#fff"/><rect x="36.58" y="35.9" width="4.55" height="88.71" fill="none" stroke="#003a50" stroke-miterlimit="10"/><line x1="38.86" y1="35.9" x2="38.86" y2="124.61" fill="none" stroke="#003a50" stroke-miterlimit="10"/><rect x="36.58" y="35.9" width="4.55" height="4.73" fill="#fff"/><rect x="36.58" y="35.9" width="4.55" height="4.73" fill="none" stroke="#003a50" stroke-miterlimit="10"/><rect x="36.58" y="119.88" width="4.55" height="4.73" fill="#fff"/><rect x="36.58" y="119.88" width="4.55" height="4.73" fill="none" stroke="#003a50" stroke-miterlimit="10"/><rect x="36.58" y="77.76" width="4.55" height="4.73" fill="#fff"/><rect x="36.58" y="77.76" width="4.55" height="4.73" fill="none" stroke="#003a50" stroke-miterlimit="10"/><g clip-path="url(#clip-path)"><path d="M41.13,82.49H44c20.15,0,33.1,16.74,33.1,37.39h-36" fill="none" stroke="#003a50" stroke-miterlimit="10"/></g><rect x="371.18" y="151.54" width="42.38" height="92.09" fill="none" stroke="#003a50" stroke-miterlimit="10"/><g clip-path="url(#clip-path)"><rect x="376.16" y="155.34" width="32.03" height="84.24" rx="13.7" fill="none" stroke="#003a50" stroke-miterlimit="10"/><path d="M394.46,169.91a2.2,2.2,0,1,0-2.2,2.2A2.2,2.2,0,0,0,394.46,169.91Z" fill="none" stroke="#003a50" stroke-miterlimit="10"/><path d="M459.09,224h28.56V200.87H459.09a11.54,11.54,0,1,0,0,23.08Z" fill="none" stroke="#003a50" stroke-miterlimit="10"/></g><rect x="476.57" y="200.87" width="11.08" height="23.08" fill="none" stroke="#003a50" stroke-miterlimit="10"/><g clip-path="url(#clip-path)"><path d="M471.73,157.51a3.37,3.37,0,0,0,3.12-2.1h1.93l5.1,3.05-2.31,3.77-2.66-1.46v11.82h-11.1V160.77l-2.65,1.46-2.31-3.77,5.14-3.05h2.57A3.43,3.43,0,0,0,471.73,157.51Z" fill="none" stroke="#003a50" stroke-miterlimit="10"/></g><rect x="454.4" y="151.19" width="33.92" height="25.63" fill="none" stroke="#003a50" stroke-miterlimit="10"/><rect x="332.08" y="215.53" width="32.72" height="33.97" fill="none" stroke="#003a50" stroke-miterlimit="10"/><g clip-path="url(#clip-path)"><path d="M352.74,231V219.94h-8.6V231a3.55,3.55,0,0,0,3.54,3.55h1.52A3.54,3.54,0,0,0,352.74,231Z" fill="none" stroke="#003a50" stroke-miterlimit="10"/></g><polyline points="344.97 245.09 348.44 245.09 351.92 245.09" fill="none" stroke="#003a50" stroke-miterlimit="10"/><line x1="348.44" y1="234.53" x2="348.44" y2="245.09" fill="none" stroke="#003a50" stroke-miterlimit="10"/><rect x="276.8" y="151.11" width="31.88" height="31.88" fill="none" stroke="#003a50" stroke-miterlimit="10"/><g clip-path="url(#clip-path)"><path d="M304.36,174.18a4.35,4.35,0,1,1-4.34-4.35A4.34,4.34,0,0,1,304.36,174.18Z" fill="none" stroke="#003a50" stroke-miterlimit="10"/><path d="M289.85,174.18a4.35,4.35,0,1,1-4.34-4.35A4.34,4.34,0,0,1,289.85,174.18Z" fill="none" stroke="#003a50" stroke-miterlimit="10"/><path d="M304.36,160a4.35,4.35,0,1,1-4.34-4.34A4.34,4.34,0,0,1,304.36,160Z" fill="none" stroke="#003a50" stroke-miterlimit="10"/><path d="M289.85,160a4.35,4.35,0,1,1-4.34-4.34A4.34,4.34,0,0,1,289.85,160Z" fill="none" stroke="#003a50" stroke-miterlimit="10"/><rect x="318.48" y="362.58" width="34.02" height="34.02" fill="none" stroke="#003a50" stroke-miterlimit="10"/></g><rect x="83.13" y="159.99" width="102.05" height="17.01" fill="none" stroke="#003a50" stroke-miterlimit="10"/><polygon points="91.16 167.96 134.05 171.48 177.16 167.96 177.16 165.5 91.16 165.5 91.16 167.96" fill="none" stroke="#003a50" stroke-miterlimit="10"/><rect x="74.46" y="183.38" width="102.05" height="17.01" fill="none" stroke="#003a50" stroke-miterlimit="10"/><polygon points="168.49 192.42 125.59 188.89 82.49 192.42 82.49 194.88 168.49 194.88 168.49 192.42" fill="none" stroke="#003a50" stroke-miterlimit="10"/><g clip-path="url(#clip-path)"><rect x="304.64" y="363" width="58.79" height="33.59" fill="none" stroke="#003a50" stroke-miterlimit="10"/><rect x="363.43" y="363" width="32.72" height="102.57" fill="none" stroke="#003a50" stroke-miterlimit="10"/></g><rect x="267.59" y="149.39" width="64.49" height="33.59" fill="none" stroke="#003a50" stroke-miterlimit="10"/><rect x="332.08" y="146.93" width="32.72" height="102.57" fill="none" stroke="#003a50" stroke-miterlimit="10"/><g clip-path="url(#clip-path)"><path d="M298.66,283.89a1.26,1.26,0,0,1-1-1.51,13.78,13.78,0,0,0-26.87-6.16,1.26,1.26,0,0,1-2.46-.56A16.3,16.3,0,0,1,300.16,283,1.25,1.25,0,0,1,298.66,283.89Z" fill="none" stroke="#003a50" stroke-miterlimit="10"/><path d="M243.49,274.17a1.26,1.26,0,0,1-1.75.34,13.79,13.79,0,0,0-15.53,22.78,1.26,1.26,0,1,1-1.41,2.08,16.3,16.3,0,0,1,18.35-26.94A1.25,1.25,0,0,1,243.49,274.17Z" fill="none" stroke="#003a50" stroke-miterlimit="10"/><path d="M241,321.58a1.26,1.26,0,0,1,1.33,1.18,13.78,13.78,0,1,0,27.52-1.63,1.26,1.26,0,0,1,2.52-.15,16.3,16.3,0,0,1-32.55,1.93A1.26,1.26,0,0,1,241,321.58Z" fill="none" stroke="#003a50" stroke-miterlimit="10"/><path d="M284.46,267.28a12.69,12.69,0,0,1,12,15.48l-2,8.88a3.53,3.53,0,0,1-4.24,2.68l-13.44-3.08a23.73,23.73,0,0,0-6-9.44l1-4.2C273.06,271.64,278.34,267.08,284.46,267.28Z" fill="none" stroke="#003a50" stroke-miterlimit="10"/><path d="M241.66,275.8l2.32,1.6a23.81,23.81,0,0,0-13.64,21.32L227.82,297c-5-3.44-7.4-10-5-15.64A12.7,12.7,0,0,1,241.66,275.8Z" fill="none" stroke="#003a50" stroke-miterlimit="10"/><path d="M268.5,318.08l.12,2c.36,6.12-3.4,12-9.32,13.48A12.66,12.66,0,0,1,243.42,322l-.12-1.84a23.93,23.93,0,0,0,16.64,1.92A23.5,23.5,0,0,0,268.5,318.08Z" fill="none" stroke="#003a50" stroke-miterlimit="10"/><path d="M270.74,281.8a23.73,23.73,0,0,1,6,9.44,16.51,16.51,0,0,1,.6,2,23.85,23.85,0,0,1-8.84,24.84,23.5,23.5,0,0,1-8.56,4A23.87,23.87,0,0,1,231,304.72a22.12,22.12,0,0,1-.68-6A23.81,23.81,0,0,1,244,277.4a22.85,22.85,0,0,1,4.48-1.6A23.8,23.8,0,0,1,270.74,281.8Z" fill="none" stroke="#003a50" stroke-miterlimit="10"/><path d="M289.26,106a1,1,0,0,1,.85.51.9.9,0,0,1-.43,1.22,28,28,0,0,1-23.81,0,.9.9,0,0,1-.43-1.22,1,1,0,0,1,1.26-.42,26,26,0,0,0,22.14,0A1.06,1.06,0,0,1,289.26,106Z" fill="none" stroke="#003a50" stroke-miterlimit="10"/><path d="M289.26,111a1,1,0,0,1,.85.51.9.9,0,0,1-.43,1.22,28,28,0,0,1-23.81,0,.9.9,0,0,1-.43-1.22,1,1,0,0,1,1.26-.41,26.14,26.14,0,0,0,22.14,0A.92.92,0,0,1,289.26,111Z" fill="none" stroke="#003a50" stroke-miterlimit="10"/><path d="M289.26,116.09a1,1,0,0,1,.85.51.9.9,0,0,1-.43,1.23,28.07,28.07,0,0,1-23.81,0,.9.9,0,0,1-.43-1.22,1,1,0,0,1,1.26-.42,26,26,0,0,0,22.14,0A.92.92,0,0,1,289.26,116.09Z" fill="none" stroke="#003a50" stroke-miterlimit="10"/><path d="M289.26,121.16a.94.94,0,0,1,.85.5.9.9,0,0,1-.43,1.23,28.07,28.07,0,0,1-23.81,0,.9.9,0,0,1-.43-1.22,1,1,0,0,1,1.26-.42,26,26,0,0,0,22.14,0A.91.91,0,0,1,289.26,121.16Z" fill="none" stroke="#003a50" stroke-miterlimit="10"/><path d="M289.26,126.22a1,1,0,0,1,.85.51.9.9,0,0,1-.43,1.22,28,28,0,0,1-23.81,0,.9.9,0,0,1-.43-1.22,1,1,0,0,1,1.26-.41,26.14,26.14,0,0,0,22.14,0A.92.92,0,0,1,289.26,126.22Z" fill="none" stroke="#003a50" stroke-miterlimit="10"/><path d="M289.26,131.28a1,1,0,0,1,.85.51.89.89,0,0,1-.43,1.22,28,28,0,0,1-23.81,0,.89.89,0,0,1-.43-1.22,1,1,0,0,1,1.26-.41,26,26,0,0,0,22.14,0A.92.92,0,0,1,289.26,131.28Z" fill="none" stroke="#003a50" stroke-miterlimit="10"/><path d="M289.26,100.9a1,1,0,0,1,.85.51.9.9,0,0,1-.43,1.23,28.07,28.07,0,0,1-23.81,0,.9.9,0,0,1-.43-1.22,1,1,0,0,1,1.26-.42,26,26,0,0,0,22.14,0A.92.92,0,0,1,289.26,100.9Z" fill="none" stroke="#003a50" stroke-miterlimit="10"/><path d="M289.26,95.84a1,1,0,0,1,.85.51.89.89,0,0,1-.43,1.22,28,28,0,0,1-23.81,0,.89.89,0,0,1-.43-1.22,1,1,0,0,1,1.26-.41,26,26,0,0,0,22.14,0A.92.92,0,0,1,289.26,95.84Z" fill="none" stroke="#003a50" stroke-miterlimit="10"/></g><line x1="277.77" y1="13.84" x2="277.77" y2="144.7" fill="none" stroke="#003a50" stroke-miterlimit="10"/><rect x="261.22" y="13.59" width="32.59" height="130.41" fill="none" stroke="#003a50" stroke-miterlimit="10"/><rect x="413.95" y="151.43" width="73.99" height="25.39" fill="none" stroke="#003a50" stroke-miterlimit="10"/><g clip-path="url(#clip-path)"><rect x="417.98" y="149.71" width="24.4" height="25.04" rx="2.83" fill="none" stroke="#003a50" stroke-miterlimit="10"/><path d="M430.18,164.15a1.92,1.92,0,1,1,1.91-1.91A1.92,1.92,0,0,1,430.18,164.15Z" fill="none" stroke="#003a50" stroke-miterlimit="10"/></g><rect x="325.67" y="314.59" width="34.02" height="34.02" fill="none" stroke="#003a50" stroke-miterlimit="10"/><line x1="342.68" y1="341.58" x2="342.68" y2="321.62" fill="none" stroke="#003a50" stroke-miterlimit="10"/><line x1="352.66" y1="331.6" x2="332.7" y2="331.6" fill="none" stroke="#003a50" stroke-miterlimit="10"/><line x1="349.74" y1="338.66" x2="335.62" y2="324.55" fill="none" stroke="#003a50" stroke-miterlimit="10"/><line x1="349.74" y1="324.55" x2="335.62" y2="338.66" fill="none" stroke="#003a50" stroke-miterlimit="10"/><rect x="359.69" y="314.59" width="153.07" height="34.02" fill="none" stroke="#003a50" stroke-miterlimit="10"/><g clip-path="url(#clip-path)"><path d="M376.81,319.42a1,1,0,0,1,.56-.9,1,1,0,0,1,1.34.45,28.77,28.77,0,0,1,0,25.26,1,1,0,1,1-1.8-.88,26.72,26.72,0,0,0,0-23.49A1,1,0,0,1,376.81,319.42Z" fill="none" stroke="#003a50" stroke-miterlimit="10"/><path d="M382.37,319.42a1,1,0,0,1,1.9-.45,28.77,28.77,0,0,1,0,25.26,1,1,0,1,1-1.8-.88,26.72,26.72,0,0,0,0-23.49A1,1,0,0,1,382.37,319.42Z" fill="none" stroke="#003a50" stroke-miterlimit="10"/><path d="M387.94,319.42a1,1,0,0,1,.56-.9,1,1,0,0,1,1.34.45,28.77,28.77,0,0,1,0,25.26,1,1,0,1,1-1.8-.88,26.72,26.72,0,0,0,0-23.49A1,1,0,0,1,387.94,319.42Z" fill="none" stroke="#003a50" stroke-miterlimit="10"/><path d="M393.5,319.42a1,1,0,0,1,.56-.9,1,1,0,0,1,1.35.45,28.77,28.77,0,0,1,0,25.26,1,1,0,0,1-1.34.46,1,1,0,0,1-.46-1.34,26.81,26.81,0,0,0,0-23.49A.9.9,0,0,1,393.5,319.42Z" fill="none" stroke="#003a50" stroke-miterlimit="10"/><path d="M399.07,319.42a1,1,0,0,1,.56-.9A1,1,0,0,1,401,319a28.77,28.77,0,0,1,0,25.26,1,1,0,0,1-1.8-.88,26.72,26.72,0,0,0,0-23.49A1,1,0,0,1,399.07,319.42Z" fill="none" stroke="#003a50" stroke-miterlimit="10"/><path d="M404.63,319.42a1,1,0,0,1,.56-.9,1,1,0,0,1,1.35.45,28.77,28.77,0,0,1,0,25.26,1,1,0,0,1-1.34.46,1,1,0,0,1-.46-1.34,26.81,26.81,0,0,0,0-23.49A.9.9,0,0,1,404.63,319.42Z" fill="none" stroke="#003a50" stroke-miterlimit="10"/><path d="M371.24,319.42a1,1,0,0,1,1.9-.45,28.77,28.77,0,0,1,0,25.26,1,1,0,0,1-1.8-.88,26.72,26.72,0,0,0,0-23.49A1,1,0,0,1,371.24,319.42Z" fill="none" stroke="#003a50" stroke-miterlimit="10"/><path d="M365.67,319.42a1,1,0,0,1,.56-.9,1,1,0,0,1,1.35.45,28.77,28.77,0,0,1,0,25.26,1,1,0,0,1-1.34.46,1,1,0,0,1-.46-1.34,26.81,26.81,0,0,0,0-23.49A1,1,0,0,1,365.67,319.42Z" fill="none" stroke="#003a50" stroke-miterlimit="10"/></g><line x1="359.69" y1="331.6" x2="512.76" y2="331.6" fill="none" stroke="#003a50" stroke-miterlimit="10"/><g clip-path="url(#clip-path)"><path d="M131.59,302.3v41H85.82V300.09h43.56A2.2,2.2,0,0,1,131.59,302.3Z" fill="none" stroke="#003a50" stroke-miterlimit="10"/><path d="M177.46,302.07v41.26H131.69V302.07a2,2,0,0,1,2-2h41.81A2,2,0,0,1,177.46,302.07Z" fill="none" stroke="#003a50" stroke-miterlimit="10"/><path d="M85.82,300.09a3.11,3.11,0,0,0-3.33-2.83H78.27a3.11,3.11,0,0,0-3.33,2.83v48.19H188.33V300.51a3.11,3.11,0,0,0-3.33-2.83h-4.22a3.11,3.11,0,0,0-3.32,2.83v42.83H85.82Z" fill="none" stroke="#003a50" stroke-miterlimit="10"/></g><rect x="85.82" y="334.08" width="91.64" height="9.25" fill="none" stroke="#003a50" stroke-miterlimit="10"/><rect x="54.17" y="13.99" width="22.68" height="22.68" fill="none" stroke="#003a50" stroke-miterlimit="10"/><g clip-path="url(#clip-path)"><path d="M72,31.83a9.2,9.2,0,1,1,0-13A9.2,9.2,0,0,1,72,31.83Z" fill="none" stroke="#003a50" stroke-miterlimit="10"/><path d="M72.63,31.14c-1.69-.17-3.41.49-5.06-1.17-2.44-2.44.14-5-2.3-7.45s-5,.13-7.46-2.3" fill="none" stroke="#003a50" stroke-miterlimit="10"/></g><rect x="191.47" y="13.99" width="22.68" height="22.68" fill="none" stroke="#003a50" stroke-miterlimit="10"/><g clip-path="url(#clip-path)"><path d="M209.31,31.83a9.2,9.2,0,1,1,0-13A9.2,9.2,0,0,1,209.31,31.83Z" fill="none" stroke="#003a50" stroke-miterlimit="10"/><path d="M209.93,31.14c-1.69-.17-3.41.49-5.06-1.17-2.44-2.44.14-5-2.3-7.45s-5,.13-7.46-2.3" fill="none" stroke="#003a50" stroke-miterlimit="10"/></g><rect x="83.17" y="13.99" width="102.05" height="113.39" fill="none" stroke="#003a50" stroke-miterlimit="10"/><g clip-path="url(#clip-path)"><path d="M175.22,117.64h-82a2.09,2.09,0,0,1-2.09-2.08V47.91H177.3v67.65A2.08,2.08,0,0,1,175.22,117.64Z" fill="none" stroke="#003a50" stroke-miterlimit="10"/><rect x="90.83" y="21.42" width="42.5" height="22.88" rx="1.98" fill="none" stroke="#003a50" stroke-miterlimit="10"/><rect x="135.06" y="21.42" width="42.5" height="22.88" rx="1.98" fill="none" stroke="#003a50" stroke-miterlimit="10"/></g><line x1="177.56" y1="61.77" x2="90.83" y2="61.77" fill="none" stroke="#003a50" stroke-miterlimit="10"/><g clip-path="url(#clip-path)"><path d="M355.65,209.54V186.18a3.36,3.36,0,0,0-3.36-3.35h-15a3.35,3.35,0,0,0-3.36,3.35v23.36a3.35,3.35,0,0,0,3.36,3.35h15A3.36,3.36,0,0,0,355.65,209.54Z" fill="none" stroke="#003a50" stroke-miterlimit="10"/><circle cx="348.61" cy="197.86" r="2.46" transform="translate(-51.96 212.82) rotate(-31.72)" fill="none" stroke="#003a50" stroke-miterlimit="10"/></g><line x1="347.85" y1="197.86" x2="361.47" y2="197.86" fill="none" stroke="#003a50" stroke-miterlimit="10"/><line x1="361.47" y1="191.05" x2="361.47" y2="204.67" fill="none" stroke="#003a50" stroke-miterlimit="10"/><g clip-path="url(#clip-path)"><line x1="118.18" y1="1.05" x2="118.18" y2="-58.4" fill="none" stroke="#003a50" stroke-linecap="round" stroke-linejoin="round" stroke-width="0.96"/><line x1="292.06" y1="1.05" x2="292.06" y2="-58.4" fill="none" stroke="#003a50" stroke-linecap="round" stroke-linejoin="round" stroke-width="0.96"/><line x1="260.45" y1="1.05" x2="260.45" y2="-58.4" fill="none" stroke="#003a50" stroke-linecap="round" stroke-linejoin="round" stroke-width="0.96"/><line x1="133.99" y1="1.05" x2="133.99" y2="-58.4" fill="none" stroke="#003a50" stroke-linecap="round" stroke-linejoin="round" stroke-width="0.96"/><line x1="149.79" y1="1.05" x2="149.79" y2="-58.4" fill="none" stroke="#003a50" stroke-linecap="round" stroke-linejoin="round" stroke-width="0.96"/><line x1="165.6" y1="1.05" x2="165.6" y2="-58.4" fill="none" stroke="#003a50" stroke-linecap="round" stroke-linejoin="round" stroke-width="0.96"/><line x1="181.41" y1="1.05" x2="181.41" y2="-58.4" fill="none" stroke="#003a50" stroke-linecap="round" stroke-linejoin="round" stroke-width="0.96"/><line x1="197.22" y1="1.05" x2="197.22" y2="-58.4" fill="none" stroke="#003a50" stroke-linecap="round" stroke-linejoin="round" stroke-width="0.96"/><line x1="213.03" y1="1.05" x2="213.03" y2="-58.4" fill="none" stroke="#003a50" stroke-linecap="round" stroke-linejoin="round" stroke-width="0.96"/><line x1="228.83" y1="1.05" x2="228.83" y2="-58.4" fill="none" stroke="#003a50" stroke-linecap="round" stroke-linejoin="round" stroke-width="0.96"/><line x1="244.64" y1="1.05" x2="244.64" y2="-58.4" fill="none" stroke="#003a50" stroke-linecap="round" stroke-linejoin="round" stroke-width="0.96"/><line x1="260.45" y1="1.05" x2="260.45" y2="-58.4" fill="none" stroke="#003a50" stroke-linecap="round" stroke-linejoin="round" stroke-width="0.96"/><line x1="276.26" y1="1.05" x2="276.26" y2="-58.4" fill="none" stroke="#003a50" stroke-linecap="round" stroke-linejoin="round" stroke-width="0.96"/><line x1="292.06" y1="1.05" x2="292.06" y2="-58.4" fill="none" stroke="#003a50" stroke-linecap="round" stroke-linejoin="round" stroke-width="0.96"/><line x1="133.99" y1="1.05" x2="133.99" y2="-58.4" fill="none" stroke="#003a50" stroke-linecap="round" stroke-linejoin="round" stroke-width="0.96"/><line x1="149.79" y1="1.05" x2="149.79" y2="-58.4" fill="none" stroke="#003a50" stroke-linecap="round" stroke-linejoin="round" stroke-width="0.96"/><line x1="165.6" y1="1.05" x2="165.6" y2="-58.4" fill="none" stroke="#003a50" stroke-linecap="round" stroke-linejoin="round" stroke-width="0.96"/><line x1="181.41" y1="1.05" x2="181.41" y2="-58.4" fill="none" stroke="#003a50" stroke-linecap="round" stroke-linejoin="round" stroke-width="0.96"/><line x1="197.22" y1="1.05" x2="197.22" y2="-58.4" fill="none" stroke="#003a50" stroke-linecap="round" stroke-linejoin="round" stroke-width="0.96"/><line x1="213.03" y1="1.05" x2="213.03" y2="-58.4" fill="none" stroke="#003a50" stroke-linecap="round" stroke-linejoin="round" stroke-width="0.96"/><line x1="228.83" y1="1.05" x2="228.83" y2="-58.4" fill="none" stroke="#003a50" stroke-linecap="round" stroke-linejoin="round" stroke-width="0.96"/><line x1="244.64" y1="1.05" x2="244.64" y2="-58.4" fill="none" stroke="#003a50" stroke-linecap="round" stroke-linejoin="round" stroke-width="0.96"/><line x1="260.45" y1="1.05" x2="260.45" y2="-58.4" fill="none" stroke="#003a50" stroke-linecap="round" stroke-linejoin="round" stroke-width="0.96"/><line x1="133.99" y1="1.05" x2="133.99" y2="-58.4" fill="none" stroke="#003a50" stroke-linecap="round" stroke-linejoin="round" stroke-width="0.96"/><line x1="149.79" y1="1.05" x2="149.79" y2="-58.4" fill="none" stroke="#003a50" stroke-linecap="round" stroke-linejoin="round" stroke-width="0.96"/><line x1="165.6" y1="1.05" x2="165.6" y2="-58.4" fill="none" stroke="#003a50" stroke-linecap="round" stroke-linejoin="round" stroke-width="0.96"/><line x1="181.41" y1="1.05" x2="181.41" y2="-58.4" fill="none" stroke="#003a50" stroke-linecap="round" stroke-linejoin="round" stroke-width="0.96"/><line x1="197.22" y1="1.05" x2="197.22" y2="-58.4" fill="none" stroke="#003a50" stroke-linecap="round" stroke-linejoin="round" stroke-width="0.96"/><line x1="213.03" y1="1.05" x2="213.03" y2="-58.4" fill="none" stroke="#003a50" stroke-linecap="round" stroke-linejoin="round" stroke-width="0.96"/><line x1="228.83" y1="1.05" x2="228.83" y2="-58.4" fill="none" stroke="#003a50" stroke-linecap="round" stroke-linejoin="round" stroke-width="0.96"/><line x1="244.64" y1="1.05" x2="244.64" y2="-58.4" fill="none" stroke="#003a50" stroke-linecap="round" stroke-linejoin="round" stroke-width="0.96"/><line x1="260.45" y1="1.05" x2="260.45" y2="-58.4" fill="none" stroke="#003a50" stroke-linecap="round" stroke-linejoin="round" stroke-width="0.96"/><line x1="276.26" y1="1.05" x2="276.26" y2="-58.4" fill="none" stroke="#003a50" stroke-linecap="round" stroke-linejoin="round" stroke-width="0.96"/><line x1="133.99" y1="1.05" x2="133.99" y2="-58.4" fill="none" stroke="#003a50" stroke-linecap="round" stroke-linejoin="round" stroke-width="0.96"/><line x1="149.79" y1="1.05" x2="149.79" y2="-58.4" fill="none" stroke="#003a50" stroke-linecap="round" stroke-linejoin="round" stroke-width="0.96"/><line x1="165.6" y1="1.05" x2="165.6" y2="-58.4" fill="none" stroke="#003a50" stroke-linecap="round" stroke-linejoin="round" stroke-width="0.96"/><line x1="181.41" y1="1.05" x2="181.41" y2="-58.4" fill="none" stroke="#003a50" stroke-linecap="round" stroke-linejoin="round" stroke-width="0.96"/><line x1="197.22" y1="1.05" x2="197.22" y2="-58.4" fill="none" stroke="#003a50" stroke-linecap="round" stroke-linejoin="round" stroke-width="0.96"/><line x1="213.03" y1="1.05" x2="213.03" y2="-58.4" fill="none" stroke="#003a50" stroke-linecap="round" stroke-linejoin="round" stroke-width="0.96"/><line x1="228.83" y1="1.05" x2="228.83" y2="-58.4" fill="none" stroke="#003a50" stroke-linecap="round" stroke-linejoin="round" stroke-width="0.96"/><line x1="244.64" y1="1.05" x2="244.64" y2="-58.4" fill="none" stroke="#003a50" stroke-linecap="round" stroke-linejoin="round" stroke-width="0.96"/><line x1="118.18" y1="1.05" x2="118.18" y2="-58.4" fill="none" stroke="#003a50" stroke-linecap="round" stroke-linejoin="round" stroke-width="0.96"/><line x1="292.06" y1="1.05" x2="292.06" y2="-58.4" fill="none" stroke="#003a50" stroke-linecap="round" stroke-linejoin="round" stroke-width="0.96"/><line x1="133.99" y1="1.05" x2="133.99" y2="-58.4" fill="none" stroke="#003a50" stroke-linecap="round" stroke-linejoin="round" stroke-width="0.96"/><line x1="149.79" y1="1.05" x2="149.79" y2="-58.4" fill="none" stroke="#003a50" stroke-linecap="round" stroke-linejoin="round" stroke-width="0.96"/><line x1="165.6" y1="1.05" x2="165.6" y2="-58.4" fill="none" stroke="#003a50" stroke-linecap="round" stroke-linejoin="round" stroke-width="0.96"/><line x1="181.41" y1="1.05" x2="181.41" y2="-58.4" fill="none" stroke="#003a50" stroke-linecap="round" stroke-linejoin="round" stroke-width="0.96"/><line x1="197.22" y1="1.05" x2="197.22" y2="-58.4" fill="none" stroke="#003a50" stroke-linecap="round" stroke-linejoin="round" stroke-width="0.96"/><line x1="213.03" y1="1.05" x2="213.03" y2="-58.4" fill="none" stroke="#003a50" stroke-linecap="round" stroke-linejoin="round" stroke-width="0.96"/><line x1="228.83" y1="1.05" x2="228.83" y2="-58.4" fill="none" stroke="#003a50" stroke-linecap="round" stroke-linejoin="round" stroke-width="0.96"/><line x1="244.64" y1="1.05" x2="244.64" y2="-58.4" fill="none" stroke="#003a50" stroke-linecap="round" stroke-linejoin="round" stroke-width="0.96"/><line x1="260.45" y1="1.05" x2="260.45" y2="-58.4" fill="none" stroke="#003a50" stroke-linecap="round" stroke-linejoin="round" stroke-width="0.96"/><line x1="276.26" y1="1.05" x2="276.26" y2="-58.4" fill="none" stroke="#003a50" stroke-linecap="round" stroke-linejoin="round" stroke-width="0.96"/><line x1="292.06" y1="1.05" x2="292.06" y2="-58.4" fill="none" stroke="#003a50" stroke-linecap="round" stroke-linejoin="round" stroke-width="0.96"/><line x1="133.99" y1="1.05" x2="133.99" y2="-58.4" fill="none" stroke="#003a50" stroke-linecap="round" stroke-linejoin="round" stroke-width="0.96"/><line x1="149.79" y1="1.05" x2="149.79" y2="-58.4" fill="none" stroke="#003a50" stroke-linecap="round" stroke-linejoin="round" stroke-width="0.96"/><line x1="165.6" y1="1.05" x2="165.6" y2="-58.4" fill="none" stroke="#003a50" stroke-linecap="round" stroke-linejoin="round" stroke-width="0.96"/><line x1="181.41" y1="1.05" x2="181.41" y2="-58.4" fill="none" stroke="#003a50" stroke-linecap="round" stroke-linejoin="round" stroke-width="0.96"/><line x1="197.22" y1="1.05" x2="197.22" y2="-58.4" fill="none" stroke="#003a50" stroke-linecap="round" stroke-linejoin="round" stroke-width="0.96"/><line x1="213.03" y1="1.05" x2="213.03" y2="-58.4" fill="none" stroke="#003a50" stroke-linecap="round" stroke-linejoin="round" stroke-width="0.96"/><line x1="228.83" y1="1.05" x2="228.83" y2="-58.4" fill="none" stroke="#003a50" stroke-linecap="round" stroke-linejoin="round" stroke-width="0.96"/><line x1="244.64" y1="1.05" x2="244.64" y2="-58.4" fill="none" stroke="#003a50" stroke-linecap="round" stroke-linejoin="round" stroke-width="0.96"/><line x1="260.45" y1="1.05" x2="260.45" y2="-58.4" fill="none" stroke="#003a50" stroke-linecap="round" stroke-linejoin="round" stroke-width="0.96"/><line x1="276.26" y1="1.05" x2="276.26" y2="-58.4" fill="none" stroke="#003a50" stroke-linecap="round" stroke-linejoin="round" stroke-width="0.96"/><path d="M418,246.28v3.07a38.71,38.71,0,0,0,38.71,38.72V246.28" fill="none" stroke="#003a50" stroke-miterlimit="10" stroke-width="1.6"/><path d="M195.85,180.63v-3.58A45.06,45.06,0,0,1,240.91,132v48.65" fill="none" stroke="#003a50" stroke-miterlimit="10" stroke-width="1.6"/><path d="M524.16,258.93h4.07a51.11,51.11,0,0,1,51.12,51.12H524.16" fill="none" stroke="#003a50" stroke-miterlimit="10" stroke-width="1.6"/><path d="M439.89,6.29V2.1a52.74,52.74,0,0,0-52.74-52.74V6.29" fill="none" stroke="#003a50" stroke-miterlimit="10" stroke-width="1.6"/><polygon points="51.98 36.28 51.98 -59.46 2.65 -59.46 14.32 36.28 51.98 36.28" fill="#003a50" fill-rule="evenodd"/><polygon points="51.98 399.96 51.98 304.22 2.65 304.22 14.32 399.96 51.98 399.96" fill="#003a50" fill-rule="evenodd"/><rect x="47.99" y="-0.08" width="339.98" height="13.79" fill="#003a50"/><rect x="513.07" y="309.05" width="16.32" height="50.48" fill="#003a50"/><rect x="513.07" y="109.71" width="16.32" height="150.09" fill="#003a50"/><rect x="519.32" y="-6.29" width="10.07" height="146.14" fill="#003a50"/><rect x="514.98" y="-76.95" width="14.4" height="90.54" fill="#003a50"/><rect x="484.82" y="357.04" width="13.08" height="108.53" fill="#003a50"/><rect x="347.59" y="-83.45" width="13.79" height="92.72" fill="#003a50"/><rect x="47.99" y="348.89" width="481.33" height="13.79" fill="#003a50"/><rect x="438.89" y="-0.08" width="90.5" height="13.79" fill="#003a50"/><rect x="293.9" y="12.05" width="16.74" height="137.8" fill="#003a50"/><rect x="305.44" y="134.33" width="187.71" height="16.78" fill="#003a50"/><rect x="484.82" y="109.71" width="34.5" height="10.81" fill="#003a50"/><rect x="482.92" y="110.48" width="10.81" height="39.38" fill="#003a50"/><rect x="19.4" y="124.61" width="32.58" height="90.82" fill="#003a50"/><rect x="3.65" y="189.52" width="44.33" height="25.9" fill="#003a50"/><rect x="396.27" y="359.19" width="6.38" height="106.38" fill="#003a50"/><rect x="365.32" y="243.53" width="53.52" height="6.38" fill="#003a50"/><rect x="364.73" y="146.52" width="6.38" height="103.38" fill="#003a50"/><rect x="455.89" y="243.53" width="63.43" height="6.38" fill="#003a50"/><rect x="489.49" y="189.86" width="29.83" height="6.38" fill="#003a50"/><rect x="487.37" y="148.5" width="6.38" height="98.21" fill="#003a50"/><rect x="45.65" y="177" width="151.03" height="6.38" fill="#003a50"/><rect x="240.16" y="177" width="26.25" height="6.38" fill="#003a50"/><rect x="261.21" y="143.42" width="6.38" height="39.96" fill="#003a50"/><rect x="264.8" y="143.42" width="44.1" height="7.69" fill="#003a50"/><rect x="523.4" y="360.61" width="5.98" height="101.5" fill="#003a50"/><line x1="364.8" y1="314.59" x2="364.8" y2="248.21" fill="none" stroke="#003a50" stroke-miterlimit="10" stroke-dasharray="5.67 5.67"/><rect x="396.27" y="359.19" width="6.38" height="106.38" fill="#003a50"/><rect x="365.32" y="243.53" width="53.52" height="6.38" fill="#003a50"/><rect x="364.73" y="146.52" width="6.38" height="103.38" fill="#003a50"/><rect x="455.89" y="243.53" width="63.43" height="6.38" fill="#003a50"/><rect x="489.49" y="189.86" width="29.83" height="6.38" fill="#003a50"/><rect x="487.37" y="148.5" width="6.38" height="98.21" fill="#003a50"/><rect x="45.65" y="177" width="151.03" height="6.38" fill="#003a50"/><rect x="240.16" y="177" width="26.25" height="6.38" fill="#003a50"/><rect x="261.21" y="143.42" width="6.38" height="39.96" fill="#003a50"/><rect x="264.8" y="143.42" width="44.1" height="7.69" fill="#003a50"/><rect x="523.4" y="360.61" width="5.98" height="101.5" fill="#003a50"/><line x1="364.8" y1="314.59" x2="364.8" y2="248.21" fill="none" stroke="#003a50" stroke-miterlimit="10" stroke-dasharray="5.67 5.67"/></g><g clip-path="url(#clip-path)"><path d="M30.14,108.84a4.57,4.57,0,0,1-3.12,1,4.6,4.6,0,0,1-3.11-1,4,4,0,0,1,0-5.74,4.6,4.6,0,0,1,3.11-1,4.57,4.57,0,0,1,3.12,1,4,4,0,0,1,0,5.74Zm-1-4.61a3.48,3.48,0,0,0-2.14-.61,3.52,3.52,0,0,0-2.14.61,2.23,2.23,0,0,0,0,3.47,3.52,3.52,0,0,0,2.14.62,3.48,3.48,0,0,0,2.14-.62A2,2,0,0,0,30,106,2.05,2.05,0,0,0,29.16,104.23Z" fill="#003a50"/><path d="M31.13,100.51a.72.72,0,0,1-.57.23.74.74,0,0,1-.56-.23.83.83,0,0,1-.22-.61.82.82,0,0,1,.22-.61.7.7,0,0,1,.56-.23.69.69,0,0,1,.57.23.85.85,0,0,1,.21.61A.87.87,0,0,1,31.13,100.51Z" fill="#003a50"/><path d="M25.19,90.9v1.56s0,0-.12,0a1.2,1.2,0,0,0-.31.15,1.91,1.91,0,0,0-.35.27,1.27,1.27,0,0,0-.29.5,2.08,2.08,0,0,0-.12.71,1.75,1.75,0,0,0,.73,1.52,3.11,3.11,0,0,0,1.89.54v0a1.11,1.11,0,0,1-.3-.31,2.14,2.14,0,0,1-.26-.43,3.09,3.09,0,0,1-.22-.67,4,4,0,0,1-.09-.86,3.58,3.58,0,0,1,.79-2.38,2.62,2.62,0,0,1,4,0,3.92,3.92,0,0,1,.78,2.55,3.38,3.38,0,0,1-1.09,2.73,4.48,4.48,0,0,1-3,.93H27a4.85,4.85,0,0,1-3-.93,3.2,3.2,0,0,1-1.2-2.69,3.93,3.93,0,0,1,.26-1.5,2.69,2.69,0,0,1,.66-1A2.46,2.46,0,0,1,25.19,90.9Zm2.22,1.77a2.58,2.58,0,0,0,0,2.79,1.4,1.4,0,0,0,2.22,0,2.54,2.54,0,0,0,0-2.8,1.3,1.3,0,0,0-1.11-.55A1.32,1.32,0,0,0,27.41,92.67Z" fill="#003a50"/><path d="M30.14,289.52a4.52,4.52,0,0,1-3.11,1,4.56,4.56,0,0,1-3.12-1,4,4,0,0,1,0-5.74,4.61,4.61,0,0,1,3.12-1,4.57,4.57,0,0,1,3.11,1,4,4,0,0,1,0,5.74Zm-1-4.6A3.41,3.41,0,0,0,27,284.3a3.47,3.47,0,0,0-2.15.62,2.22,2.22,0,0,0,0,3.46A3.47,3.47,0,0,0,27,289a3.41,3.41,0,0,0,2.13-.62,2.2,2.2,0,0,0,0-3.46Z" fill="#003a50"/><path d="M31.13,281.19a.69.69,0,0,1-.57.23.7.7,0,0,1-.56-.23.85.85,0,0,1-.21-.61A.87.87,0,0,1,30,280a.74.74,0,0,1,.56-.23.72.72,0,0,1,.57.23.87.87,0,0,1,.21.61A.85.85,0,0,1,31.13,281.19Z" fill="#003a50"/><path d="M25.19,271.58v1.56l-.12,0-.31.15a1.91,1.91,0,0,0-.35.27,1.24,1.24,0,0,0-.29.51,2,2,0,0,0-.12.71,1.78,1.78,0,0,0,.73,1.52,3.18,3.18,0,0,0,1.89.53v0a1,1,0,0,1-.3-.31,2.14,2.14,0,0,1-.26-.43,3.61,3.61,0,0,1-.22-.66,4.12,4.12,0,0,1-.09-.86,3.56,3.56,0,0,1,.79-2.38,2.46,2.46,0,0,1,2-.92,2.51,2.51,0,0,1,2,1,3.87,3.87,0,0,1,.78,2.54,3.38,3.38,0,0,1-1.09,2.73,4.48,4.48,0,0,1-3,.93H27a4.86,4.86,0,0,1-3.05-.93,3.18,3.18,0,0,1-1.2-2.68,3.93,3.93,0,0,1,.26-1.5,2.73,2.73,0,0,1,.66-1A2.48,2.48,0,0,1,25.19,271.58Zm2.22,1.77a2.32,2.32,0,0,0-.41,1.4,2.27,2.27,0,0,0,.41,1.39,1.33,1.33,0,0,0,1.12.55,1.31,1.31,0,0,0,1.1-.54,2.54,2.54,0,0,0,0-2.8,1.32,1.32,0,0,0-1.1-.55A1.35,1.35,0,0,0,27.41,273.35Z" fill="#003a50"/><path d="M103.77,139.12l-2.48,1.95v-2.24l2.73-2.27h1.86v11.91h-2.11Z" fill="#003a50"/><path d="M114.6,138.41h-5.82v-1.85h8.86v1.85l-4.53,2.65v.06h1.28a3.87,3.87,0,0,1,2.79,1,3.51,3.51,0,0,1,1.06,2.66,3.35,3.35,0,0,1-1.33,2.82,6.93,6.93,0,0,1-7.24,0,3.35,3.35,0,0,1-1.33-2.85v-.33h2.11v.33c0,1.36.94,2,2.84,2s2.84-.66,2.84-2-.95-2-2.84-2H110v-1.66l4.58-2.69Z" fill="#003a50"/><path d="M120.34,148.34a1,1,0,0,1-.33-.81,1,1,0,0,1,.33-.8,1.4,1.4,0,0,1,1.73,0,1,1,0,0,1,.33.8,1,1,0,0,1-.33.81,1.4,1.4,0,0,1-1.73,0Z" fill="#003a50"/><path d="M130.44,138.41h-5.82v-1.85h8.86v1.85L129,141.06v.06h1.28a3.87,3.87,0,0,1,2.79,1,3.5,3.5,0,0,1,1.05,2.66,3.32,3.32,0,0,1-1.33,2.82,6.93,6.93,0,0,1-7.24,0,3.38,3.38,0,0,1-1.33-2.85v-.33h2.11v.33c0,1.36.95,2,2.84,2s2.84-.66,2.84-2-.94-2-2.84-2h-3.26v-1.66l4.57-2.69Z" fill="#003a50"/><path d="M426.12,204.07H420.3v-1.84h8.86v1.84l-4.52,2.65v.07h1.28a3.9,3.9,0,0,1,2.79,1,3.52,3.52,0,0,1,1.05,2.67,3.32,3.32,0,0,1-1.33,2.82,6.93,6.93,0,0,1-7.24,0,3.35,3.35,0,0,1-1.33-2.85v-.33H422v.33c0,1.36.95,2,2.84,2s2.84-.67,2.84-2-.95-2-2.84-2h-3.26v-1.67l4.57-2.68Z" fill="#003a50"/><path d="M431.86,214a1.17,1.17,0,0,1,0-1.61,1.41,1.41,0,0,1,1.74,0,1.17,1.17,0,0,1,0,1.61,1.41,1.41,0,0,1-1.74,0Z" fill="#003a50"/><path d="M439,214.14h-2.35l5.42-10h-6.93v-1.88h9.28v1.88Z" fill="#003a50"/><path d="M481.55,278.63h-2.11V276h-7v-1.84l6.3-7.42h2.79v7.42h1.59V276h-1.59Zm-2.11-4.49v-5.32h-.07l-4.47,5.27v.05Z" fill="#003a50"/><path d="M484.83,278.5a1,1,0,0,1-.32-.8,1,1,0,0,1,.32-.81,1.41,1.41,0,0,1,1.74,0,1.07,1.07,0,0,1,.32.81,1,1,0,0,1-.32.8,1.41,1.41,0,0,1-1.74,0Z" fill="#003a50"/><path d="M489,275.29h2.21s0,.07,0,.18a2.36,2.36,0,0,0,.23.43,2.09,2.09,0,0,0,.41.48,2,2,0,0,0,.75.42,3.21,3.21,0,0,0,1.05.16,2.66,2.66,0,0,0,2.24-1.06,4.3,4.3,0,0,0,.81-2.71h-.06a2,2,0,0,1-.44.47,2.73,2.73,0,0,1-.6.4,3.88,3.88,0,0,1-.95.32,5.52,5.52,0,0,1-1.23.13,4.92,4.92,0,0,1-3.36-1.13,3.73,3.73,0,0,1,.05-5.72,5.55,5.55,0,0,1,3.6-1.1,4.81,4.81,0,0,1,3.87,1.54,6.35,6.35,0,0,1,1.33,4.27v.41a6.65,6.65,0,0,1-1.38,4.31,4.67,4.67,0,0,1-3.88,1.71,6,6,0,0,1-2.17-.37,3.86,3.86,0,0,1-1.48-.95A3.35,3.35,0,0,1,489,275.29Zm2.77-3.17a3.58,3.58,0,0,0,3.94,0,1.83,1.83,0,0,0,.79-1.57,1.86,1.86,0,0,0-.78-1.57,3.21,3.21,0,0,0-2-.59,3.17,3.17,0,0,0-2,.59,2,2,0,0,0,0,3.14Z" fill="#003a50"/><path d="M104.35,241.41l-2.49,2v-2.24l2.74-2.27h1.86v11.91h-2.11Z" fill="#003a50"/><path d="M117.65,250a7.75,7.75,0,0,1-7.36,0,2.94,2.94,0,0,1-1.37-2.56,2.73,2.73,0,0,1,.25-1.17,2.37,2.37,0,0,1,.66-.85,3.94,3.94,0,0,1,1.39-.77l.26-.07v-.09a3.32,3.32,0,0,1-.76-.29,2.68,2.68,0,0,1-.67-.44,2.24,2.24,0,0,1-.54-.76,2.38,2.38,0,0,1-.22-1,2.81,2.81,0,0,1,1.25-2.38,7,7,0,0,1,6.85,0,2.83,2.83,0,0,1,1.25,2.38,2.5,2.5,0,0,1-.22,1,2,2,0,0,1-.55.74,3.72,3.72,0,0,1-1.2.68l-.22,0v.09l.28.07a4.76,4.76,0,0,1,.62.26,4.28,4.28,0,0,1,.77.51,2.66,2.66,0,0,1,.62.82,2.71,2.71,0,0,1,.27,1.2A2.94,2.94,0,0,1,117.65,250Zm-5.79-1.35a3.84,3.84,0,0,0,2.1.48,4,4,0,0,0,2.11-.47,1.61,1.61,0,0,0,0-2.7,4.95,4.95,0,0,0-4.21,0,1.53,1.53,0,0,0-.74,1.35A1.51,1.51,0,0,0,111.86,248.64Zm-.36-6.52a1.35,1.35,0,0,0,.64,1.19,4,4,0,0,0,3.65,0,1.42,1.42,0,0,0,0-2.39,4,4,0,0,0-3.62,0A1.38,1.38,0,0,0,111.5,242.12Z" fill="#003a50"/><path d="M121.12,250.63a1,1,0,0,1-.32-.81,1.07,1.07,0,0,1,.32-.81,1.25,1.25,0,0,1,.88-.3,1.23,1.23,0,0,1,.86.3,1.07,1.07,0,0,1,.32.81,1,1,0,0,1-.32.81,1.28,1.28,0,0,1-.86.29A1.3,1.3,0,0,1,121.12,250.63Z" fill="#003a50"/><path d="M134.74,242.2h-2.21s0-.06,0-.17a2.53,2.53,0,0,0-.22-.44,2.69,2.69,0,0,0-.39-.5,1.77,1.77,0,0,0-.71-.41,2.91,2.91,0,0,0-1-.16,2.52,2.52,0,0,0-2.16,1,4.45,4.45,0,0,0-.76,2.68h.06a1.63,1.63,0,0,1,.44-.43,3.9,3.9,0,0,1,.6-.37,5,5,0,0,1,1-.3,5.41,5.41,0,0,1,1.21-.13,5,5,0,0,1,3.37,1.11,3.52,3.52,0,0,1,1.31,2.8,3.59,3.59,0,0,1-1.36,2.91,5.54,5.54,0,0,1-3.61,1.1,4.81,4.81,0,0,1-3.87-1.54,6.36,6.36,0,0,1-1.32-4.27v-.41a6.85,6.85,0,0,1,1.32-4.31,4.52,4.52,0,0,1,3.81-1.71,5.64,5.64,0,0,1,2.12.38,3.72,3.72,0,0,1,1.44.94A3.4,3.4,0,0,1,134.74,242.2Zm-2.51,3.15a3.65,3.65,0,0,0-3.95,0,2,2,0,0,0,0,3.15,3.63,3.63,0,0,0,4,0,2,2,0,0,0,0-3.15Z" fill="#003a50"/></g></svg>