<svg id="Слой_1" data-name="Слой 1" xmlns="http://www.w3.org/2000/svg" xmlns:xlink="http://www.w3.org/1999/xlink" viewBox="0 0 581.1 365.67"><defs><clipPath id="clip-path"><polygon points="0 0.14 0 316.91 15.65 316.91 15.65 365.53 581.1 365.53 581.1 66.41 288.4 66.41 288.4 0.14 0 0.14" fill="none"/></clipPath></defs><g clip-path="url(#clip-path)"><polygon points="579.11 -442.17 579.11 -101.97 653.94 -101.97 655.26 -79.24 655.26 -31.99 653.94 171.44 674.99 175.67 677.66 207.81 1141.13 207.81 1141.13 -115.81 1141.13 -186.74 1141.13 -442.17 579.11 -442.17" fill="#fff"/></g><path d="M415.47,66.41l110.74,2.14-.06-2.14ZM26.19.14V1.83H284.93l-2.94,62,6.41.13V.14Z" fill="#fff"/><polygon points="26.19 0.54 26.19 357.35 221.67 357.35 285.79 357.35 489.46 357.35 489.46 358.31 526.66 358.31 526.66 253.83 516.37 251.61 512.59 242.75 512.59 193.45 519.29 68.55 286.87 67.44 286.87 0.54 26.19 0.54" fill="#fff"/><g clip-path="url(#clip-path)"><rect x="26.67" y="-441.75" width="1115.44" height="2194.74" fill="none" stroke="#003a50" stroke-miterlimit="10"/><polygon points="51.49 643.97 51.49 1730.04 1117.96 1730.04 1117.96 -417.83 51.49 -417.99 51.49 575.17 51.49 643.97" fill="none" stroke="#003a50" stroke-miterlimit="10"/></g><rect x="36.39" y="204.1" width="4.55" height="87.23" fill="#fff"/><rect x="36.39" y="204.1" width="4.55" height="87.23" fill="none" stroke="#003a50" stroke-miterlimit="10"/><line x1="38.67" y1="204.1" x2="38.67" y2="291.33" fill="none" stroke="#003a50" stroke-miterlimit="10"/><rect x="36.39" y="204.1" width="4.55" height="4.41" fill="#fff"/><rect x="36.39" y="204.1" width="4.55" height="4.41" fill="none" stroke="#003a50" stroke-miterlimit="10"/><rect x="36.39" y="286.93" width="4.55" height="4.4" fill="#fff"/><rect x="36.39" y="286.93" width="4.55" height="4.4" fill="none" stroke="#003a50" stroke-miterlimit="10"/><rect x="36.39" y="245.51" width="4.55" height="4.41" fill="#fff"/><rect x="36.39" y="245.51" width="4.55" height="4.41" fill="none" stroke="#003a50" stroke-miterlimit="10"/><rect x="36.39" y="20.97" width="4.55" height="88.23" fill="#fff"/><rect x="36.39" y="20.97" width="4.55" height="88.23" fill="none" stroke="#003a50" stroke-miterlimit="10"/><line x1="38.67" y1="20.97" x2="38.67" y2="109.2" fill="none" stroke="#003a50" stroke-miterlimit="10"/><rect x="36.39" y="20.97" width="4.55" height="4.45" fill="#fff"/><rect x="36.39" y="20.97" width="4.55" height="4.45" fill="none" stroke="#003a50" stroke-miterlimit="10"/><rect x="36.39" y="104.75" width="4.55" height="4.46" fill="#fff"/><rect x="36.39" y="104.75" width="4.55" height="4.46" fill="none" stroke="#003a50" stroke-miterlimit="10"/><rect x="36.39" y="62.86" width="4.55" height="4.45" fill="#fff"/><rect x="36.39" y="62.86" width="4.55" height="4.45" fill="none" stroke="#003a50" stroke-miterlimit="10"/><g clip-path="url(#clip-path)"><rect x="313.57" y="37.25" width="72.48" height="29.76" fill="none" stroke="#003a50" stroke-miterlimit="10"/></g><rect x="359.53" y="251.65" width="34.02" height="99.6" fill="none" stroke="#003a50" stroke-miterlimit="10"/><g clip-path="url(#clip-path)"><rect x="51.86" y="-33.76" width="230.49" height="34.02" fill="none" stroke="#003a50" stroke-miterlimit="10"/><rect x="386.09" y="-29.07" width="43.33" height="96.06" fill="none" stroke="#003a50" stroke-miterlimit="10"/><path d="M391.46,46.84V-8.92a15.93,15.93,0,0,1,15.93-15.93h.73A15.94,15.94,0,0,1,424.06-8.92V46.84a15.94,15.94,0,0,1-15.94,15.93h-.73A15.93,15.93,0,0,1,391.46,46.84Z" fill="none" stroke="#003a50" stroke-miterlimit="10"/><path d="M407.76,45.25a2.27,2.27,0,1,1-2.27,2.27A2.27,2.27,0,0,1,407.76,45.25Z" fill="none" stroke="#003a50" stroke-miterlimit="10"/></g><rect x="378.56" y="79.46" width="41.13" height="98.9" fill="none" stroke="#003a50" stroke-miterlimit="10"/><g clip-path="url(#clip-path)"><path d="M414.59,99.28v59.28a15.47,15.47,0,0,1-30.93,0V99.28a15.47,15.47,0,1,1,30.93,0Z" fill="none" stroke="#003a50" stroke-miterlimit="10"/><path d="M399.12,101.71a2.2,2.2,0,1,1,2.2-2.2A2.21,2.21,0,0,1,399.12,101.71Z" fill="none" stroke="#003a50" stroke-miterlimit="10"/><path d="M342.49,10.37H313.64V-12.42h28.85A11.39,11.39,0,0,1,353.89-1,11.39,11.39,0,0,1,342.49,10.37Z" fill="none" stroke="#003a50" stroke-miterlimit="10"/><path d="M458.19,130.17H487V153H458.19a11.4,11.4,0,0,1,0-22.8Z" fill="none" stroke="#003a50" stroke-miterlimit="10"/></g><line x1="475.82" y1="152.97" x2="475.82" y2="130.17" fill="none" stroke="#003a50" stroke-miterlimit="10"/><g clip-path="url(#clip-path)"><rect x="353.34" y="39.64" width="28.96" height="29.71" rx="3.36" fill="none" stroke="#003a50" stroke-miterlimit="10"/><circle cx="367.82" cy="54.49" r="2.27" transform="translate(255.11 408.83) rotate(-80.78)" fill="none" stroke="#003a50" stroke-miterlimit="10"/></g><rect x="419.8" y="79.81" width="37.82" height="26.34" fill="none" stroke="#003a50" stroke-miterlimit="10"/><g clip-path="url(#clip-path)"><rect x="425.4" y="77.71" width="25.64" height="26.31" rx="2.97" fill="none" stroke="#003a50" stroke-miterlimit="10"/><path d="M438.22,92.87a2,2,0,1,1,2-2A2,2,0,0,1,438.22,92.87Z" fill="none" stroke="#003a50" stroke-miterlimit="10"/><rect x="313.88" y="37.25" width="34.02" height="28.84" fill="none" stroke="#003a50" stroke-miterlimit="10"/><path d="M336.2,43.36h-2.12a3.07,3.07,0,0,1-5.71,0h-2.79l-5.28,3,2.52,4,2.38-1.27V60h11.37V49.11L339,50.38l2.53-4Z" fill="none" stroke="#003a50" stroke-miterlimit="10"/></g><rect x="457.62" y="79.99" width="30.12" height="25.9" fill="none" stroke="#003a50" stroke-miterlimit="10"/><g clip-path="url(#clip-path)"><path d="M477.38,86h-1.87a2.72,2.72,0,0,1-5.06,0H468l-4.68,2.68,2.24,3.53,2.11-1.12v9.62h10.07V91.08l2.1,1.12,2.24-3.53Z" fill="none" stroke="#003a50" stroke-miterlimit="10"/><rect x="107.53" y="-33.75" width="34.02" height="34.02" fill="none" stroke="#003a50" stroke-miterlimit="10"/><rect x="217.14" y="-33.75" width="34.02" height="34.02" fill="none" stroke="#003a50" stroke-miterlimit="10"/><rect x="51.87" y="-33.75" width="34.02" height="34.02" fill="none" stroke="#003a50" stroke-miterlimit="10"/></g><rect x="338.72" y="152.89" width="33.05" height="33.05" fill="none" stroke="#003a50" stroke-miterlimit="10"/><line x1="355.24" y1="179.11" x2="355.24" y2="159.72" fill="none" stroke="#003a50" stroke-miterlimit="10"/><line x1="364.94" y1="169.41" x2="345.55" y2="169.41" fill="none" stroke="#003a50" stroke-miterlimit="10"/><line x1="362.1" y1="176.27" x2="348.39" y2="162.56" fill="none" stroke="#003a50" stroke-miterlimit="10"/><line x1="362.1" y1="162.56" x2="348.39" y2="176.27" fill="none" stroke="#003a50" stroke-miterlimit="10"/><g clip-path="url(#clip-path)"><rect x="362.99" y="303.05" width="21.66" height="30.06" rx="3.36" fill="none" stroke="#003a50" stroke-miterlimit="10"/><circle cx="377.62" cy="318.08" r="2.46" transform="matrix(0.53, -0.85, 0.85, 0.53, -91.48, 472.08)" fill="none" stroke="#003a50" stroke-miterlimit="10"/></g><line x1="376.86" y1="318.08" x2="390.47" y2="318.08" fill="none" stroke="#003a50" stroke-miterlimit="10"/><line x1="390.48" y1="324.89" x2="390.48" y2="311.27" fill="none" stroke="#003a50" stroke-miterlimit="10"/><rect x="338.03" y="80.15" width="34.02" height="68.03" fill="none" stroke="#003a50" stroke-miterlimit="10"/><g clip-path="url(#clip-path)"><path d="M342.85,131.07a1,1,0,0,1-.9-.56,1,1,0,0,1,.45-1.35,28.77,28.77,0,0,1,25.26,0,1,1,0,0,1,.46,1.34,1,1,0,0,1-1.34.46,26.81,26.81,0,0,0-23.49,0A1,1,0,0,1,342.85,131.07Z" fill="none" stroke="#003a50" stroke-miterlimit="10"/><path d="M342.85,125.5a1,1,0,0,1-.45-1.9,28.77,28.77,0,0,1,25.26,0,1,1,0,1,1-.88,1.8,26.72,26.72,0,0,0-23.49,0A1,1,0,0,1,342.85,125.5Z" fill="none" stroke="#003a50" stroke-miterlimit="10"/><path d="M342.85,119.93a1,1,0,0,1-.9-.56,1,1,0,0,1,.45-1.34,28.77,28.77,0,0,1,25.26,0,1,1,0,1,1-.88,1.8,26.72,26.72,0,0,0-23.49,0A1,1,0,0,1,342.85,119.93Z" fill="none" stroke="#003a50" stroke-miterlimit="10"/><path d="M342.85,114.37a1,1,0,0,1-.45-1.9,28.77,28.77,0,0,1,25.26,0,1,1,0,1,1-.88,1.8,26.72,26.72,0,0,0-23.49,0A1,1,0,0,1,342.85,114.37Z" fill="none" stroke="#003a50" stroke-miterlimit="10"/><path d="M342.85,108.8a1,1,0,0,1-.9-.56,1,1,0,0,1,.45-1.34,28.77,28.77,0,0,1,25.26,0,1,1,0,1,1-.88,1.8,26.72,26.72,0,0,0-23.49,0A1,1,0,0,1,342.85,108.8Z" fill="none" stroke="#003a50" stroke-miterlimit="10"/><path d="M342.85,103.24a1,1,0,0,1-.9-.56,1,1,0,0,1,.45-1.35,28.77,28.77,0,0,1,25.26,0,1,1,0,0,1,.46,1.34,1,1,0,0,1-1.34.46,26.81,26.81,0,0,0-23.49,0A.9.9,0,0,1,342.85,103.24Z" fill="none" stroke="#003a50" stroke-miterlimit="10"/><path d="M342.85,136.63a1,1,0,0,1-.45-1.9,28.77,28.77,0,0,1,25.26,0,1,1,0,0,1-.88,1.8,26.72,26.72,0,0,0-23.49,0A1,1,0,0,1,342.85,136.63Z" fill="none" stroke="#003a50" stroke-miterlimit="10"/><path d="M342.85,142.2a1,1,0,0,1-.9-.56,1,1,0,0,1,.45-1.35,28.77,28.77,0,0,1,25.26,0,1,1,0,0,1,.46,1.34,1,1,0,0,1-1.34.46,26.81,26.81,0,0,0-23.49,0A1,1,0,0,1,342.85,142.2Z" fill="none" stroke="#003a50" stroke-miterlimit="10"/></g><line x1="355.03" y1="148.18" x2="355.03" y2="80.54" fill="none" stroke="#003a50" stroke-miterlimit="10"/><g clip-path="url(#clip-path)"><path d="M290.67,82.29a1,1,0,0,1,1.9-.44,28.77,28.77,0,0,1,0,25.26,1,1,0,1,1-1.8-.88,26.74,26.74,0,0,0,0-23.5A1,1,0,0,1,290.67,82.29Z" fill="none" stroke="#003a50" stroke-miterlimit="10"/><path d="M296.23,82.29a1,1,0,0,1,1.91-.44,28.77,28.77,0,0,1,0,25.26,1,1,0,0,1-1.34.46,1,1,0,0,1-.46-1.34,26.83,26.83,0,0,0,0-23.5A.87.87,0,0,1,296.23,82.29Z" fill="none" stroke="#003a50" stroke-miterlimit="10"/><path d="M301.8,82.29a1,1,0,0,1,.56-.9,1,1,0,0,1,1.34.46,28.77,28.77,0,0,1,0,25.26,1,1,0,1,1-1.8-.88,26.74,26.74,0,0,0,0-23.5A1,1,0,0,1,301.8,82.29Z" fill="none" stroke="#003a50" stroke-miterlimit="10"/><path d="M307.36,82.29a1,1,0,0,1,1.91-.44,28.77,28.77,0,0,1,0,25.26,1,1,0,0,1-1.34.46,1,1,0,0,1-.46-1.34,26.83,26.83,0,0,0,0-23.5A.87.87,0,0,1,307.36,82.29Z" fill="none" stroke="#003a50" stroke-miterlimit="10"/><path d="M312.93,82.29a1,1,0,0,1,.56-.9,1,1,0,0,1,1.34.46,28.77,28.77,0,0,1,0,25.26,1,1,0,1,1-1.8-.88,26.74,26.74,0,0,0,0-23.5A1,1,0,0,1,312.93,82.29Z" fill="none" stroke="#003a50" stroke-miterlimit="10"/><path d="M318.49,82.29a1,1,0,0,1,1.91-.44,28.77,28.77,0,0,1,0,25.26,1,1,0,0,1-1.34.46,1,1,0,0,1-.46-1.34,26.83,26.83,0,0,0,0-23.5A1,1,0,0,1,318.49,82.29Z" fill="none" stroke="#003a50" stroke-miterlimit="10"/><path d="M285.1,82.29a1,1,0,0,1,1.91-.44,28.77,28.77,0,0,1,0,25.26,1,1,0,0,1-1.34.46,1,1,0,0,1-.46-1.34,26.83,26.83,0,0,0,0-23.5A.87.87,0,0,1,285.1,82.29Z" fill="none" stroke="#003a50" stroke-miterlimit="10"/><path d="M279.54,82.29a1,1,0,0,1,1.9-.44,28.77,28.77,0,0,1,0,25.26,1,1,0,1,1-1.8-.88,26.74,26.74,0,0,0,0-23.5A1,1,0,0,1,279.54,82.29Z" fill="none" stroke="#003a50" stroke-miterlimit="10"/></g><line x1="272.82" y1="94.48" x2="338.02" y2="94.48" fill="none" stroke="#003a50" stroke-miterlimit="10"/><rect x="272.82" y="79.46" width="65.21" height="29.22" fill="none" stroke="#003a50" stroke-miterlimit="10"/><g clip-path="url(#clip-path)"><rect x="436.37" y="35.03" width="56.47" height="30.8" fill="none" stroke="#003a50" stroke-miterlimit="10"/><path d="M451.87,39.4a.92.92,0,0,1,.51-.82.9.9,0,0,1,1.21.42,26,26,0,0,1,0,22.87.9.9,0,0,1-1.62-.8,24.31,24.31,0,0,0,0-21.27A.85.85,0,0,1,451.87,39.4Z" fill="none" stroke="#003a50" stroke-miterlimit="10"/><path d="M456.91,39.4a.92.92,0,0,1,.51-.82.9.9,0,0,1,1.21.42,26,26,0,0,1,0,22.87.91.91,0,0,1-1.63-.8,24.22,24.22,0,0,0,0-21.27A1,1,0,0,1,456.91,39.4Z" fill="none" stroke="#003a50" stroke-miterlimit="10"/><path d="M462,39.4a.92.92,0,0,1,.51-.82.9.9,0,0,1,1.21.42,26,26,0,0,1,0,22.87.91.91,0,0,1-1.63-.8,24.22,24.22,0,0,0,0-21.27A1,1,0,0,1,462,39.4Z" fill="none" stroke="#003a50" stroke-miterlimit="10"/><path d="M467,39.4a.9.9,0,0,1,1.72-.4,26.09,26.09,0,0,1,0,22.87.91.91,0,0,1-1.63-.8,24.22,24.22,0,0,0,0-21.27A.83.83,0,0,1,467,39.4Z" fill="none" stroke="#003a50" stroke-miterlimit="10"/><path d="M472,39.4a.9.9,0,0,1,1.72-.4,26.09,26.09,0,0,1,0,22.87.91.91,0,0,1-1.63-.8,24.22,24.22,0,0,0,0-21.27A.83.83,0,0,1,472,39.4Z" fill="none" stroke="#003a50" stroke-miterlimit="10"/><path d="M477.06,39.4a.91.91,0,0,1,1.73-.4,26.09,26.09,0,0,1,0,22.87.91.91,0,0,1-1.63-.8,24.22,24.22,0,0,0,0-21.27A.85.85,0,0,1,477.06,39.4Z" fill="none" stroke="#003a50" stroke-miterlimit="10"/><path d="M446.83,39.4a.92.92,0,0,1,.51-.82.9.9,0,0,1,1.21.42,26,26,0,0,1,0,22.87.9.9,0,1,1-1.62-.8,24.31,24.31,0,0,0,0-21.27A.85.85,0,0,1,446.83,39.4Z" fill="none" stroke="#003a50" stroke-miterlimit="10"/><path d="M441.79,39.4a.91.91,0,0,1,1.73-.4,26.09,26.09,0,0,1,0,22.87.91.91,0,0,1-1.22.41.89.89,0,0,1-.41-1.21,24.31,24.31,0,0,0,0-21.27A.85.85,0,0,1,441.79,39.4Z" fill="none" stroke="#003a50" stroke-miterlimit="10"/></g><rect x="399.49" y="256.81" width="34.02" height="70.33" fill="none" stroke="#003a50" stroke-miterlimit="10"/><rect x="435.92" y="327.62" width="39.54" height="23.61" fill="none" stroke="#003a50" stroke-miterlimit="10"/><rect x="291.74" y="152.62" width="33.59" height="33.59" fill="none" stroke="#003a50" stroke-miterlimit="10"/><g clip-path="url(#clip-path)"><circle cx="316.2" cy="176.93" r="4.58" fill="none" stroke="#003a50" stroke-miterlimit="10"/><circle cx="300.91" cy="176.93" r="4.58" fill="none" stroke="#003a50" stroke-miterlimit="10"/><circle cx="316.2" cy="162.02" r="4.58" fill="none" stroke="#003a50" stroke-miterlimit="10"/><circle cx="300.91" cy="162.02" r="4.58" fill="none" stroke="#003a50" stroke-miterlimit="10"/></g><rect x="83.49" y="163.22" width="102.05" height="17.01" fill="none" stroke="#003a50" stroke-miterlimit="10"/><polygon points="91.51 171.18 134.41 174.71 177.51 171.18 177.51 168.72 91.51 168.72 91.51 171.18" fill="none" stroke="#003a50" stroke-miterlimit="10"/><rect x="51.64" y="186.6" width="102.05" height="17.01" fill="none" stroke="#003a50" stroke-miterlimit="10"/><polygon points="145.67 195.65 102.77 192.12 59.67 195.65 59.67 198.1 145.67 198.1 145.67 195.65" fill="none" stroke="#003a50" stroke-miterlimit="10"/><rect x="270.74" y="152.62" width="101.92" height="33.59" fill="none" stroke="#003a50" stroke-miterlimit="10"/><g clip-path="url(#clip-path)"><path d="M300.58,293.71a1.27,1.27,0,0,1-.95-1.51A13.78,13.78,0,1,0,272.76,286a1.26,1.26,0,0,1-2.46-.57,16.3,16.3,0,0,1,31.78,7.29A1.25,1.25,0,0,1,300.58,293.71Z" fill="none" stroke="#003a50" stroke-miterlimit="10"/><path d="M245.41,284a1.26,1.26,0,0,1-1.75.33,13.79,13.79,0,0,0-15.53,22.79,1.25,1.25,0,0,1,.34,1.74,1.26,1.26,0,0,1-1.75.34,16.3,16.3,0,0,1,18.35-26.95A1.26,1.26,0,0,1,245.41,284Z" fill="none" stroke="#003a50" stroke-miterlimit="10"/><path d="M242.9,331.39a1.26,1.26,0,0,1,1.33,1.18A13.78,13.78,0,1,0,271.75,331a1.26,1.26,0,0,1,2.52-.16,16.3,16.3,0,0,1-32.55,1.94A1.26,1.26,0,0,1,242.9,331.39Z" fill="none" stroke="#003a50" stroke-miterlimit="10"/><path d="M286.38,277.09a12.69,12.69,0,0,1,12,15.48l-2,8.88a3.53,3.53,0,0,1-4.24,2.68l-13.44-3.08a23.73,23.73,0,0,0-6-9.44l1-4.2C275,281.45,280.26,276.89,286.38,277.09Z" fill="none" stroke="#003a50" stroke-miterlimit="10"/><path d="M243.58,285.61l2.32,1.6a23.81,23.81,0,0,0-13.64,21.32l-2.52-1.72c-5-3.44-7.4-10-5-15.64A12.7,12.7,0,0,1,243.58,285.61Z" fill="none" stroke="#003a50" stroke-miterlimit="10"/><path d="M270.42,327.89l.12,2c.36,6.12-3.4,12-9.32,13.48a12.66,12.66,0,0,1-15.88-11.48l-.12-1.84a23.93,23.93,0,0,0,16.64,1.92A23.5,23.5,0,0,0,270.42,327.89Z" fill="none" stroke="#003a50" stroke-miterlimit="10"/><path d="M272.66,291.61a23.73,23.73,0,0,1,6,9.44,16.51,16.51,0,0,1,.6,2,23.85,23.85,0,0,1-8.84,24.84,23.5,23.5,0,0,1-8.56,4,23.87,23.87,0,0,1-28.92-17.4,22.12,22.12,0,0,1-.68-6,23.81,23.81,0,0,1,13.64-21.32,22.85,22.85,0,0,1,4.48-1.6A23.8,23.8,0,0,1,272.66,291.61Z" fill="none" stroke="#003a50" stroke-miterlimit="10"/><path d="M108.77,305.52v41H63V303.31h43.56A2.21,2.21,0,0,1,108.77,305.52Z" fill="none" stroke="#003a50" stroke-miterlimit="10"/><path d="M154.64,305.3v41.26H108.87V305.3a2,2,0,0,1,2-2h41.81A2,2,0,0,1,154.64,305.3Z" fill="none" stroke="#003a50" stroke-miterlimit="10"/><path d="M63,303.31a3.11,3.11,0,0,0-3.33-2.83H55.45a3.12,3.12,0,0,0-3.33,2.83v48.2H165.51V303.74a3.12,3.12,0,0,0-3.33-2.84H158a3.12,3.12,0,0,0-3.32,2.84v42.82H63Z" fill="none" stroke="#003a50" stroke-miterlimit="10"/></g><rect x="63" y="337.31" width="91.64" height="9.25" fill="none" stroke="#003a50" stroke-miterlimit="10"/><rect x="54.53" y="13.22" width="22.68" height="22.68" fill="none" stroke="#003a50" stroke-miterlimit="10"/><g clip-path="url(#clip-path)"><path d="M72.36,31.06a9.2,9.2,0,1,1,0-13A9.19,9.19,0,0,1,72.36,31.06Z" fill="none" stroke="#003a50" stroke-miterlimit="10"/><path d="M73,30.37c-1.7-.17-3.42.48-5.07-1.18-2.43-2.43.14-5-2.29-7.45s-5,.14-7.46-2.3" fill="none" stroke="#003a50" stroke-miterlimit="10"/></g><rect x="191.83" y="13.22" width="22.68" height="22.68" fill="none" stroke="#003a50" stroke-miterlimit="10"/><g clip-path="url(#clip-path)"><path d="M209.66,31.06a9.2,9.2,0,1,1,0-13A9.19,9.19,0,0,1,209.66,31.06Z" fill="none" stroke="#003a50" stroke-miterlimit="10"/><path d="M210.29,30.37c-1.69-.17-3.41.48-5.07-1.18-2.43-2.43.14-5-2.29-7.45s-5,.14-7.46-2.3" fill="none" stroke="#003a50" stroke-miterlimit="10"/></g><rect x="83.53" y="13.22" width="102.05" height="113.39" fill="none" stroke="#003a50" stroke-miterlimit="10"/><g clip-path="url(#clip-path)"><path d="M175.58,116.87H93.53a2.1,2.1,0,0,1-2.09-2.09V47.14h86.22v67.64A2.09,2.09,0,0,1,175.58,116.87Z" fill="none" stroke="#003a50" stroke-miterlimit="10"/><rect x="91.19" y="20.65" width="42.5" height="22.88" rx="1.98" fill="none" stroke="#003a50" stroke-miterlimit="10"/><rect x="135.42" y="20.65" width="42.5" height="22.88" rx="1.98" fill="none" stroke="#003a50" stroke-miterlimit="10"/></g><line x1="177.92" y1="60.99" x2="91.19" y2="60.99" fill="none" stroke="#003a50" stroke-miterlimit="10"/><g clip-path="url(#clip-path)"><path d="M404.32,310a1,1,0,0,1-.44-1.91,28.77,28.77,0,0,1,25.26,0,1,1,0,0,1,.45,1.34,1,1,0,0,1-1.34.46,26.81,26.81,0,0,0-23.49,0A1,1,0,0,1,404.32,310Z" fill="none" stroke="#003a50" stroke-miterlimit="10"/><path d="M404.32,304.46a1,1,0,0,1-.44-1.9,28.77,28.77,0,0,1,25.26,0,1,1,0,0,1-.89,1.8,26.72,26.72,0,0,0-23.49,0A1,1,0,0,1,404.32,304.46Z" fill="none" stroke="#003a50" stroke-miterlimit="10"/><path d="M404.32,298.9a1,1,0,0,1-.44-1.91,28.77,28.77,0,0,1,25.26,0,1,1,0,0,1,.45,1.34,1,1,0,0,1-1.34.46,26.81,26.81,0,0,0-23.49,0A1,1,0,0,1,404.32,298.9Z" fill="none" stroke="#003a50" stroke-miterlimit="10"/><path d="M404.32,293.33a1,1,0,0,1-.44-1.9,28.77,28.77,0,0,1,25.26,0,1,1,0,0,1-.89,1.8,26.72,26.72,0,0,0-23.49,0A1,1,0,0,1,404.32,293.33Z" fill="none" stroke="#003a50" stroke-miterlimit="10"/><path d="M404.32,287.77a1,1,0,0,1-.44-1.91,28.77,28.77,0,0,1,25.26,0,1,1,0,0,1,.45,1.34,1,1,0,0,1-1.34.46,26.81,26.81,0,0,0-23.49,0A1,1,0,0,1,404.32,287.77Z" fill="none" stroke="#003a50" stroke-miterlimit="10"/><path d="M404.32,282.2a1,1,0,0,1-.44-1.9,28.77,28.77,0,0,1,25.26,0,1,1,0,0,1-.89,1.8,26.72,26.72,0,0,0-23.49,0A1,1,0,0,1,404.32,282.2Z" fill="none" stroke="#003a50" stroke-miterlimit="10"/><path d="M404.32,315.59a1,1,0,0,1-.44-1.9,28.77,28.77,0,0,1,25.26,0,1,1,0,0,1-.89,1.8,26.72,26.72,0,0,0-23.49,0A1,1,0,0,1,404.32,315.59Z" fill="none" stroke="#003a50" stroke-miterlimit="10"/><path d="M404.32,321.16a1,1,0,0,1-.44-1.91,28.77,28.77,0,0,1,25.26,0,1,1,0,0,1,.45,1.34,1,1,0,0,1-1.34.46,26.81,26.81,0,0,0-23.49,0A.87.87,0,0,1,404.32,321.16Z" fill="none" stroke="#003a50" stroke-miterlimit="10"/></g><line x1="416.51" y1="327.14" x2="416.51" y2="256.81" fill="none" stroke="#003a50" stroke-miterlimit="10"/><g clip-path="url(#clip-path)"><path d="M232.1,43.23a14.78,14.78,0,0,0-15.93,23.38,1.14,1.14,0,1,0,1.77-1.43,12.47,12.47,0,0,1,14.16-19.5Z" fill="none" stroke="#003a50" stroke-miterlimit="10"/><rect x="232.1" y="13.45" width="34.02" height="84.03" rx="3.31" fill="none" stroke="#003a50" stroke-miterlimit="10"/><path d="M262.4,16a1.4,1.4,0,0,0-1.4,1.4V93.54a1.4,1.4,0,0,0,2.8,0V17.4a1.4,1.4,0,0,0-1.4-1.4" fill="none" stroke="#003a50" stroke-miterlimit="10"/><path d="M247.82,83.81a5.51,5.51,0,1,1,0,7.79A5.51,5.51,0,0,1,247.82,83.81Z" fill="none" stroke="#003a50" stroke-miterlimit="10"/><path d="M247.45,84.22c1,.1,2.05-.28,3,.7,1.46,1.46-.08,3,1.38,4.47s3-.08,4.47,1.38" fill="none" stroke="#003a50" stroke-miterlimit="10"/><path d="M232.1,47.94a10.63,10.63,0,1,0,0,19.59Z" fill="none" stroke="#003a50" stroke-miterlimit="10"/></g><rect x="359.53" y="251.37" width="34.02" height="34.02" fill="none" stroke="#003a50" stroke-miterlimit="10"/><line x1="375.8" y1="270.4" x2="375.8" y2="280.96" fill="none" stroke="#003a50" stroke-miterlimit="10"/><g clip-path="url(#clip-path)"><path d="M376.71,270.4h-1.82a3.4,3.4,0,0,1-3.39-3.4V255.8h8.6V267A3.4,3.4,0,0,1,376.71,270.4Z" fill="none" stroke="#003a50" stroke-miterlimit="10"/></g><line x1="372.32" y1="280.96" x2="379.27" y2="280.96" fill="none" stroke="#003a50" stroke-miterlimit="10"/><g clip-path="url(#clip-path)"><path d="M425.35,181.39v3.07a38.71,38.71,0,0,0,38.71,38.72V181.39" fill="none" stroke="#003a50" stroke-miterlimit="10" stroke-width="1.6"/><path d="M216.75,183.52v-3.58a45.05,45.05,0,0,1,45.06-45.06v48.64" fill="none" stroke="#003a50" stroke-miterlimit="10" stroke-width="1.6"/><path d="M523.92,243.8H528a51.13,51.13,0,0,0,51.13-51.12H523.92" fill="none" stroke="#003a50" stroke-miterlimit="10" stroke-width="1.6"/><line x1="498.89" y1="246.75" x2="444.4" y2="246.75" fill="none" stroke="#003a50" stroke-miterlimit="10" stroke-width="1.6"/><polygon points="51.59 109.18 51.59 204.92 2.26 204.92 13.92 109.18 51.59 109.18" fill="#003a50" fill-rule="evenodd"/><rect x="12.59" y="-73.49" width="39" height="94.57" fill="#003a50"/><rect x="13.74" y="291.12" width="37.85" height="97.19" fill="#003a50"/><rect x="3.26" y="291.12" width="44.33" height="25.9" fill="#003a50"/><rect x="37.43" y="351.75" width="491.33" height="13.79" fill="#003a50"/><rect x="37.42" y="-0.25" width="249.5" height="13.79" fill="#003a50"/><rect x="277.09" y="66.09" width="249.5" height="13.79" fill="#003a50"/><rect x="512.59" y="68.45" width="16.81" height="125" fill="#003a50"/><rect x="512.59" y="242.75" width="16.81" height="17.72" fill="#003a50"/><rect x="475.63" y="250.75" width="53.77" height="11.84" fill="#003a50"/><rect x="475.63" y="256.67" width="10.5" height="98.45" fill="#003a50"/><rect x="493.09" y="-33.27" width="11.67" height="106.25" fill="#003a50"/><rect x="270.74" y="-0.25" width="16.18" height="80.12" fill="#003a50"/><rect x="306.99" y="-28.78" width="6.38" height="99.52" fill="#003a50"/><rect x="429.74" y="-28.78" width="6.38" height="99.52" fill="#003a50"/><rect x="281.99" y="-28.78" width="6.38" height="99.52" fill="#003a50"/><rect x="523.03" y="255.91" width="6.38" height="132.4" fill="#003a50"/><rect x="393.04" y="251.61" width="6.38" height="106.7" fill="#003a50"/><rect x="523.03" y="-37.26" width="6.38" height="107.23" fill="#003a50"/><rect x="372.66" y="178.64" width="53.52" height="6.38" fill="#003a50"/><rect x="372.07" y="75.7" width="6.38" height="108.39" fill="#003a50"/><rect x="463.23" y="178.64" width="63.43" height="6.38" fill="#003a50"/><rect x="393.05" y="250.64" width="41.3" height="6.38" fill="#003a50"/><rect x="395.39" y="327.33" width="40.36" height="6.38" fill="#003a50"/><rect x="429.36" y="327.33" width="6.38" height="25.8" fill="#003a50"/><rect x="471.4" y="250.64" width="55.26" height="6.38" fill="#003a50"/><rect x="489.45" y="156.85" width="29.83" height="6.38" fill="#003a50"/><rect x="487.34" y="76.95" width="6.38" height="104.88" fill="#003a50"/><rect x="41.82" y="179.9" width="175.76" height="6.38" fill="#003a50"/><rect x="261.05" y="179.9" width="11.77" height="6.38" fill="#003a50"/><rect x="266.93" y="146.32" width="109.31" height="7.69" fill="#003a50"/><line x1="393.55" y1="264.88" x2="393.55" y2="262.04" fill="none" stroke="#003a50" stroke-miterlimit="10"/><line x1="393.55" y1="256.28" x2="393.55" y2="189.95" fill="none" stroke="#003a50" stroke-miterlimit="10" stroke-dasharray="5.77 5.77"/><line x1="393.55" y1="187.07" x2="393.55" y2="184.24" fill="none" stroke="#003a50" stroke-miterlimit="10"/><rect x="266.44" y="6.65" width="6.38" height="102.03" fill="#003a50"/><rect x="266.44" y="146.32" width="6.38" height="39.96" fill="#003a50"/></g><g clip-path="url(#clip-path)"><path d="M465,10.13l-2.49,1.95V9.84l2.74-2.27h1.86V19.48H465Z" fill="#003a50"/><path d="M469.65,19.35a1,1,0,0,1-.32-.81,1,1,0,0,1,.32-.8,1.41,1.41,0,0,1,1.74,0,1.06,1.06,0,0,1,.32.8,1,1,0,0,1-.32.81,1.41,1.41,0,0,1-1.74,0Z" fill="#003a50"/><path d="M482.23,18.72a7.71,7.71,0,0,1-7.36,0,2.94,2.94,0,0,1-1.37-2.56,2.69,2.69,0,0,1,.25-1.16,2.32,2.32,0,0,1,.66-.86,4.11,4.11,0,0,1,1.39-.77l.26-.07V13.2a2.91,2.91,0,0,1-.76-.29,2.88,2.88,0,0,1-.67-.44,2.2,2.2,0,0,1-.54-.75,2.41,2.41,0,0,1-.22-1,2.83,2.83,0,0,1,1.25-2.39,5.81,5.81,0,0,1,3.42-.89A5.92,5.92,0,0,1,482,8.3a2.83,2.83,0,0,1,1.24,2.39,2.43,2.43,0,0,1-.22,1,2,2,0,0,1-.55.74,3.54,3.54,0,0,1-1.2.68l-.22,0v.09l.28.07a5.42,5.42,0,0,1,.62.27,4.19,4.19,0,0,1,.78.5,2.88,2.88,0,0,1,.61.83,2.63,2.63,0,0,1,.27,1.19A3,3,0,0,1,482.23,18.72Zm-5.79-1.36a3.75,3.75,0,0,0,2.1.49,3.9,3.9,0,0,0,2.11-.48,1.59,1.59,0,0,0,0-2.69,4.95,4.95,0,0,0-4.21,0,1.59,1.59,0,0,0,0,2.68Zm-.36-6.51a1.36,1.36,0,0,0,.64,1.19,4.09,4.09,0,0,0,3.65,0,1.36,1.36,0,0,0,.64-1.19,1.38,1.38,0,0,0-.65-1.2,3.2,3.2,0,0,0-1.82-.44,3.13,3.13,0,0,0-1.8.44A1.36,1.36,0,0,0,476.08,10.85Z" fill="#003a50"/><path d="M361.44,9.42h-5.82V7.57h8.86V9.42L360,12.07v.06h1.28a3.87,3.87,0,0,1,2.79,1,3.47,3.47,0,0,1,1.06,2.66,3.35,3.35,0,0,1-1.33,2.82,6.93,6.93,0,0,1-7.24,0,3.35,3.35,0,0,1-1.33-2.85v-.33h2.11v.33c0,1.36.94,2,2.84,2s2.84-.66,2.84-2-1-2-2.84-2h-3.27V12.17l4.58-2.69Z" fill="#003a50"/><path d="M367.18,19.35a1,1,0,0,1-.33-.81,1,1,0,0,1,.33-.8,1.4,1.4,0,0,1,1.73,0,1,1,0,0,1,.33.8,1,1,0,0,1-.33.81,1.4,1.4,0,0,1-1.73,0Z" fill="#003a50"/><path d="M379.76,18.72a7.73,7.73,0,0,1-7.37,0A3,3,0,0,1,371,16.15a2.7,2.7,0,0,1,.26-1.16,2.32,2.32,0,0,1,.66-.86,4,4,0,0,1,1.39-.77l.26-.07V13.2a2.91,2.91,0,0,1-.76-.29,2.51,2.51,0,0,1-.67-.44,2.2,2.2,0,0,1-.54-.75,2.41,2.41,0,0,1-.22-1,2.83,2.83,0,0,1,1.25-2.39,7,7,0,0,1,6.85,0,2.84,2.84,0,0,1,1.25,2.39,2.58,2.58,0,0,1-.22,1,2,2,0,0,1-.55.74,3.54,3.54,0,0,1-1.2.68l-.22,0v.09l.28.07a5.42,5.42,0,0,1,.62.27,3.79,3.79,0,0,1,.77.5,2.89,2.89,0,0,1,.62.83,2.63,2.63,0,0,1,.27,1.19A3,3,0,0,1,379.76,18.72ZM374,17.36a3.75,3.75,0,0,0,2.1.49,3.84,3.84,0,0,0,2.1-.48,1.59,1.59,0,0,0,0-2.69,4.93,4.93,0,0,0-4.2,0,1.58,1.58,0,0,0,0,2.68Zm-.36-6.51a1.36,1.36,0,0,0,.64,1.19,4.09,4.09,0,0,0,3.65,0,1.38,1.38,0,0,0,.64-1.19,1.36,1.36,0,0,0-.66-1.2,3.94,3.94,0,0,0-3.62,0A1.38,1.38,0,0,0,373.61,10.85Z" fill="#003a50"/><path d="M154.62,139.09,152.14,141v-2.25l2.73-2.26h1.86v11.91h-2.11Z" fill="#003a50"/><path d="M161.25,139.09,158.77,141v-2.25l2.73-2.26h1.86v11.91h-2.11Z" fill="#003a50"/><path d="M165.88,148.3a1,1,0,0,1-.32-.8,1.07,1.07,0,0,1,.32-.81,1.41,1.41,0,0,1,1.74,0,1.07,1.07,0,0,1,.32.81,1,1,0,0,1-.32.8,1.41,1.41,0,0,1-1.74,0Z" fill="#003a50"/><path d="M178.46,147.67a7.71,7.71,0,0,1-7.36,0,2.91,2.91,0,0,1-1.37-2.55,2.7,2.7,0,0,1,.25-1.17,2.51,2.51,0,0,1,.66-.85,3.89,3.89,0,0,1,1.4-.77l.25-.07v-.09a3.51,3.51,0,0,1-.76-.29,2.91,2.91,0,0,1-.66-.44,2.21,2.21,0,0,1-.54-.76,2.39,2.39,0,0,1-.23-1,2.8,2.8,0,0,1,1.26-2.38,5.74,5.74,0,0,1,3.42-.9,5.84,5.84,0,0,1,3.43.9,2.82,2.82,0,0,1,1.24,2.38,2.43,2.43,0,0,1-.22,1,1.83,1.83,0,0,1-.55.75,3.72,3.72,0,0,1-1.2.68l-.22,0v.09l.28.07a4,4,0,0,1,.63.26,5.14,5.14,0,0,1,.77.51,2.77,2.77,0,0,1,.89,2A3,3,0,0,1,178.46,147.67Zm-5.78-1.35a3.79,3.79,0,0,0,2.1.48,4,4,0,0,0,2.1-.47,1.6,1.6,0,0,0,0-2.7,4.93,4.93,0,0,0-4.2,0,1.51,1.51,0,0,0-.74,1.35A1.49,1.49,0,0,0,172.68,146.32Zm-.37-6.52A1.36,1.36,0,0,0,173,141a4,4,0,0,0,3.65,0,1.36,1.36,0,0,0,.64-1.19,1.38,1.38,0,0,0-.65-1.2,3.94,3.94,0,0,0-3.62,0A1.36,1.36,0,0,0,172.31,139.8Z" fill="#003a50"/><path d="M436.7,162.25h-5.82v-1.84h8.86v1.84l-4.53,2.65V165h1.28a3.86,3.86,0,0,1,2.79,1,3.5,3.5,0,0,1,1.06,2.67,3.35,3.35,0,0,1-1.33,2.82,7,7,0,0,1-7.24,0,3.36,3.36,0,0,1-1.33-2.86v-.32h2.11v.32c0,1.36.94,2,2.84,2s2.84-.67,2.84-2-1-2-2.84-2h-3.27V165l4.58-2.68Z" fill="#003a50"/><path d="M442.44,172.18a1,1,0,0,1-.33-.8,1,1,0,0,1,.33-.81,1.23,1.23,0,0,1,.87-.3,1.2,1.2,0,0,1,.86.3,1,1,0,0,1,.33.81,1,1,0,0,1-.33.8,1.2,1.2,0,0,1-.86.3A1.23,1.23,0,0,1,442.44,172.18Z" fill="#003a50"/><path d="M455,171.55a7.73,7.73,0,0,1-7.37,0,2.93,2.93,0,0,1-1.37-2.55,2.71,2.71,0,0,1,.26-1.17,2.29,2.29,0,0,1,.66-.85,3.71,3.71,0,0,1,1.39-.77l.26-.07V166a3.32,3.32,0,0,1-.76-.29,3,3,0,0,1-.67-.44,2.35,2.35,0,0,1-.54-.76,2.38,2.38,0,0,1-.22-1,2.81,2.81,0,0,1,1.25-2.38,7,7,0,0,1,6.85,0,2.83,2.83,0,0,1,1.25,2.38,2.43,2.43,0,0,1-.22,1,1.93,1.93,0,0,1-.55.75,3.72,3.72,0,0,1-1.2.68l-.22,0v.09l.28.07a3.62,3.62,0,0,1,.62.26,4.28,4.28,0,0,1,.77.51,2.55,2.55,0,0,1,.62.82,2.68,2.68,0,0,1,.27,1.2A2.94,2.94,0,0,1,455,171.55Zm-5.79-1.35a3.84,3.84,0,0,0,2.1.48,3.94,3.94,0,0,0,2.1-.47,1.51,1.51,0,0,0,.74-1.35,1.49,1.49,0,0,0-.74-1.35,4.93,4.93,0,0,0-4.2,0,1.59,1.59,0,0,0,0,2.69Zm-.36-6.52a1.36,1.36,0,0,0,.64,1.19,4,4,0,0,0,3.65,0,1.38,1.38,0,0,0,.64-1.19,1.36,1.36,0,0,0-.66-1.2,3.94,3.94,0,0,0-3.62,0A1.38,1.38,0,0,0,448.87,163.68Z" fill="#003a50"/><path d="M482.35,232.54h-9.94V231a2.75,2.75,0,0,1,.59-1.74,4,4,0,0,1,1.44-1.2c.5-.25,1.12-.54,1.87-.86s1.32-.56,1.88-.78a4.07,4.07,0,0,0,1.44-.91,1.8,1.8,0,0,0,.57-1.3c0-1.26-.88-1.89-2.66-1.89s-2.68.72-2.68,2.16v.41h-2.11v-.41a3.59,3.59,0,0,1,1.27-3,5.34,5.34,0,0,1,3.51-1,5.63,5.63,0,0,1,3.51,1,3.27,3.27,0,0,1,1.27,2.75,3.14,3.14,0,0,1-.55,1.83,4.42,4.42,0,0,1-1.41,1.31c-.59.34-1.21.65-1.83.93s-1.24.52-1.83.74a5.26,5.26,0,0,0-1.4.75,1.22,1.22,0,0,0-.57,1h7.63Z" fill="#003a50"/><path d="M484.45,232.41a1.15,1.15,0,0,1,0-1.61,1.4,1.4,0,0,1,1.73,0,1.15,1.15,0,0,1,0,1.61,1.4,1.4,0,0,1-1.73,0Z" fill="#003a50"/><path d="M498.07,224h-2.21s0-.07,0-.18a2.59,2.59,0,0,0-.6-.94,2,2,0,0,0-.71-.41,3.24,3.24,0,0,0-1-.16,2.49,2.49,0,0,0-2.15,1,4.41,4.41,0,0,0-.77,2.68h.06a2,2,0,0,1,.44-.43,3.93,3.93,0,0,1,1.56-.67,6.16,6.16,0,0,1,1.22-.13,5.06,5.06,0,0,1,3.37,1.12,3.5,3.5,0,0,1,1.3,2.8,3.56,3.56,0,0,1-1.36,2.9,5.49,5.49,0,0,1-3.6,1.11,4.81,4.81,0,0,1-3.87-1.55,6.36,6.36,0,0,1-1.32-4.27v-.4a6.83,6.83,0,0,1,1.32-4.31,4.5,4.5,0,0,1,3.8-1.71,5.66,5.66,0,0,1,2.13.37,3.79,3.79,0,0,1,1.43.94A3.44,3.44,0,0,1,498.07,224Zm-2.51,3.14a3.65,3.65,0,0,0-3.95,0,1.88,1.88,0,0,0-.78,1.58,1.85,1.85,0,0,0,.77,1.57,3.15,3.15,0,0,0,2,.59,3.2,3.2,0,0,0,2-.59,2,2,0,0,0,0-3.15Z" fill="#003a50"/><path d="M452.45,312.55h-9.94V311a2.85,2.85,0,0,1,.58-1.75,4,4,0,0,1,1.45-1.19c.5-.26,1.12-.55,1.87-.87s1.32-.55,1.88-.77a4.22,4.22,0,0,0,1.44-.91,1.82,1.82,0,0,0,.57-1.31c0-1.25-.88-1.88-2.66-1.88S445,303,445,304.47v.4h-2.11v-.4a3.6,3.6,0,0,1,1.27-3,5.4,5.4,0,0,1,3.51-1,5.72,5.72,0,0,1,3.51,1,3.29,3.29,0,0,1,1.27,2.75,3.17,3.17,0,0,1-.55,1.84,4.39,4.39,0,0,1-1.41,1.3,18.5,18.5,0,0,1-1.83.93q-.94.42-1.83.75a5.26,5.26,0,0,0-1.4.75,1.22,1.22,0,0,0-.57.95h7.63Z" fill="#003a50"/><path d="M454.55,312.41a1,1,0,0,1-.33-.8,1,1,0,0,1,.33-.81,1.4,1.4,0,0,1,1.73,0,1,1,0,0,1,.33.81,1,1,0,0,1-.33.8,1.4,1.4,0,0,1-1.73,0Z" fill="#003a50"/><path d="M468.33,312.55h-9.94V311a2.85,2.85,0,0,1,.58-1.75,4,4,0,0,1,1.45-1.19c.5-.26,1.12-.55,1.87-.87s1.32-.55,1.87-.77a4.26,4.26,0,0,0,1.45-.91,1.82,1.82,0,0,0,.57-1.31c0-1.25-.89-1.88-2.66-1.88s-2.68.72-2.68,2.16v.4h-2.11v-.4a3.6,3.6,0,0,1,1.27-3,5.4,5.4,0,0,1,3.51-1,5.72,5.72,0,0,1,3.51,1,3.29,3.29,0,0,1,1.27,2.75,3.17,3.17,0,0,1-.55,1.84,4.39,4.39,0,0,1-1.41,1.3,19.67,19.67,0,0,1-1.83.93q-.94.42-1.83.75a5.11,5.11,0,0,0-1.4.75,1.22,1.22,0,0,0-.57.95h7.63Z" fill="#003a50"/><path d="M228.45,232.54h-9.93V231a2.74,2.74,0,0,1,.58-1.74,4,4,0,0,1,1.44-1.2c.5-.25,1.13-.54,1.87-.86l1.88-.78a4.21,4.21,0,0,0,1.45-.91,1.8,1.8,0,0,0,.57-1.3q0-1.89-2.67-1.89T221,224.46v.41h-2.11v-.41a3.62,3.62,0,0,1,1.26-3,5.38,5.38,0,0,1,3.51-1,5.66,5.66,0,0,1,3.52,1,3.3,3.3,0,0,1,1.27,2.75,3.14,3.14,0,0,1-.56,1.83,4.29,4.29,0,0,1-1.4,1.31c-.6.34-1.21.65-1.84.93s-1.23.52-1.82.74a5.18,5.18,0,0,0-1.41.75,1.23,1.23,0,0,0-.56,1h7.62Z" fill="#003a50"/><path d="M232.05,231a7.33,7.33,0,0,1,0-8.83,5.71,5.71,0,0,1,8.13,0,7.33,7.33,0,0,1,0,8.83,5.69,5.69,0,0,1-8.13,0Zm6.52-1.38a5.67,5.67,0,0,0,0-6.07,3.14,3.14,0,0,0-4.91,0,5.67,5.67,0,0,0,0,6.07,3.13,3.13,0,0,0,4.91,0Z" fill="#003a50"/><path d="M243.85,232.41a1.15,1.15,0,0,1,0-1.61,1.4,1.4,0,0,1,1.73,0,1.15,1.15,0,0,1,0,1.61,1.4,1.4,0,0,1-1.73,0Z" fill="#003a50"/><path d="M257.63,232.54h-9.94V231a2.8,2.8,0,0,1,.58-1.74,4.12,4.12,0,0,1,1.45-1.2c.5-.25,1.12-.54,1.87-.86l1.87-.78a4.12,4.12,0,0,0,1.45-.91,1.8,1.8,0,0,0,.57-1.3c0-1.26-.89-1.89-2.66-1.89s-2.68.72-2.68,2.16v.41H248v-.41a3.59,3.59,0,0,1,1.27-3,5.34,5.34,0,0,1,3.51-1,5.65,5.65,0,0,1,3.51,1,3.27,3.27,0,0,1,1.27,2.75A3.14,3.14,0,0,1,257,226a4.42,4.42,0,0,1-1.41,1.31q-.9.51-1.83.93c-.63.27-1.24.52-1.83.74a5.26,5.26,0,0,0-1.4.75,1.22,1.22,0,0,0-.57,1h7.63Z" fill="#003a50"/><path d="M298,128.54H288V127a2.85,2.85,0,0,1,.58-1.75A4,4,0,0,1,290,124c.5-.26,1.12-.55,1.87-.87s1.32-.55,1.88-.77a4.22,4.22,0,0,0,1.44-.91,1.82,1.82,0,0,0,.57-1.31c0-1.25-.89-1.88-2.66-1.88s-2.68.72-2.68,2.16v.4h-2.11v-.4a3.6,3.6,0,0,1,1.27-3,5.4,5.4,0,0,1,3.51-1,5.72,5.72,0,0,1,3.51,1,3.29,3.29,0,0,1,1.27,2.75,3.17,3.17,0,0,1-.55,1.84,4.28,4.28,0,0,1-1.41,1.3,16.56,16.56,0,0,1-1.83.93q-.94.42-1.83.75a5.11,5.11,0,0,0-1.4.75,1.22,1.22,0,0,0-.57,1H298Z" fill="#003a50"/><path d="M300.05,128.4a1,1,0,0,1-.33-.8,1,1,0,0,1,.33-.81,1.4,1.4,0,0,1,1.73,0,1,1,0,0,1,.33.81,1,1,0,0,1-.33.8,1.4,1.4,0,0,1-1.73,0Z" fill="#003a50"/><path d="M306,119.19l-2.48,2V118.9l2.73-2.27h1.86v11.91H306Z" fill="#003a50"/></g></svg>