<svg id="Слой_1" data-name="Слой 1" xmlns="http://www.w3.org/2000/svg" xmlns:xlink="http://www.w3.org/1999/xlink" viewBox="0 0 583.94 632.13"><defs><clipPath id="clip-path"><polygon points="0.14 0 0.14 632.13 383.98 632.13 383.98 615.6 405.41 615.6 405.41 231.19 531.97 231.19 531.97 180.57 583.94 180.57 583.94 0 0.14 0" fill="none"/></clipPath></defs><polygon points="30.17 0 30.17 0.42 518.28 3.16 518.09 0 30.17 0" fill="#fff"/><polygon points="508.86 11.68 508.86 11.98 29.22 11.98 29.22 615.33 395.48 615.33 395.48 219.61 516.19 219.61 515.71 178.43 515.71 129.09 529.03 112.92 529.03 11.68 508.86 11.68" fill="#fff"/><polygon points="390.68 615.33 405.41 615.33 405.41 231.19 531.97 231.19 531.97 231.02 390.68 230.29 390.68 615.33" fill="#fff"/><g clip-path="url(#clip-path)"><rect x="29.7" y="-1588.57" width="1115.44" height="2194.74" fill="none" stroke="#003a50" stroke-miterlimit="10"/><polygon points="54.52 -502.86 54.52 583.21 1120.99 583.21 1120.99 -1564.66 54.52 -1564.82 54.52 -571.66 54.52 -502.86" fill="none" stroke="#003a50" stroke-miterlimit="10"/></g><rect x="39.42" y="47.87" width="4.55" height="89.48" fill="#fff"/><rect x="39.42" y="47.87" width="4.55" height="89.48" fill="none" stroke="#003a50" stroke-miterlimit="10"/><line x1="41.7" y1="47.87" x2="41.7" y2="137.35" fill="none" stroke="#003a50" stroke-miterlimit="10"/><rect x="39.42" y="47.87" width="4.55" height="4.52" fill="#fff"/><rect x="39.42" y="47.87" width="4.55" height="4.52" fill="none" stroke="#003a50" stroke-miterlimit="10"/><rect x="39.42" y="132.83" width="4.55" height="4.52" fill="#fff"/><rect x="39.42" y="132.83" width="4.55" height="4.52" fill="none" stroke="#003a50" stroke-miterlimit="10"/><rect x="39.42" y="90.35" width="4.55" height="4.52" fill="#fff"/><rect x="39.42" y="90.35" width="4.55" height="4.52" fill="none" stroke="#003a50" stroke-miterlimit="10"/><rect x="39.42" y="230.81" width="4.55" height="86.88" fill="#fff"/><rect x="39.42" y="230.81" width="4.55" height="86.88" fill="none" stroke="#003a50" stroke-miterlimit="10"/><line x1="41.7" y1="230.81" x2="41.7" y2="317.69" fill="none" stroke="#003a50" stroke-miterlimit="10"/><rect x="39.42" y="230.81" width="4.55" height="4.39" fill="#fff"/><rect x="39.42" y="230.81" width="4.55" height="4.39" fill="none" stroke="#003a50" stroke-miterlimit="10"/><rect x="39.42" y="313.3" width="4.55" height="4.38" fill="#fff"/><rect x="39.42" y="313.3" width="4.55" height="4.38" fill="none" stroke="#003a50" stroke-miterlimit="10"/><rect x="39.42" y="272.05" width="4.55" height="4.39" fill="#fff"/><rect x="39.42" y="272.05" width="4.55" height="4.39" fill="none" stroke="#003a50" stroke-miterlimit="10"/><rect x="39.42" y="413.47" width="4.55" height="88.34" fill="#fff"/><rect x="39.42" y="413.47" width="4.55" height="88.34" fill="none" stroke="#003a50" stroke-miterlimit="10"/><line x1="41.7" y1="413.47" x2="41.7" y2="501.8" fill="none" stroke="#003a50" stroke-miterlimit="10"/><rect x="39.42" y="413.47" width="4.55" height="4.46" fill="#fff"/><rect x="39.42" y="413.47" width="4.55" height="4.46" fill="none" stroke="#003a50" stroke-miterlimit="10"/><rect x="39.42" y="497.35" width="4.55" height="4.46" fill="#fff"/><rect x="39.42" y="497.35" width="4.55" height="4.46" fill="none" stroke="#003a50" stroke-miterlimit="10"/><rect x="39.42" y="455.4" width="4.55" height="4.46" fill="#fff"/><rect x="39.42" y="455.4" width="4.55" height="4.46" fill="none" stroke="#003a50" stroke-miterlimit="10"/><rect x="299.47" y="591.55" width="88.21" height="4.56" fill="#fff"/><rect x="299.47" y="591.55" width="88.21" height="4.56" fill="none" stroke="#003a50" stroke-miterlimit="10"/><line x1="299.47" y1="593.84" x2="387.69" y2="593.83" fill="none" stroke="#003a50" stroke-miterlimit="10"/><rect x="299.47" y="591.55" width="4.45" height="4.56" fill="#fff"/><rect x="299.47" y="591.55" width="4.45" height="4.56" fill="none" stroke="#003a50" stroke-miterlimit="10"/><rect x="383.23" y="591.55" width="4.45" height="4.56" fill="#fff"/><rect x="383.23" y="591.55" width="4.45" height="4.56" fill="none" stroke="#003a50" stroke-miterlimit="10"/><rect x="341.35" y="591.55" width="4.45" height="4.56" fill="#fff"/><rect x="341.35" y="591.55" width="4.45" height="4.56" fill="none" stroke="#003a50" stroke-miterlimit="10"/><rect x="62.19" y="591.56" width="140.72" height="4.55" fill="#fff"/><rect x="62.19" y="591.56" width="140.72" height="4.55" fill="none" stroke="#003a50" stroke-miterlimit="10"/><line x1="62.19" y1="593.83" x2="202.91" y2="593.83" fill="none" stroke="#003a50" stroke-miterlimit="10"/><rect x="96.25" y="591.56" width="4.5" height="4.55" fill="#fff"/><rect x="96.25" y="591.56" width="4.5" height="4.55" fill="none" stroke="#003a50" stroke-miterlimit="10"/><rect x="130.3" y="591.56" width="4.5" height="4.55" fill="#fff"/><rect x="130.3" y="591.56" width="4.5" height="4.55" fill="none" stroke="#003a50" stroke-miterlimit="10"/><rect x="62.19" y="591.56" width="4.5" height="4.55" fill="#fff"/><rect x="62.19" y="591.56" width="4.5" height="4.55" fill="none" stroke="#003a50" stroke-miterlimit="10"/><rect x="198.41" y="591.56" width="4.5" height="4.55" fill="#fff"/><rect x="198.41" y="591.56" width="4.5" height="4.55" fill="none" stroke="#003a50" stroke-miterlimit="10"/><rect x="164.36" y="591.56" width="4.5" height="4.55" fill="#fff"/><rect x="164.36" y="591.56" width="4.5" height="4.55" fill="none" stroke="#003a50" stroke-miterlimit="10"/><g clip-path="url(#clip-path)"><rect x="404.04" y="256.36" width="42.38" height="92.09" fill="none" stroke="#003a50" stroke-miterlimit="10"/><rect x="409.02" y="260.16" width="32.03" height="84.24" rx="13.7" fill="none" stroke="#003a50" stroke-miterlimit="10"/><path d="M427.32,274.74a2.21,2.21,0,1,0-2.2,2.2A2.2,2.2,0,0,0,427.32,274.74Z" fill="none" stroke="#003a50" stroke-miterlimit="10"/></g><rect x="347.31" y="256.36" width="42.38" height="92.09" fill="none" stroke="#003a50" stroke-miterlimit="10"/><g clip-path="url(#clip-path)"><rect x="352.29" y="260.16" width="32.03" height="84.24" rx="13.7" fill="none" stroke="#003a50" stroke-miterlimit="10"/><path d="M370.59,274.74a2.2,2.2,0,1,0-2.2,2.2A2.19,2.19,0,0,0,370.59,274.74Z" fill="none" stroke="#003a50" stroke-miterlimit="10"/><path d="M489.06,284.44V255.87H466v28.57a11.54,11.54,0,1,0,23.07,0Z" fill="none" stroke="#003a50" stroke-miterlimit="10"/><path d="M333.53,284.44V255.87H310.45v28.57a11.54,11.54,0,0,0,23.08,0Z" fill="none" stroke="#003a50" stroke-miterlimit="10"/></g><rect x="310.45" y="255.87" width="23.08" height="11.08" fill="none" stroke="#003a50" stroke-miterlimit="10"/><rect x="54.53" y="221.79" width="42.38" height="92.09" fill="none" stroke="#003a50" stroke-miterlimit="10"/><g clip-path="url(#clip-path)"><rect x="59.91" y="225.58" width="32.03" height="84.24" rx="13.7" fill="none" stroke="#003a50" stroke-miterlimit="10"/><path d="M73.64,240.16a2.2,2.2,0,1,1,2.2,2.2A2.2,2.2,0,0,1,73.64,240.16Z" fill="none" stroke="#003a50" stroke-miterlimit="10"/><path d="M143.61,249.87V221.3h23.08v28.57a11.54,11.54,0,0,1-23.08,0Z" fill="none" stroke="#003a50" stroke-miterlimit="10"/></g><rect x="143.61" y="221.3" width="23.08" height="11.08" fill="none" stroke="#003a50" stroke-miterlimit="10"/><g clip-path="url(#clip-path)"><path d="M532.61,241.14a3.4,3.4,0,0,0,3.13-2.1h1.93l5.09,3.05-2.31,3.76-2.66-1.45v11.82H526.7V244.4L524,245.85l-2.31-3.76,5.14-3.05h2.57A3.45,3.45,0,0,0,532.61,241.14Z" fill="none" stroke="#003a50" stroke-miterlimit="10"/><rect x="515.24" y="231.24" width="34.02" height="32.78" fill="none" stroke="#003a50" stroke-miterlimit="10"/><path d="M421.4,89.81a3.16,3.16,0,0,0,2.91-2h1.79l4.73,2.83-2.15,3.49-2.46-1.35v11h-10.3v-11l-2.47,1.35-2.15-3.49,4.78-2.83h2.38A3.21,3.21,0,0,0,421.4,89.81Z" fill="none" stroke="#003a50" stroke-miterlimit="10"/></g><rect x="405.28" y="80.62" width="31.57" height="30.42" fill="none" stroke="#003a50" stroke-miterlimit="10"/><rect x="366.07" y="82.67" width="32.72" height="33.97" fill="none" stroke="#003a50" stroke-miterlimit="10"/><g clip-path="url(#clip-path)"><path d="M386.73,98.13v-11h-8.6v11a3.54,3.54,0,0,0,3.54,3.55h1.52A3.55,3.55,0,0,0,386.73,98.13Z" fill="none" stroke="#003a50" stroke-miterlimit="10"/></g><polyline points="378.95 112.23 382.43 112.23 385.9 112.23" fill="none" stroke="#003a50" stroke-miterlimit="10"/><line x1="382.43" y1="101.67" x2="382.43" y2="112.23" fill="none" stroke="#003a50" stroke-miterlimit="10"/><rect x="321.12" y="13.65" width="34.02" height="34.02" fill="none" stroke="#003a50" stroke-miterlimit="10"/><g clip-path="url(#clip-path)"><path d="M350.54,38.26a4.64,4.64,0,1,1-4.64-4.63A4.64,4.64,0,0,1,350.54,38.26Z" fill="none" stroke="#003a50" stroke-miterlimit="10"/><path d="M335.05,38.26a4.64,4.64,0,1,1-4.63-4.63A4.63,4.63,0,0,1,335.05,38.26Z" fill="none" stroke="#003a50" stroke-miterlimit="10"/><path d="M350.54,23.17a4.64,4.64,0,1,1-4.64-4.63A4.64,4.64,0,0,1,350.54,23.17Z" fill="none" stroke="#003a50" stroke-miterlimit="10"/><path d="M335.05,23.17a4.64,4.64,0,1,1-4.63-4.63A4.63,4.63,0,0,1,335.05,23.17Z" fill="none" stroke="#003a50" stroke-miterlimit="10"/></g><rect x="53.92" y="185.29" width="102.05" height="17.01" fill="none" stroke="#003a50" stroke-miterlimit="10"/><polygon points="61.95 193.26 104.84 196.79 147.95 193.26 147.95 190.8 61.95 190.8 61.95 193.26" fill="none" stroke="#003a50" stroke-miterlimit="10"/><rect x="54.72" y="443.3" width="17.01" height="102.05" fill="none" stroke="#003a50" stroke-miterlimit="10"/><polygon points="63.77 451.32 60.24 494.22 63.77 537.32 66.22 537.32 66.22 451.32 63.77 451.32" fill="none" stroke="#003a50" stroke-miterlimit="10"/><rect x="307.27" y="14.07" width="58.79" height="33.59" fill="none" stroke="#003a50" stroke-miterlimit="10"/><rect x="366.07" y="14.07" width="32.72" height="102.57" fill="none" stroke="#003a50" stroke-miterlimit="10"/><rect x="336.87" y="461.44" width="52.33" height="113.67" fill="none" stroke="#003a50" stroke-miterlimit="10"/><g clip-path="url(#clip-path)"><path d="M380.27,471.14h-34a2.1,2.1,0,0,0-2.1,2.1v67.63h38.25V473.24A2.1,2.1,0,0,0,380.27,471.14Z" fill="none" stroke="#003a50" stroke-miterlimit="10"/></g><rect x="344.12" y="527.01" width="38.26" height="13.85" fill="none" stroke="#003a50" stroke-miterlimit="10"/><g clip-path="url(#clip-path)"><rect x="344.06" y="544.48" width="38.71" height="22.88" rx="2.2" fill="none" stroke="#003a50" stroke-miterlimit="10"/></g><rect x="196.62" y="241.32" width="25.39" height="81.97" fill="none" stroke="#003a50" stroke-miterlimit="10"/><g clip-path="url(#clip-path)"><rect x="198.69" y="288.58" width="25.04" height="24.4" rx="2.83" fill="none" stroke="#003a50" stroke-miterlimit="10"/><path d="M209.29,300.78a1.92,1.92,0,1,0,1.92-1.91A1.92,1.92,0,0,0,209.29,300.78Z" fill="none" stroke="#003a50" stroke-miterlimit="10"/><rect x="198.69" y="252.81" width="25.04" height="24.4" rx="2.83" fill="none" stroke="#003a50" stroke-miterlimit="10"/><path d="M209.29,265a1.92,1.92,0,1,0,1.92-1.91A1.91,1.91,0,0,0,209.29,265Z" fill="none" stroke="#003a50" stroke-miterlimit="10"/><path d="M205.32,57.09a1.26,1.26,0,0,1-1.21,1.31A13.79,13.79,0,1,0,205.19,86a1.26,1.26,0,1,1,.09,2.51A16.3,16.3,0,0,1,204,55.88,1.27,1.27,0,0,1,205.32,57.09Z" fill="none" stroke="#003a50" stroke-miterlimit="10"/><path d="M212.27,94.65a1.25,1.25,0,0,1,.87,1.55,13.78,13.78,0,0,0,26.53,7.5,1.26,1.26,0,1,1,2.42.68,16.3,16.3,0,1,1-31.37-8.86A1.25,1.25,0,0,1,212.27,94.65Z" fill="none" stroke="#003a50" stroke-miterlimit="10"/><path d="M250,99a1.27,1.27,0,0,1,1.75-.35,13.78,13.78,0,1,0,15.32-22.91,1.26,1.26,0,0,1,1.4-2.1,16.3,16.3,0,1,1-18.12,27.1A1.25,1.25,0,0,1,250,99Z" fill="none" stroke="#003a50" stroke-miterlimit="10"/><path d="M267.22,64.44a1.27,1.27,0,0,1,.21-1.77A13.78,13.78,0,1,0,250.37,41a1.26,1.26,0,0,1-1.56-2A16.3,16.3,0,1,1,269,64.65,1.26,1.26,0,0,1,267.22,64.44Z" fill="none" stroke="#003a50" stroke-miterlimit="10"/><path d="M238.4,40.39a1.27,1.27,0,0,1-.86-1.56,13.78,13.78,0,1,0-26.45-7.75,1.26,1.26,0,0,1-2.42-.71A16.3,16.3,0,0,1,240,39.53,1.26,1.26,0,0,1,238.4,40.39Z" fill="none" stroke="#003a50" stroke-miterlimit="10"/><path d="M215.16,84.41l-9.36.36a12.65,12.65,0,1,1-1-25.28l9-.32a23.7,23.7,0,0,0,1.28,25.24Z" fill="none" stroke="#003a50" stroke-miterlimit="10"/><path d="M241.32,93.65l-2.56,9.08a12.65,12.65,0,1,1-24.36-6.84l2.6-9.2a23.6,23.6,0,0,0,24.32,7Z" fill="none" stroke="#003a50" stroke-miterlimit="10"/><path d="M269.4,93.85a12.67,12.67,0,0,1-17.52,3.52l-7.28-4.88a23.88,23.88,0,0,0,13.12-15.24,24.8,24.8,0,0,0,.84-5.84l7.36,4.92A12.63,12.63,0,0,1,269.4,93.85Z" fill="none" stroke="#003a50" stroke-miterlimit="10"/><path d="M266.2,62.21l-7.72,6.08a23.88,23.88,0,0,0-15.56-20l7.64-6A12.65,12.65,0,1,1,266.2,62.21Z" fill="none" stroke="#003a50" stroke-miterlimit="10"/><path d="M236.28,39.13,234,46.89A23.58,23.58,0,0,0,224.92,49l-15.28-4.48A1.21,1.21,0,0,1,208.8,43l3.08-10.64a12.87,12.87,0,0,1,13.2-9.4A12.67,12.67,0,0,1,236.28,39.13Z" fill="none" stroke="#003a50" stroke-miterlimit="10"/><path d="M258.56,71.41a24.8,24.8,0,0,1-.84,5.84A23.88,23.88,0,0,1,244.6,92.49a24.6,24.6,0,0,1-3.28,1.16,23.6,23.6,0,0,1-24.32-7,25.46,25.46,0,0,1-1.84-2.28,23.7,23.7,0,0,1-1.28-25.24,24,24,0,0,1,11-10.16,23.84,23.84,0,0,1,16.32-1.24c.56.16,1.12.36,1.68.56a23.88,23.88,0,0,1,15.56,20A27.09,27.09,0,0,1,258.56,71.41Z" fill="none" stroke="#003a50" stroke-miterlimit="10"/><path d="M444.39,383.33a1,1,0,0,1-.54.9,1,1,0,0,1-1.3-.45,29.69,29.69,0,0,1,0-25.26,1,1,0,0,1,1.3-.46,1,1,0,0,1,.44,1.34,27.64,27.64,0,0,0,0,23.49A1,1,0,0,1,444.39,383.33Z" fill="none" stroke="#003a50" stroke-miterlimit="10"/><path d="M439,383.33a1,1,0,0,1-.54.9,1,1,0,0,1-1.3-.45,29.69,29.69,0,0,1,0-25.26,1,1,0,0,1,1.29-.46,1,1,0,0,1,.45,1.34,27.64,27.64,0,0,0,0,23.49A1,1,0,0,1,439,383.33Z" fill="none" stroke="#003a50" stroke-miterlimit="10"/><path d="M433.65,383.33a1,1,0,0,1-.54.9,1,1,0,0,1-1.3-.45,29.69,29.69,0,0,1,0-25.26,1,1,0,0,1,1.29-.46,1,1,0,0,1,.45,1.34,27.64,27.64,0,0,0,0,23.49A1.17,1.17,0,0,1,433.65,383.33Z" fill="none" stroke="#003a50" stroke-miterlimit="10"/><path d="M428.28,383.33a1,1,0,0,1-.54.9,1,1,0,0,1-1.3-.45,29.69,29.69,0,0,1,0-25.26,1,1,0,0,1,1.29-.46,1,1,0,0,1,.45,1.34,27.64,27.64,0,0,0,0,23.49A1.17,1.17,0,0,1,428.28,383.33Z" fill="none" stroke="#003a50" stroke-miterlimit="10"/><path d="M422.9,383.33a1,1,0,0,1-.54.9.94.94,0,0,1-1.29-.45,29.69,29.69,0,0,1,0-25.26,1,1,0,0,1,1.29-.46,1,1,0,0,1,.44,1.34,27.64,27.64,0,0,0,0,23.49A1,1,0,0,1,422.9,383.33Z" fill="none" stroke="#003a50" stroke-miterlimit="10"/><path d="M417.53,383.33a1,1,0,0,1-.54.9.94.94,0,0,1-1.29-.45,29.69,29.69,0,0,1,0-25.26,1,1,0,0,1,1.29-.46,1,1,0,0,1,.44,1.34,27.64,27.64,0,0,0,0,23.49A1,1,0,0,1,417.53,383.33Z" fill="none" stroke="#003a50" stroke-miterlimit="10"/><path d="M449.76,383.33a1,1,0,0,1-.54.9.94.94,0,0,1-1.29-.45,29.69,29.69,0,0,1,0-25.26,1,1,0,0,1,1.29-.46,1,1,0,0,1,.44,1.34,27.64,27.64,0,0,0,0,23.49A1,1,0,0,1,449.76,383.33Z" fill="none" stroke="#003a50" stroke-miterlimit="10"/><path d="M455.13,383.33a1,1,0,0,1-.54.9.94.94,0,0,1-1.29-.45,29.69,29.69,0,0,1,0-25.26,1,1,0,0,1,1.29-.46,1,1,0,0,1,.44,1.34,27.64,27.64,0,0,0,0,23.49A1,1,0,0,1,455.13,383.33Z" fill="none" stroke="#003a50" stroke-miterlimit="10"/><line x1="567.17" y1="371.15" x2="403.3" y2="371.15" fill="none" stroke="#003a50" stroke-miterlimit="10"/><rect x="404.31" y="353.86" width="162.86" height="34.02" fill="none" stroke="#003a50" stroke-miterlimit="10"/><path d="M437.05,210.13a1,1,0,0,1-.54.9,1,1,0,0,1-1.3-.45,29.69,29.69,0,0,1,0-25.26,1,1,0,0,1,1.3-.46,1,1,0,0,1,.44,1.34,27.64,27.64,0,0,0,0,23.49A1,1,0,0,1,437.05,210.13Z" fill="none" stroke="#003a50" stroke-miterlimit="10"/><path d="M431.68,210.13a1,1,0,0,1-.54.9,1,1,0,0,1-1.3-.45,29.69,29.69,0,0,1,0-25.26,1,1,0,0,1,1.3-.46,1,1,0,0,1,.44,1.34,27.64,27.64,0,0,0,0,23.49A1,1,0,0,1,431.68,210.13Z" fill="none" stroke="#003a50" stroke-miterlimit="10"/><path d="M426.31,210.13a1,1,0,0,1-.54.9,1,1,0,0,1-1.3-.45,29.69,29.69,0,0,1,0-25.26,1,1,0,0,1,1.29-.46,1,1,0,0,1,.45,1.34,27.64,27.64,0,0,0,0,23.49A1,1,0,0,1,426.31,210.13Z" fill="none" stroke="#003a50" stroke-miterlimit="10"/><path d="M420.94,210.13a1,1,0,0,1-.54.9,1,1,0,0,1-1.3-.45,29.69,29.69,0,0,1,0-25.26,1,1,0,0,1,1.29-.46,1,1,0,0,1,.45,1.34,27.64,27.64,0,0,0,0,23.49A1.17,1.17,0,0,1,420.94,210.13Z" fill="none" stroke="#003a50" stroke-miterlimit="10"/><path d="M415.56,210.13a1,1,0,0,1-.54.9.94.94,0,0,1-1.29-.45,29.69,29.69,0,0,1,0-25.26,1,1,0,0,1,1.29-.46,1,1,0,0,1,.44,1.34,27.64,27.64,0,0,0,0,23.49A1,1,0,0,1,415.56,210.13Z" fill="none" stroke="#003a50" stroke-miterlimit="10"/><path d="M410.19,210.13a1,1,0,0,1-.54.9.94.94,0,0,1-1.29-.45,29.69,29.69,0,0,1,0-25.26,1,1,0,0,1,1.29-.46,1,1,0,0,1,.44,1.34,27.64,27.64,0,0,0,0,23.49A1,1,0,0,1,410.19,210.13Z" fill="none" stroke="#003a50" stroke-miterlimit="10"/><path d="M442.42,210.13a1,1,0,0,1-.54.9.94.94,0,0,1-1.29-.45,29.69,29.69,0,0,1,0-25.26,1,1,0,0,1,1.29-.46,1,1,0,0,1,.44,1.34,27.64,27.64,0,0,0,0,23.49A1,1,0,0,1,442.42,210.13Z" fill="none" stroke="#003a50" stroke-miterlimit="10"/><path d="M447.79,210.13a1,1,0,0,1-.54.9.94.94,0,0,1-1.29-.45,29.69,29.69,0,0,1,0-25.26,1,1,0,0,1,1.29-.46,1,1,0,0,1,.44,1.34,27.64,27.64,0,0,0,0,23.49A1,1,0,0,1,447.79,210.13Z" fill="none" stroke="#003a50" stroke-miterlimit="10"/></g><line x1="515.58" y1="197.95" x2="395.96" y2="197.95" fill="none" stroke="#003a50" stroke-miterlimit="10"/><rect x="396.7" y="180.38" width="119.14" height="34.58" fill="none" stroke="#003a50" stroke-miterlimit="10"/><rect x="299.89" y="323.51" width="47.18" height="25.39" fill="none" stroke="#003a50" stroke-miterlimit="10"/><g clip-path="url(#clip-path)"><rect x="309.79" y="325.57" width="24.4" height="25.04" rx="2.83" fill="none" stroke="#003a50" stroke-miterlimit="10"/><path d="M322,336.18a1.91,1.91,0,1,1-1.91,1.91A1.92,1.92,0,0,1,322,336.18Z" fill="none" stroke="#003a50" stroke-miterlimit="10"/><rect x="464.84" y="324.63" width="24.4" height="25.04" rx="2.83" fill="none" stroke="#003a50" stroke-miterlimit="10"/><path d="M477.05,335.24a1.91,1.91,0,1,1-1.92,1.91A1.92,1.92,0,0,1,477.05,335.24Z" fill="none" stroke="#003a50" stroke-miterlimit="10"/><rect x="328.31" y="-34.34" width="34.02" height="34.02" fill="none" stroke="#003a50" stroke-miterlimit="10"/></g><rect x="405.5" y="40.41" width="81.73" height="27.04" fill="none" stroke="#003a50" stroke-miterlimit="10"/><g clip-path="url(#clip-path)"><path d="M473.29,63.62a.8.8,0,0,1-1.52.35,22.88,22.88,0,0,1,0-20.08.81.81,0,0,1,1.07-.36.8.8,0,0,1,.36,1.07,21.34,21.34,0,0,0,0,18.67A.73.73,0,0,1,473.29,63.62Z" fill="none" stroke="#003a50" stroke-miterlimit="10"/><path d="M468.86,63.62a.8.8,0,0,1-1.51.35,22.88,22.88,0,0,1,0-20.08.8.8,0,0,1,1.43.71,21.25,21.25,0,0,0,0,18.67A.72.72,0,0,1,468.86,63.62Z" fill="none" stroke="#003a50" stroke-miterlimit="10"/><path d="M464.44,63.62a.8.8,0,0,1-1.51.35,22.8,22.8,0,0,1,0-20.08.8.8,0,0,1,1.43.71,21.25,21.25,0,0,0,0,18.67A.72.72,0,0,1,464.44,63.62Z" fill="none" stroke="#003a50" stroke-miterlimit="10"/><path d="M460,63.62a.8.8,0,0,1-1.52.35,22.88,22.88,0,0,1,0-20.08.81.81,0,0,1,1.07-.36.8.8,0,0,1,.36,1.07,21.34,21.34,0,0,0,0,18.67A.73.73,0,0,1,460,63.62Z" fill="none" stroke="#003a50" stroke-miterlimit="10"/><path d="M455.59,63.62a.8.8,0,0,1-1.51.35,22.88,22.88,0,0,1,0-20.08.8.8,0,0,1,1.43.71,21.25,21.25,0,0,0,0,18.67A.72.72,0,0,1,455.59,63.62Z" fill="none" stroke="#003a50" stroke-miterlimit="10"/><path d="M451.17,63.62a.8.8,0,0,1-1.51.35,22.8,22.8,0,0,1,0-20.08.8.8,0,0,1,1.43.71,21.25,21.25,0,0,0,0,18.67A.72.72,0,0,1,451.17,63.62Z" fill="none" stroke="#003a50" stroke-miterlimit="10"/><path d="M477.71,63.62a.8.8,0,0,1-1.51.35,22.8,22.8,0,0,1,0-20.08.8.8,0,0,1,1.43.71,21.25,21.25,0,0,0,0,18.67A.72.72,0,0,1,477.71,63.62Z" fill="none" stroke="#003a50" stroke-miterlimit="10"/><path d="M482.13,63.62a.8.8,0,0,1-1.51.35,22.88,22.88,0,0,1,0-20.08.8.8,0,0,1,1.43.71,21.25,21.25,0,0,0,0,18.67A.72.72,0,0,1,482.13,63.62Z" fill="none" stroke="#003a50" stroke-miterlimit="10"/></g><line x1="486.89" y1="53.93" x2="405.5" y2="53.93" fill="none" stroke="#003a50" stroke-miterlimit="10"/><rect x="300.51" y="353.86" width="90.71" height="34.02" fill="none" stroke="#003a50" stroke-miterlimit="10"/><g clip-path="url(#clip-path)"><path d="M343.08,383.05a1,1,0,0,1-1.9.45,28.77,28.77,0,0,1,0-25.26,1,1,0,1,1,1.8.88,26.72,26.72,0,0,0,0,23.49A1,1,0,0,1,343.08,383.05Z" fill="none" stroke="#003a50" stroke-miterlimit="10"/><path d="M337.51,383.05a1,1,0,0,1-.56.9,1,1,0,0,1-1.34-.45,28.77,28.77,0,0,1,0-25.26,1,1,0,1,1,1.8.88,26.72,26.72,0,0,0,0,23.49A1,1,0,0,1,337.51,383.05Z" fill="none" stroke="#003a50" stroke-miterlimit="10"/><path d="M332,383.05a1,1,0,0,1-1.9.45,28.77,28.77,0,0,1,0-25.26,1,1,0,1,1,1.8.88,26.72,26.72,0,0,0,0,23.49A1,1,0,0,1,332,383.05Z" fill="none" stroke="#003a50" stroke-miterlimit="10"/><path d="M326.38,383.05a1,1,0,0,1-.56.9,1,1,0,0,1-1.34-.45,28.77,28.77,0,0,1,0-25.26,1,1,0,1,1,1.8.88,26.72,26.72,0,0,0,0,23.49A1,1,0,0,1,326.38,383.05Z" fill="none" stroke="#003a50" stroke-miterlimit="10"/><path d="M320.82,383.05a1,1,0,0,1-.56.9,1,1,0,0,1-1.35-.45,28.77,28.77,0,0,1,0-25.26,1,1,0,0,1,1.34-.46,1,1,0,0,1,.46,1.34,26.81,26.81,0,0,0,0,23.49A.9.9,0,0,1,320.82,383.05Z" fill="none" stroke="#003a50" stroke-miterlimit="10"/><path d="M315.25,383.05a1,1,0,0,1-.56.9,1,1,0,0,1-1.34-.45,28.77,28.77,0,0,1,0-25.26,1,1,0,1,1,1.8.88,26.72,26.72,0,0,0,0,23.49A1,1,0,0,1,315.25,383.05Z" fill="none" stroke="#003a50" stroke-miterlimit="10"/><path d="M348.65,383.05a1,1,0,0,1-.56.9,1,1,0,0,1-1.35-.45,28.77,28.77,0,0,1,0-25.26,1,1,0,0,1,1.34-.46,1,1,0,0,1,.46,1.34,26.81,26.81,0,0,0,0,23.49A1,1,0,0,1,348.65,383.05Z" fill="none" stroke="#003a50" stroke-miterlimit="10"/><path d="M354.21,383.05a1,1,0,0,1-1.9.45,28.77,28.77,0,0,1,0-25.26,1,1,0,1,1,1.8.88,26.72,26.72,0,0,0,0,23.49A1,1,0,0,1,354.21,383.05Z" fill="none" stroke="#003a50" stroke-miterlimit="10"/></g><line x1="391.22" y1="370.87" x2="300.51" y2="370.87" fill="none" stroke="#003a50" stroke-miterlimit="10"/><rect x="54.21" y="329.46" width="88.65" height="34.02" fill="none" stroke="#003a50" stroke-miterlimit="10"/><g clip-path="url(#clip-path)"><path d="M96.78,358.65a1,1,0,0,1-.56.9,1,1,0,0,1-1.35-.45,28.77,28.77,0,0,1,0-25.26,1,1,0,0,1,1.34-.46,1,1,0,0,1,.46,1.34,26.81,26.81,0,0,0,0,23.49A1,1,0,0,1,96.78,358.65Z" fill="none" stroke="#003a50" stroke-miterlimit="10"/><path d="M91.21,358.65a1,1,0,0,1-1.9.45,28.77,28.77,0,0,1,0-25.26,1,1,0,1,1,1.8.88,26.72,26.72,0,0,0,0,23.49A1,1,0,0,1,91.21,358.65Z" fill="none" stroke="#003a50" stroke-miterlimit="10"/><path d="M85.65,358.65a1,1,0,0,1-.56.9,1,1,0,0,1-1.35-.45,28.77,28.77,0,0,1,0-25.26,1,1,0,0,1,1.34-.46,1,1,0,0,1,.46,1.34,26.81,26.81,0,0,0,0,23.49A1,1,0,0,1,85.65,358.65Z" fill="none" stroke="#003a50" stroke-miterlimit="10"/><path d="M80.08,358.65a1,1,0,0,1-1.9.45,28.77,28.77,0,0,1,0-25.26,1,1,0,1,1,1.8.88,26.72,26.72,0,0,0,0,23.49A1,1,0,0,1,80.08,358.65Z" fill="none" stroke="#003a50" stroke-miterlimit="10"/><path d="M74.51,358.65a1,1,0,0,1-.56.9,1,1,0,0,1-1.34-.45,28.77,28.77,0,0,1,0-25.26,1,1,0,1,1,1.8.88,26.72,26.72,0,0,0,0,23.49A1,1,0,0,1,74.51,358.65Z" fill="none" stroke="#003a50" stroke-miterlimit="10"/><path d="M69,358.65a1,1,0,0,1-1.9.45,28.77,28.77,0,0,1,0-25.26,1,1,0,1,1,1.8.88,26.72,26.72,0,0,0,0,23.49A1,1,0,0,1,69,358.65Z" fill="none" stroke="#003a50" stroke-miterlimit="10"/><path d="M102.34,358.65a1,1,0,0,1-1.9.45,28.77,28.77,0,0,1,0-25.26,1,1,0,1,1,1.8.88,26.72,26.72,0,0,0,0,23.49A1,1,0,0,1,102.34,358.65Z" fill="none" stroke="#003a50" stroke-miterlimit="10"/><path d="M107.91,358.65a1,1,0,0,1-.56.9,1,1,0,0,1-1.35-.45,28.77,28.77,0,0,1,0-25.26,1,1,0,0,1,1.34-.46,1,1,0,0,1,.46,1.34,26.81,26.81,0,0,0,0,23.49A1,1,0,0,1,107.91,358.65Z" fill="none" stroke="#003a50" stroke-miterlimit="10"/></g><line x1="142.85" y1="346.47" x2="54.2" y2="346.47" fill="none" stroke="#003a50" stroke-miterlimit="10"/><rect x="108.98" y="363.61" width="34.02" height="41.8" fill="none" stroke="#003a50" stroke-miterlimit="10"/><g clip-path="url(#clip-path)"><path d="M138.17,381.65a1,1,0,0,1,.45,1.9,28.77,28.77,0,0,1-25.26,0,1,1,0,1,1,.88-1.8,26.72,26.72,0,0,0,23.49,0A1,1,0,0,1,138.17,381.65Z" fill="none" stroke="#003a50" stroke-miterlimit="10"/><path d="M138.17,387.21a1,1,0,0,1,.45,1.91,28.77,28.77,0,0,1-25.26,0,1,1,0,0,1-.46-1.34,1,1,0,0,1,1.34-.46,26.81,26.81,0,0,0,23.49,0A.87.87,0,0,1,138.17,387.21Z" fill="none" stroke="#003a50" stroke-miterlimit="10"/><path d="M138.17,392.78a1,1,0,0,1,.45,1.9,28.77,28.77,0,0,1-25.26,0,1,1,0,1,1,.88-1.8,26.72,26.72,0,0,0,23.49,0A1,1,0,0,1,138.17,392.78Z" fill="none" stroke="#003a50" stroke-miterlimit="10"/><path d="M138.17,398.34a1,1,0,0,1,.45,1.91,28.77,28.77,0,0,1-25.26,0,1,1,0,0,1-.46-1.34,1,1,0,0,1,1.34-.46,26.81,26.81,0,0,0,23.49,0A.87.87,0,0,1,138.17,398.34Z" fill="none" stroke="#003a50" stroke-miterlimit="10"/></g><line x1="125.98" y1="363.47" x2="125.98" y2="405.42" fill="none" stroke="#003a50" stroke-miterlimit="10"/><g clip-path="url(#clip-path)"><rect x="362.33" y="-34.34" width="153.07" height="34.02" fill="none" stroke="#003a50" stroke-miterlimit="10"/><path d="M262.84,521.17a14.78,14.78,0,0,0,15.93-23.38,1.14,1.14,0,1,0-1.78,1.43,12.47,12.47,0,0,1-14.15,19.5Z" fill="none" stroke="#003a50" stroke-miterlimit="10"/><rect x="228.82" y="466.92" width="34.02" height="84.03" rx="3.31" fill="none" stroke="#003a50" stroke-miterlimit="10"/><path d="M232.53,548.4a1.4,1.4,0,0,0,1.4-1.4V470.86a1.4,1.4,0,0,0-2.79,0V547a1.4,1.4,0,0,0,1.39,1.4" fill="none" stroke="#003a50" stroke-miterlimit="10"/><path d="M247.11,480.59a5.51,5.51,0,1,1,0-7.79A5.51,5.51,0,0,1,247.11,480.59Z" fill="none" stroke="#003a50" stroke-miterlimit="10"/><path d="M247.48,480.18c-1-.1-2,.28-3-.7-1.46-1.46.09-3-1.38-4.47s-3,.08-4.47-1.38" fill="none" stroke="#003a50" stroke-miterlimit="10"/><path d="M262.84,516.46a10.63,10.63,0,1,0,0-19.59Z" fill="none" stroke="#003a50" stroke-miterlimit="10"/></g><rect x="200.21" y="553.55" width="22.68" height="22.68" fill="none" stroke="#003a50" stroke-miterlimit="10"/><g clip-path="url(#clip-path)"><path d="M218.05,571.39a9.19,9.19,0,1,1,0-13A9.19,9.19,0,0,1,218.05,571.39Z" fill="none" stroke="#003a50" stroke-miterlimit="10"/><path d="M218.68,570.7c-1.7-.17-3.42.48-5.07-1.17-2.43-2.44.14-5-2.29-7.45s-5,.13-7.46-2.31" fill="none" stroke="#003a50" stroke-miterlimit="10"/></g><rect x="200.21" y="412.41" width="22.68" height="22.68" fill="none" stroke="#003a50" stroke-miterlimit="10"/><g clip-path="url(#clip-path)"><path d="M218.05,430.26a9.2,9.2,0,1,1,0-13A9.19,9.19,0,0,1,218.05,430.26Z" fill="none" stroke="#003a50" stroke-miterlimit="10"/><path d="M218.68,429.56c-1.7-.16-3.42.49-5.07-1.16-2.43-2.44.14-5-2.29-7.46s-5,.14-7.46-2.3" fill="none" stroke="#003a50" stroke-miterlimit="10"/></g><rect x="109.5" y="442.56" width="113.39" height="102.05" fill="none" stroke="#003a50" stroke-miterlimit="10"/><g clip-path="url(#clip-path)"><path d="M119.24,534.61V452.56a2.08,2.08,0,0,1,2.08-2.08H189V536.7H121.32A2.09,2.09,0,0,1,119.24,534.61Z" fill="none" stroke="#003a50" stroke-miterlimit="10"/><rect x="192.58" y="450.22" width="22.88" height="42.5" rx="1.98" fill="none" stroke="#003a50" stroke-miterlimit="10"/><rect x="192.58" y="494.45" width="22.88" height="42.5" rx="1.98" fill="none" stroke="#003a50" stroke-miterlimit="10"/></g><line x1="175.11" y1="536.95" x2="175.11" y2="450.22" fill="none" stroke="#003a50" stroke-miterlimit="10"/><g clip-path="url(#clip-path)"><rect x="405.55" y="415.52" width="22.68" height="22.68" fill="none" stroke="#003a50" stroke-miterlimit="10"/><path d="M423.39,433.36a9.19,9.19,0,1,1,0-13A9.19,9.19,0,0,1,423.39,433.36Z" fill="none" stroke="#003a50" stroke-miterlimit="10"/><path d="M424,432.67c-1.7-.17-3.42.48-5.07-1.17-2.43-2.43.15-5-2.29-7.45s-5,.14-7.46-2.3" fill="none" stroke="#003a50" stroke-miterlimit="10"/><rect x="405.55" y="556.66" width="22.68" height="22.68" fill="none" stroke="#003a50" stroke-miterlimit="10"/><path d="M423.4,574.5a9.2,9.2,0,1,1,0-13A9.2,9.2,0,0,1,423.4,574.5Z" fill="none" stroke="#003a50" stroke-miterlimit="10"/><path d="M424,573.81c-1.7-.17-3.41.48-5.07-1.18-2.43-2.43.14-5-2.3-7.45s-5,.14-7.46-2.3" fill="none" stroke="#003a50" stroke-miterlimit="10"/><rect x="405.55" y="445.67" width="113.38" height="102.05" fill="none" stroke="#003a50" stroke-miterlimit="10"/><path d="M509.2,455.67v82.05a2.08,2.08,0,0,1-2.08,2.08H439.48V453.59h67.64A2.08,2.08,0,0,1,509.2,455.67Z" fill="none" stroke="#003a50" stroke-miterlimit="10"/><rect x="412.99" y="497.56" width="22.88" height="42.5" rx="1.98" fill="none" stroke="#003a50" stroke-miterlimit="10"/><rect x="412.99" y="453.33" width="22.88" height="42.5" rx="1.98" fill="none" stroke="#003a50" stroke-miterlimit="10"/></g><rect x="362.61" y="180.66" width="34.02" height="34.02" fill="none" stroke="#003a50" stroke-miterlimit="10"/><line x1="369.63" y1="197.67" x2="389.59" y2="197.67" fill="none" stroke="#003a50" stroke-miterlimit="10"/><line x1="379.61" y1="187.69" x2="379.61" y2="207.65" fill="none" stroke="#003a50" stroke-miterlimit="10"/><line x1="372.56" y1="190.61" x2="386.67" y2="204.72" fill="none" stroke="#003a50" stroke-miterlimit="10"/><line x1="386.67" y1="190.61" x2="372.56" y2="204.72" fill="none" stroke="#003a50" stroke-miterlimit="10"/><g clip-path="url(#clip-path)"><path d="M389.63,76.67V53.32A3.35,3.35,0,0,0,386.27,50H371.32A3.35,3.35,0,0,0,368,53.32V76.67A3.35,3.35,0,0,0,371.32,80h14.95A3.35,3.35,0,0,0,389.63,76.67Z" fill="none" stroke="#003a50" stroke-miterlimit="10"/><circle cx="382.6" cy="65" r="2.46" transform="translate(176.13 393.6) rotate(-67.5)" fill="none" stroke="#003a50" stroke-miterlimit="10"/></g><line x1="381.84" y1="65" x2="395.45" y2="65" fill="none" stroke="#003a50" stroke-miterlimit="10"/><line x1="395.46" y1="58.19" x2="395.46" y2="71.81" fill="none" stroke="#003a50" stroke-miterlimit="10"/><g clip-path="url(#clip-path)"><path d="M113,60.41v-41H67.25V62.63h43.56A2.21,2.21,0,0,0,113,60.41Z" fill="none" stroke="#003a50" stroke-miterlimit="10"/><path d="M158.89,60.64V19.38H113.12V60.64a2,2,0,0,0,2,2h41.8A2,2,0,0,0,158.89,60.64Z" fill="none" stroke="#003a50" stroke-miterlimit="10"/><path d="M67.25,62.63a3.1,3.1,0,0,1-3.33,2.82H59.7a3.1,3.1,0,0,1-3.33-2.82V14.43H169.76V62.2A3.11,3.11,0,0,1,166.43,65h-4.22a3.1,3.1,0,0,1-3.32-2.83V19.38H67.25Z" fill="none" stroke="#003a50" stroke-miterlimit="10"/></g><rect x="67.25" y="19.38" width="91.64" height="9.25" fill="none" stroke="#003a50" stroke-miterlimit="10"/><rect x="307.03" y="180.58" width="55.58" height="34.35" fill="none" stroke="#003a50" stroke-miterlimit="10"/><g clip-path="url(#clip-path)"><path d="M282.41,384.39V388a45.35,45.35,0,0,1-45.35,45.35v-49" fill="none" stroke="#003a50" stroke-miterlimit="10" stroke-width="1.6"/><path d="M225.93,335.42h-3.41a43,43,0,0,0-43,43h46.39" fill="none" stroke="#003a50" stroke-miterlimit="10" stroke-width="1.6"/><path d="M297.48,281.26H294.4A38.71,38.71,0,0,0,255.69,320h41.79" fill="none" stroke="#003a50" stroke-miterlimit="10" stroke-width="1.6"/><path d="M571.06,444.84h-3.45a43.48,43.48,0,0,1-43.48-43.48h46.93" fill="none" stroke="#003a50" stroke-miterlimit="10" stroke-width="1.6"/><path d="M513.57,279.55h3.13A39.34,39.34,0,0,1,556,318.89H513.57" fill="none" stroke="#003a50" stroke-miterlimit="10" stroke-width="1.6"/><path d="M580.39,221.39v-4.06a51.13,51.13,0,0,1,51.13-51.13v55.19" fill="none" stroke="#003a50" stroke-miterlimit="10" stroke-width="1.6"/><path d="M526.8,128.17h4.06A51.13,51.13,0,0,1,582,179.3H526.8" fill="none" stroke="#003a50" stroke-miterlimit="10" stroke-width="1.6"/><path d="M190.29,324.69v3.07a38.58,38.58,0,0,1-38.58,38.59V324.69" fill="none" stroke="#003a50" stroke-miterlimit="10" stroke-width="1.6"/><line x1="468.23" y1="121.1" x2="413.74" y2="121.1" fill="none" stroke="#003a50" stroke-miterlimit="10" stroke-width="1.6"/><polygon points="54.62 413.91 54.62 318.17 5.29 318.17 16.95 413.91 54.62 413.91" fill="#003a50" fill-rule="evenodd"/><polygon points="203.42 582.76 299.16 582.76 299.16 632.09 203.42 620.43 203.42 582.76" fill="#003a50" fill-rule="evenodd"/><rect x="389.21" y="214.95" width="191.83" height="16.32" fill="#003a50"/><rect x="389.21" y="223.11" width="16.32" height="372.48" fill="#003a50"/><rect x="515.71" y="178.43" width="16.32" height="40.5" fill="#003a50"/><rect x="49.46" y="202.3" width="74.57" height="19" fill="#003a50"/><rect x="515.71" y="105.11" width="16.32" height="23.98" fill="#003a50"/><rect x="515.71" y="-39.89" width="16.32" height="50.48" fill="#003a50"/><rect x="487.46" y="105.11" width="40.56" height="11.86" fill="#003a50"/><rect x="487.46" y="8.11" width="13.08" height="108.53" fill="#003a50"/><rect x="50.62" y="-0.04" width="481.33" height="13.79" fill="#003a50"/><rect x="13.52" y="137.78" width="41.1" height="92.71" fill="#003a50"/><rect x="6.29" y="204.59" width="44.33" height="25.9" fill="#003a50"/><rect x="19.62" y="501.6" width="35" height="114.83" fill="#003a50"/><rect x="19.63" y="318.17" width="39.82" height="62.07" fill="#003a50"/><rect x="23.62" y="582.67" width="38.17" height="33.75" fill="#003a50"/><rect x="506.96" y="582.67" width="96" height="41.92" fill="#003a50"/><rect x="388.01" y="582.67" width="27.03" height="46.75" fill="#003a50"/><rect x="392.01" y="582.67" width="27.03" height="23.38" fill="#003a50"/><rect x="513.54" y="576.51" width="82.83" height="27.12" fill="#003a50"/><rect x="212.45" y="576.51" width="78.17" height="27.12" fill="#003a50"/><rect x="6.29" y="603.09" width="25.9" height="25.9" fill="#003a50"/><rect x="6.29" y="-46.86" width="48.33" height="94.57" fill="#003a50"/><rect x="119.54" y="214.93" width="109" height="6.38" fill="#003a50"/><rect x="222.16" y="219.61" width="6.38" height="116.6" fill="#003a50"/><rect x="222.16" y="377.57" width="6.38" height="212.5" fill="#003a50"/><rect x="199.83" y="219.61" width="6.38" height="22.98" fill="#003a50"/><rect x="201.69" y="236.21" width="22.98" height="6.38" fill="#003a50"/><rect x="189.71" y="323.71" width="33.79" height="6.38" fill="#003a50"/><rect x="105.38" y="405.61" width="41.2" height="3.69" fill="#003a50"/><rect x="143.07" y="328.12" width="3.69" height="80.64" fill="#003a50"/><rect x="48.76" y="405.61" width="19.39" height="3.69" fill="#003a50"/><rect x="49.46" y="323.71" width="103.25" height="6.38" fill="#003a50"/><rect x="281.62" y="381.65" width="18" height="6.38" fill="#003a50"/><rect x="297.48" y="348.81" width="94.48" height="6.38" fill="#003a50"/><rect x="225.35" y="381.65" width="12.54" height="6.38" fill="#003a50"/><rect x="293.85" y="214.92" width="6.38" height="67.17" fill="#003a50"/><rect x="293.85" y="319.14" width="6.38" height="68.88" fill="#003a50"/><rect x="398.79" y="110.59" width="42.19" height="6.38" fill="#003a50"/><rect x="398.91" y="10.26" width="6.38" height="106.38" fill="#003a50"/><rect x="402.09" y="33.81" width="91.1" height="6.38" fill="#003a50"/><rect x="293.85" y="214.93" width="99.68" height="6.38" fill="#003a50"/><rect x="293.85" y="250.55" width="99.68" height="6.38" fill="#003a50"/><rect x="338.02" y="214.92" width="6.38" height="38.25" fill="#003a50"/><rect x="478.03" y="110.59" width="12.54" height="6.38" fill="#003a50"/><rect x="567.43" y="444.05" width="6.38" height="136.12" fill="#003a50"/><rect x="567.43" y="347.93" width="6.38" height="54.19" fill="#003a50"/><rect x="508.63" y="230.09" width="6.38" height="50.21" fill="#003a50"/><rect x="508.63" y="318.05" width="6.38" height="32.88" fill="#003a50"/><rect x="570.62" y="321.08" width="3.19" height="29.85" fill="#003a50"/><rect x="570.62" y="231.25" width="3.19" height="36.33" fill="#003a50"/><rect x="404.04" y="249.99" width="107.78" height="6.38" fill="#003a50"/><rect x="472.48" y="227.37" width="6.38" height="26.37" fill="#003a50"/><rect x="404.04" y="348.11" width="166.58" height="6.38" fill="#003a50"/><rect x="526.04" y="11.67" width="5.98" height="101.5" fill="#003a50"/><line x1="573.08" y1="321.43" x2="575.92" y2="321.43" fill="none" stroke="#003a50" stroke-miterlimit="10"/><line x1="581.66" y1="321.43" x2="636.27" y2="321.43" fill="none" stroke="#003a50" stroke-miterlimit="10" stroke-dasharray="5.75 5.75"/><line x1="226.12" y1="215.46" x2="302.86" y2="215.46" fill="none" stroke="#003a50" stroke-miterlimit="10" stroke-dasharray="5.67 5.67"/><line x1="398.85" y1="180.94" x2="398.85" y2="109.73" fill="none" stroke="#003a50" stroke-miterlimit="10" stroke-dasharray="5.67 5.67"/></g><g clip-path="url(#clip-path)"><path d="M470.26,304.38h-5.82v-1.85h8.86v1.85L468.78,307v.07h1.27a3.87,3.87,0,0,1,2.79,1,3.5,3.5,0,0,1,1.06,2.67,3.32,3.32,0,0,1-1.33,2.82,6.93,6.93,0,0,1-7.24,0,3.35,3.35,0,0,1-1.33-2.85v-.33h2.11v.33c0,1.36.95,2,2.84,2s2.84-.67,2.84-2-1-2-2.84-2h-3.26v-1.67l4.57-2.68Z" fill="#003a50"/><path d="M476,314.31a1.17,1.17,0,0,1,0-1.61,1.41,1.41,0,0,1,1.74,0,1.17,1.17,0,0,1,0,1.61,1.41,1.41,0,0,1-1.74,0Z" fill="#003a50"/><path d="M486.11,304.38h-5.82v-1.85h8.86v1.85L484.62,307v.07h1.28a3.9,3.9,0,0,1,2.79,1,3.53,3.53,0,0,1,1.06,2.67,3.35,3.35,0,0,1-1.33,2.82,7,7,0,0,1-7.25,0,3.37,3.37,0,0,1-1.32-2.85v-.33H482v.33c0,1.36.94,2,2.83,2s2.85-.67,2.85-2-.95-2-2.85-2h-3.26v-1.67l4.58-2.68Z" fill="#003a50"/><path d="M546.61,280.9h-9.93v-1.56a2.74,2.74,0,0,1,.58-1.74,4,4,0,0,1,1.44-1.2c.5-.26,1.12-.54,1.87-.86s1.32-.56,1.88-.78a4.07,4.07,0,0,0,1.44-.91,1.81,1.81,0,0,0,.58-1.3q0-1.89-2.67-1.89t-2.67,2.16v.41H537v-.41a3.65,3.65,0,0,1,1.26-3,5.42,5.42,0,0,1,3.51-1,5.61,5.61,0,0,1,3.51,1,3.28,3.28,0,0,1,1.28,2.75,3.17,3.17,0,0,1-.56,1.83,4.39,4.39,0,0,1-1.4,1.31c-.6.34-1.21.65-1.84.93s-1.24.52-1.83.74a5.26,5.26,0,0,0-1.4.75,1.22,1.22,0,0,0-.57.95h7.63Z" fill="#003a50"/><path d="M548.71,280.77a1.15,1.15,0,0,1,0-1.61,1.23,1.23,0,0,1,.87-.3,1.2,1.2,0,0,1,.86.3,1.15,1.15,0,0,1,0,1.61,1.2,1.2,0,0,1-.86.3A1.23,1.23,0,0,1,548.71,280.77Z" fill="#003a50"/><path d="M562.49,280.9h-9.94v-1.56a2.75,2.75,0,0,1,.59-1.74,4,4,0,0,1,1.44-1.2c.5-.26,1.12-.54,1.87-.86s1.32-.56,1.88-.78a4.07,4.07,0,0,0,1.44-.91,1.8,1.8,0,0,0,.57-1.3c0-1.26-.88-1.89-2.66-1.89s-2.68.72-2.68,2.16v.41h-2.1v-.41a3.65,3.65,0,0,1,1.26-3,5.4,5.4,0,0,1,3.51-1,5.61,5.61,0,0,1,3.51,1,3.27,3.27,0,0,1,1.27,2.75,3.16,3.16,0,0,1-.55,1.83,4.42,4.42,0,0,1-1.41,1.31c-.59.34-1.21.65-1.83.93s-1.24.52-1.83.74a5.26,5.26,0,0,0-1.4.75,1.22,1.22,0,0,0-.57.95h7.63Z" fill="#003a50"/><path d="M112.17,158.15h-9.93v-1.56a2.74,2.74,0,0,1,.58-1.74,4,4,0,0,1,1.45-1.2c.49-.25,1.12-.54,1.87-.86s1.32-.56,1.87-.77a4.23,4.23,0,0,0,1.45-.92,1.78,1.78,0,0,0,.57-1.3q0-1.89-2.67-1.89t-2.67,2.16v.41h-2.11v-.41a3.62,3.62,0,0,1,1.26-3,5.39,5.39,0,0,1,3.52-1,5.65,5.65,0,0,1,3.51,1,3.29,3.29,0,0,1,1.27,2.75,3.12,3.12,0,0,1-.56,1.83,4.18,4.18,0,0,1-1.4,1.31c-.6.34-1.21.65-1.84.93s-1.23.52-1.82.75a5.46,5.46,0,0,0-1.41.74,1.26,1.26,0,0,0-.56,1h7.62Z" fill="#003a50"/><path d="M124.14,158.15h-9.93v-1.56a2.74,2.74,0,0,1,.58-1.74,4,4,0,0,1,1.44-1.2c.5-.25,1.12-.54,1.87-.86s1.33-.56,1.88-.77a4.09,4.09,0,0,0,1.44-.92,1.76,1.76,0,0,0,.58-1.3q0-1.89-2.67-1.89t-2.67,2.16v.41h-2.11v-.41a3.62,3.62,0,0,1,1.26-3,5.38,5.38,0,0,1,3.51-1,5.66,5.66,0,0,1,3.52,1,3.31,3.31,0,0,1,1.27,2.75,3.12,3.12,0,0,1-.56,1.83,4.28,4.28,0,0,1-1.4,1.31c-.6.34-1.21.65-1.84.93s-1.23.52-1.83.75a5.55,5.55,0,0,0-1.4.74,1.24,1.24,0,0,0-.56,1h7.62Z" fill="#003a50"/><path d="M126.24,158a1,1,0,0,1-.32-.8,1,1,0,0,1,.32-.81,1.41,1.41,0,0,1,1.74,0,1.07,1.07,0,0,1,.32.81,1,1,0,0,1-.32.8,1.41,1.41,0,0,1-1.74,0Z" fill="#003a50"/><path d="M138.82,157.39a7.71,7.71,0,0,1-7.36,0,2.93,2.93,0,0,1-1.37-2.56,2.69,2.69,0,0,1,.25-1.16,2.39,2.39,0,0,1,.66-.85,4,4,0,0,1,1.39-.78l.26-.06v-.09a3,3,0,0,1-.76-.3,2.59,2.59,0,0,1-.67-.44,2.2,2.2,0,0,1-.54-.75,2.41,2.41,0,0,1-.22-1,2.8,2.8,0,0,1,1.25-2.38,7,7,0,0,1,6.85,0,2.79,2.79,0,0,1,1.25,2.38,2.43,2.43,0,0,1-.22,1,1.89,1.89,0,0,1-.55.74,3.77,3.77,0,0,1-1.2.69l-.22,0V152l.28.06a5.42,5.42,0,0,1,.62.27,3.76,3.76,0,0,1,.78.51,2.69,2.69,0,0,1,.61.82,2.63,2.63,0,0,1,.27,1.19A3,3,0,0,1,138.82,157.39ZM133,156a4.86,4.86,0,0,0,4.21,0,1.59,1.59,0,0,0,0-2.69,4.95,4.95,0,0,0-4.21,0,1.51,1.51,0,0,0-.74,1.35A1.52,1.52,0,0,0,133,156Zm-.36-6.52a1.36,1.36,0,0,0,.64,1.19,4.09,4.09,0,0,0,3.65,0,1.36,1.36,0,0,0,.64-1.19,1.38,1.38,0,0,0-.65-1.2,4,4,0,0,0-3.63,0A1.38,1.38,0,0,0,132.67,149.52Z" fill="#003a50"/><path d="M427.18,156.08h-5.82v-1.84h8.86v1.84l-4.53,2.65v.07H427a3.9,3.9,0,0,1,2.79,1,3.5,3.5,0,0,1,1.06,2.67,3.32,3.32,0,0,1-1.33,2.82,7,7,0,0,1-7.24,0,3.36,3.36,0,0,1-1.33-2.86v-.32H423v.32c0,1.37.94,2,2.84,2s2.84-.67,2.84-2-.95-2-2.84-2H422.6v-1.67l4.58-2.68Z" fill="#003a50"/><path d="M432.92,166a1,1,0,0,1-.33-.8,1,1,0,0,1,.33-.81,1.23,1.23,0,0,1,.87-.3,1.2,1.2,0,0,1,.86.3,1,1,0,0,1,.33.81,1,1,0,0,1-.33.8,1.2,1.2,0,0,1-.86.3A1.23,1.23,0,0,1,432.92,166Z" fill="#003a50"/><path d="M445.5,165.38a6.43,6.43,0,0,1-3.68.93,6.51,6.51,0,0,1-3.69-.93,3,3,0,0,1-1.37-2.56,2.71,2.71,0,0,1,.26-1.17,2.29,2.29,0,0,1,.66-.85,3.86,3.86,0,0,1,1.39-.77l.26-.07v-.09a3.32,3.32,0,0,1-.76-.29,2.68,2.68,0,0,1-.67-.44,2.24,2.24,0,0,1-.54-.76,2.38,2.38,0,0,1-.22-1,2.81,2.81,0,0,1,1.25-2.38,7,7,0,0,1,6.85,0,2.83,2.83,0,0,1,1.25,2.38,2.5,2.5,0,0,1-.22,1.05,2,2,0,0,1-.55.74,3.72,3.72,0,0,1-1.2.68l-.22.05V160l.28.07a3.62,3.62,0,0,1,.62.26,4.28,4.28,0,0,1,.77.51,2.66,2.66,0,0,1,.62.82,2.71,2.71,0,0,1,.27,1.2A2.94,2.94,0,0,1,445.5,165.38ZM439.71,164a3.84,3.84,0,0,0,2.1.48,4,4,0,0,0,2.11-.47,1.61,1.61,0,0,0,0-2.7,4.95,4.95,0,0,0-4.21,0,1.53,1.53,0,0,0-.74,1.35A1.51,1.51,0,0,0,439.71,164Zm-.36-6.52a1.36,1.36,0,0,0,.64,1.19,4,4,0,0,0,3.65,0,1.42,1.42,0,0,0,0-2.39,3.94,3.94,0,0,0-3.62,0A1.38,1.38,0,0,0,439.35,157.51Z" fill="#003a50"/><path d="M461.16,91.19h-9.93V89.63a2.74,2.74,0,0,1,.58-1.74,4,4,0,0,1,1.44-1.2c.5-.25,1.13-.54,1.87-.86s1.33-.56,1.88-.77a4.24,4.24,0,0,0,1.44-.92,1.76,1.76,0,0,0,.58-1.3q0-1.89-2.67-1.89t-2.67,2.16v.41h-2.11v-.41a3.62,3.62,0,0,1,1.26-3,5.38,5.38,0,0,1,3.51-1,5.66,5.66,0,0,1,3.52,1,3.31,3.31,0,0,1,1.27,2.75,3.12,3.12,0,0,1-.56,1.83,4.18,4.18,0,0,1-1.4,1.31c-.6.34-1.21.65-1.84.93s-1.23.52-1.83.75a5.55,5.55,0,0,0-1.4.74,1.22,1.22,0,0,0-.56,1h7.62Z" fill="#003a50"/><path d="M463.26,91.06a1,1,0,0,1-.32-.81,1,1,0,0,1,.32-.8,1.41,1.41,0,0,1,1.74,0,1.06,1.06,0,0,1,.32.8,1,1,0,0,1-.32.81,1.41,1.41,0,0,1-1.74,0Z" fill="#003a50"/><path d="M468.67,89.66a7.34,7.34,0,0,1,0-8.84,5.71,5.71,0,0,1,8.13,0,7.34,7.34,0,0,1,0,8.84,5.71,5.71,0,0,1-8.13,0Zm6.53-1.39a5.73,5.73,0,0,0,0-6.07,3.15,3.15,0,0,0-4.92,0,5.67,5.67,0,0,0,0,6.07,2.88,2.88,0,0,0,2.46,1.19A2.93,2.93,0,0,0,475.2,88.27Z" fill="#003a50"/><path d="M250.83,343.46H245v-1.84h8.86v1.84l-4.52,2.65v.06h1.28a3.87,3.87,0,0,1,2.79,1,3.52,3.52,0,0,1,1.05,2.66,3.33,3.33,0,0,1-1.33,2.83,7,7,0,0,1-7.24,0,3.39,3.39,0,0,1-1.33-2.86v-.32h2.11v.32c0,1.36,1,2,2.84,2s2.84-.67,2.84-2-.94-2-2.84-2h-3.26v-1.67l4.58-2.68Z" fill="#003a50"/><path d="M256.56,353.39a1,1,0,0,1-.32-.8,1.07,1.07,0,0,1,.32-.81,1.25,1.25,0,0,1,.88-.3,1.22,1.22,0,0,1,.86.3,1,1,0,0,1,.32.81,1,1,0,0,1-.32.8,1.22,1.22,0,0,1-.86.3A1.25,1.25,0,0,1,256.56,353.39Z" fill="#003a50"/><path d="M263.67,353.52h-2.35l5.42-10h-6.93v-1.87h9.29v1.87Z" fill="#003a50"/><path d="M318,314.37h-9.93v-1.56a2.74,2.74,0,0,1,.58-1.74,4,4,0,0,1,1.45-1.2c.5-.25,1.12-.54,1.87-.86s1.32-.56,1.87-.77a4.39,4.39,0,0,0,1.45-.92,1.78,1.78,0,0,0,.57-1.3c0-1.26-.89-1.89-2.66-1.89s-2.68.72-2.68,2.16v.41h-2.11v-.41a3.62,3.62,0,0,1,1.26-3,5.39,5.39,0,0,1,3.52-1,5.65,5.65,0,0,1,3.51,1A3.27,3.27,0,0,1,318,306a3.07,3.07,0,0,1-.56,1.83,4.18,4.18,0,0,1-1.4,1.31c-.6.34-1.21.65-1.84.93s-1.23.52-1.82.74a5.64,5.64,0,0,0-1.41.75,1.25,1.25,0,0,0-.56,1H318Z" fill="#003a50"/><path d="M320.1,314.24a1,1,0,0,1-.32-.81,1.06,1.06,0,0,1,.32-.8,1.25,1.25,0,0,1,.88-.3,1.22,1.22,0,0,1,.86.3,1,1,0,0,1,.32.8,1,1,0,0,1-.32.81,1.22,1.22,0,0,1-.86.3A1.25,1.25,0,0,1,320.1,314.24Z" fill="#003a50"/><path d="M332.69,313.61a7.73,7.73,0,0,1-7.37,0A3,3,0,0,1,324,311a2.7,2.7,0,0,1,.26-1.16,2.41,2.41,0,0,1,.65-.86,4.14,4.14,0,0,1,1.4-.77l.26-.06v-.1a3,3,0,0,1-.77-.29,2.61,2.61,0,0,1-.66-.44,2.2,2.2,0,0,1-.54-.75,2.42,2.42,0,0,1-.23-1,2.82,2.82,0,0,1,1.26-2.39,5.81,5.81,0,0,1,3.42-.89,5.89,5.89,0,0,1,3.43.89,2.83,2.83,0,0,1,1.24,2.39,2.58,2.58,0,0,1-.21,1,2,2,0,0,1-.56.74,3.42,3.42,0,0,1-1.19.68l-.23,0v.1a1.27,1.27,0,0,1,.28.06,6.14,6.14,0,0,1,.63.27,4.09,4.09,0,0,1,.77.5,2.71,2.71,0,0,1,.61.83,2.52,2.52,0,0,1,.28,1.19A3,3,0,0,1,332.69,313.61Zm-5.79-1.36a3.75,3.75,0,0,0,2.1.49,3.84,3.84,0,0,0,2.1-.48,1.59,1.59,0,0,0,0-2.69,4.93,4.93,0,0,0-4.2,0,1.58,1.58,0,0,0,0,2.68Zm-.37-6.51a1.37,1.37,0,0,0,.65,1.19,4.07,4.07,0,0,0,3.64,0,1.42,1.42,0,0,0,0-2.39,3.94,3.94,0,0,0-3.62,0A1.36,1.36,0,0,0,326.53,305.74Z" fill="#003a50"/><path d="M114.67,306.39a5.06,5.06,0,0,1,3.34,1.06,4.19,4.19,0,0,1,0,6,5.39,5.39,0,0,1-3.55,1.08,5.84,5.84,0,0,1-3.56-1,3.18,3.18,0,0,1-1.29-2.69h2.11a1.54,1.54,0,0,0,.7,1.34,3.62,3.62,0,0,0,2,.48,3.15,3.15,0,0,0,2-.57,2.37,2.37,0,0,0,0-3.39,3.25,3.25,0,0,0-2.07-.58,3.58,3.58,0,0,0-1.92.42,1.93,1.93,0,0,0-.7.64l0,.12h-2.11v-6.88h8.88v1.85h-6.77v2.95h0a2.77,2.77,0,0,1,.4-.3,3.11,3.11,0,0,1,.55-.27A5.6,5.6,0,0,1,114.67,306.39Z" fill="#003a50"/><path d="M121.37,314.24a1,1,0,0,1-.32-.81,1.06,1.06,0,0,1,.32-.8,1.41,1.41,0,0,1,1.74,0,1.06,1.06,0,0,1,.32.8,1,1,0,0,1-.32.81,1.41,1.41,0,0,1-1.74,0Z" fill="#003a50"/><path d="M128.48,314.37h-2.35l5.42-10h-6.93v-1.88h9.28v1.88Z" fill="#003a50"/><path d="M79.13,386.18H69.19v-1.56a2.75,2.75,0,0,1,.59-1.74,4,4,0,0,1,1.44-1.2c.5-.26,1.12-.54,1.87-.86s1.32-.56,1.88-.78a4.07,4.07,0,0,0,1.44-.91,1.8,1.8,0,0,0,.57-1.3c0-1.26-.88-1.89-2.66-1.89s-2.68.72-2.68,2.16v.41H69.53v-.41a3.62,3.62,0,0,1,1.27-3,5.34,5.34,0,0,1,3.51-1,5.63,5.63,0,0,1,3.51,1,3.27,3.27,0,0,1,1.27,2.75,3.16,3.16,0,0,1-.55,1.83,4.28,4.28,0,0,1-1.41,1.3,18.58,18.58,0,0,1-1.83.94c-.63.27-1.24.52-1.83.74a5.26,5.26,0,0,0-1.4.75,1.22,1.22,0,0,0-.57,1h7.63Z" fill="#003a50"/><path d="M81.23,386.05a1.15,1.15,0,0,1,0-1.61,1.4,1.4,0,0,1,1.73,0,1.15,1.15,0,0,1,0,1.61,1.4,1.4,0,0,1-1.73,0Z" fill="#003a50"/><path d="M95,386.18H85.07v-1.56a2.8,2.8,0,0,1,.58-1.74,4.12,4.12,0,0,1,1.45-1.2c.5-.26,1.12-.54,1.87-.86s1.32-.56,1.87-.78a4.12,4.12,0,0,0,1.45-.91,1.8,1.8,0,0,0,.57-1.3c0-1.26-.89-1.89-2.66-1.89s-2.68.72-2.68,2.16v.41H85.41v-.41a3.59,3.59,0,0,1,1.27-3,5.34,5.34,0,0,1,3.51-1,5.65,5.65,0,0,1,3.51,1A3.27,3.27,0,0,1,95,377.83a3.16,3.16,0,0,1-.55,1.83A4.28,4.28,0,0,1,93,381a19.77,19.77,0,0,1-1.83.94c-.63.27-1.24.52-1.83.74a5.11,5.11,0,0,0-1.4.75,1.22,1.22,0,0,0-.57,1H95Z" fill="#003a50"/><path d="M109.66,421.49l-2.49,1.95V421.2l2.74-2.27h1.86v11.91h-2.11Z" fill="#003a50"/><path d="M116.28,421.49l-2.48,1.95V421.2l2.73-2.27h1.86v11.91h-2.11Z" fill="#003a50"/><path d="M120.92,430.71a1,1,0,0,1-.32-.81,1,1,0,0,1,.32-.8,1.23,1.23,0,0,1,.87-.3,1.2,1.2,0,0,1,.86.3,1,1,0,0,1,.33.8,1,1,0,0,1-.33.81,1.2,1.2,0,0,1-.86.3A1.23,1.23,0,0,1,120.92,430.71Z" fill="#003a50"/><path d="M133.5,430.08a7.73,7.73,0,0,1-7.37,0,3,3,0,0,1-1.37-2.56,2.7,2.7,0,0,1,.26-1.16,2.41,2.41,0,0,1,.66-.86,4,4,0,0,1,1.39-.77l.26-.06v-.1a2.91,2.91,0,0,1-.76-.29,2.51,2.51,0,0,1-.67-.44,2.2,2.2,0,0,1-.54-.75,2.41,2.41,0,0,1-.22-1,2.8,2.8,0,0,1,1.25-2.38,7,7,0,0,1,6.85,0,2.81,2.81,0,0,1,1.25,2.38,2.43,2.43,0,0,1-.22,1,2,2,0,0,1-.55.74,3.54,3.54,0,0,1-1.2.68l-.22.05v.1l.28.06a5.42,5.42,0,0,1,.62.27,3.79,3.79,0,0,1,.77.5,2.89,2.89,0,0,1,.62.83,2.63,2.63,0,0,1,.27,1.19A3,3,0,0,1,133.5,430.08Zm-5.79-1.36a3.75,3.75,0,0,0,2.1.49,3.84,3.84,0,0,0,2.1-.48,1.59,1.59,0,0,0,0-2.69,4.93,4.93,0,0,0-4.2,0,1.58,1.58,0,0,0,0,2.68Zm-.36-6.51a1.36,1.36,0,0,0,.64,1.19,4.09,4.09,0,0,0,3.65,0,1.38,1.38,0,0,0,.64-1.19,1.36,1.36,0,0,0-.66-1.2,3.94,3.94,0,0,0-3.62,0A1.35,1.35,0,0,0,127.35,422.21Z" fill="#003a50"/><path d="M306,421.49l-2.48,1.95V421.2l2.73-2.27h1.86v11.91H306Z" fill="#003a50"/><path d="M312.59,421.49l-2.48,1.95V421.2l2.73-2.27h1.86v11.91h-2.11Z" fill="#003a50"/><path d="M317.22,430.71a1,1,0,0,1-.32-.81,1.06,1.06,0,0,1,.32-.8,1.25,1.25,0,0,1,.88-.3,1.22,1.22,0,0,1,.86.3,1,1,0,0,1,.32.8,1,1,0,0,1-.32.81,1.22,1.22,0,0,1-.86.3A1.25,1.25,0,0,1,317.22,430.71Z" fill="#003a50"/><path d="M322.63,429.31a7.34,7.34,0,0,1,0-8.84,5.71,5.71,0,0,1,8.13,0,7.34,7.34,0,0,1,0,8.84,5.71,5.71,0,0,1-8.13,0Zm6.53-1.39a5.73,5.73,0,0,0,0-6.07,3.15,3.15,0,0,0-4.92,0,5.67,5.67,0,0,0,0,6.07,3.14,3.14,0,0,0,4.92,0Z" fill="#003a50"/><path d="M471.79,421.49l-2.48,1.95V421.2l2.73-2.27h1.86v11.91h-2.11Z" fill="#003a50"/><path d="M486.29,430.84h-9.93v-1.56a2.74,2.74,0,0,1,.58-1.74,4,4,0,0,1,1.45-1.2c.49-.25,1.12-.54,1.86-.86s1.33-.56,1.88-.77a4.39,4.39,0,0,0,1.45-.92,1.78,1.78,0,0,0,.57-1.3q0-1.89-2.67-1.89t-2.67,2.16v.41H476.7v-.41a3.62,3.62,0,0,1,1.26-3,5.38,5.38,0,0,1,3.51-1,5.66,5.66,0,0,1,3.52,1,3.3,3.3,0,0,1,1.27,2.75,3.14,3.14,0,0,1-.56,1.83,4.29,4.29,0,0,1-1.4,1.31c-.6.34-1.21.65-1.84.93s-1.23.52-1.82.74a5.46,5.46,0,0,0-1.41.75,1.25,1.25,0,0,0-.56,1h7.62Z" fill="#003a50"/><path d="M488.39,430.71a1,1,0,0,1-.32-.81,1.06,1.06,0,0,1,.32-.8,1.41,1.41,0,0,1,1.74,0,1.06,1.06,0,0,1,.32.8,1,1,0,0,1-.32.81,1.41,1.41,0,0,1-1.74,0Z" fill="#003a50"/><path d="M500.73,430.84h-2.11v-2.65h-7v-1.84l6.3-7.42h2.79v7.42h1.59v1.84h-1.59Zm-2.11-4.49V421h-.07l-4.48,5.27v.05Z" fill="#003a50"/><path d="M576.9,421.49l-2.48,1.95V421.2l2.73-2.27H579v11.91H576.9Z" fill="#003a50"/><path d="M590.21,430.08a7.73,7.73,0,0,1-7.37,0,3,3,0,0,1-1.37-2.56,2.56,2.56,0,0,1,.26-1.16,2.51,2.51,0,0,1,.65-.86,4.05,4.05,0,0,1,1.4-.77l.26-.06v-.1a3,3,0,0,1-.77-.29,2.61,2.61,0,0,1-.66-.44,2.2,2.2,0,0,1-.54-.75,2.42,2.42,0,0,1-.23-1,2.79,2.79,0,0,1,1.26-2.38,5.74,5.74,0,0,1,3.42-.9,5.81,5.81,0,0,1,3.43.9,2.8,2.8,0,0,1,1.24,2.38,2.43,2.43,0,0,1-.22,1,1.87,1.87,0,0,1-.55.74,3.42,3.42,0,0,1-1.19.68l-.23.05v.1a1.39,1.39,0,0,1,.28.06,6.14,6.14,0,0,1,.63.27,4.09,4.09,0,0,1,.77.5,2.88,2.88,0,0,1,.61.83,2.52,2.52,0,0,1,.28,1.19A3,3,0,0,1,590.21,430.08Zm-5.79-1.36a3.7,3.7,0,0,0,2.1.49,3.84,3.84,0,0,0,2.1-.48,1.59,1.59,0,0,0,0-2.69,4.93,4.93,0,0,0-4.2,0,1.58,1.58,0,0,0,0,2.68Zm-.37-6.51a1.37,1.37,0,0,0,.65,1.19,3.2,3.2,0,0,0,1.82.43,3.24,3.24,0,0,0,1.82-.43,1.43,1.43,0,0,0,0-2.39,3.94,3.94,0,0,0-3.62,0A1.36,1.36,0,0,0,584.05,422.21Z" fill="#003a50"/></g></svg>