<svg id="Слой_1" data-name="Слой 1" xmlns="http://www.w3.org/2000/svg" xmlns:xlink="http://www.w3.org/1999/xlink" viewBox="0 0 583.94 383.81"><defs><clipPath id="clip-path"><polygon points="83.19 0.42 83.19 36.57 0 36.57 0 209.82 91.69 209.82 91.69 230.09 236.75 230.09 236.75 383.39 582.24 383.39 582.24 48.61 568.13 48.61 568.13 0.42 83.19 0.42" fill="none"/></clipPath></defs><rect x="246.48" y="376.41" width="320.54" height="6.98" fill="#fff"/><polygon points="83.19 0.42 83.19 36.57 56.91 36.57 56.91 42.38 67.98 58.66 67.98 107.99 65.5 199.62 94.04 199.62 94.04 218.54 241.86 218.54 241.86 381.26 567.03 381.26 567.03 223.93 567.03 205.54 567.03 16.28 84.18 16.28 84.18 0.42 83.19 0.42" fill="#fff"/><polygon points="90.38 0.42 90.72 2.99 565.08 2.99 565.08 0.42 90.38 0.42" fill="#fff"/><g clip-path="url(#clip-path)"><rect x="-584.12" y="-665.45" width="1162.95" height="2240.57" fill="none" stroke="#003a50" stroke-miterlimit="10"/><polygon points="-571.54 438.72 -571.54 1562.27 565.85 1562.27 565.85 -652.5 -571.54 -652.66 -571.54 368.01 -571.54 438.72" fill="none" stroke="#003a50" stroke-miterlimit="10"/></g><rect x="541.53" y="258.35" width="4.56" height="86.51" fill="#fff"/><rect x="541.53" y="258.35" width="4.56" height="86.51" fill="none" stroke="#003a50" stroke-miterlimit="10"/><line x1="543.81" y1="344.86" x2="543.81" y2="258.35" fill="none" stroke="#003a50" stroke-miterlimit="10"/><rect x="541.53" y="340.49" width="4.56" height="4.37" fill="#fff"/><rect x="541.53" y="340.49" width="4.56" height="4.37" fill="none" stroke="#003a50" stroke-miterlimit="10"/><rect x="541.53" y="258.35" width="4.56" height="4.37" fill="#fff"/><rect x="541.53" y="258.35" width="4.56" height="4.37" fill="none" stroke="#003a50" stroke-miterlimit="10"/><rect x="541.53" y="297.26" width="4.56" height="4.37" fill="#fff"/><rect x="541.53" y="297.26" width="4.56" height="4.37" fill="none" stroke="#003a50" stroke-miterlimit="10"/><g clip-path="url(#clip-path)"><path d="M541.53,297.26h-2.9c-20.15,0-33.1-15.46-33.1-34.54h36" fill="none" stroke="#003a50" stroke-miterlimit="10"/></g><rect x="541.53" y="74.8" width="4.56" height="87.39" fill="#fff"/><rect x="541.53" y="74.8" width="4.56" height="87.39" fill="none" stroke="#003a50" stroke-miterlimit="10"/><line x1="543.81" y1="74.8" x2="543.81" y2="162.19" fill="none" stroke="#003a50" stroke-miterlimit="10"/><rect x="541.53" y="74.8" width="4.56" height="4.42" fill="#fff"/><rect x="541.53" y="74.8" width="4.56" height="4.42" fill="none" stroke="#003a50" stroke-miterlimit="10"/><rect x="541.53" y="157.78" width="4.56" height="4.42" fill="#fff"/><rect x="541.53" y="157.78" width="4.56" height="4.42" fill="none" stroke="#003a50" stroke-miterlimit="10"/><rect x="541.53" y="118.47" width="4.56" height="4.41" fill="#fff"/><rect x="541.53" y="118.47" width="4.56" height="4.41" fill="none" stroke="#003a50" stroke-miterlimit="10"/><g clip-path="url(#clip-path)"><path d="M541.53,122.89h-2.9c-20.15,0-33.1,15.62-33.1,34.89h36" fill="none" stroke="#003a50" stroke-miterlimit="10"/><path d="M119.49,191.39a3.16,3.16,0,0,0,2.91-1.95h1.79l4.73,2.82-2.15,3.5-2.46-1.35v11H114v-11l-2.47,1.35-2.15-3.5,4.78-2.82h2.38A3.21,3.21,0,0,0,119.49,191.39Z" fill="none" stroke="#003a50" stroke-miterlimit="10"/></g><rect x="103.37" y="182.2" width="31.57" height="30.42" fill="none" stroke="#003a50" stroke-miterlimit="10"/><rect x="218.91" y="115.29" width="31.65" height="31.61" fill="none" stroke="#003a50" stroke-miterlimit="10"/><g clip-path="url(#clip-path)"><path d="M230.73,129.67V119.39h8v10.28a3.29,3.29,0,0,1-3.3,3.29H234A3.29,3.29,0,0,1,230.73,129.67Z" fill="none" stroke="#003a50" stroke-miterlimit="10"/></g><polyline points="237.96 142.79 234.72 142.79 231.5 142.79" fill="none" stroke="#003a50" stroke-miterlimit="10"/><line x1="234.73" y1="132.96" x2="234.73" y2="142.79" fill="none" stroke="#003a50" stroke-miterlimit="10"/><rect x="260.16" y="178.63" width="34.02" height="34.02" fill="none" stroke="#003a50" stroke-miterlimit="10"/><g clip-path="url(#clip-path)"><path d="M269.56,208.05a4.64,4.64,0,1,1,4.64-4.64A4.63,4.63,0,0,1,269.56,208.05Z" fill="none" stroke="#003a50" stroke-miterlimit="10"/><path d="M269.56,192.57a4.64,4.64,0,1,1,4.64-4.64A4.63,4.63,0,0,1,269.56,192.57Z" fill="none" stroke="#003a50" stroke-miterlimit="10"/><path d="M284.65,208.05a4.64,4.64,0,1,1,4.64-4.64A4.63,4.63,0,0,1,284.65,208.05Z" fill="none" stroke="#003a50" stroke-miterlimit="10"/><path d="M284.65,192.57a4.64,4.64,0,1,1,4.64-4.64A4.63,4.63,0,0,1,284.65,192.57Z" fill="none" stroke="#003a50" stroke-miterlimit="10"/></g><rect x="254.29" y="219.15" width="26.5" height="148.24" fill="none" stroke="#003a50" stroke-miterlimit="10"/><g clip-path="url(#clip-path)"><path d="M277,232.62a.78.78,0,0,1,.7.43.78.78,0,0,1-.36,1,22.44,22.44,0,0,1-19.67,0,.78.78,0,0,1,.69-1.4,20.89,20.89,0,0,0,18.3,0A.68.68,0,0,1,277,232.62Z" fill="none" stroke="#003a50" stroke-miterlimit="10"/><path d="M277,237a.77.77,0,0,1,.7.44.78.78,0,0,1-.36,1,22.35,22.35,0,0,1-19.67,0,.78.78,0,0,1,.69-1.4,20.81,20.81,0,0,0,18.3,0A.68.68,0,0,1,277,237Z" fill="none" stroke="#003a50" stroke-miterlimit="10"/><path d="M277,241.29a.78.78,0,0,1,.7.43.78.78,0,0,1-.36,1.05,22.44,22.44,0,0,1-19.67,0,.78.78,0,0,1,.69-1.4,20.89,20.89,0,0,0,18.3,0A.68.68,0,0,1,277,241.29Z" fill="none" stroke="#003a50" stroke-miterlimit="10"/><path d="M277,245.62a.77.77,0,0,1,.7.44.78.78,0,0,1-.36,1,22.35,22.35,0,0,1-19.67,0,.78.78,0,0,1,.69-1.4,20.81,20.81,0,0,0,18.3,0A.68.68,0,0,1,277,245.62Z" fill="none" stroke="#003a50" stroke-miterlimit="10"/><path d="M277,250a.78.78,0,0,1,.7.43.78.78,0,0,1-.36,1.05,22.44,22.44,0,0,1-19.67,0,.78.78,0,0,1,.69-1.4,20.89,20.89,0,0,0,18.3,0A.68.68,0,0,1,277,250Z" fill="none" stroke="#003a50" stroke-miterlimit="10"/><path d="M277,254.29a.77.77,0,0,1,.7.44.78.78,0,0,1-.36,1,22.35,22.35,0,0,1-19.67,0,.78.78,0,0,1,.69-1.4,20.81,20.81,0,0,0,18.3,0A.68.68,0,0,1,277,254.29Z" fill="none" stroke="#003a50" stroke-miterlimit="10"/><path d="M277,228.28a.77.77,0,0,1,.7.44.79.79,0,0,1-.36,1.05,22.44,22.44,0,0,1-19.67,0,.78.78,0,0,1,.69-1.41,20.81,20.81,0,0,0,18.3,0A.81.81,0,0,1,277,228.28Z" fill="none" stroke="#003a50" stroke-miterlimit="10"/><path d="M277,224a.78.78,0,0,1,.7.43.78.78,0,0,1-.36,1.05,22.44,22.44,0,0,1-19.67,0,.78.78,0,0,1,.69-1.4,20.89,20.89,0,0,0,18.3,0A.68.68,0,0,1,277,224Z" fill="none" stroke="#003a50" stroke-miterlimit="10"/></g><line x1="267.48" y1="219.28" x2="267.48" y2="367.26" fill="none" stroke="#003a50" stroke-miterlimit="10"/><g clip-path="url(#clip-path)"><path d="M277,259.09a.77.77,0,0,1,.7.44.78.78,0,0,1-.36,1.05,22.44,22.44,0,0,1-19.67,0,.78.78,0,0,1,.69-1.41,20.81,20.81,0,0,0,18.3,0A.81.81,0,0,1,277,259.09Z" fill="none" stroke="#003a50" stroke-miterlimit="10"/><path d="M277,263.43a.78.78,0,0,1,.7.43.78.78,0,0,1-.36,1.05,22.44,22.44,0,0,1-19.67,0,.78.78,0,0,1,.69-1.4,20.89,20.89,0,0,0,18.3,0A.68.68,0,0,1,277,263.43Z" fill="none" stroke="#003a50" stroke-miterlimit="10"/><path d="M277,267.76a.77.77,0,0,1,.7.44.79.79,0,0,1-.36,1.05,22.44,22.44,0,0,1-19.67,0,.78.78,0,0,1,.69-1.41,20.81,20.81,0,0,0,18.3,0A.81.81,0,0,1,277,267.76Z" fill="none" stroke="#003a50" stroke-miterlimit="10"/></g><rect x="280.78" y="219.16" width="34.54" height="26.5" fill="none" stroke="#003a50" stroke-miterlimit="10"/><g clip-path="url(#clip-path)"><path d="M294.24,241.84a.77.77,0,0,0,.44.7.79.79,0,0,0,1.05-.36,22.44,22.44,0,0,0,0-19.67.78.78,0,0,0-1.41.69,20.81,20.81,0,0,1,0,18.3A.81.81,0,0,0,294.24,241.84Z" fill="none" stroke="#003a50" stroke-miterlimit="10"/><path d="M298.58,241.84a.78.78,0,0,0,.43.7.78.78,0,0,0,1.05-.36,22.44,22.44,0,0,0,0-19.67.78.78,0,0,0-1.4.69,20.89,20.89,0,0,1,0,18.3A.68.68,0,0,0,298.58,241.84Z" fill="none" stroke="#003a50" stroke-miterlimit="10"/><path d="M289.91,241.84a.78.78,0,0,0,.43.7.78.78,0,0,0,1.05-.36,22.44,22.44,0,0,0,0-19.67.78.78,0,0,0-1.4.69,20.89,20.89,0,0,1,0,18.3A.68.68,0,0,0,289.91,241.84Z" fill="none" stroke="#003a50" stroke-miterlimit="10"/><path d="M285.57,241.84a.77.77,0,0,0,.44.7.79.79,0,0,0,1.05-.36,22.44,22.44,0,0,0,0-19.67.78.78,0,0,0-1.41.69,20.81,20.81,0,0,1,0,18.3A.81.81,0,0,0,285.57,241.84Z" fill="none" stroke="#003a50" stroke-miterlimit="10"/></g><line x1="280.91" y1="232.35" x2="315.19" y2="232.35" fill="none" stroke="#003a50" stroke-miterlimit="10"/><rect x="280.78" y="340.91" width="34.54" height="26.5" fill="none" stroke="#003a50" stroke-miterlimit="10"/><g clip-path="url(#clip-path)"><path d="M294.24,363.59a.77.77,0,0,0,.44.7.79.79,0,0,0,1.05-.36,22.44,22.44,0,0,0,0-19.67.78.78,0,0,0-1.41.69,20.81,20.81,0,0,1,0,18.3A.81.81,0,0,0,294.24,363.59Z" fill="none" stroke="#003a50" stroke-miterlimit="10"/><path d="M298.58,363.59a.78.78,0,0,0,.43.7.78.78,0,0,0,1.05-.36,22.44,22.44,0,0,0,0-19.67.78.78,0,0,0-1.4.69,20.89,20.89,0,0,1,0,18.3A.68.68,0,0,0,298.58,363.59Z" fill="none" stroke="#003a50" stroke-miterlimit="10"/><path d="M289.91,363.59a.78.78,0,0,0,.43.7.78.78,0,0,0,1.05-.36,22.44,22.44,0,0,0,0-19.67.78.78,0,0,0-1.4.69,20.89,20.89,0,0,1,0,18.3A.68.68,0,0,0,289.91,363.59Z" fill="none" stroke="#003a50" stroke-miterlimit="10"/><path d="M285.57,363.59a.77.77,0,0,0,.44.7.79.79,0,0,0,1.05-.36,22.44,22.44,0,0,0,0-19.67.78.78,0,0,0-1.41.69,20.81,20.81,0,0,1,0,18.3A.81.81,0,0,0,285.57,363.59Z" fill="none" stroke="#003a50" stroke-miterlimit="10"/></g><line x1="280.91" y1="354.1" x2="315.19" y2="354.1" fill="none" stroke="#003a50" stroke-miterlimit="10"/><rect x="428.4" y="158.99" width="102.05" height="16.75" fill="none" stroke="#003a50" stroke-miterlimit="10"/><polygon points="522.43 166.83 479.53 170.31 436.43 166.83 436.43 164.41 522.43 164.41 522.43 166.83" fill="none" stroke="#003a50" stroke-miterlimit="10"/><g clip-path="url(#clip-path)"><rect x="390.58" y="-16.79" width="102.05" height="16.75" fill="none" stroke="#003a50" stroke-miterlimit="10"/></g><rect x="400.43" y="192.99" width="102.05" height="16.75" fill="none" stroke="#003a50" stroke-miterlimit="10"/><polygon points="408.46 201.9 451.36 198.43 494.46 201.9 494.46 204.32 408.46 204.32 408.46 201.9" fill="none" stroke="#003a50" stroke-miterlimit="10"/><g clip-path="url(#clip-path)"><path d="M305.8,78.21a1.26,1.26,0,0,1,.94,1.51,13.78,13.78,0,1,0,26.87,6.16,1.26,1.26,0,0,1,2.46.57,16.3,16.3,0,0,1-31.78-7.29A1.26,1.26,0,0,1,305.8,78.21Z" fill="none" stroke="#003a50" stroke-miterlimit="10"/><path d="M361,87.93a1.24,1.24,0,0,1,1.74-.33,13.79,13.79,0,1,0,15.53-22.79,1.26,1.26,0,0,1,1.41-2.08,16.3,16.3,0,1,1-18.35,27A1.25,1.25,0,0,1,361,87.93Z" fill="none" stroke="#003a50" stroke-miterlimit="10"/><path d="M363.47,40.53a1.26,1.26,0,0,1-1.33-1.18A13.78,13.78,0,1,0,334.62,41a1.26,1.26,0,1,1-2.51.16,16.3,16.3,0,1,1,32.54-1.94A1.26,1.26,0,0,1,363.47,40.53Z" fill="none" stroke="#003a50" stroke-miterlimit="10"/><path d="M320,94.83a12.69,12.69,0,0,1-12-15.48l2-8.88a3.53,3.53,0,0,1,4.24-2.68l13.44,3.08a23.73,23.73,0,0,0,6,9.44l-1,4.2C331.39,90.47,326.11,95,320,94.83Z" fill="none" stroke="#003a50" stroke-miterlimit="10"/><path d="M362.79,86.3l-2.32-1.6a23.81,23.81,0,0,0,13.64-21.32l2.52,1.72c5,3.44,7.4,10,5,15.64A12.7,12.7,0,0,1,362.79,86.3Z" fill="none" stroke="#003a50" stroke-miterlimit="10"/><path d="M336,44l-.12-2c-.36-6.12,3.4-12,9.32-13.48A12.66,12.66,0,0,1,361,40.07l.12,1.83A24,24,0,0,0,344.51,40,23.32,23.32,0,0,0,336,44Z" fill="none" stroke="#003a50" stroke-miterlimit="10"/><path d="M333.71,80.3a23.73,23.73,0,0,1-6-9.44,16.51,16.51,0,0,1-.6-2A23.85,23.85,0,0,1,336,44a23.5,23.5,0,0,1,8.56-4,23.87,23.87,0,0,1,28.92,17.4,22.12,22.12,0,0,1,.68,6A23.81,23.81,0,0,1,360.47,84.7,22.85,22.85,0,0,1,356,86.3,23.8,23.8,0,0,1,333.71,80.3Z" fill="none" stroke="#003a50" stroke-miterlimit="10"/></g><rect x="168.92" y="116.98" width="43.96" height="95.52" fill="none" stroke="#003a50" stroke-miterlimit="10"/><g clip-path="url(#clip-path)"><rect x="174.08" y="121.18" width="33.22" height="87.39" rx="13.7" fill="none" stroke="#003a50" stroke-miterlimit="10"/><circle cx="190.78" cy="193.44" r="2.28" transform="translate(-41.32 334.68) rotate(-76.72)" fill="none" stroke="#003a50" stroke-miterlimit="10"/><path d="M131.8,167.36H103.24V144.29H131.8a11.54,11.54,0,1,1,0,23.07Z" fill="none" stroke="#003a50" stroke-miterlimit="10"/></g><rect x="103.23" y="144.29" width="11.08" height="23.08" fill="none" stroke="#003a50" stroke-miterlimit="10"/><rect x="218.9" y="178.64" width="98.15" height="33.86" fill="none" stroke="#003a50" stroke-miterlimit="10"/><rect x="218.91" y="146.99" width="31.65" height="31.65" fill="none" stroke="#003a50" stroke-miterlimit="10"/><polyline points="222.2 156.58 222.2 162.84 222.2 169.08" fill="none" stroke="#003a50" stroke-miterlimit="10"/><line x1="234.74" y1="162.85" x2="222.2" y2="162.85" fill="none" stroke="#003a50" stroke-miterlimit="10"/><g clip-path="url(#clip-path)"><path d="M244.28,149H230.8a3.24,3.24,0,0,0-3.24,3.24v21.21a3.23,3.23,0,0,0,3.24,3.23h13.48a3.23,3.23,0,0,0,3.24-3.23V152.21A3.24,3.24,0,0,0,244.28,149Z" fill="none" stroke="#003a50" stroke-miterlimit="10"/><path d="M236.3,162.85a2.24,2.24,0,1,0-2.23,2.23A2.23,2.23,0,0,0,236.3,162.85Z" fill="none" stroke="#003a50" stroke-miterlimit="10"/><path d="M147.42-28.89V0h22.8V-28.89a11.39,11.39,0,0,0-11.4-11.39A11.4,11.4,0,0,0,147.42-28.89Z" fill="none" stroke="#003a50" stroke-miterlimit="10"/><rect x="201.32" y="-33.59" width="98.7" height="33.56" fill="none" stroke="#003a50" stroke-miterlimit="10"/></g><rect x="254.85" y="15.88" width="28.86" height="30.54" fill="none" stroke="#003a50" stroke-miterlimit="10"/><rect x="96.91" y="16.52" width="122.14" height="29.57" fill="none" stroke="#003a50" stroke-miterlimit="10"/><g clip-path="url(#clip-path)"><path d="M111.79,20.71a.87.87,0,0,1,1.65-.38,25,25,0,0,1,0,22,.87.87,0,1,1-1.56-.77,23.27,23.27,0,0,0,0-20.42A.8.8,0,0,1,111.79,20.71Z" fill="none" stroke="#003a50" stroke-miterlimit="10"/><path d="M116.62,20.71a.87.87,0,0,1,.49-.78.88.88,0,0,1,1.17.4,25,25,0,0,1,0,22,.87.87,0,1,1-1.56-.77,23.27,23.27,0,0,0,0-20.42A.81.81,0,0,1,116.62,20.71Z" fill="none" stroke="#003a50" stroke-miterlimit="10"/><path d="M121.46,20.71a.87.87,0,0,1,.49-.78.88.88,0,0,1,1.17.4,25.09,25.09,0,0,1,0,22,.87.87,0,0,1-1.57-.77,23.27,23.27,0,0,0,0-20.42A.92.92,0,0,1,121.46,20.71Z" fill="none" stroke="#003a50" stroke-miterlimit="10"/><path d="M126.3,20.71a.87.87,0,0,1,.49-.78.88.88,0,0,1,1.17.4,25.09,25.09,0,0,1,0,22,.87.87,0,0,1-1.57-.77,23.27,23.27,0,0,0,0-20.42A.92.92,0,0,1,126.3,20.71Z" fill="none" stroke="#003a50" stroke-miterlimit="10"/><path d="M131.14,20.71a.87.87,0,0,1,.49-.78.88.88,0,0,1,1.17.4,25.09,25.09,0,0,1,0,22,.87.87,0,0,1-1.57-.77,23.27,23.27,0,0,0,0-20.42A.92.92,0,0,1,131.14,20.71Z" fill="none" stroke="#003a50" stroke-miterlimit="10"/><path d="M136,20.71a.87.87,0,0,1,1.65-.38,25,25,0,0,1,0,22,.87.87,0,1,1-1.56-.77,23.27,23.27,0,0,0,0-20.42A.92.92,0,0,1,136,20.71Z" fill="none" stroke="#003a50" stroke-miterlimit="10"/><path d="M107,20.71a.87.87,0,0,1,1.65-.38,25,25,0,0,1,0,22,.87.87,0,1,1-1.56-.77,23.27,23.27,0,0,0,0-20.42A.92.92,0,0,1,107,20.71Z" fill="none" stroke="#003a50" stroke-miterlimit="10"/><path d="M102.11,20.71a.87.87,0,0,1,.49-.78.88.88,0,0,1,1.17.4,25.09,25.09,0,0,1,0,22,.87.87,0,0,1-1.57-.77,23.27,23.27,0,0,0,0-20.42A.92.92,0,0,1,102.11,20.71Z" fill="none" stroke="#003a50" stroke-miterlimit="10"/></g><line x1="96.9" y1="31.31" x2="219.04" y2="31.31" fill="none" stroke="#003a50" stroke-miterlimit="10"/><rect x="224.6" y="16.13" width="30.26" height="30.26" fill="none" stroke="#003a50" stroke-miterlimit="10"/><line x1="230.85" y1="31.26" x2="248.6" y2="31.26" fill="none" stroke="#003a50" stroke-miterlimit="10"/><line x1="239.73" y1="40.14" x2="239.73" y2="22.38" fill="none" stroke="#003a50" stroke-miterlimit="10"/><line x1="233.45" y1="37.54" x2="246" y2="24.98" fill="none" stroke="#003a50" stroke-miterlimit="10"/><line x1="246" y1="37.54" x2="233.45" y2="24.98" fill="none" stroke="#003a50" stroke-miterlimit="10"/><polygon points="168.69 182.1 103.1 182.31 103.1 212.86 168.69 212.65 168.69 182.1" fill="none" stroke="#003a50" stroke-miterlimit="10"/><g clip-path="url(#clip-path)"><path d="M137.67,188.12v23a3.36,3.36,0,0,0,3.35,3.36h22.25a3.37,3.37,0,0,0,3.36-3.36v-23a3.37,3.37,0,0,0-3.36-3.36H141A3.36,3.36,0,0,0,137.67,188.12Z" fill="none" stroke="#003a50" stroke-miterlimit="10"/><circle cx="152.15" cy="199.62" r="2.27" fill="none" stroke="#003a50" stroke-miterlimit="10"/><rect x="253.23" y="383.82" width="34.02" height="105.94" fill="none" stroke="#003a50" stroke-miterlimit="10"/><path d="M472.85,62.54v-41H427.08V64.75h43.56A2.21,2.21,0,0,0,472.85,62.54Z" fill="none" stroke="#003a50" stroke-miterlimit="10"/><path d="M518.72,62.77V21.51H473V62.77a2,2,0,0,0,2,2h41.81A2,2,0,0,0,518.72,62.77Z" fill="none" stroke="#003a50" stroke-miterlimit="10"/><path d="M427.08,64.75a3.11,3.11,0,0,1-3.32,2.83h-4.23a3.11,3.11,0,0,1-3.32-2.83V16.55H529.59V64.33a3.1,3.1,0,0,1-3.32,2.82h-4.22a3.1,3.1,0,0,1-3.33-2.82V21.5H427.08Z" fill="none" stroke="#003a50" stroke-miterlimit="10"/></g><rect x="427.08" y="21.51" width="91.64" height="9.25" fill="none" stroke="#003a50" stroke-miterlimit="10"/><g clip-path="url(#clip-path)"><rect x="446.17" y="383.87" width="22.68" height="22.68" fill="none" stroke="#003a50" stroke-miterlimit="10"/><rect x="312.08" y="383.87" width="22.68" height="22.68" fill="none" stroke="#003a50" stroke-miterlimit="10"/><rect x="339.55" y="383.87" width="102.05" height="113.39" fill="none" stroke="#003a50" stroke-miterlimit="10"/></g><rect x="367.51" y="344.37" width="22.68" height="22.68" fill="none" stroke="#003a50" stroke-miterlimit="10"/><g clip-path="url(#clip-path)"><path d="M372.35,349.21a9.19,9.19,0,1,1,0,13A9.19,9.19,0,0,1,372.35,349.21Z" fill="none" stroke="#003a50" stroke-miterlimit="10"/><path d="M371.72,349.9c1.7.17,3.42-.48,5.07,1.17,2.44,2.44-.15,5,2.3,7.45s5-.13,7.45,2.3" fill="none" stroke="#003a50" stroke-miterlimit="10"/></g><rect x="501.61" y="344.37" width="22.68" height="22.68" fill="none" stroke="#003a50" stroke-miterlimit="10"/><g clip-path="url(#clip-path)"><path d="M506.45,349.21a9.19,9.19,0,1,1,0,13A9.19,9.19,0,0,1,506.45,349.21Z" fill="none" stroke="#003a50" stroke-miterlimit="10"/><path d="M505.82,349.9c1.7.17,3.41-.48,5.07,1.17,2.44,2.44-.15,5,2.3,7.45s5-.13,7.45,2.3" fill="none" stroke="#003a50" stroke-miterlimit="10"/></g><rect x="394.76" y="253.66" width="102.05" height="113.39" fill="none" stroke="#003a50" stroke-miterlimit="10"/><g clip-path="url(#clip-path)"><path d="M404.76,263.4h82.05a2.09,2.09,0,0,1,2.09,2.08v67.64H402.68V265.48A2.08,2.08,0,0,1,404.76,263.4Z" fill="none" stroke="#003a50" stroke-miterlimit="10"/><rect x="446.65" y="336.74" width="42.5" height="22.88" rx="1.98" fill="none" stroke="#003a50" stroke-miterlimit="10"/><rect x="402.42" y="336.74" width="42.5" height="22.88" rx="1.98" fill="none" stroke="#003a50" stroke-miterlimit="10"/></g><line x1="402.42" y1="319.27" x2="489.15" y2="319.27" fill="none" stroke="#003a50" stroke-miterlimit="10"/><g clip-path="url(#clip-path)"><path d="M166.07,117.66v-3.08a38.72,38.72,0,0,0-38.71-38.72v41.8" fill="none" stroke="#003a50" stroke-miterlimit="10" stroke-width="1.6"/><path d="M369.21,177.42v3.52a44.37,44.37,0,0,1-44.38,44.38v-47.9" fill="none" stroke="#003a50" stroke-miterlimit="10" stroke-width="1.6"/><path d="M56.91,109H52.85A51.12,51.12,0,0,1,1.72,57.9H56.91" fill="none" stroke="#003a50" stroke-miterlimit="10" stroke-width="1.6"/><path d="M57.45,375.65H53.38A51.13,51.13,0,0,0,2.25,426.77h55.2" fill="none" stroke="#003a50" stroke-miterlimit="10" stroke-width="1.6"/><rect x="51.67" y="36.33" width="16.32" height="22.32" fill="#003a50"/><rect x="51.67" y="107.99" width="16.32" height="100.85" fill="#003a50"/><rect x="51.67" y="36.34" width="45.82" height="10" fill="#003a50"/><rect x="51.67" y="198.13" width="51.56" height="11.71" fill="#003a50"/><rect x="91.53" y="198.13" width="11.71" height="31.86" fill="#003a50"/><rect x="51.67" y="201.34" width="10.82" height="175.07" fill="#003a50"/><rect x="86.73" y="-32.33" width="10.75" height="78.67" fill="#003a50"/><rect x="86.73" y="-0.04" width="447.72" height="16.32" fill="#003a50"/><rect x="459.48" y="172.66" width="74.97" height="21.34" fill="#003a50"/><rect x="246.48" y="367.33" width="287.97" height="16.26" fill="#003a50"/><rect x="92.48" y="212.5" width="160.47" height="17.49" fill="#003a50"/><rect x="236.7" y="214.33" width="17.28" height="252.92" fill="#003a50"/><polygon points="530.45 258.45 530.45 162.71 579.78 162.71 568.12 258.45 530.45 258.45" fill="#003a50" fill-rule="evenodd"/><rect x="530.45" y="-21.63" width="37.77" height="96.07" fill="#003a50"/><rect x="534.45" y="48.53" width="44.33" height="25.9" fill="#003a50"/><rect x="530.45" y="345.37" width="34.44" height="96.07" fill="#003a50"/><rect x="165.24" y="114.03" width="50.48" height="6.38" fill="#003a50"/><rect x="62.48" y="114.03" width="65.7" height="6.38" fill="#003a50"/><rect x="299.92" y="-33.59" width="6.38" height="41.71" fill="#003a50"/><rect x="195.03" y="-55.99" width="6.38" height="60.48" fill="#003a50"/><rect x="62.48" y="150.53" width="39.24" height="6.38" fill="#003a50"/><rect x="96.86" y="117.22" width="6.38" height="82.4" fill="#003a50"/><rect x="212.52" y="114.03" width="6.38" height="100.79" fill="#003a50"/><rect x="51.67" y="-26.91" width="6.38" height="73.25" fill="#003a50"/><rect x="250.55" y="212.5" width="64" height="6.38" fill="#003a50"/><rect x="368.3" y="174.67" width="102.25" height="6.38" fill="#003a50"/><rect x="83.14" y="-21.34" width="6.38" height="58.66" fill="#003a50"/><line x1="217.72" y1="45.12" x2="217.72" y2="47.96" fill="none" stroke="#003a50" stroke-miterlimit="10"/><line x1="217.72" y1="53.2" x2="217.72" y2="113.45" fill="none" stroke="#003a50" stroke-miterlimit="10" stroke-dasharray="5.24 5.24"/><line x1="217.72" y1="116.07" x2="217.72" y2="118.91" fill="none" stroke="#003a50" stroke-miterlimit="10"/><rect x="165.24" y="114.03" width="50.48" height="6.38" fill="#003a50"/><rect x="62.48" y="114.03" width="65.7" height="6.38" fill="#003a50"/><rect x="62.48" y="150.53" width="39.24" height="6.38" fill="#003a50"/><rect x="96.86" y="117.22" width="6.38" height="82.4" fill="#003a50"/><rect x="212.52" y="114.03" width="6.38" height="100.79" fill="#003a50"/><rect x="51.67" y="-26.91" width="6.38" height="73.25" fill="#003a50"/><rect x="250.55" y="212.5" width="67.89" height="6.38" fill="#003a50"/><rect x="368.3" y="174.67" width="102.25" height="6.38" fill="#003a50"/><rect x="83.14" y="-21.34" width="6.38" height="58.66" fill="#003a50"/><line x1="217.72" y1="45.12" x2="217.72" y2="47.96" fill="none" stroke="#003a50" stroke-miterlimit="10"/><line x1="217.72" y1="53.2" x2="217.72" y2="113.45" fill="none" stroke="#003a50" stroke-miterlimit="10" stroke-dasharray="5.24 5.24"/><line x1="217.72" y1="116.07" x2="217.72" y2="118.91" fill="none" stroke="#003a50" stroke-miterlimit="10"/></g><g clip-path="url(#clip-path)"><path d="M557.16,110a5.15,5.15,0,0,1-6.23,0,4,4,0,0,1,0-5.73,5.15,5.15,0,0,1,6.23,0,4,4,0,0,1,0,5.73Zm-1-4.6a4,4,0,0,0-4.29,0,2.23,2.23,0,0,0,0,3.47,4,4,0,0,0,4.29,0,2.23,2.23,0,0,0,0-3.47Z" fill="#003a50"/><path d="M558.15,101.65a.71.71,0,0,1-.56.23.75.75,0,0,1-.57-.23.9.9,0,0,1-.21-.62.87.87,0,0,1,.21-.61.75.75,0,0,1,.57-.23.71.71,0,0,1,.56.23.88.88,0,0,1,.22.61A.9.9,0,0,1,558.15,101.65Z" fill="#003a50"/><path d="M552.21,92V93.6l-.12,0-.31.15a1.6,1.6,0,0,0-.35.28,1.14,1.14,0,0,0-.29.5,2,2,0,0,0-.12.71,1.79,1.79,0,0,0,.73,1.52,3.11,3.11,0,0,0,1.89.54v0a1.27,1.27,0,0,1-.3-.31,4.1,4.1,0,0,1-.26-.43,3.14,3.14,0,0,1-.21-.67,4.12,4.12,0,0,1-.09-.86,3.57,3.57,0,0,1,.78-2.38,2.49,2.49,0,0,1,2-.92,2.54,2.54,0,0,1,2.05,1,3.89,3.89,0,0,1,.78,2.54,3.41,3.41,0,0,1-1.09,2.73,4.53,4.53,0,0,1-3,.94H554a4.81,4.81,0,0,1-3-.94,3.16,3.16,0,0,1-1.21-2.68,4.14,4.14,0,0,1,.26-1.5,2.61,2.61,0,0,1,.66-1A2.43,2.43,0,0,1,552.21,92Zm2.22,1.77A2.27,2.27,0,0,0,554,95.2a2.32,2.32,0,0,0,.41,1.4,1.35,1.35,0,0,0,1.12.55,1.29,1.29,0,0,0,1.1-.55,2.54,2.54,0,0,0,0-2.8,1.31,1.31,0,0,0-1.1-.54A1.33,1.33,0,0,0,554.43,93.81Z" fill="#003a50"/><path d="M557.16,333.81a5.19,5.19,0,0,1-6.23,0,4,4,0,0,1,0-5.74,5.19,5.19,0,0,1,6.23,0,4,4,0,0,1,0,5.74Zm-1-4.61a4.08,4.08,0,0,0-4.29,0,2.07,2.07,0,0,0-.83,1.74,2,2,0,0,0,.83,1.73,4,4,0,0,0,4.29,0,2,2,0,0,0,.83-1.73A2.07,2.07,0,0,0,556.19,329.2Z" fill="#003a50"/><path d="M558.15,325.48a.68.68,0,0,1-.56.23.71.71,0,0,1-.57-.23,1,1,0,0,1,0-1.22.75.75,0,0,1,.57-.23.71.71,0,0,1,.56.23,1,1,0,0,1,0,1.22Z" fill="#003a50"/><path d="M552.21,315.87v1.56l-.12,0a1.2,1.2,0,0,0-.31.15,1.91,1.91,0,0,0-.35.27,1.27,1.27,0,0,0-.29.5,2.09,2.09,0,0,0-.12.72,1.77,1.77,0,0,0,.73,1.51,3.11,3.11,0,0,0,1.89.54v0a1.11,1.11,0,0,1-.3-.31,2.73,2.73,0,0,1-.26-.43,3,3,0,0,1-.21-.67,4,4,0,0,1-.09-.86,3.54,3.54,0,0,1,.78-2.37,2.46,2.46,0,0,1,2-.92,2.54,2.54,0,0,1,2.05,1,3.87,3.87,0,0,1,.78,2.54,3.41,3.41,0,0,1-1.09,2.73,4.53,4.53,0,0,1-3,.93H554a4.81,4.81,0,0,1-3-.93,3.18,3.18,0,0,1-1.21-2.68,4.06,4.06,0,0,1,.26-1.5,2.73,2.73,0,0,1,.66-1A2.48,2.48,0,0,1,552.21,315.87Zm2.22,1.77A2.32,2.32,0,0,0,554,319a2.29,2.29,0,0,0,.41,1.39,1.33,1.33,0,0,0,1.12.55,1.31,1.31,0,0,0,1.1-.54,2.54,2.54,0,0,0,0-2.8,1.29,1.29,0,0,0-1.1-.55A1.35,1.35,0,0,0,554.43,317.64Z" fill="#003a50"/></g><rect x="315.25" y="174.67" width="10.41" height="6.38" fill="#003a50"/><rect x="315.25" y="174.67" width="6.38" height="87.74" fill="#003a50"/><rect x="315.25" y="317.15" width="6.38" height="59.44" fill="#003a50"/><rect x="218.23" y="0.42" width="6.38" height="6.57" fill="#003a50"/><rect x="218.23" y="7" width="6.38" height="39.33" fill="#003a50"/><g clip-path="url(#clip-path)"><path d="M307.23,282.58h-5.82v-1.85h8.86v1.85l-4.53,2.65v.06H307a3.9,3.9,0,0,1,2.79,1,3.5,3.5,0,0,1,1.06,2.67,3.35,3.35,0,0,1-1.33,2.82,6.93,6.93,0,0,1-7.24,0,3.35,3.35,0,0,1-1.33-2.85v-.33h2.11v.33c0,1.36.94,2,2.84,2s2.84-.66,2.84-2-.95-2-2.84-2h-3.27v-1.67l4.58-2.68Z" fill="#003a50"/><path d="M313,292.51a1.15,1.15,0,0,1,0-1.61,1.4,1.4,0,0,1,1.73,0,1.15,1.15,0,0,1,0,1.61,1.4,1.4,0,0,1-1.73,0Z" fill="#003a50"/><path d="M318.87,283.29l-2.48,1.95V283l2.73-2.27H321v11.91h-2.11Z" fill="#003a50"/><path d="M456.71,228.29l-2.48,2V228l2.73-2.27h1.86v11.91h-2.11Z" fill="#003a50"/><path d="M467.54,227.57h-5.82v-1.84h8.86v1.84l-4.53,2.65v.07h1.28a3.87,3.87,0,0,1,2.79,1,3.5,3.5,0,0,1,1.06,2.67,3.32,3.32,0,0,1-1.33,2.82,7,7,0,0,1-7.24,0,3.36,3.36,0,0,1-1.33-2.86v-.32h2.11v.32c0,1.37.94,2,2.84,2s2.84-.67,2.84-2-.95-2-2.84-2H463v-1.67l4.58-2.68Z" fill="#003a50"/><path d="M473.28,237.5a1,1,0,0,1-.32-.8,1,1,0,0,1,.32-.81,1.24,1.24,0,0,1,.87-.3,1.2,1.2,0,0,1,.86.3,1,1,0,0,1,.33.81,1,1,0,0,1-.33.8,1.2,1.2,0,0,1-.86.3A1.24,1.24,0,0,1,473.28,237.5Z" fill="#003a50"/><path d="M479.18,228.29l-2.48,2V228l2.73-2.27h1.86v11.91h-2.11Z" fill="#003a50"/><path d="M459.28,104.65l-2.48,2v-2.25l2.73-2.26h1.86V114h-2.11Z" fill="#003a50"/><path d="M472.58,113.24a7.71,7.71,0,0,1-7.36,0,2.91,2.91,0,0,1-1.37-2.55,2.57,2.57,0,0,1,.26-1.17,2.37,2.37,0,0,1,.65-.85,3.74,3.74,0,0,1,1.4-.77l.25-.07v-.09a3.51,3.51,0,0,1-.76-.29A2.91,2.91,0,0,1,465,107a2.21,2.21,0,0,1-.54-.76,2.39,2.39,0,0,1-.23-1,2.8,2.8,0,0,1,1.26-2.38,5.74,5.74,0,0,1,3.42-.9,5.81,5.81,0,0,1,3.43.9,2.82,2.82,0,0,1,1.24,2.38,2.43,2.43,0,0,1-.22,1,1.83,1.83,0,0,1-.55.75,3.72,3.72,0,0,1-1.2.68l-.22,0v.09a1.76,1.76,0,0,1,.28.07,4,4,0,0,1,.63.26,5.14,5.14,0,0,1,.77.51,2.77,2.77,0,0,1,.89,2A3,3,0,0,1,472.58,113.24Zm-5.78-1.35a3.79,3.79,0,0,0,2.1.48,4,4,0,0,0,2.1-.47,1.53,1.53,0,0,0,.74-1.35,1.51,1.51,0,0,0-.74-1.35,4,4,0,0,0-2.1-.47,3.94,3.94,0,0,0-2.1.47,1.59,1.59,0,0,0,0,2.69Zm-.37-6.52a1.36,1.36,0,0,0,.64,1.19,4,4,0,0,0,3.65,0,1.36,1.36,0,0,0,.64-1.19,1.38,1.38,0,0,0-.65-1.2,3.94,3.94,0,0,0-3.62,0A1.36,1.36,0,0,0,466.43,105.37Z" fill="#003a50"/><path d="M476.06,113.87a1,1,0,0,1-.33-.8,1,1,0,0,1,.33-.81,1.4,1.4,0,0,1,1.73,0,1,1,0,0,1,.33.81,1,1,0,0,1-.33.8,1.4,1.4,0,0,1-1.73,0Z" fill="#003a50"/><path d="M486.16,103.94h-5.82V102.1h8.86v1.84l-4.52,2.65v.07H486a3.87,3.87,0,0,1,2.8,1,3.52,3.52,0,0,1,1.05,2.66,3.33,3.33,0,0,1-1.33,2.83,7,7,0,0,1-7.24,0,3.36,3.36,0,0,1-1.33-2.86V110H482v.32c0,1.36.95,2,2.84,2s2.84-.67,2.84-2-.95-2-2.84-2h-3.26v-1.67l4.57-2.68Z" fill="#003a50"/><path d="M136.23,121.32h-5.82v-1.84h8.86v1.84L134.75,124V124H136a3.87,3.87,0,0,1,2.79,1,3.5,3.5,0,0,1,1.06,2.67,3.32,3.32,0,0,1-1.33,2.82,7,7,0,0,1-7.24,0,3.36,3.36,0,0,1-1.33-2.86v-.32h2.11v.32c0,1.37.95,2,2.84,2s2.84-.67,2.84-2-.95-2-2.84-2h-3.26v-1.67l4.57-2.68Z" fill="#003a50"/><path d="M142,131.25a1,1,0,0,1-.32-.8,1,1,0,0,1,.32-.81,1.41,1.41,0,0,1,1.74,0,1.07,1.07,0,0,1,.32.81,1,1,0,0,1-.32.8,1.41,1.41,0,0,1-1.74,0Z" fill="#003a50"/><path d="M155.59,122.83h-2.21s0-.06,0-.17a1.85,1.85,0,0,0-.21-.44,2.69,2.69,0,0,0-.39-.5,2,2,0,0,0-.71-.41,3,3,0,0,0-1-.16,2.51,2.51,0,0,0-2.15,1,4.39,4.39,0,0,0-.76,2.68h.06a1.49,1.49,0,0,1,.44-.43,3.47,3.47,0,0,1,.6-.37,5.11,5.11,0,0,1,.95-.3,5.49,5.49,0,0,1,1.22-.13,5,5,0,0,1,3.37,1.11,3.51,3.51,0,0,1,1.3,2.8,3.57,3.57,0,0,1-1.36,2.91,5.49,5.49,0,0,1-3.6,1.1,4.81,4.81,0,0,1-3.87-1.54,6.36,6.36,0,0,1-1.32-4.27v-.41a6.85,6.85,0,0,1,1.32-4.31,4.52,4.52,0,0,1,3.8-1.71,5.66,5.66,0,0,1,2.13.38,3.7,3.7,0,0,1,1.43.93A3.46,3.46,0,0,1,155.59,122.83ZM153.08,126a3.65,3.65,0,0,0-4,0,2,2,0,0,0,0,3.15,3.21,3.21,0,0,0,2,.59,3.26,3.26,0,0,0,2-.59,2,2,0,0,0,0-3.15Z" fill="#003a50"/><path d="M88.22,90.38H86.11V87.73h-7V85.89l6.29-7.42h2.8v7.42h1.59v1.84H88.22Zm-2.11-4.49V80.57H86l-4.48,5.27v0Z" fill="#003a50"/><path d="M91.5,90.25a1,1,0,0,1-.33-.81,1,1,0,0,1,.33-.8,1.4,1.4,0,0,1,1.73,0,1,1,0,0,1,.33.8,1,1,0,0,1-.33.81,1.4,1.4,0,0,1-1.73,0Z" fill="#003a50"/><path d="M104.08,89.62a7.73,7.73,0,0,1-7.37,0,3,3,0,0,1-1.37-2.56,2.7,2.7,0,0,1,.26-1.16,2.41,2.41,0,0,1,.65-.86,4.14,4.14,0,0,1,1.4-.77l.26-.07V84.1a3.11,3.11,0,0,1-.77-.29,2.61,2.61,0,0,1-.66-.44,2.2,2.2,0,0,1-.54-.75,2.42,2.42,0,0,1-.23-1A2.82,2.82,0,0,1,97,79.2a5.81,5.81,0,0,1,3.42-.89,5.89,5.89,0,0,1,3.43.89,2.84,2.84,0,0,1,1.25,2.39,2.58,2.58,0,0,1-.22,1,2,2,0,0,1-.56.74,3.42,3.42,0,0,1-1.19.68l-.23,0v.09l.29.07a6.35,6.35,0,0,1,.62.27,4.09,4.09,0,0,1,.77.5,2.89,2.89,0,0,1,.62.83,2.63,2.63,0,0,1,.27,1.19A3,3,0,0,1,104.08,89.62Zm-5.79-1.36a3.75,3.75,0,0,0,2.1.49,3.84,3.84,0,0,0,2.1-.48,1.59,1.59,0,0,0,0-2.69,4.93,4.93,0,0,0-4.2,0,1.58,1.58,0,0,0,0,2.68Zm-.37-6.51a1.37,1.37,0,0,0,.65,1.19,4.07,4.07,0,0,0,3.64,0,1.37,1.37,0,0,0,.65-1.19,1.39,1.39,0,0,0-.66-1.21,4,4,0,0,0-3.62,0A1.39,1.39,0,0,0,97.92,81.75Z" fill="#003a50"/></g></svg>