<svg id="Слой_1" data-name="Слой 1" xmlns="http://www.w3.org/2000/svg" xmlns:xlink="http://www.w3.org/1999/xlink" viewBox="0 0 375.02 470.55"><defs><clipPath id="clip-path"><polygon points="196.02 0 196.02 21.26 189.21 21.26 189.21 50.23 0 50.23 0 469.42 375.02 469.42 375.02 50.23 245.34 50.23 245.34 0 196.02 0" fill="none"/></clipPath></defs><polygon points="0 50.23 0 450.64 6.03 450.64 6.03 54.92 126.74 54.92 126.69 50.23 0 50.23" fill="#fff"/><polygon points="241.22 66.58 191.59 66.58 1.23 65.6 1.23 450.64 364.82 450.64 364.08 62.99 241.22 66.58" fill="#fff"/><polygon points="265.6 50.23 265.01 59.9 364.07 61.13 364.83 449.1 375.02 449.1 375.02 50.23 265.6 50.23" fill="#fff"/><g clip-path="url(#clip-path)"><rect x="-383.27" y="-1775.55" width="1162.95" height="2240.57" fill="none" stroke="#003a50" stroke-miterlimit="10"/><polygon points="-370.68 -671.39 -370.68 452.16 766.71 452.16 766.71 -1762.61 -370.68 -1762.77 -370.68 -742.1 -370.68 -671.39" fill="none" stroke="#003a50" stroke-miterlimit="10"/></g><rect x="214.14" y="426.61" width="87.81" height="4.56" fill="#fff"/><rect x="214.14" y="426.61" width="87.81" height="4.56" fill="none" stroke="#003a50" stroke-miterlimit="10"/><line x1="214.14" y1="428.89" x2="301.95" y2="428.89" fill="none" stroke="#003a50" stroke-miterlimit="10"/><rect x="214.14" y="426.61" width="4.55" height="4.56" fill="#fff"/><rect x="214.14" y="426.61" width="4.55" height="4.56" fill="none" stroke="#003a50" stroke-miterlimit="10"/><rect x="297.39" y="426.61" width="4.55" height="4.56" fill="#fff"/><rect x="297.39" y="426.61" width="4.55" height="4.56" fill="none" stroke="#003a50" stroke-miterlimit="10"/><rect x="256.84" y="426.61" width="4.55" height="4.56" fill="#fff"/><rect x="256.84" y="426.61" width="4.55" height="4.56" fill="none" stroke="#003a50" stroke-miterlimit="10"/><g clip-path="url(#clip-path)"><path d="M261.39,426.61v-2.9c0-20.15,16.12-33.1,36-33.1v36" fill="none" stroke="#003a50" stroke-miterlimit="10"/></g><rect x="29.81" y="426.61" width="89.08" height="4.56" fill="#fff"/><rect x="29.81" y="426.61" width="89.08" height="4.56" fill="none" stroke="#003a50" stroke-miterlimit="10"/><line x1="29.81" y1="428.89" x2="118.88" y2="428.89" fill="none" stroke="#003a50" stroke-miterlimit="10"/><rect x="29.81" y="426.61" width="4.62" height="4.56" fill="#fff"/><rect x="29.81" y="426.61" width="4.62" height="4.56" fill="none" stroke="#003a50" stroke-miterlimit="10"/><rect x="114.26" y="426.61" width="4.62" height="4.56" fill="#fff"/><rect x="114.26" y="426.61" width="4.62" height="4.56" fill="none" stroke="#003a50" stroke-miterlimit="10"/><rect x="73.12" y="426.61" width="4.62" height="4.56" fill="#fff"/><rect x="73.12" y="426.61" width="4.62" height="4.56" fill="none" stroke="#003a50" stroke-miterlimit="10"/><g clip-path="url(#clip-path)"><path d="M77.74,426.61v-2.9c0-20.15,16.35-33.1,36.52-33.1v36" fill="none" stroke="#003a50" stroke-miterlimit="10"/></g><rect x="14.59" y="91.67" width="42.38" height="92.09" fill="none" stroke="#003a50" stroke-miterlimit="10"/><g clip-path="url(#clip-path)"><rect x="19.57" y="95.46" width="32.03" height="84.24" rx="13.7" fill="none" stroke="#003a50" stroke-miterlimit="10"/><path d="M37.87,110a2.21,2.21,0,1,0-2.2,2.2A2.21,2.21,0,0,0,37.87,110Z" fill="none" stroke="#003a50" stroke-miterlimit="10"/><rect x="-42.14" y="91.67" width="42.38" height="92.09" fill="none" stroke="#003a50" stroke-miterlimit="10"/><path d="M99.61,119.74V91.18H76.54v28.56a11.54,11.54,0,1,0,23.07,0Z" fill="none" stroke="#003a50" stroke-miterlimit="10"/></g><rect x="76.54" y="91.18" width="23.08" height="11.08" fill="none" stroke="#003a50" stroke-miterlimit="10"/><g clip-path="url(#clip-path)"><path d="M143.16,76.45a3.4,3.4,0,0,0,3.13-2.1h1.92l5.1,3L151,81.16l-2.66-1.45V91.53H137.25V79.71l-2.66,1.45-2.31-3.77,5.14-3H140A3.45,3.45,0,0,0,143.16,76.45Z" fill="none" stroke="#003a50" stroke-miterlimit="10"/></g><rect x="125.79" y="66.55" width="34.02" height="32.78" fill="none" stroke="#003a50" stroke-miterlimit="10"/><rect x="325.25" y="99.2" width="34.02" height="33.97" fill="none" stroke="#003a50" stroke-miterlimit="10"/><g clip-path="url(#clip-path)"><path d="M346.56,114.68V103.63H338v11.05a3.54,3.54,0,0,0,3.54,3.54H343A3.55,3.55,0,0,0,346.56,114.68Z" fill="none" stroke="#003a50" stroke-miterlimit="10"/></g><polyline points="338.78 128.78 342.26 128.78 345.73 128.78" fill="none" stroke="#003a50" stroke-miterlimit="10"/><line x1="342.26" y1="118.22" x2="342.26" y2="128.78" fill="none" stroke="#003a50" stroke-miterlimit="10"/><rect x="325.34" y="140.31" width="34.02" height="34.02" fill="none" stroke="#003a50" stroke-miterlimit="10"/><g clip-path="url(#clip-path)"><path d="M334.74,169.73a4.64,4.64,0,1,1,4.64-4.64A4.64,4.64,0,0,1,334.74,169.73Z" fill="none" stroke="#003a50" stroke-miterlimit="10"/><path d="M334.74,154.24a4.64,4.64,0,1,1,4.64-4.63A4.63,4.63,0,0,1,334.74,154.24Z" fill="none" stroke="#003a50" stroke-miterlimit="10"/><path d="M349.83,169.73a4.64,4.64,0,1,1,4.64-4.64A4.64,4.64,0,0,1,349.83,169.73Z" fill="none" stroke="#003a50" stroke-miterlimit="10"/><path d="M349.83,154.24a4.64,4.64,0,1,1,4.64-4.63A4.63,4.63,0,0,1,349.83,154.24Z" fill="none" stroke="#003a50" stroke-miterlimit="10"/></g><rect x="183.63" y="302.87" width="17.01" height="102.05" fill="none" stroke="#003a50" stroke-miterlimit="10"/><polygon points="192.68 396.89 189.15 354 192.68 310.89 195.13 310.89 195.13 396.89 192.68 396.89" fill="none" stroke="#003a50" stroke-miterlimit="10"/><rect x="160.98" y="285.88" width="17.01" height="102.05" fill="none" stroke="#003a50" stroke-miterlimit="10"/><polygon points="168.94 379.9 172.47 337.01 168.94 293.9 166.48 293.9 166.48 379.9 168.94 379.9" fill="none" stroke="#003a50" stroke-miterlimit="10"/><rect x="325.34" y="99.3" width="33.59" height="122.25" fill="none" stroke="#003a50" stroke-miterlimit="10"/><rect x="278.28" y="66.58" width="80.66" height="32.72" fill="none" stroke="#003a50" stroke-miterlimit="10"/><g clip-path="url(#clip-path)"><rect x="-52.57" y="280.07" width="52.33" height="113.67" fill="none" stroke="#003a50" stroke-miterlimit="10"/></g><rect x="160.04" y="66.58" width="21.14" height="32.72" fill="none" stroke="#003a50" stroke-miterlimit="10"/><rect x="125.55" y="156.74" width="55.62" height="26.49" fill="none" stroke="#003a50" stroke-miterlimit="10"/><polyline points="311.71 70.1 304.92 70.1 298.13 70.1" fill="none" stroke="#003a50" stroke-miterlimit="10"/><line x1="304.9" y1="83.72" x2="304.9" y2="70.1" fill="none" stroke="#003a50" stroke-miterlimit="10"/><g clip-path="url(#clip-path)"><path d="M320,94.36V79.16a3.23,3.23,0,0,0-3.23-3.23H293.15a3.24,3.24,0,0,0-3.24,3.23v15.2a3.24,3.24,0,0,0,3.24,3.24h23.59A3.23,3.23,0,0,0,320,94.36Z" fill="none" stroke="#003a50" stroke-miterlimit="10"/><path d="M304.9,85.42A2.43,2.43,0,1,0,302.48,83,2.42,2.42,0,0,0,304.9,85.42Z" fill="none" stroke="#003a50" stroke-miterlimit="10"/><polygon points="407.89 169.44 407.89 90.11 463.67 90.11 463.67 55.83 370.73 55.83 370.73 90.11 373.61 90.11 373.61 169.44 370.73 169.44 370.73 203.72 497.82 203.72 497.82 169.44 407.89 169.44" fill="none" stroke="#003a50" stroke-miterlimit="10"/><path d="M229.87,269.75a1.25,1.25,0,0,1,.94,1.51,13.79,13.79,0,0,0,26.88,6.16,1.26,1.26,0,0,1,2.45.57,16.3,16.3,0,0,1-31.78-7.29A1.27,1.27,0,0,1,229.87,269.75Z" fill="none" stroke="#003a50" stroke-miterlimit="10"/><path d="M285,279.47a1.26,1.26,0,0,1,1.75-.33,13.79,13.79,0,0,0,15.52-22.79,1.26,1.26,0,0,1,1.42-2.08,16.3,16.3,0,0,1-18.36,27A1.26,1.26,0,0,1,285,279.47Z" fill="none" stroke="#003a50" stroke-miterlimit="10"/><path d="M287.54,232.07a1.26,1.26,0,0,1-1.33-1.18,13.78,13.78,0,1,0-27.52,1.62,1.26,1.26,0,1,1-2.51.16,16.3,16.3,0,0,1,32.54-1.94A1.25,1.25,0,0,1,287.54,232.07Z" fill="none" stroke="#003a50" stroke-miterlimit="10"/><path d="M244.07,286.37a12.69,12.69,0,0,1-12-15.48l2-8.88a3.53,3.53,0,0,1,4.24-2.68l13.44,3.08a23.73,23.73,0,0,0,6,9.44l-1,4.2C255.47,282,250.19,286.57,244.07,286.37Z" fill="none" stroke="#003a50" stroke-miterlimit="10"/><path d="M286.87,277.85l-2.32-1.6a23.81,23.81,0,0,0,13.64-21.32l2.52,1.72c5,3.44,7.4,10,5,15.64A12.7,12.7,0,0,1,286.87,277.85Z" fill="none" stroke="#003a50" stroke-miterlimit="10"/><path d="M260,235.57l-.12-2c-.36-6.12,3.4-12,9.32-13.48a12.66,12.66,0,0,1,15.88,11.48l.12,1.84a23.93,23.93,0,0,0-16.64-1.92A23.5,23.5,0,0,0,260,235.57Z" fill="none" stroke="#003a50" stroke-miterlimit="10"/><path d="M257.79,271.85a23.73,23.73,0,0,1-6-9.44,16.51,16.51,0,0,1-.6-2A23.85,23.85,0,0,1,260,235.57a23.5,23.5,0,0,1,8.56-4,23.87,23.87,0,0,1,28.92,17.4,22.12,22.12,0,0,1,.68,6,23.81,23.81,0,0,1-13.64,21.32,22.85,22.85,0,0,1-4.48,1.6A23.8,23.8,0,0,1,257.79,271.85Z" fill="none" stroke="#003a50" stroke-miterlimit="10"/><path d="M54.94,218.64a1,1,0,0,1-.54.9,1,1,0,0,1-1.3-.45,29.69,29.69,0,0,1,0-25.26,1,1,0,0,1,1.3-.46,1,1,0,0,1,.44,1.34,27.64,27.64,0,0,0,0,23.49A1,1,0,0,1,54.94,218.64Z" fill="none" stroke="#003a50" stroke-miterlimit="10"/><path d="M49.57,218.64a1,1,0,0,1-.54.9,1,1,0,0,1-1.3-.45,29.69,29.69,0,0,1,0-25.26,1,1,0,0,1,1.29-.46,1,1,0,0,1,.45,1.34,27.64,27.64,0,0,0,0,23.49A1,1,0,0,1,49.57,218.64Z" fill="none" stroke="#003a50" stroke-miterlimit="10"/><path d="M44.2,218.64a1,1,0,0,1-.54.9,1,1,0,0,1-1.3-.45,29.69,29.69,0,0,1,0-25.26,1,1,0,0,1,1.29-.46,1,1,0,0,1,.45,1.34,27.64,27.64,0,0,0,0,23.49A1.13,1.13,0,0,1,44.2,218.64Z" fill="none" stroke="#003a50" stroke-miterlimit="10"/><path d="M38.82,218.64a1,1,0,0,1-.54.9.94.94,0,0,1-1.29-.45,29.69,29.69,0,0,1,0-25.26,1,1,0,0,1,1.29-.46,1,1,0,0,1,.44,1.34,27.64,27.64,0,0,0,0,23.49A1,1,0,0,1,38.82,218.64Z" fill="none" stroke="#003a50" stroke-miterlimit="10"/><path d="M33.45,218.64a1,1,0,0,1-.54.9.94.94,0,0,1-1.29-.45,29.69,29.69,0,0,1,0-25.26,1,1,0,0,1,1.29-.46,1,1,0,0,1,.44,1.34,27.64,27.64,0,0,0,0,23.49A1,1,0,0,1,33.45,218.64Z" fill="none" stroke="#003a50" stroke-miterlimit="10"/><path d="M28.08,218.64a1,1,0,0,1-.54.9.94.94,0,0,1-1.29-.45,29.69,29.69,0,0,1,0-25.26,1,1,0,0,1,1.29-.46,1,1,0,0,1,.44,1.34,27.64,27.64,0,0,0,0,23.49A1,1,0,0,1,28.08,218.64Z" fill="none" stroke="#003a50" stroke-miterlimit="10"/><path d="M60.31,218.64a1,1,0,0,1-.54.9,1,1,0,0,1-1.3-.45,29.69,29.69,0,0,1,0-25.26,1,1,0,0,1,1.3-.46,1,1,0,0,1,.44,1.34,27.64,27.64,0,0,0,0,23.49A1,1,0,0,1,60.31,218.64Z" fill="none" stroke="#003a50" stroke-miterlimit="10"/><path d="M65.68,218.64a1,1,0,0,1-.54.9.94.94,0,0,1-1.29-.45,29.69,29.69,0,0,1,0-25.26,1,1,0,0,1,1.29-.46,1,1,0,0,1,.44,1.34,27.64,27.64,0,0,0,0,23.49A1,1,0,0,1,65.68,218.64Z" fill="none" stroke="#003a50" stroke-miterlimit="10"/></g><line x1="177.72" y1="206.45" x2="13.85" y2="206.45" fill="none" stroke="#003a50" stroke-miterlimit="10"/><rect x="14.86" y="189.17" width="162.86" height="34.02" fill="none" stroke="#003a50" stroke-miterlimit="10"/><g clip-path="url(#clip-path)"><rect x="374.43" y="16.11" width="118.02" height="33.34" fill="none" stroke="#003a50" stroke-miterlimit="10"/><line x1="492.45" y1="226.3" x2="374.43" y2="226.3" fill="none" stroke="#003a50" stroke-miterlimit="10"/><rect x="374.43" y="209.36" width="118.02" height="33.34" fill="none" stroke="#003a50" stroke-miterlimit="10"/><path d="M47.6,45.44a1,1,0,0,1-.54.9,1,1,0,0,1-1.3-.46,29.69,29.69,0,0,1,0-25.26,1,1,0,0,1,1.3-.45,1,1,0,0,1,.44,1.34A27.64,27.64,0,0,0,47.5,45,1,1,0,0,1,47.6,45.44Z" fill="none" stroke="#003a50" stroke-miterlimit="10"/><path d="M42.23,45.44a1,1,0,0,1-.54.9,1,1,0,0,1-1.3-.46,29.69,29.69,0,0,1,0-25.26,1,1,0,0,1,1.3-.45,1,1,0,0,1,.44,1.34,27.64,27.64,0,0,0,0,23.49A1,1,0,0,1,42.23,45.44Z" fill="none" stroke="#003a50" stroke-miterlimit="10"/><path d="M36.86,45.44a1,1,0,0,1-.54.9,1,1,0,0,1-1.3-.46,29.69,29.69,0,0,1,0-25.26.94.94,0,0,1,1.29-.45,1,1,0,0,1,.45,1.34,27.64,27.64,0,0,0,0,23.49A1,1,0,0,1,36.86,45.44Z" fill="none" stroke="#003a50" stroke-miterlimit="10"/><path d="M31.49,45.44a1,1,0,0,1-.54.9,1,1,0,0,1-1.3-.46,29.69,29.69,0,0,1,0-25.26.94.94,0,0,1,1.29-.45,1,1,0,0,1,.45,1.34,27.64,27.64,0,0,0,0,23.49A1.13,1.13,0,0,1,31.49,45.44Z" fill="none" stroke="#003a50" stroke-miterlimit="10"/><path d="M26.11,45.44a1,1,0,0,1-.54.9,1,1,0,0,1-1.29-.46,29.69,29.69,0,0,1,0-25.26.94.94,0,0,1,1.29-.45A1,1,0,0,1,26,21.51,27.64,27.64,0,0,0,26,45,1,1,0,0,1,26.11,45.44Z" fill="none" stroke="#003a50" stroke-miterlimit="10"/><path d="M20.74,45.44a1,1,0,0,1-.54.9,1,1,0,0,1-1.29-.46,29.69,29.69,0,0,1,0-25.26.94.94,0,0,1,1.29-.45,1,1,0,0,1,.44,1.34,27.64,27.64,0,0,0,0,23.49A1,1,0,0,1,20.74,45.44Z" fill="none" stroke="#003a50" stroke-miterlimit="10"/><path d="M53,45.44a1,1,0,0,1-.54.9,1,1,0,0,1-1.29-.46,29.69,29.69,0,0,1,0-25.26.94.94,0,0,1,1.29-.45,1,1,0,0,1,.44,1.34,27.64,27.64,0,0,0,0,23.49A1,1,0,0,1,53,45.44Z" fill="none" stroke="#003a50" stroke-miterlimit="10"/><path d="M58.34,45.44a1,1,0,0,1-.54.9,1,1,0,0,1-1.29-.46,29.69,29.69,0,0,1,0-25.26.94.94,0,0,1,1.29-.45,1,1,0,0,1,.44,1.34,27.64,27.64,0,0,0,0,23.49A1,1,0,0,1,58.34,45.44Z" fill="none" stroke="#003a50" stroke-miterlimit="10"/><rect x="7.25" y="15.68" width="119.14" height="34.58" fill="none" stroke="#003a50" stroke-miterlimit="10"/></g><rect x="57.29" y="157.88" width="61.57" height="25.39" fill="none" stroke="#003a50" stroke-miterlimit="10"/><g clip-path="url(#clip-path)"><rect x="75.39" y="159.94" width="24.4" height="25.04" rx="2.83" fill="none" stroke="#003a50" stroke-miterlimit="10"/><path d="M87.6,170.55a1.91,1.91,0,1,1-1.92,1.91A1.91,1.91,0,0,1,87.6,170.55Z" fill="none" stroke="#003a50" stroke-miterlimit="10"/></g><rect x="325.29" y="187.96" width="33.52" height="33.52" fill="none" stroke="#003a50" stroke-miterlimit="10"/><line x1="342.05" y1="214.57" x2="342.05" y2="194.89" fill="none" stroke="#003a50" stroke-miterlimit="10"/><line x1="351.88" y1="204.73" x2="332.21" y2="204.73" fill="none" stroke="#003a50" stroke-miterlimit="10"/><line x1="349" y1="211.68" x2="335.1" y2="197.78" fill="none" stroke="#003a50" stroke-miterlimit="10"/><line x1="349" y1="197.77" x2="335.1" y2="211.68" fill="none" stroke="#003a50" stroke-miterlimit="10"/><g clip-path="url(#clip-path)"><rect x="-88.94" y="189.17" width="90.71" height="34.02" fill="none" stroke="#003a50" stroke-miterlimit="10"/><line x1="1.77" y1="206.18" x2="-88.94" y2="206.18" fill="none" stroke="#003a50" stroke-miterlimit="10"/><path d="M312.59,353.94h41v45.77H310.38V356.15A2.2,2.2,0,0,1,312.59,353.94Z" fill="none" stroke="#003a50" stroke-miterlimit="10"/><path d="M312.36,308.07h41.26v45.77H312.36a2,2,0,0,1-2-2v-41.8A2,2,0,0,1,312.36,308.07Z" fill="none" stroke="#003a50" stroke-miterlimit="10"/><path d="M310.38,399.71a3.11,3.11,0,0,0-2.83,3.33v4.22a3.11,3.11,0,0,0,2.83,3.33h48.19V297.2H310.8a3.11,3.11,0,0,0-2.83,3.33v4.22a3.11,3.11,0,0,0,2.83,3.33h42.82v91.63Z" fill="none" stroke="#003a50" stroke-miterlimit="10"/></g><rect x="344.37" y="308.07" width="9.25" height="91.64" fill="none" stroke="#003a50" stroke-miterlimit="10"/><g clip-path="url(#clip-path)"><rect x="375.39" y="269.05" width="52.33" height="113.67" fill="none" stroke="#003a50" stroke-miterlimit="10"/></g><rect x="16.11" y="250.82" width="22.68" height="22.68" fill="none" stroke="#003a50" stroke-miterlimit="10"/><g clip-path="url(#clip-path)"><path d="M33.94,268.67a9.2,9.2,0,1,1,0-13A9.19,9.19,0,0,1,33.94,268.67Z" fill="none" stroke="#003a50" stroke-miterlimit="10"/><path d="M34.57,268c-1.7-.17-3.42.48-5.07-1.17-2.43-2.44.15-5-2.29-7.46s-5,.14-7.46-2.3" fill="none" stroke="#003a50" stroke-miterlimit="10"/></g><rect x="16.1" y="280.98" width="113.38" height="102.05" fill="none" stroke="#003a50" stroke-miterlimit="10"/><g clip-path="url(#clip-path)"><path d="M119.75,291v82a2.08,2.08,0,0,1-2.08,2.09H50V288.89h67.64A2.08,2.08,0,0,1,119.75,291Z" fill="none" stroke="#003a50" stroke-miterlimit="10"/><rect x="23.54" y="332.86" width="22.88" height="42.5" rx="1.98" fill="none" stroke="#003a50" stroke-miterlimit="10"/><rect x="23.54" y="288.64" width="22.88" height="42.5" rx="1.98" fill="none" stroke="#003a50" stroke-miterlimit="10"/></g><line x1="63.88" y1="288.64" x2="63.88" y2="375.36" fill="none" stroke="#003a50" stroke-miterlimit="10"/><g clip-path="url(#clip-path)"><rect x="-26.84" y="15.96" width="34.02" height="34.02" fill="none" stroke="#003a50" stroke-miterlimit="10"/><path d="M181.61,280.15h-3.45a43.48,43.48,0,0,1-43.48-43.48h46.93" fill="none" stroke="#003a50" stroke-miterlimit="10" stroke-width="1.6"/><path d="M124.12,114.86h3.13a39.34,39.34,0,0,1,39.34,39.34H124.12" fill="none" stroke="#003a50" stroke-miterlimit="10" stroke-width="1.6"/><path d="M190.94,56.7V52.64A51.13,51.13,0,0,1,242.07,1.51V56.7" fill="none" stroke="#003a50" stroke-miterlimit="10" stroke-width="1.6"/><path d="M137.35-36.52h4.06a51.13,51.13,0,0,1,51.13,51.13H137.35" fill="none" stroke="#003a50" stroke-miterlimit="10" stroke-width="1.6"/><polygon points="118.72 418.06 214.46 418.06 214.46 467.4 118.72 455.73 118.72 418.06" fill="#003a50" fill-rule="evenodd"/><rect x="252.52" y="-2.27" width="16.32" height="66" fill="#003a50"/><rect x="241.21" y="50.26" width="131.96" height="16.32" fill="#003a50"/><rect x="-0.24" y="50.26" width="191.83" height="16.32" fill="#003a50"/><rect x="-0.24" y="58.42" width="16.32" height="372.48" fill="#003a50"/><rect x="126.26" y="13.73" width="16.32" height="40.5" fill="#003a50"/><rect x="358.93" y="50.26" width="16.32" height="380.64" fill="#003a50"/><rect x="-1.44" y="417.98" width="27.03" height="46.75" fill="#003a50"/><rect x="2.56" y="417.98" width="27.03" height="23.38" fill="#003a50"/><rect x="124.09" y="411.82" width="82.83" height="27.12" fill="#003a50"/><rect x="301.67" y="417.98" width="95.33" height="34.25" fill="#003a50"/><rect x="369.84" y="421.98" width="27.17" height="41.92" fill="#003a50"/><rect x="-91.97" y="184.12" width="94.48" height="6.38" fill="#003a50"/><rect x="-95.6" y="50.23" width="99.68" height="6.38" fill="#003a50"/><rect x="-95.6" y="85.86" width="99.68" height="6.38" fill="#003a50"/><rect x="177.99" y="279.36" width="6.38" height="136.12" fill="#003a50"/><rect x="177.99" y="183.23" width="6.38" height="54.19" fill="#003a50"/><rect x="368.87" y="24.47" width="6.38" height="33.94" fill="#003a50"/><rect x="265.01" y="24.47" width="108.92" height="6.38" fill="#003a50"/><rect x="316.28" y="26.73" width="6.38" height="33.17" fill="#003a50"/><rect x="368.87" y="49.46" width="128.72" height="6.38" fill="#003a50"/><rect x="119.18" y="65.4" width="6.38" height="50.21" fill="#003a50"/><rect x="119.18" y="153.36" width="6.38" height="32.88" fill="#003a50"/><rect x="181.17" y="156.39" width="3.19" height="29.85" fill="#003a50"/><rect x="181.17" y="66.55" width="3.19" height="36.33" fill="#003a50"/><rect x="14.59" y="85.29" width="107.78" height="6.38" fill="#003a50"/><rect x="83.03" y="62.68" width="6.38" height="26.37" fill="#003a50"/><rect x="251.93" y="63.73" width="6.38" height="25.25" fill="#003a50"/><rect x="271.9" y="64.48" width="6.38" height="24.5" fill="#003a50"/><rect x="253.78" y="82.6" width="24.5" height="6.38" fill="#003a50"/><rect x="14.59" y="183.42" width="166.58" height="6.38" fill="#003a50"/><line x1="183.63" y1="156.74" x2="186.47" y2="156.74" fill="none" stroke="#003a50" stroke-miterlimit="10"/><line x1="192.21" y1="156.74" x2="246.82" y2="156.74" fill="none" stroke="#003a50" stroke-miterlimit="10" stroke-dasharray="5.75 5.75"/><polyline points="249.69 156.74 252.53 156.74 252.53 153.9" fill="none" stroke="#003a50" stroke-miterlimit="10"/><line x1="252.52" y1="148.06" x2="252.52" y2="92.52" fill="none" stroke="#003a50" stroke-miterlimit="10" stroke-dasharray="5.85 5.85"/><line x1="252.52" y1="89.6" x2="252.52" y2="86.76" fill="none" stroke="#003a50" stroke-miterlimit="10"/><line x1="9.4" y1="16.25" x2="9.4" y2="-54.97" fill="none" stroke="#003a50" stroke-miterlimit="10" stroke-dasharray="5.67 5.67"/><rect x="-91.97" y="184.12" width="94.48" height="6.38" fill="#003a50"/><rect x="-95.6" y="50.23" width="99.68" height="6.38" fill="#003a50"/><rect x="-95.6" y="85.86" width="99.68" height="6.38" fill="#003a50"/><rect x="177.99" y="279.36" width="6.38" height="136.12" fill="#003a50"/><rect x="177.99" y="183.23" width="6.38" height="54.19" fill="#003a50"/><rect x="265.01" y="24.47" width="108.92" height="6.38" fill="#003a50"/><rect x="316.28" y="26.73" width="6.38" height="33.17" fill="#003a50"/><rect x="119.18" y="65.4" width="6.38" height="50.21" fill="#003a50"/><rect x="119.18" y="153.36" width="6.38" height="32.88" fill="#003a50"/><rect x="181.17" y="156.39" width="3.19" height="29.85" fill="#003a50"/><rect x="181.17" y="66.55" width="3.19" height="36.33" fill="#003a50"/><rect x="14.59" y="85.29" width="107.78" height="6.38" fill="#003a50"/><rect x="83.03" y="62.68" width="6.38" height="26.37" fill="#003a50"/><rect x="251.93" y="63.73" width="6.38" height="25.25" fill="#003a50"/><rect x="271.9" y="64.48" width="6.38" height="24.5" fill="#003a50"/><rect x="253.78" y="82.6" width="24.5" height="6.38" fill="#003a50"/><rect x="14.59" y="183.42" width="166.58" height="6.38" fill="#003a50"/><line x1="183.63" y1="156.74" x2="186.47" y2="156.74" fill="none" stroke="#003a50" stroke-miterlimit="10"/><line x1="192.21" y1="156.74" x2="246.82" y2="156.74" fill="none" stroke="#003a50" stroke-miterlimit="10" stroke-dasharray="5.75 5.75"/><polyline points="249.69 156.74 252.53 156.74 252.53 153.9" fill="none" stroke="#003a50" stroke-miterlimit="10"/><line x1="252.52" y1="148.06" x2="252.52" y2="92.52" fill="none" stroke="#003a50" stroke-miterlimit="10" stroke-dasharray="5.85 5.85"/><line x1="252.52" y1="89.6" x2="252.52" y2="86.76" fill="none" stroke="#003a50" stroke-miterlimit="10"/><line x1="9.4" y1="16.25" x2="9.4" y2="-54.97" fill="none" stroke="#003a50" stroke-miterlimit="10" stroke-dasharray="5.67 5.67"/></g><g clip-path="url(#clip-path)"><path d="M227.23,442a5.2,5.2,0,0,1,0-6.24,4,4,0,0,1,5.74,0,5.2,5.2,0,0,1,0,6.24,4,4,0,0,1-5.74,0Zm4.6-1a4,4,0,0,0,0-4.28,2.2,2.2,0,0,0-3.46,0,4,4,0,0,0,0,4.28,2.2,2.2,0,0,0,3.46,0Z" fill="#003a50"/><path d="M235.56,443a.69.69,0,0,1-.23-.57.71.71,0,0,1,.23-.57.85.85,0,0,1,.61-.21.87.87,0,0,1,.61.21.75.75,0,0,1,.23.57.72.72,0,0,1-.23.57.87.87,0,0,1-.61.21A.85.85,0,0,1,235.56,443Z" fill="#003a50"/><path d="M245.17,437h-1.56a.37.37,0,0,0,0-.13c0-.07-.08-.18-.15-.31a2.33,2.33,0,0,0-.27-.35,1.37,1.37,0,0,0-.51-.29,2.25,2.25,0,0,0-.71-.11,1.79,1.79,0,0,0-1.52.72,3.19,3.19,0,0,0-.53,1.9h0a1.11,1.11,0,0,1,.31-.31,2.73,2.73,0,0,1,.43-.26,3,3,0,0,1,.67-.21,4,4,0,0,1,.85-.09,3.55,3.55,0,0,1,2.38.78,2.46,2.46,0,0,1,.92,2,2.52,2.52,0,0,1-1,2.05,3.87,3.87,0,0,1-2.54.78,3.38,3.38,0,0,1-2.73-1.09,4.5,4.5,0,0,1-.93-3v-.29a4.83,4.83,0,0,1,.93-3,3.19,3.19,0,0,1,2.68-1.21,3.93,3.93,0,0,1,1.5.27,2.73,2.73,0,0,1,1,.66A2.44,2.44,0,0,1,245.17,437Zm-1.77,2.22a2.26,2.26,0,0,0-1.4-.41,2.21,2.21,0,0,0-1.39.41,1.3,1.3,0,0,0-.55,1.11,1.31,1.31,0,0,0,.54,1.11,2.6,2.6,0,0,0,2.8,0,1.4,1.4,0,0,0,0-2.22Z" fill="#003a50"/><path d="M46,442a5.2,5.2,0,0,1,0-6.24,4,4,0,0,1,5.74,0,5.2,5.2,0,0,1,0,6.24A4,4,0,0,1,46,442Zm4.61-1a4.06,4.06,0,0,0,0-4.28,2.05,2.05,0,0,0-1.74-.84,2,2,0,0,0-1.73.84,4,4,0,0,0,0,4.28,2,2,0,0,0,1.73.84A2.05,2.05,0,0,0,50.59,441Z" fill="#003a50"/><path d="M54.31,443a.72.72,0,0,1-.23-.57.75.75,0,0,1,.23-.57.87.87,0,0,1,.61-.21.85.85,0,0,1,.61.21.75.75,0,0,1,.23.57.72.72,0,0,1-.23.57.85.85,0,0,1-.61.21A.87.87,0,0,1,54.31,443Z" fill="#003a50"/><path d="M63.92,437H62.36s0-.05,0-.13a1.38,1.38,0,0,0-.15-.31,2.33,2.33,0,0,0-.27-.35,1.4,1.4,0,0,0-.5-.29,2.36,2.36,0,0,0-.72-.11,1.76,1.76,0,0,0-1.51.72,3.12,3.12,0,0,0-.54,1.9h0a1.27,1.27,0,0,1,.31-.31,2.73,2.73,0,0,1,.43-.26,3,3,0,0,1,.67-.21,4,4,0,0,1,.86-.09,3.57,3.57,0,0,1,2.38.78,2.49,2.49,0,0,1,.92,2,2.53,2.53,0,0,1-1,2.05,3.87,3.87,0,0,1-2.54.78A3.38,3.38,0,0,1,58,442.1a4.5,4.5,0,0,1-.93-3v-.29a4.83,4.83,0,0,1,.93-3,3.2,3.2,0,0,1,2.68-1.21,3.86,3.86,0,0,1,1.5.27,2.73,2.73,0,0,1,1,.66A2.44,2.44,0,0,1,63.92,437Zm-1.77,2.22a2.58,2.58,0,0,0-2.79,0,1.3,1.3,0,0,0-.55,1.11,1.31,1.31,0,0,0,.54,1.11,2.6,2.6,0,0,0,2.8,0,1.3,1.3,0,0,0,.55-1.11A1.32,1.32,0,0,0,62.15,439.26Z" fill="#003a50"/><path d="M80.81,139.68H75v-1.84h8.86v1.84l-4.53,2.65v.07H80.6a3.89,3.89,0,0,1,2.79,1,3.5,3.5,0,0,1,1.06,2.67,3.32,3.32,0,0,1-1.33,2.82,7,7,0,0,1-7.24,0A3.36,3.36,0,0,1,74.55,146v-.32h2.11V146c0,1.36,1,2,2.84,2s2.84-.67,2.84-2-1-2-2.84-2H76.24v-1.67l4.57-2.68Z" fill="#003a50"/><path d="M86.55,149.61a1,1,0,0,1-.32-.8,1,1,0,0,1,.32-.81,1.41,1.41,0,0,1,1.74,0,1.07,1.07,0,0,1,.32.81,1,1,0,0,1-.32.8,1.41,1.41,0,0,1-1.74,0Z" fill="#003a50"/><path d="M96.66,139.68H90.83v-1.84H99.7v1.84l-4.53,2.65v.07h1.28a3.9,3.9,0,0,1,2.79,1,3.52,3.52,0,0,1,1.05,2.67A3.32,3.32,0,0,1,99,148.9a7,7,0,0,1-7.24,0A3.39,3.39,0,0,1,90.39,146v-.32H92.5V146c0,1.36,1,2,2.84,2s2.84-.67,2.84-2-.94-2-2.84-2H92.08v-1.67l4.58-2.68Z" fill="#003a50"/><path d="M157.16,116.21h-9.94v-1.56a2.8,2.8,0,0,1,.59-1.75,3.87,3.87,0,0,1,1.44-1.19c.5-.26,1.12-.55,1.87-.87s1.32-.55,1.88-.77a4.22,4.22,0,0,0,1.44-.91,1.82,1.82,0,0,0,.57-1.31c0-1.25-.88-1.88-2.66-1.88s-2.68.72-2.68,2.16v.4h-2.11v-.4a3.63,3.63,0,0,1,1.27-3,5.4,5.4,0,0,1,3.51-1,5.7,5.7,0,0,1,3.51,1,3.29,3.29,0,0,1,1.27,2.75,3.17,3.17,0,0,1-.55,1.84,4.28,4.28,0,0,1-1.41,1.3,16.56,16.56,0,0,1-1.83.93q-.95.42-1.83.75a5.26,5.26,0,0,0-1.4.75,1.22,1.22,0,0,0-.57,1h7.63Z" fill="#003a50"/><path d="M159.26,116.07a1,1,0,0,1-.33-.8,1,1,0,0,1,.33-.81,1.4,1.4,0,0,1,1.73,0,1,1,0,0,1,.33.81,1,1,0,0,1-.33.8,1.4,1.4,0,0,1-1.73,0Z" fill="#003a50"/><path d="M173,116.21H163.1v-1.56a2.85,2.85,0,0,1,.58-1.75,4,4,0,0,1,1.45-1.19c.5-.26,1.12-.55,1.87-.87s1.32-.55,1.88-.77a4.32,4.32,0,0,0,1.44-.91,1.82,1.82,0,0,0,.57-1.31c0-1.25-.89-1.88-2.66-1.88s-2.68.72-2.68,2.16v.4h-2.11v-.4a3.6,3.6,0,0,1,1.27-3,5.4,5.4,0,0,1,3.51-1,5.72,5.72,0,0,1,3.51,1,3.29,3.29,0,0,1,1.27,2.75,3.17,3.17,0,0,1-.55,1.84A4.28,4.28,0,0,1,171,111a17.49,17.49,0,0,1-1.83.93q-.94.42-1.83.75a5.26,5.26,0,0,0-1.4.75,1.22,1.22,0,0,0-.57,1H173Z" fill="#003a50"/><path d="M308.36,1.51H306l5.41-10H304.5V-10.4h9.28v1.87Z" fill="#003a50"/><path d="M315.21,1.37a1,1,0,0,1-.33-.8,1,1,0,0,1,.33-.81,1.21,1.21,0,0,1,.87-.3,1.2,1.2,0,0,1,.86.3,1,1,0,0,1,.33.81,1,1,0,0,1-.33.8,1.2,1.2,0,0,1-.86.3A1.21,1.21,0,0,1,315.21,1.37Z" fill="#003a50"/><path d="M320.61,0a6.5,6.5,0,0,1-1.47-4.42,6.53,6.53,0,0,1,1.47-4.42,5.14,5.14,0,0,1,4.07-1.7,5.09,5.09,0,0,1,4.06,1.7,6.49,6.49,0,0,1,1.48,4.42A6.45,6.45,0,0,1,328.74,0a5.09,5.09,0,0,1-4.06,1.7A5.14,5.14,0,0,1,320.61,0Zm6.53-1.39a5,5,0,0,0,.87-3,5,5,0,0,0-.87-3,2.88,2.88,0,0,0-2.46-1.18,2.86,2.86,0,0,0-2.45,1.18,4.94,4.94,0,0,0-.89,3,4.89,4.89,0,0,0,.89,3,2.87,2.87,0,0,0,2.45,1.19A2.9,2.9,0,0,0,327.14-1.42Z" fill="#003a50"/><path d="M37.73-8.61H31.91v-1.84h8.86v1.84L36.24-6v.06h1.28a3.87,3.87,0,0,1,2.79,1,3.49,3.49,0,0,1,1.06,2.66A3.35,3.35,0,0,1,40,.61a5.89,5.89,0,0,1-3.62,1,5.85,5.85,0,0,1-3.62-1,3.36,3.36,0,0,1-1.33-2.86v-.32h2.11v.32c0,1.36.94,2,2.84,2s2.84-.66,2.84-2-.95-2-2.84-2H33.15V-5.86l4.58-2.68Z" fill="#003a50"/><path d="M43.47,1.32a1,1,0,0,1-.33-.8,1,1,0,0,1,.33-.81,1.23,1.23,0,0,1,.87-.3,1.2,1.2,0,0,1,.86.3,1,1,0,0,1,.33.81,1,1,0,0,1-.33.8,1.2,1.2,0,0,1-.86.3A1.23,1.23,0,0,1,43.47,1.32Z" fill="#003a50"/><path d="M56.05.69a6.43,6.43,0,0,1-3.68.93A6.43,6.43,0,0,1,48.68.68a3,3,0,0,1-1.37-2.56A2.7,2.7,0,0,1,47.57-3a2.29,2.29,0,0,1,.66-.85,3.91,3.91,0,0,1,1.39-.78l.26-.06v-.09a3.32,3.32,0,0,1-.76-.29,2.78,2.78,0,0,1-.67-.44,2.35,2.35,0,0,1-.54-.76,2.38,2.38,0,0,1-.22-1,2.78,2.78,0,0,1,1.25-2.38,5.74,5.74,0,0,1,3.42-.9,5.79,5.79,0,0,1,3.43.9A2.83,2.83,0,0,1,57-7.34a2.58,2.58,0,0,1-.22,1,2,2,0,0,1-.55.75,3.72,3.72,0,0,1-1.2.68l-.22,0v.09l.28.06a5.42,5.42,0,0,1,.62.27,3.43,3.43,0,0,1,.77.51,2.7,2.7,0,0,1,.62.82,2.63,2.63,0,0,1,.27,1.19A3,3,0,0,1,56.05.69ZM50.26-.66a3.84,3.84,0,0,0,2.1.48,3.84,3.84,0,0,0,2.1-.48A1.48,1.48,0,0,0,55.2-2a1.49,1.49,0,0,0-.74-1.35,4.93,4.93,0,0,0-4.2,0A1.51,1.51,0,0,0,49.52-2,1.51,1.51,0,0,0,50.26-.66ZM49.9-7.18A1.36,1.36,0,0,0,50.54-6a3.24,3.24,0,0,0,1.82.44A3.25,3.25,0,0,0,54.19-6a1.38,1.38,0,0,0,.64-1.19,1.36,1.36,0,0,0-.66-1.2,3.23,3.23,0,0,0-1.81-.44,3.25,3.25,0,0,0-1.81.44A1.35,1.35,0,0,0,49.9-7.18Z" fill="#003a50"/><path d="M82.34,256.8l-2.48,1.95v-2.24l2.73-2.27h1.86v11.91H82.34Z" fill="#003a50"/><path d="M96.84,266.15H86.91v-1.56a2.79,2.79,0,0,1,.58-1.75,4.08,4.08,0,0,1,1.44-1.19c.5-.26,1.13-.54,1.87-.87l1.88-.77a4.07,4.07,0,0,0,1.44-.91,1.77,1.77,0,0,0,.58-1.3q0-1.89-2.67-1.89t-2.67,2.16v.41H87.25v-.41a3.64,3.64,0,0,1,1.26-3,5.44,5.44,0,0,1,3.51-1,5.66,5.66,0,0,1,3.52,1,3.3,3.3,0,0,1,1.27,2.75,3.17,3.17,0,0,1-.56,1.83,4.16,4.16,0,0,1-1.4,1.3,16.7,16.7,0,0,1-1.84.93c-.62.28-1.23.53-1.82.75a5.18,5.18,0,0,0-1.41.75,1.23,1.23,0,0,0-.56.95h7.62Z" fill="#003a50"/><path d="M98.94,266a1.17,1.17,0,0,1,0-1.61,1.41,1.41,0,0,1,1.74,0,1.17,1.17,0,0,1,0,1.61,1.41,1.41,0,0,1-1.74,0Z" fill="#003a50"/><path d="M106.05,266.15H103.7l5.42-10h-6.93v-1.88h9.28v1.88Z" fill="#003a50"/><path d="M210.38,116.14h-9.94v-1.56a2.85,2.85,0,0,1,.58-1.75,4.09,4.09,0,0,1,1.45-1.19c.5-.26,1.12-.54,1.87-.87l1.87-.77a4.12,4.12,0,0,0,1.45-.91,1.81,1.81,0,0,0,.57-1.31c0-1.25-.89-1.88-2.66-1.88s-2.68.72-2.68,2.16v.41h-2.11v-.41a3.64,3.64,0,0,1,1.26-3,5.45,5.45,0,0,1,3.52-1,5.65,5.65,0,0,1,3.51,1,3.27,3.27,0,0,1,1.27,2.74,3.17,3.17,0,0,1-.55,1.84,4.28,4.28,0,0,1-1.41,1.3,17.49,17.49,0,0,1-1.83.93q-.95.42-1.83.75a5.11,5.11,0,0,0-1.4.75,1.22,1.22,0,0,0-.57,1h7.63Z" fill="#003a50"/><path d="M212.48,116a1.15,1.15,0,0,1,0-1.61,1.4,1.4,0,0,1,1.73,0,1.15,1.15,0,0,1,0,1.61,1.4,1.4,0,0,1-1.73,0Z" fill="#003a50"/><path d="M217.88,114.6a7.33,7.33,0,0,1,0-8.83,5.69,5.69,0,0,1,8.13,0,7.33,7.33,0,0,1,0,8.83,5.69,5.69,0,0,1-8.13,0Zm6.53-1.38a5.73,5.73,0,0,0,0-6.07,3.15,3.15,0,0,0-4.92,0,5,5,0,0,0-.88,3,5,5,0,0,0,.88,3,3.15,3.15,0,0,0,4.92,0Z" fill="#003a50"/><path d="M187.45,256.8,185,258.75v-2.24l2.73-2.27h1.86v11.91h-2.11Z" fill="#003a50"/><path d="M200.75,265.39a6.39,6.39,0,0,1-3.67.93,6.5,6.5,0,0,1-3.69-.94,2.94,2.94,0,0,1-1.37-2.56,2.53,2.53,0,0,1,.26-1.16,2.41,2.41,0,0,1,.65-.86,4.05,4.05,0,0,1,1.4-.77l.25-.07v-.09a3.51,3.51,0,0,1-.76-.29,2.61,2.61,0,0,1-.66-.44,2,2,0,0,1-.54-.76,2.39,2.39,0,0,1-.23-1,2.81,2.81,0,0,1,1.26-2.38,5.74,5.74,0,0,1,3.42-.9,5.81,5.81,0,0,1,3.43.9,2.83,2.83,0,0,1,1.24,2.38,2.47,2.47,0,0,1-.22,1,1.87,1.87,0,0,1-.55.74,3.72,3.72,0,0,1-1.2.68l-.22.05V260l.28.07a6.14,6.14,0,0,1,.63.27,4.45,4.45,0,0,1,.77.5,2.82,2.82,0,0,1,.61.82,2.71,2.71,0,0,1,.28,1.2A3,3,0,0,1,200.75,265.39ZM195,264a3.79,3.79,0,0,0,2.1.48,3.89,3.89,0,0,0,2.1-.47,1.6,1.6,0,0,0,0-2.7,4,4,0,0,0-2.1-.46,3.94,3.94,0,0,0-2.1.46,1.51,1.51,0,0,0-.74,1.35A1.48,1.48,0,0,0,195,264Zm-.37-6.52a1.35,1.35,0,0,0,.64,1.19,4,4,0,0,0,3.65,0,1.35,1.35,0,0,0,.64-1.19,1.38,1.38,0,0,0-.65-1.2,4,4,0,0,0-3.62,0A1.36,1.36,0,0,0,194.6,257.51Z" fill="#003a50"/><path d="M204.23,266a1.15,1.15,0,0,1,0-1.61,1.4,1.4,0,0,1,1.73,0,1.15,1.15,0,0,1,0,1.61,1.4,1.4,0,0,1-1.73,0Z" fill="#003a50"/><path d="M217.84,257.6h-2.2s0-.07,0-.18a2.53,2.53,0,0,0-.22-.44,2.64,2.64,0,0,0-.38-.5,2.08,2.08,0,0,0-.71-.41,3,3,0,0,0-1-.16,2.49,2.49,0,0,0-2.15,1,4.41,4.41,0,0,0-.77,2.68h.06a1.79,1.79,0,0,1,.44-.43,5.51,5.51,0,0,1,.61-.37,4.87,4.87,0,0,1,.95-.3,6.06,6.06,0,0,1,1.21-.13,5,5,0,0,1,3.38,1.12,3.49,3.49,0,0,1,1.3,2.79,3.57,3.57,0,0,1-1.36,2.91,5.52,5.52,0,0,1-3.61,1.11,4.81,4.81,0,0,1-3.87-1.55,6.36,6.36,0,0,1-1.32-4.27v-.4a6.83,6.83,0,0,1,1.32-4.31,4.5,4.5,0,0,1,3.81-1.72,5.64,5.64,0,0,1,2.12.38,3.84,3.84,0,0,1,1.44.94A3.43,3.43,0,0,1,217.84,257.6Zm-2.5,3.14a3.67,3.67,0,0,0-4,0,2,2,0,0,0,0,3.15,3.62,3.62,0,0,0,4,0,2,2,0,0,0,0-3.15Z" fill="#003a50"/></g></svg>