<svg id="Слой_1" data-name="Слой 1" xmlns="http://www.w3.org/2000/svg" xmlns:xlink="http://www.w3.org/1999/xlink" viewBox="0 0 581.1 365.67"><defs><clipPath id="clip-path"><polygon points="0 0.14 0 316.49 14.31 316.49 14.31 365.53 581.1 365.53 581.1 66.41 288.4 66.41 288.4 0.14 0 0.14" fill="none"/></clipPath></defs><g clip-path="url(#clip-path)"><polygon points="579.14 -453.13 579.14 -101.97 642.45 -102.49 655.29 -79.24 655.29 -31.99 650.13 176.99 677.98 178.64 677.98 205.91 1152.38 205.91 1152.38 -115.81 1152.38 -186.74 1152.38 -453.13 579.14 -453.13" fill="#fff"/></g><path d="M303.72,66.41,512.4,70l12.87-1.42,0-2.14ZM15.76.14V1.83H285V66.09l3.44,0V.14Z" fill="#fff"/><polygon points="15.76 0.54 15.76 357.35 221.7 357.35 285.82 357.35 489.49 357.35 489.49 358.32 526.69 358.32 526.69 253.82 512.62 242.75 512.62 193.44 512.39 67.44 286.9 67.44 286.9 0.54 15.76 0.54" fill="#fff"/><g clip-path="url(#clip-path)"><rect x="3.18" y="-464.03" width="1162.95" height="2240.57" fill="none" stroke="#003a50" stroke-miterlimit="10"/><polygon points="15.76 640.13 15.76 1763.68 1153.16 1763.68 1153.16 -451.09 15.76 -451.25 15.76 569.42 15.76 640.13" fill="none" stroke="#003a50" stroke-miterlimit="10"/></g><rect x="36.38" y="204.37" width="4.55" height="87.48" fill="#fff"/><rect x="36.38" y="204.37" width="4.55" height="87.48" fill="none" stroke="#003a50" stroke-miterlimit="10"/><line x1="38.66" y1="291.85" x2="38.66" y2="204.37" fill="none" stroke="#003a50" stroke-miterlimit="10"/><rect x="36.38" y="287.31" width="4.55" height="4.54" fill="#fff"/><rect x="36.38" y="287.31" width="4.55" height="4.54" fill="none" stroke="#003a50" stroke-miterlimit="10"/><rect x="36.38" y="204.37" width="4.55" height="4.54" fill="#fff"/><rect x="36.38" y="204.37" width="4.55" height="4.54" fill="none" stroke="#003a50" stroke-miterlimit="10"/><rect x="36.38" y="244.77" width="4.55" height="4.54" fill="#fff"/><rect x="36.38" y="244.77" width="4.55" height="4.54" fill="none" stroke="#003a50" stroke-miterlimit="10"/><g clip-path="url(#clip-path)"><path d="M40.93,244.77h2.9c20.15,0,33.1-16.06,33.1-35.86h-36" fill="none" stroke="#003a50" stroke-miterlimit="10"/></g><rect x="36.38" y="20.36" width="4.55" height="89" fill="#fff"/><rect x="36.38" y="20.36" width="4.55" height="89" fill="none" stroke="#003a50" stroke-miterlimit="10" stroke-width="1.01"/><line x1="38.66" y1="20.36" x2="38.66" y2="109.36" fill="none" stroke="#003a50" stroke-miterlimit="10" stroke-width="1.01"/><rect x="36.38" y="20.36" width="4.55" height="4.61" fill="#fff"/><rect x="36.38" y="20.36" width="4.55" height="4.61" fill="none" stroke="#003a50" stroke-miterlimit="10" stroke-width="1.01"/><rect x="36.38" y="104.74" width="4.55" height="4.61" fill="#fff"/><rect x="36.38" y="104.74" width="4.55" height="4.61" fill="none" stroke="#003a50" stroke-miterlimit="10" stroke-width="1.01"/><rect x="36.38" y="63.64" width="4.55" height="4.61" fill="#fff"/><rect x="36.38" y="63.64" width="4.55" height="4.61" fill="none" stroke="#003a50" stroke-miterlimit="10" stroke-width="1.01"/><g clip-path="url(#clip-path)"><path d="M40.93,68.25h2.9c20.15,0,33.1,16.34,33.1,36.49h-36" fill="none" stroke="#003a50" stroke-miterlimit="10" stroke-width="1.01"/><rect x="313.6" y="37.25" width="72.48" height="29.76" fill="none" stroke="#003a50" stroke-miterlimit="10"/></g><rect x="359.56" y="251.65" width="34.02" height="99.6" fill="none" stroke="#003a50" stroke-miterlimit="10"/><g clip-path="url(#clip-path)"><rect x="51.89" y="-33.76" width="230.49" height="34.02" fill="none" stroke="#003a50" stroke-miterlimit="10"/><rect x="386.12" y="-29.07" width="43.33" height="96.06" fill="none" stroke="#003a50" stroke-miterlimit="10"/><path d="M391.49,46.84V-8.92a15.93,15.93,0,0,1,15.93-15.93h.73A15.94,15.94,0,0,1,424.09-8.92V46.84a15.94,15.94,0,0,1-15.94,15.93h-.73A15.93,15.93,0,0,1,391.49,46.84Z" fill="none" stroke="#003a50" stroke-miterlimit="10"/><path d="M407.79,45.25a2.27,2.27,0,1,1-2.27,2.27A2.27,2.27,0,0,1,407.79,45.25Z" fill="none" stroke="#003a50" stroke-miterlimit="10"/></g><rect x="378.59" y="79.46" width="41.13" height="98.9" fill="none" stroke="#003a50" stroke-miterlimit="10"/><g clip-path="url(#clip-path)"><path d="M414.62,99.28v59.28a15.47,15.47,0,0,1-30.93,0V99.28a15.47,15.47,0,1,1,30.93,0Z" fill="none" stroke="#003a50" stroke-miterlimit="10"/><path d="M399.15,101.71a2.2,2.2,0,1,1,2.2-2.2A2.21,2.21,0,0,1,399.15,101.71Z" fill="none" stroke="#003a50" stroke-miterlimit="10"/><path d="M342.52,10.37H313.67V-12.42h28.85A11.39,11.39,0,0,1,353.92-1,11.39,11.39,0,0,1,342.52,10.37Z" fill="none" stroke="#003a50" stroke-miterlimit="10"/><path d="M458.22,130.17h28.85V153H458.22a11.4,11.4,0,0,1,0-22.8Z" fill="none" stroke="#003a50" stroke-miterlimit="10"/></g><line x1="475.85" y1="152.97" x2="475.85" y2="130.17" fill="none" stroke="#003a50" stroke-miterlimit="10"/><g clip-path="url(#clip-path)"><rect x="353.37" y="39.64" width="28.96" height="29.71" rx="3.36" fill="none" stroke="#003a50" stroke-miterlimit="10"/><circle cx="367.85" cy="54.49" r="2.27" transform="translate(255.13 408.86) rotate(-80.78)" fill="none" stroke="#003a50" stroke-miterlimit="10"/></g><rect x="419.83" y="79.81" width="37.82" height="26.34" fill="none" stroke="#003a50" stroke-miterlimit="10"/><g clip-path="url(#clip-path)"><rect x="425.43" y="77.71" width="25.64" height="26.31" rx="2.97" fill="none" stroke="#003a50" stroke-miterlimit="10"/><path d="M438.25,92.87a2,2,0,1,1,2-2A2,2,0,0,1,438.25,92.87Z" fill="none" stroke="#003a50" stroke-miterlimit="10"/><rect x="313.91" y="37.25" width="34.02" height="28.84" fill="none" stroke="#003a50" stroke-miterlimit="10"/><path d="M336.23,43.36h-2.12a3.07,3.07,0,0,1-5.71,0h-2.79l-5.28,3,2.52,4,2.38-1.27V60H336.6V49.11L339,50.38l2.53-4Z" fill="none" stroke="#003a50" stroke-miterlimit="10"/></g><rect x="457.65" y="79.99" width="30.12" height="25.9" fill="none" stroke="#003a50" stroke-miterlimit="10"/><g clip-path="url(#clip-path)"><path d="M477.41,86h-1.87a2.72,2.72,0,0,1-5.06,0H468l-4.68,2.68,2.24,3.53,2.11-1.12v9.62h10.07V91.08l2.1,1.12,2.24-3.53Z" fill="none" stroke="#003a50" stroke-miterlimit="10"/><rect x="107.56" y="-33.75" width="34.02" height="34.02" fill="none" stroke="#003a50" stroke-miterlimit="10"/><rect x="217.17" y="-33.75" width="34.02" height="34.02" fill="none" stroke="#003a50" stroke-miterlimit="10"/><rect x="51.9" y="-33.75" width="34.02" height="34.02" fill="none" stroke="#003a50" stroke-miterlimit="10"/></g><rect x="338.75" y="152.89" width="33.05" height="33.05" fill="none" stroke="#003a50" stroke-miterlimit="10"/><line x1="355.27" y1="179.11" x2="355.27" y2="159.72" fill="none" stroke="#003a50" stroke-miterlimit="10"/><line x1="364.97" y1="169.41" x2="345.58" y2="169.41" fill="none" stroke="#003a50" stroke-miterlimit="10"/><line x1="362.13" y1="176.27" x2="348.42" y2="162.56" fill="none" stroke="#003a50" stroke-miterlimit="10"/><line x1="362.13" y1="162.56" x2="348.42" y2="176.27" fill="none" stroke="#003a50" stroke-miterlimit="10"/><g clip-path="url(#clip-path)"><rect x="363.02" y="303.05" width="21.66" height="30.06" rx="3.36" fill="none" stroke="#003a50" stroke-miterlimit="10"/><circle cx="377.65" cy="318.08" r="2.46" transform="matrix(0.53, -0.85, 0.85, 0.53, -91.47, 472.1)" fill="none" stroke="#003a50" stroke-miterlimit="10"/></g><line x1="376.89" y1="318.08" x2="390.5" y2="318.08" fill="none" stroke="#003a50" stroke-miterlimit="10"/><line x1="390.51" y1="324.89" x2="390.51" y2="311.27" fill="none" stroke="#003a50" stroke-miterlimit="10"/><rect x="338.05" y="80.15" width="34.02" height="68.03" fill="none" stroke="#003a50" stroke-miterlimit="10"/><g clip-path="url(#clip-path)"><path d="M342.88,131.07a1,1,0,0,1-.9-.56,1,1,0,0,1,.45-1.35,28.77,28.77,0,0,1,25.26,0,1,1,0,0,1,.46,1.34,1,1,0,0,1-1.34.46,26.81,26.81,0,0,0-23.49,0A1,1,0,0,1,342.88,131.07Z" fill="none" stroke="#003a50" stroke-miterlimit="10"/><path d="M342.88,125.5a1,1,0,0,1-.45-1.9,28.77,28.77,0,0,1,25.26,0,1,1,0,1,1-.88,1.8,26.72,26.72,0,0,0-23.49,0A1,1,0,0,1,342.88,125.5Z" fill="none" stroke="#003a50" stroke-miterlimit="10"/><path d="M342.88,119.93a1,1,0,0,1-.9-.56,1,1,0,0,1,.45-1.34,28.77,28.77,0,0,1,25.26,0,1,1,0,1,1-.88,1.8,26.72,26.72,0,0,0-23.49,0A1,1,0,0,1,342.88,119.93Z" fill="none" stroke="#003a50" stroke-miterlimit="10"/><path d="M342.88,114.37a1,1,0,0,1-.45-1.9,28.77,28.77,0,0,1,25.26,0,1,1,0,1,1-.88,1.8,26.72,26.72,0,0,0-23.49,0A1,1,0,0,1,342.88,114.37Z" fill="none" stroke="#003a50" stroke-miterlimit="10"/><path d="M342.88,108.8a1,1,0,0,1-.9-.56,1,1,0,0,1,.45-1.34,28.77,28.77,0,0,1,25.26,0,1,1,0,1,1-.88,1.8,26.72,26.72,0,0,0-23.49,0A1,1,0,0,1,342.88,108.8Z" fill="none" stroke="#003a50" stroke-miterlimit="10"/><path d="M342.88,103.24a1,1,0,0,1-.9-.56,1,1,0,0,1,.45-1.35,28.77,28.77,0,0,1,25.26,0,1,1,0,0,1,.46,1.34,1,1,0,0,1-1.34.46,26.81,26.81,0,0,0-23.49,0A.9.9,0,0,1,342.88,103.24Z" fill="none" stroke="#003a50" stroke-miterlimit="10"/><path d="M342.88,136.63a1,1,0,0,1-.45-1.9,28.77,28.77,0,0,1,25.26,0,1,1,0,0,1-.88,1.8,26.72,26.72,0,0,0-23.49,0A1,1,0,0,1,342.88,136.63Z" fill="none" stroke="#003a50" stroke-miterlimit="10"/><path d="M342.88,142.2a1,1,0,0,1-.9-.56,1,1,0,0,1,.45-1.35,28.77,28.77,0,0,1,25.26,0,1,1,0,0,1,.46,1.34,1,1,0,0,1-1.34.46,26.81,26.81,0,0,0-23.49,0A1,1,0,0,1,342.88,142.2Z" fill="none" stroke="#003a50" stroke-miterlimit="10"/></g><line x1="355.06" y1="148.18" x2="355.06" y2="80.54" fill="none" stroke="#003a50" stroke-miterlimit="10"/><g clip-path="url(#clip-path)"><path d="M290.7,82.29a1,1,0,0,1,.56-.9,1,1,0,0,1,1.34.46,28.77,28.77,0,0,1,0,25.26,1,1,0,1,1-1.8-.88,26.74,26.74,0,0,0,0-23.5A1,1,0,0,1,290.7,82.29Z" fill="none" stroke="#003a50" stroke-miterlimit="10"/><path d="M296.26,82.29a1,1,0,0,1,1.91-.44,28.77,28.77,0,0,1,0,25.26,1,1,0,0,1-1.34.46,1,1,0,0,1-.46-1.34,26.83,26.83,0,0,0,0-23.5A.87.87,0,0,1,296.26,82.29Z" fill="none" stroke="#003a50" stroke-miterlimit="10"/><path d="M301.83,82.29a1,1,0,0,1,.56-.9,1,1,0,0,1,1.34.46,28.77,28.77,0,0,1,0,25.26,1,1,0,1,1-1.8-.88,26.74,26.74,0,0,0,0-23.5A1,1,0,0,1,301.83,82.29Z" fill="none" stroke="#003a50" stroke-miterlimit="10"/><path d="M307.39,82.29a1,1,0,0,1,1.91-.44,28.77,28.77,0,0,1,0,25.26,1,1,0,0,1-1.34.46,1,1,0,0,1-.46-1.34,26.83,26.83,0,0,0,0-23.5A1,1,0,0,1,307.39,82.29Z" fill="none" stroke="#003a50" stroke-miterlimit="10"/><path d="M313,82.29a1,1,0,0,1,.56-.9,1,1,0,0,1,1.34.46,28.77,28.77,0,0,1,0,25.26,1,1,0,1,1-1.8-.88,26.74,26.74,0,0,0,0-23.5A1,1,0,0,1,313,82.29Z" fill="none" stroke="#003a50" stroke-miterlimit="10"/><path d="M318.52,82.29a1,1,0,0,1,1.91-.44,28.77,28.77,0,0,1,0,25.26,1,1,0,0,1-1.34.46,1,1,0,0,1-.46-1.34,26.83,26.83,0,0,0,0-23.5A1,1,0,0,1,318.52,82.29Z" fill="none" stroke="#003a50" stroke-miterlimit="10"/><path d="M285.13,82.29a1,1,0,0,1,1.91-.44,28.77,28.77,0,0,1,0,25.26,1,1,0,0,1-1.34.46,1,1,0,0,1-.46-1.34,26.83,26.83,0,0,0,0-23.5A.87.87,0,0,1,285.13,82.29Z" fill="none" stroke="#003a50" stroke-miterlimit="10"/><path d="M279.57,82.29a1,1,0,0,1,1.9-.44,28.77,28.77,0,0,1,0,25.26,1,1,0,1,1-1.8-.88,26.74,26.74,0,0,0,0-23.5A1,1,0,0,1,279.57,82.29Z" fill="none" stroke="#003a50" stroke-miterlimit="10"/></g><line x1="272.85" y1="94.48" x2="338.05" y2="94.48" fill="none" stroke="#003a50" stroke-miterlimit="10"/><rect x="272.85" y="79.46" width="65.21" height="29.22" fill="none" stroke="#003a50" stroke-miterlimit="10"/><g clip-path="url(#clip-path)"><rect x="436.4" y="35.03" width="56.47" height="30.8" fill="none" stroke="#003a50" stroke-miterlimit="10"/><path d="M451.9,39.4a.92.92,0,0,1,.51-.82.9.9,0,0,1,1.21.42,26,26,0,0,1,0,22.87.9.9,0,0,1-1.62-.8,24.31,24.31,0,0,0,0-21.27A.85.85,0,0,1,451.9,39.4Z" fill="none" stroke="#003a50" stroke-miterlimit="10"/><path d="M456.94,39.4a.92.92,0,0,1,.51-.82.9.9,0,0,1,1.21.42,26,26,0,0,1,0,22.87.91.91,0,0,1-1.63-.8,24.22,24.22,0,0,0,0-21.27A1,1,0,0,1,456.94,39.4Z" fill="none" stroke="#003a50" stroke-miterlimit="10"/><path d="M462,39.4a.92.92,0,0,1,.51-.82.9.9,0,0,1,1.21.42,26,26,0,0,1,0,22.87.91.91,0,0,1-1.63-.8,24.22,24.22,0,0,0,0-21.27A1,1,0,0,1,462,39.4Z" fill="none" stroke="#003a50" stroke-miterlimit="10"/><path d="M467,39.4a.9.9,0,0,1,1.72-.4,26.09,26.09,0,0,1,0,22.87.91.91,0,0,1-1.63-.8,24.22,24.22,0,0,0,0-21.27A.83.83,0,0,1,467,39.4Z" fill="none" stroke="#003a50" stroke-miterlimit="10"/><path d="M472.06,39.4a.9.9,0,0,1,1.72-.4,26.09,26.09,0,0,1,0,22.87.91.91,0,0,1-1.63-.8,24.22,24.22,0,0,0,0-21.27A.83.83,0,0,1,472.06,39.4Z" fill="none" stroke="#003a50" stroke-miterlimit="10"/><path d="M477.1,39.4a.91.91,0,0,1,.5-.82.92.92,0,0,1,1.22.42,26.09,26.09,0,0,1,0,22.87.91.91,0,0,1-1.63-.8,24.22,24.22,0,0,0,0-21.27A.83.83,0,0,1,477.1,39.4Z" fill="none" stroke="#003a50" stroke-miterlimit="10"/><path d="M446.86,39.4a.92.92,0,0,1,.51-.82.9.9,0,0,1,1.21.42,26,26,0,0,1,0,22.87.9.9,0,0,1-1.62-.8,24.31,24.31,0,0,0,0-21.27A.85.85,0,0,1,446.86,39.4Z" fill="none" stroke="#003a50" stroke-miterlimit="10"/><path d="M441.82,39.4a.91.91,0,0,1,1.73-.4,26.09,26.09,0,0,1,0,22.87.91.91,0,0,1-1.22.41.89.89,0,0,1-.41-1.21,24.31,24.31,0,0,0,0-21.27A.85.85,0,0,1,441.82,39.4Z" fill="none" stroke="#003a50" stroke-miterlimit="10"/></g><rect x="399.52" y="256.81" width="34.02" height="70.33" fill="none" stroke="#003a50" stroke-miterlimit="10"/><rect x="435.95" y="327.62" width="39.54" height="23.61" fill="none" stroke="#003a50" stroke-miterlimit="10"/><rect x="291.77" y="152.62" width="33.59" height="33.59" fill="none" stroke="#003a50" stroke-miterlimit="10"/><g clip-path="url(#clip-path)"><circle cx="316.23" cy="176.93" r="4.58" fill="none" stroke="#003a50" stroke-miterlimit="10"/><circle cx="300.94" cy="176.93" r="4.58" fill="none" stroke="#003a50" stroke-miterlimit="10"/><circle cx="316.23" cy="162.02" r="4.58" fill="none" stroke="#003a50" stroke-miterlimit="10"/><circle cx="300.94" cy="162.02" r="4.58" fill="none" stroke="#003a50" stroke-miterlimit="10"/></g><rect x="83.52" y="163.22" width="102.05" height="17.01" fill="none" stroke="#003a50" stroke-miterlimit="10"/><polygon points="91.54 171.18 134.44 174.71 177.54 171.18 177.54 168.72 91.54 168.72 91.54 171.18" fill="none" stroke="#003a50" stroke-miterlimit="10"/><rect x="83.56" y="186.6" width="102.05" height="17.01" fill="none" stroke="#003a50" stroke-miterlimit="10"/><polygon points="177.58 195.65 134.69 192.12 91.58 195.65 91.58 198.1 177.58 198.1 177.58 195.65" fill="none" stroke="#003a50" stroke-miterlimit="10"/><rect x="271.75" y="152.62" width="100.94" height="33.59" fill="none" stroke="#003a50" stroke-miterlimit="10"/><g clip-path="url(#clip-path)"><path d="M300.61,293.71a1.27,1.27,0,0,1-.95-1.51A13.78,13.78,0,1,0,272.79,286a1.26,1.26,0,0,1-2.46-.57,16.3,16.3,0,0,1,31.78,7.29A1.25,1.25,0,0,1,300.61,293.71Z" fill="none" stroke="#003a50" stroke-miterlimit="10"/><path d="M245.44,284a1.26,1.26,0,0,1-1.75.33,13.79,13.79,0,0,0-15.53,22.79,1.25,1.25,0,0,1,.34,1.74,1.26,1.26,0,0,1-1.75.34,16.3,16.3,0,0,1,18.35-26.95A1.26,1.26,0,0,1,245.44,284Z" fill="none" stroke="#003a50" stroke-miterlimit="10"/><path d="M242.93,331.39a1.26,1.26,0,0,1,1.33,1.18A13.78,13.78,0,1,0,271.78,331a1.26,1.26,0,1,1,2.52-.16,16.3,16.3,0,0,1-32.55,1.94A1.26,1.26,0,0,1,242.93,331.39Z" fill="none" stroke="#003a50" stroke-miterlimit="10"/><path d="M286.41,277.09a12.69,12.69,0,0,1,12,15.48l-2,8.88a3.53,3.53,0,0,1-4.24,2.68l-13.44-3.08a23.73,23.73,0,0,0-6-9.44l1-4.2C275,281.45,280.29,276.89,286.41,277.09Z" fill="none" stroke="#003a50" stroke-miterlimit="10"/><path d="M243.61,285.61l2.32,1.6a23.81,23.81,0,0,0-13.64,21.32l-2.52-1.72c-5-3.44-7.4-10-5-15.64A12.7,12.7,0,0,1,243.61,285.61Z" fill="none" stroke="#003a50" stroke-miterlimit="10"/><path d="M270.45,327.89l.12,2c.36,6.12-3.4,12-9.32,13.48a12.66,12.66,0,0,1-15.88-11.48l-.12-1.84a23.93,23.93,0,0,0,16.64,1.92A23.5,23.5,0,0,0,270.45,327.89Z" fill="none" stroke="#003a50" stroke-miterlimit="10"/><path d="M272.69,291.61a23.73,23.73,0,0,1,6,9.44,16.51,16.51,0,0,1,.6,2,23.85,23.85,0,0,1-8.84,24.84,23.5,23.5,0,0,1-8.56,4A23.87,23.87,0,0,1,233,314.53a22.12,22.12,0,0,1-.68-6,23.81,23.81,0,0,1,13.64-21.32,22.85,22.85,0,0,1,4.48-1.6A23.8,23.8,0,0,1,272.69,291.61Z" fill="none" stroke="#003a50" stroke-miterlimit="10"/><path d="M141.74,305.52v41H96V303.31h43.56A2.21,2.21,0,0,1,141.74,305.52Z" fill="none" stroke="#003a50" stroke-miterlimit="10"/><path d="M187.61,305.3v41.26H141.84V305.3a2,2,0,0,1,2-2h41.81A2,2,0,0,1,187.61,305.3Z" fill="none" stroke="#003a50" stroke-miterlimit="10"/><path d="M96,303.31a3.11,3.11,0,0,0-3.33-2.83H88.42a3.11,3.11,0,0,0-3.32,2.83v48.2H198.49V303.74a3.12,3.12,0,0,0-3.33-2.84h-4.22a3.12,3.12,0,0,0-3.33,2.84v42.82H96Z" fill="none" stroke="#003a50" stroke-miterlimit="10"/></g><rect x="95.97" y="337.31" width="91.64" height="9.25" fill="none" stroke="#003a50" stroke-miterlimit="10"/><rect x="54.55" y="13.62" width="22.68" height="22.68" fill="none" stroke="#003a50" stroke-miterlimit="10"/><g clip-path="url(#clip-path)"><path d="M72.39,31.46a9.2,9.2,0,1,1,0-13A9.19,9.19,0,0,1,72.39,31.46Z" fill="none" stroke="#003a50" stroke-miterlimit="10"/><path d="M73,30.77c-1.7-.17-3.42.48-5.07-1.18-2.43-2.43.14-5-2.29-7.45s-5,.14-7.46-2.3" fill="none" stroke="#003a50" stroke-miterlimit="10"/></g><rect x="191.85" y="13.62" width="22.68" height="22.68" fill="none" stroke="#003a50" stroke-miterlimit="10"/><g clip-path="url(#clip-path)"><path d="M209.69,31.46a9.2,9.2,0,1,1,0-13A9.19,9.19,0,0,1,209.69,31.46Z" fill="none" stroke="#003a50" stroke-miterlimit="10"/><path d="M210.32,30.77c-1.69-.17-3.41.48-5.07-1.18-2.43-2.43.14-5-2.29-7.45s-5,.14-7.46-2.3" fill="none" stroke="#003a50" stroke-miterlimit="10"/></g><rect x="83.56" y="13.62" width="102.05" height="113.39" fill="none" stroke="#003a50" stroke-miterlimit="10"/><g clip-path="url(#clip-path)"><path d="M175.61,117.27H93.56a2.1,2.1,0,0,1-2.09-2.09V47.54h86.22v67.64A2.09,2.09,0,0,1,175.61,117.27Z" fill="none" stroke="#003a50" stroke-miterlimit="10"/><rect x="91.22" y="21.05" width="42.5" height="22.88" rx="1.98" fill="none" stroke="#003a50" stroke-miterlimit="10"/><rect x="135.45" y="21.05" width="42.5" height="22.88" rx="1.98" fill="none" stroke="#003a50" stroke-miterlimit="10"/></g><line x1="177.95" y1="61.39" x2="91.22" y2="61.39" fill="none" stroke="#003a50" stroke-miterlimit="10"/><g clip-path="url(#clip-path)"><path d="M404.35,310a1,1,0,0,1-.44-1.91,28.77,28.77,0,0,1,25.26,0,1,1,0,0,1,.45,1.34,1,1,0,0,1-1.34.46,26.81,26.81,0,0,0-23.49,0A1,1,0,0,1,404.35,310Z" fill="none" stroke="#003a50" stroke-miterlimit="10"/><path d="M404.35,304.46a1,1,0,0,1-.44-1.9,28.77,28.77,0,0,1,25.26,0,1,1,0,0,1-.89,1.8,26.72,26.72,0,0,0-23.49,0A1,1,0,0,1,404.35,304.46Z" fill="none" stroke="#003a50" stroke-miterlimit="10"/><path d="M404.35,298.9a1,1,0,0,1-.44-1.91,28.77,28.77,0,0,1,25.26,0,1,1,0,0,1,.45,1.34,1,1,0,0,1-1.34.46,26.81,26.81,0,0,0-23.49,0A1,1,0,0,1,404.35,298.9Z" fill="none" stroke="#003a50" stroke-miterlimit="10"/><path d="M404.35,293.33a1,1,0,0,1-.44-1.9,28.77,28.77,0,0,1,25.26,0,1,1,0,0,1-.89,1.8,26.72,26.72,0,0,0-23.49,0A1,1,0,0,1,404.35,293.33Z" fill="none" stroke="#003a50" stroke-miterlimit="10"/><path d="M404.35,287.77a1,1,0,0,1-.44-1.91,28.77,28.77,0,0,1,25.26,0,1,1,0,0,1,.45,1.34,1,1,0,0,1-1.34.46,26.81,26.81,0,0,0-23.49,0A1,1,0,0,1,404.35,287.77Z" fill="none" stroke="#003a50" stroke-miterlimit="10"/><path d="M404.35,282.2a1,1,0,0,1-.44-1.9,28.77,28.77,0,0,1,25.26,0,1,1,0,0,1-.89,1.8,26.72,26.72,0,0,0-23.49,0A1,1,0,0,1,404.35,282.2Z" fill="none" stroke="#003a50" stroke-miterlimit="10"/><path d="M404.35,315.59a1,1,0,0,1-.44-1.9,28.77,28.77,0,0,1,25.26,0,1,1,0,0,1-.89,1.8,26.72,26.72,0,0,0-23.49,0A1,1,0,0,1,404.35,315.59Z" fill="none" stroke="#003a50" stroke-miterlimit="10"/><path d="M404.35,321.16a1,1,0,0,1-.44-1.91,28.77,28.77,0,0,1,25.26,0,1,1,0,0,1,.45,1.34,1,1,0,0,1-1.34.46,26.81,26.81,0,0,0-23.49,0A.87.87,0,0,1,404.35,321.16Z" fill="none" stroke="#003a50" stroke-miterlimit="10"/></g><line x1="416.54" y1="327.14" x2="416.54" y2="256.81" fill="none" stroke="#003a50" stroke-miterlimit="10"/><g clip-path="url(#clip-path)"><path d="M232.53,43.23A14.78,14.78,0,0,0,216.6,66.61a1.14,1.14,0,1,0,1.77-1.43,12.47,12.47,0,0,1,14.16-19.5Z" fill="none" stroke="#003a50" stroke-miterlimit="10"/><rect x="232.53" y="13.45" width="34.02" height="84.03" rx="3.31" fill="none" stroke="#003a50" stroke-miterlimit="10"/><path d="M262.83,16a1.4,1.4,0,0,0-1.39,1.4V93.54a1.4,1.4,0,0,0,2.79,0V17.4a1.4,1.4,0,0,0-1.4-1.4" fill="none" stroke="#003a50" stroke-miterlimit="10"/><path d="M248.25,83.81a5.51,5.51,0,1,1,0,7.79A5.52,5.52,0,0,1,248.25,83.81Z" fill="none" stroke="#003a50" stroke-miterlimit="10"/><path d="M247.88,84.22c1,.1,2.05-.28,3,.7,1.46,1.46-.08,3,1.38,4.47s3-.08,4.47,1.38" fill="none" stroke="#003a50" stroke-miterlimit="10"/><path d="M232.53,47.94a10.63,10.63,0,1,0,0,19.59Z" fill="none" stroke="#003a50" stroke-miterlimit="10"/></g><rect x="359.55" y="251.37" width="34.02" height="34.02" fill="none" stroke="#003a50" stroke-miterlimit="10"/><line x1="375.83" y1="270.4" x2="375.83" y2="280.96" fill="none" stroke="#003a50" stroke-miterlimit="10"/><g clip-path="url(#clip-path)"><path d="M376.74,270.4h-1.82a3.4,3.4,0,0,1-3.39-3.4V255.8h8.6V267A3.4,3.4,0,0,1,376.74,270.4Z" fill="none" stroke="#003a50" stroke-miterlimit="10"/></g><line x1="372.35" y1="280.96" x2="379.3" y2="280.96" fill="none" stroke="#003a50" stroke-miterlimit="10"/><g clip-path="url(#clip-path)"><path d="M425.38,181.39v3.07a38.71,38.71,0,0,0,38.71,38.72V181.39" fill="none" stroke="#003a50" stroke-miterlimit="10" stroke-width="1.6"/><path d="M216.78,183.52v-3.58a45.05,45.05,0,0,1,45.06-45.06v48.64" fill="none" stroke="#003a50" stroke-miterlimit="10" stroke-width="1.6"/><path d="M524,243.8H528a51.13,51.13,0,0,0,51.13-51.12H524" fill="none" stroke="#003a50" stroke-miterlimit="10" stroke-width="1.6"/><line x1="498.92" y1="246.75" x2="444.43" y2="246.75" fill="none" stroke="#003a50" stroke-miterlimit="10" stroke-width="1.6"/><polygon points="51.62 109.18 51.62 204.92 2.29 204.92 13.95 109.18 51.62 109.18" fill="#003a50" fill-rule="evenodd"/><rect x="12.62" y="-73.49" width="39" height="94.57" fill="#003a50"/><rect x="13.77" y="291.12" width="37.85" height="97.19" fill="#003a50"/><rect x="3.29" y="291.12" width="44.33" height="25.9" fill="#003a50"/><rect x="37.45" y="351.75" width="491.33" height="13.79" fill="#003a50"/><rect x="37.45" y="-0.25" width="249.5" height="13.79" fill="#003a50"/><rect x="277.12" y="66.09" width="249.5" height="13.79" fill="#003a50"/><rect x="512.62" y="66.99" width="16.81" height="126.45" fill="#003a50"/><rect x="512.62" y="242.75" width="16.81" height="17.72" fill="#003a50"/><rect x="475.66" y="250.75" width="53.77" height="11.84" fill="#003a50"/><rect x="475.66" y="256.67" width="10.5" height="98.45" fill="#003a50"/><rect x="493.12" y="-33.27" width="11.67" height="106.25" fill="#003a50"/><rect x="270.77" y="-0.25" width="16.18" height="80.12" fill="#003a50"/><rect x="307.02" y="-28.78" width="6.38" height="99.52" fill="#003a50"/><rect x="429.77" y="-28.78" width="6.38" height="99.52" fill="#003a50"/><rect x="282.02" y="-28.78" width="6.38" height="99.52" fill="#003a50"/><rect x="523.05" y="255.91" width="6.38" height="132.4" fill="#003a50"/><rect x="393.08" y="251.61" width="6.38" height="106.7" fill="#003a50"/><rect x="523.05" y="-37.26" width="6.38" height="107.23" fill="#003a50"/><rect x="372.69" y="178.64" width="53.52" height="6.38" fill="#003a50"/><rect x="372.1" y="75.7" width="6.38" height="108.39" fill="#003a50"/><rect x="463.26" y="178.64" width="63.43" height="6.38" fill="#003a50"/><rect x="393.08" y="250.64" width="41.3" height="6.38" fill="#003a50"/><rect x="395.42" y="327.33" width="40.36" height="6.38" fill="#003a50"/><rect x="429.4" y="327.33" width="6.38" height="25.8" fill="#003a50"/><rect x="471.43" y="250.64" width="55.26" height="6.38" fill="#003a50"/><rect x="489.48" y="156.85" width="29.83" height="6.38" fill="#003a50"/><rect x="487.37" y="76.95" width="6.38" height="104.88" fill="#003a50"/><rect x="41.85" y="179.9" width="175.76" height="6.38" fill="#003a50"/><rect x="261.08" y="179.9" width="7.44" height="6.38" fill="#003a50"/><rect x="266.47" y="146.32" width="109.8" height="7.69" fill="#003a50"/><line x1="393.58" y1="264.88" x2="393.58" y2="262.04" fill="none" stroke="#003a50" stroke-miterlimit="10"/><line x1="393.58" y1="256.28" x2="393.58" y2="189.95" fill="none" stroke="#003a50" stroke-miterlimit="10" stroke-dasharray="5.77 5.77"/><line x1="393.58" y1="187.07" x2="393.58" y2="184.24" fill="none" stroke="#003a50" stroke-miterlimit="10"/><rect x="307.02" y="-28.78" width="6.38" height="99.52" fill="#003a50"/><rect x="429.77" y="-28.78" width="6.38" height="99.52" fill="#003a50"/><rect x="282.02" y="-28.78" width="6.38" height="99.52" fill="#003a50"/><rect x="523.05" y="255.91" width="6.38" height="132.4" fill="#003a50"/><rect x="393.08" y="251.61" width="6.38" height="106.7" fill="#003a50"/><rect x="523.05" y="-37.26" width="6.38" height="107.23" fill="#003a50"/><rect x="372.69" y="178.64" width="53.52" height="6.38" fill="#003a50"/><rect x="372.1" y="75.7" width="6.38" height="108.39" fill="#003a50"/><rect x="463.26" y="178.64" width="63.43" height="6.38" fill="#003a50"/><rect x="393.08" y="250.64" width="41.3" height="6.38" fill="#003a50"/><rect x="395.42" y="327.33" width="40.36" height="6.38" fill="#003a50"/><rect x="429.4" y="327.33" width="6.38" height="25.8" fill="#003a50"/><rect x="471.43" y="250.64" width="55.26" height="6.38" fill="#003a50"/><rect x="489.48" y="156.85" width="29.83" height="6.38" fill="#003a50"/><rect x="487.37" y="76.95" width="6.38" height="104.88" fill="#003a50"/><line x1="393.58" y1="264.88" x2="393.58" y2="262.04" fill="none" stroke="#003a50" stroke-miterlimit="10"/><line x1="393.58" y1="256.28" x2="393.58" y2="189.95" fill="none" stroke="#003a50" stroke-miterlimit="10" stroke-dasharray="5.77 5.77"/><line x1="393.58" y1="187.07" x2="393.58" y2="184.24" fill="none" stroke="#003a50" stroke-miterlimit="10"/></g><g clip-path="url(#clip-path)"><path d="M29.79,276a4.53,4.53,0,0,1-3.12,1.05A4.57,4.57,0,0,1,23.55,276a4,4,0,0,1,0-5.73,4.57,4.57,0,0,1,3.12-1,4.53,4.53,0,0,1,3.12,1,4,4,0,0,1,0,5.73Zm-1-4.6a3.52,3.52,0,0,0-2.14-.62,3.5,3.5,0,0,0-2.14.62,2.21,2.21,0,0,0,0,3.47,3.5,3.5,0,0,0,2.14.62,3.52,3.52,0,0,0,2.14-.62,2.21,2.21,0,0,0,0-3.47Z" fill="#003a50"/><path d="M30.78,267.69a.72.72,0,0,1-.57.23.75.75,0,0,1-.57-.23.9.9,0,0,1-.21-.62.87.87,0,0,1,.21-.61.75.75,0,0,1,.57-.23.72.72,0,0,1,.57.23.87.87,0,0,1,.21.61A.9.9,0,0,1,30.78,267.69Z" fill="#003a50"/><path d="M24.84,258.08v1.56s-.05,0-.13,0l-.31.15a1.87,1.87,0,0,0-.35.28,1.25,1.25,0,0,0-.29.5,2.25,2.25,0,0,0-.11.71,1.78,1.78,0,0,0,.72,1.52,3.12,3.12,0,0,0,1.9.54v0A1.35,1.35,0,0,1,26,263a3.19,3.19,0,0,1-.26-.42,3.14,3.14,0,0,1-.21-.67,4.12,4.12,0,0,1-.09-.86,3.57,3.57,0,0,1,.78-2.38,2.49,2.49,0,0,1,2-.92,2.52,2.52,0,0,1,2.05,1,3.89,3.89,0,0,1,.78,2.54A3.38,3.38,0,0,1,29.9,264a4.5,4.5,0,0,1-3,.94H26.6a4.83,4.83,0,0,1-3-.94,3.16,3.16,0,0,1-1.21-2.68,3.93,3.93,0,0,1,.27-1.5,2.61,2.61,0,0,1,.66-1A2.39,2.39,0,0,1,24.84,258.08Zm2.22,1.77a2.21,2.21,0,0,0-.41,1.39,2.26,2.26,0,0,0,.41,1.4,1.4,1.4,0,0,0,2.22,0,2.6,2.6,0,0,0,0-2.8,1.32,1.32,0,0,0-1.11-.54A1.3,1.3,0,0,0,27.06,259.85Z" fill="#003a50"/><path d="M29.79,93.59a4.57,4.57,0,0,1-3.12,1,4.61,4.61,0,0,1-3.12-1,4,4,0,0,1,0-5.74,4.61,4.61,0,0,1,3.12-1,4.57,4.57,0,0,1,3.12,1,4,4,0,0,1,0,5.74Zm-1-4.61a3.52,3.52,0,0,0-2.14-.61,3.5,3.5,0,0,0-2.14.61,2.21,2.21,0,0,0,0,3.47,3.44,3.44,0,0,0,2.14.62,3.46,3.46,0,0,0,2.14-.62,2,2,0,0,0,.84-1.73A2.05,2.05,0,0,0,28.81,89Z" fill="#003a50"/><path d="M30.78,85.26a.72.72,0,0,1-.57.23.75.75,0,0,1-.57-.23.87.87,0,0,1-.21-.61.85.85,0,0,1,.21-.61.71.71,0,0,1,.57-.23.69.69,0,0,1,.57.23.85.85,0,0,1,.21.61A.87.87,0,0,1,30.78,85.26Z" fill="#003a50"/><path d="M24.84,75.65v1.56s-.05,0-.13,0a1.38,1.38,0,0,0-.31.15,2.33,2.33,0,0,0-.35.27,1.4,1.4,0,0,0-.29.5,2.36,2.36,0,0,0-.11.72,1.76,1.76,0,0,0,.72,1.51,3.12,3.12,0,0,0,1.9.54v0a1.27,1.27,0,0,1-.31-.31,2.73,2.73,0,0,1-.26-.43,3.14,3.14,0,0,1-.21-.67,4,4,0,0,1-.09-.86,3.57,3.57,0,0,1,.78-2.38,2.62,2.62,0,0,1,4,.05A3.87,3.87,0,0,1,31,78.83a3.38,3.38,0,0,1-1.09,2.73,4.5,4.5,0,0,1-3,.93H26.6a4.83,4.83,0,0,1-3-.93,3.18,3.18,0,0,1-1.21-2.68,3.86,3.86,0,0,1,.27-1.5,2.73,2.73,0,0,1,.66-1A2.44,2.44,0,0,1,24.84,75.65Zm2.22,1.77a2.58,2.58,0,0,0,0,2.79,1.3,1.3,0,0,0,1.11.55,1.32,1.32,0,0,0,1.11-.54,2.6,2.6,0,0,0,0-2.8,1.4,1.4,0,0,0-2.22,0Z" fill="#003a50"/></g><rect x="266.47" y="6.65" width="6.38" height="102.03" fill="#003a50"/><rect x="266.47" y="146.32" width="6.38" height="39.96" fill="#003a50"/><g clip-path="url(#clip-path)"><path d="M465.06,10.13l-2.48,1.95V9.84l2.73-2.27h1.86V19.48h-2.11Z" fill="#003a50"/><path d="M469.7,19.35a1,1,0,0,1-.33-.81,1,1,0,0,1,.33-.8,1.4,1.4,0,0,1,1.73,0,1,1,0,0,1,.33.8,1,1,0,0,1-.33.81,1.4,1.4,0,0,1-1.73,0Z" fill="#003a50"/><path d="M482.28,18.72a7.73,7.73,0,0,1-7.37,0,3,3,0,0,1-1.37-2.56A2.7,2.7,0,0,1,473.8,15a2.32,2.32,0,0,1,.66-.86,4,4,0,0,1,1.39-.77l.26-.07V13.2a3.11,3.11,0,0,1-.77-.29,2.61,2.61,0,0,1-.66-.44,2.2,2.2,0,0,1-.54-.75,2.41,2.41,0,0,1-.22-1,2.81,2.81,0,0,1,1.25-2.39,7,7,0,0,1,6.85,0,2.84,2.84,0,0,1,1.25,2.39,2.58,2.58,0,0,1-.22,1,2,2,0,0,1-.55.74,3.54,3.54,0,0,1-1.2.68l-.22,0v.09l.28.07a5.42,5.42,0,0,1,.62.27,3.79,3.79,0,0,1,.77.5,2.89,2.89,0,0,1,.62.83,2.63,2.63,0,0,1,.27,1.19A3,3,0,0,1,482.28,18.72Zm-5.79-1.36a3.75,3.75,0,0,0,2.1.49,3.84,3.84,0,0,0,2.1-.48,1.59,1.59,0,0,0,0-2.69,4.93,4.93,0,0,0-4.2,0,1.58,1.58,0,0,0,0,2.68Zm-.36-6.51a1.36,1.36,0,0,0,.64,1.19,4.09,4.09,0,0,0,3.65,0,1.38,1.38,0,0,0,.64-1.19,1.36,1.36,0,0,0-.66-1.2,3.94,3.94,0,0,0-3.62,0A1.35,1.35,0,0,0,476.13,10.85Z" fill="#003a50"/><path d="M361.49,9.42h-5.83V7.57h8.86V9.42L360,12.07v.06h1.28a3.87,3.87,0,0,1,2.79,1,3.5,3.5,0,0,1,1.05,2.66,3.32,3.32,0,0,1-1.33,2.82,6.93,6.93,0,0,1-7.24,0,3.38,3.38,0,0,1-1.33-2.85v-.33h2.11v.33c0,1.36.95,2,2.84,2s2.84-.66,2.84-2-.94-2-2.84-2h-3.26V12.17l4.58-2.69Z" fill="#003a50"/><path d="M367.22,19.35a1,1,0,0,1-.32-.81,1.06,1.06,0,0,1,.32-.8,1.25,1.25,0,0,1,.88-.3,1.22,1.22,0,0,1,.86.3,1.06,1.06,0,0,1,.32.8,1,1,0,0,1-.32.81,1.22,1.22,0,0,1-.86.3A1.25,1.25,0,0,1,367.22,19.35Z" fill="#003a50"/><path d="M379.81,18.72a7.73,7.73,0,0,1-7.37,0,3,3,0,0,1-1.37-2.56,2.7,2.7,0,0,1,.26-1.16,2.41,2.41,0,0,1,.65-.86,4.05,4.05,0,0,1,1.4-.77l.26-.07V13.2a3,3,0,0,1-.77-.29,2.61,2.61,0,0,1-.66-.44,2.2,2.2,0,0,1-.54-.75,2.42,2.42,0,0,1-.23-1A2.82,2.82,0,0,1,372.7,8.3a5.81,5.81,0,0,1,3.42-.89,5.89,5.89,0,0,1,3.43.89,2.83,2.83,0,0,1,1.24,2.39,2.43,2.43,0,0,1-.22,1,1.87,1.87,0,0,1-.55.74,3.42,3.42,0,0,1-1.19.68l-.23,0v.09l.28.07a6.14,6.14,0,0,1,.63.27,4.09,4.09,0,0,1,.77.5,2.71,2.71,0,0,1,.61.83,2.52,2.52,0,0,1,.28,1.19A3,3,0,0,1,379.81,18.72ZM374,17.36a3.73,3.73,0,0,0,2.1.49,3.84,3.84,0,0,0,2.1-.48,1.59,1.59,0,0,0,0-2.69,4.93,4.93,0,0,0-4.2,0,1.58,1.58,0,0,0,0,2.68Zm-.37-6.51A1.37,1.37,0,0,0,374.3,12a3.2,3.2,0,0,0,1.82.43,3.24,3.24,0,0,0,1.82-.43,1.43,1.43,0,0,0,0-2.39,3.94,3.94,0,0,0-3.62,0A1.36,1.36,0,0,0,373.65,10.85Z" fill="#003a50"/><path d="M154.67,139.09,152.18,141v-2.25l2.74-2.26h1.86v11.91h-2.11Z" fill="#003a50"/><path d="M169.17,148.44h-9.94v-1.56a2.8,2.8,0,0,1,.59-1.75,3.87,3.87,0,0,1,1.44-1.19c.5-.26,1.12-.55,1.87-.87s1.32-.55,1.88-.77a4.22,4.22,0,0,0,1.44-.91,1.82,1.82,0,0,0,.57-1.31c0-1.25-.88-1.88-2.66-1.88s-2.68.72-2.68,2.16v.4h-2.1v-.4a3.62,3.62,0,0,1,1.26-3,5.4,5.4,0,0,1,3.51-1,5.68,5.68,0,0,1,3.51,1,3.29,3.29,0,0,1,1.27,2.75,3.17,3.17,0,0,1-.55,1.84,4.39,4.39,0,0,1-1.41,1.3c-.59.34-1.21.65-1.83.93s-1.24.53-1.83.75a5.26,5.26,0,0,0-1.4.75,1.22,1.22,0,0,0-.57.95h7.63Z" fill="#003a50"/><path d="M171.27,148.3a1,1,0,0,1-.33-.8,1,1,0,0,1,.33-.81,1.23,1.23,0,0,1,.87-.3,1.2,1.2,0,0,1,.86.3,1,1,0,0,1,.33.81,1,1,0,0,1-.33.8,1.2,1.2,0,0,1-.86.3A1.23,1.23,0,0,1,171.27,148.3Z" fill="#003a50"/><path d="M185.05,148.44h-9.94v-1.56a2.8,2.8,0,0,1,.59-1.75,3.87,3.87,0,0,1,1.44-1.19c.5-.26,1.12-.55,1.87-.87s1.32-.55,1.88-.77a4.22,4.22,0,0,0,1.44-.91,1.82,1.82,0,0,0,.57-1.31c0-1.25-.88-1.88-2.66-1.88s-2.68.72-2.68,2.16v.4h-2.11v-.4a3.63,3.63,0,0,1,1.27-3,5.4,5.4,0,0,1,3.51-1,5.7,5.7,0,0,1,3.51,1,3.29,3.29,0,0,1,1.27,2.75,3.17,3.17,0,0,1-.55,1.84,4.39,4.39,0,0,1-1.41,1.3c-.59.34-1.21.65-1.83.93s-1.24.53-1.83.75a5.26,5.26,0,0,0-1.4.75,1.22,1.22,0,0,0-.57.95h7.63Z" fill="#003a50"/><path d="M436.75,162.25h-5.83v-1.84h8.87v1.84l-4.53,2.65V165h1.28a3.86,3.86,0,0,1,2.79,1,3.52,3.52,0,0,1,1.05,2.67,3.32,3.32,0,0,1-1.33,2.82,7,7,0,0,1-7.24,0,3.39,3.39,0,0,1-1.33-2.86v-.32h2.11v.32c0,1.36,1,2,2.84,2s2.84-.67,2.84-2-.94-2-2.84-2h-3.26V165l4.58-2.68Z" fill="#003a50"/><path d="M442.48,172.18a1,1,0,0,1-.32-.8,1.07,1.07,0,0,1,.32-.81,1.25,1.25,0,0,1,.88-.3,1.22,1.22,0,0,1,.86.3,1,1,0,0,1,.32.81,1,1,0,0,1-.32.8,1.22,1.22,0,0,1-.86.3A1.25,1.25,0,0,1,442.48,172.18Z" fill="#003a50"/><path d="M455.07,171.55a7.73,7.73,0,0,1-7.37,0,2.93,2.93,0,0,1-1.37-2.55,2.71,2.71,0,0,1,.26-1.17,2.37,2.37,0,0,1,.65-.85,3.81,3.81,0,0,1,1.4-.77l.26-.07V166a3.38,3.38,0,0,1-.77-.29,2.91,2.91,0,0,1-.66-.44,2.35,2.35,0,0,1-.54-.76,2.39,2.39,0,0,1-.23-1,2.8,2.8,0,0,1,1.26-2.38,5.74,5.74,0,0,1,3.42-.9,5.81,5.81,0,0,1,3.43.9,2.82,2.82,0,0,1,1.24,2.38,2.43,2.43,0,0,1-.22,1,1.83,1.83,0,0,1-.55.75,3.59,3.59,0,0,1-1.19.68l-.23,0v.09a1.54,1.54,0,0,1,.28.07,4,4,0,0,1,.63.26,4.67,4.67,0,0,1,.77.51,2.77,2.77,0,0,1,.89,2A3,3,0,0,1,455.07,171.55Zm-5.79-1.35a3.84,3.84,0,0,0,2.1.48,3.94,3.94,0,0,0,2.1-.47,1.53,1.53,0,0,0,.74-1.35,1.51,1.51,0,0,0-.74-1.35,4.93,4.93,0,0,0-4.2,0,1.59,1.59,0,0,0,0,2.69Zm-.37-6.52a1.37,1.37,0,0,0,.65,1.19,4,4,0,0,0,3.64,0,1.42,1.42,0,0,0,0-2.39,3.94,3.94,0,0,0-3.62,0A1.36,1.36,0,0,0,448.91,163.68Z" fill="#003a50"/><path d="M482.39,232.54h-9.93V231a2.74,2.74,0,0,1,.58-1.74,4,4,0,0,1,1.45-1.2c.49-.25,1.12-.54,1.86-.86l1.88-.78a4.21,4.21,0,0,0,1.45-.91,1.8,1.8,0,0,0,.57-1.3q0-1.89-2.67-1.89t-2.67,2.16v.41H472.8v-.41a3.62,3.62,0,0,1,1.26-3,5.39,5.39,0,0,1,3.52-1,5.65,5.65,0,0,1,3.51,1,3.27,3.27,0,0,1,1.27,2.75,3.14,3.14,0,0,1-.56,1.83,4.29,4.29,0,0,1-1.4,1.31c-.6.34-1.21.65-1.84.93s-1.23.52-1.82.74a5.18,5.18,0,0,0-1.41.75,1.23,1.23,0,0,0-.56,1h7.62Z" fill="#003a50"/><path d="M484.49,232.41a1.17,1.17,0,0,1,0-1.61,1.25,1.25,0,0,1,.88-.3,1.23,1.23,0,0,1,.86.3,1.17,1.17,0,0,1,0,1.61,1.23,1.23,0,0,1-.86.3A1.25,1.25,0,0,1,484.49,232.41Z" fill="#003a50"/><path d="M498.11,224H495.9s0-.07,0-.18a2.94,2.94,0,0,0-.22-.44,2.69,2.69,0,0,0-.39-.5,1.9,1.9,0,0,0-.71-.41,3.18,3.18,0,0,0-1-.16,2.52,2.52,0,0,0-2.16,1,4.47,4.47,0,0,0-.76,2.68h.06a1.79,1.79,0,0,1,.44-.43,4.24,4.24,0,0,1,.61-.36,4.06,4.06,0,0,1,.95-.31,6.06,6.06,0,0,1,1.21-.13,5,5,0,0,1,3.37,1.12,3.51,3.51,0,0,1,1.31,2.8,3.59,3.59,0,0,1-1.36,2.9,5.54,5.54,0,0,1-3.61,1.11,4.81,4.81,0,0,1-3.87-1.55,6.36,6.36,0,0,1-1.32-4.27v-.4a6.83,6.83,0,0,1,1.32-4.31,4.52,4.52,0,0,1,3.81-1.71,5.64,5.64,0,0,1,2.12.37,3.84,3.84,0,0,1,1.44.94A3.43,3.43,0,0,1,498.11,224Zm-2.5,3.14a3.67,3.67,0,0,0-4,0,2,2,0,0,0,0,3.15,3.63,3.63,0,0,0,4,0,2,2,0,0,0,0-3.15Z" fill="#003a50"/><path d="M452.49,312.55h-9.93V311a2.79,2.79,0,0,1,.58-1.75,3.91,3.91,0,0,1,1.45-1.19c.49-.26,1.12-.55,1.87-.87s1.32-.55,1.87-.77a4.36,4.36,0,0,0,1.45-.91,1.82,1.82,0,0,0,.57-1.31c0-1.25-.89-1.88-2.67-1.88S445,303,445,304.47v.4H442.9v-.4a3.62,3.62,0,0,1,1.26-3,5.45,5.45,0,0,1,3.52-1,5.72,5.72,0,0,1,3.51,1,3.29,3.29,0,0,1,1.27,2.75,3.17,3.17,0,0,1-.56,1.84,4.26,4.26,0,0,1-1.4,1.3,18.66,18.66,0,0,1-1.84.93c-.62.28-1.23.53-1.82.75a5.18,5.18,0,0,0-1.41.75,1.23,1.23,0,0,0-.56.95h7.62Z" fill="#003a50"/><path d="M454.59,312.41a1,1,0,0,1-.32-.8,1.07,1.07,0,0,1,.32-.81,1.25,1.25,0,0,1,.88-.3,1.22,1.22,0,0,1,.86.3,1.07,1.07,0,0,1,.32.81,1,1,0,0,1-.32.8,1.22,1.22,0,0,1-.86.3A1.25,1.25,0,0,1,454.59,312.41Z" fill="#003a50"/><path d="M468.37,312.55h-9.93V311a2.79,2.79,0,0,1,.58-1.75,3.83,3.83,0,0,1,1.45-1.19c.49-.26,1.12-.55,1.86-.87s1.33-.55,1.88-.77a4.36,4.36,0,0,0,1.45-.91,1.82,1.82,0,0,0,.57-1.31c0-1.25-.89-1.88-2.67-1.88s-2.67.72-2.67,2.16v.4h-2.11v-.4a3.62,3.62,0,0,1,1.26-3,5.44,5.44,0,0,1,3.51-1,5.73,5.73,0,0,1,3.52,1,3.29,3.29,0,0,1,1.27,2.75,3.17,3.17,0,0,1-.56,1.84,4.26,4.26,0,0,1-1.4,1.3,18.66,18.66,0,0,1-1.84.93c-.62.28-1.23.53-1.82.75a5.18,5.18,0,0,0-1.41.75,1.23,1.23,0,0,0-.56.95h7.62Z" fill="#003a50"/><path d="M228.5,232.54h-9.94V231a2.75,2.75,0,0,1,.59-1.74,4,4,0,0,1,1.44-1.2c.5-.25,1.12-.54,1.87-.86s1.32-.56,1.88-.78a4.07,4.07,0,0,0,1.44-.91,1.8,1.8,0,0,0,.57-1.3c0-1.26-.88-1.89-2.66-1.89S221,223,221,224.46v.41h-2.1v-.41a3.62,3.62,0,0,1,1.26-3,5.34,5.34,0,0,1,3.51-1,5.61,5.61,0,0,1,3.51,1,3.27,3.27,0,0,1,1.27,2.75,3.14,3.14,0,0,1-.55,1.83,4.42,4.42,0,0,1-1.41,1.31c-.59.34-1.21.65-1.83.93s-1.24.52-1.83.74a5.26,5.26,0,0,0-1.4.75,1.22,1.22,0,0,0-.57,1h7.63Z" fill="#003a50"/><path d="M232.09,231a7.37,7.37,0,0,1,0-8.83,5.71,5.71,0,0,1,8.13,0,7.33,7.33,0,0,1,0,8.83,5.69,5.69,0,0,1-8.13,0Zm6.53-1.38a5.73,5.73,0,0,0,0-6.07,3.15,3.15,0,0,0-4.92,0,5.67,5.67,0,0,0,0,6.07,3.14,3.14,0,0,0,4.92,0Z" fill="#003a50"/><path d="M243.89,232.41a1.17,1.17,0,0,1,0-1.61,1.25,1.25,0,0,1,.88-.3,1.22,1.22,0,0,1,.86.3,1.17,1.17,0,0,1,0,1.61,1.22,1.22,0,0,1-.86.3A1.25,1.25,0,0,1,243.89,232.41Z" fill="#003a50"/><path d="M253.18,224.56a5.06,5.06,0,0,1,3.34,1.06,4.19,4.19,0,0,1,0,6,5.41,5.41,0,0,1-3.55,1.08,5.84,5.84,0,0,1-3.56-1,3.18,3.18,0,0,1-1.29-2.69h2.11a1.54,1.54,0,0,0,.7,1.34,3.62,3.62,0,0,0,2,.48,3.15,3.15,0,0,0,2-.57,2.37,2.37,0,0,0,0-3.39,3.26,3.26,0,0,0-2.08-.58,3.64,3.64,0,0,0-1.91.41,1.92,1.92,0,0,0-.7.64l-.05.13h-2.11v-6.88H257v1.85h-6.77v3h.05a1.89,1.89,0,0,1,.4-.3,2.81,2.81,0,0,1,.55-.27A5.6,5.6,0,0,1,253.18,224.56Z" fill="#003a50"/><path d="M298,128.54h-9.93V127a2.79,2.79,0,0,1,.58-1.75,3.83,3.83,0,0,1,1.45-1.19c.49-.26,1.12-.55,1.86-.87s1.33-.55,1.88-.77a4.36,4.36,0,0,0,1.45-.91,1.82,1.82,0,0,0,.57-1.31c0-1.25-.89-1.88-2.67-1.88s-2.67.72-2.67,2.16v.4H288.4v-.4a3.62,3.62,0,0,1,1.26-3,5.44,5.44,0,0,1,3.51-1,5.73,5.73,0,0,1,3.52,1,3.29,3.29,0,0,1,1.27,2.75,3.17,3.17,0,0,1-.56,1.84,4.16,4.16,0,0,1-1.4,1.3,16.7,16.7,0,0,1-1.84.93c-.62.28-1.23.53-1.82.75a5.18,5.18,0,0,0-1.41.75,1.23,1.23,0,0,0-.56,1H298Z" fill="#003a50"/><path d="M300.09,128.4a1,1,0,0,1-.32-.8,1.07,1.07,0,0,1,.32-.81,1.41,1.41,0,0,1,1.74,0,1.07,1.07,0,0,1,.32.81,1,1,0,0,1-.32.8,1.41,1.41,0,0,1-1.74,0Z" fill="#003a50"/><path d="M306,119.19l-2.49,2V118.9l2.74-2.27h1.86v11.91H306Z" fill="#003a50"/></g></svg>