<svg id="Слой_1" data-name="Слой 1" xmlns="http://www.w3.org/2000/svg" xmlns:xlink="http://www.w3.org/1999/xlink" viewBox="0 0 586.77 547.09"><defs><clipPath id="clip-path"><polygon points="0.85 0 0.85 419.1 14.31 419.1 14.31 480.67 267.93 480.67 267.93 547.09 586.77 547.09 586.77 0 0.85 0" fill="none"/></clipPath></defs><polygon points="580.24 14.04 580.24 365.2 586.77 365.15 586.77 14.04 580.24 14.04" fill="#fff"/><polygon points="16.86 15.69 16.86 353.89 16.86 367.27 16.86 469 286.06 469 286.06 533.25 513.5 537.14 526.37 535.72 524.15 429.91 524.15 382.62 527.79 367.27 572.68 367.27 572.68 15.69 16.86 15.69" fill="#fff"/><polygon points="16.86 467.71 16.86 480.67 267.93 480.67 267.93 547.09 513.51 547.09 513.49 534.61 287.99 534.61 287.99 467.71 16.86 467.71" fill="#fff"/><g clip-path="url(#clip-path)"><rect x="4.28" y="3.13" width="1162.95" height="2240.57" fill="none" stroke="#003a50" stroke-miterlimit="10"/><polygon points="16.86 1107.3 16.86 2230.85 1154.25 2230.85 1154.25 16.08 16.86 15.92 16.86 1036.59 16.86 1107.3" fill="none" stroke="#003a50" stroke-miterlimit="10"/></g><rect x="419.6" y="35.37" width="85.42" height="4.56" fill="#fff"/><rect x="419.6" y="35.37" width="85.42" height="4.56" fill="none" stroke="#003a50" stroke-miterlimit="10"/><line x1="505.02" y1="37.65" x2="419.6" y2="37.65" fill="none" stroke="#003a50" stroke-miterlimit="10"/><rect x="500.47" y="35.37" width="4.55" height="4.56" fill="#fff"/><rect x="500.47" y="35.37" width="4.55" height="4.56" fill="none" stroke="#003a50" stroke-miterlimit="10"/><rect x="419.6" y="35.37" width="4.55" height="4.56" fill="#fff"/><rect x="419.6" y="35.37" width="4.55" height="4.56" fill="none" stroke="#003a50" stroke-miterlimit="10"/><rect x="460.16" y="35.37" width="4.55" height="4.56" fill="#fff"/><rect x="460.16" y="35.37" width="4.55" height="4.56" fill="none" stroke="#003a50" stroke-miterlimit="10"/><g clip-path="url(#clip-path)"><path d="M460.16,39.93v2.9c0,20.14-16.12,33.1-36,33.1v-36" fill="none" stroke="#003a50" stroke-miterlimit="10"/></g><rect x="297.58" y="35.37" width="87.81" height="4.56" fill="#fff"/><rect x="297.58" y="35.37" width="87.81" height="4.56" fill="none" stroke="#003a50" stroke-miterlimit="10"/><line x1="385.38" y1="37.65" x2="297.57" y2="37.65" fill="none" stroke="#003a50" stroke-miterlimit="10"/><rect x="380.83" y="35.37" width="4.55" height="4.56" fill="#fff"/><rect x="380.83" y="35.37" width="4.55" height="4.56" fill="none" stroke="#003a50" stroke-miterlimit="10"/><rect x="297.58" y="35.37" width="4.55" height="4.56" fill="#fff"/><rect x="297.58" y="35.37" width="4.55" height="4.56" fill="none" stroke="#003a50" stroke-miterlimit="10"/><rect x="338.13" y="35.37" width="4.55" height="4.56" fill="#fff"/><rect x="338.13" y="35.37" width="4.55" height="4.56" fill="none" stroke="#003a50" stroke-miterlimit="10"/><g clip-path="url(#clip-path)"><path d="M338.13,39.93v2.9c0,20.14-16.12,33.1-36,33.1v-36" fill="none" stroke="#003a50" stroke-miterlimit="10"/></g><rect x="113.02" y="35.37" width="89.88" height="4.56" fill="#fff"/><rect x="113.02" y="35.37" width="89.88" height="4.56" fill="none" stroke="#003a50" stroke-miterlimit="10" stroke-width="1.01"/><line x1="113.02" y1="37.65" x2="202.9" y2="37.65" fill="none" stroke="#003a50" stroke-miterlimit="10" stroke-width="1.01"/><rect x="113.02" y="35.37" width="4.66" height="4.56" fill="#fff"/><rect x="113.02" y="35.37" width="4.66" height="4.56" fill="none" stroke="#003a50" stroke-miterlimit="10" stroke-width="1.01"/><rect x="198.24" y="35.37" width="4.66" height="4.56" fill="#fff"/><rect x="198.24" y="35.37" width="4.66" height="4.56" fill="none" stroke="#003a50" stroke-miterlimit="10" stroke-width="1.01"/><rect x="156.73" y="35.37" width="4.66" height="4.56" fill="#fff"/><rect x="156.73" y="35.37" width="4.66" height="4.56" fill="none" stroke="#003a50" stroke-miterlimit="10" stroke-width="1.01"/><g clip-path="url(#clip-path)"><path d="M161.39,39.93v2.9c0,20.14,16.5,33.1,36.85,33.1v-36" fill="none" stroke="#003a50" stroke-miterlimit="10" stroke-width="1.01"/></g><rect x="37.48" y="304.04" width="4.55" height="90.18" fill="#fff"/><rect x="37.48" y="304.04" width="4.55" height="90.18" fill="none" stroke="#003a50" stroke-miterlimit="10"/><line x1="39.76" y1="394.22" x2="39.76" y2="304.04" fill="none" stroke="#003a50" stroke-miterlimit="10"/><rect x="37.48" y="389.66" width="4.55" height="4.55" fill="#fff"/><rect x="37.48" y="389.66" width="4.55" height="4.55" fill="none" stroke="#003a50" stroke-miterlimit="10"/><rect x="37.48" y="304.04" width="4.55" height="4.56" fill="#fff"/><rect x="37.48" y="304.04" width="4.55" height="4.56" fill="none" stroke="#003a50" stroke-miterlimit="10"/><rect x="37.48" y="344.59" width="4.55" height="4.56" fill="#fff"/><rect x="37.48" y="344.59" width="4.55" height="4.56" fill="none" stroke="#003a50" stroke-miterlimit="10"/><g clip-path="url(#clip-path)"><path d="M42,344.59h2.9c20.15,0,33.1-16.11,33.1-36H42" fill="none" stroke="#003a50" stroke-miterlimit="10"/></g><rect x="37.48" y="119.09" width="4.55" height="90.17" fill="#fff"/><rect x="37.48" y="119.09" width="4.55" height="90.17" fill="none" stroke="#003a50" stroke-miterlimit="10"/><line x1="39.76" y1="119.09" x2="39.76" y2="209.26" fill="none" stroke="#003a50" stroke-miterlimit="10"/><rect x="37.48" y="119.09" width="4.55" height="4.55" fill="#fff"/><rect x="37.48" y="119.09" width="4.55" height="4.55" fill="none" stroke="#003a50" stroke-miterlimit="10"/><rect x="37.48" y="204.71" width="4.55" height="4.55" fill="#fff"/><rect x="37.48" y="204.71" width="4.55" height="4.55" fill="none" stroke="#003a50" stroke-miterlimit="10"/><rect x="37.48" y="164.16" width="4.55" height="4.55" fill="#fff"/><rect x="37.48" y="164.16" width="4.55" height="4.55" fill="none" stroke="#003a50" stroke-miterlimit="10"/><g clip-path="url(#clip-path)"><path d="M42,168.71h2.9c20.15,0,33.1,16.11,33.1,36H42" fill="none" stroke="#003a50" stroke-miterlimit="10"/><path d="M42,535.42h2.9c20.15,0,33.1,16.34,33.1,36.49H42" fill="none" stroke="#003a50" stroke-miterlimit="10" stroke-width="1.01"/><path d="M111,317.51a1.25,1.25,0,0,1-1.21,1.3,13.79,13.79,0,0,0,1.07,27.55,1.26,1.26,0,1,1,.1,2.51,16.3,16.3,0,1,1-1.27-32.57A1.26,1.26,0,0,1,111,317.51Z" fill="none" stroke="#003a50" stroke-miterlimit="10"/><path d="M117.93,355.06a1.26,1.26,0,0,1,.86,1.56,13.79,13.79,0,0,0,26.54,7.49,1.26,1.26,0,1,1,2.42.69,16.3,16.3,0,0,1-31.38-8.87A1.27,1.27,0,0,1,117.93,355.06Z" fill="none" stroke="#003a50" stroke-miterlimit="10"/><path d="M155.7,359.43a1.25,1.25,0,0,1,1.74-.35,13.79,13.79,0,1,0,15.33-22.92,1.26,1.26,0,1,1,1.4-2.09,16.3,16.3,0,0,1-18.12,27.1A1.25,1.25,0,0,1,155.7,359.43Z" fill="none" stroke="#003a50" stroke-miterlimit="10"/><path d="M172.88,324.86a1.26,1.26,0,0,1,.21-1.77A13.79,13.79,0,1,0,156,301.43a1.26,1.26,0,1,1-1.56-2,16.3,16.3,0,1,1,20.18,25.6A1.26,1.26,0,0,1,172.88,324.86Z" fill="none" stroke="#003a50" stroke-miterlimit="10"/><path d="M144.06,300.8a1.26,1.26,0,0,1-.86-1.56,13.79,13.79,0,0,0-26.46-7.75,1.25,1.25,0,1,1-2.41-.7A16.3,16.3,0,1,1,145.62,300,1.26,1.26,0,0,1,144.06,300.8Z" fill="none" stroke="#003a50" stroke-miterlimit="10"/><path d="M120.81,344.82l-9.36.36a12.65,12.65,0,1,1-1-25.28l9-.32a23.7,23.7,0,0,0,1.28,25.24Z" fill="none" stroke="#003a50" stroke-miterlimit="10"/><path d="M147,354.06l-2.56,9.08a12.65,12.65,0,0,1-24.36-6.84l2.6-9.2a23.6,23.6,0,0,0,24.32,7Z" fill="none" stroke="#003a50" stroke-miterlimit="10"/><path d="M175.05,354.26a12.67,12.67,0,0,1-17.52,3.52l-7.28-4.88a23.88,23.88,0,0,0,13.12-15.24,24.8,24.8,0,0,0,.84-5.84l7.36,4.92A12.63,12.63,0,0,1,175.05,354.26Z" fill="none" stroke="#003a50" stroke-miterlimit="10"/><path d="M171.85,322.62l-7.72,6.08a23.88,23.88,0,0,0-15.56-20l7.64-6a12.65,12.65,0,1,1,15.64,19.88Z" fill="none" stroke="#003a50" stroke-miterlimit="10"/><path d="M141.93,299.54l-2.28,7.76a23.58,23.58,0,0,0-9.08,2.12l-15.28-4.48a1.21,1.21,0,0,1-.84-1.52l3.08-10.64a12.87,12.87,0,0,1,13.2-9.4A12.67,12.67,0,0,1,141.93,299.54Z" fill="none" stroke="#003a50" stroke-miterlimit="10"/><path d="M164.21,331.82a24.8,24.8,0,0,1-.84,5.84,23.88,23.88,0,0,1-13.12,15.24,24.6,24.6,0,0,1-3.28,1.16,23.6,23.6,0,0,1-24.32-7,25.46,25.46,0,0,1-1.84-2.28,23.7,23.7,0,0,1-1.28-25.24,24,24,0,0,1,11-10.16,23.84,23.84,0,0,1,16.32-1.24c.56.16,1.12.36,1.68.56a23.88,23.88,0,0,1,15.56,20A27.09,27.09,0,0,1,164.21,331.82Z" fill="none" stroke="#003a50" stroke-miterlimit="10"/></g><rect x="314.7" y="504.41" width="72.48" height="29.76" fill="none" stroke="#003a50" stroke-miterlimit="10"/><rect x="52.98" y="433.41" width="230.49" height="34.02" fill="none" stroke="#003a50" stroke-miterlimit="10"/><g clip-path="url(#clip-path)"><path d="M508.27,333.52v28.85H485.48V333.52a11.4,11.4,0,1,1,22.79,0Z" fill="none" stroke="#003a50" stroke-miterlimit="10"/></g><line x1="485.48" y1="351.14" x2="508.27" y2="351.14" fill="none" stroke="#003a50" stroke-miterlimit="10"/><g clip-path="url(#clip-path)"><path d="M524.16,298.32h23a3.35,3.35,0,0,1,3.36,3.35v22.25a3.36,3.36,0,0,1-3.36,3.36h-23a3.37,3.37,0,0,1-3.36-3.36V301.67A3.36,3.36,0,0,1,524.16,298.32Z" fill="none" stroke="#003a50" stroke-miterlimit="10"/><path d="M533.39,312.8a2.27,2.27,0,1,1,2.27,2.26A2.26,2.26,0,0,1,533.39,312.8Z" fill="none" stroke="#003a50" stroke-miterlimit="10"/></g><rect x="518.4" y="288.75" width="29.48" height="73.78" fill="none" stroke="#003a50" stroke-miterlimit="10"/><rect x="453.97" y="247.11" width="93.07" height="41.64" fill="none" stroke="#003a50" stroke-miterlimit="10"/><g clip-path="url(#clip-path)"><path d="M527.84,283.6H473.16A15.39,15.39,0,0,1,458.05,268v0a15.38,15.38,0,0,1,15.11-15.64h54.68A15.38,15.38,0,0,1,543,267.91v0A15.39,15.39,0,0,1,527.84,283.6Z" fill="none" stroke="#003a50" stroke-miterlimit="10"/><path d="M526,267.93a2.19,2.19,0,1,1,2.19,2.27A2.22,2.22,0,0,1,526,267.93Z" fill="none" stroke="#003a50" stroke-miterlimit="10"/><path d="M524.16,331.9h23a3.37,3.37,0,0,1,3.36,3.36v22.25a3.36,3.36,0,0,1-3.36,3.35h-23a3.36,3.36,0,0,1-3.36-3.35V335.26A3.37,3.37,0,0,1,524.16,331.9Z" fill="none" stroke="#003a50" stroke-miterlimit="10"/><path d="M533.39,346.38a2.27,2.27,0,1,1,2.27,2.27A2.26,2.26,0,0,1,533.39,346.38Z" fill="none" stroke="#003a50" stroke-miterlimit="10"/></g><rect x="387.22" y="438.1" width="43.33" height="96.06" fill="none" stroke="#003a50" stroke-miterlimit="10"/><g clip-path="url(#clip-path)"><path d="M392.59,514V458.25a15.93,15.93,0,0,1,15.93-15.93h.73a15.94,15.94,0,0,1,15.94,15.93V514a15.94,15.94,0,0,1-15.94,15.93h-.73A15.93,15.93,0,0,1,392.59,514Z" fill="none" stroke="#003a50" stroke-miterlimit="10"/><path d="M408.89,512.42a2.27,2.27,0,1,1-2.27,2.27A2.27,2.27,0,0,1,408.89,512.42Z" fill="none" stroke="#003a50" stroke-miterlimit="10"/><rect x="379.69" y="546.63" width="41.13" height="98.9" fill="none" stroke="#003a50" stroke-miterlimit="10"/><path d="M343.62,477.54H314.77V454.75h28.85a11.4,11.4,0,1,1,0,22.79Z" fill="none" stroke="#003a50" stroke-miterlimit="10"/></g><line x1="326" y1="454.75" x2="326" y2="477.54" fill="none" stroke="#003a50" stroke-miterlimit="10"/><g clip-path="url(#clip-path)"><rect x="354.46" y="506.81" width="28.96" height="29.71" rx="3.36" fill="none" stroke="#003a50" stroke-miterlimit="10"/><circle cx="368.94" cy="521.66" r="2.27" transform="translate(-216.66 777.23) rotate(-78.31)" fill="none" stroke="#003a50" stroke-miterlimit="10"/><rect x="420.93" y="546.98" width="37.82" height="26.34" fill="none" stroke="#003a50" stroke-miterlimit="10"/><rect x="426.53" y="544.88" width="25.64" height="26.31" rx="2.97" fill="none" stroke="#003a50" stroke-miterlimit="10"/></g><rect x="315.01" y="504.42" width="34.02" height="28.84" fill="none" stroke="#003a50" stroke-miterlimit="10"/><g clip-path="url(#clip-path)"><path d="M337.33,510.53h-2.12a3.07,3.07,0,0,1-5.72,0h-2.78l-5.28,3,2.52,4,2.38-1.27v10.86H337.7V516.28l2.38,1.27,2.53-4Z" fill="none" stroke="#003a50" stroke-miterlimit="10"/><rect x="458.75" y="547.16" width="30.12" height="25.9" fill="none" stroke="#003a50" stroke-miterlimit="10"/></g><rect x="108.66" y="433.41" width="34.02" height="34.02" fill="none" stroke="#003a50" stroke-miterlimit="10"/><g clip-path="url(#clip-path)"><path d="M138.07,458a4.69,4.69,0,1,1-4.69-4.7A4.69,4.69,0,0,1,138.07,458Z" fill="none" stroke="#003a50" stroke-miterlimit="10"/><path d="M122.64,458a4.69,4.69,0,1,1-4.69-4.7A4.69,4.69,0,0,1,122.64,458Z" fill="none" stroke="#003a50" stroke-miterlimit="10"/><path d="M138.07,442.84a4.69,4.69,0,1,1-4.69-4.7A4.69,4.69,0,0,1,138.07,442.84Z" fill="none" stroke="#003a50" stroke-miterlimit="10"/><path d="M122.64,442.84a4.69,4.69,0,1,1-4.69-4.7A4.69,4.69,0,0,1,122.64,442.84Z" fill="none" stroke="#003a50" stroke-miterlimit="10"/></g><rect x="218.27" y="433.41" width="34.02" height="34.02" fill="none" stroke="#003a50" stroke-miterlimit="10"/><line x1="235.28" y1="453.17" x2="235.28" y2="463.73" fill="none" stroke="#003a50" stroke-miterlimit="10"/><g clip-path="url(#clip-path)"><path d="M236.19,453.17h-1.82a3.39,3.39,0,0,1-3.39-3.39v-11.2h8.6v11.2A3.39,3.39,0,0,1,236.19,453.17Z" fill="none" stroke="#003a50" stroke-miterlimit="10"/></g><line x1="231.8" y1="463.73" x2="238.75" y2="463.73" fill="none" stroke="#003a50" stroke-miterlimit="10"/><rect x="53" y="433.41" width="34.02" height="34.02" fill="none" stroke="#003a50" stroke-miterlimit="10"/><line x1="70.01" y1="460.4" x2="70.01" y2="440.44" fill="none" stroke="#003a50" stroke-miterlimit="10"/><line x1="79.99" y1="450.42" x2="60.03" y2="450.42" fill="none" stroke="#003a50" stroke-miterlimit="10"/><line x1="77.06" y1="457.48" x2="62.95" y2="443.37" fill="none" stroke="#003a50" stroke-miterlimit="10"/><line x1="77.06" y1="443.36" x2="62.95" y2="457.48" fill="none" stroke="#003a50" stroke-miterlimit="10"/><g clip-path="url(#clip-path)"><path d="M192.09,459.06H168.74a3.35,3.35,0,0,1-3.35-3.36V440.75a3.36,3.36,0,0,1,3.35-3.36h23.35a3.36,3.36,0,0,1,3.36,3.36V455.7A3.35,3.35,0,0,1,192.09,459.06Z" fill="none" stroke="#003a50" stroke-miterlimit="10"/><circle cx="180.42" cy="452.02" r="2.46" fill="none" stroke="#003a50" stroke-miterlimit="10"/></g><line x1="180.42" y1="451.27" x2="180.42" y2="464.88" fill="none" stroke="#003a50" stroke-miterlimit="10"/><line x1="173.61" y1="464.88" x2="187.22" y2="464.88" fill="none" stroke="#003a50" stroke-miterlimit="10"/><g clip-path="url(#clip-path)"><rect x="339.15" y="547.32" width="34.02" height="68.03" fill="none" stroke="#003a50" stroke-miterlimit="10"/><rect x="273.94" y="546.63" width="65.21" height="29.22" fill="none" stroke="#003a50" stroke-miterlimit="10"/></g><rect x="437.5" y="502.2" width="56.47" height="30.8" fill="none" stroke="#003a50" stroke-miterlimit="10"/><g clip-path="url(#clip-path)"><path d="M453,506.57a.92.92,0,0,1,.51-.82.9.9,0,0,1,1.21.42,26,26,0,0,1,0,22.86.91.91,0,1,1-1.63-.8,24.2,24.2,0,0,0,0-21.26A1,1,0,0,1,453,506.57Z" fill="none" stroke="#003a50" stroke-miterlimit="10"/><path d="M458,506.57a.92.92,0,0,1,.51-.82.9.9,0,0,1,1.21.42,26,26,0,0,1,0,22.86.91.91,0,1,1-1.63-.8,24.2,24.2,0,0,0,0-21.26A1,1,0,0,1,458,506.57Z" fill="none" stroke="#003a50" stroke-miterlimit="10"/><path d="M463.08,506.57a.9.9,0,0,1,1.72-.4,26.06,26.06,0,0,1,0,22.86.91.91,0,1,1-1.63-.8,24.2,24.2,0,0,0,0-21.26A.83.83,0,0,1,463.08,506.57Z" fill="none" stroke="#003a50" stroke-miterlimit="10"/><path d="M468.12,506.57a.9.9,0,0,1,1.72-.4,26.06,26.06,0,0,1,0,22.86.91.91,0,1,1-1.63-.8,24.2,24.2,0,0,0,0-21.26A.83.83,0,0,1,468.12,506.57Z" fill="none" stroke="#003a50" stroke-miterlimit="10"/><path d="M473.15,506.57a.91.91,0,0,1,1.73-.4,26.06,26.06,0,0,1,0,22.86.91.91,0,1,1-1.63-.8,24.2,24.2,0,0,0,0-21.26A.85.85,0,0,1,473.15,506.57Z" fill="none" stroke="#003a50" stroke-miterlimit="10"/><path d="M478.19,506.57a.91.91,0,0,1,1.73-.4,26.06,26.06,0,0,1,0,22.86.91.91,0,1,1-1.63-.8,24.2,24.2,0,0,0,0-21.26A.85.85,0,0,1,478.19,506.57Z" fill="none" stroke="#003a50" stroke-miterlimit="10"/><path d="M448,506.57a.92.92,0,0,1,.51-.82.9.9,0,0,1,1.21.42,26,26,0,0,1,0,22.86.91.91,0,1,1-1.63-.8,24.2,24.2,0,0,0,0-21.26A1,1,0,0,1,448,506.57Z" fill="none" stroke="#003a50" stroke-miterlimit="10"/><path d="M442.92,506.57a.92.92,0,0,1,.51-.82.9.9,0,0,1,1.21.42,26,26,0,0,1,0,22.86.9.9,0,1,1-1.62-.8A24.29,24.29,0,0,0,443,507,.85.85,0,0,1,442.92,506.57Z" fill="none" stroke="#003a50" stroke-miterlimit="10"/></g><line x1="437.5" y1="517.6" x2="493.97" y2="517.6" fill="none" stroke="#003a50" stroke-miterlimit="10"/><g clip-path="url(#clip-path)"><rect x="55.65" y="480.79" width="22.68" height="22.68" fill="none" stroke="#003a50" stroke-miterlimit="10"/><path d="M73.49,498.63a9.2,9.2,0,1,1,0-13A9.19,9.19,0,0,1,73.49,498.63Z" fill="none" stroke="#003a50" stroke-miterlimit="10"/><path d="M74.12,497.94c-1.7-.17-3.42.48-5.07-1.18-2.43-2.43.14-5-2.29-7.45s-5,.14-7.46-2.3" fill="none" stroke="#003a50" stroke-miterlimit="10"/><rect x="192.95" y="480.79" width="22.68" height="22.68" fill="none" stroke="#003a50" stroke-miterlimit="10"/><path d="M210.79,498.63a9.2,9.2,0,1,1,0-13A9.19,9.19,0,0,1,210.79,498.63Z" fill="none" stroke="#003a50" stroke-miterlimit="10"/><path d="M211.42,497.94c-1.7-.17-3.42.48-5.07-1.18-2.43-2.43.14-5-2.29-7.45s-5,.14-7.46-2.3" fill="none" stroke="#003a50" stroke-miterlimit="10"/><rect x="84.66" y="480.79" width="102.05" height="113.39" fill="none" stroke="#003a50" stroke-miterlimit="10"/><path d="M176.7,584.44h-82a2.09,2.09,0,0,1-2.09-2.09V514.71h86.22v67.64A2.09,2.09,0,0,1,176.7,584.44Z" fill="none" stroke="#003a50" stroke-miterlimit="10"/><rect x="92.32" y="488.22" width="42.5" height="22.88" rx="1.98" fill="none" stroke="#003a50" stroke-miterlimit="10"/><rect x="136.54" y="488.22" width="42.5" height="22.88" rx="1.98" fill="none" stroke="#003a50" stroke-miterlimit="10"/></g><rect x="300.37" y="234.98" width="79.37" height="34.02" fill="none" stroke="#003a50" stroke-miterlimit="10"/><rect x="320.11" y="275.33" width="34.02" height="87.1" fill="none" stroke="#003a50" stroke-miterlimit="10"/><g clip-path="url(#clip-path)"><path d="M324.93,345.36a1,1,0,0,1-.44-1.9,28.77,28.77,0,0,1,25.26,0,1,1,0,0,1-.89,1.8,26.72,26.72,0,0,0-23.49,0A1,1,0,0,1,324.93,345.36Z" fill="none" stroke="#003a50" stroke-miterlimit="10"/><path d="M324.93,339.8a1,1,0,0,1-.44-1.91,28.77,28.77,0,0,1,25.26,0,1,1,0,0,1,.45,1.34,1,1,0,0,1-1.34.46,26.81,26.81,0,0,0-23.49,0A1,1,0,0,1,324.93,339.8Z" fill="none" stroke="#003a50" stroke-miterlimit="10"/><path d="M324.93,334.23a1,1,0,0,1-.44-1.9,28.77,28.77,0,0,1,25.26,0,1,1,0,0,1-.89,1.8,26.72,26.72,0,0,0-23.49,0A1,1,0,0,1,324.93,334.23Z" fill="none" stroke="#003a50" stroke-miterlimit="10"/><path d="M324.93,328.67a1,1,0,0,1-.44-1.91,28.77,28.77,0,0,1,25.26,0,1,1,0,0,1,.45,1.34,1,1,0,0,1-1.34.46,26.81,26.81,0,0,0-23.49,0A1,1,0,0,1,324.93,328.67Z" fill="none" stroke="#003a50" stroke-miterlimit="10"/><path d="M324.93,323.1a1,1,0,0,1-.44-1.9,28.77,28.77,0,0,1,25.26,0,1,1,0,0,1-.89,1.8,26.72,26.72,0,0,0-23.49,0A1,1,0,0,1,324.93,323.1Z" fill="none" stroke="#003a50" stroke-miterlimit="10"/><path d="M324.93,317.53a1,1,0,0,1-.9-.56,1,1,0,0,1,.46-1.34,28.77,28.77,0,0,1,25.26,0,1,1,0,0,1-.89,1.8,26.72,26.72,0,0,0-23.49,0A1,1,0,0,1,324.93,317.53Z" fill="none" stroke="#003a50" stroke-miterlimit="10"/><path d="M324.93,350.93a1,1,0,0,1-.44-1.91,28.77,28.77,0,0,1,25.26,0,1,1,0,0,1,.45,1.34,1,1,0,0,1-1.34.46,26.81,26.81,0,0,0-23.49,0A1,1,0,0,1,324.93,350.93Z" fill="none" stroke="#003a50" stroke-miterlimit="10"/><path d="M324.93,356.49a1,1,0,0,1-.44-1.9,28.77,28.77,0,0,1,25.26,0,1,1,0,0,1-.89,1.8,26.72,26.72,0,0,0-23.49,0A1,1,0,0,1,324.93,356.49Z" fill="none" stroke="#003a50" stroke-miterlimit="10"/></g><line x1="337.12" y1="362.48" x2="337.12" y2="275.33" fill="none" stroke="#003a50" stroke-miterlimit="10"/><rect x="354.12" y="275.19" width="42.37" height="34.02" fill="none" stroke="#003a50" stroke-miterlimit="10"/><g clip-path="url(#clip-path)"><path d="M371.24,280a1,1,0,0,1,1.9-.44,28.77,28.77,0,0,1,0,25.26,1,1,0,0,1-1.8-.89,26.72,26.72,0,0,0,0-23.49A1,1,0,0,1,371.24,280Z" fill="none" stroke="#003a50" stroke-miterlimit="10"/><path d="M376.8,280a1,1,0,0,1,1.91-.44,28.77,28.77,0,0,1,0,25.26,1,1,0,0,1-1.34.45,1,1,0,0,1-.46-1.34,26.81,26.81,0,0,0,0-23.49A1,1,0,0,1,376.8,280Z" fill="none" stroke="#003a50" stroke-miterlimit="10"/><path d="M365.67,280a1,1,0,0,1,1.91-.44,28.77,28.77,0,0,1,0,25.26,1,1,0,0,1-1.34.45,1,1,0,0,1-.46-1.34,26.81,26.81,0,0,0,0-23.49A1,1,0,0,1,365.67,280Z" fill="none" stroke="#003a50" stroke-miterlimit="10"/><path d="M360.11,280a1,1,0,0,1,1.9-.44,28.77,28.77,0,0,1,0,25.26,1,1,0,0,1-1.8-.89,26.72,26.72,0,0,0,0-23.49A1,1,0,0,1,360.11,280Z" fill="none" stroke="#003a50" stroke-miterlimit="10"/></g><line x1="354.12" y1="292.2" x2="396.49" y2="292.2" fill="none" stroke="#003a50" stroke-miterlimit="10"/><rect x="279.16" y="275.47" width="34.02" height="92.09" fill="none" stroke="#003a50" stroke-miterlimit="10"/><g clip-path="url(#clip-path)"><path d="M284,350.5a1,1,0,0,1-.44-1.91,28.77,28.77,0,0,1,25.26,0,1,1,0,0,1,.45,1.34,1,1,0,0,1-1.34.46,26.81,26.81,0,0,0-23.49,0A1,1,0,0,1,284,350.5Z" fill="none" stroke="#003a50" stroke-miterlimit="10"/><path d="M284,344.93a1,1,0,0,1-.44-1.9,28.77,28.77,0,0,1,25.26,0,1,1,0,0,1-.89,1.8,26.72,26.72,0,0,0-23.49,0A1,1,0,0,1,284,344.93Z" fill="none" stroke="#003a50" stroke-miterlimit="10"/><path d="M284,339.37a1,1,0,0,1-.44-1.91,28.77,28.77,0,0,1,25.26,0,1,1,0,0,1,.45,1.34,1,1,0,0,1-1.34.46,26.81,26.81,0,0,0-23.49,0A1,1,0,0,1,284,339.37Z" fill="none" stroke="#003a50" stroke-miterlimit="10"/><path d="M284,333.8a1,1,0,0,1-.44-1.9,28.77,28.77,0,0,1,25.26,0,1,1,0,0,1-.89,1.8,26.72,26.72,0,0,0-23.49,0A1,1,0,0,1,284,333.8Z" fill="none" stroke="#003a50" stroke-miterlimit="10"/><path d="M284,328.24a1,1,0,0,1-.44-1.91,28.77,28.77,0,0,1,25.26,0,1,1,0,0,1,.45,1.34,1,1,0,0,1-1.34.46,26.81,26.81,0,0,0-23.49,0A1,1,0,0,1,284,328.24Z" fill="none" stroke="#003a50" stroke-miterlimit="10"/><path d="M284,322.67a1,1,0,0,1-.44-1.9,28.77,28.77,0,0,1,25.26,0,1,1,0,0,1-.89,1.8,26.72,26.72,0,0,0-23.49,0A1,1,0,0,1,284,322.67Z" fill="none" stroke="#003a50" stroke-miterlimit="10"/><path d="M284,356.06a1,1,0,0,1-.44-1.9,28.77,28.77,0,0,1,25.26,0,1,1,0,0,1-.89,1.8,26.72,26.72,0,0,0-23.49,0A1,1,0,0,1,284,356.06Z" fill="none" stroke="#003a50" stroke-miterlimit="10"/><path d="M284,361.63a1,1,0,0,1-.44-1.91,28.77,28.77,0,0,1,25.26,0,1,1,0,0,1,.45,1.34,1,1,0,0,1-1.34.46,26.81,26.81,0,0,0-23.49,0A.87.87,0,0,1,284,361.63Z" fill="none" stroke="#003a50" stroke-miterlimit="10"/></g><line x1="296.17" y1="367.61" x2="296.17" y2="275.47" fill="none" stroke="#003a50" stroke-miterlimit="10"/><g clip-path="url(#clip-path)"><path d="M317.49,239.8a1,1,0,0,1,1.9-.44,28.77,28.77,0,0,1,0,25.26,1,1,0,0,1-1.8-.88,26.74,26.74,0,0,0,0-23.5A1,1,0,0,1,317.49,239.8Z" fill="none" stroke="#003a50" stroke-miterlimit="10"/><path d="M323.05,239.8a1,1,0,0,1,1.91-.44,28.77,28.77,0,0,1,0,25.26,1,1,0,0,1-1.34.46,1,1,0,0,1-.46-1.34,26.83,26.83,0,0,0,0-23.5A.87.87,0,0,1,323.05,239.8Z" fill="none" stroke="#003a50" stroke-miterlimit="10"/><path d="M328.62,239.8a1,1,0,0,1,1.9-.44,28.77,28.77,0,0,1,0,25.26,1,1,0,1,1-1.8-.88,26.74,26.74,0,0,0,0-23.5A1,1,0,0,1,328.62,239.8Z" fill="none" stroke="#003a50" stroke-miterlimit="10"/><path d="M334.18,239.8a1,1,0,0,1,1.91-.44,28.77,28.77,0,0,1,0,25.26,1,1,0,0,1-1.34.46,1,1,0,0,1-.46-1.34,26.83,26.83,0,0,0,0-23.5A.87.87,0,0,1,334.18,239.8Z" fill="none" stroke="#003a50" stroke-miterlimit="10"/><path d="M339.75,239.8a1,1,0,0,1,.56-.9,1,1,0,0,1,1.34.46,28.77,28.77,0,0,1,0,25.26,1,1,0,1,1-1.8-.88,26.74,26.74,0,0,0,0-23.5A1,1,0,0,1,339.75,239.8Z" fill="none" stroke="#003a50" stroke-miterlimit="10"/><path d="M345.31,239.8a1,1,0,0,1,1.91-.44,28.77,28.77,0,0,1,0,25.26,1,1,0,0,1-1.34.46,1,1,0,0,1-.46-1.34,26.83,26.83,0,0,0,0-23.5A.87.87,0,0,1,345.31,239.8Z" fill="none" stroke="#003a50" stroke-miterlimit="10"/><path d="M311.92,239.8a1,1,0,0,1,.56-.9,1,1,0,0,1,1.34.46,28.77,28.77,0,0,1,0,25.26,1,1,0,0,1-1.8-.88,26.74,26.74,0,0,0,0-23.5A1,1,0,0,1,311.92,239.8Z" fill="none" stroke="#003a50" stroke-miterlimit="10"/><path d="M306.36,239.8a1,1,0,0,1,1.9-.44,28.77,28.77,0,0,1,0,25.26,1,1,0,0,1-1.8-.88,26.74,26.74,0,0,0,0-23.5A1,1,0,0,1,306.36,239.8Z" fill="none" stroke="#003a50" stroke-miterlimit="10"/></g><line x1="300.37" y1="251.99" x2="379.74" y2="251.99" fill="none" stroke="#003a50" stroke-miterlimit="10"/><g clip-path="url(#clip-path)"><path d="M141,143.34H100v45.77h43.25V145.56A2.21,2.21,0,0,0,141,143.34Z" fill="none" stroke="#003a50" stroke-miterlimit="10"/><path d="M141.26,97.47H100v45.78h41.26a2,2,0,0,0,2-2V99.46A2,2,0,0,0,141.26,97.47Z" fill="none" stroke="#003a50" stroke-miterlimit="10"/><path d="M143.24,189.11a3.11,3.11,0,0,1,2.83,3.33v4.22a3.11,3.11,0,0,1-2.83,3.33H95V86.6h47.78a3.1,3.1,0,0,1,2.82,3.33v4.22a3.1,3.1,0,0,1-2.82,3.32H100v91.64Z" fill="none" stroke="#003a50" stroke-miterlimit="10"/></g><rect x="100" y="97.47" width="9.25" height="91.64" fill="none" stroke="#003a50" stroke-miterlimit="10"/><rect x="202.22" y="50.64" width="17.01" height="224.22" fill="none" stroke="#003a50" stroke-miterlimit="10"/><rect x="396.78" y="95.86" width="17.01" height="101.63" fill="none" stroke="#003a50" stroke-miterlimit="10"/><polygon points="405.82 103.68 408.27 103.68 408.27 189.68 405.82 189.68 402.28 146.68 405.82 103.68" fill="none" stroke="#003a50" stroke-miterlimit="10"/><polygon points="210.18 205.75 207.72 205.75 207.72 119.75 210.18 119.75 213.71 162.75 210.18 205.75" fill="none" stroke="#003a50" stroke-miterlimit="10"/><g clip-path="url(#clip-path)"><rect x="586.28" y="212.65" width="113.38" height="34.02" fill="none" stroke="#003a50" stroke-miterlimit="10"/><path d="M260,120.66A14.78,14.78,0,0,0,275.9,97.27a1.14,1.14,0,0,0-1.77,1.43A12.47,12.47,0,0,1,260,118.2Z" fill="none" stroke="#003a50" stroke-miterlimit="10"/><rect x="225.96" y="66.4" width="34.02" height="84.03" rx="3.31" fill="none" stroke="#003a50" stroke-miterlimit="10"/><path d="M229.67,147.88a1.4,1.4,0,0,0,1.4-1.39V70.34a1.4,1.4,0,0,0-2.8,0v76.15a1.4,1.4,0,0,0,1.4,1.39" fill="none" stroke="#003a50" stroke-miterlimit="10"/><path d="M244.25,80.07a5.5,5.5,0,1,1,0-7.78A5.49,5.49,0,0,1,244.25,80.07Z" fill="none" stroke="#003a50" stroke-miterlimit="10"/><path d="M244.62,79.66c-1-.1-2,.29-3-.7-1.46-1.46.08-3-1.38-4.47s-3,.09-4.47-1.38" fill="none" stroke="#003a50" stroke-miterlimit="10"/><path d="M260,116a10.64,10.64,0,1,0,0-19.6Z" fill="none" stroke="#003a50" stroke-miterlimit="10"/><path d="M233.62,510.4a14.77,14.77,0,0,0-15.92,23.38,1.13,1.13,0,0,0,1.6.18,1.14,1.14,0,0,0,.17-1.61,12.47,12.47,0,0,1,14.15-19.5Z" fill="none" stroke="#003a50" stroke-miterlimit="10"/><rect x="233.62" y="480.62" width="34.02" height="84.03" rx="3.31" fill="none" stroke="#003a50" stroke-miterlimit="10"/><path d="M263.93,483.17a1.4,1.4,0,0,0-1.4,1.4v76.14a1.4,1.4,0,0,0,2.8,0V484.57a1.4,1.4,0,0,0-1.4-1.4" fill="none" stroke="#003a50" stroke-miterlimit="10"/><path d="M233.62,515.11a10.63,10.63,0,1,0,0,19.59Z" fill="none" stroke="#003a50" stroke-miterlimit="10"/></g><rect x="337.49" y="74.26" width="52.33" height="113.67" fill="none" stroke="#003a50" stroke-miterlimit="10"/><g clip-path="url(#clip-path)"><path d="M346.43,178.23h34a2.1,2.1,0,0,0,2.1-2.1V108.5H344.32v67.63A2.1,2.1,0,0,0,346.43,178.23Z" fill="none" stroke="#003a50" stroke-miterlimit="10"/></g><rect x="344.32" y="108.5" width="38.26" height="13.85" fill="none" stroke="#003a50" stroke-miterlimit="10"/><g clip-path="url(#clip-path)"><rect x="343.92" y="82.01" width="38.71" height="22.88" rx="2.2" fill="none" stroke="#003a50" stroke-miterlimit="10"/></g><rect x="547.87" y="66.67" width="22.68" height="22.68" fill="none" stroke="#003a50" stroke-miterlimit="10"/><g clip-path="url(#clip-path)"><path d="M565.71,84.51a9.2,9.2,0,1,1,0-13A9.2,9.2,0,0,1,565.71,84.51Z" fill="none" stroke="#003a50" stroke-miterlimit="10"/><path d="M566.33,83.82c-1.69-.17-3.41.48-5.06-1.17-2.44-2.44.14-5-2.3-7.46s-5,.14-7.46-2.3" fill="none" stroke="#003a50" stroke-miterlimit="10"/></g><rect x="547.89" y="204.01" width="22.68" height="22.68" fill="none" stroke="#003a50" stroke-miterlimit="10"/><g clip-path="url(#clip-path)"><path d="M565.73,221.85a9.19,9.19,0,1,1,0-13A9.17,9.17,0,0,1,565.73,221.85Z" fill="none" stroke="#003a50" stroke-miterlimit="10"/><path d="M566.35,221.16c-1.69-.17-3.41.49-5.06-1.17-2.44-2.44.14-5-2.3-7.45s-5,.13-7.46-2.31" fill="none" stroke="#003a50" stroke-miterlimit="10"/></g><rect x="457.16" y="95.15" width="113.38" height="102.05" fill="none" stroke="#003a50" stroke-miterlimit="10"/><g clip-path="url(#clip-path)"><path d="M466.89,187.2v-82a2.1,2.1,0,0,1,2.09-2.09h67.64v86.22H469A2.09,2.09,0,0,1,466.89,187.2Z" fill="none" stroke="#003a50" stroke-miterlimit="10"/><rect x="540.23" y="102.81" width="22.88" height="42.5" rx="1.98" fill="none" stroke="#003a50" stroke-miterlimit="10"/><rect x="540.23" y="147.04" width="22.88" height="42.5" rx="1.98" fill="none" stroke="#003a50" stroke-miterlimit="10"/></g><line x1="522.77" y1="189.54" x2="522.77" y2="102.81" fill="none" stroke="#003a50" stroke-miterlimit="10"/><g clip-path="url(#clip-path)"><path d="M270.78,272.44v-3.07a38.71,38.71,0,0,0-38.71-38.72v41.79" fill="none" stroke="#003a50" stroke-miterlimit="10" stroke-width="1.6"/><path d="M452.59,339.23h-3.08a38.72,38.72,0,0,1-38.72-38.71h41.8" fill="none" stroke="#003a50" stroke-miterlimit="10" stroke-width="1.6"/><path d="M384.54,436.76v-3.14A39.51,39.51,0,0,0,345,394.11v42.65" fill="none" stroke="#003a50" stroke-miterlimit="10" stroke-width="1.6"/><path d="M527.34,430.67h3.88a48.89,48.89,0,0,0,48.9-48.89H527.34" fill="none" stroke="#003a50" stroke-miterlimit="10" stroke-width="1.6"/><path d="M443.78,366.23v3.37a42.33,42.33,0,0,1-42.33,42.33v-45.7" fill="none" stroke="#003a50" stroke-miterlimit="10" stroke-width="1.6"/><line x1="507.62" y1="429.13" x2="453.13" y2="429.13" fill="none" stroke="#003a50" stroke-miterlimit="10" stroke-width="1.6"/><polygon points="600.48 50.09 504.74 50.09 504.74 0.76 600.48 12.42 600.48 50.09" fill="#003a50" fill-rule="evenodd"/><polygon points="52.72 208.85 52.72 304.59 3.39 304.59 15.05 208.85 52.72 208.85" fill="#003a50" fill-rule="evenodd"/><rect x="14.62" y="24.51" width="38.1" height="95.23" fill="#003a50"/><rect x="14.62" y="208.85" width="41.25" height="76.64" fill="#003a50"/><rect x="17.64" y="2.25" width="95.17" height="47.83" fill="#003a50"/><rect x="202.72" y="2.25" width="95" height="47.83" fill="#003a50"/><rect x="384.81" y="2.25" width="34.46" height="47.83" fill="#003a50"/><rect x="210.72" y="6.25" width="77.33" height="50" fill="#003a50"/><rect x="516.04" y="28.92" width="77.33" height="27.33" fill="#003a50"/><rect x="2.62" y="0.75" width="27.93" height="28.5" fill="#003a50"/><rect x="13.72" y="393.68" width="39" height="94.57" fill="#003a50"/><rect x="4.39" y="393.68" width="44.33" height="25.9" fill="#003a50"/><rect x="38.55" y="466.92" width="249.5" height="13.79" fill="#003a50"/><rect x="278.22" y="533.25" width="249.5" height="13.79" fill="#003a50"/><rect x="513.72" y="534.16" width="16.81" height="126.45" fill="#003a50"/><rect x="494.22" y="433.9" width="11.67" height="106.25" fill="#003a50"/><rect x="494.22" y="433.15" width="36.31" height="11.67" fill="#003a50"/><rect x="514.38" y="362.61" width="142" height="16.69" fill="#003a50"/><rect x="570.85" y="51.89" width="16.32" height="314.78" fill="#003a50"/><rect x="379.18" y="192.25" width="16.32" height="82.94" fill="#003a50"/><rect x="271.87" y="466.92" width="16.18" height="80.12" fill="#003a50"/><rect x="447.21" y="338.39" width="6.38" height="28.28" fill="#003a50"/><rect x="447.21" y="247.14" width="6.38" height="54.21" fill="#003a50"/><rect x="269.95" y="268.81" width="120.92" height="6.38" fill="#003a50"/><rect x="219.95" y="268.81" width="12.94" height="6.38" fill="#003a50"/><rect x="585.64" y="246.92" width="70.74" height="6.38" fill="#003a50"/><rect x="585.64" y="278.53" width="25.64" height="6.38" fill="#003a50"/><rect x="574.62" y="246.92" width="131.12" height="6.38" fill="#003a50"/><rect x="547.04" y="326.4" width="25.64" height="6.38" fill="#003a50"/><rect x="545.77" y="250.32" width="6.38" height="118.66" fill="#003a50"/><rect x="442.96" y="362.61" width="91.5" height="6.38" fill="#003a50"/><rect x="313.45" y="362.61" width="88.83" height="6.38" fill="#003a50"/><rect x="313.45" y="272.44" width="6.38" height="94.76" fill="#003a50"/><rect x="219.95" y="48.49" width="6.38" height="222.42" fill="#003a50"/><rect x="390.12" y="48.49" width="6.38" height="226.7" fill="#003a50"/><rect x="383.7" y="433.13" width="59.1" height="6.38" fill="#003a50"/><rect x="482" y="433.13" width="17.19" height="6.38" fill="#003a50"/><rect x="283.12" y="433.13" width="62.74" height="6.38" fill="#003a50"/><rect x="308.12" y="438.39" width="6.38" height="99.52" fill="#003a50"/><rect x="430.87" y="438.39" width="6.38" height="99.52" fill="#003a50"/><rect x="283.12" y="438.39" width="6.38" height="99.52" fill="#003a50"/><rect x="287.05" y="455.2" width="26.4" height="6.38" fill="#003a50"/><rect x="524.15" y="429.91" width="6.38" height="107.23" fill="#003a50"/><rect x="524.15" y="368.98" width="6.38" height="13.63" fill="#003a50"/><rect x="373.2" y="542.87" width="6.38" height="108.39" fill="#003a50"/><rect x="488.47" y="544.11" width="6.38" height="104.88" fill="#003a50"/><line x1="283.48" y1="443.22" x2="283.48" y2="440.38" fill="none" stroke="#003a50" stroke-miterlimit="10"/><line x1="283.48" y1="435.01" x2="283.48" y2="373.14" fill="none" stroke="#003a50" stroke-miterlimit="10" stroke-dasharray="5.38 5.38"/><line x1="283.48" y1="370.45" x2="283.48" y2="367.61" fill="none" stroke="#003a50" stroke-miterlimit="10"/><line x1="283.48" y1="399.36" x2="280.64" y2="399.36" fill="none" stroke="#003a50" stroke-miterlimit="10"/><line x1="275.05" y1="399.36" x2="54.35" y2="399.36" fill="none" stroke="#003a50" stroke-miterlimit="10" stroke-dasharray="5.59 5.59"/><line x1="51.55" y1="399.36" x2="48.72" y2="399.36" fill="none" stroke="#003a50" stroke-miterlimit="10"/><line x1="389.36" y1="240.86" x2="392.19" y2="240.86" fill="none" stroke="#003a50" stroke-miterlimit="10"/><line x1="398.06" y1="240.86" x2="489.02" y2="240.86" fill="none" stroke="#003a50" stroke-miterlimit="10" stroke-dasharray="5.87 5.87"/><line x1="491.95" y1="240.86" x2="494.79" y2="240.86" fill="none" stroke="#003a50" stroke-miterlimit="10"/><rect x="447.21" y="338.39" width="6.38" height="28.28" fill="#003a50"/><rect x="447.21" y="243.49" width="6.38" height="57.86" fill="#003a50"/><rect x="269.95" y="268.81" width="120.92" height="6.38" fill="#003a50"/><rect x="219.95" y="268.81" width="12.94" height="6.38" fill="#003a50"/><rect x="585.64" y="246.92" width="70.74" height="6.38" fill="#003a50"/><rect x="585.64" y="278.53" width="25.64" height="6.38" fill="#003a50"/><rect x="547.04" y="326.4" width="25.64" height="6.38" fill="#003a50"/><rect x="545.77" y="246.24" width="6.38" height="122.74" fill="#003a50"/><rect x="442.96" y="362.61" width="91.5" height="6.38" fill="#003a50"/><rect x="313.45" y="362.61" width="88.83" height="6.38" fill="#003a50"/><rect x="313.45" y="272.44" width="6.38" height="94.76" fill="#003a50"/><rect x="447.21" y="240.3" width="125.47" height="6.38" fill="#003a50"/><rect x="219.95" y="48.49" width="6.38" height="222.42" fill="#003a50"/><rect x="390.12" y="48.49" width="6.38" height="226.7" fill="#003a50"/><rect x="383.7" y="433.13" width="59.1" height="6.38" fill="#003a50"/><rect x="482" y="433.13" width="17.19" height="6.38" fill="#003a50"/><rect x="283.12" y="433.13" width="62.74" height="6.38" fill="#003a50"/><rect x="308.12" y="438.39" width="6.38" height="99.52" fill="#003a50"/><rect x="430.87" y="438.39" width="6.38" height="99.52" fill="#003a50"/><rect x="283.12" y="438.39" width="6.38" height="99.52" fill="#003a50"/><rect x="287.05" y="455.2" width="26.4" height="6.38" fill="#003a50"/><rect x="524.15" y="429.91" width="6.38" height="107.23" fill="#003a50"/><rect x="524.15" y="368.98" width="6.38" height="13.63" fill="#003a50"/><rect x="373.2" y="542.87" width="6.38" height="108.39" fill="#003a50"/><rect x="488.47" y="544.11" width="6.38" height="104.88" fill="#003a50"/></g><g clip-path="url(#clip-path)"><path d="M433.51,29.62a4.57,4.57,0,0,1-1-3.11,4.61,4.61,0,0,1,1-3.12,4,4,0,0,1,5.74,0,4.56,4.56,0,0,1,1,3.12,4.52,4.52,0,0,1-1,3.11,4,4,0,0,1-5.74,0Zm4.61-1a3.52,3.52,0,0,0,.61-2.14,3.55,3.55,0,0,0-.61-2.15,2.23,2.23,0,0,0-3.47,0,3.53,3.53,0,0,0-.62,2.15,3.52,3.52,0,0,0,.62,2.14,2,2,0,0,0,1.73.83A2.07,2.07,0,0,0,438.12,28.65Z" fill="#003a50"/><path d="M441.84,30.61a.71.71,0,0,1-.23-.56.75.75,0,0,1,.23-.57.88.88,0,0,1,.62-.21.84.84,0,0,1,.6.21.71.71,0,0,1,.23.57.68.68,0,0,1-.23.56.84.84,0,0,1-.6.21A.88.88,0,0,1,441.84,30.61Z" fill="#003a50"/><path d="M451.45,24.67h-1.56s0,0,0-.12a1.2,1.2,0,0,0-.15-.31,1.56,1.56,0,0,0-.27-.35,1.2,1.2,0,0,0-.5-.29,2.08,2.08,0,0,0-.71-.12,1.78,1.78,0,0,0-1.52.73,3.11,3.11,0,0,0-.54,1.89h0a1.27,1.27,0,0,1,.31-.3,2.73,2.73,0,0,1,.43-.26,3.14,3.14,0,0,1,.67-.21,4.12,4.12,0,0,1,.86-.1,3.58,3.58,0,0,1,2.38.79,2.49,2.49,0,0,1,.92,2,2.54,2.54,0,0,1-1,2.06,3.92,3.92,0,0,1-2.55.77,3.38,3.38,0,0,1-2.73-1.09,4.48,4.48,0,0,1-.93-3v-.28a4.81,4.81,0,0,1,.93-3,3.18,3.18,0,0,1,2.69-1.21,4.14,4.14,0,0,1,1.5.26,2.69,2.69,0,0,1,1,.66A2.48,2.48,0,0,1,451.45,24.67Zm-1.77,2.22a2.58,2.58,0,0,0-2.79,0,1.33,1.33,0,0,0-.55,1.12,1.31,1.31,0,0,0,.54,1.1,2.56,2.56,0,0,0,2.81,0,1.31,1.31,0,0,0,.54-1.1A1.33,1.33,0,0,0,449.68,26.89Z" fill="#003a50"/><path d="M313.71,29.62a4.52,4.52,0,0,1-1-3.11,4.57,4.57,0,0,1,1-3.12,4,4,0,0,1,5.73,0,4.57,4.57,0,0,1,1.05,3.12,4.52,4.52,0,0,1-1.05,3.11,4,4,0,0,1-5.73,0Zm4.6-1a3.52,3.52,0,0,0,.62-2.14,3.56,3.56,0,0,0-.62-2.15,2.23,2.23,0,0,0-3.47,0,3.53,3.53,0,0,0-.62,2.15,3.52,3.52,0,0,0,.62,2.14,2.23,2.23,0,0,0,3.47,0Z" fill="#003a50"/><path d="M322,30.61a.71.71,0,0,1-.23-.56.75.75,0,0,1,.23-.57,1,1,0,0,1,1.23,0,.75.75,0,0,1,.23.57.71.71,0,0,1-.23.56,1,1,0,0,1-1.23,0Z" fill="#003a50"/><path d="M331.64,24.67h-1.56s0,0,0-.12a1.85,1.85,0,0,0-.16-.31,1.31,1.31,0,0,0-.27-.35,1.2,1.2,0,0,0-.5-.29,2,2,0,0,0-.71-.12,1.79,1.79,0,0,0-1.52.73,3.11,3.11,0,0,0-.54,1.89h0a1.27,1.27,0,0,1,.31-.3,3.28,3.28,0,0,1,.43-.26,3.14,3.14,0,0,1,.67-.21,4.12,4.12,0,0,1,.86-.1,3.58,3.58,0,0,1,2.38.79,2.49,2.49,0,0,1,.92,2,2.54,2.54,0,0,1-1,2.06,3.91,3.91,0,0,1-2.54.77,3.38,3.38,0,0,1-2.73-1.09,4.43,4.43,0,0,1-.94-3v-.28a4.75,4.75,0,0,1,.94-3,3.16,3.16,0,0,1,2.68-1.21,4.14,4.14,0,0,1,1.5.26,2.61,2.61,0,0,1,1,.66A2.43,2.43,0,0,1,331.64,24.67Zm-1.77,2.22a2.29,2.29,0,0,0-1.39-.41,2.32,2.32,0,0,0-1.4.41,1.35,1.35,0,0,0-.55,1.12,1.29,1.29,0,0,0,.55,1.1,2.22,2.22,0,0,0,1.4.42,2.26,2.26,0,0,0,1.4-.42,1.31,1.31,0,0,0,.54-1.1A1.33,1.33,0,0,0,329.87,26.89Z" fill="#003a50"/><path d="M131.11,29.62a4.57,4.57,0,0,1-1-3.11,4.61,4.61,0,0,1,1-3.12,4,4,0,0,1,5.74,0,4.56,4.56,0,0,1,1,3.12,4.52,4.52,0,0,1-1,3.11,4,4,0,0,1-5.74,0Zm4.61-1a3.52,3.52,0,0,0,.61-2.14,3.55,3.55,0,0,0-.61-2.15,2.23,2.23,0,0,0-3.47,0,3.53,3.53,0,0,0-.62,2.15,3.52,3.52,0,0,0,.62,2.14,2,2,0,0,0,1.73.83A2.07,2.07,0,0,0,135.72,28.65Z" fill="#003a50"/><path d="M139.44,30.61a.71.71,0,0,1-.23-.56.75.75,0,0,1,.23-.57.88.88,0,0,1,.62-.21.84.84,0,0,1,.6.21.71.71,0,0,1,.23.57.68.68,0,0,1-.23.56.84.84,0,0,1-.6.21A.88.88,0,0,1,139.44,30.61Z" fill="#003a50"/><path d="M149.05,24.67h-1.56s0,0,0-.12a1.2,1.2,0,0,0-.15-.31,1.31,1.31,0,0,0-.27-.35,1.2,1.2,0,0,0-.5-.29,2.08,2.08,0,0,0-.71-.12,1.78,1.78,0,0,0-1.52.73,3.11,3.11,0,0,0-.54,1.89h0a1.27,1.27,0,0,1,.31-.3,2.73,2.73,0,0,1,.43-.26,3.14,3.14,0,0,1,.67-.21,4.12,4.12,0,0,1,.86-.1,3.58,3.58,0,0,1,2.38.79,2.49,2.49,0,0,1,.92,2,2.54,2.54,0,0,1-1,2.06,3.92,3.92,0,0,1-2.55.77,3.38,3.38,0,0,1-2.73-1.09,4.48,4.48,0,0,1-.93-3v-.28a4.81,4.81,0,0,1,.93-3,3.18,3.18,0,0,1,2.69-1.21,4.14,4.14,0,0,1,1.5.26,2.69,2.69,0,0,1,1,.66A2.48,2.48,0,0,1,149.05,24.67Zm-1.77,2.22a2.58,2.58,0,0,0-2.79,0,1.33,1.33,0,0,0-.55,1.12,1.31,1.31,0,0,0,.54,1.1,2.56,2.56,0,0,0,2.81,0,1.31,1.31,0,0,0,.54-1.1A1.33,1.33,0,0,0,147.28,26.89Z" fill="#003a50"/><path d="M25.94,542.82v1.56s-.05,0-.13,0a1.2,1.2,0,0,0-.31.15,2.33,2.33,0,0,0-.35.27,1.4,1.4,0,0,0-.29.5,2.07,2.07,0,0,0-.11.71,1.77,1.77,0,0,0,.72,1.52,3.11,3.11,0,0,0,1.89.54v0a1.11,1.11,0,0,1-.3-.31,2.73,2.73,0,0,1-.26-.43,3.14,3.14,0,0,1-.21-.67,4,4,0,0,1-.09-.86,3.57,3.57,0,0,1,.78-2.38,2.62,2.62,0,0,1,4,.05,3.87,3.87,0,0,1,.78,2.54A3.41,3.41,0,0,1,31,548.73a4.5,4.5,0,0,1-3,.93H27.7a4.83,4.83,0,0,1-3-.93A3.18,3.18,0,0,1,23.45,546a4.14,4.14,0,0,1,.26-1.5,2.92,2.92,0,0,1,.67-1A2.44,2.44,0,0,1,25.94,542.82Zm2.22,1.77a2.58,2.58,0,0,0,0,2.79,1.3,1.3,0,0,0,1.11.55,1.34,1.34,0,0,0,1.11-.54,2.6,2.6,0,0,0,0-2.8,1.32,1.32,0,0,0-1.11-.55A1.3,1.3,0,0,0,28.16,544.59Z" fill="#003a50"/><path d="M30.89,376.92a4.61,4.61,0,0,1-3.12,1,4.61,4.61,0,0,1-3.12-1,4,4,0,0,1,0-5.74,4.61,4.61,0,0,1,3.12-1,4.61,4.61,0,0,1,3.12,1,4,4,0,0,1,0,5.74Zm-1-4.61a3.52,3.52,0,0,0-2.14-.61,3.55,3.55,0,0,0-2.15.61,2.23,2.23,0,0,0,0,3.47,3.47,3.47,0,0,0,2.15.62,3.46,3.46,0,0,0,2.14-.62,2,2,0,0,0,.84-1.73A2.05,2.05,0,0,0,29.91,372.31Z" fill="#003a50"/><path d="M31.88,368.59a.82.82,0,0,1-1.14,0,.87.87,0,0,1-.21-.61.85.85,0,0,1,.21-.61.82.82,0,0,1,1.14,0,.85.85,0,0,1,.21.61A.87.87,0,0,1,31.88,368.59Z" fill="#003a50"/><path d="M25.94,359v1.56s-.05,0-.13,0a1.2,1.2,0,0,0-.31.15,2.33,2.33,0,0,0-.35.27,1.4,1.4,0,0,0-.29.5,2.09,2.09,0,0,0-.11.72,1.76,1.76,0,0,0,.72,1.51,3.11,3.11,0,0,0,1.89.54v0a1.11,1.11,0,0,1-.3-.31,2.73,2.73,0,0,1-.26-.43,3.14,3.14,0,0,1-.21-.67,4,4,0,0,1-.09-.86,3.57,3.57,0,0,1,.78-2.38,2.62,2.62,0,0,1,4,.05,3.87,3.87,0,0,1,.78,2.54A3.41,3.41,0,0,1,31,364.89a4.5,4.5,0,0,1-3,.93H27.7a4.83,4.83,0,0,1-3-.93,3.18,3.18,0,0,1-1.21-2.68,4.06,4.06,0,0,1,.26-1.5,2.87,2.87,0,0,1,.67-1A2.44,2.44,0,0,1,25.94,359Zm2.22,1.77a2.58,2.58,0,0,0,0,2.79,1.3,1.3,0,0,0,1.11.55,1.34,1.34,0,0,0,1.11-.54,2.6,2.6,0,0,0,0-2.8,1.32,1.32,0,0,0-1.11-.55A1.3,1.3,0,0,0,28.16,360.75Z" fill="#003a50"/><path d="M30.89,192.93a4.57,4.57,0,0,1-3.12,1,4.57,4.57,0,0,1-3.12-1,4,4,0,0,1,0-5.73,4.57,4.57,0,0,1,3.12-1,4.57,4.57,0,0,1,3.12,1,4,4,0,0,1,0,5.73Zm-1-4.6a3.52,3.52,0,0,0-2.14-.62,3.56,3.56,0,0,0-2.15.62,2.23,2.23,0,0,0,0,3.47,3.53,3.53,0,0,0,2.15.62,3.52,3.52,0,0,0,2.14-.62,2.21,2.21,0,0,0,0-3.47Z" fill="#003a50"/><path d="M31.88,184.61a.82.82,0,0,1-1.14,0,1,1,0,0,1,0-1.23.82.82,0,0,1,1.14,0,1,1,0,0,1,0,1.23Z" fill="#003a50"/><path d="M25.93,175v1.56l-.12,0a1.85,1.85,0,0,0-.31.16,1.32,1.32,0,0,0-.64.77,2,2,0,0,0-.11.71,1.78,1.78,0,0,0,.72,1.52,3.11,3.11,0,0,0,1.89.54v0a1.27,1.27,0,0,1-.3-.31,3.28,3.28,0,0,1-.26-.43,3.14,3.14,0,0,1-.21-.67,4.12,4.12,0,0,1-.09-.86,3.57,3.57,0,0,1,.78-2.38,2.49,2.49,0,0,1,2-.92,2.54,2.54,0,0,1,2,1,3.91,3.91,0,0,1,.78,2.54A3.41,3.41,0,0,1,31,180.9a4.45,4.45,0,0,1-3,.94H27.7a4.77,4.77,0,0,1-3-.94,3.16,3.16,0,0,1-1.21-2.68,4.14,4.14,0,0,1,.26-1.5,2.74,2.74,0,0,1,.67-1A2.38,2.38,0,0,1,25.93,175Zm2.23,1.77a2.21,2.21,0,0,0-.41,1.39,2.26,2.26,0,0,0,.41,1.4,1.4,1.4,0,0,0,2.22,0,2.28,2.28,0,0,0,.41-1.4,2.32,2.32,0,0,0-.41-1.4,1.34,1.34,0,0,0-1.11-.54A1.3,1.3,0,0,0,28.16,176.77Z" fill="#003a50"/></g><polygon points="267.57 473.81 267.57 480.67 267.93 480.67 267.93 547.09 273.95 547.09 273.95 473.81 267.57 473.81" fill="#003a50"/><g clip-path="url(#clip-path)"><path d="M450.28,214.27l-2.49,1.95V214l2.74-2.27h1.86v11.91h-2.11Z" fill="#003a50"/><path d="M456.9,214.27l-2.48,1.95V214l2.73-2.27H459v11.91H456.9Z" fill="#003a50"/><path d="M461.54,223.49a1,1,0,0,1-.33-.81,1,1,0,0,1,.33-.8,1.4,1.4,0,0,1,1.73,0,1,1,0,0,1,.33.8,1,1,0,0,1-.33.81,1.4,1.4,0,0,1-1.73,0Z" fill="#003a50"/><path d="M470.82,215.64a5,5,0,0,1,3.34,1.06,3.69,3.69,0,0,1,1.26,3,3.73,3.73,0,0,1-1.3,3,5.39,5.39,0,0,1-3.55,1.08,5.86,5.86,0,0,1-3.56-1,3.18,3.18,0,0,1-1.29-2.69h2.11a1.57,1.57,0,0,0,.7,1.34,3.62,3.62,0,0,0,2,.48,3.13,3.13,0,0,0,2-.57,2.34,2.34,0,0,0,0-3.39,3.25,3.25,0,0,0-2.07-.58,3.6,3.6,0,0,0-1.92.42,2,2,0,0,0-.7.63l-.05.13h-2.11v-6.88h8.88v1.85h-6.77v2.95h.05a2.77,2.77,0,0,1,.4-.3,3.11,3.11,0,0,1,.55-.27A5.6,5.6,0,0,1,470.82,215.64Z" fill="#003a50"/><path d="M462.39,310.45h-5.82v-1.84h8.86v1.84l-4.53,2.65v.07h1.28a3.86,3.86,0,0,1,2.79,1,3.52,3.52,0,0,1,1,2.67,3.34,3.34,0,0,1-1.32,2.82,7,7,0,0,1-7.25,0,3.39,3.39,0,0,1-1.33-2.86v-.32h2.11v.32c0,1.36.95,2,2.84,2s2.85-.67,2.85-2-.95-2-2.85-2h-3.26V313.2l4.58-2.68Z" fill="#003a50"/><path d="M468.12,320.38a1,1,0,0,1-.32-.8,1.07,1.07,0,0,1,.32-.81,1.25,1.25,0,0,1,.88-.3,1.22,1.22,0,0,1,.86.3,1,1,0,0,1,.32.81,1,1,0,0,1-.32.8,1.22,1.22,0,0,1-.86.3A1.25,1.25,0,0,1,468.12,320.38Z" fill="#003a50"/><path d="M481.75,312h-2.21s0-.06,0-.17a2.53,2.53,0,0,0-.22-.44,2.64,2.64,0,0,0-.38-.5,1.93,1.93,0,0,0-.71-.41,3,3,0,0,0-1-.16,2.49,2.49,0,0,0-2.15,1,4.39,4.39,0,0,0-.77,2.68h.06a1.63,1.63,0,0,1,.44-.43,3.55,3.55,0,0,1,.61-.37,4.27,4.27,0,0,1,.95-.3,5.43,5.43,0,0,1,1.22-.13,5.05,5.05,0,0,1,3.37,1.11,3.51,3.51,0,0,1,1.3,2.8,3.57,3.57,0,0,1-1.36,2.91,5.57,5.57,0,0,1-3.61,1.1,4.81,4.81,0,0,1-3.87-1.54,6.36,6.36,0,0,1-1.32-4.27v-.41a6.85,6.85,0,0,1,1.32-4.31,4.52,4.52,0,0,1,3.81-1.71,5.64,5.64,0,0,1,2.12.38,3.82,3.82,0,0,1,1.44.93A3.46,3.46,0,0,1,481.75,312Zm-2.51,3.15a3.67,3.67,0,0,0-4,0,2,2,0,0,0,0,3.15,3.21,3.21,0,0,0,2,.59,3.26,3.26,0,0,0,2-.59,2,2,0,0,0,0-3.15Z" fill="#003a50"/><path d="M482.5,409h-2.1v-2.65h-7V404.5l6.29-7.42h2.79v7.42h1.6v1.84h-1.6Zm-2.1-4.49v-5.32h-.07l-4.48,5.27v.05Z" fill="#003a50"/><path d="M485.79,408.86a1,1,0,0,1-.33-.81,1,1,0,0,1,.33-.8,1.4,1.4,0,0,1,1.73,0,1,1,0,0,1,.32.8,1,1,0,0,1-.32.81,1.4,1.4,0,0,1-1.73,0Z" fill="#003a50"/><path d="M498.12,409H496v-2.65h-7V404.5l6.3-7.42h2.79v7.42h1.59v1.84h-1.59ZM496,404.5v-5.32h-.07l-4.47,5.27v.05Z" fill="#003a50"/><path d="M270.43,214.27,268,216.22V214l2.73-2.27h1.86v11.91h-2.11Z" fill="#003a50"/><path d="M284.93,223.62H275v-1.56a2.74,2.74,0,0,1,.58-1.74,4,4,0,0,1,1.45-1.2c.5-.25,1.12-.54,1.87-.86s1.32-.56,1.87-.78a4.21,4.21,0,0,0,1.45-.91,1.8,1.8,0,0,0,.57-1.3q0-1.89-2.67-1.89t-2.67,2.16V216h-2.11v-.41a3.62,3.62,0,0,1,1.26-3,5.39,5.39,0,0,1,3.52-1,5.65,5.65,0,0,1,3.51,1,3.27,3.27,0,0,1,1.27,2.75,3.14,3.14,0,0,1-.56,1.83,4.29,4.29,0,0,1-1.4,1.31c-.6.34-1.21.65-1.84.93s-1.23.52-1.82.74a5.33,5.33,0,0,0-1.41.75,1.25,1.25,0,0,0-.56,1h7.62Z" fill="#003a50"/><path d="M287,223.49a1,1,0,0,1-.32-.81,1.06,1.06,0,0,1,.32-.8,1.25,1.25,0,0,1,.88-.3,1.22,1.22,0,0,1,.86.3,1,1,0,0,1,.32.8,1,1,0,0,1-.32.81,1.22,1.22,0,0,1-.86.3A1.25,1.25,0,0,1,287,223.49Z" fill="#003a50"/><path d="M292.44,222.09a7.34,7.34,0,0,1,0-8.84,5.71,5.71,0,0,1,8.13,0,7.34,7.34,0,0,1,0,8.84,5.71,5.71,0,0,1-8.13,0ZM299,220.7a5.73,5.73,0,0,0,0-6.07,3.15,3.15,0,0,0-4.92,0,5.67,5.67,0,0,0,0,6.07,3.14,3.14,0,0,0,4.92,0Z" fill="#003a50"/><path d="M371.38,327.32h-2.11v-2.65h-7v-1.84l6.29-7.42h2.8v7.42H373v1.84h-1.59Zm-2.11-4.49V317.5h-.07l-4.48,5.28v.05Z" fill="#003a50"/><path d="M374.66,327.19a1.15,1.15,0,0,1,0-1.61,1.4,1.4,0,0,1,1.73,0,1.17,1.17,0,0,1,0,1.61,1.4,1.4,0,0,1-1.73,0Z" fill="#003a50"/><path d="M384.76,317.25h-5.82v-1.84h8.86v1.84l-4.52,2.65V320h1.27a3.87,3.87,0,0,1,2.79,1,3.5,3.5,0,0,1,1.06,2.67,3.32,3.32,0,0,1-1.33,2.82,6.93,6.93,0,0,1-7.24,0,3.35,3.35,0,0,1-1.33-2.85v-.33h2.11v.33c0,1.36.95,2,2.84,2s2.84-.67,2.84-2-1-2-2.84-2h-3.26V320l4.57-2.68Z" fill="#003a50"/><path d="M115.37,223.62h-9.93v-1.56a2.74,2.74,0,0,1,.58-1.74,4,4,0,0,1,1.44-1.2c.5-.25,1.12-.54,1.87-.86l1.88-.78a4.07,4.07,0,0,0,1.44-.91,1.77,1.77,0,0,0,.58-1.3q0-1.89-2.67-1.89t-2.67,2.16V216h-2.11v-.41a3.62,3.62,0,0,1,1.26-3,5.38,5.38,0,0,1,3.51-1,5.66,5.66,0,0,1,3.52,1,3.3,3.3,0,0,1,1.27,2.75,3.14,3.14,0,0,1-.56,1.83,4.39,4.39,0,0,1-1.4,1.31c-.6.34-1.21.65-1.84.93s-1.23.52-1.83.74a5.26,5.26,0,0,0-1.4.75,1.22,1.22,0,0,0-.56,1h7.62Z" fill="#003a50"/><path d="M125.89,223.62h-2.11V221h-7v-1.84l6.29-7.42h2.79v7.42h1.6V221h-1.6Zm-2.11-4.49v-5.32h-.06l-4.48,5.27v0Z" fill="#003a50"/><path d="M129.17,223.49a1,1,0,0,1-.32-.81,1.06,1.06,0,0,1,.32-.8,1.41,1.41,0,0,1,1.74,0,1.06,1.06,0,0,1,.32.8,1,1,0,0,1-.32.81,1.41,1.41,0,0,1-1.74,0Z" fill="#003a50"/><path d="M142.79,215.07h-2.21s0-.07,0-.18a2.05,2.05,0,0,0-.21-.44,2.63,2.63,0,0,0-.39-.49,1.78,1.78,0,0,0-.71-.42,3.19,3.19,0,0,0-1-.16,2.53,2.53,0,0,0-2.15,1,4.41,4.41,0,0,0-.76,2.68h.06a1.63,1.63,0,0,1,.44-.43,4.76,4.76,0,0,1,.6-.36,4.41,4.41,0,0,1,1-.31,6.23,6.23,0,0,1,1.22-.12A5,5,0,0,1,142,217a3.51,3.51,0,0,1,1.31,2.8,3.57,3.57,0,0,1-1.37,2.9,5.49,5.49,0,0,1-3.6,1.11,4.81,4.81,0,0,1-3.87-1.55A6.35,6.35,0,0,1,133.1,218v-.41a6.85,6.85,0,0,1,1.32-4.31,4.52,4.52,0,0,1,3.8-1.71,5.66,5.66,0,0,1,2.13.37,3.84,3.84,0,0,1,1.44.94A3.45,3.45,0,0,1,142.79,215.07Zm-2.51,3.15a3.6,3.6,0,0,0-3.95,0,2,2,0,0,0,0,3.14,3.63,3.63,0,0,0,4,0,2,2,0,0,0,0-3.14Z" fill="#003a50"/><path d="M466.16,477.3l-2.48,1.95V477l2.73-2.27h1.86v11.91h-2.11Z" fill="#003a50"/><path d="M470.79,486.52a1,1,0,0,1-.32-.81,1.06,1.06,0,0,1,.32-.8,1.25,1.25,0,0,1,.88-.3,1.22,1.22,0,0,1,.86.3,1,1,0,0,1,.32.8,1,1,0,0,1-.32.81,1.22,1.22,0,0,1-.86.3A1.25,1.25,0,0,1,470.79,486.52Z" fill="#003a50"/><path d="M483.38,485.89a7.73,7.73,0,0,1-7.37,0,3,3,0,0,1-1.37-2.56,2.7,2.7,0,0,1,.26-1.16,2.41,2.41,0,0,1,.65-.86,4.14,4.14,0,0,1,1.4-.77l.26-.07v-.09a3,3,0,0,1-.77-.29,2.61,2.61,0,0,1-.66-.44,2.2,2.2,0,0,1-.54-.75,2.42,2.42,0,0,1-.23-1,2.82,2.82,0,0,1,1.26-2.39,5.81,5.81,0,0,1,3.42-.89,5.89,5.89,0,0,1,3.43.89,2.84,2.84,0,0,1,1.25,2.39,2.58,2.58,0,0,1-.22,1,2,2,0,0,1-.56.74,3.42,3.42,0,0,1-1.19.68l-.23.05v.09l.29.07c.09,0,.3.12.62.27a4.09,4.09,0,0,1,.77.5,2.71,2.71,0,0,1,.61.83,2.52,2.52,0,0,1,.28,1.19A3,3,0,0,1,483.38,485.89Zm-5.79-1.36a4.79,4.79,0,0,0,4.2,0,1.59,1.59,0,0,0,0-2.69,4.93,4.93,0,0,0-4.2,0,1.58,1.58,0,0,0,0,2.68Zm-.37-6.52a1.38,1.38,0,0,0,.65,1.2,4.07,4.07,0,0,0,3.64,0,1.43,1.43,0,0,0,0-2.4,4,4,0,0,0-3.62,0A1.38,1.38,0,0,0,477.22,478Z" fill="#003a50"/><path d="M362.58,476.59h-5.82v-1.85h8.86v1.85l-4.52,2.65v.06h1.28a3.9,3.9,0,0,1,2.79,1,3.52,3.52,0,0,1,1.05,2.67,3.32,3.32,0,0,1-1.33,2.82,6.93,6.93,0,0,1-7.24,0,3.35,3.35,0,0,1-1.33-2.85v-.33h2.11V483c0,1.36.95,2,2.84,2s2.84-.66,2.84-2-.94-2-2.84-2H358v-1.66l4.57-2.69Z" fill="#003a50"/><path d="M368.32,486.52a1,1,0,0,1-.32-.81,1.06,1.06,0,0,1,.32-.8,1.41,1.41,0,0,1,1.74,0,1.06,1.06,0,0,1,.32.8,1,1,0,0,1-.32.81,1.41,1.41,0,0,1-1.74,0Z" fill="#003a50"/><path d="M380.9,485.89a6.39,6.39,0,0,1-3.67.93,6.5,6.5,0,0,1-3.69-.94,2.94,2.94,0,0,1-1.37-2.56,2.56,2.56,0,0,1,.26-1.16,2.41,2.41,0,0,1,.65-.86,4.05,4.05,0,0,1,1.4-.77l.25-.07v-.09a3.05,3.05,0,0,1-.76-.29,2.61,2.61,0,0,1-.66-.44,2.2,2.2,0,0,1-.54-.75,2.42,2.42,0,0,1-.23-1,2.82,2.82,0,0,1,1.26-2.39,5.81,5.81,0,0,1,3.42-.89,5.89,5.89,0,0,1,3.43.89,2.83,2.83,0,0,1,1.24,2.39,2.43,2.43,0,0,1-.22,1,1.87,1.87,0,0,1-.55.74,3.54,3.54,0,0,1-1.2.68l-.22.05v.09l.28.07a6.14,6.14,0,0,1,.63.27,4.45,4.45,0,0,1,.77.5,2.88,2.88,0,0,1,.61.83,2.64,2.64,0,0,1,.28,1.19A3,3,0,0,1,380.9,485.89Zm-5.78-1.36a3.79,3.79,0,0,0,2.1.49,3.86,3.86,0,0,0,2.1-.48,1.59,1.59,0,0,0,0-2.69,4.93,4.93,0,0,0-4.2,0,1.58,1.58,0,0,0,0,2.68Zm-.37-6.52a1.37,1.37,0,0,0,.64,1.2,4.09,4.09,0,0,0,3.65,0,1.37,1.37,0,0,0,.64-1.2,1.39,1.39,0,0,0-.65-1.2,4,4,0,0,0-3.62,0A1.38,1.38,0,0,0,374.75,478Z" fill="#003a50"/><path d="M139.89,418.39a5,5,0,0,1,3.34,1.07,4.16,4.16,0,0,1,0,6,5.39,5.39,0,0,1-3.55,1.08,5.79,5.79,0,0,1-3.56-1,3.16,3.16,0,0,1-1.29-2.68h2.11a1.55,1.55,0,0,0,.7,1.33,3.61,3.61,0,0,0,2,.49,3.13,3.13,0,0,0,2-.58,2,2,0,0,0,.71-1.68,2.06,2.06,0,0,0-.74-1.71,3.31,3.31,0,0,0-2.07-.58,3.6,3.6,0,0,0-1.92.42,1.93,1.93,0,0,0-.7.64l0,.12h-2.11v-6.87h8.88v1.84H136.9v3h0a2.22,2.22,0,0,1,.4-.31,4,4,0,0,1,.55-.27A5.6,5.6,0,0,1,139.89,418.39Z" fill="#003a50"/><path d="M146.59,426.24a1,1,0,0,1-.32-.8,1.07,1.07,0,0,1,.32-.81,1.25,1.25,0,0,1,.88-.3,1.22,1.22,0,0,1,.86.3,1,1,0,0,1,.32.81,1,1,0,0,1-.32.8,1.22,1.22,0,0,1-.86.3A1.25,1.25,0,0,1,146.59,426.24Z" fill="#003a50"/><path d="M158.93,426.38h-2.11v-2.65h-7v-1.85l6.3-7.41h2.79v7.41h1.59v1.85h-1.59Zm-2.11-4.5v-5.32h-.07l-4.48,5.27v.05Z" fill="#003a50"/></g></svg>