<svg id="Слой_1" data-name="Слой 1" xmlns="http://www.w3.org/2000/svg" xmlns:xlink="http://www.w3.org/1999/xlink" viewBox="0 0 600.95 685.98"><defs><clipPath id="clip-path"><polygon points="0 0.99 0 381.12 18.27 381.12 18.27 650.61 100.29 650.61 100.29 685.98 599.81 685.98 599.81 0.99 0 0.99" fill="none"/></clipPath></defs><polygon points="73.98 648.54 73.98 650.61 100.29 650.61 100.29 685.98 101.25 685.98 101.25 648.54 73.98 648.54" fill="#fff"/><polygon points="8.91 15.34 8.91 366.5 72.22 365.99 85.06 389.23 85.06 436.49 79.9 645.47 107.75 647.11 107.75 674.38 582.15 674.38 582.15 352.66 582.15 281.73 582.15 15.34 8.91 15.34" fill="#fff"/><rect y="16.99" width="1.35" height="351.58" fill="#fff"/><g clip-path="url(#clip-path)"><rect x="-567.05" y="4.44" width="1162.95" height="2240.57" fill="none" stroke="#003a50" stroke-miterlimit="10"/><polygon points="-554.47 1108.61 -554.47 2232.15 582.93 2232.15 582.93 17.38 -554.47 17.23 -554.47 1037.89 -554.47 1108.61" fill="none" stroke="#003a50" stroke-miterlimit="10"/></g><rect x="212.41" y="36.67" width="87.81" height="4.56" fill="#fff"/><rect x="212.41" y="36.67" width="87.81" height="4.56" fill="none" stroke="#003a50" stroke-miterlimit="10"/><line x1="300.22" y1="38.95" x2="212.41" y2="38.95" fill="none" stroke="#003a50" stroke-miterlimit="10"/><rect x="295.67" y="36.67" width="4.55" height="4.56" fill="#fff"/><rect x="295.67" y="36.67" width="4.55" height="4.56" fill="none" stroke="#003a50" stroke-miterlimit="10"/><rect x="212.41" y="36.67" width="4.55" height="4.56" fill="#fff"/><rect x="212.41" y="36.67" width="4.55" height="4.56" fill="none" stroke="#003a50" stroke-miterlimit="10"/><rect x="252.97" y="36.67" width="4.55" height="4.56" fill="#fff"/><rect x="252.97" y="36.67" width="4.55" height="4.56" fill="none" stroke="#003a50" stroke-miterlimit="10"/><g clip-path="url(#clip-path)"><path d="M253,41.23v2.9c0,20.15-16.12,33.1-36,33.1v-36" fill="none" stroke="#003a50" stroke-miterlimit="10"/></g><rect x="29.39" y="36.67" width="87.81" height="4.56" fill="#fff"/><rect x="29.39" y="36.67" width="87.81" height="4.56" fill="none" stroke="#003a50" stroke-miterlimit="10"/><line x1="29.39" y1="38.95" x2="117.2" y2="38.95" fill="none" stroke="#003a50" stroke-miterlimit="10"/><rect x="29.39" y="36.67" width="4.55" height="4.56" fill="#fff"/><rect x="29.39" y="36.67" width="4.55" height="4.56" fill="none" stroke="#003a50" stroke-miterlimit="10"/><rect x="112.64" y="36.67" width="4.55" height="4.56" fill="#fff"/><rect x="112.64" y="36.67" width="4.55" height="4.56" fill="none" stroke="#003a50" stroke-miterlimit="10"/><rect x="72.09" y="36.67" width="4.55" height="4.56" fill="#fff"/><rect x="72.09" y="36.67" width="4.55" height="4.56" fill="none" stroke="#003a50" stroke-miterlimit="10"/><g clip-path="url(#clip-path)"><path d="M76.64,41.23v2.9c0,20.15,16.12,33.1,36,33.1v-36" fill="none" stroke="#003a50" stroke-miterlimit="10"/></g><rect x="395.92" y="36.67" width="148.34" height="4.56" fill="#fff"/><rect x="395.92" y="36.67" width="148.34" height="4.56" fill="none" stroke="#003a50" stroke-miterlimit="10" stroke-width="1.02"/><line x1="544.26" y1="38.95" x2="395.92" y2="38.95" fill="none" stroke="#003a50" stroke-miterlimit="10" stroke-width="1.02"/><rect x="505.78" y="36.67" width="4.76" height="4.56" fill="#fff"/><rect x="505.78" y="36.67" width="4.76" height="4.56" fill="none" stroke="#003a50" stroke-miterlimit="10" stroke-width="1.02"/><rect x="472.07" y="36.67" width="4.76" height="4.56" fill="#fff"/><rect x="472.07" y="36.67" width="4.76" height="4.56" fill="none" stroke="#003a50" stroke-miterlimit="10" stroke-width="1.02"/><rect x="539.5" y="36.67" width="4.76" height="4.56" fill="#fff"/><rect x="539.5" y="36.67" width="4.76" height="4.56" fill="none" stroke="#003a50" stroke-miterlimit="10" stroke-width="1.02"/><rect x="395.92" y="36.67" width="4.76" height="4.56" fill="#fff"/><rect x="395.92" y="36.67" width="4.76" height="4.56" fill="none" stroke="#003a50" stroke-miterlimit="10" stroke-width="1.02"/><rect x="438.35" y="36.67" width="4.77" height="4.56" fill="#fff"/><rect x="438.35" y="36.67" width="4.76" height="4.56" fill="none" stroke="#003a50" stroke-miterlimit="10" stroke-width="1.02"/><g clip-path="url(#clip-path)"><path d="M438.35,41.23v2.9c0,20.15-16.87,33.1-37.67,33.1v-36" fill="none" stroke="#003a50" stroke-miterlimit="10" stroke-width="1.02"/></g><rect x="558.68" y="286.47" width="4.48" height="75.85" fill="#fff"/><rect x="558.68" y="286.47" width="4.48" height="75.85" fill="none" stroke="#003a50" stroke-miterlimit="10"/><line x1="560.92" y1="362.32" x2="560.92" y2="286.47" fill="none" stroke="#003a50" stroke-miterlimit="10"/><rect x="558.68" y="357.77" width="4.48" height="4.56" fill="#fff"/><rect x="558.68" y="357.77" width="4.48" height="4.56" fill="none" stroke="#003a50" stroke-miterlimit="10"/><rect x="558.68" y="286.47" width="4.48" height="4.56" fill="#fff"/><rect x="558.68" y="286.47" width="4.48" height="4.56" fill="none" stroke="#003a50" stroke-miterlimit="10"/><rect x="558.68" y="327.02" width="4.48" height="4.56" fill="#fff"/><rect x="558.68" y="327.03" width="4.48" height="4.56" fill="none" stroke="#003a50" stroke-miterlimit="10"/><g clip-path="url(#clip-path)"><path d="M558.68,327h-2.85c-19.83,0-32.58-16.12-32.58-36h35.43" fill="none" stroke="#003a50" stroke-miterlimit="10"/></g><rect x="558.6" y="561.91" width="4.56" height="87.06" fill="#fff"/><rect x="558.6" y="561.91" width="4.56" height="87.06" fill="none" stroke="#003a50" stroke-miterlimit="10" stroke-width="0.98"/><line x1="560.88" y1="561.91" x2="560.88" y2="648.97" fill="none" stroke="#003a50" stroke-miterlimit="10" stroke-width="0.98"/><rect x="558.6" y="561.91" width="4.56" height="4.4" fill="#fff"/><rect x="558.6" y="561.91" width="4.56" height="4.4" fill="none" stroke="#003a50" stroke-miterlimit="10" stroke-width="0.98"/><rect x="558.6" y="644.57" width="4.56" height="4.4" fill="#fff"/><rect x="558.6" y="644.57" width="4.56" height="4.4" fill="none" stroke="#003a50" stroke-miterlimit="10" stroke-width="0.98"/><rect x="558.6" y="605.42" width="4.56" height="4.4" fill="#fff"/><rect x="558.6" y="605.42" width="4.56" height="4.4" fill="none" stroke="#003a50" stroke-miterlimit="10" stroke-width="0.98"/><g clip-path="url(#clip-path)"><path d="M558.61,609.82h-2.9c-20.15,0-33.1,15.56-33.1,34.75h36" fill="none" stroke="#003a50" stroke-miterlimit="10" stroke-width="0.98"/></g><rect x="558.6" y="104.84" width="4.56" height="84.08" fill="#fff"/><rect x="558.6" y="104.84" width="4.56" height="84.08" fill="none" stroke="#003a50" stroke-miterlimit="10" stroke-width="0.96"/><line x1="560.88" y1="104.84" x2="560.88" y2="188.92" fill="none" stroke="#003a50" stroke-miterlimit="10" stroke-width="0.96"/><rect x="558.6" y="104.84" width="4.56" height="4.25" fill="#fff"/><rect x="558.6" y="104.84" width="4.56" height="4.25" fill="none" stroke="#003a50" stroke-miterlimit="10" stroke-width="0.96"/><rect x="558.6" y="184.68" width="4.56" height="4.25" fill="#fff"/><rect x="558.6" y="184.68" width="4.56" height="4.25" fill="none" stroke="#003a50" stroke-miterlimit="10" stroke-width="0.96"/><rect x="558.6" y="146.86" width="4.56" height="4.25" fill="#fff"/><rect x="558.6" y="146.86" width="4.56" height="4.25" fill="none" stroke="#003a50" stroke-miterlimit="10" stroke-width="0.96"/><g clip-path="url(#clip-path)"><path d="M558.61,151.11h-2.9c-20.15,0-33.1,15-33.1,33.57h36" fill="none" stroke="#003a50" stroke-miterlimit="10" stroke-width="0.96"/></g><rect x="558.6" y="387.54" width="4.56" height="79.01" fill="#fff"/><rect x="558.6" y="387.54" width="4.56" height="79.01" fill="none" stroke="#003a50" stroke-miterlimit="10" stroke-width="0.94"/><line x1="560.88" y1="466.55" x2="560.88" y2="387.54" fill="none" stroke="#003a50" stroke-miterlimit="10" stroke-width="0.94"/><rect x="558.6" y="462.57" width="4.56" height="3.99" fill="#fff"/><rect x="558.6" y="462.57" width="4.56" height="3.99" fill="none" stroke="#003a50" stroke-miterlimit="10" stroke-width="0.94"/><rect x="558.6" y="387.54" width="4.56" height="3.99" fill="#fff"/><rect x="558.6" y="387.54" width="4.56" height="3.99" fill="none" stroke="#003a50" stroke-miterlimit="10" stroke-width="0.94"/><rect x="558.6" y="423.08" width="4.56" height="3.99" fill="#fff"/><rect x="558.6" y="423.08" width="4.56" height="3.99" fill="none" stroke="#003a50" stroke-miterlimit="10" stroke-width="0.94"/><g clip-path="url(#clip-path)"><path d="M558.61,423.08h-2.9c-20.15,0-33.1-14.13-33.1-31.55h36" fill="none" stroke="#003a50" stroke-miterlimit="10" stroke-width="0.94"/></g><rect x="407.65" y="653.1" width="102.05" height="16.75" fill="none" stroke="#003a50" stroke-miterlimit="10"/><polygon points="501.68 660.94 458.78 664.41 415.68 660.94 415.68 658.52 501.68 658.52 501.68 660.94" fill="none" stroke="#003a50" stroke-miterlimit="10"/><rect x="367.56" y="65.52" width="16.75" height="102.05" fill="none" stroke="#003a50" stroke-miterlimit="10"/><polygon points="376.47 73.54 372.99 116.44 376.47 159.54 378.89 159.54 378.89 73.54 376.47 73.54" fill="none" stroke="#003a50" stroke-miterlimit="10"/><rect x="308.26" y="57.17" width="52.33" height="113.67" fill="none" stroke="#003a50" stroke-miterlimit="10"/><g clip-path="url(#clip-path)"><path d="M317.19,161.14h34.05a2.11,2.11,0,0,0,2.1-2.11V91.41H315.09V159A2.11,2.11,0,0,0,317.19,161.14Z" fill="none" stroke="#003a50" stroke-miterlimit="10"/></g><rect x="315.09" y="91.41" width="38.26" height="13.85" fill="none" stroke="#003a50" stroke-miterlimit="10"/><g clip-path="url(#clip-path)"><path d="M316.9,64.92h34.3a2.2,2.2,0,0,1,2.2,2.2V85.59a2.2,2.2,0,0,1-2.2,2.21H316.9a2.21,2.21,0,0,1-2.21-2.21V67.12A2.21,2.21,0,0,1,316.9,64.92Z" fill="none" stroke="#003a50" stroke-miterlimit="10"/><path d="M450.38,341.69a1.27,1.27,0,0,1-1.21,1.31,13.79,13.79,0,0,0,1.07,27.55,1.26,1.26,0,0,1,.1,2.51,16.3,16.3,0,0,1-1.27-32.58A1.28,1.28,0,0,1,450.38,341.69Z" fill="none" stroke="#003a50" stroke-miterlimit="10"/><path d="M457.32,379.25a1.25,1.25,0,0,1,.87,1.55,13.78,13.78,0,0,0,26.53,7.5,1.26,1.26,0,0,1,2.42.68,16.3,16.3,0,1,1-31.37-8.86A1.25,1.25,0,0,1,457.32,379.25Z" fill="none" stroke="#003a50" stroke-miterlimit="10"/><path d="M495.1,383.61a1.25,1.25,0,0,1,1.74-.35,13.78,13.78,0,1,0,15.33-22.91,1.26,1.26,0,1,1,1.4-2.09,16.3,16.3,0,1,1-18.13,27.1A1.26,1.26,0,0,1,495.1,383.61Z" fill="none" stroke="#003a50" stroke-miterlimit="10"/><path d="M512.28,349a1.26,1.26,0,0,1,.2-1.77,13.78,13.78,0,1,0-17.05-21.65,1.26,1.26,0,0,1-1.56-2A16.3,16.3,0,1,1,514,349.25,1.25,1.25,0,0,1,512.28,349Z" fill="none" stroke="#003a50" stroke-miterlimit="10"/><path d="M483.45,325a1.27,1.27,0,0,1-.85-1.56,13.79,13.79,0,1,0-26.46-7.75,1.26,1.26,0,0,1-2.41-.71A16.3,16.3,0,1,1,485,324.13,1.26,1.26,0,0,1,483.45,325Z" fill="none" stroke="#003a50" stroke-miterlimit="10"/><path d="M460.21,369l-9.36.36a12.65,12.65,0,1,1-1-25.28l9-.32A23.7,23.7,0,0,0,460.21,369Z" fill="none" stroke="#003a50" stroke-miterlimit="10"/><path d="M486.37,378.25l-2.56,9.08a12.65,12.65,0,0,1-24.36-6.84l2.6-9.2a23.6,23.6,0,0,0,24.32,7Z" fill="none" stroke="#003a50" stroke-miterlimit="10"/><path d="M514.45,378.45A12.67,12.67,0,0,1,496.93,382l-7.28-4.88a23.88,23.88,0,0,0,13.12-15.24,24.8,24.8,0,0,0,.84-5.84l7.36,4.92A12.63,12.63,0,0,1,514.45,378.45Z" fill="none" stroke="#003a50" stroke-miterlimit="10"/><path d="M511.25,346.81l-7.72,6.08a23.88,23.88,0,0,0-15.56-20l7.64-6a12.65,12.65,0,1,1,15.64,19.88Z" fill="none" stroke="#003a50" stroke-miterlimit="10"/><path d="M481.33,323.73l-2.28,7.76a23.58,23.58,0,0,0-9.08,2.12l-15.28-4.48a1.21,1.21,0,0,1-.84-1.52L456.93,317a12.87,12.87,0,0,1,13.2-9.4A12.67,12.67,0,0,1,481.33,323.73Z" fill="none" stroke="#003a50" stroke-miterlimit="10"/><path d="M503.61,356a24.8,24.8,0,0,1-.84,5.84,23.88,23.88,0,0,1-13.12,15.24,24.6,24.6,0,0,1-3.28,1.16,23.6,23.6,0,0,1-24.32-7,25.46,25.46,0,0,1-1.84-2.28,23.7,23.7,0,0,1-1.28-25.24,24,24,0,0,1,11-10.16,23.84,23.84,0,0,1,16.32-1.24c.56.16,1.12.36,1.68.56a23.88,23.88,0,0,1,15.56,20A27.09,27.09,0,0,1,503.61,356Z" fill="none" stroke="#003a50" stroke-miterlimit="10"/><path d="M93.28,279.11V250.26h22.79v28.85a11.4,11.4,0,1,1-22.79,0Z" fill="none" stroke="#003a50" stroke-miterlimit="10"/></g><line x1="116.07" y1="261.49" x2="93.28" y2="261.49" fill="none" stroke="#003a50" stroke-miterlimit="10"/><rect x="120.18" y="526.81" width="92.51" height="38.47" fill="none" stroke="#003a50" stroke-miterlimit="10"/><g clip-path="url(#clip-path)"><path d="M138.72,560.5h55.44a14.47,14.47,0,1,0,0-28.93H138.72a14.47,14.47,0,1,0,0,28.93Z" fill="none" stroke="#003a50" stroke-miterlimit="10"/><circle cx="138.93" cy="546.04" r="2.06" fill="none" stroke="#003a50" stroke-miterlimit="10"/><path d="M164.5,641v28.85h22.79V641a11.4,11.4,0,0,0-22.79,0Z" fill="none" stroke="#003a50" stroke-miterlimit="10"/></g><line x1="187.29" y1="658.63" x2="164.5" y2="658.63" fill="none" stroke="#003a50" stroke-miterlimit="10"/><rect x="119.86" y="489.03" width="32.31" height="31.64" fill="none" stroke="#003a50" stroke-miterlimit="10"/><g clip-path="url(#clip-path)"><path d="M140.71,497.5h-1.87a2.71,2.71,0,0,1-5.06,0h-2.47l-4.68,2.69,2.24,3.52,2.11-1.12v9.62h10.07v-9.62l2.1,1.12,2.24-3.52Z" fill="none" stroke="#003a50" stroke-miterlimit="10"/></g><rect x="84.46" y="571.37" width="29.35" height="65.14" fill="none" stroke="#003a50" stroke-miterlimit="10"/><g clip-path="url(#clip-path)"><path d="M106.26,603.12h-23a3.36,3.36,0,0,1-3.36-3.35V577.52a3.37,3.37,0,0,1,3.36-3.36h23a3.36,3.36,0,0,1,3.35,3.36v22.25A3.35,3.35,0,0,1,106.26,603.12Z" fill="none" stroke="#003a50" stroke-miterlimit="10"/><circle cx="94.76" cy="588.64" r="2.27" fill="none" stroke="#003a50" stroke-miterlimit="10"/><rect x="79.9" y="604.68" width="29.71" height="28.96" rx="3.36" fill="none" stroke="#003a50" stroke-miterlimit="10"/><circle cx="94.76" cy="619.16" r="2.27" fill="none" stroke="#003a50" stroke-miterlimit="10"/></g><rect x="41.89" y="254.86" width="43.38" height="99.9" fill="none" stroke="#003a50" stroke-miterlimit="10"/><g clip-path="url(#clip-path)"><path d="M47.26,275.5v58.62a16.26,16.26,0,0,0,16.26,16.26h.12A16.26,16.26,0,0,0,79.9,334.12V275.5a16.26,16.26,0,0,0-16.26-16.26h-.12A16.26,16.26,0,0,0,47.26,275.5Z" fill="none" stroke="#003a50" stroke-miterlimit="10"/><path d="M63.58,277.46a2.35,2.35,0,1,0-2.35-2.35A2.35,2.35,0,0,0,63.58,277.46Z" fill="none" stroke="#003a50" stroke-miterlimit="10"/></g><rect x="85.46" y="333.85" width="39.36" height="27.58" fill="none" stroke="#003a50" stroke-miterlimit="10"/><g clip-path="url(#clip-path)"><rect x="90.65" y="336.27" width="28.96" height="29.71" rx="3.36" fill="none" stroke="#003a50" stroke-miterlimit="10"/><circle cx="105.14" cy="351.13" r="2.27" fill="none" stroke="#003a50" stroke-miterlimit="10"/></g><rect x="239.12" y="253.15" width="28.93" height="101.7" fill="none" stroke="#003a50" stroke-miterlimit="10"/><g clip-path="url(#clip-path)"><path d="M242.39,338.49a.92.92,0,0,1-.41-1.75,26.49,26.49,0,0,1,23.22,0,.92.92,0,0,1,.41,1.23.9.9,0,0,1-1.22.42,24.67,24.67,0,0,0-21.6,0A.79.79,0,0,1,242.39,338.49Z" fill="none" stroke="#003a50" stroke-miterlimit="10"/><path d="M242.39,333.37a.92.92,0,0,1-.41-1.74,26.4,26.4,0,0,1,23.22,0,.92.92,0,0,1-.81,1.65,24.58,24.58,0,0,0-21.6,0A.78.78,0,0,1,242.39,333.37Z" fill="none" stroke="#003a50" stroke-miterlimit="10"/><path d="M242.39,328.26a.92.92,0,0,1-.41-1.75,26.49,26.49,0,0,1,23.22,0,.92.92,0,0,1,.41,1.23.9.9,0,0,1-1.22.42,24.67,24.67,0,0,0-21.6,0A.79.79,0,0,1,242.39,328.26Z" fill="none" stroke="#003a50" stroke-miterlimit="10"/><path d="M242.39,323.15a.94.94,0,0,1-.83-.52.92.92,0,0,1,.42-1.23,26.4,26.4,0,0,1,23.22,0,.92.92,0,0,1-.81,1.65,24.58,24.58,0,0,0-21.6,0A.79.79,0,0,1,242.39,323.15Z" fill="none" stroke="#003a50" stroke-miterlimit="10"/><path d="M242.39,318a.92.92,0,0,1-.41-1.75,26.49,26.49,0,0,1,23.22,0,.92.92,0,0,1,.41,1.23.9.9,0,0,1-1.22.42,24.67,24.67,0,0,0-21.6,0A.79.79,0,0,1,242.39,318Z" fill="none" stroke="#003a50" stroke-miterlimit="10"/><path d="M242.39,312.92a.94.94,0,0,1-.83-.52.92.92,0,0,1,.42-1.23,26.4,26.4,0,0,1,23.22,0,.92.92,0,0,1-.81,1.65,24.58,24.58,0,0,0-21.6,0A.79.79,0,0,1,242.39,312.92Z" fill="none" stroke="#003a50" stroke-miterlimit="10"/><path d="M242.39,343.6a.92.92,0,0,1-.41-1.74,26.4,26.4,0,0,1,23.22,0,.92.92,0,0,1-.81,1.65,24.58,24.58,0,0,0-21.6,0A.78.78,0,0,1,242.39,343.6Z" fill="none" stroke="#003a50" stroke-miterlimit="10"/><path d="M242.39,348.72A.92.92,0,0,1,242,347a26.49,26.49,0,0,1,23.22,0,.91.91,0,0,1,.41,1.23.9.9,0,0,1-1.22.42,24.67,24.67,0,0,0-21.6,0A.79.79,0,0,1,242.39,348.72Z" fill="none" stroke="#003a50" stroke-miterlimit="10"/></g><line x1="253.59" y1="354.86" x2="253.59" y2="280.04" fill="none" stroke="#003a50" stroke-miterlimit="10"/><rect x="186.12" y="354.86" width="81.53" height="24.26" fill="none" stroke="#003a50" stroke-miterlimit="10"/><g clip-path="url(#clip-path)"><path d="M202.67,357.59a.75.75,0,0,1,.44-.69.77.77,0,0,1,1,.35,22.19,22.19,0,0,1,0,19.47.77.77,0,0,1-1.39-.68,20.57,20.57,0,0,0,0-18.11A.81.81,0,0,1,202.67,357.59Z" fill="none" stroke="#003a50" stroke-miterlimit="10"/><path d="M207,357.59a.76.76,0,0,1,.43-.69.78.78,0,0,1,1,.35,22.19,22.19,0,0,1,0,19.47A.77.77,0,0,1,207,376a20.66,20.66,0,0,0,0-18.11A.81.81,0,0,1,207,357.59Z" fill="none" stroke="#003a50" stroke-miterlimit="10"/><path d="M211.25,357.59a.76.76,0,0,1,.43-.69.78.78,0,0,1,1,.35,22.19,22.19,0,0,1,0,19.47.77.77,0,0,1-1.39-.68,20.66,20.66,0,0,0,0-18.11A.81.81,0,0,1,211.25,357.59Z" fill="none" stroke="#003a50" stroke-miterlimit="10"/><path d="M215.54,357.59a.76.76,0,0,1,.43-.69.78.78,0,0,1,1,.35,22.19,22.19,0,0,1,0,19.47.77.77,0,0,1-1.39-.68,20.66,20.66,0,0,0,0-18.11A.68.68,0,0,1,215.54,357.59Z" fill="none" stroke="#003a50" stroke-miterlimit="10"/><path d="M219.83,357.59a.76.76,0,0,1,.43-.69.78.78,0,0,1,1,.35,22.27,22.27,0,0,1,0,19.47.78.78,0,0,1-1,.35.77.77,0,0,1-.35-1,20.66,20.66,0,0,0,0-18.11A.68.68,0,0,1,219.83,357.59Z" fill="none" stroke="#003a50" stroke-miterlimit="10"/><path d="M224.12,357.59a.76.76,0,0,1,.43-.69.78.78,0,0,1,1,.35,22.27,22.27,0,0,1,0,19.47.78.78,0,0,1-1,.35.77.77,0,0,1-.35-1,20.66,20.66,0,0,0,0-18.11A.68.68,0,0,1,224.12,357.59Z" fill="none" stroke="#003a50" stroke-miterlimit="10"/><path d="M198.39,357.59a.77.77,0,0,1,1.46-.34,22.19,22.19,0,0,1,0,19.47.77.77,0,1,1-1.38-.68,20.66,20.66,0,0,0,0-18.11A.68.68,0,0,1,198.39,357.59Z" fill="none" stroke="#003a50" stroke-miterlimit="10"/><path d="M194.1,357.59a.77.77,0,0,1,1.46-.34,22.19,22.19,0,0,1,0,19.47.77.77,0,1,1-1.38-.68,20.66,20.66,0,0,0,0-18.11A.68.68,0,0,1,194.1,357.59Z" fill="none" stroke="#003a50" stroke-miterlimit="10"/></g><line x1="186.26" y1="366.98" x2="267.52" y2="366.98" fill="none" stroke="#003a50" stroke-miterlimit="10"/><rect x="320.18" y="449.73" width="192.16" height="32.22" fill="none" stroke="#003a50" stroke-miterlimit="10"/><rect x="398.72" y="449.73" width="31.64" height="32.22" fill="none" stroke="#003a50" stroke-miterlimit="10"/><line x1="423.83" y1="465.84" x2="405.26" y2="465.84" fill="none" stroke="#003a50" stroke-miterlimit="10"/><line x1="414.55" y1="456.39" x2="414.55" y2="475.3" fill="none" stroke="#003a50" stroke-miterlimit="10"/><line x1="421.11" y1="459.16" x2="407.98" y2="472.52" fill="none" stroke="#003a50" stroke-miterlimit="10"/><line x1="407.98" y1="459.16" x2="421.11" y2="472.52" fill="none" stroke="#003a50" stroke-miterlimit="10"/><rect x="247.2" y="213.95" width="113.38" height="34.02" fill="none" stroke="#003a50" stroke-miterlimit="10"/><g clip-path="url(#clip-path)"><path d="M342.77,243.15a1,1,0,0,1-1.91.44,28.77,28.77,0,0,1,0-25.26,1,1,0,0,1,1.34-.45,1,1,0,0,1,.46,1.34,26.81,26.81,0,0,0,0,23.49A.87.87,0,0,1,342.77,243.15Z" fill="none" stroke="#003a50" stroke-miterlimit="10"/><path d="M337.2,243.15a1,1,0,0,1-.56.9,1,1,0,0,1-1.34-.46,28.77,28.77,0,0,1,0-25.26,1,1,0,0,1,1.8.89,26.72,26.72,0,0,0,0,23.49A1,1,0,0,1,337.2,243.15Z" fill="none" stroke="#003a50" stroke-miterlimit="10"/><path d="M331.64,243.15a1,1,0,0,1-1.91.44,28.77,28.77,0,0,1,0-25.26,1,1,0,0,1,1.34-.45,1,1,0,0,1,.46,1.34,26.81,26.81,0,0,0,0,23.49A.87.87,0,0,1,331.64,243.15Z" fill="none" stroke="#003a50" stroke-miterlimit="10"/><path d="M326.07,243.15a1,1,0,0,1-1.9.44,28.77,28.77,0,0,1,0-25.26,1,1,0,0,1,1.8.89,26.72,26.72,0,0,0,0,23.49A1,1,0,0,1,326.07,243.15Z" fill="none" stroke="#003a50" stroke-miterlimit="10"/><path d="M320.51,243.15a1,1,0,0,1-1.91.44,28.77,28.77,0,0,1,0-25.26,1,1,0,0,1,1.34-.45,1,1,0,0,1,.46,1.34,26.81,26.81,0,0,0,0,23.49A.87.87,0,0,1,320.51,243.15Z" fill="none" stroke="#003a50" stroke-miterlimit="10"/><path d="M314.94,243.15a1,1,0,0,1-1.9.44,28.77,28.77,0,0,1,0-25.26,1,1,0,0,1,1.8.89,26.72,26.72,0,0,0,0,23.49A1,1,0,0,1,314.94,243.15Z" fill="none" stroke="#003a50" stroke-miterlimit="10"/><path d="M348.33,243.15a1,1,0,0,1-.56.9,1,1,0,0,1-1.34-.46,28.77,28.77,0,0,1,0-25.26,1,1,0,0,1,1.8.89,26.72,26.72,0,0,0,0,23.49A1,1,0,0,1,348.33,243.15Z" fill="none" stroke="#003a50" stroke-miterlimit="10"/><path d="M353.9,243.15a1,1,0,0,1-1.91.44,28.77,28.77,0,0,1,0-25.26,1,1,0,0,1,1.34-.45,1,1,0,0,1,.46,1.34,26.81,26.81,0,0,0,0,23.49A.87.87,0,0,1,353.9,243.15Z" fill="none" stroke="#003a50" stroke-miterlimit="10"/></g><line x1="359.89" y1="230.96" x2="247.19" y2="230.96" fill="none" stroke="#003a50" stroke-miterlimit="10"/><g clip-path="url(#clip-path)"><path d="M469.28,123V84h-40.8v39a1.91,1.91,0,0,0,1.91,1.92h37A1.91,1.91,0,0,0,469.28,123Z" fill="none" stroke="#003a50" stroke-miterlimit="10"/><path d="M471.2,165.56h43.4V124.77H471.2a1.92,1.92,0,0,0-1.92,1.92v36.95A1.92,1.92,0,0,0,471.2,165.56Z" fill="none" stroke="#003a50" stroke-miterlimit="10"/><path d="M471.2,206.34h43.4V165.56H471.2a1.92,1.92,0,0,0-1.92,1.92v37A1.92,1.92,0,0,0,471.2,206.34Z" fill="none" stroke="#003a50" stroke-miterlimit="10"/><path d="M429.21,84a3,3,0,0,1-3-3V77.26a3,3,0,0,1,3-3h90.58V216H469.73a3,3,0,0,1-3-3v-3.76a3,3,0,0,1,3-3H514.6V84Z" fill="none" stroke="#003a50" stroke-miterlimit="10"/></g><rect x="504.91" y="83.99" width="9.7" height="122.36" fill="none" stroke="#003a50" stroke-miterlimit="10"/><g clip-path="url(#clip-path)"><path d="M471.42,124.77H514.6V84H469.29v38.65A2.13,2.13,0,0,0,471.42,124.77Z" fill="none" stroke="#003a50" stroke-miterlimit="10"/><path d="M444.16,734.64a3.11,3.11,0,0,1-3.33,2.83h-4.22a3.11,3.11,0,0,1-3.33-2.83v-48.2H546.67v47.77a3.11,3.11,0,0,1-3.33,2.83h-4.22a3.1,3.1,0,0,1-3.32-2.83V691.39H444.16Z" fill="none" stroke="#003a50" stroke-miterlimit="10"/></g><rect x="367.43" y="65.73" width="17.01" height="101.63" fill="none" stroke="#003a50" stroke-miterlimit="10"/><polygon points="376.47 159.54 378.93 159.54 378.93 73.54 376.47 73.54 372.94 116.54 376.47 159.54" fill="none" stroke="#003a50" stroke-miterlimit="10"/><g clip-path="url(#clip-path)"><path d="M357.7,542.58a14.77,14.77,0,0,0,15.92-23.38A1.13,1.13,0,0,0,372,519a1.14,1.14,0,0,0-.17,1.61,12.47,12.47,0,0,1-14.15,19.5Z" fill="none" stroke="#003a50" stroke-miterlimit="10"/><rect x="323.68" y="488.33" width="34.02" height="84.03" rx="3.31" fill="none" stroke="#003a50" stroke-miterlimit="10"/><path d="M327.39,569.81a1.4,1.4,0,0,0,1.4-1.4V492.27a1.4,1.4,0,0,0-2.8,0v76.14a1.4,1.4,0,0,0,1.4,1.4" fill="none" stroke="#003a50" stroke-miterlimit="10"/><path d="M342,502a5.51,5.51,0,1,1,0-7.79A5.51,5.51,0,0,1,342,502Z" fill="none" stroke="#003a50" stroke-miterlimit="10"/><path d="M342.34,501.59c-1-.1-2,.29-3-.7-1.46-1.46.08-3-1.38-4.47s-3,.08-4.47-1.38" fill="none" stroke="#003a50" stroke-miterlimit="10"/><path d="M357.7,537.87a10.63,10.63,0,1,0,0-19.59Z" fill="none" stroke="#003a50" stroke-miterlimit="10"/><path d="M225.75,139a14.78,14.78,0,0,0,15.92-23.39A1.14,1.14,0,0,0,239.9,117a12.47,12.47,0,0,1-14.15,19.5Z" fill="none" stroke="#003a50" stroke-miterlimit="10"/><rect x="191.73" y="84.7" width="34.02" height="84.03" rx="3.31" fill="none" stroke="#003a50" stroke-miterlimit="10"/><path d="M195.44,166.18a1.4,1.4,0,0,0,1.4-1.39V88.64a1.4,1.4,0,0,0-2.8,0v76.15a1.4,1.4,0,0,0,1.4,1.39" fill="none" stroke="#003a50" stroke-miterlimit="10"/><path d="M210,98.38a5.51,5.51,0,1,1,0-7.79A5.51,5.51,0,0,1,210,98.38Z" fill="none" stroke="#003a50" stroke-miterlimit="10"/><path d="M210.39,98c-1-.1-2,.29-3-.7-1.46-1.46.08-3-1.38-4.47s-3,.09-4.47-1.38" fill="none" stroke="#003a50" stroke-miterlimit="10"/><path d="M225.75,134.25a10.63,10.63,0,1,0,0-19.59Z" fill="none" stroke="#003a50" stroke-miterlimit="10"/></g><rect x="16.14" y="91.24" width="52.33" height="113.67" fill="none" stroke="#003a50" stroke-miterlimit="10"/><g clip-path="url(#clip-path)"><path d="M59.53,195.2h-34a2.1,2.1,0,0,1-2.1-2.1V125.47H61.64V193.1A2.1,2.1,0,0,1,59.53,195.2Z" fill="none" stroke="#003a50" stroke-miterlimit="10"/></g><rect x="23.38" y="125.47" width="38.26" height="13.85" fill="none" stroke="#003a50" stroke-miterlimit="10"/><g clip-path="url(#clip-path)"><rect x="23.33" y="98.98" width="38.71" height="22.88" rx="2.2" fill="none" stroke="#003a50" stroke-miterlimit="10"/></g><rect x="14.95" y="213.95" width="113.38" height="34.02" fill="none" stroke="#003a50" stroke-miterlimit="10"/><g clip-path="url(#clip-path)"><path d="M32.76,243.15a1,1,0,0,0,1.9.44,28.77,28.77,0,0,0,0-25.26,1,1,0,0,0-1.8.89,26.72,26.72,0,0,1,0,23.49A1,1,0,0,0,32.76,243.15Z" fill="none" stroke="#003a50" stroke-miterlimit="10"/><path d="M38.33,243.15a1,1,0,0,0,.56.9,1,1,0,0,0,1.34-.46,28.77,28.77,0,0,0,0-25.26,1,1,0,0,0-1.8.89,26.72,26.72,0,0,1,0,23.49A1,1,0,0,0,38.33,243.15Z" fill="none" stroke="#003a50" stroke-miterlimit="10"/><path d="M43.89,243.15a1,1,0,0,0,1.91.44,28.77,28.77,0,0,0,0-25.26,1,1,0,0,0-1.34-.45,1,1,0,0,0-.46,1.34,26.81,26.81,0,0,1,0,23.49A.87.87,0,0,0,43.89,243.15Z" fill="none" stroke="#003a50" stroke-miterlimit="10"/><path d="M49.46,243.15a1,1,0,0,0,.56.9,1,1,0,0,0,1.34-.46,28.77,28.77,0,0,0,0-25.26,1,1,0,0,0-1.8.89,26.72,26.72,0,0,1,0,23.49A1,1,0,0,0,49.46,243.15Z" fill="none" stroke="#003a50" stroke-miterlimit="10"/><path d="M55,243.15a1,1,0,0,0,1.91.44,28.77,28.77,0,0,0,0-25.26,1,1,0,0,0-1.34-.45,1,1,0,0,0-.46,1.34,26.81,26.81,0,0,1,0,23.49A.87.87,0,0,0,55,243.15Z" fill="none" stroke="#003a50" stroke-miterlimit="10"/><path d="M60.59,243.15a1,1,0,0,0,1.9.44,28.77,28.77,0,0,0,0-25.26,1,1,0,0,0-1.8.89,26.72,26.72,0,0,1,0,23.49A1,1,0,0,0,60.59,243.15Z" fill="none" stroke="#003a50" stroke-miterlimit="10"/><path d="M27.2,243.15a1,1,0,0,0,.56.9,1,1,0,0,0,1.34-.46,28.77,28.77,0,0,0,0-25.26,1,1,0,0,0-1.8.89A26.44,26.44,0,0,1,30,231a26.48,26.48,0,0,1-2.72,11.75A1,1,0,0,0,27.2,243.15Z" fill="none" stroke="#003a50" stroke-miterlimit="10"/><path d="M21.63,243.15a1,1,0,0,0,1.9.44A28.41,28.41,0,0,0,26.45,231a28.41,28.41,0,0,0-2.92-12.63,1,1,0,0,0-1.8.89A26.44,26.44,0,0,1,24.45,231a26.48,26.48,0,0,1-2.72,11.75A1,1,0,0,0,21.63,243.15Z" fill="none" stroke="#003a50" stroke-miterlimit="10"/></g><line x1="15.64" y1="230.96" x2="128.34" y2="230.96" fill="none" stroke="#003a50" stroke-miterlimit="10"/><g clip-path="url(#clip-path)"><path d="M149.78,139a14.78,14.78,0,0,1-15.92-23.39,1.14,1.14,0,0,1,1.77,1.43,12.47,12.47,0,0,0,14.15,19.5Z" fill="none" stroke="#003a50" stroke-miterlimit="10"/><rect x="149.78" y="84.7" width="34.02" height="84.03" rx="3.31" fill="none" stroke="#003a50" stroke-miterlimit="10"/><path d="M180.09,166.18a1.39,1.39,0,0,0,1.39-1.39V88.64a1.4,1.4,0,0,0-2.79,0v76.15a1.4,1.4,0,0,0,1.4,1.39" fill="none" stroke="#003a50" stroke-miterlimit="10"/><path d="M165.51,98.38a5.51,5.51,0,1,0,0-7.79A5.51,5.51,0,0,0,165.51,98.38Z" fill="none" stroke="#003a50" stroke-miterlimit="10"/><path d="M165.14,98c1-.1,2,.29,3-.7,1.46-1.46-.08-3,1.38-4.47s3,.09,4.47-1.38" fill="none" stroke="#003a50" stroke-miterlimit="10"/><path d="M149.78,134.25a10.63,10.63,0,1,1,0-19.59Z" fill="none" stroke="#003a50" stroke-miterlimit="10"/></g><rect x="514.38" y="488.33" width="22.68" height="22.68" fill="none" stroke="#003a50" stroke-miterlimit="10"/><g clip-path="url(#clip-path)"><circle cx="525.72" cy="499.66" r="9.2" fill="none" stroke="#003a50" stroke-miterlimit="10"/><path d="M532.85,493.85c-1.7.17-3.41-.48-5.06,1.17-2.44,2.44.14,5-2.3,7.46s-5-.14-7.46,2.3" fill="none" stroke="#003a50" stroke-miterlimit="10"/></g><rect x="380.29" y="488.33" width="22.68" height="22.68" fill="none" stroke="#003a50" stroke-miterlimit="10"/><g clip-path="url(#clip-path)"><circle cx="391.63" cy="499.66" r="9.2" fill="none" stroke="#003a50" stroke-miterlimit="10"/><path d="M398.75,493.85c-1.69.17-3.41-.48-5.06,1.17-2.44,2.44.14,5-2.3,7.46s-5-.14-7.46,2.3" fill="none" stroke="#003a50" stroke-miterlimit="10"/></g><rect x="407.76" y="488.33" width="102.05" height="113.39" fill="none" stroke="#003a50" stroke-miterlimit="10"/><g clip-path="url(#clip-path)"><path d="M417.76,592h82.05a2.09,2.09,0,0,0,2.09-2.08V522.25H415.68v67.64A2.08,2.08,0,0,0,417.76,592Z" fill="none" stroke="#003a50" stroke-miterlimit="10"/><rect x="459.65" y="495.76" width="42.5" height="22.88" rx="1.98" fill="none" stroke="#003a50" stroke-miterlimit="10"/><rect x="415.43" y="495.76" width="42.5" height="22.88" rx="1.98" fill="none" stroke="#003a50" stroke-miterlimit="10"/></g><line x1="415.42" y1="536.1" x2="502.15" y2="536.1" fill="none" stroke="#003a50" stroke-miterlimit="10"/><rect x="286.23" y="455.95" width="30.76" height="125.1" fill="none" stroke="#003a50" stroke-miterlimit="10"/><g clip-path="url(#clip-path)"><path d="M289.7,564.14a1,1,0,0,1-.43-1.86,28.14,28.14,0,0,1,24.68,0,1,1,0,0,1-.86,1.76,26.19,26.19,0,0,0-23,0A.94.94,0,0,1,289.7,564.14Z" fill="none" stroke="#003a50" stroke-miterlimit="10"/><path d="M289.7,558.7a1,1,0,0,1-.43-1.86,28.14,28.14,0,0,1,24.68,0,1,1,0,0,1-.86,1.76,26.19,26.19,0,0,0-23,0A.94.94,0,0,1,289.7,558.7Z" fill="none" stroke="#003a50" stroke-miterlimit="10"/><path d="M289.7,553.26a1,1,0,0,1-.43-1.86,28.14,28.14,0,0,1,24.68,0,1,1,0,0,1-.86,1.76,26.19,26.19,0,0,0-23,0A.94.94,0,0,1,289.7,553.26Z" fill="none" stroke="#003a50" stroke-miterlimit="10"/><path d="M289.7,547.82a1,1,0,0,1-.43-1.86A28.14,28.14,0,0,1,314,546a1,1,0,0,1-.86,1.76,26.19,26.19,0,0,0-23,0A.94.94,0,0,1,289.7,547.82Z" fill="none" stroke="#003a50" stroke-miterlimit="10"/><path d="M289.7,542.39a1,1,0,0,1-.88-.55,1,1,0,0,1,.45-1.31,28.05,28.05,0,0,1,24.68,0,1,1,0,0,1,.45,1.3,1,1,0,0,1-1.31.46,26.1,26.1,0,0,0-23,0A1.08,1.08,0,0,1,289.7,542.39Z" fill="none" stroke="#003a50" stroke-miterlimit="10"/><path d="M289.7,537a1,1,0,0,1-.88-.55,1,1,0,0,1,.45-1.31,28.05,28.05,0,0,1,24.68,0,1,1,0,0,1,.45,1.31,1,1,0,0,1-1.31.45,26.1,26.1,0,0,0-23,0A.94.94,0,0,1,289.7,537Z" fill="none" stroke="#003a50" stroke-miterlimit="10"/><path d="M289.7,569.58a1,1,0,0,1-.43-1.86,28.05,28.05,0,0,1,24.68,0,1,1,0,0,1-.86,1.76,26.1,26.1,0,0,0-23,0A.94.94,0,0,1,289.7,569.58Z" fill="none" stroke="#003a50" stroke-miterlimit="10"/><path d="M289.7,575a1,1,0,0,1-.43-1.86,28.05,28.05,0,0,1,24.68,0,1,1,0,0,1-.86,1.76,26.1,26.1,0,0,0-23,0A.94.94,0,0,1,289.7,575Z" fill="none" stroke="#003a50" stroke-miterlimit="10"/></g><line x1="301.61" y1="580.87" x2="301.61" y2="456.12" fill="none" stroke="#003a50" stroke-miterlimit="10"/><rect x="218.4" y="639.09" width="98.7" height="30.76" fill="none" stroke="#003a50" stroke-miterlimit="10"/><g clip-path="url(#clip-path)"><path d="M300.19,666.38a1,1,0,0,1-1.86.43,28.05,28.05,0,0,1,0-24.68,1,1,0,1,1,1.76.86,26.1,26.1,0,0,0,0,23A.94.94,0,0,1,300.19,666.38Z" fill="none" stroke="#003a50" stroke-miterlimit="10"/><path d="M294.75,666.38a1,1,0,0,1-1.86.43,28.05,28.05,0,0,1,0-24.68,1,1,0,1,1,1.76.86,26.1,26.1,0,0,0,0,23A.94.94,0,0,1,294.75,666.38Z" fill="none" stroke="#003a50" stroke-miterlimit="10"/><path d="M289.31,666.38a1,1,0,0,1-1.86.43,28.14,28.14,0,0,1,0-24.68,1,1,0,1,1,1.76.86,26.19,26.19,0,0,0,0,23A.94.94,0,0,1,289.31,666.38Z" fill="none" stroke="#003a50" stroke-miterlimit="10"/><path d="M283.87,666.38a1,1,0,0,1-1.86.43,28.14,28.14,0,0,1,0-24.68,1,1,0,1,1,1.76.86,26.19,26.19,0,0,0,0,23A.94.94,0,0,1,283.87,666.38Z" fill="none" stroke="#003a50" stroke-miterlimit="10"/><path d="M278.43,666.38a1,1,0,0,1-1.86.43,28.14,28.14,0,0,1,0-24.68,1,1,0,1,1,1.76.86,26.19,26.19,0,0,0,0,23A.94.94,0,0,1,278.43,666.38Z" fill="none" stroke="#003a50" stroke-miterlimit="10"/><path d="M273,666.38a1,1,0,0,1-.55.88,1,1,0,0,1-1.31-.45,28.05,28.05,0,0,1,0-24.68,1,1,0,0,1,1.3-.45,1,1,0,0,1,.46,1.31,26.1,26.1,0,0,0,0,23A1.08,1.08,0,0,1,273,666.38Z" fill="none" stroke="#003a50" stroke-miterlimit="10"/><path d="M305.63,666.38a1,1,0,0,1-.55.88,1,1,0,0,1-1.31-.45,28.05,28.05,0,0,1,0-24.68,1,1,0,0,1,1.31-.45,1,1,0,0,1,.45,1.31,26.1,26.1,0,0,0,0,23A.94.94,0,0,1,305.63,666.38Z" fill="none" stroke="#003a50" stroke-miterlimit="10"/><path d="M311.07,666.38a1,1,0,0,1-.55.88,1,1,0,0,1-1.31-.45,28.05,28.05,0,0,1,0-24.68,1,1,0,0,1,1.3-.45A1,1,0,0,1,311,643a26.1,26.1,0,0,0,0,23A1.08,1.08,0,0,1,311.07,666.38Z" fill="none" stroke="#003a50" stroke-miterlimit="10"/></g><line x1="316.92" y1="654.47" x2="218.57" y2="654.47" fill="none" stroke="#003a50" stroke-miterlimit="10"/><g clip-path="url(#clip-path)"><rect x="271.93" y="686.17" width="28.86" height="30.54" fill="none" stroke="#003a50" stroke-miterlimit="10"/><rect x="113.98" y="686.41" width="122.14" height="29.57" fill="none" stroke="#003a50" stroke-miterlimit="10"/><rect x="241.67" y="686.41" width="30.26" height="30.26" fill="none" stroke="#003a50" stroke-miterlimit="10"/></g><rect x="185.52" y="456.03" width="26.58" height="64.79" fill="none" stroke="#003a50" stroke-miterlimit="10"/><g clip-path="url(#clip-path)"><path d="M188.52,506.22a.85.85,0,0,1-.37-1.61,24.26,24.26,0,0,1,21.33,0,.84.84,0,0,1,.39,1.13.83.83,0,0,1-1.13.39,22.63,22.63,0,0,0-19.84,0A.85.85,0,0,1,188.52,506.22Z" fill="none" stroke="#003a50" stroke-miterlimit="10"/><path d="M188.52,501.52a.85.85,0,0,1-.37-1.61,24.26,24.26,0,0,1,21.33,0,.85.85,0,1,1-.74,1.52,22.63,22.63,0,0,0-19.84,0A.85.85,0,0,1,188.52,501.52Z" fill="none" stroke="#003a50" stroke-miterlimit="10"/><path d="M188.52,496.82a.85.85,0,0,1-.37-1.61,24.26,24.26,0,0,1,21.33,0,.85.85,0,1,1-.74,1.52,22.63,22.63,0,0,0-19.84,0A.85.85,0,0,1,188.52,496.82Z" fill="none" stroke="#003a50" stroke-miterlimit="10"/><path d="M188.52,492.12a.86.86,0,0,1-.76-.48.85.85,0,0,1,.39-1.13,24.26,24.26,0,0,1,21.33,0,.85.85,0,1,1-.74,1.52,22.63,22.63,0,0,0-19.84,0A.85.85,0,0,1,188.52,492.12Z" fill="none" stroke="#003a50" stroke-miterlimit="10"/><path d="M188.52,487.42a.85.85,0,0,1-.37-1.61,24.26,24.26,0,0,1,21.33,0,.85.85,0,1,1-.74,1.52,22.63,22.63,0,0,0-19.84,0A.85.85,0,0,1,188.52,487.42Z" fill="none" stroke="#003a50" stroke-miterlimit="10"/><path d="M188.52,482.71a.84.84,0,0,1-.37-1.6,24.26,24.26,0,0,1,21.33,0,.84.84,0,0,1,.39,1.13.85.85,0,0,1-1.13.39,22.54,22.54,0,0,0-19.84,0A.84.84,0,0,1,188.52,482.71Z" fill="none" stroke="#003a50" stroke-miterlimit="10"/><path d="M188.52,510.92a.85.85,0,0,1-.37-1.61,24.26,24.26,0,0,1,21.33,0,.84.84,0,0,1,.39,1.13.83.83,0,0,1-1.13.39,22.63,22.63,0,0,0-19.84,0A.85.85,0,0,1,188.52,510.92Z" fill="none" stroke="#003a50" stroke-miterlimit="10"/><path d="M188.52,515.62a.85.85,0,0,1-.37-1.61,24.26,24.26,0,0,1,21.33,0,.84.84,0,0,1,.39,1.13.83.83,0,0,1-1.13.39,22.63,22.63,0,0,0-19.84,0A.85.85,0,0,1,188.52,515.62Z" fill="none" stroke="#003a50" stroke-miterlimit="10"/></g><line x1="198.82" y1="520.67" x2="198.82" y2="456.19" fill="none" stroke="#003a50" stroke-miterlimit="10"/><rect x="85.06" y="451.21" width="49.86" height="31.33" fill="none" stroke="#003a50" stroke-miterlimit="10"/><g clip-path="url(#clip-path)"><path d="M103.08,477.1a.86.86,0,0,0,.46.76.85.85,0,0,0,1.13-.39,24.13,24.13,0,0,0,0-21.19.83.83,0,0,0-1.12-.38.84.84,0,0,0-.39,1.12,22.44,22.44,0,0,1,0,19.71A.83.83,0,0,0,103.08,477.1Z" fill="none" stroke="#003a50" stroke-miterlimit="10"/><path d="M107.75,477.1a.86.86,0,0,0,.46.76.85.85,0,0,0,1.13-.39,24.13,24.13,0,0,0,0-21.19.83.83,0,0,0-1.12-.38.84.84,0,0,0-.39,1.12,22.44,22.44,0,0,1,0,19.71A.83.83,0,0,0,107.75,477.1Z" fill="none" stroke="#003a50" stroke-miterlimit="10"/><path d="M112.42,477.1a.86.86,0,0,0,.46.76.85.85,0,0,0,1.13-.39,24.13,24.13,0,0,0,0-21.19.83.83,0,0,0-1.12-.38.84.84,0,0,0-.39,1.12,22.44,22.44,0,0,1,0,19.71A.83.83,0,0,0,112.42,477.1Z" fill="none" stroke="#003a50" stroke-miterlimit="10"/><path d="M117.09,477.1a.86.86,0,0,0,.46.76.85.85,0,0,0,1.13-.39,24.13,24.13,0,0,0,0-21.19.83.83,0,0,0-1.12-.38.84.84,0,0,0-.39,1.12,22.44,22.44,0,0,1,0,19.71A.83.83,0,0,0,117.09,477.1Z" fill="none" stroke="#003a50" stroke-miterlimit="10"/><path d="M121.75,477.1a.87.87,0,0,0,.47.76.85.85,0,0,0,1.13-.39,24.13,24.13,0,0,0,0-21.19.83.83,0,0,0-1.12-.38.84.84,0,0,0-.39,1.12,22.44,22.44,0,0,1,0,19.71A.84.84,0,0,0,121.75,477.1Z" fill="none" stroke="#003a50" stroke-miterlimit="10"/><path d="M126.42,477.1a.87.87,0,0,0,.47.76.85.85,0,0,0,1.13-.39,24.13,24.13,0,0,0,0-21.19.83.83,0,0,0-1.12-.38.84.84,0,0,0-.39,1.12,22.44,22.44,0,0,1,0,19.71A.84.84,0,0,0,126.42,477.1Z" fill="none" stroke="#003a50" stroke-miterlimit="10"/><path d="M98.41,477.1a.86.86,0,0,0,.46.76.85.85,0,0,0,1.13-.39,24.13,24.13,0,0,0,0-21.19.83.83,0,0,0-1.12-.38.84.84,0,0,0-.39,1.12,22.44,22.44,0,0,1,0,19.71A.83.83,0,0,0,98.41,477.1Z" fill="none" stroke="#003a50" stroke-miterlimit="10"/><path d="M93.74,477.1a.86.86,0,0,0,.46.76.85.85,0,0,0,1.13-.39,24.13,24.13,0,0,0,0-21.19.83.83,0,0,0-1.12-.38.84.84,0,0,0-.39,1.12,22.44,22.44,0,0,1,0,19.71A.83.83,0,0,0,93.74,477.1Z" fill="none" stroke="#003a50" stroke-miterlimit="10"/></g><line x1="85.21" y1="466.88" x2="134.77" y2="466.88" fill="none" stroke="#003a50" stroke-miterlimit="10"/><rect x="283.97" y="253.4" width="34.02" height="131.32" fill="none" stroke="#003a50" stroke-miterlimit="10"/><rect x="317.98" y="253.39" width="49.18" height="33.36" fill="none" stroke="#003a50" stroke-miterlimit="10"/><rect x="283.96" y="286.76" width="34.02" height="34.02" fill="none" stroke="#003a50" stroke-miterlimit="10"/><line x1="300.98" y1="305.78" x2="300.98" y2="316.34" fill="none" stroke="#003a50" stroke-miterlimit="10"/><g clip-path="url(#clip-path)"><path d="M300.07,305.78h1.82a3.39,3.39,0,0,0,3.39-3.39v-11.2h-8.61v11.2A3.4,3.4,0,0,0,300.07,305.78Z" fill="none" stroke="#003a50" stroke-miterlimit="10"/></g><line x1="304.45" y1="316.34" x2="297.5" y2="316.34" fill="none" stroke="#003a50" stroke-miterlimit="10"/><rect x="283.97" y="335.04" width="34.02" height="34.02" fill="none" stroke="#003a50" stroke-miterlimit="10"/><g clip-path="url(#clip-path)"><path d="M288.57,359.64a4.69,4.69,0,1,0,4.69-4.7A4.69,4.69,0,0,0,288.57,359.64Z" fill="none" stroke="#003a50" stroke-miterlimit="10"/><path d="M304,359.64a4.69,4.69,0,1,0,4.7-4.7A4.69,4.69,0,0,0,304,359.64Z" fill="none" stroke="#003a50" stroke-miterlimit="10"/><path d="M288.57,344.47a4.69,4.69,0,1,0,4.69-4.7A4.69,4.69,0,0,0,288.57,344.47Z" fill="none" stroke="#003a50" stroke-miterlimit="10"/><path d="M304,344.47a4.69,4.69,0,1,0,4.7-4.7A4.69,4.69,0,0,0,304,344.47Z" fill="none" stroke="#003a50" stroke-miterlimit="10"/><rect x="327.54" y="261.09" width="30.06" height="21.66" rx="3.36" fill="none" stroke="#003a50" stroke-miterlimit="10"/><circle cx="342.57" cy="268.13" r="2.46" fill="none" stroke="#003a50" stroke-miterlimit="10"/></g><line x1="342.57" y1="268.89" x2="342.57" y2="255.27" fill="none" stroke="#003a50" stroke-miterlimit="10"/><line x1="335.76" y1="255.27" x2="349.38" y2="255.27" fill="none" stroke="#003a50" stroke-miterlimit="10"/><g clip-path="url(#clip-path)"><path d="M127.1,333.66h3.08A38.71,38.71,0,0,0,168.89,295H127.1" fill="none" stroke="#003a50" stroke-miterlimit="10" stroke-width="1.6"/><path d="M264.46,452.48v3.42a43,43,0,0,1-43,43V452.48" fill="none" stroke="#003a50" stroke-miterlimit="10" stroke-width="1.6"/><path d="M236.83,250.49v-3.42a43,43,0,0,0-43-43v46.4" fill="none" stroke="#003a50" stroke-miterlimit="10" stroke-width="1.6"/><path d="M133.79,250.49v-3.57A44.88,44.88,0,0,1,178.67,202v48.45" fill="none" stroke="#003a50" stroke-miterlimit="10" stroke-width="1.6"/><path d="M214.86,572h3.41a43,43,0,0,1,43,43H214.86" fill="none" stroke="#003a50" stroke-miterlimit="10" stroke-width="1.6"/><path d="M-44,432h3.89A48.89,48.89,0,0,0,8.79,383.08H-44" fill="none" stroke="#003a50" stroke-miterlimit="10" stroke-width="1.6"/><path d="M72.22,437.43H68.34a48.89,48.89,0,0,1-48.9-48.89H72.22" fill="none" stroke="#003a50" stroke-miterlimit="10" stroke-width="1.6"/><path d="M-46.28,712.27h4.06A51.13,51.13,0,0,0,8.91,661.15H-46.28" fill="none" stroke="#003a50" stroke-miterlimit="10" stroke-width="1.6"/><line x1="211.9" y1="445.73" x2="157.41" y2="445.73" fill="none" stroke="#003a50" stroke-miterlimit="10" stroke-width="1.6"/><polygon points="29.16 51.39 -66.58 51.39 -66.58 2.06 29.16 13.72 29.16 51.39" fill="#003a50" fill-rule="evenodd"/><rect x="185.89" y="3.56" width="26.7" height="47.83" fill="#003a50"/><rect x="116.92" y="17.39" width="91.66" height="34" fill="#003a50"/><rect x="-55.29" y="30.23" width="77.33" height="27.33" fill="#003a50"/><polygon points="395.39 51.39 299.65 51.39 299.65 2.06 395.39 13.72 395.39 51.39" fill="#003a50" fill-rule="evenodd"/><rect x="310.94" y="30.23" width="77.33" height="27.33" fill="#003a50"/><rect x="316.99" y="474.54" width="80" height="13.79" fill="#003a50"/><rect x="-56.94" y="363.91" width="142" height="16.69" fill="#003a50"/><rect x="68.74" y="372.44" width="16.32" height="16.79" fill="#003a50"/><rect x="68.74" y="436.49" width="16.32" height="201.07" fill="#003a50"/><rect x="68.74" y="629.38" width="16.32" height="21.06" fill="#003a50"/><rect x="103.8" y="637.56" width="10.75" height="78.67" fill="#003a50"/><rect x="72.22" y="635.21" width="42.34" height="15.54" fill="#003a50"/><rect x="103.81" y="669.85" width="447.72" height="16.32" fill="#003a50"/><rect x="-0.48" y="53.19" width="16.32" height="314.78" fill="#003a50"/><polygon points="547.52 466.36 547.52 562.1 596.86 562.1 585.19 466.36 547.52 466.36" fill="#003a50" fill-rule="evenodd"/><rect x="547.52" y="648.25" width="37.77" height="96.07" fill="#003a50"/><rect x="547.52" y="362.29" width="48.33" height="25.9" fill="#003a50"/><rect x="547.52" y="188.99" width="38.44" height="97.71" fill="#003a50"/><rect x="541.56" y="209.97" width="11.25" height="75.96" fill="#003a50"/><rect x="541.56" y="468.31" width="11.25" height="77.3" fill="#003a50"/><rect x="547.18" y="16.35" width="35.34" height="33.74" fill="#003a50"/><rect x="544.79" y="13.88" width="38.33" height="91.17" fill="#003a50"/><rect x="569.95" y="3.79" width="25.9" height="30.61" fill="#003a50"/><rect x="124.36" y="250.97" width="6.38" height="44.81" fill="#003a50"/><rect x="242.98" y="251.97" width="6.38" height="29.3" fill="#003a50"/><rect x="247.01" y="274.89" width="35.15" height="6.38" fill="#003a50"/><rect x="14.32" y="248.23" width="70.74" height="6.38" fill="#003a50"/><rect x="14.32" y="279.83" width="25.64" height="6.38" fill="#003a50"/><rect x="124.35" y="332.83" width="6.38" height="52.05" fill="#003a50"/><rect x="263.62" y="449.73" width="58.83" height="6.38" fill="#003a50"/><rect x="236" y="246.86" width="131.44" height="6.38" fill="#003a50"/><rect x="184.88" y="47.54" width="6.38" height="200.68" fill="#003a50"/><rect x="178.67" y="246.86" width="16.12" height="6.38" fill="#003a50"/><rect x="316.99" y="449.73" width="6.38" height="131.31" fill="#003a50"/><rect x="388.87" y="481.95" width="158.31" height="6.38" fill="#003a50"/><rect x="316.99" y="636.29" width="6.38" height="41.71" fill="#003a50"/><rect x="212.11" y="452.49" width="6.38" height="120.39" fill="#003a50"/><rect x="117" y="520.82" width="98.3" height="6.38" fill="#003a50"/><rect x="83.5" y="482.66" width="57.8" height="6.38" fill="#003a50"/><rect x="134.92" y="449.73" width="6.38" height="37.04" fill="#003a50"/><rect x="212.11" y="613.9" width="6.38" height="60.48" fill="#003a50"/><rect x="214.91" y="639.09" width="23.58" height="6.38" fill="#003a50"/><rect x="235.3" y="639.09" width="6.38" height="40.58" fill="#003a50"/><rect x="137.25" y="449.73" width="6.38" height="6.38" fill="#003a50"/><rect x="184.65" y="449.73" width="37.95" height="6.38" fill="#003a50"/><rect x="267.59" y="250.05" width="16.38" height="134.97" fill="#003a50"/><rect x="37.29" y="361.43" width="91.06" height="8.85" fill="#003a50"/><rect x="3.29" y="248.23" width="131.12" height="6.38" fill="#003a50"/><rect x="361.06" y="52.79" width="6.38" height="200.44" fill="#003a50"/><rect x="34.85" y="251.63" width="6.38" height="118.66" fill="#003a50"/><rect x="-24.29" y="327.71" width="25.64" height="6.38" fill="#003a50"/><rect x="68.74" y="642.97" width="6.38" height="73.25" fill="#003a50"/><rect x="78.96" y="567.18" width="41.22" height="6.38" fill="#003a50"/><rect x="84.43" y="532.51" width="33.64" height="6.38" fill="#003a50"/><rect x="100.21" y="648.55" width="6.38" height="58.66" fill="#003a50"/><rect x="113.81" y="485.04" width="6.38" height="86.32" fill="#003a50"/><line x1="321.79" y1="567.79" x2="321.79" y2="570.63" fill="none" stroke="#003a50" stroke-miterlimit="10"/><line x1="321.79" y1="575.87" x2="321.79" y2="636.12" fill="none" stroke="#003a50" stroke-miterlimit="10" stroke-dasharray="5.24 5.24"/><line x1="321.79" y1="638.74" x2="321.79" y2="641.58" fill="none" stroke="#003a50" stroke-miterlimit="10"/><rect x="14.32" y="248.23" width="70.74" height="6.38" fill="#003a50"/><rect x="14.32" y="279.83" width="25.64" height="6.38" fill="#003a50"/><rect x="361.06" y="52.79" width="6.38" height="142.86" fill="#003a50"/><rect x="361.06" y="237.24" width="6.38" height="15.18" fill="#003a50"/><rect x="34.85" y="251.63" width="6.38" height="118.66" fill="#003a50"/><rect x="-24.29" y="327.71" width="25.64" height="6.38" fill="#003a50"/><rect x="-124.12" y="241.61" width="125.47" height="6.38" fill="#003a50"/><rect x="68.74" y="642.97" width="6.38" height="73.25" fill="#003a50"/><rect x="84.43" y="532.51" width="33.64" height="6.38" fill="#003a50"/><rect x="100.21" y="648.55" width="6.38" height="58.66" fill="#003a50"/><rect x="113.81" y="483.92" width="6.38" height="87.45" fill="#003a50"/></g><g clip-path="url(#clip-path)"><path d="M514.51,25.41l-1.75,1.38V25.21l1.93-1.6H516V32h-1.49Z" fill="#003a50"/><path d="M517.78,31.92a.73.73,0,0,1-.23-.57.75.75,0,0,1,.23-.57.87.87,0,0,1,.61-.21.85.85,0,0,1,.61.21.71.71,0,0,1,.23.57.7.7,0,0,1-.23.57.85.85,0,0,1-.61.21A.87.87,0,0,1,517.78,31.92Z" fill="#003a50"/><path d="M521.59,30.93a4.59,4.59,0,0,1-1-3.12,4.61,4.61,0,0,1,1-3.12,4,4,0,0,1,5.74,0,4.56,4.56,0,0,1,1,3.12,4.54,4.54,0,0,1-1,3.12,4,4,0,0,1-5.74,0Zm4.61-1a3.52,3.52,0,0,0,.61-2.14,3.5,3.5,0,0,0-.61-2.14,2.21,2.21,0,0,0-3.47,0,3.5,3.5,0,0,0-.62,2.14,3.52,3.52,0,0,0,.62,2.14,2,2,0,0,0,1.73.84A2.05,2.05,0,0,0,526.2,30Z" fill="#003a50"/><path d="M229,30.93a4.55,4.55,0,0,1-1.05-3.12A4.57,4.57,0,0,1,229,24.69a4,4,0,0,1,5.73,0,4.57,4.57,0,0,1,1.05,3.12,4.55,4.55,0,0,1-1.05,3.12,4,4,0,0,1-5.73,0Zm4.6-1a3.52,3.52,0,0,0,.62-2.14,3.5,3.5,0,0,0-.62-2.14,2.21,2.21,0,0,0-3.47,0,3.5,3.5,0,0,0-.62,2.14A3.52,3.52,0,0,0,230.1,30a2.21,2.21,0,0,0,3.47,0Z" fill="#003a50"/><path d="M237.29,31.92a.73.73,0,0,1-.23-.57.75.75,0,0,1,.23-.57,1,1,0,0,1,1.23,0,.75.75,0,0,1,.23.57.73.73,0,0,1-.23.57,1,1,0,0,1-1.23,0Z" fill="#003a50"/><path d="M246.9,26h-1.56s0-.05,0-.13a2.34,2.34,0,0,0-.16-.31,1.49,1.49,0,0,0-.27-.35,1.32,1.32,0,0,0-.5-.29,2,2,0,0,0-.71-.11,1.78,1.78,0,0,0-1.52.72,3.12,3.12,0,0,0-.54,1.9h0a1.28,1.28,0,0,1,.31-.31,3.28,3.28,0,0,1,.43-.26,3.14,3.14,0,0,1,.67-.21,4.12,4.12,0,0,1,.86-.09,3.57,3.57,0,0,1,2.38.78,2.49,2.49,0,0,1,.92,2,2.52,2.52,0,0,1-1,2.05,3.91,3.91,0,0,1-2.54.78A3.38,3.38,0,0,1,241,31a4.45,4.45,0,0,1-.94-3v-.29a4.77,4.77,0,0,1,.94-3,3.16,3.16,0,0,1,2.68-1.21,3.93,3.93,0,0,1,1.5.27,2.61,2.61,0,0,1,1,.66A2.39,2.39,0,0,1,246.9,26Zm-1.77,2.22a2.21,2.21,0,0,0-1.39-.41,2.26,2.26,0,0,0-1.4.41,1.4,1.4,0,0,0,0,2.22,2.28,2.28,0,0,0,1.4.41,2.32,2.32,0,0,0,1.4-.41,1.32,1.32,0,0,0,.54-1.11A1.3,1.3,0,0,0,245.13,28.2Z" fill="#003a50"/><path d="M43.43,30.93a4.59,4.59,0,0,1-1-3.12,4.61,4.61,0,0,1,1-3.12,3.63,3.63,0,0,1,2.88-1.2,3.59,3.59,0,0,1,2.86,1.2,4.56,4.56,0,0,1,1,3.12,4.54,4.54,0,0,1-1,3.12,3.59,3.59,0,0,1-2.86,1.2A3.63,3.63,0,0,1,43.43,30.93ZM48,30a3.52,3.52,0,0,0,.61-2.14A3.5,3.5,0,0,0,48,25.67a2.21,2.21,0,0,0-3.47,0A3.5,3.5,0,0,0,44,27.81,3.52,3.52,0,0,0,44.57,30,2.21,2.21,0,0,0,48,30Z" fill="#003a50"/><path d="M51.76,31.92a.73.73,0,0,1-.23-.57.75.75,0,0,1,.23-.57.88.88,0,0,1,.62-.21.84.84,0,0,1,.6.21.71.71,0,0,1,.23.57.7.7,0,0,1-.23.57.84.84,0,0,1-.6.21A.88.88,0,0,1,51.76,31.92Z" fill="#003a50"/><path d="M61.37,26H59.81s0-.05,0-.13a1.38,1.38,0,0,0-.15-.31,1.49,1.49,0,0,0-.27-.35,1.32,1.32,0,0,0-.5-.29,2.07,2.07,0,0,0-.71-.11,1.77,1.77,0,0,0-1.52.72,3.12,3.12,0,0,0-.54,1.9h0a1.28,1.28,0,0,1,.31-.31,3.28,3.28,0,0,1,.43-.26,3.14,3.14,0,0,1,.67-.21,4.12,4.12,0,0,1,.86-.09,3.57,3.57,0,0,1,2.38.78,2.49,2.49,0,0,1,.92,2,2.52,2.52,0,0,1-1,2.05,3.92,3.92,0,0,1-2.55.78A3.38,3.38,0,0,1,55.46,31a4.5,4.5,0,0,1-.93-3v-.29a4.83,4.83,0,0,1,.93-3,3.18,3.18,0,0,1,2.69-1.21,3.93,3.93,0,0,1,1.5.27,2.69,2.69,0,0,1,1,.66A2.44,2.44,0,0,1,61.37,26ZM59.6,28.2a2.58,2.58,0,0,0-2.79,0,1.4,1.4,0,0,0,0,2.22,2.28,2.28,0,0,0,1.4.41,2.34,2.34,0,0,0,1.4-.41,1.32,1.32,0,0,0,.54-1.11A1.3,1.3,0,0,0,59.6,28.2Z" fill="#003a50"/><path d="M574.24,636.64a5.2,5.2,0,0,1-6.24,0,4,4,0,0,1,0-5.74,5.2,5.2,0,0,1,6.24,0,4,4,0,0,1,0,5.74Zm-1-4.61a4.06,4.06,0,0,0-4.28,0,2.05,2.05,0,0,0-.84,1.74,2,2,0,0,0,.84,1.73,4,4,0,0,0,4.28,0,2,2,0,0,0,.84-1.73A2.05,2.05,0,0,0,573.26,632Z" fill="#003a50"/><path d="M575.23,628.31a.69.69,0,0,1-.57.23.71.71,0,0,1-.57-.23,1,1,0,0,1,0-1.22.75.75,0,0,1,.57-.23.72.72,0,0,1,.57.23,1,1,0,0,1,0,1.22Z" fill="#003a50"/><path d="M569.29,618.7v1.56a.37.37,0,0,0-.13,0l-.31.15a2.33,2.33,0,0,0-.35.27,1.37,1.37,0,0,0-.29.51,2.25,2.25,0,0,0-.11.71,1.76,1.76,0,0,0,.72,1.51,3.12,3.12,0,0,0,1.9.54v0a1.27,1.27,0,0,1-.31-.31,2.73,2.73,0,0,1-.26-.43,3,3,0,0,1-.21-.67,4,4,0,0,1-.09-.85,3.55,3.55,0,0,1,.78-2.38,2.46,2.46,0,0,1,2-.92,2.52,2.52,0,0,1,2,1,3.87,3.87,0,0,1,.78,2.54,3.38,3.38,0,0,1-1.09,2.73,4.5,4.5,0,0,1-3,.93h-.29a4.83,4.83,0,0,1-3-.93,3.19,3.19,0,0,1-1.21-2.68,3.86,3.86,0,0,1,.27-1.5,2.73,2.73,0,0,1,.66-1A2.44,2.44,0,0,1,569.29,618.7Zm2.22,1.77a2.26,2.26,0,0,0-.41,1.4,2.21,2.21,0,0,0,.41,1.39,1.3,1.3,0,0,0,1.11.55,1.31,1.31,0,0,0,1.11-.54,2.6,2.6,0,0,0,0-2.8,1.4,1.4,0,0,0-2.22,0Z" fill="#003a50"/><path d="M574.24,176.17a5.2,5.2,0,0,1-6.24,0,3.63,3.63,0,0,1-1.2-2.88,3.59,3.59,0,0,1,1.2-2.86,5.2,5.2,0,0,1,6.24,0,3.59,3.59,0,0,1,1.2,2.86A3.63,3.63,0,0,1,574.24,176.17Zm-1-4.61a4,4,0,0,0-4.28,0,2.21,2.21,0,0,0,0,3.47,4,4,0,0,0,4.28,0,2.21,2.21,0,0,0,0-3.47Z" fill="#003a50"/><path d="M575.23,167.84a.72.72,0,0,1-.57.23.75.75,0,0,1-.57-.23,1,1,0,0,1,0-1.23.74.74,0,0,1,.57-.22.71.71,0,0,1,.57.22,1,1,0,0,1,0,1.23Z" fill="#003a50"/><path d="M569.29,158.23v1.56s0,0-.13,0a1.38,1.38,0,0,0-.31.15,1.49,1.49,0,0,0-.35.27,1.32,1.32,0,0,0-.29.5,2.3,2.3,0,0,0-.11.71,1.78,1.78,0,0,0,.72,1.52,3.12,3.12,0,0,0,1.9.54v0a1.49,1.49,0,0,1-.31-.31,3.28,3.28,0,0,1-.26-.43,3.14,3.14,0,0,1-.21-.67,4.12,4.12,0,0,1-.09-.86,3.57,3.57,0,0,1,.78-2.38,2.49,2.49,0,0,1,2-.92,2.52,2.52,0,0,1,2,1,3.92,3.92,0,0,1,.78,2.55,3.38,3.38,0,0,1-1.09,2.73,4.5,4.5,0,0,1-3,.93h-.29a4.83,4.83,0,0,1-3-.93,3.21,3.21,0,0,1-1.21-2.69,3.93,3.93,0,0,1,.27-1.5,2.69,2.69,0,0,1,.66-1A2.44,2.44,0,0,1,569.29,158.23Zm2.22,1.77a2.58,2.58,0,0,0,0,2.79,1.4,1.4,0,0,0,2.22,0,2.22,2.22,0,0,0,.41-1.4,2.26,2.26,0,0,0-.41-1.4,1.31,1.31,0,0,0-1.11-.54A1.3,1.3,0,0,0,571.51,160Z" fill="#003a50"/><path d="M574.14,457.06a5.19,5.19,0,0,1-6.23,0,4,4,0,0,1,0-5.74,5.19,5.19,0,0,1,6.23,0,4,4,0,0,1,0,5.74Zm-1-4.61a3.47,3.47,0,0,0-2.13-.61,3.53,3.53,0,0,0-2.15.61,2.07,2.07,0,0,0-.83,1.74,2,2,0,0,0,.83,1.73,3.47,3.47,0,0,0,2.15.62,3.41,3.41,0,0,0,2.13-.62,2,2,0,0,0,.84-1.73A2.05,2.05,0,0,0,573.16,452.45Z" fill="#003a50"/><path d="M575.13,448.73a.69.69,0,0,1-.57.23.7.7,0,0,1-.56-.23,1,1,0,0,1,0-1.22.74.74,0,0,1,.56-.23.72.72,0,0,1,.57.23,1,1,0,0,1,0,1.22Z" fill="#003a50"/><path d="M569.6,442.18a3.52,3.52,0,0,1,.75-2.35,2.92,2.92,0,0,1,4.23,0,3.77,3.77,0,0,1,.76,2.5,4,4,0,0,1-.68,2.51,2.22,2.22,0,0,1-1.89.91v-1.49a1.09,1.09,0,0,0,.94-.49,2.59,2.59,0,0,0,.34-1.44,2.2,2.2,0,0,0-.41-1.43,1.42,1.42,0,0,0-1.18-.5,1.45,1.45,0,0,0-1.21.52,2.33,2.33,0,0,0-.41,1.46,2.52,2.52,0,0,0,.3,1.36,1.36,1.36,0,0,0,.45.49l.09,0v1.49h-4.86v-6.26h1.3v4.77h2.09v0A2.28,2.28,0,0,1,570,444a3.39,3.39,0,0,1-.18-.39A4,4,0,0,1,569.6,442.18Z" fill="#003a50"/><path d="M574.14,353.13a5.19,5.19,0,0,1-6.23,0,4,4,0,0,1,0-5.74,5.19,5.19,0,0,1,6.23,0,4,4,0,0,1,0,5.74Zm-1-4.61a3.47,3.47,0,0,0-2.13-.61,3.53,3.53,0,0,0-2.15.61,2.07,2.07,0,0,0-.83,1.74,2,2,0,0,0,.83,1.73,3.47,3.47,0,0,0,2.15.62,3.41,3.41,0,0,0,2.13-.62,2,2,0,0,0,.84-1.73A2.05,2.05,0,0,0,573.16,348.52Z" fill="#003a50"/><path d="M575.13,344.8a.72.72,0,0,1-.57.23.74.74,0,0,1-.56-.23.87.87,0,0,1-.21-.61.85.85,0,0,1,.21-.61.74.74,0,0,1,.56-.23.72.72,0,0,1,.57.23.85.85,0,0,1,.21.61A.87.87,0,0,1,575.13,344.8Z" fill="#003a50"/><path d="M569.6,338.25a3.52,3.52,0,0,1,.75-2.35,2.92,2.92,0,0,1,4.23,0,3.77,3.77,0,0,1,.76,2.5,4,4,0,0,1-.68,2.51,2.22,2.22,0,0,1-1.89.91v-1.49a1.09,1.09,0,0,0,.94-.49,2.59,2.59,0,0,0,.34-1.44,2.23,2.23,0,0,0-.41-1.44,1.42,1.42,0,0,0-1.18-.49,1.45,1.45,0,0,0-1.21.52,2.31,2.31,0,0,0-.41,1.46,2.48,2.48,0,0,0,.3,1.35,1.33,1.33,0,0,0,.45.5l.09,0v1.49h-4.86v-6.26h1.3v4.77h2.09v0A1.82,1.82,0,0,1,570,340a2.64,2.64,0,0,1-.18-.38A4,4,0,0,1,569.6,338.25Z" fill="#003a50"/></g><rect x="185.76" y="378.64" width="86.7" height="6.38" fill="#003a50"/><rect x="235.3" y="676.89" width="6.38" height="9.09" fill="#003a50"/><g clip-path="url(#clip-path)"><path d="M156.75,602.3a5,5,0,0,1,3.34,1.06,4.18,4.18,0,0,1,0,6,5.39,5.39,0,0,1-3.55,1.08,5.79,5.79,0,0,1-3.56-1,3.16,3.16,0,0,1-1.29-2.68h2.11a1.55,1.55,0,0,0,.7,1.33,3.61,3.61,0,0,0,2,.49,3.07,3.07,0,0,0,2-.58,2.33,2.33,0,0,0,0-3.38,3.25,3.25,0,0,0-2.07-.59,3.6,3.6,0,0,0-1.92.42,1.93,1.93,0,0,0-.7.64l-.05.12h-2.11v-6.87h8.88v1.84h-6.77v3h.05a2.22,2.22,0,0,1,.4-.31,4,4,0,0,1,.55-.27A5.85,5.85,0,0,1,156.75,602.3Z" fill="#003a50"/><path d="M163.45,610.14a1,1,0,0,1-.32-.8,1.07,1.07,0,0,1,.32-.81,1.25,1.25,0,0,1,.88-.3,1.22,1.22,0,0,1,.86.3,1,1,0,0,1,.32.81,1,1,0,0,1-.32.8,1.22,1.22,0,0,1-.86.3A1.25,1.25,0,0,1,163.45,610.14Z" fill="#003a50"/><path d="M177.23,610.28H167.3v-1.57a2.76,2.76,0,0,1,.58-1.74,3.83,3.83,0,0,1,1.45-1.19c.49-.26,1.12-.55,1.86-.87s1.33-.55,1.88-.77a4.36,4.36,0,0,0,1.45-.91,1.82,1.82,0,0,0,.57-1.31c0-1.26-.89-1.88-2.67-1.88s-2.67.72-2.67,2.16v.4h-2.11v-.4a3.62,3.62,0,0,1,1.26-3,5.38,5.38,0,0,1,3.51-1,5.73,5.73,0,0,1,3.52,1,3.31,3.31,0,0,1,1.27,2.75,3.17,3.17,0,0,1-.56,1.84,4.26,4.26,0,0,1-1.4,1.3c-.6.34-1.21.65-1.84.93s-1.23.53-1.82.75a5.18,5.18,0,0,0-1.41.75,1.23,1.23,0,0,0-.56,1h7.62Z" fill="#003a50"/><path d="M294.16,601.72H292s0-.06,0-.17a2.36,2.36,0,0,0-.21-.44,2.4,2.4,0,0,0-.39-.5,1.85,1.85,0,0,0-.71-.41,3,3,0,0,0-1-.16,2.49,2.49,0,0,0-2.15,1,4.39,4.39,0,0,0-.76,2.68h.05a1.8,1.8,0,0,1,.44-.43,4,4,0,0,1,.61-.37,3.81,3.81,0,0,1,1-.3,5.49,5.49,0,0,1,1.22-.13,5.05,5.05,0,0,1,3.37,1.11,3.51,3.51,0,0,1,1.3,2.8,3.57,3.57,0,0,1-1.36,2.91,5.55,5.55,0,0,1-3.6,1.1,4.81,4.81,0,0,1-3.87-1.54,6.38,6.38,0,0,1-1.32-4.27v-.41a6.85,6.85,0,0,1,1.32-4.31,4.52,4.52,0,0,1,3.8-1.71,5.87,5.87,0,0,1,2.13.37,3.91,3.91,0,0,1,1.43.94A3.46,3.46,0,0,1,294.16,601.72Zm-2.51,3.15a3.65,3.65,0,0,0-3.95,0,2,2,0,0,0,0,3.15,3.21,3.21,0,0,0,2,.59,3.26,3.26,0,0,0,2-.59,2,2,0,0,0,0-3.15Z" fill="#003a50"/><path d="M296.81,610.14a1,1,0,0,1-.33-.8,1,1,0,0,1,.33-.81,1.4,1.4,0,0,1,1.73,0,1,1,0,0,1,.33.81,1,1,0,0,1-.33.8,1.4,1.4,0,0,1-1.73,0Z" fill="#003a50"/><path d="M300.94,606.93h2.21s0,.07,0,.18a2.75,2.75,0,0,0,.64.92,2.41,2.41,0,0,0,.75.41,3.21,3.21,0,0,0,1.05.17,2.68,2.68,0,0,0,2.25-1.07,4.35,4.35,0,0,0,.8-2.7h-.06a2,2,0,0,1-.44.46,2.56,2.56,0,0,1-.59.4,3.5,3.5,0,0,1-.95.32,5.59,5.59,0,0,1-1.23.14,5,5,0,0,1-3.36-1.13,3.73,3.73,0,0,1,.05-5.72,5.49,5.49,0,0,1,3.6-1.11,4.81,4.81,0,0,1,3.87,1.55,6.35,6.35,0,0,1,1.32,4.26v.41a6.64,6.64,0,0,1-1.37,4.31,4.69,4.69,0,0,1-3.89,1.71,5.9,5.9,0,0,1-2.16-.37,3.86,3.86,0,0,1-1.48-1A3.33,3.33,0,0,1,300.94,606.93Zm2.78-3.16a3.58,3.58,0,0,0,3.94,0,1.87,1.87,0,0,0,.78-1.57,1.89,1.89,0,0,0-.77-1.58,3.22,3.22,0,0,0-2-.58,3.16,3.16,0,0,0-2,.58,2,2,0,0,0,0,3.15Z" fill="#003a50"/><path d="M153.37,465.17l-2.48,1.95v-2.24l2.73-2.27h1.86v11.91h-2.11Z" fill="#003a50"/><path d="M158,474.39a1,1,0,0,1-.33-.81,1,1,0,0,1,.33-.81,1.44,1.44,0,0,1,1.73,0,1,1,0,0,1,.33.81,1,1,0,0,1-.33.81,1.44,1.44,0,0,1-1.73,0Z" fill="#003a50"/><path d="M170.59,473.75a7.77,7.77,0,0,1-7.37,0,3,3,0,0,1-1.37-2.56,2.66,2.66,0,0,1,.26-1.16,2.41,2.41,0,0,1,.65-.86,4,4,0,0,1,1.4-.77l.26-.07v-.09a3.57,3.57,0,0,1-.77-.29,2.61,2.61,0,0,1-.66-.44,2.24,2.24,0,0,1-.54-.76,2.39,2.39,0,0,1-.23-1,2.8,2.8,0,0,1,1.26-2.38,7,7,0,0,1,6.85,0,2.83,2.83,0,0,1,1.25,2.38,2.67,2.67,0,0,1-.22,1,2,2,0,0,1-.56.74,3.59,3.59,0,0,1-1.19.68l-.23.05v.09l.29.07a5.44,5.44,0,0,1,.62.26,4.28,4.28,0,0,1,.77.51,2.83,2.83,0,0,1,.62.82,2.71,2.71,0,0,1,.27,1.2A2.94,2.94,0,0,1,170.59,473.75Zm-5.79-1.35a3.84,3.84,0,0,0,2.1.48,3.94,3.94,0,0,0,2.1-.47,1.6,1.6,0,0,0,0-2.7,4.93,4.93,0,0,0-4.2,0,1.53,1.53,0,0,0-.74,1.35A1.51,1.51,0,0,0,164.8,472.4Zm-.37-6.52a1.36,1.36,0,0,0,.65,1.19,4,4,0,0,0,3.64,0,1.42,1.42,0,0,0,0-2.39,4,4,0,0,0-3.62,0A1.36,1.36,0,0,0,164.43,465.88Z" fill="#003a50"/><path d="M475.3,621.23l-2.48,1.95v-2.24l2.73-2.27h1.86v11.91H475.3Z" fill="#003a50"/><path d="M486.13,620.52h-5.82v-1.85h8.86v1.85l-4.53,2.65v.06h1.28a3.87,3.87,0,0,1,2.79,1,3.49,3.49,0,0,1,1.06,2.66,3.35,3.35,0,0,1-1.33,2.83,7,7,0,0,1-7.24,0,3.37,3.37,0,0,1-1.33-2.86v-.32H482v.32c0,1.36.94,2,2.84,2s2.84-.66,2.84-2-1-2-2.84-2h-3.27v-1.67l4.58-2.69Z" fill="#003a50"/><path d="M491.87,630.45a1,1,0,0,1-.33-.8,1,1,0,0,1,.33-.81,1.4,1.4,0,0,1,1.73,0,1,1,0,0,1,.33.81,1,1,0,0,1-.33.8,1.4,1.4,0,0,1-1.73,0Z" fill="#003a50"/><path d="M504.45,629.82a7.73,7.73,0,0,1-7.37,0,3,3,0,0,1-1.37-2.56,2.7,2.7,0,0,1,.26-1.16,2.41,2.41,0,0,1,.66-.86,4,4,0,0,1,1.39-.77l.26-.06v-.09a3.18,3.18,0,0,1-.77-.3,2.61,2.61,0,0,1-.66-.44,2.2,2.2,0,0,1-.54-.75,2.41,2.41,0,0,1-.22-1,2.78,2.78,0,0,1,1.25-2.38,7,7,0,0,1,6.85,0,2.81,2.81,0,0,1,1.25,2.38,2.58,2.58,0,0,1-.22,1,2,2,0,0,1-.55.74,3.59,3.59,0,0,1-1.2.69l-.22,0v.09l.28.06a6.35,6.35,0,0,1,.62.27,3.79,3.79,0,0,1,.77.5,2.89,2.89,0,0,1,.62.83,2.63,2.63,0,0,1,.27,1.19A3,3,0,0,1,504.45,629.82Zm-5.79-1.35a4.83,4.83,0,0,0,4.2,0,1.59,1.59,0,0,0,0-2.69,4.93,4.93,0,0,0-4.2,0,1.51,1.51,0,0,0-.74,1.35A1.52,1.52,0,0,0,498.66,628.47ZM498.3,622a1.36,1.36,0,0,0,.64,1.19,3.24,3.24,0,0,0,1.82.43,3.2,3.2,0,0,0,1.82-.43,1.42,1.42,0,0,0,0-2.39,3.94,3.94,0,0,0-3.62,0A1.35,1.35,0,0,0,498.3,622Z" fill="#003a50"/><path d="M108.52,397,106,398.9v-2.24l2.73-2.27h1.86V406.3h-2.11Z" fill="#003a50"/><path d="M114.65,404.76a7.33,7.33,0,0,1,0-8.83,5.69,5.69,0,0,1,8.13,0,7.33,7.33,0,0,1,0,8.83,5.71,5.71,0,0,1-8.13,0Zm6.53-1.38a5.75,5.75,0,0,0,0-6.08,3.17,3.17,0,0,0-4.92,0,5.69,5.69,0,0,0,0,6.08,3.15,3.15,0,0,0,4.92,0Z" fill="#003a50"/><path d="M126.45,406.17a1,1,0,0,1-.32-.81,1.07,1.07,0,0,1,.32-.81,1.45,1.45,0,0,1,1.74,0,1.07,1.07,0,0,1,.32.81,1,1,0,0,1-.32.81,1.45,1.45,0,0,1-1.74,0Z" fill="#003a50"/><path d="M140.07,397.74h-2.21s0-.06,0-.17a2.53,2.53,0,0,0-.22-.44,2.69,2.69,0,0,0-.39-.5,1.9,1.9,0,0,0-.71-.41,2.93,2.93,0,0,0-1-.16,2.51,2.51,0,0,0-2.15,1,4.39,4.39,0,0,0-.76,2.68h.06a1.49,1.49,0,0,1,.44-.43,3.9,3.9,0,0,1,.6-.37,5.11,5.11,0,0,1,.95-.3,5.56,5.56,0,0,1,1.22-.13,5,5,0,0,1,3.37,1.11,3.52,3.52,0,0,1,1.31,2.8,3.57,3.57,0,0,1-1.37,2.91,5.49,5.49,0,0,1-3.6,1.1,4.81,4.81,0,0,1-3.87-1.54,6.36,6.36,0,0,1-1.32-4.27v-.41a6.85,6.85,0,0,1,1.32-4.31,4.52,4.52,0,0,1,3.8-1.71,5.66,5.66,0,0,1,2.13.38,3.72,3.72,0,0,1,1.44.94A3.42,3.42,0,0,1,140.07,397.74Zm-2.51,3.15a3.65,3.65,0,0,0-3.95,0,2,2,0,0,0,0,3.15,3.63,3.63,0,0,0,4,0,1.85,1.85,0,0,0,.77-1.57A1.88,1.88,0,0,0,137.56,400.89Z" fill="#003a50"/><path d="M96.8,184.18l-2.48,1.95v-2.24l2.73-2.27h1.86v11.91H96.8Z" fill="#003a50"/><path d="M103.43,184.18,101,186.13v-2.24l2.73-2.27h1.86v11.91h-2.11Z" fill="#003a50"/><path d="M108.06,193.4a1,1,0,0,1-.32-.81,1.07,1.07,0,0,1,.32-.81,1.3,1.3,0,0,1,.88-.29,1.26,1.26,0,0,1,.86.29,1,1,0,0,1,.32.81,1,1,0,0,1-.32.81,1.21,1.21,0,0,1-.86.29A1.25,1.25,0,0,1,108.06,193.4Z" fill="#003a50"/><path d="M121.68,185h-2.2s0-.07,0-.18a2.53,2.53,0,0,0-.22-.44,2.64,2.64,0,0,0-.38-.5,2.08,2.08,0,0,0-.71-.41,3,3,0,0,0-1-.16,2.49,2.49,0,0,0-2.15,1,4.41,4.41,0,0,0-.77,2.68h.06a1.63,1.63,0,0,1,.44-.43,4.31,4.31,0,0,1,.61-.37,4.66,4.66,0,0,1,1-.3,6.06,6.06,0,0,1,1.21-.13,5,5,0,0,1,3.38,1.12,3.48,3.48,0,0,1,1.3,2.79,3.57,3.57,0,0,1-1.36,2.91,5.52,5.52,0,0,1-3.61,1.1,4.81,4.81,0,0,1-3.87-1.54,6.36,6.36,0,0,1-1.32-4.27v-.41a6.87,6.87,0,0,1,1.32-4.31,4.52,4.52,0,0,1,3.81-1.71,5.64,5.64,0,0,1,2.12.38,3.72,3.72,0,0,1,1.44.94A3.43,3.43,0,0,1,121.68,185Zm-2.5,3.14a3.67,3.67,0,0,0-4,0,2,2,0,0,0,0,3.15,3.21,3.21,0,0,0,2,.59,3.26,3.26,0,0,0,2-.59,2,2,0,0,0,0-3.15Z" fill="#003a50"/><path d="M238.7,184.18l-2.48,1.95v-2.24l2.73-2.27h1.86v11.91H238.7Z" fill="#003a50"/><path d="M245.33,184.18l-2.48,1.95v-2.24l2.73-2.27h1.86v11.91h-2.11Z" fill="#003a50"/><path d="M250,193.4a1,1,0,0,1-.32-.81,1.07,1.07,0,0,1,.32-.81,1.45,1.45,0,0,1,1.74,0,1.07,1.07,0,0,1,.32.81,1,1,0,0,1-.32.81,1.45,1.45,0,0,1-1.74,0Z" fill="#003a50"/><path d="M259.25,185.55a5,5,0,0,1,3.34,1.06,4.18,4.18,0,0,1,0,6,5.38,5.38,0,0,1-3.54,1.07,5.75,5.75,0,0,1-3.56-1,3.15,3.15,0,0,1-1.29-2.68h2.11a1.51,1.51,0,0,0,.7,1.33,3.53,3.53,0,0,0,2,.49,3.17,3.17,0,0,0,2-.57,2.06,2.06,0,0,0,.7-1.69,2,2,0,0,0-.73-1.7,3.28,3.28,0,0,0-2.08-.58,3.7,3.7,0,0,0-1.92.41,2,2,0,0,0-.69.64l-.05.13h-2.11v-6.88H263v1.84h-6.77v3h.05a2.32,2.32,0,0,1,.4-.31,3.82,3.82,0,0,1,.54-.26A5.66,5.66,0,0,1,259.25,185.55Z" fill="#003a50"/><path d="M481.24,248.06h-5.82v-1.84h8.86v1.84l-4.53,2.65v.07H481a3.86,3.86,0,0,1,2.79,1,3.52,3.52,0,0,1,1.05,2.66,3.33,3.33,0,0,1-1.33,2.83,7,7,0,0,1-7.24,0,3.39,3.39,0,0,1-1.33-2.86v-.32h2.11v.32c0,1.36.95,2,2.84,2s2.84-.67,2.84-2-.94-2-2.84-2h-3.26v-1.67l4.58-2.68Z" fill="#003a50"/><path d="M493.17,248.06h-5.82v-1.84h8.86v1.84l-4.53,2.65v.07H493a3.86,3.86,0,0,1,2.79,1,3.49,3.49,0,0,1,1.06,2.66,3.35,3.35,0,0,1-1.33,2.83,7,7,0,0,1-7.24,0,3.36,3.36,0,0,1-1.33-2.86v-.32H489v.32c0,1.36.94,2,2.84,2s2.84-.67,2.84-2-.95-2-2.84-2h-3.27v-1.67l4.58-2.68Z" fill="#003a50"/><path d="M498.91,258a1,1,0,0,1-.33-.8,1,1,0,0,1,.33-.81,1.23,1.23,0,0,1,.87-.3,1.2,1.2,0,0,1,.86.3,1,1,0,0,1,.33.81,1,1,0,0,1-.33.8,1.2,1.2,0,0,1-.86.3A1.23,1.23,0,0,1,498.91,258Z" fill="#003a50"/><path d="M506,258.13h-2.35l5.41-10h-6.92v-1.87h9.28v1.87Z" fill="#003a50"/><path d="M100.58,314.17H94.76v-1.84h8.86v1.84l-4.53,2.65v.07h1.28a3.86,3.86,0,0,1,2.79,1,3.49,3.49,0,0,1,1.06,2.66,3.35,3.35,0,0,1-1.33,2.83,7,7,0,0,1-7.24,0,3.36,3.36,0,0,1-1.33-2.86v-.32h2.11v.32c0,1.36.95,2,2.84,2s2.84-.67,2.84-2-1-2-2.84-2H96v-1.67l4.58-2.68Z" fill="#003a50"/><path d="M106.32,324.1a1,1,0,0,1-.32-.8,1,1,0,0,1,.32-.81,1.23,1.23,0,0,1,.87-.3,1.2,1.2,0,0,1,.86.3,1,1,0,0,1,.33.81,1,1,0,0,1-.33.8,1.2,1.2,0,0,1-.86.3A1.23,1.23,0,0,1,106.32,324.1Z" fill="#003a50"/><path d="M112.22,314.88l-2.48,2v-2.25l2.73-2.26h1.86v11.91h-2.11Z" fill="#003a50"/></g></svg>