<svg id="Слой_1" data-name="Слой 1" xmlns="http://www.w3.org/2000/svg" xmlns:xlink="http://www.w3.org/1999/xlink" viewBox="0 0 583.94 844.72"><defs><clipPath id="clip-path"><polygon points="0.17 0 0.17 377.43 51.02 377.43 51.02 444.16 157.55 444.16 157.55 829.42 167.95 829.42 167.95 844.72 581.56 844.72 581.56 50.74 564.9 50.74 564.9 0 0.17 0" fill="none"/></clipPath></defs><polygon points="51.02 443.78 51.02 444.16 157.55 444.16 157.55 780.75 162.51 440.54 51.02 443.78" fill="#fff"/><polygon points="53.04 8.28 53.04 293.48 66.76 325.78 66.76 375.28 63.95 438.68 162.5 438.68 165.01 827.41 564.5 826.64 564.25 9.03 74.2 9.03 74.2 8.28 53.04 8.28" fill="#fff"/><rect x="66.83" width="498.07" height="3.92" transform="translate(0 0.48) rotate(-0.09)" fill="#fff"/><g clip-path="url(#clip-path)"><rect x="-585.34" y="-1398.01" width="1162.95" height="2240.57" fill="none" stroke="#003a50" stroke-miterlimit="10"/><polygon points="-572.76 -293.84 -572.76 829.71 564.63 829.71 564.63 -1385.06 -572.76 -1385.22 -572.76 -364.55 -572.76 -293.84" fill="none" stroke="#003a50" stroke-miterlimit="10"/><path d="M52.49,804.16v-2.9c0-20.15-16.12-33.1-36-33.1v36" fill="none" stroke="#003a50" stroke-miterlimit="10"/></g><rect x="195.16" y="804.16" width="87.96" height="4.56" fill="#fff"/><rect x="195.16" y="804.16" width="87.96" height="4.56" fill="none" stroke="#003a50" stroke-miterlimit="10"/><line x1="195.16" y1="806.44" x2="283.13" y2="806.44" fill="none" stroke="#003a50" stroke-miterlimit="10"/><rect x="195.16" y="804.16" width="4.56" height="4.56" fill="#fff"/><rect x="195.16" y="804.16" width="4.56" height="4.56" fill="none" stroke="#003a50" stroke-miterlimit="10"/><rect x="278.56" y="804.16" width="4.56" height="4.56" fill="#fff"/><rect x="278.56" y="804.16" width="4.56" height="4.56" fill="none" stroke="#003a50" stroke-miterlimit="10"/><rect x="237.94" y="804.16" width="4.56" height="4.56" fill="#fff"/><rect x="237.94" y="804.16" width="4.56" height="4.56" fill="none" stroke="#003a50" stroke-miterlimit="10"/><g clip-path="url(#clip-path)"><path d="M242.5,804.16v-2.9c0-20.15,16.15-33.1,36.07-33.1v36" fill="none" stroke="#003a50" stroke-miterlimit="10"/></g><rect x="378.41" y="804.16" width="84.75" height="4.56" fill="#fff"/><rect x="378.41" y="804.16" width="84.75" height="4.56" fill="none" stroke="#003a50" stroke-miterlimit="10" stroke-width="0.98"/><line x1="378.41" y1="806.44" x2="463.16" y2="806.44" fill="none" stroke="#003a50" stroke-miterlimit="10" stroke-width="0.98"/><rect x="378.41" y="804.16" width="4.39" height="4.56" fill="#fff"/><rect x="378.41" y="804.16" width="4.39" height="4.56" fill="none" stroke="#003a50" stroke-miterlimit="10" stroke-width="0.98"/><rect x="458.76" y="804.16" width="4.4" height="4.56" fill="#fff"/><rect x="458.76" y="804.16" width="4.4" height="4.56" fill="none" stroke="#003a50" stroke-miterlimit="10" stroke-width="0.98"/><rect x="419.62" y="804.16" width="4.4" height="4.56" fill="#fff"/><rect x="419.62" y="804.16" width="4.4" height="4.56" fill="none" stroke="#003a50" stroke-miterlimit="10" stroke-width="0.98"/><g clip-path="url(#clip-path)"><path d="M424,804.16v-2.9c0-20.15,15.55-33.1,34.74-33.1v36" fill="none" stroke="#003a50" stroke-miterlimit="10" stroke-width="0.98"/></g><rect x="540.31" y="75.73" width="4.56" height="89.08" fill="#fff"/><rect x="540.31" y="75.73" width="4.56" height="89.08" fill="none" stroke="#003a50" stroke-miterlimit="10" stroke-width="0.99"/><line x1="542.59" y1="75.73" x2="542.59" y2="164.81" fill="none" stroke="#003a50" stroke-miterlimit="10" stroke-width="0.99"/><rect x="540.31" y="75.73" width="4.56" height="4.49" fill="#fff"/><rect x="540.31" y="75.73" width="4.56" height="4.5" fill="none" stroke="#003a50" stroke-miterlimit="10" stroke-width="0.99"/><rect x="540.31" y="160.31" width="4.56" height="4.5" fill="#fff"/><rect x="540.31" y="160.31" width="4.56" height="4.5" fill="none" stroke="#003a50" stroke-miterlimit="10" stroke-width="0.99"/><rect x="540.31" y="120.25" width="4.56" height="4.49" fill="#fff"/><rect x="540.31" y="120.25" width="4.56" height="4.5" fill="none" stroke="#003a50" stroke-miterlimit="10" stroke-width="0.99"/><g clip-path="url(#clip-path)"><path d="M540.31,124.74h-2.9c-20.15,0-33.1,15.93-33.1,35.57h36" fill="none" stroke="#003a50" stroke-miterlimit="10" stroke-width="0.99"/></g><rect x="540.31" y="259.93" width="4.56" height="88.97" fill="#fff"/><rect x="540.31" y="259.93" width="4.56" height="88.97" fill="none" stroke="#003a50" stroke-miterlimit="10" stroke-width="1.02"/><line x1="542.59" y1="348.9" x2="542.59" y2="259.93" fill="none" stroke="#003a50" stroke-miterlimit="10" stroke-width="1.02"/><rect x="540.31" y="344.15" width="4.56" height="4.74" fill="#fff"/><rect x="540.31" y="344.15" width="4.56" height="4.74" fill="none" stroke="#003a50" stroke-miterlimit="10" stroke-width="1.02"/><rect x="540.31" y="259.93" width="4.56" height="4.74" fill="#fff"/><rect x="540.31" y="259.93" width="4.56" height="4.74" fill="none" stroke="#003a50" stroke-miterlimit="10" stroke-width="1.02"/><rect x="540.31" y="302.17" width="4.56" height="4.74" fill="#fff"/><rect x="540.31" y="302.17" width="4.56" height="4.74" fill="none" stroke="#003a50" stroke-miterlimit="10" stroke-width="1.02"/><g clip-path="url(#clip-path)"><path d="M540.31,302.17h-2.9c-20.15,0-33.1-16.79-33.1-37.5h36" fill="none" stroke="#003a50" stroke-miterlimit="10" stroke-width="1.02"/></g><rect x="540.31" y="442.65" width="4.56" height="91.24" fill="#fff"/><rect x="540.31" y="442.65" width="4.56" height="91.24" fill="none" stroke="#003a50" stroke-miterlimit="10" stroke-width="1.02"/><line x1="542.59" y1="442.65" x2="542.59" y2="533.88" fill="none" stroke="#003a50" stroke-miterlimit="10" stroke-width="1.02"/><rect x="540.31" y="442.65" width="4.56" height="4.73" fill="#fff"/><rect x="540.31" y="442.65" width="4.56" height="4.73" fill="none" stroke="#003a50" stroke-miterlimit="10" stroke-width="1.02"/><rect x="540.31" y="529.15" width="4.56" height="4.73" fill="#fff"/><rect x="540.31" y="529.15" width="4.56" height="4.73" fill="none" stroke="#003a50" stroke-miterlimit="10" stroke-width="1.02"/><rect x="540.31" y="487.02" width="4.56" height="4.73" fill="#fff"/><rect x="540.31" y="487.02" width="4.56" height="4.73" fill="none" stroke="#003a50" stroke-miterlimit="10" stroke-width="1.02"/><g clip-path="url(#clip-path)"><path d="M540.31,491.74h-2.9c-20.15,0-33.1,16.75-33.1,37.41h36" fill="none" stroke="#003a50" stroke-miterlimit="10" stroke-width="1.02"/></g><rect x="540.31" y="629.23" width="4.56" height="84.65" fill="#fff"/><rect x="540.31" y="629.23" width="4.56" height="84.65" fill="none" stroke="#003a50" stroke-miterlimit="10" stroke-width="0.98"/><line x1="542.59" y1="713.87" x2="542.59" y2="629.23" fill="none" stroke="#003a50" stroke-miterlimit="10" stroke-width="0.98"/><rect x="540.31" y="709.49" width="4.56" height="4.39" fill="#fff"/><rect x="540.31" y="709.49" width="4.56" height="4.39" fill="none" stroke="#003a50" stroke-miterlimit="10" stroke-width="0.98"/><rect x="540.31" y="629.22" width="4.56" height="4.39" fill="#fff"/><rect x="540.31" y="629.22" width="4.56" height="4.39" fill="none" stroke="#003a50" stroke-miterlimit="10" stroke-width="0.98"/><rect x="540.31" y="668.32" width="4.56" height="4.39" fill="#fff"/><rect x="540.31" y="668.32" width="4.56" height="4.39" fill="none" stroke="#003a50" stroke-miterlimit="10" stroke-width="0.98"/><g clip-path="url(#clip-path)"><path d="M540.31,668.32h-2.9c-20.15,0-33.1-15.54-33.1-34.71h36" fill="none" stroke="#003a50" stroke-miterlimit="10" stroke-width="0.98"/></g><rect x="101.89" y="170.7" width="98.36" height="45.27" fill="none" stroke="#003a50" stroke-miterlimit="10"/><g clip-path="url(#clip-path)"><rect x="105.94" y="176.44" width="89.98" height="34.21" rx="13.7" fill="none" stroke="#003a50" stroke-miterlimit="10"/><path d="M121.51,191.1a2.36,2.36,0,1,0,2.36,2.36A2.36,2.36,0,0,0,121.51,191.1Z" fill="none" stroke="#003a50" stroke-miterlimit="10"/><path d="M201.43,265.75H172.86v23.08h28.57a11.54,11.54,0,0,0,0-23.08Z" fill="none" stroke="#003a50" stroke-miterlimit="10"/></g><rect x="172.86" y="265.75" width="11.08" height="23.08" fill="none" stroke="#003a50" stroke-miterlimit="10"/><rect x="227.62" y="433.51" width="33.97" height="34.02" fill="none" stroke="#003a50" stroke-miterlimit="10"/><g clip-path="url(#clip-path)"><path d="M248.92,449.73V438.68h-8.6v11.05a3.55,3.55,0,0,0,3.54,3.54h1.52A3.54,3.54,0,0,0,248.92,449.73Z" fill="none" stroke="#003a50" stroke-miterlimit="10"/></g><polyline points="241.15 463.83 244.62 463.83 248.1 463.83" fill="none" stroke="#003a50" stroke-miterlimit="10"/><line x1="244.63" y1="453.27" x2="244.63" y2="463.83" fill="none" stroke="#003a50" stroke-miterlimit="10"/><g clip-path="url(#clip-path)"><rect x="123.18" y="476.75" width="34.02" height="33.97" fill="none" stroke="#003a50" stroke-miterlimit="10"/><path d="M144.49,492.22v-11h-8.61v11a3.55,3.55,0,0,0,3.55,3.55h1.51A3.55,3.55,0,0,0,144.49,492.22Z" fill="none" stroke="#003a50" stroke-miterlimit="10"/></g><rect x="234.54" y="547.12" width="34.02" height="34.02" fill="none" stroke="#003a50" stroke-miterlimit="10"/><g clip-path="url(#clip-path)"><path d="M264,571.73a4.64,4.64,0,1,1-4.64-4.63A4.64,4.64,0,0,1,264,571.73Z" fill="none" stroke="#003a50" stroke-miterlimit="10"/><path d="M248.46,571.73a4.64,4.64,0,1,1-4.63-4.63A4.63,4.63,0,0,1,248.46,571.73Z" fill="none" stroke="#003a50" stroke-miterlimit="10"/><path d="M264,556.64a4.64,4.64,0,1,1-4.64-4.63A4.64,4.64,0,0,1,264,556.64Z" fill="none" stroke="#003a50" stroke-miterlimit="10"/><path d="M248.46,556.64a4.64,4.64,0,1,1-4.63-4.63A4.63,4.63,0,0,1,248.46,556.64Z" fill="none" stroke="#003a50" stroke-miterlimit="10"/><rect x="269.16" y="-33.84" width="34.02" height="34.02" fill="none" stroke="#003a50" stroke-miterlimit="10"/><rect x="123.26" y="517.86" width="34.02" height="34.02" fill="none" stroke="#003a50" stroke-miterlimit="10"/><path d="M132.67,547.28a4.64,4.64,0,1,1,4.63-4.64A4.64,4.64,0,0,1,132.67,547.28Z" fill="none" stroke="#003a50" stroke-miterlimit="10"/><path d="M132.67,531.79a4.64,4.64,0,1,1,4.63-4.63A4.63,4.63,0,0,1,132.67,531.79Z" fill="none" stroke="#003a50" stroke-miterlimit="10"/><path d="M147.76,547.28a4.64,4.64,0,1,1,4.63-4.64A4.64,4.64,0,0,1,147.76,547.28Z" fill="none" stroke="#003a50" stroke-miterlimit="10"/><path d="M147.76,531.79a4.64,4.64,0,1,1,4.63-4.63A4.63,4.63,0,0,1,147.76,531.79Z" fill="none" stroke="#003a50" stroke-miterlimit="10"/></g><rect x="379.97" y="228.61" width="102.05" height="17.01" fill="none" stroke="#003a50" stroke-miterlimit="10"/><polygon points="474 237.66 431.1 234.13 388 237.66 388 240.11 474 240.11 474 237.66" fill="none" stroke="#003a50" stroke-miterlimit="10"/><rect x="354.2" y="198.39" width="175.03" height="17.01" fill="none" stroke="#003a50" stroke-miterlimit="10"/><polygon points="484.72 206.35 441.82 209.88 398.72 206.35 398.72 203.9 484.72 203.9 484.72 206.35" fill="none" stroke="#003a50" stroke-miterlimit="10"/><g clip-path="url(#clip-path)"><rect x="123.27" y="476.85" width="33.59" height="122.25" fill="none" stroke="#003a50" stroke-miterlimit="10"/><rect x="76.2" y="444.12" width="80.66" height="32.72" fill="none" stroke="#003a50" stroke-miterlimit="10"/><rect x="212.98" y="-33.97" width="152.36" height="34.28" fill="none" stroke="#003a50" stroke-miterlimit="10"/></g><rect x="353.52" y="646.6" width="52.33" height="113.67" fill="none" stroke="#003a50" stroke-miterlimit="10"/><g clip-path="url(#clip-path)"><path d="M396.91,656.3H362.86a2.1,2.1,0,0,0-2.1,2.1V726H399V658.4A2.1,2.1,0,0,0,396.91,656.3Z" fill="none" stroke="#003a50" stroke-miterlimit="10"/></g><rect x="360.76" y="712.17" width="38.26" height="13.85" fill="none" stroke="#003a50" stroke-miterlimit="10"/><g clip-path="url(#clip-path)"><path d="M397.21,752.52H362.9a2.21,2.21,0,0,1-2.2-2.21V731.84a2.21,2.21,0,0,1,2.2-2.2h34.31a2.21,2.21,0,0,1,2.2,2.2v18.47A2.21,2.21,0,0,1,397.21,752.52Z" fill="none" stroke="#003a50" stroke-miterlimit="10"/></g><rect x="247.16" y="228.11" width="42.22" height="83.62" fill="none" stroke="#003a50" stroke-miterlimit="10"/><g clip-path="url(#clip-path)"><path d="M270.72,248.06a2.46,2.46,0,1,1-2.46-2.46A2.46,2.46,0,0,1,270.72,248.06Z" fill="none" stroke="#003a50" stroke-miterlimit="10"/></g><rect x="66.28" y="58.56" width="25.39" height="71.99" fill="none" stroke="#003a50" stroke-miterlimit="10"/><g clip-path="url(#clip-path)"><rect x="64.56" y="101.82" width="25.04" height="24.4" rx="2.83" fill="none" stroke="#003a50" stroke-miterlimit="10"/><path d="M79,114a1.92,1.92,0,1,1-1.92-1.91A1.92,1.92,0,0,1,79,114Z" fill="none" stroke="#003a50" stroke-miterlimit="10"/><rect x="64.56" y="66.05" width="25.04" height="24.4" rx="2.83" fill="none" stroke="#003a50" stroke-miterlimit="10"/><path d="M79,78.26a1.92,1.92,0,1,1-1.92-1.92A1.92,1.92,0,0,1,79,78.26Z" fill="none" stroke="#003a50" stroke-miterlimit="10"/><path d="M117.9,471.91v-15.2a3.23,3.23,0,0,0-3.24-3.23H91.07a3.22,3.22,0,0,0-3.23,3.23v15.2a3.22,3.22,0,0,0,3.23,3.23h23.59A3.23,3.23,0,0,0,117.9,471.91Z" fill="none" stroke="#003a50" stroke-miterlimit="10"/><path d="M102.83,463a2.43,2.43,0,1,0-2.43-2.42A2.42,2.42,0,0,0,102.83,463Z" fill="none" stroke="#003a50" stroke-miterlimit="10"/></g><polygon points="205.81 546.99 205.81 467.66 261.59 467.66 261.59 433.38 168.65 433.38 168.65 467.66 171.53 467.66 171.53 546.99 168.65 546.99 168.65 581.26 295.75 581.26 295.75 546.99 205.81 546.99" fill="none" stroke="#003a50" stroke-miterlimit="10"/><polyline points="174.32 491.92 174.32 498.72 174.32 505.5" fill="none" stroke="#003a50" stroke-miterlimit="10"/><line x1="187.94" y1="498.74" x2="174.32" y2="498.74" fill="none" stroke="#003a50" stroke-miterlimit="10"/><g clip-path="url(#clip-path)"><path d="M198.58,483.66h-15.2a3.24,3.24,0,0,0-3.23,3.24v23.59a3.24,3.24,0,0,0,3.23,3.24h15.2a3.24,3.24,0,0,0,3.24-3.24V486.9A3.24,3.24,0,0,0,198.58,483.66Z" fill="none" stroke="#003a50" stroke-miterlimit="10"/><path d="M189.63,498.74a2.43,2.43,0,1,0-2.42,2.42A2.42,2.42,0,0,0,189.63,498.74Z" fill="none" stroke="#003a50" stroke-miterlimit="10"/><path d="M171.84,44.88V16.31H148.77V44.88a11.54,11.54,0,1,0,23.07,0Z" fill="none" stroke="#003a50" stroke-miterlimit="10"/></g><rect x="148.77" y="16.32" width="23.08" height="11.08" fill="none" stroke="#003a50" stroke-miterlimit="10"/><rect x="64.56" y="16.33" width="67.72" height="42.22" fill="none" stroke="#003a50" stroke-miterlimit="10"/><g clip-path="url(#clip-path)"><path d="M84.51,35a2.46,2.46,0,1,1-2.46,2.46A2.46,2.46,0,0,1,84.51,35Z" fill="none" stroke="#003a50" stroke-miterlimit="10"/><rect x="66.77" y="-33.84" width="105.88" height="33.88" fill="none" stroke="#003a50" stroke-miterlimit="10"/><path d="M27.79,647.3a1.27,1.27,0,0,1,.95,1.51A13.78,13.78,0,0,0,55.61,655a1.26,1.26,0,0,1,2.46.56,16.3,16.3,0,1,1-31.78-7.29A1.25,1.25,0,0,1,27.79,647.3Z" fill="none" stroke="#003a50" stroke-miterlimit="10"/><path d="M83,657a1.25,1.25,0,0,1,1.75-.33,13.79,13.79,0,0,0,15.53-22.79,1.26,1.26,0,1,1,1.41-2.08A16.3,16.3,0,0,1,83.3,658.77,1.26,1.26,0,0,1,83,657Z" fill="none" stroke="#003a50" stroke-miterlimit="10"/><path d="M85.47,609.61a1.26,1.26,0,0,1-1.33-1.18,13.78,13.78,0,1,0-27.52,1.63,1.26,1.26,0,0,1-2.52.15,16.3,16.3,0,0,1,32.55-1.93A1.26,1.26,0,0,1,85.47,609.61Z" fill="none" stroke="#003a50" stroke-miterlimit="10"/><path d="M42,663.91a12.69,12.69,0,0,1-12-15.48l2-8.88a3.53,3.53,0,0,1,4.24-2.68L49.71,640a23.73,23.73,0,0,0,6,9.44l-1,4.2C53.39,659.55,48.11,664.11,42,663.91Z" fill="none" stroke="#003a50" stroke-miterlimit="10"/><path d="M84.79,655.39l-2.32-1.6a23.81,23.81,0,0,0,13.64-21.32l2.52,1.72c5,3.44,7.4,10,5,15.64A12.7,12.7,0,0,1,84.79,655.39Z" fill="none" stroke="#003a50" stroke-miterlimit="10"/><path d="M58,613.11l-.12-2c-.36-6.12,3.4-12,9.32-13.48A12.66,12.66,0,0,1,83,609.15l.12,1.84a23.93,23.93,0,0,0-16.64-1.92A23.5,23.5,0,0,0,58,613.11Z" fill="none" stroke="#003a50" stroke-miterlimit="10"/><path d="M55.71,649.39a23.73,23.73,0,0,1-6-9.44,16.51,16.51,0,0,1-.6-2A23.85,23.85,0,0,1,58,613.11a23.5,23.5,0,0,1,8.56-4,23.87,23.87,0,0,1,28.92,17.4,22.12,22.12,0,0,1,.68,6,23.81,23.81,0,0,1-13.64,21.32,22.85,22.85,0,0,1-4.48,1.6A23.8,23.8,0,0,1,55.71,649.39Z" fill="none" stroke="#003a50" stroke-miterlimit="10"/><path d="M209.8,422.55a1,1,0,0,1-.53.89A.94.94,0,0,1,208,423a29.05,29.05,0,0,1,0-24.76.92.92,0,0,1,1.26-.45,1,1,0,0,1,.44,1.31,27.08,27.08,0,0,0,0,23A1.12,1.12,0,0,1,209.8,422.55Z" fill="none" stroke="#003a50" stroke-miterlimit="10"/><path d="M204.53,422.55a1,1,0,0,1-.53.89,1,1,0,0,1-1.27-.45,29.15,29.15,0,0,1,0-24.76.93.93,0,0,1,1.27-.45,1,1,0,0,1,.43,1.31,27.08,27.08,0,0,0,0,23A1,1,0,0,1,204.53,422.55Z" fill="none" stroke="#003a50" stroke-miterlimit="10"/><path d="M199.27,422.55a1,1,0,0,1-.53.89.94.94,0,0,1-1.27-.45,29.05,29.05,0,0,1,0-24.76.92.92,0,0,1,1.26-.45,1,1,0,0,1,.44,1.31,27.08,27.08,0,0,0,0,23A1.12,1.12,0,0,1,199.27,422.55Z" fill="none" stroke="#003a50" stroke-miterlimit="10"/><path d="M194,422.55a1,1,0,0,1-.53.89,1,1,0,0,1-1.27-.45,29.15,29.15,0,0,1,0-24.76.93.93,0,0,1,1.27-.45,1,1,0,0,1,.43,1.31,27.08,27.08,0,0,0,0,23A1,1,0,0,1,194,422.55Z" fill="none" stroke="#003a50" stroke-miterlimit="10"/><path d="M188.73,422.55a1,1,0,0,1-.52.89,1,1,0,0,1-1.28-.45,29.15,29.15,0,0,1,0-24.76.93.93,0,0,1,1.27-.45,1,1,0,0,1,.43,1.31,27.18,27.18,0,0,0,0,23A1,1,0,0,1,188.73,422.55Z" fill="none" stroke="#003a50" stroke-miterlimit="10"/><path d="M183.47,422.55a1,1,0,0,1-.53.89,1,1,0,0,1-1.27-.45,29.15,29.15,0,0,1,0-24.76.93.93,0,0,1,1.27-.45,1,1,0,0,1,.43,1.31,27.08,27.08,0,0,0,0,23A1,1,0,0,1,183.47,422.55Z" fill="none" stroke="#003a50" stroke-miterlimit="10"/><path d="M215.06,422.55a1,1,0,0,1-.53.89,1,1,0,0,1-1.27-.45,29.15,29.15,0,0,1,0-24.76.93.93,0,0,1,1.27-.45,1,1,0,0,1,.43,1.31,27.08,27.08,0,0,0,0,23A1,1,0,0,1,215.06,422.55Z" fill="none" stroke="#003a50" stroke-miterlimit="10"/><path d="M220.33,422.55a1,1,0,0,1-.53.89.94.94,0,0,1-1.27-.45,29.05,29.05,0,0,1,0-24.76.92.92,0,0,1,1.26-.45,1,1,0,0,1,.44,1.31,27.08,27.08,0,0,0,0,23A1.12,1.12,0,0,1,220.33,422.55Z" fill="none" stroke="#003a50" stroke-miterlimit="10"/></g><line x1="290.38" y1="410.61" x2="172.35" y2="410.61" fill="none" stroke="#003a50" stroke-miterlimit="10"/><rect x="172.36" y="393.66" width="118.02" height="33.34" fill="none" stroke="#003a50" stroke-miterlimit="10"/><g clip-path="url(#clip-path)"><path d="M209.8,615.8a1,1,0,0,1-.53.88.93.93,0,0,1-1.27-.45,29.05,29.05,0,0,1,0-24.76.92.92,0,0,1,1.26-.45,1,1,0,0,1,.44,1.32,27.06,27.06,0,0,0,0,23A1.13,1.13,0,0,1,209.8,615.8Z" fill="none" stroke="#003a50" stroke-miterlimit="10"/><path d="M204.53,615.8a1,1,0,0,1-.53.88.93.93,0,0,1-1.27-.45,29.15,29.15,0,0,1,0-24.76A.93.93,0,0,1,204,591a1,1,0,0,1,.43,1.32,27.06,27.06,0,0,0,0,23A1,1,0,0,1,204.53,615.8Z" fill="none" stroke="#003a50" stroke-miterlimit="10"/><path d="M199.27,615.8a1,1,0,0,1-.53.88.93.93,0,0,1-1.27-.45,29.05,29.05,0,0,1,0-24.76.92.92,0,0,1,1.26-.45,1,1,0,0,1,.44,1.32,27.06,27.06,0,0,0,0,23A1.13,1.13,0,0,1,199.27,615.8Z" fill="none" stroke="#003a50" stroke-miterlimit="10"/><path d="M194,615.8a1,1,0,0,1-.53.88.93.93,0,0,1-1.27-.45,29.15,29.15,0,0,1,0-24.76.93.93,0,0,1,1.27-.45,1,1,0,0,1,.43,1.32,27.06,27.06,0,0,0,0,23A1,1,0,0,1,194,615.8Z" fill="none" stroke="#003a50" stroke-miterlimit="10"/><path d="M188.73,615.8a1,1,0,0,1-.52.88.94.94,0,0,1-1.28-.45,29.15,29.15,0,0,1,0-24.76.93.93,0,0,1,1.27-.45,1,1,0,0,1,.43,1.32,27.16,27.16,0,0,0,0,23A1,1,0,0,1,188.73,615.8Z" fill="none" stroke="#003a50" stroke-miterlimit="10"/><path d="M183.47,615.8a1,1,0,0,1-.53.88.93.93,0,0,1-1.27-.45,29.15,29.15,0,0,1,0-24.76.93.93,0,0,1,1.27-.45,1,1,0,0,1,.43,1.32,27.06,27.06,0,0,0,0,23A1,1,0,0,1,183.47,615.8Z" fill="none" stroke="#003a50" stroke-miterlimit="10"/><path d="M215.06,615.8a1,1,0,0,1-.53.88.93.93,0,0,1-1.27-.45,29.15,29.15,0,0,1,0-24.76.93.93,0,0,1,1.27-.45,1,1,0,0,1,.43,1.32,27.06,27.06,0,0,0,0,23A1,1,0,0,1,215.06,615.8Z" fill="none" stroke="#003a50" stroke-miterlimit="10"/><path d="M220.33,615.8a1,1,0,0,1-.53.88.93.93,0,0,1-1.27-.45,29.05,29.05,0,0,1,0-24.76.92.92,0,0,1,1.26-.45,1,1,0,0,1,.44,1.32,27.06,27.06,0,0,0,0,23A1.13,1.13,0,0,1,220.33,615.8Z" fill="none" stroke="#003a50" stroke-miterlimit="10"/></g><line x1="290.38" y1="603.85" x2="172.35" y2="603.85" fill="none" stroke="#003a50" stroke-miterlimit="10"/><rect x="172.35" y="586.9" width="118.02" height="33.34" fill="none" stroke="#003a50" stroke-miterlimit="10"/><polygon points="246.9 259.43 173.43 259.22 173.43 228.67 246.9 228.88 246.9 259.43" fill="none" stroke="#003a50" stroke-miterlimit="10"/><g clip-path="url(#clip-path)"><path d="M214.26,253.41v-23a3.36,3.36,0,0,1,3.36-3.36h22.25a3.35,3.35,0,0,1,3.35,3.36v23a3.35,3.35,0,0,1-3.35,3.36H217.62A3.36,3.36,0,0,1,214.26,253.41Z" fill="none" stroke="#003a50" stroke-miterlimit="10"/><path d="M228.74,244.18a2.27,2.27,0,1,1,2.27-2.27A2.27,2.27,0,0,1,228.74,244.18Z" fill="none" stroke="#003a50" stroke-miterlimit="10"/><rect x="123.21" y="565.51" width="33.52" height="33.52" fill="none" stroke="#003a50" stroke-miterlimit="10"/></g><rect x="261.59" y="433.51" width="34.02" height="34.02" fill="none" stroke="#003a50" stroke-miterlimit="10"/><line x1="288.58" y1="450.52" x2="268.62" y2="450.52" fill="none" stroke="#003a50" stroke-miterlimit="10"/><line x1="278.6" y1="440.54" x2="278.6" y2="460.5" fill="none" stroke="#003a50" stroke-miterlimit="10"/><line x1="285.65" y1="443.46" x2="271.54" y2="457.57" fill="none" stroke="#003a50" stroke-miterlimit="10"/><line x1="271.54" y1="443.46" x2="285.65" y2="457.57" fill="none" stroke="#003a50" stroke-miterlimit="10"/><g clip-path="url(#clip-path)"><rect x="178.92" y="-33.98" width="34.02" height="34.02" fill="none" stroke="#003a50" stroke-miterlimit="10"/><rect x="331.04" y="-33.98" width="34.02" height="34.02" fill="none" stroke="#003a50" stroke-miterlimit="10"/><path d="M207.65,107.61a.8.8,0,0,1-.7-.44.78.78,0,0,1,.36-1,22.48,22.48,0,0,1,19.77,0,.78.78,0,0,1-.69,1.41,20.91,20.91,0,0,0-18.39,0A.85.85,0,0,1,207.65,107.61Z" fill="none" stroke="#003a50" stroke-miterlimit="10"/><path d="M207.65,103.25a.78.78,0,0,1-.34-1.49,22.57,22.57,0,0,1,19.77,0,.78.78,0,0,1-.69,1.41,20.91,20.91,0,0,0-18.39,0A.72.72,0,0,1,207.65,103.25Z" fill="none" stroke="#003a50" stroke-miterlimit="10"/><path d="M207.65,98.9a.79.79,0,0,1-.34-1.5,22.57,22.57,0,0,1,19.77,0,.79.79,0,0,1-.69,1.42,20.91,20.91,0,0,0-18.39,0A.85.85,0,0,1,207.65,98.9Z" fill="none" stroke="#003a50" stroke-miterlimit="10"/><path d="M207.65,94.54a.78.78,0,0,1-.34-1.49,22.48,22.48,0,0,1,19.77,0,.78.78,0,0,1-.69,1.41,20.91,20.91,0,0,0-18.39,0A.72.72,0,0,1,207.65,94.54Z" fill="none" stroke="#003a50" stroke-miterlimit="10"/><path d="M207.65,90.18a.78.78,0,0,1-.7-.44.79.79,0,0,1,.36-1,22.57,22.57,0,0,1,19.77,0,.78.78,0,0,1-.69,1.41,21,21,0,0,0-18.39,0A.72.72,0,0,1,207.65,90.18Z" fill="none" stroke="#003a50" stroke-miterlimit="10"/><path d="M207.65,85.83a.8.8,0,0,1-.7-.44.78.78,0,0,1,.36-1,22.48,22.48,0,0,1,19.77,0,.78.78,0,0,1-.69,1.41,20.91,20.91,0,0,0-18.39,0A.85.85,0,0,1,207.65,85.83Z" fill="none" stroke="#003a50" stroke-miterlimit="10"/><path d="M207.65,112a.78.78,0,0,1-.7-.44.79.79,0,0,1,.36-1,22.57,22.57,0,0,1,19.77,0,.78.78,0,0,1-.69,1.41,21,21,0,0,0-18.39,0A.72.72,0,0,1,207.65,112Z" fill="none" stroke="#003a50" stroke-miterlimit="10"/><path d="M207.65,116.32a.78.78,0,0,1-.34-1.49,22.48,22.48,0,0,1,19.77,0,.78.78,0,0,1-.69,1.41,20.91,20.91,0,0,0-18.39,0A.72.72,0,0,1,207.65,116.32Z" fill="none" stroke="#003a50" stroke-miterlimit="10"/></g><line x1="217.19" y1="121.01" x2="217.19" y2="47.45" fill="none" stroke="#003a50" stroke-miterlimit="10"/><rect x="206.1" y="47.46" width="22.4" height="73.89" fill="none" stroke="#003a50" stroke-miterlimit="10"/><g clip-path="url(#clip-path)"><path d="M271.53,107.61a.79.79,0,0,1-.35-1.49,22.5,22.5,0,0,1,19.78,0,.79.79,0,0,1-.7,1.41,20.89,20.89,0,0,0-18.38,0A.85.85,0,0,1,271.53,107.61Z" fill="none" stroke="#003a50" stroke-miterlimit="10"/><path d="M271.53,103.25a.77.77,0,0,1-.7-.44.79.79,0,0,1,.35-1,22.59,22.59,0,0,1,19.78,0,.79.79,0,0,1-.7,1.41,20.89,20.89,0,0,0-18.38,0A.72.72,0,0,1,271.53,103.25Z" fill="none" stroke="#003a50" stroke-miterlimit="10"/><path d="M271.53,98.9a.79.79,0,0,1-.7-.44.8.8,0,0,1,.35-1.06,22.59,22.59,0,0,1,19.78,0,.79.79,0,0,1-.7,1.42,20.89,20.89,0,0,0-18.38,0A.85.85,0,0,1,271.53,98.9Z" fill="none" stroke="#003a50" stroke-miterlimit="10"/><path d="M271.53,94.54a.77.77,0,0,1-.7-.44.79.79,0,0,1,.35-1,22.5,22.5,0,0,1,19.78,0,.79.79,0,0,1-.7,1.41,20.89,20.89,0,0,0-18.38,0A.72.72,0,0,1,271.53,94.54Z" fill="none" stroke="#003a50" stroke-miterlimit="10"/><path d="M271.53,90.18a.77.77,0,0,1-.7-.44.79.79,0,0,1,.35-1,22.59,22.59,0,0,1,19.78,0,.79.79,0,0,1-.7,1.41,21,21,0,0,0-18.38,0A.72.72,0,0,1,271.53,90.18Z" fill="none" stroke="#003a50" stroke-miterlimit="10"/><path d="M271.53,85.83a.79.79,0,0,1-.35-1.49,22.5,22.5,0,0,1,19.78,0,.79.79,0,0,1-.7,1.41,20.89,20.89,0,0,0-18.38,0A.85.85,0,0,1,271.53,85.83Z" fill="none" stroke="#003a50" stroke-miterlimit="10"/><path d="M271.53,112a.77.77,0,0,1-.7-.44.79.79,0,0,1,.35-1,22.59,22.59,0,0,1,19.78,0,.79.79,0,0,1-.7,1.41,21,21,0,0,0-18.38,0A.72.72,0,0,1,271.53,112Z" fill="none" stroke="#003a50" stroke-miterlimit="10"/><path d="M271.53,116.32a.77.77,0,0,1-.7-.44.79.79,0,0,1,.35-1,22.5,22.5,0,0,1,19.78,0,.79.79,0,0,1-.7,1.41,20.89,20.89,0,0,0-18.38,0A.72.72,0,0,1,271.53,116.32Z" fill="none" stroke="#003a50" stroke-miterlimit="10"/></g><line x1="281.07" y1="121.01" x2="281.07" y2="47.45" fill="none" stroke="#003a50" stroke-miterlimit="10"/><rect x="269.98" y="47.46" width="22.4" height="73.89" fill="none" stroke="#003a50" stroke-miterlimit="10"/><rect x="412.19" y="586.57" width="118.13" height="34.02" fill="none" stroke="#003a50" stroke-miterlimit="10"/><g clip-path="url(#clip-path)"><path d="M429.31,615.76a1,1,0,0,0,1.9.44,28.77,28.77,0,0,0,0-25.26,1,1,0,0,0-1.8.89,26.72,26.72,0,0,1,0,23.49A1,1,0,0,0,429.31,615.76Z" fill="none" stroke="#003a50" stroke-miterlimit="10"/><path d="M434.87,615.76a1,1,0,0,0,1.91.44,28.77,28.77,0,0,0,0-25.26,1,1,0,0,0-1.34-.45,1,1,0,0,0-.46,1.34,26.81,26.81,0,0,1,0,23.49A1,1,0,0,0,434.87,615.76Z" fill="none" stroke="#003a50" stroke-miterlimit="10"/><path d="M440.44,615.76a1,1,0,0,0,1.9.44,28.77,28.77,0,0,0,0-25.26,1,1,0,0,0-1.8.89,26.72,26.72,0,0,1,0,23.49A1,1,0,0,0,440.44,615.76Z" fill="none" stroke="#003a50" stroke-miterlimit="10"/><path d="M446,615.76a1,1,0,0,0,1.91.44,28.77,28.77,0,0,0,0-25.26,1,1,0,0,0-1.34-.45,1,1,0,0,0-.46,1.34,26.81,26.81,0,0,1,0,23.49A1,1,0,0,0,446,615.76Z" fill="none" stroke="#003a50" stroke-miterlimit="10"/><path d="M451.57,615.76a1,1,0,0,0,1.9.44,28.77,28.77,0,0,0,0-25.26,1,1,0,0,0-1.8.89,26.72,26.72,0,0,1,0,23.49A1,1,0,0,0,451.57,615.76Z" fill="none" stroke="#003a50" stroke-miterlimit="10"/><path d="M457.13,615.76a1,1,0,0,0,1.91.44,28.77,28.77,0,0,0,0-25.26,1,1,0,0,0-1.34-.45,1,1,0,0,0-.46,1.34,26.81,26.81,0,0,1,0,23.49A1,1,0,0,0,457.13,615.76Z" fill="none" stroke="#003a50" stroke-miterlimit="10"/><path d="M423.74,615.76a1,1,0,0,0,1.91.44,28.77,28.77,0,0,0,0-25.26,1,1,0,0,0-1.34-.45,1,1,0,0,0-.46,1.34,26.81,26.81,0,0,1,0,23.49A.87.87,0,0,0,423.74,615.76Z" fill="none" stroke="#003a50" stroke-miterlimit="10"/><path d="M418.18,615.76a1,1,0,0,0,1.9.44,28.77,28.77,0,0,0,0-25.26,1,1,0,0,0-1.8.89,26.72,26.72,0,0,1,0,23.49A1,1,0,0,0,418.18,615.76Z" fill="none" stroke="#003a50" stroke-miterlimit="10"/></g><line x1="412.19" y1="603.57" x2="529.78" y2="603.57" fill="none" stroke="#003a50" stroke-miterlimit="10"/><g clip-path="url(#clip-path)"><path d="M110.51,731.49h41v45.77H108.3V733.7A2.21,2.21,0,0,1,110.51,731.49Z" fill="none" stroke="#003a50" stroke-miterlimit="10"/><path d="M110.29,685.62h41.26v45.77H110.29a2,2,0,0,1-2-2V687.6A2,2,0,0,1,110.29,685.62Z" fill="none" stroke="#003a50" stroke-miterlimit="10"/><path d="M108.3,777.26a3.11,3.11,0,0,0-2.83,3.33v4.22a3.1,3.1,0,0,0,2.83,3.32h48.2V674.75H108.73a3.11,3.11,0,0,0-2.83,3.32v4.23a3.11,3.11,0,0,0,2.83,3.32h42.82v91.64Z" fill="none" stroke="#003a50" stroke-miterlimit="10"/><path d="M431,329v41h45.77V326.74H433.26A2.22,2.22,0,0,0,431,329Z" fill="none" stroke="#003a50" stroke-miterlimit="10"/><path d="M385.18,328.72V370h45.76V328.72a2,2,0,0,0-2-2h-41.8A2,2,0,0,0,385.18,328.72Z" fill="none" stroke="#003a50" stroke-miterlimit="10"/><path d="M476.81,326.74a3.11,3.11,0,0,1,3.33-2.83h4.23a3.1,3.1,0,0,1,3.32,2.83v48.19H374.3V327.16a3.11,3.11,0,0,1,3.33-2.83h4.22a3.11,3.11,0,0,1,3.33,2.83V370h91.63Z" fill="none" stroke="#003a50" stroke-miterlimit="10"/></g><rect x="385.18" y="360.74" width="91.64" height="9.25" fill="none" stroke="#003a50" stroke-miterlimit="10"/><g clip-path="url(#clip-path)"><path d="M493.5,709.54a14.78,14.78,0,0,0-15.93,23.39,1.14,1.14,0,0,0,1.77-1.43A12.47,12.47,0,0,1,493.5,712Z" fill="none" stroke="#003a50" stroke-miterlimit="10"/><rect x="493.5" y="679.77" width="34.02" height="84.03" rx="3.31" fill="none" stroke="#003a50" stroke-miterlimit="10"/><path d="M523.8,682.32a1.39,1.39,0,0,0-1.39,1.39v76.15a1.4,1.4,0,0,0,2.79,0V683.71a1.4,1.4,0,0,0-1.4-1.39" fill="none" stroke="#003a50" stroke-miterlimit="10"/><path d="M509.22,750.13a5.51,5.51,0,1,1,0,7.78A5.5,5.5,0,0,1,509.22,750.13Z" fill="none" stroke="#003a50" stroke-miterlimit="10"/><path d="M508.85,750.54c1,.1,2-.29,3,.7,1.46,1.46-.08,3,1.38,4.47s3-.09,4.47,1.38" fill="none" stroke="#003a50" stroke-miterlimit="10"/><path d="M493.5,714.25a10.64,10.64,0,1,0,0,19.59Z" fill="none" stroke="#003a50" stroke-miterlimit="10"/></g><rect x="173.32" y="646.6" width="52.33" height="113.67" fill="none" stroke="#003a50" stroke-miterlimit="10"/><g clip-path="url(#clip-path)"><path d="M216.71,656.3h-34a2.1,2.1,0,0,0-2.1,2.1V726h38.25V658.4A2.1,2.1,0,0,0,216.71,656.3Z" fill="none" stroke="#003a50" stroke-miterlimit="10"/></g><rect x="180.56" y="712.17" width="38.26" height="13.85" fill="none" stroke="#003a50" stroke-miterlimit="10"/><g clip-path="url(#clip-path)"><rect x="180.51" y="729.64" width="38.71" height="22.88" rx="2.2" fill="none" stroke="#003a50" stroke-miterlimit="10"/><path d="M314,709.54a14.78,14.78,0,0,0-15.93,23.39,1.14,1.14,0,0,0,1.78-1.43A12.47,12.47,0,0,1,314,712Z" fill="none" stroke="#003a50" stroke-miterlimit="10"/><rect x="313.98" y="679.77" width="34.02" height="84.03" rx="3.31" fill="none" stroke="#003a50" stroke-miterlimit="10"/><path d="M344.28,682.32a1.39,1.39,0,0,0-1.39,1.39v76.15a1.4,1.4,0,0,0,2.79,0V683.71a1.4,1.4,0,0,0-1.4-1.39" fill="none" stroke="#003a50" stroke-miterlimit="10"/><path d="M329.71,750.13a5.5,5.5,0,1,1,0,7.78A5.49,5.49,0,0,1,329.71,750.13Z" fill="none" stroke="#003a50" stroke-miterlimit="10"/><path d="M329.34,750.54c1,.1,2-.29,3,.7,1.46,1.46-.09,3,1.38,4.47s3-.09,4.47,1.38" fill="none" stroke="#003a50" stroke-miterlimit="10"/><path d="M314,714.25a10.63,10.63,0,1,0,0,19.59Z" fill="none" stroke="#003a50" stroke-miterlimit="10"/><path d="M332.77,70.49A14.78,14.78,0,0,0,348.7,47.11a1.14,1.14,0,1,0-1.78,1.43A12.47,12.47,0,0,1,332.77,68Z" fill="none" stroke="#003a50" stroke-miterlimit="10"/><rect x="298.75" y="16.24" width="34.02" height="84.03" rx="3.31" fill="none" stroke="#003a50" stroke-miterlimit="10"/><path d="M302.47,97.72a1.39,1.39,0,0,0,1.39-1.39V20.18a1.4,1.4,0,0,0-2.79,0V96.33a1.4,1.4,0,0,0,1.4,1.39" fill="none" stroke="#003a50" stroke-miterlimit="10"/><path d="M317,29.91a5.51,5.51,0,1,1,0-7.79A5.51,5.51,0,0,1,317,29.91Z" fill="none" stroke="#003a50" stroke-miterlimit="10"/><path d="M317.42,29.5c-1-.1-2.05.29-3-.7-1.46-1.46.09-3-1.38-4.47s-3,.08-4.46-1.38" fill="none" stroke="#003a50" stroke-miterlimit="10"/><path d="M332.77,65.79a10.64,10.64,0,1,0,0-19.6Z" fill="none" stroke="#003a50" stroke-miterlimit="10"/></g><rect x="499.6" y="16.36" width="22.68" height="22.68" fill="none" stroke="#003a50" stroke-miterlimit="10"/><g clip-path="url(#clip-path)"><path d="M517.44,34.2a9.2,9.2,0,1,0-13,0A9.2,9.2,0,0,0,517.44,34.2Z" fill="none" stroke="#003a50" stroke-miterlimit="10"/><path d="M516.74,34.82c-.16-1.69.49-3.41-1.16-5.07-2.44-2.43-5,.15-7.46-2.29s.14-5-2.3-7.46" fill="none" stroke="#003a50" stroke-miterlimit="10"/></g><rect x="361.16" y="16.36" width="22.68" height="22.68" fill="none" stroke="#003a50" stroke-miterlimit="10"/><g clip-path="url(#clip-path)"><path d="M379,34.2a9.2,9.2,0,1,0-13,0A9.2,9.2,0,0,0,379,34.2Z" fill="none" stroke="#003a50" stroke-miterlimit="10"/><path d="M378.31,34.82c-.17-1.7.48-3.41-1.17-5.06-2.44-2.44-5,.14-7.45-2.3s.13-5-2.3-7.46" fill="none" stroke="#003a50" stroke-miterlimit="10"/></g><rect x="390.7" y="16.35" width="102.05" height="113.38" fill="none" stroke="#003a50" stroke-miterlimit="10"/><g clip-path="url(#clip-path)"><path d="M400.69,120h82.05a2.09,2.09,0,0,0,2.09-2.08V50.28H398.61v67.64A2.08,2.08,0,0,0,400.69,120Z" fill="none" stroke="#003a50" stroke-miterlimit="10"/><path d="M444.56,46.66H483.1a2,2,0,0,0,2-2V25.77a2,2,0,0,0-2-2H444.56a2,2,0,0,0-2,2V44.68A2,2,0,0,0,444.56,46.66Z" fill="none" stroke="#003a50" stroke-miterlimit="10"/><path d="M400.33,46.66h38.54a2,2,0,0,0,2-2V25.77a2,2,0,0,0-2-2H400.33a2,2,0,0,0-2,2V44.68A2,2,0,0,0,400.33,46.66Z" fill="none" stroke="#003a50" stroke-miterlimit="10"/></g><line x1="398.35" y1="64.13" x2="485.08" y2="64.13" fill="none" stroke="#003a50" stroke-miterlimit="10"/><g clip-path="url(#clip-path)"><path d="M462.05,526.74A1.25,1.25,0,0,0,460.8,528a13.66,13.66,0,0,1-27.32,0,1.25,1.25,0,0,0-2.5,0,16.16,16.16,0,0,0,32.32,0A1.25,1.25,0,0,0,462.05,526.74Z" fill="none" stroke="#003a50" stroke-miterlimit="10"/><path d="M432.23,474a1.24,1.24,0,0,0,1.25-1.25,13.67,13.67,0,0,1,27.33,0,1.25,1.25,0,1,0,2.49,0,16.16,16.16,0,0,0-32.31,0A1.24,1.24,0,0,0,432.23,474Z" fill="none" stroke="#003a50" stroke-miterlimit="10"/><path d="M420.61,526.74a1.25,1.25,0,0,0-1.25,1.25A13.66,13.66,0,0,1,392,528a1.25,1.25,0,1,0-2.49,0,16.16,16.16,0,0,0,32.31,0A1.25,1.25,0,0,0,420.61,526.74Z" fill="none" stroke="#003a50" stroke-miterlimit="10"/><path d="M390.79,474a1.24,1.24,0,0,0,1.25-1.25,13.66,13.66,0,0,1,27.32,0,1.25,1.25,0,1,0,2.5,0,16.16,16.16,0,0,0-32.32,0A1.24,1.24,0,0,0,390.79,474Z" fill="none" stroke="#003a50" stroke-miterlimit="10"/><path d="M367.7,513.1a1.25,1.25,0,0,0-1.24-1.24,13.67,13.67,0,1,1,0-27.33,1.25,1.25,0,0,0,0-2.49,16.16,16.16,0,1,0,0,32.31A1.25,1.25,0,0,0,367.7,513.1Z" fill="none" stroke="#003a50" stroke-miterlimit="10"/><path d="M480.26,483.29a1.25,1.25,0,0,0,1.25,1.25,13.66,13.66,0,1,1,0,27.32,1.25,1.25,0,1,0,0,2.49,16.16,16.16,0,1,0,0-32.31A1.25,1.25,0,0,0,480.26,483.29Z" fill="none" stroke="#003a50" stroke-miterlimit="10"/><path d="M447.13,539.87a12.57,12.57,0,0,0,12.56-12.52v-5.8a23.7,23.7,0,0,1-6.08.8h-19v5A12.56,12.56,0,0,0,447.13,539.87Z" fill="none" stroke="#003a50" stroke-miterlimit="10"/><path d="M459.69,474.83v-1.36a12.54,12.54,0,1,0-25.08,0V474h19A25.59,25.59,0,0,1,459.69,474.83Z" fill="none" stroke="#003a50" stroke-miterlimit="10"/><path d="M405.69,539.87a12.57,12.57,0,0,0,12.56-12.52v-5H394.41c-.4,0-.84,0-1.24-.08v5.08A12.54,12.54,0,0,0,405.69,539.87Z" fill="none" stroke="#003a50" stroke-miterlimit="10"/><path d="M393.17,474.11c.4,0,.84-.08,1.24-.08h23.84v-.56a12.54,12.54,0,1,0-25.08,0Z" fill="none" stroke="#003a50" stroke-miterlimit="10"/><path d="M474.21,510.75h6.64a12.54,12.54,0,1,0,0-25.08h-6.64a23.81,23.81,0,0,1,3.56,12.52A24.06,24.06,0,0,1,474.21,510.75Z" fill="none" stroke="#003a50" stroke-miterlimit="10"/><path d="M367.13,510.75h6.68a24.06,24.06,0,0,1-3.56-12.56,23.81,23.81,0,0,1,3.56-12.52h-6.68a12.54,12.54,0,1,0,0,25.08Z" fill="none" stroke="#003a50" stroke-miterlimit="10"/><path d="M394.41,522.35h59.2a23.7,23.7,0,0,0,6.08-.8,24.24,24.24,0,0,0,18.08-23.36,23.81,23.81,0,0,0-3.56-12.52,24.19,24.19,0,0,0-14.52-10.84,25.59,25.59,0,0,0-6.08-.8h-59.2c-.4,0-.84,0-1.24.08a24.11,24.11,0,0,0,0,48.16C393.57,522.31,394,522.35,394.41,522.35Z" fill="none" stroke="#003a50" stroke-miterlimit="10"/></g><rect x="206.63" y="16.33" width="85.75" height="31.12" fill="none" stroke="#003a50" stroke-miterlimit="10"/><g clip-path="url(#clip-path)"><path d="M222.29,20.74a.91.91,0,0,1,.51-.82.92.92,0,0,1,1.23.41,26.36,26.36,0,0,1,0,23.12.92.92,0,0,1-1.65-.81,24.43,24.43,0,0,0,0-21.49A.85.85,0,0,1,222.29,20.74Z" fill="none" stroke="#003a50" stroke-miterlimit="10"/><path d="M227.38,20.74a.91.91,0,0,1,.51-.82.92.92,0,0,1,1.23.41,26.36,26.36,0,0,1,0,23.12.92.92,0,1,1-1.65-.81,24.43,24.43,0,0,0,0-21.49A.85.85,0,0,1,227.38,20.74Z" fill="none" stroke="#003a50" stroke-miterlimit="10"/><path d="M232.47,20.74a.92.92,0,0,1,1.74-.41,26.36,26.36,0,0,1,0,23.12.92.92,0,1,1-1.65-.81,24.43,24.43,0,0,0,0-21.49A1,1,0,0,1,232.47,20.74Z" fill="none" stroke="#003a50" stroke-miterlimit="10"/><path d="M237.56,20.74a.92.92,0,0,1,1.74-.41,26.36,26.36,0,0,1,0,23.12.91.91,0,1,1-1.64-.81,24.52,24.52,0,0,0,0-21.49A.86.86,0,0,1,237.56,20.74Z" fill="none" stroke="#003a50" stroke-miterlimit="10"/><path d="M242.65,20.74a.91.91,0,0,1,.51-.82.93.93,0,0,1,1.24.41,26.45,26.45,0,0,1,0,23.12.93.93,0,0,1-1.23.42.91.91,0,0,1-.42-1.23,24.52,24.52,0,0,0,0-21.49A.86.86,0,0,1,242.65,20.74Z" fill="none" stroke="#003a50" stroke-miterlimit="10"/><path d="M247.74,20.74a.91.91,0,0,1,.52-.82.9.9,0,0,1,1.22.41,26.27,26.27,0,0,1,0,23.12.91.91,0,1,1-1.64-.81,24.52,24.52,0,0,0,0-21.49A.86.86,0,0,1,247.74,20.74Z" fill="none" stroke="#003a50" stroke-miterlimit="10"/><path d="M217.19,20.74a.93.93,0,0,1,1.75-.41,26.36,26.36,0,0,1,0,23.12.93.93,0,0,1-1.23.42.92.92,0,0,1-.42-1.23,24.52,24.52,0,0,0,0-21.49A.86.86,0,0,1,217.19,20.74Z" fill="none" stroke="#003a50" stroke-miterlimit="10"/><path d="M212.1,20.74a.91.91,0,0,1,.51-.82.93.93,0,0,1,1.24.41,26.45,26.45,0,0,1,0,23.12.93.93,0,0,1-1.23.42.91.91,0,0,1-.42-1.23,24.52,24.52,0,0,0,0-21.49A.86.86,0,0,1,212.1,20.74Z" fill="none" stroke="#003a50" stroke-miterlimit="10"/></g><line x1="206.62" y1="31.89" x2="292.38" y2="31.89" fill="none" stroke="#003a50" stroke-miterlimit="10"/><rect x="206.63" y="184.24" width="85.75" height="31.12" fill="none" stroke="#003a50" stroke-miterlimit="10"/><g clip-path="url(#clip-path)"><path d="M222.29,188.65a.92.92,0,0,1,1.74-.41,26.34,26.34,0,0,1,0,23.11.92.92,0,0,1-1.65-.81,24.43,24.43,0,0,0,0-21.49A.83.83,0,0,1,222.29,188.65Z" fill="none" stroke="#003a50" stroke-miterlimit="10"/><path d="M227.38,188.65a.92.92,0,0,1,1.74-.41,26.34,26.34,0,0,1,0,23.11.92.92,0,1,1-1.65-.81,24.43,24.43,0,0,0,0-21.49A.83.83,0,0,1,227.38,188.65Z" fill="none" stroke="#003a50" stroke-miterlimit="10"/><path d="M232.47,188.65a.92.92,0,0,1,1.74-.41,26.34,26.34,0,0,1,0,23.11.92.92,0,1,1-1.65-.81,24.43,24.43,0,0,0,0-21.49A1,1,0,0,1,232.47,188.65Z" fill="none" stroke="#003a50" stroke-miterlimit="10"/><path d="M237.56,188.65a.92.92,0,0,1,1.74-.41,26.34,26.34,0,0,1,0,23.11.91.91,0,1,1-1.64-.81,24.52,24.52,0,0,0,0-21.49A.85.85,0,0,1,237.56,188.65Z" fill="none" stroke="#003a50" stroke-miterlimit="10"/><path d="M242.65,188.65a.92.92,0,0,1,1.75-.41,26.43,26.43,0,0,1,0,23.11.92.92,0,0,1-1.23.42.91.91,0,0,1-.42-1.23,24.52,24.52,0,0,0,0-21.49A.85.85,0,0,1,242.65,188.65Z" fill="none" stroke="#003a50" stroke-miterlimit="10"/><path d="M247.74,188.65a.94.94,0,0,1,.52-.83.92.92,0,0,1,1.22.42,26.25,26.25,0,0,1,0,23.11.91.91,0,1,1-1.64-.81,24.52,24.52,0,0,0,0-21.49A.85.85,0,0,1,247.74,188.65Z" fill="none" stroke="#003a50" stroke-miterlimit="10"/><path d="M217.19,188.65a.94.94,0,0,1,.52-.83.93.93,0,0,1,1.23.42,26.34,26.34,0,0,1,0,23.11.92.92,0,0,1-1.65-.81,24.52,24.52,0,0,0,0-21.49A.85.85,0,0,1,217.19,188.65Z" fill="none" stroke="#003a50" stroke-miterlimit="10"/><path d="M212.1,188.65a.92.92,0,0,1,1.75-.41,26.43,26.43,0,0,1,0,23.11.92.92,0,0,1-1.23.42.91.91,0,0,1-.42-1.23,24.52,24.52,0,0,0,0-21.49A.85.85,0,0,1,212.1,188.65Z" fill="none" stroke="#003a50" stroke-miterlimit="10"/></g><line x1="206.62" y1="199.8" x2="292.38" y2="199.8" fill="none" stroke="#003a50" stroke-miterlimit="10"/><g clip-path="url(#clip-path)"><path d="M152.49,262.77a2.74,2.74,0,0,1-2.54-1.71h-1.57l-4.15,2.47,1.89,3.07,2.15-1.19V275h9v-9.62l2.16,1.19,1.88-3.07-4.18-2.47h-2.09A2.81,2.81,0,0,1,152.49,262.77Z" fill="none" stroke="#003a50" stroke-miterlimit="10"/></g><rect x="138.96" y="254.74" width="27.66" height="26.6" fill="none" stroke="#003a50" stroke-miterlimit="10"/><g clip-path="url(#clip-path)"><path d="M100,277.6a.79.79,0,0,0,1.5.34,22.57,22.57,0,0,0,0-19.77.79.79,0,0,0-1.42.69,20.91,20.91,0,0,1,0,18.39A.85.85,0,0,0,100,277.6Z" fill="none" stroke="#003a50" stroke-miterlimit="10"/><path d="M104.31,277.6a.78.78,0,0,0,1.49.34,22.48,22.48,0,0,0,0-19.77.78.78,0,0,0-1.41.69,20.91,20.91,0,0,1,0,18.39A.72.72,0,0,0,104.31,277.6Z" fill="none" stroke="#003a50" stroke-miterlimit="10"/><path d="M108.67,277.6a.78.78,0,0,0,.44.7.79.79,0,0,0,1-.36,22.57,22.57,0,0,0,0-19.77.78.78,0,0,0-1.41.69,21,21,0,0,1,0,18.39A.72.72,0,0,0,108.67,277.6Z" fill="none" stroke="#003a50" stroke-miterlimit="10"/><path d="M113,277.6a.8.8,0,0,0,.44.7.78.78,0,0,0,1.05-.36,22.48,22.48,0,0,0,0-19.77.78.78,0,0,0-1.41.69,20.91,20.91,0,0,1,0,18.39A.85.85,0,0,0,113,277.6Z" fill="none" stroke="#003a50" stroke-miterlimit="10"/><path d="M117.38,277.6a.78.78,0,0,0,1.49.34,22.57,22.57,0,0,0,0-19.77.78.78,0,0,0-1.41.69,20.91,20.91,0,0,1,0,18.39A.72.72,0,0,0,117.38,277.6Z" fill="none" stroke="#003a50" stroke-miterlimit="10"/><path d="M121.73,277.6a.79.79,0,0,0,1.5.34,22.57,22.57,0,0,0,0-19.77.79.79,0,0,0-1.42.69,20.91,20.91,0,0,1,0,18.39A.85.85,0,0,0,121.73,277.6Z" fill="none" stroke="#003a50" stroke-miterlimit="10"/><path d="M95.6,277.6a.78.78,0,0,0,1.49.34,22.57,22.57,0,0,0,0-19.77.78.78,0,0,0-1.41.69,20.91,20.91,0,0,1,0,18.39A.72.72,0,0,0,95.6,277.6Z" fill="none" stroke="#003a50" stroke-miterlimit="10"/><path d="M91.24,277.6a.8.8,0,0,0,.44.7.78.78,0,0,0,1-.36,22.48,22.48,0,0,0,0-19.77.78.78,0,0,0-1.41.69,20.91,20.91,0,0,1,0,18.39A.85.85,0,0,0,91.24,277.6Z" fill="none" stroke="#003a50" stroke-miterlimit="10"/></g><line x1="86.56" y1="268.06" x2="138.96" y2="268.06" fill="none" stroke="#003a50" stroke-miterlimit="10"/><rect x="86.22" y="254.75" width="52.74" height="26.6" fill="none" stroke="#003a50" stroke-miterlimit="10"/><g clip-path="url(#clip-path)"><path d="M350.17,222.45v-3.76a47.42,47.42,0,0,0-47.42-47.43v51.19" fill="none" stroke="#003a50" stroke-miterlimit="10" stroke-width="1.6"/><path d="M244.29,319.59v3.1a39,39,0,0,1-39,39V319.59" fill="none" stroke="#003a50" stroke-miterlimit="10" stroke-width="1.6"/><path d="M302.3,583.82v3.5a44.07,44.07,0,0,0,44.08,44.08V583.82" fill="none" stroke="#003a50" stroke-miterlimit="10" stroke-width="1.6"/><path d="M409.06,583.82v3.5A44.08,44.08,0,0,1,365,631.4V583.82" fill="none" stroke="#003a50" stroke-miterlimit="10" stroke-width="1.6"/><path d="M-11.13,434.25v-4.07A51.12,51.12,0,0,1,40,379.06v55.19" fill="none" stroke="#003a50" stroke-miterlimit="10" stroke-width="1.6"/><path d="M56.23,325.07H52.16A51.12,51.12,0,0,0,1,376.19H56.23" fill="none" stroke="#003a50" stroke-miterlimit="10" stroke-width="1.6"/><path d="M200.71,122.31h3.08A38.71,38.71,0,0,1,242.5,161H200.71" fill="none" stroke="#003a50" stroke-miterlimit="10" stroke-width="1.6"/><line x1="178.31" y1="327.22" x2="123.83" y2="327.22" fill="none" stroke="#003a50" stroke-miterlimit="10" stroke-width="1.6"/><polygon points="378.83 795.61 283.09 795.61 283.09 844.94 378.83 833.28 378.83 795.61" fill="#003a50" fill-rule="evenodd"/><polygon points="12.38 795.61 -83.36 795.61 -83.36 844.94 12.38 833.28 12.38 795.61" fill="#003a50" fill-rule="evenodd"/><rect x="50.45" y="-41.22" width="16.32" height="181.89" fill="#003a50"/><rect x="50.45" y="106.53" width="16.32" height="115.78" fill="#003a50"/><rect x="50.45" y="280.99" width="16.32" height="44.79" fill="#003a50"/><rect x="74.2" y="227.73" width="11.82" height="64.29" fill="#003a50"/><rect x="53.87" y="280.99" width="32.14" height="11.82" fill="#003a50"/><rect x="50.45" y="375.28" width="16.32" height="66" fill="#003a50"/><rect x="39.14" y="427.81" width="131.96" height="16.32" fill="#003a50"/><rect x="156.86" y="427.81" width="16.32" height="380.64" fill="#003a50"/><rect x="62.92" y="0.02" width="474.34" height="16.32" fill="#003a50"/><rect x="50.45" y="216.02" width="252.3" height="12.6" fill="#003a50"/><rect x="350.17" y="216.02" width="197.8" height="12.6" fill="#003a50"/><rect x="287.77" y="789.36" width="82.83" height="27.12" fill="#003a50"/><rect x="-77.99" y="789.36" width="82.83" height="27.12" fill="#003a50"/><rect x="528.48" y="795.53" width="34.25" height="34.25" fill="#003a50"/><rect x="99.6" y="795.53" width="95.33" height="34.25" fill="#003a50"/><rect x="462.34" y="795.53" width="95.33" height="45.92" fill="#003a50"/><rect x="167.76" y="799.53" width="27.17" height="41.92" fill="#003a50"/><rect x="527.88" y="713.42" width="49.15" height="103.49" fill="#003a50"/><rect x="522.76" y="533.73" width="9.5" height="59.04" fill="#003a50"/><rect x="522.76" y="361.86" width="9.5" height="76.42" fill="#003a50"/><rect x="551.4" y="816.9" width="25.83" height="25" fill="#003a50"/><rect x="529.23" y="348.57" width="37.44" height="94.57" fill="#003a50"/><rect x="533.23" y="417.24" width="39.53" height="25.9" fill="#003a50"/><polygon points="529.23 164.55 529.23 260.29 578.56 260.29 566.9 164.55 529.23 164.55" fill="#003a50" fill-rule="evenodd"/><polygon points="529.23 533.73 529.23 629.47 578.56 629.47 566.9 533.73 529.23 533.73" fill="#003a50" fill-rule="evenodd"/><rect x="529.23" y="-19.8" width="35.6" height="96.07" fill="#003a50"/><rect x="533.23" y="50.36" width="39.53" height="25.9" fill="#003a50"/><rect x="200.25" y="10.22" width="6.38" height="112.92" fill="#003a50"/><rect x="200.25" y="161.02" width="6.38" height="62.9" fill="#003a50"/><rect x="292.38" y="10.23" width="6.38" height="110.35" fill="#003a50"/><rect x="292.38" y="179.85" width="6.38" height="43.42" fill="#003a50"/><rect x="60.67" y="130.54" width="31" height="6.38" fill="#003a50"/><rect x="85.65" y="130.54" width="6.38" height="37.56" fill="#003a50"/><rect x="172.65" y="-33.84" width="6.38" height="40.91" fill="#003a50"/><rect x="66.14" y="167.21" width="33.64" height="6.38" fill="#003a50"/><rect x="95.51" y="168.1" width="6.38" height="49.87" fill="#003a50"/><rect x="243.5" y="316.84" width="52.01" height="6.38" fill="#003a50"/><rect x="289.14" y="226.27" width="6.38" height="95.32" fill="#003a50"/><rect x="166.8" y="222.32" width="6.38" height="97.72" fill="#003a50"/><rect x="81.34" y="248.58" width="88.64" height="6.38" fill="#003a50"/><rect x="141.3" y="225.28" width="6.38" height="26.49" fill="#003a50"/><rect x="150.85" y="316.84" width="55.42" height="6.38" fill="#003a50"/><rect x="52" y="316.84" width="60.64" height="6.38" fill="#003a50"/><rect x="166.8" y="402.01" width="6.38" height="33.94" fill="#003a50"/><rect x="62.93" y="402.01" width="108.92" height="6.38" fill="#003a50"/><rect x="114.2" y="404.28" width="6.38" height="33.17" fill="#003a50"/><rect x="166.8" y="427" width="128.72" height="6.38" fill="#003a50"/><rect x="290.27" y="581.07" width="12.92" height="6.38" fill="#003a50"/><rect x="173.32" y="581.07" width="122.43" height="6.38" fill="#003a50"/><rect x="345.26" y="581.07" width="20.5" height="6.38" fill="#003a50"/><rect x="408.25" y="581.07" width="126.02" height="6.38" fill="#003a50"/><rect x="347.88" y="584.26" width="6.38" height="211.27" fill="#003a50"/><rect x="290.35" y="393.1" width="6.38" height="40" fill="#003a50"/><rect x="49.85" y="441.28" width="6.38" height="25.25" fill="#003a50"/><rect x="69.83" y="442.03" width="6.38" height="24.5" fill="#003a50"/><rect x="51.7" y="460.15" width="24.5" height="6.38" fill="#003a50"/><rect x="50.45" y="217.97" width="5.98" height="81.48" fill="#003a50"/><line x1="-9.86" y1="534.28" x2="44.74" y2="534.28" fill="none" stroke="#003a50" stroke-miterlimit="10" stroke-dasharray="5.75 5.75"/><polyline points="47.62 534.28 50.45 534.28 50.45 531.45" fill="none" stroke="#003a50" stroke-miterlimit="10"/><line x1="50.45" y1="525.6" x2="50.45" y2="470.07" fill="none" stroke="#003a50" stroke-miterlimit="10" stroke-dasharray="5.85 5.85"/><line x1="50.45" y1="467.14" x2="50.45" y2="464.31" fill="none" stroke="#003a50" stroke-miterlimit="10"/><line x1="294.8" y1="316.22" x2="294.8" y2="319.06" fill="none" stroke="#003a50" stroke-miterlimit="10"/><line x1="294.8" y1="324.62" x2="294.8" y2="388.54" fill="none" stroke="#003a50" stroke-miterlimit="10" stroke-dasharray="5.56 5.56"/><line x1="294.8" y1="391.32" x2="294.8" y2="394.16" fill="none" stroke="#003a50" stroke-miterlimit="10"/><line x1="296.4" y1="119.25" x2="296.4" y2="122.09" fill="none" stroke="#003a50" stroke-miterlimit="10"/><line x1="296.4" y1="127.57" x2="296.4" y2="179.71" fill="none" stroke="#003a50" stroke-miterlimit="10" stroke-dasharray="5.49 5.49"/><line x1="296.4" y1="182.45" x2="296.4" y2="185.29" fill="none" stroke="#003a50" stroke-miterlimit="10"/><rect x="172.65" y="-33.84" width="6.38" height="40.91" fill="#003a50"/><rect x="151.63" y="-21.16" width="6.38" height="26.75" fill="#003a50"/><rect x="178.18" y="32.66" width="24.71" height="6.38" fill="#003a50"/><rect x="178.17" y="12.28" width="6.38" height="26.75" fill="#003a50"/><rect x="66.14" y="167.21" width="35.75" height="6.38" fill="#003a50"/><rect x="243.5" y="311.74" width="52.01" height="6.38" fill="#003a50"/><rect x="289.14" y="226.28" width="6.38" height="88.64" fill="#003a50"/><rect x="166.8" y="226.28" width="6.38" height="88.64" fill="#003a50"/><rect x="81.34" y="248.58" width="88.64" height="6.38" fill="#003a50"/><rect x="141.3" y="225.28" width="6.38" height="26.49" fill="#003a50"/><rect x="62.93" y="402.01" width="108.92" height="6.38" fill="#003a50"/><rect x="114.2" y="404.28" width="6.38" height="33.17" fill="#003a50"/><rect x="290.27" y="581.07" width="12.92" height="6.38" fill="#003a50"/><rect x="345.26" y="581.07" width="20.5" height="6.38" fill="#003a50"/><rect x="408.25" y="581.07" width="126.02" height="6.38" fill="#003a50"/><rect x="49.85" y="441.28" width="6.38" height="25.25" fill="#003a50"/><rect x="69.83" y="442.03" width="6.38" height="24.5" fill="#003a50"/><rect x="51.7" y="460.15" width="24.5" height="6.38" fill="#003a50"/><rect x="50.45" y="217.97" width="5.98" height="81.48" fill="#003a50"/><line x1="263.42" y1="586.29" x2="260.58" y2="586.29" fill="none" stroke="#003a50" stroke-miterlimit="10"/><line x1="255.39" y1="586.29" x2="206.04" y2="586.29" fill="none" stroke="#003a50" stroke-miterlimit="10" stroke-dasharray="5.2 5.2"/><line x1="203.44" y1="586.29" x2="200.61" y2="586.29" fill="none" stroke="#003a50" stroke-miterlimit="10"/><line x1="-9.86" y1="534.28" x2="44.74" y2="534.28" fill="none" stroke="#003a50" stroke-miterlimit="10" stroke-dasharray="5.75 5.75"/><polyline points="47.62 534.28 50.45 534.28 50.45 531.45" fill="none" stroke="#003a50" stroke-miterlimit="10"/><line x1="50.45" y1="525.6" x2="50.45" y2="470.07" fill="none" stroke="#003a50" stroke-miterlimit="10" stroke-dasharray="5.85 5.85"/><line x1="50.45" y1="467.14" x2="50.45" y2="464.31" fill="none" stroke="#003a50" stroke-miterlimit="10"/></g><g clip-path="url(#clip-path)"><path d="M210.67,819.54a5.2,5.2,0,0,1,0-6.24,4,4,0,0,1,5.74,0,5.2,5.2,0,0,1,0,6.24,4,4,0,0,1-5.74,0Zm4.61-1a4.08,4.08,0,0,0,0-4.29,2.23,2.23,0,0,0-3.47,0,4,4,0,0,0,0,4.29,2,2,0,0,0,1.73.84A2.05,2.05,0,0,0,215.28,818.56Z" fill="#003a50"/><path d="M219,820.53a.82.82,0,0,1,0-1.14.87.87,0,0,1,.61-.21.85.85,0,0,1,.61.21.82.82,0,0,1,0,1.14.85.85,0,0,1-.61.21A.87.87,0,0,1,219,820.53Z" fill="#003a50"/><path d="M228.61,814.59h-1.56s0-.05,0-.13a1.2,1.2,0,0,0-.15-.31,1.82,1.82,0,0,0-.27-.35,1.4,1.4,0,0,0-.5-.29,2.07,2.07,0,0,0-.71-.11,1.77,1.77,0,0,0-1.52.72,3.12,3.12,0,0,0-.54,1.9h0a1.28,1.28,0,0,1,.31-.31,2.73,2.73,0,0,1,.43-.26,3.14,3.14,0,0,1,.67-.21,4.12,4.12,0,0,1,.86-.09,3.57,3.57,0,0,1,2.38.78,2.49,2.49,0,0,1,.92,2,2.54,2.54,0,0,1-1,2.05,3.92,3.92,0,0,1-2.55.78,3.41,3.41,0,0,1-2.73-1.09,4.5,4.5,0,0,1-.93-3v-.29a4.83,4.83,0,0,1,.93-3,3.18,3.18,0,0,1,2.69-1.21,4.14,4.14,0,0,1,1.5.26,2.83,2.83,0,0,1,1,.67A2.44,2.44,0,0,1,228.61,814.59Zm-1.77,2.22a2.58,2.58,0,0,0-2.79,0,1.3,1.3,0,0,0-.55,1.11A1.34,1.34,0,0,0,224,819a2.32,2.32,0,0,0,1.4.41,2.35,2.35,0,0,0,1.41-.41,1.34,1.34,0,0,0,.54-1.11A1.3,1.3,0,0,0,226.84,816.81Z" fill="#003a50"/><path d="M393.57,819.54a5.16,5.16,0,0,1,0-6.24,4,4,0,0,1,5.73,0,5.2,5.2,0,0,1,0,6.24,4,4,0,0,1-5.73,0Zm4.6-1a4,4,0,0,0,0-4.29,2.23,2.23,0,0,0-3.47,0,4,4,0,0,0,0,4.29,2.21,2.21,0,0,0,3.47,0Z" fill="#003a50"/><path d="M401.89,820.53a.82.82,0,0,1,0-1.14,1,1,0,0,1,1.23,0,.85.85,0,0,1,0,1.14,1,1,0,0,1-1.23,0Z" fill="#003a50"/><path d="M411.5,814.59h-1.56s0-.05,0-.13a1.85,1.85,0,0,0-.16-.31,1.49,1.49,0,0,0-.27-.35,1.32,1.32,0,0,0-.5-.29,2,2,0,0,0-.71-.11,1.78,1.78,0,0,0-1.52.72,3.12,3.12,0,0,0-.54,1.9h0a1.28,1.28,0,0,1,.31-.31,3.28,3.28,0,0,1,.43-.26,3.14,3.14,0,0,1,.67-.21,4.12,4.12,0,0,1,.86-.09,3.57,3.57,0,0,1,2.38.78,2.49,2.49,0,0,1,.92,2,2.54,2.54,0,0,1-1,2.05,3.91,3.91,0,0,1-2.54.78,3.45,3.45,0,0,1-2.74-1.09,4.5,4.5,0,0,1-.93-3v-.29a4.83,4.83,0,0,1,.93-3,3.2,3.2,0,0,1,2.69-1.21,4.14,4.14,0,0,1,1.5.26,2.74,2.74,0,0,1,1,.67A2.44,2.44,0,0,1,411.5,814.59Zm-1.77,2.22a2.58,2.58,0,0,0-2.79,0,1.4,1.4,0,0,0,0,2.22,2.28,2.28,0,0,0,1.4.41,2.32,2.32,0,0,0,1.4-.41,1.34,1.34,0,0,0,.54-1.11A1.3,1.3,0,0,0,409.73,816.81Z" fill="#003a50"/><path d="M25.15,819.54a5.2,5.2,0,0,1,0-6.24A3.62,3.62,0,0,1,28,812.1a3.61,3.61,0,0,1,2.87,1.2,5.2,5.2,0,0,1,0,6.24,3.61,3.61,0,0,1-2.87,1.2A3.62,3.62,0,0,1,25.15,819.54Zm4.61-1a4.08,4.08,0,0,0,0-4.29,2.23,2.23,0,0,0-3.47,0,4,4,0,0,0,0,4.29,2,2,0,0,0,1.73.84A2.05,2.05,0,0,0,29.76,818.56Z" fill="#003a50"/><path d="M33.48,820.53a.82.82,0,0,1,0-1.14.87.87,0,0,1,.61-.21.85.85,0,0,1,.61.21.82.82,0,0,1,0,1.14.85.85,0,0,1-.61.21A.87.87,0,0,1,33.48,820.53Z" fill="#003a50"/><path d="M43.09,814.59H41.53s0-.05,0-.13a1.2,1.2,0,0,0-.15-.31,1.82,1.82,0,0,0-.27-.35,1.4,1.4,0,0,0-.5-.29,2.07,2.07,0,0,0-.71-.11,1.77,1.77,0,0,0-1.52.72,3.12,3.12,0,0,0-.54,1.9h0a1.28,1.28,0,0,1,.31-.31,2.73,2.73,0,0,1,.43-.26,3.14,3.14,0,0,1,.67-.21,4.12,4.12,0,0,1,.86-.09,3.57,3.57,0,0,1,2.38.78,2.49,2.49,0,0,1,.92,2,2.54,2.54,0,0,1-1,2.05,3.92,3.92,0,0,1-2.55.78,3.41,3.41,0,0,1-2.73-1.09,4.5,4.5,0,0,1-.93-3v-.29a4.83,4.83,0,0,1,.93-3,3.18,3.18,0,0,1,2.69-1.21,4.14,4.14,0,0,1,1.5.26,2.83,2.83,0,0,1,1,.67A2.44,2.44,0,0,1,43.09,814.59Zm-1.77,2.22a2.58,2.58,0,0,0-2.79,0,1.3,1.3,0,0,0-.55,1.11,1.34,1.34,0,0,0,.54,1.11,2.32,2.32,0,0,0,1.4.41,2.35,2.35,0,0,0,1.41-.41,1.34,1.34,0,0,0,.54-1.11A1.3,1.3,0,0,0,41.32,816.81Z" fill="#003a50"/><path d="M556,149.65a5.2,5.2,0,0,1-6.24,0,4,4,0,0,1,0-5.74,5.2,5.2,0,0,1,6.24,0,4,4,0,0,1,0,5.74Zm-1-4.6a4,4,0,0,0-4.29,0,2.22,2.22,0,0,0,0,3.46,4,4,0,0,0,4.29,0,2.22,2.22,0,0,0,0-3.46Z" fill="#003a50"/><path d="M556.94,141.32a.82.82,0,0,1-1.14,0,.85.85,0,0,1-.21-.61.87.87,0,0,1,.21-.61.82.82,0,0,1,1.14,0,.87.87,0,0,1,.21.61A.85.85,0,0,1,556.94,141.32Z" fill="#003a50"/><path d="M551,131.72v1.55l-.12,0-.31.15a1.91,1.91,0,0,0-.35.27,1.37,1.37,0,0,0-.29.51,2,2,0,0,0-.12.71,1.8,1.8,0,0,0,.73,1.52,3.18,3.18,0,0,0,1.89.53v0a1,1,0,0,1-.3-.31,3.19,3.19,0,0,1-.26-.42,3.25,3.25,0,0,1-.21-.68,4,4,0,0,1-.09-.85,3.55,3.55,0,0,1,.78-2.38,2.46,2.46,0,0,1,2-.92,2.54,2.54,0,0,1,2,1,3.87,3.87,0,0,1,.78,2.54,3.41,3.41,0,0,1-1.09,2.73,4.51,4.51,0,0,1-3,.93h-.28a4.83,4.83,0,0,1-3-.93,3.16,3.16,0,0,1-1.21-2.68,4.14,4.14,0,0,1,.26-1.5,2.87,2.87,0,0,1,.67-1A2.42,2.42,0,0,1,551,131.72Zm2.22,1.76a2.32,2.32,0,0,0-.41,1.4,2.27,2.27,0,0,0,.41,1.39,1.41,1.41,0,0,0,2.23,0,2.6,2.6,0,0,0,0-2.8,1.41,1.41,0,0,0-2.23,0Z" fill="#003a50"/><path d="M556,293.53a5.2,5.2,0,0,1-6.24,0,4,4,0,0,1,0-5.74,5.2,5.2,0,0,1,6.24,0,4,4,0,0,1,0,5.74Zm-1-4.6a4,4,0,0,0-4.29,0,2.22,2.22,0,0,0,0,3.46,4,4,0,0,0,4.29,0,2.22,2.22,0,0,0,0-3.46Z" fill="#003a50"/><path d="M556.94,285.2a.82.82,0,0,1-1.14,0,.85.85,0,0,1-.21-.61.87.87,0,0,1,.21-.61.82.82,0,0,1,1.14,0,.87.87,0,0,1,.21.61A.85.85,0,0,1,556.94,285.2Z" fill="#003a50"/><path d="M551,275.6v1.55l-.12,0-.31.15a1.91,1.91,0,0,0-.35.27,1.37,1.37,0,0,0-.29.51,2,2,0,0,0-.12.71,1.8,1.8,0,0,0,.73,1.52,3.18,3.18,0,0,0,1.89.53v0a1,1,0,0,1-.3-.31,3.19,3.19,0,0,1-.26-.42,3.25,3.25,0,0,1-.21-.68,4,4,0,0,1-.09-.85,3.55,3.55,0,0,1,.78-2.38,2.46,2.46,0,0,1,2-.92,2.54,2.54,0,0,1,2,1,3.87,3.87,0,0,1,.78,2.54,3.41,3.41,0,0,1-1.09,2.73,4.51,4.51,0,0,1-3,.93h-.28a4.83,4.83,0,0,1-3-.93,3.16,3.16,0,0,1-1.21-2.68,4.14,4.14,0,0,1,.26-1.5,2.87,2.87,0,0,1,.67-1A2.42,2.42,0,0,1,551,275.6Zm2.22,1.76a2.32,2.32,0,0,0-.41,1.4,2.27,2.27,0,0,0,.41,1.39,1.41,1.41,0,0,0,2.23,0,2.6,2.6,0,0,0,0-2.8,1.41,1.41,0,0,0-2.23,0Z" fill="#003a50"/><path d="M556,476.94a5.2,5.2,0,0,1-6.24,0,4,4,0,0,1,0-5.74,5.2,5.2,0,0,1,6.24,0,4,4,0,0,1,0,5.74Zm-1-4.61a4.08,4.08,0,0,0-4.29,0,2.07,2.07,0,0,0-.83,1.74,2,2,0,0,0,.83,1.73,4,4,0,0,0,4.29,0,2,2,0,0,0,.84-1.73A2.05,2.05,0,0,0,555,472.33Z" fill="#003a50"/><path d="M556.94,468.61a.82.82,0,0,1-1.14,0,1,1,0,0,1,0-1.22.82.82,0,0,1,1.14,0,1,1,0,0,1,0,1.22Z" fill="#003a50"/><path d="M551,459v1.56s0,0-.13,0a1.2,1.2,0,0,0-.31.15,2.33,2.33,0,0,0-.35.27,1.4,1.4,0,0,0-.29.5,2.09,2.09,0,0,0-.11.72,1.76,1.76,0,0,0,.72,1.51,3.11,3.11,0,0,0,1.89.54v0a1.11,1.11,0,0,1-.3-.31,2.73,2.73,0,0,1-.26-.43,3,3,0,0,1-.21-.67,4,4,0,0,1-.09-.86,3.54,3.54,0,0,1,.78-2.37,2.46,2.46,0,0,1,2-.92,2.54,2.54,0,0,1,2,1,3.87,3.87,0,0,1,.78,2.54,3.41,3.41,0,0,1-1.09,2.73,4.5,4.5,0,0,1-3,.93h-.29a4.83,4.83,0,0,1-3-.93,3.18,3.18,0,0,1-1.21-2.68,4.06,4.06,0,0,1,.26-1.5,2.87,2.87,0,0,1,.67-1A2.44,2.44,0,0,1,551,459Zm2.22,1.77a2.58,2.58,0,0,0,0,2.79,1.3,1.3,0,0,0,1.11.55,1.34,1.34,0,0,0,1.11-.54,2.6,2.6,0,0,0,0-2.8,1.4,1.4,0,0,0-2.22,0Z" fill="#003a50"/><path d="M556,658.94a5.16,5.16,0,0,1-6.24,0,4,4,0,0,1,0-5.73,5.16,5.16,0,0,1,6.24,0,4,4,0,0,1,0,5.73Zm-1-4.6a4,4,0,0,0-4.29,0,2.23,2.23,0,0,0,0,3.47,4,4,0,0,0,4.29,0,2.21,2.21,0,0,0,0-3.47Z" fill="#003a50"/><path d="M556.94,650.62a.82.82,0,0,1-1.14,0,.9.9,0,0,1-.21-.62.87.87,0,0,1,.21-.61.82.82,0,0,1,1.14,0,.87.87,0,0,1,.21.61A.9.9,0,0,1,556.94,650.62Z" fill="#003a50"/><path d="M551,641v1.56s0,0-.13,0l-.31.15a1.87,1.87,0,0,0-.35.28,1.25,1.25,0,0,0-.29.5,2,2,0,0,0-.11.71,1.78,1.78,0,0,0,.72,1.52,3.11,3.11,0,0,0,1.89.54v0a1.18,1.18,0,0,1-.3-.32,3.19,3.19,0,0,1-.26-.42,3.14,3.14,0,0,1-.21-.67,4.12,4.12,0,0,1-.09-.86,3.57,3.57,0,0,1,.78-2.38,2.49,2.49,0,0,1,2-.92,2.54,2.54,0,0,1,2,1,3.89,3.89,0,0,1,.78,2.54,3.41,3.41,0,0,1-1.09,2.73,4.5,4.5,0,0,1-3,.94h-.29a4.83,4.83,0,0,1-3-.94,3.16,3.16,0,0,1-1.21-2.68,4.14,4.14,0,0,1,.26-1.5,2.74,2.74,0,0,1,.67-1A2.39,2.39,0,0,1,551,641Zm2.22,1.77a2.21,2.21,0,0,0-.41,1.39,2.26,2.26,0,0,0,.41,1.4,1.32,1.32,0,0,0,1.11.55,1.35,1.35,0,0,0,1.11-.55,2.6,2.6,0,0,0,0-2.8,1.34,1.34,0,0,0-1.11-.54A1.3,1.3,0,0,0,553.22,642.78Z" fill="#003a50"/></g><rect x="63.83" y="286.48" width="17.51" height="30.36" fill="none" stroke="#003a50" stroke-miterlimit="10" stroke-width="0.6"/><g clip-path="url(#clip-path)"><path d="M422.45,634.41l-2.49,2v-2.24l2.74-2.27h1.86v11.91h-2.11Z" fill="#003a50"/><path d="M437,643.76H427V642.2a2.8,2.8,0,0,1,.58-1.74,4.12,4.12,0,0,1,1.45-1.2c.5-.25,1.12-.54,1.87-.86s1.32-.56,1.88-.77a4.09,4.09,0,0,0,1.44-.92,1.78,1.78,0,0,0,.57-1.3c0-1.26-.88-1.89-2.66-1.89s-2.68.72-2.68,2.16v.41h-2.11v-.41a3.59,3.59,0,0,1,1.27-3,5.34,5.34,0,0,1,3.51-1,5.65,5.65,0,0,1,3.51,1,3.29,3.29,0,0,1,1.27,2.75,3.11,3.11,0,0,1-.55,1.83,4.31,4.31,0,0,1-1.41,1.31c-.59.34-1.21.65-1.83.93s-1.24.53-1.83.75a5.55,5.55,0,0,0-1.4.74,1.25,1.25,0,0,0-.57,1H437Z" fill="#003a50"/><path d="M439.05,643.63a1,1,0,0,1-.33-.8,1,1,0,0,1,.33-.81,1.4,1.4,0,0,1,1.73,0,1,1,0,0,1,.33.81,1,1,0,0,1-.33.8,1.4,1.4,0,0,1-1.73,0Z" fill="#003a50"/><path d="M451.63,643a7.73,7.73,0,0,1-7.37,0,3,3,0,0,1-1.37-2.56,2.7,2.7,0,0,1,.26-1.16,2.29,2.29,0,0,1,.66-.85,3.91,3.91,0,0,1,1.39-.78l.26-.06v-.09a3.18,3.18,0,0,1-.77-.3,2.6,2.6,0,0,1-.66-.43,2.35,2.35,0,0,1-.54-.76,2.41,2.41,0,0,1-.22-1,2.78,2.78,0,0,1,1.25-2.38,7,7,0,0,1,6.85,0,2.81,2.81,0,0,1,1.25,2.38,2.58,2.58,0,0,1-.22,1,1.92,1.92,0,0,1-.56.75,3.59,3.59,0,0,1-1.19.68l-.23,0v.09a1.44,1.44,0,0,1,.29.06,6.35,6.35,0,0,1,.62.27,3.43,3.43,0,0,1,.77.51,2.7,2.7,0,0,1,.62.82,2.63,2.63,0,0,1,.27,1.19A3,3,0,0,1,451.63,643Zm-5.79-1.35a4.83,4.83,0,0,0,4.2,0,1.59,1.59,0,0,0,0-2.69,4.93,4.93,0,0,0-4.2,0,1.59,1.59,0,0,0,0,2.69Zm-.36-6.52a1.36,1.36,0,0,0,.64,1.19,3.24,3.24,0,0,0,1.82.44,3.2,3.2,0,0,0,1.82-.44,1.42,1.42,0,0,0,0-2.39,3.94,3.94,0,0,0-3.62,0A1.35,1.35,0,0,0,445.48,635.13Z" fill="#003a50"/><path d="M262.74,634.41l-2.48,2v-2.24l2.73-2.27h1.86v11.91h-2.11Z" fill="#003a50"/><path d="M277.24,643.76h-9.93V642.2a2.74,2.74,0,0,1,.58-1.74,4,4,0,0,1,1.45-1.2c.49-.25,1.12-.54,1.86-.86s1.33-.56,1.88-.77a4.23,4.23,0,0,0,1.45-.92,1.78,1.78,0,0,0,.57-1.3q0-1.89-2.67-1.89t-2.67,2.16v.41h-2.11v-.41a3.62,3.62,0,0,1,1.26-3,5.38,5.38,0,0,1,3.51-1,5.66,5.66,0,0,1,3.52,1,3.31,3.31,0,0,1,1.27,2.75,3.12,3.12,0,0,1-.56,1.83,4.18,4.18,0,0,1-1.4,1.31c-.6.34-1.21.65-1.84.93s-1.23.53-1.82.75a5.46,5.46,0,0,0-1.41.74,1.26,1.26,0,0,0-.56,1h7.62Z" fill="#003a50"/><path d="M279.34,643.63a1,1,0,0,1-.32-.8,1.07,1.07,0,0,1,.32-.81,1.41,1.41,0,0,1,1.74,0,1.07,1.07,0,0,1,.32.81,1,1,0,0,1-.32.8,1.41,1.41,0,0,1-1.74,0Z" fill="#003a50"/><path d="M291.68,643.76h-2.11v-2.65h-7v-1.84l6.29-7.42h2.8v7.42h1.59v1.84h-1.59Zm-2.11-4.49V634h-.07L285,639.22v0Z" fill="#003a50"/><path d="M328.39,369h-5.82v-1.85h8.86V369l-4.52,2.65v.06h1.28a3.9,3.9,0,0,1,2.79,1,3.52,3.52,0,0,1,1,2.67,3.32,3.32,0,0,1-1.33,2.82,6.93,6.93,0,0,1-7.24,0,3.35,3.35,0,0,1-1.33-2.85V375h2.11v.33c0,1.36.95,2,2.84,2s2.84-.67,2.84-2-.95-2-2.84-2h-3.26v-1.67l4.57-2.68Z" fill="#003a50"/><path d="M340.33,369h-5.82v-1.85h8.86V369l-4.53,2.65v.06h1.28a3.9,3.9,0,0,1,2.79,1,3.52,3.52,0,0,1,1,2.67,3.34,3.34,0,0,1-1.32,2.82,7,7,0,0,1-7.25,0,3.37,3.37,0,0,1-1.32-2.85V375h2.1v.33c0,1.36.95,2,2.84,2s2.85-.67,2.85-2-.95-2-2.85-2h-3.26v-1.67l4.58-2.68Z" fill="#003a50"/><path d="M346.07,378.92a1,1,0,0,1-.33-.81,1,1,0,0,1,.33-.8,1.4,1.4,0,0,1,1.73,0,1,1,0,0,1,.32.8,1,1,0,0,1-.32.81,1.4,1.4,0,0,1-1.73,0Z" fill="#003a50"/><path d="M358.65,378.29a7.73,7.73,0,0,1-7.37,0,3,3,0,0,1-1.37-2.56,2.7,2.7,0,0,1,.26-1.16,2.41,2.41,0,0,1,.65-.86,4.14,4.14,0,0,1,1.4-.77l.26-.07v-.09a3.11,3.11,0,0,1-.77-.29,2.61,2.61,0,0,1-.66-.44,2.2,2.2,0,0,1-.54-.75,2.41,2.41,0,0,1-.22-1,2.81,2.81,0,0,1,1.25-2.39,7,7,0,0,1,6.85,0,2.84,2.84,0,0,1,1.25,2.39,2.62,2.62,0,0,1-.22,1,2,2,0,0,1-.56.74,3.42,3.42,0,0,1-1.19.68l-.23,0v.09l.29.07a6.35,6.35,0,0,1,.62.27,3.79,3.79,0,0,1,.77.5,2.89,2.89,0,0,1,.62.83,2.63,2.63,0,0,1,.27,1.19A3,3,0,0,1,358.65,378.29Zm-5.79-1.36a4.88,4.88,0,0,0,4.2,0,1.59,1.59,0,0,0,0-2.69,4.93,4.93,0,0,0-4.2,0,1.58,1.58,0,0,0,0,2.68Zm-.37-6.52a1.38,1.38,0,0,0,.65,1.2,4.07,4.07,0,0,0,3.64,0,1.43,1.43,0,0,0,0-2.4,4,4,0,0,0-3.62,0A1.38,1.38,0,0,0,352.49,370.41Z" fill="#003a50"/><path d="M217.28,294h-5.82v-1.84h8.86V294l-4.53,2.65v.07h1.28a3.9,3.9,0,0,1,2.79,1,3.5,3.5,0,0,1,1.06,2.67,3.35,3.35,0,0,1-1.33,2.82,7,7,0,0,1-7.24,0,3.36,3.36,0,0,1-1.33-2.86v-.32h2.11v.32c0,1.37.94,2,2.84,2s2.84-.67,2.84-2-.95-2-2.84-2H212.7v-1.67l4.58-2.68Z" fill="#003a50"/><path d="M223,304a1,1,0,0,1-.33-.8,1,1,0,0,1,.33-.81,1.23,1.23,0,0,1,.87-.3,1.2,1.2,0,0,1,.86.3,1,1,0,0,1,.33.81,1,1,0,0,1-.33.8,1.2,1.2,0,0,1-.86.3A1.23,1.23,0,0,1,223,304Z" fill="#003a50"/><path d="M232.3,296.12a5,5,0,0,1,3.34,1.06,4.16,4.16,0,0,1,0,6,5.39,5.39,0,0,1-3.55,1.08,5.79,5.79,0,0,1-3.56-1,3.15,3.15,0,0,1-1.29-2.68h2.11a1.53,1.53,0,0,0,.71,1.33,3.48,3.48,0,0,0,2,.49,3.07,3.07,0,0,0,2-.58,2.33,2.33,0,0,0,0-3.38,3.25,3.25,0,0,0-2.07-.58,3.61,3.61,0,0,0-1.92.41,2,2,0,0,0-.7.64l-.05.12H227.2v-6.87h8.88V294h-6.77v3h.05a2.22,2.22,0,0,1,.4-.31,3.94,3.94,0,0,1,.55-.26A5.63,5.63,0,0,1,232.3,296.12Z" fill="#003a50"/><path d="M106.28,379.05h-2.35l5.42-10h-6.93v-1.88h9.28V369Z" fill="#003a50"/><path d="M113.13,378.92a1,1,0,0,1-.32-.81,1.06,1.06,0,0,1,.32-.8,1.41,1.41,0,0,1,1.74,0,1.06,1.06,0,0,1,.32.8,1,1,0,0,1-.32.81,1.41,1.41,0,0,1-1.74,0Z" fill="#003a50"/><path d="M118.54,377.52a7.34,7.34,0,0,1,0-8.84,5.71,5.71,0,0,1,8.13,0,7.34,7.34,0,0,1,0,8.84,5.71,5.71,0,0,1-8.13,0Zm6.53-1.39a5.73,5.73,0,0,0,0-6.07,3.15,3.15,0,0,0-4.92,0,5.67,5.67,0,0,0,0,6.07,2.88,2.88,0,0,0,2.46,1.19A2.93,2.93,0,0,0,125.07,376.13Z" fill="#003a50"/><path d="M104.74,294.75l-2.49,1.95v-2.24l2.74-2.27h1.86V304.1h-2.11Z" fill="#003a50"/><path d="M109.37,304a1,1,0,0,1-.32-.8,1.07,1.07,0,0,1,.32-.81,1.41,1.41,0,0,1,1.74,0,1.07,1.07,0,0,1,.32.81,1,1,0,0,1-.32.8,1.41,1.41,0,0,1-1.74,0Z" fill="#003a50"/><path d="M113.51,300.75h2.21s0,.07,0,.18a2.07,2.07,0,0,0,.23.43,2.37,2.37,0,0,0,.41.49,2.2,2.2,0,0,0,.75.41,3.21,3.21,0,0,0,1,.17,2.67,2.67,0,0,0,2.24-1.07,4.29,4.29,0,0,0,.81-2.7h-.06a2,2,0,0,1-.44.46,2.42,2.42,0,0,1-.6.4,3.71,3.71,0,0,1-1,.33A6.16,6.16,0,0,1,118,300a5,5,0,0,1-3.37-1.13A3.6,3.6,0,0,1,113.3,296a3.56,3.56,0,0,1,1.36-2.9,5.52,5.52,0,0,1,3.61-1.11,4.81,4.81,0,0,1,3.87,1.55,6.36,6.36,0,0,1,1.32,4.27v.4a6.7,6.7,0,0,1-1.37,4.31,4.71,4.71,0,0,1-3.89,1.71,6,6,0,0,1-2.17-.37,3.86,3.86,0,0,1-1.48-.95A3.35,3.35,0,0,1,113.51,300.75Zm2.77-3.16a3.6,3.6,0,0,0,4,0,2,2,0,0,0,0-3.15,3.21,3.21,0,0,0-2-.58,3.17,3.17,0,0,0-2,.58,2,2,0,0,0,0,3.15Z" fill="#003a50"/><path d="M115.79,142.59h-2.35l5.41-10h-6.92v-1.88h9.28v1.88Z" fill="#003a50"/><path d="M122.64,142.46a1.17,1.17,0,0,1,0-1.61,1.41,1.41,0,0,1,1.74,0,1.17,1.17,0,0,1,0,1.61,1.41,1.41,0,0,1-1.74,0Z" fill="#003a50"/><path d="M126.78,139.24H129s0,.07.05.18a2.51,2.51,0,0,0,.22.43,2.79,2.79,0,0,0,.42.49,2.2,2.2,0,0,0,.75.41,3.21,3.21,0,0,0,1.05.17,2.66,2.66,0,0,0,2.24-1.06,4.34,4.34,0,0,0,.81-2.71h-.06a2,2,0,0,1-.44.46,2.33,2.33,0,0,1-.6.4,3.86,3.86,0,0,1-.95.33,5.58,5.58,0,0,1-1.23.13,5,5,0,0,1-3.36-1.13,3.73,3.73,0,0,1,.05-5.72,5.49,5.49,0,0,1,3.6-1.11,4.81,4.81,0,0,1,3.87,1.55,6.38,6.38,0,0,1,1.33,4.27v.4a6.63,6.63,0,0,1-1.38,4.31,4.68,4.68,0,0,1-3.88,1.72,6,6,0,0,1-2.17-.38,3.75,3.75,0,0,1-1.48-.95A3.27,3.27,0,0,1,126.78,139.24Zm2.77-3.16a3.58,3.58,0,0,0,3.94,0,2,2,0,0,0,0-3.15,3.21,3.21,0,0,0-2-.58,3.17,3.17,0,0,0-2,.58,2,2,0,0,0,0,3.15Z" fill="#003a50"/><path d="M335.84,133.24l-2.48,1.95V133l2.73-2.27H338v11.91h-2.11Z" fill="#003a50"/><path d="M345.85,134.61a5,5,0,0,1,3.34,1.06,4.19,4.19,0,0,1,0,6,5.41,5.41,0,0,1-3.55,1.08,5.75,5.75,0,0,1-3.56-1,3.15,3.15,0,0,1-1.29-2.68h2.11a1.51,1.51,0,0,0,.7,1.33,3.53,3.53,0,0,0,2,.49,3.15,3.15,0,0,0,2-.57,2.06,2.06,0,0,0,.7-1.69,2,2,0,0,0-.73-1.7,3.26,3.26,0,0,0-2.08-.58,3.64,3.64,0,0,0-1.91.41,1.92,1.92,0,0,0-.7.64l-.05.13h-2.11v-6.88h8.88v1.84h-6.77v3h.05a2.32,2.32,0,0,1,.4-.31,3.47,3.47,0,0,1,.55-.26A5.6,5.6,0,0,1,345.85,134.61Z" fill="#003a50"/><path d="M352.55,142.46a1.17,1.17,0,0,1,0-1.61,1.41,1.41,0,0,1,1.74,0,1.17,1.17,0,0,1,0,1.61,1.41,1.41,0,0,1-1.74,0Z" fill="#003a50"/><path d="M365.13,141.83a7.71,7.71,0,0,1-7.36,0,2.94,2.94,0,0,1-1.37-2.56,2.66,2.66,0,0,1,.25-1.16,2.32,2.32,0,0,1,.66-.86,4.11,4.11,0,0,1,1.39-.77l.26-.07v-.09a3.32,3.32,0,0,1-.76-.29,2.88,2.88,0,0,1-.67-.44,2.15,2.15,0,0,1-.54-.76,2.38,2.38,0,0,1-.22-1,2.81,2.81,0,0,1,1.25-2.38,5.74,5.74,0,0,1,3.42-.9,5.85,5.85,0,0,1,3.44.9,2.82,2.82,0,0,1,1.24,2.38,2.47,2.47,0,0,1-.22,1.05,2,2,0,0,1-.55.74,3.72,3.72,0,0,1-1.2.68l-.22.05v.09l.28.07a4.41,4.41,0,0,1,1.4.77,2.82,2.82,0,0,1,.61.82,2.71,2.71,0,0,1,.27,1.2A3,3,0,0,1,365.13,141.83Zm-5.79-1.36a3.84,3.84,0,0,0,2.1.48,3.91,3.91,0,0,0,2.11-.47,1.52,1.52,0,0,0,.74-1.35,1.5,1.5,0,0,0-.74-1.34,4.95,4.95,0,0,0-4.21,0,1.58,1.58,0,0,0,0,2.68ZM359,134a1.35,1.35,0,0,0,.64,1.19,4,4,0,0,0,3.65,0,1.42,1.42,0,0,0,0-2.39,4,4,0,0,0-3.62,0A1.38,1.38,0,0,0,359,134Z" fill="#003a50"/><path d="M8.32,493.69H-1.62v-1.57A2.77,2.77,0,0,1-1,490.38a4,4,0,0,1,1.44-1.2c.5-.25,1.12-.54,1.87-.86s1.32-.55,1.88-.77a4.22,4.22,0,0,0,1.44-.91,1.82,1.82,0,0,0,.57-1.31c0-1.26-.88-1.88-2.66-1.88s-2.68.72-2.68,2.16v.4h-2.1v-.4a3.62,3.62,0,0,1,1.26-3,5.34,5.34,0,0,1,3.51-1,5.61,5.61,0,0,1,3.51,1,3.29,3.29,0,0,1,1.27,2.75,3.17,3.17,0,0,1-.55,1.84,4.39,4.39,0,0,1-1.41,1.3c-.59.34-1.21.65-1.83.93s-1.24.53-1.83.75a5.26,5.26,0,0,0-1.4.75,1.22,1.22,0,0,0-.57,1H8.32Z" fill="#003a50"/><path d="M10.42,493.55a1,1,0,0,1-.33-.8,1,1,0,0,1,.33-.81,1.21,1.21,0,0,1,.87-.3,1.2,1.2,0,0,1,.86.3,1,1,0,0,1,.33.81,1,1,0,0,1-.33.8,1.2,1.2,0,0,1-.86.3A1.21,1.21,0,0,1,10.42,493.55Z" fill="#003a50"/><path d="M15.82,492.15a7.38,7.38,0,0,1,0-8.84,5.14,5.14,0,0,1,4.07-1.7,5.09,5.09,0,0,1,4.06,1.7,7.34,7.34,0,0,1,0,8.84,5.09,5.09,0,0,1-4.06,1.7A5.14,5.14,0,0,1,15.82,492.15Zm6.53-1.39a5,5,0,0,0,.87-3,5,5,0,0,0-.87-3,2.89,2.89,0,0,0-2.46-1.18,2.89,2.89,0,0,0-2.45,1.18,4.94,4.94,0,0,0-.88,3,4.89,4.89,0,0,0,.88,3A2.87,2.87,0,0,0,19.89,492,2.9,2.9,0,0,0,22.35,490.76Z" fill="#003a50"/><path d="M-1.3,642.93a6.45,6.45,0,0,1-3.68.93,6.43,6.43,0,0,1-3.69-.94A2.94,2.94,0,0,1-10,640.37a2.71,2.71,0,0,1,.26-1.17,2.37,2.37,0,0,1,.65-.85,3.89,3.89,0,0,1,1.4-.77l.26-.07v-.09a3.38,3.38,0,0,1-.77-.29,2.91,2.91,0,0,1-.66-.44,2.35,2.35,0,0,1-.54-.76,2.39,2.39,0,0,1-.23-1,2.8,2.8,0,0,1,1.26-2.38,5.74,5.74,0,0,1,3.42-.9,5.81,5.81,0,0,1,3.43.9A2.82,2.82,0,0,1-.32,634.9a2.43,2.43,0,0,1-.22,1,1.83,1.83,0,0,1-.55.75,3.59,3.59,0,0,1-1.19.68l-.23,0v.09a1.54,1.54,0,0,1,.28.07,4,4,0,0,1,.63.26,4.12,4.12,0,0,1,.77.51,2.53,2.53,0,0,1,.61.82,2.53,2.53,0,0,1,.28,1.2A3,3,0,0,1-1.3,642.93Zm-5.79-1.35a3.82,3.82,0,0,0,2.1.48,3.94,3.94,0,0,0,2.1-.47,1.53,1.53,0,0,0,.74-1.35,1.51,1.51,0,0,0-.74-1.35,3.94,3.94,0,0,0-2.1-.47,3.94,3.94,0,0,0-2.1.47,1.51,1.51,0,0,0-.74,1.35A1.51,1.51,0,0,0-7.09,641.58Zm-.37-6.52a1.37,1.37,0,0,0,.65,1.19,3.2,3.2,0,0,0,1.82.44,3.24,3.24,0,0,0,1.82-.44,1.37,1.37,0,0,0,.65-1.19,1.36,1.36,0,0,0-.66-1.2A3.25,3.25,0,0,0-5,633.42a3.25,3.25,0,0,0-1.81.44A1.36,1.36,0,0,0-7.46,635.06Z" fill="#003a50"/><path d="M2.17,643.56a1,1,0,0,1-.33-.8,1,1,0,0,1,.33-.81,1.21,1.21,0,0,1,.87-.3,1.2,1.2,0,0,1,.86.3,1,1,0,0,1,.33.81,1,1,0,0,1-.33.8,1.2,1.2,0,0,1-.86.3A1.21,1.21,0,0,1,2.17,643.56Z" fill="#003a50"/><path d="M15.79,635.14H13.58s0-.06,0-.17a3.24,3.24,0,0,0-.21-.44,2.4,2.4,0,0,0-.39-.5,1.85,1.85,0,0,0-.71-.41,3,3,0,0,0-1-.16,2.49,2.49,0,0,0-2.15,1,4.39,4.39,0,0,0-.77,2.68h.06a1.8,1.8,0,0,1,.44-.43,3.55,3.55,0,0,1,.61-.37,3.81,3.81,0,0,1,.95-.3,5.49,5.49,0,0,1,1.22-.13A5.05,5.05,0,0,1,15,637.05a3.51,3.51,0,0,1,1.3,2.8,3.57,3.57,0,0,1-1.36,2.91,5.55,5.55,0,0,1-3.6,1.1,4.81,4.81,0,0,1-3.87-1.54,6.38,6.38,0,0,1-1.32-4.27v-.41a6.85,6.85,0,0,1,1.32-4.31,4.5,4.5,0,0,1,3.8-1.71,5.87,5.87,0,0,1,2.13.37,4,4,0,0,1,1.43.94A3.46,3.46,0,0,1,15.79,635.14Zm-2.51,3.15a3.21,3.21,0,0,0-2-.58,3.2,3.2,0,0,0-2,.58,2,2,0,0,0,0,3.15,3.21,3.21,0,0,0,2,.59,3.26,3.26,0,0,0,2-.59,2,2,0,0,0,0-3.15Z" fill="#003a50"/><path d="M253.38,134.54a5,5,0,0,1,3.34,1.06,3.69,3.69,0,0,1,1.26,3,3.73,3.73,0,0,1-1.3,3,5.39,5.39,0,0,1-3.55,1.08,5.86,5.86,0,0,1-3.56-1,3.18,3.18,0,0,1-1.29-2.69h2.11a1.57,1.57,0,0,0,.7,1.34,3.62,3.62,0,0,0,2,.48,3.13,3.13,0,0,0,2-.57,2.34,2.34,0,0,0,0-3.39,3.25,3.25,0,0,0-2.07-.58,3.7,3.7,0,0,0-1.92.41,2.12,2.12,0,0,0-.7.64l-.05.13h-2.11v-6.88h8.88v1.85h-6.77v2.95h.05a2.19,2.19,0,0,1,.4-.3,3.11,3.11,0,0,1,.55-.27A5.6,5.6,0,0,1,253.38,134.54Z" fill="#003a50"/><path d="M260.08,142.39a1,1,0,0,1-.32-.81,1.06,1.06,0,0,1,.32-.8,1.25,1.25,0,0,1,.88-.3,1.22,1.22,0,0,1,.86.3,1,1,0,0,1,.32.8,1,1,0,0,1-.32.81,1.22,1.22,0,0,1-.86.3A1.25,1.25,0,0,1,260.08,142.39Z" fill="#003a50"/><path d="M272.67,141.76a7.73,7.73,0,0,1-7.37,0,3,3,0,0,1-1.37-2.56,2.7,2.7,0,0,1,.26-1.16,2.41,2.41,0,0,1,.65-.86,4.05,4.05,0,0,1,1.4-.77l.26-.07v-.09a3,3,0,0,1-.77-.29,2.61,2.61,0,0,1-.66-.44,2.2,2.2,0,0,1-.54-.75,2.42,2.42,0,0,1-.23-1,2.82,2.82,0,0,1,1.26-2.39,5.81,5.81,0,0,1,3.42-.89,5.89,5.89,0,0,1,3.43.89,2.83,2.83,0,0,1,1.24,2.39,2.43,2.43,0,0,1-.22,1,1.87,1.87,0,0,1-.55.74,3.42,3.42,0,0,1-1.19.68l-.23.05v.09l.28.07a6.14,6.14,0,0,1,.63.27,4.09,4.09,0,0,1,.77.5,2.88,2.88,0,0,1,.61.83,2.52,2.52,0,0,1,.28,1.19A3,3,0,0,1,272.67,141.76Zm-5.79-1.36a3.79,3.79,0,0,0,2.1.49,3.84,3.84,0,0,0,2.1-.48,1.59,1.59,0,0,0,0-2.69,4.93,4.93,0,0,0-4.2,0,1.58,1.58,0,0,0,0,2.68Zm-.37-6.52a1.38,1.38,0,0,0,.65,1.2,3.2,3.2,0,0,0,1.82.43,3.24,3.24,0,0,0,1.82-.43,1.44,1.44,0,0,0,0-2.4,4,4,0,0,0-3.62,0A1.38,1.38,0,0,0,266.51,133.88Z" fill="#003a50"/></g></svg>