<svg id="Слой_1" data-name="Слой 1" xmlns="http://www.w3.org/2000/svg" xmlns:xlink="http://www.w3.org/1999/xlink" viewBox="0 0 583.94 632.13"><defs><clipPath id="clip-path"><polygon points="0.14 0 0.14 632.13 405.41 632.13 405.41 231.19 531.97 231.19 531.97 180.57 583.94 180.57 583.94 0 0.14 0" fill="none"/></clipPath></defs><polygon points="19.75 0 19.75 0.42 521.05 3.16 520.66 0 19.75 0" fill="#fff"/><polygon points="508.89 11.68 508.89 11.98 18.8 11.98 18.8 203 18.8 231.21 18.8 615.33 395.51 615.33 395.51 219.61 516.22 219.61 515.74 178.43 515.74 129.09 529.06 112.92 529.06 11.68 508.89 11.68" fill="#fff"/><polygon points="390.7 615.33 405.41 615.33 405.41 231.19 531.97 231.19 531.97 229.11 395.51 223.11 390.7 615.33" fill="#fff"/><g clip-path="url(#clip-path)"><rect x="6.21" y="-1610.86" width="1162.95" height="2240.57" fill="none" stroke="#003a50" stroke-miterlimit="10"/><polygon points="18.8 -506.69 18.8 616.86 1156.19 616.86 1156.19 -1597.92 18.8 -1598.07 18.8 -577.4 18.8 -506.69" fill="none" stroke="#003a50" stroke-miterlimit="10"/></g><rect x="39.42" y="47.79" width="4.55" height="90.31" fill="#fff"/><rect x="39.41" y="47.79" width="4.55" height="90.31" fill="none" stroke="#003a50" stroke-miterlimit="10" stroke-width="1.02"/><line x1="41.69" y1="47.79" x2="41.69" y2="138.1" fill="none" stroke="#003a50" stroke-miterlimit="10" stroke-width="1.02"/><rect x="39.42" y="47.79" width="4.55" height="4.68" fill="#fff"/><rect x="39.41" y="47.79" width="4.55" height="4.68" fill="none" stroke="#003a50" stroke-miterlimit="10" stroke-width="1.02"/><rect x="39.42" y="133.42" width="4.55" height="4.68" fill="#fff"/><rect x="39.41" y="133.42" width="4.55" height="4.68" fill="none" stroke="#003a50" stroke-miterlimit="10" stroke-width="1.02"/><rect x="39.42" y="91.71" width="4.55" height="4.68" fill="#fff"/><rect x="39.41" y="91.71" width="4.55" height="4.68" fill="none" stroke="#003a50" stroke-miterlimit="10" stroke-width="1.02"/><g clip-path="url(#clip-path)"><path d="M44,96.39h2.9C67,96.39,80,113,80,133.42H44" fill="none" stroke="#003a50" stroke-miterlimit="10" stroke-width="1.02"/></g><rect x="39.42" y="230.23" width="4.55" height="88.25" fill="#fff"/><rect x="39.41" y="230.23" width="4.55" height="88.25" fill="none" stroke="#003a50" stroke-miterlimit="10" stroke-width="0.99"/><line x1="41.69" y1="230.23" x2="41.69" y2="318.48" fill="none" stroke="#003a50" stroke-miterlimit="10" stroke-width="0.99"/><rect x="39.42" y="230.23" width="4.55" height="4.45" fill="#fff"/><rect x="39.41" y="230.23" width="4.55" height="4.45" fill="none" stroke="#003a50" stroke-miterlimit="10" stroke-width="0.99"/><rect x="39.42" y="314.03" width="4.55" height="4.46" fill="#fff"/><rect x="39.41" y="314.03" width="4.55" height="4.46" fill="none" stroke="#003a50" stroke-miterlimit="10" stroke-width="0.99"/><rect x="39.42" y="274.33" width="4.55" height="4.46" fill="#fff"/><rect x="39.41" y="274.33" width="4.55" height="4.46" fill="none" stroke="#003a50" stroke-miterlimit="10" stroke-width="0.99"/><g clip-path="url(#clip-path)"><path d="M44,278.79h2.9C67,278.79,80,294.56,80,314H44" fill="none" stroke="#003a50" stroke-miterlimit="10" stroke-width="0.99"/></g><rect x="39.42" y="413.83" width="4.55" height="87.69" fill="#fff"/><rect x="39.41" y="413.83" width="4.55" height="87.69" fill="none" stroke="#003a50" stroke-miterlimit="10" stroke-width="0.99"/><line x1="41.69" y1="501.51" x2="41.69" y2="413.82" fill="none" stroke="#003a50" stroke-miterlimit="10" stroke-width="0.99"/><rect x="39.42" y="497.09" width="4.55" height="4.42" fill="#fff"/><rect x="39.41" y="497.09" width="4.55" height="4.42" fill="none" stroke="#003a50" stroke-miterlimit="10" stroke-width="0.99"/><rect x="39.42" y="413.83" width="4.55" height="4.42" fill="#fff"/><rect x="39.41" y="413.83" width="4.55" height="4.42" fill="none" stroke="#003a50" stroke-miterlimit="10" stroke-width="0.99"/><rect x="39.42" y="453.26" width="4.55" height="4.43" fill="#fff"/><rect x="39.41" y="453.26" width="4.55" height="4.43" fill="none" stroke="#003a50" stroke-miterlimit="10" stroke-width="0.99"/><g clip-path="url(#clip-path)"><path d="M44,453.26h2.9c20.14,0,33.1-15.67,33.1-35H44" fill="none" stroke="#003a50" stroke-miterlimit="10" stroke-width="0.99"/></g><rect x="61.69" y="591.31" width="141.78" height="4.56" fill="#fff"/><rect x="61.69" y="591.31" width="141.78" height="4.56" fill="none" stroke="#003a50" stroke-miterlimit="10"/><line x1="203.48" y1="593.58" x2="61.69" y2="593.58" fill="none" stroke="#003a50" stroke-miterlimit="10"/><rect x="166.7" y="591.31" width="4.55" height="4.56" fill="#fff"/><rect x="166.7" y="591.31" width="4.55" height="4.56" fill="none" stroke="#003a50" stroke-miterlimit="10"/><rect x="134.47" y="591.31" width="4.55" height="4.56" fill="#fff"/><rect x="134.47" y="591.31" width="4.55" height="4.56" fill="none" stroke="#003a50" stroke-miterlimit="10"/><rect x="198.93" y="591.31" width="4.55" height="4.56" fill="#fff"/><rect x="198.93" y="591.31" width="4.55" height="4.56" fill="none" stroke="#003a50" stroke-miterlimit="10"/><rect x="61.69" y="591.31" width="4.55" height="4.56" fill="#fff"/><rect x="61.69" y="591.31" width="4.55" height="4.56" fill="none" stroke="#003a50" stroke-miterlimit="10"/><rect x="102.25" y="591.31" width="4.55" height="4.56" fill="#fff"/><rect x="102.25" y="591.31" width="4.55" height="4.56" fill="none" stroke="#003a50" stroke-miterlimit="10"/><g clip-path="url(#clip-path)"><path d="M102.25,591.31v-2.9c0-20.15-16.12-33.1-36-33.1v36" fill="none" stroke="#003a50" stroke-miterlimit="10"/></g><rect x="299.93" y="591.31" width="87.81" height="4.56" fill="#fff"/><rect x="299.93" y="591.31" width="87.81" height="4.56" fill="none" stroke="#003a50" stroke-miterlimit="10"/><line x1="387.74" y1="593.58" x2="299.93" y2="593.58" fill="none" stroke="#003a50" stroke-miterlimit="10"/><rect x="383.19" y="591.31" width="4.55" height="4.56" fill="#fff"/><rect x="383.19" y="591.31" width="4.55" height="4.56" fill="none" stroke="#003a50" stroke-miterlimit="10"/><rect x="299.93" y="591.31" width="4.55" height="4.56" fill="#fff"/><rect x="299.93" y="591.31" width="4.55" height="4.56" fill="none" stroke="#003a50" stroke-miterlimit="10"/><rect x="340.49" y="591.31" width="4.55" height="4.56" fill="#fff"/><rect x="340.49" y="591.31" width="4.55" height="4.56" fill="none" stroke="#003a50" stroke-miterlimit="10"/><g clip-path="url(#clip-path)"><path d="M340.49,591.31v-2.9c0-20.15-16.12-33.1-36-33.1v36" fill="none" stroke="#003a50" stroke-miterlimit="10"/><path d="M467.27,591.31v-2.9c0-20.15,16.36-33.1,36.55-33.1v36" fill="none" stroke="#003a50" stroke-miterlimit="10" stroke-width="1.01"/><rect x="404.07" y="256.36" width="42.38" height="92.09" fill="none" stroke="#003a50" stroke-miterlimit="10"/><rect x="409.05" y="260.16" width="32.03" height="84.24" rx="13.7" fill="none" stroke="#003a50" stroke-miterlimit="10"/><path d="M427.35,274.74a2.21,2.21,0,1,0-2.2,2.2A2.2,2.2,0,0,0,427.35,274.74Z" fill="none" stroke="#003a50" stroke-miterlimit="10"/></g><rect x="347.34" y="256.36" width="42.38" height="92.09" fill="none" stroke="#003a50" stroke-miterlimit="10"/><g clip-path="url(#clip-path)"><rect x="352.32" y="260.16" width="32.03" height="84.24" rx="13.7" fill="none" stroke="#003a50" stroke-miterlimit="10"/><path d="M370.62,274.74a2.2,2.2,0,1,0-2.2,2.2A2.19,2.19,0,0,0,370.62,274.74Z" fill="none" stroke="#003a50" stroke-miterlimit="10"/><path d="M489.09,284.44V255.87H466v28.57a11.54,11.54,0,1,0,23.07,0Z" fill="none" stroke="#003a50" stroke-miterlimit="10"/><path d="M333.56,284.44V255.87H310.48v28.57a11.54,11.54,0,0,0,23.08,0Z" fill="none" stroke="#003a50" stroke-miterlimit="10"/></g><rect x="310.48" y="255.87" width="23.08" height="11.08" fill="none" stroke="#003a50" stroke-miterlimit="10"/><g clip-path="url(#clip-path)"><path d="M532.64,241.14a3.4,3.4,0,0,0,3.13-2.1h1.93l5.09,3.05-2.31,3.76-2.66-1.45v11.82H526.73V244.4l-2.66,1.45-2.31-3.76L526.9,239h2.57A3.45,3.45,0,0,0,532.64,241.14Z" fill="none" stroke="#003a50" stroke-miterlimit="10"/><rect x="515.27" y="231.24" width="34.02" height="32.78" fill="none" stroke="#003a50" stroke-miterlimit="10"/><path d="M421.43,89.81a3.16,3.16,0,0,0,2.91-2h1.79l4.73,2.83-2.15,3.49-2.46-1.35v11H416v-11l-2.47,1.35-2.15-3.49,4.78-2.83h2.38A3.21,3.21,0,0,0,421.43,89.81Z" fill="none" stroke="#003a50" stroke-miterlimit="10"/></g><rect x="405.31" y="80.62" width="31.57" height="30.42" fill="none" stroke="#003a50" stroke-miterlimit="10"/><rect x="366.09" y="82.67" width="32.72" height="33.97" fill="none" stroke="#003a50" stroke-miterlimit="10"/><g clip-path="url(#clip-path)"><path d="M386.76,98.13v-11h-8.6v11a3.54,3.54,0,0,0,3.54,3.55h1.52A3.55,3.55,0,0,0,386.76,98.13Z" fill="none" stroke="#003a50" stroke-miterlimit="10"/></g><polyline points="378.98 112.23 382.46 112.23 385.93 112.23" fill="none" stroke="#003a50" stroke-miterlimit="10"/><line x1="382.46" y1="101.67" x2="382.46" y2="112.23" fill="none" stroke="#003a50" stroke-miterlimit="10"/><rect x="321.15" y="13.65" width="34.02" height="34.02" fill="none" stroke="#003a50" stroke-miterlimit="10"/><g clip-path="url(#clip-path)"><path d="M350.57,38.26a4.64,4.64,0,1,1-4.64-4.63A4.64,4.64,0,0,1,350.57,38.26Z" fill="none" stroke="#003a50" stroke-miterlimit="10"/><path d="M335.08,38.26a4.64,4.64,0,1,1-4.63-4.63A4.63,4.63,0,0,1,335.08,38.26Z" fill="none" stroke="#003a50" stroke-miterlimit="10"/><path d="M350.57,23.17a4.64,4.64,0,1,1-4.64-4.63A4.64,4.64,0,0,1,350.57,23.17Z" fill="none" stroke="#003a50" stroke-miterlimit="10"/><path d="M335.08,23.17a4.64,4.64,0,1,1-4.63-4.63A4.63,4.63,0,0,1,335.08,23.17Z" fill="none" stroke="#003a50" stroke-miterlimit="10"/></g><rect x="53.95" y="185.29" width="102.05" height="17.01" fill="none" stroke="#003a50" stroke-miterlimit="10"/><polygon points="61.98 193.26 104.87 196.79 147.98 193.26 147.98 190.8 61.98 190.8 61.98 193.26" fill="none" stroke="#003a50" stroke-miterlimit="10"/><rect x="307.31" y="14.07" width="58.79" height="33.59" fill="none" stroke="#003a50" stroke-miterlimit="10"/><rect x="366.09" y="14.07" width="32.72" height="102.57" fill="none" stroke="#003a50" stroke-miterlimit="10"/><rect x="336.91" y="444.76" width="52.33" height="113.67" fill="none" stroke="#003a50" stroke-miterlimit="10"/><g clip-path="url(#clip-path)"><path d="M380.3,454.46H346.25a2.11,2.11,0,0,0-2.1,2.11v67.62H382.4V456.57A2.11,2.11,0,0,0,380.3,454.46Z" fill="none" stroke="#003a50" stroke-miterlimit="10"/></g><rect x="344.15" y="510.34" width="38.26" height="13.85" fill="none" stroke="#003a50" stroke-miterlimit="10"/><g clip-path="url(#clip-path)"><rect x="344.09" y="527.8" width="38.71" height="22.88" rx="2.2" fill="none" stroke="#003a50" stroke-miterlimit="10"/><path d="M205.35,57.09a1.26,1.26,0,0,1-1.21,1.31A13.79,13.79,0,1,0,205.22,86a1.26,1.26,0,1,1,.09,2.51A16.3,16.3,0,0,1,204,55.88,1.27,1.27,0,0,1,205.35,57.09Z" fill="none" stroke="#003a50" stroke-miterlimit="10"/><path d="M212.3,94.65a1.25,1.25,0,0,1,.87,1.55,13.78,13.78,0,0,0,26.53,7.5,1.26,1.26,0,1,1,2.42.68,16.3,16.3,0,1,1-31.37-8.86A1.25,1.25,0,0,1,212.3,94.65Z" fill="none" stroke="#003a50" stroke-miterlimit="10"/><path d="M250.07,99a1.27,1.27,0,0,1,1.75-.35,13.78,13.78,0,1,0,15.32-22.91,1.26,1.26,0,0,1,1.4-2.1,16.3,16.3,0,1,1-18.12,27.1A1.25,1.25,0,0,1,250.07,99Z" fill="none" stroke="#003a50" stroke-miterlimit="10"/><path d="M267.25,64.44a1.27,1.27,0,0,1,.21-1.77A13.78,13.78,0,1,0,250.4,41a1.26,1.26,0,0,1-1.56-2A16.3,16.3,0,1,1,269,64.65,1.26,1.26,0,0,1,267.25,64.44Z" fill="none" stroke="#003a50" stroke-miterlimit="10"/><path d="M238.43,40.39a1.27,1.27,0,0,1-.86-1.56,13.78,13.78,0,1,0-26.45-7.75,1.26,1.26,0,0,1-2.42-.71A16.3,16.3,0,0,1,240,39.53,1.26,1.26,0,0,1,238.43,40.39Z" fill="none" stroke="#003a50" stroke-miterlimit="10"/><path d="M215.19,84.41l-9.36.36a12.65,12.65,0,1,1-1-25.28l9-.32a23.7,23.7,0,0,0,1.28,25.24Z" fill="none" stroke="#003a50" stroke-miterlimit="10"/><path d="M241.35,93.65l-2.56,9.08a12.65,12.65,0,1,1-24.36-6.84l2.6-9.2a23.6,23.6,0,0,0,24.32,7Z" fill="none" stroke="#003a50" stroke-miterlimit="10"/><path d="M269.43,93.85a12.67,12.67,0,0,1-17.52,3.52l-7.28-4.88a23.88,23.88,0,0,0,13.12-15.24,24.8,24.8,0,0,0,.84-5.84L266,76.33A12.63,12.63,0,0,1,269.43,93.85Z" fill="none" stroke="#003a50" stroke-miterlimit="10"/><path d="M266.23,62.21l-7.72,6.08a23.88,23.88,0,0,0-15.56-20l7.64-6a12.65,12.65,0,1,1,15.64,19.88Z" fill="none" stroke="#003a50" stroke-miterlimit="10"/><path d="M236.31,39.13,234,46.89A23.58,23.58,0,0,0,225,49l-15.28-4.48a1.21,1.21,0,0,1-.84-1.52l3.08-10.64a12.87,12.87,0,0,1,13.2-9.4A12.67,12.67,0,0,1,236.31,39.13Z" fill="none" stroke="#003a50" stroke-miterlimit="10"/><path d="M258.59,71.41a24.8,24.8,0,0,1-.84,5.84,23.88,23.88,0,0,1-13.12,15.24,24.6,24.6,0,0,1-3.28,1.16,23.6,23.6,0,0,1-24.32-7,25.46,25.46,0,0,1-1.84-2.28,23.7,23.7,0,0,1-1.28-25.24A24,24,0,0,1,225,49a23.84,23.84,0,0,1,16.32-1.24c.56.16,1.12.36,1.68.56a23.88,23.88,0,0,1,15.56,20A27.09,27.09,0,0,1,258.59,71.41Z" fill="none" stroke="#003a50" stroke-miterlimit="10"/><path d="M444.42,383.33a1,1,0,0,1-.54.9,1,1,0,0,1-1.3-.45,29.69,29.69,0,0,1,0-25.26,1,1,0,0,1,1.3-.46,1,1,0,0,1,.44,1.34,27.64,27.64,0,0,0,0,23.49A1,1,0,0,1,444.42,383.33Z" fill="none" stroke="#003a50" stroke-miterlimit="10"/><path d="M439.05,383.33a1,1,0,0,1-.54.9,1,1,0,0,1-1.3-.45,29.69,29.69,0,0,1,0-25.26,1,1,0,0,1,1.29-.46,1,1,0,0,1,.45,1.34,27.64,27.64,0,0,0,0,23.49A1,1,0,0,1,439.05,383.33Z" fill="none" stroke="#003a50" stroke-miterlimit="10"/><path d="M433.68,383.33a1,1,0,0,1-.54.9,1,1,0,0,1-1.3-.45,29.69,29.69,0,0,1,0-25.26,1,1,0,0,1,1.29-.46,1,1,0,0,1,.45,1.34,27.64,27.64,0,0,0,0,23.49A1,1,0,0,1,433.68,383.33Z" fill="none" stroke="#003a50" stroke-miterlimit="10"/><path d="M428.31,383.33a1,1,0,0,1-.54.9,1,1,0,0,1-1.3-.45,29.69,29.69,0,0,1,0-25.26,1,1,0,0,1,1.29-.46,1,1,0,0,1,.45,1.34,27.64,27.64,0,0,0,0,23.49A1.17,1.17,0,0,1,428.31,383.33Z" fill="none" stroke="#003a50" stroke-miterlimit="10"/><path d="M422.93,383.33a1,1,0,0,1-.54.9.94.94,0,0,1-1.29-.45,29.69,29.69,0,0,1,0-25.26,1,1,0,0,1,1.29-.46,1,1,0,0,1,.44,1.34,27.64,27.64,0,0,0,0,23.49A1,1,0,0,1,422.93,383.33Z" fill="none" stroke="#003a50" stroke-miterlimit="10"/><path d="M417.56,383.33a1,1,0,0,1-.54.9.94.94,0,0,1-1.29-.45,29.69,29.69,0,0,1,0-25.26,1,1,0,0,1,1.29-.46,1,1,0,0,1,.44,1.34,27.64,27.64,0,0,0,0,23.49A1,1,0,0,1,417.56,383.33Z" fill="none" stroke="#003a50" stroke-miterlimit="10"/><path d="M449.79,383.33a1,1,0,0,1-.54.9.94.94,0,0,1-1.29-.45,29.69,29.69,0,0,1,0-25.26,1,1,0,0,1,1.29-.46,1,1,0,0,1,.44,1.34,27.64,27.64,0,0,0,0,23.49A1,1,0,0,1,449.79,383.33Z" fill="none" stroke="#003a50" stroke-miterlimit="10"/><path d="M455.16,383.33a1,1,0,0,1-.54.9.94.94,0,0,1-1.29-.45,29.69,29.69,0,0,1,0-25.26,1,1,0,0,1,1.29-.46,1,1,0,0,1,.44,1.34,27.64,27.64,0,0,0,0,23.49A1,1,0,0,1,455.16,383.33Z" fill="none" stroke="#003a50" stroke-miterlimit="10"/><line x1="567.2" y1="371.15" x2="403.33" y2="371.15" fill="none" stroke="#003a50" stroke-miterlimit="10"/><rect x="404.34" y="353.86" width="162.86" height="34.02" fill="none" stroke="#003a50" stroke-miterlimit="10"/><path d="M437.08,210.13a1,1,0,0,1-.54.9.94.94,0,0,1-1.29-.45,29.69,29.69,0,0,1,0-25.26,1,1,0,0,1,1.29-.46,1,1,0,0,1,.44,1.34,27.64,27.64,0,0,0,0,23.49A1,1,0,0,1,437.08,210.13Z" fill="none" stroke="#003a50" stroke-miterlimit="10"/><path d="M431.71,210.13a1,1,0,0,1-.54.9,1,1,0,0,1-1.3-.45,29.69,29.69,0,0,1,0-25.26,1,1,0,0,1,1.3-.46,1,1,0,0,1,.44,1.34,27.64,27.64,0,0,0,0,23.49A1,1,0,0,1,431.71,210.13Z" fill="none" stroke="#003a50" stroke-miterlimit="10"/><path d="M426.34,210.13a1,1,0,0,1-.54.9,1,1,0,0,1-1.3-.45,29.69,29.69,0,0,1,0-25.26,1,1,0,0,1,1.29-.46,1,1,0,0,1,.45,1.34,27.64,27.64,0,0,0,0,23.49A1,1,0,0,1,426.34,210.13Z" fill="none" stroke="#003a50" stroke-miterlimit="10"/><path d="M421,210.13a1,1,0,0,1-.54.9,1,1,0,0,1-1.3-.45,29.69,29.69,0,0,1,0-25.26,1,1,0,0,1,1.29-.46,1,1,0,0,1,.45,1.34,27.64,27.64,0,0,0,0,23.49A1.17,1.17,0,0,1,421,210.13Z" fill="none" stroke="#003a50" stroke-miterlimit="10"/><path d="M415.6,210.13a1,1,0,0,1-.54.9,1,1,0,0,1-1.3-.45,29.69,29.69,0,0,1,0-25.26,1,1,0,0,1,1.29-.46,1,1,0,0,1,.45,1.34,27.64,27.64,0,0,0,0,23.49A1.17,1.17,0,0,1,415.6,210.13Z" fill="none" stroke="#003a50" stroke-miterlimit="10"/><path d="M410.22,210.13a1,1,0,0,1-.54.9.94.94,0,0,1-1.29-.45,29.69,29.69,0,0,1,0-25.26,1,1,0,0,1,1.29-.46,1,1,0,0,1,.44,1.34,27.64,27.64,0,0,0,0,23.49A1,1,0,0,1,410.22,210.13Z" fill="none" stroke="#003a50" stroke-miterlimit="10"/><path d="M442.45,210.13a1,1,0,0,1-.54.9.94.94,0,0,1-1.29-.45,29.69,29.69,0,0,1,0-25.26,1,1,0,0,1,1.29-.46,1,1,0,0,1,.44,1.34,27.64,27.64,0,0,0,0,23.49A1,1,0,0,1,442.45,210.13Z" fill="none" stroke="#003a50" stroke-miterlimit="10"/><path d="M447.82,210.13a1,1,0,0,1-.54.9.94.94,0,0,1-1.29-.45,29.69,29.69,0,0,1,0-25.26,1,1,0,0,1,1.29-.46,1,1,0,0,1,.44,1.34,27.64,27.64,0,0,0,0,23.49A1,1,0,0,1,447.82,210.13Z" fill="none" stroke="#003a50" stroke-miterlimit="10"/></g><line x1="515.61" y1="197.95" x2="395.99" y2="197.95" fill="none" stroke="#003a50" stroke-miterlimit="10"/><rect x="396.73" y="180.38" width="119.14" height="34.58" fill="none" stroke="#003a50" stroke-miterlimit="10"/><rect x="299.92" y="323.51" width="47.18" height="25.39" fill="none" stroke="#003a50" stroke-miterlimit="10"/><g clip-path="url(#clip-path)"><rect x="309.82" y="325.57" width="24.4" height="25.04" rx="2.83" fill="none" stroke="#003a50" stroke-miterlimit="10"/><path d="M322,336.18a1.91,1.91,0,1,1-1.91,1.91A1.92,1.92,0,0,1,322,336.18Z" fill="none" stroke="#003a50" stroke-miterlimit="10"/><rect x="464.87" y="324.63" width="24.4" height="25.04" rx="2.83" fill="none" stroke="#003a50" stroke-miterlimit="10"/><path d="M477.08,335.24a1.91,1.91,0,1,1-1.92,1.91A1.92,1.92,0,0,1,477.08,335.24Z" fill="none" stroke="#003a50" stroke-miterlimit="10"/><rect x="328.34" y="-34.34" width="34.02" height="34.02" fill="none" stroke="#003a50" stroke-miterlimit="10"/></g><rect x="405.53" y="40.41" width="81.73" height="27.04" fill="none" stroke="#003a50" stroke-miterlimit="10"/><g clip-path="url(#clip-path)"><path d="M473.32,63.62a.8.8,0,0,1-1.52.35,22.88,22.88,0,0,1,0-20.08.81.81,0,0,1,1.07-.36.8.8,0,0,1,.36,1.07,21.34,21.34,0,0,0,0,18.67A.73.73,0,0,1,473.32,63.62Z" fill="none" stroke="#003a50" stroke-miterlimit="10"/><path d="M468.89,63.62a.8.8,0,0,1-1.51.35,22.88,22.88,0,0,1,0-20.08.8.8,0,0,1,1.07-.36.8.8,0,0,1,.36,1.07,21.25,21.25,0,0,0,0,18.67A.72.72,0,0,1,468.89,63.62Z" fill="none" stroke="#003a50" stroke-miterlimit="10"/><path d="M464.47,63.62A.8.8,0,0,1,463,64a22.8,22.8,0,0,1,0-20.08.8.8,0,0,1,1.43.71,21.25,21.25,0,0,0,0,18.67A.72.72,0,0,1,464.47,63.62Z" fill="none" stroke="#003a50" stroke-miterlimit="10"/><path d="M460.05,63.62a.8.8,0,0,1-1.52.35,22.88,22.88,0,0,1,0-20.08.81.81,0,0,1,1.07-.36A.8.8,0,0,1,460,44.6a21.34,21.34,0,0,0,0,18.67A.73.73,0,0,1,460.05,63.62Z" fill="none" stroke="#003a50" stroke-miterlimit="10"/><path d="M455.62,63.62a.8.8,0,0,1-1.51.35,22.88,22.88,0,0,1,0-20.08.8.8,0,0,1,1.07-.36.8.8,0,0,1,.36,1.07,21.25,21.25,0,0,0,0,18.67A.72.72,0,0,1,455.62,63.62Z" fill="none" stroke="#003a50" stroke-miterlimit="10"/><path d="M451.2,63.62a.8.8,0,0,1-1.51.35,22.8,22.8,0,0,1,0-20.08.8.8,0,0,1,1.43.71,21.25,21.25,0,0,0,0,18.67A.72.72,0,0,1,451.2,63.62Z" fill="none" stroke="#003a50" stroke-miterlimit="10"/><path d="M477.74,63.62a.8.8,0,0,1-1.51.35,22.8,22.8,0,0,1,0-20.08.8.8,0,0,1,1.43.71,21.25,21.25,0,0,0,0,18.67A.72.72,0,0,1,477.74,63.62Z" fill="none" stroke="#003a50" stroke-miterlimit="10"/><path d="M482.16,63.62a.8.8,0,0,1-1.51.35,22.88,22.88,0,0,1,0-20.08.8.8,0,0,1,1.07-.36.8.8,0,0,1,.36,1.07,21.25,21.25,0,0,0,0,18.67A.72.72,0,0,1,482.16,63.62Z" fill="none" stroke="#003a50" stroke-miterlimit="10"/></g><line x1="486.92" y1="53.93" x2="405.53" y2="53.93" fill="none" stroke="#003a50" stroke-miterlimit="10"/><rect x="300.54" y="353.86" width="90.71" height="34.02" fill="none" stroke="#003a50" stroke-miterlimit="10"/><g clip-path="url(#clip-path)"><path d="M343.11,383.05a1,1,0,0,1-1.9.45,28.77,28.77,0,0,1,0-25.26,1,1,0,1,1,1.8.88,26.72,26.72,0,0,0,0,23.49A1,1,0,0,1,343.11,383.05Z" fill="none" stroke="#003a50" stroke-miterlimit="10"/><path d="M337.54,383.05a1,1,0,0,1-.56.9,1,1,0,0,1-1.34-.45,28.77,28.77,0,0,1,0-25.26,1,1,0,1,1,1.8.88,26.72,26.72,0,0,0,0,23.49A1,1,0,0,1,337.54,383.05Z" fill="none" stroke="#003a50" stroke-miterlimit="10"/><path d="M332,383.05a1,1,0,0,1-1.9.45,28.77,28.77,0,0,1,0-25.26,1,1,0,1,1,1.8.88,26.72,26.72,0,0,0,0,23.49A1,1,0,0,1,332,383.05Z" fill="none" stroke="#003a50" stroke-miterlimit="10"/><path d="M326.41,383.05a1,1,0,0,1-.56.9,1,1,0,0,1-1.34-.45,28.77,28.77,0,0,1,0-25.26,1,1,0,1,1,1.8.88,26.72,26.72,0,0,0,0,23.49A1,1,0,0,1,326.41,383.05Z" fill="none" stroke="#003a50" stroke-miterlimit="10"/><path d="M320.85,383.05a1,1,0,0,1-.56.9,1,1,0,0,1-1.35-.45,28.77,28.77,0,0,1,0-25.26,1,1,0,0,1,1.34-.46,1,1,0,0,1,.46,1.34,26.81,26.81,0,0,0,0,23.49A.9.9,0,0,1,320.85,383.05Z" fill="none" stroke="#003a50" stroke-miterlimit="10"/><path d="M315.28,383.05a1,1,0,0,1-.56.9,1,1,0,0,1-1.34-.45,28.77,28.77,0,0,1,0-25.26,1,1,0,1,1,1.8.88,26.72,26.72,0,0,0,0,23.49A1,1,0,0,1,315.28,383.05Z" fill="none" stroke="#003a50" stroke-miterlimit="10"/><path d="M348.68,383.05a1,1,0,0,1-.56.9,1,1,0,0,1-1.35-.45,28.77,28.77,0,0,1,0-25.26,1,1,0,0,1,1.34-.46,1,1,0,0,1,.46,1.34,26.81,26.81,0,0,0,0,23.49A1,1,0,0,1,348.68,383.05Z" fill="none" stroke="#003a50" stroke-miterlimit="10"/><path d="M354.24,383.05a1,1,0,0,1-1.9.45,28.77,28.77,0,0,1,0-25.26,1,1,0,1,1,1.8.88,26.72,26.72,0,0,0,0,23.49A1,1,0,0,1,354.24,383.05Z" fill="none" stroke="#003a50" stroke-miterlimit="10"/></g><line x1="391.25" y1="370.87" x2="300.54" y2="370.87" fill="none" stroke="#003a50" stroke-miterlimit="10"/><rect x="54.23" y="329.46" width="88.65" height="34.02" fill="none" stroke="#003a50" stroke-miterlimit="10"/><g clip-path="url(#clip-path)"><path d="M96.81,358.65a1,1,0,0,1-.56.9,1,1,0,0,1-1.35-.45,28.77,28.77,0,0,1,0-25.26,1,1,0,0,1,1.34-.46,1,1,0,0,1,.46,1.34,26.81,26.81,0,0,0,0,23.49A1,1,0,0,1,96.81,358.65Z" fill="none" stroke="#003a50" stroke-miterlimit="10"/><path d="M91.24,358.65a1,1,0,0,1-1.9.45,28.77,28.77,0,0,1,0-25.26,1,1,0,1,1,1.8.88,26.72,26.72,0,0,0,0,23.49A1,1,0,0,1,91.24,358.65Z" fill="none" stroke="#003a50" stroke-miterlimit="10"/><path d="M85.68,358.65a1,1,0,0,1-.56.9,1,1,0,0,1-1.35-.45,28.77,28.77,0,0,1,0-25.26,1,1,0,0,1,1.34-.46,1,1,0,0,1,.46,1.34,26.81,26.81,0,0,0,0,23.49A1,1,0,0,1,85.68,358.65Z" fill="none" stroke="#003a50" stroke-miterlimit="10"/><path d="M80.11,358.65a1,1,0,0,1-1.9.45,28.77,28.77,0,0,1,0-25.26,1,1,0,1,1,1.8.88,26.72,26.72,0,0,0,0,23.49A1,1,0,0,1,80.11,358.65Z" fill="none" stroke="#003a50" stroke-miterlimit="10"/><path d="M74.54,358.65a1,1,0,0,1-.56.9,1,1,0,0,1-1.34-.45,28.77,28.77,0,0,1,0-25.26,1,1,0,1,1,1.8.88,26.72,26.72,0,0,0,0,23.49A1,1,0,0,1,74.54,358.65Z" fill="none" stroke="#003a50" stroke-miterlimit="10"/><path d="M69,358.65a1,1,0,0,1-1.9.45,28.77,28.77,0,0,1,0-25.26,1,1,0,1,1,1.8.88,26.72,26.72,0,0,0,0,23.49A1,1,0,0,1,69,358.65Z" fill="none" stroke="#003a50" stroke-miterlimit="10"/><path d="M102.37,358.65a1,1,0,0,1-1.9.45,28.77,28.77,0,0,1,0-25.26,1,1,0,1,1,1.8.88,26.72,26.72,0,0,0,0,23.49A1,1,0,0,1,102.37,358.65Z" fill="none" stroke="#003a50" stroke-miterlimit="10"/><path d="M107.94,358.65a1,1,0,0,1-.56.9,1,1,0,0,1-1.35-.45,28.77,28.77,0,0,1,0-25.26,1,1,0,0,1,1.34-.46,1,1,0,0,1,.46,1.34,26.81,26.81,0,0,0,0,23.49A1,1,0,0,1,107.94,358.65Z" fill="none" stroke="#003a50" stroke-miterlimit="10"/></g><line x1="142.88" y1="346.47" x2="54.23" y2="346.47" fill="none" stroke="#003a50" stroke-miterlimit="10"/><rect x="109.01" y="363.61" width="34.02" height="41.8" fill="none" stroke="#003a50" stroke-miterlimit="10"/><g clip-path="url(#clip-path)"><path d="M138.2,381.65a1,1,0,0,1,.45,1.9,28.77,28.77,0,0,1-25.26,0,1,1,0,1,1,.88-1.8,26.72,26.72,0,0,0,23.49,0A1,1,0,0,1,138.2,381.65Z" fill="none" stroke="#003a50" stroke-miterlimit="10"/><path d="M138.2,387.21a1,1,0,0,1,.45,1.91,28.77,28.77,0,0,1-25.26,0,1,1,0,0,1-.46-1.34,1,1,0,0,1,1.34-.46,26.81,26.81,0,0,0,23.49,0A.87.87,0,0,1,138.2,387.21Z" fill="none" stroke="#003a50" stroke-miterlimit="10"/><path d="M138.2,392.78a1,1,0,0,1,.45,1.9,28.77,28.77,0,0,1-25.26,0,1,1,0,1,1,.88-1.8,26.72,26.72,0,0,0,23.49,0A1,1,0,0,1,138.2,392.78Z" fill="none" stroke="#003a50" stroke-miterlimit="10"/><path d="M138.2,398.34a1,1,0,0,1,.45,1.91,28.77,28.77,0,0,1-25.26,0,1,1,0,0,1-.46-1.34,1,1,0,0,1,1.34-.46,26.81,26.81,0,0,0,23.49,0A.87.87,0,0,1,138.2,398.34Z" fill="none" stroke="#003a50" stroke-miterlimit="10"/></g><line x1="126.01" y1="363.47" x2="126.01" y2="405.42" fill="none" stroke="#003a50" stroke-miterlimit="10"/><g clip-path="url(#clip-path)"><rect x="362.35" y="-34.34" width="153.07" height="34.02" fill="none" stroke="#003a50" stroke-miterlimit="10"/><path d="M262.87,521.17a14.78,14.78,0,0,0,15.93-23.38,1.14,1.14,0,1,0-1.78,1.43,12.47,12.47,0,0,1-14.15,19.5Z" fill="none" stroke="#003a50" stroke-miterlimit="10"/><rect x="228.85" y="466.92" width="34.02" height="84.03" rx="3.31" fill="none" stroke="#003a50" stroke-miterlimit="10"/><path d="M232.56,548.4A1.4,1.4,0,0,0,234,547V470.86a1.4,1.4,0,0,0-2.79,0V547a1.4,1.4,0,0,0,1.39,1.4" fill="none" stroke="#003a50" stroke-miterlimit="10"/><path d="M247.14,480.59a5.51,5.51,0,1,1,0-7.79A5.51,5.51,0,0,1,247.14,480.59Z" fill="none" stroke="#003a50" stroke-miterlimit="10"/><path d="M247.51,480.18c-1-.1-2,.28-3-.7-1.46-1.46.09-3-1.38-4.47s-3,.08-4.47-1.38" fill="none" stroke="#003a50" stroke-miterlimit="10"/><path d="M262.87,516.46a10.63,10.63,0,1,0,0-19.59Z" fill="none" stroke="#003a50" stroke-miterlimit="10"/></g><rect x="200.24" y="549.55" width="22.68" height="22.68" fill="none" stroke="#003a50" stroke-miterlimit="10"/><g clip-path="url(#clip-path)"><path d="M218.08,567.39a9.19,9.19,0,1,1,0-13A9.19,9.19,0,0,1,218.08,567.39Z" fill="none" stroke="#003a50" stroke-miterlimit="10"/><path d="M218.71,566.7c-1.7-.17-3.42.48-5.07-1.17-2.43-2.44.14-5-2.29-7.45s-5,.13-7.46-2.31" fill="none" stroke="#003a50" stroke-miterlimit="10"/></g><rect x="200.24" y="408.41" width="22.68" height="22.68" fill="none" stroke="#003a50" stroke-miterlimit="10"/><g clip-path="url(#clip-path)"><path d="M218.08,426.26a9.2,9.2,0,1,1,0-13A9.19,9.19,0,0,1,218.08,426.26Z" fill="none" stroke="#003a50" stroke-miterlimit="10"/><path d="M218.71,425.56c-1.7-.16-3.42.49-5.07-1.16-2.43-2.44.14-5-2.29-7.46s-5,.14-7.46-2.3" fill="none" stroke="#003a50" stroke-miterlimit="10"/></g><rect x="109.53" y="438.56" width="113.39" height="102.05" fill="none" stroke="#003a50" stroke-miterlimit="10"/><g clip-path="url(#clip-path)"><path d="M119.27,530.61V448.56a2.08,2.08,0,0,1,2.08-2.08H189V532.7H121.35A2.09,2.09,0,0,1,119.27,530.61Z" fill="none" stroke="#003a50" stroke-miterlimit="10"/><rect x="192.61" y="446.22" width="22.88" height="42.5" rx="1.98" fill="none" stroke="#003a50" stroke-miterlimit="10"/><rect x="192.61" y="490.45" width="22.88" height="42.5" rx="1.98" fill="none" stroke="#003a50" stroke-miterlimit="10"/></g><line x1="175.14" y1="532.95" x2="175.14" y2="446.22" fill="none" stroke="#003a50" stroke-miterlimit="10"/><g clip-path="url(#clip-path)"><rect x="405.59" y="415.52" width="22.68" height="22.68" fill="none" stroke="#003a50" stroke-miterlimit="10"/><path d="M423.42,433.36a9.19,9.19,0,1,1,0-13A9.19,9.19,0,0,1,423.42,433.36Z" fill="none" stroke="#003a50" stroke-miterlimit="10"/><path d="M424.05,432.67c-1.7-.17-3.42.48-5.07-1.17-2.43-2.43.15-5-2.29-7.45s-5,.14-7.46-2.3" fill="none" stroke="#003a50" stroke-miterlimit="10"/><rect x="405.58" y="445.67" width="113.38" height="102.05" fill="none" stroke="#003a50" stroke-miterlimit="10"/><path d="M509.23,455.67v82.05a2.08,2.08,0,0,1-2.08,2.08H439.51V453.59h67.64A2.08,2.08,0,0,1,509.23,455.67Z" fill="none" stroke="#003a50" stroke-miterlimit="10"/><rect x="413.02" y="497.56" width="22.88" height="42.5" rx="1.98" fill="none" stroke="#003a50" stroke-miterlimit="10"/><rect x="413.02" y="453.33" width="22.88" height="42.5" rx="1.98" fill="none" stroke="#003a50" stroke-miterlimit="10"/></g><rect x="362.64" y="180.66" width="34.02" height="34.02" fill="none" stroke="#003a50" stroke-miterlimit="10"/><line x1="369.66" y1="197.67" x2="389.62" y2="197.67" fill="none" stroke="#003a50" stroke-miterlimit="10"/><line x1="379.64" y1="187.69" x2="379.64" y2="207.65" fill="none" stroke="#003a50" stroke-miterlimit="10"/><line x1="372.59" y1="190.61" x2="386.7" y2="204.72" fill="none" stroke="#003a50" stroke-miterlimit="10"/><line x1="386.7" y1="190.61" x2="372.59" y2="204.72" fill="none" stroke="#003a50" stroke-miterlimit="10"/><g clip-path="url(#clip-path)"><path d="M389.67,76.67V53.32A3.36,3.36,0,0,0,386.31,50h-15A3.35,3.35,0,0,0,368,53.32V76.67A3.35,3.35,0,0,0,371.35,80h15A3.36,3.36,0,0,0,389.67,76.67Z" fill="none" stroke="#003a50" stroke-miterlimit="10"/><circle cx="382.63" cy="65" r="2.46" transform="translate(176.15 393.62) rotate(-67.5)" fill="none" stroke="#003a50" stroke-miterlimit="10"/></g><line x1="381.87" y1="65" x2="395.48" y2="65" fill="none" stroke="#003a50" stroke-miterlimit="10"/><line x1="395.49" y1="58.19" x2="395.49" y2="71.81" fill="none" stroke="#003a50" stroke-miterlimit="10"/><g clip-path="url(#clip-path)"><path d="M113.05,60.41v-41H67.28V62.63h43.56A2.21,2.21,0,0,0,113.05,60.41Z" fill="none" stroke="#003a50" stroke-miterlimit="10"/><path d="M158.92,60.64V19.38H113.15V60.64a2,2,0,0,0,2,2h41.8A2,2,0,0,0,158.92,60.64Z" fill="none" stroke="#003a50" stroke-miterlimit="10"/><path d="M67.28,62.63A3.1,3.1,0,0,1,64,65.45H59.73a3.1,3.1,0,0,1-3.33-2.82V14.43H169.79V62.2A3.11,3.11,0,0,1,166.46,65h-4.22a3.1,3.1,0,0,1-3.32-2.83V19.38H67.28Z" fill="none" stroke="#003a50" stroke-miterlimit="10"/></g><rect x="67.28" y="19.38" width="91.64" height="9.25" fill="none" stroke="#003a50" stroke-miterlimit="10"/><rect x="307.05" y="180.58" width="55.58" height="34.35" fill="none" stroke="#003a50" stroke-miterlimit="10"/><rect x="54.72" y="221.4" width="92.09" height="42.38" fill="none" stroke="#003a50" stroke-miterlimit="10"/><g clip-path="url(#clip-path)"><rect x="58.77" y="226.78" width="84.24" height="32.03" rx="13.7" fill="none" stroke="#003a50" stroke-miterlimit="10"/><path d="M128.43,240.5a2.21,2.21,0,1,1-2.2,2.2A2.2,2.2,0,0,1,128.43,240.5Z" fill="none" stroke="#003a50" stroke-miterlimit="10"/><path d="M194.25,296.75h28.57V273.67H194.25a11.54,11.54,0,0,0,0,23.08Z" fill="none" stroke="#003a50" stroke-miterlimit="10"/></g><rect x="211.74" y="273.67" width="11.08" height="23.08" fill="none" stroke="#003a50" stroke-miterlimit="10"/><rect x="146.81" y="218.63" width="53.05" height="23.96" fill="none" stroke="#003a50" stroke-miterlimit="10"/><g clip-path="url(#clip-path)"><path d="M160.38,238V219.69a2.67,2.67,0,0,1,2.68-2.67h17.76a2.67,2.67,0,0,1,2.68,2.67V238a2.68,2.68,0,0,1-2.68,2.67H163.06A2.68,2.68,0,0,1,160.38,238Z" fill="none" stroke="#003a50" stroke-miterlimit="10"/><ellipse cx="171.94" cy="228.83" rx="1.81" ry="1.8" fill="none" stroke="#003a50" stroke-miterlimit="10"/><path d="M282.44,384.39V388a45.35,45.35,0,0,1-45.35,45.35v-49" fill="none" stroke="#003a50" stroke-miterlimit="10" stroke-width="1.6"/><path d="M226,335.42h-3.41a43,43,0,0,0-43,43H226" fill="none" stroke="#003a50" stroke-miterlimit="10" stroke-width="1.6"/><path d="M190.32,324.69v3.07a38.58,38.58,0,0,1-38.58,38.59V324.69" fill="none" stroke="#003a50" stroke-miterlimit="10" stroke-width="1.6"/><path d="M297.51,281.26h-3.08A38.71,38.71,0,0,0,255.72,320h41.79" fill="none" stroke="#003a50" stroke-miterlimit="10" stroke-width="1.6"/><path d="M571.09,444.84h-3.45a43.48,43.48,0,0,1-43.48-43.48h46.93" fill="none" stroke="#003a50" stroke-miterlimit="10" stroke-width="1.6"/><path d="M513.6,279.55h3.13a39.34,39.34,0,0,1,39.34,39.34H513.6" fill="none" stroke="#003a50" stroke-miterlimit="10" stroke-width="1.6"/><path d="M580.42,221.39v-4.06a51.13,51.13,0,0,1,51.13-51.13v55.19" fill="none" stroke="#003a50" stroke-miterlimit="10" stroke-width="1.6"/><path d="M526.83,128.17h4.06A51.13,51.13,0,0,1,582,179.3H526.83" fill="none" stroke="#003a50" stroke-miterlimit="10" stroke-width="1.6"/><line x1="468.26" y1="121.1" x2="413.77" y2="121.1" fill="none" stroke="#003a50" stroke-miterlimit="10" stroke-width="1.6"/><polygon points="54.65 317.68 54.65 413.42 5.32 413.42 16.99 317.68 54.65 317.68" fill="#003a50" fill-rule="evenodd"/><polygon points="603.94 582.76 508.2 582.76 508.2 632.09 603.94 620.43 603.94 582.76" fill="#003a50" fill-rule="evenodd"/><rect x="389.24" y="214.95" width="191.83" height="16.32" fill="#003a50"/><rect x="389.24" y="223.11" width="16.32" height="372.48" fill="#003a50"/><rect x="515.74" y="178.43" width="16.32" height="40.5" fill="#003a50"/><rect x="49.49" y="202.3" width="74.57" height="19" fill="#003a50"/><rect x="515.74" y="105.11" width="16.32" height="23.98" fill="#003a50"/><rect x="515.74" y="-39.89" width="16.32" height="50.48" fill="#003a50"/><rect x="487.49" y="105.11" width="40.56" height="11.86" fill="#003a50"/><rect x="487.49" y="8.11" width="13.08" height="108.53" fill="#003a50"/><rect x="50.65" y="-0.04" width="481.33" height="13.79" fill="#003a50"/><rect x="13.55" y="137.78" width="41.1" height="92.71" fill="#003a50"/><rect x="6.32" y="204.59" width="44.33" height="25.9" fill="#003a50"/><rect x="19.65" y="501.6" width="35" height="114.83" fill="#003a50"/><rect x="23.65" y="582.67" width="38.17" height="33.75" fill="#003a50"/><rect x="203.45" y="582.67" width="96" height="41.92" fill="#003a50"/><rect x="388.04" y="582.67" width="27.03" height="46.75" fill="#003a50"/><rect x="392.04" y="582.67" width="27.03" height="23.38" fill="#003a50"/><rect x="513.57" y="576.51" width="82.83" height="27.12" fill="#003a50"/><rect x="212.49" y="576.51" width="78.17" height="27.12" fill="#003a50"/><rect x="6.32" y="603.09" width="25.9" height="25.9" fill="#003a50"/><rect x="6.32" y="-46.86" width="48.33" height="94.57" fill="#003a50"/><rect x="119.57" y="214.93" width="109" height="6.38" fill="#003a50"/><rect x="222.19" y="219.61" width="6.38" height="116.6" fill="#003a50"/><rect x="222.19" y="377.57" width="6.38" height="212.5" fill="#003a50"/><rect x="199.86" y="219.61" width="6.38" height="22.98" fill="#003a50"/><rect x="201.73" y="236.21" width="22.98" height="6.38" fill="#003a50"/><rect x="189.74" y="323.71" width="33.79" height="6.38" fill="#003a50"/><rect x="105.41" y="405.61" width="41.2" height="3.69" fill="#003a50"/><rect x="143.1" y="328.12" width="3.69" height="80.64" fill="#003a50"/><rect x="48.79" y="405.61" width="19.39" height="3.69" fill="#003a50"/><rect x="49.49" y="323.71" width="103.25" height="6.38" fill="#003a50"/><rect x="281.65" y="381.65" width="18" height="6.38" fill="#003a50"/><rect x="297.51" y="348.81" width="94.48" height="6.38" fill="#003a50"/><rect x="225.38" y="381.65" width="12.54" height="6.38" fill="#003a50"/><rect x="293.88" y="214.92" width="6.38" height="67.17" fill="#003a50"/><rect x="293.88" y="319.14" width="6.38" height="68.88" fill="#003a50"/><rect x="398.82" y="110.59" width="42.19" height="6.38" fill="#003a50"/><rect x="398.94" y="10.26" width="6.38" height="106.38" fill="#003a50"/><rect x="402.12" y="33.81" width="91.1" height="6.38" fill="#003a50"/><rect x="293.88" y="214.93" width="99.68" height="6.38" fill="#003a50"/><rect x="293.88" y="250.55" width="99.68" height="6.38" fill="#003a50"/><rect x="338.05" y="214.92" width="6.38" height="38.25" fill="#003a50"/><rect x="478.06" y="110.59" width="12.54" height="6.38" fill="#003a50"/><rect x="567.47" y="444.05" width="6.38" height="136.12" fill="#003a50"/><rect x="567.47" y="347.93" width="6.38" height="54.19" fill="#003a50"/><rect x="508.66" y="230.09" width="6.38" height="50.21" fill="#003a50"/><rect x="508.66" y="318.05" width="6.38" height="32.88" fill="#003a50"/><rect x="570.65" y="321.08" width="3.19" height="29.85" fill="#003a50"/><rect x="570.65" y="231.25" width="3.19" height="36.33" fill="#003a50"/><rect x="404.07" y="249.99" width="107.78" height="6.38" fill="#003a50"/><rect x="472.51" y="227.37" width="6.38" height="26.37" fill="#003a50"/><rect x="404.07" y="348.11" width="166.58" height="6.38" fill="#003a50"/><rect x="526.07" y="11.67" width="5.98" height="101.5" fill="#003a50"/><line x1="573.11" y1="321.43" x2="575.95" y2="321.43" fill="none" stroke="#003a50" stroke-miterlimit="10"/><line x1="581.69" y1="321.43" x2="636.3" y2="321.43" fill="none" stroke="#003a50" stroke-miterlimit="10" stroke-dasharray="5.75 5.75"/><line x1="226.15" y1="215.46" x2="302.89" y2="215.46" fill="none" stroke="#003a50" stroke-miterlimit="10" stroke-width="0.57" stroke-dasharray="5.67 5.67"/><line x1="398.88" y1="180.94" x2="398.88" y2="109.73" fill="none" stroke="#003a50" stroke-miterlimit="10" stroke-width="0.57" stroke-dasharray="5.67 5.67"/><rect x="119.57" y="214.93" width="109" height="6.38" fill="#003a50"/><rect x="222.19" y="219.61" width="6.38" height="116.6" fill="#003a50"/><rect x="222.19" y="377.57" width="6.38" height="212.5" fill="#003a50"/><rect x="199.86" y="219.61" width="6.38" height="22.98" fill="#003a50"/><rect x="201.73" y="236.21" width="22.98" height="6.38" fill="#003a50"/><rect x="189.74" y="323.71" width="33.79" height="6.38" fill="#003a50"/><rect x="105.41" y="405.61" width="41.2" height="3.69" fill="#003a50"/><rect x="143.1" y="328.12" width="3.69" height="80.64" fill="#003a50"/><rect x="48.79" y="405.61" width="19.39" height="3.69" fill="#003a50"/><rect x="49.49" y="323.71" width="103.25" height="6.38" fill="#003a50"/><rect x="281.65" y="381.65" width="18" height="6.38" fill="#003a50"/><rect x="297.51" y="348.81" width="94.48" height="6.38" fill="#003a50"/><rect x="225.38" y="381.65" width="12.54" height="6.38" fill="#003a50"/><rect x="293.88" y="214.92" width="6.38" height="67.17" fill="#003a50"/><rect x="293.88" y="319.14" width="6.38" height="68.88" fill="#003a50"/><rect x="398.82" y="110.59" width="42.19" height="6.38" fill="#003a50"/><rect x="398.94" y="10.26" width="6.38" height="106.38" fill="#003a50"/><rect x="402.12" y="33.81" width="91.1" height="6.38" fill="#003a50"/><rect x="293.88" y="214.93" width="99.68" height="6.38" fill="#003a50"/><rect x="293.88" y="250.55" width="99.68" height="6.38" fill="#003a50"/><rect x="338.05" y="214.92" width="6.38" height="38.25" fill="#003a50"/><rect x="478.06" y="110.59" width="12.54" height="6.38" fill="#003a50"/><rect x="567.47" y="444.05" width="6.38" height="136.12" fill="#003a50"/><rect x="567.47" y="347.93" width="6.38" height="54.19" fill="#003a50"/><rect x="508.66" y="230.09" width="6.38" height="50.21" fill="#003a50"/><rect x="508.66" y="318.05" width="6.38" height="32.88" fill="#003a50"/><rect x="570.65" y="321.08" width="3.19" height="29.85" fill="#003a50"/><rect x="570.65" y="231.25" width="3.19" height="36.33" fill="#003a50"/><rect x="404.07" y="249.99" width="107.78" height="6.38" fill="#003a50"/><rect x="472.51" y="227.37" width="6.38" height="26.37" fill="#003a50"/><rect x="404.07" y="348.11" width="166.58" height="6.38" fill="#003a50"/><rect x="526.07" y="11.67" width="5.98" height="101.5" fill="#003a50"/><line x1="573.11" y1="321.43" x2="575.95" y2="321.43" fill="none" stroke="#003a50" stroke-miterlimit="10"/><line x1="581.69" y1="321.43" x2="636.3" y2="321.43" fill="none" stroke="#003a50" stroke-miterlimit="10" stroke-dasharray="5.75 5.75"/><line x1="226.15" y1="215.46" x2="302.89" y2="215.46" fill="none" stroke="#003a50" stroke-miterlimit="10" stroke-width="0.57" stroke-dasharray="5.67 5.67"/><line x1="398.88" y1="180.94" x2="398.88" y2="109.73" fill="none" stroke="#003a50" stroke-miterlimit="10" stroke-width="0.57" stroke-dasharray="5.67 5.67"/></g><g clip-path="url(#clip-path)"><path d="M171.91,601.17l-1.75,1.38V601l1.92-1.59h1.32v8.4h-1.49Z" fill="#003a50"/><path d="M175.18,607.67a.71.71,0,0,1-.23-.56.75.75,0,0,1,.23-.57.87.87,0,0,1,.61-.21.85.85,0,0,1,.61.21.75.75,0,0,1,.23.57.71.71,0,0,1-.23.56.85.85,0,0,1-.61.21A.87.87,0,0,1,175.18,607.67Z" fill="#003a50"/><path d="M179,606.68a5.19,5.19,0,0,1,0-6.23,4,4,0,0,1,5.74,0,5.19,5.19,0,0,1,0,6.23,4,4,0,0,1-5.74,0Zm4.61-1a4.08,4.08,0,0,0,0-4.29,2.23,2.23,0,0,0-3.47,0,4,4,0,0,0,0,4.29,2,2,0,0,0,1.73.83A2.07,2.07,0,0,0,183.6,605.71Z" fill="#003a50"/><path d="M435.46,606.68a5.19,5.19,0,0,1,0-6.23,4,4,0,0,1,5.74,0,5.19,5.19,0,0,1,0,6.23,4,4,0,0,1-5.74,0Zm4.61-1a4.08,4.08,0,0,0,0-4.29,2.07,2.07,0,0,0-1.74-.83,2,2,0,0,0-1.73.83,4,4,0,0,0,0,4.29,2,2,0,0,0,1.73.83A2.07,2.07,0,0,0,440.07,605.71Z" fill="#003a50"/><path d="M443.79,607.67a.68.68,0,0,1-.23-.56.71.71,0,0,1,.23-.57,1,1,0,0,1,1.22,0,.75.75,0,0,1,.23.57.71.71,0,0,1-.23.56,1,1,0,0,1-1.22,0Z" fill="#003a50"/><path d="M453.4,601.73h-1.56s0,0,0-.12a1.2,1.2,0,0,0-.15-.31,1.91,1.91,0,0,0-.27-.35,1.27,1.27,0,0,0-.5-.29,2.09,2.09,0,0,0-.72-.12,1.77,1.77,0,0,0-1.51.73,3.11,3.11,0,0,0-.54,1.89h0a1.11,1.11,0,0,1,.31-.3,2.73,2.73,0,0,1,.43-.26,3,3,0,0,1,.67-.21,4,4,0,0,1,.86-.1,3.55,3.55,0,0,1,2.37.79,2.46,2.46,0,0,1,.92,2,2.54,2.54,0,0,1-1,2.06,3.93,3.93,0,0,1-2.54.77,3.38,3.38,0,0,1-2.73-1.09,4.48,4.48,0,0,1-.93-3v-.28a4.81,4.81,0,0,1,.93-3,3.18,3.18,0,0,1,2.68-1.21,4.06,4.06,0,0,1,1.5.26,2.73,2.73,0,0,1,1,.66A2.48,2.48,0,0,1,453.4,601.73ZM451.63,604a2.32,2.32,0,0,0-1.4-.41,2.29,2.29,0,0,0-1.39.41,1.33,1.33,0,0,0-.55,1.12,1.31,1.31,0,0,0,.54,1.1,2.54,2.54,0,0,0,2.8,0,1.29,1.29,0,0,0,.55-1.1A1.35,1.35,0,0,0,451.63,604Z" fill="#003a50"/><path d="M315.65,606.68a5.19,5.19,0,0,1,0-6.23,4,4,0,0,1,5.74,0,5.19,5.19,0,0,1,0,6.23,4,4,0,0,1-5.74,0Zm4.61-1a4.08,4.08,0,0,0,0-4.29,2.23,2.23,0,0,0-3.47,0,4,4,0,0,0,0,4.29,2,2,0,0,0,1.73.83A2.07,2.07,0,0,0,320.26,605.71Z" fill="#003a50"/><path d="M324,607.67a.71.71,0,0,1-.23-.56.75.75,0,0,1,.23-.57.87.87,0,0,1,.61-.21.85.85,0,0,1,.61.21.71.71,0,0,1,.23.57.68.68,0,0,1-.23.56.85.85,0,0,1-.61.21A.87.87,0,0,1,324,607.67Z" fill="#003a50"/><path d="M333.59,601.73H332s0,0,0-.12a1.2,1.2,0,0,0-.15-.31,1.91,1.91,0,0,0-.27-.35,1.27,1.27,0,0,0-.5-.29,2.08,2.08,0,0,0-.71-.12,1.78,1.78,0,0,0-1.52.73,3.11,3.11,0,0,0-.54,1.89h0a1.11,1.11,0,0,1,.31-.3,2.73,2.73,0,0,1,.43-.26,3.14,3.14,0,0,1,.67-.21,4,4,0,0,1,.86-.1,3.58,3.58,0,0,1,2.38.79,2.49,2.49,0,0,1,.92,2,2.54,2.54,0,0,1-1,2.06,4,4,0,0,1-2.55.77,3.38,3.38,0,0,1-2.73-1.09,4.48,4.48,0,0,1-.93-3v-.28a4.81,4.81,0,0,1,.93-3,3.18,3.18,0,0,1,2.69-1.21,4.14,4.14,0,0,1,1.5.26,2.77,2.77,0,0,1,1,.66A2.48,2.48,0,0,1,333.59,601.73ZM331.82,604a2.58,2.58,0,0,0-2.79,0,1.33,1.33,0,0,0-.55,1.12,1.31,1.31,0,0,0,.54,1.1,2.54,2.54,0,0,0,2.8,0,1.29,1.29,0,0,0,.55-1.1A1.33,1.33,0,0,0,331.82,604Z" fill="#003a50"/><path d="M32.82,124.86a4.53,4.53,0,0,1-3.12,1,4.55,4.55,0,0,1-3.11-1,4,4,0,0,1,0-5.73,4.56,4.56,0,0,1,3.11-1,4.53,4.53,0,0,1,3.12,1,4,4,0,0,1,0,5.73Zm-1-4.6a4,4,0,0,0-4.28,0,2.23,2.23,0,0,0,0,3.47,4,4,0,0,0,4.28,0,2.21,2.21,0,0,0,0-3.47Z" fill="#003a50"/><path d="M33.81,116.54a.71.71,0,0,1-.57.22.74.74,0,0,1-.57-.22.9.9,0,0,1-.21-.62.87.87,0,0,1,.21-.61.75.75,0,0,1,.57-.23.72.72,0,0,1,.57.23.87.87,0,0,1,.21.61A.9.9,0,0,1,33.81,116.54Z" fill="#003a50"/><path d="M27.87,106.93v1.55l-.12,0a2.1,2.1,0,0,0-.31.15,1.93,1.93,0,0,0-.36.28,1.37,1.37,0,0,0-.29.5,2.25,2.25,0,0,0-.11.71,1.76,1.76,0,0,0,.73,1.52,3.11,3.11,0,0,0,1.89.54v0a1.11,1.11,0,0,1-.31-.31,3.09,3.09,0,0,1-.25-.42,2.77,2.77,0,0,1-.22-.67,4.12,4.12,0,0,1-.09-.86,3.53,3.53,0,0,1,.79-2.38,2.46,2.46,0,0,1,2-.92,2.51,2.51,0,0,1,2.05,1A3.89,3.89,0,0,1,34,110.1a3.38,3.38,0,0,1-1.09,2.73,4.48,4.48,0,0,1-3,.93h-.29a4.85,4.85,0,0,1-3-.93,3.18,3.18,0,0,1-1.2-2.68,3.93,3.93,0,0,1,.26-1.5,2.61,2.61,0,0,1,.66-1A2.39,2.39,0,0,1,27.87,106.93Zm2.22,1.77a2.56,2.56,0,0,0,0,2.78,1.3,1.3,0,0,0,1.11.56,1.32,1.32,0,0,0,1.11-.55,2.54,2.54,0,0,0,0-2.8,1.31,1.31,0,0,0-1.11-.54A1.3,1.3,0,0,0,30.09,108.7Z" fill="#003a50"/><path d="M32.82,487.9a4.57,4.57,0,0,1-3.12,1,4.6,4.6,0,0,1-3.11-1,4,4,0,0,1,0-5.74,4.6,4.6,0,0,1,3.11-1,4.57,4.57,0,0,1,3.12,1,4,4,0,0,1,0,5.74Zm-1-4.61a3.5,3.5,0,0,0-2.14-.61,3.52,3.52,0,0,0-2.14.61,2.23,2.23,0,0,0,0,3.47,4,4,0,0,0,4.28,0,2,2,0,0,0,.84-1.73A2.05,2.05,0,0,0,31.84,483.29Z" fill="#003a50"/><path d="M33.81,479.57a.72.72,0,0,1-.57.23.75.75,0,0,1-.57-.23.87.87,0,0,1-.21-.61.85.85,0,0,1,.21-.61.71.71,0,0,1,.57-.23.69.69,0,0,1,.57.23A.85.85,0,0,1,34,479,.87.87,0,0,1,33.81,479.57Z" fill="#003a50"/><path d="M27.87,470v1.56s-.05,0-.12,0a1.07,1.07,0,0,0-.31.15,1.88,1.88,0,0,0-.36.27,1.46,1.46,0,0,0-.29.5,2.35,2.35,0,0,0-.11.71,1.75,1.75,0,0,0,.73,1.52,3.11,3.11,0,0,0,1.89.54v0a1.27,1.27,0,0,1-.31-.31,2.67,2.67,0,0,1-.25-.43,2.62,2.62,0,0,1-.22-.67,4,4,0,0,1-.09-.86,3.53,3.53,0,0,1,.79-2.38,2.62,2.62,0,0,1,4,0,3.92,3.92,0,0,1,.78,2.55,3.38,3.38,0,0,1-1.09,2.73,4.48,4.48,0,0,1-3,.93h-.29a4.85,4.85,0,0,1-3-.93,3.2,3.2,0,0,1-1.2-2.69,3.93,3.93,0,0,1,.26-1.5,2.69,2.69,0,0,1,.66-1A2.44,2.44,0,0,1,27.87,470Zm2.22,1.77a2.58,2.58,0,0,0,0,2.79,1.3,1.3,0,0,0,1.11.55,1.31,1.31,0,0,0,1.11-.54,2.54,2.54,0,0,0,0-2.8,1.4,1.4,0,0,0-2.22,0Z" fill="#003a50"/><path d="M32.82,304.59a4.57,4.57,0,0,1-3.12,1,4.6,4.6,0,0,1-3.11-1,3.63,3.63,0,0,1-1.2-2.88,3.59,3.59,0,0,1,1.2-2.86,4.55,4.55,0,0,1,3.11-1,4.53,4.53,0,0,1,3.12,1,3.59,3.59,0,0,1,1.2,2.86A3.63,3.63,0,0,1,32.82,304.59Zm-1-4.61a4,4,0,0,0-4.28,0,2.23,2.23,0,0,0,0,3.47,4,4,0,0,0,4.28,0,2.21,2.21,0,0,0,0-3.47Z" fill="#003a50"/><path d="M33.81,296.26a.72.72,0,0,1-.57.23.75.75,0,0,1-.57-.23,1,1,0,0,1,0-1.23.74.74,0,0,1,.57-.22.71.71,0,0,1,.57.22,1,1,0,0,1,0,1.23Z" fill="#003a50"/><path d="M27.87,286.65v1.56l-.12,0a2.39,2.39,0,0,0-.67.43,1.46,1.46,0,0,0-.29.5,2.3,2.3,0,0,0-.11.71,1.76,1.76,0,0,0,.73,1.52,3.11,3.11,0,0,0,1.89.54v0a1.49,1.49,0,0,1-.31-.31,3.18,3.18,0,0,1-.25-.43,2.62,2.62,0,0,1-.22-.67,4.12,4.12,0,0,1-.09-.86,3.53,3.53,0,0,1,.79-2.38,2.62,2.62,0,0,1,4,0,3.92,3.92,0,0,1,.78,2.55,3.39,3.39,0,0,1-1.09,2.73,4.48,4.48,0,0,1-3,.93h-.29a4.85,4.85,0,0,1-3-.93,3.2,3.2,0,0,1-1.2-2.69,3.93,3.93,0,0,1,.26-1.5,2.61,2.61,0,0,1,.66-1A2.44,2.44,0,0,1,27.87,286.65Zm2.22,1.77a2.58,2.58,0,0,0,0,2.79,1.4,1.4,0,0,0,2.22,0,2.22,2.22,0,0,0,.42-1.4,2.26,2.26,0,0,0-.42-1.4,1.31,1.31,0,0,0-1.11-.54A1.3,1.3,0,0,0,30.09,288.42Z" fill="#003a50"/><path d="M470.29,304.38h-5.82v-1.85h8.86v1.85L468.8,307v.07h1.28a3.87,3.87,0,0,1,2.79,1,3.5,3.5,0,0,1,1.06,2.67,3.32,3.32,0,0,1-1.33,2.82,6.93,6.93,0,0,1-7.24,0,3.35,3.35,0,0,1-1.33-2.85v-.33h2.11v.33c0,1.36.94,2,2.84,2s2.84-.67,2.84-2-.95-2-2.84-2h-3.27v-1.67l4.58-2.68Z" fill="#003a50"/><path d="M476,314.31a1.17,1.17,0,0,1,0-1.61,1.24,1.24,0,0,1,.87-.3,1.2,1.2,0,0,1,.86.3,1.15,1.15,0,0,1,0,1.61,1.2,1.2,0,0,1-.86.3A1.24,1.24,0,0,1,476,314.31Z" fill="#003a50"/><path d="M486.14,304.38h-5.82v-1.85h8.86v1.85L484.65,307v.07h1.28a3.9,3.9,0,0,1,2.79,1,3.52,3.52,0,0,1,1,2.67,3.34,3.34,0,0,1-1.32,2.82,7,7,0,0,1-7.25,0,3.37,3.37,0,0,1-1.32-2.85v-.33H482v.33c0,1.36.95,2,2.84,2s2.85-.67,2.85-2-.95-2-2.85-2h-3.26v-1.67l4.58-2.68Z" fill="#003a50"/><path d="M546.64,280.9h-9.93v-1.56a2.74,2.74,0,0,1,.58-1.74,4,4,0,0,1,1.44-1.2c.5-.26,1.12-.54,1.87-.86s1.32-.56,1.88-.78a4.07,4.07,0,0,0,1.44-.91,1.81,1.81,0,0,0,.58-1.3q0-1.89-2.67-1.89t-2.67,2.16v.41h-2.11v-.41a3.65,3.65,0,0,1,1.26-3,5.4,5.4,0,0,1,3.51-1,5.61,5.61,0,0,1,3.51,1,3.27,3.27,0,0,1,1.27,2.75,3.16,3.16,0,0,1-.55,1.83,4.42,4.42,0,0,1-1.41,1.31c-.59.34-1.21.65-1.83.93s-1.24.52-1.83.74a5.26,5.26,0,0,0-1.4.75,1.22,1.22,0,0,0-.57.95h7.63Z" fill="#003a50"/><path d="M548.74,280.77a1.15,1.15,0,0,1,0-1.61,1.23,1.23,0,0,1,.87-.3,1.2,1.2,0,0,1,.86.3,1.15,1.15,0,0,1,0,1.61,1.2,1.2,0,0,1-.86.3A1.23,1.23,0,0,1,548.74,280.77Z" fill="#003a50"/><path d="M562.52,280.9h-9.94v-1.56a2.75,2.75,0,0,1,.59-1.74,4,4,0,0,1,1.44-1.2c.5-.26,1.12-.54,1.87-.86s1.32-.56,1.88-.78a4.07,4.07,0,0,0,1.44-.91,1.8,1.8,0,0,0,.57-1.3c0-1.26-.88-1.89-2.66-1.89s-2.68.72-2.68,2.16v.41h-2.11v-.41a3.63,3.63,0,0,1,1.27-3,5.4,5.4,0,0,1,3.51-1,5.63,5.63,0,0,1,3.51,1,3.27,3.27,0,0,1,1.27,2.75,3.16,3.16,0,0,1-.55,1.83,4.42,4.42,0,0,1-1.41,1.31c-.59.34-1.21.65-1.83.93s-1.24.52-1.83.74a5.26,5.26,0,0,0-1.4.75,1.22,1.22,0,0,0-.57.95h7.63Z" fill="#003a50"/><path d="M112.22,158.15h-9.93v-1.56a2.74,2.74,0,0,1,.58-1.74,4,4,0,0,1,1.44-1.2c.5-.25,1.12-.54,1.87-.86s1.32-.56,1.88-.77a4.09,4.09,0,0,0,1.44-.92,1.76,1.76,0,0,0,.58-1.3q0-1.89-2.67-1.89t-2.67,2.16v.41h-2.11v-.41a3.62,3.62,0,0,1,1.26-3,5.38,5.38,0,0,1,3.51-1,5.66,5.66,0,0,1,3.52,1,3.31,3.31,0,0,1,1.27,2.75,3.12,3.12,0,0,1-.56,1.83,4.28,4.28,0,0,1-1.4,1.31c-.6.34-1.21.65-1.84.93s-1.23.52-1.83.75a5.55,5.55,0,0,0-1.4.74,1.24,1.24,0,0,0-.56,1h7.62Z" fill="#003a50"/><path d="M120.52,148.09h-5.83v-1.84h8.87v1.84L119,150.74v.06h1.28a3.87,3.87,0,0,1,2.79,1,3.52,3.52,0,0,1,1.05,2.66,3.33,3.33,0,0,1-1.33,2.83,7,7,0,0,1-7.24,0,3.4,3.4,0,0,1-1.33-2.86v-.32h2.11v.32c0,1.36,1,2,2.84,2s2.84-.66,2.84-2-.94-2-2.84-2h-3.26v-1.67l4.58-2.69Z" fill="#003a50"/><path d="M126.25,158a1,1,0,0,1-.32-.8,1.07,1.07,0,0,1,.32-.81,1.25,1.25,0,0,1,.88-.3,1.22,1.22,0,0,1,.86.3,1,1,0,0,1,.32.81,1,1,0,0,1-.32.8,1.22,1.22,0,0,1-.86.3A1.25,1.25,0,0,1,126.25,158Z" fill="#003a50"/><path d="M140,158.15H130.1v-1.56a2.74,2.74,0,0,1,.58-1.74,4,4,0,0,1,1.45-1.2c.49-.25,1.12-.54,1.86-.86s1.33-.56,1.88-.77a4.23,4.23,0,0,0,1.45-.92,1.78,1.78,0,0,0,.57-1.3q0-1.89-2.67-1.89t-2.67,2.16v.41h-2.11v-.41a3.62,3.62,0,0,1,1.26-3,5.38,5.38,0,0,1,3.51-1,5.66,5.66,0,0,1,3.52,1A3.31,3.31,0,0,1,140,149.8a3.12,3.12,0,0,1-.56,1.83,4.18,4.18,0,0,1-1.4,1.31c-.6.34-1.21.65-1.84.93s-1.23.52-1.82.75a5.46,5.46,0,0,0-1.41.74,1.26,1.26,0,0,0-.56,1H140Z" fill="#003a50"/><path d="M427.23,156.08h-5.82v-1.84h8.86v1.84l-4.53,2.65v.07H427a3.9,3.9,0,0,1,2.79,1,3.53,3.53,0,0,1,1.06,2.67,3.35,3.35,0,0,1-1.33,2.82,7,7,0,0,1-7.25,0,3.38,3.38,0,0,1-1.32-2.86v-.32h2.11v.32c0,1.37.94,2,2.84,2s2.84-.67,2.84-2-.95-2-2.84-2h-3.27v-1.67l4.58-2.68Z" fill="#003a50"/><path d="M433,166a1,1,0,0,1-.33-.8,1,1,0,0,1,.33-.81,1.4,1.4,0,0,1,1.73,0,1,1,0,0,1,.33.81,1,1,0,0,1-.33.8,1.4,1.4,0,0,1-1.73,0Z" fill="#003a50"/><path d="M445.55,165.38a7.77,7.77,0,0,1-7.37,0,3,3,0,0,1-1.37-2.56,2.71,2.71,0,0,1,.26-1.17,2.37,2.37,0,0,1,.65-.85,4,4,0,0,1,1.4-.77l.26-.07v-.09a3.57,3.57,0,0,1-.77-.29,2.61,2.61,0,0,1-.66-.44,2.24,2.24,0,0,1-.54-.76,2.38,2.38,0,0,1-.22-1,2.79,2.79,0,0,1,1.25-2.38,7,7,0,0,1,6.85,0,2.83,2.83,0,0,1,1.25,2.38,2.67,2.67,0,0,1-.22,1.05,1.88,1.88,0,0,1-.56.74,3.59,3.59,0,0,1-1.19.68l-.23.05V160l.29.07a4,4,0,0,1,.62.26,4.28,4.28,0,0,1,.77.51,2.83,2.83,0,0,1,.62.82,2.71,2.71,0,0,1,.27,1.2A2.94,2.94,0,0,1,445.55,165.38ZM439.76,164a3.84,3.84,0,0,0,2.1.48A3.94,3.94,0,0,0,444,164a1.6,1.6,0,0,0,0-2.7,4.93,4.93,0,0,0-4.2,0,1.53,1.53,0,0,0-.74,1.35A1.51,1.51,0,0,0,439.76,164Zm-.37-6.52a1.37,1.37,0,0,0,.65,1.19,4,4,0,0,0,3.64,0,1.42,1.42,0,0,0,0-2.39,3.94,3.94,0,0,0-3.62,0A1.36,1.36,0,0,0,439.39,157.51Z" fill="#003a50"/><path d="M461.21,91.19h-9.94V89.63a2.8,2.8,0,0,1,.58-1.74,4.12,4.12,0,0,1,1.45-1.2c.5-.25,1.12-.54,1.87-.86s1.32-.56,1.87-.77a4.19,4.19,0,0,0,1.45-.92,1.78,1.78,0,0,0,.57-1.3c0-1.26-.89-1.89-2.66-1.89s-2.68.72-2.68,2.16v.41h-2.11v-.41a3.59,3.59,0,0,1,1.27-3,5.34,5.34,0,0,1,3.51-1,5.65,5.65,0,0,1,3.51,1,3.29,3.29,0,0,1,1.27,2.75,3.11,3.11,0,0,1-.55,1.83A4.31,4.31,0,0,1,459.21,86c-.59.34-1.21.65-1.83.93s-1.24.52-1.83.75a5.55,5.55,0,0,0-1.4.74,1.23,1.23,0,0,0-.57,1h7.63Z" fill="#003a50"/><path d="M463.31,91.06a1,1,0,0,1-.33-.81,1,1,0,0,1,.33-.8,1.4,1.4,0,0,1,1.73,0,1,1,0,0,1,.33.8,1,1,0,0,1-.33.81,1.4,1.4,0,0,1-1.73,0Z" fill="#003a50"/><path d="M468.71,89.66a7.38,7.38,0,0,1,0-8.84,5.71,5.71,0,0,1,8.13,0,7.34,7.34,0,0,1,0,8.84,5.71,5.71,0,0,1-8.13,0Zm6.53-1.39a5.73,5.73,0,0,0,0-6.07A2.89,2.89,0,0,0,472.78,81a2.86,2.86,0,0,0-2.45,1.18,5.62,5.62,0,0,0,0,6.07,2.87,2.87,0,0,0,2.45,1.19A2.9,2.9,0,0,0,475.24,88.27Z" fill="#003a50"/><path d="M250.87,343.46h-5.82v-1.84h8.86v1.84l-4.53,2.65v.06h1.28a3.85,3.85,0,0,1,2.79,1,3.49,3.49,0,0,1,1.06,2.66,3.33,3.33,0,0,1-1.33,2.83,7,7,0,0,1-7.24,0,3.36,3.36,0,0,1-1.33-2.86v-.32h2.11v.32c0,1.36.95,2,2.84,2s2.84-.67,2.84-2-1-2-2.84-2H246.3v-1.67l4.57-2.68Z" fill="#003a50"/><path d="M256.61,353.39a1,1,0,0,1-.32-.8,1,1,0,0,1,.32-.81,1.41,1.41,0,0,1,1.74,0,1.07,1.07,0,0,1,.32.81,1,1,0,0,1-.32.8,1.41,1.41,0,0,1-1.74,0Z" fill="#003a50"/><path d="M263.72,353.52h-2.35l5.41-10h-6.92v-1.87h9.28v1.87Z" fill="#003a50"/><path d="M318.05,314.37h-9.93v-1.56a2.74,2.74,0,0,1,.58-1.74,4,4,0,0,1,1.44-1.2c.5-.25,1.12-.54,1.87-.86s1.32-.56,1.88-.77a4.24,4.24,0,0,0,1.44-.92,1.76,1.76,0,0,0,.58-1.3q0-1.89-2.67-1.89t-2.67,2.16v.41h-2.11v-.41a3.62,3.62,0,0,1,1.26-3,5.38,5.38,0,0,1,3.51-1,5.66,5.66,0,0,1,3.52,1A3.3,3.3,0,0,1,318,306a3.14,3.14,0,0,1-.56,1.83,4.28,4.28,0,0,1-1.4,1.31c-.6.34-1.21.65-1.84.93s-1.23.52-1.83.74a5.56,5.56,0,0,0-1.4.75,1.22,1.22,0,0,0-.56,1h7.62Z" fill="#003a50"/><path d="M320.15,314.24a1,1,0,0,1-.32-.81,1,1,0,0,1,.32-.8,1.41,1.41,0,0,1,1.74,0,1.06,1.06,0,0,1,.32.8,1,1,0,0,1-.32.81,1.41,1.41,0,0,1-1.74,0Z" fill="#003a50"/><path d="M332.73,313.61a7.71,7.71,0,0,1-7.36,0A2.94,2.94,0,0,1,324,311a2.69,2.69,0,0,1,.25-1.16,2.32,2.32,0,0,1,.66-.86,4.11,4.11,0,0,1,1.39-.77l.26-.06v-.1a2.91,2.91,0,0,1-.76-.29,2.88,2.88,0,0,1-.67-.44,2.2,2.2,0,0,1-.54-.75,2.41,2.41,0,0,1-.22-1,2.83,2.83,0,0,1,1.25-2.39,5.81,5.81,0,0,1,3.42-.89,5.92,5.92,0,0,1,3.44.89,2.83,2.83,0,0,1,1.24,2.39,2.43,2.43,0,0,1-.22,1,2,2,0,0,1-.55.74,3.54,3.54,0,0,1-1.2.68l-.22,0v.1a1.39,1.39,0,0,1,.28.06,5.42,5.42,0,0,1,.62.27,4.19,4.19,0,0,1,.78.5,2.88,2.88,0,0,1,.61.83,2.63,2.63,0,0,1,.27,1.19A3,3,0,0,1,332.73,313.61Zm-5.79-1.36a3.75,3.75,0,0,0,2.1.49,3.9,3.9,0,0,0,2.11-.48,1.59,1.59,0,0,0,0-2.69,4.95,4.95,0,0,0-4.21,0,1.59,1.59,0,0,0,0,2.68Zm-.36-6.51a1.36,1.36,0,0,0,.64,1.19,4.09,4.09,0,0,0,3.65,0,1.36,1.36,0,0,0,.64-1.19,1.38,1.38,0,0,0-.65-1.2,3.29,3.29,0,0,0-1.82-.44,3.21,3.21,0,0,0-1.8.44A1.36,1.36,0,0,0,326.58,305.74Z" fill="#003a50"/><path d="M119.05,305.82h-2.21s0-.06,0-.18a2.94,2.94,0,0,0-.22-.44,2.63,2.63,0,0,0-.39-.49,1.78,1.78,0,0,0-.71-.42,3.19,3.19,0,0,0-1-.16,2.53,2.53,0,0,0-2.15,1,4.42,4.42,0,0,0-.76,2.69h.06a1.5,1.5,0,0,1,.44-.44,4.76,4.76,0,0,1,.6-.36,4.41,4.41,0,0,1,1-.31,6.23,6.23,0,0,1,1.22-.12,5,5,0,0,1,3.37,1.11,3.52,3.52,0,0,1,1.31,2.8,3.57,3.57,0,0,1-1.37,2.9,5.49,5.49,0,0,1-3.6,1.11,4.81,4.81,0,0,1-3.87-1.55,6.35,6.35,0,0,1-1.32-4.26v-.41a6.85,6.85,0,0,1,1.32-4.31,4.52,4.52,0,0,1,3.8-1.71,5.66,5.66,0,0,1,2.13.37,4,4,0,0,1,1.44.94A3.45,3.45,0,0,1,119.05,305.82ZM116.54,309a3.6,3.6,0,0,0-4,0,2,2,0,0,0,0,3.14,3.63,3.63,0,0,0,4,0,2,2,0,0,0,0-3.14Z" fill="#003a50"/><path d="M121.7,314.24a1,1,0,0,1-.32-.81,1,1,0,0,1,.32-.8,1.41,1.41,0,0,1,1.74,0,1.06,1.06,0,0,1,.32.8,1,1,0,0,1-.32.81,1.41,1.41,0,0,1-1.74,0Z" fill="#003a50"/><path d="M127.11,312.84a7.34,7.34,0,0,1,0-8.84,5.71,5.71,0,0,1,8.13,0,7.34,7.34,0,0,1,0,8.84,5.71,5.71,0,0,1-8.13,0Zm6.52-1.39a5.67,5.67,0,0,0,0-6.07,3.14,3.14,0,0,0-4.91,0,5.67,5.67,0,0,0,0,6.07,3.13,3.13,0,0,0,4.91,0Z" fill="#003a50"/><path d="M79.17,386.18H69.24v-1.56a2.74,2.74,0,0,1,.58-1.74,4,4,0,0,1,1.45-1.2c.49-.26,1.12-.54,1.87-.86s1.32-.56,1.87-.78a4.21,4.21,0,0,0,1.45-.91,1.8,1.8,0,0,0,.57-1.3q0-1.89-2.67-1.89t-2.67,2.16v.41H69.58v-.41a3.62,3.62,0,0,1,1.26-3,5.39,5.39,0,0,1,3.52-1,5.65,5.65,0,0,1,3.51,1,3.27,3.27,0,0,1,1.27,2.75,3.17,3.17,0,0,1-.56,1.83,4.16,4.16,0,0,1-1.4,1.3,18.74,18.74,0,0,1-1.84.94c-.62.27-1.23.52-1.82.74a5.18,5.18,0,0,0-1.41.75,1.23,1.23,0,0,0-.56,1h7.62Z" fill="#003a50"/><path d="M81.27,386.05a1.17,1.17,0,0,1,0-1.61,1.25,1.25,0,0,1,.88-.3,1.22,1.22,0,0,1,.86.3,1.17,1.17,0,0,1,0,1.61,1.22,1.22,0,0,1-.86.3A1.25,1.25,0,0,1,81.27,386.05Z" fill="#003a50"/><path d="M95.05,386.18H85.12v-1.56a2.74,2.74,0,0,1,.58-1.74,4,4,0,0,1,1.45-1.2c.49-.26,1.12-.54,1.86-.86l1.88-.78a4.21,4.21,0,0,0,1.45-.91,1.8,1.8,0,0,0,.57-1.3q0-1.89-2.67-1.89t-2.67,2.16v.41H85.46v-.41a3.62,3.62,0,0,1,1.26-3,5.38,5.38,0,0,1,3.51-1,5.66,5.66,0,0,1,3.52,1A3.3,3.3,0,0,1,95,377.83a3.17,3.17,0,0,1-.56,1.83,4.16,4.16,0,0,1-1.4,1.3,18.74,18.74,0,0,1-1.84.94c-.62.27-1.23.52-1.82.74a5.18,5.18,0,0,0-1.41.75,1.23,1.23,0,0,0-.56,1h7.62Z" fill="#003a50"/><path d="M109.7,421.49l-2.48,1.95V421.2l2.73-2.27h1.86v11.91H109.7Z" fill="#003a50"/><path d="M124.2,430.84h-9.93v-1.56a2.74,2.74,0,0,1,.58-1.74,4,4,0,0,1,1.45-1.2c.5-.25,1.12-.54,1.87-.86s1.32-.56,1.87-.77a4.39,4.39,0,0,0,1.45-.92,1.78,1.78,0,0,0,.57-1.3c0-1.26-.89-1.89-2.66-1.89s-2.68.72-2.68,2.16v.41h-2.11v-.41a3.62,3.62,0,0,1,1.26-3,5.39,5.39,0,0,1,3.52-1,5.65,5.65,0,0,1,3.51,1,3.27,3.27,0,0,1,1.27,2.75,3.14,3.14,0,0,1-.56,1.83,4.29,4.29,0,0,1-1.4,1.31q-.9.51-1.83.93c-.63.27-1.24.52-1.83.74a5.64,5.64,0,0,0-1.41.75,1.25,1.25,0,0,0-.56,1h7.62Z" fill="#003a50"/><path d="M126.3,430.71a1,1,0,0,1-.32-.81,1.06,1.06,0,0,1,.32-.8,1.25,1.25,0,0,1,.88-.3,1.22,1.22,0,0,1,.86.3,1,1,0,0,1,.32.8,1,1,0,0,1-.32.81,1.22,1.22,0,0,1-.86.3A1.25,1.25,0,0,1,126.3,430.71Z" fill="#003a50"/><path d="M139.92,422.29h-2.2s0-.06,0-.18a2.94,2.94,0,0,0-.22-.44,2.57,2.57,0,0,0-.38-.49,1.94,1.94,0,0,0-.71-.42,3.29,3.29,0,0,0-1-.16,2.52,2.52,0,0,0-2.15,1,4.44,4.44,0,0,0-.77,2.69h.06a1.64,1.64,0,0,1,.44-.44,4.24,4.24,0,0,1,.61-.36,4.06,4.06,0,0,1,.95-.31,6.06,6.06,0,0,1,1.21-.12,5.06,5.06,0,0,1,3.38,1.11,3.51,3.51,0,0,1,1.3,2.8,3.56,3.56,0,0,1-1.36,2.9,5.54,5.54,0,0,1-3.61,1.11,4.81,4.81,0,0,1-3.87-1.55,6.35,6.35,0,0,1-1.32-4.26v-.41a6.85,6.85,0,0,1,1.32-4.31,4.52,4.52,0,0,1,3.81-1.71,5.64,5.64,0,0,1,2.12.37,3.84,3.84,0,0,1,1.44.94A3.45,3.45,0,0,1,139.92,422.29Zm-2.5,3.15a3.67,3.67,0,0,0-4,0,2,2,0,0,0,0,3.14,3.62,3.62,0,0,0,4,0,2,2,0,0,0,0-3.14Z" fill="#003a50"/><path d="M306,421.49l-2.48,1.95V421.2l2.73-2.27h1.86v11.91H306Z" fill="#003a50"/><path d="M312.64,421.49l-2.49,1.95V421.2l2.74-2.27h1.86v11.91h-2.11Z" fill="#003a50"/><path d="M317.27,430.71a1,1,0,0,1-.32-.81,1,1,0,0,1,.32-.8,1.41,1.41,0,0,1,1.74,0,1.06,1.06,0,0,1,.32.8,1,1,0,0,1-.32.81,1.41,1.41,0,0,1-1.74,0Z" fill="#003a50"/><path d="M327.38,420.78h-5.82v-1.85h8.86v1.85l-4.53,2.65v.06h1.28a3.87,3.87,0,0,1,2.79,1,3.51,3.51,0,0,1,1.06,2.66,3.37,3.37,0,0,1-1.33,2.83,5.91,5.91,0,0,1-3.62,1,5.85,5.85,0,0,1-3.62-1,3.37,3.37,0,0,1-1.33-2.86v-.32h2.11v.32c0,1.36.94,2,2.84,2s2.84-.66,2.84-2-1-2-2.84-2H322.8v-1.67l4.58-2.69Z" fill="#003a50"/><path d="M471.84,421.49l-2.49,1.95V421.2l2.74-2.27H474v11.91h-2.11Z" fill="#003a50"/><path d="M486.34,430.84h-9.93v-1.56a2.74,2.74,0,0,1,.58-1.74,4,4,0,0,1,1.44-1.2c.5-.25,1.12-.54,1.87-.86s1.32-.56,1.88-.77a4.24,4.24,0,0,0,1.44-.92,1.8,1.8,0,0,0,.58-1.3q0-1.89-2.67-1.89t-2.67,2.16v.41h-2.11v-.41a3.62,3.62,0,0,1,1.26-3,5.34,5.34,0,0,1,3.51-1,5.61,5.61,0,0,1,3.51,1,3.27,3.27,0,0,1,1.27,2.75,3.14,3.14,0,0,1-.55,1.83,4.32,4.32,0,0,1-1.41,1.31c-.59.34-1.21.65-1.83.93s-1.24.52-1.83.74a5.56,5.56,0,0,0-1.4.75,1.23,1.23,0,0,0-.57,1h7.63Z" fill="#003a50"/><path d="M488.44,430.71a1,1,0,0,1-.33-.81,1,1,0,0,1,.33-.8,1.23,1.23,0,0,1,.87-.3,1.2,1.2,0,0,1,.86.3,1,1,0,0,1,.33.8,1,1,0,0,1-.33.81,1.2,1.2,0,0,1-.86.3A1.23,1.23,0,0,1,488.44,430.71Z" fill="#003a50"/><path d="M495.55,430.84H493.2l5.41-10h-6.92v-1.88H501v1.88Z" fill="#003a50"/><path d="M577,421.49l-2.49,1.95V421.2l2.74-2.27h1.86v11.91H577Z" fill="#003a50"/><path d="M590.25,430.08a7.73,7.73,0,0,1-7.37,0,3,3,0,0,1-1.37-2.56,2.7,2.7,0,0,1,.26-1.16,2.41,2.41,0,0,1,.66-.86,4,4,0,0,1,1.39-.77l.26-.06v-.1a2.91,2.91,0,0,1-.76-.29,2.68,2.68,0,0,1-.67-.44,2.2,2.2,0,0,1-.54-.75,2.41,2.41,0,0,1-.22-1,2.8,2.8,0,0,1,1.25-2.38,7,7,0,0,1,6.85,0,2.81,2.81,0,0,1,1.25,2.38,2.43,2.43,0,0,1-.22,1,2,2,0,0,1-.55.74,3.54,3.54,0,0,1-1.2.68l-.22.05v.1a1.39,1.39,0,0,1,.28.06,5.42,5.42,0,0,1,.62.27,3.79,3.79,0,0,1,.77.5,2.72,2.72,0,0,1,.62.83,2.63,2.63,0,0,1,.27,1.19A3,3,0,0,1,590.25,430.08Zm-5.79-1.36a3.75,3.75,0,0,0,2.1.49,3.9,3.9,0,0,0,2.11-.48,1.6,1.6,0,0,0,0-2.69,4.95,4.95,0,0,0-4.21,0,1.58,1.58,0,0,0,0,2.68Zm-.36-6.51a1.36,1.36,0,0,0,.64,1.19,4.09,4.09,0,0,0,3.65,0,1.42,1.42,0,0,0,0-2.39,3.94,3.94,0,0,0-3.62,0A1.38,1.38,0,0,0,584.1,422.21Z" fill="#003a50"/></g></svg>