<svg id="Слой_1" data-name="Слой 1" xmlns="http://www.w3.org/2000/svg" xmlns:xlink="http://www.w3.org/1999/xlink" viewBox="0 0 581.1 382.68"><defs><clipPath id="clip-path"><polygon points="235.93 0.68 235.93 84.11 0 84.11 0 381.75 580.82 381.75 580.82 0.68 235.93 0.68" fill="none"/></clipPath></defs><polygon points="53.44 373.89 53.44 381.76 553.43 381.76 553.43 374.64 74.6 374.64 74.6 373.89 53.44 373.89" fill="#fff"/><polygon points="245.66 9.46 245.66 98.5 67.23 98.5 67.16 274.77 67.16 324.39 67.23 369.53 554.99 369.53 554.99 177.64 554.99 125.83 554.99 9.46 245.66 9.46" fill="#fff"/><rect x="241.04" y="0.68" width="313.95" height="13.64" fill="#fff"/><g clip-path="url(#clip-path)"><rect x="-561.43" y="-1010.11" width="1115.44" height="2194.74" fill="none" stroke="#003a50" stroke-miterlimit="10"/><polygon points="-536.61 75.61 -536.61 1161.67 529.87 1161.67 529.87 -986.19 -536.61 -986.35 -536.61 6.81 -536.61 75.61" fill="none" stroke="#003a50" stroke-miterlimit="10"/></g><rect x="540.78" y="258.67" width="4.56" height="86.63" fill="#fff"/><rect x="540.78" y="258.67" width="4.56" height="86.63" fill="none" stroke="#003a50" stroke-miterlimit="10"/><line x1="543.06" y1="345.3" x2="543.06" y2="258.67" fill="none" stroke="#003a50" stroke-miterlimit="10"/><rect x="540.78" y="340.93" width="4.56" height="4.38" fill="#fff"/><rect x="540.78" y="340.93" width="4.56" height="4.38" fill="none" stroke="#003a50" stroke-miterlimit="10"/><rect x="540.78" y="258.67" width="4.56" height="4.38" fill="#fff"/><rect x="540.78" y="258.67" width="4.56" height="4.38" fill="none" stroke="#003a50" stroke-miterlimit="10"/><rect x="540.78" y="299.8" width="4.56" height="4.38" fill="#fff"/><rect x="540.78" y="299.8" width="4.56" height="4.38" fill="none" stroke="#003a50" stroke-miterlimit="10"/><rect x="540.78" y="74.99" width="4.56" height="87.3" fill="#fff"/><rect x="540.78" y="74.99" width="4.56" height="87.3" fill="none" stroke="#003a50" stroke-miterlimit="10"/><line x1="543.06" y1="162.29" x2="543.06" y2="74.99" fill="none" stroke="#003a50" stroke-miterlimit="10"/><rect x="540.78" y="157.88" width="4.56" height="4.41" fill="#fff"/><rect x="540.78" y="157.88" width="4.56" height="4.41" fill="none" stroke="#003a50" stroke-miterlimit="10"/><rect x="540.78" y="74.99" width="4.56" height="4.41" fill="#fff"/><rect x="540.78" y="74.99" width="4.56" height="4.41" fill="none" stroke="#003a50" stroke-miterlimit="10"/><rect x="540.78" y="116.43" width="4.56" height="4.41" fill="#fff"/><rect x="540.78" y="116.43" width="4.56" height="4.41" fill="none" stroke="#003a50" stroke-miterlimit="10"/><rect x="102.1" y="97.66" width="43.96" height="95.52" fill="none" stroke="#003a50" stroke-miterlimit="10"/><g clip-path="url(#clip-path)"><rect x="107.68" y="101.86" width="33.22" height="87.39" rx="13.7" fill="none" stroke="#003a50" stroke-miterlimit="10"/><circle cx="124.2" cy="174.12" r="2.28" transform="translate(-26.29 22.14) rotate(-9.22)" fill="none" stroke="#003a50" stroke-miterlimit="10"/><path d="M162.61,164.59v28.57h23.07V164.59a11.54,11.54,0,1,0-23.07,0Z" fill="none" stroke="#003a50" stroke-miterlimit="10"/></g><rect x="162.61" y="182.07" width="23.08" height="11.08" fill="none" stroke="#003a50" stroke-miterlimit="10"/><g clip-path="url(#clip-path)"><path d="M158.7,240.46a3.16,3.16,0,0,0,2.9-2h1.79l4.73,2.83L166,244.83l-2.47-1.35v11h-10.3v-11l-2.46,1.35-2.15-3.49,4.77-2.83h2.39A3.21,3.21,0,0,0,158.7,240.46Z" fill="none" stroke="#003a50" stroke-miterlimit="10"/></g><rect x="142.58" y="230.8" width="31.57" height="30.9" fill="none" stroke="#003a50" stroke-miterlimit="10"/><rect x="269.55" y="331.77" width="34.02" height="34.02" fill="none" stroke="#003a50" stroke-miterlimit="10"/><g clip-path="url(#clip-path)"><path d="M299,356.39a4.64,4.64,0,1,1-4.64-4.64A4.64,4.64,0,0,1,299,356.39Z" fill="none" stroke="#003a50" stroke-miterlimit="10"/><path d="M283.48,356.39a4.64,4.64,0,1,1-4.63-4.64A4.63,4.63,0,0,1,283.48,356.39Z" fill="none" stroke="#003a50" stroke-miterlimit="10"/><path d="M299,341.3a4.64,4.64,0,1,1-4.64-4.64A4.64,4.64,0,0,1,299,341.3Z" fill="none" stroke="#003a50" stroke-miterlimit="10"/><path d="M283.48,341.3a4.64,4.64,0,1,1-4.63-4.64A4.63,4.63,0,0,1,283.48,341.3Z" fill="none" stroke="#003a50" stroke-miterlimit="10"/></g><rect x="427.58" y="186.97" width="102.05" height="17.01" fill="none" stroke="#003a50" stroke-miterlimit="10"/><polygon points="521.6 196.01 478.71 192.49 435.6 196.01 435.6 198.47 521.6 198.47 521.6 196.01" fill="none" stroke="#003a50" stroke-miterlimit="10"/><rect x="338.62" y="163.9" width="102.05" height="17.01" fill="none" stroke="#003a50" stroke-miterlimit="10"/><polygon points="346.64 171.86 389.54 175.39 432.64 171.86 432.64 169.41 346.64 169.41 346.64 171.86" fill="none" stroke="#003a50" stroke-miterlimit="10"/><rect x="213.37" y="331.64" width="152.36" height="34.28" fill="none" stroke="#003a50" stroke-miterlimit="10"/><g clip-path="url(#clip-path)"><path d="M321.93,246a1.27,1.27,0,0,1,.95,1.51,13.78,13.78,0,0,0,26.87,6.16,1.26,1.26,0,1,1,2.46.56A16.3,16.3,0,1,1,320.43,247,1.25,1.25,0,0,1,321.93,246Z" fill="none" stroke="#003a50" stroke-miterlimit="10"/><path d="M377.11,255.76a1.25,1.25,0,0,1,1.74-.34,13.79,13.79,0,1,0,15.53-22.78,1.26,1.26,0,0,1,1.41-2.08,16.3,16.3,0,1,1-18.35,26.94A1.24,1.24,0,0,1,377.11,255.76Z" fill="none" stroke="#003a50" stroke-miterlimit="10"/><path d="M379.61,208.35a1.26,1.26,0,0,1-1.33-1.18,13.78,13.78,0,1,0-27.52,1.63,1.26,1.26,0,0,1-2.52.15A16.3,16.3,0,1,1,380.79,207,1.26,1.26,0,0,1,379.61,208.35Z" fill="none" stroke="#003a50" stroke-miterlimit="10"/><path d="M336.13,262.65a12.69,12.69,0,0,1-12-15.48l2-8.88a3.53,3.53,0,0,1,4.24-2.68l13.44,3.08a23.73,23.73,0,0,0,6,9.44l-1,4.2C347.53,258.29,342.25,262.85,336.13,262.65Z" fill="none" stroke="#003a50" stroke-miterlimit="10"/><path d="M378.93,254.13l-2.32-1.6a23.81,23.81,0,0,0,13.64-21.32l2.52,1.72c5,3.44,7.4,10,5,15.64A12.7,12.7,0,0,1,378.93,254.13Z" fill="none" stroke="#003a50" stroke-miterlimit="10"/><path d="M352.09,211.85l-.12-2c-.36-6.12,3.4-12,9.32-13.48a12.66,12.66,0,0,1,15.88,11.48l.12,1.84a23.93,23.93,0,0,0-16.64-1.92A23.5,23.5,0,0,0,352.09,211.85Z" fill="none" stroke="#003a50" stroke-miterlimit="10"/><path d="M349.85,248.13a23.73,23.73,0,0,1-6-9.44,16.51,16.51,0,0,1-.6-2,23.85,23.85,0,0,1,8.84-24.84,23.5,23.5,0,0,1,8.56-4,23.87,23.87,0,0,1,28.92,17.4,22.12,22.12,0,0,1,.68,6,23.81,23.81,0,0,1-13.64,21.32,22.85,22.85,0,0,1-4.48,1.6A23.8,23.8,0,0,1,349.85,248.13Z" fill="none" stroke="#003a50" stroke-miterlimit="10"/></g><rect x="146.58" y="100.44" width="99.69" height="25.39" fill="none" stroke="#003a50" stroke-miterlimit="10"/><g clip-path="url(#clip-path)"><rect x="205.58" y="98.73" width="24.4" height="25.04" rx="2.83" fill="none" stroke="#003a50" stroke-miterlimit="10"/><circle cx="217.78" cy="111.25" r="1.91" fill="none" stroke="#003a50" stroke-miterlimit="10"/><rect x="162.85" y="98.73" width="24.4" height="25.04" rx="2.83" fill="none" stroke="#003a50" stroke-miterlimit="10"/><circle cx="175.05" cy="111.25" r="1.91" fill="none" stroke="#003a50" stroke-miterlimit="10"/></g><polyline points="225.77 362.75 232.56 362.75 239.35 362.75" fill="none" stroke="#003a50" stroke-miterlimit="10"/><line x1="232.58" y1="349.13" x2="232.58" y2="362.75" fill="none" stroke="#003a50" stroke-miterlimit="10"/><g clip-path="url(#clip-path)"><path d="M217.51,338.49v15.2a3.23,3.23,0,0,0,3.23,3.23h23.6a3.23,3.23,0,0,0,3.23-3.23v-15.2a3.23,3.23,0,0,0-3.23-3.23h-23.6A3.23,3.23,0,0,0,217.51,338.49Z" fill="none" stroke="#003a50" stroke-miterlimit="10"/><path d="M232.58,347.44a2.43,2.43,0,1,0,2.43,2.42A2.42,2.42,0,0,0,232.58,347.44Z" fill="none" stroke="#003a50" stroke-miterlimit="10"/></g><rect x="214.88" y="230.8" width="32.18" height="30.88" fill="none" stroke="#003a50" stroke-miterlimit="10"/><polygon points="91.79 261.8 91.62 199.63 66.99 199.63 67.16 261.8 91.79 261.8" fill="none" stroke="#003a50" stroke-miterlimit="10"/><g clip-path="url(#clip-path)"><path d="M86.94,235H68.4a2.71,2.71,0,0,0-2.71,2.71v17.94a2.7,2.7,0,0,0,2.71,2.7H86.94a2.71,2.71,0,0,0,2.71-2.7V237.68A2.71,2.71,0,0,0,86.94,235Z" fill="none" stroke="#003a50" stroke-miterlimit="10"/><circle cx="77.67" cy="246.64" r="1.83" transform="matrix(0.99, -0.16, 0.16, 0.99, -38.51, 15.63)" fill="none" stroke="#003a50" stroke-miterlimit="10"/><path d="M102.79,228.55V199.7h22.8v28.85a11.4,11.4,0,0,1-22.8,0Z" fill="none" stroke="#003a50" stroke-miterlimit="10"/></g><line x1="125.59" y1="210.92" x2="102.79" y2="210.92" fill="none" stroke="#003a50" stroke-miterlimit="10"/><rect x="179.32" y="331.63" width="34.02" height="34.02" fill="none" stroke="#003a50" stroke-miterlimit="10"/><line x1="196.33" y1="351.4" x2="196.33" y2="361.96" fill="none" stroke="#003a50" stroke-miterlimit="10"/><g clip-path="url(#clip-path)"><path d="M197.24,351.4h-1.82A3.4,3.4,0,0,1,192,348V336.8h8.61V348A3.4,3.4,0,0,1,197.24,351.4Z" fill="none" stroke="#003a50" stroke-miterlimit="10"/></g><line x1="192.85" y1="361.96" x2="199.8" y2="361.96" fill="none" stroke="#003a50" stroke-miterlimit="10"/><rect x="331.44" y="331.64" width="34.02" height="34.02" fill="none" stroke="#003a50" stroke-miterlimit="10"/><line x1="338.46" y1="348.64" x2="358.42" y2="348.64" fill="none" stroke="#003a50" stroke-miterlimit="10"/><line x1="348.44" y1="358.62" x2="348.44" y2="338.66" fill="none" stroke="#003a50" stroke-miterlimit="10"/><line x1="341.39" y1="355.7" x2="355.5" y2="341.59" fill="none" stroke="#003a50" stroke-miterlimit="10"/><line x1="355.5" y1="355.7" x2="341.39" y2="341.59" fill="none" stroke="#003a50" stroke-miterlimit="10"/><rect x="142.83" y="199.67" width="103.82" height="31.12" fill="none" stroke="#003a50" stroke-miterlimit="10"/><g clip-path="url(#clip-path)"><path d="M158.49,204.08a.93.93,0,0,1,1.75-.41,26.36,26.36,0,0,1,0,23.12.93.93,0,0,1-1.23.42.92.92,0,0,1-.42-1.23,24.52,24.52,0,0,0,0-21.49A.86.86,0,0,1,158.49,204.08Z" fill="none" stroke="#003a50" stroke-miterlimit="10"/><path d="M163.59,204.08a.91.91,0,0,1,.51-.82.92.92,0,0,1,1.23.41,26.36,26.36,0,0,1,0,23.12.92.92,0,1,1-1.65-.81,24.43,24.43,0,0,0,0-21.49A.85.85,0,0,1,163.59,204.08Z" fill="none" stroke="#003a50" stroke-miterlimit="10"/><path d="M168.68,204.08a.91.91,0,0,1,.51-.82.92.92,0,0,1,1.23.41,26.36,26.36,0,0,1,0,23.12.92.92,0,1,1-1.65-.81,24.43,24.43,0,0,0,0-21.49A.85.85,0,0,1,168.68,204.08Z" fill="none" stroke="#003a50" stroke-miterlimit="10"/><path d="M173.77,204.08a.92.92,0,0,1,1.74-.41,26.36,26.36,0,0,1,0,23.12.92.92,0,1,1-1.65-.81,24.43,24.43,0,0,0,0-21.49A1,1,0,0,1,173.77,204.08Z" fill="none" stroke="#003a50" stroke-miterlimit="10"/><path d="M178.86,204.08a.92.92,0,0,1,1.74-.41,26.36,26.36,0,0,1,0,23.12A.91.91,0,1,1,179,226a24.52,24.52,0,0,0,0-21.49A.86.86,0,0,1,178.86,204.08Z" fill="none" stroke="#003a50" stroke-miterlimit="10"/><path d="M184,204.08a.91.91,0,0,1,.51-.82.93.93,0,0,1,1.24.41,26.45,26.45,0,0,1,0,23.12.93.93,0,0,1-1.23.42.91.91,0,0,1-.42-1.23,24.52,24.52,0,0,0,0-21.49A.86.86,0,0,1,184,204.08Z" fill="none" stroke="#003a50" stroke-miterlimit="10"/><path d="M153.4,204.08a.91.91,0,0,1,.51-.82.93.93,0,0,1,1.24.41,26.45,26.45,0,0,1,0,23.12.93.93,0,0,1-1.23.42.91.91,0,0,1-.42-1.23,24.52,24.52,0,0,0,0-21.49A.86.86,0,0,1,153.4,204.08Z" fill="none" stroke="#003a50" stroke-miterlimit="10"/><path d="M148.31,204.08a.92.92,0,0,1,1.74-.41,26.36,26.36,0,0,1,0,23.12.91.91,0,1,1-1.64-.81,24.52,24.52,0,0,0,0-21.49A.86.86,0,0,1,148.31,204.08Z" fill="none" stroke="#003a50" stroke-miterlimit="10"/></g><line x1="142.83" y1="215.23" x2="246.66" y2="215.23" fill="none" stroke="#003a50" stroke-miterlimit="10"/><rect x="252.41" y="16.87" width="34.02" height="105.94" fill="none" stroke="#003a50" stroke-miterlimit="10"/><g clip-path="url(#clip-path)"><path d="M281.53,34.2a1,1,0,0,1,.9.56,1,1,0,0,1-.45,1.35,28.77,28.77,0,0,1-25.26,0,1,1,0,0,1-.46-1.34,1,1,0,0,1,1.34-.46,26.81,26.81,0,0,0,23.49,0A1,1,0,0,1,281.53,34.2Z" fill="none" stroke="#003a50" stroke-miterlimit="10"/><path d="M281.53,39.77a1,1,0,0,1,.45,1.9,28.77,28.77,0,0,1-25.26,0,1,1,0,1,1,.88-1.8,26.72,26.72,0,0,0,23.49,0A1,1,0,0,1,281.53,39.77Z" fill="none" stroke="#003a50" stroke-miterlimit="10"/><path d="M281.53,45.33a1,1,0,0,1,.9.56,1,1,0,0,1-.45,1.35,28.77,28.77,0,0,1-25.26,0,1,1,0,0,1-.46-1.34,1,1,0,0,1,1.34-.46,26.81,26.81,0,0,0,23.49,0A1,1,0,0,1,281.53,45.33Z" fill="none" stroke="#003a50" stroke-miterlimit="10"/><path d="M281.53,50.9a1,1,0,0,1,.45,1.9,28.77,28.77,0,0,1-25.26,0,1,1,0,1,1,.88-1.8,26.72,26.72,0,0,0,23.49,0A1,1,0,0,1,281.53,50.9Z" fill="none" stroke="#003a50" stroke-miterlimit="10"/><path d="M281.53,56.47a1,1,0,0,1,.9.56,1,1,0,0,1-.45,1.34,28.77,28.77,0,0,1-25.26,0,1,1,0,1,1,.88-1.8,26.72,26.72,0,0,0,23.49,0A1,1,0,0,1,281.53,56.47Z" fill="none" stroke="#003a50" stroke-miterlimit="10"/><path d="M281.53,62a1,1,0,0,1,.45,1.9,28.77,28.77,0,0,1-25.26,0,1,1,0,1,1,.88-1.8,26.72,26.72,0,0,0,23.49,0A1,1,0,0,1,281.53,62Z" fill="none" stroke="#003a50" stroke-miterlimit="10"/><path d="M281.53,28.64a1,1,0,0,1,.45,1.9,28.77,28.77,0,0,1-25.26,0,1,1,0,1,1,.88-1.8,26.72,26.72,0,0,0,23.49,0A1,1,0,0,1,281.53,28.64Z" fill="none" stroke="#003a50" stroke-miterlimit="10"/><path d="M281.53,23.07a1,1,0,0,1,.9.56A1,1,0,0,1,282,25a28.54,28.54,0,0,1-12.63,2.92A28.54,28.54,0,0,1,256.72,25a1,1,0,0,1-.46-1.34,1,1,0,0,1,1.34-.46,26.48,26.48,0,0,0,11.75,2.71,26.43,26.43,0,0,0,11.74-2.71A1,1,0,0,1,281.53,23.07Z" fill="none" stroke="#003a50" stroke-miterlimit="10"/></g><line x1="269.35" y1="17.09" x2="269.35" y2="122.81" fill="none" stroke="#003a50" stroke-miterlimit="10"/><g clip-path="url(#clip-path)"><path d="M281.53,68.2a1,1,0,0,1,.45,1.9,28.77,28.77,0,0,1-25.26,0,1,1,0,0,1,.88-1.8,26.72,26.72,0,0,0,23.49,0A1,1,0,0,1,281.53,68.2Z" fill="none" stroke="#003a50" stroke-miterlimit="10"/><path d="M281.53,73.76a1,1,0,0,1,.9.56,1,1,0,0,1-.45,1.35,28.77,28.77,0,0,1-25.26,0,1,1,0,0,1-.46-1.34,1,1,0,0,1,1.34-.46,26.81,26.81,0,0,0,23.49,0A.9.9,0,0,1,281.53,73.76Z" fill="none" stroke="#003a50" stroke-miterlimit="10"/><path d="M281.53,79.33a1,1,0,0,1,.45,1.9,28.77,28.77,0,0,1-25.26,0,1,1,0,1,1,.88-1.8,26.72,26.72,0,0,0,23.49,0A1,1,0,0,1,281.53,79.33Z" fill="none" stroke="#003a50" stroke-miterlimit="10"/><path d="M469.31,319v41H423.54V316.76h43.55A2.22,2.22,0,0,1,469.31,319Z" fill="none" stroke="#003a50" stroke-miterlimit="10"/><path d="M515.18,318.75V360H469.4V318.75a2,2,0,0,1,2-2h41.8A2,2,0,0,1,515.18,318.75Z" fill="none" stroke="#003a50" stroke-miterlimit="10"/><path d="M423.54,316.76a3.1,3.1,0,0,0-3.33-2.82H416a3.1,3.1,0,0,0-3.33,2.82V365H526.05V317.19a3.11,3.11,0,0,0-3.33-2.83H518.5a3.1,3.1,0,0,0-3.32,2.83V360H423.54Z" fill="none" stroke="#003a50" stroke-miterlimit="10"/></g><rect x="423.54" y="350.76" width="91.64" height="9.25" fill="none" stroke="#003a50" stroke-miterlimit="10"/><g clip-path="url(#clip-path)"><rect x="299.15" y="381.85" width="34.02" height="84.03" rx="3.31" fill="none" stroke="#003a50" stroke-miterlimit="10"/><rect x="499.99" y="381.97" width="22.68" height="22.68" fill="none" stroke="#003a50" stroke-miterlimit="10"/><rect x="361.56" y="381.97" width="22.68" height="22.68" fill="none" stroke="#003a50" stroke-miterlimit="10"/><rect x="391.09" y="381.97" width="102.05" height="113.38" fill="none" stroke="#003a50" stroke-miterlimit="10"/></g><rect x="445.35" y="16.92" width="22.68" height="22.68" fill="none" stroke="#003a50" stroke-miterlimit="10"/><g clip-path="url(#clip-path)"><path d="M463.19,34.76a9.19,9.19,0,1,1,0-13A9.17,9.17,0,0,1,463.19,34.76Z" fill="none" stroke="#003a50" stroke-miterlimit="10"/><path d="M463.82,34.07c-1.7-.17-3.41.49-5.07-1.17-2.44-2.44.15-5-2.3-7.45s-5,.13-7.45-2.3" fill="none" stroke="#003a50" stroke-miterlimit="10"/></g><rect x="311.26" y="16.92" width="22.68" height="22.68" fill="none" stroke="#003a50" stroke-miterlimit="10"/><g clip-path="url(#clip-path)"><path d="M329.1,34.76a9.2,9.2,0,1,1,0-13A9.19,9.19,0,0,1,329.1,34.76Z" fill="none" stroke="#003a50" stroke-miterlimit="10"/><path d="M329.72,34.07c-1.7-.17-3.41.49-5.06-1.17-2.44-2.44.14-5-2.3-7.45s-5,.13-7.46-2.3" fill="none" stroke="#003a50" stroke-miterlimit="10"/></g><rect x="338.73" y="16.92" width="102.05" height="113.39" fill="none" stroke="#003a50" stroke-miterlimit="10"/><g clip-path="url(#clip-path)"><path d="M430.78,120.57h-82a2.09,2.09,0,0,1-2.09-2.08V50.85h86.22v67.64A2.08,2.08,0,0,1,430.78,120.57Z" fill="none" stroke="#003a50" stroke-miterlimit="10"/><rect x="346.39" y="24.36" width="42.5" height="22.88" rx="1.98" fill="none" stroke="#003a50" stroke-miterlimit="10"/><rect x="390.62" y="24.36" width="42.5" height="22.88" rx="1.98" fill="none" stroke="#003a50" stroke-miterlimit="10"/></g><line x1="433.12" y1="64.7" x2="346.39" y2="64.7" fill="none" stroke="#003a50" stroke-miterlimit="10"/><g clip-path="url(#clip-path)"><rect x="366.69" y="-22.58" width="22.68" height="22.68" fill="none" stroke="#003a50" stroke-miterlimit="10"/><rect x="500.78" y="-22.58" width="22.68" height="22.68" fill="none" stroke="#003a50" stroke-miterlimit="10"/><rect x="393.94" y="-113.29" width="102.05" height="113.39" fill="none" stroke="#003a50" stroke-miterlimit="10"/><path d="M243,251a1,1,0,0,1,.9.56,1,1,0,0,1-.46,1.34,28.77,28.77,0,0,1-25.26,0,1,1,0,0,1,.88-1.8,26.74,26.74,0,0,0,23.5,0A1,1,0,0,1,243,251Z" fill="none" stroke="#003a50" stroke-miterlimit="10"/><path d="M243,245.44a1,1,0,0,1,.44,1.91,28.77,28.77,0,0,1-25.26,0,1,1,0,0,1-.46-1.34,1,1,0,0,1,1.34-.46,26.83,26.83,0,0,0,23.5,0A1,1,0,0,1,243,245.44Z" fill="none" stroke="#003a50" stroke-miterlimit="10"/><path d="M243,239.88a1,1,0,0,1,.9.56,1,1,0,0,1-.46,1.34,28.77,28.77,0,0,1-25.26,0,1,1,0,0,1,.88-1.8,26.74,26.74,0,0,0,23.5,0A1,1,0,0,1,243,239.88Z" fill="none" stroke="#003a50" stroke-miterlimit="10"/></g><line x1="230.82" y1="231.05" x2="230.82" y2="261.47" fill="none" stroke="#003a50" stroke-miterlimit="10"/><g clip-path="url(#clip-path)"><rect x="207.02" y="381.94" width="85.75" height="31.12" fill="none" stroke="#003a50" stroke-miterlimit="10"/><path d="M172.24,410.49V381.93H149.16v28.56a11.54,11.54,0,0,0,23.08,0Z" fill="none" stroke="#003a50" stroke-miterlimit="10"/><rect x="149.16" y="381.93" width="23.08" height="11.08" fill="none" stroke="#003a50" stroke-miterlimit="10"/><rect x="64.96" y="381.94" width="67.72" height="42.22" fill="none" stroke="#003a50" stroke-miterlimit="10"/></g><rect x="67.16" y="331.77" width="105.88" height="33.88" fill="none" stroke="#003a50" stroke-miterlimit="10"/><g clip-path="url(#clip-path)"><path d="M83.13,336.57a1,1,0,0,1,.52-.89.91.91,0,0,1,1.26.45,30.45,30.45,0,0,1,0,25.16.91.91,0,0,1-1.25.46,1,1,0,0,1-.43-1.34,28.32,28.32,0,0,0,0-23.4A1,1,0,0,1,83.13,336.57Z" fill="none" stroke="#003a50" stroke-miterlimit="10"/><path d="M88.32,336.57a1,1,0,0,1,.53-.89.9.9,0,0,1,1.25.45,30.45,30.45,0,0,1,0,25.16.91.91,0,0,1-1.25.46,1,1,0,0,1-.43-1.34,28.22,28.22,0,0,0,0-23.4A1,1,0,0,1,88.32,336.57Z" fill="none" stroke="#003a50" stroke-miterlimit="10"/><path d="M93.52,336.57a1,1,0,0,1,.52-.89.9.9,0,0,1,1.25.45,30.35,30.35,0,0,1,0,25.16.91.91,0,0,1-1.25.46,1,1,0,0,1-.43-1.34,28.22,28.22,0,0,0,0-23.4A1,1,0,0,1,93.52,336.57Z" fill="none" stroke="#003a50" stroke-miterlimit="10"/><path d="M98.71,336.57a1,1,0,0,1,.52-.89.91.91,0,0,1,1.26.45,30.45,30.45,0,0,1,0,25.16.91.91,0,0,1-1.25.46,1,1,0,0,1-.43-1.34,28.32,28.32,0,0,0,0-23.4A1,1,0,0,1,98.71,336.57Z" fill="none" stroke="#003a50" stroke-miterlimit="10"/><path d="M103.9,336.57a1,1,0,0,1,.53-.89.9.9,0,0,1,1.25.45,30.45,30.45,0,0,1,0,25.16.91.91,0,0,1-1.25.46,1,1,0,0,1-.43-1.34,28.32,28.32,0,0,0,0-23.4A1,1,0,0,1,103.9,336.57Z" fill="none" stroke="#003a50" stroke-miterlimit="10"/><path d="M109.09,336.57a1,1,0,0,1,.53-.89.9.9,0,0,1,1.25.45,30.45,30.45,0,0,1,0,25.16.91.91,0,0,1-1.25.46,1,1,0,0,1-.43-1.34,28.22,28.22,0,0,0,0-23.4A1,1,0,0,1,109.09,336.57Z" fill="none" stroke="#003a50" stroke-miterlimit="10"/><path d="M77.94,336.57a1,1,0,0,1,.52-.89.9.9,0,0,1,1.25.45,30.35,30.35,0,0,1,0,25.16.9.9,0,0,1-1.24.46,1,1,0,0,1-.44-1.34A28.22,28.22,0,0,0,78,337,1.12,1.12,0,0,1,77.94,336.57Z" fill="none" stroke="#003a50" stroke-miterlimit="10"/><path d="M72.75,336.57a1,1,0,0,1,.52-.89.9.9,0,0,1,1.25.45,30.35,30.35,0,0,1,0,25.16.91.91,0,0,1-1.25.46,1,1,0,0,1-.43-1.34,28.22,28.22,0,0,0,0-23.4A1,1,0,0,1,72.75,336.57Z" fill="none" stroke="#003a50" stroke-miterlimit="10"/></g><line x1="67.16" y1="348.71" x2="173.04" y2="348.71" fill="none" stroke="#003a50" stroke-miterlimit="10"/><g clip-path="url(#clip-path)"><rect x="253.46" y="-147.79" width="26.5" height="148.24" fill="none" stroke="#003a50" stroke-miterlimit="10"/><line x1="266.66" y1="-147.66" x2="266.66" y2="0.32" fill="none" stroke="#003a50" stroke-miterlimit="10"/><rect x="279.96" y="-26.04" width="34.54" height="26.5" fill="none" stroke="#003a50" stroke-miterlimit="10"/><path d="M134.05,264.44v3.08a38.71,38.71,0,0,1-38.71,38.71V264.44" fill="none" stroke="#003a50" stroke-miterlimit="10" stroke-width="1.6"/><path d="M302,183.34v3.38a42.58,42.58,0,0,1-42.58,42.59v-46" fill="none" stroke="#003a50" stroke-miterlimit="10" stroke-width="1.6"/><path d="M56.62,274.23H52.56A51.12,51.12,0,0,0,1.43,325.35H56.62" fill="none" stroke="#003a50" stroke-miterlimit="10" stroke-width="1.6"/><path d="M56.62,8.7H52.56A51.13,51.13,0,0,0,1.43,59.83H56.62" fill="none" stroke="#003a50" stroke-miterlimit="10" stroke-width="1.6"/><path d="M248.45,133.69h3.08a38.72,38.72,0,0,1,38.71,38.72H248.45" fill="none" stroke="#003a50" stroke-miterlimit="10" stroke-width="1.6"/><rect x="50.84" y="97.93" width="16.32" height="176.83" fill="#003a50"/><rect x="50.84" y="324.39" width="16.32" height="181.89" fill="#003a50"/><rect x="63.32" y="365.63" width="474.34" height="16.32" fill="#003a50"/><rect x="50.84" y="-165.61" width="10.82" height="175.07" fill="#003a50"/><rect x="50.84" y="58.38" width="10.82" height="37.76" fill="#003a50"/><rect x="245.66" y="0.38" width="287.97" height="16.26" fill="#003a50"/><rect x="50.84" y="84.05" width="201.28" height="16.26" fill="#003a50"/><rect x="235.88" y="-152.61" width="17.28" height="252.92" fill="#003a50"/><rect x="529.63" y="-21.58" width="34.44" height="96.07" fill="#003a50"/><rect x="533.63" y="48.59" width="44.33" height="25.9" fill="#003a50"/><rect x="529.63" y="345.82" width="33.77" height="96.07" fill="#003a50"/><rect x="529.63" y="162.1" width="48.33" height="96.07" fill="#003a50"/><rect x="200.64" y="375.84" width="6.38" height="112.92" fill="#003a50"/><rect x="292.77" y="375.84" width="6.38" height="110.35" fill="#003a50"/><rect x="133.04" y="261.69" width="44.36" height="6.38" fill="#003a50"/><rect x="63.06" y="193.19" width="187.46" height="6.38" fill="#003a50"/><rect x="136.2" y="198.38" width="6.38" height="65.34" fill="#003a50"/><rect x="173.04" y="331.78" width="6.38" height="40.91" fill="#003a50"/><rect x="152.03" y="344.46" width="24.71" height="6.38" fill="#003a50"/><rect x="152.03" y="344.46" width="6.38" height="26.75" fill="#003a50"/><rect x="178.57" y="377.9" width="6.38" height="26.75" fill="#003a50"/><rect x="214.56" y="261.69" width="35.96" height="6.38" fill="#003a50"/><rect x="56.62" y="261.69" width="39.55" height="6.38" fill="#003a50"/><rect x="246.78" y="84.05" width="6.38" height="50.48" fill="#003a50"/><rect x="96.17" y="96.14" width="6.38" height="97.9" fill="#003a50"/><rect x="63.06" y="156.57" width="37.83" height="6.38" fill="#003a50"/><rect x="246.78" y="171.58" width="6.38" height="96.49" fill="#003a50"/><rect x="314.43" y="-49.79" width="6.38" height="59.44" fill="#003a50"/><rect x="301.14" y="180.59" width="228.49" height="6.38" fill="#003a50"/><rect x="248.9" y="180.59" width="11.25" height="6.38" fill="#003a50"/><line x1="177.39" y1="268.07" x2="177.39" y2="270.9" fill="none" stroke="#003a50" stroke-miterlimit="10"/><line x1="177.39" y1="276.27" x2="177.39" y2="327.31" fill="none" stroke="#003a50" stroke-miterlimit="10" stroke-dasharray="5.37 5.37"/><line x1="177.39" y1="330" x2="177.39" y2="332.84" fill="none" stroke="#003a50" stroke-miterlimit="10"/><rect x="208.51" y="-115.11" width="6.38" height="176.75" fill="#003a50"/><rect x="82.77" y="-121.18" width="6.38" height="121.57" fill="#003a50"/><rect x="57.56" y="61.64" width="157.33" height="6.38" fill="#003a50"/><rect x="57.56" y="-2.8" width="31.58" height="6.38" fill="#003a50"/></g><g clip-path="url(#clip-path)"><path d="M459,290.49l-2.48,1.95V290.2l2.73-2.27h1.86v11.91H459Z" fill="#003a50"/><path d="M463.86,296.49h2.21s0,.07,0,.18a2.71,2.71,0,0,0,.23.43,2.37,2.37,0,0,0,.41.49,2.2,2.2,0,0,0,.75.41,3.21,3.21,0,0,0,1.05.17,2.68,2.68,0,0,0,2.24-1.06,4.34,4.34,0,0,0,.81-2.71h-.06a2,2,0,0,1-.44.46,2.42,2.42,0,0,1-.6.4,3.58,3.58,0,0,1-.95.33,5.43,5.43,0,0,1-1.22.13,5,5,0,0,1-3.37-1.13,3.73,3.73,0,0,1,.05-5.72,5.54,5.54,0,0,1,3.61-1.11,4.81,4.81,0,0,1,3.87,1.55,6.38,6.38,0,0,1,1.32,4.27v.4a6.68,6.68,0,0,1-1.37,4.31,4.69,4.69,0,0,1-3.89,1.71,6,6,0,0,1-2.17-.37,3.71,3.71,0,0,1-1.47-.95A3.31,3.31,0,0,1,463.86,296.49Zm2.77-3.16a3.6,3.6,0,0,0,3.95,0,1.86,1.86,0,0,0,.78-1.57,1.89,1.89,0,0,0-.77-1.58,3.24,3.24,0,0,0-2-.58,3.17,3.17,0,0,0-2,.58,2,2,0,0,0,0,3.15Z" fill="#003a50"/><path d="M476,299.71a1,1,0,0,1-.32-.81,1.07,1.07,0,0,1,.32-.81,1.25,1.25,0,0,1,.88-.29,1.23,1.23,0,0,1,.86.29,1.07,1.07,0,0,1,.32.81,1,1,0,0,1-.32.81,1.28,1.28,0,0,1-.86.29A1.3,1.3,0,0,1,476,299.71Z" fill="#003a50"/><path d="M489.77,299.84h-9.93v-1.56a2.79,2.79,0,0,1,.58-1.75,4,4,0,0,1,1.44-1.19c.5-.26,1.13-.55,1.87-.87s1.33-.55,1.88-.77a4.07,4.07,0,0,0,1.44-.91,1.78,1.78,0,0,0,.58-1.31c0-1.25-.89-1.88-2.67-1.88s-2.67.72-2.67,2.16v.4h-2.11v-.4a3.62,3.62,0,0,1,1.26-3,5.44,5.44,0,0,1,3.51-1,5.73,5.73,0,0,1,3.52,1,3.31,3.31,0,0,1,1.27,2.75,3.17,3.17,0,0,1-.56,1.84,4.16,4.16,0,0,1-1.4,1.3,16.7,16.7,0,0,1-1.84.93c-.62.28-1.23.53-1.82.75a5.18,5.18,0,0,0-1.41.75,1.2,1.2,0,0,0-.56.95h7.62Z" fill="#003a50"/><path d="M192.65,256.3h-9.93v-1.56a2.85,2.85,0,0,1,.58-1.75,4,4,0,0,1,1.45-1.19c.5-.26,1.12-.55,1.87-.87s1.32-.55,1.87-.77a4.26,4.26,0,0,0,1.45-.91,1.82,1.82,0,0,0,.57-1.31c0-1.25-.89-1.88-2.66-1.88s-2.68.72-2.68,2.16v.4h-2.11v-.4a3.6,3.6,0,0,1,1.27-3,5.4,5.4,0,0,1,3.51-1,5.72,5.72,0,0,1,3.51,1,3.29,3.29,0,0,1,1.27,2.75,3.1,3.1,0,0,1-.56,1.84,4.26,4.26,0,0,1-1.4,1.3,17.49,17.49,0,0,1-1.83.93q-.95.42-1.83.75a5.11,5.11,0,0,0-1.4.75,1.22,1.22,0,0,0-.57,1h7.62Z" fill="#003a50"/><path d="M194.76,256.16a1,1,0,0,1-.33-.8,1,1,0,0,1,.33-.81,1.4,1.4,0,0,1,1.73,0,1,1,0,0,1,.33.81,1,1,0,0,1-.33.8,1.4,1.4,0,0,1-1.73,0Z" fill="#003a50"/><path d="M208.53,256.3H198.6v-1.56a2.79,2.79,0,0,1,.58-1.75,3.91,3.91,0,0,1,1.45-1.19c.49-.26,1.12-.55,1.87-.87s1.32-.55,1.87-.77a4.36,4.36,0,0,0,1.45-.91,1.82,1.82,0,0,0,.57-1.31c0-1.25-.89-1.88-2.67-1.88s-2.67.72-2.67,2.16v.4h-2.11v-.4a3.62,3.62,0,0,1,1.26-3,5.45,5.45,0,0,1,3.52-1,5.72,5.72,0,0,1,3.51,1,3.29,3.29,0,0,1,1.27,2.75,3.17,3.17,0,0,1-.56,1.84,4.26,4.26,0,0,1-1.4,1.3,16.7,16.7,0,0,1-1.84.93c-.62.28-1.23.53-1.82.75a5.18,5.18,0,0,0-1.41.75,1.23,1.23,0,0,0-.56,1h7.62Z" fill="#003a50"/><path d="M150.09,289.79h-5.83V288h8.87v1.84l-4.53,2.65v.07h1.28a3.86,3.86,0,0,1,2.79,1,3.52,3.52,0,0,1,1.05,2.66A3.35,3.35,0,0,1,152.4,299a7,7,0,0,1-7.25,0,3.39,3.39,0,0,1-1.33-2.86v-.32h2.11v.32c0,1.36.95,2,2.84,2s2.84-.67,2.84-2-.94-2-2.84-2h-3.26v-1.67l4.58-2.68Z" fill="#003a50"/><path d="M155.82,299.72a1,1,0,0,1-.32-.8,1.07,1.07,0,0,1,.32-.81,1.25,1.25,0,0,1,.88-.3,1.22,1.22,0,0,1,.86.3,1,1,0,0,1,.32.81,1,1,0,0,1-.32.8,1.22,1.22,0,0,1-.86.3A1.25,1.25,0,0,1,155.82,299.72Z" fill="#003a50"/><path d="M168.16,299.85h-2.11v-2.64h-7v-1.85l6.3-7.41h2.79v7.41h1.59v1.85h-1.59Zm-2.11-4.49V290H166l-4.47,5.27v.05Z" fill="#003a50"/><path d="M105.59,250.35l-2.48,2v-2.24l2.73-2.27h1.86V259.7h-2.11Z" fill="#003a50"/><path d="M110.23,259.57a1.15,1.15,0,0,1,0-1.61,1.4,1.4,0,0,1,1.73,0,1.15,1.15,0,0,1,0,1.61,1.4,1.4,0,0,1-1.73,0Z" fill="#003a50"/><path d="M119.51,251.72a5,5,0,0,1,3.34,1.06,3.67,3.67,0,0,1,1.25,3,3.73,3.73,0,0,1-1.29,3,5.39,5.39,0,0,1-3.55,1.08,5.77,5.77,0,0,1-3.56-1,3.15,3.15,0,0,1-1.29-2.68h2.11a1.51,1.51,0,0,0,.7,1.33,3.53,3.53,0,0,0,2,.49,3.15,3.15,0,0,0,2-.57,2.37,2.37,0,0,0,0-3.39,3.25,3.25,0,0,0-2.07-.58,3.7,3.7,0,0,0-1.92.41,2,2,0,0,0-.7.64l0,.13h-2.11v-6.88h8.88v1.84h-6.77v3h0a2.78,2.78,0,0,1,.4-.31,3.94,3.94,0,0,1,.55-.26A5.6,5.6,0,0,1,119.51,251.72Z" fill="#003a50"/><path d="M184.53,146.7h-2.11v-2.65h-7v-1.84l6.29-7.42h2.8v7.42h1.59v1.84h-1.59Zm-2.11-4.49v-5.33h-.07l-4.48,5.28v.05Z" fill="#003a50"/><path d="M187.81,146.57a1,1,0,0,1-.33-.81,1,1,0,0,1,.33-.81,1.44,1.44,0,0,1,1.73,0,1,1,0,0,1,.33.81,1,1,0,0,1-.33.81,1.44,1.44,0,0,1-1.73,0Z" fill="#003a50"/><path d="M197.09,138.72a5,5,0,0,1,3.34,1.06,4.18,4.18,0,0,1,0,6,5.39,5.39,0,0,1-3.55,1.08,5.77,5.77,0,0,1-3.56-1,3.15,3.15,0,0,1-1.29-2.68h2.11a1.53,1.53,0,0,0,.7,1.33,3.53,3.53,0,0,0,2,.49,3.15,3.15,0,0,0,2-.57,2.06,2.06,0,0,0,.7-1.69,2,2,0,0,0-.73-1.7,3.25,3.25,0,0,0-2.07-.58,3.58,3.58,0,0,0-1.92.41,1.93,1.93,0,0,0-.7.64l-.05.13H192v-6.88h8.88v1.84H194.1v3h.05a2.22,2.22,0,0,1,.4-.31,3.94,3.94,0,0,1,.55-.26A5.6,5.6,0,0,1,197.09,138.72Z" fill="#003a50"/><path d="M456.47,137.35l-2.49,2v-2.24l2.74-2.27h1.86V146.7h-2.11Z" fill="#003a50"/><path d="M466.47,138.72a5,5,0,0,1,3.34,1.06,4.16,4.16,0,0,1,0,6,5.38,5.38,0,0,1-3.54,1.08,5.8,5.8,0,0,1-3.57-1,3.14,3.14,0,0,1-1.28-2.68h2.11a1.53,1.53,0,0,0,.7,1.33,3.49,3.49,0,0,0,2,.49,3.17,3.17,0,0,0,2-.57,2.09,2.09,0,0,0,.7-1.69,2,2,0,0,0-.74-1.7,3.25,3.25,0,0,0-2.07-.58,3.61,3.61,0,0,0-1.92.41,1.87,1.87,0,0,0-.69.64l-.05.13h-2.11v-6.88h8.87v1.84h-6.76v3h.05a1.83,1.83,0,0,1,.39-.31,3.94,3.94,0,0,1,.55-.26A5.63,5.63,0,0,1,466.47,138.72Z" fill="#003a50"/><path d="M473.18,146.57a1,1,0,0,1-.33-.81,1,1,0,0,1,.33-.81,1.44,1.44,0,0,1,1.73,0,1,1,0,0,1,.33.81,1,1,0,0,1-.33.81,1.44,1.44,0,0,1-1.73,0Z" fill="#003a50"/><path d="M479.08,137.35l-2.48,2v-2.24l2.73-2.27h1.86V146.7h-2.11Z" fill="#003a50"/></g></svg>