<svg id="Слой_1" data-name="Слой 1" xmlns="http://www.w3.org/2000/svg" xmlns:xlink="http://www.w3.org/1999/xlink" viewBox="0 0 583.94 844.72"><defs><clipPath id="clip-path"><polygon points="0.17 0 0.17 377.43 51.02 377.43 51.02 444.16 157.55 444.16 157.55 844.72 581.56 844.72 581.56 0 0.17 0" fill="none"/></clipPath></defs><polygon points="51.02 443.77 51.02 444.16 157.55 444.16 157.55 757.73 160.8 440.54 51.02 443.77" fill="#fff"/><polygon points="53.01 8.28 53.01 293.48 66.73 325.78 66.73 375.28 66.73 434.25 160.8 440.54 161.39 827.41 553.26 826.65 553.26 430.5 553 430.5 553 9.02 74.17 9.02 74.17 8.28 53.01 8.28" fill="#fff"/><rect x="66.8" width="487.76" height="3.92" transform="translate(0 0.48) rotate(-0.09)" fill="#fff"/><g clip-path="url(#clip-path)"><rect x="-561.86" y="-1375.72" width="1115.44" height="2194.74" fill="none" stroke="#003a50" stroke-miterlimit="10"/><polygon points="-537.04 -290 -537.04 796.06 529.44 796.06 529.44 -1351.81 -537.04 -1351.96 -537.04 -358.81 -537.04 -290" fill="none" stroke="#003a50" stroke-miterlimit="10"/></g><rect x="195.07" y="804.41" width="84.24" height="4.56" fill="#fff"/><rect x="195.08" y="804.41" width="84.24" height="4.56" fill="none" stroke="#003a50" stroke-miterlimit="10"/><line x1="195.07" y1="806.69" x2="279.31" y2="806.69" fill="none" stroke="#003a50" stroke-miterlimit="10"/><rect x="195.07" y="804.41" width="4.25" height="4.56" fill="#fff"/><rect x="195.08" y="804.41" width="4.25" height="4.56" fill="none" stroke="#003a50" stroke-miterlimit="10"/><rect x="275.05" y="804.41" width="4.25" height="4.56" fill="#fff"/><rect x="275.06" y="804.41" width="4.25" height="4.56" fill="none" stroke="#003a50" stroke-miterlimit="10"/><rect x="235.07" y="804.41" width="4.25" height="4.56" fill="#fff"/><rect x="235.07" y="804.41" width="4.25" height="4.56" fill="none" stroke="#003a50" stroke-miterlimit="10"/><rect x="374.17" y="804.41" width="89.36" height="4.56" fill="#fff"/><rect x="374.18" y="804.41" width="89.36" height="4.56" fill="none" stroke="#003a50" stroke-miterlimit="10"/><line x1="374.18" y1="806.69" x2="463.54" y2="806.69" fill="none" stroke="#003a50" stroke-miterlimit="10"/><rect x="374.17" y="804.41" width="4.51" height="4.56" fill="#fff"/><rect x="374.18" y="804.41" width="4.51" height="4.56" fill="none" stroke="#003a50" stroke-miterlimit="10"/><rect x="459.03" y="804.41" width="4.51" height="4.56" fill="#fff"/><rect x="459.03" y="804.41" width="4.51" height="4.56" fill="none" stroke="#003a50" stroke-miterlimit="10"/><rect x="416.6" y="804.41" width="4.51" height="4.56" fill="#fff"/><rect x="416.6" y="804.41" width="4.51" height="4.56" fill="none" stroke="#003a50" stroke-miterlimit="10"/><rect x="540.36" y="443.27" width="4.56" height="87.73" fill="#fff"/><rect x="540.36" y="443.28" width="4.56" height="87.73" fill="none" stroke="#003a50" stroke-miterlimit="10"/><line x1="542.64" y1="531.01" x2="542.64" y2="443.27" fill="none" stroke="#003a50" stroke-miterlimit="10"/><rect x="540.36" y="526.58" width="4.56" height="4.42" fill="#fff"/><rect x="540.36" y="526.58" width="4.56" height="4.42" fill="none" stroke="#003a50" stroke-miterlimit="10"/><rect x="540.36" y="443.28" width="4.56" height="4.42" fill="#fff"/><rect x="540.36" y="443.28" width="4.56" height="4.42" fill="none" stroke="#003a50" stroke-miterlimit="10"/><rect x="540.36" y="484.93" width="4.56" height="4.42" fill="#fff"/><rect x="540.36" y="484.93" width="4.56" height="4.42" fill="none" stroke="#003a50" stroke-miterlimit="10"/><rect x="540.36" y="625.62" width="4.56" height="87.64" fill="#fff"/><rect x="540.36" y="625.62" width="4.56" height="87.64" fill="none" stroke="#003a50" stroke-miterlimit="10"/><line x1="542.64" y1="713.26" x2="542.64" y2="625.62" fill="none" stroke="#003a50" stroke-miterlimit="10"/><rect x="540.36" y="708.84" width="4.56" height="4.42" fill="#fff"/><rect x="540.36" y="708.84" width="4.56" height="4.42" fill="none" stroke="#003a50" stroke-miterlimit="10"/><rect x="540.36" y="625.62" width="4.56" height="4.42" fill="#fff"/><rect x="540.36" y="625.62" width="4.56" height="4.42" fill="none" stroke="#003a50" stroke-miterlimit="10"/><rect x="540.36" y="667.23" width="4.56" height="4.42" fill="#fff"/><rect x="540.36" y="667.23" width="4.56" height="4.42" fill="none" stroke="#003a50" stroke-miterlimit="10"/><rect x="540.36" y="260.72" width="4.56" height="87.34" fill="#fff"/><rect x="540.36" y="260.72" width="4.56" height="87.34" fill="none" stroke="#003a50" stroke-miterlimit="10"/><line x1="542.64" y1="348.07" x2="542.64" y2="260.72" fill="none" stroke="#003a50" stroke-miterlimit="10"/><rect x="540.36" y="343.65" width="4.56" height="4.41" fill="#fff"/><rect x="540.36" y="343.66" width="4.56" height="4.41" fill="none" stroke="#003a50" stroke-miterlimit="10"/><rect x="540.36" y="260.72" width="4.56" height="4.41" fill="#fff"/><rect x="540.36" y="260.72" width="4.56" height="4.41" fill="none" stroke="#003a50" stroke-miterlimit="10"/><rect x="540.36" y="302.19" width="4.56" height="4.41" fill="#fff"/><rect x="540.36" y="302.19" width="4.56" height="4.41" fill="none" stroke="#003a50" stroke-miterlimit="10"/><rect x="540.36" y="76.73" width="4.56" height="87.34" fill="#fff"/><rect x="540.36" y="76.73" width="4.56" height="87.34" fill="none" stroke="#003a50" stroke-miterlimit="10"/><line x1="542.64" y1="164.08" x2="542.64" y2="76.73" fill="none" stroke="#003a50" stroke-miterlimit="10"/><rect x="540.36" y="159.67" width="4.56" height="4.41" fill="#fff"/><rect x="540.36" y="159.67" width="4.56" height="4.41" fill="none" stroke="#003a50" stroke-miterlimit="10"/><rect x="540.36" y="76.73" width="4.56" height="4.41" fill="#fff"/><rect x="540.36" y="76.73" width="4.56" height="4.41" fill="none" stroke="#003a50" stroke-miterlimit="10"/><rect x="540.36" y="118.2" width="4.56" height="4.41" fill="#fff"/><rect x="540.36" y="118.2" width="4.56" height="4.41" fill="none" stroke="#003a50" stroke-miterlimit="10"/><rect x="101.86" y="170.7" width="98.36" height="45.27" fill="none" stroke="#003a50" stroke-miterlimit="10"/><g clip-path="url(#clip-path)"><rect x="105.91" y="176.44" width="89.98" height="34.21" rx="13.7" fill="none" stroke="#003a50" stroke-miterlimit="10"/><path d="M121.48,191.1a2.36,2.36,0,1,0,2.36,2.36A2.36,2.36,0,0,0,121.48,191.1Z" fill="none" stroke="#003a50" stroke-miterlimit="10"/><path d="M201.4,265.75H172.83v23.08H201.4a11.54,11.54,0,0,0,0-23.08Z" fill="none" stroke="#003a50" stroke-miterlimit="10"/></g><rect x="172.84" y="265.75" width="11.08" height="23.08" fill="none" stroke="#003a50" stroke-miterlimit="10"/><rect x="227.59" y="433.51" width="33.97" height="34.02" fill="none" stroke="#003a50" stroke-miterlimit="10"/><g clip-path="url(#clip-path)"><path d="M248.89,449.73V438.68h-8.6v11.05a3.55,3.55,0,0,0,3.54,3.54h1.52A3.54,3.54,0,0,0,248.89,449.73Z" fill="none" stroke="#003a50" stroke-miterlimit="10"/></g><polyline points="241.12 463.83 244.59 463.83 248.07 463.83" fill="none" stroke="#003a50" stroke-miterlimit="10"/><line x1="244.59" y1="453.27" x2="244.59" y2="463.83" fill="none" stroke="#003a50" stroke-miterlimit="10"/><g clip-path="url(#clip-path)"><rect x="123.15" y="476.75" width="34.02" height="33.97" fill="none" stroke="#003a50" stroke-miterlimit="10"/><path d="M144.46,492.22v-11h-8.61v11a3.55,3.55,0,0,0,3.55,3.55h1.51A3.55,3.55,0,0,0,144.46,492.22Z" fill="none" stroke="#003a50" stroke-miterlimit="10"/></g><rect x="234.5" y="547.12" width="34.02" height="34.02" fill="none" stroke="#003a50" stroke-miterlimit="10"/><g clip-path="url(#clip-path)"><path d="M263.92,571.73a4.64,4.64,0,1,1-4.64-4.63A4.64,4.64,0,0,1,263.92,571.73Z" fill="none" stroke="#003a50" stroke-miterlimit="10"/><path d="M248.43,571.73a4.64,4.64,0,1,1-4.63-4.63A4.63,4.63,0,0,1,248.43,571.73Z" fill="none" stroke="#003a50" stroke-miterlimit="10"/><path d="M263.92,556.64a4.64,4.64,0,1,1-4.64-4.63A4.64,4.64,0,0,1,263.92,556.64Z" fill="none" stroke="#003a50" stroke-miterlimit="10"/><path d="M248.43,556.64A4.64,4.64,0,1,1,243.8,552,4.63,4.63,0,0,1,248.43,556.64Z" fill="none" stroke="#003a50" stroke-miterlimit="10"/><rect x="269.13" y="-33.84" width="34.02" height="34.02" fill="none" stroke="#003a50" stroke-miterlimit="10"/><rect x="123.23" y="517.86" width="34.02" height="34.02" fill="none" stroke="#003a50" stroke-miterlimit="10"/><path d="M132.64,547.28a4.64,4.64,0,1,1,4.63-4.64A4.64,4.64,0,0,1,132.64,547.28Z" fill="none" stroke="#003a50" stroke-miterlimit="10"/><path d="M132.64,531.79a4.64,4.64,0,1,1,4.63-4.63A4.63,4.63,0,0,1,132.64,531.79Z" fill="none" stroke="#003a50" stroke-miterlimit="10"/><path d="M147.73,547.28a4.64,4.64,0,1,1,4.63-4.64A4.64,4.64,0,0,1,147.73,547.28Z" fill="none" stroke="#003a50" stroke-miterlimit="10"/><path d="M147.73,531.79a4.64,4.64,0,1,1,4.63-4.63A4.63,4.63,0,0,1,147.73,531.79Z" fill="none" stroke="#003a50" stroke-miterlimit="10"/></g><rect x="379.94" y="228.61" width="102.05" height="17.01" fill="none" stroke="#003a50" stroke-miterlimit="10"/><polygon points="473.96 237.66 431.07 234.13 387.96 237.66 387.96 240.11 473.96 240.11 473.96 237.66" fill="none" stroke="#003a50" stroke-miterlimit="10"/><rect x="354.17" y="198.39" width="175.03" height="17.01" fill="none" stroke="#003a50" stroke-miterlimit="10"/><polygon points="484.69 206.35 441.79 209.88 398.69 206.35 398.69 203.9 484.69 203.9 484.69 206.35" fill="none" stroke="#003a50" stroke-miterlimit="10"/><g clip-path="url(#clip-path)"><rect x="123.24" y="476.85" width="33.59" height="122.25" fill="none" stroke="#003a50" stroke-miterlimit="10"/><rect x="76.17" y="444.12" width="80.66" height="32.72" fill="none" stroke="#003a50" stroke-miterlimit="10"/><rect x="212.94" y="-33.97" width="152.36" height="34.28" fill="none" stroke="#003a50" stroke-miterlimit="10"/></g><rect x="353.48" y="674.29" width="52.33" height="113.67" fill="none" stroke="#003a50" stroke-miterlimit="10"/><g clip-path="url(#clip-path)"><path d="M396.88,684H362.83a2.11,2.11,0,0,0-2.1,2.11v67.62H399V686.1A2.11,2.11,0,0,0,396.88,684Z" fill="none" stroke="#003a50" stroke-miterlimit="10"/></g><rect x="360.73" y="739.87" width="38.26" height="13.85" fill="none" stroke="#003a50" stroke-miterlimit="10"/><g clip-path="url(#clip-path)"><rect x="360.67" y="757.33" width="38.71" height="22.88" rx="2.2" fill="none" stroke="#003a50" stroke-miterlimit="10"/></g><rect x="247.12" y="228.11" width="42.22" height="88.73" fill="none" stroke="#003a50" stroke-miterlimit="10"/><g clip-path="url(#clip-path)"><path d="M270.69,249.28a2.46,2.46,0,1,1-2.46-2.61A2.54,2.54,0,0,1,270.69,249.28Z" fill="none" stroke="#003a50" stroke-miterlimit="10"/></g><rect x="66.25" y="58.56" width="25.39" height="71.99" fill="none" stroke="#003a50" stroke-miterlimit="10"/><g clip-path="url(#clip-path)"><rect x="64.53" y="101.82" width="25.04" height="24.4" rx="2.83" fill="none" stroke="#003a50" stroke-miterlimit="10"/><path d="M79,114a1.92,1.92,0,1,1-1.92-1.91A1.92,1.92,0,0,1,79,114Z" fill="none" stroke="#003a50" stroke-miterlimit="10"/><rect x="64.53" y="66.05" width="25.04" height="24.4" rx="2.83" fill="none" stroke="#003a50" stroke-miterlimit="10"/><path d="M79,78.26a1.92,1.92,0,1,1-1.92-1.92A1.92,1.92,0,0,1,79,78.26Z" fill="none" stroke="#003a50" stroke-miterlimit="10"/><path d="M117.87,471.91v-15.2a3.23,3.23,0,0,0-3.24-3.23H91a3.22,3.22,0,0,0-3.23,3.23v15.2A3.22,3.22,0,0,0,91,475.14h23.59A3.23,3.23,0,0,0,117.87,471.91Z" fill="none" stroke="#003a50" stroke-miterlimit="10"/><path d="M102.8,463a2.43,2.43,0,1,0-2.43-2.42A2.42,2.42,0,0,0,102.8,463Z" fill="none" stroke="#003a50" stroke-miterlimit="10"/></g><polygon points="205.78 546.99 205.78 467.66 261.56 467.66 261.56 433.38 168.62 433.38 168.62 467.66 171.5 467.66 171.5 546.99 168.62 546.99 168.62 581.26 295.72 581.26 295.72 546.99 205.78 546.99" fill="none" stroke="#003a50" stroke-miterlimit="10"/><polyline points="174.29 491.92 174.29 498.72 174.29 505.5" fill="none" stroke="#003a50" stroke-miterlimit="10"/><line x1="187.91" y1="498.74" x2="174.29" y2="498.74" fill="none" stroke="#003a50" stroke-miterlimit="10"/><g clip-path="url(#clip-path)"><path d="M198.55,483.66h-15.2a3.24,3.24,0,0,0-3.23,3.24v23.59a3.24,3.24,0,0,0,3.23,3.24h15.2a3.24,3.24,0,0,0,3.24-3.24V486.9A3.24,3.24,0,0,0,198.55,483.66Z" fill="none" stroke="#003a50" stroke-miterlimit="10"/><path d="M189.6,498.74a2.43,2.43,0,1,0-2.42,2.42A2.42,2.42,0,0,0,189.6,498.74Z" fill="none" stroke="#003a50" stroke-miterlimit="10"/><path d="M27.76,647.3a1.27,1.27,0,0,1,.95,1.51A13.78,13.78,0,0,0,55.58,655a1.26,1.26,0,0,1,2.46.56,16.3,16.3,0,1,1-31.78-7.29A1.25,1.25,0,0,1,27.76,647.3Z" fill="none" stroke="#003a50" stroke-miterlimit="10"/><path d="M82.93,657a1.25,1.25,0,0,1,1.75-.33,13.79,13.79,0,0,0,15.53-22.79,1.26,1.26,0,1,1,1.41-2.08,16.3,16.3,0,0,1-18.35,26.95A1.26,1.26,0,0,1,82.93,657Z" fill="none" stroke="#003a50" stroke-miterlimit="10"/><path d="M85.44,609.61a1.26,1.26,0,0,1-1.33-1.18,13.78,13.78,0,1,0-27.52,1.63,1.26,1.26,0,0,1-2.52.15,16.3,16.3,0,0,1,32.55-1.93A1.26,1.26,0,0,1,85.44,609.61Z" fill="none" stroke="#003a50" stroke-miterlimit="10"/><path d="M42,663.91a12.69,12.69,0,0,1-12-15.48l2-8.88a3.53,3.53,0,0,1,4.24-2.68L49.68,640a23.73,23.73,0,0,0,6,9.44l-1,4.2C53.36,659.55,48.08,664.11,42,663.91Z" fill="none" stroke="#003a50" stroke-miterlimit="10"/><path d="M84.76,655.39l-2.32-1.6a23.81,23.81,0,0,0,13.64-21.32l2.52,1.72c5,3.44,7.4,10,5,15.64A12.7,12.7,0,0,1,84.76,655.39Z" fill="none" stroke="#003a50" stroke-miterlimit="10"/><path d="M57.92,613.11l-.12-2c-.36-6.12,3.4-12,9.32-13.48A12.66,12.66,0,0,1,83,609.15l.12,1.84a23.93,23.93,0,0,0-16.64-1.92A23.5,23.5,0,0,0,57.92,613.11Z" fill="none" stroke="#003a50" stroke-miterlimit="10"/><path d="M55.68,649.39a23.73,23.73,0,0,1-6-9.44,16.51,16.51,0,0,1-.6-2,23.85,23.85,0,0,1,8.84-24.84,23.5,23.5,0,0,1,8.56-4,23.87,23.87,0,0,1,28.92,17.4,22.12,22.12,0,0,1,.68,6,23.81,23.81,0,0,1-13.64,21.32,22.85,22.85,0,0,1-4.48,1.6A23.8,23.8,0,0,1,55.68,649.39Z" fill="none" stroke="#003a50" stroke-miterlimit="10"/><path d="M209.77,422.55a1,1,0,0,1-.53.89A.94.94,0,0,1,208,423a29.05,29.05,0,0,1,0-24.76.92.92,0,0,1,1.26-.45,1,1,0,0,1,.44,1.31,27.08,27.08,0,0,0,0,23A1.12,1.12,0,0,1,209.77,422.55Z" fill="none" stroke="#003a50" stroke-miterlimit="10"/><path d="M204.5,422.55a1,1,0,0,1-.53.89,1,1,0,0,1-1.27-.45,29.15,29.15,0,0,1,0-24.76.93.93,0,0,1,1.27-.45,1,1,0,0,1,.43,1.31,27.08,27.08,0,0,0,0,23A1,1,0,0,1,204.5,422.55Z" fill="none" stroke="#003a50" stroke-miterlimit="10"/><path d="M199.23,422.55a1,1,0,0,1-.52.89,1,1,0,0,1-1.28-.45,29.15,29.15,0,0,1,0-24.76.93.93,0,0,1,1.27-.45,1,1,0,0,1,.43,1.31,27.18,27.18,0,0,0,0,23A1,1,0,0,1,199.23,422.55Z" fill="none" stroke="#003a50" stroke-miterlimit="10"/><path d="M194,422.55a1,1,0,0,1-.53.89,1,1,0,0,1-1.27-.45,29.15,29.15,0,0,1,0-24.76.93.93,0,0,1,1.27-.45,1,1,0,0,1,.43,1.31,27.08,27.08,0,0,0,0,23A1,1,0,0,1,194,422.55Z" fill="none" stroke="#003a50" stroke-miterlimit="10"/><path d="M188.7,422.55a1,1,0,0,1-.52.89,1,1,0,0,1-1.28-.45,29.15,29.15,0,0,1,0-24.76.93.93,0,0,1,1.27-.45,1,1,0,0,1,.43,1.31,27.18,27.18,0,0,0,0,23A1,1,0,0,1,188.7,422.55Z" fill="none" stroke="#003a50" stroke-miterlimit="10"/><path d="M183.44,422.55a1,1,0,0,1-.53.89,1,1,0,0,1-1.27-.45,29.15,29.15,0,0,1,0-24.76.93.93,0,0,1,1.27-.45,1,1,0,0,1,.43,1.31,27.08,27.08,0,0,0,0,23A1,1,0,0,1,183.44,422.55Z" fill="none" stroke="#003a50" stroke-miterlimit="10"/><path d="M215,422.55a1,1,0,0,1-.53.89,1,1,0,0,1-1.27-.45,29.15,29.15,0,0,1,0-24.76.93.93,0,0,1,1.27-.45,1,1,0,0,1,.43,1.31,27.08,27.08,0,0,0,0,23A1,1,0,0,1,215,422.55Z" fill="none" stroke="#003a50" stroke-miterlimit="10"/><path d="M220.3,422.55a1,1,0,0,1-.53.89.94.94,0,0,1-1.27-.45,29.05,29.05,0,0,1,0-24.76.92.92,0,0,1,1.26-.45,1,1,0,0,1,.44,1.31,27.08,27.08,0,0,0,0,23A1.12,1.12,0,0,1,220.3,422.55Z" fill="none" stroke="#003a50" stroke-miterlimit="10"/></g><line x1="290.35" y1="410.61" x2="172.32" y2="410.61" fill="none" stroke="#003a50" stroke-miterlimit="10"/><rect x="172.32" y="393.66" width="118.02" height="33.34" fill="none" stroke="#003a50" stroke-miterlimit="10"/><g clip-path="url(#clip-path)"><path d="M209.77,615.8a1,1,0,0,1-.53.88.93.93,0,0,1-1.27-.45,29.05,29.05,0,0,1,0-24.76.92.92,0,0,1,1.26-.45,1,1,0,0,1,.44,1.32,27.06,27.06,0,0,0,0,23A1.13,1.13,0,0,1,209.77,615.8Z" fill="none" stroke="#003a50" stroke-miterlimit="10"/><path d="M204.5,615.8a1,1,0,0,1-.53.88.93.93,0,0,1-1.27-.45,29.15,29.15,0,0,1,0-24.76A.93.93,0,0,1,204,591a1,1,0,0,1,.43,1.32,27.06,27.06,0,0,0,0,23A1,1,0,0,1,204.5,615.8Z" fill="none" stroke="#003a50" stroke-miterlimit="10"/><path d="M199.23,615.8a1,1,0,0,1-.52.88.94.94,0,0,1-1.28-.45,29.15,29.15,0,0,1,0-24.76.93.93,0,0,1,1.27-.45,1,1,0,0,1,.43,1.32,27.16,27.16,0,0,0,0,23A1,1,0,0,1,199.23,615.8Z" fill="none" stroke="#003a50" stroke-miterlimit="10"/><path d="M194,615.8a1,1,0,0,1-.53.88.93.93,0,0,1-1.27-.45,29.15,29.15,0,0,1,0-24.76.93.93,0,0,1,1.27-.45,1,1,0,0,1,.43,1.32,27.06,27.06,0,0,0,0,23A1,1,0,0,1,194,615.8Z" fill="none" stroke="#003a50" stroke-miterlimit="10"/><path d="M188.7,615.8a1,1,0,0,1-.52.88.94.94,0,0,1-1.28-.45,29.15,29.15,0,0,1,0-24.76.93.93,0,0,1,1.27-.45,1,1,0,0,1,.43,1.32,27.16,27.16,0,0,0,0,23A1,1,0,0,1,188.7,615.8Z" fill="none" stroke="#003a50" stroke-miterlimit="10"/><path d="M183.44,615.8a1,1,0,0,1-.53.88.93.93,0,0,1-1.27-.45,29.15,29.15,0,0,1,0-24.76.93.93,0,0,1,1.27-.45,1,1,0,0,1,.43,1.32,27.06,27.06,0,0,0,0,23A1,1,0,0,1,183.44,615.8Z" fill="none" stroke="#003a50" stroke-miterlimit="10"/><path d="M215,615.8a1,1,0,0,1-.53.88.93.93,0,0,1-1.27-.45,29.15,29.15,0,0,1,0-24.76.93.93,0,0,1,1.27-.45,1,1,0,0,1,.43,1.32,27.06,27.06,0,0,0,0,23A1,1,0,0,1,215,615.8Z" fill="none" stroke="#003a50" stroke-miterlimit="10"/><path d="M220.3,615.8a1,1,0,0,1-.53.88.93.93,0,0,1-1.27-.45,29.05,29.05,0,0,1,0-24.76.92.92,0,0,1,1.26-.45,1,1,0,0,1,.44,1.32,27.06,27.06,0,0,0,0,23A1.13,1.13,0,0,1,220.3,615.8Z" fill="none" stroke="#003a50" stroke-miterlimit="10"/></g><line x1="290.35" y1="603.85" x2="172.32" y2="603.85" fill="none" stroke="#003a50" stroke-miterlimit="10"/><rect x="172.32" y="586.9" width="118.02" height="33.34" fill="none" stroke="#003a50" stroke-miterlimit="10"/><polygon points="246.87 259.43 173.4 259.22 173.4 228.67 246.87 228.88 246.87 259.43" fill="none" stroke="#003a50" stroke-miterlimit="10"/><g clip-path="url(#clip-path)"><path d="M214.23,253.41v-23a3.36,3.36,0,0,1,3.36-3.36h22.25a3.35,3.35,0,0,1,3.35,3.36v23a3.35,3.35,0,0,1-3.35,3.36H217.59A3.36,3.36,0,0,1,214.23,253.41Z" fill="none" stroke="#003a50" stroke-miterlimit="10"/><path d="M228.71,244.18a2.27,2.27,0,1,1,2.27-2.27A2.27,2.27,0,0,1,228.71,244.18Z" fill="none" stroke="#003a50" stroke-miterlimit="10"/><rect x="123.18" y="565.51" width="33.52" height="33.52" fill="none" stroke="#003a50" stroke-miterlimit="10"/></g><rect x="261.56" y="433.51" width="34.02" height="34.02" fill="none" stroke="#003a50" stroke-miterlimit="10"/><line x1="288.55" y1="450.52" x2="268.59" y2="450.52" fill="none" stroke="#003a50" stroke-miterlimit="10"/><line x1="278.57" y1="440.54" x2="278.57" y2="460.5" fill="none" stroke="#003a50" stroke-miterlimit="10"/><line x1="285.62" y1="443.46" x2="271.51" y2="457.57" fill="none" stroke="#003a50" stroke-miterlimit="10"/><line x1="271.51" y1="443.46" x2="285.62" y2="457.57" fill="none" stroke="#003a50" stroke-miterlimit="10"/><g clip-path="url(#clip-path)"><rect x="178.9" y="-33.98" width="34.02" height="34.02" fill="none" stroke="#003a50" stroke-miterlimit="10"/><rect x="331.01" y="-33.98" width="34.02" height="34.02" fill="none" stroke="#003a50" stroke-miterlimit="10"/><path d="M207.62,107.61a.8.8,0,0,1-.7-.44.78.78,0,0,1,.36-1,22.48,22.48,0,0,1,19.77,0,.78.78,0,0,1-.69,1.41,20.91,20.91,0,0,0-18.39,0A.85.85,0,0,1,207.62,107.61Z" fill="none" stroke="#003a50" stroke-miterlimit="10"/><path d="M207.62,103.25a.78.78,0,0,1-.34-1.49,22.57,22.57,0,0,1,19.77,0,.78.78,0,0,1-.69,1.41,20.91,20.91,0,0,0-18.39,0A.72.72,0,0,1,207.62,103.25Z" fill="none" stroke="#003a50" stroke-miterlimit="10"/><path d="M207.62,98.9a.79.79,0,0,1-.34-1.5,22.57,22.57,0,0,1,19.77,0,.79.79,0,0,1-.69,1.42,20.91,20.91,0,0,0-18.39,0A.85.85,0,0,1,207.62,98.9Z" fill="none" stroke="#003a50" stroke-miterlimit="10"/><path d="M207.62,94.54a.78.78,0,0,1-.34-1.49,22.48,22.48,0,0,1,19.77,0,.78.78,0,0,1-.69,1.41,20.91,20.91,0,0,0-18.39,0A.72.72,0,0,1,207.62,94.54Z" fill="none" stroke="#003a50" stroke-miterlimit="10"/><path d="M207.62,90.18a.78.78,0,0,1-.7-.44.79.79,0,0,1,.36-1,22.57,22.57,0,0,1,19.77,0,.78.78,0,0,1-.69,1.41,21,21,0,0,0-18.39,0A.72.72,0,0,1,207.62,90.18Z" fill="none" stroke="#003a50" stroke-miterlimit="10"/><path d="M207.62,85.83a.8.8,0,0,1-.7-.44.78.78,0,0,1,.36-1,22.48,22.48,0,0,1,19.77,0,.78.78,0,0,1-.69,1.41,20.91,20.91,0,0,0-18.39,0A.85.85,0,0,1,207.62,85.83Z" fill="none" stroke="#003a50" stroke-miterlimit="10"/><path d="M207.62,112a.78.78,0,0,1-.7-.44.79.79,0,0,1,.36-1,22.57,22.57,0,0,1,19.77,0,.78.78,0,0,1-.69,1.41,21,21,0,0,0-18.39,0A.72.72,0,0,1,207.62,112Z" fill="none" stroke="#003a50" stroke-miterlimit="10"/><path d="M207.62,116.32a.78.78,0,0,1-.34-1.49,22.48,22.48,0,0,1,19.77,0,.78.78,0,0,1-.69,1.41,20.91,20.91,0,0,0-18.39,0A.72.72,0,0,1,207.62,116.32Z" fill="none" stroke="#003a50" stroke-miterlimit="10"/></g><line x1="217.16" y1="121.01" x2="217.16" y2="47.45" fill="none" stroke="#003a50" stroke-miterlimit="10"/><rect x="206.07" y="47.46" width="22.4" height="73.89" fill="none" stroke="#003a50" stroke-miterlimit="10"/><g clip-path="url(#clip-path)"><path d="M271.5,107.61a.79.79,0,0,1-.35-1.49,22.5,22.5,0,0,1,19.78,0,.79.79,0,0,1-.7,1.41,20.89,20.89,0,0,0-18.38,0A.85.85,0,0,1,271.5,107.61Z" fill="none" stroke="#003a50" stroke-miterlimit="10"/><path d="M271.5,103.25a.77.77,0,0,1-.7-.44.79.79,0,0,1,.35-1,22.59,22.59,0,0,1,19.78,0,.79.79,0,0,1-.7,1.41,20.89,20.89,0,0,0-18.38,0A.72.72,0,0,1,271.5,103.25Z" fill="none" stroke="#003a50" stroke-miterlimit="10"/><path d="M271.5,98.9a.79.79,0,0,1-.7-.44.8.8,0,0,1,.35-1.06,22.59,22.59,0,0,1,19.78,0,.79.79,0,0,1-.7,1.42,20.89,20.89,0,0,0-18.38,0A.85.85,0,0,1,271.5,98.9Z" fill="none" stroke="#003a50" stroke-miterlimit="10"/><path d="M271.5,94.54a.77.77,0,0,1-.7-.44.79.79,0,0,1,.35-1,22.5,22.5,0,0,1,19.78,0,.79.79,0,0,1-.7,1.41,20.89,20.89,0,0,0-18.38,0A.72.72,0,0,1,271.5,94.54Z" fill="none" stroke="#003a50" stroke-miterlimit="10"/><path d="M271.5,90.18a.77.77,0,0,1-.7-.44.79.79,0,0,1,.35-1,22.59,22.59,0,0,1,19.78,0,.79.79,0,0,1-.7,1.41,21,21,0,0,0-18.38,0A.72.72,0,0,1,271.5,90.18Z" fill="none" stroke="#003a50" stroke-miterlimit="10"/><path d="M271.5,85.83a.79.79,0,0,1-.35-1.49,22.5,22.5,0,0,1,19.78,0,.79.79,0,0,1-.7,1.41,20.89,20.89,0,0,0-18.38,0A.85.85,0,0,1,271.5,85.83Z" fill="none" stroke="#003a50" stroke-miterlimit="10"/><path d="M271.5,112a.77.77,0,0,1-.7-.44.79.79,0,0,1,.35-1,22.59,22.59,0,0,1,19.78,0,.79.79,0,0,1-.7,1.41,21,21,0,0,0-18.38,0A.72.72,0,0,1,271.5,112Z" fill="none" stroke="#003a50" stroke-miterlimit="10"/><path d="M271.5,116.32a.77.77,0,0,1-.7-.44.79.79,0,0,1,.35-1,22.5,22.5,0,0,1,19.78,0,.79.79,0,0,1-.7,1.41,20.89,20.89,0,0,0-18.38,0A.72.72,0,0,1,271.5,116.32Z" fill="none" stroke="#003a50" stroke-miterlimit="10"/></g><line x1="281.04" y1="121.01" x2="281.04" y2="47.45" fill="none" stroke="#003a50" stroke-miterlimit="10"/><rect x="269.95" y="47.46" width="22.4" height="73.89" fill="none" stroke="#003a50" stroke-miterlimit="10"/><rect x="412.16" y="586.57" width="118.13" height="34.02" fill="none" stroke="#003a50" stroke-miterlimit="10"/><g clip-path="url(#clip-path)"><path d="M429.28,615.76a1,1,0,0,0,1.9.44,28.77,28.77,0,0,0,0-25.26,1,1,0,0,0-1.8.89,26.72,26.72,0,0,1,0,23.49A1,1,0,0,0,429.28,615.76Z" fill="none" stroke="#003a50" stroke-miterlimit="10"/><path d="M434.84,615.76a1,1,0,0,0,1.91.44,28.77,28.77,0,0,0,0-25.26,1,1,0,0,0-1.34-.45,1,1,0,0,0-.46,1.34,26.81,26.81,0,0,1,0,23.49A1,1,0,0,0,434.84,615.76Z" fill="none" stroke="#003a50" stroke-miterlimit="10"/><path d="M440.41,615.76a1,1,0,0,0,1.9.44,28.77,28.77,0,0,0,0-25.26,1,1,0,0,0-1.8.89,26.72,26.72,0,0,1,0,23.49A1,1,0,0,0,440.41,615.76Z" fill="none" stroke="#003a50" stroke-miterlimit="10"/><path d="M446,615.76a1,1,0,0,0,1.91.44,28.77,28.77,0,0,0,0-25.26,1,1,0,0,0-1.34-.45,1,1,0,0,0-.46,1.34,26.81,26.81,0,0,1,0,23.49A1,1,0,0,0,446,615.76Z" fill="none" stroke="#003a50" stroke-miterlimit="10"/><path d="M451.54,615.76a1,1,0,0,0,1.9.44,28.77,28.77,0,0,0,0-25.26,1,1,0,0,0-1.8.89,26.72,26.72,0,0,1,0,23.49A1,1,0,0,0,451.54,615.76Z" fill="none" stroke="#003a50" stroke-miterlimit="10"/><path d="M457.1,615.76a1,1,0,0,0,1.91.44,28.77,28.77,0,0,0,0-25.26,1,1,0,0,0-1.34-.45,1,1,0,0,0-.46,1.34,26.81,26.81,0,0,1,0,23.49A1,1,0,0,0,457.1,615.76Z" fill="none" stroke="#003a50" stroke-miterlimit="10"/><path d="M423.71,615.76a1,1,0,0,0,1.91.44,28.77,28.77,0,0,0,0-25.26,1,1,0,0,0-1.34-.45,1,1,0,0,0-.46,1.34,26.81,26.81,0,0,1,0,23.49A.87.87,0,0,0,423.71,615.76Z" fill="none" stroke="#003a50" stroke-miterlimit="10"/><path d="M418.15,615.76a1,1,0,0,0,1.9.44,28.77,28.77,0,0,0,0-25.26,1,1,0,0,0-1.8.89,26.72,26.72,0,0,1,0,23.49A1,1,0,0,0,418.15,615.76Z" fill="none" stroke="#003a50" stroke-miterlimit="10"/></g><line x1="412.16" y1="603.57" x2="529.75" y2="603.57" fill="none" stroke="#003a50" stroke-miterlimit="10"/><g clip-path="url(#clip-path)"><path d="M110.48,731.49h41v45.77H108.27V733.7A2.21,2.21,0,0,1,110.48,731.49Z" fill="none" stroke="#003a50" stroke-miterlimit="10"/><path d="M110.26,685.62h41.26v45.77H110.26a2,2,0,0,1-2-2V687.6A2,2,0,0,1,110.26,685.62Z" fill="none" stroke="#003a50" stroke-miterlimit="10"/><path d="M108.27,777.26a3.11,3.11,0,0,0-2.83,3.33v4.22a3.1,3.1,0,0,0,2.83,3.32h48.2V674.75H108.7a3.11,3.11,0,0,0-2.83,3.32v4.23a3.11,3.11,0,0,0,2.83,3.32h42.82v91.64Z" fill="none" stroke="#003a50" stroke-miterlimit="10"/><path d="M431,329v41h45.77V326.74H433.23A2.22,2.22,0,0,0,431,329Z" fill="none" stroke="#003a50" stroke-miterlimit="10"/><path d="M385.15,328.72V370h45.76V328.72a2,2,0,0,0-2-2h-41.8A2,2,0,0,0,385.15,328.72Z" fill="none" stroke="#003a50" stroke-miterlimit="10"/><path d="M476.78,326.74a3.11,3.11,0,0,1,3.33-2.83h4.22a3.11,3.11,0,0,1,3.33,2.83v48.19H374.27V327.16a3.11,3.11,0,0,1,3.33-2.83h4.22a3.11,3.11,0,0,1,3.33,2.83V370h91.63Z" fill="none" stroke="#003a50" stroke-miterlimit="10"/></g><rect x="385.14" y="360.74" width="91.64" height="9.25" fill="none" stroke="#003a50" stroke-miterlimit="10"/><g clip-path="url(#clip-path)"><path d="M493.87,709.54a14.78,14.78,0,0,0-15.93,23.39,1.14,1.14,0,0,0,1.77-1.43A12.47,12.47,0,0,1,493.87,712Z" fill="none" stroke="#003a50" stroke-miterlimit="10"/><rect x="493.87" y="679.77" width="34.02" height="84.03" rx="3.31" fill="none" stroke="#003a50" stroke-miterlimit="10"/><path d="M524.17,682.32a1.39,1.39,0,0,0-1.39,1.39v76.15a1.4,1.4,0,0,0,2.79,0V683.71a1.4,1.4,0,0,0-1.4-1.39" fill="none" stroke="#003a50" stroke-miterlimit="10"/><path d="M509.59,750.13a5.51,5.51,0,1,1,0,7.78A5.5,5.5,0,0,1,509.59,750.13Z" fill="none" stroke="#003a50" stroke-miterlimit="10"/><path d="M509.22,750.54c1,.1,2-.29,3,.7,1.46,1.46-.08,3,1.38,4.47s3-.09,4.47,1.38" fill="none" stroke="#003a50" stroke-miterlimit="10"/><path d="M493.87,714.25a10.64,10.64,0,1,0,0,19.59Z" fill="none" stroke="#003a50" stroke-miterlimit="10"/></g><rect x="173.29" y="674.29" width="52.33" height="113.67" fill="none" stroke="#003a50" stroke-miterlimit="10"/><g clip-path="url(#clip-path)"><path d="M216.68,684h-34a2.11,2.11,0,0,0-2.1,2.11v67.62h38.25V686.1A2.11,2.11,0,0,0,216.68,684Z" fill="none" stroke="#003a50" stroke-miterlimit="10"/></g><rect x="180.53" y="739.87" width="38.26" height="13.85" fill="none" stroke="#003a50" stroke-miterlimit="10"/><g clip-path="url(#clip-path)"><path d="M217,780.21h-34.3a2.19,2.19,0,0,1-2.2-2.2V759.54a2.2,2.2,0,0,1,2.2-2.21H217a2.21,2.21,0,0,1,2.21,2.21V778A2.2,2.2,0,0,1,217,780.21Z" fill="none" stroke="#003a50" stroke-miterlimit="10"/><path d="M314,709.54A14.78,14.78,0,0,0,298,732.93a1.14,1.14,0,0,0,1.78-1.43A12.47,12.47,0,0,1,314,712Z" fill="none" stroke="#003a50" stroke-miterlimit="10"/><rect x="313.95" y="679.77" width="34.02" height="84.03" rx="3.31" fill="none" stroke="#003a50" stroke-miterlimit="10"/><path d="M344.25,682.32a1.39,1.39,0,0,0-1.39,1.39v76.15a1.4,1.4,0,0,0,2.79,0V683.71a1.4,1.4,0,0,0-1.4-1.39" fill="none" stroke="#003a50" stroke-miterlimit="10"/><path d="M329.68,750.13a5.5,5.5,0,1,1,0,7.78A5.49,5.49,0,0,1,329.68,750.13Z" fill="none" stroke="#003a50" stroke-miterlimit="10"/><path d="M329.31,750.54c1,.1,2-.29,3,.7,1.46,1.46-.09,3,1.38,4.47s3-.09,4.47,1.38" fill="none" stroke="#003a50" stroke-miterlimit="10"/><path d="M314,714.25a10.63,10.63,0,1,0,0,19.59Z" fill="none" stroke="#003a50" stroke-miterlimit="10"/><path d="M332.74,70.49a14.78,14.78,0,0,0,15.93-23.38,1.14,1.14,0,1,0-1.78,1.43A12.47,12.47,0,0,1,332.74,68Z" fill="none" stroke="#003a50" stroke-miterlimit="10"/><rect x="298.72" y="16.24" width="34.02" height="84.03" rx="3.31" fill="none" stroke="#003a50" stroke-miterlimit="10"/><path d="M302.44,97.72a1.39,1.39,0,0,0,1.39-1.39V20.18a1.4,1.4,0,0,0-2.79,0V96.33a1.4,1.4,0,0,0,1.4,1.39" fill="none" stroke="#003a50" stroke-miterlimit="10"/><path d="M317,29.91a5.51,5.51,0,1,1,0-7.79A5.51,5.51,0,0,1,317,29.91Z" fill="none" stroke="#003a50" stroke-miterlimit="10"/><path d="M317.39,29.5c-1-.1-2.05.29-3-.7-1.46-1.46.09-3-1.38-4.47s-3,.08-4.46-1.38" fill="none" stroke="#003a50" stroke-miterlimit="10"/><path d="M332.74,65.79a10.64,10.64,0,1,0,0-19.6Z" fill="none" stroke="#003a50" stroke-miterlimit="10"/></g><rect x="499.56" y="16.36" width="22.68" height="22.68" fill="none" stroke="#003a50" stroke-miterlimit="10"/><g clip-path="url(#clip-path)"><path d="M517.41,34.2a9.2,9.2,0,1,0-13,0A9.2,9.2,0,0,0,517.41,34.2Z" fill="none" stroke="#003a50" stroke-miterlimit="10"/><path d="M516.71,34.82c-.16-1.69.49-3.41-1.16-5.07-2.44-2.43-5,.15-7.46-2.29s.14-5-2.3-7.46" fill="none" stroke="#003a50" stroke-miterlimit="10"/></g><rect x="361.13" y="16.36" width="22.68" height="22.68" fill="none" stroke="#003a50" stroke-miterlimit="10"/><g clip-path="url(#clip-path)"><path d="M379,34.2a9.2,9.2,0,1,0-13,0A9.2,9.2,0,0,0,379,34.2Z" fill="none" stroke="#003a50" stroke-miterlimit="10"/><path d="M378.28,34.82c-.17-1.7.48-3.41-1.17-5.06-2.44-2.44-5,.14-7.45-2.3s.13-5-2.3-7.46" fill="none" stroke="#003a50" stroke-miterlimit="10"/></g><rect x="390.66" y="16.35" width="102.05" height="113.38" fill="none" stroke="#003a50" stroke-miterlimit="10"/><g clip-path="url(#clip-path)"><path d="M400.66,120h82a2.09,2.09,0,0,0,2.09-2.08V50.28H398.58v67.64A2.08,2.08,0,0,0,400.66,120Z" fill="none" stroke="#003a50" stroke-miterlimit="10"/><path d="M444.53,46.66h38.54a2,2,0,0,0,2-2V25.77a2,2,0,0,0-2-2H444.53a2,2,0,0,0-2,2V44.68A2,2,0,0,0,444.53,46.66Z" fill="none" stroke="#003a50" stroke-miterlimit="10"/><path d="M400.3,46.66h38.54a2,2,0,0,0,2-2V25.77a2,2,0,0,0-2-2H400.3a2,2,0,0,0-2,2V44.68A2,2,0,0,0,400.3,46.66Z" fill="none" stroke="#003a50" stroke-miterlimit="10"/></g><line x1="398.32" y1="64.13" x2="485.05" y2="64.13" fill="none" stroke="#003a50" stroke-miterlimit="10"/><g clip-path="url(#clip-path)"><path d="M486,530.74a1.25,1.25,0,0,0-1.25,1.25,13.66,13.66,0,1,1-27.32,0,1.25,1.25,0,0,0-2.5,0,16.16,16.16,0,0,0,32.32,0A1.25,1.25,0,0,0,486,530.74Z" fill="none" stroke="#003a50" stroke-miterlimit="10"/><path d="M456.2,478a1.24,1.24,0,0,0,1.25-1.25,13.67,13.67,0,0,1,27.33,0,1.25,1.25,0,1,0,2.49,0,16.16,16.16,0,0,0-32.31,0A1.24,1.24,0,0,0,456.2,478Z" fill="none" stroke="#003a50" stroke-miterlimit="10"/><path d="M444.58,530.74a1.25,1.25,0,0,0-1.25,1.25A13.66,13.66,0,1,1,416,532a1.25,1.25,0,1,0-2.49,0,16.16,16.16,0,0,0,32.31,0A1.25,1.25,0,0,0,444.58,530.74Z" fill="none" stroke="#003a50" stroke-miterlimit="10"/><path d="M414.76,478a1.24,1.24,0,0,0,1.25-1.25,13.66,13.66,0,1,1,27.32,0,1.25,1.25,0,0,0,2.5,0,16.16,16.16,0,0,0-32.32,0A1.24,1.24,0,0,0,414.76,478Z" fill="none" stroke="#003a50" stroke-miterlimit="10"/><path d="M391.67,517.1a1.25,1.25,0,0,0-1.24-1.24,13.67,13.67,0,1,1,0-27.33,1.25,1.25,0,0,0,0-2.49,16.16,16.16,0,1,0,0,32.31A1.25,1.25,0,0,0,391.67,517.1Z" fill="none" stroke="#003a50" stroke-miterlimit="10"/><path d="M504.23,487.29a1.25,1.25,0,0,0,1.25,1.25,13.66,13.66,0,1,1,0,27.32,1.25,1.25,0,1,0,0,2.49,16.16,16.16,0,1,0,0-32.31A1.25,1.25,0,0,0,504.23,487.29Z" fill="none" stroke="#003a50" stroke-miterlimit="10"/><path d="M471.1,543.87a12.57,12.57,0,0,0,12.56-12.52v-5.8a23.7,23.7,0,0,1-6.08.8h-19v5A12.56,12.56,0,0,0,471.1,543.87Z" fill="none" stroke="#003a50" stroke-miterlimit="10"/><path d="M483.66,478.83v-1.36a12.54,12.54,0,1,0-25.08,0V478h19A25.59,25.59,0,0,1,483.66,478.83Z" fill="none" stroke="#003a50" stroke-miterlimit="10"/><path d="M429.66,543.87a12.57,12.57,0,0,0,12.56-12.52v-5H418.38c-.4,0-.84,0-1.24-.08v5.08A12.54,12.54,0,0,0,429.66,543.87Z" fill="none" stroke="#003a50" stroke-miterlimit="10"/><path d="M417.14,478.11c.4,0,.84-.08,1.24-.08h23.84v-.56a12.54,12.54,0,1,0-25.08,0Z" fill="none" stroke="#003a50" stroke-miterlimit="10"/><path d="M498.18,514.75h6.64a12.54,12.54,0,1,0,0-25.08h-6.64a23.81,23.81,0,0,1,3.56,12.52A24.06,24.06,0,0,1,498.18,514.75Z" fill="none" stroke="#003a50" stroke-miterlimit="10"/><path d="M391.1,514.75h6.68a24.06,24.06,0,0,1-3.56-12.56,23.81,23.81,0,0,1,3.56-12.52H391.1a12.54,12.54,0,1,0,0,25.08Z" fill="none" stroke="#003a50" stroke-miterlimit="10"/><path d="M418.38,526.35h59.2a23.7,23.7,0,0,0,6.08-.8,24.24,24.24,0,0,0,18.08-23.36,23.81,23.81,0,0,0-3.56-12.52,24.19,24.19,0,0,0-14.52-10.84,25.59,25.59,0,0,0-6.08-.8h-59.2c-.4,0-.84,0-1.24.08a24.11,24.11,0,0,0,0,48.16C417.54,526.31,418,526.35,418.38,526.35Z" fill="none" stroke="#003a50" stroke-miterlimit="10"/></g><rect x="206.6" y="16.33" width="85.75" height="31.12" fill="none" stroke="#003a50" stroke-miterlimit="10"/><g clip-path="url(#clip-path)"><path d="M222.26,20.74a.91.91,0,0,1,.51-.82.92.92,0,0,1,1.23.41,26.36,26.36,0,0,1,0,23.12.92.92,0,0,1-1.65-.81,24.43,24.43,0,0,0,0-21.49A.85.85,0,0,1,222.26,20.74Z" fill="none" stroke="#003a50" stroke-miterlimit="10"/><path d="M227.35,20.74a.91.91,0,0,1,.51-.82.92.92,0,0,1,1.23.41,26.36,26.36,0,0,1,0,23.12.92.92,0,0,1-1.65-.81,24.43,24.43,0,0,0,0-21.49A.85.85,0,0,1,227.35,20.74Z" fill="none" stroke="#003a50" stroke-miterlimit="10"/><path d="M232.44,20.74a.92.92,0,0,1,1.74-.41,26.36,26.36,0,0,1,0,23.12.92.92,0,1,1-1.65-.81,24.43,24.43,0,0,0,0-21.49A1,1,0,0,1,232.44,20.74Z" fill="none" stroke="#003a50" stroke-miterlimit="10"/><path d="M237.53,20.74a.92.92,0,0,1,1.74-.41,26.36,26.36,0,0,1,0,23.12.91.91,0,1,1-1.64-.81,24.52,24.52,0,0,0,0-21.49A.86.86,0,0,1,237.53,20.74Z" fill="none" stroke="#003a50" stroke-miterlimit="10"/><path d="M242.62,20.74a.91.91,0,0,1,.51-.82.93.93,0,0,1,1.24.41,26.45,26.45,0,0,1,0,23.12.93.93,0,0,1-1.23.42.91.91,0,0,1-.42-1.23,24.52,24.52,0,0,0,0-21.49A.86.86,0,0,1,242.62,20.74Z" fill="none" stroke="#003a50" stroke-miterlimit="10"/><path d="M247.71,20.74a.91.91,0,0,1,.52-.82.9.9,0,0,1,1.22.41,26.27,26.27,0,0,1,0,23.12.91.91,0,1,1-1.64-.81,24.52,24.52,0,0,0,0-21.49A.86.86,0,0,1,247.71,20.74Z" fill="none" stroke="#003a50" stroke-miterlimit="10"/><path d="M217.16,20.74a.91.91,0,0,1,.51-.82.93.93,0,0,1,1.24.41,26.45,26.45,0,0,1,0,23.12.93.93,0,0,1-1.23.42.91.91,0,0,1-.42-1.23,24.52,24.52,0,0,0,0-21.49A.86.86,0,0,1,217.16,20.74Z" fill="none" stroke="#003a50" stroke-miterlimit="10"/><path d="M212.07,20.74a.91.91,0,0,1,.51-.82.93.93,0,0,1,1.24.41,26.45,26.45,0,0,1,0,23.12.93.93,0,0,1-1.23.42.91.91,0,0,1-.42-1.23,24.52,24.52,0,0,0,0-21.49A.86.86,0,0,1,212.07,20.74Z" fill="none" stroke="#003a50" stroke-miterlimit="10"/></g><line x1="206.59" y1="31.89" x2="292.35" y2="31.89" fill="none" stroke="#003a50" stroke-miterlimit="10"/><g clip-path="url(#clip-path)"><path d="M171.81,44.88V16.31H148.74V44.88a11.54,11.54,0,1,0,23.07,0Z" fill="none" stroke="#003a50" stroke-miterlimit="10"/></g><rect x="148.74" y="16.32" width="23.08" height="11.08" fill="none" stroke="#003a50" stroke-miterlimit="10"/><rect x="64.54" y="16.33" width="67.72" height="42.22" fill="none" stroke="#003a50" stroke-miterlimit="10"/><g clip-path="url(#clip-path)"><path d="M84.48,35A2.46,2.46,0,1,1,82,37.44,2.46,2.46,0,0,1,84.48,35Z" fill="none" stroke="#003a50" stroke-miterlimit="10"/><rect x="66.74" y="-33.84" width="105.88" height="33.88" fill="none" stroke="#003a50" stroke-miterlimit="10"/></g><rect x="206.6" y="184.24" width="85.75" height="31.12" fill="none" stroke="#003a50" stroke-miterlimit="10"/><g clip-path="url(#clip-path)"><path d="M222.26,188.65a.92.92,0,0,1,1.74-.41,26.34,26.34,0,0,1,0,23.11.92.92,0,0,1-1.65-.81,24.43,24.43,0,0,0,0-21.49A.83.83,0,0,1,222.26,188.65Z" fill="none" stroke="#003a50" stroke-miterlimit="10"/><path d="M227.35,188.65a.92.92,0,0,1,1.74-.41,26.34,26.34,0,0,1,0,23.11.92.92,0,0,1-1.65-.81,24.43,24.43,0,0,0,0-21.49A.83.83,0,0,1,227.35,188.65Z" fill="none" stroke="#003a50" stroke-miterlimit="10"/><path d="M232.44,188.65a.92.92,0,0,1,1.74-.41,26.34,26.34,0,0,1,0,23.11.92.92,0,1,1-1.65-.81,24.43,24.43,0,0,0,0-21.49A1,1,0,0,1,232.44,188.65Z" fill="none" stroke="#003a50" stroke-miterlimit="10"/><path d="M237.53,188.65a.92.92,0,0,1,1.74-.41,26.34,26.34,0,0,1,0,23.11.91.91,0,1,1-1.64-.81,24.52,24.52,0,0,0,0-21.49A.85.85,0,0,1,237.53,188.65Z" fill="none" stroke="#003a50" stroke-miterlimit="10"/><path d="M242.62,188.65a.92.92,0,0,1,1.75-.41,26.43,26.43,0,0,1,0,23.11.92.92,0,0,1-1.23.42.91.91,0,0,1-.42-1.23,24.52,24.52,0,0,0,0-21.49A.85.85,0,0,1,242.62,188.65Z" fill="none" stroke="#003a50" stroke-miterlimit="10"/><path d="M247.71,188.65a.94.94,0,0,1,.52-.83.92.92,0,0,1,1.22.42,26.25,26.25,0,0,1,0,23.11.91.91,0,1,1-1.64-.81,24.52,24.52,0,0,0,0-21.49A.85.85,0,0,1,247.71,188.65Z" fill="none" stroke="#003a50" stroke-miterlimit="10"/><path d="M217.16,188.65a.92.92,0,0,1,1.75-.41,26.43,26.43,0,0,1,0,23.11.92.92,0,0,1-1.23.42.91.91,0,0,1-.42-1.23,24.52,24.52,0,0,0,0-21.49A.85.85,0,0,1,217.16,188.65Z" fill="none" stroke="#003a50" stroke-miterlimit="10"/><path d="M212.07,188.65a.92.92,0,0,1,1.75-.41,26.43,26.43,0,0,1,0,23.11.92.92,0,0,1-1.23.42.91.91,0,0,1-.42-1.23,24.52,24.52,0,0,0,0-21.49A.85.85,0,0,1,212.07,188.65Z" fill="none" stroke="#003a50" stroke-miterlimit="10"/></g><line x1="206.59" y1="199.8" x2="292.35" y2="199.8" fill="none" stroke="#003a50" stroke-miterlimit="10"/><g clip-path="url(#clip-path)"><path d="M152.46,262.77a2.74,2.74,0,0,1-2.54-1.71h-1.57l-4.15,2.47,1.89,3.07,2.15-1.19V275h9v-9.62l2.16,1.19,1.88-3.07-4.18-2.47H155A2.81,2.81,0,0,1,152.46,262.77Z" fill="none" stroke="#003a50" stroke-miterlimit="10"/></g><rect x="138.93" y="254.74" width="27.66" height="26.6" fill="none" stroke="#003a50" stroke-miterlimit="10"/><g clip-path="url(#clip-path)"><path d="M99.92,277.6a.79.79,0,0,0,1.5.34,22.57,22.57,0,0,0,0-19.77.79.79,0,0,0-1.42.69,20.91,20.91,0,0,1,0,18.39A.85.85,0,0,0,99.92,277.6Z" fill="none" stroke="#003a50" stroke-miterlimit="10"/><path d="M104.28,277.6a.78.78,0,0,0,1.49.34,22.48,22.48,0,0,0,0-19.77.78.78,0,0,0-1.41.69,20.91,20.91,0,0,1,0,18.39A.72.72,0,0,0,104.28,277.6Z" fill="none" stroke="#003a50" stroke-miterlimit="10"/><path d="M108.64,277.6a.78.78,0,0,0,.44.7.79.79,0,0,0,1-.36,22.57,22.57,0,0,0,0-19.77.78.78,0,0,0-1.41.69,21,21,0,0,1,0,18.39A.72.72,0,0,0,108.64,277.6Z" fill="none" stroke="#003a50" stroke-miterlimit="10"/><path d="M113,277.6a.8.8,0,0,0,.44.7.78.78,0,0,0,1-.36,22.48,22.48,0,0,0,0-19.77.78.78,0,0,0-1.41.69,20.91,20.91,0,0,1,0,18.39A.85.85,0,0,0,113,277.6Z" fill="none" stroke="#003a50" stroke-miterlimit="10"/><path d="M117.35,277.6a.78.78,0,0,0,1.49.34,22.57,22.57,0,0,0,0-19.77.78.78,0,0,0-1.41.69,20.91,20.91,0,0,1,0,18.39A.72.72,0,0,0,117.35,277.6Z" fill="none" stroke="#003a50" stroke-miterlimit="10"/><path d="M121.7,277.6a.79.79,0,0,0,1.5.34,22.57,22.57,0,0,0,0-19.77.79.79,0,0,0-1.42.69,20.91,20.91,0,0,1,0,18.39A.85.85,0,0,0,121.7,277.6Z" fill="none" stroke="#003a50" stroke-miterlimit="10"/><path d="M95.57,277.6a.78.78,0,0,0,1.49.34,22.57,22.57,0,0,0,0-19.77.78.78,0,0,0-1.41.69,20.91,20.91,0,0,1,0,18.39A.72.72,0,0,0,95.57,277.6Z" fill="none" stroke="#003a50" stroke-miterlimit="10"/><path d="M91.21,277.6a.8.8,0,0,0,.44.7.78.78,0,0,0,1-.36,22.48,22.48,0,0,0,0-19.77.78.78,0,0,0-1.41.69,20.91,20.91,0,0,1,0,18.39A.85.85,0,0,0,91.21,277.6Z" fill="none" stroke="#003a50" stroke-miterlimit="10"/></g><line x1="86.53" y1="268.06" x2="138.93" y2="268.06" fill="none" stroke="#003a50" stroke-miterlimit="10"/><rect x="86.19" y="254.75" width="52.74" height="26.6" fill="none" stroke="#003a50" stroke-miterlimit="10"/><g clip-path="url(#clip-path)"><path d="M350.14,222.45v-3.76a47.42,47.42,0,0,0-47.42-47.43v51.19" fill="none" stroke="#003a50" stroke-miterlimit="10" stroke-width="1.6"/><path d="M200.68,122.31h3.08A38.71,38.71,0,0,1,242.47,161H200.68" fill="none" stroke="#003a50" stroke-miterlimit="10" stroke-width="1.6"/><path d="M244.26,319.59v3.1a39,39,0,0,1-39,39V319.59" fill="none" stroke="#003a50" stroke-miterlimit="10" stroke-width="1.6"/><path d="M302.27,583.82v3.5a44.07,44.07,0,0,0,44.08,44.08V583.82" fill="none" stroke="#003a50" stroke-miterlimit="10" stroke-width="1.6"/><path d="M409,583.82v3.5a44.07,44.07,0,0,1-44.08,44.08V583.82" fill="none" stroke="#003a50" stroke-miterlimit="10" stroke-width="1.6"/><path d="M-11.16,434.25v-4.07A51.12,51.12,0,0,1,40,379.06v55.19" fill="none" stroke="#003a50" stroke-miterlimit="10" stroke-width="1.6"/><path d="M56.2,325.07H52.13A51.12,51.12,0,0,0,1,376.19H56.2" fill="none" stroke="#003a50" stroke-miterlimit="10" stroke-width="1.6"/><line x1="178.28" y1="327.22" x2="123.8" y2="327.22" fill="none" stroke="#003a50" stroke-miterlimit="10" stroke-width="1.6"/><polygon points="11.4 795.61 -84.34 795.61 -84.34 844.94 11.4 833.28 11.4 795.61" fill="#003a50" fill-rule="evenodd"/><polygon points="374.83 795.61 279.09 795.61 279.09 844.94 374.83 833.28 374.83 795.61" fill="#003a50" fill-rule="evenodd"/><rect x="50.42" y="-41.22" width="16.32" height="181.89" fill="#003a50"/><rect x="50.42" y="106.53" width="16.32" height="115.78" fill="#003a50"/><rect x="50.42" y="280.99" width="16.32" height="44.79" fill="#003a50"/><rect x="74.17" y="227.73" width="11.82" height="64.29" fill="#003a50"/><rect x="53.84" y="280.99" width="32.14" height="11.82" fill="#003a50"/><rect x="50.42" y="375.28" width="16.32" height="66" fill="#003a50"/><rect x="39.11" y="427.81" width="131.96" height="16.32" fill="#003a50"/><rect x="156.83" y="427.81" width="16.32" height="380.64" fill="#003a50"/><rect x="62.89" y="0.02" width="474.34" height="16.32" fill="#003a50"/><rect x="50.42" y="216.02" width="252.3" height="12.6" fill="#003a50"/><rect x="350.14" y="216.02" width="197.8" height="12.6" fill="#003a50"/><rect x="463.22" y="795.53" width="96" height="43.92" fill="#003a50"/><rect x="287.73" y="789.36" width="82.83" height="27.12" fill="#003a50"/><rect x="-78.01" y="789.36" width="82.83" height="27.12" fill="#003a50"/><rect x="528.45" y="795.53" width="34.25" height="34.25" fill="#003a50"/><rect x="99.57" y="795.53" width="95.33" height="34.25" fill="#003a50"/><rect x="167.73" y="799.53" width="27.17" height="41.92" fill="#003a50"/><rect x="527.84" y="713.42" width="49.15" height="103.49" fill="#003a50"/><rect x="522.73" y="531.11" width="9.5" height="61.67" fill="#003a50"/><rect x="522.73" y="361.86" width="9.5" height="76.42" fill="#003a50"/><rect x="551.37" y="816.9" width="25.83" height="25" fill="#003a50"/><rect x="529.2" y="348.57" width="37.44" height="94.57" fill="#003a50"/><rect x="529.2" y="531.11" width="47.02" height="94.57" fill="#003a50"/><rect x="533.2" y="417.24" width="39.53" height="25.9" fill="#003a50"/><polygon points="529.2 164.55 529.2 260.29 578.53 260.29 566.87 164.55 529.2 164.55" fill="#003a50" fill-rule="evenodd"/><rect x="529.2" y="-19.8" width="33.77" height="96.07" fill="#003a50"/><rect x="533.2" y="50.36" width="39.53" height="25.9" fill="#003a50"/><rect x="200.22" y="10.22" width="6.38" height="112.92" fill="#003a50"/><rect x="200.22" y="161.02" width="6.38" height="62.9" fill="#003a50"/><rect x="292.35" y="10.23" width="6.38" height="110.35" fill="#003a50"/><rect x="292.35" y="179.85" width="6.38" height="43.42" fill="#003a50"/><rect x="60.64" y="130.54" width="31" height="6.38" fill="#003a50"/><rect x="85.61" y="130.54" width="6.38" height="37.56" fill="#003a50"/><rect x="172.62" y="-33.84" width="6.38" height="40.91" fill="#003a50"/><rect x="151.6" y="-21.16" width="6.38" height="26.75" fill="#003a50"/><rect x="178.14" y="32.66" width="24.71" height="6.38" fill="#003a50"/><rect x="178.14" y="12.28" width="6.38" height="26.75" fill="#003a50"/><rect x="66.11" y="167.21" width="33.64" height="6.38" fill="#003a50"/><rect x="95.48" y="167.21" width="6.38" height="50.76" fill="#003a50"/><rect x="243.47" y="316.84" width="52.01" height="6.38" fill="#003a50"/><rect x="289.11" y="226.27" width="6.38" height="95.32" fill="#003a50"/><rect x="166.77" y="222.32" width="6.38" height="97.72" fill="#003a50"/><rect x="81.31" y="248.58" width="88.64" height="6.38" fill="#003a50"/><rect x="141.27" y="225.28" width="6.38" height="26.49" fill="#003a50"/><rect x="151.55" y="316.84" width="54.68" height="6.38" fill="#003a50"/><rect x="51.97" y="316.84" width="60.64" height="6.38" fill="#003a50"/><rect x="166.77" y="402.01" width="6.38" height="33.94" fill="#003a50"/><rect x="62.9" y="402.01" width="108.92" height="6.38" fill="#003a50"/><rect x="114.17" y="404.28" width="6.38" height="33.17" fill="#003a50"/><rect x="166.77" y="427" width="128.72" height="6.38" fill="#003a50"/><rect x="290.23" y="581.07" width="12.92" height="6.38" fill="#003a50"/><rect x="173.29" y="581.07" width="122.43" height="6.38" fill="#003a50"/><rect x="345.23" y="581.07" width="20.5" height="6.38" fill="#003a50"/><rect x="408.22" y="581.07" width="126.02" height="6.38" fill="#003a50"/><rect x="347.86" y="584.26" width="6.38" height="211.27" fill="#003a50"/><rect x="290.32" y="393.1" width="6.38" height="40" fill="#003a50"/><rect x="49.82" y="441.28" width="6.38" height="25.25" fill="#003a50"/><rect x="69.8" y="442.03" width="6.38" height="24.5" fill="#003a50"/><rect x="51.67" y="460.15" width="24.5" height="6.38" fill="#003a50"/><rect x="50.42" y="217.97" width="5.98" height="81.48" fill="#003a50"/><line x1="-9.89" y1="534.28" x2="44.71" y2="534.28" fill="none" stroke="#003a50" stroke-miterlimit="10" stroke-dasharray="5.75 5.75"/><polyline points="47.59 534.28 50.42 534.28 50.42 531.45" fill="none" stroke="#003a50" stroke-miterlimit="10"/><line x1="50.42" y1="525.6" x2="50.42" y2="470.07" fill="none" stroke="#003a50" stroke-miterlimit="10" stroke-dasharray="5.85 5.85"/><line x1="50.42" y1="467.14" x2="50.42" y2="464.31" fill="none" stroke="#003a50" stroke-miterlimit="10"/><line x1="294.77" y1="316.22" x2="294.77" y2="319.06" fill="none" stroke="#003a50" stroke-miterlimit="10"/><line x1="294.77" y1="324.98" x2="294.77" y2="393.05" fill="none" stroke="#003a50" stroke-miterlimit="10" stroke-dasharray="5.92 5.92"/><line x1="294.77" y1="396.01" x2="294.77" y2="398.85" fill="none" stroke="#003a50" stroke-miterlimit="10"/><line x1="296.37" y1="119.25" x2="296.37" y2="122.09" fill="none" stroke="#003a50" stroke-miterlimit="10"/><line x1="296.37" y1="127.57" x2="296.37" y2="179.71" fill="none" stroke="#003a50" stroke-miterlimit="10" stroke-dasharray="5.49 5.49"/><line x1="296.37" y1="182.45" x2="296.37" y2="185.29" fill="none" stroke="#003a50" stroke-miterlimit="10"/><rect x="63.8" y="286.48" width="17.51" height="30.36" fill="none" stroke="#003a50" stroke-miterlimit="10" stroke-width="0.57"/></g><g clip-path="url(#clip-path)"><path d="M422.42,634.41l-2.49,2v-2.24l2.74-2.27h1.86v11.91h-2.11Z" fill="#003a50"/><path d="M436.92,643.76H427V642.2a2.75,2.75,0,0,1,.59-1.74,4,4,0,0,1,1.44-1.2c.5-.25,1.12-.54,1.87-.86s1.32-.56,1.88-.77a4.09,4.09,0,0,0,1.44-.92,1.78,1.78,0,0,0,.57-1.3c0-1.26-.88-1.89-2.66-1.89s-2.68.72-2.68,2.16v.41h-2.1v-.41a3.62,3.62,0,0,1,1.26-3,5.34,5.34,0,0,1,3.51-1,5.63,5.63,0,0,1,3.51,1,3.29,3.29,0,0,1,1.27,2.75,3.11,3.11,0,0,1-.55,1.83,4.31,4.31,0,0,1-1.41,1.31c-.59.34-1.21.65-1.83.93s-1.24.53-1.83.75a5.55,5.55,0,0,0-1.4.74,1.25,1.25,0,0,0-.57,1h7.63Z" fill="#003a50"/><path d="M439,643.63a1,1,0,0,1-.33-.8A1,1,0,0,1,439,642a1.4,1.4,0,0,1,1.73,0,1,1,0,0,1,.33.81,1,1,0,0,1-.33.8,1.4,1.4,0,0,1-1.73,0Z" fill="#003a50"/><path d="M444.92,634.41l-2.48,2v-2.24l2.73-2.27H447v11.91h-2.11Z" fill="#003a50"/><path d="M262.71,634.41l-2.48,2v-2.24l2.73-2.27h1.86v11.91h-2.11Z" fill="#003a50"/><path d="M277.21,643.76h-9.93V642.2a2.74,2.74,0,0,1,.58-1.74,4,4,0,0,1,1.45-1.2c.49-.25,1.12-.54,1.86-.86s1.33-.56,1.88-.77a4.23,4.23,0,0,0,1.45-.92,1.78,1.78,0,0,0,.57-1.3q0-1.89-2.67-1.89t-2.67,2.16v.41h-2.11v-.41a3.62,3.62,0,0,1,1.26-3,5.39,5.39,0,0,1,3.52-1,5.65,5.65,0,0,1,3.51,1,3.29,3.29,0,0,1,1.27,2.75,3.12,3.12,0,0,1-.56,1.83,4.18,4.18,0,0,1-1.4,1.31c-.6.34-1.21.65-1.84.93s-1.23.53-1.82.75a5.46,5.46,0,0,0-1.41.74,1.26,1.26,0,0,0-.56,1h7.62Z" fill="#003a50"/><path d="M279.31,643.63a1,1,0,0,1-.32-.8,1.07,1.07,0,0,1,.32-.81,1.25,1.25,0,0,1,.88-.3,1.22,1.22,0,0,1,.86.3,1,1,0,0,1,.32.81,1,1,0,0,1-.32.8,1.22,1.22,0,0,1-.86.3A1.25,1.25,0,0,1,279.31,643.63Z" fill="#003a50"/><path d="M284.72,642.23a7.34,7.34,0,0,1,0-8.84,5.71,5.71,0,0,1,8.13,0,7.34,7.34,0,0,1,0,8.84,5.71,5.71,0,0,1-8.13,0Zm6.53-1.39a5.73,5.73,0,0,0,0-6.07,3.15,3.15,0,0,0-4.92,0,5.67,5.67,0,0,0,0,6.07,2.88,2.88,0,0,0,2.46,1.19A2.91,2.91,0,0,0,291.25,640.84Z" fill="#003a50"/><path d="M336.36,369h-5.82v-1.85h8.86V369l-4.53,2.65v.06h1.28a3.9,3.9,0,0,1,2.79,1,3.53,3.53,0,0,1,1.06,2.67,3.35,3.35,0,0,1-1.33,2.82,6.93,6.93,0,0,1-7.24,0,3.35,3.35,0,0,1-1.33-2.85V375h2.11v.33c0,1.36.94,2,2.84,2s2.84-.67,2.84-2-.95-2-2.84-2h-3.27v-1.67l4.58-2.68Z" fill="#003a50"/><path d="M348.29,369h-5.82v-1.85h8.86V369l-4.52,2.65v.06h1.27a3.91,3.91,0,0,1,2.8,1,3.52,3.52,0,0,1,1.05,2.67,3.32,3.32,0,0,1-1.33,2.82,6.93,6.93,0,0,1-7.24,0,3.35,3.35,0,0,1-1.33-2.85V375h2.11v.33c0,1.36.95,2,2.84,2s2.84-.67,2.84-2-.95-2-2.84-2h-3.26v-1.67l4.57-2.68Z" fill="#003a50"/><path d="M354,378.92a1,1,0,0,1-.32-.81,1,1,0,0,1,.32-.8,1.41,1.41,0,0,1,1.74,0,1.06,1.06,0,0,1,.32.8,1,1,0,0,1-.32.81,1.41,1.41,0,0,1-1.74,0Z" fill="#003a50"/><path d="M367.81,379.05h-9.93v-1.56a2.74,2.74,0,0,1,.58-1.74,4,4,0,0,1,1.44-1.2c.5-.25,1.12-.54,1.87-.86s1.32-.56,1.88-.78a4.07,4.07,0,0,0,1.44-.91,1.81,1.81,0,0,0,.58-1.3q0-1.89-2.67-1.89T360.33,371v.41h-2.11V371a3.62,3.62,0,0,1,1.26-3,5.36,5.36,0,0,1,3.51-1,5.61,5.61,0,0,1,3.51,1,3.28,3.28,0,0,1,1.28,2.75,3.17,3.17,0,0,1-.56,1.83,4.39,4.39,0,0,1-1.4,1.31c-.6.34-1.21.65-1.84.93s-1.23.52-1.83.74a5.26,5.26,0,0,0-1.4.75,1.22,1.22,0,0,0-.57,1h7.63Z" fill="#003a50"/><path d="M217.23,294h-5.82v-1.84h8.86V294l-4.52,2.65v.07H217a3.9,3.9,0,0,1,2.79,1,3.52,3.52,0,0,1,1.05,2.67,3.32,3.32,0,0,1-1.33,2.82,7,7,0,0,1-7.24,0,3.39,3.39,0,0,1-1.33-2.86v-.32h2.11v.32c0,1.37.95,2,2.84,2s2.84-.67,2.84-2-.94-2-2.84-2h-3.26v-1.67l4.57-2.68Z" fill="#003a50"/><path d="M223,304a1,1,0,0,1-.32-.8,1.07,1.07,0,0,1,.32-.81,1.41,1.41,0,0,1,1.74,0,1.07,1.07,0,0,1,.32.81,1,1,0,0,1-.32.8,1.41,1.41,0,0,1-1.74,0Z" fill="#003a50"/><path d="M232.26,296.12a5,5,0,0,1,3.34,1.06,4.17,4.17,0,0,1,0,6,5.38,5.38,0,0,1-3.54,1.08,5.75,5.75,0,0,1-3.56-1,3.15,3.15,0,0,1-1.29-2.68h2.11a1.53,1.53,0,0,0,.7,1.33,3.53,3.53,0,0,0,2,.49,3.11,3.11,0,0,0,2-.58,2,2,0,0,0,.7-1.68,2,2,0,0,0-.74-1.7,3.23,3.23,0,0,0-2.07-.58,3.61,3.61,0,0,0-1.92.41,1.87,1.87,0,0,0-.69.64l0,.12h-2.11v-6.87H236V294h-6.77v3h0a1.91,1.91,0,0,1,.4-.31,3.82,3.82,0,0,1,.54-.26A5.66,5.66,0,0,1,232.26,296.12Z" fill="#003a50"/><path d="M106.24,379.05h-2.35l5.41-10h-6.93v-1.88h9.29V369Z" fill="#003a50"/><path d="M113.09,378.92a1,1,0,0,1-.33-.81,1,1,0,0,1,.33-.8,1.4,1.4,0,0,1,1.73,0,1,1,0,0,1,.33.8,1,1,0,0,1-.33.81,1.4,1.4,0,0,1-1.73,0Z" fill="#003a50"/><path d="M118.49,377.52a7.34,7.34,0,0,1,0-8.84,5.71,5.71,0,0,1,8.13,0,7.34,7.34,0,0,1,0,8.84,5.71,5.71,0,0,1-8.13,0Zm6.53-1.39a5.73,5.73,0,0,0,0-6.07,3.15,3.15,0,0,0-4.92,0,5.67,5.67,0,0,0,0,6.07,3.14,3.14,0,0,0,4.92,0Z" fill="#003a50"/><path d="M104.69,294.75l-2.48,1.95v-2.24l2.73-2.27h1.86V304.1h-2.11Z" fill="#003a50"/><path d="M109.32,304a1,1,0,0,1-.32-.8,1.07,1.07,0,0,1,.32-.81,1.25,1.25,0,0,1,.88-.3,1.22,1.22,0,0,1,.86.3,1,1,0,0,1,.32.81,1,1,0,0,1-.32.8,1.22,1.22,0,0,1-.86.3A1.25,1.25,0,0,1,109.32,304Z" fill="#003a50"/><path d="M113.46,300.75h2.21s0,.07,0,.18a2.71,2.71,0,0,0,.23.43,2.37,2.37,0,0,0,.41.49,2.2,2.2,0,0,0,.75.41,3.21,3.21,0,0,0,1.05.17,2.7,2.7,0,0,0,2.25-1.07,4.35,4.35,0,0,0,.8-2.7h-.06a2,2,0,0,1-.44.46,2.42,2.42,0,0,1-.6.4,3.58,3.58,0,0,1-.95.33,6.08,6.08,0,0,1-1.22.13,5,5,0,0,1-3.37-1.13,3.73,3.73,0,0,1,0-5.72,5.54,5.54,0,0,1,3.61-1.11,4.81,4.81,0,0,1,3.87,1.55,6.36,6.36,0,0,1,1.32,4.27v.4a6.7,6.7,0,0,1-1.37,4.31,4.69,4.69,0,0,1-3.89,1.71,5.9,5.9,0,0,1-2.16-.37,3.79,3.79,0,0,1-1.48-.95A3.33,3.33,0,0,1,113.46,300.75Zm2.77-3.16a3.6,3.6,0,0,0,4,0A1.86,1.86,0,0,0,121,296a1.89,1.89,0,0,0-.77-1.58,3.22,3.22,0,0,0-2-.58,3.14,3.14,0,0,0-2,.58,1.86,1.86,0,0,0-.78,1.58A1.88,1.88,0,0,0,116.23,297.59Z" fill="#003a50"/><path d="M115.74,142.59h-2.35l5.42-10h-6.93v-1.88h9.29v1.88Z" fill="#003a50"/><path d="M122.59,142.46a1.17,1.17,0,0,1,0-1.61,1.25,1.25,0,0,1,.88-.3,1.22,1.22,0,0,1,.86.3,1.17,1.17,0,0,1,0,1.61,1.22,1.22,0,0,1-.86.3A1.25,1.25,0,0,1,122.59,142.46Z" fill="#003a50"/><path d="M126.73,139.24h2.21s0,.07,0,.18a2.71,2.71,0,0,0,.23.43,2.37,2.37,0,0,0,.41.49,2.2,2.2,0,0,0,.75.41,3.21,3.21,0,0,0,1,.17,2.66,2.66,0,0,0,2.24-1.06,4.34,4.34,0,0,0,.81-2.71h-.06a2,2,0,0,1-.44.46,2.17,2.17,0,0,1-.6.4,3.58,3.58,0,0,1-1,.33,5.43,5.43,0,0,1-1.22.13,5,5,0,0,1-3.37-1.13,3.73,3.73,0,0,1,0-5.72,5.54,5.54,0,0,1,3.61-1.11,4.81,4.81,0,0,1,3.87,1.55,6.38,6.38,0,0,1,1.32,4.27v.4a6.68,6.68,0,0,1-1.37,4.31,4.7,4.7,0,0,1-3.89,1.72,6,6,0,0,1-2.17-.38,3.71,3.71,0,0,1-1.47-.95A3.29,3.29,0,0,1,126.73,139.24Zm2.77-3.16a3.6,3.6,0,0,0,3.95,0,1.86,1.86,0,0,0,.78-1.57,1.89,1.89,0,0,0-.77-1.58,3.24,3.24,0,0,0-2-.58,3.12,3.12,0,0,0-2,.58,1.85,1.85,0,0,0-.79,1.58A1.88,1.88,0,0,0,129.5,136.08Z" fill="#003a50"/><path d="M335.8,133.24l-2.49,1.95V133l2.73-2.27h1.87v11.91H335.8Z" fill="#003a50"/><path d="M345.8,134.61a5,5,0,0,1,3.34,1.06,3.68,3.68,0,0,1,1.26,3,3.73,3.73,0,0,1-1.3,3,5.39,5.39,0,0,1-3.55,1.08,5.79,5.79,0,0,1-3.56-1,3.15,3.15,0,0,1-1.29-2.68h2.11a1.54,1.54,0,0,0,.7,1.33,3.53,3.53,0,0,0,2,.49,3.13,3.13,0,0,0,2-.57,2.07,2.07,0,0,0,.71-1.69,2,2,0,0,0-.74-1.7,3.25,3.25,0,0,0-2.07-.58,3.7,3.7,0,0,0-1.92.41,2,2,0,0,0-.7.64l-.05.13H340.7v-6.88h8.88v1.84h-6.77v3h.05a2.78,2.78,0,0,1,.4-.31,3.94,3.94,0,0,1,.55-.26A5.6,5.6,0,0,1,345.8,134.61Z" fill="#003a50"/><path d="M352.5,142.46a1.17,1.17,0,0,1,0-1.61,1.25,1.25,0,0,1,.88-.3,1.22,1.22,0,0,1,.86.3,1.17,1.17,0,0,1,0,1.61,1.22,1.22,0,0,1-.86.3A1.25,1.25,0,0,1,352.5,142.46Z" fill="#003a50"/><path d="M364.84,142.59h-2.11v-2.65h-7V138.1l6.3-7.42h2.79v7.42h1.59v1.84h-1.59Zm-2.11-4.49v-5.33h-.07l-4.48,5.28v0Z" fill="#003a50"/><path d="M253.3,134.61a5,5,0,0,1,3.34,1.06,3.68,3.68,0,0,1,1.26,3,3.73,3.73,0,0,1-1.3,3,5.39,5.39,0,0,1-3.55,1.08,5.79,5.79,0,0,1-3.56-1,3.15,3.15,0,0,1-1.29-2.68h2.11a1.54,1.54,0,0,0,.7,1.33,3.53,3.53,0,0,0,2,.49,3.13,3.13,0,0,0,2-.57,2.07,2.07,0,0,0,.71-1.69,2,2,0,0,0-.74-1.7,3.25,3.25,0,0,0-2.07-.58,3.7,3.7,0,0,0-1.92.41,2,2,0,0,0-.7.64l-.05.13H248.2v-6.88h8.88v1.84h-6.77v3h.05a2.78,2.78,0,0,1,.4-.31,3.94,3.94,0,0,1,.55-.26A5.6,5.6,0,0,1,253.3,134.61Z" fill="#003a50"/><path d="M260,142.46a1.17,1.17,0,0,1,0-1.61,1.25,1.25,0,0,1,.88-.3,1.22,1.22,0,0,1,.86.3,1.17,1.17,0,0,1,0,1.61,1.22,1.22,0,0,1-.86.3A1.25,1.25,0,0,1,260,142.46Z" fill="#003a50"/><path d="M272.59,141.83a7.73,7.73,0,0,1-7.37,0,3,3,0,0,1-1.37-2.56,2.66,2.66,0,0,1,.26-1.16,2.41,2.41,0,0,1,.65-.86,4.05,4.05,0,0,1,1.4-.77l.26-.07v-.09a3.38,3.38,0,0,1-.77-.29,2.61,2.61,0,0,1-.66-.44,2.15,2.15,0,0,1-.54-.76,2.39,2.39,0,0,1-.23-1,2.8,2.8,0,0,1,1.26-2.38,5.74,5.74,0,0,1,3.42-.9,5.81,5.81,0,0,1,3.43.9,2.82,2.82,0,0,1,1.24,2.38,2.47,2.47,0,0,1-.22,1.05,1.87,1.87,0,0,1-.55.74,3.59,3.59,0,0,1-1.19.68l-.23.05v.09l.28.07a5.31,5.31,0,0,1,.63.26,4.67,4.67,0,0,1,.77.51,2.82,2.82,0,0,1,.61.82,2.58,2.58,0,0,1,.28,1.2A3,3,0,0,1,272.59,141.83Zm-5.79-1.36a3.79,3.79,0,0,0,2.1.48,3.85,3.85,0,0,0,2.1-.47,1.52,1.52,0,0,0,.74-1.35,1.5,1.5,0,0,0-.74-1.34,4.93,4.93,0,0,0-4.2,0,1.58,1.58,0,0,0,0,2.68Zm-.37-6.52a1.36,1.36,0,0,0,.65,1.19,3.2,3.2,0,0,0,1.82.44,3.24,3.24,0,0,0,1.82-.44,1.43,1.43,0,0,0,0-2.39,4,4,0,0,0-3.62,0A1.36,1.36,0,0,0,266.43,134Z" fill="#003a50"/><path d="M8.27,493.68H-1.66v-1.56a2.76,2.76,0,0,1,.58-1.74,4,4,0,0,1,1.44-1.2c.5-.25,1.13-.54,1.87-.86s1.33-.56,1.88-.77a4.23,4.23,0,0,0,1.45-.92,1.78,1.78,0,0,0,.57-1.3c0-1.26-.89-1.88-2.67-1.88s-2.67.72-2.67,2.15V486H-1.32v-.41a3.62,3.62,0,0,1,1.26-3,5.38,5.38,0,0,1,3.51-1,5.66,5.66,0,0,1,3.52,1,3.31,3.31,0,0,1,1.27,2.75,3.17,3.17,0,0,1-.56,1.84,4.26,4.26,0,0,1-1.4,1.3c-.6.34-1.21.65-1.84.93s-1.23.53-1.82.75a5.46,5.46,0,0,0-1.41.74,1.26,1.26,0,0,0-.56,1H8.27Z" fill="#003a50"/><path d="M10.37,493.55a1,1,0,0,1-.32-.8,1.07,1.07,0,0,1,.32-.81,1.24,1.24,0,0,1,.87-.3,1.24,1.24,0,0,1,.87.3,1.07,1.07,0,0,1,.32.81,1,1,0,0,1-.32.8,1.24,1.24,0,0,1-.87.3A1.24,1.24,0,0,1,10.37,493.55Z" fill="#003a50"/><path d="M15.78,492.15a7.34,7.34,0,0,1,0-8.84,5.11,5.11,0,0,1,4.07-1.7,5.12,5.12,0,0,1,4.06,1.7,7.34,7.34,0,0,1,0,8.84,5.12,5.12,0,0,1-4.06,1.7A5.11,5.11,0,0,1,15.78,492.15Zm6.53-1.39a5,5,0,0,0,.87-3,5,5,0,0,0-.87-3,2.89,2.89,0,0,0-2.46-1.18,2.87,2.87,0,0,0-2.46,1.18,4.94,4.94,0,0,0-.88,3,4.89,4.89,0,0,0,.88,3A2.88,2.88,0,0,0,19.85,492,2.93,2.93,0,0,0,22.31,490.76Z" fill="#003a50"/><path d="M-1.35,642.93a6.43,6.43,0,0,1-3.68.93,6.43,6.43,0,0,1-3.69-.94,2.94,2.94,0,0,1-1.37-2.55,2.71,2.71,0,0,1,.26-1.17,2.29,2.29,0,0,1,.66-.85,3.86,3.86,0,0,1,1.39-.77l.26-.07v-.09a3.32,3.32,0,0,1-.76-.29,2.78,2.78,0,0,1-.67-.44,2.35,2.35,0,0,1-.54-.76,2.38,2.38,0,0,1-.22-1,2.81,2.81,0,0,1,1.25-2.38,5.74,5.74,0,0,1,3.42-.9,5.79,5.79,0,0,1,3.43.9A2.83,2.83,0,0,1-.36,634.9a2.58,2.58,0,0,1-.22,1,1.93,1.93,0,0,1-.55.75,3.72,3.72,0,0,1-1.2.68l-.22,0v.09l.28.07a3.62,3.62,0,0,1,.62.26,3.81,3.81,0,0,1,.77.51,2.7,2.7,0,0,1,.62.82,2.65,2.65,0,0,1,.27,1.2A2.94,2.94,0,0,1-1.35,642.93Zm-5.79-1.35a3.84,3.84,0,0,0,2.1.48,3.94,3.94,0,0,0,2.1-.47,1.51,1.51,0,0,0,.74-1.35,1.49,1.49,0,0,0-.74-1.35,3.94,3.94,0,0,0-2.1-.47,3.94,3.94,0,0,0-2.1.47,1.51,1.51,0,0,0-.74,1.35A1.51,1.51,0,0,0-7.14,641.58Zm-.36-6.52a1.36,1.36,0,0,0,.64,1.19,3.24,3.24,0,0,0,1.82.44,3.25,3.25,0,0,0,1.83-.44,1.38,1.38,0,0,0,.64-1.19,1.36,1.36,0,0,0-.66-1.2A3.23,3.23,0,0,0-5,633.42a3.25,3.25,0,0,0-1.81.44A1.35,1.35,0,0,0-7.5,635.06Z" fill="#003a50"/><path d="M2.12,643.56a1,1,0,0,1-.32-.8,1.07,1.07,0,0,1,.32-.81,1.24,1.24,0,0,1,.87-.3,1.24,1.24,0,0,1,.87.3,1.07,1.07,0,0,1,.32.81,1,1,0,0,1-.32.8,1.24,1.24,0,0,1-.87.3A1.24,1.24,0,0,1,2.12,643.56Z" fill="#003a50"/><path d="M12.23,633.63H6.41v-1.84h8.86v1.84l-4.53,2.65v.07H12a3.86,3.86,0,0,1,2.79,1A3.52,3.52,0,0,1,15.87,640a3.35,3.35,0,0,1-1.33,2.83,5.89,5.89,0,0,1-3.62,1,5.85,5.85,0,0,1-3.62-1A3.36,3.36,0,0,1,6,640v-.32H8.08V640c0,1.36.94,2,2.84,2s2.84-.67,2.84-2-.95-2-2.84-2H7.65v-1.67l4.58-2.68Z" fill="#003a50"/></g></svg>