<svg id="Слой_1" data-name="Слой 1" xmlns="http://www.w3.org/2000/svg" xmlns:xlink="http://www.w3.org/1999/xlink" viewBox="0 0 581.1 365.67"><defs><clipPath id="clip-path"><polygon points="0 0.14 0 316.49 14.31 316.49 14.31 365.53 581.1 365.53 581.1 66.41 288.4 66.41 288.4 0.14 0 0.14" fill="none"/></clipPath></defs><g clip-path="url(#clip-path)"><polygon points="579.02 -452.98 579.02 -101.82 644.4 -100.35 655.17 -79.1 655.17 -31.84 653.85 172.49 673.92 174.65 676.7 204.55 1152.27 204.55 1152.27 -115.67 1152.27 -186.6 1152.27 -452.98 579.02 -452.98" fill="#fff"/></g><polygon points="15.65 0.14 15.65 1.98 284.85 1.98 282.26 69.5 512.51 70.12 525.08 70.12 525 66.41 288.4 66.41 288.4 0.14 15.65 0.14" fill="#fff"/><polygon points="15.65 0.69 15.65 357.5 526.57 358.46 526.57 253.97 512.51 242.9 512.51 193.59 517.66 74.47 285.09 69.5 286.78 0.69 15.65 0.69" fill="#fff"/><g clip-path="url(#clip-path)"><rect x="2.05" y="-464.89" width="1162.95" height="2240.57" fill="none" stroke="#003a50" stroke-miterlimit="10"/><polygon points="14.63 639.28 14.63 1762.83 1152.02 1762.83 1152.02 -451.94 14.63 -452.1 14.63 568.57 14.63 639.28" fill="none" stroke="#003a50" stroke-miterlimit="10"/></g><rect x="35.25" y="201.76" width="4.55" height="89.7" fill="#fff"/><rect x="35.25" y="201.76" width="4.55" height="89.7" fill="none" stroke="#003a50" stroke-miterlimit="10"/><line x1="37.52" y1="291.46" x2="37.52" y2="201.76" fill="none" stroke="#003a50" stroke-miterlimit="10"/><rect x="35.25" y="286.81" width="4.55" height="4.65" fill="#fff"/><rect x="35.25" y="286.81" width="4.55" height="4.65" fill="none" stroke="#003a50" stroke-miterlimit="10"/><rect x="35.25" y="201.76" width="4.55" height="4.65" fill="#fff"/><rect x="35.25" y="201.76" width="4.55" height="4.65" fill="none" stroke="#003a50" stroke-miterlimit="10"/><rect x="35.25" y="243.19" width="4.55" height="4.65" fill="#fff"/><rect x="35.25" y="243.19" width="4.55" height="4.65" fill="none" stroke="#003a50" stroke-miterlimit="10"/><g clip-path="url(#clip-path)"><path d="M39.8,243.19h2.9c20.15,0,33.1-16.47,33.1-36.78h-36" fill="none" stroke="#003a50" stroke-miterlimit="10"/></g><rect x="35.25" y="20.86" width="4.55" height="86.06" fill="#fff"/><rect x="35.25" y="20.86" width="4.55" height="86.06" fill="none" stroke="#003a50" stroke-miterlimit="10"/><line x1="37.52" y1="20.86" x2="37.52" y2="106.92" fill="none" stroke="#003a50" stroke-miterlimit="10"/><rect x="35.25" y="20.86" width="4.55" height="4.46" fill="#fff"/><rect x="35.25" y="20.86" width="4.55" height="4.46" fill="none" stroke="#003a50" stroke-miterlimit="10"/><rect x="35.25" y="102.46" width="4.55" height="4.46" fill="#fff"/><rect x="35.25" y="102.46" width="4.55" height="4.46" fill="none" stroke="#003a50" stroke-miterlimit="10"/><rect x="35.25" y="62.71" width="4.55" height="4.46" fill="#fff"/><rect x="35.25" y="62.71" width="4.55" height="4.46" fill="none" stroke="#003a50" stroke-miterlimit="10"/><g clip-path="url(#clip-path)"><path d="M39.8,67.17h2.9c20.15,0,33.1,15.8,33.1,35.29h-36" fill="none" stroke="#003a50" stroke-miterlimit="10"/><rect x="313.49" y="37.39" width="72.48" height="29.76" fill="none" stroke="#003a50" stroke-miterlimit="10"/></g><rect x="359.44" y="251.79" width="34.02" height="99.6" fill="none" stroke="#003a50" stroke-miterlimit="10"/><g clip-path="url(#clip-path)"><rect x="51.77" y="-33.61" width="230.49" height="34.02" fill="none" stroke="#003a50" stroke-miterlimit="10"/><rect x="386.01" y="-28.92" width="43.33" height="96.06" fill="none" stroke="#003a50" stroke-miterlimit="10"/><path d="M391.37,47V-8.77a15.94,15.94,0,0,1,15.94-15.94H408A15.94,15.94,0,0,1,424-8.77V47A15.93,15.93,0,0,1,408,62.92h-.73A15.94,15.94,0,0,1,391.37,47Z" fill="none" stroke="#003a50" stroke-miterlimit="10"/><path d="M407.67,45.4a2.27,2.27,0,1,1-2.26,2.27A2.27,2.27,0,0,1,407.67,45.4Z" fill="none" stroke="#003a50" stroke-miterlimit="10"/></g><rect x="378.48" y="79.61" width="41.13" height="98.9" fill="none" stroke="#003a50" stroke-miterlimit="10"/><g clip-path="url(#clip-path)"><path d="M414.51,99.42V158.7a15.47,15.47,0,1,1-30.94,0V99.42a15.47,15.47,0,0,1,30.94,0Z" fill="none" stroke="#003a50" stroke-miterlimit="10"/><path d="M399,101.85a2.2,2.2,0,1,1,2.2-2.2A2.2,2.2,0,0,1,399,101.85Z" fill="none" stroke="#003a50" stroke-miterlimit="10"/><path d="M342.41,10.52H313.56V-12.27h28.85a11.4,11.4,0,0,1,11.4,11.4A11.4,11.4,0,0,1,342.41,10.52Z" fill="none" stroke="#003a50" stroke-miterlimit="10"/><path d="M458.11,130.32H487v22.8H458.11a11.4,11.4,0,0,1,0-22.8Z" fill="none" stroke="#003a50" stroke-miterlimit="10"/></g><line x1="475.73" y1="153.12" x2="475.73" y2="130.32" fill="none" stroke="#003a50" stroke-miterlimit="10"/><g clip-path="url(#clip-path)"><rect x="353.25" y="39.78" width="28.96" height="29.71" rx="3.36" fill="none" stroke="#003a50" stroke-miterlimit="10"/><circle cx="367.73" cy="54.64" r="2.27" transform="translate(254.89 408.87) rotate(-80.78)" fill="none" stroke="#003a50" stroke-miterlimit="10"/></g><rect x="419.72" y="79.95" width="37.82" height="26.34" fill="none" stroke="#003a50" stroke-miterlimit="10"/><g clip-path="url(#clip-path)"><rect x="425.32" y="77.85" width="25.64" height="26.31" rx="2.97" fill="none" stroke="#003a50" stroke-miterlimit="10"/><path d="M438.14,93a2,2,0,1,1,2-2A2,2,0,0,1,438.14,93Z" fill="none" stroke="#003a50" stroke-miterlimit="10"/><rect x="313.8" y="37.39" width="34.02" height="28.84" fill="none" stroke="#003a50" stroke-miterlimit="10"/><path d="M336.11,43.51H334a3.07,3.07,0,0,1-5.72,0H325.5l-5.29,3,2.53,4,2.38-1.26V60.12h11.37V49.26l2.38,1.26,2.52-4Z" fill="none" stroke="#003a50" stroke-miterlimit="10"/></g><rect x="457.54" y="80.14" width="30.12" height="25.9" fill="none" stroke="#003a50" stroke-miterlimit="10"/><g clip-path="url(#clip-path)"><path d="M477.3,86.14h-1.87a2.73,2.73,0,0,1-5.07,0H467.9l-4.68,2.68,2.24,3.53,2.11-1.12v9.62h10.06V91.23l2.11,1.12L482,88.82Z" fill="none" stroke="#003a50" stroke-miterlimit="10"/><rect x="107.44" y="-33.61" width="34.02" height="34.02" fill="none" stroke="#003a50" stroke-miterlimit="10"/><rect x="217.06" y="-33.61" width="34.02" height="34.02" fill="none" stroke="#003a50" stroke-miterlimit="10"/><rect x="51.79" y="-33.61" width="34.02" height="34.02" fill="none" stroke="#003a50" stroke-miterlimit="10"/></g><rect x="338.64" y="153.03" width="33.05" height="33.05" fill="none" stroke="#003a50" stroke-miterlimit="10"/><line x1="355.16" y1="179.26" x2="355.16" y2="159.87" fill="none" stroke="#003a50" stroke-miterlimit="10"/><line x1="364.86" y1="169.56" x2="345.46" y2="169.56" fill="none" stroke="#003a50" stroke-miterlimit="10"/><line x1="362.02" y1="176.42" x2="348.3" y2="162.71" fill="none" stroke="#003a50" stroke-miterlimit="10"/><line x1="362.02" y1="162.7" x2="348.3" y2="176.42" fill="none" stroke="#003a50" stroke-miterlimit="10"/><g clip-path="url(#clip-path)"><rect x="362.9" y="303.2" width="21.66" height="30.06" rx="3.36" fill="none" stroke="#003a50" stroke-miterlimit="10"/><circle cx="377.53" cy="318.23" r="2.46" transform="matrix(0.53, -0.85, 0.85, 0.53, -91.65, 472.07)" fill="none" stroke="#003a50" stroke-miterlimit="10"/></g><line x1="376.77" y1="318.23" x2="390.39" y2="318.23" fill="none" stroke="#003a50" stroke-miterlimit="10"/><line x1="390.39" y1="325.04" x2="390.39" y2="311.42" fill="none" stroke="#003a50" stroke-miterlimit="10"/><rect x="337.94" y="80.3" width="34.02" height="68.03" fill="none" stroke="#003a50" stroke-miterlimit="10"/><g clip-path="url(#clip-path)"><path d="M342.76,131.21a1,1,0,0,1-.44-1.9,28.77,28.77,0,0,1,25.26,0,1,1,0,0,1-.89,1.8,26.72,26.72,0,0,0-23.49,0A1,1,0,0,1,342.76,131.21Z" fill="none" stroke="#003a50" stroke-miterlimit="10"/><path d="M342.76,125.65a1,1,0,0,1-.44-1.91,28.77,28.77,0,0,1,25.26,0,1,1,0,0,1,.45,1.34,1,1,0,0,1-1.34.46,26.81,26.81,0,0,0-23.49,0A1,1,0,0,1,342.76,125.65Z" fill="none" stroke="#003a50" stroke-miterlimit="10"/><path d="M342.76,120.08a1,1,0,0,1-.44-1.9,28.77,28.77,0,0,1,25.26,0,1,1,0,0,1-.89,1.8,26.72,26.72,0,0,0-23.49,0A1,1,0,0,1,342.76,120.08Z" fill="none" stroke="#003a50" stroke-miterlimit="10"/><path d="M342.76,114.52a1,1,0,0,1-.44-1.91,28.77,28.77,0,0,1,25.26,0A1,1,0,0,1,368,114a1,1,0,0,1-1.34.46,26.81,26.81,0,0,0-23.49,0A1,1,0,0,1,342.76,114.52Z" fill="none" stroke="#003a50" stroke-miterlimit="10"/><path d="M342.76,109a1,1,0,0,1-.44-1.9,28.77,28.77,0,0,1,25.26,0,1,1,0,0,1-.89,1.8,26.72,26.72,0,0,0-23.49,0A1,1,0,0,1,342.76,109Z" fill="none" stroke="#003a50" stroke-miterlimit="10"/><path d="M342.76,103.38a1,1,0,0,1-.9-.56,1,1,0,0,1,.46-1.34,28.77,28.77,0,0,1,25.26,0,1,1,0,0,1-.89,1.8,26.72,26.72,0,0,0-23.49,0A1,1,0,0,1,342.76,103.38Z" fill="none" stroke="#003a50" stroke-miterlimit="10"/><path d="M342.76,136.78a1,1,0,0,1-.44-1.91,28.77,28.77,0,0,1,25.26,0,1,1,0,0,1,.45,1.34,1,1,0,0,1-1.34.46,26.81,26.81,0,0,0-23.49,0A1,1,0,0,1,342.76,136.78Z" fill="none" stroke="#003a50" stroke-miterlimit="10"/><path d="M342.76,142.34a1,1,0,0,1-.44-1.9,28.77,28.77,0,0,1,25.26,0,1,1,0,0,1-.89,1.8,26.72,26.72,0,0,0-23.49,0A1,1,0,0,1,342.76,142.34Z" fill="none" stroke="#003a50" stroke-miterlimit="10"/></g><line x1="354.95" y1="148.33" x2="354.95" y2="80.68" fill="none" stroke="#003a50" stroke-miterlimit="10"/><g clip-path="url(#clip-path)"><path d="M290.58,82.44a1,1,0,0,1,1.91-.44,28.77,28.77,0,0,1,0,25.26,1,1,0,0,1-1.34.45,1,1,0,0,1-.46-1.34,26.81,26.81,0,0,0,0-23.49A.87.87,0,0,1,290.58,82.44Z" fill="none" stroke="#003a50" stroke-miterlimit="10"/><path d="M296.15,82.44a1,1,0,0,1,1.9-.44,28.77,28.77,0,0,1,0,25.26,1,1,0,0,1-1.8-.89,26.72,26.72,0,0,0,0-23.49A1,1,0,0,1,296.15,82.44Z" fill="none" stroke="#003a50" stroke-miterlimit="10"/><path d="M301.71,82.44a1,1,0,0,1,1.91-.44,28.77,28.77,0,0,1,0,25.26,1,1,0,0,1-1.34.45,1,1,0,0,1-.46-1.34,26.81,26.81,0,0,0,0-23.49A1,1,0,0,1,301.71,82.44Z" fill="none" stroke="#003a50" stroke-miterlimit="10"/><path d="M307.28,82.44a1,1,0,0,1,1.9-.44,28.77,28.77,0,0,1,0,25.26,1,1,0,0,1-1.8-.89,26.72,26.72,0,0,0,0-23.49A1,1,0,0,1,307.28,82.44Z" fill="none" stroke="#003a50" stroke-miterlimit="10"/><path d="M312.84,82.44a1,1,0,0,1,1.91-.44,28.77,28.77,0,0,1,0,25.26,1,1,0,0,1-1.34.45,1,1,0,0,1-.46-1.34,26.81,26.81,0,0,0,0-23.49A1,1,0,0,1,312.84,82.44Z" fill="none" stroke="#003a50" stroke-miterlimit="10"/><path d="M318.41,82.44a1,1,0,0,1,1.9-.44,28.77,28.77,0,0,1,0,25.26,1,1,0,0,1-1.8-.89,26.72,26.72,0,0,0,0-23.49A1,1,0,0,1,318.41,82.44Z" fill="none" stroke="#003a50" stroke-miterlimit="10"/><path d="M285,82.44a1,1,0,0,1,1.9-.44,28.77,28.77,0,0,1,0,25.26,1,1,0,0,1-1.8-.89,26.72,26.72,0,0,0,0-23.49A1,1,0,0,1,285,82.44Z" fill="none" stroke="#003a50" stroke-miterlimit="10"/><path d="M279.45,82.44a1,1,0,0,1,1.91-.44,28.77,28.77,0,0,1,0,25.26,1,1,0,0,1-1.34.45,1,1,0,0,1-.46-1.34,26.81,26.81,0,0,0,0-23.49A.87.87,0,0,1,279.45,82.44Z" fill="none" stroke="#003a50" stroke-miterlimit="10"/></g><line x1="272.73" y1="94.63" x2="337.94" y2="94.63" fill="none" stroke="#003a50" stroke-miterlimit="10"/><rect x="272.73" y="79.61" width="65.21" height="29.22" fill="none" stroke="#003a50" stroke-miterlimit="10"/><g clip-path="url(#clip-path)"><rect x="436.29" y="35.18" width="56.47" height="30.8" fill="none" stroke="#003a50" stroke-miterlimit="10"/><path d="M451.79,39.54a.89.89,0,0,1,.5-.81.91.91,0,0,1,1.22.41,26.09,26.09,0,0,1,0,22.87.91.91,0,1,1-1.63-.8,24.22,24.22,0,0,0,0-21.27A.78.78,0,0,1,451.79,39.54Z" fill="none" stroke="#003a50" stroke-miterlimit="10"/><path d="M456.82,39.54a.9.9,0,0,1,.51-.81.91.91,0,0,1,1.22.41,26.09,26.09,0,0,1,0,22.87.91.91,0,1,1-1.63-.8,24.22,24.22,0,0,0,0-21.27A.79.79,0,0,1,456.82,39.54Z" fill="none" stroke="#003a50" stroke-miterlimit="10"/><path d="M461.86,39.54a.9.9,0,0,1,.51-.81.91.91,0,0,1,1.22.41,26.09,26.09,0,0,1,0,22.87.91.91,0,1,1-1.63-.8,24.22,24.22,0,0,0,0-21.27A.79.79,0,0,1,461.86,39.54Z" fill="none" stroke="#003a50" stroke-miterlimit="10"/><path d="M466.9,39.54a.9.9,0,0,1,.51-.81.91.91,0,0,1,1.22.41,26.09,26.09,0,0,1,0,22.87.92.92,0,0,1-1.22.42.9.9,0,0,1-.41-1.22,24.31,24.31,0,0,0,0-21.27A.79.79,0,0,1,466.9,39.54Z" fill="none" stroke="#003a50" stroke-miterlimit="10"/><path d="M471.94,39.54a.9.9,0,0,1,.51-.81.91.91,0,0,1,1.22.41,26.09,26.09,0,0,1,0,22.87.92.92,0,0,1-1.22.42.9.9,0,0,1-.41-1.22,24.31,24.31,0,0,0,0-21.27A.79.79,0,0,1,471.94,39.54Z" fill="none" stroke="#003a50" stroke-miterlimit="10"/><path d="M477,39.54a.91.91,0,0,1,1.72-.4,26,26,0,0,1,0,22.87.9.9,0,1,1-1.62-.8,24.31,24.31,0,0,0,0-21.27A.79.79,0,0,1,477,39.54Z" fill="none" stroke="#003a50" stroke-miterlimit="10"/><path d="M446.75,39.54a.89.89,0,0,1,.5-.81.91.91,0,0,1,1.22.41,26.09,26.09,0,0,1,0,22.87.91.91,0,1,1-1.63-.8,24.22,24.22,0,0,0,0-21.27A.78.78,0,0,1,446.75,39.54Z" fill="none" stroke="#003a50" stroke-miterlimit="10"/><path d="M441.71,39.54a.91.91,0,0,1,1.72-.4,26,26,0,0,1,0,22.87.91.91,0,1,1-1.63-.8,24.22,24.22,0,0,0,0-21.27A.9.9,0,0,1,441.71,39.54Z" fill="none" stroke="#003a50" stroke-miterlimit="10"/></g><rect x="399.4" y="256.96" width="34.02" height="70.33" fill="none" stroke="#003a50" stroke-miterlimit="10"/><rect x="435.84" y="327.76" width="39.54" height="23.61" fill="none" stroke="#003a50" stroke-miterlimit="10"/><rect x="291.65" y="152.76" width="33.59" height="33.59" fill="none" stroke="#003a50" stroke-miterlimit="10"/><g clip-path="url(#clip-path)"><circle cx="316.12" cy="177.07" r="4.58" fill="none" stroke="#003a50" stroke-miterlimit="10"/><circle cx="300.83" cy="177.07" r="4.58" fill="none" stroke="#003a50" stroke-miterlimit="10"/><circle cx="316.12" cy="162.17" r="4.58" fill="none" stroke="#003a50" stroke-miterlimit="10"/><circle cx="300.83" cy="162.17" r="4.58" fill="none" stroke="#003a50" stroke-miterlimit="10"/></g><rect x="83.4" y="163.36" width="102.05" height="17.01" fill="none" stroke="#003a50" stroke-miterlimit="10"/><polygon points="91.43 171.33 134.32 174.85 177.43 171.33 177.43 168.87 91.43 168.87 91.43 171.33" fill="none" stroke="#003a50" stroke-miterlimit="10"/><rect x="83.4" y="186.75" width="102.05" height="17.01" fill="none" stroke="#003a50" stroke-miterlimit="10"/><polygon points="177.43 195.79 134.53 192.26 91.43 195.79 91.43 198.25 177.43 198.25 177.43 195.79" fill="none" stroke="#003a50" stroke-miterlimit="10"/><rect x="271.11" y="152.77" width="101.46" height="33.59" fill="none" stroke="#003a50" stroke-miterlimit="10"/><g clip-path="url(#clip-path)"><path d="M300.49,293.85a1.25,1.25,0,0,1-.94-1.5,13.78,13.78,0,1,0-26.87-6.16,1.26,1.26,0,0,1-2.46-.57A16.3,16.3,0,0,1,302,292.91,1.25,1.25,0,0,1,300.49,293.85Z" fill="none" stroke="#003a50" stroke-miterlimit="10"/><path d="M245.32,284.14a1.26,1.26,0,0,1-1.75.33,13.78,13.78,0,1,0-15.52,22.78,1.26,1.26,0,0,1-1.42,2.08A16.3,16.3,0,0,1,245,282.39,1.25,1.25,0,0,1,245.32,284.14Z" fill="none" stroke="#003a50" stroke-miterlimit="10"/><path d="M242.82,331.54a1.26,1.26,0,0,1,1.33,1.18,13.78,13.78,0,1,0,27.52-1.63,1.26,1.26,0,0,1,2.51-.15,16.3,16.3,0,1,1-32.54,1.93A1.25,1.25,0,0,1,242.82,331.54Z" fill="none" stroke="#003a50" stroke-miterlimit="10"/><path d="M286.29,277.24a12.69,12.69,0,0,1,12,15.48l-2,8.88a3.53,3.53,0,0,1-4.24,2.68l-13.44-3.08a23.73,23.73,0,0,0-6-9.44l1-4.2C274.89,281.6,280.17,277,286.29,277.24Z" fill="none" stroke="#003a50" stroke-miterlimit="10"/><path d="M243.49,285.76l2.32,1.6a23.81,23.81,0,0,0-13.64,21.32L229.65,307c-5-3.44-7.4-10-5-15.64A12.7,12.7,0,0,1,243.49,285.76Z" fill="none" stroke="#003a50" stroke-miterlimit="10"/><path d="M270.33,328l.12,2c.36,6.12-3.4,12-9.32,13.48A12.66,12.66,0,0,1,245.25,332l-.12-1.84a23.93,23.93,0,0,0,16.64,1.92A23.5,23.5,0,0,0,270.33,328Z" fill="none" stroke="#003a50" stroke-miterlimit="10"/><path d="M272.57,291.76a23.73,23.73,0,0,1,6,9.44,16.51,16.51,0,0,1,.6,2A23.85,23.85,0,0,1,270.33,328a23.5,23.5,0,0,1-8.56,4,23.87,23.87,0,0,1-28.92-17.4,22.12,22.12,0,0,1-.68-6,23.81,23.81,0,0,1,13.64-21.32,22.85,22.85,0,0,1,4.48-1.6A23.8,23.8,0,0,1,272.57,291.76Z" fill="none" stroke="#003a50" stroke-miterlimit="10"/><path d="M141.63,305.67v41H95.86V303.46h43.56A2.2,2.2,0,0,1,141.63,305.67Z" fill="none" stroke="#003a50" stroke-miterlimit="10"/><path d="M187.5,305.44V346.7H141.73V305.44a2,2,0,0,1,2-2h41.8A2,2,0,0,1,187.5,305.44Z" fill="none" stroke="#003a50" stroke-miterlimit="10"/><path d="M95.86,303.46a3.11,3.11,0,0,0-3.33-2.83H88.31A3.11,3.11,0,0,0,85,303.46v48.19H198.37V303.88a3.11,3.11,0,0,0-3.33-2.83h-4.22a3.11,3.11,0,0,0-3.32,2.83v42.83H95.86Z" fill="none" stroke="#003a50" stroke-miterlimit="10"/></g><rect x="95.86" y="337.45" width="91.64" height="9.25" fill="none" stroke="#003a50" stroke-miterlimit="10"/><rect x="54.44" y="14.17" width="22.68" height="22.68" fill="none" stroke="#003a50" stroke-miterlimit="10"/><g clip-path="url(#clip-path)"><path d="M72.28,32a9.19,9.19,0,1,1,0-13A9.19,9.19,0,0,1,72.28,32Z" fill="none" stroke="#003a50" stroke-miterlimit="10"/><path d="M72.9,31.31c-1.69-.17-3.41.49-5.06-1.17-2.44-2.44.14-5-2.3-7.45s-5,.13-7.46-2.3" fill="none" stroke="#003a50" stroke-miterlimit="10"/></g><rect x="191.74" y="14.17" width="22.68" height="22.68" fill="none" stroke="#003a50" stroke-miterlimit="10"/><g clip-path="url(#clip-path)"><path d="M209.58,32a9.19,9.19,0,1,1,0-13A9.19,9.19,0,0,1,209.58,32Z" fill="none" stroke="#003a50" stroke-miterlimit="10"/><path d="M210.2,31.31c-1.69-.17-3.41.49-5.06-1.17-2.44-2.44.14-5-2.3-7.45s-5,.13-7.46-2.3" fill="none" stroke="#003a50" stroke-miterlimit="10"/></g><rect x="83.44" y="14.17" width="102.05" height="113.39" fill="none" stroke="#003a50" stroke-miterlimit="10"/><g clip-path="url(#clip-path)"><path d="M175.49,117.81H93.44a2.08,2.08,0,0,1-2.08-2.08V48.08h86.22v67.65A2.09,2.09,0,0,1,175.49,117.81Z" fill="none" stroke="#003a50" stroke-miterlimit="10"/><rect x="91.11" y="21.59" width="42.5" height="22.88" rx="1.98" fill="none" stroke="#003a50" stroke-miterlimit="10"/><rect x="135.33" y="21.59" width="42.5" height="22.88" rx="1.98" fill="none" stroke="#003a50" stroke-miterlimit="10"/></g><line x1="177.83" y1="61.94" x2="91.1" y2="61.94" fill="none" stroke="#003a50" stroke-miterlimit="10"/><g clip-path="url(#clip-path)"><path d="M404.24,310.17a1,1,0,0,1-.9-.56,1,1,0,0,1,.45-1.34,28.77,28.77,0,0,1,25.26,0,1,1,0,0,1-.88,1.8,26.72,26.72,0,0,0-23.49,0A1,1,0,0,1,404.24,310.17Z" fill="none" stroke="#003a50" stroke-miterlimit="10"/><path d="M404.24,304.61a1,1,0,0,1-.9-.56,1,1,0,0,1,.45-1.35,28.77,28.77,0,0,1,25.26,0,1,1,0,0,1,.46,1.34,1,1,0,0,1-1.34.46,26.81,26.81,0,0,0-23.49,0A.9.9,0,0,1,404.24,304.61Z" fill="none" stroke="#003a50" stroke-miterlimit="10"/><path d="M404.24,299a1,1,0,0,1-.45-1.9,28.77,28.77,0,0,1,25.26,0,1,1,0,0,1-.88,1.8,26.72,26.72,0,0,0-23.49,0A1,1,0,0,1,404.24,299Z" fill="none" stroke="#003a50" stroke-miterlimit="10"/><path d="M404.24,293.48a1,1,0,0,1-.9-.56,1,1,0,0,1,.45-1.35,28.77,28.77,0,0,1,25.26,0,1,1,0,0,1,.46,1.34,1,1,0,0,1-1.34.46,26.81,26.81,0,0,0-23.49,0A.9.9,0,0,1,404.24,293.48Z" fill="none" stroke="#003a50" stroke-miterlimit="10"/><path d="M404.24,287.91a1,1,0,0,1-.45-1.9,28.77,28.77,0,0,1,25.26,0,1,1,0,0,1-.88,1.8,26.72,26.72,0,0,0-23.49,0A1,1,0,0,1,404.24,287.91Z" fill="none" stroke="#003a50" stroke-miterlimit="10"/><path d="M404.24,282.35a1,1,0,0,1-.9-.56,1,1,0,0,1,.45-1.35,28.77,28.77,0,0,1,25.26,0,1,1,0,0,1,.46,1.34,1,1,0,0,1-1.34.46,26.81,26.81,0,0,0-23.49,0A1,1,0,0,1,404.24,282.35Z" fill="none" stroke="#003a50" stroke-miterlimit="10"/><path d="M404.24,315.74a1,1,0,0,1-.9-.56,1,1,0,0,1,.45-1.35,28.77,28.77,0,0,1,25.26,0,1,1,0,0,1,.46,1.34,1,1,0,0,1-1.34.46,26.81,26.81,0,0,0-23.49,0A.9.9,0,0,1,404.24,315.74Z" fill="none" stroke="#003a50" stroke-miterlimit="10"/><path d="M404.24,321.3a1,1,0,0,1-.9-.56,1,1,0,0,1,.45-1.34,28.77,28.77,0,0,1,25.26,0,1,1,0,0,1-.88,1.8,26.72,26.72,0,0,0-23.49,0A1,1,0,0,1,404.24,321.3Z" fill="none" stroke="#003a50" stroke-miterlimit="10"/></g><line x1="416.42" y1="327.29" x2="416.42" y2="256.96" fill="none" stroke="#003a50" stroke-miterlimit="10"/><g clip-path="url(#clip-path)"><path d="M232.41,43.37a14.78,14.78,0,0,0-15.93,23.39,1.14,1.14,0,0,0,1.61.17,1.13,1.13,0,0,0,.17-1.6,12.47,12.47,0,0,1,14.15-19.5Z" fill="none" stroke="#003a50" stroke-miterlimit="10"/><rect x="232.41" y="13.6" width="34.02" height="84.03" rx="3.31" fill="none" stroke="#003a50" stroke-miterlimit="10"/><path d="M262.72,16.15a1.4,1.4,0,0,0-1.4,1.39V93.69a1.4,1.4,0,0,0,2.79,0V17.54a1.39,1.39,0,0,0-1.39-1.39" fill="none" stroke="#003a50" stroke-miterlimit="10"/><path d="M248.14,84a5.5,5.5,0,1,1,0,7.78A5.49,5.49,0,0,1,248.14,84Z" fill="none" stroke="#003a50" stroke-miterlimit="10"/><path d="M247.77,84.37c1,.1,2-.29,3,.7,1.46,1.46-.08,3,1.38,4.47s3-.09,4.47,1.38" fill="none" stroke="#003a50" stroke-miterlimit="10"/><path d="M232.41,48.08a10.63,10.63,0,1,0,0,19.59Z" fill="none" stroke="#003a50" stroke-miterlimit="10"/></g><rect x="359.44" y="251.52" width="34.02" height="34.02" fill="none" stroke="#003a50" stroke-miterlimit="10"/><line x1="375.71" y1="270.54" x2="375.71" y2="281.1" fill="none" stroke="#003a50" stroke-miterlimit="10"/><g clip-path="url(#clip-path)"><path d="M376.62,270.54H374.8a3.39,3.39,0,0,1-3.39-3.39V256H380v11.2A3.4,3.4,0,0,1,376.62,270.54Z" fill="none" stroke="#003a50" stroke-miterlimit="10"/></g><line x1="372.24" y1="281.1" x2="379.19" y2="281.1" fill="none" stroke="#003a50" stroke-miterlimit="10"/><g clip-path="url(#clip-path)"><path d="M425.27,181.53v3.08A38.71,38.71,0,0,0,464,223.32V181.53" fill="none" stroke="#003a50" stroke-miterlimit="10" stroke-width="1.6"/><path d="M216.66,183.67v-3.58A45.07,45.07,0,0,1,261.72,135v48.65" fill="none" stroke="#003a50" stroke-miterlimit="10" stroke-width="1.6"/><path d="M523.83,244h4.07A51.13,51.13,0,0,0,579,192.82h-55.2" fill="none" stroke="#003a50" stroke-miterlimit="10" stroke-width="1.6"/><line x1="498.8" y1="246.9" x2="444.31" y2="246.9" fill="none" stroke="#003a50" stroke-miterlimit="10" stroke-width="1.6"/><rect x="15.91" y="106.54" width="35.6" height="95.23" fill="#003a50"/><rect x="15.65" y="-73.34" width="35.86" height="94.46" fill="#003a50"/><rect x="13.65" y="291.27" width="37.85" height="97.19" fill="#003a50"/><rect x="3.18" y="291.27" width="44.33" height="25.9" fill="#003a50"/><rect x="3.18" y="107.13" width="44.33" height="27.24" fill="#003a50"/><rect x="37.34" y="351.9" width="491.33" height="13.79" fill="#003a50"/><rect x="37.34" y="-0.1" width="249.5" height="13.79" fill="#003a50"/><rect x="277.01" y="66.23" width="249.5" height="13.79" fill="#003a50"/><rect x="512.51" y="66.84" width="16.81" height="126.75" fill="#003a50"/><rect x="512.51" y="242.9" width="16.81" height="17.72" fill="#003a50"/><rect x="475.55" y="250.9" width="53.77" height="11.84" fill="#003a50"/><rect x="475.55" y="256.82" width="10.5" height="98.45" fill="#003a50"/><rect x="493.01" y="-33.13" width="11.67" height="106.25" fill="#003a50"/><rect x="269.54" y="-0.1" width="17.3" height="80.12" fill="#003a50"/><rect x="306.9" y="-28.64" width="6.38" height="99.52" fill="#003a50"/><rect x="429.66" y="-28.64" width="6.38" height="99.52" fill="#003a50"/><rect x="281.91" y="-28.64" width="6.38" height="99.52" fill="#003a50"/><rect x="522.94" y="256.06" width="6.38" height="132.4" fill="#003a50"/><rect x="392.96" y="251.76" width="6.38" height="106.7" fill="#003a50"/><rect x="522.94" y="-37.12" width="6.38" height="107.23" fill="#003a50"/><rect x="372.58" y="178.79" width="53.52" height="6.38" fill="#003a50"/><rect x="371.98" y="75.84" width="6.38" height="108.39" fill="#003a50"/><rect x="463.15" y="178.79" width="63.43" height="6.38" fill="#003a50"/><rect x="392.96" y="250.78" width="41.3" height="6.38" fill="#003a50"/><rect x="395.3" y="327.47" width="40.36" height="6.38" fill="#003a50"/><rect x="429.28" y="327.47" width="6.38" height="25.8" fill="#003a50"/><rect x="471.32" y="250.78" width="55.26" height="6.38" fill="#003a50"/><rect x="489.37" y="156.99" width="29.83" height="6.38" fill="#003a50"/><rect x="487.25" y="77.09" width="6.38" height="104.88" fill="#003a50"/><rect x="41.74" y="180.04" width="175.76" height="6.38" fill="#003a50"/><rect x="275.61" y="146.46" width="100.55" height="7.69" fill="#003a50"/><line x1="393.46" y1="265.03" x2="393.46" y2="262.19" fill="none" stroke="#003a50" stroke-miterlimit="10"/><line x1="393.46" y1="256.42" x2="393.46" y2="190.1" fill="none" stroke="#003a50" stroke-miterlimit="10" stroke-dasharray="5.77 5.77"/><line x1="393.46" y1="187.22" x2="393.46" y2="184.38" fill="none" stroke="#003a50" stroke-miterlimit="10"/><rect x="306.9" y="-28.64" width="6.38" height="99.52" fill="#003a50"/><rect x="266.36" y="6.79" width="6.38" height="102.03" fill="#003a50"/><rect x="266.36" y="146.46" width="6.38" height="39.96" fill="#003a50"/><rect x="429.66" y="-28.64" width="6.38" height="99.52" fill="#003a50"/><rect x="281.91" y="-28.64" width="6.38" height="99.52" fill="#003a50"/><rect x="522.94" y="256.06" width="6.38" height="132.4" fill="#003a50"/><rect x="392.96" y="251.76" width="6.38" height="106.7" fill="#003a50"/><rect x="522.94" y="-37.12" width="6.38" height="107.23" fill="#003a50"/><rect x="372.58" y="178.79" width="53.52" height="6.38" fill="#003a50"/><rect x="371.98" y="75.84" width="6.38" height="108.39" fill="#003a50"/><rect x="463.15" y="178.79" width="63.43" height="6.38" fill="#003a50"/><rect x="392.96" y="250.78" width="41.3" height="6.38" fill="#003a50"/><rect x="395.3" y="327.47" width="40.36" height="6.38" fill="#003a50"/><rect x="429.28" y="327.47" width="6.38" height="25.8" fill="#003a50"/><rect x="471.32" y="250.78" width="55.26" height="6.38" fill="#003a50"/><rect x="489.37" y="156.99" width="29.83" height="6.38" fill="#003a50"/><rect x="487.25" y="77.09" width="6.38" height="104.88" fill="#003a50"/><rect x="41.74" y="180.04" width="175.76" height="6.38" fill="#003a50"/><rect x="260.96" y="180.04" width="11.53" height="6.38" fill="#003a50"/><rect x="269.54" y="146.46" width="106.61" height="7.69" fill="#003a50"/><line x1="393.46" y1="265.03" x2="393.46" y2="262.19" fill="none" stroke="#003a50" stroke-miterlimit="10"/><line x1="393.46" y1="256.42" x2="393.46" y2="190.1" fill="none" stroke="#003a50" stroke-miterlimit="10" stroke-dasharray="5.77 5.77"/><line x1="393.46" y1="187.22" x2="393.46" y2="184.38" fill="none" stroke="#003a50" stroke-miterlimit="10"/></g><g clip-path="url(#clip-path)"><path d="M29.66,276.16a4.57,4.57,0,0,1-3.12,1,4.6,4.6,0,0,1-3.11-1,3.63,3.63,0,0,1-1.2-2.88,3.59,3.59,0,0,1,1.2-2.86,4.55,4.55,0,0,1,3.11-1,4.53,4.53,0,0,1,3.12,1,3.59,3.59,0,0,1,1.2,2.86A3.63,3.63,0,0,1,29.66,276.16Zm-1-4.61a3.48,3.48,0,0,0-2.14-.62,3.52,3.52,0,0,0-2.14.62,2.23,2.23,0,0,0,0,3.47,3.5,3.5,0,0,0,2.14.62,3.48,3.48,0,0,0,2.14-.62,2.21,2.21,0,0,0,0-3.47Z" fill="#003a50"/><path d="M30.65,267.83a.72.72,0,0,1-.57.23.76.76,0,0,1-.57-.23,1,1,0,0,1,0-1.23.75.75,0,0,1,.57-.22.71.71,0,0,1,.57.22,1,1,0,0,1,0,1.23Z" fill="#003a50"/><path d="M24.71,258.22v1.56l-.12,0a1.85,1.85,0,0,0-.31.16,1.54,1.54,0,0,0-.36.27,1.46,1.46,0,0,0-.29.5,2.3,2.3,0,0,0-.11.71,1.76,1.76,0,0,0,.73,1.52,3.11,3.11,0,0,0,1.89.54v0a1.49,1.49,0,0,1-.31-.31,3.18,3.18,0,0,1-.25-.43,3.09,3.09,0,0,1-.22-.67,4.12,4.12,0,0,1-.09-.86,3.53,3.53,0,0,1,.79-2.38,2.62,2.62,0,0,1,4,0,3.92,3.92,0,0,1,.78,2.55,3.41,3.41,0,0,1-1.09,2.73,4.48,4.48,0,0,1-3,.93h-.29a4.85,4.85,0,0,1-3-.93,3.22,3.22,0,0,1-1.2-2.69,3.93,3.93,0,0,1,.26-1.5,2.61,2.61,0,0,1,.66-1A2.44,2.44,0,0,1,24.71,258.22ZM26.93,260a2.58,2.58,0,0,0,0,2.79,1.4,1.4,0,0,0,2.22,0,2.22,2.22,0,0,0,.42-1.4,2.26,2.26,0,0,0-.42-1.4,1.4,1.4,0,0,0-2.22,0Z" fill="#003a50"/><path d="M29.66,93.73a4.53,4.53,0,0,1-3.12,1,4.55,4.55,0,0,1-3.11-1,4,4,0,0,1,0-5.74,4.6,4.6,0,0,1,3.11-1,4.57,4.57,0,0,1,3.12,1,4,4,0,0,1,0,5.74Zm-1-4.6a3.48,3.48,0,0,0-2.14-.62,3.52,3.52,0,0,0-2.14.62,2.22,2.22,0,0,0,0,3.46,3.44,3.44,0,0,0,2.14.63,3.42,3.42,0,0,0,2.14-.63,2.2,2.2,0,0,0,0-3.46Z" fill="#003a50"/><path d="M30.65,85.4a.69.69,0,0,1-.57.23.73.73,0,0,1-.57-.23.85.85,0,0,1-.21-.61.87.87,0,0,1,.21-.61.76.76,0,0,1,.57-.23.72.72,0,0,1,.57.23.87.87,0,0,1,.21.61A.85.85,0,0,1,30.65,85.4Z" fill="#003a50"/><path d="M24.71,75.8v1.55l-.12,0-.31.15a1.93,1.93,0,0,0-.36.28,1.37,1.37,0,0,0-.29.5,2.25,2.25,0,0,0-.11.71,1.78,1.78,0,0,0,.73,1.52,3.11,3.11,0,0,0,1.89.53v0a1.11,1.11,0,0,1-.31-.31,3.09,3.09,0,0,1-.25-.42,3.2,3.2,0,0,1-.22-.68,4,4,0,0,1-.09-.85,3.51,3.51,0,0,1,.79-2.38,2.46,2.46,0,0,1,2-.92,2.51,2.51,0,0,1,2,1A3.89,3.89,0,0,1,30.86,79a3.38,3.38,0,0,1-1.09,2.73,4.48,4.48,0,0,1-3,.93h-.29a4.85,4.85,0,0,1-3-.93A3.18,3.18,0,0,1,22.23,79a3.93,3.93,0,0,1,.26-1.5,2.73,2.73,0,0,1,.66-1A2.42,2.42,0,0,1,24.71,75.8Zm2.22,1.77a2.56,2.56,0,0,0,0,2.78,1.4,1.4,0,0,0,2.22,0,2.54,2.54,0,0,0,0-2.8,1.39,1.39,0,0,0-2.22,0Z" fill="#003a50"/><path d="M464.92,10.26l-2.49,2V10l2.73-2.26H467v11.9h-2.1Z" fill="#003a50"/><path d="M469.55,19.48a1,1,0,0,1-.33-.8,1,1,0,0,1,.33-.81,1.23,1.23,0,0,1,.87-.3,1.2,1.2,0,0,1,.86.3,1,1,0,0,1,.33.81,1,1,0,0,1-.33.8,1.2,1.2,0,0,1-.86.3A1.23,1.23,0,0,1,469.55,19.48Z" fill="#003a50"/><path d="M482.13,18.85a7.73,7.73,0,0,1-7.37,0,3,3,0,0,1-1.37-2.56,2.7,2.7,0,0,1,.26-1.16,2.29,2.29,0,0,1,.66-.85,3.91,3.91,0,0,1,1.39-.78l.26-.06v-.09a3.32,3.32,0,0,1-.76-.29,3,3,0,0,1-.67-.44,2.35,2.35,0,0,1-.54-.76,2.38,2.38,0,0,1-.22-1A2.8,2.8,0,0,1,475,8.44a7,7,0,0,1,6.85,0,2.83,2.83,0,0,1,1.25,2.38,2.43,2.43,0,0,1-.22,1,2,2,0,0,1-.55.75,3.72,3.72,0,0,1-1.2.68l-.22.05v.09l.28.06a5.42,5.42,0,0,1,.62.27,3.81,3.81,0,0,1,.77.51,2.55,2.55,0,0,1,.62.82,2.63,2.63,0,0,1,.27,1.19A2.94,2.94,0,0,1,482.13,18.85Zm-5.79-1.35a3.84,3.84,0,0,0,2.1.48,3.94,3.94,0,0,0,2.1-.47,1.51,1.51,0,0,0,.74-1.35,1.49,1.49,0,0,0-.74-1.35,4.93,4.93,0,0,0-4.2,0,1.59,1.59,0,0,0,0,2.69ZM476,11a1.36,1.36,0,0,0,.64,1.19,4,4,0,0,0,3.65,0,1.42,1.42,0,0,0,0-2.39,3.94,3.94,0,0,0-3.62,0A1.38,1.38,0,0,0,476,11Z" fill="#003a50"/><path d="M361.34,9.55h-5.82V7.71h8.86V9.55l-4.53,2.65v.07h1.28a3.86,3.86,0,0,1,2.79,1A3.52,3.52,0,0,1,365,15.94a3.35,3.35,0,0,1-1.32,2.83,7,7,0,0,1-7.25,0,3.38,3.38,0,0,1-1.32-2.86v-.32h2.1v.32c0,1.36.95,2,2.84,2s2.85-.67,2.85-2-.95-2-2.85-2h-3.26V12.3l4.58-2.68Z" fill="#003a50"/><path d="M367.08,19.48a1,1,0,0,1-.33-.8,1,1,0,0,1,.33-.81,1.4,1.4,0,0,1,1.73,0,1,1,0,0,1,.32.81,1,1,0,0,1-.32.8,1.4,1.4,0,0,1-1.73,0Z" fill="#003a50"/><path d="M379.66,18.85a7.73,7.73,0,0,1-7.37,0,3,3,0,0,1-1.37-2.56,2.7,2.7,0,0,1,.26-1.16,2.37,2.37,0,0,1,.65-.85,4,4,0,0,1,1.4-.78l.26-.06v-.09a3.38,3.38,0,0,1-.77-.29,2.91,2.91,0,0,1-.66-.44,2.35,2.35,0,0,1-.54-.76,2.39,2.39,0,0,1-.23-1,2.79,2.79,0,0,1,1.26-2.38,7,7,0,0,1,6.85,0,2.83,2.83,0,0,1,1.25,2.38,2.58,2.58,0,0,1-.22,1,2,2,0,0,1-.56.75,3.59,3.59,0,0,1-1.19.68l-.23.05v.09c.05,0,.14,0,.29.06s.3.12.62.27a3.81,3.81,0,0,1,.77.51,2.7,2.7,0,0,1,.62.82,2.63,2.63,0,0,1,.27,1.19A2.94,2.94,0,0,1,379.66,18.85Zm-5.79-1.35A3.84,3.84,0,0,0,376,18a3.94,3.94,0,0,0,2.1-.47,1.53,1.53,0,0,0,.74-1.35,1.51,1.51,0,0,0-.74-1.35,4.93,4.93,0,0,0-4.2,0,1.59,1.59,0,0,0,0,2.69ZM373.5,11a1.37,1.37,0,0,0,.65,1.19,4,4,0,0,0,3.64,0,1.42,1.42,0,0,0,0-2.39,3.94,3.94,0,0,0-3.62,0A1.36,1.36,0,0,0,373.5,11Z" fill="#003a50"/><path d="M154.52,139.22,152,141.17v-2.24l2.73-2.27h1.86v11.91h-2.11Z" fill="#003a50"/><path d="M169,148.57h-9.93V147a2.79,2.79,0,0,1,.58-1.75,4,4,0,0,1,1.44-1.19c.5-.26,1.12-.54,1.87-.87l1.88-.77a4.07,4.07,0,0,0,1.44-.91,1.78,1.78,0,0,0,.58-1.31c0-1.25-.89-1.88-2.67-1.88s-2.67.72-2.67,2.16v.41h-2.11v-.41a3.64,3.64,0,0,1,1.26-3,5.42,5.42,0,0,1,3.51-1,5.61,5.61,0,0,1,3.51,1,3.28,3.28,0,0,1,1.28,2.74,3.17,3.17,0,0,1-.56,1.84,4.25,4.25,0,0,1-1.4,1.3,16.7,16.7,0,0,1-1.84.93c-.63.28-1.23.53-1.83.75a5.26,5.26,0,0,0-1.4.75,1.2,1.2,0,0,0-.56.95H169Z" fill="#003a50"/><path d="M171.12,148.44a1.17,1.17,0,0,1,0-1.61,1.41,1.41,0,0,1,1.74,0,1.17,1.17,0,0,1,0,1.61,1.41,1.41,0,0,1-1.74,0Z" fill="#003a50"/><path d="M184.9,148.57H175V147a2.79,2.79,0,0,1,.58-1.75,4,4,0,0,1,1.44-1.19c.5-.26,1.12-.54,1.87-.87l1.88-.77a4.07,4.07,0,0,0,1.44-.91,1.81,1.81,0,0,0,.57-1.31c0-1.25-.88-1.88-2.66-1.88s-2.67.72-2.67,2.16v.41h-2.11v-.41a3.64,3.64,0,0,1,1.26-3,5.42,5.42,0,0,1,3.51-1,5.61,5.61,0,0,1,3.51,1,3.27,3.27,0,0,1,1.27,2.74,3.17,3.17,0,0,1-.55,1.84,4.28,4.28,0,0,1-1.41,1.3,16.56,16.56,0,0,1-1.83.93q-.94.42-1.83.75a5.26,5.26,0,0,0-1.4.75,1.22,1.22,0,0,0-.57.95h7.63Z" fill="#003a50"/><path d="M436.6,162.38h-5.82v-1.84h8.86v1.84L435.11,165v.07h1.28a3.9,3.9,0,0,1,2.79,1,3.53,3.53,0,0,1,1.06,2.67,3.35,3.35,0,0,1-1.33,2.82,5.85,5.85,0,0,1-3.62,1,5.79,5.79,0,0,1-3.62-1,3.36,3.36,0,0,1-1.33-2.86v-.32h2.11v.32c0,1.37.94,2,2.84,2s2.84-.67,2.84-2-.95-2-2.84-2H432v-1.67l4.58-2.68Z" fill="#003a50"/><path d="M442.34,172.32a1,1,0,0,1-.33-.81,1,1,0,0,1,.33-.81,1.44,1.44,0,0,1,1.73,0,1,1,0,0,1,.33.81,1,1,0,0,1-.33.81,1.44,1.44,0,0,1-1.73,0Z" fill="#003a50"/><path d="M454.92,171.68a7.77,7.77,0,0,1-7.37,0,3,3,0,0,1-1.37-2.56,2.66,2.66,0,0,1,.26-1.16,2.41,2.41,0,0,1,.65-.86,4.14,4.14,0,0,1,1.4-.77l.26-.07v-.09a3.57,3.57,0,0,1-.77-.29,2.61,2.61,0,0,1-.66-.44,2.24,2.24,0,0,1-.54-.76,2.38,2.38,0,0,1-.22-1,2.79,2.79,0,0,1,1.25-2.38,7,7,0,0,1,6.85,0,2.83,2.83,0,0,1,1.25,2.38,2.67,2.67,0,0,1-.22,1,1.88,1.88,0,0,1-.56.74,3.59,3.59,0,0,1-1.19.68l-.23,0v.09l.29.07a5.44,5.44,0,0,1,.62.26,4.28,4.28,0,0,1,.77.51,2.83,2.83,0,0,1,.62.82,2.71,2.71,0,0,1,.27,1.2A2.94,2.94,0,0,1,454.92,171.68Zm-5.79-1.35a3.84,3.84,0,0,0,2.1.48,3.94,3.94,0,0,0,2.1-.47,1.6,1.6,0,0,0,0-2.7,5,5,0,0,0-4.2,0,1.53,1.53,0,0,0-.74,1.35A1.5,1.5,0,0,0,449.13,170.33Zm-.37-6.52a1.36,1.36,0,0,0,.65,1.19,4,4,0,0,0,3.64,0,1.42,1.42,0,0,0,0-2.39,4,4,0,0,0-3.62,0A1.36,1.36,0,0,0,448.76,163.81Z" fill="#003a50"/><path d="M482.24,232.67h-9.93v-1.56a2.74,2.74,0,0,1,.58-1.74,4,4,0,0,1,1.45-1.2c.5-.25,1.12-.54,1.87-.86s1.32-.56,1.87-.77a4.23,4.23,0,0,0,1.45-.92,1.78,1.78,0,0,0,.57-1.3c0-1.26-.89-1.89-2.66-1.89s-2.68.72-2.68,2.16V225h-2.11v-.41a3.62,3.62,0,0,1,1.26-3,5.39,5.39,0,0,1,3.52-1,5.65,5.65,0,0,1,3.51,1,3.29,3.29,0,0,1,1.27,2.75,3.05,3.05,0,0,1-.56,1.83,4.18,4.18,0,0,1-1.4,1.31q-.9.51-1.83.93t-1.83.75a5.63,5.63,0,0,0-1.41.74,1.26,1.26,0,0,0-.56,1h7.62Z" fill="#003a50"/><path d="M484.34,232.54a1,1,0,0,1-.32-.8,1.07,1.07,0,0,1,.32-.81,1.25,1.25,0,0,1,.88-.3,1.22,1.22,0,0,1,.86.3,1,1,0,0,1,.32.81,1,1,0,0,1-.32.8,1.22,1.22,0,0,1-.86.3A1.25,1.25,0,0,1,484.34,232.54Z" fill="#003a50"/><path d="M498,224.12h-2.2s0-.06,0-.17a2.53,2.53,0,0,0-.22-.44,2.36,2.36,0,0,0-.38-.5,1.8,1.8,0,0,0-.71-.41,3,3,0,0,0-1-.17,2.52,2.52,0,0,0-2.15,1,4.44,4.44,0,0,0-.77,2.69h.06a1.8,1.8,0,0,1,.44-.44,4.24,4.24,0,0,1,.61-.36,3.81,3.81,0,0,1,1-.3,5.41,5.41,0,0,1,1.21-.13,5.06,5.06,0,0,1,3.38,1.11,3.51,3.51,0,0,1,1.3,2.8,3.59,3.59,0,0,1-1.36,2.91,5.57,5.57,0,0,1-3.61,1.1,4.78,4.78,0,0,1-3.87-1.55,6.33,6.33,0,0,1-1.32-4.26v-.41a6.85,6.85,0,0,1,1.32-4.31,4.52,4.52,0,0,1,3.81-1.71,5.64,5.64,0,0,1,2.12.37,4,4,0,0,1,1.44.94A3.45,3.45,0,0,1,498,224.12Zm-2.5,3.15a3.67,3.67,0,0,0-4,0,2,2,0,0,0,0,3.15,3.67,3.67,0,0,0,4,0,2,2,0,0,0,0-3.15Z" fill="#003a50"/><path d="M452.34,312.68h-9.93v-1.56a2.85,2.85,0,0,1,.58-1.75,4.2,4.2,0,0,1,1.45-1.19c.5-.26,1.12-.54,1.87-.87l1.87-.77a4.12,4.12,0,0,0,1.45-.91,1.8,1.8,0,0,0,.57-1.3c0-1.26-.89-1.89-2.66-1.89s-2.68.72-2.68,2.16V305h-2.11v-.41a3.64,3.64,0,0,1,1.26-3,5.45,5.45,0,0,1,3.52-1,5.65,5.65,0,0,1,3.51,1,3.27,3.27,0,0,1,1.27,2.75,3.09,3.09,0,0,1-.56,1.83,4.16,4.16,0,0,1-1.4,1.3,17.49,17.49,0,0,1-1.83.93q-.94.42-1.83.75a5.11,5.11,0,0,0-1.4.75,1.22,1.22,0,0,0-.57.95h7.62Z" fill="#003a50"/><path d="M454.45,312.55a1.15,1.15,0,0,1,0-1.61,1.4,1.4,0,0,1,1.73,0,1.17,1.17,0,0,1,0,1.61,1.4,1.4,0,0,1-1.73,0Z" fill="#003a50"/><path d="M468.22,312.68h-9.93v-1.56a2.79,2.79,0,0,1,.58-1.75,4.11,4.11,0,0,1,1.45-1.19c.5-.26,1.12-.54,1.87-.87l1.87-.77a4.21,4.21,0,0,0,1.45-.91,1.8,1.8,0,0,0,.57-1.3c0-1.26-.89-1.89-2.66-1.89s-2.68.72-2.68,2.16V305h-2.11v-.41a3.64,3.64,0,0,1,1.26-3,5.45,5.45,0,0,1,3.52-1,5.65,5.65,0,0,1,3.51,1,3.27,3.27,0,0,1,1.27,2.75,3.17,3.17,0,0,1-.56,1.83,4.16,4.16,0,0,1-1.4,1.3,16.7,16.7,0,0,1-1.84.93c-.62.28-1.23.53-1.82.75a5.33,5.33,0,0,0-1.41.75,1.23,1.23,0,0,0-.56.95h7.62Z" fill="#003a50"/><path d="M228.35,232.67h-9.93v-1.56a2.74,2.74,0,0,1,.58-1.74,4,4,0,0,1,1.44-1.2c.5-.25,1.12-.54,1.87-.86s1.32-.56,1.88-.77a4.09,4.09,0,0,0,1.44-.92,1.76,1.76,0,0,0,.58-1.3q0-1.89-2.67-1.89t-2.67,2.16V225h-2.11v-.41a3.62,3.62,0,0,1,1.26-3,5.36,5.36,0,0,1,3.51-1,5.61,5.61,0,0,1,3.51,1,3.29,3.29,0,0,1,1.28,2.75,3.12,3.12,0,0,1-.56,1.83,4.28,4.28,0,0,1-1.4,1.31c-.6.34-1.21.65-1.84.93s-1.23.53-1.83.75a5.55,5.55,0,0,0-1.4.74,1.24,1.24,0,0,0-.56,1h7.62Z" fill="#003a50"/><path d="M231.94,231.14a7.38,7.38,0,0,1,0-8.84,5.72,5.72,0,0,1,8.14,0,7.38,7.38,0,0,1,0,8.84,5.72,5.72,0,0,1-8.14,0Zm6.53-1.39a5.73,5.73,0,0,0,0-6.07,3.14,3.14,0,0,0-4.91,0,5.67,5.67,0,0,0,0,6.07,2.87,2.87,0,0,0,2.45,1.19A2.9,2.9,0,0,0,238.47,229.75Z" fill="#003a50"/><path d="M243.75,232.54a1,1,0,0,1-.33-.8,1,1,0,0,1,.33-.81,1.4,1.4,0,0,1,1.73,0,1,1,0,0,1,.33.81,1,1,0,0,1-.33.8,1.4,1.4,0,0,1-1.73,0Z" fill="#003a50"/><path d="M253,224.69a5,5,0,0,1,3.34,1.07,4.18,4.18,0,0,1,0,6,5.39,5.39,0,0,1-3.55,1.08,5.77,5.77,0,0,1-3.56-1,3.16,3.16,0,0,1-1.29-2.68H250a1.53,1.53,0,0,0,.7,1.33,3.62,3.62,0,0,0,2,.48,3.15,3.15,0,0,0,2-.57,2,2,0,0,0,.7-1.68,2.05,2.05,0,0,0-.73-1.71,3.31,3.31,0,0,0-2.07-.58,3.58,3.58,0,0,0-1.92.42,1.93,1.93,0,0,0-.7.64l-.05.12h-2.11v-6.88h8.88v1.85H250v3h.05a2.22,2.22,0,0,1,.4-.31A3.11,3.11,0,0,1,251,225,5.6,5.6,0,0,1,253,224.69Z" fill="#003a50"/><path d="M297.84,128.67h-9.93v-1.56a2.79,2.79,0,0,1,.58-1.75,4.11,4.11,0,0,1,1.45-1.19c.5-.26,1.12-.54,1.87-.86s1.32-.56,1.87-.78a4.21,4.21,0,0,0,1.45-.91,1.8,1.8,0,0,0,.57-1.3c0-1.26-.89-1.89-2.66-1.89s-2.68.72-2.68,2.16V121h-2.11v-.41a3.65,3.65,0,0,1,1.26-3,5.45,5.45,0,0,1,3.52-1,5.65,5.65,0,0,1,3.51,1,3.27,3.27,0,0,1,1.27,2.75,3.17,3.17,0,0,1-.56,1.83,4.16,4.16,0,0,1-1.4,1.3,16.7,16.7,0,0,1-1.84.93c-.62.28-1.23.53-1.82.75a5.11,5.11,0,0,0-1.4.75,1.22,1.22,0,0,0-.57,1h7.62Z" fill="#003a50"/><path d="M299.94,128.54a1.17,1.17,0,0,1,0-1.61,1.25,1.25,0,0,1,.88-.3,1.22,1.22,0,0,1,.86.3,1.17,1.17,0,0,1,0,1.61,1.22,1.22,0,0,1-.86.3A1.25,1.25,0,0,1,299.94,128.54Z" fill="#003a50"/><path d="M305.85,119.32l-2.48,2V119l2.73-2.27H308v11.91h-2.11Z" fill="#003a50"/></g></svg>