<svg id="Слой_1" data-name="Слой 1" xmlns="http://www.w3.org/2000/svg" xmlns:xlink="http://www.w3.org/1999/xlink" viewBox="0 0 586.77 547.09"><defs><clipPath id="clip-path"><polygon points="0.85 0 0.85 419.67 16.02 419.67 16.02 480.67 267.93 480.67 267.93 547.09 586.77 547.09 586.77 0 0.85 0" fill="none"/></clipPath></defs><polygon points="580.12 14.19 580.12 365.35 586.77 365.5 586.77 14.19 580.12 14.19" fill="#fff"/><polygon points="16.75 15.84 16.75 469.15 285.94 469.15 283.36 536.67 513.61 537.28 526.17 537.28 524.04 430.05 523.63 367.42 572.56 367.42 572.56 15.84 16.75 15.84" fill="#fff"/><polygon points="16.75 467.86 16.75 480.67 267.93 480.67 267.93 547.09 518.52 547.09 518.76 541.63 286.19 536.66 287.88 467.86 16.75 467.86" fill="#fff"/><g clip-path="url(#clip-path)"><rect x="3.15" y="2.28" width="1162.95" height="2240.57" fill="none" stroke="#003a50" stroke-miterlimit="10"/><polygon points="15.73 1106.45 15.73 2230 1153.12 2230 1153.12 15.23 15.73 15.07 15.73 1035.74 15.73 1106.45" fill="none" stroke="#003a50" stroke-miterlimit="10"/></g><rect x="419.67" y="34.52" width="85.61" height="4.56" fill="#fff"/><rect x="419.67" y="34.52" width="85.61" height="4.56" fill="none" stroke="#003a50" stroke-miterlimit="10"/><line x1="505.28" y1="36.8" x2="419.67" y2="36.8" fill="none" stroke="#003a50" stroke-miterlimit="10"/><rect x="500.72" y="34.52" width="4.56" height="4.56" fill="#fff"/><rect x="500.72" y="34.52" width="4.56" height="4.56" fill="none" stroke="#003a50" stroke-miterlimit="10"/><rect x="419.67" y="34.52" width="4.56" height="4.56" fill="#fff"/><rect x="419.67" y="34.52" width="4.56" height="4.56" fill="none" stroke="#003a50" stroke-miterlimit="10"/><rect x="460.31" y="34.52" width="4.56" height="4.56" fill="#fff"/><rect x="460.31" y="34.52" width="4.56" height="4.56" fill="none" stroke="#003a50" stroke-miterlimit="10"/><g clip-path="url(#clip-path)"><path d="M460.32,39.08V42c0,20.14-16.16,33.1-36.09,33.1v-36" fill="none" stroke="#003a50" stroke-miterlimit="10"/></g><rect x="296.84" y="34.52" width="87.81" height="4.56" fill="#fff"/><rect x="296.84" y="34.52" width="87.81" height="4.56" fill="none" stroke="#003a50" stroke-miterlimit="10"/><line x1="384.65" y1="36.8" x2="296.84" y2="36.8" fill="none" stroke="#003a50" stroke-miterlimit="10"/><rect x="380.09" y="34.52" width="4.55" height="4.56" fill="#fff"/><rect x="380.09" y="34.52" width="4.55" height="4.56" fill="none" stroke="#003a50" stroke-miterlimit="10"/><rect x="296.84" y="34.52" width="4.55" height="4.56" fill="#fff"/><rect x="296.84" y="34.52" width="4.55" height="4.56" fill="none" stroke="#003a50" stroke-miterlimit="10"/><rect x="337.4" y="34.52" width="4.55" height="4.56" fill="#fff"/><rect x="337.4" y="34.52" width="4.55" height="4.56" fill="none" stroke="#003a50" stroke-miterlimit="10"/><g clip-path="url(#clip-path)"><path d="M337.39,39.08V42c0,20.14-16.11,33.1-36,33.1v-36" fill="none" stroke="#003a50" stroke-miterlimit="10"/></g><rect x="36.35" y="34.52" width="164.65" height="4.55" fill="#fff"/><rect x="36.35" y="34.52" width="164.65" height="4.55" fill="none" stroke="#003a50" stroke-miterlimit="10"/><line x1="36.34" y1="36.8" x2="201" y2="36.8" fill="none" stroke="#003a50" stroke-miterlimit="10"/><rect x="76.19" y="34.52" width="4.55" height="4.55" fill="#fff"/><rect x="76.19" y="34.52" width="4.55" height="4.55" fill="none" stroke="#003a50" stroke-miterlimit="10"/><rect x="116.04" y="34.52" width="4.55" height="4.55" fill="#fff"/><rect x="116.04" y="34.52" width="4.55" height="4.55" fill="none" stroke="#003a50" stroke-miterlimit="10"/><rect x="196.44" y="34.52" width="4.55" height="4.55" fill="#fff"/><rect x="196.44" y="34.52" width="4.55" height="4.55" fill="none" stroke="#003a50" stroke-miterlimit="10"/><rect x="155.89" y="34.52" width="4.55" height="4.55" fill="#fff"/><rect x="155.89" y="34.52" width="4.55" height="4.55" fill="none" stroke="#003a50" stroke-miterlimit="10"/><g clip-path="url(#clip-path)"><path d="M160.44,39.07V42c0,20.15,16.12,33.11,36,33.11v-36" fill="none" stroke="#003a50" stroke-miterlimit="10"/></g><rect x="36.35" y="34.52" width="4.55" height="174.18" fill="#fff"/><rect x="36.35" y="34.52" width="4.55" height="174.18" fill="none" stroke="#003a50" stroke-miterlimit="10"/><line x1="38.62" y1="34.52" x2="38.62" y2="208.7" fill="none" stroke="#003a50" stroke-miterlimit="10"/><rect x="36.35" y="77.55" width="4.55" height="4.55" fill="#fff"/><rect x="36.35" y="77.55" width="4.55" height="4.55" fill="none" stroke="#003a50" stroke-miterlimit="10"/><rect x="36.35" y="120.57" width="4.55" height="4.55" fill="#fff"/><rect x="36.35" y="120.57" width="4.55" height="4.55" fill="none" stroke="#003a50" stroke-miterlimit="10"/><rect x="36.35" y="34.52" width="4.55" height="4.55" fill="#fff"/><rect x="36.35" y="34.52" width="4.55" height="4.55" fill="none" stroke="#003a50" stroke-miterlimit="10"/><rect x="36.35" y="204.15" width="4.55" height="4.55" fill="#fff"/><rect x="36.35" y="204.15" width="4.55" height="4.55" fill="none" stroke="#003a50" stroke-miterlimit="10"/><rect x="36.35" y="163.6" width="4.55" height="4.55" fill="#fff"/><rect x="36.35" y="163.6" width="4.55" height="4.55" fill="none" stroke="#003a50" stroke-miterlimit="10"/><g clip-path="url(#clip-path)"><path d="M40.9,168.15h2.9c20.14,0,33.1,16.12,33.1,36h-36" fill="none" stroke="#003a50" stroke-miterlimit="10"/></g><rect x="36.35" y="303.59" width="4.55" height="90.17" fill="#fff"/><rect x="36.35" y="303.59" width="4.55" height="90.17" fill="none" stroke="#003a50" stroke-miterlimit="10"/><line x1="38.62" y1="393.76" x2="38.62" y2="303.59" fill="none" stroke="#003a50" stroke-miterlimit="10"/><rect x="36.35" y="389.21" width="4.55" height="4.55" fill="#fff"/><rect x="36.35" y="389.21" width="4.55" height="4.55" fill="none" stroke="#003a50" stroke-miterlimit="10"/><rect x="36.35" y="303.59" width="4.55" height="4.55" fill="#fff"/><rect x="36.35" y="303.59" width="4.55" height="4.55" fill="none" stroke="#003a50" stroke-miterlimit="10"/><rect x="36.35" y="344.14" width="4.55" height="4.55" fill="#fff"/><rect x="36.35" y="344.14" width="4.55" height="4.55" fill="none" stroke="#003a50" stroke-miterlimit="10"/><g clip-path="url(#clip-path)"><path d="M40.9,344.15h2.9c20.14,0,33.1-16.12,33.1-36h-36" fill="none" stroke="#003a50" stroke-miterlimit="10"/><path d="M40.9,534.34h2.9c20.14,0,33.1,15.8,33.1,35.29h-36" fill="none" stroke="#003a50" stroke-miterlimit="10"/><path d="M98.86,317.65a1.25,1.25,0,0,1-1.2,1.31,13.79,13.79,0,0,0,1.07,27.55,1.26,1.26,0,1,1,.09,2.51,16.3,16.3,0,1,1-1.26-32.57A1.25,1.25,0,0,1,98.86,317.65Z" fill="none" stroke="#003a50" stroke-miterlimit="10"/><path d="M105.81,355.21a1.25,1.25,0,0,1,.87,1.55,13.78,13.78,0,0,0,26.53,7.5,1.26,1.26,0,1,1,2.42.68,16.3,16.3,0,1,1-31.37-8.86A1.25,1.25,0,0,1,105.81,355.21Z" fill="none" stroke="#003a50" stroke-miterlimit="10"/><path d="M143.58,359.57a1.27,1.27,0,0,1,1.75-.35,13.78,13.78,0,0,0,15.33-22.91,1.26,1.26,0,1,1,1.4-2.09,16.3,16.3,0,0,1-18.13,27.1A1.27,1.27,0,0,1,143.58,359.57Z" fill="none" stroke="#003a50" stroke-miterlimit="10"/><path d="M160.76,325a1.27,1.27,0,0,1,.21-1.77,13.78,13.78,0,1,0-17.05-21.65,1.26,1.26,0,0,1-1.56-2,16.3,16.3,0,1,1,20.17,25.61A1.26,1.26,0,0,1,160.76,325Z" fill="none" stroke="#003a50" stroke-miterlimit="10"/><path d="M131.94,301a1.25,1.25,0,0,1-.85-1.56,13.79,13.79,0,1,0-26.46-7.75,1.26,1.26,0,1,1-2.42-.71,16.3,16.3,0,0,1,31.29,9.16A1.26,1.26,0,0,1,131.94,301Z" fill="none" stroke="#003a50" stroke-miterlimit="10"/><path d="M108.7,345l-9.36.36a12.65,12.65,0,1,1-1-25.28l9-.32A23.7,23.7,0,0,0,108.7,345Z" fill="none" stroke="#003a50" stroke-miterlimit="10"/><path d="M134.86,354.21l-2.56,9.08a12.65,12.65,0,0,1-24.36-6.84l2.6-9.2a23.6,23.6,0,0,0,24.32,7Z" fill="none" stroke="#003a50" stroke-miterlimit="10"/><path d="M162.94,354.41a12.67,12.67,0,0,1-17.52,3.52l-7.28-4.88a23.88,23.88,0,0,0,13.12-15.24,24.8,24.8,0,0,0,.84-5.84l7.36,4.92A12.63,12.63,0,0,1,162.94,354.41Z" fill="none" stroke="#003a50" stroke-miterlimit="10"/><path d="M159.74,322.77,152,328.85a23.88,23.88,0,0,0-15.56-20l7.64-6a12.65,12.65,0,1,1,15.64,19.88Z" fill="none" stroke="#003a50" stroke-miterlimit="10"/><path d="M129.82,299.69l-2.28,7.76a23.58,23.58,0,0,0-9.08,2.12l-15.28-4.48a1.21,1.21,0,0,1-.84-1.52l3.08-10.64a12.87,12.87,0,0,1,13.2-9.4A12.67,12.67,0,0,1,129.82,299.69Z" fill="none" stroke="#003a50" stroke-miterlimit="10"/><path d="M152.1,332a24.8,24.8,0,0,1-.84,5.84,23.88,23.88,0,0,1-13.12,15.24,24.6,24.6,0,0,1-3.28,1.16,23.6,23.6,0,0,1-24.32-7A25.46,25.46,0,0,1,108.7,345a23.7,23.7,0,0,1-1.28-25.24,24,24,0,0,1,11-10.16,23.84,23.84,0,0,1,16.32-1.24c.56.16,1.12.36,1.68.56a23.88,23.88,0,0,1,15.56,20A27.09,27.09,0,0,1,152.1,332Z" fill="none" stroke="#003a50" stroke-miterlimit="10"/></g><rect x="518.28" y="295.35" width="29.48" height="67.34" fill="none" stroke="#003a50" stroke-miterlimit="10"/><rect x="314.59" y="504.56" width="72.48" height="29.76" fill="none" stroke="#003a50" stroke-miterlimit="10"/><rect x="52.87" y="433.56" width="230.49" height="34.02" fill="none" stroke="#003a50" stroke-miterlimit="10"/><rect x="453.85" y="253.46" width="96.36" height="41.64" fill="none" stroke="#003a50" stroke-miterlimit="10"/><g clip-path="url(#clip-path)"><rect x="458.08" y="258.62" width="87.89" height="31.33" rx="15.64" fill="none" stroke="#003a50" stroke-miterlimit="10"/><path d="M528.41,274.28a2.27,2.27,0,1,1,2.27,2.27A2.27,2.27,0,0,1,528.41,274.28Z" fill="none" stroke="#003a50" stroke-miterlimit="10"/><path d="M508.16,333.67v28.84h-22.8V333.67a11.4,11.4,0,0,1,22.8,0Z" fill="none" stroke="#003a50" stroke-miterlimit="10"/></g><line x1="485.36" y1="351.29" x2="508.16" y2="351.29" fill="none" stroke="#003a50" stroke-miterlimit="10"/><g clip-path="url(#clip-path)"><path d="M524,298.46h23a3.36,3.36,0,0,1,3.36,3.36v22.25a3.35,3.35,0,0,1-3.36,3.35H524a3.35,3.35,0,0,1-3.35-3.35V301.82A3.36,3.36,0,0,1,524,298.46Z" fill="none" stroke="#003a50" stroke-miterlimit="10"/><path d="M533.28,312.94a2.27,2.27,0,1,1,2.26,2.27A2.27,2.27,0,0,1,533.28,312.94Z" fill="none" stroke="#003a50" stroke-miterlimit="10"/><path d="M524,332.05h23a3.35,3.35,0,0,1,3.36,3.36v22.24A3.35,3.35,0,0,1,547,361H524a3.35,3.35,0,0,1-3.35-3.36V335.41A3.35,3.35,0,0,1,524,332.05Z" fill="none" stroke="#003a50" stroke-miterlimit="10"/><path d="M533.28,346.53a2.27,2.27,0,1,1,2.26,2.27A2.27,2.27,0,0,1,533.28,346.53Z" fill="none" stroke="#003a50" stroke-miterlimit="10"/></g><rect x="387.11" y="438.25" width="43.33" height="96.06" fill="none" stroke="#003a50" stroke-miterlimit="10"/><g clip-path="url(#clip-path)"><path d="M392.47,514.16V458.4a15.94,15.94,0,0,1,15.94-15.94h.73a15.94,15.94,0,0,1,15.93,15.94v55.76a15.93,15.93,0,0,1-15.93,15.93h-.73A15.94,15.94,0,0,1,392.47,514.16Z" fill="none" stroke="#003a50" stroke-miterlimit="10"/><path d="M408.77,512.57a2.27,2.27,0,1,1-2.27,2.27A2.27,2.27,0,0,1,408.77,512.57Z" fill="none" stroke="#003a50" stroke-miterlimit="10"/><rect x="379.58" y="546.78" width="41.13" height="98.9" fill="none" stroke="#003a50" stroke-miterlimit="10"/><path d="M343.51,477.69H314.66v-22.8h28.85a11.4,11.4,0,1,1,0,22.8Z" fill="none" stroke="#003a50" stroke-miterlimit="10"/></g><line x1="325.88" y1="454.9" x2="325.88" y2="477.69" fill="none" stroke="#003a50" stroke-miterlimit="10"/><g clip-path="url(#clip-path)"><rect x="354.35" y="506.95" width="28.96" height="29.71" rx="3.36" fill="none" stroke="#003a50" stroke-miterlimit="10"/><circle cx="368.83" cy="521.81" r="2.27" transform="translate(-216.9 777.23) rotate(-78.31)" fill="none" stroke="#003a50" stroke-miterlimit="10"/><rect x="420.81" y="547.12" width="37.82" height="26.34" fill="none" stroke="#003a50" stroke-miterlimit="10"/><rect x="426.42" y="545.02" width="25.64" height="26.31" rx="2.97" fill="none" stroke="#003a50" stroke-miterlimit="10"/></g><rect x="314.89" y="504.56" width="34.02" height="28.84" fill="none" stroke="#003a50" stroke-miterlimit="10"/><g clip-path="url(#clip-path)"><path d="M337.21,510.68H335.1a3.07,3.07,0,0,1-5.72,0H326.6l-5.29,3,2.53,4,2.38-1.26v10.86h11.37V516.43l2.38,1.26,2.52-4Z" fill="none" stroke="#003a50" stroke-miterlimit="10"/><rect x="458.63" y="547.31" width="30.12" height="25.9" fill="none" stroke="#003a50" stroke-miterlimit="10"/></g><rect x="108.54" y="433.56" width="34.02" height="34.02" fill="none" stroke="#003a50" stroke-miterlimit="10"/><g clip-path="url(#clip-path)"><path d="M138,458.15a4.69,4.69,0,1,1-4.69-4.69A4.69,4.69,0,0,1,138,458.15Z" fill="none" stroke="#003a50" stroke-miterlimit="10"/><path d="M122.52,458.15a4.69,4.69,0,1,1-4.69-4.69A4.69,4.69,0,0,1,122.52,458.15Z" fill="none" stroke="#003a50" stroke-miterlimit="10"/><path d="M138,443a4.69,4.69,0,1,1-4.69-4.69A4.69,4.69,0,0,1,138,443Z" fill="none" stroke="#003a50" stroke-miterlimit="10"/><path d="M122.52,443a4.69,4.69,0,1,1-4.69-4.69A4.69,4.69,0,0,1,122.52,443Z" fill="none" stroke="#003a50" stroke-miterlimit="10"/></g><rect x="218.15" y="433.56" width="34.02" height="34.02" fill="none" stroke="#003a50" stroke-miterlimit="10"/><line x1="235.16" y1="453.32" x2="235.16" y2="463.88" fill="none" stroke="#003a50" stroke-miterlimit="10"/><g clip-path="url(#clip-path)"><path d="M236.07,453.32h-1.82a3.4,3.4,0,0,1-3.39-3.4v-11.2h8.61v11.2A3.4,3.4,0,0,1,236.07,453.32Z" fill="none" stroke="#003a50" stroke-miterlimit="10"/></g><line x1="231.69" y1="463.88" x2="238.64" y2="463.88" fill="none" stroke="#003a50" stroke-miterlimit="10"/><rect x="52.89" y="433.56" width="34.02" height="34.02" fill="none" stroke="#003a50" stroke-miterlimit="10"/><line x1="69.89" y1="460.55" x2="69.89" y2="440.59" fill="none" stroke="#003a50" stroke-miterlimit="10"/><line x1="79.87" y1="450.57" x2="59.91" y2="450.57" fill="none" stroke="#003a50" stroke-miterlimit="10"/><line x1="76.95" y1="457.62" x2="62.84" y2="443.51" fill="none" stroke="#003a50" stroke-miterlimit="10"/><line x1="76.95" y1="443.51" x2="62.84" y2="457.62" fill="none" stroke="#003a50" stroke-miterlimit="10"/><g clip-path="url(#clip-path)"><path d="M192,459.21H168.63a3.36,3.36,0,0,1-3.36-3.36v-15a3.35,3.35,0,0,1,3.36-3.36H192a3.35,3.35,0,0,1,3.35,3.36v15A3.36,3.36,0,0,1,192,459.21Z" fill="none" stroke="#003a50" stroke-miterlimit="10"/><circle cx="180.3" cy="452.17" r="2.46" fill="none" stroke="#003a50" stroke-miterlimit="10"/></g><line x1="180.3" y1="451.41" x2="180.3" y2="465.03" fill="none" stroke="#003a50" stroke-miterlimit="10"/><line x1="173.49" y1="465.03" x2="187.11" y2="465.03" fill="none" stroke="#003a50" stroke-miterlimit="10"/><g clip-path="url(#clip-path)"><rect x="339.04" y="547.47" width="34.02" height="68.03" fill="none" stroke="#003a50" stroke-miterlimit="10"/><rect x="273.83" y="546.78" width="65.21" height="29.22" fill="none" stroke="#003a50" stroke-miterlimit="10"/></g><rect x="437.39" y="502.35" width="56.47" height="30.8" fill="none" stroke="#003a50" stroke-miterlimit="10"/><g clip-path="url(#clip-path)"><path d="M452.88,506.71a.9.9,0,0,1,.51-.81.91.91,0,0,1,1.22.41,26.09,26.09,0,0,1,0,22.87.91.91,0,1,1-1.63-.8,24.22,24.22,0,0,0,0-21.27A.79.79,0,0,1,452.88,506.71Z" fill="none" stroke="#003a50" stroke-miterlimit="10"/><path d="M457.92,506.71a.9.9,0,0,1,.51-.81.91.91,0,0,1,1.22.41,26.09,26.09,0,0,1,0,22.87.92.92,0,0,1-1.22.42.9.9,0,0,1-.41-1.22,24.31,24.31,0,0,0,0-21.27A.79.79,0,0,1,457.92,506.71Z" fill="none" stroke="#003a50" stroke-miterlimit="10"/><path d="M463,506.71a.9.9,0,0,1,.51-.81.91.91,0,0,1,1.22.41,26.09,26.09,0,0,1,0,22.87.92.92,0,0,1-1.22.42.9.9,0,0,1-.41-1.22,24.31,24.31,0,0,0,0-21.27A.79.79,0,0,1,463,506.71Z" fill="none" stroke="#003a50" stroke-miterlimit="10"/><path d="M468,506.71a.91.91,0,0,1,1.72-.4,26,26,0,0,1,0,22.87.9.9,0,1,1-1.62-.8,24.31,24.31,0,0,0,0-21.27A.79.79,0,0,1,468,506.71Z" fill="none" stroke="#003a50" stroke-miterlimit="10"/><path d="M473,506.71a.91.91,0,0,1,1.72-.4,26,26,0,0,1,0,22.87.9.9,0,1,1-1.62-.8,24.31,24.31,0,0,0,0-21.27A.79.79,0,0,1,473,506.71Z" fill="none" stroke="#003a50" stroke-miterlimit="10"/><path d="M478.08,506.71a.91.91,0,0,1,1.72-.4,26,26,0,0,1,0,22.87.91.91,0,1,1-1.63-.8,24.22,24.22,0,0,0,0-21.27A.9.9,0,0,1,478.08,506.71Z" fill="none" stroke="#003a50" stroke-miterlimit="10"/><path d="M447.84,506.71a.9.9,0,0,1,.51-.81.91.91,0,0,1,1.22.41,26.09,26.09,0,0,1,0,22.87.91.91,0,1,1-1.63-.8,24.22,24.22,0,0,0,0-21.27A.79.79,0,0,1,447.84,506.71Z" fill="none" stroke="#003a50" stroke-miterlimit="10"/><path d="M442.81,506.71a.89.89,0,0,1,.5-.81.91.91,0,0,1,1.22.41,26.09,26.09,0,0,1,0,22.87.91.91,0,1,1-1.63-.8,24.22,24.22,0,0,0,0-21.27A.78.78,0,0,1,442.81,506.71Z" fill="none" stroke="#003a50" stroke-miterlimit="10"/></g><line x1="437.39" y1="517.75" x2="493.85" y2="517.75" fill="none" stroke="#003a50" stroke-miterlimit="10"/><g clip-path="url(#clip-path)"><rect x="55.54" y="481.34" width="22.68" height="22.68" fill="none" stroke="#003a50" stroke-miterlimit="10"/><path d="M73.38,499.17a9.2,9.2,0,1,1,0-13A9.2,9.2,0,0,1,73.38,499.17Z" fill="none" stroke="#003a50" stroke-miterlimit="10"/><path d="M74,498.48c-1.69-.17-3.41.49-5.06-1.17-2.44-2.44.14-5-2.3-7.45s-5,.13-7.46-2.3" fill="none" stroke="#003a50" stroke-miterlimit="10"/><rect x="192.84" y="481.34" width="22.68" height="22.68" fill="none" stroke="#003a50" stroke-miterlimit="10"/><path d="M210.68,499.17a9.2,9.2,0,1,1,0-13A9.2,9.2,0,0,1,210.68,499.17Z" fill="none" stroke="#003a50" stroke-miterlimit="10"/><path d="M211.3,498.48c-1.69-.17-3.41.49-5.06-1.17-2.44-2.44.14-5-2.3-7.45s-5,.13-7.46-2.3" fill="none" stroke="#003a50" stroke-miterlimit="10"/><rect x="84.54" y="481.34" width="102.05" height="113.39" fill="none" stroke="#003a50" stroke-miterlimit="10"/><path d="M176.59,585h-82a2.09,2.09,0,0,1-2.09-2.08V515.25h86.22V582.9A2.08,2.08,0,0,1,176.59,585Z" fill="none" stroke="#003a50" stroke-miterlimit="10"/><rect x="92.2" y="488.76" width="42.5" height="22.88" rx="1.98" fill="none" stroke="#003a50" stroke-miterlimit="10"/><rect x="136.43" y="488.76" width="42.5" height="22.88" rx="1.98" fill="none" stroke="#003a50" stroke-miterlimit="10"/></g><rect x="300.26" y="235.13" width="79.37" height="34.02" fill="none" stroke="#003a50" stroke-miterlimit="10"/><rect x="319.99" y="275.48" width="34.02" height="87.1" fill="none" stroke="#003a50" stroke-miterlimit="10"/><g clip-path="url(#clip-path)"><path d="M324.81,345.51a1,1,0,0,1-.44-1.91,28.77,28.77,0,0,1,25.26,0,1,1,0,0,1,.46,1.34,1,1,0,0,1-1.34.46,26.83,26.83,0,0,0-23.5,0A.87.87,0,0,1,324.81,345.51Z" fill="none" stroke="#003a50" stroke-miterlimit="10"/><path d="M324.81,339.94a1,1,0,0,1-.9-.56,1,1,0,0,1,.46-1.34,28.77,28.77,0,0,1,25.26,0,1,1,0,0,1-.88,1.8,26.74,26.74,0,0,0-23.5,0A1,1,0,0,1,324.81,339.94Z" fill="none" stroke="#003a50" stroke-miterlimit="10"/><path d="M324.81,334.38a1,1,0,0,1-.44-1.91,28.77,28.77,0,0,1,25.26,0,1,1,0,0,1,.46,1.34,1,1,0,0,1-1.34.46,26.83,26.83,0,0,0-23.5,0A.87.87,0,0,1,324.81,334.38Z" fill="none" stroke="#003a50" stroke-miterlimit="10"/><path d="M324.81,328.81a1,1,0,0,1-.9-.56,1,1,0,0,1,.46-1.34,28.77,28.77,0,0,1,25.26,0,1,1,0,0,1-.88,1.8,26.74,26.74,0,0,0-23.5,0A1,1,0,0,1,324.81,328.81Z" fill="none" stroke="#003a50" stroke-miterlimit="10"/><path d="M324.81,323.25a1,1,0,0,1-.44-1.91,28.77,28.77,0,0,1,25.26,0,1,1,0,0,1,.46,1.34,1,1,0,0,1-1.34.46,26.83,26.83,0,0,0-23.5,0A1,1,0,0,1,324.81,323.25Z" fill="none" stroke="#003a50" stroke-miterlimit="10"/><path d="M324.81,317.68a1,1,0,0,1-.9-.56,1,1,0,0,1,.46-1.34,28.77,28.77,0,0,1,25.26,0,1,1,0,0,1-.88,1.8,26.74,26.74,0,0,0-23.5,0A1,1,0,0,1,324.81,317.68Z" fill="none" stroke="#003a50" stroke-miterlimit="10"/><path d="M324.81,351.07a1,1,0,0,1-.44-1.9,28.77,28.77,0,0,1,25.26,0,1,1,0,1,1-.88,1.8,26.74,26.74,0,0,0-23.5,0A1,1,0,0,1,324.81,351.07Z" fill="none" stroke="#003a50" stroke-miterlimit="10"/><path d="M324.81,356.64a1,1,0,0,1-.44-1.91,28.77,28.77,0,0,1,25.26,0,1,1,0,0,1,.46,1.34,1,1,0,0,1-1.34.46,26.83,26.83,0,0,0-23.5,0A.87.87,0,0,1,324.81,356.64Z" fill="none" stroke="#003a50" stroke-miterlimit="10"/></g><line x1="337" y1="362.62" x2="337" y2="275.48" fill="none" stroke="#003a50" stroke-miterlimit="10"/><rect x="354.01" y="275.34" width="42.37" height="34.02" fill="none" stroke="#003a50" stroke-miterlimit="10"/><g clip-path="url(#clip-path)"><path d="M371.12,280.16a1,1,0,0,1,1.91-.45A28.77,28.77,0,0,1,373,305a1,1,0,0,1-1.34.46,1,1,0,0,1-.46-1.34,26.81,26.81,0,0,0,0-23.49A1,1,0,0,1,371.12,280.16Z" fill="none" stroke="#003a50" stroke-miterlimit="10"/><path d="M376.69,280.16a1,1,0,0,1,1.9-.45,28.77,28.77,0,0,1,0,25.26,1,1,0,0,1-1.8-.88,26.72,26.72,0,0,0,0-23.49A1,1,0,0,1,376.69,280.16Z" fill="none" stroke="#003a50" stroke-miterlimit="10"/><path d="M365.56,280.16a1,1,0,0,1,1.9-.45,28.77,28.77,0,0,1,0,25.26,1,1,0,0,1-1.8-.88,26.72,26.72,0,0,0,0-23.49A1,1,0,0,1,365.56,280.16Z" fill="none" stroke="#003a50" stroke-miterlimit="10"/><path d="M360,280.16a1,1,0,0,1,1.91-.45,28.77,28.77,0,0,1,0,25.26,1,1,0,0,1-1.34.46,1,1,0,0,1-.46-1.34,26.81,26.81,0,0,0,0-23.49A1,1,0,0,1,360,280.16Z" fill="none" stroke="#003a50" stroke-miterlimit="10"/></g><line x1="354.01" y1="292.34" x2="396.38" y2="292.34" fill="none" stroke="#003a50" stroke-miterlimit="10"/><rect x="279.04" y="275.62" width="34.02" height="92.09" fill="none" stroke="#003a50" stroke-miterlimit="10"/><g clip-path="url(#clip-path)"><path d="M283.87,350.64a1,1,0,0,1-.9-.56,1,1,0,0,1,.45-1.34,28.77,28.77,0,0,1,25.26,0,1,1,0,1,1-.88,1.8,26.72,26.72,0,0,0-23.49,0A1,1,0,0,1,283.87,350.64Z" fill="none" stroke="#003a50" stroke-miterlimit="10"/><path d="M283.87,345.08a1,1,0,0,1-.9-.56,1,1,0,0,1,.45-1.35,28.77,28.77,0,0,1,25.26,0,1,1,0,0,1,.46,1.34,1,1,0,0,1-1.34.46,26.81,26.81,0,0,0-23.49,0A.9.9,0,0,1,283.87,345.08Z" fill="none" stroke="#003a50" stroke-miterlimit="10"/><path d="M283.87,339.51a1,1,0,0,1-.45-1.9,28.77,28.77,0,0,1,25.26,0,1,1,0,1,1-.88,1.8,26.72,26.72,0,0,0-23.49,0A1,1,0,0,1,283.87,339.51Z" fill="none" stroke="#003a50" stroke-miterlimit="10"/><path d="M283.87,334a1,1,0,0,1-.9-.56,1,1,0,0,1,.45-1.35,28.77,28.77,0,0,1,25.26,0,1,1,0,0,1,.46,1.34,1,1,0,0,1-1.34.46,26.81,26.81,0,0,0-23.49,0A.9.9,0,0,1,283.87,334Z" fill="none" stroke="#003a50" stroke-miterlimit="10"/><path d="M283.87,328.38a1,1,0,0,1-.45-1.9,28.77,28.77,0,0,1,25.26,0,1,1,0,0,1-.88,1.8,26.72,26.72,0,0,0-23.49,0A1,1,0,0,1,283.87,328.38Z" fill="none" stroke="#003a50" stroke-miterlimit="10"/><path d="M283.87,322.82a1,1,0,0,1-.9-.56,1,1,0,0,1,.45-1.35,28.77,28.77,0,0,1,25.26,0,1,1,0,0,1,.46,1.34,1,1,0,0,1-1.34.46,26.81,26.81,0,0,0-23.49,0A1,1,0,0,1,283.87,322.82Z" fill="none" stroke="#003a50" stroke-miterlimit="10"/><path d="M283.87,356.21a1,1,0,0,1-.9-.56,1,1,0,0,1,.45-1.35,28.77,28.77,0,0,1,25.26,0,1,1,0,0,1,.46,1.34,1,1,0,0,1-1.34.46,26.81,26.81,0,0,0-23.49,0A.9.9,0,0,1,283.87,356.21Z" fill="none" stroke="#003a50" stroke-miterlimit="10"/><path d="M283.87,361.77a1,1,0,0,1-.9-.56,1,1,0,0,1,.45-1.34,28.77,28.77,0,0,1,25.26,0,1,1,0,1,1-.88,1.8,26.72,26.72,0,0,0-23.49,0A1,1,0,0,1,283.87,361.77Z" fill="none" stroke="#003a50" stroke-miterlimit="10"/></g><line x1="296.05" y1="367.76" x2="296.05" y2="275.62" fill="none" stroke="#003a50" stroke-miterlimit="10"/><g clip-path="url(#clip-path)"><path d="M317.37,240a1,1,0,0,1,1.91-.44,28.77,28.77,0,0,1,0,25.26,1,1,0,0,1-1.34.45,1,1,0,0,1-.46-1.34,26.81,26.81,0,0,0,0-23.49A.87.87,0,0,1,317.37,240Z" fill="none" stroke="#003a50" stroke-miterlimit="10"/><path d="M322.94,240a1,1,0,0,1,.56-.9,1,1,0,0,1,1.34.46,28.77,28.77,0,0,1,0,25.26,1,1,0,0,1-1.8-.89,26.72,26.72,0,0,0,0-23.49A1,1,0,0,1,322.94,240Z" fill="none" stroke="#003a50" stroke-miterlimit="10"/><path d="M328.5,240a1,1,0,0,1,1.91-.44,28.77,28.77,0,0,1,0,25.26,1,1,0,0,1-1.34.45,1,1,0,0,1-.46-1.34,26.81,26.81,0,0,0,0-23.49A.87.87,0,0,1,328.5,240Z" fill="none" stroke="#003a50" stroke-miterlimit="10"/><path d="M334.07,240a1,1,0,0,1,1.9-.44,28.77,28.77,0,0,1,0,25.26,1,1,0,0,1-1.8-.89,26.72,26.72,0,0,0,0-23.49A1,1,0,0,1,334.07,240Z" fill="none" stroke="#003a50" stroke-miterlimit="10"/><path d="M339.63,240a1,1,0,0,1,1.91-.44,28.77,28.77,0,0,1,0,25.26,1,1,0,0,1-1.34.45,1,1,0,0,1-.46-1.34,26.81,26.81,0,0,0,0-23.49A.87.87,0,0,1,339.63,240Z" fill="none" stroke="#003a50" stroke-miterlimit="10"/><path d="M345.2,240a1,1,0,0,1,1.9-.44,28.77,28.77,0,0,1,0,25.26,1,1,0,0,1-1.8-.89,26.72,26.72,0,0,0,0-23.49A1,1,0,0,1,345.2,240Z" fill="none" stroke="#003a50" stroke-miterlimit="10"/><path d="M311.81,240a1,1,0,0,1,.56-.9,1,1,0,0,1,1.34.46,28.77,28.77,0,0,1,0,25.26,1,1,0,0,1-1.8-.89,26.72,26.72,0,0,0,0-23.49A1,1,0,0,1,311.81,240Z" fill="none" stroke="#003a50" stroke-miterlimit="10"/><path d="M306.24,240a1,1,0,0,1,1.9-.44,28.77,28.77,0,0,1,0,25.26,1,1,0,0,1-1.8-.89,26.72,26.72,0,0,0,0-23.49A1,1,0,0,1,306.24,240Z" fill="none" stroke="#003a50" stroke-miterlimit="10"/></g><line x1="300.25" y1="252.14" x2="379.63" y2="252.14" fill="none" stroke="#003a50" stroke-miterlimit="10"/><g clip-path="url(#clip-path)"><path d="M140.91,143.49h-41v45.77h43.25V145.7A2.22,2.22,0,0,0,140.91,143.49Z" fill="none" stroke="#003a50" stroke-miterlimit="10"/><path d="M141.14,97.62H99.88v45.77h41.26a2,2,0,0,0,2-2V99.6A2,2,0,0,0,141.14,97.62Z" fill="none" stroke="#003a50" stroke-miterlimit="10"/><path d="M143.13,189.26a3.1,3.1,0,0,1,2.82,3.32v4.23a3.11,3.11,0,0,1-2.82,3.33H94.93V86.75H142.7a3.11,3.11,0,0,1,2.83,3.32V94.3a3.11,3.11,0,0,1-2.83,3.32H99.88v91.64Z" fill="none" stroke="#003a50" stroke-miterlimit="10"/></g><rect x="99.88" y="97.62" width="9.25" height="91.64" fill="none" stroke="#003a50" stroke-miterlimit="10"/><rect x="202.9" y="50.78" width="17.01" height="224.22" fill="none" stroke="#003a50" stroke-miterlimit="10"/><rect x="396.66" y="96.01" width="17.01" height="101.63" fill="none" stroke="#003a50" stroke-miterlimit="10"/><polygon points="405.7 103.82 408.16 103.82 408.16 189.82 405.7 189.82 402.17 146.82 405.7 103.82" fill="none" stroke="#003a50" stroke-miterlimit="10"/><polygon points="210.86 205.9 208.41 205.9 208.41 119.89 210.86 119.89 214.4 162.9 210.86 205.9" fill="none" stroke="#003a50" stroke-miterlimit="10"/><g clip-path="url(#clip-path)"><rect x="586.16" y="212.8" width="113.38" height="34.02" fill="none" stroke="#003a50" stroke-miterlimit="10"/><path d="M259.86,120.8a14.78,14.78,0,0,0,15.93-23.38A1.14,1.14,0,1,0,274,98.85a12.47,12.47,0,0,1-14.15,19.5Z" fill="none" stroke="#003a50" stroke-miterlimit="10"/><rect x="225.84" y="66.54" width="34.02" height="84.03" rx="3.31" fill="none" stroke="#003a50" stroke-miterlimit="10"/><path d="M229.56,148a1.4,1.4,0,0,0,1.39-1.4V70.49a1.4,1.4,0,0,0-2.79,0v76.14a1.4,1.4,0,0,0,1.4,1.4" fill="none" stroke="#003a50" stroke-miterlimit="10"/><path d="M244.13,80.22a5.51,5.51,0,1,1,0-7.79A5.51,5.51,0,0,1,244.13,80.22Z" fill="none" stroke="#003a50" stroke-miterlimit="10"/><path d="M244.51,79.81c-1-.1-2,.28-3-.7-1.46-1.46.09-3-1.38-4.47s-3,.08-4.46-1.38" fill="none" stroke="#003a50" stroke-miterlimit="10"/><path d="M259.86,116.09a10.63,10.63,0,1,0,0-19.59Z" fill="none" stroke="#003a50" stroke-miterlimit="10"/><path d="M233.51,510.54a14.78,14.78,0,0,0-15.93,23.39,1.14,1.14,0,0,0,1.78-1.43A12.47,12.47,0,0,1,233.51,513Z" fill="none" stroke="#003a50" stroke-miterlimit="10"/><rect x="233.51" y="480.77" width="34.02" height="84.03" rx="3.31" fill="none" stroke="#003a50" stroke-miterlimit="10"/><path d="M263.81,483.32a1.39,1.39,0,0,0-1.39,1.39v76.15a1.4,1.4,0,0,0,2.79,0V484.71a1.4,1.4,0,0,0-1.4-1.39" fill="none" stroke="#003a50" stroke-miterlimit="10"/><path d="M233.51,515.25a10.63,10.63,0,1,0,0,19.59Z" fill="none" stroke="#003a50" stroke-miterlimit="10"/></g><rect x="337.37" y="74.41" width="52.33" height="113.67" fill="none" stroke="#003a50" stroke-miterlimit="10"/><g clip-path="url(#clip-path)"><path d="M346.31,178.38h34a2.11,2.11,0,0,0,2.11-2.11V108.65H344.21v67.62A2.11,2.11,0,0,0,346.31,178.38Z" fill="none" stroke="#003a50" stroke-miterlimit="10"/></g><rect x="344.21" y="108.65" width="38.26" height="13.85" fill="none" stroke="#003a50" stroke-miterlimit="10"/><g clip-path="url(#clip-path)"><rect x="343.81" y="82.16" width="38.71" height="22.88" rx="2.2" fill="none" stroke="#003a50" stroke-miterlimit="10"/></g><rect x="547.75" y="66.81" width="22.68" height="22.68" fill="none" stroke="#003a50" stroke-miterlimit="10"/><g clip-path="url(#clip-path)"><path d="M565.59,84.66a9.2,9.2,0,1,1,0-13A9.19,9.19,0,0,1,565.59,84.66Z" fill="none" stroke="#003a50" stroke-miterlimit="10"/><path d="M566.21,84c-1.69-.17-3.41.49-5.06-1.17-2.44-2.44.14-5-2.3-7.45s-5,.13-7.46-2.3" fill="none" stroke="#003a50" stroke-miterlimit="10"/></g><rect x="547.77" y="204.16" width="22.68" height="22.68" fill="none" stroke="#003a50" stroke-miterlimit="10"/><g clip-path="url(#clip-path)"><path d="M565.61,222a9.19,9.19,0,1,1,0-13A9.19,9.19,0,0,1,565.61,222Z" fill="none" stroke="#003a50" stroke-miterlimit="10"/><path d="M566.24,221.31c-1.69-.17-3.41.48-5.07-1.17-2.43-2.44.14-5-2.29-7.46s-5,.14-7.46-2.3" fill="none" stroke="#003a50" stroke-miterlimit="10"/></g><rect x="457.05" y="95.3" width="113.38" height="102.05" fill="none" stroke="#003a50" stroke-miterlimit="10"/><g clip-path="url(#clip-path)"><path d="M466.78,187.34v-82a2.08,2.08,0,0,1,2.08-2.08H536.5v86.22H468.86A2.09,2.09,0,0,1,466.78,187.34Z" fill="none" stroke="#003a50" stroke-miterlimit="10"/><path d="M540.12,143.47V104.94a2,2,0,0,1,2-2H561a2,2,0,0,1,2,2v38.53a2,2,0,0,1-2,2H542.1A2,2,0,0,1,540.12,143.47Z" fill="none" stroke="#003a50" stroke-miterlimit="10"/><rect x="540.12" y="147.18" width="22.88" height="42.5" rx="1.98" fill="none" stroke="#003a50" stroke-miterlimit="10"/></g><line x1="522.65" y1="189.68" x2="522.65" y2="102.95" fill="none" stroke="#003a50" stroke-miterlimit="10"/><g clip-path="url(#clip-path)"><path d="M270.67,272.59v-3.08A38.72,38.72,0,0,0,232,230.8v41.79" fill="none" stroke="#003a50" stroke-miterlimit="10" stroke-width="1.6"/><path d="M384.42,436.91v-3.14a39.5,39.5,0,0,0-39.5-39.51v42.65" fill="none" stroke="#003a50" stroke-miterlimit="10" stroke-width="1.6"/><path d="M527.23,430.81h3.88A48.89,48.89,0,0,0,580,381.92H527.23" fill="none" stroke="#003a50" stroke-miterlimit="10" stroke-width="1.6"/><path d="M452.47,339.38h-3.08a38.72,38.72,0,0,1-38.71-38.72h41.79" fill="none" stroke="#003a50" stroke-miterlimit="10" stroke-width="1.6"/><path d="M443.66,366.38v3.36a42.32,42.32,0,0,1-42.32,42.33V366.38" fill="none" stroke="#003a50" stroke-miterlimit="10" stroke-width="1.6"/><line x1="507.51" y1="429.28" x2="453.02" y2="429.28" fill="none" stroke="#003a50" stroke-miterlimit="10" stroke-width="1.6"/><rect x="16.75" y="393.83" width="35.86" height="94.46" fill="#003a50"/><rect x="16.75" y="208.99" width="39.01" height="94.66" fill="#003a50"/><rect x="2.17" y="208.99" width="53.58" height="26.14" fill="#003a50"/><rect x="384.7" y="2.4" width="34.46" height="47.83" fill="#003a50"/><rect x="574.75" y="2.4" width="26.7" height="47.83" fill="#003a50"/><rect x="505.79" y="16.24" width="91.66" height="34" fill="#003a50"/><rect x="270.41" y="2.4" width="26.7" height="47.83" fill="#003a50"/><rect x="201.44" y="16.24" width="91.66" height="34" fill="#003a50"/><rect x="210.61" y="27" width="77.33" height="29.4" fill="#003a50"/><rect x="515.92" y="29.07" width="77.33" height="27.33" fill="#003a50"/><rect x="3.19" y="1.57" width="27.24" height="27.83" fill="#003a50"/><rect x="4.27" y="393.83" width="44.33" height="25.9" fill="#003a50"/><rect x="38.44" y="467.06" width="249.5" height="13.79" fill="#003a50"/><rect x="278.11" y="533.4" width="249.5" height="13.79" fill="#003a50"/><rect x="513.61" y="534.01" width="16.81" height="126.75" fill="#003a50"/><rect x="494.11" y="434.04" width="11.67" height="106.25" fill="#003a50"/><rect x="494.11" y="433.3" width="36.31" height="11.67" fill="#003a50"/><rect x="514.27" y="362.75" width="142" height="16.69" fill="#003a50"/><rect x="570.73" y="52.03" width="16.32" height="314.78" fill="#003a50"/><rect x="379.07" y="192.4" width="16.32" height="82.94" fill="#003a50"/><rect x="270.64" y="467.07" width="17.3" height="80.12" fill="#003a50"/><rect x="447.09" y="338.54" width="6.38" height="28.28" fill="#003a50"/><rect x="447.09" y="247.28" width="6.38" height="54.21" fill="#003a50"/><rect x="269.83" y="268.96" width="120.92" height="6.38" fill="#003a50"/><rect x="219.84" y="268.96" width="12.94" height="6.38" fill="#003a50"/><rect x="585.53" y="247.07" width="70.74" height="6.38" fill="#003a50"/><rect x="585.53" y="278.67" width="25.64" height="6.38" fill="#003a50"/><rect x="567.17" y="247.07" width="138.46" height="6.38" fill="#003a50"/><rect x="546.92" y="326.55" width="25.64" height="6.38" fill="#003a50"/><rect x="545.65" y="250.47" width="6.38" height="118.66" fill="#003a50"/><rect x="442.84" y="362.75" width="91.5" height="6.38" fill="#003a50"/><rect x="313.34" y="362.75" width="88.83" height="6.38" fill="#003a50"/><rect x="313.34" y="272.59" width="6.38" height="94.76" fill="#003a50"/><rect x="219.84" y="48.64" width="6.38" height="222.42" fill="#003a50"/><rect x="390.01" y="48.64" width="6.38" height="226.7" fill="#003a50"/><rect x="383.59" y="433.28" width="59.1" height="6.38" fill="#003a50"/><rect x="481.88" y="433.28" width="17.19" height="6.38" fill="#003a50"/><rect x="283.01" y="433.28" width="62.74" height="6.38" fill="#003a50"/><rect x="308" y="438.53" width="6.38" height="99.52" fill="#003a50"/><rect x="430.75" y="438.53" width="6.38" height="99.52" fill="#003a50"/><rect x="283.01" y="438.53" width="6.38" height="99.52" fill="#003a50"/><rect x="286.93" y="455.35" width="26.4" height="6.38" fill="#003a50"/><rect x="524.04" y="430.05" width="6.38" height="107.23" fill="#003a50"/><rect x="524.04" y="369.13" width="6.38" height="13.63" fill="#003a50"/><rect x="373.08" y="543.01" width="6.38" height="108.39" fill="#003a50"/><rect x="488.35" y="544.26" width="6.38" height="104.88" fill="#003a50"/><line x1="389.24" y1="247.78" x2="392.08" y2="247.78" fill="none" stroke="#003a50" stroke-miterlimit="10"/><line x1="397.94" y1="247.78" x2="488.9" y2="247.78" fill="none" stroke="#003a50" stroke-miterlimit="10" stroke-dasharray="5.87 5.87"/><line x1="491.84" y1="247.78" x2="494.68" y2="247.78" fill="none" stroke="#003a50" stroke-miterlimit="10"/><line x1="283.36" y1="443.37" x2="283.36" y2="440.53" fill="none" stroke="#003a50" stroke-miterlimit="10"/><line x1="283.36" y1="435.15" x2="283.36" y2="373.28" fill="none" stroke="#003a50" stroke-miterlimit="10" stroke-dasharray="5.38 5.38"/><line x1="283.36" y1="370.59" x2="283.36" y2="367.76" fill="none" stroke="#003a50" stroke-miterlimit="10"/><line x1="283.36" y1="399.51" x2="280.53" y2="399.51" fill="none" stroke="#003a50" stroke-miterlimit="10"/><line x1="274.94" y1="399.51" x2="54.23" y2="399.51" fill="none" stroke="#003a50" stroke-miterlimit="10" stroke-dasharray="5.59 5.59"/><line x1="51.44" y1="399.51" x2="48.6" y2="399.51" fill="none" stroke="#003a50" stroke-miterlimit="10"/><rect x="447.09" y="338.54" width="6.38" height="28.28" fill="#003a50"/><rect x="447.09" y="247.28" width="6.38" height="54.21" fill="#003a50"/><rect x="269.83" y="268.96" width="120.92" height="6.38" fill="#003a50"/><rect x="219.84" y="268.96" width="12.94" height="6.38" fill="#003a50"/><rect x="585.53" y="247.07" width="70.74" height="6.38" fill="#003a50"/><rect x="585.53" y="278.67" width="25.64" height="6.38" fill="#003a50"/><rect x="546.92" y="326.55" width="25.64" height="6.38" fill="#003a50"/><rect x="545.65" y="250.47" width="6.38" height="118.66" fill="#003a50"/><rect x="442.84" y="362.75" width="91.5" height="6.38" fill="#003a50"/><rect x="313.34" y="362.75" width="88.83" height="6.38" fill="#003a50"/><rect x="313.34" y="272.59" width="6.38" height="94.76" fill="#003a50"/><rect x="219.84" y="48.64" width="6.38" height="222.42" fill="#003a50"/><rect x="390.01" y="48.64" width="6.38" height="226.7" fill="#003a50"/><rect x="383.59" y="433.28" width="59.1" height="6.38" fill="#003a50"/><rect x="481.88" y="433.28" width="17.19" height="6.38" fill="#003a50"/><rect x="283.01" y="433.28" width="62.74" height="6.38" fill="#003a50"/><rect x="308" y="438.53" width="6.38" height="99.52" fill="#003a50"/><rect x="267.45" y="473.96" width="6.38" height="102.03" fill="#003a50"/><rect x="430.75" y="438.53" width="6.38" height="99.52" fill="#003a50"/><rect x="283.01" y="438.53" width="6.38" height="99.52" fill="#003a50"/><rect x="286.93" y="455.35" width="26.4" height="6.38" fill="#003a50"/><rect x="524.04" y="430.05" width="6.38" height="107.23" fill="#003a50"/><rect x="524.04" y="369.13" width="6.38" height="13.63" fill="#003a50"/><rect x="373.08" y="543.01" width="6.38" height="108.39" fill="#003a50"/><rect x="488.35" y="544.26" width="6.38" height="104.88" fill="#003a50"/></g><g clip-path="url(#clip-path)"><path d="M433.41,29.37a4.57,4.57,0,0,1-1-3.12,4.6,4.6,0,0,1,1-3.11,4,4,0,0,1,5.74,0,4.6,4.6,0,0,1,1,3.11,4.57,4.57,0,0,1-1,3.12,4,4,0,0,1-5.74,0Zm4.61-1a3.48,3.48,0,0,0,.61-2.14,3.52,3.52,0,0,0-.61-2.14,2.23,2.23,0,0,0-3.47,0,3.44,3.44,0,0,0-.62,2.14,3.42,3.42,0,0,0,.62,2.14,2,2,0,0,0,1.73.84A2.05,2.05,0,0,0,438,28.39Z" fill="#003a50"/><path d="M441.74,30.36a.72.72,0,0,1-.23-.57.74.74,0,0,1,.23-.56.83.83,0,0,1,.61-.22.82.82,0,0,1,.61.22.7.7,0,0,1,.23.56.69.69,0,0,1-.23.57.85.85,0,0,1-.61.21A.87.87,0,0,1,441.74,30.36Z" fill="#003a50"/><path d="M451.35,24.42h-1.56s0,0,0-.12a1.2,1.2,0,0,0-.15-.31,1.91,1.91,0,0,0-.27-.35,1.27,1.27,0,0,0-.5-.29,2.09,2.09,0,0,0-.72-.12,1.75,1.75,0,0,0-1.51.73,3.11,3.11,0,0,0-.54,1.89h0a1.11,1.11,0,0,1,.31-.3,2.14,2.14,0,0,1,.43-.26,3.09,3.09,0,0,1,.67-.22,4,4,0,0,1,.86-.09,3.53,3.53,0,0,1,2.38.79,2.61,2.61,0,0,1-.05,4,3.87,3.87,0,0,1-2.54.78,3.38,3.38,0,0,1-2.73-1.09,4.48,4.48,0,0,1-.93-3v-.29a4.85,4.85,0,0,1,.93-3,3.2,3.2,0,0,1,2.68-1.2,3.87,3.87,0,0,1,1.5.26,2.73,2.73,0,0,1,1,.66A2.44,2.44,0,0,1,451.35,24.42Zm-1.77,2.22a2.58,2.58,0,0,0-2.79,0,1.4,1.4,0,0,0,0,2.22,2.54,2.54,0,0,0,2.8,0,1.4,1.4,0,0,0,0-2.22Z" fill="#003a50"/><path d="M313.6,29.37a4.57,4.57,0,0,1-1-3.12,4.6,4.6,0,0,1,1-3.11,4,4,0,0,1,5.74,0,4.55,4.55,0,0,1,1,3.11,4.53,4.53,0,0,1-1,3.12,4,4,0,0,1-5.74,0Zm4.61-1a3.48,3.48,0,0,0,.61-2.14,3.52,3.52,0,0,0-.61-2.14,2.23,2.23,0,0,0-3.47,0,3.5,3.5,0,0,0-.62,2.14,3.48,3.48,0,0,0,.62,2.14,2,2,0,0,0,1.73.84A2.05,2.05,0,0,0,318.21,28.39Z" fill="#003a50"/><path d="M321.93,30.36a.72.72,0,0,1-.23-.57.74.74,0,0,1,.23-.56.83.83,0,0,1,.61-.22.82.82,0,0,1,.61.22.7.7,0,0,1,.23.56.69.69,0,0,1-.23.57.85.85,0,0,1-.61.21A.87.87,0,0,1,321.93,30.36Z" fill="#003a50"/><path d="M331.54,24.42H330s0,0,0-.12a1.2,1.2,0,0,0-.15-.31,1.56,1.56,0,0,0-.27-.35,1.2,1.2,0,0,0-.5-.29,2.08,2.08,0,0,0-.71-.12,1.75,1.75,0,0,0-1.52.73,3.11,3.11,0,0,0-.54,1.89h0a1.27,1.27,0,0,1,.31-.3,2.14,2.14,0,0,1,.43-.26,3.09,3.09,0,0,1,.67-.22,4.12,4.12,0,0,1,.86-.09,3.53,3.53,0,0,1,2.38.79,2.62,2.62,0,0,1,0,4,3.92,3.92,0,0,1-2.55.78,3.38,3.38,0,0,1-2.73-1.09,4.48,4.48,0,0,1-.93-3v-.29a4.85,4.85,0,0,1,.93-3,3.2,3.2,0,0,1,2.69-1.2,3.93,3.93,0,0,1,1.5.26,2.69,2.69,0,0,1,1,.66A2.44,2.44,0,0,1,331.54,24.42Zm-1.77,2.22a2.58,2.58,0,0,0-2.79,0,1.4,1.4,0,0,0,0,2.22,2.56,2.56,0,0,0,2.81,0,1.4,1.4,0,0,0,0-2.22Z" fill="#003a50"/><path d="M170,30.46h-7V29.35a1.94,1.94,0,0,1,.41-1.23,2.78,2.78,0,0,1,1-.84c.35-.18.79-.38,1.31-.61l1.33-.54a3.13,3.13,0,0,0,1-.65,1.27,1.27,0,0,0,.4-.92c0-.89-.62-1.33-1.88-1.33s-1.89.51-1.89,1.52V25h-1.48v-.29a2.54,2.54,0,0,1,.89-2.09,3.82,3.82,0,0,1,2.48-.72,3.94,3.94,0,0,1,2.47.68,2.32,2.32,0,0,1,.9,1.94,2.24,2.24,0,0,1-.39,1.3,3.23,3.23,0,0,1-1,.92,13.13,13.13,0,0,1-1.3.65c-.44.2-.87.37-1.29.53a3.85,3.85,0,0,0-1,.53.86.86,0,0,0-.39.67H170Z" fill="#003a50"/><path d="M171.44,30.36a.69.69,0,0,1-.23-.57.7.7,0,0,1,.23-.56,1,1,0,0,1,1.22,0,.74.74,0,0,1,.23.56.72.72,0,0,1-.23.57,1,1,0,0,1-1.22,0Z" fill="#003a50"/><path d="M180.14,30.46h-1.49V28.59h-4.92v-1.3l4.44-5.24h2v5.24h1.12v1.3h-1.12Zm-1.49-3.17V23.53h-.05l-3.16,3.72v0Z" fill="#003a50"/><path d="M25.81,543v1.56s0,0-.12,0a1.7,1.7,0,0,0-.32.15A3,3,0,0,0,25,545a1.57,1.57,0,0,0-.29.5,2.36,2.36,0,0,0-.11.72,1.75,1.75,0,0,0,.73,1.51,3.07,3.07,0,0,0,1.89.54v0a1.27,1.27,0,0,1-.31-.31,2.67,2.67,0,0,1-.25-.43,2.5,2.5,0,0,1-.22-.67,4,4,0,0,1-.09-.86,3.5,3.5,0,0,1,.79-2.37,2.44,2.44,0,0,1,2-.92,2.52,2.52,0,0,1,2.05,1,3.87,3.87,0,0,1,.78,2.54,3.38,3.38,0,0,1-1.09,2.73,4.5,4.5,0,0,1-3,.93h-.29a4.85,4.85,0,0,1-3-.93,3.2,3.2,0,0,1-1.21-2.68,3.86,3.86,0,0,1,.27-1.5,2.73,2.73,0,0,1,.66-1A2.44,2.44,0,0,1,25.81,543ZM28,544.73a2.32,2.32,0,0,0-.41,1.4,2.27,2.27,0,0,0,.41,1.39,1.3,1.3,0,0,0,1.11.55,1.31,1.31,0,0,0,1.11-.54,2.54,2.54,0,0,0,0-2.8,1.3,1.3,0,0,0-1.11-.55A1.32,1.32,0,0,0,28,544.73Z" fill="#003a50"/><path d="M30.76,377.06a4.57,4.57,0,0,1-3.12,1,4.6,4.6,0,0,1-3.11-1,4,4,0,0,1,0-5.74,4.6,4.6,0,0,1,3.11-1,4.57,4.57,0,0,1,3.12,1,4,4,0,0,1,0,5.74Zm-1-4.61a3.5,3.5,0,0,0-2.14-.61,3.52,3.52,0,0,0-2.14.61,2,2,0,0,0-.83,1.74,2,2,0,0,0,.83,1.73,3.44,3.44,0,0,0,2.14.62,3.44,3.44,0,0,0,2.14-.62,2,2,0,0,0,.84-1.73A2.05,2.05,0,0,0,29.78,372.45Z" fill="#003a50"/><path d="M31.75,368.73a.69.69,0,0,1-.57.23.71.71,0,0,1-.57-.23,1,1,0,0,1,0-1.22.75.75,0,0,1,.57-.23.72.72,0,0,1,.57.23,1,1,0,0,1,0,1.22Z" fill="#003a50"/><path d="M25.81,359.12v1.56s0,0-.12,0a1.42,1.42,0,0,0-.31.15,2.42,2.42,0,0,0-.36.27,1.57,1.57,0,0,0-.29.5,2.36,2.36,0,0,0-.11.72,1.75,1.75,0,0,0,.73,1.51,3.07,3.07,0,0,0,1.89.54v0a1.27,1.27,0,0,1-.31-.31,2.67,2.67,0,0,1-.25-.43,2.5,2.5,0,0,1-.22-.67,4,4,0,0,1-.09-.86,3.5,3.5,0,0,1,.79-2.37,2.44,2.44,0,0,1,2-.92,2.52,2.52,0,0,1,2.05,1A3.87,3.87,0,0,1,32,362.3,3.38,3.38,0,0,1,30.87,365a4.5,4.5,0,0,1-3,.93h-.29a4.85,4.85,0,0,1-3-.93,3.2,3.2,0,0,1-1.21-2.68,3.86,3.86,0,0,1,.27-1.5,2.73,2.73,0,0,1,.66-1A2.44,2.44,0,0,1,25.81,359.12ZM28,360.89a2.32,2.32,0,0,0-.41,1.4,2.27,2.27,0,0,0,.41,1.39,1.3,1.3,0,0,0,1.11.55,1.31,1.31,0,0,0,1.11-.54,2.54,2.54,0,0,0,0-2.8,1.3,1.3,0,0,0-1.11-.55A1.32,1.32,0,0,0,28,360.89Z" fill="#003a50"/></g><rect x="447.09" y="247.28" width="125.47" height="6.38" fill="#003a50"/><g clip-path="url(#clip-path)"><path d="M450.13,214.4l-2.49,2v-2.25l2.74-2.26h1.86v11.9h-2.11Z" fill="#003a50"/><path d="M456.75,214.4l-2.48,2v-2.25l2.73-2.26h1.86v11.9h-2.11Z" fill="#003a50"/><path d="M461.39,223.62a1,1,0,0,1-.33-.8,1,1,0,0,1,.33-.81,1.23,1.23,0,0,1,.87-.3,1.2,1.2,0,0,1,.86.3,1,1,0,0,1,.33.81,1,1,0,0,1-.33.8,1.2,1.2,0,0,1-.86.3A1.23,1.23,0,0,1,461.39,223.62Z" fill="#003a50"/><path d="M470.67,215.77a5,5,0,0,1,3.34,1.07,4.16,4.16,0,0,1,0,6,5.39,5.39,0,0,1-3.55,1.08,5.79,5.79,0,0,1-3.56-1,3.15,3.15,0,0,1-1.28-2.68h2.1a1.53,1.53,0,0,0,.71,1.33,3.55,3.55,0,0,0,2,.49,3.18,3.18,0,0,0,2-.58,2.36,2.36,0,0,0,0-3.39,3.31,3.31,0,0,0-2.07-.58,3.6,3.6,0,0,0-1.92.42,2,2,0,0,0-.7.64l-.05.12h-2.1v-6.87h8.87v1.84h-6.77v3h.05a2.22,2.22,0,0,1,.4-.31,4,4,0,0,1,.55-.27A5.63,5.63,0,0,1,470.67,215.77Z" fill="#003a50"/><path d="M462.24,310.58h-5.82v-1.84h8.86v1.84l-4.53,2.65v.07H462a3.9,3.9,0,0,1,2.79,1,3.53,3.53,0,0,1,1.06,2.67,3.35,3.35,0,0,1-1.33,2.82,6.93,6.93,0,0,1-7.24,0A3.35,3.35,0,0,1,456,317v-.33h2.11V317c0,1.36.94,2,2.84,2s2.84-.67,2.84-2-.95-2-2.84-2h-3.27v-1.67l4.58-2.68Z" fill="#003a50"/><path d="M468,320.52a1.15,1.15,0,0,1,0-1.61,1.4,1.4,0,0,1,1.73,0,1.15,1.15,0,0,1,0,1.61,1.4,1.4,0,0,1-1.73,0Z" fill="#003a50"/><path d="M481.6,312.1h-2.21s0-.07,0-.18a2.53,2.53,0,0,0-.22-.44,2.28,2.28,0,0,0-.38-.5,2,2,0,0,0-.71-.41,3,3,0,0,0-1-.16,2.49,2.49,0,0,0-2.15,1,4.41,4.41,0,0,0-.77,2.68h.06a2,2,0,0,1,.44-.43,4.31,4.31,0,0,1,.61-.37,4.87,4.87,0,0,1,.95-.3,6.16,6.16,0,0,1,1.22-.13,5,5,0,0,1,3.37,1.12,3.48,3.48,0,0,1,1.3,2.79,3.57,3.57,0,0,1-1.36,2.91,5.49,5.49,0,0,1-3.6,1.11,4.81,4.81,0,0,1-3.87-1.55,6.36,6.36,0,0,1-1.32-4.27v-.4a6.83,6.83,0,0,1,1.32-4.31,4.49,4.49,0,0,1,3.8-1.72,5.66,5.66,0,0,1,2.13.38,3.75,3.75,0,0,1,1.43.94A3.44,3.44,0,0,1,481.6,312.1Zm-2.51,3.14a3.65,3.65,0,0,0-3.95,0,1.88,1.88,0,0,0-.78,1.58,1.85,1.85,0,0,0,.77,1.57,3.21,3.21,0,0,0,2,.59,3.26,3.26,0,0,0,2-.59,2,2,0,0,0,0-3.15Z" fill="#003a50"/><path d="M371.23,327.45h-2.11V324.8h-7V323l6.3-7.42h2.79V323h1.59v1.84h-1.59ZM369.12,323v-5.32h-.07l-4.48,5.27v0Z" fill="#003a50"/><path d="M374.51,327.32a1,1,0,0,1-.33-.81,1,1,0,0,1,.33-.8,1.4,1.4,0,0,1,1.73,0,1,1,0,0,1,.33.8,1,1,0,0,1-.33.81,1.4,1.4,0,0,1-1.73,0Z" fill="#003a50"/><path d="M384.61,317.39h-5.82v-1.85h8.86v1.85L383.13,320v.06h1.28a3.87,3.87,0,0,1,2.79,1,3.5,3.5,0,0,1,1.05,2.66,3.33,3.33,0,0,1-1.33,2.83,7,7,0,0,1-7.24,0,3.37,3.37,0,0,1-1.33-2.86v-.32h2.11v.32c0,1.36,1,2,2.84,2s2.84-.66,2.84-2-.95-2-2.84-2H380v-1.67l4.57-2.69Z" fill="#003a50"/><path d="M482.34,409.13h-2.11v-2.65h-7v-1.85l6.3-7.41h2.79v7.41h1.59v1.85h-1.59Zm-2.11-4.5v-5.32h-.07l-4.47,5.27v.05Z" fill="#003a50"/><path d="M485.62,409a1,1,0,0,1-.32-.8,1,1,0,0,1,.32-.81,1.41,1.41,0,0,1,1.74,0,1.07,1.07,0,0,1,.32.81,1,1,0,0,1-.32.8,1.41,1.41,0,0,1-1.74,0Z" fill="#003a50"/><path d="M498,409.13h-2.11v-2.65h-7v-1.85l6.29-7.41H498v7.41h1.6v1.85H498Zm-2.11-4.5v-5.32h-.06l-4.48,5.27v.05Z" fill="#003a50"/><path d="M270.29,214.4l-2.49,2v-2.25l2.73-2.26h1.86v11.9h-2.1Z" fill="#003a50"/><path d="M284.79,223.75h-9.94v-1.56a2.8,2.8,0,0,1,.58-1.74,4.12,4.12,0,0,1,1.45-1.2c.5-.25,1.12-.54,1.87-.86s1.32-.56,1.87-.77a4.14,4.14,0,0,0,1.45-.92,1.78,1.78,0,0,0,.57-1.3c0-1.26-.89-1.88-2.66-1.88s-2.68.71-2.68,2.15v.41h-2.11v-.41a3.59,3.59,0,0,1,1.27-3,5.34,5.34,0,0,1,3.51-1,5.65,5.65,0,0,1,3.51,1,3.29,3.29,0,0,1,1.27,2.75,3.17,3.17,0,0,1-.55,1.84,4.39,4.39,0,0,1-1.41,1.3q-.9.51-1.83.93t-1.83.75a5.38,5.38,0,0,0-1.4.74,1.25,1.25,0,0,0-.57,1h7.63Z" fill="#003a50"/><path d="M286.89,223.62a1,1,0,0,1-.33-.8,1,1,0,0,1,.33-.81,1.4,1.4,0,0,1,1.73,0,1,1,0,0,1,.33.81,1,1,0,0,1-.33.8,1.4,1.4,0,0,1-1.73,0Z" fill="#003a50"/><path d="M292.29,222.22a7.34,7.34,0,0,1,0-8.84,5.71,5.71,0,0,1,8.13,0,7.34,7.34,0,0,1,0,8.84,5.71,5.71,0,0,1-8.13,0Zm6.53-1.39a5,5,0,0,0,.87-3,5,5,0,0,0-.87-3,3.15,3.15,0,0,0-4.92,0,5,5,0,0,0-.88,3,5,5,0,0,0,.88,3,3.14,3.14,0,0,0,4.92,0Z" fill="#003a50"/><path d="M115.22,223.75h-9.93v-1.56a2.74,2.74,0,0,1,.58-1.74,4,4,0,0,1,1.44-1.2c.5-.25,1.13-.54,1.87-.86s1.33-.56,1.88-.77a4.23,4.23,0,0,0,1.45-.92,1.78,1.78,0,0,0,.57-1.3c0-1.26-.89-1.88-2.67-1.88s-2.67.71-2.67,2.15v.41h-2.11v-.41a3.62,3.62,0,0,1,1.26-3,5.38,5.38,0,0,1,3.51-1,5.66,5.66,0,0,1,3.52,1,3.31,3.31,0,0,1,1.27,2.75,3.17,3.17,0,0,1-.56,1.84,4.26,4.26,0,0,1-1.4,1.3c-.6.34-1.21.65-1.84.93s-1.23.53-1.82.75a5.46,5.46,0,0,0-1.41.74,1.26,1.26,0,0,0-.56,1h7.62Z" fill="#003a50"/><path d="M122.7,215.77a5,5,0,0,1,3.33,1.07,4.16,4.16,0,0,1,0,6,5.38,5.38,0,0,1-3.54,1.08,5.8,5.8,0,0,1-3.57-1,3.18,3.18,0,0,1-1.28-2.68h2.11a1.53,1.53,0,0,0,.7,1.33,3.59,3.59,0,0,0,2,.49,3.17,3.17,0,0,0,2-.58,2.36,2.36,0,0,0,0-3.39,3.31,3.31,0,0,0-2.07-.58,3.6,3.6,0,0,0-1.92.42,1.87,1.87,0,0,0-.69.64l-.05.12H117.6v-6.87h8.87v1.84h-6.76v3h.05a1.83,1.83,0,0,1,.39-.31,4,4,0,0,1,.55-.27A5.66,5.66,0,0,1,122.7,215.77Z" fill="#003a50"/><path d="M129.4,223.62a1,1,0,0,1-.33-.8,1,1,0,0,1,.33-.81,1.4,1.4,0,0,1,1.73,0,1,1,0,0,1,.33.81,1,1,0,0,1-.33.8,1.4,1.4,0,0,1-1.73,0Z" fill="#003a50"/><path d="M134.8,222.22a7.38,7.38,0,0,1,0-8.84,5.71,5.71,0,0,1,8.13,0,7.34,7.34,0,0,1,0,8.84,5.71,5.71,0,0,1-8.13,0Zm6.53-1.39a5,5,0,0,0,.87-3,5,5,0,0,0-.87-3,3.15,3.15,0,0,0-4.92,0,5,5,0,0,0-.88,3,5,5,0,0,0,.88,3,3.14,3.14,0,0,0,4.92,0Z" fill="#003a50"/><path d="M466,477.43l-2.48,1.95v-2.24l2.73-2.27h1.86v11.91H466Z" fill="#003a50"/><path d="M470.65,486.65a1,1,0,0,1-.33-.81,1,1,0,0,1,.33-.8,1.4,1.4,0,0,1,1.73,0,1,1,0,0,1,.33.8,1,1,0,0,1-.33.81,1.4,1.4,0,0,1-1.73,0Z" fill="#003a50"/><path d="M483.23,486a7.73,7.73,0,0,1-7.37,0,3,3,0,0,1-1.37-2.56,2.7,2.7,0,0,1,.26-1.16,2.41,2.41,0,0,1,.66-.86,4,4,0,0,1,1.39-.77l.26-.06v-.1a2.75,2.75,0,0,1-.77-.29,2.61,2.61,0,0,1-.66-.44,2.2,2.2,0,0,1-.54-.75,2.41,2.41,0,0,1-.22-1,2.78,2.78,0,0,1,1.25-2.38,7,7,0,0,1,6.85,0,2.81,2.81,0,0,1,1.25,2.38,2.58,2.58,0,0,1-.22,1,1.88,1.88,0,0,1-.56.74,3.63,3.63,0,0,1-1.19.69l-.23,0v.1a1.44,1.44,0,0,1,.29.06,6.35,6.35,0,0,1,.62.27,3.79,3.79,0,0,1,.77.5,2.89,2.89,0,0,1,.62.83,2.63,2.63,0,0,1,.27,1.19A3,3,0,0,1,483.23,486Zm-5.79-1.35a4.83,4.83,0,0,0,4.2,0,1.59,1.59,0,0,0,0-2.69,4.93,4.93,0,0,0-4.2,0,1.51,1.51,0,0,0-.74,1.35A1.52,1.52,0,0,0,477.44,484.67Zm-.36-6.52a1.36,1.36,0,0,0,.64,1.19,4.07,4.07,0,0,0,3.64,0,1.42,1.42,0,0,0,0-2.39,3.94,3.94,0,0,0-3.62,0A1.35,1.35,0,0,0,477.08,478.15Z" fill="#003a50"/><path d="M362.44,476.72h-5.83v-1.85h8.86v1.85L361,479.37v.06h1.28a3.87,3.87,0,0,1,2.79,1,3.5,3.5,0,0,1,1.05,2.66,3.33,3.33,0,0,1-1.33,2.83,7,7,0,0,1-7.24,0,3.4,3.4,0,0,1-1.33-2.86v-.32h2.11v.32c0,1.36,1,2,2.84,2s2.84-.66,2.84-2-.94-2-2.84-2h-3.26v-1.67l4.58-2.69Z" fill="#003a50"/><path d="M368.17,486.65a1,1,0,0,1-.32-.81,1.06,1.06,0,0,1,.32-.8,1.25,1.25,0,0,1,.88-.3,1.22,1.22,0,0,1,.86.3,1.06,1.06,0,0,1,.32.8,1,1,0,0,1-.32.81,1.22,1.22,0,0,1-.86.3A1.25,1.25,0,0,1,368.17,486.65Z" fill="#003a50"/><path d="M380.76,486a7.73,7.73,0,0,1-7.37,0,3,3,0,0,1-1.37-2.56,2.7,2.7,0,0,1,.26-1.16,2.51,2.51,0,0,1,.65-.86,4.05,4.05,0,0,1,1.4-.77l.26-.06v-.1a2.65,2.65,0,0,1-.77-.29,2.61,2.61,0,0,1-.66-.44,2.2,2.2,0,0,1-.54-.75,2.42,2.42,0,0,1-.23-1,2.79,2.79,0,0,1,1.26-2.38,5.74,5.74,0,0,1,3.42-.9,5.81,5.81,0,0,1,3.43.9,2.8,2.8,0,0,1,1.24,2.38,2.43,2.43,0,0,1-.22,1,1.87,1.87,0,0,1-.55.74,3.63,3.63,0,0,1-1.19.69l-.23,0v.1a1.27,1.27,0,0,1,.28.06,6.14,6.14,0,0,1,.63.27,4.09,4.09,0,0,1,.77.5,2.71,2.71,0,0,1,.61.83,2.52,2.52,0,0,1,.28,1.19A3,3,0,0,1,380.76,486ZM375,484.67a4.83,4.83,0,0,0,4.2,0,1.59,1.59,0,0,0,0-2.69,4.93,4.93,0,0,0-4.2,0,1.49,1.49,0,0,0-.74,1.35A1.5,1.5,0,0,0,375,484.67Zm-.37-6.52a1.37,1.37,0,0,0,.65,1.19,3.2,3.2,0,0,0,1.82.43,3.24,3.24,0,0,0,1.82-.43,1.42,1.42,0,0,0,0-2.39,3.94,3.94,0,0,0-3.62,0A1.36,1.36,0,0,0,374.6,478.15Z" fill="#003a50"/><path d="M139.73,418.54a5,5,0,0,1,3.34,1.07,4.17,4.17,0,0,1,0,6,5.38,5.38,0,0,1-3.54,1.08,5.75,5.75,0,0,1-3.56-1,3.16,3.16,0,0,1-1.29-2.68h2.11a1.53,1.53,0,0,0,.7,1.33,3.61,3.61,0,0,0,2,.49,3.17,3.17,0,0,0,2-.58,2,2,0,0,0,.7-1.68,2.05,2.05,0,0,0-.73-1.71,3.34,3.34,0,0,0-2.08-.58,3.6,3.6,0,0,0-1.92.42,1.87,1.87,0,0,0-.69.64l0,.12h-2.11v-6.87h8.88v1.84h-6.77v3h0a1.91,1.91,0,0,1,.4-.31,3.89,3.89,0,0,1,.54-.27A5.66,5.66,0,0,1,139.73,418.54Z" fill="#003a50"/><path d="M146.43,426.39a1,1,0,0,1-.32-.8,1,1,0,0,1,.32-.81,1.41,1.41,0,0,1,1.74,0,1.07,1.07,0,0,1,.32.81,1,1,0,0,1-.32.8,1.41,1.41,0,0,1-1.74,0Z" fill="#003a50"/><path d="M158.76,426.52h-2.11v-2.64h-7V422l6.29-7.41h2.79V422h1.6v1.85h-1.6ZM156.65,422v-5.32h-.06L152.11,422v0Z" fill="#003a50"/></g></svg>