<svg id="Слой_1" data-name="Слой 1" xmlns="http://www.w3.org/2000/svg" xmlns:xlink="http://www.w3.org/1999/xlink" viewBox="0 0 600.95 685.98"><defs><clipPath id="clip-path"><polygon points="4.54 0.99 4.54 17.65 0 17.65 0 381.12 18.27 381.12 18.27 650.83 100.91 650.83 100.91 685.98 599.81 685.98 599.81 0.99 4.54 0.99" fill="none"/></clipPath></defs><polygon points="74.46 648.8 74.46 650.83 100.91 650.83 100.91 685.98 101.73 685.98 101.73 648.8 74.46 648.8" fill="#fff"/><polygon points="9.39 15.6 9.39 366.76 74.77 368.23 85.54 389.49 85.54 436.75 84.22 641.08 104.29 643.23 107.07 673.14 582.63 673.14 582.63 352.92 582.63 281.99 582.63 15.6 9.39 15.6" fill="#fff"/><rect y="17.65" width="1.83" height="351.19" fill="#fff"/><g clip-path="url(#clip-path)"><rect x="-567.59" y="3.7" width="1162.95" height="2240.57" fill="none" stroke="#003a50" stroke-miterlimit="10"/><polygon points="-555 1107.87 -555 2231.42 582.39 2231.42 582.39 16.65 -555 16.49 -555 1037.16 -555 1107.87" fill="none" stroke="#003a50" stroke-miterlimit="10"/></g><rect x="213.16" y="35.94" width="86.53" height="4.56" fill="#fff"/><rect x="213.16" y="35.94" width="86.53" height="4.56" fill="none" stroke="#003a50" stroke-miterlimit="10"/><line x1="299.69" y1="38.22" x2="213.16" y2="38.22" fill="none" stroke="#003a50" stroke-miterlimit="10"/><rect x="295.2" y="35.94" width="4.48" height="4.56" fill="#fff"/><rect x="295.21" y="35.94" width="4.48" height="4.56" fill="none" stroke="#003a50" stroke-miterlimit="10"/><rect x="213.16" y="35.94" width="4.49" height="4.56" fill="#fff"/><rect x="213.16" y="35.94" width="4.49" height="4.56" fill="none" stroke="#003a50" stroke-miterlimit="10"/><rect x="253.13" y="35.94" width="4.48" height="4.56" fill="#fff"/><rect x="253.13" y="35.94" width="4.48" height="4.56" fill="none" stroke="#003a50" stroke-miterlimit="10"/><g clip-path="url(#clip-path)"><path d="M253.13,40.49v2.9c0,20.15-15.89,33.1-35.48,33.1v-36" fill="none" stroke="#003a50" stroke-miterlimit="10"/></g><rect x="30.97" y="35.94" width="85.94" height="4.56" fill="#fff"/><rect x="30.97" y="35.94" width="85.94" height="4.56" fill="none" stroke="#003a50" stroke-miterlimit="10"/><line x1="30.96" y1="38.22" x2="116.9" y2="38.22" fill="none" stroke="#003a50" stroke-miterlimit="10"/><rect x="30.97" y="35.94" width="4.46" height="4.56" fill="#fff"/><rect x="30.97" y="35.94" width="4.46" height="4.56" fill="none" stroke="#003a50" stroke-miterlimit="10"/><rect x="112.44" y="35.94" width="4.46" height="4.56" fill="#fff"/><rect x="112.45" y="35.94" width="4.46" height="4.56" fill="none" stroke="#003a50" stroke-miterlimit="10"/><rect x="72.75" y="35.94" width="4.46" height="4.56" fill="#fff"/><rect x="72.75" y="35.94" width="4.46" height="4.56" fill="none" stroke="#003a50" stroke-miterlimit="10"/><g clip-path="url(#clip-path)"><path d="M77.21,40.49v2.9c0,20.15,15.78,33.1,35.24,33.1v-36" fill="none" stroke="#003a50" stroke-miterlimit="10"/></g><rect x="395.93" y="35.94" width="166.69" height="4.55" fill="#fff"/><rect x="395.93" y="35.94" width="166.69" height="4.55" fill="none" stroke="#003a50" stroke-miterlimit="10"/><line x1="562.62" y1="38.22" x2="395.93" y2="38.22" fill="none" stroke="#003a50" stroke-miterlimit="10"/><rect x="517.35" y="35.94" width="4.48" height="4.55" fill="#fff"/><rect x="517.35" y="35.94" width="4.48" height="4.55" fill="none" stroke="#003a50" stroke-miterlimit="10"/><rect x="476.6" y="35.94" width="4.48" height="4.55" fill="#fff"/><rect x="476.6" y="35.94" width="4.48" height="4.55" fill="none" stroke="#003a50" stroke-miterlimit="10"/><rect x="395.93" y="35.94" width="4.48" height="4.55" fill="#fff"/><rect x="395.93" y="35.94" width="4.48" height="4.55" fill="none" stroke="#003a50" stroke-miterlimit="10"/><rect x="435.84" y="35.94" width="4.48" height="4.55" fill="#fff"/><rect x="435.84" y="35.94" width="4.48" height="4.55" fill="none" stroke="#003a50" stroke-miterlimit="10"/><g clip-path="url(#clip-path)"><path d="M435.84,40.49v2.9c0,20.15-15.86,33.11-35.43,33.11v-36" fill="none" stroke="#003a50" stroke-miterlimit="10"/></g><rect x="558.07" y="35.98" width="4.55" height="157.94" fill="#fff"/><rect x="558.07" y="35.98" width="4.55" height="157.94" fill="none" stroke="#003a50" stroke-miterlimit="10"/><line x1="560.34" y1="35.98" x2="560.34" y2="193.92" fill="none" stroke="#003a50" stroke-miterlimit="10"/><rect x="558.07" y="73.83" width="4.55" height="4.48" fill="#fff"/><rect x="558.07" y="73.82" width="4.55" height="4.48" fill="none" stroke="#003a50" stroke-miterlimit="10"/><rect x="558.07" y="111.68" width="4.55" height="4.48" fill="#fff"/><rect x="558.07" y="111.68" width="4.55" height="4.48" fill="none" stroke="#003a50" stroke-miterlimit="10"/><rect x="558.07" y="35.98" width="4.55" height="4.48" fill="#fff"/><rect x="558.07" y="35.98" width="4.55" height="4.48" fill="none" stroke="#003a50" stroke-miterlimit="10"/><rect x="558.07" y="189.44" width="4.55" height="4.48" fill="#fff"/><rect x="558.07" y="189.44" width="4.55" height="4.48" fill="none" stroke="#003a50" stroke-miterlimit="10"/><rect x="558.07" y="149.53" width="4.55" height="4.48" fill="#fff"/><rect x="558.07" y="149.53" width="4.55" height="4.48" fill="none" stroke="#003a50" stroke-miterlimit="10"/><g clip-path="url(#clip-path)"><path d="M558.07,154h-2.9c-20.15,0-33.11,15.86-33.11,35.43h36" fill="none" stroke="#003a50" stroke-miterlimit="10"/></g><rect x="558.14" y="286.94" width="4.48" height="75.84" fill="#fff"/><rect x="558.14" y="286.94" width="4.48" height="75.84" fill="none" stroke="#003a50" stroke-miterlimit="10"/><line x1="560.38" y1="362.78" x2="560.38" y2="286.94" fill="none" stroke="#003a50" stroke-miterlimit="10"/><rect x="558.14" y="358.23" width="4.48" height="4.56" fill="#fff"/><rect x="558.14" y="358.22" width="4.48" height="4.56" fill="none" stroke="#003a50" stroke-miterlimit="10"/><rect x="558.14" y="286.94" width="4.48" height="4.55" fill="#fff"/><rect x="558.14" y="286.94" width="4.48" height="4.55" fill="none" stroke="#003a50" stroke-miterlimit="10"/><rect x="558.14" y="327.49" width="4.48" height="4.55" fill="#fff"/><rect x="558.14" y="327.49" width="4.48" height="4.55" fill="none" stroke="#003a50" stroke-miterlimit="10"/><g clip-path="url(#clip-path)"><path d="M558.14,327.49h-2.85c-19.83,0-32.58-16.12-32.58-36h35.43" fill="none" stroke="#003a50" stroke-miterlimit="10"/></g><rect x="558.07" y="562.01" width="4.56" height="86.28" fill="#fff"/><rect x="558.07" y="562.01" width="4.56" height="86.28" fill="none" stroke="#003a50" stroke-miterlimit="10"/><line x1="560.34" y1="562.01" x2="560.34" y2="648.29" fill="none" stroke="#003a50" stroke-miterlimit="10"/><rect x="558.07" y="562.01" width="4.56" height="4.36" fill="#fff"/><rect x="558.07" y="562.01" width="4.56" height="4.36" fill="none" stroke="#003a50" stroke-miterlimit="10"/><rect x="558.07" y="643.93" width="4.56" height="4.36" fill="#fff"/><rect x="558.07" y="643.93" width="4.56" height="4.36" fill="none" stroke="#003a50" stroke-miterlimit="10"/><rect x="558.07" y="605.13" width="4.56" height="4.36" fill="#fff"/><rect x="558.07" y="605.13" width="4.56" height="4.36" fill="none" stroke="#003a50" stroke-miterlimit="10"/><g clip-path="url(#clip-path)"><path d="M558.07,609.49h-2.9c-20.15,0-33.1,15.42-33.1,34.44h36" fill="none" stroke="#003a50" stroke-miterlimit="10"/></g><rect x="558.07" y="388.41" width="4.56" height="79.66" fill="#fff"/><rect x="558.07" y="388.41" width="4.56" height="79.66" fill="none" stroke="#003a50" stroke-miterlimit="10"/><line x1="560.34" y1="468.06" x2="560.34" y2="388.41" fill="none" stroke="#003a50" stroke-miterlimit="10"/><rect x="558.07" y="464.05" width="4.56" height="4.02" fill="#fff"/><rect x="558.07" y="464.04" width="4.56" height="4.02" fill="none" stroke="#003a50" stroke-miterlimit="10"/><rect x="558.07" y="388.41" width="4.56" height="4.02" fill="#fff"/><rect x="558.07" y="388.41" width="4.56" height="4.02" fill="none" stroke="#003a50" stroke-miterlimit="10"/><rect x="558.07" y="424.23" width="4.56" height="4.02" fill="#fff"/><rect x="558.07" y="424.23" width="4.56" height="4.02" fill="none" stroke="#003a50" stroke-miterlimit="10"/><g clip-path="url(#clip-path)"><path d="M558.07,424.23h-2.9c-20.15,0-33.1-14.24-33.1-31.8h36" fill="none" stroke="#003a50" stroke-miterlimit="10"/></g><rect x="408.13" y="653.36" width="102.05" height="16.75" fill="none" stroke="#003a50" stroke-miterlimit="10"/><polygon points="502.16 661.2 459.26 664.68 416.16 661.2 416.16 658.78 502.16 658.78 502.16 661.2" fill="none" stroke="#003a50" stroke-miterlimit="10"/><rect x="309.14" y="57.83" width="52.33" height="113.67" fill="none" stroke="#003a50" stroke-miterlimit="10"/><g clip-path="url(#clip-path)"><path d="M318.08,161.8h34a2.11,2.11,0,0,0,2.1-2.11V92.07H316v67.62A2.11,2.11,0,0,0,318.08,161.8Z" fill="none" stroke="#003a50" stroke-miterlimit="10"/></g><rect x="315.97" y="92.07" width="38.26" height="13.85" fill="none" stroke="#003a50" stroke-miterlimit="10"/><g clip-path="url(#clip-path)"><path d="M317.78,65.58h34.3a2.2,2.2,0,0,1,2.2,2.2V86.25a2.2,2.2,0,0,1-2.2,2.21h-34.3a2.21,2.21,0,0,1-2.21-2.21V67.78A2.21,2.21,0,0,1,317.78,65.58Z" fill="none" stroke="#003a50" stroke-miterlimit="10"/><rect x="266.44" y="686.42" width="34.83" height="30.54" fill="none" stroke="#003a50" stroke-miterlimit="10"/><path d="M450.86,342a1.27,1.27,0,0,1-1.21,1.31,13.79,13.79,0,0,0,1.07,27.55,1.26,1.26,0,0,1,.1,2.51,16.3,16.3,0,0,1-1.27-32.58A1.28,1.28,0,0,1,450.86,342Z" fill="none" stroke="#003a50" stroke-miterlimit="10"/><path d="M457.8,379.51a1.25,1.25,0,0,1,.87,1.55,13.78,13.78,0,0,0,26.53,7.5,1.26,1.26,0,0,1,2.42.68,16.3,16.3,0,1,1-31.37-8.86A1.25,1.25,0,0,1,457.8,379.51Z" fill="none" stroke="#003a50" stroke-miterlimit="10"/><path d="M495.58,383.87a1.25,1.25,0,0,1,1.74-.35,13.78,13.78,0,1,0,15.33-22.91,1.26,1.26,0,1,1,1.4-2.09,16.3,16.3,0,1,1-18.13,27.1A1.26,1.26,0,0,1,495.58,383.87Z" fill="none" stroke="#003a50" stroke-miterlimit="10"/><path d="M512.76,349.3a1.26,1.26,0,0,1,.21-1.77,13.78,13.78,0,1,0-17.06-21.65,1.26,1.26,0,1,1-1.56-2,16.3,16.3,0,0,1,20.18,25.61A1.26,1.26,0,0,1,512.76,349.3Z" fill="none" stroke="#003a50" stroke-miterlimit="10"/><path d="M483.93,325.25a1.27,1.27,0,0,1-.85-1.56,13.79,13.79,0,1,0-26.46-7.75,1.26,1.26,0,0,1-2.41-.71,16.3,16.3,0,1,1,31.28,9.16A1.26,1.26,0,0,1,483.93,325.25Z" fill="none" stroke="#003a50" stroke-miterlimit="10"/><path d="M460.69,369.27l-9.36.36a12.65,12.65,0,1,1-1-25.28l9-.32a23.7,23.7,0,0,0,1.28,25.24Z" fill="none" stroke="#003a50" stroke-miterlimit="10"/><path d="M486.85,378.51l-2.56,9.08a12.65,12.65,0,0,1-24.36-6.84l2.6-9.2a23.6,23.6,0,0,0,24.32,7Z" fill="none" stroke="#003a50" stroke-miterlimit="10"/><path d="M514.93,378.71a12.67,12.67,0,0,1-17.52,3.52l-7.28-4.88a23.88,23.88,0,0,0,13.12-15.24,24.8,24.8,0,0,0,.84-5.84l7.36,4.92A12.63,12.63,0,0,1,514.93,378.71Z" fill="none" stroke="#003a50" stroke-miterlimit="10"/><path d="M511.73,347.07,504,353.15a23.88,23.88,0,0,0-15.56-20l7.64-6a12.65,12.65,0,1,1,15.64,19.88Z" fill="none" stroke="#003a50" stroke-miterlimit="10"/><path d="M481.81,324l-2.28,7.76a23.58,23.58,0,0,0-9.08,2.12l-15.28-4.48a1.21,1.21,0,0,1-.84-1.52l3.08-10.64a12.87,12.87,0,0,1,13.2-9.4A12.67,12.67,0,0,1,481.81,324Z" fill="none" stroke="#003a50" stroke-miterlimit="10"/><path d="M504.09,356.27a24.8,24.8,0,0,1-.84,5.84,23.88,23.88,0,0,1-13.12,15.24,24.6,24.6,0,0,1-3.28,1.16,23.6,23.6,0,0,1-24.32-7,25.46,25.46,0,0,1-1.84-2.28A23.7,23.7,0,0,1,459.41,344a24,24,0,0,1,11-10.16,23.84,23.84,0,0,1,16.32-1.24c.56.16,1.12.36,1.68.56a23.88,23.88,0,0,1,15.56,20A27.09,27.09,0,0,1,504.09,356.27Z" fill="none" stroke="#003a50" stroke-miterlimit="10"/><path d="M93.76,279.37V250.52h22.79v28.85a11.4,11.4,0,1,1-22.79,0Z" fill="none" stroke="#003a50" stroke-miterlimit="10"/></g><line x1="116.55" y1="261.75" x2="93.76" y2="261.75" fill="none" stroke="#003a50" stroke-miterlimit="10"/><rect x="120.66" y="527.06" width="92.51" height="38.47" fill="none" stroke="#003a50" stroke-miterlimit="10"/><g clip-path="url(#clip-path)"><path d="M139.2,560.76h55.44a14.47,14.47,0,1,0,0-28.93H139.2a14.47,14.47,0,1,0,0,28.93Z" fill="none" stroke="#003a50" stroke-miterlimit="10"/><circle cx="139.41" cy="546.3" r="2.06" fill="none" stroke="#003a50" stroke-miterlimit="10"/><path d="M165,641.26v28.85h22.79V641.26a11.4,11.4,0,0,0-22.79,0Z" fill="none" stroke="#003a50" stroke-miterlimit="10"/></g><line x1="187.77" y1="658.89" x2="164.98" y2="658.89" fill="none" stroke="#003a50" stroke-miterlimit="10"/><rect x="120.34" y="489.29" width="32.31" height="31.64" fill="none" stroke="#003a50" stroke-miterlimit="10"/><g clip-path="url(#clip-path)"><path d="M141.19,497.76h-1.87a2.71,2.71,0,0,1-5.06,0h-2.47l-4.68,2.69,2.24,3.52,2.11-1.12v9.62h10.07v-9.62l2.1,1.12,2.24-3.52Z" fill="none" stroke="#003a50" stroke-miterlimit="10"/></g><rect x="84.94" y="571.63" width="29.35" height="65.14" fill="none" stroke="#003a50" stroke-miterlimit="10"/><g clip-path="url(#clip-path)"><path d="M106.74,603.38h-23A3.36,3.36,0,0,1,80.38,600V577.78a3.37,3.37,0,0,1,3.36-3.36h23a3.36,3.36,0,0,1,3.35,3.36V600A3.35,3.35,0,0,1,106.74,603.38Z" fill="none" stroke="#003a50" stroke-miterlimit="10"/><circle cx="95.24" cy="588.9" r="2.27" fill="none" stroke="#003a50" stroke-miterlimit="10"/><path d="M106.74,633.9h-23a3.36,3.36,0,0,1-3.36-3.35V608.3a3.37,3.37,0,0,1,3.36-3.36h23a3.36,3.36,0,0,1,3.35,3.36v22.25A3.35,3.35,0,0,1,106.74,633.9Z" fill="none" stroke="#003a50" stroke-miterlimit="10"/><circle cx="95.24" cy="619.42" r="2.27" fill="none" stroke="#003a50" stroke-miterlimit="10"/></g><rect x="42.37" y="255.12" width="43.38" height="99.9" fill="none" stroke="#003a50" stroke-miterlimit="10"/><g clip-path="url(#clip-path)"><path d="M47.74,275.76v58.62A16.26,16.26,0,0,0,64,350.64h.12a16.26,16.26,0,0,0,16.26-16.26V275.76A16.26,16.26,0,0,0,64.12,259.5H64A16.26,16.26,0,0,0,47.74,275.76Z" fill="none" stroke="#003a50" stroke-miterlimit="10"/><path d="M64.06,277.72a2.35,2.35,0,1,0-2.35-2.35A2.35,2.35,0,0,0,64.06,277.72Z" fill="none" stroke="#003a50" stroke-miterlimit="10"/></g><rect x="85.94" y="334.11" width="39.36" height="27.58" fill="none" stroke="#003a50" stroke-miterlimit="10"/><g clip-path="url(#clip-path)"><rect x="91.14" y="336.53" width="28.96" height="29.71" rx="3.36" fill="none" stroke="#003a50" stroke-miterlimit="10"/><circle cx="105.62" cy="351.39" r="2.27" fill="none" stroke="#003a50" stroke-miterlimit="10"/></g><rect x="320.66" y="449.99" width="194.2" height="32.22" fill="none" stroke="#003a50" stroke-miterlimit="10"/><rect x="399.21" y="450" width="31.64" height="32.22" fill="none" stroke="#003a50" stroke-miterlimit="10"/><line x1="424.31" y1="466.1" x2="405.74" y2="466.1" fill="none" stroke="#003a50" stroke-miterlimit="10"/><line x1="415.03" y1="456.65" x2="415.03" y2="475.56" fill="none" stroke="#003a50" stroke-miterlimit="10"/><line x1="421.59" y1="459.42" x2="408.46" y2="472.78" fill="none" stroke="#003a50" stroke-miterlimit="10"/><line x1="408.46" y1="459.42" x2="421.59" y2="472.78" fill="none" stroke="#003a50" stroke-miterlimit="10"/><rect x="247.68" y="214.21" width="113.38" height="34.02" fill="none" stroke="#003a50" stroke-miterlimit="10"/><g clip-path="url(#clip-path)"><path d="M343.25,243.41a1,1,0,0,1-1.91.44,28.77,28.77,0,0,1,0-25.26,1,1,0,0,1,1.34-.45,1,1,0,0,1,.46,1.34,26.81,26.81,0,0,0,0,23.49A.87.87,0,0,1,343.25,243.41Z" fill="none" stroke="#003a50" stroke-miterlimit="10"/><path d="M337.68,243.41a1,1,0,0,1-.56.9,1,1,0,0,1-1.34-.46,28.77,28.77,0,0,1,0-25.26,1,1,0,0,1,1.8.89,26.72,26.72,0,0,0,0,23.49A1,1,0,0,1,337.68,243.41Z" fill="none" stroke="#003a50" stroke-miterlimit="10"/><path d="M332.12,243.41a1,1,0,0,1-1.91.44,28.77,28.77,0,0,1,0-25.26,1,1,0,0,1,1.34-.45,1,1,0,0,1,.46,1.34A26.81,26.81,0,0,0,332,243,.87.87,0,0,1,332.12,243.41Z" fill="none" stroke="#003a50" stroke-miterlimit="10"/><path d="M326.55,243.41a1,1,0,0,1-.56.9,1,1,0,0,1-1.34-.46,28.77,28.77,0,0,1,0-25.26,1,1,0,0,1,1.8.89,26.72,26.72,0,0,0,0,23.49A1,1,0,0,1,326.55,243.41Z" fill="none" stroke="#003a50" stroke-miterlimit="10"/><path d="M321,243.41a1,1,0,0,1-1.91.44,28.77,28.77,0,0,1,0-25.26,1,1,0,0,1,1.34-.45,1,1,0,0,1,.46,1.34,26.81,26.81,0,0,0,0,23.49A.87.87,0,0,1,321,243.41Z" fill="none" stroke="#003a50" stroke-miterlimit="10"/><path d="M315.42,243.41a1,1,0,0,1-1.9.44,28.77,28.77,0,0,1,0-25.26,1,1,0,0,1,1.8.89,26.72,26.72,0,0,0,0,23.49A1,1,0,0,1,315.42,243.41Z" fill="none" stroke="#003a50" stroke-miterlimit="10"/><path d="M348.81,243.41a1,1,0,0,1-.56.9,1,1,0,0,1-1.34-.46,28.77,28.77,0,0,1,0-25.26,1,1,0,0,1,1.8.89,26.72,26.72,0,0,0,0,23.49A1,1,0,0,1,348.81,243.41Z" fill="none" stroke="#003a50" stroke-miterlimit="10"/><path d="M354.38,243.41a1,1,0,0,1-1.9.44,28.77,28.77,0,0,1,0-25.26,1,1,0,0,1,1.8.89,26.72,26.72,0,0,0,0,23.49A1,1,0,0,1,354.38,243.41Z" fill="none" stroke="#003a50" stroke-miterlimit="10"/></g><line x1="360.37" y1="231.22" x2="247.67" y2="231.22" fill="none" stroke="#003a50" stroke-miterlimit="10"/><rect x="239.61" y="253.41" width="28.93" height="101.7" fill="none" stroke="#003a50" stroke-miterlimit="10"/><g clip-path="url(#clip-path)"><path d="M242.87,338.75a.92.92,0,0,1-.41-1.75,26.49,26.49,0,0,1,23.22,0,.92.92,0,0,1,.41,1.23.9.9,0,0,1-1.22.42,24.67,24.67,0,0,0-21.6,0A.79.79,0,0,1,242.87,338.75Z" fill="none" stroke="#003a50" stroke-miterlimit="10"/><path d="M242.87,333.63a.92.92,0,0,1-.41-1.74,26.4,26.4,0,0,1,23.22,0,.92.92,0,0,1-.81,1.65,24.58,24.58,0,0,0-21.6,0A.78.78,0,0,1,242.87,333.63Z" fill="none" stroke="#003a50" stroke-miterlimit="10"/><path d="M242.87,328.52a.92.92,0,0,1-.41-1.75,26.49,26.49,0,0,1,23.22,0,.92.92,0,0,1,.41,1.23.9.9,0,0,1-1.22.42,24.67,24.67,0,0,0-21.6,0A.79.79,0,0,1,242.87,328.52Z" fill="none" stroke="#003a50" stroke-miterlimit="10"/><path d="M242.87,323.4a.92.92,0,0,1-.41-1.74,26.4,26.4,0,0,1,23.22,0,.92.92,0,0,1-.81,1.65,24.58,24.58,0,0,0-21.6,0A.78.78,0,0,1,242.87,323.4Z" fill="none" stroke="#003a50" stroke-miterlimit="10"/><path d="M242.87,318.29a.92.92,0,0,1-.41-1.75,26.49,26.49,0,0,1,23.22,0,.92.92,0,0,1,.41,1.23.9.9,0,0,1-1.22.42,24.67,24.67,0,0,0-21.6,0A.79.79,0,0,1,242.87,318.29Z" fill="none" stroke="#003a50" stroke-miterlimit="10"/><path d="M242.87,313.18a.94.94,0,0,1-.83-.52.92.92,0,0,1,.42-1.23,26.4,26.4,0,0,1,23.22,0,.92.92,0,0,1-.81,1.65,24.58,24.58,0,0,0-21.6,0A.79.79,0,0,1,242.87,313.18Z" fill="none" stroke="#003a50" stroke-miterlimit="10"/><path d="M242.87,343.86a.92.92,0,0,1-.41-1.74,26.4,26.4,0,0,1,23.22,0,.92.92,0,0,1-.81,1.65,24.58,24.58,0,0,0-21.6,0A.78.78,0,0,1,242.87,343.86Z" fill="none" stroke="#003a50" stroke-miterlimit="10"/><path d="M242.87,349a.92.92,0,0,1-.41-1.75,26.49,26.49,0,0,1,23.22,0,.92.92,0,0,1,.41,1.23.9.9,0,0,1-1.22.42,24.67,24.67,0,0,0-21.6,0A.79.79,0,0,1,242.87,349Z" fill="none" stroke="#003a50" stroke-miterlimit="10"/></g><line x1="254.07" y1="355.12" x2="254.07" y2="280.3" fill="none" stroke="#003a50" stroke-miterlimit="10"/><rect x="186.61" y="355.12" width="81.53" height="24.26" fill="none" stroke="#003a50" stroke-miterlimit="10"/><g clip-path="url(#clip-path)"><path d="M203.15,357.85a.75.75,0,0,1,.44-.69.77.77,0,0,1,1,.35,22.19,22.19,0,0,1,0,19.47.77.77,0,0,1-1.39-.68,20.57,20.57,0,0,0,0-18.11A.81.81,0,0,1,203.15,357.85Z" fill="none" stroke="#003a50" stroke-miterlimit="10"/><path d="M207.44,357.85a.76.76,0,0,1,.43-.69.78.78,0,0,1,1,.35,22.19,22.19,0,0,1,0,19.47.77.77,0,0,1-1.39-.68,20.66,20.66,0,0,0,0-18.11A.81.81,0,0,1,207.44,357.85Z" fill="none" stroke="#003a50" stroke-miterlimit="10"/><path d="M211.73,357.85a.76.76,0,0,1,.43-.69.78.78,0,0,1,1,.35,22.19,22.19,0,0,1,0,19.47.77.77,0,0,1-1.39-.68,20.66,20.66,0,0,0,0-18.11A.81.81,0,0,1,211.73,357.85Z" fill="none" stroke="#003a50" stroke-miterlimit="10"/><path d="M216,357.85a.76.76,0,0,1,.43-.69.78.78,0,0,1,1,.35,22.19,22.19,0,0,1,0,19.47.77.77,0,0,1-1.39-.68,20.66,20.66,0,0,0,0-18.11A.68.68,0,0,1,216,357.85Z" fill="none" stroke="#003a50" stroke-miterlimit="10"/><path d="M220.31,357.85a.76.76,0,0,1,.43-.69.78.78,0,0,1,1,.35,22.27,22.27,0,0,1,0,19.47.78.78,0,0,1-1,.35.77.77,0,0,1-.35-1,20.66,20.66,0,0,0,0-18.11A.68.68,0,0,1,220.31,357.85Z" fill="none" stroke="#003a50" stroke-miterlimit="10"/><path d="M224.6,357.85a.76.76,0,0,1,.43-.69.78.78,0,0,1,1,.35,22.27,22.27,0,0,1,0,19.47.78.78,0,0,1-1,.35.77.77,0,0,1-.35-1,20.66,20.66,0,0,0,0-18.11A.68.68,0,0,1,224.6,357.85Z" fill="none" stroke="#003a50" stroke-miterlimit="10"/><path d="M198.87,357.85a.77.77,0,0,1,1.46-.34,22.19,22.19,0,0,1,0,19.47.77.77,0,0,1-1.38-.68,20.66,20.66,0,0,0,0-18.11A.68.68,0,0,1,198.87,357.85Z" fill="none" stroke="#003a50" stroke-miterlimit="10"/><path d="M194.58,357.85a.77.77,0,0,1,1.46-.34A22.19,22.19,0,0,1,196,377a.77.77,0,1,1-1.38-.68,20.66,20.66,0,0,0,0-18.11A.68.68,0,0,1,194.58,357.85Z" fill="none" stroke="#003a50" stroke-miterlimit="10"/></g><line x1="186.74" y1="367.24" x2="268" y2="367.24" fill="none" stroke="#003a50" stroke-miterlimit="10"/><g clip-path="url(#clip-path)"><path d="M438.79,144.91h41v45.77H436.58V147.12A2.21,2.21,0,0,1,438.79,144.91Z" fill="none" stroke="#003a50" stroke-miterlimit="10"/><path d="M438.57,99h41.26v45.77H438.57a2,2,0,0,1-2-2V101A2,2,0,0,1,438.57,99Z" fill="none" stroke="#003a50" stroke-miterlimit="10"/><path d="M436.58,190.68a3.11,3.11,0,0,0-2.83,3.32v4.23a3.11,3.11,0,0,0,2.83,3.32h48.2V88.17H437a3.1,3.1,0,0,0-2.83,3.32v4.22A3.11,3.11,0,0,0,437,99h42.82v91.64Z" fill="none" stroke="#003a50" stroke-miterlimit="10"/></g><rect x="470.58" y="99.04" width="9.25" height="91.64" fill="none" stroke="#003a50" stroke-miterlimit="10"/><rect x="367.91" y="94.04" width="17.01" height="101.63" fill="none" stroke="#003a50" stroke-miterlimit="10"/><polygon points="376.95 187.86 379.41 187.86 379.41 101.86 376.95 101.86 373.42 144.86 376.95 187.86" fill="none" stroke="#003a50" stroke-miterlimit="10"/><g clip-path="url(#clip-path)"><path d="M358.18,542.84a14.77,14.77,0,0,0,15.92-23.38,1.13,1.13,0,0,0-1.6-.18,1.14,1.14,0,0,0-.17,1.61,12.47,12.47,0,0,1-14.15,19.5Z" fill="none" stroke="#003a50" stroke-miterlimit="10"/><rect x="324.16" y="488.59" width="34.02" height="84.03" rx="3.31" fill="none" stroke="#003a50" stroke-miterlimit="10"/><path d="M327.87,570.07a1.4,1.4,0,0,0,1.4-1.4V492.53a1.4,1.4,0,0,0-2.8,0v76.14a1.4,1.4,0,0,0,1.4,1.4" fill="none" stroke="#003a50" stroke-miterlimit="10"/><path d="M342.45,502.26a5.51,5.51,0,1,1,0-7.79A5.51,5.51,0,0,1,342.45,502.26Z" fill="none" stroke="#003a50" stroke-miterlimit="10"/><path d="M342.82,501.85c-1-.1-2,.29-3-.7-1.46-1.46.08-3-1.38-4.47s-3,.08-4.47-1.38" fill="none" stroke="#003a50" stroke-miterlimit="10"/><path d="M358.18,538.13a10.63,10.63,0,1,0,0-19.59Z" fill="none" stroke="#003a50" stroke-miterlimit="10"/><path d="M226.23,139.22a14.78,14.78,0,0,0,15.92-23.39,1.14,1.14,0,1,0-1.77,1.43,12.47,12.47,0,0,1-14.15,19.5Z" fill="none" stroke="#003a50" stroke-miterlimit="10"/><rect x="192.21" y="84.96" width="34.02" height="84.03" rx="3.31" fill="none" stroke="#003a50" stroke-miterlimit="10"/><path d="M195.92,166.44a1.4,1.4,0,0,0,1.4-1.39V88.9a1.4,1.4,0,0,0-2.79,0v76.15a1.39,1.39,0,0,0,1.39,1.39" fill="none" stroke="#003a50" stroke-miterlimit="10"/><path d="M210.5,98.64a5.51,5.51,0,1,1,0-7.79A5.51,5.51,0,0,1,210.5,98.64Z" fill="none" stroke="#003a50" stroke-miterlimit="10"/><path d="M210.87,98.22c-1-.1-2,.29-3-.7-1.46-1.46.08-3-1.38-4.47s-3,.09-4.47-1.38" fill="none" stroke="#003a50" stroke-miterlimit="10"/><path d="M226.23,134.51a10.63,10.63,0,1,0,0-19.59Z" fill="none" stroke="#003a50" stroke-miterlimit="10"/></g><rect x="16.62" y="91.5" width="52.33" height="113.67" fill="none" stroke="#003a50" stroke-miterlimit="10"/><g clip-path="url(#clip-path)"><path d="M60,195.46H26a2.1,2.1,0,0,1-2.1-2.1V125.73H62.12v67.63A2.1,2.1,0,0,1,60,195.46Z" fill="none" stroke="#003a50" stroke-miterlimit="10"/></g><rect x="23.87" y="125.74" width="38.26" height="13.85" fill="none" stroke="#003a50" stroke-miterlimit="10"/><g clip-path="url(#clip-path)"><path d="M60.31,99.24H26a2.2,2.2,0,0,0-2.2,2.21v18.47a2.2,2.2,0,0,0,2.2,2.2h34.3a2.21,2.21,0,0,0,2.21-2.2V101.45A2.21,2.21,0,0,0,60.31,99.24Z" fill="none" stroke="#003a50" stroke-miterlimit="10"/></g><rect x="15.43" y="214.21" width="113.38" height="34.02" fill="none" stroke="#003a50" stroke-miterlimit="10"/><g clip-path="url(#clip-path)"><path d="M33.24,243.41a1,1,0,0,0,1.91.44,28.86,28.86,0,0,0,0-25.26,1,1,0,0,0-1.81.89,26.72,26.72,0,0,1,0,23.49A1,1,0,0,0,33.24,243.41Z" fill="none" stroke="#003a50" stroke-miterlimit="10"/><path d="M38.81,243.41a1,1,0,0,0,.56.9,1,1,0,0,0,1.34-.46,28.77,28.77,0,0,0,0-25.26,1,1,0,0,0-1.8.89,26.72,26.72,0,0,1,0,23.49A1,1,0,0,0,38.81,243.41Z" fill="none" stroke="#003a50" stroke-miterlimit="10"/><path d="M44.37,243.41a1,1,0,0,0,1.91.44,28.77,28.77,0,0,0,0-25.26,1,1,0,0,0-1.34-.45,1,1,0,0,0-.46,1.34,26.81,26.81,0,0,1,0,23.49A.87.87,0,0,0,44.37,243.41Z" fill="none" stroke="#003a50" stroke-miterlimit="10"/><path d="M49.94,243.41a1,1,0,0,0,.56.9,1,1,0,0,0,1.34-.46,28.77,28.77,0,0,0,0-25.26,1,1,0,0,0-1.8.89A26.72,26.72,0,0,1,50,243,1,1,0,0,0,49.94,243.41Z" fill="none" stroke="#003a50" stroke-miterlimit="10"/><path d="M55.5,243.41a1,1,0,0,0,1.91.44,28.77,28.77,0,0,0,0-25.26,1,1,0,0,0-1.34-.45,1,1,0,0,0-.46,1.34,26.81,26.81,0,0,1,0,23.49A.87.87,0,0,0,55.5,243.41Z" fill="none" stroke="#003a50" stroke-miterlimit="10"/><path d="M61.07,243.41a1,1,0,0,0,1.9.44,28.77,28.77,0,0,0,0-25.26,1,1,0,0,0-1.8.89,26.72,26.72,0,0,1,0,23.49A1,1,0,0,0,61.07,243.41Z" fill="none" stroke="#003a50" stroke-miterlimit="10"/><path d="M27.68,243.41a1,1,0,0,0,.56.9,1,1,0,0,0,1.34-.46,28.77,28.77,0,0,0,0-25.26,1,1,0,0,0-1.8.89,26.44,26.44,0,0,1,2.72,11.74A26.48,26.48,0,0,1,27.78,243,1,1,0,0,0,27.68,243.41Z" fill="none" stroke="#003a50" stroke-miterlimit="10"/><path d="M22.11,243.41a1,1,0,0,0,1.9.44,28.41,28.41,0,0,0,2.92-12.63A28.41,28.41,0,0,0,24,218.59a1,1,0,0,0-1.8.89,26.44,26.44,0,0,1,2.72,11.74A26.48,26.48,0,0,1,22.21,243,1,1,0,0,0,22.11,243.41Z" fill="none" stroke="#003a50" stroke-miterlimit="10"/></g><line x1="16.12" y1="231.22" x2="128.82" y2="231.22" fill="none" stroke="#003a50" stroke-miterlimit="10"/><g clip-path="url(#clip-path)"><path d="M150.26,139.22a14.78,14.78,0,0,1-15.92-23.39,1.14,1.14,0,1,1,1.77,1.43,12.47,12.47,0,0,0,14.15,19.5Z" fill="none" stroke="#003a50" stroke-miterlimit="10"/><rect x="150.26" y="84.96" width="34.02" height="84.03" rx="3.31" fill="none" stroke="#003a50" stroke-miterlimit="10"/><path d="M180.57,166.44a1.39,1.39,0,0,0,1.39-1.39V88.9a1.4,1.4,0,0,0-2.79,0v76.15a1.4,1.4,0,0,0,1.4,1.39" fill="none" stroke="#003a50" stroke-miterlimit="10"/><path d="M166,98.64a5.51,5.51,0,1,0,0-7.79A5.51,5.51,0,0,0,166,98.64Z" fill="none" stroke="#003a50" stroke-miterlimit="10"/><path d="M165.62,98.22c1-.1,2,.29,3-.7,1.46-1.46-.08-3,1.38-4.47s3,.09,4.47-1.38" fill="none" stroke="#003a50" stroke-miterlimit="10"/><path d="M150.26,134.51a10.63,10.63,0,1,1,0-19.59Z" fill="none" stroke="#003a50" stroke-miterlimit="10"/></g><rect x="514.87" y="488.58" width="22.68" height="22.68" fill="none" stroke="#003a50" stroke-miterlimit="10"/><g clip-path="url(#clip-path)"><circle cx="526.2" cy="499.92" r="9.2" fill="none" stroke="#003a50" stroke-miterlimit="10"/><path d="M533.33,494.11c-1.7.17-3.41-.48-5.06,1.17-2.44,2.44.14,5-2.3,7.46s-5-.14-7.46,2.3" fill="none" stroke="#003a50" stroke-miterlimit="10"/></g><rect x="380.77" y="488.58" width="22.68" height="22.68" fill="none" stroke="#003a50" stroke-miterlimit="10"/><g clip-path="url(#clip-path)"><circle cx="392.11" cy="499.92" r="9.2" fill="none" stroke="#003a50" stroke-miterlimit="10"/><path d="M399.23,494.11c-1.69.17-3.41-.48-5.06,1.17-2.44,2.44.14,5-2.3,7.46s-5-.14-7.46,2.3" fill="none" stroke="#003a50" stroke-miterlimit="10"/></g><rect x="408.25" y="488.58" width="102.05" height="113.39" fill="none" stroke="#003a50" stroke-miterlimit="10"/><g clip-path="url(#clip-path)"><path d="M418.24,592.23h82.05a2.09,2.09,0,0,0,2.09-2.08V522.51H416.16v67.64A2.08,2.08,0,0,0,418.24,592.23Z" fill="none" stroke="#003a50" stroke-miterlimit="10"/><rect x="460.13" y="496.02" width="42.5" height="22.88" rx="1.98" fill="none" stroke="#003a50" stroke-miterlimit="10"/><rect x="415.91" y="496.02" width="42.5" height="22.88" rx="1.98" fill="none" stroke="#003a50" stroke-miterlimit="10"/></g><line x1="415.91" y1="536.36" x2="502.63" y2="536.36" fill="none" stroke="#003a50" stroke-miterlimit="10"/><g clip-path="url(#clip-path)"><rect x="-22.98" y="68.23" width="22.68" height="22.68" fill="none" stroke="#003a50" stroke-miterlimit="10"/><rect x="-22.96" y="205.58" width="22.68" height="22.68" fill="none" stroke="#003a50" stroke-miterlimit="10"/><rect x="-113.69" y="96.71" width="113.38" height="102.05" fill="none" stroke="#003a50" stroke-miterlimit="10"/></g><rect x="286.71" y="456.21" width="30.76" height="125.1" fill="none" stroke="#003a50" stroke-miterlimit="10"/><g clip-path="url(#clip-path)"><path d="M290.18,564.4a1,1,0,0,1-.43-1.86,28.14,28.14,0,0,1,24.68,0,1,1,0,0,1-.86,1.76,26.19,26.19,0,0,0-23,0A.94.94,0,0,1,290.18,564.4Z" fill="none" stroke="#003a50" stroke-miterlimit="10"/><path d="M290.18,559a1,1,0,0,1-.43-1.86,28.14,28.14,0,0,1,24.68,0,1,1,0,0,1-.86,1.76,26.19,26.19,0,0,0-23,0A.94.94,0,0,1,290.18,559Z" fill="none" stroke="#003a50" stroke-miterlimit="10"/><path d="M290.18,553.52a1,1,0,0,1-.43-1.86,28.14,28.14,0,0,1,24.68,0,1,1,0,0,1-.86,1.76,26.19,26.19,0,0,0-23,0A.94.94,0,0,1,290.18,553.52Z" fill="none" stroke="#003a50" stroke-miterlimit="10"/><path d="M290.18,548.09a1,1,0,0,1-.88-.55,1,1,0,0,1,.45-1.31,28.05,28.05,0,0,1,24.68,0,1,1,0,0,1,.45,1.3,1,1,0,0,1-1.31.46,26.1,26.1,0,0,0-23,0A1.08,1.08,0,0,1,290.18,548.09Z" fill="none" stroke="#003a50" stroke-miterlimit="10"/><path d="M290.18,542.65a1,1,0,0,1-.88-.55,1,1,0,0,1,.45-1.31,28.05,28.05,0,0,1,24.68,0,1,1,0,0,1,.45,1.3,1,1,0,0,1-1.31.46,26.1,26.1,0,0,0-23,0A1.08,1.08,0,0,1,290.18,542.65Z" fill="none" stroke="#003a50" stroke-miterlimit="10"/><path d="M290.18,537.21a1,1,0,0,1-.88-.55,1,1,0,0,1,.45-1.31,28.05,28.05,0,0,1,24.68,0,1,1,0,0,1,.45,1.31,1,1,0,0,1-1.31.45,26.1,26.1,0,0,0-23,0A.94.94,0,0,1,290.18,537.21Z" fill="none" stroke="#003a50" stroke-miterlimit="10"/><path d="M290.18,569.84a1,1,0,0,1-.43-1.86,28.05,28.05,0,0,1,24.68,0,1,1,0,0,1-.86,1.76,26.1,26.1,0,0,0-23,0A.94.94,0,0,1,290.18,569.84Z" fill="none" stroke="#003a50" stroke-miterlimit="10"/><path d="M290.18,575.28a1,1,0,0,1-.43-1.86,28.05,28.05,0,0,1,24.68,0,1,1,0,0,1-.86,1.76,26.1,26.1,0,0,0-23,0A.94.94,0,0,1,290.18,575.28Z" fill="none" stroke="#003a50" stroke-miterlimit="10"/></g><line x1="302.09" y1="581.13" x2="302.09" y2="456.38" fill="none" stroke="#003a50" stroke-miterlimit="10"/><rect x="218.87" y="639.35" width="98.7" height="30.76" fill="none" stroke="#003a50" stroke-miterlimit="10"/><g clip-path="url(#clip-path)"><path d="M300.67,666.64a1,1,0,0,1-1.86.43,28.05,28.05,0,0,1,0-24.68,1,1,0,1,1,1.76.86,26.1,26.1,0,0,0,0,23A.94.94,0,0,1,300.67,666.64Z" fill="none" stroke="#003a50" stroke-miterlimit="10"/><path d="M295.23,666.64a1,1,0,0,1-1.86.43,28.05,28.05,0,0,1,0-24.68,1,1,0,1,1,1.76.86,26.1,26.1,0,0,0,0,23A.94.94,0,0,1,295.23,666.64Z" fill="none" stroke="#003a50" stroke-miterlimit="10"/><path d="M289.79,666.64a1,1,0,0,1-1.86.43,28.14,28.14,0,0,1,0-24.68,1,1,0,1,1,1.76.86,26.19,26.19,0,0,0,0,23A.94.94,0,0,1,289.79,666.64Z" fill="none" stroke="#003a50" stroke-miterlimit="10"/><path d="M284.35,666.64a1,1,0,0,1-1.86.43,28.14,28.14,0,0,1,0-24.68,1,1,0,1,1,1.76.86,26.19,26.19,0,0,0,0,23A.94.94,0,0,1,284.35,666.64Z" fill="none" stroke="#003a50" stroke-miterlimit="10"/><path d="M278.91,666.64a1,1,0,0,1-1.86.43,28.14,28.14,0,0,1,0-24.68,1,1,0,1,1,1.76.86,26.19,26.19,0,0,0,0,23A.94.94,0,0,1,278.91,666.64Z" fill="none" stroke="#003a50" stroke-miterlimit="10"/><path d="M273.48,666.64a1,1,0,0,1-.55.88,1,1,0,0,1-1.31-.45,28.05,28.05,0,0,1,0-24.68,1,1,0,0,1,1.3-.45,1,1,0,0,1,.46,1.31,26.1,26.1,0,0,0,0,23A1.08,1.08,0,0,1,273.48,666.64Z" fill="none" stroke="#003a50" stroke-miterlimit="10"/><path d="M306.11,666.64a1,1,0,0,1-.55.88,1,1,0,0,1-1.31-.45,28.05,28.05,0,0,1,0-24.68,1,1,0,0,1,1.31-.45,1,1,0,0,1,.45,1.31,26.1,26.1,0,0,0,0,23A.94.94,0,0,1,306.11,666.64Z" fill="none" stroke="#003a50" stroke-miterlimit="10"/><path d="M311.55,666.64a1,1,0,0,1-.55.88,1,1,0,0,1-1.31-.45,28.05,28.05,0,0,1,0-24.68,1,1,0,0,1,1.31-.45,1,1,0,0,1,.45,1.31,26.1,26.1,0,0,0,0,23A.94.94,0,0,1,311.55,666.64Z" fill="none" stroke="#003a50" stroke-miterlimit="10"/></g><line x1="317.4" y1="654.73" x2="242.15" y2="654.73" fill="none" stroke="#003a50" stroke-miterlimit="10"/><rect x="186.01" y="456.29" width="26.58" height="64.79" fill="none" stroke="#003a50" stroke-miterlimit="10"/><g clip-path="url(#clip-path)"><path d="M189,506.48a.85.85,0,0,1-.37-1.61,24.26,24.26,0,0,1,21.33,0,.84.84,0,0,1,.39,1.13.83.83,0,0,1-1.13.39,22.63,22.63,0,0,0-19.84,0A.85.85,0,0,1,189,506.48Z" fill="none" stroke="#003a50" stroke-miterlimit="10"/><path d="M189,501.78a.85.85,0,0,1-.37-1.61,24.26,24.26,0,0,1,21.33,0,.85.85,0,1,1-.74,1.52,22.63,22.63,0,0,0-19.84,0A.85.85,0,0,1,189,501.78Z" fill="none" stroke="#003a50" stroke-miterlimit="10"/><path d="M189,497.08a.85.85,0,0,1-.37-1.61,24.26,24.26,0,0,1,21.33,0,.85.85,0,1,1-.74,1.52,22.63,22.63,0,0,0-19.84,0A.85.85,0,0,1,189,497.08Z" fill="none" stroke="#003a50" stroke-miterlimit="10"/><path d="M189,492.38a.85.85,0,0,1-.37-1.61,24.26,24.26,0,0,1,21.33,0,.85.85,0,1,1-.74,1.52,22.63,22.63,0,0,0-19.84,0A.85.85,0,0,1,189,492.38Z" fill="none" stroke="#003a50" stroke-miterlimit="10"/><path d="M189,487.68a.85.85,0,0,1-.37-1.61,24.26,24.26,0,0,1,21.33,0,.85.85,0,1,1-.74,1.52,22.63,22.63,0,0,0-19.84,0A.85.85,0,0,1,189,487.68Z" fill="none" stroke="#003a50" stroke-miterlimit="10"/><path d="M189,483a.84.84,0,0,1-.37-1.6,24.26,24.26,0,0,1,21.33,0,.84.84,0,0,1,.39,1.13.85.85,0,0,1-1.13.39,22.54,22.54,0,0,0-19.84,0A.84.84,0,0,1,189,483Z" fill="none" stroke="#003a50" stroke-miterlimit="10"/><path d="M189,511.18a.87.87,0,0,1-.76-.47.86.86,0,0,1,.39-1.14,24.26,24.26,0,0,1,21.33,0,.85.85,0,1,1-.74,1.52,22.63,22.63,0,0,0-19.84,0A.85.85,0,0,1,189,511.18Z" fill="none" stroke="#003a50" stroke-miterlimit="10"/><path d="M189,515.88a.85.85,0,0,1-.37-1.61,24.26,24.26,0,0,1,21.33,0,.84.84,0,0,1,.39,1.13.83.83,0,0,1-1.13.39,22.63,22.63,0,0,0-19.84,0A.85.85,0,0,1,189,515.88Z" fill="none" stroke="#003a50" stroke-miterlimit="10"/></g><line x1="199.3" y1="520.93" x2="199.3" y2="456.45" fill="none" stroke="#003a50" stroke-miterlimit="10"/><rect x="85.54" y="451.47" width="49.86" height="31.33" fill="none" stroke="#003a50" stroke-miterlimit="10"/><g clip-path="url(#clip-path)"><path d="M103.56,477.36a.86.86,0,0,0,.46.76.85.85,0,0,0,1.13-.39,24.13,24.13,0,0,0,0-21.19.83.83,0,0,0-1.12-.38.84.84,0,0,0-.39,1.12,22.44,22.44,0,0,1,0,19.71A.83.83,0,0,0,103.56,477.36Z" fill="none" stroke="#003a50" stroke-miterlimit="10"/><path d="M108.23,477.36a.86.86,0,0,0,.46.76.85.85,0,0,0,1.13-.39,24.13,24.13,0,0,0,0-21.19.83.83,0,0,0-1.12-.38.84.84,0,0,0-.39,1.12,22.44,22.44,0,0,1,0,19.71A.83.83,0,0,0,108.23,477.36Z" fill="none" stroke="#003a50" stroke-miterlimit="10"/><path d="M112.9,477.36a.86.86,0,0,0,.46.76.85.85,0,0,0,1.13-.39,24.13,24.13,0,0,0,0-21.19.83.83,0,0,0-1.12-.38.84.84,0,0,0-.39,1.12A22.44,22.44,0,0,1,113,477,.83.83,0,0,0,112.9,477.36Z" fill="none" stroke="#003a50" stroke-miterlimit="10"/><path d="M117.57,477.36a.86.86,0,0,0,.46.76.85.85,0,0,0,1.13-.39,24.13,24.13,0,0,0,0-21.19.83.83,0,0,0-1.12-.38.84.84,0,0,0-.39,1.12,22.44,22.44,0,0,1,0,19.71A.83.83,0,0,0,117.57,477.36Z" fill="none" stroke="#003a50" stroke-miterlimit="10"/><path d="M122.24,477.36a.86.86,0,0,0,.46.76.85.85,0,0,0,1.13-.39,24.13,24.13,0,0,0,0-21.19.83.83,0,0,0-1.12-.38.84.84,0,0,0-.39,1.12,22.44,22.44,0,0,1,0,19.71A.83.83,0,0,0,122.24,477.36Z" fill="none" stroke="#003a50" stroke-miterlimit="10"/><path d="M126.9,477.36a.87.87,0,0,0,.47.76.85.85,0,0,0,1.13-.39,24.13,24.13,0,0,0,0-21.19.83.83,0,0,0-1.12-.38.84.84,0,0,0-.39,1.12A22.44,22.44,0,0,1,127,477,.84.84,0,0,0,126.9,477.36Z" fill="none" stroke="#003a50" stroke-miterlimit="10"/><path d="M98.89,477.36a.86.86,0,0,0,.46.76.85.85,0,0,0,1.13-.39,24.13,24.13,0,0,0,0-21.19.83.83,0,0,0-1.12-.38.84.84,0,0,0-.39,1.12A22.44,22.44,0,0,1,99,477,1,1,0,0,0,98.89,477.36Z" fill="none" stroke="#003a50" stroke-miterlimit="10"/><path d="M94.22,477.36a.85.85,0,0,0,.47.76.84.84,0,0,0,1.12-.39,24,24,0,0,0,0-21.19.84.84,0,1,0-1.5.74,22.44,22.44,0,0,1,0,19.71A.84.84,0,0,0,94.22,477.36Z" fill="none" stroke="#003a50" stroke-miterlimit="10"/></g><line x1="85.69" y1="467.14" x2="135.25" y2="467.14" fill="none" stroke="#003a50" stroke-miterlimit="10"/><rect x="284.45" y="253.66" width="34.02" height="131.32" fill="none" stroke="#003a50" stroke-miterlimit="10"/><rect x="318.46" y="253.65" width="49.18" height="33.36" fill="none" stroke="#003a50" stroke-miterlimit="10"/><rect x="284.45" y="287.02" width="34.02" height="34.02" fill="none" stroke="#003a50" stroke-miterlimit="10"/><line x1="301.46" y1="306.04" x2="301.46" y2="316.6" fill="none" stroke="#003a50" stroke-miterlimit="10"/><g clip-path="url(#clip-path)"><path d="M300.55,306h1.82a3.39,3.39,0,0,0,3.39-3.39v-11.2h-8.61v11.2A3.4,3.4,0,0,0,300.55,306Z" fill="none" stroke="#003a50" stroke-miterlimit="10"/></g><line x1="304.93" y1="316.6" x2="297.98" y2="316.6" fill="none" stroke="#003a50" stroke-miterlimit="10"/><rect x="284.45" y="335.3" width="34.02" height="34.02" fill="none" stroke="#003a50" stroke-miterlimit="10"/><g clip-path="url(#clip-path)"><path d="M289.05,359.9a4.69,4.69,0,1,0,4.69-4.7A4.69,4.69,0,0,0,289.05,359.9Z" fill="none" stroke="#003a50" stroke-miterlimit="10"/><path d="M304.49,359.9a4.69,4.69,0,1,0,4.69-4.7A4.69,4.69,0,0,0,304.49,359.9Z" fill="none" stroke="#003a50" stroke-miterlimit="10"/><path d="M289.05,344.73a4.69,4.69,0,1,0,4.69-4.7A4.69,4.69,0,0,0,289.05,344.73Z" fill="none" stroke="#003a50" stroke-miterlimit="10"/><path d="M304.48,344.73a4.69,4.69,0,1,0,4.7-4.7A4.69,4.69,0,0,0,304.48,344.73Z" fill="none" stroke="#003a50" stroke-miterlimit="10"/><rect x="328.02" y="261.35" width="30.06" height="21.66" rx="3.36" fill="none" stroke="#003a50" stroke-miterlimit="10"/><circle cx="343.05" cy="268.39" r="2.46" fill="none" stroke="#003a50" stroke-miterlimit="10"/></g><line x1="343.05" y1="269.15" x2="343.05" y2="255.53" fill="none" stroke="#003a50" stroke-miterlimit="10"/><line x1="336.24" y1="255.53" x2="349.86" y2="255.53" fill="none" stroke="#003a50" stroke-miterlimit="10"/><g clip-path="url(#clip-path)"><path d="M127.58,333.92h3.08a38.71,38.71,0,0,0,38.71-38.71H127.58" fill="none" stroke="#003a50" stroke-miterlimit="10" stroke-width="1.6"/><path d="M265,452.74v3.42a43,43,0,0,1-43,43V452.74" fill="none" stroke="#003a50" stroke-miterlimit="10" stroke-width="1.6"/><path d="M237.31,250.75v-3.42a43,43,0,0,0-43-43v46.4" fill="none" stroke="#003a50" stroke-miterlimit="10" stroke-width="1.6"/><path d="M134.28,250.75v-3.57a44.87,44.87,0,0,1,44.87-44.88v48.45" fill="none" stroke="#003a50" stroke-miterlimit="10" stroke-width="1.6"/><path d="M215.34,572.3h3.41a43,43,0,0,1,43,43H215.34" fill="none" stroke="#003a50" stroke-miterlimit="10" stroke-width="1.6"/><path d="M-43.51,432.23h3.89A48.89,48.89,0,0,0,9.27,383.34H-43.51" fill="none" stroke="#003a50" stroke-miterlimit="10" stroke-width="1.6"/><path d="M72.7,437.69H68.82a48.89,48.89,0,0,1-48.9-48.88H72.7" fill="none" stroke="#003a50" stroke-miterlimit="10" stroke-width="1.6"/><path d="M-45.8,712.53h4.06A51.13,51.13,0,0,0,9.39,661.41H-45.8" fill="none" stroke="#003a50" stroke-miterlimit="10" stroke-width="1.6"/><line x1="212.38" y1="445.99" x2="157.89" y2="445.99" fill="none" stroke="#003a50" stroke-miterlimit="10" stroke-width="1.6"/><rect x="186.37" y="3.82" width="26.7" height="47.83" fill="#003a50"/><rect x="117.4" y="17.65" width="91.66" height="34" fill="#003a50"/><rect x="4.02" y="3.82" width="26.7" height="47.83" fill="#003a50"/><rect x="-64.95" y="17.65" width="91.66" height="34" fill="#003a50"/><rect x="369.03" y="3.82" width="26.7" height="47.83" fill="#003a50"/><rect x="300.06" y="17.65" width="91.66" height="34" fill="#003a50"/><rect x="-54.82" y="30.48" width="77.33" height="27.33" fill="#003a50"/><rect x="311.42" y="30.48" width="77.33" height="27.33" fill="#003a50"/><rect x="317.47" y="474.8" width="80" height="13.79" fill="#003a50"/><rect x="-56.46" y="364.17" width="142" height="16.69" fill="#003a50"/><rect x="69.22" y="372.7" width="16.32" height="16.79" fill="#003a50"/><rect x="69.22" y="436.74" width="16.32" height="201.07" fill="#003a50"/><rect x="69.22" y="629.64" width="16.32" height="21.06" fill="#003a50"/><rect x="104.29" y="637.82" width="10.75" height="78.67" fill="#003a50"/><rect x="72.7" y="635.47" width="42.34" height="15.54" fill="#003a50"/><rect x="104.29" y="670.11" width="447.72" height="16.32" fill="#003a50"/><rect y="53.45" width="16.32" height="314.78" fill="#003a50"/><rect x="548.01" y="648.51" width="37.77" height="96.07" fill="#003a50"/><rect x="542.04" y="535.86" width="54.3" height="25.9" fill="#003a50"/><rect x="542.04" y="468.57" width="43.74" height="72.85" fill="#003a50"/><rect x="542.04" y="193.82" width="54.3" height="25.9" fill="#003a50"/><rect x="542.04" y="214.16" width="43.74" height="72.85" fill="#003a50"/><rect x="548.01" y="362.55" width="48.33" height="25.9" fill="#003a50"/><rect x="542.04" y="210.23" width="11.25" height="75.96" fill="#003a50"/><rect x="542.04" y="468.57" width="11.25" height="77.3" fill="#003a50"/><rect x="569.19" y="4.04" width="27.15" height="27.15" fill="#003a50"/><rect x="124.83" y="251.23" width="6.38" height="44.81" fill="#003a50"/><rect x="14.8" y="248.49" width="70.74" height="6.38" fill="#003a50"/><rect x="14.8" y="280.09" width="25.64" height="6.38" fill="#003a50"/><rect x="124.83" y="333.09" width="6.38" height="52.05" fill="#003a50"/><rect x="264.11" y="449.99" width="58.83" height="6.38" fill="#003a50"/><rect x="236.48" y="247.12" width="131.44" height="6.38" fill="#003a50"/><rect x="185.35" y="47.8" width="6.38" height="200.68" fill="#003a50"/><rect x="179.15" y="247.12" width="16.12" height="6.38" fill="#003a50"/><rect x="317.47" y="450" width="6.38" height="131.31" fill="#003a50"/><rect x="389.35" y="482.21" width="158.31" height="6.38" fill="#003a50"/><rect x="317.47" y="636.56" width="6.38" height="41.71" fill="#003a50"/><rect x="215.39" y="639.35" width="23.58" height="6.38" fill="#003a50"/><rect x="235.78" y="639.35" width="6.38" height="40.58" fill="#003a50"/><rect x="212.59" y="452.75" width="6.38" height="120.39" fill="#003a50"/><rect x="117.48" y="521.09" width="98.3" height="6.38" fill="#003a50"/><rect x="83.98" y="482.92" width="57.8" height="6.38" fill="#003a50"/><rect x="135.4" y="450" width="6.38" height="37.04" fill="#003a50"/><rect x="212.59" y="614.16" width="6.38" height="60.48" fill="#003a50"/><rect x="137.73" y="449.99" width="6.38" height="6.38" fill="#003a50"/><rect x="185.13" y="449.99" width="37.95" height="6.38" fill="#003a50"/><rect x="186.25" y="378.9" width="86.7" height="6.38" fill="#003a50"/><rect x="268.07" y="250.31" width="16.38" height="134.83" fill="#003a50"/><rect x="37.77" y="361.69" width="91.06" height="8.85" fill="#003a50"/><rect x="-3.56" y="248.49" width="138.46" height="6.38" fill="#003a50"/><rect x="361.54" y="53.05" width="6.38" height="200.44" fill="#003a50"/><rect x="35.33" y="251.89" width="6.38" height="118.66" fill="#003a50"/><rect x="-23.82" y="327.96" width="25.64" height="6.38" fill="#003a50"/><rect x="69.22" y="643.23" width="6.38" height="73.25" fill="#003a50"/><rect x="230.08" y="677.15" width="6.38" height="39.33" fill="#003a50"/><rect x="79.44" y="567.44" width="41.22" height="6.38" fill="#003a50"/><rect x="84.91" y="532.77" width="33.64" height="6.38" fill="#003a50"/><rect x="100.69" y="648.81" width="6.38" height="58.66" fill="#003a50"/><rect x="114.29" y="485.31" width="6.38" height="86.32" fill="#003a50"/><line x1="322.27" y1="568.05" x2="322.27" y2="570.89" fill="none" stroke="#003a50" stroke-miterlimit="10"/><line x1="322.27" y1="576.13" x2="322.27" y2="636.38" fill="none" stroke="#003a50" stroke-miterlimit="10" stroke-dasharray="5.24 5.24"/><line x1="322.27" y1="639" x2="322.27" y2="641.84" fill="none" stroke="#003a50" stroke-miterlimit="10"/><rect x="14.8" y="248.49" width="70.74" height="6.38" fill="#003a50"/><rect x="14.8" y="280.09" width="25.64" height="6.38" fill="#003a50"/><rect x="243.46" y="252.23" width="6.38" height="29.3" fill="#003a50"/><rect x="247.49" y="275.15" width="35.15" height="6.38" fill="#003a50"/><rect x="361.54" y="53.05" width="6.38" height="142.86" fill="#003a50"/><rect x="361.54" y="237.5" width="6.38" height="15.18" fill="#003a50"/><rect x="35.33" y="251.89" width="6.38" height="118.66" fill="#003a50"/><rect x="-23.82" y="327.96" width="25.64" height="6.38" fill="#003a50"/><rect x="69.22" y="643.23" width="6.38" height="73.25" fill="#003a50"/><rect x="230.08" y="677.15" width="6.38" height="39.33" fill="#003a50"/><rect x="84.91" y="532.77" width="33.64" height="6.38" fill="#003a50"/><rect x="100.69" y="648.81" width="6.38" height="58.66" fill="#003a50"/><rect x="114.29" y="483.6" width="6.38" height="90.22" fill="#003a50"/></g><g clip-path="url(#clip-path)"><path d="M229.45,30.79a4.53,4.53,0,0,1-1-3.12,4.57,4.57,0,0,1,1-3.12,4,4,0,0,1,5.73,0,4.57,4.57,0,0,1,1,3.12,4.53,4.53,0,0,1-1,3.12,4,4,0,0,1-5.73,0Zm4.6-1a3.5,3.5,0,0,0,.62-2.14,3.52,3.52,0,0,0-.62-2.14,2.21,2.21,0,0,0-3.47,0,3.5,3.5,0,0,0-.62,2.14,3.5,3.5,0,0,0,.62,2.14,2.21,2.21,0,0,0,3.47,0Z" fill="#003a50"/><path d="M237.77,31.78a.71.71,0,0,1-.22-.57.74.74,0,0,1,.22-.57.9.9,0,0,1,.62-.21.87.87,0,0,1,.61.21.75.75,0,0,1,.23.57.72.72,0,0,1-.23.57.87.87,0,0,1-.61.21A.9.9,0,0,1,237.77,31.78Z" fill="#003a50"/><path d="M247.38,25.84h-1.56s0-.05,0-.13-.08-.18-.15-.31a1.87,1.87,0,0,0-.28-.35,1.25,1.25,0,0,0-.5-.29,2.25,2.25,0,0,0-.71-.11,1.78,1.78,0,0,0-1.52.72,3.12,3.12,0,0,0-.54,1.9h.05a1.11,1.11,0,0,1,.31-.31,3.19,3.19,0,0,1,.42-.26,3.14,3.14,0,0,1,.67-.21,4.12,4.12,0,0,1,.86-.09,3.57,3.57,0,0,1,2.38.78,2.49,2.49,0,0,1,.92,2,2.52,2.52,0,0,1-1,2.05,3.89,3.89,0,0,1-2.54.78,3.38,3.38,0,0,1-2.73-1.09,4.5,4.5,0,0,1-.93-3V27.6a4.83,4.83,0,0,1,.93-3,3.19,3.19,0,0,1,2.68-1.21,3.93,3.93,0,0,1,1.5.27,2.61,2.61,0,0,1,1,.66A2.39,2.39,0,0,1,247.38,25.84Zm-1.77,2.22a2.21,2.21,0,0,0-1.39-.41,2.26,2.26,0,0,0-1.4.41,1.4,1.4,0,0,0,0,2.22,2.6,2.6,0,0,0,2.8,0,1.31,1.31,0,0,0,.54-1.11A1.3,1.3,0,0,0,245.61,28.06Z" fill="#003a50"/><path d="M406.79,25.27,405,26.65V25.07l1.92-1.6h1.32v8.4h-1.49Z" fill="#003a50"/><path d="M410.06,31.78a.69.69,0,0,1-.23-.57.71.71,0,0,1,.23-.57,1,1,0,0,1,1.22,0,.75.75,0,0,1,.23.57.72.72,0,0,1-.23.57,1,1,0,0,1-1.22,0Z" fill="#003a50"/><path d="M419.78,31.87h-7v-1.1a2,2,0,0,1,.41-1.23,2.78,2.78,0,0,1,1-.84c.35-.18.79-.39,1.32-.61s.93-.4,1.32-.55a3,3,0,0,0,1-.64,1.28,1.28,0,0,0,.41-.92c0-.89-.63-1.33-1.89-1.33s-1.88.51-1.88,1.52v.29H413v-.29a2.56,2.56,0,0,1,.89-2.09,3.78,3.78,0,0,1,2.48-.73,4,4,0,0,1,2.48.69,2.3,2.3,0,0,1,.89,1.94,2.23,2.23,0,0,1-.39,1.29,3,3,0,0,1-1,.92q-.63.36-1.29.66c-.45.19-.87.37-1.29.53a3.53,3.53,0,0,0-1,.52.87.87,0,0,0-.4.68h5.38Z" fill="#003a50"/><path d="M43.93,30.79a4.53,4.53,0,0,1-1-3.12,4.57,4.57,0,0,1,1-3.12,4,4,0,0,1,5.73,0,4.57,4.57,0,0,1,1.05,3.12,4.53,4.53,0,0,1-1.05,3.12,4,4,0,0,1-5.73,0Zm4.6-1a3.5,3.5,0,0,0,.62-2.14,3.52,3.52,0,0,0-.62-2.14,2.21,2.21,0,0,0-3.47,0,3.5,3.5,0,0,0-.62,2.14,3.5,3.5,0,0,0,.62,2.14,2.21,2.21,0,0,0,3.47,0Z" fill="#003a50"/><path d="M52.25,31.78a.71.71,0,0,1-.22-.57.74.74,0,0,1,.22-.57.9.9,0,0,1,.62-.21.87.87,0,0,1,.61.21.75.75,0,0,1,.23.57.72.72,0,0,1-.23.57.87.87,0,0,1-.61.21A.9.9,0,0,1,52.25,31.78Z" fill="#003a50"/><path d="M61.86,25.84H60.3s0-.05,0-.13-.08-.18-.15-.31a1.87,1.87,0,0,0-.28-.35,1.25,1.25,0,0,0-.5-.29,2.25,2.25,0,0,0-.71-.11,1.78,1.78,0,0,0-1.52.72,3.12,3.12,0,0,0-.54,1.9h0a1.35,1.35,0,0,1,.32-.31,3.19,3.19,0,0,1,.42-.26,3.14,3.14,0,0,1,.67-.21,4.12,4.12,0,0,1,.86-.09,3.57,3.57,0,0,1,2.38.78,2.49,2.49,0,0,1,.92,2,2.52,2.52,0,0,1-1,2.05,3.89,3.89,0,0,1-2.54.78A3.38,3.38,0,0,1,56,30.9a4.5,4.5,0,0,1-.93-3V27.6a4.83,4.83,0,0,1,.93-3,3.19,3.19,0,0,1,2.68-1.21,3.93,3.93,0,0,1,1.5.27,2.61,2.61,0,0,1,1,.66A2.39,2.39,0,0,1,61.86,25.84Zm-1.77,2.22a2.21,2.21,0,0,0-1.39-.41,2.26,2.26,0,0,0-1.4.41,1.4,1.4,0,0,0,0,2.22,2.6,2.6,0,0,0,2.8,0,1.31,1.31,0,0,0,.54-1.11A1.3,1.3,0,0,0,60.09,28.06Z" fill="#003a50"/><path d="M574.72,636.91a4.57,4.57,0,0,1-3.12,1,4.63,4.63,0,0,1-3.12-1,4,4,0,0,1,0-5.74,4.63,4.63,0,0,1,3.12-1,4.57,4.57,0,0,1,3.12,1,4,4,0,0,1,0,5.74Zm-1-4.61a4.06,4.06,0,0,0-4.28,0,2.05,2.05,0,0,0-.84,1.74,2,2,0,0,0,.84,1.73,4,4,0,0,0,4.28,0,2,2,0,0,0,.84-1.73A2.05,2.05,0,0,0,573.74,632.3Z" fill="#003a50"/><path d="M575.71,628.58a.72.72,0,0,1-.57.23.75.75,0,0,1-.57-.23,1,1,0,0,1,0-1.22.75.75,0,0,1,.57-.23.72.72,0,0,1,.57.23,1,1,0,0,1,0,1.22Z" fill="#003a50"/><path d="M569.77,619v1.56s0,0-.13,0a1.38,1.38,0,0,0-.31.15,3,3,0,0,0-.35.27,1.57,1.57,0,0,0-.29.5,2.36,2.36,0,0,0-.11.72,1.76,1.76,0,0,0,.72,1.51,3.12,3.12,0,0,0,1.9.54v0a1.27,1.27,0,0,1-.31-.31,3.78,3.78,0,0,1-.26-.43,3,3,0,0,1-.21-.67,4,4,0,0,1-.09-.86,3.5,3.5,0,0,1,.79-2.37,2.43,2.43,0,0,1,2-.92,2.52,2.52,0,0,1,2,1,3.87,3.87,0,0,1,.78,2.54,3.38,3.38,0,0,1-1.09,2.73,4.5,4.5,0,0,1-3,.93h-.29a4.83,4.83,0,0,1-3-.93,3.2,3.2,0,0,1-1.21-2.68,3.86,3.86,0,0,1,.27-1.5,2.73,2.73,0,0,1,.66-1A2.44,2.44,0,0,1,569.77,619Zm2.22,1.77a2.58,2.58,0,0,0,0,2.79,1.3,1.3,0,0,0,1.11.55,1.31,1.31,0,0,0,1.11-.54,2.6,2.6,0,0,0,0-2.8,1.3,1.3,0,0,0-1.11-.55A1.32,1.32,0,0,0,572,620.74Z" fill="#003a50"/><path d="M569.21,171.7l1.37,1.75H569l-1.6-1.93v-1.31h8.4v1.49Z" fill="#003a50"/><path d="M577.36,167.93h-1a.61.61,0,0,0-.38.1.51.51,0,0,0-.18.26.38.38,0,0,1-.21.26.94.94,0,0,1-.49.11.75.75,0,0,1-.57-.23.87.87,0,0,1-.21-.61c0-.56.33-.84,1-.84a3.36,3.36,0,0,1,1.49.27C577.18,167.44,577.36,167.66,577.36,167.93Z" fill="#003a50"/><path d="M569.21,164.26l1.37,1.76H569l-1.6-1.93v-1.31h8.4v1.48Z" fill="#003a50"/><path d="M574.72,457.33a5.19,5.19,0,0,1-6.23,0,4,4,0,0,1,0-5.74,5.19,5.19,0,0,1,6.23,0,4,4,0,0,1,0,5.74Zm-1-4.61a4.06,4.06,0,0,0-4.28,0,2,2,0,0,0-.83,1.74,2,2,0,0,0,.83,1.73,4,4,0,0,0,4.28,0,2,2,0,0,0,.84-1.73A2.05,2.05,0,0,0,573.74,452.72Z" fill="#003a50"/><path d="M575.71,449a.72.72,0,0,1-.57.23.75.75,0,0,1-.57-.23,1,1,0,0,1,0-1.22.75.75,0,0,1,.57-.23.72.72,0,0,1,.57.23,1,1,0,0,1,0,1.22Z" fill="#003a50"/><path d="M570.17,442.45a3.52,3.52,0,0,1,.75-2.35,2.94,2.94,0,0,1,4.24,0,3.77,3.77,0,0,1,.76,2.5,4.11,4.11,0,0,1-.68,2.51,2.24,2.24,0,0,1-1.9.91v-1.49a1.08,1.08,0,0,0,.94-.49,2.51,2.51,0,0,0,.35-1.44,2.25,2.25,0,0,0-.41-1.44,1.44,1.44,0,0,0-1.19-.49,1.42,1.42,0,0,0-1.2.52,2.31,2.31,0,0,0-.41,1.46,2.58,2.58,0,0,0,.29,1.35,1.41,1.41,0,0,0,.46.5l.08,0v1.49H567.4v-6.26h1.3v4.77h2.09v0a1.38,1.38,0,0,1-.22-.29,2.69,2.69,0,0,1-.19-.38A4,4,0,0,1,570.17,442.45Z" fill="#003a50"/><path d="M574.72,350.05a5.19,5.19,0,0,1-6.23,0,4,4,0,0,1,0-5.74,5.19,5.19,0,0,1,6.23,0,4,4,0,0,1,0,5.74Zm-1-4.61a4.06,4.06,0,0,0-4.28,0,2.23,2.23,0,0,0,0,3.47,4,4,0,0,0,4.28,0,2,2,0,0,0,.84-1.73A2.05,2.05,0,0,0,573.74,345.44Z" fill="#003a50"/><path d="M575.71,341.72a.72.72,0,0,1-.57.23.75.75,0,0,1-.57-.23.87.87,0,0,1-.21-.61.85.85,0,0,1,.21-.61.71.71,0,0,1,.57-.23.69.69,0,0,1,.57.23.85.85,0,0,1,.21.61A.87.87,0,0,1,575.71,341.72Z" fill="#003a50"/><path d="M570.17,335.17a3.51,3.51,0,0,1,.75-2.35,2.95,2.95,0,0,1,4.24,0,3.82,3.82,0,0,1,.76,2.51,4.13,4.13,0,0,1-.68,2.51,2.24,2.24,0,0,1-1.9.91v-1.49a1.09,1.09,0,0,0,.94-.5,2.47,2.47,0,0,0,.35-1.43,2.23,2.23,0,0,0-.41-1.44,1.44,1.44,0,0,0-1.19-.49,1.42,1.42,0,0,0-1.2.52,2.31,2.31,0,0,0-.41,1.46,2.6,2.6,0,0,0,.29,1.35,1.36,1.36,0,0,0,.46.49l.08,0v1.49H567.4V332.5h1.3v4.78h2.09v0a1.09,1.09,0,0,1-.22-.28,2.69,2.69,0,0,1-.19-.38A4,4,0,0,1,570.17,335.17Z" fill="#003a50"/></g><rect y="248.7" width="1.83" height="6.38" fill="#003a50"/><g clip-path="url(#clip-path)"><path d="M157.22,602.54a5,5,0,0,1,3.33,1.06,4.17,4.17,0,0,1,0,6,5.38,5.38,0,0,1-3.54,1.08,5.87,5.87,0,0,1-3.57-1,3.19,3.19,0,0,1-1.28-2.69h2.11a1.54,1.54,0,0,0,.7,1.34,3.62,3.62,0,0,0,2,.48,3.17,3.17,0,0,0,2-.57,2.36,2.36,0,0,0,0-3.39,3.25,3.25,0,0,0-2.07-.58,3.6,3.6,0,0,0-1.92.42,2,2,0,0,0-.69.63l-.05.13h-2.11v-6.88H161v1.85h-6.77v2.95h.05a2,2,0,0,1,.4-.3,3,3,0,0,1,.54-.27A5.66,5.66,0,0,1,157.22,602.54Z" fill="#003a50"/><path d="M163.92,610.39a1,1,0,0,1-.33-.81,1,1,0,0,1,.33-.8,1.23,1.23,0,0,1,.87-.3,1.2,1.2,0,0,1,.86.3,1,1,0,0,1,.33.8,1,1,0,0,1-.33.81,1.2,1.2,0,0,1-.86.3A1.23,1.23,0,0,1,163.92,610.39Z" fill="#003a50"/><path d="M177.7,610.52h-9.94V609a2.8,2.8,0,0,1,.58-1.74,4.12,4.12,0,0,1,1.45-1.2c.5-.25,1.12-.54,1.87-.86s1.32-.56,1.88-.77a4.34,4.34,0,0,0,1.44-.92,1.8,1.8,0,0,0,.57-1.3c0-1.26-.89-1.89-2.66-1.89s-2.68.72-2.68,2.16v.41H168.1v-.41a3.59,3.59,0,0,1,1.27-3,5.34,5.34,0,0,1,3.51-1,5.65,5.65,0,0,1,3.51,1,3.27,3.27,0,0,1,1.27,2.75,3.14,3.14,0,0,1-.55,1.83,4.42,4.42,0,0,1-1.41,1.31q-.9.51-1.83.93c-.63.27-1.24.52-1.83.74a5.26,5.26,0,0,0-1.4.75,1.23,1.23,0,0,0-.57,1h7.63Z" fill="#003a50"/><path d="M294.62,602h-2.21s0-.07,0-.18a2.94,2.94,0,0,0-.22-.44,2.34,2.34,0,0,0-.39-.49,1.78,1.78,0,0,0-.71-.42,3.19,3.19,0,0,0-1-.16,2.53,2.53,0,0,0-2.15,1,4.41,4.41,0,0,0-.76,2.68h.06a1.63,1.63,0,0,1,.44-.43,4.76,4.76,0,0,1,.6-.36,4.41,4.41,0,0,1,.95-.31,6.23,6.23,0,0,1,1.22-.12,5,5,0,0,1,3.37,1.11,3.51,3.51,0,0,1,1.31,2.8,3.59,3.59,0,0,1-1.36,2.9,5.54,5.54,0,0,1-3.61,1.11,4.81,4.81,0,0,1-3.87-1.55,6.36,6.36,0,0,1-1.32-4.27v-.4a6.83,6.83,0,0,1,1.32-4.31,4.52,4.52,0,0,1,3.8-1.71,5.66,5.66,0,0,1,2.13.37,3.84,3.84,0,0,1,1.44.94A3.45,3.45,0,0,1,294.62,602Zm-2.51,3.15a3.6,3.6,0,0,0-3.95,0,2,2,0,0,0,0,3.14,3.63,3.63,0,0,0,4,0,2,2,0,0,0,0-3.14Z" fill="#003a50"/><path d="M297.27,610.39a1,1,0,0,1-.32-.81,1.06,1.06,0,0,1,.32-.8,1.41,1.41,0,0,1,1.74,0,1.06,1.06,0,0,1,.32.8,1,1,0,0,1-.32.81,1.41,1.41,0,0,1-1.74,0Z" fill="#003a50"/><path d="M301.41,607.18h2.21s0,.07,0,.17a2.51,2.51,0,0,0,.64.92,2,2,0,0,0,.75.42,3.21,3.21,0,0,0,1.05.16,2.66,2.66,0,0,0,2.24-1.06,4.32,4.32,0,0,0,.81-2.71h-.06a2,2,0,0,1-.44.47,2.73,2.73,0,0,1-.6.4,4.18,4.18,0,0,1-.95.32,5.49,5.49,0,0,1-1.22.13,4.92,4.92,0,0,1-3.37-1.13,3.73,3.73,0,0,1,.05-5.72,5.57,5.57,0,0,1,3.61-1.1A4.81,4.81,0,0,1,310,600a6.4,6.4,0,0,1,1.32,4.27v.41A6.7,6.7,0,0,1,310,609a4.71,4.71,0,0,1-3.89,1.71,6,6,0,0,1-2.17-.38,3.85,3.85,0,0,1-1.48-.94A3.35,3.35,0,0,1,301.41,607.18Zm2.77-3.17a3.58,3.58,0,0,0,3.94,0,1.84,1.84,0,0,0,.79-1.57,1.89,1.89,0,0,0-.78-1.58,3.27,3.27,0,0,0-2-.58,3.23,3.23,0,0,0-2,.58,1.88,1.88,0,0,0-.78,1.58A1.84,1.84,0,0,0,304.18,604Z" fill="#003a50"/><path d="M153.84,465.41l-2.49,1.95v-2.24l2.74-2.26H156v11.9h-2.11Z" fill="#003a50"/><path d="M158.47,474.63a1,1,0,0,1-.32-.8,1,1,0,0,1,.32-.81,1.41,1.41,0,0,1,1.74,0,1.07,1.07,0,0,1,.32.81,1,1,0,0,1-.32.8,1.41,1.41,0,0,1-1.74,0Z" fill="#003a50"/><path d="M171.05,474a7.71,7.71,0,0,1-7.36,0,2.93,2.93,0,0,1-1.37-2.56,2.69,2.69,0,0,1,.25-1.16,2.29,2.29,0,0,1,.66-.85,4,4,0,0,1,1.39-.78l.26-.06v-.09a3,3,0,0,1-.76-.3,2.67,2.67,0,0,1-.67-.43,2.35,2.35,0,0,1-.54-.76,2.41,2.41,0,0,1-.22-1,2.8,2.8,0,0,1,1.25-2.38,7,7,0,0,1,6.85,0A2.81,2.81,0,0,1,172,466a2.43,2.43,0,0,1-.22,1,2,2,0,0,1-.55.75,3.72,3.72,0,0,1-1.2.68l-.22.05v.09l.28.06a5.42,5.42,0,0,1,.62.27,3.76,3.76,0,0,1,.78.51,2.69,2.69,0,0,1,.61.82,2.63,2.63,0,0,1,.27,1.19A3,3,0,0,1,171.05,474Zm-5.79-1.35a3.84,3.84,0,0,0,2.1.48,3.9,3.9,0,0,0,2.11-.48,1.59,1.59,0,0,0,0-2.69,4.95,4.95,0,0,0-4.21,0,1.59,1.59,0,0,0,0,2.69Zm-.36-6.52a1.36,1.36,0,0,0,.64,1.19,4,4,0,0,0,3.65,0,1.36,1.36,0,0,0,.64-1.19,1.38,1.38,0,0,0-.65-1.2,4,4,0,0,0-3.63,0A1.38,1.38,0,0,0,164.9,466.13Z" fill="#003a50"/><path d="M475.76,621.48l-2.48,1.95v-2.24l2.73-2.27h1.86v11.91h-2.11Z" fill="#003a50"/><path d="M486.59,620.76h-5.82v-1.84h8.86v1.84l-4.52,2.65v.07h1.27a3.91,3.91,0,0,1,2.8,1,3.52,3.52,0,0,1,1.05,2.67A3.32,3.32,0,0,1,488.9,630a6.93,6.93,0,0,1-7.24,0,3.35,3.35,0,0,1-1.33-2.85v-.33h2.11v.33c0,1.36.95,2,2.84,2s2.84-.67,2.84-2-.95-2-2.84-2H482v-1.67l4.57-2.68Z" fill="#003a50"/><path d="M492.33,630.7a1.17,1.17,0,0,1,0-1.61,1.41,1.41,0,0,1,1.74,0,1.17,1.17,0,0,1,0,1.61,1.41,1.41,0,0,1-1.74,0Z" fill="#003a50"/><path d="M504.91,630.07a6.43,6.43,0,0,1-3.68.93,6.49,6.49,0,0,1-3.68-.94,2.94,2.94,0,0,1-1.37-2.56,2.66,2.66,0,0,1,.25-1.16,2.43,2.43,0,0,1,.66-.86,4.05,4.05,0,0,1,1.4-.77l.25-.07v-.09a3.51,3.51,0,0,1-.76-.29,2.88,2.88,0,0,1-.67-.44,2.2,2.2,0,0,1-.54-.75,2.46,2.46,0,0,1-.22-1,2.83,2.83,0,0,1,1.25-2.38,5.77,5.77,0,0,1,3.43-.9,5.84,5.84,0,0,1,3.43.9A2.83,2.83,0,0,1,505.9,622a2.47,2.47,0,0,1-.22,1.05,1.87,1.87,0,0,1-.55.74,3.72,3.72,0,0,1-1.2.68l-.22,0v.09l.28.07a5.42,5.42,0,0,1,.62.27,4.19,4.19,0,0,1,.78.5,2.82,2.82,0,0,1,.61.82,2.71,2.71,0,0,1,.28,1.2A3,3,0,0,1,504.91,630.07Zm-5.79-1.36a4.9,4.9,0,0,0,4.21,0,1.52,1.52,0,0,0,.74-1.35,1.5,1.5,0,0,0-.74-1.34,4.95,4.95,0,0,0-4.21,0,1.59,1.59,0,0,0,0,2.68Zm-.36-6.52a1.35,1.35,0,0,0,.64,1.19,4,4,0,0,0,3.65,0,1.35,1.35,0,0,0,.64-1.19A1.38,1.38,0,0,0,503,621a4,4,0,0,0-3.62,0A1.36,1.36,0,0,0,498.76,622.19Z" fill="#003a50"/><path d="M109,397.19l-2.49,2V396.9l2.74-2.26h1.86v11.91H109Z" fill="#003a50"/><path d="M115.11,405a7.38,7.38,0,0,1,0-8.84,5.72,5.72,0,0,1,8.14,0,7.38,7.38,0,0,1,0,8.84,5.72,5.72,0,0,1-8.14,0Zm6.53-1.39a5,5,0,0,0,.87-3,5,5,0,0,0-.87-3,3.14,3.14,0,0,0-4.91,0,4.94,4.94,0,0,0-.88,3,4.89,4.89,0,0,0,.88,3,2.87,2.87,0,0,0,2.45,1.19A2.9,2.9,0,0,0,121.64,403.62Z" fill="#003a50"/><path d="M126.92,406.41a1,1,0,0,1-.33-.8,1,1,0,0,1,.33-.81,1.4,1.4,0,0,1,1.73,0,1,1,0,0,1,.33.81,1,1,0,0,1-.33.8,1.4,1.4,0,0,1-1.73,0Z" fill="#003a50"/><path d="M140.54,398h-2.21s0-.06,0-.17a2.53,2.53,0,0,0-.22-.44,2.07,2.07,0,0,0-.38-.5,1.93,1.93,0,0,0-.71-.41,3,3,0,0,0-1-.16,2.49,2.49,0,0,0-2.15,1,4.39,4.39,0,0,0-.77,2.68h.06a1.8,1.8,0,0,1,.44-.43,3.55,3.55,0,0,1,.61-.37,3.81,3.81,0,0,1,1-.3,5.43,5.43,0,0,1,1.22-.13,5.05,5.05,0,0,1,3.37,1.11,3.51,3.51,0,0,1,1.3,2.8,3.58,3.58,0,0,1-1.36,2.91,5.56,5.56,0,0,1-3.61,1.1,4.81,4.81,0,0,1-3.87-1.54,6.38,6.38,0,0,1-1.32-4.27v-.41a6.85,6.85,0,0,1,1.32-4.31,4.52,4.52,0,0,1,3.81-1.71,5.81,5.81,0,0,1,2.12.37,4,4,0,0,1,1.44.94A3.46,3.46,0,0,1,140.54,398ZM138,401.14a3.67,3.67,0,0,0-4,0,2,2,0,0,0,0,3.15,3.21,3.21,0,0,0,2,.59,3.26,3.26,0,0,0,2-.59,2,2,0,0,0,0-3.15Z" fill="#003a50"/><path d="M97.25,184.42l-2.48,2v-2.25l2.73-2.26h1.86v11.91H97.25Z" fill="#003a50"/><path d="M103.88,184.42l-2.49,2v-2.25l2.74-2.26H106v11.91h-2.11Z" fill="#003a50"/><path d="M108.51,193.64a1,1,0,0,1-.32-.8,1.07,1.07,0,0,1,.32-.81,1.41,1.41,0,0,1,1.74,0,1.07,1.07,0,0,1,.32.81,1,1,0,0,1-.32.8,1.41,1.41,0,0,1-1.74,0Z" fill="#003a50"/><path d="M122.13,185.22h-2.21s0-.06,0-.17a1.85,1.85,0,0,0-.21-.44,2.4,2.4,0,0,0-.39-.5,1.77,1.77,0,0,0-.71-.41,2.93,2.93,0,0,0-1-.16,2.51,2.51,0,0,0-2.15,1,4.39,4.39,0,0,0-.76,2.68h.06a1.49,1.49,0,0,1,.44-.43,3.9,3.9,0,0,1,.6-.37,4,4,0,0,1,1-.3,5.56,5.56,0,0,1,1.22-.13,5,5,0,0,1,3.37,1.11,3.52,3.52,0,0,1,1.31,2.8,3.59,3.59,0,0,1-1.37,2.91,5.55,5.55,0,0,1-3.6,1.1,4.81,4.81,0,0,1-3.87-1.54,6.38,6.38,0,0,1-1.32-4.27v-.41a6.85,6.85,0,0,1,1.32-4.31,4.52,4.52,0,0,1,3.8-1.71,5.66,5.66,0,0,1,2.13.37,4,4,0,0,1,1.44.94A3.45,3.45,0,0,1,122.13,185.22Zm-2.51,3.15a3.65,3.65,0,0,0-4,0,2,2,0,0,0,0,3.15,3.63,3.63,0,0,0,4,0,2,2,0,0,0,0-3.15Z" fill="#003a50"/><path d="M239.15,184.42l-2.48,2v-2.25l2.73-2.26h1.86v11.91h-2.11Z" fill="#003a50"/><path d="M245.78,184.42l-2.49,2v-2.25l2.73-2.26h1.86v11.91h-2.1Z" fill="#003a50"/><path d="M250.41,193.64a1,1,0,0,1-.32-.8,1,1,0,0,1,.32-.81,1.41,1.41,0,0,1,1.74,0,1.07,1.07,0,0,1,.32.81,1,1,0,0,1-.32.8,1.41,1.41,0,0,1-1.74,0Z" fill="#003a50"/><path d="M259.69,185.79a5,5,0,0,1,3.34,1.07,4.16,4.16,0,0,1,0,6,5.38,5.38,0,0,1-3.54,1.08,5.8,5.8,0,0,1-3.57-1,3.15,3.15,0,0,1-1.28-2.68h2.1a1.53,1.53,0,0,0,.71,1.33,3.57,3.57,0,0,0,2,.49,3.17,3.17,0,0,0,2-.58,2.36,2.36,0,0,0,0-3.39,3.31,3.31,0,0,0-2.07-.58,3.6,3.6,0,0,0-1.92.42,2,2,0,0,0-.7.64l-.05.12h-2.1v-6.87h8.87v1.84H256.7v3h.05a2.22,2.22,0,0,1,.4-.31,4,4,0,0,1,.55-.27A5.63,5.63,0,0,1,259.69,185.79Z" fill="#003a50"/><path d="M481.68,248.31h-5.82v-1.85h8.86v1.85L480.2,251V251h1.28a3.9,3.9,0,0,1,2.79,1,3.52,3.52,0,0,1,1.05,2.67,3.32,3.32,0,0,1-1.33,2.82,6.93,6.93,0,0,1-7.24,0,3.35,3.35,0,0,1-1.33-2.85v-.33h2.11v.33c0,1.36,1,2,2.84,2s2.84-.67,2.84-2-.95-2-2.84-2h-3.26v-1.67l4.57-2.68Z" fill="#003a50"/><path d="M493.62,248.31H487.8v-1.85h8.86v1.85L492.13,251V251h1.28a3.9,3.9,0,0,1,2.79,1,3.52,3.52,0,0,1,1.05,2.67,3.34,3.34,0,0,1-1.32,2.82,7,7,0,0,1-7.25,0,3.37,3.37,0,0,1-1.32-2.85v-.33h2.1v.33c0,1.36,1,2,2.84,2s2.85-.67,2.85-2-.95-2-2.85-2H489v-1.67l4.58-2.68Z" fill="#003a50"/><path d="M499.36,258.24a1,1,0,0,1-.33-.81,1,1,0,0,1,.33-.8,1.4,1.4,0,0,1,1.73,0,1,1,0,0,1,.33.8,1,1,0,0,1-.33.81,1.4,1.4,0,0,1-1.73,0Z" fill="#003a50"/><path d="M506.46,258.37h-2.35l5.42-10H502.6v-1.88h9.29v1.88Z" fill="#003a50"/><path d="M101,314.43H95.19v-1.84h8.86v1.84l-4.53,2.65v.07h1.28a3.9,3.9,0,0,1,2.79,1,3.5,3.5,0,0,1,1.06,2.67,3.32,3.32,0,0,1-1.33,2.82,7,7,0,0,1-7.24,0,3.36,3.36,0,0,1-1.33-2.86v-.32h2.11v.32c0,1.37,1,2,2.84,2s2.84-.67,2.84-2-1-2-2.84-2H96.44v-1.67L101,314.5Z" fill="#003a50"/><path d="M106.75,324.37a1,1,0,0,1-.32-.81,1,1,0,0,1,.32-.81,1.27,1.27,0,0,1,.87-.29,1.24,1.24,0,0,1,.86.29,1,1,0,0,1,.33.81,1,1,0,0,1-.33.81,1.2,1.2,0,0,1-.86.29A1.22,1.22,0,0,1,106.75,324.37Z" fill="#003a50"/><path d="M112.65,315.15l-2.48,2v-2.24l2.73-2.27h1.86V324.5h-2.11Z" fill="#003a50"/></g></svg>