<svg id="Слой_1" data-name="Слой 1" xmlns="http://www.w3.org/2000/svg" xmlns:xlink="http://www.w3.org/1999/xlink" viewBox="0 0 583.94 383.81"><defs><clipPath id="clip-path"><polygon points="83.19 0.42 83.19 36.57 0 36.57 0 210.05 92.66 210.05 92.66 230.17 237.77 230.17 237.77 383.39 582.24 383.39 582.24 49.18 568.91 49.18 568.91 0.42 83.19 0.42" fill="none"/></clipPath></defs><rect x="247.5" y="376.81" width="320.54" height="6.58" fill="#fff"/><polygon points="83.19 0.42 83.19 36.57 57.93 36.57 57.93 42.78 69 59.06 69 108.39 66.52 200.02 95.06 200.02 95.06 218.94 242.88 218.94 242.88 381.67 568.05 381.67 568.05 224.33 568.05 205.94 568.05 16.68 85.2 16.68 85.2 0.42 83.19 0.42" fill="#fff"/><polygon points="90.26 0.42 90.53 3.39 566.1 3.39 566.1 0.42 90.26 0.42" fill="#fff"/><g clip-path="url(#clip-path)"><rect x="-584.12" y="-666.05" width="1162.95" height="2240.57" fill="none" stroke="#003a50" stroke-miterlimit="10"/><polygon points="-571.54 438.12 -571.54 1561.67 565.85 1561.67 565.85 -653.1 -571.54 -653.26 -571.54 367.41 -571.54 438.12" fill="none" stroke="#003a50" stroke-miterlimit="10"/></g><rect x="541.53" y="74.8" width="4.56" height="87.67" fill="#fff"/><rect x="541.53" y="74.8" width="4.56" height="87.67" fill="none" stroke="#003a50" stroke-miterlimit="10"/><line x1="543.81" y1="74.8" x2="543.81" y2="162.47" fill="none" stroke="#003a50" stroke-miterlimit="10"/><rect x="541.53" y="74.8" width="4.56" height="4.42" fill="#fff"/><rect x="541.53" y="74.8" width="4.56" height="4.42" fill="none" stroke="#003a50" stroke-miterlimit="10"/><rect x="541.53" y="158.04" width="4.56" height="4.42" fill="#fff"/><rect x="541.53" y="158.04" width="4.56" height="4.42" fill="none" stroke="#003a50" stroke-miterlimit="10"/><rect x="541.53" y="118.61" width="4.56" height="4.42" fill="#fff"/><rect x="541.53" y="118.61" width="4.56" height="4.42" fill="none" stroke="#003a50" stroke-miterlimit="10"/><g clip-path="url(#clip-path)"><path d="M541.53,123h-2.9c-20.15,0-33.1,15.67-33.1,35h36" fill="none" stroke="#003a50" stroke-miterlimit="10"/></g><rect x="541.53" y="258.19" width="4.56" height="88.21" fill="#fff"/><rect x="541.53" y="258.19" width="4.56" height="88.21" fill="none" stroke="#003a50" stroke-miterlimit="10"/><line x1="543.81" y1="346.4" x2="543.81" y2="258.19" fill="none" stroke="#003a50" stroke-miterlimit="10"/><rect x="541.53" y="341.7" width="4.56" height="4.7" fill="#fff"/><rect x="541.53" y="341.7" width="4.56" height="4.7" fill="none" stroke="#003a50" stroke-miterlimit="10"/><rect x="541.53" y="258.19" width="4.56" height="4.7" fill="#fff"/><rect x="541.53" y="258.19" width="4.56" height="4.7" fill="none" stroke="#003a50" stroke-miterlimit="10"/><rect x="541.53" y="300.07" width="4.56" height="4.7" fill="#fff"/><rect x="541.53" y="300.07" width="4.56" height="4.7" fill="none" stroke="#003a50" stroke-miterlimit="10"/><g clip-path="url(#clip-path)"><path d="M541.53,300.07h-2.9c-20.15,0-33.1-16.64-33.1-37.17h36" fill="none" stroke="#003a50" stroke-miterlimit="10"/><path d="M120.51,191.79a3.16,3.16,0,0,0,2.91-1.95h1.79l4.73,2.82-2.15,3.5-2.46-1.35v11H115v-11l-2.47,1.35-2.15-3.5,4.78-2.82h2.38A3.21,3.21,0,0,0,120.51,191.79Z" fill="none" stroke="#003a50" stroke-miterlimit="10"/></g><rect x="104.39" y="182.6" width="31.57" height="30.42" fill="none" stroke="#003a50" stroke-miterlimit="10"/><rect x="219.92" y="115.69" width="31.65" height="31.61" fill="none" stroke="#003a50" stroke-miterlimit="10"/><g clip-path="url(#clip-path)"><path d="M231.74,130.07V119.79h8v10.28a3.29,3.29,0,0,1-3.3,3.29H235A3.29,3.29,0,0,1,231.74,130.07Z" fill="none" stroke="#003a50" stroke-miterlimit="10"/></g><polyline points="238.98 143.19 235.74 143.19 232.52 143.19" fill="none" stroke="#003a50" stroke-miterlimit="10"/><line x1="235.75" y1="133.36" x2="235.75" y2="143.19" fill="none" stroke="#003a50" stroke-miterlimit="10"/><rect x="261.18" y="179.04" width="34.02" height="34.02" fill="none" stroke="#003a50" stroke-miterlimit="10"/><g clip-path="url(#clip-path)"><path d="M270.58,208.45a4.64,4.64,0,1,1,4.64-4.63A4.63,4.63,0,0,1,270.58,208.45Z" fill="none" stroke="#003a50" stroke-miterlimit="10"/><path d="M270.58,193a4.64,4.64,0,1,1,4.64-4.64A4.63,4.63,0,0,1,270.58,193Z" fill="none" stroke="#003a50" stroke-miterlimit="10"/><path d="M285.67,208.45a4.64,4.64,0,1,1,4.64-4.63A4.63,4.63,0,0,1,285.67,208.45Z" fill="none" stroke="#003a50" stroke-miterlimit="10"/><path d="M285.67,193a4.64,4.64,0,1,1,4.64-4.64A4.63,4.63,0,0,1,285.67,193Z" fill="none" stroke="#003a50" stroke-miterlimit="10"/></g><rect x="429.42" y="159.39" width="102.05" height="16.75" fill="none" stroke="#003a50" stroke-miterlimit="10"/><polygon points="523.45 167.24 480.55 170.71 437.45 167.24 437.45 164.82 523.45 164.82 523.45 167.24" fill="none" stroke="#003a50" stroke-miterlimit="10"/><g clip-path="url(#clip-path)"><rect x="391.6" y="-16.39" width="102.05" height="16.75" fill="none" stroke="#003a50" stroke-miterlimit="10"/></g><rect x="401.45" y="193.39" width="102.05" height="16.75" fill="none" stroke="#003a50" stroke-miterlimit="10"/><polygon points="409.48 202.3 452.37 198.83 495.48 202.3 495.48 204.72 409.48 204.72 409.48 202.3" fill="none" stroke="#003a50" stroke-miterlimit="10"/><g clip-path="url(#clip-path)"><path d="M306.82,78.61a1.26,1.26,0,0,1,.94,1.51,13.78,13.78,0,1,0,26.87,6.16,1.26,1.26,0,0,1,2.46.57,16.3,16.3,0,0,1-31.78-7.29A1.26,1.26,0,0,1,306.82,78.61Z" fill="none" stroke="#003a50" stroke-miterlimit="10"/><path d="M362,88.33a1.25,1.25,0,0,1,1.74-.33,13.79,13.79,0,1,0,15.53-22.78,1.25,1.25,0,0,1-.33-1.75,1.24,1.24,0,0,1,1.74-.33,16.3,16.3,0,1,1-18.35,26.94A1.25,1.25,0,0,1,362,88.33Z" fill="none" stroke="#003a50" stroke-miterlimit="10"/><path d="M364.49,40.93a1.26,1.26,0,0,1-1.33-1.18,13.78,13.78,0,1,0-27.52,1.62,1.26,1.26,0,1,1-2.51.16,16.3,16.3,0,1,1,32.54-1.94A1.26,1.26,0,0,1,364.49,40.93Z" fill="none" stroke="#003a50" stroke-miterlimit="10"/><path d="M321,95.23a12.69,12.69,0,0,1-12-15.48l2-8.88a3.53,3.53,0,0,1,4.24-2.68l13.44,3.08a23.73,23.73,0,0,0,6,9.44l-1,4.2C332.41,90.87,327.13,95.43,321,95.23Z" fill="none" stroke="#003a50" stroke-miterlimit="10"/><path d="M363.81,86.71l-2.32-1.6a23.81,23.81,0,0,0,13.64-21.32l2.52,1.72c5,3.44,7.4,10,5,15.64A12.7,12.7,0,0,1,363.81,86.71Z" fill="none" stroke="#003a50" stroke-miterlimit="10"/><path d="M337,44.43l-.12-2c-.36-6.12,3.4-12,9.32-13.48a12.66,12.66,0,0,1,15.88,11.48l.12,1.84a23.93,23.93,0,0,0-16.64-1.92A23.5,23.5,0,0,0,337,44.43Z" fill="none" stroke="#003a50" stroke-miterlimit="10"/><path d="M334.73,80.71a23.73,23.73,0,0,1-6-9.44,16.51,16.51,0,0,1-.6-2A23.85,23.85,0,0,1,337,44.43a23.5,23.5,0,0,1,8.56-4,23.87,23.87,0,0,1,28.92,17.4,22.12,22.12,0,0,1,.68,6,23.81,23.81,0,0,1-13.64,21.32,22.85,22.85,0,0,1-4.48,1.6A23.8,23.8,0,0,1,334.73,80.71Z" fill="none" stroke="#003a50" stroke-miterlimit="10"/></g><rect x="169.94" y="117.38" width="43.96" height="95.52" fill="none" stroke="#003a50" stroke-miterlimit="10"/><g clip-path="url(#clip-path)"><rect x="175.1" y="121.58" width="33.22" height="87.39" rx="13.7" fill="none" stroke="#003a50" stroke-miterlimit="10"/><circle cx="191.8" cy="193.84" r="2.28" transform="translate(-40.92 335.98) rotate(-76.72)" fill="none" stroke="#003a50" stroke-miterlimit="10"/><path d="M132.82,167.76H104.25V144.69h28.57a11.54,11.54,0,1,1,0,23.07Z" fill="none" stroke="#003a50" stroke-miterlimit="10"/></g><rect x="104.25" y="144.69" width="11.08" height="23.08" fill="none" stroke="#003a50" stroke-miterlimit="10"/><rect x="219.92" y="179.04" width="97.57" height="33.86" fill="none" stroke="#003a50" stroke-miterlimit="10"/><rect x="219.92" y="147.39" width="31.65" height="31.65" fill="none" stroke="#003a50" stroke-miterlimit="10"/><polyline points="223.22 156.98 223.22 163.23 223.22 169.49" fill="none" stroke="#003a50" stroke-miterlimit="10"/><line x1="235.76" y1="163.25" x2="223.22" y2="163.25" fill="none" stroke="#003a50" stroke-miterlimit="10"/><g clip-path="url(#clip-path)"><path d="M245.3,149.37H231.82a3.24,3.24,0,0,0-3.24,3.24v21.21a3.24,3.24,0,0,0,3.24,3.24H245.3a3.24,3.24,0,0,0,3.24-3.24V152.61A3.24,3.24,0,0,0,245.3,149.37Z" fill="none" stroke="#003a50" stroke-miterlimit="10"/><path d="M237.32,163.25a2.24,2.24,0,1,0-2.23,2.24A2.23,2.23,0,0,0,237.32,163.25Z" fill="none" stroke="#003a50" stroke-miterlimit="10"/></g><rect x="249.91" y="16.68" width="34.83" height="30.54" fill="none" stroke="#003a50" stroke-miterlimit="10"/><g clip-path="url(#clip-path)"><path d="M148.44-28.48V.36h22.8V-28.48a11.4,11.4,0,0,0-11.4-11.4A11.4,11.4,0,0,0,148.44-28.48Z" fill="none" stroke="#003a50" stroke-miterlimit="10"/></g><polygon points="169.71 182.5 104.12 182.71 104.12 213.26 169.71 213.05 169.71 182.5" fill="none" stroke="#003a50" stroke-miterlimit="10"/><g clip-path="url(#clip-path)"><path d="M138.69,188.52v23a3.36,3.36,0,0,0,3.35,3.36h22.25a3.37,3.37,0,0,0,3.36-3.36v-23a3.37,3.37,0,0,0-3.36-3.36H142A3.36,3.36,0,0,0,138.69,188.52Z" fill="none" stroke="#003a50" stroke-miterlimit="10"/><circle cx="153.17" cy="200.02" r="2.27" fill="none" stroke="#003a50" stroke-miterlimit="10"/></g><rect x="97.92" y="16.92" width="115.74" height="29.57" fill="none" stroke="#003a50" stroke-miterlimit="10"/><g clip-path="url(#clip-path)"><path d="M112.81,21.11a.87.87,0,0,1,1.65-.38,25,25,0,0,1,0,22,.87.87,0,1,1-1.56-.77,23.27,23.27,0,0,0,0-20.42A.8.8,0,0,1,112.81,21.11Z" fill="none" stroke="#003a50" stroke-miterlimit="10"/><path d="M117.64,21.11a.87.87,0,0,1,.49-.78.88.88,0,0,1,1.17.4,25,25,0,0,1,0,22,.87.87,0,1,1-1.56-.77,23.27,23.27,0,0,0,0-20.42A.81.81,0,0,1,117.64,21.11Z" fill="none" stroke="#003a50" stroke-miterlimit="10"/><path d="M122.48,21.11a.87.87,0,0,1,.49-.78.88.88,0,0,1,1.17.4,25.09,25.09,0,0,1,0,22,.87.87,0,1,1-1.57-.77,23.27,23.27,0,0,0,0-20.42A.92.92,0,0,1,122.48,21.11Z" fill="none" stroke="#003a50" stroke-miterlimit="10"/><path d="M127.32,21.11a.87.87,0,0,1,.49-.78.88.88,0,0,1,1.17.4,25.09,25.09,0,0,1,0,22,.87.87,0,1,1-1.57-.77,23.27,23.27,0,0,0,0-20.42A.92.92,0,0,1,127.32,21.11Z" fill="none" stroke="#003a50" stroke-miterlimit="10"/><path d="M132.16,21.11a.87.87,0,0,1,1.65-.38,25,25,0,0,1,0,22,.87.87,0,1,1-1.56-.77,23.27,23.27,0,0,0,0-20.42A.92.92,0,0,1,132.16,21.11Z" fill="none" stroke="#003a50" stroke-miterlimit="10"/><path d="M137,21.11a.87.87,0,0,1,1.65-.38,25,25,0,0,1,0,22,.87.87,0,1,1-1.56-.77,23.27,23.27,0,0,0,0-20.42A.92.92,0,0,1,137,21.11Z" fill="none" stroke="#003a50" stroke-miterlimit="10"/><path d="M108,21.11a.87.87,0,0,1,1.65-.38,25,25,0,0,1,0,22,.87.87,0,1,1-1.56-.77,23.27,23.27,0,0,0,0-20.42A.8.8,0,0,1,108,21.11Z" fill="none" stroke="#003a50" stroke-miterlimit="10"/><path d="M103.13,21.11a.87.87,0,0,1,1.65-.38,25,25,0,0,1,0,22,.87.87,0,1,1-1.56-.77,23.27,23.27,0,0,0,0-20.42A.92.92,0,0,1,103.13,21.11Z" fill="none" stroke="#003a50" stroke-miterlimit="10"/></g><line x1="97.92" y1="31.71" x2="213.66" y2="31.71" fill="none" stroke="#003a50" stroke-miterlimit="10"/><g clip-path="url(#clip-path)"><rect x="254.25" y="384.22" width="34.02" height="105.94" fill="none" stroke="#003a50" stroke-miterlimit="10"/><path d="M473.87,62.94v-41H428.1V65.15h43.56A2.21,2.21,0,0,0,473.87,62.94Z" fill="none" stroke="#003a50" stroke-miterlimit="10"/><path d="M519.74,63.17V21.91H474V63.17a2,2,0,0,0,2,2h41.81A2,2,0,0,0,519.74,63.17Z" fill="none" stroke="#003a50" stroke-miterlimit="10"/><path d="M428.1,65.15A3.1,3.1,0,0,1,424.78,68h-4.23a3.11,3.11,0,0,1-3.33-2.83V17H530.61V64.73a3.11,3.11,0,0,1-3.32,2.83h-4.23a3.11,3.11,0,0,1-3.32-2.83V21.9H428.1Z" fill="none" stroke="#003a50" stroke-miterlimit="10"/></g><rect x="428.1" y="21.91" width="91.64" height="9.25" fill="none" stroke="#003a50" stroke-miterlimit="10"/><g clip-path="url(#clip-path)"><rect x="447.19" y="384.27" width="22.68" height="22.68" fill="none" stroke="#003a50" stroke-miterlimit="10"/><rect x="313.1" y="384.27" width="22.68" height="22.68" fill="none" stroke="#003a50" stroke-miterlimit="10"/><rect x="340.57" y="384.27" width="102.05" height="113.39" fill="none" stroke="#003a50" stroke-miterlimit="10"/></g><rect x="368.53" y="344.77" width="22.68" height="22.68" fill="none" stroke="#003a50" stroke-miterlimit="10"/><g clip-path="url(#clip-path)"><path d="M373.37,349.61a9.19,9.19,0,1,1,0,13A9.19,9.19,0,0,1,373.37,349.61Z" fill="none" stroke="#003a50" stroke-miterlimit="10"/><path d="M372.74,350.3c1.7.17,3.42-.48,5.07,1.17,2.44,2.44-.15,5,2.3,7.46s5-.14,7.45,2.3" fill="none" stroke="#003a50" stroke-miterlimit="10"/></g><rect x="502.63" y="344.77" width="22.68" height="22.68" fill="none" stroke="#003a50" stroke-miterlimit="10"/><g clip-path="url(#clip-path)"><path d="M507.47,349.61a9.19,9.19,0,1,1,0,13A9.19,9.19,0,0,1,507.47,349.61Z" fill="none" stroke="#003a50" stroke-miterlimit="10"/><path d="M506.84,350.3c1.7.17,3.41-.48,5.07,1.17,2.44,2.44-.15,5,2.3,7.46s5-.14,7.45,2.3" fill="none" stroke="#003a50" stroke-miterlimit="10"/></g><rect x="395.78" y="254.06" width="102.05" height="113.39" fill="none" stroke="#003a50" stroke-miterlimit="10"/><g clip-path="url(#clip-path)"><path d="M405.78,263.8h82.05a2.09,2.09,0,0,1,2.09,2.09v67.64H403.7V265.89A2.08,2.08,0,0,1,405.78,263.8Z" fill="none" stroke="#003a50" stroke-miterlimit="10"/><rect x="447.67" y="337.14" width="42.5" height="22.88" rx="1.98" fill="none" stroke="#003a50" stroke-miterlimit="10"/><rect x="403.44" y="337.14" width="42.5" height="22.88" rx="1.98" fill="none" stroke="#003a50" stroke-miterlimit="10"/></g><line x1="403.44" y1="319.67" x2="490.17" y2="319.67" fill="none" stroke="#003a50" stroke-miterlimit="10"/><rect x="220.07" y="16.93" width="30.26" height="30.26" fill="none" stroke="#003a50" stroke-miterlimit="10"/><line x1="226.32" y1="32.05" x2="244.07" y2="32.05" fill="none" stroke="#003a50" stroke-miterlimit="10"/><line x1="235.19" y1="40.93" x2="235.19" y2="23.18" fill="none" stroke="#003a50" stroke-miterlimit="10"/><line x1="228.92" y1="38.33" x2="241.47" y2="25.78" fill="none" stroke="#003a50" stroke-miterlimit="10"/><line x1="241.47" y1="38.33" x2="228.92" y2="25.78" fill="none" stroke="#003a50" stroke-miterlimit="10"/><g clip-path="url(#clip-path)"><rect x="202.34" y="-30.4" width="98.7" height="30.76" fill="none" stroke="#003a50" stroke-miterlimit="10"/></g><rect x="255.31" y="219.56" width="26.5" height="148.24" fill="none" stroke="#003a50" stroke-miterlimit="10"/><g clip-path="url(#clip-path)"><path d="M278,233a.78.78,0,0,1,.7.43.78.78,0,0,1-.36,1.05,22.44,22.44,0,0,1-19.67,0,.78.78,0,0,1,.69-1.4,20.89,20.89,0,0,0,18.3,0A.68.68,0,0,1,278,233Z" fill="none" stroke="#003a50" stroke-miterlimit="10"/><path d="M278,237.35a.77.77,0,0,1,.7.44.79.79,0,0,1-.36,1.05,22.44,22.44,0,0,1-19.67,0,.78.78,0,0,1,.69-1.41,20.81,20.81,0,0,0,18.3,0A.81.81,0,0,1,278,237.35Z" fill="none" stroke="#003a50" stroke-miterlimit="10"/><path d="M278,241.69a.78.78,0,0,1,.7.43.78.78,0,0,1-.36,1,22.44,22.44,0,0,1-19.67,0,.78.78,0,0,1,.69-1.4,20.89,20.89,0,0,0,18.3,0A.68.68,0,0,1,278,241.69Z" fill="none" stroke="#003a50" stroke-miterlimit="10"/><path d="M278,246a.77.77,0,0,1,.7.44.79.79,0,0,1-.36,1,22.44,22.44,0,0,1-19.67,0,.78.78,0,0,1,.69-1.41,20.81,20.81,0,0,0,18.3,0A.81.81,0,0,1,278,246Z" fill="none" stroke="#003a50" stroke-miterlimit="10"/><path d="M278,250.36a.78.78,0,0,1,.7.43.78.78,0,0,1-.36,1.05,22.44,22.44,0,0,1-19.67,0,.78.78,0,0,1,.69-1.4,20.89,20.89,0,0,0,18.3,0A.68.68,0,0,1,278,250.36Z" fill="none" stroke="#003a50" stroke-miterlimit="10"/><path d="M278,254.69a.77.77,0,0,1,.7.44.79.79,0,0,1-.36,1.05,22.44,22.44,0,0,1-19.67,0,.78.78,0,0,1,.69-1.41,20.81,20.81,0,0,0,18.3,0A.81.81,0,0,1,278,254.69Z" fill="none" stroke="#003a50" stroke-miterlimit="10"/><path d="M278,228.68a.77.77,0,0,1,.7.44.79.79,0,0,1-.36,1,22.44,22.44,0,0,1-19.67,0,.78.78,0,0,1,.69-1.41,20.81,20.81,0,0,0,18.3,0A.81.81,0,0,1,278,228.68Z" fill="none" stroke="#003a50" stroke-miterlimit="10"/><path d="M278,224.35a.78.78,0,0,1,.7.43.78.78,0,0,1-.36,1.05,22.44,22.44,0,0,1-19.67,0,.78.78,0,0,1,.69-1.4,20.89,20.89,0,0,0,18.3,0A.68.68,0,0,1,278,224.35Z" fill="none" stroke="#003a50" stroke-miterlimit="10"/></g><line x1="268.5" y1="219.69" x2="268.5" y2="367.67" fill="none" stroke="#003a50" stroke-miterlimit="10"/><g clip-path="url(#clip-path)"><path d="M278,259.49a.78.78,0,0,1,.34,1.49,22.44,22.44,0,0,1-19.67,0,.78.78,0,0,1,.69-1.41,20.81,20.81,0,0,0,18.3,0A.81.81,0,0,1,278,259.49Z" fill="none" stroke="#003a50" stroke-miterlimit="10"/><path d="M278,263.83a.77.77,0,0,1,.7.44.78.78,0,0,1-.36,1,22.35,22.35,0,0,1-19.67,0,.78.78,0,0,1,.69-1.4,20.81,20.81,0,0,0,18.3,0A.68.68,0,0,1,278,263.83Z" fill="none" stroke="#003a50" stroke-miterlimit="10"/><path d="M278,268.16a.77.77,0,0,1,.7.44.78.78,0,0,1-.36,1,22.44,22.44,0,0,1-19.67,0,.78.78,0,0,1,.69-1.41,20.81,20.81,0,0,0,18.3,0A.81.81,0,0,1,278,268.16Z" fill="none" stroke="#003a50" stroke-miterlimit="10"/></g><rect x="281.8" y="219.56" width="34.54" height="26.5" fill="none" stroke="#003a50" stroke-miterlimit="10"/><g clip-path="url(#clip-path)"><path d="M295.26,242.24a.77.77,0,0,0,.44.7.78.78,0,0,0,1-.35,22.37,22.37,0,0,0,0-19.68.78.78,0,0,0-1.4.69,20.81,20.81,0,0,1,0,18.3A.71.71,0,0,0,295.26,242.24Z" fill="none" stroke="#003a50" stroke-miterlimit="10"/><path d="M299.6,242.24a.78.78,0,0,0,.43.7.79.79,0,0,0,1.05-.35,22.46,22.46,0,0,0,0-19.68.78.78,0,0,0-1-.35.76.76,0,0,0-.36,1,20.89,20.89,0,0,1,0,18.3A.71.71,0,0,0,299.6,242.24Z" fill="none" stroke="#003a50" stroke-miterlimit="10"/><path d="M290.93,242.24a.78.78,0,0,0,.43.7.79.79,0,0,0,1.05-.35,22.46,22.46,0,0,0,0-19.68.78.78,0,0,0-1-.35.76.76,0,0,0-.36,1,20.89,20.89,0,0,1,0,18.3A.71.71,0,0,0,290.93,242.24Z" fill="none" stroke="#003a50" stroke-miterlimit="10"/><path d="M286.59,242.24a.77.77,0,0,0,.44.7.78.78,0,0,0,1-.35,22.37,22.37,0,0,0,0-19.68.78.78,0,0,0-1.4.69,20.81,20.81,0,0,1,0,18.3A.71.71,0,0,0,286.59,242.24Z" fill="none" stroke="#003a50" stroke-miterlimit="10"/></g><line x1="281.93" y1="232.75" x2="316.2" y2="232.75" fill="none" stroke="#003a50" stroke-miterlimit="10"/><rect x="281.8" y="341.31" width="34.54" height="26.5" fill="none" stroke="#003a50" stroke-miterlimit="10"/><g clip-path="url(#clip-path)"><path d="M295.26,364a.77.77,0,0,0,.44.7.78.78,0,0,0,1-.36,22.35,22.35,0,0,0,0-19.67.78.78,0,0,0-1.4.69,20.81,20.81,0,0,1,0,18.3A.68.68,0,0,0,295.26,364Z" fill="none" stroke="#003a50" stroke-miterlimit="10"/><path d="M299.6,364a.78.78,0,0,0,.43.7.78.78,0,0,0,1.05-.36,22.44,22.44,0,0,0,0-19.67.78.78,0,0,0-1.4.69,20.89,20.89,0,0,1,0,18.3A.68.68,0,0,0,299.6,364Z" fill="none" stroke="#003a50" stroke-miterlimit="10"/><path d="M290.93,364a.78.78,0,0,0,.43.7.78.78,0,0,0,1.05-.36,22.44,22.44,0,0,0,0-19.67.78.78,0,0,0-1.4.69,20.89,20.89,0,0,1,0,18.3A.68.68,0,0,0,290.93,364Z" fill="none" stroke="#003a50" stroke-miterlimit="10"/><path d="M286.59,364a.77.77,0,0,0,.44.7.78.78,0,0,0,1-.36,22.35,22.35,0,0,0,0-19.67.78.78,0,0,0-1.4.69,20.81,20.81,0,0,1,0,18.3A.68.68,0,0,0,286.59,364Z" fill="none" stroke="#003a50" stroke-miterlimit="10"/></g><line x1="281.93" y1="354.5" x2="316.2" y2="354.5" fill="none" stroke="#003a50" stroke-miterlimit="10"/><g clip-path="url(#clip-path)"><path d="M167.09,118.06V115a38.71,38.71,0,0,0-38.71-38.71v41.79" fill="none" stroke="#003a50" stroke-miterlimit="10" stroke-width="1.6"/><path d="M370.23,177.82v3.53a44.37,44.37,0,0,1-44.38,44.37v-47.9" fill="none" stroke="#003a50" stroke-miterlimit="10" stroke-width="1.6"/><path d="M57.93,109.43H53.86A51.12,51.12,0,0,1,2.74,58.3H57.93" fill="none" stroke="#003a50" stroke-miterlimit="10" stroke-width="1.6"/><path d="M58.47,376.05H54.4A51.13,51.13,0,0,0,3.27,427.17h55.2" fill="none" stroke="#003a50" stroke-miterlimit="10" stroke-width="1.6"/><rect x="52.69" y="36.74" width="16.32" height="22.32" fill="#003a50"/><rect x="52.69" y="108.39" width="16.32" height="100.85" fill="#003a50"/><rect x="52.69" y="36.74" width="45.82" height="10" fill="#003a50"/><rect x="52.69" y="198.53" width="51.56" height="11.71" fill="#003a50"/><rect x="92.55" y="198.53" width="11.71" height="31.86" fill="#003a50"/><rect x="52.69" y="201.74" width="10.82" height="175.07" fill="#003a50"/><rect x="87.75" y="-31.93" width="10.75" height="78.67" fill="#003a50"/><rect x="87.75" y="0.36" width="447.72" height="16.32" fill="#003a50"/><rect x="460.5" y="173.07" width="74.97" height="21.34" fill="#003a50"/><rect x="247.5" y="367.73" width="287.97" height="16.26" fill="#003a50"/><rect x="93.5" y="212.9" width="160.47" height="17.49" fill="#003a50"/><rect x="237.72" y="214.73" width="17.28" height="252.92" fill="#003a50"/><rect x="531.47" y="-21.23" width="37.77" height="96.07" fill="#003a50"/><rect x="535.47" y="48.93" width="44.33" height="25.9" fill="#003a50"/><rect x="531.47" y="345.77" width="34.44" height="96.07" fill="#003a50"/><rect x="531.47" y="162.21" width="34.44" height="96.07" fill="#003a50"/><rect x="535.47" y="232.37" width="44.33" height="25.9" fill="#003a50"/><rect x="166.26" y="114.43" width="50.48" height="6.38" fill="#003a50"/><rect x="63.5" y="114.43" width="65.7" height="6.38" fill="#003a50"/><rect x="300.93" y="-33.19" width="6.38" height="41.71" fill="#003a50"/><rect x="219.24" y="-30.4" width="6.38" height="40.58" fill="#003a50"/><rect x="196.05" y="-55.59" width="6.38" height="60.48" fill="#003a50"/><rect x="63.5" y="150.93" width="39.24" height="6.38" fill="#003a50"/><rect x="97.88" y="117.62" width="6.38" height="82.4" fill="#003a50"/><rect x="213.54" y="114.43" width="6.38" height="100.79" fill="#003a50"/><rect x="52.69" y="-26.51" width="6.38" height="73.25" fill="#003a50"/><rect x="213.54" y="7.41" width="6.38" height="39.33" fill="#003a50"/><rect x="251.57" y="212.9" width="64" height="6.38" fill="#003a50"/><rect x="369.32" y="175.07" width="102.25" height="6.38" fill="#003a50"/><rect x="84.16" y="-20.94" width="6.38" height="58.66" fill="#003a50"/><line x1="218.74" y1="45.53" x2="218.74" y2="48.36" fill="none" stroke="#003a50" stroke-miterlimit="10"/><line x1="218.74" y1="53.6" x2="218.74" y2="113.85" fill="none" stroke="#003a50" stroke-miterlimit="10" stroke-dasharray="5.24 5.24"/><line x1="218.74" y1="116.47" x2="218.74" y2="119.31" fill="none" stroke="#003a50" stroke-miterlimit="10"/><rect x="166.26" y="114.43" width="50.48" height="6.38" fill="#003a50"/><rect x="63.5" y="114.43" width="65.7" height="6.38" fill="#003a50"/><rect x="63.5" y="150.93" width="39.24" height="6.38" fill="#003a50"/><rect x="97.88" y="117.62" width="6.38" height="82.4" fill="#003a50"/><rect x="213.54" y="114.43" width="6.38" height="100.79" fill="#003a50"/><rect x="52.69" y="-26.51" width="6.38" height="73.25" fill="#003a50"/><rect x="213.54" y="7.41" width="6.38" height="39.33" fill="#003a50"/><rect x="251.57" y="212.9" width="67.89" height="6.38" fill="#003a50"/><rect x="369.32" y="175.07" width="102.25" height="6.38" fill="#003a50"/><rect x="316.27" y="175.07" width="10.41" height="6.38" fill="#003a50"/><rect x="316.27" y="175.07" width="6.38" height="87.74" fill="#003a50"/><rect x="316.27" y="317.56" width="6.38" height="59.44" fill="#003a50"/><rect x="84.16" y="-20.94" width="6.38" height="58.66" fill="#003a50"/><line x1="218.74" y1="45.53" x2="218.74" y2="48.36" fill="none" stroke="#003a50" stroke-miterlimit="10"/><line x1="218.74" y1="53.6" x2="218.74" y2="113.85" fill="none" stroke="#003a50" stroke-miterlimit="10" stroke-dasharray="5.24 5.24"/><line x1="218.74" y1="116.47" x2="218.74" y2="119.31" fill="none" stroke="#003a50" stroke-miterlimit="10"/></g><g clip-path="url(#clip-path)"><path d="M558.18,110.37a5.19,5.19,0,0,1-6.23,0,4,4,0,0,1,0-5.74,5.19,5.19,0,0,1,6.23,0,4,4,0,0,1,0,5.74Zm-1-4.6a4,4,0,0,0-4.29,0,2.22,2.22,0,0,0,0,3.46,4,4,0,0,0,4.29,0,2.22,2.22,0,0,0,0-3.46Z" fill="#003a50"/><path d="M559.17,102a.68.68,0,0,1-.56.23A.71.71,0,0,1,558,102a.85.85,0,0,1-.21-.61.87.87,0,0,1,.21-.61.75.75,0,0,1,.57-.23.71.71,0,0,1,.56.23.87.87,0,0,1,.21.61A.85.85,0,0,1,559.17,102Z" fill="#003a50"/><path d="M553.23,92.44V94l-.12,0-.31.15a1.91,1.91,0,0,0-.35.27,1.24,1.24,0,0,0-.29.51,2,2,0,0,0-.12.71,1.8,1.8,0,0,0,.73,1.52,3.18,3.18,0,0,0,1.89.53v0a1,1,0,0,1-.3-.31,3.19,3.19,0,0,1-.26-.42,3.25,3.25,0,0,1-.21-.68,4,4,0,0,1-.1-.85,3.56,3.56,0,0,1,.79-2.38,2.46,2.46,0,0,1,2-.92,2.54,2.54,0,0,1,2.06,1,3.93,3.93,0,0,1,.77,2.54,3.38,3.38,0,0,1-1.09,2.73,4.48,4.48,0,0,1-3,.93H555a4.81,4.81,0,0,1-3-.93,3.16,3.16,0,0,1-1.21-2.68,4.14,4.14,0,0,1,.26-1.5,2.73,2.73,0,0,1,.66-1A2.46,2.46,0,0,1,553.23,92.44Zm2.22,1.76a2.32,2.32,0,0,0-.41,1.4,2.27,2.27,0,0,0,.41,1.39,1.33,1.33,0,0,0,1.12.55,1.31,1.31,0,0,0,1.1-.54,2.54,2.54,0,0,0,0-2.8,1.32,1.32,0,0,0-1.1-.55A1.35,1.35,0,0,0,555.45,94.2Z" fill="#003a50"/><path d="M558.18,334.22a5.19,5.19,0,0,1-6.23,0,4,4,0,0,1,0-5.74,5.19,5.19,0,0,1,6.23,0,4,4,0,0,1,0,5.74Zm-1-4.61a4.08,4.08,0,0,0-4.29,0,2.23,2.23,0,0,0,0,3.47,4,4,0,0,0,4.29,0,2,2,0,0,0,.83-1.73A2.07,2.07,0,0,0,557.21,329.61Z" fill="#003a50"/><path d="M559.17,325.89a.71.71,0,0,1-.56.23.75.75,0,0,1-.57-.23.87.87,0,0,1-.21-.61.85.85,0,0,1,.21-.61.75.75,0,0,1,.57-.23.71.71,0,0,1,.56.23.82.82,0,0,1,.22.61A.83.83,0,0,1,559.17,325.89Z" fill="#003a50"/><path d="M553.23,316.28v1.56l-.12,0a1.2,1.2,0,0,0-.31.15,1.91,1.91,0,0,0-.35.27,1.27,1.27,0,0,0-.29.5,2.09,2.09,0,0,0-.12.72,1.77,1.77,0,0,0,.73,1.51,3.11,3.11,0,0,0,1.89.54v0a1.11,1.11,0,0,1-.3-.31,2.73,2.73,0,0,1-.26-.43,3.14,3.14,0,0,1-.21-.67,4,4,0,0,1-.09-.86,3.57,3.57,0,0,1,.78-2.38,2.62,2.62,0,0,1,4,.05,3.87,3.87,0,0,1,.78,2.54,3.41,3.41,0,0,1-1.09,2.73,4.51,4.51,0,0,1-3,.93H555a4.81,4.81,0,0,1-3-.93,3.18,3.18,0,0,1-1.21-2.68A4.06,4.06,0,0,1,551,318a2.86,2.86,0,0,1,.66-1A2.48,2.48,0,0,1,553.23,316.28Zm2.22,1.77a2.58,2.58,0,0,0,0,2.79,1.33,1.33,0,0,0,1.12.55,1.31,1.31,0,0,0,1.1-.54,2.54,2.54,0,0,0,0-2.8,1.29,1.29,0,0,0-1.1-.55A1.35,1.35,0,0,0,555.45,318.05Z" fill="#003a50"/><path d="M308.23,283h-5.82v-1.84h8.86V283l-4.52,2.65v.07H308a3.91,3.91,0,0,1,2.8,1,3.52,3.52,0,0,1,1.05,2.67,3.32,3.32,0,0,1-1.33,2.82,7,7,0,0,1-7.24,0,3.36,3.36,0,0,1-1.33-2.86V289h2.11v.32c0,1.37.95,2,2.84,2s2.84-.67,2.84-2-.95-2-2.84-2h-3.26v-1.67l4.57-2.68Z" fill="#003a50"/><path d="M314,292.9a1,1,0,0,1-.32-.81,1,1,0,0,1,.32-.81,1.45,1.45,0,0,1,1.74,0,1.07,1.07,0,0,1,.32.81,1,1,0,0,1-.32.81,1.45,1.45,0,0,1-1.74,0Z" fill="#003a50"/><path d="M319.88,283.68l-2.49,1.95v-2.24l2.73-2.27H322V293h-2.11Z" fill="#003a50"/><path d="M457.71,228.67l-2.48,2v-2.25l2.73-2.26h1.86V238h-2.11Z" fill="#003a50"/><path d="M468.54,228h-5.82v-1.84h8.86V228l-4.52,2.65v.07h1.28a3.86,3.86,0,0,1,2.79,1,3.52,3.52,0,0,1,1.05,2.66,3.33,3.33,0,0,1-1.33,2.83,7,7,0,0,1-7.24,0,3.36,3.36,0,0,1-1.33-2.86V234h2.11v.32c0,1.36.95,2,2.84,2s2.84-.67,2.84-2-.95-2-2.84-2H464v-1.67l4.57-2.68Z" fill="#003a50"/><path d="M474.28,237.89a1,1,0,0,1-.32-.8,1.07,1.07,0,0,1,.32-.81,1.41,1.41,0,0,1,1.74,0,1.07,1.07,0,0,1,.32.81,1,1,0,0,1-.32.8,1.41,1.41,0,0,1-1.74,0Z" fill="#003a50"/><path d="M480.19,228.67l-2.49,2v-2.25l2.74-2.26h1.86V238h-2.11Z" fill="#003a50"/><path d="M460.28,105.06l-2.48,2v-2.24l2.73-2.27h1.86v11.91h-2.11Z" fill="#003a50"/><path d="M473.59,113.65a7.73,7.73,0,0,1-7.37,0,3,3,0,0,1-1.37-2.56,2.7,2.7,0,0,1,.26-1.16,2.41,2.41,0,0,1,.65-.86,4.14,4.14,0,0,1,1.4-.77l.26-.07v-.09a3,3,0,0,1-.77-.29,2.61,2.61,0,0,1-.66-.44,2.2,2.2,0,0,1-.54-.75,2.46,2.46,0,0,1-.23-1,2.82,2.82,0,0,1,1.26-2.39,5.74,5.74,0,0,1,3.42-.89,5.81,5.81,0,0,1,3.43.89,2.84,2.84,0,0,1,1.25,2.39,2.62,2.62,0,0,1-.22,1,2,2,0,0,1-.56.74,3.59,3.59,0,0,1-1.19.68l-.23,0v.09l.29.07c.09,0,.3.12.62.27a4.09,4.09,0,0,1,.77.5,2.78,2.78,0,0,1,.61.82,2.58,2.58,0,0,1,.28,1.2A3,3,0,0,1,473.59,113.65Zm-5.79-1.36a4.88,4.88,0,0,0,4.2,0,1.59,1.59,0,0,0,0-2.69,4.93,4.93,0,0,0-4.2,0,1.58,1.58,0,0,0,0,2.68Zm-.37-6.52a1.39,1.39,0,0,0,.65,1.2,4.07,4.07,0,0,0,3.64,0,1.39,1.39,0,0,0,.65-1.2,1.36,1.36,0,0,0-.66-1.2,4,4,0,0,0-3.62,0A1.36,1.36,0,0,0,467.43,105.77Z" fill="#003a50"/><path d="M477.06,114.28a1.15,1.15,0,0,1,0-1.61,1.23,1.23,0,0,1,.87-.3,1.2,1.2,0,0,1,.86.3,1.15,1.15,0,0,1,0,1.61,1.2,1.2,0,0,1-.86.3A1.23,1.23,0,0,1,477.06,114.28Z" fill="#003a50"/><path d="M487.17,104.35h-5.83V102.5h8.86v1.85L485.68,107v.07H487a3.9,3.9,0,0,1,2.79,1,3.52,3.52,0,0,1,1.05,2.67,3.32,3.32,0,0,1-1.33,2.82,6.93,6.93,0,0,1-7.24,0,3.38,3.38,0,0,1-1.33-2.85v-.33H483v.33c0,1.36.95,2,2.84,2s2.84-.67,2.84-2-.94-2-2.84-2h-3.26v-1.67l4.58-2.68Z" fill="#003a50"/><path d="M137.23,121.71h-5.82v-1.84h8.86v1.84l-4.52,2.65v.07H137a3.86,3.86,0,0,1,2.79,1,3.52,3.52,0,0,1,1.05,2.66,3.33,3.33,0,0,1-1.33,2.83,7,7,0,0,1-7.24,0,3.39,3.39,0,0,1-1.33-2.86v-.32h2.11v.32c0,1.36.95,2,2.84,2s2.84-.67,2.84-2-.94-2-2.84-2h-3.26v-1.67l4.57-2.68Z" fill="#003a50"/><path d="M143,131.64a1,1,0,0,1-.32-.8A1.07,1.07,0,0,1,143,130a1.41,1.41,0,0,1,1.74,0,1.07,1.07,0,0,1,.32.81,1,1,0,0,1-.32.8,1.41,1.41,0,0,1-1.74,0Z" fill="#003a50"/><path d="M156.59,123.22h-2.21s0-.06,0-.17a2.53,2.53,0,0,0-.22-.44,2.4,2.4,0,0,0-.39-.5,1.77,1.77,0,0,0-.71-.41,2.93,2.93,0,0,0-1-.16,2.51,2.51,0,0,0-2.15,1,4.39,4.39,0,0,0-.76,2.68h.06a1.63,1.63,0,0,1,.44-.43,3.44,3.44,0,0,1,1.56-.67,5.41,5.41,0,0,1,1.21-.13,5,5,0,0,1,3.37,1.11,3.52,3.52,0,0,1,1.31,2.8,3.59,3.59,0,0,1-1.36,2.91,5.59,5.59,0,0,1-3.61,1.1,4.81,4.81,0,0,1-3.87-1.54,6.38,6.38,0,0,1-1.32-4.27v-.41a6.85,6.85,0,0,1,1.32-4.31,4.52,4.52,0,0,1,3.8-1.71,5.87,5.87,0,0,1,2.13.37,4,4,0,0,1,1.44.94A3.45,3.45,0,0,1,156.59,123.22Zm-2.51,3.15a3.65,3.65,0,0,0-4,0,2,2,0,0,0,0,3.15,3.63,3.63,0,0,0,4,0,2,2,0,0,0,0-3.15Z" fill="#003a50"/><path d="M89.22,90.77H87.11V88.12h-7V86.28l6.3-7.42h2.79v7.42h1.59v1.84H89.22Zm-2.11-4.49V81H87l-4.47,5.28v0Z" fill="#003a50"/><path d="M92.5,90.64a1.15,1.15,0,0,1,0-1.61,1.4,1.4,0,0,1,1.73,0,1.15,1.15,0,0,1,0,1.61,1.4,1.4,0,0,1-1.73,0Z" fill="#003a50"/><path d="M105.08,90a6.43,6.43,0,0,1-3.68.93A6.5,6.5,0,0,1,97.71,90a3,3,0,0,1-1.37-2.56,2.66,2.66,0,0,1,.26-1.16,2.32,2.32,0,0,1,.66-.86,4,4,0,0,1,1.39-.77l.26-.07v-.09a3.32,3.32,0,0,1-.76-.29,2.51,2.51,0,0,1-.67-.44,2.15,2.15,0,0,1-.54-.76,2.37,2.37,0,0,1-.22-1A2.79,2.79,0,0,1,98,79.59a7,7,0,0,1,6.85,0A2.84,2.84,0,0,1,106.07,82a2.62,2.62,0,0,1-.22,1,2,2,0,0,1-.55.74,3.72,3.72,0,0,1-1.2.68l-.22,0v.09l.28.07c.1,0,.31.12.62.26a4.28,4.28,0,0,1,.77.51,2.83,2.83,0,0,1,.62.82,2.71,2.71,0,0,1,.27,1.2A3,3,0,0,1,105.08,90Zm-5.79-1.36a4.88,4.88,0,0,0,4.2,0,1.5,1.5,0,0,0,.74-1.35,1.48,1.48,0,0,0-.74-1.34,4.93,4.93,0,0,0-4.2,0,1.58,1.58,0,0,0,0,2.68Zm-.36-6.52a1.35,1.35,0,0,0,.64,1.19,4,4,0,0,0,3.65,0,1.42,1.42,0,0,0,0-2.39,4,4,0,0,0-3.62,0A1.35,1.35,0,0,0,98.93,82.13Z" fill="#003a50"/></g></svg>