<svg id="Слой_1" data-name="Слой 1" xmlns="http://www.w3.org/2000/svg" xmlns:xlink="http://www.w3.org/1999/xlink" viewBox="0 0 581.1 382.68"><defs><clipPath id="clip-path"><polygon points="236.98 0.68 236.98 84.51 0 84.51 0 381.77 580.82 381.77 580.82 49.18 564.52 49.18 564.52 0.68 236.98 0.68" fill="none"/></clipPath></defs><polygon points="54.48 374.15 54.48 381.77 565.69 381.77 565.69 374.9 75.64 374.9 75.64 374.15 54.48 374.15" fill="#fff"/><polygon points="246.71 9.72 246.71 98.76 64.11 98.76 68.21 275.03 68.21 324.65 68.28 369.79 567.25 369.79 567.25 177.9 567.25 126.09 567.25 49.18 564.52 49.18 564.52 9.72 246.71 9.72" fill="#fff"/><rect x="242.09" y="0.68" width="322.43" height="13.9" fill="#fff"/><g clip-path="url(#clip-path)"><rect x="-584.92" y="-1033.13" width="1162.95" height="2240.57" fill="none" stroke="#003a50" stroke-miterlimit="10"/><polygon points="-572.33 71.04 -572.33 1194.59 565.06 1194.59 565.06 -1020.19 -572.33 -1020.34 -572.33 0.33 -572.33 71.04" fill="none" stroke="#003a50" stroke-miterlimit="10"/></g><rect x="540.74" y="74.76" width="4.56" height="87.88" fill="#fff"/><rect x="540.74" y="74.76" width="4.56" height="87.88" fill="none" stroke="#003a50" stroke-miterlimit="10"/><line x1="543.02" y1="74.76" x2="543.02" y2="162.64" fill="none" stroke="#003a50" stroke-miterlimit="10"/><rect x="540.74" y="74.76" width="4.56" height="4.44" fill="#fff"/><rect x="540.74" y="74.76" width="4.56" height="4.44" fill="none" stroke="#003a50" stroke-miterlimit="10"/><rect x="540.74" y="158.2" width="4.56" height="4.44" fill="#fff"/><rect x="540.74" y="158.2" width="4.56" height="4.44" fill="none" stroke="#003a50" stroke-miterlimit="10"/><rect x="540.74" y="118.68" width="4.56" height="4.43" fill="#fff"/><rect x="540.74" y="118.68" width="4.56" height="4.43" fill="none" stroke="#003a50" stroke-miterlimit="10"/><g clip-path="url(#clip-path)"><path d="M540.74,123.12h-2.9c-20.15,0-33.1,15.71-33.1,35.08h36" fill="none" stroke="#003a50" stroke-miterlimit="10"/></g><rect x="540.74" y="257.84" width="4.56" height="87.81" fill="#fff"/><rect x="540.74" y="257.84" width="4.56" height="87.81" fill="none" stroke="#003a50" stroke-miterlimit="10"/><line x1="543.02" y1="345.64" x2="543.02" y2="257.84" fill="none" stroke="#003a50" stroke-miterlimit="10"/><rect x="540.74" y="341.09" width="4.56" height="4.56" fill="#fff"/><rect x="540.74" y="341.09" width="4.56" height="4.56" fill="none" stroke="#003a50" stroke-miterlimit="10"/><rect x="540.74" y="257.83" width="4.56" height="4.56" fill="#fff"/><rect x="540.74" y="257.84" width="4.56" height="4.56" fill="none" stroke="#003a50" stroke-miterlimit="10"/><rect x="540.74" y="298.39" width="4.56" height="4.56" fill="#fff"/><rect x="540.74" y="298.39" width="4.56" height="4.56" fill="none" stroke="#003a50" stroke-miterlimit="10"/><g clip-path="url(#clip-path)"><path d="M540.74,298.39h-2.9c-20.15,0-33.1-16.12-33.1-36h36" fill="none" stroke="#003a50" stroke-miterlimit="10"/></g><rect x="103.15" y="97.92" width="43.96" height="95.52" fill="none" stroke="#003a50" stroke-miterlimit="10"/><g clip-path="url(#clip-path)"><rect x="108.73" y="102.12" width="33.22" height="87.39" rx="13.7" fill="none" stroke="#003a50" stroke-miterlimit="10"/><circle cx="125.25" cy="174.38" r="2.28" transform="translate(-26.32 22.31) rotate(-9.22)" fill="none" stroke="#003a50" stroke-miterlimit="10"/><path d="M163.66,164.85v28.57h23.07V164.85a11.54,11.54,0,1,0-23.07,0Z" fill="none" stroke="#003a50" stroke-miterlimit="10"/></g><rect x="163.66" y="182.33" width="23.08" height="11.08" fill="none" stroke="#003a50" stroke-miterlimit="10"/><g clip-path="url(#clip-path)"><path d="M159.75,240.72a3.16,3.16,0,0,0,2.9-1.95h1.79l4.73,2.83L167,245.09l-2.47-1.35v11h-10.3v-11l-2.46,1.35-2.15-3.49,4.77-2.83h2.39A3.21,3.21,0,0,0,159.75,240.72Z" fill="none" stroke="#003a50" stroke-miterlimit="10"/></g><rect x="143.63" y="231.06" width="31.57" height="30.9" fill="none" stroke="#003a50" stroke-miterlimit="10"/><rect x="270.6" y="332.03" width="34.02" height="34.02" fill="none" stroke="#003a50" stroke-miterlimit="10"/><g clip-path="url(#clip-path)"><path d="M300,356.65a4.64,4.64,0,1,1-4.64-4.64A4.64,4.64,0,0,1,300,356.65Z" fill="none" stroke="#003a50" stroke-miterlimit="10"/><path d="M284.53,356.65A4.64,4.64,0,1,1,279.9,352,4.63,4.63,0,0,1,284.53,356.65Z" fill="none" stroke="#003a50" stroke-miterlimit="10"/><path d="M300,341.56a4.64,4.64,0,1,1-4.64-4.64A4.64,4.64,0,0,1,300,341.56Z" fill="none" stroke="#003a50" stroke-miterlimit="10"/><path d="M284.53,341.56a4.64,4.64,0,1,1-4.63-4.64A4.63,4.63,0,0,1,284.53,341.56Z" fill="none" stroke="#003a50" stroke-miterlimit="10"/></g><rect x="428.63" y="187.23" width="102.05" height="17.01" fill="none" stroke="#003a50" stroke-miterlimit="10"/><polygon points="522.65 196.28 479.76 192.75 436.65 196.28 436.65 198.73 522.65 198.73 522.65 196.28" fill="none" stroke="#003a50" stroke-miterlimit="10"/><rect x="339.67" y="164.16" width="102.05" height="17.01" fill="none" stroke="#003a50" stroke-miterlimit="10"/><polygon points="347.69 172.12 390.59 175.65 433.69 172.12 433.69 169.67 347.69 169.67 347.69 172.12" fill="none" stroke="#003a50" stroke-miterlimit="10"/><rect x="214.42" y="331.9" width="152.36" height="34.28" fill="none" stroke="#003a50" stroke-miterlimit="10"/><g clip-path="url(#clip-path)"><path d="M323,246.3a1.27,1.27,0,0,1,.95,1.51A13.78,13.78,0,0,0,350.8,254a1.26,1.26,0,1,1,2.46.56,16.3,16.3,0,1,1-31.78-7.29A1.25,1.25,0,0,1,323,246.3Z" fill="none" stroke="#003a50" stroke-miterlimit="10"/><path d="M378.15,256a1.26,1.26,0,0,1,1.75-.34,13.79,13.79,0,0,0,15.53-22.78,1.26,1.26,0,1,1,1.41-2.08,16.3,16.3,0,0,1-18.35,26.94A1.25,1.25,0,0,1,378.15,256Z" fill="none" stroke="#003a50" stroke-miterlimit="10"/><path d="M380.66,208.61a1.26,1.26,0,0,1-1.33-1.18,13.78,13.78,0,1,0-27.52,1.63,1.26,1.26,0,0,1-2.52.15,16.3,16.3,0,1,1,32.55-1.93A1.26,1.26,0,0,1,380.66,208.61Z" fill="none" stroke="#003a50" stroke-miterlimit="10"/><path d="M337.18,262.91a12.69,12.69,0,0,1-12-15.48l2-8.88a3.53,3.53,0,0,1,4.24-2.68L344.9,239a23.73,23.73,0,0,0,6,9.44l-1,4.2C348.58,258.55,343.3,263.11,337.18,262.91Z" fill="none" stroke="#003a50" stroke-miterlimit="10"/><path d="M380,254.39l-2.32-1.6a23.81,23.81,0,0,0,13.64-21.32l2.52,1.72c5,3.44,7.4,10,5,15.64A12.7,12.7,0,0,1,380,254.39Z" fill="none" stroke="#003a50" stroke-miterlimit="10"/><path d="M353.14,212.11l-.12-2c-.36-6.12,3.4-12,9.32-13.48a12.66,12.66,0,0,1,15.88,11.48l.12,1.84a23.93,23.93,0,0,0-16.64-1.92A23.5,23.5,0,0,0,353.14,212.11Z" fill="none" stroke="#003a50" stroke-miterlimit="10"/><path d="M350.9,248.39a23.73,23.73,0,0,1-6-9.44,16.51,16.51,0,0,1-.6-2,23.85,23.85,0,0,1,8.84-24.84,23.5,23.5,0,0,1,8.56-4,23.87,23.87,0,0,1,28.92,17.4,22.12,22.12,0,0,1,.68,6,23.81,23.81,0,0,1-13.64,21.32,22.85,22.85,0,0,1-4.48,1.6A23.8,23.8,0,0,1,350.9,248.39Z" fill="none" stroke="#003a50" stroke-miterlimit="10"/></g><rect x="147.63" y="100.7" width="99.69" height="25.39" fill="none" stroke="#003a50" stroke-miterlimit="10"/><g clip-path="url(#clip-path)"><rect x="206.63" y="98.99" width="24.4" height="25.04" rx="2.83" fill="none" stroke="#003a50" stroke-miterlimit="10"/><circle cx="218.83" cy="111.51" r="1.91" fill="none" stroke="#003a50" stroke-miterlimit="10"/><rect x="163.9" y="98.99" width="24.4" height="25.04" rx="2.83" fill="none" stroke="#003a50" stroke-miterlimit="10"/><circle cx="176.1" cy="111.51" r="1.91" fill="none" stroke="#003a50" stroke-miterlimit="10"/></g><polyline points="226.82 363.01 233.61 363.01 240.4 363.01" fill="none" stroke="#003a50" stroke-miterlimit="10"/><line x1="233.63" y1="349.39" x2="233.63" y2="363.01" fill="none" stroke="#003a50" stroke-miterlimit="10"/><g clip-path="url(#clip-path)"><path d="M218.56,338.75V354a3.23,3.23,0,0,0,3.23,3.23h23.6a3.23,3.23,0,0,0,3.23-3.23v-15.2a3.23,3.23,0,0,0-3.23-3.23h-23.6A3.23,3.23,0,0,0,218.56,338.75Z" fill="none" stroke="#003a50" stroke-miterlimit="10"/><path d="M233.63,347.7a2.43,2.43,0,1,0,2.43,2.42A2.42,2.42,0,0,0,233.63,347.7Z" fill="none" stroke="#003a50" stroke-miterlimit="10"/></g><rect x="215.93" y="231.06" width="32.18" height="30.88" fill="none" stroke="#003a50" stroke-miterlimit="10"/><polygon points="92.84 262.06 92.67 199.9 68.04 199.9 68.21 262.06 92.84 262.06" fill="none" stroke="#003a50" stroke-miterlimit="10"/><g clip-path="url(#clip-path)"><path d="M88,235.23H69.44a2.71,2.71,0,0,0-2.71,2.71v17.94a2.71,2.71,0,0,0,2.71,2.7H88a2.71,2.71,0,0,0,2.71-2.7V237.94A2.71,2.71,0,0,0,88,235.23Z" fill="none" stroke="#003a50" stroke-miterlimit="10"/><circle cx="78.72" cy="246.91" r="1.83" transform="matrix(0.99, -0.16, 0.16, 0.99, -38.53, 15.8)" fill="none" stroke="#003a50" stroke-miterlimit="10"/><path d="M103.84,228.81V200h22.79v28.85a11.4,11.4,0,1,1-22.79,0Z" fill="none" stroke="#003a50" stroke-miterlimit="10"/></g><line x1="126.64" y1="211.18" x2="103.84" y2="211.18" fill="none" stroke="#003a50" stroke-miterlimit="10"/><rect x="180.37" y="331.9" width="34.02" height="34.02" fill="none" stroke="#003a50" stroke-miterlimit="10"/><line x1="197.37" y1="351.66" x2="197.37" y2="362.22" fill="none" stroke="#003a50" stroke-miterlimit="10"/><g clip-path="url(#clip-path)"><path d="M198.28,351.66h-1.82a3.4,3.4,0,0,1-3.39-3.4v-11.2h8.61v11.2A3.4,3.4,0,0,1,198.28,351.66Z" fill="none" stroke="#003a50" stroke-miterlimit="10"/></g><line x1="193.9" y1="362.22" x2="200.85" y2="362.22" fill="none" stroke="#003a50" stroke-miterlimit="10"/><g clip-path="url(#clip-path)"><path d="M173.29,410.75V382.19H150.21v28.56a11.54,11.54,0,0,0,23.08,0Z" fill="none" stroke="#003a50" stroke-miterlimit="10"/><rect x="150.21" y="382.19" width="23.08" height="11.08" fill="none" stroke="#003a50" stroke-miterlimit="10"/><rect x="66.01" y="382.2" width="67.72" height="42.22" fill="none" stroke="#003a50" stroke-miterlimit="10"/></g><rect x="68.21" y="332.04" width="105.88" height="33.88" fill="none" stroke="#003a50" stroke-miterlimit="10"/><g clip-path="url(#clip-path)"><path d="M84.18,336.83a1,1,0,0,1,.52-.89.91.91,0,0,1,1.26.45,30.45,30.45,0,0,1,0,25.16.91.91,0,0,1-1.25.46,1,1,0,0,1-.43-1.34,28.32,28.32,0,0,0,0-23.4A1,1,0,0,1,84.18,336.83Z" fill="none" stroke="#003a50" stroke-miterlimit="10"/><path d="M89.37,336.83a1,1,0,0,1,.53-.89.9.9,0,0,1,1.25.45,30.45,30.45,0,0,1,0,25.16.91.91,0,0,1-1.25.46,1,1,0,0,1-.43-1.34,28.32,28.32,0,0,0,0-23.4A1,1,0,0,1,89.37,336.83Z" fill="none" stroke="#003a50" stroke-miterlimit="10"/><path d="M94.57,336.83a1,1,0,0,1,.52-.89.9.9,0,0,1,1.25.45,30.35,30.35,0,0,1,0,25.16.91.91,0,0,1-1.25.46,1,1,0,0,1-.43-1.34,28.22,28.22,0,0,0,0-23.4A1,1,0,0,1,94.57,336.83Z" fill="none" stroke="#003a50" stroke-miterlimit="10"/><path d="M99.76,336.83a1,1,0,0,1,.52-.89.9.9,0,0,1,1.25.45,30.35,30.35,0,0,1,0,25.16.9.9,0,0,1-1.24.46,1,1,0,0,1-.44-1.34,28.22,28.22,0,0,0,0-23.4A1.12,1.12,0,0,1,99.76,336.83Z" fill="none" stroke="#003a50" stroke-miterlimit="10"/><path d="M105,336.83a1,1,0,0,1,.53-.89.9.9,0,0,1,1.25.45,30.45,30.45,0,0,1,0,25.16.91.91,0,0,1-1.25.46,1,1,0,0,1-.43-1.34,28.32,28.32,0,0,0,0-23.4A1,1,0,0,1,105,336.83Z" fill="none" stroke="#003a50" stroke-miterlimit="10"/><path d="M110.14,336.83a1,1,0,0,1,.53-.89.9.9,0,0,1,1.25.45,30.45,30.45,0,0,1,0,25.16.91.91,0,0,1-1.25.46,1,1,0,0,1-.43-1.34,28.22,28.22,0,0,0,0-23.4A1,1,0,0,1,110.14,336.83Z" fill="none" stroke="#003a50" stroke-miterlimit="10"/><path d="M79,336.83a1,1,0,0,1,.52-.89.9.9,0,0,1,1.25.45,30.35,30.35,0,0,1,0,25.16.9.9,0,0,1-1.24.46,1,1,0,0,1-.44-1.34,28.22,28.22,0,0,0,0-23.4A1.12,1.12,0,0,1,79,336.83Z" fill="none" stroke="#003a50" stroke-miterlimit="10"/><path d="M73.79,336.83a1,1,0,0,1,.53-.89.9.9,0,0,1,1.25.45,30.45,30.45,0,0,1,0,25.16.91.91,0,0,1-1.25.46,1,1,0,0,1-.43-1.34,28.22,28.22,0,0,0,0-23.4A1,1,0,0,1,73.79,336.83Z" fill="none" stroke="#003a50" stroke-miterlimit="10"/></g><line x1="68.21" y1="348.97" x2="174.09" y2="348.97" fill="none" stroke="#003a50" stroke-miterlimit="10"/><rect x="332.48" y="331.9" width="34.02" height="34.02" fill="none" stroke="#003a50" stroke-miterlimit="10"/><line x1="339.51" y1="348.9" x2="359.47" y2="348.9" fill="none" stroke="#003a50" stroke-miterlimit="10"/><line x1="349.49" y1="358.88" x2="349.49" y2="338.92" fill="none" stroke="#003a50" stroke-miterlimit="10"/><line x1="342.44" y1="355.96" x2="356.55" y2="341.85" fill="none" stroke="#003a50" stroke-miterlimit="10"/><line x1="356.55" y1="355.96" x2="342.44" y2="341.85" fill="none" stroke="#003a50" stroke-miterlimit="10"/><rect x="143.88" y="199.93" width="103.82" height="31.12" fill="none" stroke="#003a50" stroke-miterlimit="10"/><g clip-path="url(#clip-path)"><path d="M159.54,204.34a.91.91,0,0,1,.51-.82.93.93,0,0,1,1.24.41,26.45,26.45,0,0,1,0,23.12.92.92,0,0,1-1.23.41.9.9,0,0,1-.42-1.22,24.52,24.52,0,0,0,0-21.49A.86.86,0,0,1,159.54,204.34Z" fill="none" stroke="#003a50" stroke-miterlimit="10"/><path d="M164.63,204.34a.93.93,0,0,1,1.75-.41,26.36,26.36,0,0,1,0,23.12.92.92,0,0,1-1.23.41.9.9,0,0,1-.42-1.22,24.52,24.52,0,0,0,0-21.49A.86.86,0,0,1,164.63,204.34Z" fill="none" stroke="#003a50" stroke-miterlimit="10"/><path d="M169.73,204.34a.91.91,0,0,1,.51-.82.92.92,0,0,1,1.23.41,26.36,26.36,0,0,1,0,23.12.92.92,0,0,1-1.65-.81,24.43,24.43,0,0,0,0-21.49A.85.85,0,0,1,169.73,204.34Z" fill="none" stroke="#003a50" stroke-miterlimit="10"/><path d="M174.82,204.34a.92.92,0,0,1,1.74-.41,26.36,26.36,0,0,1,0,23.12.92.92,0,0,1-1.65-.81,24.43,24.43,0,0,0,0-21.49A1,1,0,0,1,174.82,204.34Z" fill="none" stroke="#003a50" stroke-miterlimit="10"/><path d="M179.91,204.34a.92.92,0,0,1,1.74-.41,26.36,26.36,0,0,1,0,23.12.91.91,0,0,1-1.64-.81,24.52,24.52,0,0,0,0-21.49A.86.86,0,0,1,179.91,204.34Z" fill="none" stroke="#003a50" stroke-miterlimit="10"/><path d="M185,204.34a.91.91,0,0,1,.51-.82.93.93,0,0,1,1.24.41,26.45,26.45,0,0,1,0,23.12.92.92,0,0,1-1.23.41.9.9,0,0,1-.42-1.22,24.52,24.52,0,0,0,0-21.49A.86.86,0,0,1,185,204.34Z" fill="none" stroke="#003a50" stroke-miterlimit="10"/><path d="M154.45,204.34a.92.92,0,0,1,1.74-.41,26.36,26.36,0,0,1,0,23.12.91.91,0,0,1-1.64-.81,24.52,24.52,0,0,0,0-21.49A.86.86,0,0,1,154.45,204.34Z" fill="none" stroke="#003a50" stroke-miterlimit="10"/><path d="M149.36,204.34a.92.92,0,0,1,1.74-.41,26.36,26.36,0,0,1,0,23.12.92.92,0,0,1-1.65-.81,24.43,24.43,0,0,0,0-21.49A1,1,0,0,1,149.36,204.34Z" fill="none" stroke="#003a50" stroke-miterlimit="10"/></g><line x1="143.88" y1="215.49" x2="247.71" y2="215.49" fill="none" stroke="#003a50" stroke-miterlimit="10"/><rect x="253.46" y="17.14" width="34.02" height="105.94" fill="none" stroke="#003a50" stroke-miterlimit="10"/><g clip-path="url(#clip-path)"><path d="M282.58,34.46a1,1,0,0,1,.9.56,1,1,0,0,1-.45,1.35,28.77,28.77,0,0,1-25.26,0,1,1,0,0,1-.46-1.34,1,1,0,0,1,1.34-.46,26.81,26.81,0,0,0,23.49,0A1,1,0,0,1,282.58,34.46Z" fill="none" stroke="#003a50" stroke-miterlimit="10"/><path d="M282.58,40a1,1,0,0,1,.45,1.9,28.77,28.77,0,0,1-25.26,0,1,1,0,0,1,.88-1.8,26.72,26.72,0,0,0,23.49,0A1,1,0,0,1,282.58,40Z" fill="none" stroke="#003a50" stroke-miterlimit="10"/><path d="M282.58,45.59a1,1,0,0,1,.9.56A1,1,0,0,1,283,47.5a28.77,28.77,0,0,1-25.26,0,1,1,0,0,1-.46-1.34,1,1,0,0,1,1.34-.46,26.81,26.81,0,0,0,23.49,0A1,1,0,0,1,282.58,45.59Z" fill="none" stroke="#003a50" stroke-miterlimit="10"/><path d="M282.58,51.16a1,1,0,0,1,.45,1.9,28.77,28.77,0,0,1-25.26,0,1,1,0,0,1,.88-1.8,26.72,26.72,0,0,0,23.49,0A1,1,0,0,1,282.58,51.16Z" fill="none" stroke="#003a50" stroke-miterlimit="10"/><path d="M282.58,56.73a1,1,0,0,1,.9.56,1,1,0,0,1-.45,1.34,28.77,28.77,0,0,1-25.26,0,1,1,0,0,1,.88-1.8,26.72,26.72,0,0,0,23.49,0A1,1,0,0,1,282.58,56.73Z" fill="none" stroke="#003a50" stroke-miterlimit="10"/><path d="M282.58,62.29a1,1,0,0,1,.45,1.9,28.77,28.77,0,0,1-25.26,0,1,1,0,0,1,.88-1.8,26.72,26.72,0,0,0,23.49,0A1,1,0,0,1,282.58,62.29Z" fill="none" stroke="#003a50" stroke-miterlimit="10"/><path d="M282.58,28.9a1,1,0,0,1,.45,1.9,28.77,28.77,0,0,1-25.26,0,1,1,0,0,1,.88-1.8,26.72,26.72,0,0,0,23.49,0A1,1,0,0,1,282.58,28.9Z" fill="none" stroke="#003a50" stroke-miterlimit="10"/><path d="M282.58,23.33a1,1,0,0,1,.9.56,1,1,0,0,1-.45,1.35,28.54,28.54,0,0,1-12.63,2.92,28.54,28.54,0,0,1-12.63-2.92,1,1,0,0,1-.46-1.34,1,1,0,0,1,1.34-.46,26.48,26.48,0,0,0,11.75,2.71,26.43,26.43,0,0,0,11.74-2.71A1,1,0,0,1,282.58,23.33Z" fill="none" stroke="#003a50" stroke-miterlimit="10"/></g><line x1="270.4" y1="17.35" x2="270.4" y2="123.07" fill="none" stroke="#003a50" stroke-miterlimit="10"/><g clip-path="url(#clip-path)"><path d="M282.58,68.46a1,1,0,0,1,.45,1.9,28.77,28.77,0,0,1-25.26,0,1,1,0,0,1,.88-1.8,26.72,26.72,0,0,0,23.49,0A1,1,0,0,1,282.58,68.46Z" fill="none" stroke="#003a50" stroke-miterlimit="10"/><path d="M282.58,74a1,1,0,0,1,.9.56,1,1,0,0,1-.45,1.35,28.77,28.77,0,0,1-25.26,0,1,1,0,0,1-.46-1.34,1,1,0,0,1,1.34-.46,26.81,26.81,0,0,0,23.49,0A.9.9,0,0,1,282.58,74Z" fill="none" stroke="#003a50" stroke-miterlimit="10"/><path d="M282.58,79.59a1,1,0,0,1,.45,1.9,28.77,28.77,0,0,1-25.26,0,1,1,0,0,1,.88-1.8,26.72,26.72,0,0,0,23.49,0A1,1,0,0,1,282.58,79.59Z" fill="none" stroke="#003a50" stroke-miterlimit="10"/><path d="M470.36,319.24v41H424.59V317h43.55A2.22,2.22,0,0,1,470.36,319.24Z" fill="none" stroke="#003a50" stroke-miterlimit="10"/><path d="M516.23,319v41.26H470.45V319a2,2,0,0,1,2-2h41.8A2,2,0,0,1,516.23,319Z" fill="none" stroke="#003a50" stroke-miterlimit="10"/><path d="M424.59,317a3.1,3.1,0,0,0-3.33-2.82H417a3.1,3.1,0,0,0-3.33,2.82v48.2H527.1V317.45a3.11,3.11,0,0,0-3.33-2.83h-4.22a3.1,3.1,0,0,0-3.32,2.83v42.82H424.59Z" fill="none" stroke="#003a50" stroke-miterlimit="10"/></g><rect x="424.59" y="351.02" width="91.64" height="9.25" fill="none" stroke="#003a50" stroke-miterlimit="10"/><g clip-path="url(#clip-path)"><rect x="300.2" y="382.11" width="34.02" height="84.03" rx="3.31" fill="none" stroke="#003a50" stroke-miterlimit="10"/><rect x="501.04" y="382.23" width="22.68" height="22.68" fill="none" stroke="#003a50" stroke-miterlimit="10"/><rect x="362.6" y="382.23" width="22.68" height="22.68" fill="none" stroke="#003a50" stroke-miterlimit="10"/><rect x="392.14" y="382.23" width="102.05" height="113.38" fill="none" stroke="#003a50" stroke-miterlimit="10"/></g><rect x="446.4" y="17.18" width="22.68" height="22.68" fill="none" stroke="#003a50" stroke-miterlimit="10"/><g clip-path="url(#clip-path)"><path d="M464.24,35a9.19,9.19,0,1,1,0-13A9.17,9.17,0,0,1,464.24,35Z" fill="none" stroke="#003a50" stroke-miterlimit="10"/><path d="M464.87,34.33c-1.7-.17-3.41.49-5.07-1.17-2.44-2.44.15-5-2.3-7.45s-5,.13-7.45-2.3" fill="none" stroke="#003a50" stroke-miterlimit="10"/></g><rect x="312.3" y="17.18" width="22.68" height="22.68" fill="none" stroke="#003a50" stroke-miterlimit="10"/><g clip-path="url(#clip-path)"><path d="M330.14,35a9.19,9.19,0,1,1,0-13A9.17,9.17,0,0,1,330.14,35Z" fill="none" stroke="#003a50" stroke-miterlimit="10"/><path d="M330.77,34.33c-1.7-.17-3.41.49-5.06-1.17-2.44-2.44.14-5-2.3-7.45s-5,.13-7.46-2.3" fill="none" stroke="#003a50" stroke-miterlimit="10"/></g><rect x="339.78" y="17.18" width="102.05" height="113.39" fill="none" stroke="#003a50" stroke-miterlimit="10"/><g clip-path="url(#clip-path)"><path d="M431.83,120.83H349.78a2.09,2.09,0,0,1-2.09-2.08V51.11h86.22v67.64A2.08,2.08,0,0,1,431.83,120.83Z" fill="none" stroke="#003a50" stroke-miterlimit="10"/><rect x="347.44" y="24.62" width="42.5" height="22.88" rx="1.98" fill="none" stroke="#003a50" stroke-miterlimit="10"/><rect x="391.67" y="24.62" width="42.5" height="22.88" rx="1.98" fill="none" stroke="#003a50" stroke-miterlimit="10"/></g><line x1="434.17" y1="64.96" x2="347.44" y2="64.96" fill="none" stroke="#003a50" stroke-miterlimit="10"/><g clip-path="url(#clip-path)"><rect x="367.74" y="-22.32" width="22.68" height="22.68" fill="none" stroke="#003a50" stroke-miterlimit="10"/><rect x="501.83" y="-22.32" width="22.68" height="22.68" fill="none" stroke="#003a50" stroke-miterlimit="10"/><rect x="394.99" y="-113.03" width="102.05" height="113.39" fill="none" stroke="#003a50" stroke-miterlimit="10"/><path d="M244.05,251.27a1,1,0,0,1,.45,1.9,28.77,28.77,0,0,1-25.26,0,1,1,0,0,1,.88-1.8,26.72,26.72,0,0,0,23.49,0A1,1,0,0,1,244.05,251.27Z" fill="none" stroke="#003a50" stroke-miterlimit="10"/><path d="M244.05,245.7a1,1,0,0,1,.9.56,1,1,0,0,1-.45,1.35,28.77,28.77,0,0,1-25.26,0,1,1,0,0,1-.46-1.34,1,1,0,0,1,1.34-.46,26.81,26.81,0,0,0,23.49,0A1,1,0,0,1,244.05,245.7Z" fill="none" stroke="#003a50" stroke-miterlimit="10"/><path d="M244.05,240.14a1,1,0,0,1,.45,1.9,28.77,28.77,0,0,1-25.26,0,1,1,0,0,1,.88-1.8,26.72,26.72,0,0,0,23.49,0A1,1,0,0,1,244.05,240.14Z" fill="none" stroke="#003a50" stroke-miterlimit="10"/></g><line x1="231.87" y1="231.31" x2="231.87" y2="261.73" fill="none" stroke="#003a50" stroke-miterlimit="10"/><g clip-path="url(#clip-path)"><rect x="208.07" y="382.2" width="85.75" height="31.12" fill="none" stroke="#003a50" stroke-miterlimit="10"/><rect x="254.51" y="-147.53" width="26.5" height="148.24" fill="none" stroke="#003a50" stroke-miterlimit="10"/><line x1="267.7" y1="-147.4" x2="267.7" y2="0.58" fill="none" stroke="#003a50" stroke-miterlimit="10"/><rect x="281" y="-25.78" width="34.54" height="26.5" fill="none" stroke="#003a50" stroke-miterlimit="10"/><path d="M135.1,264.7v3.08a38.71,38.71,0,0,1-38.71,38.71V264.7" fill="none" stroke="#003a50" stroke-miterlimit="10" stroke-width="1.6"/><path d="M303,183.6V187a42.58,42.58,0,0,1-42.58,42.59v-46" fill="none" stroke="#003a50" stroke-miterlimit="10" stroke-width="1.6"/><path d="M57.67,274.49H53.61A51.12,51.12,0,0,0,2.48,325.61H57.67" fill="none" stroke="#003a50" stroke-miterlimit="10" stroke-width="1.6"/><path d="M57.67,9H53.61A51.13,51.13,0,0,0,2.48,60.09H57.67" fill="none" stroke="#003a50" stroke-miterlimit="10" stroke-width="1.6"/><path d="M249.5,134h3.08a38.72,38.72,0,0,1,38.71,38.72H249.5" fill="none" stroke="#003a50" stroke-miterlimit="10" stroke-width="1.6"/><rect x="51.89" y="98.2" width="16.32" height="176.83" fill="#003a50"/><rect x="51.89" y="324.65" width="16.32" height="181.89" fill="#003a50"/><rect x="64.36" y="365.89" width="474.34" height="16.32" fill="#003a50"/><rect x="51.89" y="-165.35" width="10.82" height="175.07" fill="#003a50"/><rect x="51.89" y="58.64" width="10.82" height="37.76" fill="#003a50"/><rect x="246.71" y="0.64" width="287.97" height="16.26" fill="#003a50"/><rect x="51.9" y="84.31" width="201.28" height="16.26" fill="#003a50"/><rect x="236.92" y="-152.36" width="17.28" height="252.92" fill="#003a50"/><rect x="530.68" y="163.13" width="37.44" height="94.57" fill="#003a50"/><rect x="534.68" y="231.8" width="39.53" height="25.9" fill="#003a50"/><rect x="530.68" y="-21.32" width="34.44" height="96.07" fill="#003a50"/><rect x="534.68" y="48.84" width="44.33" height="25.9" fill="#003a50"/><rect x="530.68" y="346.08" width="33.77" height="96.07" fill="#003a50"/><rect x="201.69" y="376.1" width="6.38" height="112.92" fill="#003a50"/><rect x="293.82" y="376.1" width="6.38" height="110.35" fill="#003a50"/><rect x="134.08" y="261.95" width="44.36" height="6.38" fill="#003a50"/><rect x="64.11" y="193.45" width="187.46" height="6.38" fill="#003a50"/><rect x="137.25" y="198.64" width="6.38" height="65.34" fill="#003a50"/><rect x="174.09" y="332.04" width="6.38" height="40.91" fill="#003a50"/><rect x="215.61" y="261.95" width="35.96" height="6.38" fill="#003a50"/><rect x="57.67" y="261.95" width="39.55" height="6.38" fill="#003a50"/><rect x="247.83" y="84.31" width="6.38" height="50.48" fill="#003a50"/><rect x="97.22" y="96.4" width="6.38" height="97.9" fill="#003a50"/><rect x="64.11" y="156.83" width="37.83" height="6.38" fill="#003a50"/><rect x="247.83" y="171.84" width="6.38" height="96.49" fill="#003a50"/><rect x="302.19" y="180.85" width="228.49" height="6.38" fill="#003a50"/><rect x="249.94" y="180.85" width="11.25" height="6.38" fill="#003a50"/><line x1="178.44" y1="268.33" x2="178.44" y2="271.16" fill="none" stroke="#003a50" stroke-miterlimit="10"/><line x1="178.44" y1="276.54" x2="178.44" y2="327.58" fill="none" stroke="#003a50" stroke-miterlimit="10" stroke-dasharray="5.37 5.37"/><line x1="178.44" y1="330.26" x2="178.44" y2="333.1" fill="none" stroke="#003a50" stroke-miterlimit="10"/><rect x="134.08" y="261.95" width="44.36" height="6.38" fill="#003a50"/><rect x="64.11" y="193.45" width="187.46" height="6.38" fill="#003a50"/><rect x="137.25" y="198.64" width="6.38" height="65.34" fill="#003a50"/><rect x="174.09" y="332.04" width="6.38" height="40.91" fill="#003a50"/><rect x="153.08" y="344.72" width="24.71" height="6.38" fill="#003a50"/><rect x="153.08" y="344.72" width="6.38" height="26.75" fill="#003a50"/><rect x="179.62" y="378.16" width="6.38" height="26.75" fill="#003a50"/><rect x="215.61" y="261.95" width="35.96" height="6.38" fill="#003a50"/><rect x="57.67" y="261.95" width="39.55" height="6.38" fill="#003a50"/><rect x="247.83" y="84.31" width="6.38" height="50.48" fill="#003a50"/><rect x="97.22" y="96.4" width="6.38" height="97.9" fill="#003a50"/><rect x="64.11" y="156.83" width="37.83" height="6.38" fill="#003a50"/><rect x="247.83" y="171.84" width="6.38" height="96.49" fill="#003a50"/><rect x="315.48" y="-49.53" width="6.38" height="59.44" fill="#003a50"/><rect x="302.19" y="180.85" width="228.49" height="6.38" fill="#003a50"/><rect x="249.94" y="180.85" width="11.25" height="6.38" fill="#003a50"/><line x1="178.44" y1="268.33" x2="178.44" y2="271.16" fill="none" stroke="#003a50" stroke-miterlimit="10"/><line x1="178.44" y1="276.54" x2="178.44" y2="327.58" fill="none" stroke="#003a50" stroke-miterlimit="10" stroke-dasharray="5.37 5.37"/><line x1="178.44" y1="330.26" x2="178.44" y2="333.1" fill="none" stroke="#003a50" stroke-miterlimit="10"/></g><g clip-path="url(#clip-path)"><path d="M557.39,109.18a5.19,5.19,0,0,1-6.23,0,3.63,3.63,0,0,1-1.2-2.88,3.59,3.59,0,0,1,1.2-2.86,5.19,5.19,0,0,1,6.23,0,3.59,3.59,0,0,1,1.2,2.86A3.63,3.63,0,0,1,557.39,109.18Zm-1-4.61a4,4,0,0,0-4.28,0,2.23,2.23,0,0,0,0,3.47,4,4,0,0,0,4.28,0,2.21,2.21,0,0,0,0-3.47Z" fill="#003a50"/><path d="M558.38,100.85a.72.72,0,0,1-.57.23.75.75,0,0,1-.57-.23,1,1,0,0,1,0-1.23.74.74,0,0,1,.57-.22.71.71,0,0,1,.57.22,1,1,0,0,1,0,1.23Z" fill="#003a50"/><path d="M552.44,91.24V92.8l-.12,0a2.39,2.39,0,0,0-.67.43,1.46,1.46,0,0,0-.29.5,2.3,2.3,0,0,0-.11.71A1.76,1.76,0,0,0,552,96a3.09,3.09,0,0,0,1.89.54v0a1.49,1.49,0,0,1-.31-.31,3.18,3.18,0,0,1-.25-.43,2.62,2.62,0,0,1-.22-.67,4.12,4.12,0,0,1-.09-.86,3.53,3.53,0,0,1,.79-2.38,2.47,2.47,0,0,1,2-.92,2.51,2.51,0,0,1,2,1,3.92,3.92,0,0,1,.78,2.55,3.41,3.41,0,0,1-1.09,2.73,4.48,4.48,0,0,1-3,.93h-.29a4.85,4.85,0,0,1-3-.93,3.22,3.22,0,0,1-1.2-2.69,3.93,3.93,0,0,1,.26-1.5,2.61,2.61,0,0,1,.66-1A2.44,2.44,0,0,1,552.44,91.24ZM554.66,93a2.58,2.58,0,0,0,0,2.79,1.4,1.4,0,0,0,2.22,0,2.22,2.22,0,0,0,.42-1.4,2.26,2.26,0,0,0-.42-1.4,1.31,1.31,0,0,0-1.11-.54A1.3,1.3,0,0,0,554.66,93Z" fill="#003a50"/><path d="M557.39,290.69a5.19,5.19,0,0,1-6.23,0,4,4,0,0,1,0-5.74,5.19,5.19,0,0,1,6.23,0,4,4,0,0,1,0,5.74Zm-1-4.61a4.06,4.06,0,0,0-4.28,0,2.23,2.23,0,0,0,0,3.47,4,4,0,0,0,4.28,0,2,2,0,0,0,.84-1.73A2.05,2.05,0,0,0,556.41,286.08Z" fill="#003a50"/><path d="M558.38,282.36a.72.72,0,0,1-.57.23.75.75,0,0,1-.57-.23.87.87,0,0,1-.21-.61.85.85,0,0,1,.21-.61.71.71,0,0,1,.57-.23.69.69,0,0,1,.57.23.85.85,0,0,1,.21.61A.87.87,0,0,1,558.38,282.36Z" fill="#003a50"/><path d="M552.44,272.75v1.56s-.05,0-.12,0a1.07,1.07,0,0,0-.31.15,1.88,1.88,0,0,0-.36.27,1.57,1.57,0,0,0-.29.5,2.35,2.35,0,0,0-.11.71,1.75,1.75,0,0,0,.73,1.52,3.09,3.09,0,0,0,1.89.54v0a1.49,1.49,0,0,1-.31-.31,2.67,2.67,0,0,1-.25-.43,2.62,2.62,0,0,1-.22-.67,4.12,4.12,0,0,1-.09-.86,3.53,3.53,0,0,1,.79-2.38,2.47,2.47,0,0,1,2-.92,2.51,2.51,0,0,1,2,1,3.92,3.92,0,0,1,.78,2.55,3.38,3.38,0,0,1-1.09,2.73,4.48,4.48,0,0,1-3,.93h-.29a4.85,4.85,0,0,1-3-.93A3.2,3.2,0,0,1,550,276a3.93,3.93,0,0,1,.26-1.5,2.69,2.69,0,0,1,.66-1A2.44,2.44,0,0,1,552.44,272.75Zm2.22,1.77a2.58,2.58,0,0,0,0,2.79,1.3,1.3,0,0,0,1.11.55,1.31,1.31,0,0,0,1.11-.54,2.26,2.26,0,0,0,.42-1.4,2.29,2.29,0,0,0-.42-1.41,1.31,1.31,0,0,0-1.11-.54A1.3,1.3,0,0,0,554.66,274.52Z" fill="#003a50"/><path d="M460.05,290.75l-2.48,1.95v-2.24l2.73-2.27h1.86V300.1h-2.11Z" fill="#003a50"/><path d="M464.91,296.75h2.21s0,.07,0,.18a2.07,2.07,0,0,0,.23.43,2.14,2.14,0,0,0,.41.49,2.2,2.2,0,0,0,.75.42,3.21,3.21,0,0,0,1.05.16,2.66,2.66,0,0,0,2.24-1.06,4.32,4.32,0,0,0,.81-2.71h-.06a2.24,2.24,0,0,1-.44.47,2.38,2.38,0,0,1-.6.39,3.71,3.71,0,0,1-.95.33,5.43,5.43,0,0,1-1.22.13,4.92,4.92,0,0,1-3.37-1.13,3.73,3.73,0,0,1,.05-5.72,5.54,5.54,0,0,1,3.61-1.1,4.81,4.81,0,0,1,3.87,1.54,6.4,6.4,0,0,1,1.32,4.27v.41a6.7,6.7,0,0,1-1.37,4.31,4.71,4.71,0,0,1-3.89,1.71,6,6,0,0,1-2.17-.38A3.81,3.81,0,0,1,466,299,3.33,3.33,0,0,1,464.91,296.75Zm2.77-3.16a3.6,3.6,0,0,0,3.95,0,1.86,1.86,0,0,0,.78-1.57,1.91,1.91,0,0,0-.77-1.58,3.24,3.24,0,0,0-2-.58,3.17,3.17,0,0,0-2,.58,2,2,0,0,0,0,3.15Z" fill="#003a50"/><path d="M477,300a1.17,1.17,0,0,1,0-1.61,1.41,1.41,0,0,1,1.74,0,1.17,1.17,0,0,1,0,1.61,1.41,1.41,0,0,1-1.74,0Z" fill="#003a50"/><path d="M486.33,292.12a5,5,0,0,1,3.34,1.06,4.18,4.18,0,0,1-.05,6,5.38,5.38,0,0,1-3.54,1.08,5.87,5.87,0,0,1-3.57-1,3.19,3.19,0,0,1-1.28-2.69h2.11A1.54,1.54,0,0,0,484,298a3.62,3.62,0,0,0,2,.48,3.17,3.17,0,0,0,2-.57,2.36,2.36,0,0,0,0-3.39,3.25,3.25,0,0,0-2.07-.58,3.7,3.7,0,0,0-1.92.41,2,2,0,0,0-.69.64l-.05.13h-2.11v-6.88h8.87V290h-6.76V293h.05a2,2,0,0,1,.4-.31,3.36,3.36,0,0,1,.54-.26A5.66,5.66,0,0,1,486.33,292.12Z" fill="#003a50"/><path d="M193.7,256.56h-9.93V255a2.74,2.74,0,0,1,.58-1.74,4,4,0,0,1,1.45-1.2c.5-.26,1.12-.54,1.87-.86s1.32-.56,1.87-.78a4.21,4.21,0,0,0,1.45-.91,1.8,1.8,0,0,0,.57-1.3c0-1.26-.89-1.89-2.66-1.89s-2.68.72-2.68,2.16v.41h-2.11v-.41a3.62,3.62,0,0,1,1.26-3,5.39,5.39,0,0,1,3.52-1,5.65,5.65,0,0,1,3.51,1,3.27,3.27,0,0,1,1.27,2.75,3.14,3.14,0,0,1-.56,1.83,4.16,4.16,0,0,1-1.4,1.3,19.77,19.77,0,0,1-1.83.94c-.63.27-1.24.52-1.83.74a5.33,5.33,0,0,0-1.41.75,1.23,1.23,0,0,0-.56,1h7.62Z" fill="#003a50"/><path d="M195.8,256.43a1.17,1.17,0,0,1,0-1.61,1.25,1.25,0,0,1,.88-.3,1.22,1.22,0,0,1,.86.3,1.17,1.17,0,0,1,0,1.61,1.22,1.22,0,0,1-.86.3A1.25,1.25,0,0,1,195.8,256.43Z" fill="#003a50"/><path d="M209.58,256.56h-9.93V255a2.74,2.74,0,0,1,.58-1.74,4,4,0,0,1,1.45-1.2c.49-.26,1.12-.54,1.86-.86l1.88-.78a4.21,4.21,0,0,0,1.45-.91,1.8,1.8,0,0,0,.57-1.3q0-1.89-2.67-1.89t-2.67,2.16v.41H200v-.41a3.62,3.62,0,0,1,1.26-3,5.39,5.39,0,0,1,3.52-1,5.65,5.65,0,0,1,3.51,1,3.3,3.3,0,0,1,1.27,2.75A3.14,3.14,0,0,1,209,250a4.16,4.16,0,0,1-1.4,1.3,18.74,18.74,0,0,1-1.84.94c-.62.27-1.23.52-1.82.74a5.18,5.18,0,0,0-1.41.75,1.23,1.23,0,0,0-.56,1h7.62Z" fill="#003a50"/><path d="M151.14,290h-5.83v-1.85h8.86V290l-4.52,2.64v.07h1.28a3.9,3.9,0,0,1,2.79,1,3.52,3.52,0,0,1,1.05,2.67,3.32,3.32,0,0,1-1.33,2.82,6.93,6.93,0,0,1-7.24,0,3.38,3.38,0,0,1-1.33-2.85v-.33H147v.33c0,1.36,1,2,2.84,2s2.84-.67,2.84-2-.94-2-2.84-2h-3.26v-1.67l4.58-2.68Z" fill="#003a50"/><path d="M156.87,300a1.17,1.17,0,0,1,0-1.61,1.25,1.25,0,0,1,.88-.3,1.22,1.22,0,0,1,.86.3,1.17,1.17,0,0,1,0,1.61,1.22,1.22,0,0,1-.86.3A1.25,1.25,0,0,1,156.87,300Z" fill="#003a50"/><path d="M169.21,300.1H167.1v-2.65h-7v-1.84l6.3-7.42h2.79v7.42h1.59v1.84h-1.59Zm-2.11-4.49v-5.33H167l-4.48,5.28v.05Z" fill="#003a50"/><path d="M106.64,250.59l-2.48,2V250.3l2.73-2.26h1.86v11.9h-2.11Z" fill="#003a50"/><path d="M111.27,259.81a1,1,0,0,1-.32-.8,1.07,1.07,0,0,1,.32-.81,1.25,1.25,0,0,1,.88-.3,1.22,1.22,0,0,1,.86.3,1,1,0,0,1,.32.81,1,1,0,0,1-.32.8,1.22,1.22,0,0,1-.86.3A1.25,1.25,0,0,1,111.27,259.81Z" fill="#003a50"/><path d="M120.56,252A5,5,0,0,1,123.9,253a4.18,4.18,0,0,1,0,6,5.39,5.39,0,0,1-3.55,1.08,5.77,5.77,0,0,1-3.56-1,3.16,3.16,0,0,1-1.29-2.68h2.11a1.53,1.53,0,0,0,.7,1.33,3.61,3.61,0,0,0,2,.49,3.15,3.15,0,0,0,2-.58A2,2,0,0,0,123,256a2.05,2.05,0,0,0-.73-1.71,3.31,3.31,0,0,0-2.07-.58,3.55,3.55,0,0,0-1.92.42,1.84,1.84,0,0,0-.7.64l-.05.12h-2.11V248h8.88v1.84h-6.77v3h.05a2.22,2.22,0,0,1,.4-.31,4,4,0,0,1,.55-.27A5.6,5.6,0,0,1,120.56,252Z" fill="#003a50"/><path d="M185.57,146.94h-2.11v-2.65h-7v-1.84l6.29-7.42h2.79v7.42h1.6v1.84h-1.6Zm-2.11-4.49v-5.32h-.06l-4.48,5.27v0Z" fill="#003a50"/><path d="M188.85,146.81a1,1,0,0,1-.32-.8,1.07,1.07,0,0,1,.32-.81,1.25,1.25,0,0,1,.88-.3,1.22,1.22,0,0,1,.86.3,1,1,0,0,1,.32.81,1,1,0,0,1-.32.8,1.22,1.22,0,0,1-.86.3A1.25,1.25,0,0,1,188.85,146.81Z" fill="#003a50"/><path d="M198.14,139a5,5,0,0,1,3.34,1.07,4.18,4.18,0,0,1,0,6,5.41,5.41,0,0,1-3.55,1.08,5.77,5.77,0,0,1-3.56-1,3.16,3.16,0,0,1-1.29-2.68h2.11a1.54,1.54,0,0,0,.7,1.33,3.62,3.62,0,0,0,2,.48,3.15,3.15,0,0,0,2-.57,2,2,0,0,0,.7-1.68,2.05,2.05,0,0,0-.73-1.71,3.31,3.31,0,0,0-2.07-.58,3.55,3.55,0,0,0-1.92.42,1.84,1.84,0,0,0-.7.64l0,.12H193V135h8.88v1.85h-6.77v3h0a2.31,2.31,0,0,1,.4-.3,3.11,3.11,0,0,1,.55-.27A5.6,5.6,0,0,1,198.14,139Z" fill="#003a50"/><path d="M457.52,137.59,455,139.54V137.3l2.74-2.27h1.86v11.91h-2.11Z" fill="#003a50"/><path d="M467.52,139a5,5,0,0,1,3.34,1.07,4.16,4.16,0,0,1,0,6,5.39,5.39,0,0,1-3.55,1.08,5.79,5.79,0,0,1-3.56-1,3.16,3.16,0,0,1-1.29-2.68h2.11a1.55,1.55,0,0,0,.71,1.33,3.56,3.56,0,0,0,2,.48,3.13,3.13,0,0,0,2-.57A2,2,0,0,0,470,143a2.06,2.06,0,0,0-.74-1.71,3.31,3.31,0,0,0-2.07-.58,3.6,3.6,0,0,0-1.92.42,2,2,0,0,0-.7.64l-.05.12h-2.11V135h8.88v1.85h-6.77v3h.05a2.77,2.77,0,0,1,.4-.3,3.11,3.11,0,0,1,.55-.27A5.6,5.6,0,0,1,467.52,139Z" fill="#003a50"/><path d="M474.23,146.81a1,1,0,0,1-.33-.8,1,1,0,0,1,.33-.81,1.4,1.4,0,0,1,1.73,0,1,1,0,0,1,.33.81,1,1,0,0,1-.33.8,1.4,1.4,0,0,1-1.73,0Z" fill="#003a50"/><path d="M487.84,138.39h-2.2s0-.06,0-.17a2.22,2.22,0,0,0-.22-.44,2.36,2.36,0,0,0-.38-.5,1.8,1.8,0,0,0-.71-.41,3,3,0,0,0-1-.17,2.52,2.52,0,0,0-2.15,1,4.44,4.44,0,0,0-.77,2.69h.06a1.64,1.64,0,0,1,.44-.44,4.24,4.24,0,0,1,.61-.36,3.81,3.81,0,0,1,.95-.3,5.41,5.41,0,0,1,1.21-.13A5.06,5.06,0,0,1,487,140.3a3.51,3.51,0,0,1,1.3,2.8A3.59,3.59,0,0,1,487,146a5.57,5.57,0,0,1-3.61,1.1,4.84,4.84,0,0,1-3.87-1.54,6.38,6.38,0,0,1-1.32-4.27v-.41a6.85,6.85,0,0,1,1.32-4.31,4.52,4.52,0,0,1,3.81-1.71,5.64,5.64,0,0,1,2.12.37,4,4,0,0,1,1.44.94A3.45,3.45,0,0,1,487.84,138.39Zm-2.5,3.15a3.67,3.67,0,0,0-4,0,2,2,0,0,0,0,3.14,3.62,3.62,0,0,0,4,0,2,2,0,0,0,0-3.14Z" fill="#003a50"/></g></svg>