<svg id="Слой_1" data-name="Слой 1" xmlns="http://www.w3.org/2000/svg" xmlns:xlink="http://www.w3.org/1999/xlink" viewBox="0 0 583.94 844.72"><defs><clipPath id="clip-path"><polygon points="0.17 0 0.17 377.43 51.02 377.43 51.02 444.36 157.7 444.36 157.7 829.42 168.55 829.42 168.55 844.72 581.56 844.72 581.56 50.39 563.53 50.39 563.53 0 0.17 0" fill="none"/></clipPath></defs><polygon points="51.02 443.49 51.02 444.36 157.7 444.36 157.7 814.01 163.62 438.54 51.02 443.49" fill="#fff"/><polygon points="53.66 8.14 53.66 293.34 67.39 325.64 67.39 375.14 63.55 435.83 161.96 441.14 161.29 827.28 565.13 826.51 565.13 430.36 564.87 430.36 564.87 50.39 563.53 50.39 563.53 8.89 74.82 8.89 74.82 8.14 53.66 8.14" fill="#fff"/><rect x="67.46" width="496.07" height="3.78" transform="translate(0 0.5) rotate(-0.09)" fill="#fff"/><g clip-path="url(#clip-path)"><rect x="-585.74" y="-1399.14" width="1162.95" height="2240.57" fill="none" stroke="#003a50" stroke-miterlimit="10"/><polygon points="-573.15 -294.97 -573.15 828.57 564.24 828.57 564.24 -1386.2 -573.15 -1386.35 -573.15 -365.69 -573.15 -294.97" fill="none" stroke="#003a50" stroke-miterlimit="10"/></g><rect x="376.47" y="803.03" width="168" height="4.55" fill="#fff"/><rect x="376.47" y="803.03" width="168" height="4.55" fill="none" stroke="#003a50" stroke-miterlimit="10"/><line x1="544.47" y1="805.3" x2="376.47" y2="805.3" fill="none" stroke="#003a50" stroke-miterlimit="10"/><rect x="499.47" y="803.03" width="4.75" height="4.55" fill="#fff"/><rect x="499.47" y="803.03" width="4.75" height="4.55" fill="none" stroke="#003a50" stroke-miterlimit="10"/><rect x="459.12" y="803.03" width="4.75" height="4.55" fill="#fff"/><rect x="459.12" y="803.03" width="4.75" height="4.55" fill="none" stroke="#003a50" stroke-miterlimit="10"/><rect x="376.47" y="803.03" width="4.75" height="4.55" fill="#fff"/><rect x="376.47" y="803.03" width="4.75" height="4.55" fill="none" stroke="#003a50" stroke-miterlimit="10"/><rect x="418.78" y="803.03" width="4.75" height="4.55" fill="#fff"/><rect x="418.78" y="803.03" width="4.75" height="4.55" fill="none" stroke="#003a50" stroke-miterlimit="10"/><g clip-path="url(#clip-path)"><path d="M418.78,803v-2.9C418.78,780,402,767,381.22,767v36" fill="none" stroke="#003a50" stroke-miterlimit="10"/></g><rect x="539.92" y="626.14" width="4.55" height="181.45" fill="#fff"/><rect x="539.92" y="626.14" width="4.55" height="181.45" fill="none" stroke="#003a50" stroke-miterlimit="10"/><line x1="542.19" y1="807.59" x2="542.19" y2="626.14" fill="none" stroke="#003a50" stroke-miterlimit="10"/><rect x="539.92" y="757.65" width="4.55" height="4.58" fill="#fff"/><rect x="539.92" y="757.65" width="4.55" height="4.58" fill="none" stroke="#003a50" stroke-miterlimit="10"/><rect x="539.92" y="712.29" width="4.55" height="4.58" fill="#fff"/><rect x="539.92" y="712.29" width="4.55" height="4.58" fill="none" stroke="#003a50" stroke-miterlimit="10"/><rect x="539.92" y="803.01" width="4.55" height="4.58" fill="#fff"/><rect x="539.92" y="803.01" width="4.55" height="4.58" fill="none" stroke="#003a50" stroke-miterlimit="10"/><rect x="539.92" y="626.14" width="4.55" height="4.58" fill="#fff"/><rect x="539.92" y="626.14" width="4.55" height="4.58" fill="none" stroke="#003a50" stroke-miterlimit="10"/><rect x="539.92" y="666.93" width="4.55" height="4.58" fill="#fff"/><rect x="539.92" y="666.93" width="4.55" height="4.58" fill="none" stroke="#003a50" stroke-miterlimit="10"/><g clip-path="url(#clip-path)"><path d="M539.92,666.93H537c-20.15,0-33.11-16.21-33.11-36.21h36" fill="none" stroke="#003a50" stroke-miterlimit="10"/><path d="M51.83,803v-2.9C51.83,780,35.5,767,15.35,767v36" fill="none" stroke="#003a50" stroke-miterlimit="10"/></g><rect x="195.58" y="803.02" width="85.54" height="4.56" fill="#fff"/><rect x="195.58" y="803.03" width="85.54" height="4.56" fill="none" stroke="#003a50" stroke-miterlimit="10"/><line x1="195.58" y1="805.3" x2="281.12" y2="805.3" fill="none" stroke="#003a50" stroke-miterlimit="10"/><rect x="195.58" y="803.02" width="4.44" height="4.56" fill="#fff"/><rect x="195.58" y="803.03" width="4.44" height="4.56" fill="none" stroke="#003a50" stroke-miterlimit="10"/><rect x="276.69" y="803.02" width="4.44" height="4.56" fill="#fff"/><rect x="276.69" y="803.03" width="4.44" height="4.56" fill="none" stroke="#003a50" stroke-miterlimit="10"/><rect x="237.18" y="803.02" width="4.44" height="4.56" fill="#fff"/><rect x="237.18" y="803.03" width="4.44" height="4.56" fill="none" stroke="#003a50" stroke-miterlimit="10"/><g clip-path="url(#clip-path)"><path d="M241.62,803v-2.9c0-20.14,15.7-33.1,35.07-33.1v36" fill="none" stroke="#003a50" stroke-miterlimit="10"/></g><rect x="539.91" y="75.8" width="4.56" height="90.17" fill="#fff"/><rect x="539.91" y="75.8" width="4.56" height="90.17" fill="none" stroke="#003a50" stroke-miterlimit="10"/><line x1="542.19" y1="75.8" x2="542.19" y2="165.97" fill="none" stroke="#003a50" stroke-miterlimit="10"/><rect x="539.91" y="75.8" width="4.56" height="4.55" fill="#fff"/><rect x="539.91" y="75.8" width="4.56" height="4.55" fill="none" stroke="#003a50" stroke-miterlimit="10"/><rect x="539.91" y="161.42" width="4.56" height="4.55" fill="#fff"/><rect x="539.91" y="161.42" width="4.56" height="4.55" fill="none" stroke="#003a50" stroke-miterlimit="10"/><rect x="539.91" y="120.87" width="4.56" height="4.55" fill="#fff"/><rect x="539.91" y="120.87" width="4.56" height="4.55" fill="none" stroke="#003a50" stroke-miterlimit="10"/><g clip-path="url(#clip-path)"><path d="M539.92,125.42H537c-20.15,0-33.1,16.12-33.1,36h36" fill="none" stroke="#003a50" stroke-miterlimit="10"/></g><rect x="539.91" y="260.93" width="4.56" height="87.24" fill="#fff"/><rect x="539.91" y="260.93" width="4.56" height="87.24" fill="none" stroke="#003a50" stroke-miterlimit="10"/><line x1="542.19" y1="348.18" x2="542.19" y2="260.93" fill="none" stroke="#003a50" stroke-miterlimit="10"/><rect x="539.91" y="343.53" width="4.56" height="4.65" fill="#fff"/><rect x="539.91" y="343.53" width="4.56" height="4.65" fill="none" stroke="#003a50" stroke-miterlimit="10"/><rect x="539.91" y="260.94" width="4.56" height="4.65" fill="#fff"/><rect x="539.91" y="260.94" width="4.56" height="4.65" fill="none" stroke="#003a50" stroke-miterlimit="10"/><rect x="539.91" y="302.36" width="4.56" height="4.65" fill="#fff"/><rect x="539.91" y="302.36" width="4.56" height="4.65" fill="none" stroke="#003a50" stroke-miterlimit="10"/><g clip-path="url(#clip-path)"><path d="M539.92,302.36H537c-20.15,0-33.1-16.46-33.1-36.77h36" fill="none" stroke="#003a50" stroke-miterlimit="10"/></g><rect x="539.91" y="443.53" width="4.56" height="88.15" fill="#fff"/><rect x="539.91" y="443.53" width="4.56" height="88.15" fill="none" stroke="#003a50" stroke-miterlimit="10"/><line x1="542.19" y1="443.53" x2="542.19" y2="531.68" fill="none" stroke="#003a50" stroke-miterlimit="10"/><rect x="539.91" y="443.53" width="4.56" height="4.57" fill="#fff"/><rect x="539.91" y="443.53" width="4.56" height="4.57" fill="none" stroke="#003a50" stroke-miterlimit="10"/><rect x="539.91" y="527.11" width="4.56" height="4.57" fill="#fff"/><rect x="539.91" y="527.11" width="4.56" height="4.57" fill="none" stroke="#003a50" stroke-miterlimit="10"/><rect x="539.91" y="486.4" width="4.56" height="4.57" fill="#fff"/><rect x="539.91" y="486.4" width="4.56" height="4.57" fill="none" stroke="#003a50" stroke-miterlimit="10"/><g clip-path="url(#clip-path)"><path d="M539.92,491H537c-20.15,0-33.1,16.18-33.1,36.14h36" fill="none" stroke="#003a50" stroke-miterlimit="10"/></g><rect x="102.51" y="170.56" width="98.36" height="45.27" fill="none" stroke="#003a50" stroke-miterlimit="10"/><g clip-path="url(#clip-path)"><rect x="106.56" y="176.31" width="89.98" height="34.21" rx="13.7" fill="none" stroke="#003a50" stroke-miterlimit="10"/><path d="M122.14,191a2.35,2.35,0,1,0,2.35,2.35A2.35,2.35,0,0,0,122.14,191Z" fill="none" stroke="#003a50" stroke-miterlimit="10"/><path d="M202.05,265.61H173.48v23.08h28.57a11.54,11.54,0,0,0,0-23.08Z" fill="none" stroke="#003a50" stroke-miterlimit="10"/></g><rect x="173.49" y="265.61" width="11.08" height="23.08" fill="none" stroke="#003a50" stroke-miterlimit="10"/><g clip-path="url(#clip-path)"><path d="M153.11,262.63a2.75,2.75,0,0,1-2.54-1.71H149l-4.14,2.48,1.88,3.06,2.16-1.18v9.61h9v-9.61l2.16,1.18L162,263.4l-4.18-2.48h-2.09A2.8,2.8,0,0,1,153.11,262.63Z" fill="none" stroke="#003a50" stroke-miterlimit="10"/></g><rect x="139.58" y="254.61" width="27.66" height="26.6" fill="none" stroke="#003a50" stroke-miterlimit="10"/><g clip-path="url(#clip-path)"><path d="M100.58,277.46a.79.79,0,0,0,1.49.35,22.57,22.57,0,0,0,0-19.77.78.78,0,0,0-1.41.69,21,21,0,0,1,0,18.39A.66.66,0,0,0,100.58,277.46Z" fill="none" stroke="#003a50" stroke-miterlimit="10"/><path d="M104.93,277.46a.79.79,0,0,0,.44.7.77.77,0,0,0,1-.35,22.48,22.48,0,0,0,0-19.77.78.78,0,1,0-1.41.69,20.91,20.91,0,0,1,0,18.39A.77.77,0,0,0,104.93,277.46Z" fill="none" stroke="#003a50" stroke-miterlimit="10"/><path d="M109.29,277.46a.79.79,0,0,0,1.49.35,22.57,22.57,0,0,0,0-19.77.78.78,0,0,0-1.41.69,20.91,20.91,0,0,1,0,18.39A.66.66,0,0,0,109.29,277.46Z" fill="none" stroke="#003a50" stroke-miterlimit="10"/><path d="M113.64,277.46a.79.79,0,0,0,1.5.35,22.57,22.57,0,0,0,0-19.77.79.79,0,0,0-1.42.69,20.91,20.91,0,0,1,0,18.39A.77.77,0,0,0,113.64,277.46Z" fill="none" stroke="#003a50" stroke-miterlimit="10"/><path d="M118,277.46a.79.79,0,0,0,1.49.35,22.48,22.48,0,0,0,0-19.77.78.78,0,0,0-1.41.69,20.91,20.91,0,0,1,0,18.39A.66.66,0,0,0,118,277.46Z" fill="none" stroke="#003a50" stroke-miterlimit="10"/><path d="M122.36,277.46a.79.79,0,0,0,1.49.35,22.57,22.57,0,0,0,0-19.77.78.78,0,1,0-1.41.69,21,21,0,0,1,0,18.39A.66.66,0,0,0,122.36,277.46Z" fill="none" stroke="#003a50" stroke-miterlimit="10"/><path d="M96.22,277.46a.79.79,0,0,0,1.49.35,22.48,22.48,0,0,0,0-19.77.78.78,0,0,0-1.41.69,20.91,20.91,0,0,1,0,18.39A.66.66,0,0,0,96.22,277.46Z" fill="none" stroke="#003a50" stroke-miterlimit="10"/><path d="M91.86,277.46a.79.79,0,0,0,1.5.35,22.57,22.57,0,0,0,0-19.77.79.79,0,0,0-1.42.69,20.91,20.91,0,0,1,0,18.39A.77.77,0,0,0,91.86,277.46Z" fill="none" stroke="#003a50" stroke-miterlimit="10"/></g><line x1="87.18" y1="267.92" x2="139.58" y2="267.92" fill="none" stroke="#003a50" stroke-miterlimit="10"/><rect x="86.84" y="254.61" width="52.74" height="26.6" fill="none" stroke="#003a50" stroke-miterlimit="10"/><rect x="228.24" y="433.37" width="33.97" height="34.02" fill="none" stroke="#003a50" stroke-miterlimit="10"/><g clip-path="url(#clip-path)"><path d="M249.55,449.59v-11h-8.61v11a3.54,3.54,0,0,0,3.55,3.54H246A3.54,3.54,0,0,0,249.55,449.59Z" fill="none" stroke="#003a50" stroke-miterlimit="10"/></g><polyline points="241.77 463.69 245.25 463.69 248.72 463.69" fill="none" stroke="#003a50" stroke-miterlimit="10"/><line x1="245.25" y1="453.13" x2="245.25" y2="463.69" fill="none" stroke="#003a50" stroke-miterlimit="10"/><g clip-path="url(#clip-path)"><rect x="123.8" y="476.61" width="34.02" height="33.97" fill="none" stroke="#003a50" stroke-miterlimit="10"/><path d="M145.11,492.09V481H136.5v11a3.55,3.55,0,0,0,3.55,3.54h1.51A3.55,3.55,0,0,0,145.11,492.09Z" fill="none" stroke="#003a50" stroke-miterlimit="10"/></g><rect x="235.16" y="546.98" width="34.02" height="34.02" fill="none" stroke="#003a50" stroke-miterlimit="10"/><g clip-path="url(#clip-path)"><path d="M264.57,571.6a4.64,4.64,0,1,1-4.64-4.64A4.63,4.63,0,0,1,264.57,571.6Z" fill="none" stroke="#003a50" stroke-miterlimit="10"/><path d="M249.09,571.6a4.64,4.64,0,1,1-4.64-4.64A4.63,4.63,0,0,1,249.09,571.6Z" fill="none" stroke="#003a50" stroke-miterlimit="10"/><path d="M264.57,556.51a4.64,4.64,0,1,1-4.64-4.64A4.63,4.63,0,0,1,264.57,556.51Z" fill="none" stroke="#003a50" stroke-miterlimit="10"/><path d="M249.09,556.51a4.64,4.64,0,1,1-4.64-4.64A4.63,4.63,0,0,1,249.09,556.51Z" fill="none" stroke="#003a50" stroke-miterlimit="10"/><rect x="269.78" y="-33.98" width="34.02" height="34.02" fill="none" stroke="#003a50" stroke-miterlimit="10"/><rect x="123.89" y="517.73" width="34.02" height="34.02" fill="none" stroke="#003a50" stroke-miterlimit="10"/><path d="M133.29,547.14a4.64,4.64,0,1,1,4.63-4.64A4.64,4.64,0,0,1,133.29,547.14Z" fill="none" stroke="#003a50" stroke-miterlimit="10"/><path d="M133.29,531.65a4.64,4.64,0,1,1,4.63-4.63A4.63,4.63,0,0,1,133.29,531.65Z" fill="none" stroke="#003a50" stroke-miterlimit="10"/><path d="M148.38,547.14A4.64,4.64,0,1,1,153,542.5,4.64,4.64,0,0,1,148.38,547.14Z" fill="none" stroke="#003a50" stroke-miterlimit="10"/><path d="M148.38,531.65A4.64,4.64,0,1,1,153,527,4.63,4.63,0,0,1,148.38,531.65Z" fill="none" stroke="#003a50" stroke-miterlimit="10"/></g><rect x="380.59" y="228.47" width="102.05" height="17.01" fill="none" stroke="#003a50" stroke-miterlimit="10"/><polygon points="474.62 237.52 431.72 233.99 388.62 237.52 388.62 239.98 474.62 239.98 474.62 237.52" fill="none" stroke="#003a50" stroke-miterlimit="10"/><rect x="354.82" y="199.05" width="175.03" height="17.01" fill="none" stroke="#003a50" stroke-miterlimit="10"/><polygon points="485.34 207.02 442.44 210.54 399.34 207.02 399.34 204.56 485.34 204.56 485.34 207.02" fill="none" stroke="#003a50" stroke-miterlimit="10"/><g clip-path="url(#clip-path)"><rect x="123.89" y="476.71" width="33.59" height="122.25" fill="none" stroke="#003a50" stroke-miterlimit="10"/><rect x="76.82" y="443.99" width="80.66" height="32.72" fill="none" stroke="#003a50" stroke-miterlimit="10"/><rect x="213.6" y="-34.11" width="152.36" height="34.28" fill="none" stroke="#003a50" stroke-miterlimit="10"/></g><rect x="354.14" y="637.37" width="52.33" height="113.67" fill="none" stroke="#003a50" stroke-miterlimit="10"/><g clip-path="url(#clip-path)"><path d="M397.53,647.07h-34a2.11,2.11,0,0,0-2.11,2.11V716.8h38.25V649.18A2.11,2.11,0,0,0,397.53,647.07Z" fill="none" stroke="#003a50" stroke-miterlimit="10"/></g><rect x="361.38" y="702.95" width="38.26" height="13.85" fill="none" stroke="#003a50" stroke-miterlimit="10"/><g clip-path="url(#clip-path)"><rect x="361.32" y="720.41" width="38.71" height="22.88" rx="2.2" fill="none" stroke="#003a50" stroke-miterlimit="10"/></g><rect x="247.78" y="227.98" width="42.22" height="83.62" fill="none" stroke="#003a50" stroke-miterlimit="10"/><g clip-path="url(#clip-path)"><path d="M271.35,247.93a2.46,2.46,0,1,1-2.46-2.46A2.46,2.46,0,0,1,271.35,247.93Z" fill="none" stroke="#003a50" stroke-miterlimit="10"/></g><rect x="66.9" y="58.42" width="25.39" height="71.99" fill="none" stroke="#003a50" stroke-miterlimit="10"/><g clip-path="url(#clip-path)"><rect x="65.19" y="101.69" width="25.04" height="24.4" rx="2.83" fill="none" stroke="#003a50" stroke-miterlimit="10"/><path d="M79.62,113.89A1.91,1.91,0,1,1,77.71,112,1.92,1.92,0,0,1,79.62,113.89Z" fill="none" stroke="#003a50" stroke-miterlimit="10"/><rect x="65.19" y="65.92" width="25.04" height="24.4" rx="2.83" fill="none" stroke="#003a50" stroke-miterlimit="10"/><path d="M79.62,78.12a1.91,1.91,0,1,1-1.91-1.91A1.91,1.91,0,0,1,79.62,78.12Z" fill="none" stroke="#003a50" stroke-miterlimit="10"/><path d="M118.52,471.77v-15.2a3.23,3.23,0,0,0-3.23-3.23H91.69a3.23,3.23,0,0,0-3.23,3.23v15.2A3.24,3.24,0,0,0,91.69,475h23.6A3.24,3.24,0,0,0,118.52,471.77Z" fill="none" stroke="#003a50" stroke-miterlimit="10"/><path d="M103.45,462.83A2.43,2.43,0,1,0,101,460.4,2.42,2.42,0,0,0,103.45,462.83Z" fill="none" stroke="#003a50" stroke-miterlimit="10"/></g><polygon points="206.44 546.85 206.44 467.52 262.21 467.52 262.21 433.24 169.28 433.24 169.28 467.52 172.16 467.52 172.16 546.85 169.28 546.85 169.28 581.13 296.37 581.13 296.37 546.85 206.44 546.85" fill="none" stroke="#003a50" stroke-miterlimit="10"/><polyline points="174.94 491.78 174.94 498.58 174.94 505.37" fill="none" stroke="#003a50" stroke-miterlimit="10"/><line x1="188.56" y1="498.6" x2="174.94" y2="498.6" fill="none" stroke="#003a50" stroke-miterlimit="10"/><g clip-path="url(#clip-path)"><path d="M199.2,483.52H184a3.24,3.24,0,0,0-3.23,3.24v23.59a3.24,3.24,0,0,0,3.23,3.24h15.2a3.24,3.24,0,0,0,3.24-3.24V486.76A3.24,3.24,0,0,0,199.2,483.52Z" fill="none" stroke="#003a50" stroke-miterlimit="10"/><path d="M190.26,498.6a2.43,2.43,0,1,0-2.43,2.42A2.42,2.42,0,0,0,190.26,498.6Z" fill="none" stroke="#003a50" stroke-miterlimit="10"/><path d="M28.42,647.16a1.26,1.26,0,0,1,.94,1.51,13.78,13.78,0,1,0,26.87,6.16,1.26,1.26,0,0,1,2.46.57,16.3,16.3,0,0,1-31.78-7.29A1.26,1.26,0,0,1,28.42,647.16Z" fill="none" stroke="#003a50" stroke-miterlimit="10"/><path d="M83.59,656.88a1.24,1.24,0,0,1,1.74-.33,13.79,13.79,0,1,0,15.53-22.79,1.26,1.26,0,0,1,1.41-2.08,16.3,16.3,0,1,1-18.35,27A1.25,1.25,0,0,1,83.59,656.88Z" fill="none" stroke="#003a50" stroke-miterlimit="10"/><path d="M86.09,609.48a1.26,1.26,0,0,1-1.33-1.18,13.78,13.78,0,1,0-27.52,1.62,1.26,1.26,0,1,1-2.51.16,16.3,16.3,0,1,1,32.54-1.94A1.26,1.26,0,0,1,86.09,609.48Z" fill="none" stroke="#003a50" stroke-miterlimit="10"/><path d="M42.61,663.78a12.69,12.69,0,0,1-12-15.48l2-8.88a3.53,3.53,0,0,1,4.24-2.68l13.44,3.08a23.73,23.73,0,0,0,6,9.44l-1,4.2C54,659.42,48.73,664,42.61,663.78Z" fill="none" stroke="#003a50" stroke-miterlimit="10"/><path d="M85.41,655.26l-2.32-1.6a23.81,23.81,0,0,0,13.64-21.32l2.52,1.72c5,3.44,7.4,10,5,15.64A12.7,12.7,0,0,1,85.41,655.26Z" fill="none" stroke="#003a50" stroke-miterlimit="10"/><path d="M58.57,613l-.12-2c-.36-6.12,3.4-12,9.32-13.48A12.66,12.66,0,0,1,83.65,609l.12,1.84a23.93,23.93,0,0,0-16.64-1.92A23.5,23.5,0,0,0,58.57,613Z" fill="none" stroke="#003a50" stroke-miterlimit="10"/><path d="M56.33,649.26a23.73,23.73,0,0,1-6-9.44,16.51,16.51,0,0,1-.6-2A23.85,23.85,0,0,1,58.57,613a23.5,23.5,0,0,1,8.56-4,23.87,23.87,0,0,1,28.92,17.4,22.12,22.12,0,0,1,.68,6,23.81,23.81,0,0,1-13.64,21.32,22.85,22.85,0,0,1-4.48,1.6A23.8,23.8,0,0,1,56.33,649.26Z" fill="none" stroke="#003a50" stroke-miterlimit="10"/><path d="M210.42,422.41a1,1,0,0,1-.53.89,1,1,0,0,1-1.27-.45,29.05,29.05,0,0,1,0-24.76.93.93,0,0,1,1.27-.45,1,1,0,0,1,.43,1.31,27.08,27.08,0,0,0,0,23A1,1,0,0,1,210.42,422.41Z" fill="none" stroke="#003a50" stroke-miterlimit="10"/><path d="M205.15,422.41a1,1,0,0,1-.53.89,1,1,0,0,1-1.27-.45,29.15,29.15,0,0,1,0-24.76.93.93,0,0,1,1.27-.45,1,1,0,0,1,.43,1.31,27.08,27.08,0,0,0,0,23A1,1,0,0,1,205.15,422.41Z" fill="none" stroke="#003a50" stroke-miterlimit="10"/><path d="M199.89,422.41a1,1,0,0,1-.53.89,1,1,0,0,1-1.27-.45,29.05,29.05,0,0,1,0-24.76.93.93,0,0,1,1.27-.45,1,1,0,0,1,.43,1.31,27.08,27.08,0,0,0,0,23A1,1,0,0,1,199.89,422.41Z" fill="none" stroke="#003a50" stroke-miterlimit="10"/><path d="M194.62,422.41a1,1,0,0,1-.53.89,1,1,0,0,1-1.27-.45,29.15,29.15,0,0,1,0-24.76.93.93,0,0,1,1.27-.45,1,1,0,0,1,.43,1.31,27.08,27.08,0,0,0,0,23A1,1,0,0,1,194.62,422.41Z" fill="none" stroke="#003a50" stroke-miterlimit="10"/><path d="M189.36,422.41a1,1,0,0,1-.53.89.94.94,0,0,1-1.27-.45,29.05,29.05,0,0,1,0-24.76.92.92,0,0,1,1.26-.45,1,1,0,0,1,.44,1.31,27.08,27.08,0,0,0,0,23A1.12,1.12,0,0,1,189.36,422.41Z" fill="none" stroke="#003a50" stroke-miterlimit="10"/><path d="M184.09,422.41a1,1,0,0,1-.53.89,1,1,0,0,1-1.27-.45,29.15,29.15,0,0,1,0-24.76.93.93,0,0,1,1.27-.45A1,1,0,0,1,184,399a27.08,27.08,0,0,0,0,23A1,1,0,0,1,184.09,422.41Z" fill="none" stroke="#003a50" stroke-miterlimit="10"/><path d="M215.68,422.41a1,1,0,0,1-.52.89,1,1,0,0,1-1.28-.45,29.15,29.15,0,0,1,0-24.76.93.93,0,0,1,1.27-.45,1,1,0,0,1,.43,1.31,27.18,27.18,0,0,0,0,23A1,1,0,0,1,215.68,422.41Z" fill="none" stroke="#003a50" stroke-miterlimit="10"/><path d="M221,422.41a1,1,0,0,1-.53.89,1,1,0,0,1-1.27-.45,29.05,29.05,0,0,1,0-24.76.93.93,0,0,1,1.27-.45,1,1,0,0,1,.43,1.31,27.08,27.08,0,0,0,0,23A1,1,0,0,1,221,422.41Z" fill="none" stroke="#003a50" stroke-miterlimit="10"/></g><line x1="291" y1="410.47" x2="172.97" y2="410.47" fill="none" stroke="#003a50" stroke-miterlimit="10"/><rect x="172.97" y="393.52" width="118.02" height="33.34" fill="none" stroke="#003a50" stroke-miterlimit="10"/><g clip-path="url(#clip-path)"><path d="M210.42,615.66a1,1,0,0,1-.53.88.93.93,0,0,1-1.27-.45,29.05,29.05,0,0,1,0-24.76.93.93,0,0,1,1.27-.44,1,1,0,0,1,.43,1.31,27.08,27.08,0,0,0,0,23A.91.91,0,0,1,210.42,615.66Z" fill="none" stroke="#003a50" stroke-miterlimit="10"/><path d="M205.15,615.66a1,1,0,0,1-.53.88.93.93,0,0,1-1.27-.45,29.15,29.15,0,0,1,0-24.76.94.94,0,0,1,1.27-.44,1,1,0,0,1,.43,1.31,27.08,27.08,0,0,0,0,23A.91.91,0,0,1,205.15,615.66Z" fill="none" stroke="#003a50" stroke-miterlimit="10"/><path d="M199.89,615.66a1,1,0,0,1-.53.88.93.93,0,0,1-1.27-.45,29.05,29.05,0,0,1,0-24.76.93.93,0,0,1,1.27-.44,1,1,0,0,1,.43,1.31,27.08,27.08,0,0,0,0,23A.91.91,0,0,1,199.89,615.66Z" fill="none" stroke="#003a50" stroke-miterlimit="10"/><path d="M194.62,615.66a1,1,0,0,1-.53.88.93.93,0,0,1-1.27-.45,29.15,29.15,0,0,1,0-24.76.94.94,0,0,1,1.27-.44,1,1,0,0,1,.43,1.31,27.08,27.08,0,0,0,0,23A.91.91,0,0,1,194.62,615.66Z" fill="none" stroke="#003a50" stroke-miterlimit="10"/><path d="M189.36,615.66a1,1,0,0,1-.53.88.93.93,0,0,1-1.27-.45,29.05,29.05,0,0,1,0-24.76.92.92,0,0,1,1.26-.44,1,1,0,0,1,.44,1.31,27.08,27.08,0,0,0,0,23A1,1,0,0,1,189.36,615.66Z" fill="none" stroke="#003a50" stroke-miterlimit="10"/><path d="M184.09,615.66a1,1,0,0,1-.53.88.93.93,0,0,1-1.27-.45,29.15,29.15,0,0,1,0-24.76.94.94,0,0,1,1.27-.44,1,1,0,0,1,.43,1.31,27.08,27.08,0,0,0,0,23A.91.91,0,0,1,184.09,615.66Z" fill="none" stroke="#003a50" stroke-miterlimit="10"/><path d="M215.68,615.66a1,1,0,0,1-.52.88.94.94,0,0,1-1.28-.45,29.15,29.15,0,0,1,0-24.76.94.94,0,0,1,1.27-.44,1,1,0,0,1,.43,1.31,27.18,27.18,0,0,0,0,23A.91.91,0,0,1,215.68,615.66Z" fill="none" stroke="#003a50" stroke-miterlimit="10"/><path d="M221,615.66a1,1,0,0,1-.53.88.93.93,0,0,1-1.27-.45,29.05,29.05,0,0,1,0-24.76.93.93,0,0,1,1.27-.44,1,1,0,0,1,.43,1.31,27.08,27.08,0,0,0,0,23A.91.91,0,0,1,221,615.66Z" fill="none" stroke="#003a50" stroke-miterlimit="10"/></g><line x1="291" y1="603.71" x2="172.97" y2="603.71" fill="none" stroke="#003a50" stroke-miterlimit="10"/><rect x="172.98" y="586.77" width="118.02" height="33.34" fill="none" stroke="#003a50" stroke-miterlimit="10"/><polygon points="247.52 259.3 174.05 259.08 174.05 228.53 247.52 228.75 247.52 259.3" fill="none" stroke="#003a50" stroke-miterlimit="10"/><g clip-path="url(#clip-path)"><path d="M214.88,253.28v-23a3.36,3.36,0,0,1,3.36-3.36h22.25a3.35,3.35,0,0,1,3.35,3.36v23a3.35,3.35,0,0,1-3.35,3.35H218.24A3.36,3.36,0,0,1,214.88,253.28Z" fill="none" stroke="#003a50" stroke-miterlimit="10"/><path d="M229.36,244a2.27,2.27,0,1,1,2.27-2.26A2.26,2.26,0,0,1,229.36,244Z" fill="none" stroke="#003a50" stroke-miterlimit="10"/><rect x="123.83" y="565.38" width="33.52" height="33.52" fill="none" stroke="#003a50" stroke-miterlimit="10"/></g><rect x="262.21" y="433.37" width="34.02" height="34.02" fill="none" stroke="#003a50" stroke-miterlimit="10"/><line x1="289.2" y1="450.38" x2="269.24" y2="450.38" fill="none" stroke="#003a50" stroke-miterlimit="10"/><line x1="279.22" y1="440.4" x2="279.22" y2="460.36" fill="none" stroke="#003a50" stroke-miterlimit="10"/><line x1="286.28" y1="443.32" x2="272.16" y2="457.43" fill="none" stroke="#003a50" stroke-miterlimit="10"/><line x1="272.16" y1="443.32" x2="286.27" y2="457.43" fill="none" stroke="#003a50" stroke-miterlimit="10"/><g clip-path="url(#clip-path)"><rect x="179.55" y="-34.11" width="34.02" height="34.02" fill="none" stroke="#003a50" stroke-miterlimit="10"/><path d="M172.47,44.74V16.18H149.39V44.74a11.54,11.54,0,1,0,23.08,0Z" fill="none" stroke="#003a50" stroke-miterlimit="10"/></g><rect x="149.39" y="16.18" width="23.08" height="11.08" fill="none" stroke="#003a50" stroke-miterlimit="10"/><rect x="65.19" y="16.19" width="67.72" height="42.22" fill="none" stroke="#003a50" stroke-miterlimit="10"/><g clip-path="url(#clip-path)"><path d="M85.14,34.85a2.46,2.46,0,1,1-2.46,2.46A2.46,2.46,0,0,1,85.14,34.85Z" fill="none" stroke="#003a50" stroke-miterlimit="10"/><rect x="67.39" y="-33.97" width="105.88" height="33.88" fill="none" stroke="#003a50" stroke-miterlimit="10"/><rect x="331.66" y="-34.11" width="34.02" height="34.02" fill="none" stroke="#003a50" stroke-miterlimit="10"/><path d="M208.28,107.47a.79.79,0,0,1-.71-.44.78.78,0,0,1,.36-1,22.57,22.57,0,0,1,19.77,0,.78.78,0,0,1-.69,1.41,20.91,20.91,0,0,0-18.39,0A.71.71,0,0,1,208.28,107.47Z" fill="none" stroke="#003a50" stroke-miterlimit="10"/><path d="M208.28,103.12a.81.81,0,0,1-.71-.44.8.8,0,0,1,.36-1.06,22.57,22.57,0,0,1,19.77,0A.79.79,0,0,1,227,103a20.91,20.91,0,0,0-18.39,0A.84.84,0,0,1,208.28,103.12Z" fill="none" stroke="#003a50" stroke-miterlimit="10"/><path d="M208.28,98.76a.79.79,0,0,1-.71-.44.78.78,0,0,1,.36-1,22.48,22.48,0,0,1,19.77,0,.78.78,0,0,1-.69,1.41,20.91,20.91,0,0,0-18.39,0A.71.71,0,0,1,208.28,98.76Z" fill="none" stroke="#003a50" stroke-miterlimit="10"/><path d="M208.28,94.4a.78.78,0,0,1-.35-1.49,22.57,22.57,0,0,1,19.77,0,.78.78,0,0,1-.69,1.41,21,21,0,0,0-18.39,0A.71.71,0,0,1,208.28,94.4Z" fill="none" stroke="#003a50" stroke-miterlimit="10"/><path d="M208.28,90.05a.81.81,0,0,1-.71-.44.8.8,0,0,1,.36-1.06,22.57,22.57,0,0,1,19.77,0A.79.79,0,0,1,227,90a20.91,20.91,0,0,0-18.39,0A.84.84,0,0,1,208.28,90.05Z" fill="none" stroke="#003a50" stroke-miterlimit="10"/><path d="M208.28,85.69a.79.79,0,0,1-.71-.44.78.78,0,0,1,.36-1,22.48,22.48,0,0,1,19.77,0,.78.78,0,0,1-.69,1.41,20.91,20.91,0,0,0-18.39,0A.71.71,0,0,1,208.28,85.69Z" fill="none" stroke="#003a50" stroke-miterlimit="10"/><path d="M208.28,111.83a.81.81,0,0,1-.71-.44.78.78,0,0,1,.36-1,22.48,22.48,0,0,1,19.77,0,.78.78,0,0,1-.69,1.41,20.91,20.91,0,0,0-18.39,0A.84.84,0,0,1,208.28,111.83Z" fill="none" stroke="#003a50" stroke-miterlimit="10"/><path d="M208.28,116.18a.78.78,0,0,1-.35-1.49,22.57,22.57,0,0,1,19.77,0,.78.78,0,0,1-.69,1.41,21,21,0,0,0-18.39,0A.71.71,0,0,1,208.28,116.18Z" fill="none" stroke="#003a50" stroke-miterlimit="10"/></g><line x1="217.82" y1="120.87" x2="217.82" y2="47.32" fill="none" stroke="#003a50" stroke-miterlimit="10"/><rect x="206.72" y="47.32" width="22.4" height="73.89" fill="none" stroke="#003a50" stroke-miterlimit="10"/><g clip-path="url(#clip-path)"><path d="M272.15,107.47a.78.78,0,0,1-.34-1.49,22.57,22.57,0,0,1,19.77,0,.78.78,0,0,1-.69,1.41,20.91,20.91,0,0,0-18.39,0A.72.72,0,0,1,272.15,107.47Z" fill="none" stroke="#003a50" stroke-miterlimit="10"/><path d="M272.15,103.12a.79.79,0,0,1-.34-1.5,22.57,22.57,0,0,1,19.77,0,.79.79,0,0,1-.69,1.42,20.91,20.91,0,0,0-18.39,0A.85.85,0,0,1,272.15,103.12Z" fill="none" stroke="#003a50" stroke-miterlimit="10"/><path d="M272.15,98.76a.78.78,0,0,1-.34-1.49,22.48,22.48,0,0,1,19.77,0,.78.78,0,0,1-.69,1.41,20.91,20.91,0,0,0-18.39,0A.72.72,0,0,1,272.15,98.76Z" fill="none" stroke="#003a50" stroke-miterlimit="10"/><path d="M272.15,94.4a.78.78,0,0,1-.7-.44.79.79,0,0,1,.36-1,22.57,22.57,0,0,1,19.77,0,.78.78,0,0,1-.69,1.41,21,21,0,0,0-18.39,0A.72.72,0,0,1,272.15,94.4Z" fill="none" stroke="#003a50" stroke-miterlimit="10"/><path d="M272.15,90.05a.79.79,0,0,1-.34-1.5,22.57,22.57,0,0,1,19.77,0,.79.79,0,0,1-.69,1.42,20.91,20.91,0,0,0-18.39,0A.85.85,0,0,1,272.15,90.05Z" fill="none" stroke="#003a50" stroke-miterlimit="10"/><path d="M272.15,85.69a.78.78,0,0,1-.34-1.49,22.48,22.48,0,0,1,19.77,0,.78.78,0,0,1-.69,1.41,20.91,20.91,0,0,0-18.39,0A.72.72,0,0,1,272.15,85.69Z" fill="none" stroke="#003a50" stroke-miterlimit="10"/><path d="M272.15,111.83a.8.8,0,0,1-.7-.44.78.78,0,0,1,.36-1,22.48,22.48,0,0,1,19.77,0,.78.78,0,0,1-.69,1.41,20.91,20.91,0,0,0-18.39,0A.85.85,0,0,1,272.15,111.83Z" fill="none" stroke="#003a50" stroke-miterlimit="10"/><path d="M272.15,116.18a.78.78,0,0,1-.7-.44.79.79,0,0,1,.36-1,22.57,22.57,0,0,1,19.77,0,.78.78,0,0,1-.69,1.41,21,21,0,0,0-18.39,0A.72.72,0,0,1,272.15,116.18Z" fill="none" stroke="#003a50" stroke-miterlimit="10"/></g><line x1="281.69" y1="120.87" x2="281.69" y2="47.32" fill="none" stroke="#003a50" stroke-miterlimit="10"/><rect x="270.6" y="47.32" width="22.4" height="73.89" fill="none" stroke="#003a50" stroke-miterlimit="10"/><rect x="412.81" y="586.43" width="118.13" height="34.02" fill="none" stroke="#003a50" stroke-miterlimit="10"/><g clip-path="url(#clip-path)"><path d="M429.93,615.62a1,1,0,0,0,1.9.45,28.77,28.77,0,0,0,0-25.26,1,1,0,0,0-1.8.88,26.72,26.72,0,0,1,0,23.49A1,1,0,0,0,429.93,615.62Z" fill="none" stroke="#003a50" stroke-miterlimit="10"/><path d="M435.5,615.62a1,1,0,0,0,.56.9,1,1,0,0,0,1.34-.45,28.77,28.77,0,0,0,0-25.26,1,1,0,0,0-1.8.88,26.72,26.72,0,0,1,0,23.49A1,1,0,0,0,435.5,615.62Z" fill="none" stroke="#003a50" stroke-miterlimit="10"/><path d="M441.06,615.62a1,1,0,0,0,1.9.45,28.77,28.77,0,0,0,0-25.26,1,1,0,0,0-1.8.88,26.72,26.72,0,0,1,0,23.49A1,1,0,0,0,441.06,615.62Z" fill="none" stroke="#003a50" stroke-miterlimit="10"/><path d="M446.63,615.62a1,1,0,0,0,.56.9,1,1,0,0,0,1.34-.45,28.77,28.77,0,0,0,0-25.26,1,1,0,0,0-1.8.88,26.72,26.72,0,0,1,0,23.49A1,1,0,0,0,446.63,615.62Z" fill="none" stroke="#003a50" stroke-miterlimit="10"/><path d="M452.19,615.62a1,1,0,0,0,.56.9,1,1,0,0,0,1.35-.45,28.77,28.77,0,0,0,0-25.26,1,1,0,0,0-1.34-.46,1,1,0,0,0-.46,1.34,26.81,26.81,0,0,1,0,23.49A.9.9,0,0,0,452.19,615.62Z" fill="none" stroke="#003a50" stroke-miterlimit="10"/><path d="M457.76,615.62a1,1,0,0,0,.56.9,1,1,0,0,0,1.34-.45,28.77,28.77,0,0,0,0-25.26,1,1,0,0,0-1.8.88,26.72,26.72,0,0,1,0,23.49A1,1,0,0,0,457.76,615.62Z" fill="none" stroke="#003a50" stroke-miterlimit="10"/><path d="M424.36,615.62a1,1,0,0,0,.56.9,1,1,0,0,0,1.35-.45,28.77,28.77,0,0,0,0-25.26,1,1,0,0,0-1.34-.46,1,1,0,0,0-.46,1.34,26.81,26.81,0,0,1,0,23.49A1,1,0,0,0,424.36,615.62Z" fill="none" stroke="#003a50" stroke-miterlimit="10"/><path d="M418.8,615.62a1,1,0,0,0,1.9.45,28.77,28.77,0,0,0,0-25.26,1,1,0,0,0-1.8.88,26.72,26.72,0,0,1,0,23.49A1,1,0,0,0,418.8,615.62Z" fill="none" stroke="#003a50" stroke-miterlimit="10"/></g><line x1="412.81" y1="603.44" x2="530.4" y2="603.44" fill="none" stroke="#003a50" stroke-miterlimit="10"/><g clip-path="url(#clip-path)"><path d="M111.14,731.35h41v45.77H108.92V733.56A2.21,2.21,0,0,1,111.14,731.35Z" fill="none" stroke="#003a50" stroke-miterlimit="10"/><path d="M110.91,685.48h41.26v45.77H110.91a2,2,0,0,1-2-2v-41.8A2,2,0,0,1,110.91,685.48Z" fill="none" stroke="#003a50" stroke-miterlimit="10"/><path d="M108.92,777.12a3.1,3.1,0,0,0-2.82,3.33v4.22a3.1,3.1,0,0,0,2.82,3.33h48.2V674.61H109.35a3.11,3.11,0,0,0-2.83,3.33v4.22a3.1,3.1,0,0,0,2.83,3.32h42.82v91.64Z" fill="none" stroke="#003a50" stroke-miterlimit="10"/><path d="M431.67,328.81v41h45.76V326.6H433.88A2.21,2.21,0,0,0,431.67,328.81Z" fill="none" stroke="#003a50" stroke-miterlimit="10"/><path d="M385.8,328.59v41.26h45.77V328.59a2,2,0,0,0-2-2H387.78A2,2,0,0,0,385.8,328.59Z" fill="none" stroke="#003a50" stroke-miterlimit="10"/><path d="M477.44,326.6a3.11,3.11,0,0,1,3.32-2.83H485a3.11,3.11,0,0,1,3.32,2.83v48.2H374.92V327a3.12,3.12,0,0,1,3.33-2.83h4.23A3.11,3.11,0,0,1,385.8,327v42.82h91.64Z" fill="none" stroke="#003a50" stroke-miterlimit="10"/></g><rect x="385.8" y="360.6" width="91.64" height="9.25" fill="none" stroke="#003a50" stroke-miterlimit="10"/><g clip-path="url(#clip-path)"><path d="M503.22,726.77a14.78,14.78,0,0,0-15.93,23.39,1.14,1.14,0,0,0,1.61.17,1.13,1.13,0,0,0,.17-1.6,12.47,12.47,0,0,1,14.15-19.5Z" fill="none" stroke="#003a50" stroke-miterlimit="10"/><rect x="503.22" y="697" width="34.02" height="84.03" rx="3.31" fill="none" stroke="#003a50" stroke-miterlimit="10"/><path d="M533.53,699.55a1.4,1.4,0,0,0-1.4,1.39v76.15a1.4,1.4,0,0,0,2.79,0V700.94a1.39,1.39,0,0,0-1.39-1.39" fill="none" stroke="#003a50" stroke-miterlimit="10"/><path d="M519,767.35a5.51,5.51,0,1,1,0,7.79A5.51,5.51,0,0,1,519,767.35Z" fill="none" stroke="#003a50" stroke-miterlimit="10"/><path d="M518.58,767.77c1,.1,2-.29,3,.7,1.46,1.46-.08,3,1.38,4.47s3-.09,4.47,1.38" fill="none" stroke="#003a50" stroke-miterlimit="10"/><path d="M503.22,731.48a10.63,10.63,0,1,0,0,19.59Z" fill="none" stroke="#003a50" stroke-miterlimit="10"/></g><rect x="173.94" y="646.46" width="52.33" height="113.67" fill="none" stroke="#003a50" stroke-miterlimit="10"/><g clip-path="url(#clip-path)"><path d="M217.34,656.16H183.29a2.1,2.1,0,0,0-2.1,2.1v67.63h38.25V658.26A2.1,2.1,0,0,0,217.34,656.16Z" fill="none" stroke="#003a50" stroke-miterlimit="10"/></g><rect x="181.19" y="712.04" width="38.26" height="13.85" fill="none" stroke="#003a50" stroke-miterlimit="10"/><g clip-path="url(#clip-path)"><path d="M217.63,752.38h-34.3a2.2,2.2,0,0,1-2.2-2.2V731.7a2.2,2.2,0,0,1,2.2-2.2h34.3a2.21,2.21,0,0,1,2.21,2.2v18.48A2.21,2.21,0,0,1,217.63,752.38Z" fill="none" stroke="#003a50" stroke-miterlimit="10"/><path d="M314.6,709.41a14.78,14.78,0,0,0-15.93,23.38,1.14,1.14,0,1,0,1.78-1.43,12.47,12.47,0,0,1,14.15-19.5Z" fill="none" stroke="#003a50" stroke-miterlimit="10"/><rect x="314.6" y="679.63" width="34.02" height="84.03" rx="3.31" fill="none" stroke="#003a50" stroke-miterlimit="10"/><path d="M344.91,682.18a1.4,1.4,0,0,0-1.4,1.4v76.14a1.4,1.4,0,0,0,2.79,0V683.58a1.4,1.4,0,0,0-1.39-1.4" fill="none" stroke="#003a50" stroke-miterlimit="10"/><path d="M330.33,750a5.51,5.51,0,1,1,0,7.79A5.51,5.51,0,0,1,330.33,750Z" fill="none" stroke="#003a50" stroke-miterlimit="10"/><path d="M330,750.4c1,.1,2-.28,3,.7,1.46,1.46-.08,3,1.38,4.47s3-.08,4.47,1.38" fill="none" stroke="#003a50" stroke-miterlimit="10"/><path d="M314.6,714.12a10.63,10.63,0,1,0,0,19.59Z" fill="none" stroke="#003a50" stroke-miterlimit="10"/><path d="M333.39,70.36A14.78,14.78,0,0,0,349.32,47a1.14,1.14,0,0,0-1.77,1.43,12.47,12.47,0,0,1-14.16,19.5Z" fill="none" stroke="#003a50" stroke-miterlimit="10"/><rect x="299.37" y="16.1" width="34.02" height="84.03" rx="3.31" fill="none" stroke="#003a50" stroke-miterlimit="10"/><path d="M303.09,97.58a1.4,1.4,0,0,0,1.4-1.39V20a1.4,1.4,0,0,0-2.8,0V96.19a1.4,1.4,0,0,0,1.4,1.39" fill="none" stroke="#003a50" stroke-miterlimit="10"/><path d="M317.67,29.78a5.51,5.51,0,1,1,0-7.79A5.51,5.51,0,0,1,317.67,29.78Z" fill="none" stroke="#003a50" stroke-miterlimit="10"/><path d="M318,29.36c-1-.1-2.05.29-3-.7-1.46-1.46.08-3-1.38-4.47s-3,.09-4.47-1.38" fill="none" stroke="#003a50" stroke-miterlimit="10"/><path d="M333.39,65.65a10.64,10.64,0,1,0,0-19.59Z" fill="none" stroke="#003a50" stroke-miterlimit="10"/></g><rect x="500.21" y="16.22" width="22.68" height="22.68" fill="none" stroke="#003a50" stroke-miterlimit="10"/><g clip-path="url(#clip-path)"><path d="M518.06,34.06a9.2,9.2,0,1,0-13,0A9.2,9.2,0,0,0,518.06,34.06Z" fill="none" stroke="#003a50" stroke-miterlimit="10"/><path d="M517.37,34.68c-.17-1.69.48-3.41-1.17-5.06-2.44-2.44-5,.14-7.46-2.3s.14-5-2.3-7.46" fill="none" stroke="#003a50" stroke-miterlimit="10"/></g><rect x="361.78" y="16.22" width="22.68" height="22.68" fill="none" stroke="#003a50" stroke-miterlimit="10"/><g clip-path="url(#clip-path)"><path d="M379.62,34.06a9.2,9.2,0,1,0-13,0A9.19,9.19,0,0,0,379.62,34.06Z" fill="none" stroke="#003a50" stroke-miterlimit="10"/><path d="M378.93,34.68c-.16-1.69.49-3.41-1.16-5.06-2.44-2.44-5,.14-7.46-2.3s.14-5-2.3-7.46" fill="none" stroke="#003a50" stroke-miterlimit="10"/></g><rect x="391.31" y="16.22" width="102.05" height="113.38" fill="none" stroke="#003a50" stroke-miterlimit="10"/><g clip-path="url(#clip-path)"><path d="M401.32,119.87h82a2.09,2.09,0,0,0,2.09-2.09V50.14H399.23v67.64A2.09,2.09,0,0,0,401.32,119.87Z" fill="none" stroke="#003a50" stroke-miterlimit="10"/><path d="M445.19,46.53h38.53a2,2,0,0,0,2-2V25.63a2,2,0,0,0-2-2H445.19a2,2,0,0,0-2,2V44.54A2,2,0,0,0,445.19,46.53Z" fill="none" stroke="#003a50" stroke-miterlimit="10"/><path d="M401,46.53H439.5a2,2,0,0,0,2-2V25.63a2,2,0,0,0-2-2H401a2,2,0,0,0-2,2V44.54A2,2,0,0,0,401,46.53Z" fill="none" stroke="#003a50" stroke-miterlimit="10"/></g><line x1="398.98" y1="63.99" x2="485.7" y2="63.99" fill="none" stroke="#003a50" stroke-miterlimit="10"/><g clip-path="url(#clip-path)"><path d="M470.41,515.88a1.25,1.25,0,0,0-1.25,1.25,13.66,13.66,0,1,1-27.32,0,1.25,1.25,0,0,0-2.5,0,16.16,16.16,0,0,0,32.32,0A1.25,1.25,0,0,0,470.41,515.88Z" fill="none" stroke="#003a50" stroke-miterlimit="10"/><path d="M440.59,463.18a1.24,1.24,0,0,0,1.25-1.25,13.66,13.66,0,0,1,27.32,0,1.25,1.25,0,0,0,2.5,0,16.16,16.16,0,0,0-32.32,0A1.24,1.24,0,0,0,440.59,463.18Z" fill="none" stroke="#003a50" stroke-miterlimit="10"/><path d="M429,515.88a1.25,1.25,0,0,0-1.25,1.25,13.66,13.66,0,0,1-27.32,0,1.25,1.25,0,0,0-2.5,0,16.16,16.16,0,0,0,32.32,0A1.25,1.25,0,0,0,429,515.88Z" fill="none" stroke="#003a50" stroke-miterlimit="10"/><path d="M399.15,463.18a1.24,1.24,0,0,0,1.25-1.25,13.66,13.66,0,0,1,27.32,0,1.25,1.25,0,1,0,2.5,0,16.16,16.16,0,0,0-32.32,0A1.24,1.24,0,0,0,399.15,463.18Z" fill="none" stroke="#003a50" stroke-miterlimit="10"/><path d="M376.06,502.24a1.25,1.25,0,0,0-1.25-1.24,13.67,13.67,0,0,1,0-27.33,1.25,1.25,0,1,0,0-2.49,16.16,16.16,0,0,0,0,32.31A1.25,1.25,0,0,0,376.06,502.24Z" fill="none" stroke="#003a50" stroke-miterlimit="10"/><path d="M488.62,472.43a1.25,1.25,0,0,0,1.25,1.25,13.66,13.66,0,0,1,0,27.32,1.25,1.25,0,1,0,0,2.49,16.16,16.16,0,1,0,0-32.31A1.25,1.25,0,0,0,488.62,472.43Z" fill="none" stroke="#003a50" stroke-miterlimit="10"/><path d="M455.49,529a12.57,12.57,0,0,0,12.56-12.52v-5.8a23.7,23.7,0,0,1-6.08.8H443v5A12.56,12.56,0,0,0,455.49,529Z" fill="none" stroke="#003a50" stroke-miterlimit="10"/><path d="M468.05,464v-1.36a12.54,12.54,0,1,0-25.08,0v.56h19A25.59,25.59,0,0,1,468.05,464Z" fill="none" stroke="#003a50" stroke-miterlimit="10"/><path d="M414.05,529a12.57,12.57,0,0,0,12.56-12.52v-5H402.77c-.4,0-.84,0-1.24-.08v5.08A12.54,12.54,0,0,0,414.05,529Z" fill="none" stroke="#003a50" stroke-miterlimit="10"/><path d="M401.53,463.25c.4,0,.84-.08,1.24-.08h23.84v-.56a12.54,12.54,0,1,0-25.08,0Z" fill="none" stroke="#003a50" stroke-miterlimit="10"/><path d="M482.57,499.89h6.64a12.54,12.54,0,1,0,0-25.08h-6.64a23.81,23.81,0,0,1,3.56,12.52A24.06,24.06,0,0,1,482.57,499.89Z" fill="none" stroke="#003a50" stroke-miterlimit="10"/><path d="M375.49,499.89h6.68a24.06,24.06,0,0,1-3.56-12.56,23.81,23.81,0,0,1,3.56-12.52h-6.68a12.54,12.54,0,1,0,0,25.08Z" fill="none" stroke="#003a50" stroke-miterlimit="10"/><path d="M402.77,511.49H462a23.7,23.7,0,0,0,6.08-.8,24.24,24.24,0,0,0,18.08-23.36,23.81,23.81,0,0,0-3.56-12.52A24.19,24.19,0,0,0,468.05,464a25.59,25.59,0,0,0-6.08-.8h-59.2c-.4,0-.84,0-1.24.08a24.11,24.11,0,0,0,0,48.16C401.93,511.45,402.37,511.49,402.77,511.49Z" fill="none" stroke="#003a50" stroke-miterlimit="10"/></g><rect x="207.25" y="16.19" width="85.75" height="31.12" fill="none" stroke="#003a50" stroke-miterlimit="10"/><g clip-path="url(#clip-path)"><path d="M222.91,20.6a.92.92,0,0,1,1.74-.4,26.34,26.34,0,0,1,0,23.11A.92.92,0,1,1,223,42.5,24.43,24.43,0,0,0,223,21,1,1,0,0,1,222.91,20.6Z" fill="none" stroke="#003a50" stroke-miterlimit="10"/><path d="M228,20.6a.92.92,0,0,1,1.74-.4,26.34,26.34,0,0,1,0,23.11.91.91,0,1,1-1.64-.81,24.52,24.52,0,0,0,0-21.49A.86.86,0,0,1,228,20.6Z" fill="none" stroke="#003a50" stroke-miterlimit="10"/><path d="M233.09,20.6a.92.92,0,0,1,.51-.82.93.93,0,0,1,1.24.42,26.43,26.43,0,0,1,0,23.11.93.93,0,0,1-1.23.42.91.91,0,0,1-.42-1.23,24.52,24.52,0,0,0,0-21.49A.86.86,0,0,1,233.09,20.6Z" fill="none" stroke="#003a50" stroke-miterlimit="10"/><path d="M238.18,20.6a.93.93,0,0,1,.52-.82.91.91,0,0,1,1.22.42,26.25,26.25,0,0,1,0,23.11.91.91,0,1,1-1.64-.81,24.52,24.52,0,0,0,0-21.49A.86.86,0,0,1,238.18,20.6Z" fill="none" stroke="#003a50" stroke-miterlimit="10"/><path d="M243.27,20.6a.92.92,0,0,1,1.75-.4,26.34,26.34,0,0,1,0,23.11.93.93,0,0,1-1.23.42.92.92,0,0,1-.42-1.23,24.52,24.52,0,0,0,0-21.49A.86.86,0,0,1,243.27,20.6Z" fill="none" stroke="#003a50" stroke-miterlimit="10"/><path d="M248.37,20.6a.92.92,0,0,1,1.74-.4,26.34,26.34,0,0,1,0,23.11.92.92,0,1,1-1.65-.81,24.43,24.43,0,0,0,0-21.49A.85.85,0,0,1,248.37,20.6Z" fill="none" stroke="#003a50" stroke-miterlimit="10"/><path d="M217.82,20.6a.92.92,0,0,1,1.74-.4,26.34,26.34,0,0,1,0,23.11.92.92,0,0,1-1.65-.81,24.43,24.43,0,0,0,0-21.49A.85.85,0,0,1,217.82,20.6Z" fill="none" stroke="#003a50" stroke-miterlimit="10"/><path d="M212.72,20.6a.92.92,0,0,1,1.75-.4,26.34,26.34,0,0,1,0,23.11.93.93,0,0,1-1.23.42.92.92,0,0,1-.42-1.23,24.52,24.52,0,0,0,0-21.49A.86.86,0,0,1,212.72,20.6Z" fill="none" stroke="#003a50" stroke-miterlimit="10"/></g><line x1="207.25" y1="31.75" x2="293" y2="31.75" fill="none" stroke="#003a50" stroke-miterlimit="10"/><rect x="207.25" y="184.1" width="85.75" height="31.12" fill="none" stroke="#003a50" stroke-miterlimit="10"/><g clip-path="url(#clip-path)"><path d="M222.91,188.51a.92.92,0,0,1,1.74-.41,26.34,26.34,0,0,1,0,23.11.92.92,0,0,1-1.65-.8,24.45,24.45,0,0,0,0-21.5A.9.9,0,0,1,222.91,188.51Z" fill="none" stroke="#003a50" stroke-miterlimit="10"/><path d="M228,188.51a.92.92,0,0,1,1.74-.41,26.34,26.34,0,0,1,0,23.11.91.91,0,0,1-1.64-.8,24.54,24.54,0,0,0,0-21.5A.79.79,0,0,1,228,188.51Z" fill="none" stroke="#003a50" stroke-miterlimit="10"/><path d="M233.09,188.51a.91.91,0,0,1,.51-.82.93.93,0,0,1,1.24.41,26.43,26.43,0,0,1,0,23.11.92.92,0,0,1-1.23.42.9.9,0,0,1-.42-1.22,24.54,24.54,0,0,0,0-21.5A.79.79,0,0,1,233.09,188.51Z" fill="none" stroke="#003a50" stroke-miterlimit="10"/><path d="M238.18,188.51a.91.91,0,0,1,.52-.82.9.9,0,0,1,1.22.41,26.25,26.25,0,0,1,0,23.11.91.91,0,1,1-1.64-.8,24.54,24.54,0,0,0,0-21.5A.79.79,0,0,1,238.18,188.51Z" fill="none" stroke="#003a50" stroke-miterlimit="10"/><path d="M243.27,188.51a.93.93,0,0,1,1.75-.41,26.34,26.34,0,0,1,0,23.11.92.92,0,0,1-1.23.42.91.91,0,0,1-.42-1.22,24.54,24.54,0,0,0,0-21.5A.79.79,0,0,1,243.27,188.51Z" fill="none" stroke="#003a50" stroke-miterlimit="10"/><path d="M248.37,188.51a.91.91,0,0,1,.51-.82.92.92,0,0,1,1.23.41,26.34,26.34,0,0,1,0,23.11.92.92,0,0,1-1.65-.8,24.45,24.45,0,0,0,0-21.5A.78.78,0,0,1,248.37,188.51Z" fill="none" stroke="#003a50" stroke-miterlimit="10"/><path d="M217.82,188.51a.91.91,0,0,1,.51-.82.92.92,0,0,1,1.23.41,26.34,26.34,0,0,1,0,23.11.92.92,0,0,1-1.65-.8,24.45,24.45,0,0,0,0-21.5A.78.78,0,0,1,217.82,188.51Z" fill="none" stroke="#003a50" stroke-miterlimit="10"/><path d="M212.72,188.51a.93.93,0,0,1,1.75-.41,26.34,26.34,0,0,1,0,23.11.92.92,0,0,1-1.23.42.91.91,0,0,1-.42-1.22,24.54,24.54,0,0,0,0-21.5A.79.79,0,0,1,212.72,188.51Z" fill="none" stroke="#003a50" stroke-miterlimit="10"/></g><line x1="207.25" y1="199.66" x2="293" y2="199.66" fill="none" stroke="#003a50" stroke-miterlimit="10"/><g clip-path="url(#clip-path)"><path d="M350.79,222.32v-3.77a47.42,47.42,0,0,0-47.42-47.42v51.19" fill="none" stroke="#003a50" stroke-miterlimit="10" stroke-width="1.6"/><path d="M244.91,319.45v3.1a39,39,0,0,1-39,39V319.45" fill="none" stroke="#003a50" stroke-miterlimit="10" stroke-width="1.6"/><path d="M302.92,583.68v3.5A44.07,44.07,0,0,0,347,631.26V583.68" fill="none" stroke="#003a50" stroke-miterlimit="10" stroke-width="1.6"/><path d="M409.68,583.68v3.5a44.07,44.07,0,0,1-44.08,44.08V583.68" fill="none" stroke="#003a50" stroke-miterlimit="10" stroke-width="1.6"/><path d="M-10.51,434.11v-4.06a51.13,51.13,0,0,1,51.13-51.13v55.19" fill="none" stroke="#003a50" stroke-miterlimit="10" stroke-width="1.6"/><path d="M56.85,324.93H52.79A51.13,51.13,0,0,0,1.66,376.06H56.85" fill="none" stroke="#003a50" stroke-miterlimit="10" stroke-width="1.6"/><path d="M201.33,122.17h3.08a38.73,38.73,0,0,1,38.72,38.72h-41.8" fill="none" stroke="#003a50" stroke-miterlimit="10" stroke-width="1.6"/><line x1="178.94" y1="327.08" x2="124.45" y2="327.08" fill="none" stroke="#003a50" stroke-miterlimit="10" stroke-width="1.6"/><rect x="51.07" y="-41.36" width="16.32" height="181.89" fill="#003a50"/><rect x="51.07" y="106.39" width="16.32" height="115.78" fill="#003a50"/><rect x="51.07" y="280.85" width="16.32" height="44.79" fill="#003a50"/><rect x="74.82" y="227.6" width="11.82" height="64.29" fill="#003a50"/><rect x="54.49" y="280.85" width="32.14" height="11.82" fill="#003a50"/><rect x="51.07" y="375.14" width="16.32" height="66" fill="#003a50"/><rect x="39.76" y="427.67" width="131.96" height="16.32" fill="#003a50"/><rect x="157.48" y="427.67" width="16.32" height="380.64" fill="#003a50"/><rect x="63.54" y="-0.12" width="474.34" height="16.32" fill="#003a50"/><rect x="51.07" y="215.88" width="252.3" height="12.6" fill="#003a50"/><rect x="350.79" y="215.88" width="197.8" height="12.6" fill="#003a50"/><rect x="288.39" y="789.22" width="82.83" height="27.12" fill="#003a50"/><rect x="-77.36" y="789.22" width="82.83" height="27.12" fill="#003a50"/><rect x="100.22" y="795.39" width="95.33" height="34.25" fill="#003a50"/><rect x="168.39" y="799.39" width="27.17" height="41.92" fill="#003a50"/><rect x="281.05" y="795.39" width="95.33" height="34.25" fill="#003a50"/><rect x="349.21" y="799.39" width="27.17" height="41.92" fill="#003a50"/><rect x="-84.69" y="795.39" width="95.33" height="34.25" fill="#003a50"/><rect x="-16.53" y="799.39" width="27.17" height="41.92" fill="#003a50"/><rect x="523.39" y="533.6" width="9.5" height="59.04" fill="#003a50"/><rect x="523.39" y="361.72" width="9.5" height="76.42" fill="#003a50"/><rect x="552.02" y="816.76" width="25.83" height="25" fill="#003a50"/><rect x="529.85" y="348.43" width="37.44" height="94.57" fill="#003a50"/><rect x="529.85" y="531.65" width="46.27" height="94.57" fill="#003a50"/><rect x="533.85" y="417.1" width="39.53" height="25.9" fill="#003a50"/><rect x="529.85" y="165.85" width="37.44" height="94.57" fill="#003a50"/><rect x="533.85" y="234.52" width="39.53" height="25.9" fill="#003a50"/><rect x="529.85" y="-19.93" width="33.77" height="96.07" fill="#003a50"/><rect x="533.85" y="50.23" width="39.53" height="25.9" fill="#003a50"/><rect x="200.87" y="10.09" width="6.38" height="112.92" fill="#003a50"/><rect x="200.87" y="160.88" width="6.38" height="62.9" fill="#003a50"/><rect x="293" y="10.09" width="6.38" height="110.35" fill="#003a50"/><rect x="293" y="179.71" width="6.38" height="43.42" fill="#003a50"/><rect x="61.29" y="130.41" width="31" height="6.38" fill="#003a50"/><rect x="86.27" y="130.41" width="6.38" height="37.56" fill="#003a50"/><rect x="173.27" y="-33.97" width="6.38" height="40.91" fill="#003a50"/><rect x="66.76" y="167.07" width="33.64" height="6.38" fill="#003a50"/><rect x="96.13" y="167.96" width="6.38" height="49.87" fill="#003a50"/><rect x="244.12" y="316.71" width="52.01" height="6.38" fill="#003a50"/><rect x="289.76" y="226.14" width="6.38" height="95.32" fill="#003a50"/><rect x="167.42" y="222.18" width="6.38" height="97.72" fill="#003a50"/><rect x="81.96" y="248.44" width="88.64" height="6.38" fill="#003a50"/><rect x="141.92" y="225.14" width="6.38" height="26.49" fill="#003a50"/><rect x="152.62" y="316.71" width="54.26" height="6.38" fill="#003a50"/><rect x="52.62" y="316.71" width="60.64" height="6.38" fill="#003a50"/><rect x="167.42" y="401.88" width="6.38" height="33.94" fill="#003a50"/><rect x="63.55" y="401.88" width="108.92" height="6.38" fill="#003a50"/><rect x="114.82" y="404.14" width="6.38" height="33.17" fill="#003a50"/><rect x="167.42" y="426.86" width="128.72" height="6.38" fill="#003a50"/><rect x="290.89" y="580.93" width="12.92" height="6.38" fill="#003a50"/><rect x="173.94" y="580.93" width="122.43" height="6.38" fill="#003a50"/><rect x="345.89" y="580.93" width="20.5" height="6.38" fill="#003a50"/><rect x="408.87" y="580.93" width="126.02" height="6.38" fill="#003a50"/><rect x="348.51" y="584.12" width="6.38" height="211.27" fill="#003a50"/><rect x="290.97" y="392.96" width="6.38" height="40" fill="#003a50"/><rect x="50.47" y="441.14" width="6.38" height="25.25" fill="#003a50"/><rect x="70.45" y="441.89" width="6.38" height="24.5" fill="#003a50"/><rect x="52.33" y="460.02" width="24.5" height="6.38" fill="#003a50"/><rect x="51.07" y="217.83" width="5.98" height="81.48" fill="#003a50"/><line x1="-9.24" y1="534.15" x2="45.36" y2="534.15" fill="none" stroke="#003a50" stroke-miterlimit="10" stroke-dasharray="5.75 5.75"/><polyline points="48.24 534.15 51.07 534.15 51.07 531.31" fill="none" stroke="#003a50" stroke-miterlimit="10"/><line x1="51.07" y1="525.47" x2="51.07" y2="469.93" fill="none" stroke="#003a50" stroke-miterlimit="10" stroke-dasharray="5.85 5.85"/><line x1="51.07" y1="467.01" x2="51.07" y2="464.17" fill="none" stroke="#003a50" stroke-miterlimit="10"/><line x1="297.02" y1="119.11" x2="297.02" y2="121.95" fill="none" stroke="#003a50" stroke-miterlimit="10"/><line x1="297.02" y1="127.43" x2="297.02" y2="179.57" fill="none" stroke="#003a50" stroke-miterlimit="10" stroke-dasharray="5.49 5.49"/><line x1="297.02" y1="182.31" x2="297.02" y2="185.15" fill="none" stroke="#003a50" stroke-miterlimit="10"/><rect x="64.45" y="286.34" width="17.51" height="30.36" fill="none" stroke="#003a50" stroke-miterlimit="10" stroke-width="0.6"/><rect x="173.27" y="-33.97" width="6.38" height="40.91" fill="#003a50"/><rect x="152.25" y="-21.29" width="6.38" height="26.75" fill="#003a50"/><rect x="178.8" y="32.52" width="24.71" height="6.38" fill="#003a50"/><rect x="178.79" y="12.15" width="6.38" height="26.75" fill="#003a50"/><rect x="66.76" y="167.07" width="35.75" height="6.38" fill="#003a50"/><rect x="289.76" y="226.14" width="6.38" height="88.64" fill="#003a50"/><rect x="167.42" y="226.14" width="6.38" height="88.64" fill="#003a50"/><rect x="81.96" y="248.44" width="88.64" height="6.38" fill="#003a50"/><rect x="141.92" y="225.14" width="6.38" height="26.49" fill="#003a50"/><rect x="63.55" y="401.88" width="108.92" height="6.38" fill="#003a50"/><rect x="114.82" y="404.14" width="6.38" height="33.17" fill="#003a50"/><rect x="290.89" y="580.93" width="12.92" height="6.38" fill="#003a50"/><rect x="345.89" y="580.93" width="20.5" height="6.38" fill="#003a50"/><rect x="408.87" y="580.93" width="126.02" height="6.38" fill="#003a50"/><rect x="50.47" y="441.14" width="6.38" height="25.25" fill="#003a50"/><rect x="70.45" y="441.89" width="6.38" height="24.5" fill="#003a50"/><rect x="52.33" y="460.02" width="24.5" height="6.38" fill="#003a50"/><rect x="51.07" y="217.83" width="5.98" height="81.48" fill="#003a50"/><line x1="264.04" y1="586.15" x2="261.21" y2="586.15" fill="none" stroke="#003a50" stroke-miterlimit="10"/><line x1="256.01" y1="586.15" x2="206.66" y2="586.15" fill="none" stroke="#003a50" stroke-miterlimit="10" stroke-dasharray="5.2 5.2"/><line x1="204.07" y1="586.15" x2="201.23" y2="586.15" fill="none" stroke="#003a50" stroke-miterlimit="10"/><line x1="-9.24" y1="534.15" x2="45.36" y2="534.15" fill="none" stroke="#003a50" stroke-miterlimit="10" stroke-dasharray="5.75 5.75"/><polyline points="48.24 534.15 51.07 534.15 51.07 531.31" fill="none" stroke="#003a50" stroke-miterlimit="10"/><line x1="51.07" y1="525.47" x2="51.07" y2="469.93" fill="none" stroke="#003a50" stroke-miterlimit="10" stroke-dasharray="5.85 5.85"/><line x1="51.07" y1="467.01" x2="51.07" y2="464.17" fill="none" stroke="#003a50" stroke-miterlimit="10"/><line x1="295.42" y1="321.96" x2="295.42" y2="324.8" fill="none" stroke="#003a50" stroke-miterlimit="10"/><line x1="295.42" y1="330.94" x2="295.42" y2="389.3" fill="none" stroke="#003a50" stroke-miterlimit="10" stroke-dasharray="6.14 6.14"/><line x1="295.42" y1="392.38" x2="295.42" y2="395.21" fill="none" stroke="#003a50" stroke-miterlimit="10"/></g><g clip-path="url(#clip-path)"><path d="M211.32,819.4a5.2,5.2,0,0,1,0-6.24,4,4,0,0,1,5.74,0,5.2,5.2,0,0,1,0,6.24,4,4,0,0,1-5.74,0Zm4.61-1a4.06,4.06,0,0,0,0-4.28,2.05,2.05,0,0,0-1.74-.84,2,2,0,0,0-1.73.84,3.42,3.42,0,0,0-.62,2.14,3.46,3.46,0,0,0,.62,2.14,2,2,0,0,0,1.73.84A2.05,2.05,0,0,0,215.93,818.42Z" fill="#003a50"/><path d="M219.65,820.39a.82.82,0,0,1,0-1.14,1,1,0,0,1,1.22,0,.82.82,0,0,1,0,1.14,1,1,0,0,1-1.22,0Z" fill="#003a50"/><path d="M229.26,814.45H227.7s0-.05,0-.13a1.67,1.67,0,0,0-.15-.31,2.33,2.33,0,0,0-.27-.35,1.4,1.4,0,0,0-.5-.29,2.09,2.09,0,0,0-.72-.11,1.76,1.76,0,0,0-1.51.72,3.12,3.12,0,0,0-.54,1.9h0a1.12,1.12,0,0,1,.31-.31,2.73,2.73,0,0,1,.43-.26,3,3,0,0,1,.67-.21,4,4,0,0,1,.86-.09,3.54,3.54,0,0,1,2.37.78,2.46,2.46,0,0,1,.92,2,2.52,2.52,0,0,1-1,2.05,3.87,3.87,0,0,1-2.54.78,3.41,3.41,0,0,1-2.73-1.09,4.5,4.5,0,0,1-.93-3v-.29a4.83,4.83,0,0,1,.93-3A3.18,3.18,0,0,1,226,812a4.06,4.06,0,0,1,1.5.26,2.87,2.87,0,0,1,1,.67A2.44,2.44,0,0,1,229.26,814.45Zm-1.77,2.22a2.26,2.26,0,0,0-1.4-.41,2.21,2.21,0,0,0-1.39.41,1.3,1.3,0,0,0-.55,1.11,1.34,1.34,0,0,0,.54,1.11,2.6,2.6,0,0,0,2.8,0,1.4,1.4,0,0,0,0-2.22Z" fill="#003a50"/><path d="M405.09,820.48h-7v-1.1a2,2,0,0,1,.41-1.23,2.78,2.78,0,0,1,1-.84c.35-.18.79-.39,1.32-.61s.93-.4,1.32-.55a3.11,3.11,0,0,0,1-.64,1.28,1.28,0,0,0,.41-.92c0-.89-.63-1.33-1.89-1.33s-1.88.5-1.88,1.52v.29h-1.49v-.29a2.56,2.56,0,0,1,.89-2.09,3.78,3.78,0,0,1,2.48-.73,4,4,0,0,1,2.48.69,2.33,2.33,0,0,1,.89,1.94,2.23,2.23,0,0,1-.39,1.29,3,3,0,0,1-1,.92q-.63.36-1.29.66c-.45.19-.88.37-1.29.52a3.82,3.82,0,0,0-1,.53.86.86,0,0,0-.4.68h5.38Z" fill="#003a50"/><path d="M406.57,820.39a.82.82,0,0,1,0-1.14.87.87,0,0,1,.61-.21.85.85,0,0,1,.61.21.82.82,0,0,1,0,1.14.85.85,0,0,1-.61.21A.87.87,0,0,1,406.57,820.39Z" fill="#003a50"/><path d="M415.27,820.48h-1.49v-1.87h-4.92v-1.3l4.44-5.23h2v5.23h1.13v1.3h-1.13Zm-1.49-3.17v-3.75h0l-3.16,3.72v0Z" fill="#003a50"/><path d="M25.79,819.4a5.2,5.2,0,0,1,0-6.24,3.59,3.59,0,0,1,2.87-1.2,3.59,3.59,0,0,1,2.86,1.2,5.16,5.16,0,0,1,0,6.24,3.59,3.59,0,0,1-2.86,1.2A3.59,3.59,0,0,1,25.79,819.4Zm4.6-1a4,4,0,0,0,0-4.28,2.2,2.2,0,0,0-3.46,0,3.42,3.42,0,0,0-.63,2.14,3.46,3.46,0,0,0,.63,2.14,2.2,2.2,0,0,0,3.46,0Z" fill="#003a50"/><path d="M34.11,820.39a.85.85,0,0,1,0-1.14.9.9,0,0,1,.62-.21.87.87,0,0,1,.61.21.82.82,0,0,1,0,1.14.87.87,0,0,1-.61.21A.9.9,0,0,1,34.11,820.39Z" fill="#003a50"/><path d="M43.72,814.45H42.17l0-.13A2.73,2.73,0,0,0,42,814a1.87,1.87,0,0,0-.28-.35,1.25,1.25,0,0,0-.5-.29,2,2,0,0,0-.71-.11A1.79,1.79,0,0,0,39,814a3.12,3.12,0,0,0-.54,1.9h.05a1,1,0,0,1,.31-.31,3.19,3.19,0,0,1,.42-.26,3.25,3.25,0,0,1,.68-.21,4,4,0,0,1,.85-.09,3.55,3.55,0,0,1,2.38.78,2.46,2.46,0,0,1,.92,2,2.52,2.52,0,0,1-1,2.05,3.89,3.89,0,0,1-2.54.78,3.41,3.41,0,0,1-2.73-1.09,4.5,4.5,0,0,1-.93-3v-.29a4.83,4.83,0,0,1,.93-3A3.16,3.16,0,0,1,40.5,812a4.14,4.14,0,0,1,1.5.26,2.87,2.87,0,0,1,1,.67A2.42,2.42,0,0,1,43.72,814.45ZM42,816.67a2.56,2.56,0,0,0-2.78,0,1.3,1.3,0,0,0-.56,1.11,1.35,1.35,0,0,0,.55,1.11,2.6,2.6,0,0,0,2.8,0,1.35,1.35,0,0,0,.55-1.11A1.3,1.3,0,0,0,42,816.67Z" fill="#003a50"/><path d="M556.57,149.52a5.2,5.2,0,0,1-6.24,0,4,4,0,0,1,0-5.74,5.2,5.2,0,0,1,6.24,0,4,4,0,0,1,0,5.74Zm-1-4.6a4,4,0,0,0-4.28,0,2.2,2.2,0,0,0,0,3.46,3.95,3.95,0,0,0,4.28,0,2.2,2.2,0,0,0,0-3.46Z" fill="#003a50"/><path d="M557.56,141.19a.69.69,0,0,1-.57.23.71.71,0,0,1-.57-.23.85.85,0,0,1-.21-.61.87.87,0,0,1,.21-.61.75.75,0,0,1,.57-.23.72.72,0,0,1,.57.23.87.87,0,0,1,.21.61A.85.85,0,0,1,557.56,141.19Z" fill="#003a50"/><path d="M551.62,131.59v1.55a.37.37,0,0,0-.13,0l-.31.15a1.87,1.87,0,0,0-.35.28,1.25,1.25,0,0,0-.29.5,2.25,2.25,0,0,0-.11.71,1.79,1.79,0,0,0,.72,1.52,3.19,3.19,0,0,0,1.9.53v0a1.11,1.11,0,0,1-.31-.31,3.19,3.19,0,0,1-.26-.42,3.25,3.25,0,0,1-.21-.68,4,4,0,0,1-.09-.85,3.55,3.55,0,0,1,.78-2.38,2.46,2.46,0,0,1,2-.92,2.52,2.52,0,0,1,2,1,3.87,3.87,0,0,1,.78,2.54,3.38,3.38,0,0,1-1.09,2.73,4.5,4.5,0,0,1-3,.93h-.29a4.83,4.83,0,0,1-3-.93,3.19,3.19,0,0,1-1.21-2.68,3.93,3.93,0,0,1,.27-1.5,2.73,2.73,0,0,1,.66-1A2.42,2.42,0,0,1,551.62,131.59Zm2.22,1.76a2.26,2.26,0,0,0-.41,1.4,2.21,2.21,0,0,0,.41,1.39,1.3,1.3,0,0,0,1.11.55,1.31,1.31,0,0,0,1.11-.54,2.6,2.6,0,0,0,0-2.8,1.4,1.4,0,0,0-2.22,0Z" fill="#003a50"/><path d="M556.57,293.4a5.2,5.2,0,0,1-6.24,0,4,4,0,0,1,0-5.73,5.16,5.16,0,0,1,6.24,0,4,4,0,0,1,0,5.73Zm-1-4.6a4,4,0,0,0-4.28,0,2.21,2.21,0,0,0,0,3.47,4,4,0,0,0,4.28,0,2.21,2.21,0,0,0,0-3.47Z" fill="#003a50"/><path d="M557.56,285.08a.71.71,0,0,1-.57.22.74.74,0,0,1-.57-.22.9.9,0,0,1-.21-.62.87.87,0,0,1,.21-.61.75.75,0,0,1,.57-.23.72.72,0,0,1,.57.23.87.87,0,0,1,.21.61A.9.9,0,0,1,557.56,285.08Z" fill="#003a50"/><path d="M551.62,275.47V277l-.13,0-.31.15a1.87,1.87,0,0,0-.35.28,1.25,1.25,0,0,0-.29.5,2.25,2.25,0,0,0-.11.71,1.78,1.78,0,0,0,.72,1.52,3.12,3.12,0,0,0,1.9.54v-.05a1.11,1.11,0,0,1-.31-.31,3.19,3.19,0,0,1-.26-.42,3.33,3.33,0,0,1-.21-.67,4.12,4.12,0,0,1-.09-.86,3.57,3.57,0,0,1,.78-2.38,2.46,2.46,0,0,1,2-.92,2.52,2.52,0,0,1,2,1,3.89,3.89,0,0,1,.78,2.54,3.38,3.38,0,0,1-1.09,2.73,4.5,4.5,0,0,1-3,.93h-.29a4.83,4.83,0,0,1-3-.93,3.19,3.19,0,0,1-1.21-2.68,3.93,3.93,0,0,1,.27-1.5,2.61,2.61,0,0,1,.66-1A2.39,2.39,0,0,1,551.62,275.47Zm2.22,1.77a2.56,2.56,0,0,0,0,2.78,1.3,1.3,0,0,0,1.11.56,1.32,1.32,0,0,0,1.11-.55,2.6,2.6,0,0,0,0-2.8,1.32,1.32,0,0,0-1.11-.55A1.3,1.3,0,0,0,553.84,277.24Z" fill="#003a50"/><path d="M556.57,476.82a5.2,5.2,0,0,1-6.24,0,4,4,0,0,1,0-5.73,5.16,5.16,0,0,1,6.24,0,4,4,0,0,1,0,5.73Zm-1-4.6a4,4,0,0,0-4.28,0,2.2,2.2,0,0,0,0,3.46,3.95,3.95,0,0,0,4.28,0,2.2,2.2,0,0,0,0-3.46Z" fill="#003a50"/><path d="M557.56,468.5a.71.71,0,0,1-.57.22.74.74,0,0,1-.57-.22.9.9,0,0,1-.21-.62.87.87,0,0,1,.21-.61A.75.75,0,0,1,557,467a.72.72,0,0,1,.57.23.87.87,0,0,1,.21.61A.9.9,0,0,1,557.56,468.5Z" fill="#003a50"/><path d="M551.62,458.89v1.55l-.13,0-.31.15a1.87,1.87,0,0,0-.35.28,1.25,1.25,0,0,0-.29.5,2.25,2.25,0,0,0-.11.71,1.78,1.78,0,0,0,.72,1.52,3.12,3.12,0,0,0,1.9.54v-.05a1.11,1.11,0,0,1-.31-.31,3.19,3.19,0,0,1-.26-.42,3.33,3.33,0,0,1-.21-.67,4.12,4.12,0,0,1-.09-.86,3.57,3.57,0,0,1,.78-2.38,2.46,2.46,0,0,1,2-.92,2.52,2.52,0,0,1,2,1,3.89,3.89,0,0,1,.78,2.54,3.38,3.38,0,0,1-1.09,2.73,4.5,4.5,0,0,1-3,.93h-.29a4.83,4.83,0,0,1-3-.93,3.19,3.19,0,0,1-1.21-2.68,3.93,3.93,0,0,1,.27-1.5,2.61,2.61,0,0,1,.66-1A2.39,2.39,0,0,1,551.62,458.89Zm2.22,1.77a2.56,2.56,0,0,0,0,2.78A1.3,1.3,0,0,0,555,464a1.32,1.32,0,0,0,1.11-.55,2.6,2.6,0,0,0,0-2.8,1.32,1.32,0,0,0-1.11-.55A1.3,1.3,0,0,0,553.84,460.66Z" fill="#003a50"/><path d="M423.07,634.28l-2.48,2V634l2.73-2.27h1.86v11.91h-2.11Z" fill="#003a50"/><path d="M433.9,633.56h-5.82v-1.84h8.86v1.84l-4.53,2.65v.07h1.28a3.9,3.9,0,0,1,2.79,1,3.53,3.53,0,0,1,1.06,2.67,3.35,3.35,0,0,1-1.33,2.82,6.93,6.93,0,0,1-7.24,0,3.35,3.35,0,0,1-1.33-2.85v-.33h2.11v.33c0,1.36.94,2,2.84,2s2.84-.67,2.84-2-.95-2-2.84-2h-3.27v-1.67l4.58-2.68Z" fill="#003a50"/><path d="M439.64,643.5a1.15,1.15,0,0,1,0-1.61,1.4,1.4,0,0,1,1.73,0,1.15,1.15,0,0,1,0,1.61,1.4,1.4,0,0,1-1.73,0Z" fill="#003a50"/><path d="M449.74,633.56h-5.82v-1.84h8.86v1.84l-4.52,2.65v.07h1.28a3.9,3.9,0,0,1,2.79,1,3.52,3.52,0,0,1,1.05,2.67,3.32,3.32,0,0,1-1.33,2.82,6.93,6.93,0,0,1-7.24,0,3.35,3.35,0,0,1-1.33-2.85v-.33h2.11v.33c0,1.36,1,2,2.84,2s2.84-.67,2.84-2-.94-2-2.84-2h-3.26v-1.67l4.57-2.68Z" fill="#003a50"/><path d="M263.36,634.26l-2.48,2V634l2.73-2.27h1.86v11.91h-2.11Z" fill="#003a50"/><path d="M277.86,643.61h-9.93v-1.56a2.8,2.8,0,0,1,.58-1.74,4.12,4.12,0,0,1,1.45-1.2c.5-.25,1.12-.54,1.87-.86s1.32-.56,1.87-.77a4.29,4.29,0,0,0,1.45-.92,1.78,1.78,0,0,0,.57-1.3c0-1.26-.89-1.89-2.66-1.89s-2.68.72-2.68,2.16v.41h-2.11v-.41a3.62,3.62,0,0,1,1.26-3,5.39,5.39,0,0,1,3.52-1,5.65,5.65,0,0,1,3.51,1,3.27,3.27,0,0,1,1.27,2.75,3.07,3.07,0,0,1-.56,1.83,4.29,4.29,0,0,1-1.4,1.31q-.9.51-1.83.93c-.63.27-1.24.52-1.83.74a5.39,5.39,0,0,0-1.4.75,1.23,1.23,0,0,0-.57,1h7.62Z" fill="#003a50"/><path d="M280,643.48a1,1,0,0,1-.33-.81,1,1,0,0,1,.33-.8,1.4,1.4,0,0,1,1.73,0,1,1,0,0,1,.32.8,1,1,0,0,1-.32.81,1.4,1.4,0,0,1-1.73,0Z" fill="#003a50"/><path d="M292.3,643.61h-2.11V641h-7v-1.84l6.3-7.42h2.79v7.42h1.59V641H292.3Zm-2.11-4.49V633.8h-.07l-4.47,5.27v0Z" fill="#003a50"/><path d="M337,368.84h-5.82V367h8.86v1.85l-4.53,2.64v.07h1.28a3.9,3.9,0,0,1,2.79,1,3.5,3.5,0,0,1,1.06,2.67,3.35,3.35,0,0,1-1.33,2.82,6.93,6.93,0,0,1-7.24,0,3.35,3.35,0,0,1-1.33-2.85v-.33h2.11v.33c0,1.36.94,2,2.84,2s2.84-.67,2.84-2-1-2-2.84-2h-3.27v-1.67L337,368.9Z" fill="#003a50"/><path d="M348.94,368.84h-5.82V367H352v1.85l-4.52,2.64v.07h1.28a3.9,3.9,0,0,1,2.79,1,3.52,3.52,0,0,1,1.05,2.67,3.32,3.32,0,0,1-1.33,2.82,6.93,6.93,0,0,1-7.24,0,3.35,3.35,0,0,1-1.33-2.85v-.33h2.11v.33c0,1.36.95,2,2.84,2s2.84-.67,2.84-2-1-2-2.84-2h-3.26v-1.67l4.57-2.68Z" fill="#003a50"/><path d="M354.68,378.77a1.17,1.17,0,0,1,0-1.61,1.41,1.41,0,0,1,1.74,0,1.17,1.17,0,0,1,0,1.61,1.41,1.41,0,0,1-1.74,0Z" fill="#003a50"/><path d="M367.26,378.14a6.4,6.4,0,0,1-3.68.93,6.49,6.49,0,0,1-3.68-.94,2.94,2.94,0,0,1-1.37-2.56,2.56,2.56,0,0,1,.26-1.16,2.3,2.3,0,0,1,.65-.86,4.05,4.05,0,0,1,1.4-.77l.25-.07v-.09a3.05,3.05,0,0,1-.76-.29,2.61,2.61,0,0,1-.66-.44,2.21,2.21,0,0,1-.55-.75,2.61,2.61,0,0,1-.22-1,2.82,2.82,0,0,1,1.26-2.39,5.74,5.74,0,0,1,3.42-.89,5.81,5.81,0,0,1,3.43.89,2.83,2.83,0,0,1,1.24,2.39,2.46,2.46,0,0,1-.22,1,1.87,1.87,0,0,1-.55.74,3.72,3.72,0,0,1-1.2.68l-.22.05v.09l.28.07a5.42,5.42,0,0,1,.62.27,4.19,4.19,0,0,1,.78.5,3,3,0,0,1,.61.82,2.71,2.71,0,0,1,.28,1.2A3,3,0,0,1,367.26,378.14Zm-5.78-1.36a3.79,3.79,0,0,0,2.1.48,3.89,3.89,0,0,0,2.1-.47,1.59,1.59,0,0,0,0-2.69,3.89,3.89,0,0,0-2.1-.47,3.85,3.85,0,0,0-2.1.47,1.58,1.58,0,0,0,0,2.68Zm-.37-6.52a1.38,1.38,0,0,0,.64,1.2,4.09,4.09,0,0,0,3.65,0,1.44,1.44,0,0,0,0-2.4,4,4,0,0,0-3.62,0A1.36,1.36,0,0,0,361.11,370.26Z" fill="#003a50"/><path d="M217.89,293.88h-5.83V292h8.87v1.84l-4.53,2.65v.07h1.28a3.86,3.86,0,0,1,2.79,1,3.52,3.52,0,0,1,1.05,2.67,3.32,3.32,0,0,1-1.33,2.82,7,7,0,0,1-7.24,0,3.39,3.39,0,0,1-1.33-2.86v-.32h2.11v.32c0,1.36,1,2,2.84,2s2.84-.67,2.84-2-.94-2-2.84-2h-3.26v-1.67l4.58-2.68Z" fill="#003a50"/><path d="M223.62,303.81a1,1,0,0,1-.32-.8,1.07,1.07,0,0,1,.32-.81,1.25,1.25,0,0,1,.88-.3,1.22,1.22,0,0,1,.86.3,1,1,0,0,1,.32.81,1,1,0,0,1-.32.8,1.22,1.22,0,0,1-.86.3A1.25,1.25,0,0,1,223.62,303.81Z" fill="#003a50"/><path d="M232.91,296a5,5,0,0,1,3.34,1.06,4.18,4.18,0,0,1,0,6,5.41,5.41,0,0,1-3.55,1.08,5.77,5.77,0,0,1-3.56-1,3.16,3.16,0,0,1-1.29-2.68h2.11a1.53,1.53,0,0,0,.7,1.33,3.53,3.53,0,0,0,2,.49,3.09,3.09,0,0,0,2-.58,2.36,2.36,0,0,0,0-3.38,3.25,3.25,0,0,0-2.07-.59,3.55,3.55,0,0,0-1.92.42,1.84,1.84,0,0,0-.7.64l-.05.12h-2.11V292h8.88v1.84h-6.77v3H230a1.91,1.91,0,0,1,.4-.31,4.24,4.24,0,0,1,2.54-.56Z" fill="#003a50"/><path d="M106.89,378.9h-2.35l5.41-10H103V367h9.28v1.88Z" fill="#003a50"/><path d="M113.74,378.77a1.17,1.17,0,0,1,0-1.61,1.23,1.23,0,0,1,.87-.3,1.2,1.2,0,0,1,.86.3,1.15,1.15,0,0,1,0,1.61,1.2,1.2,0,0,1-.86.3A1.23,1.23,0,0,1,113.74,378.77Z" fill="#003a50"/><path d="M119.14,377.36a7.37,7.37,0,0,1,0-8.83,5.71,5.71,0,0,1,8.13,0,7.33,7.33,0,0,1,0,8.83,5.69,5.69,0,0,1-8.13,0Zm6.53-1.38a5.73,5.73,0,0,0,0-6.07,3.14,3.14,0,0,0-4.91,0,5.67,5.67,0,0,0,0,6.07,2.86,2.86,0,0,0,2.45,1.18A2.89,2.89,0,0,0,125.67,376Z" fill="#003a50"/><path d="M105.34,294.6l-2.48,1.95V294.3l2.73-2.26h1.86V304h-2.11Z" fill="#003a50"/><path d="M110,303.81a1,1,0,0,1-.33-.8,1,1,0,0,1,.33-.81,1.4,1.4,0,0,1,1.73,0,1,1,0,0,1,.33.81,1,1,0,0,1-.33.8,1.4,1.4,0,0,1-1.73,0Z" fill="#003a50"/><path d="M114.11,300.6h2.21s0,.07,0,.18a2.71,2.71,0,0,0,.23.43,2.37,2.37,0,0,0,.41.49,2.41,2.41,0,0,0,.75.41,3.21,3.21,0,0,0,1,.17,2.68,2.68,0,0,0,2.25-1.07,4.35,4.35,0,0,0,.8-2.7h-.06a2.24,2.24,0,0,1-.44.46,2.56,2.56,0,0,1-.59.4,3.5,3.5,0,0,1-1,.32,5.59,5.59,0,0,1-1.23.14,5,5,0,0,1-3.36-1.13,3.71,3.71,0,0,1,0-5.72,5.49,5.49,0,0,1,3.6-1.11,4.81,4.81,0,0,1,3.87,1.55,6.35,6.35,0,0,1,1.32,4.26v.41a6.7,6.7,0,0,1-1.37,4.31,4.69,4.69,0,0,1-3.89,1.71,5.9,5.9,0,0,1-2.16-.37,3.86,3.86,0,0,1-1.48-.95A3.33,3.33,0,0,1,114.11,300.6Zm2.78-3.16a3.19,3.19,0,0,0,2,.58,3.23,3.23,0,0,0,2-.58,1.87,1.87,0,0,0,.78-1.57,1.89,1.89,0,0,0-.77-1.58,3.22,3.22,0,0,0-2-.58,3.16,3.16,0,0,0-2,.58,2,2,0,0,0,0,3.15Z" fill="#003a50"/><path d="M116.39,142.44H114l5.42-10h-6.93v-1.88h9.29v1.88Z" fill="#003a50"/><path d="M123.25,142.31a1,1,0,0,1-.33-.81,1,1,0,0,1,.33-.81,1.44,1.44,0,0,1,1.73,0,1,1,0,0,1,.33.81,1,1,0,0,1-.33.81,1.44,1.44,0,0,1-1.73,0Z" fill="#003a50"/><path d="M127.38,139.09h2.21s0,.07,0,.18a2.71,2.71,0,0,0,.23.43,2.37,2.37,0,0,0,.41.49,2.2,2.2,0,0,0,.75.41,3.21,3.21,0,0,0,1,.17,2.7,2.7,0,0,0,2.25-1.06,4.4,4.4,0,0,0,.8-2.71h-.06a2,2,0,0,1-.44.46,2.56,2.56,0,0,1-.59.4,3.8,3.8,0,0,1-1,.33,6.08,6.08,0,0,1-1.22.13,5,5,0,0,1-3.36-1.13,3.71,3.71,0,0,1,0-5.72,5.49,5.49,0,0,1,3.6-1.11,4.81,4.81,0,0,1,3.87,1.55,6.38,6.38,0,0,1,1.32,4.27v.4a6.68,6.68,0,0,1-1.37,4.31,4.69,4.69,0,0,1-3.89,1.71,5.9,5.9,0,0,1-2.16-.37,3.75,3.75,0,0,1-1.48-.95A3.31,3.31,0,0,1,127.38,139.09Zm2.78-3.16a3.19,3.19,0,0,0,2,.59,3.23,3.23,0,0,0,2-.59,1.86,1.86,0,0,0,.78-1.57,1.89,1.89,0,0,0-.77-1.58,3.22,3.22,0,0,0-2-.58,3.14,3.14,0,0,0-2,.58,2,2,0,0,0,0,3.15Z" fill="#003a50"/><path d="M336.45,133.09,334,135V132.8l2.74-2.27h1.86v11.91h-2.11Z" fill="#003a50"/><path d="M346.45,134.46a5,5,0,0,1,3.34,1.06,4.16,4.16,0,0,1,0,6,5.38,5.38,0,0,1-3.54,1.08,5.8,5.8,0,0,1-3.57-1,3.14,3.14,0,0,1-1.28-2.68h2.1a1.52,1.52,0,0,0,.71,1.33,3.49,3.49,0,0,0,2,.49,3.17,3.17,0,0,0,2-.57,2.09,2.09,0,0,0,.7-1.69,2,2,0,0,0-.74-1.7,3.25,3.25,0,0,0-2.07-.58,3.7,3.7,0,0,0-1.92.41,2.12,2.12,0,0,0-.7.64l-.05.13h-2.1v-6.88h8.87v1.84h-6.77v3h.05a2.22,2.22,0,0,1,.4-.31,3.94,3.94,0,0,1,.55-.26A5.63,5.63,0,0,1,346.45,134.46Z" fill="#003a50"/><path d="M353.16,142.31a1,1,0,0,1-.33-.81,1,1,0,0,1,.33-.81,1.44,1.44,0,0,1,1.73,0,1,1,0,0,1,.33.81,1,1,0,0,1-.33.81,1.44,1.44,0,0,1-1.73,0Z" fill="#003a50"/><path d="M365.74,141.67a7.77,7.77,0,0,1-7.37,0,3,3,0,0,1-1.37-2.56,2.66,2.66,0,0,1,.26-1.16,2.41,2.41,0,0,1,.65-.86,4,4,0,0,1,1.4-.77l.26-.07v-.09a3.38,3.38,0,0,1-.77-.29,2.61,2.61,0,0,1-.66-.44,2.24,2.24,0,0,1-.54-.76,2.38,2.38,0,0,1-.22-1,2.79,2.79,0,0,1,1.25-2.38,7,7,0,0,1,6.85,0,2.83,2.83,0,0,1,1.25,2.38,2.67,2.67,0,0,1-.22,1.05,2,2,0,0,1-.56.74,3.59,3.59,0,0,1-1.19.68l-.23,0v.09l.29.07a5.44,5.44,0,0,1,.62.26,4.28,4.28,0,0,1,.77.51,2.83,2.83,0,0,1,.62.82,2.71,2.71,0,0,1,.27,1.2A2.94,2.94,0,0,1,365.74,141.67ZM360,140.32a3.84,3.84,0,0,0,2.1.48,3.94,3.94,0,0,0,2.1-.47,1.6,1.6,0,0,0,0-2.7,4.93,4.93,0,0,0-4.2,0,1.53,1.53,0,0,0-.74,1.35A1.5,1.5,0,0,0,360,140.32Zm-.37-6.52a1.36,1.36,0,0,0,.65,1.19,4,4,0,0,0,3.64,0,1.42,1.42,0,0,0,0-2.39,4,4,0,0,0-3.62,0A1.36,1.36,0,0,0,359.58,133.8Z" fill="#003a50"/><path d="M254,134.46a5,5,0,0,1,3.34,1.06,4.16,4.16,0,0,1,0,6,5.38,5.38,0,0,1-3.54,1.08,5.8,5.8,0,0,1-3.57-1,3.15,3.15,0,0,1-1.29-2.68H251a1.52,1.52,0,0,0,.71,1.33,3.49,3.49,0,0,0,2,.49,3.17,3.17,0,0,0,2-.57,2.09,2.09,0,0,0,.7-1.69,2,2,0,0,0-.74-1.7,3.25,3.25,0,0,0-2.07-.58,3.7,3.7,0,0,0-1.92.41,2.12,2.12,0,0,0-.7.64l0,.13h-2.11v-6.88h8.88v1.84H251v3h0a2.22,2.22,0,0,1,.4-.31,3.94,3.94,0,0,1,.55-.26A5.63,5.63,0,0,1,254,134.46Z" fill="#003a50"/><path d="M260.66,142.31a1,1,0,0,1-.33-.81,1,1,0,0,1,.33-.81,1.44,1.44,0,0,1,1.73,0,1,1,0,0,1,.33.81,1,1,0,0,1-.33.81,1.44,1.44,0,0,1-1.73,0Z" fill="#003a50"/><path d="M273.24,141.67a7.77,7.77,0,0,1-7.37,0,3,3,0,0,1-1.37-2.56,2.66,2.66,0,0,1,.26-1.16,2.41,2.41,0,0,1,.65-.86,4,4,0,0,1,1.4-.77l.26-.07v-.09a3.57,3.57,0,0,1-.77-.29,2.61,2.61,0,0,1-.66-.44,2.24,2.24,0,0,1-.54-.76,2.39,2.39,0,0,1-.23-1,2.8,2.8,0,0,1,1.26-2.38,7,7,0,0,1,6.85,0,2.83,2.83,0,0,1,1.25,2.38,2.67,2.67,0,0,1-.22,1.05,2,2,0,0,1-.56.74,3.59,3.59,0,0,1-1.19.68l-.23,0v.09l.29.07a5.44,5.44,0,0,1,.62.26,4.28,4.28,0,0,1,.77.51,2.83,2.83,0,0,1,.62.82,2.71,2.71,0,0,1,.27,1.2A2.94,2.94,0,0,1,273.24,141.67Zm-5.79-1.35a3.84,3.84,0,0,0,2.1.48,3.94,3.94,0,0,0,2.1-.47,1.6,1.6,0,0,0,0-2.7,4.93,4.93,0,0,0-4.2,0,1.53,1.53,0,0,0-.74,1.35A1.5,1.5,0,0,0,267.45,140.32Zm-.37-6.52a1.36,1.36,0,0,0,.65,1.19,4,4,0,0,0,3.64,0,1.42,1.42,0,0,0,0-2.39,4,4,0,0,0-3.62,0A1.36,1.36,0,0,0,267.08,133.8Z" fill="#003a50"/><path d="M8.89,493.55H-1V492a2.74,2.74,0,0,1,.58-1.74A4,4,0,0,1,1,489.05c.5-.25,1.12-.54,1.87-.86s1.32-.56,1.88-.77a4.24,4.24,0,0,0,1.44-.92,1.77,1.77,0,0,0,.58-1.3q0-1.89-2.67-1.89t-2.67,2.16v.41H-.7v-.41a3.62,3.62,0,0,1,1.26-3,5.38,5.38,0,0,1,3.51-1,5.61,5.61,0,0,1,3.51,1,3.28,3.28,0,0,1,1.28,2.75A3.14,3.14,0,0,1,8.3,487a4.39,4.39,0,0,1-1.4,1.31c-.6.34-1.21.65-1.84.93s-1.23.52-1.83.74a5.26,5.26,0,0,0-1.4.75,1.22,1.22,0,0,0-.56,1H8.89Z" fill="#003a50"/><path d="M11,493.42a1,1,0,0,1-.32-.81,1,1,0,0,1,.32-.8,1.41,1.41,0,0,1,1.74,0,1.06,1.06,0,0,1,.32.8,1,1,0,0,1-.32.81,1.41,1.41,0,0,1-1.74,0Z" fill="#003a50"/><path d="M16.4,492a7.34,7.34,0,0,1,0-8.84,5.08,5.08,0,0,1,4.07-1.7,5.09,5.09,0,0,1,4.06,1.7,7.38,7.38,0,0,1,0,8.84,5.12,5.12,0,0,1-4.06,1.7A5.11,5.11,0,0,1,16.4,492Zm6.52-1.39a5.67,5.67,0,0,0,0-6.07,2.86,2.86,0,0,0-2.45-1.18A2.87,2.87,0,0,0,18,484.56a5.67,5.67,0,0,0,0,6.07,2.88,2.88,0,0,0,2.46,1.19A2.9,2.9,0,0,0,22.92,490.63Z" fill="#003a50"/><path d="M-.73,642.8a6.45,6.45,0,0,1-3.68.93,6.43,6.43,0,0,1-3.69-.94,3,3,0,0,1-1.37-2.56,2.7,2.7,0,0,1,.26-1.16,2.41,2.41,0,0,1,.65-.86,4.14,4.14,0,0,1,1.4-.77l.26-.06v-.1a3.11,3.11,0,0,1-.77-.29,2.61,2.61,0,0,1-.66-.44,2.2,2.2,0,0,1-.54-.75,2.42,2.42,0,0,1-.23-1,2.82,2.82,0,0,1,1.26-2.39,5.81,5.81,0,0,1,3.42-.89,5.87,5.87,0,0,1,3.43.89,2.84,2.84,0,0,1,1.25,2.39,2.58,2.58,0,0,1-.22,1,1.88,1.88,0,0,1-.56.74,3.42,3.42,0,0,1-1.19.68l-.23,0v.1a1.44,1.44,0,0,1,.29.06,6.35,6.35,0,0,1,.62.27,3.79,3.79,0,0,1,.77.5,2.89,2.89,0,0,1,.62.83,2.63,2.63,0,0,1,.27,1.19A3,3,0,0,1-.73,642.8Zm-5.79-1.36a3.75,3.75,0,0,0,2.1.49,3.84,3.84,0,0,0,2.1-.48,1.5,1.5,0,0,0,.74-1.34,1.51,1.51,0,0,0-.74-1.35,3.85,3.85,0,0,0-2.1-.47,3.85,3.85,0,0,0-2.1.47,1.51,1.51,0,0,0-.74,1.35A1.5,1.5,0,0,0-6.52,641.44Zm-.37-6.51a1.37,1.37,0,0,0,.65,1.19,3.22,3.22,0,0,0,1.82.43,3.22,3.22,0,0,0,1.82-.43,1.37,1.37,0,0,0,.65-1.19,1.39,1.39,0,0,0-.66-1.21,3.25,3.25,0,0,0-1.81-.43,3.25,3.25,0,0,0-1.81.43A1.39,1.39,0,0,0-6.89,634.93Z" fill="#003a50"/><path d="M2.74,643.43a1,1,0,0,1-.32-.81,1,1,0,0,1,.32-.8,1.24,1.24,0,0,1,.87-.3,1.24,1.24,0,0,1,.87.3,1.06,1.06,0,0,1,.32.8,1,1,0,0,1-.32.81,1.24,1.24,0,0,1-.87.3A1.24,1.24,0,0,1,2.74,643.43Z" fill="#003a50"/><path d="M16.36,635H14.15s0-.07,0-.18a2.59,2.59,0,0,0-.6-.94,2,2,0,0,0-.71-.41,3.24,3.24,0,0,0-1-.16,2.52,2.52,0,0,0-2.15,1A4.41,4.41,0,0,0,8.88,637h0a1.87,1.87,0,0,1,.45-.43,4.14,4.14,0,0,1,.6-.36,4.41,4.41,0,0,1,.95-.31,6.16,6.16,0,0,1,1.22-.12,5,5,0,0,1,3.37,1.11,3.5,3.5,0,0,1,1.3,2.8,3.56,3.56,0,0,1-1.36,2.9,5.49,5.49,0,0,1-3.6,1.11A4.81,4.81,0,0,1,8,642.18a6.36,6.36,0,0,1-1.32-4.27v-.4A6.83,6.83,0,0,1,8,633.2a4.52,4.52,0,0,1,3.8-1.71,5.66,5.66,0,0,1,2.13.37,3.71,3.71,0,0,1,1.43.94A3.46,3.46,0,0,1,16.36,635Zm-2.51,3.15a3.21,3.21,0,0,0-2-.59,3.2,3.2,0,0,0-2,.59,2,2,0,0,0,0,3.14,3.15,3.15,0,0,0,2,.59,3.2,3.2,0,0,0,2-.59,2,2,0,0,0,0-3.14Z" fill="#003a50"/></g></svg>