<svg id="Слой_1" data-name="Слой 1" xmlns="http://www.w3.org/2000/svg" xmlns:xlink="http://www.w3.org/1999/xlink" viewBox="0 0 375.02 470.55"><defs><clipPath id="clip-path"><polygon points="196.02 0 196.02 21.26 189.21 21.26 189.21 50.23 0 50.23 0 469.42 375.02 469.42 375.02 50.23 245.34 50.23 245.34 0 196.02 0" fill="none"/></clipPath></defs><polygon points="0 50.23 0 450.61 6.2 450.61 6.2 54.89 126.91 54.89 126.86 50.23 0 50.23" fill="#fff"/><polygon points="241.38 66.56 191.76 66.56 7.34 63.71 1.39 450.62 359.1 450.62 365.25 61.11 241.38 66.56" fill="#fff"/><polygon points="265.69 50.23 265.18 58.4 363.58 63.71 362.91 449.85 375.02 449.82 375.02 50.23 265.69 50.23" fill="#fff"/><g clip-path="url(#clip-path)"><rect x="-384.12" y="-1776.58" width="1162.95" height="2240.57" fill="none" stroke="#003a50" stroke-miterlimit="10"/><polygon points="-371.53 -672.41 -371.53 451.14 765.86 451.14 765.86 -1763.63 -371.53 -1763.79 -371.53 -743.12 -371.53 -672.41" fill="none" stroke="#003a50" stroke-miterlimit="10"/></g><rect x="212.36" y="425.59" width="88.98" height="4.56" fill="#fff"/><rect x="212.36" y="425.59" width="88.98" height="4.56" fill="none" stroke="#003a50" stroke-miterlimit="10"/><line x1="301.34" y1="427.87" x2="212.36" y2="427.87" fill="none" stroke="#003a50" stroke-miterlimit="10"/><rect x="296.72" y="425.59" width="4.61" height="4.56" fill="#fff"/><rect x="296.72" y="425.59" width="4.61" height="4.56" fill="none" stroke="#003a50" stroke-miterlimit="10"/><rect x="212.36" y="425.59" width="4.61" height="4.56" fill="#fff"/><rect x="212.36" y="425.59" width="4.61" height="4.56" fill="none" stroke="#003a50" stroke-miterlimit="10"/><rect x="253.46" y="425.59" width="4.61" height="4.56" fill="#fff"/><rect x="253.46" y="425.59" width="4.61" height="4.56" fill="none" stroke="#003a50" stroke-miterlimit="10"/><g clip-path="url(#clip-path)"><path d="M253.46,425.59v-2.9c0-20.15-16.34-33.1-36.48-33.1v36" fill="none" stroke="#003a50" stroke-miterlimit="10"/></g><rect x="29.37" y="425.59" width="87.88" height="4.56" fill="#fff"/><rect x="29.37" y="425.59" width="87.88" height="4.56" fill="none" stroke="#003a50" stroke-miterlimit="10"/><line x1="29.37" y1="427.87" x2="117.25" y2="427.87" fill="none" stroke="#003a50" stroke-miterlimit="10"/><rect x="29.37" y="425.59" width="4.56" height="4.56" fill="#fff"/><rect x="29.37" y="425.59" width="4.56" height="4.56" fill="none" stroke="#003a50" stroke-miterlimit="10"/><rect x="112.69" y="425.59" width="4.56" height="4.56" fill="#fff"/><rect x="112.7" y="425.59" width="4.56" height="4.56" fill="none" stroke="#003a50" stroke-miterlimit="10"/><rect x="72.11" y="425.59" width="4.56" height="4.56" fill="#fff"/><rect x="72.11" y="425.59" width="4.56" height="4.56" fill="none" stroke="#003a50" stroke-miterlimit="10"/><g clip-path="url(#clip-path)"><path d="M76.66,425.59v-2.9c0-20.15,16.13-33.1,36-33.1v36" fill="none" stroke="#003a50" stroke-miterlimit="10"/></g><rect x="14.76" y="91.64" width="42.38" height="92.09" fill="none" stroke="#003a50" stroke-miterlimit="10"/><g clip-path="url(#clip-path)"><rect x="19.74" y="95.44" width="32.03" height="84.24" rx="13.7" fill="none" stroke="#003a50" stroke-miterlimit="10"/><path d="M38,110a2.21,2.21,0,1,0-2.2,2.2A2.2,2.2,0,0,0,38,110Z" fill="none" stroke="#003a50" stroke-miterlimit="10"/><rect x="-41.97" y="91.65" width="42.38" height="92.54" fill="none" stroke="#003a50" stroke-miterlimit="10"/><path d="M99.78,119.72V91.15H76.71v28.57a11.54,11.54,0,1,0,23.07,0Z" fill="none" stroke="#003a50" stroke-miterlimit="10"/></g><rect x="76.71" y="91.16" width="23.08" height="11.08" fill="none" stroke="#003a50" stroke-miterlimit="10"/><g clip-path="url(#clip-path)"><path d="M143.33,76.43a3.41,3.41,0,0,0,3.13-2.1h1.92l5.1,3-2.31,3.77-2.66-1.46V91.51H137.42V79.68l-2.66,1.46-2.31-3.77,5.14-3h2.57A3.47,3.47,0,0,0,143.33,76.43Z" fill="none" stroke="#003a50" stroke-miterlimit="10"/></g><rect x="125.96" y="66.53" width="34.02" height="32.78" fill="none" stroke="#003a50" stroke-miterlimit="10"/><rect x="325.42" y="99.18" width="34.02" height="33.97" fill="none" stroke="#003a50" stroke-miterlimit="10"/><g clip-path="url(#clip-path)"><path d="M346.73,114.65v-11h-8.6v11a3.54,3.54,0,0,0,3.54,3.55h1.52A3.55,3.55,0,0,0,346.73,114.65Z" fill="none" stroke="#003a50" stroke-miterlimit="10"/></g><polyline points="338.95 128.76 342.43 128.76 345.9 128.76" fill="none" stroke="#003a50" stroke-miterlimit="10"/><line x1="342.43" y1="118.2" x2="342.43" y2="128.76" fill="none" stroke="#003a50" stroke-miterlimit="10"/><rect x="325.51" y="140.29" width="34.02" height="34.02" fill="none" stroke="#003a50" stroke-miterlimit="10"/><g clip-path="url(#clip-path)"><path d="M334.91,169.71a4.64,4.64,0,1,1,4.64-4.64A4.64,4.64,0,0,1,334.91,169.71Z" fill="none" stroke="#003a50" stroke-miterlimit="10"/><path d="M334.91,154.22a4.64,4.64,0,1,1,4.64-4.63A4.63,4.63,0,0,1,334.91,154.22Z" fill="none" stroke="#003a50" stroke-miterlimit="10"/><path d="M350,169.71a4.64,4.64,0,1,1,4.64-4.64A4.64,4.64,0,0,1,350,169.71Z" fill="none" stroke="#003a50" stroke-miterlimit="10"/><path d="M350,154.22a4.64,4.64,0,1,1,4.64-4.63A4.63,4.63,0,0,1,350,154.22Z" fill="none" stroke="#003a50" stroke-miterlimit="10"/></g><rect x="183.8" y="302.84" width="17.01" height="102.05" fill="none" stroke="#003a50" stroke-miterlimit="10"/><polygon points="192.84 396.87 189.32 353.97 192.84 310.87 195.3 310.87 195.3 396.87 192.84 396.87" fill="none" stroke="#003a50" stroke-miterlimit="10"/><rect x="161.15" y="285.86" width="17.01" height="102.05" fill="none" stroke="#003a50" stroke-miterlimit="10"/><polygon points="169.11 379.88 172.64 336.98 169.11 293.88 166.65 293.88 166.65 379.88 169.11 379.88" fill="none" stroke="#003a50" stroke-miterlimit="10"/><rect x="325.51" y="99.28" width="33.59" height="122.25" fill="none" stroke="#003a50" stroke-miterlimit="10"/><rect x="278.44" y="66.55" width="80.66" height="32.72" fill="none" stroke="#003a50" stroke-miterlimit="10"/><g clip-path="url(#clip-path)"><rect x="-52.41" y="280.04" width="52.33" height="113.67" fill="none" stroke="#003a50" stroke-miterlimit="10"/></g><rect x="160.21" y="66.55" width="21.14" height="32.72" fill="none" stroke="#003a50" stroke-miterlimit="10"/><rect x="125.72" y="156.71" width="55.62" height="26.49" fill="none" stroke="#003a50" stroke-miterlimit="10"/><polyline points="311.88 70.08 305.09 70.08 298.3 70.08" fill="none" stroke="#003a50" stroke-miterlimit="10"/><line x1="305.07" y1="83.7" x2="305.07" y2="70.08" fill="none" stroke="#003a50" stroke-miterlimit="10"/><g clip-path="url(#clip-path)"><path d="M320.14,94.34V79.14a3.22,3.22,0,0,0-3.23-3.23H293.32a3.23,3.23,0,0,0-3.24,3.23v15.2a3.23,3.23,0,0,0,3.24,3.23h23.59A3.22,3.22,0,0,0,320.14,94.34Z" fill="none" stroke="#003a50" stroke-miterlimit="10"/><path d="M305.07,85.39A2.43,2.43,0,1,0,302.64,83,2.42,2.42,0,0,0,305.07,85.39Z" fill="none" stroke="#003a50" stroke-miterlimit="10"/><polygon points="408.06 169.41 408.06 90.09 463.83 90.09 463.83 55.81 370.9 55.81 370.9 90.09 373.78 90.09 373.78 169.41 370.9 169.41 370.9 203.69 497.99 203.69 497.99 169.41 408.06 169.41" fill="none" stroke="#003a50" stroke-miterlimit="10"/><path d="M230,269.73a1.26,1.26,0,0,1,.94,1.51,13.78,13.78,0,0,0,26.87,6.16,1.26,1.26,0,1,1,2.46.56,16.3,16.3,0,1,1-31.78-7.29A1.26,1.26,0,0,1,230,269.73Z" fill="none" stroke="#003a50" stroke-miterlimit="10"/><path d="M285.21,279.45a1.25,1.25,0,0,1,1.75-.33,13.79,13.79,0,0,0,15.52-22.79,1.26,1.26,0,0,1,1.42-2.08,16.3,16.3,0,0,1-18.36,26.95A1.26,1.26,0,0,1,285.21,279.45Z" fill="none" stroke="#003a50" stroke-miterlimit="10"/><path d="M287.71,232a1.26,1.26,0,0,1-1.33-1.18,13.78,13.78,0,1,0-27.52,1.63,1.26,1.26,0,1,1-2.51.15,16.3,16.3,0,1,1,32.54-1.93A1.24,1.24,0,0,1,287.71,232Z" fill="none" stroke="#003a50" stroke-miterlimit="10"/><path d="M244.24,286.34a12.69,12.69,0,0,1-12-15.48l2-8.88a3.53,3.53,0,0,1,4.24-2.68L252,262.38a23.73,23.73,0,0,0,6,9.44l-1,4.2C255.64,282,250.36,286.54,244.24,286.34Z" fill="none" stroke="#003a50" stroke-miterlimit="10"/><path d="M287,277.82l-2.32-1.6a23.81,23.81,0,0,0,13.64-21.32l2.52,1.72c5,3.44,7.4,10,5,15.64A12.7,12.7,0,0,1,287,277.82Z" fill="none" stroke="#003a50" stroke-miterlimit="10"/><path d="M260.2,235.54l-.12-2c-.36-6.12,3.4-12,9.32-13.48a12.66,12.66,0,0,1,15.88,11.48l.12,1.84a23.93,23.93,0,0,0-16.64-1.92A23.5,23.5,0,0,0,260.2,235.54Z" fill="none" stroke="#003a50" stroke-miterlimit="10"/><path d="M258,271.82a23.73,23.73,0,0,1-6-9.44,16.51,16.51,0,0,1-.6-2,23.85,23.85,0,0,1,8.84-24.84,23.5,23.5,0,0,1,8.56-4,23.87,23.87,0,0,1,28.92,17.4,22.12,22.12,0,0,1,.68,6,23.81,23.81,0,0,1-13.64,21.32,22.85,22.85,0,0,1-4.48,1.6A23.8,23.8,0,0,1,258,271.82Z" fill="none" stroke="#003a50" stroke-miterlimit="10"/><path d="M55.11,218.62a1,1,0,0,1-.54.9,1,1,0,0,1-1.3-.46,29.69,29.69,0,0,1,0-25.26.94.94,0,0,1,1.29-.45,1,1,0,0,1,.45,1.34,27.64,27.64,0,0,0,0,23.49A1,1,0,0,1,55.11,218.62Z" fill="none" stroke="#003a50" stroke-miterlimit="10"/><path d="M49.74,218.62a1,1,0,0,1-.54.9,1,1,0,0,1-1.3-.46,29.69,29.69,0,0,1,0-25.26.94.94,0,0,1,1.29-.45,1,1,0,0,1,.45,1.34,27.64,27.64,0,0,0,0,23.49A1.13,1.13,0,0,1,49.74,218.62Z" fill="none" stroke="#003a50" stroke-miterlimit="10"/><path d="M44.37,218.62a1,1,0,0,1-.54.9,1,1,0,0,1-1.3-.46,29.69,29.69,0,0,1,0-25.26.94.94,0,0,1,1.29-.45,1,1,0,0,1,.45,1.34,27.64,27.64,0,0,0,0,23.49A1.13,1.13,0,0,1,44.37,218.62Z" fill="none" stroke="#003a50" stroke-miterlimit="10"/><path d="M39,218.62a1,1,0,0,1-.54.9,1,1,0,0,1-1.29-.46,29.69,29.69,0,0,1,0-25.26.94.94,0,0,1,1.29-.45,1,1,0,0,1,.44,1.34,27.64,27.64,0,0,0,0,23.49A1,1,0,0,1,39,218.62Z" fill="none" stroke="#003a50" stroke-miterlimit="10"/><path d="M33.62,218.62a1,1,0,0,1-.54.9,1,1,0,0,1-1.29-.46,29.69,29.69,0,0,1,0-25.26.94.94,0,0,1,1.29-.45,1,1,0,0,1,.44,1.34,27.64,27.64,0,0,0,0,23.49A1,1,0,0,1,33.62,218.62Z" fill="none" stroke="#003a50" stroke-miterlimit="10"/><path d="M28.25,218.62a1,1,0,0,1-.54.9,1,1,0,0,1-1.3-.46,29.69,29.69,0,0,1,0-25.26,1,1,0,0,1,1.3-.45,1,1,0,0,1,.44,1.34,27.64,27.64,0,0,0,0,23.49A1,1,0,0,1,28.25,218.62Z" fill="none" stroke="#003a50" stroke-miterlimit="10"/><path d="M60.48,218.62a1,1,0,0,1-.54.9,1,1,0,0,1-1.3-.46,29.69,29.69,0,0,1,0-25.26,1,1,0,0,1,1.3-.45,1,1,0,0,1,.44,1.34,27.64,27.64,0,0,0,0,23.49A1,1,0,0,1,60.48,218.62Z" fill="none" stroke="#003a50" stroke-miterlimit="10"/><path d="M65.85,218.62a1,1,0,0,1-.54.9,1,1,0,0,1-1.29-.46,29.69,29.69,0,0,1,0-25.26.94.94,0,0,1,1.29-.45,1,1,0,0,1,.44,1.34,27.64,27.64,0,0,0,0,23.49A1,1,0,0,1,65.85,218.62Z" fill="none" stroke="#003a50" stroke-miterlimit="10"/></g><line x1="177.89" y1="206.43" x2="14.02" y2="206.43" fill="none" stroke="#003a50" stroke-miterlimit="10"/><rect x="15.03" y="189.14" width="162.86" height="34.02" fill="none" stroke="#003a50" stroke-miterlimit="10"/><g clip-path="url(#clip-path)"><rect x="374.6" y="16.09" width="118.02" height="33.34" fill="none" stroke="#003a50" stroke-miterlimit="10"/><line x1="492.62" y1="226.28" x2="374.6" y2="226.28" fill="none" stroke="#003a50" stroke-miterlimit="10"/><rect x="374.6" y="209.33" width="118.02" height="33.34" fill="none" stroke="#003a50" stroke-miterlimit="10"/><path d="M47.77,45.42a1,1,0,0,1-.54.9,1,1,0,0,1-1.3-.46,29.69,29.69,0,0,1,0-25.26,1,1,0,0,1,1.3-.46,1,1,0,0,1,.44,1.34,27.66,27.66,0,0,0,0,23.5A1,1,0,0,1,47.77,45.42Z" fill="none" stroke="#003a50" stroke-miterlimit="10"/><path d="M42.4,45.42a1,1,0,0,1-.54.9,1,1,0,0,1-1.3-.46,29.69,29.69,0,0,1,0-25.26,1,1,0,0,1,1.29-.46,1,1,0,0,1,.45,1.34,27.66,27.66,0,0,0,0,23.5A1,1,0,0,1,42.4,45.42Z" fill="none" stroke="#003a50" stroke-miterlimit="10"/><path d="M37,45.42a1,1,0,0,1-.54.9,1,1,0,0,1-1.3-.46,29.69,29.69,0,0,1,0-25.26,1,1,0,0,1,1.29-.46,1,1,0,0,1,.45,1.34,27.66,27.66,0,0,0,0,23.5A1.13,1.13,0,0,1,37,45.42Z" fill="none" stroke="#003a50" stroke-miterlimit="10"/><path d="M31.65,45.42a1,1,0,0,1-.54.9,1,1,0,0,1-1.29-.46,29.69,29.69,0,0,1,0-25.26,1,1,0,0,1,1.29-.46,1,1,0,0,1,.44,1.34,27.66,27.66,0,0,0,0,23.5A1,1,0,0,1,31.65,45.42Z" fill="none" stroke="#003a50" stroke-miterlimit="10"/><path d="M26.28,45.42a1,1,0,0,1-.54.9,1,1,0,0,1-1.29-.46,29.69,29.69,0,0,1,0-25.26,1,1,0,0,1,1.29-.46,1,1,0,0,1,.44,1.34,27.66,27.66,0,0,0,0,23.5A1,1,0,0,1,26.28,45.42Z" fill="none" stroke="#003a50" stroke-miterlimit="10"/><path d="M20.91,45.42a1,1,0,0,1-.54.9,1,1,0,0,1-1.29-.46,29.69,29.69,0,0,1,0-25.26,1,1,0,0,1,1.29-.46,1,1,0,0,1,.44,1.34,27.66,27.66,0,0,0,0,23.5A1,1,0,0,1,20.91,45.42Z" fill="none" stroke="#003a50" stroke-miterlimit="10"/><path d="M53.14,45.42a1,1,0,0,1-.54.9,1,1,0,0,1-1.3-.46,29.69,29.69,0,0,1,0-25.26,1,1,0,0,1,1.3-.46A1,1,0,0,1,53,21.48,27.66,27.66,0,0,0,53,45,1,1,0,0,1,53.14,45.42Z" fill="none" stroke="#003a50" stroke-miterlimit="10"/><path d="M58.51,45.42a1,1,0,0,1-.54.9,1,1,0,0,1-1.29-.46,29.69,29.69,0,0,1,0-25.26A1,1,0,0,1,58,20.14a1,1,0,0,1,.44,1.34,27.66,27.66,0,0,0,0,23.5A1,1,0,0,1,58.51,45.42Z" fill="none" stroke="#003a50" stroke-miterlimit="10"/><rect x="7.42" y="15.66" width="119.14" height="34.58" fill="none" stroke="#003a50" stroke-miterlimit="10"/></g><rect x="57.46" y="157.85" width="61.57" height="25.39" fill="none" stroke="#003a50" stroke-miterlimit="10"/><g clip-path="url(#clip-path)"><rect x="75.56" y="159.92" width="24.4" height="25.04" rx="2.83" fill="none" stroke="#003a50" stroke-miterlimit="10"/><path d="M87.76,170.52a1.92,1.92,0,1,1-1.91,1.92A1.92,1.92,0,0,1,87.76,170.52Z" fill="none" stroke="#003a50" stroke-miterlimit="10"/></g><rect x="325.46" y="187.94" width="33.52" height="33.52" fill="none" stroke="#003a50" stroke-miterlimit="10"/><line x1="342.22" y1="214.54" x2="342.22" y2="194.87" fill="none" stroke="#003a50" stroke-miterlimit="10"/><line x1="352.05" y1="204.71" x2="332.38" y2="204.71" fill="none" stroke="#003a50" stroke-miterlimit="10"/><line x1="349.17" y1="211.66" x2="335.26" y2="197.75" fill="none" stroke="#003a50" stroke-miterlimit="10"/><line x1="349.17" y1="197.75" x2="335.26" y2="211.66" fill="none" stroke="#003a50" stroke-miterlimit="10"/><g clip-path="url(#clip-path)"><rect x="-88.77" y="189.14" width="90.71" height="34.02" fill="none" stroke="#003a50" stroke-miterlimit="10"/><line x1="1.93" y1="206.15" x2="-88.77" y2="206.15" fill="none" stroke="#003a50" stroke-miterlimit="10"/><path d="M312.76,353.92h41v45.77H310.55V356.13A2.2,2.2,0,0,1,312.76,353.92Z" fill="none" stroke="#003a50" stroke-miterlimit="10"/><path d="M312.53,308.05h41.26v45.77H312.53a2,2,0,0,1-2-2V310A2,2,0,0,1,312.53,308.05Z" fill="none" stroke="#003a50" stroke-miterlimit="10"/><path d="M310.54,399.69a3.1,3.1,0,0,0-2.82,3.33v4.22a3.1,3.1,0,0,0,2.82,3.32h48.2V297.18H311a3.11,3.11,0,0,0-2.83,3.32v4.23a3.11,3.11,0,0,0,2.83,3.32h42.82v91.64Z" fill="none" stroke="#003a50" stroke-miterlimit="10"/></g><rect x="344.54" y="308.05" width="9.25" height="91.64" fill="none" stroke="#003a50" stroke-miterlimit="10"/><rect x="16.27" y="250.8" width="22.68" height="22.68" fill="none" stroke="#003a50" stroke-miterlimit="10"/><g clip-path="url(#clip-path)"><path d="M34.11,268.65a9.2,9.2,0,1,1,0-13A9.19,9.19,0,0,1,34.11,268.65Z" fill="none" stroke="#003a50" stroke-miterlimit="10"/><path d="M34.73,268c-1.69-.17-3.41.49-5.06-1.17-2.44-2.43.14-5-2.3-7.45s-5,.14-7.46-2.3" fill="none" stroke="#003a50" stroke-miterlimit="10"/></g><rect x="16.27" y="280.95" width="113.38" height="102.05" fill="none" stroke="#003a50" stroke-miterlimit="10"/><g clip-path="url(#clip-path)"><path d="M119.92,291V373a2.08,2.08,0,0,1-2.08,2.08H50.2V288.87h67.64A2.08,2.08,0,0,1,119.92,291Z" fill="none" stroke="#003a50" stroke-miterlimit="10"/><rect x="23.7" y="332.84" width="22.88" height="42.5" rx="1.98" fill="none" stroke="#003a50" stroke-miterlimit="10"/><rect x="23.7" y="288.61" width="22.88" height="42.5" rx="1.98" fill="none" stroke="#003a50" stroke-miterlimit="10"/></g><line x1="64.05" y1="288.61" x2="64.05" y2="375.34" fill="none" stroke="#003a50" stroke-miterlimit="10"/><g clip-path="url(#clip-path)"><rect x="-26.68" y="15.94" width="34.02" height="34.02" fill="none" stroke="#003a50" stroke-miterlimit="10"/><path d="M181.78,280.12h-3.46a43.48,43.48,0,0,1-43.48-43.47h46.94" fill="none" stroke="#003a50" stroke-miterlimit="10" stroke-width="1.6"/><path d="M124.29,114.83h3.13a39.34,39.34,0,0,1,39.34,39.34H124.29" fill="none" stroke="#003a50" stroke-miterlimit="10" stroke-width="1.6"/><path d="M191.11,56.68V52.61A51.12,51.12,0,0,1,242.24,1.49V56.68" fill="none" stroke="#003a50" stroke-miterlimit="10" stroke-width="1.6"/><path d="M137.52-36.54h4.06a51.13,51.13,0,0,1,51.13,51.12H137.52" fill="none" stroke="#003a50" stroke-miterlimit="10" stroke-width="1.6"/><rect x="252.69" y="-2.29" width="16.32" height="66" fill="#003a50"/><rect x="241.38" y="50.24" width="131.96" height="16.32" fill="#003a50"/><rect x="-0.07" y="50.24" width="191.83" height="16.32" fill="#003a50"/><rect x="-0.07" y="58.4" width="16.32" height="372.48" fill="#003a50"/><rect x="126.43" y="13.71" width="16.32" height="40.5" fill="#003a50"/><rect x="359.1" y="50.24" width="16.32" height="380.64" fill="#003a50"/><rect x="-1.27" y="417.96" width="27.03" height="46.75" fill="#003a50"/><rect x="2.73" y="417.96" width="27.03" height="23.38" fill="#003a50"/><rect x="124.26" y="411.79" width="82.83" height="27.12" fill="#003a50"/><rect x="301.84" y="417.96" width="95.33" height="34.25" fill="#003a50"/><rect x="370.01" y="421.96" width="27.17" height="41.92" fill="#003a50"/><rect x="116.93" y="417.96" width="95.33" height="34.25" fill="#003a50"/><rect x="185.09" y="421.96" width="27.17" height="41.92" fill="#003a50"/><rect x="-91.8" y="184.1" width="94.48" height="6.38" fill="#003a50"/><rect x="-95.43" y="50.21" width="99.68" height="6.38" fill="#003a50"/><rect x="-95.43" y="85.83" width="99.68" height="6.38" fill="#003a50"/><rect x="178.15" y="279.33" width="6.38" height="136.12" fill="#003a50"/><rect x="178.15" y="183.21" width="6.38" height="54.19" fill="#003a50"/><rect x="369.04" y="24.45" width="6.38" height="33.94" fill="#003a50"/><rect x="265.18" y="24.44" width="108.92" height="6.38" fill="#003a50"/><rect x="316.44" y="26.71" width="6.38" height="33.17" fill="#003a50"/><rect x="369.04" y="49.43" width="128.72" height="6.38" fill="#003a50"/><rect x="119.35" y="65.38" width="6.38" height="50.21" fill="#003a50"/><rect x="119.35" y="153.33" width="6.38" height="32.88" fill="#003a50"/><rect x="181.34" y="156.36" width="3.19" height="29.85" fill="#003a50"/><rect x="181.34" y="66.53" width="3.19" height="36.33" fill="#003a50"/><rect x="14.76" y="85.27" width="107.78" height="6.38" fill="#003a50"/><rect x="83.2" y="62.65" width="6.38" height="26.37" fill="#003a50"/><rect x="252.1" y="63.71" width="6.38" height="25.25" fill="#003a50"/><rect x="272.07" y="64.46" width="6.38" height="24.5" fill="#003a50"/><rect x="253.95" y="82.58" width="24.5" height="6.38" fill="#003a50"/><rect x="14.76" y="183.4" width="166.58" height="6.38" fill="#003a50"/><line x1="183.8" y1="156.71" x2="186.64" y2="156.71" fill="none" stroke="#003a50" stroke-miterlimit="10"/><line x1="192.38" y1="156.71" x2="246.99" y2="156.71" fill="none" stroke="#003a50" stroke-miterlimit="10" stroke-dasharray="5.75 5.75"/><polyline points="249.86 156.72 252.69 156.72 252.69 153.88" fill="none" stroke="#003a50" stroke-miterlimit="10"/><line x1="252.69" y1="148.03" x2="252.69" y2="92.5" fill="none" stroke="#003a50" stroke-miterlimit="10" stroke-dasharray="5.85 5.85"/><line x1="252.69" y1="89.57" x2="252.69" y2="86.74" fill="none" stroke="#003a50" stroke-miterlimit="10"/><line x1="9.57" y1="16.22" x2="9.57" y2="-54.99" fill="none" stroke="#003a50" stroke-miterlimit="10" stroke-width="0.57" stroke-dasharray="5.67 5.67"/><rect x="-91.8" y="184.1" width="94.48" height="6.38" fill="#003a50"/><rect x="-95.43" y="50.21" width="99.68" height="6.38" fill="#003a50"/><rect x="-95.43" y="85.83" width="99.68" height="6.38" fill="#003a50"/><rect x="178.15" y="279.33" width="6.38" height="136.12" fill="#003a50"/><rect x="178.15" y="183.21" width="6.38" height="54.19" fill="#003a50"/><rect x="265.18" y="24.44" width="108.92" height="6.38" fill="#003a50"/><rect x="316.44" y="26.71" width="6.38" height="33.17" fill="#003a50"/><rect x="119.35" y="65.38" width="6.38" height="50.21" fill="#003a50"/><rect x="119.35" y="153.33" width="6.38" height="32.88" fill="#003a50"/><rect x="181.34" y="156.36" width="3.19" height="29.85" fill="#003a50"/><rect x="181.34" y="66.53" width="3.19" height="36.33" fill="#003a50"/><rect x="14.76" y="85.27" width="107.78" height="6.38" fill="#003a50"/><rect x="83.2" y="62.65" width="6.38" height="26.37" fill="#003a50"/><rect x="252.1" y="63.71" width="6.38" height="25.25" fill="#003a50"/><rect x="272.07" y="64.46" width="6.38" height="24.5" fill="#003a50"/><rect x="253.95" y="82.58" width="24.5" height="6.38" fill="#003a50"/><rect x="14.76" y="183.4" width="166.58" height="6.38" fill="#003a50"/><line x1="183.8" y1="156.71" x2="186.64" y2="156.71" fill="none" stroke="#003a50" stroke-miterlimit="10"/><line x1="192.38" y1="156.71" x2="246.99" y2="156.71" fill="none" stroke="#003a50" stroke-miterlimit="10" stroke-dasharray="5.75 5.75"/><polyline points="249.86 156.72 252.69 156.72 252.69 153.88" fill="none" stroke="#003a50" stroke-miterlimit="10"/><line x1="252.69" y1="148.03" x2="252.69" y2="92.5" fill="none" stroke="#003a50" stroke-miterlimit="10" stroke-dasharray="5.85 5.85"/><line x1="252.69" y1="89.57" x2="252.69" y2="86.74" fill="none" stroke="#003a50" stroke-miterlimit="10"/><line x1="9.57" y1="16.22" x2="9.57" y2="-54.99" fill="none" stroke="#003a50" stroke-miterlimit="10" stroke-width="0.57" stroke-dasharray="5.67 5.67"/></g><g clip-path="url(#clip-path)"><path d="M227.41,442a5.19,5.19,0,0,1,0-6.23,4,4,0,0,1,5.74,0,5.19,5.19,0,0,1,0,6.23,4,4,0,0,1-5.74,0Zm4.61-1a4.08,4.08,0,0,0,0-4.29,2.07,2.07,0,0,0-1.74-.83,2,2,0,0,0-1.73.83,4,4,0,0,0,0,4.29,2,2,0,0,0,1.73.83A2.07,2.07,0,0,0,232,441Z" fill="#003a50"/><path d="M235.74,443a.68.68,0,0,1-.23-.56.71.71,0,0,1,.23-.57,1,1,0,0,1,1.22,0,.75.75,0,0,1,.23.57.71.71,0,0,1-.23.56,1,1,0,0,1-1.22,0Z" fill="#003a50"/><path d="M245.35,437h-1.56a.39.39,0,0,0,0-.12,1.67,1.67,0,0,0-.15-.31,1.91,1.91,0,0,0-.27-.35,1.24,1.24,0,0,0-.51-.29,2,2,0,0,0-.71-.12,1.77,1.77,0,0,0-1.51.73,3.11,3.11,0,0,0-.54,1.89h0a1.11,1.11,0,0,1,.31-.3,2.73,2.73,0,0,1,.43-.26,3,3,0,0,1,.67-.21,4,4,0,0,1,.86-.09,3.54,3.54,0,0,1,2.37.78,2.46,2.46,0,0,1,.92,2,2.54,2.54,0,0,1-1,2.05,3.87,3.87,0,0,1-2.54.78,3.41,3.41,0,0,1-2.73-1.09,4.53,4.53,0,0,1-.93-3v-.28a4.81,4.81,0,0,1,.93-3,3.18,3.18,0,0,1,2.68-1.21,4.06,4.06,0,0,1,1.5.26,2.73,2.73,0,0,1,1,.66A2.48,2.48,0,0,1,245.35,437Zm-1.77,2.22a2.32,2.32,0,0,0-1.4-.41,2.27,2.27,0,0,0-1.39.41,1.33,1.33,0,0,0-.55,1.12,1.31,1.31,0,0,0,.54,1.1,2.54,2.54,0,0,0,2.8,0,1.29,1.29,0,0,0,.55-1.1A1.35,1.35,0,0,0,243.58,439.23Z" fill="#003a50"/><path d="M46.16,442a5.19,5.19,0,0,1,0-6.23,4,4,0,0,1,5.74,0,5.19,5.19,0,0,1,0,6.23,4,4,0,0,1-5.74,0Zm4.61-1a4.08,4.08,0,0,0,0-4.29,2.23,2.23,0,0,0-3.47,0,4,4,0,0,0,0,4.29,2,2,0,0,0,1.73.83A2.07,2.07,0,0,0,50.77,441Z" fill="#003a50"/><path d="M54.49,443a.71.71,0,0,1-.23-.56.75.75,0,0,1,.23-.57.87.87,0,0,1,.61-.21.85.85,0,0,1,.61.21.71.71,0,0,1,.23.57.68.68,0,0,1-.23.56.86.86,0,0,1-.61.22A.88.88,0,0,1,54.49,443Z" fill="#003a50"/><path d="M64.1,437H62.54s0,0,0-.12a1.2,1.2,0,0,0-.15-.31,1.91,1.91,0,0,0-.27-.35,1.27,1.27,0,0,0-.5-.29,2.08,2.08,0,0,0-.71-.12,1.78,1.78,0,0,0-1.52.73,3.11,3.11,0,0,0-.54,1.89h0a1.11,1.11,0,0,1,.31-.3,2.73,2.73,0,0,1,.43-.26,3.14,3.14,0,0,1,.67-.21,4,4,0,0,1,.86-.09,3.57,3.57,0,0,1,2.38.78,2.62,2.62,0,0,1,0,4,3.87,3.87,0,0,1-2.54.78,3.41,3.41,0,0,1-2.73-1.09,4.53,4.53,0,0,1-.93-3v-.28a4.81,4.81,0,0,1,.93-3,3.18,3.18,0,0,1,2.69-1.21,4.14,4.14,0,0,1,1.5.26,2.77,2.77,0,0,1,1,.66A2.48,2.48,0,0,1,64.1,437Zm-1.77,2.22a2.58,2.58,0,0,0-2.79,0,1.33,1.33,0,0,0-.55,1.12,1.31,1.31,0,0,0,.54,1.1,2.54,2.54,0,0,0,2.8,0,1.29,1.29,0,0,0,.55-1.1A1.33,1.33,0,0,0,62.33,439.23Z" fill="#003a50"/><path d="M81,139.64H75.16V137.8H84v1.84l-4.53,2.65v.07h1.28a3.9,3.9,0,0,1,2.79,1A3.5,3.5,0,0,1,84.62,146a3.35,3.35,0,0,1-1.33,2.82,6.93,6.93,0,0,1-7.24,0A3.35,3.35,0,0,1,74.72,146v-.33h2.11V146c0,1.36.94,2,2.84,2s2.84-.67,2.84-2-1-2-2.84-2H76.4v-1.67L81,139.71Z" fill="#003a50"/><path d="M86.72,149.58a1.15,1.15,0,0,1,0-1.61,1.23,1.23,0,0,1,.87-.3,1.2,1.2,0,0,1,.86.3,1.15,1.15,0,0,1,0,1.61,1.2,1.2,0,0,1-.86.3A1.23,1.23,0,0,1,86.72,149.58Z" fill="#003a50"/><path d="M96.83,139.64H91V137.8h8.86v1.84l-4.52,2.65v.07h1.28a3.9,3.9,0,0,1,2.79,1,3.52,3.52,0,0,1,1,2.67,3.32,3.32,0,0,1-1.33,2.82,6.93,6.93,0,0,1-7.24,0A3.38,3.38,0,0,1,90.56,146v-.33h2.11V146c0,1.36,1,2,2.84,2s2.84-.67,2.84-2-.94-2-2.84-2H92.25v-1.67l4.58-2.68Z" fill="#003a50"/><path d="M157.31,116.17h-9.93v-1.56a2.79,2.79,0,0,1,.58-1.75,4.08,4.08,0,0,1,1.44-1.19c.5-.26,1.12-.54,1.87-.87l1.88-.77a4.07,4.07,0,0,0,1.44-.91,1.77,1.77,0,0,0,.58-1.3q0-1.89-2.67-1.89t-2.67,2.16v.41h-2.11v-.41a3.64,3.64,0,0,1,1.26-3,5.42,5.42,0,0,1,3.51-1,5.61,5.61,0,0,1,3.51,1,3.28,3.28,0,0,1,1.28,2.75,3.17,3.17,0,0,1-.56,1.83,4.25,4.25,0,0,1-1.4,1.3,16.7,16.7,0,0,1-1.84.93c-.63.28-1.23.53-1.83.75a5.26,5.26,0,0,0-1.4.75,1.2,1.2,0,0,0-.56,1h7.62Z" fill="#003a50"/><path d="M159.41,116a1.17,1.17,0,0,1,0-1.61,1.41,1.41,0,0,1,1.74,0,1.17,1.17,0,0,1,0,1.61,1.41,1.41,0,0,1-1.74,0Z" fill="#003a50"/><path d="M173.19,116.17h-9.94v-1.56a2.8,2.8,0,0,1,.59-1.75,4.08,4.08,0,0,1,1.44-1.19c.5-.26,1.12-.54,1.87-.87L169,110a4.07,4.07,0,0,0,1.44-.91,1.8,1.8,0,0,0,.57-1.3c0-1.26-.88-1.89-2.66-1.89s-2.68.72-2.68,2.16v.41h-2.1v-.41a3.64,3.64,0,0,1,1.26-3,5.4,5.4,0,0,1,3.51-1,5.61,5.61,0,0,1,3.51,1,3.27,3.27,0,0,1,1.27,2.75,3.16,3.16,0,0,1-.55,1.83,4.28,4.28,0,0,1-1.41,1.3,16.56,16.56,0,0,1-1.83.93q-.95.42-1.83.75a5.26,5.26,0,0,0-1.4.75,1.22,1.22,0,0,0-.57,1h7.63Z" fill="#003a50"/><path d="M308.51,1.47h-2.35l5.41-10h-6.92v-1.88h9.28v1.88Z" fill="#003a50"/><path d="M315.36,1.34A1,1,0,0,1,315,.53a1,1,0,0,1,.32-.81,1.45,1.45,0,0,1,1.74,0,1.07,1.07,0,0,1,.32.81,1,1,0,0,1-.32.81,1.45,1.45,0,0,1-1.74,0Z" fill="#003a50"/><path d="M320.77-.07a6.42,6.42,0,0,1-1.48-4.42,6.45,6.45,0,0,1,1.48-4.41,5.09,5.09,0,0,1,4.07-1.71A5.09,5.09,0,0,1,328.9-8.9a6.49,6.49,0,0,1,1.48,4.41A6.47,6.47,0,0,1,328.9-.07a5.09,5.09,0,0,1-4.06,1.7A5.08,5.08,0,0,1,320.77-.07Zm6.52-1.39a4.89,4.89,0,0,0,.88-3,5,5,0,0,0-.88-3,2.89,2.89,0,0,0-2.45-1.18,2.89,2.89,0,0,0-2.46,1.18,4.94,4.94,0,0,0-.88,3,4.89,4.89,0,0,0,.88,3,2.85,2.85,0,0,0,2.46,1.19A2.87,2.87,0,0,0,327.29-1.46Z" fill="#003a50"/><path d="M37.88-8.65H32.06v-1.84h8.86v1.84L36.4-6v.07h1.27a3.87,3.87,0,0,1,2.79,1,3.5,3.5,0,0,1,1.06,2.67A3.32,3.32,0,0,1,40.19.57a5.83,5.83,0,0,1-3.62,1A5.79,5.79,0,0,1,33,.57a3.36,3.36,0,0,1-1.33-2.86v-.32h2.11v.32c0,1.37,1,2,2.84,2s2.84-.67,2.84-2-.95-2-2.84-2H33.31V-5.9l4.57-2.68Z" fill="#003a50"/><path d="M43.62,1.28a1,1,0,0,1-.32-.8,1,1,0,0,1,.32-.81,1.41,1.41,0,0,1,1.74,0,1.07,1.07,0,0,1,.32.81,1,1,0,0,1-.32.8,1.41,1.41,0,0,1-1.74,0Z" fill="#003a50"/><path d="M56.2.65a6.43,6.43,0,0,1-3.68.93A6.37,6.37,0,0,1,48.84.64a2.91,2.91,0,0,1-1.37-2.55,2.7,2.7,0,0,1,.25-1.17,2.29,2.29,0,0,1,.66-.85,3.94,3.94,0,0,1,1.39-.77L50-4.77v-.09a3.32,3.32,0,0,1-.76-.29,2.68,2.68,0,0,1-.67-.44,2.24,2.24,0,0,1-.54-.76,2.38,2.38,0,0,1-.22-1,2.81,2.81,0,0,1,1.25-2.38,5.74,5.74,0,0,1,3.42-.9,5.79,5.79,0,0,1,3.43.9,2.83,2.83,0,0,1,1.25,2.38,2.43,2.43,0,0,1-.22,1,1.93,1.93,0,0,1-.55.75,3.72,3.72,0,0,1-1.2.68l-.22,0v.09l.28.07a3.62,3.62,0,0,1,.62.26,4.79,4.79,0,0,1,.78.51,2.82,2.82,0,0,1,.61.82,2.68,2.68,0,0,1,.27,1.2A2.94,2.94,0,0,1,56.2.65ZM50.41-.7a3.84,3.84,0,0,0,2.1.48,4,4,0,0,0,2.11-.47A1.52,1.52,0,0,0,55.35-2a1.52,1.52,0,0,0-.73-1.35,4,4,0,0,0-2.11-.47,4,4,0,0,0-2.1.47A1.53,1.53,0,0,0,49.67-2,1.51,1.51,0,0,0,50.41-.7Zm-.36-6.52A1.36,1.36,0,0,0,50.69-6a3.24,3.24,0,0,0,1.82.44A3.25,3.25,0,0,0,54.34-6,1.36,1.36,0,0,0,55-7.22a1.38,1.38,0,0,0-.65-1.2,3.29,3.29,0,0,0-1.82-.44,3.27,3.27,0,0,0-1.81.44A1.38,1.38,0,0,0,50.05-7.22Z" fill="#003a50"/><path d="M82.48,256.78l-2.49,2v-2.24l2.73-2.27h1.86v11.91h-2.1Z" fill="#003a50"/><path d="M97,266.13H87v-1.56a2.85,2.85,0,0,1,.58-1.75,4.09,4.09,0,0,1,1.45-1.19c.5-.26,1.12-.54,1.87-.87l1.87-.77a4.12,4.12,0,0,0,1.45-.91,1.81,1.81,0,0,0,.57-1.31c0-1.25-.89-1.88-2.66-1.88s-2.68.72-2.68,2.16v.41H87.38v-.41a3.61,3.61,0,0,1,1.27-3,5.4,5.4,0,0,1,3.51-1,5.65,5.65,0,0,1,3.51,1,3.25,3.25,0,0,1,1.27,2.74,3.17,3.17,0,0,1-.55,1.84,4.28,4.28,0,0,1-1.41,1.3,17.49,17.49,0,0,1-1.83.93q-.95.42-1.83.75a5.26,5.26,0,0,0-1.4.75,1.22,1.22,0,0,0-.57,1H97Z" fill="#003a50"/><path d="M99.08,266a1,1,0,0,1-.33-.81,1,1,0,0,1,.33-.81,1.44,1.44,0,0,1,1.73,0,1,1,0,0,1,.33.81,1,1,0,0,1-.33.81,1.4,1.4,0,0,1-1.73,0Z" fill="#003a50"/><path d="M106.19,266.13h-2.35l5.41-10h-6.93v-1.88h9.29v1.88Z" fill="#003a50"/><path d="M210.51,116.12h-9.93v-1.56a2.79,2.79,0,0,1,.58-1.75,4,4,0,0,1,1.44-1.19c.5-.26,1.12-.54,1.87-.87l1.88-.77a4.07,4.07,0,0,0,1.44-.91,1.78,1.78,0,0,0,.58-1.31c0-1.25-.89-1.88-2.67-1.88S203,106.6,203,108v.41h-2.11V108a3.64,3.64,0,0,1,1.26-3,5.44,5.44,0,0,1,3.51-1,5.66,5.66,0,0,1,3.52,1,3.28,3.28,0,0,1,1.27,2.74,3.17,3.17,0,0,1-.56,1.84,4.25,4.25,0,0,1-1.4,1.3,16.7,16.7,0,0,1-1.84.93q-.93.42-1.83.75a5.26,5.26,0,0,0-1.4.75,1.2,1.2,0,0,0-.56,1h7.62Z" fill="#003a50"/><path d="M212.61,116a1,1,0,0,1-.32-.81,1,1,0,0,1,.32-.81,1.45,1.45,0,0,1,1.74,0,1.07,1.07,0,0,1,.32.81,1,1,0,0,1-.32.81,1.45,1.45,0,0,1-1.74,0Z" fill="#003a50"/><path d="M218,114.58a7.33,7.33,0,0,1,0-8.83,5.69,5.69,0,0,1,8.13,0,7.33,7.33,0,0,1,0,8.83,5.71,5.71,0,0,1-8.13,0Zm6.52-1.38a5.69,5.69,0,0,0,0-6.08,3.16,3.16,0,0,0-4.91,0,5.69,5.69,0,0,0,0,6.08,3.14,3.14,0,0,0,4.91,0Z" fill="#003a50"/><path d="M187.58,256.78l-2.48,2v-2.24l2.73-2.27h1.86v11.91h-2.11Z" fill="#003a50"/><path d="M200.89,265.37a7.73,7.73,0,0,1-7.37,0,3,3,0,0,1-1.37-2.56,2.66,2.66,0,0,1,.26-1.16,2.32,2.32,0,0,1,.66-.86,4,4,0,0,1,1.39-.77l.26-.07v-.09a3.57,3.57,0,0,1-.77-.29,2.61,2.61,0,0,1-.66-.44,2.15,2.15,0,0,1-.54-.76,2.38,2.38,0,0,1-.22-1,2.79,2.79,0,0,1,1.25-2.38,7,7,0,0,1,6.85,0,2.83,2.83,0,0,1,1.25,2.38,2.63,2.63,0,0,1-.22,1.05,1.88,1.88,0,0,1-.56.74,3.59,3.59,0,0,1-1.19.68l-.23.05v.09l.29.07c.1,0,.3.12.62.26a4.28,4.28,0,0,1,.77.51,2.83,2.83,0,0,1,.62.82,2.71,2.71,0,0,1,.27,1.2A3,3,0,0,1,200.89,265.37ZM195.1,264a4.88,4.88,0,0,0,4.2,0,1.6,1.6,0,0,0,0-2.7,5,5,0,0,0-4.2,0,1.53,1.53,0,0,0-.74,1.35A1.5,1.5,0,0,0,195.1,264Zm-.36-6.52a1.35,1.35,0,0,0,.64,1.19,3.24,3.24,0,0,0,1.82.44,3.2,3.2,0,0,0,1.82-.44,1.42,1.42,0,0,0,0-2.39,4,4,0,0,0-3.62,0A1.35,1.35,0,0,0,194.74,257.49Z" fill="#003a50"/><path d="M204.36,266a1,1,0,0,1-.32-.81,1,1,0,0,1,.32-.81,1.45,1.45,0,0,1,1.74,0,1.07,1.07,0,0,1,.32.81,1,1,0,0,1-.32.81,1.41,1.41,0,0,1-1.74,0Z" fill="#003a50"/><path d="M218,257.58h-2.21s0-.07,0-.18a2.36,2.36,0,0,0-.21-.44,2.69,2.69,0,0,0-.39-.5,2,2,0,0,0-.71-.41,3,3,0,0,0-1-.16,2.49,2.49,0,0,0-2.15,1,4.41,4.41,0,0,0-.76,2.68h.06a1.49,1.49,0,0,1,.44-.43,4.22,4.22,0,0,1,.6-.37,5.11,5.11,0,0,1,1-.3,6.16,6.16,0,0,1,1.22-.13,5,5,0,0,1,3.37,1.12,3.48,3.48,0,0,1,1.3,2.79,3.57,3.57,0,0,1-1.36,2.91,5.49,5.49,0,0,1-3.6,1.11,4.81,4.81,0,0,1-3.87-1.55,6.36,6.36,0,0,1-1.32-4.27v-.4a6.88,6.88,0,0,1,1.32-4.32,4.52,4.52,0,0,1,3.8-1.71,5.66,5.66,0,0,1,2.13.38,3.6,3.6,0,0,1,1.43.94A3.44,3.44,0,0,1,218,257.58Zm-2.51,3.14a3.65,3.65,0,0,0-3.95,0,2,2,0,0,0,0,3.15,3.63,3.63,0,0,0,4,0,1.85,1.85,0,0,0,.77-1.57A1.88,1.88,0,0,0,215.47,260.72Z" fill="#003a50"/></g></svg>