<svg id="Слой_1" data-name="Слой 1" xmlns="http://www.w3.org/2000/svg" xmlns:xlink="http://www.w3.org/1999/xlink" viewBox="0 0 583.94 632.13"><defs><clipPath id="clip-path"><polygon points="18.14 0 18.14 24.21 0.14 24.21 0.14 632.13 405.41 632.13 405.41 231.19 531.97 231.19 531.97 180.57 583.94 180.57 583.94 0 18.14 0" fill="none"/></clipPath></defs><polygon points="19.66 0 19.66 0.34 518.3 3.83 518.07 0 19.66 0" fill="#fff"/><polygon points="508.8 11.6 508.8 11.9 18.71 11.9 18.71 202.92 18.71 231.13 18.71 615.25 395.42 615.25 395.42 219.53 516.14 219.53 515.65 178.35 515.65 129.01 528.98 112.84 528.98 11.6 508.8 11.6" fill="#fff"/><polygon points="390.62 615.25 405.41 615.25 405.41 231.19 531.97 231.19 531.97 230.43 396.57 228.34 390.62 615.25" fill="#fff"/><g clip-path="url(#clip-path)"><rect x="5.11" y="-1611.94" width="1162.95" height="2240.57" fill="none" stroke="#003a50" stroke-miterlimit="10"/><polygon points="17.69 -507.77 17.69 615.78 1155.08 615.78 1155.08 -1598.99 17.69 -1599.15 17.69 -578.48 17.69 -507.77" fill="none" stroke="#003a50" stroke-miterlimit="10"/></g><rect x="38.31" y="49.9" width="4.55" height="87.81" fill="#fff"/><rect x="38.31" y="49.9" width="4.55" height="87.81" fill="none" stroke="#003a50" stroke-miterlimit="10"/><line x1="40.58" y1="49.9" x2="40.58" y2="137.71" fill="none" stroke="#003a50" stroke-miterlimit="10"/><rect x="38.31" y="49.9" width="4.55" height="4.56" fill="#fff"/><rect x="38.31" y="49.9" width="4.55" height="4.56" fill="none" stroke="#003a50" stroke-miterlimit="10"/><rect x="38.31" y="133.15" width="4.55" height="4.56" fill="#fff"/><rect x="38.31" y="133.15" width="4.55" height="4.56" fill="none" stroke="#003a50" stroke-miterlimit="10"/><rect x="38.31" y="92.6" width="4.55" height="4.56" fill="#fff"/><rect x="38.31" y="92.6" width="4.55" height="4.56" fill="none" stroke="#003a50" stroke-miterlimit="10"/><g clip-path="url(#clip-path)"><path d="M42.86,97.15h2.9c20.15,0,33.1,16.12,33.1,36h-36" fill="none" stroke="#003a50" stroke-miterlimit="10"/></g><rect x="38.31" y="230.75" width="4.55" height="87.97" fill="#fff"/><rect x="38.31" y="230.75" width="4.55" height="87.97" fill="none" stroke="#003a50" stroke-miterlimit="10"/><line x1="40.58" y1="230.75" x2="40.58" y2="318.72" fill="none" stroke="#003a50" stroke-miterlimit="10"/><rect x="38.31" y="230.75" width="4.55" height="4.44" fill="#fff"/><rect x="38.31" y="230.75" width="4.55" height="4.44" fill="none" stroke="#003a50" stroke-miterlimit="10"/><rect x="38.31" y="314.28" width="4.55" height="4.44" fill="#fff"/><rect x="38.31" y="314.28" width="4.55" height="4.44" fill="none" stroke="#003a50" stroke-miterlimit="10"/><rect x="38.31" y="274.72" width="4.55" height="4.44" fill="#fff"/><rect x="38.31" y="274.72" width="4.55" height="4.44" fill="none" stroke="#003a50" stroke-miterlimit="10"/><g clip-path="url(#clip-path)"><path d="M42.86,279.16h2.9c20.15,0,33.1,15.72,33.1,35.12h-36" fill="none" stroke="#003a50" stroke-miterlimit="10"/></g><rect x="38.31" y="414.4" width="4.55" height="180.38" fill="#fff"/><rect x="38.31" y="414.4" width="4.55" height="180.38" fill="none" stroke="#003a50" stroke-miterlimit="10"/><line x1="40.58" y1="594.78" x2="40.58" y2="414.4" fill="none" stroke="#003a50" stroke-miterlimit="10"/><rect x="38.31" y="544.83" width="4.55" height="4.44" fill="#fff"/><rect x="38.31" y="544.83" width="4.55" height="4.44" fill="none" stroke="#003a50" stroke-miterlimit="10"/><rect x="38.31" y="499.37" width="4.55" height="4.44" fill="#fff"/><rect x="38.31" y="499.37" width="4.55" height="4.44" fill="none" stroke="#003a50" stroke-miterlimit="10"/><rect x="38.31" y="414.4" width="4.55" height="4.44" fill="#fff"/><rect x="38.31" y="414.4" width="4.55" height="4.44" fill="none" stroke="#003a50" stroke-miterlimit="10"/><rect x="38.31" y="453.91" width="4.55" height="4.44" fill="#fff"/><rect x="38.31" y="453.91" width="4.55" height="4.44" fill="none" stroke="#003a50" stroke-miterlimit="10"/><g clip-path="url(#clip-path)"><path d="M42.86,453.91h2.9c20.15,0,33.1-15.7,33.1-35.07h-36" fill="none" stroke="#003a50" stroke-miterlimit="10"/></g><rect x="38.31" y="590.23" width="164.87" height="4.55" fill="#fff"/><rect x="38.31" y="590.23" width="164.86" height="4.55" fill="none" stroke="#003a50" stroke-miterlimit="10"/><line x1="38.31" y1="592.5" x2="203.17" y2="592.5" fill="none" stroke="#003a50" stroke-miterlimit="10"/><rect x="78.22" y="590.23" width="4.55" height="4.55" fill="#fff"/><rect x="78.22" y="590.23" width="4.55" height="4.55" fill="none" stroke="#003a50" stroke-miterlimit="10"/><rect x="118.14" y="590.23" width="4.55" height="4.55" fill="#fff"/><rect x="118.14" y="590.23" width="4.55" height="4.55" fill="none" stroke="#003a50" stroke-miterlimit="10"/><rect x="38.31" y="590.23" width="4.55" height="4.55" fill="#fff"/><rect x="38.31" y="590.23" width="4.55" height="4.55" fill="none" stroke="#003a50" stroke-miterlimit="10"/><rect x="198.62" y="590.23" width="4.55" height="4.55" fill="#fff"/><rect x="198.62" y="590.23" width="4.55" height="4.55" fill="none" stroke="#003a50" stroke-miterlimit="10"/><rect x="158.07" y="590.23" width="4.55" height="4.55" fill="#fff"/><rect x="158.06" y="590.23" width="4.55" height="4.55" fill="none" stroke="#003a50" stroke-miterlimit="10"/><g clip-path="url(#clip-path)"><path d="M118.15,590.23v-2.9c0-20.15-15.84-33.11-35.37-33.11v36" fill="none" stroke="#003a50" stroke-miterlimit="10"/></g><rect x="299.23" y="590.23" width="88.62" height="4.56" fill="#fff"/><rect x="299.23" y="590.23" width="88.62" height="4.56" fill="none" stroke="#003a50" stroke-miterlimit="10"/><line x1="387.85" y1="592.51" x2="299.23" y2="592.51" fill="none" stroke="#003a50" stroke-miterlimit="10"/><rect x="383.26" y="590.23" width="4.59" height="4.56" fill="#fff"/><rect x="383.26" y="590.23" width="4.59" height="4.56" fill="none" stroke="#003a50" stroke-miterlimit="10"/><rect x="299.23" y="590.23" width="4.59" height="4.56" fill="#fff"/><rect x="299.23" y="590.23" width="4.59" height="4.56" fill="none" stroke="#003a50" stroke-miterlimit="10"/><rect x="340.16" y="590.23" width="4.59" height="4.56" fill="#fff"/><rect x="340.16" y="590.23" width="4.59" height="4.56" fill="none" stroke="#003a50" stroke-miterlimit="10"/><g clip-path="url(#clip-path)"><path d="M340.16,590.23v-2.9c0-20.15-16.27-33.1-36.34-33.1v36" fill="none" stroke="#003a50" stroke-miterlimit="10"/><path d="M465.89,590.23v-2.9c0-20.15,16.13-33.1,36-33.1v36" fill="none" stroke="#003a50" stroke-miterlimit="10"/><rect x="403.98" y="256.28" width="42.38" height="92.09" fill="none" stroke="#003a50" stroke-miterlimit="10"/><rect x="408.96" y="260.08" width="32.03" height="84.24" rx="13.7" fill="none" stroke="#003a50" stroke-miterlimit="10"/><path d="M427.26,274.66a2.2,2.2,0,1,0-2.2,2.2A2.19,2.19,0,0,0,427.26,274.66Z" fill="none" stroke="#003a50" stroke-miterlimit="10"/></g><rect x="347.26" y="256.29" width="42.38" height="92.54" fill="none" stroke="#003a50" stroke-miterlimit="10"/><g clip-path="url(#clip-path)"><rect x="352.23" y="260.08" width="32.03" height="84.24" rx="13.7" fill="none" stroke="#003a50" stroke-miterlimit="10"/><path d="M370.54,274.66a2.21,2.21,0,1,0-2.2,2.2A2.2,2.2,0,0,0,370.54,274.66Z" fill="none" stroke="#003a50" stroke-miterlimit="10"/><path d="M489,284.36V255.79H465.93v28.57a11.54,11.54,0,1,0,23.08,0Z" fill="none" stroke="#003a50" stroke-miterlimit="10"/><path d="M333.47,284.36V255.79H310.39v28.57a11.54,11.54,0,1,0,23.08,0Z" fill="none" stroke="#003a50" stroke-miterlimit="10"/></g><rect x="310.39" y="255.79" width="23.08" height="11.08" fill="none" stroke="#003a50" stroke-miterlimit="10"/><g clip-path="url(#clip-path)"><path d="M532.55,241.06a3.4,3.4,0,0,0,3.13-2.1h1.93l5.09,3-2.31,3.76-2.65-1.45v11.82h-11.1V244.32L524,245.77,521.67,242l5.14-3h2.57A3.45,3.45,0,0,0,532.55,241.06Z" fill="none" stroke="#003a50" stroke-miterlimit="10"/><rect x="515.18" y="231.16" width="34.02" height="32.78" fill="none" stroke="#003a50" stroke-miterlimit="10"/><path d="M421.35,89.73a3.16,3.16,0,0,0,2.9-2H426l4.73,2.83-2.15,3.49-2.46-1.35v11h-10.3v-11L413.4,94.1l-2.15-3.49L416,87.78h2.39A3.2,3.2,0,0,0,421.35,89.73Z" fill="none" stroke="#003a50" stroke-miterlimit="10"/></g><rect x="405.22" y="80.54" width="31.57" height="30.42" fill="none" stroke="#003a50" stroke-miterlimit="10"/><rect x="366.01" y="82.59" width="32.72" height="33.97" fill="none" stroke="#003a50" stroke-miterlimit="10"/><g clip-path="url(#clip-path)"><path d="M386.67,98.05V87h-8.6v11a3.54,3.54,0,0,0,3.54,3.54h1.52A3.53,3.53,0,0,0,386.67,98.05Z" fill="none" stroke="#003a50" stroke-miterlimit="10"/></g><polyline points="378.9 112.15 382.37 112.15 385.85 112.15" fill="none" stroke="#003a50" stroke-miterlimit="10"/><line x1="382.37" y1="101.59" x2="382.37" y2="112.15" fill="none" stroke="#003a50" stroke-miterlimit="10"/><rect x="321.06" y="13.57" width="34.02" height="34.02" fill="none" stroke="#003a50" stroke-miterlimit="10"/><g clip-path="url(#clip-path)"><path d="M350.48,38.18a4.64,4.64,0,1,1-4.64-4.63A4.64,4.64,0,0,1,350.48,38.18Z" fill="none" stroke="#003a50" stroke-miterlimit="10"/><path d="M335,38.18a4.64,4.64,0,1,1-4.64-4.63A4.64,4.64,0,0,1,335,38.18Z" fill="none" stroke="#003a50" stroke-miterlimit="10"/><path d="M350.48,23.09a4.64,4.64,0,1,1-4.64-4.63A4.64,4.64,0,0,1,350.48,23.09Z" fill="none" stroke="#003a50" stroke-miterlimit="10"/><path d="M335,23.09a4.64,4.64,0,1,1-4.64-4.63A4.64,4.64,0,0,1,335,23.09Z" fill="none" stroke="#003a50" stroke-miterlimit="10"/></g><rect x="53.87" y="185.21" width="102.05" height="17.01" fill="none" stroke="#003a50" stroke-miterlimit="10"/><polygon points="61.89 193.18 104.79 196.71 147.89 193.18 147.89 190.72 61.89 190.72 61.89 193.18" fill="none" stroke="#003a50" stroke-miterlimit="10"/><rect x="307.22" y="13.99" width="58.79" height="33.59" fill="none" stroke="#003a50" stroke-miterlimit="10"/><rect x="366.01" y="13.99" width="32.72" height="102.57" fill="none" stroke="#003a50" stroke-miterlimit="10"/><rect x="336.82" y="444.68" width="52.33" height="113.67" fill="none" stroke="#003a50" stroke-miterlimit="10"/><g clip-path="url(#clip-path)"><path d="M380.21,454.38h-34a2.11,2.11,0,0,0-2.11,2.11v67.62h38.26V456.49A2.11,2.11,0,0,0,380.21,454.38Z" fill="none" stroke="#003a50" stroke-miterlimit="10"/></g><rect x="344.06" y="510.26" width="38.26" height="13.85" fill="none" stroke="#003a50" stroke-miterlimit="10"/><g clip-path="url(#clip-path)"><path d="M380.51,550.6h-34.3a2.19,2.19,0,0,1-2.2-2.2V529.93a2.2,2.2,0,0,1,2.2-2.21h34.3a2.2,2.2,0,0,1,2.2,2.21V548.4A2.19,2.19,0,0,1,380.51,550.6Z" fill="none" stroke="#003a50" stroke-miterlimit="10"/><path d="M205.27,57a1.27,1.27,0,0,1-1.21,1.31,13.79,13.79,0,0,0,1.07,27.55,1.26,1.26,0,0,1,.1,2.51A16.3,16.3,0,0,1,204,55.8,1.26,1.26,0,0,1,205.27,57Z" fill="none" stroke="#003a50" stroke-miterlimit="10"/><path d="M212.21,94.57a1.25,1.25,0,0,1,.87,1.55,13.78,13.78,0,0,0,26.53,7.5,1.26,1.26,0,1,1,2.42.68,16.3,16.3,0,1,1-31.37-8.86A1.25,1.25,0,0,1,212.21,94.57Z" fill="none" stroke="#003a50" stroke-miterlimit="10"/><path d="M250,98.93a1.25,1.25,0,0,1,1.74-.35,13.78,13.78,0,0,0,15.33-22.91,1.26,1.26,0,0,1,1.4-2.1,16.3,16.3,0,1,1-18.13,27.1A1.24,1.24,0,0,1,250,98.93Z" fill="none" stroke="#003a50" stroke-miterlimit="10"/><path d="M267.17,64.36a1.26,1.26,0,0,1,.2-1.77,13.78,13.78,0,0,0-17.05-21.66,1.26,1.26,0,1,1-1.56-2,16.3,16.3,0,1,1,20.17,25.61A1.25,1.25,0,0,1,267.17,64.36Z" fill="none" stroke="#003a50" stroke-miterlimit="10"/><path d="M238.34,40.3a1.25,1.25,0,0,1-.85-1.56A13.78,13.78,0,0,0,211,31a1.26,1.26,0,0,1-2.42-.71,16.3,16.3,0,0,1,31.29,9.16A1.25,1.25,0,0,1,238.34,40.3Z" fill="none" stroke="#003a50" stroke-miterlimit="10"/><path d="M215.1,84.33l-9.36.36a12.65,12.65,0,1,1-1-25.28l9-.32a23.7,23.7,0,0,0,1.28,25.24Z" fill="none" stroke="#003a50" stroke-miterlimit="10"/><path d="M241.26,93.57l-2.56,9.08a12.65,12.65,0,1,1-24.36-6.84l2.6-9.2a23.6,23.6,0,0,0,24.32,7Z" fill="none" stroke="#003a50" stroke-miterlimit="10"/><path d="M269.34,93.77a12.67,12.67,0,0,1-17.52,3.52l-7.28-4.88a23.88,23.88,0,0,0,13.12-15.24,24.8,24.8,0,0,0,.84-5.84l7.36,4.92A12.63,12.63,0,0,1,269.34,93.77Z" fill="none" stroke="#003a50" stroke-miterlimit="10"/><path d="M266.14,62.13l-7.72,6.08a23.88,23.88,0,0,0-15.56-20l7.64-6a12.65,12.65,0,1,1,15.64,19.88Z" fill="none" stroke="#003a50" stroke-miterlimit="10"/><path d="M236.22,39.05l-2.28,7.76a23.58,23.58,0,0,0-9.08,2.12l-15.28-4.48a1.21,1.21,0,0,1-.84-1.52l3.08-10.64a12.87,12.87,0,0,1,13.2-9.4A12.67,12.67,0,0,1,236.22,39.05Z" fill="none" stroke="#003a50" stroke-miterlimit="10"/><path d="M258.5,71.33a24.8,24.8,0,0,1-.84,5.84,23.88,23.88,0,0,1-13.12,15.24,24.6,24.6,0,0,1-3.28,1.16,23.6,23.6,0,0,1-24.32-7,25.46,25.46,0,0,1-1.84-2.28,23.7,23.7,0,0,1-1.28-25.24,24,24,0,0,1,11-10.16,23.84,23.84,0,0,1,16.32-1.24c.56.16,1.12.36,1.68.56a23.88,23.88,0,0,1,15.56,20A27.09,27.09,0,0,1,258.5,71.33Z" fill="none" stroke="#003a50" stroke-miterlimit="10"/><path d="M444.33,383.25a1,1,0,0,1-.54.9.94.94,0,0,1-1.29-.45,29.69,29.69,0,0,1,0-25.26,1,1,0,0,1,1.29-.46,1,1,0,0,1,.44,1.34,27.64,27.64,0,0,0,0,23.49A1,1,0,0,1,444.33,383.25Z" fill="none" stroke="#003a50" stroke-miterlimit="10"/><path d="M439,383.25a1,1,0,0,1-.54.9.94.94,0,0,1-1.29-.45,29.69,29.69,0,0,1,0-25.26,1,1,0,0,1,1.29-.46,1,1,0,0,1,.44,1.34,27.64,27.64,0,0,0,0,23.49A1,1,0,0,1,439,383.25Z" fill="none" stroke="#003a50" stroke-miterlimit="10"/><path d="M433.59,383.25a1,1,0,0,1-.54.9,1,1,0,0,1-1.3-.45,29.69,29.69,0,0,1,0-25.26,1,1,0,0,1,1.3-.46,1,1,0,0,1,.44,1.34,27.64,27.64,0,0,0,0,23.49A1,1,0,0,1,433.59,383.25Z" fill="none" stroke="#003a50" stroke-miterlimit="10"/><path d="M428.22,383.25a1,1,0,0,1-.54.9,1,1,0,0,1-1.3-.45,29.69,29.69,0,0,1,0-25.26,1,1,0,0,1,1.29-.46,1,1,0,0,1,.45,1.34,27.64,27.64,0,0,0,0,23.49A1,1,0,0,1,428.22,383.25Z" fill="none" stroke="#003a50" stroke-miterlimit="10"/><path d="M422.85,383.25a1,1,0,0,1-.54.9,1,1,0,0,1-1.3-.45,29.69,29.69,0,0,1,0-25.26,1,1,0,0,1,1.29-.46,1,1,0,0,1,.45,1.34,27.64,27.64,0,0,0,0,23.49A1,1,0,0,1,422.85,383.25Z" fill="none" stroke="#003a50" stroke-miterlimit="10"/><path d="M417.48,383.25a1,1,0,0,1-.54.9,1,1,0,0,1-1.3-.45,29.69,29.69,0,0,1,0-25.26,1,1,0,0,1,1.29-.46,1,1,0,0,1,.45,1.34,27.64,27.64,0,0,0,0,23.49A1.17,1.17,0,0,1,417.48,383.25Z" fill="none" stroke="#003a50" stroke-miterlimit="10"/><path d="M449.7,383.25a1,1,0,0,1-.54.9.94.94,0,0,1-1.29-.45,29.69,29.69,0,0,1,0-25.26,1,1,0,0,1,1.29-.46,1,1,0,0,1,.44,1.34,27.64,27.64,0,0,0,0,23.49A1,1,0,0,1,449.7,383.25Z" fill="none" stroke="#003a50" stroke-miterlimit="10"/><path d="M455.08,383.25a1,1,0,0,1-.54.9,1,1,0,0,1-1.3-.45,29.69,29.69,0,0,1,0-25.26,1,1,0,0,1,1.29-.46,1,1,0,0,1,.45,1.34,27.64,27.64,0,0,0,0,23.49A1.17,1.17,0,0,1,455.08,383.25Z" fill="none" stroke="#003a50" stroke-miterlimit="10"/><line x1="567.11" y1="371.07" x2="403.24" y2="371.07" fill="none" stroke="#003a50" stroke-miterlimit="10"/><rect x="404.25" y="353.78" width="162.86" height="34.02" fill="none" stroke="#003a50" stroke-miterlimit="10"/><path d="M437,210.05a1,1,0,0,1-.54.9.94.94,0,0,1-1.29-.45,29.69,29.69,0,0,1,0-25.26,1,1,0,0,1,1.29-.46,1,1,0,0,1,.44,1.34,27.64,27.64,0,0,0,0,23.49A1,1,0,0,1,437,210.05Z" fill="none" stroke="#003a50" stroke-miterlimit="10"/><path d="M431.62,210.05a1,1,0,0,1-.54.9.94.94,0,0,1-1.29-.45,29.69,29.69,0,0,1,0-25.26,1,1,0,0,1,1.29-.46,1,1,0,0,1,.44,1.34,27.64,27.64,0,0,0,0,23.49A1,1,0,0,1,431.62,210.05Z" fill="none" stroke="#003a50" stroke-miterlimit="10"/><path d="M426.25,210.05a1,1,0,0,1-.54.9.94.94,0,0,1-1.29-.45,29.69,29.69,0,0,1,0-25.26,1,1,0,0,1,1.29-.46,1,1,0,0,1,.44,1.34,27.64,27.64,0,0,0,0,23.49A1,1,0,0,1,426.25,210.05Z" fill="none" stroke="#003a50" stroke-miterlimit="10"/><path d="M420.88,210.05a1,1,0,0,1-.54.9,1,1,0,0,1-1.3-.45,29.69,29.69,0,0,1,0-25.26,1,1,0,0,1,1.3-.46,1,1,0,0,1,.44,1.34,27.64,27.64,0,0,0,0,23.49A1,1,0,0,1,420.88,210.05Z" fill="none" stroke="#003a50" stroke-miterlimit="10"/><path d="M415.51,210.05a1,1,0,0,1-.54.9,1,1,0,0,1-1.3-.45,29.69,29.69,0,0,1,0-25.26,1,1,0,0,1,1.29-.46,1,1,0,0,1,.45,1.34,27.64,27.64,0,0,0,0,23.49A1,1,0,0,1,415.51,210.05Z" fill="none" stroke="#003a50" stroke-miterlimit="10"/><path d="M410.14,210.05a1,1,0,0,1-.54.9,1,1,0,0,1-1.3-.45,29.69,29.69,0,0,1,0-25.26,1,1,0,0,1,1.29-.46,1,1,0,0,1,.45,1.34,27.64,27.64,0,0,0,0,23.49A1,1,0,0,1,410.14,210.05Z" fill="none" stroke="#003a50" stroke-miterlimit="10"/><path d="M442.37,210.05a1,1,0,0,1-.54.9,1,1,0,0,1-1.3-.45,29.69,29.69,0,0,1,0-25.26,1,1,0,0,1,1.29-.46,1,1,0,0,1,.45,1.34,27.64,27.64,0,0,0,0,23.49A1.13,1.13,0,0,1,442.37,210.05Z" fill="none" stroke="#003a50" stroke-miterlimit="10"/><path d="M447.74,210.05a1,1,0,0,1-.54.9,1,1,0,0,1-1.3-.45,29.69,29.69,0,0,1,0-25.26,1,1,0,0,1,1.29-.46,1,1,0,0,1,.45,1.34,27.64,27.64,0,0,0,0,23.49A1,1,0,0,1,447.74,210.05Z" fill="none" stroke="#003a50" stroke-miterlimit="10"/></g><line x1="515.52" y1="197.87" x2="395.9" y2="197.87" fill="none" stroke="#003a50" stroke-miterlimit="10"/><rect x="396.64" y="180.3" width="119.14" height="34.58" fill="none" stroke="#003a50" stroke-miterlimit="10"/><rect x="299.84" y="323.43" width="47.18" height="25.39" fill="none" stroke="#003a50" stroke-miterlimit="10"/><g clip-path="url(#clip-path)"><rect x="309.73" y="325.49" width="24.4" height="25.04" rx="2.83" fill="none" stroke="#003a50" stroke-miterlimit="10"/><path d="M321.93,336.1A1.91,1.91,0,1,1,320,338,1.9,1.9,0,0,1,321.93,336.1Z" fill="none" stroke="#003a50" stroke-miterlimit="10"/><rect x="464.79" y="324.55" width="24.4" height="25.04" rx="2.83" fill="none" stroke="#003a50" stroke-miterlimit="10"/><path d="M477,335.16a1.91,1.91,0,1,1-1.91,1.91A1.91,1.91,0,0,1,477,335.16Z" fill="none" stroke="#003a50" stroke-miterlimit="10"/><rect x="328.25" y="-34.42" width="34.02" height="34.02" fill="none" stroke="#003a50" stroke-miterlimit="10"/></g><rect x="405.45" y="40.33" width="81.73" height="27.04" fill="none" stroke="#003a50" stroke-miterlimit="10"/><g clip-path="url(#clip-path)"><path d="M473.23,63.54a.78.78,0,0,1-.44.71.8.8,0,0,1-1.07-.36,22.8,22.8,0,0,1,0-20.08.8.8,0,0,1,1.43.71,21.25,21.25,0,0,0,0,18.67A.72.72,0,0,1,473.23,63.54Z" fill="none" stroke="#003a50" stroke-miterlimit="10"/><path d="M468.81,63.54a.79.79,0,0,1-.45.71.81.81,0,0,1-1.07-.36,22.88,22.88,0,0,1,0-20.08.81.81,0,0,1,1.07-.36.8.8,0,0,1,.36,1.07,21.34,21.34,0,0,0,0,18.67A.73.73,0,0,1,468.81,63.54Z" fill="none" stroke="#003a50" stroke-miterlimit="10"/><path d="M464.38,63.54a.78.78,0,0,1-.44.71.8.8,0,0,1-1.07-.36,22.88,22.88,0,0,1,0-20.08.8.8,0,0,1,1.07-.36.8.8,0,0,1,.36,1.07,21.25,21.25,0,0,0,0,18.67A.72.72,0,0,1,464.38,63.54Z" fill="none" stroke="#003a50" stroke-miterlimit="10"/><path d="M460,63.54a.78.78,0,0,1-.44.71.8.8,0,0,1-1.07-.36,22.8,22.8,0,0,1,0-20.08.8.8,0,0,1,1.43.71,21.25,21.25,0,0,0,0,18.67A.72.72,0,0,1,460,63.54Z" fill="none" stroke="#003a50" stroke-miterlimit="10"/><path d="M455.54,63.54a.79.79,0,0,1-.45.71.81.81,0,0,1-1.07-.36,22.88,22.88,0,0,1,0-20.08.81.81,0,0,1,1.07-.36.8.8,0,0,1,.36,1.07,21.34,21.34,0,0,0,0,18.67A.73.73,0,0,1,455.54,63.54Z" fill="none" stroke="#003a50" stroke-miterlimit="10"/><path d="M451.11,63.54a.78.78,0,0,1-.44.71.8.8,0,0,1-1.07-.36,22.88,22.88,0,0,1,0-20.08.8.8,0,0,1,1.07-.36.8.8,0,0,1,.36,1.07,21.25,21.25,0,0,0,0,18.67A.72.72,0,0,1,451.11,63.54Z" fill="none" stroke="#003a50" stroke-miterlimit="10"/><path d="M477.65,63.54a.78.78,0,0,1-.44.71.8.8,0,0,1-1.07-.36,22.88,22.88,0,0,1,0-20.08.8.8,0,0,1,1.07-.36.8.8,0,0,1,.36,1.07,21.25,21.25,0,0,0,0,18.67A.72.72,0,0,1,477.65,63.54Z" fill="none" stroke="#003a50" stroke-miterlimit="10"/><path d="M482.08,63.54a.79.79,0,0,1-.45.71.81.81,0,0,1-1.07-.36,22.88,22.88,0,0,1,0-20.08.81.81,0,0,1,1.07-.36.8.8,0,0,1,.36,1.07,21.34,21.34,0,0,0,0,18.67A.73.73,0,0,1,482.08,63.54Z" fill="none" stroke="#003a50" stroke-miterlimit="10"/></g><line x1="486.83" y1="53.85" x2="405.45" y2="53.85" fill="none" stroke="#003a50" stroke-miterlimit="10"/><rect x="300.45" y="353.78" width="90.71" height="34.02" fill="none" stroke="#003a50" stroke-miterlimit="10"/><g clip-path="url(#clip-path)"><path d="M343,383a1,1,0,0,1-.56.9,1,1,0,0,1-1.34-.45,28.77,28.77,0,0,1,0-25.26,1,1,0,1,1,1.8.88,26.72,26.72,0,0,0,0,23.49A1,1,0,0,1,343,383Z" fill="none" stroke="#003a50" stroke-miterlimit="10"/><path d="M337.46,383a1,1,0,0,1-.56.9,1,1,0,0,1-1.35-.45,28.77,28.77,0,0,1,0-25.26,1,1,0,0,1,1.34-.46,1,1,0,0,1,.46,1.34,26.81,26.81,0,0,0,0,23.49A.9.9,0,0,1,337.46,383Z" fill="none" stroke="#003a50" stroke-miterlimit="10"/><path d="M331.89,383a1,1,0,0,1-.56.9,1,1,0,0,1-1.34-.45,28.77,28.77,0,0,1,0-25.26,1,1,0,1,1,1.8.88,26.72,26.72,0,0,0,0,23.49A1,1,0,0,1,331.89,383Z" fill="none" stroke="#003a50" stroke-miterlimit="10"/><path d="M326.33,383a1,1,0,0,1-.56.9,1,1,0,0,1-1.35-.45,28.77,28.77,0,0,1,0-25.26,1,1,0,0,1,1.34-.46,1,1,0,0,1,.46,1.34,26.81,26.81,0,0,0,0,23.49A.9.9,0,0,1,326.33,383Z" fill="none" stroke="#003a50" stroke-miterlimit="10"/><path d="M320.76,383a1,1,0,0,1-1.9.45,28.77,28.77,0,0,1,0-25.26,1,1,0,1,1,1.8.88,26.72,26.72,0,0,0,0,23.49A1,1,0,0,1,320.76,383Z" fill="none" stroke="#003a50" stroke-miterlimit="10"/><path d="M315.2,383a1,1,0,0,1-.56.9,1,1,0,0,1-1.35-.45,28.77,28.77,0,0,1,0-25.26,1,1,0,0,1,1.34-.46,1,1,0,0,1,.46,1.34,26.81,26.81,0,0,0,0,23.49A.9.9,0,0,1,315.2,383Z" fill="none" stroke="#003a50" stroke-miterlimit="10"/><path d="M348.59,383a1,1,0,0,1-1.9.45,28.77,28.77,0,0,1,0-25.26,1,1,0,1,1,1.8.88,26.72,26.72,0,0,0,0,23.49A1,1,0,0,1,348.59,383Z" fill="none" stroke="#003a50" stroke-miterlimit="10"/><path d="M354.15,383a1,1,0,0,1-.56.9,1,1,0,0,1-1.34-.45,28.77,28.77,0,0,1,0-25.26,1,1,0,1,1,1.8.88,26.72,26.72,0,0,0,0,23.49A1,1,0,0,1,354.15,383Z" fill="none" stroke="#003a50" stroke-miterlimit="10"/></g><line x1="391.16" y1="370.79" x2="300.45" y2="370.79" fill="none" stroke="#003a50" stroke-miterlimit="10"/><rect x="54.63" y="221.32" width="92.09" height="42.38" fill="none" stroke="#003a50" stroke-miterlimit="10"/><g clip-path="url(#clip-path)"><rect x="58.69" y="226.7" width="84.24" height="32.03" rx="13.7" fill="none" stroke="#003a50" stroke-miterlimit="10"/><path d="M128.35,240.42a2.21,2.21,0,1,1-2.2,2.2A2.21,2.21,0,0,1,128.35,240.42Z" fill="none" stroke="#003a50" stroke-miterlimit="10"/><path d="M194.17,296.67h28.56V273.59H194.17a11.54,11.54,0,1,0,0,23.08Z" fill="none" stroke="#003a50" stroke-miterlimit="10"/></g><rect x="211.65" y="273.59" width="11.08" height="23.08" fill="none" stroke="#003a50" stroke-miterlimit="10"/><rect x="146.72" y="218.55" width="53.05" height="23.96" fill="none" stroke="#003a50" stroke-miterlimit="10"/><g clip-path="url(#clip-path)"><path d="M160.29,237.9V219.61a2.67,2.67,0,0,1,2.68-2.67h17.77a2.67,2.67,0,0,1,2.68,2.67V237.9a2.68,2.68,0,0,1-2.68,2.67H163A2.68,2.68,0,0,1,160.29,237.9Z" fill="none" stroke="#003a50" stroke-miterlimit="10"/><ellipse cx="171.85" cy="228.75" rx="1.81" ry="1.8" fill="none" stroke="#003a50" stroke-miterlimit="10"/></g><rect x="54.15" y="329.38" width="88.65" height="34.02" fill="none" stroke="#003a50" stroke-miterlimit="10"/><g clip-path="url(#clip-path)"><path d="M96.72,358.57a1,1,0,0,1-1.9.45,28.77,28.77,0,0,1,0-25.26,1,1,0,0,1,1.8.88,26.72,26.72,0,0,0,0,23.49A1,1,0,0,1,96.72,358.57Z" fill="none" stroke="#003a50" stroke-miterlimit="10"/><path d="M91.15,358.57a1,1,0,0,1-.56.9,1,1,0,0,1-1.34-.45,28.77,28.77,0,0,1,0-25.26,1,1,0,1,1,1.8.88,26.72,26.72,0,0,0,0,23.49A1,1,0,0,1,91.15,358.57Z" fill="none" stroke="#003a50" stroke-miterlimit="10"/><path d="M85.59,358.57a1,1,0,0,1-.56.9,1,1,0,0,1-1.35-.45,28.77,28.77,0,0,1,0-25.26A1,1,0,0,1,85,333.3a1,1,0,0,1,.46,1.34,26.81,26.81,0,0,0,0,23.49A.9.9,0,0,1,85.59,358.57Z" fill="none" stroke="#003a50" stroke-miterlimit="10"/><path d="M80,358.57a1,1,0,0,1-.56.9,1,1,0,0,1-1.34-.45,28.77,28.77,0,0,1,0-25.26,1,1,0,0,1,1.8.88,26.72,26.72,0,0,0,0,23.49A1,1,0,0,1,80,358.57Z" fill="none" stroke="#003a50" stroke-miterlimit="10"/><path d="M74.46,358.57a1,1,0,0,1-.56.9,1,1,0,0,1-1.35-.45,28.77,28.77,0,0,1,0-25.26,1,1,0,0,1,1.34-.46,1,1,0,0,1,.46,1.34,26.81,26.81,0,0,0,0,23.49A.9.9,0,0,1,74.46,358.57Z" fill="none" stroke="#003a50" stroke-miterlimit="10"/><path d="M68.89,358.57A1,1,0,0,1,67,359a28.77,28.77,0,0,1,0-25.26,1,1,0,0,1,1.8.88,26.72,26.72,0,0,0,0,23.49A1,1,0,0,1,68.89,358.57Z" fill="none" stroke="#003a50" stroke-miterlimit="10"/><path d="M102.28,358.57a1,1,0,0,1-.56.9,1,1,0,0,1-1.34-.45,28.77,28.77,0,0,1,0-25.26,1,1,0,0,1,1.8.88,26.72,26.72,0,0,0,0,23.49A1,1,0,0,1,102.28,358.57Z" fill="none" stroke="#003a50" stroke-miterlimit="10"/><path d="M107.85,358.57a1,1,0,0,1-1.9.45,28.77,28.77,0,0,1,0-25.26,1,1,0,1,1,1.8.88,26.72,26.72,0,0,0,0,23.49A1,1,0,0,1,107.85,358.57Z" fill="none" stroke="#003a50" stroke-miterlimit="10"/></g><line x1="142.8" y1="346.39" x2="54.15" y2="346.39" fill="none" stroke="#003a50" stroke-miterlimit="10"/><rect x="108.92" y="363.53" width="34.02" height="41.8" fill="none" stroke="#003a50" stroke-miterlimit="10"/><g clip-path="url(#clip-path)"><path d="M138.11,381.57a1,1,0,0,1,.9.56,1,1,0,0,1-.45,1.34,28.77,28.77,0,0,1-25.26,0,1,1,0,1,1,.88-1.8,26.72,26.72,0,0,0,23.49,0A1,1,0,0,1,138.11,381.57Z" fill="none" stroke="#003a50" stroke-miterlimit="10"/><path d="M138.11,387.13a1,1,0,0,1,.9.56,1,1,0,0,1-.45,1.35,28.77,28.77,0,0,1-25.26,0,1,1,0,0,1-.46-1.34,1,1,0,0,1,1.34-.46,26.81,26.81,0,0,0,23.49,0A.9.9,0,0,1,138.11,387.13Z" fill="none" stroke="#003a50" stroke-miterlimit="10"/><path d="M138.11,392.7a1,1,0,0,1,.9.56,1,1,0,0,1-.45,1.34,28.77,28.77,0,0,1-25.26,0,1,1,0,1,1,.88-1.8,26.72,26.72,0,0,0,23.49,0A1,1,0,0,1,138.11,392.7Z" fill="none" stroke="#003a50" stroke-miterlimit="10"/><path d="M138.11,398.26a1,1,0,0,1,.9.56,1,1,0,0,1-.45,1.35,28.77,28.77,0,0,1-25.26,0,1,1,0,0,1-.46-1.34,1,1,0,0,1,1.34-.46,26.81,26.81,0,0,0,23.49,0A.9.9,0,0,1,138.11,398.26Z" fill="none" stroke="#003a50" stroke-miterlimit="10"/></g><line x1="125.93" y1="363.39" x2="125.93" y2="405.34" fill="none" stroke="#003a50" stroke-miterlimit="10"/><g clip-path="url(#clip-path)"><rect x="362.27" y="-34.42" width="153.07" height="34.02" fill="none" stroke="#003a50" stroke-miterlimit="10"/><path d="M262.78,521.09a14.78,14.78,0,0,0,15.93-23.38,1.14,1.14,0,1,0-1.78,1.43,12.47,12.47,0,0,1-14.15,19.5Z" fill="none" stroke="#003a50" stroke-miterlimit="10"/><rect x="228.76" y="466.83" width="34.02" height="84.03" rx="3.31" fill="none" stroke="#003a50" stroke-miterlimit="10"/><path d="M232.48,548.32a1.4,1.4,0,0,0,1.39-1.4V470.78a1.4,1.4,0,0,0-2.79,0v76.14a1.4,1.4,0,0,0,1.4,1.4" fill="none" stroke="#003a50" stroke-miterlimit="10"/><path d="M247.06,480.51a5.51,5.51,0,1,1,0-7.79A5.52,5.52,0,0,1,247.06,480.51Z" fill="none" stroke="#003a50" stroke-miterlimit="10"/><path d="M247.43,480.1c-1-.1-2.05.28-3-.7-1.46-1.46.09-3-1.38-4.47s-3,.08-4.46-1.38" fill="none" stroke="#003a50" stroke-miterlimit="10"/><path d="M262.78,516.38a10.63,10.63,0,1,0,0-19.59Z" fill="none" stroke="#003a50" stroke-miterlimit="10"/></g><rect x="200.15" y="549.48" width="22.68" height="22.68" fill="none" stroke="#003a50" stroke-miterlimit="10"/><g clip-path="url(#clip-path)"><path d="M218,567.31a9.2,9.2,0,1,1,0-13A9.2,9.2,0,0,1,218,567.31Z" fill="none" stroke="#003a50" stroke-miterlimit="10"/><path d="M218.62,566.62c-1.69-.17-3.41.48-5.06-1.17-2.44-2.44.14-5-2.3-7.45s-5,.13-7.46-2.31" fill="none" stroke="#003a50" stroke-miterlimit="10"/></g><rect x="200.15" y="408.34" width="22.68" height="22.68" fill="none" stroke="#003a50" stroke-miterlimit="10"/><g clip-path="url(#clip-path)"><path d="M218,426.18a9.2,9.2,0,1,1,0-13A9.2,9.2,0,0,1,218,426.18Z" fill="none" stroke="#003a50" stroke-miterlimit="10"/><path d="M218.62,425.48c-1.69-.16-3.41.49-5.06-1.16-2.44-2.44.14-5-2.3-7.46s-5,.14-7.46-2.3" fill="none" stroke="#003a50" stroke-miterlimit="10"/></g><rect x="109.45" y="438.48" width="113.39" height="102.05" fill="none" stroke="#003a50" stroke-miterlimit="10"/><g clip-path="url(#clip-path)"><path d="M119.18,530.53v-82a2.09,2.09,0,0,1,2.09-2.08h67.64v86.22H121.27A2.1,2.1,0,0,1,119.18,530.53Z" fill="none" stroke="#003a50" stroke-miterlimit="10"/><rect x="192.52" y="446.14" width="22.88" height="42.5" rx="1.98" fill="none" stroke="#003a50" stroke-miterlimit="10"/><rect x="192.52" y="490.37" width="22.88" height="42.5" rx="1.98" fill="none" stroke="#003a50" stroke-miterlimit="10"/></g><line x1="175.06" y1="532.87" x2="175.06" y2="446.14" fill="none" stroke="#003a50" stroke-miterlimit="10"/><g clip-path="url(#clip-path)"><rect x="405.5" y="415.44" width="22.68" height="22.68" fill="none" stroke="#003a50" stroke-miterlimit="10"/><path d="M423.34,433.28a9.2,9.2,0,1,1,0-13A9.2,9.2,0,0,1,423.34,433.28Z" fill="none" stroke="#003a50" stroke-miterlimit="10"/><path d="M424,432.59c-1.69-.17-3.41.48-5.06-1.17-2.44-2.44.14-5-2.3-7.46s-5,.14-7.46-2.3" fill="none" stroke="#003a50" stroke-miterlimit="10"/><rect x="405.5" y="445.59" width="113.38" height="102.05" fill="none" stroke="#003a50" stroke-miterlimit="10"/><path d="M509.15,455.59v82.05a2.09,2.09,0,0,1-2.09,2.08H439.42V453.5h67.64A2.1,2.1,0,0,1,509.15,455.59Z" fill="none" stroke="#003a50" stroke-miterlimit="10"/><rect x="412.93" y="497.48" width="22.88" height="42.5" rx="1.98" fill="none" stroke="#003a50" stroke-miterlimit="10"/><rect x="412.93" y="453.25" width="22.88" height="42.5" rx="1.98" fill="none" stroke="#003a50" stroke-miterlimit="10"/></g><rect x="362.55" y="180.58" width="34.02" height="34.02" fill="none" stroke="#003a50" stroke-miterlimit="10"/><line x1="369.58" y1="197.59" x2="389.54" y2="197.59" fill="none" stroke="#003a50" stroke-miterlimit="10"/><line x1="379.56" y1="187.61" x2="379.56" y2="207.57" fill="none" stroke="#003a50" stroke-miterlimit="10"/><line x1="372.5" y1="190.53" x2="386.61" y2="204.64" fill="none" stroke="#003a50" stroke-miterlimit="10"/><line x1="386.61" y1="190.53" x2="372.5" y2="204.64" fill="none" stroke="#003a50" stroke-miterlimit="10"/><g clip-path="url(#clip-path)"><path d="M389.58,76.59V53.24a3.36,3.36,0,0,0-3.36-3.35h-15a3.35,3.35,0,0,0-3.36,3.35V76.59A3.35,3.35,0,0,0,371.27,80h15A3.36,3.36,0,0,0,389.58,76.59Z" fill="none" stroke="#003a50" stroke-miterlimit="10"/><circle cx="382.54" cy="64.92" r="2.46" transform="translate(176.17 393.49) rotate(-67.5)" fill="none" stroke="#003a50" stroke-miterlimit="10"/></g><line x1="381.78" y1="64.92" x2="395.4" y2="64.92" fill="none" stroke="#003a50" stroke-miterlimit="10"/><line x1="395.4" y1="58.11" x2="395.4" y2="71.73" fill="none" stroke="#003a50" stroke-miterlimit="10"/><g clip-path="url(#clip-path)"><path d="M113,60.33v-41H67.19V62.54h43.56A2.2,2.2,0,0,0,113,60.33Z" fill="none" stroke="#003a50" stroke-miterlimit="10"/><path d="M158.83,60.56V19.3H113.06V60.56a2,2,0,0,0,2,2h41.81A2,2,0,0,0,158.83,60.56Z" fill="none" stroke="#003a50" stroke-miterlimit="10"/><path d="M67.19,62.55a3.1,3.1,0,0,1-3.32,2.82H59.64a3.1,3.1,0,0,1-3.32-2.82V14.35H169.71V62.12A3.12,3.12,0,0,1,166.38,65h-4.23a3.11,3.11,0,0,1-3.32-2.83V19.3H67.19Z" fill="none" stroke="#003a50" stroke-miterlimit="10"/></g><rect x="67.2" y="19.3" width="91.64" height="9.25" fill="none" stroke="#003a50" stroke-miterlimit="10"/><rect x="306.97" y="180.5" width="55.58" height="34.35" fill="none" stroke="#003a50" stroke-miterlimit="10"/><g clip-path="url(#clip-path)"><path d="M282.36,384.31v3.61A45.35,45.35,0,0,1,237,433.27v-49" fill="none" stroke="#003a50" stroke-miterlimit="10" stroke-width="1.6"/><path d="M225.88,335.34h-3.42a43,43,0,0,0-43,43h46.4" fill="none" stroke="#003a50" stroke-miterlimit="10" stroke-width="1.6"/><path d="M297.42,281.18h-3.07a38.71,38.71,0,0,0-38.72,38.71h41.79" fill="none" stroke="#003a50" stroke-miterlimit="10" stroke-width="1.6"/><path d="M571,444.76h-3.46a43.48,43.48,0,0,1-43.48-43.48H571" fill="none" stroke="#003a50" stroke-miterlimit="10" stroke-width="1.6"/><path d="M513.51,279.47h3.13A39.34,39.34,0,0,1,556,318.81H513.51" fill="none" stroke="#003a50" stroke-miterlimit="10" stroke-width="1.6"/><path d="M580.34,221.31v-4.06a51.13,51.13,0,0,1,51.12-51.13v55.19" fill="none" stroke="#003a50" stroke-miterlimit="10" stroke-width="1.6"/><path d="M526.74,128.09h4.07a51.13,51.13,0,0,1,51.13,51.13h-55.2" fill="none" stroke="#003a50" stroke-miterlimit="10" stroke-width="1.6"/><path d="M190.23,324.61v3.07a38.58,38.58,0,0,1-38.58,38.58V324.61" fill="none" stroke="#003a50" stroke-miterlimit="10" stroke-width="1.6"/><line x1="468.17" y1="121.02" x2="413.68" y2="121.02" fill="none" stroke="#003a50" stroke-miterlimit="10" stroke-width="1.6"/><rect x="389.15" y="214.87" width="191.83" height="16.32" fill="#003a50"/><rect x="389.15" y="223.03" width="16.32" height="372.48" fill="#003a50"/><rect x="515.65" y="178.34" width="16.32" height="40.5" fill="#003a50"/><rect x="49.4" y="202.22" width="74.57" height="19" fill="#003a50"/><rect x="515.65" y="105.03" width="16.32" height="23.98" fill="#003a50"/><rect x="515.65" y="-39.97" width="16.32" height="50.48" fill="#003a50"/><rect x="487.4" y="105.03" width="40.56" height="11.86" fill="#003a50"/><rect x="487.4" y="8.03" width="13.08" height="108.53" fill="#003a50"/><rect x="50.57" y="-0.12" width="481.33" height="13.79" fill="#003a50"/><rect x="18.71" y="137.7" width="35.86" height="92.71" fill="#003a50"/><rect x="32.64" y="318.81" width="26.33" height="59.51" fill="#003a50"/><rect x="6.24" y="204.5" width="44.33" height="25.9" fill="#003a50"/><rect x="18.71" y="318.81" width="35.86" height="95.68" fill="#003a50"/><rect x="6.24" y="388.59" width="44.33" height="25.9" fill="#003a50"/><rect x="6.24" y="23.97" width="48.33" height="25.9" fill="#003a50"/><rect x="203.36" y="582.59" width="96" height="41.92" fill="#003a50"/><rect x="387.95" y="582.59" width="27.03" height="46.75" fill="#003a50"/><rect x="391.95" y="582.59" width="27.03" height="23.38" fill="#003a50"/><rect x="513.48" y="576.43" width="82.83" height="27.12" fill="#003a50"/><rect x="212.4" y="576.43" width="78.17" height="27.12" fill="#003a50"/><rect x="506.16" y="582.59" width="95.33" height="34.25" fill="#003a50"/><rect x="574.32" y="586.59" width="27.17" height="41.92" fill="#003a50"/><rect x="5.09" y="603" width="27.04" height="25.9" fill="#003a50"/><rect x="18.71" y="-46.94" width="35.86" height="94.57" fill="#003a50"/><rect x="119.49" y="214.84" width="109" height="6.38" fill="#003a50"/><rect x="222.11" y="219.53" width="6.38" height="116.6" fill="#003a50"/><rect x="222.11" y="377.49" width="6.38" height="212.5" fill="#003a50"/><rect x="199.77" y="219.53" width="6.38" height="22.98" fill="#003a50"/><rect x="201.64" y="236.14" width="22.98" height="6.38" fill="#003a50"/><rect x="189.65" y="323.62" width="33.79" height="6.38" fill="#003a50"/><rect x="105.33" y="405.53" width="41.2" height="3.69" fill="#003a50"/><rect x="143.01" y="328.04" width="3.69" height="80.64" fill="#003a50"/><rect x="48.7" y="405.53" width="19.39" height="3.69" fill="#003a50"/><rect x="49.4" y="323.63" width="103.25" height="6.38" fill="#003a50"/><rect x="281.57" y="381.56" width="18" height="6.38" fill="#003a50"/><rect x="297.42" y="348.73" width="94.48" height="6.38" fill="#003a50"/><rect x="225.3" y="381.56" width="12.54" height="6.38" fill="#003a50"/><rect x="293.79" y="214.84" width="6.38" height="67.17" fill="#003a50"/><rect x="293.8" y="319.06" width="6.38" height="68.88" fill="#003a50"/><rect x="398.73" y="110.51" width="42.19" height="6.38" fill="#003a50"/><rect x="398.85" y="10.18" width="6.38" height="106.38" fill="#003a50"/><rect x="402.04" y="33.73" width="91.1" height="6.38" fill="#003a50"/><rect x="293.8" y="214.84" width="99.68" height="6.38" fill="#003a50"/><rect x="293.8" y="250.47" width="99.68" height="6.38" fill="#003a50"/><rect x="337.97" y="214.84" width="6.38" height="38.25" fill="#003a50"/><rect x="477.97" y="110.51" width="12.54" height="6.38" fill="#003a50"/><rect x="567.38" y="443.97" width="6.38" height="136.12" fill="#003a50"/><rect x="567.38" y="347.84" width="6.38" height="54.19" fill="#003a50"/><rect x="508.57" y="230.01" width="6.38" height="50.21" fill="#003a50"/><rect x="508.57" y="317.97" width="6.38" height="32.88" fill="#003a50"/><rect x="570.57" y="321" width="3.19" height="29.85" fill="#003a50"/><rect x="570.57" y="231.16" width="3.19" height="36.33" fill="#003a50"/><rect x="403.98" y="249.91" width="107.78" height="6.38" fill="#003a50"/><rect x="472.43" y="227.29" width="6.38" height="26.37" fill="#003a50"/><rect x="403.98" y="348.03" width="166.58" height="6.38" fill="#003a50"/><rect x="525.98" y="11.59" width="5.98" height="101.5" fill="#003a50"/><line x1="573.02" y1="321.35" x2="575.86" y2="321.35" fill="none" stroke="#003a50" stroke-miterlimit="10"/><line x1="581.61" y1="321.35" x2="636.21" y2="321.35" fill="none" stroke="#003a50" stroke-miterlimit="10" stroke-dasharray="5.75 5.75"/><line x1="226.06" y1="215.38" x2="302.8" y2="215.38" fill="none" stroke="#003a50" stroke-miterlimit="10" stroke-width="0.57" stroke-dasharray="5.67 5.67"/><line x1="398.79" y1="180.86" x2="398.79" y2="109.65" fill="none" stroke="#003a50" stroke-miterlimit="10" stroke-width="0.57" stroke-dasharray="5.67 5.67"/><rect x="119.49" y="214.84" width="109" height="6.38" fill="#003a50"/><rect x="222.11" y="219.53" width="6.38" height="116.6" fill="#003a50"/><rect x="222.11" y="377.49" width="6.38" height="212.5" fill="#003a50"/><rect x="199.77" y="219.53" width="6.38" height="22.98" fill="#003a50"/><rect x="201.64" y="236.14" width="22.98" height="6.38" fill="#003a50"/><rect x="189.65" y="323.62" width="33.79" height="6.38" fill="#003a50"/><rect x="105.33" y="405.53" width="41.2" height="3.69" fill="#003a50"/><rect x="143.01" y="328.04" width="3.69" height="80.64" fill="#003a50"/><rect x="48.7" y="405.53" width="19.39" height="3.69" fill="#003a50"/><rect x="49.4" y="323.63" width="103.25" height="6.38" fill="#003a50"/><rect x="281.57" y="381.56" width="18" height="6.38" fill="#003a50"/><rect x="297.42" y="348.73" width="94.48" height="6.38" fill="#003a50"/><rect x="225.3" y="381.56" width="12.54" height="6.38" fill="#003a50"/><rect x="293.79" y="214.84" width="6.38" height="67.17" fill="#003a50"/><rect x="293.8" y="319.06" width="6.38" height="68.88" fill="#003a50"/><rect x="398.73" y="110.51" width="42.19" height="6.38" fill="#003a50"/><rect x="398.85" y="10.18" width="6.38" height="106.38" fill="#003a50"/><rect x="402.04" y="33.73" width="91.1" height="6.38" fill="#003a50"/><rect x="293.8" y="214.84" width="99.68" height="6.38" fill="#003a50"/><rect x="293.8" y="250.47" width="99.68" height="6.38" fill="#003a50"/><rect x="337.97" y="214.84" width="6.38" height="38.25" fill="#003a50"/><rect x="477.97" y="110.51" width="12.54" height="6.38" fill="#003a50"/><rect x="567.38" y="443.97" width="6.38" height="136.12" fill="#003a50"/><rect x="567.38" y="347.84" width="6.38" height="54.19" fill="#003a50"/><rect x="508.57" y="230.01" width="6.38" height="50.21" fill="#003a50"/><rect x="508.57" y="317.97" width="6.38" height="32.88" fill="#003a50"/><rect x="570.57" y="321" width="3.19" height="29.85" fill="#003a50"/><rect x="570.57" y="231.16" width="3.19" height="36.33" fill="#003a50"/><rect x="403.98" y="249.91" width="107.78" height="6.38" fill="#003a50"/><rect x="472.43" y="227.29" width="6.38" height="26.37" fill="#003a50"/><rect x="403.98" y="348.03" width="166.58" height="6.38" fill="#003a50"/><rect x="525.98" y="11.59" width="5.98" height="101.5" fill="#003a50"/><line x1="573.02" y1="321.35" x2="575.86" y2="321.35" fill="none" stroke="#003a50" stroke-miterlimit="10"/><line x1="581.61" y1="321.35" x2="636.21" y2="321.35" fill="none" stroke="#003a50" stroke-miterlimit="10" stroke-dasharray="5.75 5.75"/><line x1="226.06" y1="215.38" x2="302.8" y2="215.38" fill="none" stroke="#003a50" stroke-miterlimit="10" stroke-width="0.57" stroke-dasharray="5.67 5.67"/><line x1="398.79" y1="180.86" x2="398.79" y2="109.65" fill="none" stroke="#003a50" stroke-miterlimit="10" stroke-width="0.57" stroke-dasharray="5.67 5.67"/></g><g clip-path="url(#clip-path)"><path d="M174.4,607.68h-7v-1.1a2,2,0,0,1,.41-1.23,2.78,2.78,0,0,1,1-.84c.35-.18.79-.38,1.32-.61l1.33-.55a3,3,0,0,0,1-.64,1.31,1.31,0,0,0,.4-.92c0-.89-.63-1.33-1.88-1.33s-1.89.51-1.89,1.52v.29h-1.49V602a2.57,2.57,0,0,1,.89-2.09,3.84,3.84,0,0,1,2.48-.72,4,4,0,0,1,2.48.68,2.32,2.32,0,0,1,.9,1.94,2.21,2.21,0,0,1-.39,1.29,3,3,0,0,1-1,.92,12.22,12.22,0,0,1-1.3.66c-.44.2-.87.37-1.29.53a3.54,3.54,0,0,0-1,.53.87.87,0,0,0-.4.67h5.38Z" fill="#003a50"/><path d="M175.88,607.59a.71.71,0,0,1-.22-.57.74.74,0,0,1,.22-.57.9.9,0,0,1,.62-.21.87.87,0,0,1,.61.21.75.75,0,0,1,.23.57.72.72,0,0,1-.23.57.87.87,0,0,1-.61.21A.9.9,0,0,1,175.88,607.59Z" fill="#003a50"/><path d="M184.58,607.68H183.1v-1.86h-4.93v-1.31l4.45-5.23h2v5.23h1.13v1.31h-1.13Zm-1.48-3.17v-3.75h0l-3.16,3.72v0Z" fill="#003a50"/><path d="M435.39,606.6a5.15,5.15,0,0,1,0-6.23,4,4,0,0,1,5.73,0,5.15,5.15,0,0,1,0,6.23,4,4,0,0,1-5.73,0Zm4.6-1a4,4,0,0,0,0-4.28,2.23,2.23,0,0,0-3.47,0,4,4,0,0,0,0,4.28,2.21,2.21,0,0,0,3.47,0Z" fill="#003a50"/><path d="M443.71,607.59a.72.72,0,0,1-.23-.57.75.75,0,0,1,.23-.57.9.9,0,0,1,.62-.21.87.87,0,0,1,.61.21.75.75,0,0,1,.23.57.72.72,0,0,1-.23.57.87.87,0,0,1-.61.21A.9.9,0,0,1,443.71,607.59Z" fill="#003a50"/><path d="M453.32,601.65h-1.56s0,0,0-.12a2.39,2.39,0,0,0-.43-.67,1.37,1.37,0,0,0-.5-.29,2.3,2.3,0,0,0-.71-.11,1.76,1.76,0,0,0-1.52.73,3.09,3.09,0,0,0-.54,1.89h0a1.49,1.49,0,0,1,.31-.31,3.94,3.94,0,0,1,.43-.25,2.62,2.62,0,0,1,.67-.22,4.12,4.12,0,0,1,.86-.09,3.53,3.53,0,0,1,2.38.79,2.47,2.47,0,0,1,.92,2,2.51,2.51,0,0,1-1,2,3.89,3.89,0,0,1-2.54.78,3.38,3.38,0,0,1-2.73-1.09,4.43,4.43,0,0,1-.94-3v-.29a4.79,4.79,0,0,1,.94-3,3.18,3.18,0,0,1,2.68-1.2,3.93,3.93,0,0,1,1.5.26,2.61,2.61,0,0,1,1,.66A2.39,2.39,0,0,1,453.32,601.65Zm-1.77,2.22a2.27,2.27,0,0,0-1.39-.41,2.32,2.32,0,0,0-1.4.41,1.32,1.32,0,0,0-.55,1.11,1.3,1.3,0,0,0,.55,1.11,2.22,2.22,0,0,0,1.4.42,2.26,2.26,0,0,0,1.4-.42,1.31,1.31,0,0,0,.54-1.11A1.3,1.3,0,0,0,451.55,603.87Z" fill="#003a50"/><path d="M315.58,606.6a5.19,5.19,0,0,1,0-6.23,4,4,0,0,1,5.74,0,5.19,5.19,0,0,1,0,6.23,4,4,0,0,1-5.74,0Zm4.6-1a4,4,0,0,0,0-4.28,2.22,2.22,0,0,0-3.46,0,3.95,3.95,0,0,0,0,4.28,2.2,2.2,0,0,0,3.46,0Z" fill="#003a50"/><path d="M323.91,607.59a.69.69,0,0,1-.23-.57.71.71,0,0,1,.23-.57.85.85,0,0,1,.61-.21.87.87,0,0,1,.61.21.75.75,0,0,1,.23.57.72.72,0,0,1-.23.57.87.87,0,0,1-.61.21A.85.85,0,0,1,323.91,607.59Z" fill="#003a50"/><path d="M333.51,601.65H332a.34.34,0,0,0,0-.12,2.1,2.1,0,0,0-.15-.31,1.93,1.93,0,0,0-.28-.36,1.37,1.37,0,0,0-.5-.29,2.25,2.25,0,0,0-.71-.11,1.78,1.78,0,0,0-1.52.73,3.16,3.16,0,0,0-.53,1.89h0a1.11,1.11,0,0,1,.31-.31,3.09,3.09,0,0,1,.42-.25,2.71,2.71,0,0,1,.68-.22,4,4,0,0,1,.85-.09,3.51,3.51,0,0,1,2.38.79,2.44,2.44,0,0,1,.92,2,2.51,2.51,0,0,1-1,2,3.87,3.87,0,0,1-2.54.78,3.38,3.38,0,0,1-2.73-1.09,4.48,4.48,0,0,1-.93-3v-.29a4.85,4.85,0,0,1,.93-3,3.18,3.18,0,0,1,2.68-1.2,3.93,3.93,0,0,1,1.5.26,2.73,2.73,0,0,1,1,.66A2.42,2.42,0,0,1,333.51,601.65Zm-1.76,2.22a2.32,2.32,0,0,0-1.4-.41,2.27,2.27,0,0,0-1.39.41,1.3,1.3,0,0,0-.55,1.11,1.31,1.31,0,0,0,.54,1.11,2.54,2.54,0,0,0,2.8,0,1.4,1.4,0,0,0,0-2.22Z" fill="#003a50"/><path d="M32.72,124.78a4.57,4.57,0,0,1-3.11,1,4.61,4.61,0,0,1-3.12-1,4,4,0,0,1,0-5.74,4.61,4.61,0,0,1,3.12-1,4.57,4.57,0,0,1,3.11,1,4,4,0,0,1,0,5.74Zm-1-4.61a3.47,3.47,0,0,0-2.13-.61,3.53,3.53,0,0,0-2.15.61,2.23,2.23,0,0,0,0,3.47,3.53,3.53,0,0,0,2.15.62,3.47,3.47,0,0,0,2.13-.62,2,2,0,0,0,.84-1.73A2.05,2.05,0,0,0,31.74,120.17Z" fill="#003a50"/><path d="M33.71,116.45a.72.72,0,0,1-.57.23.74.74,0,0,1-.56-.23.87.87,0,0,1-.21-.61.85.85,0,0,1,.21-.61.7.7,0,0,1,.56-.23.69.69,0,0,1,.57.23.85.85,0,0,1,.21.61A.87.87,0,0,1,33.71,116.45Z" fill="#003a50"/><path d="M27.77,106.84v1.56s0,0-.12,0a1.2,1.2,0,0,0-.31.15,1.91,1.91,0,0,0-.35.27,1.27,1.27,0,0,0-.29.5,2.08,2.08,0,0,0-.12.71,1.75,1.75,0,0,0,.73,1.52,3.11,3.11,0,0,0,1.89.54v0a1.11,1.11,0,0,1-.3-.31,2.14,2.14,0,0,1-.26-.43,3.75,3.75,0,0,1-.22-.67,4,4,0,0,1-.09-.86,3.58,3.58,0,0,1,.79-2.38,2.62,2.62,0,0,1,4,0,3.92,3.92,0,0,1,.78,2.55,3.38,3.38,0,0,1-1.09,2.73,4.48,4.48,0,0,1-3,.93h-.28a4.86,4.86,0,0,1-3.05-.93,3.2,3.2,0,0,1-1.2-2.69,4.14,4.14,0,0,1,.26-1.5,2.69,2.69,0,0,1,.66-1A2.48,2.48,0,0,1,27.77,106.84ZM30,108.61a2.58,2.58,0,0,0,0,2.79,1.33,1.33,0,0,0,1.12.55,1.31,1.31,0,0,0,1.1-.54,2.54,2.54,0,0,0,0-2.8,1.29,1.29,0,0,0-1.1-.55A1.33,1.33,0,0,0,30,108.61Z" fill="#003a50"/><path d="M32.72,304.5a4.52,4.52,0,0,1-3.11,1,4.56,4.56,0,0,1-3.12-1,4,4,0,0,1,0-5.74,4.61,4.61,0,0,1,3.12-1,4.57,4.57,0,0,1,3.11,1,4,4,0,0,1,0,5.74Zm-1-4.6a3.47,3.47,0,0,0-2.13-.62,3.53,3.53,0,0,0-2.15.62,2.22,2.22,0,0,0,0,3.46,3.47,3.47,0,0,0,2.15.63,3.41,3.41,0,0,0,2.13-.63,2.2,2.2,0,0,0,0-3.46Z" fill="#003a50"/><path d="M33.71,296.17a.68.68,0,0,1-.56.23.71.71,0,0,1-.57-.23.85.85,0,0,1-.21-.61.87.87,0,0,1,.21-.61.75.75,0,0,1,.57-.23.71.71,0,0,1,.56.23.87.87,0,0,1,.21.61A.85.85,0,0,1,33.71,296.17Z" fill="#003a50"/><path d="M27.77,286.57v1.55l-.12,0-.31.15a1.6,1.6,0,0,0-.35.28,1.14,1.14,0,0,0-.29.5,2,2,0,0,0-.12.71,1.78,1.78,0,0,0,.73,1.52,3.11,3.11,0,0,0,1.89.53v0a1,1,0,0,1-.3-.31,3.19,3.19,0,0,1-.26-.42,3.25,3.25,0,0,1-.21-.68,3.41,3.41,0,0,1-.1-.85,3.56,3.56,0,0,1,.79-2.38,2.46,2.46,0,0,1,2-.92,2.54,2.54,0,0,1,2.06,1,3.93,3.93,0,0,1,.77,2.54,3.38,3.38,0,0,1-1.09,2.73,4.48,4.48,0,0,1-3,.93h-.28a4.86,4.86,0,0,1-3.05-.93,3.18,3.18,0,0,1-1.2-2.68,4.14,4.14,0,0,1,.26-1.5,2.73,2.73,0,0,1,.66-1A2.46,2.46,0,0,1,27.77,286.57ZM30,288.33a2.32,2.32,0,0,0-.41,1.4,2.27,2.27,0,0,0,.41,1.39,1.33,1.33,0,0,0,1.12.55,1.31,1.31,0,0,0,1.1-.54,2.54,2.54,0,0,0,0-2.8,1.32,1.32,0,0,0-1.1-.55A1.35,1.35,0,0,0,30,288.33Z" fill="#003a50"/><path d="M470.21,304.28h-5.83v-1.84h8.86v1.84l-4.52,2.65V307H470a3.86,3.86,0,0,1,2.79,1,3.52,3.52,0,0,1,1,2.67,3.32,3.32,0,0,1-1.33,2.82,7,7,0,0,1-7.24,0,3.39,3.39,0,0,1-1.33-2.86v-.32h2.11v.32c0,1.36.95,2,2.84,2s2.84-.67,2.84-2-.94-2-2.84-2h-3.26V307l4.58-2.68Z" fill="#003a50"/><path d="M475.94,314.21a1,1,0,0,1-.32-.8,1.07,1.07,0,0,1,.32-.81,1.25,1.25,0,0,1,.88-.3,1.23,1.23,0,0,1,.86.3,1.07,1.07,0,0,1,.32.81,1,1,0,0,1-.32.8,1.23,1.23,0,0,1-.86.3A1.25,1.25,0,0,1,475.94,314.21Z" fill="#003a50"/><path d="M486.05,304.28h-5.82v-1.84h8.86v1.84l-4.53,2.65V307h1.28a3.84,3.84,0,0,1,2.79,1,3.5,3.5,0,0,1,1.06,2.67,3.32,3.32,0,0,1-1.33,2.82,7,7,0,0,1-7.24,0,3.36,3.36,0,0,1-1.33-2.86v-.32h2.11v.32c0,1.36.94,2,2.84,2s2.84-.67,2.84-2-.95-2-2.84-2h-3.27V307l4.58-2.68Z" fill="#003a50"/><path d="M546.53,280.81H536.6v-1.57a2.76,2.76,0,0,1,.58-1.74,3.91,3.91,0,0,1,1.45-1.19c.5-.26,1.12-.55,1.87-.87s1.32-.56,1.87-.77a4.36,4.36,0,0,0,1.45-.91,1.82,1.82,0,0,0,.57-1.31c0-1.26-.89-1.88-2.66-1.88s-2.68.72-2.68,2.16v.4h-2.11v-.4a3.62,3.62,0,0,1,1.26-3,5.39,5.39,0,0,1,3.52-1,5.72,5.72,0,0,1,3.51,1,3.29,3.29,0,0,1,1.27,2.75,3.1,3.1,0,0,1-.56,1.84,4.26,4.26,0,0,1-1.4,1.3q-.9.51-1.83.93t-1.83.75a5.33,5.33,0,0,0-1.41.75,1.23,1.23,0,0,0-.56,1h7.62Z" fill="#003a50"/><path d="M548.63,280.67a1,1,0,0,1-.32-.8,1.07,1.07,0,0,1,.32-.81,1.25,1.25,0,0,1,.88-.3,1.22,1.22,0,0,1,.86.3,1,1,0,0,1,.32.81,1,1,0,0,1-.32.8,1.22,1.22,0,0,1-.86.3A1.25,1.25,0,0,1,548.63,280.67Z" fill="#003a50"/><path d="M562.41,280.81h-9.93v-1.57a2.76,2.76,0,0,1,.58-1.74,3.91,3.91,0,0,1,1.45-1.19c.49-.26,1.12-.55,1.87-.87s1.32-.56,1.87-.77a4.36,4.36,0,0,0,1.45-.91,1.82,1.82,0,0,0,.57-1.31c0-1.26-.89-1.88-2.67-1.88s-2.67.72-2.67,2.16v.4h-2.11v-.4a3.62,3.62,0,0,1,1.26-3,5.39,5.39,0,0,1,3.52-1,5.72,5.72,0,0,1,3.51,1,3.29,3.29,0,0,1,1.27,2.75,3.17,3.17,0,0,1-.56,1.84,4.26,4.26,0,0,1-1.4,1.3c-.6.34-1.21.65-1.84.93s-1.23.53-1.82.75a5.18,5.18,0,0,0-1.41.75,1.23,1.23,0,0,0-.56,1h7.62Z" fill="#003a50"/><path d="M112.1,158.06h-9.93V156.5a2.79,2.79,0,0,1,.58-1.75,4.08,4.08,0,0,1,1.44-1.19c.5-.26,1.12-.54,1.87-.87l1.88-.77a4.07,4.07,0,0,0,1.44-.91,1.77,1.77,0,0,0,.58-1.3q0-1.89-2.67-1.89T104.62,150v.41h-2.11V150a3.64,3.64,0,0,1,1.26-3,5.42,5.42,0,0,1,3.51-1,5.61,5.61,0,0,1,3.51,1,3.28,3.28,0,0,1,1.28,2.75,3.17,3.17,0,0,1-.56,1.83,4.25,4.25,0,0,1-1.4,1.3,16.7,16.7,0,0,1-1.84.93c-.63.28-1.23.53-1.83.75a5.26,5.26,0,0,0-1.4.75,1.2,1.2,0,0,0-.56.95h7.62Z" fill="#003a50"/><path d="M120.4,148h-5.83v-1.84h8.87V148l-4.53,2.65v.07h1.28a3.9,3.9,0,0,1,2.79,1,3.52,3.52,0,0,1,1,2.67,3.32,3.32,0,0,1-1.33,2.82,6.93,6.93,0,0,1-7.24,0,3.38,3.38,0,0,1-1.33-2.85V154h2.11v.33c0,1.36,1,2,2.84,2s2.84-.67,2.84-2-.94-2-2.84-2h-3.26v-1.67l4.58-2.68Z" fill="#003a50"/><path d="M126.13,157.93a1.17,1.17,0,0,1,0-1.61,1.25,1.25,0,0,1,.88-.3,1.22,1.22,0,0,1,.86.3,1.17,1.17,0,0,1,0,1.61,1.22,1.22,0,0,1-.86.3A1.25,1.25,0,0,1,126.13,157.93Z" fill="#003a50"/><path d="M139.91,158.06H130V156.5a2.79,2.79,0,0,1,.58-1.75,4,4,0,0,1,1.45-1.19c.49-.26,1.12-.54,1.86-.87l1.88-.77a4.21,4.21,0,0,0,1.45-.91,1.8,1.8,0,0,0,.57-1.3q0-1.89-2.67-1.89T132.43,150v.41h-2.11V150a3.64,3.64,0,0,1,1.26-3,5.44,5.44,0,0,1,3.51-1,5.66,5.66,0,0,1,3.52,1,3.3,3.3,0,0,1,1.27,2.75,3.17,3.17,0,0,1-.56,1.83,4.16,4.16,0,0,1-1.4,1.3,16.7,16.7,0,0,1-1.84.93c-.62.28-1.23.53-1.82.75a5.18,5.18,0,0,0-1.41.75,1.23,1.23,0,0,0-.56.95h7.62Z" fill="#003a50"/><path d="M427.11,156h-5.82v-1.84h8.86V156l-4.53,2.65v.06h1.28a3.87,3.87,0,0,1,2.79,1,3.52,3.52,0,0,1,1.06,2.66,3.35,3.35,0,0,1-1.33,2.83,7,7,0,0,1-7.25,0,3.39,3.39,0,0,1-1.32-2.86V162H423v.32c0,1.36.94,2,2.83,2s2.85-.66,2.85-2-.95-2-2.85-2h-3.26v-1.67l4.58-2.69Z" fill="#003a50"/><path d="M432.85,165.92a1,1,0,0,1-.33-.8,1,1,0,0,1,.33-.81,1.4,1.4,0,0,1,1.73,0,1,1,0,0,1,.33.81,1,1,0,0,1-.33.8,1.4,1.4,0,0,1-1.73,0Z" fill="#003a50"/><path d="M445.43,165.29a7.73,7.73,0,0,1-7.37,0,3,3,0,0,1-1.37-2.56,2.7,2.7,0,0,1,.26-1.16,2.37,2.37,0,0,1,.65-.85,4,4,0,0,1,1.4-.78l.26-.06v-.09a3.18,3.18,0,0,1-.77-.3,2.37,2.37,0,0,1-.66-.44,2.2,2.2,0,0,1-.54-.75,2.41,2.41,0,0,1-.22-1,2.78,2.78,0,0,1,1.25-2.38,7,7,0,0,1,6.85,0,2.81,2.81,0,0,1,1.25,2.38,2.58,2.58,0,0,1-.22,1,1.88,1.88,0,0,1-.56.74,3.63,3.63,0,0,1-1.19.69l-.23.05v.09a1.44,1.44,0,0,1,.29.06,6.35,6.35,0,0,1,.62.27,3.43,3.43,0,0,1,.77.51,2.7,2.7,0,0,1,.62.82,2.63,2.63,0,0,1,.27,1.19A3,3,0,0,1,445.43,165.29Zm-5.79-1.35a4.83,4.83,0,0,0,4.2,0,1.59,1.59,0,0,0,0-2.69,4.93,4.93,0,0,0-4.2,0,1.51,1.51,0,0,0-.74,1.35A1.52,1.52,0,0,0,439.64,163.94Zm-.37-6.52a1.37,1.37,0,0,0,.65,1.19,4.07,4.07,0,0,0,3.64,0,1.42,1.42,0,0,0,0-2.39,3.94,3.94,0,0,0-3.62,0A1.36,1.36,0,0,0,439.27,157.42Z" fill="#003a50"/><path d="M461.09,91.1h-9.94V89.54a2.85,2.85,0,0,1,.58-1.75,4.09,4.09,0,0,1,1.45-1.19c.5-.26,1.12-.54,1.87-.87l1.87-.77a4,4,0,0,0,1.45-.91,1.81,1.81,0,0,0,.57-1.31c0-1.25-.89-1.88-2.66-1.88s-2.68.72-2.68,2.16v.41h-2.11V83a3.61,3.61,0,0,1,1.27-3,5.4,5.4,0,0,1,3.51-1,5.65,5.65,0,0,1,3.51,1,3.25,3.25,0,0,1,1.27,2.74,3.17,3.17,0,0,1-.55,1.84,4.28,4.28,0,0,1-1.41,1.3,16.56,16.56,0,0,1-1.83.93q-.94.42-1.83.75a5.26,5.26,0,0,0-1.4.75,1.22,1.22,0,0,0-.57,1h7.63Z" fill="#003a50"/><path d="M463.19,91a1,1,0,0,1-.33-.81,1,1,0,0,1,.33-.81,1.44,1.44,0,0,1,1.73,0,1,1,0,0,1,.33.81,1,1,0,0,1-.33.81,1.4,1.4,0,0,1-1.73,0Z" fill="#003a50"/><path d="M468.59,89.56a7.37,7.37,0,0,1,0-8.83,5.69,5.69,0,0,1,8.13,0,7.33,7.33,0,0,1,0,8.83,5.69,5.69,0,0,1-8.13,0Zm6.53-1.38a5.75,5.75,0,0,0,0-6.08,2.91,2.91,0,0,0-2.46-1.17,2.88,2.88,0,0,0-2.45,1.17,5.64,5.64,0,0,0,0,6.08,2.86,2.86,0,0,0,2.45,1.18A2.89,2.89,0,0,0,475.12,88.18Z" fill="#003a50"/><path d="M250.75,343.38h-5.82v-1.84h8.86v1.84L249.26,346v.07h1.28a3.9,3.9,0,0,1,2.79,1,3.5,3.5,0,0,1,1.06,2.67,3.32,3.32,0,0,1-1.33,2.82,7,7,0,0,1-7.24,0,3.36,3.36,0,0,1-1.33-2.86v-.32h2.11v.32c0,1.37,1,2,2.84,2s2.84-.67,2.84-2-.95-2-2.84-2h-3.26v-1.67l4.57-2.68Z" fill="#003a50"/><path d="M256.49,353.31a1,1,0,0,1-.32-.8,1,1,0,0,1,.32-.81,1.41,1.41,0,0,1,1.74,0,1.07,1.07,0,0,1,.32.81,1,1,0,0,1-.32.8,1.41,1.41,0,0,1-1.74,0Z" fill="#003a50"/><path d="M263.6,353.45h-2.35l5.41-10h-6.92v-1.88H269v1.88Z" fill="#003a50"/><path d="M317.91,314.3H308v-1.57a2.76,2.76,0,0,1,.58-1.74,4,4,0,0,1,1.45-1.2c.49-.25,1.12-.54,1.87-.86s1.32-.56,1.87-.77a4.23,4.23,0,0,0,1.45-.92,1.78,1.78,0,0,0,.57-1.3c0-1.26-.89-1.88-2.67-1.88s-2.67.72-2.67,2.15v.41h-2.11v-.41a3.62,3.62,0,0,1,1.26-3,5.39,5.39,0,0,1,3.52-1,5.65,5.65,0,0,1,3.51,1,3.29,3.29,0,0,1,1.27,2.75,3.17,3.17,0,0,1-.56,1.84,4.26,4.26,0,0,1-1.4,1.3c-.6.34-1.21.65-1.84.93s-1.23.53-1.82.75a5.46,5.46,0,0,0-1.41.74,1.26,1.26,0,0,0-.56,1h7.62Z" fill="#003a50"/><path d="M320,314.16a1,1,0,0,1-.32-.8,1.07,1.07,0,0,1,.32-.81,1.25,1.25,0,0,1,.88-.3,1.22,1.22,0,0,1,.86.3,1.07,1.07,0,0,1,.32.81,1,1,0,0,1-.32.8,1.22,1.22,0,0,1-.86.3A1.25,1.25,0,0,1,320,314.16Z" fill="#003a50"/><path d="M332.6,313.53a7.73,7.73,0,0,1-7.37,0,2.94,2.94,0,0,1-1.37-2.55,2.71,2.71,0,0,1,.26-1.17,2.37,2.37,0,0,1,.65-.85,3.94,3.94,0,0,1,1.4-.78l.26-.06V308a3.38,3.38,0,0,1-.77-.29,2.91,2.91,0,0,1-.66-.44,2.35,2.35,0,0,1-.54-.76,2.39,2.39,0,0,1-.23-1,2.8,2.8,0,0,1,1.26-2.38,5.74,5.74,0,0,1,3.42-.9,5.81,5.81,0,0,1,3.43.9,2.82,2.82,0,0,1,1.24,2.38,2.43,2.43,0,0,1-.22,1,1.9,1.9,0,0,1-.55.75,3.59,3.59,0,0,1-1.19.68l-.23,0v.09a2.45,2.45,0,0,1,.28.06,6.14,6.14,0,0,1,.63.27,4.12,4.12,0,0,1,.77.51,2.77,2.77,0,0,1,.89,2A3,3,0,0,1,332.6,313.53Zm-5.79-1.35a3.82,3.82,0,0,0,2.1.48,3.94,3.94,0,0,0,2.1-.47,1.53,1.53,0,0,0,.74-1.35,1.51,1.51,0,0,0-.74-1.35,4.93,4.93,0,0,0-4.2,0,1.59,1.59,0,0,0,0,2.69Zm-.37-6.52a1.37,1.37,0,0,0,.65,1.19,3.2,3.2,0,0,0,1.82.44,3.24,3.24,0,0,0,1.82-.44,1.42,1.42,0,0,0,0-2.39,3.94,3.94,0,0,0-3.62,0A1.36,1.36,0,0,0,326.44,305.66Z" fill="#003a50"/><path d="M118.91,305.74h-2.2s0-.06,0-.17a2.53,2.53,0,0,0-.22-.44,2.36,2.36,0,0,0-.38-.5,1.93,1.93,0,0,0-.71-.41,3,3,0,0,0-1-.16,2.49,2.49,0,0,0-2.15,1,4.39,4.39,0,0,0-.77,2.68h.06a1.63,1.63,0,0,1,.44-.43,3.55,3.55,0,0,1,.61-.37,3.67,3.67,0,0,1,.95-.3,5.41,5.41,0,0,1,1.21-.13,5.06,5.06,0,0,1,3.38,1.11,3.73,3.73,0,0,1-.06,5.71,5.59,5.59,0,0,1-3.61,1.1,4.81,4.81,0,0,1-3.87-1.54,6.38,6.38,0,0,1-1.32-4.27v-.41a6.85,6.85,0,0,1,1.32-4.31,4.52,4.52,0,0,1,3.81-1.71,5.64,5.64,0,0,1,2.12.37,4,4,0,0,1,1.44.94A3.45,3.45,0,0,1,118.91,305.74Zm-2.5,3.15a3.67,3.67,0,0,0-4,0,2,2,0,0,0,0,3.15,3.26,3.26,0,0,0,2,.59,3.21,3.21,0,0,0,2-.59,2,2,0,0,0,0-3.15Z" fill="#003a50"/><path d="M121.56,314.16a1,1,0,0,1-.32-.8,1.07,1.07,0,0,1,.32-.81,1.25,1.25,0,0,1,.88-.3,1.22,1.22,0,0,1,.86.3,1,1,0,0,1,.32.81,1,1,0,0,1-.32.8,1.22,1.22,0,0,1-.86.3A1.25,1.25,0,0,1,121.56,314.16Z" fill="#003a50"/><path d="M127,312.76a7.34,7.34,0,0,1,0-8.84,5.71,5.71,0,0,1,8.13,0,7.34,7.34,0,0,1,0,8.84,5.71,5.71,0,0,1-8.13,0Zm6.53-1.39a5,5,0,0,0,.87-3,5,5,0,0,0-.87-3,3.15,3.15,0,0,0-4.92,0,4.94,4.94,0,0,0-.88,3,4.89,4.89,0,0,0,.88,3,2.88,2.88,0,0,0,2.46,1.19A2.91,2.91,0,0,0,133.5,311.37Z" fill="#003a50"/><path d="M79,386.1H69.1v-1.56a2.8,2.8,0,0,1,.58-1.74,4.12,4.12,0,0,1,1.45-1.2c.5-.25,1.12-.54,1.87-.86s1.32-.56,1.88-.77a4.34,4.34,0,0,0,1.44-.92,1.78,1.78,0,0,0,.57-1.3c0-1.26-.89-1.89-2.66-1.89s-2.68.72-2.68,2.16v.41H69.44V378a3.59,3.59,0,0,1,1.27-3,5.34,5.34,0,0,1,3.51-1,5.65,5.65,0,0,1,3.51,1A3.27,3.27,0,0,1,79,377.75a3.14,3.14,0,0,1-.55,1.83A4.42,4.42,0,0,1,77,380.89q-.9.51-1.83.93c-.63.27-1.24.52-1.83.74a5.56,5.56,0,0,0-1.4.75,1.23,1.23,0,0,0-.57,1H79Z" fill="#003a50"/><path d="M81.14,386a1,1,0,0,1-.33-.81,1,1,0,0,1,.33-.8,1.4,1.4,0,0,1,1.73,0,1,1,0,0,1,.33.8,1,1,0,0,1-.33.81,1.4,1.4,0,0,1-1.73,0Z" fill="#003a50"/><path d="M94.91,386.1H85v-1.56a2.8,2.8,0,0,1,.58-1.74A4,4,0,0,1,87,381.6c.5-.25,1.12-.54,1.87-.86s1.32-.56,1.87-.77a4.29,4.29,0,0,0,1.45-.92,1.78,1.78,0,0,0,.57-1.3c0-1.26-.89-1.89-2.66-1.89s-2.68.72-2.68,2.16v.41H85.32V378a3.62,3.62,0,0,1,1.26-3,5.39,5.39,0,0,1,3.52-1,5.65,5.65,0,0,1,3.51,1,3.27,3.27,0,0,1,1.27,2.75,3.14,3.14,0,0,1-.56,1.83,4.29,4.29,0,0,1-1.4,1.31q-.9.51-1.83.93c-.63.27-1.24.52-1.83.74a5.64,5.64,0,0,0-1.41.75,1.25,1.25,0,0,0-.56,1h7.62Z" fill="#003a50"/><path d="M109.57,421.41l-2.49,2v-2.25l2.74-2.26h1.86v11.91h-2.11Z" fill="#003a50"/><path d="M120.4,420.7h-5.83v-1.84h8.87v1.84l-4.53,2.65v.07h1.28a3.86,3.86,0,0,1,2.79,1,3.52,3.52,0,0,1,1,2.66,3.33,3.33,0,0,1-1.33,2.83,7,7,0,0,1-7.24,0,3.39,3.39,0,0,1-1.33-2.86v-.32h2.11v.32c0,1.36,1,2,2.84,2s2.84-.67,2.84-2-.94-2-2.84-2h-3.26v-1.67l4.58-2.68Z" fill="#003a50"/><path d="M126.13,430.63a1,1,0,0,1-.32-.8,1.07,1.07,0,0,1,.32-.81,1.25,1.25,0,0,1,.88-.3,1.22,1.22,0,0,1,.86.3,1,1,0,0,1,.32.81,1,1,0,0,1-.32.8,1.22,1.22,0,0,1-.86.3A1.25,1.25,0,0,1,126.13,430.63Z" fill="#003a50"/><path d="M131.54,429.23a7.34,7.34,0,0,1,0-8.84,5.71,5.71,0,0,1,8.13,0,7.34,7.34,0,0,1,0,8.84,5.71,5.71,0,0,1-8.13,0Zm6.53-1.39a5,5,0,0,0,.87-3,5,5,0,0,0-.87-3,3.15,3.15,0,0,0-4.92,0,4.94,4.94,0,0,0-.88,3,4.89,4.89,0,0,0,.88,3,3.14,3.14,0,0,0,4.92,0Z" fill="#003a50"/><path d="M305.87,421.41l-2.48,2v-2.25l2.73-2.26H308v11.91h-2.11Z" fill="#003a50"/><path d="M312.5,421.41l-2.48,2v-2.25l2.73-2.26h1.86v11.91H312.5Z" fill="#003a50"/><path d="M317.13,430.63a1,1,0,0,1-.32-.8,1.07,1.07,0,0,1,.32-.81,1.25,1.25,0,0,1,.88-.3,1.22,1.22,0,0,1,.86.3,1.07,1.07,0,0,1,.32.81,1,1,0,0,1-.32.8,1.22,1.22,0,0,1-.86.3A1.25,1.25,0,0,1,317.13,430.63Z" fill="#003a50"/><path d="M327.24,420.7h-5.82v-1.84h8.86v1.84l-4.53,2.65v.07H327a3.83,3.83,0,0,1,2.79,1,3.49,3.49,0,0,1,1.06,2.66,3.33,3.33,0,0,1-1.33,2.83,7,7,0,0,1-7.24,0,3.36,3.36,0,0,1-1.33-2.86v-.32h2.11v.32c0,1.36,1,2,2.84,2s2.84-.67,2.84-2-.95-2-2.84-2h-3.26v-1.67l4.57-2.68Z" fill="#003a50"/><path d="M471.7,421.41l-2.48,2v-2.25l2.73-2.26h1.86v11.91H471.7Z" fill="#003a50"/><path d="M486.2,430.77h-9.93V429.2a2.76,2.76,0,0,1,.58-1.74,4,4,0,0,1,1.44-1.2c.5-.25,1.13-.54,1.87-.86s1.33-.56,1.88-.77a4.23,4.23,0,0,0,1.45-.92,1.78,1.78,0,0,0,.57-1.3c0-1.26-.89-1.88-2.67-1.88s-2.67.72-2.67,2.16v.4h-2.11v-.4a3.62,3.62,0,0,1,1.26-3,5.38,5.38,0,0,1,3.51-1,5.66,5.66,0,0,1,3.52,1,3.31,3.31,0,0,1,1.27,2.75,3.17,3.17,0,0,1-.56,1.84,4.26,4.26,0,0,1-1.4,1.3c-.6.34-1.21.65-1.84.93s-1.23.53-1.82.75a5.18,5.18,0,0,0-1.41.75,1.23,1.23,0,0,0-.56.95h7.62Z" fill="#003a50"/><path d="M488.3,430.63a1,1,0,0,1-.32-.8,1.07,1.07,0,0,1,.32-.81,1.41,1.41,0,0,1,1.74,0,1.07,1.07,0,0,1,.32.81,1,1,0,0,1-.32.8,1.41,1.41,0,0,1-1.74,0Z" fill="#003a50"/><path d="M495.41,430.77h-2.35l5.42-10h-6.93v-1.87h9.28v1.87Z" fill="#003a50"/><path d="M576.81,421.41l-2.48,2v-2.25l2.73-2.26h1.86v11.91h-2.11Z" fill="#003a50"/><path d="M590.11,430a7.71,7.71,0,0,1-7.36,0,2.92,2.92,0,0,1-1.37-2.55,2.57,2.57,0,0,1,.26-1.17,2.37,2.37,0,0,1,.65-.85,3.89,3.89,0,0,1,1.4-.77l.25-.07v-.09a3.51,3.51,0,0,1-.76-.29,2.91,2.91,0,0,1-.66-.44A2.21,2.21,0,0,1,582,423a2.39,2.39,0,0,1-.23-1,2.8,2.8,0,0,1,1.26-2.38,5.74,5.74,0,0,1,3.42-.9,5.81,5.81,0,0,1,3.43.9A2.82,2.82,0,0,1,591.1,422a2.43,2.43,0,0,1-.22,1,1.9,1.9,0,0,1-.55.75,3.72,3.72,0,0,1-1.2.68l-.22.05v.09l.28.07a4,4,0,0,1,.63.26,4.47,4.47,0,0,1,.77.51,2.69,2.69,0,0,1,.61.82,2.65,2.65,0,0,1,.28,1.2A3,3,0,0,1,590.11,430Zm-5.78-1.35a3.79,3.79,0,0,0,2.1.48,4,4,0,0,0,2.1-.47,1.53,1.53,0,0,0,.74-1.35,1.51,1.51,0,0,0-.74-1.35,4.93,4.93,0,0,0-4.2,0,1.59,1.59,0,0,0,0,2.69Zm-.37-6.52a1.36,1.36,0,0,0,.64,1.19,4,4,0,0,0,3.65,0,1.36,1.36,0,0,0,.64-1.19,1.38,1.38,0,0,0-.65-1.2,3.94,3.94,0,0,0-3.62,0A1.36,1.36,0,0,0,584,422.13Z" fill="#003a50"/></g></svg>