<svg id="Слой_1" data-name="Слой 1" xmlns="http://www.w3.org/2000/svg" xmlns:xlink="http://www.w3.org/1999/xlink" viewBox="0 0 581.1 362.83"><defs><clipPath id="clip-path"><polygon points="15.31 0.21 15.31 7.94 0 7.94 0 362.62 581.1 362.62 581.1 190.06 493.54 190.06 493.54 134.55 310.45 134.55 310.45 0.21 15.31 0.21" fill="none"/></clipPath></defs><polygon points="16.89 7.56 16.89 130.21 16.89 169.91 16.89 349.59 515.52 353.07 512.87 309.28 512.87 260.03 515.94 190.06 493.54 190.06 493.54 134.55 492.19 134.55 492.19 135.93 308.69 135.93 308.69 6.54 16.89 7.56" fill="#fff"/><polygon points="506.02 360.84 506.02 361.15 15.93 361.15 15.93 362.62 526.2 362.62 526.2 360.84 506.02 360.84" fill="#fff"/><g clip-path="url(#clip-path)"><rect x="2.33" y="-1262.7" width="1162.95" height="2240.57" fill="none" stroke="#003a50" stroke-miterlimit="10"/><polygon points="14.91 -158.53 14.91 965.02 1152.31 965.02 1152.31 -1249.75 14.91 -1249.91 14.91 -229.24 14.91 -158.53" fill="none" stroke="#003a50" stroke-miterlimit="10"/></g><rect x="35.53" y="215.66" width="4.55" height="86.39" fill="#fff"/><rect x="35.53" y="215.66" width="4.55" height="86.39" fill="none" stroke="#003a50" stroke-miterlimit="10"/><line x1="37.81" y1="302.06" x2="37.81" y2="215.67" fill="none" stroke="#003a50" stroke-miterlimit="10"/><rect x="35.53" y="297.58" width="4.55" height="4.48" fill="#fff"/><rect x="35.53" y="297.58" width="4.55" height="4.48" fill="none" stroke="#003a50" stroke-miterlimit="10"/><rect x="35.53" y="215.67" width="4.55" height="4.48" fill="#fff"/><rect x="35.53" y="215.67" width="4.55" height="4.48" fill="none" stroke="#003a50" stroke-miterlimit="10"/><rect x="35.53" y="255.57" width="4.55" height="4.48" fill="#fff"/><rect x="35.53" y="255.57" width="4.55" height="4.48" fill="none" stroke="#003a50" stroke-miterlimit="10"/><g clip-path="url(#clip-path)"><path d="M40.08,255.57H43c20.15,0,33.1-15.86,33.1-35.42h-36" fill="none" stroke="#003a50" stroke-miterlimit="10"/></g><rect x="35.53" y="33.94" width="4.55" height="91.25" fill="#fff"/><rect x="35.53" y="33.94" width="4.55" height="91.25" fill="none" stroke="#003a50" stroke-miterlimit="10"/><line x1="37.81" y1="33.94" x2="37.81" y2="125.19" fill="none" stroke="#003a50" stroke-miterlimit="10"/><rect x="35.53" y="33.95" width="4.55" height="4.73" fill="#fff"/><rect x="35.53" y="33.94" width="4.55" height="4.73" fill="none" stroke="#003a50" stroke-miterlimit="10"/><rect x="35.53" y="120.46" width="4.55" height="4.73" fill="#fff"/><rect x="35.53" y="120.46" width="4.55" height="4.73" fill="none" stroke="#003a50" stroke-miterlimit="10"/><rect x="35.53" y="78.32" width="4.55" height="4.73" fill="#fff"/><rect x="35.53" y="78.32" width="4.55" height="4.73" fill="none" stroke="#003a50" stroke-miterlimit="10"/><g clip-path="url(#clip-path)"><path d="M40.08,83.05H43c20.15,0,33.1,16.74,33.1,37.41h-36" fill="none" stroke="#003a50" stroke-miterlimit="10"/></g><rect x="370.98" y="151.77" width="42.38" height="92.09" fill="none" stroke="#003a50" stroke-miterlimit="10"/><g clip-path="url(#clip-path)"><rect x="375.96" y="155.57" width="32.03" height="84.24" rx="13.7" fill="none" stroke="#003a50" stroke-miterlimit="10"/><path d="M394.26,170.15a2.2,2.2,0,1,0-2.2,2.2A2.19,2.19,0,0,0,394.26,170.15Z" fill="none" stroke="#003a50" stroke-miterlimit="10"/><path d="M458.89,224.18h28.57V201.1H458.89a11.54,11.54,0,1,0,0,23.08Z" fill="none" stroke="#003a50" stroke-miterlimit="10"/></g><rect x="476.37" y="201.1" width="11.08" height="23.08" fill="none" stroke="#003a50" stroke-miterlimit="10"/><g clip-path="url(#clip-path)"><path d="M471.53,157.74a3.4,3.4,0,0,0,3.13-2.1h1.93l5.09,3.05-2.31,3.77L476.71,161v11.82H465.62V161L463,162.46l-2.31-3.77,5.14-3.05h2.57A3.45,3.45,0,0,0,471.53,157.74Z" fill="none" stroke="#003a50" stroke-miterlimit="10"/></g><rect x="454.21" y="151.42" width="33.92" height="25.63" fill="none" stroke="#003a50" stroke-miterlimit="10"/><rect x="331.88" y="215.76" width="32.72" height="33.97" fill="none" stroke="#003a50" stroke-miterlimit="10"/><g clip-path="url(#clip-path)"><path d="M352.55,231.22v-11h-8.61v11a3.55,3.55,0,0,0,3.55,3.55H349A3.55,3.55,0,0,0,352.55,231.22Z" fill="none" stroke="#003a50" stroke-miterlimit="10"/></g><polyline points="344.77 245.33 348.25 245.33 351.72 245.33" fill="none" stroke="#003a50" stroke-miterlimit="10"/><line x1="348.25" y1="234.77" x2="348.25" y2="245.33" fill="none" stroke="#003a50" stroke-miterlimit="10"/><rect x="276.6" y="151.34" width="31.88" height="31.88" fill="none" stroke="#003a50" stroke-miterlimit="10"/><g clip-path="url(#clip-path)"><path d="M304.16,174.41a4.35,4.35,0,1,1-4.34-4.35A4.34,4.34,0,0,1,304.16,174.41Z" fill="none" stroke="#003a50" stroke-miterlimit="10"/><path d="M289.65,174.41a4.35,4.35,0,1,1-4.34-4.35A4.34,4.34,0,0,1,289.65,174.41Z" fill="none" stroke="#003a50" stroke-miterlimit="10"/><path d="M304.16,160.27a4.35,4.35,0,1,1-4.34-4.35A4.34,4.34,0,0,1,304.16,160.27Z" fill="none" stroke="#003a50" stroke-miterlimit="10"/><path d="M289.65,160.27a4.35,4.35,0,1,1-4.34-4.35A4.34,4.34,0,0,1,289.65,160.27Z" fill="none" stroke="#003a50" stroke-miterlimit="10"/><rect x="318.29" y="362.81" width="34.02" height="34.02" fill="none" stroke="#003a50" stroke-miterlimit="10"/></g><rect x="82.93" y="160.22" width="102.05" height="17.01" fill="none" stroke="#003a50" stroke-miterlimit="10"/><polygon points="90.96 168.19 133.85 171.72 176.96 168.19 176.96 165.73 90.96 165.73 90.96 168.19" fill="none" stroke="#003a50" stroke-miterlimit="10"/><rect x="74.27" y="183.61" width="102.05" height="17.01" fill="none" stroke="#003a50" stroke-miterlimit="10"/><polygon points="168.29 192.65 125.39 189.13 82.29 192.65 82.29 195.11 168.29 195.11 168.29 192.65" fill="none" stroke="#003a50" stroke-miterlimit="10"/><g clip-path="url(#clip-path)"><rect x="304.44" y="363.24" width="58.79" height="33.59" fill="none" stroke="#003a50" stroke-miterlimit="10"/><rect x="363.23" y="363.24" width="32.72" height="102.57" fill="none" stroke="#003a50" stroke-miterlimit="10"/></g><rect x="267.39" y="149.63" width="64.49" height="33.59" fill="none" stroke="#003a50" stroke-miterlimit="10"/><rect x="331.88" y="147.16" width="32.72" height="102.57" fill="none" stroke="#003a50" stroke-miterlimit="10"/><g clip-path="url(#clip-path)"><path d="M298.46,284.12a1.25,1.25,0,0,1-.95-1.5,13.78,13.78,0,1,0-26.87-6.16,1.26,1.26,0,1,1-2.45-.57A16.3,16.3,0,0,1,300,283.18,1.25,1.25,0,0,1,298.46,284.12Z" fill="none" stroke="#003a50" stroke-miterlimit="10"/><path d="M243.29,274.41a1.26,1.26,0,0,1-1.75.33A13.78,13.78,0,1,0,226,297.52a1.26,1.26,0,0,1-1.42,2.08A16.3,16.3,0,0,1,243,272.66,1.26,1.26,0,0,1,243.29,274.41Z" fill="none" stroke="#003a50" stroke-miterlimit="10"/><path d="M240.79,321.81a1.27,1.27,0,0,1,1.33,1.18,13.78,13.78,0,1,0,27.52-1.63,1.26,1.26,0,0,1,2.51-.15,16.3,16.3,0,1,1-32.54,1.93A1.25,1.25,0,0,1,240.79,321.81Z" fill="none" stroke="#003a50" stroke-miterlimit="10"/><path d="M284.26,267.51a12.69,12.69,0,0,1,12,15.48l-2,8.88a3.53,3.53,0,0,1-4.24,2.68l-13.44-3.08a23.73,23.73,0,0,0-6-9.44l1-4.2C272.86,271.87,278.14,267.31,284.26,267.51Z" fill="none" stroke="#003a50" stroke-miterlimit="10"/><path d="M241.46,276l2.32,1.6A23.81,23.81,0,0,0,230.14,299l-2.52-1.72c-5-3.44-7.4-10-5-15.64A12.7,12.7,0,0,1,241.46,276Z" fill="none" stroke="#003a50" stroke-miterlimit="10"/><path d="M268.3,318.31l.12,2c.36,6.12-3.4,12-9.32,13.48a12.66,12.66,0,0,1-15.88-11.48l-.12-1.84a23.93,23.93,0,0,0,16.64,1.92A23.5,23.5,0,0,0,268.3,318.31Z" fill="none" stroke="#003a50" stroke-miterlimit="10"/><path d="M270.54,282a23.73,23.73,0,0,1,6,9.44,16.51,16.51,0,0,1,.6,2,23.85,23.85,0,0,1-8.84,24.84,23.5,23.5,0,0,1-8.56,4A23.87,23.87,0,0,1,230.82,305a22.12,22.12,0,0,1-.68-6,23.81,23.81,0,0,1,13.64-21.32,22.85,22.85,0,0,1,4.48-1.6A23.8,23.8,0,0,1,270.54,282Z" fill="none" stroke="#003a50" stroke-miterlimit="10"/><path d="M289.06,106.2a.94.94,0,0,1,.85.51.9.9,0,0,1-.43,1.22,28,28,0,0,1-23.81,0,.9.9,0,0,1-.43-1.22,1,1,0,0,1,1.27-.41,26.14,26.14,0,0,0,22.14,0A.86.86,0,0,1,289.06,106.2Z" fill="none" stroke="#003a50" stroke-miterlimit="10"/><path d="M289.06,111.26a.94.94,0,0,1,.85.51.89.89,0,0,1-.43,1.22,28,28,0,0,1-23.81,0,.89.89,0,0,1-.43-1.22,1,1,0,0,1,1.27-.41,26,26,0,0,0,22.14,0A.86.86,0,0,1,289.06,111.26Z" fill="none" stroke="#003a50" stroke-miterlimit="10"/><path d="M289.06,116.33a.93.93,0,0,1,.85.5.9.9,0,0,1-.43,1.23,28.07,28.07,0,0,1-23.81,0,.9.9,0,0,1-.43-1.22,1,1,0,0,1,1.27-.42,26,26,0,0,0,22.14,0A.85.85,0,0,1,289.06,116.33Z" fill="none" stroke="#003a50" stroke-miterlimit="10"/><path d="M289.06,121.39a.94.94,0,0,1,.85.51.9.9,0,0,1-.43,1.22,28,28,0,0,1-23.81,0,.9.9,0,0,1-.43-1.22,1,1,0,0,1,1.27-.42,26,26,0,0,0,22.14,0A1,1,0,0,1,289.06,121.39Z" fill="none" stroke="#003a50" stroke-miterlimit="10"/><path d="M289.06,126.45a.94.94,0,0,1,.85.51.89.89,0,0,1-.43,1.22,28,28,0,0,1-23.81,0,.89.89,0,0,1-.43-1.22,1,1,0,0,1,1.27-.41,26,26,0,0,0,22.14,0A.86.86,0,0,1,289.06,126.45Z" fill="none" stroke="#003a50" stroke-miterlimit="10"/><path d="M289.06,131.51a.94.94,0,0,1,.85.51.9.9,0,0,1-.43,1.23,28.07,28.07,0,0,1-23.81,0,.9.9,0,0,1-.43-1.22,1,1,0,0,1,1.27-.42,26,26,0,0,0,22.14,0A.86.86,0,0,1,289.06,131.51Z" fill="none" stroke="#003a50" stroke-miterlimit="10"/><path d="M289.06,101.14a.93.93,0,0,1,.85.5.9.9,0,0,1-.43,1.23,28.07,28.07,0,0,1-23.81,0,.9.9,0,0,1-.43-1.22,1,1,0,0,1,1.27-.42,26,26,0,0,0,22.14,0A.85.85,0,0,1,289.06,101.14Z" fill="none" stroke="#003a50" stroke-miterlimit="10"/><path d="M289.06,96.07a.94.94,0,0,1,.85.51.9.9,0,0,1-.43,1.23,28.07,28.07,0,0,1-23.81,0,.9.9,0,0,1-.43-1.22,1,1,0,0,1,1.27-.42,26,26,0,0,0,22.14,0A.86.86,0,0,1,289.06,96.07Z" fill="none" stroke="#003a50" stroke-miterlimit="10"/></g><line x1="277.58" y1="14.07" x2="277.58" y2="144.93" fill="none" stroke="#003a50" stroke-miterlimit="10"/><rect x="261.02" y="13.82" width="32.59" height="130.41" fill="none" stroke="#003a50" stroke-miterlimit="10"/><rect x="413.75" y="151.66" width="73.99" height="25.39" fill="none" stroke="#003a50" stroke-miterlimit="10"/><g clip-path="url(#clip-path)"><rect x="417.78" y="149.95" width="24.4" height="25.04" rx="2.83" fill="none" stroke="#003a50" stroke-miterlimit="10"/><path d="M430,164.38a1.92,1.92,0,1,1,1.91-1.91A1.92,1.92,0,0,1,430,164.38Z" fill="none" stroke="#003a50" stroke-miterlimit="10"/></g><rect x="325.47" y="314.82" width="34.02" height="34.02" fill="none" stroke="#003a50" stroke-miterlimit="10"/><line x1="342.48" y1="341.81" x2="342.48" y2="321.85" fill="none" stroke="#003a50" stroke-miterlimit="10"/><line x1="352.46" y1="331.83" x2="332.5" y2="331.83" fill="none" stroke="#003a50" stroke-miterlimit="10"/><line x1="349.54" y1="338.89" x2="335.43" y2="324.78" fill="none" stroke="#003a50" stroke-miterlimit="10"/><line x1="349.54" y1="324.78" x2="335.43" y2="338.89" fill="none" stroke="#003a50" stroke-miterlimit="10"/><rect x="359.49" y="314.82" width="153.07" height="34.02" fill="none" stroke="#003a50" stroke-miterlimit="10"/><g clip-path="url(#clip-path)"><path d="M376.61,319.65a1,1,0,0,1,1.9-.45,28.77,28.77,0,0,1,0,25.26,1,1,0,0,1-1.8-.88,26.72,26.72,0,0,0,0-23.49A1,1,0,0,1,376.61,319.65Z" fill="none" stroke="#003a50" stroke-miterlimit="10"/><path d="M382.17,319.65a1,1,0,0,1,1.91-.45,28.77,28.77,0,0,1,0,25.26,1,1,0,0,1-1.34.46,1,1,0,0,1-.46-1.34,26.81,26.81,0,0,0,0-23.49A1,1,0,0,1,382.17,319.65Z" fill="none" stroke="#003a50" stroke-miterlimit="10"/><path d="M387.74,319.65a1,1,0,0,1,1.9-.45,28.77,28.77,0,0,1,0,25.26,1,1,0,0,1-1.8-.88,26.72,26.72,0,0,0,0-23.49A1,1,0,0,1,387.74,319.65Z" fill="none" stroke="#003a50" stroke-miterlimit="10"/><path d="M393.3,319.65a1,1,0,0,1,1.91-.45,28.77,28.77,0,0,1,0,25.26,1,1,0,0,1-1.34.46,1,1,0,0,1-.46-1.34,26.81,26.81,0,0,0,0-23.49A1,1,0,0,1,393.3,319.65Z" fill="none" stroke="#003a50" stroke-miterlimit="10"/><path d="M398.87,319.65a1,1,0,0,1,1.9-.45,28.77,28.77,0,0,1,0,25.26,1,1,0,0,1-1.8-.88,26.72,26.72,0,0,0,0-23.49A1,1,0,0,1,398.87,319.65Z" fill="none" stroke="#003a50" stroke-miterlimit="10"/><path d="M404.44,319.65a1,1,0,0,1,1.9-.45,28.77,28.77,0,0,1,0,25.26,1,1,0,0,1-1.8-.88,26.72,26.72,0,0,0,0-23.49A1,1,0,0,1,404.44,319.65Z" fill="none" stroke="#003a50" stroke-miterlimit="10"/><path d="M371,319.65a1,1,0,0,1,1.91-.45,28.77,28.77,0,0,1,0,25.26,1,1,0,0,1-1.34.46,1,1,0,0,1-.46-1.34,26.81,26.81,0,0,0,0-23.49A1,1,0,0,1,371,319.65Z" fill="none" stroke="#003a50" stroke-miterlimit="10"/><path d="M365.48,319.65a1,1,0,0,1,1.9-.45,28.77,28.77,0,0,1,0,25.26,1,1,0,0,1-1.8-.88,26.72,26.72,0,0,0,0-23.49A1,1,0,0,1,365.48,319.65Z" fill="none" stroke="#003a50" stroke-miterlimit="10"/></g><line x1="359.49" y1="331.83" x2="512.56" y2="331.83" fill="none" stroke="#003a50" stroke-miterlimit="10"/><g clip-path="url(#clip-path)"><path d="M143,302.53v41H97.23V300.32h43.55A2.21,2.21,0,0,1,143,302.53Z" fill="none" stroke="#003a50" stroke-miterlimit="10"/><path d="M188.86,302.3v41.26H143.09V302.3a2,2,0,0,1,2-2h41.8A2,2,0,0,1,188.86,302.3Z" fill="none" stroke="#003a50" stroke-miterlimit="10"/><path d="M97.22,300.32a3.1,3.1,0,0,0-3.32-2.83H89.68a3.11,3.11,0,0,0-3.33,2.83v48.2H199.74V300.74a3.11,3.11,0,0,0-3.33-2.83h-4.22a3.11,3.11,0,0,0-3.33,2.83v42.83H97.22Z" fill="none" stroke="#003a50" stroke-miterlimit="10"/></g><rect x="97.22" y="334.31" width="91.64" height="9.25" fill="none" stroke="#003a50" stroke-miterlimit="10"/><rect x="53.97" y="14.23" width="22.68" height="22.68" fill="none" stroke="#003a50" stroke-miterlimit="10"/><g clip-path="url(#clip-path)"><path d="M71.81,32.07a9.2,9.2,0,1,1,0-13A9.21,9.21,0,0,1,71.81,32.07Z" fill="none" stroke="#003a50" stroke-miterlimit="10"/><path d="M72.43,31.37c-1.69-.16-3.41.49-5.06-1.17-2.44-2.43.14-5-2.3-7.45s-5,.14-7.46-2.3" fill="none" stroke="#003a50" stroke-miterlimit="10"/></g><rect x="191.27" y="14.23" width="22.68" height="22.68" fill="none" stroke="#003a50" stroke-miterlimit="10"/><g clip-path="url(#clip-path)"><path d="M209.11,32.07a9.2,9.2,0,1,1,0-13A9.21,9.21,0,0,1,209.11,32.07Z" fill="none" stroke="#003a50" stroke-miterlimit="10"/><path d="M209.73,31.37c-1.69-.16-3.41.49-5.06-1.17-2.44-2.43.14-5-2.3-7.45s-5,.14-7.46-2.3" fill="none" stroke="#003a50" stroke-miterlimit="10"/></g><rect x="82.97" y="14.23" width="102.05" height="113.39" fill="none" stroke="#003a50" stroke-miterlimit="10"/><g clip-path="url(#clip-path)"><path d="M175,117.87H93a2.08,2.08,0,0,1-2.09-2.08V48.15h86.22v67.64A2.08,2.08,0,0,1,175,117.87Z" fill="none" stroke="#003a50" stroke-miterlimit="10"/><rect x="90.64" y="21.65" width="42.5" height="22.88" rx="1.98" fill="none" stroke="#003a50" stroke-miterlimit="10"/><rect x="134.86" y="21.65" width="42.5" height="22.88" rx="1.98" fill="none" stroke="#003a50" stroke-miterlimit="10"/></g><line x1="177.36" y1="62" x2="90.64" y2="62" fill="none" stroke="#003a50" stroke-miterlimit="10"/><g clip-path="url(#clip-path)"><path d="M355.45,209.77V186.41a3.35,3.35,0,0,0-3.36-3.35H337.14a3.36,3.36,0,0,0-3.36,3.35v23.36a3.36,3.36,0,0,0,3.36,3.35h14.95A3.35,3.35,0,0,0,355.45,209.77Z" fill="none" stroke="#003a50" stroke-miterlimit="10"/><circle cx="348.41" cy="198.09" r="2.46" transform="translate(-52.11 212.76) rotate(-31.72)" fill="none" stroke="#003a50" stroke-miterlimit="10"/></g><line x1="347.66" y1="198.09" x2="361.27" y2="198.09" fill="none" stroke="#003a50" stroke-miterlimit="10"/><line x1="361.27" y1="191.28" x2="361.27" y2="204.9" fill="none" stroke="#003a50" stroke-miterlimit="10"/><g clip-path="url(#clip-path)"><line x1="117.13" y1="0.28" x2="117.13" y2="-59.17" fill="none" stroke="#003a50" stroke-linecap="round" stroke-linejoin="round" stroke-width="0.96"/><line x1="291.02" y1="0.28" x2="291.02" y2="-59.17" fill="none" stroke="#003a50" stroke-linecap="round" stroke-linejoin="round" stroke-width="0.96"/><line x1="259.4" y1="0.28" x2="259.4" y2="-59.17" fill="none" stroke="#003a50" stroke-linecap="round" stroke-linejoin="round" stroke-width="0.96"/><line x1="132.94" y1="0.28" x2="132.94" y2="-59.17" fill="none" stroke="#003a50" stroke-linecap="round" stroke-linejoin="round" stroke-width="0.96"/><line x1="148.75" y1="0.28" x2="148.75" y2="-59.17" fill="none" stroke="#003a50" stroke-linecap="round" stroke-linejoin="round" stroke-width="0.96"/><line x1="164.55" y1="0.28" x2="164.55" y2="-59.17" fill="none" stroke="#003a50" stroke-linecap="round" stroke-linejoin="round" stroke-width="0.96"/><line x1="180.36" y1="0.28" x2="180.36" y2="-59.17" fill="none" stroke="#003a50" stroke-linecap="round" stroke-linejoin="round" stroke-width="0.96"/><line x1="196.17" y1="0.28" x2="196.17" y2="-59.17" fill="none" stroke="#003a50" stroke-linecap="round" stroke-linejoin="round" stroke-width="0.96"/><line x1="211.98" y1="0.28" x2="211.98" y2="-59.17" fill="none" stroke="#003a50" stroke-linecap="round" stroke-linejoin="round" stroke-width="0.96"/><line x1="227.78" y1="0.28" x2="227.78" y2="-59.17" fill="none" stroke="#003a50" stroke-linecap="round" stroke-linejoin="round" stroke-width="0.96"/><line x1="243.59" y1="0.28" x2="243.59" y2="-59.17" fill="none" stroke="#003a50" stroke-linecap="round" stroke-linejoin="round" stroke-width="0.96"/><line x1="259.4" y1="0.28" x2="259.4" y2="-59.17" fill="none" stroke="#003a50" stroke-linecap="round" stroke-linejoin="round" stroke-width="0.96"/><line x1="275.21" y1="0.28" x2="275.21" y2="-59.17" fill="none" stroke="#003a50" stroke-linecap="round" stroke-linejoin="round" stroke-width="0.96"/><line x1="291.02" y1="0.28" x2="291.02" y2="-59.17" fill="none" stroke="#003a50" stroke-linecap="round" stroke-linejoin="round" stroke-width="0.96"/><line x1="132.94" y1="0.28" x2="132.94" y2="-59.17" fill="none" stroke="#003a50" stroke-linecap="round" stroke-linejoin="round" stroke-width="0.96"/><line x1="148.75" y1="0.28" x2="148.75" y2="-59.17" fill="none" stroke="#003a50" stroke-linecap="round" stroke-linejoin="round" stroke-width="0.96"/><line x1="164.55" y1="0.28" x2="164.55" y2="-59.17" fill="none" stroke="#003a50" stroke-linecap="round" stroke-linejoin="round" stroke-width="0.96"/><line x1="180.36" y1="0.28" x2="180.36" y2="-59.17" fill="none" stroke="#003a50" stroke-linecap="round" stroke-linejoin="round" stroke-width="0.96"/><line x1="196.17" y1="0.28" x2="196.17" y2="-59.17" fill="none" stroke="#003a50" stroke-linecap="round" stroke-linejoin="round" stroke-width="0.96"/><line x1="211.98" y1="0.28" x2="211.98" y2="-59.17" fill="none" stroke="#003a50" stroke-linecap="round" stroke-linejoin="round" stroke-width="0.96"/><line x1="227.78" y1="0.28" x2="227.78" y2="-59.17" fill="none" stroke="#003a50" stroke-linecap="round" stroke-linejoin="round" stroke-width="0.96"/><line x1="243.59" y1="0.28" x2="243.59" y2="-59.17" fill="none" stroke="#003a50" stroke-linecap="round" stroke-linejoin="round" stroke-width="0.96"/><line x1="259.4" y1="0.28" x2="259.4" y2="-59.17" fill="none" stroke="#003a50" stroke-linecap="round" stroke-linejoin="round" stroke-width="0.96"/><line x1="132.94" y1="0.28" x2="132.94" y2="-59.17" fill="none" stroke="#003a50" stroke-linecap="round" stroke-linejoin="round" stroke-width="0.96"/><line x1="148.75" y1="0.28" x2="148.75" y2="-59.17" fill="none" stroke="#003a50" stroke-linecap="round" stroke-linejoin="round" stroke-width="0.96"/><line x1="164.55" y1="0.28" x2="164.55" y2="-59.17" fill="none" stroke="#003a50" stroke-linecap="round" stroke-linejoin="round" stroke-width="0.96"/><line x1="180.36" y1="0.28" x2="180.36" y2="-59.17" fill="none" stroke="#003a50" stroke-linecap="round" stroke-linejoin="round" stroke-width="0.96"/><line x1="196.17" y1="0.28" x2="196.17" y2="-59.17" fill="none" stroke="#003a50" stroke-linecap="round" stroke-linejoin="round" stroke-width="0.96"/><line x1="211.98" y1="0.28" x2="211.98" y2="-59.17" fill="none" stroke="#003a50" stroke-linecap="round" stroke-linejoin="round" stroke-width="0.96"/><line x1="227.78" y1="0.28" x2="227.78" y2="-59.17" fill="none" stroke="#003a50" stroke-linecap="round" stroke-linejoin="round" stroke-width="0.96"/><line x1="243.59" y1="0.28" x2="243.59" y2="-59.17" fill="none" stroke="#003a50" stroke-linecap="round" stroke-linejoin="round" stroke-width="0.96"/><line x1="259.4" y1="0.28" x2="259.4" y2="-59.17" fill="none" stroke="#003a50" stroke-linecap="round" stroke-linejoin="round" stroke-width="0.96"/><line x1="275.21" y1="0.28" x2="275.21" y2="-59.17" fill="none" stroke="#003a50" stroke-linecap="round" stroke-linejoin="round" stroke-width="0.96"/><line x1="132.94" y1="0.28" x2="132.94" y2="-59.17" fill="none" stroke="#003a50" stroke-linecap="round" stroke-linejoin="round" stroke-width="0.96"/><line x1="148.75" y1="0.28" x2="148.75" y2="-59.17" fill="none" stroke="#003a50" stroke-linecap="round" stroke-linejoin="round" stroke-width="0.96"/><line x1="164.55" y1="0.28" x2="164.55" y2="-59.17" fill="none" stroke="#003a50" stroke-linecap="round" stroke-linejoin="round" stroke-width="0.96"/><line x1="180.36" y1="0.28" x2="180.36" y2="-59.17" fill="none" stroke="#003a50" stroke-linecap="round" stroke-linejoin="round" stroke-width="0.96"/><line x1="196.17" y1="0.28" x2="196.17" y2="-59.17" fill="none" stroke="#003a50" stroke-linecap="round" stroke-linejoin="round" stroke-width="0.96"/><line x1="211.98" y1="0.28" x2="211.98" y2="-59.17" fill="none" stroke="#003a50" stroke-linecap="round" stroke-linejoin="round" stroke-width="0.96"/><line x1="227.78" y1="0.28" x2="227.78" y2="-59.17" fill="none" stroke="#003a50" stroke-linecap="round" stroke-linejoin="round" stroke-width="0.96"/><line x1="243.59" y1="0.28" x2="243.59" y2="-59.17" fill="none" stroke="#003a50" stroke-linecap="round" stroke-linejoin="round" stroke-width="0.96"/><line x1="117.13" y1="0.28" x2="117.13" y2="-59.17" fill="none" stroke="#003a50" stroke-linecap="round" stroke-linejoin="round" stroke-width="0.96"/><line x1="291.02" y1="0.28" x2="291.02" y2="-59.17" fill="none" stroke="#003a50" stroke-linecap="round" stroke-linejoin="round" stroke-width="0.96"/><line x1="132.94" y1="0.28" x2="132.94" y2="-59.17" fill="none" stroke="#003a50" stroke-linecap="round" stroke-linejoin="round" stroke-width="0.96"/><line x1="148.75" y1="0.28" x2="148.75" y2="-59.17" fill="none" stroke="#003a50" stroke-linecap="round" stroke-linejoin="round" stroke-width="0.96"/><line x1="164.55" y1="0.28" x2="164.55" y2="-59.17" fill="none" stroke="#003a50" stroke-linecap="round" stroke-linejoin="round" stroke-width="0.96"/><line x1="180.36" y1="0.28" x2="180.36" y2="-59.17" fill="none" stroke="#003a50" stroke-linecap="round" stroke-linejoin="round" stroke-width="0.96"/><line x1="196.17" y1="0.28" x2="196.17" y2="-59.17" fill="none" stroke="#003a50" stroke-linecap="round" stroke-linejoin="round" stroke-width="0.96"/><line x1="211.98" y1="0.28" x2="211.98" y2="-59.17" fill="none" stroke="#003a50" stroke-linecap="round" stroke-linejoin="round" stroke-width="0.96"/><line x1="227.78" y1="0.28" x2="227.78" y2="-59.17" fill="none" stroke="#003a50" stroke-linecap="round" stroke-linejoin="round" stroke-width="0.96"/><line x1="243.59" y1="0.28" x2="243.59" y2="-59.17" fill="none" stroke="#003a50" stroke-linecap="round" stroke-linejoin="round" stroke-width="0.96"/><line x1="259.4" y1="0.28" x2="259.4" y2="-59.17" fill="none" stroke="#003a50" stroke-linecap="round" stroke-linejoin="round" stroke-width="0.96"/><line x1="275.21" y1="0.28" x2="275.21" y2="-59.17" fill="none" stroke="#003a50" stroke-linecap="round" stroke-linejoin="round" stroke-width="0.96"/><line x1="291.02" y1="0.28" x2="291.02" y2="-59.17" fill="none" stroke="#003a50" stroke-linecap="round" stroke-linejoin="round" stroke-width="0.96"/><line x1="132.94" y1="0.28" x2="132.94" y2="-59.17" fill="none" stroke="#003a50" stroke-linecap="round" stroke-linejoin="round" stroke-width="0.96"/><line x1="148.75" y1="0.28" x2="148.75" y2="-59.17" fill="none" stroke="#003a50" stroke-linecap="round" stroke-linejoin="round" stroke-width="0.96"/><line x1="164.55" y1="0.28" x2="164.55" y2="-59.17" fill="none" stroke="#003a50" stroke-linecap="round" stroke-linejoin="round" stroke-width="0.96"/><line x1="180.36" y1="0.28" x2="180.36" y2="-59.17" fill="none" stroke="#003a50" stroke-linecap="round" stroke-linejoin="round" stroke-width="0.96"/><line x1="196.17" y1="0.28" x2="196.17" y2="-59.17" fill="none" stroke="#003a50" stroke-linecap="round" stroke-linejoin="round" stroke-width="0.96"/><line x1="211.98" y1="0.28" x2="211.98" y2="-59.17" fill="none" stroke="#003a50" stroke-linecap="round" stroke-linejoin="round" stroke-width="0.96"/><line x1="227.78" y1="0.28" x2="227.78" y2="-59.17" fill="none" stroke="#003a50" stroke-linecap="round" stroke-linejoin="round" stroke-width="0.96"/><line x1="243.59" y1="0.28" x2="243.59" y2="-59.17" fill="none" stroke="#003a50" stroke-linecap="round" stroke-linejoin="round" stroke-width="0.96"/><line x1="259.4" y1="0.28" x2="259.4" y2="-59.17" fill="none" stroke="#003a50" stroke-linecap="round" stroke-linejoin="round" stroke-width="0.96"/><line x1="275.21" y1="0.28" x2="275.21" y2="-59.17" fill="none" stroke="#003a50" stroke-linecap="round" stroke-linejoin="round" stroke-width="0.96"/><path d="M417.81,246.51v3.07a38.72,38.72,0,0,0,38.72,38.72V246.51" fill="none" stroke="#003a50" stroke-miterlimit="10" stroke-width="1.6"/><path d="M195.65,180.86v-3.58a45.07,45.07,0,0,1,45.06-45.07v48.65" fill="none" stroke="#003a50" stroke-miterlimit="10" stroke-width="1.6"/><path d="M524,259.16H528a51.12,51.12,0,0,1,51.13,51.12H524" fill="none" stroke="#003a50" stroke-miterlimit="10" stroke-width="1.6"/><path d="M439.69,6.52V2.33A52.74,52.74,0,0,0,387-50.41V6.52" fill="none" stroke="#003a50" stroke-miterlimit="10" stroke-width="1.6"/><rect x="47.79" y="0.15" width="339.98" height="13.79" fill="#003a50"/><rect x="512.88" y="309.28" width="16.32" height="50.48" fill="#003a50"/><rect x="512.88" y="109.94" width="16.32" height="150.09" fill="#003a50"/><rect x="519.12" y="-6.06" width="10.07" height="146.14" fill="#003a50"/><rect x="514.79" y="-76.72" width="14.4" height="90.54" fill="#003a50"/><rect x="484.63" y="357.28" width="13.08" height="108.53" fill="#003a50"/><rect x="347.39" y="-83.22" width="13.79" height="92.72" fill="#003a50"/><rect x="47.79" y="349.12" width="481.33" height="13.79" fill="#003a50"/><rect x="438.69" y="0.15" width="90.5" height="13.79" fill="#003a50"/><rect x="293.71" y="12.28" width="16.74" height="137.8" fill="#003a50"/><rect x="305.25" y="134.56" width="187.71" height="16.78" fill="#003a50"/><rect x="484.62" y="109.94" width="34.5" height="10.81" fill="#003a50"/><rect x="482.72" y="110.71" width="10.81" height="39.38" fill="#003a50"/><rect x="16.19" y="124.84" width="35.6" height="90.82" fill="#003a50"/><rect x="3.46" y="189.75" width="44.33" height="25.9" fill="#003a50"/><rect x="16.19" y="-62.1" width="35.6" height="96.01" fill="#003a50"/><rect x="3.46" y="8.01" width="44.33" height="25.9" fill="#003a50"/><rect x="15.93" y="302.3" width="35.86" height="94.57" fill="#003a50"/><rect x="396.07" y="359.42" width="6.38" height="106.38" fill="#003a50"/><rect x="365.12" y="243.76" width="53.52" height="6.38" fill="#003a50"/><rect x="364.53" y="146.76" width="6.38" height="103.38" fill="#003a50"/><rect x="455.69" y="243.76" width="63.43" height="6.38" fill="#003a50"/><rect x="489.29" y="190.09" width="29.83" height="6.38" fill="#003a50"/><rect x="487.17" y="148.73" width="6.38" height="98.21" fill="#003a50"/><rect x="45.46" y="177.23" width="151.03" height="6.38" fill="#003a50"/><rect x="239.96" y="177.23" width="26.25" height="6.38" fill="#003a50"/><rect x="261.02" y="143.65" width="6.38" height="39.96" fill="#003a50"/><rect x="264.6" y="143.65" width="44.1" height="7.69" fill="#003a50"/><rect x="523.21" y="360.84" width="5.98" height="101.5" fill="#003a50"/><line x1="364.61" y1="314.82" x2="364.61" y2="248.44" fill="none" stroke="#003a50" stroke-miterlimit="10" stroke-width="0.57" stroke-dasharray="5.67 5.67"/><rect x="396.07" y="359.42" width="6.38" height="106.38" fill="#003a50"/><rect x="365.12" y="243.76" width="53.52" height="6.38" fill="#003a50"/><rect x="364.53" y="146.76" width="6.38" height="103.38" fill="#003a50"/><rect x="455.69" y="243.76" width="63.43" height="6.38" fill="#003a50"/><rect x="489.29" y="190.09" width="29.83" height="6.38" fill="#003a50"/><rect x="487.17" y="148.73" width="6.38" height="98.21" fill="#003a50"/><rect x="45.46" y="177.23" width="151.03" height="6.38" fill="#003a50"/><rect x="239.96" y="177.23" width="26.25" height="6.38" fill="#003a50"/><rect x="261.02" y="143.65" width="6.38" height="39.96" fill="#003a50"/><rect x="264.6" y="143.65" width="44.1" height="7.69" fill="#003a50"/><rect x="523.21" y="360.84" width="5.98" height="101.5" fill="#003a50"/><line x1="364.61" y1="314.82" x2="364.61" y2="248.44" fill="none" stroke="#003a50" stroke-miterlimit="10" stroke-width="0.57" stroke-dasharray="5.67 5.67"/></g><g clip-path="url(#clip-path)"><path d="M30,109.08a4.61,4.61,0,0,1-3.12,1,4.61,4.61,0,0,1-3.12-1,3.63,3.63,0,0,1-1.2-2.88,3.59,3.59,0,0,1,1.2-2.86,4.56,4.56,0,0,1,3.12-1,4.56,4.56,0,0,1,3.12,1,3.59,3.59,0,0,1,1.2,2.86A3.63,3.63,0,0,1,30,109.08Zm-1-4.61a3.52,3.52,0,0,0-2.14-.61,3.55,3.55,0,0,0-2.15.61,2.23,2.23,0,0,0,0,3.47,3.53,3.53,0,0,0,2.15.62,3.52,3.52,0,0,0,2.14-.62,2.23,2.23,0,0,0,0-3.47Z" fill="#003a50"/><path d="M30.94,100.75a.82.82,0,0,1-1.14,0,1,1,0,0,1,0-1.23.85.85,0,0,1,1.14,0,1,1,0,0,1,0,1.23Z" fill="#003a50"/><path d="M25,91.14V92.7s0,0-.12,0a1.2,1.2,0,0,0-.31.15,1.32,1.32,0,0,0-.64.77,2.08,2.08,0,0,0-.12.71,1.79,1.79,0,0,0,.73,1.52,3.11,3.11,0,0,0,1.89.54v0a1.27,1.27,0,0,1-.3-.31,3.28,3.28,0,0,1-.26-.43,3.14,3.14,0,0,1-.21-.67,4.12,4.12,0,0,1-.09-.86,3.57,3.57,0,0,1,.78-2.38,2.49,2.49,0,0,1,2-.92,2.54,2.54,0,0,1,2.05,1,3.92,3.92,0,0,1,.78,2.55,3.41,3.41,0,0,1-1.09,2.73A4.51,4.51,0,0,1,27,98h-.28a4.83,4.83,0,0,1-3-.93,3.18,3.18,0,0,1-1.21-2.69,4.14,4.14,0,0,1,.26-1.5,2.83,2.83,0,0,1,.67-1A2.43,2.43,0,0,1,25,91.14Zm2.22,1.77a2.58,2.58,0,0,0,0,2.79,1.41,1.41,0,0,0,2.23,0,2.28,2.28,0,0,0,.41-1.4,2.32,2.32,0,0,0-.41-1.4,1.41,1.41,0,0,0-2.23,0Z" fill="#003a50"/><path d="M29.94,289.76a4.52,4.52,0,0,1-3.11,1,4.56,4.56,0,0,1-3.12-1,4,4,0,0,1,0-5.74,4.61,4.61,0,0,1,3.12-1,4.57,4.57,0,0,1,3.11,1,4,4,0,0,1,0,5.74Zm-1-4.6a3.52,3.52,0,0,0-2.14-.62,3.56,3.56,0,0,0-2.15.62,2.22,2.22,0,0,0,0,3.46,3.47,3.47,0,0,0,2.15.63,3.46,3.46,0,0,0,2.14-.63,2.22,2.22,0,0,0,0-3.46Z" fill="#003a50"/><path d="M30.94,281.43a.82.82,0,0,1-1.14,0,.85.85,0,0,1-.21-.61.87.87,0,0,1,.21-.61.82.82,0,0,1,1.14,0,.87.87,0,0,1,.21.61A.85.85,0,0,1,30.94,281.43Z" fill="#003a50"/><path d="M25,271.83v1.55l-.12,0a1.67,1.67,0,0,0-.31.15,1.91,1.91,0,0,0-.35.27,1.27,1.27,0,0,0-.29.5,2.09,2.09,0,0,0-.12.72,1.8,1.8,0,0,0,.73,1.52,3.18,3.18,0,0,0,1.89.53v0a1,1,0,0,1-.3-.31,3.19,3.19,0,0,1-.26-.42,3.25,3.25,0,0,1-.21-.68,4,4,0,0,1-.09-.85,3.55,3.55,0,0,1,.78-2.38,2.46,2.46,0,0,1,2-.92,2.54,2.54,0,0,1,2.05,1,3.87,3.87,0,0,1,.78,2.54,3.41,3.41,0,0,1-1.09,2.73,4.51,4.51,0,0,1-3,.93h-.28a4.81,4.81,0,0,1-3-.93,3.16,3.16,0,0,1-1.21-2.68,4.14,4.14,0,0,1,.26-1.5,2.75,2.75,0,0,1,.67-1A2.42,2.42,0,0,1,25,271.83Zm2.22,1.76a2.32,2.32,0,0,0-.41,1.4,2.27,2.27,0,0,0,.41,1.39,1.41,1.41,0,0,0,2.23,0,2.6,2.6,0,0,0,0-2.8,1.41,1.41,0,0,0-2.23,0Z" fill="#003a50"/><path d="M103.56,139.34l-2.49,1.95v-2.24l2.74-2.27h1.86v11.91h-2.11Z" fill="#003a50"/><path d="M114.39,138.62h-5.83v-1.84h8.87v1.84l-4.53,2.65v.07h1.28a3.9,3.9,0,0,1,2.79,1,3.52,3.52,0,0,1,1,2.67,3.32,3.32,0,0,1-1.33,2.82,6.93,6.93,0,0,1-7.24,0,3.39,3.39,0,0,1-1.33-2.86v-.32h2.11V145c0,1.37,1,2.05,2.84,2s2.84-.67,2.84-2-.94-2-2.84-2h-3.26v-1.67l4.58-2.68Z" fill="#003a50"/><path d="M120.12,148.56a1,1,0,0,1-.32-.81,1.07,1.07,0,0,1,.32-.81,1.3,1.3,0,0,1,.88-.29,1.24,1.24,0,0,1,.86.29,1,1,0,0,1,.32.81,1,1,0,0,1-.32.81,1.2,1.2,0,0,1-.86.3A1.25,1.25,0,0,1,120.12,148.56Z" fill="#003a50"/><path d="M130.23,138.62h-5.82v-1.84h8.86v1.84l-4.52,2.65v.07H130a3.87,3.87,0,0,1,2.79,1,3.5,3.5,0,0,1,1.06,2.67,3.32,3.32,0,0,1-1.33,2.82,6.93,6.93,0,0,1-7.24,0A3.36,3.36,0,0,1,124,145v-.32h2.11V145c0,1.37,1,2.05,2.84,2s2.84-.67,2.84-2-.95-2-2.84-2h-3.26v-1.67l4.57-2.68Z" fill="#003a50"/><path d="M425.93,204.29h-5.82v-1.84H429v1.84l-4.53,2.65V207h1.28a3.9,3.9,0,0,1,2.79,1,3.53,3.53,0,0,1,1.06,2.67,3.35,3.35,0,0,1-1.33,2.82,5.85,5.85,0,0,1-3.62,1,5.79,5.79,0,0,1-3.62-1,3.36,3.36,0,0,1-1.33-2.86v-.32h2.11v.32c0,1.37.94,2,2.84,2s2.84-.67,2.84-2-.95-2-2.84-2h-3.27V207l4.58-2.68Z" fill="#003a50"/><path d="M431.67,214.22a1,1,0,0,1-.33-.8,1,1,0,0,1,.33-.81,1.4,1.4,0,0,1,1.73,0,1,1,0,0,1,.33.81,1,1,0,0,1-.33.8,1.4,1.4,0,0,1-1.73,0Z" fill="#003a50"/><path d="M438.78,214.36h-2.36l5.42-10h-6.93v-1.88h9.29v1.88Z" fill="#003a50"/><path d="M481.34,278.85h-2.11V276.2h-7v-1.84l6.3-7.42h2.79v7.42h1.59v1.84h-1.59Zm-2.11-4.49V269h-.07l-4.47,5.27v.05Z" fill="#003a50"/><path d="M484.62,278.72a1,1,0,0,1-.33-.81,1,1,0,0,1,.33-.8,1.4,1.4,0,0,1,1.73,0,1,1,0,0,1,.33.8,1,1,0,0,1-.33.81,1.4,1.4,0,0,1-1.73,0Z" fill="#003a50"/><path d="M488.75,275.5H491s0,.08,0,.18a2.72,2.72,0,0,0,.23.44,2.67,2.67,0,0,0,.41.48,2.19,2.19,0,0,0,.76.42,3.13,3.13,0,0,0,1.05.16,2.66,2.66,0,0,0,2.24-1.06,4.38,4.38,0,0,0,.8-2.71h-.05a2.55,2.55,0,0,1-.44.47,3.3,3.3,0,0,1-.6.4,4.36,4.36,0,0,1-.95.32,5.58,5.58,0,0,1-1.23.13,4.92,4.92,0,0,1-3.36-1.13,3.73,3.73,0,0,1,.05-5.72,5.49,5.49,0,0,1,3.6-1.1,4.81,4.81,0,0,1,3.87,1.54,6.4,6.4,0,0,1,1.32,4.27V273a6.64,6.64,0,0,1-1.37,4.31,4.69,4.69,0,0,1-3.88,1.71,5.91,5.91,0,0,1-2.17-.38,3.85,3.85,0,0,1-1.48-.94A3.33,3.33,0,0,1,488.75,275.5Zm2.78-3.16a3.58,3.58,0,0,0,3.94,0,1.86,1.86,0,0,0,.78-1.57,1.88,1.88,0,0,0-.77-1.58,3.27,3.27,0,0,0-2-.58,3.23,3.23,0,0,0-2,.58,1.88,1.88,0,0,0-.78,1.58A1.85,1.85,0,0,0,491.53,272.34Z" fill="#003a50"/><path d="M104.14,241.62l-2.49,2v-2.25l2.73-2.26h1.87V251h-2.11Z" fill="#003a50"/><path d="M117.44,250.21a7.73,7.73,0,0,1-7.37,0,2.94,2.94,0,0,1-1.37-2.55,2.71,2.71,0,0,1,.26-1.17,2.29,2.29,0,0,1,.66-.85,3.86,3.86,0,0,1,1.39-.77l.26-.07v-.09a3.32,3.32,0,0,1-.76-.29,2.78,2.78,0,0,1-.67-.44,2.35,2.35,0,0,1-.54-.76,2.38,2.38,0,0,1-.22-1,2.79,2.79,0,0,1,1.25-2.38,7,7,0,0,1,6.85,0,2.83,2.83,0,0,1,1.25,2.38,2.58,2.58,0,0,1-.22,1,2,2,0,0,1-.55.75,3.72,3.72,0,0,1-1.2.68l-.22,0v.09l.28.07a3.62,3.62,0,0,1,.62.26,3.81,3.81,0,0,1,.77.51,2.7,2.7,0,0,1,.62.82,2.65,2.65,0,0,1,.27,1.2A2.94,2.94,0,0,1,117.44,250.21Zm-5.79-1.35a3.84,3.84,0,0,0,2.1.48,3.94,3.94,0,0,0,2.1-.47,1.51,1.51,0,0,0,.74-1.35,1.49,1.49,0,0,0-.74-1.35,4.93,4.93,0,0,0-4.2,0,1.59,1.59,0,0,0,0,2.69Zm-.36-6.52a1.36,1.36,0,0,0,.64,1.19,4,4,0,0,0,3.65,0,1.38,1.38,0,0,0,.64-1.19,1.36,1.36,0,0,0-.66-1.2,3.94,3.94,0,0,0-3.62,0A1.35,1.35,0,0,0,111.29,242.34Z" fill="#003a50"/><path d="M120.91,250.84a1,1,0,0,1-.32-.8,1.07,1.07,0,0,1,.32-.81,1.41,1.41,0,0,1,1.74,0,1.07,1.07,0,0,1,.32.81,1,1,0,0,1-.32.8,1.41,1.41,0,0,1-1.74,0Z" fill="#003a50"/><path d="M134.53,242.42h-2.21s0-.06,0-.17a1.85,1.85,0,0,0-.21-.44,2.4,2.4,0,0,0-.39-.5,1.77,1.77,0,0,0-.71-.41,2.93,2.93,0,0,0-1-.16,2.51,2.51,0,0,0-2.15,1,4.39,4.39,0,0,0-.76,2.68h.06a1.49,1.49,0,0,1,.44-.43,3.9,3.9,0,0,1,.6-.37,4,4,0,0,1,.95-.3,5.56,5.56,0,0,1,1.22-.13,5,5,0,0,1,3.37,1.11,3.52,3.52,0,0,1,1.31,2.8,3.59,3.59,0,0,1-1.37,2.91,5.55,5.55,0,0,1-3.6,1.1,4.81,4.81,0,0,1-3.87-1.54,6.38,6.38,0,0,1-1.32-4.27v-.41a6.85,6.85,0,0,1,1.32-4.31,4.52,4.52,0,0,1,3.8-1.71,5.87,5.87,0,0,1,2.13.37,4,4,0,0,1,1.44.94A3.45,3.45,0,0,1,134.53,242.42ZM132,245.57a3.65,3.65,0,0,0-4,0,2,2,0,0,0,0,3.15,3.63,3.63,0,0,0,4,0,2,2,0,0,0,0-3.15Z" fill="#003a50"/></g></svg>