<svg id="Слой_1" data-name="Слой 1" xmlns="http://www.w3.org/2000/svg" xmlns:xlink="http://www.w3.org/1999/xlink" viewBox="0 0 581.1 365.67"><defs><clipPath id="clip-path"><polygon points="0 0.14 0 365.53 581.1 365.53 581.1 66.52 287.77 66.52 287.77 0.14 0 0.14" fill="none"/></clipPath></defs><g clip-path="url(#clip-path)"><polygon points="580.01 -417.26 580.01 -99.02 646.74 -99.02 654.9 -78.93 654.9 -31.66 654.86 171.02 675.31 176.07 675.31 211.55 1118.3 211.55 1118.3 -112.87 1118.3 -183.83 1118.3 -417.26 580.01 -417.26" fill="#fff"/></g><polygon points="49.03 0.14 49.03 2.18 277.99 4.16 281.49 71.1 525.8 68.92 525.73 66.52 287.77 66.52 287.77 0.14 49.03 0.14" fill="#fff"/><polygon points="49.03 0.88 49.03 357.82 221.15 357.82 285.29 357.82 526.25 358.79 526.25 254.26 512.18 243.18 512.18 193.86 517.08 75.88 286.37 67.8 286.37 0.88 49.03 0.88" fill="#fff"/><g clip-path="url(#clip-path)"><rect x="26.78" y="-441.75" width="1115.44" height="2194.74" fill="none" stroke="#003a50" stroke-miterlimit="10"/><polygon points="51.6 643.97 51.6 1730.04 1118.08 1730.04 1118.08 -417.83 51.6 -417.99 51.6 575.17 51.6 643.97" fill="none" stroke="#003a50" stroke-miterlimit="10"/></g><rect x="36.5" y="201.31" width="4.55" height="90" fill="#fff"/><rect x="36.5" y="201.31" width="4.55" height="90" fill="none" stroke="#003a50" stroke-miterlimit="10"/><line x1="38.78" y1="201.31" x2="38.78" y2="291.31" fill="none" stroke="#003a50" stroke-miterlimit="10"/><rect x="36.5" y="201.31" width="4.55" height="4.54" fill="#fff"/><rect x="36.5" y="201.31" width="4.55" height="4.54" fill="none" stroke="#003a50" stroke-miterlimit="10"/><rect x="36.5" y="286.77" width="4.55" height="4.54" fill="#fff"/><rect x="36.5" y="286.77" width="4.55" height="4.54" fill="none" stroke="#003a50" stroke-miterlimit="10"/><rect x="36.5" y="244.04" width="4.55" height="4.54" fill="#fff"/><rect x="36.5" y="244.04" width="4.55" height="4.54" fill="none" stroke="#003a50" stroke-miterlimit="10"/><rect x="36.5" y="20.95" width="4.55" height="83.98" fill="#fff"/><rect x="36.5" y="20.95" width="4.55" height="83.98" fill="none" stroke="#003a50" stroke-miterlimit="10"/><line x1="38.78" y1="20.95" x2="38.78" y2="104.93" fill="none" stroke="#003a50" stroke-miterlimit="10"/><rect x="36.5" y="20.95" width="4.55" height="4.24" fill="#fff"/><rect x="36.5" y="20.95" width="4.55" height="4.24" fill="none" stroke="#003a50" stroke-miterlimit="10"/><rect x="36.5" y="100.7" width="4.55" height="4.24" fill="#fff"/><rect x="36.5" y="100.7" width="4.55" height="4.24" fill="none" stroke="#003a50" stroke-miterlimit="10"/><rect x="36.5" y="60.82" width="4.55" height="4.24" fill="#fff"/><rect x="36.5" y="60.82" width="4.55" height="4.24" fill="none" stroke="#003a50" stroke-miterlimit="10"/><g clip-path="url(#clip-path)"><rect x="313.08" y="37.6" width="72.51" height="29.78" fill="none" stroke="#003a50" stroke-miterlimit="10"/></g><rect x="359.06" y="252.08" width="34.03" height="99.64" fill="none" stroke="#003a50" stroke-miterlimit="10"/><g clip-path="url(#clip-path)"><rect x="51.27" y="-33.43" width="230.58" height="34.03" fill="none" stroke="#003a50" stroke-miterlimit="10"/><rect x="385.63" y="-28.74" width="43.35" height="96.1" fill="none" stroke="#003a50" stroke-miterlimit="10"/><path d="M391,47.2V-8.58a15.94,15.94,0,0,1,15.94-15.94h.73A15.94,15.94,0,0,1,423.61-8.58V47.2a15.94,15.94,0,0,1-15.94,15.94h-.73A15.94,15.94,0,0,1,391,47.2Z" fill="none" stroke="#003a50" stroke-miterlimit="10"/><path d="M407.31,45.61A2.27,2.27,0,1,1,405,47.88,2.27,2.27,0,0,1,407.31,45.61Z" fill="none" stroke="#003a50" stroke-miterlimit="10"/></g><rect x="378.1" y="79.83" width="41.14" height="98.94" fill="none" stroke="#003a50" stroke-miterlimit="10"/><g clip-path="url(#clip-path)"><path d="M414.14,99.66V159a15.47,15.47,0,1,1-30.94,0V99.66a15.47,15.47,0,1,1,30.94,0Z" fill="none" stroke="#003a50" stroke-miterlimit="10"/><path d="M398.67,102.09a2.2,2.2,0,1,1,2.2-2.2A2.21,2.21,0,0,1,398.67,102.09Z" fill="none" stroke="#003a50" stroke-miterlimit="10"/><path d="M342,10.72H313.16v-22.8H342a11.39,11.39,0,0,1,11.4,11.4A11.39,11.39,0,0,1,342,10.72Z" fill="none" stroke="#003a50" stroke-miterlimit="10"/><path d="M457.76,130.56h28.86v22.81H457.76a11.41,11.41,0,0,1,0-22.81Z" fill="none" stroke="#003a50" stroke-miterlimit="10"/></g><line x1="475.39" y1="153.37" x2="475.39" y2="130.56" fill="none" stroke="#003a50" stroke-miterlimit="10"/><g clip-path="url(#clip-path)"><rect x="352.86" y="40" width="28.97" height="29.72" rx="3.36" fill="none" stroke="#003a50" stroke-miterlimit="10"/><circle cx="367.35" cy="54.85" r="2.27" transform="translate(254.36 408.67) rotate(-80.78)" fill="none" stroke="#003a50" stroke-miterlimit="10"/></g><rect x="419.35" y="80.18" width="37.83" height="26.35" fill="none" stroke="#003a50" stroke-miterlimit="10"/><g clip-path="url(#clip-path)"><path d="M425,101.43V81.05a3,3,0,0,1,3-3h19.71a3,3,0,0,1,3,3v20.38a3,3,0,0,1-3,3H427.93A3,3,0,0,1,425,101.43Z" fill="none" stroke="#003a50" stroke-miterlimit="10"/><path d="M437.78,93.25a2,2,0,1,1,2-2A2,2,0,0,1,437.78,93.25Z" fill="none" stroke="#003a50" stroke-miterlimit="10"/><rect x="313.39" y="37.61" width="34.03" height="28.85" fill="none" stroke="#003a50" stroke-miterlimit="10"/><path d="M335.72,43.72H333.6a3.07,3.07,0,0,1-5.72,0H325.1l-5.28,3,2.52,4,2.38-1.26V60.34H336.1V49.48l2.38,1.26,2.52-4Z" fill="none" stroke="#003a50" stroke-miterlimit="10"/></g><rect x="457.19" y="80.37" width="30.13" height="25.91" fill="none" stroke="#003a50" stroke-miterlimit="10"/><g clip-path="url(#clip-path)"><path d="M477,86.36h-1.88a2.71,2.71,0,0,1-5.06,0h-2.47l-4.68,2.69,2.24,3.53,2.11-1.12v9.62h10.07V91.46l2.11,1.12,2.23-3.53Z" fill="none" stroke="#003a50" stroke-miterlimit="10"/><rect x="106.97" y="-33.43" width="34.03" height="34.03" fill="none" stroke="#003a50" stroke-miterlimit="10"/><rect x="216.62" y="-33.43" width="34.03" height="34.03" fill="none" stroke="#003a50" stroke-miterlimit="10"/><rect x="51.29" y="-33.43" width="34.03" height="34.03" fill="none" stroke="#003a50" stroke-miterlimit="10"/></g><rect x="338.24" y="153.29" width="33.06" height="33.06" fill="none" stroke="#003a50" stroke-miterlimit="10"/><line x1="354.77" y1="179.52" x2="354.77" y2="160.12" fill="none" stroke="#003a50" stroke-miterlimit="10"/><line x1="364.47" y1="169.82" x2="345.07" y2="169.82" fill="none" stroke="#003a50" stroke-miterlimit="10"/><line x1="361.63" y1="176.68" x2="347.92" y2="162.96" fill="none" stroke="#003a50" stroke-miterlimit="10"/><line x1="361.63" y1="162.96" x2="347.92" y2="176.68" fill="none" stroke="#003a50" stroke-miterlimit="10"/><g clip-path="url(#clip-path)"><rect x="362.52" y="303.51" width="21.67" height="30.07" rx="3.36" fill="none" stroke="#003a50" stroke-miterlimit="10"/><circle cx="377.15" cy="318.54" r="2.46" transform="matrix(0.53, -0.85, 0.85, 0.53, -92.09, 471.9)" fill="none" stroke="#003a50" stroke-miterlimit="10"/></g><line x1="376.4" y1="318.54" x2="390.02" y2="318.54" fill="none" stroke="#003a50" stroke-miterlimit="10"/><line x1="390.02" y1="325.35" x2="390.02" y2="311.73" fill="none" stroke="#003a50" stroke-miterlimit="10"/><rect x="337.55" y="80.53" width="34.03" height="68.06" fill="none" stroke="#003a50" stroke-miterlimit="10"/><g clip-path="url(#clip-path)"><path d="M342.37,131.46a1,1,0,0,1-.44-1.91,28.77,28.77,0,0,1,25.26,0,1,1,0,0,1,.46,1.34,1,1,0,0,1-1.34.46,26.83,26.83,0,0,0-23.5,0A1,1,0,0,1,342.37,131.46Z" fill="none" stroke="#003a50" stroke-miterlimit="10"/><path d="M342.37,125.89a1,1,0,0,1-.44-1.91,28.77,28.77,0,0,1,25.26,0,1,1,0,0,1,.46,1.34,1,1,0,0,1-1.34.46,26.83,26.83,0,0,0-23.5,0A.87.87,0,0,1,342.37,125.89Z" fill="none" stroke="#003a50" stroke-miterlimit="10"/><path d="M342.37,120.32a1,1,0,0,1-.44-1.9,28.77,28.77,0,0,1,25.26,0,1,1,0,1,1-.88,1.8,26.74,26.74,0,0,0-23.5,0A1,1,0,0,1,342.37,120.32Z" fill="none" stroke="#003a50" stroke-miterlimit="10"/><path d="M342.37,114.75a1,1,0,0,1-.9-.56,1,1,0,0,1,.46-1.34,28.77,28.77,0,0,1,25.26,0,1,1,0,1,1-.88,1.8,26.74,26.74,0,0,0-23.5,0A1,1,0,0,1,342.37,114.75Z" fill="none" stroke="#003a50" stroke-miterlimit="10"/><path d="M342.37,109.19a1,1,0,0,1-.44-1.91,28.77,28.77,0,0,1,25.26,0,1,1,0,0,1,.46,1.34,1,1,0,0,1-1.34.46,26.83,26.83,0,0,0-23.5,0A1,1,0,0,1,342.37,109.19Z" fill="none" stroke="#003a50" stroke-miterlimit="10"/><path d="M342.37,103.62a1,1,0,0,1-.44-1.91,28.77,28.77,0,0,1,25.26,0,1,1,0,0,1,.46,1.34,1,1,0,0,1-1.34.46,26.83,26.83,0,0,0-23.5,0A.87.87,0,0,1,342.37,103.62Z" fill="none" stroke="#003a50" stroke-miterlimit="10"/><path d="M342.37,137a1,1,0,0,1-.9-.56,1,1,0,0,1,.46-1.34,28.77,28.77,0,0,1,25.26,0,1,1,0,0,1-.88,1.8,26.74,26.74,0,0,0-23.5,0A1,1,0,0,1,342.37,137Z" fill="none" stroke="#003a50" stroke-miterlimit="10"/><path d="M342.37,142.59a1,1,0,0,1-.44-1.9,28.77,28.77,0,0,1,25.26,0,1,1,0,0,1-.88,1.8,26.74,26.74,0,0,0-23.5,0A1,1,0,0,1,342.37,142.59Z" fill="none" stroke="#003a50" stroke-miterlimit="10"/></g><line x1="354.56" y1="148.58" x2="354.56" y2="80.91" fill="none" stroke="#003a50" stroke-miterlimit="10"/><g clip-path="url(#clip-path)"><rect x="435.93" y="35.39" width="56.49" height="30.81" fill="none" stroke="#003a50" stroke-miterlimit="10"/><path d="M451.43,39.75a.9.9,0,0,1,.51-.81.91.91,0,0,1,1.22.41,26.11,26.11,0,0,1,0,22.88.91.91,0,1,1-1.63-.8,24.24,24.24,0,0,0,0-21.28A.79.79,0,0,1,451.43,39.75Z" fill="none" stroke="#003a50" stroke-miterlimit="10"/><path d="M456.48,39.75a.89.89,0,0,1,.5-.81.91.91,0,0,1,1.22.41,26.11,26.11,0,0,1,0,22.88.91.91,0,1,1-1.63-.8,24.24,24.24,0,0,0,0-21.28A.78.78,0,0,1,456.48,39.75Z" fill="none" stroke="#003a50" stroke-miterlimit="10"/><path d="M461.52,39.75a.89.89,0,0,1,.5-.81.91.91,0,0,1,1.22.41,26.11,26.11,0,0,1,0,22.88.91.91,0,1,1-1.63-.8,24.24,24.24,0,0,0,0-21.28A.78.78,0,0,1,461.52,39.75Z" fill="none" stroke="#003a50" stroke-miterlimit="10"/><path d="M466.56,39.75a.89.89,0,0,1,.5-.81.91.91,0,0,1,1.22.41,26.11,26.11,0,0,1,0,22.88.91.91,0,1,1-1.63-.8,24.24,24.24,0,0,0,0-21.28A.78.78,0,0,1,466.56,39.75Z" fill="none" stroke="#003a50" stroke-miterlimit="10"/><path d="M471.6,39.75a.91.91,0,0,1,1.72-.4,26,26,0,0,1,0,22.88.91.91,0,1,1-1.63-.8,24.24,24.24,0,0,0,0-21.28A.9.9,0,0,1,471.6,39.75Z" fill="none" stroke="#003a50" stroke-miterlimit="10"/><path d="M476.64,39.75a.91.91,0,0,1,1.72-.4,26,26,0,0,1,0,22.88.91.91,0,1,1-1.63-.8,24.24,24.24,0,0,0,0-21.28A.9.9,0,0,1,476.64,39.75Z" fill="none" stroke="#003a50" stroke-miterlimit="10"/><path d="M446.39,39.75a.9.9,0,0,1,.51-.81.91.91,0,0,1,1.22.41,26.11,26.11,0,0,1,0,22.88.91.91,0,1,1-1.63-.8,24.24,24.24,0,0,0,0-21.28A.79.79,0,0,1,446.39,39.75Z" fill="none" stroke="#003a50" stroke-miterlimit="10"/><path d="M441.35,39.75a.9.9,0,0,1,.51-.81.91.91,0,0,1,1.22.41,26.11,26.11,0,0,1,0,22.88.92.92,0,0,1-1.22.42.9.9,0,0,1-.41-1.22,24.24,24.24,0,0,0,0-21.28A.79.79,0,0,1,441.35,39.75Z" fill="none" stroke="#003a50" stroke-miterlimit="10"/></g><rect x="399.03" y="257.25" width="34.03" height="70.36" fill="none" stroke="#003a50" stroke-miterlimit="10"/><rect x="435.48" y="328.08" width="39.55" height="23.62" fill="none" stroke="#003a50" stroke-miterlimit="10"/><rect x="291.24" y="153.02" width="33.61" height="33.61" fill="none" stroke="#003a50" stroke-miterlimit="10"/><g clip-path="url(#clip-path)"><path d="M320.3,177.33a4.59,4.59,0,1,1-4.58-4.58A4.57,4.57,0,0,1,320.3,177.33Z" fill="none" stroke="#003a50" stroke-miterlimit="10"/><path d="M305,177.33a4.58,4.58,0,1,1-4.58-4.58A4.57,4.57,0,0,1,305,177.33Z" fill="none" stroke="#003a50" stroke-miterlimit="10"/><path d="M320.3,162.43a4.59,4.59,0,1,1-4.58-4.58A4.58,4.58,0,0,1,320.3,162.43Z" fill="none" stroke="#003a50" stroke-miterlimit="10"/><path d="M305,162.43a4.58,4.58,0,1,1-4.58-4.58A4.58,4.58,0,0,1,305,162.43Z" fill="none" stroke="#003a50" stroke-miterlimit="10"/></g><rect x="82.92" y="163.62" width="102.08" height="17.02" fill="none" stroke="#003a50" stroke-miterlimit="10"/><polygon points="90.94 171.59 133.86 175.11 176.98 171.59 176.98 169.13 90.94 169.13 90.94 171.59" fill="none" stroke="#003a50" stroke-miterlimit="10"/><rect x="51.06" y="187.01" width="102.08" height="17.02" fill="none" stroke="#003a50" stroke-miterlimit="10"/><polygon points="145.12 196.06 102.21 192.53 59.09 196.06 59.09 198.52 145.12 198.52 145.12 196.06" fill="none" stroke="#003a50" stroke-miterlimit="10"/><rect x="277.99" y="153.01" width="94.21" height="33.61" fill="none" stroke="#003a50" stroke-miterlimit="10"/><g clip-path="url(#clip-path)"><path d="M300.08,294.16a1.26,1.26,0,0,1-.94-1.51,13.79,13.79,0,1,0-26.88-6.16,1.26,1.26,0,0,1-2.46-.57,16.31,16.31,0,1,1,31.79,7.29A1.26,1.26,0,0,1,300.08,294.16Z" fill="none" stroke="#003a50" stroke-miterlimit="10"/><path d="M244.89,284.44a1.25,1.25,0,0,1-1.74.33,13.79,13.79,0,0,0-15.54,22.79,1.26,1.26,0,1,1-1.41,2.08,16.3,16.3,0,0,1,18.36-26.95A1.25,1.25,0,0,1,244.89,284.44Z" fill="none" stroke="#003a50" stroke-miterlimit="10"/><path d="M242.39,331.86a1.26,1.26,0,0,1,1.33,1.18,13.79,13.79,0,1,0,27.53-1.63,1.26,1.26,0,0,1,2.52-.15,16.31,16.31,0,1,1-32.56,1.93A1.25,1.25,0,0,1,242.39,331.86Z" fill="none" stroke="#003a50" stroke-miterlimit="10"/><path d="M285.88,277.54a12.69,12.69,0,0,1,12,15.48l-2,8.89a3.53,3.53,0,0,1-4.24,2.68l-13.45-3.08a23.84,23.84,0,0,0-6-9.45l1-4.2C274.48,281.9,279.76,277.34,285.88,277.54Z" fill="none" stroke="#003a50" stroke-miterlimit="10"/><path d="M243.07,286.06l2.32,1.6A23.82,23.82,0,0,0,231.74,309l-2.52-1.72c-5-3.44-7.4-10-5-15.64A12.7,12.7,0,0,1,243.07,286.06Z" fill="none" stroke="#003a50" stroke-miterlimit="10"/><path d="M269.92,328.36l.12,2c.36,6.12-3.4,12-9.33,13.48a12.66,12.66,0,0,1-15.88-11.48l-.12-1.84a23.93,23.93,0,0,0,16.64,1.92A23.54,23.54,0,0,0,269.92,328.36Z" fill="none" stroke="#003a50" stroke-miterlimit="10"/><path d="M272.16,292.06a23.77,23.77,0,0,1,6,9.45,16.51,16.51,0,0,1,.6,2,23.86,23.86,0,0,1-8.84,24.85,23.54,23.54,0,0,1-8.57,4A23.87,23.87,0,0,1,232.42,315a22.12,22.12,0,0,1-.68-6,23.82,23.82,0,0,1,13.65-21.33,22.85,22.85,0,0,1,4.48-1.6A23.82,23.82,0,0,1,272.16,292.06Z" fill="none" stroke="#003a50" stroke-miterlimit="10"/><path d="M108.21,306v41H62.43V303.77H106A2.2,2.2,0,0,1,108.21,306Z" fill="none" stroke="#003a50" stroke-miterlimit="10"/><path d="M154.1,305.75V347H108.31V305.75a2,2,0,0,1,2-2h41.82A2,2,0,0,1,154.1,305.75Z" fill="none" stroke="#003a50" stroke-miterlimit="10"/><path d="M62.42,303.77a3.11,3.11,0,0,0-3.33-2.83H54.87a3.11,3.11,0,0,0-3.33,2.83V352H165V304.19a3.11,3.11,0,0,0-3.33-2.83h-4.22a3.12,3.12,0,0,0-3.33,2.83V347H62.42Z" fill="none" stroke="#003a50" stroke-miterlimit="10"/></g><rect x="62.42" y="337.77" width="91.67" height="9.26" fill="none" stroke="#003a50" stroke-miterlimit="10"/><rect x="53.94" y="13.57" width="22.68" height="22.68" fill="none" stroke="#003a50" stroke-miterlimit="10"/><g clip-path="url(#clip-path)"><path d="M71.79,31.41a9.2,9.2,0,1,1,0-13A9.2,9.2,0,0,1,71.79,31.41Z" fill="none" stroke="#003a50" stroke-miterlimit="10"/><path d="M72.41,30.72c-1.69-.17-3.41.49-5.06-1.17-2.44-2.44.14-5-2.3-7.46s-5,.14-7.46-2.3" fill="none" stroke="#003a50" stroke-miterlimit="10"/></g><rect x="191.29" y="13.57" width="22.68" height="22.68" fill="none" stroke="#003a50" stroke-miterlimit="10"/><g clip-path="url(#clip-path)"><path d="M209.14,31.41a9.2,9.2,0,1,1,0-13A9.2,9.2,0,0,1,209.14,31.41Z" fill="none" stroke="#003a50" stroke-miterlimit="10"/><path d="M209.76,30.72c-1.69-.17-3.41.49-5.06-1.17-2.44-2.44.14-5-2.3-7.46s-5,.14-7.46-2.3" fill="none" stroke="#003a50" stroke-miterlimit="10"/></g><rect x="82.96" y="13.57" width="102.08" height="113.43" fill="none" stroke="#003a50" stroke-miterlimit="10"/><g clip-path="url(#clip-path)"><path d="M175,117.25H93a2.09,2.09,0,0,1-2.09-2.08V47.5h86.25v67.67A2.08,2.08,0,0,1,175,117.25Z" fill="none" stroke="#003a50" stroke-miterlimit="10"/><rect x="90.62" y="21" width="42.51" height="22.89" rx="1.98" fill="none" stroke="#003a50" stroke-miterlimit="10"/><rect x="134.86" y="21" width="42.52" height="22.89" rx="1.98" fill="none" stroke="#003a50" stroke-miterlimit="10"/></g><line x1="177.38" y1="61.36" x2="90.62" y2="61.36" fill="none" stroke="#003a50" stroke-miterlimit="10"/><g clip-path="url(#clip-path)"><path d="M403.87,310.48a1,1,0,0,1-.45-1.9,28.8,28.8,0,0,1,25.27,0,1,1,0,0,1-.88,1.8,26.74,26.74,0,0,0-23.5,0A1,1,0,0,1,403.87,310.48Z" fill="none" stroke="#003a50" stroke-miterlimit="10"/><path d="M403.87,304.92a1,1,0,0,1-.45-1.91,28.8,28.8,0,0,1,25.27,0,1,1,0,0,1,.46,1.34,1,1,0,0,1-1.34.46,26.83,26.83,0,0,0-23.5,0A1,1,0,0,1,403.87,304.92Z" fill="none" stroke="#003a50" stroke-miterlimit="10"/><path d="M403.87,299.35a1,1,0,0,1-.45-1.91,28.8,28.8,0,0,1,25.27,0,1,1,0,0,1,.46,1.34,1,1,0,0,1-1.34.46,26.83,26.83,0,0,0-23.5,0A.87.87,0,0,1,403.87,299.35Z" fill="none" stroke="#003a50" stroke-miterlimit="10"/><path d="M403.87,293.78a1,1,0,0,1-.45-1.9,28.8,28.8,0,0,1,25.27,0,1,1,0,0,1-.88,1.8,26.74,26.74,0,0,0-23.5,0A1,1,0,0,1,403.87,293.78Z" fill="none" stroke="#003a50" stroke-miterlimit="10"/><path d="M403.87,288.21a1,1,0,0,1-.45-1.9,28.8,28.8,0,0,1,25.27,0,1,1,0,1,1-.88,1.8,26.74,26.74,0,0,0-23.5,0A1,1,0,0,1,403.87,288.21Z" fill="none" stroke="#003a50" stroke-miterlimit="10"/><path d="M403.87,282.65a1,1,0,0,1-.45-1.91,28.8,28.8,0,0,1,25.27,0,1,1,0,0,1,.46,1.34,1,1,0,0,1-1.34.46,26.83,26.83,0,0,0-23.5,0A1,1,0,0,1,403.87,282.65Z" fill="none" stroke="#003a50" stroke-miterlimit="10"/><path d="M403.87,316.05a1,1,0,0,1-.45-1.9,28.8,28.8,0,0,1,25.27,0,1,1,0,0,1-.88,1.8,26.74,26.74,0,0,0-23.5,0A1,1,0,0,1,403.87,316.05Z" fill="none" stroke="#003a50" stroke-miterlimit="10"/><path d="M403.87,321.62a1,1,0,0,1-.45-1.91,28.8,28.8,0,0,1,25.27,0,1,1,0,0,1,.46,1.34,1,1,0,0,1-1.34.46,26.83,26.83,0,0,0-23.5,0A.87.87,0,0,1,403.87,321.62Z" fill="none" stroke="#003a50" stroke-miterlimit="10"/></g><line x1="416.06" y1="327.61" x2="416.06" y2="257.25" fill="none" stroke="#003a50" stroke-miterlimit="10"/><g clip-path="url(#clip-path)"><path d="M237.18,43.59A14.78,14.78,0,0,0,221.25,67,1.14,1.14,0,0,0,223,65.55,12.47,12.47,0,0,1,237.18,46Z" fill="none" stroke="#003a50" stroke-miterlimit="10"/><rect x="237.18" y="13.8" width="34.03" height="84.06" rx="3.31" fill="none" stroke="#003a50" stroke-miterlimit="10"/><path d="M267.5,16.35a1.4,1.4,0,0,0-1.4,1.4V93.92a1.4,1.4,0,0,0,2.79,0V17.75a1.39,1.39,0,0,0-1.39-1.4" fill="none" stroke="#003a50" stroke-miterlimit="10"/><path d="M252.91,84.18a5.52,5.52,0,1,1,0,7.8A5.52,5.52,0,0,1,252.91,84.18Z" fill="none" stroke="#003a50" stroke-miterlimit="10"/><path d="M252.54,84.6c1,.1,2.05-.29,3,.7,1.46,1.46-.09,3,1.38,4.47s3-.09,4.47,1.38" fill="none" stroke="#003a50" stroke-miterlimit="10"/><path d="M237.18,48.3a10.63,10.63,0,1,0,0,19.59Z" fill="none" stroke="#003a50" stroke-miterlimit="10"/></g><rect x="359.05" y="251.81" width="34.03" height="34.03" fill="none" stroke="#003a50" stroke-miterlimit="10"/><line x1="375.34" y1="270.84" x2="375.34" y2="281.4" fill="none" stroke="#003a50" stroke-miterlimit="10"/><g clip-path="url(#clip-path)"><path d="M376.25,270.84h-1.82a3.4,3.4,0,0,1-3.4-3.39V256.24h8.61v11.21A3.39,3.39,0,0,1,376.25,270.84Z" fill="none" stroke="#003a50" stroke-miterlimit="10"/></g><line x1="371.86" y1="281.4" x2="378.81" y2="281.4" fill="none" stroke="#003a50" stroke-miterlimit="10"/><g clip-path="url(#clip-path)"><path d="M295.84,82.67a1,1,0,0,1,.56-.9,1,1,0,0,1,1.35.45,28.8,28.8,0,0,1,0,25.27,1,1,0,0,1-1.34.46,1,1,0,0,1-.46-1.34,26.83,26.83,0,0,0,0-23.5A1,1,0,0,1,295.84,82.67Z" fill="none" stroke="#003a50" stroke-miterlimit="10"/><path d="M301.41,82.67a1,1,0,0,1,.56-.9,1,1,0,0,1,1.35.45,28.8,28.8,0,0,1,0,25.27A1,1,0,0,1,302,108a1,1,0,0,1-.46-1.34,26.83,26.83,0,0,0,0-23.5A.9.9,0,0,1,301.41,82.67Z" fill="none" stroke="#003a50" stroke-miterlimit="10"/><path d="M307,82.67a1,1,0,0,1,1.9-.45,28.8,28.8,0,0,1,0,25.27,1,1,0,0,1-1.8-.88,26.74,26.74,0,0,0,0-23.5A1,1,0,0,1,307,82.67Z" fill="none" stroke="#003a50" stroke-miterlimit="10"/><path d="M312.55,82.67a1,1,0,0,1,.56-.9,1,1,0,0,1,1.34.45,28.8,28.8,0,0,1,0,25.27,1,1,0,0,1-1.8-.88,26.74,26.74,0,0,0,0-23.5A1,1,0,0,1,312.55,82.67Z" fill="none" stroke="#003a50" stroke-miterlimit="10"/><path d="M318.11,82.67a1,1,0,0,1,.56-.9,1,1,0,0,1,1.35.45,28.8,28.8,0,0,1,0,25.27,1,1,0,0,1-1.34.46,1,1,0,0,1-.46-1.34,26.83,26.83,0,0,0,0-23.5A1,1,0,0,1,318.11,82.67Z" fill="none" stroke="#003a50" stroke-miterlimit="10"/><path d="M323.68,82.67a1,1,0,0,1,1.9-.45,28.8,28.8,0,0,1,0,25.27,1,1,0,0,1-1.8-.88,26.74,26.74,0,0,0,0-23.5A1,1,0,0,1,323.68,82.67Z" fill="none" stroke="#003a50" stroke-miterlimit="10"/><path d="M290.28,82.67a1,1,0,0,1,.56-.9,1,1,0,0,1,1.34.45,28.8,28.8,0,0,1,0,25.27,1,1,0,1,1-1.8-.88,26.74,26.74,0,0,0,0-23.5A1,1,0,0,1,290.28,82.67Z" fill="none" stroke="#003a50" stroke-miterlimit="10"/><path d="M284.71,82.67a1,1,0,0,1,1.9-.45,28.8,28.8,0,0,1,0,25.27,1,1,0,1,1-1.8-.88,26.74,26.74,0,0,0,0-23.5A1,1,0,0,1,284.71,82.67Z" fill="none" stroke="#003a50" stroke-miterlimit="10"/></g><line x1="277.99" y1="94.86" x2="337.55" y2="94.86" fill="none" stroke="#003a50" stroke-miterlimit="10"/><rect x="277.99" y="79.83" width="59.56" height="29.22" fill="none" stroke="#003a50" stroke-miterlimit="10"/><g clip-path="url(#clip-path)"><path d="M424.91,181.8v3.07a38.72,38.72,0,0,0,38.72,38.73V181.8" fill="none" stroke="#003a50" stroke-miterlimit="10" stroke-width="1.6"/><path d="M216.23,183.93v-3.58a45.07,45.07,0,0,1,45.07-45.08v48.66" fill="none" stroke="#003a50" stroke-miterlimit="10" stroke-width="1.6"/><path d="M523.51,244.23h4.06a51.14,51.14,0,0,0,51.15-51.14H523.51" fill="none" stroke="#003a50" stroke-miterlimit="10" stroke-width="1.6"/><line x1="498.47" y1="247.19" x2="443.96" y2="247.19" fill="none" stroke="#003a50" stroke-miterlimit="10" stroke-width="1.6"/><rect x="24.83" y="-73.17" width="26.18" height="94.61" fill="#003a50"/><rect x="24.83" y="291.57" width="26.18" height="97.22" fill="#003a50"/><rect x="2.66" y="291.57" width="44.35" height="25.92" fill="#003a50"/><rect x="24.83" y="104.4" width="26.18" height="97.22" fill="#003a50"/><rect x="2.66" y="104.4" width="44.35" height="25.92" fill="#003a50"/><rect x="36.84" y="352.22" width="491.51" height="13.79" fill="#003a50"/><rect x="36.84" y="0.1" width="249.59" height="13.79" fill="#003a50"/><rect x="276.59" y="66.45" width="249.59" height="13.79" fill="#003a50"/><rect x="512.18" y="67.31" width="16.82" height="126.55" fill="#003a50"/><rect x="512.18" y="243.19" width="16.82" height="17.72" fill="#003a50"/><rect x="475.21" y="251.19" width="53.79" height="11.85" fill="#003a50"/><rect x="475.21" y="257.11" width="10.5" height="98.49" fill="#003a50"/><rect x="492.67" y="-32.94" width="11.67" height="106.29" fill="#003a50"/><rect x="272.64" y="0.09" width="13.79" height="80.15" fill="#003a50"/></g><rect x="306.5" y="66.52" width="6.38" height="4.59" fill="#003a50"/><rect x="429.3" y="66.52" width="6.38" height="4.59" fill="#003a50"/><polygon points="281.5 0.14 281.5 71.11 287.87 71.11 287.87 66.52 287.77 66.52 287.77 0.14 281.5 0.14" fill="#003a50"/><rect x="522.62" y="256.35" width="6.38" height="109.18" fill="#003a50"/><rect x="392.59" y="252.04" width="6.38" height="106.74" fill="#003a50"/><rect x="522.62" y="66.52" width="6.38" height="3.82" fill="#003a50"/><rect x="372.2" y="179.05" width="53.54" height="6.38" fill="#003a50"/><rect x="371.6" y="76.07" width="6.38" height="108.43" fill="#003a50"/><rect x="271.61" y="6.99" width="6.38" height="102.07" fill="#003a50"/><rect x="462.8" y="179.05" width="63.45" height="6.38" fill="#003a50"/><rect x="392.59" y="251.07" width="41.32" height="6.38" fill="#003a50"/><rect x="394.93" y="327.79" width="40.37" height="6.38" fill="#003a50"/><rect x="428.92" y="327.79" width="6.38" height="25.81" fill="#003a50"/><rect x="470.97" y="251.07" width="55.28" height="6.38" fill="#003a50"/><rect x="489.03" y="157.25" width="29.84" height="6.38" fill="#003a50"/><rect x="486.91" y="77.32" width="6.38" height="104.92" fill="#003a50"/><rect x="41.24" y="180.3" width="175.82" height="6.38" fill="#003a50"/><rect x="260.54" y="180.3" width="17.44" height="6.38" fill="#003a50"/><rect x="271.61" y="146.71" width="6.38" height="39.97" fill="#003a50"/><rect x="275.2" y="146.71" width="100.58" height="7.69" fill="#003a50"/><line x1="393.09" y1="265.32" x2="393.09" y2="262.48" fill="none" stroke="#003a50" stroke-miterlimit="10"/><line x1="393.09" y1="256.72" x2="393.09" y2="190.37" fill="none" stroke="#003a50" stroke-miterlimit="10" stroke-dasharray="5.77 5.77"/><line x1="393.09" y1="187.48" x2="393.09" y2="184.65" fill="none" stroke="#003a50" stroke-miterlimit="10"/><g clip-path="url(#clip-path)"><path d="M464.68,10.53l-2.49,2V10.24L464.93,8h1.86V19.89h-2.11Z" fill="#003a50"/><path d="M469.32,19.76a1.15,1.15,0,0,1,0-1.61,1.4,1.4,0,0,1,1.73,0,1.15,1.15,0,0,1,0,1.61,1.4,1.4,0,0,1-1.73,0Z" fill="#003a50"/><path d="M481.91,19.13a7.73,7.73,0,0,1-7.37,0,2.94,2.94,0,0,1-1.37-2.56,2.7,2.7,0,0,1,.25-1.17,2.29,2.29,0,0,1,.66-.85,3.89,3.89,0,0,1,1.4-.77l.25-.07v-.09a3.51,3.51,0,0,1-.76-.29,3.24,3.24,0,0,1-.67-.44,2.35,2.35,0,0,1-.54-.76,2.41,2.41,0,0,1-.22-1,2.83,2.83,0,0,1,1.25-2.39,7.05,7.05,0,0,1,6.86,0,2.84,2.84,0,0,1,1.25,2.39,2.43,2.43,0,0,1-.22,1,2,2,0,0,1-.55.75,3.72,3.72,0,0,1-1.2.68l-.23,0v.09a1.79,1.79,0,0,1,.29.07,4,4,0,0,1,.62.26,4.28,4.28,0,0,1,.77.51,2.83,2.83,0,0,1,.62.82,2.71,2.71,0,0,1,.27,1.2A3,3,0,0,1,481.91,19.13Zm-5.79-1.36a3.79,3.79,0,0,0,2.1.48,3.85,3.85,0,0,0,2.1-.47,1.6,1.6,0,0,0,0-2.7,4.93,4.93,0,0,0-4.2,0,1.51,1.51,0,0,0-.74,1.35A1.48,1.48,0,0,0,476.12,17.77Zm-.37-6.52a1.36,1.36,0,0,0,.64,1.19,3.25,3.25,0,0,0,1.83.44,3.22,3.22,0,0,0,1.82-.44,1.42,1.42,0,0,0,0-2.39,3.94,3.94,0,0,0-3.62,0A1.36,1.36,0,0,0,475.75,11.25Z" fill="#003a50"/><path d="M361.07,9.82h-5.83V8h8.87V9.82l-4.53,2.65v.07h1.28a3.87,3.87,0,0,1,2.8,1,3.52,3.52,0,0,1,1,2.67A3.32,3.32,0,0,1,363.38,19a7,7,0,0,1-7.25,0,3.39,3.39,0,0,1-1.33-2.86v-.32h2.12v.32c0,1.37.94,2.05,2.84,2s2.84-.67,2.84-2-1-2-2.84-2h-3.27V12.57l4.58-2.69Z" fill="#003a50"/><path d="M366.82,19.76a1.15,1.15,0,0,1,0-1.61,1.4,1.4,0,0,1,1.73,0,1.15,1.15,0,0,1,0,1.61,1.4,1.4,0,0,1-1.73,0Z" fill="#003a50"/><path d="M379.41,19.13a7.73,7.73,0,0,1-7.37,0,3,3,0,0,1-1.38-2.56,2.71,2.71,0,0,1,.26-1.17,2.29,2.29,0,0,1,.66-.85,3.94,3.94,0,0,1,1.39-.77l.26-.07v-.09a3.32,3.32,0,0,1-.76-.29,3,3,0,0,1-.67-.44,2.35,2.35,0,0,1-.54-.76,2.41,2.41,0,0,1-.22-1,2.83,2.83,0,0,1,1.25-2.39,7.05,7.05,0,0,1,6.86,0,2.84,2.84,0,0,1,1.25,2.39,2.58,2.58,0,0,1-.22,1,1.92,1.92,0,0,1-.56.75,3.59,3.59,0,0,1-1.19.68l-.23,0v.09a1.79,1.79,0,0,1,.29.07,4,4,0,0,1,.62.26,4.28,4.28,0,0,1,.77.51,2.83,2.83,0,0,1,.62.82,2.71,2.71,0,0,1,.27,1.2A3,3,0,0,1,379.41,19.13Zm-5.79-1.36a3.79,3.79,0,0,0,2.1.48,3.85,3.85,0,0,0,2.1-.47,1.6,1.6,0,0,0,0-2.7,4.93,4.93,0,0,0-4.2,0,1.51,1.51,0,0,0-.74,1.35A1.48,1.48,0,0,0,373.62,17.77Zm-.37-6.52a1.36,1.36,0,0,0,.64,1.19,4,4,0,0,0,3.65,0,1.42,1.42,0,0,0,0-2.39,3.94,3.94,0,0,0-3.62,0A1.36,1.36,0,0,0,373.25,11.25Z" fill="#003a50"/><path d="M154.18,139.54l-2.49,2v-2.24l2.74-2.27h1.86V148.9h-2.11Z" fill="#003a50"/><path d="M160.81,139.54l-2.48,2v-2.24l2.73-2.27h1.86V148.9h-2.11Z" fill="#003a50"/><path d="M165.45,148.77a1,1,0,0,1-.33-.81,1,1,0,0,1,.33-.81,1.41,1.41,0,0,1,1.74,0,1.07,1.07,0,0,1,.32.81,1,1,0,0,1-.32.81,1.41,1.41,0,0,1-1.74,0Z" fill="#003a50"/><path d="M178,148.13a6.35,6.35,0,0,1-3.68.94,6.5,6.5,0,0,1-3.69-.94,2.94,2.94,0,0,1-1.37-2.56,2.57,2.57,0,0,1,.26-1.17,2.37,2.37,0,0,1,.65-.85,3.94,3.94,0,0,1,1.4-.78l.26-.06v-.09a3,3,0,0,1-.77-.3,2.61,2.61,0,0,1-.66-.44,2.2,2.2,0,0,1-.54-.75,2.42,2.42,0,0,1-.23-1,2.82,2.82,0,0,1,1.26-2.39,7,7,0,0,1,6.85,0A2.82,2.82,0,0,1,179,140.1a2.43,2.43,0,0,1-.22,1,2,2,0,0,1-.55.74,3.77,3.77,0,0,1-1.2.69l-.22.05v.09a1.39,1.39,0,0,1,.28.06,5.42,5.42,0,0,1,.62.27,3.76,3.76,0,0,1,.78.51,2.69,2.69,0,0,1,.61.82,2.65,2.65,0,0,1,.28,1.2A3,3,0,0,1,178,148.13Zm-5.79-1.35a3.84,3.84,0,0,0,2.1.48,4,4,0,0,0,2.11-.47,1.52,1.52,0,0,0,.73-1.35,1.5,1.5,0,0,0-.73-1.35,4,4,0,0,0-2.11-.47,3.94,3.94,0,0,0-2.1.47,1.59,1.59,0,0,0,0,2.69Zm-.37-6.53a1.38,1.38,0,0,0,.65,1.2,3.22,3.22,0,0,0,1.82.43,3.26,3.26,0,0,0,1.83-.43,1.43,1.43,0,0,0,0-2.4,4,4,0,0,0-3.62,0A1.36,1.36,0,0,0,171.88,140.25Z" fill="#003a50"/><path d="M436.37,162.73h-5.83v-1.85h8.87v1.85l-4.53,2.65v.06h1.28a3.87,3.87,0,0,1,2.79,1,3.5,3.5,0,0,1,1.06,2.67,3.32,3.32,0,0,1-1.33,2.82,7,7,0,0,1-7.25,0,3.36,3.36,0,0,1-1.33-2.86v-.32h2.11v.32c0,1.37,1,2,2.84,2s2.85-.67,2.85-2-.95-2-2.85-2h-3.26v-1.67l4.58-2.69Z" fill="#003a50"/><path d="M442.11,172.67a1.17,1.17,0,0,1,0-1.61,1.25,1.25,0,0,1,.88-.3,1.22,1.22,0,0,1,.86.3,1.17,1.17,0,0,1,0,1.61,1.22,1.22,0,0,1-.86.3A1.25,1.25,0,0,1,442.11,172.67Z" fill="#003a50"/><path d="M454.71,172a7.75,7.75,0,0,1-7.38,0,3,3,0,0,1-1.37-2.56,2.71,2.71,0,0,1,.26-1.17,2.29,2.29,0,0,1,.66-.85,3.91,3.91,0,0,1,1.39-.78l.26-.06v-.09a3.57,3.57,0,0,1-.77-.29,2.91,2.91,0,0,1-.66-.44,2.35,2.35,0,0,1-.54-.76,2.42,2.42,0,0,1-.23-1,2.82,2.82,0,0,1,1.26-2.39,5.74,5.74,0,0,1,3.42-.9,5.83,5.83,0,0,1,3.44.9A2.84,2.84,0,0,1,455.7,164a2.43,2.43,0,0,1-.23,1,1.9,1.9,0,0,1-.55.75,3.53,3.53,0,0,1-1.2.68l-.22.05v.09l.28.06a6.14,6.14,0,0,1,.63.27,4.67,4.67,0,0,1,.77.51,2.65,2.65,0,0,1,.61.82,2.58,2.58,0,0,1,.28,1.2A3,3,0,0,1,454.71,172Zm-5.8-1.36a3.84,3.84,0,0,0,2.1.48,3.91,3.91,0,0,0,2.11-.47,1.6,1.6,0,0,0,0-2.7,4.95,4.95,0,0,0-4.21,0,1.53,1.53,0,0,0-.74,1.35A1.5,1.5,0,0,0,448.91,170.68Zm-.36-6.52a1.36,1.36,0,0,0,.64,1.19,4,4,0,0,0,3.65,0,1.36,1.36,0,0,0,.64-1.19,1.38,1.38,0,0,0-.65-1.2,4,4,0,0,0-3.63,0A1.35,1.35,0,0,0,448.55,164.16Z" fill="#003a50"/><path d="M482,233.05h-9.94v-1.56a2.85,2.85,0,0,1,.58-1.75,4.12,4.12,0,0,1,1.45-1.2c.5-.25,1.12-.54,1.87-.86s1.32-.56,1.88-.77a4.39,4.39,0,0,0,1.45-.92,1.8,1.8,0,0,0,.57-1.3q0-1.89-2.67-1.89c-1.78,0-2.68.72-2.68,2.16v.41h-2.11V225a3.61,3.61,0,0,1,1.27-3,5.42,5.42,0,0,1,3.51-1,5.73,5.73,0,0,1,3.52,1,3.29,3.29,0,0,1,1.27,2.76,3.14,3.14,0,0,1-.56,1.83,4.18,4.18,0,0,1-1.4,1.31c-.6.34-1.21.65-1.84.93s-1.23.53-1.83.75a5.26,5.26,0,0,0-1.4.75,1.22,1.22,0,0,0-.57,1H482Z" fill="#003a50"/><path d="M484.13,232.92a1,1,0,0,1-.33-.81,1,1,0,0,1,.33-.81,1.4,1.4,0,0,1,1.73,0,1,1,0,0,1,.33.81,1,1,0,0,1-.33.81,1.44,1.44,0,0,1-1.73,0Z" fill="#003a50"/><path d="M497.76,224.49h-2.21s0-.07,0-.18a2.53,2.53,0,0,0-.22-.44,2.28,2.28,0,0,0-.38-.5,2.08,2.08,0,0,0-.71-.41,3,3,0,0,0-1-.16,2.52,2.52,0,0,0-2.16,1,4.42,4.42,0,0,0-.76,2.69h.06a1.64,1.64,0,0,1,.44-.44,4.24,4.24,0,0,1,.61-.36,4.06,4.06,0,0,1,.95-.31,6.06,6.06,0,0,1,1.21-.12,5.06,5.06,0,0,1,3.38,1.11,3.51,3.51,0,0,1,1.3,2.8,3.57,3.57,0,0,1-1.36,2.91,5.5,5.5,0,0,1-3.61,1.1,4.81,4.81,0,0,1-3.87-1.54,6.38,6.38,0,0,1-1.32-4.27V227a6.88,6.88,0,0,1,1.32-4.32,4.52,4.52,0,0,1,3.81-1.71,5.7,5.7,0,0,1,2.13.38,3.75,3.75,0,0,1,1.43.94A3.44,3.44,0,0,1,497.76,224.49Zm-2.51,3.15a3.67,3.67,0,0,0-4,0,2,2,0,0,0,0,3.15,3.65,3.65,0,0,0,4,0,2,2,0,0,0,0-3.15Z" fill="#003a50"/><path d="M452.11,313.08h-9.94v-1.56a2.85,2.85,0,0,1,.58-1.75,4,4,0,0,1,1.45-1.2c.5-.25,1.12-.54,1.87-.86s1.32-.56,1.88-.77a4.24,4.24,0,0,0,1.44-.92,1.77,1.77,0,0,0,.58-1.3q0-1.89-2.67-1.89c-1.78,0-2.68.72-2.68,2.16v.41h-2.11V305a3.63,3.63,0,0,1,1.27-3,5.4,5.4,0,0,1,3.51-1,5.73,5.73,0,0,1,3.52,1,3.31,3.31,0,0,1,1.27,2.76,3.14,3.14,0,0,1-.56,1.83,4.18,4.18,0,0,1-1.4,1.31c-.6.34-1.21.65-1.84.93s-1.24.53-1.83.75a5.26,5.26,0,0,0-1.4.75,1.22,1.22,0,0,0-.57.95h7.63Z" fill="#003a50"/><path d="M454.22,313a1,1,0,0,1-.33-.81,1,1,0,0,1,.33-.81,1.4,1.4,0,0,1,1.73,0,1,1,0,0,1,.33.81,1,1,0,0,1-.33.81,1.4,1.4,0,0,1-1.73,0Z" fill="#003a50"/><path d="M468,313.08h-9.95v-1.56a2.8,2.8,0,0,1,.59-1.75,4,4,0,0,1,1.44-1.2c.5-.25,1.12-.54,1.87-.86s1.33-.56,1.88-.77a4.39,4.39,0,0,0,1.45-.92,1.8,1.8,0,0,0,.57-1.3q0-1.89-2.67-1.89T460.52,305v.41h-2.11V305a3.65,3.65,0,0,1,1.26-3,5.44,5.44,0,0,1,3.51-1,5.73,5.73,0,0,1,3.52,1,3.31,3.31,0,0,1,1.27,2.76,3.14,3.14,0,0,1-.55,1.83,4.31,4.31,0,0,1-1.41,1.31c-.6.34-1.21.65-1.84.93s-1.23.53-1.82.75a5.18,5.18,0,0,0-1.41.75,1.2,1.2,0,0,0-.56.95H468Z" fill="#003a50"/><path d="M228,233.05h-9.95v-1.56a2.8,2.8,0,0,1,.59-1.75,4,4,0,0,1,1.44-1.2c.5-.25,1.12-.54,1.87-.86s1.33-.56,1.88-.77a4.39,4.39,0,0,0,1.45-.92,1.8,1.8,0,0,0,.57-1.3q0-1.89-2.67-1.89T220.54,225v.41h-2.12V225a3.64,3.64,0,0,1,1.27-3,5.42,5.42,0,0,1,3.51-1,5.73,5.73,0,0,1,3.52,1,3.29,3.29,0,0,1,1.27,2.76,3.14,3.14,0,0,1-.55,1.83,4.31,4.31,0,0,1-1.41,1.31c-.6.34-1.21.65-1.84.93s-1.23.53-1.83.75a5.26,5.26,0,0,0-1.4.75,1.2,1.2,0,0,0-.56,1H228Z" fill="#003a50"/><path d="M231.62,231.51a7.38,7.38,0,0,1,0-8.84,5.7,5.7,0,0,1,8.14,0,7.34,7.34,0,0,1,0,8.84,5.72,5.72,0,0,1-8.14,0Zm6.54-1.39a5.73,5.73,0,0,0,0-6.07,3.15,3.15,0,0,0-4.92,0,5.67,5.67,0,0,0,0,6.07,3.14,3.14,0,0,0,4.92,0Z" fill="#003a50"/><path d="M243.44,232.92a1,1,0,0,1-.33-.81,1,1,0,0,1,.33-.81,1.4,1.4,0,0,1,1.73,0,1,1,0,0,1,.33.81,1,1,0,0,1-.33.81,1.44,1.44,0,0,1-1.73,0Z" fill="#003a50"/><path d="M257.23,233.05h-9.94v-1.56a2.79,2.79,0,0,1,.58-1.75,4,4,0,0,1,1.44-1.2c.5-.25,1.13-.54,1.87-.86s1.33-.56,1.88-.77a4.29,4.29,0,0,0,1.45-.92,1.8,1.8,0,0,0,.57-1.3q0-1.89-2.67-1.89T249.74,225v.41h-2.11V225a3.64,3.64,0,0,1,1.26-3,5.45,5.45,0,0,1,3.52-1,5.72,5.72,0,0,1,3.51,1,3.29,3.29,0,0,1,1.27,2.76,3.14,3.14,0,0,1-.55,1.83,4.31,4.31,0,0,1-1.41,1.31q-.9.51-1.83.93t-1.83.75a5.18,5.18,0,0,0-1.41.75,1.2,1.2,0,0,0-.56,1h7.63Z" fill="#003a50"/><path d="M297.55,129h-9.94v-1.57a2.74,2.74,0,0,1,.58-1.74,4,4,0,0,1,1.45-1.2c.5-.26,1.12-.54,1.87-.86s1.32-.56,1.88-.78a4.07,4.07,0,0,0,1.44-.91,1.82,1.82,0,0,0,.58-1.31c0-1.25-.89-1.88-2.67-1.88s-2.68.72-2.68,2.16v.4H288v-.4a3.62,3.62,0,0,1,1.26-3,5.39,5.39,0,0,1,3.52-1,5.66,5.66,0,0,1,3.52,1,3.31,3.31,0,0,1,1.27,2.75,3.17,3.17,0,0,1-.56,1.84,4.16,4.16,0,0,1-1.4,1.3,18.74,18.74,0,0,1-1.84.94c-.63.27-1.24.52-1.83.74a5.26,5.26,0,0,0-1.4.75,1.23,1.23,0,0,0-.57,1h7.63Z" fill="#003a50"/><path d="M299.65,128.88a1,1,0,0,1-.32-.8,1.07,1.07,0,0,1,.32-.81,1.25,1.25,0,0,1,.88-.3,1.2,1.2,0,0,1,.86.3,1,1,0,0,1,.33.81,1,1,0,0,1-.33.8,1.2,1.2,0,0,1-.86.3A1.25,1.25,0,0,1,299.65,128.88Z" fill="#003a50"/><path d="M305.56,119.66l-2.48,2v-2.25l2.73-2.26h1.87V129h-2.12Z" fill="#003a50"/></g></svg>