<svg id="Слой_1" data-name="Слой 1" xmlns="http://www.w3.org/2000/svg" xmlns:xlink="http://www.w3.org/1999/xlink" viewBox="0 0 586.77 547.09"><defs><clipPath id="clip-path"><polygon points="0.85 0 0.85 480.9 273.13 480.9 273.13 547.09 586.77 547.09 586.77 22.2 571.01 22.2 571.01 0 0.85 0" fill="none"/></clipPath></defs><rect x="581.28" y="49.91" width="5.49" height="318.23" fill="#fff"/><polygon points="50.3 48.92 50.3 469.35 279.26 471.33 282.76 538.27 527.07 536.09 523.88 430.24 523.88 382.93 523.47 367.58 572.42 367.58 572.42 48.92 50.3 48.92" fill="#fff"/><polygon points="50.3 468.05 50.3 480.9 273.13 480.9 273.13 547.09 518.18 547.09 518.35 543.05 287.64 534.97 287.64 468.05 50.3 468.05" fill="#fff"/><g clip-path="url(#clip-path)"><rect x="28.05" y="25.42" width="1115.44" height="2194.74" fill="none" stroke="#003a50" stroke-miterlimit="10"/><polygon points="52.87 1111.14 52.87 2197.2 1119.34 2197.2 1119.34 49.34 52.87 49.18 52.87 1042.34 52.87 1111.14" fill="none" stroke="#003a50" stroke-miterlimit="10"/></g><rect x="419.49" y="35.4" width="90.8" height="4.55" fill="#fff"/><rect x="419.49" y="35.4" width="90.8" height="4.55" fill="none" stroke="#003a50" stroke-miterlimit="10"/><line x1="510.28" y1="37.68" x2="419.48" y2="37.68" fill="none" stroke="#003a50" stroke-miterlimit="10"/><rect x="505.7" y="35.4" width="4.58" height="4.55" fill="#fff"/><rect x="505.7" y="35.4" width="4.58" height="4.55" fill="none" stroke="#003a50" stroke-miterlimit="10"/><rect x="419.49" y="35.4" width="4.58" height="4.55" fill="#fff"/><rect x="419.49" y="35.4" width="4.58" height="4.55" fill="none" stroke="#003a50" stroke-miterlimit="10"/><rect x="462.59" y="35.4" width="4.58" height="4.55" fill="#fff"/><rect x="462.59" y="35.4" width="4.58" height="4.55" fill="none" stroke="#003a50" stroke-miterlimit="10"/><rect x="299.86" y="35.4" width="84.64" height="4.55" fill="#fff"/><rect x="299.85" y="35.4" width="84.64" height="4.55" fill="none" stroke="#003a50" stroke-miterlimit="10"/><line x1="384.49" y1="37.68" x2="299.85" y2="37.68" fill="none" stroke="#003a50" stroke-miterlimit="10"/><rect x="380.22" y="35.4" width="4.27" height="4.55" fill="#fff"/><rect x="380.22" y="35.4" width="4.27" height="4.55" fill="none" stroke="#003a50" stroke-miterlimit="10"/><rect x="299.86" y="35.4" width="4.27" height="4.55" fill="#fff"/><rect x="299.86" y="35.4" width="4.27" height="4.55" fill="none" stroke="#003a50" stroke-miterlimit="10"/><rect x="340.04" y="35.4" width="4.27" height="4.55" fill="#fff"/><rect x="340.04" y="35.4" width="4.27" height="4.55" fill="none" stroke="#003a50" stroke-miterlimit="10"/><rect x="37.77" y="302.13" width="4.55" height="91.3" fill="#fff"/><rect x="37.77" y="302.13" width="4.55" height="91.3" fill="none" stroke="#003a50" stroke-miterlimit="10"/><line x1="40.05" y1="302.13" x2="40.05" y2="393.43" fill="none" stroke="#003a50" stroke-miterlimit="10"/><rect x="37.77" y="302.13" width="4.55" height="4.61" fill="#fff"/><rect x="37.77" y="302.13" width="4.55" height="4.61" fill="none" stroke="#003a50" stroke-miterlimit="10"/><rect x="37.77" y="388.83" width="4.55" height="4.61" fill="#fff"/><rect x="37.77" y="388.83" width="4.55" height="4.61" fill="none" stroke="#003a50" stroke-miterlimit="10"/><rect x="37.77" y="345.48" width="4.55" height="4.61" fill="#fff"/><rect x="37.77" y="345.48" width="4.55" height="4.61" fill="none" stroke="#003a50" stroke-miterlimit="10"/><rect x="37.77" y="35.35" width="4.55" height="171.86" fill="#fff"/><rect x="37.77" y="35.35" width="4.55" height="171.86" fill="none" stroke="#003a50" stroke-miterlimit="10"/><line x1="40.05" y1="207.22" x2="40.05" y2="35.35" fill="none" stroke="#003a50" stroke-miterlimit="10"/><rect x="37.77" y="160.13" width="4.55" height="5.5" fill="#fff"/><rect x="37.77" y="160.13" width="4.55" height="5.5" fill="none" stroke="#003a50" stroke-miterlimit="10"/><rect x="37.77" y="118.53" width="4.55" height="5.5" fill="#fff"/><rect x="37.77" y="118.53" width="4.55" height="5.5" fill="none" stroke="#003a50" stroke-miterlimit="10"/><rect x="37.77" y="201.72" width="4.55" height="5.49" fill="#fff"/><rect x="37.77" y="201.72" width="4.55" height="5.49" fill="none" stroke="#003a50" stroke-miterlimit="10"/><rect x="37.77" y="35.35" width="4.55" height="5.49" fill="#fff"/><rect x="37.77" y="35.35" width="4.55" height="5.49" fill="none" stroke="#003a50" stroke-miterlimit="10"/><rect x="37.77" y="76.95" width="4.55" height="5.49" fill="#fff"/><rect x="37.77" y="76.95" width="4.55" height="5.49" fill="none" stroke="#003a50" stroke-miterlimit="10"/><rect x="37.85" y="35.4" width="165.69" height="4.55" fill="#fff"/><rect x="37.85" y="35.4" width="165.69" height="4.55" fill="none" stroke="#003a50" stroke-miterlimit="10"/><line x1="203.55" y1="37.68" x2="37.85" y2="37.68" fill="none" stroke="#003a50" stroke-miterlimit="10"/><rect x="158.15" y="35.4" width="5.3" height="4.55" fill="#fff"/><rect x="158.15" y="35.4" width="5.3" height="4.55" fill="none" stroke="#003a50" stroke-miterlimit="10"/><rect x="118.05" y="35.4" width="5.3" height="4.55" fill="#fff"/><rect x="118.05" y="35.4" width="5.3" height="4.55" fill="none" stroke="#003a50" stroke-miterlimit="10"/><rect x="198.25" y="35.4" width="5.3" height="4.55" fill="#fff"/><rect x="198.25" y="35.4" width="5.3" height="4.55" fill="none" stroke="#003a50" stroke-miterlimit="10"/><rect x="37.85" y="35.4" width="5.3" height="4.55" fill="#fff"/><rect x="37.85" y="35.4" width="5.3" height="4.55" fill="none" stroke="#003a50" stroke-miterlimit="10"/><rect x="77.96" y="35.4" width="5.3" height="4.55" fill="#fff"/><rect x="77.95" y="35.4" width="5.3" height="4.55" fill="none" stroke="#003a50" stroke-miterlimit="10"/><g clip-path="url(#clip-path)"><path d="M86.55,317.79a1.26,1.26,0,0,1-1.21,1.31,13.79,13.79,0,0,0,1.07,27.56,1.26,1.26,0,1,1,.1,2.51,16.3,16.3,0,1,1-1.27-32.58A1.25,1.25,0,0,1,86.55,317.79Z" fill="none" stroke="#003a50" stroke-miterlimit="10"/><path d="M93.5,355.37a1.25,1.25,0,0,1,.87,1.55,13.79,13.79,0,1,0,26.54,7.5,1.26,1.26,0,0,1,2.42.68A16.3,16.3,0,1,1,92,356.23,1.25,1.25,0,0,1,93.5,355.37Z" fill="none" stroke="#003a50" stroke-miterlimit="10"/><path d="M131.29,359.73a1.25,1.25,0,0,1,1.74-.35,13.79,13.79,0,0,0,15.34-22.92,1.26,1.26,0,1,1,1.4-2.09,16.31,16.31,0,0,1-18.14,27.1A1.24,1.24,0,0,1,131.29,359.73Z" fill="none" stroke="#003a50" stroke-miterlimit="10"/><path d="M148.47,325.15a1.27,1.27,0,0,1,.21-1.77,13.79,13.79,0,0,0-17.06-21.67,1.26,1.26,0,1,1-1.56-2,16.3,16.3,0,1,1,20.18,25.61A1.26,1.26,0,0,1,148.47,325.15Z" fill="none" stroke="#003a50" stroke-miterlimit="10"/><path d="M119.64,301.08a1.26,1.26,0,0,1-.86-1.56,13.79,13.79,0,1,0-26.47-7.75,1.26,1.26,0,1,1-2.41-.71,16.31,16.31,0,1,1,31.3,9.17A1.26,1.26,0,0,1,119.64,301.08Z" fill="none" stroke="#003a50" stroke-miterlimit="10"/><path d="M96.39,345.12l-9.37.36a12.65,12.65,0,0,1-1-25.29l9-.32a23.71,23.71,0,0,0,1.28,25.25Z" fill="none" stroke="#003a50" stroke-miterlimit="10"/><path d="M122.56,354.37,120,363.45a12.66,12.66,0,0,1-24.37-6.84l2.6-9.21a23.59,23.59,0,0,0,24.33,7Z" fill="none" stroke="#003a50" stroke-miterlimit="10"/><path d="M150.65,354.57a12.68,12.68,0,0,1-17.53,3.52l-7.28-4.88A23.89,23.89,0,0,0,139,338a24.8,24.8,0,0,0,.84-5.84l7.37,4.92A12.64,12.64,0,0,1,150.65,354.57Z" fill="none" stroke="#003a50" stroke-miterlimit="10"/><path d="M147.45,322.91,139.72,329a23.88,23.88,0,0,0-15.56-20l7.64-6a12.65,12.65,0,1,1,15.65,19.88Z" fill="none" stroke="#003a50" stroke-miterlimit="10"/><path d="M117.52,299.83l-2.28,7.76a23.63,23.63,0,0,0-9.09,2.12l-15.28-4.48a1.21,1.21,0,0,1-.85-1.52l3.09-10.65a12.87,12.87,0,0,1,13.2-9.4A12.67,12.67,0,0,1,117.52,299.83Z" fill="none" stroke="#003a50" stroke-miterlimit="10"/><path d="M139.8,332.12A24.8,24.8,0,0,1,139,338a23.89,23.89,0,0,1-13.12,15.25,24.6,24.6,0,0,1-3.28,1.16,23.59,23.59,0,0,1-24.33-7,25.46,25.46,0,0,1-1.84-2.28,23.71,23.71,0,0,1-1.28-25.25,24,24,0,0,1,11-10.16,23.87,23.87,0,0,1,16.33-1.24c.56.16,1.12.36,1.68.56a23.88,23.88,0,0,1,15.56,20A27.09,27.09,0,0,1,139.8,332.12Z" fill="none" stroke="#003a50" stroke-miterlimit="10"/></g><rect x="314.35" y="504.77" width="72.51" height="29.78" fill="none" stroke="#003a50" stroke-miterlimit="10"/><rect x="52.54" y="433.74" width="230.58" height="34.03" fill="none" stroke="#003a50" stroke-miterlimit="10"/><g clip-path="url(#clip-path)"><path d="M508,333.81v28.86H485.19V333.81a11.41,11.41,0,0,1,22.81,0Z" fill="none" stroke="#003a50" stroke-miterlimit="10"/></g><line x1="485.19" y1="351.44" x2="508" y2="351.44" fill="none" stroke="#003a50" stroke-miterlimit="10"/><g clip-path="url(#clip-path)"><path d="M523.89,298.6h23a3.35,3.35,0,0,1,3.36,3.35v22.26a3.36,3.36,0,0,1-3.36,3.36h-23a3.37,3.37,0,0,1-3.36-3.36V302A3.36,3.36,0,0,1,523.89,298.6Z" fill="none" stroke="#003a50" stroke-miterlimit="10"/><path d="M533.12,313.08a2.27,2.27,0,1,1,2.27,2.27A2.27,2.27,0,0,1,533.12,313.08Z" fill="none" stroke="#003a50" stroke-miterlimit="10"/></g><rect x="353.79" y="275.46" width="42.39" height="34.03" fill="none" stroke="#003a50" stroke-miterlimit="10"/><g clip-path="url(#clip-path)"><path d="M370.91,280.28a1,1,0,0,1,1.91-.44,28.8,28.8,0,0,1,0,25.27,1,1,0,0,1-1.34.45,1,1,0,0,1-.46-1.34,26.83,26.83,0,0,0,0-23.5A1,1,0,0,1,370.91,280.28Z" fill="none" stroke="#003a50" stroke-miterlimit="10"/><path d="M376.48,280.28a1,1,0,0,1,.56-.9,1,1,0,0,1,1.34.46,28.8,28.8,0,0,1,0,25.27,1,1,0,0,1-1.8-.89,26.74,26.74,0,0,0,0-23.5A1,1,0,0,1,376.48,280.28Z" fill="none" stroke="#003a50" stroke-miterlimit="10"/><path d="M365.35,280.28a1,1,0,0,1,1.9-.44,28.8,28.8,0,0,1,0,25.27,1,1,0,0,1-1.8-.89,26.74,26.74,0,0,0,0-23.5A1,1,0,0,1,365.35,280.28Z" fill="none" stroke="#003a50" stroke-miterlimit="10"/><path d="M359.78,280.28a1,1,0,0,1,.56-.9,1,1,0,0,1,1.34.46,28.8,28.8,0,0,1,0,25.27,1,1,0,0,1-1.8-.89,26.74,26.74,0,0,0,0-23.5A1,1,0,0,1,359.78,280.28Z" fill="none" stroke="#003a50" stroke-miterlimit="10"/></g><line x1="353.79" y1="292.48" x2="396.18" y2="292.48" fill="none" stroke="#003a50" stroke-miterlimit="10"/><rect x="518.12" y="293.57" width="29.5" height="73.81" fill="none" stroke="#003a50" stroke-miterlimit="10"/><rect x="453.67" y="251.91" width="93.1" height="41.66" fill="none" stroke="#003a50" stroke-miterlimit="10"/><g clip-path="url(#clip-path)"><path d="M527.57,288.41H472.88a15.39,15.39,0,0,1-15.12-15.65v0a15.39,15.39,0,0,1,15.12-15.65h54.69a15.39,15.39,0,0,1,15.11,15.65v0A15.39,15.39,0,0,1,527.57,288.41Z" fill="none" stroke="#003a50" stroke-miterlimit="10"/><path d="M525.71,272.74A2.2,2.2,0,1,1,527.9,275,2.23,2.23,0,0,1,525.71,272.74Z" fill="none" stroke="#003a50" stroke-miterlimit="10"/><path d="M523.89,332.2h23a3.35,3.35,0,0,1,3.36,3.35v22.26a3.35,3.35,0,0,1-3.36,3.36h-23a3.36,3.36,0,0,1-3.36-3.36V335.55A3.36,3.36,0,0,1,523.89,332.2Z" fill="none" stroke="#003a50" stroke-miterlimit="10"/><path d="M533.12,346.68a2.27,2.27,0,1,1,2.27,2.27A2.27,2.27,0,0,1,533.12,346.68Z" fill="none" stroke="#003a50" stroke-miterlimit="10"/></g><rect x="386.9" y="438.43" width="43.35" height="96.1" fill="none" stroke="#003a50" stroke-miterlimit="10"/><g clip-path="url(#clip-path)"><path d="M392.27,514.37V458.59a15.94,15.94,0,0,1,15.94-15.94h.73a15.94,15.94,0,0,1,15.94,15.94v55.78a15.94,15.94,0,0,1-15.94,15.93h-.73A15.94,15.94,0,0,1,392.27,514.37Z" fill="none" stroke="#003a50" stroke-miterlimit="10"/><path d="M408.58,512.78a2.27,2.27,0,1,1-2.28,2.27A2.27,2.27,0,0,1,408.58,512.78Z" fill="none" stroke="#003a50" stroke-miterlimit="10"/><rect x="379.37" y="547" width="41.14" height="98.94" fill="none" stroke="#003a50" stroke-miterlimit="10"/><path d="M343.28,477.89H314.42v-22.8h28.86a11.4,11.4,0,1,1,0,22.8Z" fill="none" stroke="#003a50" stroke-miterlimit="10"/></g><line x1="325.65" y1="455.09" x2="325.65" y2="477.89" fill="none" stroke="#003a50" stroke-miterlimit="10"/><g clip-path="url(#clip-path)"><path d="M383.1,510.52v23a3.36,3.36,0,0,1-3.35,3.36H357.49a3.37,3.37,0,0,1-3.36-3.36v-23a3.36,3.36,0,0,1,3.36-3.35h22.26A3.35,3.35,0,0,1,383.1,510.52Z" fill="none" stroke="#003a50" stroke-miterlimit="10"/><circle cx="368.62" cy="522.02" r="2.27" transform="translate(-217.28 777.2) rotate(-78.31)" fill="none" stroke="#003a50" stroke-miterlimit="10"/><rect x="420.62" y="547.35" width="37.83" height="26.35" fill="none" stroke="#003a50" stroke-miterlimit="10"/><path d="M426.23,568.6V548.22a3,3,0,0,1,3-3h19.71a3,3,0,0,1,3,3V568.6a3,3,0,0,1-3,3H429.2A3,3,0,0,1,426.23,568.6Z" fill="none" stroke="#003a50" stroke-miterlimit="10"/></g><rect x="314.66" y="504.77" width="34.03" height="28.85" fill="none" stroke="#003a50" stroke-miterlimit="10"/><g clip-path="url(#clip-path)"><path d="M337,510.89h-2.12a3.07,3.07,0,0,1-5.72,0h-2.78l-5.29,3,2.53,4,2.38-1.26v10.86h11.37V516.65l2.38,1.26,2.53-4Z" fill="none" stroke="#003a50" stroke-miterlimit="10"/><rect x="458.46" y="547.54" width="30.13" height="25.91" fill="none" stroke="#003a50" stroke-miterlimit="10"/></g><rect x="108.24" y="433.74" width="34.03" height="34.03" fill="none" stroke="#003a50" stroke-miterlimit="10"/><g clip-path="url(#clip-path)"><circle cx="132.97" cy="458.35" r="4.69" fill="none" stroke="#003a50" stroke-miterlimit="10"/><circle cx="117.53" cy="458.35" r="4.69" fill="none" stroke="#003a50" stroke-miterlimit="10"/><circle cx="132.97" cy="443.17" r="4.69" fill="none" stroke="#003a50" stroke-miterlimit="10"/><circle cx="117.53" cy="443.17" r="4.69" fill="none" stroke="#003a50" stroke-miterlimit="10"/></g><rect x="217.89" y="433.74" width="34.03" height="34.03" fill="none" stroke="#003a50" stroke-miterlimit="10"/><line x1="234.9" y1="453.51" x2="234.9" y2="464.08" fill="none" stroke="#003a50" stroke-miterlimit="10"/><g clip-path="url(#clip-path)"><path d="M235.81,453.51H234a3.39,3.39,0,0,1-3.39-3.39V438.91h8.6v11.21A3.39,3.39,0,0,1,235.81,453.51Z" fill="none" stroke="#003a50" stroke-miterlimit="10"/></g><line x1="231.43" y1="464.08" x2="238.38" y2="464.08" fill="none" stroke="#003a50" stroke-miterlimit="10"/><rect x="52.56" y="433.74" width="34.03" height="34.03" fill="none" stroke="#003a50" stroke-miterlimit="10"/><line x1="69.57" y1="460.74" x2="69.57" y2="440.77" fill="none" stroke="#003a50" stroke-miterlimit="10"/><line x1="79.55" y1="450.76" x2="59.59" y2="450.76" fill="none" stroke="#003a50" stroke-miterlimit="10"/><line x1="76.63" y1="457.82" x2="62.51" y2="443.7" fill="none" stroke="#003a50" stroke-miterlimit="10"/><line x1="76.63" y1="443.7" x2="62.51" y2="457.81" fill="none" stroke="#003a50" stroke-miterlimit="10"/><g clip-path="url(#clip-path)"><path d="M191.7,459.4H168.34A3.35,3.35,0,0,1,165,456v-15a3.36,3.36,0,0,1,3.35-3.36H191.7a3.37,3.37,0,0,1,3.36,3.36v15A3.36,3.36,0,0,1,191.7,459.4Z" fill="none" stroke="#003a50" stroke-miterlimit="10"/><circle cx="180.02" cy="452.36" r="2.46" fill="none" stroke="#003a50" stroke-miterlimit="10"/></g><line x1="180.02" y1="451.6" x2="180.02" y2="465.22" fill="none" stroke="#003a50" stroke-miterlimit="10"/><line x1="173.21" y1="465.23" x2="186.83" y2="465.23" fill="none" stroke="#003a50" stroke-miterlimit="10"/><rect x="437.2" y="502.56" width="56.49" height="30.81" fill="none" stroke="#003a50" stroke-miterlimit="10"/><g clip-path="url(#clip-path)"><path d="M452.7,506.92a.9.9,0,0,1,.51-.81.91.91,0,0,1,1.22.41,26.11,26.11,0,0,1,0,22.88.92.92,0,0,1-1.22.42.9.9,0,0,1-.41-1.22,24.24,24.24,0,0,0,0-21.28A.79.79,0,0,1,452.7,506.92Z" fill="none" stroke="#003a50" stroke-miterlimit="10"/><path d="M457.74,506.92a.9.9,0,0,1,.51-.81.91.91,0,0,1,1.22.41,26.11,26.11,0,0,1,0,22.88.91.91,0,1,1-1.63-.8,24.24,24.24,0,0,0,0-21.28A.79.79,0,0,1,457.74,506.92Z" fill="none" stroke="#003a50" stroke-miterlimit="10"/><path d="M462.78,506.92a.9.9,0,0,1,.51-.81.91.91,0,0,1,1.22.41,26.11,26.11,0,0,1,0,22.88.91.91,0,1,1-1.63-.8,24.24,24.24,0,0,0,0-21.28A.79.79,0,0,1,462.78,506.92Z" fill="none" stroke="#003a50" stroke-miterlimit="10"/><path d="M467.83,506.92a.89.89,0,0,1,.5-.81.91.91,0,0,1,1.22.41,26.11,26.11,0,0,1,0,22.88.91.91,0,1,1-1.63-.8,24.24,24.24,0,0,0,0-21.28A.78.78,0,0,1,467.83,506.92Z" fill="none" stroke="#003a50" stroke-miterlimit="10"/><path d="M472.87,506.92a.89.89,0,0,1,.5-.81.91.91,0,0,1,1.22.41,26.11,26.11,0,0,1,0,22.88.91.91,0,1,1-1.63-.8,24.24,24.24,0,0,0,0-21.28A.78.78,0,0,1,472.87,506.92Z" fill="none" stroke="#003a50" stroke-miterlimit="10"/><path d="M477.91,506.92a.89.89,0,0,1,.5-.81.91.91,0,0,1,1.22.41,26.11,26.11,0,0,1,0,22.88.91.91,0,1,1-1.63-.8,24.24,24.24,0,0,0,0-21.28A.78.78,0,0,1,477.91,506.92Z" fill="none" stroke="#003a50" stroke-miterlimit="10"/><path d="M447.66,506.92a.9.9,0,0,1,.51-.81.91.91,0,0,1,1.22.41,26.11,26.11,0,0,1,0,22.88.92.92,0,0,1-1.22.42.9.9,0,0,1-.41-1.22,24.24,24.24,0,0,0,0-21.28A.79.79,0,0,1,447.66,506.92Z" fill="none" stroke="#003a50" stroke-miterlimit="10"/><path d="M442.62,506.92a.91.91,0,0,1,1.72-.4,26,26,0,0,1,0,22.88.9.9,0,1,1-1.62-.8,24.24,24.24,0,0,0,0-21.28A.79.79,0,0,1,442.62,506.92Z" fill="none" stroke="#003a50" stroke-miterlimit="10"/></g><line x1="437.2" y1="517.96" x2="493.69" y2="517.96" fill="none" stroke="#003a50" stroke-miterlimit="10"/><g clip-path="url(#clip-path)"><rect x="55.21" y="480.74" width="22.68" height="22.68" fill="none" stroke="#003a50" stroke-miterlimit="10"/><path d="M73.06,498.58a9.2,9.2,0,1,1,0-13A9.2,9.2,0,0,1,73.06,498.58Z" fill="none" stroke="#003a50" stroke-miterlimit="10"/><path d="M73.68,497.89c-1.69-.17-3.41.49-5.06-1.17-2.44-2.44.14-5-2.3-7.46s-5,.14-7.46-2.3" fill="none" stroke="#003a50" stroke-miterlimit="10"/><rect x="192.56" y="480.74" width="22.68" height="22.68" fill="none" stroke="#003a50" stroke-miterlimit="10"/><path d="M210.41,498.58a9.2,9.2,0,1,1,0-13A9.2,9.2,0,0,1,210.41,498.58Z" fill="none" stroke="#003a50" stroke-miterlimit="10"/><path d="M211,497.89c-1.69-.17-3.41.49-5.06-1.17-2.44-2.44.14-5-2.3-7.46s-5,.14-7.46-2.3" fill="none" stroke="#003a50" stroke-miterlimit="10"/><rect x="84.23" y="480.74" width="102.08" height="113.43" fill="none" stroke="#003a50" stroke-miterlimit="10"/><path d="M176.31,584.42H94.23a2.09,2.09,0,0,1-2.09-2.08V514.67h86.25v67.67A2.08,2.08,0,0,1,176.31,584.42Z" fill="none" stroke="#003a50" stroke-miterlimit="10"/><rect x="91.89" y="488.17" width="42.51" height="22.89" rx="1.98" fill="none" stroke="#003a50" stroke-miterlimit="10"/><rect x="136.13" y="488.17" width="42.52" height="22.89" rx="1.98" fill="none" stroke="#003a50" stroke-miterlimit="10"/></g><rect x="300.02" y="235.24" width="79.4" height="34.03" fill="none" stroke="#003a50" stroke-miterlimit="10"/><rect x="319.76" y="275.6" width="34.03" height="87.13" fill="none" stroke="#003a50" stroke-miterlimit="10"/><g clip-path="url(#clip-path)"><path d="M324.59,345.66a1,1,0,0,1-.45-1.9,28.8,28.8,0,0,1,25.27,0,1,1,0,0,1-.88,1.8,26.74,26.74,0,0,0-23.5,0A1,1,0,0,1,324.59,345.66Z" fill="none" stroke="#003a50" stroke-miterlimit="10"/><path d="M324.59,340.09a1,1,0,0,1-.45-1.9,28.8,28.8,0,0,1,25.27,0,1,1,0,0,1-.88,1.8,26.74,26.74,0,0,0-23.5,0A1,1,0,0,1,324.59,340.09Z" fill="none" stroke="#003a50" stroke-miterlimit="10"/><path d="M324.59,334.52a1,1,0,0,1-.9-.56,1,1,0,0,1,.45-1.34,28.8,28.8,0,0,1,25.27,0,1,1,0,0,1-.88,1.8,26.74,26.74,0,0,0-23.5,0A1,1,0,0,1,324.59,334.52Z" fill="none" stroke="#003a50" stroke-miterlimit="10"/><path d="M324.59,329a1,1,0,0,1-.9-.56,1,1,0,0,1,.45-1.35,28.8,28.8,0,0,1,25.27,0,1,1,0,0,1,.46,1.34,1,1,0,0,1-1.34.46,26.83,26.83,0,0,0-23.5,0A.9.9,0,0,1,324.59,329Z" fill="none" stroke="#003a50" stroke-miterlimit="10"/><path d="M324.59,323.39a1,1,0,0,1-.45-1.9,28.8,28.8,0,0,1,25.27,0,1,1,0,0,1-.88,1.8,26.74,26.74,0,0,0-23.5,0A1,1,0,0,1,324.59,323.39Z" fill="none" stroke="#003a50" stroke-miterlimit="10"/><path d="M324.59,317.82a1,1,0,0,1-.45-1.9,28.8,28.8,0,0,1,25.27,0,1,1,0,0,1-.88,1.8,26.74,26.74,0,0,0-23.5,0A1,1,0,0,1,324.59,317.82Z" fill="none" stroke="#003a50" stroke-miterlimit="10"/><path d="M324.59,351.23a1,1,0,0,1-.9-.56,1,1,0,0,1,.45-1.35,28.8,28.8,0,0,1,25.27,0,1,1,0,0,1,.46,1.34,1,1,0,0,1-1.34.46,26.83,26.83,0,0,0-23.5,0A1,1,0,0,1,324.59,351.23Z" fill="none" stroke="#003a50" stroke-miterlimit="10"/><path d="M324.59,356.79a1,1,0,0,1-.9-.56,1,1,0,0,1,.45-1.34,28.8,28.8,0,0,1,25.27,0,1,1,0,0,1-.88,1.8,26.74,26.74,0,0,0-23.5,0A1,1,0,0,1,324.59,356.79Z" fill="none" stroke="#003a50" stroke-miterlimit="10"/></g><line x1="336.78" y1="362.78" x2="336.78" y2="275.6" fill="none" stroke="#003a50" stroke-miterlimit="10"/><rect x="278.8" y="275.74" width="34.03" height="92.13" fill="none" stroke="#003a50" stroke-miterlimit="10"/><g clip-path="url(#clip-path)"><path d="M283.62,350.8a1,1,0,0,1-.44-1.91,28.8,28.8,0,0,1,25.27,0,1,1,0,0,1,.45,1.34,1,1,0,0,1-1.34.46,26.83,26.83,0,0,0-23.5,0A1,1,0,0,1,283.62,350.8Z" fill="none" stroke="#003a50" stroke-miterlimit="10"/><path d="M283.62,345.23a1,1,0,0,1-.44-1.9,28.8,28.8,0,0,1,25.27,0,1,1,0,0,1-.89,1.8,26.74,26.74,0,0,0-23.5,0A1,1,0,0,1,283.62,345.23Z" fill="none" stroke="#003a50" stroke-miterlimit="10"/><path d="M283.62,339.66a1,1,0,0,1-.44-1.9,28.8,28.8,0,0,1,25.27,0,1,1,0,0,1-.89,1.8,26.74,26.74,0,0,0-23.5,0A1,1,0,0,1,283.62,339.66Z" fill="none" stroke="#003a50" stroke-miterlimit="10"/><path d="M283.62,334.09a1,1,0,0,1-.9-.56,1,1,0,0,1,.46-1.34,28.8,28.8,0,0,1,25.27,0,1,1,0,0,1-.89,1.8,26.74,26.74,0,0,0-23.5,0A1,1,0,0,1,283.62,334.09Z" fill="none" stroke="#003a50" stroke-miterlimit="10"/><path d="M283.62,328.53a1,1,0,0,1-.44-1.91,28.8,28.8,0,0,1,25.27,0,1,1,0,0,1,.45,1.34,1,1,0,0,1-1.34.46,26.83,26.83,0,0,0-23.5,0A1,1,0,0,1,283.62,328.53Z" fill="none" stroke="#003a50" stroke-miterlimit="10"/><path d="M283.62,323a1,1,0,0,1-.44-1.9,28.8,28.8,0,0,1,25.27,0,1,1,0,0,1-.89,1.8,26.74,26.74,0,0,0-23.5,0A1,1,0,0,1,283.62,323Z" fill="none" stroke="#003a50" stroke-miterlimit="10"/><path d="M283.62,356.36a1,1,0,0,1-.9-.56,1,1,0,0,1,.46-1.34,28.8,28.8,0,0,1,25.27,0,1,1,0,0,1-.89,1.8,26.74,26.74,0,0,0-23.5,0A1,1,0,0,1,283.62,356.36Z" fill="none" stroke="#003a50" stroke-miterlimit="10"/><path d="M283.62,361.93a1,1,0,0,1-.44-1.9,28.8,28.8,0,0,1,25.27,0,1,1,0,0,1-.89,1.8,26.74,26.74,0,0,0-23.5,0A1,1,0,0,1,283.62,361.93Z" fill="none" stroke="#003a50" stroke-miterlimit="10"/></g><line x1="295.81" y1="367.92" x2="295.81" y2="275.74" fill="none" stroke="#003a50" stroke-miterlimit="10"/><g clip-path="url(#clip-path)"><path d="M317.14,240.06a1,1,0,0,1,.56-.9,1,1,0,0,1,1.34.46,28.8,28.8,0,0,1,0,25.27,1,1,0,0,1-1.8-.89,26.74,26.74,0,0,0,0-23.5A1,1,0,0,1,317.14,240.06Z" fill="none" stroke="#003a50" stroke-miterlimit="10"/><path d="M322.71,240.06a1,1,0,0,1,.56-.9,1,1,0,0,1,1.34.46,28.8,28.8,0,0,1,0,25.27,1,1,0,0,1-1.8-.89,26.74,26.74,0,0,0,0-23.5A1,1,0,0,1,322.71,240.06Z" fill="none" stroke="#003a50" stroke-miterlimit="10"/><path d="M328.28,240.06a1,1,0,0,1,1.9-.44,28.8,28.8,0,0,1,0,25.27,1,1,0,0,1-1.8-.89,26.74,26.74,0,0,0,0-23.5A1,1,0,0,1,328.28,240.06Z" fill="none" stroke="#003a50" stroke-miterlimit="10"/><path d="M333.84,240.06a1,1,0,0,1,1.91-.44,28.8,28.8,0,0,1,0,25.27,1,1,0,0,1-1.34.45A1,1,0,0,1,334,264a26.83,26.83,0,0,0,0-23.5A.87.87,0,0,1,333.84,240.06Z" fill="none" stroke="#003a50" stroke-miterlimit="10"/><path d="M339.41,240.06a1,1,0,0,1,.56-.9,1,1,0,0,1,1.34.46,28.8,28.8,0,0,1,0,25.27,1,1,0,0,1-1.8-.89,26.74,26.74,0,0,0,0-23.5A1,1,0,0,1,339.41,240.06Z" fill="none" stroke="#003a50" stroke-miterlimit="10"/><path d="M345,240.06a1,1,0,0,1,.56-.9,1,1,0,0,1,1.34.46,28.8,28.8,0,0,1,0,25.27,1,1,0,0,1-1.8-.89,26.74,26.74,0,0,0,0-23.5A1,1,0,0,1,345,240.06Z" fill="none" stroke="#003a50" stroke-miterlimit="10"/><path d="M311.57,240.06a1,1,0,0,1,1.91-.44,28.8,28.8,0,0,1,0,25.27,1,1,0,0,1-1.34.45,1,1,0,0,1-.46-1.34,26.83,26.83,0,0,0,0-23.5A1,1,0,0,1,311.57,240.06Z" fill="none" stroke="#003a50" stroke-miterlimit="10"/><path d="M306,240.06a1,1,0,0,1,1.9-.44,28.8,28.8,0,0,1,0,25.27,1,1,0,0,1-1.8-.89,26.74,26.74,0,0,0,0-23.5A1,1,0,0,1,306,240.06Z" fill="none" stroke="#003a50" stroke-miterlimit="10"/></g><line x1="300.02" y1="252.25" x2="379.42" y2="252.25" fill="none" stroke="#003a50" stroke-miterlimit="10"/><g clip-path="url(#clip-path)"><path d="M107.34,135.57h-41v45.78h43.26V137.78A2.2,2.2,0,0,0,107.34,135.57Z" fill="none" stroke="#003a50" stroke-miterlimit="10"/><path d="M107.57,89.68H66.29v45.79h41.28a2,2,0,0,0,2-2V91.66A2,2,0,0,0,107.57,89.68Z" fill="none" stroke="#003a50" stroke-miterlimit="10"/><path d="M109.55,181.35a3.11,3.11,0,0,1,2.83,3.33v4.22a3.11,3.11,0,0,1-2.83,3.33H61.34V78.8h47.79A3.11,3.11,0,0,1,112,82.13v4.22a3.11,3.11,0,0,1-2.83,3.33H66.29v91.67Z" fill="none" stroke="#003a50" stroke-miterlimit="10"/></g><rect x="66.29" y="89.68" width="9.26" height="91.67" fill="none" stroke="#003a50" stroke-miterlimit="10"/><rect x="202.63" y="50.83" width="17.02" height="224.3" fill="none" stroke="#003a50" stroke-miterlimit="10"/><rect x="396.46" y="96.07" width="17.02" height="101.66" fill="none" stroke="#003a50" stroke-miterlimit="10"/><polygon points="405.5 103.89 407.96 103.89 407.96 189.92 405.5 189.92 401.97 146.9 405.5 103.89" fill="none" stroke="#003a50" stroke-miterlimit="10"/><polygon points="210.59 206 208.14 206 208.14 119.96 210.59 119.96 214.13 162.98 210.59 206" fill="none" stroke="#003a50" stroke-miterlimit="10"/><g clip-path="url(#clip-path)"><rect x="587.22" y="55.26" width="52.35" height="113.71" fill="none" stroke="#003a50" stroke-miterlimit="10"/><rect x="586.03" y="212.9" width="113.42" height="34.03" fill="none" stroke="#003a50" stroke-miterlimit="10"/><line x1="586.72" y1="229.91" x2="699.46" y2="229.91" fill="none" stroke="#003a50" stroke-miterlimit="10"/><path d="M259.61,120.87a14.78,14.78,0,0,0,15.93-23.4,1.14,1.14,0,0,0-1.6-.17,1.15,1.15,0,0,0-.18,1.61,12.47,12.47,0,0,1-14.15,19.5Z" fill="none" stroke="#003a50" stroke-miterlimit="10"/><rect x="225.58" y="66.59" width="34.03" height="84.06" rx="3.31" fill="none" stroke="#003a50" stroke-miterlimit="10"/><path d="M229.29,148.11a1.4,1.4,0,0,0,1.4-1.4V70.54a1.4,1.4,0,0,0-2.79,0v76.17a1.4,1.4,0,0,0,1.39,1.4" fill="none" stroke="#003a50" stroke-miterlimit="10"/><path d="M243.88,80.27a5.51,5.51,0,1,1,0-7.79A5.5,5.5,0,0,1,243.88,80.27Z" fill="none" stroke="#003a50" stroke-miterlimit="10"/><path d="M244.25,79.86c-1-.1-2.05.29-3-.7-1.46-1.46.08-3-1.38-4.47s-3,.09-4.48-1.38" fill="none" stroke="#003a50" stroke-miterlimit="10"/><path d="M259.61,116.16a10.64,10.64,0,1,0,0-19.6Z" fill="none" stroke="#003a50" stroke-miterlimit="10"/><path d="M238.45,510.76a14.78,14.78,0,0,0-15.93,23.39,1.14,1.14,0,0,0,1.77-1.43,12.48,12.48,0,0,1,14.16-19.51Z" fill="none" stroke="#003a50" stroke-miterlimit="10"/><rect x="238.45" y="480.97" width="34.03" height="84.06" rx="3.31" fill="none" stroke="#003a50" stroke-miterlimit="10"/><path d="M268.77,483.52a1.4,1.4,0,0,0-1.4,1.4v76.17a1.4,1.4,0,0,0,2.79,0V484.92a1.4,1.4,0,0,0-1.39-1.4" fill="none" stroke="#003a50" stroke-miterlimit="10"/><path d="M238.45,515.47a10.64,10.64,0,1,0,0,19.59Z" fill="none" stroke="#003a50" stroke-miterlimit="10"/></g><rect x="337.15" y="60.06" width="52.35" height="113.71" fill="none" stroke="#003a50" stroke-miterlimit="10"/><g clip-path="url(#clip-path)"><path d="M346.09,164.07h34.06a2.11,2.11,0,0,0,2.1-2.11V94.31H344V162A2.11,2.11,0,0,0,346.09,164.07Z" fill="none" stroke="#003a50" stroke-miterlimit="10"/></g><rect x="343.98" y="94.31" width="38.27" height="13.86" fill="none" stroke="#003a50" stroke-miterlimit="10"/><g clip-path="url(#clip-path)"><rect x="343.59" y="67.81" width="38.72" height="22.89" rx="2.2" fill="none" stroke="#003a50" stroke-miterlimit="10"/></g><rect x="547.61" y="66.86" width="22.68" height="22.68" fill="none" stroke="#003a50" stroke-miterlimit="10"/><g clip-path="url(#clip-path)"><path d="M565.45,84.71a9.2,9.2,0,1,1,0-13A9.2,9.2,0,0,1,565.45,84.71Z" fill="none" stroke="#003a50" stroke-miterlimit="10"/><path d="M566.08,84c-1.7-.17-3.42.48-5.07-1.17-2.44-2.44.14-5-2.3-7.46s-5,.14-7.46-2.3" fill="none" stroke="#003a50" stroke-miterlimit="10"/></g><rect x="547.63" y="204.26" width="22.68" height="22.68" fill="none" stroke="#003a50" stroke-miterlimit="10"/><g clip-path="url(#clip-path)"><path d="M565.48,222.11a9.2,9.2,0,1,1,0-13A9.2,9.2,0,0,1,565.48,222.11Z" fill="none" stroke="#003a50" stroke-miterlimit="10"/><path d="M566.1,221.41c-1.69-.16-3.41.49-5.07-1.16-2.44-2.44.14-5-2.3-7.46s-5,.13-7.46-2.31" fill="none" stroke="#003a50" stroke-miterlimit="10"/></g><rect x="456.86" y="95.36" width="113.42" height="102.08" fill="none" stroke="#003a50" stroke-miterlimit="10"/><g clip-path="url(#clip-path)"><path d="M466.6,187.44V105.35a2.09,2.09,0,0,1,2.09-2.08h67.66v86.25H468.69A2.09,2.09,0,0,1,466.6,187.44Z" fill="none" stroke="#003a50" stroke-miterlimit="10"/><path d="M540,143.55V105a2,2,0,0,1,2-2h18.92a2,2,0,0,1,2,2v38.55a2,2,0,0,1-2,2H542A2,2,0,0,1,540,143.55Z" fill="none" stroke="#003a50" stroke-miterlimit="10"/><path d="M540,187.8V149.24a2,2,0,0,1,2-2h18.92a2,2,0,0,1,2,2V187.8a2,2,0,0,1-2,2H542A2,2,0,0,1,540,187.8Z" fill="none" stroke="#003a50" stroke-miterlimit="10"/></g><line x1="522.5" y1="189.78" x2="522.5" y2="103.01" fill="none" stroke="#003a50" stroke-miterlimit="10"/><g clip-path="url(#clip-path)"><rect x="279.25" y="547" width="59.56" height="29.22" fill="none" stroke="#003a50" stroke-miterlimit="10"/><path d="M270.42,272.71v-3.07a38.73,38.73,0,0,0-38.73-38.73v41.8" fill="none" stroke="#003a50" stroke-miterlimit="10" stroke-width="1.6"/><path d="M452.29,339.52h-3.08a38.72,38.72,0,0,1-38.73-38.72h41.81" fill="none" stroke="#003a50" stroke-miterlimit="10" stroke-width="1.6"/><path d="M384.22,437.09V434a39.52,39.52,0,0,0-39.52-39.52v42.66" fill="none" stroke="#003a50" stroke-miterlimit="10" stroke-width="1.6"/><path d="M527.07,431H531a48.9,48.9,0,0,0,48.91-48.9h-52.8" fill="none" stroke="#003a50" stroke-miterlimit="10" stroke-width="1.6"/><path d="M443.48,366.54v3.36a42.34,42.34,0,0,1-42.35,42.35V366.54" fill="none" stroke="#003a50" stroke-miterlimit="10" stroke-width="1.6"/><line x1="507.35" y1="429.46" x2="452.84" y2="429.46" fill="none" stroke="#003a50" stroke-miterlimit="10" stroke-width="1.6"/><rect x="384.49" y="2.43" width="34.47" height="47.85" fill="#003a50"/><rect x="579.81" y="2.43" width="26.7" height="47.85" fill="#003a50"/><rect x="510.81" y="22.17" width="91.7" height="28.11" fill="#003a50"/><rect x="273.06" y="2.43" width="26.7" height="47.85" fill="#003a50"/><rect x="204.07" y="22.17" width="91.7" height="28.11" fill="#003a50"/><rect x="515.76" y="29.1" width="77.36" height="27.34" fill="#003a50"/><rect x="213.24" y="29.1" width="77.36" height="27.34" fill="#003a50"/><rect x="4.26" y="4.43" width="25.84" height="25.01" fill="#003a50"/><rect x="26.1" y="394" width="26.18" height="94.61" fill="#003a50"/><rect x="3.93" y="394" width="44.35" height="25.92" fill="#003a50"/><rect x="38.1" y="467.26" width="249.59" height="13.79" fill="#003a50"/><rect x="277.86" y="533.62" width="249.59" height="13.79" fill="#003a50"/><rect x="513.45" y="534.48" width="16.82" height="126.55" fill="#003a50"/><rect x="493.94" y="434.23" width="11.67" height="106.29" fill="#003a50"/><rect x="493.94" y="433.48" width="36.32" height="11.67" fill="#003a50"/><rect x="514.11" y="362.91" width="142.05" height="16.7" fill="#003a50"/><rect x="570.59" y="52.08" width="16.32" height="314.9" fill="#003a50"/><rect x="378.86" y="192.5" width="16.32" height="82.96" fill="#003a50"/><rect x="273.9" y="467.26" width="13.79" height="80.15" fill="#003a50"/><rect x="26.1" y="207.28" width="26.18" height="94.61" fill="#003a50"/><rect x="3.92" y="207.28" width="48.35" height="27.96" fill="#003a50"/><rect x="30.67" y="207.28" width="29.61" height="77.73" fill="#003a50"/><rect x="446.91" y="338.69" width="6.38" height="28.28" fill="#003a50"/><rect x="446.91" y="247.37" width="6.38" height="54.26" fill="#003a50"/><rect x="446.91" y="247.19" width="125.51" height="6.38" fill="#003a50"/></g><g clip-path="url(#clip-path)"><path d="M462.1,310.75h-5.83v-1.84h8.87v1.84l-4.53,2.66v.06h1.28a3.89,3.89,0,0,1,2.8,1,3.52,3.52,0,0,1,1.05,2.67,3.32,3.32,0,0,1-1.33,2.82,7,7,0,0,1-7.25,0,3.39,3.39,0,0,1-1.33-2.86v-.32h2.11v.32c0,1.37.95,2,2.85,2s2.84-.67,2.84-2-.95-2-2.84-2h-3.27v-1.67l4.58-2.69Z" fill="#003a50"/><path d="M467.84,320.7a1,1,0,0,1-.32-.81,1.07,1.07,0,0,1,.32-.81,1.25,1.25,0,0,1,.88-.3,1.2,1.2,0,0,1,.86.3,1,1,0,0,1,.33.81,1,1,0,0,1-.33.81,1.2,1.2,0,0,1-.86.3A1.25,1.25,0,0,1,467.84,320.7Z" fill="#003a50"/><path d="M481.48,312.27h-2.21s0-.07,0-.18a2.94,2.94,0,0,0-.22-.44,2.64,2.64,0,0,0-.38-.5,2.08,2.08,0,0,0-.71-.41,3,3,0,0,0-1-.16,2.51,2.51,0,0,0-2.16,1,4.42,4.42,0,0,0-.76,2.69h.06a1.5,1.5,0,0,1,.44-.44,4.76,4.76,0,0,1,.6-.36,4.41,4.41,0,0,1,1-.31,6.23,6.23,0,0,1,1.22-.12,5.06,5.06,0,0,1,3.38,1.11,3.51,3.51,0,0,1,1.3,2.8,3.57,3.57,0,0,1-1.36,2.91A5.52,5.52,0,0,1,477,321a4.81,4.81,0,0,1-3.87-1.55,6.38,6.38,0,0,1-1.32-4.27v-.41a6.85,6.85,0,0,1,1.32-4.31,4.5,4.5,0,0,1,3.81-1.72,5.64,5.64,0,0,1,2.12.38,3.72,3.72,0,0,1,1.44.94A3.44,3.44,0,0,1,481.48,312.27ZM479,315.42a3.67,3.67,0,0,0-4,0,2,2,0,0,0,0,3.15,3.63,3.63,0,0,0,4,0,2,2,0,0,0,0-3.15Z" fill="#003a50"/><path d="M371.05,327.64h-2.11V325h-7v-1.85l6.3-7.42h2.79v7.42h1.6V325h-1.6Zm-2.11-4.5v-5.33h-.06l-4.48,5.28v.05Z" fill="#003a50"/><path d="M374.34,327.51a1,1,0,0,1-.33-.81,1,1,0,0,1,.33-.81,1.4,1.4,0,0,1,1.73,0,1,1,0,0,1,.33.81,1,1,0,0,1-.33.81,1.44,1.44,0,0,1-1.73,0Z" fill="#003a50"/><path d="M384.45,317.56h-5.82v-1.84h8.87v1.84L383,320.22v.06h1.28a3.87,3.87,0,0,1,2.79,1,3.52,3.52,0,0,1,1,2.66,3.33,3.33,0,0,1-1.33,2.83,7,7,0,0,1-7.24,0,3.36,3.36,0,0,1-1.33-2.86v-.32h2.11v.32c0,1.36.95,2,2.84,2s2.84-.67,2.84-2-.94-2-2.84-2h-3.27v-1.67l4.58-2.69Z" fill="#003a50"/></g><rect x="269.58" y="269.09" width="120.97" height="6.38" fill="#003a50"/><rect x="219.57" y="269.09" width="12.95" height="6.38" fill="#003a50"/><rect x="585.4" y="247.19" width="1.38" height="6.38" fill="#003a50"/><rect x="585.4" y="278.8" width="1.37" height="6.38" fill="#003a50"/><rect x="573.7" y="247.19" width="13.07" height="6.38" fill="#003a50"/><rect x="546.77" y="326.69" width="25.65" height="6.38" fill="#003a50"/><rect x="545.51" y="248.95" width="6.38" height="120.34" fill="#003a50"/><rect x="442.65" y="362.91" width="91.53" height="6.38" fill="#003a50"/><rect x="313.11" y="362.91" width="88.86" height="6.38" fill="#003a50"/><rect x="313.11" y="272.71" width="6.38" height="94.79" fill="#003a50"/><rect x="219.57" y="48.68" width="6.38" height="222.5" fill="#003a50"/><rect x="389.8" y="48.68" width="6.38" height="226.78" fill="#003a50"/><rect x="383.38" y="433.46" width="59.12" height="6.38" fill="#003a50"/><rect x="481.71" y="433.46" width="17.19" height="6.38" fill="#003a50"/><rect x="282.76" y="433.46" width="62.77" height="6.38" fill="#003a50"/><rect x="307.77" y="438.72" width="6.38" height="99.56" fill="#003a50"/><rect x="430.57" y="438.72" width="6.38" height="99.56" fill="#003a50"/><rect x="282.76" y="438.72" width="6.38" height="99.56" fill="#003a50"/><rect x="286.69" y="455.54" width="26.42" height="6.38" fill="#003a50"/><rect x="523.89" y="430.23" width="6.38" height="107.27" fill="#003a50"/><rect x="523.89" y="369.29" width="6.38" height="13.64" fill="#003a50"/><rect x="372.87" y="543.23" width="6.38" height="3.85" fill="#003a50"/><polygon points="272.88 474.16 272.88 480.9 273.13 480.9 273.13 547.09 279.25 547.09 279.25 474.16 272.88 474.16" fill="#003a50"/><rect x="488.18" y="544.49" width="6.38" height="2.6" fill="#003a50"/><line x1="390.22" y1="248.95" x2="393.05" y2="248.95" fill="none" stroke="#003a50" stroke-miterlimit="10"/><line x1="398.92" y1="248.95" x2="489.92" y2="248.95" fill="none" stroke="#003a50" stroke-miterlimit="10" stroke-dasharray="5.87 5.87"/><line x1="492.86" y1="248.95" x2="495.69" y2="248.95" fill="none" stroke="#003a50" stroke-miterlimit="10"/><line x1="283.12" y1="443.55" x2="283.12" y2="440.72" fill="none" stroke="#003a50" stroke-miterlimit="10"/><line x1="283.12" y1="435.21" x2="283.12" y2="371.9" fill="none" stroke="#003a50" stroke-miterlimit="10" stroke-dasharray="5.5 5.5"/><line x1="283.12" y1="369.14" x2="283.12" y2="366.31" fill="none" stroke="#003a50" stroke-miterlimit="10"/><line x1="283.12" y1="399.68" x2="280.28" y2="399.68" fill="none" stroke="#003a50" stroke-miterlimit="10"/><line x1="274.69" y1="399.68" x2="53.9" y2="399.68" fill="none" stroke="#003a50" stroke-miterlimit="10" stroke-dasharray="5.59 5.59"/><line x1="51.11" y1="399.68" x2="48.27" y2="399.68" fill="none" stroke="#003a50" stroke-miterlimit="10"/><g clip-path="url(#clip-path)"><path d="M450,214.58l-2.49,1.95v-2.24l2.74-2.27h1.86v11.92H450Z" fill="#003a50"/><path d="M456.66,214.58l-2.48,1.95v-2.24l2.73-2.27h1.86v11.92h-2.11Z" fill="#003a50"/><path d="M461.3,223.8a1,1,0,0,1-.32-.8,1,1,0,0,1,.32-.81,1.41,1.41,0,0,1,1.74,0,1.07,1.07,0,0,1,.32.81,1,1,0,0,1-.32.8,1.41,1.41,0,0,1-1.74,0Z" fill="#003a50"/><path d="M467.21,214.58l-2.49,1.95v-2.24l2.74-2.27h1.86v11.92h-2.11Z" fill="#003a50"/><path d="M482.27,409.36h-2.11v-2.65h-7v-1.84l6.3-7.43h2.79v7.43h1.6v1.84h-1.6Zm-2.11-4.49v-5.33h-.07l-4.48,5.28v.05Z" fill="#003a50"/><path d="M485.55,409.23a1,1,0,0,1-.32-.81,1.06,1.06,0,0,1,.32-.8,1.25,1.25,0,0,1,.88-.3,1.2,1.2,0,0,1,.86.3,1,1,0,0,1,.33.8,1,1,0,0,1-.33.81,1.2,1.2,0,0,1-.86.3A1.25,1.25,0,0,1,485.55,409.23Z" fill="#003a50"/><path d="M497.9,409.36h-2.11v-2.65h-7v-1.84l6.31-7.43h2.79v7.43h1.6v1.84h-1.6Zm-2.11-4.49v-5.33h-.07l-4.48,5.28v.05Z" fill="#003a50"/><path d="M270.14,214.58l-2.49,1.95v-2.24l2.74-2.27h1.86v11.92h-2.11Z" fill="#003a50"/><path d="M276.77,214.58l-2.49,1.95v-2.24L277,212h1.86v11.92h-2.11Z" fill="#003a50"/><path d="M281.41,223.8a1,1,0,0,1-.33-.8,1,1,0,0,1,.33-.81,1.4,1.4,0,0,1,1.73,0,1,1,0,0,1,.33.81,1,1,0,0,1-.33.8,1.4,1.4,0,0,1-1.73,0Z" fill="#003a50"/><path d="M295,215.38h-2.21s0-.07,0-.18a2.36,2.36,0,0,0-.21-.44,2.69,2.69,0,0,0-.39-.5,2,2,0,0,0-.71-.41,3,3,0,0,0-1-.16,2.49,2.49,0,0,0-2.15,1,4.41,4.41,0,0,0-.77,2.68h.06a1.79,1.79,0,0,1,.44-.43,4.24,4.24,0,0,1,.61-.36,4.06,4.06,0,0,1,.95-.31,6.08,6.08,0,0,1,1.22-.13,5,5,0,0,1,3.37,1.12,3.51,3.51,0,0,1,1.31,2.8,3.57,3.57,0,0,1-1.37,2.91,5.5,5.5,0,0,1-3.61,1.1,4.81,4.81,0,0,1-3.87-1.54,6.38,6.38,0,0,1-1.32-4.27v-.41a6.88,6.88,0,0,1,1.32-4.32,4.52,4.52,0,0,1,3.81-1.71,5.66,5.66,0,0,1,2.13.38,3.82,3.82,0,0,1,1.44.93A3.47,3.47,0,0,1,295,215.38Zm-2.51,3.15a3.62,3.62,0,0,0-4,0,1.85,1.85,0,0,0-.78,1.58,1.88,1.88,0,0,0,.77,1.57,3.65,3.65,0,0,0,4,0,1.88,1.88,0,0,0,.77-1.57A1.85,1.85,0,0,0,292.53,218.53Z" fill="#003a50"/><path d="M115,223.94h-9.94v-1.57a2.76,2.76,0,0,1,.58-1.74,4,4,0,0,1,1.45-1.2c.49-.25,1.12-.54,1.87-.86s1.32-.56,1.87-.78a4.12,4.12,0,0,0,1.45-.91,1.8,1.8,0,0,0,.57-1.3c0-1.26-.89-1.89-2.66-1.89s-2.68.72-2.68,2.16v.41h-2.11v-.41a3.62,3.62,0,0,1,1.26-3,5.39,5.39,0,0,1,3.52-1,5.7,5.7,0,0,1,3.51,1,3.3,3.3,0,0,1,1.28,2.76,3.17,3.17,0,0,1-.56,1.83,4.42,4.42,0,0,1-1.41,1.31c-.59.34-1.21.65-1.83.93s-1.24.52-1.83.75a5.46,5.46,0,0,0-1.41.74,1.26,1.26,0,0,0-.56,1H115Z" fill="#003a50"/><path d="M123.33,213.86h-5.82V212h8.87v1.84l-4.53,2.65v.07h1.27a3.87,3.87,0,0,1,2.8,1,3.52,3.52,0,0,1,1,2.66,3.33,3.33,0,0,1-1.33,2.83,7,7,0,0,1-7.24,0,3.36,3.36,0,0,1-1.33-2.86v-.32h2.11v.32c0,1.36.94,2,2.84,2s2.84-.67,2.84-2-.94-2-2.84-2h-3.27v-1.68l4.58-2.68Z" fill="#003a50"/><path d="M129.08,223.8a1,1,0,0,1-.33-.8,1,1,0,0,1,.33-.81,1.4,1.4,0,0,1,1.73,0,1,1,0,0,1,.33.81,1,1,0,0,1-.33.8,1.4,1.4,0,0,1-1.73,0Z" fill="#003a50"/><path d="M142.71,215.38H140.5s0-.07,0-.18a2.53,2.53,0,0,0-.22-.44,2.28,2.28,0,0,0-.38-.5,2.08,2.08,0,0,0-.71-.41,3,3,0,0,0-1-.16,2.52,2.52,0,0,0-2.16,1,4.41,4.41,0,0,0-.76,2.68h.06a1.79,1.79,0,0,1,.44-.43,4.24,4.24,0,0,1,.61-.36,4.06,4.06,0,0,1,.95-.31,6.06,6.06,0,0,1,1.21-.13,5,5,0,0,1,3.38,1.12,3.5,3.5,0,0,1,1.3,2.8,3.57,3.57,0,0,1-1.36,2.91,5.5,5.5,0,0,1-3.61,1.1,4.81,4.81,0,0,1-3.87-1.54,6.38,6.38,0,0,1-1.32-4.27v-.41a6.88,6.88,0,0,1,1.32-4.32,4.52,4.52,0,0,1,3.81-1.71,5.7,5.7,0,0,1,2.13.38,3.86,3.86,0,0,1,1.43.93A3.49,3.49,0,0,1,142.71,215.38Zm-2.51,3.15a3.62,3.62,0,0,0-4,0,1.85,1.85,0,0,0-.78,1.58,1.88,1.88,0,0,0,.77,1.57,3.65,3.65,0,0,0,4,0,1.88,1.88,0,0,0,.77-1.57A1.85,1.85,0,0,0,140.2,218.53Z" fill="#003a50"/><path d="M466,477.7l-2.49,1.95v-2.24l2.74-2.27h1.86v11.92H466Z" fill="#003a50"/><path d="M470.58,486.93a1,1,0,0,1-.32-.81,1.07,1.07,0,0,1,.32-.81,1.3,1.3,0,0,1,.88-.29,1.24,1.24,0,0,1,.86.29,1,1,0,0,1,.33.81,1,1,0,0,1-.33.81,1.2,1.2,0,0,1-.86.3A1.25,1.25,0,0,1,470.58,486.93Z" fill="#003a50"/><path d="M483.18,486.3a6.45,6.45,0,0,1-3.68.93,6.54,6.54,0,0,1-3.7-.94,3,3,0,0,1-1.37-2.56,2.71,2.71,0,0,1,.26-1.17,2.29,2.29,0,0,1,.66-.85,4,4,0,0,1,1.39-.78l.26-.06v-.09a3.32,3.32,0,0,1-.76-.29,2.7,2.7,0,0,1-.67-.45,2.2,2.2,0,0,1-.54-.75,2.41,2.41,0,0,1-.22-1,2.83,2.83,0,0,1,1.25-2.39,7,7,0,0,1,6.86,0,2.84,2.84,0,0,1,1.25,2.39,2.58,2.58,0,0,1-.22,1,1.81,1.81,0,0,1-.56.74,3.46,3.46,0,0,1-1.19.69l-.23,0v.09s.14,0,.29.06a6.35,6.35,0,0,1,.62.27,3.81,3.81,0,0,1,.77.51,2.67,2.67,0,0,1,.89,2A3,3,0,0,1,483.18,486.3Zm-5.8-1.36a3.85,3.85,0,0,0,2.11.48,3.94,3.94,0,0,0,2.1-.47,1.6,1.6,0,0,0,0-2.7,3.94,3.94,0,0,0-2.1-.47,4,4,0,0,0-2.11.47,1.52,1.52,0,0,0-.74,1.35A1.5,1.5,0,0,0,477.38,484.94Zm-.36-6.52a1.36,1.36,0,0,0,.64,1.19,4.09,4.09,0,0,0,3.65,0,1.43,1.43,0,0,0,0-2.4,4,4,0,0,0-3.62,0A1.38,1.38,0,0,0,477,478.42Z" fill="#003a50"/><path d="M362.34,477h-5.83v-1.85h8.87V477l-4.53,2.65v.06h1.28a3.87,3.87,0,0,1,2.79,1,3.5,3.5,0,0,1,1.06,2.67,3.32,3.32,0,0,1-1.33,2.82,7,7,0,0,1-7.25,0,3.36,3.36,0,0,1-1.33-2.86V483h2.11v.32q0,2.06,2.85,2c1.89,0,2.84-.67,2.84-2s-.95-2-2.84-2h-3.27v-1.67l4.58-2.69Z" fill="#003a50"/><path d="M368.08,486.93a1,1,0,0,1-.32-.81,1.07,1.07,0,0,1,.32-.81A1.3,1.3,0,0,1,369,485a1.26,1.26,0,0,1,.86.29,1,1,0,0,1,.32.81,1,1,0,0,1-.32.81,1.22,1.22,0,0,1-.86.3A1.25,1.25,0,0,1,368.08,486.93Z" fill="#003a50"/><path d="M380.68,486.3a7.75,7.75,0,0,1-7.38,0,3,3,0,0,1-1.37-2.56,2.71,2.71,0,0,1,.26-1.17,2.29,2.29,0,0,1,.66-.85,3.91,3.91,0,0,1,1.39-.78l.26-.06v-.09a3.32,3.32,0,0,1-.76-.29,2.52,2.52,0,0,1-.67-.45,2.2,2.2,0,0,1-.54-.75,2.41,2.41,0,0,1-.22-1,2.81,2.81,0,0,1,1.25-2.39A5.75,5.75,0,0,1,377,475a5.81,5.81,0,0,1,3.43.9,2.84,2.84,0,0,1,1.25,2.39,2.58,2.58,0,0,1-.22,1,1.9,1.9,0,0,1-.56.74,3.46,3.46,0,0,1-1.19.69l-.23,0v.09a2.45,2.45,0,0,1,.28.06,6.14,6.14,0,0,1,.63.27,4.12,4.12,0,0,1,.77.51,2.67,2.67,0,0,1,.89,2A3,3,0,0,1,380.68,486.3Zm-5.8-1.36a3.85,3.85,0,0,0,2.11.48,4,4,0,0,0,2.1-.47,1.6,1.6,0,0,0,0-2.7,4.95,4.95,0,0,0-4.21,0,1.52,1.52,0,0,0-.74,1.35A1.5,1.5,0,0,0,374.88,484.94Zm-.36-6.52a1.36,1.36,0,0,0,.64,1.19,4.09,4.09,0,0,0,3.65,0,1.44,1.44,0,0,0,0-2.4,4,4,0,0,0-3.63,0A1.39,1.39,0,0,0,374.52,478.42Z" fill="#003a50"/><path d="M139.59,418.82a5,5,0,0,1,3.34,1.07,4.17,4.17,0,0,1,0,6,5.39,5.39,0,0,1-3.55,1.08,5.82,5.82,0,0,1-3.56-1,3.18,3.18,0,0,1-1.29-2.69h2.11a1.54,1.54,0,0,0,.7,1.34,3.62,3.62,0,0,0,2,.48,3.13,3.13,0,0,0,2-.57,2.06,2.06,0,0,0,.71-1.69,2,2,0,0,0-.74-1.7,3.25,3.25,0,0,0-2.07-.59,3.55,3.55,0,0,0-1.92.42,1.84,1.84,0,0,0-.7.64l-.05.13h-2.11v-6.89h8.88v1.85H136.6v3h.05a1.91,1.91,0,0,1,.4-.31,3.51,3.51,0,0,1,.55-.27A5.6,5.6,0,0,1,139.59,418.82Z" fill="#003a50"/><path d="M146.3,426.68a1,1,0,0,1-.32-.81,1,1,0,0,1,.32-.8,1.41,1.41,0,0,1,1.74,0,1.06,1.06,0,0,1,.32.8,1,1,0,0,1-.32.81,1.41,1.41,0,0,1-1.74,0Z" fill="#003a50"/><path d="M158.64,426.81h-2.11v-2.65h-7v-1.84l6.3-7.43h2.79v7.43h1.6v1.84h-1.6Zm-2.11-4.49V417h-.06L152,422.27v.05Z" fill="#003a50"/></g></svg>