<svg id="Слой_1" data-name="Слой 1" xmlns="http://www.w3.org/2000/svg" xmlns:xlink="http://www.w3.org/1999/xlink" viewBox="0 0 600.95 685.98"><defs><clipPath id="clip-path"><polygon points="0 0.99 0 381.26 17.62 381.26 17.62 650.91 99.92 650.91 99.92 685.98 599.81 685.98 599.81 0.99 0 0.99" fill="none"/></clipPath></defs><polygon points="73.48 648.96 73.48 650.9 99.92 650.9 99.92 685.98 100.75 685.98 100.75 648.96 73.48 648.96" fill="#fff"/><polygon points="9.66 51.22 9.66 369.45 76.39 369.45 84.55 389.54 84.55 436.81 84.52 639.5 104.97 644.55 104.97 680.02 547.96 680.02 547.96 355.6 547.96 284.65 547.96 51.22 9.66 51.22" fill="#fff"/><rect y="50.22" width="0.81" height="318.66" fill="#fff"/><g clip-path="url(#clip-path)"><rect x="-543.56" y="26.73" width="1115.44" height="2194.74" fill="none" stroke="#003a50" stroke-miterlimit="10"/><polygon points="-518.74 1112.44 -518.74 2198.51 547.73 2198.51 547.73 50.64 -518.74 50.48 -518.74 1043.64 -518.74 1112.44" fill="none" stroke="#003a50" stroke-miterlimit="10"/></g><rect x="35.02" y="36.71" width="81.8" height="4.55" fill="#fff"/><rect x="35.02" y="36.71" width="81.8" height="4.55" fill="none" stroke="#003a50" stroke-miterlimit="10"/><line x1="116.82" y1="38.98" x2="35.01" y2="38.98" fill="none" stroke="#003a50" stroke-miterlimit="10"/><rect x="112.69" y="36.71" width="4.13" height="4.55" fill="#fff"/><rect x="112.69" y="36.71" width="4.13" height="4.55" fill="none" stroke="#003a50" stroke-miterlimit="10"/><rect x="35.01" y="36.71" width="4.13" height="4.55" fill="#fff"/><rect x="35.01" y="36.71" width="4.13" height="4.55" fill="none" stroke="#003a50" stroke-miterlimit="10"/><rect x="73.85" y="36.71" width="4.13" height="4.55" fill="#fff"/><rect x="73.85" y="36.71" width="4.13" height="4.55" fill="none" stroke="#003a50" stroke-miterlimit="10"/><rect x="212.35" y="36.71" width="87.01" height="4.55" fill="#fff"/><rect x="212.35" y="36.71" width="87.01" height="4.55" fill="none" stroke="#003a50" stroke-miterlimit="10"/><line x1="299.36" y1="38.98" x2="212.35" y2="38.98" fill="none" stroke="#003a50" stroke-miterlimit="10"/><rect x="294.96" y="36.71" width="4.39" height="4.55" fill="#fff"/><rect x="294.96" y="36.71" width="4.39" height="4.55" fill="none" stroke="#003a50" stroke-miterlimit="10"/><rect x="212.35" y="36.71" width="4.39" height="4.55" fill="#fff"/><rect x="212.35" y="36.71" width="4.39" height="4.55" fill="none" stroke="#003a50" stroke-miterlimit="10"/><rect x="253.66" y="36.71" width="4.39" height="4.55" fill="#fff"/><rect x="253.66" y="36.71" width="4.39" height="4.55" fill="none" stroke="#003a50" stroke-miterlimit="10"/><rect x="395.41" y="36.71" width="167.77" height="4.55" fill="#fff"/><rect x="395.41" y="36.71" width="167.77" height="4.55" fill="none" stroke="#003a50" stroke-miterlimit="10"/><line x1="395.41" y1="38.98" x2="563.18" y2="38.98" fill="none" stroke="#003a50" stroke-miterlimit="10"/><rect x="436.01" y="36.71" width="5.37" height="4.55" fill="#fff"/><rect x="436.01" y="36.71" width="5.37" height="4.55" fill="none" stroke="#003a50" stroke-miterlimit="10"/><rect x="476.62" y="36.71" width="5.36" height="4.55" fill="#fff"/><rect x="476.62" y="36.71" width="5.36" height="4.55" fill="none" stroke="#003a50" stroke-miterlimit="10"/><rect x="395.41" y="36.71" width="5.37" height="4.55" fill="#fff"/><rect x="395.41" y="36.71" width="5.37" height="4.55" fill="none" stroke="#003a50" stroke-miterlimit="10"/><rect x="557.82" y="36.71" width="5.36" height="4.55" fill="#fff"/><rect x="557.82" y="36.71" width="5.36" height="4.55" fill="none" stroke="#003a50" stroke-miterlimit="10"/><rect x="517.22" y="36.71" width="5.36" height="4.55" fill="#fff"/><rect x="517.22" y="36.71" width="5.36" height="4.55" fill="none" stroke="#003a50" stroke-miterlimit="10"/><rect x="558.65" y="565.22" width="4.56" height="83.24" fill="#fff"/><rect x="558.65" y="565.22" width="4.56" height="83.24" fill="none" stroke="#003a50" stroke-miterlimit="10"/><line x1="560.93" y1="648.45" x2="560.93" y2="565.22" fill="none" stroke="#003a50" stroke-miterlimit="10"/><rect x="558.65" y="644.25" width="4.56" height="4.21" fill="#fff"/><rect x="558.65" y="644.25" width="4.56" height="4.2" fill="none" stroke="#003a50" stroke-miterlimit="10"/><rect x="558.65" y="565.22" width="4.56" height="4.2" fill="#fff"/><rect x="558.65" y="565.22" width="4.56" height="4.2" fill="none" stroke="#003a50" stroke-miterlimit="10"/><rect x="558.65" y="604.73" width="4.56" height="4.2" fill="#fff"/><rect x="558.65" y="604.73" width="4.56" height="4.2" fill="none" stroke="#003a50" stroke-miterlimit="10"/><rect x="558.65" y="36.79" width="4.56" height="153.29" fill="#fff"/><rect x="558.65" y="36.79" width="4.56" height="153.29" fill="none" stroke="#003a50" stroke-miterlimit="10"/><line x1="560.93" y1="36.78" x2="560.93" y2="190.08" fill="none" stroke="#003a50" stroke-miterlimit="10"/><rect x="558.65" y="73.88" width="4.56" height="4.9" fill="#fff"/><rect x="558.65" y="73.88" width="4.56" height="4.9" fill="none" stroke="#003a50" stroke-miterlimit="10"/><rect x="558.65" y="110.98" width="4.56" height="4.9" fill="#fff"/><rect x="558.65" y="110.98" width="4.56" height="4.9" fill="none" stroke="#003a50" stroke-miterlimit="10"/><rect x="558.65" y="36.79" width="4.56" height="4.9" fill="#fff"/><rect x="558.65" y="36.79" width="4.56" height="4.9" fill="none" stroke="#003a50" stroke-miterlimit="10"/><rect x="558.65" y="185.18" width="4.56" height="4.9" fill="#fff"/><rect x="558.65" y="185.18" width="4.56" height="4.9" fill="none" stroke="#003a50" stroke-miterlimit="10"/><rect x="558.65" y="148.08" width="4.56" height="4.9" fill="#fff"/><rect x="558.65" y="148.08" width="4.56" height="4.9" fill="none" stroke="#003a50" stroke-miterlimit="10"/><rect x="558.65" y="286.8" width="4.56" height="75.38" fill="#fff"/><rect x="558.65" y="286.81" width="4.56" height="75.38" fill="none" stroke="#003a50" stroke-miterlimit="10"/><line x1="560.93" y1="362.19" x2="560.93" y2="286.81" fill="none" stroke="#003a50" stroke-miterlimit="10"/><rect x="558.65" y="358.38" width="4.56" height="3.81" fill="#fff"/><rect x="558.65" y="358.38" width="4.56" height="3.81" fill="none" stroke="#003a50" stroke-miterlimit="10"/><rect x="558.65" y="286.81" width="4.56" height="3.8" fill="#fff"/><rect x="558.65" y="286.81" width="4.56" height="3.8" fill="none" stroke="#003a50" stroke-miterlimit="10"/><rect x="558.65" y="322.6" width="4.56" height="3.8" fill="#fff"/><rect x="558.65" y="322.6" width="4.56" height="3.8" fill="none" stroke="#003a50" stroke-miterlimit="10"/><rect x="558.65" y="388.68" width="4.56" height="79.47" fill="#fff"/><rect x="558.65" y="388.68" width="4.56" height="79.47" fill="none" stroke="#003a50" stroke-miterlimit="10"/><line x1="560.93" y1="468.14" x2="560.93" y2="388.68" fill="none" stroke="#003a50" stroke-miterlimit="10"/><rect x="558.65" y="464.13" width="4.56" height="4.01" fill="#fff"/><rect x="558.65" y="464.13" width="4.56" height="4.01" fill="none" stroke="#003a50" stroke-miterlimit="10"/><rect x="558.65" y="388.67" width="4.56" height="4.01" fill="#fff"/><rect x="558.65" y="388.67" width="4.56" height="4.01" fill="none" stroke="#003a50" stroke-miterlimit="10"/><rect x="558.65" y="426.41" width="4.56" height="4.01" fill="#fff"/><rect x="558.65" y="426.41" width="4.56" height="4.01" fill="none" stroke="#003a50" stroke-miterlimit="10"/><rect x="407.27" y="653.51" width="102.08" height="16.76" fill="none" stroke="#003a50" stroke-miterlimit="10"/><polygon points="501.32 661.35 458.41 664.83 415.29 661.35 415.29 658.93 501.32 658.93 501.32 661.35" fill="none" stroke="#003a50" stroke-miterlimit="10"/><rect x="367.16" y="65.71" width="16.76" height="102.08" fill="none" stroke="#003a50" stroke-miterlimit="10"/><polygon points="376.07 73.74 372.6 116.65 376.07 159.77 378.49 159.77 378.49 73.74 376.07 73.74" fill="none" stroke="#003a50" stroke-miterlimit="10"/><rect x="308.2" y="57.75" width="52.35" height="113.71" fill="none" stroke="#003a50" stroke-miterlimit="10"/><g clip-path="url(#clip-path)"><path d="M317.15,161.75h34.06a2.1,2.1,0,0,0,2.1-2.1V92H315v67.65A2.1,2.1,0,0,0,317.15,161.75Z" fill="none" stroke="#003a50" stroke-miterlimit="10"/></g><rect x="315.04" y="92" width="38.27" height="13.86" fill="none" stroke="#003a50" stroke-miterlimit="10"/><g clip-path="url(#clip-path)"><rect x="314.64" y="65.5" width="38.72" height="22.89" rx="2.2" fill="none" stroke="#003a50" stroke-miterlimit="10"/><path d="M450,342a1.28,1.28,0,0,1-1.21,1.31,13.79,13.79,0,1,0,1.07,27.56,1.26,1.26,0,0,1,.1,2.51,16.31,16.31,0,0,1-1.27-32.59A1.26,1.26,0,0,1,450,342Z" fill="none" stroke="#003a50" stroke-miterlimit="10"/><path d="M457,379.56a1.25,1.25,0,0,1,.87,1.55,13.79,13.79,0,0,0,26.55,7.5,1.26,1.26,0,1,1,2.42.69,16.31,16.31,0,0,1-31.39-8.87A1.26,1.26,0,0,1,457,379.56Z" fill="none" stroke="#003a50" stroke-miterlimit="10"/><path d="M494.74,383.92a1.26,1.26,0,0,1,1.75-.34,13.79,13.79,0,0,0,15.33-22.93,1.25,1.25,0,0,1-.35-1.74,1.27,1.27,0,0,1,1.75-.35,16.31,16.31,0,0,1-18.13,27.11A1.26,1.26,0,0,1,494.74,383.92Z" fill="none" stroke="#003a50" stroke-miterlimit="10"/><path d="M511.93,349.34a1.26,1.26,0,0,1,.21-1.77,13.79,13.79,0,1,0-17.07-21.66,1.26,1.26,0,0,1-1.56-2,16.31,16.31,0,0,1,20.19,25.62A1.26,1.26,0,0,1,511.93,349.34Z" fill="none" stroke="#003a50" stroke-miterlimit="10"/><path d="M483.1,325.28a1.27,1.27,0,0,1-.86-1.56A13.79,13.79,0,1,0,455.77,316a1.25,1.25,0,1,1-2.41-.7,16.31,16.31,0,0,1,31.3,9.16A1.27,1.27,0,0,1,483.1,325.28Z" fill="none" stroke="#003a50" stroke-miterlimit="10"/><path d="M459.84,369.32l-9.36.36a12.65,12.65,0,0,1-1-25.29l9-.32a23.71,23.71,0,0,0,1.28,25.25Z" fill="none" stroke="#003a50" stroke-miterlimit="10"/><path d="M486,378.56l-2.56,9.08a12.65,12.65,0,1,1-24.36-6.84l2.6-9.2a23.6,23.6,0,0,0,24.32,7Z" fill="none" stroke="#003a50" stroke-miterlimit="10"/><path d="M514.1,378.76a12.67,12.67,0,0,1-17.52,3.52l-7.28-4.88a23.88,23.88,0,0,0,13.12-15.24,25,25,0,0,0,.84-5.85l7.36,4.92A12.65,12.65,0,0,1,514.1,378.76Z" fill="none" stroke="#003a50" stroke-miterlimit="10"/><path d="M510.9,347.11l-7.72,6.08a23.89,23.89,0,0,0-15.56-20l7.64-6a12.65,12.65,0,1,1,15.64,19.89Z" fill="none" stroke="#003a50" stroke-miterlimit="10"/><path d="M481,324l-2.28,7.76a23.58,23.58,0,0,0-9.08,2.12l-15.29-4.48a1.21,1.21,0,0,1-.84-1.52l3.08-10.64a12.86,12.86,0,0,1,13.21-9.4A12.67,12.67,0,0,1,481,324Z" fill="none" stroke="#003a50" stroke-miterlimit="10"/><path d="M503.26,356.31a25,25,0,0,1-.84,5.85A23.88,23.88,0,0,1,489.3,377.4a24.25,24.25,0,0,1-3.29,1.16,23.62,23.62,0,0,1-24.33-7,25.46,25.46,0,0,1-1.84-2.28,23.9,23.9,0,0,1,26.09-36.66c.56.16,1.13.36,1.69.56a23.89,23.89,0,0,1,15.56,20A27.09,27.09,0,0,1,503.26,356.31Z" fill="none" stroke="#003a50" stroke-miterlimit="10"/><path d="M92.77,279.39V250.53h22.81v28.86a11.41,11.41,0,0,1-22.81,0Z" fill="none" stroke="#003a50" stroke-miterlimit="10"/></g><line x1="115.58" y1="261.76" x2="92.78" y2="261.76" fill="none" stroke="#003a50" stroke-miterlimit="10"/><rect x="119.69" y="527.17" width="92.54" height="38.48" fill="none" stroke="#003a50" stroke-miterlimit="10"/><g clip-path="url(#clip-path)"><path d="M138.23,560.88h55.46a14.48,14.48,0,1,0,0-29H138.23a14.48,14.48,0,1,0,0,29Z" fill="none" stroke="#003a50" stroke-miterlimit="10"/><path d="M140.51,546.41a2.06,2.06,0,1,0-2.06,2.05A2.06,2.06,0,0,0,140.51,546.41Z" fill="none" stroke="#003a50" stroke-miterlimit="10"/><path d="M164,641.41v28.86h22.81V641.41a11.41,11.41,0,0,0-22.81,0Z" fill="none" stroke="#003a50" stroke-miterlimit="10"/></g><line x1="186.83" y1="659.04" x2="164.02" y2="659.04" fill="none" stroke="#003a50" stroke-miterlimit="10"/><rect x="119.36" y="489.39" width="32.32" height="31.66" fill="none" stroke="#003a50" stroke-miterlimit="10"/><g clip-path="url(#clip-path)"><path d="M140.23,497.86h-1.88a2.72,2.72,0,0,1-5.06,0h-2.46l-4.68,2.68,2.23,3.53,2.11-1.12v9.62h10.07V503l2.11,1.12,2.24-3.53Z" fill="none" stroke="#003a50" stroke-miterlimit="10"/></g><rect x="83.96" y="571.75" width="29.36" height="65.16" fill="none" stroke="#003a50" stroke-miterlimit="10"/><g clip-path="url(#clip-path)"><path d="M105.76,603.52h-23a3.36,3.36,0,0,1-3.36-3.36V577.9a3.36,3.36,0,0,1,3.36-3.36h23a3.37,3.37,0,0,1,3.36,3.36v22.26A3.37,3.37,0,0,1,105.76,603.52Z" fill="none" stroke="#003a50" stroke-miterlimit="10"/><circle cx="94.26" cy="589.03" r="2.27" fill="none" stroke="#003a50" stroke-miterlimit="10"/><path d="M105.76,634.05h-23a3.36,3.36,0,0,1-3.36-3.36V608.44a3.35,3.35,0,0,1,3.36-3.36h23a3.36,3.36,0,0,1,3.36,3.36v22.25A3.37,3.37,0,0,1,105.76,634.05Z" fill="none" stroke="#003a50" stroke-miterlimit="10"/><circle cx="94.26" cy="619.56" r="2.27" fill="none" stroke="#003a50" stroke-miterlimit="10"/></g><rect x="41.37" y="255.12" width="43.39" height="99.94" fill="none" stroke="#003a50" stroke-miterlimit="10"/><g clip-path="url(#clip-path)"><path d="M46.75,275.78v58.63A16.26,16.26,0,0,0,63,350.68h.12a16.26,16.26,0,0,0,16.26-16.27V275.78a16.26,16.26,0,0,0-16.26-16.27H63A16.26,16.26,0,0,0,46.75,275.78Z" fill="none" stroke="#003a50" stroke-miterlimit="10"/><path d="M63.07,277.73a2.35,2.35,0,1,0-2.35-2.35A2.35,2.35,0,0,0,63.07,277.73Z" fill="none" stroke="#003a50" stroke-miterlimit="10"/></g><rect x="84.95" y="334.14" width="39.37" height="27.59" fill="none" stroke="#003a50" stroke-miterlimit="10"/><g clip-path="url(#clip-path)"><path d="M119.12,339.92v23a3.36,3.36,0,0,1-3.35,3.36H93.51a3.37,3.37,0,0,1-3.36-3.36v-23a3.36,3.36,0,0,1,3.36-3.35h22.26A3.35,3.35,0,0,1,119.12,339.92Z" fill="none" stroke="#003a50" stroke-miterlimit="10"/><circle cx="104.64" cy="351.43" r="2.27" fill="none" stroke="#003a50" stroke-miterlimit="10"/></g><rect x="319.76" y="450.07" width="221.46" height="32.23" fill="none" stroke="#003a50" stroke-miterlimit="10"/><rect x="398.34" y="450.07" width="31.66" height="32.23" fill="none" stroke="#003a50" stroke-miterlimit="10"/><line x1="423.45" y1="466.18" x2="404.88" y2="466.18" fill="none" stroke="#003a50" stroke-miterlimit="10"/><line x1="414.16" y1="456.73" x2="414.16" y2="475.64" fill="none" stroke="#003a50" stroke-miterlimit="10"/><line x1="420.73" y1="459.5" x2="407.6" y2="472.87" fill="none" stroke="#003a50" stroke-miterlimit="10"/><line x1="407.6" y1="459.5" x2="420.73" y2="472.87" fill="none" stroke="#003a50" stroke-miterlimit="10"/><rect x="246.75" y="214.2" width="113.42" height="34.03" fill="none" stroke="#003a50" stroke-miterlimit="10"/><g clip-path="url(#clip-path)"><path d="M342.36,243.41a1,1,0,0,1-1.91.44,28.8,28.8,0,0,1,0-25.27,1,1,0,0,1,1.34-.45,1,1,0,0,1,.46,1.34,26.83,26.83,0,0,0,0,23.5A.87.87,0,0,1,342.36,243.41Z" fill="none" stroke="#003a50" stroke-miterlimit="10"/><path d="M336.79,243.41a1,1,0,0,1-1.9.44,28.8,28.8,0,0,1,0-25.27,1,1,0,0,1,1.8.89,26.74,26.74,0,0,0,0,23.5A1,1,0,0,1,336.79,243.41Z" fill="none" stroke="#003a50" stroke-miterlimit="10"/><path d="M331.22,243.41a1,1,0,0,1-.56.9,1,1,0,0,1-1.34-.46,28.8,28.8,0,0,1,0-25.27,1,1,0,0,1,1.8.89,26.74,26.74,0,0,0,0,23.5A1,1,0,0,1,331.22,243.41Z" fill="none" stroke="#003a50" stroke-miterlimit="10"/><path d="M325.66,243.41a1,1,0,0,1-1.91.44,28.8,28.8,0,0,1,0-25.27,1,1,0,0,1,1.34-.45,1,1,0,0,1,.46,1.34,26.83,26.83,0,0,0,0,23.5A1,1,0,0,1,325.66,243.41Z" fill="none" stroke="#003a50" stroke-miterlimit="10"/><path d="M320.09,243.41a1,1,0,0,1-1.9.44,28.8,28.8,0,0,1,0-25.27,1,1,0,0,1,1.8.89,26.74,26.74,0,0,0,0,23.5A1,1,0,0,1,320.09,243.41Z" fill="none" stroke="#003a50" stroke-miterlimit="10"/><path d="M314.52,243.41a1,1,0,0,1-1.9.44,28.8,28.8,0,0,1,0-25.27,1,1,0,0,1,1.8.89,26.74,26.74,0,0,0,0,23.5A1,1,0,0,1,314.52,243.41Z" fill="none" stroke="#003a50" stroke-miterlimit="10"/><path d="M347.93,243.41a1,1,0,0,1-1.91.44,28.8,28.8,0,0,1,0-25.27,1,1,0,0,1,1.34-.45,1,1,0,0,1,.46,1.34,26.83,26.83,0,0,0,0,23.5A1,1,0,0,1,347.93,243.41Z" fill="none" stroke="#003a50" stroke-miterlimit="10"/><path d="M353.49,243.41a1,1,0,0,1-.56.9,1,1,0,0,1-1.34-.46,28.8,28.8,0,0,1,0-25.27,1,1,0,0,1,1.8.89,26.74,26.74,0,0,0,0,23.5A1,1,0,0,1,353.49,243.41Z" fill="none" stroke="#003a50" stroke-miterlimit="10"/></g><line x1="359.48" y1="231.22" x2="246.75" y2="231.22" fill="none" stroke="#003a50" stroke-miterlimit="10"/><rect x="238.68" y="253.42" width="28.94" height="101.74" fill="none" stroke="#003a50" stroke-miterlimit="10"/><g clip-path="url(#clip-path)"><path d="M241.94,338.78a.92.92,0,0,1-.41-1.75,26.51,26.51,0,0,1,23.23,0,.92.92,0,0,1-.81,1.66,24.58,24.58,0,0,0-21.6,0A.85.85,0,0,1,241.94,338.78Z" fill="none" stroke="#003a50" stroke-miterlimit="10"/><path d="M241.94,333.67a.92.92,0,0,1-.41-1.75,26.42,26.42,0,0,1,23.23,0,.92.92,0,0,1,.42,1.23.91.91,0,0,1-1.23.42,24.67,24.67,0,0,0-21.6,0A.86.86,0,0,1,241.94,333.67Z" fill="none" stroke="#003a50" stroke-miterlimit="10"/><path d="M241.94,328.55a.92.92,0,0,1-.41-1.75,26.51,26.51,0,0,1,23.23,0,.92.92,0,0,1-.81,1.66,24.58,24.58,0,0,0-21.6,0A1,1,0,0,1,241.94,328.55Z" fill="none" stroke="#003a50" stroke-miterlimit="10"/><path d="M241.94,323.43a.92.92,0,0,1-.41-1.75,26.51,26.51,0,0,1,23.23,0,.92.92,0,0,1-.81,1.66,24.58,24.58,0,0,0-21.6,0A.85.85,0,0,1,241.94,323.43Z" fill="none" stroke="#003a50" stroke-miterlimit="10"/><path d="M241.94,318.32a.92.92,0,0,1-.41-1.75,26.42,26.42,0,0,1,23.23,0,.92.92,0,0,1,.42,1.23.91.91,0,0,1-1.23.42,24.67,24.67,0,0,0-21.6,0A.86.86,0,0,1,241.94,318.32Z" fill="none" stroke="#003a50" stroke-miterlimit="10"/><path d="M241.94,313.2a.92.92,0,0,1-.41-1.75,26.51,26.51,0,0,1,23.23,0,.92.92,0,0,1-.81,1.66,24.58,24.58,0,0,0-21.6,0A1,1,0,0,1,241.94,313.2Z" fill="none" stroke="#003a50" stroke-miterlimit="10"/><path d="M241.94,343.9a.92.92,0,0,1-.41-1.75,26.51,26.51,0,0,1,23.23,0,.92.92,0,0,1-.81,1.66,24.58,24.58,0,0,0-21.6,0A1,1,0,0,1,241.94,343.9Z" fill="none" stroke="#003a50" stroke-miterlimit="10"/><path d="M241.94,349a.92.92,0,0,1-.41-1.75,26.42,26.42,0,0,1,23.23,0,.92.92,0,0,1,.42,1.23.91.91,0,0,1-1.23.42,24.67,24.67,0,0,0-21.6,0A.86.86,0,0,1,241.94,349Z" fill="none" stroke="#003a50" stroke-miterlimit="10"/></g><line x1="253.15" y1="355.16" x2="253.15" y2="280.32" fill="none" stroke="#003a50" stroke-miterlimit="10"/><rect x="185.66" y="355.16" width="81.56" height="24.26" fill="none" stroke="#003a50" stroke-miterlimit="10"/><g clip-path="url(#clip-path)"><path d="M202.21,357.89a.78.78,0,0,1,1.47-.34,22.21,22.21,0,0,1,0,19.48.78.78,0,0,1-1.39-.69,20.66,20.66,0,0,0,0-18.11A.77.77,0,0,1,202.21,357.89Z" fill="none" stroke="#003a50" stroke-miterlimit="10"/><path d="M206.5,357.89a.78.78,0,0,1,1.47-.34A22.21,22.21,0,0,1,208,377a.78.78,0,0,1-1.39-.69,20.66,20.66,0,0,0,0-18.11A.77.77,0,0,1,206.5,357.89Z" fill="none" stroke="#003a50" stroke-miterlimit="10"/><path d="M210.79,357.89a.78.78,0,0,1,1.47-.34,22.21,22.21,0,0,1,0,19.48.78.78,0,0,1-1.39-.69,20.57,20.57,0,0,0,0-18.11A.77.77,0,0,1,210.79,357.89Z" fill="none" stroke="#003a50" stroke-miterlimit="10"/><path d="M215.08,357.89a.78.78,0,0,1,1.47-.34,22.21,22.21,0,0,1,0,19.48.78.78,0,0,1-1.39-.69,20.57,20.57,0,0,0,0-18.11A.77.77,0,0,1,215.08,357.89Z" fill="none" stroke="#003a50" stroke-miterlimit="10"/><path d="M219.37,357.89a.78.78,0,0,1,1.47-.34,22.21,22.21,0,0,1,0,19.48.78.78,0,0,1-1.39-.69,20.57,20.57,0,0,0,0-18.11A.77.77,0,0,1,219.37,357.89Z" fill="none" stroke="#003a50" stroke-miterlimit="10"/><path d="M223.66,357.89a.78.78,0,0,1,1.47-.34,22.21,22.21,0,0,1,0,19.48.78.78,0,0,1-1.39-.69,20.57,20.57,0,0,0,0-18.11A.77.77,0,0,1,223.66,357.89Z" fill="none" stroke="#003a50" stroke-miterlimit="10"/><path d="M197.92,357.89a.78.78,0,0,1,1.47-.34,22.21,22.21,0,0,1,0,19.48.78.78,0,0,1-1.39-.69,20.66,20.66,0,0,0,0-18.11A.77.77,0,0,1,197.92,357.89Z" fill="none" stroke="#003a50" stroke-miterlimit="10"/><path d="M193.63,357.89a.78.78,0,0,1,1.47-.34,22.21,22.21,0,0,1,0,19.48.78.78,0,0,1-1.39-.69,20.66,20.66,0,0,0,0-18.11A.77.77,0,0,1,193.63,357.89Z" fill="none" stroke="#003a50" stroke-miterlimit="10"/></g><line x1="185.8" y1="367.29" x2="267.08" y2="367.29" fill="none" stroke="#003a50" stroke-miterlimit="10"/><g clip-path="url(#clip-path)"><path d="M475.19,151.59v39H434.37v-39a1.91,1.91,0,0,1,1.91-1.92h37A1.92,1.92,0,0,1,475.19,151.59Z" fill="none" stroke="#003a50" stroke-miterlimit="10"/><path d="M477.11,109h43.42v40.8H477.11a1.91,1.91,0,0,1-1.92-1.91v-37A1.92,1.92,0,0,1,477.11,109Z" fill="none" stroke="#003a50" stroke-miterlimit="10"/><path d="M477.11,68.18h43.42V109H477.11a1.91,1.91,0,0,1-1.92-1.91v-37A1.92,1.92,0,0,1,477.11,68.18Z" fill="none" stroke="#003a50" stroke-miterlimit="10"/><path d="M435.1,190.59a3,3,0,0,0-3,3v3.76a3,3,0,0,0,3,3h90.61V58.49H475.64a3,3,0,0,0-3,3v3.76a3,3,0,0,0,3,3h44.88v122.4Z" fill="none" stroke="#003a50" stroke-miterlimit="10"/></g><rect x="510.82" y="68.19" width="9.7" height="122.4" fill="none" stroke="#003a50" stroke-miterlimit="10"/><g clip-path="url(#clip-path)"><path d="M477.33,149.78h43.19v40.8H475.19V151.92A2.14,2.14,0,0,1,477.33,149.78Z" fill="none" stroke="#003a50" stroke-miterlimit="10"/></g><rect x="367.03" y="65.93" width="17.02" height="101.66" fill="none" stroke="#003a50" stroke-miterlimit="10"/><polygon points="376.08 159.77 378.53 159.77 378.53 73.74 376.08 73.74 372.54 116.76 376.08 159.77" fill="none" stroke="#003a50" stroke-miterlimit="10"/><g clip-path="url(#clip-path)"><path d="M357.29,543a14.78,14.78,0,0,0,15.93-23.39,1.14,1.14,0,1,0-1.77,1.43,12.47,12.47,0,0,1-14.16,19.51Z" fill="none" stroke="#003a50" stroke-miterlimit="10"/><rect x="323.26" y="488.68" width="34.03" height="84.06" rx="3.31" fill="none" stroke="#003a50" stroke-miterlimit="10"/><path d="M327,570.19a1.4,1.4,0,0,0,1.39-1.4V492.62a1.4,1.4,0,0,0-2.79,0v76.17a1.4,1.4,0,0,0,1.4,1.4" fill="none" stroke="#003a50" stroke-miterlimit="10"/><path d="M341.56,502.36a5.52,5.52,0,1,1,0-7.8A5.52,5.52,0,0,1,341.56,502.36Z" fill="none" stroke="#003a50" stroke-miterlimit="10"/><path d="M341.93,501.94c-1-.1-2,.29-3-.7-1.46-1.46.08-3-1.38-4.47s-3,.09-4.47-1.38" fill="none" stroke="#003a50" stroke-miterlimit="10"/><path d="M357.29,538.24a10.64,10.64,0,1,0,0-19.59Z" fill="none" stroke="#003a50" stroke-miterlimit="10"/><path d="M225.29,116.56a14.78,14.78,0,0,0,15.93-23.39,1.14,1.14,0,1,0-1.77,1.43,12.47,12.47,0,0,1-14.16,19.51Z" fill="none" stroke="#003a50" stroke-miterlimit="10"/><rect x="191.26" y="62.29" width="34.03" height="84.06" rx="3.31" fill="none" stroke="#003a50" stroke-miterlimit="10"/><path d="M195,143.8a1.4,1.4,0,0,0,1.39-1.4V66.23a1.4,1.4,0,0,0-2.79,0V142.4a1.4,1.4,0,0,0,1.4,1.4" fill="none" stroke="#003a50" stroke-miterlimit="10"/><path d="M209.56,76a5.52,5.52,0,1,1,0-7.8A5.52,5.52,0,0,1,209.56,76Z" fill="none" stroke="#003a50" stroke-miterlimit="10"/><path d="M209.93,75.55c-1-.1-2,.29-3-.7-1.46-1.46.08-3-1.38-4.47s-3,.09-4.47-1.38" fill="none" stroke="#003a50" stroke-miterlimit="10"/><path d="M225.29,111.85a10.64,10.64,0,1,0,0-19.59Z" fill="none" stroke="#003a50" stroke-miterlimit="10"/></g><rect x="15.61" y="56.56" width="52.35" height="113.71" fill="none" stroke="#003a50" stroke-miterlimit="10"/><g clip-path="url(#clip-path)"><path d="M59,160.57H25a2.11,2.11,0,0,1-2.1-2.11V90.82H61.13v67.64A2.11,2.11,0,0,1,59,160.57Z" fill="none" stroke="#003a50" stroke-miterlimit="10"/></g><rect x="22.86" y="90.82" width="38.27" height="13.86" fill="none" stroke="#003a50" stroke-miterlimit="10"/><g clip-path="url(#clip-path)"><rect x="22.8" y="64.31" width="38.72" height="22.89" rx="2.2" fill="none" stroke="#003a50" stroke-miterlimit="10"/></g><rect x="14.42" y="214.2" width="113.42" height="34.03" fill="none" stroke="#003a50" stroke-miterlimit="10"/><g clip-path="url(#clip-path)"><path d="M32.24,243.41a1,1,0,0,0,1.9.44,28.8,28.8,0,0,0,0-25.27,1,1,0,0,0-1.8.89,26.74,26.74,0,0,1,0,23.5A1,1,0,0,0,32.24,243.41Z" fill="none" stroke="#003a50" stroke-miterlimit="10"/><path d="M37.8,243.41a1,1,0,0,0,1.91.44,28.8,28.8,0,0,0,0-25.27,1,1,0,0,0-1.34-.45,1,1,0,0,0-.46,1.34,26.83,26.83,0,0,1,0,23.5A1,1,0,0,0,37.8,243.41Z" fill="none" stroke="#003a50" stroke-miterlimit="10"/><path d="M43.37,243.41a1,1,0,0,0,1.91.44,28.8,28.8,0,0,0,0-25.27,1,1,0,0,0-1.34-.45,1,1,0,0,0-.46,1.34,26.83,26.83,0,0,1,0,23.5A.87.87,0,0,0,43.37,243.41Z" fill="none" stroke="#003a50" stroke-miterlimit="10"/><path d="M48.94,243.41a1,1,0,0,0,1.9.44,28.8,28.8,0,0,0,0-25.27,1,1,0,0,0-1.8.89A26.74,26.74,0,0,1,49,243,1,1,0,0,0,48.94,243.41Z" fill="none" stroke="#003a50" stroke-miterlimit="10"/><path d="M54.51,243.41a1,1,0,0,0,.56.9,1,1,0,0,0,1.34-.46,28.8,28.8,0,0,0,0-25.27,1,1,0,0,0-1.8.89,26.74,26.74,0,0,1,0,23.5A1,1,0,0,0,54.51,243.41Z" fill="none" stroke="#003a50" stroke-miterlimit="10"/><path d="M60.07,243.41a1,1,0,0,0,1.91.44,28.8,28.8,0,0,0,0-25.27,1,1,0,0,0-1.34-.45,1,1,0,0,0-.46,1.34,26.83,26.83,0,0,1,0,23.5A1,1,0,0,0,60.07,243.41Z" fill="none" stroke="#003a50" stroke-miterlimit="10"/><path d="M26.67,243.41a1,1,0,0,0,1.9.44,28.41,28.41,0,0,0,2.92-12.63,28.45,28.45,0,0,0-2.92-12.64,1,1,0,0,0-1.8.89,26.74,26.74,0,0,1,0,23.5A1,1,0,0,0,26.67,243.41Z" fill="none" stroke="#003a50" stroke-miterlimit="10"/><path d="M21.1,243.41a1,1,0,0,0,1.91.44,28.54,28.54,0,0,0,2.92-12.63A28.58,28.58,0,0,0,23,218.58a1,1,0,0,0-1.34-.45,1,1,0,0,0-.46,1.34,26.48,26.48,0,0,1,2.71,11.75A26.48,26.48,0,0,1,21.21,243,.87.87,0,0,0,21.1,243.41Z" fill="none" stroke="#003a50" stroke-miterlimit="10"/></g><line x1="15.11" y1="231.22" x2="127.85" y2="231.22" fill="none" stroke="#003a50" stroke-miterlimit="10"/><g clip-path="url(#clip-path)"><path d="M149.3,116.56a14.78,14.78,0,0,1-15.93-23.39,1.14,1.14,0,0,1,1.78,1.43,12.47,12.47,0,0,0,14.15,19.51Z" fill="none" stroke="#003a50" stroke-miterlimit="10"/><rect x="149.3" y="62.29" width="34.03" height="84.06" rx="3.31" fill="none" stroke="#003a50" stroke-miterlimit="10"/><path d="M179.62,143.8a1.39,1.39,0,0,0,1.39-1.4V66.23a1.4,1.4,0,0,0-2.79,0V142.4a1.4,1.4,0,0,0,1.4,1.4" fill="none" stroke="#003a50" stroke-miterlimit="10"/><path d="M165,76a5.51,5.51,0,1,0,0-7.8A5.51,5.51,0,0,0,165,76Z" fill="none" stroke="#003a50" stroke-miterlimit="10"/><path d="M164.66,75.55c1-.1,2.05.29,3-.7,1.46-1.46-.09-3,1.38-4.47s3,.09,4.47-1.38" fill="none" stroke="#003a50" stroke-miterlimit="10"/><path d="M149.3,111.85a10.63,10.63,0,1,1,0-19.59Z" fill="none" stroke="#003a50" stroke-miterlimit="10"/></g><rect x="514.04" y="488.68" width="22.69" height="22.68" fill="none" stroke="#003a50" stroke-miterlimit="10"/><g clip-path="url(#clip-path)"><path d="M531.89,493.51a9.2,9.2,0,1,0,0,13A9.2,9.2,0,0,0,531.89,493.51Z" fill="none" stroke="#003a50" stroke-miterlimit="10"/><path d="M532.51,494.21c-1.7.16-3.41-.49-5.06,1.16-2.45,2.44.14,5-2.31,7.46s-5-.13-7.45,2.3" fill="none" stroke="#003a50" stroke-miterlimit="10"/></g><rect x="379.89" y="488.68" width="22.69" height="22.68" fill="none" stroke="#003a50" stroke-miterlimit="10"/><g clip-path="url(#clip-path)"><path d="M397.74,493.51a9.2,9.2,0,1,0,0,13A9.2,9.2,0,0,0,397.74,493.51Z" fill="none" stroke="#003a50" stroke-miterlimit="10"/><path d="M398.36,494.21c-1.69.16-3.41-.49-5.06,1.16-2.44,2.44.14,5-2.3,7.46s-5-.13-7.46,2.3" fill="none" stroke="#003a50" stroke-miterlimit="10"/></g><rect x="407.38" y="488.68" width="102.08" height="113.43" fill="none" stroke="#003a50" stroke-miterlimit="10"/><g clip-path="url(#clip-path)"><path d="M417.38,592.36h82.08a2.09,2.09,0,0,0,2.09-2.08V522.61H415.29v67.67A2.09,2.09,0,0,0,417.38,592.36Z" fill="none" stroke="#003a50" stroke-miterlimit="10"/><rect x="459.29" y="496.11" width="42.52" height="22.88" rx="1.98" fill="none" stroke="#003a50" stroke-miterlimit="10"/><rect x="415.04" y="496.11" width="42.51" height="22.88" rx="1.98" fill="none" stroke="#003a50" stroke-miterlimit="10"/></g><line x1="415.04" y1="536.47" x2="501.8" y2="536.47" fill="none" stroke="#003a50" stroke-miterlimit="10"/><rect x="285.8" y="456.29" width="30.77" height="125.14" fill="none" stroke="#003a50" stroke-miterlimit="10"/><g clip-path="url(#clip-path)"><path d="M289.27,564.52a1,1,0,0,1-.43-1.86,28.07,28.07,0,0,1,24.69,0,1,1,0,1,1-.86,1.76,26.12,26.12,0,0,0-23,0A.94.94,0,0,1,289.27,564.52Z" fill="none" stroke="#003a50" stroke-miterlimit="10"/><path d="M289.27,559.08a1,1,0,0,1-.88-.55,1,1,0,0,1,.45-1.31,28.07,28.07,0,0,1,24.69,0,1,1,0,0,1,.45,1.31,1,1,0,0,1-1.31.45,26.12,26.12,0,0,0-23,0A.94.94,0,0,1,289.27,559.08Z" fill="none" stroke="#003a50" stroke-miterlimit="10"/><path d="M289.27,553.64a1,1,0,0,1-.88-.55,1,1,0,0,1,.45-1.31,28.07,28.07,0,0,1,24.69,0,1,1,0,0,1,.45,1.31,1,1,0,0,1-1.31.45,26.12,26.12,0,0,0-23,0A.94.94,0,0,1,289.27,553.64Z" fill="none" stroke="#003a50" stroke-miterlimit="10"/><path d="M289.27,548.2a1,1,0,0,1-.88-.55,1,1,0,0,1,.45-1.31,28.07,28.07,0,0,1,24.69,0,1,1,0,0,1,.45,1.3,1,1,0,0,1-1.31.46,26.12,26.12,0,0,0-23,0A1.08,1.08,0,0,1,289.27,548.2Z" fill="none" stroke="#003a50" stroke-miterlimit="10"/><path d="M289.27,542.76a1,1,0,0,1-.88-.55,1,1,0,0,1,.45-1.31,28.07,28.07,0,0,1,24.69,0,1,1,0,0,1,.45,1.3,1,1,0,0,1-1.31.46,26.12,26.12,0,0,0-23,0A1.08,1.08,0,0,1,289.27,542.76Z" fill="none" stroke="#003a50" stroke-miterlimit="10"/><path d="M289.27,537.32a1,1,0,0,1-.88-.55,1,1,0,0,1,.45-1.31,28.07,28.07,0,0,1,24.69,0,1,1,0,0,1,.45,1.3,1,1,0,0,1-1.31.46,26.12,26.12,0,0,0-23,0A1.08,1.08,0,0,1,289.27,537.32Z" fill="none" stroke="#003a50" stroke-miterlimit="10"/><path d="M289.27,570a1,1,0,0,1-.43-1.86,28.07,28.07,0,0,1,24.69,0,1,1,0,1,1-.86,1.76,26.12,26.12,0,0,0-23,0A.94.94,0,0,1,289.27,570Z" fill="none" stroke="#003a50" stroke-miterlimit="10"/><path d="M289.27,575.4a1,1,0,0,1-.43-1.86,28.07,28.07,0,0,1,24.69,0,1,1,0,1,1-.86,1.76,26.12,26.12,0,0,0-23,0A.94.94,0,0,1,289.27,575.4Z" fill="none" stroke="#003a50" stroke-miterlimit="10"/></g><line x1="301.19" y1="581.25" x2="301.19" y2="456.46" fill="none" stroke="#003a50" stroke-miterlimit="10"/><rect x="185.06" y="456.37" width="26.6" height="64.82" fill="none" stroke="#003a50" stroke-miterlimit="10"/><g clip-path="url(#clip-path)"><path d="M188.06,506.57a.83.83,0,0,1-.76-.47.84.84,0,0,1,.38-1.13A24.3,24.3,0,0,1,209,505a.84.84,0,0,1,.38,1.13.85.85,0,0,1-1.13.39,22.56,22.56,0,0,0-19.85,0A.83.83,0,0,1,188.06,506.57Z" fill="none" stroke="#003a50" stroke-miterlimit="10"/><path d="M188.06,501.87a.83.83,0,0,1-.76-.47.85.85,0,0,1,.38-1.14,24.39,24.39,0,0,1,21.35,0,.85.85,0,0,1,.38,1.14.84.84,0,0,1-1.13.38,22.65,22.65,0,0,0-19.85,0A.84.84,0,0,1,188.06,501.87Z" fill="none" stroke="#003a50" stroke-miterlimit="10"/><path d="M188.06,497.17a.85.85,0,0,1-.38-1.61,24.3,24.3,0,0,1,21.35,0,.85.85,0,0,1-.75,1.52,22.65,22.65,0,0,0-19.85,0A.84.84,0,0,1,188.06,497.17Z" fill="none" stroke="#003a50" stroke-miterlimit="10"/><path d="M188.06,492.47a.85.85,0,0,1-.38-1.61,24.3,24.3,0,0,1,21.35,0,.85.85,0,0,1-.75,1.52,22.56,22.56,0,0,0-19.85,0A.84.84,0,0,1,188.06,492.47Z" fill="none" stroke="#003a50" stroke-miterlimit="10"/><path d="M188.06,487.76a.83.83,0,0,1-.76-.47.84.84,0,0,1,.38-1.13,24.3,24.3,0,0,1,21.35,0,.84.84,0,0,1,.38,1.13.85.85,0,0,1-1.13.39,22.56,22.56,0,0,0-19.85,0A.83.83,0,0,1,188.06,487.76Z" fill="none" stroke="#003a50" stroke-miterlimit="10"/><path d="M188.06,483.06a.83.83,0,0,1-.76-.47.85.85,0,0,1,.38-1.14,24.39,24.39,0,0,1,21.35,0,.85.85,0,0,1,.38,1.14.84.84,0,0,1-1.13.38,22.65,22.65,0,0,0-19.85,0A.84.84,0,0,1,188.06,483.06Z" fill="none" stroke="#003a50" stroke-miterlimit="10"/><path d="M188.06,511.28a.85.85,0,0,1-.38-1.61,24.3,24.3,0,0,1,21.35,0,.85.85,0,0,1-.75,1.52,22.56,22.56,0,0,0-19.85,0A.84.84,0,0,1,188.06,511.28Z" fill="none" stroke="#003a50" stroke-miterlimit="10"/><path d="M188.06,516a.85.85,0,0,1-.38-1.61,24.3,24.3,0,0,1,21.35,0,.85.85,0,0,1-.75,1.52,22.56,22.56,0,0,0-19.85,0A.84.84,0,0,1,188.06,516Z" fill="none" stroke="#003a50" stroke-miterlimit="10"/></g><line x1="198.35" y1="521.04" x2="198.35" y2="456.52" fill="none" stroke="#003a50" stroke-miterlimit="10"/><rect x="84.55" y="451.55" width="49.88" height="31.34" fill="none" stroke="#003a50" stroke-miterlimit="10"/><g clip-path="url(#clip-path)"><path d="M102.58,477.45a.82.82,0,0,0,.47.75.84.84,0,0,0,1.13-.38,24.16,24.16,0,0,0,0-21.2.84.84,0,0,0-1.13-.38.82.82,0,0,0-.38,1.12,22.46,22.46,0,0,1,0,19.72A.81.81,0,0,0,102.58,477.45Z" fill="none" stroke="#003a50" stroke-miterlimit="10"/><path d="M107.25,477.45a.84.84,0,0,0,1.6.37,24.16,24.16,0,0,0,0-21.2.84.84,0,0,0-1.13-.38.82.82,0,0,0-.38,1.12,22.46,22.46,0,0,1,0,19.72A.81.81,0,0,0,107.25,477.45Z" fill="none" stroke="#003a50" stroke-miterlimit="10"/><path d="M111.92,477.45a.84.84,0,0,0,1.6.37,24.16,24.16,0,0,0,0-21.2.84.84,0,0,0-1.13-.38.82.82,0,0,0-.38,1.12,22.46,22.46,0,0,1,0,19.72A.81.81,0,0,0,111.92,477.45Z" fill="none" stroke="#003a50" stroke-miterlimit="10"/><path d="M116.59,477.45a.84.84,0,0,0,1.6.37,24.16,24.16,0,0,0,0-21.2.84.84,0,0,0-1.51.74,22.46,22.46,0,0,1,0,19.72A.81.81,0,0,0,116.59,477.45Z" fill="none" stroke="#003a50" stroke-miterlimit="10"/><path d="M121.26,477.45a.84.84,0,0,0,1.6.37,24.16,24.16,0,0,0,0-21.2.83.83,0,0,0-1.12-.38.84.84,0,0,0-.39,1.12,22.46,22.46,0,0,1,0,19.72A.81.81,0,0,0,121.26,477.45Z" fill="none" stroke="#003a50" stroke-miterlimit="10"/><path d="M125.93,477.45a.85.85,0,0,0,1.6.37,24.16,24.16,0,0,0,0-21.2.83.83,0,0,0-1.12-.38.84.84,0,0,0-.39,1.12,22.46,22.46,0,0,1,0,19.72A.81.81,0,0,0,125.93,477.45Z" fill="none" stroke="#003a50" stroke-miterlimit="10"/><path d="M97.91,477.45a.83.83,0,0,0,.46.75.85.85,0,0,0,1.14-.38,24.24,24.24,0,0,0,0-21.2.85.85,0,0,0-1.52.74,22.46,22.46,0,0,1,0,19.72A.8.8,0,0,0,97.91,477.45Z" fill="none" stroke="#003a50" stroke-miterlimit="10"/><path d="M93.24,477.45a.82.82,0,0,0,.47.75.84.84,0,0,0,1.13-.38,24.24,24.24,0,0,0,0-21.2.85.85,0,0,0-1.52.74,22.46,22.46,0,0,1,0,19.72A.8.8,0,0,0,93.24,477.45Z" fill="none" stroke="#003a50" stroke-miterlimit="10"/></g><line x1="84.7" y1="467.22" x2="134.28" y2="467.22" fill="none" stroke="#003a50" stroke-miterlimit="10"/><rect x="217.94" y="639.49" width="98.73" height="30.77" fill="none" stroke="#003a50" stroke-miterlimit="10"/><g clip-path="url(#clip-path)"><path d="M299.76,666.79a1,1,0,0,1-.54.88,1,1,0,0,1-1.32-.44,28.18,28.18,0,0,1,0-24.7,1,1,0,0,1,1.31-.44,1,1,0,0,1,.45,1.31,26.19,26.19,0,0,0,0,23A1,1,0,0,1,299.76,666.79Z" fill="none" stroke="#003a50" stroke-miterlimit="10"/><path d="M294.32,666.79a1,1,0,0,1-.54.88,1,1,0,0,1-1.32-.44,28.18,28.18,0,0,1,0-24.7,1,1,0,0,1,1.31-.44,1,1,0,0,1,.45,1.31,26.19,26.19,0,0,0,0,23A1,1,0,0,1,294.32,666.79Z" fill="none" stroke="#003a50" stroke-miterlimit="10"/><path d="M288.88,666.79a1,1,0,0,1-.55.88,1,1,0,0,1-1.31-.44,28.18,28.18,0,0,1,0-24.7,1,1,0,0,1,1.31-.44,1,1,0,0,1,.45,1.31,26.19,26.19,0,0,0,0,23A1,1,0,0,1,288.88,666.79Z" fill="none" stroke="#003a50" stroke-miterlimit="10"/><path d="M283.44,666.79a1,1,0,0,1-.55.88,1,1,0,0,1-1.31-.44,28.18,28.18,0,0,1,0-24.7,1,1,0,0,1,1.31-.44,1,1,0,0,1,.45,1.31,26.19,26.19,0,0,0,0,23A1,1,0,0,1,283.44,666.79Z" fill="none" stroke="#003a50" stroke-miterlimit="10"/><path d="M278,666.79a1,1,0,0,1-.55.88,1,1,0,0,1-1.31-.44,28.09,28.09,0,0,1,0-24.7,1,1,0,0,1,1.76.87,26.1,26.1,0,0,0,0,23A1,1,0,0,1,278,666.79Z" fill="none" stroke="#003a50" stroke-miterlimit="10"/><path d="M272.56,666.79a1,1,0,0,1-.55.88,1,1,0,0,1-1.31-.44,28.09,28.09,0,0,1,0-24.7,1,1,0,0,1,1.76.87,26.1,26.1,0,0,0,0,23A1,1,0,0,1,272.56,666.79Z" fill="none" stroke="#003a50" stroke-miterlimit="10"/><path d="M305.2,666.79a1,1,0,0,1-.54.88,1,1,0,0,1-1.32-.44,28.18,28.18,0,0,1,0-24.7,1,1,0,0,1,1.31-.44,1,1,0,0,1,.45,1.31,26.19,26.19,0,0,0,0,23A1,1,0,0,1,305.2,666.79Z" fill="none" stroke="#003a50" stroke-miterlimit="10"/><path d="M310.65,666.79a1,1,0,0,1-1.86.44,28.09,28.09,0,0,1,0-24.7,1,1,0,0,1,1.3-.44,1,1,0,0,1,.46,1.31,26.1,26.1,0,0,0,0,23A1.12,1.12,0,0,1,310.65,666.79Z" fill="none" stroke="#003a50" stroke-miterlimit="10"/></g><line x1="316.5" y1="654.88" x2="218.11" y2="654.88" fill="none" stroke="#003a50" stroke-miterlimit="10"/><rect x="283.54" y="253.66" width="34.03" height="131.37" fill="none" stroke="#003a50" stroke-miterlimit="10"/><rect x="317.56" y="253.66" width="49.2" height="33.38" fill="none" stroke="#003a50" stroke-miterlimit="10"/><rect x="283.53" y="287.03" width="34.03" height="34.03" fill="none" stroke="#003a50" stroke-miterlimit="10"/><line x1="300.55" y1="306.07" x2="300.55" y2="316.63" fill="none" stroke="#003a50" stroke-miterlimit="10"/><g clip-path="url(#clip-path)"><path d="M299.64,306.07h1.82a3.4,3.4,0,0,0,3.39-3.4v-11.2h-8.6v11.2A3.4,3.4,0,0,0,299.64,306.07Z" fill="none" stroke="#003a50" stroke-miterlimit="10"/></g><line x1="304.03" y1="316.63" x2="297.08" y2="316.63" fill="none" stroke="#003a50" stroke-miterlimit="10"/><rect x="283.54" y="335.34" width="34.03" height="34.03" fill="none" stroke="#003a50" stroke-miterlimit="10"/><g clip-path="url(#clip-path)"><circle cx="292.83" cy="359.94" r="4.69" transform="translate(-53.87 51.55) rotate(-9.22)" fill="none" stroke="#003a50" stroke-miterlimit="10"/><circle cx="308.27" cy="359.94" r="4.69" transform="translate(-53.68 54.03) rotate(-9.22)" fill="none" stroke="#003a50" stroke-miterlimit="10"/><circle cx="292.83" cy="344.76" r="4.69" transform="translate(-51.44 51.36) rotate(-9.22)" fill="none" stroke="#003a50" stroke-miterlimit="10"/><circle cx="308.27" cy="344.76" r="4.69" transform="translate(-51.24 53.83) rotate(-9.22)" fill="none" stroke="#003a50" stroke-miterlimit="10"/><rect x="327.13" y="261.36" width="30.07" height="21.67" rx="3.36" fill="none" stroke="#003a50" stroke-miterlimit="10"/><circle cx="342.16" cy="268.4" r="2.46" fill="none" stroke="#003a50" stroke-miterlimit="10"/></g><line x1="342.16" y1="269.16" x2="342.16" y2="255.54" fill="none" stroke="#003a50" stroke-miterlimit="10"/><line x1="335.35" y1="255.53" x2="348.97" y2="255.53" fill="none" stroke="#003a50" stroke-miterlimit="10"/><g clip-path="url(#clip-path)"><path d="M126.61,334h3.08a38.72,38.72,0,0,0,38.73-38.72H126.61" fill="none" stroke="#003a50" stroke-miterlimit="10" stroke-width="1.6"/><path d="M264,452.82v3.42a43,43,0,0,1-43,43V452.82" fill="none" stroke="#003a50" stroke-miterlimit="10" stroke-width="1.6"/><path d="M236.39,250.75v-3.42a43,43,0,0,0-43-43v46.41" fill="none" stroke="#003a50" stroke-miterlimit="10" stroke-width="1.6"/><path d="M133.31,250.75v-3.57a44.88,44.88,0,0,1,44.89-44.89v48.46" fill="none" stroke="#003a50" stroke-miterlimit="10" stroke-width="1.6"/><path d="M214.4,572.42h3.42a43,43,0,0,1,43,43H214.4" fill="none" stroke="#003a50" stroke-miterlimit="10" stroke-width="1.6"/><path d="M-44.54,432.3h3.89A48.91,48.91,0,0,0,8.26,383.39h-52.8" fill="none" stroke="#003a50" stroke-miterlimit="10" stroke-width="1.6"/><path d="M71.71,437.76H67.82a48.9,48.9,0,0,1-48.91-48.9h52.8" fill="none" stroke="#003a50" stroke-miterlimit="10" stroke-width="1.6"/><path d="M-46.83,712.7h4.06A51.14,51.14,0,0,0,8.38,661.56H-46.83" fill="none" stroke="#003a50" stroke-miterlimit="10" stroke-width="1.6"/><line x1="211.44" y1="446.07" x2="156.93" y2="446.07" fill="none" stroke="#003a50" stroke-miterlimit="10" stroke-width="1.6"/><rect x="185.42" y="3.73" width="26.7" height="47.85" fill="#003a50"/><rect x="116.43" y="23.47" width="91.7" height="28.11" fill="#003a50"/><rect x="8.2" y="3.73" width="26.7" height="47.85" fill="#003a50"/><rect x="-60.8" y="23.47" width="91.7" height="28.11" fill="#003a50"/><rect x="368.14" y="3.73" width="26.7" height="47.85" fill="#003a50"/><rect x="299.15" y="23.47" width="91.7" height="28.11" fill="#003a50"/><rect x="-55.85" y="30.41" width="77.36" height="27.34" fill="#003a50"/><rect x="310.52" y="30.41" width="77.36" height="27.34" fill="#003a50"/><rect x="316.57" y="474.89" width="80.03" height="13.79" fill="#003a50"/><rect x="-57.5" y="364.21" width="142.05" height="16.7" fill="#003a50"/><rect x="68.23" y="372.75" width="16.32" height="16.8" fill="#003a50"/><rect x="68.23" y="436.81" width="16.32" height="201.15" fill="#003a50"/><rect x="68.23" y="629.78" width="16.32" height="21.07" fill="#003a50"/><rect x="103.31" y="637.96" width="10.75" height="78.7" fill="#003a50"/><rect x="71.71" y="635.61" width="42.35" height="15.55" fill="#003a50"/><rect x="103.31" y="670.27" width="447.88" height="16.32" fill="#003a50"/><rect x="-1.02" y="53.38" width="16.32" height="314.9" fill="#003a50"/><rect x="547.19" y="648.67" width="29.11" height="96.1" fill="#003a50"/><rect x="547.19" y="190.59" width="29.11" height="96.18" fill="#003a50"/><rect x="547.19" y="468.63" width="29.11" height="96.1" fill="#003a50"/><rect x="551.19" y="538.81" width="44.35" height="25.92" fill="#003a50"/><rect x="547.19" y="362.59" width="48.35" height="25.92" fill="#003a50"/><rect x="547.19" y="190.59" width="48.35" height="27.94" fill="#003a50"/><rect x="541.22" y="210.22" width="11.26" height="75.99" fill="#003a50"/><rect x="541.22" y="468.65" width="11.26" height="77.33" fill="#003a50"/><rect x="569.62" y="3.96" width="25.92" height="26.45" fill="#003a50"/><rect x="-124.7" y="248.49" width="125.51" height="6.38" fill="#003a50"/></g><rect x="123.86" y="251.24" width="6.38" height="44.82" fill="#003a50"/><rect x="13.78" y="248.49" width="70.77" height="6.38" fill="#003a50"/><rect x="13.79" y="280.11" width="25.65" height="6.38" fill="#003a50"/><rect x="123.86" y="333.12" width="6.38" height="52.07" fill="#003a50"/><rect x="263.19" y="450.07" width="58.86" height="6.38" fill="#003a50"/><rect x="235.55" y="247.12" width="131.48" height="6.38" fill="#003a50"/><rect x="184.41" y="47.73" width="6.38" height="200.76" fill="#003a50"/><rect x="178.2" y="247.12" width="16.13" height="6.38" fill="#003a50"/><rect x="316.57" y="450.07" width="6.38" height="131.36" fill="#003a50"/><rect x="388.48" y="482.3" width="158.37" height="6.38" fill="#003a50"/><rect x="316.57" y="636.7" width="6.38" height="41.73" fill="#003a50"/><rect x="211.65" y="452.82" width="6.38" height="120.43" fill="#003a50"/><rect x="116.5" y="521.18" width="98.34" height="6.38" fill="#003a50"/><rect x="82.99" y="483.01" width="57.82" height="6.38" fill="#003a50"/><rect x="134.43" y="450.07" width="6.38" height="37.06" fill="#003a50"/><rect x="211.65" y="614.3" width="6.38" height="60.5" fill="#003a50"/><rect x="136.77" y="450.07" width="6.38" height="6.38" fill="#003a50"/><rect x="184.18" y="450.07" width="37.96" height="6.38" fill="#003a50"/><rect x="185.3" y="378.95" width="86.73" height="6.38" fill="#003a50"/><rect x="242.53" y="252.23" width="6.38" height="29.32" fill="#003a50"/><rect x="246.57" y="275.17" width="35.17" height="6.38" fill="#003a50"/><rect x="267.15" y="250.31" width="16.38" height="135.02" fill="#003a50"/><rect x="36.77" y="361.74" width="91.1" height="8.86" fill="#003a50"/><rect x="2.09" y="248.49" width="131.84" height="6.38" fill="#003a50"/><rect x="360.65" y="52.98" width="6.38" height="200.51" fill="#003a50"/><rect x="34.33" y="251.89" width="6.38" height="118.7" fill="#003a50"/><rect y="328" width="0.81" height="6.38" fill="#003a50"/><rect x="109.8" y="647.97" width="23.58" height="6.38" fill="#003a50"/><rect x="130.19" y="647.97" width="6.38" height="28.25" fill="#003a50"/><rect x="68.23" y="643.38" width="6.38" height="7.52" fill="#003a50"/><rect x="229.15" y="677.31" width="6.38" height="8.67" fill="#003a50"/><rect x="78.46" y="567.57" width="41.24" height="6.38" fill="#003a50"/><rect x="83.93" y="532.88" width="33.65" height="6.38" fill="#003a50"/><polygon points="99.72 648.95 99.72 650.91 99.92 650.91 99.92 685.99 106.09 685.99 106.09 648.95 99.72 648.95" fill="#003a50"/><rect x="113.32" y="485.39" width="6.38" height="86.36" fill="#003a50"/><line x1="321.37" y1="568.17" x2="321.37" y2="571.01" fill="none" stroke="#003a50" stroke-miterlimit="10"/><line x1="321.37" y1="576.25" x2="321.37" y2="636.53" fill="none" stroke="#003a50" stroke-miterlimit="10" stroke-dasharray="5.24 5.24"/><line x1="321.37" y1="639.15" x2="321.37" y2="641.98" fill="none" stroke="#003a50" stroke-miterlimit="10"/><g clip-path="url(#clip-path)"><path d="M152.06,606.35a5,5,0,0,1,3.34,1.07,4.19,4.19,0,0,1,0,6,5.41,5.41,0,0,1-3.55,1.08,5.8,5.8,0,0,1-3.57-1,3.15,3.15,0,0,1-1.29-2.68h2.11a1.52,1.52,0,0,0,.71,1.33,3.51,3.51,0,0,0,2,.49,3.17,3.17,0,0,0,2-.57,2.06,2.06,0,0,0,.7-1.69,2,2,0,0,0-.73-1.7,3.28,3.28,0,0,0-2.08-.59,3.6,3.6,0,0,0-1.92.42,2,2,0,0,0-.7.64l-.05.12H147v-6.88h8.89v1.85h-6.78v3h.05a2.22,2.22,0,0,1,.4-.31,3.11,3.11,0,0,1,.55-.27A5.66,5.66,0,0,1,152.06,606.35Z" fill="#003a50"/><path d="M158.76,614.21a1.17,1.17,0,0,1,0-1.61,1.25,1.25,0,0,1,.88-.3,1.2,1.2,0,0,1,.86.3,1.15,1.15,0,0,1,0,1.61,1.2,1.2,0,0,1-.86.3A1.25,1.25,0,0,1,158.76,614.21Z" fill="#003a50"/><path d="M172.56,614.34h-9.95v-1.56a2.8,2.8,0,0,1,.59-1.75,3.87,3.87,0,0,1,1.44-1.19c.5-.26,1.12-.55,1.87-.87s1.33-.56,1.88-.77a4.23,4.23,0,0,0,1.45-.92,1.78,1.78,0,0,0,.57-1.3q0-1.89-2.67-1.89t-2.67,2.16v.41H163v-.41a3.62,3.62,0,0,1,1.27-3,5.36,5.36,0,0,1,3.51-1,5.66,5.66,0,0,1,3.52,1,3.27,3.27,0,0,1,1.27,2.75,3.1,3.1,0,0,1-.56,1.84,4.26,4.26,0,0,1-1.4,1.3,18.66,18.66,0,0,1-1.84.93q-.93.42-1.83.75a5.26,5.26,0,0,0-1.4.75,1.22,1.22,0,0,0-.57,1h7.64Z" fill="#003a50"/><path d="M293.78,602.17h-2.21s0-.06,0-.17a2.22,2.22,0,0,0-.22-.44,2.07,2.07,0,0,0-.38-.5,1.8,1.8,0,0,0-.71-.41,3,3,0,0,0-1-.17,2.55,2.55,0,0,0-2.16,1,4.44,4.44,0,0,0-.76,2.69h.06a1.63,1.63,0,0,1,.44-.43,3.55,3.55,0,0,1,.61-.37,3.67,3.67,0,0,1,1-.3,5.41,5.41,0,0,1,1.21-.13,5.06,5.06,0,0,1,3.38,1.11,3.52,3.52,0,0,1,1.31,2.8,3.57,3.57,0,0,1-1.37,2.91,5.5,5.5,0,0,1-3.61,1.11,4.81,4.81,0,0,1-3.87-1.55,6.36,6.36,0,0,1-1.32-4.27v-.41a6.85,6.85,0,0,1,1.32-4.31,4.52,4.52,0,0,1,3.81-1.71,5.7,5.7,0,0,1,2.13.37,3.87,3.87,0,0,1,1.43.94A3.46,3.46,0,0,1,293.78,602.17Zm-2.51,3.15a3.67,3.67,0,0,0-4,0,2,2,0,0,0,0,3.15,3.65,3.65,0,0,0,4,0,2,2,0,0,0,0-3.15Z" fill="#003a50"/><path d="M296.43,610.6a1.17,1.17,0,0,1,0-1.61,1.41,1.41,0,0,1,1.74,0,1.17,1.17,0,0,1,0,1.61,1.41,1.41,0,0,1-1.74,0Z" fill="#003a50"/><path d="M300.57,607.38h2.21s0,.07,0,.18a2.71,2.71,0,0,0,.23.43,2.07,2.07,0,0,0,1.16.91,3.27,3.27,0,0,0,1.06.16,2.66,2.66,0,0,0,2.24-1.06,4.34,4.34,0,0,0,.81-2.71h-.06a2,2,0,0,1-.44.46,2.42,2.42,0,0,1-.6.4,3.71,3.71,0,0,1-1,.33,5.58,5.58,0,0,1-1.23.13,5,5,0,0,1-3.36-1.13,3.72,3.72,0,0,1,.05-5.73,5.49,5.49,0,0,1,3.6-1.1,4.81,4.81,0,0,1,3.88,1.54,6.4,6.4,0,0,1,1.32,4.27v.41a6.73,6.73,0,0,1-1.37,4.32,4.71,4.71,0,0,1-3.89,1.71,5.91,5.91,0,0,1-2.17-.38,3.85,3.85,0,0,1-1.48-.94A3.33,3.33,0,0,1,300.57,607.38Zm2.78-3.16a3.58,3.58,0,0,0,3.94,0,2,2,0,0,0,0-3.15,3.21,3.21,0,0,0-2-.59,3.17,3.17,0,0,0-2,.59,1.85,1.85,0,0,0-.78,1.57A1.87,1.87,0,0,0,303.35,604.22Z" fill="#003a50"/><path d="M475,621.68l-2.49,2v-2.25l2.74-2.27h1.86V631H475Z" fill="#003a50"/><path d="M485.83,621H480v-1.85h8.87V621l-4.53,2.65v.07h1.28a3.84,3.84,0,0,1,2.79,1,3.5,3.5,0,0,1,1.06,2.67,3.32,3.32,0,0,1-1.33,2.82,7,7,0,0,1-7.25,0,3.36,3.36,0,0,1-1.33-2.86V627h2.11v.32q0,2.05,2.85,2c1.89,0,2.84-.67,2.84-2s-.95-2-2.84-2h-3.27v-1.67l4.58-2.69Z" fill="#003a50"/><path d="M491.57,630.91a1.17,1.17,0,0,1,0-1.61,1.25,1.25,0,0,1,.88-.3,1.22,1.22,0,0,1,.86.3,1.17,1.17,0,0,1,0,1.61,1.22,1.22,0,0,1-.86.3A1.25,1.25,0,0,1,491.57,630.91Z" fill="#003a50"/><path d="M503.92,631H501.8v-2.65h-7v-1.85l6.3-7.42h2.8v7.42h1.59v1.85h-1.59Zm-2.12-4.5v-5.32h-.06l-4.48,5.27v0Z" fill="#003a50"/><path d="M96.36,184.47l-2.49,2v-2.25l2.74-2.27h1.86v11.92H96.36Z" fill="#003a50"/><path d="M103,184.47l-2.48,2v-2.25l2.73-2.27h1.86v11.92H103Z" fill="#003a50"/><path d="M107.63,193.7a1.17,1.17,0,0,1,0-1.61,1.41,1.41,0,0,1,1.74,0,1.17,1.17,0,0,1,0,1.61,1.41,1.41,0,0,1-1.74,0Z" fill="#003a50"/><path d="M121.42,193.83h-9.94v-1.56a2.79,2.79,0,0,1,.58-1.75,3.91,3.91,0,0,1,1.45-1.19c.5-.26,1.12-.55,1.87-.87s1.32-.56,1.88-.77a4.09,4.09,0,0,0,1.44-.92,1.76,1.76,0,0,0,.58-1.3q0-1.89-2.67-1.89c-1.79,0-2.68.72-2.68,2.16v.41h-2.11v-.41a3.62,3.62,0,0,1,1.26-3,5.39,5.39,0,0,1,3.52-1,5.66,5.66,0,0,1,3.52,1,3.3,3.3,0,0,1,1.27,2.75,3.17,3.17,0,0,1-.56,1.84,4.26,4.26,0,0,1-1.4,1.3,16.7,16.7,0,0,1-1.84.93q-.95.42-1.83.75a5.26,5.26,0,0,0-1.4.75,1.22,1.22,0,0,0-.57,1h7.63Z" fill="#003a50"/><path d="M238.31,184.47l-2.49,2v-2.25l2.73-2.27h1.87v11.92h-2.11Z" fill="#003a50"/><path d="M244.94,184.47l-2.49,2v-2.25l2.74-2.27h1.86v11.92h-2.11Z" fill="#003a50"/><path d="M249.58,193.7a1.15,1.15,0,0,1,0-1.61,1.4,1.4,0,0,1,1.73,0,1.15,1.15,0,0,1,0,1.61,1.4,1.4,0,0,1-1.73,0Z" fill="#003a50"/><path d="M255.49,184.47l-2.49,2v-2.25l2.74-2.27h1.86v11.92h-2.11Z" fill="#003a50"/><path d="M481,248.38h-5.83v-1.85H484v1.85L479.46,251v.07h1.28a3.89,3.89,0,0,1,2.79,1,3.5,3.5,0,0,1,1.06,2.67,3.34,3.34,0,0,1-1.33,2.83,7,7,0,0,1-7.25,0,3.37,3.37,0,0,1-1.33-2.86v-.33h2.11v.33c0,1.36.95,2,2.85,2s2.84-.66,2.84-2-1-2-2.84-2h-3.27v-1.67l4.58-2.68Z" fill="#003a50"/><path d="M488.69,249.09l-2.49,2V248.8l2.74-2.27h1.86v11.92h-2.11Z" fill="#003a50"/><path d="M493.33,258.32a1,1,0,0,1-.33-.8,1,1,0,0,1,.33-.81,1.4,1.4,0,0,1,1.73,0,1,1,0,0,1,.33.81,1,1,0,0,1-.33.8,1.4,1.4,0,0,1-1.73,0Z" fill="#003a50"/><path d="M497.47,255.1h2.21s0,.08,0,.18a2.51,2.51,0,0,0,.64.92,2,2,0,0,0,.75.42,3.21,3.21,0,0,0,1.05.16,2.68,2.68,0,0,0,2.25-1.06,4.38,4.38,0,0,0,.8-2.71h-.06a2.24,2.24,0,0,1-.44.47,2.52,2.52,0,0,1-.59.39,3.8,3.8,0,0,1-1,.33,5.43,5.43,0,0,1-1.22.13,5,5,0,0,1-3.37-1.13,3.74,3.74,0,0,1,.05-5.73,5.57,5.57,0,0,1,3.61-1.1,4.81,4.81,0,0,1,3.87,1.54,6.42,6.42,0,0,1,1.32,4.28v.4a6.65,6.65,0,0,1-1.37,4.32,4.69,4.69,0,0,1-3.89,1.71,6,6,0,0,1-2.17-.37,3.86,3.86,0,0,1-1.48-.95A3.31,3.31,0,0,1,497.47,255.1Zm2.77-3.16a3.6,3.6,0,0,0,3.95,0,1.86,1.86,0,0,0,.78-1.57,1.89,1.89,0,0,0-.77-1.58,3.22,3.22,0,0,0-2-.58,3.17,3.17,0,0,0-2,.58,1.86,1.86,0,0,0-.78,1.58A1.89,1.89,0,0,0,500.24,251.94Z" fill="#003a50"/><path d="M153,465.57l-2.48,2v-2.25l2.73-2.27h1.86v11.92H153Z" fill="#003a50"/><path d="M157.67,474.8a1.17,1.17,0,0,1,0-1.61,1.41,1.41,0,0,1,1.74,0,1.17,1.17,0,0,1,0,1.61,1.41,1.41,0,0,1-1.74,0Z" fill="#003a50"/><path d="M170.26,474.17a6.43,6.43,0,0,1-3.68.93,6.5,6.5,0,0,1-3.69-.94,3,3,0,0,1-1.37-2.56,2.57,2.57,0,0,1,.26-1.17,2.37,2.37,0,0,1,.65-.85,3.74,3.74,0,0,1,1.4-.77l.26-.07v-.09a3.38,3.38,0,0,1-.77-.29,2.91,2.91,0,0,1-.66-.44,2.35,2.35,0,0,1-.54-.76,2.42,2.42,0,0,1-.23-1,2.82,2.82,0,0,1,1.26-2.39,5.74,5.74,0,0,1,3.42-.89,5.85,5.85,0,0,1,3.44.89,2.83,2.83,0,0,1,1.24,2.39,2.43,2.43,0,0,1-.22,1,1.9,1.9,0,0,1-.55.75,3.72,3.72,0,0,1-1.2.68l-.22,0v.09l.28.07a3.62,3.62,0,0,1,.62.26,4.79,4.79,0,0,1,.78.51,2.69,2.69,0,0,1,.61.82,2.58,2.58,0,0,1,.28,1.2A3,3,0,0,1,170.26,474.17Zm-5.79-1.36a3.84,3.84,0,0,0,2.1.48,3.91,3.91,0,0,0,2.11-.47,1.6,1.6,0,0,0,0-2.7,4,4,0,0,0-2.11-.47,3.94,3.94,0,0,0-2.1.47,1.53,1.53,0,0,0-.74,1.35A1.5,1.5,0,0,0,164.47,472.81Zm-.37-6.52a1.37,1.37,0,0,0,.65,1.19,4,4,0,0,0,3.65,0,1.42,1.42,0,0,0,0-2.39,3.94,3.94,0,0,0-3.62,0A1.36,1.36,0,0,0,164.1,466.29Z" fill="#003a50"/><path d="M108.17,397.32l-2.48,2V397l2.73-2.27h1.86v11.92h-2.11Z" fill="#003a50"/><path d="M114.31,405.14a6.42,6.42,0,0,1-1.48-4.42,6.49,6.49,0,0,1,1.48-4.42,5.72,5.72,0,0,1,8.14,0,6.54,6.54,0,0,1,1.48,4.42,6.47,6.47,0,0,1-1.48,4.42,5.7,5.7,0,0,1-8.14,0Zm6.53-1.38a5.75,5.75,0,0,0,0-6.08,3.15,3.15,0,0,0-4.92,0,5.69,5.69,0,0,0,0,6.08,3.15,3.15,0,0,0,4.92,0Z" fill="#003a50"/><path d="M126.12,406.55a1.17,1.17,0,0,1,0-1.61,1.41,1.41,0,0,1,1.74,0,1.17,1.17,0,0,1,0,1.61,1.41,1.41,0,0,1-1.74,0Z" fill="#003a50"/><path d="M139.75,398.12h-2.21s0-.06,0-.17a1.69,1.69,0,0,0-.21-.44,2.4,2.4,0,0,0-.39-.5,1.73,1.73,0,0,0-.71-.41,3,3,0,0,0-1-.17,2.52,2.52,0,0,0-2.15,1,4.44,4.44,0,0,0-.77,2.69h.06a1.8,1.8,0,0,1,.44-.43,3.55,3.55,0,0,1,.61-.37,3.81,3.81,0,0,1,.95-.3,5.49,5.49,0,0,1,1.22-.13,5,5,0,0,1,3.37,1.11,3.52,3.52,0,0,1,1.31,2.8,3.57,3.57,0,0,1-1.37,2.91,5.49,5.49,0,0,1-3.6,1.11,4.83,4.83,0,0,1-3.88-1.55,6.36,6.36,0,0,1-1.32-4.27v-.41a6.85,6.85,0,0,1,1.32-4.31,4.52,4.52,0,0,1,3.81-1.71,5.66,5.66,0,0,1,2.13.37,3.84,3.84,0,0,1,1.44.94A3.45,3.45,0,0,1,139.75,398.12Zm-2.51,3.15a3.65,3.65,0,0,0-4,0,2,2,0,0,0,0,3.15,3.15,3.15,0,0,0,2,.59,3.2,3.2,0,0,0,2-.59,1.85,1.85,0,0,0,.77-1.57A1.88,1.88,0,0,0,137.24,401.27Z" fill="#003a50"/><path d="M100.19,314.57H94.36v-1.85h8.87v1.85l-4.53,2.65v.07H100a3.91,3.91,0,0,1,2.8,1,3.52,3.52,0,0,1,1,2.67,3.34,3.34,0,0,1-1.33,2.83,7,7,0,0,1-7.25,0,3.4,3.4,0,0,1-1.33-2.86v-.33H96v.33c0,1.36,1,2,2.85,2s2.84-.66,2.84-2-1-2-2.84-2H95.61v-1.67l4.58-2.68Z" fill="#003a50"/><path d="M105.93,324.51a1,1,0,0,1-.32-.81,1.06,1.06,0,0,1,.32-.8,1.25,1.25,0,0,1,.88-.3,1.2,1.2,0,0,1,.86.3,1,1,0,0,1,.33.8,1,1,0,0,1-.33.81,1.2,1.2,0,0,1-.86.3A1.25,1.25,0,0,1,105.93,324.51Z" fill="#003a50"/><path d="M111.84,315.28l-2.48,2V315l2.73-2.27H114v11.92h-2.12Z" fill="#003a50"/></g></svg>