<svg id="Слой_1" data-name="Слой 1" xmlns="http://www.w3.org/2000/svg" xmlns:xlink="http://www.w3.org/1999/xlink" viewBox="0 0 583.94 383.81"><defs><clipPath id="clip-path"><polygon points="82.96 0.42 82.96 36.99 0 36.99 0 210.05 91.28 210.05 91.28 230.23 236.47 230.23 236.47 383.39 582.24 383.39 582.24 0.42 82.96 0.42" fill="none"/></clipPath></defs><rect x="246.04" y="376.96" width="285.5" height="6.43" fill="#fff"/><polygon points="82.96 0.42 82.96 36.99 56.4 36.99 56.4 42.81 67.48 59.09 67.48 108.44 64.99 200.11 93.54 200.11 93.54 219.03 241.42 219.03 241.42 381.82 531.55 381.82 531.55 16.7 83.68 16.7 83.68 0.42 82.96 0.42" fill="#fff"/><rect x="87.89" y="0.43" width="442.99" height="9.71" fill="#fff"/><g clip-path="url(#clip-path)"><rect x="-560.64" y="-643.16" width="1115.44" height="2194.74" fill="none" stroke="#003a50" stroke-miterlimit="10"/><polygon points="-535.82 442.56 -535.82 1528.62 530.66 1528.62 530.66 -619.25 -535.82 -619.4 -535.82 373.75 -535.82 442.56" fill="none" stroke="#003a50" stroke-miterlimit="10"/></g><rect x="541.58" y="75.07" width="4.56" height="90.12" fill="#fff"/><rect x="541.58" y="75.07" width="4.56" height="90.12" fill="none" stroke="#003a50" stroke-miterlimit="10"/><line x1="543.86" y1="165.19" x2="543.86" y2="75.07" fill="none" stroke="#003a50" stroke-miterlimit="10"/><rect x="541.58" y="160.63" width="4.56" height="4.55" fill="#fff"/><rect x="541.58" y="160.63" width="4.56" height="4.55" fill="none" stroke="#003a50" stroke-miterlimit="10"/><rect x="541.58" y="75.06" width="4.56" height="4.55" fill="#fff"/><rect x="541.58" y="75.06" width="4.56" height="4.55" fill="none" stroke="#003a50" stroke-miterlimit="10"/><rect x="541.58" y="117.85" width="4.56" height="4.55" fill="#fff"/><rect x="541.58" y="117.85" width="4.56" height="4.55" fill="none" stroke="#003a50" stroke-miterlimit="10"/><rect x="541.58" y="260.99" width="4.56" height="84.68" fill="#fff"/><rect x="541.58" y="260.99" width="4.56" height="84.68" fill="none" stroke="#003a50" stroke-miterlimit="10"/><line x1="543.86" y1="345.67" x2="543.86" y2="260.99" fill="none" stroke="#003a50" stroke-miterlimit="10"/><rect x="541.58" y="341.4" width="4.56" height="4.27" fill="#fff"/><rect x="541.58" y="341.4" width="4.56" height="4.27" fill="none" stroke="#003a50" stroke-miterlimit="10"/><rect x="541.58" y="260.99" width="4.56" height="4.27" fill="#fff"/><rect x="541.58" y="260.99" width="4.56" height="4.27" fill="none" stroke="#003a50" stroke-miterlimit="10"/><rect x="541.58" y="301.19" width="4.56" height="4.27" fill="#fff"/><rect x="541.58" y="301.19" width="4.56" height="4.27" fill="none" stroke="#003a50" stroke-miterlimit="10"/><g clip-path="url(#clip-path)"><path d="M119,191.87a3.13,3.13,0,0,0,2.9-2h1.79l4.73,2.83-2.15,3.5-2.46-1.35v11h-10.3v-11l-2.47,1.35-2.15-3.5,4.78-2.83h2.38A3.21,3.21,0,0,0,119,191.87Z" fill="none" stroke="#003a50" stroke-miterlimit="10"/></g><rect x="102.88" y="182.69" width="31.58" height="30.43" fill="none" stroke="#003a50" stroke-miterlimit="10"/><rect x="218.45" y="115.74" width="31.66" height="31.62" fill="none" stroke="#003a50" stroke-miterlimit="10"/><g clip-path="url(#clip-path)"><path d="M230.28,130.13V119.85h8v10.28a3.3,3.3,0,0,1-3.3,3.3h-1.41A3.3,3.3,0,0,1,230.28,130.13Z" fill="none" stroke="#003a50" stroke-miterlimit="10"/></g><polyline points="237.52 143.26 234.28 143.26 231.05 143.26" fill="none" stroke="#003a50" stroke-miterlimit="10"/><line x1="234.28" y1="133.43" x2="234.28" y2="143.26" fill="none" stroke="#003a50" stroke-miterlimit="10"/><rect x="259.73" y="179.12" width="34.03" height="34.03" fill="none" stroke="#003a50" stroke-miterlimit="10"/><g clip-path="url(#clip-path)"><circle cx="269.13" cy="203.9" r="4.64" transform="translate(-22.24 374.52) rotate(-67.5)" fill="none" stroke="#003a50" stroke-miterlimit="10"/><circle cx="269.13" cy="188.41" r="4.64" transform="translate(-7.93 364.96) rotate(-67.5)" fill="none" stroke="#003a50" stroke-miterlimit="10"/><circle cx="284.23" cy="203.9" r="4.64" transform="translate(-12.92 388.47) rotate(-67.5)" fill="none" stroke="#003a50" stroke-miterlimit="10"/><circle cx="284.23" cy="188.41" r="4.64" transform="translate(1.39 378.9) rotate(-67.5)" fill="none" stroke="#003a50" stroke-miterlimit="10"/></g><rect x="428.03" y="159.47" width="102.08" height="16.76" fill="none" stroke="#003a50" stroke-miterlimit="10"/><polygon points="522.09 167.31 479.18 170.79 436.06 167.31 436.06 164.89 522.09 164.89 522.09 167.31" fill="none" stroke="#003a50" stroke-miterlimit="10"/><g clip-path="url(#clip-path)"><rect x="390.19" y="-16.38" width="102.08" height="16.76" fill="none" stroke="#003a50" stroke-miterlimit="10"/></g><rect x="400.05" y="193.48" width="102.08" height="16.76" fill="none" stroke="#003a50" stroke-miterlimit="10"/><polygon points="408.08 202.39 450.99 198.92 494.11 202.39 494.11 204.81 408.08 204.81 408.08 202.39" fill="none" stroke="#003a50" stroke-miterlimit="10"/><g clip-path="url(#clip-path)"><path d="M305.38,78.66a1.25,1.25,0,0,1,.94,1.51,13.79,13.79,0,0,0,26.89,6.16,1.26,1.26,0,0,1,2.45.56,16.31,16.31,0,0,1-31.79-7.29A1.26,1.26,0,0,1,305.38,78.66Z" fill="none" stroke="#003a50" stroke-miterlimit="10"/><path d="M360.57,88.38a1.25,1.25,0,0,1,1.75-.33,13.79,13.79,0,0,0,15.53-22.8,1.26,1.26,0,0,1,1.42-2.08,16.31,16.31,0,0,1-18.37,27A1.27,1.27,0,0,1,360.57,88.38Z" fill="none" stroke="#003a50" stroke-miterlimit="10"/><path d="M363.07,41a1.27,1.27,0,0,1-1.33-1.18,13.79,13.79,0,0,0-27.53,1.63,1.26,1.26,0,1,1-2.51.15,16.3,16.3,0,1,1,32.55-1.93A1.25,1.25,0,0,1,363.07,41Z" fill="none" stroke="#003a50" stroke-miterlimit="10"/><path d="M319.58,95.28a12.69,12.69,0,0,1-12-15.49l2-8.88a3.53,3.53,0,0,1,4.24-2.68l13.45,3.08a23.73,23.73,0,0,0,6,9.44l-1,4.2C331,90.92,325.71,95.48,319.58,95.28Z" fill="none" stroke="#003a50" stroke-miterlimit="10"/><path d="M362.4,86.75l-2.32-1.6a23.81,23.81,0,0,0,13.64-21.32l2.52,1.72c5.05,3.44,7.41,10,5,15.64A12.71,12.71,0,0,1,362.4,86.75Z" fill="none" stroke="#003a50" stroke-miterlimit="10"/><path d="M335.55,44.46l-.12-2c-.36-6.13,3.4-12,9.32-13.49A12.67,12.67,0,0,1,360.64,40.5l.12,1.84a23.9,23.9,0,0,0-16.65-1.92A23.5,23.5,0,0,0,335.55,44.46Z" fill="none" stroke="#003a50" stroke-miterlimit="10"/><path d="M333.31,80.75a23.86,23.86,0,0,1-6-9.44,16.51,16.51,0,0,1-.6-2,23.86,23.86,0,0,1,8.85-24.85,23.5,23.5,0,0,1,8.56-4A23.87,23.87,0,0,1,373,57.82a22.12,22.12,0,0,1,.68,6,23.82,23.82,0,0,1-13.64,21.33,23.53,23.53,0,0,1-4.48,1.61A23.81,23.81,0,0,1,333.31,80.75Z" fill="none" stroke="#003a50" stroke-miterlimit="10"/></g><rect x="168.45" y="117.43" width="43.98" height="95.56" fill="none" stroke="#003a50" stroke-miterlimit="10"/><g clip-path="url(#clip-path)"><rect x="173.62" y="121.64" width="33.24" height="87.42" rx="13.7" fill="none" stroke="#003a50" stroke-miterlimit="10"/><circle cx="190.32" cy="193.93" r="2.28" transform="translate(-42.14 334.61) rotate(-76.72)" fill="none" stroke="#003a50" stroke-miterlimit="10"/><path d="M131.32,167.84H102.74V144.75h28.58a11.54,11.54,0,0,1,11.54,11.54h0A11.54,11.54,0,0,1,131.32,167.84Z" fill="none" stroke="#003a50" stroke-miterlimit="10"/></g><rect x="102.74" y="144.75" width="11.08" height="23.09" fill="none" stroke="#003a50" stroke-miterlimit="10"/><rect x="218.45" y="179.12" width="91.62" height="33.88" fill="none" stroke="#003a50" stroke-miterlimit="10"/><rect x="253.85" y="219.65" width="26.5" height="148.3" fill="none" stroke="#003a50" stroke-miterlimit="10"/><g clip-path="url(#clip-path)"><path d="M276.54,233.12a.78.78,0,0,1,.35,1.48,22.37,22.37,0,0,1-19.68,0,.78.78,0,0,1-.36-1,.78.78,0,0,1,1-.36,20.89,20.89,0,0,0,18.3,0A.71.71,0,0,1,276.54,233.12Z" fill="none" stroke="#003a50" stroke-miterlimit="10"/><path d="M276.54,237.45a.79.79,0,0,1,.7.44.77.77,0,0,1-.35,1.05,22.46,22.46,0,0,1-19.68,0,.78.78,0,0,1-.36-1.05.79.79,0,0,1,1-.36,20.81,20.81,0,0,0,18.3,0A.84.84,0,0,1,276.54,237.45Z" fill="none" stroke="#003a50" stroke-miterlimit="10"/><path d="M276.54,241.79a.79.79,0,0,1,.35,1.49,22.46,22.46,0,0,1-19.68,0,.78.78,0,1,1,.69-1.41,20.81,20.81,0,0,0,18.3,0A.84.84,0,0,1,276.54,241.79Z" fill="none" stroke="#003a50" stroke-miterlimit="10"/><path d="M276.54,246.13a.78.78,0,0,1,.35,1.48,22.37,22.37,0,0,1-19.68,0,.78.78,0,1,1,.69-1.4,20.89,20.89,0,0,0,18.3,0A.71.71,0,0,1,276.54,246.13Z" fill="none" stroke="#003a50" stroke-miterlimit="10"/><path d="M276.54,250.46a.79.79,0,0,1,.7.44.77.77,0,0,1-.35,1,22.46,22.46,0,0,1-19.68,0,.78.78,0,0,1-.36-1,.8.8,0,0,1,1-.36,20.81,20.81,0,0,0,18.3,0A.84.84,0,0,1,276.54,250.46Z" fill="none" stroke="#003a50" stroke-miterlimit="10"/><path d="M276.54,254.8a.78.78,0,0,1,.35,1.48,22.37,22.37,0,0,1-19.68,0,.78.78,0,0,1-.36-1,.78.78,0,0,1,1-.36,20.81,20.81,0,0,0,18.3,0A.71.71,0,0,1,276.54,254.8Z" fill="none" stroke="#003a50" stroke-miterlimit="10"/><path d="M276.54,228.78a.79.79,0,0,1,.7.44.78.78,0,0,1-.35,1.05,22.46,22.46,0,0,1-19.68,0,.78.78,0,0,1,.69-1.41,20.81,20.81,0,0,0,18.3,0A.84.84,0,0,1,276.54,228.78Z" fill="none" stroke="#003a50" stroke-miterlimit="10"/><path d="M276.54,224.45a.78.78,0,0,1,.35,1.48,22.37,22.37,0,0,1-19.68,0,.78.78,0,1,1,.69-1.4,20.89,20.89,0,0,0,18.3,0A.71.71,0,0,1,276.54,224.45Z" fill="none" stroke="#003a50" stroke-miterlimit="10"/></g><line x1="267.05" y1="219.78" x2="267.05" y2="367.81" fill="none" stroke="#003a50" stroke-miterlimit="10"/><g clip-path="url(#clip-path)"><path d="M276.54,259.6a.79.79,0,0,1,.7.44.77.77,0,0,1-.35,1,22.46,22.46,0,0,1-19.68,0,.78.78,0,0,1-.36-1,.79.79,0,0,1,1-.36,20.81,20.81,0,0,0,18.3,0A.84.84,0,0,1,276.54,259.6Z" fill="none" stroke="#003a50" stroke-miterlimit="10"/><path d="M276.54,263.94a.79.79,0,0,1,.7.44.78.78,0,0,1-.35,1.05,22.46,22.46,0,0,1-19.68,0,.78.78,0,1,1,.69-1.41,20.81,20.81,0,0,0,18.3,0A.84.84,0,0,1,276.54,263.94Z" fill="none" stroke="#003a50" stroke-miterlimit="10"/><path d="M276.54,268.28a.78.78,0,0,1,.35,1.48,22.37,22.37,0,0,1-19.68,0,.78.78,0,0,1-.36-1,.78.78,0,0,1,1-.36,20.89,20.89,0,0,0,18.3,0A.71.71,0,0,1,276.54,268.28Z" fill="none" stroke="#003a50" stroke-miterlimit="10"/></g><rect x="280.35" y="219.65" width="34.56" height="26.5" fill="none" stroke="#003a50" stroke-miterlimit="10"/><g clip-path="url(#clip-path)"><path d="M293.82,242.35a.79.79,0,0,0,.44.7.78.78,0,0,0,1-.36,22.37,22.37,0,0,0,0-19.68.78.78,0,1,0-1.4.69,20.81,20.81,0,0,1,0,18.3A.72.72,0,0,0,293.82,242.35Z" fill="none" stroke="#003a50" stroke-miterlimit="10"/><path d="M298.16,242.35a.8.8,0,0,0,.43.7.78.78,0,0,0,1.05-.36,22.37,22.37,0,0,0,0-19.68.78.78,0,0,0-1-.36.78.78,0,0,0-.36,1,20.89,20.89,0,0,1,0,18.3A.72.72,0,0,0,298.16,242.35Z" fill="none" stroke="#003a50" stroke-miterlimit="10"/><path d="M289.48,242.35a.81.81,0,0,0,.44.7.78.78,0,0,0,1.05-.36A22.46,22.46,0,0,0,291,223a.78.78,0,0,0-1.41.69,20.81,20.81,0,0,1,0,18.3A.85.85,0,0,0,289.48,242.35Z" fill="none" stroke="#003a50" stroke-miterlimit="10"/><path d="M285.15,242.35a.8.8,0,0,0,.43.7.78.78,0,0,0,1.05-.36,22.37,22.37,0,0,0,0-19.68.78.78,0,1,0-1.4.69,20.89,20.89,0,0,1,0,18.3A.72.72,0,0,0,285.15,242.35Z" fill="none" stroke="#003a50" stroke-miterlimit="10"/></g><line x1="280.48" y1="232.85" x2="314.77" y2="232.85" fill="none" stroke="#003a50" stroke-miterlimit="10"/><rect x="280.35" y="341.45" width="34.56" height="26.5" fill="none" stroke="#003a50" stroke-miterlimit="10"/><g clip-path="url(#clip-path)"><path d="M293.82,364.14a.77.77,0,0,0,.44.7.78.78,0,0,0,1-.36,22.37,22.37,0,0,0,0-19.68.78.78,0,0,0-1.4.69,20.83,20.83,0,0,1,0,18.31A.68.68,0,0,0,293.82,364.14Z" fill="none" stroke="#003a50" stroke-miterlimit="10"/><path d="M298.16,364.14a.78.78,0,0,0,.43.7.78.78,0,0,0,1.05-.36,22.37,22.37,0,0,0,0-19.68.78.78,0,0,0-1-.35.77.77,0,0,0-.36,1,20.92,20.92,0,0,1,0,18.31A.68.68,0,0,0,298.16,364.14Z" fill="none" stroke="#003a50" stroke-miterlimit="10"/><path d="M289.48,364.14a.78.78,0,0,0,1.49.34,22.46,22.46,0,0,0,0-19.68.78.78,0,0,0-1.41.69,20.83,20.83,0,0,1,0,18.31A.81.81,0,0,0,289.48,364.14Z" fill="none" stroke="#003a50" stroke-miterlimit="10"/><path d="M285.15,364.14a.78.78,0,0,0,.43.7.78.78,0,0,0,1.05-.36,22.37,22.37,0,0,0,0-19.68.78.78,0,0,0-1.4.69,20.92,20.92,0,0,1,0,18.31A.68.68,0,0,0,285.15,364.14Z" fill="none" stroke="#003a50" stroke-miterlimit="10"/></g><line x1="280.48" y1="354.64" x2="314.77" y2="354.64" fill="none" stroke="#003a50" stroke-miterlimit="10"/><rect x="218.45" y="147.46" width="31.66" height="31.66" fill="none" stroke="#003a50" stroke-miterlimit="10"/><polyline points="221.75 157.05 221.75 163.31 221.75 169.56" fill="none" stroke="#003a50" stroke-miterlimit="10"/><line x1="234.3" y1="163.33" x2="221.75" y2="163.33" fill="none" stroke="#003a50" stroke-miterlimit="10"/><g clip-path="url(#clip-path)"><rect x="227.12" y="149.44" width="19.96" height="27.7" rx="3.24" fill="none" stroke="#003a50" stroke-miterlimit="10"/><path d="M235.86,163.33a2.24,2.24,0,1,0-2.24,2.23A2.24,2.24,0,0,0,235.86,163.33Z" fill="none" stroke="#003a50" stroke-miterlimit="10"/></g><rect x="248.45" y="16.7" width="34.85" height="30.56" fill="none" stroke="#003a50" stroke-miterlimit="10"/><g clip-path="url(#clip-path)"><path d="M147-28.48V.38h22.8V-28.48a11.39,11.39,0,0,0-11.4-11.4A11.39,11.39,0,0,0,147-28.48Z" fill="none" stroke="#003a50" stroke-miterlimit="10"/></g><polygon points="168.22 182.58 102.61 182.79 102.61 213.36 168.22 213.14 168.22 182.58" fill="none" stroke="#003a50" stroke-miterlimit="10"/><g clip-path="url(#clip-path)"><path d="M137.19,188.61v23a3.35,3.35,0,0,0,3.36,3.36H162.8a3.35,3.35,0,0,0,3.36-3.36v-23a3.35,3.35,0,0,0-3.36-3.36H140.55A3.35,3.35,0,0,0,137.19,188.61Z" fill="none" stroke="#003a50" stroke-miterlimit="10"/><circle cx="151.67" cy="200.11" r="2.27" fill="none" stroke="#003a50" stroke-miterlimit="10"/></g><rect x="96.41" y="16.94" width="115.78" height="29.58" fill="none" stroke="#003a50" stroke-miterlimit="10"/><g clip-path="url(#clip-path)"><path d="M111.3,21.14a.88.88,0,0,1,.49-.79.87.87,0,0,1,1.16.4,25,25,0,0,1,0,22,.87.87,0,1,1-1.56-.77,23.29,23.29,0,0,0,0-20.43A.85.85,0,0,1,111.3,21.14Z" fill="none" stroke="#003a50" stroke-miterlimit="10"/><path d="M116.14,21.14a.88.88,0,0,1,.49-.79.87.87,0,0,1,1.16.4,25,25,0,0,1,0,22,.87.87,0,1,1-1.56-.77,23.29,23.29,0,0,0,0-20.43A.85.85,0,0,1,116.14,21.14Z" fill="none" stroke="#003a50" stroke-miterlimit="10"/><path d="M121,21.14a.88.88,0,0,1,.49-.79.87.87,0,0,1,1.16.4,25,25,0,0,1,0,22,.87.87,0,1,1-1.56-.77,23.29,23.29,0,0,0,0-20.43A.85.85,0,0,1,121,21.14Z" fill="none" stroke="#003a50" stroke-miterlimit="10"/><path d="M125.82,21.14a.88.88,0,0,1,.49-.79.87.87,0,0,1,1.16.4,25,25,0,0,1,0,22,.87.87,0,1,1-1.56-.77,23.29,23.29,0,0,0,0-20.43A.85.85,0,0,1,125.82,21.14Z" fill="none" stroke="#003a50" stroke-miterlimit="10"/><path d="M130.66,21.14a.88.88,0,0,1,.49-.79.87.87,0,0,1,1.16.4,25,25,0,0,1,0,22,.87.87,0,1,1-1.56-.77,23.29,23.29,0,0,0,0-20.43A.85.85,0,0,1,130.66,21.14Z" fill="none" stroke="#003a50" stroke-miterlimit="10"/><path d="M135.5,21.14a.88.88,0,0,1,.49-.79.87.87,0,0,1,1.16.4,25,25,0,0,1,0,22,.87.87,0,1,1-1.56-.77,23.29,23.29,0,0,0,0-20.43A.85.85,0,0,1,135.5,21.14Z" fill="none" stroke="#003a50" stroke-miterlimit="10"/><path d="M106.46,21.14a.88.88,0,0,1,.49-.79.87.87,0,0,1,1.16.4,25,25,0,0,1,0,22,.87.87,0,1,1-1.56-.77,23.29,23.29,0,0,0,0-20.43A.85.85,0,0,1,106.46,21.14Z" fill="none" stroke="#003a50" stroke-miterlimit="10"/><path d="M101.62,21.14a.88.88,0,0,1,.49-.79.87.87,0,0,1,1.16.4,25,25,0,0,1,0,22,.87.87,0,1,1-1.56-.77,23.29,23.29,0,0,0,0-20.43A.85.85,0,0,1,101.62,21.14Z" fill="none" stroke="#003a50" stroke-miterlimit="10"/></g><line x1="96.41" y1="31.74" x2="212.19" y2="31.74" fill="none" stroke="#003a50" stroke-miterlimit="10"/><g clip-path="url(#clip-path)"><path d="M472.5,63v-41H426.71V65.19h43.57A2.21,2.21,0,0,0,472.5,63Z" fill="none" stroke="#003a50" stroke-miterlimit="10"/><path d="M518.38,63.2V21.93H472.59V63.2a2,2,0,0,0,2,2H516.4A2,2,0,0,0,518.38,63.2Z" fill="none" stroke="#003a50" stroke-miterlimit="10"/><path d="M426.71,65.19A3.11,3.11,0,0,1,423.38,68h-4.22a3.11,3.11,0,0,1-3.33-2.83V17H529.26V64.77a3.1,3.1,0,0,1-3.33,2.82h-4.22a3.1,3.1,0,0,1-3.33-2.82V21.93H426.71Z" fill="none" stroke="#003a50" stroke-miterlimit="10"/></g><rect x="426.71" y="21.93" width="91.67" height="9.26" fill="none" stroke="#003a50" stroke-miterlimit="10"/><rect x="367.12" y="344.91" width="22.69" height="22.68" fill="none" stroke="#003a50" stroke-miterlimit="10"/><g clip-path="url(#clip-path)"><path d="M372,349.75a9.2,9.2,0,1,1,0,13A9.19,9.19,0,0,1,372,349.75Z" fill="none" stroke="#003a50" stroke-miterlimit="10"/><path d="M371.33,350.44c1.7.17,3.41-.48,5.07,1.17,2.44,2.44-.15,5,2.3,7.46s5-.13,7.46,2.3" fill="none" stroke="#003a50" stroke-miterlimit="10"/></g><rect x="501.26" y="344.91" width="22.69" height="22.68" fill="none" stroke="#003a50" stroke-miterlimit="10"/><g clip-path="url(#clip-path)"><path d="M506.1,349.75a9.2,9.2,0,1,1,0,13A9.2,9.2,0,0,1,506.1,349.75Z" fill="none" stroke="#003a50" stroke-miterlimit="10"/><path d="M505.48,350.44c1.69.17,3.41-.48,5.06,1.17,2.45,2.44-.14,5,2.31,7.46s5-.13,7.45,2.3" fill="none" stroke="#003a50" stroke-miterlimit="10"/></g><rect x="394.38" y="254.17" width="102.08" height="113.43" fill="none" stroke="#003a50" stroke-miterlimit="10"/><g clip-path="url(#clip-path)"><path d="M404.38,263.91h82.08a2.09,2.09,0,0,1,2.09,2.09v67.66H402.3V266A2.09,2.09,0,0,1,404.38,263.91Z" fill="none" stroke="#003a50" stroke-miterlimit="10"/><rect x="446.29" y="337.28" width="42.51" height="22.88" rx="1.98" fill="none" stroke="#003a50" stroke-miterlimit="10"/><rect x="402.04" y="337.28" width="42.52" height="22.88" rx="1.98" fill="none" stroke="#003a50" stroke-miterlimit="10"/></g><line x1="402.04" y1="319.81" x2="488.8" y2="319.81" fill="none" stroke="#003a50" stroke-miterlimit="10"/><rect x="218.59" y="16.95" width="30.27" height="30.27" fill="none" stroke="#003a50" stroke-miterlimit="10"/><line x1="224.85" y1="32.08" x2="242.61" y2="32.08" fill="none" stroke="#003a50" stroke-miterlimit="10"/><line x1="233.73" y1="40.96" x2="233.73" y2="23.2" fill="none" stroke="#003a50" stroke-miterlimit="10"/><line x1="227.45" y1="38.36" x2="240.01" y2="25.8" fill="none" stroke="#003a50" stroke-miterlimit="10"/><line x1="240.01" y1="38.36" x2="227.45" y2="25.8" fill="none" stroke="#003a50" stroke-miterlimit="10"/><g clip-path="url(#clip-path)"><rect x="200.87" y="-30.39" width="98.73" height="30.77" fill="none" stroke="#003a50" stroke-miterlimit="10"/><path d="M165.6,118.12V115a38.72,38.72,0,0,0-38.72-38.73v41.81" fill="none" stroke="#003a50" stroke-miterlimit="10" stroke-width="1.6"/><path d="M368.81,177.9v3.53a44.38,44.38,0,0,1-44.39,44.39V177.9" fill="none" stroke="#003a50" stroke-miterlimit="10" stroke-width="1.6"/><path d="M56.4,109.48H52.34A51.14,51.14,0,0,1,1.19,58.34H56.4" fill="none" stroke="#003a50" stroke-miterlimit="10" stroke-width="1.6"/><path d="M56.94,376.2H52.87A51.14,51.14,0,0,0,1.73,427.35H56.94" fill="none" stroke="#003a50" stroke-miterlimit="10" stroke-width="1.6"/><rect x="51.16" y="36.77" width="16.32" height="22.33" fill="#003a50"/><rect x="51.16" y="108.45" width="16.32" height="100.88" fill="#003a50"/><rect x="51.16" y="36.77" width="45.83" height="10" fill="#003a50"/><rect x="51.16" y="198.62" width="51.58" height="11.71" fill="#003a50"/><rect x="91.03" y="198.62" width="11.71" height="31.87" fill="#003a50"/><rect x="51.16" y="201.83" width="10.82" height="175.13" fill="#003a50"/><rect x="86.24" y="-31.93" width="10.75" height="78.7" fill="#003a50"/><rect x="86.24" y="0.38" width="447.88" height="16.32" fill="#003a50"/><rect x="459.12" y="173.14" width="75" height="21.35" fill="#003a50"/><rect x="246.05" y="367.89" width="288.07" height="16.26" fill="#003a50"/><rect x="91.99" y="212.99" width="160.53" height="17.5" fill="#003a50"/><rect x="236.26" y="214.83" width="17.29" height="253.02" fill="#003a50"/><rect x="530.11" y="-21.22" width="29.11" height="96.1" fill="#003a50"/><rect x="534.12" y="48.96" width="44.35" height="25.92" fill="#003a50"/><rect x="530.11" y="165.31" width="29.11" height="96.1" fill="#003a50"/><rect x="534.12" y="235.49" width="44.35" height="25.92" fill="#003a50"/><rect x="530.12" y="345.91" width="29.11" height="96.1" fill="#003a50"/><rect x="164.77" y="114.49" width="50.49" height="6.38" fill="#003a50"/><rect x="61.98" y="114.49" width="65.73" height="6.38" fill="#003a50"/></g><rect x="299.5" y="0.42" width="6.38" height="8.11" fill="#003a50"/><rect x="194.58" y="0.43" width="6.38" height="4.48" fill="#003a50"/><rect x="61.98" y="151" width="39.25" height="6.38" fill="#003a50"/><rect x="96.37" y="117.68" width="6.38" height="82.43" fill="#003a50"/><rect x="310.81" y="175.15" width="14.45" height="6.38" fill="#003a50"/><rect x="310.07" y="175.15" width="6.38" height="87.77" fill="#003a50"/><rect x="212.07" y="114.49" width="6.38" height="100.83" fill="#003a50"/><rect x="113.12" y="0.42" width="6.38" height="5.9" fill="#003a50"/><rect x="51.16" y="36.99" width="6.38" height="9.78" fill="#003a50"/><rect x="212.07" y="7.42" width="6.38" height="39.35" fill="#003a50"/><rect x="310.07" y="317.69" width="6.38" height="59.46" fill="#003a50"/><rect x="250.11" y="213" width="64.02" height="6.38" fill="#003a50"/><rect x="367.91" y="175.15" width="102.29" height="6.38" fill="#003a50"/><polygon points="82.96 0.42 82.96 36.99 82.64 36.99 82.64 37.74 89.02 37.74 89.02 0.42 82.96 0.42" fill="#003a50"/><line x1="217.27" y1="45.56" x2="217.27" y2="48.39" fill="none" stroke="#003a50" stroke-miterlimit="10"/><line x1="217.27" y1="53.63" x2="217.27" y2="113.91" fill="none" stroke="#003a50" stroke-miterlimit="10" stroke-dasharray="5.24 5.24"/><line x1="217.27" y1="116.53" x2="217.27" y2="119.37" fill="none" stroke="#003a50" stroke-miterlimit="10"/><g clip-path="url(#clip-path)"><path d="M306.85,283.13H301v-1.84h8.87v1.84l-4.53,2.65v.07h1.28a3.9,3.9,0,0,1,2.79,1,3.56,3.56,0,0,1,1.06,2.67,3.35,3.35,0,0,1-1.33,2.83,5.86,5.86,0,0,1-3.63,1,5.79,5.79,0,0,1-3.62-1,3.36,3.36,0,0,1-1.33-2.86v-.32h2.11v.32c0,1.36.95,2,2.84,2s2.85-.67,2.85-2-.95-2-2.85-2h-3.26v-1.68l4.58-2.68Z" fill="#003a50"/><path d="M312.59,293.07a1,1,0,0,1-.32-.8,1,1,0,0,1,.32-.81,1.41,1.41,0,0,1,1.74,0,1.07,1.07,0,0,1,.32.81,1,1,0,0,1-.32.8,1.41,1.41,0,0,1-1.74,0Z" fill="#003a50"/><path d="M318.5,283.85,316,285.8v-2.24l2.74-2.27h1.86v11.92H318.5Z" fill="#003a50"/><path d="M456.38,228.83l-2.48,1.95v-2.24l2.73-2.27h1.87v11.92h-2.12Z" fill="#003a50"/><path d="M470.9,238.19H461v-1.57a2.74,2.74,0,0,1,.58-1.74,4,4,0,0,1,1.44-1.2c.5-.25,1.13-.54,1.87-.86l1.88-.78a4.12,4.12,0,0,0,1.45-.91,1.81,1.81,0,0,0,.57-1.31c0-1.25-.89-1.88-2.67-1.88s-2.67.72-2.67,2.16v.41H461.3v-.41a3.62,3.62,0,0,1,1.26-3,5.39,5.39,0,0,1,3.52-1,5.63,5.63,0,0,1,3.51,1,3.29,3.29,0,0,1,1.27,2.75,3.17,3.17,0,0,1-.55,1.84A4.42,4.42,0,0,1,468.9,233q-.9.51-1.83.93c-.63.27-1.24.52-1.83.74a5.46,5.46,0,0,0-1.41.75,1.26,1.26,0,0,0-.56,1h7.63Z" fill="#003a50"/><path d="M473,238.05a1,1,0,0,1-.32-.8,1,1,0,0,1,.32-.81,1.41,1.41,0,0,1,1.74,0,1.07,1.07,0,0,1,.32.81,1,1,0,0,1-.32.8,1.41,1.41,0,0,1-1.74,0Z" fill="#003a50"/><path d="M480.12,238.19h-2.36l5.42-10.05h-6.93v-1.87h9.29v1.87Z" fill="#003a50"/><path d="M459,105.16l-2.48,2v-2.25l2.73-2.27h1.87v11.92H459Z" fill="#003a50"/><path d="M466.79,114.52h-2.35l5.42-10h-6.93V102.6h9.29v1.88Z" fill="#003a50"/><path d="M473.65,114.39a1,1,0,0,1-.32-.81,1,1,0,0,1,.32-.8,1.41,1.41,0,0,1,1.74,0,1.06,1.06,0,0,1,.32.8,1,1,0,0,1-.32.81,1.41,1.41,0,0,1-1.74,0Z" fill="#003a50"/><path d="M477.79,111.17H480s0,.07,0,.18a2.71,2.71,0,0,0,.23.43,2.14,2.14,0,0,0,.41.49,2.23,2.23,0,0,0,.75.42,3.23,3.23,0,0,0,1.06.16,2.66,2.66,0,0,0,2.24-1.06,4.34,4.34,0,0,0,.81-2.71h-.06a2,2,0,0,1-.44.46,2.17,2.17,0,0,1-.6.4,3.86,3.86,0,0,1-.95.33,5.58,5.58,0,0,1-1.23.13,5,5,0,0,1-3.36-1.13,3.72,3.72,0,0,1,.05-5.73,5.55,5.55,0,0,1,3.6-1.1,4.83,4.83,0,0,1,3.88,1.54,6.41,6.41,0,0,1,1.32,4.28v.4a6.71,6.71,0,0,1-1.37,4.32,4.71,4.71,0,0,1-3.89,1.71,6.13,6.13,0,0,1-2.17-.37,3.79,3.79,0,0,1-1.48-.95A3.33,3.33,0,0,1,477.79,111.17Zm2.78-3.16a3.58,3.58,0,0,0,3.94,0,1.85,1.85,0,0,0,.79-1.57,1.88,1.88,0,0,0-.78-1.58,3.21,3.21,0,0,0-2-.59,3.17,3.17,0,0,0-2,.59,2,2,0,0,0,0,3.15Z" fill="#003a50"/><path d="M135.81,121.83H130V120h8.87v1.85l-4.53,2.65v.07h1.28a3.9,3.9,0,0,1,2.79,1,3.53,3.53,0,0,1,1.06,2.67,3.37,3.37,0,0,1-1.33,2.83,5.92,5.92,0,0,1-3.63,1,5.85,5.85,0,0,1-3.62-1,3.37,3.37,0,0,1-1.33-2.86v-.33h2.11v.33c0,1.36.95,2,2.84,2s2.84-.66,2.84-2-.94-2-2.84-2h-3.26v-1.67l4.58-2.68Z" fill="#003a50"/><path d="M141.55,131.77a1,1,0,0,1-.32-.8,1,1,0,0,1,.32-.81,1.41,1.41,0,0,1,1.74,0,1.07,1.07,0,0,1,.32.81,1,1,0,0,1-.32.8,1.41,1.41,0,0,1-1.74,0Z" fill="#003a50"/><path d="M155.18,123.34H153s0-.06,0-.17a1.85,1.85,0,0,0-.21-.44,2.4,2.4,0,0,0-.39-.5,1.85,1.85,0,0,0-.71-.41,3,3,0,0,0-1-.16,2.49,2.49,0,0,0-2.15,1,4.39,4.39,0,0,0-.77,2.68h.06a1.8,1.8,0,0,1,.44-.43,3.55,3.55,0,0,1,.61-.37,4.87,4.87,0,0,1,.95-.3,5.49,5.49,0,0,1,1.22-.13,5,5,0,0,1,3.37,1.11,3.54,3.54,0,0,1,1.31,2.81,3.6,3.6,0,0,1-1.37,2.91,5.55,5.55,0,0,1-3.6,1.1,4.8,4.8,0,0,1-3.88-1.55,6.36,6.36,0,0,1-1.32-4.27v-.4a6.86,6.86,0,0,1,1.32-4.32,4.52,4.52,0,0,1,3.81-1.71,5.66,5.66,0,0,1,2.13.37,4,4,0,0,1,1.44.94A3.45,3.45,0,0,1,155.18,123.34Zm-2.51,3.15a3.65,3.65,0,0,0-3.95,0,2,2,0,0,0,0,3.15,3.15,3.15,0,0,0,2,.59,3.2,3.2,0,0,0,2-.59,1.84,1.84,0,0,0,.77-1.57A1.88,1.88,0,0,0,152.67,126.49Z" fill="#003a50"/><path d="M87.78,90.89H85.67V88.24h-7V86.4L85,79h2.79V86.4h1.59v1.84H87.78ZM85.67,86.4V81.07H85.6l-4.48,5.28v.05Z" fill="#003a50"/><path d="M91.06,90.76a1,1,0,0,1-.32-.81,1.06,1.06,0,0,1,.32-.8,1.25,1.25,0,0,1,.88-.3,1.23,1.23,0,0,1,.86.3,1,1,0,0,1,.32.8,1,1,0,0,1-.32.81,1.23,1.23,0,0,1-.86.3A1.25,1.25,0,0,1,91.06,90.76Z" fill="#003a50"/><path d="M103.66,90.13a7.75,7.75,0,0,1-7.38,0,3,3,0,0,1-1.37-2.56,2.66,2.66,0,0,1,.26-1.16,2.32,2.32,0,0,1,.66-.86,3.86,3.86,0,0,1,1.39-.77l.26-.07v-.09a3.57,3.57,0,0,1-.77-.29,2.61,2.61,0,0,1-.66-.44,2.24,2.24,0,0,1-.54-.76,2.39,2.39,0,0,1-.23-1,2.79,2.79,0,0,1,1.26-2.38,5.74,5.74,0,0,1,3.42-.9,5.83,5.83,0,0,1,3.44.9,2.8,2.8,0,0,1,1.24,2.38,2.43,2.43,0,0,1-.22,1,1.83,1.83,0,0,1-.55.75,3.62,3.62,0,0,1-1.2.68l-.22,0v.09l.28.07a5.31,5.31,0,0,1,.63.26,4.67,4.67,0,0,1,.77.51,2.65,2.65,0,0,1,.61.82,2.58,2.58,0,0,1,.28,1.2A3,3,0,0,1,103.66,90.13Zm-5.8-1.36a3.75,3.75,0,0,0,2.1.49,3.9,3.9,0,0,0,2.11-.48,1.59,1.59,0,0,0,0-2.69,4.95,4.95,0,0,0-4.21,0,1.58,1.58,0,0,0,0,2.68Zm-.36-6.52a1.36,1.36,0,0,0,.64,1.19,4,4,0,0,0,3.65,0,1.36,1.36,0,0,0,.64-1.19,1.38,1.38,0,0,0-.65-1.2,3.29,3.29,0,0,0-1.82-.44,3.25,3.25,0,0,0-1.81.44A1.35,1.35,0,0,0,97.5,82.25Z" fill="#003a50"/></g></svg>