<svg id="Слой_1" data-name="Слой 1" xmlns="http://www.w3.org/2000/svg" xmlns:xlink="http://www.w3.org/1999/xlink" viewBox="0 0 581.1 382.68"><defs><clipPath id="clip-path"><polygon points="235.63 0.68 235.63 84.47 0 84.47 0 381.75 580.82 381.75 580.82 0.68 235.63 0.68" fill="none"/></clipPath></defs><polygon points="52.95 374.24 52.95 381.76 529.19 381.76 529.19 374.99 74.12 374.99 74.12 374.24 52.95 374.24" fill="#fff"/><polygon points="245.25 9.68 245.25 98.74 66.76 98.74 66.69 275.08 66.69 324.72 61.17 369.88 530.75 369.88 530.75 177.92 530.75 126.08 530.75 9.68 245.25 9.68" fill="#fff"/><rect x="240.63" y="0.68" width="290.13" height="13.86" fill="#fff"/><g clip-path="url(#clip-path)"><rect x="-561.43" y="-1010.45" width="1115.44" height="2194.74" fill="none" stroke="#003a50" stroke-miterlimit="10"/><polygon points="-536.61 75.27 -536.61 1161.33 529.87 1161.33 529.87 -986.53 -536.61 -986.69 -536.61 6.47 -536.61 75.27" fill="none" stroke="#003a50" stroke-miterlimit="10"/></g><rect x="540.78" y="259.53" width="4.56" height="86.63" fill="#fff"/><rect x="540.78" y="259.53" width="4.56" height="86.63" fill="none" stroke="#003a50" stroke-miterlimit="10"/><line x1="543.06" y1="346.16" x2="543.06" y2="259.53" fill="none" stroke="#003a50" stroke-miterlimit="10"/><rect x="540.78" y="341.78" width="4.56" height="4.38" fill="#fff"/><rect x="540.78" y="341.78" width="4.56" height="4.38" fill="none" stroke="#003a50" stroke-miterlimit="10"/><rect x="540.78" y="259.53" width="4.56" height="4.38" fill="#fff"/><rect x="540.78" y="259.53" width="4.56" height="4.38" fill="none" stroke="#003a50" stroke-miterlimit="10"/><rect x="540.78" y="300.66" width="4.56" height="4.38" fill="#fff"/><rect x="540.78" y="300.66" width="4.56" height="4.38" fill="none" stroke="#003a50" stroke-miterlimit="10"/><rect x="540.78" y="74.66" width="4.56" height="88.96" fill="#fff"/><rect x="540.78" y="74.66" width="4.56" height="88.96" fill="none" stroke="#003a50" stroke-miterlimit="10"/><line x1="543.06" y1="163.62" x2="543.06" y2="74.66" fill="none" stroke="#003a50" stroke-miterlimit="10"/><rect x="540.78" y="159.12" width="4.56" height="4.49" fill="#fff"/><rect x="540.78" y="159.12" width="4.56" height="4.49" fill="none" stroke="#003a50" stroke-miterlimit="10"/><rect x="540.78" y="74.66" width="4.56" height="4.49" fill="#fff"/><rect x="540.78" y="74.66" width="4.56" height="4.49" fill="none" stroke="#003a50" stroke-miterlimit="10"/><rect x="540.78" y="116.89" width="4.56" height="4.49" fill="#fff"/><rect x="540.78" y="116.89" width="4.56" height="4.49" fill="none" stroke="#003a50" stroke-miterlimit="10"/><rect x="101.64" y="97.9" width="43.98" height="95.56" fill="none" stroke="#003a50" stroke-miterlimit="10"/><g clip-path="url(#clip-path)"><rect x="107.22" y="102.11" width="33.24" height="87.42" rx="13.7" fill="none" stroke="#003a50" stroke-miterlimit="10"/><circle cx="123.75" cy="174.4" r="2.28" transform="translate(-26.34 22.07) rotate(-9.22)" fill="none" stroke="#003a50" stroke-miterlimit="10"/><path d="M162.17,164.85v28.58h23.09V164.85a11.54,11.54,0,0,0-11.54-11.54h0A11.54,11.54,0,0,0,162.17,164.85Z" fill="none" stroke="#003a50" stroke-miterlimit="10"/></g><rect x="162.17" y="182.35" width="23.09" height="11.08" fill="none" stroke="#003a50" stroke-miterlimit="10"/><g clip-path="url(#clip-path)"><path d="M158.26,240.76a3.15,3.15,0,0,0,2.9-1.95H163l4.73,2.83-2.14,3.5-2.47-1.36v11h-10.3v-11l-2.47,1.36-2.14-3.5,4.77-2.83h2.39A3.21,3.21,0,0,0,158.26,240.76Z" fill="none" stroke="#003a50" stroke-miterlimit="10"/></g><rect x="142.13" y="231.09" width="31.58" height="30.91" fill="none" stroke="#003a50" stroke-miterlimit="10"/><rect x="269.15" y="332.1" width="34.03" height="34.03" fill="none" stroke="#003a50" stroke-miterlimit="10"/><g clip-path="url(#clip-path)"><circle cx="293.94" cy="356.73" r="4.64" transform="translate(-6.1 5.12) rotate(-0.99)" fill="none" stroke="#003a50" stroke-miterlimit="10"/><circle cx="278.45" cy="356.73" r="4.64" transform="translate(-6.11 4.85) rotate(-0.99)" fill="none" stroke="#003a50" stroke-miterlimit="10"/><circle cx="293.94" cy="341.64" r="4.64" transform="translate(-12.89 11.53) rotate(-2.2)" fill="none" stroke="#003a50" stroke-miterlimit="10"/><circle cx="278.45" cy="341.64" r="4.64" transform="translate(-12.91 10.94) rotate(-2.2)" fill="none" stroke="#003a50" stroke-miterlimit="10"/></g><rect x="427.24" y="187.25" width="102.08" height="17.02" fill="none" stroke="#003a50" stroke-miterlimit="10"/><polygon points="521.29 196.3 478.38 192.77 435.26 196.3 435.26 198.75 521.29 198.75 521.29 196.3" fill="none" stroke="#003a50" stroke-miterlimit="10"/><rect x="338.24" y="164.17" width="102.08" height="17.02" fill="none" stroke="#003a50" stroke-miterlimit="10"/><polygon points="346.27 172.14 389.18 175.66 432.3 172.14 432.3 169.68 346.27 169.68 346.27 172.14" fill="none" stroke="#003a50" stroke-miterlimit="10"/><rect x="212.95" y="331.98" width="152.42" height="34.29" fill="none" stroke="#003a50" stroke-miterlimit="10"/><g clip-path="url(#clip-path)"><path d="M321.55,246.34a1.27,1.27,0,0,1,.95,1.51A13.79,13.79,0,0,0,349.38,254a1.26,1.26,0,0,1,2.46.57,16.31,16.31,0,0,1-31.79-7.3A1.25,1.25,0,0,1,321.55,246.34Z" fill="none" stroke="#003a50" stroke-miterlimit="10"/><path d="M376.74,256.06a1.27,1.27,0,0,1,1.75-.33A13.79,13.79,0,1,0,394,232.94a1.26,1.26,0,1,1,1.42-2.08,16.3,16.3,0,0,1-18.36,26.95A1.26,1.26,0,0,1,376.74,256.06Z" fill="none" stroke="#003a50" stroke-miterlimit="10"/><path d="M379.25,208.64a1.26,1.26,0,0,1-1.33-1.18,13.79,13.79,0,0,0-27.53,1.63,1.26,1.26,0,0,1-2.52.15,16.31,16.31,0,1,1,32.56-1.93A1.25,1.25,0,0,1,379.25,208.64Z" fill="none" stroke="#003a50" stroke-miterlimit="10"/><path d="M335.76,263a12.69,12.69,0,0,1-12-15.48l2-8.89a3.53,3.53,0,0,1,4.24-2.68L343.48,239a23.84,23.84,0,0,0,6,9.45l-1,4.2C347.16,258.6,341.88,263.16,335.76,263Z" fill="none" stroke="#003a50" stroke-miterlimit="10"/><path d="M378.57,254.44l-2.32-1.6a23.82,23.82,0,0,0,13.65-21.33l2.52,1.72c5,3.44,7.4,10,5,15.64A12.7,12.7,0,0,1,378.57,254.44Z" fill="none" stroke="#003a50" stroke-miterlimit="10"/><path d="M351.72,212.14l-.12-2c-.36-6.12,3.4-12,9.33-13.48a12.66,12.66,0,0,1,15.88,11.48l.12,1.84a23.93,23.93,0,0,0-16.64-1.92A23.54,23.54,0,0,0,351.72,212.14Z" fill="none" stroke="#003a50" stroke-miterlimit="10"/><path d="M349.48,248.43a23.73,23.73,0,0,1-6-9.44,16.51,16.51,0,0,1-.6-2,23.86,23.86,0,0,1,8.84-24.85,23.54,23.54,0,0,1,8.57-4,23.88,23.88,0,0,1,28.93,17.41,22.12,22.12,0,0,1,.68,6,23.82,23.82,0,0,1-13.65,21.32,22.87,22.87,0,0,1-4.48,1.61A23.8,23.8,0,0,1,349.48,248.43Z" fill="none" stroke="#003a50" stroke-miterlimit="10"/></g><rect x="146.14" y="100.69" width="99.72" height="25.4" fill="none" stroke="#003a50" stroke-miterlimit="10"/><g clip-path="url(#clip-path)"><path d="M229.57,121.2V101.81A2.83,2.83,0,0,0,226.74,99H208a2.83,2.83,0,0,0-2.83,2.83V121.2A2.83,2.83,0,0,0,208,124h18.76A2.83,2.83,0,0,0,229.57,121.2Z" fill="none" stroke="#003a50" stroke-miterlimit="10"/><circle cx="217.36" cy="111.5" r="1.91" fill="none" stroke="#003a50" stroke-miterlimit="10"/><path d="M186.82,121.2V101.81A2.83,2.83,0,0,0,184,99H165.24a2.84,2.84,0,0,0-2.84,2.83V121.2a2.84,2.84,0,0,0,2.84,2.83H184A2.83,2.83,0,0,0,186.82,121.2Z" fill="none" stroke="#003a50" stroke-miterlimit="10"/><circle cx="174.61" cy="111.5" r="1.91" fill="none" stroke="#003a50" stroke-miterlimit="10"/><rect x="253.06" y="-147.63" width="26.5" height="148.3" fill="none" stroke="#003a50" stroke-miterlimit="10"/><line x1="266.25" y1="-147.5" x2="266.25" y2="0.53" fill="none" stroke="#003a50" stroke-miterlimit="10"/><rect x="279.56" y="-25.84" width="34.56" height="26.5" fill="none" stroke="#003a50" stroke-miterlimit="10"/></g><polyline points="225.35 363.09 232.15 363.09 238.94 363.09" fill="none" stroke="#003a50" stroke-miterlimit="10"/><line x1="232.17" y1="349.47" x2="232.17" y2="363.09" fill="none" stroke="#003a50" stroke-miterlimit="10"/><g clip-path="url(#clip-path)"><rect x="217.09" y="335.59" width="30.08" height="21.68" rx="3.24" fill="none" stroke="#003a50" stroke-miterlimit="10"/><path d="M232.17,347.78a2.43,2.43,0,1,0,2.43,2.42A2.42,2.42,0,0,0,232.17,347.78Z" fill="none" stroke="#003a50" stroke-miterlimit="10"/><path d="M171.8,410.86V382.28H148.72v28.58a11.54,11.54,0,0,0,11.54,11.54h0A11.54,11.54,0,0,0,171.8,410.86Z" fill="none" stroke="#003a50" stroke-miterlimit="10"/><rect x="148.72" y="382.28" width="23.09" height="11.08" fill="none" stroke="#003a50" stroke-miterlimit="10"/><rect x="64.48" y="382.3" width="67.74" height="42.24" fill="none" stroke="#003a50" stroke-miterlimit="10"/></g><rect x="66.69" y="332.11" width="105.92" height="33.89" fill="none" stroke="#003a50" stroke-miterlimit="10"/><g clip-path="url(#clip-path)"><path d="M82.66,336.91a1,1,0,0,1,.53-.9.91.91,0,0,1,1.25.45,30.4,30.4,0,0,1,0,25.18.91.91,0,0,1-1.25.45,1,1,0,0,1-.43-1.34,28.32,28.32,0,0,0,0-23.4A1,1,0,0,1,82.66,336.91Z" fill="none" stroke="#003a50" stroke-miterlimit="10"/><path d="M87.86,336.91a1,1,0,0,1,.52-.9.91.91,0,0,1,1.25.45,30.4,30.4,0,0,1,0,25.18.91.91,0,0,1-1.25.45,1,1,0,0,1-.43-1.34,28.22,28.22,0,0,0,0-23.4A1,1,0,0,1,87.86,336.91Z" fill="none" stroke="#003a50" stroke-miterlimit="10"/><path d="M93.05,336.91a1,1,0,0,1,.53-.9.91.91,0,0,1,1.25.45,30.4,30.4,0,0,1,0,25.18.91.91,0,0,1-1.25.45,1,1,0,0,1-.43-1.34,28.32,28.32,0,0,0,0-23.4A1,1,0,0,1,93.05,336.91Z" fill="none" stroke="#003a50" stroke-miterlimit="10"/><path d="M98.25,336.91a1,1,0,0,1,.52-.9.91.91,0,0,1,1.25.45,30.4,30.4,0,0,1,0,25.18.91.91,0,0,1-1.25.45,1,1,0,0,1-.43-1.34,28.22,28.22,0,0,0,0-23.4A1,1,0,0,1,98.25,336.91Z" fill="none" stroke="#003a50" stroke-miterlimit="10"/><path d="M103.44,336.91a1,1,0,0,1,.52-.9.92.92,0,0,1,1.26.45,30.5,30.5,0,0,1,0,25.18.91.91,0,0,1-1.25.45,1,1,0,0,1-.43-1.34,28.32,28.32,0,0,0,0-23.4A1,1,0,0,1,103.44,336.91Z" fill="none" stroke="#003a50" stroke-miterlimit="10"/><path d="M108.64,336.91a1,1,0,0,1,.52-.9.91.91,0,0,1,1.25.45,30.4,30.4,0,0,1,0,25.18.91.91,0,0,1-1.25.45,1,1,0,0,1-.43-1.34,28.22,28.22,0,0,0,0-23.4A1,1,0,0,1,108.64,336.91Z" fill="none" stroke="#003a50" stroke-miterlimit="10"/><path d="M77.47,336.91A1,1,0,0,1,78,336a.91.91,0,0,1,1.25.45,30.4,30.4,0,0,1,0,25.18.9.9,0,0,1-1.24.45,1,1,0,0,1-.44-1.34,28.22,28.22,0,0,0,0-23.4A1.12,1.12,0,0,1,77.47,336.91Z" fill="none" stroke="#003a50" stroke-miterlimit="10"/><path d="M72.27,336.91a1,1,0,0,1,.53-.9.91.91,0,0,1,1.25.45,30.4,30.4,0,0,1,0,25.18.91.91,0,0,1-1.25.45,1,1,0,0,1-.43-1.34,28.22,28.22,0,0,0,0-23.4A1,1,0,0,1,72.27,336.91Z" fill="none" stroke="#003a50" stroke-miterlimit="10"/></g><line x1="66.69" y1="349.05" x2="172.61" y2="349.05" fill="none" stroke="#003a50" stroke-miterlimit="10"/><rect x="214.46" y="231.09" width="32.2" height="30.89" fill="none" stroke="#003a50" stroke-miterlimit="10"/><polygon points="91.33 262.11 91.16 199.92 66.51 199.92 66.69 262.11 91.33 262.11" fill="none" stroke="#003a50" stroke-miterlimit="10"/><g clip-path="url(#clip-path)"><rect x="65.21" y="235.27" width="23.97" height="23.36" rx="2.71" fill="none" stroke="#003a50" stroke-miterlimit="10"/><path d="M79,247a1.83,1.83,0,1,0-1.83,1.82A1.82,1.82,0,0,0,79,247Z" fill="none" stroke="#003a50" stroke-miterlimit="10"/><path d="M102.33,228.84V200h22.8v28.86a11.4,11.4,0,1,1-22.8,0Z" fill="none" stroke="#003a50" stroke-miterlimit="10"/></g><line x1="125.13" y1="211.21" x2="102.33" y2="211.21" fill="none" stroke="#003a50" stroke-miterlimit="10"/><rect x="178.88" y="331.97" width="34.03" height="34.03" fill="none" stroke="#003a50" stroke-miterlimit="10"/><line x1="195.9" y1="351.74" x2="195.9" y2="362.3" fill="none" stroke="#003a50" stroke-miterlimit="10"/><g clip-path="url(#clip-path)"><path d="M196.81,351.74H195a3.4,3.4,0,0,1-3.39-3.4v-11.2h8.6v11.2A3.4,3.4,0,0,1,196.81,351.74Z" fill="none" stroke="#003a50" stroke-miterlimit="10"/></g><line x1="192.42" y1="362.3" x2="199.37" y2="362.3" fill="none" stroke="#003a50" stroke-miterlimit="10"/><rect x="331.06" y="331.97" width="34.03" height="34.03" fill="none" stroke="#003a50" stroke-miterlimit="10"/><line x1="338.09" y1="348.98" x2="358.06" y2="348.98" fill="none" stroke="#003a50" stroke-miterlimit="10"/><line x1="348.07" y1="358.97" x2="348.07" y2="339" fill="none" stroke="#003a50" stroke-miterlimit="10"/><line x1="341.01" y1="356.04" x2="355.13" y2="341.93" fill="none" stroke="#003a50" stroke-miterlimit="10"/><line x1="355.13" y1="356.04" x2="341.02" y2="341.93" fill="none" stroke="#003a50" stroke-miterlimit="10"/><rect x="142.39" y="199.96" width="103.86" height="31.13" fill="none" stroke="#003a50" stroke-miterlimit="10"/><g clip-path="url(#clip-path)"><path d="M158.05,204.37a.92.92,0,0,1,1.75-.41,26.36,26.36,0,0,1,0,23.12.92.92,0,0,1-1.23.42.91.91,0,0,1-.42-1.23,24.54,24.54,0,0,0,0-21.5A.85.85,0,0,1,158.05,204.37Z" fill="none" stroke="#003a50" stroke-miterlimit="10"/><path d="M163.15,204.37a.92.92,0,0,1,1.74-.41,26.36,26.36,0,0,1,0,23.12.92.92,0,1,1-1.65-.81,24.45,24.45,0,0,0,0-21.5A.83.83,0,0,1,163.15,204.37Z" fill="none" stroke="#003a50" stroke-miterlimit="10"/><path d="M168.24,204.37A.92.92,0,0,1,170,204a26.27,26.27,0,0,1,0,23.12.91.91,0,1,1-1.64-.81,24.54,24.54,0,0,0,0-21.5A.85.85,0,0,1,168.24,204.37Z" fill="none" stroke="#003a50" stroke-miterlimit="10"/><path d="M173.33,204.37a.94.94,0,0,1,.52-.83.93.93,0,0,1,1.23.42,26.36,26.36,0,0,1,0,23.12.92.92,0,1,1-1.65-.81,24.54,24.54,0,0,0,0-21.5A.85.85,0,0,1,173.33,204.37Z" fill="none" stroke="#003a50" stroke-miterlimit="10"/><path d="M178.43,204.37a.92.92,0,0,1,1.74-.41,26.36,26.36,0,0,1,0,23.12.92.92,0,1,1-1.65-.81,24.45,24.45,0,0,0,0-21.5A1,1,0,0,1,178.43,204.37Z" fill="none" stroke="#003a50" stroke-miterlimit="10"/><path d="M183.52,204.37a.92.92,0,0,1,1.74-.41,26.27,26.27,0,0,1,0,23.12.91.91,0,1,1-1.64-.81,24.54,24.54,0,0,0,0-21.5A.85.85,0,0,1,183.52,204.37Z" fill="none" stroke="#003a50" stroke-miterlimit="10"/><path d="M153,204.37a.92.92,0,0,1,1.74-.41,26.36,26.36,0,0,1,0,23.12.92.92,0,1,1-1.65-.81,24.45,24.45,0,0,0,0-21.5A1,1,0,0,1,153,204.37Z" fill="none" stroke="#003a50" stroke-miterlimit="10"/><path d="M147.86,204.37a.94.94,0,0,1,.52-.83.93.93,0,0,1,1.23.42,26.36,26.36,0,0,1,0,23.12.92.92,0,1,1-1.65-.81,24.54,24.54,0,0,0,0-21.5A.85.85,0,0,1,147.86,204.37Z" fill="none" stroke="#003a50" stroke-miterlimit="10"/></g><line x1="142.39" y1="215.52" x2="246.25" y2="215.52" fill="none" stroke="#003a50" stroke-miterlimit="10"/><rect x="252" y="17.09" width="34.03" height="105.98" fill="none" stroke="#003a50" stroke-miterlimit="10"/><g clip-path="url(#clip-path)"><path d="M281.14,34.43a1,1,0,0,1,.44,1.9,28.8,28.8,0,0,1-25.27,0,1,1,0,0,1,.89-1.8,26.74,26.74,0,0,0,23.5,0A1,1,0,0,1,281.14,34.43Z" fill="none" stroke="#003a50" stroke-miterlimit="10"/><path d="M281.14,40a1,1,0,0,1,.9.56,1,1,0,0,1-.46,1.34,28.8,28.8,0,0,1-25.27,0,1,1,0,0,1,.89-1.8,26.74,26.74,0,0,0,23.5,0A1,1,0,0,1,281.14,40Z" fill="none" stroke="#003a50" stroke-miterlimit="10"/><path d="M281.14,45.56a1,1,0,0,1,.44,1.91,28.8,28.8,0,0,1-25.27,0,1,1,0,0,1-.45-1.34,1,1,0,0,1,1.34-.46,26.83,26.83,0,0,0,23.5,0A.87.87,0,0,1,281.14,45.56Z" fill="none" stroke="#003a50" stroke-miterlimit="10"/><path d="M281.14,51.13a1,1,0,0,1,.44,1.9,28.8,28.8,0,0,1-25.27,0,1,1,0,0,1,.89-1.8,26.74,26.74,0,0,0,23.5,0A1,1,0,0,1,281.14,51.13Z" fill="none" stroke="#003a50" stroke-miterlimit="10"/><path d="M281.14,56.7a1,1,0,0,1,.44,1.9,28.8,28.8,0,0,1-25.27,0,1,1,0,0,1,.89-1.8,26.74,26.74,0,0,0,23.5,0A1,1,0,0,1,281.14,56.7Z" fill="none" stroke="#003a50" stroke-miterlimit="10"/><path d="M281.14,62.26a1,1,0,0,1,.44,1.91,28.8,28.8,0,0,1-25.27,0,1,1,0,0,1-.45-1.34,1,1,0,0,1,1.34-.46,26.83,26.83,0,0,0,23.5,0A1,1,0,0,1,281.14,62.26Z" fill="none" stroke="#003a50" stroke-miterlimit="10"/><path d="M281.14,28.86a1,1,0,0,1,.44,1.9,28.8,28.8,0,0,1-25.27,0,1,1,0,0,1,.89-1.8,26.74,26.74,0,0,0,23.5,0A1,1,0,0,1,281.14,28.86Z" fill="none" stroke="#003a50" stroke-miterlimit="10"/><path d="M281.14,23.29a1,1,0,0,1,.44,1.91A28.54,28.54,0,0,1,269,28.12a28.58,28.58,0,0,1-12.64-2.92,1,1,0,0,1-.45-1.34,1,1,0,0,1,1.34-.46A26.48,26.48,0,0,0,269,26.11,26.48,26.48,0,0,0,280.7,23.4.87.87,0,0,1,281.14,23.29Z" fill="none" stroke="#003a50" stroke-miterlimit="10"/></g><line x1="268.95" y1="17.3" x2="268.95" y2="123.06" fill="none" stroke="#003a50" stroke-miterlimit="10"/><g clip-path="url(#clip-path)"><path d="M281.14,68.43a1,1,0,0,1,.44,1.91,28.8,28.8,0,0,1-25.27,0,1,1,0,0,1-.45-1.34,1,1,0,0,1,1.34-.46,26.83,26.83,0,0,0,23.5,0A1,1,0,0,1,281.14,68.43Z" fill="none" stroke="#003a50" stroke-miterlimit="10"/><path d="M281.14,74a1,1,0,0,1,.44,1.9,28.8,28.8,0,0,1-25.27,0,1,1,0,0,1,.89-1.8,26.74,26.74,0,0,0,23.5,0A1,1,0,0,1,281.14,74Z" fill="none" stroke="#003a50" stroke-miterlimit="10"/><path d="M281.14,79.57a1,1,0,0,1,.44,1.9,28.8,28.8,0,0,1-25.27,0,1,1,0,0,1,.89-1.8,26.74,26.74,0,0,0,23.5,0A1,1,0,0,1,281.14,79.57Z" fill="none" stroke="#003a50" stroke-miterlimit="10"/><path d="M469,319.3v41.05H423.2V317.09h43.57A2.21,2.21,0,0,1,469,319.3Z" fill="none" stroke="#003a50" stroke-miterlimit="10"/><path d="M514.87,319.08v41.27H469.08V319.08a2,2,0,0,1,2-2h41.82A2,2,0,0,1,514.87,319.08Z" fill="none" stroke="#003a50" stroke-miterlimit="10"/><path d="M423.19,317.09a3.1,3.1,0,0,0-3.32-2.83h-4.23a3.12,3.12,0,0,0-3.33,2.83V365.3H525.74V317.52a3.11,3.11,0,0,0-3.32-2.83h-4.23a3.11,3.11,0,0,0-3.32,2.83v42.84H423.19Z" fill="none" stroke="#003a50" stroke-miterlimit="10"/></g><rect x="423.2" y="351.1" width="91.67" height="9.26" fill="none" stroke="#003a50" stroke-miterlimit="10"/><g clip-path="url(#clip-path)"><rect x="298.76" y="382.2" width="34.03" height="84.06" rx="3.31" fill="none" stroke="#003a50" stroke-miterlimit="10"/><rect x="499.67" y="382.32" width="22.68" height="22.68" fill="none" stroke="#003a50" stroke-miterlimit="10"/><rect x="361.19" y="382.32" width="22.68" height="22.68" fill="none" stroke="#003a50" stroke-miterlimit="10"/><rect x="390.74" y="382.32" width="102.08" height="113.42" fill="none" stroke="#003a50" stroke-miterlimit="10"/></g><rect x="445.02" y="17.14" width="22.69" height="22.68" fill="none" stroke="#003a50" stroke-miterlimit="10"/><g clip-path="url(#clip-path)"><path d="M462.86,35a9.2,9.2,0,1,1,0-13A9.19,9.19,0,0,1,462.86,35Z" fill="none" stroke="#003a50" stroke-miterlimit="10"/><path d="M463.49,34.3c-1.7-.17-3.41.48-5.06-1.17-2.45-2.44.14-5-2.31-7.46s-5,.13-7.45-2.3" fill="none" stroke="#003a50" stroke-miterlimit="10"/></g><rect x="310.87" y="17.14" width="22.69" height="22.68" fill="none" stroke="#003a50" stroke-miterlimit="10"/><g clip-path="url(#clip-path)"><path d="M328.72,35a9.2,9.2,0,1,1,0-13A9.2,9.2,0,0,1,328.72,35Z" fill="none" stroke="#003a50" stroke-miterlimit="10"/><path d="M329.34,34.3c-1.69-.17-3.41.48-5.06-1.17-2.45-2.44.14-5-2.31-7.46s-5,.13-7.45-2.3" fill="none" stroke="#003a50" stroke-miterlimit="10"/></g><rect x="338.36" y="17.14" width="102.08" height="113.43" fill="none" stroke="#003a50" stroke-miterlimit="10"/><g clip-path="url(#clip-path)"><path d="M430.44,120.83H348.36a2.09,2.09,0,0,1-2.09-2.09V51.08h86.25v67.66A2.08,2.08,0,0,1,430.44,120.83Z" fill="none" stroke="#003a50" stroke-miterlimit="10"/><rect x="346.02" y="24.58" width="42.51" height="22.88" rx="1.98" fill="none" stroke="#003a50" stroke-miterlimit="10"/><rect x="390.26" y="24.58" width="42.52" height="22.88" rx="1.98" fill="none" stroke="#003a50" stroke-miterlimit="10"/></g><line x1="432.78" y1="64.93" x2="346.02" y2="64.93" fill="none" stroke="#003a50" stroke-miterlimit="10"/><g clip-path="url(#clip-path)"><rect x="366.32" y="-22.37" width="22.69" height="22.68" fill="none" stroke="#003a50" stroke-miterlimit="10"/><rect x="500.47" y="-22.37" width="22.69" height="22.68" fill="none" stroke="#003a50" stroke-miterlimit="10"/><rect x="393.59" y="-113.12" width="102.08" height="113.43" fill="none" stroke="#003a50" stroke-miterlimit="10"/><path d="M242.6,251.31a1,1,0,0,1,.44,1.91,28.8,28.8,0,0,1-25.27,0,1,1,0,0,1-.45-1.34,1,1,0,0,1,1.34-.46,26.83,26.83,0,0,0,23.5,0A.87.87,0,0,1,242.6,251.31Z" fill="none" stroke="#003a50" stroke-miterlimit="10"/><path d="M242.6,245.74a1,1,0,0,1,.44,1.91,28.8,28.8,0,0,1-25.27,0,1,1,0,0,1-.45-1.34,1,1,0,0,1,1.34-.46,26.83,26.83,0,0,0,23.5,0A1,1,0,0,1,242.6,245.74Z" fill="none" stroke="#003a50" stroke-miterlimit="10"/><path d="M242.6,240.18a1,1,0,0,1,.9.56,1,1,0,0,1-.46,1.34,28.8,28.8,0,0,1-25.27,0,1,1,0,0,1,.89-1.8,26.74,26.74,0,0,0,23.5,0A1,1,0,0,1,242.6,240.18Z" fill="none" stroke="#003a50" stroke-miterlimit="10"/></g><line x1="230.4" y1="231.35" x2="230.4" y2="261.78" fill="none" stroke="#003a50" stroke-miterlimit="10"/><g clip-path="url(#clip-path)"><rect x="206.6" y="382.3" width="85.78" height="31.13" fill="none" stroke="#003a50" stroke-miterlimit="10"/><path d="M133.6,264.75v3.07a38.72,38.72,0,0,1-38.72,38.74V264.75" fill="none" stroke="#003a50" stroke-miterlimit="10" stroke-width="1.6"/><path d="M301.59,183.62V187A42.6,42.6,0,0,1,259,229.6v-46" fill="none" stroke="#003a50" stroke-miterlimit="10" stroke-width="1.6"/><path d="M56.14,274.54H52.08A51.14,51.14,0,0,0,.93,325.68H56.14" fill="none" stroke="#003a50" stroke-miterlimit="10" stroke-width="1.6"/><path d="M56.14,8.92H52.08A51.14,51.14,0,0,0,.93,60.06H56.14" fill="none" stroke="#003a50" stroke-miterlimit="10" stroke-width="1.6"/><path d="M248,134h3.08a38.73,38.73,0,0,1,38.73,38.73H248" fill="none" stroke="#003a50" stroke-miterlimit="10" stroke-width="1.6"/><rect x="50.36" y="98.18" width="16.32" height="176.9" fill="#003a50"/><rect x="50.36" y="324.72" width="16.32" height="181.96" fill="#003a50"/><rect x="62.84" y="365.98" width="474.52" height="16.32" fill="#003a50"/><rect x="50.36" y="-165.46" width="10.82" height="175.13" fill="#003a50"/><rect x="50.36" y="58.61" width="10.82" height="37.78" fill="#003a50"/><rect x="245.25" y="0.6" width="288.07" height="16.26" fill="#003a50"/><rect x="50.36" y="84.29" width="201.36" height="16.26" fill="#003a50"/><rect x="235.46" y="-152.46" width="17.29" height="253.02" fill="#003a50"/><rect x="529.32" y="-21.38" width="29.11" height="96.1" fill="#003a50"/><rect x="533.32" y="48.81" width="44.35" height="25.92" fill="#003a50"/><rect x="529.32" y="163.17" width="29.11" height="96.1" fill="#003a50"/><rect x="533.32" y="233.35" width="44.35" height="25.92" fill="#003a50"/><rect x="529.32" y="346.16" width="29.11" height="96.1" fill="#003a50"/><rect x="200.22" y="376.19" width="6.38" height="112.96" fill="#003a50"/><rect x="292.38" y="376.19" width="6.38" height="110.39" fill="#003a50"/><rect x="132.58" y="262" width="44.38" height="6.38" fill="#003a50"/><rect x="62.58" y="193.48" width="187.53" height="6.38" fill="#003a50"/><rect x="135.75" y="198.66" width="6.38" height="65.36" fill="#003a50"/><rect x="172.6" y="332.11" width="6.38" height="40.93" fill="#003a50"/><rect x="151.58" y="344.8" width="24.72" height="6.38" fill="#003a50"/><rect x="151.58" y="344.8" width="6.38" height="26.76" fill="#003a50"/><rect x="178.14" y="378.25" width="6.38" height="26.76" fill="#003a50"/><rect x="214.14" y="262" width="35.97" height="6.38" fill="#003a50"/><rect x="56.14" y="262" width="39.56" height="6.38" fill="#003a50"/><rect x="246.38" y="84.3" width="6.38" height="50.49" fill="#003a50"/><rect x="95.71" y="96.38" width="6.38" height="97.94" fill="#003a50"/><rect x="62.58" y="156.84" width="37.85" height="6.38" fill="#003a50"/><rect x="246.38" y="171.85" width="6.38" height="96.53" fill="#003a50"/></g><rect x="309.28" y="0.68" width="6.38" height="9.19" fill="#003a50"/><rect x="300.75" y="180.87" width="228.57" height="6.38" fill="#003a50"/><rect x="248.49" y="180.87" width="11.26" height="6.38" fill="#003a50"/><line x1="176.96" y1="268.38" x2="176.96" y2="271.21" fill="none" stroke="#003a50" stroke-miterlimit="10"/><line x1="176.96" y1="276.59" x2="176.96" y2="327.65" fill="none" stroke="#003a50" stroke-miterlimit="10" stroke-dasharray="5.38 5.38"/><line x1="176.96" y1="330.33" x2="176.96" y2="333.17" fill="none" stroke="#003a50" stroke-miterlimit="10"/><g clip-path="url(#clip-path)"><path d="M458.71,290.83l-2.49,2v-2.25l2.73-2.27h1.87v11.92h-2.11Z" fill="#003a50"/><path d="M463.57,296.84h2.21s0,.08,0,.18a2.72,2.72,0,0,0,.23.44,2.09,2.09,0,0,0,.41.48,2,2,0,0,0,.75.42,3.21,3.21,0,0,0,1.05.16,2.66,2.66,0,0,0,2.25-1.06,4.32,4.32,0,0,0,.81-2.71h-.06a2.55,2.55,0,0,1-.44.47,2.8,2.8,0,0,1-.6.39,3.86,3.86,0,0,1-1,.33,5.58,5.58,0,0,1-1.23.13,5,5,0,0,1-3.37-1.13,3.74,3.74,0,0,1,.05-5.73,5.59,5.59,0,0,1,3.61-1.1,4.84,4.84,0,0,1,3.88,1.54,6.41,6.41,0,0,1,1.32,4.28v.4a6.71,6.71,0,0,1-1.37,4.32,4.73,4.73,0,0,1-3.9,1.71,5.9,5.9,0,0,1-2.16-.37,3.79,3.79,0,0,1-1.48-.95A3.33,3.33,0,0,1,463.57,296.84Zm2.77-3.16a3.6,3.6,0,0,0,4,0,2,2,0,0,0,0-3.15,3.22,3.22,0,0,0-2-.58,3.16,3.16,0,0,0-2,.58,1.87,1.87,0,0,0-.79,1.58A1.89,1.89,0,0,0,466.34,293.68Z" fill="#003a50"/><path d="M475.71,300.06a1,1,0,0,1-.32-.8,1.07,1.07,0,0,1,.32-.81,1.24,1.24,0,0,1,.87-.3,1.23,1.23,0,0,1,.87.3,1,1,0,0,1,.32.81,1,1,0,0,1-.32.8,1.23,1.23,0,0,1-.87.3A1.24,1.24,0,0,1,475.71,300.06Z" fill="#003a50"/><path d="M489.5,300.19h-9.94v-1.56a2.8,2.8,0,0,1,.58-1.74,4.12,4.12,0,0,1,1.45-1.2c.5-.26,1.12-.54,1.87-.87l1.88-.77a4.21,4.21,0,0,0,1.45-.91,1.81,1.81,0,0,0,.57-1.31c0-1.26-.89-1.88-2.67-1.88s-2.68.72-2.68,2.16v.4H479.9v-.4a3.6,3.6,0,0,1,1.27-3,5.34,5.34,0,0,1,3.51-1,5.66,5.66,0,0,1,3.52,1,3.29,3.29,0,0,1,1.27,2.75,3.17,3.17,0,0,1-.56,1.84,4.16,4.16,0,0,1-1.4,1.3,18.74,18.74,0,0,1-1.84.94c-.63.27-1.23.52-1.83.74a5.26,5.26,0,0,0-1.4.75,1.23,1.23,0,0,0-.57,1h7.63Z" fill="#003a50"/><path d="M192.26,256.63h-9.94v-1.56a2.79,2.79,0,0,1,.58-1.75,4,4,0,0,1,1.45-1.2c.5-.25,1.12-.54,1.87-.86s1.32-.56,1.88-.77a4.09,4.09,0,0,0,1.44-.92,1.8,1.8,0,0,0,.58-1.3q0-1.89-2.67-1.89c-1.79,0-2.68.72-2.68,2.16V249h-2.11v-.41a3.65,3.65,0,0,1,1.26-3,5.45,5.45,0,0,1,3.52-1,5.66,5.66,0,0,1,3.52,1,3.3,3.3,0,0,1,1.27,2.75,3.12,3.12,0,0,1-.56,1.83,4.28,4.28,0,0,1-1.4,1.31c-.6.34-1.22.65-1.84.93s-1.24.53-1.83.75a5.33,5.33,0,0,0-1.41.75,1.23,1.23,0,0,0-.56.95h7.63Z" fill="#003a50"/><path d="M194.36,256.5a1,1,0,0,1-.32-.81,1.07,1.07,0,0,1,.32-.81,1.25,1.25,0,0,1,.88-.29,1.2,1.2,0,0,1,.86.29,1,1,0,0,1,.33.81,1,1,0,0,1-.33.81,1.2,1.2,0,0,1-.86.3A1.25,1.25,0,0,1,194.36,256.5Z" fill="#003a50"/><path d="M208.15,256.63h-9.94v-1.56a2.85,2.85,0,0,1,.58-1.75,4.12,4.12,0,0,1,1.45-1.2c.5-.25,1.12-.54,1.87-.86s1.33-.56,1.88-.77a4.23,4.23,0,0,0,1.45-.92,1.78,1.78,0,0,0,.57-1.3q0-1.89-2.67-1.89c-1.78,0-2.68.72-2.68,2.16V249h-2.11v-.41a3.63,3.63,0,0,1,1.27-3,5.42,5.42,0,0,1,3.51-1,5.66,5.66,0,0,1,3.52,1,3.27,3.27,0,0,1,1.27,2.75,3.05,3.05,0,0,1-.56,1.83,4.18,4.18,0,0,1-1.4,1.31c-.6.34-1.21.65-1.84.93s-1.23.53-1.83.75a5.26,5.26,0,0,0-1.4.75,1.22,1.22,0,0,0-.57.95h7.63Z" fill="#003a50"/><path d="M149.69,290.12h-5.83v-1.85h8.87v1.85l-4.53,2.65v.07h1.28a3.9,3.9,0,0,1,2.79,1,3.5,3.5,0,0,1,1.06,2.67,3.37,3.37,0,0,1-1.33,2.83,7,7,0,0,1-7.25,0,3.37,3.37,0,0,1-1.33-2.86v-.33h2.11v.33c0,1.36.95,2,2.84,2s2.85-.66,2.85-2-.95-2-2.85-2h-3.26v-1.67l4.58-2.68Z" fill="#003a50"/><path d="M155.43,300.06a1,1,0,0,1-.32-.8,1,1,0,0,1,.32-.81,1.41,1.41,0,0,1,1.74,0,1.07,1.07,0,0,1,.32.81,1,1,0,0,1-.32.8,1.41,1.41,0,0,1-1.74,0Z" fill="#003a50"/><path d="M167.77,300.19h-2.11v-2.65h-7V295.7l6.3-7.43h2.79v7.43h1.6v1.84h-1.6Zm-2.11-4.49v-5.33h-.06l-4.48,5.28v.05Z" fill="#003a50"/><path d="M105.17,250.68l-2.49,1.95v-2.24l2.74-2.27h1.86V260h-2.11Z" fill="#003a50"/><path d="M109.81,259.9a1,1,0,0,1-.33-.8,1,1,0,0,1,.33-.81,1.4,1.4,0,0,1,1.73,0,1,1,0,0,1,.33.81,1,1,0,0,1-.33.8,1.4,1.4,0,0,1-1.73,0Z" fill="#003a50"/><path d="M119.1,252.05a5,5,0,0,1,3.34,1.06,3.68,3.68,0,0,1,1.26,3,3.73,3.73,0,0,1-1.3,3,5.39,5.39,0,0,1-3.55,1.08,5.8,5.8,0,0,1-3.57-1,3.16,3.16,0,0,1-1.28-2.69h2.11a1.54,1.54,0,0,0,.7,1.34,3.62,3.62,0,0,0,2,.48,3.15,3.15,0,0,0,2-.57,2.37,2.37,0,0,0,0-3.39,3.25,3.25,0,0,0-2.07-.58,3.72,3.72,0,0,0-1.93.41,2,2,0,0,0-.69.64l0,.13H114v-6.88h8.88V250h-6.77v3h0a1.91,1.91,0,0,1,.4-.31,3.82,3.82,0,0,1,.54-.26A5.69,5.69,0,0,1,119.1,252.05Z" fill="#003a50"/><path d="M184.12,147H182v-2.66h-7V142.5l6.3-7.42h2.79v7.42h1.6v1.84h-1.6ZM182,142.5v-5.33H182l-4.48,5.28v.05Z" fill="#003a50"/><path d="M187.41,146.86a1,1,0,0,1-.33-.8,1,1,0,0,1,.33-.81,1.4,1.4,0,0,1,1.73,0,1,1,0,0,1,.33.81,1,1,0,0,1-.33.8,1.4,1.4,0,0,1-1.73,0Z" fill="#003a50"/><path d="M196.7,139a5,5,0,0,1,3.34,1.06,4.17,4.17,0,0,1,0,6,5.39,5.39,0,0,1-3.55,1.08,5.75,5.75,0,0,1-3.56-1,3.16,3.16,0,0,1-1.29-2.69h2.11a1.54,1.54,0,0,0,.7,1.34,3.62,3.62,0,0,0,2,.48,3.13,3.13,0,0,0,2-.57,2.34,2.34,0,0,0,0-3.39,3.25,3.25,0,0,0-2.07-.58,3.65,3.65,0,0,0-1.92.41,1.92,1.92,0,0,0-.7.64l0,.13H191.6v-6.88h8.88v1.84h-6.77v3h0a2.32,2.32,0,0,1,.4-.31,3.47,3.47,0,0,1,.55-.26A5.6,5.6,0,0,1,196.7,139Z" fill="#003a50"/><path d="M456.17,137.64l-2.49,2v-2.25l2.74-2.26h1.86V147h-2.11Z" fill="#003a50"/><path d="M466.19,139a5,5,0,0,1,3.34,1.06,4.19,4.19,0,0,1,0,6,5.41,5.41,0,0,1-3.55,1.08,5.8,5.8,0,0,1-3.57-1,3.16,3.16,0,0,1-1.29-2.69h2.11a1.55,1.55,0,0,0,.71,1.34,3.57,3.57,0,0,0,2,.48,3.17,3.17,0,0,0,2-.57,2.37,2.37,0,0,0,0-3.39,3.28,3.28,0,0,0-2.08-.58,3.7,3.7,0,0,0-1.92.41,2.12,2.12,0,0,0-.7.64l-.05.13h-2.11v-6.88H470v1.84h-6.78v3h.05a2.78,2.78,0,0,1,.4-.31,3.94,3.94,0,0,1,.55-.26A5.66,5.66,0,0,1,466.19,139Z" fill="#003a50"/><path d="M472.89,146.86a1,1,0,0,1-.32-.8,1.07,1.07,0,0,1,.32-.81,1.25,1.25,0,0,1,.88-.3,1.2,1.2,0,0,1,.86.3,1,1,0,0,1,.33.81,1,1,0,0,1-.33.8,1.2,1.2,0,0,1-.86.3A1.25,1.25,0,0,1,472.89,146.86Z" fill="#003a50"/><path d="M478.8,137.64l-2.48,2v-2.25l2.73-2.26h1.87V147H478.8Z" fill="#003a50"/></g></svg>