<svg id="Слой_1" data-name="Слой 1" xmlns="http://www.w3.org/2000/svg" xmlns:xlink="http://www.w3.org/1999/xlink" viewBox="0 0 583.94 844.72"><defs><clipPath id="clip-path"><polygon points="0.17 0 0.17 377.43 51.02 377.43 51.02 444.47 157.21 444.47 157.21 844.72 581.56 844.72 581.56 0 0.17 0" fill="none"/></clipPath></defs><polygon points="51.02 443.75 51.02 444.47 157.21 444.47 157.21 804.88 168.43 804.88 165.68 437.04 51.02 443.75" fill="#fff"/><polygon points="53.66 8.39 53.66 293.7 67.39 326.01 67.39 375.54 67.39 438.95 162.41 437.72 162 804.88 531.47 804.88 530.16 430.77 529.9 430.77 529.9 9.15 74.83 9.15 74.83 8.39 53.66 8.39" fill="#fff"/><polygon points="62.37 0 61.88 4.04 531.46 4.04 531.46 0 62.37 0" fill="#fff"/><g clip-path="url(#clip-path)"><rect x="-560.72" y="-1376.29" width="1115.44" height="2194.74" fill="none" stroke="#003a50" stroke-miterlimit="10"/><polygon points="-535.9 -290.57 -535.9 795.49 530.57 795.49 530.57 -1352.37 -535.9 -1352.53 -535.9 -359.37 -535.9 -290.57" fill="none" stroke="#003a50" stroke-miterlimit="10"/></g><rect x="196.12" y="803.84" width="91.81" height="4.56" fill="#fff"/><rect x="196.12" y="803.84" width="91.81" height="4.56" fill="none" stroke="#003a50" stroke-miterlimit="10"/><line x1="196.12" y1="806.12" x2="287.93" y2="806.12" fill="none" stroke="#003a50" stroke-miterlimit="10"/><rect x="196.12" y="803.84" width="4.64" height="4.56" fill="#fff"/><rect x="196.12" y="803.84" width="4.64" height="4.56" fill="none" stroke="#003a50" stroke-miterlimit="10"/><rect x="283.3" y="803.84" width="4.64" height="4.56" fill="#fff"/><rect x="283.3" y="803.84" width="4.64" height="4.56" fill="none" stroke="#003a50" stroke-miterlimit="10"/><rect x="239.71" y="803.84" width="4.64" height="4.56" fill="#fff"/><rect x="239.71" y="803.84" width="4.64" height="4.56" fill="none" stroke="#003a50" stroke-miterlimit="10"/><rect x="379.9" y="803.84" width="166.08" height="4.56" fill="#fff"/><rect x="379.9" y="803.84" width="166.08" height="4.56" fill="none" stroke="#003a50" stroke-miterlimit="10"/><line x1="545.98" y1="806.12" x2="379.9" y2="806.12" fill="none" stroke="#003a50" stroke-miterlimit="10"/><rect x="500.48" y="803.84" width="5.31" height="4.56" fill="#fff"/><rect x="500.48" y="803.84" width="5.31" height="4.56" fill="none" stroke="#003a50" stroke-miterlimit="10"/><rect x="460.29" y="803.84" width="5.31" height="4.56" fill="#fff"/><rect x="460.29" y="803.84" width="5.31" height="4.56" fill="none" stroke="#003a50" stroke-miterlimit="10"/><rect x="540.67" y="803.84" width="5.31" height="4.56" fill="#fff"/><rect x="540.67" y="803.84" width="5.31" height="4.56" fill="none" stroke="#003a50" stroke-miterlimit="10"/><rect x="379.9" y="803.84" width="5.31" height="4.56" fill="#fff"/><rect x="379.9" y="803.84" width="5.31" height="4.56" fill="none" stroke="#003a50" stroke-miterlimit="10"/><rect x="420.1" y="803.84" width="5.31" height="4.56" fill="#fff"/><rect x="420.1" y="803.84" width="5.31" height="4.56" fill="none" stroke="#003a50" stroke-miterlimit="10"/><rect x="541.49" y="443.5" width="4.56" height="87.74" fill="#fff"/><rect x="541.49" y="443.5" width="4.56" height="87.74" fill="none" stroke="#003a50" stroke-miterlimit="10"/><line x1="543.77" y1="531.24" x2="543.77" y2="443.5" fill="none" stroke="#003a50" stroke-miterlimit="10"/><rect x="541.49" y="526.81" width="4.56" height="4.43" fill="#fff"/><rect x="541.49" y="526.81" width="4.56" height="4.43" fill="none" stroke="#003a50" stroke-miterlimit="10"/><rect x="541.49" y="443.51" width="4.56" height="4.43" fill="#fff"/><rect x="541.49" y="443.51" width="4.56" height="4.43" fill="none" stroke="#003a50" stroke-miterlimit="10"/><rect x="541.49" y="485.16" width="4.56" height="4.43" fill="#fff"/><rect x="541.49" y="485.16" width="4.56" height="4.43" fill="none" stroke="#003a50" stroke-miterlimit="10"/><rect x="541.49" y="626.52" width="4.56" height="181.86" fill="#fff"/><rect x="541.49" y="626.52" width="4.56" height="181.86" fill="none" stroke="#003a50" stroke-miterlimit="10"/><line x1="543.77" y1="626.52" x2="543.77" y2="808.38" fill="none" stroke="#003a50" stroke-miterlimit="10"/><rect x="541.49" y="670.53" width="4.56" height="5.81" fill="#fff"/><rect x="541.49" y="670.53" width="4.56" height="5.81" fill="none" stroke="#003a50" stroke-miterlimit="10"/><rect x="541.49" y="714.54" width="4.56" height="5.82" fill="#fff"/><rect x="541.49" y="714.54" width="4.56" height="5.82" fill="none" stroke="#003a50" stroke-miterlimit="10"/><rect x="541.49" y="626.52" width="4.56" height="5.81" fill="#fff"/><rect x="541.49" y="626.52" width="4.56" height="5.81" fill="none" stroke="#003a50" stroke-miterlimit="10"/><rect x="541.49" y="802.56" width="4.56" height="5.82" fill="#fff"/><rect x="541.49" y="802.56" width="4.56" height="5.82" fill="none" stroke="#003a50" stroke-miterlimit="10"/><rect x="541.49" y="758.55" width="4.56" height="5.82" fill="#fff"/><rect x="541.49" y="758.55" width="4.56" height="5.82" fill="none" stroke="#003a50" stroke-miterlimit="10"/><rect x="541.49" y="260.17" width="4.56" height="88.99" fill="#fff"/><rect x="541.49" y="260.17" width="4.56" height="88.99" fill="none" stroke="#003a50" stroke-miterlimit="10"/><line x1="543.77" y1="349.16" x2="543.77" y2="260.17" fill="none" stroke="#003a50" stroke-miterlimit="10"/><rect x="541.49" y="344.67" width="4.56" height="4.49" fill="#fff"/><rect x="541.49" y="344.67" width="4.56" height="4.49" fill="none" stroke="#003a50" stroke-miterlimit="10"/><rect x="541.49" y="260.17" width="4.56" height="4.49" fill="#fff"/><rect x="541.49" y="260.17" width="4.56" height="4.49" fill="none" stroke="#003a50" stroke-miterlimit="10"/><rect x="541.49" y="302.42" width="4.56" height="4.49" fill="#fff"/><rect x="541.49" y="302.42" width="4.56" height="4.49" fill="none" stroke="#003a50" stroke-miterlimit="10"/><rect x="541.49" y="76.57" width="4.56" height="88.24" fill="#fff"/><rect x="541.49" y="76.57" width="4.56" height="88.24" fill="none" stroke="#003a50" stroke-miterlimit="10"/><line x1="543.77" y1="164.81" x2="543.77" y2="76.57" fill="none" stroke="#003a50" stroke-miterlimit="10"/><rect x="541.49" y="160.36" width="4.56" height="4.45" fill="#fff"/><rect x="541.49" y="160.36" width="4.56" height="4.45" fill="none" stroke="#003a50" stroke-miterlimit="10"/><rect x="541.49" y="76.57" width="4.56" height="4.46" fill="#fff"/><rect x="541.49" y="76.57" width="4.56" height="4.46" fill="none" stroke="#003a50" stroke-miterlimit="10"/><rect x="541.49" y="118.47" width="4.56" height="4.45" fill="#fff"/><rect x="541.49" y="118.46" width="4.56" height="4.45" fill="none" stroke="#003a50" stroke-miterlimit="10"/><rect x="102.53" y="170.88" width="98.4" height="45.29" fill="none" stroke="#003a50" stroke-miterlimit="10"/><g clip-path="url(#clip-path)"><rect x="106.59" y="176.63" width="90.01" height="34.22" rx="13.7" fill="none" stroke="#003a50" stroke-miterlimit="10"/><path d="M122.16,191.29a2.36,2.36,0,1,0,2.36,2.35A2.35,2.35,0,0,0,122.16,191.29Z" fill="none" stroke="#003a50" stroke-miterlimit="10"/><path d="M202.11,266H173.53v23.08h28.58a11.54,11.54,0,0,0,11.54-11.54h0A11.54,11.54,0,0,0,202.11,266Z" fill="none" stroke="#003a50" stroke-miterlimit="10"/></g><rect x="173.53" y="265.97" width="11.08" height="23.09" fill="none" stroke="#003a50" stroke-miterlimit="10"/><rect x="228.3" y="433.79" width="33.98" height="34.03" fill="none" stroke="#003a50" stroke-miterlimit="10"/><g clip-path="url(#clip-path)"><path d="M249.62,450V439H241V450a3.54,3.54,0,0,0,3.55,3.54h1.52A3.54,3.54,0,0,0,249.62,450Z" fill="none" stroke="#003a50" stroke-miterlimit="10"/></g><polyline points="241.84 464.12 245.32 464.12 248.79 464.12" fill="none" stroke="#003a50" stroke-miterlimit="10"/><line x1="245.32" y1="453.55" x2="245.32" y2="464.12" fill="none" stroke="#003a50" stroke-miterlimit="10"/><g clip-path="url(#clip-path)"><rect x="123.82" y="477.04" width="34.03" height="33.98" fill="none" stroke="#003a50" stroke-miterlimit="10"/><path d="M145.14,492.52v-11h-8.6v11a3.54,3.54,0,0,0,3.54,3.55h1.52A3.54,3.54,0,0,0,145.14,492.52Z" fill="none" stroke="#003a50" stroke-miterlimit="10"/></g><rect x="235.23" y="547.44" width="34.03" height="34.03" fill="none" stroke="#003a50" stroke-miterlimit="10"/><g clip-path="url(#clip-path)"><circle cx="260.01" cy="572.06" r="4.64" transform="translate(-363.31 492.49) rotate(-58.28)" fill="none" stroke="#003a50" stroke-miterlimit="10"/><circle cx="244.52" cy="572.06" r="4.64" transform="translate(-370.66 479.31) rotate(-58.28)" fill="none" stroke="#003a50" stroke-miterlimit="10"/><circle cx="260.01" cy="556.97" r="4.64" transform="translate(-350.47 485.33) rotate(-58.28)" fill="none" stroke="#003a50" stroke-miterlimit="10"/><circle cx="244.52" cy="556.97" r="4.64" transform="translate(-357.81 472.15) rotate(-58.28)" fill="none" stroke="#003a50" stroke-miterlimit="10"/><rect x="269.86" y="-33.74" width="34.03" height="34.03" fill="none" stroke="#003a50" stroke-miterlimit="10"/><rect x="123.91" y="518.17" width="34.03" height="34.03" fill="none" stroke="#003a50" stroke-miterlimit="10"/><circle cx="133.32" cy="542.95" r="4.64" fill="none" stroke="#003a50" stroke-miterlimit="10"/><circle cx="133.32" cy="527.47" r="4.64" fill="none" stroke="#003a50" stroke-miterlimit="10"/><circle cx="148.41" cy="542.95" r="4.64" fill="none" stroke="#003a50" stroke-miterlimit="10"/><circle cx="148.41" cy="527.47" r="4.64" fill="none" stroke="#003a50" stroke-miterlimit="10"/></g><rect x="380.72" y="228.81" width="102.08" height="17.02" fill="none" stroke="#003a50" stroke-miterlimit="10"/><polygon points="474.77 237.86 431.86 234.33 388.74 237.86 388.74 240.32 474.77 240.32 474.77 237.86" fill="none" stroke="#003a50" stroke-miterlimit="10"/><rect x="354.94" y="198.58" width="175.1" height="17.02" fill="none" stroke="#003a50" stroke-miterlimit="10"/><polygon points="485.5 206.55 442.59 210.07 399.47 206.55 399.47 204.09 485.5 204.09 485.5 206.55" fill="none" stroke="#003a50" stroke-miterlimit="10"/><g clip-path="url(#clip-path)"><rect x="123.91" y="477.14" width="33.61" height="122.3" fill="none" stroke="#003a50" stroke-miterlimit="10"/><rect x="76.84" y="444.4" width="80.68" height="32.74" fill="none" stroke="#003a50" stroke-miterlimit="10"/><rect x="213.66" y="-33.86" width="152.42" height="34.29" fill="none" stroke="#003a50" stroke-miterlimit="10"/></g><rect x="354.25" y="674.66" width="52.35" height="113.71" fill="none" stroke="#003a50" stroke-miterlimit="10"/><g clip-path="url(#clip-path)"><path d="M397.66,684.36H363.6a2.11,2.11,0,0,0-2.1,2.11v67.65h38.26V686.47A2.11,2.11,0,0,0,397.66,684.36Z" fill="none" stroke="#003a50" stroke-miterlimit="10"/></g><rect x="361.5" y="740.26" width="38.27" height="13.86" fill="none" stroke="#003a50" stroke-miterlimit="10"/><g clip-path="url(#clip-path)"><rect x="361.44" y="757.73" width="38.72" height="22.89" rx="2.2" fill="none" stroke="#003a50" stroke-miterlimit="10"/></g><rect x="247.85" y="228.32" width="42.24" height="83.65" fill="none" stroke="#003a50" stroke-miterlimit="10"/><g clip-path="url(#clip-path)"><path d="M271.43,248.27a2.46,2.46,0,1,1-2.46-2.46A2.46,2.46,0,0,1,271.43,248.27Z" fill="none" stroke="#003a50" stroke-miterlimit="10"/></g><rect x="66.9" y="58.69" width="25.4" height="72.02" fill="none" stroke="#003a50" stroke-miterlimit="10"/><g clip-path="url(#clip-path)"><path d="M87.41,126.39H68a2.83,2.83,0,0,1-2.83-2.83V104.81A2.83,2.83,0,0,1,68,102H87.41a2.83,2.83,0,0,1,2.83,2.83v18.75A2.83,2.83,0,0,1,87.41,126.39Z" fill="none" stroke="#003a50" stroke-miterlimit="10"/><path d="M79.63,114.18a1.91,1.91,0,1,1-1.91-1.91A1.92,1.92,0,0,1,79.63,114.18Z" fill="none" stroke="#003a50" stroke-miterlimit="10"/><path d="M87.41,90.61H68a2.83,2.83,0,0,1-2.83-2.83V69A2.83,2.83,0,0,1,68,66.2H87.41A2.83,2.83,0,0,1,90.24,69V87.78A2.83,2.83,0,0,1,87.41,90.61Z" fill="none" stroke="#003a50" stroke-miterlimit="10"/><path d="M79.63,78.4a1.91,1.91,0,1,1-1.91-1.91A1.92,1.92,0,0,1,79.63,78.4Z" fill="none" stroke="#003a50" stroke-miterlimit="10"/><path d="M118.55,472.2V457a3.24,3.24,0,0,0-3.24-3.23H91.71A3.24,3.24,0,0,0,88.47,457V472.2a3.24,3.24,0,0,0,3.24,3.24h23.6A3.24,3.24,0,0,0,118.55,472.2Z" fill="none" stroke="#003a50" stroke-miterlimit="10"/><path d="M103.47,463.25a2.43,2.43,0,1,0-2.43-2.43A2.43,2.43,0,0,0,103.47,463.25Z" fill="none" stroke="#003a50" stroke-miterlimit="10"/></g><polygon points="206.5 547.3 206.5 467.95 262.29 467.95 262.29 433.66 169.32 433.66 169.32 467.95 172.2 467.95 172.2 547.3 169.32 547.3 169.32 581.6 296.46 581.6 296.46 547.3 206.5 547.3" fill="none" stroke="#003a50" stroke-miterlimit="10"/><polyline points="174.99 492.22 174.99 499.02 174.99 505.81" fill="none" stroke="#003a50" stroke-miterlimit="10"/><line x1="188.62" y1="499.04" x2="174.99" y2="499.04" fill="none" stroke="#003a50" stroke-miterlimit="10"/><g clip-path="url(#clip-path)"><path d="M199.26,484H184.05a3.23,3.23,0,0,0-3.23,3.23V510.8a3.23,3.23,0,0,0,3.23,3.23h15.21a3.23,3.23,0,0,0,3.24-3.23V487.19A3.24,3.24,0,0,0,199.26,484Z" fill="none" stroke="#003a50" stroke-miterlimit="10"/><path d="M190.31,499a2.43,2.43,0,1,0-2.43,2.43A2.43,2.43,0,0,0,190.31,499Z" fill="none" stroke="#003a50" stroke-miterlimit="10"/><path d="M172.51,45V16.44H149.42V45A11.54,11.54,0,0,0,161,56.56h0A11.54,11.54,0,0,0,172.51,45Z" fill="none" stroke="#003a50" stroke-miterlimit="10"/></g><rect x="149.42" y="16.44" width="23.09" height="11.08" fill="none" stroke="#003a50" stroke-miterlimit="10"/><rect x="65.19" y="16.46" width="67.74" height="42.24" fill="none" stroke="#003a50" stroke-miterlimit="10"/><g clip-path="url(#clip-path)"><circle cx="85.15" cy="37.57" r="2.46" transform="translate(43.76 120.93) rotate(-87.4)" fill="none" stroke="#003a50" stroke-miterlimit="10"/><rect x="67.4" y="-33.73" width="105.92" height="33.89" fill="none" stroke="#003a50" stroke-miterlimit="10"/><path d="M28.41,647.66a1.24,1.24,0,0,1,.94,1.5,13.79,13.79,0,1,0,26.89,6.17,1.26,1.26,0,1,1,2.45.56A16.31,16.31,0,1,1,26.9,648.6,1.25,1.25,0,0,1,28.41,647.66Z" fill="none" stroke="#003a50" stroke-miterlimit="10"/><path d="M83.6,657.38a1.25,1.25,0,0,1,1.75-.33,13.79,13.79,0,0,0,15.53-22.8,1.26,1.26,0,0,1,1.42-2.08,16.31,16.31,0,0,1-18.37,27A1.25,1.25,0,0,1,83.6,657.38Z" fill="none" stroke="#003a50" stroke-miterlimit="10"/><path d="M86.1,610a1.27,1.27,0,0,1-1.33-1.18,13.79,13.79,0,1,0-27.53,1.62,1.26,1.26,0,1,1-2.51.16,16.3,16.3,0,1,1,32.55-1.94A1.25,1.25,0,0,1,86.1,610Z" fill="none" stroke="#003a50" stroke-miterlimit="10"/><path d="M42.61,664.27a12.69,12.69,0,0,1-12-15.48l2-8.88a3.53,3.53,0,0,1,4.24-2.68l13.45,3.08a23.73,23.73,0,0,0,6,9.44l-1,4.2C54,659.92,48.74,664.48,42.61,664.27Z" fill="none" stroke="#003a50" stroke-miterlimit="10"/><path d="M85.43,655.75l-2.32-1.6a23.82,23.82,0,0,0,13.64-21.33l2.52,1.72c5,3.44,7.41,10,5,15.65A12.71,12.71,0,0,1,85.43,655.75Z" fill="none" stroke="#003a50" stroke-miterlimit="10"/><path d="M58.58,613.46l-.12-2c-.36-6.13,3.4-12,9.32-13.49A12.67,12.67,0,0,1,83.67,609.5l.12,1.84a24,24,0,0,0-16.65-1.92A23.5,23.5,0,0,0,58.58,613.46Z" fill="none" stroke="#003a50" stroke-miterlimit="10"/><path d="M56.34,649.75a23.86,23.86,0,0,1-6-9.44,16.51,16.51,0,0,1-.6-2,23.86,23.86,0,0,1,8.85-24.85,23.35,23.35,0,0,1,8.56-4.05,23.87,23.87,0,0,1,28.93,17.41,22.12,22.12,0,0,1,.68,6,23.82,23.82,0,0,1-13.64,21.33,22.85,22.85,0,0,1-4.48,1.6A23.81,23.81,0,0,1,56.34,649.75Z" fill="none" stroke="#003a50" stroke-miterlimit="10"/><path d="M210.48,422.83a1,1,0,0,1-.53.88.94.94,0,0,1-1.28-.45,29.17,29.17,0,0,1,0-24.77,1,1,0,0,1,1.28-.44,1,1,0,0,1,.43,1.31,27.08,27.08,0,0,0,0,23A1,1,0,0,1,210.48,422.83Z" fill="none" stroke="#003a50" stroke-miterlimit="10"/><path d="M205.21,422.83a1,1,0,0,1-.53.88.93.93,0,0,1-1.27-.45,29.17,29.17,0,0,1,0-24.77.94.94,0,0,1,1.27-.44,1,1,0,0,1,.43,1.31,27.08,27.08,0,0,0,0,23A1,1,0,0,1,205.21,422.83Z" fill="none" stroke="#003a50" stroke-miterlimit="10"/><path d="M199.94,422.83a1,1,0,0,1-.53.88.93.93,0,0,1-1.27-.45,29.17,29.17,0,0,1,0-24.77.94.94,0,0,1,1.27-.44,1,1,0,0,1,.43,1.31,27.08,27.08,0,0,0,0,23A1,1,0,0,1,199.94,422.83Z" fill="none" stroke="#003a50" stroke-miterlimit="10"/><path d="M194.68,422.83a1,1,0,0,1-.54.88.93.93,0,0,1-1.27-.45,29.17,29.17,0,0,1,0-24.77.94.94,0,0,1,1.27-.44,1,1,0,0,1,.44,1.31,27.08,27.08,0,0,0,0,23A1.13,1.13,0,0,1,194.68,422.83Z" fill="none" stroke="#003a50" stroke-miterlimit="10"/><path d="M189.41,422.83a1,1,0,0,1-.53.88.94.94,0,0,1-1.28-.45,29.17,29.17,0,0,1,0-24.77,1,1,0,0,1,1.28-.44,1,1,0,0,1,.43,1.31,27.08,27.08,0,0,0,0,23A1,1,0,0,1,189.41,422.83Z" fill="none" stroke="#003a50" stroke-miterlimit="10"/><path d="M184.14,422.83a1,1,0,0,1-.53.88.93.93,0,0,1-1.27-.45,29.17,29.17,0,0,1,0-24.77.94.94,0,0,1,1.27-.44,1,1,0,0,1,.43,1.31,27.08,27.08,0,0,0,0,23A1,1,0,0,1,184.14,422.83Z" fill="none" stroke="#003a50" stroke-miterlimit="10"/><path d="M215.74,422.83a1,1,0,0,1-.53.88.93.93,0,0,1-1.27-.45,29.17,29.17,0,0,1,0-24.77.94.94,0,0,1,1.27-.44,1,1,0,0,1,.43,1.31,27.18,27.18,0,0,0,0,23A1,1,0,0,1,215.74,422.83Z" fill="none" stroke="#003a50" stroke-miterlimit="10"/><path d="M221,422.83a1,1,0,0,1-.53.88.93.93,0,0,1-1.27-.45,29.17,29.17,0,0,1,0-24.77.94.94,0,0,1,1.27-.44,1,1,0,0,1,.43,1.31,27.08,27.08,0,0,0,0,23A1,1,0,0,1,221,422.83Z" fill="none" stroke="#003a50" stroke-miterlimit="10"/></g><line x1="291.09" y1="410.88" x2="173.02" y2="410.88" fill="none" stroke="#003a50" stroke-miterlimit="10"/><rect x="173.02" y="393.92" width="118.06" height="33.36" fill="none" stroke="#003a50" stroke-miterlimit="10"/><g clip-path="url(#clip-path)"><path d="M210.48,616.14a1,1,0,0,1-.53.88,1,1,0,0,1-1.28-.44,29.19,29.19,0,0,1,0-24.78,1,1,0,0,1,1.28-.44,1,1,0,0,1,.43,1.31,27.1,27.1,0,0,0,0,23A.94.94,0,0,1,210.48,616.14Z" fill="none" stroke="#003a50" stroke-miterlimit="10"/><path d="M205.21,616.14a1,1,0,0,1-.53.88.94.94,0,0,1-1.27-.44,29.19,29.19,0,0,1,0-24.78.94.94,0,0,1,1.27-.44,1,1,0,0,1,.43,1.31,27.1,27.1,0,0,0,0,23A.94.94,0,0,1,205.21,616.14Z" fill="none" stroke="#003a50" stroke-miterlimit="10"/><path d="M199.94,616.14a1,1,0,0,1-.53.88.94.94,0,0,1-1.27-.44,29.19,29.19,0,0,1,0-24.78.94.94,0,0,1,1.27-.44,1,1,0,0,1,.43,1.31,27.1,27.1,0,0,0,0,23A.94.94,0,0,1,199.94,616.14Z" fill="none" stroke="#003a50" stroke-miterlimit="10"/><path d="M194.68,616.14a1,1,0,0,1-.54.88.94.94,0,0,1-1.27-.44,29.19,29.19,0,0,1,0-24.78.94.94,0,0,1,1.27-.44,1,1,0,0,1,.44,1.31,27.1,27.1,0,0,0,0,23A1.08,1.08,0,0,1,194.68,616.14Z" fill="none" stroke="#003a50" stroke-miterlimit="10"/><path d="M189.41,616.14a1,1,0,0,1-.53.88,1,1,0,0,1-1.28-.44,29.19,29.19,0,0,1,0-24.78,1,1,0,0,1,1.28-.44,1,1,0,0,1,.43,1.31,27.1,27.1,0,0,0,0,23A.94.94,0,0,1,189.41,616.14Z" fill="none" stroke="#003a50" stroke-miterlimit="10"/><path d="M184.14,616.14a1,1,0,0,1-.53.88.94.94,0,0,1-1.27-.44,29.19,29.19,0,0,1,0-24.78.94.94,0,0,1,1.27-.44,1,1,0,0,1,.43,1.31,27.1,27.1,0,0,0,0,23A.94.94,0,0,1,184.14,616.14Z" fill="none" stroke="#003a50" stroke-miterlimit="10"/><path d="M215.74,616.14a1,1,0,0,1-.53.88.94.94,0,0,1-1.27-.44,29.19,29.19,0,0,1,0-24.78.94.94,0,0,1,1.27-.44,1,1,0,0,1,.43,1.31,27.2,27.2,0,0,0,0,23A.94.94,0,0,1,215.74,616.14Z" fill="none" stroke="#003a50" stroke-miterlimit="10"/><path d="M221,616.14a1,1,0,0,1-.53.88.94.94,0,0,1-1.27-.44,29.19,29.19,0,0,1,0-24.78.94.94,0,0,1,1.27-.44,1,1,0,0,1,.43,1.31,27.1,27.1,0,0,0,0,23A.94.94,0,0,1,221,616.14Z" fill="none" stroke="#003a50" stroke-miterlimit="10"/></g><line x1="291.09" y1="604.19" x2="173.02" y2="604.19" fill="none" stroke="#003a50" stroke-miterlimit="10"/><rect x="173.02" y="587.24" width="118.06" height="33.36" fill="none" stroke="#003a50" stroke-miterlimit="10"/><polygon points="247.59 259.65 174.1 259.44 174.1 228.87 247.59 229.09 247.59 259.65" fill="none" stroke="#003a50" stroke-miterlimit="10"/><g clip-path="url(#clip-path)"><path d="M215,253.62v-23a3.35,3.35,0,0,1,3.35-3.36h22.26a3.36,3.36,0,0,1,3.36,3.36v23a3.36,3.36,0,0,1-3.36,3.36H218.3A3.35,3.35,0,0,1,215,253.62Z" fill="none" stroke="#003a50" stroke-miterlimit="10"/><path d="M229.43,244.39a2.27,2.27,0,1,1,2.27-2.27A2.27,2.27,0,0,1,229.43,244.39Z" fill="none" stroke="#003a50" stroke-miterlimit="10"/><rect x="123.86" y="565.84" width="33.54" height="33.54" fill="none" stroke="#003a50" stroke-miterlimit="10"/></g><rect x="262.29" y="433.78" width="34.03" height="34.03" fill="none" stroke="#003a50" stroke-miterlimit="10"/><line x1="289.29" y1="450.8" x2="269.32" y2="450.8" fill="none" stroke="#003a50" stroke-miterlimit="10"/><line x1="279.3" y1="440.82" x2="279.3" y2="460.78" fill="none" stroke="#003a50" stroke-miterlimit="10"/><line x1="286.36" y1="443.74" x2="272.25" y2="457.86" fill="none" stroke="#003a50" stroke-miterlimit="10"/><line x1="272.24" y1="443.74" x2="286.36" y2="457.86" fill="none" stroke="#003a50" stroke-miterlimit="10"/><g clip-path="url(#clip-path)"><rect x="179.59" y="-33.87" width="34.03" height="34.03" fill="none" stroke="#003a50" stroke-miterlimit="10"/><rect x="331.77" y="-33.87" width="34.03" height="34.03" fill="none" stroke="#003a50" stroke-miterlimit="10"/><path d="M208.34,107.77a.79.79,0,0,1-.71-.44.8.8,0,0,1,.36-1.06,22.59,22.59,0,0,1,19.78,0,.79.79,0,0,1-.69,1.42,20.93,20.93,0,0,0-18.4,0A.84.84,0,0,1,208.34,107.77Z" fill="none" stroke="#003a50" stroke-miterlimit="10"/><path d="M208.34,103.41a.78.78,0,0,1-.35-1.49,22.5,22.5,0,0,1,19.78,0,.78.78,0,0,1-.69,1.41,20.93,20.93,0,0,0-18.4,0A.84.84,0,0,1,208.34,103.41Z" fill="none" stroke="#003a50" stroke-miterlimit="10"/><path d="M208.34,99.05a.77.77,0,0,1-.71-.44.78.78,0,0,1,.36-1,22.59,22.59,0,0,1,19.78,0,.78.78,0,0,1-.69,1.41,20.93,20.93,0,0,0-18.4,0A.71.71,0,0,1,208.34,99.05Z" fill="none" stroke="#003a50" stroke-miterlimit="10"/><path d="M208.34,94.69a.77.77,0,0,1-.71-.44.78.78,0,0,1,.36-1,22.59,22.59,0,0,1,19.78,0,.78.78,0,0,1-.69,1.41,21,21,0,0,0-18.4,0A.71.71,0,0,1,208.34,94.69Z" fill="none" stroke="#003a50" stroke-miterlimit="10"/><path d="M208.34,90.34a.79.79,0,0,1-.71-.44.8.8,0,0,1,.36-1.06,22.59,22.59,0,0,1,19.78,0,.79.79,0,0,1-.69,1.42,20.93,20.93,0,0,0-18.4,0A.84.84,0,0,1,208.34,90.34Z" fill="none" stroke="#003a50" stroke-miterlimit="10"/><path d="M208.34,86a.78.78,0,0,1-.35-1.49,22.5,22.5,0,0,1,19.78,0,.78.78,0,0,1-.69,1.41,20.93,20.93,0,0,0-18.4,0A.84.84,0,0,1,208.34,86Z" fill="none" stroke="#003a50" stroke-miterlimit="10"/><path d="M208.34,112.12a.77.77,0,0,1-.71-.44.78.78,0,0,1,.36-1.05,22.59,22.59,0,0,1,19.78,0,.78.78,0,0,1-.69,1.41,21,21,0,0,0-18.4,0A.71.71,0,0,1,208.34,112.12Z" fill="none" stroke="#003a50" stroke-miterlimit="10"/><path d="M208.34,116.48a.77.77,0,0,1-.71-.44A.78.78,0,0,1,208,115a22.59,22.59,0,0,1,19.78,0,.78.78,0,0,1-.69,1.41,20.93,20.93,0,0,0-18.4,0A.71.71,0,0,1,208.34,116.48Z" fill="none" stroke="#003a50" stroke-miterlimit="10"/></g><line x1="217.88" y1="121.17" x2="217.88" y2="47.59" fill="none" stroke="#003a50" stroke-miterlimit="10"/><rect x="206.78" y="47.59" width="22.41" height="73.92" fill="none" stroke="#003a50" stroke-miterlimit="10"/><g clip-path="url(#clip-path)"><path d="M272.24,107.77a.79.79,0,0,1-.35-1.5,22.59,22.59,0,0,1,19.78,0,.79.79,0,0,1-.69,1.42,20.93,20.93,0,0,0-18.4,0A.84.84,0,0,1,272.24,107.77Z" fill="none" stroke="#003a50" stroke-miterlimit="10"/><path d="M272.24,103.41a.8.8,0,0,1-.71-.44.78.78,0,0,1,.36-1,22.5,22.5,0,0,1,19.78,0,.78.78,0,0,1-.69,1.41,20.93,20.93,0,0,0-18.4,0A.84.84,0,0,1,272.24,103.41Z" fill="none" stroke="#003a50" stroke-miterlimit="10"/><path d="M272.24,99.05a.78.78,0,0,1-.35-1.49,22.59,22.59,0,0,1,19.78,0A.78.78,0,0,1,291,99a20.93,20.93,0,0,0-18.4,0A.71.71,0,0,1,272.24,99.05Z" fill="none" stroke="#003a50" stroke-miterlimit="10"/><path d="M272.24,94.69a.78.78,0,0,1-.35-1.49,22.59,22.59,0,0,1,19.78,0,.78.78,0,0,1-.69,1.41,21,21,0,0,0-18.4,0A.71.71,0,0,1,272.24,94.69Z" fill="none" stroke="#003a50" stroke-miterlimit="10"/><path d="M272.24,90.34a.79.79,0,0,1-.35-1.5,22.59,22.59,0,0,1,19.78,0,.79.79,0,0,1-.69,1.42,20.93,20.93,0,0,0-18.4,0A.84.84,0,0,1,272.24,90.34Z" fill="none" stroke="#003a50" stroke-miterlimit="10"/><path d="M272.24,86a.8.8,0,0,1-.71-.44.78.78,0,0,1,.36-1.05,22.5,22.5,0,0,1,19.78,0A.78.78,0,0,1,291,85.9a20.93,20.93,0,0,0-18.4,0A.84.84,0,0,1,272.24,86Z" fill="none" stroke="#003a50" stroke-miterlimit="10"/><path d="M272.24,112.12a.78.78,0,0,1-.35-1.49,22.59,22.59,0,0,1,19.78,0A.78.78,0,0,1,291,112a21,21,0,0,0-18.4,0A.71.71,0,0,1,272.24,112.12Z" fill="none" stroke="#003a50" stroke-miterlimit="10"/><path d="M272.24,116.48a.78.78,0,0,1-.35-1.49,22.59,22.59,0,0,1,19.78,0,.78.78,0,0,1-.69,1.41,20.93,20.93,0,0,0-18.4,0A.71.71,0,0,1,272.24,116.48Z" fill="none" stroke="#003a50" stroke-miterlimit="10"/></g><line x1="281.78" y1="121.17" x2="281.78" y2="47.59" fill="none" stroke="#003a50" stroke-miterlimit="10"/><rect x="270.68" y="47.59" width="22.41" height="73.92" fill="none" stroke="#003a50" stroke-miterlimit="10"/><rect x="412.95" y="586.9" width="118.17" height="34.03" fill="none" stroke="#003a50" stroke-miterlimit="10"/><g clip-path="url(#clip-path)"><path d="M430.07,616.1a1,1,0,0,0,.56.91,1,1,0,0,0,1.34-.46,28.8,28.8,0,0,0,0-25.27,1,1,0,1,0-1.8.89,26.74,26.74,0,0,1,0,23.5A1,1,0,0,0,430.07,616.1Z" fill="none" stroke="#003a50" stroke-miterlimit="10"/><path d="M435.64,616.1a1,1,0,0,0,.56.91,1,1,0,0,0,1.34-.46,28.8,28.8,0,0,0,0-25.27,1,1,0,1,0-1.8.89,26.74,26.74,0,0,1,0,23.5A1,1,0,0,0,435.64,616.1Z" fill="none" stroke="#003a50" stroke-miterlimit="10"/><path d="M441.2,616.1a1,1,0,0,0,1.91.45,28.8,28.8,0,0,0,0-25.27,1,1,0,1,0-1.8.89,26.83,26.83,0,0,1,0,23.5A1,1,0,0,0,441.2,616.1Z" fill="none" stroke="#003a50" stroke-miterlimit="10"/><path d="M446.77,616.1a1,1,0,0,0,1.91.45,28.8,28.8,0,0,0,0-25.27,1,1,0,1,0-1.8.89,26.83,26.83,0,0,1,0,23.5A.86.86,0,0,0,446.77,616.1Z" fill="none" stroke="#003a50" stroke-miterlimit="10"/><path d="M452.34,616.1a1,1,0,0,0,.56.91,1,1,0,0,0,1.34-.46,28.8,28.8,0,0,0,0-25.27,1,1,0,1,0-1.8.89,26.74,26.74,0,0,1,0,23.5A1,1,0,0,0,452.34,616.1Z" fill="none" stroke="#003a50" stroke-miterlimit="10"/><path d="M457.91,616.1a1,1,0,0,0,1.9.45,28.8,28.8,0,0,0,0-25.27,1,1,0,1,0-1.8.89,26.74,26.74,0,0,1,0,23.5A1,1,0,0,0,457.91,616.1Z" fill="none" stroke="#003a50" stroke-miterlimit="10"/><path d="M424.5,616.1a1,1,0,0,0,1.91.45,28.8,28.8,0,0,0,0-25.27,1,1,0,1,0-1.8.89,26.83,26.83,0,0,1,0,23.5A.86.86,0,0,0,424.5,616.1Z" fill="none" stroke="#003a50" stroke-miterlimit="10"/><path d="M418.94,616.1a1,1,0,0,0,1.9.45,28.8,28.8,0,0,0,0-25.27,1,1,0,1,0-1.8.89,26.74,26.74,0,0,1,0,23.5A1,1,0,0,0,418.94,616.1Z" fill="none" stroke="#003a50" stroke-miterlimit="10"/></g><line x1="412.95" y1="603.91" x2="530.58" y2="603.91" fill="none" stroke="#003a50" stroke-miterlimit="10"/><g clip-path="url(#clip-path)"><path d="M111.16,731.88h41.05v45.78H109V734.09A2.21,2.21,0,0,1,111.16,731.88Z" fill="none" stroke="#003a50" stroke-miterlimit="10"/><path d="M110.93,686h41.28v45.79H110.93a2,2,0,0,1-2-2V688A2,2,0,0,1,110.93,686Z" fill="none" stroke="#003a50" stroke-miterlimit="10"/><path d="M109,777.66a3.11,3.11,0,0,0-2.83,3.33v4.23a3.1,3.1,0,0,0,2.83,3.32h48.21V675.11H109.37a3.12,3.12,0,0,0-2.83,3.33v4.23a3.11,3.11,0,0,0,2.83,3.32h42.84v91.67Z" fill="none" stroke="#003a50" stroke-miterlimit="10"/><path d="M431.81,329.19v41.05h45.78V327H434A2.21,2.21,0,0,0,431.81,329.19Z" fill="none" stroke="#003a50" stroke-miterlimit="10"/><path d="M385.92,329v41.28h45.79V329a2,2,0,0,0-2-2H387.91A2,2,0,0,0,385.92,329Z" fill="none" stroke="#003a50" stroke-miterlimit="10"/><path d="M477.59,327a3.11,3.11,0,0,1,3.33-2.83h4.23a3.1,3.1,0,0,1,3.32,2.83v48.21H375V327.4a3.12,3.12,0,0,1,3.33-2.83h4.23a3.11,3.11,0,0,1,3.32,2.83v42.84h91.67Z" fill="none" stroke="#003a50" stroke-miterlimit="10"/></g><rect x="385.92" y="360.98" width="91.67" height="9.26" fill="none" stroke="#003a50" stroke-miterlimit="10"/><g clip-path="url(#clip-path)"><path d="M496.68,709.92a14.79,14.79,0,0,0-15.93,23.4,1.14,1.14,0,0,0,1.78-1.43,12.47,12.47,0,0,1,14.15-19.51Z" fill="none" stroke="#003a50" stroke-miterlimit="10"/><rect x="496.68" y="680.14" width="34.03" height="84.06" rx="3.31" fill="none" stroke="#003a50" stroke-miterlimit="10"/><path d="M527,682.69a1.4,1.4,0,0,0-1.4,1.39v76.17a1.4,1.4,0,1,0,2.79,0V684.08a1.39,1.39,0,0,0-1.39-1.39" fill="none" stroke="#003a50" stroke-miterlimit="10"/><path d="M512.42,750.52a5.51,5.51,0,1,1,0,7.79A5.51,5.51,0,0,1,512.42,750.52Z" fill="none" stroke="#003a50" stroke-miterlimit="10"/><path d="M512,750.93c1,.1,2.05-.28,3,.7,1.46,1.46-.09,3,1.38,4.47s3-.08,4.47,1.39" fill="none" stroke="#003a50" stroke-miterlimit="10"/><path d="M496.68,714.63a10.64,10.64,0,1,0,0,19.6Z" fill="none" stroke="#003a50" stroke-miterlimit="10"/></g><rect x="173.99" y="674.66" width="52.35" height="113.71" fill="none" stroke="#003a50" stroke-miterlimit="10"/><g clip-path="url(#clip-path)"><path d="M217.4,684.36H183.34a2.11,2.11,0,0,0-2.1,2.11v67.65H219.5V686.47A2.11,2.11,0,0,0,217.4,684.36Z" fill="none" stroke="#003a50" stroke-miterlimit="10"/></g><rect x="181.24" y="740.26" width="38.27" height="13.86" fill="none" stroke="#003a50" stroke-miterlimit="10"/><g clip-path="url(#clip-path)"><rect x="181.18" y="757.73" width="38.72" height="22.89" rx="2.2" fill="none" stroke="#003a50" stroke-miterlimit="10"/><path d="M314.7,709.92a14.78,14.78,0,0,0-15.93,23.4,1.14,1.14,0,1,0,1.77-1.43,12.48,12.48,0,0,1,14.16-19.51Z" fill="none" stroke="#003a50" stroke-miterlimit="10"/><rect x="314.7" y="680.14" width="34.03" height="84.06" rx="3.31" fill="none" stroke="#003a50" stroke-miterlimit="10"/><path d="M345,682.69a1.4,1.4,0,0,0-1.4,1.39v76.17a1.4,1.4,0,1,0,2.79,0V684.08a1.39,1.39,0,0,0-1.39-1.39" fill="none" stroke="#003a50" stroke-miterlimit="10"/><path d="M330.43,750.52a5.51,5.51,0,1,1,0,7.79A5.52,5.52,0,0,1,330.43,750.52Z" fill="none" stroke="#003a50" stroke-miterlimit="10"/><path d="M330.06,750.93c1,.1,2-.28,3,.7,1.46,1.46-.08,3,1.38,4.47s3-.08,4.47,1.39" fill="none" stroke="#003a50" stroke-miterlimit="10"/><path d="M314.7,714.63a10.64,10.64,0,1,0,0,19.6Z" fill="none" stroke="#003a50" stroke-miterlimit="10"/><path d="M333.5,70.64a14.78,14.78,0,0,0,15.93-23.4,1.14,1.14,0,0,0-1.78,1.43A12.47,12.47,0,0,1,333.5,68.18Z" fill="none" stroke="#003a50" stroke-miterlimit="10"/><rect x="299.47" y="16.36" width="34.03" height="84.06" rx="3.31" fill="none" stroke="#003a50" stroke-miterlimit="10"/><path d="M303.18,97.88a1.4,1.4,0,0,0,1.4-1.4V20.31a1.4,1.4,0,0,0-2.79,0V96.48a1.4,1.4,0,0,0,1.39,1.4" fill="none" stroke="#003a50" stroke-miterlimit="10"/><path d="M317.77,30a5.51,5.51,0,1,1,0-7.79A5.52,5.52,0,0,1,317.77,30Z" fill="none" stroke="#003a50" stroke-miterlimit="10"/><path d="M318.14,29.63c-1-.1-2.05.29-3-.7-1.46-1.46.08-3-1.38-4.47s-3,.08-4.48-1.38" fill="none" stroke="#003a50" stroke-miterlimit="10"/><path d="M333.5,65.93a10.64,10.64,0,1,0,0-19.6Z" fill="none" stroke="#003a50" stroke-miterlimit="10"/></g><rect x="500.38" y="16.48" width="22.68" height="22.68" fill="none" stroke="#003a50" stroke-miterlimit="10"/><g clip-path="url(#clip-path)"><path d="M518.23,34.33a9.2,9.2,0,1,0-13,0A9.2,9.2,0,0,0,518.23,34.33Z" fill="none" stroke="#003a50" stroke-miterlimit="10"/><path d="M517.54,35c-.17-1.69.48-3.41-1.17-5.06-2.44-2.44-5,.14-7.46-2.3s.14-5-2.3-7.46" fill="none" stroke="#003a50" stroke-miterlimit="10"/></g><rect x="361.9" y="16.48" width="22.68" height="22.68" fill="none" stroke="#003a50" stroke-miterlimit="10"/><g clip-path="url(#clip-path)"><path d="M379.75,34.33a9.2,9.2,0,1,0-13,0A9.2,9.2,0,0,0,379.75,34.33Z" fill="none" stroke="#003a50" stroke-miterlimit="10"/><path d="M379.05,35c-.16-1.69.49-3.41-1.16-5.06-2.44-2.45-5,.14-7.46-2.31s.13-5-2.3-7.46" fill="none" stroke="#003a50" stroke-miterlimit="10"/></g><rect x="391.44" y="16.48" width="102.08" height="113.42" fill="none" stroke="#003a50" stroke-miterlimit="10"/><g clip-path="url(#clip-path)"><path d="M401.45,120.17h82.08a2.09,2.09,0,0,0,2.08-2.09V50.42H399.36v67.66A2.09,2.09,0,0,0,401.45,120.17Z" fill="none" stroke="#003a50" stroke-miterlimit="10"/><path d="M445.33,46.8h38.55a2,2,0,0,0,2-2V25.9a2,2,0,0,0-2-2H445.33a2,2,0,0,0-2,2V44.82A2,2,0,0,0,445.33,46.8Z" fill="none" stroke="#003a50" stroke-miterlimit="10"/><path d="M401.09,46.8h38.55a2,2,0,0,0,2-2V25.9a2,2,0,0,0-2-2H401.09a2,2,0,0,0-2,2V44.82A2,2,0,0,0,401.09,46.8Z" fill="none" stroke="#003a50" stroke-miterlimit="10"/></g><line x1="399.1" y1="64.27" x2="485.86" y2="64.27" fill="none" stroke="#003a50" stroke-miterlimit="10"/><g clip-path="url(#clip-path)"><path d="M486.84,531.05a1.25,1.25,0,0,0-1.25,1.25,13.67,13.67,0,0,1-27.34,0,1.25,1.25,0,1,0-2.49,0,16.16,16.16,0,1,0,32.32,0A1.25,1.25,0,0,0,486.84,531.05Z" fill="none" stroke="#003a50" stroke-miterlimit="10"/><path d="M457,478.33a1.24,1.24,0,0,0,1.24-1.24,13.67,13.67,0,0,1,27.34,0,1.25,1.25,0,0,0,2.49,0,16.16,16.16,0,1,0-32.32,0A1.24,1.24,0,0,0,457,478.33Z" fill="none" stroke="#003a50" stroke-miterlimit="10"/><path d="M445.38,531.05a1.25,1.25,0,0,0-1.25,1.25,13.67,13.67,0,1,1-27.34,0,1.25,1.25,0,1,0-2.49,0,16.17,16.17,0,1,0,32.33,0A1.25,1.25,0,0,0,445.38,531.05Z" fill="none" stroke="#003a50" stroke-miterlimit="10"/><path d="M415.55,478.33a1.24,1.24,0,0,0,1.25-1.24,13.67,13.67,0,1,1,27.33,0,1.25,1.25,0,0,0,2.5,0,16.17,16.17,0,1,0-32.33,0A1.24,1.24,0,0,0,415.55,478.33Z" fill="none" stroke="#003a50" stroke-miterlimit="10"/><path d="M392.45,517.41a1.25,1.25,0,0,0-1.24-1.25,13.67,13.67,0,1,1,0-27.33,1.25,1.25,0,0,0,0-2.49,16.16,16.16,0,1,0,0,32.32A1.25,1.25,0,0,0,392.45,517.41Z" fill="none" stroke="#003a50" stroke-miterlimit="10"/><path d="M505.05,487.58a1.25,1.25,0,0,0,1.25,1.25,13.67,13.67,0,0,1,0,27.34,1.25,1.25,0,1,0,0,2.49,16.16,16.16,0,1,0,0-32.32A1.25,1.25,0,0,0,505.05,487.58Z" fill="none" stroke="#003a50" stroke-miterlimit="10"/><path d="M471.91,544.19a12.58,12.58,0,0,0,12.56-12.53v-5.8a23.7,23.7,0,0,1-6.08.8h-19v5A12.57,12.57,0,0,0,471.91,544.19Z" fill="none" stroke="#003a50" stroke-miterlimit="10"/><path d="M484.47,479.12v-1.36a12.55,12.55,0,1,0-25.09,0v.56h19A25.59,25.59,0,0,1,484.47,479.12Z" fill="none" stroke="#003a50" stroke-miterlimit="10"/><path d="M430.45,544.19A12.58,12.58,0,0,0,443,531.66v-5H419.17c-.4,0-.84,0-1.24-.08v5.08A12.54,12.54,0,0,0,430.45,544.19Z" fill="none" stroke="#003a50" stroke-miterlimit="10"/><path d="M417.93,478.4c.4,0,.84-.08,1.24-.08H443v-.56a12.55,12.55,0,1,0-25.09,0Z" fill="none" stroke="#003a50" stroke-miterlimit="10"/><path d="M499,515.06h6.64a12.55,12.55,0,1,0,0-25.09H499a23.81,23.81,0,0,1,3.56,12.52A24.09,24.09,0,0,1,499,515.06Z" fill="none" stroke="#003a50" stroke-miterlimit="10"/><path d="M391.88,515.06h6.68A24.09,24.09,0,0,1,395,502.49,23.81,23.81,0,0,1,398.56,490h-6.68a12.55,12.55,0,1,0,0,25.09Z" fill="none" stroke="#003a50" stroke-miterlimit="10"/><path d="M419.17,526.66h59.22a23.7,23.7,0,0,0,6.08-.8,24.24,24.24,0,0,0,18.09-23.37A23.81,23.81,0,0,0,499,490a24.16,24.16,0,0,0-14.53-10.85,25.59,25.59,0,0,0-6.08-.8H419.17c-.4,0-.84,0-1.24.08a24.12,24.12,0,0,0,0,48.18C418.33,526.62,418.77,526.66,419.17,526.66Z" fill="none" stroke="#003a50" stroke-miterlimit="10"/></g><rect x="207.31" y="16.46" width="85.78" height="31.13" fill="none" stroke="#003a50" stroke-miterlimit="10"/><g clip-path="url(#clip-path)"><path d="M223,20.87a.92.92,0,0,1,1.75-.41,26.36,26.36,0,0,1,0,23.12.92.92,0,0,1-1.23.42.91.91,0,0,1-.42-1.23,24.54,24.54,0,0,0,0-21.5A.85.85,0,0,1,223,20.87Z" fill="none" stroke="#003a50" stroke-miterlimit="10"/><path d="M228.07,20.87a.92.92,0,0,1,1.74-.41,26.36,26.36,0,0,1,0,23.12.92.92,0,1,1-1.65-.81,24.45,24.45,0,0,0,0-21.5A.83.83,0,0,1,228.07,20.87Z" fill="none" stroke="#003a50" stroke-miterlimit="10"/><path d="M233.16,20.87a.92.92,0,0,1,1.74-.41,26.36,26.36,0,0,1,0,23.12.92.92,0,0,1-1.65-.81,24.45,24.45,0,0,0,0-21.5A1,1,0,0,1,233.16,20.87Z" fill="none" stroke="#003a50" stroke-miterlimit="10"/><path d="M238.25,20.87a.92.92,0,0,1,1.75-.41,26.36,26.36,0,0,1,0,23.12.92.92,0,0,1-1.23.42.91.91,0,0,1-.42-1.23,24.54,24.54,0,0,0,0-21.5A.85.85,0,0,1,238.25,20.87Z" fill="none" stroke="#003a50" stroke-miterlimit="10"/><path d="M243.35,20.87a.92.92,0,0,1,1.74-.41,26.36,26.36,0,0,1,0,23.12.92.92,0,1,1-1.65-.81,24.45,24.45,0,0,0,0-21.5A.83.83,0,0,1,243.35,20.87Z" fill="none" stroke="#003a50" stroke-miterlimit="10"/><path d="M248.44,20.87a.92.92,0,0,1,1.74-.41,26.27,26.27,0,0,1,0,23.12.91.91,0,1,1-1.64-.81,24.54,24.54,0,0,0,0-21.5A.85.85,0,0,1,248.44,20.87Z" fill="none" stroke="#003a50" stroke-miterlimit="10"/><path d="M217.88,20.87a.92.92,0,0,1,1.74-.41,26.36,26.36,0,0,1,0,23.12.92.92,0,0,1-1.65-.81,24.45,24.45,0,0,0,0-21.5A1,1,0,0,1,217.88,20.87Z" fill="none" stroke="#003a50" stroke-miterlimit="10"/><path d="M212.78,20.87a.94.94,0,0,1,.52-.83.93.93,0,0,1,1.23.42,26.36,26.36,0,0,1,0,23.12.92.92,0,1,1-1.65-.81,24.54,24.54,0,0,0,0-21.5A.85.85,0,0,1,212.78,20.87Z" fill="none" stroke="#003a50" stroke-miterlimit="10"/></g><line x1="207.31" y1="32.02" x2="293.09" y2="32.02" fill="none" stroke="#003a50" stroke-miterlimit="10"/><rect x="207.3" y="184.42" width="85.78" height="31.13" fill="none" stroke="#003a50" stroke-miterlimit="10"/><g clip-path="url(#clip-path)"><path d="M223,188.84a.92.92,0,0,1,1.75-.41,26.36,26.36,0,0,1,0,23.12.93.93,0,0,1-1.23.42.91.91,0,0,1-.42-1.23,24.54,24.54,0,0,0,0-21.5A.85.85,0,0,1,223,188.84Z" fill="none" stroke="#003a50" stroke-miterlimit="10"/><path d="M228.07,188.84a.92.92,0,0,1,1.74-.41,26.36,26.36,0,0,1,0,23.12.92.92,0,0,1-1.65-.81,24.45,24.45,0,0,0,0-21.5A.83.83,0,0,1,228.07,188.84Z" fill="none" stroke="#003a50" stroke-miterlimit="10"/><path d="M233.16,188.84a.92.92,0,0,1,1.74-.41,26.36,26.36,0,0,1,0,23.12.92.92,0,1,1-1.65-.81,24.45,24.45,0,0,0,0-21.5A1,1,0,0,1,233.16,188.84Z" fill="none" stroke="#003a50" stroke-miterlimit="10"/><path d="M238.25,188.84a.92.92,0,0,1,1.75-.41,26.36,26.36,0,0,1,0,23.12.93.93,0,0,1-1.23.42.91.91,0,0,1-.42-1.23,24.54,24.54,0,0,0,0-21.5A.85.85,0,0,1,238.25,188.84Z" fill="none" stroke="#003a50" stroke-miterlimit="10"/><path d="M243.35,188.84a.92.92,0,0,1,1.74-.41,26.36,26.36,0,0,1,0,23.12.92.92,0,0,1-1.65-.81,24.45,24.45,0,0,0,0-21.5A.83.83,0,0,1,243.35,188.84Z" fill="none" stroke="#003a50" stroke-miterlimit="10"/><path d="M248.44,188.84a.92.92,0,0,1,1.74-.41,26.27,26.27,0,0,1,0,23.12.91.91,0,1,1-1.64-.81,24.54,24.54,0,0,0,0-21.5A.85.85,0,0,1,248.44,188.84Z" fill="none" stroke="#003a50" stroke-miterlimit="10"/><path d="M217.88,188.84a.92.92,0,0,1,1.74-.41,26.36,26.36,0,0,1,0,23.12.92.92,0,1,1-1.65-.81,24.45,24.45,0,0,0,0-21.5A1,1,0,0,1,217.88,188.84Z" fill="none" stroke="#003a50" stroke-miterlimit="10"/><path d="M212.78,188.84a.94.94,0,0,1,.52-.83.93.93,0,0,1,1.23.42,26.36,26.36,0,0,1,0,23.12.93.93,0,0,1-1.23.42.92.92,0,0,1-.42-1.23,24.54,24.54,0,0,0,0-21.5A.85.85,0,0,1,212.78,188.84Z" fill="none" stroke="#003a50" stroke-miterlimit="10"/></g><line x1="207.31" y1="199.99" x2="293.09" y2="199.99" fill="none" stroke="#003a50" stroke-miterlimit="10"/><g clip-path="url(#clip-path)"><path d="M153.15,263a2.74,2.74,0,0,1-2.54-1.71H149l-4.15,2.48,1.88,3.06,2.16-1.18v9.62h9v-9.62l2.16,1.18,1.88-3.06-4.18-2.48h-2.09A2.81,2.81,0,0,1,153.15,263Z" fill="none" stroke="#003a50" stroke-miterlimit="10"/></g><rect x="139.61" y="254.95" width="27.67" height="26.61" fill="none" stroke="#003a50" stroke-miterlimit="10"/><g clip-path="url(#clip-path)"><path d="M100.6,277.82a.78.78,0,0,0,.43.7.8.8,0,0,0,1.06-.35,22.59,22.59,0,0,0,0-19.78.79.79,0,0,0-1.42.69,20.91,20.91,0,0,1,0,18.39A.84.84,0,0,0,100.6,277.82Z" fill="none" stroke="#003a50" stroke-miterlimit="10"/><path d="M105,277.82a.79.79,0,0,0,1.49.35,22.5,22.5,0,0,0,0-19.78.78.78,0,1,0-1.41.69,20.91,20.91,0,0,1,0,18.39A.85.85,0,0,0,105,277.82Z" fill="none" stroke="#003a50" stroke-miterlimit="10"/><path d="M109.31,277.82a.77.77,0,0,0,.44.7.79.79,0,0,0,1-.35,22.5,22.5,0,0,0,0-19.78.78.78,0,0,0-1.41.69,20.91,20.91,0,0,1,0,18.39A.72.72,0,0,0,109.31,277.82Z" fill="none" stroke="#003a50" stroke-miterlimit="10"/><path d="M113.67,277.82a.77.77,0,0,0,.44.7.79.79,0,0,0,1-.35,22.59,22.59,0,0,0,0-19.78.78.78,0,1,0-1.41.69,20.91,20.91,0,0,1,0,18.39A.72.72,0,0,0,113.67,277.82Z" fill="none" stroke="#003a50" stroke-miterlimit="10"/><path d="M118,277.82a.77.77,0,0,0,.44.7.79.79,0,0,0,1-.35,22.59,22.59,0,0,0,0-19.78.78.78,0,0,0-1.41.69,21,21,0,0,1,0,18.39A.72.72,0,0,0,118,277.82Z" fill="none" stroke="#003a50" stroke-miterlimit="10"/><path d="M122.38,277.82a.79.79,0,0,0,.44.7.8.8,0,0,0,1.06-.35,22.59,22.59,0,0,0,0-19.78.79.79,0,0,0-1.42.69,20.91,20.91,0,0,1,0,18.39A.85.85,0,0,0,122.38,277.82Z" fill="none" stroke="#003a50" stroke-miterlimit="10"/><path d="M96.24,277.82a.77.77,0,0,0,.44.7.79.79,0,0,0,1-.35,22.59,22.59,0,0,0,0-19.78.78.78,0,0,0-1.41.69,20.91,20.91,0,0,1,0,18.39A.72.72,0,0,0,96.24,277.82Z" fill="none" stroke="#003a50" stroke-miterlimit="10"/><path d="M91.88,277.82a.77.77,0,0,0,.44.7.79.79,0,0,0,1.05-.35,22.5,22.5,0,0,0,0-19.78.78.78,0,1,0-1.41.69,20.91,20.91,0,0,1,0,18.39A.72.72,0,0,0,91.88,277.82Z" fill="none" stroke="#003a50" stroke-miterlimit="10"/></g><line x1="87.19" y1="268.28" x2="139.61" y2="268.28" fill="none" stroke="#003a50" stroke-miterlimit="10"/><rect x="86.85" y="254.96" width="52.76" height="26.61" fill="none" stroke="#003a50" stroke-miterlimit="10"/><g clip-path="url(#clip-path)"><path d="M350.9,222.65v-3.76a47.43,47.43,0,0,0-47.43-47.44v51.2" fill="none" stroke="#003a50" stroke-miterlimit="10" stroke-width="1.6"/><path d="M245,319.83v3.1a39,39,0,0,1-39.05,39V319.83" fill="none" stroke="#003a50" stroke-miterlimit="10" stroke-width="1.6"/><path d="M303,584.15v3.5a44.09,44.09,0,0,0,44.1,44.1v-47.6" fill="none" stroke="#003a50" stroke-miterlimit="10" stroke-width="1.6"/><path d="M409.81,584.15v3.5a44.09,44.09,0,0,1-44.1,44.1v-47.6" fill="none" stroke="#003a50" stroke-miterlimit="10" stroke-width="1.6"/><path d="M-10.53,434.53v-4.07a51.15,51.15,0,0,1,51.14-51.15v55.22" fill="none" stroke="#003a50" stroke-miterlimit="10" stroke-width="1.6"/><path d="M56.85,325.31H52.79A51.14,51.14,0,0,0,1.64,376.45H56.85" fill="none" stroke="#003a50" stroke-miterlimit="10" stroke-width="1.6"/><path d="M201.39,122.47h3.08A38.73,38.73,0,0,1,243.2,161.2H201.39" fill="none" stroke="#003a50" stroke-miterlimit="10" stroke-width="1.6"/><line x1="178.98" y1="327.46" x2="124.48" y2="327.46" fill="none" stroke="#003a50" stroke-miterlimit="10" stroke-width="1.6"/><rect x="51.07" y="-41.12" width="16.32" height="181.96" fill="#003a50"/><rect x="51.07" y="106.68" width="16.32" height="115.83" fill="#003a50"/><rect x="51.07" y="281.21" width="16.32" height="44.81" fill="#003a50"/><rect x="74.83" y="227.94" width="11.82" height="64.32" fill="#003a50"/><rect x="54.5" y="281.21" width="32.16" height="11.82" fill="#003a50"/><rect x="51.07" y="375.54" width="16.32" height="66.02" fill="#003a50"/><rect x="39.76" y="428.08" width="132.01" height="16.32" fill="#003a50"/><rect x="157.52" y="428.08" width="16.32" height="380.78" fill="#003a50"/><rect x="63.55" y="0.14" width="474.52" height="16.32" fill="#003a50"/><rect x="51.07" y="216.21" width="252.39" height="12.6" fill="#003a50"/><rect x="350.9" y="216.21" width="197.87" height="12.6" fill="#003a50"/><rect x="288.47" y="789.77" width="82.86" height="27.14" fill="#003a50"/><rect x="-75.16" y="789.77" width="82.86" height="27.14" fill="#003a50"/><rect x="100.24" y="795.94" width="95.37" height="34.26" fill="#003a50"/><rect x="168.43" y="799.94" width="27.18" height="41.93" fill="#003a50"/><rect x="-82.58" y="795.94" width="95.37" height="34.26" fill="#003a50"/><rect x="-14.39" y="799.94" width="27.18" height="41.93" fill="#003a50"/><rect x="288.48" y="795.94" width="90.92" height="34.26" fill="#003a50"/><rect x="352.22" y="799.94" width="27.18" height="41.93" fill="#003a50"/><rect x="523.56" y="531.42" width="9.5" height="61.69" fill="#003a50"/><rect x="523.56" y="362.11" width="9.5" height="76.44" fill="#003a50"/><rect x="552.21" y="817.32" width="25.84" height="25.01" fill="#003a50"/><rect x="530.03" y="348.82" width="29.11" height="94.61" fill="#003a50"/><rect x="534.03" y="417.51" width="45.35" height="25.92" fill="#003a50"/><rect x="530.03" y="531.42" width="29.11" height="94.61" fill="#003a50"/><rect x="534.03" y="600.12" width="45.35" height="25.92" fill="#003a50"/><rect x="530.03" y="165.31" width="29.11" height="94.61" fill="#003a50"/><rect x="534.03" y="234.01" width="45.35" height="25.92" fill="#003a50"/><rect x="530.03" y="-19.68" width="29.11" height="96.1" fill="#003a50"/><rect x="534.03" y="50.5" width="45.35" height="25.92" fill="#003a50"/><rect x="200.93" y="10.35" width="6.38" height="112.96" fill="#003a50"/><rect x="200.93" y="161.2" width="6.38" height="62.92" fill="#003a50"/><rect x="293.09" y="10.35" width="6.38" height="110.39" fill="#003a50"/><rect x="293.09" y="180.03" width="6.38" height="43.44" fill="#003a50"/><rect x="61.3" y="130.71" width="31.01" height="6.38" fill="#003a50"/><rect x="86.29" y="130.71" width="6.38" height="37.57" fill="#003a50"/><rect x="173.31" y="-33.73" width="6.38" height="40.93" fill="#003a50"/><rect x="152.29" y="-21.04" width="6.38" height="26.76" fill="#003a50"/><rect x="178.85" y="32.79" width="24.72" height="6.38" fill="#003a50"/><rect x="178.84" y="12.41" width="6.38" height="26.76" fill="#003a50"/></g><rect x="66.77" y="167.39" width="33.65" height="6.38" fill="#003a50"/><rect x="96.16" y="167.39" width="6.38" height="50.77" fill="#003a50"/><rect x="244.2" y="317.08" width="52.03" height="6.38" fill="#003a50"/><rect x="289.85" y="226.48" width="6.38" height="95.35" fill="#003a50"/><rect x="167.46" y="222.52" width="6.38" height="97.75" fill="#003a50"/><rect x="81.97" y="248.79" width="88.68" height="6.38" fill="#003a50"/><rect x="141.96" y="225.48" width="6.38" height="26.5" fill="#003a50"/><rect x="151.51" y="317.08" width="55.44" height="6.38" fill="#003a50"/><rect x="52.63" y="317.08" width="60.67" height="6.38" fill="#003a50"/><rect x="167.46" y="402.28" width="6.38" height="33.96" fill="#003a50"/><rect x="63.56" y="402.28" width="108.96" height="6.38" fill="#003a50"/><rect x="114.85" y="404.55" width="6.38" height="33.18" fill="#003a50"/><rect x="167.46" y="427.28" width="128.76" height="6.38" fill="#003a50"/><rect x="290.98" y="581.4" width="12.92" height="6.38" fill="#003a50"/><rect x="173.99" y="581.4" width="122.47" height="6.38" fill="#003a50"/><rect x="346" y="581.4" width="20.51" height="6.38" fill="#003a50"/><rect x="409" y="581.4" width="126.07" height="6.38" fill="#003a50"/><rect x="348.62" y="584.59" width="6.38" height="211.35" fill="#003a50"/><rect x="291.06" y="393.36" width="6.38" height="40.02" fill="#003a50"/><rect x="51.02" y="441.56" width="5.83" height="2.92" fill="#003a50"/><rect x="70.46" y="442.31" width="6.38" height="2.17" fill="#003a50"/><rect x="51.07" y="218.16" width="5.99" height="81.51" fill="#003a50"/><line x1="295.51" y1="316.46" x2="295.51" y2="319.29" fill="none" stroke="#003a50" stroke-miterlimit="10"/><line x1="295.51" y1="324.78" x2="295.51" y2="376.94" fill="none" stroke="#003a50" stroke-miterlimit="10" stroke-dasharray="5.49 5.49"/><line x1="295.51" y1="379.68" x2="295.51" y2="382.52" fill="none" stroke="#003a50" stroke-miterlimit="10"/><line x1="297.11" y1="119.41" x2="297.11" y2="122.25" fill="none" stroke="#003a50" stroke-miterlimit="10"/><line x1="297.11" y1="127.74" x2="297.11" y2="179.89" fill="none" stroke="#003a50" stroke-miterlimit="10" stroke-dasharray="5.49 5.49"/><line x1="297.11" y1="182.64" x2="297.11" y2="185.47" fill="none" stroke="#003a50" stroke-miterlimit="10"/><rect x="64.46" y="286.7" width="17.51" height="30.38" fill="none" stroke="#003a50" stroke-miterlimit="10" stroke-width="0.6"/><g clip-path="url(#clip-path)"><path d="M423.21,634.76l-2.49,2v-2.25l2.74-2.27h1.86v11.92h-2.11Z" fill="#003a50"/><path d="M437.72,644.12h-9.94v-1.56a2.85,2.85,0,0,1,.58-1.75,4.2,4.2,0,0,1,1.45-1.19c.5-.26,1.12-.55,1.87-.87s1.32-.55,1.88-.77a4.36,4.36,0,0,0,1.45-.91,1.82,1.82,0,0,0,.57-1.31q0-1.89-2.67-1.89c-1.78,0-2.68.72-2.68,2.17v.4h-2.11V636a3.6,3.6,0,0,1,1.27-3,5.36,5.36,0,0,1,3.51-1,5.66,5.66,0,0,1,3.52,1,3.29,3.29,0,0,1,1.27,2.75,3.17,3.17,0,0,1-.56,1.84,4.16,4.16,0,0,1-1.4,1.3,16.7,16.7,0,0,1-1.84.93q-.93.42-1.83.75a5.26,5.26,0,0,0-1.4.75,1.22,1.22,0,0,0-.57,1h7.63Z" fill="#003a50"/><path d="M439.83,644a1,1,0,0,1-.33-.81,1,1,0,0,1,.33-.8,1.4,1.4,0,0,1,1.73,0,1,1,0,0,1,.33.8,1,1,0,0,1-.33.81,1.4,1.4,0,0,1-1.73,0Z" fill="#003a50"/><path d="M445.74,634.76l-2.49,2v-2.25L446,632.2h1.86v11.92h-2.11Z" fill="#003a50"/><path d="M263.45,634.76l-2.48,2v-2.24l2.73-2.27h1.86v11.92h-2.11Z" fill="#003a50"/><path d="M278,644.12H268v-1.56a2.83,2.83,0,0,1,.58-1.75,4.12,4.12,0,0,1,1.45-1.2c.5-.25,1.12-.54,1.87-.86s1.33-.56,1.88-.77a4.39,4.39,0,0,0,1.45-.92,1.8,1.8,0,0,0,.57-1.3q0-1.89-2.67-1.89c-1.78,0-2.68.72-2.68,2.16v.41h-2.11V636a3.61,3.61,0,0,1,1.27-3,5.42,5.42,0,0,1,3.51-1,5.73,5.73,0,0,1,3.52,1,3.29,3.29,0,0,1,1.27,2.76,3.07,3.07,0,0,1-.56,1.83,4.18,4.18,0,0,1-1.4,1.31c-.6.34-1.21.65-1.84.93s-1.23.53-1.83.75a5.26,5.26,0,0,0-1.4.75,1.22,1.22,0,0,0-.57.95H278Z" fill="#003a50"/><path d="M280.07,644a1,1,0,0,1-.33-.81,1,1,0,0,1,.33-.81,1.4,1.4,0,0,1,1.73,0,1,1,0,0,1,.33.81,1,1,0,0,1-.33.81,1.44,1.44,0,0,1-1.73,0Z" fill="#003a50"/><path d="M285.48,642.58a7.34,7.34,0,0,1,0-8.84,5.7,5.7,0,0,1,8.14,0,7.34,7.34,0,0,1,0,8.84,5.72,5.72,0,0,1-8.14,0Zm6.53-1.39a5.73,5.73,0,0,0,0-6.07,3.15,3.15,0,0,0-4.92,0,5.67,5.67,0,0,0,0,6.07,3.14,3.14,0,0,0,4.92,0Z" fill="#003a50"/><path d="M337.13,369.24H331.3v-1.85h8.87v1.85l-4.53,2.65V372h1.28a3.87,3.87,0,0,1,2.8,1,3.52,3.52,0,0,1,1,2.67,3.32,3.32,0,0,1-1.33,2.82,7,7,0,0,1-7.25,0,3.39,3.39,0,0,1-1.33-2.86v-.32H333v.32c0,1.37.94,2,2.84,2s2.84-.67,2.84-2-1-2-2.84-2h-3.27V372l4.58-2.69Z" fill="#003a50"/><path d="M349.08,369.24h-5.83v-1.85h8.87v1.85l-4.53,2.65V372h1.28a3.87,3.87,0,0,1,2.79,1,3.5,3.5,0,0,1,1.06,2.67,3.35,3.35,0,0,1-1.33,2.82,7,7,0,0,1-7.25,0,3.36,3.36,0,0,1-1.33-2.86v-.32h2.11v.32c0,1.37.95,2,2.84,2s2.85-.67,2.85-2-.95-2-2.85-2H344.5V372l4.58-2.69Z" fill="#003a50"/><path d="M354.82,379.18a1.17,1.17,0,0,1,0-1.61,1.41,1.41,0,0,1,1.74,0,1.17,1.17,0,0,1,0,1.61,1.41,1.41,0,0,1-1.74,0Z" fill="#003a50"/><path d="M368.61,379.31h-9.94v-1.56a2.79,2.79,0,0,1,.58-1.75,3.91,3.91,0,0,1,1.45-1.19c.5-.26,1.12-.55,1.87-.87s1.32-.56,1.88-.77a4.09,4.09,0,0,0,1.44-.92,1.76,1.76,0,0,0,.58-1.3q0-1.89-2.67-1.89c-1.79,0-2.68.72-2.68,2.16v.41H359v-.41a3.62,3.62,0,0,1,1.26-3,5.39,5.39,0,0,1,3.52-1,5.66,5.66,0,0,1,3.52,1,3.3,3.3,0,0,1,1.27,2.75,3.17,3.17,0,0,1-.56,1.84,4.26,4.26,0,0,1-1.4,1.3c-.6.34-1.21.65-1.84.93s-1.24.53-1.83.75a5.26,5.26,0,0,0-1.4.75,1.22,1.22,0,0,0-.57,1h7.63Z" fill="#003a50"/><path d="M218,294.26h-5.83v-1.84H221v1.84l-4.53,2.65V297h1.28a3.91,3.91,0,0,1,2.8,1,3.52,3.52,0,0,1,1.05,2.67,3.33,3.33,0,0,1-1.33,2.83,7,7,0,0,1-7.25,0,3.39,3.39,0,0,1-1.33-2.86v-.32h2.11v.32q0,2,2.85,2c1.89,0,2.84-.67,2.84-2s-.95-2-2.84-2H213.4V297l4.58-2.68Z" fill="#003a50"/><path d="M223.72,304.2a1,1,0,0,1-.32-.8,1.07,1.07,0,0,1,.32-.81,1.25,1.25,0,0,1,.88-.3,1.2,1.2,0,0,1,.86.3,1,1,0,0,1,.33.81,1,1,0,0,1-.33.8,1.2,1.2,0,0,1-.86.3A1.25,1.25,0,0,1,223.72,304.2Z" fill="#003a50"/><path d="M233,296.35a5,5,0,0,1,3.34,1.06,4.19,4.19,0,0,1,0,6,5.41,5.41,0,0,1-3.55,1.08,5.8,5.8,0,0,1-3.57-1,3.16,3.16,0,0,1-1.29-2.68H230a1.53,1.53,0,0,0,.7,1.33,3.61,3.61,0,0,0,2,.49,3.15,3.15,0,0,0,2-.58,2,2,0,0,0,.7-1.68,2.05,2.05,0,0,0-.73-1.71,3.26,3.26,0,0,0-2.08-.58,3.7,3.7,0,0,0-1.92.41,2.05,2.05,0,0,0-.69.64l-.05.13h-2.12v-6.88h8.89v1.84H230v3h.05a2.21,2.21,0,0,1,.39-.31,3.94,3.94,0,0,1,.55-.26A5.66,5.66,0,0,1,233,296.35Z" fill="#003a50"/><path d="M107,379.31h-2.36l5.42-10h-6.93v-1.88h9.29v1.88Z" fill="#003a50"/><path d="M113.8,379.18a1.17,1.17,0,0,1,0-1.61,1.25,1.25,0,0,1,.88-.3,1.22,1.22,0,0,1,.86.3,1.17,1.17,0,0,1,0,1.61,1.22,1.22,0,0,1-.86.3A1.25,1.25,0,0,1,113.8,379.18Z" fill="#003a50"/><path d="M119.21,377.77a7.34,7.34,0,0,1,0-8.84,5.7,5.7,0,0,1,8.14,0,7.34,7.34,0,0,1,0,8.84,5.7,5.7,0,0,1-8.14,0Zm6.54-1.38a5.75,5.75,0,0,0,0-6.08,3.15,3.15,0,0,0-4.92,0,5.69,5.69,0,0,0,0,6.08,2.87,2.87,0,0,0,2.46,1.18A2.91,2.91,0,0,0,125.75,376.39Z" fill="#003a50"/><path d="M105.4,295l-2.49,1.95v-2.24l2.74-2.27h1.86v11.92H105.4Z" fill="#003a50"/><path d="M110,304.2a1,1,0,0,1-.33-.8,1,1,0,0,1,.33-.81,1.23,1.23,0,0,1,.87-.3,1.24,1.24,0,0,1,.87.3,1.07,1.07,0,0,1,.32.81,1,1,0,0,1-.32.8,1.24,1.24,0,0,1-.87.3A1.23,1.23,0,0,1,110,304.2Z" fill="#003a50"/><path d="M114.18,301h2.21s0,.07,0,.18a3.22,3.22,0,0,0,.23.43,2.09,2.09,0,0,0,.41.48,2,2,0,0,0,.75.42,3.21,3.21,0,0,0,1.05.17,2.67,2.67,0,0,0,2.25-1.07,4.32,4.32,0,0,0,.8-2.71h0a2.27,2.27,0,0,1-.44.47,3.3,3.3,0,0,1-.6.4,4.36,4.36,0,0,1-1,.32,5.58,5.58,0,0,1-1.23.13,4.94,4.94,0,0,1-3.37-1.13,3.73,3.73,0,0,1,0-5.72,5.54,5.54,0,0,1,3.61-1.11,4.81,4.81,0,0,1,3.87,1.55,6.33,6.33,0,0,1,1.33,4.27v.41a6.65,6.65,0,0,1-1.38,4.31,4.69,4.69,0,0,1-3.89,1.71,6,6,0,0,1-2.17-.37,3.82,3.82,0,0,1-1.47-.95A3.33,3.33,0,0,1,114.18,301Zm2.77-3.17a3.6,3.6,0,0,0,4,0,2,2,0,0,0,0-3.15,3.22,3.22,0,0,0-2-.58,3.14,3.14,0,0,0-2,.58,1.85,1.85,0,0,0-.79,1.58A1.88,1.88,0,0,0,117,297.82Z" fill="#003a50"/><path d="M116.44,142.78h-2.35l5.42-10h-6.93v-1.88h9.29v1.88Z" fill="#003a50"/><path d="M123.3,142.65a1,1,0,0,1-.32-.81,1.07,1.07,0,0,1,.32-.81,1.25,1.25,0,0,1,.88-.3,1.22,1.22,0,0,1,.86.3,1,1,0,0,1,.32.81,1,1,0,0,1-.32.81,1.22,1.22,0,0,1-.86.3A1.25,1.25,0,0,1,123.3,142.65Z" fill="#003a50"/><path d="M127.44,139.43h2.21s0,.07,0,.18a2.75,2.75,0,0,0,.64.92,2.36,2.36,0,0,0,.76.41,3.21,3.21,0,0,0,1,.17,2.67,2.67,0,0,0,2.24-1.07,4.3,4.3,0,0,0,.81-2.71h-.06a2,2,0,0,1-.44.47,2.73,2.73,0,0,1-.6.4,3.74,3.74,0,0,1-1,.32,5.52,5.52,0,0,1-1.23.14,5,5,0,0,1-3.36-1.13,3.72,3.72,0,0,1,0-5.73,5.5,5.5,0,0,1,3.61-1.11,4.81,4.81,0,0,1,3.87,1.55,6.4,6.4,0,0,1,1.32,4.27v.41a6.7,6.7,0,0,1-1.37,4.31,4.71,4.71,0,0,1-3.89,1.72,6,6,0,0,1-2.17-.38,3.75,3.75,0,0,1-1.48-.95A3.33,3.33,0,0,1,127.44,139.43Zm2.78-3.17a3.6,3.6,0,0,0,3.95,0,1.86,1.86,0,0,0,.78-1.57,1.91,1.91,0,0,0-.77-1.58,3.26,3.26,0,0,0-2-.58,3.17,3.17,0,0,0-2,.58,1.88,1.88,0,0,0-.78,1.58A1.84,1.84,0,0,0,130.22,136.26Z" fill="#003a50"/><path d="M336.59,133.42l-2.49,2v-2.24l2.73-2.27h1.87v11.92h-2.11Z" fill="#003a50"/><path d="M346.6,134.79a5,5,0,0,1,3.34,1.06,4.17,4.17,0,0,1,0,6,5.34,5.34,0,0,1-3.55,1.09,5.77,5.77,0,0,1-3.56-1,3.16,3.16,0,0,1-1.29-2.68h2.11a1.53,1.53,0,0,0,.7,1.33,3.53,3.53,0,0,0,2,.49,3.18,3.18,0,0,0,2-.57,2.09,2.09,0,0,0,.7-1.69,2.06,2.06,0,0,0-.74-1.71,3.31,3.31,0,0,0-2.07-.58,3.6,3.6,0,0,0-1.92.42,1.84,1.84,0,0,0-.7.64l-.05.12H341.5v-6.88h8.88v1.84h-6.77v3h.05a2.77,2.77,0,0,1,.4-.3,3.11,3.11,0,0,1,.55-.27A5.6,5.6,0,0,1,346.6,134.79Z" fill="#003a50"/><path d="M353.31,142.65a1,1,0,0,1-.32-.81,1,1,0,0,1,.32-.81,1.41,1.41,0,0,1,1.74,0,1.07,1.07,0,0,1,.32.81,1,1,0,0,1-.32.81,1.41,1.41,0,0,1-1.74,0Z" fill="#003a50"/><path d="M365.65,142.78h-2.11v-2.65h-7v-1.85l6.3-7.42h2.79v7.42h1.6v1.85h-1.6Zm-2.11-4.5V133h-.06L359,138.23v.05Z" fill="#003a50"/><path d="M9,494.1H-.93v-1.56a2.79,2.79,0,0,1,.58-1.75,4,4,0,0,1,1.44-1.19c.5-.26,1.13-.55,1.87-.87s1.33-.55,1.88-.77a4.26,4.26,0,0,0,1.45-.91,1.82,1.82,0,0,0,.57-1.31c0-1.26-.89-1.89-2.66-1.89s-2.68.72-2.68,2.17v.4H-.59V486a3.62,3.62,0,0,1,1.26-3,5.39,5.39,0,0,1,3.52-1,5.65,5.65,0,0,1,3.51,1A3.29,3.29,0,0,1,9,485.74a3.17,3.17,0,0,1-.56,1.84A4.28,4.28,0,0,1,7,488.88a17.49,17.49,0,0,1-1.83.93q-.95.42-1.83.75a5.18,5.18,0,0,0-1.41.75,1.23,1.23,0,0,0-.56,1H9Z" fill="#003a50"/><path d="M11.11,494a1,1,0,0,1-.32-.81,1.06,1.06,0,0,1,.32-.8,1.41,1.41,0,0,1,1.74,0,1.06,1.06,0,0,1,.32.8,1,1,0,0,1-.32.81,1.41,1.41,0,0,1-1.74,0Z" fill="#003a50"/><path d="M16.52,492.56A6.47,6.47,0,0,1,15,488.14a6.54,6.54,0,0,1,1.48-4.42A5.11,5.11,0,0,1,20.6,482a5.09,5.09,0,0,1,4.06,1.7,6.49,6.49,0,0,1,1.48,4.42,6.42,6.42,0,0,1-1.48,4.42,5.09,5.09,0,0,1-4.06,1.71A5.12,5.12,0,0,1,16.52,492.56Zm6.54-1.38a5.75,5.75,0,0,0,0-6.08,2.89,2.89,0,0,0-2.46-1.18,2.87,2.87,0,0,0-2.46,1.18,5.64,5.64,0,0,0,0,6.08,2.88,2.88,0,0,0,2.46,1.19A2.93,2.93,0,0,0,23.06,491.18Z" fill="#003a50"/><path d="M-.6,643.41a6.46,6.46,0,0,1-3.69.93A6.5,6.5,0,0,1-8,643.4a3,3,0,0,1-1.37-2.56,2.71,2.71,0,0,1,.26-1.17,2.37,2.37,0,0,1,.65-.85A4,4,0,0,1-7,638l.26-.06v-.09a3.57,3.57,0,0,1-.77-.29,2.63,2.63,0,0,1-.66-.45,2.2,2.2,0,0,1-.54-.75,2.42,2.42,0,0,1-.23-1A2.82,2.82,0,0,1-7.72,633a5.74,5.74,0,0,1,3.42-.9,5.85,5.85,0,0,1,3.44.9,2.83,2.83,0,0,1,1.24,2.39,2.43,2.43,0,0,1-.22,1,1.87,1.87,0,0,1-.55.74,3.67,3.67,0,0,1-1.2.69l-.22,0V638l.28.06a6.14,6.14,0,0,1,.63.27,4.12,4.12,0,0,1,.77.51,2.69,2.69,0,0,1,.61.82,2.56,2.56,0,0,1,.28,1.2A3,3,0,0,1-.6,643.41Zm-5.8-1.36a3.84,3.84,0,0,0,2.1.48,4,4,0,0,0,2.11-.47,1.53,1.53,0,0,0,.74-1.35,1.52,1.52,0,0,0-.74-1.35,4,4,0,0,0-2.11-.47,4,4,0,0,0-2.1.47,1.52,1.52,0,0,0-.74,1.35A1.51,1.51,0,0,0-6.4,642.05Zm-.36-6.52a1.36,1.36,0,0,0,.64,1.19,3.24,3.24,0,0,0,1.82.43,3.26,3.26,0,0,0,1.83-.43,1.36,1.36,0,0,0,.64-1.19,1.39,1.39,0,0,0-.65-1.21,3.29,3.29,0,0,0-1.82-.43,3.25,3.25,0,0,0-1.81.43A1.37,1.37,0,0,0-6.76,635.53Z" fill="#003a50"/><path d="M2.87,644a1,1,0,0,1-.32-.81,1,1,0,0,1,.32-.81,1.24,1.24,0,0,1,.87-.29,1.24,1.24,0,0,1,.87.29,1.07,1.07,0,0,1,.32.81,1,1,0,0,1-.32.81,1.24,1.24,0,0,1-.87.3A1.24,1.24,0,0,1,2.87,644Z" fill="#003a50"/><path d="M13,634.1H7.16v-1.85H16v1.85l-4.53,2.65v.06h1.28a3.87,3.87,0,0,1,2.79,1,3.53,3.53,0,0,1,1.06,2.67,3.35,3.35,0,0,1-1.33,2.82,5.86,5.86,0,0,1-3.63,1,5.81,5.81,0,0,1-3.62-1,3.36,3.36,0,0,1-1.33-2.86v-.32H8.83v.32c0,1.37.95,2,2.84,2s2.85-.67,2.85-2-.95-2-2.85-2H8.41v-1.67L13,634.16Z" fill="#003a50"/><path d="M254.19,134.81a5,5,0,0,1,3.34,1.06,4.18,4.18,0,0,1,0,6,5.38,5.38,0,0,1-3.54,1.08,5.8,5.8,0,0,1-3.57-1,3.16,3.16,0,0,1-1.29-2.68h2.11a1.55,1.55,0,0,0,.71,1.33,3.57,3.57,0,0,0,2,.49,3.17,3.17,0,0,0,2-.58,2.36,2.36,0,0,0,0-3.39,3.25,3.25,0,0,0-2.07-.58,3.7,3.7,0,0,0-1.92.41,2,2,0,0,0-.7.64l-.05.13h-2.11v-6.88H258v1.84h-6.78v3h.05a2.78,2.78,0,0,1,.4-.31,3.94,3.94,0,0,1,.55-.26A5.66,5.66,0,0,1,254.19,134.81Z" fill="#003a50"/><path d="M260.89,142.66a1,1,0,0,1-.32-.8,1.07,1.07,0,0,1,.32-.81,1.25,1.25,0,0,1,.88-.3,1.22,1.22,0,0,1,.86.3,1,1,0,0,1,.32.81,1,1,0,0,1-.32.8,1.22,1.22,0,0,1-.86.3A1.25,1.25,0,0,1,260.89,142.66Z" fill="#003a50"/><path d="M273.49,142a7.75,7.75,0,0,1-7.38,0,3,3,0,0,1-1.37-2.56,2.7,2.7,0,0,1,.26-1.16,2.32,2.32,0,0,1,.66-.86,4,4,0,0,1,1.39-.77l.26-.07v-.09a2.91,2.91,0,0,1-.76-.29,2.51,2.51,0,0,1-.67-.44,2.15,2.15,0,0,1-.54-.76,2.38,2.38,0,0,1-.22-1,2.79,2.79,0,0,1,1.25-2.38,5.75,5.75,0,0,1,3.43-.9,5.81,5.81,0,0,1,3.43.9,2.83,2.83,0,0,1,1.25,2.38,2.67,2.67,0,0,1-.22,1,2,2,0,0,1-.56.74,3.59,3.59,0,0,1-1.19.68l-.23,0v.09l.28.07a6.14,6.14,0,0,1,.63.27,4.09,4.09,0,0,1,.77.5,2.89,2.89,0,0,1,.62.83,2.63,2.63,0,0,1,.27,1.19A2.94,2.94,0,0,1,273.49,142Zm-5.8-1.35a4.86,4.86,0,0,0,4.21,0,1.59,1.59,0,0,0,0-2.69,4.95,4.95,0,0,0-4.21,0,1.51,1.51,0,0,0-.74,1.35A1.52,1.52,0,0,0,267.69,140.68Zm-.36-6.53a1.35,1.35,0,0,0,.64,1.19,4,4,0,0,0,3.65,0,1.43,1.43,0,0,0,0-2.39,3.25,3.25,0,0,0-1.81-.44A3.29,3.29,0,0,0,268,133,1.38,1.38,0,0,0,267.33,134.15Z" fill="#003a50"/></g></svg>