<svg id="Слой_1" data-name="Слой 1" xmlns="http://www.w3.org/2000/svg" xmlns:xlink="http://www.w3.org/1999/xlink" viewBox="0 0 375.02 470.55"><defs><clipPath id="clip-path"><polygon points="196.02 0 196.02 21.26 189.21 21.26 189.21 50.23 0 50.23 0 469.42 368.25 469.42 368.25 452.35 375.02 452.35 375.02 50.23 245.34 50.23 245.34 0 196.02 0" fill="none"/></clipPath></defs><polygon points="0 50.23 0 427.02 5.66 427.02 5.66 54.88 130.24 58.39 129.46 50.23 0 50.23" fill="#fff"/><polygon points="240.93 66.55 191.28 66.55 7.54 60.85 4.2 427.02 369.6 427.02 366.85 59.19 240.93 66.55" fill="#fff"/><polygon points="268.56 50.23 268.56 61.1 363.58 59.87 363.17 427.02 375.02 427.02 375.02 50.23 268.56 50.23" fill="#fff"/><g clip-path="url(#clip-path)"><rect x="-359.56" y="-1754.15" width="1115.44" height="2194.74" fill="none" stroke="#003a50" stroke-miterlimit="10"/><polygon points="-334.73 -668.43 -334.73 417.64 731.74 417.64 731.74 -1730.23 -334.73 -1730.39 -334.73 -737.23 -334.73 -668.43" fill="none" stroke="#003a50" stroke-miterlimit="10"/></g><rect x="214.1" y="425.98" width="87.59" height="4.56" fill="#fff"/><rect x="214.1" y="425.98" width="87.59" height="4.56" fill="none" stroke="#003a50" stroke-miterlimit="10"/><line x1="214.1" y1="428.26" x2="301.69" y2="428.26" fill="none" stroke="#003a50" stroke-miterlimit="10"/><rect x="214.1" y="425.98" width="4.42" height="4.56" fill="#fff"/><rect x="214.1" y="425.98" width="4.42" height="4.56" fill="none" stroke="#003a50" stroke-miterlimit="10"/><rect x="297.27" y="425.98" width="4.42" height="4.56" fill="#fff"/><rect x="297.27" y="425.98" width="4.42" height="4.56" fill="none" stroke="#003a50" stroke-miterlimit="10"/><rect x="255.68" y="425.98" width="4.42" height="4.56" fill="#fff"/><rect x="255.68" y="425.98" width="4.42" height="4.56" fill="none" stroke="#003a50" stroke-miterlimit="10"/><rect x="29.74" y="425.98" width="88.35" height="4.56" fill="#fff"/><rect x="29.74" y="425.98" width="88.35" height="4.56" fill="none" stroke="#003a50" stroke-miterlimit="10"/><line x1="29.74" y1="428.26" x2="118.09" y2="428.26" fill="none" stroke="#003a50" stroke-miterlimit="10"/><rect x="29.74" y="425.98" width="4.46" height="4.56" fill="#fff"/><rect x="29.74" y="425.98" width="4.46" height="4.56" fill="none" stroke="#003a50" stroke-miterlimit="10"/><rect x="113.63" y="425.98" width="4.46" height="4.56" fill="#fff"/><rect x="113.63" y="425.98" width="4.46" height="4.56" fill="none" stroke="#003a50" stroke-miterlimit="10"/><rect x="71.68" y="425.98" width="4.46" height="4.56" fill="#fff"/><rect x="71.68" y="425.98" width="4.46" height="4.56" fill="none" stroke="#003a50" stroke-miterlimit="10"/><rect x="14.22" y="91.65" width="42.4" height="92.12" fill="none" stroke="#003a50" stroke-miterlimit="10"/><g clip-path="url(#clip-path)"><rect x="19.2" y="95.44" width="32.04" height="84.27" rx="13.7" fill="none" stroke="#003a50" stroke-miterlimit="10"/><path d="M37.51,110a2.21,2.21,0,1,0-2.21,2.2A2.21,2.21,0,0,0,37.51,110Z" fill="none" stroke="#003a50" stroke-miterlimit="10"/><rect x="-42.53" y="91.65" width="42.4" height="92.12" fill="none" stroke="#003a50" stroke-miterlimit="10"/><path d="M99.27,119.74V91.16H76.19v28.58a11.54,11.54,0,0,0,11.54,11.54h0A11.54,11.54,0,0,0,99.27,119.74Z" fill="none" stroke="#003a50" stroke-miterlimit="10"/></g><rect x="76.18" y="91.16" width="23.09" height="11.08" fill="none" stroke="#003a50" stroke-miterlimit="10"/><g clip-path="url(#clip-path)"><path d="M142.84,76.42a3.37,3.37,0,0,0,3.12-2.1h1.93l5.1,3.05-2.31,3.76L148,79.68V91.51h-11.1V79.68l-2.66,1.45L132,77.37l5.14-3.05h2.57A3.45,3.45,0,0,0,142.84,76.42Z" fill="none" stroke="#003a50" stroke-miterlimit="10"/></g><rect x="125.46" y="66.52" width="34.03" height="32.79" fill="none" stroke="#003a50" stroke-miterlimit="10"/><rect x="324.99" y="99.18" width="34.03" height="33.98" fill="none" stroke="#003a50" stroke-miterlimit="10"/><g clip-path="url(#clip-path)"><path d="M346.31,114.67V103.61H337.7v11.06a3.55,3.55,0,0,0,3.55,3.54h1.52A3.55,3.55,0,0,0,346.31,114.67Z" fill="none" stroke="#003a50" stroke-miterlimit="10"/></g><polyline points="338.53 128.77 342.01 128.77 345.48 128.77" fill="none" stroke="#003a50" stroke-miterlimit="10"/><line x1="342.01" y1="118.21" x2="342.01" y2="128.77" fill="none" stroke="#003a50" stroke-miterlimit="10"/><rect x="325.08" y="140.31" width="34.03" height="34.03" fill="none" stroke="#003a50" stroke-miterlimit="10"/><g clip-path="url(#clip-path)"><circle cx="334.49" cy="165.1" r="4.64" transform="translate(-18.77 284.87) rotate(-45)" fill="none" stroke="#003a50" stroke-miterlimit="10"/><circle cx="334.49" cy="149.61" r="4.64" transform="translate(-7.82 280.34) rotate(-45)" fill="none" stroke="#003a50" stroke-miterlimit="10"/><circle cx="349.58" cy="165.1" r="4.64" transform="translate(-14.35 295.55) rotate(-45)" fill="none" stroke="#003a50" stroke-miterlimit="10"/><circle cx="349.58" cy="149.61" r="4.64" transform="translate(-3.4 291.01) rotate(-45)" fill="none" stroke="#003a50" stroke-miterlimit="10"/></g><rect x="183.32" y="302.93" width="17.02" height="102.08" fill="none" stroke="#003a50" stroke-miterlimit="10"/><polygon points="192.37 396.98 188.84 354.07 192.37 310.95 194.83 310.95 194.83 396.98 192.37 396.98" fill="none" stroke="#003a50" stroke-miterlimit="10"/><rect x="160.66" y="285.93" width="17.02" height="102.08" fill="none" stroke="#003a50" stroke-miterlimit="10"/><polygon points="168.63 379.99 172.15 337.08 168.63 293.96 166.17 293.96 166.17 379.99 168.63 379.99" fill="none" stroke="#003a50" stroke-miterlimit="10"/><rect x="325.08" y="99.28" width="33.61" height="122.3" fill="none" stroke="#003a50" stroke-miterlimit="10"/><rect x="278" y="66.55" width="80.68" height="32.74" fill="none" stroke="#003a50" stroke-miterlimit="10"/><rect x="159.72" y="66.55" width="21.14" height="32.74" fill="none" stroke="#003a50" stroke-miterlimit="10"/><rect x="125.22" y="156.74" width="55.64" height="26.5" fill="none" stroke="#003a50" stroke-miterlimit="10"/><polyline points="311.45 70.07 304.65 70.07 297.87 70.07" fill="none" stroke="#003a50" stroke-miterlimit="10"/><line x1="304.64" y1="83.7" x2="304.64" y2="70.07" fill="none" stroke="#003a50" stroke-miterlimit="10"/><g clip-path="url(#clip-path)"><path d="M319.72,94.34V79.13a3.24,3.24,0,0,0-3.24-3.23h-23.6a3.24,3.24,0,0,0-3.24,3.23V94.34a3.24,3.24,0,0,0,3.24,3.24h23.6A3.24,3.24,0,0,0,319.72,94.34Z" fill="none" stroke="#003a50" stroke-miterlimit="10"/><path d="M304.64,85.39A2.43,2.43,0,1,0,302.21,83,2.42,2.42,0,0,0,304.64,85.39Z" fill="none" stroke="#003a50" stroke-miterlimit="10"/><polygon points="407.66 169.45 407.66 90.09 463.46 90.09 463.46 55.8 370.49 55.8 370.49 90.09 373.37 90.09 373.37 169.45 370.49 169.45 370.49 203.74 497.63 203.74 497.63 169.45 407.66 169.45" fill="none" stroke="#003a50" stroke-miterlimit="10"/><path d="M229.58,269.8a1.26,1.26,0,0,1,.94,1.51,13.79,13.79,0,0,0,26.89,6.16,1.26,1.26,0,0,1,2.45.56,16.31,16.31,0,0,1-31.79-7.29A1.26,1.26,0,0,1,229.58,269.8Z" fill="none" stroke="#003a50" stroke-miterlimit="10"/><path d="M284.77,279.52a1.25,1.25,0,0,1,1.75-.33,13.79,13.79,0,0,0,15.53-22.8,1.26,1.26,0,0,1,1.41-2.08,16.31,16.31,0,1,1-18.36,27A1.26,1.26,0,0,1,284.77,279.52Z" fill="none" stroke="#003a50" stroke-miterlimit="10"/><path d="M287.27,232.1a1.26,1.26,0,0,1-1.33-1.18,13.79,13.79,0,1,0-27.53,1.62,1.26,1.26,0,1,1-2.51.16,16.3,16.3,0,1,1,32.55-1.94A1.25,1.25,0,0,1,287.27,232.1Z" fill="none" stroke="#003a50" stroke-miterlimit="10"/><path d="M243.78,286.42a12.69,12.69,0,0,1-12-15.49l2-8.88a3.53,3.53,0,0,1,4.24-2.68l13.44,3.08a23.73,23.73,0,0,0,6,9.44l-1,4.2C255.18,282.06,249.9,286.62,243.78,286.42Z" fill="none" stroke="#003a50" stroke-miterlimit="10"/><path d="M286.6,277.89l-2.32-1.6A23.81,23.81,0,0,0,297.92,255l2.52,1.72c5,3.44,7.4,10,5,15.64A12.7,12.7,0,0,1,286.6,277.89Z" fill="none" stroke="#003a50" stroke-miterlimit="10"/><path d="M259.75,235.6l-.12-2c-.36-6.13,3.4-12,9.32-13.49a12.66,12.66,0,0,1,15.88,11.49l.12,1.84a23.93,23.93,0,0,0-16.64-1.92A23.5,23.5,0,0,0,259.75,235.6Z" fill="none" stroke="#003a50" stroke-miterlimit="10"/><path d="M257.51,271.89a23.86,23.86,0,0,1-6-9.44,16.51,16.51,0,0,1-.6-2,23.86,23.86,0,0,1,8.85-24.85,23.5,23.5,0,0,1,8.56-4A23.87,23.87,0,0,1,297.24,249a22.12,22.12,0,0,1,.68,6,23.81,23.81,0,0,1-13.65,21.33,23.53,23.53,0,0,1-4.48,1.61A23.77,23.77,0,0,1,257.51,271.89Z" fill="none" stroke="#003a50" stroke-miterlimit="10"/><path d="M54.58,218.67a1,1,0,0,1-.54.9,1,1,0,0,1-1.3-.46,29.81,29.81,0,0,1,0-25.27,1,1,0,0,1,1.3-.45,1,1,0,0,1,.44,1.34,27.66,27.66,0,0,0,0,23.5A1,1,0,0,1,54.58,218.67Z" fill="none" stroke="#003a50" stroke-miterlimit="10"/><path d="M49.21,218.67a1,1,0,0,1-.54.9,1,1,0,0,1-1.3-.46,29.72,29.72,0,0,1,0-25.27,1,1,0,0,1,1.3-.45,1,1,0,0,1,.44,1.34,27.66,27.66,0,0,0,0,23.5A1,1,0,0,1,49.21,218.67Z" fill="none" stroke="#003a50" stroke-miterlimit="10"/><path d="M43.84,218.67a1,1,0,0,1-.54.9,1,1,0,0,1-1.3-.46,29.72,29.72,0,0,1,0-25.27.94.94,0,0,1,1.29-.45,1,1,0,0,1,.45,1.34,27.56,27.56,0,0,0,0,23.5A1.13,1.13,0,0,1,43.84,218.67Z" fill="none" stroke="#003a50" stroke-miterlimit="10"/><path d="M38.46,218.67a1,1,0,0,1-.54.9,1,1,0,0,1-1.3-.46,29.81,29.81,0,0,1,0-25.27,1,1,0,0,1,1.3-.45,1,1,0,0,1,.44,1.34,27.66,27.66,0,0,0,0,23.5A1,1,0,0,1,38.46,218.67Z" fill="none" stroke="#003a50" stroke-miterlimit="10"/><path d="M33.09,218.67a1,1,0,0,1-.54.9,1,1,0,0,1-1.3-.46,29.72,29.72,0,0,1,0-25.27,1,1,0,0,1,1.3-.45,1,1,0,0,1,.44,1.34,27.66,27.66,0,0,0,0,23.5A1,1,0,0,1,33.09,218.67Z" fill="none" stroke="#003a50" stroke-miterlimit="10"/><path d="M27.72,218.67a1,1,0,0,1-.54.9,1,1,0,0,1-1.3-.46,29.72,29.72,0,0,1,0-25.27.94.94,0,0,1,1.29-.45,1,1,0,0,1,.45,1.34,27.56,27.56,0,0,0,0,23.5A1.13,1.13,0,0,1,27.72,218.67Z" fill="none" stroke="#003a50" stroke-miterlimit="10"/><path d="M60,218.67a1,1,0,0,1-.54.9,1,1,0,0,1-1.3-.46,29.72,29.72,0,0,1,0-25.27.94.94,0,0,1,1.29-.45,1,1,0,0,1,.45,1.34,27.56,27.56,0,0,0,0,23.5A1.13,1.13,0,0,1,60,218.67Z" fill="none" stroke="#003a50" stroke-miterlimit="10"/><path d="M65.33,218.67a1,1,0,0,1-.54.9,1,1,0,0,1-1.3-.46,29.72,29.72,0,0,1,0-25.27,1,1,0,0,1,1.3-.45,1,1,0,0,1,.44,1.34,27.66,27.66,0,0,0,0,23.5A1,1,0,0,1,65.33,218.67Z" fill="none" stroke="#003a50" stroke-miterlimit="10"/></g><line x1="177.41" y1="206.48" x2="13.48" y2="206.48" fill="none" stroke="#003a50" stroke-miterlimit="10"/><rect x="14.49" y="189.18" width="162.92" height="34.03" fill="none" stroke="#003a50" stroke-miterlimit="10"/><g clip-path="url(#clip-path)"><rect x="374.19" y="16.06" width="118.06" height="33.36" fill="none" stroke="#003a50" stroke-miterlimit="10"/><line x1="492.26" y1="226.33" x2="374.19" y2="226.33" fill="none" stroke="#003a50" stroke-miterlimit="10"/><rect x="374.19" y="209.38" width="118.06" height="33.36" fill="none" stroke="#003a50" stroke-miterlimit="10"/><path d="M47.24,45.4a1,1,0,0,1-.54.9,1,1,0,0,1-1.3-.45,29.81,29.81,0,0,1,0-25.27,1,1,0,0,1,1.3-.46,1,1,0,0,1,.44,1.34,27.66,27.66,0,0,0,0,23.5A1,1,0,0,1,47.24,45.4Z" fill="none" stroke="#003a50" stroke-miterlimit="10"/><path d="M41.87,45.4a1,1,0,0,1-.54.9,1,1,0,0,1-1.3-.45,29.72,29.72,0,0,1,0-25.27,1,1,0,0,1,1.29-.46,1,1,0,0,1,.45,1.34,27.56,27.56,0,0,0,0,23.5A1,1,0,0,1,41.87,45.4Z" fill="none" stroke="#003a50" stroke-miterlimit="10"/><path d="M36.5,45.4a1,1,0,0,1-.54.9,1,1,0,0,1-1.3-.45,29.72,29.72,0,0,1,0-25.27A1,1,0,0,1,36,20.12a1,1,0,0,1,.45,1.34,27.56,27.56,0,0,0,0,23.5A1.13,1.13,0,0,1,36.5,45.4Z" fill="none" stroke="#003a50" stroke-miterlimit="10"/><path d="M31.12,45.4a1,1,0,0,1-.54.9,1,1,0,0,1-1.3-.45,29.81,29.81,0,0,1,0-25.27,1,1,0,0,1,1.3-.46A1,1,0,0,1,31,21.46,27.66,27.66,0,0,0,31,45,1,1,0,0,1,31.12,45.4Z" fill="none" stroke="#003a50" stroke-miterlimit="10"/><path d="M25.75,45.4a1,1,0,0,1-.54.9,1,1,0,0,1-1.3-.45,29.72,29.72,0,0,1,0-25.27,1,1,0,0,1,1.29-.46,1,1,0,0,1,.45,1.34,27.56,27.56,0,0,0,0,23.5A1,1,0,0,1,25.75,45.4Z" fill="none" stroke="#003a50" stroke-miterlimit="10"/><path d="M20.37,45.4a1,1,0,0,1-.54.9,1,1,0,0,1-1.3-.45,29.81,29.81,0,0,1,0-25.27,1,1,0,0,1,1.3-.46,1,1,0,0,1,.44,1.34,27.66,27.66,0,0,0,0,23.5A1,1,0,0,1,20.37,45.4Z" fill="none" stroke="#003a50" stroke-miterlimit="10"/><path d="M52.62,45.4a1,1,0,0,1-.54.9,1,1,0,0,1-1.3-.45,29.72,29.72,0,0,1,0-25.27,1,1,0,0,1,1.29-.46,1,1,0,0,1,.45,1.34,27.56,27.56,0,0,0,0,23.5A1.13,1.13,0,0,1,52.62,45.4Z" fill="none" stroke="#003a50" stroke-miterlimit="10"/><path d="M58,45.4a1,1,0,0,1-.54.9,1,1,0,0,1-1.3-.45,29.72,29.72,0,0,1,0-25.27,1,1,0,0,1,1.29-.46,1,1,0,0,1,.45,1.34,27.56,27.56,0,0,0,0,23.5A1,1,0,0,1,58,45.4Z" fill="none" stroke="#003a50" stroke-miterlimit="10"/><rect x="6.88" y="15.64" width="119.19" height="34.59" fill="none" stroke="#003a50" stroke-miterlimit="10"/></g><rect x="56.94" y="157.88" width="61.59" height="25.4" fill="none" stroke="#003a50" stroke-miterlimit="10"/><g clip-path="url(#clip-path)"><path d="M99.46,162.77v19.4A2.83,2.83,0,0,1,96.63,185H77.87A2.83,2.83,0,0,1,75,182.17v-19.4A2.83,2.83,0,0,1,77.87,160H96.63A2.83,2.83,0,0,1,99.46,162.77Z" fill="none" stroke="#003a50" stroke-miterlimit="10"/><path d="M87.25,170.56a1.91,1.91,0,1,1-1.91,1.91A1.9,1.9,0,0,1,87.25,170.56Z" fill="none" stroke="#003a50" stroke-miterlimit="10"/></g><rect x="325.03" y="187.98" width="33.54" height="33.54" fill="none" stroke="#003a50" stroke-miterlimit="10"/><line x1="341.8" y1="214.59" x2="341.8" y2="194.91" fill="none" stroke="#003a50" stroke-miterlimit="10"/><line x1="351.64" y1="204.75" x2="331.96" y2="204.75" fill="none" stroke="#003a50" stroke-miterlimit="10"/><line x1="348.76" y1="211.71" x2="334.84" y2="197.8" fill="none" stroke="#003a50" stroke-miterlimit="10"/><line x1="348.76" y1="197.79" x2="334.84" y2="211.7" fill="none" stroke="#003a50" stroke-miterlimit="10"/><g clip-path="url(#clip-path)"><rect x="-89.35" y="189.18" width="90.74" height="34.03" fill="none" stroke="#003a50" stroke-miterlimit="10"/><line x1="1.39" y1="206.2" x2="-89.35" y2="206.2" fill="none" stroke="#003a50" stroke-miterlimit="10"/><path d="M312.33,354h41.05V399.8H310.12V356.23A2.2,2.2,0,0,1,312.33,354Z" fill="none" stroke="#003a50" stroke-miterlimit="10"/><path d="M312.1,308.13h41.27v45.79H312.1a2,2,0,0,1-2-2V310.12A2,2,0,0,1,312.1,308.13Z" fill="none" stroke="#003a50" stroke-miterlimit="10"/><path d="M310.11,399.8a3.11,3.11,0,0,0-2.82,3.33v4.23a3.1,3.1,0,0,0,2.82,3.32h48.22V297.26H310.54a3.11,3.11,0,0,0-2.83,3.32v4.23a3.12,3.12,0,0,0,2.83,3.33h42.84V399.8Z" fill="none" stroke="#003a50" stroke-miterlimit="10"/></g><rect x="344.12" y="308.13" width="9.26" height="91.67" fill="none" stroke="#003a50" stroke-miterlimit="10"/><g clip-path="url(#clip-path)"><rect x="375.16" y="296.8" width="52.35" height="113.71" fill="none" stroke="#003a50" stroke-miterlimit="10"/></g><rect x="15.73" y="250.86" width="22.68" height="22.69" fill="none" stroke="#003a50" stroke-miterlimit="10"/><g clip-path="url(#clip-path)"><path d="M33.58,268.72a9.2,9.2,0,1,1,0-13A9.22,9.22,0,0,1,33.58,268.72Z" fill="none" stroke="#003a50" stroke-miterlimit="10"/><path d="M34.2,268c-1.69-.17-3.41.48-5.06-1.17-2.44-2.43.14-5-2.3-7.46s-5,.14-7.46-2.3" fill="none" stroke="#003a50" stroke-miterlimit="10"/></g><rect x="15.73" y="392.05" width="22.68" height="22.68" fill="none" stroke="#003a50" stroke-miterlimit="10"/><g clip-path="url(#clip-path)"><path d="M33.58,409.9a9.2,9.2,0,1,1,0-13A9.2,9.2,0,0,1,33.58,409.9Z" fill="none" stroke="#003a50" stroke-miterlimit="10"/><path d="M34.2,409.21c-1.69-.17-3.41.48-5.06-1.17-2.44-2.44.14-5-2.3-7.46s-5,.14-7.46-2.3" fill="none" stroke="#003a50" stroke-miterlimit="10"/></g><rect x="15.74" y="281.03" width="113.42" height="102.08" fill="none" stroke="#003a50" stroke-miterlimit="10"/><g clip-path="url(#clip-path)"><path d="M119.42,291v82.08a2.08,2.08,0,0,1-2.08,2.08H49.67V288.94h67.67A2.09,2.09,0,0,1,119.42,291Z" fill="none" stroke="#003a50" stroke-miterlimit="10"/><rect x="23.17" y="332.93" width="22.88" height="42.52" rx="1.98" fill="none" stroke="#003a50" stroke-miterlimit="10"/><rect x="23.17" y="288.69" width="22.88" height="42.51" rx="1.98" fill="none" stroke="#003a50" stroke-miterlimit="10"/></g><line x1="63.53" y1="288.69" x2="63.53" y2="375.45" fill="none" stroke="#003a50" stroke-miterlimit="10"/><g clip-path="url(#clip-path)"><rect x="-27.23" y="15.91" width="34.03" height="34.03" fill="none" stroke="#003a50" stroke-miterlimit="10"/><path d="M181.3,280.19h-3.45a43.49,43.49,0,0,1-43.5-43.49h47" fill="none" stroke="#003a50" stroke-miterlimit="10" stroke-width="1.6"/><path d="M123.79,114.84h3.13a39.36,39.36,0,0,1,39.35,39.36H123.79" fill="none" stroke="#003a50" stroke-miterlimit="10" stroke-width="1.6"/><path d="M190.64,56.67V52.6A51.13,51.13,0,0,1,241.78,1.46V56.67" fill="none" stroke="#003a50" stroke-miterlimit="10" stroke-width="1.6"/><path d="M137-36.59h4.07a51.15,51.15,0,0,1,51.15,51.15H137" fill="none" stroke="#003a50" stroke-miterlimit="10" stroke-width="1.6"/><rect x="252.24" y="-2.32" width="16.32" height="66.02" fill="#003a50"/><rect x="240.93" y="50.22" width="132.01" height="16.32" fill="#003a50"/><rect x="-0.62" y="50.22" width="191.9" height="16.32" fill="#003a50"/><rect x="-0.62" y="58.39" width="16.32" height="372.62" fill="#003a50"/><rect x="125.93" y="13.68" width="16.32" height="40.52" fill="#003a50"/><rect x="358.69" y="50.23" width="16.32" height="380.78" fill="#003a50"/><rect x="-1.82" y="418.08" width="27.04" height="46.77" fill="#003a50"/><rect x="2.18" y="418.08" width="27.04" height="23.38" fill="#003a50"/><rect x="126.01" y="411.91" width="82.86" height="27.14" fill="#003a50"/><rect x="301.41" y="418.08" width="95.37" height="34.26" fill="#003a50"/><rect x="369.6" y="422.08" width="27.18" height="41.93" fill="#003a50"/><rect x="118.59" y="418.08" width="95.37" height="34.26" fill="#003a50"/><rect x="186.78" y="422.08" width="27.18" height="41.93" fill="#003a50"/><rect x="-92.38" y="184.13" width="94.51" height="6.38" fill="#003a50"/><rect x="-96.01" y="50.2" width="99.72" height="6.38" fill="#003a50"/><rect x="-96.01" y="85.83" width="99.72" height="6.38" fill="#003a50"/></g><rect x="177.68" y="279.41" width="6.38" height="136.18" fill="#003a50"/><rect x="177.68" y="183.25" width="6.38" height="54.21" fill="#003a50"/><rect x="368.63" y="50.23" width="6.38" height="8.15" fill="#003a50"/><rect x="316.02" y="50.23" width="6.38" height="9.64" fill="#003a50"/><rect x="368.63" y="50.23" width="6.39" height="5.57" fill="#003a50"/><rect x="118.85" y="65.37" width="6.38" height="50.23" fill="#003a50"/><rect x="118.85" y="153.36" width="6.38" height="32.89" fill="#003a50"/><rect x="180.87" y="156.39" width="3.19" height="29.86" fill="#003a50"/><rect x="180.87" y="66.52" width="3.19" height="36.35" fill="#003a50"/><rect x="14.22" y="85.27" width="107.82" height="6.38" fill="#003a50"/><rect x="82.69" y="62.65" width="6.38" height="26.38" fill="#003a50"/><rect x="251.65" y="63.7" width="6.38" height="25.26" fill="#003a50"/><rect x="271.62" y="64.45" width="6.38" height="24.51" fill="#003a50"/><rect x="253.5" y="82.58" width="24.51" height="6.38" fill="#003a50"/><rect x="14.22" y="183.43" width="166.64" height="6.38" fill="#003a50"/><line x1="183.32" y1="156.74" x2="186.16" y2="156.74" fill="none" stroke="#003a50" stroke-miterlimit="10"/><line x1="191.91" y1="156.74" x2="246.53" y2="156.74" fill="none" stroke="#003a50" stroke-miterlimit="10" stroke-dasharray="5.75 5.75"/><polyline points="249.41 156.74 252.24 156.74 252.24 153.91" fill="none" stroke="#003a50" stroke-miterlimit="10"/><line x1="252.24" y1="148.06" x2="252.24" y2="92.5" fill="none" stroke="#003a50" stroke-miterlimit="10" stroke-dasharray="5.85 5.85"/><line x1="252.24" y1="89.57" x2="252.24" y2="86.74" fill="none" stroke="#003a50" stroke-miterlimit="10"/><g clip-path="url(#clip-path)"><path d="M80.47,139.67H74.65v-1.84h8.86v1.84L79,142.32v.07h1.28a3.9,3.9,0,0,1,2.79,1,3.53,3.53,0,0,1,1.06,2.67,3.35,3.35,0,0,1-1.33,2.82,7,7,0,0,1-7.24,0A3.36,3.36,0,0,1,74.21,146v-.32h2.11V146c0,1.37.94,2,2.84,2s2.84-.67,2.84-2-1-2-2.84-2H75.89v-1.67l4.58-2.68Z" fill="#003a50"/><path d="M86.21,149.6a1,1,0,0,1-.33-.8,1,1,0,0,1,.33-.81,1.4,1.4,0,0,1,1.73,0,1,1,0,0,1,.33.81,1,1,0,0,1-.33.8,1.4,1.4,0,0,1-1.73,0Z" fill="#003a50"/><path d="M96.31,139.67H90.49v-1.84h8.86v1.84l-4.52,2.65v.07h1.28a3.9,3.9,0,0,1,2.79,1,3.52,3.52,0,0,1,1,2.67,3.32,3.32,0,0,1-1.33,2.82,7,7,0,0,1-7.24,0A3.36,3.36,0,0,1,90.05,146v-.32h2.11V146c0,1.37,1,2,2.84,2s2.84-.67,2.84-2-.94-2-2.84-2H91.74v-1.67l4.57-2.68Z" fill="#003a50"/><path d="M156.83,116.2H146.9v-1.56a2.79,2.79,0,0,1,.58-1.75,3.87,3.87,0,0,1,1.44-1.19c.5-.26,1.13-.55,1.87-.87s1.33-.55,1.88-.77a4.36,4.36,0,0,0,1.45-.91,1.81,1.81,0,0,0,.57-1.31c0-1.25-.89-1.88-2.67-1.88s-2.67.72-2.67,2.16v.4h-2.11v-.4a3.62,3.62,0,0,1,1.26-3,5.44,5.44,0,0,1,3.51-1,5.73,5.73,0,0,1,3.52,1,3.31,3.31,0,0,1,1.27,2.75,3.17,3.17,0,0,1-.56,1.84,4.16,4.16,0,0,1-1.4,1.3,16.7,16.7,0,0,1-1.84.93c-.62.28-1.23.53-1.82.75a5.18,5.18,0,0,0-1.41.75,1.23,1.23,0,0,0-.56,1h7.62Z" fill="#003a50"/><path d="M158.93,116.07a1,1,0,0,1-.32-.81,1.07,1.07,0,0,1,.32-.81,1.41,1.41,0,0,1,1.74,0,1.07,1.07,0,0,1,.32.81,1,1,0,0,1-.32.81,1.45,1.45,0,0,1-1.74,0Z" fill="#003a50"/><path d="M172.71,116.2h-9.93v-1.56a2.79,2.79,0,0,1,.58-1.75,3.87,3.87,0,0,1,1.44-1.19c.5-.26,1.12-.55,1.87-.87s1.33-.55,1.88-.77a4.22,4.22,0,0,0,1.44-.91,1.78,1.78,0,0,0,.58-1.31c0-1.25-.89-1.88-2.67-1.88s-2.67.72-2.67,2.16v.4h-2.11v-.4a3.62,3.62,0,0,1,1.26-3,5.44,5.44,0,0,1,3.51-1,5.73,5.73,0,0,1,3.52,1,3.31,3.31,0,0,1,1.27,2.75,3.17,3.17,0,0,1-.56,1.84,4.25,4.25,0,0,1-1.4,1.3,16.7,16.7,0,0,1-1.84.93c-.63.28-1.23.53-1.83.75a5.26,5.26,0,0,0-1.4.75,1.2,1.2,0,0,0-.56,1h7.62Z" fill="#003a50"/><path d="M308.11,1.45h-2.35l5.42-10h-6.93v-1.88h9.29v1.88Z" fill="#003a50"/><path d="M315,1.32a1,1,0,0,1-.32-.81,1.06,1.06,0,0,1,.32-.8,1.24,1.24,0,0,1,.87-.3,1.23,1.23,0,0,1,.87.3,1.06,1.06,0,0,1,.32.8,1,1,0,0,1-.32.81,1.23,1.23,0,0,1-.87.3A1.24,1.24,0,0,1,315,1.32Z" fill="#003a50"/><path d="M320.38-.09a6.47,6.47,0,0,1-1.48-4.42,6.54,6.54,0,0,1,1.48-4.42,5.11,5.11,0,0,1,4.08-1.7,5.09,5.09,0,0,1,4.06,1.7A6.49,6.49,0,0,1,330-4.51a6.42,6.42,0,0,1-1.48,4.42,5.09,5.09,0,0,1-4.06,1.71A5.12,5.12,0,0,1,320.38-.09Zm6.54-1.38a5,5,0,0,0,.87-3,5,5,0,0,0-.87-3,2.89,2.89,0,0,0-2.46-1.18A2.87,2.87,0,0,0,322-7.55a4.94,4.94,0,0,0-.89,3,4.94,4.94,0,0,0,.89,3,2.88,2.88,0,0,0,2.46,1.19A2.93,2.93,0,0,0,326.92-1.47Z" fill="#003a50"/><path d="M37.47-8.57H31.64v-1.85h8.87v1.85L36-5.92v.07h1.28a3.91,3.91,0,0,1,2.8,1,3.52,3.52,0,0,1,1,2.67A3.34,3.34,0,0,1,39.78.66a5.89,5.89,0,0,1-3.62,1,5.9,5.9,0,0,1-3.63-1A3.4,3.4,0,0,1,31.2-2.2v-.33h2.11v.33c0,1.36.95,2,2.85,2S39-.83,39-2.17s-1-2-2.84-2H32.89V-5.82L37.47-8.5Z" fill="#003a50"/><path d="M43.21,1.37a1,1,0,0,1-.32-.81,1.06,1.06,0,0,1,.32-.8,1.25,1.25,0,0,1,.88-.3,1.2,1.2,0,0,1,.86.3,1,1,0,0,1,.33.8,1,1,0,0,1-.33.81,1.2,1.2,0,0,1-.86.3A1.25,1.25,0,0,1,43.21,1.37Z" fill="#003a50"/><path d="M55.81.74a6.45,6.45,0,0,1-3.68.93,6.44,6.44,0,0,1-3.7-.94,3,3,0,0,1-1.37-2.56A2.66,2.66,0,0,1,47.32-3,2.32,2.32,0,0,1,48-3.85a3.86,3.86,0,0,1,1.39-.77l.26-.07v-.09a3.32,3.32,0,0,1-.76-.29,2.68,2.68,0,0,1-.67-.44,2.35,2.35,0,0,1-.54-.76,2.38,2.38,0,0,1-.22-1,2.8,2.8,0,0,1,1.25-2.38,5.77,5.77,0,0,1,3.43-.9,5.81,5.81,0,0,1,3.43.9A2.81,2.81,0,0,1,56.8-7.3a2.58,2.58,0,0,1-.22,1,1.85,1.85,0,0,1-.56.75,3.59,3.59,0,0,1-1.19.68l-.23,0v.09l.29.07a4.46,4.46,0,0,1,.62.26,4.28,4.28,0,0,1,.77.51A2.83,2.83,0,0,1,56.9-3a2.71,2.71,0,0,1,.27,1.2A3,3,0,0,1,55.81.74ZM50-.62a3.76,3.76,0,0,0,2.11.49,3.84,3.84,0,0,0,2.1-.48A1.5,1.5,0,0,0,55-1.95a1.51,1.51,0,0,0-.74-1.35,3.85,3.85,0,0,0-2.1-.47A3.91,3.91,0,0,0,50-3.3a1.51,1.51,0,0,0-.74,1.35A1.5,1.5,0,0,0,50-.62Zm-.36-6.52a1.36,1.36,0,0,0,.64,1.19,3.25,3.25,0,0,0,1.83.44,3.24,3.24,0,0,0,1.82-.44,1.37,1.37,0,0,0,.65-1.19,1.36,1.36,0,0,0-.66-1.2,3.25,3.25,0,0,0-1.81-.44,3.29,3.29,0,0,0-1.82.44A1.38,1.38,0,0,0,49.65-7.14Z" fill="#003a50"/><path d="M82.09,257l-2.49,2v-2.25l2.74-2.27H84.2v11.92H82.09Z" fill="#003a50"/><path d="M96.6,266.31H86.66v-1.56a2.79,2.79,0,0,1,.58-1.75,3.91,3.91,0,0,1,1.45-1.19c.5-.26,1.12-.55,1.87-.87s1.32-.56,1.88-.77a4.09,4.09,0,0,0,1.44-.92,1.76,1.76,0,0,0,.58-1.3q0-1.89-2.67-1.89c-1.79,0-2.68.72-2.68,2.16v.41H87v-.41a3.59,3.59,0,0,1,1.27-3,5.34,5.34,0,0,1,3.51-1,5.66,5.66,0,0,1,3.52,1A3.27,3.27,0,0,1,96.57,258a3.17,3.17,0,0,1-.56,1.84,4.26,4.26,0,0,1-1.4,1.3,18.66,18.66,0,0,1-1.84.93q-.94.42-1.83.75a5.26,5.26,0,0,0-1.4.75,1.22,1.22,0,0,0-.57,1H96.6Z" fill="#003a50"/><path d="M98.71,266.18a1.15,1.15,0,0,1,0-1.61,1.4,1.4,0,0,1,1.73,0,1.15,1.15,0,0,1,0,1.61,1.4,1.4,0,0,1-1.73,0Z" fill="#003a50"/><path d="M111.05,266.31h-2.11v-2.65h-7v-1.85l6.3-7.42h2.79v7.42h1.6v1.85h-1.6Zm-2.11-4.5v-5.32h-.07l-4.48,5.27v.05Z" fill="#003a50"/><path d="M210.18,116.25h-10v-1.57a2.75,2.75,0,0,1,.59-1.74,4,4,0,0,1,1.44-1.2c.5-.25,1.12-.54,1.87-.86l1.88-.78a4.21,4.21,0,0,0,1.45-.91,1.81,1.81,0,0,0,.57-1.31c0-1.25-.89-1.88-2.67-1.88s-2.67.72-2.67,2.16v.4h-2.11v-.4a3.62,3.62,0,0,1,1.26-3,5.38,5.38,0,0,1,3.51-1,5.66,5.66,0,0,1,3.52,1,3.29,3.29,0,0,1,1.27,2.75,3.17,3.17,0,0,1-.55,1.84,4.42,4.42,0,0,1-1.41,1.31c-.6.34-1.21.65-1.84.93s-1.23.52-1.82.74a5.18,5.18,0,0,0-1.41.75,1.23,1.23,0,0,0-.57,1h7.64Z" fill="#003a50"/><path d="M212.28,116.11a1,1,0,0,1-.32-.8,1,1,0,0,1,.32-.81,1.41,1.41,0,0,1,1.74,0,1.07,1.07,0,0,1,.32.81,1,1,0,0,1-.32.8,1.41,1.41,0,0,1-1.74,0Z" fill="#003a50"/><path d="M217.69,114.71a7.36,7.36,0,0,1,0-8.85,5.72,5.72,0,0,1,8.14,0,7.36,7.36,0,0,1,0,8.85,5.72,5.72,0,0,1-8.14,0Zm6.53-1.39a4.93,4.93,0,0,0,.88-3,5,5,0,0,0-.88-3.05,3.15,3.15,0,0,0-4.92,0,5.69,5.69,0,0,0,0,6.08,3.14,3.14,0,0,0,4.92,0Z" fill="#003a50"/><path d="M187.25,257l-2.49,2v-2.25l2.74-2.27h1.86v11.92h-2.11Z" fill="#003a50"/><path d="M200.56,265.55a7.73,7.73,0,0,1-7.37,0,3,3,0,0,1-1.37-2.56,2.6,2.6,0,0,1,.26-1.17,2.37,2.37,0,0,1,.65-.85,3.89,3.89,0,0,1,1.4-.77l.26-.07V260a3.38,3.38,0,0,1-.77-.29,2.91,2.91,0,0,1-.66-.44,2.35,2.35,0,0,1-.54-.76,2.42,2.42,0,0,1-.23-1,2.82,2.82,0,0,1,1.26-2.39,5.74,5.74,0,0,1,3.42-.89,5.85,5.85,0,0,1,3.44.89,2.83,2.83,0,0,1,1.24,2.39,2.43,2.43,0,0,1-.22,1,1.9,1.9,0,0,1-.55.75,3.72,3.72,0,0,1-1.2.68l-.22,0v.09l.28.07a3.62,3.62,0,0,1,.62.26,4.79,4.79,0,0,1,.78.51,2.82,2.82,0,0,1,.61.82,2.71,2.71,0,0,1,.28,1.2A3,3,0,0,1,200.56,265.55Zm-5.79-1.36a3.84,3.84,0,0,0,2.1.48,3.91,3.91,0,0,0,2.11-.47,1.61,1.61,0,0,0,0-2.7,4,4,0,0,0-2.11-.47,3.94,3.94,0,0,0-2.1.47,1.53,1.53,0,0,0-.74,1.35A1.5,1.5,0,0,0,194.77,264.19Zm-.37-6.52a1.37,1.37,0,0,0,.65,1.19,3.22,3.22,0,0,0,1.82.44,3.25,3.25,0,0,0,1.83-.44,1.42,1.42,0,0,0,0-2.39,3.94,3.94,0,0,0-3.62,0A1.36,1.36,0,0,0,194.4,257.67Z" fill="#003a50"/><path d="M204,266.18a1.15,1.15,0,0,1,0-1.61,1.21,1.21,0,0,1,.87-.3,1.24,1.24,0,0,1,.87.3,1.17,1.17,0,0,1,0,1.61,1.24,1.24,0,0,1-.87.3A1.21,1.21,0,0,1,204,266.18Z" fill="#003a50"/><path d="M214.15,256.24h-5.82v-1.85h8.87v1.85l-4.53,2.65V259H214a3.86,3.86,0,0,1,2.79,1,3.52,3.52,0,0,1,1,2.67,3.32,3.32,0,0,1-1.33,2.82,6.93,6.93,0,0,1-7.24,0,3.36,3.36,0,0,1-1.33-2.86v-.32H210v.32c0,1.37.95,2,2.84,2s2.84-.67,2.84-2-.94-2-2.84-2h-3.27V259l4.58-2.69Z" fill="#003a50"/></g></svg>