<svg id="Слой_1" data-name="Слой 1" xmlns="http://www.w3.org/2000/svg" xmlns:xlink="http://www.w3.org/1999/xlink" viewBox="0 0 583.94 632.13"><defs><clipPath id="clip-path"><polygon points="0.14 0 0.14 632.13 384.8 632.13 384.8 615.66 404.87 615.66 404.87 231.16 531.5 231.16 531.5 180.85 583.94 180.85 583.94 0 0.14 0" fill="none"/></clipPath></defs><polygon points="51.83 0 51.83 1.07 522.33 5.74 521.44 0 51.83 0" fill="#fff"/><polygon points="51.95 11.81 51.95 591.65 394.91 591.65 394.91 219.52 519.5 223.02 515.18 178.32 515.18 128.97 528.51 112.8 528.51 11.51 51.95 11.81" fill="#fff"/><polygon points="393.45 591.65 404.87 591.65 404.87 231.16 531.5 231.16 531.5 229.66 396.8 225.49 393.45 591.65" fill="#fff"/><g clip-path="url(#clip-path)"><rect x="29.7" y="-1589.51" width="1115.44" height="2194.74" fill="none" stroke="#003a50" stroke-miterlimit="10"/><polygon points="54.52 -503.79 54.52 582.27 1120.99 582.27 1120.99 -1565.6 54.52 -1565.75 54.52 -572.6 54.52 -503.79" fill="none" stroke="#003a50" stroke-miterlimit="10"/></g><rect x="39.42" y="48.14" width="4.55" height="89.48" fill="#fff"/><rect x="39.42" y="48.13" width="4.55" height="89.48" fill="none" stroke="#003a50" stroke-miterlimit="10"/><line x1="41.7" y1="48.14" x2="41.7" y2="137.62" fill="none" stroke="#003a50" stroke-miterlimit="10"/><rect x="39.42" y="48.14" width="4.55" height="4.52" fill="#fff"/><rect x="39.42" y="48.13" width="4.55" height="4.52" fill="none" stroke="#003a50" stroke-miterlimit="10"/><rect x="39.42" y="133.1" width="4.55" height="4.52" fill="#fff"/><rect x="39.42" y="133.1" width="4.55" height="4.52" fill="none" stroke="#003a50" stroke-miterlimit="10"/><rect x="39.42" y="90.61" width="4.55" height="4.52" fill="#fff"/><rect x="39.42" y="90.61" width="4.55" height="4.52" fill="none" stroke="#003a50" stroke-miterlimit="10"/><rect x="39.42" y="228.7" width="4.55" height="90.86" fill="#fff"/><rect x="39.42" y="228.7" width="4.55" height="90.86" fill="none" stroke="#003a50" stroke-miterlimit="10"/><line x1="41.7" y1="228.7" x2="41.7" y2="319.56" fill="none" stroke="#003a50" stroke-miterlimit="10"/><rect x="39.42" y="228.7" width="4.55" height="4.58" fill="#fff"/><rect x="39.42" y="228.7" width="4.55" height="4.58" fill="none" stroke="#003a50" stroke-miterlimit="10"/><rect x="39.42" y="314.97" width="4.55" height="4.59" fill="#fff"/><rect x="39.42" y="314.97" width="4.55" height="4.59" fill="none" stroke="#003a50" stroke-miterlimit="10"/><rect x="39.42" y="271.83" width="4.55" height="4.58" fill="#fff"/><rect x="39.42" y="271.83" width="4.55" height="4.58" fill="none" stroke="#003a50" stroke-miterlimit="10"/><rect x="39.42" y="411.43" width="4.55" height="183.66" fill="#fff"/><rect x="39.42" y="411.43" width="4.55" height="183.66" fill="none" stroke="#003a50" stroke-miterlimit="10"/><line x1="41.7" y1="595.1" x2="41.7" y2="411.44" fill="none" stroke="#003a50" stroke-miterlimit="10"/><rect x="39.42" y="544.78" width="4.55" height="5.87" fill="#fff"/><rect x="39.42" y="544.78" width="4.55" height="5.87" fill="none" stroke="#003a50" stroke-miterlimit="10"/><rect x="39.42" y="500.33" width="4.55" height="5.87" fill="#fff"/><rect x="39.42" y="500.33" width="4.55" height="5.87" fill="none" stroke="#003a50" stroke-miterlimit="10"/><rect x="39.42" y="589.22" width="4.55" height="5.88" fill="#fff"/><rect x="39.42" y="589.22" width="4.55" height="5.88" fill="none" stroke="#003a50" stroke-miterlimit="10"/><rect x="39.42" y="411.43" width="4.55" height="5.87" fill="#fff"/><rect x="39.42" y="411.43" width="4.55" height="5.87" fill="none" stroke="#003a50" stroke-miterlimit="10"/><rect x="39.42" y="455.89" width="4.55" height="5.87" fill="#fff"/><rect x="39.42" y="455.89" width="4.55" height="5.87" fill="none" stroke="#003a50" stroke-miterlimit="10"/><rect x="299.07" y="590.62" width="88.21" height="4.56" fill="#fff"/><rect x="299.07" y="590.62" width="88.21" height="4.56" fill="none" stroke="#003a50" stroke-miterlimit="10"/><line x1="299.07" y1="592.9" x2="387.29" y2="592.9" fill="none" stroke="#003a50" stroke-miterlimit="10"/><rect x="299.07" y="590.62" width="4.45" height="4.56" fill="#fff"/><rect x="299.07" y="590.62" width="4.45" height="4.56" fill="none" stroke="#003a50" stroke-miterlimit="10"/><rect x="382.83" y="590.62" width="4.45" height="4.56" fill="#fff"/><rect x="382.83" y="590.62" width="4.45" height="4.56" fill="none" stroke="#003a50" stroke-miterlimit="10"/><rect x="340.95" y="590.62" width="4.45" height="4.56" fill="#fff"/><rect x="340.95" y="590.62" width="4.45" height="4.56" fill="none" stroke="#003a50" stroke-miterlimit="10"/><rect x="39.44" y="590.62" width="163.39" height="4.55" fill="#fff"/><rect x="39.44" y="590.62" width="163.39" height="4.55" fill="none" stroke="#003a50" stroke-miterlimit="10"/><line x1="39.44" y1="592.9" x2="202.83" y2="592.9" fill="none" stroke="#003a50" stroke-miterlimit="10"/><rect x="78.98" y="590.62" width="5.22" height="4.55" fill="#fff"/><rect x="78.98" y="590.62" width="5.22" height="4.55" fill="none" stroke="#003a50" stroke-miterlimit="10"/><rect x="118.52" y="590.62" width="5.22" height="4.55" fill="#fff"/><rect x="118.52" y="590.62" width="5.22" height="4.55" fill="none" stroke="#003a50" stroke-miterlimit="10"/><rect x="39.44" y="590.62" width="5.22" height="4.55" fill="#fff"/><rect x="39.44" y="590.62" width="5.22" height="4.55" fill="none" stroke="#003a50" stroke-miterlimit="10"/><rect x="197.61" y="590.62" width="5.22" height="4.55" fill="#fff"/><rect x="197.61" y="590.62" width="5.22" height="4.55" fill="none" stroke="#003a50" stroke-miterlimit="10"/><rect x="158.07" y="590.62" width="5.23" height="4.55" fill="#fff"/><rect x="158.07" y="590.62" width="5.22" height="4.55" fill="none" stroke="#003a50" stroke-miterlimit="10"/><g clip-path="url(#clip-path)"><rect x="403.47" y="256.29" width="42.4" height="92.12" fill="none" stroke="#003a50" stroke-miterlimit="10"/><rect x="408.45" y="260.08" width="32.04" height="84.27" rx="13.7" fill="none" stroke="#003a50" stroke-miterlimit="10"/><path d="M426.76,274.66a2.2,2.2,0,1,0-2.2,2.21A2.2,2.2,0,0,0,426.76,274.66Z" fill="none" stroke="#003a50" stroke-miterlimit="10"/></g><rect x="346.72" y="256.29" width="42.4" height="92.12" fill="none" stroke="#003a50" stroke-miterlimit="10"/><g clip-path="url(#clip-path)"><rect x="351.7" y="260.08" width="32.04" height="84.27" rx="13.7" fill="none" stroke="#003a50" stroke-miterlimit="10"/><path d="M370,274.66a2.2,2.2,0,1,0-2.2,2.21A2.2,2.2,0,0,0,370,274.66Z" fill="none" stroke="#003a50" stroke-miterlimit="10"/><path d="M488.53,284.38V255.8H465.44v28.58A11.54,11.54,0,0,0,477,295.92h0A11.54,11.54,0,0,0,488.53,284.38Z" fill="none" stroke="#003a50" stroke-miterlimit="10"/><path d="M332.93,284.38V255.8H309.84v28.58a11.54,11.54,0,0,0,11.54,11.54h0A11.54,11.54,0,0,0,332.93,284.38Z" fill="none" stroke="#003a50" stroke-miterlimit="10"/></g><rect x="309.85" y="255.79" width="23.09" height="11.08" fill="none" stroke="#003a50" stroke-miterlimit="10"/><rect x="53.84" y="221.7" width="42.4" height="92.12" fill="none" stroke="#003a50" stroke-miterlimit="10"/><g clip-path="url(#clip-path)"><rect x="59.22" y="225.49" width="32.04" height="84.27" rx="13.7" fill="none" stroke="#003a50" stroke-miterlimit="10"/><path d="M73,240.08a2.2,2.2,0,1,1,2.2,2.2A2.19,2.19,0,0,1,73,240.08Z" fill="none" stroke="#003a50" stroke-miterlimit="10"/><path d="M143,249.79V221.21H166v28.58a11.54,11.54,0,0,1-11.54,11.54h0A11.54,11.54,0,0,1,143,249.79Z" fill="none" stroke="#003a50" stroke-miterlimit="10"/></g><rect x="142.95" y="221.21" width="23.09" height="11.08" fill="none" stroke="#003a50" stroke-miterlimit="10"/><g clip-path="url(#clip-path)"><path d="M532.09,241.06a3.41,3.41,0,0,0,3.13-2.1h1.92l5.1,3-2.31,3.77-2.66-1.46v11.83H526.18V244.31l-2.66,1.46L521.2,242l5.14-3h2.58A3.46,3.46,0,0,0,532.09,241.06Z" fill="none" stroke="#003a50" stroke-miterlimit="10"/><rect x="514.71" y="231.16" width="34.03" height="32.79" fill="none" stroke="#003a50" stroke-miterlimit="10"/><path d="M420.84,89.67a3.17,3.17,0,0,0,2.91-2h1.78l4.74,2.83-2.15,3.5-2.47-1.36v11h-10.3v-11l-2.46,1.36-2.15-3.5,4.77-2.83h2.39A3.2,3.2,0,0,0,420.84,89.67Z" fill="none" stroke="#003a50" stroke-miterlimit="10"/></g><rect x="404.71" y="80.48" width="31.58" height="30.43" fill="none" stroke="#003a50" stroke-miterlimit="10"/><rect x="365.49" y="82.53" width="32.74" height="33.98" fill="none" stroke="#003a50" stroke-miterlimit="10"/><g clip-path="url(#clip-path)"><path d="M386.16,98V86.94h-8.61V98a3.55,3.55,0,0,0,3.54,3.54h1.52A3.55,3.55,0,0,0,386.16,98Z" fill="none" stroke="#003a50" stroke-miterlimit="10"/></g><polyline points="378.38 112.1 381.85 112.1 385.33 112.1" fill="none" stroke="#003a50" stroke-miterlimit="10"/><line x1="381.85" y1="101.54" x2="381.85" y2="112.1" fill="none" stroke="#003a50" stroke-miterlimit="10"/><rect x="320.53" y="13.48" width="34.03" height="34.03" fill="none" stroke="#003a50" stroke-miterlimit="10"/><g clip-path="url(#clip-path)"><circle cx="345.31" cy="38.1" r="4.64" transform="translate(11.7 135.04) rotate(-22.5)" fill="none" stroke="#003a50" stroke-miterlimit="10"/><circle cx="329.82" cy="38.1" r="4.64" transform="translate(10.52 129.12) rotate(-22.5)" fill="none" stroke="#003a50" stroke-miterlimit="10"/><circle cx="345.31" cy="23.01" r="4.64" transform="translate(17.48 133.9) rotate(-22.5)" fill="none" stroke="#003a50" stroke-miterlimit="10"/><circle cx="329.82" cy="23.01" r="4.64" transform="translate(16.3 127.97) rotate(-22.5)" fill="none" stroke="#003a50" stroke-miterlimit="10"/></g><rect x="53.23" y="185.19" width="102.08" height="17.02" fill="none" stroke="#003a50" stroke-miterlimit="10"/><polygon points="61.25 193.16 104.17 196.69 147.29 193.16 147.29 190.7 61.25 190.7 61.25 193.16" fill="none" stroke="#003a50" stroke-miterlimit="10"/><rect x="54.43" y="443.29" width="17.02" height="102.08" fill="none" stroke="#003a50" stroke-miterlimit="10"/><polygon points="63.48 451.32 59.95 494.23 63.48 537.35 65.93 537.35 65.93 451.32 63.48 451.32" fill="none" stroke="#003a50" stroke-miterlimit="10"/><rect x="306.67" y="13.9" width="58.81" height="33.61" fill="none" stroke="#003a50" stroke-miterlimit="10"/><rect x="365.49" y="13.9" width="32.74" height="102.61" fill="none" stroke="#003a50" stroke-miterlimit="10"/><rect x="336.28" y="461.43" width="52.35" height="113.71" fill="none" stroke="#003a50" stroke-miterlimit="10"/><g clip-path="url(#clip-path)"><path d="M379.69,471.14H345.63a2.11,2.11,0,0,0-2.1,2.11v67.64H381.8V473.25A2.11,2.11,0,0,0,379.69,471.14Z" fill="none" stroke="#003a50" stroke-miterlimit="10"/></g><rect x="343.53" y="527.04" width="38.27" height="13.86" fill="none" stroke="#003a50" stroke-miterlimit="10"/><g clip-path="url(#clip-path)"><rect x="343.47" y="544.51" width="38.72" height="22.89" rx="2.2" fill="none" stroke="#003a50" stroke-miterlimit="10"/></g><rect x="195.98" y="241.23" width="25.4" height="82" fill="none" stroke="#003a50" stroke-miterlimit="10"/><g clip-path="url(#clip-path)"><path d="M200.87,312.92h19.39a2.83,2.83,0,0,0,2.83-2.82V291.34a2.83,2.83,0,0,0-2.83-2.83H200.87a2.83,2.83,0,0,0-2.83,2.83V310.1A2.83,2.83,0,0,0,200.87,312.92Z" fill="none" stroke="#003a50" stroke-miterlimit="10"/><path d="M208.65,300.72a1.92,1.92,0,1,0,1.92-1.91A1.92,1.92,0,0,0,208.65,300.72Z" fill="none" stroke="#003a50" stroke-miterlimit="10"/><path d="M200.87,277.14h19.39a2.83,2.83,0,0,0,2.83-2.82V255.56a2.83,2.83,0,0,0-2.83-2.83H200.87a2.83,2.83,0,0,0-2.83,2.83v18.76A2.83,2.83,0,0,0,200.87,277.14Z" fill="none" stroke="#003a50" stroke-miterlimit="10"/><path d="M208.65,264.94a1.92,1.92,0,1,0,1.92-1.92A1.92,1.92,0,0,0,208.65,264.94Z" fill="none" stroke="#003a50" stroke-miterlimit="10"/><path d="M204.68,56.94a1.26,1.26,0,0,1-1.21,1.31,13.79,13.79,0,0,0,1.08,27.56,1.26,1.26,0,0,1,.09,2.51,16.31,16.31,0,0,1-1.27-32.59A1.26,1.26,0,0,1,204.68,56.94Z" fill="none" stroke="#003a50" stroke-miterlimit="10"/><path d="M211.63,94.51a1.26,1.26,0,0,1,.87,1.55,13.79,13.79,0,1,0,26.54,7.5,1.26,1.26,0,1,1,2.42.69,16.3,16.3,0,1,1-31.38-8.87A1.25,1.25,0,0,1,211.63,94.51Z" fill="none" stroke="#003a50" stroke-miterlimit="10"/><path d="M249.42,98.88a1.25,1.25,0,0,1,1.74-.35A13.79,13.79,0,0,0,266.5,75.6a1.25,1.25,0,0,1-.35-1.74,1.27,1.27,0,0,1,1.75-.35,16.31,16.31,0,0,1-18.13,27.11A1.25,1.25,0,0,1,249.42,98.88Z" fill="none" stroke="#003a50" stroke-miterlimit="10"/><path d="M266.6,64.29a1.27,1.27,0,0,1,.21-1.77,13.79,13.79,0,1,0-17.06-21.66,1.26,1.26,0,1,1-1.56-2A16.31,16.31,0,0,1,268.37,64.5,1.26,1.26,0,0,1,266.6,64.29Z" fill="none" stroke="#003a50" stroke-miterlimit="10"/><path d="M237.77,40.23a1.26,1.26,0,0,1-.86-1.56,13.79,13.79,0,1,0-26.46-7.75,1.27,1.27,0,0,1-1.56.85,1.25,1.25,0,0,1-.86-1.56,16.31,16.31,0,1,1,31.3,9.16A1.26,1.26,0,0,1,237.77,40.23Z" fill="none" stroke="#003a50" stroke-miterlimit="10"/><path d="M214.52,84.27l-9.36.36a12.65,12.65,0,1,1-1-25.29l9-.32a23.71,23.71,0,0,0,1.28,25.25Z" fill="none" stroke="#003a50" stroke-miterlimit="10"/><path d="M240.69,93.51l-2.56,9.09a12.66,12.66,0,0,1-24.37-6.85l2.6-9.2a23.62,23.62,0,0,0,24.33,7Z" fill="none" stroke="#003a50" stroke-miterlimit="10"/><path d="M268.78,93.71a12.66,12.66,0,0,1-17.53,3.52L244,92.35A23.89,23.89,0,0,0,257.1,77.11a25,25,0,0,0,.84-5.85l7.36,4.92A12.65,12.65,0,0,1,268.78,93.71Z" fill="none" stroke="#003a50" stroke-miterlimit="10"/><path d="M265.58,62.06l-7.73,6.08a23.88,23.88,0,0,0-15.56-20l7.64-6a12.65,12.65,0,1,1,15.65,19.89Z" fill="none" stroke="#003a50" stroke-miterlimit="10"/><path d="M235.65,39l-2.28,7.77a23.63,23.63,0,0,0-9.09,2.12L209,44.37a1.21,1.21,0,0,1-.84-1.52l3.08-10.64a12.86,12.86,0,0,1,13.2-9.4A12.67,12.67,0,0,1,235.65,39Z" fill="none" stroke="#003a50" stroke-miterlimit="10"/><path d="M257.94,71.26a25,25,0,0,1-.84,5.85A23.89,23.89,0,0,1,244,92.35a24.6,24.6,0,0,1-3.28,1.16,23.61,23.61,0,0,1-24.33-7,25.46,25.46,0,0,1-1.84-2.28A23.71,23.71,0,0,1,213.24,59a24,24,0,0,1,11-10.16,23.87,23.87,0,0,1,16.33-1.24c.56.16,1.12.36,1.68.56a23.89,23.89,0,0,1,15.57,20A27.09,27.09,0,0,1,257.94,71.26Z" fill="none" stroke="#003a50" stroke-miterlimit="10"/><path d="M443.84,383.3a1,1,0,0,1-.54.9,1,1,0,0,1-1.3-.45,29.72,29.72,0,0,1,0-25.27,1,1,0,0,1,1.29-.46,1,1,0,0,1,.45,1.34,27.56,27.56,0,0,0,0,23.5A1.17,1.17,0,0,1,443.84,383.3Z" fill="none" stroke="#003a50" stroke-miterlimit="10"/><path d="M438.46,383.3a1,1,0,0,1-.54.9,1,1,0,0,1-1.3-.45,29.81,29.81,0,0,1,0-25.27,1,1,0,0,1,1.3-.46,1,1,0,0,1,.44,1.34,27.66,27.66,0,0,0,0,23.5A1,1,0,0,1,438.46,383.3Z" fill="none" stroke="#003a50" stroke-miterlimit="10"/><path d="M433.09,383.3a1,1,0,0,1-.54.9,1,1,0,0,1-1.3-.45,29.72,29.72,0,0,1,0-25.27,1,1,0,0,1,1.3-.46,1,1,0,0,1,.44,1.34,27.66,27.66,0,0,0,0,23.5A1,1,0,0,1,433.09,383.3Z" fill="none" stroke="#003a50" stroke-miterlimit="10"/><path d="M427.72,383.3a1,1,0,0,1-.54.9,1,1,0,0,1-1.3-.45,29.72,29.72,0,0,1,0-25.27,1,1,0,0,1,1.29-.46,1,1,0,0,1,.45,1.34,27.56,27.56,0,0,0,0,23.5A1.17,1.17,0,0,1,427.72,383.3Z" fill="none" stroke="#003a50" stroke-miterlimit="10"/><path d="M422.34,383.3a1,1,0,0,1-.54.9,1,1,0,0,1-1.3-.45,29.81,29.81,0,0,1,0-25.27,1,1,0,0,1,1.3-.46,1,1,0,0,1,.44,1.34,27.66,27.66,0,0,0,0,23.5A1,1,0,0,1,422.34,383.3Z" fill="none" stroke="#003a50" stroke-miterlimit="10"/><path d="M417,383.3a1,1,0,0,1-.54.9,1,1,0,0,1-1.3-.45,29.72,29.72,0,0,1,0-25.27,1,1,0,0,1,1.3-.46,1,1,0,0,1,.44,1.34,27.66,27.66,0,0,0,0,23.5A1,1,0,0,1,417,383.3Z" fill="none" stroke="#003a50" stroke-miterlimit="10"/><path d="M449.21,383.3a1,1,0,0,1-.54.9,1,1,0,0,1-1.3-.45,29.72,29.72,0,0,1,0-25.27,1,1,0,0,1,1.3-.46,1,1,0,0,1,.44,1.34,27.66,27.66,0,0,0,0,23.5A1,1,0,0,1,449.21,383.3Z" fill="none" stroke="#003a50" stroke-miterlimit="10"/><path d="M454.58,383.3a1,1,0,0,1-.54.9,1,1,0,0,1-1.3-.45,29.81,29.81,0,0,1,0-25.27A1,1,0,0,1,454,358a1,1,0,0,1,.44,1.34,27.66,27.66,0,0,0,0,23.5A1,1,0,0,1,454.58,383.3Z" fill="none" stroke="#003a50" stroke-miterlimit="10"/><line x1="566.66" y1="371.11" x2="402.73" y2="371.11" fill="none" stroke="#003a50" stroke-miterlimit="10"/><rect x="403.74" y="353.82" width="162.92" height="34.03" fill="none" stroke="#003a50" stroke-miterlimit="10"/><path d="M436.5,210a1,1,0,0,1-.54.9,1,1,0,0,1-1.3-.46,29.72,29.72,0,0,1,0-25.27.94.94,0,0,1,1.29-.45,1,1,0,0,1,.45,1.34,27.56,27.56,0,0,0,0,23.5A1.13,1.13,0,0,1,436.5,210Z" fill="none" stroke="#003a50" stroke-miterlimit="10"/><path d="M431.12,210a1,1,0,0,1-.54.9,1,1,0,0,1-1.3-.46,29.81,29.81,0,0,1,0-25.27,1,1,0,0,1,1.3-.45,1,1,0,0,1,.44,1.34,27.66,27.66,0,0,0,0,23.5A1,1,0,0,1,431.12,210Z" fill="none" stroke="#003a50" stroke-miterlimit="10"/><path d="M425.75,210a1,1,0,0,1-.54.9,1,1,0,0,1-1.3-.46,29.72,29.72,0,0,1,0-25.27.94.94,0,0,1,1.29-.45,1,1,0,0,1,.45,1.34,27.56,27.56,0,0,0,0,23.5A1,1,0,0,1,425.75,210Z" fill="none" stroke="#003a50" stroke-miterlimit="10"/><path d="M420.38,210a1,1,0,0,1-.54.9,1,1,0,0,1-1.3-.46,29.72,29.72,0,0,1,0-25.27.94.94,0,0,1,1.29-.45,1,1,0,0,1,.45,1.34,27.56,27.56,0,0,0,0,23.5A1.13,1.13,0,0,1,420.38,210Z" fill="none" stroke="#003a50" stroke-miterlimit="10"/><path d="M415,210a1,1,0,0,1-.54.9,1,1,0,0,1-1.3-.46,29.81,29.81,0,0,1,0-25.27,1,1,0,0,1,1.3-.45,1,1,0,0,1,.44,1.34,27.66,27.66,0,0,0,0,23.5A1,1,0,0,1,415,210Z" fill="none" stroke="#003a50" stroke-miterlimit="10"/><path d="M409.63,210a1,1,0,0,1-.54.9,1,1,0,0,1-1.3-.46,29.72,29.72,0,0,1,0-25.27.94.94,0,0,1,1.29-.45,1,1,0,0,1,.45,1.34,27.56,27.56,0,0,0,0,23.5A1,1,0,0,1,409.63,210Z" fill="none" stroke="#003a50" stroke-miterlimit="10"/><path d="M441.87,210a1,1,0,0,1-.54.9,1,1,0,0,1-1.3-.46,29.72,29.72,0,0,1,0-25.27.94.94,0,0,1,1.29-.45,1,1,0,0,1,.45,1.34,27.56,27.56,0,0,0,0,23.5A1,1,0,0,1,441.87,210Z" fill="none" stroke="#003a50" stroke-miterlimit="10"/><path d="M447.24,210a1,1,0,0,1-.54.9,1,1,0,0,1-1.3-.46,29.81,29.81,0,0,1,0-25.27,1,1,0,0,1,1.3-.45,1,1,0,0,1,.44,1.34,27.66,27.66,0,0,0,0,23.5A1,1,0,0,1,447.24,210Z" fill="none" stroke="#003a50" stroke-miterlimit="10"/></g><line x1="515.05" y1="197.85" x2="395.39" y2="197.85" fill="none" stroke="#003a50" stroke-miterlimit="10"/><rect x="396.13" y="180.27" width="119.19" height="34.59" fill="none" stroke="#003a50" stroke-miterlimit="10"/><rect x="299.29" y="323.45" width="47.2" height="25.4" fill="none" stroke="#003a50" stroke-miterlimit="10"/><g clip-path="url(#clip-path)"><path d="M333.6,328.35v19.39a2.83,2.83,0,0,1-2.83,2.83H312a2.83,2.83,0,0,1-2.83-2.83V328.35a2.83,2.83,0,0,1,2.83-2.83h18.76A2.83,2.83,0,0,1,333.6,328.35Z" fill="none" stroke="#003a50" stroke-miterlimit="10"/><path d="M321.39,336.13a1.91,1.91,0,1,1-1.91,1.91A1.91,1.91,0,0,1,321.39,336.13Z" fill="none" stroke="#003a50" stroke-miterlimit="10"/><path d="M488.71,327.41V346.8a2.83,2.83,0,0,1-2.83,2.83H467.13a2.83,2.83,0,0,1-2.83-2.83V327.41a2.83,2.83,0,0,1,2.83-2.83h18.75A2.83,2.83,0,0,1,488.71,327.41Z" fill="none" stroke="#003a50" stroke-miterlimit="10"/><path d="M476.51,335.19a1.92,1.92,0,1,1-1.92,1.91A1.92,1.92,0,0,1,476.51,335.19Z" fill="none" stroke="#003a50" stroke-miterlimit="10"/><rect x="327.71" y="-34.52" width="34.03" height="34.03" fill="none" stroke="#003a50" stroke-miterlimit="10"/></g><rect x="404.94" y="40.25" width="81.76" height="27.04" fill="none" stroke="#003a50" stroke-miterlimit="10"/><g clip-path="url(#clip-path)"><path d="M472.74,63.47a.8.8,0,0,1-1.51.35,22.88,22.88,0,0,1,0-20.08.8.8,0,0,1,1.43.7,21.27,21.27,0,0,0,0,18.68A.72.72,0,0,1,472.74,63.47Z" fill="none" stroke="#003a50" stroke-miterlimit="10"/><path d="M468.32,63.47a.8.8,0,0,1-1.51.35,22.8,22.8,0,0,1,0-20.08.8.8,0,0,1,1.43.7,21.27,21.27,0,0,0,0,18.68A.72.72,0,0,1,468.32,63.47Z" fill="none" stroke="#003a50" stroke-miterlimit="10"/><path d="M463.89,63.47a.8.8,0,0,1-1.51.35,22.88,22.88,0,0,1,0-20.08.8.8,0,0,1,1.43.7,21.27,21.27,0,0,0,0,18.68A.72.72,0,0,1,463.89,63.47Z" fill="none" stroke="#003a50" stroke-miterlimit="10"/><path d="M459.47,63.47a.8.8,0,0,1-1.51.35,22.8,22.8,0,0,1,0-20.08.8.8,0,0,1,1.43.7,21.27,21.27,0,0,0,0,18.68A.72.72,0,0,1,459.47,63.47Z" fill="none" stroke="#003a50" stroke-miterlimit="10"/><path d="M455,63.47a.8.8,0,0,1-1.51.35,22.88,22.88,0,0,1,0-20.08.8.8,0,0,1,1.43.7,21.27,21.27,0,0,0,0,18.68A.72.72,0,0,1,455,63.47Z" fill="none" stroke="#003a50" stroke-miterlimit="10"/><path d="M450.62,63.47a.8.8,0,0,1-1.51.35,22.8,22.8,0,0,1,0-20.08.8.8,0,0,1,1.43.7,21.27,21.27,0,0,0,0,18.68A.72.72,0,0,1,450.62,63.47Z" fill="none" stroke="#003a50" stroke-miterlimit="10"/><path d="M477.17,63.47a.8.8,0,0,1-1.51.35,22.8,22.8,0,0,1,0-20.08.8.8,0,0,1,1.43.7,21.27,21.27,0,0,0,0,18.68A.72.72,0,0,1,477.17,63.47Z" fill="none" stroke="#003a50" stroke-miterlimit="10"/><path d="M481.59,63.47a.8.8,0,0,1-1.51.35,22.88,22.88,0,0,1,0-20.08.8.8,0,0,1,1.43.7,21.27,21.27,0,0,0,0,18.68A.72.72,0,0,1,481.59,63.47Z" fill="none" stroke="#003a50" stroke-miterlimit="10"/></g><line x1="486.35" y1="53.78" x2="404.94" y2="53.78" fill="none" stroke="#003a50" stroke-miterlimit="10"/><rect x="299.9" y="353.82" width="90.74" height="34.03" fill="none" stroke="#003a50" stroke-miterlimit="10"/><g clip-path="url(#clip-path)"><path d="M342.49,383a1,1,0,0,1-1.9.45,28.8,28.8,0,0,1,0-25.27,1,1,0,1,1,1.8.88,26.74,26.74,0,0,0,0,23.5A1,1,0,0,1,342.49,383Z" fill="none" stroke="#003a50" stroke-miterlimit="10"/><path d="M336.92,383a1,1,0,0,1-1.9.45,28.8,28.8,0,0,1,0-25.27,1,1,0,0,1,1.8.88,26.74,26.74,0,0,0,0,23.5A1,1,0,0,1,336.92,383Z" fill="none" stroke="#003a50" stroke-miterlimit="10"/><path d="M331.36,383a1,1,0,0,1-.56.9,1,1,0,0,1-1.35-.45,28.8,28.8,0,0,1,0-25.27,1,1,0,0,1,1.34-.46,1,1,0,0,1,.46,1.34,26.83,26.83,0,0,0,0,23.5A1,1,0,0,1,331.36,383Z" fill="none" stroke="#003a50" stroke-miterlimit="10"/><path d="M325.79,383a1,1,0,0,1-.56.9,1,1,0,0,1-1.35-.45,28.8,28.8,0,0,1,0-25.27,1,1,0,0,1,1.34-.46,1,1,0,0,1,.46,1.34,26.83,26.83,0,0,0,0,23.5A.9.9,0,0,1,325.79,383Z" fill="none" stroke="#003a50" stroke-miterlimit="10"/><path d="M320.22,383a1,1,0,0,1-1.9.45,28.8,28.8,0,0,1,0-25.27,1,1,0,1,1,1.8.88,26.74,26.74,0,0,0,0,23.5A1,1,0,0,1,320.22,383Z" fill="none" stroke="#003a50" stroke-miterlimit="10"/><path d="M314.65,383a1,1,0,0,1-.56.9,1,1,0,0,1-1.34-.45,28.8,28.8,0,0,1,0-25.27,1,1,0,1,1,1.8.88,26.74,26.74,0,0,0,0,23.5A1,1,0,0,1,314.65,383Z" fill="none" stroke="#003a50" stroke-miterlimit="10"/><path d="M348.06,383a1,1,0,0,1-.56.9,1,1,0,0,1-1.35-.45,28.8,28.8,0,0,1,0-25.27,1,1,0,0,1,1.34-.46,1,1,0,0,1,.46,1.34,26.83,26.83,0,0,0,0,23.5A.9.9,0,0,1,348.06,383Z" fill="none" stroke="#003a50" stroke-miterlimit="10"/><path d="M353.62,383a1,1,0,0,1-.56.9,1,1,0,0,1-1.34-.45,28.8,28.8,0,0,1,0-25.27,1,1,0,0,1,1.8.88,26.74,26.74,0,0,0,0,23.5A1,1,0,0,1,353.62,383Z" fill="none" stroke="#003a50" stroke-miterlimit="10"/></g><line x1="390.64" y1="370.83" x2="299.9" y2="370.83" fill="none" stroke="#003a50" stroke-miterlimit="10"/><rect x="53.51" y="329.41" width="88.68" height="34.03" fill="none" stroke="#003a50" stroke-miterlimit="10"/><g clip-path="url(#clip-path)"><path d="M96.1,358.61a1,1,0,0,1-.56.9,1,1,0,0,1-1.35-.45,28.8,28.8,0,0,1,0-25.27,1,1,0,0,1,1.34-.46,1,1,0,0,1,.46,1.34,26.83,26.83,0,0,0,0,23.5A1,1,0,0,1,96.1,358.61Z" fill="none" stroke="#003a50" stroke-miterlimit="10"/><path d="M90.53,358.61a1,1,0,0,1-.56.9,1,1,0,0,1-1.35-.45,28.8,28.8,0,0,1,0-25.27,1,1,0,0,1,1.34-.46,1,1,0,0,1,.46,1.34,26.83,26.83,0,0,0,0,23.5A.9.9,0,0,1,90.53,358.61Z" fill="none" stroke="#003a50" stroke-miterlimit="10"/><path d="M85,358.61a1,1,0,0,1-1.9.45,28.8,28.8,0,0,1,0-25.27,1,1,0,1,1,1.8.88,26.74,26.74,0,0,0,0,23.5A1,1,0,0,1,85,358.61Z" fill="none" stroke="#003a50" stroke-miterlimit="10"/><path d="M79.39,358.61a1,1,0,0,1-.56.9,1,1,0,0,1-1.34-.45,28.8,28.8,0,0,1,0-25.27,1,1,0,1,1,1.8.88,26.74,26.74,0,0,0,0,23.5A1,1,0,0,1,79.39,358.61Z" fill="none" stroke="#003a50" stroke-miterlimit="10"/><path d="M73.83,358.61a1,1,0,0,1-.56.9,1,1,0,0,1-1.35-.45,28.8,28.8,0,0,1,0-25.27,1,1,0,0,1,1.34-.46,1,1,0,0,1,.46,1.34,26.83,26.83,0,0,0,0,23.5A1,1,0,0,1,73.83,358.61Z" fill="none" stroke="#003a50" stroke-miterlimit="10"/><path d="M68.26,358.61a1,1,0,0,1-.56.9,1,1,0,0,1-1.35-.45,28.8,28.8,0,0,1,0-25.27,1,1,0,0,1,1.34-.46,1,1,0,0,1,.46,1.34,26.83,26.83,0,0,0,0,23.5A.9.9,0,0,1,68.26,358.61Z" fill="none" stroke="#003a50" stroke-miterlimit="10"/><path d="M101.66,358.61a1,1,0,0,1-1.9.45,28.8,28.8,0,0,1,0-25.27,1,1,0,1,1,1.8.88,26.74,26.74,0,0,0,0,23.5A1,1,0,0,1,101.66,358.61Z" fill="none" stroke="#003a50" stroke-miterlimit="10"/><path d="M107.23,358.61a1,1,0,0,1-1.9.45,28.8,28.8,0,0,1,0-25.27,1,1,0,1,1,1.8.88,26.74,26.74,0,0,0,0,23.5A1,1,0,0,1,107.23,358.61Z" fill="none" stroke="#003a50" stroke-miterlimit="10"/></g><line x1="142.19" y1="346.42" x2="53.51" y2="346.42" fill="none" stroke="#003a50" stroke-miterlimit="10"/><rect x="108.3" y="363.57" width="34.03" height="41.82" fill="none" stroke="#003a50" stroke-miterlimit="10"/><g clip-path="url(#clip-path)"><path d="M137.51,381.61a1,1,0,0,1,.44,1.91,28.8,28.8,0,0,1-25.27,0,1,1,0,0,1-.45-1.34,1,1,0,0,1,1.34-.46,26.83,26.83,0,0,0,23.5,0A1,1,0,0,1,137.51,381.61Z" fill="none" stroke="#003a50" stroke-miterlimit="10"/><path d="M137.51,387.18a1,1,0,0,1,.44,1.91,28.8,28.8,0,0,1-25.27,0,1,1,0,0,1-.45-1.34,1,1,0,0,1,1.34-.46,26.83,26.83,0,0,0,23.5,0A.87.87,0,0,1,137.51,387.18Z" fill="none" stroke="#003a50" stroke-miterlimit="10"/><path d="M137.51,392.75a1,1,0,0,1,.9.56,1,1,0,0,1-.46,1.34,28.8,28.8,0,0,1-25.27,0,1,1,0,0,1,.89-1.8,26.74,26.74,0,0,0,23.5,0A1,1,0,0,1,137.51,392.75Z" fill="none" stroke="#003a50" stroke-miterlimit="10"/><path d="M137.51,398.32a1,1,0,0,1,.44,1.9,28.8,28.8,0,0,1-25.27,0,1,1,0,0,1,.89-1.8,26.74,26.74,0,0,0,23.5,0A1,1,0,0,1,137.51,398.32Z" fill="none" stroke="#003a50" stroke-miterlimit="10"/></g><line x1="125.32" y1="363.44" x2="125.32" y2="405.4" fill="none" stroke="#003a50" stroke-miterlimit="10"/><g clip-path="url(#clip-path)"><rect x="361.74" y="-34.52" width="153.13" height="34.03" fill="none" stroke="#003a50" stroke-miterlimit="10"/><path d="M262.22,521.19a14.78,14.78,0,0,0,15.93-23.39,1.13,1.13,0,0,0-1.6-.18,1.14,1.14,0,0,0-.17,1.61,12.48,12.48,0,0,1-14.16,19.51Z" fill="none" stroke="#003a50" stroke-miterlimit="10"/><rect x="228.19" y="466.92" width="34.03" height="84.06" rx="3.31" fill="none" stroke="#003a50" stroke-miterlimit="10"/><path d="M231.9,548.43a1.4,1.4,0,0,0,1.4-1.4V470.86a1.4,1.4,0,0,0-2.79,0V547a1.4,1.4,0,0,0,1.39,1.4" fill="none" stroke="#003a50" stroke-miterlimit="10"/><path d="M246.49,480.59a5.51,5.51,0,1,1,0-7.79A5.5,5.5,0,0,1,246.49,480.59Z" fill="none" stroke="#003a50" stroke-miterlimit="10"/><path d="M246.86,480.18c-1-.1-2.05.29-3-.7-1.46-1.46.08-3-1.38-4.47s-3,.09-4.48-1.38" fill="none" stroke="#003a50" stroke-miterlimit="10"/><path d="M262.22,516.48a10.64,10.64,0,1,0,0-19.59Z" fill="none" stroke="#003a50" stroke-miterlimit="10"/></g><rect x="199.57" y="549.59" width="22.68" height="22.68" fill="none" stroke="#003a50" stroke-miterlimit="10"/><g clip-path="url(#clip-path)"><path d="M217.42,567.43a9.2,9.2,0,1,1,0-13A9.2,9.2,0,0,1,217.42,567.43Z" fill="none" stroke="#003a50" stroke-miterlimit="10"/><path d="M218,566.74c-1.69-.17-3.41.48-5.06-1.17-2.44-2.44.14-5-2.3-7.46s-5,.14-7.46-2.3" fill="none" stroke="#003a50" stroke-miterlimit="10"/></g><rect x="199.57" y="408.39" width="22.68" height="22.69" fill="none" stroke="#003a50" stroke-miterlimit="10"/><g clip-path="url(#clip-path)"><path d="M217.42,426.24a9.2,9.2,0,1,1,0-13A9.2,9.2,0,0,1,217.42,426.24Z" fill="none" stroke="#003a50" stroke-miterlimit="10"/><path d="M218,425.55c-1.69-.17-3.41.48-5.06-1.17-2.44-2.43.14-5-2.3-7.46s-5,.14-7.46-2.3" fill="none" stroke="#003a50" stroke-miterlimit="10"/></g><rect x="108.83" y="438.55" width="113.43" height="102.08" fill="none" stroke="#003a50" stroke-miterlimit="10"/><g clip-path="url(#clip-path)"><path d="M118.57,530.63V448.55a2.08,2.08,0,0,1,2.08-2.08h67.67v86.25H120.65A2.08,2.08,0,0,1,118.57,530.63Z" fill="none" stroke="#003a50" stroke-miterlimit="10"/><rect x="191.93" y="446.22" width="22.88" height="42.51" rx="1.98" fill="none" stroke="#003a50" stroke-miterlimit="10"/><rect x="191.93" y="490.46" width="22.88" height="42.52" rx="1.98" fill="none" stroke="#003a50" stroke-miterlimit="10"/></g><line x1="174.46" y1="532.98" x2="174.46" y2="446.22" fill="none" stroke="#003a50" stroke-miterlimit="10"/><g clip-path="url(#clip-path)"><rect x="404.99" y="415.5" width="22.68" height="22.69" fill="none" stroke="#003a50" stroke-miterlimit="10"/><path d="M422.83,433.35a9.2,9.2,0,1,1,0-13A9.2,9.2,0,0,1,422.83,433.35Z" fill="none" stroke="#003a50" stroke-miterlimit="10"/><path d="M423.46,432.66c-1.7-.17-3.42.48-5.07-1.17-2.44-2.44.15-5-2.3-7.46s-5,.14-7.46-2.3" fill="none" stroke="#003a50" stroke-miterlimit="10"/><rect x="404.99" y="556.69" width="22.68" height="22.68" fill="none" stroke="#003a50" stroke-miterlimit="10"/><path d="M422.83,574.54a9.2,9.2,0,1,1,0-13A9.21,9.21,0,0,1,422.83,574.54Z" fill="none" stroke="#003a50" stroke-miterlimit="10"/><path d="M423.46,573.84c-1.7-.16-3.41.48-5.07-1.17-2.44-2.43.14-5-2.3-7.45s-5,.13-7.46-2.31" fill="none" stroke="#003a50" stroke-miterlimit="10"/><rect x="404.99" y="445.66" width="113.42" height="102.08" fill="none" stroke="#003a50" stroke-miterlimit="10"/><path d="M508.67,455.66v82.08a2.08,2.08,0,0,1-2.08,2.09H438.92V453.58h67.67A2.08,2.08,0,0,1,508.67,455.66Z" fill="none" stroke="#003a50" stroke-miterlimit="10"/><rect x="412.42" y="497.57" width="22.88" height="42.52" rx="1.98" fill="none" stroke="#003a50" stroke-miterlimit="10"/><rect x="412.42" y="453.33" width="22.88" height="42.51" rx="1.98" fill="none" stroke="#003a50" stroke-miterlimit="10"/></g><rect x="362.02" y="180.55" width="34.03" height="34.03" fill="none" stroke="#003a50" stroke-miterlimit="10"/><line x1="369.05" y1="197.57" x2="389.02" y2="197.57" fill="none" stroke="#003a50" stroke-miterlimit="10"/><line x1="379.04" y1="187.58" x2="379.04" y2="207.55" fill="none" stroke="#003a50" stroke-miterlimit="10"/><line x1="371.98" y1="190.51" x2="386.09" y2="204.62" fill="none" stroke="#003a50" stroke-miterlimit="10"/><line x1="386.1" y1="190.51" x2="371.98" y2="204.62" fill="none" stroke="#003a50" stroke-miterlimit="10"/><g clip-path="url(#clip-path)"><path d="M389.06,76.53V53.17a3.35,3.35,0,0,0-3.36-3.36h-15a3.35,3.35,0,0,0-3.35,3.36V76.53a3.36,3.36,0,0,0,3.35,3.36h15A3.36,3.36,0,0,0,389.06,76.53Z" fill="none" stroke="#003a50" stroke-miterlimit="10"/><circle cx="382.02" cy="64.85" r="2.46" transform="translate(175.91 392.97) rotate(-67.5)" fill="none" stroke="#003a50" stroke-miterlimit="10"/></g><line x1="381.26" y1="64.85" x2="394.88" y2="64.85" fill="none" stroke="#003a50" stroke-miterlimit="10"/><line x1="394.88" y1="58.04" x2="394.88" y2="71.66" fill="none" stroke="#003a50" stroke-miterlimit="10"/><g clip-path="url(#clip-path)"><path d="M112.34,60.26v-41H66.56V62.48h43.57A2.21,2.21,0,0,0,112.34,60.26Z" fill="none" stroke="#003a50" stroke-miterlimit="10"/><path d="M158.23,60.49V19.22H112.44V60.49a2,2,0,0,0,2,2h41.82A2,2,0,0,0,158.23,60.49Z" fill="none" stroke="#003a50" stroke-miterlimit="10"/><path d="M66.56,62.48a3.11,3.11,0,0,1-3.33,2.83H59a3.11,3.11,0,0,1-3.32-2.83V14.27H169.11V62.05a3.12,3.12,0,0,1-3.33,2.83h-4.23a3.11,3.11,0,0,1-3.32-2.83V19.21H66.56Z" fill="none" stroke="#003a50" stroke-miterlimit="10"/></g><rect x="66.56" y="19.21" width="91.67" height="9.26" fill="none" stroke="#003a50" stroke-miterlimit="10"/><rect x="306.42" y="180.47" width="55.6" height="34.36" fill="none" stroke="#003a50" stroke-miterlimit="10"/><g clip-path="url(#clip-path)"><path d="M281.8,384.36V388a45.37,45.37,0,0,1-45.37,45.37v-49" fill="none" stroke="#003a50" stroke-miterlimit="10" stroke-width="1.6"/><path d="M225.3,335.38h-3.42a43,43,0,0,0-43,43H225.3" fill="none" stroke="#003a50" stroke-miterlimit="10" stroke-width="1.6"/><path d="M189.64,324.64v3.07a38.6,38.6,0,0,1-38.59,38.6V324.64" fill="none" stroke="#003a50" stroke-miterlimit="10" stroke-width="1.6"/><path d="M296.87,281.19H293.8a38.73,38.73,0,0,0-38.74,38.72h41.81" fill="none" stroke="#003a50" stroke-miterlimit="10" stroke-width="1.6"/><path d="M570.56,444.83H567.1a43.5,43.5,0,0,1-43.5-43.49h47" fill="none" stroke="#003a50" stroke-miterlimit="10" stroke-width="1.6"/><path d="M513,279.48h3.13a39.36,39.36,0,0,1,39.36,39.35H513" fill="none" stroke="#003a50" stroke-miterlimit="10" stroke-width="1.6"/><path d="M579.89,221.3v-4.06A51.15,51.15,0,0,1,631,166.09V221.3" fill="none" stroke="#003a50" stroke-miterlimit="10" stroke-width="1.6"/><path d="M526.28,128.05h4.06a51.15,51.15,0,0,1,51.15,51.14H526.28" fill="none" stroke="#003a50" stroke-miterlimit="10" stroke-width="1.6"/><line x1="467.68" y1="120.97" x2="413.17" y2="120.97" fill="none" stroke="#003a50" stroke-miterlimit="10" stroke-width="1.6"/><rect x="388.64" y="214.86" width="191.9" height="16.32" fill="#003a50"/><rect x="388.63" y="223.02" width="16.32" height="372.62" fill="#003a50"/><rect x="515.18" y="178.32" width="16.32" height="40.52" fill="#003a50"/><rect x="48.76" y="202.2" width="74.59" height="19.01" fill="#003a50"/><rect x="515.18" y="104.98" width="16.32" height="23.99" fill="#003a50"/><rect x="515.18" y="-40.07" width="16.32" height="50.5" fill="#003a50"/><rect x="486.92" y="104.98" width="40.58" height="11.86" fill="#003a50"/><rect x="486.92" y="7.94" width="13.08" height="108.57" fill="#003a50"/><rect x="49.92" y="-0.21" width="481.51" height="13.79" fill="#003a50"/><rect x="27.75" y="-42.43" width="26.18" height="90.85" fill="#003a50"/><rect x="5.58" y="22.5" width="44.35" height="25.92" fill="#003a50"/><rect x="27.75" y="137.47" width="26.18" height="90.85" fill="#003a50"/><rect x="5.58" y="202.41" width="44.35" height="25.92" fill="#003a50"/><rect x="27.75" y="320.08" width="26.18" height="90.85" fill="#003a50"/><rect x="5.58" y="385.02" width="44.35" height="25.92" fill="#003a50"/><rect x="387.43" y="582.71" width="27.04" height="46.77" fill="#003a50"/><rect x="391.44" y="582.71" width="27.04" height="23.38" fill="#003a50"/><rect x="515.26" y="576.55" width="82.86" height="27.14" fill="#003a50"/><rect x="213.63" y="576.55" width="82.86" height="27.14" fill="#003a50"/><rect x="507.84" y="582.71" width="95.37" height="34.26" fill="#003a50"/><rect x="576.04" y="586.72" width="27.18" height="41.93" fill="#003a50"/><rect x="203.38" y="582.71" width="95.37" height="34.26" fill="#003a50"/><rect x="203.38" y="586.72" width="27.18" height="41.93" fill="#003a50"/><rect x="5.57" y="603.13" width="25.92" height="25.92" fill="#003a50"/><rect x="118.87" y="214.83" width="109.04" height="6.38" fill="#003a50"/><rect x="221.53" y="219.52" width="6.38" height="116.64" fill="#003a50"/><rect x="221.53" y="377.54" width="6.38" height="212.58" fill="#003a50"/><rect x="199.19" y="219.52" width="6.38" height="22.99" fill="#003a50"/><rect x="201.05" y="236.13" width="22.99" height="6.38" fill="#003a50"/><rect x="189.06" y="323.65" width="33.8" height="6.38" fill="#003a50"/><rect x="104.71" y="405.59" width="41.22" height="3.69" fill="#003a50"/><rect x="142.4" y="328.07" width="3.69" height="80.67" fill="#003a50"/><rect x="48.06" y="405.59" width="19.4" height="3.69" fill="#003a50"/><rect x="48.76" y="323.65" width="103.29" height="6.38" fill="#003a50"/><rect x="281.01" y="381.61" width="18.01" height="6.38" fill="#003a50"/><rect x="296.87" y="348.77" width="94.51" height="6.38" fill="#003a50"/><rect x="224.72" y="381.61" width="12.54" height="6.38" fill="#003a50"/><rect x="293.25" y="214.83" width="6.38" height="67.19" fill="#003a50"/><rect x="293.25" y="319.08" width="6.38" height="68.91" fill="#003a50"/><rect x="398.22" y="110.47" width="42.21" height="6.38" fill="#003a50"/><rect x="398.34" y="10.09" width="6.38" height="106.42" fill="#003a50"/><rect x="401.53" y="33.65" width="91.14" height="6.38" fill="#003a50"/><rect x="293.24" y="214.83" width="99.72" height="6.38" fill="#003a50"/><rect x="293.25" y="250.47" width="99.72" height="6.38" fill="#003a50"/><rect x="337.43" y="214.83" width="6.38" height="38.26" fill="#003a50"/><rect x="477.49" y="110.47" width="12.54" height="6.38" fill="#003a50"/></g><rect x="508.1" y="230" width="6.38" height="1.16" fill="#003a50"/><rect x="403.47" y="249.91" width="1.4" height="6.38" fill="#003a50"/><rect x="471.94" y="227.28" width="6.38" height="3.88" fill="#003a50"/><rect x="403.47" y="348.07" width="1.4" height="6.38" fill="#003a50"/><rect x="525.52" y="11.51" width="5.99" height="101.54" fill="#003a50"/><line x1="225.49" y1="215.37" x2="302.25" y2="215.37" fill="none" stroke="#003a50" stroke-miterlimit="10" stroke-dasharray="5.67 5.67"/><line x1="398.28" y1="180.83" x2="398.28" y2="109.59" fill="none" stroke="#003a50" stroke-miterlimit="10" stroke-dasharray="5.67 5.67"/><g clip-path="url(#clip-path)"><path d="M469.72,304.31H463.9v-1.84h8.86v1.84L468.24,307V307h1.27a3.83,3.83,0,0,1,2.79,1,3.49,3.49,0,0,1,1.06,2.66,3.33,3.33,0,0,1-1.33,2.83,7,7,0,0,1-7.24,0,3.37,3.37,0,0,1-1.33-2.86v-.32h2.11v.32c0,1.36.95,2,2.84,2s2.84-.66,2.84-2-.95-2-2.84-2h-3.26v-1.67l4.57-2.68Z" fill="#003a50"/><path d="M475.46,314.24a1,1,0,0,1-.32-.8,1,1,0,0,1,.32-.81,1.41,1.41,0,0,1,1.74,0,1.07,1.07,0,0,1,.32.81,1,1,0,0,1-.32.8,1.41,1.41,0,0,1-1.74,0Z" fill="#003a50"/><path d="M485.57,304.31h-5.82v-1.84h8.86v1.84L484.08,307V307h1.28a3.87,3.87,0,0,1,2.79,1,3.52,3.52,0,0,1,1.06,2.66,3.35,3.35,0,0,1-1.33,2.83,7,7,0,0,1-7.25,0,3.39,3.39,0,0,1-1.32-2.86v-.32h2.11v.32c0,1.36.94,2,2.83,2s2.85-.66,2.85-2-1-2-2.85-2H481v-1.67l4.58-2.68Z" fill="#003a50"/><path d="M546.08,280.83h-9.93v-1.56a2.8,2.8,0,0,1,.58-1.74,4.12,4.12,0,0,1,1.45-1.2c.5-.25,1.12-.54,1.87-.86s1.32-.56,1.87-.77a4.14,4.14,0,0,0,1.45-.92,1.78,1.78,0,0,0,.57-1.3c0-1.26-.89-1.89-2.66-1.89s-2.68.72-2.68,2.16v.41h-2.11v-.41a3.62,3.62,0,0,1,1.26-3,5.39,5.39,0,0,1,3.52-1,5.65,5.65,0,0,1,3.51,1,3.29,3.29,0,0,1,1.27,2.75,3.17,3.17,0,0,1-.55,1.84,4.39,4.39,0,0,1-1.41,1.3q-.9.51-1.83.93t-1.83.75a5.38,5.38,0,0,0-1.4.74,1.25,1.25,0,0,0-.57,1h7.62Z" fill="#003a50"/><path d="M548.19,280.7a1,1,0,0,1-.33-.8,1,1,0,0,1,.33-.81,1.4,1.4,0,0,1,1.73,0,1,1,0,0,1,.33.81,1,1,0,0,1-.33.8,1.4,1.4,0,0,1-1.73,0Z" fill="#003a50"/><path d="M562,280.83H552v-1.56a2.74,2.74,0,0,1,.58-1.74,4,4,0,0,1,1.45-1.2c.5-.25,1.12-.54,1.87-.86s1.32-.56,1.87-.77a4.23,4.23,0,0,0,1.45-.92,1.78,1.78,0,0,0,.57-1.3c0-1.26-.89-1.89-2.66-1.89s-2.68.72-2.68,2.16v.41h-2.11v-.41a3.62,3.62,0,0,1,1.26-3,5.39,5.39,0,0,1,3.52-1,5.65,5.65,0,0,1,3.51,1,3.29,3.29,0,0,1,1.27,2.75,3.1,3.1,0,0,1-.56,1.84,4.26,4.26,0,0,1-1.4,1.3c-.6.34-1.21.65-1.84.93s-1.23.53-1.82.75a5.63,5.63,0,0,0-1.41.74,1.26,1.26,0,0,0-.56,1H562Z" fill="#003a50"/><path d="M111.61,158.14h-9.94v-1.56a2.77,2.77,0,0,1,.58-1.75,4,4,0,0,1,1.44-1.2c.5-.25,1.13-.54,1.87-.86s1.33-.56,1.88-.77a4.29,4.29,0,0,0,1.45-.92,1.8,1.8,0,0,0,.57-1.3q0-1.89-2.67-1.89t-2.67,2.16v.41H102v-.41a3.65,3.65,0,0,1,1.26-3,5.45,5.45,0,0,1,3.52-1,5.65,5.65,0,0,1,3.51,1,3.27,3.27,0,0,1,1.27,2.75,3.14,3.14,0,0,1-.55,1.83,4.31,4.31,0,0,1-1.41,1.31c-.6.34-1.21.65-1.84.93s-1.23.53-1.82.75a5.18,5.18,0,0,0-1.41.75,1.2,1.2,0,0,0-.56,1h7.63Z" fill="#003a50"/><path d="M123.59,158.14h-10v-1.56a2.78,2.78,0,0,1,.59-1.75,4,4,0,0,1,1.44-1.2c.5-.25,1.12-.54,1.87-.86s1.33-.56,1.88-.77a4.39,4.39,0,0,0,1.45-.92,1.8,1.8,0,0,0,.57-1.3q0-1.89-2.67-1.89t-2.67,2.16v.41H114v-.41a3.66,3.66,0,0,1,1.27-3,5.42,5.42,0,0,1,3.51-1,5.66,5.66,0,0,1,3.52,1,3.27,3.27,0,0,1,1.27,2.75,3.14,3.14,0,0,1-.55,1.83,4.31,4.31,0,0,1-1.41,1.31c-.6.34-1.21.65-1.84.93s-1.23.53-1.83.75a5.26,5.26,0,0,0-1.4.75,1.22,1.22,0,0,0-.57,1h7.64Z" fill="#003a50"/><path d="M125.69,158a1,1,0,0,1-.33-.81,1,1,0,0,1,.33-.81,1.23,1.23,0,0,1,.87-.3,1.24,1.24,0,0,1,.87.3,1.07,1.07,0,0,1,.32.81,1,1,0,0,1-.32.81,1.24,1.24,0,0,1-.87.3A1.23,1.23,0,0,1,125.69,158Z" fill="#003a50"/><path d="M138.28,157.37a6.35,6.35,0,0,1-3.68.94,6.5,6.5,0,0,1-3.69-.94,2.94,2.94,0,0,1-1.37-2.56,2.7,2.7,0,0,1,.25-1.17,2.51,2.51,0,0,1,.66-.85,3.94,3.94,0,0,1,1.4-.78l.25-.06v-.1a2.7,2.7,0,0,1-.76-.29,2.61,2.61,0,0,1-.66-.44,2,2,0,0,1-.54-.75,2.42,2.42,0,0,1-.23-1,2.8,2.8,0,0,1,1.26-2.39,7,7,0,0,1,6.85,0,2.84,2.84,0,0,1,1.25,2.39,2.43,2.43,0,0,1-.22,1,2,2,0,0,1-.55.74,3.77,3.77,0,0,1-1.2.69l-.22,0v.1l.28.06a5.42,5.42,0,0,1,.62.27,3.76,3.76,0,0,1,.78.51,2.69,2.69,0,0,1,.61.82,2.65,2.65,0,0,1,.27,1.2A2.94,2.94,0,0,1,138.28,157.37ZM132.49,156a3.84,3.84,0,0,0,2.1.48,3.94,3.94,0,0,0,2.1-.47,1.51,1.51,0,0,0,.74-1.35,1.49,1.49,0,0,0-.74-1.35,4.93,4.93,0,0,0-4.2,0,1.59,1.59,0,0,0,0,2.69Zm-.37-6.53a1.38,1.38,0,0,0,.65,1.2,3.22,3.22,0,0,0,1.82.43,3.26,3.26,0,0,0,1.83-.43,1.39,1.39,0,0,0,.64-1.2,1.36,1.36,0,0,0-.66-1.2,4,4,0,0,0-3.62,0A1.36,1.36,0,0,0,132.12,149.49Z" fill="#003a50"/><path d="M426.72,156.07H420.9v-1.85h8.87v1.85l-4.53,2.65v.06h1.28a3.87,3.87,0,0,1,2.79,1,3.52,3.52,0,0,1,1.05,2.67,3.32,3.32,0,0,1-1.33,2.82,6.93,6.93,0,0,1-7.24,0,3.36,3.36,0,0,1-1.33-2.86v-.32h2.11v.32c0,1.37.94,2,2.84,2s2.84-.67,2.84-2-.94-2-2.84-2h-3.27v-1.67l4.58-2.69Z" fill="#003a50"/><path d="M432.47,166a1,1,0,0,1-.33-.81,1,1,0,0,1,.33-.81,1.21,1.21,0,0,1,.87-.29,1.24,1.24,0,0,1,.87.29,1.07,1.07,0,0,1,.32.81,1,1,0,0,1-.32.81,1.24,1.24,0,0,1-.87.3A1.21,1.21,0,0,1,432.47,166Z" fill="#003a50"/><path d="M445.06,165.38a7.73,7.73,0,0,1-7.37,0,2.94,2.94,0,0,1-1.37-2.56,2.7,2.7,0,0,1,.25-1.17,2.39,2.39,0,0,1,.66-.85,3.94,3.94,0,0,1,1.4-.78l.25-.06v-.09a3.13,3.13,0,0,1-.76-.3,2.37,2.37,0,0,1-.66-.44,2,2,0,0,1-.54-.75,2.42,2.42,0,0,1-.23-1A2.82,2.82,0,0,1,438,155a7,7,0,0,1,6.85,0,2.84,2.84,0,0,1,1.25,2.39,2.43,2.43,0,0,1-.22,1,2,2,0,0,1-.55.74,3.59,3.59,0,0,1-1.2.69l-.22.05V160l.28.06a5.42,5.42,0,0,1,.62.27,4.21,4.21,0,0,1,.78.51,2.71,2.71,0,0,1,.88,2A3,3,0,0,1,445.06,165.38ZM439.27,164a3.82,3.82,0,0,0,2.1.48,3.94,3.94,0,0,0,2.1-.47,1.51,1.51,0,0,0,.74-1.35,1.49,1.49,0,0,0-.74-1.35,4.93,4.93,0,0,0-4.2,0,1.59,1.59,0,0,0,0,2.69Zm-.37-6.52a1.37,1.37,0,0,0,.65,1.19,3.22,3.22,0,0,0,1.82.43,3.26,3.26,0,0,0,1.83-.43,1.43,1.43,0,0,0,0-2.4,4,4,0,0,0-3.62,0A1.38,1.38,0,0,0,438.9,157.5Z" fill="#003a50"/><path d="M460.72,91.17h-9.94V89.6a2.74,2.74,0,0,1,.58-1.74,4,4,0,0,1,1.44-1.2c.5-.25,1.13-.54,1.87-.86l1.88-.78a4.12,4.12,0,0,0,1.45-.91,1.81,1.81,0,0,0,.57-1.31c0-1.25-.89-1.88-2.66-1.88s-2.68.72-2.68,2.16v.41h-2.11v-.41a3.62,3.62,0,0,1,1.26-3,5.39,5.39,0,0,1,3.52-1,5.63,5.63,0,0,1,3.51,1,3.29,3.29,0,0,1,1.27,2.75,3.17,3.17,0,0,1-.55,1.84A4.42,4.42,0,0,1,458.72,86q-.9.51-1.83.93t-1.83.75a5.46,5.46,0,0,0-1.41.74,1.26,1.26,0,0,0-.56,1h7.63Z" fill="#003a50"/><path d="M462.82,91a1,1,0,0,1-.32-.8,1.07,1.07,0,0,1,.32-.81,1.41,1.41,0,0,1,1.74,0,1.07,1.07,0,0,1,.32.81,1,1,0,0,1-.32.8,1.41,1.41,0,0,1-1.74,0Z" fill="#003a50"/><path d="M468.23,89.63a7.36,7.36,0,0,1,0-8.85,5.72,5.72,0,0,1,8.14,0,7.36,7.36,0,0,1,0,8.85,5.72,5.72,0,0,1-8.14,0Zm6.54-1.39a5,5,0,0,0,.87-3,5.05,5.05,0,0,0-.87-3,3.15,3.15,0,0,0-4.92,0,5.64,5.64,0,0,0,0,6.08,2.88,2.88,0,0,0,2.46,1.19A2.93,2.93,0,0,0,474.77,88.24Z" fill="#003a50"/><path d="M250.3,343.52h-5.82v-1.85h8.87v1.85l-4.53,2.65v.07h1.28a3.86,3.86,0,0,1,2.79,1,3.53,3.53,0,0,1,1.06,2.67,3.35,3.35,0,0,1-1.33,2.82,5.88,5.88,0,0,1-3.63,1,5.79,5.79,0,0,1-3.62-1,3.36,3.36,0,0,1-1.33-2.86v-.32h2.11v.32c0,1.37.95,2.05,2.84,2s2.84-.67,2.84-2-.94-2-2.84-2h-3.27v-1.67l4.58-2.69Z" fill="#003a50"/><path d="M256.05,353.46a1.15,1.15,0,0,1,0-1.61,1.23,1.23,0,0,1,.87-.3,1.24,1.24,0,0,1,.87.3,1.17,1.17,0,0,1,0,1.61,1.24,1.24,0,0,1-.87.3A1.23,1.23,0,0,1,256.05,353.46Z" fill="#003a50"/><path d="M263.16,353.59h-2.35l5.42-10H259.3v-1.88h9.29v1.88Z" fill="#003a50"/><path d="M317.49,314.42h-9.94v-1.56a2.85,2.85,0,0,1,.58-1.75,4.12,4.12,0,0,1,1.45-1.2c.5-.25,1.12-.54,1.87-.86s1.33-.56,1.88-.77a4.39,4.39,0,0,0,1.45-.92,1.8,1.8,0,0,0,.57-1.3q0-1.89-2.67-1.89c-1.78,0-2.68.72-2.68,2.16v.41h-2.11v-.41a3.63,3.63,0,0,1,1.27-3,5.42,5.42,0,0,1,3.51-1,5.66,5.66,0,0,1,3.52,1,3.27,3.27,0,0,1,1.27,2.75,3.07,3.07,0,0,1-.56,1.83,4.18,4.18,0,0,1-1.4,1.31c-.6.34-1.21.65-1.84.93s-1.23.53-1.83.75a5.26,5.26,0,0,0-1.4.75,1.22,1.22,0,0,0-.57.95h7.63Z" fill="#003a50"/><path d="M319.6,314.29a1,1,0,0,1-.33-.81,1,1,0,0,1,.33-.81,1.4,1.4,0,0,1,1.73,0,1,1,0,0,1,.33.81,1,1,0,0,1-.33.81,1.4,1.4,0,0,1-1.73,0Z" fill="#003a50"/><path d="M332.19,313.65a6.37,6.37,0,0,1-3.68.94,6.5,6.5,0,0,1-3.69-.94,2.94,2.94,0,0,1-1.37-2.56,2.7,2.7,0,0,1,.25-1.17,2.39,2.39,0,0,1,.66-.85,3.94,3.94,0,0,1,1.4-.78l.25-.06v-.09a3.13,3.13,0,0,1-.76-.3,2.88,2.88,0,0,1-.67-.44,2.2,2.2,0,0,1-.54-.75,2.57,2.57,0,0,1-.22-1,2.8,2.8,0,0,1,1.26-2.39,7,7,0,0,1,6.85,0,2.84,2.84,0,0,1,1.25,2.39,2.43,2.43,0,0,1-.22,1,2,2,0,0,1-.55.74,3.77,3.77,0,0,1-1.2.69l-.22.05v.09l.28.06a5.42,5.42,0,0,1,.62.27,3.76,3.76,0,0,1,.78.51,2.69,2.69,0,0,1,.61.82,2.65,2.65,0,0,1,.27,1.2A2.94,2.94,0,0,1,332.19,313.65Zm-5.79-1.35a3.82,3.82,0,0,0,2.1.48,3.94,3.94,0,0,0,2.1-.47,1.51,1.51,0,0,0,.74-1.35,1.49,1.49,0,0,0-.74-1.35,4.93,4.93,0,0,0-4.2,0,1.59,1.59,0,0,0,0,2.69Zm-.37-6.53a1.38,1.38,0,0,0,.65,1.2,3.22,3.22,0,0,0,1.82.43,3.26,3.26,0,0,0,1.83-.43,1.39,1.39,0,0,0,.64-1.2,1.36,1.36,0,0,0-.66-1.2,4,4,0,0,0-3.62,0A1.36,1.36,0,0,0,326,305.77Z" fill="#003a50"/><path d="M114.09,306.43a5,5,0,0,1,3.34,1.07,4.16,4.16,0,0,1,0,6,5.34,5.34,0,0,1-3.55,1.09,5.8,5.8,0,0,1-3.57-1,3.14,3.14,0,0,1-1.28-2.68h2.11a1.53,1.53,0,0,0,.7,1.33,3.53,3.53,0,0,0,2,.49,3.15,3.15,0,0,0,2-.57,2.38,2.38,0,0,0,0-3.4,3.31,3.31,0,0,0-2.07-.58,3.61,3.61,0,0,0-1.93.42,1.87,1.87,0,0,0-.69.64l-.05.12H109V302.5h8.88v1.84H111.1v3h.05a2,2,0,0,1,.4-.3,3,3,0,0,1,.54-.27A5.69,5.69,0,0,1,114.09,306.43Z" fill="#003a50"/><path d="M120.8,314.29a1,1,0,0,1-.33-.81,1,1,0,0,1,.33-.81,1.4,1.4,0,0,1,1.73,0,1,1,0,0,1,.33.81,1,1,0,0,1-.33.81,1.4,1.4,0,0,1-1.73,0Z" fill="#003a50"/><path d="M127.91,314.42h-2.35l5.42-10h-6.93V302.5h9.29v1.88Z" fill="#003a50"/><path d="M78.53,386.26H68.59V384.7a2.79,2.79,0,0,1,.58-1.75,4,4,0,0,1,1.45-1.2c.49-.25,1.12-.54,1.87-.86s1.32-.56,1.87-.77a4,4,0,0,0,1.45-.92,1.78,1.78,0,0,0,.57-1.3c0-1.26-.88-1.89-2.66-1.89s-2.68.72-2.68,2.16v.41H68.93v-.41a3.62,3.62,0,0,1,1.26-3,5.39,5.39,0,0,1,3.52-1,5.63,5.63,0,0,1,3.51,1,3.28,3.28,0,0,1,1.28,2.75,3.17,3.17,0,0,1-.56,1.84,4.39,4.39,0,0,1-1.41,1.3c-.59.34-1.21.65-1.83.93s-1.24.53-1.83.75a5.18,5.18,0,0,0-1.41.75,1.23,1.23,0,0,0-.56.95h7.63Z" fill="#003a50"/><path d="M80.63,386.13a1,1,0,0,1-.32-.81,1.07,1.07,0,0,1,.32-.81,1.3,1.3,0,0,1,.88-.29,1.26,1.26,0,0,1,.86.29,1,1,0,0,1,.32.81,1,1,0,0,1-.32.81,1.22,1.22,0,0,1-.86.3A1.25,1.25,0,0,1,80.63,386.13Z" fill="#003a50"/><path d="M94.42,386.26H84.48V384.7a2.79,2.79,0,0,1,.58-1.75,4.12,4.12,0,0,1,1.45-1.2c.5-.25,1.12-.54,1.87-.86s1.32-.56,1.88-.77a4.09,4.09,0,0,0,1.44-.92,1.76,1.76,0,0,0,.58-1.3q0-1.89-2.67-1.89c-1.78,0-2.68.72-2.68,2.16v.41H84.82v-.41a3.59,3.59,0,0,1,1.27-3,5.34,5.34,0,0,1,3.51-1,5.66,5.66,0,0,1,3.52,1,3.27,3.27,0,0,1,1.27,2.75,3.17,3.17,0,0,1-.56,1.84,4.26,4.26,0,0,1-1.4,1.3c-.6.34-1.21.65-1.84.93s-1.24.53-1.83.75a5.26,5.26,0,0,0-1.4.75,1.22,1.22,0,0,0-.57.95h7.63Z" fill="#003a50"/><path d="M109.07,421.59l-2.48,2V421.3l2.73-2.27h1.86V431h-2.11Z" fill="#003a50"/><path d="M115.71,421.59l-2.49,2V421.3L116,419h1.87V431h-2.11Z" fill="#003a50"/><path d="M120.34,430.82A1,1,0,0,1,120,430a1.07,1.07,0,0,1,.32-.81,1.25,1.25,0,0,1,.88-.3,1.22,1.22,0,0,1,.86.3,1,1,0,0,1,.32.81,1,1,0,0,1-.32.81,1.26,1.26,0,0,1-.86.29A1.3,1.3,0,0,1,120.34,430.82Z" fill="#003a50"/><path d="M132.94,430.18a7.75,7.75,0,0,1-7.38,0,2.93,2.93,0,0,1-1.37-2.55,2.71,2.71,0,0,1,.26-1.17,2.41,2.41,0,0,1,.66-.86,4,4,0,0,1,1.39-.77l.26-.06v-.1a2.91,2.91,0,0,1-.76-.29,2.51,2.51,0,0,1-.67-.44,2.2,2.2,0,0,1-.54-.75,2.45,2.45,0,0,1-.22-1,2.79,2.79,0,0,1,1.25-2.39,5.75,5.75,0,0,1,3.43-.9,5.81,5.81,0,0,1,3.43.9,2.83,2.83,0,0,1,1.25,2.39,2.62,2.62,0,0,1-.22,1,1.88,1.88,0,0,1-.56.74,3.42,3.42,0,0,1-1.19.68l-.23.05v.1a1.27,1.27,0,0,1,.28.06,6.14,6.14,0,0,1,.63.27,4.09,4.09,0,0,1,.77.5,2.89,2.89,0,0,1,.62.83,2.65,2.65,0,0,1,.27,1.2A2.94,2.94,0,0,1,132.94,430.18Zm-5.8-1.35a3.85,3.85,0,0,0,2.11.48,3.94,3.94,0,0,0,2.1-.47,1.53,1.53,0,0,0,.74-1.35,1.51,1.51,0,0,0-.74-1.35,3.94,3.94,0,0,0-2.1-.47,4,4,0,0,0-2.11.47,1.59,1.59,0,0,0,0,2.69Zm-.36-6.53a1.37,1.37,0,0,0,.64,1.2,4.09,4.09,0,0,0,3.65,0,1.43,1.43,0,0,0,0-2.4,3.25,3.25,0,0,0-1.81-.43,3.29,3.29,0,0,0-1.82.43A1.38,1.38,0,0,0,126.78,422.3Z" fill="#003a50"/><path d="M305.44,421.59l-2.48,2V421.3l2.73-2.27h1.86V431h-2.11Z" fill="#003a50"/><path d="M312.08,421.59l-2.49,2V421.3l2.74-2.27h1.86V431h-2.11Z" fill="#003a50"/><path d="M316.71,430.82a1,1,0,0,1-.32-.81,1.07,1.07,0,0,1,.32-.81,1.25,1.25,0,0,1,.88-.3,1.2,1.2,0,0,1,.86.3,1,1,0,0,1,.33.81,1,1,0,0,1-.33.81,1.24,1.24,0,0,1-.86.29A1.3,1.3,0,0,1,316.71,430.82Z" fill="#003a50"/><path d="M322.13,429.41a7.34,7.34,0,0,1,0-8.84,5.69,5.69,0,0,1,8.13,0,7.34,7.34,0,0,1,0,8.84,5.71,5.71,0,0,1-8.13,0Zm6.53-1.39a5.73,5.73,0,0,0,0-6.07,3.15,3.15,0,0,0-4.92,0,5.67,5.67,0,0,0,0,6.07,3.14,3.14,0,0,0,4.92,0Z" fill="#003a50"/><path d="M471.34,421.59l-2.48,2V421.3l2.73-2.27h1.86V431h-2.11Z" fill="#003a50"/><path d="M485.86,431h-9.94v-1.56a2.77,2.77,0,0,1,.58-1.75,4,4,0,0,1,1.44-1.2c.5-.25,1.13-.54,1.87-.86s1.33-.56,1.88-.77a4.29,4.29,0,0,0,1.45-.92,1.8,1.8,0,0,0,.57-1.3q0-1.89-2.67-1.89t-2.67,2.16v.41h-2.11v-.41a3.62,3.62,0,0,1,1.26-3,5.45,5.45,0,0,1,3.52-1,5.72,5.72,0,0,1,3.51,1,3.29,3.29,0,0,1,1.27,2.76,3.14,3.14,0,0,1-.55,1.83,4.31,4.31,0,0,1-1.41,1.31c-.6.34-1.21.65-1.84.93s-1.23.53-1.82.75a5.18,5.18,0,0,0-1.41.75,1.2,1.2,0,0,0-.56.95h7.63Z" fill="#003a50"/><path d="M488,430.82a1,1,0,0,1-.33-.81,1,1,0,0,1,.33-.81,1.23,1.23,0,0,1,.87-.3,1.24,1.24,0,0,1,.87.3,1.07,1.07,0,0,1,.32.81,1,1,0,0,1-.32.81,1.29,1.29,0,0,1-.87.29A1.27,1.27,0,0,1,488,430.82Z" fill="#003a50"/><path d="M500.3,431h-2.11V428.3h-7v-1.85l6.3-7.42h2.79v7.42h1.6v1.85h-1.6Zm-2.11-4.5v-5.33h-.07l-4.48,5.28v.05Z" fill="#003a50"/><path d="M576.5,421.59l-2.49,2V421.3l2.74-2.27h1.86V431H576.5Z" fill="#003a50"/><path d="M589.82,430.18a7.75,7.75,0,0,1-7.38,0,2.93,2.93,0,0,1-1.37-2.55,2.71,2.71,0,0,1,.26-1.17,2.41,2.41,0,0,1,.66-.86,4,4,0,0,1,1.39-.77l.26-.06v-.1a2.91,2.91,0,0,1-.76-.29,2.51,2.51,0,0,1-.67-.44,2.2,2.2,0,0,1-.54-.75,2.45,2.45,0,0,1-.22-1,2.79,2.79,0,0,1,1.25-2.39,5.75,5.75,0,0,1,3.43-.9,5.81,5.81,0,0,1,3.43.9,2.83,2.83,0,0,1,1.25,2.39,2.62,2.62,0,0,1-.22,1,2,2,0,0,1-.56.74,3.42,3.42,0,0,1-1.19.68l-.23.05v.1a1.27,1.27,0,0,1,.28.06,6.14,6.14,0,0,1,.63.27,4.09,4.09,0,0,1,.77.5,2.89,2.89,0,0,1,.62.83,2.65,2.65,0,0,1,.27,1.2A2.94,2.94,0,0,1,589.82,430.18Zm-5.8-1.35a3.85,3.85,0,0,0,2.11.48,3.94,3.94,0,0,0,2.1-.47,1.53,1.53,0,0,0,.74-1.35,1.51,1.51,0,0,0-.74-1.35,3.94,3.94,0,0,0-2.1-.47,4,4,0,0,0-2.11.47,1.59,1.59,0,0,0,0,2.69Zm-.36-6.53a1.37,1.37,0,0,0,.64,1.2,4.09,4.09,0,0,0,3.65,0,1.44,1.44,0,0,0,0-2.4,3.25,3.25,0,0,0-1.81-.43,3.29,3.29,0,0,0-1.82.43A1.38,1.38,0,0,0,583.66,422.3Z" fill="#003a50"/></g></svg>