<svg id="Слой_1" data-name="Слой 1" xmlns="http://www.w3.org/2000/svg" xmlns:xlink="http://www.w3.org/1999/xlink" viewBox="0 0 581.1 362.83"><defs><clipPath id="clip-path"><polygon points="0 0.21 0 362.62 581.1 362.62 581.1 190.11 493.51 190.11 493.51 134.55 310.45 134.55 310.45 0.21 0 0.21" fill="none"/></clipPath></defs><polygon points="49.74 7.54 49.62 350.4 520.12 355.07 512.97 309.25 512.97 259.99 516.03 190.11 493.51 190.11 493.51 134.55 492.28 134.55 492.28 135.85 308.71 135.85 302.1 6.41 49.74 7.54" fill="#fff"/><polygon points="49.74 361.14 49.74 362.62 526.3 362.62 526.3 360.83 49.74 361.14" fill="#fff"/><g clip-path="url(#clip-path)"><rect x="27.49" y="-1240.18" width="1115.44" height="2194.74" fill="none" stroke="#003a50" stroke-miterlimit="10"/><polygon points="52.31 -154.46 52.31 931.6 1118.78 931.6 1118.78 -1216.27 52.31 -1216.42 52.31 -223.27 52.31 -154.46" fill="none" stroke="#003a50" stroke-miterlimit="10"/></g><rect x="37.21" y="215.79" width="4.55" height="91.43" fill="#fff"/><rect x="37.21" y="215.8" width="4.55" height="91.43" fill="none" stroke="#003a50" stroke-miterlimit="10"/><line x1="39.49" y1="215.8" x2="39.49" y2="307.22" fill="none" stroke="#003a50" stroke-miterlimit="10"/><rect x="37.21" y="215.79" width="4.55" height="4.62" fill="#fff"/><rect x="37.21" y="215.8" width="4.55" height="4.62" fill="none" stroke="#003a50" stroke-miterlimit="10"/><rect x="37.21" y="302.61" width="4.55" height="4.61" fill="#fff"/><rect x="37.21" y="302.61" width="4.55" height="4.61" fill="none" stroke="#003a50" stroke-miterlimit="10"/><rect x="37.21" y="259.2" width="4.55" height="4.61" fill="#fff"/><rect x="37.21" y="259.2" width="4.55" height="4.62" fill="none" stroke="#003a50" stroke-miterlimit="10"/><rect x="37.21" y="33.49" width="4.55" height="91.35" fill="#fff"/><rect x="37.21" y="33.49" width="4.55" height="91.35" fill="none" stroke="#003a50" stroke-miterlimit="10"/><line x1="39.49" y1="33.49" x2="39.49" y2="124.84" fill="none" stroke="#003a50" stroke-miterlimit="10"/><rect x="37.21" y="33.49" width="4.55" height="4.61" fill="#fff"/><rect x="37.21" y="33.49" width="4.55" height="4.61" fill="none" stroke="#003a50" stroke-miterlimit="10"/><rect x="37.21" y="120.23" width="4.55" height="4.61" fill="#fff"/><rect x="37.21" y="120.23" width="4.55" height="4.61" fill="none" stroke="#003a50" stroke-miterlimit="10"/><rect x="37.21" y="76.86" width="4.55" height="4.61" fill="#fff"/><rect x="37.21" y="76.86" width="4.55" height="4.61" fill="none" stroke="#003a50" stroke-miterlimit="10"/><rect x="371.03" y="151.7" width="42.4" height="92.12" fill="none" stroke="#003a50" stroke-miterlimit="10"/><g clip-path="url(#clip-path)"><rect x="376.01" y="155.49" width="32.04" height="84.27" rx="13.7" fill="none" stroke="#003a50" stroke-miterlimit="10"/><path d="M394.32,170.07a2.21,2.21,0,1,0-2.21,2.21A2.21,2.21,0,0,0,394.32,170.07Z" fill="none" stroke="#003a50" stroke-miterlimit="10"/><path d="M459,224.13h28.58V201H459a11.54,11.54,0,0,0-11.54,11.54h0A11.54,11.54,0,0,0,459,224.13Z" fill="none" stroke="#003a50" stroke-miterlimit="10"/></g><rect x="476.46" y="201.04" width="11.08" height="23.09" fill="none" stroke="#003a50" stroke-miterlimit="10"/><g clip-path="url(#clip-path)"><path d="M471.61,157.67a3.41,3.41,0,0,0,3.13-2.1h1.93l5.1,3-2.32,3.77-2.66-1.46v11.83H465.7V160.92L463,162.38l-2.31-3.77,5.14-3h2.57A3.46,3.46,0,0,0,471.61,157.67Z" fill="none" stroke="#003a50" stroke-miterlimit="10"/></g><rect x="454.28" y="151.34" width="33.93" height="25.64" fill="none" stroke="#003a50" stroke-miterlimit="10"/><rect x="331.91" y="215.71" width="32.74" height="33.98" fill="none" stroke="#003a50" stroke-miterlimit="10"/><g clip-path="url(#clip-path)"><path d="M352.58,231.17v-11H344v11a3.54,3.54,0,0,0,3.54,3.55H349A3.54,3.54,0,0,0,352.58,231.17Z" fill="none" stroke="#003a50" stroke-miterlimit="10"/></g><polyline points="344.81 245.28 348.28 245.28 351.76 245.28" fill="none" stroke="#003a50" stroke-miterlimit="10"/><line x1="348.28" y1="234.72" x2="348.28" y2="245.28" fill="none" stroke="#003a50" stroke-miterlimit="10"/><rect x="276.61" y="151.26" width="31.89" height="31.89" fill="none" stroke="#003a50" stroke-miterlimit="10"/><g clip-path="url(#clip-path)"><circle cx="299.84" cy="174.34" r="4.35" fill="none" stroke="#003a50" stroke-miterlimit="10"/><circle cx="285.32" cy="174.34" r="4.35" fill="none" stroke="#003a50" stroke-miterlimit="10"/><circle cx="299.84" cy="160.19" r="4.35" fill="none" stroke="#003a50" stroke-miterlimit="10"/><circle cx="285.32" cy="160.19" r="4.35" fill="none" stroke="#003a50" stroke-miterlimit="10"/><rect x="318.32" y="362.81" width="34.03" height="34.03" fill="none" stroke="#003a50" stroke-miterlimit="10"/></g><rect x="82.88" y="160.15" width="102.08" height="17.02" fill="none" stroke="#003a50" stroke-miterlimit="10"/><polygon points="90.9 168.11 133.81 171.64 176.93 168.11 176.93 165.66 90.9 165.66 90.9 168.11" fill="none" stroke="#003a50" stroke-miterlimit="10"/><rect x="51.02" y="183.54" width="102.08" height="17.02" fill="none" stroke="#003a50" stroke-miterlimit="10"/><polygon points="145.07 192.59 102.16 189.06 59.04 192.59 59.04 195.04 145.07 195.04 145.07 192.59" fill="none" stroke="#003a50" stroke-miterlimit="10"/><g clip-path="url(#clip-path)"><rect x="304.46" y="363.23" width="58.81" height="33.61" fill="none" stroke="#003a50" stroke-miterlimit="10"/><rect x="363.28" y="363.23" width="32.74" height="102.61" fill="none" stroke="#003a50" stroke-miterlimit="10"/></g><rect x="267.4" y="149.54" width="64.52" height="33.61" fill="none" stroke="#003a50" stroke-miterlimit="10"/><rect x="331.91" y="147.08" width="32.74" height="102.61" fill="none" stroke="#003a50" stroke-miterlimit="10"/><g clip-path="url(#clip-path)"><path d="M298.48,284.09a1.25,1.25,0,0,1-1-1.5,13.79,13.79,0,1,0-26.88-6.17,1.26,1.26,0,0,1-2.46-.56A16.31,16.31,0,1,1,300,283.15,1.24,1.24,0,0,1,298.48,284.09Z" fill="none" stroke="#003a50" stroke-miterlimit="10"/><path d="M243.29,274.37a1.25,1.25,0,0,1-1.75.33A13.79,13.79,0,0,0,226,297.5a1.26,1.26,0,0,1-1.42,2.08,16.31,16.31,0,0,1,18.36-27A1.26,1.26,0,0,1,243.29,274.37Z" fill="none" stroke="#003a50" stroke-miterlimit="10"/><path d="M240.78,321.79a1.26,1.26,0,0,1,1.33,1.18,13.79,13.79,0,0,0,27.54-1.62,1.26,1.26,0,1,1,2.51-.16,16.31,16.31,0,0,1-32.56,1.94A1.26,1.26,0,0,1,240.78,321.79Z" fill="none" stroke="#003a50" stroke-miterlimit="10"/><path d="M284.27,267.47a12.7,12.7,0,0,1,12,15.49l-2,8.88a3.53,3.53,0,0,1-4.24,2.68l-13.45-3.08a23.73,23.73,0,0,0-6-9.44l1-4.2C272.87,271.83,278.15,267.27,284.27,267.47Z" fill="none" stroke="#003a50" stroke-miterlimit="10"/><path d="M241.46,276l2.32,1.6a23.81,23.81,0,0,0-13.65,21.33l-2.52-1.72c-5-3.44-7.4-10-5-15.65A12.7,12.7,0,0,1,241.46,276Z" fill="none" stroke="#003a50" stroke-miterlimit="10"/><path d="M268.31,318.29l.12,2c.36,6.13-3.4,12-9.33,13.49a12.66,12.66,0,0,1-15.88-11.49l-.12-1.84a23.93,23.93,0,0,0,16.64,1.92A23.54,23.54,0,0,0,268.31,318.29Z" fill="none" stroke="#003a50" stroke-miterlimit="10"/><path d="M270.55,282a23.73,23.73,0,0,1,6,9.44,16.51,16.51,0,0,1,.6,2,23.86,23.86,0,0,1-8.84,24.85,23.32,23.32,0,0,1-8.57,4,23.88,23.88,0,0,1-28.93-17.41,22.12,22.12,0,0,1-.68-6,23.82,23.82,0,0,1,13.65-21.33,22.85,22.85,0,0,1,4.48-1.6A23.81,23.81,0,0,1,270.55,282Z" fill="none" stroke="#003a50" stroke-miterlimit="10"/><path d="M289.08,106.1a1,1,0,0,1,.85.51.9.9,0,0,1-.43,1.23,28,28,0,0,1-23.82,0,.9.9,0,0,1-.43-1.22,1,1,0,0,1,1.26-.42,26.06,26.06,0,0,0,22.15,0A.9.9,0,0,1,289.08,106.1Z" fill="none" stroke="#003a50" stroke-miterlimit="10"/><path d="M289.08,111.17a1,1,0,0,1,.85.51.9.9,0,0,1-.43,1.22,28,28,0,0,1-23.82,0,.9.9,0,0,1-.43-1.22,1,1,0,0,1,1.26-.42,26,26,0,0,0,22.15,0A1,1,0,0,1,289.08,111.17Z" fill="none" stroke="#003a50" stroke-miterlimit="10"/><path d="M289.08,116.23a1,1,0,0,1,.85.51.9.9,0,0,1-.43,1.23,28,28,0,0,1-23.82,0,.9.9,0,0,1-.43-1.22,1,1,0,0,1,1.26-.42,26.06,26.06,0,0,0,22.15,0A.9.9,0,0,1,289.08,116.23Z" fill="none" stroke="#003a50" stroke-miterlimit="10"/><path d="M289.08,121.3a1,1,0,0,1,.85.51.9.9,0,0,1-.43,1.22,28,28,0,0,1-23.82,0,.9.9,0,0,1-.43-1.22,1,1,0,0,1,1.26-.42,26,26,0,0,0,22.15,0A1,1,0,0,1,289.08,121.3Z" fill="none" stroke="#003a50" stroke-miterlimit="10"/><path d="M289.08,126.36a1,1,0,0,1,.85.51.9.9,0,0,1-.43,1.23,28,28,0,0,1-23.82,0,.9.9,0,0,1-.43-1.22,1,1,0,0,1,1.26-.42,26.06,26.06,0,0,0,22.15,0A.9.9,0,0,1,289.08,126.36Z" fill="none" stroke="#003a50" stroke-miterlimit="10"/><path d="M289.08,131.43a1,1,0,0,1,.85.51.9.9,0,0,1-.43,1.22,28,28,0,0,1-23.82,0,.9.9,0,0,1-.43-1.22,1,1,0,0,1,1.26-.42,26,26,0,0,0,22.15,0A1,1,0,0,1,289.08,131.43Z" fill="none" stroke="#003a50" stroke-miterlimit="10"/><path d="M289.08,101a1,1,0,0,1,.85.51.9.9,0,0,1-.43,1.22,28,28,0,0,1-23.82,0,.9.9,0,0,1-.43-1.22,1,1,0,0,1,1.26-.42,26,26,0,0,0,22.15,0A1,1,0,0,1,289.08,101Z" fill="none" stroke="#003a50" stroke-miterlimit="10"/><path d="M289.08,96a1,1,0,0,1,.85.51.9.9,0,0,1-.43,1.23,28,28,0,0,1-23.82,0,.9.9,0,0,1-.43-1.22,1,1,0,0,1,1.26-.42,26.06,26.06,0,0,0,22.15,0A.9.9,0,0,1,289.08,96Z" fill="none" stroke="#003a50" stroke-miterlimit="10"/></g><line x1="277.59" y1="13.94" x2="277.59" y2="144.85" fill="none" stroke="#003a50" stroke-miterlimit="10"/><rect x="261.02" y="13.69" width="32.6" height="130.46" fill="none" stroke="#003a50" stroke-miterlimit="10"/><rect x="413.81" y="151.58" width="74.02" height="25.4" fill="none" stroke="#003a50" stroke-miterlimit="10"/><g clip-path="url(#clip-path)"><path d="M417.85,172.09v-19.4a2.82,2.82,0,0,1,2.82-2.82h18.76a2.83,2.83,0,0,1,2.83,2.82v19.4a2.83,2.83,0,0,1-2.83,2.82H420.67A2.82,2.82,0,0,1,417.85,172.09Z" fill="none" stroke="#003a50" stroke-miterlimit="10"/><path d="M430.05,164.3a1.91,1.91,0,1,1,1.91-1.91A1.91,1.91,0,0,1,430.05,164.3Z" fill="none" stroke="#003a50" stroke-miterlimit="10"/></g><rect x="325.5" y="314.81" width="34.03" height="34.03" fill="none" stroke="#003a50" stroke-miterlimit="10"/><line x1="342.52" y1="341.8" x2="342.52" y2="321.84" fill="none" stroke="#003a50" stroke-miterlimit="10"/><line x1="352.5" y1="331.82" x2="332.53" y2="331.82" fill="none" stroke="#003a50" stroke-miterlimit="10"/><line x1="349.58" y1="338.88" x2="335.46" y2="324.76" fill="none" stroke="#003a50" stroke-miterlimit="10"/><line x1="349.58" y1="324.76" x2="335.46" y2="338.88" fill="none" stroke="#003a50" stroke-miterlimit="10"/><rect x="359.53" y="314.8" width="153.13" height="34.03" fill="none" stroke="#003a50" stroke-miterlimit="10"/><g clip-path="url(#clip-path)"><path d="M376.66,319.63a1,1,0,0,1,.56-.9,1,1,0,0,1,1.34.46,28.77,28.77,0,0,1,0,25.26,1,1,0,0,1-1.8-.88,26.74,26.74,0,0,0,0-23.5A1,1,0,0,1,376.66,319.63Z" fill="none" stroke="#003a50" stroke-miterlimit="10"/><path d="M382.22,319.63a1,1,0,0,1,1.91-.44,28.77,28.77,0,0,1,0,25.26,1,1,0,0,1-1.34.46,1,1,0,0,1-.46-1.34,26.83,26.83,0,0,0,0-23.5A1,1,0,0,1,382.22,319.63Z" fill="none" stroke="#003a50" stroke-miterlimit="10"/><path d="M387.79,319.63a1,1,0,0,1,1.9-.44,28.77,28.77,0,0,1,0,25.26,1,1,0,0,1-1.8-.88,26.74,26.74,0,0,0,0-23.5A1,1,0,0,1,387.79,319.63Z" fill="none" stroke="#003a50" stroke-miterlimit="10"/><path d="M393.36,319.63a1,1,0,0,1,1.9-.44,28.77,28.77,0,0,1,0,25.26,1,1,0,0,1-1.8-.88,26.74,26.74,0,0,0,0-23.5A1,1,0,0,1,393.36,319.63Z" fill="none" stroke="#003a50" stroke-miterlimit="10"/><path d="M398.93,319.63a1,1,0,0,1,.56-.9,1,1,0,0,1,1.34.46,28.77,28.77,0,0,1,0,25.26,1,1,0,0,1-1.8-.88,26.74,26.74,0,0,0,0-23.5A1,1,0,0,1,398.93,319.63Z" fill="none" stroke="#003a50" stroke-miterlimit="10"/><path d="M404.49,319.63a1,1,0,0,1,1.91-.44,28.77,28.77,0,0,1,0,25.26,1,1,0,0,1-1.34.46,1,1,0,0,1-.46-1.34,26.83,26.83,0,0,0,0-23.5A.87.87,0,0,1,404.49,319.63Z" fill="none" stroke="#003a50" stroke-miterlimit="10"/><path d="M371.09,319.63a1,1,0,0,1,1.9-.44,28.77,28.77,0,0,1,0,25.26,1,1,0,0,1-1.8-.88,26.74,26.74,0,0,0,0-23.5A1,1,0,0,1,371.09,319.63Z" fill="none" stroke="#003a50" stroke-miterlimit="10"/><path d="M365.52,319.63a1,1,0,0,1,1.9-.44,28.77,28.77,0,0,1,0,25.26,1,1,0,0,1-1.8-.88,26.74,26.74,0,0,0,0-23.5A1,1,0,0,1,365.52,319.63Z" fill="none" stroke="#003a50" stroke-miterlimit="10"/></g><line x1="359.53" y1="331.82" x2="512.66" y2="331.82" fill="none" stroke="#003a50" stroke-miterlimit="10"/><g clip-path="url(#clip-path)"><path d="M108.17,302.51v41.05H62.38V300.29H106A2.22,2.22,0,0,1,108.17,302.51Z" fill="none" stroke="#003a50" stroke-miterlimit="10"/><path d="M154.05,302.28v41.28H108.26V302.28a2,2,0,0,1,2-2h41.82A2,2,0,0,1,154.05,302.28Z" fill="none" stroke="#003a50" stroke-miterlimit="10"/><path d="M62.38,300.3a3.11,3.11,0,0,0-3.33-2.83H54.83a3.11,3.11,0,0,0-3.33,2.83v48.21H164.93V300.72a3.11,3.11,0,0,0-3.33-2.83h-4.22a3.11,3.11,0,0,0-3.33,2.83v42.84H62.38Z" fill="none" stroke="#003a50" stroke-miterlimit="10"/></g><rect x="62.38" y="334.3" width="91.67" height="9.26" fill="none" stroke="#003a50" stroke-miterlimit="10"/><rect x="53.9" y="14.1" width="22.68" height="22.68" fill="none" stroke="#003a50" stroke-miterlimit="10"/><g clip-path="url(#clip-path)"><path d="M71.75,31.94a9.2,9.2,0,1,1,0-13A9.2,9.2,0,0,1,71.75,31.94Z" fill="none" stroke="#003a50" stroke-miterlimit="10"/><path d="M72.37,31.25c-1.69-.17-3.41.49-5.06-1.17-2.45-2.44.13-5-2.31-7.46s-5,.14-7.45-2.3" fill="none" stroke="#003a50" stroke-miterlimit="10"/></g><rect x="191.25" y="14.1" width="22.68" height="22.68" fill="none" stroke="#003a50" stroke-miterlimit="10"/><g clip-path="url(#clip-path)"><path d="M209.1,31.94a9.2,9.2,0,1,1,0-13A9.2,9.2,0,0,1,209.1,31.94Z" fill="none" stroke="#003a50" stroke-miterlimit="10"/><path d="M209.72,31.25c-1.69-.17-3.41.49-5.06-1.17-2.44-2.44.14-5-2.3-7.46s-5,.14-7.46-2.3" fill="none" stroke="#003a50" stroke-miterlimit="10"/></g><rect x="82.92" y="14.1" width="102.08" height="113.43" fill="none" stroke="#003a50" stroke-miterlimit="10"/><g clip-path="url(#clip-path)"><path d="M175,117.78H92.92a2.08,2.08,0,0,1-2.09-2.08V48h86.25V115.7A2.08,2.08,0,0,1,175,117.78Z" fill="none" stroke="#003a50" stroke-miterlimit="10"/><rect x="90.58" y="21.53" width="42.51" height="22.89" rx="1.98" fill="none" stroke="#003a50" stroke-miterlimit="10"/><rect x="134.82" y="21.53" width="42.52" height="22.89" rx="1.98" fill="none" stroke="#003a50" stroke-miterlimit="10"/></g><line x1="177.34" y1="61.89" x2="90.58" y2="61.89" fill="none" stroke="#003a50" stroke-miterlimit="10"/><g clip-path="url(#clip-path)"><path d="M355.49,209.71V186.35a3.35,3.35,0,0,0-3.36-3.36h-15a3.36,3.36,0,0,0-3.36,3.36v23.36a3.37,3.37,0,0,0,3.36,3.36h15A3.36,3.36,0,0,0,355.49,209.71Z" fill="none" stroke="#003a50" stroke-miterlimit="10"/><circle cx="348.45" cy="198.03" r="2.46" transform="translate(-52.07 212.77) rotate(-31.72)" fill="none" stroke="#003a50" stroke-miterlimit="10"/></g><line x1="347.69" y1="198.03" x2="361.31" y2="198.03" fill="none" stroke="#003a50" stroke-miterlimit="10"/><line x1="361.31" y1="191.22" x2="361.31" y2="204.84" fill="none" stroke="#003a50" stroke-miterlimit="10"/><g clip-path="url(#clip-path)"><line x1="118.8" y1="0.51" x2="118.8" y2="-58.94" fill="none" stroke="#003a50" stroke-linecap="round" stroke-linejoin="round" stroke-width="0.96"/><line x1="292.69" y1="0.51" x2="292.69" y2="-58.94" fill="none" stroke="#003a50" stroke-linecap="round" stroke-linejoin="round" stroke-width="0.96"/><line x1="261.07" y1="0.51" x2="261.07" y2="-58.94" fill="none" stroke="#003a50" stroke-linecap="round" stroke-linejoin="round" stroke-width="0.96"/><line x1="134.61" y1="0.51" x2="134.61" y2="-58.94" fill="none" stroke="#003a50" stroke-linecap="round" stroke-linejoin="round" stroke-width="0.96"/><line x1="150.42" y1="0.51" x2="150.42" y2="-58.94" fill="none" stroke="#003a50" stroke-linecap="round" stroke-linejoin="round" stroke-width="0.96"/><line x1="166.23" y1="0.51" x2="166.23" y2="-58.94" fill="none" stroke="#003a50" stroke-linecap="round" stroke-linejoin="round" stroke-width="0.96"/><line x1="182.03" y1="0.51" x2="182.03" y2="-58.94" fill="none" stroke="#003a50" stroke-linecap="round" stroke-linejoin="round" stroke-width="0.96"/><line x1="197.84" y1="0.51" x2="197.84" y2="-58.94" fill="none" stroke="#003a50" stroke-linecap="round" stroke-linejoin="round" stroke-width="0.96"/><line x1="213.65" y1="0.51" x2="213.65" y2="-58.94" fill="none" stroke="#003a50" stroke-linecap="round" stroke-linejoin="round" stroke-width="0.96"/><line x1="229.46" y1="0.51" x2="229.46" y2="-58.94" fill="none" stroke="#003a50" stroke-linecap="round" stroke-linejoin="round" stroke-width="0.96"/><line x1="245.26" y1="0.51" x2="245.26" y2="-58.94" fill="none" stroke="#003a50" stroke-linecap="round" stroke-linejoin="round" stroke-width="0.96"/><line x1="261.07" y1="0.51" x2="261.07" y2="-58.94" fill="none" stroke="#003a50" stroke-linecap="round" stroke-linejoin="round" stroke-width="0.96"/><line x1="276.88" y1="0.51" x2="276.88" y2="-58.94" fill="none" stroke="#003a50" stroke-linecap="round" stroke-linejoin="round" stroke-width="0.96"/><line x1="292.69" y1="0.51" x2="292.69" y2="-58.94" fill="none" stroke="#003a50" stroke-linecap="round" stroke-linejoin="round" stroke-width="0.96"/><line x1="134.61" y1="0.51" x2="134.61" y2="-58.94" fill="none" stroke="#003a50" stroke-linecap="round" stroke-linejoin="round" stroke-width="0.96"/><line x1="150.42" y1="0.51" x2="150.42" y2="-58.94" fill="none" stroke="#003a50" stroke-linecap="round" stroke-linejoin="round" stroke-width="0.96"/><line x1="166.23" y1="0.51" x2="166.23" y2="-58.94" fill="none" stroke="#003a50" stroke-linecap="round" stroke-linejoin="round" stroke-width="0.96"/><line x1="182.03" y1="0.51" x2="182.03" y2="-58.94" fill="none" stroke="#003a50" stroke-linecap="round" stroke-linejoin="round" stroke-width="0.96"/><line x1="197.84" y1="0.51" x2="197.84" y2="-58.94" fill="none" stroke="#003a50" stroke-linecap="round" stroke-linejoin="round" stroke-width="0.96"/><line x1="213.65" y1="0.51" x2="213.65" y2="-58.94" fill="none" stroke="#003a50" stroke-linecap="round" stroke-linejoin="round" stroke-width="0.96"/><line x1="229.46" y1="0.51" x2="229.46" y2="-58.94" fill="none" stroke="#003a50" stroke-linecap="round" stroke-linejoin="round" stroke-width="0.96"/><line x1="245.26" y1="0.51" x2="245.26" y2="-58.94" fill="none" stroke="#003a50" stroke-linecap="round" stroke-linejoin="round" stroke-width="0.96"/><line x1="261.07" y1="0.51" x2="261.07" y2="-58.94" fill="none" stroke="#003a50" stroke-linecap="round" stroke-linejoin="round" stroke-width="0.96"/><line x1="134.61" y1="0.51" x2="134.61" y2="-58.94" fill="none" stroke="#003a50" stroke-linecap="round" stroke-linejoin="round" stroke-width="0.96"/><line x1="150.42" y1="0.51" x2="150.42" y2="-58.94" fill="none" stroke="#003a50" stroke-linecap="round" stroke-linejoin="round" stroke-width="0.96"/><line x1="166.23" y1="0.51" x2="166.23" y2="-58.94" fill="none" stroke="#003a50" stroke-linecap="round" stroke-linejoin="round" stroke-width="0.96"/><line x1="182.03" y1="0.51" x2="182.03" y2="-58.94" fill="none" stroke="#003a50" stroke-linecap="round" stroke-linejoin="round" stroke-width="0.96"/><line x1="197.84" y1="0.51" x2="197.84" y2="-58.94" fill="none" stroke="#003a50" stroke-linecap="round" stroke-linejoin="round" stroke-width="0.96"/><line x1="213.65" y1="0.51" x2="213.65" y2="-58.94" fill="none" stroke="#003a50" stroke-linecap="round" stroke-linejoin="round" stroke-width="0.96"/><line x1="229.46" y1="0.51" x2="229.46" y2="-58.94" fill="none" stroke="#003a50" stroke-linecap="round" stroke-linejoin="round" stroke-width="0.96"/><line x1="245.26" y1="0.51" x2="245.26" y2="-58.94" fill="none" stroke="#003a50" stroke-linecap="round" stroke-linejoin="round" stroke-width="0.96"/><line x1="261.07" y1="0.51" x2="261.07" y2="-58.94" fill="none" stroke="#003a50" stroke-linecap="round" stroke-linejoin="round" stroke-width="0.96"/><line x1="276.88" y1="0.51" x2="276.88" y2="-58.94" fill="none" stroke="#003a50" stroke-linecap="round" stroke-linejoin="round" stroke-width="0.96"/><line x1="134.61" y1="0.51" x2="134.61" y2="-58.94" fill="none" stroke="#003a50" stroke-linecap="round" stroke-linejoin="round" stroke-width="0.96"/><line x1="150.42" y1="0.51" x2="150.42" y2="-58.94" fill="none" stroke="#003a50" stroke-linecap="round" stroke-linejoin="round" stroke-width="0.96"/><line x1="166.23" y1="0.51" x2="166.23" y2="-58.94" fill="none" stroke="#003a50" stroke-linecap="round" stroke-linejoin="round" stroke-width="0.96"/><line x1="182.03" y1="0.51" x2="182.03" y2="-58.94" fill="none" stroke="#003a50" stroke-linecap="round" stroke-linejoin="round" stroke-width="0.96"/><line x1="197.84" y1="0.51" x2="197.84" y2="-58.94" fill="none" stroke="#003a50" stroke-linecap="round" stroke-linejoin="round" stroke-width="0.96"/><line x1="213.65" y1="0.51" x2="213.65" y2="-58.94" fill="none" stroke="#003a50" stroke-linecap="round" stroke-linejoin="round" stroke-width="0.96"/><line x1="229.46" y1="0.51" x2="229.46" y2="-58.94" fill="none" stroke="#003a50" stroke-linecap="round" stroke-linejoin="round" stroke-width="0.96"/><line x1="245.26" y1="0.51" x2="245.26" y2="-58.94" fill="none" stroke="#003a50" stroke-linecap="round" stroke-linejoin="round" stroke-width="0.96"/><line x1="118.8" y1="0.51" x2="118.8" y2="-58.94" fill="none" stroke="#003a50" stroke-linecap="round" stroke-linejoin="round" stroke-width="0.96"/><line x1="292.69" y1="0.51" x2="292.69" y2="-58.94" fill="none" stroke="#003a50" stroke-linecap="round" stroke-linejoin="round" stroke-width="0.96"/><line x1="134.61" y1="0.51" x2="134.61" y2="-58.94" fill="none" stroke="#003a50" stroke-linecap="round" stroke-linejoin="round" stroke-width="0.96"/><line x1="150.42" y1="0.51" x2="150.42" y2="-58.94" fill="none" stroke="#003a50" stroke-linecap="round" stroke-linejoin="round" stroke-width="0.96"/><line x1="166.23" y1="0.51" x2="166.23" y2="-58.94" fill="none" stroke="#003a50" stroke-linecap="round" stroke-linejoin="round" stroke-width="0.96"/><line x1="182.03" y1="0.51" x2="182.03" y2="-58.94" fill="none" stroke="#003a50" stroke-linecap="round" stroke-linejoin="round" stroke-width="0.96"/><line x1="197.84" y1="0.51" x2="197.84" y2="-58.94" fill="none" stroke="#003a50" stroke-linecap="round" stroke-linejoin="round" stroke-width="0.96"/><line x1="213.65" y1="0.51" x2="213.65" y2="-58.94" fill="none" stroke="#003a50" stroke-linecap="round" stroke-linejoin="round" stroke-width="0.96"/><line x1="229.46" y1="0.51" x2="229.46" y2="-58.94" fill="none" stroke="#003a50" stroke-linecap="round" stroke-linejoin="round" stroke-width="0.96"/><line x1="245.26" y1="0.51" x2="245.26" y2="-58.94" fill="none" stroke="#003a50" stroke-linecap="round" stroke-linejoin="round" stroke-width="0.96"/><line x1="261.07" y1="0.51" x2="261.07" y2="-58.94" fill="none" stroke="#003a50" stroke-linecap="round" stroke-linejoin="round" stroke-width="0.96"/><line x1="276.88" y1="0.51" x2="276.88" y2="-58.94" fill="none" stroke="#003a50" stroke-linecap="round" stroke-linejoin="round" stroke-width="0.96"/><line x1="292.69" y1="0.51" x2="292.69" y2="-58.94" fill="none" stroke="#003a50" stroke-linecap="round" stroke-linejoin="round" stroke-width="0.96"/><line x1="134.61" y1="0.51" x2="134.61" y2="-58.94" fill="none" stroke="#003a50" stroke-linecap="round" stroke-linejoin="round" stroke-width="0.96"/><line x1="150.42" y1="0.51" x2="150.42" y2="-58.94" fill="none" stroke="#003a50" stroke-linecap="round" stroke-linejoin="round" stroke-width="0.96"/><line x1="166.23" y1="0.51" x2="166.23" y2="-58.94" fill="none" stroke="#003a50" stroke-linecap="round" stroke-linejoin="round" stroke-width="0.96"/><line x1="182.03" y1="0.51" x2="182.03" y2="-58.94" fill="none" stroke="#003a50" stroke-linecap="round" stroke-linejoin="round" stroke-width="0.96"/><line x1="197.84" y1="0.51" x2="197.84" y2="-58.94" fill="none" stroke="#003a50" stroke-linecap="round" stroke-linejoin="round" stroke-width="0.96"/><line x1="213.65" y1="0.51" x2="213.65" y2="-58.94" fill="none" stroke="#003a50" stroke-linecap="round" stroke-linejoin="round" stroke-width="0.96"/><line x1="229.46" y1="0.51" x2="229.46" y2="-58.94" fill="none" stroke="#003a50" stroke-linecap="round" stroke-linejoin="round" stroke-width="0.96"/><line x1="245.26" y1="0.51" x2="245.26" y2="-58.94" fill="none" stroke="#003a50" stroke-linecap="round" stroke-linejoin="round" stroke-width="0.96"/><line x1="261.07" y1="0.51" x2="261.07" y2="-58.94" fill="none" stroke="#003a50" stroke-linecap="round" stroke-linejoin="round" stroke-width="0.96"/><line x1="276.88" y1="0.51" x2="276.88" y2="-58.94" fill="none" stroke="#003a50" stroke-linecap="round" stroke-linejoin="round" stroke-width="0.96"/><path d="M417.88,246.46v3.08a38.72,38.72,0,0,0,38.72,38.73V246.46" fill="none" stroke="#003a50" stroke-miterlimit="10" stroke-width="1.6"/><path d="M195.63,180.79v-3.58a45.08,45.08,0,0,1,45.08-45.08v48.66" fill="none" stroke="#003a50" stroke-miterlimit="10" stroke-width="1.6"/><path d="M524.07,259.12h4.06a51.14,51.14,0,0,1,51.15,51.14H524.07" fill="none" stroke="#003a50" stroke-miterlimit="10" stroke-width="1.6"/><path d="M439.76,6.39V2.2A52.76,52.76,0,0,0,387-50.56v57" fill="none" stroke="#003a50" stroke-miterlimit="10" stroke-width="1.6"/><rect x="47.71" y="0.02" width="340.11" height="13.79" fill="#003a50"/><rect x="512.97" y="309.25" width="16.32" height="50.5" fill="#003a50"/><rect x="512.97" y="109.85" width="16.32" height="150.14" fill="#003a50"/><rect x="519.22" y="-6.19" width="10.07" height="146.2" fill="#003a50"/><rect x="514.89" y="-76.88" width="14.41" height="90.57" fill="#003a50"/><rect x="484.71" y="357.27" width="13.08" height="108.57" fill="#003a50"/><rect x="347.43" y="-83.39" width="13.79" height="92.76" fill="#003a50"/><rect x="47.71" y="349.11" width="481.51" height="13.79" fill="#003a50"/><rect x="438.76" y="0.02" width="90.53" height="13.79" fill="#003a50"/><rect x="293.72" y="12.15" width="16.75" height="137.86" fill="#003a50"/><rect x="305.27" y="134.47" width="187.78" height="16.79" fill="#003a50"/><rect x="484.71" y="109.85" width="34.51" height="10.82" fill="#003a50"/><rect x="482.8" y="110.62" width="10.82" height="39.39" fill="#003a50"/><rect x="25.54" y="124.75" width="26.18" height="90.85" fill="#003a50"/><rect x="3.37" y="189.68" width="44.35" height="25.92" fill="#003a50"/><rect x="25.54" y="-60.05" width="26.18" height="93.5" fill="#003a50"/><rect x="3.37" y="7.54" width="44.35" height="25.92" fill="#003a50"/><rect x="25.54" y="306.9" width="26.18" height="90.85" fill="#003a50"/><rect x="396.13" y="359.42" width="6.38" height="106.42" fill="#003a50"/><rect x="365.17" y="243.71" width="53.54" height="6.38" fill="#003a50"/><rect x="364.57" y="146.67" width="6.38" height="103.42" fill="#003a50"/><rect x="455.77" y="243.71" width="63.45" height="6.38" fill="#003a50"/></g><polygon points="489.38 190.03 489.38 196.4 519.22 196.4 519.22 190.11 493.51 190.11 493.51 190.03 489.38 190.03" fill="#003a50"/><polygon points="487.26 148.65 487.26 246.9 493.64 246.9 493.64 190.11 493.51 190.11 493.51 148.65 487.26 148.65" fill="#003a50"/><rect x="45.38" y="177.16" width="151.09" height="6.38" fill="#003a50"/><rect x="239.95" y="177.16" width="26.26" height="6.38" fill="#003a50"/><rect x="261.02" y="143.57" width="6.38" height="39.97" fill="#003a50"/><rect x="264.61" y="143.57" width="44.12" height="7.69" fill="#003a50"/><rect x="523.31" y="360.84" width="5.99" height="1.79" fill="#003a50"/><line x1="364.65" y1="314.81" x2="364.65" y2="248.4" fill="none" stroke="#003a50" stroke-miterlimit="10" stroke-dasharray="5.67 5.67"/><g clip-path="url(#clip-path)"><path d="M103.61,139.36l-2.49,1.95v-2.24l2.74-2.27h1.86v11.92h-2.11Z" fill="#003a50"/><path d="M114.45,138.65h-5.83V136.8h8.87v1.85L113,141.3v.06h1.28a3.87,3.87,0,0,1,2.79,1,3.5,3.5,0,0,1,1.06,2.67,3.32,3.32,0,0,1-1.33,2.82,7,7,0,0,1-7.25,0,3.36,3.36,0,0,1-1.33-2.86v-.32h2.11V145q0,2.06,2.85,2c1.89,0,2.84-.67,2.84-2s-1-2-2.84-2h-3.27V141.4l4.58-2.69Z" fill="#003a50"/><path d="M120.19,148.59a1.17,1.17,0,0,1,0-1.61,1.25,1.25,0,0,1,.88-.3,1.22,1.22,0,0,1,.86.3,1.17,1.17,0,0,1,0,1.61,1.22,1.22,0,0,1-.86.3A1.25,1.25,0,0,1,120.19,148.59Z" fill="#003a50"/><path d="M125.6,147.18a7.34,7.34,0,0,1,0-8.84,5.7,5.7,0,0,1,8.14,0,7.34,7.34,0,0,1,0,8.84,5.7,5.7,0,0,1-8.14,0Zm6.54-1.39a5,5,0,0,0,.87-3,5,5,0,0,0-.87-3,3.15,3.15,0,0,0-4.92,0,4.94,4.94,0,0,0-.88,3,4.89,4.89,0,0,0,.88,3,2.85,2.85,0,0,0,2.46,1.19A2.9,2.9,0,0,0,132.14,145.79Z" fill="#003a50"/><path d="M426.1,204.34h-5.83V202.5h8.87v1.84L424.61,207v.07h1.28a3.9,3.9,0,0,1,2.79,1,3.5,3.5,0,0,1,1.06,2.67,3.35,3.35,0,0,1-1.33,2.83,7,7,0,0,1-7.25,0,3.37,3.37,0,0,1-1.33-2.86v-.33h2.11v.33c0,1.36.95,2,2.84,2s2.85-.67,2.85-2-.95-2-2.85-2h-3.26v-1.67l4.58-2.68Z" fill="#003a50"/><path d="M431.84,214.28a1,1,0,0,1-.32-.8,1,1,0,0,1,.32-.81,1.41,1.41,0,0,1,1.74,0,1.07,1.07,0,0,1,.32.81,1,1,0,0,1-.32.8,1.41,1.41,0,0,1-1.74,0Z" fill="#003a50"/><path d="M439,214.42H436.6l5.42-10h-6.93V202.5h9.29v1.88Z" fill="#003a50"/><path d="M481.54,278.94h-2.11v-2.65h-7v-1.85l6.3-7.42h2.79v7.42h1.6v1.85h-1.6Zm-2.11-4.5v-5.33h-.07l-4.48,5.28v.05Z" fill="#003a50"/><path d="M484.82,278.8a1,1,0,0,1-.32-.8,1.07,1.07,0,0,1,.32-.81,1.25,1.25,0,0,1,.88-.3,1.2,1.2,0,0,1,.86.3,1,1,0,0,1,.33.81,1,1,0,0,1-.33.8,1.2,1.2,0,0,1-.86.3A1.25,1.25,0,0,1,484.82,278.8Z" fill="#003a50"/><path d="M489,275.59h2.22s0,.07,0,.18a2.36,2.36,0,0,0,.23.43,2.09,2.09,0,0,0,.41.48,2,2,0,0,0,.75.42,3.21,3.21,0,0,0,1.05.17,2.7,2.7,0,0,0,2.25-1.07,4.36,4.36,0,0,0,.8-2.71h-.06a2,2,0,0,1-.44.47,2.73,2.73,0,0,1-.6.4,4,4,0,0,1-.95.32,5.43,5.43,0,0,1-1.22.13,4.92,4.92,0,0,1-3.37-1.13,3.73,3.73,0,0,1,.05-5.72,5.52,5.52,0,0,1,3.61-1.11,4.81,4.81,0,0,1,3.87,1.55,6.38,6.38,0,0,1,1.32,4.27v.41a6.64,6.64,0,0,1-1.37,4.31,4.69,4.69,0,0,1-3.89,1.71,6,6,0,0,1-2.17-.37,3.86,3.86,0,0,1-1.48-1A3.33,3.33,0,0,1,489,275.59Zm2.78-3.17a3.6,3.6,0,0,0,3.95,0,1.86,1.86,0,0,0,.78-1.57,1.89,1.89,0,0,0-.77-1.58,3.24,3.24,0,0,0-2-.58,3.17,3.17,0,0,0-2,.58,2,2,0,0,0,0,3.15Z" fill="#003a50"/><path d="M104.21,241.69l-2.49,2V241.4l2.73-2.27h1.87v11.92h-2.11Z" fill="#003a50"/><path d="M117.52,250.29a7.73,7.73,0,0,1-7.37,0,2.94,2.94,0,0,1-1.37-2.56,2.73,2.73,0,0,1,.25-1.17,2.51,2.51,0,0,1,.66-.85,3.89,3.89,0,0,1,1.4-.77l.26-.07v-.09a3.38,3.38,0,0,1-.77-.29,2.91,2.91,0,0,1-.66-.44,2.21,2.21,0,0,1-.54-.76,2.42,2.42,0,0,1-.23-1,2.82,2.82,0,0,1,1.26-2.39,7,7,0,0,1,6.85,0,2.82,2.82,0,0,1,1.25,2.39,2.43,2.43,0,0,1-.22,1,2,2,0,0,1-.55.75,3.72,3.72,0,0,1-1.2.68l-.22.05v.09l.28.07a3.62,3.62,0,0,1,.62.26,4.79,4.79,0,0,1,.78.51,2.82,2.82,0,0,1,.61.82,2.71,2.71,0,0,1,.27,1.2A3,3,0,0,1,117.52,250.29Zm-5.79-1.36a4.88,4.88,0,0,0,4.2,0,1.6,1.6,0,0,0,0-2.7,4.93,4.93,0,0,0-4.2,0,1.51,1.51,0,0,0-.74,1.35A1.48,1.48,0,0,0,111.73,248.93Zm-.37-6.52a1.37,1.37,0,0,0,.65,1.19,3.22,3.22,0,0,0,1.82.44,3.25,3.25,0,0,0,1.83-.44,1.38,1.38,0,0,0,.64-1.19,1.36,1.36,0,0,0-.66-1.2,3.94,3.94,0,0,0-3.62,0A1.36,1.36,0,0,0,111.36,242.41Z" fill="#003a50"/><path d="M121,250.92a1.15,1.15,0,0,1,0-1.61,1.4,1.4,0,0,1,1.73,0,1.15,1.15,0,0,1,0,1.61,1.4,1.4,0,0,1-1.73,0Z" fill="#003a50"/><path d="M131.11,241h-5.82v-1.85h8.86V241l-4.53,2.65v.07h1.28a3.87,3.87,0,0,1,2.8,1,3.52,3.52,0,0,1,1.05,2.67,3.32,3.32,0,0,1-1.33,2.82,7,7,0,0,1-7.25,0,3.39,3.39,0,0,1-1.33-2.86V247H127v.32c0,1.37.94,2,2.84,2s2.84-.67,2.84-2-.95-2-2.84-2h-3.27v-1.67l4.58-2.69Z" fill="#003a50"/></g></svg>