<?xml version="1.0" encoding="utf-8"?>
<!-- Generator: Adobe Illustrator 27.0.0, SVG Export Plug-In . SVG Version: 6.00 Build 0)  -->
<svg version="1.1" id="_Слой_1" xmlns="http://www.w3.org/2000/svg" xmlns:xlink="http://www.w3.org/1999/xlink" x="0px"
	 y="0px" viewBox="0 0 1250.6 2638.2" style="enable-background:new 0 0 1250.6 2638.2;" xml:space="preserve">
<style type="text/css">
	.st0{opacity:1.000000e-02;}
	.st1{opacity:0.4;}
	.st2{fill:#91AAB6;}
	.st3{fill:#003A50;stroke:#003A50;stroke-width:0.52;stroke-miterlimit:10;}
	.st4{fill-rule:evenodd;clip-rule:evenodd;fill:#003A50;stroke:#003A50;stroke-width:0.52;stroke-miterlimit:10;}
	.st5{fill:#003A50;}
</style>
<g id="stikers" class="st0">
	<path id="s-fl78" d="M359.9,909.4h-318v125h318V909.4z"/>
	<path id="s-fl79" d="M359.9,603.4h-318v125h318V603.4z"/>
	<path id="s-fl80" d="M359.9,447.3h-318v125h318V447.3z"/>
	<path id="s-fl81" d="M359.9,157.4h-318v125h318V157.4L359.9,157.4z"/>
	<path id="s-fl82" d="M882.9,157.4h-318v125h318V157.4L882.9,157.4z"/>
	<path id="s-fl83" d="M882.9,603.4h-318v125h318V603.4z"/>
	<path id="s-fl84" d="M882.9,909.4h-318v125h318V909.4z"/>
	<path id="s-fl203" d="M1208.9,1389.4h-318v125h318V1389.4z"/>
	<path id="s-fl204" d="M1208.9,1886.4h-318v125h318V1886.4z"/>
	<path id="s-fl205" d="M1209.9,2357.6h-318v125h318V2357.6z"/>
	<path id="s-fl200" d="M485.9,2357.6h-318v125h318V2357.6z"/>
	<path id="s-fl201" d="M485.9,1886.4h-318v125h318V1886.4z"/>
	<path id="s-fl202" d="M485.9,1390.4h-318v125h318V1390.4z"/>
</g>
<g id="flats" class="st1">
	<path id="fl205" class="st2" d="M1241.9,2191.1H988.7V2091H759.6v157.8h-69v377.9h551.3L1241.9,2191.1L1241.9,2191.1z"/>
	<path id="fl204" class="st2" d="M876.9,1706.8V2098h114.3v95.1h250.7v-486.3H876.9z"/>
	<path id="fl203" class="st2" d="M876.9,1185.6h365v524.1h-365V1185.6z"/>
	<path id="fl202" class="st2" d="M474,1836.4h29.9v-149.5H474v-85.5h29.9V1390H137.2v488.4h337.2L474,1836.4z"/>
	<path id="fl201" class="st2" d="M365.9,2076h138v-195.2H136.8v316.1h229.5L365.9,2076L365.9,2076z"/>
	<path id="fl200" class="st2" d="M621.6,2247.6v-163.2H498.1v-7.9H361.3v116.3H136.8v434h553.8v-379.2L621.6,2247.6L621.6,2247.6z"
		/>
	<path id="fl84" class="st2" d="M501,766.1h412V1078H501V766.1L501,766.1z"/>
	<path id="fl83" class="st2" d="M683.9,455.1v116.3H501v194.8h412V455.1H683.9z"/>
	<path id="fl82" class="st2" d="M911.8,12.3H458.6v333.1H501v232.2h187.5v-118h225.8C914.3,459.6,911.8,12.3,911.8,12.3z"/>
	<path id="fl81" class="st2" d="M458.6,12.3H10v422.4h397.9v-89.3h50.7V12.3z"/>
	<path id="fl80" class="st2" d="M407.9,436.4H10v164.5h268.6v52.7h129.3L407.9,436.4L407.9,436.4z"/>
	<path id="fl79" class="st2" d="M278.6,658.1v-64H10v307.7h397.9V658.1H278.6L278.6,658.1z"/>
	<path id="fl78" class="st2" d="M298.5,1208.8h108.9v-309H10V1382h289L298.5,1208.8z"/>
</g>
<g id="walls_outside">
	<path id="Vector" class="st3" d="M297.3,0.3h13.3v42.4h-13.3V0.3z M899.7,0.3h24.1v24.1h-24.1V0.3z M881.4,129.4h42v13.7h-42V129.4
		z M888.9,1170.2h42v39.5h-42V1170.2z"/>
	<path id="Vector_2" class="st4" d="M1006.2,1209.3v-39.4l89.8,12v27.4H1006.2z"/>
	<path id="Vector_3" class="st3" d="M881.4,219.2h42v14.1h-42V219.2z M881.4,294.7h42v13.7h-42V294.7z M881.4,383.6h42v14.1h-42
		V383.6z M881.4,459.2h42v14.1h-42V459.2z M881.4,548.5h42v13.7h-42V548.5z M881.4,624.1h42v13.7h-42V624.1z M881.4,712.6h42v14.1
		h-42V712.6z M881.4,788.1h42v14.1h-42V788.1z M881.4,877.4h42v14.1h-42V877.4z M881.4,953h42v13.7h-42V953z M881.4,1043.6h42v14.1
		h-42V1043.6z"/>
	<path id="Vector_4" class="st3" d="M881.4,219.2H913v89.3h-31.6V219.2L881.4,219.2z M881.4,383.6H913v89.3h-31.6V383.6z
		 M881.4,548.5H913v89.3h-31.6V548.5z M881.4,713H913v89.3h-31.6V713z M881.4,887H913v73.1h-31.6V887z M881.4,1053.5H913v132.1
		h-31.6V1053.5z"/>
	<path id="Vector_5" class="st3" d="M881.4,1043.6h23.7v165.7h-23.7V1043.6z M1226.1,1170.2h23.7v39.5h-23.7V1170.2z M1208.7,1680.6
		h41.6v91.4h-41.6V1680.6z M1208.7,1845.1h33.3v91.4h-33.3V1845.1z"/>
	<path id="Vector_6" class="st3" d="M1217,1912.8h33.3v23.7H1217V1912.8z M1208.7,2174.5h33.3v91.4h-33.3V2174.5z M1208.7,2513h41.6
		v102.6h-41.6V2513z"/>
	<path id="Vector_7" class="st3" d="M1217,2242.2h33.3v23.7H1217V2242.2z M1208.7,1515.8h33.3v91.4h-33.3V1515.8z"/>
	<path id="Vector_8" class="st3" d="M1217,1583.5h33.3v23.7H1217V1583.5z"/>
	<path id="Vector_9" class="st4" d="M1208.7,2011.2v91.4h41.6l-10-91.4H1208.7z M1208.7,2431.1v-89.7h33.3l8.3,89.7H1208.7
		L1208.7,2431.1z"/>
	<path id="Vector_10" class="st3" d="M1208.7,2613h41.6v23.7h-41.6V2613z M1000.3,2590.2h71.9v24.1h-71.5L1000.3,2590.2z
		 M835.7,2590.2h71.5v24.1h-71.5V2590.2z"/>
	<path id="Vector_11" class="st3" d="M982.9,2605.2h89.4v31.6h-89.4V2605.2z M407.9,2605.2h89.4v31.6h-89.4V2605.2z M818.2,2605.2
		h89.4v19.9h-89.4V2605.2z"/>
	<path id="Vector_12" class="st4" d="M741.7,2636.7v-31.6h-89.4v21.6L741.7,2636.7z"/>
	<path id="Vector_13" class="st3" d="M563,2594.8h22.9v41.9H563V2594.8z M652.3,2590.2h71.6v31.6h-71.5L652.3,2590.2L652.3,2590.2z
		 M425.7,2590.2h71.5v31.6h-71.5V2590.2z M884.3,2617.2h23.3v19.9h-23.3V2617.2z M260.7,2590.2h71.9v24.1h-71.9V2590.2L260.7,2590.2
		z"/>
	<path id="Vector_14" class="st3" d="M243.2,2605.2h89.4v32.8h-89.4L243.2,2605.2L243.2,2605.2L243.2,2605.2z M125.1,2513.4h42
		v123.4h-42C125.1,2636.8,125.1,2513.4,125.1,2513.4z"/>
	<path id="Vector_15" class="st4" d="M156.3,2429.9v-90.5h-30.8l-1.2,90.5H156.3z"/>
	<path id="Vector_16" class="st3" d="M147.2,2339.3h20.4v90.5h-20.4V2339.3z M137.6,2175.7h29.9v89.7h-29.9V2175.7z"/>
	<path id="Vector_17" class="st4" d="M167.6,2012.5v89.7H126l9.6-89.7H167.6z"/>
	<path id="Vector_18" class="st3" d="M137.6,1846h29.9v89.7h-29.9V1846z M125.6,1681.5h47v89.7h-47V1681.5z M137.6,1515.4h34.9v89.7
		h-34.9V1515.4z"/>
	<path id="Vector_19" class="st5" d="M35.8,1374.6h461.1v15.4H35.8V1374.6z M160.9,1875h343v11.6h-343V1875z"/>
	<path id="Vector_20" class="st5" d="M288.5,1201h15.4v178.6h-15.4V1201z M489.8,1342.2h14.6v344.7h-14.6V1342.2z"/>
	<path id="Vector_21" class="st5" d="M489.8,1680.6h14.6v36.1h-14.6V1680.6z"/>
	<path id="Vector_22" class="st5" d="M431.6,1680.6H501v14.5h-69.4V1680.6z M489.8,1758.7h14.6v119.6h-14.6V1758.7z"/>
	<path id="Vector_23" class="st5" d="M489.8,1875.8h14.6v114.6h-14.6V1875.8z M355.1,2067.7h139.7v14.5H355.1V2067.7z M496.4,2084.3
		h23.7v14.5h-23.7V2084.3z M561.7,2084.3h59v14.5h-59V2084.3z M759.6,2091h59.9v14.5h-59.9V2091L759.6,2091z M861.5,2091h136v14.5
		h-136V2091z M886.4,1700.2h338.9v14.5H886.4V1700.2z M982.5,2186.5h231.6v14.5H982.5V2186.5z M615.3,2241.3h150.6v12.5H615.3
		L615.3,2241.3L615.3,2241.3z M615.3,1965.1h38.3v12.5h-38.3V1965.1z M714.3,1965.1h51.6v12.5h-51.6V1965.1z"/>
	<path id="Vector_24" class="st5" d="M355.1,2067.7h14.6v132.5h-14.6V2067.7z M379.6,2288.3h14.6v70.6h-14.6V2288.3z M876.9,2261.3
		h14.6v75.2h-14.6V2261.3z M876.9,1862.6h14.6v356.8h-14.6V1862.6z M876.9,1645.8h14.6v174.8h-14.6V1645.8z M982.5,2091h14.6v109.6
		h-14.6V2091z M681.9,2249.6h14.6v352.6h-14.6V2249.6z"/>
	<path id="Vector_25" class="st5" d="M160.1,2185.7h209.1v14.5H160.1V2185.7z M489.8,2032.4h14.6v167.4h-14.6V2032.4L489.8,2032.4z
		 M615.3,1965.1h12.5v288.6h-12.5V1965.1L615.3,1965.1z M753.4,1965.6h12.5v288.2h-12.5V1965.6z M392.5,1095.9h15.4v120.4h-15.4
		V1095.9z M392.5,795.2h15.4v257.5h-15.4V795.2L392.5,795.2z M392.5,524.8h15.4v228.8h-15.4V524.8z M392.5,399.8h15.4v83.1h-15.4
		V399.8z M501,338.4h15.4v55.2H501V338.4z M501,435.1h15.4v97.2H501V435.1z M501,568h15.4v52.7H501V568z M679.4,449.2h15.4v133.3
		h-15.4V449.2z M501,662.3h15.4v135.4H501V662.3z M501,910.2h15.4V926H501V910.2z"/>
	<path id="Vector_26" class="st5" d="M513.9,910.2h30.8v11.2h-30.8V910.2z M506,761.6h396.2v12H506L506,761.6L506,761.6z M506,568
		h188.3v14.5H506L506,568L506,568z M506,522.3h31.6v10.4H506V522.3z"/>
	<path id="Vector_27" class="st5" d="M526.8,528.6h10.8V573h-10.8V528.6z M679.4,449.2h217v14.5h-217V449.2z M679.4,229.5h217V244
		h-217V229.5z M158.8,227.9h70.3V242h-70.3V227.9L158.8,227.9z M529.3,767h15.4v152.8h-15.4V767z M501,968h15.4v116.7H501L501,968
		L501,968z M603.3,1081.8h12.5V1213h-12.5V1081.8z M876.9,1076h14.6v528.3h-14.6V1076z"/>
	<path id="Vector_28" class="st5" d="M501,1071.4h401.6v12.9H501V1071.4z M501,1205.1h52.8v9.6H501V1205.1z M398.3,1204.3h9.6v37
		h-9.6V1204.3z M398.3,1282.8h9.6v99.3h-9.6V1282.8z"/>
	<path id="Vector_29" class="st5" d="M501,1208h9.6v37.4H501V1208z M195.4,1143.2H210v71.4h-14.6V1143.2z M501,1309.4h9.6v37.4H501
		V1309.4z"/>
	<path id="Vector_30" class="st5" d="M495.6,1342.2h41.2v12.5h-41.2L495.6,1342.2L495.6,1342.2z M588.7,1342.2h63.6v12.5h-63.6
		V1342.2z M704.7,1342.2h49.1v12.5h-49.1V1342.2z M804.9,1342.2h32.4v12.5h-32.4V1342.2z M498.1,1446h384.2v12.5H498.1L498.1,1446
		L498.1,1446z M498.1,1549.8h121.4v12.5H498.1L498.1,1549.8L498.1,1549.8z M670.2,1549.8h41.2v12.5h-41.2V1549.8z M600.4,1680.6
		h37.8v12.5h-37.8V1680.6z"/>
	<path id="Vector_31" class="st5" d="M600.4,1680.6h12.5V1784h-12.5V1680.6z M577.5,1680.6h11.6v162h-11.6V1680.6z M577.5,1884.2
		h11.6v18.7h-11.6V1884.2z M643.2,1900.4h10.4v71h-10.4V1900.4z M714.3,1890.4h10.4v81h-10.4V1890.4z M714.3,1782h10.4v70.6h-10.4
		V1782z M792.9,1784.1h10.4v68.1h-10.4V1784.1z"/>
	<path id="Vector_32" class="st5" d="M587.5,1893.7h77.3v9.1h-77.3V1893.7z M702.2,1893.7h21.7v9.1h-21.6v-9.1H702.2L702.2,1893.7z
		 M748.4,1680.6h12.5V1784h-12.5V1680.6z M577.5,1778.2h61.1v12.5h-61.1V1778.2z M742.6,1784.1h61.1v6.2h-61.1V1784.1L742.6,1784.1z
		"/>
	<path id="Vector_33" class="st5" d="M742.6,1680.6h61.1v6.2h-61.1V1680.6L742.6,1680.6z M577.5,1680.6h32v6.2h-32V1680.6z
		 M577.5,1759.6h32v6.2h-32V1759.6z"/>
	<path id="Vector_34" class="st5" d="M780,1684.4h6.2v103H780V1684.4z M797.5,1684.4h6.2v103h-6.2V1684.4z M708.1,1778.2h52.8v12.5
		h-52.8V1778.2z M708.9,1680.6h51.6v12.5h-51.6V1680.6z M762.9,1549.8h27.4v12.5h-27.4V1549.8z M824.9,1348.4h12.5v105.9h-12.5
		V1348.4z"/>
	<path id="Vector_35" class="st5" d="M827.4,1208h9.6v141.2h-9.6V1208z M723.9,1348.4h9.6v104.7h-9.6V1348.4z M622,1348.4h9.6v104.7
		H622V1348.4z M592.9,1450.2h9.6v104.7h-9.6V1450.2z M685.2,1450.2h9.6v104.7h-9.6V1450.2z M780.8,1450.2h9.6v104.7h-9.6V1450.2z
		 M595.8,1205.1h23.7v9.6h-23.7V1205.1z"/>
	<path id="Vector_36" class="st5" d="M660.7,1202.6h228.2v12H660.7V1202.6z M392.5,338.4h15.4v19.9h-15.4V338.4z"/>
	<path id="Vector_37" class="st5" d="M399.1,338.4h110.2v15.8H399.1L399.1,338.4L399.1,338.4z M32.4,432.2H397V448H32.4V432.2z
		 M32.4,588h252.8v15.8H32.4V588z M269.8,648.2h133V664h-133V648.2L269.8,648.2z"/>
	<path id="Vector_38" class="st5" d="M269.8,588h15.8v75.6h-15.8V588L269.8,588z M451.1,31.9h15.8V345h-15.8V31.9z M288.5,1201
		h118.9v15.4H288.5V1201z M35.8,894.5h365.1v15.4H35.8V894.5z"/>
	<path id="Vector_39" class="st3" d="M12.9,1195.6h28.7v91H12.9V1195.6z M12.9,1030.7h28.7v91H12.9V1030.7z M12.9,866.2h28.7v91
		H12.9V866.2z M12.9,700.5h28.7v91.4H12.9V700.5z M12.9,534.4h28.7v91.4H12.9V534.4z M12.9,370.7h28.7v91H12.9V370.7z M12.9,206.7
		h28.7v91H12.9V206.7z"/>
	<path id="Vector_40" class="st3" d="M11.6,1195.6h29.9v91H11.6V1195.6L11.6,1195.6z"/>
	<path id="Vector_41" class="st3" d="M0.8,1273.2h40.7v13.7H0.8V1273.2L0.8,1273.2z M0.8,1195.6h40.7v14.5H0.8V1195.6L0.8,1195.6z
		 M0.8,1107.5h40.7v14.5H0.8V1107.5L0.8,1107.5z M0.8,1030.7h40.7v15H0.8V1030.7L0.8,1030.7z M0.8,866.2h40.7v15H0.8V866.2
		L0.8,866.2z M0.8,776.9h40.7v15H0.8V776.9L0.8,776.9z M0.8,700.5h40.7v15H0.8V700.5L0.8,700.5z M0.8,534.4h40.7v15H0.8V534.4
		L0.8,534.4z M0.8,370.7h40.7v15H0.8V370.7L0.8,370.7z M0.8,206.7h40.7v14.5H0.8V206.7L0.8,206.7z M0.8,282.7h40.7v15H0.8V282.7
		L0.8,282.7z M0.8,447.2h40.7v15H0.8V447.2L0.8,447.2z M0.8,610.8h40.7v15H0.8V610.8L0.8,610.8z M0.8,942.6h40.7v15H0.8V942.6
		L0.8,942.6z"/>
	<path id="Vector_42" class="st3" d="M11.6,1030.7h29.9v91H11.6V1030.7L11.6,1030.7z M11.6,866.2h29.9v91H11.6V866.2L11.6,866.2z
		 M11.6,700.5h29.9v91.4H11.6V700.5L11.6,700.5z M10,534.4h31.2v91.4H10V534.4L10,534.4z M10,370.7h31.2v91H10V370.7L10,370.7z
		 M11.6,206.7h29.9v91H11.6V206.7L11.6,206.7z M0.8,115.3h40.7v16.2H0.8V115.3C0.8,115.3,0.8,115.3,0.8,115.3z"/>
	<path id="Vector_43" class="st3" d="M0.8,115.3h40.7v16.2H0.8V115.3C0.8,115.3,0.8,115.3,0.8,115.3z M125.6,1582.2h34.9v22.4h-34.9
		V1582.2z M126.4,2241.3h29.9v24.1h-29.9V2241.3z M126.4,1911.6h29.9v24.1h-29.9V1911.6z"/>
	<path id="Vector_44" class="st4" d="M1208.7,1441.8v-91h33.3l8.3,91H1208.7L1208.7,1441.8z"/>
	<path id="Vector_45" class="st3" d="M1207.8,1191h33.3v86h-33.3V1191z"/>
	<path id="Vector_46" class="st3" d="M1172.1,1179h61.1v37.4h-61.1V1179z M0.8,0.3h24.1v24.1H0.8V0.3z M145.5,12.7h91.1V43h-91.1
		V12.7z"/>
	<path id="Vector_47" class="st3" d="M145.5,0.3h13.3v42.4h-13.3V0.3z M223.3,0.3h13.3v42.4h-13.3V0.3z M386.2,0.3h13.3v42.4h-13.3
		V0.3z M463.6,0.3h13.3v42.4h-13.3V0.3z M551.7,0.3H565v42.4h-13.3V0.3z M628.6,0.3h13.3v42.4h-13.3V0.3z M702.2,0.3h13.3v42.4
		h-13.3V0.3z M779.2,0.3h13.3v42.4h-13.3V0.3z"/>
	<path id="Vector_48" class="st3" d="M386.2,12.7h90.7V43h-90.6V12.7H386.2z M551.7,12.7h90.6V43h-90.6V12.7z M702.2,12.7h90.6V43
		h-90.6V12.7z M10,1375.8h139.7v37.4H10V1375.8z"/>
	<path id="Vector_49" class="st3" d="M0,1398.6h24.5v23.3H0.4v-23.3H0z"/>
	<path id="Vector_50" class="st3" d="M10,1359.6h31.6v44.9H10V1359.6z M133.9,1375.8h33.3v66h-33.3V1375.8z"/>
	<path id="Vector_51" class="st3" d="M125.1,1382h24.1v39.9h-24.1V1382z"/>
</g>
</svg>
