<?xml version="1.0" encoding="utf-8"?>
<!-- Generator: Adobe Illustrator 27.0.0, SVG Export Plug-In . SVG Version: 6.00 Build 0)  -->
<svg version="1.1" id="_Слой_1" xmlns="http://www.w3.org/2000/svg" xmlns:xlink="http://www.w3.org/1999/xlink" x="0px"
	 y="0px" viewBox="0 0 1250.6 2640.8" style="enable-background:new 0 0 1250.6 2640.8;" xml:space="preserve">
<style type="text/css">
	.st0{opacity:1.000000e-02;}
	.st1{opacity:0.4;}
	.st2{fill:#91AAB6;}
	.st3{fill:#003A50;stroke:#003A50;stroke-width:0.52;stroke-miterlimit:10;}
	.st4{fill-rule:evenodd;clip-rule:evenodd;fill:#003A50;stroke:#003A50;stroke-width:0.52;stroke-miterlimit:10;}
	.st5{fill:#003A50;}
</style>
<g id="stikers" class="st0">
	<path id="s-fl85" d="M361.9,910.4h-318v125h318V910.4z"/>
	<path id="s-fl86" d="M361.9,605.4h-318v125h318V605.4z"/>
	<path id="s-fl87" d="M361.9,448.9h-318v125h318V448.9z"/>
	<path id="s-fl88" d="M361.9,165.4h-318v125h318V165.4L361.9,165.4z"/>
	<path id="s-fl89" d="M881.9,165.4h-318v125h318V165.4L881.9,165.4z"/>
	<path id="s-fl90" d="M881.9,605.4h-318v125h318V605.4z"/>
	<path id="s-fl91" d="M881.9,910.4h-318v125h318V910.4z"/>
	<path id="s-fl209" d="M1208.9,1391.4h-318v125h318V1391.4z"/>
	<path id="s-fl210" d="M1208.9,1889.4h-318v125h318V1889.4z"/>
	<path id="s-fl211" d="M1208.9,2360.4h-318v125h318V2360.4z"/>
	<path id="s-fl206" d="M487.9,2360.4h-318v125h318V2360.4z"/>
	<path id="s-fl207" d="M487.9,1889.4h-318v125h318V1889.4z"/>
	<path id="s-fl208" d="M487.9,1391.4h-318v125h318V1391.4z"/>
</g>
<g id="flats" class="st1">
	<path id="fl211" class="st2" d="M1208.7,2252.2v-57.8H988.8v-100.2H759.6v158h-69v347.2h518.5L1208.7,2252.2L1208.7,2252.2z"/>
	<path id="fl210" class="st2" d="M876.9,1709.1v391.7h114.3v95.2h217.9v-487H876.9L876.9,1709.1L876.9,1709.1z"/>
	<path id="fl209" class="st2" d="M876.9,1210.9h332.2V1712H876.9L876.9,1210.9L876.9,1210.9z"/>
	<path id="fl208" class="st2" d="M474,1838.8h29.9v-149.7H474v-85.7h29.9v-211.7H167.1v489h306.8v-41.9L474,1838.8L474,1838.8z"/>
	<path id="fl207" class="st2" d="M365.9,2078.7h138v-195.5H168v316.5h198.3L365.9,2078.7z"/>
	<path id="fl206" class="st2" d="M621.6,2250.5v-163.4H498.1v-7.9H361.3v116.4H168V2599h522.6v-348.5H621.6z"/>
	<path id="fl91" class="st2" d="M501,767.2h380.4v312.3H501V767.2z"/>
	<path id="fl90" class="st2" d="M683.9,455.7v116.4H501v195h380.4V455.7H683.9z"/>
	<path id="fl89" class="st2" d="M881.4,234.5V43.2H458.6v302.7H501v232.5h187.5V460.3h192.9V234.5z"/>
	<path id="fl88" class="st2" d="M458.6,42.7H42.4v392.6h365.1v-89.4h50.7C458.2,345.9,458.6,42.7,458.6,42.7z"/>
	<path id="fl87" class="st2" d="M407.9,437H42.4v164.7h235.7v52.8h129.3L407.9,437L407.9,437z"/>
	<path id="fl86" class="st2" d="M278.6,659v-64H42.4v308.1h365.1V659L278.6,659L278.6,659z"/>
	<path id="fl85" class="st2" d="M298.5,1210.5h108.9V901.1h-365v482.8h256.1V1210.5L298.5,1210.5z"/>
</g>
<g id="walls_outside">
	<path id="Vector" class="st3" d="M297.3,0.3h13.3v42.4h-13.3V0.3z M899.7,0.3h24.1v24.1h-24.1V0.3z M881.4,129.7h42v13.7h-42V129.7
		z M888.9,1171.8h42v39.5h-42V1171.8z"/>
	<path id="Vector_2" class="st4" d="M1006.2,1210.9v-39.5l89.8,12.1v27.4H1006.2z"/>
	<path id="Vector_3" class="st3" d="M881.4,219.5h42v14.1h-42V219.5z M881.4,295.2h42v13.7h-42V295.2z M881.4,384.2h42v14.1h-42
		V384.2z M881.4,459.8h42v14.1h-42V459.8z M881.4,549.3h42V563h-42V549.3z M881.4,624.9h42v13.7h-42V624.9z M881.4,713.5h42v14.1
		h-42V713.5z M881.4,789.2h42v14.1h-42V789.2z M881.4,878.6h42v14.1h-42V878.6z M881.4,954.3h42V968h-42V954.3z M881.4,1044.9h42
		v14.1h-42V1044.9z"/>
	<path id="Vector_4" class="st3" d="M881.4,219.5H913v89.4h-31.6V219.5L881.4,219.5z M881.4,384.2H913v89.4h-31.6V384.2z
		 M881.4,549.3H913v89.4h-31.6V549.3z M881.4,713.9H913v89.4h-31.6V713.9z M881.4,888.2H913v73.2h-31.6V888.2z M881.4,1054.9H913
		v132.2h-31.6V1054.9z"/>
	<path id="Vector_5" class="st3" d="M881.4,1044.9h23.7v165.9h-23.7V1044.9z M1226.1,1171.8h23.7v39.5h-23.7V1171.8z M1208.7,1682.9
		h41.6v91.5h-41.6V1682.9z M1208.7,1847.5h33.3v91.5h-33.3V1847.5z"/>
	<path id="Vector_6" class="st3" d="M1217,1915.3h33.3v23.7H1217V1915.3z M1208.7,2177.3h33.3v91.5h-33.3V2177.3z"/>
	<path id="Vector_7" class="st3" d="M1217,2245.1h33.3v23.7H1217V2245.1z M1208.7,1517.8h33.3v91.5h-33.3V1517.8z"/>
	<path id="Vector_8" class="st3" d="M1217,1585.6h33.3v23.7H1217V1585.6z"/>
	<path id="Vector_9" class="st4" d="M1208.7,2013.9v91.5h41.6l-10-91.5L1208.7,2013.9L1208.7,2013.9z M1208.7,2434.3v-89.8h33.3
		l8.3,89.8H1208.7L1208.7,2434.3z"/>
	<path id="Vector_10" class="st3" d="M1208.7,2519.1h41.6v121h-41.6V2519.1z"/>
	<path id="Vector_11" class="st3" d="M1209.1,2599.4h10.4v41.2h-10.4V2599.4z M1000.3,2593.6h71.9v24.1h-71.5L1000.3,2593.6
		L1000.3,2593.6z M835.7,2593.6h71.5v24.1h-71.5V2593.6z"/>
	<path id="Vector_12" class="st3" d="M982.9,2608.5h89.4v31.6h-89.4V2608.5z M407.9,2608.5h89.4v22.9h-89.4V2608.5z M818.2,2608.5
		h89.4v20h-89.4V2608.5z"/>
	<path id="Vector_13" class="st4" d="M741.7,2640.1v-31.6h-89.4v21.6L741.7,2640.1z"/>
	<path id="Vector_14" class="st3" d="M563,2598.1h22.9v42H563V2598.1z M652.3,2593.6h71.6v31.6h-71.5L652.3,2593.6L652.3,2593.6z
		 M425.7,2593.6h71.5v31.6h-71.5V2593.6z M884.3,2620.6h23.3v20h-23.3V2620.6z M260.7,2593.6h71.9v24.1h-71.9V2593.6L260.7,2593.6z"
		/>
	<path id="Vector_15" class="st3" d="M243.2,2608.5h89.4v20h-89.4L243.2,2608.5L243.2,2608.5L243.2,2608.5z"/>
	<path id="Vector_16" class="st3" d="M243.2,2620.6h89.4v20h-89.4L243.2,2620.6L243.2,2620.6L243.2,2620.6z M125.1,2519.5h42v121
		h-42C125.1,2640.5,125.1,2519.5,125.1,2519.5z"/>
	<path id="Vector_17" class="st4" d="M156.3,2433v-90.6h-21.2l-10.8,90.7L156.3,2433L156.3,2433L156.3,2433z"/>
	<path id="Vector_18" class="st3" d="M147.2,2342.4h20.4v90.7h-20.4V2342.4z M137.6,2178.5h29.9v89.8h-29.9V2178.5z"/>
	<path id="Vector_19" class="st4" d="M167.6,2015.1v89.8H126l9.6-89.8H167.6z"/>
	<path id="Vector_20" class="st3" d="M137.6,1848.4h29.9v89.8h-29.9V1848.4z M125.6,1683.7h47v89.8h-47V1683.7z M137.6,1517.3h34.9
		v89.8h-34.9V1517.3z"/>
	<path id="Vector_21" class="st5" d="M35.8,1376.4h461.1v15.4H35.8V1376.4z M160.9,1877.5h343v11.7h-343V1877.5z"/>
	<path id="Vector_22" class="st5" d="M288.5,1202.6h15.4v178.8h-15.4V1202.6z M489.8,1343.9h14.6v346.4h-14.6V1343.9z"/>
	<path id="Vector_23" class="st5" d="M489.8,1682.9h14.6v36.2h-14.6V1682.9z"/>
	<path id="Vector_24" class="st5" d="M431.6,1682.9H501v14.6h-69.4V1682.9z M489.8,1761h14.6v122.2h-14.6V1761z"/>
	<path id="Vector_25" class="st5" d="M489.8,1878.3h14.6v114.8h-14.6V1878.3z M355.1,2070.4h139.7v14.6H355.1V2070.4z M496.4,2087.1
		h23.7v14.6h-23.7V2087.1z M561.7,2087.1h59v14.6h-59V2087.1z M759.6,2093.7h59.9v14.6h-59.9V2093.7L759.6,2093.7z M861.5,2093.7
		h136v14.6h-136V2093.7z M886.4,1702.4h338.9v14.6H886.4V1702.4z M982.5,2189.4h231.6v14.6H982.5V2189.4z M615.3,2244.3h150.6v12.5
		H615.3L615.3,2244.3L615.3,2244.3z M615.3,1967.7h38.3v12.5h-38.3V1967.7z M714.3,1967.7h51.6v12.5h-51.6V1967.7z"/>
	<path id="Vector_26" class="st5" d="M355.1,2070.4h14.6V2203h-14.6V2070.4z M379.6,2291.2h14.6v70.7h-14.6V2291.2z M876.9,2264.2
		h14.6v75.3h-14.6V2264.2z M876.9,1865h14.6v357.2h-14.6V1865z M876.9,1647.9h14.6V1823h-14.6V1647.9z M982.5,2093.7h14.6v109.8
		h-14.6V2093.7z M681.9,2252.6h14.6v353.1h-14.6V2252.6z"/>
	<path id="Vector_27" class="st5" d="M160.1,2188.5h209.1v14.6H160.1V2188.5z M489.8,2035.1h14.6v167.6h-14.6V2035.1z M615.3,1967.7
		h12.5v289h-12.5V1967.7z M753.4,1968.1h12.5v288.6h-12.5V1968.1z M392.5,1097.3h15.4v120.6h-15.4V1097.3z M392.5,796.3h15.4v257.8
		h-15.4V796.3L392.5,796.3z M392.5,525.5h15.4v229.1h-15.4V525.5L392.5,525.5z M392.5,400.4h15.4v83.2h-15.4V400.4L392.5,400.4z
		 M501,338.8h15.4v55.3H501V338.8z M501,435.7h15.4V533H501V435.7L501,435.7z M501,568.8h15.4v52.8H501V568.8z M679.4,449.9h15.4
		v133.5h-15.4V449.9L679.4,449.9z M501,663.2h15.4v135.6H501V663.2z M501,911.5h15.4v15.8H501V911.5z"/>
	<path id="Vector_28" class="st5" d="M513.9,911.5h30.8v11.2h-30.8V911.5z M506,762.6h396.2v12.1H506L506,762.6L506,762.6z
		 M506,568.8h188.3v14.6H506L506,568.8L506,568.8z M506,523.1h31.6v10.3H506V523.1z"/>
	<path id="Vector_29" class="st5" d="M526.8,529.3h10.8v44.5h-10.8V529.3z M679.4,449.9h217v14.5h-217V449.9z M679.4,229.9h217v14.5
		h-217V229.9z M158.8,228.2h70.3v14.2h-70.3V228.2L158.8,228.2z M529.3,768h15.4v153h-15.4V768z M501,969.3h15.4v116.8H501
		L501,969.3L501,969.3z M603.3,1083.2h12.5v131.4h-12.5V1083.2z M876.9,1077.4h14.6v529h-14.6V1077.4z"/>
	<path id="Vector_30" class="st5" d="M501,1072.8h401.6v12.9H501V1072.8z M501,1206.7h52.8v9.6H501V1206.7z M398.3,1205.9h9.6v37
		h-9.6V1205.9z M398.3,1284.5h9.6v99.4h-9.6V1284.5z"/>
	<path id="Vector_31" class="st5" d="M501,1209.6h9.6v37.4H501V1209.6z M195.4,1144.7H210v71.5h-14.6V1144.7z M501,1311.1h9.6v37.4
		H501V1311.1z"/>
	<path id="Vector_32" class="st5" d="M495.6,1343.9h41.2v12.5h-41.2L495.6,1343.9L495.6,1343.9z M588.7,1343.9h63.6v12.5h-63.6
		V1343.9z M704.7,1343.9h49.1v12.5h-49.1V1343.9z M804.9,1343.9h32.4v12.5h-32.4V1343.9z M498.1,1447.9h384.2v12.5H498.1
		L498.1,1447.9L498.1,1447.9z M498.1,1551.9h121.4v12.5H498.1L498.1,1551.9L498.1,1551.9z M670.2,1551.9h41.2v12.5h-41.2V1551.9z
		 M600.4,1682.9h37.8v12.5h-37.8V1682.9z"/>
	<path id="Vector_33" class="st5" d="M600.4,1682.9h12.5v103.5h-12.5V1682.9z M577.5,1682.9h11.6v162.2h-11.6V1682.9z M577.5,1886.6
		h11.6v18.7h-11.6V1886.6z M643.2,1902.8h10.4v71.1h-10.4V1902.8z M714.3,1892.9h10.4v81.1h-10.4V1892.9z M714.3,1784.3h10.4v70.7
		h-10.4V1784.3z M792.9,1786.4h10.4v68.2h-10.4V1786.4z"/>
	<path id="Vector_34" class="st5" d="M587.5,1896.2h77.3v9.1h-77.3V1896.2z M702.2,1896.2h21.7v9.1h-21.6v-9.1H702.2L702.2,1896.2z
		 M748.4,1682.9h12.5v103.5h-12.5V1682.9z M577.5,1780.6h61.1v12.5h-61.1V1780.6z M742.6,1786.4h61.1v6.2h-61.1V1786.4L742.6,1786.4
		z"/>
	<path id="Vector_35" class="st5" d="M742.6,1682.9h61.1v6.2h-61.1V1682.9L742.6,1682.9z M577.5,1682.9h32v6.2h-32V1682.9z
		 M577.5,1761.9h32v6.2h-32V1761.9z"/>
	<path id="Vector_36" class="st5" d="M780,1686.6h6.2v103.1H780V1686.6z M797.5,1686.6h6.2v103.1h-6.2V1686.6z M708.1,1780.6h52.8
		v12.5h-52.8V1780.6z M708.9,1682.9h51.6v12.5h-51.6V1682.9z M762.9,1551.9h27.4v12.5h-27.4V1551.9z M824.9,1350.2h12.5v106h-12.5
		V1350.2z"/>
	<path id="Vector_37" class="st5" d="M827.4,1209.6h9.6V1351h-9.6V1209.6z M723.9,1350.2h9.6V1455h-9.6V1350.2z M622,1350.2h9.6
		V1455H622V1350.2z M592.9,1452.1h9.6v104.8h-9.6V1452.1z M685.2,1452.1h9.6v104.8h-9.6V1452.1z M780.8,1452.1h9.6v104.8h-9.6
		V1452.1z M595.8,1206.7h23.7v9.6h-23.7V1206.7z"/>
	<path id="Vector_38" class="st5" d="M660.7,1204.2h228.2v12.1H660.7V1204.2z M392.5,338.8h15.4v20h-15.4V338.8z"/>
	<path id="Vector_39" class="st5" d="M399.1,338.8h110.2v15.8H399.1L399.1,338.8L399.1,338.8z M32.4,432.8H397v15.8H32.4V432.8z
		 M32.4,588.8h252.8v15.8H32.4V588.8z M269.8,649.1h133v15.8h-133V649.1L269.8,649.1z"/>
	<path id="Vector_40" class="st5" d="M269.8,588.8h15.8v75.6h-15.8V588.8L269.8,588.8z M451.1,31.9h15.8v313.6h-15.8V31.9z
		 M288.5,1202.6h118.9v15.4H288.5V1202.6z M35.8,895.7h365.1v15.4H35.8V895.7z"/>
	<path id="Vector_41" class="st3" d="M12.9,1197.1h28.7v91.1H12.9V1197.1z M12.9,1032.1h28.7v91.1H12.9V1032.1z M12.9,867.4h28.7v91
		H12.9V867.4z M12.9,701.5h28.7V793H12.9V701.5z M12.9,535.1h28.7v91.5H12.9V535.1z M12.9,371.3h28.7v91.1H12.9V371.3z M12.9,207
		h28.7v91.1H12.9V207L12.9,207z"/>
	<path id="Vector_42" class="st3" d="M11.6,1197.1h29.9v91.1H11.6V1197.1L11.6,1197.1z"/>
	<path id="Vector_43" class="st3" d="M0.8,1274.9h40.7v13.7H0.8V1274.9L0.8,1274.9z M0.8,1197.1h40.7v14.6H0.8V1197.1L0.8,1197.1z
		 M0.8,1109h40.7v14.6H0.8V1109L0.8,1109z M0.8,1032.1h40.7v15H0.8V1032.1L0.8,1032.1z M0.8,867.4h40.7v15H0.8V867.4L0.8,867.4z
		 M0.8,778h40.7v15H0.8V778L0.8,778z M0.8,701.5h40.7v15H0.8V701.5L0.8,701.5z M0.8,535.1h40.7v15H0.8V535.1L0.8,535.1z M0.8,371.3
		h40.7v15H0.8V371.3L0.8,371.3z M0.8,207h40.7v14.6H0.8V207L0.8,207z M0.8,283.1h40.7v15H0.8V283.1L0.8,283.1z M0.8,447.8h40.7v15
		H0.8V447.8L0.8,447.8z M0.8,611.6h40.7v15H0.8V611.6L0.8,611.6z M0.8,943.9h40.7v15H0.8V943.9L0.8,943.9z"/>
	<path id="Vector_44" class="st3" d="M11.6,1032.1h29.9v91.1H11.6V1032.1L11.6,1032.1z M11.6,867.4h29.9v91H11.6V867.4L11.6,867.4z
		 M11.6,701.5h29.9V793H11.6V701.5L11.6,701.5z M10,535.1h31.2v91.5H10V535.1L10,535.1z M10,371.3h31.2v91.1H10V371.3L10,371.3z
		 M11.6,207h29.9v91.1H11.6V207L11.6,207L11.6,207z M0.8,115.5h40.7v16.2H0.8V115.5C0.8,115.5,0.8,115.5,0.8,115.5z"/>
	<path id="Vector_45" class="st3" d="M0.8,115.5h40.7v16.2H0.8V115.5C0.8,115.5,0.8,115.5,0.8,115.5z M125.6,1584.3h34.9v22.5h-34.9
		V1584.3z M126.4,2244.3h29.9v24.1h-29.9V2244.3z M126.4,1914.1h29.9v24.1h-29.9V1914.1z"/>
	<path id="Vector_46" class="st4" d="M1208.7,1443.7v-91.1h32.4l9.1,91.1H1208.7z"/>
	<path id="Vector_47" class="st3" d="M1207.8,1192.6h33.3v86.1h-33.3V1192.6z"/>
	<path id="Vector_48" class="st3" d="M1172.1,1180.5h61.1v37.4h-61.1V1180.5z M0.8,0.3h24.1v24.1H0.8V0.3z M145.5,12.8h91.1v30.4
		h-91.1V12.8z"/>
	<path id="Vector_49" class="st3" d="M145.5,0.3h13.3v42.4h-13.3V0.3z M223.3,0.3h13.3v42.4h-13.3V0.3z M386.2,0.3h13.3v42.4h-13.3
		V0.3z M463.6,0.3h13.3v42.4h-13.3V0.3z M551.7,0.3H565v42.4h-13.3V0.3z M628.6,0.3h13.3v42.4h-13.3V0.3z M702.2,0.3h13.3v42.4
		h-13.3V0.3z M779.2,0.3h13.3v42.4h-13.3V0.3z"/>
	<path id="Vector_50" class="st3" d="M386.2,12.8h90.7v30.4h-90.6V12.8H386.2z M551.7,12.8h90.6v30.4h-90.6V12.8z M702.2,12.8h90.6
		v30.4h-90.6V12.8z M10,1377.6h139.7v37.4H10V1377.6z"/>
	<path id="Vector_51" class="st3" d="M0,1400.5h24.5v23.3H0.4v-23.3H0z"/>
	<path id="Vector_52" class="st3" d="M10,1361.4h31.6v44.9H10V1361.4z M133.9,1377.6h33.3v66.1h-33.3V1377.6z"/>
	<path id="Vector_53" class="st3" d="M125.1,1383.9h24.1v39.9h-24.1V1383.9z"/>
</g>
</svg>
