<?xml version="1.0" encoding="utf-8"?>
<!-- Generator: Adobe Illustrator 27.0.0, SVG Export Plug-In . SVG Version: 6.00 Build 0)  -->
<svg version="1.1" id="_Слой_1" xmlns="http://www.w3.org/2000/svg" xmlns:xlink="http://www.w3.org/1999/xlink" x="0px"
	 y="0px" viewBox="0 0 1250.1 2637.3" style="enable-background:new 0 0 1250.1 2637.3;" xml:space="preserve">
<style type="text/css">
	.st0{opacity:1.000000e-02;}
	.st1{opacity:0.4;}
	.st2{fill:#91AAB6;}
	.st3{fill:#003A50;stroke:#003A50;stroke-width:0.52;stroke-miterlimit:10;}
	.st4{fill-rule:evenodd;clip-rule:evenodd;fill:#003A50;stroke:#003A50;stroke-width:0.52;stroke-miterlimit:10;}
	.st5{fill:#003A50;}
</style>
<g id="stikers" class="st0">
	<path id="s-fl92" d="M361.4,910.4h-318v125h318V910.4z"/>
	<path id="s-fl93" d="M361.4,603.4h-318v125h318V603.4z"/>
	<path id="s-fl94" d="M361.4,448.2h-318v125h318V448.2L361.4,448.2z"/>
	<path id="s-fl95" d="M361.4,134.4h-318v125h318V134.4L361.4,134.4z"/>
	<path id="s-fl96" d="M882.4,131.5h-318v125h318V131.5L882.4,131.5z"/>
	<path id="s-fl97" d="M882.4,605h-318v125h318V605z"/>
	<path id="s-fl98" d="M882.4,910.4h-318v125h318V910.4z"/>
	<path id="s-fl215" d="M1209.4,1389.4h-318v125h318V1389.4z"/>
	<path id="s-fl216" d="M1209.4,1886.4h-318v125h318V1886.4z"/>
	<path id="s-fl217" d="M1209.4,2357.4h-318v125h318V2357.4z"/>
	<path id="s-fl212" d="M486.4,2357.4h-318v125h318V2357.4z"/>
	<path id="s-fl213" d="M486.4,1886.4h-318v125h318V1886.4z"/>
	<path id="s-fl214" d="M486.4,1389.4h-318v125h318V1389.4z"/>
</g>
<g id="flats" class="st1">
	<path id="fl217" class="st2" d="M1241.4,2191.1H988.2V2091H759.1v157.8h-69v377.9h551.3L1241.4,2191.1L1241.4,2191.1z"/>
	<path id="fl216" class="st2" d="M876.4,1706.8V2098h114.3v95.1h250.7v-486.3H876.4z"/>
	<path id="fl215" class="st2" d="M876.4,1185.6h365v524.1h-365V1185.6z"/>
	<path id="fl214" class="st2" d="M473.5,1836.4h29.9v-149.5h-29.9v-85.5h29.9V1390H136.7v488.4h337.2L473.5,1836.4z"/>
	<path id="fl213" class="st2" d="M365.4,2076h138v-195.2H136.3v316.1h229.5L365.4,2076L365.4,2076z"/>
	<path id="fl212" class="st2" d="M621.1,2247.6v-163.2H497.6v-7.9H360.8v116.3H136.3v434h553.8v-379.2L621.1,2247.6L621.1,2247.6z"
		/>
	<path id="fl98" class="st2" d="M500.5,766.1h412V1078h-412V766.1L500.5,766.1z"/>
	<path id="fl97" class="st2" d="M683.4,455.1v116.3H500.5v194.8h412V455.1H683.4z"/>
	<path id="fl96" class="st2" d="M911.3,12.3H458.1v333.1h42.4v232.2H688v-118h225.8L911.3,12.3L911.3,12.3z"/>
	<path id="fl95" class="st2" d="M458.1,12.3H9.5v422.4h397.9v-89.3h50.7V12.3z"/>
	<path id="fl94" class="st2" d="M407.4,436.4H9.5v164.5h268.6v52.7h129.3V436.4z"/>
	<path id="fl93" class="st2" d="M278.1,658.1v-64H9.5v307.7h397.9V658.1H278.1z"/>
	<path id="fl92" class="st2" d="M298,1208.8h108.9v-309H9.5V1382h289L298,1208.8z"/>
</g>
<g id="walls_outside">
	<path id="Vector" class="st3" d="M145,0.3h91.1v42.4H145L145,0.3L145,0.3z M296.8,0.3h13.3v42.4h-13.3V0.3z M385.7,0.3h90.7v42.4
		h-90.6L385.7,0.3L385.7,0.3L385.7,0.3z M551.2,0.3h90.6v42.4h-90.6V0.3z M701.7,0.3h90.6v42.4h-90.6V0.3z M899.2,0.3h24.1V24h-24.1
		V0.3z M880.9,129.4h42v14.1h-42V129.4z M880.9,219.2h42v89.3h-42V219.2L880.9,219.2z M880.9,383.6h42v89.3h-42V383.6z M880.9,548.5
		h42v89.3h-42V548.5z M880.9,712.6h42v89.3h-42V712.6z M880.9,877.4h42v89.3h-42V877.4z M880.9,1043.6h42v165.7h-42V1043.6z"/>
	<path id="Vector_2" class="st3" d="M888.4,1170.2h42v39.5h-42V1170.2z"/>
	<path id="Vector_3" class="st4" d="M1005.7,1209.3v-39.4l89.8,12v27.4H1005.7z"/>
	<path id="Vector_4" class="st3" d="M1226,1170.2h23.7v106.7H1226V1170.2z M1208.2,1680.6h41.6v91.4h-41.6V1680.6z M1208.2,1845.1
		h33.3v91.4h-33.3V1845.1z"/>
	<path id="Vector_5" class="st3" d="M1216.5,1912.8h33.3v23.7h-33.3V1912.8z M1208.2,2174.5h33.3v91.4h-33.3V2174.5z M1208.2,2514.2
		h33.3v101.3h-33.3V2514.2z"/>
	<path id="Vector_6" class="st3" d="M1216.5,2242.2h33.3v23.7h-33.3V2242.2z M1208.2,1515.8h33.3v91.4h-33.3V1515.8z"/>
	<path id="Vector_7" class="st3" d="M1216.5,1583.5h33.3v23.7h-33.3V1583.5z"/>
	<path id="Vector_8" class="st4" d="M1208.2,2102.2v-91.4h29.5l12,91.4H1208.2z M1208.2,2431.1v-89.7h33.3l8.3,89.7H1208.2
		L1208.2,2431.1z"/>
	<path id="Vector_9" class="st3" d="M1208.2,2613h41.6v23.7h-41.6V2613z"/>
	<path id="Vector_10" class="st3" d="M1147,2596h71.5v41.1H1147V2596z M999.8,2590.2h71.9v24.1h-71.5L999.8,2590.2L999.8,2590.2z
		 M835.2,2590.2h71.5v24.1h-71.5V2590.2z"/>
	<path id="Vector_11" class="st4" d="M982.4,2636.7v-31.6h89.4v19.9L982.4,2636.7L982.4,2636.7z M407.4,2636.7v-31.6h89.4v19.9
		L407.4,2636.7L407.4,2636.7z"/>
	<path id="Vector_12" class="st3" d="M817.7,2605.2h89.4v19.9h-89.4V2605.2z M651.8,2605.2h89.4v31.6h-89.4V2605.2z M562.5,2594.8
		h22.9v41.9h-22.9V2594.8z"/>
	<path id="Vector_13" class="st3" d="M651.8,2590.2h71.6v31.6h-71.5L651.8,2590.2L651.8,2590.2z M425.2,2590.2h71.5v31.6h-71.5
		V2590.2z M883.8,2617.2h23.3v19.9h-23.3V2617.2z M260.2,2590.2h71.9v24.1h-71.9V2590.2L260.2,2590.2z"/>
	<path id="Vector_14" class="st3" d="M242.7,2605.2h89.4v19.9h-89.4V2605.2L242.7,2605.2z"/>
	<path id="Vector_15" class="st3" d="M242.7,2617.2H266v19.9h-23.3L242.7,2617.2L242.7,2617.2z M125.5,2515h41.6v121.7h-41.6
		C125.5,2636.7,125.5,2515,125.5,2515z"/>
	<path id="Vector_16" class="st4" d="M155.8,2429.9v-90.5H125l12.1,90.5H155.8z"/>
	<path id="Vector_17" class="st3" d="M146.7,2339.3h20.4v90.5h-20.4V2339.3z M137.1,2175.7H167v89.7h-29.9V2175.7z M125.5,2012.5
		h41.6v89.7h-41.6V2012.5z M137.1,1846.4H167v89.7h-29.9V1846.4z M125.5,1681.5h47v89.7h-47C125.5,1771.2,125.5,1681.5,125.5,1681.5
		z M137.1,1515.4H172v89.7h-34.9V1515.4z M125.5,1375.8h41.2v66h-41.2C125.5,1441.8,125.5,1375.8,125.5,1375.8z"/>
	<path id="Vector_18" class="st3" d="M0.3,1375.8h148.8v44.9H0.3V1375.8z"/>
	<path id="Vector_19" class="st5" d="M35.3,1374.6h461.1v15.4H35.3V1374.6z M160.4,1875h343v11.6h-343V1875z"/>
	<path id="Vector_20" class="st5" d="M288,1201h15.4v178.6H288V1201z M489.3,1342.2h14.6v342.6h-14.6V1342.2z"/>
	<path id="Vector_21" class="st5" d="M489.3,1680.6h14.6v36.1h-14.6V1680.6z"/>
	<path id="Vector_22" class="st5" d="M431.1,1680.6h69.4v14.5h-69.4V1680.6z M489.3,1758.7h14.6v125.4h-14.6V1758.7z"/>
	<path id="Vector_23" class="st5" d="M489.3,1875.8h14.6v114.6h-14.6V1875.8z M354.6,2067.7h139.7v14.5H354.6V2067.7z M495.9,2084.3
		h23.7v14.5h-23.7V2084.3z M561.2,2084.3h59v14.5h-59V2084.3z M759.1,2091H819v14.5h-59.9V2091L759.1,2091z M861,2091h136v14.5H861
		V2091z M885.9,1700.2h338.9v14.5H885.9V1700.2z M982,2186.5h231.6v14.5H982V2186.5z M614.8,2241.3h150.6v12.5H614.8L614.8,2241.3
		L614.8,2241.3z M614.8,1965.1h38.3v12.5h-38.3V1965.1z M713.8,1965.1h51.6v12.5h-51.6V1965.1z"/>
	<path id="Vector_24" class="st5" d="M354.6,2067.7h14.6v132.5h-14.6V2067.7z M379.1,2288.3h14.6v70.6h-14.6V2288.3z M876.4,2261.3
		H891v75.2h-14.6V2261.3z M876.4,1862.6H891v356.8h-14.6V1862.6z M876.4,1645.8H891v174.8h-14.6V1645.8z M982,2091h14.6v109.6H982
		V2091z M681.4,2249.6H696v352.6h-14.6V2249.6z"/>
	<path id="Vector_25" class="st5" d="M159.6,2185.7h209.1v14.5H159.6V2185.7z M489.3,2032.4h14.6v167.4h-14.6V2032.4L489.3,2032.4z
		 M614.8,1965.1h12.5v288.6h-12.5V1965.1L614.8,1965.1z M752.9,1965.6h12.5v288.2h-12.5V1965.6z M392,1095.9h15.4v120.4H392V1095.9z
		 M392,795.2h15.4v257.5H392V795.2L392,795.2z M392,524.8h15.4v228.8H392V524.8z M392,399.8h15.4v83.1H392V399.8z M500.5,338.4h15.4
		v55.2h-15.4V338.4z M500.5,435.1h15.4v97.2h-15.4V435.1z M500.5,568h15.4v52.7h-15.4V568z M678.9,449.2h15.4v133.3h-15.4V449.2z
		 M500.5,662.3h15.4v135.4h-15.4V662.3z M500.5,910.2h15.4V926h-15.4V910.2z"/>
	<path id="Vector_26" class="st5" d="M513.4,910.2h30.8v11.2h-30.8V910.2z M505.5,761.6h396.2v12H505.5V761.6z M505.5,568h188.3
		v14.5H505.5L505.5,568L505.5,568z M505.5,522.3h31.6v10.4h-31.6V522.3z"/>
	<path id="Vector_27" class="st5" d="M526.3,528.6h10.8V573h-10.8V528.6z M678.9,449.2h217v14.5h-217V449.2z M678.9,229.5h217V244
		h-217V229.5z M158.3,227.9h70.3V242h-70.3V227.9L158.3,227.9z M528.8,767h15.4v152.8h-15.4V767z M500.5,968h15.4v116.7h-15.4
		L500.5,968L500.5,968z M602.8,1081.8h12.5V1213h-12.5V1081.8z M876.4,1076H891v528.3h-14.6V1076z"/>
	<path id="Vector_28" class="st5" d="M500.5,1071.4h401.6v12.9H500.5V1071.4z M500.5,1205.1h52.8v9.6h-52.8L500.5,1205.1
		L500.5,1205.1z M397.8,1204.3h9.6v37h-9.6V1204.3z M397.8,1282.8h9.6v99.3h-9.6V1282.8z"/>
	<path id="Vector_29" class="st5" d="M500.5,1208h9.6v37.4h-9.6V1208z M194.9,1143.2h14.6v71.4h-14.6V1143.2z M500.5,1309.4h9.6
		v37.4h-9.6V1309.4z"/>
	<path id="Vector_30" class="st5" d="M495.1,1342.2h41.2v12.5h-41.2V1342.2z M588.2,1342.2h63.6v12.5h-63.6V1342.2z M704.2,1342.2
		h49.1v12.5h-49.1V1342.2z M804.4,1342.2h32.4v12.5h-32.4V1342.2z M497.6,1446h384.2v12.5H497.6V1446z M497.6,1549.8H619v12.5H497.6
		L497.6,1549.8L497.6,1549.8z M669.7,1549.8h41.2v12.5h-41.2V1549.8z M599.9,1680.6h37.8v12.5h-37.8V1680.6z"/>
	<path id="Vector_31" class="st5" d="M599.9,1680.6h12.5V1784h-12.5V1680.6z M577,1683.6h11.6v159.1H577V1683.6z M577,1884.2h11.6
		v18.7H577V1884.2z M642.7,1900.4h10.4v71h-10.4V1900.4z M713.8,1890.4h10.4v81h-10.4V1890.4z M713.8,1782h10.4v70.6h-10.4V1782z
		 M792.4,1784.1h10.4v68.1h-10.4V1784.1z"/>
	<path id="Vector_32" class="st5" d="M587,1893.7h77.3v9.1H587V1893.7z M701.7,1893.7h21.7v9.1h-21.6v-9.1H701.7L701.7,1893.7z
		 M747.9,1680.6h12.5V1784h-12.5V1680.6z M577,1778.2h61.1v12.5H577V1778.2z M742.1,1784.1h61.1v6.2h-61.1V1784.1L742.1,1784.1z"/>
	<path id="Vector_33" class="st5" d="M742.1,1680.6h61.1v6.2h-61.1V1680.6L742.1,1680.6z M577,1680.6h32v6.2h-32V1680.6z
		 M577,1759.6h32v6.2h-32V1759.6z"/>
	<path id="Vector_34" class="st5" d="M779.5,1684h6.2v103h-6.2V1684z M523.8,1110.4h84.8v5.8h-84.8V1110.4z"/>
	<path id="Vector_35" class="st5" d="M523.8,1113.3h5.8v94.7h-5.8V1113.3z M318.4,1230.9h5.8v126.7h-5.8V1230.9z"/>
	<path id="Vector_36" class="st5" d="M318.4,1351.3h59.9v5.8h-59.9V1351.3z M318.4,1230.9h82.7v5.8h-82.7V1230.9z"/>
	<path id="Vector_37" class="st5" d="M374.9,1286.9h5.8v88.9h-5.8V1286.9z"/>
	<path id="Vector_38" class="st5" d="M374.9,1285.3h31.6v5.8h-31.6V1285.3z M797,1684.4h6.2v103H797V1684.4z M707.6,1778.2h52.8
		v12.5h-52.8V1778.2z M708.4,1680.6H760v12.5h-51.6V1680.6z M762.4,1549.8h27.4v12.5h-27.4V1549.8z M824.4,1348.4h12.5v105.9h-12.5
		V1348.4z"/>
	<path id="Vector_39" class="st5" d="M826.9,1208h9.6v141.2h-9.6V1208z M723.4,1348.4h9.6v104.7h-9.6V1348.4z M621.5,1348.4h9.6
		v104.7h-9.6V1348.4z M592.4,1450.2h9.6v104.7h-9.6V1450.2z M684.7,1450.2h9.6v104.7h-9.6V1450.2z M780.3,1450.2h9.6v104.7h-9.6
		V1450.2z M595.3,1205.1H619v9.6h-23.7V1205.1z"/>
	<path id="Vector_40" class="st5" d="M660.2,1202.6h228.2v12H660.2V1202.6z M392,338.4h15.4v19.9H392V338.4z"/>
	<path id="Vector_41" class="st5" d="M398.6,338.4h110.2v15.8H398.6V338.4z M31.9,432.2h364.6V448H31.9V432.2z M31.9,588h252.8v15.8
		H31.9V588z M269.3,648.2h133V664h-133V648.2L269.3,648.2z"/>
	<path id="Vector_42" class="st5" d="M269.3,588h15.8v75.6h-15.8V588L269.3,588z M450.6,31.9h15.8V345h-15.8V31.9z M288,1201h118.9
		v15.4H288V1201z M35.3,894.5h365.1v15.4H35.3V894.5z"/>
	<path id="Vector_43" class="st3" d="M0.3,1359.6H41v44.9H0.3V1359.6L0.3,1359.6z M0.3,1195.6H41v91H0.3V1195.6L0.3,1195.6z
		 M0.3,1030.7H41v91H0.3V1030.7L0.3,1030.7z M0.3,866.2H41v91H0.3V866.2L0.3,866.2z M0.3,700.5H41v91.4H0.3V700.5L0.3,700.5z
		 M0.3,534.4H41v91.4H0.3V534.4L0.3,534.4z M0.3,370.7H41v91H0.3V370.7L0.3,370.7z M0.3,206.7H41v91H0.3V206.7L0.3,206.7z
		 M0.3,115.3H41v16.2H0.3V115.3C0.3,115.3,0.3,115.3,0.3,115.3z M125.5,1582.2h34.9v22.4h-34.9V1582.2z M125.9,2241.3h29.9v24.1
		h-29.9C125.9,2265.4,125.9,2241.3,125.9,2241.3z M125.9,1911.6h29.9v24.1h-29.9C125.9,1935.7,125.9,1911.6,125.9,1911.6z"/>
	<path id="Vector_44" class="st4" d="M1208.2,1441.8v-91h29.5l12,91H1208.2z"/>
	<path id="Vector_45" class="st3" d="M1207.3,1191h23.7v86h-23.7V1191z"/>
	<path id="Vector_46" class="st3" d="M1171.6,1179h61.1v37.4h-61.1V1179z M0.3,0.3h24.1v24.1H0.3V0.3z"/>
</g>
</svg>
