<?xml version="1.0" encoding="utf-8"?>
<!-- Generator: Adobe Illustrator 27.0.0, SVG Export Plug-In . SVG Version: 6.00 Build 0)  -->
<svg version="1.1" id="_Слой_1" xmlns="http://www.w3.org/2000/svg" xmlns:xlink="http://www.w3.org/1999/xlink" x="0px"
	 y="0px" viewBox="0 0 1250.8 2640.8" style="enable-background:new 0 0 1250.8 2640.8;" xml:space="preserve">
<style type="text/css">
	.st0{opacity:1.000000e-02;}
	.st1{opacity:0.4;}
	.st2{fill:#91AAB6;}
	.st3{fill:#003A50;stroke:#003A50;stroke-width:0.52;stroke-miterlimit:10;}
	.st4{fill-rule:evenodd;clip-rule:evenodd;fill:#003A50;stroke:#003A50;stroke-width:0.52;stroke-miterlimit:10;}
	.st5{fill:#003A50;}
</style>
<g id="stikers" class="st0">
	<path id="s-fl113" d="M361.2,910.4h-318v125h318V910.4z"/>
	<path id="s-fl114" d="M361.2,605.4h-318v125h318V605.4z"/>
	<path id="s-fl115" d="M361.2,447.9h-318v125h318V447.9z"/>
	<path id="s-fl116" d="M361.2,165.4h-318v125h318V165.4L361.2,165.4z"/>
	<path id="s-fl117" d="M883.2,165.4h-318v125h318V165.4L883.2,165.4z"/>
	<path id="s-fl118" d="M883.2,605.8h-318v125h318V605.8z"/>
	<path id="s-fl119" d="M883.2,910.4h-318v125h318V910.4z"/>
	<path id="s-fl233" d="M1209.2,1391.4h-318v125h318V1391.4z"/>
	<path id="s-fl234" d="M1209.2,1888.4h-318v125h318V1888.4z"/>
	<path id="s-fl235" d="M1209.2,2350.7h-318v125h318V2350.7z"/>
	<path id="s-fl230" d="M487.2,2350.7h-318v125h318V2350.7z"/>
	<path id="s-fl231" d="M487.2,1888.4h-318v125h318V1888.4z"/>
	<path id="s-fl232" d="M487.2,1391.4h-318v125h318V1391.4z"/>
</g>
<g id="flats" class="st1">
	<path id="fl235" class="st2" d="M1209,2252.2v-57.8H989.1v-100.2H759.9v158h-69v347.2h518.5L1209,2252.2L1209,2252.2z"/>
	<path id="fl234" class="st2" d="M877.2,1709.1v391.7h114.3v95.2h217.9v-487H877.2V1709.1L877.2,1709.1z"/>
	<path id="fl233" class="st2" d="M877.2,1210.9h332.2V1712H877.2V1210.9z"/>
	<path id="fl232" class="st2" d="M474.3,1838.8h29.9v-149.7h-29.9v-85.7h29.9v-211.7H167.4v489h306.8v-41.9L474.3,1838.8
		L474.3,1838.8z"/>
	<path id="fl231" class="st2" d="M366.2,2078.7h138v-195.5H167.8v316.5h198.4L366.2,2078.7L366.2,2078.7z"/>
	<path id="fl230" class="st2" d="M621.9,2250.5v-163.4H498.4v-7.9H361.6v116.4H167.8V2599h523v-348.5H621.9z"/>
	<path id="fl119" class="st2" d="M501.3,767.2h380.4v312.3H501.3V767.2z"/>
	<path id="fl118" class="st2" d="M684.2,455.7v116.4H501.3v195h380.4V455.7H684.2z"/>
	<path id="fl117" class="st2" d="M881.7,234.5V43.2H458.9v302.7h42.4v232.5h187.5V460.3h192.9L881.7,234.5L881.7,234.5z"/>
	<path id="fl116" class="st2" d="M458.9,42.7H42.7v392.6h365.1v-89.4h50.7L458.9,42.7L458.9,42.7z"/>
	<path id="fl115" class="st2" d="M408.2,437H42.7v164.7h236.2v52.8h129.3L408.2,437L408.2,437z"/>
	<path id="fl114" class="st2" d="M278.9,659v-64H42.7v308.1h365.1V659L278.9,659L278.9,659z"/>
	<path id="fl113" class="st2" d="M298.8,1210.5h108.9V901.1h-365v482.8h256.1V1210.5L298.8,1210.5z"/>
</g>
<g id="walls_outside">
	<path id="Vector" class="st3" d="M297.6,0.3h13.3v42.4h-13.3V0.3z M900,0.3h24.1v24.1H900V0.3z M881.7,129.7h42v13.7h-42V129.7z
		 M889.2,1171.8h42v39.5h-42V1171.8z"/>
	<path id="Vector_2" class="st4" d="M1006.5,1210.9v-39.5l89.8,12.1v27.4H1006.5z"/>
	<path id="Vector_3" class="st3" d="M881.7,219.5h42v14.1h-42V219.5z M881.7,295.2h42v13.7h-42V295.2z M881.7,384.2h42v14.1h-42
		V384.2z M881.7,459.8h42v14.1h-42V459.8z M881.7,549.3h42V563h-42V549.3z M881.7,624.9h42v13.7h-42V624.9z M881.7,713.5h42v14.1
		h-42V713.5z M881.7,789.2h42v14.1h-42V789.2z M881.7,878.6h42v14.1h-42V878.6z M881.7,954.3h42V968h-42V954.3z M881.7,1044.9h42
		v14.1h-42V1044.9z"/>
	<path id="Vector_4" class="st3" d="M881.7,219.5h31.6v89.4h-31.6V219.5L881.7,219.5z M881.7,384.2h31.6v89.4h-31.6V384.2z
		 M881.7,549.3h31.6v89.4h-31.6V549.3z M881.7,713.9h31.6v89.4h-31.6V713.9z M881.7,888.2h31.6v73.2h-31.6V888.2z M881.7,1054.9
		h31.6v132.2h-31.6V1054.9z"/>
	<path id="Vector_5" class="st3" d="M881.7,1044.9h23.7v165.9h-23.7V1044.9z M1226.4,1171.8h23.7v39.5h-23.7V1171.8z"/>
	<path id="Vector_6" class="st4" d="M1209,1774.3v-91.5h41.6l-8.3,91.5H1209L1209,1774.3z"/>
	<path id="Vector_7" class="st3" d="M1209,1847.5h33.3v91.5H1209V1847.5z"/>
	<path id="Vector_8" class="st3" d="M1217.3,1915.3h33.3v23.7h-33.3V1915.3z M1209,2177.3h33.3v91.5H1209V2177.3z M1209,2593.6h33.3
		v25.4H1209V2593.6z"/>
	<path id="Vector_9" class="st3" d="M1217.3,2245.1h33.3v23.7h-33.3V2245.1z M1209,1517.8h33.3v91.5H1209V1517.8z"/>
	<path id="Vector_10" class="st3" d="M1217.3,1585.6h33.3v23.7h-33.3V1585.6z"/>
	<path id="Vector_11" class="st4" d="M1209,2104.9v-91.5h41.6l-10,91.5H1209z"/>
	<path id="Vector_12" class="st3" d="M1209,2344.5h41.6v89.8H1209V2344.5z M1209,2616.4h41.6v23.7H1209V2616.4z"/>
	<path id="Vector_13" class="st3" d="M1147.8,2599.4h71.5v41.2h-71.5V2599.4z M1000.6,2593.6h71.9v24.1H1001L1000.6,2593.6
		L1000.6,2593.6z M836,2593.6h71.5v24.1H836V2593.6z"/>
	<path id="Vector_14" class="st4" d="M1072.6,2640.1v-31.6h-89.4v21.6L1072.6,2640.1z"/>
	<path id="Vector_15" class="st3" d="M408.2,2608.5h89.4v31.6h-89.4V2608.5z M818.5,2608.5h89.4v20h-89.4V2608.5z"/>
	<path id="Vector_16" class="st4" d="M652.6,2640.1v-31.6H742v21.6L652.6,2640.1z"/>
	<path id="Vector_17" class="st3" d="M563.3,2598.1h22.9v42h-22.9V2598.1z M652.6,2593.6h71.6v31.6h-71.5L652.6,2593.6L652.6,2593.6
		z M426,2593.6h71.5v31.6H426V2593.6z M884.6,2620.6h23.3v20h-23.3V2620.6z M261,2593.6h71.9v24.1H261V2593.6L261,2593.6z"/>
	<path id="Vector_18" class="st3" d="M243.5,2608.5h89.4v20h-89.4L243.5,2608.5L243.5,2608.5L243.5,2608.5z"/>
	<path id="Vector_19" class="st3" d="M243.5,2620.6h23.3v20h-23.3V2620.6z M125.4,2617.7h42v22.5h-42
		C125.4,2640.2,125.4,2617.7,125.4,2617.7z"/>
	<path id="Vector_20" class="st3" d="M134.6,2593.6h33.3v34.9h-33.3V2593.6z"/>
	<path id="Vector_21" class="st4" d="M156.6,2433v-90.6h-30.8l-1.2,90.7L156.6,2433L156.6,2433L156.6,2433z"/>
	<path id="Vector_22" class="st3" d="M147.5,2342.4h20.4v90.7h-20.4V2342.4z M137.9,2178.5h29.9v89.8h-29.9V2178.5z"/>
	<path id="Vector_23" class="st4" d="M167.9,2104.5v-89.8h-41.6l9.6,89.8H167.9z"/>
	<path id="Vector_24" class="st3" d="M137.9,1848.4h29.9v89.8h-29.9V1848.4z M125.9,1683.7h47v89.8h-47V1683.7z M137.9,1517.3h34.9
		v89.8h-34.9L137.9,1517.3L137.9,1517.3z"/>
	<path id="Vector_25" class="st5" d="M36.1,1376.4h461.1v15.4H36.1V1376.4z M161.2,1877.5h343v11.7h-343V1877.5z"/>
	<path id="Vector_26" class="st5" d="M288.8,1202.6h15.4v178.8h-15.4V1202.6z M490.1,1343.9h14.6v263.2h-14.6V1343.9z"/>
	<path id="Vector_27" class="st5" d="M490.1,1603.4h14.6V1719h-14.6V1603.4z"/>
	<path id="Vector_28" class="st5" d="M431.9,1682.9h69.4v14.6h-69.4V1682.9z M490.1,1761h14.6v122.2h-14.6V1761z"/>
	<path id="Vector_29" class="st5" d="M490.1,1878.3h14.6v114.8h-14.6V1878.3z M355.4,2070.4h139.7v14.6H355.4V2070.4z M496.7,2087.1
		h23.7v14.6h-23.7V2087.1z M562,2087.1h59v14.6h-59V2087.1z M759.9,2093.7h59.9v14.6h-59.9V2093.7L759.9,2093.7z M861.8,2093.7h136
		v14.6h-136V2093.7z M886.7,1702.4h338.9v14.6H886.7V1702.4z M982.8,2189.4h231.6v14.6H982.8V2189.4z M615.6,2244.3h150.6v12.5
		H615.6L615.6,2244.3L615.6,2244.3z M615.6,1967.7h38.3v12.5h-38.3V1967.7z M714.6,1967.7h51.6v12.5h-51.6V1967.7z"/>
	<path id="Vector_30" class="st5" d="M355.4,2070.4H370V2203h-14.6V2070.4z M379.9,2291.2h14.6v70.7h-14.6V2291.2z M877.2,2264.2
		h14.6v75.3h-14.6V2264.2z M877.2,1865h14.6v357.2h-14.6V1865z M877.2,1647.9h14.6V1823h-14.6V1647.9z M982.8,2093.7h14.6v109.8
		h-14.6V2093.7z M682.2,2252.6h14.6v353.1h-14.6V2252.6z"/>
	<path id="Vector_31" class="st5" d="M160.4,2188.5h209.1v14.6H160.4V2188.5z M490.1,2035.1h14.6v167.6h-14.6V2035.1z M615.6,1967.7
		h12.5v289h-12.5V1967.7z M753.7,1968.1h12.5v288.6h-12.5V1968.1z M392.8,1097.3h15.4v120.6h-15.4V1097.3z M392.8,796.3h15.4v257.8
		h-15.4V796.3L392.8,796.3z M392.8,525.5h15.4v229.1h-15.4V525.5L392.8,525.5z M392.8,400.4h15.4v83.2h-15.4V400.4L392.8,400.4z
		 M501.3,338.8h15.4v55.3h-15.4V338.8z M501.3,435.7h15.4V533h-15.4V435.7L501.3,435.7z M501.3,568.8h15.4v52.8h-15.4V568.8z
		 M679.7,449.9h15.4v133.5h-15.4V449.9L679.7,449.9z M501.3,663.2h15.4v135.6h-15.4V663.2z M501.3,911.5h15.4v15.8h-15.4V911.5z"/>
	<path id="Vector_32" class="st5" d="M514.2,911.5H545v11.2h-30.8V911.5z M506.3,762.6h396.2v12.1H506.3L506.3,762.6L506.3,762.6z
		 M506.3,568.8h188.3v14.6H506.3L506.3,568.8L506.3,568.8z M506.3,523.1h31.6v10.3h-31.6V523.1z"/>
	<path id="Vector_33" class="st5" d="M527.1,529.3h10.8v44.5h-10.8V529.3z M679.7,449.9h217v14.5h-217V449.9z M679.7,229.9h217v14.5
		h-217V229.9z M159.1,228.2h70.3v14.2h-70.3V228.2L159.1,228.2z M529.6,768H545v153h-15.4V768z M501.3,969.3h15.4v116.8h-15.4
		L501.3,969.3L501.3,969.3z M603.6,1084h12.5v123.9h-12.5V1084z M877.2,1077.4h14.6v529h-14.6V1077.4z"/>
	<path id="Vector_34" class="st5" d="M501.3,1072.8h401.6v12.9H501.3V1072.8z M501.3,1206.7h52.8v9.6h-52.8V1206.7z M398.6,1205.9
		h9.6v37h-9.6V1205.9z M398.6,1284.5h9.6v99.4h-9.6V1284.5z"/>
	<path id="Vector_35" class="st5" d="M501.3,1209.6h9.6v37.4h-9.6V1209.6z M195.7,1144.7h14.6v71.5h-14.6V1144.7z M501.3,1311.1h9.6
		v37.4h-9.6V1311.1z"/>
	<path id="Vector_36" class="st5" d="M495.9,1343.9h41.2v12.5h-41.2V1343.9z M589,1343.9h63.6v12.5H589V1343.9z M705,1343.9h49.1
		v12.5H705V1343.9z M805.2,1343.9h32.4v12.5h-32.4V1343.9z M498.4,1447.9h384.2v12.5H498.4V1447.9z M498.4,1551.9h121.4v12.5H498.4
		L498.4,1551.9L498.4,1551.9z M670.5,1551.9h41.2v12.5h-41.2V1551.9z M600.7,1682.9h37.8v12.5h-37.8V1682.9z"/>
	<path id="Vector_37" class="st5" d="M600.7,1682.9h12.5v103.5h-12.5V1682.9z M577.8,1682.9h11.6v162.2h-11.6V1682.9z M577.8,1886.6
		h11.6v18.7h-11.6V1886.6z M643.5,1902.8h10.4v71.1h-10.4V1902.8z M714.6,1892.9H725v81.1h-10.4V1892.9z M714.6,1784.3H725v69.4
		h-10.4V1784.3z M793.2,1786.4h10.4v68.2h-10.4V1786.4z"/>
	<path id="Vector_38" class="st5" d="M587.8,1896.2h77.3v9.1h-77.3V1896.2z M702.5,1896.2h21.7v9.1h-21.6v-9.1H702.5L702.5,1896.2z
		 M748.7,1682.9h12.5v103.5h-12.5V1682.9z M577.8,1780.6h61.1v12.5h-61.1V1780.6z M742.9,1786.4H804v6.2h-61.1V1786.4L742.9,1786.4z
		"/>
	<path id="Vector_39" class="st5" d="M742.9,1682.9H804v6.2h-61.1V1682.9L742.9,1682.9z M577.8,1682.9h32v6.2h-32V1682.9z
		 M577.8,1761.9h32v6.2h-32V1761.9z"/>
	<path id="Vector_40" class="st5" d="M780.3,1686.6h6.2v103.1h-6.2V1686.6z M797.8,1686.6h6.2v103.1h-6.2V1686.6z M708.4,1780.6
		h52.8v12.5h-52.8V1780.6z M709.2,1682.9h51.6v12.5h-51.6V1682.9z M763.2,1551.9h27.4v12.5h-27.4V1551.9z M825.2,1350.2h12.5v106
		h-12.5V1350.2z"/>
	<path id="Vector_41" class="st5" d="M827.7,1209.6h9.6V1351h-9.6V1209.6z M724.2,1350.2h9.6V1455h-9.6V1350.2z M622.3,1350.2h9.6
		V1455h-9.6V1350.2z M593.2,1452.1h9.6v104.8h-9.6V1452.1z M685.5,1452.1h9.6v104.8h-9.6V1452.1z M781.1,1452.1h9.6v104.8h-9.6
		V1452.1z M596.1,1206.7h23.7v9.6h-23.7V1206.7z"/>
	<path id="Vector_42" class="st5" d="M661,1204.2h228.2v12.1H661V1204.2z M392.8,338.8h15.4v20h-15.4V338.8z"/>
	<path id="Vector_43" class="st5" d="M399.4,338.8h110.2v15.8H399.4V338.8z M32.7,432.8h364.6v15.8H32.7V432.8z M32.7,588.8h252.8
		v15.8H32.7V588.8z M270.1,649.1h133v15.8h-133V649.1L270.1,649.1z"/>
	<path id="Vector_44" class="st5" d="M270.1,588.8h15.8v75.6h-15.8V588.8L270.1,588.8z M451.4,31.9h15.8v313.6h-15.8V31.9z
		 M288.8,1202.6h118.9v15.4H288.8V1202.6z M36.1,895.7h365.1v15.4H36.1V895.7z"/>
	<path id="Vector_45" class="st3" d="M13.2,1197.1h28.7v91.1H13.2V1197.1z M13.2,1032.1h28.7v91.1H13.2V1032.1z M13.2,867.4h28.7v91
		H13.2V867.4z M13.2,701.5h28.7V793H13.2V701.5z M13.2,535.1h28.7v91.5H13.2V535.1z M13.2,371.3h28.7v91.1H13.2V371.3z M13.2,207
		h28.7v91.1H13.2V207L13.2,207z"/>
	<path id="Vector_46" class="st3" d="M11.9,1197.1h29.9v91.1H11.9V1197.1L11.9,1197.1z"/>
	<path id="Vector_47" class="st3" d="M1.1,1274.9h40.7v13.7H1.1V1274.9L1.1,1274.9z M1.1,1197.1h40.7v14.6H1.1V1197.1L1.1,1197.1z
		 M1.1,1109h40.7v14.6H1.1V1109L1.1,1109z M1.1,1032.1h40.7v15H1.1V1032.1L1.1,1032.1z M1.1,867.4h40.7v15H1.1V867.4L1.1,867.4z
		 M1.1,778h40.7v15H1.1V778L1.1,778z M1.1,701.5h40.7v15H1.1V701.5L1.1,701.5z M1.1,535.1h40.7v15H1.1V535.1L1.1,535.1z M1.1,371.3
		h40.7v15H1.1V371.3L1.1,371.3z M1.1,207h40.7v14.6H1.1V207L1.1,207z M1.1,283.1h40.7v15H1.1V283.1L1.1,283.1z M1.1,447.8h40.7v15
		H1.1V447.8L1.1,447.8z M1.1,611.6h40.7v15H1.1V611.6L1.1,611.6z M1.1,943.9h40.7v15H1.1V943.9L1.1,943.9z"/>
	<path id="Vector_48" class="st3" d="M11.9,1032.1h29.9v91.1H11.9V1032.1L11.9,1032.1z M11.9,867.4h29.9v91H11.9V867.4L11.9,867.4z
		 M11.9,701.5h29.9V793H11.9V701.5L11.9,701.5z M10.3,535.1h31.2v91.5H10.3L10.3,535.1C10.3,535.1,10.3,535.1,10.3,535.1z
		 M10.3,371.3h31.2v91.1H10.3L10.3,371.3C10.3,371.3,10.3,371.3,10.3,371.3z M11.9,207h29.9v91.1H11.9V207L11.9,207L11.9,207z
		 M1.1,115.5h40.7v16.2H1.1V115.5C1.1,115.5,1.1,115.5,1.1,115.5z"/>
	<path id="Vector_49" class="st3" d="M1.1,115.5h40.7v16.2H1.1V115.5C1.1,115.5,1.1,115.5,1.1,115.5z M126.3,1584.3h34.9v22.5h-34.9
		V1584.3z M126.7,2244.3h29.9v24.1h-29.9C126.7,2268.4,126.7,2244.3,126.7,2244.3z M126.7,1914.1h29.9v24.1h-29.9
		C126.7,1938.2,126.7,1914.1,126.7,1914.1z M1209,1352.7h41.6v91.1H1209V1352.7z M1172.4,1180.5h61.1v37.4h-61.1V1180.5z M1.1,0.3
		h24.1v24.1H1.1V0.3z M145.8,12.8h91.1v30.4h-91.1L145.8,12.8L145.8,12.8z"/>
	<path id="Vector_50" class="st3" d="M145.8,0.3h13.3v42.4h-13.3V0.3z M223.6,0.3h13.3v42.4h-13.3V0.3z M386.5,0.3h13.3v42.4h-13.3
		V0.3z M463.9,0.3h13.3v42.4h-13.3V0.3z M552,0.3h13.3v42.4H552V0.3z M628.9,0.3h13.3v42.4h-13.3V0.3z M702.5,0.3h13.3v42.4h-13.3
		V0.3z M779.5,0.3h13.3v42.4h-13.3V0.3z"/>
	<path id="Vector_51" class="st3" d="M386.5,12.8h90.7v30.4h-90.6L386.5,12.8L386.5,12.8L386.5,12.8z M552,12.8h90.6v30.4H552V12.8z
		 M702.5,12.8h90.6v30.4h-90.6V12.8z M10.3,1377.6H150v37.4H10.3V1377.6z"/>
	<path id="Vector_52" class="st3" d="M0.3,1400.5h24.5v23.3H0.3V1400.5z"/>
	<path id="Vector_53" class="st3" d="M10.3,1361.4h31.6v44.9H10.3V1361.4z M134.2,1377.6h33.3v66.1h-33.3V1377.6z"/>
	<path id="Vector_54" class="st3" d="M125.4,1383.9h24.1v39.9h-24.1C125.4,1423.8,125.4,1383.9,125.4,1383.9z"/>
</g>
</svg>
