<?xml version="1.0" encoding="utf-8"?>
<!-- Generator: Adobe Illustrator 27.0.0, SVG Export Plug-In . SVG Version: 6.00 Build 0)  -->
<svg version="1.1" id="_Слой_1" xmlns="http://www.w3.org/2000/svg" xmlns:xlink="http://www.w3.org/1999/xlink" x="0px"
	 y="0px" viewBox="0 0 1250.8 2637.7" style="enable-background:new 0 0 1250.8 2637.7;" xml:space="preserve">
<style type="text/css">
	.st0{opacity:1.000000e-02;}
	.st1{opacity:0.4;}
	.st2{fill:#91AAB6;}
	.st3{fill:#003A50;stroke:#003A50;stroke-width:0.52;stroke-miterlimit:10;}
	.st4{fill-rule:evenodd;clip-rule:evenodd;fill:#003A50;stroke:#003A50;stroke-width:0.52;stroke-miterlimit:10;}
	.st5{fill:#003A50;}
</style>
<g id="stikers" class="st0">
	<path id="s-fl120" d="M361.2,909.4h-318v125h318V909.4z"/>
	<path id="s-fl121" d="M361.2,603.4h-318v125h318V603.4z"/>
	<path id="s-fl122" d="M361.2,447.3h-318v125h318V447.3z"/>
	<path id="s-fl123" d="M361.2,156.4h-318v125h318V156.4L361.2,156.4z"/>
	<path id="s-fl124" d="M883.2,156.4h-318v125h318V156.4L883.2,156.4z"/>
	<path id="s-fl125" d="M883.2,604.4h-318v125h318V604.4z"/>
	<path id="s-fl126" d="M883.2,909.4h-318v125h318V909.4z"/>
	<path id="s-fl236" d="M487.2,2339.4h-318v125h318V2339.4z"/>
	<path id="s-fl237" d="M487.2,1886.4h-318v125h318V1886.4z"/>
	<path id="s-fl238" d="M487.2,1389.4h-318v125h318V1389.4z"/>
	<path id="s-fl239" d="M1209.2,1389.4h-318v125h318V1389.4z"/>
	<path id="s-fl240" d="M1209.2,1886.4h-318v125h318V1886.4z"/>
	<path id="s-fl241" d="M1209.2,2339.4h-318v125h318V2339.4z"/>
</g>
<g id="flats" class="st1">
	<path id="fl241" class="st2" d="M1242.2,2191.1H989V2091H759.9v157.8h-69v377.9h551.3L1242.2,2191.1L1242.2,2191.1z"/>
	<path id="fl240" class="st2" d="M877.2,1706.8V2098h114.3v95.1h250.7v-486.3H877.2L877.2,1706.8z"/>
	<path id="fl239" class="st2" d="M877.2,1185.6h365v524.1h-365L877.2,1185.6L877.2,1185.6z"/>
	<path id="fl238" class="st2" d="M474.3,1836.4h29.9v-149.5h-29.9v-85.5h29.9V1390H137.5v488.4h337.2L474.3,1836.4z"/>
	<path id="fl237" class="st2" d="M366.2,2076h138v-195.2H137.1v316.1h229.5L366.2,2076L366.2,2076z"/>
	<path id="fl236" class="st2" d="M621.9,2247.6v-163.2H498.4v-7.9H361.6v116.3H137.1v434h553.8v-379.2L621.9,2247.6L621.9,2247.6z"
		/>
	<path id="fl126" class="st2" d="M501.3,766.1h412V1078h-412V766.1L501.3,766.1z"/>
	<path id="fl125" class="st2" d="M684.2,455.1v116.3H501.3v194.8h412V455.1H684.2L684.2,455.1z"/>
	<path id="fl124" class="st2" d="M912.1,12.3H458.9v333.1h42.4v232.2h187.5v-118h225.8C914.6,459.6,912.1,12.3,912.1,12.3z"/>
	<path id="fl123" class="st2" d="M458.9,12.3H10.3v422.4h397.5v-89.3h50.7L458.9,12.3L458.9,12.3z"/>
	<path id="fl122" class="st2" d="M408.2,436.4H10.3v164.5h268.6v52.7h129.3L408.2,436.4L408.2,436.4z"/>
	<path id="fl121" class="st2" d="M278.9,658.1v-64H10.3v307.7h397.9V658.1H278.9z"/>
	<path id="fl120" class="st2" d="M298.8,1208.8h108.9v-309H10.3V1382h289L298.8,1208.8z"/>
</g>
<g id="walls_outside">
	<path id="Vector" class="st3" d="M297.6,0.3h13.3v42.4h-13.3V0.3z M900,0.3h24.1v24.1H900V0.3z M881.7,129.4h42v13.7h-42V129.4z
		 M889.2,1170.2h42v39.5h-42V1170.2z M881.7,219.2h42v14.1h-42V219.2z M881.7,294.7h42v14.1h-42V294.7z M881.7,383.6h42v14.1h-42
		V383.6z M881.7,459.2h42v14.1h-42V459.2z M881.7,548.5h42v13.7h-42V548.5z M881.7,624.1h42v13.7h-42V624.1z M881.7,712.6h42v14.1
		h-42V712.6z M881.7,788.1h42v14.1h-42V788.1z M881.7,877.4h42v14.1h-42V877.4z M881.7,953h42v13.7h-42V953z M881.7,1043.6h42v14.1
		h-42V1043.6z"/>
	<path id="Vector_2" class="st3" d="M881.7,219.2h31.6v89.3h-31.6V219.2L881.7,219.2z M881.7,383.6h31.6v89.3h-31.6V383.6z
		 M881.7,548.5h31.6v89.3h-31.6V548.5z M881.7,713h31.6v89.3h-31.6V713z M881.7,887h31.6v73.1h-31.6V887z M881.7,1053.5h31.6v132.1
		h-31.6V1053.5z"/>
	<path id="Vector_3" class="st3" d="M881.7,1043.6h23.7v165.7h-23.7V1043.6z M1226.4,1170.2h23.7v39.5h-23.7V1170.2z M1209,1680.6
		h33.3v91.4H1209V1680.6z"/>
	<path id="Vector_4" class="st3" d="M1217.3,1724.3h33.3v47.8h-33.3V1724.3z M1209,1845.1h33.3v91.4H1209V1845.1z"/>
	<path id="Vector_5" class="st3" d="M1217.3,1890.8h33.3v45.7h-33.3V1890.8z M1209,2174.5h33.3v91.4H1209V2174.5z M1209,2596h41.6
		v19.5H1209V2596z"/>
	<path id="Vector_6" class="st3" d="M1217.3,2220.2h33.3v45.7h-33.3V2220.2z M1209,1515.8h33.3v91.4H1209V1515.8z"/>
	<path id="Vector_7" class="st3" d="M1217.3,1583.5h33.3v23.7h-33.3V1583.5z M1209,2011.2h31.6v91.4H1209V2011.2L1209,2011.2z"/>
	<path id="Vector_8" class="st3" d="M1218.1,2055.3h31.6v46.9h-31.6V2055.3z M1209,2341.4h33.3v89.7H1209V2341.4z"/>
	<path id="Vector_9" class="st3" d="M1217.3,2383.8h33.3v47.4h-33.3V2383.8z M1209,2613h41.6v23.7H1209V2613z M1000.6,2590.2h71.9
		v24.1H1001L1000.6,2590.2z M836,2590.2h71.5v24.1H836V2590.2z"/>
	<path id="Vector_10" class="st3" d="M983.2,2605.2h89.4v21.6h-89.4L983.2,2605.2L983.2,2605.2z"/>
	<path id="Vector_11" class="st3" d="M983.2,2615.9h44.9v21.6h-44.9L983.2,2615.9L983.2,2615.9z M408.2,2605.2h89.4v21.6h-89.4
		V2605.2z M818.5,2605.2h89.4v19.9h-89.4V2605.2z M652.6,2605.2H742v21.6h-89.4V2605.2z M563.3,2594.8h22.9v41.9h-22.9V2594.8z"/>
	<path id="Vector_12" class="st3" d="M652.6,2590.2h71.6v31.6h-71.5L652.6,2590.2L652.6,2590.2z M426,2590.2h71.5v31.6H426V2590.2z
		 M818.5,2617.2H863v19.9h-44.5V2617.2z"/>
	<path id="Vector_13" class="st3" d="M652.6,2617.2h44.9v19.9h-44.9V2617.2z M408.2,2617.2h44.9v19.9h-44.9V2617.2z M243.5,2617.2
		h44.9v19.9h-44.9L243.5,2617.2L243.5,2617.2L243.5,2617.2z M261,2590.2h71.9v24.1H261V2590.2L261,2590.2z"/>
	<path id="Vector_14" class="st3" d="M243.5,2605.2h89.4v21.6h-89.4L243.5,2605.2L243.5,2605.2L243.5,2605.2z M125.4,2587.7h42v49
		h-42C125.4,2636.7,125.4,2587.7,125.4,2587.7z"/>
	<path id="Vector_15" class="st4" d="M156.6,2429.9v-90.5h-19.1l-0.4,90.5H156.6z"/>
	<path id="Vector_16" class="st3" d="M147.5,2339.3h20.4v90.5h-20.4V2339.3z M125.4,2384.2h19.1v46.1h-19.1V2384.2z M137.9,2175.7
		h29.9v89.7h-29.9V2175.7z M137.1,2012.5h30.8v89.7h-30.8V2012.5z"/>
	<path id="Vector_17" class="st3" d="M125.9,2054h30.8v47.8h-30.8V2054z M137.9,1846h29.9v89.7h-29.9V1846z M137.1,1681.5h36.2v89.7
		h-36.2V1681.5z M137.9,1515.4h34.9v89.7h-34.9L137.9,1515.4L137.9,1515.4z"/>
	<path id="Vector_18" class="st5" d="M36.1,1374.6h461.1v15.4H36.1V1374.6z M161.2,1875h343v11.6h-343V1875z"/>
	<path id="Vector_19" class="st5" d="M288.8,1201h15.4v178.6h-15.4V1201z M490.1,1342.2h14.6v348.9h-14.6V1342.2z"/>
	<path id="Vector_20" class="st5" d="M490.1,1680.6h14.6v36.1h-14.6V1680.6z"/>
	<path id="Vector_21" class="st5" d="M431.9,1680.6h69.4v14.5h-69.4V1680.6z M490.1,1758.7h14.6v125.4h-14.6V1758.7z"/>
	<path id="Vector_22" class="st5" d="M490.1,1875.8h14.6v114.6h-14.6V1875.8z M355.4,2067.7h139.7v14.5H355.4V2067.7z M496.7,2084.3
		h23.7v14.5h-23.7V2084.3z M562,2084.3h59v14.5h-59V2084.3z M759.9,2091h59.9v14.5h-59.9V2091L759.9,2091z M861.8,2091h136v14.5
		h-136V2091z M886.7,1700.2h338.9v14.5H886.7V1700.2z M982.8,2186.5h231.6v14.5H982.8V2186.5z M615.6,2241.3h150.6v12.5H615.6
		L615.6,2241.3L615.6,2241.3z M615.6,1965.1h38.3v12.5h-38.3V1965.1z M714.6,1965.1h51.6v12.5h-51.6V1965.1z"/>
	<path id="Vector_23" class="st5" d="M355.4,2067.7H370v132.5h-14.6V2067.7z M379.9,2288.3h14.6v70.6h-14.6V2288.3z M877.2,2261.3
		h14.6v75.2h-14.6V2261.3z M877.2,1862.6h14.6v356.8h-14.6V1862.6z M877.2,1645.8h14.6v174.8h-14.6V1645.8z M982.8,2091h14.6v109.6
		h-14.6V2091z M682.2,2249.6h14.6v352.6h-14.6V2249.6z"/>
	<path id="Vector_24" class="st5" d="M160.4,2185.7h209.1v14.5H160.4V2185.7z M490.1,2032.4h14.6v167.4h-14.6V2032.4L490.1,2032.4z
		 M615.6,1965.1h12.5v288.6h-12.5V1965.1L615.6,1965.1z M753.7,1965.6h12.5v288.2h-12.5V1965.6z M392.8,1095.9h15.4v120.4h-15.4
		V1095.9z M392.8,795.2h15.4v257.5h-15.4V795.2L392.8,795.2z M392.8,524.8h15.4v228.8h-15.4V524.8z M392.8,399.8h15.4v83.1h-15.4
		V399.8z M501.3,338.4h15.4v55.2h-15.4V338.4z M501.3,435.1h15.4v97.2h-15.4V435.1z M501.3,568h15.4v52.7h-15.4V568z M679.7,449.2
		h15.4v133.3h-15.4V449.2z M501.3,662.3h15.4v135.4h-15.4V662.3z M501.3,910.2h15.4V926h-15.4V910.2z"/>
	<path id="Vector_25" class="st5" d="M514.2,910.2H545v11.2h-30.8V910.2z M506.3,761.6h396.2v12H506.3L506.3,761.6L506.3,761.6z
		 M506.3,568h188.3v14.5H506.3L506.3,568L506.3,568z M506.3,522.3h31.6v10.4h-31.6V522.3z"/>
	<path id="Vector_26" class="st5" d="M527.1,528.6h10.8V573h-10.8V528.6z M679.7,449.2h217v14.5h-217V449.2z M679.7,229.5h217V244
		h-217V229.5z M159.1,227.9h70.3V242h-70.3V227.9L159.1,227.9z M529.6,767H545v152.8h-15.4V767z M501.3,968h15.4v116.7h-15.4
		L501.3,968L501.3,968z M877.2,1076h14.6v528.3h-14.6V1076z"/>
	<path id="Vector_27" class="st5" d="M501.3,1071.4h401.6v12.9H501.3V1071.4z M501.3,1205.1h52.8v9.6h-52.8V1205.1z M398.6,1204.3
		h9.6v37h-9.6V1204.3z M398.6,1282.8h9.6v99.3h-9.6V1282.8z"/>
	<path id="Vector_28" class="st5" d="M501.3,1208h9.6v37.4h-9.6V1208z M195.7,1143.2h14.6v71.4h-14.6V1143.2z M501.3,1309.4h9.6
		v37.4h-9.6V1309.4z"/>
	<path id="Vector_29" class="st5" d="M495.9,1342.2h41.2v12.5h-41.2V1342.2z M589,1342.2h63.6v12.5H589V1342.2z M705,1342.2h49.1
		v12.5H705V1342.2z M805.2,1342.2h32.4v12.5h-32.4V1342.2z M498.4,1446h384.2v12.5H498.4V1446z M498.4,1549.8h121.4v12.5H498.4
		L498.4,1549.8L498.4,1549.8z M670.5,1549.8h41.2v12.5h-41.2V1549.8z M600.7,1680.6h37.8v12.5h-37.8V1680.6z"/>
	<path id="Vector_30" class="st5" d="M600.7,1680.6h12.5V1784h-12.5V1680.6z M577.8,1680.6h11.6v162h-11.6V1680.6z M577.8,1884.2
		h11.6v18.7h-11.6V1884.2z M643.5,1900.4h10.4v71h-10.4V1900.4z M714.6,1890.4H725v81h-10.4V1890.4z M714.6,1782H725v70.6h-10.4
		V1782z M793.2,1784.1h10.4v68.1h-10.4V1784.1z"/>
	<path id="Vector_31" class="st5" d="M587.8,1893.7h77.3v9.1h-77.3V1893.7z M702.5,1893.7h21.7v9.1h-21.6v-9.1H702.5L702.5,1893.7z
		 M748.7,1680.6h12.5V1784h-12.5V1680.6z M577.8,1778.2h61.1v12.5h-61.1V1778.2z M742.9,1784.1H804v6.2h-61.1V1784.1L742.9,1784.1z"
		/>
	<path id="Vector_32" class="st5" d="M742.9,1680.6H804v6.2h-61.1V1680.6L742.9,1680.6z M577.8,1680.6h32v6.2h-32V1680.6z
		 M577.8,1759.6h32v6.2h-32V1759.6z"/>
	<path id="Vector_33" class="st5" d="M780.3,1684.4h6.2v103h-6.2V1684.4z M797.8,1684.4h6.2v103h-6.2V1684.4z M708.4,1778.2h52.8
		v12.5h-52.8V1778.2z M709.2,1680.6h51.6v12.5h-51.6V1680.6z M763.2,1549.8h27.4v12.5h-27.4V1549.8z M825.2,1348.4h12.5v105.9h-12.5
		V1348.4z"/>
	<path id="Vector_34" class="st5" d="M827.7,1208h9.6v141.2h-9.6V1208z M724.2,1348.4h9.6v104.7h-9.6V1348.4z M622.3,1348.4h9.6
		v104.7h-9.6V1348.4z M593.2,1450.2h9.6v104.7h-9.6V1450.2z M685.5,1450.2h9.6v104.7h-9.6V1450.2z M781.1,1450.2h9.6v104.7h-9.6
		V1450.2z M596.1,1205.1h23.7v9.6h-23.7V1205.1z"/>
	<path id="Vector_35" class="st5" d="M661,1202.6h228.2v12H661V1202.6z M392.8,338.4h15.4v19.9h-15.4V338.4z"/>
	<path id="Vector_36" class="st5" d="M399.4,338.4h110.2v15.8H399.4V338.4z M32.7,432.2h364.6V448H32.7V432.2z M32.7,588h252.8v15.8
		H32.7V588z M270.1,648.2h133V664h-133V648.2L270.1,648.2z"/>
	<path id="Vector_37" class="st5" d="M270.1,588h15.8v75.6h-15.8V588L270.1,588z M451.4,31.9h15.8V345h-15.8V31.9z M288.8,1201
		h118.9v15.4H288.8V1201z M36.1,894.5h365.1v15.4H36.1V894.5z"/>
	<path id="Vector_38" class="st3" d="M13.2,1195.6h28.7v91H13.2V1195.6z M13.2,1030.7h28.7v91H13.2V1030.7z M13.2,866.2h28.7v91
		H13.2V866.2z M13.2,700.5h28.7v91.4H13.2V700.5z M13.2,534.4h28.7v91.4H13.2V534.4z M13.2,370.7h28.7v91H13.2V370.7z M13.2,206.7
		h28.7v91H13.2V206.7z"/>
	<path id="Vector_39" class="st3" d="M11.9,1195.6h29.9v91H11.9V1195.6L11.9,1195.6z"/>
	<path id="Vector_40" class="st3" d="M1.1,1273.2h40.7v13.7H1.1V1273.2L1.1,1273.2z M1.1,1195.6h40.7v14.5H1.1V1195.6L1.1,1195.6z
		 M1.1,1107.5h40.7v14.5H1.1V1107.5L1.1,1107.5z M1.1,1030.7h40.7v15H1.1V1030.7L1.1,1030.7z M1.1,866.2h40.7v15H1.1V866.2
		L1.1,866.2z M1.1,776.9h40.7v15H1.1V776.9L1.1,776.9z M1.1,700.5h40.7v15H1.1V700.5L1.1,700.5z M1.1,534.4h40.7v15H1.1V534.4
		L1.1,534.4z M1.1,370.7h40.7v15H1.1V370.7L1.1,370.7z M1.1,206.7h40.7v14.5H1.1V206.7L1.1,206.7z M1.1,282.7h40.7v15H1.1V282.7
		L1.1,282.7z M1.1,447.2h40.7v15H1.1V447.2L1.1,447.2z M1.1,610.8h40.7v15H1.1V610.8L1.1,610.8z M1.1,942.6h40.7v15H1.1V942.6
		L1.1,942.6z"/>
	<path id="Vector_41" class="st3" d="M11.9,1030.7h29.9v91H11.9V1030.7L11.9,1030.7z M11.9,866.2h29.9v91H11.9V866.2L11.9,866.2z
		 M11.9,700.5h29.9v91.4H11.9V700.5L11.9,700.5z M10.3,534.4h31.2v91.4H10.3L10.3,534.4C10.3,534.4,10.3,534.4,10.3,534.4z
		 M10.3,370.7h31.2v91H10.3L10.3,370.7C10.3,370.7,10.3,370.7,10.3,370.7z M11.9,206.7h29.9v91H11.9V206.7L11.9,206.7z M1.1,115.3
		h40.7v16.2H1.1V115.3C1.1,115.3,1.1,115.3,1.1,115.3z"/>
	<path id="Vector_42" class="st3" d="M1.1,115.3h40.7v16.2H1.1V115.3C1.1,115.3,1.1,115.3,1.1,115.3z M125.9,1560.2h34.9v44.9h-34.9
		C125.9,1605.1,125.9,1560.2,125.9,1560.2z M126.7,2218.9h29.9v46.5h-29.9C126.7,2265.4,126.7,2218.9,126.7,2218.9z M126.7,1886.6
		h29.9v49h-29.9C126.7,1935.6,126.7,1886.6,126.7,1886.6z M126.7,1722.2h29.9v49h-29.9C126.7,1771.2,126.7,1722.2,126.7,1722.2z
		 M1209,1350.9h33.3v91H1209V1350.9z"/>
	<path id="Vector_43" class="st3" d="M1217.3,1394.9h33.3v46.9h-33.3V1394.9z M1172.4,1179h78.2v37.4h-78.2V1179z M1005.2,1179h91.5
		v30.7h-91.5L1005.2,1179L1005.2,1179z"/>
	<path id="Vector_44" class="st3" d="M1052.2,1170.2h44.1v30.7h-44.1V1170.2z M1.1,0.3h24.1v24.1H1.1V0.3z M145.8,12.7h91.1V43
		h-91.1L145.8,12.7L145.8,12.7z"/>
	<path id="Vector_45" class="st3" d="M145.8,0.3h13.3v42.4h-13.3V0.3z M223.6,0.3h13.3v42.4h-13.3V0.3z M386.5,0.3h13.3v42.4h-13.3
		V0.3z M463.9,0.3h13.3v42.4h-13.3V0.3z M552,0.3h13.3v42.4H552V0.3z M628.9,0.3h13.3v42.4h-13.3V0.3z M702.5,0.3h13.3v42.4h-13.3
		V0.3z M779.5,0.3h13.3v42.4h-13.3V0.3z"/>
	<path id="Vector_46" class="st3" d="M386.5,12.7h90.7V43h-90.6L386.5,12.7L386.5,12.7L386.5,12.7z M552,12.7h90.6V43H552V12.7z
		 M702.5,12.7h90.6V43h-90.6V12.7z M10.3,1375.8H150v37.4H10.3V1375.8z"/>
	<path id="Vector_47" class="st3" d="M0.3,1398.6h24.5v23.3H0.3V1398.6z"/>
	<path id="Vector_48" class="st3" d="M10.3,1359.6h31.6v44.9H10.3V1359.6z M125.4,1375.8H167v66h-41.6
		C125.4,1441.8,125.4,1375.8,125.4,1375.8z"/>
	<path id="Vector_49" class="st3" d="M125.4,1382h24.1v39.9h-24.1C125.4,1421.9,125.4,1382,125.4,1382z"/>
	<path id="Vector_50" class="st5" d="M603.6,1078h12.5v128.4h-12.5V1078z"/>
</g>
</svg>
