<?xml version="1.0" encoding="utf-8"?>
<!-- Generator: Adobe Illustrator 27.0.0, SVG Export Plug-In . SVG Version: 6.00 Build 0)  -->
<svg version="1.1" id="_Слой_1" xmlns="http://www.w3.org/2000/svg" xmlns:xlink="http://www.w3.org/1999/xlink" x="0px"
	 y="0px" viewBox="0 0 1253.6 2646.8" style="enable-background:new 0 0 1253.6 2646.8;" xml:space="preserve">
<style type="text/css">
	.st0{opacity:1.000000e-02;}
	.st1{opacity:0.4;}
	.st2{fill:#91AAB6;}
	.st3{fill:#003A50;stroke:#003A50;stroke-width:0.52;stroke-miterlimit:10;}
	.st4{fill:#003A50;}
</style>
<g id="stikers" class="st0">
	<path id="s-fl1" d="M361,921.2H43v125h318V921.2L361,921.2z"/>
	<path id="s-fl2" d="M361,608.1H43v125h318V608.1z"/>
	<path id="s-fl3" d="M361,451.8H43v125h318V451.8z"/>
	<path id="s-fl4" d="M361,155H43v125h318V155L361,155z"/>
	<path id="s-fl5" d="M882.5,155h-318v125h318V155L882.5,155z"/>
	<path id="s-fl6" d="M883.6,608.1h-318v125h318V608.1z"/>
	<path id="s-fl7" d="M883.6,921.2h-318v125h318V921.2L883.6,921.2z"/>
	<path id="s-fl137" d="M1210.5,1395.2h-318v125h318V1395.2z"/>
	<path id="s-fl138" d="M1211.5,1915.3h-318v125h318V1915.3z"/>
	<path id="s-fl139" d="M1211.5,2369.2h-318v125h318V2369.2z"/>
	<path id="s-fl134" d="M488.5,2369.2h-318v125h318V2369.2z"/>
	<path id="s-fl135" d="M487.5,1915.3h-318v125h318V1915.3z"/>
	<path id="s-fl136" d="M487.5,1395.2h-318v125h318V1395.2z"/>
</g>
<g id="flats" class="st1">
	<path id="fl139" class="st2" d="M1210.8,2251.8v-50.3H990.3v-102.9H760.7v153.1h-69.1v353.5h519.5v-353.5L1210.8,2251.8
		L1210.8,2251.8L1210.8,2251.8z"/>
	<path id="fl138" class="st2" d="M879,1713.2V2106h112.2v95.6H1212v-488.4H879L879,1713.2z"/>
	<path id="fl137" class="st2" d="M891.6,1215.7h333.5v502.2H891.6L891.6,1215.7L891.6,1215.7z"/>
	<path id="fl136" class="st2" d="M465.6,1843.1h30.1V1693h-30.1v-85.7h30.1v-212.4H158v490.2h307.5L465.6,1843.1L465.6,1843.1z"/>
	<path id="fl135" class="st2" d="M367.2,2083.5h138.3v-195.8H168.4v316.9h198.8V2083.5L367.2,2083.5L367.2,2083.5z"/>
	<path id="fl134" class="st2" d="M621.3,2255.8V2092H497.6v-8.1H360.5v116.9h-194v404.5h524.1v-349.4L621.3,2255.8L621.3,2255.8z"/>
	<path id="fl7" class="st2" d="M504.1,769.7h381.3v312.9H504.1V769.7L504.1,769.7z"/>
	<path id="fl6" class="st2" d="M685.9,456.8v116.8H502.4V769h381.3V456.8H685.9z"/>
	<path id="fl5" class="st2" d="M883.8,234.8v-192h-424v303.6h42.6v232.9h188.1V460.9h193.3V234.8z"/>
	<path id="fl4" class="st2" d="M458.4,44.4h-417v393.3h366.1v-89.8h51L458.4,44.4L458.4,44.4L458.4,44.4z"/>
	<path id="fl3" class="st2" d="M408.8,437.9h-366v165.3h236.5V656h129.5V437.9L408.8,437.9z"/>
	<path id="fl2" class="st2" d="M279.2,660.5v-64.1H42.8v308.8h366.1V660.5H279.2L279.2,660.5z"/>
	<path id="fl1" class="st2" d="M299.5,1213.2h109.4V903.3H42.8v483.8h256.7V1213.2z"/>
</g>
<g id="walls_outside">
	<path id="Vector" class="st3" d="M146,12.6h91.2v30.3H146V12.6z M298.3,0.4h13.4V43h-13.4V0.4z"/>
	<path id="Vector_2" class="st3" d="M145.9,0.4h13.4V43h-13.4V0.4z M223.8,0.4h13.3V43h-13.4L223.8,0.4L223.8,0.4L223.8,0.4z
		 M387.5,0.3h13.4v42.6h-13.4C387.5,42.9,387.5,0.3,387.5,0.3z M464.8,0.4h13.4V43h-13.4V0.4z M553,0.4h13.4V43H553V0.4z M630.3,0.3
		h13.4v42.6h-13.4C630.3,42.9,630.3,0.3,630.3,0.3z M704.1,0.4h13.4V43h-13.4V0.4z M781.4,0.3h13.4v42.6h-13.4
		C781.4,42.9,781.4,0.3,781.4,0.3z"/>
	<path id="Vector_3" class="st3" d="M387.5,12.5h90.7v30.3h-90.7L387.5,12.5L387.5,12.5z M553,12.5h90.7v30.3H553V12.5z M704.1,12.5
		h90.7v30.3h-90.7V12.5L704.1,12.5z M901.9,0.4h24v24h-24V0.4z M883.7,129.9h42.2v14h-42.2V129.9z M883.7,219.7h42.2v14h-42.2V219.7
		z M883.7,295.5h42.2v14h-42.2V295.5z M883.8,385H926v14h-42.2V385z M883.8,460.7H926v14h-42.2V460.7z M883.8,550.4H926v14h-42.2
		V550.4z M883.7,626.2h42.2v14h-42.2V626.2z M883.7,715.3h42.2v14h-42.2V715.3z M883.8,791.2H926v14h-42.2V791.2z M883.8,880.6H926
		v14h-42.2V880.6z M883.8,956.4H926v14h-42.2V956.4z M883.8,1047.4H926v14h-42.2V1047.4z M1076.1,1173.3h22.8v40.5h-22.8V1173.3z"/>
	<path id="Vector_4" class="st3" d="M883.8,219.8h31.6v89.8h-31.6V219.8z M883.8,385h31.6v89.8h-31.6V385L883.8,385z M883.8,550.4
		h31.6v89.8h-31.6V550.4z M883.8,715.3h31.6v89.8h-31.6V715.3z M883.8,880.6h31.6v89.8h-31.6V880.6z M883.7,1047.4h23.9v166.4h-23.9
		V1047.4z"/>
	<path id="Vector_5" class="st3" d="M891.4,1189.8h42.2v24.1h-42.2V1189.8z M1008.9,1185.1h90v28.8h-90V1185.1z M1229.4,1174.4h24
		v24h-24V1174.4z M1229.4,1315.2h24v24h-24V1315.2z M1229.4,1422.3h24v23.9h-24V1422.3z M1211.6,1851.7h33.2v91.5h-33.2V1851.7z"/>
	<path id="Vector_6" class="st3" d="M1220.1,1919.6h33.1v23.6h-33.1V1919.6z M1211.7,2017.1h33.1v91.5h-33.1V2017.1z"/>
	<path id="Vector_7" class="st3" d="M1220.1,2085.1h33.1v23.6h-33.1V2085.1z M1211.6,2182.3h33.2v91.5h-33.2V2182.3z M1211.7,2523.5
		h24.2V2625h-24.2V2523.5z"/>
	<path id="Vector_8" class="st3" d="M1220.1,2250.3h33.1v23.6h-33.1V2250.3z M1211.7,2350.6h33.1v91.5h-33.1V2350.6z"/>
	<path id="Vector_9" class="st3" d="M1220.1,2418.6h33.1v23.6h-33.1V2418.6z M1211.6,1521.1h33.2v91.5h-33.2V1521.1z"/>
	<path id="Vector_10" class="st3" d="M1220.1,1589.1h33.1v23.6h-33.1V1589.1z M1211.6,1688.2h33.2v91.5h-33.2V1688.2z"/>
	<path id="Vector_11" class="st3" d="M1220.1,1756.2h33.1v23.6h-33.1V1756.2z M1211.7,2622.6h41.7v24h-41.7V2622.6z"/>
	<path id="Vector_12" class="st3" d="M1211.8,2605.3h33.8v23.9h-33.8V2605.3z M1003.1,2599.5h71.9v24.2h-71.9L1003.1,2599.5
		L1003.1,2599.5z M837.9,2599.6h71.9v24.2h-71.9V2599.6z"/>
	<path id="Vector_13" class="st3" d="M820.2,2614.7h89.6v23.1h-89.6V2614.7z M564.3,2604.4h23v42.1h-23V2604.4z M654,2599.4h71.6
		v31.8H654V2599.4z M427.1,2599.4h71.6v31.8h-71.6V2599.4z"/>
	<path id="Vector_14" class="st3" d="M886.6,2626.6h23.2v19.9h-23.2V2626.6z M654,2605.3h89.6v32.3H654V2605.3z"/>
	<path id="Vector_15" class="st3" d="M720.4,2626.6h23.2v19.9h-23.2V2626.6z M409.2,2605.3h89.6v32.3h-89.6V2605.3z"/>
	<path id="Vector_16" class="st3" d="M409.2,2626.6h23.2v19.9h-23.2V2626.6z M985.3,2605.3h89.6v32.3h-89.6V2605.3z"/>
	<path id="Vector_17" class="st3" d="M1051.8,2626.6h23.2v19.9h-23.2V2626.6z M261.6,2599.5h71.9v24.2h-71.9V2599.5z"/>
	<path id="Vector_18" class="st3" d="M243.9,2614.7h89.6v23.1h-89.6L243.9,2614.7L243.9,2614.7z"/>
	<path id="Vector_19" class="st3" d="M243.9,2626.6h23.2v19.9h-23.2V2626.6z M126.3,2623.8h41.8v22.7h-41.8
		C126.3,2646.5,126.3,2623.8,126.3,2623.8z"/>
	<path id="Vector_20" class="st3" d="M136.4,2599.4H168v34.5h-31.6V2599.4z M147.7,2348h20.2v90.8h-20.2V2348z M138.2,2183.8h29.9
		v89.9h-29.9V2183.8z M138.2,1852.8h29.9v89.9h-29.9V1852.8z M138.2,1520.8h35v89.9h-35V1520.8z M134.4,1380.8h33.1v66.2h-33.1
		L134.4,1380.8L134.4,1380.8z"/>
	<path id="Vector_21" class="st3" d="M9.9,1380.8h140.2v37.5H9.9V1380.8z"/>
	<path id="Vector_22" class="st3" d="M125.7,1387h24.4v40.1h-24.4C125.7,1427.1,125.7,1387,125.7,1387z M0.3,1403.8h24.4v23.3H0.3
		V1403.8z"/>
	<path id="Vector_23" class="st4" d="M36,1379.5h462.3v15.3H36V1379.5z M161.5,1881.9h344v11.6h-344L161.5,1881.9L161.5,1881.9z"/>
	<path id="Vector_24" class="st4" d="M289.5,1205.5h15.3v179.4h-15.3V1205.5z M491,1346.8h14.5v343.4H491V1346.8z"/>
	<path id="Vector_25" class="st4" d="M491,1686.8h14.5v36.4H491V1686.8z"/>
	<path id="Vector_26" class="st4" d="M432.7,1686.8h69.5v14.8h-69.5V1686.8z M471.8,1602.9h33.7v10.6h-33.7V1602.9z"/>
	<path id="Vector_27" class="st4" d="M468.9,1602.9h9.5v92.4h-9.5V1602.9z M491,1765.2h14.5v119.9H491V1765.2z"/>
	<path id="Vector_28" class="st4" d="M470.8,1837.7h34.6v8.4h-34.6V1837.7z"/>
	<path id="Vector_29" class="st4" d="M470.8,1843h8.9v41.9h-8.9V1843z M491,1882.5h14.5v115.2H491V1882.5z M356,2075.1h139.9v14.5
		H356V2075.1z M497.6,2092h23.7v14.5h-23.7L497.6,2092L497.6,2092z M563.2,2092h59.1v14.5h-59.1V2092z M761.5,2098.7h60.2v14.5
		h-60.2V2098.7z M863.6,2098.7h136.1v14.5H863.6L863.6,2098.7L863.6,2098.7z M888.7,1706.4h339.6v14.5H888.7L888.7,1706.4
		L888.7,1706.4z M985.2,2194.3h232v14.5h-232L985.2,2194.3L985.2,2194.3z M617,2249.6h150.9v12.4H617V2249.6z M617,1972.4h38.6v12.4
		H617V1972.4z M716.1,1972.4h51.8v12.4h-51.8V1972.4z"/>
	<path id="Vector_30" class="st4" d="M356,2075.1h14.5V2208H356V2075.1z M879,1869.3h14.5v357.8H879V1869.3z M879,1651.8h14.5v175.6
		H879V1651.8z M985.2,2098.7h14.5v110h-14.5V2098.7z M683.5,2257.8H698v353.8h-14.5V2257.8z"/>
	<path id="Vector_31" class="st4" d="M160.7,2193.6h209.7v14.5H160.7V2193.6z M491,2039.8h14.5v168H491V2039.8z M617,1972.4h12.6
		v289.2H617V1972.4L617,1972.4z M755.3,1972.7h12.6v289.2h-12.6V1972.7L755.3,1972.7z M393.5,1100h15.3v120.9h-15.3V1100z
		 M393.5,798.1h15.3v258.4h-15.3V798.1z M393.5,526.7h15.3v229.5h-15.3V526.7z M393.5,401.3h15.3v83.3h-15.3V401.3L393.5,401.3z
		 M502.4,339.5h15.3v55.3h-15.3L502.4,339.5L502.4,339.5z M502.4,436.8h15.3v97.7h-15.3L502.4,436.8L502.4,436.8z M502.4,570h15.3
		v52.8h-15.3L502.4,570L502.4,570z M681,450.8h15.3v133.6H681V450.8L681,450.8z M502.4,664.7h15.3v136.1h-15.3L502.4,664.7
		L502.4,664.7z M502.4,913.4h15.3v16h-15.3L502.4,913.4L502.4,913.4z"/>
	<path id="Vector_32" class="st4" d="M515.2,913.4H546v11.1h-30.8V913.4z M507.5,764.4h397.3v11.9H507.5L507.5,764.4L507.5,764.4z
		 M507.5,570h189v14.5h-189V570z M507.5,524.2h31.4v10.2h-31.4L507.5,524.2L507.5,524.2z"/>
	<path id="Vector_33" class="st4" d="M528.1,530.6h10.8v44.6h-10.8V530.6z M681,450.8h217.5v14.5H681V450.8z M681,230.3h217.5v14.5
		H681V230.3z M530.5,769.9h15.3v153.3h-15.3V769.9z M502.3,971.3h15.3v116.9h-15.3V971.3z M604.7,1085.5h12.6v131.7h-12.6V1085.5z
		 M879,1079.7h14.4v530.4H879V1079.7z"/>
	<path id="Vector_34" class="st4" d="M502.4,1075.4h402.4v12.8H502.4V1075.4z M502.4,1209.7h53v9.5h-53V1209.7z M399.4,1208.5h9.5
		v37.2h-9.5V1208.5z M399.4,1287.6h9.5v99.7h-9.5V1287.6z"/>
	<path id="Vector_35" class="st4" d="M502.4,1212.4h9.5v37.6h-9.5V1212.4z M502.4,1314.1h9.5v37.6h-9.5V1314.1z"/>
	<path id="Vector_36" class="st4" d="M497.1,1346.8h41.4v12.4h-41.4L497.1,1346.8L497.1,1346.8z M590.3,1346.8H654v12.4h-63.7
		V1346.8z M706.3,1346.8h49.2v12.4h-49.2V1346.8z M806.9,1346.8h32.5v12.4h-32.5V1346.8z M499.5,1451.2h385v12.4h-385V1451.2z
		 M499.5,1555.4h121.7v12.4H499.5L499.5,1555.4L499.5,1555.4z M672,1555.4h41.4v12.4H672V1555.4z M602.1,1686.8h38v12.4h-38V1686.8z
		"/>
	<path id="Vector_37" class="st4" d="M602.1,1686.8h12.4v103.9h-12.4V1686.8z M579,1689.8h11.6v159.3H579V1689.8z M579,1891h11.6
		v18.7H579V1891z M645,1907.2h10.6v71.5H645V1907.2z M716.1,1897.3h10.6v81.4h-10.6V1897.3z M716.1,1788.2h10.6v71.2h-10.6V1788.2z
		 M795,1790.7h10.6v68.4H795V1790.7z"/>
	<path id="Vector_38" class="st4" d="M588.9,1900.4h77.3v9.4h-77.3V1900.4z M704.2,1900.4h21.7v9.4h-21.7V1900.4z M750.3,1686.8
		h12.4v103.9h-12.4V1686.8z M579,1784.6h61.2v12.4H579V1784.6z M744.4,1790.7h61.2v6.1h-61.2V1790.7L744.4,1790.7z"/>
	<path id="Vector_39" class="st4" d="M744.4,1686.8h61.2v6.1h-61.2V1686.8L744.4,1686.8z M579,1686.8h32v6.1h-32V1686.8z
		 M579,1766.1h32v6.1h-32V1766.1z"/>
	<path id="Vector_40" class="st4" d="M781.8,1690.2h6.1v103.5h-6.1V1690.2z M799.4,1690.2h6.1v103.5h-6.1V1690.2z M786.5,1561.5
		h40.9v6.1h-40.9V1561.5z M865.1,1561.5h26.6v6.1h-26.6V1561.5z M709.7,1784.6h52.9v12.4h-52.9V1784.6z M710.8,1686.8h51.9v12.4
		h-51.9V1686.8z"/>
	<path id="Vector_41" class="st4" d="M764.9,1555.4h27.6v12.4h-27.6V1555.4z M826.8,1353.1h12.5v106.3h-12.5V1353.1z"/>
	<path id="Vector_42" class="st4" d="M829.6,1212.4h9.8v141.8h-9.8V1212.4z M725.5,1353.1h9.8v105.1h-9.8V1353.1z M623.5,1353.1h9.8
		v105.1h-9.8V1353.1z M594.3,1455.5h9.8v105.1h-9.8V1455.5z M687.2,1455.5h9.8v105.1h-9.8V1455.5z M782.9,1455.5h9.8v105.1h-9.8
		V1455.5z M597.3,1209.7h23.6v9.5h-23.6V1209.7z"/>
	<path id="Vector_43" class="st4" d="M662.5,1207.1h228.9v12.1H662.5L662.5,1207.1L662.5,1207.1z M393.5,339.5h15.3v20h-15.3V339.5z
		"/>
	<path id="Vector_44" class="st4" d="M400.2,339.5h110.6v15.7H400.2V339.5z M32.7,433.6h365.5v15.6H32.7V433.6z M32.7,590.2h253.5
		v15.7H32.7V590.2z M270.8,650.5H404v15.7H270.8V650.5z"/>
	<path id="Vector_45" class="st4" d="M270.5,590.2h15.7v76h-15.7V590.2z M452.5,32.1h15.7v314.3h-15.7V32.1z M289.5,1205.5h119.3
		v15.4H289.5L289.5,1205.5L289.5,1205.5z M36,897.5h366.1v15.3H36V897.5z"/>
	<path id="Vector_46" class="st3" d="M9.9,1364.5h31.8v45H9.9V1364.5L9.9,1364.5z M11.7,1199.9h30.1v91.5H11.7V1199.9L11.7,1199.9z"
		/>
	<path id="Vector_47" class="st3" d="M1.1,1277.8h40.8v13.6H1.3L1.1,1277.8z M1.1,1199.9h40.8v14.8H1.3L1.1,1199.9z M1.1,1111.3
		h40.8v14.8H1.3L1.1,1111.3z M1.1,1034.5h40.8v14.8H1.3L1.1,1034.5z M1.1,869.3h40.8v14.8H1.3L1.1,869.3z M1.1,779.9h40.8v14.8H1.3
		L1.1,779.9z M1.1,703.2h40.8V718H1.3L1.1,703.2z M1.1,536.4h40.8v14.8H1.3L1.1,536.4z M1.1,372.2h40.8V387H1.3L1.1,372.2z
		 M1.1,207.2h40.8V222H1.3L1.1,207.2z M1.1,283.8h40.8v14.8H1.3L1.1,283.8z M1.1,448.8h40.8v14.8H1.3L1.1,448.8z M1.1,613.2h40.8
		V628H1.3L1.1,613.2z M1.1,945.9h40.8v14.8H1.3L1.1,945.9z"/>
	<path id="Vector_48" class="st3" d="M11.7,1034.5h30.1v91.5H11.7V1034.5L11.7,1034.5z M11.7,869.3h30.1v91.5H11.7V869.3L11.7,869.3
		z M11.7,703.2h30.1v91.5H11.7V703.2L11.7,703.2z M10.3,536.4h31.4v91.5H10.3V536.4L10.3,536.4z M10.3,372.2h31.4v91.4H10.3V372.2
		L10.3,372.2z M11.6,207.2h30.2v91.5H11.7L11.6,207.2C11.7,207.2,11.6,207.2,11.6,207.2z M1.1,115.7h40.7v16.5H1.2L1.1,115.7z
		 M126.3,1588.1h35v22.6h-35C126.3,1610.7,126.3,1588.1,126.3,1588.1z M126.7,2249.4h29.8v24.2h-29.9L126.7,2249.4z M138.2,2018.3
		h29.9v89.9h-29.9V2018.3z"/>
	<path id="Vector_49" class="st3" d="M126.7,2083.9h29.8v24.2h-29.9L126.7,2083.9z M138.2,2348.4h29.9v89.9h-29.9V2348.4z"/>
	<path id="Vector_50" class="st3" d="M126.7,2414.1h29.8v24.2h-29.9L126.7,2414.1z M126.7,1918.5h29.8v24.2h-29.9L126.7,1918.5z
		 M138.2,1689.8h29.9v89.9h-29.9V1689.8z"/>
	<path id="Vector_51" class="st3" d="M126.7,1755.5h29.8v24.2h-29.9L126.7,1755.5z M1211.8,1195.3h24v46h-24V1195.3z M1211.8,1315.2
		h32.9v131.1h-32.9V1315.2z"/>
	<path id="Vector_52" class="st3" d="M1175.1,1183.1h60.7v37.4h-60.7V1183.1z M1.1,0.4H25v24H1.1V0.4z"/>
</g>
</svg>
