<?xml version="1.0" encoding="utf-8"?>
<!-- Generator: Adobe Illustrator 27.0.0, SVG Export Plug-In . SVG Version: 6.00 Build 0)  -->
<svg version="1.1" id="_Слой_1" xmlns="http://www.w3.org/2000/svg" xmlns:xlink="http://www.w3.org/1999/xlink" x="0px"
	 y="0px" viewBox="0 0 1254.4 2649" style="enable-background:new 0 0 1254.4 2649;" xml:space="preserve">
<style type="text/css">
	.st0{opacity:0;}
	.st1{opacity:0.4;}
	.st2{fill:#91AAB6;}
	.st3{fill:#003A50;stroke:#003A50;stroke-width:0.52;stroke-miterlimit:10;}
	.st4{fill-rule:evenodd;clip-rule:evenodd;fill:#003A50;stroke:#003A50;stroke-width:0.52;stroke-miterlimit:10;}
	.st5{fill:#003A50;}
</style>
<g id="stikers" class="st0">
	<path id="s-fl8" d="M359.2,913h-318v125h318V913L359.2,913z"/>
	<path id="s-fl9" d="M359.2,607h-318v125h318V607z"/>
	<path id="s-fl10" d="M359.2,449.4h-318v125h318V449.4z"/>
	<path id="s-fl11" d="M359.2,152h-318v125h318V152L359.2,152z"/>
	<path id="s-fl12" d="M885.2,152h-318v125h318V152L885.2,152z"/>
	<path id="s-fl13" d="M885.2,607h-318v125h318V607z"/>
	<path id="s-fl14" d="M885.2,913h-318v125h318V913L885.2,913z"/>
	<path id="s-fl140" d="M486.2,2334.8h-318v125h318V2334.8z"/>
	<path id="s-fl141" d="M486.2,1895h-318v125h318V1895z"/>
	<path id="s-fl142" d="M168.2,1396h318v125h-318V1396z"/>
	<path id="s-fl143" d="M1212.2,1396h-318v125h318V1396z"/>
	<path id="s-fl144" d="M1212.2,1895h-318v125h318V1895z"/>
	<path id="s-fl145" d="M1212.2,2334.8h-318v125h318V2334.8z"/>
</g>
<g id="flats" class="st1">
	<path id="fl145" class="st2" d="M1245.7,2203.4H991.5V2103H761.4v158.3h-68.8v379.6h552.7L1245.7,2203.4L1245.7,2203.4z"/>
	<path id="fl144" class="st2" d="M878.9,1714.6v392.9h114.6v95.4h251.7v-488.3L878.9,1714.6L878.9,1714.6z"/>
	<path id="fl143" class="st2" d="M878.9,1189.1h366.4v526.3H878.9V1189.1z"/>
	<path id="fl142" class="st2" d="M474.7,1846.2h30v-150h-30v-85.8h30v-212.5h-368v490.4h338.4L474.7,1846.2z"/>
	<path id="fl141" class="st2" d="M366.3,2085.8h138.4v-196.3H136.2v317.1h230.5L366.3,2085.8z"/>
	<path id="fl140" class="st2" d="M624.7,2257.9v-163.8H501.3v-7.9H363.8v116.7H138.3v435.9h555.6v-380.9H624.7z"/>
	<path id="fl14" class="st2" d="M502.2,772h413.5v313H502.2V772L502.2,772z"/>
	<path id="fl13" class="st2" d="M685.5,457.4v116.7H502.2v195.4h413.5V457L685.5,457.4z"/>
	<path id="fl12" class="st2" d="M914.4,12.8H459.2v334.6h42.5v232.9h188.4V462h226.7C916.8,462,914.4,12.8,914.4,12.8z"/>
	<path id="fl11" class="st2" d="M467.2,13H17v424.2h399.3v-89.6h50.9V13z"/>
	<path id="fl10" class="st2" d="M408,438.7H8.7v165.8h269.7v52.9H408V438.7L408,438.7L408,438.7z"/>
	<path id="fl9" class="st2" d="M278.3,661.6v-64.2H8.7v309.2H408v-245H278.3z"/>
	<path id="fl8" class="st2" d="M298.8,1215.8H408V905.4H8.7v484.2h290.1V1215.8z"/>
</g>
<g id="walls_outside">
	<path id="Vector" class="st3" d="M145.8,0.3h91.3v42.5h-91.3V0.3L145.8,0.3z M297.9,0.3h13.3v42.5h-13.3V0.3z M387.1,0.3H478v42.5
		h-90.9V0.3z M553,0.3h90.9v42.5H553V0.3z M704.3,0.3h90.9v42.5h-90.9V0.3z M902.3,0.3h24.2v24.2h-24.2V0.3z M884.4,129.9h42.1v14.2
		h-42.1V129.9z M884.4,219.9h42.1v89.6h-42.1V219.9L884.4,219.9z M884.4,385.4h42.1V475h-42.1V385.4z M884.4,550.8h42.1v89.6h-42.1
		V550.8z M884.4,715.8h42.1v89.6h-42.1V715.8z M884.4,881.2h42.1v89.6h-42.1V881.2z M884.4,1048.3h42.1v166.2h-42.1V1048.3z"/>
	<path id="Vector_2" class="st3" d="M891.9,1175.4H934v39.6h-42.1V1175.4z"/>
	<path id="Vector_3" class="st4" d="M1009.4,1214.6V1175l90,12.1v27.5H1009.4z"/>
	<path id="Vector_4" class="st3" d="M1229.9,1175.4h23.8v107.1h-23.8V1175.4z M1212.4,1687.9h41.7v91.7h-41.7V1687.9z
		 M1212.4,1853.3h33.3v91.7h-33.3V1853.3z"/>
	<path id="Vector_5" class="st3" d="M1220.7,1921.2h33.3v23.8h-33.3V1921.2z M1212.4,2184.2h33.3v91.7h-33.3V2184.2z M1212.4,2525.4
		h33.3v101.3h-33.3V2525.4z"/>
	<path id="Vector_6" class="st3" d="M1220.7,2252.1h33.3v23.8h-33.3V2252.1z M1212.4,1522.5h33.3v91.7h-33.3V1522.5z"/>
	<path id="Vector_7" class="st3" d="M1220.7,1590.4h33.3v23.8h-33.3V1590.4z"/>
	<path id="Vector_8" class="st4" d="M1212.4,2111.3v-91.7h29.6l12.1,91.7H1212.4z M1212.4,2441.7v-90h33.3l8.3,90H1212.4
		L1212.4,2441.7z"/>
	<path id="Vector_9" class="st3" d="M1212.4,2624.6h41.7v23.8h-41.7V2624.6z"/>
	<path id="Vector_10" class="st3" d="M1151.1,2607.1h71.7v41.3h-71.7V2607.1z M1003.6,2601.7h71.7v24.2h-71.7L1003.6,2601.7
		L1003.6,2601.7z M838.1,2601.7h71.7v24.2h-71.7V2601.7z"/>
	<path id="Vector_11" class="st4" d="M985.6,2648.4v-31.7h89.6v20L985.6,2648.4L985.6,2648.4z M408.8,2648.4v-31.7h89.6v20
		L408.8,2648.4z"/>
	<path id="Vector_12" class="st3" d="M820.2,2616.7h89.6v20h-89.6V2616.7z M653.9,2616.7h89.6v31.7h-89.6V2616.7z M564.3,2606.3
		h22.9v42.1h-22.9V2606.3z"/>
	<path id="Vector_13" class="st3" d="M653.9,2601.3h71.7v31.7h-71.7V2601.3z M426.7,2601.3h71.7v31.7h-71.7V2601.3z M887.3,2628.8
		h23.3v20h-23.3V2628.8z M261.3,2601.7H333v24.2h-71.7V2601.7L261.3,2601.7z"/>
	<path id="Vector_14" class="st3" d="M243.3,2616.7h89.6v20h-89.6L243.3,2616.7L243.3,2616.7z"/>
	<path id="Vector_15" class="st3" d="M243.3,2628.8h23.3v20h-23.3V2628.8z M125.8,2526.3h41.7v122.5h-41.7V2526.3z"/>
	<path id="Vector_16" class="st4" d="M156.6,2440.4v-90.8h-30.8l12.1,90.8H156.6z"/>
	<path id="Vector_17" class="st3" d="M147.5,2349.6h20.4v90.8h-20.4V2349.6z M137.9,2185.4h30v90h-30V2185.4z M125.8,2020.8h41.7v90
		h-41.7L125.8,2020.8L125.8,2020.8z M137.9,1854.2h30v90h-30V1854.2z M125.8,1688.7h47.1v90h-47.1V1688.7z M137.9,1522.1h35v90h-35
		V1522.1z M125.8,1382.1h41.3v65.8h-41.3C125.8,1447.9,125.8,1382.1,125.8,1382.1z"/>
	<path id="Vector_18" class="st3" d="M0.3,1382.1h149.2v45H0.3V1382.1z"/>
	<path id="Vector_19" class="st5" d="M35.4,1380.8H498v15.4H35.4V1380.8z M161.2,1883.3h344.3v11.7H161.2V1883.3z"/>
	<path id="Vector_20" class="st5" d="M289.2,1206.2h15.4v179.2h-15.4V1206.2z M491.3,1347.5h14.6v344.2h-14.6V1347.5L491.3,1347.5z"
		/>
	<path id="Vector_21" class="st5" d="M491.3,1687.9h14.6v36.2h-14.6V1687.9z"/>
	<path id="Vector_22" class="st5" d="M432.6,1687.9h70v14.6H433v-14.6H432.6z M491.3,1766.7h14.6v125.8h-14.6V1766.7z"/>
	<path id="Vector_23" class="st5" d="M491.3,1883.8h14.6v115.4h-14.6V1883.8z M355.5,2076.7h140v14.6h-140V2076.7z M497.6,2093.3
		h23.8v14.6h-23.8L497.6,2093.3L497.6,2093.3z M563.4,2093.3h59.2v14.6h-59.2V2093.3z M761.8,2100h60v14.6h-60V2100z M863.5,2100
		h135.9v14.6H863.5L863.5,2100L863.5,2100z M889.4,1707.5h340.1v14.6H889.4L889.4,1707.5L889.4,1707.5z M985.6,2195.9h232.6v14.6
		H985.6V2195.9z M617.2,2251.3h150.9v12.5H617.2V2251.3z M617.2,1973.8h38.3v12.5h-38.3V1973.8z M716.4,1973.8h51.7v12.5h-51.7
		V1973.8z"/>
	<path id="Vector_24" class="st5" d="M355.5,2076.7h14.6v132.9h-14.6V2076.7z M380,2298.4h14.6v70.8H380V2298.4z M879.4,2271.3H894
		v75.4h-14.6V2271.3z M879.4,1870.8H894v357.9h-14.6V1870.8L879.4,1870.8z M879.4,1652.9H894v175.4h-14.6V1652.9z M985.6,2100h14.6
		v110h-14.6V2100z M683.5,2259.6h14.6v354.2h-14.6V2259.6z"/>
	<path id="Vector_25" class="st5" d="M160.4,2195.4h210.1v14.6H160.4V2195.4z M491.3,2041.3h14.6v167.9h-14.6V2041.3z M617.2,1973.8
		h12.5v289.6h-12.5V1973.8z M755.6,1974.2h12.5v289.6h-12.5V1974.2L755.6,1974.2z M393,1100.8h15.4v120.8H393V1100.8z M393,798.7
		h15.4v258.8H393V798.7L393,798.7z M393,527h15.4v230H393V527z M393,401.6h15.4v83.3H393V401.6L393,401.6z M502.6,339.9H518v55.4
		h-15.4L502.6,339.9L502.6,339.9z M502.6,437H518v97.5h-15.4L502.6,437L502.6,437z M502.6,570.4H518v52.9h-15.4L502.6,570.4
		L502.6,570.4z M681,451.2h15.4V585H681V451.2z M502.6,665.4H518v135.8h-15.4V665.4z M502.6,913.7H518v15.8h-15.4V913.7z"/>
	<path id="Vector_26" class="st5" d="M515.1,913.7h30.8V925h-30.8V913.7z M507.6,765h397.6v12H507.6V765z M507.6,570.4h188.8V585
		H507.6V570.4z M507.6,524.5h31.7v10.4h-31.7V524.5z"/>
	<path id="Vector_27" class="st5" d="M528.4,530.8h10.8v44.6h-10.8V530.8z M681,451.2h218v14.6H681V451.2L681,451.2z M681,230.8h218
		v14.6H681V230.8L681,230.8z M159.1,229.1h70.4v14.2h-70.4V229.1z M530.5,770.4h15.4v153.3h-15.4V770.4z M502.6,972H518v116.7h-15.4
		V972L502.6,972z M604.7,1086.6h12.5v131.7h-12.5V1086.6z M879.4,1080.8H894v530.4h-14.6V1080.8z"/>
	<path id="Vector_28" class="st5" d="M502.6,1076.2h403v12.9h-403V1076.2z M502.6,1210.4h52.9v9.6h-52.9L502.6,1210.4L502.6,1210.4z
		 M399.2,1209.6h9.6v37.1h-9.6V1209.6z M399.2,1288.3h9.6v99.6h-9.6V1288.3z"/>
	<path id="Vector_29" class="st5" d="M502.6,1213.3h9.6v37.5h-9.6L502.6,1213.3L502.6,1213.3z M195.4,1148.3H210v71.7h-14.6V1148.3z
		 M502.6,1315h9.6v37.5h-9.6L502.6,1315L502.6,1315z"/>
	<path id="Vector_30" class="st5" d="M497.2,1347.5h41.3v12.5h-41.3L497.2,1347.5L497.2,1347.5z M590.5,1347.5h63.8v12.5h-63.8
		V1347.5z M706.4,1347.5h49.2v12.5h-49.2V1347.5z M806.8,1347.5h32.5v12.5h-32.5V1347.5z M499.7,1452.5h385.5v12.5H499.7
		L499.7,1452.5L499.7,1452.5z M499.7,1556.7h121.7v12.5H499.7L499.7,1556.7L499.7,1556.7z M672.2,1556.7h41.3v12.5h-41.3V1556.7z
		 M602.2,1687.9h37.9v12.5h-37.9V1687.9z"/>
	<path id="Vector_31" class="st5" d="M602.2,1687.9h12.5v104.2h-12.5V1687.9z M578.9,1690.8h11.7v159.6h-11.7V1690.8z M578.9,1892.5
		h11.7v18.8h-11.7V1892.5z M645.1,1908.8h10.4v71.2h-10.4V1908.8z M716.4,1898.8h10.4v81.7h-10.4V1898.8z M716.4,1789.6h10.4v70.8
		h-10.4V1789.6z M795.2,1792.1h10.4v68.8h-10.4V1792.1z"/>
	<path id="Vector_32" class="st5" d="M588.9,1901.7h77.5v9.2h-77.5V1901.7z M704.3,1901.7H726v9.2h-21.7V1901.7z M750.6,1687.9h12.5
		v104.2h-12.5V1687.9z M578.9,1785.8h61.3v12.5h-61.3V1785.8z M744.3,1792.1h61.3v6.2h-61.3V1792.1L744.3,1792.1z"/>
	<path id="Vector_33" class="st5" d="M744.3,1687.9h61.3v6.2h-61.3V1687.9L744.3,1687.9z M578.9,1687.9H611v6.2h-32.1V1687.9z
		 M578.9,1767.5H611v6.2h-32.1V1767.5z"/>
	<path id="Vector_34" class="st5" d="M781.8,1691.2h6.2v103.3h-6.2V1691.2z M525.9,1115.4h85v5.8h-85V1115.4z"/>
	<path id="Vector_35" class="st5" d="M525.9,1118.3h5.8v95h-5.8V1118.3z M319.2,1236.2h5.8v127.1h-5.8V1236.2z"/>
	<path id="Vector_36" class="st5" d="M319.2,1357.1h60v5.8h-60V1357.1z M319.2,1236.2h82.9v5.8h-82.9V1236.2z"/>
	<path id="Vector_37" class="st5" d="M376.3,1292.1h5.8v89.6h-5.8V1292.1z"/>
	<path id="Vector_38" class="st5" d="M376.3,1290.8H408v5.8h-31.7V1290.8z M799.3,1691.2h6.2v103.3h-6.2V1691.2z M709.7,1785.8h52.9
		v12.5h-52.9V1785.8z M711,1687.9h51.7v12.5H711V1687.9z M765.2,1556.7h27.5v12.5h-27.5V1556.7z M826.8,1353.7h12.5V1460h-12.5
		V1353.7z"/>
	<path id="Vector_39" class="st5" d="M829.8,1213.3h9.6V1355h-9.6V1213.3z M725.6,1353.7h9.6v105h-9.6V1353.7z M623.4,1353.7h9.6
		v105h-9.6V1353.7z M594.3,1456.7h9.6v105h-9.6V1456.7z M687.2,1456.7h9.6v105h-9.6V1456.7z M783.1,1456.7h9.6v105h-9.6V1456.7z
		 M597.2,1210.4H621v9.6h-23.8V1210.4z"/>
	<path id="Vector_40" class="st5" d="M662.6,1207.9h229.2v12.1H662.6V1207.9z M393,339.9h15.4v20H393V339.9z"/>
	<path id="Vector_41" class="st5" d="M400,339.9h110.9v15.8H400.5v-15.8H400z M32,433.7h365.9v15.8H32V433.7z M32,590.8h253.8v15.8
		H32V590.8z M270.4,651.2h133V667h-133V651.2z"/>
	<path id="Vector_42" class="st5" d="M270,590.8h15.8v75.8H270V590.8z M452.1,32h15.8v314.6h-15.8V32z M289.2,1206.2h119.2v15.4
		H289.2L289.2,1206.2L289.2,1206.2z M35.4,897.9h366.4v15.4H35.4V897.9z"/>
	<path id="Vector_43" class="st3" d="M0.3,1365.8h40.9v45H0.4v-45C0.4,1365.8,0.3,1365.8,0.3,1365.8z M0.3,1200.8h40.9v91.3H0.4
		v-91.3C0.4,1200.8,0.3,1200.8,0.3,1200.8z M0.3,1035.4h40.9v91.2H0.4v-91.2C0.4,1035.4,0.3,1035.4,0.3,1035.4z M0.3,870h40.9v91.3
		H0.4V870C0.4,870,0.3,870,0.3,870z M0.3,703.7h40.9V795H0.4v-91.3C0.4,703.7,0.3,703.7,0.3,703.7z M0.3,536.6h40.9v91.3H0.4v-91.3
		C0.4,536.6,0.3,536.6,0.3,536.6z M0.3,372.4h40.9v91.3H0.4v-91.3C0.4,372.4,0.3,372.4,0.3,372.4z M0.3,207.4h40.9v91.3H0.4v-91.3
		C0.4,207.4,0.3,207.4,0.3,207.4z M0.3,115.8h40.9V132H0.4v-16.2C0.4,115.8,0.3,115.8,0.3,115.8z M125.8,1589.2h35v22.5h-35
		C125.8,1611.7,125.8,1589.2,125.8,1589.2z M126.2,2251.3h30v24.2h-30V2251.3z M126.2,1920h30v24.2h-30V1920z"/>
	<path id="Vector_44" class="st4" d="M1212.4,1448.3v-91.2h29.6l12.1,91.2H1212.4z"/>
	<path id="Vector_45" class="st3" d="M1211.1,1196.2h23.8v86.2h-23.8V1196.2z"/>
	<path id="Vector_46" class="st3" d="M1175.7,1184.1h61.3v37.5h-61.3V1184.1z M0.3,0.3h24.2v24.2H0.3V0.3z"/>
</g>
</svg>
