<?xml version="1.0" encoding="utf-8"?>
<!-- Generator: Adobe Illustrator 27.0.0, SVG Export Plug-In . SVG Version: 6.00 Build 0)  -->
<svg version="1.1" id="_Слой_1" xmlns="http://www.w3.org/2000/svg" xmlns:xlink="http://www.w3.org/1999/xlink" x="0px"
	 y="0px" viewBox="0 0 1250.6 2642.9" style="enable-background:new 0 0 1250.6 2642.9;" xml:space="preserve">
<style type="text/css">
	.st0{opacity:1.000000e-02;}
	.st1{opacity:0.4;}
	.st2{fill:#91AAB6;}
	.st3{fill:#003A50;stroke:#003A50;stroke-width:0.52;stroke-miterlimit:10;}
	.st4{fill-rule:evenodd;clip-rule:evenodd;fill:#003A50;stroke:#003A50;stroke-width:0.52;stroke-miterlimit:10;}
	.st5{fill:#003A50;}
</style>
<g id="stikers" class="st0">
	<path id="s-fl15" d="M363.3,911.3h-318v125h318V911.3z"/>
	<path id="s-fl16" d="M361.9,605.3h-318v125h318V605.3z"/>
	<path id="s-fl17" d="M361.9,452.2h-318v125h318V452.2L361.9,452.2z"/>
	<path id="s-fl18" d="M361.9,150.3h-318v125h318V150.3L361.9,150.3z"/>
	<path id="s-fl19" d="M881.9,150.3h-318v125h318V150.3L881.9,150.3z"/>
	<path id="s-fl20" d="M881.9,605.3h-318v125h318V605.3z"/>
	<path id="s-fl21" d="M881.9,911.3h-318v125h318V911.3z"/>
	<path id="s-fl150" d="M1208.9,1891.3h-318v125h318V1891.3z"/>
	<path id="s-fl149" d="M1208.9,1393.3h-318v125h318V1393.3z"/>
	<path id="s-fl151" d="M1208.9,2364.3h-318v125h318V2364.3z"/>
	<path id="s-fl146" d="M487.9,2364.3h-318v125h318V2364.3z"/>
	<path id="s-fl147" d="M487.9,1891.3h-318v125h318V1891.3z"/>
	<path id="s-fl148" d="M487.9,1393.3h-318v125h318V1393.3z"/>
</g>
<g id="flats" class="st1">
	<path id="fl151" class="st2" d="M1208.7,2253.9V2196H988.8v-100.3H759.6v158.2h-69v347.5h518.5L1208.7,2253.9L1208.7,2253.9z"/>
	<path id="fl150" class="st2" d="M876.9,1710.4v392.1h114.3v95.3h217.9v-487.3L876.9,1710.4L876.9,1710.4L876.9,1710.4z"/>
	<path id="fl149" class="st2" d="M876.9,1211.8h332.2v501.5H876.9L876.9,1211.8L876.9,1211.8z"/>
	<path id="fl148" class="st2" d="M474,1840.2h29.9v-149.8H474v-85.7h29.9v-211.8H167.1v489.4h306.8v-42.1H474z"/>
	<path id="fl147" class="st2" d="M365.9,2080.4h138v-195.6H168v316.7h198.3L365.9,2080.4z"/>
	<path id="fl146" class="st2" d="M621.6,2252.2v-163.6H498.1v-7.9H361.3v116.6H168V2601h522.6v-348.8H621.6z"/>
	<path id="fl21" class="st2" d="M501,767.7h380.4v312.6H501V767.7L501,767.7z"/>
	<path id="fl20" class="st2" d="M683.9,456v116.5H501v195.2h380.4V456H683.9z"/>
	<path id="fl19" class="st2" d="M881.4,234.6V43.1H458.6v303H501v232.6h187.5V460.6h192.9V234.6z"/>
	<path id="fl18" class="st2" d="M458.6,42.7H42.4v392.9h365.1v-89.5h50.7C458.2,346.1,458.6,42.7,458.6,42.7z"/>
	<path id="fl17" class="st2" d="M407.9,437.3H42.4v164.8h235.7V655h129.3L407.9,437.3L407.9,437.3z"/>
	<path id="fl16" class="st2" d="M278.6,659.5v-64.1H42.4v308.4h365.1V659.5H278.6z"/>
	<path id="fl15" class="st2" d="M298.5,1211.4h108.9V901.7h-365v483.2h256.1V1211.4z"/>
</g>
<g id="walls_outside">
	<path id="Vector" class="st3" d="M297.3,0.3h13.3v42.5h-13.3V0.3z M899.7,0.3h24.1v24.1h-24.1V0.3z M881.4,129.7h42v13.7h-42V129.7
		z M888.9,1172.7h42v39.5h-42V1172.7z"/>
	<path id="Vector_2" class="st4" d="M1006.2,1211.8v-39.5l89.8,12.1v27.5L1006.2,1211.8L1006.2,1211.8z"/>
	<path id="Vector_3" class="st3" d="M881.4,219.6h42v14.2h-42V219.6z M881.4,295.3h42V309h-42V295.3z M881.4,384.4h42v14.2h-42
		V384.4z M881.4,460.1h42v14.2h-42V460.1z M881.4,549.6h42v13.7h-42V549.6z M881.4,625.4h42v13.7h-42V625.4z M881.4,714h42v14.2h-42
		V714z M881.4,789.8h42V804h-42V789.8z M881.4,879.2h42v14.2h-42V879.2z M881.4,955h42v13.7h-42V955z M881.4,1045.7h42v14.1h-42
		V1045.7z"/>
	<path id="Vector_4" class="st3" d="M881.4,219.6H913v89.5h-31.6V219.6z M881.4,384.4H913v89.5h-31.6V384.4z M881.4,549.6H913v89.5
		h-31.6V549.6z M881.4,714.4H913v89.5h-31.6V714.4z M881.4,888.8H913V962h-31.6V888.8z M881.4,1055.7H913V1188h-31.6V1055.7z"/>
	<path id="Vector_5" class="st3" d="M881.4,1045.7h23.7v166.1h-23.7V1045.7z M1226.1,1172.7h23.7v39.5h-23.7V1172.7z M1208.7,1684.1
		h41.6v91.6h-41.6V1684.1z M1208.7,1849h33.3v91.6h-33.3V1849z"/>
	<path id="Vector_6" class="st3" d="M1217,1916.8h33.3v23.7H1217V1916.8z M1208.7,2179h33.3v91.6h-33.3V2179z M1208.7,2519.4h33.3
		V2621h-33.3V2519.4z"/>
	<path id="Vector_7" class="st3" d="M1217,2246.8h33.3v23.7H1217V2246.8z M1208.7,1518.9h33.3v91.6h-33.3V1518.9z"/>
	<path id="Vector_8" class="st3" d="M1217,1586.8h33.3v23.7H1217V1586.8z"/>
	<path id="Vector_9" class="st4" d="M1208.7,2106.6V2015h29.5l12,91.6H1208.7z M1208.7,2436.2v-89.9h29.5l12,89.9H1208.7z"/>
	<path id="Vector_10" class="st3" d="M1208.7,2618.5h41.6v23.7h-41.6V2618.5z"/>
	<path id="Vector_11" class="st3" d="M1147.5,2601.4h71.5v41.2h-71.5V2601.4z M1000.3,2595.6h71.9v24.1h-71.5L1000.3,2595.6
		L1000.3,2595.6z M835.7,2595.6h71.5v24.1h-71.5V2595.6z"/>
	<path id="Vector_12" class="st4" d="M982.9,2642.2v-31.6h89.4v20L982.9,2642.2z M407.9,2642.2v-31.6h89.4v20L407.9,2642.2z"/>
	<path id="Vector_13" class="st3" d="M818.2,2610.6h89.4v20h-89.4V2610.6z M652.3,2610.6h89.4v31.6h-89.4V2610.6z M563,2600.2h22.9
		v42H563V2600.2z"/>
	<path id="Vector_14" class="st3" d="M652.3,2595.6h71.6v31.6h-71.5L652.3,2595.6L652.3,2595.6z M425.7,2595.6h71.5v31.6h-71.5
		V2595.6z M884.3,2622.7h23.3v20h-23.3V2622.7z M260.7,2595.6h71.9v24.1h-71.9V2595.6L260.7,2595.6z"/>
	<path id="Vector_15" class="st3" d="M243.2,2610.6h89.4v20h-89.4L243.2,2610.6L243.2,2610.6L243.2,2610.6z"/>
	<path id="Vector_16" class="st3" d="M243.2,2622.7h23.3v20h-23.3V2622.7z M125.6,2520.3h41.6v121.9h-41.6V2520.3z"/>
	<path id="Vector_17" class="st4" d="M156.3,2434.9v-90.7h-30.8l12.1,90.7H156.3z"/>
	<path id="Vector_18" class="st3" d="M147.2,2344.2h20.4v90.7h-20.4V2344.2z M137.6,2180.2h29.9v89.9h-29.9V2180.2z M125.6,2016.3
		h41.6v89.9h-41.6C125.6,2106.2,125.6,2016.3,125.6,2016.3z M137.6,1849.8h29.9v89.9h-29.9V1849.8z M125.6,1685h47v89.9h-47V1685z
		 M137.6,1518.5h34.9v89.9h-34.9L137.6,1518.5L137.6,1518.5z"/>
	<path id="Vector_19" class="st5" d="M35.8,1377.4h461.1v15.4H35.8V1377.4z M160.9,1878.9h343v11.7h-343V1878.9z"/>
	<path id="Vector_20" class="st5" d="M288.5,1203.5h15.4v179h-15.4V1203.5z M489.8,1345h14.6v355.4h-14.6V1345z"/>
	<path id="Vector_21" class="st5" d="M489.8,1684.1h14.6v36.2h-14.6V1684.1z"/>
	<path id="Vector_22" class="st5" d="M431.6,1684.1H501v14.6h-69.4V1684.1z M489.8,1762.4h14.6V1881h-14.6V1762.4z"/>
	<path id="Vector_23" class="st5" d="M489.8,1879.8h14.6v114.9h-14.6V1879.8z M355.1,2072h139.7v14.6H355.1V2072z M496.4,2088.7
		h23.7v14.6h-23.7V2088.7z M561.7,2088.7h59v14.6h-59V2088.7z M759.6,2095.3h59.9v14.6h-59.9V2095.3L759.6,2095.3z M861.5,2095.3
		h136v14.6h-136V2095.3z M886.4,1703.7h338.9v14.6H886.4V1703.7z M982.5,2191.1h231.6v14.6H982.5V2191.1z M615.3,2246h150.6v12.5
		H615.3L615.3,2246L615.3,2246z M615.3,1969.2h38.3v12.5h-38.3V1969.2z M714.3,1969.2h51.6v12.5h-51.6V1969.2z"/>
	<path id="Vector_24" class="st5" d="M355.1,2072h14.6v132.8h-14.6V2072z M379.6,2293h14.6v70.8h-14.6V2293z M876.9,2266h14.6v75.3
		h-14.6V2266z M876.9,1866.4h14.6v357.5h-14.6V1866.4L876.9,1866.4z M876.9,1649.2h14.6v175.2h-14.6V1649.2z M982.5,2095.3h14.6
		v109.9h-14.6V2095.3z M681.9,2254.3h14.6v353.3h-14.6V2254.3z"/>
	<path id="Vector_25" class="st5" d="M160.1,2190.2h209.1v14.6H160.1V2190.2z M489.8,2036.7h14.6v167.7h-14.6V2036.7z M615.3,1969.2
		h12.5v289.2h-12.5V1969.2z M753.4,1969.6h12.5v288.8h-12.5V1969.6L753.4,1969.6z M392.5,1098.2h15.4v120.7h-15.4V1098.2z
		 M392.5,796.8h15.4v258h-15.4V796.8z M392.5,525.9h15.4v229.3h-15.4V525.9z M392.5,400.6h15.4v83.2h-15.4V400.6z M501,339h15.4
		v55.4H501V339z M501,436h15.4v97.4H501V436z M501,569.2h15.4v52.9H501V569.2z M679.4,450.2h15.4v133.6h-15.4V450.2L679.4,450.2z
		 M501,663.7h15.4v135.6H501V663.7L501,663.7z M501,912.1h15.4v15.8H501V912.1z"/>
	<path id="Vector_26" class="st5" d="M513.9,912.1h30.8v11.2h-30.8V912.1z M506,763.1h396.2v12.1H506L506,763.1L506,763.1z
		 M506,569.2h188.3v14.6H506L506,569.2L506,569.2z M506,523.4h31.6v10.4H506V523.4z"/>
	<path id="Vector_27" class="st5" d="M526.8,529.6h10.8v44.5h-10.8V529.6z M679.4,450.2h217v14.6h-217V450.2z M679.4,230h217v14.6
		h-217V230z M158.8,228.3h70.3v14.1h-70.3V228.3L158.8,228.3z M529.3,768.5h15.4v153.2h-15.4V768.5z M501,970h15.4v117H501L501,970
		L501,970z M603.3,1084h12.5v131.5h-12.5V1084z M876.9,1078.2h14.6v529.4h-14.6V1078.2z"/>
	<path id="Vector_28" class="st5" d="M501,1073.6h401.6v12.9H501V1073.6z M501,1207.6h52.8v9.6H501V1207.6z M398.3,1206.8h9.6v37
		h-9.6V1206.8z M398.3,1285.4h9.6v99.5h-9.6V1285.4z"/>
	<path id="Vector_29" class="st5" d="M501,1210.5h9.6v37.5H501V1210.5z M195.4,1145.6H210v71.6h-14.6V1145.6z M501,1312.1h9.6v37.4
		H501V1312.1z"/>
	<path id="Vector_30" class="st5" d="M495.6,1345h41.2v12.5h-41.2L495.6,1345L495.6,1345z M588.7,1345h63.6v12.5h-63.6V1345z
		 M704.7,1345h49.1v12.5h-49.1V1345z M804.9,1345h32.4v12.5h-32.4V1345z M498.1,1449h384.2v12.5H498.1L498.1,1449L498.1,1449z
		 M498.1,1553.1h121.4v12.5H498.1L498.1,1553.1L498.1,1553.1z M670.2,1553.1h41.2v12.5h-41.2V1553.1z M600.4,1684.1h37.8v12.5h-37.8
		V1684.1z"/>
	<path id="Vector_31" class="st5" d="M600.4,1684.1h12.5v103.6h-12.5V1684.1z M577.5,1687.1h11.6v159.4h-11.6V1687.1z M577.5,1888.1
		h11.6v18.7h-11.6V1888.1z M643.2,1904.3h10.4v71.2h-10.4V1904.3z M714.3,1894.3h10.4v81.2h-10.4V1894.3z M714.3,1785.7h10.4v70.8
		h-10.4V1785.7z M792.9,1787.8h10.4v68.2h-10.4V1787.8z"/>
	<path id="Vector_32" class="st5" d="M587.5,1897.6h77.3v9.2h-77.3V1897.6z M702.2,1897.6h21.7v9.2h-21.6v-9.2H702.2L702.2,1897.6z
		 M748.4,1684.1h12.5v103.6h-12.5V1684.1z M577.5,1782h61.1v12.5h-61.1V1782z M742.6,1787.8h61.1v6.2h-61.1V1787.8L742.6,1787.8z"/>
	<path id="Vector_33" class="st5" d="M742.6,1684.1h61.1v6.2h-61.1V1684.1L742.6,1684.1z M577.5,1684.1h32v6.2h-32V1684.1z
		 M577.5,1763.2h32v6.2h-32V1763.2z"/>
	<path id="Vector_34" class="st5" d="M780,1687.9h6.2v103.2H780V1687.9z M797.5,1687.9h6.2v103.2h-6.2V1687.9z M708.1,1782h52.8
		v12.5h-52.8V1782z M708.9,1684.1h51.6v12.5h-51.6V1684.1z M762.9,1553.1h27.4v12.5h-27.4V1553.1z M824.9,1351.2h12.5v106.1h-12.5
		V1351.2z"/>
	<path id="Vector_35" class="st5" d="M827.4,1210.5h9.6V1352h-9.6V1210.5z M723.9,1351.2h9.6v104.9h-9.6V1351.2z M622,1351.2h9.6
		v104.9H622V1351.2z M592.9,1453.2h9.6v104.9h-9.6V1453.2z M685.2,1453.2h9.6v104.9h-9.6V1453.2z M780.8,1453.2h9.6v104.9h-9.6
		V1453.2z M595.8,1207.6h23.7v9.6h-23.7V1207.6z"/>
	<path id="Vector_36" class="st5" d="M660.7,1205.1h228.2v12.1H660.7V1205.1z M392.5,339h15.4v20h-15.4V339z"/>
	<path id="Vector_37" class="st5" d="M399.1,339h110.2v15.8H399.1L399.1,339L399.1,339z M32.4,433.1H397v15.8H32.4V433.1z
		 M32.4,589.2h252.8V605H32.4V589.2z M269.8,649.5h133v15.8h-133V649.5L269.8,649.5z"/>
	<path id="Vector_38" class="st5" d="M269.8,589.2h15.8v75.7h-15.8V589.2L269.8,589.2z M451.1,31.9h15.8v313.8h-15.8V31.9z
		 M288.5,1203.5h118.9v15.4H288.5V1203.5z M35.8,895.9h365.1v15.4H35.8V895.9z"/>
	<path id="Vector_39" class="st3" d="M12.9,1198h28.7v91.2H12.9V1198z M12.9,1032.8h28.7v91.1H12.9V1032.8z M12.9,868h28.7v91.1
		H12.9V868z M12.9,701.9h28.7v91.6H12.9V701.9z M12.9,535.5h28.7v91.6H12.9V535.5z M12.9,371.5h28.7v91.1H12.9V371.5z M12.9,207.1
		h28.7v91.1H12.9V207.1z"/>
	<path id="Vector_40" class="st3" d="M11.6,1198h29.9v91.2H11.6V1198L11.6,1198z"/>
	<path id="Vector_41" class="st3" d="M0.8,1275.9h40.7v13.7H0.8V1275.9L0.8,1275.9z M0.8,1198h40.7v14.6H0.8V1198L0.8,1198z
		 M0.8,1109.8h40.7v14.6H0.8V1109.8L0.8,1109.8z M0.8,1032.8h40.7v15H0.8V1032.8L0.8,1032.8z M0.8,868h40.7v15H0.8V868L0.8,868z
		 M0.8,778.5h40.7v15H0.8V778.5L0.8,778.5z M0.8,701.9h40.7v15H0.8V701.9L0.8,701.9z M0.8,535.5h40.7v15H0.8V535.5L0.8,535.5z
		 M0.8,371.5h40.7v15H0.8V371.5L0.8,371.5z M0.8,207.1h40.7v14.6H0.8V207.1L0.8,207.1z M0.8,283.3h40.7v15H0.8V283.3L0.8,283.3z
		 M0.8,448.1h40.7v15H0.8V448.1L0.8,448.1z M0.8,612.1h40.7v15H0.8V612.1L0.8,612.1z M0.8,944.6h40.7v15H0.8V944.6L0.8,944.6z"/>
	<path id="Vector_42" class="st3" d="M11.6,1032.8h29.9v91.1H11.6V1032.8L11.6,1032.8z M11.6,868h29.9v91.1H11.6V868L11.6,868z
		 M11.6,701.9h29.9v91.6H11.6V701.9L11.6,701.9z M10,535.5h31.2v91.6H10V535.5L10,535.5z M10,371.5h31.2v91.1H10V371.5L10,371.5z
		 M11.6,207.1h29.9v91.1H11.6V207.1L11.6,207.1z M0.8,115.5h40.7v16.2H0.8V115.5C0.8,115.5,0.8,115.5,0.8,115.5z"/>
	<path id="Vector_43" class="st3" d="M0.8,115.5h40.7v16.2H0.8V115.5C0.8,115.5,0.8,115.5,0.8,115.5z M125.6,1585.5h34.9v22.5h-34.9
		V1585.5z M126.4,2246h29.9v24.1h-29.9V2246z M126.4,1915.5h29.9v24.1h-29.9V1915.5z"/>
	<path id="Vector_44" class="st4" d="M1208.7,1444.8v-91.1h29.5l12,91.1H1208.7z"/>
	<path id="Vector_45" class="st3" d="M1207.8,1193.5h33.3v86.2h-33.3V1193.5z"/>
	<path id="Vector_46" class="st3" d="M1172.1,1181.4h61.1v37.5h-61.1V1181.4z M0.8,0.3h24.1v24.1H0.8V0.3z M145.5,12.7h91.1v30.4
		h-91.1V12.7z"/>
	<path id="Vector_47" class="st3" d="M145.5,0.3h13.3v42.5h-13.3V0.3z M223.3,0.3h13.3v42.5h-13.3V0.3z M386.2,0.3h13.3v42.5h-13.3
		V0.3z M463.6,0.3h13.3v42.5h-13.3V0.3z M551.7,0.3H565v42.5h-13.3V0.3z M628.6,0.3h13.3v42.5h-13.3V0.3z M702.2,0.3h13.3v42.5
		h-13.3V0.3z M779.2,0.3h13.3v42.5h-13.3V0.3z"/>
	<path id="Vector_48" class="st3" d="M386.2,12.7h90.7v30.4h-90.6V12.7H386.2z M551.7,12.7h90.6v30.4h-90.6V12.7z M702.2,12.7h90.6
		v30.4h-90.6V12.7z M10,1378.7h139.7v37.4H10V1378.7z"/>
	<path id="Vector_49" class="st3" d="M0,1401.6h24.5v23.3H0.4v-23.3H0z"/>
	<path id="Vector_50" class="st3" d="M10,1362.4h31.6v44.9H10V1362.4z M133.9,1378.7h33.3v66.2h-33.3V1378.7z"/>
	<path id="Vector_51" class="st3" d="M125.1,1384.9h24.1v40h-24.1V1384.9z"/>
</g>
</svg>
