<?xml version="1.0" encoding="utf-8"?>
<!-- Generator: Adobe Illustrator 27.0.0, SVG Export Plug-In . SVG Version: 6.00 Build 0)  -->
<svg version="1.1" id="_Слой_1" xmlns="http://www.w3.org/2000/svg" xmlns:xlink="http://www.w3.org/1999/xlink" x="0px"
	 y="0px" viewBox="0 0 1250.5 2639.5" style="enable-background:new 0 0 1250.5 2639.5;" xml:space="preserve">
<style type="text/css">
	.st0{opacity:1.000000e-02;}
	.st1{opacity:0.4;}
	.st2{fill:#91AAB6;}
	.st3{fill:#003A50;stroke:#003A50;stroke-width:0.52;stroke-miterlimit:10;}
	.st4{fill-rule:evenodd;clip-rule:evenodd;fill:#003A50;stroke:#003A50;stroke-width:0.52;stroke-miterlimit:10;}
	.st5{fill:#003A50;}
</style>
<g id="stikers" class="st0">
	<path id="s-fl22" d="M359.9,910.3h-318v125h318V910.3z"/>
	<path id="s-fl23" d="M359.9,604.3h-318v125h318V604.3z"/>
	<path id="s-fl24" d="M359.9,448.7h-318v125h318V448.7L359.9,448.7z"/>
	<path id="s-fl25" d="M359.9,152.3h-318v125h318V152.3z"/>
	<path id="s-fl26" d="M880.9,152.3h-318v125h318V152.3z"/>
	<path id="s-fl27" d="M881.9,604.3h-318v125h318V604.3z"/>
	<path id="s-fl28" d="M881.9,910.3h-318v125h318V910.3z"/>
	<path id="s-fl155" d="M1209.9,1391.3h-318v125h318V1391.3z"/>
	<path id="s-fl156" d="M1209.9,1888.3h-318v125h318V1888.3z"/>
	<path id="s-fl157" d="M1209.9,2359.4h-318v125h318V2359.4z"/>
	<path id="s-fl152" d="M485.9,2359.4h-318v125h318V2359.4z"/>
	<path id="s-fl153" d="M485.9,1888.3h-318v125h318V1888.3z"/>
	<path id="s-fl154" d="M485.9,1391.3h-318v125h318V1391.3z"/>
</g>
<g id="flats" class="st1">
	<path id="fl157" class="st2" d="M1241.9,2192.8H988.7v-100.2H759.6v157.9h-69v378.2h551.3L1241.9,2192.8L1241.9,2192.8z"/>
	<path id="fl156" class="st2" d="M876.9,1708.2v391.5h114.3v95.2h250.7v-486.7L876.9,1708.2L876.9,1708.2z"/>
	<path id="fl155" class="st2" d="M876.9,1186.5h365v524.6h-365L876.9,1186.5L876.9,1186.5z"/>
	<path id="fl154" class="st2" d="M474,1837.9h29.9v-149.6H474v-85.6h29.9V1391H137.2v488.8h337.2L474,1837.9L474,1837.9z"/>
	<path id="fl153" class="st2" d="M365.9,2077.7h138v-195.4H136.8v316.3h229.5L365.9,2077.7L365.9,2077.7z"/>
	<path id="fl152" class="st2" d="M621.6,2249.4V2086H498.1v-7.9H361.3v116.4H136.8v434.4h553.8v-379.5H621.6L621.6,2249.4z"/>
	<path id="fl28" class="st2" d="M501,766.7h412v312.2H501V766.7z"/>
	<path id="fl27" class="st2" d="M684,455.4v116.4H501v194.9h412V455.4H684L684,455.4z"/>
	<path id="fl26" class="st2" d="M911.8,12.3H458.6v333.4H501V578h187.5V460h225.8L911.8,12.3L911.8,12.3z"/>
	<path id="fl25" class="st2" d="M458.6,12.3H10V435h397.9v-89.4h50.7L458.6,12.3L458.6,12.3z"/>
	<path id="fl24" class="st2" d="M407.9,436.7H10v164.6h268.6v52.8h129.3V436.7z"/>
	<path id="fl23" class="st2" d="M278.6,658.7v-64H10v308h397.9v-244H278.6z"/>
	<path id="fl22" class="st2" d="M298.5,1209.8h108.9V900.6H10v482.6h289L298.5,1209.8L298.5,1209.8z"/>
</g>
<g id="walls_outside">
	<path id="Vector" class="st3" d="M297.3,0.3h13.3v42.4h-13.3V0.3z M899.7,0.3h24.1v24.1h-24.1V0.3z M881.5,129.5h42v13.7h-42V129.5
		z M888.9,1171.2h42v39.5h-42V1171.2z"/>
	<path id="Vector_2" class="st4" d="M1006.2,1210.2v-39.5l89.8,12.1v27.4L1006.2,1210.2L1006.2,1210.2z"/>
	<path id="Vector_3" class="st3" d="M881.5,219.3h42v14.1h-42V219.3z M881.5,295h42v13.7h-42V295z M881.5,383.9h42V398h-42V383.9z
		 M881.5,459.6h42v14.1h-42V459.6z M881.5,548.9h42v13.7h-42V548.9z M881.5,624.6h42v13.7h-42V624.6z M881.5,713.1h42v14.1h-42
		V713.1z M881.5,788.8h42v14.1h-42V788.8z M881.5,878.1h42v14.1h-42V878.1z M881.5,953.8h42v13.7h-42V953.8z M881.5,1044.4h42v14.1
		h-42V1044.4z"/>
	<path id="Vector_4" class="st3" d="M881.5,219.3H913v89.4h-31.6V219.3z M881.5,383.9H913v89.4h-31.6V383.9L881.5,383.9z
		 M881.5,548.9H913v89.4h-31.6V548.9z M881.5,713.5H913v89.4h-31.6V713.5z M881.5,887.7H913v73.2h-31.6V887.7z M881.5,1054.4H913
		v132.2h-31.6V1054.4z"/>
	<path id="Vector_5" class="st3" d="M881.5,1044.4h23.7v165.8h-23.7V1044.4z M1226.1,1171.2h23.7v39.5h-23.7V1171.2z"/>
	<path id="Vector_6" class="st4" d="M1208.7,1773.4V1682h41.6l-8.3,91.4H1208.7L1208.7,1773.4z"/>
	<path id="Vector_7" class="st3" d="M1208.7,1846.6h33.3v91.4h-33.3V1846.6z"/>
	<path id="Vector_8" class="st3" d="M1217,1914.3h33.3v23.7H1217V1914.3z M1208.7,2176.2h33.3v91.4h-33.3V2176.2z M1208.7,2592.3
		h33.3v25.4h-33.3V2592.3z"/>
	<path id="Vector_9" class="st3" d="M1217,2244h33.3v23.7H1217V2244z M1208.7,1517h33.3v91.4h-33.3V1517z"/>
	<path id="Vector_10" class="st3" d="M1217,1584.7h33.3v23.7H1217V1584.7z"/>
	<path id="Vector_11" class="st4" d="M1208.7,2103.9v-91.4h41.6l-10,91.4H1208.7z"/>
	<path id="Vector_12" class="st3" d="M1208.7,2343.3h41.6v89.8h-41.6V2343.3z M1208.7,2615.1h41.6v23.7h-41.6V2615.1z"/>
	<path id="Vector_13" class="st3" d="M1147.6,2598.1h71.5v41.1h-71.5V2598.1z M1000.4,2592.3h71.9v24.1h-71.5L1000.4,2592.3z
		 M835.7,2592.3h71.5v24.1h-71.5V2592.3z"/>
	<path id="Vector_14" class="st4" d="M1072.3,2638.8v-31.6h-89.4v21.6L1072.3,2638.8z"/>
	<path id="Vector_15" class="st3" d="M407.9,2607.2h89.4v31.6h-89.4V2607.2z M818.2,2607.2h89.4v19.9h-89.4V2607.2z"/>
	<path id="Vector_16" class="st4" d="M652.3,2638.8v-31.6h89.4v21.6L652.3,2638.8z"/>
	<path id="Vector_17" class="st3" d="M563,2596.9h22.9v42H563V2596.9z M652.4,2592.3h71.5v31.6h-71.5V2592.3z M425.8,2592.3h71.5
		v31.6h-71.5V2592.3z M884.4,2619.3h23.3v19.9h-23.3V2619.3z M260.7,2592.3h71.9v24.1h-71.9V2592.3z"/>
	<path id="Vector_18" class="st3" d="M243.2,2607.2h89.4v19.9h-89.4V2607.2z"/>
	<path id="Vector_19" class="st3" d="M243.2,2619.3h23.3v19.9h-23.3L243.2,2619.3L243.2,2619.3z M125.1,2592.3h42v46.6h-42V2592.3z"
		/>
	<path id="Vector_20" class="st4" d="M156.3,2431.8v-90.6h-30.8l-1.2,90.6H156.3L156.3,2431.8z"/>
	<path id="Vector_21" class="st3" d="M147.2,2341.2h20.4v90.6h-20.4V2341.2z M137.6,2177.4h29.9v89.8h-29.9V2177.4z"/>
	<path id="Vector_22" class="st4" d="M167.6,2103.5v-89.8H126l9.6,89.8H167.6z"/>
	<path id="Vector_23" class="st3" d="M137.6,1847.4h29.9v89.8h-29.9V1847.4z M125.6,1682.8h47v89.8h-47V1682.8z M137.6,1516.6h34.9
		v89.8h-34.9V1516.6z"/>
	<path id="Vector_24" class="st5" d="M35.8,1375.7h461.1v15.4H35.8V1375.7z M160.9,1876.5h343v11.6h-343L160.9,1876.5L160.9,1876.5z
		"/>
	<path id="Vector_25" class="st5" d="M288.5,1201.9h15.4v178.7h-15.4V1201.9z M489.8,1343.2h14.5v343.3h-14.5V1343.2z"/>
	<path id="Vector_26" class="st5" d="M489.8,1682h14.5v36.2h-14.5V1682z"/>
	<path id="Vector_27" class="st5" d="M431.6,1682H501v14.6h-69.4V1682z M489.8,1760.1h14.5v125.5h-14.5V1760.1z"/>
	<path id="Vector_28" class="st5" d="M489.8,1877.3h14.5v114.7h-14.5V1877.3z M355.1,2069.4h139.7v14.6H355.1V2069.4z M496.4,2086
		h23.7v14.6h-23.7V2086z M561.7,2086h59v14.6h-59V2086z M759.6,2092.7h59.9v14.6h-59.9V2092.7z M861.5,2092.7h136v14.6h-136V2092.7z
		 M886.4,1701.5h338.9v14.6H886.4L886.4,1701.5L886.4,1701.5z M982.5,2188.3h231.6v14.6H982.5V2188.3z M615.3,2243.1h150.5v12.5
		H615.3V2243.1z M615.3,1966.7h38.2v12.5h-38.2V1966.7z M714.3,1966.7h51.6v12.5h-51.6V1966.7z"/>
	<path id="Vector_29" class="st5" d="M355.1,2069.4h14.5V2202h-14.5V2069.4z M379.6,2290.1h14.5v70.7h-14.5V2290.1z M876.9,2263.1
		h14.5v75.2h-14.5V2263.1z M876.9,1864h14.5v357.1h-14.5V1864z M876.9,1647.1h14.5v175h-14.5V1647.1z M982.5,2092.7H997v109.7h-14.6
		V2092.7z M681.9,2251.4h14.5v352.9h-14.5V2251.4z"/>
	<path id="Vector_30" class="st5" d="M160.1,2187.4h209.1v14.6H160.1V2187.4z M489.8,2034h14.5v167.5h-14.5V2034L489.8,2034z
		 M615.3,1966.7h12.5v288.9h-12.5V1966.7L615.3,1966.7z M753.4,1967.1h12.5v288.5h-12.5V1967.1L753.4,1967.1z M392.5,1096.8h15.4
		v120.5h-15.4V1096.8z M392.5,795.8h15.4v257.7h-15.4V795.8L392.5,795.8z M392.5,525.2h15.4v229h-15.4V525.2z M392.5,400.1h15.4
		v83.1h-15.4V400.1z M501,338.6h15.4v55.3H501L501,338.6L501,338.6z M501,435.5h15.4v97.3H501L501,435.5L501,435.5z M501,568.5h15.4
		v52.8H501L501,568.5L501,568.5z M679.4,449.6h15.4V583h-15.4V449.6z M501,662.8h15.4v135.5H501V662.8z M501,911h15.4v15.8H501V911z
		"/>
	<path id="Vector_31" class="st5" d="M513.9,911h30.8v11.2h-30.8V911z M506,762.2h396.2v12H506L506,762.2L506,762.2z M506,568.5
		h188.4V583H506V568.5z M506,522.7h31.6v10.4H506V522.7z"/>
	<path id="Vector_32" class="st5" d="M526.8,529h10.8v44.5h-10.8V529z M679.4,449.6h217v14.5h-217V449.6z M679.4,229.7h217v14.6
		h-217V229.7z M158.8,228h70.3v14.1h-70.3V228z M529.3,767.6h15.4v153h-15.4V767.6z M501,968.7h15.4v116.8H501L501,968.7L501,968.7z
		 M603.3,1082.6h12.5V1214h-12.5V1082.6z M876.9,1076.8h14.5v528.7h-14.5V1076.8L876.9,1076.8z"/>
	<path id="Vector_33" class="st5" d="M501,1072.2h401.6v12.9H501V1072.2z M501,1206.1h52.8v9.6H501V1206.1z M398.3,1205.2h9.6v37
		h-9.6V1205.2z M398.3,1283.8h9.6v99.3h-9.6V1283.8z"/>
	<path id="Vector_34" class="st5" d="M501,1209h9.6v37.4H501V1209z M195.4,1144.1H210v71.5h-14.6V1144.1z M501,1310.4h9.6v37.4H501
		V1310.4z"/>
	<path id="Vector_35" class="st5" d="M495.6,1343.2h41.2v12.5h-41.2L495.6,1343.2L495.6,1343.2z M588.7,1343.2h63.6v12.5h-63.6
		V1343.2z M704.7,1343.2h49.1v12.5h-49.1V1343.2z M805,1343.2h32.4v12.5H805V1343.2z M498.1,1447.2h384.2v12.5H498.1V1447.2z
		 M498.1,1551.1h121.4v12.5H498.1V1551.1z M670.2,1551.1h41.2v12.5h-41.2V1551.1z M600.4,1682h37.8v12.5h-37.8V1682z"/>
	<path id="Vector_36" class="st5" d="M600.4,1682h12.5v103.5h-12.5V1682z M577.5,1686.6h11.6v157.5h-11.6V1686.6z M577.5,1885.7
		h11.6v18.7h-11.6V1885.7z M643.2,1901.9h10.4v71.1h-10.4V1901.9z M714.3,1891.9h10.4v81.1h-10.4V1891.9z M714.3,1783.4h10.4v70.7
		h-10.4V1783.4z M792.9,1785.5h10.4v68.2h-10.4V1785.5z"/>
	<path id="Vector_37" class="st5" d="M587.5,1895.2h77.3v9.2h-77.3V1895.2z M702.2,1895.2h21.6v9.2h-21.6V1895.2z M748.4,1682h12.5
		v103.5h-12.5V1682z M577.5,1779.7h61.1v12.5h-61.1V1779.7z M742.6,1785.5h61.1v6.2h-61.1V1785.5z"/>
	<path id="Vector_38" class="st5" d="M742.6,1682h61.1v6.2h-61.1V1682z M577.5,1682h32v6.2h-32V1682z M577.5,1761h32v6.2h-32V1761z"
		/>
	<path id="Vector_39" class="st5" d="M780,1685.7h6.2v103.1H780V1685.7z M797.5,1685.7h6.2v103.1h-6.2V1685.7z M708.1,1779.7h52.8
		v12.5h-52.8V1779.7z M708.9,1682h51.6v12.5h-51.6V1682z M763,1551.1h27.4v12.5H763V1551.1z M824.9,1349.5h12.5v106h-12.5V1349.5z"
		/>
	<path id="Vector_40" class="st5" d="M827.4,1209h9.6v141.3h-9.6V1209z M723.9,1349.5h9.6v104.8h-9.6V1349.5z M622,1349.5h9.6v104.8
		H622V1349.5z M592.9,1451.3h9.6V1556h-9.6V1451.3z M685.2,1451.3h9.6V1556h-9.6V1451.3z M780.8,1451.3h9.6V1556h-9.6V1451.3z
		 M595.8,1206.1h23.7v9.6h-23.7V1206.1z"/>
	<path id="Vector_41" class="st5" d="M660.7,1203.6h228.3v12.1H660.7V1203.6z M392.5,338.6h15.4v20h-15.4V338.6z"/>
	<path id="Vector_42" class="st5" d="M399.1,338.6h110.2v15.8H399.1V338.6z M32.4,432.5h364.6v15.8H32.4V432.5z M32.4,588.4h252.8
		v15.8H32.4V588.4z M269.8,648.7h133.1v15.8h-133L269.8,648.7L269.8,648.7z"/>
	<path id="Vector_43" class="st5" d="M269.8,588.4h15.8v75.7h-15.8V588.4z M451.1,31.8h15.8v313.4h-15.8V31.8z M288.5,1201.9h118.9
		v15.4H288.5V1201.9z M35.8,895.2h365v15.4h-365V895.2z"/>
	<path id="Vector_44" class="st3" d="M12.9,1196.5h28.7v91H12.9V1196.5z M12.9,1031.5h28.7v91H12.9V1031.5z M12.9,866.9h28.7v91
		H12.9V866.9z M12.9,701.1h28.7v91.4H12.9V701.1z M12.9,534.8h28.7v91.4H12.9V534.8z M12.9,371h28.7v91H12.9V371z M12.9,206.9h28.7
		v91H12.9V206.9z"/>
	<path id="Vector_45" class="st3" d="M11.6,1196.5h29.9v91H11.6V1196.5z"/>
	<path id="Vector_46" class="st3" d="M0.8,1274.2h40.8v13.7H0.8V1274.2z M0.8,1196.5h40.8v14.6H0.8V1196.5z M0.8,1108.4h40.8v14.6
		H0.8V1108.4z M0.8,1031.5h40.8v15H0.8V1031.5z M0.8,866.9h40.8v15H0.8V866.9z M0.8,777.5h40.8v15H0.8V777.5z M0.8,701.1h40.8v15
		H0.8V701.1z M0.8,534.8h40.8v15H0.8V534.8z M0.8,371h40.8v15H0.8V371z M0.8,206.8h40.8v14.6H0.8V206.8z M0.8,282.9h40.8v15H0.8
		V282.9z M0.8,447.5h40.8v15H0.8V447.5z M0.8,611.3h40.8v15H0.8V611.3z M0.8,943.4h40.8v15H0.8V943.4z"/>
	<path id="Vector_47" class="st3" d="M11.6,1031.5h29.9v91H11.6V1031.5z M11.6,866.9h29.9v91H11.6V866.9z M11.6,701.1h29.9v91.4
		H11.6V701.1z M10,534.8h31.2v91.4H10C10,626.2,10,534.8,10,534.8z M10,371h31.2v91H10C10,462.1,10,371,10,371z M11.6,206.9h29.9v91
		H11.6V206.9z M0.8,115.4h40.8v16.2H0.8V115.4z"/>
	<path id="Vector_48" class="st3" d="M0.8,115.4h40.8v16.2H0.8V115.4z M125.6,1583.5h34.9v22.4h-34.9
		C125.6,1605.9,125.6,1583.5,125.6,1583.5z M126.4,2243.1h29.9v24.1h-29.9V2243.1z M126.4,1913.1h29.9v24.1h-29.9V1913.1z
		 M1208.7,1352h41.6v91h-41.6V1352z M1207.8,1191.9h33.3v86h-33.3V1191.9z"/>
	<path id="Vector_49" class="st3" d="M1172.1,1179.9h61.1v37.4h-61.1V1179.9z M0.8,0.3H25v24.1H0.8V0.3z M145.5,12.7h91.1v30.3
		h-91.1V12.7z"/>
	<path id="Vector_50" class="st3" d="M145.5,0.3h13.3v42.4h-13.3V0.3z M223.3,0.3h13.3v42.4h-13.3V0.3z M386.3,0.3h13.3v42.4h-13.3
		V0.3z M463.6,0.3h13.3v42.4h-13.3V0.3z M551.7,0.3H565v42.4h-13.3V0.3z M628.7,0.3H642v42.4h-13.3V0.3z M702.2,0.3h13.3v42.4h-13.3
		V0.3z M779.2,0.3h13.3v42.4h-13.3V0.3z"/>
	<path id="Vector_51" class="st3" d="M386.3,12.7h90.6v30.3h-90.6V12.7z M551.7,12.7h90.6v30.3h-90.6V12.7z M702.2,12.7h90.6v30.3
		h-90.6V12.7z M10,1376.9h139.7v37.4H10V1376.9z"/>
	<path id="Vector_52" class="st3" d="M0,1399.8h24.5v23.3H0.4v-23.3H0z"/>
	<path id="Vector_53" class="st3" d="M10,1360.7h31.6v44.9H10V1360.7z M133.9,1376.9h33.3v66.1h-33.3V1376.9z"/>
	<path id="Vector_54" class="st3" d="M125.2,1383.1h24.1v39.9h-24.1C125.2,1423,125.2,1383.1,125.2,1383.1z"/>
</g>
</svg>
