<?xml version="1.0" encoding="utf-8"?>
<!-- Generator: Adobe Illustrator 27.0.0, SVG Export Plug-In . SVG Version: 6.00 Build 0)  -->
<svg version="1.1" id="_Слой_1" xmlns="http://www.w3.org/2000/svg" xmlns:xlink="http://www.w3.org/1999/xlink" x="0px"
	 y="0px" viewBox="0 0 1250.8 2640.3" style="enable-background:new 0 0 1250.8 2640.3;" xml:space="preserve">
<style type="text/css">
	.st0{opacity:1.000000e-02;}
	.st1{opacity:0.4;}
	.st2{fill:#91AAB6;}
	.st3{fill:#003A50;stroke:#003A50;stroke-width:0.52;stroke-miterlimit:10;}
	.st4{fill-rule:evenodd;clip-rule:evenodd;fill:#003A50;stroke:#003A50;stroke-width:0.52;stroke-miterlimit:10;}
	.st5{fill:#003A50;}
</style>
<g id="stikers" class="st0">
	<path id="s-fl36" d="M359,910.4H41v125h318V910.4z"/>
	<path id="s-fl37" d="M359,604.4H41v125h318V604.4z"/>
	<path id="s-fl38" d="M359,448.4H41v125h318V448.4z"/>
	<path id="s-fl39" d="M359,151.7H41v125h318V151.7z"/>
	<path id="s-fl40" d="M879,151.7H561v125h318V151.7z"/>
	<path id="s-fl41" d="M879,605.4H561v125h318V605.4z"/>
	<path id="s-fl42" d="M879,910.4H561v125h318V910.4z"/>
	<path id="s-fl164" d="M486,2379.6H168v125h318V2379.6z"/>
	<path id="s-fl165" d="M486,1888.4H168v125h318V1888.4z"/>
	<path id="s-fl166" d="M486,1391.4H168v125h318V1391.4z"/>
	<path id="s-fl167" d="M1208,1391.4H890v125h318V1391.4z"/>
	<path id="s-fl168" d="M1208,1888.4H890v125h318V1888.4z"/>
	<path id="s-fl169" d="M1208,2379.6H890v125h318V2379.6z"/>
</g>
<g id="flats" class="st1">
	<path id="fl169" class="st2" d="M1242.2,2192.9H989v-100.2H759.9v157.9h-69v378.2h551.3L1242.2,2192.9L1242.2,2192.9z"/>
	<path id="fl168" class="st2" d="M877.1,1708.2v391.5h114.3v95.2h250.7v-486.7L877.1,1708.2L877.1,1708.2z"/>
	<path id="fl167" class="st2" d="M877.1,1186.6h365.1v524.6H877.1L877.1,1186.6L877.1,1186.6z"/>
	<path id="fl166" class="st2" d="M474.2,1837.9h29.9v-149.6h-29.9v-85.6h29.9v-211.6H137.5v488.8h337.2L474.2,1837.9L474.2,1837.9z"
		/>
	<path id="fl165" class="st2" d="M366.1,2077.8h138v-195.4H137v316.3h229.5L366.1,2077.8L366.1,2077.8z"/>
	<path id="fl164" class="st2" d="M621.8,2249.4V2086H498.4v-7.9H361.6v116.4H137v434.4h553.8v-379.5H621.8z"/>
	<path id="fl42" class="st2" d="M501.3,766.8h412V1079h-412V766.8L501.3,766.8L501.3,766.8z"/>
	<path id="fl41" class="st2" d="M684.2,455.5v116.4H501.3v194.9h412V455.5H684.2L684.2,455.5z"/>
	<path id="fl40" class="st2" d="M912.1,12.4H458.9v333.4h42.4v232.4h187.5v-118h225.8L912.1,12.4L912.1,12.4z"/>
	<path id="fl39" class="st2" d="M458.9,12.4H10.2v422.7h397.9v-89.4h50.7L458.9,12.4L458.9,12.4L458.9,12.4z"/>
	<path id="fl38" class="st2" d="M408.1,436.8H10.2v164.6h268.6v52.8h129.3V436.8L408.1,436.8z"/>
	<path id="fl37" class="st2" d="M278.8,658.7v-64H10.2v308h397.9v-244H278.8z"/>
	<path id="fl36" class="st2" d="M298.8,1209.9h108.9V900.6H10.2v482.6h289L298.8,1209.9z"/>
</g>
<g id="walls_outside">
	<path id="Vector" class="st3" d="M297.5,0.3h13.3v42.4h-13.3V0.3z M900,0.3h24.1v24.1H900V0.3z M881.7,129.6h42v13.7h-42V129.6z
		 M889.2,1171.2h42v39.5h-42V1171.2z"/>
	<path id="Vector_2" class="st4" d="M1006.4,1210.3v-39.5l89.8,12.1v27.4H1006.4L1006.4,1210.3z"/>
	<path id="Vector_3" class="st3" d="M881.7,219.4h42v14.1h-42V219.4z M881.7,295h42v13.7h-42V295z M881.7,384h42v14.1h-42V384z
		 M881.7,459.6h42v14.1h-42V459.6z M881.7,549h42v13.7h-42V549z M881.7,624.6h42v13.7h-42V624.6z M881.7,713.2h42v14.1h-42V713.2z
		 M881.7,788.8h42v14.1h-42V788.8z M881.7,878.2h42v14.1h-42V878.2z M881.7,953.8h42v13.7h-42V953.8z M881.7,1044.4h42v14.1h-42
		V1044.4z"/>
	<path id="Vector_4" class="st3" d="M881.7,219.4h31.6v89.4h-31.6V219.4L881.7,219.4z M881.7,384h31.6v89.4h-31.6V384z M881.7,549
		h31.6v89.4h-31.6V549z M881.7,713.6h31.6V803h-31.6V713.6z M881.7,887.7h31.6v73.2h-31.6V887.7z M881.7,1054.4h31.6v132.2h-31.6
		V1054.4z"/>
	<path id="Vector_5" class="st3" d="M881.7,1044.4h23.7v165.8h-23.7V1044.4z M1226.4,1171.2h23.7v39.5h-23.7V1171.2z M1208.9,1682
		h41.6v91.4h-41.6V1682z M1208.9,1846.6h33.3v91.4h-33.3V1846.6z"/>
	<path id="Vector_6" class="st3" d="M1217.2,1914.4h33.3v23.7h-33.3V1914.4z M1208.9,2176.3h33.3v91.4h-33.3V2176.3z M1208.9,2515
		h41.6v102.7h-41.6V2515z"/>
	<path id="Vector_7" class="st3" d="M1217.2,2244h33.3v23.7h-33.3V2244z M1208.9,1517h33.3v91.4h-33.3V1517z"/>
	<path id="Vector_8" class="st3" d="M1217.2,1584.8h33.3v23.7h-33.3V1584.8z"/>
	<path id="Vector_9" class="st4" d="M1208.9,2012.9v91.4h41.6l-10-91.4H1208.9z M1208.9,2433.1v-89.8h33.3l8.3,89.8H1208.9
		L1208.9,2433.1z"/>
	<path id="Vector_10" class="st3" d="M1208.9,2615.2h41.6v23.7h-41.6V2615.2z M1000.6,2592.3h71.9v24.1H1001L1000.6,2592.3
		L1000.6,2592.3z M836,2592.3h71.5v24.1H836V2592.3z"/>
	<path id="Vector_11" class="st3" d="M983.2,2607.3h89.4v31.6h-89.4L983.2,2607.3L983.2,2607.3z M408.1,2607.3h89.4v31.6h-89.4
		V2607.3z M818.5,2607.3h89.4v20h-89.4V2607.3z"/>
	<path id="Vector_12" class="st4" d="M742,2638.9v-31.6h-89.4v21.6L742,2638.9z"/>
	<path id="Vector_13" class="st3" d="M563.2,2596.9h22.9v42h-22.9V2596.9z M652.6,2592.3h71.5v31.6h-71.5V2592.3z M426,2592.3h71.5
		v31.6H426V2592.3z M884.6,2619.3h23.3v19.9h-23.3V2619.3z M260.9,2592.3h71.9v24.1h-71.9V2592.3z"/>
	<path id="Vector_14" class="st3" d="M243.5,2607.3h89.4v32.8h-89.4L243.5,2607.3L243.5,2607.3L243.5,2607.3z M125.4,2515.4h42
		v123.4h-42C125.4,2638.8,125.4,2515.4,125.4,2515.4z"/>
	<path id="Vector_15" class="st4" d="M156.6,2431.9v-90.6h-30.8l-1.2,90.6H156.6z"/>
	<path id="Vector_16" class="st3" d="M147.4,2341.3h20.4v90.6h-20.4V2341.3z M137.9,2177.5h29.9v89.8h-29.9V2177.5z"/>
	<path id="Vector_17" class="st4" d="M167.8,2014.2v89.8h-41.6l9.6-89.8L167.8,2014.2L167.8,2014.2z"/>
	<path id="Vector_18" class="st3" d="M137.9,1847.5h29.9v89.8h-29.9V1847.5z M125.8,1682.9h47v89.8h-47
		C125.8,1772.7,125.8,1682.9,125.8,1682.9z M137.9,1516.6h34.9v89.8h-34.9L137.9,1516.6L137.9,1516.6z"/>
	<path id="Vector_19" class="st5" d="M36,1375.7h461.1v15.4H36V1375.7z M161.2,1876.6h343v11.6h-343V1876.6z"/>
	<path id="Vector_20" class="st5" d="M288.8,1202h15.4v178.7h-15.4V1202z M490,1343.3h14.6v345H490V1343.3z"/>
	<path id="Vector_21" class="st5" d="M490,1682h14.6v36.2H490V1682z"/>
	<path id="Vector_22" class="st5" d="M431.8,1682h69.4v14.5h-69.4V1682z M490,1760.2h14.6v119.7H490V1760.2z"/>
	<path id="Vector_23" class="st5" d="M490,1877.4h14.6v114.7H490V1877.4z M355.3,2069.4H495v14.6H355.3V2069.4z M496.7,2086.1h23.7
		v14.6h-23.7L496.7,2086.1L496.7,2086.1z M562,2086.1h59v14.6h-59V2086.1z M759.9,2092.7h59.9v14.6h-59.9V2092.7z M861.7,2092.7h136
		v14.6h-136V2092.7z M886.7,1701.6h338.9v14.5H886.7L886.7,1701.6L886.7,1701.6z M982.7,2188.3h231.6v14.6H982.7L982.7,2188.3
		L982.7,2188.3z M615.6,2243.2h150.5v12.5H615.6V2243.2z M615.6,1966.8h38.3v12.5h-38.3V1966.8z M714.6,1966.8h51.6v12.5h-51.6
		V1966.8z"/>
	<path id="Vector_24" class="st5" d="M355.3,2069.4h14.6V2202h-14.6V2069.4z M379.9,2290.1h14.6v70.7h-14.6V2290.1z M877.1,2263.1
		h14.6v75.2h-14.6V2263.1z M877.1,1864.1h14.6v357.1h-14.6V1864.1L877.1,1864.1z M877.1,1647.1h14.6v175h-14.6V1647.1z
		 M982.7,2092.7h14.6v109.7h-14.6V2092.7z M682.1,2251.5h14.6v352.9h-14.6V2251.5z"/>
	<path id="Vector_25" class="st5" d="M160.3,2187.5h209.1v14.5H160.3V2187.5z M490,2034.1h14.6v167.5H490V2034.1L490,2034.1z
		 M615.6,1966.8h12.5v288.9h-12.5V1966.8z M753.6,1967.2h12.5v288.5h-12.5V1967.2z M392.7,1096.8h15.4v120.5h-15.4V1096.8z
		 M392.7,795.9h15.4v257.7h-15.4V795.9L392.7,795.9z M392.7,525.3h15.4v229h-15.4V525.3z M392.7,400.2h15.4v83.1h-15.4V400.2z
		 M501.3,338.7h15.4V394h-15.4L501.3,338.7L501.3,338.7z M501.3,435.5h15.4v97.3h-15.4L501.3,435.5L501.3,435.5z M501.3,568.5h15.4
		v52.8h-15.4L501.3,568.5L501.3,568.5z M679.6,449.6H695V583h-15.4V449.6z M501.3,662.9h15.4v135.5h-15.4L501.3,662.9L501.3,662.9z
		 M501.3,911h15.4v15.8h-15.4L501.3,911L501.3,911z"/>
	<path id="Vector_26" class="st5" d="M514.2,911H545v11.2h-30.8V911z M506.3,762.2h396.2v12.1H506.3L506.3,762.2L506.3,762.2z
		 M506.3,568.5h188.3V583H506.3L506.3,568.5L506.3,568.5z M506.3,522.8h31.6v10.4h-31.6V522.8z"/>
	<path id="Vector_27" class="st5" d="M527,529h10.8v44.5H527V529z M679.6,449.6h217v14.5h-217V449.6z M679.6,229.8h217v14.5h-217
		V229.8z M159.1,228.1h70.3v14.1h-70.3V228.1L159.1,228.1z M529.5,767.6h15.4v153h-15.4V767.6z M501.3,968.8h15.4v116.8h-15.4
		L501.3,968.8L501.3,968.8z M603.5,1082.7H616V1214h-12.5V1082.7z M877.1,1076.8h14.6v528.7h-14.6V1076.8z"/>
	<path id="Vector_28" class="st5" d="M501.3,1072.3h401.6v12.9H501.3V1072.3z M501.3,1206.1h52.8v9.6h-52.8V1206.1z M398.6,1205.3
		h9.6v37h-9.6V1205.3z M398.6,1283.8h9.6v99.3h-9.6V1283.8z"/>
	<path id="Vector_29" class="st5" d="M501.3,1209h9.6v37.4h-9.6V1209z M195.7,1144.2h14.6v71.5h-14.6V1144.2z M501.3,1310.5h9.6
		v37.4h-9.6V1310.5z"/>
	<path id="Vector_30" class="st5" d="M495.9,1343.3H537v12.5h-41.2v-12.5H495.9L495.9,1343.3z M589,1343.3h63.6v12.5H589V1343.3z
		 M705,1343.3h49.1v12.5H705V1343.3z M805.2,1343.3h32.4v12.5h-32.4V1343.3z M498.4,1447.2h384.2v12.5H498.4V1447.2z M498.4,1551.1
		h121.4v12.5H498.4L498.4,1551.1L498.4,1551.1z M670.5,1551.1h41.2v12.5h-41.2V1551.1z M600.6,1682h37.8v12.5h-37.8V1682z"/>
	<path id="Vector_31" class="st5" d="M600.6,1682h12.5v103.5h-12.5V1682z M577.8,1682h11.6v162.1h-11.6V1682z M577.8,1885.7h11.6
		v18.7h-11.6V1885.7z M643.5,1901.9h10.4v71.1h-10.4V1901.9z M714.6,1892H725v81h-10.4V1892z M714.6,1783.5H725v70.7h-10.4V1783.5z
		 M793.1,1785.5h10.4v68.2h-10.4V1785.5z"/>
	<path id="Vector_32" class="st5" d="M587.7,1895.3H665v9.2h-77.3V1895.3z M702.5,1895.3h21.6v9.2h-21.6V1895.3z M748.6,1682h12.5
		v103.5h-12.5V1682z M577.8,1779.7h61.1v12.5h-61.1V1779.7z M742.8,1785.5h61.1v6.2h-61.1V1785.5L742.8,1785.5z"/>
	<path id="Vector_33" class="st5" d="M742.8,1682h61.1v6.2h-61.1V1682L742.8,1682z M577.8,1682h32v6.2h-32V1682z M577.8,1761h32v6.2
		h-32V1761z"/>
	<path id="Vector_34" class="st5" d="M780.2,1685.8h6.2v103.1h-6.2V1685.8z M797.7,1685.8h6.2v103.1h-6.2V1685.8z M708.3,1779.7
		h52.8v12.5h-52.8V1779.7z M709.2,1682h51.6v12.5h-51.6V1682z M763.2,1551.1h27.4v12.5h-27.4V1551.1z M825.2,1349.5h12.5v106h-12.5
		V1349.5z"/>
	<path id="Vector_35" class="st5" d="M827.7,1209h9.6v141.3h-9.6V1209z M724.1,1349.5h9.6v104.8h-9.6V1349.5z M622.3,1349.5h9.6
		v104.8h-9.6V1349.5z M593.1,1451.4h9.6v104.7h-9.6V1451.4z M685.5,1451.4h9.6v104.7h-9.6V1451.4z M781.1,1451.4h9.6v104.7h-9.6
		V1451.4z M596.1,1206.1h23.7v9.6h-23.7V1206.1z"/>
	<path id="Vector_36" class="st5" d="M660.9,1203.6h228.3v12.1H660.9V1203.6z M392.7,338.7h15.4v20h-15.4V338.7z"/>
	<path id="Vector_37" class="st5" d="M399.4,338.7h110.2v15.8H399.4V338.7z M32.7,432.6h364.6v15.8H32.7V432.6z M32.7,588.5h252.8
		v15.8H32.7V588.5z M270.1,648.7h133v15.8h-133V648.7L270.1,648.7z"/>
	<path id="Vector_38" class="st5" d="M270.1,588.5h15.8v75.6h-15.8V588.5L270.1,588.5z M451.4,31.9h15.8v313.4h-15.8V31.9z
		 M288.8,1202h118.9v15.4H288.8V1202z M36,895.2h365.1v15.4H36V895.2z"/>
	<path id="Vector_39" class="st3" d="M13.1,1196.6h28.7v91H13.1V1196.6L13.1,1196.6z M13.1,1031.6h28.7v91H13.1V1031.6L13.1,1031.6z
		 M13.1,866.9h28.7v91H13.1V866.9L13.1,866.9z M13.1,701.1h28.7v91.4H13.1V701.1L13.1,701.1z M13.1,534.8h28.7v91.4H13.1V534.8
		L13.1,534.8z M13.1,371.1h28.7v91H13.1V371.1L13.1,371.1z M13.1,206.9h28.7v91H13.1V206.9L13.1,206.9L13.1,206.9z"/>
	<path id="Vector_40" class="st3" d="M11.9,1196.6h29.9v91H11.9V1196.6z"/>
	<path id="Vector_41" class="st3" d="M1.1,1274.3h40.7v13.7H1.1V1274.3L1.1,1274.3z M1.1,1196.6h40.7v14.5H1.1V1196.6L1.1,1196.6z
		 M1.1,1108.4h40.7v14.5H1.1V1108.4L1.1,1108.4z M1.1,1031.6h40.7v15H1.1V1031.6L1.1,1031.6z M1.1,866.9h40.7v15H1.1V866.9
		L1.1,866.9z M1.1,777.6h40.7v15H1.1V777.6L1.1,777.6z M1.1,701.1h40.7v15H1.1V701.1L1.1,701.1z M1.1,534.8h40.7v15H1.1V534.8
		L1.1,534.8z M1.1,371.1h40.7v15H1.1V371.1L1.1,371.1z M1.1,206.9h40.7v14.5H1.1V206.9L1.1,206.9z M1.1,283h40.7v15H1.1V283L1.1,283
		z M1.1,447.6h40.7v15H1.1V447.6L1.1,447.6z M1.1,611.3h40.7v15H1.1V611.3L1.1,611.3z M1.1,943.4h40.7v15H1.1V943.4L1.1,943.4z"/>
	<path id="Vector_42" class="st3" d="M11.9,1031.6h29.9v91H11.9V1031.6z M11.9,866.9h29.9v91H11.9V866.9z M11.9,701.1h29.9v91.4
		H11.9V701.1z M10.2,534.8h31.2v91.4H10.2V534.8z M10.2,371.1h31.2v91H10.2V371.1z M11.9,206.9h29.9v91H11.9V206.9L11.9,206.9z
		 M1.1,115.5h40.7v16.2H1.1V115.5C1.1,115.5,1.1,115.5,1.1,115.5z"/>
	<path id="Vector_43" class="st3" d="M1.1,115.5h40.7v16.2H1.1V115.5C1.1,115.5,1.1,115.5,1.1,115.5z M126.2,1583.5h34.9v22.4h-34.9
		C126.2,1605.9,126.2,1583.5,126.2,1583.5z M126.6,2243.2h29.9v24.1h-29.9V2243.2z M126.6,1913.2h29.9v24.1h-29.9V1913.2z"/>
	<path id="Vector_44" class="st4" d="M1208.9,1443v-91h33.3l8.3,91H1208.9L1208.9,1443z"/>
	<path id="Vector_45" class="st3" d="M1208.1,1192h33.3v86h-33.3V1192z"/>
	<path id="Vector_46" class="st3" d="M1172.3,1179.9h61.1v37.4h-61.1V1179.9z M1.1,0.3h24.1v24.1H1.1V0.3z M145.8,12.8h91.1v30.3
		h-91.1L145.8,12.8L145.8,12.8z"/>
	<path id="Vector_47" class="st3" d="M145.8,0.3h13.3v42.4h-13.3V0.3z M223.5,0.3h13.3v42.4h-13.3V0.3z M386.5,0.3h13.3v42.4h-13.3
		V0.3z M463.8,0.3h13.3v42.4h-13.3V0.3z M552,0.3h13.3v42.4H552V0.3z M628.9,0.3h13.3v42.4h-13.3V0.3z M702.5,0.3h13.3v42.4h-13.3
		V0.3z M779.4,0.3h13.3v42.4h-13.3V0.3L779.4,0.3z"/>
	<path id="Vector_48" class="st3" d="M386.5,12.8h90.6v30.3h-90.6V12.8z M552,12.8h90.6v30.3H552V12.8z M702.5,12.8h90.6v30.3h-90.6
		V12.8z M10.2,1377h139.7v37.4H10.2V1377z"/>
	<path id="Vector_49" class="st3" d="M0.3,1399.8h24.5v23.3H0.3V1399.8L0.3,1399.8z"/>
	<path id="Vector_50" class="st3" d="M10.2,1360.7h31.6v44.9H10.2V1360.7L10.2,1360.7z M134.1,1377h33.3v66.1h-33.3V1377z"/>
	<path id="Vector_51" class="st3" d="M125.4,1383.2h24.1v39.9h-24.1C125.4,1423.1,125.4,1383.2,125.4,1383.2z"/>
</g>
</svg>
