<?xml version="1.0" encoding="utf-8"?>
<!-- Generator: Adobe Illustrator 27.0.0, SVG Export Plug-In . SVG Version: 6.00 Build 0)  -->
<svg version="1.1" id="_Слой_1" xmlns="http://www.w3.org/2000/svg" xmlns:xlink="http://www.w3.org/1999/xlink" x="0px"
	 y="0px" viewBox="0 0 1250.8 2642.9" style="enable-background:new 0 0 1250.8 2642.9;" xml:space="preserve">
<style type="text/css">
	.st0{opacity:1.000000e-02;}
	.st1{opacity:0.4;}
	.st2{fill:#91AAB6;}
	.st3{fill:#003A50;stroke:#003A50;stroke-width:0.52;stroke-miterlimit:10;}
	.st4{fill-rule:evenodd;clip-rule:evenodd;fill:#003A50;stroke:#003A50;stroke-width:0.52;stroke-miterlimit:10;}
	.st5{fill:#003A50;}
</style>
<g id="stikers" class="st0">
	<path id="s-fl43" d="M362.2,911.3h-318v125h318V911.3z"/>
	<path id="s-fl44" d="M362.2,602.3h-318v125h318V602.3z"/>
	<path id="s-fl45" d="M362.2,448.3h-318v125h318V448.3z"/>
	<path id="s-fl46" d="M362.2,151.8h-318v125h318V151.8L362.2,151.8z"/>
	<path id="s-fl47" d="M882.2,151.8h-318v125h318V151.8L882.2,151.8z"/>
	<path id="s-fl48" d="M882.2,602.3h-318v125h318V602.3z"/>
	<path id="s-fl49" d="M882.2,911.3h-318v125h318V911.3z"/>
	<path id="s-fl173" d="M1210.2,1393.3h-318v125h318V1393.3z"/>
	<path id="s-fl174" d="M1210.2,1891.4h-318v125h318V1891.4z"/>
	<path id="s-fl175" d="M1210.2,2379.3h-318v125h318V2379.3z"/>
	<path id="s-fl170" d="M488.2,2379.3h-318v125h318V2379.3z"/>
	<path id="s-fl171" d="M488.2,1891.3h-318v125h318V1891.3z"/>
	<path id="s-fl172" d="M488.2,1393.3h-318v125h318V1393.3z"/>
</g>
<g id="flats" class="st1">
	<path id="fl175" class="st2" d="M1209,2253.9V2196H989.1v-100.3H759.9v158.2h-69v347.5h518.5L1209,2253.9L1209,2253.9z"/>
	<path id="fl174" class="st2" d="M877.2,1710.4v392.1h114.3v95.3h217.9v-487.3L877.2,1710.4L877.2,1710.4z"/>
	<path id="fl173" class="st2" d="M877.2,1211.8h332.2v501.5H877.2V1211.8z"/>
	<path id="fl172" class="st2" d="M474.3,1840.2h29.9v-149.8h-29.9v-85.7h29.9v-211.8H167.4v489.4h306.8v-42.1H474.3z"/>
	<path id="fl171" class="st2" d="M366.2,2080.4h138v-195.6H167.8v316.7h198.4L366.2,2080.4L366.2,2080.4z"/>
	<path id="fl170" class="st2" d="M621.9,2252.2v-163.6H498.4v-7.9H361.6v116.6H167.8V2601h523v-348.8H621.9z"/>
	<path id="fl49" class="st2" d="M501.3,767.7h380.4v312.6H501.3V767.7L501.3,767.7z"/>
	<path id="fl48" class="st2" d="M684.2,456v116.5H501.3v195.2h380.4V456H684.2z"/>
	<path id="fl47" class="st2" d="M881.7,234.6V43.1H458.9v303h42.4v232.6h187.5V460.6h192.9L881.7,234.6L881.7,234.6z"/>
	<path id="fl46" class="st2" d="M458.9,42.7H42.7v392.9h365.1v-89.5h50.7L458.9,42.7L458.9,42.7z"/>
	<path id="fl45" class="st2" d="M408.2,437.3H42.7v164.8h236.2V655h129.3L408.2,437.3L408.2,437.3z"/>
	<path id="fl44" class="st2" d="M278.9,659.5v-64.1H42.7v308.4h365.1V659.5H278.9L278.9,659.5z"/>
	<path id="fl43" class="st2" d="M298.8,1211.4h108.9V901.7h-365v483.2h256.1V1211.4z"/>
</g>
<g id="walls_outside">
	<path id="Vector" class="st3" d="M297.6,0.3h13.3v42.5h-13.3V0.3z M900,0.3h24.1v24.1H900V0.3z M881.7,129.7h42v13.7h-42V129.7z
		 M889.2,1172.7h42v39.5h-42V1172.7z"/>
	<path id="Vector_2" class="st4" d="M1006.5,1211.8v-39.5l89.8,12.1v27.5L1006.5,1211.8L1006.5,1211.8z"/>
	<path id="Vector_3" class="st3" d="M881.7,219.6h42v14.2h-42V219.6z M881.7,295.3h42V309h-42V295.3z M881.7,384.4h42v14.2h-42
		V384.4z M881.7,460.1h42v14.2h-42V460.1z M881.7,549.6h42v13.7h-42V549.6z M881.7,625.4h42v13.7h-42V625.4z M881.7,714h42v14.2h-42
		V714z M881.7,789.8h42V804h-42V789.8z M881.7,879.2h42v14.2h-42V879.2z M881.7,955h42v13.7h-42V955z M881.7,1045.7h42v14.1h-42
		V1045.7z"/>
	<path id="Vector_4" class="st3" d="M881.7,219.6h31.6v89.5h-31.6V219.6z M881.7,384.4h31.6v89.5h-31.6V384.4z M881.7,549.6h31.6
		v89.5h-31.6V549.6z M881.7,714.4h31.6v89.5h-31.6V714.4z M881.7,888.8h31.6V962h-31.6V888.8z M881.7,1055.7h31.6V1188h-31.6V1055.7
		z"/>
	<path id="Vector_5" class="st3" d="M881.7,1045.7h23.7v166.1h-23.7V1045.7z M1226.4,1172.7h23.7v39.5h-23.7V1172.7z M1209,1684.1
		h41.6v91.6H1209V1684.1z M1209,1849h33.3v91.6H1209V1849z"/>
	<path id="Vector_6" class="st3" d="M1217.3,1916.8h33.3v23.7h-33.3V1916.8z M1209,2179h33.3v91.6H1209V2179z"/>
	<path id="Vector_7" class="st3" d="M1217.3,2246.8h33.3v23.7h-33.3V2246.8z M1209,1518.9h33.3v91.6H1209V1518.9z"/>
	<path id="Vector_8" class="st3" d="M1217.3,1586.8h33.3v23.7h-33.3V1586.8z"/>
	<path id="Vector_9" class="st4" d="M1209,2015.4v91.6h41.6l-10-91.6H1209z M1209,2436.2v-89.9h33.3l8.3,89.9H1209L1209,2436.2z"/>
	<path id="Vector_10" class="st3" d="M1209,2521.1h41.6v121.1H1209V2521.1z"/>
	<path id="Vector_11" class="st3" d="M1209.4,2601.4h10.4v41.2h-10.4V2601.4z M1000.6,2595.6h71.9v24.1H1001L1000.6,2595.6
		L1000.6,2595.6z M836,2595.6h71.5v24.1H836V2595.6z"/>
	<path id="Vector_12" class="st3" d="M983.2,2610.6h89.4v31.6h-89.4L983.2,2610.6L983.2,2610.6z M408.2,2610.6h89.4v22.9h-89.4
		V2610.6z M818.5,2610.6h89.4v20h-89.4V2610.6z"/>
	<path id="Vector_13" class="st4" d="M742,2642.2v-31.6h-89.4v21.6L742,2642.2z"/>
	<path id="Vector_14" class="st3" d="M563.3,2600.2h22.9v42h-22.9V2600.2z M652.6,2595.6h71.6v31.6h-71.5L652.6,2595.6L652.6,2595.6
		z M426,2595.6h71.5v31.6H426V2595.6z M884.6,2622.7h23.3v20h-23.3V2622.7z M261,2595.6h71.9v24.1H261V2595.6L261,2595.6z"/>
	<path id="Vector_15" class="st3" d="M243.5,2610.6h89.4v20h-89.4L243.5,2610.6L243.5,2610.6L243.5,2610.6z"/>
	<path id="Vector_16" class="st3" d="M243.5,2622.7h89.4v20h-89.4L243.5,2622.7L243.5,2622.7L243.5,2622.7z M125.4,2521.5h42v121.1
		h-42C125.4,2642.6,125.4,2521.5,125.4,2521.5z"/>
	<path id="Vector_17" class="st4" d="M156.6,2434.9v-90.7h-21.2l-10.8,90.7H156.6z"/>
	<path id="Vector_18" class="st3" d="M147.5,2344.2h20.4v90.7h-20.4V2344.2z M137.9,2180.2h29.9v89.9h-29.9V2180.2z"/>
	<path id="Vector_19" class="st4" d="M167.9,2016.7v89.9h-41.6l9.6-89.9H167.9z"/>
	<path id="Vector_20" class="st3" d="M137.9,1849.8h29.9v89.9h-29.9V1849.8z M125.9,1685h47v89.9h-47V1685z M137.9,1518.5h34.9v89.9
		h-34.9L137.9,1518.5L137.9,1518.5z"/>
	<path id="Vector_21" class="st5" d="M36.1,1377.4h461.1v15.4H36.1V1377.4z M161.2,1878.9h343v11.7h-343V1878.9z"/>
	<path id="Vector_22" class="st5" d="M288.8,1203.5h15.4v179h-15.4V1203.5z M490.1,1345h14.6v346.7h-14.6V1345z"/>
	<path id="Vector_23" class="st5" d="M490.1,1684.1h14.6v36.2h-14.6V1684.1z"/>
	<path id="Vector_24" class="st5" d="M431.9,1684.1h69.4v14.6h-69.4V1684.1z M490.1,1762.4h14.6v122.4h-14.6V1762.4z"/>
	<path id="Vector_25" class="st5" d="M490.1,1879.8h14.6v114.9h-14.6V1879.8z M355.4,2072h139.7v14.6H355.4V2072z M496.7,2088.7
		h23.7v14.6h-23.7V2088.7z M562,2088.7h59v14.6h-59V2088.7z M759.9,2095.3h59.9v14.6h-59.9V2095.3L759.9,2095.3z M861.8,2095.3h136
		v14.6h-136V2095.3z M886.7,1703.7h338.9v14.6H886.7V1703.7z M982.8,2191.1h231.6v14.6H982.8V2191.1z M615.6,2246h150.6v12.5H615.6
		L615.6,2246L615.6,2246z M615.6,1969.2h38.3v12.5h-38.3V1969.2z M714.6,1969.2h51.6v12.5h-51.6V1969.2z"/>
	<path id="Vector_26" class="st5" d="M355.4,2072H370v132.8h-14.6V2072z M379.9,2293h14.6v70.8h-14.6V2293z M877.2,2266h14.6v75.3
		h-14.6V2266z M877.2,1866.4h14.6v357.5h-14.6V1866.4L877.2,1866.4z M877.2,1649.2h14.6v175.2h-14.6V1649.2z M982.8,2095.3h14.6
		v109.9h-14.6V2095.3z M682.2,2254.3h14.6v353.3h-14.6V2254.3z"/>
	<path id="Vector_27" class="st5" d="M160.4,2190.2h209.1v14.6H160.4V2190.2z M490.1,2036.7h14.6v167.7h-14.6V2036.7z M615.6,1969.2
		h12.5v289.2h-12.5V1969.2z M753.7,1969.6h12.5v288.8h-12.5V1969.6L753.7,1969.6z M392.8,1098.2h15.4v120.7h-15.4V1098.2z
		 M392.8,796.8h15.4v258h-15.4V796.8z M392.8,525.9h15.4v229.3h-15.4V525.9z M392.8,400.6h15.4v83.2h-15.4V400.6z M501.3,339h15.4
		v55.4h-15.4V339z M501.3,436h15.4v97.4h-15.4V436z M501.3,569.2h15.4v52.9h-15.4V569.2z M679.7,450.2h15.4v133.6h-15.4V450.2
		L679.7,450.2z M501.3,663.7h15.4v135.6h-15.4V663.7L501.3,663.7z M501.3,912.1h15.4v15.8h-15.4V912.1z"/>
	<path id="Vector_28" class="st5" d="M514.2,912.1H545v11.2h-30.8V912.1z M506.3,763.1h396.2v12.1H506.3L506.3,763.1L506.3,763.1z
		 M506.3,569.2h188.3v14.6H506.3L506.3,569.2L506.3,569.2z M506.3,523.4h31.6v10.4h-31.6V523.4z"/>
	<path id="Vector_29" class="st5" d="M527.1,529.6h10.8v44.5h-10.8V529.6z M679.7,450.2h217v14.6h-217V450.2z M679.7,230h217v14.6
		h-217V230z M159.1,228.3h70.3v14.1h-70.3V228.3L159.1,228.3z M529.6,768.5H545v153.2h-15.4V768.5z M501.3,970h15.4v117h-15.4
		L501.3,970L501.3,970z M603.6,1084h12.5v131.5h-12.5V1084z M877.2,1078.2h14.6v529.4h-14.6V1078.2z"/>
	<path id="Vector_30" class="st5" d="M501.3,1073.6h401.6v12.9H501.3V1073.6z M501.3,1207.6h52.8v9.6h-52.8V1207.6z M398.6,1206.8
		h9.6v37h-9.6V1206.8z M398.6,1285.4h9.6v99.5h-9.6V1285.4z"/>
	<path id="Vector_31" class="st5" d="M501.3,1210.5h9.6v37.5h-9.6V1210.5z M195.7,1145.6h14.6v71.6h-14.6V1145.6z M501.3,1312.1h9.6
		v37.4h-9.6V1312.1z"/>
	<path id="Vector_32" class="st5" d="M495.9,1345h41.2v12.5h-41.2V1345z M589,1345h63.6v12.5H589V1345z M705,1345h49.1v12.5H705
		V1345z M805.2,1345h32.4v12.5h-32.4V1345z M498.4,1449h384.2v12.5H498.4V1449z M498.4,1553.1h121.4v12.5H498.4L498.4,1553.1
		L498.4,1553.1z M670.5,1553.1h41.2v12.5h-41.2V1553.1z M600.7,1684.1h37.8v12.5h-37.8V1684.1z"/>
	<path id="Vector_33" class="st5" d="M600.7,1684.1h12.5v103.6h-12.5V1684.1z M577.8,1684.1h11.6v162.3h-11.6V1684.1z M577.8,1888.1
		h11.6v18.7h-11.6V1888.1z M643.5,1904.3h10.4v71.2h-10.4V1904.3z M714.6,1894.3H725v81.2h-10.4V1894.3z M714.6,1785.7H725v70.8
		h-10.4V1785.7z M793.2,1787.8h10.4v68.2h-10.4V1787.8z"/>
	<path id="Vector_34" class="st5" d="M587.8,1897.6h77.3v9.2h-77.3V1897.6z M702.5,1897.6h21.7v9.2h-21.6v-9.2H702.5L702.5,1897.6z
		 M748.7,1684.1h12.5v103.6h-12.5V1684.1z M577.8,1782h61.1v12.5h-61.1V1782z M742.9,1787.8H804v6.2h-61.1V1787.8L742.9,1787.8z"/>
	<path id="Vector_35" class="st5" d="M742.9,1684.1H804v6.2h-61.1V1684.1L742.9,1684.1z M577.8,1684.1h32v6.2h-32V1684.1z
		 M577.8,1763.2h32v6.2h-32V1763.2z"/>
	<path id="Vector_36" class="st5" d="M780.3,1687.9h6.2v103.2h-6.2V1687.9z M797.8,1687.9h6.2v103.2h-6.2V1687.9z M708.4,1782h52.8
		v12.5h-52.8V1782z M709.2,1684.1h51.6v12.5h-51.6V1684.1z M763.2,1553.1h27.4v12.5h-27.4V1553.1z M825.2,1351.2h12.5v106.1h-12.5
		V1351.2z"/>
	<path id="Vector_37" class="st5" d="M827.7,1210.5h9.6V1352h-9.6V1210.5z M724.2,1351.2h9.6v104.9h-9.6V1351.2z M622.3,1351.2h9.6
		v104.9h-9.6V1351.2z M593.2,1453.2h9.6v104.9h-9.6V1453.2z M685.5,1453.2h9.6v104.9h-9.6V1453.2z M781.1,1453.2h9.6v104.9h-9.6
		V1453.2z M596.1,1207.6h23.7v9.6h-23.7V1207.6z"/>
	<path id="Vector_38" class="st5" d="M661,1205.1h228.2v12.1H661V1205.1z M392.8,339h15.4v20h-15.4V339z"/>
	<path id="Vector_39" class="st5" d="M399.4,339h110.2v15.8H399.4V339z M32.7,433.1h364.6v15.8H32.7V433.1z M32.7,589.2h252.8V605
		H32.7V589.2z M270.1,649.5h133v15.8h-133V649.5L270.1,649.5z"/>
	<path id="Vector_40" class="st5" d="M270.1,589.2h15.8v75.7h-15.8V589.2L270.1,589.2z M451.4,31.9h15.8v313.8h-15.8V31.9z
		 M288.8,1203.5h118.9v15.4H288.8V1203.5z M36.1,896.3h365.1v15.4H36.1V896.3z"/>
	<path id="Vector_41" class="st3" d="M13.2,1198h28.7v91.2H13.2V1198z M13.2,1032.8h28.7v91.1H13.2V1032.8z M13.2,868h28.7v91.1
		H13.2V868z M13.2,701.9h28.7v91.6H13.2V701.9z M13.2,535.5h28.7v91.6H13.2V535.5z M13.2,371.5h28.7v91.1H13.2V371.5z M13.2,207.1
		h28.7v91.1H13.2V207.1z"/>
	<path id="Vector_42" class="st3" d="M11.9,1198h29.9v91.2H11.9V1198L11.9,1198z"/>
	<path id="Vector_43" class="st3" d="M1.1,1275.9h40.7v13.7H1.1V1275.9L1.1,1275.9z M1.1,1198h40.7v14.6H1.1V1198L1.1,1198z
		 M1.1,1109.8h40.7v14.6H1.1V1109.8L1.1,1109.8z M1.1,1032.8h40.7v15H1.1V1032.8L1.1,1032.8z M1.1,868h40.7v15H1.1V868L1.1,868z
		 M1.1,778.5h40.7v15H1.1V778.5L1.1,778.5z M1.1,701.9h40.7v15H1.1V701.9L1.1,701.9z M1.1,535.5h40.7v15H1.1V535.5L1.1,535.5z
		 M1.1,371.5h40.7v15H1.1V371.5L1.1,371.5z M1.1,207.1h40.7v14.6H1.1V207.1L1.1,207.1z M1.1,283.3h40.7v15H1.1V283.3L1.1,283.3z
		 M1.1,448.1h40.7v15H1.1V448.1L1.1,448.1z M1.1,612.1h40.7v15H1.1V612.1L1.1,612.1z M1.1,944.6h40.7v15H1.1V944.6L1.1,944.6z"/>
	<path id="Vector_44" class="st3" d="M11.9,1032.8h29.9v91.1H11.9V1032.8L11.9,1032.8z M11.9,868h29.9v91.1H11.9V868L11.9,868z
		 M11.9,701.9h29.9v91.6H11.9V701.9L11.9,701.9z M10.3,535.5h31.2v91.6H10.3L10.3,535.5C10.3,535.5,10.3,535.5,10.3,535.5z
		 M10.3,371.5h31.2v91.1H10.3L10.3,371.5C10.3,371.5,10.3,371.5,10.3,371.5z M11.9,207.1h29.9v91.1H11.9V207.1L11.9,207.1z
		 M1.1,115.5h40.7v16.2H1.1V115.5C1.1,115.5,1.1,115.5,1.1,115.5z"/>
	<path id="Vector_45" class="st3" d="M1.1,115.5h40.7v16.2H1.1V115.5C1.1,115.5,1.1,115.5,1.1,115.5z M126.3,1585.5h34.9v22.5h-34.9
		V1585.5z M126.7,2246h29.9v24.1h-29.9C126.7,2270.1,126.7,2246,126.7,2246z M126.7,1915.5h29.9v24.1h-29.9
		C126.7,1939.6,126.7,1915.5,126.7,1915.5z"/>
	<path id="Vector_46" class="st4" d="M1209,1444.8v-91.1h32.4l9.1,91.1H1209z"/>
	<path id="Vector_47" class="st3" d="M1208.1,1193.5h33.3v86.2h-33.3V1193.5z"/>
	<path id="Vector_48" class="st3" d="M1172.4,1181.4h61.1v37.5h-61.1V1181.4z M1.1,0.3h24.1v24.1H1.1V0.3z M145.8,12.7h91.1v30.4
		h-91.1L145.8,12.7L145.8,12.7z"/>
	<path id="Vector_49" class="st3" d="M145.8,0.3h13.3v42.5h-13.3V0.3z M223.6,0.3h13.3v42.5h-13.3V0.3z M386.5,0.3h13.3v42.5h-13.3
		V0.3z M463.9,0.3h13.3v42.5h-13.3V0.3z M552,0.3h13.3v42.5H552V0.3z M628.9,0.3h13.3v42.5h-13.3V0.3z M702.5,0.3h13.3v42.5h-13.3
		V0.3z M779.5,0.3h13.3v42.5h-13.3V0.3z"/>
	<path id="Vector_50" class="st3" d="M386.5,12.7h90.7v30.4h-90.6L386.5,12.7L386.5,12.7L386.5,12.7z M552,12.7h90.6v30.4H552V12.7z
		 M702.5,12.7h90.6v30.4h-90.6V12.7z M10.3,1378.7H150v37.4H10.3V1378.7z"/>
	<path id="Vector_51" class="st3" d="M0.3,1401.6h24.5v23.3H0.3V1401.6z"/>
	<path id="Vector_52" class="st3" d="M10.3,1362.4h31.6v44.9H10.3V1362.4z M134.2,1378.7h33.3v66.2h-33.3V1378.7z"/>
	<path id="Vector_53" class="st3" d="M125.4,1384.9h24.1v40h-24.1C125.4,1424.9,125.4,1384.9,125.4,1384.9z"/>
</g>
</svg>
