<?xml version="1.0" encoding="utf-8"?>
<!-- Generator: Adobe Illustrator 27.0.0, SVG Export Plug-In . SVG Version: 6.00 Build 0)  -->
<svg version="1.1" id="_Слой_1" xmlns="http://www.w3.org/2000/svg" xmlns:xlink="http://www.w3.org/1999/xlink" x="0px"
	 y="0px" viewBox="0 0 1250.1 2639.4" style="enable-background:new 0 0 1250.1 2639.4;" xml:space="preserve">
<style type="text/css">
	.st0{opacity:1.000000e-02;}
	.st1{opacity:0.4;}
	.st2{fill:#91AAB6;}
	.st3{fill:#003A50;stroke:#003A50;stroke-width:0.52;stroke-miterlimit:10;}
	.st4{fill-rule:evenodd;clip-rule:evenodd;fill:#003A50;stroke:#003A50;stroke-width:0.52;stroke-miterlimit:10;}
	.st5{fill:#003A50;}
</style>
<g id="stikers" class="st0">
	<path id="s-fl50" d="M360.4,910.4h-318v125h318V910.4z"/>
	<path id="s-fl51" d="M360.4,603.4h-318v125h318V603.4z"/>
	<path id="s-fl52" d="M360.4,447.4h-318v125h318V447.4z"/>
	<path id="s-fl53" d="M360.4,143.7h-318v125h318V143.7z"/>
	<path id="s-fl54" d="M881.4,143.7h-318v125h318V143.7z"/>
	<path id="s-fl55" d="M881.4,603.4h-318v125h318V603.4z"/>
	<path id="s-fl56" d="M881.4,910.4h-318v125h318V910.4z"/>
	<path id="s-fl176" d="M485.4,2361.6h-318v125h318V2361.6z"/>
	<path id="s-fl177" d="M485.4,1888.4h-318v125h318V1888.4z"/>
	<path id="s-fl178" d="M485.4,1391.4h-318v125h318V1391.4z"/>
	<path id="s-fl179" d="M1209.4,1391.4h-318v125h318V1391.4z"/>
	<path id="s-fl180" d="M1209.4,1888.4h-318v125h318V1888.4z"/>
	<path id="s-fl181" d="M1209.4,2361.6h-318v125h318V2361.6z"/>
</g>
<g id="flats" class="st1">
	<path id="fl181" class="st2" d="M1241.4,2192.9H988.2v-100.2H759.1v157.9h-69v378.2h551.3L1241.4,2192.9L1241.4,2192.9z"/>
	<path id="fl180" class="st2" d="M876.4,1708.2v391.5h114.3v95.2h250.7v-486.7L876.4,1708.2L876.4,1708.2z"/>
	<path id="fl179" class="st2" d="M876.4,1186.6h365v524.6h-365V1186.6z"/>
	<path id="fl178" class="st2" d="M473.5,1837.9h29.9v-149.6h-29.9v-85.6h29.9v-211.6H136.7v488.8h337.2L473.5,1837.9L473.5,1837.9z"
		/>
	<path id="fl177" class="st2" d="M365.4,2077.8h138v-195.4H136.3v316.3h229.5L365.4,2077.8L365.4,2077.8z"/>
	<path id="fl176" class="st2" d="M621.1,2249.4V2086H497.6v-7.9H360.8v116.4H136.3v434.4h553.8v-379.5H621.1z"/>
	<path id="fl56" class="st2" d="M500.5,766.8h412V1079h-412V766.8L500.5,766.8z"/>
	<path id="fl55" class="st2" d="M683.4,455.5v116.4H500.5v194.9h412V455.5H683.4z"/>
	<path id="fl54" class="st2" d="M911.3,12.4H458.1v333.4h42.4v232.4H688v-118h225.8L911.3,12.4L911.3,12.4z"/>
	<path id="fl53" class="st2" d="M458.1,12.4H9.5v422.7h397.9v-89.4h50.7V12.4z"/>
	<path id="fl52" class="st2" d="M407.4,436.8H9.5v164.6h268.6v52.8h129.3V436.8L407.4,436.8z"/>
	<path id="fl51" class="st2" d="M278.1,658.7v-64H9.5v308h397.9v-244H278.1z"/>
	<path id="fl50" class="st2" d="M298,1209.9h108.9V900.6H9.5v482.6h289L298,1209.9z"/>
</g>
<g id="walls_outside">
	<path id="Vector" class="st3" d="M145,0.3h91.1v42.4H145L145,0.3L145,0.3z M296.8,0.3h13.3v42.4h-13.3V0.3z M385.7,0.3h90.7v42.4
		h-90.6L385.7,0.3L385.7,0.3L385.7,0.3z M551.2,0.3h90.6v42.4h-90.6V0.3z M701.7,0.3h90.6v42.4h-90.6V0.3z M899.2,0.3h24.1V24h-24.1
		V0.3z M880.9,129.6h42v14.1h-42V129.6z M880.9,219.4h42v89.4h-42V219.4L880.9,219.4z M880.9,384h42v89.4h-42V384z M880.9,549h42
		v89.4h-42V549z M880.9,713.2h42v89.4h-42V713.2z M880.9,878.2h42v89.4h-42V878.2z M880.9,1044.4h42v165.8h-42V1044.4z"/>
	<path id="Vector_2" class="st3" d="M888.4,1171.2h42v39.5h-42V1171.2z"/>
	<path id="Vector_3" class="st4" d="M1005.7,1210.3v-39.5l89.8,12.1v27.4H1005.7z"/>
	<path id="Vector_4" class="st3" d="M1226,1171.2h23.7V1278H1226V1171.2z M1208.2,1682h41.6v91.4h-41.6V1682z M1208.2,1846.6h33.3
		v91.4h-33.3V1846.6z"/>
	<path id="Vector_5" class="st3" d="M1216.5,1914.4h33.3v23.7h-33.3V1914.4z M1208.2,2176.3h33.3v91.4h-33.3V2176.3z M1208.2,2516.3
		h33.3v101.4h-33.3V2516.3z"/>
	<path id="Vector_6" class="st3" d="M1216.5,2244h33.3v23.7h-33.3V2244z M1208.2,1517h33.3v91.4h-33.3V1517z"/>
	<path id="Vector_7" class="st3" d="M1216.5,1584.8h33.3v23.7h-33.3V1584.8z"/>
	<path id="Vector_8" class="st4" d="M1208.2,2103.9v-91.4h29.5l12,91.4H1208.2z M1208.2,2433.1v-89.8h33.3l8.3,89.8H1208.2
		L1208.2,2433.1z"/>
	<path id="Vector_9" class="st3" d="M1208.2,2615.2h41.6v23.7h-41.6V2615.2z"/>
	<path id="Vector_10" class="st3" d="M1147,2598.1h71.5v41.1H1147V2598.1z M999.8,2592.3h71.9v24.1h-71.5L999.8,2592.3L999.8,2592.3
		z M835.2,2592.3h71.5v24.1h-71.5V2592.3z"/>
	<path id="Vector_11" class="st4" d="M982.4,2638.9v-31.6h89.4v20L982.4,2638.9z M407.4,2638.9v-31.6h89.4v20L407.4,2638.9z"/>
	<path id="Vector_12" class="st3" d="M817.7,2607.3h89.4v20h-89.4V2607.3z M651.8,2607.3h89.4v31.6h-89.4V2607.3z M562.5,2596.9
		h22.9v42h-22.9V2596.9z"/>
	<path id="Vector_13" class="st3" d="M651.8,2592.3h71.6v31.6h-71.5L651.8,2592.3L651.8,2592.3z M425.2,2592.3h71.5v31.6h-71.5
		V2592.3z M883.8,2619.3h23.3v19.9h-23.3V2619.3z M260.2,2592.3h71.9v24.1h-71.9V2592.3L260.2,2592.3z"/>
	<path id="Vector_14" class="st3" d="M242.7,2607.3h89.4v20h-89.4V2607.3L242.7,2607.3z"/>
	<path id="Vector_15" class="st3" d="M242.7,2619.3H266v19.9h-23.3L242.7,2619.3L242.7,2619.3z M125.1,2517.1h41.6v121.8h-41.6
		V2517.1z"/>
	<path id="Vector_16" class="st4" d="M155.8,2431.9v-90.6H125l12.1,90.6H155.8z"/>
	<path id="Vector_17" class="st3" d="M146.7,2341.3h20.4v90.6h-20.4V2341.3z M137.1,2177.5H167v89.8h-29.9V2177.5z M125.1,2014.2
		h41.6v89.8h-41.6C125.1,2104,125.1,2014.2,125.1,2014.2z M137.1,1847.9H167v89.8h-29.9V1847.9z M125.1,1682.9h47v89.8h-47V1682.9z
		 M137.1,1516.6H172v89.8h-34.9V1516.6z M125.1,1377h41.2v66.1h-41.2V1377z"/>
	<path id="Vector_18" class="st3" d="M0.3,1377h148.8v44.9H0.3V1377z"/>
	<path id="Vector_19" class="st5" d="M35.3,1375.7h461.1v15.4H35.3V1375.7z M160.4,1876.6h343v11.6h-343V1876.6z"/>
	<path id="Vector_20" class="st5" d="M288,1202h15.4v178.7H288V1202z M489.3,1343.3h14.6v342.9h-14.6V1343.3z"/>
	<path id="Vector_21" class="st5" d="M489.3,1682h14.6v36.2h-14.6V1682z"/>
	<path id="Vector_22" class="st5" d="M431.1,1682h69.4v14.5h-69.4V1682z M489.3,1760.2h14.6v125.5h-14.6V1760.2z"/>
	<path id="Vector_23" class="st5" d="M489.3,1877.4h14.6v114.7h-14.6V1877.4z M354.6,2069.4h139.7v14.6H354.6V2069.4z M495.9,2086.1
		h23.7v14.6h-23.7V2086.1z M561.2,2086.1h59v14.6h-59V2086.1z M759.1,2092.7H819v14.6h-59.9V2092.7L759.1,2092.7z M861,2092.7h136
		v14.6H861V2092.7z M885.9,1701.6h338.9v14.5H885.9V1701.6z M982,2188.3h231.6v14.6H982V2188.3z M614.8,2243.2h150.6v12.5H614.8
		L614.8,2243.2L614.8,2243.2z M614.8,1966.8h38.3v12.5h-38.3V1966.8z M713.8,1966.8h51.6v12.5h-51.6V1966.8z"/>
	<path id="Vector_24" class="st5" d="M354.6,2069.4h14.6V2202h-14.6V2069.4z M379.1,2290.1h14.6v70.7h-14.6V2290.1z M876.4,2263.1
		H891v75.2h-14.6V2263.1z M876.4,1864.1H891v357.1h-14.6V1864.1L876.4,1864.1z M876.4,1647.1H891v175h-14.6V1647.1z M982,2092.7
		h14.6v109.7H982V2092.7z M681.4,2251.5H696v352.9h-14.6V2251.5z"/>
	<path id="Vector_25" class="st5" d="M159.6,2187.5h209.1v14.5H159.6V2187.5z M489.3,2034.1h14.6v167.5h-14.6V2034.1L489.3,2034.1z
		 M614.8,1966.8h12.5v288.9h-12.5V1966.8z M752.9,1967.2h12.5v288.5h-12.5V1967.2z M392,1096.8h15.4v120.5H392V1096.8z M392,795.9
		h15.4v257.7H392V795.9L392,795.9z M392,525.3h15.4v229H392V525.3z M392,400.2h15.4v83.1H392V400.2z M500.5,338.7h15.4V394h-15.4
		V338.7z M500.5,435.5h15.4v97.3h-15.4V435.5z M500.5,568.5h15.4v52.8h-15.4V568.5z M678.9,449.6h15.4V583h-15.4V449.6z
		 M500.5,662.9h15.4v135.5h-15.4V662.9z M500.5,911h15.4v15.8h-15.4V911z"/>
	<path id="Vector_26" class="st5" d="M513.4,911h30.8v11.2h-30.8V911z M505.5,762.2h396.2v12.1H505.5V762.2z M505.5,568.5h188.3V583
		H505.5L505.5,568.5L505.5,568.5z M505.5,522.8h31.6v10.4h-31.6V522.8z"/>
	<path id="Vector_27" class="st5" d="M526.3,529h10.8v44.5h-10.8V529z M678.9,449.6h217v14.5h-217V449.6z M678.9,229.8h217v14.5
		h-217V229.8z M158.3,228.1h70.3v14.1h-70.3V228.1L158.3,228.1z M528.8,767.6h15.4v153h-15.4V767.6z M500.5,968.8h15.4v116.8h-15.4
		L500.5,968.8L500.5,968.8z M602.8,1082.7h12.5V1214h-12.5V1082.7z M876.4,1076.8H891v528.7h-14.6V1076.8z"/>
	<path id="Vector_28" class="st5" d="M500.5,1072.3h401.6v12.9H500.5V1072.3z M500.5,1206.1h52.8v9.6h-52.8L500.5,1206.1
		L500.5,1206.1z M397.8,1205.3h9.6v37h-9.6V1205.3z M397.8,1283.8h9.6v99.3h-9.6V1283.8z"/>
	<path id="Vector_29" class="st5" d="M500.5,1209h9.6v37.4h-9.6V1209z M194.9,1144.2h14.6v71.5h-14.6V1144.2z M500.5,1310.5h9.6
		v37.4h-9.6V1310.5z"/>
	<path id="Vector_30" class="st5" d="M495.1,1343.3h41.2v12.5h-41.2V1343.3z M588.2,1343.3h63.6v12.5h-63.6V1343.3z M704.2,1343.3
		h49.1v12.5h-49.1V1343.3z M804.4,1343.3h32.4v12.5h-32.4V1343.3z M497.6,1447.2h384.2v12.5H497.6V1447.2z M497.6,1551.1H619v12.5
		H497.6L497.6,1551.1L497.6,1551.1z M669.7,1551.1h41.2v12.5h-41.2V1551.1z M599.9,1682h37.8v12.5h-37.8V1682z"/>
	<path id="Vector_31" class="st5" d="M599.9,1682h12.5v103.5h-12.5V1682z M577,1685h11.6v159.2H577V1685z M577,1885.7h11.6v18.7H577
		V1885.7z M642.7,1901.9h10.4v71.1h-10.4V1901.9z M713.8,1892h10.4v81h-10.4V1892z M713.8,1783.5h10.4v70.7h-10.4V1783.5z
		 M792.4,1785.5h10.4v68.2h-10.4V1785.5z"/>
	<path id="Vector_32" class="st5" d="M587,1895.3h77.3v9.2H587V1895.3z M701.7,1895.3h21.7v9.2h-21.6v-9.2H701.7L701.7,1895.3z
		 M747.9,1682h12.5v103.5h-12.5V1682z M577,1779.7h61.1v12.5H577V1779.7z M742.1,1785.5h61.1v6.2h-61.1V1785.5L742.1,1785.5z"/>
	<path id="Vector_33" class="st5" d="M742.1,1682h61.1v6.2h-61.1V1682L742.1,1682z M577,1682h32v6.2h-32V1682z M577,1761h32v6.2h-32
		V1761z"/>
	<path id="Vector_34" class="st5" d="M779.5,1685.4h6.2v103.1h-6.2V1685.4z M523.8,1111.3h84.8v5.8h-84.8V1111.3z"/>
	<path id="Vector_35" class="st5" d="M523.8,1114.3h5.8v94.8h-5.8V1114.3z M318.4,1231.9h5.8v126.8h-5.8V1231.9z"/>
	<path id="Vector_36" class="st5" d="M318.4,1352.4h59.9v5.8h-59.9V1352.4z M318.4,1231.9h82.7v5.8h-82.7V1231.9z"/>
	<path id="Vector_37" class="st5" d="M374.9,1288h5.8v89h-5.8V1288z"/>
	<path id="Vector_38" class="st5" d="M374.9,1286.3h31.6v5.8h-31.6V1286.3z M797,1685.8h6.2v103.1H797V1685.8z M707.6,1779.7h52.8
		v12.5h-52.8V1779.7z M708.4,1682H760v12.5h-51.6V1682z M762.4,1551.1h27.4v12.5h-27.4V1551.1z M824.4,1349.5h12.5v106h-12.5V1349.5
		z"/>
	<path id="Vector_39" class="st5" d="M826.9,1209h9.6v141.3h-9.6V1209z M723.4,1349.5h9.6v104.8h-9.6V1349.5z M621.5,1349.5h9.6
		v104.8h-9.6V1349.5z M592.4,1451.4h9.6v104.7h-9.6V1451.4z M684.7,1451.4h9.6v104.7h-9.6V1451.4z M780.3,1451.4h9.6v104.7h-9.6
		V1451.4z M595.3,1206.1H619v9.6h-23.7V1206.1z"/>
	<path id="Vector_40" class="st5" d="M660.2,1203.6h228.2v12.1H660.2V1203.6z M392,338.7h15.4v20H392V338.7z"/>
	<path id="Vector_41" class="st5" d="M398.6,338.7h110.2v15.8H398.6V338.7z M31.9,432.6h364.6v15.8H31.9V432.6z M31.9,588.5h252.8
		v15.8H31.9V588.5z M269.3,648.7h133v15.8h-133V648.7L269.3,648.7z"/>
	<path id="Vector_42" class="st5" d="M269.3,588.5h15.8v75.6h-15.8V588.5L269.3,588.5z M450.6,31.9h15.8v313.4h-15.8V31.9z
		 M288,1202h118.9v15.4H288V1202z M35.3,895.2h365.1v15.4H35.3V895.2z"/>
	<path id="Vector_43" class="st3" d="M0.3,1360.7H41v44.9H0.3V1360.7L0.3,1360.7z M0.3,1196.6H41v91H0.3V1196.6L0.3,1196.6z
		 M0.3,1031.6H41v91H0.3V1031.6L0.3,1031.6z M0.3,866.9H41v91H0.3V866.9L0.3,866.9z M0.3,701.1H41v91.4H0.3V701.1L0.3,701.1z
		 M0.3,534.8H41v91.4H0.3V534.8L0.3,534.8z M0.3,371.1H41v91H0.3V371.1L0.3,371.1z M0.3,206.9H41v91H0.3V206.9L0.3,206.9L0.3,206.9z
		 M0.3,115.5H41v16.2H0.3V115.5C0.3,115.5,0.3,115.5,0.3,115.5z M125.1,1583.5H160v22.4h-34.9
		C125.1,1605.9,125.1,1583.5,125.1,1583.5z M125.9,2243.2h29.9v24.1h-29.9C125.9,2267.3,125.9,2243.2,125.9,2243.2z M125.9,1913.2
		h29.9v24.1h-29.9C125.9,1937.3,125.9,1913.2,125.9,1913.2z"/>
	<path id="Vector_44" class="st4" d="M1208.2,1443v-91h29.5l12,91H1208.2z"/>
	<path id="Vector_45" class="st3" d="M1207.3,1192h23.7v86h-23.7V1192z"/>
	<path id="Vector_46" class="st3" d="M1171.6,1179.9h61.1v37.4h-61.1V1179.9z M0.3,0.3h24.1v24.1H0.3V0.3z"/>
</g>
</svg>
