<svg width="90" height="90" viewBox="0 0 90 90" fill="none" xmlns="http://www.w3.org/2000/svg">
    <circle cx="44.473" cy="44.8108" r="23.0732" transform="rotate(-17.5245 44.473 44.8108)"
        stroke="#24292E" stroke-width="0.782143" />
    <path
        d="M34.5825 13.4854L45.2318 43.3535L75.7994 34.9192L45.9313 45.5686L54.3656 76.1361L43.7162 46.268L13.1487 54.7023L43.0168 44.053L34.5825 13.4854Z"
        fill="#24292E" />
    <path
        d="M51.6906 30.932L45.9651 44.3394L58.3519 52.0276L44.9445 46.3021L37.2563 58.6889L42.9818 45.2815L30.595 37.5933L44.0024 43.3188L51.6906 30.932Z"
        fill="#24292E" />
    <path
        d="M28.301 8.10397C29.1111 10.6697 31.2924 11.8838 33.9058 11.0585C36.8892 10.1165 37.3308 7.4836 36.9653 6.32605L35.4139 6.81592C35.5044 7.10232 35.5125 9.08139 33.4838 9.72198C31.7892 10.2571 30.3799 9.28479 29.8523 7.6141C29.3248 5.94341 29.9202 4.33806 31.6148 3.80298C33.6435 3.16238 34.7733 4.78723 34.8638 5.07363L36.4151 4.58377C36.0496 3.42622 34.1761 1.52437 31.1927 2.46643C28.5793 3.29167 27.4908 5.53827 28.301 8.10397Z"
        fill="#24292E" />
    <path opacity="0.3"
        d="M85.7664 32.9768C85.2087 31.2107 83.4903 31.504 83.4903 31.504L83.4714 31.4443C83.4714 31.4443 84.5794 30.7139 84.1573 29.3773C83.6863 27.8856 82.4986 27.4076 80.637 27.9955L76.8541 29.19L79.4918 37.5434L83.2986 36.3414C85.5063 35.6443 86.2826 34.6117 85.7664 32.9768ZM84.1887 33.3832C84.4411 34.1827 84.0718 34.7587 82.9501 35.1129L80.5872 35.859L79.8185 33.4245L82.1813 32.6784C83.2792 32.3318 83.9249 32.5478 84.1887 33.3832ZM82.6399 29.9746C82.9037 30.8099 82.4684 31.3017 81.5853 31.5806L79.4492 32.2551L78.7182 29.94L80.8543 29.2655C81.7732 28.9753 82.3874 29.175 82.6399 29.9746Z"
        fill="#24292E" />
    <path opacity="0.3"
        d="M3.97956 58.7503C4.46566 60.2897 6.07541 60.8575 8.30697 60.1529C10.4073 59.4897 11.5604 58.1544 11.0668 56.5911C10.5279 54.8846 8.88175 55.1157 8.88175 55.1157L8.85914 55.0441C8.85914 55.0441 10.0701 54.3074 9.60659 52.8396C9.19585 51.5389 7.65834 50.9089 5.52225 51.5834C3.35035 52.2692 2.48107 53.6723 2.9521 55.164L3.0237 55.3907L4.55118 54.9084L4.48335 54.6936C4.23465 53.906 4.79553 53.2302 5.92922 52.8722C7.2061 52.469 7.92084 52.8207 8.11679 53.4413C8.33534 54.1334 7.97733 54.7451 6.81978 55.1107L5.81737 55.4272L6.20926 56.6683L7.22361 56.348C8.45276 55.9599 9.25229 56.2061 9.50476 57.0056C9.7497 57.7813 9.16495 58.4646 7.9 58.8641C6.63505 59.2635 5.74821 59.0317 5.50705 58.268L5.37139 57.8384L3.84391 58.3207L3.97956 58.7503Z"
        fill="#24292E" />
    <path opacity="0.3"
        d="M61.3619 79.6851C60.5969 77.2626 58.6569 75.8149 56.127 76.6138C52.523 77.7518 53.4343 81.4273 53.4343 81.4273L52.1694 81.8267L51.069 78.3421L49.5893 78.8094L52.227 87.1628L53.7068 86.6956L52.5839 83.1394L53.8369 82.7437C53.8369 82.7437 55.1765 86.3627 58.8401 85.2059C61.37 84.407 62.1268 82.1076 61.3619 79.6851ZM59.8105 80.175C60.3079 81.7502 60.0843 83.3694 58.4256 83.8932C56.7668 84.417 55.6539 83.2198 55.1565 81.6446C54.6591 80.0694 54.8827 78.4502 56.5415 77.9264C58.2002 77.4027 59.3131 78.5998 59.8105 80.175Z"
        fill="#24292E" />
</svg>