<svg width="14" height="12" viewBox="0 0 14 12" fill="none" xmlns="http://www.w3.org/2000/svg">
<path d="M6.8571 0.666992C6.23826 0.666992 5.64477 0.912825 5.20718 1.35041C4.7696 1.78799 4.52376 2.38149 4.52376 3.00033H5.8571C5.8571 2.73511 5.96245 2.48075 6.14999 2.29322C6.33753 2.10568 6.59188 2.00033 6.8571 2.00033C7.12231 2.00033 7.37667 2.10568 7.5642 2.29322C7.75174 2.48075 7.8571 2.73511 7.8571 3.00033C7.8571 3.26554 7.75174 3.5199 7.5642 3.70743C7.37667 3.89497 7.12231 4.00033 6.8571 4.00033C6.49043 4.00033 6.19043 4.30033 6.19043 4.66699V5.83366L0.457096 10.1337C0.345159 10.2176 0.262474 10.3347 0.220754 10.4682C0.179034 10.6018 0.180394 10.7451 0.224641 10.8778C0.268888 11.0106 0.353779 11.126 0.467289 11.2078C0.5808 11.2896 0.717175 11.3337 0.857096 11.3337H12.8571C12.997 11.3337 13.1334 11.2896 13.2469 11.2078C13.3604 11.126 13.4453 11.0106 13.4896 10.8778C13.5338 10.7451 13.5352 10.6018 13.4934 10.4682C13.4517 10.3347 13.369 10.2176 13.2571 10.1337L7.52376 5.83366V5.23366C8.00485 5.09023 8.42686 4.79545 8.72711 4.39312C9.02736 3.99079 9.18984 3.50234 9.19043 3.00033C9.19043 2.38149 8.9446 1.78799 8.50701 1.35041C8.06943 0.912825 7.47593 0.666992 6.8571 0.666992ZM6.8571 7.00033L10.8571 10.0003H2.8571L6.8571 7.00033Z" fill="black"/>
</svg>
