<svg width="16" height="16" viewBox="0 0 16 16" fill="none" xmlns="http://www.w3.org/2000/svg">
<path d="M1.3335 14H14.6668" stroke="black" stroke-width="1.2" stroke-linecap="round" stroke-linejoin="round"/>
<path d="M4.66699 8.66602H3.33366C2.96547 8.66602 2.66699 8.96449 2.66699 9.33268V13.3327C2.66699 13.7009 2.96547 13.9993 3.33366 13.9993H4.66699C5.03518 13.9993 5.33366 13.7009 5.33366 13.3327V9.33268C5.33366 8.96449 5.03518 8.66602 4.66699 8.66602Z" stroke="black" stroke-width="1.2" stroke-linejoin="round"/>
<path d="M4 11.333H4.33333" stroke="black" stroke-width="1.2" stroke-linecap="square" stroke-linejoin="round"/>
<path d="M12.6668 1.33301H6.00016C5.63197 1.33301 5.3335 1.63148 5.3335 1.99967V13.333C5.3335 13.7012 5.63197 13.9997 6.00016 13.9997H12.6668C13.035 13.9997 13.3335 13.7012 13.3335 13.333V1.99967C13.3335 1.63148 13.035 1.33301 12.6668 1.33301Z" stroke="black" stroke-width="1.2" stroke-linejoin="round"/>
<path d="M7.3335 3.33301H8.66683V4.66634H7.3335V3.33301ZM10.0002 3.33301H11.3335V4.66634H10.0002V3.33301ZM7.3335 5.66634H8.66683V6.99967H7.3335V5.66634ZM10.0002 5.66634H11.3335V6.99967H10.0002V5.66634ZM10.0002 7.99967H11.3335V9.33301H10.0002V7.99967ZM10.0002 10.333H11.3335V11.6663H10.0002V10.333Z" fill="black"/>
</svg>
