<svg xmlns="http://www.w3.org/2000/svg" id="Layer_1" viewBox="0 0 393.66 612.33"><g id="flats" fill="#e5ebed"><path id="fl346" d="m178.81 345.62-5.79-.23V350h-45.88v-32.35l-72.95.26v85.51l125.16.91-1.16-10.99v-12.31l.62-35.41z"/><path id="fl345" d="m181.48 406.23-5.04.08H53.92V557.14h94.18v-98.93h31.29l-1.2-10.29v-12.34l3.29-4.04v-25.31z"/><path id="fl344" d="M237.95 557.14h-91.02v-96.26l47.59.25h12.41l30.59-1.36.43 97.37z"/><path id="fl343" d="M338.2 457.72V352.35H215.69v-.18h-5.29v71.3l3.43 8.07v29.47l23.31-.13.38 95.88h100.75v-99.04h-.07z"/><path id="fl342" d="M258.46 261.06v22.26h-44.61l-.02 44.07v12.4l.02 11.29h124.74v-90.02h-80.13z"/><path id="fl341" d="M217.88 171.03v-9.41h-6.82v15.93l2.77 4.07v12.33l-.62 22.91h7.14v4.73h36.95v40.68h81.29V171.03H217.88z"/><path id="fl340" d="M194.8 3.32v87.79h18.7l.33 5.68v11.82l-.33 52.65h6v6.82h118.61V3.32H194.8z"/><path id="fl339" d="M192.91 3.73H53.95V117.06h67.3v16.07l60.32 1.08-.8-26.92V95.47l2.58-3.41 9.56-.43V3.73z"/><path id="fl338" d="M178.17 177.29v-12.32l.91-30.12-57.34-1.39v-16.72H53.95v89.2h118.43v.24h9.3v-26.12l-3.51-2.77z"/></g><g id="windows" fill="none" stroke="#003a50" stroke-miterlimit="10"><path stroke-width=".52" d="M54.02 13.87v540.95M50.64.88v559.68M59.75 13.87v540.95"/><path stroke-width=".26" d="M57.79 13.88v540.94"/><path stroke-width=".52" d="M332.77 6.27v539.17M338.35 6.52v539.17M341.7.43v559.94"/><path stroke-width=".26" d="M334.77 6.27v539.17"/><path stroke-width=".52" d="M54.15 9.27h279.29M54.15 3.53h279.29M54.15.32h287.81"/><path stroke-width=".26" d="M54.15 7.18h279.29"/><path stroke-width=".52" d="M61.7 556.95h271.51M50.39 560.29h291.56M61.7 551.21h271.51"/><path stroke-width=".26" d="M61.7 553.95h271.51"/></g><g id="walls_outside" fill="#003a50"><path fill-rule="evenodd" d="M199.86 12.33h-23.94V0l23.94 2.92v9.41zM62.92 235.69v23.93l-12.34.01 2.92-23.94h9.42zM62.92 301.21v23.94H50.58l2.92-23.94h9.42zM62.92 482.73v23.93H50.58l2.92-23.93h9.42zM62.92 143.9v23.93H50.58l2.92-23.93h9.42zM62.92 52.02v23.94H50.58l2.92-23.94h9.42zM291.85 549h-23.93v12.33l23.93-2.91V549zM200.24 549H176.3v12.33l23.94-2.91V549z"/><path d="M62.92 5.94v23.81H53.4V5.94zM63.7 52.03v19.16H53.39V52.03z"/><path d="M77.94.37v11.96H54.15V.37zM124.17.37v11.96h-23.75V.37zM154.55.38v11.96h-8.61V.38zM245.71.38v11.96h-6.67V.38z"/><path d="M244.71 3.84v8.5h-22.92v-8.5zM121.75 1.37v12.5h-19.33V1.37zM198.08 7.04v6.83h-19.33V7.04z"/><path fill-rule="evenodd" d="M291.42 12.33h-23.94V0l23.94 2.92v9.41z"/><path d="M289.64 7.04v6.83h-19.33V7.04zM57.38 0v7.13H50.4V0zM62.91 98.23v23.64h-9.75V98.23z"/><path d="M61.91 98.24v6.48H50.83v-6.48zM62.92 189.39v24.3h-9.46v-24.3z"/><path d="M61.92 189.39v6.48H50.84v-6.48zM50.83 281.41v-23.64h12.08v23.64z"/><path d="M50.83 281.4v-6.48h11.08v6.48zM61.91 319.51v-3.45h85v3.45zM62.6 282.14v-3.45h119.11v3.45zM59.38 207.99v-3.45h122.83v3.45zM59.38 119.99v-3.45h62.38v3.45zM119.29 136.57v-3.45h62.38v3.45z"/><path d="M182.36 164.97h-4.2v-31.06h4.2zM182.36 181.72h-4.2v-4.43h4.2z"/><path d="M182.37 182.25h-13.44v-2.96h13.44z"/><path d="M171.55 180.77v24.61h-2.63v-24.61zM176.21 134.84h-2.92v-26.56h2.92z"/><path d="M182.37 108.1v2.92h-9.08v-2.92zM213.83 90.47v4.17h-35.5v-4.17z"/><path d="M209.75 92.6h4.08v4.2h-4.08zM209.75 108.61h4.08v50.27h-4.08z"/><path d="M209.75 156.83h4.08v5.27h-4.08zM209.75 176.04h4.08v5.58h-4.08zM209.75 193.95h4.08v25.21h-4.08zM209.75 283.18h4.08v44.21h-4.08zM209.75 339.79h4.08v45.47h-4.08z"/><path d="M209.75 376.73h4.08v28.95h-4.08zM209.75 420.34h4.08v11.2h-4.08zM215.69 407.03h2.95v16.07h-2.95z"/><path d="M210.61 423.3v-2.95h8.04v2.95zM209.75 443.92h4.08v16.5h-4.08z"/><path d="M206.92 461.13v-4.08h32.99v4.08zM146.56 461.13v-4.08h47.96v4.08z"/><path d="M150.64 552.21h-4.08v-93.12h4.08zM182.26 458.04h-4.08v-10.12h4.08zM182.26 435.58h-4.08v-5.99h4.08zM182.26 405.96h-4.08v-12.62h4.08zM182.26 381.02h-4.08V343.5h4.08z"/><path d="M182.27 351.04h-2.52V314.5h2.52z"/><path d="M182.26 319.47h-3.6v-22.63h3.6zM181.26 432.55h-10.14v-2.96h10.14z"/><path d="M174.39 432.47h-3.27v-27.13h3.27zM240.43 552.21h-4.08v-95.16h4.08zM212.87 354.18v-4.08h118.59v4.08zM209.76 407.25v-3.15h63.07v3.15zM284.68 407.25v-3.15h49.45v3.15zM209.75 178.54v-2.5h11.45v2.5zM209.76 219.41v-2.93h12.89v2.93z"/><path d="M222.64 224.45h-2.93v-7.97h2.93zM209.75 217.29h2.7v43.77h-2.7zM209.75 273.29h2.7v9.44h-2.7zM218.52 158.88h2.69v19.67h-2.69z"/><path d="M210.63 162.18v-3.89h10.58v3.89zM218.52 171.02v-4.08h111.93v4.08zM311.71 215.46v-5.33h18.74v5.33zM258.46 262.86v-4.06h71.99v4.06zM219.96 224.46v-4.37h40.12v4.37zM209.76 283.77v-4.06h50.32v4.06z"/><path d="M260.33 283.77h-4.32v-63.23h4.32zM192.45 12.78h4.08v78.7h-4.08zM121.75 136.57h-4.05v-20.03h4.05zM140.26 282.9h-3.45v-3.45h3.45zM61.92 406.75v-3.45h120.33v3.45zM159.64 319.51v-3.45h22.62v3.45zM127.58 353.54h-4.19v-34.45h4.19z"/><path d="M173.21 349.66v4.2h-46.93v-4.2zM179.75 343.51v2.7h-8.62v-2.7z"/><path d="M170.65 343.7h2.7v9.84h-2.7zM54.77 369.93v-22.7h8.15v22.7z"/><path d="M50.83 369.93v-6.48h11.08v6.48zM52.64 460.93v-23.18h10.27v23.18z"/><path d="M50.83 460.93v-6.48h11.08v6.48zM54.17 557.41V528.7h8.75v28.71z"/><path d="M55.17 557.41v-8.44h9.54v8.44zM100.12 559.45v-10.48h24v10.48zM146.26 560.66v-11.69h6.76v11.69z"/><path d="M147.26 554.82v-5.84h6.76v5.84zM269.08 554.22v-6.78h20.71v6.78zM177.64 554.22v-6.78h20.71v6.78zM102.38 554.22v-6.78h19.54v6.78zM329.26 557.54v-8.56h8.56v8.56zM222.04 557.54v-8.56h23.83v8.56z"/><path d="M312.73 560.46v-11.48h23.83v11.48zM239.08 560.46v-10.48h6.79v10.48zM50.83 560.56v-6.48h6.48v6.48zM50.83 415.24V391.6h12.08v23.64z"/><path fill-rule="evenodd" d="M329.45 116.07v23.94h12.33l-2.91-23.94h-9.42z"/><path d="M329.11 554.32v-25.87h12.29v25.87zM327.83 498.29v-14.76h2.37v14.76zM327.84 459.66v-19.1h2.37v19.1zM334.99 560.57v-6.25h6.46v6.25z"/><path d="M329.45 460.88v-23.64h9.36v23.64z"/><path d="M330.45 460.89v-6.48h9.88v6.48zM329.45 185.57v-24.02h9.44v24.02z"/><path d="M330.45 185.57v-6.48h11.08v6.48zM329.45 277.31v-24.02h8.61v24.02z"/><path d="M330.45 277.32v-6.48h11.08v6.48z"/><path fill-rule="evenodd" d="M329.45 391.23v23.94h12.33l-2.91-23.94h-9.42zM329.45 483.53v23.94h12.33l-2.91-23.94h-9.42z"/><path d="M329.45 369.17v-24.02h8.44v24.02z"/><path d="M330.45 369.17v-6.48h9.88v6.48zM341.54 90.05v6.48h-12.08v-6.48zM339.06 46.73v24.43h-9.61V46.73z"/><path d="M330.77 51.98v18.99h-2.81V51.98zM330.77 116.56v19.32h-2.81v-19.32zM338.2 3.58v8.43h-8.84V3.58z"/><path d="M338.35 2.95v22.79h-9.58V2.95zM341.71 207.43v25.31h-12.94v-25.31zM341.7 299.84v23.4h-12.94v-23.4z"/><path d="M341.53.43v7.65h-6.48V.43z"/></g></svg>