<svg xmlns="http://www.w3.org/2000/svg" id="Layer_1" viewBox="0 0 393.66 612.33"><g id="flats" fill="#e5ebed"><path id="fl364" d="M179.08 345.39h-6.06V350h-45.88v-32.35l-72.95.26v85.51l125.16.58-1.16-10.66v-12.31l.89-35.64z"/><path id="fl363" d="M181.52 406.23h-5.05v.08H53.95V557.14h94.18v-98.93h30.18l-.12-10.29v-12.34l.12-4.04h3.21v-25.31z"/><path id="fl362" d="M236.36 557.14h-89.43v-96.26l47.59.25h12.41l31.21-1.67-1.78 97.68z"/><path id="fl361" d="M338.2 369.16h-3.43v-17.22H215.69v-.18h-5.29v71.44l3.43 8.34v29.28l23.25-.4v96.34h101.19v-99.24h-.07v-88.36z"/><path id="fl360" d="M333.39 272.62v-11.56h-74.93v22.43h-44.61v44.76l-.02 11.54-.96 11.71 121.9.26v-6.61h3.82v-72.53h-5.2z"/><path id="fl359" d="M332.72 262.27v-8.97h5.87V171.03H217.88v-9.41h-6.82v15.93l2.77 4.07v12.33l-.62 22.91h7.14v4.73h36.95v40.68h75.42z"/><path id="fl358" d="M194.8 3.32v87.79l18.62.92.41 4.76v11.82l-.33 50.06 4.68 1.59.34 7.82h119.59V3.32H194.8z"/><path id="fl357" d="M192.91 3.73H53.95V117.06h67.3v16.07l60.02.61-.5-26.45-.08-12.65 12.22-3.01V3.73z"/><path id="fl356" d="M178.17 177.29v-12.32l-.06-31.51h-56.37v-16.72H53.95v76.4h2.8v12.8h115.63v.24h9.3v-26.12l-3.51-2.77z"/></g><g id="windows" fill="none" stroke="#003a50" stroke-miterlimit="10"><path stroke-width=".52" d="M54.02 13.87v542.38M50.64.07v560.49M59.75 13.87v542.38"/><path stroke-width=".26" d="M57.79 13.88v542.37"/><path stroke-width=".52" d="M332.77 6.27v539.17M338.35 6.52v539.17M341.7.43v559.94"/><path stroke-width=".26" d="M334.77 6.27v539.17"/><path stroke-width=".52" d="M56.18 9.27h279.3M56.18 3.53h279.3M56.18.32h285.78"/><path stroke-width=".26" d="M56.18 7.18h279.3"/><path stroke-width=".52" d="M61.7 556.95h271.51M50.39 560.29h291.56M61.7 551.21h271.51"/><path stroke-width=".26" d="M61.7 553.95h271.51"/></g><g id="walls_outside" fill="#003a50"><path fill-rule="evenodd" d="M175.92 12.33h23.94V0l-23.94 2.92v9.41zM62.92 259.63v-23.94H50.58l2.92 23.94h9.42zM62.92 325.15v-23.94H50.58l2.92 23.94h9.42zM62.92 506.66v-23.93H50.58l2.92 23.93h9.42zM62.92 416.07v-23.94H50.58l2.92 23.94h9.42zM62.92 75.96V52.02H50.58l2.92 23.94h9.42zM100.11 549h23.94v12.33l-23.94-2.91V549z"/><path d="M62.92 5.94v23.81H50.84V5.94zM62.92 143.2v23.81H50.31V143.2zM63.7 52.03v19.16H53.39V52.03z"/><path d="M64.56.37v11.96H54.15V.37zM124.17.37v11.96h-23.75V.37zM154.55.38v11.96h-8.61V.38zM245.71.38v11.96h-6.67V.38z"/><path d="M244.71 3.84v8.5h-22.92v-8.5zM121.75 1.37v12.5h-19.33V1.37zM198.08 7.04v6.83h-19.33V7.04z"/><path fill-rule="evenodd" d="M267.48 12.33h23.94V0l-23.94 2.92v9.41z"/><path d="M289.64 7.04v6.83h-19.33V7.04zM57.38.07v7.05h-6.46V.07zM62.91 98.23v23.64h-9.75V98.23z"/><path d="M61.91 98.24v6.48H50.83v-6.48zM62.92 189.39v24.3h-7.4v-24.3z"/><path d="M61.92 189.39v6.48H50.84v-6.48zM53.45 281.41v-23.64h9.46v23.64z"/><path d="M50.83 282.14v-7.22h11.08v7.22zM61.91 319.51v-3.45h85v3.45z"/><path d="M61.33 282.14v-3.45H181.7v3.45zM59.38 207.99v-3.45h122.83v3.45zM59.38 119.99v-3.45h62.38v3.45zM119.29 136.57v-3.45h62.38v3.45z"/><path d="M182.36 164.96h-4.2v-31.89h4.2zM182.36 181.72h-4.2v-4.43h4.2z"/><path d="M182.37 182.25h-13.44v-2.96h13.44z"/><path d="M171.55 180.77v24.61h-2.63v-24.61zM176.21 134.84h-2.92v-26.56h2.92z"/><path d="M182.37 108.1v2.92h-9.08v-2.92zM213.83 90.47v4.17h-35.5v-4.17z"/><path d="M209.75 92.6h4.08v4.2h-4.08zM209.75 108.61h4.08v50.27h-4.08z"/><path d="M209.75 156.83h4.08v5.27h-4.08zM209.75 176.04h4.08v5.58h-4.08zM209.75 193.95h4.08v25.21h-4.08zM209.75 283.18h4.08v44.21h-4.08zM209.75 339.79h4.08v45.47h-4.08z"/><path d="M209.75 376.73h4.08v28.95h-4.08zM209.75 420.34h4.08v11.2h-4.08zM215.69 407.03h2.95v16.07h-2.95z"/><path d="M210.61 423.3v-2.95h8.04v2.95zM209.75 443.92h4.08v16.5h-4.08z"/><path d="M206.92 461.13v-4.08h32.99v4.08zM146.56 461.13v-4.08h47.96v4.08z"/><path d="M150.64 552.21h-4.08v-93.12h4.08zM182.26 458.04h-4.08v-10.12h4.08zM182.26 435.58h-4.08v-5.99h4.08zM182.26 405.96h-4.08v-12.62h4.08zM182.26 381.02h-4.08V343.5h4.08z"/><path d="M182.27 351.04h-2.52V314.5h2.52z"/><path d="M182.26 319.47h-3.6v-22.63h3.6zM181.26 432.55h-10.14v-2.96h10.14z"/><path d="M174.39 432.47h-3.27v-27.13h3.27zM240.43 552.21h-4.08v-95.16h4.08zM212.87 354.18v-4.08h118.59v4.08zM209.76 407.25v-3.15h63.07v3.15zM284.52 407.25v-3.15h49.62v3.15zM209.75 178.54v-2.5h11.45v2.5zM209.76 219.41v-2.93h12.89v2.93z"/><path d="M222.64 224.45h-2.93v-7.97h2.93zM209.75 217.29h2.7v43.77h-2.7zM209.75 273.29h2.7v9.44h-2.7zM218.52 158.88h2.69v19.67h-2.69z"/><path d="M210.63 162.18v-3.89h10.58v3.89zM218.52 171.02v-4.08h111.93v4.08zM311.71 215.46v-5.33h18.74v5.33zM258.46 262.86v-4.06h71.99v4.06zM219.96 224.46v-4.37h40.12v4.37zM209.76 283.77v-4.06h50.32v4.06z"/><path d="M260.33 283.77h-4.32v-63.23h4.32zM192.45 12.78h4.08v78.7h-4.08zM121.75 136.57h-4.08v-20.03h4.08zM140.26 282.9h-3.45v-3.45h3.45zM61.92 406.75v-3.45h120.33v3.45zM159.64 319.51v-3.45h22.62v3.45zM127.58 353.54h-4.19v-34.45h4.19z"/><path d="M173.21 349.66v4.2h-46.93v-4.2zM179.75 343.51v2.7h-8.62v-2.7z"/><path d="M170.65 343.7h2.7v9.84h-2.7zM54.77 369.93v-22.7h8.15v22.7z"/><path d="M50.83 369.93v-6.48h11.08v6.48zM52.64 460.94v-23.18h10.1v23.18zM52.64 498.22v-15.49h11.23v15.49z"/><path d="M50.83 460.93v-6.48h11.08v6.48zM54.17 557.41V528.7h8.75v28.71z"/><path d="M55.17 557.41v-8.44h9.54v8.44zM176.24 559.46v-10.48h24v10.48zM267.89 559.46v-10.48h24v10.48zM146.26 560.66v-11.69h6.76v11.69z"/><path d="M147.26 554.82v-5.84h6.76v5.84zM269.08 554.22v-6.78h20.71v6.78zM177.64 554.22v-6.78h20.71v6.78zM102.38 554.22v-6.78h19.54v6.78zM329.26 557.54v-8.56h8.56v8.56zM222.04 557.54v-8.56h23.83v8.56z"/><path d="M312.73 560.46v-11.48h23.83v11.48zM239.08 560.46v-10.48h6.79v10.48zM50.83 560.56v-6.48h6.48v6.48z"/><path fill-rule="evenodd" d="M329.45 231.57v-23.93h12.33l-2.91 23.93h-9.42zM329.45 140.01v-23.94h12.33l-2.91 23.94h-9.42zM329.45 47.04v23.93h12.33l-2.91-23.93h-9.42z"/><path d="M329.11 554.32v-12.94h12.29v12.94zM327.83 498.29v-14.76h2.37v14.76zM327.84 459.66v-19.1h2.37v19.1zM334.99 560.57v-6.25h6.46v6.25z"/><path d="M329.45 460.88v-23.64h6.17v23.64z"/><path d="M330.45 460.89v-6.48h9.88v6.48zM329.45 185.57v-24.02h6.54v24.02z"/><path d="M330.45 185.57v-6.48h11.08v6.48z"/><path fill-rule="evenodd" d="M329.45 323.32v-23.93h12.33l-2.91 23.93h-9.42z"/><path d="M329.45 277.32V253.3h6.54v24.02z"/><path d="M330.45 277.32v-6.48h11.08v6.48z"/><path fill-rule="evenodd" d="M329.45 415.17v-23.94h12.33l-2.91 23.94h-9.42zM329.45 507.47v-23.94h12.33l-2.91 23.94h-9.42z"/><path d="M329.45 369.17v-24.02h6.17v24.02z"/><path d="M330.45 369.17v-6.48h9.88v6.48zM341.54 90.05v6.48h-12.08v-6.48zM330.77 51.98v18.99h-2.81V51.98zM330.77 116.56v19.32h-2.81v-19.32zM338.2 3.58v8.43h-8.84V3.58z"/><path d="M338.11 3.83v21.91h-9.34V3.83z"/><path d="M334.14 3.53v8.74h-21.12V3.53zM341.53.43v7.65h-6.48V.43z"/></g></svg>