<svg xmlns="http://www.w3.org/2000/svg" id="Layer_1" viewBox="0 0 393.66 612.33"><g id="flats" fill="#e5ebed"><path id="fl418" d="M179.75 345.39h-6.73V350h-45.88v-32.35l-72.95.26v85.51l124.66.87-.66-10.95v-12.31l1.56-35.64z"/><path id="fl417" d="M181.52 406.23h-5.05v.08H53.95V557.14h94.18v-98.93h30.18l-.12-10.29v-12.34l3.33-4.04v-25.31z"/><path id="fl416" d="M236.36 557.14h-89.43l1.49-96.72 46.1.71h12.41l30.96-1.36-1.53 97.37z"/><path id="fl415" d="M338.2 457.72V352.35H215.69v-.18h-5.29v71.3l3.43 8.07v12.38l-.96 15.17 24.61 1.33-.17 96.53 100.96-.19v-99.04h-.07z"/><path id="fl414" d="M258.46 261.06v22.26h-45.65l1.02 44.07v12.4l.02 11.29h124.74v-90.02h-80.13z"/><path id="fl413" d="M217.88 171.03v-9.41h-6.82v15.93l2.77 4.07v12.33l-.62 22.91h7.14v4.73h36.95v40.68h81.29V171.03H217.88z"/><path id="fl412" d="M194.8 3.32v87.79l16.34.37 2.69 5.31v11.82l-.33 51.08 5.02.54.7 7.47h118.89V3.32H194.8z"/><path id="fl411" d="M192.91 3.73H53.95v113.33h67.3l-.64 16.88 57.56.16h3.14l-.54-26.81-.1-15.66h12.24V3.73z"/><path id="fl410" d="M178.17 177.29v-12.32l1.28-29.79-58.14-1.24.43-17.2H53.95v89.2l127.73.24v-26.12l-3.51-2.77z"/></g><g id="windows" fill="none" stroke="#003a50" stroke-miterlimit="10"><path stroke-width=".52" d="M57.14 556.95h281.21M57.14 559.46h281.21M59.75 551.21h273.13"/><path stroke-width=".26" d="M59.75 553.95h273.13"/><path stroke-width=".52" d="M54.02 277.04v279.91M54.02 3.53v236.59M50.83 3.53v553.42M59.75 3.53v553.42"/><path stroke-width=".26" d="M57.79 3.53v553.42"/><path stroke-width=".52" d="M59.75 9.27H332.6M53.95 3.53h281.19M53.95.43h287.58"/><path stroke-width=".26" d="M59.75 7.18H332.6"/><path stroke-width=".52" d="M332.77 3.53v553.16M338.35 3.79v553.16M340.33 3.79v553.16"/><path stroke-width=".26" d="M334.77 3.53v553.16"/></g><g id="walls_outside" fill="#003a50"><path d="M62.92 143.2v23.81h-8.9V143.2zM62.91 98.24v23.62h-8.96V98.24zM63.7 52.03V75.7h-9.75V52.03z"/><path d="M63.71 52.02v6.53h-13.4v-6.53zM154.55.38v11.96h-8.61V.38zM245.71.38v11.96h-6.67V.38z"/><path d="M244.71 3.84v8.5h-22.92v-8.5zM200.12.37v11.96h-6.67V.37z"/><path d="M199.12 3.83v8.5H176.2v-8.5zM124.04.38v11.96h-6.67V.38z"/><path d="M123.04 3.83v8.5h-22.92v-8.5zM291.38.37v11.96h-6.67V.37z"/><path d="M290.37 3.83v8.5h-22.92v-8.5zM121.75 6.53v7.35h-19.33V6.53zM198.08 7.04v6.83h-19.33V7.04z"/><path d="M289.64 7.04v6.83h-19.33V7.04zM57.38.17v6.96h-6.81V.17zM61.91 98.24v6.48H50.83v-6.48zM62.92 189.39v24.3h-9.46v-24.3z"/><path d="M61.92 189.39v6.48H50.84v-6.48zM61.92 143.35v6.81H50.84v-6.81zM50.83 281.4v-6.48h12.08v6.48z"/><path d="M55.56 281.41v-46.13h7.36v46.13z"/><path d="M50.83 281.4v-6.48h11.08v6.48zM50.83 241.75v-6.48h11.08v6.48zM61.91 319.51v-3.45h85v3.45zM62.6 282.14v-3.45h119.11v3.45zM59.38 207.99v-3.45h122.83v3.45zM59.38 119.99v-3.45h62.38v3.45zM119.29 136.57v-3.45h62.38v3.45z"/><path d="M182.36 164.96h-4.2v-31.69h4.2zM182.36 181.72h-4.2v-4.43h4.2z"/><path d="M182.37 182.25h-13.44v-2.96h13.44z"/><path d="M171.55 180.77v24.61h-2.63v-24.61zM176.21 134.84h-2.92v-26.56h2.92z"/><path d="M182.37 108.1v2.92h-9.08v-2.92zM213.83 90.47v4.17h-35.5v-4.17z"/><path d="M209.75 92.6h4.08v4.2h-4.08zM209.75 108.61h4.08v50.27h-4.08z"/><path d="M209.75 156.83h4.08v5.27h-4.08zM209.75 176.04h4.08v5.58h-4.08zM209.75 193.95h4.08v25.21h-4.08zM209.75 283.18h4.08v44.21h-4.08zM209.75 339.79h4.08v45.47h-4.08z"/><path d="M209.75 376.73h4.08v28.95h-4.08zM209.75 420.34h4.08v11.2h-4.08zM215.69 407.03h2.95v16.07h-2.95z"/><path d="M210.61 423.3v-2.95h8.04v2.95zM209.75 443.92h4.08v16.5h-4.08z"/><path d="M206.92 461.13v-4.08h32.99v4.08zM146.56 461.13v-4.08h47.96v4.08z"/><path d="M150.64 552.21h-4.08v-93.12h4.08zM182.26 458.04h-4.08v-10.12h4.08zM182.26 435.58h-4.08v-5.99h4.08zM182.26 405.96h-4.08v-12.62h4.08zM182.26 381.02h-4.08V343.5h4.08z"/><path d="M182.27 351.04h-2.52V314.5h2.52z"/><path d="M182.26 319.47h-3.6v-22.63h3.6zM181.26 432.55h-10.14v-2.96h10.14z"/><path d="M174.39 432.47h-3.27v-27.13h3.27zM240.43 552.21h-4.08v-95.16h4.08zM212.87 354.18v-4.08h118.59v4.08zM209.76 407.25v-3.15h63.07v3.15zM284.68 407.25v-3.15h49.45v3.15zM209.75 178.54v-2.5h11.45v2.5zM209.76 219.41v-2.93h12.89v2.93z"/><path d="M222.64 224.45h-2.93v-7.97h2.93zM209.75 217.29h2.7v43.77h-2.7zM209.75 273.29h2.7v9.44h-2.7zM218.52 158.88h2.69v19.67h-2.69z"/><path d="M210.63 162.18v-3.89h10.58v3.89zM218.52 171.02v-4.08h111.93v4.08zM311.71 215.46v-5.33h18.74v5.33zM258.46 262.86v-4.06h71.99v4.06zM219.96 224.46v-4.37h40.12v4.37zM209.76 283.77v-4.06h50.32v4.06z"/><path d="M260.33 283.77h-4.32v-63.23h4.32zM192.45 12.78h4.08v78.7h-4.08zM121.75 136.57h-4.32v-20.03h4.32zM140.26 282.9h-3.45v-3.45h3.45zM61.92 406.75v-3.45h120.33v3.45zM159.64 319.51v-3.45h22.62v3.45zM127.58 353.54h-4.19v-34.45h4.19z"/><path d="M173.21 349.66v4.2h-46.93v-4.2zM179.75 343.51v2.7h-8.62v-2.7z"/><path d="M170.65 343.7h2.7v9.84h-2.7zM54.02 369.94v-22.7h8.9v22.7z"/><path d="M50.83 369.93v-6.48h11.08v6.48zM54.02 324.49v-24h8.9v24z"/><path d="M50.83 324.5v-6.48h11.08v6.48zM53.95 460.93v-23.18h8.96v23.18zM57.43 497.91v-14.88h6.58v14.88z"/><path d="M50.83 460.93v-6.48h11.08v6.48zM53.95 506.96v-23.92h8.96v23.92z"/><path d="M50.83 506.95v-6.48h11.08v6.48zM50.83 415.8v-6.48h12.08v6.48zM100.12 559.45v-10.48h24v10.48zM146.26 560.66v-11.69h6.76v11.69z"/><path d="M147.26 554.82v-5.84h6.76v5.84zM269.08 554.22v-6.78h20.71v6.78zM177.64 554.22v-6.78h20.71v6.78zM102.38 554.22v-6.78h19.54v6.78zM222.04 557.54v-8.56h23.83v8.56z"/><path d="M239.08 560.46v-10.48h6.79v10.48zM267.24 557.55v-8.56h23.83v8.56z"/><path d="M284.29 560.45v-10.48h6.79v10.48zM175.81 557.54v-8.56h23.83v8.56z"/><path d="M192.85 560.46v-10.48h6.79v10.48zM50.55 560.56v-6.48h6.76v6.48zM53.95 415.24V391.6h8.96v23.64zM327.83 498.29v-14.76h2.37v14.76zM327.84 459.66v-19.1h2.37v19.1zM334.99 560.57v-6.25h6.46v6.25z"/><path d="M329.45 460.88v-23.64h9.36v23.64zM329.45 506.69v-23.64h11.57v23.64z"/><path d="M330.45 460.89v-6.48h9.88v6.48zM329.45 415.24V391.6h9.36v23.64z"/><path d="M330.45 415.24v-6.48h9.88v6.48zM329.45 323.05v-23.64h9.36v23.64z"/><path d="M330.45 323.06v-6.48h9.88v6.48zM329.45 185.57v-24.02h9.44v24.02z"/><path d="M330.45 185.57v-6.48h11.08v6.48zM327.96 139.86v-6.48h13.58v6.48z"/><path d="M327.96 134.77v-18.21h10.93v18.21zM341.53 47.88v6.48h-13.58v-6.48z"/><path d="M338.89 52.96v18.21h-10.93V52.96zM329.45 277.31v-24.02h8.61v24.02z"/><path d="M330.45 277.32v-6.48h11.08v6.48zM329.45 231.42V207.4h8.61v24.02z"/><path d="M330.45 231.43v-6.48h11.08v6.48zM329.45 369.17v-24.02h8.44v24.02z"/><path d="M330.45 369.17v-6.48h9.88v6.48zM341.54 90.05v6.48h-12.08v-6.48zM330.77 51.98v18.99h-2.81V51.98zM330.77 116.56v19.32h-2.81v-19.32zM341.53.44v6.79h-6.79V.44z"/></g></svg>