<svg xmlns="http://www.w3.org/2000/svg" id="Layer_1" viewBox="0 0 393.66 612.33"><g id="flats" fill="#e5ebed"><path id="fl427" d="M179.75 345.39h-6.73V350h-45.88l-1.65-32.35-63.07.29-.03 85.68 117.58 1.17-1.78-11.45v-12.31l1.56-35.64z"/><path id="fl426" d="m181.52 406.23-119.1.08v144.9h85.71v-93l31.14.88-1.08-11.17v-12.34l3.33-4.04v-25.31z"/><path id="fl425" d="M239.08 551.21h-91.31l.83-91.51 45.92 1.43h12.41l31.47-1.84.68 91.92z"/><path id="fl424" d="M329.42 457.72V352.35H215.69v-.18h-5.29v71.3l3.43 8.07v28.23l23.75-.31-.11 91.75h92.34l-.33-93.49h-.06z"/><path id="fl423" d="M258.46 261.06v22.26h-44.61l-.02 44.07v12.4l-1.38 11.29h117.36v-90.02h-71.35z"/><path id="fl422" d="M217.88 171.03v-9.41h-6.82v15.93l2.77 4.07v12.33l-.62 22.91h7.14v4.73h36.95v40.68h72.51v-91.24H217.88z"/><path id="fl421" d="M195.12 12.24v79.53h16.67l2.04 5.02v11.82l-.01 50.65 5.11 1.26v8.87h110.71V12.24H195.12z"/><path id="fl420" d="M192.91 11.99H62.42v105.07l57.22.5.88 16.73 61.05-.55-.8-26.45V95.47l-.1-3.84h12.24V11.99z"/><path id="fl419" d="M178.17 177.29v-12.32l1.22-29.49-57.65-2.02v-16.72H62.42v89.2H121.47l60.21.24v-26.12l-3.51-2.77z"/></g><g id="windows" fill="none" stroke="#003a50" stroke-miterlimit="10"><path stroke-width=".52" d="M56.68 6.27v550.68M62.42 6.27v550.68"/><path stroke-width=".26" d="M59.68 6.27v550.68"/><path stroke-width=".52" d="M329.81 6.27v550.68M335.55 6.27v550.68"/><path stroke-width=".26" d="M332.81 6.27v550.68"/><path stroke-width=".52" d="M62.42 12.01h267.39M56.68 6.27h278.81"/><path stroke-width=".26" d="M62.42 9.01h267.39"/><path stroke-width=".52" d="M56.93 556.95h278.62M62.47 551.21h267.34"/><path stroke-width=".26" d="M62.47 553.95h267.34"/></g><g id="walls_outside" fill="#003a50"><path d="M154.55.38v11.96h-8.61V.38zM245.71.38v11.96h-6.67V.38z"/><path d="M244.72 5.3v7.02H221.8V5.3zM201.42.38v11.96h-6.67V.38z"/><path d="M200.43 5.3v7.02h-22.92V5.3zM124.76.37v11.96h-6.67V.37z"/><path d="M123.77 5.31v7.02h-22.92V5.31zM291.38.37v11.96h-6.67V.37z"/><path d="M290.38 5.31v7.02h-22.92V5.31zM198.08 7.04v6.83h-19.33V7.04z"/><path d="M289.64 7.04v6.83h-19.33V7.04zM122.48 7.04v6.83h-19.33V7.04zM57.38.87v6.25h-6.46V.87zM62.92 98.23v23.64h-6.54V98.23z"/><path d="M61.91 98.24v6.48H50.83v-6.48zM62.92 189.39v24.3h-6.54v-24.3z"/><path d="M61.92 189.39v6.48H50.84v-6.48zM62.91 142.61v24.3h-6.54v-24.3z"/><path d="M61.91 142.61v6.48H50.83v-6.48zM62.91 236.11v24.3h-6.54v-24.3z"/><path d="M61.91 236.11v6.48H50.83v-6.48zM56.37 281.41v-23.64h6.54v23.64z"/><path d="M50.83 281.4v-6.48h11.08v6.48zM61.91 319.51v-3.45h85v3.45zM62.6 282.14v-3.45h119.11v3.45zM59.38 207.99v-3.45h122.83v3.45zM59.38 119.99v-3.45h62.38v3.45zM119.29 136.57v-3.45h62.38v3.45z"/><path d="M182.36 164.97h-4.2v-31.63h4.2zM182.36 181.72h-4.2v-4.43h4.2z"/><path d="M182.37 182.25h-13.44v-2.96h13.44z"/><path d="M171.55 180.77v24.61h-2.63v-24.61zM176.21 134.84h-2.92v-26.56h2.92z"/><path d="M182.37 108.1v2.92h-9.08v-2.92zM213.83 90.47v4.17h-35.5v-4.17z"/><path d="M209.75 92.6h4.08v4.2h-4.08zM209.75 108.61h4.08v50.27h-4.08z"/><path d="M209.75 156.83h4.08v5.27h-4.08zM209.75 176.04h4.08v5.58h-4.08zM209.75 193.95h4.08v25.21h-4.08zM209.75 283.18h4.08v44.21h-4.08zM209.75 339.79h4.08v45.47h-4.08z"/><path d="M209.75 376.73h4.08v28.95h-4.08zM209.75 420.34h4.08v11.2h-4.08zM215.69 407.03h2.95v16.07h-2.95z"/><path d="M210.61 423.3v-2.95h8.04v2.95zM209.75 443.92h4.08v16.5h-4.08z"/><path d="M206.92 461.13v-4.08h32.99v4.08zM146.56 461.13v-4.08h47.96v4.08z"/><path d="M150.64 552.21h-4.08v-93.12h4.08zM182.26 458.04h-4.08v-10.12h4.08zM182.26 435.58h-4.08v-5.99h4.08zM182.26 405.96h-4.08v-12.62h4.08zM182.26 381.02h-4.08V343.5h4.08z"/><path d="M182.27 351.04h-2.52V314.5h2.52zM181.26 432.55h-10.14v-2.96h10.14z"/><path d="M174.39 432.47h-3.27v-27.13h3.27zM240.43 552.21h-4.08v-95.16h4.08zM212.87 354.18v-4.08h118.59v4.08zM209.76 407.25v-3.15h63.07v3.15zM284.68 407.25v-3.15h49.45v3.15zM209.75 178.54v-2.5h11.45v2.5zM209.76 219.41v-2.93h12.89v2.93z"/><path d="M222.64 224.45h-2.93v-7.97h2.93zM209.75 217.29h2.7v43.77h-2.7zM209.75 273.29h2.7v9.44h-2.7zM218.52 158.88h2.69v19.67h-2.69z"/><path d="M210.63 162.18v-3.89h10.58v3.89zM218.52 171.02v-4.08h111.93v4.08zM311.71 215.46v-5.33h18.74v5.33zM258.46 262.86v-4.06h71.99v4.06zM219.96 224.46v-4.37h40.12v4.37zM209.76 283.77v-4.06h50.32v4.06z"/><path d="M260.33 283.77h-4.32v-63.23h4.32zM192.45 12.78h4.08v78.7h-4.08zM121.75 136.57h-3.45v-20.03h3.45zM140.26 282.9h-3.45v-3.45h3.45zM61.92 406.75v-3.45h120.33v3.45zM159.64 319.51v-3.45h22.62v3.45zM127.58 353.54h-4.19v-34.45h4.19z"/><path d="M173.21 349.66v4.2h-46.93v-4.2zM179.75 343.51v2.7h-8.62v-2.7z"/><path d="M170.65 343.7h2.7v9.84h-2.7zM56.37 369.94v-22.7h6.54v22.7z"/><path d="M50.83 369.93v-6.48h11.08v6.48zM56.38 324.41v-23.37h6.54v23.37z"/><path d="M50.83 324.41v-6.48h11.08v6.48zM56.37 415.46v-22.7h6.54v22.7z"/><path d="M50.83 415.45v-6.48h11.08v6.48zM56.37 460.42v-22.7h6.54v22.7z"/><path d="M50.83 460.41v-6.48h11.08v6.48zM56.38 506.05v-22.7h6.54v22.7z"/><path d="M50.83 506.04v-6.48h11.08v6.48zM146.26 560.66v-11.69h6.76v11.69z"/><path d="M147.26 554.82v-5.84h6.76v5.84zM269.08 554.22v-6.78h20.71v6.78zM178.2 554.22v-6.78h20.71v6.78zM102.82 554.22v-6.78h20.71v6.78zM222.04 557.54v-8.56h23.83v8.56z"/><path d="M239.08 560.46v-10.48h6.79v10.48zM176.35 557.54v-8.56h23.83v8.56z"/><path d="M193.39 560.46v-10.48h6.79v10.48zM100.26 557.54v-8.56h23.83v8.56z"/><path d="M100.26 560.46v-10.48h6.79v10.48zM269.08 557.54v-8.56h22.72v8.56z"/><path d="M285.01 560.46v-10.48h6.79v10.48zM50.83 560.56v-6.48h6.48v6.48zM56.37 75.22V51.58h6.54v23.64z"/><path d="M50.83 58.56v-6.99h12.08v6.99z"/><path d="M57.51 71V51.57h7.4V71zM327.84 498.29v-15.42h2.37v15.42zM327.84 459.66v-19.1h2.37v19.1zM334.99 560.57v-6.25h6.46v6.25z"/><path d="M329.45 460.88v-23.64h7.28v23.64z"/><path d="M330.45 460.88v-6.48h11.33v6.48zM329.45 506.51v-23.64h7.28v23.64z"/><path d="M330.45 506.52v-6.48h11.33v6.48zM329.45 415.02v-23.64h7.28v23.64z"/><path d="M330.45 415.02v-6.48h11.33v6.48zM329.45 185.56v-24.02h7.28v24.02zM329.45 71.11V47.07h7.28v24.04z"/><path d="M330.45 185.57v-6.48h11.08v6.48zM329.45 232.18v-24.02h7.28v24.02z"/><path d="M330.45 232.18v-6.48h11.08v6.48zM329.45 140.57v-24.02h7.28v24.02z"/><path d="M330.45 140.58v-6.48h11.08v6.48zM329.45 277.31v-24.02h7.28v24.02z"/><path d="M330.45 277.32v-6.48h11.08v6.48zM329.45 323.43v-24.02h7.28v24.02z"/><path d="M330.45 323.44v-6.48h11.08v6.48zM329.45 369.16v-24.02h7.28v24.02z"/><path d="M330.45 369.16v-6.48h11.33v6.48zM341.54 90.05v6.48h-12.08v-6.48zM341.53 47.07v6.98h-12.08v-6.98z"/><path d="M330.77 51.98v18.99h-2.81V51.98zM330.77 116.56v19.32h-2.81v-19.32zM341.53.43v6.61h-6.48V.43z"/></g></svg>