<svg xmlns="http://www.w3.org/2000/svg" id="Layer_1" viewBox="0 0 393.66 612.33"><g id="flats" fill="#e5ebed"><path id="fl262" d="M178.23 350h-.07v-4.61h-5.1V350h-45.87v-32.35l-73.01.26v85.51H178.9l-.67-10.08V350z"/><path id="fl261" d="M182.22 405.94h-5.05v.07H54.03l.28 150.84h94.52v-98.93h30.18l-.82-10v-12.34l.82-4.33h3.21v-25.31z"/><path id="fl260" d="M238.4 557.14h-89.8l1.17-96.99 44.71.98h12.45l31.13-1.05.34 97.06z"/><path id="fl259" d="M338.16 457.72v-51.3H215.69v-.19h-5.29v17.24h3.43V443.92l-.96 17.09 25.19-.93-.46 96.68h100.62v-99.04h-.06z"/><path id="fl258" d="M213.59 353.17h124.6v52.51h-124.6l.24-28.95v-12.38l-.24-11.18z"/><path id="fl257" d="M258.46 261.06v22.26h-44.61l-.02 44.07v12.4l.02 11.29h124.7v-90.02h-80.09z"/><path id="fl256" d="M217.88 171.03v-9.41h-6.82v15.93l2.77 4.07v12.33l-.62 22.91h7.84v4.73h36.5v40.68h80.8V171.03H217.88z"/><path id="fl255" d="m213.82 119.27.01 25.64v11.92l-.75 3.61 4.8.87v6.33h120.67v-48.37H213.82z"/><path id="fl254" d="M195.12 3.53v88.24h18.7l.01 5.02v11.82l-.01 9.6h124.53V3.53H195.12z"/><path id="fl253" d="M192.91 3.83H53.9V117.06h67.35v16.07h60.43l-.91-25.84V95.47l-.1-3.84h12.24V3.83z"/><path id="fl252" d="M178.17 177.29v-12.32l-.06-31.51h-56.37v-16.72H53.9v89.2H172.38v.24h9.3v-26.12l-3.51-2.77z"/></g><g id="windows" fill="none" stroke="#003a50" stroke-miterlimit="10"><path stroke-width=".52" d="M54.02 13.87v530.16M50.64.07v560.49M59.75 13.87v530.16"/><path stroke-width=".26" d="M57.79 13.88v530.15"/><path stroke-width=".52" d="M332.77 6.27v539.17M338.35 6.52v539.17M341.7.43v559.94"/><path stroke-width=".26" d="M334.77 6.27v539.17"/><path stroke-width=".52" d="M56.18 9.27h277.26M56.18 3.53h277.26M56.18.32h285.78"/><path stroke-width=".26" d="M56.18 7.18h277.26"/><path stroke-width=".52" d="M61.7 556.95h271.51M50.39 560.29h291.56M61.7 551.21h271.51"/><path stroke-width=".26" d="M61.7 553.95h271.51"/></g><g id="walls_outside" fill="#003a50"><path fill-rule="evenodd" d="M175.92 12.33h23.94V0l-23.94 2.92v9.41zM62.92 259.63v-23.94H50.58l2.92 23.94h9.42zM62.92 167.46v-23.94H50.58l2.92 23.94h9.42zM62.92 325.15v-23.94H50.58l2.92 23.94h9.42z"/><path d="M62.91 5.94v10.47h-9.36V5.94z"/><path d="M78.6 3.33v9H54.15v-9zM124.17.37v11.96h-23.75V.37zM154.55.38v11.96h-8.61V.38zM245.71.38v11.96h-6.67V.38z"/><path d="M244.71 3.84v8.5h-22.92v-8.5zM121.75 1.37v12.5h-19.33V1.37zM198.08 7.04v6.83h-19.33V7.04z"/><path fill-rule="evenodd" d="M267.48 12.33h24.44V0l-24.44 2.92v9.41z"/><path d="M289.64 7.04v6.83h-19.33V7.04zM57.38.07v7.05h-6.73V.07zM62.92 98.23v23.64h-8.9V98.23z"/><path d="M61.91 98.24v6.48H50.83v-6.48zM62.92 51.98v23.64H50.84V51.98z"/><path d="M64.18 51.98v19.18h-4.13V51.98zM62.92 189.39v24.3h-8.9v-24.3z"/><path d="M61.92 189.39v6.48H50.84v-6.48zM53.9 281.4v-23.64h9.02v23.64z"/><path d="M50.83 281.4v-6.48h11.08v6.48zM61.91 319.51v-3.45h85v3.45zM62.6 282.14v-3.45h119.11v3.45zM59.38 207.99v-3.45h122.83v3.45zM59.38 119.99v-3.45h62.38v3.45zM119.29 136.57v-3.45h62.38v3.45zM211.2 121.57v-3.45h122v3.45z"/><path d="M182.36 164.96h-4.2v-31.89h4.2zM182.36 181.72h-4.2v-4.43h4.2z"/><path d="M182.37 182.25h-13.44v-2.96h13.44z"/><path d="M171.55 180.77v24.61h-2.63v-24.61zM176.21 134.84h-2.92v-26.56h2.92z"/><path d="M182.37 108.1v2.92h-9.08v-2.92zM213.83 90.47v4.17h-35.5v-4.17z"/><path d="M209.75 92.6h4.08v4.2h-4.08zM209.75 108.61h4.08v36.31h-4.08zM209.75 156.83h4.08v5.27h-4.08zM209.75 176.04h4.08v5.58h-4.08zM209.75 193.95h4.08v25.21h-4.08zM209.75 283.18h4.08v44.21h-4.08zM209.75 339.79h4.08v24.56h-4.08zM209.75 376.73h4.08v28.95h-4.08zM209.75 420.34h4.08v11.2h-4.08zM215.69 407.03h2.95v16.07h-2.95z"/><path d="M210.61 423.3v-2.95h8.04v2.95zM209.75 443.92h4.08v16.5h-4.08z"/><path d="M206.92 461.13v-4.08h32.99v4.08zM146.56 461.13v-4.08h47.96v4.08z"/><path d="M150.64 552.21h-4.08v-93.12h4.08zM182.26 458.04h-4.08v-10.12h4.08zM182.26 435.58h-4.08v-5.99h4.08zM182.26 405.96h-4.08v-12.62h4.08zM182.26 381.02h-4.08V343.5h4.08z"/><path d="M182.27 351.04h-2.52V314.5h2.52z"/><path d="M182.26 319.47h-3.6v-22.63h3.6zM181.26 432.55h-10.14v-2.96h10.14z"/><path d="M174.39 432.47h-3.27v-27.13h3.27zM240.43 552.21h-4.08v-95.16h4.08zM212.87 354.18v-4.08h118.59v4.08zM209.75 407.25v-3.15h121.7v3.15zM209.75 178.54v-2.5h11.45v2.5zM209.76 219.41v-2.93h12.89v2.93z"/><path d="M222.64 224.45h-2.93v-7.97h2.93zM209.75 217.29h2.7v43.77h-2.7zM209.75 273.29h2.7v9.44h-2.7zM218.52 158.88h2.69v19.67h-2.69z"/><path d="M210.63 162.18v-3.89h10.58v3.89zM218.52 171.02v-4.08h111.93v4.08zM311.71 215.46v-5.33h18.74v5.33zM258.46 262.86v-4.06h71.99v4.06zM219.96 224.46v-4.37h40.12v4.37zM209.76 283.77v-4.06h50.32v4.06z"/><path d="M260.33 283.77h-4.32v-63.23h4.32zM192.45 12.78h4.08v78.7h-4.08zM121.75 136.57h-3.96v-20.03h3.96zM140.26 318.39h-3.45v-23.18h3.45zM140.26 282.9h-3.45v-3.45h3.45zM61.92 406.75v-3.45h120.33v3.45zM159.64 319.51v-3.45h22.62v3.45zM127.58 353.54h-4.19v-34.45h4.19z"/><path d="M173.21 349.66v4.2h-46.93v-4.2zM179.75 343.51v2.7h-8.62v-2.7z"/><path d="M170.65 343.7h2.7v9.84h-2.7zM54.02 369.93v-23.31h8.9v23.31zM50.83 415.86v-24.12h12.08v24.12zM50.83 507.21v-24.12h12.08v24.12z"/><path d="M50.83 369.93v-6.48h11.08v6.48zM53.56 460.94v-23.15h9.38v23.15zM53.55 498.2v-15.11h10.71v15.11z"/><path d="M50.83 460.93v-6.48h11.08v6.48zM53.56 557.42V541.7h9.36v15.72z"/><path d="M55.17 557.41v-8.44h9.54v8.44zM146.26 560.66v-11.69h6.76v11.69zM100.22 560.67v-11.69h23.94v11.69z"/><path d="M147.26 554.82v-5.84h6.76v5.84zM269.08 554.22v-6.78h20.71v6.78zM177.64 554.22v-6.78h20.71v6.78zM102.38 554.22v-6.78h19.54v6.78zM329.26 557.54v-8.56h8.56v8.56zM222.04 557.54v-8.56h23.83v8.56z"/><path d="M239.08 560.46v-10.48h6.79v10.48zM50.83 560.56v-6.48h6.48v6.48z"/><path fill-rule="evenodd" d="M329.45 231.57v-23.93h12.33l-2.91 23.93h-9.42zM329.45 140.01v-23.94h12.33l-2.91 23.94h-9.42zM329.45 70.97V47.04h12.33l-2.91 23.93h-9.42z"/><path d="M329.11 557.54v-15.17h10v15.17zM327.84 498.29v-15.42h2.37v15.42zM327.84 459.66v-19.1h2.37v19.1z"/><path d="M334.99 560.28v-5.95h6.46v5.95zM329.45 460.88v-23.64h9.78v23.64z"/><path d="M330.45 460.89v-6.48h10.94v6.48zM329.45 186.75v-24.02h9.69v24.02z"/><path d="M330.44 186.76v-6.48h11.08v6.48z"/><path fill-rule="evenodd" d="M329.45 323.32v-23.37h12.33l-2.91 23.37h-9.42z"/><path d="M329.45 277.32v-23.31h9v23.31z"/><path d="M329.44 278.69v-6.88h12.08v6.88z"/><path fill-rule="evenodd" d="M329.45 415.72v-23.94h12.33l-2.91 23.94h-9.42zM176.24 548.35h23.94v12.17l-23.94-2.88v-9.29zM268.12 548.35h23.93v12.17l-23.93-2.88v-9.29z"/><path d="M329.45 369.17v-24.02h8.9v24.02z"/><path d="M330.45 369.16v-6.48h11.33v6.48zM341.54 90.05v6.48h-12.08v-6.48zM330.77 51.98v18.99h-2.81V51.98zM330.77 116.56v19.32h-2.81v-19.32zM338.2 3.57v8.44h-8.84V3.57z"/><path d="M338.56 3.58v8.44h-23.89V3.58zM292.54 3.34v8.99h-6.62V3.34z"/><path d="M341.53.44v7.73h-26.86V.44zM329.81 482.88h11.75v23.83h-11.75z"/></g></svg>