<svg xmlns="http://www.w3.org/2000/svg" id="Layer_1" viewBox="0 0 393.66 612.33"><g id="flats" fill="#e5ebed"><path id="fl273" d="m178.19 381.03 1.56-35.64h-6.73V350h-45.88v-32.35l-64.48.26v85.51l116.25.58-.72-10.66v-12.31z"/><path id="fl272" d="M181.52 406.23h-5.05v.08H62.42V551.21h85.71v-93h30.18l-.12-10.29v-12.34l3.33-4.04v-25.31z"/><path id="fl271" d="M238.4 551.21h-90.27l.47-91.75 45.92 1.67h12.41l30.92-1.67.55 91.75z"/><path id="fl270" d="M329.81 406.42H215.69v-.19h-5.29v17.24l3.43 8.07v12.38l-1.87 15.71 25.89-.17.17 91.37 91.79.38V406.42z"/><path id="fl269" d="M212.58 353.17h117.23v52.51H212.18l1.65-28.95v-12.38l-1.25-11.18z"/><path id="fl268" d="M258.46 261.06v22.26h-45.65l1.02 44.07v12.4l.02 11.29h115.96v-90.02h-71.35z"/><path id="fl267" d="M217.88 170.66v-9.04h-6.82v15.93l2.77 4.07v12.33l-.62 22.91h7.14v4.73h36.95v40.68h72.51v-91.61H217.88z"/><path id="fl266" d="M329.81 167.64H219.86l-.64-6.33-5.39-.44v-15.96l-1.52-25.64h117.5v48.37z"/><path id="fl265" d="M195.12 12.24v79.53l15.34.96 3.37 4.06v11.82l-.01 9.6h115.82V12.24H195.12z"/><path id="fl264" d="M192.91 11.99H62.42v105.07h58.83v16.07h59.42l.9-25.03-.8-.81V95.47l-.1-3.84h12.24V11.99z"/><path id="fl263" d="M178.17 177.29v-12.32l-.06-31.51h-56.37v-16.72H62.42v89.2H121.47l60.21.24v-26.12l-3.51-2.77z"/></g><g id="windows" fill="none" stroke="#003a50" stroke-miterlimit="10"><path stroke-width=".52" d="M56.68 10.46v535.53M62.42 10.46v535.53"/><path stroke-width=".26" d="M59.68 10.46v535.53"/><path stroke-width=".52" d="M329.81 9.37v536.07M335.55 9.37v536.07"/><path stroke-width=".26" d="M332.81 9.37v536.07"/><path stroke-width=".52" d="M61.7 12.01h271.51M61.7 6.27h271.51"/><path stroke-width=".26" d="M61.7 9.01h271.51"/><path stroke-width=".52" d="M61.7 556.95h271.51M61.7 551.21h271.51"/><path stroke-width=".26" d="M61.7 553.95h271.51"/></g><g id="walls_outside" fill="#003a50"><path fill-rule="evenodd" d="M62.92 167.54v-23.93H50.58l2.92 23.93h9.42zM175.92 12.33h23.94V0l-23.94 2.92v9.41zM62.92 259.63v-23.94H50.58l2.92 23.94h9.42zM62.92 325.15v-23.94H50.58l2.92 23.94h9.42zM176.06 549H200v12.33l-23.94-2.91V549zM267.45 549h23.94v12.33l-23.94-2.91V549z"/><path d="M62.92 5.94v10.47H53.9V5.94z"/><path d="M65.13 5.94v6.39H52.42V5.94zM124.16.38v11.96h-6.77V.38zM154.55.38v11.96h-8.61V.38zM245.71.38v11.96h-6.67V.38z"/><path d="M244.71 3.84v8.5h-22.92v-8.5zM121.75 7.63v6.25h-19.33V7.63z"/><path d="M123.1.38v11.96h-22.81V.38zM77.93 4v8.33H55.01V4zM198.08 7.04v6.83h-19.33V7.04z"/><path fill-rule="evenodd" d="M267.48 12.33h23.94V0l-23.94 2.92v9.41z"/><path d="M289.64 7.04v6.83h-19.33V7.04zM57.38.87v6.25h-6.46V.87zM62.91 98.23v23.64h-9.75V98.23z"/><path d="M61.91 98.24v6.48H50.83v-6.48zM62.92 189.39v24.3H53.9v-24.3z"/><path d="M61.92 189.39v6.48H50.84v-6.48zM53.45 281.41v-23.64h9.46v23.64zM50.83 415.91v-23.64h12.08v23.64z"/><path d="M50.83 281.4v-6.48h11.08v6.48zM61.91 319.51v-3.45h85v3.45zM62.6 282.14v-3.45h119.11v3.45zM59.38 207.99v-3.45h122.83v3.45zM59.38 119.99v-3.45h62.38v3.45zM119.29 136.57v-3.45h62.38v3.45zM211.2 121.57v-3.45h122v3.45z"/><path d="M182.36 164.96h-4.2v-31.89h4.2zM182.36 181.72h-4.2v-4.43h4.2z"/><path d="M182.37 182.25h-13.44v-2.96h13.44z"/><path d="M171.55 180.77v24.61h-2.63v-24.61zM176.21 134.84h-2.92v-26.56h2.92z"/><path d="M182.37 108.1v2.92h-9.08v-2.92zM213.83 90.47v4.17h-35.5v-4.17z"/><path d="M209.75 92.6h4.08v4.2h-4.08zM209.75 108.61h4.08v36.31h-4.08zM209.75 156.83h4.08v5.27h-4.08zM209.75 176.04h4.08v5.58h-4.08zM209.75 193.95h4.08v25.21h-4.08zM209.75 283.18h4.08v44.21h-4.08zM209.75 339.79h4.08v24.56h-4.08zM209.75 376.73h4.08v28.95h-4.08zM209.75 420.34h4.08v11.2h-4.08zM215.69 407.03h2.95v16.07h-2.95z"/><path d="M210.61 423.3v-2.95h8.04v2.95zM209.75 443.92h4.08v16.5h-4.08z"/><path d="M206.92 461.13v-4.08h32.99v4.08zM146.56 461.13v-4.08h47.96v4.08z"/><path d="M150.64 552.21h-4.08v-93.12h4.08zM182.26 458.04h-4.08v-10.12h4.08zM182.26 435.58h-4.08v-5.99h4.08zM182.26 405.96h-4.08v-12.62h4.08zM182.26 381.02h-4.08V343.5h4.08z"/><path d="M182.27 351.04h-2.52V314.5h2.52z"/><path d="M182.26 319.47h-3.6v-22.63h3.6zM181.26 432.55h-10.14v-2.96h10.14z"/><path d="M174.39 432.47h-3.27v-27.13h3.27zM240.43 552.21h-4.08v-95.16h4.08zM212.87 354.18v-4.08h118.59v4.08zM209.75 407.25v-3.15h121.7v3.15zM209.75 178.54v-2.5h11.45v2.5zM209.76 219.41v-2.93h12.89v2.93z"/><path d="M222.64 224.45h-2.93v-7.97h2.93zM209.75 217.29h2.7v43.77h-2.7zM209.75 273.29h2.7v9.44h-2.7zM218.52 158.88h2.69v19.67h-2.69z"/><path d="M210.63 162.18v-3.89h10.58v3.89zM218.52 171.02v-4.08h111.93v4.08zM311.71 215.46v-5.33h18.74v5.33zM258.46 262.86v-4.06h71.99v4.06zM219.96 224.46v-4.37h40.12v4.37zM209.76 283.77v-4.06h50.32v4.06z"/><path d="M260.33 283.77h-4.32v-63.23h4.32zM192.45 12.78h4.08v78.7h-4.08zM121.75 136.57h-3.92v-20.03h3.92zM140.26 282.9h-3.45v-3.45h3.45zM61.92 406.75v-3.45h120.33v3.45zM159.64 319.51v-3.45h22.62v3.45zM127.58 353.54h-4.19v-34.45h4.19z"/><path d="M173.21 349.66v4.2h-46.93v-4.2zM179.75 343.51v2.7h-8.62v-2.7z"/><path d="M170.65 343.7h2.7v9.84h-2.7zM54.77 369.93v-22.7h8.15v22.7z"/><path d="M50.83 369.93v-6.48h11.08v6.48zM52.89 460.94v-22.7h10.02v22.7zM51.81 507.38V483.3h11.11v24.08z"/><path d="M50.83 460.93v-6.48h11.08v6.48zM54.17 557.41V543h8.75v14.41z"/><path d="M55.17 557.41v-8.44h9.54v8.44zM100.12 559.45v-10.48h24v10.48zM146.26 560.66v-11.69h6.76v11.69z"/><path d="M147.26 554.82v-5.84h6.76v5.84zM269.08 554.22v-6.78h20.71v6.78zM177.64 554.22v-6.78h20.71v6.78zM102.38 554.22v-6.78h19.54v6.78zM313.83 559.45v-10.48h24v10.48zM222.04 558.56v-9.58h23.83v9.58z"/><path d="M239.08 560.46v-10.48h6.79v10.48zM50.83 560.56v-6.48h6.48v6.48zM50.83 75.84V52.2h12.08v23.64z"/><path fill-rule="evenodd" d="M329.45 140.01v-23.94h12.33l-2.91 23.94h-9.42zM329.45 232.85v-23.94h12.33l-2.91 23.94h-9.42zM329.45 323.62v-23.93h12.33l-2.91 23.93h-9.42zM329.45 70.97V47.04h12.33l-2.91 23.93h-9.42z"/><path d="M329.11 554.32v-11.2h9.78v11.2zM327.84 498.29v-14.94h2.37v14.94zM327.84 459.66v-19.1h2.37v19.1zM334.99 560.57v-6.25h6.46v6.25z"/><path d="M329.45 460.88v-23.64h9.44v23.64z"/><path d="M330.45 460.89v-6.48h9.88v6.48zM329.44 185.57v-24.02h9.03v24.02z"/><path d="M330.45 185.57v-6.48h11.08v6.48zM329.45 277.32V253.3h9.44v24.02z"/><path d="M330.45 277.32v-6.48h11.08v6.48z"/><path fill-rule="evenodd" d="M329.45 415.17v-23.94h12.33l-2.91 23.94h-9.42z"/><path d="M329.45 369.17v-24.02h9.44v24.02zM329.45 507.38v-24.02h12.08v24.02z"/><path d="M330.45 369.17v-6.48h9.88v6.48zM341.54 90.05v6.48h-12.08v-6.48zM330.77 51.98v18.99h-2.81V51.98zM330.77 116.56v19.32h-2.81v-19.32zM338.2 3.58v8.43h-8.84V3.58z"/><path d="M337.2.43v11.58h-23.58V.43z"/><path d="M341.54.43v7.94h-6.48V.43z"/></g></svg>