<svg xmlns="http://www.w3.org/2000/svg" id="Layer_1" viewBox="0 0 393.66 612.33"><g id="flats" fill="#e5ebed"><path id="fl295" d="m179.35 345.29-6.33.1V350l-46.13.87.25-33.22-64.87.26.39 85.51 115.45-.26.08-9.82v-12.31l1.16-35.74z"/><path id="fl294" d="M181.52 406.23h-5.05v.08H62.42V551.21h85.71v-93h30.18l-.12-10.29v-12.34l1.7-1.88 1.63-2.16v-25.31z"/><path id="fl293" d="M240.47 551.21h-93.54l1.32-91.06 46.27.98h12.41l31.71-.71 1.83 90.79z"/><path id="fl292" d="M329.42 457.72v-51.3H215.69v-.19h-5.29v17.24l3.43 8.07v29.47l23.62-.59 1.63 90.79h90.73l-.33-93.49h-.06z"/><path id="fl291" d="M213.59 353.17h115.86v52.51H213.59l.24-28.95v-12.38l-.24-11.18z"/><path id="fl290" d="M258.46 261.06v22.26l-45.6-.99.97 45.06v12.4l.02 11.29h115.96v-90.02h-71.35z"/><path id="fl289" d="M217.88 171.03v-9.41h-6.82v15.93l2.77 4.07v12.33l-.62 22.91h7.14v4.73h36.95v40.68h72.51v-91.24H217.88z"/><path id="fl288" d="M329.81 167.64H219.22l-.8-7.41-4.59-.75v-14.57l-.94-25.64h116.92v48.37z"/><path id="fl287" d="M195.12 12.24v79.53l15.5.96 3.21 4.06v11.82l-.69 10.18 116.5-.58V12.24H195.12z"/><path id="fl286" d="M192.91 11.99H62.42v105.07h58.83v16.07l56.58 1.72 2.94-.75V95.47l3.45-3.1 8.69-.74V11.99z"/><path id="fl285" d="M178.17 177.29v-12.32l-.06-31.51h-56.37v-16.72H62.42v89.2H172.38v.24h9.3v-26.12l-3.51-2.77z"/></g><g id="windows" fill="none" stroke="#003a50" stroke-miterlimit="10"><path stroke-width=".52" d="M56.68 18.64v517.88M62.42 18.64v517.88"/><path stroke-width=".26" d="M59.68 18.65v517.87"/><path stroke-width=".52" d="M329.81 9.37v536.07M335.55 9.37v536.07"/><path stroke-width=".26" d="M332.81 9.37v536.07"/><path stroke-width=".52" d="M61.7 12.01h271.51M61.7 6.27h271.51"/><path stroke-width=".26" d="M61.7 9.01h271.51"/><path stroke-width=".52" d="M61.7 556.95h271.51M61.7 551.21h271.51"/><path stroke-width=".26" d="M61.7 553.95h271.51"/></g><g id="walls_outside" fill="#003a50"><path fill-rule="evenodd" d="M62.92 52.19v23.93l-12.34.01 2.92-23.94h9.42zM199.86 12.33h-23.94V0l23.94 2.92v9.41zM62.92 235.69v23.93l-12.34.01 2.92-23.94h9.42zM62.92 301.21v23.94H50.58l2.92-23.94h9.42zM62.92 483.06V507H50.58l2.92-23.94h9.42zM200 549h-23.94v12.33l23.94-2.91V549zM291.39 549h-23.94v12.33l23.94-2.91V549z"/><path d="M62.91 5.94v24.43h-11.5V5.94z"/><path d="M65.13 5.94v6.39H52.42V5.94zM124.16.38v11.96h-6.77V.38zM154.55.38v11.96h-8.61V.38zM245.71.38v11.96h-6.67V.38z"/><path d="M244.71 3.58v8.76h-22.92V3.58zM121.75 7.63v6.25h-19.33V7.63z"/><path d="M123.1 2.68v9.65h-22.81V2.68zM77.94.88v11.46H55.02V.88zM198.08 7.04v6.83h-19.33V7.04z"/><path fill-rule="evenodd" d="M291.42 12.33h-23.94V0l23.94 2.92v9.41z"/><path d="M289.64 7.04v6.83h-19.33V7.04zM57.37.88v6.25h-7.14V.88zM62.91 98.23v23.64h-9.75V98.23z"/><path d="M61.91 98.24v6.48H50.83v-6.48zM62.92 189.39v24.3H53.9v-24.3z"/><path d="M61.92 189.39v6.48H50.84v-6.48zM53.45 281.41v-23.64h9.46v23.64zM50.58 415.9v-23.64h12.33v23.64z"/><path d="M50.83 281.4v-6.48h11.08v6.48zM61.91 319.51v-3.45h85v3.45zM62.6 282.14v-3.45h119.11v3.45zM59.38 207.99v-3.45h122.83v3.45zM59.38 119.99v-3.45h62.38v3.45zM119.29 136.57v-3.45h62.38v3.45zM211.2 121.57v-3.45h122v3.45z"/><path d="M182.36 164.96h-4.2v-31.89h4.2zM182.36 181.72h-4.2v-4.43h4.2z"/><path d="M182.37 182.25h-13.44v-2.96h13.44z"/><path d="M171.55 180.77v24.61h-2.63v-24.61zM176.21 134.84h-2.92v-26.56h2.92z"/><path d="M182.37 108.1v2.92h-9.08v-2.92zM213.83 90.47v4.17h-35.5v-4.17z"/><path d="M209.75 92.6h4.08v4.2h-4.08zM209.75 108.61h4.08v36.31h-4.08zM209.75 156.83h4.08v5.27h-4.08zM209.75 176.04h4.08v5.58h-4.08zM209.75 193.95h4.08v25.21h-4.08zM209.75 283.18h4.08v44.21h-4.08zM209.75 339.79h4.08v24.56h-4.08zM209.75 376.73h4.08v28.95h-4.08zM209.75 420.34h4.08v11.2h-4.08zM215.69 407.03h2.95v16.07h-2.95z"/><path d="M210.61 423.3v-2.95h8.04v2.95zM209.75 443.92h4.08v16.5h-4.08z"/><path d="M206.92 461.13v-4.08h32.99v4.08zM146.56 461.13v-4.08h47.96v4.08z"/><path d="M150.64 552.21h-4.08v-93.12h4.08zM182.26 458.04h-4.08v-10.12h4.08zM182.26 435.58h-4.08v-5.99h4.08zM182.26 405.96h-4.08v-12.62h4.08zM182.26 381.02h-4.08V343.5h4.08z"/><path d="M182.27 351.04h-2.52V314.5h2.52z"/><path d="M182.26 319.47h-3.6v-22.63h3.6zM181.26 432.55h-10.14v-2.96h10.14z"/><path d="M174.39 432.47h-3.27v-27.13h3.27zM240.43 552.21h-4.08v-95.16h4.08zM212.87 354.18v-4.08h118.59v4.08zM209.75 407.25v-3.15h121.7v3.15zM209.75 178.54v-2.5h11.45v2.5zM209.76 219.41v-2.93h12.89v2.93z"/><path d="M222.64 224.45h-2.93v-7.97h2.93zM209.75 217.29h2.7v43.77h-2.7zM209.75 273.29h2.7v9.44h-2.7zM218.52 158.88h2.69v19.67h-2.69z"/><path d="M210.63 162.18v-3.89h10.58v3.89zM218.52 171.02v-4.08h111.93v4.08zM311.71 215.46v-5.33h18.74v5.33zM258.46 262.86v-4.06h71.99v4.06zM219.96 224.46v-4.37h40.12v4.37zM209.76 283.77v-4.06h50.32v4.06z"/><path d="M260.33 283.77h-4.32v-63.23h4.32zM192.45 12.78h4.08v78.7h-4.08zM121.75 136.57h-4.02v-20.03h4.02zM140.26 282.9h-3.45v-3.45h3.45zM61.92 406.75v-3.45h120.33v3.45zM159.64 319.51v-3.45h22.62v3.45zM127.58 353.54h-4.19v-34.45h4.19z"/><path d="M173.21 349.66v4.2h-46.93v-4.2zM179.75 343.51v2.7h-8.62v-2.7z"/><path d="M170.65 343.7h2.7v9.84h-2.7zM54.77 369.93v-22.7h8.15v22.7z"/><path d="M50.83 369.93v-6.48h11.08v6.48zM54.17 460.93v-22.7h8.75v22.7z"/><path d="M50.83 460.93v-6.48h11.08v6.48zM54.17 557.41v-28.53h8.75v28.53z"/><path d="M55.17 557.41v-8.44h9.54v8.44zM100.12 559.45v-10.48h24v10.48zM146.26 560.66v-11.69h6.76v11.69z"/><path d="M147.26 554.82v-5.84h6.76v5.84zM269.08 554.22v-6.78h20.71v6.78zM177.64 554.22v-6.78h20.71v6.78zM102.38 554.22v-6.78h19.54v6.78zM313.83 559.45v-10.48h24v10.48zM222.04 558.56v-9.58h23.83v9.58z"/><path d="M239.08 560.46v-10.48h6.79v10.48zM50.83 560.56v-6.48h6.48v6.48z"/><path fill-rule="evenodd" d="M62.92 167.54V143.9H53.5l-2.92 23.64h12.34zM329.45 482.56v23.94h12.33l-2.91-23.94h-9.42zM329.45 116.07v23.94h12.33l-2.91-23.94h-9.42z"/><path d="M329.45 47.04h9.42v23.93h-9.42zM329.11 554.32v-25.08h12.29v25.08zM327.84 498.29v-15.42h2.37v15.42zM327.84 459.66v-19.1h2.37v19.1zM334.99 560.57v-6.25h6.46v6.25z"/><path d="M329.45 460.88v-23.64h9.44v23.64z"/><path d="M330.45 460.89v-6.48h9.88v6.48zM329.44 185.57v-24.02h9.03v24.02z"/><path d="M330.45 185.57v-6.48h11.08v6.48zM329.45 277.32V253.3h9.44v24.02zM329.45 232.48v-24.02h11.53v24.02z"/><path d="M330.45 277.32v-6.48h11.08v6.48z"/><path fill-rule="evenodd" d="M329.45 391.23v23.94h12.33l-2.91-23.94h-9.42z"/><path d="M329.45 369.17v-24.02h9.44v24.02zM329.45 324.51v-24.02h12.08v24.02z"/><path d="M330.45 369.17v-6.48h9.88v6.48zM341.54 90.05v6.48h-12.08v-6.48zM330.77 51.98v18.99h-2.81V51.98zM330.77 116.56v19.32h-2.81v-19.32zM338.2 3.57v21.84h-8.84V3.57z"/><path d="M337.2 3.57v8.44h-7.84V3.57z"/><path d="M341.53.44v6.48h-6.48V.44z"/></g></svg>